  0
SECTION
  2
HEADER
  9
$ACADVER
  1
AC1032
  9
$ACADMAINTVER
 90
      248
  9
$DWGCODEPAGE
  3
ANSI_936
  9
$REQUIREDVERSIONS
160
                 0
  9
$INSBASE
 10
0.0
 20
0.0
 30
0.0
  9
$EXTMIN
 10
5.0
 20
8.999999999999943
 30
0.0
  9
$EXTMAX
 10
1637.0
 20
392.0000000000002
 30
0.0
  9
$LIMMIN
 10
0.0
 20
0.0
  9
$LIMMAX
 10
0.0
 20
0.0
  9
$ORTHOMODE
 70
     0
  9
$REGENMODE
 70
     1
  9
$FILLMODE
 70
     1
  9
$QTEXTMODE
 70
     0
  9
$MIRRTEXT
 70
     0
  9
$LTSCALE
 40
8.0
  9
$ATTMODE
 70
     1
  9
$TEXTSIZE
 40
2.5
  9
$TRACEWID
 40
0.05
  9
$TEXTSTYLE
  7
SIMPLEX
  9
$CLAYER
  8
0
  9
$CELTYPE
  6
ByLayer
  9
$CECOLOR
 62
   256
  9
$CELTSCALE
 40
1.0
  9
$DISPSILH
 70
     0
  9
$DIMSCALE
 40
1.0
  9
$DIMASZ
 40
2.5
  9
$DIMEXO
 40
1.0
  9
$DIMDLI
 40
7.5
  9
$DIMRND
 40
0.0
  9
$DIMDLE
 40
1.25
  9
$DIMEXE
 40
1.25
  9
$DIMTP
 40
0.0
  9
$DIMTM
 40
0.0
  9
$DIMTXT
 40
3.0
  9
$DIMCEN
 40
1.25
  9
$DIMTSZ
 40
0.0
  9
$DIMTOL
 70
     0
  9
$DIMLIM
 70
     0
  9
$DIMTIH
 70
     0
  9
$DIMTOH
 70
     0
  9
$DIMSE1
 70
     0
  9
$DIMSE2
 70
     0
  9
$DIMTAD
 70
     1
  9
$DIMZIN
 70
     8
  9
$DIMBLK
  1

  9
$DIMASO
 70
     1
  9
$DIMSHO
 70
     1
  9
$DIMPOST
  1

  9
$DIMAPOST
  1

  9
$DIMALT
 70
     0
  9
$DIMALTD
 70
     2
  9
$DIMALTF
 40
25.4
  9
$DIMLFAC
 40
1.0
  9
$DIMTOFL
 70
     0
  9
$DIMTVP
 40
2.0
  9
$DIMTIX
 70
     0
  9
$DIMSOXD
 70
     0
  9
$DIMSAH
 70
     0
  9
$DIMBLK1
  1

  9
$DIMBLK2
  1

  9
$DIMSTYLE
  2
Standard
  9
$DIMCLRD
 70
     0
  9
$DIMCLRE
 70
     0
  9
$DIMCLRT
 70
     0
  9
$DIMTFAC
 40
1.0
  9
$DIMGAP
 40
1.25
  9
$DIMJUST
 70
     0
  9
$DIMSD1
 70
     0
  9
$DIMSD2
 70
     0
  9
$DIMTOLJ
 70
     1
  9
$DIMTZIN
 70
     0
  9
$DIMALTZ
 70
     0
  9
$DIMALTTZ
 70
     0
  9
$DIMUPT
 70
     0
  9
$DIMDEC
 70
     3
  9
$DIMTDEC
 70
     4
  9
$DIMALTU
 70
     2
  9
$DIMALTTD
 70
     2
  9
$DIMTXSTY
  7
SIMPLEX
  9
$DIMAUNIT
 70
     0
  9
$DIMADEC
 70
     0
  9
$DIMALTRND
 40
0.0
  9
$DIMAZIN
 70
     0
  9
$DIMDSEP
 70
    46
  9
$DIMATFIT
 70
     3
  9
$DIMFRAC
 70
     0
  9
$DIMLDRBLK
  1

  9
$DIMLUNIT
 70
     2
  9
$DIMLWD
 70
    -2
  9
$DIMLWE
 70
    -2
  9
$DIMTMOVE
 70
     0
  9
$DIMFXL
 40
1.0
  9
$DIMFXLON
 70
     0
  9
$DIMJOGANG
 40
0.7853981633974483
  9
$DIMTFILL
 70
     0
  9
$DIMTFILLCLR
 70
     0
  9
$DIMARCSYM
 70
     0
  9
$DIMLTYPE
  6

  9
$DIMLTEX1
  6

  9
$DIMLTEX2
  6

  9
$DIMTXTDIRECTION
 70
     0
  9
$LUNITS
 70
     2
  9
$LUPREC
 70
     4
  9
$SKETCHINC
 40
0.1
  9
$FILLETRAD
 40
0.0
  9
$AUNITS
 70
     0
  9
$AUPREC
 70
     0
  9
$MENU
  1
.
  9
$ELEVATION
 40
0.0
  9
$PELEVATION
 40
0.0
  9
$THICKNESS
 40
0.0
  9
$LIMCHECK
 70
     0
  9
$CHAMFERA
 40
0.0
  9
$CHAMFERB
 40
0.0
  9
$CHAMFERC
 40
0.0
  9
$CHAMFERD
 40
0.0
  9
$SKPOLY
 70
     0
  9
$TDCREATE
 40
2453354.050451389
  9
$TDUCREATE
 40
2453353.717125822
  9
$TDUPDATE
 40
2460607.479513889
  9
$TDUUPDATE
 40
2460607.146180556
  9
$TDINDWG
 40
16384.3211262384
  9
$TDUSRTIMER
 40
16384.3209872107
  9
$USRTIMER
 70
     1
  9
$ANGBASE
 50
0.0
  9
$ANGDIR
 70
     0
  9
$PDMODE
 70
     0
  9
$PDSIZE
 40
0.0
  9
$PLINEWID
 40
0.0
  9
$SPLFRAME
 70
     0
  9
$SPLINETYPE
 70
     6
  9
$SPLINESEGS
 70
     8
  9
$HANDSEED
  5
2B7
  9
$SURFTAB1
 70
     6
  9
$SURFTAB2
 70
     6
  9
$SURFTYPE
 70
     6
  9
$SURFU
 70
     6
  9
$SURFV
 70
     6
  9
$UCSBASE
  2

  9
$UCSNAME
  2

  9
$UCSORG
 10
0.0
 20
0.0
 30
0.0
  9
$UCSXDIR
 10
1.0
 20
0.0
 30
0.0
  9
$UCSYDIR
 10
0.0
 20
1.0
 30
0.0
  9
$UCSORTHOREF
  2

  9
$UCSORTHOVIEW
 70
     0
  9
$UCSORGTOP
 10
0.0
 20
0.0
 30
0.0
  9
$UCSORGBOTTOM
 10
0.0
 20
0.0
 30
0.0
  9
$UCSORGLEFT
 10
0.0
 20
0.0
 30
0.0
  9
$UCSORGRIGHT
 10
0.0
 20
0.0
 30
0.0
  9
$UCSORGFRONT
 10
0.0
 20
0.0
 30
0.0
  9
$UCSORGBACK
 10
0.0
 20
0.0
 30
0.0
  9
$PUCSBASE
  2

  9
$PUCSNAME
  2

  9
$PUCSORG
 10
0.0
 20
0.0
 30
0.0
  9
$PUCSXDIR
 10
1.0
 20
0.0
 30
0.0
  9
$PUCSYDIR
 10
0.0
 20
1.0
 30
0.0
  9
$PUCSORTHOREF
  2

  9
$PUCSORTHOVIEW
 70
     0
  9
$PUCSORGTOP
 10
0.0
 20
0.0
 30
0.0
  9
$PUCSORGBOTTOM
 10
0.0
 20
0.0
 30
0.0
  9
$PUCSORGLEFT
 10
0.0
 20
0.0
 30
0.0
  9
$PUCSORGRIGHT
 10
0.0
 20
0.0
 30
0.0
  9
$PUCSORGFRONT
 10
0.0
 20
0.0
 30
0.0
  9
$PUCSORGBACK
 10
0.0
 20
0.0
 30
0.0
  9
$USERI1
 70
     0
  9
$USERI2
 70
     0
  9
$USERI3
 70
     0
  9
$USERI4
 70
     0
  9
$USERI5
 70
 32767
  9
$USERR1
 40
0.0
  9
$USERR2
 40
0.0
  9
$USERR3
 40
0.0
  9
$USERR4
 40
0.0
  9
$USERR5
 40
0.0
  9
$WORLDVIEW
 70
     1
  9
$SHADEDGE
 70
     3
  9
$SHADEDIF
 70
    70
  9
$TILEMODE
 70
     1
  9
$MAXACTVP
 70
    16
  9
$PINSBASE
 10
0.0
 20
0.0
 30
0.0
  9
$PLIMCHECK
 70
     0
  9
$PEXTMIN
 10
0.0
 20
0.0
 30
0.0
  9
$PEXTMAX
 10
0.0
 20
0.0
 30
0.0
  9
$PLIMMIN
 10
0.0
 20
0.0
  9
$PLIMMAX
 10
0.0
 20
0.0
  9
$UNITMODE
 70
     0
  9
$VISRETAIN
 70
     0
  9
$PLINEGEN
 70
     0
  9
$PSLTSCALE
 70
     0
  9
$TREEDEPTH
 70
  3020
  9
$CMLSTYLE
  2
Standard
  9
$CMLJUST
 70
     0
  9
$CMLSCALE
 40
1.0
  9
$PROXYGRAPHICS
 70
     1
  9
$MEASUREMENT
 70
     0
  9
$CELWEIGHT
370
    -1
  9
$ENDCAPS
280
     0
  9
$JOINSTYLE
280
     0
  9
$LWDISPLAY
290
     0
  9
$INSUNITS
 70
     0
  9
$HYPERLINKBASE
  1

  9
$STYLESHEET
  1

  9
$XEDIT
290
     1
  9
$CEPSNTYPE
380
     0
  9
$PSTYLEMODE
290
     1
  9
$FINGERPRINTGUID
  2
{4E791ABB-DFB3-0544-8C10-8399818617B0}
  9
$VERSIONGUID
  2
{2BF848B3-C8EC-446C-9AF0-C3E910DF207B}
  9
$EXTNAMES
290
     1
  9
$PSVPSCALE
 40
0.0
  9
$OLESTARTUP
290
     0
  9
$SORTENTS
280
   127
  9
$INDEXCTL
280
     0
  9
$HIDETEXT
280
     1
  9
$XCLIPFRAME
280
     2
  9
$HALOGAP
280
     0
  9
$OBSCOLOR
 70
   257
  9
$OBSLTYPE
280
     0
  9
$INTERSECTIONDISPLAY
280
     0
  9
$INTERSECTIONCOLOR
 70
   257
  9
$DIMASSOC
280
     0
  9
$PROJECTNAME
  1

  9
$CAMERADISPLAY
290
     0
  9
$LENSLENGTH
 40
50.0
  9
$CAMERAHEIGHT
 40
0.0
  9
$STEPSPERSEC
 40
2.0
  9
$STEPSIZE
 40
6.0
  9
$3DDWFPREC
 40
2.0
  9
$PSOLWIDTH
 40
0.25
  9
$PSOLHEIGHT
 40
4.0
  9
$LOFTANG1
 40
1.570796326794896
  9
$LOFTANG2
 40
1.570796326794896
  9
$LOFTMAG1
 40
0.0
  9
$LOFTMAG2
 40
0.0
  9
$LOFTPARAM
 70
     7
  9
$LOFTNORMALS
280
     1
  9
$LATITUDE
 40
37.795
  9
$LONGITUDE
 40
-122.394
  9
$NORTHDIRECTION
 40
0.0
  9
$TIMEZONE
 70
 -8000
  9
$LIGHTGLYPHDISPLAY
280
     1
  9
$TILEMODELIGHTSYNCH
280
     1
  9
$CMATERIAL
347
34
  9
$SOLIDHIST
280
     0
  9
$SHOWHIST
280
     1
  9
$DWFFRAME
280
     2
  9
$DGNFRAME
280
     0
  9
$REALWORLDSCALE
290
     1
  9
$INTERFERECOLOR
 62
     1
  9
$INTERFEREOBJVS
345
59
  9
$INTERFEREVPVS
346
5A
  9
$CSHADOW
280
     0
  9
$SHADOWPLANELOCATION
 40
0.0
  0
ENDSEC
  0
SECTION
  2
CLASSES
  0
CLASS
  1
ACDBDICTIONARYWDFLT
  2
AcDbDictionaryWithDefault
  3
ObjectDBX Classes
 90
        0
 91
        1
280
     0
281
     0
  0
CLASS
  1
DICTIONARYVAR
  2
AcDbDictionaryVar
  3
ObjectDBX Classes
 90
        0
 91
       12
280
     0
281
     0
  0
CLASS
  1
TABLESTYLE
  2
AcDbTableStyle
  3
ObjectDBX Classes
 90
     4095
 91
        1
280
     0
281
     0
  0
CLASS
  1
SORTENTSTABLE
  2
AcDbSortentsTable
  3
ObjectDBX Classes
 90
        0
 91
        2
280
     0
281
     0
  0
CLASS
  1
MATERIAL
  2
AcDbMaterial
  3
ObjectDBX Classes
 90
     1153
 91
        3
280
     0
281
     0
  0
CLASS
  1
VISUALSTYLE
  2
AcDbVisualStyle
  3
ObjectDBX Classes
 90
     4095
 91
        4
280
     0
281
     0
  0
CLASS
  1
SCALE
  2
AcDbScale
  3
ObjectDBX Classes
 90
     1153
 91
       17
280
     0
281
     0
  0
CLASS
  1
MLEADERSTYLE
  2
AcDbMLeaderStyle
  3
ACDB_MLEADERSTYLE_CLASS
 90
     4095
 91
        0
280
     0
281
     0
  0
CLASS
  1
ACDBSECTIONVIEWSTYLE
  2
AcDbSectionViewStyle
  3
ObjectDBX Classes
 90
     1025
 91
        0
280
     0
281
     0
  0
CLASS
  1
ACDBDETAILVIEWSTYLE
  2
AcDbDetailViewStyle
  3
ObjectDBX Classes
 90
     1025
 91
        0
280
     0
281
     0
  0
CLASS
  1
CELLSTYLEMAP
  2
AcDbCellStyleMap
  3
ObjectDBX Classes
 90
     1152
 91
        1
280
     0
281
     0
  0
CLASS
  1
SOLID_BACKGROUND
  2
AcDbSolidBackground
  3
SCENEOE
 90
     4095
 91
        0
280
     0
281
     0
  0
CLASS
  1
NPOCOLLECTION
  2
AcDbImpNonPersistentObjectsCollection
  3
ObjectDBX Classes
 90
     1153
 91
        0
280
     0
281
     0
  0
ENDSEC
  0
SECTION
  2
TABLES
  0
TABLE
  2
VPORT
  5
28
330
0
100
AcDbSymbolTable
 70
     1
  0
VPORT
  5
29
330
28
100
AcDbSymbolTableRecord
100
AcDbViewportTableRecord
  2
*Active
 70
     0
 10
0.0
 20
0.0
 11
1.0
 21
1.0
 12
428.9904077788284
 22
217.883108939465
 13
0.0
 23
0.0
 14
0.1
 24
0.1
 15
0.5
 25
0.5
 16
0.0
 26
0.0
 36
1.0
 17
0.0
 27
0.0
 37
0.0
 40
472.6429172258709
 41
2.570850202429149
 42
50.0
 43
0.0
 44
0.0
 50
0.0
 51
0.0
 71
    16
 72
   500
 73
     1
 74
     1
 75
     0
 76
     0
 77
     0
 78
     0
281
     0
 65
     1
110
0.0
120
0.0
130
0.0
111
1.0
121
0.0
131
0.0
112
0.0
122
1.0
132
0.0
 79
     0
146
0.0
348
2A
 60
     3
 61
     5
292
     1
282
     1
141
0.0
142
0.0
 63
   250
421
  3355443
1001
ACAD_NAV_VCDISPLAY
1070
     3
  0
ENDTAB
  0
TABLE
  2
LTYPE
  5
23
330
0
100
AcDbSymbolTable
 70
     3
  0
LTYPE
  5
24
330
23
100
AcDbSymbolTableRecord
100
AcDbLinetypeTableRecord
  2
ByBlock
 70
     0
  3

 72
    65
 73
     0
 40
0.0
  0
LTYPE
  5
25
330
23
100
AcDbSymbolTableRecord
100
AcDbLinetypeTableRecord
  2
ByLayer
 70
     0
  3

 72
    65
 73
     0
 40
0.0
  0
LTYPE
  5
17
330
23
100
AcDbSymbolTableRecord
100
AcDbLinetypeTableRecord
  2
Continuous
 70
     0
  3
Solid line
 72
    65
 73
     0
 40
0.0
  0
LTYPE
  5
B4
330
23
100
AcDbSymbolTableRecord
100
AcDbLinetypeTableRecord
  2
CENTER
 70
     0
  3
____ _ ____ _ ____ _ ____ _ ____ _ ____ _ ____
 72
    65
 73
     4
 40
2.0
 49
1.25
 74
     4
 75
     0
340
0
 46
1.0
 50
0.0
 44
0.0
 45
0.0
 49
-0.25
 74
     4
 75
     0
340
0
 46
1.0
 50
0.0
 44
0.0
 45
0.0
 49
0.25
 74
     4
 75
     0
340
0
 46
1.0
 50
0.0
 44
0.0
 45
0.0
 49
-0.25
 74
     4
 75
     0
340
0
 46
1.0
 50
0.0
 44
0.0
 45
0.0
  0
LTYPE
  5
8F
330
23
100
AcDbSymbolTableRecord
100
AcDbLinetypeTableRecord
  2
HIDDEN
 70
     0
  3
_ _ _ _ _ _ _ _ _ _ _ _ _ _ _ _ _ _ _ _ _ _ _
 72
    65
 73
     2
 40
0.375
 49
0.25
 74
     4
 75
     0
340
0
 46
1.0
 50
0.0
 44
0.0
 45
0.0
 49
-0.125
 74
     4
 75
     0
340
0
 46
1.0
 50
0.0
 44
0.0
 45
0.0
  0
ENDTAB
  0
TABLE
  2
LAYER
  5
1F
330
0
100
AcDbSymbolTable
 70
     6
  0
LAYER
  5
6
102
{ACAD_XDICTIONARY
360
7
102
}
330
1F
100
AcDbSymbolTableRecord
100
AcDbLayerTableRecord
  2
0
 70
     0
 62
     7
  6
Continuous
370
    -3
390
B
347
E
348
0
  0
LAYER
  5
B7
330
1F
100
AcDbSymbolTableRecord
100
AcDbLayerTableRecord
  2
DIM
 70
     0
 62
     7
  6
Continuous
370
    -3
390
B
347
E
348
0
  0
LAYER
  5
B1
102
{ACAD_XDICTIONARY
360
B2
102
}
330
1F
100
AcDbSymbolTableRecord
100
AcDbLayerTableRecord
  2
CEN
 70
     0
 62
     2
  6
CENTER
370
    -3
390
B
347
E
348
0
  0
LAYER
  5
6E
102
{ACAD_XDICTIONARY
360
6F
102
}
330
1F
100
AcDbSymbolTableRecord
100
AcDbLayerTableRecord
  2
LF-LINE
 70
     0
 62
     1
  6
Continuous
370
    -3
390
B
347
E
348
0
  0
LAYER
  5
74
102
{ACAD_XDICTIONARY
360
75
102
}
330
1F
100
AcDbSymbolTableRecord
100
AcDbLayerTableRecord
  2
COIN-LINE
 70
     0
 62
     4
  6
Continuous
370
    -3
390
B
347
E
348
0
  0
LAYER
  5
8C
102
{ACAD_XDICTIONARY
360
8D
102
}
330
1F
100
AcDbSymbolTableRecord
100
AcDbLayerTableRecord
  2
PKG-OUT
 70
     0
 62
     3
  6
HIDDEN
370
    -3
390
B
347
E
348
0
  0
ENDTAB
  0
TABLE
  2
STYLE
  5
20
330
0
100
AcDbSymbolTable
 70
     2
  0
STYLE
  5
21
330
20
100
AcDbSymbolTableRecord
100
AcDbTextStyleTableRecord
  2
Standard
 70
     0
 40
3.0
 41
1.0
 50
0.0
 71
     0
 42
2.5
  3
SIMPLEX
  4

  0
STYLE
  5
55
330
20
100
AcDbSymbolTableRecord
100
AcDbTextStyleTableRecord
  2
SIMPLEX
 70
     0
 40
3.0
 41
1.0
 50
0.0
 71
     0
 42
2.5
  3
SIMPLEX.shx
  4

  0
ENDTAB
  0
TABLE
  2
VIEW
  5
26
330
0
100
AcDbSymbolTable
 70
     0
  0
ENDTAB
  0
TABLE
  2
UCS
  5
27
330
0
100
AcDbSymbolTable
 70
     0
  0
ENDTAB
  0
TABLE
  2
APPID
  5
2D
330
0
100
AcDbSymbolTable
 70
     2
  0
APPID
  5
2E
330
2D
100
AcDbSymbolTableRecord
100
AcDbRegAppTableRecord
  2
ACAD
 70
     0
  0
APPID
  5
2C
330
2D
100
AcDbSymbolTableRecord
100
AcDbRegAppTableRecord
  2
ACAD_NAV_VCDISPLAY
 70
     0
  0
ENDTAB
  0
TABLE
  2
DIMSTYLE
  5
2F
330
0
100
AcDbSymbolTable
 70
     1
100
AcDbDimStyleTable
 71
     0
  0
DIMSTYLE
105
5B
330
2F
100
AcDbSymbolTableRecord
100
AcDbDimStyleTableRecord
  2
Standard
 70
     0
340
21
  0
ENDTAB
  0
TABLE
  2
BLOCK_RECORD
  5
1
330
0
100
AcDbSymbolTable
 70
     1
  0
BLOCK_RECORD
  5
2
102
{ACAD_XDICTIONARY
360
3
102
}
330
1
100
AcDbSymbolTableRecord
100
AcDbBlockTableRecord
  2
*Model_Space
340
19
 70
     0
280
     1
281
     0
  0
BLOCK_RECORD
  5
1B
330
1
100
AcDbSymbolTableRecord
100
AcDbBlockTableRecord
  2
*Paper_Space
340
1E
 70
     0
280
     1
281
     0
  0
BLOCK_RECORD
  5
71
330
1
100
AcDbSymbolTableRecord
100
AcDbBlockTableRecord
  2
INT1
340
0
102
{BLKREFS
331
6D
102
}
 70
     0
280
     1
281
     0
  0
ENDTAB
  0
ENDSEC
  0
SECTION
  2
BLOCKS
  0
BLOCK
  5
5
330
2
100
AcDbEntity
  8
0
100
AcDbBlockBegin
  2
*Model_Space
 70
     0
 10
0.0
 20
0.0
 30
0.0
  3
*Model_Space
  1

  0
ENDBLK
  5
18
330
2
100
AcDbEntity
  8
0
100
AcDbBlockEnd
  0
BLOCK
  5
1C
330
1B
100
AcDbEntity
 67
     1
  8
0
100
AcDbBlockBegin
  2
*Paper_Space
 70
     0
 10
0.0
 20
0.0
 30
0.0
  3
*Paper_Space
  1

  0
ENDBLK
  5
1D
330
1B
100
AcDbEntity
 67
     1
  8
0
100
AcDbBlockEnd
  0
BLOCK
  5
72
330
71
100
AcDbEntity
  8
0
100
AcDbBlockBegin
  2
INT1
 70
     0
 10
0.0
 20
0.0
 30
0.0
  3
INT1
  1

  0
LWPOLYLINE
  5
73
330
71
100
AcDbEntity
  8
COIN-LINE
100
AcDbPolyline
 90
        3
 70
     0
 43
0.0
 10
-0.1139999999999688
 20
-0.136999999999948
 10
-0.1139999999999972
 20
-0.1619999999999448
 10
-0.1098989794855569
 20
-0.1619999999999448
  0
LINE
  5
77
330
71
100
AcDbEntity
  8
COIN-LINE
100
AcDbLine
 10
-0.136398979485655
 20
-0.0840000000001409
 30
0.0
 11
-0.1545000000000556
 21
-0.0840000000001409
 31
0.0
  0
LWPOLYLINE
  5
78
330
71
100
AcDbEntity
  8
COIN-LINE
100
AcDbPolyline
 90
        2
 70
     0
 43
0.0
 10
-0.1020005050888315
 20
0.1650000000000675
 10
-0.1220000000000212
 20
0.1650000000000675
  0
LWPOLYLINE
  5
79
330
71
100
AcDbEntity
  8
COIN-LINE
100
AcDbPolyline
 90
        3
 70
     0
 43
0.0
 10
-0.0509999999999593
 20
0.1608989794856264
 10
-0.0509999999999309
 20
0.1650000000000675
 10
-0.0769999999999271
 20
0.1650000000000675
  0
LINE
  5
7A
330
71
100
AcDbEntity
  8
0
100
AcDbLine
 10
0.1446158809999076
 20
0.1149999999999522
 30
0.0
 11
0.1446158809998508
 21
0.0949999999999136
 31
0.0
  0
LINE
  5
7B
330
71
100
AcDbEntity
  8
0
100
AcDbLine
 10
0.1034999999999115
 20
0.1150000000000659
 30
0.0
 11
0.1034999999998547
 21
0.0950000000000273
 31
0.0
  0
LINE
  5
7C
330
71
100
AcDbEntity
  8
0
100
AcDbLine
 10
0.068499999999889
 20
-0.1580000000000528
 30
0.0
 11
0.0684999999998312
 21
-0.1335825756948467
 31
0.0
  0
LINE
  5
7D
330
71
100
AcDbEntity
  8
0
100
AcDbLine
 10
0.1096158809998708
 20
-0.1579999999999391
 30
0.0
 11
0.1096158809998282
 21
-0.1339999999999577
 31
0.0
  0
LINE
  5
7E
330
71
100
AcDbEntity
  8
0
100
AcDbLine
 10
0.1446158809999076
 20
-0.0449999999998454
 30
0.0
 11
0.1446158809998508
 21
-0.0249999999998067
 31
0.0
  0
LINE
  5
7F
330
71
100
AcDbEntity
  8
0
100
AcDbLine
 10
0.1034999999999115
 20
-0.0449999999999591
 30
0.0
 11
0.1034999999998547
 21
-0.0249999999999204
 31
0.0
  0
LINE
  5
80
330
71
100
AcDbEntity
  8
0
100
AcDbLine
 10
0.0100000000000478
 20
-0.1681158809999488
 30
0.0
 11
-0.0100000000000478
 21
-0.1681158810000056
 31
0.0
  0
LINE
  5
81
330
71
100
AcDbEntity
  8
0
100
AcDbLine
 10
0.0100000000000478
 20
0.1681158809999488
 30
0.0
 11
-0.0100000000000478
 21
0.1681158810000056
 31
0.0
  0
LINE
  5
82
330
71
100
AcDbEntity
  8
0
100
AcDbLine
 10
0.1034999999999115
 20
0.0449999999999591
 30
0.0
 11
0.1034999999998547
 21
0.0249999999999204
 31
0.0
  0
LINE
  5
83
330
71
100
AcDbEntity
  8
0
100
AcDbLine
 10
0.1446158809999076
 20
0.0449999999998454
 30
0.0
 11
0.1446158809998508
 21
0.0249999999998067
 31
0.0
  0
LINE
  5
84
330
71
100
AcDbEntity
  8
0
100
AcDbLine
 10
-0.1269947889999372
 20
-0.0919999999999846
 30
0.0
 11
-0.1269947889998804
 21
-0.1119999999999663
 31
0.0
  0
LINE
  5
85
330
71
100
AcDbEntity
  8
0
100
AcDbLine
 10
-0.0250000000000558
 20
0.1504947890001574
 30
0.0
 11
-0.0429999999999922
 21
0.1504947890001063
 31
0.0
  0
CIRCLE
  5
86
330
71
100
AcDbEntity
  8
0
100
AcDbCircle
 10
-0.1295000000000215
 20
-0.1650000000001341
 30
0.0
 40
0.0075000000000003
  0
CIRCLE
  5
87
330
71
100
AcDbEntity
  8
0
100
AcDbCircle
 10
-0.1429999999999865
 20
-0.0250000000000341
 30
0.0
 40
0.0075000000000003
  0
CIRCLE
  5
88
330
71
100
AcDbEntity
  8
0
100
AcDbCircle
 10
-0.1429999999999865
 20
0.0350000000000819
 30
0.0
 40
0.0075000000000003
  0
CIRCLE
  5
89
330
71
100
AcDbEntity
  8
0
100
AcDbCircle
 10
-0.1429999999999865
 20
0.105000000000075
 30
0.0
 40
0.0075000000000003
  0
CIRCLE
  5
8A
330
71
100
AcDbEntity
  8
0
100
AcDbCircle
 10
-0.1295000000000215
 20
0.1650000000001341
 30
0.0
 40
0.0075000000000003
  0
LWPOLYLINE
  5
8B
330
71
100
AcDbEntity
  8
PKG-OUT
100
AcDbPolyline
 90
        4
 70
     0
 43
0.0
 10
0.0935010205144342
 20
0.0209999999999768
 10
0.0885000000000105
 20
0.0209999999999768
 10
0.0885000000000105
 20
-0.0210000000001589
 10
0.0935010205144342
 20
-0.0210000000001554
  0
LWPOLYLINE
  5
90
330
71
100
AcDbEntity
  8
PKG-OUT
100
AcDbPolyline
 90
        4
 70
     0
 43
0.0
 10
0.0935010205144342
 20
-0.0490000000001301
 10
0.0885000000000105
 20
-0.0490000000001301
 10
0.0885000000000105
 20
-0.0910000000002658
 10
0.0935010205144342
 20
-0.0910000000002623
  0
LWPOLYLINE
  5
91
330
71
100
AcDbEntity
  8
PKG-OUT
100
AcDbPolyline
 90
        4
 70
     0
 43
0.0
 10
0.0944999999999112
 20
-0.1169999999999627
 10
0.0944999999998757
 20
-0.1119999999999628
 10
0.0694999999998629
 20
-0.1119999999999468
 10
0.0694999999999055
 20
-0.1171010205143892
  0
LINE
  5
92
330
71
100
AcDbEntity
  8
0
100
AcDbLine
 10
0.068499999999889
 20
0.1580000000000528
 30
0.0
 11
0.0684999999998312
 21
0.1335825756948467
 31
0.0
  0
LINE
  5
93
330
71
100
AcDbEntity
  8
0
100
AcDbLine
 10
0.1096158809998708
 20
0.1579999999999391
 30
0.0
 11
0.1096158809998282
 21
0.1339999999999577
 31
0.0
  0
LINE
  5
94
330
71
100
AcDbEntity
  8
COIN-LINE
100
AcDbLine
 10
-0.1490000000000009
 20
0.0032148330839634
 30
0.0
 11
-0.1490000000000009
 21
-0.0205000000000517
 31
0.0
  0
LINE
  5
95
330
71
100
AcDbEntity
  8
COIN-LINE
100
AcDbLine
 10
-0.1490000000000009
 20
0.0637148330840578
 30
0.0
 11
-0.1490000000000009
 21
0.0395000000000607
 31
0.0
  0
LINE
  5
96
330
71
100
AcDbEntity
  8
COIN-LINE
100
AcDbLine
 10
-0.1490000000000009
 20
0.1005000000000944
 30
0.0
 11
-0.1490000000000009
 21
0.0762851669159872
 31
0.0
  0
LINE
  5
97
330
71
100
AcDbEntity
  8
COIN-LINE
100
AcDbLine
 10
-0.1490000000000009
 20
0.0305000000001021
 30
0.0
 11
-0.1490000000000009
 21
0.0155574600960495
 31
0.0
  0
LINE
  5
98
330
71
100
AcDbEntity
  8
COIN-LINE
100
AcDbLine
 10
-0.1490000000000009
 20
-0.0295000000000183
 30
0.0
 11
-0.1490000000000009
 21
-0.0450000000000479
 31
0.0
  0
LINE
  5
99
330
71
100
AcDbEntity
  8
COIN-LINE
100
AcDbLine
 10
-0.1490000000000009
 20
0.1337148330841078
 30
0.0
 11
-0.1490000000000009
 21
0.1095000000000548
 31
0.0
  0
LINE
  5
9A
330
71
100
AcDbEntity
  8
0
100
AcDbLine
 10
0.1446158809999574
 20
-0.1150000000002631
 30
0.0
 11
0.1446158809999005
 21
-0.0950000000002245
 31
0.0
  0
LINE
  5
9B
330
71
100
AcDbEntity
  8
0
100
AcDbLine
 10
0.1034999999999613
 20
-0.1150000000003768
 30
0.0
 11
0.1034999999999044
 21
-0.0950000000003382
 31
0.0
  0
LWPOLYLINE
  5
9C
330
71
100
AcDbEntity
  8
PKG-OUT
100
AcDbPolyline
 90
        4
 70
     0
 43
0.0
 10
-0.0360000000000014
 20
-0.119500000000329
 10
-0.0360000000000014
 20
-0.1120000000000214
 10
-0.0944999999999539
 20
-0.1119999999999575
 10
-0.0944999999999539
 20
-0.1169890897116685
  0
LWPOLYLINE
  5
9D
330
71
100
AcDbEntity
  8
PKG-OUT
100
AcDbPolyline
 90
        3
 70
     0
 43
0.0
 10
-0.0885000000000247
 20
0.1220000000000478
 10
-0.0884999999999892
 20
-0.0499999999999563
 10
-0.096000000002185
 20
-0.0499999999999545
  0
LWPOLYLINE
  5
9E
330
71
100
AcDbEntity
  8
COIN-LINE
100
AcDbPolyline
 90
        3
 70
     0
 43
0.0
 10
-0.1370000000000218
 20
0.1650000000000675
 10
-0.1490000000000009
 20
0.1650000000000675
 10
-0.1490000000000009
 20
0.1462851669160372
  0
LINE
  5
9F
330
71
100
AcDbEntity
  8
0
100
AcDbLine
 10
-0.1034999999998973
 20
-0.1120000000000232
 30
0.0
 11
-0.1034999999999897
 21
-0.0920000000000982
 31
0.0
  0
LWPOLYLINE
  5
A0
330
71
100
AcDbEntity
  8
PKG-OUT
100
AcDbPolyline
 90
        4
 70
     1
 43
0.0
 10
0.1749999999999972
 20
-0.1999999999999318
 10
0.1749999999999972
 20
0.2000000000000455
 10
-0.1749999999999972
 20
0.2000000000000455
 10
-0.1749999999999972
 20
-0.1999999999999318
  0
LWPOLYLINE
  5
A1
330
71
100
AcDbEntity
  8
PKG-OUT
100
AcDbPolyline
 90
        4
 70
     0
 43
0.0
 10
0.0935010205144342
 20
0.09099999999997
 10
0.0885000000000105
 20
0.09099999999997
 10
0.0885000000000105
 20
0.0489999999998343
 10
0.0935010205144342
 20
0.0489999999998378
  0
LWPOLYLINE
  5
A2
330
71
100
AcDbEntity
  8
PKG-OUT
100
AcDbPolyline
 90
        4
 70
     0
 43
0.0
 10
0.0944999999999112
 20
0.1169999999999618
 10
0.0944999999998757
 20
0.1119999999999628
 10
0.0694999999998629
 20
0.1119999999999459
 10
0.0694999999999055
 20
0.1171010205143883
  0
LINE
  5
A3
330
71
100
AcDbEntity
  8
0
100
AcDbLine
 10
-0.1234999999999218
 20
-0.132000000000005
 30
0.0
 11
-0.1234999999999218
 21
-0.132000000000005
 31
0.0
  0
LINE
  5
A4
330
71
100
AcDbEntity
  8
0
100
AcDbLine
 10
0.0099999999999767
 20
-0.1270000000000664
 30
0.0
 11
-0.0130000000000195
 21
-0.1270000000000211
 31
0.0
  0
LINE
  5
A5
330
71
100
AcDbEntity
  8
0
100
AcDbLine
 10
-0.0100000000000122
 20
0.1270000000001215
 30
0.0
 11
0.0099999999999838
 21
0.1270000000000717
 31
0.0
  0
LWPOLYLINE
  5
A6
330
71
100
AcDbEntity
  8
0
100
AcDbPolyline
 90
       18
 70
     1
 43
0.0
 10
0.1606000000000165
 20
-0.1649999999999636
 42
-0.4142135623730951
 10
0.155600000000021
 20
-0.1599999999999682
 10
0.1556000000000068
 20
-0.1389999999999532
 42
0.4142135623730951
 10
0.1506000000000114
 20
-0.1339999999999577
 10
0.0704999999999885
 20
-0.1339999999999577
 42
-0.4142135623738496
 10
0.065499999999993
 20
-0.1289999999999623
 10
0.0654999999999433
 20
-0.1219999999999839
 42
-0.3563939586921863
 10
0.0694999999999055
 20
-0.1171010205143901
 10
0.0694999999999411
 20
-0.1220000000000754
 10
0.0944999999999468
 20
-0.1219999999999306
 10
0.0944999999999112
 20
-0.1169999999999627
 10
0.0955000000005697
 20
-0.1169999999999582
 42
0.1622776601272174
 10
0.0984999999991701
 20
-0.1159999999994214
 42
-0.1622776601284912
 10
0.101499999998552
 20
-0.1149999999998901
 10
0.1800000000000494
 20
-0.1149999999999522
 42
-0.414213562373069
 10
0.1850000000000449
 20
-0.1199999999999477
 10
0.1850000000000449
 20
-0.1599999999999682
 42
-0.4142135623730561
 10
0.1800000000000494
 20
-0.1649999999999636
  0
LWPOLYLINE
  5
A7
330
71
100
AcDbEntity
  8
0
100
AcDbPolyline
 90
       18
 70
     1
 43
0.0
 10
0.1606000000000165
 20
0.1649999999999636
 42
0.4142135623730951
 10
0.155600000000021
 20
0.1599999999999682
 10
0.1556000000000068
 20
0.1389999999999532
 42
-0.4142135623730951
 10
0.1506000000000114
 20
0.1339999999999577
 10
0.0704999999999885
 20
0.1339999999999577
 42
0.4142135623738496
 10
0.065499999999993
 20
0.1289999999999623
 10
0.0654999999999433
 20
0.1219999999999821
 42
0.3563939586921863
 10
0.0694999999999055
 20
0.1171010205143901
 10
0.0694999999999411
 20
0.1220000000000745
 10
0.0944999999999468
 20
0.1219999999999297
 10
0.0944999999999112
 20
0.1169999999999618
 10
0.0955000000005697
 20
0.1169999999999565
 42
-0.1622776601272174
 10
0.0984999999991701
 20
0.1159999999994206
 42
0.1622776601284912
 10
0.101499999998552
 20
0.1149999999998892
 10
0.1800000000000494
 20
0.1149999999999522
 42
0.414213562373069
 10
0.1850000000000449
 20
0.1199999999999477
 10
0.1850000000000449
 20
0.1599999999999682
 42
0.4142135623730561
 10
0.1800000000000494
 20
0.1649999999999627
  0
LWPOLYLINE
  5
A8
330
71
100
AcDbEntity
  8
0
100
AcDbPolyline
 90
       21
 70
     0
 43
0.0
 10
0.0075999999382503
 20
-0.1957291684587403
 42
0.2617284141759793
 10
0.0099999999999909
 20
-0.1914583371203662
 10
0.0099999999999838
 20
-0.1270000000000717
 42
-0.4142135623720773
 10
0.0149999999999651
 20
-0.1220000000000709
 10
0.0304999999999822
 20
-0.1220000000000141
 42
-0.4142135623738395
 10
0.0355000000000061
 20
-0.1270000000000087
 10
0.0355000000000416
 20
-0.1530000000000573
 42
0.4142135623730951
 10
0.0405000000000371
 20
-0.1580000000000528
 10
0.1185999999999865
 20
-0.1579999999999959
 42
-0.4142135623730951
 10
0.1235999999999819
 20
-0.1629999999999914
 10
0.1235999999999819
 20
-0.17999999999995
 42
0.4142135623730951
 10
0.1285999999999774
 20
-0.1849999999999454
 10
0.1800000000000352
 20
-0.1849999999999454
 42
-0.4142135623730951
 10
0.1850000000000307
 20
-0.1899999999999409
 10
0.1850000000000307
 20
-0.2119999999999891
 42
-0.414213562373017
 10
0.1800000000000352
 20
-0.2169999999999836
 10
0.0109999999999957
 20
-0.2169999999999845
 42
-0.4142135623730951
 10
0.0060000000000002
 20
-0.2119999999999891
 10
0.0059999999999931
 20
-0.2039191835852101
 42
0.1010205143582713
 10
0.0056000000005696
 20
-0.2019595917923569
 42
-0.3726004620289645
 10
0.0076000000617213
 20
-0.1957291686616047
  0
LWPOLYLINE
  5
A9
330
71
100
AcDbEntity
  8
0
100
AcDbPolyline
 90
       30
 70
     0
 43
0.0
 10
0.0076000000620557
 20
0.1957291686614003
 42
-0.7581321936034824
 10
0.0102000000002882
 20
0.2050000000000436
 10
0.0428000000000023
 20
0.2050000000000436
 42
0.4142135623730951
 10
0.0478000000000023
 20
0.2100000000000436
 10
0.0478000000000023
 20
0.240000000000041
 42
-0.4142135623730955
 10
0.0528000000000023
 20
0.2450000000000409
 10
0.1412000000000003
 20
0.2450000000000392
 42
-0.4142135623730918
 10
0.1462000000000003
 20
0.2400000000000392
 10
0.1462000000000003
 20
0.2100000000000427
 42
0.4142135623730951
 10
0.1512000000000003
 20
0.2050000000000428
 10
0.1599999999999991
 20
0.2050000000000433
 42
0.4142135623730966
 10
0.1649999999999992
 20
0.2100000000000436
 10
0.1650000000000024
 20
0.2549999999999989
 42
-0.4142135623730935
 10
0.1700000000000027
 20
0.2599999999999861
 10
0.1800000000000307
 20
0.259999999999923
 42
-0.4142135623730951
 10
0.185000000000018
 20
0.2549999999998977
 10
0.1850000000000307
 20
0.1899999999999409
 42
-0.4142135623730951
 10
0.1800000000000352
 20
0.1849999999999454
 10
0.1285999999999774
 20
0.1849999999999454
 42
0.4142135623730951
 10
0.1235999999999819
 20
0.17999999999995
 10
0.1235999999999819
 20
0.1629999999999914
 42
-0.4142135623730951
 10
0.1185999999999865
 20
0.1579999999999959
 10
0.0405000000000371
 20
0.1580000000000528
 42
0.4142135623730951
 10
0.0355000000000416
 20
0.1530000000000573
 10
0.0355000000000132
 20
0.1270000000000078
 42
-0.4142135623738496
 10
0.0304999999999893
 20
0.1220000000000141
 10
0.0149999999999651
 20
0.1220000000000709
 42
-0.4142135623719244
 10
0.0099999999999838
 20
0.1270000000000717
 10
0.0099999999999909
 20
0.1914583371203662
 42
0.2617284141759793
 10
0.0075999999382503
 20
0.1957291684587403
  0
LWPOLYLINE
  5
AA
330
71
100
AcDbEntity
  8
0
100
AcDbPolyline
 90
       10
 70
     1
 43
0.0
 10
0.0984000000000085
 20
-0.0450000000001296
 42
0.3563939586926287
 10
0.0935010205144342
 20
-0.0490000000001264
 10
0.0984999999999943
 20
-0.0490000000001301
 10
0.0984999999999516
 20
-0.0910000000002587
 10
0.0935010205144342
 20
-0.0910000000002623
 42
0.3563939586926287
 10
0.0984000000000085
 20
-0.0950000000002591
 10
0.1800000000000352
 20
-0.0950000000001978
 42
0.4142135623731212
 10
0.1850000000000307
 20
-0.0900000000002024
 10
0.1850000000000307
 20
-0.0500000000001251
 42
0.4142135623730625
 10
0.1800000000000352
 20
-0.0450000000001296
  0
LWPOLYLINE
  5
AB
330
71
100
AcDbEntity
  8
0
100
AcDbPolyline
 90
       10
 70
     1
 43
0.0
 10
0.0984000000000085
 20
0.0249999999999773
 42
0.3563939586926287
 10
0.0935010205144342
 20
0.0209999999999805
 10
0.0984999999999943
 20
0.0209999999999768
 10
0.0984999999999516
 20
-0.0210000000001518
 10
0.0935010205144342
 20
-0.0210000000001554
 42
0.3563939586926287
 10
0.0984000000000085
 20
-0.0250000000001523
 10
0.1800000000000352
 20
-0.025000000000091
 42
0.4142135623731212
 10
0.1850000000000307
 20
-0.0200000000000955
 10
0.1850000000000307
 20
0.0199999999999818
 42
0.4142135623730625
 10
0.1800000000000352
 20
0.0249999999999773
  0
LWPOLYLINE
  5
AC
330
71
100
AcDbEntity
  8
0
100
AcDbPolyline
 90
       10
 70
     1
 43
0.0
 10
0.0984000000000085
 20
0.0949999999999705
 42
0.3563939586926287
 10
0.0935010205144342
 20
0.0909999999999736
 10
0.0984999999999943
 20
0.09099999999997
 10
0.0984999999999516
 20
0.0489999999998414
 10
0.0935010205144342
 20
0.0489999999998378
 42
0.3563939586926287
 10
0.0984000000000085
 20
0.0449999999998409
 10
0.1800000000000352
 20
0.0449999999999022
 42
0.4142135623731212
 10
0.1850000000000307
 20
0.0499999999998977
 10
0.1850000000000307
 20
0.089999999999975
 42
0.4142135623730625
 10
0.1800000000000352
 20
0.0949999999999705
  0
LINE
  5
AD
330
71
100
AcDbEntity
  8
0
100
AcDbLine
 10
-0.024999999999989
 20
0.1270000000001232
 30
0.0
 11
-0.0429999999999709
 21
0.1270000000001872
 31
0.0
  0
LWPOLYLINE
  5
AE
330
71
100
AcDbEntity
  8
0
100
AcDbPolyline
 90
      141
 70
     1
 43
0.0
 10
-0.0479999999999592
 20
0.1220000000001837
 10
-0.0905000000000485
 20
0.1220000000000407
 42
0.4142135623720384
 10
-0.0985000000000227
 20
0.1140000000000398
 10
-0.0984999999999943
 20
-0.0499999999999608
 10
-0.096000000002185
 20
-0.0499999999999554
 42
0.2679491924118827
 10
-0.0984999999999943
 20
-0.0543301270176127
 10
-0.0984999999999872
 20
-0.0870000000000975
 42
-0.414213562373069
 10
-0.1034999999999897
 20
-0.0920000000000982
 10
-0.1315000000000737
 20
-0.0920000000000982
 42
-0.4142135623728089
 10
-0.1365000000000762
 20
-0.0870000000001135
 10
-0.1365000000000833
 20
-0.0850000000001501
 42
-0.4142135623742658
 10
-0.1315000000000737
 20
-0.0800000000001511
 10
-0.1184999999999974
 20
-0.0800000000002115
 42
0.4142135623735893
 10
-0.1134999999999806
 20
-0.075000000000216
 10
-0.1134999999999948
 20
-0.0570000000001398
 10
-0.1495000000001028
 20
-0.0570000000000732
 42
0.4142135623740836
 10
-0.1545000000001053
 20
-0.0620000000000793
 10
-0.154500000000013
 20
-0.1120000000000232
 10
-0.1028301270176186
 20
-0.1120000000000232
 42
-0.2679491924096354
 10
-0.0984999999989
 20
-0.1144999999996754
 42
0.2503212789185041
 10
-0.0944999999999539
 20
-0.1169890897116712
 10
-0.0944999999999539
 20
-0.1219999999999572
 10
-0.0360000000000014
 20
-0.1220000000000052
 10
-0.0360000000000014
 20
-0.119500000000329
 42
0.2679491924111037
 10
-0.0316698729812686
 20
-0.1220000000000097
 10
-0.0180000000000149
 20
-0.1220000000000212
 42
-0.4142135623726789
 10
-0.0130000000000195
 20
-0.1270000000000211
 10
-0.0130000000000123
 20
-0.1299174243049883
 42
-0.2982166266981356
 10
-0.0100000000000122
 20
-0.1344999999999388
 10
-0.0099999999999625
 20
-0.1914583373991299
 42
0.26172841028319
 10
-0.0076000000001244
 20
-0.1957291686991063
 42
-0.3726004578608429
 10
-0.0056000000007188
 20
-0.2019595917911214
 42
0.1010205143416071
 10
-0.0060000000000002
 20
-0.2039191835836736
 10
-0.0059999999999647
 20
-0.2119999999999322
 42
-0.4142135623734852
 10
-0.0109999999999673
 20
-0.2169999999999277
 10
-0.1800000000000068
 20
-0.2169999999999899
 42
-0.4142135623733812
 10
-0.1850000000000023
 20
-0.2119999999999891
 10
-0.1849999999999809
 20
-0.1900000000000528
 42
-0.4142135623730431
 10
-0.1799999999999784
 20
-0.1850000000000653
 10
-0.1149999999999878
 20
-0.1850000000000644
 42
0.4142135623729131
 10
-0.1099999999999994
 20
-0.1800000000000637
 10
-0.1100000000000065
 20
-0.1630000000000109
 42
-0.4142135623731731
 10
-0.105000000000004
 20
-0.1580000000000217
 10
-0.0399999999999494
 20
-0.1579999999999639
 42
0.4142135623733812
 10
-0.034999999999954
 20
-0.1529999999999632
 10
-0.0349999999999824
 20
-0.1369999999999436
 10
-0.1184999999998979
 20
-0.1369999999999489
 42
-0.4142135623724447
 10
-0.1234999999999218
 20
-0.132000000000005
 42
0.4142135623732771
 10
-0.1284999999999314
 20
-0.1270000000000078
 10
-0.1490000000000151
 20
-0.1270000000000664
 10
-0.1489999999999654
 20
-0.1599999999999611
 42
-0.4142135623717163
 10
-0.1539999999999537
 20
-0.1649999999999672
 10
-0.1799999999999784
 20
-0.1650000000000826
 42
-0.4142135623749942
 10
-0.1850000000000023
 20
-0.1600000000000818
 10
-0.1850000000000378
 20
-0.0500000000000114
 42
-0.4142135623728609
 10
-0.180000000000021
 20
-0.045000000000015
 10
-0.123500000000007
 20
-0.0450000000000728
 10
-0.1235000000000355
 20
0.0034999999999172
 10
-0.147335563461823
 20
0.0034999999999208
 42
0.327209884521385
 10
-0.152103476787488
 20
0.000005656839619
 10
-0.1588965232125972
 20
-0.0215056568397856
 42
-0.3272098845209468
 10
-0.1636644365382693
 20
-0.0250000000000963
 10
-0.1800000000000352
 20
-0.0250000000000963
 42
-0.4142135623724967
 10
-0.1850000000000165
 20
-0.0200000000000955
 10
-0.1850000000000236
 20
0.0200000000000387
 42
-0.4142135623733032
 10
-0.180000000000021
 20
0.0250000000000306
 10
-0.1597558434353914
 20
0.0250000000000377
 42
-0.2573348155904533
 10
-0.155528398920211
 20
0.0226699649569469
 10
-0.1524716010798954
 20
0.0178300350430121
 42
0.2573348155898767
 10
-0.148244156564715
 20
0.0154999999999195
 10
-0.1234999999999928
 20
0.0154999999998609
 10
-0.1234999999999928
 20
0.0640000000000214
 10
-0.1473355634617732
 20
0.0640000000000249
 42
0.327209884522635
 10
-0.1521034767874596
 20
0.0605056568397213
 10
-0.1558965232124976
 20
0.0484943431603284
 42
-0.3272098845219721
 10
-0.1606644365381697
 20
0.0450000000000124
 10
-0.1799999999999926
 20
0.0450000000000106
 42
-0.4142135623733294
 10
-0.184999999999988
 20
0.0500000000000114
 10
-0.1849999999999952
 20
0.0900000000000887
 42
-0.414213562371144
 10
-0.1800000000000068
 20
0.0950000000000841
 10
-0.1606644365382337
 20
0.0950000000002014
 42
-0.3272098845247546
 10
-0.155896523212526
 20
0.0915056568398445
 10
-0.1521034767874738
 20
0.0794943431603512
 42
0.3272098845235575
 10
-0.1473355634617803
 20
0.0760000000000192
 10
-0.1235000000000213
 20
0.075999999999965
 10
-0.1235000000000141
 20
0.1240000000000805
 10
-0.1320355339059418
 20
0.1325355339060046
 42
0.1989123673796581
 10
-0.135571067811874
 20
0.1340000000000714
 10
-0.1473355634617732
 20
0.1340000000000749
 42
0.3272098845226354
 10
-0.1521034767874596
 20
0.1305056568397713
 10
-0.1561172185700101
 20
0.1177954745282692
 42
-0.3272098845232707
 10
-0.1599315492305493
 20
0.1150000000000091
 10
-0.1800000000000281
 20
0.1150000000000038
 42
-0.4142135623716643
 10
-0.1849999999999952
 20
0.1200000000000045
 10
-0.1849999999999952
 20
0.1600000000001387
 42
-0.4142135623733032
 10
-0.1799999999999926
 20
0.1650000000001306
 10
-0.1599315492305422
 20
0.1650000000001341
 42
-0.327209884522349
 10
-0.1561172185700101
 20
0.1622045254718696
 10
-0.1521034767874738
 20
0.1494943431604012
 42
0.3272098845235583
 10
-0.1473355634617803
 20
0.1460000000000692
 10
-0.1269749371854942
 20
0.1460000000000718
 42
-0.3851703882101613
 10
-0.1220000000012149
 20
0.1415000000000308
 42
0.3851703882099898
 10
-0.1170250628156921
 20
0.1370000000001141
 10
-0.1019999999999754
 20
0.1370000000001141
 10
-0.1019999999999257
 20
0.1649289321880367
 42
0.1989123673795694
 10
-0.103464466093989
 20
0.1684644660939725
 10
-0.1199999999999051
 20
0.1849999999999374
 10
-0.1799999999999784
 20
0.1850000000000591
 42
-0.4142135623719505
 10
-0.1849999999999667
 20
0.1900000000000554
 10
-0.1849999999999458
 20
0.2549999999998977
 42
-0.4142135623730951
 10
-0.1800000000000307
 20
0.2599999999999103
 10
-0.1700000000000027
 20
0.2599999999999736
 42
-0.4142135623730935
 10
-0.1649999999999899
 20
0.2549999999999989
 10
-0.1649999999999995
 20
0.2100000000000436
 42
0.4142135623730967
 10
-0.1599999999999991
 20
0.2050000000000436
 10
-0.1512000000000003
 20
0.2050000000000429
 42
0.4142135623730951
 10
-0.1462000000000002
 20
0.2100000000000427
 10
-0.1462000000000003
 20
0.2400000000000392
 42
-0.4142135623730951
 10
-0.1412000000000003
 20
0.2450000000000392
 10
-0.0528000000000023
 20
0.2450000000000409
 42
-0.4142135623730955
 10
-0.0478000000000023
 20
0.240000000000041
 10
-0.0478000000000023
 20
0.2100000000000436
 42
0.4142135623730951
 10
-0.0428000000000023
 20
0.2050000000000436
 10
-0.0102000000004308
 20
0.2049999999976756
 42
-0.7581321878974855
 10
-0.0076000000004582
 20
0.1957291686988821
 42
0.2617284102852526
 10
-0.009999999999998
 20
0.1914583373983509
 10
-0.0100000000000122
 20
0.1270000000001215
 42
-0.4142135623755144
 10
-0.0150000000000432
 20
0.1220000000001349
 10
-0.020000000000022
 20
0.1220000000001224
 42
-0.4142135623716122
 10
-0.024999999999989
 20
0.1270000000001232
 10
-0.0250000000000033
 20
0.1740000000000927
 42
0.4142135623733294
 10
-0.0300000000000058
 20
0.1790000000000855
 10
-0.0769999999998987
 20
0.1790000000000873
 10
-0.0769999999999769
 20
0.1370000000001141
 10
-0.0599999999999597
 20
0.1370000000001088
 42
0.4142135623721847
 10
-0.0549999999999713
 20
0.1420000000001096
 10
-0.05499999999995
 20
0.1560000000000654
 42
-0.4142135623712221
 10
-0.0499999999999474
 20
0.1610000000000644
 10
-0.0480000000000587
 20
0.1610000000000618
 42
-0.4142135623773353
 10
-0.0429999999999922
 20
0.1560000000000627
 10
-0.0429999999999709
 20
0.1270000000001872
 42
-0.4142135623722887
  0
ENDBLK
  5
AF
330
71
100
AcDbEntity
  8
0
100
AcDbBlockEnd
  0
ENDSEC
  0
SECTION
  2
ENTITIES
  0
INSERT
  5
6D
330
2
100
AcDbEntity
  8
LF-LINE
100
AcDbBlockReference
  2
INT1
 10
399.4462463945637
 20
242.054184020168
 30
0.0
 41
350.0
 42
350.0
 43
350.0
  0
LINE
  5
B0
330
2
100
AcDbEntity
  8
CEN
100
AcDbLine
 10
381.9420677933802
 20
242.054184020168
 30
0.0
 11
416.9504249957472
 21
242.054184020168
 31
0.0
  0
LINE
  5
B5
330
2
100
AcDbEntity
  8
CEN
100
AcDbLine
 10
399.4462463945637
 20
259.5583626213515
 30
0.0
 11
399.4462463945637
 21
224.5500054189845
 31
0.0
  0
LINE
  5
B6
330
2
100
AcDbEntity
  8
DIM
100
AcDbLine
 10
399.4462463945637
 20
260.5583626213515
 30
0.0
 11
399.4462463945637
 21
340.0541840201437
 31
0.0
  0
LINE
  5
B8
330
2
100
AcDbEntity
  8
COIN-LINE
100
AcDbLine
 10
399.4462463945637
 20
340.0541840201437
 30
0.0
 11
399.4462463945637
 21
345.0541840201437
 31
0.0
  0
LINE
  5
B9
330
2
100
AcDbEntity
  8
DIM
100
AcDbLine
 10
399.4462463945637
 20
345.0541840201437
 30
0.0
 11
399.4462463945637
 21
368.0541840201437
 31
0.0
  0
TEXT
  5
BA
330
2
100
AcDbEntity
  8
DIM
100
AcDbText
 10
398.9462463945637
 20
355.6732316391913
 30
0.0
 40
2.5
  1
0.0000
 50
90.0
  7
SIMPLEX
 72
     2
 11
398.9462463945637
 21
368.0541840201437
 31
0.0
100
AcDbText
  0
LINE
  5
BB
330
2
100
AcDbEntity
  8
DIM
100
AcDbLine
 10
380.9420677933801
 20
242.054184020168
 30
0.0
 11
327.6962463945616
 21
242.054184020168
 31
0.0
  0
LINE
  5
BC
330
2
100
AcDbEntity
  8
COIN-LINE
100
AcDbLine
 10
327.6962463945616
 20
242.054184020168
 30
0.0
 11
322.6962463945558
 21
239.7791840201403
 31
0.0
  0
LINE
  5
BD
330
2
100
AcDbEntity
  8
DIM
100
AcDbLine
 10
322.6962463945558
 20
239.7791840201403
 30
0.0
 11
299.6962463945558
 21
239.7791840201403
 31
0.0
  0
TEXT
  5
BE
330
2
100
AcDbEntity
  8
DIM
100
AcDbText
 10
299.6962463945558
 20
240.2791840201403
 30
0.0
 40
2.5
  1
0.0000
  7
SIMPLEX
100
AcDbText
  0
LINE
  5
BF
330
2
100
AcDbEntity
  8
DIM
100
AcDbLine
 10
402.9462463945641
 20
310.0540183997547
 30
0.0
 11
402.9462463945641
 21
340.0541840201437
 31
0.0
  0
LINE
  5
C0
330
2
100
AcDbEntity
  8
COIN-LINE
100
AcDbLine
 10
402.9462463945641
 20
340.0541840201437
 30
0.0
 11
402.9462463945641
 21
345.0541840201437
 31
0.0
  0
LINE
  5
C1
330
2
100
AcDbEntity
  8
DIM
100
AcDbLine
 10
402.9462463945641
 20
345.0541840201437
 30
0.0
 11
402.9462463945641
 21
368.0541840201437
 31
0.0
  0
TEXT
  5
C2
330
2
100
AcDbEntity
  8
DIM
100
AcDbText
 10
402.4462463945641
 20
356.1494221153818
 30
0.0
 40
2.5
  1
0.0100
 50
90.0
  7
SIMPLEX
 72
     2
 11
402.4462463945641
 21
368.0541840201437
 31
0.0
100
AcDbText
  0
LINE
  5
C3
330
2
100
AcDbEntity
  8
DIM
100
AcDbLine
 10
463.4462463945744
 20
333.0541840201322
 30
0.0
 11
471.1962463945681
 21
333.0541840201322
 31
0.0
  0
LINE
  5
C4
330
2
100
AcDbEntity
  8
COIN-LINE
100
AcDbLine
 10
471.1962463945681
 20
333.0541840201322
 30
0.0
 11
476.1962463945681
 21
333.0541840201322
 31
0.0
  0
LINE
  5
C5
330
2
100
AcDbEntity
  8
DIM
100
AcDbLine
 10
476.1962463945681
 20
333.0541840201322
 30
0.0
 11
499.196246394568
 21
333.0541840201322
 31
0.0
  0
TEXT
  5
C6
330
2
100
AcDbEntity
  8
DIM
100
AcDbText
 10
486.8152940136157
 20
333.5541840201322
 30
0.0
 40
2.5
  1
0.2600
  7
SIMPLEX
 72
     2
 11
499.196246394568
 21
333.5541840201322
 31
0.0
100
AcDbText
  0
LINE
  5
C7
330
2
100
AcDbEntity
  8
DIM
100
AcDbLine
 10
456.4462463945632
 20
313.8041840201832
 30
0.0
 11
471.1962463945681
 21
313.8041840201832
 31
0.0
  0
LINE
  5
C8
330
2
100
AcDbEntity
  8
COIN-LINE
100
AcDbLine
 10
471.1962463945681
 20
313.8041840201832
 30
0.0
 11
476.1962463945681
 21
313.8041840201832
 31
0.0
  0
LINE
  5
C9
330
2
100
AcDbEntity
  8
DIM
100
AcDbLine
 10
476.1962463945681
 20
313.8041840201832
 30
0.0
 11
499.196246394568
 21
313.8041840201832
 31
0.0
  0
TEXT
  5
CA
330
2
100
AcDbEntity
  8
DIM
100
AcDbText
 10
486.8152940136156
 20
314.3041840201832
 30
0.0
 40
2.5
  1
0.2050
  7
SIMPLEX
 72
     2
 11
499.196246394568
 21
314.3041840201832
 31
0.0
100
AcDbText
  0
LINE
  5
CB
330
2
100
AcDbEntity
  8
DIM
100
AcDbLine
 10
441.9562463943925
 20
297.3542022655617
 30
0.0
 11
471.1962463945681
 21
297.3542022655617
 31
0.0
  0
LINE
  5
CC
330
2
100
AcDbEntity
  8
COIN-LINE
100
AcDbLine
 10
471.1962463945681
 20
297.3542022655617
 30
0.0
 11
476.1962463945681
 21
297.3542022655617
 31
0.0
  0
LINE
  5
CD
330
2
100
AcDbEntity
  8
DIM
100
AcDbLine
 10
476.1962463945681
 20
297.3542022655617
 30
0.0
 11
499.196246394568
 21
297.3542022655617
 31
0.0
  0
TEXT
  5
CE
330
2
100
AcDbEntity
  8
DIM
100
AcDbText
 10
487.2914844898061
 20
297.8542022655617
 30
0.0
 40
2.5
  1
0.1580
  7
SIMPLEX
 72
     2
 11
499.196246394568
 21
297.8542022655617
 31
0.0
100
AcDbText
  0
LINE
  5
CF
330
2
100
AcDbEntity
  8
DIM
100
AcDbLine
 10
453.1562463945546
 20
288.9541789125135
 30
0.0
 11
471.1962463945681
 21
288.9541789125135
 31
0.0
  0
LINE
  5
D0
330
2
100
AcDbEntity
  8
COIN-LINE
100
AcDbLine
 10
471.1962463945681
 20
288.9541789125135
 30
0.0
 11
476.1962463945681
 21
288.9541789125135
 31
0.0
  0
LINE
  5
D1
330
2
100
AcDbEntity
  8
DIM
100
AcDbLine
 10
476.1962463945681
 20
288.9541789125135
 30
0.0
 11
499.196246394568
 21
288.9541789125135
 31
0.0
  0
TEXT
  5
D2
330
2
100
AcDbEntity
  8
DIM
100
AcDbText
 10
487.2914844898061
 20
289.4541789125135
 30
0.0
 40
2.5
  1
0.1340
  7
SIMPLEX
 72
     2
 11
499.196246394568
 21
289.4541789125135
 31
0.0
100
AcDbText
  0
LINE
  5
D3
330
2
100
AcDbEntity
  8
COIN-LINE
100
AcDbLine
 10
433.9212463945629
 20
159.1041840201665
 30
0.0
 11
433.9212463945629
 21
154.1041840201665
 31
0.0
  0
LINE
  5
D4
330
2
100
AcDbEntity
  8
DIM
100
AcDbLine
 10
433.9212463945629
 20
154.1041840201665
 30
0.0
 11
433.9212463945629
 21
131.1041840201665
 31
0.0
  0
TEXT
  5
D5
330
2
100
AcDbEntity
  8
DIM
100
AcDbText
 10
433.4212463945629
 20
131.1041840201665
 30
0.0
 40
2.5
  1
0.0985
 50
90.0
  7
SIMPLEX
100
AcDbText
  0
LINE
  5
D6
330
2
100
AcDbEntity
  8
DIM
100
AcDbLine
 10
364.9712463945645
 20
200.9791840202816
 30
0.0
 11
364.9712463945645
 21
159.1041840201665
 31
0.0
  0
LINE
  5
D7
330
2
100
AcDbEntity
  8
COIN-LINE
100
AcDbLine
 10
364.9712463945645
 20
159.1041840201665
 30
0.0
 11
370.0462463945647
 21
154.1041840201861
 31
0.0
  0
LINE
  5
D8
330
2
100
AcDbEntity
  8
DIM
100
AcDbLine
 10
370.0462463945647
 20
154.1041840201861
 30
0.0
 11
370.0462463945647
 21
131.1041840201861
 31
0.0
  0
TEXT
  5
D9
330
2
100
AcDbEntity
  8
DIM
100
AcDbText
 10
369.5462463945647
 20
131.1041840201861
 30
0.0
 40
2.5
  1
0.0985
 50
90.0
  7
SIMPLEX
100
AcDbText
  0
LINE
  5
DA
330
2
100
AcDbEntity
  8
DIM
100
AcDbLine
 10
361.6962463952368
 20
186.7542207486272
 30
0.0
 11
327.6962463945616
 21
186.7542207486272
 31
0.0
  0
LINE
  5
DB
330
2
100
AcDbEntity
  8
COIN-LINE
100
AcDbLine
 10
327.6962463945616
 20
186.7542207486272
 30
0.0
 11
322.6962463945616
 21
186.7542207486272
 31
0.0
  0
LINE
  5
DC
330
2
100
AcDbEntity
  8
DIM
100
AcDbLine
 10
322.6962463945616
 20
186.7542207486272
 30
0.0
 11
299.6962463945616
 21
186.7542207486272
 31
0.0
  0
TEXT
  5
DD
330
2
100
AcDbEntity
  8
DIM
100
AcDbText
 10
299.6962463945616
 20
187.2542207486272
 30
0.0
 40
2.5
  1
0.1580
  7
SIMPLEX
100
AcDbText
  0
LINE
  5
DE
330
2
100
AcDbEntity
  8
COIN-LINE
100
AcDbLine
 10
327.6962463945616
 20
194.104217449176
 30
0.0
 11
322.6962463945616
 21
194.104217449176
 31
0.0
  0
LINE
  5
DF
330
2
100
AcDbEntity
  8
DIM
100
AcDbLine
 10
322.6962463945616
 20
194.104217449176
 30
0.0
 11
299.6962463945616
 21
194.104217449176
 31
0.0
  0
TEXT
  5
E0
330
2
100
AcDbEntity
  8
DIM
100
AcDbText
 10
299.6962463945616
 20
194.6042174491761
 30
0.0
 40
2.5
  1
0.1370
  7
SIMPLEX
100
AcDbText
  0
LINE
  5
E1
330
2
100
AcDbEntity
  8
DIM
100
AcDbLine
 10
346.8787991829444
 20
264.4541856699076
 30
0.0
 11
327.6962463945616
 21
264.4541856699076
 31
0.0
  0
LINE
  5
E2
330
2
100
AcDbEntity
  8
COIN-LINE
100
AcDbLine
 10
327.6962463945616
 20
264.4541856699076
 30
0.0
 11
322.6962463945616
 21
264.4541856699076
 31
0.0
  0
LINE
  5
E3
330
2
100
AcDbEntity
  8
DIM
100
AcDbLine
 10
322.6962463945616
 20
264.4541856699076
 30
0.0
 11
299.6962463945616
 21
264.4541856699076
 31
0.0
  0
TEXT
  5
E4
330
2
100
AcDbEntity
  8
DIM
100
AcDbText
 10
299.6962463945616
 20
264.9541856699076
 30
0.0
 40
2.5
  1
0.0640
  7
SIMPLEX
100
AcDbText
  0
LINE
  5
E5
330
2
100
AcDbEntity
  8
DIM
100
AcDbLine
 10
346.8787991829419
 20
268.6541856698816
 30
0.0
 11
327.6962463945616
 21
268.6541856698816
 31
0.0
  0
LINE
  5
E6
330
2
100
AcDbEntity
  8
COIN-LINE
100
AcDbLine
 10
327.6962463945616
 20
268.6541856698816
 30
0.0
 11
322.6962463945616
 21
268.6541856698816
 31
0.0
  0
LINE
  5
E7
330
2
100
AcDbEntity
  8
DIM
100
AcDbLine
 10
322.6962463945616
 20
268.6541856698816
 30
0.0
 11
299.6962463945616
 21
268.6541856698816
 31
0.0
  0
TEXT
  5
E8
330
2
100
AcDbEntity
  8
DIM
100
AcDbText
 10
299.6962463945616
 20
269.1541856698816
 30
0.0
 40
2.5
  1
0.0760
  7
SIMPLEX
100
AcDbText
  0
LINE
  5
E9
330
2
100
AcDbEntity
  8
DIM
100
AcDbLine
 10
346.8787991829444
 20
288.9541856698853
 30
0.0
 11
327.6962463945616
 21
288.9541856698853
 31
0.0
  0
LINE
  5
EA
330
2
100
AcDbEntity
  8
COIN-LINE
100
AcDbLine
 10
327.6962463945616
 20
288.9541856698853
 30
0.0
 11
322.6962463945558
 21
286.504184020208
 31
0.0
  0
LINE
  5
EB
330
2
100
AcDbEntity
  8
DIM
100
AcDbLine
 10
322.6962463945558
 20
286.504184020208
 30
0.0
 11
299.6962463945558
 21
286.504184020208
 31
0.0
  0
TEXT
  5
EC
330
2
100
AcDbEntity
  8
DIM
100
AcDbText
 10
299.6962463945558
 20
287.0041840202079
 30
0.0
 40
2.5
  1
0.1340
  7
SIMPLEX
100
AcDbText
  0
LINE
  5
ED
330
2
100
AcDbEntity
  8
COIN-LINE
100
AcDbLine
 10
327.6962463945616
 20
293.1541823704399
 30
0.0
 11
322.6962463945558
 21
293.504184020208
 31
0.0
  0
LINE
  5
EE
330
2
100
AcDbEntity
  8
DIM
100
AcDbLine
 10
322.6962463945558
 20
293.504184020208
 30
0.0
 11
299.6962463945558
 21
293.504184020208
 31
0.0
  0
TEXT
  5
EF
330
2
100
AcDbEntity
  8
DIM
100
AcDbText
 10
299.6962463945558
 20
294.004184020208
 30
0.0
 40
2.5
  1
0.1460
  7
SIMPLEX
100
AcDbText
  0
LINE
  5
F0
330
2
100
AcDbEntity
  8
DIM
100
AcDbLine
 10
411.1212463945573
 20
199.354184099405
 30
0.0
 11
422.7712463945428
 21
199.354184099405
 31
0.0
  0
LINE
  5
F1
330
2
100
AcDbEntity
  8
COIN-LINE
100
AcDbLine
 10
471.1962463945681
 20
199.354184099405
 30
0.0
 11
476.1962463945681
 21
199.354184099405
 31
0.0
  0
LINE
  5
F2
330
2
100
AcDbEntity
  8
DIM
100
AcDbLine
 10
476.1962463945681
 20
199.354184099405
 30
0.0
 11
499.196246394568
 21
199.354184099405
 31
0.0
  0
TEXT
  5
F3
330
2
100
AcDbEntity
  8
DIM
100
AcDbText
 10
487.2914844898061
 20
199.854184099405
 30
0.0
 40
2.5
  1
0.1220
  7
SIMPLEX
 72
     2
 11
499.196246394568
 21
199.854184099405
 31
0.0
100
AcDbText
  0
MTEXT
  5
F4
330
2
100
AcDbEntity
  8
DIM
100
AcDbMText
 10
321.1381691693677
 20
329.680820219646
 30
0.0
 40
2.5
 41
0.0
 46
0.0
 71
     6
 72
     1
  1
%%C0.0150
  7
SIMPLEX
 73
     1
 44
1.0
  0
SOLID
  5
F5
330
2
100
AcDbEntity
  8
DIM
100
AcDbTrace
 10
351.7404002182133
 20
300.9097139766587
 30
0.0
 11
350.5025405835807
 21
303.1213456449204
 31
0.0
 12
349.8521659687192
 22
302.600329997566
 32
0.0
 13
349.8521659687192
 23
302.600329997566
 33
0.0
  0
LINE
  5
F7
330
2
100
AcDbEntity
  8
DIM
100
AcDbLine
 10
350.17735327615
 20
302.8608378212432
 30
0.0
 11
328.5284272437808
 21
329.88480917788
 31
0.0
  0
LINE
  5
F8
330
2
100
AcDbEntity
  8
DIM
100
AcDbLine
 10
328.5284272437808
 20
329.88480917788
 30
0.0
 11
322.3247516197023
 21
329.88480917788
 31
0.0
  0
MTEXT
  5
F9
330
2
100
AcDbEntity
  8
DIM
100
AcDbMText
 10
317.577643927439
 20
326.8031516953517
 30
0.0
 40
1.800000000000011
 41
0.0
 46
0.0
 71
     6
 72
     1
  1
TYP.
  7
SIMPLEX
 73
     1
 44
1.0
  0
LINE
  5
FA
330
2
100
AcDbEntity
  8
DIM
100
AcDbLine
 10
460.6962463945688
 20
171.0541840201514
 30
0.0
 11
460.6962463945688
 21
159.1041840201665
 31
0.0
  0
LINE
  5
FB
330
2
100
AcDbEntity
  8
COIN-LINE
100
AcDbLine
 10
460.6962463945688
 20
159.1041840201665
 30
0.0
 11
460.696282422177
 21
154.1041840201665
 31
0.0
  0
LINE
  5
FC
330
2
100
AcDbEntity
  8
DIM
100
AcDbLine
 10
460.696282422177
 20
154.1041840201665
 30
0.0
 11
460.696282422177
 21
131.1041840201665
 31
0.0
  0
TEXT
  5
FD
330
2
100
AcDbEntity
  8
DIM
100
AcDbText
 10
460.196282422177
 20
131.1041840201665
 30
0.0
 40
2.5
  1
0.1750
 50
90.0
  7
SIMPLEX
100
AcDbText
  0
TEXT
  5
FE
330
2
100
AcDbEntity
  8
DIM
100
AcDbText
 10
459.9639412189135
 20
143.9682597052015
 30
0.0
 40
1.8
  1
PKG.(REF.)
 50
90.0
  7
SIMPLEX
100
AcDbText
  0
LINE
  5
FF
330
2
100
AcDbEntity
  8
DIM
100
AcDbLine
 10
361.0265428305647
 20
245.054184020168
 30
0.0
 11
361.0265428305647
 21
242.054184020168
 31
0.0
  0
SOLID
  5
100
330
2
100
AcDbEntity
  8
DIM
100
AcDbTrace
 10
361.0265428305647
 20
248.054184020168
 30
0.0
 11
361.5265428305648
 21
245.054184020168
 31
0.0
 12
360.5265428305647
 22
245.054184020168
 32
0.0
 13
360.5265428305647
 23
245.054184020168
 33
0.0
  0
MTEXT
  5
101
330
2
100
AcDbEntity
  8
DIM
100
AcDbMText
 10
361.2335633974162
 20
249.9288620162658
 30
0.0
 40
2.5
 41
0.0
 46
0.0
 71
     5
 72
     1
  1
B
  7
SIMPLEX
 73
     1
 44
1.0
  0
LINE
  5
102
330
2
100
AcDbEntity
  8
CEN
100
AcDbLine
 10
399.4462463945637
 20
103.46215135511
 30
0.0
 11
399.4462463945637
 21
90.17653915945237
 31
0.0
  0
LINE
  5
103
330
2
100
AcDbEntity
  8
DIM
100
AcDbLine
 10
364.9712463945645
 20
99.28075858320617
 30
0.0
 11
364.9712463945645
 21
108.7740215492024
 31
0.0
  0
LINE
  5
104
330
2
100
AcDbEntity
  8
DIM
100
AcDbLine
 10
433.9212463945639
 20
99.28075858320617
 30
0.0
 11
433.9212463945639
 21
108.7740215492024
 31
0.0
  0
LINE
  5
105
330
2
100
AcDbEntity
  8
DIM
100
AcDbLine
 10
367.9712463945644
 20
107.7740215492024
 30
0.0
 11
430.9212463945639
 21
107.7740215492024
 31
0.0
  0
SOLID
  5
106
330
2
100
AcDbEntity
  8
DIM
100
AcDbTrace
 10
364.9712463945645
 20
107.7740215492024
 30
0.0
 11
367.9712463945644
 21
107.2740215492023
 31
0.0
 12
367.9712463945644
 22
108.2740215492025
 32
0.0
 13
367.9712463945644
 23
108.2740215492025
 33
0.0
  0
SOLID
  5
107
330
2
100
AcDbEntity
  8
DIM
100
AcDbTrace
 10
433.9212463945639
 20
107.7740215492024
 30
0.0
 11
430.9212463945639
 21
107.2740215492023
 31
0.0
 12
430.9212463945639
 22
108.2740215492025
 32
0.0
 13
430.9212463945639
 23
108.2740215492025
 33
0.0
  0
MTEXT
  5
108
330
2
100
AcDbEntity
  8
DIM
100
AcDbMText
 10
390.8884643533416
 20
109.8740215492024
 30
0.0
 40
2.5
 41
0.0
 46
0.0
 71
     5
 72
     1
  1
0.1970
  7
SIMPLEX
 73
     1
 44
1.0
  0
LINE
  5
109
330
2
100
AcDbEntity
  8
DIM
100
AcDbLine
 10
368.471246394565
 20
93.08075858320616
 30
0.0
 11
368.471246394565
 21
83.57636724237606
 31
0.0
  0
LINE
  5
10A
330
2
100
AcDbEntity
  8
DIM
100
AcDbLine
 10
430.421246394562
 20
93.08075858319588
 30
0.0
 11
430.421246394562
 21
83.57636724237606
 31
0.0
  0
LINE
  5
10B
330
2
100
AcDbEntity
  8
DIM
100
AcDbLine
 10
371.4712463945649
 20
84.57636724237605
 30
0.0
 11
427.421246394562
 21
84.57636724237605
 31
0.0
  0
SOLID
  5
10C
330
2
100
AcDbEntity
  8
DIM
100
AcDbTrace
 10
368.471246394565
 20
84.57636724237605
 30
0.0
 11
371.4712463945649
 21
84.07636724237596
 31
0.0
 12
371.4712463945649
 22
85.07636724237615
 32
0.0
 13
371.4712463945649
 23
85.07636724237615
 33
0.0
  0
SOLID
  5
10D
330
2
100
AcDbEntity
  8
DIM
100
AcDbTrace
 10
430.421246394562
 20
84.57636724237605
 30
0.0
 11
427.421246394562
 21
84.07636724237596
 31
0.0
 12
427.421246394562
 22
85.07636724237615
 32
0.0
 13
427.421246394562
 23
85.07636724237615
 33
0.0
  0
MTEXT
  5
10E
330
2
100
AcDbEntity
  8
DIM
100
AcDbMText
 10
399.4462463945635
 20
86.67636724237604
 30
0.0
 40
2.5
 41
0.0
 46
0.0
 71
     5
 72
     1
  1
0.1770
  7
SIMPLEX
 73
     1
 44
1.0
  0
LINE
  5
10F
330
2
100
AcDbEntity
  8
DIM
100
AcDbLine
 10
367.4712463945649
 20
94.08075858320612
 30
0.0
 11
356.7812656206884
 21
94.08075858320612
 31
0.0
  0
LINE
  5
110
330
2
100
AcDbEntity
  8
DIM
100
AcDbLine
 10
363.9712463945634
 20
95.48075858320636
 30
0.0
 11
356.7812656206875
 21
95.48075858320636
 31
0.0
  0
LINE
  5
111
330
2
100
AcDbEntity
  8
DIM
100
AcDbLine
 10
357.7812656206884
 20
91.08075858320615
 30
0.0
 11
357.7812656206884
 21
88.08075858320616
 31
0.0
  0
SOLID
  5
112
330
2
100
AcDbEntity
  8
DIM
100
AcDbTrace
 10
357.7812656206884
 20
94.08075858320612
 30
0.0
 11
358.2812656206885
 21
91.08075858320615
 31
0.0
 12
357.2812656206884
 22
91.08075858320615
 32
0.0
 13
357.2812656206884
 23
91.08075858320615
 33
0.0
  0
LINE
  5
113
330
2
100
AcDbEntity
  8
DIM
100
AcDbLine
 10
357.7812656206875
 20
98.13075858320637
 30
0.0
 11
357.7812656206875
 21
110.8970429754966
 31
0.0
  0
SOLID
  5
114
330
2
100
AcDbEntity
  8
DIM
100
AcDbTrace
 10
357.7812656206875
 20
95.48075858320636
 30
0.0
 11
358.2812656206876
 21
98.48075858320637
 31
0.0
 12
357.2812656206874
 22
98.48075858320637
 32
0.0
 13
357.2812656206874
 23
98.48075858320637
 33
0.0
  0
MTEXT
  5
115
330
2
100
AcDbEntity
  8
DIM
100
AcDbMText
 10
355.6812656206874
 20
104.7845342314089
 30
0.0
 40
2.5
 41
0.0
 46
0.0
 71
     5
 72
     1
  1
0.0030
  7
SIMPLEX
 11
0.0000000000000001
 21
1.0
 31
0.0
 73
     1
 44
1.0
  0
LINE
  5
116
330
2
100
AcDbEntity
  8
DIM
100
AcDbLine
 10
357.7812656206884
 20
96.70575858320617
 30
0.0
 11
357.7812656206884
 21
94.08075858320612
 31
0.0
  0
MTEXT
  5
117
330
2
100
AcDbEntity
  8
DIM
100
AcDbMText
 10
354.7655623462895
 20
116.5225488545938
 30
0.0
 40
1.799999999999996
 41
0.0
 46
0.0
 71
     5
 72
     1
  1
+0.003
  7
SIMPLEX
 11
0.0000000000000001
 21
1.0
 31
0.0
 73
     1
 44
1.0
  0
LINE
  5
118
330
2
100
AcDbEntity
  8
DIM
100
AcDbLine
 10
430.421246394562
 20
93.08075858319588
 30
0.0
 11
430.421246394562
 21
75.53548957403276
 31
0.0
  0
LINE
  5
119
330
2
100
AcDbEntity
  8
DIM
100
AcDbLine
 10
436.9212463945633
 20
76.53548957403277
 30
0.0
 11
439.9212463945633
 21
76.53548957403277
 31
0.0
  0
SOLID
  5
11A
330
2
100
AcDbEntity
  8
DIM
100
AcDbTrace
 10
433.9212463945632
 20
76.53548957403277
 30
0.0
 11
436.9212463945633
 21
77.03548957403286
 31
0.0
 12
436.9212463945633
 22
76.03548957403265
 32
0.0
 13
436.9212463945633
 23
76.03548957403265
 33
0.0
  0
LINE
  5
11B
330
2
100
AcDbEntity
  8
DIM
100
AcDbLine
 10
427.421246394562
 20
76.53548957403277
 30
0.0
 11
404.9439278061347
 21
76.53548957403277
 31
0.0
  0
SOLID
  5
11C
330
2
100
AcDbEntity
  8
DIM
100
AcDbTrace
 10
430.421246394562
 20
76.53548957403277
 30
0.0
 11
427.421246394562
 21
77.03548957403286
 31
0.0
 12
427.421246394562
 22
76.03548957403265
 32
0.0
 13
427.421246394562
 23
76.03548957403265
 33
0.0
  0
MTEXT
  5
11D
330
2
100
AcDbEntity
  8
DIM
100
AcDbMText
 10
411.1474495487186
 20
78.63548957403276
 30
0.0
 40
2.5
 41
0.0
 46
0.0
 71
     5
 72
     1
  1
0.0100
  7
SIMPLEX
 73
     1
 44
1.0
  0
LINE
  5
11E
330
2
100
AcDbEntity
  8
DIM
100
AcDbLine
 10
430.421246394562
 20
76.53548957403277
 30
0.0
 11
433.9212463945632
 21
76.53548957403277
 31
0.0
  0
LINE
  5
11F
330
2
100
AcDbEntity
  8
DIM
100
AcDbLine
 10
431.421246394562
 20
94.08075858319588
 30
0.0
 11
451.0187370403327
 21
94.08075858319588
 31
0.0
  0
LINE
  5
120
330
2
100
AcDbEntity
  8
DIM
100
AcDbLine
 10
434.9212463945639
 20
98.28075858320616
 30
0.0
 11
451.0187370403327
 21
98.28075858320616
 31
0.0
  0
LINE
  5
121
330
2
100
AcDbEntity
  8
DIM
100
AcDbLine
 10
450.0187370403327
 20
91.08075858319587
 30
0.0
 11
450.0187370403327
 21
88.08075858319588
 31
0.0
  0
SOLID
  5
122
330
2
100
AcDbEntity
  8
DIM
100
AcDbTrace
 10
450.0187370403327
 20
94.08075858319588
 30
0.0
 11
450.5187370403328
 21
91.08075858319587
 31
0.0
 12
449.5187370403328
 22
91.08075858319587
 32
0.0
 13
449.5187370403328
 23
91.08075858319587
 33
0.0
  0
LINE
  5
123
330
2
100
AcDbEntity
  8
DIM
100
AcDbLine
 10
450.0187370403327
 20
101.2807585832061
 30
0.0
 11
450.0187370403327
 21
113.6523631725647
 31
0.0
  0
SOLID
  5
124
330
2
100
AcDbEntity
  8
DIM
100
AcDbTrace
 10
450.0187370403327
 20
98.28075858320616
 30
0.0
 11
450.5187370403328
 21
101.2807585832061
 31
0.0
 12
449.5187370403328
 22
101.2807585832061
 32
0.0
 13
449.5187370403328
 23
101.2807585832061
 33
0.0
  0
MTEXT
  5
125
330
2
100
AcDbEntity
  8
DIM
100
AcDbMText
 10
447.9187370403328
 20
107.5682106192274
 30
0.0
 40
2.5
 41
0.0
 46
0.0
 71
     5
 72
     1
  1
0.0120
  7
SIMPLEX
 11
0.0
 21
1.0
 31
0.0
 73
     1
 44
1.0
  0
LINE
  5
126
330
2
100
AcDbEntity
  8
DIM
100
AcDbLine
 10
450.0187370403327
 20
94.08075858319588
 30
0.0
 11
450.0187370403327
 21
98.28075858320616
 31
0.0
  0
MTEXT
  5
127
102
{ACAD_XDICTIONARY
360
128
102
}
330
2
100
AcDbEntity
  8
DIM
100
AcDbMText
 10
446.9737865001356
 20
120.074908945366
 30
0.0
 40
1.800000000000011
 41
0.0
 46
0.0
 71
     5
 72
     1
  1
%%P0.0003
  7
SIMPLEX
 11
0.0
 21
1.0
 31
0.0
 73
     1
 44
1.0
  0
TEXT
  5
129
330
2
100
AcDbEntity
  8
LF-LINE
100
AcDbText
 10
384.7209831954478
 20
67.05066497887187
 30
0.0
 40
3.0
  1
%%USECTION B-B
  7
SIMPLEX
100
AcDbText
  0
LINE
  5
12A
330
2
100
AcDbEntity
  8
DIM
100
AcDbLine
 10
428.4349216702366
 20
286.9182620229686
 30
0.0
 11
428.4349216702366
 21
197.192760000933
 31
0.0
  0
LINE
  5
12B
330
2
100
AcDbEntity
  8
DIM
100
AcDbLine
 10
428.4349216702366
 20
197.192760000933
 30
0.0
 11
423.4965869670297
 21
197.192760000933
 31
0.0
  0
SOLID
  5
12C
330
2
100
AcDbEntity
  8
DIM
100
AcDbTrace
 10
420.8220653414334
 20
197.192760000933
 30
0.0
 11
423.8220653414333
 21
197.692760000933
 31
0.0
 12
423.8220653414333
 22
196.6927600009329
 32
0.0
 13
423.8220653414333
 23
196.6927600009329
 33
0.0
  0
MTEXT
  5
12D
330
2
100
AcDbEntity
  8
DIM
100
AcDbMText
 10
419.1309586390247
 20
196.9059713731709
 30
0.0
 40
2.5
 41
0.0
 46
0.0
 71
     5
 72
     1
  1
C
  7
SIMPLEX
 73
     1
 44
1.0
  0
MTEXT
  5
12E
330
2
100
AcDbEntity
  8
DIM
100
AcDbMText
 10
419.4286624614687
 20
286.7929391612115
 30
0.0
 40
2.5
 41
0.0
 46
0.0
 71
     5
 72
     1
  1
C
  7
SIMPLEX
 73
     1
 44
1.0
  0
SOLID
  5
12F
330
2
100
AcDbEntity
  8
DIM
100
AcDbTrace
 10
421.1197691638773
 20
286.9182620229686
 30
0.0
 11
424.1197691638773
 21
287.4182620229687
 31
0.0
 12
424.1197691638773
 22
286.4182620229684
 32
0.0
 13
424.1197691638773
 23
286.4182620229684
 33
0.0
  0
LINE
  5
130
330
2
100
AcDbEntity
  8
DIM
100
AcDbLine
 10
423.4965869670297
 20
286.9182620229686
 30
0.0
 11
428.4349216702366
 21
286.9182620229686
 31
0.0
  0
LINE
  5
131
330
2
100
AcDbEntity
  8
CEN
100
AcDbLine
 10
520.1469813333468
 20
242.054184020168
 30
0.0
 11
534.6658669995543
 21
242.054184020168
 31
0.0
  0
LINE
  5
132
330
2
100
AcDbEntity
  8
DIM
100
AcDbLine
 10
525.3194321704619
 20
199.354185669928
 30
0.0
 11
516.0049033198545
 21
199.354185669928
 31
0.0
  0
LINE
  5
133
330
2
100
AcDbEntity
  8
DIM
100
AcDbLine
 10
525.3194321704619
 20
284.754182370408
 30
0.0
 11
516.0049033198545
 21
284.754182370408
 31
0.0
  0
LINE
  5
134
330
2
100
AcDbEntity
  8
DIM
100
AcDbLine
 10
517.0049033198544
 20
202.354185669928
 30
0.0
 11
517.0049033198544
 21
281.754182370408
 31
0.0
  0
SOLID
  5
135
330
2
100
AcDbEntity
  8
DIM
100
AcDbTrace
 10
517.0049033198544
 20
199.354185669928
 30
0.0
 11
517.5049033198546
 21
202.354185669928
 31
0.0
 12
516.5049033198545
 22
202.354185669928
 32
0.0
 13
516.5049033198545
 23
202.354185669928
 33
0.0
  0
SOLID
  5
136
330
2
100
AcDbEntity
  8
DIM
100
AcDbTrace
 10
517.0049033198544
 20
284.754182370408
 30
0.0
 11
517.5049033198546
 21
281.754182370408
 31
0.0
 12
516.5049033198545
 22
281.754182370408
 32
0.0
 13
516.5049033198545
 23
281.754182370408
 33
0.0
  0
MTEXT
  5
137
330
2
100
AcDbEntity
  8
DIM
100
AcDbMText
 10
514.9049033198545
 20
236.3585127897895
 30
0.0
 40
2.5
 41
0.0
 46
0.0
 71
     5
 72
     1
  1
0.2440
  7
SIMPLEX
 11
0.0
 21
1.0
 31
0.0
 73
     1
 44
1.0
  0
LINE
  5
138
330
2
100
AcDbEntity
  8
DIM
100
AcDbLine
 10
531.5194321704617
 20
281.254183940931
 30
0.0
 11
543.113215576665
 21
281.254183940931
 31
0.0
  0
LINE
  5
139
330
2
100
AcDbEntity
  8
DIM
100
AcDbLine
 10
531.5194321704617
 20
202.854184099405
 30
0.0
 11
543.113215576665
 21
202.854184099405
 31
0.0
  0
LINE
  5
13A
330
2
100
AcDbEntity
  8
DIM
100
AcDbLine
 10
542.1132155766652
 20
281.254183940931
 30
0.0
 11
542.1132155766652
 21
205.8541840994049
 31
0.0
  0
SOLID
  5
13B
330
2
100
AcDbEntity
  8
DIM
100
AcDbTrace
 10
542.1132155766652
 20
281.254183940931
 30
0.0
 11
541.6132155766652
 21
278.2541839409311
 31
0.0
 12
542.6132155766652
 22
278.2541839409311
 32
0.0
 13
542.6132155766652
 23
278.2541839409311
 33
0.0
  0
SOLID
  5
13C
330
2
100
AcDbEntity
  8
DIM
100
AcDbTrace
 10
542.1132155766652
 20
202.854184099405
 30
0.0
 11
541.6132155766652
 21
205.8541840994049
 31
0.0
 12
542.6132155766652
 22
205.8541840994049
 32
0.0
 13
542.6132155766652
 23
205.8541840994049
 33
0.0
  0
MTEXT
  5
13D
330
2
100
AcDbEntity
  8
DIM
100
AcDbMText
 10
540.0132155766653
 20
243.1896440918603
 30
0.0
 40
2.5
 41
0.0
 46
0.0
 71
     5
 72
     1
  1
0.2240
  7
SIMPLEX
 11
0.0
 21
1.0
 31
0.0
 73
     1
 44
1.0
  0
LINE
  5
13E
330
2
100
AcDbEntity
  8
DIM
100
AcDbLine
 10
533.5194321704618
 20
292.1090230553792
 30
0.0
 11
536.5194321704619
 21
292.1090230553792
 31
0.0
  0
SOLID
  5
13F
330
2
100
AcDbEntity
  8
DIM
100
AcDbTrace
 10
530.5194321704617
 20
292.1090230553792
 30
0.0
 11
533.5194321704618
 21
292.6090230553793
 31
0.0
 12
533.5194321704618
 22
291.6090230553792
 32
0.0
 13
533.5194321704618
 23
291.6090230553792
 33
0.0
  0
LINE
  5
140
330
2
100
AcDbEntity
  8
DIM
100
AcDbLine
 10
523.3194321704619
 20
292.1090230553792
 30
0.0
 11
509.8629126081402
 21
292.1090230553792
 31
0.0
  0
SOLID
  5
141
330
2
100
AcDbEntity
  8
DIM
100
AcDbTrace
 10
526.3194321704619
 20
292.1090230553792
 30
0.0
 11
523.3194321704619
 21
292.6090230553793
 31
0.0
 12
523.3194321704619
 22
291.6090230553792
 32
0.0
 13
523.3194321704619
 23
291.6090230553792
 33
0.0
  0
MTEXT
  5
142
330
2
100
AcDbEntity
  8
DIM
100
AcDbMText
 10
516.3693340875073
 20
294.2090230553791
 30
0.0
 40
2.5
 41
0.0
 46
0.0
 71
     5
 72
     1
  1
0.0120
  7
SIMPLEX
 73
     1
 44
1.0
  0
MTEXT
  5
143
102
{ACAD_XDICTIONARY
360
144
102
}
330
2
100
AcDbEntity
  8
DIM
100
AcDbMText
 10
528.6127634935747
 20
295.3330079756495
 30
0.0
 40
1.799999999999954
 41
0.0
 46
0.0
 71
     5
 72
     1
  1
%%P0.0003
  7
SIMPLEX
 73
     1
 44
1.0
  0
TEXT
  5
145
330
2
100
AcDbEntity
  8
LF-LINE
100
AcDbText
 10
505.2368419809826
 20
177.3098549315952
 30
0.0
 40
3.0
  1
%%USECTION C-C
  7
SIMPLEX
100
AcDbText
  0
LINE
  5
146
330
2
100
AcDbEntity
  8
COIN-LINE
100
AcDbLine
 10
345.3712463945667
 20
159.1041840201665
 30
0.0
 11
343.7962463945758
 21
154.1041840201861
 31
0.0
  0
LINE
  5
147
330
2
100
AcDbEntity
  8
DIM
100
AcDbLine
 10
343.7962463945758
 20
154.1041840201861
 30
0.0
 11
343.7962463945758
 21
131.1041840201861
 31
0.0
  0
TEXT
  5
148
330
2
100
AcDbEntity
  8
DIM
100
AcDbText
 10
343.2962463945758
 20
131.1041840201861
 30
0.0
 40
2.5
  1
0.1545
 50
90.0
  7
SIMPLEX
100
AcDbText
  0
LINE
  5
149
330
2
100
AcDbEntity
  8
DIM
100
AcDbLine
 10
433.9212463945629
 20
209.2041840200775
 30
0.0
 11
433.9212463945629
 21
159.1041840201665
 31
0.0
  0
LINE
  5
14A
330
2
100
AcDbEntity
  8
DIM
100
AcDbLine
 10
433.5212463945449
 20
199.354184099405
 30
0.0
 11
471.1962463945681
 21
199.354184099405
 31
0.0
  0
LINE
  5
14B
330
2
100
AcDbEntity
  8
DIM
100
AcDbLine
 10
529.1194321704616
 20
198.3541856699281
 30
0.0
 11
529.1194321704616
 21
190.1936409769103
 31
0.0
  0
LINE
  5
14C
330
2
100
AcDbEntity
  8
DIM
100
AcDbLine
 10
533.5194321704618
 20
191.1936409769101
 30
0.0
 11
536.5194321704619
 21
191.1936409769101
 31
0.0
  0
SOLID
  5
14D
330
2
100
AcDbEntity
  8
DIM
100
AcDbTrace
 10
530.5194321704617
 20
191.1936409769101
 30
0.0
 11
533.5194321704618
 21
190.6936409769101
 31
0.0
 12
533.5194321704618
 22
191.6936409769104
 32
0.0
 13
533.5194321704618
 23
191.6936409769104
 33
0.0
  0
LINE
  5
14E
330
2
100
AcDbEntity
  8
DIM
100
AcDbLine
 10
526.9944321704616
 20
191.1936409769103
 30
0.0
 11
503.5962874412024
 21
191.1936409769103
 31
0.0
  0
SOLID
  5
14F
330
2
100
AcDbEntity
  8
DIM
100
AcDbTrace
 10
529.1194321704616
 20
191.1936409769103
 30
0.0
 11
526.1194321704616
 21
190.6936409769101
 31
0.0
 12
526.1194321704616
 22
191.6936409769104
 32
0.0
 13
526.1194321704616
 23
191.6936409769104
 33
0.0
  0
LINE
  5
150
330
2
100
AcDbEntity
  8
DIM
100
AcDbLine
 10
530.5194321704617
 20
191.1936409769101
 30
0.0
 11
527.8944321704617
 21
191.1936409769101
 31
0.0
  0
LINE
  5
151
330
2
100
AcDbEntity
  8
DIM
100
AcDbLine
 10
530.5194321704617
 20
201.8541840994049
 30
0.0
 11
530.5194321704617
 21
190.1936409769101
 31
0.0
  0
LINE
  5
152
330
2
100
AcDbEntity
  8
DIM
100
AcDbLine
 10
537.5859771597259
 20
205.8541840994049
 30
0.0
 11
537.5859771597259
 21
222.1641845602469
 31
0.0
  0
SOLID
  5
153
330
2
100
AcDbEntity
  8
DIM
100
AcDbTrace
 10
537.5859771597259
 20
202.854184099405
 30
0.0
 11
537.0859771597257
 21
205.8541840994049
 31
0.0
 12
538.0859771597259
 22
205.8541840994049
 32
0.0
 13
538.0859771597259
 23
205.8541840994049
 33
0.0
  0
MTEXT
  5
154
330
2
100
AcDbEntity
  8
DIM
100
AcDbMText
 10
535.4859771597258
 20
215.9872960590679
 30
0.0
 40
2.5
 41
0.0
 46
0.0
 71
     5
 72
     1
  1
0.0100
  7
SIMPLEX
 11
0.0
 21
1.0
 31
0.0
 73
     1
 44
1.0
  0
LINE
  5
155
330
2
100
AcDbEntity
  8
DIM
100
AcDbLine
 10
537.5859771597259
 20
196.354185669928
 30
0.0
 11
537.5859771597259
 21
193.354185669928
 31
0.0
  0
SOLID
  5
156
330
2
100
AcDbEntity
  8
DIM
100
AcDbTrace
 10
537.5859771597259
 20
199.354185669928
 30
0.0
 11
537.0859771597257
 21
196.354185669928
 31
0.0
 12
538.0859771597259
 22
196.354185669928
 32
0.0
 13
538.0859771597259
 23
196.354185669928
 33
0.0
  0
LINE
  5
157
330
2
100
AcDbEntity
  8
DIM
100
AcDbLine
 10
537.5859771597259
 20
199.354185669928
 30
0.0
 11
537.5859771597259
 21
202.854184099405
 31
0.0
  0
LINE
  5
158
330
2
100
AcDbEntity
  8
DIM
100
AcDbLine
 10
530.4694321704617
 20
199.354185669928
 30
0.0
 11
538.5859771597258
 21
199.354185669928
 31
0.0
  0
MTEXT
  5
159
330
2
100
AcDbEntity
  8
DIM
100
AcDbMText
 10
509.8577915877648
 20
193.2936409769103
 30
0.0
 40
2.5
 41
0.0
 46
0.0
 71
     5
 72
     1
  1
0.0030
  7
SIMPLEX
 73
     1
 44
1.0
  0
MTEXT
  5
15A
330
2
100
AcDbEntity
  8
DIM
100
AcDbMText
 10
521.2488230605345
 20
194.5075897035101
 30
0.0
 40
1.800000000000011
 41
0.0
 46
0.0
 71
     5
 72
     1
  1
+0.003
  7
SIMPLEX
 73
     1
 44
1.0
  0
LINE
  5
15B
330
2
100
AcDbEntity
  8
DIM
100
AcDbLine
 10
526.3194321704619
 20
292.1090230553792
 30
0.0
 11
530.5194321704617
 21
292.1090230553792
 31
0.0
  0
LINE
  5
15C
330
2
100
AcDbEntity
  8
DIM
100
AcDbLine
 10
530.5194321704617
 20
293.1090230553792
 30
0.0
 11
530.5194321704617
 21
282.254183940931
 31
0.0
  0
LINE
  5
15D
330
2
100
AcDbEntity
  8
DIM
100
AcDbLine
 10
526.3194321704617
 20
293.1090230553792
 30
0.0
 11
526.3194321704619
 21
285.754182370408
 31
0.0
  0
LINE
  5
15E
330
2
100
AcDbEntity
  8
DIM
100
AcDbLine
 10
356.9712463951582
 20
194.104217449176
 30
0.0
 11
327.6962463945616
 21
194.104217449176
 31
0.0
  0
LINE
  5
15F
330
2
100
AcDbEntity
  8
DIM
100
AcDbLine
 10
397.6437463945643
 20
171.0541840201515
 30
0.0
 11
397.6437463945643
 21
152.909321705415
 31
0.0
  0
LINE
  5
160
330
2
100
AcDbEntity
  8
DIM
100
AcDbLine
 10
401.2487463945636
 20
171.0541840201527
 30
0.0
 11
401.2487463945636
 21
152.909321705415
 31
0.0
  0
LINE
  5
161
330
2
100
AcDbEntity
  8
DIM
100
AcDbLine
 10
394.6437463945643
 20
153.909321705415
 30
0.0
 11
391.6437463945643
 21
153.909321705415
 31
0.0
  0
SOLID
  5
162
330
2
100
AcDbEntity
  8
DIM
100
AcDbTrace
 10
397.6437463945643
 20
153.909321705415
 30
0.0
 11
394.6437463945643
 21
153.4093217054149
 31
0.0
 12
394.6437463945643
 22
154.4093217054151
 32
0.0
 13
394.6437463945643
 23
154.4093217054151
 33
0.0
  0
LINE
  5
163
330
2
100
AcDbEntity
  8
DIM
100
AcDbLine
 10
404.2487463945636
 20
153.909321705415
 30
0.0
 11
416.9548737877073
 21
153.909321705415
 31
0.0
  0
SOLID
  5
164
330
2
100
AcDbEntity
  8
DIM
100
AcDbTrace
 10
401.2487463945636
 20
153.909321705415
 30
0.0
 11
404.2487463945636
 21
153.4093217054149
 31
0.0
 12
404.2487463945636
 22
154.4093217054151
 32
0.0
 13
404.2487463945636
 23
154.4093217054151
 33
0.0
  0
MTEXT
  5
165
330
2
100
AcDbEntity
  8
DIM
100
AcDbMText
 10
410.7586074676921
 20
156.0093217054149
 30
0.0
 40
2.5
 41
0.0
 46
0.0
 71
     5
 72
     1
  1
0.0103
  7
SIMPLEX
 73
     1
 44
1.0
  0
LINE
  5
166
330
2
100
AcDbEntity
  8
DIM
100
AcDbLine
 10
397.6437463945643
 20
153.909321705415
 30
0.0
 11
401.2487463945636
 21
153.909321705415
 31
0.0
  0
MTEXT
  5
167
330
2
100
AcDbEntity
  8
DIM
100
AcDbMText
 10
410.7586074676921
 20
152.1707814685214
 30
0.0
 40
1.800000000000011
 41
0.0
 46
0.0
 71
     5
 72
     1
  1
TYP.
  7
SIMPLEX
 73
     1
 44
1.0
  0
MTEXT
  5
168
330
2
100
AcDbEntity
  8
DIM
100
AcDbMText
 10
426.9874484130638
 20
339.4290496513112
 30
0.0
 40
2.5
 41
0.0
 46
0.0
 71
     1
 72
     1
  1
R0.0050
  7
SIMPLEX
 73
     1
 44
1.0
  0
LINE
  5
169
330
2
100
AcDbEntity
  8
DIM
100
AcDbLine
 10
417.3143949656507
 20
338.1818983625337
 30
0.0
 11
425.5274058080926
 21
338.1818983625337
 31
0.0
  0
MTEXT
  5
16A
330
2
100
AcDbEntity
  8
DIM
100
AcDbMText
 10
433.5835146090584
 20
342.5907191045819
 30
0.0
 40
1.800000000000011
 41
0.0
 46
0.0
 71
     1
 72
     1
  1
(4x)
  7
SIMPLEX
 73
     1
 44
1.0
  0
LINE
  5
16B
330
2
100
AcDbEntity
  8
DIM
100
AcDbLine
 10
403.0727942477184
 20
313.6426757031504
 30
0.0
 11
417.3143949656507
 21
338.1818983625337
 31
0.0
  0
SOLID
  5
16C
330
2
100
AcDbEntity
  8
DIM
100
AcDbTrace
 10
401.5669396941811
 20
311.047988426504
 30
0.0
 11
402.6403463682773
 21
313.8936514620733
 31
0.0
 12
403.5052421271594
 22
313.3916999442275
 32
0.0
 13
403.5052421271594
 23
313.3916999442275
 33
0.0
  0
HATCH
  5
16D
330
2
100
AcDbEntity
  8
0
100
AcDbHatch
 10
0.0
 20
0.0
 30
0.0
210
0.0
220
0.0
230
1.0
  2
ANSI37
 70
     0
 71
     0
 91
        7
 92
        7
 72
     0
 73
     1
 93
        6
 10
386.8462463945632
 20
200.2291840200529
 10
386.8462463945632
 20
202.8541840201605
 10
366.3712463945798
 20
202.8541840201829
 10
366.3712463945798
 20
201.1080026210831
 10
366.3712463945798
 20
199.3541840201829
 10
386.8462463945632
 20
199.3541840201662
 97
        0
 92
        7
 72
     1
 73
     1
 93
        6
 10
365.8462463937989
 20
224.5541840201839
 42
0.0
 10
368.4712463945674
 20
224.5541840201833
 42
0.0
 10
368.471246394555
 20
284.7541840201846
 42
0.0
 10
367.7712463945467
 20
284.7541840201823
 42
0.4142135623720384
 10
364.9712463945558
 20
281.954184020182
 42
0.0
 10
364.9712463945657
 20
224.5541840201818
 42
0.0
 97
        0
 92
        7
 72
     0
 73
     1
 93
        6
 10
432.5212463945326
 20
283.0041840201547
 10
432.5212463945449
 20
284.7541840201434
 10
423.771246394543
 20
284.7541840201941
 10
423.7712463945306
 20
283.0395412002039
 10
423.7712463945157
 20
281.2541840201491
 10
432.52124639452
 20
281.254184020155
 97
        0
 92
        7
 72
     0
 73
     1
 93
        6
 10
432.2066035746156
 20
259.2041840201113
 10
433.9212463945466
 20
259.2041840201125
 10
433.9212463945615
 20
273.9041840201575
 10
432.2066035746156
 20
273.9041840201575
 10
430.4212463945673
 20
273.9041840201575
 10
430.4212463945673
 20
259.20418402011
 97
        0
 92
        7
 72
     0
 73
     1
 93
        6
 10
432.2066035746156
 20
210.2041840200763
 10
433.9212463945466
 20
210.2041840200775
 10
433.9212463945615
 20
224.9041840201225
 10
432.2066035746156
 20
224.9041840201225
 10
430.4212463945673
 20
224.9041840201225
 10
430.4212463945673
 20
210.204184020075
 97
        0
 92
        7
 72
     0
 73
     1
 93
        6
 10
423.7712463945306
 20
201.0688268401314
 10
423.771246394543
 20
199.3541840201416
 10
432.5212463945449
 20
199.3541840201923
 10
432.5212463945326
 20
201.1041840201811
 10
432.52124639452
 20
202.854184020181
 10
423.7712463945157
 20
202.8541840201866
 97
        0
 92
        7
 72
     0
 73
     1
 93
        6
 10
432.2066035746156
 20
249.4041840201599
 10
430.4212463945673
 20
249.4041840201599
 10
430.4212463945673
 20
234.7041840201124
 10
432.2066035746156
 20
234.7041840201137
 10
433.9212463945466
 20
234.7041840201149
 10
433.9212463945615
 20
249.4041840201599
 97
        0
 75
     0
 76
     1
 52
0.0
 41
10.0
 77
     0
 78
     2
 53
45.0
 43
272.0
 44
0.0
 45
-0.8838834764831842
 46
0.8838834764831844
 79
     0
 53
135.0
 43
272.0
 44
0.0
 45
-0.8838834764831844
 46
-0.8838834764831842
 79
     0
 47
0.0
 98
       24
 10
272.0
 20
0.0
 10
272.0
 20
0.0
 10
272.0
 20
0.0
 10
272.0
 20
0.0
 10
272.0
 20
0.0
 10
272.0
 20
0.0
 10
272.0
 20
0.0
 10
272.0
 20
0.0
 10
272.0
 20
0.0
 10
272.0
 20
0.0
 10
272.0
 20
0.0
 10
272.0
 20
0.0
 10
272.0
 20
0.0
 10
272.0
 20
0.0
 10
272.0
 20
0.0
 10
272.0
 20
0.0
 10
272.0
 20
0.0
 10
379.8620187069614
 20
200.9555556078274
 10
367.6121167577242
 20
277.8138113861061
 10
426.6882568032389
 20
281.7653926600536
 10
431.4301543319761
 20
265.5639094368689
 10
432.8132077778576
 20
218.5400922768938
 10
429.0592055676076
 20
201.1531346715248
 10
431.6277333956733
 20
243.8302124301577
  0
LINE
  5
16E
330
2
100
AcDbEntity
  8
DIM
100
AcDbLine
 10
417.3177687878885
 20
113.1280468075348
 30
0.0
 11
421.1409060732123
 21
113.1280468075348
 31
0.0
  0
LINE
  5
16F
330
2
100
AcDbEntity
  8
DIM
100
AcDbLine
 10
411.2948766204284
 20
100.9690285097654
 30
0.0
 11
417.3177687878885
 21
113.1280468075348
 31
0.0
  0
MTEXT
  5
170
330
2
100
AcDbEntity
  8
DIM
100
AcDbMText
 10
422.2842288794169
 20
111.8798411240184
 30
0.0
 40
2.5
 41
0.0
 46
0.0
 71
     7
 72
     1
  1
BURR SIDE
  7
SIMPLEX
 73
     1
 44
1.0
  0
SOLID
  5
171
330
2
100
AcDbEntity
  8
DIM
100
AcDbTrace
 10
409.9632592572353
 20
98.28075858320616
 30
0.0
 11
411.7429216081884
 21
100.7470922825665
 31
0.0
 12
410.8468316326685
 22
101.1909647369642
 32
0.0
 13
410.8468316326685
 23
101.1909647369642
 33
0.0
  0
MTEXT
  5
172
330
2
100
AcDbEntity
  8
DIM
100
AcDbMText
 10
401.283197591358
 20
109.052218330756
 30
0.0
 40
1.799999999999996
 41
0.0
 46
0.0
 71
     5
 72
     1
  1
(REF.)
  7
SIMPLEX
 73
     1
 44
1.0
  0
MTEXT
  5
173
330
2
100
AcDbEntity
  8
DIM
100
AcDbMText
 10
515.5911795053324
 20
247.52179690982
 30
0.0
 40
1.800000000000011
 41
0.0
 46
0.0
 71
     5
 72
     1
  1
(REF.)
  7
SIMPLEX
 11
0.0
 21
1.0
 31
0.0
 73
     1
 44
1.0
  0
LINE
  5
174
330
2
100
AcDbEntity
  8
DIM
100
AcDbLine
 10
518.9649226398088
 20
211.2237777368516
 30
0.0
 11
515.1417853544849
 21
211.2237777368516
 31
0.0
  0
LINE
  5
175
330
2
100
AcDbEntity
  8
DIM
100
AcDbLine
 10
524.9878148072688
 20
223.382796034621
 30
0.0
 11
518.9649226398088
 21
211.2237777368516
 31
0.0
  0
MTEXT
  5
176
330
2
100
AcDbEntity
  8
DIM
100
AcDbMText
 10
494.6105871649473
 20
209.8778220829542
 30
0.0
 40
2.5
 41
0.0
 46
0.0
 71
     7
 72
     1
  1
BURR SIDE
  7
SIMPLEX
 73
     1
 44
1.0
  0
SOLID
  5
177
330
2
100
AcDbEntity
  8
DIM
100
AcDbTrace
 10
526.3194321704619
 20
226.0710659611802
 30
0.0
 11
524.5397698195089
 21
223.6047322618198
 31
0.0
 12
525.4358597950287
 22
223.1608598074221
 32
0.0
 13
525.4358597950287
 23
223.1608598074221
 33
0.0
  0
LINE
  5
178
330
2
100
AcDbEntity
  8
DIM
100
AcDbLine
 10
345.3712463945667
 20
201.8541840201599
 30
0.0
 11
345.3712463945667
 21
159.1041840201665
 31
0.0
  0
HATCH
  5
179
330
2
100
AcDbEntity
  8
COIN-LINE
100
AcDbHatch
 10
0.0
 20
0.0
 30
0.0
210
0.0
220
0.0
230
1.0
  2
TRIDOTS
 70
     0
 71
     0
 91
        7
 92
        7
 72
     1
 73
     1
 93
        7
 10
359.5462463945747
 20
194.1041840201862
 42
0.0
 10
359.5462463945647
 20
185.3541840201873
 42
0.0
 10
360.9816035746184
 20
185.3541840201873
 42
-0.3563939586888146
 10
362.6962463945623
 20
186.7541840201604
 42
0.0
 10
385.4462463945814
 20
186.7541840201806
 42
0.4142135623733812
 10
387.1962463945799
 20
188.5041840201809
 42
0.0
 10
387.1962463945698
 20
194.1041840201877
 42
0.0
 97
        0
 92
        7
 72
     1
 73
     1
 93
        8
 10
345.3712463945442
 20
212.6541840201187
 42
0.0
 10
351.7066035745866
 20
212.6541840201187
 42
-0.3563939586931378
 10
353.4212463945379
 20
214.0541840201152
 42
0.0
 10
357.9712463945646
 20
214.054184020094
 42
0.4142135623735893
 10
359.7212463945705
 20
215.8041840200924
 42
0.0
 10
359.7212463945655
 20
222.1041840201191
 42
0.0
 10
347.1212463945276
 20
222.1041840201424
 42
0.4142135623740836
 10
345.3712463945269
 20
220.3541840201403
 42
0.0
 97
        0
 92
        7
 72
     1
 73
     1
 93
        7
 10
381.5962463945778
 20
298.3688268401372
 42
0.0
 10
381.5962463945879
 20
299.8041840201917
 42
0.0
 10
372.49624639459
 20
299.8041840201917
 42
0.0
 10
372.4962463945717
 20
290.004184020208
 42
0.0
 10
378.4462463945778
 20
290.0041840202061
 42
0.4142135623721847
 10
380.1962463945737
 20
291.7541840202064
 42
0.0
 10
380.1962463945812
 20
296.6541840201909
 42
-0.3563939586902894
 97
        0
 92
        7
 72
     1
 73
     1
 93
       11
 10
347.2962463945634
 20
293.253992440781
 42
0.0850451161002438
 10
347.8787991829406
 20
293.1541840201922
 42
0.0
 10
355.0050183796407
 20
293.1541840201932
 42
-0.3851703882101613
 10
356.7462463941384
 20
291.5791840201788
 42
0.3851703882099899
 10
358.4874744090714
 20
290.004184020208
 42
0.0
 10
363.7462463945723
 20
290.004184020208
 42
0.0
 10
363.7462463945897
 20
299.7793102859808
 42
0.0035535252155691
 10
363.7460696134726
 20
299.8041840201917
 42
0.0
 10
356.7462463945562
 20
299.804184020215
 42
-0.9999999999955607
 10
351.4962463945561
 20
299.8041840201917
 42
0.0
 10
347.2962463945634
 20
299.8041840201917
 42
0.0
 97
        0
 92
        7
 72
     1
 73
     1
 93
       11
 10
347.2962463945634
 20
277.2291840202011
 42
0.0
 10
347.2962463945634
 20
268.7539924407635
 42
0.0850451161002433
 10
347.8787991829406
 20
268.6541840201747
 42
0.0
 10
356.2212463945563
 20
268.6541840201558
 42
0.0
 10
356.2212463945587
 20
285.4541840201962
 42
0.0
 10
353.233809527484
 20
288.4416208872696
 42
0.1989123673796581
 10
351.9963726604077
 20
288.954184020193
 42
0.0
 10
347.8787991829431
 20
288.9541840201943
 42
0.0850451161007387
 10
347.2962463945634
 20
288.8543755996058
 42
0.0
 10
347.2962463945634
 20
280.3791840201877
 42
-0.7207592200573261
 10
352.0212463945685
 20
278.8041840201943
 42
-0.7207592200573261
 97
        0
 92
        7
 72
     1
 73
     1
 93
        9
 10
347.2962463945634
 20
252.7291840202039
 42
0.0
 10
347.2962463945634
 20
247.4992950537854
 42
0.0379558211985863
 10
347.5607915969133
 20
247.4791840201398
 42
0.0
 10
356.2212463945662
 20
247.4791840201193
 42
0.0
 10
356.2212463945662
 20
264.4541840201755
 42
0.0
 10
347.8787991829431
 20
264.4541840201767
 42
0.0850451161007384
 10
347.2962463945634
 20
264.3543755995882
 42
0.0
 10
347.2962463945634
 20
255.8791840201901
 42
-0.7207592200573261
 10
352.0212463945685
 20
254.3041840201967
 42
-0.7207592200573261
 97
        0
 92
        7
 72
     1
 73
     1
 93
        8
 10
347.2962463945634
 20
231.7291840201616
 42
0.0
 10
347.2962463945634
 20
226.3041840201517
 42
0.0
 10
356.2212463945611
 20
226.3041840201426
 42
0.0
 10
356.2212463945513
 20
243.2791840201391
 42
0.0
 10
347.8787991829257
 20
243.2791840201403
 42
0.0850451160981417
 10
347.2962463945634
 20
243.1793755995552
 42
0.0
 10
347.2962463945634
 20
234.8791840201495
 42
-0.7207592200573261
 10
352.0212463945685
 20
233.3041840201561
 42
-0.7207592200573261
 97
        0
 75
     0
 76
     1
 52
0.0
 41
1.0
 77
     0
 78
     1
 53
0.0
 43
544.0
 44
0.0
 45
0.5
 46
0.8660254039999999
 79
     2
 49
0.0
 49
-1.0
 47
0.0
 98
       24
 10
272.0
 20
0.0
 10
272.0
 20
0.0
 10
272.0
 20
0.0
 10
272.0
 20
0.0
 10
272.0
 20
0.0
 10
272.0
 20
0.0
 10
272.0
 20
0.0
 10
272.0
 20
0.0
 10
272.0
 20
0.0
 10
272.0
 20
0.0
 10
272.0
 20
0.0
 10
272.0
 20
0.0
 10
272.0
 20
0.0
 10
272.0
 20
0.0
 10
272.0
 20
0.0
 10
272.0
 20
0.0
 10
272.0
 20
0.0
 10
367.0279039264859
 20
191.8782200668804
 10
350.4875689995731
 20
215.4725213596826
 10
376.0277920484826
 20
297.201235116193
 10
359.4874571215698
 20
296.9579948966796
 10
349.7578483410328
 20
284.0662632624681
 10
351.7037700971402
 20
259.985481530639
 10
350.7308092190866
 20
238.3371019939444
  0
LINE
  5
17A
330
2
100
AcDbEntity
  8
CEN
100
AcDbLine
 10
347.8227600593869
 20
233.3041840201561
 30
0.0
 11
350.9697327297499
 21
233.3041840201561
 31
0.0
  0
LINE
  5
17B
330
2
100
AcDbEntity
  8
CEN
100
AcDbLine
 10
349.3962463945684
 20
231.7306976849746
 30
0.0
 11
349.3962463945684
 21
234.8776703553376
 31
0.0
  0
LINE
  5
17C
330
2
100
AcDbEntity
  8
CEN
100
AcDbLine
 10
347.8227600593869
 20
254.3041840201967
 30
0.0
 11
350.9697327297499
 21
254.3041840201967
 31
0.0
  0
LINE
  5
17D
330
2
100
AcDbEntity
  8
CEN
100
AcDbLine
 10
349.3962463945684
 20
252.7306976850152
 30
0.0
 11
349.3962463945684
 21
255.8776703553782
 31
0.0
  0
LINE
  5
17E
330
2
100
AcDbEntity
  8
CEN
100
AcDbLine
 10
347.8227600593869
 20
278.8041840201943
 30
0.0
 11
350.9697327297499
 21
278.8041840201943
 31
0.0
  0
LINE
  5
17F
330
2
100
AcDbEntity
  8
CEN
100
AcDbLine
 10
349.3962463945684
 20
277.2306976850127
 30
0.0
 11
349.3962463945684
 21
280.3776703553758
 31
0.0
  0
LINE
  5
180
330
2
100
AcDbEntity
  8
CEN
100
AcDbLine
 10
352.5477600593746
 20
299.804184020215
 30
0.0
 11
355.6947327297377
 21
299.804184020215
 31
0.0
  0
LINE
  5
181
330
2
100
AcDbEntity
  8
CEN
100
AcDbLine
 10
354.1212463945561
 20
298.2306976850334
 30
0.0
 11
354.1212463945561
 21
301.3776703553965
 31
0.0
  0
LINE
  5
182
330
2
100
AcDbEntity
  8
DIM
100
AcDbLine
 10
357.4462463945969
 20
307.8041840201461
 30
0.0
 11
357.4462463945969
 21
340.0541840201477
 31
0.0
  0
LINE
  5
183
330
2
100
AcDbEntity
  8
COIN-LINE
100
AcDbLine
 10
357.4462463945969
 20
340.0541840201477
 30
0.0
 11
363.7462463945969
 21
345.0541840201477
 31
0.0
  0
LINE
  5
184
330
2
100
AcDbEntity
  8
DIM
100
AcDbLine
 10
363.7462463945969
 20
345.0541840201477
 30
0.0
 11
363.7462463945969
 21
368.0541840201477
 31
0.0
  0
TEXT
  5
185
330
2
100
AcDbEntity
  8
DIM
100
AcDbText
 10
363.2462463945969
 20
356.1494221153858
 30
0.0
 40
2.5
  1
0.1200
 50
90.0
  7
SIMPLEX
 72
     2
 11
363.2462463945969
 21
368.0541840201477
 31
0.0
100
AcDbText
  0
LINE
  5
186
330
2
100
AcDbEntity
  8
DIM
100
AcDbLine
 10
363.7462463945897
 20
300.7793102859809
 30
0.0
 11
363.7462463945897
 21
340.0541840201477
 31
0.0
  0
LINE
  5
187
330
2
100
AcDbEntity
  8
COIN-LINE
100
AcDbLine
 10
363.7462463945897
 20
340.0541840201477
 30
0.0
 11
367.2462463945897
 21
345.0541840201477
 31
0.0
  0
LINE
  5
188
330
2
100
AcDbEntity
  8
DIM
100
AcDbLine
 10
367.2462463945897
 20
345.0541840201477
 30
0.0
 11
367.2462463945897
 21
368.0541840201477
 31
0.0
  0
TEXT
  5
189
330
2
100
AcDbEntity
  8
DIM
100
AcDbText
 10
366.7462463945897
 20
356.1494221153858
 30
0.0
 40
2.5
  1
0.1020
 50
90.0
  7
SIMPLEX
 72
     2
 11
366.7462463945897
 21
368.0541840201477
 31
0.0
100
AcDbText
  0
LINE
  5
18A
330
2
100
AcDbEntity
  8
DIM
100
AcDbLine
 10
372.4962463945991
 20
305.7041840201986
 30
0.0
 11
372.4962463945991
 21
340.0541840201477
 31
0.0
  0
LINE
  5
18B
330
2
100
AcDbEntity
  8
COIN-LINE
100
AcDbLine
 10
372.4962463945991
 20
340.0541840201477
 30
0.0
 11
372.4962463945991
 21
345.0541840201477
 31
0.0
  0
LINE
  5
18C
330
2
100
AcDbEntity
  8
DIM
100
AcDbLine
 10
372.4962463945991
 20
345.0541840201477
 30
0.0
 11
372.4962463945991
 21
368.0541840201477
 31
0.0
  0
TEXT
  5
18D
330
2
100
AcDbEntity
  8
DIM
100
AcDbText
 10
371.9962463945992
 20
355.6732316391954
 30
0.0
 40
2.5
  1
0.0770
 50
90.0
  7
SIMPLEX
 72
     2
 11
371.9962463945992
 21
368.0541840201477
 31
0.0
100
AcDbText
  0
LINE
  5
18E
330
2
100
AcDbEntity
  8
DIM
100
AcDbLine
 10
380.1962463945812
 20
297.6541840201909
 30
0.0
 11
380.1962463945812
 21
340.0541840201477
 31
0.0
  0
LINE
  5
18F
330
2
100
AcDbEntity
  8
COIN-LINE
100
AcDbLine
 10
380.1962463945812
 20
340.0541840201477
 30
0.0
 11
378.0962463945879
 21
345.0541840201477
 31
0.0
  0
LINE
  5
190
330
2
100
AcDbEntity
  8
DIM
100
AcDbLine
 10
378.0962463945879
 20
345.0541840201477
 30
0.0
 11
378.0962463945879
 21
368.0541840201477
 31
0.0
  0
TEXT
  5
191
330
2
100
AcDbEntity
  8
DIM
100
AcDbText
 10
377.5962463945879
 20
355.6732316391953
 30
0.0
 40
2.5
  1
0.0550
 50
90.0
  7
SIMPLEX
 72
     2
 11
377.5962463945879
 21
368.0541840201477
 31
0.0
100
AcDbText
  0
LINE
  5
192
330
2
100
AcDbEntity
  8
DIM
100
AcDbLine
 10
384.3962463945663
 20
297.65418402019
 30
0.0
 11
384.3962463945663
 21
340.0541840201477
 31
0.0
  0
LINE
  5
193
330
2
100
AcDbEntity
  8
COIN-LINE
100
AcDbLine
 10
384.3962463945663
 20
340.0541840201477
 30
0.0
 11
385.0962463945879
 21
345.0541840201477
 31
0.0
  0
LINE
  5
194
330
2
100
AcDbEntity
  8
DIM
100
AcDbLine
 10
385.0962463945879
 20
345.0541840201477
 30
0.0
 11
385.0962463945879
 21
368.0541840201477
 31
0.0
  0
TEXT
  5
195
330
2
100
AcDbEntity
  8
DIM
100
AcDbText
 10
384.5962463945879
 20
355.6732316391954
 30
0.0
 40
2.5
  1
0.0430
 50
90.0
  7
SIMPLEX
 72
     2
 11
384.5962463945879
 21
368.0541840201477
 31
0.0
100
AcDbText
  0
LINE
  5
196
330
2
100
AcDbEntity
  8
DIM
100
AcDbLine
 10
411.8712463945781
 20
296.6041840201881
 30
0.0
 11
411.8712463945781
 21
340.0541840201477
 31
0.0
  0
LINE
  5
197
330
2
100
AcDbEntity
  8
COIN-LINE
100
AcDbLine
 10
411.8712463945781
 20
340.0541840201477
 30
0.0
 11
411.8712463945781
 21
345.0541840201477
 31
0.0
  0
LINE
  5
198
330
2
100
AcDbEntity
  8
DIM
100
AcDbLine
 10
411.8712463945781
 20
345.0541840201477
 30
0.0
 11
411.8712463945781
 21
368.0541840201477
 31
0.0
  0
TEXT
  5
199
330
2
100
AcDbEntity
  8
DIM
100
AcDbText
 10
411.3712463945781
 20
355.6732316391953
 30
0.0
 40
2.5
  1
0.0355
 50
90.0
  7
SIMPLEX
 72
     2
 11
411.3712463945781
 21
368.0541840201477
 31
0.0
100
AcDbText
  0
LINE
  5
19A
330
2
100
AcDbEntity
  8
DIM
100
AcDbLine
 10
442.7062463945573
 20
306.0541840201505
 30
0.0
 11
442.7062463945573
 21
340.0541840201477
 31
0.0
  0
LINE
  5
19B
330
2
100
AcDbEntity
  8
COIN-LINE
100
AcDbLine
 10
442.7062463945573
 20
340.0541840201477
 30
0.0
 11
442.7062463945573
 21
345.0541840201477
 31
0.0
  0
LINE
  5
19C
330
2
100
AcDbEntity
  8
DIM
100
AcDbLine
 10
442.7062463945573
 20
345.0541840201477
 30
0.0
 11
442.7062463945573
 21
368.0541840201477
 31
0.0
  0
TEXT
  5
19D
330
2
100
AcDbEntity
  8
DIM
100
AcDbText
 10
442.2062463945573
 20
356.2684697344334
 30
0.0
 40
2.5
  1
0.1236
 50
90.0
  7
SIMPLEX
 72
     2
 11
442.2062463945573
 21
368.0541840201477
 31
0.0
100
AcDbText
  0
LINE
  5
19E
330
2
100
AcDbEntity
  8
DIM
100
AcDbLine
 10
453.9062463945709
 20
299.0541840201569
 30
0.0
 11
453.9062463945709
 21
340.0541840201477
 31
0.0
  0
LINE
  5
19F
330
2
100
AcDbEntity
  8
COIN-LINE
100
AcDbLine
 10
453.9062463945709
 20
340.0541840201477
 30
0.0
 11
453.6962463945643
 21
345.0541840201595
 31
0.0
  0
LINE
  5
1A0
330
2
100
AcDbEntity
  8
DIM
100
AcDbLine
 10
453.6962463945643
 20
345.0541840201595
 30
0.0
 11
453.6962463945643
 21
368.0541840201595
 31
0.0
  0
TEXT
  5
1A1
330
2
100
AcDbEntity
  8
DIM
100
AcDbText
 10
453.1962463945643
 20
356.2684697344453
 30
0.0
 40
2.5
  1
0.1556
 50
90.0
  7
SIMPLEX
 72
     2
 11
453.1962463945643
 21
368.0541840201595
 31
0.0
100
AcDbText
  0
LINE
  5
1A2
330
2
100
AcDbEntity
  8
DIM
100
AcDbLine
 10
434.9212463945615
 20
273.9041840201575
 30
0.0
 11
471.1962463945743
 21
273.9041840201575
 31
0.0
  0
LINE
  5
1A3
330
2
100
AcDbEntity
  8
COIN-LINE
100
AcDbLine
 10
471.1962463945743
 20
273.9041840201575
 30
0.0
 11
476.1962463945743
 21
273.9041840201575
 31
0.0
  0
LINE
  5
1A4
330
2
100
AcDbEntity
  8
DIM
100
AcDbLine
 10
476.1962463945743
 20
273.9041840201575
 30
0.0
 11
499.1962463945744
 21
273.9041840201575
 31
0.0
  0
TEXT
  5
1A5
330
2
100
AcDbEntity
  8
DIM
100
AcDbText
 10
487.2914844898124
 20
274.4041840201575
 30
0.0
 40
2.5
  1
0.0910
  7
SIMPLEX
 72
     2
 11
499.1962463945744
 21
274.4041840201575
 31
0.0
100
AcDbText
  0
LINE
  5
1A6
330
2
100
AcDbEntity
  8
DIM
100
AcDbLine
 10
434.9212463945466
 20
259.2041840201125
 30
0.0
 11
471.1962463945743
 21
259.2041840201125
 31
0.0
  0
LINE
  5
1A7
330
2
100
AcDbEntity
  8
COIN-LINE
100
AcDbLine
 10
471.1962463945743
 20
259.2041840201125
 30
0.0
 11
476.1962463945743
 21
259.2041840201125
 31
0.0
  0
LINE
  5
1A8
330
2
100
AcDbEntity
  8
DIM
100
AcDbLine
 10
476.1962463945743
 20
259.2041840201125
 30
0.0
 11
499.1962463945744
 21
259.2041840201125
 31
0.0
  0
TEXT
  5
1A9
330
2
100
AcDbEntity
  8
DIM
100
AcDbText
 10
486.8152940136219
 20
259.7041840201125
 30
0.0
 40
2.5
  1
0.0490
  7
SIMPLEX
 72
     2
 11
499.1962463945744
 21
259.7041840201125
 31
0.0
100
AcDbText
  0
LINE
  5
1AA
330
2
100
AcDbEntity
  8
DIM
100
AcDbLine
 10
434.9212463945615
 20
249.4041840201599
 30
0.0
 11
471.1962463945743
 21
249.4041840201599
 31
0.0
  0
LINE
  5
1AB
330
2
100
AcDbEntity
  8
COIN-LINE
100
AcDbLine
 10
471.1962463945743
 20
249.4041840201599
 30
0.0
 11
476.1962463945743
 21
249.4041840201599
 31
0.0
  0
LINE
  5
1AC
330
2
100
AcDbEntity
  8
DIM
100
AcDbLine
 10
476.1962463945743
 20
249.4041840201599
 30
0.0
 11
499.1962463945744
 21
249.4041840201599
 31
0.0
  0
TEXT
  5
1AD
330
2
100
AcDbEntity
  8
DIM
100
AcDbText
 10
487.2914844898124
 20
249.9041840201599
 30
0.0
 40
2.5
  1
0.0210
  7
SIMPLEX
 72
     2
 11
499.1962463945744
 21
249.9041840201599
 31
0.0
100
AcDbText
  0
LINE
  5
1AE
330
2
100
AcDbEntity
  8
DIM
100
AcDbLine
 10
422.3712463945611
 20
195.9041840201812
 30
0.0
 11
422.3712463945611
 21
159.1041840201862
 31
0.0
  0
LINE
  5
1AF
330
2
100
AcDbEntity
  8
COIN-LINE
100
AcDbLine
 10
422.3712463945611
 20
159.1041840201862
 30
0.0
 11
422.3712463945611
 21
154.1041840201861
 31
0.0
  0
LINE
  5
1B0
330
2
100
AcDbEntity
  8
DIM
100
AcDbLine
 10
422.3712463945611
 20
154.1041840201861
 30
0.0
 11
422.3712463945611
 21
131.1041840201861
 31
0.0
  0
TEXT
  5
1B1
330
2
100
AcDbEntity
  8
DIM
100
AcDbText
 10
421.8712463945611
 20
131.1041840201861
 30
0.0
 40
2.5
  1
0.0655
 50
90.0
  7
SIMPLEX
100
AcDbText
  0
LINE
  5
1B2
330
2
100
AcDbEntity
  8
DIM
100
AcDbLine
 10
423.771246394543
 20
285.7541840201942
 30
0.0
 11
423.771246394543
 21
340.0541840201477
 31
0.0
  0
LINE
  5
1B3
330
2
100
AcDbEntity
  8
COIN-LINE
100
AcDbLine
 10
423.771246394543
 20
340.0541840201477
 30
0.0
 11
423.771246394543
 21
345.0541840201477
 31
0.0
  0
LINE
  5
1B4
330
2
100
AcDbEntity
  8
DIM
100
AcDbLine
 10
423.771246394543
 20
345.0541840201477
 30
0.0
 11
423.771246394543
 21
368.0541840201477
 31
0.0
  0
TEXT
  5
1B5
330
2
100
AcDbEntity
  8
DIM
100
AcDbText
 10
423.271246394543
 20
355.6732316391953
 30
0.0
 40
2.5
  1
0.0695
 50
90.0
  7
SIMPLEX
 72
     2
 11
423.271246394543
 21
368.0541840201477
 31
0.0
100
AcDbText
  0
LINE
  5
1B6
330
2
100
AcDbEntity
  8
DIM
100
AcDbLine
 10
432.5212463945449
 20
285.7541840201434
 30
0.0
 11
432.5212463945449
 21
340.0541840201477
 31
0.0
  0
LINE
  5
1B7
330
2
100
AcDbEntity
  8
COIN-LINE
100
AcDbLine
 10
432.5212463945449
 20
340.0541840201477
 30
0.0
 11
432.5212463945449
 21
345.0541840201477
 31
0.0
  0
LINE
  5
1B8
330
2
100
AcDbEntity
  8
DIM
100
AcDbLine
 10
432.5212463945449
 20
345.0541840201477
 30
0.0
 11
432.5212463945449
 21
368.0541840201477
 31
0.0
  0
TEXT
  5
1B9
330
2
100
AcDbEntity
  8
DIM
100
AcDbText
 10
432.0212463945449
 20
355.6732316391953
 30
0.0
 40
2.5
  1
0.0945
 50
90.0
  7
SIMPLEX
 72
     2
 11
432.0212463945449
 21
368.0541840201477
 31
0.0
100
AcDbText
  0
LINE
  5
1BA
330
2
100
AcDbEntity
  8
DIM
100
AcDbLine
 10
387.1962463945799
 20
187.5041840201809
 30
0.0
 11
387.1962463945799
 21
159.1041840201862
 31
0.0
  0
LINE
  5
1BB
330
2
100
AcDbEntity
  8
COIN-LINE
100
AcDbLine
 10
387.1962463945799
 20
159.1041840201862
 30
0.0
 11
390.3462463945632
 21
154.1041840201861
 31
0.0
  0
LINE
  5
1BC
330
2
100
AcDbEntity
  8
DIM
100
AcDbLine
 10
390.3462463945632
 20
154.1041840201861
 30
0.0
 11
390.3462463945632
 21
131.1041840201861
 31
0.0
  0
TEXT
  5
1BD
330
2
100
AcDbEntity
  8
DIM
100
AcDbText
 10
389.8462463945632
 20
131.1041840201861
 30
0.0
 40
2.5
  1
0.0350
 50
90.0
  7
SIMPLEX
100
AcDbText
  0
LINE
  5
1BE
330
2
100
AcDbEntity
  8
DIM
100
AcDbLine
 10
386.8462463945632
 20
198.3541840201661
 30
0.0
 11
386.8462463945632
 21
159.1041840201862
 31
0.0
  0
LINE
  5
1BF
330
2
100
AcDbEntity
  8
COIN-LINE
100
AcDbLine
 10
386.8462463945632
 20
159.1041840201862
 30
0.0
 11
386.8462463945632
 21
154.1041840201861
 31
0.0
  0
LINE
  5
1C0
330
2
100
AcDbEntity
  8
DIM
100
AcDbLine
 10
386.8462463945632
 20
154.1041840201861
 30
0.0
 11
386.8462463945632
 21
131.1041840201861
 31
0.0
  0
TEXT
  5
1C1
330
2
100
AcDbEntity
  8
DIM
100
AcDbText
 10
386.3462463945632
 20
131.1041840201861
 30
0.0
 40
2.5
  1
0.0360
 50
90.0
  7
SIMPLEX
100
AcDbText
  0
LINE
  5
1C2
330
2
100
AcDbEntity
  8
DIM
100
AcDbLine
 10
366.3712463945798
 20
198.3541840201829
 30
0.0
 11
366.3712463945798
 21
159.1041840201862
 31
0.0
  0
LINE
  5
1C3
330
2
100
AcDbEntity
  8
COIN-LINE
100
AcDbLine
 10
366.3712463945798
 20
159.1041840201862
 30
0.0
 11
373.5462463945647
 21
154.1041840201861
 31
0.0
  0
LINE
  5
1C4
330
2
100
AcDbEntity
  8
DIM
100
AcDbLine
 10
373.5462463945647
 20
154.1041840201861
 30
0.0
 11
373.5462463945647
 21
131.1041840201861
 31
0.0
  0
TEXT
  5
1C5
330
2
100
AcDbEntity
  8
DIM
100
AcDbText
 10
373.0462463945646
 20
131.1041840201861
 30
0.0
 40
2.5
  1
0.0945
 50
90.0
  7
SIMPLEX
100
AcDbText
  0
LINE
  5
1C6
330
2
100
AcDbEntity
  8
DIM
100
AcDbLine
 10
360.9462463945639
 20
178.0541840201457
 30
0.0
 11
360.9462463945639
 21
159.1041840201862
 31
0.0
  0
LINE
  5
1C7
330
2
100
AcDbEntity
  8
COIN-LINE
100
AcDbLine
 10
360.9462463945639
 20
159.1041840201862
 30
0.0
 11
366.5462463945647
 21
154.1041840201861
 31
0.0
  0
LINE
  5
1C8
330
2
100
AcDbEntity
  8
DIM
100
AcDbLine
 10
366.5462463945647
 20
154.1041840201861
 30
0.0
 11
366.5462463945647
 21
131.1041840201861
 31
0.0
  0
TEXT
  5
1C9
330
2
100
AcDbEntity
  8
DIM
100
AcDbText
 10
366.0462463945647
 20
131.1041840201861
 30
0.0
 40
2.5
  1
0.1100
 50
90.0
  7
SIMPLEX
100
AcDbText
  0
LINE
  5
1CA
330
2
100
AcDbEntity
  8
DIM
100
AcDbLine
 10
347.2962463945758
 20
185.0541840201815
 30
0.0
 11
347.2962463945758
 21
159.1041840201862
 31
0.0
  0
LINE
  5
1CB
330
2
100
AcDbEntity
  8
COIN-LINE
100
AcDbLine
 10
347.2962463945758
 20
159.1041840201862
 30
0.0
 11
347.2962463945758
 21
154.1041840201861
 31
0.0
  0
LINE
  5
1CC
330
2
100
AcDbEntity
  8
DIM
100
AcDbLine
 10
347.2962463945758
 20
154.1041840201861
 30
0.0
 11
347.2962463945758
 21
131.1041840201861
 31
0.0
  0
TEXT
  5
1CD
330
2
100
AcDbEntity
  8
DIM
100
AcDbText
 10
346.7962463945758
 20
131.1041840201861
 30
0.0
 40
2.5
  1
0.1490
 50
90.0
  7
SIMPLEX
100
AcDbText
  0
LINE
  5
1CE
330
2
100
AcDbEntity
  8
DIM
100
AcDbLine
 10
344.3712463945591
 20
202.8541840201599
 30
0.0
 11
327.6962463945559
 21
202.8541840201599
 31
0.0
  0
LINE
  5
1CF
330
2
100
AcDbEntity
  8
COIN-LINE
100
AcDbLine
 10
327.6962463945559
 20
202.8541840201599
 30
0.0
 11
322.6962463945558
 21
202.8541840201599
 31
0.0
  0
LINE
  5
1D0
330
2
100
AcDbEntity
  8
DIM
100
AcDbLine
 10
322.6962463945558
 20
202.8541840201599
 30
0.0
 11
299.6962463945558
 21
202.8541840201599
 31
0.0
  0
TEXT
  5
1D1
330
2
100
AcDbEntity
  8
DIM
100
AcDbText
 10
299.6962463945558
 20
203.3541840201599
 30
0.0
 40
2.5
  1
0.1120
  7
SIMPLEX
100
AcDbText
  0
LINE
  5
1D2
330
2
100
AcDbEntity
  8
DIM
100
AcDbLine
 10
352.4212463945379
 20
209.8541840201336
 30
0.0
 11
327.6962463945559
 21
209.8541840201336
 31
0.0
  0
LINE
  5
1D3
330
2
100
AcDbEntity
  8
COIN-LINE
100
AcDbLine
 10
327.6962463945559
 20
209.8541840201336
 30
0.0
 11
322.6962463945558
 21
209.1541840201187
 31
0.0
  0
LINE
  5
1D4
330
2
100
AcDbEntity
  8
DIM
100
AcDbLine
 10
322.6962463945558
 20
209.1541840201187
 30
0.0
 11
299.6962463945558
 21
209.1541840201187
 31
0.0
  0
TEXT
  5
1D5
330
2
100
AcDbEntity
  8
DIM
100
AcDbText
 10
299.6962463945558
 20
209.6541840201187
 30
0.0
 40
2.5
  1
0.0920
  7
SIMPLEX
100
AcDbText
  0
LINE
  5
1D6
330
2
100
AcDbEntity
  8
DIM
100
AcDbLine
 10
344.3712463945443
 20
212.6541840201187
 30
0.0
 11
327.6962463945559
 21
212.6541840201187
 31
0.0
  0
LINE
  5
1D7
330
2
100
AcDbEntity
  8
COIN-LINE
100
AcDbLine
 10
327.6962463945559
 20
212.6541840201187
 30
0.0
 11
322.6962463945558
 21
212.6541840201187
 31
0.0
  0
LINE
  5
1D8
330
2
100
AcDbEntity
  8
DIM
100
AcDbLine
 10
322.6962463945558
 20
212.6541840201187
 30
0.0
 11
299.6962463945558
 21
212.6541840201187
 31
0.0
  0
TEXT
  5
1D9
330
2
100
AcDbEntity
  8
DIM
100
AcDbText
 10
299.6962463945558
 20
213.1541840201187
 30
0.0
 40
2.5
  1
0.0840
  7
SIMPLEX
100
AcDbText
  0
LINE
  5
1DA
330
2
100
AcDbEntity
  8
DIM
100
AcDbLine
 10
352.4212463945379
 20
214.0541840201152
 30
0.0
 11
327.6962463945559
 21
214.0541840201152
 31
0.0
  0
LINE
  5
1DB
330
2
100
AcDbEntity
  8
COIN-LINE
100
AcDbLine
 10
327.6962463945559
 20
214.0541840201152
 30
0.0
 11
322.6962463945558
 21
216.1541840201187
 31
0.0
  0
LINE
  5
1DC
330
2
100
AcDbEntity
  8
DIM
100
AcDbLine
 10
322.6962463945558
 20
216.1541840201187
 30
0.0
 11
299.6962463945558
 21
216.1541840201187
 31
0.0
  0
TEXT
  5
1DD
330
2
100
AcDbEntity
  8
DIM
100
AcDbText
 10
299.6962463945558
 20
216.6541840201187
 30
0.0
 40
2.5
  1
0.0800
  7
SIMPLEX
100
AcDbText
  0
LINE
  5
1DE
330
2
100
AcDbEntity
  8
DIM
100
AcDbLine
 10
346.1212463945277
 20
222.1041840201424
 30
0.0
 11
327.6962463945559
 21
222.1041840201424
 31
0.0
  0
LINE
  5
1DF
330
2
100
AcDbEntity
  8
COIN-LINE
100
AcDbLine
 10
327.6962463945559
 20
222.1041840201424
 30
0.0
 11
322.6962463945558
 21
222.1041840201424
 31
0.0
  0
LINE
  5
1E0
330
2
100
AcDbEntity
  8
DIM
100
AcDbLine
 10
322.6962463945558
 20
222.1041840201424
 30
0.0
 11
299.6962463945558
 21
222.1041840201424
 31
0.0
  0
TEXT
  5
1E1
330
2
100
AcDbEntity
  8
DIM
100
AcDbText
 10
299.6962463945558
 20
222.6041840201424
 30
0.0
 40
2.5
  1
0.0570
  7
SIMPLEX
100
AcDbText
  0
LINE
  5
1E2
330
2
100
AcDbEntity
  8
DIM
100
AcDbLine
 10
363.9712463945656
 20
224.5541840201817
 30
0.0
 11
327.6962463945559
 21
224.5541840201817
 31
0.0
  0
LINE
  5
1E3
330
2
100
AcDbEntity
  8
COIN-LINE
100
AcDbLine
 10
327.6962463945559
 20
224.5541840201817
 30
0.0
 11
322.6962463945558
 21
225.6041840201424
 31
0.0
  0
LINE
  5
1E4
330
2
100
AcDbEntity
  8
DIM
100
AcDbLine
 10
322.6962463945558
 20
225.6041840201424
 30
0.0
 11
299.6962463945558
 21
225.6041840201424
 31
0.0
  0
TEXT
  5
1E5
330
2
100
AcDbEntity
  8
DIM
100
AcDbText
 10
299.6962463945558
 20
226.1041840201424
 30
0.0
 40
2.5
  1
0.0500
  7
SIMPLEX
100
AcDbText
  0
LINE
  5
1E6
330
2
100
AcDbEntity
  8
DIM
100
AcDbLine
 10
346.8227600593869
 20
233.3041840201561
 30
0.0
 11
344.4462463945463
 21
233.3041840201561
 31
0.0
  0
LINE
  5
1E7
330
2
100
AcDbEntity
  8
COIN-LINE
100
AcDbLine
 10
327.6962463945559
 20
233.3041840201561
 30
0.0
 11
322.6962463945558
 21
233.3041840201561
 31
0.0
  0
LINE
  5
1E8
330
2
100
AcDbEntity
  8
DIM
100
AcDbLine
 10
322.6962463945558
 20
233.3041840201561
 30
0.0
 11
299.6962463945558
 21
233.3041840201561
 31
0.0
  0
TEXT
  5
1E9
330
2
100
AcDbEntity
  8
DIM
100
AcDbText
 10
299.6962463945558
 20
233.8041840201561
 30
0.0
 40
2.5
  1
0.0250
  7
SIMPLEX
100
AcDbText
  0
LINE
  5
1EA
330
2
100
AcDbEntity
  8
DIM
100
AcDbLine
 10
346.8787991829257
 20
243.2791840201403
 30
0.0
 11
327.6962463945559
 21
243.2791840201403
 31
0.0
  0
LINE
  5
1EB
330
2
100
AcDbEntity
  8
COIN-LINE
100
AcDbLine
 10
327.6962463945559
 20
243.2791840201403
 30
0.0
 11
322.6962463945558
 21
243.2791840201403
 31
0.0
  0
LINE
  5
1EC
330
2
100
AcDbEntity
  8
DIM
100
AcDbLine
 10
322.6962463945558
 20
243.2791840201403
 30
0.0
 11
299.6962463945558
 21
243.2791840201403
 31
0.0
  0
TEXT
  5
1ED
330
2
100
AcDbEntity
  8
DIM
100
AcDbText
 10
299.6962463945558
 20
243.7791840201403
 30
0.0
 40
2.5
  1
0.0035
  7
SIMPLEX
100
AcDbText
  0
LINE
  5
1EE
330
2
100
AcDbEntity
  8
DIM
100
AcDbLine
 10
346.5607915969134
 20
247.4791840201398
 30
0.0
 11
327.6962463945559
 21
247.4791840201398
 31
0.0
  0
LINE
  5
1EF
330
2
100
AcDbEntity
  8
COIN-LINE
100
AcDbLine
 10
327.6962463945559
 20
247.4791840201398
 30
0.0
 11
322.6962463945558
 21
247.4791840201398
 31
0.0
  0
LINE
  5
1F0
330
2
100
AcDbEntity
  8
DIM
100
AcDbLine
 10
322.6962463945558
 20
247.4791840201398
 30
0.0
 11
299.6962463945558
 21
247.4791840201398
 31
0.0
  0
TEXT
  5
1F1
330
2
100
AcDbEntity
  8
DIM
100
AcDbText
 10
299.6962463945558
 20
247.9791840201398
 30
0.0
 40
2.5
  1
0.0155
  7
SIMPLEX
100
AcDbText
  0
LINE
  5
1F2
330
2
100
AcDbEntity
  8
DIM
100
AcDbLine
 10
346.8227600593869
 20
254.3041840201967
 30
0.0
 11
327.6962463945559
 21
254.3041840201967
 31
0.0
  0
LINE
  5
1F3
330
2
100
AcDbEntity
  8
COIN-LINE
100
AcDbLine
 10
327.6962463945559
 20
254.3041840201967
 30
0.0
 11
322.6962463945558
 21
254.3041840201967
 31
0.0
  0
LINE
  5
1F4
330
2
100
AcDbEntity
  8
DIM
100
AcDbLine
 10
322.6962463945558
 20
254.3041840201967
 30
0.0
 11
299.6962463945558
 21
254.3041840201967
 31
0.0
  0
TEXT
  5
1F5
330
2
100
AcDbEntity
  8
DIM
100
AcDbText
 10
299.6962463945558
 20
254.8041840201967
 30
0.0
 40
2.5
  1
0.0350
  7
SIMPLEX
100
AcDbText
  0
LINE
  5
1F6
330
2
100
AcDbEntity
  8
DIM
100
AcDbLine
 10
346.8227600593869
 20
278.8041840201943
 30
0.0
 11
327.6962463945559
 21
278.8041840201943
 31
0.0
  0
LINE
  5
1F7
330
2
100
AcDbEntity
  8
COIN-LINE
100
AcDbLine
 10
327.6962463945559
 20
278.8041840201943
 30
0.0
 11
322.6962463945499
 21
276.0041823705188
 31
0.0
  0
LINE
  5
1F8
330
2
100
AcDbEntity
  8
DIM
100
AcDbLine
 10
322.6962463945499
 20
276.0041823705188
 30
0.0
 11
299.6962463945499
 21
276.0041823705188
 31
0.0
  0
TEXT
  5
1F9
330
2
100
AcDbEntity
  8
DIM
100
AcDbText
 10
299.6962463945499
 20
276.5041823705189
 30
0.0
 40
2.5
  1
0.1050
  7
SIMPLEX
100
AcDbText
  0
LINE
  5
1FA
330
2
100
AcDbEntity
  8
DIM
100
AcDbLine
 10
357.4874744090714
 20
290.004184020208
 30
0.0
 11
327.6962463945559
 21
290.004184020208
 31
0.0
  0
LINE
  5
1FB
330
2
100
AcDbEntity
  8
COIN-LINE
100
AcDbLine
 10
327.6962463945559
 20
290.004184020208
 30
0.0
 11
322.6962463945558
 21
290.004184020208
 31
0.0
  0
LINE
  5
1FC
330
2
100
AcDbEntity
  8
DIM
100
AcDbLine
 10
322.6962463945558
 20
290.004184020208
 30
0.0
 11
299.6962463945558
 21
290.004184020208
 31
0.0
  0
TEXT
  5
1FD
330
2
100
AcDbEntity
  8
DIM
100
AcDbText
 10
299.6962463945558
 20
290.504184020208
 30
0.0
 40
2.5
  1
0.1370
  7
SIMPLEX
100
AcDbText
  0
LINE
  5
1FE
330
2
100
AcDbEntity
  8
DIM
100
AcDbLine
 10
346.2962463945634
 20
299.8041840201917
 30
0.0
 11
344.9962463945776
 21
299.8041840201917
 31
0.0
  0
LINE
  5
1FF
330
2
100
AcDbEntity
  8
COIN-LINE
100
AcDbLine
 10
327.6962463945559
 20
299.8041840201917
 30
0.0
 11
322.6962463945558
 21
301.8688268401372
 31
0.0
  0
LINE
  5
200
330
2
100
AcDbEntity
  8
DIM
100
AcDbLine
 10
322.6962463945558
 20
301.8688268401372
 30
0.0
 11
299.6962463945558
 21
301.8688268401372
 31
0.0
  0
TEXT
  5
201
330
2
100
AcDbEntity
  8
DIM
100
AcDbText
 10
299.6962463945558
 20
302.3688268401372
 30
0.0
 40
2.5
  1
0.1650
  7
SIMPLEX
100
AcDbText
  0
LINE
  5
202
330
2
100
AcDbEntity
  8
DIM
100
AcDbLine
 10
371.4962463945992
 20
304.7041840201986
 30
0.0
 11
327.6962463945559
 21
304.7041840201986
 31
0.0
  0
LINE
  5
203
330
2
100
AcDbEntity
  8
COIN-LINE
100
AcDbLine
 10
327.6962463945559
 20
304.7041840201986
 30
0.0
 11
322.6962463945558
 21
305.3688268401371
 31
0.0
  0
LINE
  5
204
330
2
100
AcDbEntity
  8
DIM
100
AcDbLine
 10
322.6962463945558
 20
305.3688268401371
 30
0.0
 11
299.6962463945558
 21
305.3688268401371
 31
0.0
  0
TEXT
  5
205
330
2
100
AcDbEntity
  8
DIM
100
AcDbText
 10
299.6962463945558
 20
305.8688268401372
 30
0.0
 40
2.5
  1
0.1790
  7
SIMPLEX
100
AcDbText
  0
LINE
  5
206
330
2
100
AcDbEntity
  8
DIM
100
AcDbLine
 10
366.7712463945467
 20
284.7541840201823
 30
0.0
 11
327.6962463945559
 21
284.7541840201823
 31
0.0
  0
LINE
  5
207
330
2
100
AcDbEntity
  8
COIN-LINE
100
AcDbLine
 10
327.6962463945559
 20
284.7541840201823
 30
0.0
 11
322.6962463945499
 21
279.5041823705188
 31
0.0
  0
LINE
  5
208
330
2
100
AcDbEntity
  8
DIM
100
AcDbLine
 10
322.6962463945499
 20
279.5041823705188
 30
0.0
 11
299.6962463945499
 21
279.5041823705188
 31
0.0
  0
TEXT
  5
209
330
2
100
AcDbEntity
  8
DIM
100
AcDbText
 10
299.6962463945499
 20
280.0041823705188
 30
0.0
 40
2.5
  1
0.1220
  7
SIMPLEX
100
AcDbText
  0
LINE
  5
20A
330
2
100
AcDbEntity
  8
DIM
100
AcDbLine
 10
355.2212463945587
 20
285.4541840201962
 30
0.0
 11
327.6962463945559
 21
285.4541840201962
 31
0.0
  0
LINE
  5
20B
330
2
100
AcDbEntity
  8
COIN-LINE
100
AcDbLine
 10
327.6962463945559
 20
285.4541840201962
 30
0.0
 11
322.6962463945499
 21
283.0041823705188
 31
0.0
  0
LINE
  5
20C
330
2
100
AcDbEntity
  8
DIM
100
AcDbLine
 10
322.6962463945499
 20
283.0041823705188
 30
0.0
 11
299.6962463945499
 21
283.0041823705188
 31
0.0
  0
TEXT
  5
20D
330
2
100
AcDbEntity
  8
DIM
100
AcDbText
 10
299.6962463945499
 20
283.5041823705188
 30
0.0
 40
2.5
  1
0.1240
  7
SIMPLEX
100
AcDbText
  0
LINE
  5
20E
330
2
100
AcDbEntity
  8
DIM
100
AcDbLine
 10
351.671246394537
 20
210.6041840201283
 30
0.0
 11
351.671246394537
 21
159.1041840201862
 31
0.0
  0
LINE
  5
20F
330
2
100
AcDbEntity
  8
COIN-LINE
100
AcDbLine
 10
351.671246394537
 20
159.1041840201862
 30
0.0
 11
351.671246394537
 21
154.1041840201861
 31
0.0
  0
LINE
  5
210
330
2
100
AcDbEntity
  8
DIM
100
AcDbLine
 10
351.671246394537
 20
154.1041840201861
 30
0.0
 11
351.671246394537
 21
131.1041840201861
 31
0.0
  0
TEXT
  5
211
330
2
100
AcDbEntity
  8
DIM
100
AcDbText
 10
351.171246394537
 20
131.1041840201861
 30
0.0
 40
2.5
  1
0.1365
 50
90.0
  7
SIMPLEX
100
AcDbText
  0
LINE
  5
212
330
2
100
AcDbEntity
  8
DIM
100
AcDbLine
 10
358.5462463945646
 20
185.3541840201873
 30
0.0
 11
327.6962463945559
 21
185.3541840201873
 31
0.0
  0
LINE
  5
213
330
2
100
AcDbEntity
  8
COIN-LINE
100
AcDbLine
 10
327.6962463945559
 20
185.3541840201873
 30
0.0
 11
322.6962463945616
 21
183.2542207486272
 31
0.0
  0
LINE
  5
214
330
2
100
AcDbEntity
  8
DIM
100
AcDbLine
 10
322.6962463945616
 20
183.2542207486272
 30
0.0
 11
299.6962463945616
 21
183.2542207486272
 31
0.0
  0
TEXT
  5
215
330
2
100
AcDbEntity
  8
DIM
100
AcDbText
 10
299.6962463945616
 20
183.7542207486272
 30
0.0
 40
2.5
  1
0.1620
  7
SIMPLEX
100
AcDbText
  0
LINE
  5
216
330
2
100
AcDbEntity
  8
DIM
100
AcDbLine
 10
359.5462463945647
 20
184.3541840201872
 30
0.0
 11
359.5462463945647
 21
159.1041840201862
 31
0.0
  0
LINE
  5
217
330
2
100
AcDbEntity
  8
COIN-LINE
100
AcDbLine
 10
359.5462463945647
 20
159.1041840201862
 30
0.0
 11
359.5462463945647
 21
154.1041840201861
 31
0.0
  0
LINE
  5
218
330
2
100
AcDbEntity
  8
DIM
100
AcDbLine
 10
359.5462463945647
 20
154.1041840201861
 30
0.0
 11
359.5462463945647
 21
131.1041840201861
 31
0.0
  0
TEXT
  5
219
330
2
100
AcDbEntity
  8
DIM
100
AcDbText
 10
359.0462463945647
 20
131.1041840201861
 30
0.0
 40
2.5
  1
0.1140
 50
90.0
  7
SIMPLEX
100
AcDbText
  0
LINE
  5
21A
330
2
100
AcDbEntity
  8
DIM
100
AcDbLine
 10
356.2212463945912
 20
194.8541840201662
 30
0.0
 11
356.2212463945912
 21
159.1041840201862
 31
0.0
  0
LINE
  5
21B
330
2
100
AcDbEntity
  8
COIN-LINE
100
AcDbLine
 10
356.2212463945912
 20
159.1041840201862
 30
0.0
 11
356.0462463945647
 21
154.1041840201861
 31
0.0
  0
LINE
  5
21C
330
2
100
AcDbEntity
  8
DIM
100
AcDbLine
 10
356.0462463945647
 20
154.1041840201861
 30
0.0
 11
356.0462463945647
 21
131.1041840201861
 31
0.0
  0
TEXT
  5
21D
330
2
100
AcDbEntity
  8
DIM
100
AcDbText
 10
355.5462463945647
 20
131.1041840201861
 30
0.0
 40
2.5
  1
0.1235
 50
90.0
  7
SIMPLEX
100
AcDbText
  0
LINE
  5
21E
330
2
100
AcDbEntity
  8
DIM
100
AcDbLine
 10
359.7212463945705
 20
214.8041840200924
 30
0.0
 11
359.7212463945705
 21
159.1041840201862
 31
0.0
  0
LINE
  5
21F
330
2
100
AcDbEntity
  8
COIN-LINE
100
AcDbLine
 10
359.7212463945705
 20
159.1041840201862
 30
0.0
 11
363.0462463945647
 21
154.1041840201861
 31
0.0
  0
LINE
  5
220
330
2
100
AcDbEntity
  8
DIM
100
AcDbLine
 10
363.0462463945647
 20
154.1041840201861
 30
0.0
 11
363.0462463945647
 21
131.1041840201861
 31
0.0
  0
TEXT
  5
221
330
2
100
AcDbEntity
  8
DIM
100
AcDbText
 10
362.5462463945646
 20
131.1041840201861
 30
0.0
 40
2.5
  1
0.1135
 50
90.0
  7
SIMPLEX
100
AcDbText
  0
LINE
  5
222
330
2
100
AcDbEntity
  8
DIM
100
AcDbLine
 10
349.3962463945684
 20
281.3776703553758
 30
0.0
 11
349.3962463945684
 21
340.0541840201477
 31
0.0
  0
LINE
  5
223
330
2
100
AcDbEntity
  8
COIN-LINE
100
AcDbLine
 10
349.3962463945684
 20
340.0541840201477
 30
0.0
 11
349.7462463945969
 21
345.0541840201477
 31
0.0
  0
LINE
  5
224
330
2
100
AcDbEntity
  8
DIM
100
AcDbLine
 10
349.7462463945969
 20
345.0541840201477
 30
0.0
 11
349.7462463945969
 21
368.0541840201477
 31
0.0
  0
TEXT
  5
225
330
2
100
AcDbEntity
  8
DIM
100
AcDbText
 10
349.2462463945969
 20
356.1494221153858
 30
0.0
 40
2.5
  1
0.1430
 50
90.0
  7
SIMPLEX
 72
     2
 11
349.2462463945969
 21
368.0541840201477
 31
0.0
100
AcDbText
  0
LINE
  5
226
330
2
100
AcDbEntity
  8
DIM
100
AcDbLine
 10
390.6962463945625
 20
303.9541840202005
 30
0.0
 11
390.6962463945625
 21
340.0541840201477
 31
0.0
  0
LINE
  5
227
330
2
100
AcDbEntity
  8
COIN-LINE
100
AcDbLine
 10
390.6962463945625
 20
340.0541840201477
 30
0.0
 11
390.6962463945625
 21
345.0541840201437
 31
0.0
  0
LINE
  5
228
330
2
100
AcDbEntity
  8
DIM
100
AcDbLine
 10
390.6962463945625
 20
345.0541840201437
 30
0.0
 11
390.6962463945625
 21
368.0541840201437
 31
0.0
  0
TEXT
  5
229
330
2
100
AcDbEntity
  8
DIM
100
AcDbText
 10
390.1962463945626
 20
355.6732316391913
 30
0.0
 40
2.5
  1
0.0250
 50
90.0
  7
SIMPLEX
 72
     2
 11
390.1962463945626
 21
368.0541840201437
 31
0.0
100
AcDbText
  0
LINE
  5
22A
330
2
100
AcDbEntity
  8
DIM
100
AcDbLine
 10
346.2962463945583
 20
197.6041840201446
 30
0.0
 11
327.6962463945559
 21
197.6041840201446
 31
0.0
  0
LINE
  5
22B
330
2
100
AcDbEntity
  8
COIN-LINE
100
AcDbLine
 10
327.6962463945559
 20
197.6041840201446
 30
0.0
 11
322.6962463945558
 21
197.6041840201446
 31
0.0
  0
LINE
  5
22C
330
2
100
AcDbEntity
  8
DIM
100
AcDbLine
 10
322.6962463945558
 20
197.6041840201446
 30
0.0
 11
299.6962463945558
 21
197.6041840201446
 31
0.0
  0
TEXT
  5
22D
330
2
100
AcDbEntity
  8
DIM
100
AcDbText
 10
299.6962463945558
 20
198.1041840201448
 30
0.0
 40
2.5
  1
0.1270
  7
SIMPLEX
100
AcDbText
  0
LINE
  5
22E
330
2
100
AcDbEntity
  8
DIM
100
AcDbLine
 10
354.1212463945561
 20
302.3776703553965
 30
0.0
 11
354.1212463945561
 21
340.0541840201477
 31
0.0
  0
LINE
  5
22F
330
2
100
AcDbEntity
  8
COIN-LINE
100
AcDbLine
 10
354.1212463945561
 20
340.0541840201477
 30
0.0
 11
353.2462463945969
 21
345.0541840201477
 31
0.0
  0
LINE
  5
230
330
2
100
AcDbEntity
  8
DIM
100
AcDbLine
 10
353.2462463945969
 20
345.0541840201477
 30
0.0
 11
353.2462463945969
 21
368.0541840201477
 31
0.0
  0
TEXT
  5
231
330
2
100
AcDbEntity
  8
DIM
100
AcDbText
 10
352.7462463945969
 20
356.1494221153858
 30
0.0
 40
2.5
  1
0.1295
 50
90.0
  7
SIMPLEX
 72
     2
 11
352.7462463945969
 21
368.0541840201477
 31
0.0
100
AcDbText
  0
LINE
  5
232
330
2
100
AcDbEntity
  8
DIM
100
AcDbLine
 10
356.7462463941384
 20
292.5791840201788
 30
0.0
 11
356.7462463941384
 21
340.0541840201477
 31
0.0
  0
LINE
  5
233
330
2
100
AcDbEntity
  8
COIN-LINE
100
AcDbLine
 10
356.7462463941384
 20
340.0541840201477
 30
0.0
 11
360.2462463945969
 21
345.0541840201477
 31
0.0
  0
LINE
  5
234
330
2
100
AcDbEntity
  8
DIM
100
AcDbLine
 10
360.2462463945969
 20
345.0541840201477
 30
0.0
 11
360.2462463945969
 21
368.0541840201477
 31
0.0
  0
TEXT
  5
235
330
2
100
AcDbEntity
  8
DIM
100
AcDbText
 10
359.7462463945969
 20
356.1494221153858
 30
0.0
 40
2.5
  1
0.1220
 50
90.0
  7
SIMPLEX
 72
     2
 11
359.7462463945969
 21
368.0541840201477
 31
0.0
100
AcDbText
  0
TEXT
  5
236
330
2
100
AcDbEntity
  8
DIM
100
AcDbText
 10
359.0462463945647
 20
143.2443615209789
 30
0.0
 40
1.8
  1
COIN LINE
 50
90.0
  7
SIMPLEX
100
AcDbText
  0
TEXT
  5
237
330
2
100
AcDbEntity
  8
DIM
100
AcDbText
 10
312.1994368994155
 20
183.7542207486272
 30
0.0
 40
1.8
  1
COIN LINE
  7
SIMPLEX
100
AcDbText
  0
TEXT
  5
238
330
2
100
AcDbEntity
  8
DIM
100
AcDbText
 10
312.7385345813298
 20
213.1541840201187
 30
0.0
 40
1.8
  1
COIN LINE
  7
SIMPLEX
100
AcDbText
  0
LINE
  5
239
330
2
100
AcDbEntity
  8
DIM
100
AcDbLine
 10
347.2962463945634
 20
300.8041840201916
 30
0.0
 11
347.2962463945634
 21
340.0541840201477
 31
0.0
  0
LINE
  5
23A
330
2
100
AcDbEntity
  8
COIN-LINE
100
AcDbLine
 10
347.2962463945634
 20
340.0541840201477
 30
0.0
 11
346.2462463945969
 21
345.0541840201477
 31
0.0
  0
LINE
  5
23B
330
2
100
AcDbEntity
  8
DIM
100
AcDbLine
 10
346.2462463945969
 20
345.0541840201477
 30
0.0
 11
346.2462463945969
 21
368.0541840201477
 31
0.0
  0
TEXT
  5
23C
330
2
100
AcDbEntity
  8
DIM
100
AcDbText
 10
345.7462463945969
 20
356.1494221153858
 30
0.0
 40
2.5
  1
0.1490
 50
90.0
  7
SIMPLEX
 72
     2
 11
345.7462463945969
 21
368.0541840201477
 31
0.0
100
AcDbText
  0
LINE
  5
23D
330
2
100
AcDbEntity
  8
DIM
100
AcDbLine
 10
381.5962463945879
 20
300.8041840201916
 30
0.0
 11
381.5962463945879
 21
340.0541840201477
 31
0.0
  0
LINE
  5
23E
330
2
100
AcDbEntity
  8
COIN-LINE
100
AcDbLine
 10
381.5962463945879
 20
340.0541840201477
 30
0.0
 11
381.5962463945879
 21
345.0541840201477
 31
0.0
  0
LINE
  5
23F
330
2
100
AcDbEntity
  8
DIM
100
AcDbLine
 10
381.5962463945879
 20
345.0541840201477
 30
0.0
 11
381.5962463945879
 21
368.0541840201477
 31
0.0
  0
TEXT
  5
240
330
2
100
AcDbEntity
  8
DIM
100
AcDbText
 10
381.0962463945879
 20
356.1494221153858
 30
0.0
 40
2.5
  1
0.0510
 50
90.0
  7
SIMPLEX
 72
     2
 11
381.0962463945879
 21
368.0541840201477
 31
0.0
100
AcDbText
  0
TEXT
  5
241
330
2
100
AcDbEntity
  8
DIM
100
AcDbText
 10
312.3209129622415
 20
302.3688268401372
 30
0.0
 40
1.8
  1
COIN LINE
  7
SIMPLEX
100
AcDbText
  0
TEXT
  5
242
330
2
100
AcDbEntity
  8
DIM
100
AcDbText
 10
345.6776968028456
 20
342.3518980709001
 30
0.0
 40
1.8
  1
COIN LINE
 50
90.0
  7
SIMPLEX
 72
     2
 11
345.6776968028456
 21
355.3804694994715
 31
0.0
100
AcDbText
  0
TEXT
  5
243
330
2
100
AcDbEntity
  8
DIM
100
AcDbText
 10
381.1444408536997
 20
342.4643826123747
 30
0.0
 40
1.8
  1
COIN LINE
 50
90.0
  7
SIMPLEX
 72
     2
 11
381.1444408536997
 21
355.4929540409461
 31
0.0
100
AcDbText
  0
LINE
  5
244
330
2
100
AcDbEntity
  8
DIM
100
AcDbLine
 10
364.9712463946077
 20
210.6041840201339
 30
0.0
 11
364.9712463949092
 21
202.9791840202816
 31
0.0
  0
TEXT
  5
245
330
2
100
AcDbEntity
  8
DIM
100
AcDbText
 10
432.6677424957104
 20
144.5196379517397
 30
0.0
 40
1.8
  1
%%p0.003
 50
90.0
  7
SIMPLEX
100
AcDbText
  0
LINE
  5
246
330
2
100
AcDbEntity
  8
DIM
100
AcDbLine
 10
457.1962463945643
 20
332.3041840201676
 30
0.0
 11
457.1962463945643
 21
340.0541840201595
 31
0.0
  0
LINE
  5
247
330
2
100
AcDbEntity
  8
COIN-LINE
100
AcDbLine
 10
457.1962463945643
 20
340.0541840201595
 30
0.0
 11
457.1962463945643
 21
345.0541840201595
 31
0.0
  0
LINE
  5
248
330
2
100
AcDbEntity
  8
DIM
100
AcDbLine
 10
457.1962463945643
 20
345.0541840201595
 30
0.0
 11
457.1962463945643
 21
368.0541840201595
 31
0.0
  0
TEXT
  5
249
330
2
100
AcDbEntity
  8
DIM
100
AcDbText
 10
456.6962463945643
 20
356.1494221153976
 30
0.0
 40
2.5
  1
0.1650
 50
90.0
  7
SIMPLEX
 72
     2
 11
456.6962463945643
 21
368.0541840201595
 31
0.0
100
AcDbText
  0
LINE
  5
24A
330
2
100
AcDbEntity
  8
DIM
100
AcDbLine
 10
464.19624639457
 20
332.3041840201322
 30
0.0
 11
464.19624639457
 21
340.0541840201595
 31
0.0
  0
LINE
  5
24B
330
2
100
AcDbEntity
  8
COIN-LINE
100
AcDbLine
 10
464.19624639457
 20
340.0541840201595
 30
0.0
 11
464.19624639457
 21
345.0541840201595
 31
0.0
  0
LINE
  5
24C
330
2
100
AcDbEntity
  8
DIM
100
AcDbLine
 10
464.19624639457
 20
345.0541840201595
 30
0.0
 11
464.19624639457
 21
368.0541840201595
 31
0.0
  0
TEXT
  5
24D
330
2
100
AcDbEntity
  8
DIM
100
AcDbText
 10
463.69624639457
 20
356.1494221153976
 30
0.0
 40
2.5
  1
0.1850
 50
90.0
  7
SIMPLEX
 72
     2
 11
463.69624639457
 21
368.0541840201595
 31
0.0
100
AcDbText
  0
LINE
  5
24E
330
2
100
AcDbEntity
  8
DIM
100
AcDbLine
 10
433.871246394763
 20
283.0041840201527
 30
0.0
 11
471.1962463945743
 21
283.0041840201527
 31
0.0
  0
LINE
  5
24F
330
2
100
AcDbEntity
  8
COIN-LINE
100
AcDbLine
 10
471.1962463945743
 20
283.0041840201527
 30
0.0
 11
476.1962463945743
 21
283.0041840201527
 31
0.0
  0
LINE
  5
250
330
2
100
AcDbEntity
  8
DIM
100
AcDbLine
 10
476.1962463945743
 20
283.0041840201527
 30
0.0
 11
499.1962463945744
 21
283.0041840201527
 31
0.0
  0
TEXT
  5
251
330
2
100
AcDbEntity
  8
DIM
100
AcDbText
 10
487.7676749660029
 20
283.5041840201528
 30
0.0
 40
2.5
  1
0.1170
  7
SIMPLEX
 72
     2
 11
499.1962463945744
 21
283.5041840201528
 31
0.0
100
AcDbText
  0
LINE
  5
252
330
2
100
AcDbEntity
  8
DIM
100
AcDbLine
 10
345.5962469155346
 20
293.1541823704399
 30
0.0
 11
327.6962463945616
 21
293.1541823704399
 31
0.0
  0
LWPOLYLINE
  5
253
330
2
100
AcDbEntity
  8
DIM
100
AcDbPolyline
 90
        3
 70
     0
 43
0.0
 10
347.8787991829406
 20
293.1541840201922
 10
346.5962469155347
 20
293.1541823704399
 10
346.2100295189479
 20
294.3772041263084
  0
LINE
  5
254
330
2
100
AcDbEntity
  8
DIM
100
AcDbLine
 10
346.5962469155347
 20
294.1541823704398
 30
0.0
 11
346.5962469155347
 21
340.0541840201595
 31
0.0
  0
LINE
  5
255
330
2
100
AcDbEntity
  8
COIN-LINE
100
AcDbLine
 10
346.5962469155347
 20
340.0541840201595
 30
0.0
 11
342.7462463945969
 21
345.0541840201477
 31
0.0
  0
LINE
  5
256
330
2
100
AcDbEntity
  8
DIM
100
AcDbLine
 10
342.7462463945969
 20
345.0541840201477
 30
0.0
 11
342.7462463945969
 21
368.0541840201477
 31
0.0
  0
TEXT
  5
257
330
2
100
AcDbEntity
  8
DIM
100
AcDbText
 10
342.2462463945969
 20
356.6256125915763
 30
0.0
 40
2.5
  1
0.1510
 50
90.0
  7
SIMPLEX
 72
     2
 11
342.2462463945969
 21
368.0541840201477
 31
0.0
100
AcDbText
  0
LWPOLYLINE
  5
258
330
2
100
AcDbEntity
  8
DIM
100
AcDbPolyline
 90
        3
 70
     0
 43
0.0
 10
344.8052198950601
 20
298.8257679353223
 10
344.4962463945776
 20
299.8041840201917
 10
343.4702041638739
 20
299.804184020215
  0
LINE
  5
259
330
2
100
AcDbEntity
  8
DIM
100
AcDbLine
 10
344.4962463945776
 20
300.8041840201916
 30
0.0
 11
344.4962463945776
 21
340.0541840201595
 31
0.0
  0
LINE
  5
25A
330
2
100
AcDbEntity
  8
COIN-LINE
100
AcDbLine
 10
344.4962463945776
 20
340.0541840201595
 30
0.0
 11
339.2462463945969
 21
345.0541840201477
 31
0.0
  0
LINE
  5
25B
330
2
100
AcDbEntity
  8
DIM
100
AcDbLine
 10
339.2462463945969
 20
345.0541840201477
 30
0.0
 11
339.2462463945969
 21
368.0541840201477
 31
0.0
  0
TEXT
  5
25C
330
2
100
AcDbEntity
  8
DIM
100
AcDbText
 10
338.7462463945969
 20
356.1494221153858
 30
0.0
 40
2.5
  1
0.1570
 50
90.0
  7
SIMPLEX
 72
     2
 11
338.7462463945969
 21
368.0541840201477
 31
0.0
100
AcDbText
  0
LINE
  5
25D
330
2
100
AcDbEntity
  8
DIM
100
AcDbLine
 10
335.4462463945662
 20
299.8041840202112
 30
0.0
 11
327.6962463945559
 21
299.8041840201917
 31
0.0
  0
LWPOLYLINE
  5
25E
330
2
100
AcDbEntity
  8
DIM
100
AcDbPolyline
 90
        3
 70
     0
 43
0.0
 10
343.8324632701547
 20
234.5272041262431
 10
343.4462463945463
 20
233.3041840201561
 10
342.1636936061694
 20
233.3041840201343
  0
LINE
  5
25F
330
2
100
AcDbEntity
  8
DIM
100
AcDbLine
 10
327.6962463945559
 20
233.3041840201561
 30
0.0
 11
335.4462463945513
 21
233.3041840201368
 31
0.0
  0
LINE
  5
260
330
2
100
AcDbEntity
  8
DIM
100
AcDbLine
 10
343.4462463945463
 20
232.3041840201561
 30
0.0
 11
343.4462463945463
 21
159.1041840201736
 31
0.0
  0
LINE
  5
261
330
2
100
AcDbEntity
  8
COIN-LINE
100
AcDbLine
 10
343.4462463945463
 20
159.1041840201736
 30
0.0
 11
340.2962463945758
 21
154.1041840201861
 31
0.0
  0
LINE
  5
262
330
2
100
AcDbEntity
  8
DIM
100
AcDbLine
 10
340.2962463945758
 20
154.1041840201861
 30
0.0
 11
340.2962463945758
 21
131.1041840201861
 31
0.0
  0
TEXT
  5
263
330
2
100
AcDbEntity
  8
DIM
100
AcDbText
 10
339.7962463945758
 20
131.1041840201861
 30
0.0
 40
2.5
  1
0.1600
 50
90.0
  7
SIMPLEX
100
AcDbText
  0
LINE
  5
264
330
2
100
AcDbEntity
  8
DIM
100
AcDbLine
 10
461.6962463945563
 20
172.0541840201514
 30
0.0
 11
471.1962463945656
 21
172.0541840201514
 31
0.0
  0
LINE
  5
265
330
2
100
AcDbEntity
  8
COIN-LINE
100
AcDbLine
 10
471.1962463945656
 20
172.0541840201514
 30
0.0
 11
476.1962463945656
 21
172.0541840201514
 31
0.0
  0
LINE
  5
266
330
2
100
AcDbEntity
  8
DIM
100
AcDbLine
 10
476.1962463945656
 20
172.0541840201514
 30
0.0
 11
499.1962463945657
 21
172.0541840201514
 31
0.0
  0
TEXT
  5
267
330
2
100
AcDbEntity
  8
DIM
100
AcDbText
 10
486.8212463945656
 20
172.5541840201515
 30
0.0
 40
2.5
  1
0.2000
  7
SIMPLEX
100
AcDbText
  0
TEXT
  5
268
330
2
100
AcDbEntity
  8
DIM
100
AcDbText
 10
472.0792743649656
 20
172.5541840201515
 30
0.0
 40
1.8
  1
PKG.(REF.)
  7
SIMPLEX
100
AcDbText
  0
LINE
  5
269
330
2
100
AcDbEntity
  8
DIM
100
AcDbLine
 10
463.4462463945659
 20
166.1041840201666
 30
0.0
 11
471.1962463945656
 21
166.1041840201666
 31
0.0
  0
LINE
  5
26A
330
2
100
AcDbEntity
  8
COIN-LINE
100
AcDbLine
 10
471.1962463945656
 20
166.1041840201666
 30
0.0
 11
476.1962463945656
 21
166.1041840201666
 31
0.0
  0
LINE
  5
26B
330
2
100
AcDbEntity
  8
DIM
100
AcDbLine
 10
476.1962463945656
 20
166.1041840201666
 30
0.0
 11
499.1962463945657
 21
166.1041840201666
 31
0.0
  0
TEXT
  5
26C
330
2
100
AcDbEntity
  8
DIM
100
AcDbText
 10
487.2962463945657
 20
166.6041840201665
 30
0.0
 40
2.5
  1
0.2170
  7
SIMPLEX
100
AcDbText
  0
MTEXT
  5
26D
330
2
100
AcDbEntity
  8
DIM
100
AcDbMText
 10
381.576614239325
 20
261.4102454465021
 30
0.0
 40
2.5
 41
0.0
 46
0.0
 71
     5
 72
     1
  1
0.0225
  7
SIMPLEX
 73
     1
 44
1.0
  0
SOLID
  5
26E
330
2
100
AcDbEntity
  8
DIM
100
AcDbTrace
 10
347.2962463945634
 20
259.3102454465021
 30
0.0
 11
344.2962463945633
 21
259.8102454465021
 31
0.0
 12
344.2962463945633
 22
258.810245446502
 32
0.0
 13
344.2962463945633
 23
258.810245446502
 33
0.0
  0
SOLID
  5
26F
330
2
100
AcDbEntity
  8
DIM
100
AcDbTrace
 10
356.2212463945662
 20
259.3102454465021
 30
0.0
 11
359.2212463945661
 21
259.8102454465021
 31
0.0
 12
359.2212463945661
 22
258.810245446502
 32
0.0
 13
359.2212463945661
 23
258.810245446502
 33
0.0
  0
LINE
  5
270
330
2
100
AcDbEntity
  8
DIM
100
AcDbLine
 10
359.2212463945661
 20
259.3102454465021
 30
0.0
 11
389.8410783937046
 21
259.3102454465021
 31
0.0
  0
LINE
  5
271
330
2
100
AcDbEntity
  8
DIM
100
AcDbLine
 10
356.2212463945662
 20
259.3102454465021
 30
0.0
 11
347.2962463945634
 21
259.3102454465021
 31
0.0
  0
MTEXT
  5
272
330
2
100
AcDbEntity
  8
DIM
100
AcDbMText
 10
382.6080278420658
 20
257.7047977960581
 30
0.0
 40
1.800000000000068
 41
0.0
 46
0.0
 71
     5
 72
     1
  1
MIN COIN LENGTH
  7
SIMPLEX
 73
     1
 44
1.0
  0
LINE
  5
273
330
2
100
AcDbEntity
  8
DIM
100
AcDbLine
 10
344.2962463945633
 20
259.3102454465021
 30
0.0
 11
341.2962463945634
 21
259.3102454465021
 31
0.0
  0
LINE
  5
274
330
2
100
AcDbEntity
  8
DIM
100
AcDbLine
 10
352.7066035745843
 20
212.6541840201187
 30
0.0
 11
377.1589027493257
 21
212.6541840201187
 31
0.0
  0
LINE
  5
275
330
2
100
AcDbEntity
  8
DIM
100
AcDbLine
 10
360.7212463945655
 20
222.1041840201191
 30
0.0
 11
377.1589027493257
 21
222.1041840201191
 31
0.0
  0
LINE
  5
276
330
2
100
AcDbEntity
  8
DIM
100
AcDbLine
 10
376.1589027493257
 20
209.6541840201187
 30
0.0
 11
376.1589027493257
 21
206.6541840201187
 31
0.0
  0
SOLID
  5
277
330
2
100
AcDbEntity
  8
DIM
100
AcDbTrace
 10
376.1589027493257
 20
212.6541840201187
 30
0.0
 11
376.6589027493258
 21
209.6541840201187
 31
0.0
 12
375.6589027493256
 22
209.6541840201187
 32
0.0
 13
375.6589027493256
 23
209.6541840201187
 33
0.0
  0
LINE
  5
278
330
2
100
AcDbEntity
  8
DIM
100
AcDbLine
 10
376.1589027493257
 20
225.1041840201191
 30
0.0
 11
376.1589027493257
 21
246.3186501884048
 31
0.0
  0
SOLID
  5
279
330
2
100
AcDbEntity
  8
DIM
100
AcDbTrace
 10
376.1589027493257
 20
222.1041840201191
 30
0.0
 11
376.6589027493258
 21
225.1041840201191
 31
0.0
 12
375.6589027493256
 22
225.1041840201191
 32
0.0
 13
375.6589027493256
 23
225.1041840201191
 33
0.0
  0
MTEXT
  5
27A
330
2
100
AcDbEntity
  8
DIM
100
AcDbMText
 10
374.0589027493257
 20
237.9048073517102
 30
0.0
 40
2.5
 41
0.0
 46
0.0
 71
     5
 72
     1
  1
0.0240
  7
SIMPLEX
 11
0.0
 21
1.0
 31
0.0
 73
     1
 44
1.0
  0
LINE
  5
27B
330
2
100
AcDbEntity
  8
DIM
100
AcDbLine
 10
376.1589027493257
 20
212.6541840201187
 30
0.0
 11
376.1589027493257
 21
222.1041840201191
 31
0.0
  0
MTEXT
  5
27C
330
2
100
AcDbEntity
  8
DIM
100
AcDbMText
 10
378.0439242760278
 20
236.9731146278243
 30
0.0
 40
1.799999999999996
 41
0.0
 46
0.0
 71
     5
 72
     1
  1
MIN COIN LENGTH
  7
SIMPLEX
 11
0.0
 21
1.0
 31
0.0
 73
     1
 44
1.0
  0
LINE
  5
27D
330
2
100
AcDbEntity
  8
DIM
100
AcDbLine
 10
359.5462463945647
 20
184.3541840201872
 30
0.0
 11
359.5462463945647
 21
179.2408392246976
 31
0.0
  0
LINE
  5
27E
330
2
100
AcDbEntity
  8
DIM
100
AcDbLine
 10
387.1962463945799
 20
187.5041840201809
 30
0.0
 11
387.1962463945799
 21
179.2408392246976
 31
0.0
  0
LINE
  5
27F
330
2
100
AcDbEntity
  8
DIM
100
AcDbLine
 10
362.5462463945646
 20
180.2408392246976
 30
0.0
 11
384.1962463945799
 21
180.2408392246976
 31
0.0
  0
SOLID
  5
280
330
2
100
AcDbEntity
  8
DIM
100
AcDbTrace
 10
359.5462463945647
 20
180.2408392246976
 30
0.0
 11
362.5462463945646
 21
179.7408392246975
 31
0.0
 12
362.5462463945646
 22
180.7408392246976
 32
0.0
 13
362.5462463945646
 23
180.7408392246976
 33
0.0
  0
SOLID
  5
281
330
2
100
AcDbEntity
  8
DIM
100
AcDbTrace
 10
387.1962463945799
 20
180.2408392246976
 30
0.0
 11
384.1962463945799
 21
179.7408392246975
 31
0.0
 12
384.1962463945799
 22
180.7408392246976
 32
0.0
 13
384.1962463945799
 23
180.7408392246976
 33
0.0
  0
MTEXT
  5
282
330
2
100
AcDbEntity
  8
DIM
100
AcDbMText
 10
373.3712463945722
 20
182.3408392246976
 30
0.0
 40
2.5
 41
0.0
 46
0.0
 71
     5
 72
     1
  1
0.0760
  7
SIMPLEX
 73
     1
 44
1.0
  0
MTEXT
  5
283
330
2
100
AcDbEntity
  8
DIM
100
AcDbMText
 10
373.5671865065341
 20
178.0791417895266
 30
0.0
 40
1.800000000000011
 41
0.0
 46
0.0
 71
     5
 72
     1
  1
MIN COIN LENGTH
  7
SIMPLEX
 73
     1
 44
1.0
  0
LINE
  5
284
330
2
100
AcDbEntity
  8
DIM
100
AcDbLine
 10
394.8962463945569
 20
198.6041840201606
 30
0.0
 11
394.8962463945569
 21
205.5729837782039
 31
0.0
  0
LINE
  5
285
330
2
100
AcDbEntity
  8
DIM
100
AcDbLine
 10
395.9462463945594
 20
195.9791840201894
 30
0.0
 11
395.9462463945594
 21
205.5729837782039
 31
0.0
  0
LINE
  5
286
330
2
100
AcDbEntity
  8
DIM
100
AcDbLine
 10
391.8962463945569
 20
204.5729837782039
 30
0.0
 11
388.8962463945569
 21
204.5729837782039
 31
0.0
  0
SOLID
  5
287
330
2
100
AcDbEntity
  8
DIM
100
AcDbTrace
 10
394.8962463945569
 20
204.5729837782039
 30
0.0
 11
391.8962463945569
 21
204.0729837782038
 31
0.0
 12
391.8962463945569
 22
205.072983778204
 32
0.0
 13
391.8962463945569
 23
205.072983778204
 33
0.0
  0
LINE
  5
288
330
2
100
AcDbEntity
  8
DIM
100
AcDbLine
 10
398.9462463945594
 20
204.5729837782039
 30
0.0
 11
412.7337532366976
 21
204.5729837782039
 31
0.0
  0
SOLID
  5
289
330
2
100
AcDbEntity
  8
DIM
100
AcDbTrace
 10
395.9462463945594
 20
204.5729837782039
 30
0.0
 11
398.9462463945594
 21
204.0729837782038
 31
0.0
 12
398.9462463945594
 22
205.072983778204
 32
0.0
 13
398.9462463945594
 23
205.072983778204
 33
0.0
  0
MTEXT
  5
28A
330
2
100
AcDbEntity
  8
DIM
100
AcDbMText
 10
406.3712463945594
 20
206.6729837782039
 30
0.0
 40
2.5
 41
0.0
 46
0.0
 71
     5
 72
     1
  1
0.0030
  7
SIMPLEX
 73
     1
 44
1.0
  0
LINE
  5
28B
330
2
100
AcDbEntity
  8
DIM
100
AcDbLine
 10
394.8962463945569
 20
204.5729837782039
 30
0.0
 11
395.9462463945594
 21
204.5729837782039
 31
0.0
  0
POINT
  5
28C
330
2
100
AcDbEntity
  8
DIM
100
AcDbPoint
 10
363.7462463945897
 20
340.0541840201477
 30
0.0
  0
POINT
  5
28D
330
2
100
AcDbEntity
  8
DIM
100
AcDbPoint
 10
363.7462463945897
 20
300.7793102859809
 30
0.0
  0
MTEXT
  5
28E
102
{ACAD_XDICTIONARY
360
28F
102
}
330
2
100
AcDbEntity
  8
DIM
100
AcDbMText
 10
361.9404530099193
 20
307.1338412131114
 30
0.0
 40
2.5
 41
0.0
 46
0.0
 71
     5
 72
     1
  1
\A1;45%%d
  7
SIMPLEX
 73
     1
 44
1.0
  0
POINT
  5
290
330
2
100
AcDbEntity
  8
DIM
100
AcDbPoint
 10
363.7462463945897
 20
340.0541840201477
 30
0.0
  0
POINT
  5
291
330
2
100
AcDbEntity
  8
DIM
100
AcDbPoint
 10
363.7462463945897
 20
300.7793102859809
 30
0.0
  0
SOLID
  5
292
330
2
100
AcDbEntity
  8
DIM
100
AcDbTrace
 10
360.4568272651686
 20
303.7936031495657
 30
0.0
 11
359.5814937866047
 21
300.8809082974905
 31
0.0
 12
358.6841513199078
 22
301.3222432014613
 32
0.0
 13
358.6841513199078
 23
301.3222432014613
 33
0.0
  0
SOLID
  5
293
330
2
100
AcDbEntity
  8
DIM
100
AcDbTrace
 10
363.7462463945897
 20
305.1561251652986
 30
0.0
 11
366.7472329543865
 21
304.6620809689767
 31
0.0
 12
366.4247869145091
 22
303.7154931223572
 32
0.0
 13
366.4247869145091
 23
303.7154931223572
 33
0.0
  0
ARC
  5
294
330
2
100
AcDbEntity
  8
DIM
100
AcDbCircle
 10
363.7462463945897
 20
300.5041840201347
 30
0.0
 40
4.651941145163873
100
AcDbArc
 50
172.6218313638703
 51
215.315168925582
  0
ARC
  5
295
330
2
100
AcDbEntity
  8
DIM
100
AcDbCircle
 10
363.7462463945897
 20
300.5041840201347
 30
0.0
 40
4.651941145163873
100
AcDbArc
 50
9.684831074332684
 51
52.37816863604376
  0
ARC
  5
296
330
2
100
AcDbEntity
  8
DIM
100
AcDbCircle
 10
363.7462463945897
 20
300.5041840201347
 30
0.0
 40
4.651941145163873
100
AcDbArc
 50
52.37816863604376
 51
172.6218313638703
  0
LINE
  5
297
330
2
100
AcDbEntity
  8
DIM
100
AcDbLine
 10
442.7219408986903
 20
245.054184020168
 30
0.0
 11
442.7219408986903
 21
242.054184020168
 31
0.0
  0
SOLID
  5
298
330
2
100
AcDbEntity
  8
DIM
100
AcDbTrace
 10
442.7219408986903
 20
248.054184020168
 30
0.0
 11
443.2219408986902
 21
245.054184020168
 31
0.0
 12
442.2219408986901
 22
245.054184020168
 32
0.0
 13
442.2219408986901
 23
245.054184020168
 33
0.0
  0
MTEXT
  5
299
330
2
100
AcDbEntity
  8
DIM
100
AcDbMText
 10
446.493634450933
 20
246.7091573842995
 30
0.0
 40
2.5
 41
0.0
 46
0.0
 71
     5
 72
     1
  1
B
  7
SIMPLEX
 73
     1
 44
1.0
  0
LINE
  5
29A
330
2
100
AcDbEntity
  8
DIM
100
AcDbLine
 10
417.9504249957472
 20
242.054184020168
 30
0.0
 11
442.7219408986903
 21
242.054184020168
 31
0.0
  0
LINE
  5
29B
330
2
100
AcDbEntity
  8
DIM
100
AcDbLine
 10
380.9462463945822
 20
298.4041840201905
 30
0.0
 11
327.6962463945817
 21
298.4041840201905
 31
0.0
  0
LINE
  5
29C
330
2
100
AcDbEntity
  8
COIN-LINE
100
AcDbLine
 10
327.6962463945817
 20
298.4041840201905
 30
0.0
 11
322.6962463945816
 21
298.4041840201905
 31
0.0
  0
LINE
  5
29D
330
2
100
AcDbEntity
  8
DIM
100
AcDbLine
 10
322.6962463945816
 20
298.4041840201905
 30
0.0
 11
299.6962463945816
 21
298.4041840201905
 31
0.0
  0
TEXT
  5
29E
330
2
100
AcDbEntity
  8
DIM
100
AcDbText
 10
299.6962463945816
 20
298.9041840201906
 30
0.0
 40
2.5
  1
0.1610
  7
SIMPLEX
100
AcDbText
  0
LINE
  5
29F
330
2
100
AcDbEntity
  8
DIM
100
AcDbLine
 10
356.2212463945587
 20
286.4541840201962
 30
0.0
 11
356.2212463945587
 21
340.0541840201821
 31
0.0
  0
LINE
  5
2A0
330
2
100
AcDbEntity
  8
COIN-LINE
100
AcDbLine
 10
356.2212463945587
 20
340.0541840201821
 30
0.0
 11
356.7462463945969
 21
345.0541840201477
 31
0.0
  0
LINE
  5
2A1
330
2
100
AcDbEntity
  8
DIM
100
AcDbLine
 10
356.7462463945969
 20
345.0541840201477
 30
0.0
 11
356.7462463945969
 21
368.0541840201477
 31
0.0
  0
TEXT
  5
2A2
330
2
100
AcDbEntity
  8
DIM
100
AcDbText
 10
356.2462463945969
 20
356.1494221153858
 30
0.0
 40
2.5
  1
0.1235
 50
90.0
  7
SIMPLEX
 72
     2
 11
356.2462463945969
 21
368.0541840201477
 31
0.0
100
AcDbText
  0
LINE
  5
2A3
330
2
100
AcDbEntity
  8
DIM
100
AcDbLine
 10
432.1716035746156
 20
209.2041840200762
 30
0.0
 11
432.1716035746156
 21
159.1041840201735
 31
0.0
  0
LINE
  5
2A4
330
2
100
AcDbEntity
  8
COIN-LINE
100
AcDbLine
 10
432.1716035746156
 20
159.1041840201735
 30
0.0
 11
430.4212463945629
 21
154.1041840201665
 31
0.0
  0
LINE
  5
2A5
330
2
100
AcDbEntity
  8
DIM
100
AcDbLine
 10
430.4212463945629
 20
154.1041840201665
 30
0.0
 11
430.4212463945629
 21
131.1041840201665
 31
0.0
  0
TEXT
  5
2A6
330
2
100
AcDbEntity
  8
DIM
100
AcDbText
 10
429.9212463945629
 20
131.1041840201665
 30
0.0
 40
2.5
  1
0.0935
 50
90.0
  7
SIMPLEX
100
AcDbText
  0
TEXT
  5
2A7
330
2
100
AcDbEntity
  8
DIM
100
AcDbText
 10
368.7927424957122
 20
144.5196379517593
 30
0.0
 40
1.8
  1
%%p0.003
 50
90.0
  7
SIMPLEX
100
AcDbText
  0
TEXT
  5
2A8
330
2
100
AcDbEntity
  8
DIM
100
AcDbText
 10
500.2165628145601
 20
200.9573714022531
 30
0.0
 40
1.8
  1
%%p0.003
  7
SIMPLEX
100
AcDbText
  0
MTEXT
  5
2A9
102
{ACAD_XDICTIONARY
360
2AA
102
}
330
2
100
AcDbEntity
  8
DIM
100
AcDbMText
 10
534.6608121183228
 20
227.6865398692967
 30
0.0
 40
1.800000000000011
 41
0.0
 46
0.0
 71
     5
 72
     1
  1
%%p0.005
  7
SIMPLEX
 11
0.0
 21
1.0
 31
0.0
 73
     1
 44
1.0
  0
MTEXT
  5
2AB
330
2
100
AcDbEntity
  8
DIM
100
AcDbMText
 10
521.2488230605345
 20
192.3245683119084
 30
0.0
 40
1.800000000000011
 41
0.0
 46
0.0
 71
     5
 72
     1
  1
-0.001
  7
SIMPLEX
 73
     1
 44
1.0
  0
LINE
  5
2AC
330
2
100
AcDbEntity
  8
DIM
100
AcDbLine
 10
433.9212463945632
 20
94.48075858320606
 30
0.0
 11
433.9212463945632
 21
75.53548957403276
 31
0.0
  0
MTEXT
  5
2AD
330
2
100
AcDbEntity
  8
DIM
100
AcDbMText
 10
357.1485719283097
 20
116.5225488545938
 30
0.0
 40
1.799999999999996
 41
0.0
 46
0.0
 71
     5
 72
     1
  1
-0.001
  7
SIMPLEX
 11
0.0
 21
1.0
 31
0.0
 73
     1
 44
1.0
  0
MTEXT
  5
2AE
102
{ACAD_XDICTIONARY
360
2AF
102
}
330
2
100
AcDbEntity
  8
DIM
100
AcDbMText
 10
422.6635442486831
 20
79.2498983444254
 30
0.0
 40
1.800000000000011
 41
0.0
 46
0.0
 71
     5
 72
     1
  1
%%p0.005
  7
SIMPLEX
 73
     1
 44
1.0
  0
LWPOLYLINE
  5
2B0
330
2
100
AcDbEntity
  8
COIN-LINE
100
AcDbPolyline
 90
        8
 70
     1
 43
0.0
 10
433.9212463945638
 20
95.4807585832062
 10
430.4212479650869
 20
95.4807585832062
 10
430.4212479650868
 20
94.0807585832062
 10
368.4712448240404
 20
94.0807585832062
 10
368.4712448240402
 20
95.4807585832062
 10
364.9712463945635
 20
95.4807585832062
 10
364.9712463945645
 20
98.28075858320616
 10
433.9212463945639
 20
98.28075858320616
  0
LWPOLYLINE
  5
2B1
330
2
100
AcDbEntity
  8
COIN-LINE
100
AcDbPolyline
 90
        8
 70
     1
 43
0.0
 10
529.1194321704616
 20
281.254183940931
 10
530.5194321704617
 20
281.254183940931
 10
530.5194321704617
 20
202.854184099405
 10
529.119432170462
 20
202.854184099405
 10
529.119432170462
 20
199.3541856699281
 10
526.3194321704619
 20
199.354185669928
 10
526.3194321704619
 20
284.754182370408
 10
529.1194321704616
 20
284.7541823704079
  0
TEXT
  5
2B2
330
2
100
AcDbEntity
  8
LF-LINE
100
AcDbText
 10
377.2878118800203
 20
378.7152286819217
 30
0.0
 40
3.0
  1
%%UOPTION1: STAMPED FRAME
  7
SIMPLEX
100
AcDbText
  0
ENDSEC
  0
SECTION
  2
OBJECTS
  0
DICTIONARY
  5
D
330
0
100
AcDbDictionary
281
     1
  3
ACAD_COLOR
350
44
  3
ACAD_GROUP
350
31
  3
ACAD_LAYOUT
350
1A
  3
ACAD_MATERIAL
350
F
  3
ACAD_MLEADERSTYLE
350
47
  3
ACAD_MLINESTYLE
350
32
  3
ACAD_PLOTSETTINGS
350
33
  3
ACAD_PLOTSTYLENAME
350
C
  3
ACAD_SCALELIST
350
45
  3
ACAD_TABLESTYLE
350
46
  3
ACAD_VISUALSTYLE
350
2B
  3
ACDB_RECOMPOSE_DATA
350
2B6
  3
AcDbVariableDictionary
350
48
  0
DICTIONARY
  5
7
330
6
100
AcDbDictionary
280
     1
281
     1
  3
ACAD_LAYOUT
360
8
  3
ACDBVARIABLEDICTIONARY
360
9
  3
ADSK_XREC_LAYER_RECONCILED
360
A
  0
DICTIONARY
  5
B2
330
B1
100
AcDbDictionary
280
     1
281
     1
  3
ADSK_XREC_LAYER_RECONCILED
360
B3
  0
DICTIONARY
  5
6F
330
6E
100
AcDbDictionary
280
     1
281
     1
  3
ADSK_XREC_LAYER_RECONCILED
360
70
  0
DICTIONARY
  5
75
330
74
100
AcDbDictionary
280
     1
281
     1
  3
ADSK_XREC_LAYER_RECONCILED
360
76
  0
DICTIONARY
  5
8D
330
8C
100
AcDbDictionary
280
     1
281
     1
  3
ADSK_XREC_LAYER_RECONCILED
360
8E
  0
DICTIONARY
  5
3
330
2
100
AcDbDictionary
280
     1
281
     1
  3
ACAD_SORTENTS
360
2B3
  0
DICTIONARY
  5
128
330
127
100
AcDbDictionary
280
     1
281
     1
  0
DICTIONARY
  5
144
330
143
100
AcDbDictionary
280
     1
281
     1
  0
DICTIONARY
  5
28F
330
28E
100
AcDbDictionary
280
     1
281
     1
  0
DICTIONARY
  5
2AA
330
2A9
100
AcDbDictionary
280
     1
281
     1
  0
DICTIONARY
  5
2AF
330
2AE
100
AcDbDictionary
280
     1
281
     1
  0
DICTIONARY
  5
44
102
{ACAD_REACTORS
330
D
102
}
330
D
100
AcDbDictionary
281
     1
  0
DICTIONARY
  5
31
102
{ACAD_REACTORS
330
D
102
}
330
D
100
AcDbDictionary
281
     1
  0
DICTIONARY
  5
1A
102
{ACAD_REACTORS
330
D
102
}
330
D
100
AcDbDictionary
281
     1
  3
Layout1
350
1E
  3
Model
350
19
  0
DICTIONARY
  5
F
102
{ACAD_REACTORS
330
D
102
}
330
D
100
AcDbDictionary
281
     1
  3
ByBlock
350
3C
  3
ByLayer
350
34
  3
Global
350
E
  0
DICTIONARY
  5
47
102
{ACAD_REACTORS
330
D
102
}
330
D
100
AcDbDictionary
281
     1
  0
DICTIONARY
  5
32
102
{ACAD_REACTORS
330
D
102
}
330
D
100
AcDbDictionary
281
     1
  3
Standard
350
56
  0
DICTIONARY
  5
33
102
{ACAD_REACTORS
330
D
102
}
330
D
100
AcDbDictionary
281
     1
  0
ACDBDICTIONARYWDFLT
  5
C
102
{ACAD_REACTORS
330
D
102
}
330
D
100
AcDbDictionary
281
     1
  3
Normal
350
B
100
AcDbDictionaryWithDefault
340
B
  0
DICTIONARY
  5
45
102
{ACAD_REACTORS
330
D
102
}
330
D
100
AcDbDictionary
281
     1
  3
A0
350
5C
  3
A1
350
5D
  3
A2
350
5E
  3
A3
350
5F
  3
A4
350
60
  3
A5
350
61
  3
A6
350
62
  3
A7
350
63
  3
A8
350
64
  3
A9
350
65
  3
B0
350
66
  3
B1
350
67
  3
B2
350
68
  3
B3
350
69
  3
B4
350
6A
  3
B5
350
6B
  3
B6
350
6C
  0
DICTIONARY
  5
46
102
{ACAD_REACTORS
330
D
102
}
330
D
100
AcDbDictionary
281
     1
  3
Standard
350
57
  0
DICTIONARY
  5
2B
102
{ACAD_REACTORS
330
D
102
}
330
D
100
AcDbDictionary
281
     1
  3
2dWireframe
350
2A
  3
EdgeColorOff
350
F6
  3
Realistic
350
59
  3
Wireframe
350
5A
  0
XRECORD
  5
2B6
102
{ACAD_REACTORS
330
D
102
}
330
D
100
AcDbXrecord
280
     1
 90
        1
330
57
  0
DICTIONARY
  5
48
102
{ACAD_REACTORS
330
D
102
}
330
D
100
AcDbDictionary
281
     1
  3
CANNOSCALE
350
49
  3
CMLEADERSTYLE
350
4A
  3
CTABLESTYLE
350
4B
  3
CVIEWDETAILSTYLE
350
4C
  3
CVIEWSECTIONSTYLE
350
4D
  3
DIMASSOC
350
4E
  3
HIDETEXT
350
4F
  3
LAYEREVAL
350
50
  3
LAYERNOTIFY
350
51
  3
LIGHTINGUNITS
350
52
  3
MSLTSCALE
350
53
  3
PROJECTNAME
350
54
  0
DICTIONARY
  5
8
102
{ACAD_REACTORS
330
7
102
}
330
7
100
AcDbDictionary
281
     1
  0
DICTIONARY
  5
9
102
{ACAD_REACTORS
330
7
102
}
330
7
100
AcDbDictionary
281
     1
  0
XRECORD
  5
A
102
{ACAD_REACTORS
330
7
102
}
330
7
100
AcDbXrecord
280
     1
290
     1
  0
XRECORD
  5
B3
102
{ACAD_REACTORS
330
B2
102
}
330
B2
100
AcDbXrecord
280
     1
290
     1
  0
XRECORD
  5
70
102
{ACAD_REACTORS
330
6F
102
}
330
6F
100
AcDbXrecord
280
     1
290
     1
  0
XRECORD
  5
76
102
{ACAD_REACTORS
330
75
102
}
330
75
100
AcDbXrecord
280
     1
290
     1
  0
XRECORD
  5
8E
102
{ACAD_REACTORS
330
8D
102
}
330
8D
100
AcDbXrecord
280
     1
290
     1
  0
SORTENTSTABLE
  5
2B3
102
{ACAD_REACTORS
330
3
102
}
330
3
100
AcDbSortentsTable
330
2
  0
LAYOUT
  5
1E
102
{ACAD_REACTORS
330
1A
102
}
330
1A
100
AcDbPlotSettings
  1

  2
None
  4

  6

 40
0.0
 41
0.0
 42
0.0
 43
0.0
 44
0.0
 45
0.0
 46
0.0
 47
0.0
 48
0.0
 49
0.0
140
0.0
141
0.0
142
1.0
143
1.0
 70
   688
 72
     0
 73
     0
 74
     0
  7

 75
     0
147
1.0
 76
     0
 77
     2
 78
   300
148
0.0
149
0.0
100
AcDbLayout
  1
Layout1
 70
     0
 71
     1
 10
0.0
 20
0.0
 11
0.0
 21
0.0
 12
0.0
 22
0.0
 32
0.0
 14
0.0
 24
0.0
 34
0.0
 15
0.0
 25
0.0
 35
0.0
146
0.0
 13
0.0
 23
0.0
 33
0.0
 16
1.0
 26
0.0
 36
0.0
 17
0.0
 27
1.0
 37
0.0
 76
     0
330
1B
  0
LAYOUT
  5
19
102
{ACAD_REACTORS
330
1A
102
}
330
1A
100
AcDbPlotSettings
  1

  2
None
  4

  6

 40
0.0
 41
0.0
 42
0.0
 43
0.0
 44
0.0
 45
0.0
 46
0.0
 47
0.0
 48
0.0
 49
0.0
140
0.0
141
0.0
142
1.0
143
1.0
 70
 11952
 72
     0
 73
     0
 74
     0
  7

 75
     0
147
1.0
 76
     0
 77
     2
 78
   300
148
0.0
149
0.0
100
AcDbLayout
  1
Model
 70
     1
 71
     0
 10
0.0
 20
0.0
 11
0.0
 21
0.0
 12
0.0
 22
0.0
 32
0.0
 14
5.0
 24
8.999999999999943
 34
0.0
 15
277.0
 25
392.0
 35
0.0
146
0.0
 13
0.0
 23
0.0
 33
0.0
 16
1.0
 26
0.0
 36
0.0
 17
0.0
 27
1.0
 37
0.0
 76
     0
330
2
331
29
  0
MATERIAL
  5
3C
102
{ACAD_XDICTIONARY
360
3D
102
}
102
{ACAD_REACTORS
330
F
102
}
330
F
100
AcDbMaterial
  1
ByBlock
 72
     0
 43
0.0208333333333333
 43
0.0
 43
0.0
 43
0.0
 43
0.0
 43
0.0208333333333333
 43
0.0
 43
0.0
 43
0.0
 43
0.0
 43
1.0
 43
0.0
 43
0.0
 43
0.0
 43
0.0
 43
1.0
 77
     0
 47
0.0208333333333333
 47
0.0
 47
0.0
 47
0.0
 47
0.0
 47
0.0208333333333333
 47
0.0
 47
0.0
 47
0.0
 47
0.0
 47
1.0
 47
0.0
 47
0.0
 47
0.0
 47
0.0
 47
1.0
171
     0
 49
0.0208333333333333
 49
0.0
 49
0.0
 49
0.0
 49
0.0
 49
0.0208333333333333
 49
0.0
 49
0.0
 49
0.0
 49
0.0
 49
1.0
 49
0.0
 49
0.0
 49
0.0
 49
0.0
 49
1.0
175
     0
142
0.0208333333333333
142
0.0
142
0.0
142
0.0
142
0.0
142
0.0208333333333333
142
0.0
142
0.0
142
0.0
142
0.0
142
1.0
142
0.0
142
0.0
142
0.0
142
0.0
142
1.0
179
     0
144
0.0208333333333333
144
0.0
144
0.0
144
0.0
144
0.0
144
0.0208333333333333
144
0.0
144
0.0
144
0.0
144
0.0
144
1.0
144
0.0
144
0.0
144
0.0
144
0.0
144
1.0
147
0.0208333333333333
147
0.0
147
0.0
147
0.0
147
0.0
147
0.0208333333333333
147
0.0
147
0.0
147
0.0
147
0.0
147
1.0
147
0.0
147
0.0
147
0.0
147
0.0
147
1.0
  0
MATERIAL
  5
34
102
{ACAD_XDICTIONARY
360
35
102
}
102
{ACAD_REACTORS
330
F
102
}
330
F
100
AcDbMaterial
  1
ByLayer
 72
     0
 43
0.0208333333333333
 43
0.0
 43
0.0
 43
0.0
 43
0.0
 43
0.0208333333333333
 43
0.0
 43
0.0
 43
0.0
 43
0.0
 43
1.0
 43
0.0
 43
0.0
 43
0.0
 43
0.0
 43
1.0
 77
     0
 47
0.0208333333333333
 47
0.0
 47
0.0
 47
0.0
 47
0.0
 47
0.0208333333333333
 47
0.0
 47
0.0
 47
0.0
 47
0.0
 47
1.0
 47
0.0
 47
0.0
 47
0.0
 47
0.0
 47
1.0
171
     0
 49
0.0208333333333333
 49
0.0
 49
0.0
 49
0.0
 49
0.0
 49
0.0208333333333333
 49
0.0
 49
0.0
 49
0.0
 49
0.0
 49
1.0
 49
0.0
 49
0.0
 49
0.0
 49
0.0
 49
1.0
175
     0
142
0.0208333333333333
142
0.0
142
0.0
142
0.0
142
0.0
142
0.0208333333333333
142
0.0
142
0.0
142
0.0
142
0.0
142
1.0
142
0.0
142
0.0
142
0.0
142
0.0
142
1.0
179
     0
144
0.0208333333333333
144
0.0
144
0.0
144
0.0
144
0.0
144
0.0208333333333333
144
0.0
144
0.0
144
0.0
144
0.0
144
1.0
144
0.0
144
0.0
144
0.0
144
0.0
144
1.0
147
0.0208333333333333
147
0.0
147
0.0
147
0.0
147
0.0
147
0.0208333333333333
147
0.0
147
0.0
147
0.0
147
0.0
147
1.0
147
0.0
147
0.0
147
0.0
147
0.0
147
1.0
  0
MATERIAL
  5
E
102
{ACAD_XDICTIONARY
360
10
102
}
102
{ACAD_REACTORS
330
F
102
}
330
F
100
AcDbMaterial
  1
Global
 72
     0
 43
0.0208333333333333
 43
0.0
 43
0.0
 43
0.0
 43
0.0
 43
0.0208333333333333
 43
0.0
 43
0.0
 43
0.0
 43
0.0
 43
1.0
 43
0.0
 43
0.0
 43
0.0
 43
0.0
 43
1.0
 77
     0
 47
0.0208333333333333
 47
0.0
 47
0.0
 47
0.0
 47
0.0
 47
0.0208333333333333
 47
0.0
 47
0.0
 47
0.0
 47
0.0
 47
1.0
 47
0.0
 47
0.0
 47
0.0
 47
0.0
 47
1.0
171
     0
 49
0.0208333333333333
 49
0.0
 49
0.0
 49
0.0
 49
0.0
 49
0.0208333333333333
 49
0.0
 49
0.0
 49
0.0
 49
0.0
 49
1.0
 49
0.0
 49
0.0
 49
0.0
 49
0.0
 49
1.0
175
     0
142
0.0208333333333333
142
0.0
142
0.0
142
0.0
142
0.0
142
0.0208333333333333
142
0.0
142
0.0
142
0.0
142
0.0
142
1.0
142
0.0
142
0.0
142
0.0
142
0.0
142
1.0
179
     0
144
0.0208333333333333
144
0.0
144
0.0
144
0.0
144
0.0
144
0.0208333333333333
144
0.0
144
0.0
144
0.0
144
0.0
144
1.0
144
0.0
144
0.0
144
0.0
144
0.0
144
1.0
147
0.0208333333333333
147
0.0
147
0.0
147
0.0
147
0.0
147
0.0208333333333333
147
0.0
147
0.0
147
0.0
147
0.0
147
1.0
147
0.0
147
0.0
147
0.0
147
0.0
147
1.0
  0
MLINESTYLE
  5
56
102
{ACAD_REACTORS
330
32
102
}
330
32
100
AcDbMlineStyle
  2
STANDARD
 70
     0
  3

 62
   256
 51
90.0
 52
90.0
 71
     2
 49
0.5
 62
   256
  6
BYLAYER
 49
-0.5
 62
   256
  6
BYLAYER
  0
ACDBPLACEHOLDER
  5
B
102
{ACAD_REACTORS
330
C
102
}
330
C
  0
SCALE
  5
5C
102
{ACAD_REACTORS
330
45
102
}
330
45
100
AcDbScale
 70
     0
300
1:1
140
1.0
141
1.0
290
     1
  0
SCALE
  5
5D
102
{ACAD_REACTORS
330
45
102
}
330
45
100
AcDbScale
 70
     0
300
1/128" = 1'-0"
140
0.0078125
141
12.0
290
     0
  0
SCALE
  5
5E
102
{ACAD_REACTORS
330
45
102
}
330
45
100
AcDbScale
 70
     0
300
1/64" = 1'-0"
140
0.015625
141
12.0
290
     0
  0
SCALE
  5
5F
102
{ACAD_REACTORS
330
45
102
}
330
45
100
AcDbScale
 70
     0
300
1/32" = 1'-0"
140
0.03125
141
12.0
290
     0
  0
SCALE
  5
60
102
{ACAD_REACTORS
330
45
102
}
330
45
100
AcDbScale
 70
     0
300
1/16" = 1'-0"
140
0.0625
141
12.0
290
     0
  0
SCALE
  5
61
102
{ACAD_REACTORS
330
45
102
}
330
45
100
AcDbScale
 70
     0
300
3/32" = 1'-0"
140
0.09375
141
12.0
290
     0
  0
SCALE
  5
62
102
{ACAD_REACTORS
330
45
102
}
330
45
100
AcDbScale
 70
     0
300
1/8" = 1'-0"
140
0.125
141
12.0
290
     0
  0
SCALE
  5
63
102
{ACAD_REACTORS
330
45
102
}
330
45
100
AcDbScale
 70
     0
300
3/16" = 1'-0"
140
0.1875
141
12.0
290
     0
  0
SCALE
  5
64
102
{ACAD_REACTORS
330
45
102
}
330
45
100
AcDbScale
 70
     0
300
1/4" = 1'-0"
140
0.25
141
12.0
290
     0
  0
SCALE
  5
65
102
{ACAD_REACTORS
330
45
102
}
330
45
100
AcDbScale
 70
     0
300
3/8" = 1'-0"
140
0.375
141
12.0
290
     0
  0
SCALE
  5
66
102
{ACAD_REACTORS
330
45
102
}
330
45
100
AcDbScale
 70
     0
300
1/2" = 1'-0"
140
0.5
141
12.0
290
     0
  0
SCALE
  5
67
102
{ACAD_REACTORS
330
45
102
}
330
45
100
AcDbScale
 70
     0
300
3/4" = 1'-0"
140
0.75
141
12.0
290
     0
  0
SCALE
  5
68
102
{ACAD_REACTORS
330
45
102
}
330
45
100
AcDbScale
 70
     0
300
1" = 1'-0"
140
1.0
141
12.0
290
     0
  0
SCALE
  5
69
102
{ACAD_REACTORS
330
45
102
}
330
45
100
AcDbScale
 70
     0
300
1-1/2" = 1'-0"
140
1.5
141
12.0
290
     0
  0
SCALE
  5
6A
102
{ACAD_REACTORS
330
45
102
}
330
45
100
AcDbScale
 70
     0
300
3" = 1'-0"
140
3.0
141
12.0
290
     0
  0
SCALE
  5
6B
102
{ACAD_REACTORS
330
45
102
}
330
45
100
AcDbScale
 70
     0
300
6" = 1'-0"
140
6.0
141
12.0
290
     0
  0
SCALE
  5
6C
102
{ACAD_REACTORS
330
45
102
}
330
45
100
AcDbScale
 70
     0
300
1'-0" = 1'-0"
140
12.0
141
12.0
290
     0
  0
TABLESTYLE
  5
57
102
{ACAD_XDICTIONARY
360
58
102
}
102
{ACAD_REACTORS
330
46
102
}
330
46
100
AcDbTableStyle
280
     0
  3
Standard
 70
     0
 71
     0
 40
0.06
 41
0.06
280
     0
281
     0
  7
Standard
140
0.18
170
     2
 62
     0
 63
     7
283
     0
 90
        4
 91
        0
  1

274
    -2
284
     1
 64
     0
275
    -2
285
     1
 65
     0
276
    -2
286
     1
 66
     0
277
    -2
287
     1
 67
     0
278
    -2
288
     1
 68
     0
279
    -2
289
     1
 69
     0
  7
Standard
140
0.25
170
     5
 62
     0
 63
     7
283
     0
 90
        4
 91
        0
  1

274
    -2
284
     1
 64
     0
275
    -2
285
     1
 65
     0
276
    -2
286
     1
 66
     0
277
    -2
287
     1
 67
     0
278
    -2
288
     1
 68
     0
279
    -2
289
     1
 69
     0
  7
Standard
140
0.18
170
     5
 62
     0
 63
     7
283
     0
 90
        4
 91
        0
  1

274
    -2
284
     1
 64
     0
275
    -2
285
     1
 65
     0
276
    -2
286
     1
 66
     0
277
    -2
287
     1
 67
     0
278
    -2
288
     1
 68
     0
279
    -2
289
     1
 69
     0
1001
ACAD
1000
AcRTDxfName
1000
TABLESTYLE
  0
VISUALSTYLE
  5
2A
102
{ACAD_REACTORS
330
2B
102
}
330
2B
100
AcDbVisualStyle
  2
2dWireframe
 70
     4
177
     3
291
     0
 70
    58
 90
        0
176
     1
 90
        2
176
     1
 90
        0
176
     1
 90
        0
176
     1
 40
0.6
176
     1
 40
30.0
176
     1
 62
     7
420
 16777215
176
     1
 90
        1
176
     1
 90
        4
176
     1
 62
     7
176
     1
 62
   257
176
     1
 90
        1
176
     1
 90
        1
176
     1
 40
1.0
176
     1
 90
        0
176
     1
 62
   257
176
     1
 40
1.0
176
     1
 90
        1
176
     1
 90
        6
176
     1
 90
        2
176
     1
 62
     7
176
     1
 90
        5
176
     1
 90
        0
176
     1
 90
        0
176
     1
290
     0
176
     1
 90
        1
176
     1
 40
0.0
176
     1
 90
        0
176
     1
290
     1
176
     1
290
     1
176
     1
290
     0
176
     1
290
     0
176
     1
290
     0
176
     1
290
     0
176
     1
290
     0
176
     1
290
     0
176
     1
290
     0
176
     1
 90
       50
176
     1
 40
0.0
176
     1
 40
1.0
176
     1
 90
        0
176
     1
 62
    18
176
     1
 90
       50
176
     1
 90
        3
176
     1
 62
     5
420
      255
176
     1
290
     0
176
     1
 90
       50
176
     1
 90
       50
176
     1
 90
       50
176
     1
290
     0
176
     1
 90
       50
176
     1
 62
   256
176
     0
 40
1.0
176
     0
 90
        2
176
     1
  1
strokes_ogs.tif
176
     1
290
     0
176
     1
 40
1.0
176
     1
 40
1.0
176
     1
  0
VISUALSTYLE
  5
F6
102
{ACAD_REACTORS
330
2B
102
}
330
2B
100
AcDbVisualStyle
  2
EdgeColorOff
 70
    22
177
     3
291
     1
 70
    58
 90
        2
176
     0
 90
        2
176
     0
 90
        0
176
     0
 90
        0
176
     0
 40
0.6
176
     0
 40
30.0
176
     0
 62
     7
420
 16777215
176
     0
 90
        1
176
     0
 90
        4
176
     0
 62
     7
176
     0
 62
   257
176
     0
 90
        1
176
     0
 90
        1
176
     0
 40
1.0
176
     0
 90
        8
176
     2
 62
     7
176
     0
 40
1.0
176
     0
 90
        1
176
     0
 90
        6
176
     0
 90
        2
176
     0
 62
     7
176
     0
 90
        5
176
     0
 90
        0
176
     0
 90
        0
176
     0
290
     0
176
     0
 90
        1
176
     0
 40
0.0
176
     0
 90
        0
176
     0
290
     0
176
     0
290
     1
176
     0
290
     1
176
     0
290
     0
176
     0
290
     0
176
     0
290
     0
176
     0
290
     0
176
     0
290
     0
176
     0
290
     0
176
     0
 90
       50
176
     0
 40
0.0
176
     0
 40
1.0
176
     0
 90
        0
176
     0
 62
    18
176
     0
 90
       50
176
     0
 90
        3
176
     0
 62
     5
420
      255
176
     0
290
     0
176
     0
 90
       50
176
     0
 90
       50
176
     0
 90
       50
176
     0
290
     0
176
     0
 90
       50
176
     0
 62
   256
176
     0
 40
1.0
176
     0
 90
        2
176
     0
  1
strokes_ogs.tif
176
     0
290
     0
176
     0
 40
1.0
176
     0
 40
1.0
176
     0
  0
VISUALSTYLE
  5
59
102
{ACAD_REACTORS
330
2B
102
}
330
2B
100
AcDbVisualStyle
  2
Realistic
 70
     8
177
     3
291
     0
 70
    58
 90
        2
176
     1
 90
        3
176
     1
 90
        0
176
     1
 90
        2
176
     1
 40
0.6
176
     1
 40
30.0
176
     1
 62
     7
420
 16777215
176
     1
 90
        0
176
     1
 90
        0
176
     1
 62
     7
176
     1
 62
   257
176
     1
 90
        1
176
     1
 90
        1
176
     1
 40
1.0
176
     1
 90
        8
176
     1
 62
   257
176
     1
 40
1.0
176
     1
 90
        1
176
     1
 90
        6
176
     1
 90
        2
176
     1
 62
     7
176
     1
 90
        3
176
     1
 90
        0
176
     1
 90
        0
176
     1
290
     0
176
     1
 90
       13
176
     1
 40
0.0
176
     1
 90
        0
176
     1
290
     0
176
     1
290
     1
176
     1
290
     1
176
     1
290
     0
176
     1
290
     0
176
     1
290
     0
176
     1
290
     0
176
     1
290
     0
176
     1
290
     0
176
     1
 90
       50
176
     1
 40
0.0
176
     1
 40
1.0
176
     1
 90
        0
176
     1
 62
    18
176
     1
 90
       50
176
     1
 90
        3
176
     1
 62
     5
420
      255
176
     1
290
     0
176
     1
 90
       50
176
     1
 90
       50
176
     1
 90
       50
176
     1
290
     0
176
     1
 90
       50
176
     1
 62
   256
176
     0
 40
1.0
176
     0
 90
        2
176
     1
  1
strokes_ogs.tif
176
     1
290
     0
176
     1
 40
1.0
176
     1
 40
1.0
176
     1
  0
VISUALSTYLE
  5
5A
102
{ACAD_REACTORS
330
2B
102
}
330
2B
100
AcDbVisualStyle
  2
Wireframe
 70
     5
177
     3
291
     0
 70
    58
 90
        0
176
     1
 90
        2
176
     1
 90
        0
176
     1
 90
        0
176
     1
 40
0.6
176
     1
 40
30.0
176
     1
 62
     7
420
 16777215
176
     1
 90
        1
176
     1
 90
        4
176
     1
 62
     7
176
     1
 62
   257
176
     1
 90
        1
176
     1
 90
        1
176
     1
 40
1.0
176
     1
 90
        0
176
     1
 62
   257
176
     1
 40
1.0
176
     1
 90
        1
176
     1
 90
        6
176
     1
 90
        2
176
     1
 62
     7
176
     1
 90
        3
176
     1
 90
        0
176
     1
 90
        0
176
     1
290
     0
176
     1
 90
        1
176
     1
 40
0.0
176
     1
 90
        0
176
     1
290
     0
176
     1
290
     1
176
     1
290
     1
176
     1
290
     0
176
     1
290
     0
176
     1
290
     0
176
     1
290
     0
176
     1
290
     0
176
     1
290
     0
176
     1
 90
       50
176
     1
 40
0.0
176
     1
 40
1.0
176
     1
 90
        0
176
     1
 62
    18
176
     1
 90
       50
176
     1
 90
        3
176
     1
 62
     5
420
      255
176
     1
290
     0
176
     1
 90
       50
176
     1
 90
       50
176
     1
 90
       50
176
     1
290
     0
176
     1
 90
       50
176
     1
 62
   256
176
     0
 40
1.0
176
     0
 90
        2
176
     1
  1
strokes_ogs.tif
176
     1
290
     0
176
     1
 40
1.0
176
     1
 40
1.0
176
     1
  0
DICTIONARYVAR
  5
49
102
{ACAD_REACTORS
330
48
102
}
330
48
100
DictionaryVariables
280
     0
  1
1:1
  0
DICTIONARYVAR
  5
4A
102
{ACAD_REACTORS
330
48
102
}
330
48
100
DictionaryVariables
280
     0
  1
STANDARD
  0
DICTIONARYVAR
  5
4B
102
{ACAD_REACTORS
330
48
102
}
330
48
100
DictionaryVariables
280
     0
  1
STANDARD
  0
DICTIONARYVAR
  5
4C
102
{ACAD_REACTORS
330
48
102
}
330
48
100
DictionaryVariables
280
     0
  1

  0
DICTIONARYVAR
  5
4D
102
{ACAD_REACTORS
330
48
102
}
330
48
100
DictionaryVariables
280
     0
  1

  0
DICTIONARYVAR
  5
4E
102
{ACAD_REACTORS
330
48
102
}
330
48
100
DictionaryVariables
280
     0
  1
0
  0
DICTIONARYVAR
  5
4F
102
{ACAD_REACTORS
330
48
102
}
330
48
100
DictionaryVariables
280
     0
  1
1
  0
DICTIONARYVAR
  5
50
102
{ACAD_REACTORS
330
48
102
}
330
48
100
DictionaryVariables
280
     0
  1
1
  0
DICTIONARYVAR
  5
51
102
{ACAD_REACTORS
330
48
102
}
330
48
100
DictionaryVariables
280
     0
  1
15
  0
DICTIONARYVAR
  5
52
102
{ACAD_REACTORS
330
48
102
}
330
48
100
DictionaryVariables
280
     0
  1
0
  0
DICTIONARYVAR
  5
53
102
{ACAD_REACTORS
330
48
102
}
330
48
100
DictionaryVariables
280
     0
  1
0
  0
DICTIONARYVAR
  5
54
102
{ACAD_REACTORS
330
48
102
}
330
48
100
DictionaryVariables
280
     0
  1

  0
DICTIONARY
  5
3D
330
3C
100
AcDbDictionary
280
     1
281
     1
  3
BUMPTILE
360
3E
  3
DIFFUSETILE
360
3F
  3
OPACITYTILE
360
40
  3
REFLECTIONTILE
360
41
  3
REFRACTIONTILE
360
42
  3
SPECULARTILE
360
43
  0
DICTIONARY
  5
35
330
34
100
AcDbDictionary
280
     1
281
     1
  3
BUMPTILE
360
36
  3
DIFFUSETILE
360
37
  3
OPACITYTILE
360
38
  3
REFLECTIONTILE
360
39
  3
REFRACTIONTILE
360
3A
  3
SPECULARTILE
360
3B
  0
DICTIONARY
  5
10
330
E
100
AcDbDictionary
280
     1
281
     1
  3
BUMPTILE
360
11
  3
DIFFUSETILE
360
12
  3
OPACITYTILE
360
13
  3
REFLECTIONTILE
360
14
  3
REFRACTIONTILE
360
15
  3
SPECULARTILE
360
16
  0
DICTIONARY
  5
58
330
57
100
AcDbDictionary
280
     1
281
     1
  3
ACAD_ROUNDTRIP_2008_TABLESTYLE_CELLSTYLEMAP
360
2B5
  0
XRECORD
  5
3E
102
{ACAD_REACTORS
330
3D
102
}
330
3D
100
AcDbXrecord
280
     1
270
     1
271
     1
  0
XRECORD
  5
3F
102
{ACAD_REACTORS
330
3D
102
}
330
3D
100
AcDbXrecord
280
     1
270
     1
271
     1
  0
XRECORD
  5
40
102
{ACAD_REACTORS
330
3D
102
}
330
3D
100
AcDbXrecord
280
     1
270
     1
271
     1
  0
XRECORD
  5
41
102
{ACAD_REACTORS
330
3D
102
}
330
3D
100
AcDbXrecord
280
     1
270
     1
271
     1
  0
XRECORD
  5
42
102
{ACAD_REACTORS
330
3D
102
}
330
3D
100
AcDbXrecord
280
     1
270
     1
271
     1
  0
XRECORD
  5
43
102
{ACAD_REACTORS
330
3D
102
}
330
3D
100
AcDbXrecord
280
     1
270
     1
271
     1
  0
XRECORD
  5
36
102
{ACAD_REACTORS
330
35
102
}
330
35
100
AcDbXrecord
280
     1
270
     1
271
     1
  0
XRECORD
  5
37
102
{ACAD_REACTORS
330
35
102
}
330
35
100
AcDbXrecord
280
     1
270
     1
271
     1
  0
XRECORD
  5
38
102
{ACAD_REACTORS
330
35
102
}
330
35
100
AcDbXrecord
280
     1
270
     1
271
     1
  0
XRECORD
  5
39
102
{ACAD_REACTORS
330
35
102
}
330
35
100
AcDbXrecord
280
     1
270
     1
271
     1
  0
XRECORD
  5
3A
102
{ACAD_REACTORS
330
35
102
}
330
35
100
AcDbXrecord
280
     1
270
     1
271
     1
  0
XRECORD
  5
3B
102
{ACAD_REACTORS
330
35
102
}
330
35
100
AcDbXrecord
280
     1
270
     1
271
     1
  0
XRECORD
  5
11
102
{ACAD_REACTORS
330
10
102
}
330
10
100
AcDbXrecord
280
     1
270
     1
271
     1
  0
XRECORD
  5
12
102
{ACAD_REACTORS
330
10
102
}
330
10
100
AcDbXrecord
280
     1
270
     1
271
     1
  0
XRECORD
  5
13
102
{ACAD_REACTORS
330
10
102
}
330
10
100
AcDbXrecord
280
     1
270
     1
271
     1
  0
XRECORD
  5
14
102
{ACAD_REACTORS
330
10
102
}
330
10
100
AcDbXrecord
280
     1
270
     1
271
     1
  0
XRECORD
  5
15
102
{ACAD_REACTORS
330
10
102
}
330
10
100
AcDbXrecord
280
     1
270
     1
271
     1
  0
XRECORD
  5
16
102
{ACAD_REACTORS
330
10
102
}
330
10
100
AcDbXrecord
280
     1
270
     1
271
     1
  0
CELLSTYLEMAP
  5
2B5
102
{ACAD_REACTORS
330
58
102
}
330
58
100
AcDbCellStyleMap
 90
        3
300
CELLSTYLE
  1
TABLEFORMAT_BEGIN
 90
        5
170
     1
 91
        0
 92
    32768
 62
   257
 93
        1
300
CONTENTFORMAT
  1
CONTENTFORMAT_BEGIN
 90
        0
 91
        0
 92
        4
 93
        0
300

 40
0.0
140
1.0
 94
        5
 62
     0
340
21
144
0.25
309
CONTENTFORMAT_END
171
     1
301
MARGIN
  1
CELLMARGIN_BEGIN
 40
0.06
 40
0.06
 40
0.06
 40
0.06
 40
0.18
 40
0.18
309
CELLMARGIN_END
 94
        6
 95
        1
302
GRIDFORMAT
  1
GRIDFORMAT_BEGIN
 90
        0
 91
        1
 62
     0
 92
       -2
340
0
 93
        0
 40
0.045
309
GRIDFORMAT_END
 95
        2
302
GRIDFORMAT
  1
GRIDFORMAT_BEGIN
 90
        0
 91
        1
 62
     0
 92
       -2
340
0
 93
        0
 40
0.045
309
GRIDFORMAT_END
 95
        4
302
GRIDFORMAT
  1
GRIDFORMAT_BEGIN
 90
        0
 91
        1
 62
     0
 92
       -2
340
0
 93
        0
 40
0.045
309
GRIDFORMAT_END
 95
        8
302
GRIDFORMAT
  1
GRIDFORMAT_BEGIN
 90
        0
 91
        1
 62
     0
 92
       -2
340
0
 93
        0
 40
0.045
309
GRIDFORMAT_END
 95
       16
302
GRIDFORMAT
  1
GRIDFORMAT_BEGIN
 90
        0
 91
        1
 62
     0
 92
       -2
340
0
 93
        0
 40
0.045
309
GRIDFORMAT_END
 95
       32
302
GRIDFORMAT
  1
GRIDFORMAT_BEGIN
 90
        0
 91
        1
 62
     0
 92
       -2
340
0
 93
        0
 40
0.045
309
GRIDFORMAT_END
309
TABLEFORMAT_END
  1
CELLSTYLE_BEGIN
 90
        1
 91
        1
300
_TITLE
309
CELLSTYLE_END
300
CELLSTYLE
  1
TABLEFORMAT_BEGIN
 90
        5
170
     1
 91
        0
 92
        0
 62
   257
 93
        1
300
CONTENTFORMAT
  1
CONTENTFORMAT_BEGIN
 90
        0
 91
        0
 92
        4
 93
        0
300

 40
0.0
140
1.0
 94
        5
 62
     0
340
21
144
0.18
309
CONTENTFORMAT_END
171
     1
301
MARGIN
  1
CELLMARGIN_BEGIN
 40
0.06
 40
0.06
 40
0.06
 40
0.06
 40
0.18
 40
0.18
309
CELLMARGIN_END
 94
        6
 95
        1
302
GRIDFORMAT
  1
GRIDFORMAT_BEGIN
 90
        0
 91
        1
 62
     0
 92
       -2
340
0
 93
        0
 40
0.045
309
GRIDFORMAT_END
 95
        2
302
GRIDFORMAT
  1
GRIDFORMAT_BEGIN
 90
        0
 91
        1
 62
     0
 92
       -2
340
0
 93
        0
 40
0.045
309
GRIDFORMAT_END
 95
        4
302
GRIDFORMAT
  1
GRIDFORMAT_BEGIN
 90
        0
 91
        1
 62
     0
 92
       -2
340
0
 93
        0
 40
0.045
309
GRIDFORMAT_END
 95
        8
302
GRIDFORMAT
  1
GRIDFORMAT_BEGIN
 90
        0
 91
        1
 62
     0
 92
       -2
340
0
 93
        0
 40
0.045
309
GRIDFORMAT_END
 95
       16
302
GRIDFORMAT
  1
GRIDFORMAT_BEGIN
 90
        0
 91
        1
 62
     0
 92
       -2
340
0
 93
        0
 40
0.045
309
GRIDFORMAT_END
 95
       32
302
GRIDFORMAT
  1
GRIDFORMAT_BEGIN
 90
        0
 91
        1
 62
     0
 92
       -2
340
0
 93
        0
 40
0.045
309
GRIDFORMAT_END
309
TABLEFORMAT_END
  1
CELLSTYLE_BEGIN
 90
        2
 91
        1
300
_HEADER
309
CELLSTYLE_END
300
CELLSTYLE
  1
TABLEFORMAT_BEGIN
 90
        5
170
     1
 91
        0
 92
        0
 62
   257
 93
        1
300
CONTENTFORMAT
  1
CONTENTFORMAT_BEGIN
 90
        0
 91
        0
 92
        4
 93
        0
300

 40
0.0
140
1.0
 94
        2
 62
     0
340
21
144
0.18
309
CONTENTFORMAT_END
171
     1
301
MARGIN
  1
CELLMARGIN_BEGIN
 40
0.06
 40
0.06
 40
0.06
 40
0.06
 40
0.18
 40
0.18
309
CELLMARGIN_END
 94
        6
 95
        1
302
GRIDFORMAT
  1
GRIDFORMAT_BEGIN
 90
        0
 91
        1
 62
     0
 92
       -2
340
0
 93
        0
 40
0.045
309
GRIDFORMAT_END
 95
        2
302
GRIDFORMAT
  1
GRIDFORMAT_BEGIN
 90
        0
 91
        1
 62
     0
 92
       -2
340
0
 93
        0
 40
0.045
309
GRIDFORMAT_END
 95
        4
302
GRIDFORMAT
  1
GRIDFORMAT_BEGIN
 90
        0
 91
        1
 62
     0
 92
       -2
340
0
 93
        0
 40
0.045
309
GRIDFORMAT_END
 95
        8
302
GRIDFORMAT
  1
GRIDFORMAT_BEGIN
 90
        0
 91
        1
 62
     0
 92
       -2
340
0
 93
        0
 40
0.045
309
GRIDFORMAT_END
 95
       16
302
GRIDFORMAT
  1
GRIDFORMAT_BEGIN
 90
        0
 91
        1
 62
     0
 92
       -2
340
0
 93
        0
 40
0.045
309
GRIDFORMAT_END
 95
       32
302
GRIDFORMAT
  1
GRIDFORMAT_BEGIN
 90
        0
 91
        1
 62
     0
 92
       -2
340
0
 93
        0
 40
0.045
309
GRIDFORMAT_END
309
TABLEFORMAT_END
  1
CELLSTYLE_BEGIN
 90
        3
 91
        2
300
_DATA
309
CELLSTYLE_END
  0
ENDSEC
  0
EOF
