  0
SECTION
  2
HEADER
  9
$ACADVER
  1
AC1032
  9
$ACADMAINTVER
 90
      248
  9
$DWGCODEPAGE
  3
ANSI_936
  9
$REQUIREDVERSIONS
160
                 0
  9
$INSBASE
 10
0.0
 20
0.0
 30
0.0
  9
$EXTMIN
 10
5.0
 20
8.999999999999943
 30
0.0
  9
$EXTMAX
 10
1637.0
 20
392.0000000000002
 30
0.0
  9
$LIMMIN
 10
0.0
 20
0.0
  9
$LIMMAX
 10
0.0
 20
0.0
  9
$ORTHOMODE
 70
     0
  9
$REGENMODE
 70
     1
  9
$FILLMODE
 70
     1
  9
$QTEXTMODE
 70
     0
  9
$MIRRTEXT
 70
     0
  9
$LTSCALE
 40
8.0
  9
$ATTMODE
 70
     1
  9
$TEXTSIZE
 40
2.5
  9
$TRACEWID
 40
0.05
  9
$TEXTSTYLE
  7
SIMPLEX
  9
$CLAYER
  8
0
  9
$CELTYPE
  6
ByLayer
  9
$CECOLOR
 62
   256
  9
$CELTSCALE
 40
1.0
  9
$DISPSILH
 70
     0
  9
$DIMSCALE
 40
1.0
  9
$DIMASZ
 40
2.5
  9
$DIMEXO
 40
1.0
  9
$DIMDLI
 40
7.5
  9
$DIMRND
 40
0.0
  9
$DIMDLE
 40
1.25
  9
$DIMEXE
 40
1.25
  9
$DIMTP
 40
0.0
  9
$DIMTM
 40
0.0
  9
$DIMTXT
 40
3.0
  9
$DIMCEN
 40
1.25
  9
$DIMTSZ
 40
0.0
  9
$DIMTOL
 70
     0
  9
$DIMLIM
 70
     0
  9
$DIMTIH
 70
     0
  9
$DIMTOH
 70
     0
  9
$DIMSE1
 70
     0
  9
$DIMSE2
 70
     0
  9
$DIMTAD
 70
     1
  9
$DIMZIN
 70
     8
  9
$DIMBLK
  1

  9
$DIMASO
 70
     1
  9
$DIMSHO
 70
     1
  9
$DIMPOST
  1

  9
$DIMAPOST
  1

  9
$DIMALT
 70
     0
  9
$DIMALTD
 70
     2
  9
$DIMALTF
 40
25.4
  9
$DIMLFAC
 40
1.0
  9
$DIMTOFL
 70
     0
  9
$DIMTVP
 40
2.0
  9
$DIMTIX
 70
     0
  9
$DIMSOXD
 70
     0
  9
$DIMSAH
 70
     0
  9
$DIMBLK1
  1

  9
$DIMBLK2
  1

  9
$DIMSTYLE
  2
Standard
  9
$DIMCLRD
 70
     0
  9
$DIMCLRE
 70
     0
  9
$DIMCLRT
 70
     0
  9
$DIMTFAC
 40
1.0
  9
$DIMGAP
 40
1.25
  9
$DIMJUST
 70
     0
  9
$DIMSD1
 70
     0
  9
$DIMSD2
 70
     0
  9
$DIMTOLJ
 70
     1
  9
$DIMTZIN
 70
     0
  9
$DIMALTZ
 70
     0
  9
$DIMALTTZ
 70
     0
  9
$DIMUPT
 70
     0
  9
$DIMDEC
 70
     3
  9
$DIMTDEC
 70
     4
  9
$DIMALTU
 70
     2
  9
$DIMALTTD
 70
     2
  9
$DIMTXSTY
  7
SIMPLEX
  9
$DIMAUNIT
 70
     0
  9
$DIMADEC
 70
     0
  9
$DIMALTRND
 40
0.0
  9
$DIMAZIN
 70
     0
  9
$DIMDSEP
 70
    46
  9
$DIMATFIT
 70
     3
  9
$DIMFRAC
 70
     0
  9
$DIMLDRBLK
  1

  9
$DIMLUNIT
 70
     2
  9
$DIMLWD
 70
    -2
  9
$DIMLWE
 70
    -2
  9
$DIMTMOVE
 70
     0
  9
$DIMFXL
 40
1.0
  9
$DIMFXLON
 70
     0
  9
$DIMJOGANG
 40
0.7853981633974483
  9
$DIMTFILL
 70
     0
  9
$DIMTFILLCLR
 70
     0
  9
$DIMARCSYM
 70
     0
  9
$DIMLTYPE
  6

  9
$DIMLTEX1
  6

  9
$DIMLTEX2
  6

  9
$DIMTXTDIRECTION
 70
     0
  9
$LUNITS
 70
     2
  9
$LUPREC
 70
     4
  9
$SKETCHINC
 40
0.1
  9
$FILLETRAD
 40
0.0
  9
$AUNITS
 70
     0
  9
$AUPREC
 70
     0
  9
$MENU
  1
.
  9
$ELEVATION
 40
0.0
  9
$PELEVATION
 40
0.0
  9
$THICKNESS
 40
0.0
  9
$LIMCHECK
 70
     0
  9
$CHAMFERA
 40
0.0
  9
$CHAMFERB
 40
0.0
  9
$CHAMFERC
 40
0.0
  9
$CHAMFERD
 40
0.0
  9
$SKPOLY
 70
     0
  9
$TDCREATE
 40
2453354.050451389
  9
$TDUCREATE
 40
2453353.717125822
  9
$TDUPDATE
 40
2460607.479513889
  9
$TDUUPDATE
 40
2460607.146180556
  9
$TDINDWG
 40
16384.3223762384
  9
$TDUSRTIMER
 40
16384.3222372107
  9
$USRTIMER
 70
     1
  9
$ANGBASE
 50
0.0
  9
$ANGDIR
 70
     0
  9
$PDMODE
 70
     0
  9
$PDSIZE
 40
0.0
  9
$PLINEWID
 40
0.0
  9
$SPLFRAME
 70
     0
  9
$SPLINETYPE
 70
     6
  9
$SPLINESEGS
 70
     8
  9
$HANDSEED
  5
138
  9
$SURFTAB1
 70
     6
  9
$SURFTAB2
 70
     6
  9
$SURFTYPE
 70
     6
  9
$SURFU
 70
     6
  9
$SURFV
 70
     6
  9
$UCSBASE
  2

  9
$UCSNAME
  2

  9
$UCSORG
 10
0.0
 20
0.0
 30
0.0
  9
$UCSXDIR
 10
1.0
 20
0.0
 30
0.0
  9
$UCSYDIR
 10
0.0
 20
1.0
 30
0.0
  9
$UCSORTHOREF
  2

  9
$UCSORTHOVIEW
 70
     0
  9
$UCSORGTOP
 10
0.0
 20
0.0
 30
0.0
  9
$UCSORGBOTTOM
 10
0.0
 20
0.0
 30
0.0
  9
$UCSORGLEFT
 10
0.0
 20
0.0
 30
0.0
  9
$UCSORGRIGHT
 10
0.0
 20
0.0
 30
0.0
  9
$UCSORGFRONT
 10
0.0
 20
0.0
 30
0.0
  9
$UCSORGBACK
 10
0.0
 20
0.0
 30
0.0
  9
$PUCSBASE
  2

  9
$PUCSNAME
  2

  9
$PUCSORG
 10
0.0
 20
0.0
 30
0.0
  9
$PUCSXDIR
 10
1.0
 20
0.0
 30
0.0
  9
$PUCSYDIR
 10
0.0
 20
1.0
 30
0.0
  9
$PUCSORTHOREF
  2

  9
$PUCSORTHOVIEW
 70
     0
  9
$PUCSORGTOP
 10
0.0
 20
0.0
 30
0.0
  9
$PUCSORGBOTTOM
 10
0.0
 20
0.0
 30
0.0
  9
$PUCSORGLEFT
 10
0.0
 20
0.0
 30
0.0
  9
$PUCSORGRIGHT
 10
0.0
 20
0.0
 30
0.0
  9
$PUCSORGFRONT
 10
0.0
 20
0.0
 30
0.0
  9
$PUCSORGBACK
 10
0.0
 20
0.0
 30
0.0
  9
$USERI1
 70
     0
  9
$USERI2
 70
     0
  9
$USERI3
 70
     0
  9
$USERI4
 70
     0
  9
$USERI5
 70
 32767
  9
$USERR1
 40
0.0
  9
$USERR2
 40
0.0
  9
$USERR3
 40
0.0
  9
$USERR4
 40
0.0
  9
$USERR5
 40
0.0
  9
$WORLDVIEW
 70
     1
  9
$SHADEDGE
 70
     3
  9
$SHADEDIF
 70
    70
  9
$TILEMODE
 70
     1
  9
$MAXACTVP
 70
    16
  9
$PINSBASE
 10
0.0
 20
0.0
 30
0.0
  9
$PLIMCHECK
 70
     0
  9
$PEXTMIN
 10
0.0
 20
0.0
 30
0.0
  9
$PEXTMAX
 10
0.0
 20
0.0
 30
0.0
  9
$PLIMMIN
 10
0.0
 20
0.0
  9
$PLIMMAX
 10
0.0
 20
0.0
  9
$UNITMODE
 70
     0
  9
$VISRETAIN
 70
     0
  9
$PLINEGEN
 70
     0
  9
$PSLTSCALE
 70
     0
  9
$TREEDEPTH
 70
  3020
  9
$CMLSTYLE
  2
Standard
  9
$CMLJUST
 70
     0
  9
$CMLSCALE
 40
1.0
  9
$PROXYGRAPHICS
 70
     1
  9
$MEASUREMENT
 70
     0
  9
$CELWEIGHT
370
    -1
  9
$ENDCAPS
280
     0
  9
$JOINSTYLE
280
     0
  9
$LWDISPLAY
290
     0
  9
$INSUNITS
 70
     0
  9
$HYPERLINKBASE
  1

  9
$STYLESHEET
  1

  9
$XEDIT
290
     1
  9
$CEPSNTYPE
380
     0
  9
$PSTYLEMODE
290
     1
  9
$FINGERPRINTGUID
  2
{08558D12-2749-DC40-AE9E-3579E1AC0EA9}
  9
$VERSIONGUID
  2
{2BF848B3-C8EC-446C-9AF0-C3E910DF207B}
  9
$EXTNAMES
290
     1
  9
$PSVPSCALE
 40
0.0
  9
$OLESTARTUP
290
     0
  9
$SORTENTS
280
   127
  9
$INDEXCTL
280
     0
  9
$HIDETEXT
280
     1
  9
$XCLIPFRAME
280
     2
  9
$HALOGAP
280
     0
  9
$OBSCOLOR
 70
   257
  9
$OBSLTYPE
280
     0
  9
$INTERSECTIONDISPLAY
280
     0
  9
$INTERSECTIONCOLOR
 70
   257
  9
$DIMASSOC
280
     0
  9
$PROJECTNAME
  1

  9
$CAMERADISPLAY
290
     0
  9
$LENSLENGTH
 40
50.0
  9
$CAMERAHEIGHT
 40
0.0
  9
$STEPSPERSEC
 40
2.0
  9
$STEPSIZE
 40
6.0
  9
$3DDWFPREC
 40
2.0
  9
$PSOLWIDTH
 40
0.25
  9
$PSOLHEIGHT
 40
4.0
  9
$LOFTANG1
 40
1.570796326794896
  9
$LOFTANG2
 40
1.570796326794896
  9
$LOFTMAG1
 40
0.0
  9
$LOFTMAG2
 40
0.0
  9
$LOFTPARAM
 70
     7
  9
$LOFTNORMALS
280
     1
  9
$LATITUDE
 40
37.795
  9
$LONGITUDE
 40
-122.394
  9
$NORTHDIRECTION
 40
0.0
  9
$TIMEZONE
 70
 -8000
  9
$LIGHTGLYPHDISPLAY
280
     1
  9
$TILEMODELIGHTSYNCH
280
     1
  9
$CMATERIAL
347
34
  9
$SOLIDHIST
280
     0
  9
$SHOWHIST
280
     1
  9
$DWFFRAME
280
     2
  9
$DGNFRAME
280
     0
  9
$REALWORLDSCALE
290
     1
  9
$INTERFERECOLOR
 62
     1
  9
$INTERFEREOBJVS
345
59
  9
$INTERFEREVPVS
346
5A
  9
$CSHADOW
280
     0
  9
$SHADOWPLANELOCATION
 40
0.0
  0
ENDSEC
  0
SECTION
  2
CLASSES
  0
CLASS
  1
ACDBDICTIONARYWDFLT
  2
AcDbDictionaryWithDefault
  3
ObjectDBX Classes
 90
        0
 91
        1
280
     0
281
     0
  0
CLASS
  1
DICTIONARYVAR
  2
AcDbDictionaryVar
  3
ObjectDBX Classes
 90
        0
 91
       12
280
     0
281
     0
  0
CLASS
  1
TABLESTYLE
  2
AcDbTableStyle
  3
ObjectDBX Classes
 90
     4095
 91
        1
280
     0
281
     0
  0
CLASS
  1
SORTENTSTABLE
  2
AcDbSortentsTable
  3
ObjectDBX Classes
 90
        0
 91
        2
280
     0
281
     0
  0
CLASS
  1
MATERIAL
  2
AcDbMaterial
  3
ObjectDBX Classes
 90
     1153
 91
        3
280
     0
281
     0
  0
CLASS
  1
VISUALSTYLE
  2
AcDbVisualStyle
  3
ObjectDBX Classes
 90
     4095
 91
        4
280
     0
281
     0
  0
CLASS
  1
SCALE
  2
AcDbScale
  3
ObjectDBX Classes
 90
     1153
 91
       17
280
     0
281
     0
  0
CLASS
  1
MLEADERSTYLE
  2
AcDbMLeaderStyle
  3
ACDB_MLEADERSTYLE_CLASS
 90
     4095
 91
        0
280
     0
281
     0
  0
CLASS
  1
ACDBSECTIONVIEWSTYLE
  2
AcDbSectionViewStyle
  3
ObjectDBX Classes
 90
     1025
 91
        0
280
     0
281
     0
  0
CLASS
  1
ACDBDETAILVIEWSTYLE
  2
AcDbDetailViewStyle
  3
ObjectDBX Classes
 90
     1025
 91
        0
280
     0
281
     0
  0
CLASS
  1
CELLSTYLEMAP
  2
AcDbCellStyleMap
  3
ObjectDBX Classes
 90
     1152
 91
        1
280
     0
281
     0
  0
CLASS
  1
SOLID_BACKGROUND
  2
AcDbSolidBackground
  3
SCENEOE
 90
     4095
 91
        0
280
     0
281
     0
  0
CLASS
  1
NPOCOLLECTION
  2
AcDbImpNonPersistentObjectsCollection
  3
ObjectDBX Classes
 90
     1153
 91
        0
280
     0
281
     0
  0
ENDSEC
  0
SECTION
  2
TABLES
  0
TABLE
  2
VPORT
  5
28
330
0
100
AcDbSymbolTable
 70
     1
  0
VPORT
  5
29
330
28
100
AcDbSymbolTableRecord
100
AcDbViewportTableRecord
  2
*Active
 70
     0
 10
0.0
 20
0.0
 11
1.0
 21
1.0
 12
1123.456745534725
 22
211.6112294867003
 13
0.0
 23
0.0
 14
0.1
 24
0.1
 15
0.5
 25
0.5
 16
0.0
 26
0.0
 36
1.0
 17
0.0
 27
0.0
 37
0.0
 40
494.1738688857483
 41
2.570850202429149
 42
50.0
 43
0.0
 44
0.0
 50
0.0
 51
0.0
 71
    16
 72
   500
 73
     1
 74
     1
 75
     0
 76
     0
 77
     0
 78
     0
281
     0
 65
     1
110
0.0
120
0.0
130
0.0
111
1.0
121
0.0
131
0.0
112
0.0
122
1.0
132
0.0
 79
     0
146
0.0
348
2A
 60
     3
 61
     5
292
     1
282
     1
141
0.0
142
0.0
 63
   250
421
  3355443
1001
ACAD_NAV_VCDISPLAY
1070
     3
  0
ENDTAB
  0
TABLE
  2
LTYPE
  5
23
330
0
100
AcDbSymbolTable
 70
     3
  0
LTYPE
  5
24
330
23
100
AcDbSymbolTableRecord
100
AcDbLinetypeTableRecord
  2
ByBlock
 70
     0
  3

 72
    65
 73
     0
 40
0.0
  0
LTYPE
  5
25
330
23
100
AcDbSymbolTableRecord
100
AcDbLinetypeTableRecord
  2
ByLayer
 70
     0
  3

 72
    65
 73
     0
 40
0.0
  0
LTYPE
  5
17
330
23
100
AcDbSymbolTableRecord
100
AcDbLinetypeTableRecord
  2
Continuous
 70
     0
  3
Solid line
 72
    65
 73
     0
 40
0.0
  0
LTYPE
  5
71
330
23
100
AcDbSymbolTableRecord
100
AcDbLinetypeTableRecord
  2
CENTER
 70
     0
  3
____ _ ____ _ ____ _ ____ _ ____ _ ____ _ ____
 72
    65
 73
     4
 40
2.0
 49
1.25
 74
     4
 75
     0
340
0
 46
1.0
 50
0.0
 44
0.0
 45
0.0
 49
-0.25
 74
     4
 75
     0
340
0
 46
1.0
 50
0.0
 44
0.0
 45
0.0
 49
0.25
 74
     4
 75
     0
340
0
 46
1.0
 50
0.0
 44
0.0
 45
0.0
 49
-0.25
 74
     4
 75
     0
340
0
 46
1.0
 50
0.0
 44
0.0
 45
0.0
  0
LTYPE
  5
77
330
23
100
AcDbSymbolTableRecord
100
AcDbLinetypeTableRecord
  2
HIDDEN
 70
     0
  3
_ _ _ _ _ _ _ _ _ _ _ _ _ _ _ _ _ _ _ _ _ _ _
 72
    65
 73
     2
 40
0.375
 49
0.25
 74
     4
 75
     0
340
0
 46
1.0
 50
0.0
 44
0.0
 45
0.0
 49
-0.125
 74
     4
 75
     0
340
0
 46
1.0
 50
0.0
 44
0.0
 45
0.0
  0
ENDTAB
  0
TABLE
  2
LAYER
  5
1F
330
0
100
AcDbSymbolTable
 70
     6
  0
LAYER
  5
6
102
{ACAD_XDICTIONARY
360
7
102
}
330
1F
100
AcDbSymbolTableRecord
100
AcDbLayerTableRecord
  2
0
 70
     0
 62
     7
  6
Continuous
370
    -3
390
B
347
E
348
0
  0
LAYER
  5
7B
330
1F
100
AcDbSymbolTableRecord
100
AcDbLayerTableRecord
  2
DIM
 70
     0
 62
     7
  6
Continuous
370
    -3
390
B
347
E
348
0
  0
LAYER
  5
6E
102
{ACAD_XDICTIONARY
360
6F
102
}
330
1F
100
AcDbSymbolTableRecord
100
AcDbLayerTableRecord
  2
CEN
 70
     0
 62
     2
  6
CENTER
370
    -3
390
B
347
E
348
0
  0
LAYER
  5
DD
102
{ACAD_XDICTIONARY
360
DE
102
}
330
1F
100
AcDbSymbolTableRecord
100
AcDbLayerTableRecord
  2
LF-LINE
 70
     0
 62
     1
  6
Continuous
370
    -3
390
B
347
E
348
0
  0
LAYER
  5
7D
102
{ACAD_XDICTIONARY
360
7E
102
}
330
1F
100
AcDbSymbolTableRecord
100
AcDbLayerTableRecord
  2
COIN-LINE
 70
     0
 62
     4
  6
Continuous
370
    -3
390
B
347
E
348
0
  0
LAYER
  5
74
102
{ACAD_XDICTIONARY
360
75
102
}
330
1F
100
AcDbSymbolTableRecord
100
AcDbLayerTableRecord
  2
PKG-OUT
 70
     0
 62
     3
  6
HIDDEN
370
    -3
390
B
347
E
348
0
  0
ENDTAB
  0
TABLE
  2
STYLE
  5
20
330
0
100
AcDbSymbolTable
 70
     2
  0
STYLE
  5
21
330
20
100
AcDbSymbolTableRecord
100
AcDbTextStyleTableRecord
  2
Standard
 70
     0
 40
3.0
 41
1.0
 50
0.0
 71
     0
 42
2.5
  3
SIMPLEX
  4

  0
STYLE
  5
55
330
20
100
AcDbSymbolTableRecord
100
AcDbTextStyleTableRecord
  2
SIMPLEX
 70
     0
 40
3.0
 41
1.0
 50
0.0
 71
     0
 42
2.5
  3
SIMPLEX.shx
  4

  0
ENDTAB
  0
TABLE
  2
VIEW
  5
26
330
0
100
AcDbSymbolTable
 70
     0
  0
ENDTAB
  0
TABLE
  2
UCS
  5
27
330
0
100
AcDbSymbolTable
 70
     0
  0
ENDTAB
  0
TABLE
  2
APPID
  5
2D
330
0
100
AcDbSymbolTable
 70
     2
  0
APPID
  5
2E
330
2D
100
AcDbSymbolTableRecord
100
AcDbRegAppTableRecord
  2
ACAD
 70
     0
  0
APPID
  5
2C
330
2D
100
AcDbSymbolTableRecord
100
AcDbRegAppTableRecord
  2
ACAD_NAV_VCDISPLAY
 70
     0
  0
ENDTAB
  0
TABLE
  2
DIMSTYLE
  5
2F
330
0
100
AcDbSymbolTable
 70
     1
100
AcDbDimStyleTable
 71
     0
  0
DIMSTYLE
105
5B
330
2F
100
AcDbSymbolTableRecord
100
AcDbDimStyleTableRecord
  2
Standard
 70
     0
340
21
  0
ENDTAB
  0
TABLE
  2
BLOCK_RECORD
  5
1
330
0
100
AcDbSymbolTable
 70
     1
  0
BLOCK_RECORD
  5
2
102
{ACAD_XDICTIONARY
360
3
102
}
330
1
100
AcDbSymbolTableRecord
100
AcDbBlockTableRecord
  2
*Model_Space
340
19
 70
     0
280
     1
281
     0
  0
BLOCK_RECORD
  5
1B
330
1
100
AcDbSymbolTableRecord
100
AcDbBlockTableRecord
  2
*Paper_Space
340
1E
 70
     0
280
     1
281
     0
  0
BLOCK_RECORD
  5
EF
330
1
100
AcDbSymbolTableRecord
100
AcDbBlockTableRecord
  2
INT1
340
0
102
{BLKREFS
331
EE
102
}
 70
     0
280
     1
281
     0
  0
ENDTAB
  0
ENDSEC
  0
SECTION
  2
BLOCKS
  0
BLOCK
  5
5
330
2
100
AcDbEntity
  8
0
100
AcDbBlockBegin
  2
*Model_Space
 70
     0
 10
0.0
 20
0.0
 30
0.0
  3
*Model_Space
  1

  0
ENDBLK
  5
18
330
2
100
AcDbEntity
  8
0
100
AcDbBlockEnd
  0
BLOCK
  5
1C
330
1B
100
AcDbEntity
 67
     1
  8
0
100
AcDbBlockBegin
  2
*Paper_Space
 70
     0
 10
0.0
 20
0.0
 30
0.0
  3
*Paper_Space
  1

  0
ENDBLK
  5
1D
330
1B
100
AcDbEntity
 67
     1
  8
0
100
AcDbBlockEnd
  0
BLOCK
  5
F0
330
EF
100
AcDbEntity
  8
0
100
AcDbBlockBegin
  2
INT1
 70
     0
 10
0.0
 20
0.0
 30
0.0
  3
INT1
  1

  0
LWPOLYLINE
  5
F1
330
EF
100
AcDbEntity
  8
COIN-LINE
100
AcDbPolyline
 90
        3
 70
     0
 43
0.0
 10
-0.1139999999999688
 20
-0.136999999999948
 10
-0.1139999999999972
 20
-0.1619999999999448
 10
-0.1098989794855569
 20
-0.1619999999999448
  0
LINE
  5
F2
330
EF
100
AcDbEntity
  8
COIN-LINE
100
AcDbLine
 10
-0.136398979485655
 20
-0.0840000000001409
 30
0.0
 11
-0.1545000000000556
 21
-0.0840000000001409
 31
0.0
  0
LWPOLYLINE
  5
F3
330
EF
100
AcDbEntity
  8
COIN-LINE
100
AcDbPolyline
 90
        2
 70
     0
 43
0.0
 10
-0.1020005050888315
 20
0.1650000000000675
 10
-0.1220000000000212
 20
0.1650000000000675
  0
LWPOLYLINE
  5
F4
330
EF
100
AcDbEntity
  8
COIN-LINE
100
AcDbPolyline
 90
        3
 70
     0
 43
0.0
 10
-0.0509999999999593
 20
0.1608989794856264
 10
-0.0509999999999309
 20
0.1650000000000675
 10
-0.0769999999999271
 20
0.1650000000000675
  0
LINE
  5
F5
330
EF
100
AcDbEntity
  8
0
100
AcDbLine
 10
0.1446158809999076
 20
0.1149999999999522
 30
0.0
 11
0.1446158809998508
 21
0.0949999999999136
 31
0.0
  0
LINE
  5
F6
330
EF
100
AcDbEntity
  8
0
100
AcDbLine
 10
0.1034999999999115
 20
0.1150000000000659
 30
0.0
 11
0.1034999999998547
 21
0.0950000000000273
 31
0.0
  0
LINE
  5
F7
330
EF
100
AcDbEntity
  8
0
100
AcDbLine
 10
0.068499999999889
 20
-0.1580000000000528
 30
0.0
 11
0.0684999999998312
 21
-0.1335825756948467
 31
0.0
  0
LINE
  5
F8
330
EF
100
AcDbEntity
  8
0
100
AcDbLine
 10
0.1096158809998708
 20
-0.1579999999999391
 30
0.0
 11
0.1096158809998282
 21
-0.1339999999999577
 31
0.0
  0
LINE
  5
F9
330
EF
100
AcDbEntity
  8
0
100
AcDbLine
 10
0.1446158809999076
 20
-0.0449999999998454
 30
0.0
 11
0.1446158809998508
 21
-0.0249999999998067
 31
0.0
  0
LINE
  5
FA
330
EF
100
AcDbEntity
  8
0
100
AcDbLine
 10
0.1034999999999115
 20
-0.0449999999999591
 30
0.0
 11
0.1034999999998547
 21
-0.0249999999999204
 31
0.0
  0
LINE
  5
FB
330
EF
100
AcDbEntity
  8
0
100
AcDbLine
 10
0.0100000000000478
 20
-0.1681158809999488
 30
0.0
 11
-0.0100000000000478
 21
-0.1681158810000056
 31
0.0
  0
LINE
  5
FC
330
EF
100
AcDbEntity
  8
0
100
AcDbLine
 10
0.0100000000000478
 20
0.1681158809999488
 30
0.0
 11
-0.0100000000000478
 21
0.1681158810000056
 31
0.0
  0
LINE
  5
FD
330
EF
100
AcDbEntity
  8
0
100
AcDbLine
 10
0.1034999999999115
 20
0.0449999999999591
 30
0.0
 11
0.1034999999998547
 21
0.0249999999999204
 31
0.0
  0
LINE
  5
FE
330
EF
100
AcDbEntity
  8
0
100
AcDbLine
 10
0.1446158809999076
 20
0.0449999999998454
 30
0.0
 11
0.1446158809998508
 21
0.0249999999998067
 31
0.0
  0
LINE
  5
FF
330
EF
100
AcDbEntity
  8
0
100
AcDbLine
 10
-0.1269947889999372
 20
-0.0919999999999846
 30
0.0
 11
-0.1269947889998804
 21
-0.1119999999999663
 31
0.0
  0
LINE
  5
100
330
EF
100
AcDbEntity
  8
0
100
AcDbLine
 10
-0.0250000000000558
 20
0.1504947890001574
 30
0.0
 11
-0.0429999999999922
 21
0.1504947890001063
 31
0.0
  0
CIRCLE
  5
101
330
EF
100
AcDbEntity
  8
0
100
AcDbCircle
 10
-0.1295000000000215
 20
-0.1650000000001341
 30
0.0
 40
0.0075000000000003
  0
CIRCLE
  5
102
330
EF
100
AcDbEntity
  8
0
100
AcDbCircle
 10
-0.1429999999999865
 20
-0.0250000000000341
 30
0.0
 40
0.0075000000000003
  0
CIRCLE
  5
103
330
EF
100
AcDbEntity
  8
0
100
AcDbCircle
 10
-0.1429999999999865
 20
0.0350000000000819
 30
0.0
 40
0.0075000000000003
  0
CIRCLE
  5
104
330
EF
100
AcDbEntity
  8
0
100
AcDbCircle
 10
-0.1429999999999865
 20
0.105000000000075
 30
0.0
 40
0.0075000000000003
  0
CIRCLE
  5
105
330
EF
100
AcDbEntity
  8
0
100
AcDbCircle
 10
-0.1295000000000215
 20
0.1650000000001341
 30
0.0
 40
0.0075000000000003
  0
LWPOLYLINE
  5
106
330
EF
100
AcDbEntity
  8
PKG-OUT
100
AcDbPolyline
 90
        4
 70
     0
 43
0.0
 10
0.0935010205144342
 20
0.0209999999999768
 10
0.0885000000000105
 20
0.0209999999999768
 10
0.0885000000000105
 20
-0.0210000000001589
 10
0.0935010205144342
 20
-0.0210000000001554
  0
LWPOLYLINE
  5
107
330
EF
100
AcDbEntity
  8
PKG-OUT
100
AcDbPolyline
 90
        4
 70
     0
 43
0.0
 10
0.0935010205144342
 20
-0.0490000000001301
 10
0.0885000000000105
 20
-0.0490000000001301
 10
0.0885000000000105
 20
-0.0910000000002658
 10
0.0935010205144342
 20
-0.0910000000002623
  0
LWPOLYLINE
  5
108
330
EF
100
AcDbEntity
  8
PKG-OUT
100
AcDbPolyline
 90
        4
 70
     0
 43
0.0
 10
0.0944999999999112
 20
-0.1169999999999627
 10
0.0944999999998757
 20
-0.1119999999999628
 10
0.0694999999998629
 20
-0.1119999999999468
 10
0.0694999999999055
 20
-0.1171010205143892
  0
LINE
  5
109
330
EF
100
AcDbEntity
  8
0
100
AcDbLine
 10
0.068499999999889
 20
0.1580000000000528
 30
0.0
 11
0.0684999999998312
 21
0.1335825756948467
 31
0.0
  0
LINE
  5
10A
330
EF
100
AcDbEntity
  8
0
100
AcDbLine
 10
0.1096158809998708
 20
0.1579999999999391
 30
0.0
 11
0.1096158809998282
 21
0.1339999999999577
 31
0.0
  0
LINE
  5
10B
330
EF
100
AcDbEntity
  8
COIN-LINE
100
AcDbLine
 10
-0.1490000000000009
 20
0.0032148330839634
 30
0.0
 11
-0.1490000000000009
 21
-0.0205000000000517
 31
0.0
  0
LINE
  5
10C
330
EF
100
AcDbEntity
  8
COIN-LINE
100
AcDbLine
 10
-0.1490000000000009
 20
0.0637148330840578
 30
0.0
 11
-0.1490000000000009
 21
0.0395000000000607
 31
0.0
  0
LINE
  5
10D
330
EF
100
AcDbEntity
  8
COIN-LINE
100
AcDbLine
 10
-0.1490000000000009
 20
0.1005000000000944
 30
0.0
 11
-0.1490000000000009
 21
0.0762851669159872
 31
0.0
  0
LINE
  5
10E
330
EF
100
AcDbEntity
  8
COIN-LINE
100
AcDbLine
 10
-0.1490000000000009
 20
0.0305000000001021
 30
0.0
 11
-0.1490000000000009
 21
0.0155574600960495
 31
0.0
  0
LINE
  5
10F
330
EF
100
AcDbEntity
  8
COIN-LINE
100
AcDbLine
 10
-0.1490000000000009
 20
-0.0295000000000183
 30
0.0
 11
-0.1490000000000009
 21
-0.0450000000000479
 31
0.0
  0
LINE
  5
110
330
EF
100
AcDbEntity
  8
COIN-LINE
100
AcDbLine
 10
-0.1490000000000009
 20
0.1337148330841078
 30
0.0
 11
-0.1490000000000009
 21
0.1095000000000548
 31
0.0
  0
LINE
  5
111
330
EF
100
AcDbEntity
  8
0
100
AcDbLine
 10
0.1446158809999574
 20
-0.1150000000002631
 30
0.0
 11
0.1446158809999005
 21
-0.0950000000002245
 31
0.0
  0
LINE
  5
112
330
EF
100
AcDbEntity
  8
0
100
AcDbLine
 10
0.1034999999999613
 20
-0.1150000000003768
 30
0.0
 11
0.1034999999999044
 21
-0.0950000000003382
 31
0.0
  0
LWPOLYLINE
  5
113
330
EF
100
AcDbEntity
  8
PKG-OUT
100
AcDbPolyline
 90
        4
 70
     0
 43
0.0
 10
-0.0360000000000014
 20
-0.119500000000329
 10
-0.0360000000000014
 20
-0.1120000000000214
 10
-0.0944999999999539
 20
-0.1119999999999575
 10
-0.0944999999999539
 20
-0.1169890897116685
  0
LWPOLYLINE
  5
114
330
EF
100
AcDbEntity
  8
PKG-OUT
100
AcDbPolyline
 90
        3
 70
     0
 43
0.0
 10
-0.0885000000000247
 20
0.1220000000000478
 10
-0.0884999999999892
 20
-0.0499999999999563
 10
-0.096000000002185
 20
-0.0499999999999545
  0
LWPOLYLINE
  5
115
330
EF
100
AcDbEntity
  8
COIN-LINE
100
AcDbPolyline
 90
        3
 70
     0
 43
0.0
 10
-0.1370000000000218
 20
0.1650000000000675
 10
-0.1490000000000009
 20
0.1650000000000675
 10
-0.1490000000000009
 20
0.1462851669160372
  0
LINE
  5
116
330
EF
100
AcDbEntity
  8
0
100
AcDbLine
 10
-0.1034999999998973
 20
-0.1120000000000232
 30
0.0
 11
-0.1034999999999897
 21
-0.0920000000000982
 31
0.0
  0
LWPOLYLINE
  5
117
330
EF
100
AcDbEntity
  8
PKG-OUT
100
AcDbPolyline
 90
        4
 70
     1
 43
0.0
 10
0.1749999999999972
 20
-0.1999999999999318
 10
0.1749999999999972
 20
0.2000000000000455
 10
-0.1749999999999972
 20
0.2000000000000455
 10
-0.1749999999999972
 20
-0.1999999999999318
  0
LWPOLYLINE
  5
118
330
EF
100
AcDbEntity
  8
PKG-OUT
100
AcDbPolyline
 90
        4
 70
     0
 43
0.0
 10
0.0935010205144342
 20
0.09099999999997
 10
0.0885000000000105
 20
0.09099999999997
 10
0.0885000000000105
 20
0.0489999999998343
 10
0.0935010205144342
 20
0.0489999999998378
  0
LWPOLYLINE
  5
119
330
EF
100
AcDbEntity
  8
PKG-OUT
100
AcDbPolyline
 90
        4
 70
     0
 43
0.0
 10
0.0944999999999112
 20
0.1169999999999618
 10
0.0944999999998757
 20
0.1119999999999628
 10
0.0694999999998629
 20
0.1119999999999459
 10
0.0694999999999055
 20
0.1171010205143883
  0
LINE
  5
11A
330
EF
100
AcDbEntity
  8
0
100
AcDbLine
 10
-0.1234999999999218
 20
-0.132000000000005
 30
0.0
 11
-0.1234999999999218
 21
-0.132000000000005
 31
0.0
  0
LINE
  5
11B
330
EF
100
AcDbEntity
  8
0
100
AcDbLine
 10
0.0099999999999767
 20
-0.1270000000000664
 30
0.0
 11
-0.0130000000000195
 21
-0.1270000000000211
 31
0.0
  0
LINE
  5
11C
330
EF
100
AcDbEntity
  8
0
100
AcDbLine
 10
-0.0100000000000122
 20
0.1270000000001215
 30
0.0
 11
0.0099999999999838
 21
0.1270000000000717
 31
0.0
  0
LWPOLYLINE
  5
11D
330
EF
100
AcDbEntity
  8
0
100
AcDbPolyline
 90
       18
 70
     1
 43
0.0
 10
0.1606000000000165
 20
-0.1649999999999636
 42
-0.4142135623730951
 10
0.155600000000021
 20
-0.1599999999999682
 10
0.1556000000000068
 20
-0.1389999999999532
 42
0.4142135623730951
 10
0.1506000000000114
 20
-0.1339999999999577
 10
0.0704999999999885
 20
-0.1339999999999577
 42
-0.4142135623738496
 10
0.065499999999993
 20
-0.1289999999999623
 10
0.0654999999999433
 20
-0.1219999999999839
 42
-0.3563939586921863
 10
0.0694999999999055
 20
-0.1171010205143901
 10
0.0694999999999411
 20
-0.1220000000000754
 10
0.0944999999999468
 20
-0.1219999999999306
 10
0.0944999999999112
 20
-0.1169999999999627
 10
0.0955000000005697
 20
-0.1169999999999582
 42
0.1622776601272174
 10
0.0984999999991701
 20
-0.1159999999994214
 42
-0.1622776601284912
 10
0.101499999998552
 20
-0.1149999999998901
 10
0.1800000000000494
 20
-0.1149999999999522
 42
-0.414213562373069
 10
0.1850000000000449
 20
-0.1199999999999477
 10
0.1850000000000449
 20
-0.1599999999999682
 42
-0.4142135623730561
 10
0.1800000000000494
 20
-0.1649999999999636
  0
LWPOLYLINE
  5
11E
330
EF
100
AcDbEntity
  8
0
100
AcDbPolyline
 90
       18
 70
     1
 43
0.0
 10
0.1606000000000165
 20
0.1649999999999636
 42
0.4142135623730951
 10
0.155600000000021
 20
0.1599999999999682
 10
0.1556000000000068
 20
0.1389999999999532
 42
-0.4142135623730951
 10
0.1506000000000114
 20
0.1339999999999577
 10
0.0704999999999885
 20
0.1339999999999577
 42
0.4142135623738496
 10
0.065499999999993
 20
0.1289999999999623
 10
0.0654999999999433
 20
0.1219999999999821
 42
0.3563939586921863
 10
0.0694999999999055
 20
0.1171010205143901
 10
0.0694999999999411
 20
0.1220000000000745
 10
0.0944999999999468
 20
0.1219999999999297
 10
0.0944999999999112
 20
0.1169999999999618
 10
0.0955000000005697
 20
0.1169999999999565
 42
-0.1622776601272174
 10
0.0984999999991701
 20
0.1159999999994206
 42
0.1622776601284912
 10
0.101499999998552
 20
0.1149999999998892
 10
0.1800000000000494
 20
0.1149999999999522
 42
0.414213562373069
 10
0.1850000000000449
 20
0.1199999999999477
 10
0.1850000000000449
 20
0.1599999999999682
 42
0.4142135623730561
 10
0.1800000000000494
 20
0.1649999999999627
  0
LWPOLYLINE
  5
11F
330
EF
100
AcDbEntity
  8
0
100
AcDbPolyline
 90
       21
 70
     0
 43
0.0
 10
0.0075999999382503
 20
-0.1957291684587403
 42
0.2617284141759793
 10
0.0099999999999909
 20
-0.1914583371203662
 10
0.0099999999999838
 20
-0.1270000000000717
 42
-0.4142135623720773
 10
0.0149999999999651
 20
-0.1220000000000709
 10
0.0304999999999822
 20
-0.1220000000000141
 42
-0.4142135623738395
 10
0.0355000000000061
 20
-0.1270000000000087
 10
0.0355000000000416
 20
-0.1530000000000573
 42
0.4142135623730951
 10
0.0405000000000371
 20
-0.1580000000000528
 10
0.1185999999999865
 20
-0.1579999999999959
 42
-0.4142135623730951
 10
0.1235999999999819
 20
-0.1629999999999914
 10
0.1235999999999819
 20
-0.17999999999995
 42
0.4142135623730951
 10
0.1285999999999774
 20
-0.1849999999999454
 10
0.1800000000000352
 20
-0.1849999999999454
 42
-0.4142135623730951
 10
0.1850000000000307
 20
-0.1899999999999409
 10
0.1850000000000307
 20
-0.2119999999999891
 42
-0.414213562373017
 10
0.1800000000000352
 20
-0.2169999999999836
 10
0.0109999999999957
 20
-0.2169999999999845
 42
-0.4142135623730951
 10
0.0060000000000002
 20
-0.2119999999999891
 10
0.0059999999999931
 20
-0.2039191835852101
 42
0.1010205143582713
 10
0.0056000000005696
 20
-0.2019595917923569
 42
-0.3726004620289645
 10
0.0076000000617213
 20
-0.1957291686616047
  0
LWPOLYLINE
  5
120
330
EF
100
AcDbEntity
  8
0
100
AcDbPolyline
 90
       30
 70
     0
 43
0.0
 10
0.0076000000620557
 20
0.1957291686614003
 42
-0.7581321936034824
 10
0.0102000000002882
 20
0.2050000000000436
 10
0.0428000000000023
 20
0.2050000000000436
 42
0.4142135623730951
 10
0.0478000000000023
 20
0.2100000000000436
 10
0.0478000000000023
 20
0.240000000000041
 42
-0.4142135623730955
 10
0.0528000000000023
 20
0.2450000000000409
 10
0.1412000000000003
 20
0.2450000000000392
 42
-0.4142135623730918
 10
0.1462000000000003
 20
0.2400000000000392
 10
0.1462000000000003
 20
0.2100000000000427
 42
0.4142135623730951
 10
0.1512000000000003
 20
0.2050000000000428
 10
0.1599999999999991
 20
0.2050000000000433
 42
0.4142135623730966
 10
0.1649999999999992
 20
0.2100000000000436
 10
0.1650000000000024
 20
0.2549999999999989
 42
-0.4142135623730935
 10
0.1700000000000027
 20
0.2599999999999861
 10
0.1800000000000307
 20
0.259999999999923
 42
-0.4142135623730951
 10
0.185000000000018
 20
0.2549999999998977
 10
0.1850000000000307
 20
0.1899999999999409
 42
-0.4142135623730951
 10
0.1800000000000352
 20
0.1849999999999454
 10
0.1285999999999774
 20
0.1849999999999454
 42
0.4142135623730951
 10
0.1235999999999819
 20
0.17999999999995
 10
0.1235999999999819
 20
0.1629999999999914
 42
-0.4142135623730951
 10
0.1185999999999865
 20
0.1579999999999959
 10
0.0405000000000371
 20
0.1580000000000528
 42
0.4142135623730951
 10
0.0355000000000416
 20
0.1530000000000573
 10
0.0355000000000132
 20
0.1270000000000078
 42
-0.4142135623738496
 10
0.0304999999999893
 20
0.1220000000000141
 10
0.0149999999999651
 20
0.1220000000000709
 42
-0.4142135623719244
 10
0.0099999999999838
 20
0.1270000000000717
 10
0.0099999999999909
 20
0.1914583371203662
 42
0.2617284141759793
 10
0.0075999999382503
 20
0.1957291684587403
  0
LWPOLYLINE
  5
121
330
EF
100
AcDbEntity
  8
0
100
AcDbPolyline
 90
       10
 70
     1
 43
0.0
 10
0.0984000000000085
 20
-0.0450000000001296
 42
0.3563939586926287
 10
0.0935010205144342
 20
-0.0490000000001264
 10
0.0984999999999943
 20
-0.0490000000001301
 10
0.0984999999999516
 20
-0.0910000000002587
 10
0.0935010205144342
 20
-0.0910000000002623
 42
0.3563939586926287
 10
0.0984000000000085
 20
-0.0950000000002591
 10
0.1800000000000352
 20
-0.0950000000001978
 42
0.4142135623731212
 10
0.1850000000000307
 20
-0.0900000000002024
 10
0.1850000000000307
 20
-0.0500000000001251
 42
0.4142135623730625
 10
0.1800000000000352
 20
-0.0450000000001296
  0
LWPOLYLINE
  5
122
330
EF
100
AcDbEntity
  8
0
100
AcDbPolyline
 90
       10
 70
     1
 43
0.0
 10
0.0984000000000085
 20
0.0249999999999773
 42
0.3563939586926287
 10
0.0935010205144342
 20
0.0209999999999805
 10
0.0984999999999943
 20
0.0209999999999768
 10
0.0984999999999516
 20
-0.0210000000001518
 10
0.0935010205144342
 20
-0.0210000000001554
 42
0.3563939586926287
 10
0.0984000000000085
 20
-0.0250000000001523
 10
0.1800000000000352
 20
-0.025000000000091
 42
0.4142135623731212
 10
0.1850000000000307
 20
-0.0200000000000955
 10
0.1850000000000307
 20
0.0199999999999818
 42
0.4142135623730625
 10
0.1800000000000352
 20
0.0249999999999773
  0
LWPOLYLINE
  5
123
330
EF
100
AcDbEntity
  8
0
100
AcDbPolyline
 90
       10
 70
     1
 43
0.0
 10
0.0984000000000085
 20
0.0949999999999705
 42
0.3563939586926287
 10
0.0935010205144342
 20
0.0909999999999736
 10
0.0984999999999943
 20
0.09099999999997
 10
0.0984999999999516
 20
0.0489999999998414
 10
0.0935010205144342
 20
0.0489999999998378
 42
0.3563939586926287
 10
0.0984000000000085
 20
0.0449999999998409
 10
0.1800000000000352
 20
0.0449999999999022
 42
0.4142135623731212
 10
0.1850000000000307
 20
0.0499999999998977
 10
0.1850000000000307
 20
0.089999999999975
 42
0.4142135623730625
 10
0.1800000000000352
 20
0.0949999999999705
  0
LINE
  5
124
330
EF
100
AcDbEntity
  8
0
100
AcDbLine
 10
-0.024999999999989
 20
0.1270000000001232
 30
0.0
 11
-0.0429999999999709
 21
0.1270000000001872
 31
0.0
  0
LWPOLYLINE
  5
125
330
EF
100
AcDbEntity
  8
0
100
AcDbPolyline
 90
      141
 70
     1
 43
0.0
 10
-0.0479999999999592
 20
0.1220000000001837
 10
-0.0905000000000485
 20
0.1220000000000407
 42
0.4142135623720384
 10
-0.0985000000000227
 20
0.1140000000000398
 10
-0.0984999999999943
 20
-0.0499999999999608
 10
-0.096000000002185
 20
-0.0499999999999554
 42
0.2679491924118827
 10
-0.0984999999999943
 20
-0.0543301270176127
 10
-0.0984999999999872
 20
-0.0870000000000975
 42
-0.414213562373069
 10
-0.1034999999999897
 20
-0.0920000000000982
 10
-0.1315000000000737
 20
-0.0920000000000982
 42
-0.4142135623728089
 10
-0.1365000000000762
 20
-0.0870000000001135
 10
-0.1365000000000833
 20
-0.0850000000001501
 42
-0.4142135623742658
 10
-0.1315000000000737
 20
-0.0800000000001511
 10
-0.1184999999999974
 20
-0.0800000000002115
 42
0.4142135623735893
 10
-0.1134999999999806
 20
-0.075000000000216
 10
-0.1134999999999948
 20
-0.0570000000001398
 10
-0.1495000000001028
 20
-0.0570000000000732
 42
0.4142135623740836
 10
-0.1545000000001053
 20
-0.0620000000000793
 10
-0.154500000000013
 20
-0.1120000000000232
 10
-0.1028301270176186
 20
-0.1120000000000232
 42
-0.2679491924096354
 10
-0.0984999999989
 20
-0.1144999999996754
 42
0.2503212789185041
 10
-0.0944999999999539
 20
-0.1169890897116712
 10
-0.0944999999999539
 20
-0.1219999999999572
 10
-0.0360000000000014
 20
-0.1220000000000052
 10
-0.0360000000000014
 20
-0.119500000000329
 42
0.2679491924111037
 10
-0.0316698729812686
 20
-0.1220000000000097
 10
-0.0180000000000149
 20
-0.1220000000000212
 42
-0.4142135623726789
 10
-0.0130000000000195
 20
-0.1270000000000211
 10
-0.0130000000000123
 20
-0.1299174243049883
 42
-0.2982166266981356
 10
-0.0100000000000122
 20
-0.1344999999999388
 10
-0.0099999999999625
 20
-0.1914583373991299
 42
0.26172841028319
 10
-0.0076000000001244
 20
-0.1957291686991063
 42
-0.3726004578608429
 10
-0.0056000000007188
 20
-0.2019595917911214
 42
0.1010205143416071
 10
-0.0060000000000002
 20
-0.2039191835836736
 10
-0.0059999999999647
 20
-0.2119999999999322
 42
-0.4142135623734852
 10
-0.0109999999999673
 20
-0.2169999999999277
 10
-0.1800000000000068
 20
-0.2169999999999899
 42
-0.4142135623733812
 10
-0.1850000000000023
 20
-0.2119999999999891
 10
-0.1849999999999809
 20
-0.1900000000000528
 42
-0.4142135623730431
 10
-0.1799999999999784
 20
-0.1850000000000653
 10
-0.1149999999999878
 20
-0.1850000000000644
 42
0.4142135623729131
 10
-0.1099999999999994
 20
-0.1800000000000637
 10
-0.1100000000000065
 20
-0.1630000000000109
 42
-0.4142135623731731
 10
-0.105000000000004
 20
-0.1580000000000217
 10
-0.0399999999999494
 20
-0.1579999999999639
 42
0.4142135623733812
 10
-0.034999999999954
 20
-0.1529999999999632
 10
-0.0349999999999824
 20
-0.1369999999999436
 10
-0.1184999999998979
 20
-0.1369999999999489
 42
-0.4142135623724447
 10
-0.1234999999999218
 20
-0.132000000000005
 42
0.4142135623732771
 10
-0.1284999999999314
 20
-0.1270000000000078
 10
-0.1490000000000151
 20
-0.1270000000000664
 10
-0.1489999999999654
 20
-0.1599999999999611
 42
-0.4142135623717163
 10
-0.1539999999999537
 20
-0.1649999999999672
 10
-0.1799999999999784
 20
-0.1650000000000826
 42
-0.4142135623749942
 10
-0.1850000000000023
 20
-0.1600000000000818
 10
-0.1850000000000378
 20
-0.0500000000000114
 42
-0.4142135623728609
 10
-0.180000000000021
 20
-0.045000000000015
 10
-0.123500000000007
 20
-0.0450000000000728
 10
-0.1235000000000355
 20
0.0034999999999172
 10
-0.147335563461823
 20
0.0034999999999208
 42
0.327209884521385
 10
-0.152103476787488
 20
0.000005656839619
 10
-0.1588965232125972
 20
-0.0215056568397856
 42
-0.3272098845209468
 10
-0.1636644365382693
 20
-0.0250000000000963
 10
-0.1800000000000352
 20
-0.0250000000000963
 42
-0.4142135623724967
 10
-0.1850000000000165
 20
-0.0200000000000955
 10
-0.1850000000000236
 20
0.0200000000000387
 42
-0.4142135623733032
 10
-0.180000000000021
 20
0.0250000000000306
 10
-0.1597558434353914
 20
0.0250000000000377
 42
-0.2573348155904533
 10
-0.155528398920211
 20
0.0226699649569469
 10
-0.1524716010798954
 20
0.0178300350430121
 42
0.2573348155898767
 10
-0.148244156564715
 20
0.0154999999999195
 10
-0.1234999999999928
 20
0.0154999999998609
 10
-0.1234999999999928
 20
0.0640000000000214
 10
-0.1473355634617732
 20
0.0640000000000249
 42
0.327209884522635
 10
-0.1521034767874596
 20
0.0605056568397213
 10
-0.1558965232124976
 20
0.0484943431603284
 42
-0.3272098845219721
 10
-0.1606644365381697
 20
0.0450000000000124
 10
-0.1799999999999926
 20
0.0450000000000106
 42
-0.4142135623733294
 10
-0.184999999999988
 20
0.0500000000000114
 10
-0.1849999999999952
 20
0.0900000000000887
 42
-0.414213562371144
 10
-0.1800000000000068
 20
0.0950000000000841
 10
-0.1606644365382337
 20
0.0950000000002014
 42
-0.3272098845247546
 10
-0.155896523212526
 20
0.0915056568398445
 10
-0.1521034767874738
 20
0.0794943431603512
 42
0.3272098845235575
 10
-0.1473355634617803
 20
0.0760000000000192
 10
-0.1235000000000213
 20
0.075999999999965
 10
-0.1235000000000141
 20
0.1240000000000805
 10
-0.1320355339059418
 20
0.1325355339060046
 42
0.1989123673796581
 10
-0.135571067811874
 20
0.1340000000000714
 10
-0.1473355634617732
 20
0.1340000000000749
 42
0.3272098845226354
 10
-0.1521034767874596
 20
0.1305056568397713
 10
-0.1561172185700101
 20
0.1177954745282692
 42
-0.3272098845232707
 10
-0.1599315492305493
 20
0.1150000000000091
 10
-0.1800000000000281
 20
0.1150000000000038
 42
-0.4142135623716643
 10
-0.1849999999999952
 20
0.1200000000000045
 10
-0.1849999999999952
 20
0.1600000000001387
 42
-0.4142135623733032
 10
-0.1799999999999926
 20
0.1650000000001306
 10
-0.1599315492305422
 20
0.1650000000001341
 42
-0.327209884522349
 10
-0.1561172185700101
 20
0.1622045254718696
 10
-0.1521034767874738
 20
0.1494943431604012
 42
0.3272098845235583
 10
-0.1473355634617803
 20
0.1460000000000692
 10
-0.1269749371854942
 20
0.1460000000000718
 42
-0.3851703882101613
 10
-0.1220000000012149
 20
0.1415000000000308
 42
0.3851703882099898
 10
-0.1170250628156921
 20
0.1370000000001141
 10
-0.1019999999999754
 20
0.1370000000001141
 10
-0.1019999999999257
 20
0.1649289321880367
 42
0.1989123673795694
 10
-0.103464466093989
 20
0.1684644660939725
 10
-0.1199999999999051
 20
0.1849999999999374
 10
-0.1799999999999784
 20
0.1850000000000591
 42
-0.4142135623719505
 10
-0.1849999999999667
 20
0.1900000000000554
 10
-0.1849999999999458
 20
0.2549999999998977
 42
-0.4142135623730951
 10
-0.1800000000000307
 20
0.2599999999999103
 10
-0.1700000000000027
 20
0.2599999999999736
 42
-0.4142135623730935
 10
-0.1649999999999899
 20
0.2549999999999989
 10
-0.1649999999999995
 20
0.2100000000000436
 42
0.4142135623730967
 10
-0.1599999999999991
 20
0.2050000000000436
 10
-0.1512000000000003
 20
0.2050000000000429
 42
0.4142135623730951
 10
-0.1462000000000002
 20
0.2100000000000427
 10
-0.1462000000000003
 20
0.2400000000000392
 42
-0.4142135623730951
 10
-0.1412000000000003
 20
0.2450000000000392
 10
-0.0528000000000023
 20
0.2450000000000409
 42
-0.4142135623730955
 10
-0.0478000000000023
 20
0.240000000000041
 10
-0.0478000000000023
 20
0.2100000000000436
 42
0.4142135623730951
 10
-0.0428000000000023
 20
0.2050000000000436
 10
-0.0102000000004308
 20
0.2049999999976756
 42
-0.7581321878974855
 10
-0.0076000000004582
 20
0.1957291686988821
 42
0.2617284102852526
 10
-0.009999999999998
 20
0.1914583373983509
 10
-0.0100000000000122
 20
0.1270000000001215
 42
-0.4142135623755144
 10
-0.0150000000000432
 20
0.1220000000001349
 10
-0.020000000000022
 20
0.1220000000001224
 42
-0.4142135623716122
 10
-0.024999999999989
 20
0.1270000000001232
 10
-0.0250000000000033
 20
0.1740000000000927
 42
0.4142135623733294
 10
-0.0300000000000058
 20
0.1790000000000855
 10
-0.0769999999998987
 20
0.1790000000000873
 10
-0.0769999999999769
 20
0.1370000000001141
 10
-0.0599999999999597
 20
0.1370000000001088
 42
0.4142135623721847
 10
-0.0549999999999713
 20
0.1420000000001096
 10
-0.05499999999995
 20
0.1560000000000654
 42
-0.4142135623712221
 10
-0.0499999999999474
 20
0.1610000000000644
 10
-0.0480000000000587
 20
0.1610000000000618
 42
-0.4142135623773353
 10
-0.0429999999999922
 20
0.1560000000000627
 10
-0.0429999999999709
 20
0.1270000000001872
 42
-0.4142135623722887
  0
ENDBLK
  5
126
330
EF
100
AcDbEntity
  8
0
100
AcDbBlockEnd
  0
ENDSEC
  0
SECTION
  2
ENTITIES
  0
LINE
  5
6D
330
2
100
AcDbEntity
  8
CEN
100
AcDbLine
 10
1207.662219056365
 20
235.6605838879301
 30
0.0
 11
1252.002996988394
 21
235.6605838879301
 31
0.0
  0
LINE
  5
72
330
2
100
AcDbEntity
  8
CEN
100
AcDbLine
 10
1229.832608022379
 20
257.8309728539449
 30
0.0
 11
1229.832608022379
 21
213.4901949219153
 31
0.0
  0
LWPOLYLINE
  5
73
330
2
100
AcDbEntity
  8
PKG-OUT
100
AcDbPolyline
 90
        4
 70
     1
 43
0.0
 10
1291.082608022378
 20
165.6605838879539
 10
1291.082608022378
 20
305.660583887946
 10
1168.58260802238
 20
305.660583887946
 10
1168.58260802238
 20
165.6605838879539
  0
LWPOLYLINE
  5
78
330
2
100
AcDbEntity
  8
PKG-OUT
100
AcDbPolyline
 90
        7
 70
     0
 43
0.0
 10
1268.892608022373
 20
165.6605838879539
 10
1268.892608022373
 20
169.1605838879209
 42
0.4142135623730951
 10
1261.892608022369
 20
176.1605838879245
 10
1187.132608022384
 20
176.1605838879245
 10
1187.132608022369
 20
191.9105838879301
 10
1286.532608022382
 20
191.9105838879897
 10
1286.532608022382
 20
165.6605838879539
  0
LWPOLYLINE
  5
79
330
2
100
AcDbEntity
  8
PKG-OUT
100
AcDbPolyline
 90
        7
 70
     1
 43
0.0
 10
1273.092608022373
 20
170.9105838879889
 10
1273.092608022373
 20
173.3605838879211
 42
0.4142135623730955
 10
1266.092608022374
 20
180.3605838879246
 10
1191.33260802238
 20
180.3605838879246
 10
1191.332608022374
 20
187.7105838879299
 10
1282.332608022381
 20
187.7105838879895
 10
1282.332608022381
 20
170.9105838879889
  0
LINE
  5
7A
330
2
100
AcDbEntity
  8
DIM
100
AcDbLine
 10
1229.832608022379
 20
258.8309728539449
 30
0.0
 11
1229.832608022379
 21
333.6605838879251
 31
0.0
  0
LINE
  5
7C
330
2
100
AcDbEntity
  8
COIN-LINE
100
AcDbLine
 10
1229.832608022379
 20
333.6605838879251
 30
0.0
 11
1229.832608022379
 21
338.6605838879251
 31
0.0
  0
LINE
  5
80
330
2
100
AcDbEntity
  8
DIM
100
AcDbLine
 10
1229.832608022379
 20
338.6605838879251
 30
0.0
 11
1229.832608022379
 21
361.6605838879251
 31
0.0
  0
TEXT
  5
81
330
2
100
AcDbEntity
  8
DIM
100
AcDbText
 10
1229.332608022379
 20
349.2796315069727
 30
0.0
 40
2.5
  1
0.0000
 50
90.0
  7
SIMPLEX
 72
     2
 11
1229.332608022379
 21
361.6605838879251
 31
0.0
100
AcDbText
  0
LINE
  5
82
330
2
100
AcDbEntity
  8
DIM
100
AcDbLine
 10
1206.662219056364
 20
235.6605838879301
 30
0.0
 11
1158.082608022372
 21
235.6605838879301
 31
0.0
  0
LINE
  5
83
330
2
100
AcDbEntity
  8
COIN-LINE
100
AcDbLine
 10
1158.082608022372
 20
235.6605838879301
 30
0.0
 11
1153.082608022372
 21
235.6605838879301
 31
0.0
  0
LINE
  5
84
330
2
100
AcDbEntity
  8
DIM
100
AcDbLine
 10
1153.082608022372
 20
235.6605838879301
 30
0.0
 11
1130.082608022372
 21
235.6605838879301
 31
0.0
  0
TEXT
  5
85
330
2
100
AcDbEntity
  8
DIM
100
AcDbText
 10
1130.082608022372
 20
236.1605838879301
 30
0.0
 40
2.5
  1
0.0000
  7
SIMPLEX
100
AcDbText
  0
LINE
  5
86
330
2
100
AcDbEntity
  8
DIM
100
AcDbLine
 10
1174.882608022375
 20
297.2105838879506
 30
0.0
 11
1174.882608022375
 21
333.6605838879251
 31
0.0
  0
LINE
  5
87
330
2
100
AcDbEntity
  8
COIN-LINE
100
AcDbLine
 10
1174.882608022375
 20
333.6605838879251
 30
0.0
 11
1174.882608022375
 21
338.6605838879251
 31
0.0
  0
LINE
  5
88
330
2
100
AcDbEntity
  8
DIM
100
AcDbLine
 10
1174.882608022375
 20
338.6605838879251
 30
0.0
 11
1174.882608022375
 21
361.6605838879251
 31
0.0
  0
TEXT
  5
89
330
2
100
AcDbEntity
  8
DIM
100
AcDbText
 10
1174.382608022376
 20
349.7558219831632
 30
0.0
 40
2.5
  1
0.1570
 50
90.0
  7
SIMPLEX
 72
     2
 11
1174.382608022376
 21
361.6605838879251
 31
0.0
100
AcDbText
  0
LINE
  5
8A
330
2
100
AcDbEntity
  8
DIM
100
AcDbLine
 10
1179.082608022376
 20
293.0105838879505
 30
0.0
 11
1179.082608022376
 21
333.6605838879251
 31
0.0
  0
LINE
  5
8B
330
2
100
AcDbEntity
  8
COIN-LINE
100
AcDbLine
 10
1179.082608022376
 20
333.6605838879251
 30
0.0
 11
1179.082608022376
 21
338.6605838879251
 31
0.0
  0
LINE
  5
8C
330
2
100
AcDbEntity
  8
DIM
100
AcDbLine
 10
1179.082608022376
 20
338.6605838879251
 30
0.0
 11
1179.082608022376
 21
361.6605838879251
 31
0.0
  0
TEXT
  5
8D
330
2
100
AcDbEntity
  8
DIM
100
AcDbText
 10
1178.582608022376
 20
349.7558219831632
 30
0.0
 40
2.5
  1
0.1450
 50
90.0
  7
SIMPLEX
 72
     2
 11
1178.582608022376
 21
361.6605838879251
 31
0.0
100
AcDbText
  0
LINE
  5
8E
330
2
100
AcDbEntity
  8
DIM
100
AcDbLine
 10
1186.607608022377
 20
277.6105838879664
 30
0.0
 11
1186.607608022377
 21
333.6605838879251
 31
0.0
  0
LINE
  5
8F
330
2
100
AcDbEntity
  8
COIN-LINE
100
AcDbLine
 10
1186.607608022377
 20
333.6605838879251
 30
0.0
 11
1186.607608022377
 21
338.6605838879251
 31
0.0
  0
LINE
  5
90
330
2
100
AcDbEntity
  8
DIM
100
AcDbLine
 10
1186.607608022377
 20
338.6605838879251
 30
0.0
 11
1186.607608022377
 21
361.6605838879251
 31
0.0
  0
TEXT
  5
91
330
2
100
AcDbEntity
  8
DIM
100
AcDbText
 10
1186.107608022377
 20
349.7558219831632
 30
0.0
 40
2.5
  1
0.1235
 50
90.0
  7
SIMPLEX
 72
     2
 11
1186.107608022377
 21
361.6605838879251
 31
0.0
100
AcDbText
  0
LINE
  5
92
330
2
100
AcDbEntity
  8
DIM
100
AcDbLine
 10
1194.307608022642
 20
273.4105838879961
 30
0.0
 11
1194.307608022642
 21
333.6605838879251
 31
0.0
  0
LINE
  5
93
330
2
100
AcDbEntity
  8
COIN-LINE
100
AcDbLine
 10
1194.307608022642
 20
333.6605838879251
 30
0.0
 11
1194.307608022642
 21
338.6605838879251
 31
0.0
  0
LINE
  5
94
330
2
100
AcDbEntity
  8
DIM
100
AcDbLine
 10
1194.307608022642
 20
338.6605838879251
 30
0.0
 11
1194.307608022642
 21
361.6605838879251
 31
0.0
  0
TEXT
  5
95
330
2
100
AcDbEntity
  8
DIM
100
AcDbText
 10
1193.807608022642
 20
350.2320124593536
 30
0.0
 40
2.5
  1
0.1015
 50
90.0
  7
SIMPLEX
 72
     2
 11
1193.807608022642
 21
361.6605838879251
 31
0.0
100
AcDbText
  0
LINE
  5
96
330
2
100
AcDbEntity
  8
DIM
100
AcDbLine
 10
1268.892608022373
 20
306.660583887946
 30
0.0
 11
1268.892608022373
 21
333.6605838879251
 31
0.0
  0
LINE
  5
97
330
2
100
AcDbEntity
  8
COIN-LINE
100
AcDbLine
 10
1268.892608022373
 20
333.6605838879251
 30
0.0
 11
1268.892608022373
 21
338.6605838879251
 31
0.0
  0
LINE
  5
98
330
2
100
AcDbEntity
  8
DIM
100
AcDbLine
 10
1268.892608022373
 20
338.6605838879251
 30
0.0
 11
1268.892608022373
 21
361.6605838879251
 31
0.0
  0
TEXT
  5
99
330
2
100
AcDbEntity
  8
DIM
100
AcDbText
 10
1268.392608022373
 20
350.8272505545918
 30
0.0
 40
2.5
  1
0.1116
 50
90.0
  7
SIMPLEX
 72
     2
 11
1268.392608022373
 21
361.6605838879251
 31
0.0
100
AcDbText
  0
LINE
  5
9A
330
2
100
AcDbEntity
  8
DIM
100
AcDbLine
 10
1273.092608022373
 20
301.410583887911
 30
0.0
 11
1273.092608022373
 21
333.6605838879251
 31
0.0
  0
LINE
  5
9B
330
2
100
AcDbEntity
  8
COIN-LINE
100
AcDbLine
 10
1273.092608022373
 20
333.6605838879251
 30
0.0
 11
1273.092608022373
 21
338.6605838879251
 31
0.0
  0
LINE
  5
9C
330
2
100
AcDbEntity
  8
DIM
100
AcDbLine
 10
1273.092608022373
 20
338.6605838879251
 30
0.0
 11
1273.092608022373
 21
361.6605838879251
 31
0.0
  0
TEXT
  5
9D
330
2
100
AcDbEntity
  8
DIM
100
AcDbText
 10
1272.592608022373
 20
349.8748696022108
 30
0.0
 40
2.5
  1
0.1236
 50
90.0
  7
SIMPLEX
 72
     2
 11
1272.592608022373
 21
361.6605838879251
 31
0.0
100
AcDbText
  0
LINE
  5
9E
330
2
100
AcDbEntity
  8
COIN-LINE
100
AcDbLine
 10
1301.582608022395
 20
305.660583887946
 30
0.0
 11
1306.582608022395
 21
305.660583887946
 31
0.0
  0
LINE
  5
9F
330
2
100
AcDbEntity
  8
DIM
100
AcDbLine
 10
1306.582608022395
 20
305.660583887946
 30
0.0
 11
1329.582608022395
 21
305.660583887946
 31
0.0
  0
TEXT
  5
A0
330
2
100
AcDbEntity
  8
DIM
100
AcDbText
 10
1317.201655641443
 20
306.160583887946
 30
0.0
 40
2.5
  1
0.2000
  7
SIMPLEX
 72
     2
 11
1329.582608022395
 21
306.160583887946
 31
0.0
100
AcDbText
  0
LINE
  5
A1
330
2
100
AcDbEntity
  8
COIN-LINE
100
AcDbLine
 10
1301.582608022395
 20
300.410583887911
 30
0.0
 11
1306.582608022395
 21
300.410583887911
 31
0.0
  0
LINE
  5
A2
330
2
100
AcDbEntity
  8
DIM
100
AcDbLine
 10
1306.582608022395
 20
300.410583887911
 30
0.0
 11
1329.582608022395
 21
300.410583887911
 31
0.0
  0
TEXT
  5
A3
330
2
100
AcDbEntity
  8
DIM
100
AcDbText
 10
1317.677846117633
 20
300.910583887911
 30
0.0
 40
2.5
  1
0.1850
  7
SIMPLEX
 72
     2
 11
1329.582608022395
 21
300.910583887911
 31
0.0
100
AcDbText
  0
LINE
  5
A4
330
2
100
AcDbEntity
  8
DIM
100
AcDbLine
 10
1191.33260802238
 20
179.3605838879245
 30
0.0
 11
1191.33260802238
 21
152.7105838879454
 31
0.0
  0
LINE
  5
A5
330
2
100
AcDbEntity
  8
COIN-LINE
100
AcDbLine
 10
1191.33260802238
 20
152.7105838879454
 30
0.0
 11
1194.132608022384
 21
147.7105838879454
 31
0.0
  0
LINE
  5
A6
330
2
100
AcDbEntity
  8
DIM
100
AcDbLine
 10
1194.132608022384
 20
147.7105838879454
 30
0.0
 11
1194.132608022384
 21
124.7105838879454
 31
0.0
  0
TEXT
  5
A7
330
2
100
AcDbEntity
  8
DIM
100
AcDbText
 10
1193.632608022384
 20
124.7105838879454
 30
0.0
 40
2.5
  1
0.1100
 50
90.0
  7
SIMPLEX
100
AcDbText
  0
LINE
  5
A8
330
2
100
AcDbEntity
  8
DIM
100
AcDbLine
 10
1187.132608022384
 20
175.1605838879245
 30
0.0
 11
1187.132608022384
 21
152.7105838879454
 31
0.0
  0
LINE
  5
A9
330
2
100
AcDbEntity
  8
COIN-LINE
100
AcDbLine
 10
1187.132608022384
 20
152.7105838879454
 30
0.0
 11
1187.132608022384
 21
147.7105838879454
 31
0.0
  0
LINE
  5
AA
330
2
100
AcDbEntity
  8
DIM
100
AcDbLine
 10
1187.132608022384
 20
147.7105838879454
 30
0.0
 11
1187.132608022384
 21
124.7105838879454
 31
0.0
  0
TEXT
  5
AB
330
2
100
AcDbEntity
  8
DIM
100
AcDbText
 10
1186.632608022384
 20
124.7105838879454
 30
0.0
 40
2.5
  1
0.1220
 50
90.0
  7
SIMPLEX
100
AcDbText
  0
LINE
  5
AC
330
2
100
AcDbEntity
  8
DIM
100
AcDbLine
 10
1190.107608022344
 20
206.6605838878461
 30
0.0
 11
1190.107608022344
 21
152.7105838879454
 31
0.0
  0
LINE
  5
AD
330
2
100
AcDbEntity
  8
COIN-LINE
100
AcDbLine
 10
1190.107608022344
 20
152.7105838879454
 30
0.0
 11
1190.632608022384
 21
147.7105838879454
 31
0.0
  0
LINE
  5
AE
330
2
100
AcDbEntity
  8
DIM
100
AcDbLine
 10
1190.632608022384
 20
147.7105838879454
 30
0.0
 11
1190.632608022384
 21
124.7105838879454
 31
0.0
  0
TEXT
  5
AF
330
2
100
AcDbEntity
  8
DIM
100
AcDbText
 10
1190.132608022384
 20
124.7105838879454
 30
0.0
 40
2.5
  1
0.1135
 50
90.0
  7
SIMPLEX
100
AcDbText
  0
LINE
  5
B0
330
2
100
AcDbEntity
  8
DIM
100
AcDbLine
 10
1183.282608022341
 20
206.6605838878461
 30
0.0
 11
1183.282608022341
 21
152.7105838879454
 31
0.0
  0
LINE
  5
B1
330
2
100
AcDbEntity
  8
COIN-LINE
100
AcDbLine
 10
1183.282608022341
 20
152.7105838879454
 30
0.0
 11
1183.282608022341
 21
147.7105838879454
 31
0.0
  0
LINE
  5
B2
330
2
100
AcDbEntity
  8
DIM
100
AcDbLine
 10
1183.282608022341
 20
147.7105838879454
 30
0.0
 11
1183.282608022341
 21
124.7105838879454
 31
0.0
  0
TEXT
  5
B3
330
2
100
AcDbEntity
  8
DIM
100
AcDbText
 10
1182.782608022341
 20
124.7105838879454
 30
0.0
 40
2.5
  1
0.1330
 50
90.0
  7
SIMPLEX
100
AcDbText
  0
LINE
  5
B4
330
2
100
AcDbEntity
  8
DIM
100
AcDbLine
 10
1173.88260802238
 20
203.460583887846
 30
0.0
 11
1158.082608022372
 21
203.460583887846
 31
0.0
  0
LINE
  5
B5
330
2
100
AcDbEntity
  8
COIN-LINE
100
AcDbLine
 10
1158.082608022372
 20
203.460583887846
 30
0.0
 11
1153.082608022372
 21
203.460583887846
 31
0.0
  0
LINE
  5
B6
330
2
100
AcDbEntity
  8
DIM
100
AcDbLine
 10
1153.082608022372
 20
203.460583887846
 30
0.0
 11
1130.082608022372
 21
203.460583887846
 31
0.0
  0
TEXT
  5
B7
330
2
100
AcDbEntity
  8
DIM
100
AcDbText
 10
1130.082608022372
 20
203.9605838878459
 30
0.0
 40
2.5
  1
0.0920
  7
SIMPLEX
100
AcDbText
  0
LINE
  5
B8
330
2
100
AcDbEntity
  8
DIM
100
AcDbLine
 10
1182.807608022353
 20
207.660583887876
 30
0.0
 11
1158.082608022372
 21
207.660583887876
 31
0.0
  0
LINE
  5
B9
330
2
100
AcDbEntity
  8
COIN-LINE
100
AcDbLine
 10
1158.082608022372
 20
207.660583887876
 30
0.0
 11
1153.082608022372
 21
207.660583887876
 31
0.0
  0
LINE
  5
BA
330
2
100
AcDbEntity
  8
DIM
100
AcDbLine
 10
1153.082608022372
 20
207.660583887876
 30
0.0
 11
1130.082608022372
 21
207.660583887876
 31
0.0
  0
TEXT
  5
BB
330
2
100
AcDbEntity
  8
DIM
100
AcDbText
 10
1130.082608022372
 20
208.1605838878759
 30
0.0
 40
2.5
  1
0.0800
  7
SIMPLEX
100
AcDbText
  0
LINE
  5
BC
330
2
100
AcDbEntity
  8
DIM
100
AcDbLine
 10
1185.607608022377
 20
215.7105838878845
 30
0.0
 11
1158.082608022372
 21
215.7105838878845
 31
0.0
  0
LINE
  5
BD
330
2
100
AcDbEntity
  8
COIN-LINE
100
AcDbLine
 10
1158.082608022372
 20
215.7105838878845
 30
0.0
 11
1153.082608022372
 21
215.7105838878845
 31
0.0
  0
LINE
  5
BE
330
2
100
AcDbEntity
  8
DIM
100
AcDbLine
 10
1153.082608022372
 20
215.7105838878845
 30
0.0
 11
1130.082608022372
 21
215.7105838878845
 31
0.0
  0
TEXT
  5
BF
330
2
100
AcDbEntity
  8
DIM
100
AcDbText
 10
1130.082608022372
 20
216.2105838878845
 30
0.0
 40
2.5
  1
0.0570
  7
SIMPLEX
100
AcDbText
  0
LINE
  5
C0
330
2
100
AcDbEntity
  8
DIM
100
AcDbLine
 10
1178.082608022376
 20
219.9105838879146
 30
0.0
 11
1158.082608022372
 21
219.9105838879146
 31
0.0
  0
LINE
  5
C1
330
2
100
AcDbEntity
  8
COIN-LINE
100
AcDbLine
 10
1158.082608022372
 20
219.9105838879146
 30
0.0
 11
1153.082608022372
 21
219.9105838879146
 31
0.0
  0
LINE
  5
C2
330
2
100
AcDbEntity
  8
DIM
100
AcDbLine
 10
1153.082608022372
 20
219.9105838879146
 30
0.0
 11
1130.082608022372
 21
219.9105838879146
 31
0.0
  0
TEXT
  5
C3
330
2
100
AcDbEntity
  8
DIM
100
AcDbText
 10
1130.082608022372
 20
220.4105838879145
 30
0.0
 40
2.5
  1
0.0450
  7
SIMPLEX
100
AcDbText
  0
LINE
  5
C4
330
2
100
AcDbEntity
  8
DIM
100
AcDbLine
 10
1200.307608022646
 20
279.4105838879599
 30
0.0
 11
1158.082608022372
 21
279.4105838879599
 31
0.0
  0
LINE
  5
C5
330
2
100
AcDbEntity
  8
COIN-LINE
100
AcDbLine
 10
1158.082608022372
 20
279.4105838879599
 30
0.0
 11
1153.082608022372
 21
279.4105838879599
 31
0.0
  0
LINE
  5
C6
330
2
100
AcDbEntity
  8
DIM
100
AcDbLine
 10
1153.082608022372
 20
279.4105838879599
 30
0.0
 11
1130.082608022372
 21
279.4105838879599
 31
0.0
  0
TEXT
  5
C7
330
2
100
AcDbEntity
  8
DIM
100
AcDbText
 10
1130.082608022372
 20
279.9105838879599
 30
0.0
 40
2.5
  1
0.1250
  7
SIMPLEX
100
AcDbText
  0
LINE
  5
C8
330
2
100
AcDbEntity
  8
DIM
100
AcDbLine
 10
1193.132608022388
 20
283.6105838879701
 30
0.0
 11
1158.082608022372
 21
283.6105838879701
 31
0.0
  0
LINE
  5
C9
330
2
100
AcDbEntity
  8
COIN-LINE
100
AcDbLine
 10
1158.082608022372
 20
283.6105838879701
 30
0.0
 11
1153.082608022372
 21
283.6105838879701
 31
0.0
  0
LINE
  5
CA
330
2
100
AcDbEntity
  8
DIM
100
AcDbLine
 10
1153.082608022372
 20
283.6105838879701
 30
0.0
 11
1130.082608022372
 21
283.6105838879701
 31
0.0
  0
TEXT
  5
CB
330
2
100
AcDbEntity
  8
DIM
100
AcDbText
 10
1130.082608022372
 20
284.11058388797
 30
0.0
 40
2.5
  1
0.1370
  7
SIMPLEX
100
AcDbText
  0
LINE
  5
CC
330
2
100
AcDbEntity
  8
DIM
100
AcDbLine
 10
1178.082608022376
 20
292.0105838879505
 30
0.0
 11
1158.082608022372
 21
292.0105838879505
 31
0.0
  0
LINE
  5
CD
330
2
100
AcDbEntity
  8
COIN-LINE
100
AcDbLine
 10
1158.082608022372
 20
292.0105838879505
 30
0.0
 11
1153.082608022372
 21
292.0105838879505
 31
0.0
  0
LINE
  5
CE
330
2
100
AcDbEntity
  8
DIM
100
AcDbLine
 10
1153.082608022372
 20
292.0105838879505
 30
0.0
 11
1130.082608022372
 21
292.0105838879505
 31
0.0
  0
TEXT
  5
CF
330
2
100
AcDbEntity
  8
DIM
100
AcDbText
 10
1130.082608022372
 20
292.5105838879505
 30
0.0
 40
2.5
  1
0.1610
  7
SIMPLEX
100
AcDbText
  0
LINE
  5
D0
330
2
100
AcDbEntity
  8
DIM
100
AcDbLine
 10
1173.882608022376
 20
296.2105838879507
 30
0.0
 11
1158.082608022372
 21
296.2105838879507
 31
0.0
  0
LINE
  5
D1
330
2
100
AcDbEntity
  8
COIN-LINE
100
AcDbLine
 10
1158.082608022372
 20
296.2105838879507
 30
0.0
 11
1153.082608022372
 21
296.2105838879507
 31
0.0
  0
LINE
  5
D2
330
2
100
AcDbEntity
  8
DIM
100
AcDbLine
 10
1153.082608022372
 20
296.2105838879507
 30
0.0
 11
1130.082608022372
 21
296.2105838879507
 31
0.0
  0
TEXT
  5
D3
330
2
100
AcDbEntity
  8
DIM
100
AcDbText
 10
1130.082608022372
 20
296.7105838879506
 30
0.0
 40
2.5
  1
0.1730
  7
SIMPLEX
100
AcDbText
  0
LINE
  5
D4
330
2
100
AcDbEntity
  8
DIM
100
AcDbLine
 10
1262.892608022369
 20
176.1605838879245
 30
0.0
 11
1301.582608022395
 21
176.1605838879245
 31
0.0
  0
LINE
  5
D5
330
2
100
AcDbEntity
  8
COIN-LINE
100
AcDbLine
 10
1301.582608022395
 20
176.1605838879245
 30
0.0
 11
1306.582608022395
 21
176.1605838879245
 31
0.0
  0
LINE
  5
D6
330
2
100
AcDbEntity
  8
DIM
100
AcDbLine
 10
1306.582608022395
 20
176.1605838879245
 30
0.0
 11
1329.582608022395
 21
176.1605838879245
 31
0.0
  0
TEXT
  5
D7
330
2
100
AcDbEntity
  8
DIM
100
AcDbText
 10
1317.677846117633
 20
176.6605838879245
 30
0.0
 40
2.5
  1
0.1700
  7
SIMPLEX
 72
     2
 11
1329.582608022395
 21
176.6605838879245
 31
0.0
100
AcDbText
  0
LINE
  5
D8
330
2
100
AcDbEntity
  8
DIM
100
AcDbLine
 10
1267.092608022374
 20
180.3605838879246
 30
0.0
 11
1301.582608022395
 21
180.3605838879246
 31
0.0
  0
LINE
  5
D9
330
2
100
AcDbEntity
  8
COIN-LINE
100
AcDbLine
 10
1301.582608022395
 20
180.3605838879246
 30
0.0
 11
1306.582608022395
 21
180.3605838879246
 31
0.0
  0
LINE
  5
DA
330
2
100
AcDbEntity
  8
DIM
100
AcDbLine
 10
1306.582608022395
 20
180.3605838879246
 30
0.0
 11
1329.582608022395
 21
180.3605838879246
 31
0.0
  0
TEXT
  5
DB
330
2
100
AcDbEntity
  8
DIM
100
AcDbText
 10
1317.677846117633
 20
180.8605838879246
 30
0.0
 40
2.5
  1
0.1580
  7
SIMPLEX
 72
     2
 11
1329.582608022395
 21
180.8605838879246
 31
0.0
100
AcDbText
  0
TEXT
  5
DC
330
2
100
AcDbEntity
  8
LF-LINE
100
AcDbText
 10
1219.99939879974
 20
109.4968900606143
 30
0.0
 40
3.0
  1
%%UPLATING DETAIL
  7
SIMPLEX
100
AcDbText
  0
SOLID
  5
E0
330
2
100
AcDbEntity
  8
DIM
100
AcDbTrace
 10
1196.35786055435
 20
277.3603313562805
 30
0.0
 11
1197.78406620144
 21
274.6740816560091
 31
0.0
 12
1198.578190123307
 22
275.2818375253505
 32
0.0
 13
1198.578190123307
 23
275.2818375253505
 33
0.0
  0
LINE
  5
E2
330
2
100
AcDbEntity
  8
DIM
100
AcDbLine
 10
1198.181128162373
 20
274.9779595906799
 30
0.0
 11
1205.743776941334
 21
265.0962281076766
 31
0.0
  0
LINE
  5
E3
330
2
100
AcDbEntity
  8
DIM
100
AcDbLine
 10
1205.743776941334
 20
265.0962281076766
 30
0.0
 11
1210.019272123419
 21
265.0962281076766
 31
0.0
  0
TEXT
  5
E4
330
2
100
AcDbEntity
  8
DIM
100
AcDbText
 10
1211.190898894426
 20
263.8980900051028
 30
0.0
 40
2.5
  1
R0.0200
  7
SIMPLEX
100
AcDbText
  0
TEXT
  5
E5
330
2
100
AcDbEntity
  8
DIM
100
AcDbText
 10
1217.245875788649
 20
261.236775810468
 30
0.0
 40
1.8
  1
TYP.
  7
SIMPLEX
100
AcDbText
  0
LINE
  5
E6
330
2
100
AcDbEntity
  8
DIM
100
AcDbLine
 10
1287.573450552349
 20
295.5051689397549
 30
0.0
 11
1303.57464886014
 21
278.1463823238506
 31
0.0
  0
LINE
  5
E7
330
2
100
AcDbEntity
  8
DIM
100
AcDbLine
 10
1303.57464886014
 20
278.1463823238506
 30
0.0
 11
1308.747537986528
 21
278.1463823238506
 31
0.0
  0
MTEXT
  5
E8
330
2
100
AcDbEntity
  8
DIM
100
AcDbMText
 10
1310.236058521047
 20
278.1653113728058
 30
0.0
 40
2.5
 41
0.0
 46
0.0
 71
     4
 72
     1
  1
MAX PLATING AREA
  7
SIMPLEX
 73
     1
 44
1.0
  0
SOLID
  5
E9
330
2
100
AcDbEntity
  8
DIM
100
AcDbTrace
 10
1285.540140554638
 20
297.7109908847932
 30
0.0
 11
1287.941087543188
 21
295.8440539393732
 31
0.0
 12
1287.205813561509
 22
295.1662839401365
 32
0.0
 13
1287.205813561509
 23
295.1662839401365
 33
0.0
  0
LINE
  5
EA
330
2
100
AcDbEntity
  8
DIM
100
AcDbLine
 10
1282.879871739743
 20
282.6356786471279
 30
0.0
 11
1298.881070047535
 21
265.2768920312236
 31
0.0
  0
LINE
  5
EB
330
2
100
AcDbEntity
  8
DIM
100
AcDbLine
 10
1298.881070047535
 20
265.2768920312236
 30
0.0
 11
1304.053959173923
 21
265.2768920312236
 31
0.0
  0
MTEXT
  5
EC
330
2
100
AcDbEntity
  8
DIM
100
AcDbMText
 10
1305.542479708442
 20
265.2958210801788
 30
0.0
 40
2.5
 41
0.0
 46
0.0
 71
     4
 72
     1
  1
MIN PLATING AREA
  7
SIMPLEX
 73
     1
 44
1.0
  0
SOLID
  5
ED
330
2
100
AcDbEntity
  8
DIM
100
AcDbTrace
 10
1280.846561742033
 20
284.8415005921662
 30
0.0
 11
1283.247508730583
 21
282.9745636467462
 31
0.0
 12
1282.512234748904
 22
282.2967936475095
 32
0.0
 13
1282.512234748904
 23
282.2967936475095
 33
0.0
  0
INSERT
  5
EE
330
2
100
AcDbEntity
  8
LF-LINE
100
AcDbBlockReference
  2
INT1
 10
1229.832608022379
 20
235.6605838879301
 30
0.0
 41
350.0
 42
350.0
 43
350.0
  0
LWPOLYLINE
  5
127
330
2
100
AcDbEntity
  8
PKG-OUT
100
AcDbPolyline
 90
       10
 70
     0
 43
0.0
 10
1268.892608022373
 20
305.660583887946
 10
1268.892608022373
 20
303.2105838879541
 42
-0.4142135623732499
 10
1261.892608022369
 20
296.2105838879507
 10
1174.882608022375
 20
296.2105838879507
 10
1174.882608022381
 20
203.460583887846
 10
1194.307608022324
 20
203.460583887846
 10
1194.307608022642
 20
272.4105838879962
 42
-0.4142135623719367
 10
1201.307608022646
 20
279.4105838879599
 10
1288.492608022379
 20
279.4105838879091
 10
1288.492608022379
 20
305.660583887946
  0
LWPOLYLINE
  5
128
330
2
100
AcDbEntity
  8
PKG-OUT
100
AcDbPolyline
 90
       14
 70
     1
 43
0.0
 10
1190.107608022344
 20
207.6605838878461
 10
1190.107608022384
 20
215.7105838878845
 10
1186.607608022377
 20
215.7105838878845
 10
1186.607608022377
 20
276.6105838879664
 42
-0.4142135623732973
 10
1193.60760802238
 20
283.6105838879701
 10
1284.292608022379
 20
283.610583887909
 10
1284.292608022379
 20
300.410583887911
 10
1273.092608022373
 20
300.410583887911
 10
1273.092608022373
 20
299.010583887954
 42
-0.4142135623731832
 10
1266.092608022374
 20
292.0105838879505
 10
1179.082608022375
 20
292.0105838879505
 10
1179.082608022375
 20
219.9105838879146
 10
1183.282608022396
 20
219.9105838879146
 10
1183.282608022341
 20
207.6605838878461
  0
LINE
  5
129
330
2
100
AcDbEntity
  8
DIM
100
AcDbLine
 10
1285.292608022379
 20
300.410583887911
 30
0.0
 11
1301.582608022395
 21
300.410583887911
 31
0.0
  0
LINE
  5
12A
330
2
100
AcDbEntity
  8
DIM
100
AcDbLine
 10
1289.492608022379
 20
305.660583887946
 30
0.0
 11
1301.582608022395
 21
305.660583887946
 31
0.0
  0
LINE
  5
12B
330
2
100
AcDbEntity
  8
DIM
100
AcDbLine
 10
1284.292608022379
 20
301.410583887911
 30
0.0
 11
1284.292608022379
 21
333.6605838879179
 31
0.0
  0
LINE
  5
12C
330
2
100
AcDbEntity
  8
COIN-LINE
100
AcDbLine
 10
1284.292608022379
 20
333.6605838879179
 30
0.0
 11
1284.292608022379
 21
338.6605838879179
 31
0.0
  0
LINE
  5
12D
330
2
100
AcDbEntity
  8
DIM
100
AcDbLine
 10
1284.292608022379
 20
338.6605838879179
 30
0.0
 11
1284.292608022379
 21
361.6605838879179
 31
0.0
  0
TEXT
  5
12E
330
2
100
AcDbEntity
  8
DIM
100
AcDbText
 10
1283.792608022379
 20
349.8748696022036
 30
0.0
 40
2.5
  1
0.1556
 50
90.0
  7
SIMPLEX
 72
     2
 11
1283.792608022379
 21
361.6605838879179
 31
0.0
100
AcDbText
  0
LINE
  5
12F
330
2
100
AcDbEntity
  8
DIM
100
AcDbLine
 10
1288.492608022379
 20
306.660583887946
 30
0.0
 11
1288.492608022379
 21
333.6605838879179
 31
0.0
  0
LINE
  5
130
330
2
100
AcDbEntity
  8
COIN-LINE
100
AcDbLine
 10
1288.492608022379
 20
333.6605838879179
 30
0.0
 11
1288.492608022379
 21
338.6605838879179
 31
0.0
  0
LINE
  5
131
330
2
100
AcDbEntity
  8
DIM
100
AcDbLine
 10
1288.492608022379
 20
338.6605838879179
 30
0.0
 11
1288.492608022379
 21
361.6605838879179
 31
0.0
  0
TEXT
  5
132
330
2
100
AcDbEntity
  8
DIM
100
AcDbText
 10
1287.992608022379
 20
349.8748696022036
 30
0.0
 40
2.5
  1
0.1676
 50
90.0
  7
SIMPLEX
 72
     2
 11
1287.992608022379
 21
361.6605838879179
 31
0.0
100
AcDbText
  0
HATCH
  5
133
330
2
100
AcDbEntity
  8
PKG-OUT
100
AcDbHatch
 10
0.0
 20
0.0
 30
0.0
210
0.0
220
0.0
230
1.0
  2
ANSI31
 70
     0
 71
     0
 91
       12
 92
        7
 72
     1
 73
     1
 93
        9
 10
1242.257608022394
 20
182.11058388791
 42
0.4142135623730951
 10
1244.007608022392
 20
180.3605838879116
 42
0.0
 10
1271.342608022375
 20
180.3605838879315
 42
-0.4142135623730951
 10
1273.092608022373
 20
178.610583887933
 42
0.0
 10
1273.092608022373
 20
172.6605838879476
 42
0.4142135623730951
 10
1274.842608022372
 20
170.9105838879492
 42
0.0
 10
1282.332608022381
 20
170.9105838879492
 42
0.0
 10
1282.332608022381
 20
187.7105838879895
 42
0.0
 10
1242.257608022386
 20
187.7105838879633
 42
0.0
 97
        0
 92
        7
 72
     0
 73
     1
 93
        4
 10
1233.33260802237
 20
187.7105838879575
 10
1226.332608022376
 20
187.7105838879528
 10
1226.332608022382
 20
180.3605838879185
 10
1233.332608022375
 20
180.3605838879211
 97
        0
 92
        7
 72
     1
 73
     1
 93
        5
 10
1183.282608022377
 20
215.7105838878938
 42
0.0
 10
1183.282608022341
 20
207.6605838878461
 42
0.0
 10
1188.35760802238
 20
207.6605838878462
 42
0.414213562373585
 10
1190.107608022386
 20
209.4105838878545
 42
0.0
 10
1190.107608022381
 20
215.7105838878811
 42
0.0
 97
        0
 92
        7
 72
     1
 73
     1
 93
        5
 10
1215.832608022397
 20
180.3605838879246
 42
0.4142135623733901
 10
1217.582608022395
 20
182.1105838879429
 42
0.0
 10
1217.582608022392
 20
187.7105838879471
 42
0.0
 10
1191.332608022374
 20
187.7105838879299
 42
0.0
 10
1191.33260802238
 20
180.3605838879246
 42
0.0
 97
        0
 92
        7
 72
     1
 73
     1
 93
       10
 10
1271.342608022375
 20
290.9605838879287
 42
0.0
 10
1244.007608022392
 20
290.9605838879486
 42
0.4142135623730951
 10
1242.257608022394
 20
289.2105838879502
 42
0.0
 10
1242.25760802239
 20
283.6105838879373
 42
0.0
 10
1284.146509515614
 20
283.6105838879092
 42
0.1032437171764072
 10
1284.292608022379
 20
284.3105838879137
 42
0.0
 10
1284.292608022379
 20
300.410583887911
 42
0.0
 10
1274.842608022372
 20
300.410583887911
 42
0.4142135623730951
 10
1273.092608022373
 20
298.6605838879127
 42
0.0
 10
1273.092608022373
 20
292.7105838879271
 42
-0.4142135623730951
 97
        0
 92
        7
 72
     0
 73
     1
 93
        4
 10
1226.332608022378
 20
292.0105838879521
 10
1226.332608022376
 20
283.610583887948
 10
1233.332608022376
 20
283.6105838879433
 10
1233.332608022374
 20
292.0105838879505
 97
        0
 92
        7
 72
     1
 73
     1
 93
        5
 10
1214.782608022382
 20
290.2605838879521
 42
0.0
 10
1214.782608022378
 20
283.6105838879559
 42
0.0
 10
1221.082608022382
 20
283.6105838879577
 42
0.0
 10
1221.082608022383
 20
292.0105838879505
 42
0.0
 10
1213.032608022383
 20
292.0105838879505
 42
-0.4142135623773333
 97
        0
 92
        7
 72
     1
 73
     1
 93
        6
 10
1202.882608022403
 20
292.0105838879505
 42
0.0
 10
1202.882608022388
 20
283.6105838879639
 42
0.0
 10
1208.832608022394
 20
283.6105838879598
 42
0.4142135623721866
 10
1210.58260802239
 20
285.3605838879685
 42
0.0
 10
1210.582608022397
 20
290.260583887953
 42
-0.4142135623712255
 10
1212.332608022398
 20
292.0105838879526
 42
0.0
 97
        0
 92
        7
 72
     1
 73
     1
 93
        9
 10
1187.132608021954
 20
285.1855838879409
 42
0.385170388209986
 10
1188.873836036887
 20
283.6105838879701
 42
0.0
 10
1194.132608022388
 20
283.6105838879701
 42
0.0
 10
1194.132608022403
 20
292.0105838879505
 42
0.0
 10
1186.728109091934
 20
292.0105838879507
 42
-0.5516772843595821
 10
1182.28710695281
 20
292.0105838879505
 42
0.0
 10
1179.082608022375
 20
292.0105838879505
 42
0.0
 10
1179.082608022375
 20
286.7605838879543
 42
0.0
 10
1185.391380007456
 20
286.7605838879553
 42
-0.3851703882101583
 97
        0
 92
        7
 72
     1
 73
     1
 93
        8
 10
1183.6201711553
 20
282.0480207550318
 42
0.1989123673796617
 10
1182.382734288224
 20
282.5605838879551
 42
0.0
 10
1179.082608022375
 20
282.5605838879551
 42
0.0
 10
1179.082608022375
 20
274.9405295395443
 42
-1.314257481350032
 10
1179.082608022375
 20
269.8806382363684
 42
0.0
 10
1179.082608022375
 20
262.2605838879349
 42
0.0
 10
1186.607608022372
 20
262.2605838879179
 42
0.0
 10
1186.607608022374
 20
279.0605838879583
 42
0.0
 97
        0
 92
        7
 72
     1
 73
     1
 93
        6
 10
1179.082608022375
 20
250.4405295395467
 42
-1.314257481350032
 10
1179.082608022375
 20
245.3806382363708
 42
0.0
 10
1179.082608022375
 20
241.0855838878992
 42
0.0
 10
1186.607608022377
 20
241.0855838878814
 42
0.0
 10
1186.607608022377
 20
258.0605838879376
 42
0.0
 10
1179.082608022375
 20
258.0605838879376
 42
0.0
 97
        0
 92
        7
 72
     1
 73
     1
 93
        6
 10
1179.082608022375
 20
224.3806382363302
 42
0.0
 10
1179.082608022375
 20
219.9105838879123
 42
0.0
 10
1186.607608022377
 20
219.9105838879046
 42
0.0
 10
1186.607608022377
 20
236.8855838879011
 42
0.0
 10
1179.082608022375
 20
236.8855838879023
 42
0.0
 10
1179.082608022375
 20
229.4405295395061
 42
-1.314257481350032
 97
        0
 75
     0
 76
     1
 52
0.0
 41
10.0
 77
     0
 78
     1
 53
45.0
 43
1349.777244748669
 44
177.6044715193784
 45
-0.8838834764832203
 46
0.8838834764831915
 79
     0
 47
0.0
 98
       14
 10
1088.0
 20
0.0000000000001137
 10
1088.0
 20
0.0000000000001137
 10
1259.017747459384
 20
183.7967309167808
 10
1230.374468488851
 20
184.69183338461
 10
1187.857101266966
 20
210.2022537177407
 10
1207.32557994225
 20
184.4680577676527
 10
1256.779991289811
 20
284.4957585475601
 10
1231.717122190595
 20
287.6286171849621
 10
1216.052829003585
 20
288.2999440358339
 10
1206.878028708336
 20
288.0761684188767
 10
1189.871081819582
 20
287.4048415680048
 10
1185.171793863479
 20
273.530753316653
 10
1185.395569480436
 20
246.9014548987358
 10
1182.262710843034
 20
230.1182836269393
  0
ENDSEC
  0
SECTION
  2
OBJECTS
  0
DICTIONARY
  5
D
330
0
100
AcDbDictionary
281
     1
  3
ACAD_COLOR
350
44
  3
ACAD_GROUP
350
31
  3
ACAD_LAYOUT
350
1A
  3
ACAD_MATERIAL
350
F
  3
ACAD_MLEADERSTYLE
350
47
  3
ACAD_MLINESTYLE
350
32
  3
ACAD_PLOTSETTINGS
350
33
  3
ACAD_PLOTSTYLENAME
350
C
  3
ACAD_SCALELIST
350
45
  3
ACAD_TABLESTYLE
350
46
  3
ACAD_VISUALSTYLE
350
2B
  3
ACDB_RECOMPOSE_DATA
350
137
  3
AcDbVariableDictionary
350
48
  0
DICTIONARY
  5
7
330
6
100
AcDbDictionary
280
     1
281
     1
  3
ACAD_LAYOUT
360
8
  3
ACDBVARIABLEDICTIONARY
360
9
  3
ADSK_XREC_LAYER_RECONCILED
360
A
  0
DICTIONARY
  5
6F
330
6E
100
AcDbDictionary
280
     1
281
     1
  3
ADSK_XREC_LAYER_RECONCILED
360
70
  0
DICTIONARY
  5
DE
330
DD
100
AcDbDictionary
280
     1
281
     1
  3
ADSK_XREC_LAYER_RECONCILED
360
DF
  0
DICTIONARY
  5
7E
330
7D
100
AcDbDictionary
280
     1
281
     1
  3
ADSK_XREC_LAYER_RECONCILED
360
7F
  0
DICTIONARY
  5
75
330
74
100
AcDbDictionary
280
     1
281
     1
  3
ADSK_XREC_LAYER_RECONCILED
360
76
  0
DICTIONARY
  5
3
330
2
100
AcDbDictionary
280
     1
281
     1
  3
ACAD_SORTENTS
360
134
  0
DICTIONARY
  5
44
102
{ACAD_REACTORS
330
D
102
}
330
D
100
AcDbDictionary
281
     1
  0
DICTIONARY
  5
31
102
{ACAD_REACTORS
330
D
102
}
330
D
100
AcDbDictionary
281
     1
  0
DICTIONARY
  5
1A
102
{ACAD_REACTORS
330
D
102
}
330
D
100
AcDbDictionary
281
     1
  3
Layout1
350
1E
  3
Model
350
19
  0
DICTIONARY
  5
F
102
{ACAD_REACTORS
330
D
102
}
330
D
100
AcDbDictionary
281
     1
  3
ByBlock
350
3C
  3
ByLayer
350
34
  3
Global
350
E
  0
DICTIONARY
  5
47
102
{ACAD_REACTORS
330
D
102
}
330
D
100
AcDbDictionary
281
     1
  0
DICTIONARY
  5
32
102
{ACAD_REACTORS
330
D
102
}
330
D
100
AcDbDictionary
281
     1
  3
Standard
350
56
  0
DICTIONARY
  5
33
102
{ACAD_REACTORS
330
D
102
}
330
D
100
AcDbDictionary
281
     1
  0
ACDBDICTIONARYWDFLT
  5
C
102
{ACAD_REACTORS
330
D
102
}
330
D
100
AcDbDictionary
281
     1
  3
Normal
350
B
100
AcDbDictionaryWithDefault
340
B
  0
DICTIONARY
  5
45
102
{ACAD_REACTORS
330
D
102
}
330
D
100
AcDbDictionary
281
     1
  3
A0
350
5C
  3
A1
350
5D
  3
A2
350
5E
  3
A3
350
5F
  3
A4
350
60
  3
A5
350
61
  3
A6
350
62
  3
A7
350
63
  3
A8
350
64
  3
A9
350
65
  3
B0
350
66
  3
B1
350
67
  3
B2
350
68
  3
B3
350
69
  3
B4
350
6A
  3
B5
350
6B
  3
B6
350
6C
  0
DICTIONARY
  5
46
102
{ACAD_REACTORS
330
D
102
}
330
D
100
AcDbDictionary
281
     1
  3
Standard
350
57
  0
DICTIONARY
  5
2B
102
{ACAD_REACTORS
330
D
102
}
330
D
100
AcDbDictionary
281
     1
  3
2dWireframe
350
2A
  3
EdgeColorOff
350
E1
  3
Realistic
350
59
  3
Wireframe
350
5A
  0
XRECORD
  5
137
102
{ACAD_REACTORS
330
D
102
}
330
D
100
AcDbXrecord
280
     1
 90
        1
330
57
  0
DICTIONARY
  5
48
102
{ACAD_REACTORS
330
D
102
}
330
D
100
AcDbDictionary
281
     1
  3
CANNOSCALE
350
49
  3
CMLEADERSTYLE
350
4A
  3
CTABLESTYLE
350
4B
  3
CVIEWDETAILSTYLE
350
4C
  3
CVIEWSECTIONSTYLE
350
4D
  3
DIMASSOC
350
4E
  3
HIDETEXT
350
4F
  3
LAYEREVAL
350
50
  3
LAYERNOTIFY
350
51
  3
LIGHTINGUNITS
350
52
  3
MSLTSCALE
350
53
  3
PROJECTNAME
350
54
  0
DICTIONARY
  5
8
102
{ACAD_REACTORS
330
7
102
}
330
7
100
AcDbDictionary
281
     1
  0
DICTIONARY
  5
9
102
{ACAD_REACTORS
330
7
102
}
330
7
100
AcDbDictionary
281
     1
  0
XRECORD
  5
A
102
{ACAD_REACTORS
330
7
102
}
330
7
100
AcDbXrecord
280
     1
290
     1
  0
XRECORD
  5
70
102
{ACAD_REACTORS
330
6F
102
}
330
6F
100
AcDbXrecord
280
     1
290
     1
  0
XRECORD
  5
DF
102
{ACAD_REACTORS
330
DE
102
}
330
DE
100
AcDbXrecord
280
     1
290
     1
  0
XRECORD
  5
7F
102
{ACAD_REACTORS
330
7E
102
}
330
7E
100
AcDbXrecord
280
     1
290
     1
  0
XRECORD
  5
76
102
{ACAD_REACTORS
330
75
102
}
330
75
100
AcDbXrecord
280
     1
290
     1
  0
SORTENTSTABLE
  5
134
102
{ACAD_REACTORS
330
3
102
}
330
3
100
AcDbSortentsTable
330
2
  0
LAYOUT
  5
1E
102
{ACAD_REACTORS
330
1A
102
}
330
1A
100
AcDbPlotSettings
  1

  2
None
  4

  6

 40
0.0
 41
0.0
 42
0.0
 43
0.0
 44
0.0
 45
0.0
 46
0.0
 47
0.0
 48
0.0
 49
0.0
140
0.0
141
0.0
142
1.0
143
1.0
 70
   688
 72
     0
 73
     0
 74
     0
  7

 75
     0
147
1.0
 76
     0
 77
     2
 78
   300
148
0.0
149
0.0
100
AcDbLayout
  1
Layout1
 70
     0
 71
     1
 10
0.0
 20
0.0
 11
0.0
 21
0.0
 12
0.0
 22
0.0
 32
0.0
 14
0.0
 24
0.0
 34
0.0
 15
0.0
 25
0.0
 35
0.0
146
0.0
 13
0.0
 23
0.0
 33
0.0
 16
1.0
 26
0.0
 36
0.0
 17
0.0
 27
1.0
 37
0.0
 76
     0
330
1B
  0
LAYOUT
  5
19
102
{ACAD_REACTORS
330
1A
102
}
330
1A
100
AcDbPlotSettings
  1

  2
None
  4

  6

 40
0.0
 41
0.0
 42
0.0
 43
0.0
 44
0.0
 45
0.0
 46
0.0
 47
0.0
 48
0.0
 49
0.0
140
0.0
141
0.0
142
1.0
143
1.0
 70
 11952
 72
     0
 73
     0
 74
     0
  7

 75
     0
147
1.0
 76
     0
 77
     2
 78
   300
148
0.0
149
0.0
100
AcDbLayout
  1
Model
 70
     1
 71
     0
 10
0.0
 20
0.0
 11
0.0
 21
0.0
 12
0.0
 22
0.0
 32
0.0
 14
5.0
 24
8.999999999999943
 34
0.0
 15
277.0
 25
392.0
 35
0.0
146
0.0
 13
0.0
 23
0.0
 33
0.0
 16
1.0
 26
0.0
 36
0.0
 17
0.0
 27
1.0
 37
0.0
 76
     0
330
2
331
29
  0
MATERIAL
  5
3C
102
{ACAD_XDICTIONARY
360
3D
102
}
102
{ACAD_REACTORS
330
F
102
}
330
F
100
AcDbMaterial
  1
ByBlock
 72
     0
 43
0.0208333333333333
 43
0.0
 43
0.0
 43
0.0
 43
0.0
 43
0.0208333333333333
 43
0.0
 43
0.0
 43
0.0
 43
0.0
 43
1.0
 43
0.0
 43
0.0
 43
0.0
 43
0.0
 43
1.0
 77
     0
 47
0.0208333333333333
 47
0.0
 47
0.0
 47
0.0
 47
0.0
 47
0.0208333333333333
 47
0.0
 47
0.0
 47
0.0
 47
0.0
 47
1.0
 47
0.0
 47
0.0
 47
0.0
 47
0.0
 47
1.0
171
     0
 49
0.0208333333333333
 49
0.0
 49
0.0
 49
0.0
 49
0.0
 49
0.0208333333333333
 49
0.0
 49
0.0
 49
0.0
 49
0.0
 49
1.0
 49
0.0
 49
0.0
 49
0.0
 49
0.0
 49
1.0
175
     0
142
0.0208333333333333
142
0.0
142
0.0
142
0.0
142
0.0
142
0.0208333333333333
142
0.0
142
0.0
142
0.0
142
0.0
142
1.0
142
0.0
142
0.0
142
0.0
142
0.0
142
1.0
179
     0
144
0.0208333333333333
144
0.0
144
0.0
144
0.0
144
0.0
144
0.0208333333333333
144
0.0
144
0.0
144
0.0
144
0.0
144
1.0
144
0.0
144
0.0
144
0.0
144
0.0
144
1.0
147
0.0208333333333333
147
0.0
147
0.0
147
0.0
147
0.0
147
0.0208333333333333
147
0.0
147
0.0
147
0.0
147
0.0
147
1.0
147
0.0
147
0.0
147
0.0
147
0.0
147
1.0
  0
MATERIAL
  5
34
102
{ACAD_XDICTIONARY
360
35
102
}
102
{ACAD_REACTORS
330
F
102
}
330
F
100
AcDbMaterial
  1
ByLayer
 72
     0
 43
0.0208333333333333
 43
0.0
 43
0.0
 43
0.0
 43
0.0
 43
0.0208333333333333
 43
0.0
 43
0.0
 43
0.0
 43
0.0
 43
1.0
 43
0.0
 43
0.0
 43
0.0
 43
0.0
 43
1.0
 77
     0
 47
0.0208333333333333
 47
0.0
 47
0.0
 47
0.0
 47
0.0
 47
0.0208333333333333
 47
0.0
 47
0.0
 47
0.0
 47
0.0
 47
1.0
 47
0.0
 47
0.0
 47
0.0
 47
0.0
 47
1.0
171
     0
 49
0.0208333333333333
 49
0.0
 49
0.0
 49
0.0
 49
0.0
 49
0.0208333333333333
 49
0.0
 49
0.0
 49
0.0
 49
0.0
 49
1.0
 49
0.0
 49
0.0
 49
0.0
 49
0.0
 49
1.0
175
     0
142
0.0208333333333333
142
0.0
142
0.0
142
0.0
142
0.0
142
0.0208333333333333
142
0.0
142
0.0
142
0.0
142
0.0
142
1.0
142
0.0
142
0.0
142
0.0
142
0.0
142
1.0
179
     0
144
0.0208333333333333
144
0.0
144
0.0
144
0.0
144
0.0
144
0.0208333333333333
144
0.0
144
0.0
144
0.0
144
0.0
144
1.0
144
0.0
144
0.0
144
0.0
144
0.0
144
1.0
147
0.0208333333333333
147
0.0
147
0.0
147
0.0
147
0.0
147
0.0208333333333333
147
0.0
147
0.0
147
0.0
147
0.0
147
1.0
147
0.0
147
0.0
147
0.0
147
0.0
147
1.0
  0
MATERIAL
  5
E
102
{ACAD_XDICTIONARY
360
10
102
}
102
{ACAD_REACTORS
330
F
102
}
330
F
100
AcDbMaterial
  1
Global
 72
     0
 43
0.0208333333333333
 43
0.0
 43
0.0
 43
0.0
 43
0.0
 43
0.0208333333333333
 43
0.0
 43
0.0
 43
0.0
 43
0.0
 43
1.0
 43
0.0
 43
0.0
 43
0.0
 43
0.0
 43
1.0
 77
     0
 47
0.0208333333333333
 47
0.0
 47
0.0
 47
0.0
 47
0.0
 47
0.0208333333333333
 47
0.0
 47
0.0
 47
0.0
 47
0.0
 47
1.0
 47
0.0
 47
0.0
 47
0.0
 47
0.0
 47
1.0
171
     0
 49
0.0208333333333333
 49
0.0
 49
0.0
 49
0.0
 49
0.0
 49
0.0208333333333333
 49
0.0
 49
0.0
 49
0.0
 49
0.0
 49
1.0
 49
0.0
 49
0.0
 49
0.0
 49
0.0
 49
1.0
175
     0
142
0.0208333333333333
142
0.0
142
0.0
142
0.0
142
0.0
142
0.0208333333333333
142
0.0
142
0.0
142
0.0
142
0.0
142
1.0
142
0.0
142
0.0
142
0.0
142
0.0
142
1.0
179
     0
144
0.0208333333333333
144
0.0
144
0.0
144
0.0
144
0.0
144
0.0208333333333333
144
0.0
144
0.0
144
0.0
144
0.0
144
1.0
144
0.0
144
0.0
144
0.0
144
0.0
144
1.0
147
0.0208333333333333
147
0.0
147
0.0
147
0.0
147
0.0
147
0.0208333333333333
147
0.0
147
0.0
147
0.0
147
0.0
147
1.0
147
0.0
147
0.0
147
0.0
147
0.0
147
1.0
  0
MLINESTYLE
  5
56
102
{ACAD_REACTORS
330
32
102
}
330
32
100
AcDbMlineStyle
  2
STANDARD
 70
     0
  3

 62
   256
 51
90.0
 52
90.0
 71
     2
 49
0.5
 62
   256
  6
BYLAYER
 49
-0.5
 62
   256
  6
BYLAYER
  0
ACDBPLACEHOLDER
  5
B
102
{ACAD_REACTORS
330
C
102
}
330
C
  0
SCALE
  5
5C
102
{ACAD_REACTORS
330
45
102
}
330
45
100
AcDbScale
 70
     0
300
1:1
140
1.0
141
1.0
290
     1
  0
SCALE
  5
5D
102
{ACAD_REACTORS
330
45
102
}
330
45
100
AcDbScale
 70
     0
300
1/128" = 1'-0"
140
0.0078125
141
12.0
290
     0
  0
SCALE
  5
5E
102
{ACAD_REACTORS
330
45
102
}
330
45
100
AcDbScale
 70
     0
300
1/64" = 1'-0"
140
0.015625
141
12.0
290
     0
  0
SCALE
  5
5F
102
{ACAD_REACTORS
330
45
102
}
330
45
100
AcDbScale
 70
     0
300
1/32" = 1'-0"
140
0.03125
141
12.0
290
     0
  0
SCALE
  5
60
102
{ACAD_REACTORS
330
45
102
}
330
45
100
AcDbScale
 70
     0
300
1/16" = 1'-0"
140
0.0625
141
12.0
290
     0
  0
SCALE
  5
61
102
{ACAD_REACTORS
330
45
102
}
330
45
100
AcDbScale
 70
     0
300
3/32" = 1'-0"
140
0.09375
141
12.0
290
     0
  0
SCALE
  5
62
102
{ACAD_REACTORS
330
45
102
}
330
45
100
AcDbScale
 70
     0
300
1/8" = 1'-0"
140
0.125
141
12.0
290
     0
  0
SCALE
  5
63
102
{ACAD_REACTORS
330
45
102
}
330
45
100
AcDbScale
 70
     0
300
3/16" = 1'-0"
140
0.1875
141
12.0
290
     0
  0
SCALE
  5
64
102
{ACAD_REACTORS
330
45
102
}
330
45
100
AcDbScale
 70
     0
300
1/4" = 1'-0"
140
0.25
141
12.0
290
     0
  0
SCALE
  5
65
102
{ACAD_REACTORS
330
45
102
}
330
45
100
AcDbScale
 70
     0
300
3/8" = 1'-0"
140
0.375
141
12.0
290
     0
  0
SCALE
  5
66
102
{ACAD_REACTORS
330
45
102
}
330
45
100
AcDbScale
 70
     0
300
1/2" = 1'-0"
140
0.5
141
12.0
290
     0
  0
SCALE
  5
67
102
{ACAD_REACTORS
330
45
102
}
330
45
100
AcDbScale
 70
     0
300
3/4" = 1'-0"
140
0.75
141
12.0
290
     0
  0
SCALE
  5
68
102
{ACAD_REACTORS
330
45
102
}
330
45
100
AcDbScale
 70
     0
300
1" = 1'-0"
140
1.0
141
12.0
290
     0
  0
SCALE
  5
69
102
{ACAD_REACTORS
330
45
102
}
330
45
100
AcDbScale
 70
     0
300
1-1/2" = 1'-0"
140
1.5
141
12.0
290
     0
  0
SCALE
  5
6A
102
{ACAD_REACTORS
330
45
102
}
330
45
100
AcDbScale
 70
     0
300
3" = 1'-0"
140
3.0
141
12.0
290
     0
  0
SCALE
  5
6B
102
{ACAD_REACTORS
330
45
102
}
330
45
100
AcDbScale
 70
     0
300
6" = 1'-0"
140
6.0
141
12.0
290
     0
  0
SCALE
  5
6C
102
{ACAD_REACTORS
330
45
102
}
330
45
100
AcDbScale
 70
     0
300
1'-0" = 1'-0"
140
12.0
141
12.0
290
     0
  0
TABLESTYLE
  5
57
102
{ACAD_XDICTIONARY
360
58
102
}
102
{ACAD_REACTORS
330
46
102
}
330
46
100
AcDbTableStyle
280
     0
  3
Standard
 70
     0
 71
     0
 40
0.06
 41
0.06
280
     0
281
     0
  7
Standard
140
0.18
170
     2
 62
     0
 63
     7
283
     0
 90
        4
 91
        0
  1

274
    -2
284
     1
 64
     0
275
    -2
285
     1
 65
     0
276
    -2
286
     1
 66
     0
277
    -2
287
     1
 67
     0
278
    -2
288
     1
 68
     0
279
    -2
289
     1
 69
     0
  7
Standard
140
0.25
170
     5
 62
     0
 63
     7
283
     0
 90
        4
 91
        0
  1

274
    -2
284
     1
 64
     0
275
    -2
285
     1
 65
     0
276
    -2
286
     1
 66
     0
277
    -2
287
     1
 67
     0
278
    -2
288
     1
 68
     0
279
    -2
289
     1
 69
     0
  7
Standard
140
0.18
170
     5
 62
     0
 63
     7
283
     0
 90
        4
 91
        0
  1

274
    -2
284
     1
 64
     0
275
    -2
285
     1
 65
     0
276
    -2
286
     1
 66
     0
277
    -2
287
     1
 67
     0
278
    -2
288
     1
 68
     0
279
    -2
289
     1
 69
     0
1001
ACAD
1000
AcRTDxfName
1000
TABLESTYLE
  0
VISUALSTYLE
  5
2A
102
{ACAD_REACTORS
330
2B
102
}
330
2B
100
AcDbVisualStyle
  2
2dWireframe
 70
     4
177
     3
291
     0
 70
    58
 90
        0
176
     1
 90
        2
176
     1
 90
        0
176
     1
 90
        0
176
     1
 40
0.6
176
     1
 40
30.0
176
     1
 62
     7
420
 16777215
176
     1
 90
        1
176
     1
 90
        4
176
     1
 62
     7
176
     1
 62
   257
176
     1
 90
        1
176
     1
 90
        1
176
     1
 40
1.0
176
     1
 90
        0
176
     1
 62
   257
176
     1
 40
1.0
176
     1
 90
        1
176
     1
 90
        6
176
     1
 90
        2
176
     1
 62
     7
176
     1
 90
        5
176
     1
 90
        0
176
     1
 90
        0
176
     1
290
     0
176
     1
 90
        1
176
     1
 40
0.0
176
     1
 90
        0
176
     1
290
     1
176
     1
290
     1
176
     1
290
     0
176
     1
290
     0
176
     1
290
     0
176
     1
290
     0
176
     1
290
     0
176
     1
290
     0
176
     1
290
     0
176
     1
 90
       50
176
     1
 40
0.0
176
     1
 40
1.0
176
     1
 90
        0
176
     1
 62
    18
176
     1
 90
       50
176
     1
 90
        3
176
     1
 62
     5
420
      255
176
     1
290
     0
176
     1
 90
       50
176
     1
 90
       50
176
     1
 90
       50
176
     1
290
     0
176
     1
 90
       50
176
     1
 62
   256
176
     0
 40
1.0
176
     0
 90
        2
176
     1
  1
strokes_ogs.tif
176
     1
290
     0
176
     1
 40
1.0
176
     1
 40
1.0
176
     1
  0
VISUALSTYLE
  5
E1
102
{ACAD_REACTORS
330
2B
102
}
330
2B
100
AcDbVisualStyle
  2
EdgeColorOff
 70
    22
177
     3
291
     1
 70
    58
 90
        2
176
     0
 90
        2
176
     0
 90
        0
176
     0
 90
        0
176
     0
 40
0.6
176
     0
 40
30.0
176
     0
 62
     7
420
 16777215
176
     0
 90
        1
176
     0
 90
        4
176
     0
 62
     7
176
     0
 62
   257
176
     0
 90
        1
176
     0
 90
        1
176
     0
 40
1.0
176
     0
 90
        8
176
     2
 62
     7
176
     0
 40
1.0
176
     0
 90
        1
176
     0
 90
        6
176
     0
 90
        2
176
     0
 62
     7
176
     0
 90
        5
176
     0
 90
        0
176
     0
 90
        0
176
     0
290
     0
176
     0
 90
        1
176
     0
 40
0.0
176
     0
 90
        0
176
     0
290
     0
176
     0
290
     1
176
     0
290
     1
176
     0
290
     0
176
     0
290
     0
176
     0
290
     0
176
     0
290
     0
176
     0
290
     0
176
     0
290
     0
176
     0
 90
       50
176
     0
 40
0.0
176
     0
 40
1.0
176
     0
 90
        0
176
     0
 62
    18
176
     0
 90
       50
176
     0
 90
        3
176
     0
 62
     5
420
      255
176
     0
290
     0
176
     0
 90
       50
176
     0
 90
       50
176
     0
 90
       50
176
     0
290
     0
176
     0
 90
       50
176
     0
 62
   256
176
     0
 40
1.0
176
     0
 90
        2
176
     0
  1
strokes_ogs.tif
176
     0
290
     0
176
     0
 40
1.0
176
     0
 40
1.0
176
     0
  0
VISUALSTYLE
  5
59
102
{ACAD_REACTORS
330
2B
102
}
330
2B
100
AcDbVisualStyle
  2
Realistic
 70
     8
177
     3
291
     0
 70
    58
 90
        2
176
     1
 90
        3
176
     1
 90
        0
176
     1
 90
        2
176
     1
 40
0.6
176
     1
 40
30.0
176
     1
 62
     7
420
 16777215
176
     1
 90
        0
176
     1
 90
        0
176
     1
 62
     7
176
     1
 62
   257
176
     1
 90
        1
176
     1
 90
        1
176
     1
 40
1.0
176
     1
 90
        8
176
     1
 62
   257
176
     1
 40
1.0
176
     1
 90
        1
176
     1
 90
        6
176
     1
 90
        2
176
     1
 62
     7
176
     1
 90
        3
176
     1
 90
        0
176
     1
 90
        0
176
     1
290
     0
176
     1
 90
       13
176
     1
 40
0.0
176
     1
 90
        0
176
     1
290
     0
176
     1
290
     1
176
     1
290
     1
176
     1
290
     0
176
     1
290
     0
176
     1
290
     0
176
     1
290
     0
176
     1
290
     0
176
     1
290
     0
176
     1
 90
       50
176
     1
 40
0.0
176
     1
 40
1.0
176
     1
 90
        0
176
     1
 62
    18
176
     1
 90
       50
176
     1
 90
        3
176
     1
 62
     5
420
      255
176
     1
290
     0
176
     1
 90
       50
176
     1
 90
       50
176
     1
 90
       50
176
     1
290
     0
176
     1
 90
       50
176
     1
 62
   256
176
     0
 40
1.0
176
     0
 90
        2
176
     1
  1
strokes_ogs.tif
176
     1
290
     0
176
     1
 40
1.0
176
     1
 40
1.0
176
     1
  0
VISUALSTYLE
  5
5A
102
{ACAD_REACTORS
330
2B
102
}
330
2B
100
AcDbVisualStyle
  2
Wireframe
 70
     5
177
     3
291
     0
 70
    58
 90
        0
176
     1
 90
        2
176
     1
 90
        0
176
     1
 90
        0
176
     1
 40
0.6
176
     1
 40
30.0
176
     1
 62
     7
420
 16777215
176
     1
 90
        1
176
     1
 90
        4
176
     1
 62
     7
176
     1
 62
   257
176
     1
 90
        1
176
     1
 90
        1
176
     1
 40
1.0
176
     1
 90
        0
176
     1
 62
   257
176
     1
 40
1.0
176
     1
 90
        1
176
     1
 90
        6
176
     1
 90
        2
176
     1
 62
     7
176
     1
 90
        3
176
     1
 90
        0
176
     1
 90
        0
176
     1
290
     0
176
     1
 90
        1
176
     1
 40
0.0
176
     1
 90
        0
176
     1
290
     0
176
     1
290
     1
176
     1
290
     1
176
     1
290
     0
176
     1
290
     0
176
     1
290
     0
176
     1
290
     0
176
     1
290
     0
176
     1
290
     0
176
     1
 90
       50
176
     1
 40
0.0
176
     1
 40
1.0
176
     1
 90
        0
176
     1
 62
    18
176
     1
 90
       50
176
     1
 90
        3
176
     1
 62
     5
420
      255
176
     1
290
     0
176
     1
 90
       50
176
     1
 90
       50
176
     1
 90
       50
176
     1
290
     0
176
     1
 90
       50
176
     1
 62
   256
176
     0
 40
1.0
176
     0
 90
        2
176
     1
  1
strokes_ogs.tif
176
     1
290
     0
176
     1
 40
1.0
176
     1
 40
1.0
176
     1
  0
DICTIONARYVAR
  5
49
102
{ACAD_REACTORS
330
48
102
}
330
48
100
DictionaryVariables
280
     0
  1
1:1
  0
DICTIONARYVAR
  5
4A
102
{ACAD_REACTORS
330
48
102
}
330
48
100
DictionaryVariables
280
     0
  1
STANDARD
  0
DICTIONARYVAR
  5
4B
102
{ACAD_REACTORS
330
48
102
}
330
48
100
DictionaryVariables
280
     0
  1
STANDARD
  0
DICTIONARYVAR
  5
4C
102
{ACAD_REACTORS
330
48
102
}
330
48
100
DictionaryVariables
280
     0
  1

  0
DICTIONARYVAR
  5
4D
102
{ACAD_REACTORS
330
48
102
}
330
48
100
DictionaryVariables
280
     0
  1

  0
DICTIONARYVAR
  5
4E
102
{ACAD_REACTORS
330
48
102
}
330
48
100
DictionaryVariables
280
     0
  1
0
  0
DICTIONARYVAR
  5
4F
102
{ACAD_REACTORS
330
48
102
}
330
48
100
DictionaryVariables
280
     0
  1
1
  0
DICTIONARYVAR
  5
50
102
{ACAD_REACTORS
330
48
102
}
330
48
100
DictionaryVariables
280
     0
  1
1
  0
DICTIONARYVAR
  5
51
102
{ACAD_REACTORS
330
48
102
}
330
48
100
DictionaryVariables
280
     0
  1
15
  0
DICTIONARYVAR
  5
52
102
{ACAD_REACTORS
330
48
102
}
330
48
100
DictionaryVariables
280
     0
  1
0
  0
DICTIONARYVAR
  5
53
102
{ACAD_REACTORS
330
48
102
}
330
48
100
DictionaryVariables
280
     0
  1
0
  0
DICTIONARYVAR
  5
54
102
{ACAD_REACTORS
330
48
102
}
330
48
100
DictionaryVariables
280
     0
  1

  0
DICTIONARY
  5
3D
330
3C
100
AcDbDictionary
280
     1
281
     1
  3
BUMPTILE
360
3E
  3
DIFFUSETILE
360
3F
  3
OPACITYTILE
360
40
  3
REFLECTIONTILE
360
41
  3
REFRACTIONTILE
360
42
  3
SPECULARTILE
360
43
  0
DICTIONARY
  5
35
330
34
100
AcDbDictionary
280
     1
281
     1
  3
BUMPTILE
360
36
  3
DIFFUSETILE
360
37
  3
OPACITYTILE
360
38
  3
REFLECTIONTILE
360
39
  3
REFRACTIONTILE
360
3A
  3
SPECULARTILE
360
3B
  0
DICTIONARY
  5
10
330
E
100
AcDbDictionary
280
     1
281
     1
  3
BUMPTILE
360
11
  3
DIFFUSETILE
360
12
  3
OPACITYTILE
360
13
  3
REFLECTIONTILE
360
14
  3
REFRACTIONTILE
360
15
  3
SPECULARTILE
360
16
  0
DICTIONARY
  5
58
330
57
100
AcDbDictionary
280
     1
281
     1
  3
ACAD_ROUNDTRIP_2008_TABLESTYLE_CELLSTYLEMAP
360
136
  0
XRECORD
  5
3E
102
{ACAD_REACTORS
330
3D
102
}
330
3D
100
AcDbXrecord
280
     1
270
     1
271
     1
  0
XRECORD
  5
3F
102
{ACAD_REACTORS
330
3D
102
}
330
3D
100
AcDbXrecord
280
     1
270
     1
271
     1
  0
XRECORD
  5
40
102
{ACAD_REACTORS
330
3D
102
}
330
3D
100
AcDbXrecord
280
     1
270
     1
271
     1
  0
XRECORD
  5
41
102
{ACAD_REACTORS
330
3D
102
}
330
3D
100
AcDbXrecord
280
     1
270
     1
271
     1
  0
XRECORD
  5
42
102
{ACAD_REACTORS
330
3D
102
}
330
3D
100
AcDbXrecord
280
     1
270
     1
271
     1
  0
XRECORD
  5
43
102
{ACAD_REACTORS
330
3D
102
}
330
3D
100
AcDbXrecord
280
     1
270
     1
271
     1
  0
XRECORD
  5
36
102
{ACAD_REACTORS
330
35
102
}
330
35
100
AcDbXrecord
280
     1
270
     1
271
     1
  0
XRECORD
  5
37
102
{ACAD_REACTORS
330
35
102
}
330
35
100
AcDbXrecord
280
     1
270
     1
271
     1
  0
XRECORD
  5
38
102
{ACAD_REACTORS
330
35
102
}
330
35
100
AcDbXrecord
280
     1
270
     1
271
     1
  0
XRECORD
  5
39
102
{ACAD_REACTORS
330
35
102
}
330
35
100
AcDbXrecord
280
     1
270
     1
271
     1
  0
XRECORD
  5
3A
102
{ACAD_REACTORS
330
35
102
}
330
35
100
AcDbXrecord
280
     1
270
     1
271
     1
  0
XRECORD
  5
3B
102
{ACAD_REACTORS
330
35
102
}
330
35
100
AcDbXrecord
280
     1
270
     1
271
     1
  0
XRECORD
  5
11
102
{ACAD_REACTORS
330
10
102
}
330
10
100
AcDbXrecord
280
     1
270
     1
271
     1
  0
XRECORD
  5
12
102
{ACAD_REACTORS
330
10
102
}
330
10
100
AcDbXrecord
280
     1
270
     1
271
     1
  0
XRECORD
  5
13
102
{ACAD_REACTORS
330
10
102
}
330
10
100
AcDbXrecord
280
     1
270
     1
271
     1
  0
XRECORD
  5
14
102
{ACAD_REACTORS
330
10
102
}
330
10
100
AcDbXrecord
280
     1
270
     1
271
     1
  0
XRECORD
  5
15
102
{ACAD_REACTORS
330
10
102
}
330
10
100
AcDbXrecord
280
     1
270
     1
271
     1
  0
XRECORD
  5
16
102
{ACAD_REACTORS
330
10
102
}
330
10
100
AcDbXrecord
280
     1
270
     1
271
     1
  0
CELLSTYLEMAP
  5
136
102
{ACAD_REACTORS
330
58
102
}
330
58
100
AcDbCellStyleMap
 90
        3
300
CELLSTYLE
  1
TABLEFORMAT_BEGIN
 90
        5
170
     1
 91
        0
 92
    32768
 62
   257
 93
        1
300
CONTENTFORMAT
  1
CONTENTFORMAT_BEGIN
 90
        0
 91
        0
 92
        4
 93
        0
300

 40
0.0
140
1.0
 94
        5
 62
     0
340
21
144
0.25
309
CONTENTFORMAT_END
171
     1
301
MARGIN
  1
CELLMARGIN_BEGIN
 40
0.06
 40
0.06
 40
0.06
 40
0.06
 40
0.18
 40
0.18
309
CELLMARGIN_END
 94
        6
 95
        1
302
GRIDFORMAT
  1
GRIDFORMAT_BEGIN
 90
        0
 91
        1
 62
     0
 92
       -2
340
0
 93
        0
 40
0.045
309
GRIDFORMAT_END
 95
        2
302
GRIDFORMAT
  1
GRIDFORMAT_BEGIN
 90
        0
 91
        1
 62
     0
 92
       -2
340
0
 93
        0
 40
0.045
309
GRIDFORMAT_END
 95
        4
302
GRIDFORMAT
  1
GRIDFORMAT_BEGIN
 90
        0
 91
        1
 62
     0
 92
       -2
340
0
 93
        0
 40
0.045
309
GRIDFORMAT_END
 95
        8
302
GRIDFORMAT
  1
GRIDFORMAT_BEGIN
 90
        0
 91
        1
 62
     0
 92
       -2
340
0
 93
        0
 40
0.045
309
GRIDFORMAT_END
 95
       16
302
GRIDFORMAT
  1
GRIDFORMAT_BEGIN
 90
        0
 91
        1
 62
     0
 92
       -2
340
0
 93
        0
 40
0.045
309
GRIDFORMAT_END
 95
       32
302
GRIDFORMAT
  1
GRIDFORMAT_BEGIN
 90
        0
 91
        1
 62
     0
 92
       -2
340
0
 93
        0
 40
0.045
309
GRIDFORMAT_END
309
TABLEFORMAT_END
  1
CELLSTYLE_BEGIN
 90
        1
 91
        1
300
_TITLE
309
CELLSTYLE_END
300
CELLSTYLE
  1
TABLEFORMAT_BEGIN
 90
        5
170
     1
 91
        0
 92
        0
 62
   257
 93
        1
300
CONTENTFORMAT
  1
CONTENTFORMAT_BEGIN
 90
        0
 91
        0
 92
        4
 93
        0
300

 40
0.0
140
1.0
 94
        5
 62
     0
340
21
144
0.18
309
CONTENTFORMAT_END
171
     1
301
MARGIN
  1
CELLMARGIN_BEGIN
 40
0.06
 40
0.06
 40
0.06
 40
0.06
 40
0.18
 40
0.18
309
CELLMARGIN_END
 94
        6
 95
        1
302
GRIDFORMAT
  1
GRIDFORMAT_BEGIN
 90
        0
 91
        1
 62
     0
 92
       -2
340
0
 93
        0
 40
0.045
309
GRIDFORMAT_END
 95
        2
302
GRIDFORMAT
  1
GRIDFORMAT_BEGIN
 90
        0
 91
        1
 62
     0
 92
       -2
340
0
 93
        0
 40
0.045
309
GRIDFORMAT_END
 95
        4
302
GRIDFORMAT
  1
GRIDFORMAT_BEGIN
 90
        0
 91
        1
 62
     0
 92
       -2
340
0
 93
        0
 40
0.045
309
GRIDFORMAT_END
 95
        8
302
GRIDFORMAT
  1
GRIDFORMAT_BEGIN
 90
        0
 91
        1
 62
     0
 92
       -2
340
0
 93
        0
 40
0.045
309
GRIDFORMAT_END
 95
       16
302
GRIDFORMAT
  1
GRIDFORMAT_BEGIN
 90
        0
 91
        1
 62
     0
 92
       -2
340
0
 93
        0
 40
0.045
309
GRIDFORMAT_END
 95
       32
302
GRIDFORMAT
  1
GRIDFORMAT_BEGIN
 90
        0
 91
        1
 62
     0
 92
       -2
340
0
 93
        0
 40
0.045
309
GRIDFORMAT_END
309
TABLEFORMAT_END
  1
CELLSTYLE_BEGIN
 90
        2
 91
        1
300
_HEADER
309
CELLSTYLE_END
300
CELLSTYLE
  1
TABLEFORMAT_BEGIN
 90
        5
170
     1
 91
        0
 92
        0
 62
   257
 93
        1
300
CONTENTFORMAT
  1
CONTENTFORMAT_BEGIN
 90
        0
 91
        0
 92
        4
 93
        0
300

 40
0.0
140
1.0
 94
        2
 62
     0
340
21
144
0.18
309
CONTENTFORMAT_END
171
     1
301
MARGIN
  1
CELLMARGIN_BEGIN
 40
0.06
 40
0.06
 40
0.06
 40
0.06
 40
0.18
 40
0.18
309
CELLMARGIN_END
 94
        6
 95
        1
302
GRIDFORMAT
  1
GRIDFORMAT_BEGIN
 90
        0
 91
        1
 62
     0
 92
       -2
340
0
 93
        0
 40
0.045
309
GRIDFORMAT_END
 95
        2
302
GRIDFORMAT
  1
GRIDFORMAT_BEGIN
 90
        0
 91
        1
 62
     0
 92
       -2
340
0
 93
        0
 40
0.045
309
GRIDFORMAT_END
 95
        4
302
GRIDFORMAT
  1
GRIDFORMAT_BEGIN
 90
        0
 91
        1
 62
     0
 92
       -2
340
0
 93
        0
 40
0.045
309
GRIDFORMAT_END
 95
        8
302
GRIDFORMAT
  1
GRIDFORMAT_BEGIN
 90
        0
 91
        1
 62
     0
 92
       -2
340
0
 93
        0
 40
0.045
309
GRIDFORMAT_END
 95
       16
302
GRIDFORMAT
  1
GRIDFORMAT_BEGIN
 90
        0
 91
        1
 62
     0
 92
       -2
340
0
 93
        0
 40
0.045
309
GRIDFORMAT_END
 95
       32
302
GRIDFORMAT
  1
GRIDFORMAT_BEGIN
 90
        0
 91
        1
 62
     0
 92
       -2
340
0
 93
        0
 40
0.045
309
GRIDFORMAT_END
309
TABLEFORMAT_END
  1
CELLSTYLE_BEGIN
 90
        3
 91
        2
300
_DATA
309
CELLSTYLE_END
  0
ENDSEC
  0
EOF
