  0
SECTION
  2
HEADER
  9
$ACADVER
  1
AC1032
  9
$ACADMAINTVER
 90
      197
  9
$DWGCODEPAGE
  3
ANSI_936
  9
$REQUIREDVERSIONS
160
                 0
  9
$INSBASE
 10
0.0
 20
0.0
 30
0.0
  9
$EXTMIN
 10
5.0
 20
8.999999999999943
 30
0.0
  9
$EXTMAX
 10
1637.0
 20
392.0000000000001
 30
0.0
  9
$LIMMIN
 10
0.0
 20
0.0
  9
$LIMMAX
 10
0.0
 20
0.0
  9
$ORTHOMODE
 70
     0
  9
$REGENMODE
 70
     1
  9
$FILLMODE
 70
     1
  9
$QTEXTMODE
 70
     0
  9
$MIRRTEXT
 70
     0
  9
$LTSCALE
 40
8.0
  9
$ATTMODE
 70
     1
  9
$TEXTSIZE
 40
2.5
  9
$TRACEWID
 40
0.05
  9
$TEXTSTYLE
  7
SIMPLEX
  9
$CLAYER
  8
0
  9
$CELTYPE
  6
ByLayer
  9
$CECOLOR
 62
   256
  9
$CELTSCALE
 40
1.0
  9
$DISPSILH
 70
     0
  9
$DIMSCALE
 40
1.0
  9
$DIMASZ
 40
2.5
  9
$DIMEXO
 40
1.0
  9
$DIMDLI
 40
7.5
  9
$DIMRND
 40
0.0
  9
$DIMDLE
 40
1.25
  9
$DIMEXE
 40
1.25
  9
$DIMTP
 40
0.0
  9
$DIMTM
 40
0.0
  9
$DIMTXT
 40
3.0
  9
$DIMCEN
 40
1.25
  9
$DIMTSZ
 40
0.0
  9
$DIMTOL
 70
     0
  9
$DIMLIM
 70
     0
  9
$DIMTIH
 70
     0
  9
$DIMTOH
 70
     0
  9
$DIMSE1
 70
     0
  9
$DIMSE2
 70
     0
  9
$DIMTAD
 70
     1
  9
$DIMZIN
 70
     8
  9
$DIMBLK
  1

  9
$DIMASO
 70
     1
  9
$DIMSHO
 70
     1
  9
$DIMPOST
  1

  9
$DIMAPOST
  1

  9
$DIMALT
 70
     0
  9
$DIMALTD
 70
     2
  9
$DIMALTF
 40
25.4
  9
$DIMLFAC
 40
1.0
  9
$DIMTOFL
 70
     0
  9
$DIMTVP
 40
2.0
  9
$DIMTIX
 70
     0
  9
$DIMSOXD
 70
     0
  9
$DIMSAH
 70
     0
  9
$DIMBLK1
  1

  9
$DIMBLK2
  1

  9
$DIMSTYLE
  2
Standard
  9
$DIMCLRD
 70
     0
  9
$DIMCLRE
 70
     0
  9
$DIMCLRT
 70
     0
  9
$DIMTFAC
 40
1.0
  9
$DIMGAP
 40
1.25
  9
$DIMJUST
 70
     0
  9
$DIMSD1
 70
     0
  9
$DIMSD2
 70
     0
  9
$DIMTOLJ
 70
     1
  9
$DIMTZIN
 70
     0
  9
$DIMALTZ
 70
     0
  9
$DIMALTTZ
 70
     0
  9
$DIMUPT
 70
     0
  9
$DIMDEC
 70
     3
  9
$DIMTDEC
 70
     4
  9
$DIMALTU
 70
     2
  9
$DIMALTTD
 70
     2
  9
$DIMTXSTY
  7
SIMPLEX
  9
$DIMAUNIT
 70
     0
  9
$DIMADEC
 70
     0
  9
$DIMALTRND
 40
0.0
  9
$DIMAZIN
 70
     0
  9
$DIMDSEP
 70
    46
  9
$DIMATFIT
 70
     3
  9
$DIMFRAC
 70
     0
  9
$DIMLDRBLK
  1

  9
$DIMLUNIT
 70
     2
  9
$DIMLWD
 70
    -2
  9
$DIMLWE
 70
    -2
  9
$DIMTMOVE
 70
     0
  9
$DIMFXL
 40
1.0
  9
$DIMFXLON
 70
     0
  9
$DIMJOGANG
 40
0.7853981633974483
  9
$DIMTFILL
 70
     0
  9
$DIMTFILLCLR
 70
     0
  9
$DIMARCSYM
 70
     0
  9
$DIMLTYPE
  6

  9
$DIMLTEX1
  6

  9
$DIMLTEX2
  6

  9
$DIMTXTDIRECTION
 70
     0
  9
$LUNITS
 70
     2
  9
$LUPREC
 70
     6
  9
$SKETCHINC
 40
0.1
  9
$FILLETRAD
 40
0.0
  9
$AUNITS
 70
     0
  9
$AUPREC
 70
     0
  9
$MENU
  1
.
  9
$ELEVATION
 40
0.0
  9
$PELEVATION
 40
0.0
  9
$THICKNESS
 40
0.0
  9
$LIMCHECK
 70
     0
  9
$CHAMFERA
 40
0.0
  9
$CHAMFERB
 40
0.0
  9
$CHAMFERC
 40
0.0
  9
$CHAMFERD
 40
0.0
  9
$SKPOLY
 70
     0
  9
$TDCREATE
 40
2453354.050451389
  9
$TDUCREATE
 40
2453353.717125822
  9
$TDUPDATE
 40
2457253.635486111
  9
$TDUUPDATE
 40
2457253.302160602
  9
$TDINDWG
 40
0.1475476157
  9
$TDUSRTIMER
 40
0.1472817708
  9
$USRTIMER
 70
     1
  9
$ANGBASE
 50
0.0
  9
$ANGDIR
 70
     0
  9
$PDMODE
 70
     0
  9
$PDSIZE
 40
0.0
  9
$PLINEWID
 40
0.0
  9
$SPLFRAME
 70
     0
  9
$SPLINETYPE
 70
     6
  9
$SPLINESEGS
 70
     8
  9
$HANDSEED
  5
252
  9
$SURFTAB1
 70
     6
  9
$SURFTAB2
 70
     6
  9
$SURFTYPE
 70
     6
  9
$SURFU
 70
     6
  9
$SURFV
 70
     6
  9
$UCSBASE
  2

  9
$UCSNAME
  2

  9
$UCSORG
 10
0.0
 20
0.0
 30
0.0
  9
$UCSXDIR
 10
1.0
 20
0.0
 30
0.0
  9
$UCSYDIR
 10
0.0
 20
1.0
 30
0.0
  9
$UCSORTHOREF
  2

  9
$UCSORTHOVIEW
 70
     0
  9
$UCSORGTOP
 10
0.0
 20
0.0
 30
0.0
  9
$UCSORGBOTTOM
 10
0.0
 20
0.0
 30
0.0
  9
$UCSORGLEFT
 10
0.0
 20
0.0
 30
0.0
  9
$UCSORGRIGHT
 10
0.0
 20
0.0
 30
0.0
  9
$UCSORGFRONT
 10
0.0
 20
0.0
 30
0.0
  9
$UCSORGBACK
 10
0.0
 20
0.0
 30
0.0
  9
$PUCSBASE
  2

  9
$PUCSNAME
  2

  9
$PUCSORG
 10
0.0
 20
0.0
 30
0.0
  9
$PUCSXDIR
 10
1.0
 20
0.0
 30
0.0
  9
$PUCSYDIR
 10
0.0
 20
1.0
 30
0.0
  9
$PUCSORTHOREF
  2

  9
$PUCSORTHOVIEW
 70
     0
  9
$PUCSORGTOP
 10
0.0
 20
0.0
 30
0.0
  9
$PUCSORGBOTTOM
 10
0.0
 20
0.0
 30
0.0
  9
$PUCSORGLEFT
 10
0.0
 20
0.0
 30
0.0
  9
$PUCSORGRIGHT
 10
0.0
 20
0.0
 30
0.0
  9
$PUCSORGFRONT
 10
0.0
 20
0.0
 30
0.0
  9
$PUCSORGBACK
 10
0.0
 20
0.0
 30
0.0
  9
$USERI1
 70
     0
  9
$USERI2
 70
     0
  9
$USERI3
 70
     0
  9
$USERI4
 70
     0
  9
$USERI5
 70
 32767
  9
$USERR1
 40
0.0
  9
$USERR2
 40
0.0
  9
$USERR3
 40
0.0
  9
$USERR4
 40
0.0
  9
$USERR5
 40
0.0
  9
$WORLDVIEW
 70
     1
  9
$SHADEDGE
 70
     3
  9
$SHADEDIF
 70
    70
  9
$TILEMODE
 70
     1
  9
$MAXACTVP
 70
    16
  9
$PINSBASE
 10
0.0
 20
0.0
 30
0.0
  9
$PLIMCHECK
 70
     0
  9
$PEXTMIN
 10
0.0
 20
0.0
 30
0.0
  9
$PEXTMAX
 10
0.0
 20
0.0
 30
0.0
  9
$PLIMMIN
 10
0.0
 20
0.0
  9
$PLIMMAX
 10
0.0
 20
0.0
  9
$UNITMODE
 70
     0
  9
$VISRETAIN
 70
     0
  9
$PLINEGEN
 70
     0
  9
$PSLTSCALE
 70
     0
  9
$TREEDEPTH
 70
  3020
  9
$CMLSTYLE
  2
Standard
  9
$CMLJUST
 70
     0
  9
$CMLSCALE
 40
1.0
  9
$PROXYGRAPHICS
 70
     1
  9
$MEASUREMENT
 70
     0
  9
$CELWEIGHT
370
    -1
  9
$ENDCAPS
280
     0
  9
$JOINSTYLE
280
     0
  9
$LWDISPLAY
290
     0
  9
$INSUNITS
 70
     0
  9
$HYPERLINKBASE
  1

  9
$STYLESHEET
  1

  9
$XEDIT
290
     1
  9
$CEPSNTYPE
380
     0
  9
$PSTYLEMODE
290
     1
  9
$FINGERPRINTGUID
  2
{3F2E153D-5C30-8242-B11B-BA7D54A5607C}
  9
$VERSIONGUID
  2
{B7759CB0-03EC-469A-A7EA-FCFD9CDF1B97}
  9
$EXTNAMES
290
     1
  9
$PSVPSCALE
 40
0.0
  9
$OLESTARTUP
290
     0
  9
$SORTENTS
280
   127
  9
$INDEXCTL
280
     0
  9
$HIDETEXT
280
     1
  9
$XCLIPFRAME
280
     2
  9
$HALOGAP
280
     0
  9
$OBSCOLOR
 70
   257
  9
$OBSLTYPE
280
     0
  9
$INTERSECTIONDISPLAY
280
     0
  9
$INTERSECTIONCOLOR
 70
   257
  9
$DIMASSOC
280
     0
  9
$PROJECTNAME
  1

  9
$CAMERADISPLAY
290
     0
  9
$LENSLENGTH
 40
50.0
  9
$CAMERAHEIGHT
 40
0.0
  9
$STEPSPERSEC
 40
2.0
  9
$STEPSIZE
 40
6.0
  9
$3DDWFPREC
 40
2.0
  9
$PSOLWIDTH
 40
0.25
  9
$PSOLHEIGHT
 40
4.0
  9
$LOFTANG1
 40
1.570796326794896
  9
$LOFTANG2
 40
1.570796326794896
  9
$LOFTMAG1
 40
0.0
  9
$LOFTMAG2
 40
0.0
  9
$LOFTPARAM
 70
     7
  9
$LOFTNORMALS
280
     1
  9
$LATITUDE
 40
37.795
  9
$LONGITUDE
 40
-122.394
  9
$NORTHDIRECTION
 40
0.0
  9
$TIMEZONE
 70
 -8000
  9
$LIGHTGLYPHDISPLAY
280
     1
  9
$TILEMODELIGHTSYNCH
280
     1
  9
$CMATERIAL
347
2E
  9
$SOLIDHIST
280
     0
  9
$SHOWHIST
280
     1
  9
$DWFFRAME
280
     2
  9
$DGNFRAME
280
     0
  9
$REALWORLDSCALE
290
     1
  9
$INTERFERECOLOR
 62
     1
  9
$INTERFEREOBJVS
345
51
  9
$INTERFEREVPVS
346
52
  9
$CSHADOW
280
     0
  9
$SHADOWPLANELOCATION
 40
0.0
  0
ENDSEC
  0
SECTION
  2
CLASSES
  0
CLASS
  1
ACDBDICTIONARYWDFLT
  2
AcDbDictionaryWithDefault
  3
ObjectDBX Classes
 90
        0
 91
        1
280
     0
281
     0
  0
CLASS
  1
DICTIONARYVAR
  2
AcDbDictionaryVar
  3
ObjectDBX Classes
 90
        0
 91
       11
280
     0
281
     0
  0
CLASS
  1
TABLESTYLE
  2
AcDbTableStyle
  3
ObjectDBX Classes
 90
     4095
 91
        1
280
     0
281
     0
  0
CLASS
  1
MATERIAL
  2
AcDbMaterial
  3
ObjectDBX Classes
 90
     1153
 91
        3
280
     0
281
     0
  0
CLASS
  1
VISUALSTYLE
  2
AcDbVisualStyle
  3
ObjectDBX Classes
 90
     4095
 91
        4
280
     0
281
     0
  0
CLASS
  1
SCALE
  2
AcDbScale
  3
ObjectDBX Classes
 90
     1153
 91
       17
280
     0
281
     0
  0
CLASS
  1
MLEADERSTYLE
  2
AcDbMLeaderStyle
  3
ACDB_MLEADERSTYLE_CLASS
 90
     4095
 91
        0
280
     0
281
     0
  0
CLASS
  1
ACDBSECTIONVIEWSTYLE
  2
AcDbSectionViewStyle
  3
ObjectDBX Classes
 90
     1025
 91
        0
280
     0
281
     0
  0
CLASS
  1
ACDBDETAILVIEWSTYLE
  2
AcDbDetailViewStyle
  3
ObjectDBX Classes
 90
     1025
 91
        0
280
     0
281
     0
  0
CLASS
  1
SOLID_BACKGROUND
  2
AcDbSolidBackground
  3
SCENEOE
 90
     4095
 91
        0
280
     0
281
     0
  0
CLASS
  1
NPOCOLLECTION
  2
AcDbImpNonPersistentObjectsCollection
  3
ObjectDBX Classes
 90
     1153
 91
        0
280
     0
281
     0
  0
CLASS
  1
CELLSTYLEMAP
  2
AcDbCellStyleMap
  3
ObjectDBX Classes
 90
     1152
 91
        1
280
     0
281
     0
  0
ENDSEC
  0
SECTION
  2
TABLES
  0
TABLE
  2
VPORT
  5
22
330
0
100
AcDbSymbolTable
 70
     1
  0
VPORT
  5
23
330
22
100
AcDbSymbolTableRecord
100
AcDbViewportTableRecord
  2
*Active
 70
     0
 10
0.0
 20
0.0
 11
1.0
 21
1.0
 12
951.3218510954802
 22
128.2924916730656
 13
0.0
 23
0.0
 14
0.1
 24
0.1
 15
0.5
 25
0.5
 16
0.0
 26
0.0
 36
1.0
 17
0.0
 27
0.0
 37
0.0
 40
1343.165273933165
 41
2.311515151515151
 42
50.0
 43
0.0
 44
0.0
 50
0.0
 51
0.0
 71
    16
 72
   500
 73
     1
 74
     1
 75
     0
 76
     0
 77
     0
 78
     0
281
     0
 65
     1
110
0.0
120
0.0
130
0.0
111
1.0
121
0.0
131
0.0
112
0.0
122
1.0
132
0.0
 79
     0
146
0.0
348
24
 60
     3
 61
     5
292
     1
282
     1
141
0.0
142
0.0
 63
   250
421
  3355443
1001
ACAD_NAV_VCDISPLAY
1070
     3
  0
ENDTAB
  0
TABLE
  2
LTYPE
  5
1D
330
0
100
AcDbSymbolTable
 70
     3
  0
LTYPE
  5
1E
330
1D
100
AcDbSymbolTableRecord
100
AcDbLinetypeTableRecord
  2
ByBlock
 70
     0
  3

 72
    65
 73
     0
 40
0.0
  0
LTYPE
  5
1F
330
1D
100
AcDbSymbolTableRecord
100
AcDbLinetypeTableRecord
  2
ByLayer
 70
     0
  3

 72
    65
 73
     0
 40
0.0
  0
LTYPE
  5
11
330
1D
100
AcDbSymbolTableRecord
100
AcDbLinetypeTableRecord
  2
Continuous
 70
     0
  3
Solid line
 72
    65
 73
     0
 40
0.0
  0
LTYPE
  5
B0
330
1D
100
AcDbSymbolTableRecord
100
AcDbLinetypeTableRecord
  2
CENTER
 70
     0
  3
____ _ ____ _ ____ _ ____ _ ____ _ ____ _ ____
 72
    65
 73
     4
 40
2.0
 49
1.25
 74
     4
 75
     0
340
0
 46
1.0
 50
0.0
 44
0.0
 45
0.0
 49
-0.25
 74
     4
 75
     0
340
0
 46
1.0
 50
0.0
 44
0.0
 45
0.0
 49
0.25
 74
     4
 75
     0
340
0
 46
1.0
 50
0.0
 44
0.0
 45
0.0
 49
-0.25
 74
     4
 75
     0
340
0
 46
1.0
 50
0.0
 44
0.0
 45
0.0
  0
LTYPE
  5
80
330
1D
100
AcDbSymbolTableRecord
100
AcDbLinetypeTableRecord
  2
HIDDEN
 70
     0
  3
_ _ _ _ _ _ _ _ _ _ _ _ _ _ _ _ _ _ _ _ _ _ _
 72
    65
 73
     2
 40
0.375
 49
0.25
 74
     4
 75
     0
340
0
 46
1.0
 50
0.0
 44
0.0
 45
0.0
 49
-0.125
 74
     4
 75
     0
340
0
 46
1.0
 50
0.0
 44
0.0
 45
0.0
  0
ENDTAB
  0
TABLE
  2
LAYER
  5
19
330
0
100
AcDbSymbolTable
 70
     6
  0
LAYER
  5
4
330
19
100
AcDbSymbolTableRecord
100
AcDbLayerTableRecord
  2
0
 70
     0
 62
     7
  6
Continuous
370
    -3
390
5
347
8
348
0
  0
LAYER
  5
6B
330
19
100
AcDbSymbolTableRecord
100
AcDbLayerTableRecord
  2
DIM
 70
     0
 62
     7
  6
Continuous
370
    -3
390
5
347
8
348
0
  0
LAYER
  5
AF
330
19
100
AcDbSymbolTableRecord
100
AcDbLayerTableRecord
  2
CEN
 70
     0
 62
     3
  6
CENTER
370
    -3
390
5
347
8
348
0
  0
LAYER
  5
69
330
19
100
AcDbSymbolTableRecord
100
AcDbLayerTableRecord
  2
LF-LINE
 70
     0
 62
     1
  6
Continuous
370
    -3
390
5
347
8
348
0
  0
LAYER
  5
83
330
19
100
AcDbSymbolTableRecord
100
AcDbLayerTableRecord
  2
COIN-LINE
 70
     0
 62
     4
  6
Continuous
370
    -3
390
5
347
8
348
0
  0
LAYER
  5
7F
330
19
100
AcDbSymbolTableRecord
100
AcDbLayerTableRecord
  2
PKG-OUT
 70
     0
 62
     3
  6
HIDDEN
370
    -3
390
5
347
8
348
0
  0
ENDTAB
  0
TABLE
  2
STYLE
  5
1A
330
0
100
AcDbSymbolTable
 70
     2
  0
STYLE
  5
1B
330
1A
100
AcDbSymbolTableRecord
100
AcDbTextStyleTableRecord
  2
Standard
 70
     0
 40
3.0
 41
1.0
 50
0.0
 71
     0
 42
2.5
  3
SIMPLEX
  4

  0
STYLE
  5
4E
330
1A
100
AcDbSymbolTableRecord
100
AcDbTextStyleTableRecord
  2
SIMPLEX
 70
     0
 40
3.0
 41
1.0
 50
0.0
 71
     0
 42
2.5
  3
SIMPLEX.shx
  4

  0
ENDTAB
  0
TABLE
  2
VIEW
  5
20
330
0
100
AcDbSymbolTable
 70
     0
  0
ENDTAB
  0
TABLE
  2
UCS
  5
21
330
0
100
AcDbSymbolTable
 70
     0
  0
ENDTAB
  0
TABLE
  2
APPID
  5
27
330
0
100
AcDbSymbolTable
 70
     2
  0
APPID
  5
28
330
27
100
AcDbSymbolTableRecord
100
AcDbRegAppTableRecord
  2
ACAD
 70
     0
  0
APPID
  5
26
330
27
100
AcDbSymbolTableRecord
100
AcDbRegAppTableRecord
  2
ACAD_NAV_VCDISPLAY
 70
     0
  0
ENDTAB
  0
TABLE
  2
DIMSTYLE
  5
29
330
0
100
AcDbSymbolTable
 70
     1
100
AcDbDimStyleTable
 71
     0
  0
DIMSTYLE
105
53
330
29
100
AcDbSymbolTableRecord
100
AcDbDimStyleTableRecord
  2
Standard
 70
     0
340
1B
  0
ENDTAB
  0
TABLE
  2
BLOCK_RECORD
  5
1
330
0
100
AcDbSymbolTable
 70
     1
  0
BLOCK_RECORD
  5
2
330
1
100
AcDbSymbolTableRecord
100
AcDbBlockTableRecord
  2
*Model_Space
340
13
 70
     0
280
     1
281
     0
  0
BLOCK_RECORD
  5
15
330
1
100
AcDbSymbolTableRecord
100
AcDbBlockTableRecord
  2
*Paper_Space
340
18
 70
     0
280
     1
281
     0
  0
BLOCK_RECORD
  5
66
330
1
100
AcDbSymbolTableRecord
100
AcDbBlockTableRecord
  2
SH3
340
0
102
{BLKREFS
331
65
102
}
 70
     0
280
     1
281
     0
  0
ENDTAB
  0
ENDSEC
  0
SECTION
  2
BLOCKS
  0
BLOCK
  5
3
330
2
100
AcDbEntity
  8
0
100
AcDbBlockBegin
  2
*Model_Space
 70
     0
 10
0.0
 20
0.0
 30
0.0
  3
*Model_Space
  1

  0
ENDBLK
  5
12
330
2
100
AcDbEntity
  8
0
100
AcDbBlockEnd
  0
BLOCK
  5
16
330
15
100
AcDbEntity
 67
     1
  8
0
100
AcDbBlockBegin
  2
*Paper_Space
 70
     0
 10
0.0
 20
0.0
 30
0.0
  3
*Paper_Space
  1

  0
ENDBLK
  5
17
330
15
100
AcDbEntity
 67
     1
  8
0
100
AcDbBlockEnd
  0
BLOCK
  5
67
330
66
100
AcDbEntity
  8
0
100
AcDbBlockBegin
  2
SH3
 70
     0
 10
0.0
 20
0.0
 30
0.0
  3
SH3
  1

  0
TEXT
  5
68
330
66
100
AcDbEntity
  8
LF-LINE
100
AcDbText
 10
658.6684211604156
 20
-313.5608794042255
 30
0.0
 40
3.0
  1
%%USECTION B-B
  7
SIMPLEX
100
AcDbText
  0
LINE
  5
6A
330
66
100
AcDbEntity
  8
DIM
100
AcDbLine
 10
694.286491071215
 20
-292.1434184831851
 30
0.0
 11
682.2739235322318
 21
-292.1434184831851
 31
0.0
  0
LINE
  5
6C
330
66
100
AcDbEntity
  8
DIM
100
AcDbLine
 10
692.2864910712149
 20
-296.1434184831851
 30
0.0
 11
682.2739235322318
 21
-296.1434184831851
 31
0.0
  0
LINE
  5
6D
330
66
100
AcDbEntity
  8
DIM
100
AcDbLine
 10
683.2739235322318
 20
-299.1434184831851
 30
0.0
 11
683.2739235322318
 21
-302.1434184831851
 31
0.0
  0
SOLID
  5
6E
330
66
100
AcDbEntity
  8
DIM
100
AcDbTrace
 10
683.2739235322318
 20
-292.1434184831851
 30
0.0
 11
682.7739235322316
 21
-289.1434184831851
 31
0.0
 12
683.7739235322318
 22
-289.1434184831851
 32
0.0
 13
683.7739235322318
 23
-289.1434184831851
 33
0.0
  0
LINE
  5
70
330
66
100
AcDbEntity
  8
DIM
100
AcDbLine
 10
683.2739235322318
 20
-289.1434184831851
 30
0.0
 11
683.2739235322318
 21
-274.0404981974967
 31
0.0
  0
SOLID
  5
71
330
66
100
AcDbEntity
  8
DIM
100
AcDbTrace
 10
683.2739235322318
 20
-296.1434184831851
 30
0.0
 11
682.7739235322316
 21
-299.1434184831851
 31
0.0
 12
683.7739235322318
 22
-299.1434184831851
 32
0.0
 13
683.7739235322318
 23
-299.1434184831851
 33
0.0
  0
MTEXT
  5
72
330
66
100
AcDbEntity
  8
DIM
100
AcDbMText
 10
681.1739235322317
 20
-280.5242159297244
 30
0.0
 40
2.5
 41
0.0
 46
0.0
 71
     5
 72
     1
  1
0.1015
  7
SIMPLEX
 11
0.0
 21
1.0
 31
0.0
 73
     1
 44
1.0
  0
LINE
  5
73
330
66
100
AcDbEntity
  8
DIM
100
AcDbLine
 10
729.4363414591821
 20
-293.1434184831849
 30
0.0
 11
729.4363414591821
 21
-277.6801986882246
 31
0.0
  0
SOLID
  5
74
330
66
100
AcDbEntity
  8
DIM
100
AcDbTrace
 10
729.4363414591821
 20
-296.1434184831849
 30
0.0
 11
728.9363414591819
 21
-293.1434184831849
 31
0.0
 12
729.9363414591821
 22
-293.1434184831849
 32
0.0
 13
729.9363414591821
 23
-293.1434184831849
 33
0.0
  0
SOLID
  5
75
330
66
100
AcDbEntity
  8
DIM
100
AcDbTrace
 10
729.4363414591821
 20
-300.1434184831849
 30
0.0
 11
728.9363414591819
 21
-303.1434184831849
 31
0.0
 12
729.9363414591821
 22
-303.1434184831849
 32
0.0
 13
729.9363414591821
 23
-303.1434184831849
 33
0.0
  0
MTEXT
  5
76
330
66
100
AcDbEntity
  8
DIM
100
AcDbMText
 10
727.336341459182
 20
-284.0191266944108
 30
0.0
 40
2.5
 41
0.0
 46
0.0
 71
     5
 72
     1
  1
0.1015
  7
SIMPLEX
 11
0.0
 21
1.0
 31
0.0
 73
     1
 44
1.0
  0
MTEXT
  5
77
330
66
100
AcDbEntity
  8
DIM
100
AcDbMText
 10
680.0958872322383
 20
-268.8194601248131
 30
0.0
 40
1.799999999999954
 41
0.0
 46
0.0
 71
     5
 72
     1
  1
%%P0.050
  7
SIMPLEX
 11
0.0
 21
1.0
 31
0.0
 73
     1
 44
1.0
  0
LINE
  5
78
330
66
100
AcDbEntity
  8
DIM
100
AcDbLine
 10
683.2739235322318
 20
-292.1434184831851
 30
0.0
 11
683.2739235322318
 21
-296.1434184831851
 31
0.0
  0
MTEXT
  5
79
330
66
100
AcDbEntity
  8
DIM
100
AcDbMText
 10
726.2450128012594
 20
-272.7318014900109
 30
0.0
 40
1.799999999999954
 41
0.0
 46
0.0
 71
     5
 72
     1
  1
%%P0.050
  7
SIMPLEX
 11
0.0
 21
1.0
 31
0.0
 73
     1
 44
1.0
  0
LINE
  5
7A
330
66
100
AcDbEntity
  8
DIM
100
AcDbLine
 10
729.4363414591821
 20
-300.1434184831849
 30
0.0
 11
729.4363414591821
 21
-296.1434184831849
 31
0.0
  0
TEXT
  5
7B
330
66
100
AcDbEntity
  8
DIM
100
AcDbText
 10
647.9194743199079
 20
-273.4543637564077
 30
0.0
 40
2.5
  1
TOP SIDE
  7
SIMPLEX
100
AcDbText
  0
SOLID
  5
7C
330
66
100
AcDbEntity
  8
DIM
100
AcDbTrace
 10
636.5502980658191
 20
-292.1434184831851
 30
0.0
 11
638.0503441081846
 21
-289.4976932762176
 31
0.0
 12
637.1111874982296
 22
-289.1542040304216
 32
0.0
 13
637.1111874982296
 23
-289.1542040304216
 33
0.0
  0
LWPOLYLINE
  5
7D
330
66
100
AcDbEntity
  8
DIM
100
AcDbPolyline
 90
        3
 70
     0
 43
0.0
 10
637.5807658032072
 20
-289.3259486533196
 10
643.8867008500335
 20
-272.0844755834678
 10
646.6694743199079
 20
-272.0844755834678
  0
LWPOLYLINE
  5
7E
330
66
100
AcDbEntity
  8
PKG-OUT
100
AcDbPolyline
 90
        4
 70
     1
 43
0.0
 10
752.1699358027226
 20
-306.9737337950038
 10
752.1699358027226
 20
-311.4737337950038
 10
743.1699358027226
 20
-311.4737337950038
 10
743.1699358027226
 20
-306.9737337950038
  0
TEXT
  5
81
330
66
100
AcDbEntity
  8
DIM
100
AcDbText
 10
756.243805468132
 20
-310.9005054582951
 30
0.0
 40
2.5
  1
HALF ETCH ON BOTTOM SIDE
  7
SIMPLEX
100
AcDbText
  0
LWPOLYLINE
  5
82
330
66
100
AcDbEntity
  8
COIN-LINE
100
AcDbPolyline
 90
        4
 70
     1
 43
0.0
 10
752.1699358027226
 20
-315.9737337950038
 10
752.1699358027226
 20
-320.4737337950038
 10
743.1699358027226
 20
-320.4737337950038
 10
743.1699358027226
 20
-315.9737337950038
  0
TEXT
  5
84
330
66
100
AcDbEntity
  8
DIM
100
AcDbText
 10
756.243805468132
 20
-319.9005054582951
 30
0.0
 40
2.5
  1
HALF ETCH ON TOP SIDE
  7
SIMPLEX
100
AcDbText
  0
HATCH
  5
85
330
66
100
AcDbEntity
  8
COIN-LINE
 62
     3
100
AcDbHatch
 10
0.0
 20
0.0
 30
0.0
210
0.0
220
0.0
230
1.0
  2
ANSI31
 70
     0
 71
     0
 91
        1
 92
        7
 72
     0
 73
     1
 93
        4
 10
752.1699358027226
 20
-306.9737337950038
 10
743.1699358027226
 20
-306.9737337950038
 10
743.1699358027226
 20
-311.4737337950038
 10
752.1699358027226
 20
-311.4737337950038
 97
        0
 75
     0
 76
     1
 52
0.0
 41
5.0
 77
     0
 78
     1
 53
45.00000000000875
 43
559.9939643792963
 44
-2.115476078349658
 45
-0.4419417382416669
 46
0.4419417382416097
 79
     0
 47
0.0
 98
        1
 10
0.0
 20
0.0
  0
HATCH
  5
86
330
66
100
AcDbEntity
  8
PKG-OUT
 62
     4
100
AcDbHatch
 10
0.0
 20
0.0
 30
0.0
210
0.0
220
0.0
230
1.0
  2
ANSI37
 70
     0
 71
     0
 91
        1
 92
        7
 72
     0
 73
     1
 93
        4
 10
752.1699358027226
 20
-315.9737337950038
 10
743.1699358027226
 20
-315.9737337950038
 10
743.1699358027226
 20
-320.4737337950038
 10
752.1699358027226
 20
-320.4737337950038
 97
        0
 75
     0
 76
     1
 52
0.0
 41
10.0
 77
     0
 78
     2
 53
45.00000000000875
 43
559.9939643792963
 44
-2.115476078349658
 45
-0.8838834764831062
 46
0.8838834764831632
 79
     0
 53
134.9999999999913
 43
559.9939643792963
 44
-2.115476078349658
 45
-0.8838834764831061
 46
-0.8838834764831627
 79
     0
 47
0.0
 98
        1
 10
0.0
 20
0.0
  0
LINE
  5
87
330
66
100
AcDbEntity
  8
DIM
100
AcDbLine
 10
729.4363414591821
 20
-303.1434184831849
 30
0.0
 11
729.4363414591821
 21
-306.1434184831849
 31
0.0
  0
LINE
  5
88
330
66
100
AcDbEntity
  8
LF-LINE
100
AcDbLine
 10
694.286491071215
 20
-292.1434184831851
 30
0.0
 11
694.286491071215
 21
-294.1434184831851
 31
0.0
  0
ARC
  5
89
330
66
100
AcDbEntity
  8
LF-LINE
100
AcDbCircle
 10
692.2864910712149
 20
-294.1434184831851
 30
0.0
 40
2.0
100
AcDbArc
 50
270.0
 51
-0.000000000000014
  0
LINE
  5
8A
330
66
100
AcDbEntity
  8
LF-LINE
100
AcDbLine
 10
692.2864910712149
 20
-296.1434184831851
 30
0.0
 11
664.2864910712149
 21
-296.1434184831851
 31
0.0
  0
ARC
  5
8B
330
66
100
AcDbEntity
  8
LF-LINE
100
AcDbCircle
 10
664.2864910712149
 20
-294.1434184831851
 30
0.0
 40
2.0
100
AcDbArc
 50
180.0
 51
270.0
  0
LINE
  5
8C
330
66
100
AcDbEntity
  8
LF-LINE
100
AcDbLine
 10
662.2864910712149
 20
-294.1434184831851
 30
0.0
 11
662.2864910712149
 21
-292.1434184831851
 31
0.0
  0
LINE
  5
8D
330
66
100
AcDbEntity
  8
LF-LINE
100
AcDbLine
 10
662.2864910712149
 20
-292.1434184831851
 30
0.0
 11
634.5475185094353
 21
-292.1434184831851
 31
0.0
  0
ARC
  5
8E
330
66
100
AcDbEntity
  8
LF-LINE
100
AcDbCircle
 10
639.9693451210969
 20
-294.9965048651715
 30
0.0
 40
6.126687988627952
100
AcDbArc
 50
152.2456515871924
 51
203.0562432488909
  0
ARC
  5
8F
330
66
100
AcDbEntity
  8
LF-LINE
100
AcDbCircle
 10
629.8976045075618
 20
-299.9758216689376
 30
0.0
 40
5.130319305263129
100
AcDbArc
 50
358.1279335000356
 51
30.19019610188469
  0
LINE
  5
90
330
66
100
AcDbEntity
  8
LF-LINE
100
AcDbLine
 10
635.0251855631678
 20
-300.1434184831851
 30
0.0
 11
636.286491071215
 21
-300.1434184831851
 31
0.0
  0
LINE
  5
91
330
66
100
AcDbEntity
  8
LF-LINE
100
AcDbLine
 10
688.5475185094353
 20
-300.1434184831851
 30
0.0
 11
698.286491071215
 21
-300.1434184831851
 31
0.0
  0
LINE
  5
92
330
66
100
AcDbEntity
  8
LF-LINE
100
AcDbLine
 10
636.286491071215
 20
-300.1434184831851
 30
0.0
 11
636.286491071215
 21
-298.1434184831851
 31
0.0
  0
ARC
  5
93
330
66
100
AcDbEntity
  8
LF-LINE
100
AcDbCircle
 10
638.2864910712149
 20
-298.1434184831851
 30
0.0
 40
2.0
100
AcDbArc
 50
90.0
 51
180.0
  0
ARC
  5
94
330
66
100
AcDbEntity
  8
LF-LINE
100
AcDbCircle
 10
656.286491071215
 20
-298.1434184831851
 30
0.0
 40
2.0
100
AcDbArc
 50
0.0
 51
90.0
  0
LINE
  5
95
330
66
100
AcDbEntity
  8
LF-LINE
100
AcDbLine
 10
658.2864910712149
 20
-298.1434184831851
 30
0.0
 11
658.2864910712149
 21
-300.1434184831851
 31
0.0
  0
LINE
  5
96
330
66
100
AcDbEntity
  8
LF-LINE
100
AcDbLine
 10
638.2864910712149
 20
-296.1434184831851
 30
0.0
 11
656.286491071215
 21
-296.1434184831851
 31
0.0
  0
LINE
  5
97
330
66
100
AcDbEntity
  8
LF-LINE
100
AcDbLine
 10
658.2864910712149
 20
-300.1434184831851
 30
0.0
 11
688.5475185094353
 21
-300.1434184831851
 31
0.0
  0
LINE
  5
98
330
66
100
AcDbEntity
  8
DIM
100
AcDbLine
 10
721.5477965792621
 20
-300.1434184831849
 30
0.0
 11
730.4363414591821
 21
-300.1434184831849
 31
0.0
  0
LINE
  5
99
330
66
100
AcDbEntity
  8
DIM
100
AcDbLine
 10
706.886491071215
 20
-296.1434184831851
 30
0.0
 11
715.775035951135
 21
-296.1434184831851
 31
0.0
  0
ARC
  5
9A
330
66
100
AcDbEntity
  8
LF-LINE
100
AcDbCircle
 10
700.2864910712149
 20
-298.1434184831851
 30
0.0
 40
2.0
100
AcDbArc
 50
90.0
 51
180.0
  0
LINE
  5
9B
330
66
100
AcDbEntity
  8
LF-LINE
100
AcDbLine
 10
698.286491071215
 20
-298.1434184831851
 30
0.0
 11
698.286491071215
 21
-300.1434184831851
 31
0.0
  0
LINE
  5
9C
330
66
100
AcDbEntity
  8
LF-LINE
100
AcDbLine
 10
718.2864910712149
 20
-296.1434184831851
 30
0.0
 11
700.2864910712149
 21
-296.1434184831851
 31
0.0
  0
LINE
  5
9D
330
66
100
AcDbEntity
  8
LF-LINE
100
AcDbLine
 10
694.286491071215
 20
-292.1434184831851
 30
0.0
 11
722.0254636329946
 21
-292.1434184831851
 31
0.0
  0
ARC
  5
9E
330
66
100
AcDbEntity
  8
LF-LINE
100
AcDbCircle
 10
716.603637021333
 20
-294.9965048651715
 30
0.0
 40
6.12668798862796
100
AcDbArc
 50
336.9437567511091
 51
27.7543484128076
  0
ARC
  5
9F
330
66
100
AcDbEntity
  8
LF-LINE
100
AcDbCircle
 10
726.6753776348681
 20
-299.9758216689376
 30
0.0
 40
5.130319305263109
100
AcDbArc
 50
149.809803898115
 51
181.8720664999634
  0
LINE
  5
A0
330
66
100
AcDbEntity
  8
LF-LINE
100
AcDbLine
 10
721.5477965792621
 20
-300.1434184831851
 30
0.0
 11
720.286491071215
 21
-300.1434184831851
 31
0.0
  0
LINE
  5
A1
330
66
100
AcDbEntity
  8
LF-LINE
100
AcDbLine
 10
720.286491071215
 20
-300.1434184831851
 30
0.0
 11
720.286491071215
 21
-298.1434184831851
 31
0.0
  0
ARC
  5
A2
330
66
100
AcDbEntity
  8
LF-LINE
100
AcDbCircle
 10
718.2864910712149
 20
-298.1434184831851
 30
0.0
 40
2.0
100
AcDbArc
 50
0.0
 51
90.0
  0
LINE
  5
A3
330
66
100
AcDbEntity
  8
DIM
100
AcDbLine
 10
718.2864910712149
 20
-296.1434184831851
 30
0.0
 11
730.3697028952744
 21
-296.2139948327047
 31
0.0
  0
MTEXT
  5
A4
330
66
100
AcDbEntity
  8
DIM
100
AcDbMText
 10
702.4154871582003
 20
-16.58142151229486
 30
0.0
 40
10.0
 41
0.0
 46
0.0
 71
     5
 72
     1
  1
Detail B
  7
SIMPLEX
 73
     1
 44
1.0
  0
TEXT
  5
A5
330
66
100
AcDbEntity
  8
LF-LINE
100
AcDbText
 10
729.0
 20
-343.4
 30
0.0
 40
4.799999999999999
  1
SMD3030 LEADLESS
  7
SIMPLEX
 11
729.0
 21
-341.0
 31
0.0
100
AcDbText
 73
     2
  0
TEXT
  5
A6
330
66
100
AcDbEntity
  8
0
100
AcDbText
 10
723.9993366181063
 20
-379.5
 30
0.0
 40
2.5
  1
MM
  7
SIMPLEX
 72
     1
 11
726.3743366181063
 21
-377.0
 31
0.0
100
AcDbText
 73
     3
  0
TEXT
  5
A7
330
66
100
AcDbEntity
  8
0
100
AcDbText
 10
786.1993366181061
 20
-357.0
 30
0.0
 40
2.5
  1
NOT TO SCALE
  7
SIMPLEX
 72
     2
 11
813.874336618106
 21
-357.0
 31
0.0
100
AcDbText
  0
TEXT
  5
A8
330
66
100
AcDbEntity
  8
0
100
AcDbText
 10
754.0118366181063
 20
-379.5
 30
0.0
 40
2.5
  1
%%P.050
  7
SIMPLEX
 72
     1
 11
759.3743366181063
 21
-377.0
 31
0.0
100
AcDbText
 73
     3
  0
TEXT
  5
A9
330
66
100
AcDbEntity
  8
0
100
AcDbText
 10
805.874336618106
 20
-378.3735671831232
 30
0.0
 40
2.5
  1
6
  7
SIMPLEX
 11
805.874336618106
 21
-377.1235671831231
 31
0.0
100
AcDbText
 73
     2
  0
TEXT
  5
AA
330
66
100
AcDbEntity
  8
0
100
AcDbText
 10
712.6743366181062
 20
-368.175
 30
0.0
 40
2.5
  1
2-092092-SMD3030(FRAME)-6
  7
SIMPLEX
 72
     1
 11
742.8743366181063
 21
-369.0
 31
0.0
100
AcDbText
 73
     1
  0
TEXT
  5
AB
330
66
100
AcDbEntity
  8
0
100
AcDbText
 10
786.374336618106
 20
-378.3735671831232
 30
0.0
 40
2.5
  1
3
  7
SIMPLEX
 11
786.374336618106
 21
-377.1235671831231
 31
0.0
100
AcDbText
 73
     2
  0
TEXT
  5
AC
330
66
100
AcDbEntity
  8
0
100
AcDbText
 10
794.9743366181061
 20
-366.25
 30
0.0
 40
2.5
  1
C
  7
SIMPLEX
 72
     1
 11
795.8743366181061
 21
-365.0
 31
0.0
100
AcDbText
 73
     2
  0
TEXT
  5
AD
330
66
100
AcDbEntity
  8
0
100
AcDbText
 10
739.4243366181062
 20
-356.175
 30
0.0
 40
2.5
  1
AOT
  7
SIMPLEX
 72
     1
 11
742.8743366181063
 21
-357.0
 31
0.0
100
AcDbText
 73
     1
  0
LINE
  5
AE
330
66
100
AcDbEntity
  8
CEN
 48
0.01
100
AcDbLine
 10
682.2244553531382
 20
-212.4037103566946
 30
0.0
 11
682.2244553531436
 21
-187.0715222865186
 31
0.0
  0
LINE
  5
B1
330
66
100
AcDbEntity
  8
CEN
 48
0.01
100
AcDbLine
 10
694.8905493882314
 20
-199.7376163216069
 30
0.0
 11
669.5583613180503
 21
-199.7376163216012
 31
0.0
  0
LINE
  5
B2
330
66
100
AcDbEntity
  8
CEN
 48
0.01
100
AcDbLine
 10
682.2244553531382
 20
-212.4037103566946
 30
0.0
 11
682.2244553531436
 21
-187.0715222865186
 31
0.0
  0
LINE
  5
B3
330
66
100
AcDbEntity
  8
CEN
 48
0.01
100
AcDbLine
 10
694.8905493882314
 20
-199.7376163216069
 30
0.0
 11
669.5583613180503
 21
-199.7376163216012
 31
0.0
  0
LINE
  5
B4
330
66
100
AcDbEntity
  8
CEN
 48
0.01
100
AcDbLine
 10
755.824455353138
 20
-212.4037103566946
 30
0.0
 11
755.8244553531433
 21
-187.0715222865186
 31
0.0
  0
LINE
  5
B5
330
66
100
AcDbEntity
  8
CEN
 48
0.01
100
AcDbLine
 10
768.4905493882311
 20
-199.7376163216069
 30
0.0
 11
743.1583613180499
 21
-199.7376163216012
 31
0.0
  0
LINE
  5
B6
330
66
100
AcDbEntity
  8
CEN
 48
0.01
100
AcDbLine
 10
755.824455353138
 20
-212.4037103566946
 30
0.0
 11
755.8244553531433
 21
-187.0715222865186
 31
0.0
  0
LINE
  5
B7
330
66
100
AcDbEntity
  8
CEN
 48
0.01
100
AcDbLine
 10
768.4905493882311
 20
-199.7376163216069
 30
0.0
 11
743.1583613180499
 21
-199.7376163216012
 31
0.0
  0
LINE
  5
B8
330
66
100
AcDbEntity
  8
CEN
 48
0.01
100
AcDbLine
 10
682.2244553531382
 20
-102.0037103566943
 30
0.0
 11
682.2244553531436
 21
-76.67152228651843
 31
0.0
  0
LINE
  5
B9
330
66
100
AcDbEntity
  8
CEN
 48
0.01
100
AcDbLine
 10
694.8905493882314
 20
-89.3376163216061
 30
0.0
 11
669.5583613180503
 21
-89.33761632160098
 31
0.0
  0
LINE
  5
BA
330
66
100
AcDbEntity
  8
CEN
 48
0.01
100
AcDbLine
 10
682.2244553531382
 20
-102.0037103566943
 30
0.0
 11
682.2244553531436
 21
-76.67152228651843
 31
0.0
  0
LINE
  5
BB
330
66
100
AcDbEntity
  8
CEN
 48
0.01
100
AcDbLine
 10
694.8905493882314
 20
-89.3376163216061
 30
0.0
 11
669.5583613180503
 21
-89.33761632160098
 31
0.0
  0
LINE
  5
BC
330
66
100
AcDbEntity
  8
CEN
 48
0.01
100
AcDbLine
 10
755.824455353138
 20
-102.0037103566943
 30
0.0
 11
755.8244553531433
 21
-76.67152228651843
 31
0.0
  0
LINE
  5
BD
330
66
100
AcDbEntity
  8
CEN
 48
0.01
100
AcDbLine
 10
768.4905493882311
 20
-89.3376163216061
 30
0.0
 11
743.1583613180499
 21
-89.33761632160098
 31
0.0
  0
LINE
  5
BE
330
66
100
AcDbEntity
  8
CEN
 48
0.01
100
AcDbLine
 10
755.824455353138
 20
-102.0037103566943
 30
0.0
 11
755.8244553531433
 21
-76.67152228651843
 31
0.0
  0
LINE
  5
BF
330
66
100
AcDbEntity
  8
CEN
 48
0.01
100
AcDbLine
 10
768.4905493882311
 20
-89.3376163216061
 30
0.0
 11
743.1583613180499
 21
-89.33761632160098
 31
0.0
  0
LWPOLYLINE
  5
C0
330
66
100
AcDbEntity
  8
LF-LINE
100
AcDbPolyline
 90
        4
 70
     0
 43
0.0
 10
607.4647001550525
 20
-52.87234558281443
 42
-0.3972545865385531
 10
601.7244513519365
 20
-58.28761632158489
 10
583.3244513519532
 20
-58.28761632158489
 42
-0.3587073244897867
 10
577.6813794144759
 20
-53.64135501731647
  0
LINE
  5
C1
330
66
100
AcDbEntity
  8
LF-LINE
100
AcDbLine
 10
638.5244553531408
 20
-50.13269572838783
 30
0.0
 11
638.5244553531408
 21
-241.2597103980702
 31
0.0
  0
LINE
  5
C2
330
66
100
AcDbEntity
  8
LF-LINE
100
AcDbLine
 10
645.424455353142
 20
-138.7876163216086
 30
0.0
 11
638.5244553531407
 21
-138.7876163216086
 31
0.0
  0
LINE
  5
C3
330
66
100
AcDbEntity
  8
LF-LINE
100
AcDbLine
 10
645.4244553531422
 20
-150.2876163216086
 30
0.0
 11
638.5244553531405
 21
-150.2876163216086
 31
0.0
  0
LWPOLYLINE
  5
C4
330
66
100
AcDbEntity
  8
LF-LINE
100
AcDbPolyline
 90
        4
 70
     0
 43
0.0
 10
577.5744513519533
 20
-236.5376163216007
 42
-0.4142135623730951
 10
583.3244513519532
 20
-230.7876163216008
 10
601.7244513519365
 20
-230.7876163216008
 42
-0.4142135623730951
 10
607.4744513519363
 20
-236.5376163216007
  0
SOLID
  5
C5
330
66
100
AcDbEntity
  8
DIM
100
AcDbTrace
 10
663.1641411863292
 20
-113.5549745552494
 30
0.0
 11
666.1641411863293
 21
-114.0549745552494
 31
0.0
 12
666.1641411863293
 22
-113.0549745552494
 32
0.0
 13
666.1641411863293
 23
-113.0549745552494
 33
0.0
  0
LINE
  5
C6
330
66
100
AcDbEntity
  8
DIM
100
AcDbLine
 10
666.1641411863293
 20
-113.5549745552494
 30
0.0
 11
671.2738725924905
 21
-113.5549745552494
 31
0.0
  0
TEXT
  5
C7
330
66
100
AcDbEntity
  8
DIM
100
AcDbText
 10
662.4075683788264
 20
-114.4457093795434
 30
0.0
 40
2.5
  1
B
 50
90.0
  7
SIMPLEX
100
AcDbText
  0
LINE
  5
C8
330
66
100
AcDbEntity
  8
DIM
100
AcDbLine
 10
671.2738725924905
 20
-113.5549745552494
 30
0.0
 11
671.2738725924905
 21
-175.3898979248137
 31
0.0
  0
TEXT
  5
C9
330
66
100
AcDbEntity
  8
DIM
100
AcDbText
 10
662.4075683788264
 20
-176.2806327491077
 30
0.0
 40
2.5
  1
B
 50
90.0
  7
SIMPLEX
100
AcDbText
  0
SOLID
  5
CA
330
66
100
AcDbEntity
  8
DIM
100
AcDbTrace
 10
663.1641411863291
 20
-175.3898979248137
 30
0.0
 11
666.164141186329
 21
-175.8898979248137
 31
0.0
 12
666.164141186329
 22
-174.8898979248137
 32
0.0
 13
666.164141186329
 23
-174.8898979248137
 33
0.0
  0
LINE
  5
CB
330
66
100
AcDbEntity
  8
DIM
100
AcDbLine
 10
666.164141186329
 20
-175.3898979248137
 30
0.0
 11
671.2738725924905
 21
-175.3898979248137
 31
0.0
  0
POINT
  5
CC
330
66
100
AcDbEntity
  8
DIM
100
AcDbPoint
 10
607.4744513519363
 20
-52.537616321585
 30
0.0
  0
POINT
  5
CD
330
66
100
AcDbEntity
  8
DIM
100
AcDbPoint
 10
638.5244553531408
 20
-52.537616321585
 30
0.0
  0
POINT
  5
CE
330
66
100
AcDbEntity
  8
DIM
100
AcDbPoint
 10
577.5744513519533
 20
-236.5376163216007
 30
0.0
  0
POINT
  5
CF
330
66
100
AcDbEntity
  8
DIM
 62
     7
100
AcDbPoint
 10
647.7244553531408
 20
-123.8376163216061
 30
0.0
  0
POINT
  5
D0
330
66
100
AcDbEntity
  8
DIM
 62
     7
100
AcDbPoint
 10
652.5217641596863
 20
-133.0376163216124
 30
0.0
  0
POINT
  5
D1
330
66
100
AcDbEntity
  8
DIM
 62
     7
100
AcDbPoint
 10
785.5271465466008
 20
-133.0376163216095
 30
0.0
  0
POINT
  5
D2
330
66
100
AcDbEntity
  8
DIM
 62
     7
100
AcDbPoint
 10
785.5271465466009
 20
-135.3376163216072
 30
0.0
  0
LINE
  5
D3
330
66
100
AcDbEntity
  8
DIM
 62
     7
370
    -2
100
AcDbLine
 10
786.5271465466007
 20
-133.0376163216095
 30
0.0
 11
798.0213391689289
 21
-133.0376163216095
 31
0.0
  0
LINE
  5
D4
330
66
100
AcDbEntity
  8
DIM
 62
     7
370
    -2
100
AcDbLine
 10
786.5271465466009
 20
-135.3376163216072
 30
0.0
 11
798.0213391689289
 21
-135.3376163216072
 31
0.0
  0
LINE
  5
D5
330
66
100
AcDbEntity
  8
DIM
 62
     7
370
    -2
100
AcDbLine
 10
796.7713391689289
 20
-130.5376163216095
 30
0.0
 11
796.7713391689289
 21
-128.0376163216095
 31
0.0
  0
SOLID
  5
D6
330
66
100
AcDbEntity
  8
DIM
 62
     7
100
AcDbTrace
 10
796.7713391689289
 20
-133.0376163216095
 30
0.0
 11
796.3546725022622
 21
-130.5376163216095
 31
0.0
 12
797.1880058355957
 22
-130.5376163216095
 32
0.0
 13
797.1880058355957
 23
-130.5376163216095
 33
0.0
  0
LINE
  5
D7
330
66
100
AcDbEntity
  8
DIM
 62
     7
370
    -2
100
AcDbLine
 10
796.7713391689289
 20
-137.8376163216072
 30
0.0
 11
796.7713391689289
 21
-145.3376163216071
 31
0.0
  0
SOLID
  5
D8
330
66
100
AcDbEntity
  8
DIM
 62
     7
100
AcDbTrace
 10
796.7713391689289
 20
-135.3376163216072
 30
0.0
 11
796.3546725022622
 21
-137.8376163216072
 31
0.0
 12
797.1880058355957
 22
-137.8376163216072
 32
0.0
 13
797.1880058355957
 23
-137.8376163216072
 33
0.0
  0
MTEXT
  5
D9
330
66
100
AcDbEntity
  8
DIM
 62
     7
100
AcDbMText
 10
794.271339168929
 20
-142.8376163216072
 30
0.0
 40
2.5
 41
0.0
 46
0.0
 71
     5
 72
     1
  1
\A1;0.1000
  7
SIMPLEX
 11
0.0
 21
1.0
 31
0.0
 73
     1
 44
1.0
  0
POINT
  5
DA
330
66
100
AcDbEntity
  8
DIM
 62
     7
100
AcDbPoint
 10
785.5271465466009
 20
-135.3376163216072
 30
0.0
  0
POINT
  5
DB
330
66
100
AcDbEntity
  8
DIM
 62
     7
100
AcDbPoint
 10
785.5271465466018
 20
-153.7376163216064
 30
0.0
  0
LINE
  5
DC
330
66
100
AcDbEntity
  8
DIM
 62
     7
370
    -2
100
AcDbLine
 10
786.5271465466009
 20
-135.3376163216072
 30
0.0
 11
806.6555422634866
 21
-135.3376163216072
 31
0.0
  0
LINE
  5
DD
330
66
100
AcDbEntity
  8
DIM
 62
     7
370
    -2
100
AcDbLine
 10
786.5271465466019
 20
-153.7376163216064
 30
0.0
 11
806.6555422634866
 21
-153.7376163216064
 31
0.0
  0
LINE
  5
DE
330
66
100
AcDbEntity
  8
DIM
 62
     7
370
    -2
100
AcDbLine
 10
805.4055422634867
 20
-137.8376163216072
 30
0.0
 11
805.4055422634867
 21
-151.2376163216064
 31
0.0
  0
SOLID
  5
DF
330
66
100
AcDbEntity
  8
DIM
 62
     7
100
AcDbTrace
 10
805.4055422634867
 20
-135.3376163216072
 30
0.0
 11
804.9888755968199
 21
-137.8376163216072
 31
0.0
 12
805.8222089301533
 22
-137.8376163216072
 32
0.0
 13
805.8222089301533
 23
-137.8376163216072
 33
0.0
  0
SOLID
  5
E0
330
66
100
AcDbEntity
  8
DIM
 62
     7
100
AcDbTrace
 10
805.4055422634867
 20
-153.7376163216064
 30
0.0
 11
804.9888755968199
 21
-151.2376163216064
 31
0.0
 12
805.8222089301533
 22
-151.2376163216064
 32
0.0
 13
805.8222089301533
 23
-151.2376163216064
 33
0.0
  0
MTEXT
  5
E1
330
66
100
AcDbEntity
  8
DIM
 62
     7
100
AcDbMText
 10
802.9055422634867
 20
-144.5376163216067
 30
0.0
 40
2.5
 41
0.0
 46
0.0
 71
     5
 72
     1
  1
\A1;0.8000
  7
SIMPLEX
 11
0.0
 21
1.0
 31
0.0
 73
     1
 44
1.0
  0
LINE
  5
E2
330
66
100
AcDbEntity
  8
DIM
 62
     7
370
    -2
100
AcDbLine
 10
639.5244553531407
 20
-138.7876163216086
 30
0.0
 11
646.5782555635216
 21
-138.7876163216086
 31
0.0
  0
LINE
  5
E3
330
66
100
AcDbEntity
  8
DIM
 62
     7
370
    -2
100
AcDbLine
 10
639.5244553531405
 20
-150.2876163216086
 30
0.0
 11
646.5782555635215
 21
-150.2876163216086
 31
0.0
  0
LINE
  5
E4
330
66
100
AcDbEntity
  8
DIM
 62
     7
370
    -2
100
AcDbLine
 10
645.3282555635216
 20
-136.2876163216086
 30
0.0
 11
645.3282555635216
 21
-133.7876163216086
 31
0.0
  0
SOLID
  5
E5
330
66
100
AcDbEntity
  8
DIM
 62
     7
100
AcDbTrace
 10
645.3282555635216
 20
-138.7876163216086
 30
0.0
 11
644.9115888968549
 21
-136.2876163216086
 31
0.0
 12
645.7449222301884
 22
-136.2876163216086
 32
0.0
 13
645.7449222301884
 23
-136.2876163216086
 33
0.0
  0
LINE
  5
E6
330
66
100
AcDbEntity
  8
DIM
 62
     7
370
    -2
100
AcDbLine
 10
645.3282555635214
 20
-152.7876163216086
 30
0.0
 11
645.3282555635214
 21
-160.2876163216086
 31
0.0
  0
SOLID
  5
E7
330
66
100
AcDbEntity
  8
DIM
 62
     7
100
AcDbTrace
 10
645.3282555635214
 20
-150.2876163216086
 30
0.0
 11
644.9115888968547
 21
-152.7876163216086
 31
0.0
 12
645.7449222301882
 22
-152.7876163216086
 32
0.0
 13
645.7449222301882
 23
-152.7876163216086
 33
0.0
  0
MTEXT
  5
E8
330
66
100
AcDbEntity
  8
DIM
 62
     7
100
AcDbMText
 10
642.8282555635214
 20
-157.7876163216086
 30
0.0
 40
2.5
 41
0.0
 46
0.0
 71
     5
 72
     1
  1
\A1;0.5000
  7
SIMPLEX
 11
0.0
 21
1.0
 31
0.0
 73
     1
 44
1.0
  0
POINT
  5
E9
330
66
100
AcDbEntity
  8
DIM
 62
     7
100
AcDbPoint
 10
669.5583613180503
 20
-89.33761632160098
 30
0.0
  0
POINT
  5
EA
330
66
100
AcDbEntity
  8
DIM
 62
     7
100
AcDbPoint
 10
669.5583613180503
 20
-199.7376163216012
 30
0.0
  0
LINE
  5
EB
330
66
100
AcDbEntity
  8
DIM
 62
     7
370
    -2
100
AcDbLine
 10
668.5583613180503
 20
-89.33761632160098
 30
0.0
 11
614.0497482386526
 21
-89.33761632160098
 31
0.0
  0
LINE
  5
EC
330
66
100
AcDbEntity
  8
DIM
 62
     7
370
    -2
100
AcDbLine
 10
668.5583613180503
 20
-199.7376163216012
 30
0.0
 11
614.0497482386526
 21
-199.7376163216012
 31
0.0
  0
LINE
  5
ED
330
66
100
AcDbEntity
  8
DIM
 62
     7
370
    -2
100
AcDbLine
 10
615.2997482386525
 20
-91.83761632160098
 30
0.0
 11
615.2997482386525
 21
-197.2376163216012
 31
0.0
  0
SOLID
  5
EE
330
66
100
AcDbEntity
  8
DIM
 62
     7
100
AcDbTrace
 10
615.2997482386525
 20
-89.33761632160098
 30
0.0
 11
614.8830815719858
 21
-91.83761632160098
 31
0.0
 12
615.7164149053193
 22
-91.83761632160098
 32
0.0
 13
615.7164149053193
 23
-91.83761632160098
 33
0.0
  0
SOLID
  5
EF
330
66
100
AcDbEntity
  8
DIM
 62
     7
100
AcDbTrace
 10
615.2997482386525
 20
-199.7376163216012
 30
0.0
 11
614.8830815719858
 21
-197.2376163216012
 31
0.0
 12
615.7164149053193
 22
-197.2376163216012
 32
0.0
 13
615.7164149053193
 23
-197.2376163216012
 33
0.0
  0
MTEXT
  5
F0
330
66
100
AcDbEntity
  8
DIM
 62
     7
100
AcDbMText
 10
612.7997482386525
 20
-144.5376163216011
 30
0.0
 40
2.5
 41
0.0
 46
0.0
 71
     5
 72
     1
  1
\A1;4.8000
  7
SIMPLEX
 11
0.0
 21
1.0
 31
0.0
 73
     1
 44
1.0
  0
POINT
  5
F1
330
66
100
AcDbEntity
  8
DIM
 62
     7
100
AcDbPoint
 10
577.574451351953
 20
-126.137616321586
 30
0.0
  0
POINT
  5
F2
330
66
100
AcDbEntity
  8
DIM
 62
     7
100
AcDbPoint
 10
577.574451351953
 20
-162.9376163216048
 30
0.0
  0
LINE
  5
F3
330
66
100
AcDbEntity
  8
DIM
 62
     7
370
    -2
100
AcDbLine
 10
576.574451351953
 20
-126.137616321586
 30
0.0
 11
566.7319335823537
 21
-126.137616321586
 31
0.0
  0
LINE
  5
F4
330
66
100
AcDbEntity
  8
DIM
 62
     7
370
    -2
100
AcDbLine
 10
576.574451351953
 20
-162.9376163216048
 30
0.0
 11
566.7319335823537
 21
-162.9376163216048
 31
0.0
  0
LINE
  5
F5
330
66
100
AcDbEntity
  8
DIM
 62
     7
370
    -2
100
AcDbLine
 10
568.8397182052898
 20
-128.637616321586
 30
0.0
 11
568.8397182052898
 21
-160.4376163216048
 31
0.0
  0
SOLID
  5
F6
330
66
100
AcDbEntity
  8
DIM
 62
     7
100
AcDbTrace
 10
568.8397182052898
 20
-126.137616321586
 30
0.0
 11
568.423051538623
 21
-128.637616321586
 31
0.0
 12
569.2563848719565
 22
-128.637616321586
 32
0.0
 13
569.2563848719565
 23
-128.637616321586
 33
0.0
  0
SOLID
  5
F7
330
66
100
AcDbEntity
  8
DIM
 62
     7
100
AcDbTrace
 10
568.8397182052898
 20
-162.9376163216048
 30
0.0
 11
568.423051538623
 21
-160.4376163216048
 31
0.0
 12
569.2563848719565
 22
-160.4376163216048
 32
0.0
 13
569.2563848719565
 23
-160.4376163216048
 33
0.0
  0
MTEXT
  5
F8
330
66
100
AcDbEntity
  8
DIM
 62
     7
100
AcDbMText
 10
566.3397182052898
 20
-144.5376163215954
 30
0.0
 40
2.5
 41
0.0
 46
0.0
 71
     5
 72
     1
  1
\A1;1.6000
  7
SIMPLEX
 11
0.0
 21
1.0
 31
0.0
 73
     1
 44
1.0
  0
POINT
  5
F9
330
66
100
AcDbEntity
  8
DIM
 62
     7
100
AcDbPoint
 10
692.4235814729762
 20
-133.0376163216072
 30
0.0
  0
LWPOLYLINE
  5
FA
330
66
100
AcDbEntity
  8
LF-LINE
100
AcDbPolyline
 90
        3
 70
     0
 43
0.0
 10
556.8744554704663
 20
-54.36413993030374
 42
-0.0317682948535607
 10
599.3594444442096
 20
-52.91208164624504
 42
0.0415617152545964
 10
638.5244553531408
 20
-50.13269572838789
  0
LWPOLYLINE
  5
FB
330
66
100
AcDbEntity
  8
LF-LINE
100
AcDbPolyline
 90
        3
 70
     0
 43
0.0
 10
556.8744554704663
 20
-236.9398380182079
 42
0.0324006815368361
 10
599.3594444442096
 20
-238.480324480213
 42
-0.0415617152545964
 10
638.5244553531408
 20
-241.2597103980701
  0
LWPOLYLINE
  5
FC
330
66
100
AcDbEntity
  8
LF-LINE
100
AcDbPolyline
 90
        2
 70
     0
 43
0.0
 10
577.5744513519533
 20
-236.5376163216007
 42
0.0532893523267024
 10
577.7043413263507
 20
-237.7528789681598
  0
LWPOLYLINE
  5
FD
330
66
100
AcDbEntity
  8
LF-LINE
100
AcDbPolyline
 90
        2
 70
     0
 43
0.0
 10
607.1245543080598
 20
-238.5128094927278
 42
0.0878886927164347
 10
607.4744513519363
 20
-236.5376163216007
  0
POINT
  5
FE
330
66
100
AcDbEntity
  8
DIM
 62
     7
100
AcDbPoint
 10
638.5244553531408
 20
-50.13269572838783
 30
0.0
  0
POINT
  5
FF
330
66
100
AcDbEntity
  8
DIM
 62
     7
100
AcDbPoint
 10
652.324455353145
 20
-86.4626163216077
 30
0.0
  0
LINE
  5
100
330
66
100
AcDbEntity
  8
DIM
 62
     7
370
    -2
100
AcDbLine
 10
638.5244553531408
 20
-49.13269572838783
 30
0.0
 11
638.5244553531408
 21
-31.67315964698196
 31
0.0
  0
LINE
  5
101
330
66
100
AcDbEntity
  8
DIM
 62
     7
370
    -2
100
AcDbLine
 10
652.324455353145
 20
-85.46261632160769
 30
0.0
 11
652.324455353145
 21
-31.67315964698196
 31
0.0
  0
LINE
  5
102
330
66
100
AcDbEntity
  8
DIM
 62
     7
370
    -2
100
AcDbLine
 10
636.0244553531408
 20
-32.92315964698196
 30
0.0
 11
633.5244553531408
 21
-32.92315964698196
 31
0.0
  0
SOLID
  5
103
330
66
100
AcDbEntity
  8
DIM
 62
     7
100
AcDbTrace
 10
638.5244553531408
 20
-32.92315964698196
 30
0.0
 11
636.0244553531408
 21
-33.3398263136487
 31
0.0
 12
636.0244553531408
 22
-32.50649298031522
 32
0.0
 13
636.0244553531408
 23
-32.50649298031522
 33
0.0
  0
LINE
  5
104
330
66
100
AcDbEntity
  8
DIM
 62
     7
370
    -2
100
AcDbLine
 10
654.824455353145
 20
-32.92315964698196
 30
0.0
 11
657.324455353145
 21
-32.92315964698196
 31
0.0
  0
SOLID
  5
105
330
66
100
AcDbEntity
  8
DIM
 62
     7
100
AcDbTrace
 10
652.324455353145
 20
-32.92315964698196
 30
0.0
 11
654.824455353145
 21
-33.3398263136487
 31
0.0
 12
654.824455353145
 22
-32.50649298031522
 32
0.0
 13
654.824455353145
 23
-32.50649298031522
 33
0.0
  0
MTEXT
  5
106
330
66
100
AcDbEntity
  8
DIM
 62
     7
100
AcDbMText
 10
645.424455353143
 20
-30.42315964698196
 30
0.0
 40
2.5
 41
0.0
 46
0.0
 71
     5
 72
     1
  1
\A1;0.6000
  7
SIMPLEX
 73
     1
 44
1.0
  0
POINT
  5
107
330
66
100
AcDbEntity
  8
DIM
100
AcDbPoint
 10
607.4744513519367
 20
-162.9376163216048
 30
0.0
  0
LINE
  5
108
330
66
100
AcDbEntity
  8
LF-LINE
100
AcDbLine
 10
601.7244513519365
 20
-131.8876163215861
 30
0.0
 11
583.3244513519532
 21
-131.8876163215861
 31
0.0
  0
ARC
  5
109
330
66
100
AcDbEntity
  8
LF-LINE
100
AcDbCircle
 10
583.3244513519532
 20
-126.137616321586
 30
0.0
 40
5.75000000000017
100
AcDbArc
 50
90.0
 51
270.0
  0
LINE
  5
10A
330
66
100
AcDbEntity
  8
LF-LINE
100
AcDbLine
 10
583.3244513519532
 20
-120.3876163215858
 30
0.0
 11
601.7244513519365
 21
-120.3876163215858
 31
0.0
  0
ARC
  5
10B
330
66
100
AcDbEntity
  8
LF-LINE
100
AcDbCircle
 10
601.7244513519365
 20
-126.137616321586
 30
0.0
 40
5.75000000000017
100
AcDbArc
 50
270.0
 51
90.0
  0
LINE
  5
10C
330
66
100
AcDbEntity
  8
LF-LINE
100
AcDbLine
 10
601.7244513519365
 20
-168.687616321605
 30
0.0
 11
583.3244513519532
 21
-168.687616321605
 31
0.0
  0
ARC
  5
10D
330
66
100
AcDbEntity
  8
LF-LINE
100
AcDbCircle
 10
583.3244513519532
 20
-162.9376163216048
 30
0.0
 40
5.75000000000017
100
AcDbArc
 50
90.0
 51
270.0
  0
LINE
  5
10E
330
66
100
AcDbEntity
  8
LF-LINE
100
AcDbLine
 10
583.3244513519532
 20
-157.1876163216046
 30
0.0
 11
601.7244513519365
 21
-157.1876163216046
 31
0.0
  0
ARC
  5
10F
330
66
100
AcDbEntity
  8
LF-LINE
100
AcDbCircle
 10
601.7244513519365
 20
-162.9376163216048
 30
0.0
 40
5.75000000000017
100
AcDbArc
 50
270.0
 51
90.0
  0
LINE
  5
110
330
66
100
AcDbEntity
  8
CEN
100
AcDbLine
 10
594.4744513519363
 20
-126.137616321586
 30
0.0
 11
608.9744513519367
 21
-126.137616321586
 31
0.0
  0
LINE
  5
111
330
66
100
AcDbEntity
  8
CEN
100
AcDbLine
 10
601.7244513519365
 20
-118.8876163215858
 30
0.0
 11
601.7244513519365
 21
-133.3876163215861
 31
0.0
  0
LINE
  5
112
330
66
100
AcDbEntity
  8
CEN
100
AcDbLine
 10
576.074451351953
 20
-126.137616321586
 30
0.0
 11
590.5744513519534
 21
-126.137616321586
 31
0.0
  0
LINE
  5
113
330
66
100
AcDbEntity
  8
CEN
100
AcDbLine
 10
583.3244513519532
 20
-118.8876163215858
 30
0.0
 11
583.3244513519532
 21
-133.3876163215861
 31
0.0
  0
LINE
  5
114
330
66
100
AcDbEntity
  8
CEN
100
AcDbLine
 10
594.4744513519363
 20
-162.9376163216048
 30
0.0
 11
608.9744513519367
 21
-162.9376163216048
 31
0.0
  0
LINE
  5
115
330
66
100
AcDbEntity
  8
CEN
100
AcDbLine
 10
601.7244513519365
 20
-155.6876163216047
 30
0.0
 11
601.7244513519365
 21
-170.187616321605
 31
0.0
  0
LINE
  5
116
330
66
100
AcDbEntity
  8
CEN
100
AcDbLine
 10
576.074451351953
 20
-162.9376163216048
 30
0.0
 11
590.5744513519534
 21
-162.9376163216048
 31
0.0
  0
LINE
  5
117
330
66
100
AcDbEntity
  8
CEN
100
AcDbLine
 10
583.3244513519532
 20
-155.6876163216047
 30
0.0
 11
583.3244513519532
 21
-170.187616321605
 31
0.0
  0
LINE
  5
118
330
66
100
AcDbEntity
  8
DIM
 62
     7
370
    -2
100
AcDbLine
 10
668.5744553531458
 20
-168.6876163216064
 30
0.0
 11
627.6389858160236
 21
-168.6876163216064
 31
0.0
  0
LINE
  5
119
330
66
100
AcDbEntity
  8
DIM
 62
     7
370
    -2
100
AcDbLine
 10
668.5744553531471
 20
-120.3876163216066
 30
0.0
 11
627.6389858160236
 21
-120.3876163216066
 31
0.0
  0
LINE
  5
11A
330
66
100
AcDbEntity
  8
DIM
 62
     7
370
    -2
100
AcDbLine
 10
628.8889858160236
 20
-166.1876163216064
 30
0.0
 11
628.8889858160236
 21
-122.8876163216066
 31
0.0
  0
SOLID
  5
11B
330
66
100
AcDbEntity
  8
DIM
 62
     7
100
AcDbTrace
 10
628.8889858160236
 20
-168.6876163216064
 30
0.0
 11
629.3056524826903
 21
-166.1876163216064
 31
0.0
 12
628.4723191493569
 22
-166.1876163216064
 32
0.0
 13
628.4723191493569
 23
-166.1876163216064
 33
0.0
  0
SOLID
  5
11C
330
66
100
AcDbEntity
  8
DIM
 62
     7
100
AcDbTrace
 10
628.8889858160236
 20
-120.3876163216066
 30
0.0
 11
629.3056524826903
 21
-122.8876163216066
 31
0.0
 12
628.4723191493569
 22
-122.8876163216066
 32
0.0
 13
628.4723191493569
 23
-122.8876163216066
 33
0.0
  0
MTEXT
  5
11D
330
66
100
AcDbEntity
  8
DIM
 62
     7
100
AcDbMText
 10
626.3889858160236
 20
-144.5376163216065
 30
0.0
 40
2.5
 41
0.0
 46
0.0
 71
     5
 72
     1
  1
\A1;2.1000
  7
SIMPLEX
 11
0.0
 21
1.0
 31
0.0
 73
     1
 44
1.0
  0
LINE
  5
11E
330
66
100
AcDbEntity
  8
COIN-LINE
 62
     4
100
AcDbLine
 10
784.3908124869795
 20
-153.7376163216064
 30
0.0
 11
785.5271465466016
 21
-152.601282261984
 31
0.0
  0
LINE
  5
11F
330
66
100
AcDbEntity
  8
COIN-LINE
 62
     4
100
AcDbLine
 10
782.6230455340128
 20
-153.7376163216063
 30
0.0
 11
785.5271465466016
 21
-150.8335153090176
 31
0.0
  0
LINE
  5
120
330
66
100
AcDbEntity
  8
COIN-LINE
 62
     4
100
AcDbLine
 10
780.8552785810466
 20
-153.7376163216063
 30
0.0
 11
785.5271465466016
 21
-149.0657483560514
 31
0.0
  0
LINE
  5
121
330
66
100
AcDbEntity
  8
COIN-LINE
 62
     4
100
AcDbLine
 10
779.0875116280801
 20
-153.7376163216064
 30
0.0
 11
785.5271465466016
 21
-147.297981403085
 31
0.0
  0
LINE
  5
122
330
66
100
AcDbEntity
  8
COIN-LINE
 62
     4
100
AcDbLine
 10
777.3197446751137
 20
-153.7376163216064
 30
0.0
 11
785.6034899388159
 21
-145.4538710579043
 31
0.0
  0
LINE
  5
123
330
66
100
AcDbEntity
  8
COIN-LINE
 62
     4
100
AcDbLine
 10
775.5519777221473
 20
-153.7376163216063
 30
0.0
 11
785.6034899388159
 21
-143.6861041049379
 31
0.0
  0
LINE
  5
124
330
66
100
AcDbEntity
  8
COIN-LINE
 62
     4
100
AcDbLine
 10
773.7842107691808
 20
-153.7376163216063
 30
0.0
 11
785.5271465466012
 21
-141.994680544186
 31
0.0
  0
LINE
  5
125
330
66
100
AcDbEntity
  8
COIN-LINE
 62
     4
100
AcDbLine
 10
772.0164438162146
 20
-153.7376163216063
 30
0.0
 11
785.5271465466012
 21
-140.2269135912198
 31
0.0
  0
LINE
  5
126
330
66
100
AcDbEntity
  8
COIN-LINE
 62
     4
100
AcDbLine
 10
770.2486768632479
 20
-153.7376163216063
 30
0.0
 11
785.5271465466012
 21
-138.4591466382535
 31
0.0
  0
LINE
  5
127
330
66
100
AcDbEntity
  8
COIN-LINE
 62
     4
100
AcDbLine
 10
768.4809099102817
 20
-153.7376163216063
 30
0.0
 11
785.5271465466009
 21
-136.6913796852873
 31
0.0
  0
LINE
  5
128
330
66
100
AcDbEntity
  8
COIN-LINE
 62
     4
100
AcDbLine
 10
766.7131429573153
 20
-153.7376163216063
 30
0.0
 11
785.1131429573147
 21
-135.3376163216072
 31
0.0
  0
LINE
  5
129
330
66
100
AcDbEntity
  8
COIN-LINE
 62
     4
100
AcDbLine
 10
764.9453760043488
 20
-153.7376163216062
 30
0.0
 11
783.3453760043482
 21
-135.3376163216071
 31
0.0
  0
LINE
  5
12A
330
66
100
AcDbEntity
  8
COIN-LINE
 62
     4
100
AcDbLine
 10
763.1776090513824
 20
-153.7376163216063
 30
0.0
 11
781.5776090513818
 21
-135.3376163216072
 31
0.0
  0
LINE
  5
12B
330
66
100
AcDbEntity
  8
COIN-LINE
 62
     4
100
AcDbLine
 10
761.4098420984159
 20
-153.7376163216063
 30
0.0
 11
779.8098420984154
 21
-135.3376163216072
 31
0.0
  0
LINE
  5
12C
330
66
100
AcDbEntity
  8
COIN-LINE
 62
     4
100
AcDbLine
 10
759.6420751454497
 20
-153.7376163216062
 30
0.0
 11
778.042075145449
 21
-135.3376163216072
 31
0.0
  0
LINE
  5
12D
330
66
100
AcDbEntity
  8
COIN-LINE
 62
     4
100
AcDbLine
 10
757.8743081924831
 20
-153.7376163216062
 30
0.0
 11
776.2743081924827
 21
-135.3376163216072
 31
0.0
  0
LINE
  5
12E
330
66
100
AcDbEntity
  8
COIN-LINE
 62
     4
100
AcDbLine
 10
756.1065412395168
 20
-153.7376163216062
 30
0.0
 11
774.506541239516
 21
-135.3376163216072
 31
0.0
  0
LINE
  5
12F
330
66
100
AcDbEntity
  8
COIN-LINE
 62
     4
100
AcDbLine
 10
754.3387742865505
 20
-153.7376163216062
 30
0.0
 11
772.7387742865499
 21
-135.3376163216072
 31
0.0
  0
LINE
  5
130
330
66
100
AcDbEntity
  8
COIN-LINE
 62
     4
100
AcDbLine
 10
752.571007333584
 20
-153.7376163216062
 30
0.0
 11
770.9710073335831
 21
-135.3376163216072
 31
0.0
  0
LINE
  5
131
330
66
100
AcDbEntity
  8
COIN-LINE
 62
     4
100
AcDbLine
 10
750.8032403806177
 20
-153.7376163216061
 30
0.0
 11
769.203240380617
 21
-135.3376163216072
 31
0.0
  0
LINE
  5
132
330
66
100
AcDbEntity
  8
COIN-LINE
 62
     4
100
AcDbLine
 10
749.0354734276511
 20
-153.7376163216061
 30
0.0
 11
767.4354734276505
 21
-135.3376163216071
 31
0.0
  0
LINE
  5
133
330
66
100
AcDbEntity
  8
COIN-LINE
 62
     4
100
AcDbLine
 10
747.2677064746849
 20
-153.7376163216062
 30
0.0
 11
765.667706474684
 21
-135.3376163216072
 31
0.0
  0
LINE
  5
134
330
66
100
AcDbEntity
  8
COIN-LINE
 62
     4
100
AcDbLine
 10
745.4999395217184
 20
-153.7376163216061
 30
0.0
 11
763.8999395217179
 21
-135.3376163216071
 31
0.0
  0
LINE
  5
135
330
66
100
AcDbEntity
  8
COIN-LINE
 62
     4
100
AcDbLine
 10
743.7321725687519
 20
-153.7376163216062
 30
0.0
 11
762.1321725687512
 21
-135.3376163216072
 31
0.0
  0
LINE
  5
136
330
66
100
AcDbEntity
  8
COIN-LINE
 62
     4
100
AcDbLine
 10
741.9644056157856
 20
-153.7376163216061
 30
0.0
 11
760.3644056157848
 21
-135.3376163216072
 31
0.0
  0
LINE
  5
137
330
66
100
AcDbEntity
  8
COIN-LINE
 62
     4
100
AcDbLine
 10
740.1966386628191
 20
-153.7376163216061
 30
0.0
 11
758.5966386628183
 21
-135.3376163216072
 31
0.0
  0
LINE
  5
138
330
66
100
AcDbEntity
  8
COIN-LINE
 62
     4
100
AcDbLine
 10
738.4288717098528
 20
-153.7376163216061
 30
0.0
 11
756.8288717098521
 21
-135.3376163216072
 31
0.0
  0
LINE
  5
139
330
66
100
AcDbEntity
  8
COIN-LINE
 62
     4
100
AcDbLine
 10
736.6611047568864
 20
-153.737616321606
 30
0.0
 11
755.0611047568854
 21
-135.3376163216072
 31
0.0
  0
LINE
  5
13A
330
66
100
AcDbEntity
  8
COIN-LINE
 62
     4
100
AcDbLine
 10
734.8933378039199
 20
-153.7376163216061
 30
0.0
 11
753.2933378039192
 21
-135.3376163216072
 31
0.0
  0
LINE
  5
13B
330
66
100
AcDbEntity
  8
COIN-LINE
 62
     4
100
AcDbLine
 10
733.1255708509536
 20
-153.737616321606
 30
0.0
 11
751.5255708509526
 21
-135.3376163216072
 31
0.0
  0
LINE
  5
13C
330
66
100
AcDbEntity
  8
COIN-LINE
 62
     4
100
AcDbLine
 10
731.3578038979872
 20
-153.7376163216061
 30
0.0
 11
749.7578038979863
 21
-135.3376163216072
 31
0.0
  0
LINE
  5
13D
330
66
100
AcDbEntity
  8
COIN-LINE
 62
     4
100
AcDbLine
 10
729.5900369450207
 20
-153.737616321606
 30
0.0
 11
747.9900369450199
 21
-135.3376163216072
 31
0.0
  0
LINE
  5
13E
330
66
100
AcDbEntity
  8
COIN-LINE
 62
     4
100
AcDbLine
 10
727.8222699920543
 20
-153.7376163216061
 30
0.0
 11
746.2222699920535
 21
-135.3376163216072
 31
0.0
  0
LINE
  5
13F
330
66
100
AcDbEntity
  8
COIN-LINE
 62
     4
100
AcDbLine
 10
726.1217641596863
 20
-153.6703552010076
 30
0.0
 11
744.454503039087
 21
-135.3376163216072
 31
0.0
  0
LINE
  5
140
330
66
100
AcDbEntity
  8
COIN-LINE
 62
     4
100
AcDbLine
 10
726.1217641596864
 20
-151.9025882480411
 30
0.0
 11
742.6867360861206
 21
-135.3376163216072
 31
0.0
  0
LINE
  5
141
330
66
100
AcDbEntity
  8
COIN-LINE
 62
     4
100
AcDbLine
 10
726.1217641596864
 20
-150.1348212950748
 30
0.0
 11
740.9189691331541
 21
-135.3376163216072
 31
0.0
  0
LINE
  5
142
330
66
100
AcDbEntity
  8
COIN-LINE
 62
     4
100
AcDbLine
 10
726.1217641596864
 20
-148.3670543421083
 30
0.0
 11
739.1512021801879
 21
-135.3376163216071
 31
0.0
  0
LINE
  5
143
330
66
100
AcDbEntity
  8
COIN-LINE
 62
     4
100
AcDbLine
 10
726.1217641596865
 20
-146.5992873891418
 30
0.0
 11
737.3834352272214
 21
-135.3376163216071
 31
0.0
  0
LINE
  5
144
330
66
100
AcDbEntity
  8
COIN-LINE
 62
     4
100
AcDbLine
 10
726.1217641596864
 20
-144.8315204361756
 30
0.0
 11
735.6156682742549
 21
-135.3376163216072
 31
0.0
  0
LINE
  5
145
330
66
100
AcDbEntity
  8
COIN-LINE
 62
     4
100
AcDbLine
 10
726.1217641596864
 20
-143.0637534832091
 30
0.0
 11
733.8479013212885
 21
-135.3376163216072
 31
0.0
  0
LINE
  5
146
330
66
100
AcDbEntity
  8
COIN-LINE
 62
     4
100
AcDbLine
 10
726.1217641596863
 20
-141.2959865302429
 30
0.0
 11
732.080134368322
 21
-135.3376163216072
 31
0.0
  0
LINE
  5
147
330
66
100
AcDbEntity
  8
COIN-LINE
 62
     4
100
AcDbLine
 10
711.9123674153561
 20
-153.7376163216064
 30
0.0
 11
711.9271465466018
 21
-153.7228371903609
 31
0.0
  0
LINE
  5
148
330
66
100
AcDbEntity
  8
COIN-LINE
 62
     4
100
AcDbLine
 10
726.1217641596864
 20
-139.5282195772764
 30
0.0
 11
730.3123674153558
 21
-135.3376163216072
 31
0.0
  0
LINE
  5
149
330
66
100
AcDbEntity
  8
COIN-LINE
 62
     4
100
AcDbLine
 10
710.1446004623897
 20
-153.7376163216063
 30
0.0
 11
711.9271465466016
 21
-151.9550702373946
 31
0.0
  0
LINE
  5
14A
330
66
100
AcDbEntity
  8
COIN-LINE
 62
     4
100
AcDbLine
 10
726.1217641596864
 20
-137.76045262431
 30
0.0
 11
728.5446004623893
 21
-135.3376163216072
 31
0.0
  0
LINE
  5
14B
330
66
100
AcDbEntity
  8
COIN-LINE
 62
     4
100
AcDbLine
 10
708.3768335094234
 20
-153.7376163216064
 30
0.0
 11
711.9271465466015
 21
-150.1873032844282
 31
0.0
  0
LINE
  5
14C
330
66
100
AcDbEntity
  8
COIN-LINE
 62
     4
100
AcDbLine
 10
726.1217641596864
 20
-135.9926856713436
 30
0.0
 11
726.7768335094229
 21
-135.3376163216072
 31
0.0
  0
LINE
  5
14D
330
66
100
AcDbEntity
  8
COIN-LINE
 62
     4
100
AcDbLine
 10
706.609066556457
 20
-153.7376163216064
 30
0.0
 11
711.9271465466014
 21
-148.419536331462
 31
0.0
  0
LINE
  5
14E
330
66
100
AcDbEntity
  8
COIN-LINE
 62
     4
100
AcDbLine
 10
704.8412996034906
 20
-153.7376163216064
 30
0.0
 11
711.9271465466013
 21
-146.6517693784957
 31
0.0
  0
LINE
  5
14F
330
66
100
AcDbEntity
  8
COIN-LINE
 62
     4
100
AcDbLine
 10
703.0735326505241
 20
-153.7376163216063
 30
0.0
 11
711.9271465466007
 21
-144.8840024255299
 31
0.0
  0
LINE
  5
150
330
66
100
AcDbEntity
  8
COIN-LINE
 62
     4
100
AcDbLine
 10
701.3057656975578
 20
-153.7376163216063
 30
0.0
 11
711.9271465466007
 21
-143.1162354725636
 31
0.0
  0
LINE
  5
151
330
66
100
AcDbEntity
  8
COIN-LINE
 62
     4
100
AcDbLine
 10
699.5379987445914
 20
-153.7376163216063
 30
0.0
 11
711.9271465466011
 21
-141.3484685195967
 31
0.0
  0
LINE
  5
152
330
66
100
AcDbEntity
  8
COIN-LINE
 62
     4
100
AcDbLine
 10
697.7702317916249
 20
-153.7376163216063
 30
0.0
 11
711.927146546601
 21
-139.5807015666304
 31
0.0
  0
LINE
  5
153
330
66
100
AcDbEntity
  8
COIN-LINE
 62
     4
100
AcDbLine
 10
696.0024648386585
 20
-153.7376163216063
 30
0.0
 11
711.927146546601
 21
-137.8129346136641
 31
0.0
  0
LINE
  5
154
330
66
100
AcDbEntity
  8
COIN-LINE
 62
     4
100
AcDbLine
 10
694.234697885692
 20
-153.7376163216063
 30
0.0
 11
711.9271465466008
 21
-136.0451676606978
 31
0.0
  0
LINE
  5
155
330
66
100
AcDbEntity
  8
COIN-LINE
 62
     4
100
AcDbLine
 10
692.4669309327257
 20
-153.7376163216063
 30
0.0
 11
710.866930932725
 21
-135.3376163216072
 31
0.0
  0
LINE
  5
156
330
66
100
AcDbEntity
  8
COIN-LINE
 62
     4
100
AcDbLine
 10
690.6991639797593
 20
-153.7376163216063
 30
0.0
 11
709.0991639797587
 21
-135.3376163216072
 31
0.0
  0
LINE
  5
157
330
66
100
AcDbEntity
  8
COIN-LINE
 62
     4
100
AcDbLine
 10
688.9313970267929
 20
-153.7376163216062
 30
0.0
 11
707.3313970267924
 21
-135.3376163216071
 31
0.0
  0
LINE
  5
158
330
66
100
AcDbEntity
  8
COIN-LINE
 62
     4
100
AcDbLine
 10
687.1636300738265
 20
-153.7376163216063
 30
0.0
 11
705.5636300738258
 21
-135.3376163216072
 31
0.0
  0
LINE
  5
159
330
66
100
AcDbEntity
  8
COIN-LINE
 62
     4
100
AcDbLine
 10
685.3958631208601
 20
-153.7376163216062
 30
0.0
 11
703.7958631208595
 21
-135.3376163216071
 31
0.0
  0
LINE
  5
15A
330
66
100
AcDbEntity
  8
COIN-LINE
 62
     4
100
AcDbLine
 10
683.6280961678937
 20
-153.7376163216062
 30
0.0
 11
702.0280961678929
 21
-135.3376163216072
 31
0.0
  0
LINE
  5
15B
330
66
100
AcDbEntity
  8
COIN-LINE
 62
     4
100
AcDbLine
 10
681.8603292149273
 20
-153.7376163216062
 30
0.0
 11
700.2603292149265
 21
-135.3376163216072
 31
0.0
  0
LINE
  5
15C
330
66
100
AcDbEntity
  8
COIN-LINE
 62
     4
100
AcDbLine
 10
680.0925622619608
 20
-153.7376163216062
 30
0.0
 11
698.4925622619601
 21
-135.3376163216072
 31
0.0
  0
LINE
  5
15D
330
66
100
AcDbEntity
  8
COIN-LINE
 62
     4
100
AcDbLine
 10
678.3247953089945
 20
-153.7376163216061
 30
0.0
 11
696.7247953089938
 21
-135.3376163216072
 31
0.0
  0
LINE
  5
15E
330
66
100
AcDbEntity
  8
COIN-LINE
 62
     4
100
AcDbLine
 10
676.557028356028
 20
-153.7376163216062
 30
0.0
 11
694.9570283560273
 21
-135.3376163216072
 31
0.0
  0
LINE
  5
15F
330
66
100
AcDbEntity
  8
COIN-LINE
 62
     4
100
AcDbLine
 10
674.7892614030618
 20
-153.7376163216061
 30
0.0
 11
693.1892614030608
 21
-135.3376163216072
 31
0.0
  0
LINE
  5
160
330
66
100
AcDbEntity
  8
COIN-LINE
 62
     4
100
AcDbLine
 10
673.0214944500952
 20
-153.7376163216061
 30
0.0
 11
691.4214944500945
 21
-135.3376163216072
 31
0.0
  0
LINE
  5
161
330
66
100
AcDbEntity
  8
COIN-LINE
 62
     4
100
AcDbLine
 10
671.2537274971289
 20
-153.7376163216061
 30
0.0
 11
689.653727497128
 21
-135.3376163216072
 31
0.0
  0
LINE
  5
162
330
66
100
AcDbEntity
  8
COIN-LINE
 62
     4
100
AcDbLine
 10
669.4859605441624
 20
-153.7376163216061
 30
0.0
 11
687.8859605441617
 21
-135.3376163216072
 31
0.0
  0
LINE
  5
163
330
66
100
AcDbEntity
  8
COIN-LINE
 62
     4
100
AcDbLine
 10
667.718193591196
 20
-153.7376163216061
 30
0.0
 11
686.1181935911952
 21
-135.3376163216072
 31
0.0
  0
LINE
  5
164
330
66
100
AcDbEntity
  8
COIN-LINE
 62
     4
100
AcDbLine
 10
665.9504266382297
 20
-153.7376163216061
 30
0.0
 11
684.3504266382288
 21
-135.3376163216072
 31
0.0
  0
LINE
  5
165
330
66
100
AcDbEntity
  8
COIN-LINE
 62
     4
100
AcDbLine
 10
664.1826596852631
 20
-153.7376163216061
 30
0.0
 11
682.5826596852624
 21
-135.3376163216072
 31
0.0
  0
LINE
  5
166
330
66
100
AcDbEntity
  8
COIN-LINE
 62
     4
100
AcDbLine
 10
662.4148927322968
 20
-153.737616321606
 30
0.0
 11
680.814892732296
 21
-135.3376163216072
 31
0.0
  0
LINE
  5
167
330
66
100
AcDbEntity
  8
COIN-LINE
 62
     4
100
AcDbLine
 10
660.6471257793304
 20
-153.737616321606
 30
0.0
 11
679.0471257793296
 21
-135.3376163216072
 31
0.0
  0
LINE
  5
168
330
66
100
AcDbEntity
  8
COIN-LINE
 62
     4
100
AcDbLine
 10
658.8793588263639
 20
-153.7376163216061
 30
0.0
 11
677.2793588263631
 21
-135.3376163216072
 31
0.0
  0
LINE
  5
169
330
66
100
AcDbEntity
  8
COIN-LINE
 62
     4
100
AcDbLine
 10
657.1115918733976
 20
-153.737616321606
 30
0.0
 11
675.5115918733967
 21
-135.3376163216072
 31
0.0
  0
LINE
  5
16A
330
66
100
AcDbEntity
  8
COIN-LINE
 62
     4
100
AcDbLine
 10
655.3438249204312
 20
-153.7376163216061
 30
0.0
 11
673.7438249204303
 21
-135.3376163216072
 31
0.0
  0
LINE
  5
16B
330
66
100
AcDbEntity
  8
COIN-LINE
 62
     4
100
AcDbLine
 10
653.5760579674648
 20
-153.737616321606
 30
0.0
 11
671.9760579674639
 21
-135.3376163216072
 31
0.0
  0
LINE
  5
16C
330
66
100
AcDbEntity
  8
COIN-LINE
 62
     4
100
AcDbLine
 10
652.5217641596862
 20
-153.0241431764182
 30
0.0
 11
670.2082910144975
 21
-135.3376163216072
 31
0.0
  0
LINE
  5
16D
330
66
100
AcDbEntity
  8
COIN-LINE
 62
     4
100
AcDbLine
 10
652.5217641596862
 20
-151.2563762234518
 30
0.0
 11
668.440524061531
 21
-135.3376163216072
 31
0.0
  0
LINE
  5
16E
330
66
100
AcDbEntity
  8
COIN-LINE
 62
     4
100
AcDbLine
 10
652.5217641596864
 20
-149.4886092704853
 30
0.0
 11
666.6727571085647
 21
-135.3376163216072
 31
0.0
  0
LINE
  5
16F
330
66
100
AcDbEntity
  8
COIN-LINE
 62
     4
100
AcDbLine
 10
652.5217641596864
 20
-147.7208423175189
 30
0.0
 11
664.9049901555983
 21
-135.3376163216072
 31
0.0
  0
LINE
  5
170
330
66
100
AcDbEntity
  8
COIN-LINE
 62
     4
100
AcDbLine
 10
652.5217641596863
 20
-145.9530753645525
 30
0.0
 11
663.1372232026317
 21
-135.3376163216073
 31
0.0
  0
LINE
  5
171
330
66
100
AcDbEntity
  8
COIN-LINE
 62
     4
100
AcDbLine
 10
652.5217641596863
 20
-144.1853084115861
 30
0.0
 11
661.3694562496654
 21
-135.3376163216072
 31
0.0
  0
LINE
  5
172
330
66
100
AcDbEntity
  8
COIN-LINE
 62
     4
100
AcDbLine
 10
652.5217641596862
 20
-142.4175414586198
 30
0.0
 11
659.6016892966989
 21
-135.3376163216072
 31
0.0
  0
LINE
  5
173
330
66
100
AcDbEntity
  8
COIN-LINE
 62
     4
100
AcDbLine
 10
652.5217641596862
 20
-140.6497745056534
 30
0.0
 11
657.8339223437325
 21
-135.3376163216072
 31
0.0
  0
LINE
  5
174
330
66
100
AcDbEntity
  8
COIN-LINE
 62
     4
100
AcDbLine
 10
652.5217641596862
 20
-138.882007552687
 30
0.0
 11
656.0661553907662
 21
-135.3376163216071
 31
0.0
  0
LINE
  5
175
330
66
100
AcDbEntity
  8
COIN-LINE
 62
     4
100
AcDbLine
 10
652.5217641596863
 20
-137.1142405997206
 30
0.0
 11
654.2983884377997
 21
-135.3376163216072
 31
0.0
  0
LINE
  5
176
330
66
100
AcDbEntity
  8
COIN-LINE
 62
     4
100
AcDbLine
 10
652.5217641596863
 20
-135.3464736467541
 30
0.0
 11
652.5306214848333
 21
-135.3376163216072
 31
0.0
  0
LINE
  5
177
330
66
100
AcDbEntity
  8
COIN-LINE
 62
     4
100
AcDbLine
 10
785.5271465466009
 20
-136.5386929008587
 30
0.0
 11
784.3260699673494
 21
-135.3376163216072
 31
0.0
  0
LINE
  5
178
330
66
100
AcDbEntity
  8
COIN-LINE
 62
     4
100
AcDbLine
 10
785.5271465466012
 20
-138.3064598538252
 30
0.0
 11
782.558303014383
 21
-135.3376163216072
 31
0.0
  0
LINE
  5
179
330
66
100
AcDbEntity
  8
COIN-LINE
 62
     4
100
AcDbLine
 10
785.5271465466012
 20
-140.0742268067918
 30
0.0
 11
780.7905360614165
 21
-135.3376163216072
 31
0.0
  0
LINE
  5
17A
330
66
100
AcDbEntity
  8
COIN-LINE
 62
     4
100
AcDbLine
 10
785.5271465466014
 20
-141.8419937597583
 30
0.0
 11
779.0227691084501
 21
-135.3376163216072
 31
0.0
  0
LINE
  5
17B
330
66
100
AcDbEntity
  8
COIN-LINE
 62
     4
100
AcDbLine
 10
785.6034899388141
 20
-143.6861041049373
 30
0.0
 11
777.2550021554839
 21
-135.3376163216072
 31
0.0
  0
LINE
  5
17C
330
66
100
AcDbEntity
  8
COIN-LINE
 62
     4
100
AcDbLine
 10
785.6034899388143
 20
-145.4538710579041
 30
0.0
 11
775.4872352025172
 21
-135.3376163216072
 31
0.0
  0
LINE
  5
17D
330
66
100
AcDbEntity
  8
COIN-LINE
 62
     4
100
AcDbLine
 10
785.5271465466016
 20
-147.1452946186577
 30
0.0
 11
773.719468249551
 21
-135.3376163216072
 31
0.0
  0
LINE
  5
17E
330
66
100
AcDbEntity
  8
COIN-LINE
 62
     4
100
AcDbLine
 10
785.5271465466016
 20
-148.9130615716241
 30
0.0
 11
771.9517012965844
 21
-135.3376163216072
 31
0.0
  0
LINE
  5
17F
330
66
100
AcDbEntity
  8
COIN-LINE
 62
     4
100
AcDbLine
 10
785.5271465466016
 20
-150.6808285245906
 30
0.0
 11
770.1839343436181
 21
-135.3376163216072
 31
0.0
  0
LINE
  5
180
330
66
100
AcDbEntity
  8
COIN-LINE
 62
     4
100
AcDbLine
 10
785.5271465466016
 20
-152.448595477557
 30
0.0
 11
768.4161673906516
 21
-135.3376163216072
 31
0.0
  0
LINE
  5
181
330
66
100
AcDbEntity
  8
COIN-LINE
 62
     4
100
AcDbLine
 10
785.0484004376847
 20
-153.7376163216064
 30
0.0
 11
766.6484004376853
 21
-135.3376163216072
 31
0.0
  0
LINE
  5
182
330
66
100
AcDbEntity
  8
COIN-LINE
 62
     4
100
AcDbLine
 10
783.2806334847182
 20
-153.7376163216064
 30
0.0
 11
764.8806334847188
 21
-135.3376163216072
 31
0.0
  0
LINE
  5
183
330
66
100
AcDbEntity
  8
COIN-LINE
 62
     4
100
AcDbLine
 10
781.512866531752
 20
-153.7376163216064
 30
0.0
 11
763.1128665317524
 21
-135.3376163216072
 31
0.0
  0
LINE
  5
184
330
66
100
AcDbEntity
  8
COIN-LINE
 62
     4
100
AcDbLine
 10
779.7450995787853
 20
-153.7376163216064
 30
0.0
 11
761.3450995787859
 21
-135.3376163216072
 31
0.0
  0
LINE
  5
185
330
66
100
AcDbEntity
  8
COIN-LINE
 62
     4
100
AcDbLine
 10
777.9773326258188
 20
-153.7376163216063
 30
0.0
 11
759.5773326258195
 21
-135.3376163216071
 31
0.0
  0
LINE
  5
186
330
66
100
AcDbEntity
  8
COIN-LINE
 62
     4
100
AcDbLine
 10
776.2095656728525
 20
-153.7376163216063
 30
0.0
 11
757.809565672853
 21
-135.3376163216071
 31
0.0
  0
LINE
  5
187
330
66
100
AcDbEntity
  8
COIN-LINE
 62
     4
100
AcDbLine
 10
774.4417987198862
 20
-153.7376163216063
 30
0.0
 11
756.0417987198866
 21
-135.3376163216072
 31
0.0
  0
LINE
  5
188
330
66
100
AcDbEntity
  8
COIN-LINE
 62
     4
100
AcDbLine
 10
772.6740317669196
 20
-153.7376163216063
 30
0.0
 11
754.2740317669202
 21
-135.3376163216071
 31
0.0
  0
LINE
  5
189
330
66
100
AcDbEntity
  8
COIN-LINE
 62
     4
100
AcDbLine
 10
770.9062648139531
 20
-153.7376163216063
 30
0.0
 11
752.5062648139537
 21
-135.3376163216072
 31
0.0
  0
LINE
  5
18A
330
66
100
AcDbEntity
  8
COIN-LINE
 62
     4
100
AcDbLine
 10
769.1384978609867
 20
-153.7376163216063
 30
0.0
 11
750.7384978609875
 21
-135.3376163216072
 31
0.0
  0
LINE
  5
18B
330
66
100
AcDbEntity
  8
COIN-LINE
 62
     4
100
AcDbLine
 10
767.3707309080205
 20
-153.7376163216063
 30
0.0
 11
748.9707309080208
 21
-135.3376163216072
 31
0.0
  0
LINE
  5
18C
330
66
100
AcDbEntity
  8
COIN-LINE
 62
     4
100
AcDbLine
 10
765.6029639550538
 20
-153.7376163216062
 30
0.0
 11
747.2029639550544
 21
-135.3376163216071
 31
0.0
  0
LINE
  5
18D
330
66
100
AcDbEntity
  8
COIN-LINE
 62
     4
100
AcDbLine
 10
763.8351970020876
 20
-153.7376163216063
 30
0.0
 11
745.4351970020881
 21
-135.3376163216071
 31
0.0
  0
LINE
  5
18E
330
66
100
AcDbEntity
  8
COIN-LINE
 62
     4
100
AcDbLine
 10
762.0674300491209
 20
-153.7376163216062
 30
0.0
 11
743.6674300491216
 21
-135.3376163216071
 31
0.0
  0
LINE
  5
18F
330
66
100
AcDbEntity
  8
COIN-LINE
 62
     4
100
AcDbLine
 10
760.2996630961547
 20
-153.7376163216063
 30
0.0
 11
741.8996630961552
 21
-135.3376163216072
 31
0.0
  0
LINE
  5
190
330
66
100
AcDbEntity
  8
COIN-LINE
 62
     4
100
AcDbLine
 10
758.531896143188
 20
-153.7376163216062
 30
0.0
 11
740.1318961431887
 21
-135.3376163216071
 31
0.0
  0
LINE
  5
191
330
66
100
AcDbEntity
  8
COIN-LINE
 62
     4
100
AcDbLine
 10
756.7641291902218
 20
-153.7376163216062
 30
0.0
 11
738.3641291902224
 21
-135.3376163216072
 31
0.0
  0
LINE
  5
192
330
66
100
AcDbEntity
  8
COIN-LINE
 62
     4
100
AcDbLine
 10
754.9963622372551
 20
-153.7376163216062
 30
0.0
 11
736.5963622372559
 21
-135.3376163216071
 31
0.0
  0
LINE
  5
193
330
66
100
AcDbEntity
  8
COIN-LINE
 62
     4
100
AcDbLine
 10
753.2285952842889
 20
-153.7376163216062
 30
0.0
 11
734.8285952842895
 21
-135.3376163216072
 31
0.0
  0
LINE
  5
194
330
66
100
AcDbEntity
  8
COIN-LINE
 62
     4
100
AcDbLine
 10
751.4608283313223
 20
-153.7376163216061
 30
0.0
 11
733.060828331323
 21
-135.3376163216071
 31
0.0
  0
LINE
  5
195
330
66
100
AcDbEntity
  8
COIN-LINE
 62
     4
100
AcDbLine
 10
749.6930613783561
 20
-153.7376163216062
 30
0.0
 11
731.2930613783566
 21
-135.3376163216071
 31
0.0
  0
LINE
  5
196
330
66
100
AcDbEntity
  8
COIN-LINE
 62
     4
100
AcDbLine
 10
747.9252944253894
 20
-153.7376163216061
 30
0.0
 11
729.5252944253903
 21
-135.3376163216071
 31
0.0
  0
LINE
  5
197
330
66
100
AcDbEntity
  8
COIN-LINE
 62
     4
100
AcDbLine
 10
746.1575274724231
 20
-153.7376163216062
 30
0.0
 11
727.7575274724238
 21
-135.3376163216071
 31
0.0
  0
LINE
  5
198
330
66
100
AcDbEntity
  8
COIN-LINE
 62
     4
100
AcDbLine
 10
744.3897605194567
 20
-153.7376163216061
 30
0.0
 11
726.1217641596864
 21
-135.4696199618362
 31
0.0
  0
LINE
  5
199
330
66
100
AcDbEntity
  8
COIN-LINE
 62
     4
100
AcDbLine
 10
742.6219935664902
 20
-153.7376163216061
 30
0.0
 11
726.1217641596864
 21
-137.2373869148026
 31
0.0
  0
LINE
  5
19A
330
66
100
AcDbEntity
  8
COIN-LINE
 62
     4
100
AcDbLine
 10
740.8542266135238
 20
-153.7376163216061
 30
0.0
 11
726.1217641596863
 21
-139.0051538677689
 31
0.0
  0
LINE
  5
19B
330
66
100
AcDbEntity
  8
COIN-LINE
 62
     4
100
AcDbLine
 10
739.0864596605573
 20
-153.7376163216061
 30
0.0
 11
726.1217641596863
 21
-140.7729208207353
 31
0.0
  0
LINE
  5
19C
330
66
100
AcDbEntity
  8
COIN-LINE
 62
     4
100
AcDbLine
 10
737.3186927075908
 20
-153.7376163216061
 30
0.0
 11
726.1217641596863
 21
-142.5406877737017
 31
0.0
  0
LINE
  5
19D
330
66
100
AcDbEntity
  8
COIN-LINE
 62
     4
100
AcDbLine
 10
735.5509257546245
 20
-153.7376163216061
 30
0.0
 11
726.1217641596864
 21
-144.3084547266682
 31
0.0
  0
LINE
  5
19E
330
66
100
AcDbEntity
  8
COIN-LINE
 62
     4
100
AcDbLine
 10
733.783158801658
 20
-153.7376163216061
 30
0.0
 11
726.1217641596864
 21
-146.0762216796346
 31
0.0
  0
LINE
  5
19F
330
66
100
AcDbEntity
  8
COIN-LINE
 62
     4
100
AcDbLine
 10
732.0153918486916
 20
-153.737616321606
 30
0.0
 11
726.1217641596865
 21
-147.843988632601
 31
0.0
  0
LINE
  5
1A0
330
66
100
AcDbEntity
  8
COIN-LINE
 62
     4
100
AcDbLine
 10
730.2476248957251
 20
-153.737616321606
 30
0.0
 11
726.1217641596864
 21
-149.6117555855674
 31
0.0
  0
LINE
  5
1A1
330
66
100
AcDbEntity
  8
COIN-LINE
 62
     4
100
AcDbLine
 10
711.9271465466008
 20
-135.417137972482
 30
0.0
 11
711.8476248957261
 21
-135.3376163216072
 31
0.0
  0
LINE
  5
1A2
330
66
100
AcDbEntity
  8
COIN-LINE
 62
     4
100
AcDbLine
 10
728.4798579427587
 20
-153.737616321606
 30
0.0
 11
726.1217641596863
 21
-151.3795225385337
 31
0.0
  0
LINE
  5
1A3
330
66
100
AcDbEntity
  8
COIN-LINE
 62
     4
100
AcDbLine
 10
711.9271465466008
 20
-137.1849049254484
 30
0.0
 11
710.0798579427596
 21
-135.3376163216072
 31
0.0
  0
LINE
  5
1A4
330
66
100
AcDbEntity
  8
COIN-LINE
 62
     4
100
AcDbLine
 10
726.7120909897924
 20
-153.737616321606
 30
0.0
 11
726.1217641596863
 21
-153.1472894915001
 31
0.0
  0
LINE
  5
1A5
330
66
100
AcDbEntity
  8
COIN-LINE
 62
     4
100
AcDbLine
 10
711.927146546601
 20
-138.952671878415
 30
0.0
 11
708.3120909897932
 21
-135.3376163216072
 31
0.0
  0
LINE
  5
1A6
330
66
100
AcDbEntity
  8
COIN-LINE
 62
     4
100
AcDbLine
 10
711.9271465466011
 20
-140.7204388313815
 30
0.0
 11
706.5443240368267
 21
-135.3376163216071
 31
0.0
  0
LINE
  5
1A7
330
66
100
AcDbEntity
  8
COIN-LINE
 62
     4
100
AcDbLine
 10
711.9271465466013
 20
-142.488205784348
 30
0.0
 11
704.7765570838603
 21
-135.3376163216072
 31
0.0
  0
LINE
  5
1A8
330
66
100
AcDbEntity
  8
COIN-LINE
 62
     4
100
AcDbLine
 10
711.9271465466007
 20
-144.2559727373138
 30
0.0
 11
703.0087901308938
 21
-135.3376163216072
 31
0.0
  0
LINE
  5
1A9
330
66
100
AcDbEntity
  8
COIN-LINE
 62
     4
100
AcDbLine
 10
711.9271465466007
 20
-146.0237396902803
 30
0.0
 11
701.2410231779275
 21
-135.3376163216072
 31
0.0
  0
LINE
  5
1AA
330
66
100
AcDbEntity
  8
COIN-LINE
 62
     4
100
AcDbLine
 10
711.9271465466014
 20
-147.7915066432474
 30
0.0
 11
699.473256224961
 21
-135.3376163216071
 31
0.0
  0
LINE
  5
1AB
330
66
100
AcDbEntity
  8
COIN-LINE
 62
     4
100
AcDbLine
 10
711.9271465466016
 20
-149.5592735962139
 30
0.0
 11
697.7054892719946
 21
-135.3376163216072
 31
0.0
  0
LINE
  5
1AC
330
66
100
AcDbEntity
  8
COIN-LINE
 62
     4
100
AcDbLine
 10
711.9271465466015
 20
-151.3270405491803
 30
0.0
 11
695.9377223190282
 21
-135.3376163216072
 31
0.0
  0
LINE
  5
1AD
330
66
100
AcDbEntity
  8
COIN-LINE
 62
     4
100
AcDbLine
 10
711.9271465466018
 20
-153.0948075021469
 30
0.0
 11
694.1699553660618
 21
-135.3376163216072
 31
0.0
  0
LINE
  5
1AE
330
66
100
AcDbEntity
  8
COIN-LINE
 62
     4
100
AcDbLine
 10
710.8021884130948
 20
-153.7376163216064
 30
0.0
 11
692.4021884130953
 21
-135.3376163216072
 31
0.0
  0
LINE
  5
1AF
330
66
100
AcDbEntity
  8
COIN-LINE
 62
     4
100
AcDbLine
 10
709.0344214601284
 20
-153.7376163216064
 30
0.0
 11
690.6344214601289
 21
-135.3376163216072
 31
0.0
  0
LINE
  5
1B0
330
66
100
AcDbEntity
  8
COIN-LINE
 62
     4
100
AcDbLine
 10
707.2666545071619
 20
-153.7376163216064
 30
0.0
 11
688.8666545071625
 21
-135.3376163216072
 31
0.0
  0
LINE
  5
1B1
330
66
100
AcDbEntity
  8
COIN-LINE
 62
     4
100
AcDbLine
 10
705.4988875541956
 20
-153.7376163216063
 30
0.0
 11
687.098887554196
 21
-135.3376163216071
 31
0.0
  0
LINE
  5
1B2
330
66
100
AcDbEntity
  8
COIN-LINE
 62
     4
100
AcDbLine
 10
703.7311206012291
 20
-153.7376163216063
 30
0.0
 11
685.3311206012295
 21
-135.3376163216071
 31
0.0
  0
LINE
  5
1B3
330
66
100
AcDbEntity
  8
COIN-LINE
 62
     4
100
AcDbLine
 10
701.9633536482627
 20
-153.7376163216064
 30
0.0
 11
683.5633536482633
 21
-135.3376163216072
 31
0.0
  0
LINE
  5
1B4
330
66
100
AcDbEntity
  8
COIN-LINE
 62
     4
100
AcDbLine
 10
700.1955866952962
 20
-153.7376163216063
 30
0.0
 11
681.7955866952968
 21
-135.3376163216072
 31
0.0
  0
LINE
  5
1B5
330
66
100
AcDbEntity
  8
COIN-LINE
 62
     4
100
AcDbLine
 10
698.4278197423297
 20
-153.7376163216063
 30
0.0
 11
680.0278197423303
 21
-135.3376163216072
 31
0.0
  0
LINE
  5
1B6
330
66
100
AcDbEntity
  8
COIN-LINE
 62
     4
100
AcDbLine
 10
696.6600527893633
 20
-153.7376163216063
 30
0.0
 11
678.2600527893639
 21
-135.3376163216071
 31
0.0
  0
LINE
  5
1B7
330
66
100
AcDbEntity
  8
COIN-LINE
 62
     4
100
AcDbLine
 10
694.8922858363969
 20
-153.7376163216063
 30
0.0
 11
676.4922858363976
 21
-135.3376163216072
 31
0.0
  0
LINE
  5
1B8
330
66
100
AcDbEntity
  8
COIN-LINE
 62
     4
100
AcDbLine
 10
693.1245188834305
 20
-153.7376163216063
 30
0.0
 11
674.7245188834312
 21
-135.3376163216072
 31
0.0
  0
LINE
  5
1B9
330
66
100
AcDbEntity
  8
COIN-LINE
 62
     4
100
AcDbLine
 10
691.356751930464
 20
-153.7376163216062
 30
0.0
 11
672.9567519304646
 21
-135.3376163216072
 31
0.0
  0
LINE
  5
1BA
330
66
100
AcDbEntity
  8
COIN-LINE
 62
     4
100
AcDbLine
 10
689.5889849774976
 20
-153.7376163216063
 30
0.0
 11
671.1889849774982
 21
-135.3376163216071
 31
0.0
  0
LINE
  5
1BB
330
66
100
AcDbEntity
  8
COIN-LINE
 62
     4
100
AcDbLine
 10
687.8212180245313
 20
-153.7376163216063
 30
0.0
 11
669.4212180245318
 21
-135.3376163216072
 31
0.0
  0
LINE
  5
1BC
330
66
100
AcDbEntity
  8
COIN-LINE
 62
     4
100
AcDbLine
 10
686.0534510715648
 20
-153.7376163216063
 30
0.0
 11
667.6534510715654
 21
-135.3376163216072
 31
0.0
  0
LINE
  5
1BD
330
66
100
AcDbEntity
  8
COIN-LINE
 62
     4
100
AcDbLine
 10
684.2856841185983
 20
-153.7376163216062
 30
0.0
 11
665.885684118599
 21
-135.3376163216072
 31
0.0
  0
LINE
  5
1BE
330
66
100
AcDbEntity
  8
COIN-LINE
 62
     4
100
AcDbLine
 10
682.5179171656319
 20
-153.7376163216062
 30
0.0
 11
664.1179171656325
 21
-135.3376163216072
 31
0.0
  0
LINE
  5
1BF
330
66
100
AcDbEntity
  8
COIN-LINE
 62
     4
100
AcDbLine
 10
680.7501502126655
 20
-153.7376163216062
 30
0.0
 11
662.3501502126662
 21
-135.3376163216072
 31
0.0
  0
LINE
  5
1C0
330
66
100
AcDbEntity
  8
COIN-LINE
 62
     4
100
AcDbLine
 10
678.9823832596989
 20
-153.7376163216062
 30
0.0
 11
660.5823832596996
 21
-135.3376163216072
 31
0.0
  0
LINE
  5
1C1
330
66
100
AcDbEntity
  8
COIN-LINE
 62
     4
100
AcDbLine
 10
677.2146163067326
 20
-153.7376163216062
 30
0.0
 11
658.8146163067333
 21
-135.3376163216072
 31
0.0
  0
LINE
  5
1C2
330
66
100
AcDbEntity
  8
COIN-LINE
 62
     4
100
AcDbLine
 10
675.4468493537662
 20
-153.7376163216062
 30
0.0
 11
657.0468493537669
 21
-135.3376163216072
 31
0.0
  0
LINE
  5
1C3
330
66
100
AcDbEntity
  8
COIN-LINE
 62
     4
100
AcDbLine
 10
673.6790824007997
 20
-153.7376163216062
 30
0.0
 11
655.2790824008004
 21
-135.3376163216072
 31
0.0
  0
LINE
  5
1C4
330
66
100
AcDbEntity
  8
COIN-LINE
 62
     4
100
AcDbLine
 10
671.9113154478333
 20
-153.7376163216061
 30
0.0
 11
653.511315447834
 21
-135.3376163216072
 31
0.0
  0
LINE
  5
1C5
330
66
100
AcDbEntity
  8
COIN-LINE
 62
     4
100
AcDbLine
 10
670.1435484948668
 20
-153.7376163216061
 30
0.0
 11
652.5217641596862
 21
-136.1158319864258
 31
0.0
  0
LINE
  5
1C6
330
66
100
AcDbEntity
  8
COIN-LINE
 62
     4
100
AcDbLine
 10
668.3757815419004
 20
-153.7376163216062
 30
0.0
 11
652.5217641596863
 21
-137.8835989393923
 31
0.0
  0
LINE
  5
1C7
330
66
100
AcDbEntity
  8
COIN-LINE
 62
     4
100
AcDbLine
 10
666.6080145889339
 20
-153.7376163216062
 30
0.0
 11
652.5217641596862
 21
-139.6513658923586
 31
0.0
  0
LINE
  5
1C8
330
66
100
AcDbEntity
  8
COIN-LINE
 62
     4
100
AcDbLine
 10
664.8402476359676
 20
-153.7376163216061
 30
0.0
 11
652.5217641596863
 21
-141.4191328453251
 31
0.0
  0
LINE
  5
1C9
330
66
100
AcDbEntity
  8
COIN-LINE
 62
     4
100
AcDbLine
 10
663.0724806830011
 20
-153.7376163216061
 30
0.0
 11
652.5217641596863
 21
-143.1868997982915
 31
0.0
  0
LINE
  5
1CA
330
66
100
AcDbEntity
  8
COIN-LINE
 62
     4
100
AcDbLine
 10
661.3047137300346
 20
-153.7376163216061
 30
0.0
 11
652.5217641596863
 21
-144.9546667512579
 31
0.0
  0
LINE
  5
1CB
330
66
100
AcDbEntity
  8
COIN-LINE
 62
     4
100
AcDbLine
 10
659.5369467770682
 20
-153.737616321606
 30
0.0
 11
652.5217641596864
 21
-146.7224337042244
 31
0.0
  0
LINE
  5
1CC
330
66
100
AcDbEntity
  8
COIN-LINE
 62
     4
100
AcDbLine
 10
657.7691798241017
 20
-153.7376163216061
 30
0.0
 11
652.5217641596864
 21
-148.4902006571907
 31
0.0
  0
LINE
  5
1CD
330
66
100
AcDbEntity
  8
COIN-LINE
 62
     4
100
AcDbLine
 10
656.0014128711353
 20
-153.7376163216061
 30
0.0
 11
652.5217641596863
 21
-150.257967610157
 31
0.0
  0
LINE
  5
1CE
330
66
100
AcDbEntity
  8
COIN-LINE
 62
     4
100
AcDbLine
 10
654.2336459181689
 20
-153.7376163216061
 30
0.0
 11
652.5217641596862
 21
-152.0257345631234
 31
0.0
  0
HATCH
  5
1CF
330
66
100
AcDbEntity
  8
0
 62
     4
100
AcDbHatch
 10
0.0
 20
0.0
 30
0.0
210
0.0
220
0.0
230
1.0
  2
ANSI37
 70
     0
 71
     0
 91
        1
 92
        7
 72
     0
 73
     1
 93
       26
 10
638.5244553531405
 20
-150.2876163216086
 10
639.5244553531405
 20
-150.2876163216086
 10
645.4244553531422
 20
-150.2876163216086
 10
646.5782555635215
 20
-150.2876163216085
 10
652.5217641596864
 20
-150.2876163216083
 10
652.5217641596862
 20
-151.2563762234518
 10
653.0209684663336
 20
-150.7571719168044
 10
652.5217641596863
 20
-150.257967610157
 10
652.5217641596863
 20
-149.4886092704854
 10
652.5217641596863
 20
-148.4902006571906
 10
652.5217641596863
 20
-147.720842317519
 10
652.5217641596863
 20
-146.7224337042242
 10
652.5217641596863
 20
-145.9530753645525
 10
652.5217641596863
 20
-144.9546667512579
 10
652.5217641596863
 20
-144.1853084115861
 10
652.5217641596863
 20
-143.1868997982915
 10
652.5217641596863
 20
-142.4175414586197
 10
652.5217641596863
 20
-141.4191328453251
 10
652.5217641596863
 20
-140.6497745056533
 10
652.5217641596863
 20
-139.6513658923587
 10
652.5217641596863
 20
-138.8820075526869
 10
652.5217641596863
 20
-138.7876163216083
 10
646.5782555635216
 20
-138.7876163216086
 10
645.424455353142
 20
-138.7876163216086
 10
639.5244553531407
 20
-138.7876163216086
 10
638.5244553531408
 20
-138.7876163216086
 97
        0
 75
     0
 76
     1
 52
0.0
 41
10.0
 77
     0
 78
     2
 53
44.99999999999966
 43
0.0
 44
0.0
 45
-0.8838834764831631
 46
0.8838834764831842
 79
     0
 53
135.0000000000003
 43
0.0
 44
0.0
 45
-0.8838834764831631
 46
-0.8838834764831842
 79
     0
 47
0.0
 98
        1
 10
0.0
 20
0.0
  0
HATCH
  5
1D0
330
66
100
AcDbEntity
  8
0
 62
     4
100
AcDbHatch
 10
0.0
 20
0.0
 30
0.0
210
0.0
220
0.0
230
1.0
  2
ANSI37
 70
     0
 71
     0
 91
        1
 92
        6
 72
     0
 73
     1
 93
       40
 10
727.2671804909233
 20
-150.7571719168043
 10
726.3832970144401
 20
-149.873288440321
 10
726.1217641596864
 20
-150.1348212950748
 10
726.1217641596864
 20
-149.6117555855674
 10
726.1217641596864
 20
-148.3670543421083
 10
726.1217641596864
 20
-147.8439886326009
 10
726.1217641596864
 20
-146.5992873891419
 10
726.1217641596864
 20
-146.0762216796346
 10
726.1217641596864
 20
-144.8315204361756
 10
726.1217641596864
 20
-144.3084547266682
 10
726.1217641596864
 20
-143.0637534832091
 10
726.1217641596864
 20
-142.5406877737018
 10
726.1217641596864
 20
-141.2959865302428
 10
726.1217641596864
 20
-140.7729208207354
 10
726.1217641596864
 20
-139.5282195772764
 10
726.1217641596864
 20
-139.005153867769
 10
726.1217641596864
 20
-138.7876163216083
 10
719.0244553531451
 20
-138.7876163216086
 10
711.9271465466007
 20
-138.7876163216083
 10
711.9271465466007
 20
-138.9526718784146
 10
711.9271465466007
 20
-139.5807015666307
 10
711.9271465466007
 20
-140.720438831381
 10
711.9271465466007
 20
-141.3484685195971
 10
711.9271465466007
 20
-142.4882057843475
 10
711.9271465466007
 20
-143.1162354725636
 10
711.9271465466007
 20
-144.2559727373138
 10
711.9271465466007
 20
-144.8840024255299
 10
711.9271465466007
 20
-146.0237396902803
 10
711.9271465466007
 20
-146.6517693784963
 10
711.9271465466007
 20
-147.7915066432467
 10
711.9271465466007
 20
-148.4195363314627
 10
711.9271465466007
 20
-149.559273596213
 10
711.9271465466015
 20
-150.1873032844282
 10
711.3572779142255
 20
-150.7571719168043
 10
711.9271465466011
 20
-151.3270405491799
 10
711.9271465466008
 20
-150.2876163216083
 10
719.0244553531423
 20
-150.2876163216086
 10
726.1217641596865
 20
-150.2876163216083
 10
726.1217641596863
 20
-151.3795225385337
 10
726.3832970144401
 20
-151.6410553932874
 97
        0
 75
     0
 76
     1
 52
0.0
 41
10.0
 77
     0
 78
     2
 53
44.99999999999966
 43
0.0
 44
0.0
 45
-0.8838834764831631
 46
0.8838834764831842
 79
     0
 53
135.0000000000003
 43
0.0
 44
0.0
 45
-0.8838834764831631
 46
-0.8838834764831842
 79
     0
 47
0.0
 98
        1
 10
0.0
 20
0.0
  0
HATCH
  5
1D1
330
66
100
AcDbEntity
  8
0
 62
     4
100
AcDbHatch
 10
0.0
 20
0.0
 30
0.0
210
0.0
220
0.0
230
1.0
  2
ANSI37
 70
     0
 71
     0
 91
        1
 92
        7
 72
     0
 73
     1
 93
        4
 10
785.5271465466012
 20
-138.7876163216083
 10
785.5271465466009
 20
-150.2876163216083
 10
792.6244553531451
 20
-150.2876163216086
 10
792.6244553531453
 20
-138.7876163216086
 97
        0
 75
     0
 76
     1
 52
0.0
 41
10.0
 77
     0
 78
     2
 53
44.99999999999966
 43
0.0
 44
0.0
 45
-0.8838834764831631
 46
0.8838834764831842
 79
     0
 53
135.0000000000003
 43
0.0
 44
0.0
 45
-0.8838834764831631
 46
-0.8838834764831842
 79
     0
 47
0.0
 98
        1
 10
0.0
 20
0.0
  0
LINE
  5
1D2
330
66
100
AcDbEntity
  8
LF-LINE
100
AcDbLine
 10
556.8744554704663
 20
-236.9398380182079
 30
0.0
 11
556.8744554704663
 21
-54.36413993030374
 31
0.0
  0
LINE
  5
1D3
330
66
100
AcDbEntity
  8
LF-LINE
100
AcDbLine
 10
645.4244553531431
 20
-196.862616321604
 30
0.0
 11
638.5244553531407
 21
-196.862616321604
 31
0.0
  0
LINE
  5
1D4
330
66
100
AcDbEntity
  8
LF-LINE
100
AcDbLine
 10
645.4244553531428
 20
-202.6126163216031
 30
0.0
 11
638.5244553531421
 21
-202.6126163216031
 31
0.0
  0
LINE
  5
1D5
330
66
100
AcDbEntity
  8
LF-LINE
100
AcDbLine
 10
645.4244553531431
 20
-86.46261632160326
 30
0.0
 11
638.5244553531407
 21
-86.46261632160326
 31
0.0
  0
LINE
  5
1D6
330
66
100
AcDbEntity
  8
LF-LINE
100
AcDbLine
 10
645.4244553531428
 20
-92.21261632160224
 30
0.0
 11
638.5244553531421
 21
-92.21261632160224
 31
0.0
  0
LWPOLYLINE
  5
1D7
330
66
100
AcDbEntity
  8
0
100
AcDbPolyline
 90
        4
 70
     1
 43
0.0
 10
652.5217641596864
 20
-133.0376163216124
 10
711.9271465466007
 20
-133.0376163216095
 10
711.9271465466008
 20
-135.3376163216072
 10
652.5217641596864
 20
-135.3376163216072
  0
LWPOLYLINE
  5
1D8
330
66
100
AcDbEntity
  8
0
100
AcDbPolyline
 90
        4
 70
     1
 43
0.0
 10
652.5217641596863
 20
-153.737616321606
 10
652.5217641596863
 20
-156.0376163216315
 10
711.9271465466019
 20
-156.0376163216055
 10
711.9271465466018
 20
-153.7376163216064
  0
LWPOLYLINE
  5
1D9
330
66
100
AcDbEntity
  8
0
100
AcDbPolyline
 90
        3
 70
     0
 43
0.0
 10
652.5217641596864
 20
-135.3376163216072
 10
652.5217641596863
 20
-138.7876163216083
 10
645.424455353142
 20
-138.7876163216086
  0
LWPOLYLINE
  5
1DA
330
66
100
AcDbEntity
  8
0
100
AcDbPolyline
 90
        3
 70
     0
 43
0.0
 10
652.5217641596863
 20
-153.737616321606
 10
652.5217641596864
 20
-150.2876163216083
 10
645.4244553531422
 20
-150.2876163216086
  0
LWPOLYLINE
  5
1DB
330
66
100
AcDbEntity
  8
0
100
AcDbPolyline
 90
        3
 70
     0
 43
0.0
 10
711.9271465466008
 20
-135.3376163216072
 10
711.927146546601
 20
-138.7876163216083
 10
719.0244553531451
 20
-138.7876163216086
  0
LWPOLYLINE
  5
1DC
330
66
100
AcDbEntity
  8
0
100
AcDbPolyline
 90
        3
 70
     0
 43
0.0
 10
711.9271465466018
 20
-153.7376163216064
 10
711.9271465466008
 20
-150.2876163216083
 10
719.024455353145
 20
-150.2876163216086
  0
LWPOLYLINE
  5
1DD
330
66
100
AcDbEntity
  8
0
100
AcDbPolyline
 90
        4
 70
     1
 43
0.0
 10
726.1217641596865
 20
-133.0376163216124
 10
785.5271465466009
 20
-133.0376163216095
 10
785.5271465466009
 20
-135.3376163216072
 10
726.1217641596865
 20
-135.3376163216072
  0
LWPOLYLINE
  5
1DE
330
66
100
AcDbEntity
  8
0
100
AcDbPolyline
 90
        4
 70
     1
 43
0.0
 10
726.1217641596864
 20
-153.737616321606
 10
726.1217641596864
 20
-156.0376163216315
 10
785.5271465466021
 20
-156.0376163216055
 10
785.5271465466021
 20
-153.7376163216064
  0
LWPOLYLINE
  5
1DF
330
66
100
AcDbEntity
  8
0
100
AcDbPolyline
 90
        3
 70
     0
 43
0.0
 10
726.1217641596865
 20
-135.3376163216072
 10
726.1217641596864
 20
-138.7876163216083
 10
719.0244553531422
 20
-138.7876163216086
  0
LWPOLYLINE
  5
1E0
330
66
100
AcDbEntity
  8
0
100
AcDbPolyline
 90
        3
 70
     0
 43
0.0
 10
726.1217641596864
 20
-153.737616321606
 10
726.1217641596865
 20
-150.2876163216083
 10
719.0244553531423
 20
-150.2876163216086
  0
LWPOLYLINE
  5
1E1
330
66
100
AcDbEntity
  8
0
100
AcDbPolyline
 90
        3
 70
     0
 43
0.0
 10
785.5271465466009
 20
-135.3376163216072
 10
785.5271465466012
 20
-138.7876163216083
 10
792.6244553531453
 20
-138.7876163216086
  0
LWPOLYLINE
  5
1E2
330
66
100
AcDbEntity
  8
0
100
AcDbPolyline
 90
        3
 70
     0
 43
0.0
 10
785.5271465466021
 20
-153.7376163216064
 10
785.5271465466009
 20
-150.2876163216083
 10
792.6244553531451
 20
-150.2876163216086
  0
LINE
  5
1E3
330
66
100
AcDbEntity
  8
LF-LINE
100
AcDbLine
 10
668.4244553531454
 20
-126.1376163216014
 30
0.0
 11
668.4244553531458
 21
-133.0376163216094
 31
0.0
  0
LINE
  5
1E4
330
66
100
AcDbEntity
  8
LF-LINE
100
AcDbLine
 10
674.1744553531471
 20
-126.137616321601
 30
0.0
 11
674.1744553531468
 21
-133.0376163216104
 31
0.0
  0
LINE
  5
1E5
330
66
100
AcDbEntity
  8
LF-LINE
100
AcDbLine
 10
701.7744553531453
 20
-126.1376163216042
 30
0.0
 11
701.7744553531453
 21
-133.03761632161
 31
0.0
  0
LINE
  5
1E6
330
66
100
AcDbEntity
  8
LF-LINE
100
AcDbLine
 10
707.5244553531441
 20
-126.1376163216038
 30
0.0
 11
707.5244553531442
 21
-133.0376163216096
 31
0.0
  0
LINE
  5
1E7
330
66
100
AcDbEntity
  8
LF-LINE
100
AcDbLine
 10
668.4244553531465
 20
-156.0376163216284
 30
0.0
 11
668.4244553531469
 21
-162.9376163216039
 31
0.0
  0
LINE
  5
1E8
330
66
100
AcDbEntity
  8
LF-LINE
100
AcDbLine
 10
674.1744553531459
 20
-156.0376163216294
 30
0.0
 11
674.1744553531457
 21
-162.9376163216035
 31
0.0
  0
LINE
  5
1E9
330
66
100
AcDbEntity
  8
LF-LINE
100
AcDbLine
 10
701.7744553531453
 20
-156.037616321629
 30
0.0
 11
701.7744553531453
 21
-162.9376163216039
 31
0.0
  0
LINE
  5
1EA
330
66
100
AcDbEntity
  8
LF-LINE
100
AcDbLine
 10
707.5244553531441
 20
-156.0376163216286
 30
0.0
 11
707.5244553531441
 21
-162.9376163216035
 31
0.0
  0
LINE
  5
1EB
330
66
100
AcDbEntity
  8
LF-LINE
100
AcDbLine
 10
747.7744553531469
 20
-126.137616321601
 30
0.0
 11
747.7744553531466
 21
-133.0376163216104
 31
0.0
  0
LINE
  5
1EC
330
66
100
AcDbEntity
  8
LF-LINE
100
AcDbLine
 10
775.374455353145
 20
-126.1376163216042
 30
0.0
 11
775.3744553531451
 21
-133.03761632161
 31
0.0
  0
LINE
  5
1ED
330
66
100
AcDbEntity
  8
LF-LINE
100
AcDbLine
 10
781.1244553531438
 20
-126.1376163216038
 30
0.0
 11
781.124455353144
 21
-133.0376163216096
 31
0.0
  0
LINE
  5
1EE
330
66
100
AcDbEntity
  8
LF-LINE
100
AcDbLine
 10
742.0244553531452
 20
-126.1376163216014
 30
0.0
 11
742.0244553531456
 21
-133.0376163216094
 31
0.0
  0
LINE
  5
1EF
330
66
100
AcDbEntity
  8
LF-LINE
100
AcDbLine
 10
747.7744553531457
 20
-156.0376163216294
 30
0.0
 11
747.7744553531455
 21
-162.9376163216035
 31
0.0
  0
LINE
  5
1F0
330
66
100
AcDbEntity
  8
LF-LINE
100
AcDbLine
 10
742.0244553531463
 20
-156.0376163216284
 30
0.0
 11
742.0244553531467
 21
-162.9376163216039
 31
0.0
  0
LINE
  5
1F1
330
66
100
AcDbEntity
  8
LF-LINE
100
AcDbLine
 10
775.374455353145
 20
-156.037616321629
 30
0.0
 11
775.374455353145
 21
-162.9376163216039
 31
0.0
  0
LINE
  5
1F2
330
66
100
AcDbEntity
  8
LF-LINE
100
AcDbLine
 10
781.1244553531438
 20
-156.0376163216286
 30
0.0
 11
781.1244553531438
 21
-162.9376163216035
 31
0.0
  0
LINE
  5
1F3
330
66
100
AcDbEntity
  8
PKG-OUT
  6
ByBlock
370
    -2
100
AcDbLine
 10
711.3577886864764
 20
-115.4426163216046
 30
0.0
 11
705.0649235995758
 21
-115.4426163216046
 31
0.0
  0
LINE
  5
1F4
330
66
100
AcDbEntity
  8
PKG-OUT
  6
ByBlock
370
    -2
100
AcDbLine
 10
685.2144553531459
 20
-66.68261632160323
 30
0.0
 11
685.2144553531459
 21
-111.9926163216038
 31
0.0
  0
LWPOLYLINE
  5
1F5
330
66
100
AcDbEntity
  8
PKG-OUT
100
AcDbPolyline
 90
        4
 70
     1
 43
0.0
 10
716.7244553531408
 20
-54.83761632160355
 10
647.7244553531408
 20
-54.83761632160355
 10
647.7244553531408
 20
-123.8376163216035
 10
716.7244553531408
 20
-123.8376163216035
  0
LINE
  5
1F6
330
66
100
AcDbEntity
  8
PKG-OUT
100
AcDbLine
 10
652.3244553531444
 20
-86.46261632160616
 30
0.0
 11
652.3244553531444
 21
-92.21261632160224
 31
0.0
  0
LINE
  5
1F7
330
66
100
AcDbEntity
  8
PKG-OUT
100
AcDbLine
 10
712.1244553531424
 20
-86.46261632160616
 30
0.0
 11
712.1244553531424
 21
-92.21261632160224
 31
0.0
  0
LWPOLYLINE
  5
1F8
330
66
100
AcDbEntity
  8
LF-LINE
100
AcDbPolyline
 90
        6
 70
     0
 43
0.0
 10
668.4244553531454
 20
-52.53761632160302
 10
668.4244553531454
 20
-58.28761632160302
 10
655.7744553531439
 20
-58.28761632160302
 42
0.4142135623730914
 10
652.3244553531444
 20
-61.73761632160386
 10
652.3244553531444
 20
-86.46261632160616
 10
645.4244553531428
 20
-86.46261632160355
  0
LWPOLYLINE
  5
1F9
330
66
100
AcDbEntity
  8
LF-LINE
100
AcDbPolyline
 90
        6
 70
     0
 43
0.0
 10
645.4244553531428
 20
-92.21261632160224
 10
652.3244553531444
 20
-92.21261632160224
 10
652.3244553531444
 20
-116.9376163216046
 42
0.4142135623730914
 10
655.7744553531439
 20
-120.387616321604
 10
668.4244553531429
 20
-120.387616321604
 10
668.4244553531454
 20
-126.1376163216014
  0
LWPOLYLINE
  5
1FA
330
66
100
AcDbEntity
  8
LF-LINE
100
AcDbPolyline
 90
        8
 70
     0
 43
0.0
 10
674.1744553531455
 20
-52.53761632160302
 10
674.1744553531455
 20
-58.28761632160302
 10
689.124455353145
 20
-58.28761632160302
 42
-0.4142135623730951
 10
692.5744553531444
 20
-61.73761632160386
 10
692.5744553531444
 20
-116.937616321602
 42
-0.4142135623730914
 10
689.124455353145
 20
-120.3876163216014
 10
674.1744553531455
 20
-120.387616321604
 10
674.1744553531455
 20
-126.1376163216014
  0
LWPOLYLINE
  5
1FB
330
66
100
AcDbEntity
  8
LF-LINE
100
AcDbPolyline
 90
        8
 70
     0
 43
0.0
 10
701.7744553531439
 20
-126.137616321604
 10
701.7744553531439
 20
-120.3876163216014
 10
700.6244553531449
 20
-120.3876163216014
 42
-0.4142135623730951
 10
697.1744553531455
 20
-116.937616321602
 10
697.1744553531428
 20
-61.7376163216025
 42
-0.4142135623730914
 10
700.6244553531449
 20
-58.28761632160177
 10
701.7744553531439
 20
-58.28761632160041
 10
701.7744553531439
 20
-52.53761632160302
  0
LWPOLYLINE
  5
1FC
330
66
100
AcDbEntity
  8
LF-LINE
100
AcDbPolyline
 90
        6
 70
     0
 43
0.0
 10
707.5244553531439
 20
-52.53761632160302
 10
707.5244553531439
 20
-58.28761632160041
 10
708.6744553531429
 20
-58.28761632160177
 42
-0.4142135623730953
 10
712.1244553531424
 20
-61.73761632160386
 10
712.1244553531424
 20
-86.46261632160616
 10
719.0244553531413
 20
-86.46261632160616
  0
LWPOLYLINE
  5
1FD
330
66
100
AcDbEntity
  8
LF-LINE
100
AcDbPolyline
 90
        6
 70
     0
 43
0.0
 10
707.5244553531439
 20
-126.137616321604
 10
707.5244553531439
 20
-120.3876163216014
 10
708.6744553531429
 20
-120.3876163216014
 42
0.4142135623730914
 10
712.1244553531424
 20
-116.937616321602
 10
712.1244553531424
 20
-92.21261632160224
 10
719.0244553531386
 20
-92.21261632160485
  0
LINE
  5
1FE
330
66
100
AcDbEntity
  8
PKG-OUT
  6
ByBlock
100
AcDbLine
 10
701.0844553531446
 20
-66.68261632160323
 30
0.0
 11
701.0844553531393
 21
-111.9926163216038
 31
0.0
  0
ARC
  5
1FF
330
66
100
AcDbEntity
  8
PKG-OUT
  6
ByBlock
100
AcDbCircle
 10
704.5344553531414
 20
-111.9926163216038
 30
0.0
 40
3.450000000002091
100
AcDbArc
 50
180.0
 51
270.0
  0
LINE
  5
200
330
66
100
AcDbEntity
  8
PKG-OUT
  6
ByBlock
100
AcDbLine
 10
704.5344553531414
 20
-115.4426163216046
 30
0.0
 11
712.1244553531424
 21
-115.4426163216046
 31
0.0
  0
LINE
  5
201
330
66
100
AcDbEntity
  8
PKG-OUT
  6
ByBlock
100
AcDbLine
 10
652.3244553531444
 20
-115.4426163216007
 30
0.0
 11
681.7644553531438
 21
-115.4426163216033
 31
0.0
  0
ARC
  5
202
330
66
100
AcDbEntity
  8
PKG-OUT
  6
ByBlock
100
AcDbCircle
 10
681.7644553531438
 20
-111.9926163216038
 30
0.0
 40
3.449999999999477
100
AcDbArc
 50
270.0
 51
-0.000000000000014
  0
LINE
  5
203
330
66
100
AcDbEntity
  8
PKG-OUT
  6
ByBlock
370
    -2
100
AcDbLine
 10
758.8144553531458
 20
-66.68261632160323
 30
0.0
 11
758.8144553531458
 21
-111.9926163216038
 31
0.0
  0
LWPOLYLINE
  5
204
330
66
100
AcDbEntity
  8
PKG-OUT
100
AcDbPolyline
 90
        4
 70
     1
 43
0.0
 10
790.3244553531407
 20
-54.83761632160355
 10
721.3244553531406
 20
-54.83761632160355
 10
721.3244553531406
 20
-123.8376163216035
 10
790.3244553531407
 20
-123.8376163216035
  0
LWPOLYLINE
  5
205
330
66
100
AcDbEntity
  8
LF-LINE
100
AcDbPolyline
 90
        6
 70
     0
 43
0.0
 10
742.0244553531453
 20
-52.53761632160302
 10
742.0244553531453
 20
-58.28761632160302
 10
729.3744553531438
 20
-58.28761632160302
 42
0.4142135623730914
 10
725.9244553531443
 20
-61.73761632160386
 10
725.9244553531443
 20
-86.46261632160616
 10
719.0244553531428
 20
-86.46261632160355
  0
LWPOLYLINE
  5
206
330
66
100
AcDbEntity
  8
LF-LINE
100
AcDbPolyline
 90
        8
 70
     0
 43
0.0
 10
747.7744553531453
 20
-52.53761632160302
 10
747.7744553531453
 20
-58.28761632160302
 10
762.7244553531449
 20
-58.28761632160302
 42
-0.4142135623730951
 10
766.1744553531443
 20
-61.73761632160386
 10
766.1744553531443
 20
-116.937616321602
 42
-0.4142135623730914
 10
762.7244553531449
 20
-120.3876163216014
 10
747.7744553531453
 20
-120.387616321604
 10
747.7744553531453
 20
-126.1376163216014
  0
LWPOLYLINE
  5
207
330
66
100
AcDbEntity
  8
LF-LINE
100
AcDbPolyline
 90
        8
 70
     0
 43
0.0
 10
775.3744553531438
 20
-126.137616321604
 10
775.3744553531438
 20
-120.3876163216014
 10
774.2244553531449
 20
-120.3876163216014
 42
-0.4142135623730951
 10
770.7744553531454
 20
-116.937616321602
 10
770.7744553531427
 20
-61.7376163216025
 42
-0.4142135623730914
 10
774.2244553531449
 20
-58.28761632160177
 10
775.3744553531438
 20
-58.28761632160041
 10
775.3744553531438
 20
-52.53761632160302
  0
LWPOLYLINE
  5
208
330
66
100
AcDbEntity
  8
LF-LINE
100
AcDbPolyline
 90
        6
 70
     0
 43
0.0
 10
781.1244553531438
 20
-52.53761632160302
 10
781.1244553531438
 20
-58.28761632160041
 10
782.2744553531427
 20
-58.28761632160177
 42
-0.4142135623730953
 10
785.7244553531423
 20
-61.73761632160386
 10
785.7244553531423
 20
-86.46261632160616
 10
792.6244553531412
 20
-86.46261632160616
  0
LINE
  5
209
330
66
100
AcDbEntity
  8
PKG-OUT
  6
ByBlock
100
AcDbLine
 10
774.6844553531444
 20
-66.68261632160323
 30
0.0
 11
774.6844553531392
 21
-111.9926163216038
 31
0.0
  0
LINE
  5
20A
330
66
100
AcDbEntity
  8
PKG-OUT
100
AcDbLine
 10
785.7244553531423
 20
-86.46261632160616
 30
0.0
 11
785.7244553531423
 21
-92.21261632160224
 31
0.0
  0
LWPOLYLINE
  5
20B
330
66
100
AcDbEntity
  8
LF-LINE
100
AcDbPolyline
 90
        6
 70
     0
 43
0.0
 10
781.1244553531438
 20
-126.137616321604
 10
781.1244553531438
 20
-120.3876163216014
 10
782.2744553531427
 20
-120.3876163216014
 42
0.4142135623730914
 10
785.7244553531423
 20
-116.937616321602
 10
785.7244553531423
 20
-92.21261632160224
 10
792.6244553531386
 20
-92.21261632160485
  0
LINE
  5
20C
330
66
100
AcDbEntity
  8
PKG-OUT
  6
ByBlock
100
AcDbLine
 10
725.9244553531443
 20
-115.4426163216007
 30
0.0
 11
755.3644553531437
 21
-115.4426163216033
 31
0.0
  0
ARC
  5
20D
330
66
100
AcDbEntity
  8
PKG-OUT
  6
ByBlock
100
AcDbCircle
 10
755.3644553531437
 20
-111.9926163216038
 30
0.0
 40
3.449999999999477
100
AcDbArc
 50
270.0
 51
-0.000000000000014
  0
LINE
  5
20E
330
66
100
AcDbEntity
  8
PKG-OUT
100
AcDbLine
 10
725.9244553531443
 20
-86.46261632160616
 30
0.0
 11
725.9244553531443
 21
-92.21261632160224
 31
0.0
  0
LWPOLYLINE
  5
20F
330
66
100
AcDbEntity
  8
LF-LINE
100
AcDbPolyline
 90
        6
 70
     0
 43
0.0
 10
719.0244553531428
 20
-92.21261632160224
 10
725.9244553531443
 20
-92.21261632160224
 10
725.9244553531443
 20
-116.9376163216046
 42
0.4142135623730914
 10
729.3744553531438
 20
-120.387616321604
 10
742.0244553531428
 20
-120.387616321604
 10
742.0244553531453
 20
-126.1376163216014
  0
LINE
  5
210
330
66
100
AcDbEntity
  8
PKG-OUT
  6
ByBlock
370
    -2
100
AcDbLine
 10
784.9577886864762
 20
-115.4426163216046
 30
0.0
 11
778.6649235995757
 21
-115.4426163216046
 31
0.0
  0
ARC
  5
211
330
66
100
AcDbEntity
  8
PKG-OUT
  6
ByBlock
100
AcDbCircle
 10
778.1344553531413
 20
-111.9926163216038
 30
0.0
 40
3.450000000002091
100
AcDbArc
 50
180.0
 51
270.0
  0
LINE
  5
212
330
66
100
AcDbEntity
  8
PKG-OUT
  6
ByBlock
100
AcDbLine
 10
778.1344553531413
 20
-115.4426163216046
 30
0.0
 11
785.7244553531423
 21
-115.4426163216046
 31
0.0
  0
LINE
  5
213
330
66
100
AcDbEntity
  8
CEN
 48
0.01
100
AcDbLine
 10
682.2244553531383
 20
-212.4037103566949
 30
0.0
 11
682.2244553531438
 21
-187.0715222865189
 31
0.0
  0
LINE
  5
214
330
66
100
AcDbEntity
  8
CEN
 48
0.01
100
AcDbLine
 10
694.8905493882316
 20
-199.7376163216066
 30
0.0
 11
669.5583613180506
 21
-199.7376163216015
 31
0.0
  0
LINE
  5
215
330
66
100
AcDbEntity
  8
CEN
 48
0.01
100
AcDbLine
 10
755.8244553531383
 20
-212.4037103566949
 30
0.0
 11
755.8244553531435
 21
-187.0715222865189
 31
0.0
  0
LINE
  5
216
330
66
100
AcDbEntity
  8
CEN
 48
0.01
100
AcDbLine
 10
768.4905493882313
 20
-199.7376163216066
 30
0.0
 11
743.15836131805
 21
-199.7376163216015
 31
0.0
  0
POINT
  5
217
330
66
100
AcDbEntity
  8
DIM
 62
     7
100
AcDbPoint
 10
669.5583613180506
 20
-199.7376163216015
 30
0.0
  0
LINE
  5
218
330
66
100
AcDbEntity
  8
DIM
 62
     7
370
    -2
100
AcDbLine
 10
668.5583613180506
 20
-199.7376163216015
 30
0.0
 11
614.0497482386527
 21
-199.7376163216015
 31
0.0
  0
LINE
  5
219
330
66
100
AcDbEntity
  8
PKG-OUT
  6
ByBlock
370
    -2
100
AcDbLine
 10
685.2144553531461
 20
-177.0826163216037
 30
0.0
 11
685.2144553531461
 21
-222.3926163216044
 31
0.0
  0
LWPOLYLINE
  5
21A
330
66
100
AcDbEntity
  8
PKG-OUT
100
AcDbPolyline
 90
        4
 70
     1
 43
0.0
 10
716.724455353141
 20
-165.237616321604
 10
647.724455353141
 20
-165.237616321604
 10
647.724455353141
 20
-234.2376163216041
 10
716.724455353141
 20
-234.2376163216041
  0
LINE
  5
21B
330
66
100
AcDbEntity
  8
PKG-OUT
100
AcDbLine
 10
712.1244553531425
 20
-196.8626163216067
 30
0.0
 11
712.1244553531425
 21
-202.6126163216027
 31
0.0
  0
LWPOLYLINE
  5
21C
330
66
100
AcDbEntity
  8
LF-LINE
100
AcDbPolyline
 90
        6
 70
     0
 43
0.0
 10
668.4244553531457
 20
-162.9376163216035
 10
668.4244553531457
 20
-168.6876163216035
 10
655.7744553531441
 20
-168.6876163216035
 42
0.4142135623730914
 10
652.3244553531447
 20
-172.1376163216044
 10
652.3244553531447
 20
-196.8626163216067
 10
645.4244553531431
 20
-196.862616321604
  0
LWPOLYLINE
  5
21D
330
66
100
AcDbEntity
  8
LF-LINE
100
AcDbPolyline
 90
        8
 70
     0
 43
0.0
 10
674.1744553531457
 20
-162.9376163216035
 10
674.1744553531457
 20
-168.6876163216035
 10
689.1244553531452
 20
-168.6876163216035
 42
-0.4142135623730951
 10
692.5744553531447
 20
-172.1376163216044
 10
692.5744553531447
 20
-227.3376163216025
 42
-0.4142135623730914
 10
689.1244553531452
 20
-230.787616321602
 10
674.1744553531457
 20
-230.7876163216046
 10
674.1744553531457
 20
-236.537616321602
  0
LWPOLYLINE
  5
21E
330
66
100
AcDbEntity
  8
LF-LINE
100
AcDbPolyline
 90
        8
 70
     0
 43
0.0
 10
701.7744553531441
 20
-236.5376163216046
 10
701.7744553531441
 20
-230.787616321602
 10
700.6244553531452
 20
-230.787616321602
 42
-0.4142135623730951
 10
697.1744553531457
 20
-227.3376163216025
 10
697.1744553531431
 20
-172.137616321603
 42
-0.4142135623730914
 10
700.6244553531452
 20
-168.6876163216023
 10
701.7744553531441
 20
-168.6876163216009
 10
701.7744553531441
 20
-162.9376163216035
  0
LWPOLYLINE
  5
21F
330
66
100
AcDbEntity
  8
LF-LINE
100
AcDbPolyline
 90
        6
 70
     0
 43
0.0
 10
707.5244553531441
 20
-162.9376163216035
 10
707.5244553531441
 20
-168.6876163216009
 10
708.6744553531431
 20
-168.6876163216023
 42
-0.4142135623730953
 10
712.1244553531425
 20
-172.1376163216044
 10
712.1244553531425
 20
-196.8626163216067
 10
719.0244553531415
 20
-196.8626163216067
  0
LWPOLYLINE
  5
220
330
66
100
AcDbEntity
  8
LF-LINE
100
AcDbPolyline
 90
        6
 70
     0
 43
0.0
 10
707.5244553531441
 20
-236.5376163216046
 10
707.5244553531441
 20
-230.787616321602
 10
708.6744553531431
 20
-230.787616321602
 42
0.4142135623730914
 10
712.1244553531425
 20
-227.3376163216025
 10
712.1244553531425
 20
-202.6126163216027
 10
719.0244553531389
 20
-202.6126163216054
  0
LINE
  5
221
330
66
100
AcDbEntity
  8
PKG-OUT
  6
ByBlock
100
AcDbLine
 10
701.0844553531447
 20
-177.0826163216037
 30
0.0
 11
701.0844553531395
 21
-222.3926163216044
 31
0.0
  0
LINE
  5
222
330
66
100
AcDbEntity
  8
PKG-OUT
  6
ByBlock
370
    -2
100
AcDbLine
 10
758.814455353146
 20
-177.0826163216037
 30
0.0
 11
758.814455353146
 21
-222.3926163216044
 31
0.0
  0
LWPOLYLINE
  5
223
330
66
100
AcDbEntity
  8
PKG-OUT
100
AcDbPolyline
 90
        4
 70
     1
 43
0.0
 10
790.3244553531409
 20
-165.237616321604
 10
721.3244553531409
 20
-165.237616321604
 10
721.3244553531409
 20
-234.2376163216041
 10
790.3244553531409
 20
-234.2376163216041
  0
LWPOLYLINE
  5
224
330
66
100
AcDbEntity
  8
LF-LINE
100
AcDbPolyline
 90
        6
 70
     0
 43
0.0
 10
742.0244553531456
 20
-162.9376163216035
 10
742.0244553531456
 20
-168.6876163216035
 10
729.374455353144
 20
-168.6876163216035
 42
0.4142135623730914
 10
725.9244553531446
 20
-172.1376163216044
 10
725.9244553531446
 20
-196.8626163216067
 10
719.024455353143
 20
-196.862616321604
  0
LWPOLYLINE
  5
225
330
66
100
AcDbEntity
  8
LF-LINE
100
AcDbPolyline
 90
        8
 70
     0
 43
0.0
 10
747.7744553531456
 20
-162.9376163216035
 10
747.7744553531456
 20
-168.6876163216035
 10
762.7244553531451
 20
-168.6876163216035
 42
-0.4142135623730951
 10
766.1744553531446
 20
-172.1376163216044
 10
766.1744553531446
 20
-227.3376163216025
 42
-0.4142135623730914
 10
762.7244553531451
 20
-230.787616321602
 10
747.7744553531456
 20
-230.7876163216046
 10
747.7744553531456
 20
-236.537616321602
  0
LWPOLYLINE
  5
226
330
66
100
AcDbEntity
  8
LF-LINE
100
AcDbPolyline
 90
        8
 70
     0
 43
0.0
 10
775.3744553531441
 20
-236.5376163216046
 10
775.3744553531441
 20
-230.787616321602
 10
774.2244553531451
 20
-230.787616321602
 42
-0.4142135623730951
 10
770.7744553531456
 20
-227.3376163216025
 10
770.774455353143
 20
-172.137616321603
 42
-0.4142135623730914
 10
774.2244553531451
 20
-168.6876163216023
 10
775.3744553531441
 20
-168.6876163216009
 10
775.3744553531441
 20
-162.9376163216035
  0
LWPOLYLINE
  5
227
330
66
100
AcDbEntity
  8
LF-LINE
100
AcDbPolyline
 90
        6
 70
     0
 43
0.0
 10
781.124455353144
 20
-162.9376163216035
 10
781.124455353144
 20
-168.6876163216009
 10
782.274455353143
 20
-168.6876163216023
 42
-0.4142135623730953
 10
785.7244553531424
 20
-172.1376163216044
 10
785.7244553531424
 20
-196.8626163216067
 10
792.6244553531414
 20
-196.8626163216067
  0
LINE
  5
228
330
66
100
AcDbEntity
  8
PKG-OUT
  6
ByBlock
100
AcDbLine
 10
774.6844553531446
 20
-177.0826163216037
 30
0.0
 11
774.6844553531395
 21
-222.3926163216044
 31
0.0
  0
LINE
  5
229
330
66
100
AcDbEntity
  8
PKG-OUT
100
AcDbLine
 10
785.7244553531424
 20
-196.8626163216067
 30
0.0
 11
785.7244553531424
 21
-202.6126163216027
 31
0.0
  0
LWPOLYLINE
  5
22A
330
66
100
AcDbEntity
  8
LF-LINE
100
AcDbPolyline
 90
        6
 70
     0
 43
0.0
 10
781.124455353144
 20
-236.5376163216046
 10
781.124455353144
 20
-230.787616321602
 10
782.274455353143
 20
-230.787616321602
 42
0.4142135623730914
 10
785.7244553531424
 20
-227.3376163216025
 10
785.7244553531424
 20
-202.6126163216027
 10
792.6244553531388
 20
-202.6126163216054
  0
LINE
  5
22B
330
66
100
AcDbEntity
  8
PKG-OUT
100
AcDbLine
 10
725.9244553531446
 20
-196.8626163216067
 30
0.0
 11
725.9244553531446
 21
-202.6126163216027
 31
0.0
  0
LWPOLYLINE
  5
22C
330
66
100
AcDbEntity
  8
LF-LINE
100
AcDbPolyline
 90
        6
 70
     0
 43
0.0
 10
719.024455353143
 20
-202.6126163216027
 10
725.9244553531446
 20
-202.6126163216027
 10
725.9244553531446
 20
-227.3376163216051
 42
0.4142135623730914
 10
729.374455353144
 20
-230.7876163216046
 10
742.024455353143
 20
-230.7876163216046
 10
742.0244553531456
 20
-236.537616321602
  0
LINE
  5
22D
330
66
100
AcDbEntity
  8
PKG-OUT
100
AcDbLine
 10
652.3244553531447
 20
-196.8626163216067
 30
0.0
 11
652.3244553531447
 21
-202.6126163216027
 31
0.0
  0
LWPOLYLINE
  5
22E
330
66
100
AcDbEntity
  8
LF-LINE
100
AcDbPolyline
 90
        6
 70
     0
 43
0.0
 10
645.4244553531431
 20
-202.6126163216027
 10
652.3244553531447
 20
-202.6126163216027
 10
652.3244553531447
 20
-227.3376163216051
 42
0.4142135623730914
 10
655.7744553531441
 20
-230.7876163216046
 10
668.424455353143
 20
-230.7876163216046
 10
668.4244553531457
 20
-236.537616321602
  0
LINE
  5
22F
330
66
100
AcDbEntity
  8
PKG-OUT
  6
ByBlock
370
    -2
100
AcDbLine
 10
711.3577886864766
 20
-225.8426163216052
 30
0.0
 11
705.0649235995761
 21
-225.8426163216052
 31
0.0
  0
ARC
  5
230
330
66
100
AcDbEntity
  8
PKG-OUT
  6
ByBlock
100
AcDbCircle
 10
704.5344553531416
 20
-222.3926163216044
 30
0.0
 40
3.450000000002091
100
AcDbArc
 50
180.0
 51
270.0
  0
LINE
  5
231
330
66
100
AcDbEntity
  8
PKG-OUT
  6
ByBlock
100
AcDbLine
 10
704.5344553531416
 20
-225.8426163216052
 30
0.0
 11
712.1244553531425
 21
-225.8426163216052
 31
0.0
  0
LINE
  5
232
330
66
100
AcDbEntity
  8
PKG-OUT
  6
ByBlock
100
AcDbLine
 10
652.3244553531447
 20
-225.8426163216012
 30
0.0
 11
681.764455353144
 21
-225.8426163216038
 31
0.0
  0
ARC
  5
233
330
66
100
AcDbEntity
  8
PKG-OUT
  6
ByBlock
100
AcDbCircle
 10
681.764455353144
 20
-222.3926163216044
 30
0.0
 40
3.449999999999477
100
AcDbArc
 50
270.0
 51
-0.000000000000014
  0
LINE
  5
234
330
66
100
AcDbEntity
  8
PKG-OUT
  6
ByBlock
100
AcDbLine
 10
725.9244553531446
 20
-225.8426163216012
 30
0.0
 11
755.3644553531439
 21
-225.8426163216038
 31
0.0
  0
ARC
  5
235
330
66
100
AcDbEntity
  8
PKG-OUT
  6
ByBlock
100
AcDbCircle
 10
755.3644553531439
 20
-222.3926163216044
 30
0.0
 40
3.449999999999477
100
AcDbArc
 50
270.0
 51
-0.000000000000014
  0
LINE
  5
236
330
66
100
AcDbEntity
  8
PKG-OUT
  6
ByBlock
370
    -2
100
AcDbLine
 10
784.9577886864765
 20
-225.8426163216052
 30
0.0
 11
778.664923599576
 21
-225.8426163216052
 31
0.0
  0
ARC
  5
237
330
66
100
AcDbEntity
  8
PKG-OUT
  6
ByBlock
100
AcDbCircle
 10
778.1344553531416
 20
-222.3926163216044
 30
0.0
 40
3.450000000002091
100
AcDbArc
 50
180.0
 51
270.0
  0
LINE
  5
238
330
66
100
AcDbEntity
  8
PKG-OUT
  6
ByBlock
100
AcDbLine
 10
778.1344553531416
 20
-225.8426163216052
 30
0.0
 11
785.7244553531424
 21
-225.8426163216052
 31
0.0
  0
POINT
  5
239
330
66
100
AcDbEntity
  8
PKG-OUT
100
AcDbPoint
 10
685.2144553531459
 20
-66.68261632160323
 30
0.0
  0
ARC
  5
23A
330
66
100
AcDbEntity
  8
PKG-OUT
  6
ByBlock
100
AcDbCircle
 10
681.7644553531464
 20
-66.6826163216046
 30
0.0
 40
3.449999999999477
100
AcDbArc
 50
0.0000000000226566
 51
90.00000000004437
  0
LINE
  5
23B
330
66
100
AcDbEntity
  8
PKG-OUT
  6
ByBlock
100
AcDbLine
 10
681.7644553531438
 20
-63.23261632160376
 30
0.0
 11
652.3244553531444
 21
-63.23261632160376
 31
0.0
  0
LINE
  5
23C
330
66
100
AcDbEntity
  8
PKG-OUT
  6
ByBlock
100
AcDbLine
 10
712.1244553531449
 20
-63.23261632160114
 30
0.0
 11
704.534455353144
 21
-63.23261632160376
 31
0.0
  0
ARC
  5
23D
330
66
100
AcDbEntity
  8
PKG-OUT
  6
ByBlock
100
AcDbCircle
 10
704.534455353144
 20
-66.68261632160323
 30
0.0
 40
3.449999999999477
100
AcDbArc
 50
90.0
 51
180.0
  0
ARC
  5
23E
330
66
100
AcDbEntity
  8
PKG-OUT
  6
ByBlock
100
AcDbCircle
 10
755.3644553531463
 20
-66.6826163216046
 30
0.0
 40
3.449999999999477
100
AcDbArc
 50
0.0000000000226566
 51
90.00000000004437
  0
LINE
  5
23F
330
66
100
AcDbEntity
  8
PKG-OUT
  6
ByBlock
100
AcDbLine
 10
755.3644553531437
 20
-63.23261632160376
 30
0.0
 11
725.9244553531443
 21
-63.23261632160376
 31
0.0
  0
LINE
  5
240
330
66
100
AcDbEntity
  8
PKG-OUT
  6
ByBlock
100
AcDbLine
 10
785.7244553531448
 20
-63.23261632160114
 30
0.0
 11
778.134455353144
 21
-63.23261632160376
 31
0.0
  0
ARC
  5
241
330
66
100
AcDbEntity
  8
PKG-OUT
  6
ByBlock
100
AcDbCircle
 10
778.134455353144
 20
-66.68261632160323
 30
0.0
 40
3.449999999999477
100
AcDbArc
 50
90.0
 51
180.0
  0
LINE
  5
242
330
66
100
AcDbEntity
  8
PKG-OUT
  6
ByBlock
100
AcDbLine
 10
712.1244553531452
 20
-173.6326163216016
 30
0.0
 11
704.5344553531442
 21
-173.6326163216042
 31
0.0
  0
ARC
  5
243
330
66
100
AcDbEntity
  8
PKG-OUT
  6
ByBlock
100
AcDbCircle
 10
704.5344553531442
 20
-177.0826163216037
 30
0.0
 40
3.449999999999477
100
AcDbArc
 50
90.0
 51
180.0
  0
ARC
  5
244
330
66
100
AcDbEntity
  8
PKG-OUT
  6
ByBlock
100
AcDbCircle
 10
681.7644553531466
 20
-177.0826163216051
 30
0.0
 40
3.449999999999477
100
AcDbArc
 50
0.0000000000226566
 51
90.00000000004437
  0
LINE
  5
245
330
66
100
AcDbEntity
  8
PKG-OUT
  6
ByBlock
100
AcDbLine
 10
681.764455353144
 20
-173.6326163216042
 30
0.0
 11
652.3244553531447
 21
-173.6326163216042
 31
0.0
  0
LINE
  5
246
330
66
100
AcDbEntity
  8
PKG-OUT
  6
ByBlock
100
AcDbLine
 10
785.7244553531451
 20
-173.6326163216016
 30
0.0
 11
778.1344553531441
 21
-173.6326163216042
 31
0.0
  0
ARC
  5
247
330
66
100
AcDbEntity
  8
PKG-OUT
  6
ByBlock
100
AcDbCircle
 10
778.1344553531441
 20
-177.0826163216037
 30
0.0
 40
3.449999999999477
100
AcDbArc
 50
90.0
 51
180.0
  0
ARC
  5
248
330
66
100
AcDbEntity
  8
PKG-OUT
  6
ByBlock
100
AcDbCircle
 10
755.3644553531466
 20
-177.0826163216051
 30
0.0
 40
3.449999999999477
100
AcDbArc
 50
0.0000000000226566
 51
90.00000000004437
  0
LINE
  5
249
330
66
100
AcDbEntity
  8
PKG-OUT
  6
ByBlock
100
AcDbLine
 10
755.3644553531439
 20
-173.6326163216042
 30
0.0
 11
725.9244553531446
 21
-173.6326163216042
 31
0.0
  0
HATCH
  5
24A
330
66
100
AcDbEntity
  8
PKG-OUT
100
AcDbHatch
 10
0.0
 20
0.0
 30
0.0
210
0.0
220
0.0
230
1.0
  2
ANSI31
 70
     0
 71
     0
 91
       24
 92
        6
 72
     0
 73
     1
 93
        4
 10
790.3244553531407
 20
-86.46261632160616
 10
785.7244553531423
 20
-86.46261632160616
 10
785.7244553531423
 20
-92.21261632160224
 10
790.3244553531407
 20
-92.21261632160224
 97
        0
 92
        6
 72
     0
 73
     1
 93
        4
 10
721.3244553531406
 20
-92.21261632160224
 10
725.9244553531443
 20
-92.21261632160224
 10
725.9244553531443
 20
-86.46261632160616
 10
721.3244553531406
 20
-86.46261632160616
 97
        0
 92
        7
 72
     0
 73
     1
 93
        4
 10
747.7744553531453
 20
-52.53761632160302
 10
742.0244553531453
 20
-52.53761632160302
 10
742.0244553531453
 20
-54.83761632160355
 10
747.7744553531453
 20
-54.83761632160355
 97
        0
 92
        6
 72
     1
 73
     1
 93
       24
 10
775.3744553531438
 20
-123.8376163216035
 42
0.0
 10
781.1244553531438
 20
-123.8376163216035
 42
0.0
 10
781.1244553531438
 20
-120.3876163216014
 42
0.0
 10
782.2744553531427
 20
-120.3876163216014
 42
0.4142135623730914
 10
785.7244553531423
 20
-116.937616321602
 42
0.0
 10
785.7244553531423
 20
-115.4426163216046
 42
0.0
 10
784.9577886864762
 20
-115.4426163216046
 42
0.0
 10
778.6649235995757
 20
-115.4426163216046
 42
0.0
 10
778.1344553531413
 20
-115.4426163216059
 42
-0.4142135623730951
 10
774.6844553531392
 20
-111.9926163216038
 42
0.0
 10
774.6844553531444
 20
-66.68261632160323
 42
-0.4142135623730951
 10
778.134455353144
 20
-63.23261632160376
 42
0.0
 10
785.7244553531423
 20
-63.23261632160114
 42
0.0
 10
785.7244553531423
 20
-61.73761632160386
 42
0.4142135623730953
 10
782.2744553531427
 20
-58.28761632160177
 42
0.0
 10
781.1244553531438
 20
-58.28761632160041
 42
0.0
 10
781.1244553531438
 20
-54.83761632160355
 42
0.0
 10
775.3744553531438
 20
-54.83761632160355
 42
0.0
 10
775.3744553531438
 20
-58.28761632160041
 42
0.0
 10
774.2244553531449
 20
-58.28761632160177
 42
0.4142135623730914
 10
770.7744553531427
 20
-61.7376163216025
 42
0.0
 10
770.7744553531454
 20
-116.937616321602
 42
0.4142135623730951
 10
774.2244553531449
 20
-120.3876163216014
 42
0.0
 10
775.3744553531438
 20
-120.3876163216014
 42
0.0
 97
        0
 92
        6
 72
     0
 73
     1
 93
        4
 10
775.3744553531438
 20
-54.83761632160355
 10
781.1244553531438
 20
-54.83761632160355
 10
781.1244553531438
 20
-52.53761632160302
 10
775.3744553531438
 20
-52.53761632160302
 97
        0
 92
        6
 72
     0
 73
     1
 93
        6
 10
716.7244553531408
 20
-86.46261632160616
 10
716.7244553531408
 20
-92.212616321604
 10
719.0244553531428
 20
-92.21261632160224
 10
721.3244553531406
 20
-92.21261632160224
 10
721.3244553531406
 20
-86.4626163216044
 10
719.0244553531413
 20
-86.46261632160616
 97
        0
 92
        6
 72
     0
 73
     1
 93
        4
 10
716.7244553531408
 20
-86.46261632160616
 10
712.1244553531424
 20
-86.46261632160616
 10
712.1244553531424
 20
-92.21261632160224
 10
716.7244553531408
 20
-92.21261632160224
 97
        0
 92
        7
 72
     0
 73
     1
 93
        6
 10
781.124455353144
 20
-133.0376163216096
 10
781.1244553531438
 20
-126.137616321604
 10
781.1244553531438
 20
-123.8376163216035
 10
775.3744553531438
 20
-123.8376163216035
 10
775.374455353145
 20
-126.1376163216042
 10
775.3744553531453
 20
-133.0376163216101
 97
        0
 92
        6
 72
     0
 73
     1
 93
        6
 10
707.5244553531442
 20
-133.0376163216096
 10
707.5244553531439
 20
-126.137616321604
 10
707.5244553531439
 20
-123.8376163216035
 10
701.7744553531439
 20
-123.8376163216035
 10
701.7744553531453
 20
-126.1376163216042
 10
701.7744553531456
 20
-133.0376163216101
 97
        0
 92
        6
 72
     1
 73
     1
 93
       24
 10
701.7744553531439
 20
-54.83761632160355
 42
0.0
 10
701.7744553531439
 20
-58.28761632160041
 42
0.0
 10
700.6244553531449
 20
-58.28761632160177
 42
0.4142135623730914
 10
697.1744553531428
 20
-61.7376163216025
 42
0.0
 10
697.1744553531455
 20
-116.937616321602
 42
0.4142135623730951
 10
700.6244553531449
 20
-120.3876163216014
 42
0.0
 10
701.7744553531439
 20
-120.3876163216014
 42
0.0
 10
701.7744553531439
 20
-123.8376163216035
 42
0.0
 10
707.5244553531439
 20
-123.8376163216035
 42
0.0
 10
707.5244553531439
 20
-120.3876163216014
 42
0.0
 10
708.6744553531429
 20
-120.3876163216014
 42
0.4142135623730914
 10
712.1244553531424
 20
-116.937616321602
 42
0.0
 10
712.1244553531424
 20
-115.4426163216046
 42
0.0
 10
711.3577886864764
 20
-115.4426163216046
 42
0.0
 10
705.0649235995758
 20
-115.4426163216046
 42
0.0
 10
704.5344553531414
 20
-115.4426163216059
 42
-0.4142135623730951
 10
701.0844553531393
 20
-111.9926163216038
 42
0.0
 10
701.0844553531446
 20
-66.68261632160323
 42
-0.4142135623730951
 10
704.534455353144
 20
-63.23261632160376
 42
0.0
 10
712.1244553531424
 20
-63.23261632160114
 42
0.0
 10
712.1244553531424
 20
-61.73761632160386
 42
0.4142135623730953
 10
708.6744553531429
 20
-58.28761632160177
 42
0.0
 10
707.5244553531439
 20
-58.28761632160041
 42
0.0
 10
707.5244553531439
 20
-54.83761632160355
 42
0.0
 97
        0
 92
        6
 72
     0
 73
     1
 93
        4
 10
707.5244553531439
 20
-54.83761632160355
 10
707.5244553531439
 20
-52.53761632160302
 10
701.7744553531439
 20
-52.53761632160302
 10
701.7744553531439
 20
-54.83761632160355
 97
        0
 92
        6
 72
     0
 73
     1
 93
        4
 10
674.1744553531455
 20
-54.83761632160355
 10
674.1744553531455
 20
-52.53761632160302
 10
668.4244553531454
 20
-52.53761632160302
 10
668.4244553531454
 20
-54.83761632160355
 97
        0
 92
        6
 72
     0
 73
     1
 93
        4
 10
652.3244553531444
 20
-86.46261632160616
 10
647.7244553531408
 20
-86.46261632160616
 10
647.7244553531408
 20
-89.33761632160098
 10
652.3244553531444
 20
-89.33761632160098
 97
        0
 92
        6
 72
     0
 73
     1
 93
        4
 10
647.7244553531408
 20
-92.21261632160224
 10
652.3244553531444
 20
-92.21261632160224
 10
652.3244553531444
 20
-89.33761632160098
 10
647.7244553531408
 20
-89.33761632160098
 97
        0
 92
        6
 72
     0
 73
     1
 93
        5
 10
671.2738725924905
 20
-123.8376163216035
 10
668.4244553531445
 20
-123.8376163216035
 10
668.4244553531454
 20
-126.1376163216014
 10
668.4244553531458
 20
-133.0376163216116
 10
671.2738725924905
 20
-133.0376163216124
 97
        0
 92
        6
 72
     1
 73
     1
 93
        7
 10
671.2738725924905
 20
-115.4426163216024
 42
0.0
 10
652.3244553531444
 20
-115.4426163216007
 42
0.0
 10
652.3244553531444
 20
-116.9376163216046
 42
0.4142135623730914
 10
655.7744553531439
 20
-120.3876163216066
 42
0.0
 10
668.4244553531429
 20
-120.387616321604
 42
0.0
 10
668.4244553531429
 20
-123.8376163216035
 42
0.0
 10
671.2738725924905
 20
-123.8376163216035
 42
0.0
 97
        0
 92
        6
 72
     0
 73
     1
 93
        5
 10
638.5244553531408
 20
-89.33761632160098
 10
647.7244553531408
 20
-89.33761632160098
 10
647.7244553531408
 20
-86.4626163216044
 10
645.4244553531431
 20
-86.46261632160326
 10
638.5244553531408
 20
-86.46261632160326
 97
        0
 92
        6
 72
     0
 73
     1
 93
        5
 10
638.5244553531421
 20
-92.21261632160224
 10
645.4244553531428
 20
-92.21261632160224
 10
647.7244553531408
 20
-92.21261632160224
 10
647.7244553531408
 20
-89.33761632160098
 10
638.5244553531408
 20
-89.33761632160098
 97
        0
 92
        6
 72
     0
 73
     1
 93
        6
 10
747.7744553531453
 20
-123.8376163216035
 10
742.0244553531444
 20
-123.8376163216035
 10
742.0244553531452
 20
-126.1376163216014
 10
742.0244553531456
 20
-133.0376163216116
 10
747.7744553531466
 20
-133.0376163216104
 10
747.7744553531453
 20
-126.1376163216014
 97
        0
 92
        6
 72
     1
 73
     1
 93
       13
 10
758.8144553531432
 20
-111.9926163216038
 42
-0.4142135623730951
 10
755.3644553531437
 20
-115.4426163216033
 42
0.0
 10
725.9244553531443
 20
-115.4426163216007
 42
0.0
 10
725.9244553531443
 20
-116.9376163216046
 42
0.4142135623730914
 10
729.3744553531438
 20
-120.387616321604
 42
0.0
 10
742.0244553531428
 20
-120.387616321604
 42
0.0
 10
742.0244553531428
 20
-123.8376163216035
 42
0.0
 10
747.7744553531453
 20
-123.8376163216035
 42
0.0
 10
747.7744553531453
 20
-120.387616321604
 42
0.0
 10
762.7244553531449
 20
-120.3876163216014
 42
0.4142135623730914
 10
766.1744553531443
 20
-116.937616321602
 42
0.0
 10
766.1744553531388
 20
-89.33761632160566
 42
0.0
 10
758.8144553531458
 20
-89.33761632160416
 42
0.0
 97
        0
 92
        6
 72
     1
 73
     1
 93
       13
 10
758.8144553531413
 20
-89.33761632160416
 42
0.0
 10
766.1744553531443
 20
-89.33761632160566
 42
0.0
 10
766.1744553531443
 20
-61.73761632160386
 42
0.4142135623730951
 10
762.7244553531449
 20
-58.28761632160302
 42
0.0
 10
747.7744553531453
 20
-58.28761632160302
 42
0.0
 10
747.7744553531453
 20
-54.83761632160355
 42
0.0
 10
742.0244553531453
 20
-54.83761632160355
 42
0.0
 10
742.0244553531453
 20
-58.28761632160302
 42
0.0
 10
729.3744553531438
 20
-58.28761632160302
 42
0.4142135623730914
 10
725.9244553531443
 20
-61.73761632160386
 42
0.0
 10
725.9244553531443
 20
-63.23261632160376
 42
0.0
 10
755.3644553531437
 20
-63.23261632160512
 42
-0.4142135623732061
 10
758.8144553531458
 20
-66.68261632160323
 42
0.0
 97
        0
 92
        6
 72
     0
 73
     1
 93
        5
 10
674.1744553531455
 20
-123.8376163216035
 10
671.2738725924905
 20
-123.8376163216035
 10
671.2738725924905
 20
-133.0376163216115
 10
674.1744553531468
 20
-133.0376163216104
 10
674.1744553531455
 20
-126.1376163216014
 97
        0
 92
        6
 72
     1
 73
     1
 93
       10
 10
685.2144553531433
 20
-111.9926163216038
 42
-0.4142135623730951
 10
681.7644553531438
 20
-115.4426163216033
 42
0.0
 10
671.2738725924905
 20
-115.4426163216007
 42
0.0
 10
671.2738725924905
 20
-123.8376163216035
 42
0.0
 10
674.1744553531455
 20
-123.8376163216035
 42
0.0
 10
674.1744553531455
 20
-120.387616321604
 42
0.0
 10
689.124455353145
 20
-120.3876163216014
 42
0.4142135623730914
 10
692.5744553531444
 20
-116.937616321602
 42
0.0
 10
692.5744553531388
 20
-89.33761632160566
 42
0.0
 10
685.2144553531459
 20
-89.33761632160416
 42
0.0
 97
        0
 92
        6
 72
     1
 73
     1
 93
       13
 10
685.2144553531413
 20
-89.33761632160416
 42
0.0
 10
692.5744553531444
 20
-89.33761632160566
 42
0.0
 10
692.5744553531444
 20
-61.73761632160386
 42
0.4142135623730951
 10
689.124455353145
 20
-58.28761632160302
 42
0.0
 10
674.1744553531455
 20
-58.28761632160302
 42
0.0
 10
674.1744553531455
 20
-54.83761632160355
 42
0.0
 10
668.4244553531454
 20
-54.83761632160355
 42
0.0
 10
668.4244553531454
 20
-58.28761632160302
 42
0.0
 10
655.7744553531439
 20
-58.28761632160302
 42
0.4142135623730914
 10
652.324455353145
 20
-61.73761632160381
 42
0.0
 10
652.3244553531444
 20
-63.23261632160376
 42
0.0
 10
681.7644553531438
 20
-63.23261632160512
 42
-0.4142135623732061
 10
685.2144553531459
 20
-66.68261632160323
 42
0.0
 97
        0
 75
     0
 76
     1
 52
0.0
 41
10.0
 77
     0
 78
     1
 53
45.0
 43
0.0
 44
0.0
 45
-0.8838834764831842
 46
0.8838834764831844
 79
     0
 47
0.0
 98
       32
 10
0.0
 20
0.0
 10
0.0
 20
0.0
 10
-5.0
 20
-392.0
 10
-5.0
 20
-392.0
 10
-5.0
 20
-392.0
 10
-5.0
 20
-392.0
 10
-5.0
 20
-392.0
 10
-5.0
 20
-392.0
 10
787.6644943073621
 20
-89.41514879874967
 10
723.6686573811623
 20
-90.12358979793271
 10
745.1580343563807
 20
-53.52080484014312
 10
772.7872333245187
 20
-107.5984677777806
 10
779.1632023171659
 20
-53.99309883959848
 10
718.7095703868812
 20
-89.17900179902199
 10
714.6950713915107
 20
-89.65129579847735
 10
779.3993493168935
 20
-128.3794037538159
 10
703.3600154045824
 20
-128.6155507535436
 10
704.7768974029484
 20
-60.6052148319734
 10
703.3600154045824
 20
-54.22924583932616
 10
671.4801704413463
 20
-53.7569518398708
 10
649.9907934661279
 20
-87.76211980065596
 10
649.7546464664002
 20
-90.59588379738801
 10
670.0632884429802
 20
-128.3794037538159
 10
662.7427314514224
 20
-118.2250827655259
 10
644.5594124723913
 20
-88.23441380011127
 10
643.8509714732084
 20
-91.06817779684337
 10
745.6303283558361
 20
-128.6155507535436
 10
764.0497943345947
 20
-103.3478217826824
 10
736.6567423661845
 20
-61.54980283088406
 10
672.424758440257
 20
-128.3794037538159
 10
676.2031104358998
 20
-117.9889357657982
 10
689.6634894203772
 20
-79.9692688096427
  0
HATCH
  5
24B
330
66
100
AcDbEntity
  8
PKG-OUT
100
AcDbHatch
 10
0.0
 20
0.0
 30
0.0
210
0.0
220
0.0
230
1.0
  2
ANSI31
 70
     0
 71
     0
 91
       24
 92
        6
 72
     0
 73
     1
 93
        4
 10
790.3244553531409
 20
-196.8626163216067
 10
785.7244553531424
 20
-196.8626163216067
 10
785.7244553531424
 20
-202.6126163216027
 10
790.3244553531409
 20
-202.6126163216027
 97
        0
 92
        6
 72
     0
 73
     1
 93
        4
 10
721.3244553531409
 20
-202.6126163216027
 10
725.9244553531446
 20
-202.6126163216027
 10
725.9244553531446
 20
-196.8626163216067
 10
721.3244553531409
 20
-196.8626163216067
 97
        0
 92
        7
 72
     0
 73
     1
 93
        4
 10
775.3744553531441
 20
-236.5376163216045
 10
781.124455353144
 20
-236.5376163216046
 10
781.124455353144
 20
-234.2376163216041
 10
775.3744553531441
 20
-234.2376163216041
 97
        0
 92
        6
 72
     1
 73
     1
 93
       24
 10
775.3744553531441
 20
-234.2376163216041
 42
0.0
 10
781.124455353144
 20
-234.2376163216041
 42
0.0
 10
781.124455353144
 20
-230.787616321602
 42
0.0
 10
782.274455353143
 20
-230.787616321602
 42
0.4142135623730914
 10
785.7244553531424
 20
-227.3376163216025
 42
0.0
 10
785.7244553531424
 20
-225.8426163216052
 42
0.0
 10
784.9577886864765
 20
-225.8426163216052
 42
0.0
 10
778.664923599576
 20
-225.8426163216052
 42
0.0
 10
778.1344553531416
 20
-225.8426163216065
 42
-0.4142135623730951
 10
774.6844553531395
 20
-222.3926163216044
 42
0.0
 10
774.6844553531446
 20
-177.0826163216037
 42
-0.4142135623730951
 10
778.1344553531441
 20
-173.6326163216042
 42
0.0
 10
785.7244553531424
 20
-173.6326163216016
 42
0.0
 10
785.7244553531424
 20
-172.1376163216044
 42
0.4142135623730953
 10
782.274455353143
 20
-168.6876163216023
 42
0.0
 10
781.124455353144
 20
-168.6876163216009
 42
0.0
 10
781.124455353144
 20
-165.237616321604
 42
0.0
 10
775.3744553531441
 20
-165.237616321604
 42
0.0
 10
775.3744553531441
 20
-168.6876163216009
 42
0.0
 10
774.2244553531451
 20
-168.6876163216023
 42
0.4142135623730914
 10
770.774455353143
 20
-172.137616321603
 42
0.0
 10
770.7744553531456
 20
-227.3376163216025
 42
0.4142135623730951
 10
774.2244553531451
 20
-230.787616321602
 42
0.0
 10
775.3744553531441
 20
-230.787616321602
 42
0.0
 97
        0
 92
        6
 72
     0
 73
     1
 93
        6
 10
716.724455353141
 20
-202.6126163216045
 10
719.024455353143
 20
-202.6126163216027
 10
721.3244553531409
 20
-202.6126163216027
 10
721.3244553531409
 20
-196.8626163216049
 10
719.0244553531415
 20
-196.8626163216067
 10
716.724455353141
 20
-196.8626163216067
 97
        0
 92
        6
 72
     0
 73
     1
 93
        4
 10
716.724455353141
 20
-196.8626163216067
 10
712.1244553531425
 20
-196.8626163216067
 10
712.1244553531425
 20
-202.6126163216027
 10
716.724455353141
 20
-202.6126163216027
 97
        0
 92
        7
 72
     0
 73
     1
 93
        4
 10
701.7744553531441
 20
-236.5376163216027
 10
707.5244553531441
 20
-236.5376163216046
 10
707.5244553531441
 20
-234.2376163216041
 10
701.7744553531441
 20
-234.2376163216041
 97
        0
 92
        6
 72
     1
 73
     1
 93
       24
 10
701.7744553531441
 20
-234.2376163216041
 42
0.0
 10
707.5244553531441
 20
-234.2376163216041
 42
0.0
 10
707.5244553531441
 20
-230.787616321602
 42
0.0
 10
708.6744553531431
 20
-230.787616321602
 42
0.4142135623730914
 10
712.1244553531425
 20
-227.3376163216025
 42
0.0
 10
712.1244553531425
 20
-225.8426163216052
 42
0.0
 10
711.3577886864766
 20
-225.8426163216052
 42
0.0
 10
705.0649235995761
 20
-225.8426163216052
 42
0.0
 10
704.5344553531416
 20
-225.8426163216065
 42
-0.4142135623730951
 10
701.0844553531395
 20
-222.3926163216044
 42
0.0
 10
701.0844553531447
 20
-177.0826163216037
 42
-0.4142135623730951
 10
704.5344553531442
 20
-173.6326163216042
 42
0.0
 10
712.1244553531425
 20
-173.6326163216016
 42
0.0
 10
712.1244553531425
 20
-172.1376163216044
 42
0.4142135623730953
 10
708.6744553531431
 20
-168.6876163216023
 42
0.0
 10
707.5244553531441
 20
-168.6876163216009
 42
0.0
 10
707.5244553531441
 20
-165.237616321604
 42
0.0
 10
701.7744553531441
 20
-165.237616321604
 42
0.0
 10
701.7744553531441
 20
-168.6876163216009
 42
0.0
 10
700.6244553531452
 20
-168.6876163216023
 42
0.4142135623730914
 10
697.1744553531431
 20
-172.137616321603
 42
0.0
 10
697.1744553531457
 20
-227.3376163216025
 42
0.4142135623730951
 10
700.6244553531452
 20
-230.787616321602
 42
0.0
 10
701.7744553531441
 20
-230.787616321602
 42
0.0
 97
        0
 92
        6
 72
     0
 73
     1
 93
        6
 10
742.0244553531456
 20
-162.9376163216035
 10
742.0244553531456
 20
-165.237616321604
 10
747.7744553531456
 20
-165.237616321604
 10
747.7744553531455
 20
-162.9376163216035
 10
747.7744553531457
 20
-156.037616321622
 10
742.0244553531463
 20
-156.0376163216284
 97
        0
 92
        6
 72
     0
 73
     1
 93
        6
 10
775.3744553531441
 20
-162.9376163216035
 10
775.3744553531441
 20
-165.237616321604
 10
781.124455353144
 20
-165.237616321604
 10
781.1244553531438
 20
-162.9376163216035
 10
781.1244553531438
 20
-156.0376163216075
 10
775.374455353145
 20
-156.037616321629
 97
        0
 92
        6
 72
     0
 73
     1
 93
        6
 10
701.7744553531441
 20
-162.9376163216035
 10
701.7744553531441
 20
-165.237616321604
 10
707.5244553531441
 20
-165.237616321604
 10
707.5244553531441
 20
-162.9376163216035
 10
707.5244553531441
 20
-156.0376163216075
 10
701.7744553531453
 20
-156.037616321629
 97
        0
 92
        6
 72
     0
 73
     1
 93
        5
 10
668.4244553531465
 20
-156.0376163216284
 10
668.4244553531457
 20
-162.9376163216035
 10
668.4244553531457
 20
-165.237616321604
 10
671.2738725924905
 20
-165.237616321604
 10
671.2738725924905
 20
-156.0376163216233
 97
        0
 92
        6
 72
     0
 73
     1
 93
        4
 10
647.724455353141
 20
-202.6126163216027
 10
652.3244553531447
 20
-202.6126163216027
 10
652.3244553531447
 20
-199.7376163216012
 10
647.724455353141
 20
-199.7376163216012
 97
        0
 92
        6
 72
     0
 73
     1
 93
        4
 10
647.724455353141
 20
-199.7376163216012
 10
652.3244553531447
 20
-199.7376163216012
 10
652.3244553531447
 20
-196.8626163216067
 10
647.724455353141
 20
-196.8626163216067
 97
        0
 92
        6
 72
     1
 73
     1
 93
       11
 10
668.4244553531457
 20
-165.237616321604
 42
0.0
 10
668.4244553531457
 20
-168.6876163216064
 42
0.0
 10
655.7744553531441
 20
-168.6876163216035
 42
0.4142135623730914
 10
652.3244553531447
 20
-172.1376163216044
 42
0.0
 10
652.3244553531447
 20
-173.6326163216042
 42
0.0
 10
659.2825683788264
 20
-173.6326163216042
 42
0.0
 10
659.2825683788264
 20
-173.3556327491077
 42
0.0
 10
664.2825683788264
 20
-173.3556327491077
 42
0.0
 10
664.2825683788264
 20
-173.6326163216042
 42
0.0
 10
671.2738725924905
 20
-173.6326163216042
 42
0.0
 10
671.2738725924905
 20
-165.237616321604
 42
0.0
 97
        0
 92
        6
 72
     0
 73
     1
 93
        5
 10
671.2738725924905
 20
-165.237616321604
 10
674.1744553531457
 20
-165.237616321604
 10
674.1744553531457
 20
-162.9376163216035
 10
674.1744553531459
 20
-156.037616321622
 10
671.2738725924905
 20
-156.0376163216315
 97
        0
 92
        7
 72
     0
 73
     1
 93
        5
 10
638.5244553531421
 20
-202.6126163216031
 10
645.4244553531431
 20
-202.6126163216027
 10
647.724455353141
 20
-202.6126163216027
 10
647.724455353141
 20
-199.7376163216012
 10
638.5244553531408
 20
-199.7376163216012
 97
        0
 92
        6
 72
     0
 73
     1
 93
        5
 10
638.5244553531408
 20
-199.7376163216012
 10
647.724455353141
 20
-199.7376163216012
 10
647.724455353141
 20
-196.8626163216049
 10
645.4244553531431
 20
-196.862616321604
 10
638.5244553531408
 20
-196.862616321604
 97
        0
 92
        6
 72
     0
 73
     1
 93
        4
 10
747.7744553531456
 20
-234.2376163216041
 10
742.0244553531446
 20
-234.2376163216041
 10
742.0244553531456
 20
-236.5376163216037
 10
747.7744553531456
 20
-236.537616321602
 97
        0
 92
        6
 72
     1
 73
     1
 93
       13
 10
758.8144553531434
 20
-222.3926163216044
 42
-0.4142135623730951
 10
755.3644553531439
 20
-225.8426163216038
 42
0.0
 10
725.9244553531446
 20
-225.8426163216012
 42
0.0
 10
725.9244553531446
 20
-227.3376163216051
 42
0.4142135623730914
 10
729.374455353144
 20
-230.7876163216046
 42
0.0
 10
742.024455353143
 20
-230.7876163216046
 42
0.0
 10
742.024455353143
 20
-234.2376163216041
 42
0.0
 10
747.7744553531456
 20
-234.2376163216041
 42
0.0
 10
747.7744553531456
 20
-230.7876163216046
 42
0.0
 10
762.7244553531451
 20
-230.787616321602
 42
0.4142135623730914
 10
766.1744553531446
 20
-227.3376163216025
 42
0.0
 10
766.1744553531384
 20
-199.7376163216064
 42
0.0
 10
758.814455353146
 20
-199.7376163216047
 42
0.0
 97
        0
 92
        6
 72
     1
 73
     1
 93
       13
 10
758.8144553531409
 20
-199.7376163216047
 42
0.0
 10
766.1744553531446
 20
-199.7376163216064
 42
0.0
 10
766.1744553531446
 20
-172.1376163216044
 42
0.4142135623730951
 10
762.7244553531451
 20
-168.6876163216035
 42
0.0
 10
747.7744553531456
 20
-168.6876163216035
 42
0.0
 10
747.7744553531456
 20
-165.237616321604
 42
0.0
 10
742.0244553531456
 20
-165.237616321604
 42
0.0
 10
742.0244553531456
 20
-168.6876163216035
 42
0.0
 10
729.374455353144
 20
-168.6876163216035
 42
0.4142135623730914
 10
725.9244553531446
 20
-172.1376163216044
 42
0.0
 10
725.9244553531446
 20
-173.6326163216042
 42
0.0
 10
755.3644553531439
 20
-173.6326163216056
 42
-0.4142135623732061
 10
758.814455353146
 20
-177.0826163216037
 42
0.0
 97
        0
 92
        6
 72
     0
 73
     1
 93
        4
 10
674.1744553531457
 20
-234.2376163216041
 10
668.4244553531446
 20
-234.2376163216041
 10
668.4244553531457
 20
-236.537616321602
 10
674.1744553531457
 20
-236.537616321602
 97
        0
 92
        6
 72
     1
 73
     1
 93
       13
 10
685.2144553531435
 20
-222.3926163216044
 42
-0.4142135623730951
 10
681.764455353144
 20
-225.8426163216038
 42
0.0
 10
652.3244553531447
 20
-225.8426163216012
 42
0.0
 10
652.3244553531447
 20
-227.3376163216051
 42
0.4142135623730914
 10
655.7744553531441
 20
-230.7876163216046
 42
0.0
 10
668.424455353143
 20
-230.7876163216046
 42
0.0
 10
668.424455353143
 20
-234.2376163216041
 42
0.0
 10
674.1744553531457
 20
-234.2376163216041
 42
0.0
 10
674.1744553531457
 20
-230.7876163216046
 42
0.0
 10
689.1244553531452
 20
-230.787616321602
 42
0.4142135623730914
 10
692.5744553531447
 20
-227.3376163216025
 42
0.0
 10
692.5744553531385
 20
-199.7376163216064
 42
0.0
 10
685.2144553531461
 20
-199.7376163216047
 42
0.0
 97
        0
 92
        6
 72
     1
 73
     1
 93
       10
 10
685.214455353141
 20
-199.7376163216047
 42
0.0
 10
692.5744553531447
 20
-199.7376163216064
 42
0.0
 10
692.5744553531447
 20
-172.1376163216044
 42
0.4142135623730951
 10
689.1244553531452
 20
-168.6876163216035
 42
0.0
 10
674.1744553531457
 20
-168.6876163216035
 42
0.0
 10
674.1744553531457
 20
-165.237616321604
 42
0.0
 10
671.2738725924905
 20
-165.237616321604
 42
0.0
 10
671.2738725924905
 20
-173.6326163216042
 42
0.0
 10
681.764455353144
 20
-173.6326163216056
 42
-0.4142135623732061
 10
685.2144553531461
 20
-177.0826163216037
 42
0.0
 97
        0
 75
     0
 76
     1
 52
0.0
 41
10.0
 77
     0
 78
     1
 53
45.0
 43
0.0
 44
0.0
 45
-0.8838834764831842
 46
0.8838834764831844
 79
     0
 47
0.0
 98
       32
 10
0.0
 20
0.0
 10
0.0
 20
0.0
 10
-5.0
 20
-392.0
 10
-5.0
 20
-392.0
 10
-5.0
 20
-392.0
 10
-5.0
 20
-392.0
 10
-5.0
 20
-392.0
 10
-5.0
 20
-392.0
 10
788.82864254996
 20
-200.2690158815203
 10
723.9364915776065
 20
-199.6265193372395
 10
777.9062012971876
 20
-235.9275740891007
 10
777.263704752907
 20
-170.7141748446067
 10
719.4390157676415
 20
-199.6265193372395
 10
714.620291685536
 20
-199.6265193372395
 10
706.2678366098865
 20
-235.6063258169602
 10
701.1278642556407
 20
-171.9991679331682
 10
745.4601258110109
 20
-163.004216313238
 10
779.5124426578895
 20
-159.7917335918344
 10
704.6615952491848
 20
-162.6829680410977
 10
669.6455335858851
 20
-161.7192232246766
 10
650.3706372574632
 20
-201.2327606979413
 10
650.3706372574632
 20
-198.341526248678
 10
665.7905543202007
 20
-170.7141748446067
 10
672.5367680351483
 20
-161.3979749525362
 10
643.3031752703753
 20
-201.2327606979413
 10
644.9094166310771
 20
-197.6990297043973
 10
745.1388775388705
 20
-235.9275740891007
 10
762.1650359623098
 20
-209.9064640457311
 10
745.1388775388705
 20
-169.7504300281857
 10
672.215519763008
 20
-235.6063258169602
 10
688.2779333700262
 20
-216.9739260328192
 10
686.9929402814648
 20
-185.4915953630635
  0
HATCH
  5
24C
330
66
100
AcDbEntity
  8
PKG-OUT
100
AcDbHatch
 10
0.0
 20
0.0
 30
0.0
210
0.0
220
0.0
230
1.0
  2
ANSI31
 70
     0
 71
     0
 91
        2
 92
        7
 72
     0
 73
     1
 93
        4
 10
790.3244553531409
 20
-202.6126163216045
 10
792.6244553531388
 20
-202.6126163216054
 10
792.6244553531414
 20
-196.8626163216067
 10
790.3244553531409
 20
-196.8626163216067
 97
        0
 92
        7
 72
     0
 73
     1
 93
        4
 10
792.6244553531412
 20
-86.46261632160616
 10
790.3244553531407
 20
-86.46261632160616
 10
790.3244553531407
 20
-92.212616321604
 10
792.6244553531411
 20
-92.21261632160485
 97
        0
 75
     0
 76
     1
 52
0.0
 41
10.0
 77
     0
 78
     1
 53
45.0
 43
0.0
 44
0.0
 45
-0.8838834764831842
 46
0.8838834764831844
 79
     0
 47
0.0
 98
       10
 10
0.0
 20
0.0
 10
0.0
 20
0.0
 10
-5.0
 20
-392.0
 10
-5.0
 20
-392.0
 10
-5.0
 20
-392.0
 10
-5.0
 20
-392.0
 10
-5.0
 20
-392.0
 10
-5.0
 20
-392.0
 10
792.0800608640371
 20
-199.6374124897666
 10
791.3455815358306
 20
-88.24138104513094
  0
ENDBLK
  5
24D
330
66
100
AcDbEntity
  8
0
100
AcDbBlockEnd
  0
ENDSEC
  0
SECTION
  2
ENTITIES
  0
INSERT
  5
65
330
2
100
AcDbEntity
  8
0
100
AcDbBlockReference
  2
SH3
 10
5.0
 20
392.0
 30
0.0
  0
ENDSEC
  0
SECTION
  2
OBJECTS
  0
DICTIONARY
  5
7
330
0
100
AcDbDictionary
281
     1
  3
ACAD_COLOR
350
3E
  3
ACAD_GROUP
350
2B
  3
ACAD_LAYOUT
350
14
  3
ACAD_MATERIAL
350
9
  3
ACAD_MLEADERSTYLE
350
41
  3
ACAD_MLINESTYLE
350
2C
  3
ACAD_PLOTSETTINGS
350
2D
  3
ACAD_PLOTSTYLENAME
350
6
  3
ACAD_SCALELIST
350
3F
  3
ACAD_TABLESTYLE
350
40
  3
ACAD_VISUALSTYLE
350
25
  3
ACDB_RECOMPOSE_DATA
350
251
  3
AcDbVariableDictionary
350
42
  0
DICTIONARY
  5
3E
102
{ACAD_REACTORS
330
7
102
}
330
7
100
AcDbDictionary
281
     1
  0
DICTIONARY
  5
2B
102
{ACAD_REACTORS
330
7
102
}
330
7
100
AcDbDictionary
281
     1
  0
DICTIONARY
  5
14
102
{ACAD_REACTORS
330
7
102
}
330
7
100
AcDbDictionary
281
     1
  3
Layout1
350
18
  3
Model
350
13
  0
DICTIONARY
  5
9
102
{ACAD_REACTORS
330
7
102
}
330
7
100
AcDbDictionary
281
     1
  3
ByBlock
350
36
  3
ByLayer
350
2E
  3
Global
350
8
  0
DICTIONARY
  5
41
102
{ACAD_REACTORS
330
7
102
}
330
7
100
AcDbDictionary
281
     1
  0
DICTIONARY
  5
2C
102
{ACAD_REACTORS
330
7
102
}
330
7
100
AcDbDictionary
281
     1
  3
Standard
350
4F
  0
DICTIONARY
  5
2D
102
{ACAD_REACTORS
330
7
102
}
330
7
100
AcDbDictionary
281
     1
  0
ACDBDICTIONARYWDFLT
  5
6
102
{ACAD_REACTORS
330
7
102
}
330
7
100
AcDbDictionary
281
     1
  3
Normal
350
5
100
AcDbDictionaryWithDefault
340
5
  0
DICTIONARY
  5
3F
102
{ACAD_REACTORS
330
7
102
}
330
7
100
AcDbDictionary
281
     1
  3
A0
350
54
  3
A1
350
55
  3
A2
350
56
  3
A3
350
57
  3
A4
350
58
  3
A5
350
59
  3
A6
350
5A
  3
A7
350
5B
  3
A8
350
5C
  3
A9
350
5D
  3
B0
350
5E
  3
B1
350
5F
  3
B2
350
60
  3
B3
350
61
  3
B4
350
62
  3
B5
350
63
  3
B6
350
64
  0
DICTIONARY
  5
40
102
{ACAD_REACTORS
330
7
102
}
330
7
100
AcDbDictionary
281
     1
  3
Standard
350
50
  0
DICTIONARY
  5
25
102
{ACAD_REACTORS
330
7
102
}
330
7
100
AcDbDictionary
281
     1
  3
2dWireframe
350
24
  3
EdgeColorOff
350
6F
  3
Realistic
350
51
  3
Wireframe
350
52
  0
XRECORD
  5
251
102
{ACAD_REACTORS
330
7
102
}
330
7
100
AcDbXrecord
280
     1
 90
        1
330
50
  0
DICTIONARY
  5
42
102
{ACAD_REACTORS
330
7
102
}
330
7
100
AcDbDictionary
281
     1
  3
CANNOSCALE
350
43
  3
CMLEADERSTYLE
350
44
  3
CTABLESTYLE
350
45
  3
CVIEWDETAILSTYLE
350
46
  3
CVIEWSECTIONSTYLE
350
47
  3
DIMASSOC
350
48
  3
HIDETEXT
350
49
  3
LAYEREVAL
350
4A
  3
LAYERNOTIFY
350
4B
  3
LIGHTINGUNITS
350
4C
  3
MSLTSCALE
350
4D
  0
LAYOUT
  5
18
102
{ACAD_REACTORS
330
14
102
}
330
14
100
AcDbPlotSettings
  1

  2
None
  4

  6

 40
0.0
 41
0.0
 42
0.0
 43
0.0
 44
0.0
 45
0.0
 46
0.0
 47
0.0
 48
0.0
 49
0.0
140
0.0
141
0.0
142
1.0
143
1.0
 70
   688
 72
     0
 73
     0
 74
     0
  7

 75
     0
147
1.0
 76
     0
 77
     2
 78
   300
148
0.0
149
0.0
100
AcDbLayout
  1
Layout1
 70
     0
 71
     1
 10
0.0
 20
0.0
 11
0.0
 21
0.0
 12
0.0
 22
0.0
 32
0.0
 14
0.0
 24
0.0
 34
0.0
 15
0.0
 25
0.0
 35
0.0
146
0.0
 13
0.0
 23
0.0
 33
0.0
 16
1.0
 26
0.0
 36
0.0
 17
0.0
 27
1.0
 37
0.0
 76
     0
330
15
  0
LAYOUT
  5
13
102
{ACAD_REACTORS
330
14
102
}
330
14
100
AcDbPlotSettings
  1

  2
None
  4

  6

 40
0.0
 41
0.0
 42
0.0
 43
0.0
 44
0.0
 45
0.0
 46
0.0
 47
0.0
 48
0.0
 49
0.0
140
0.0
141
0.0
142
1.0
143
1.0
 70
 11952
 72
     0
 73
     0
 74
     0
  7

 75
     0
147
1.0
 76
     0
 77
     2
 78
   300
148
0.0
149
0.0
100
AcDbLayout
  1
Model
 70
     1
 71
     0
 10
0.0
 20
0.0
 11
0.0
 21
0.0
 12
0.0
 22
0.0
 32
0.0
 14
5.0
 24
8.999999999999943
 34
0.0
 15
1637.0
 25
392.0000000000001
 35
0.0
146
0.0
 13
0.0
 23
0.0
 33
0.0
 16
1.0
 26
0.0
 36
0.0
 17
0.0
 27
1.0
 37
0.0
 76
     0
330
2
  0
MATERIAL
  5
36
102
{ACAD_XDICTIONARY
360
37
102
}
102
{ACAD_REACTORS
330
9
102
}
330
9
100
AcDbMaterial
  1
ByBlock
 72
     0
 43
0.0208333333333333
 43
0.0
 43
0.0
 43
0.0
 43
0.0
 43
0.0208333333333333
 43
0.0
 43
0.0
 43
0.0
 43
0.0
 43
1.0
 43
0.0
 43
0.0
 43
0.0
 43
0.0
 43
1.0
 77
     0
 47
0.0208333333333333
 47
0.0
 47
0.0
 47
0.0
 47
0.0
 47
0.0208333333333333
 47
0.0
 47
0.0
 47
0.0
 47
0.0
 47
1.0
 47
0.0
 47
0.0
 47
0.0
 47
0.0
 47
1.0
171
     0
 49
0.0208333333333333
 49
0.0
 49
0.0
 49
0.0
 49
0.0
 49
0.0208333333333333
 49
0.0
 49
0.0
 49
0.0
 49
0.0
 49
1.0
 49
0.0
 49
0.0
 49
0.0
 49
0.0
 49
1.0
175
     0
142
0.0208333333333333
142
0.0
142
0.0
142
0.0
142
0.0
142
0.0208333333333333
142
0.0
142
0.0
142
0.0
142
0.0
142
1.0
142
0.0
142
0.0
142
0.0
142
0.0
142
1.0
179
     0
144
0.0208333333333333
144
0.0
144
0.0
144
0.0
144
0.0
144
0.0208333333333333
144
0.0
144
0.0
144
0.0
144
0.0
144
1.0
144
0.0
144
0.0
144
0.0
144
0.0
144
1.0
147
0.0208333333333333
147
0.0
147
0.0
147
0.0
147
0.0
147
0.0208333333333333
147
0.0
147
0.0
147
0.0
147
0.0
147
1.0
147
0.0
147
0.0
147
0.0
147
0.0
147
1.0
  0
MATERIAL
  5
2E
102
{ACAD_XDICTIONARY
360
2F
102
}
102
{ACAD_REACTORS
330
9
102
}
330
9
100
AcDbMaterial
  1
ByLayer
 72
     0
 43
0.0208333333333333
 43
0.0
 43
0.0
 43
0.0
 43
0.0
 43
0.0208333333333333
 43
0.0
 43
0.0
 43
0.0
 43
0.0
 43
1.0
 43
0.0
 43
0.0
 43
0.0
 43
0.0
 43
1.0
 77
     0
 47
0.0208333333333333
 47
0.0
 47
0.0
 47
0.0
 47
0.0
 47
0.0208333333333333
 47
0.0
 47
0.0
 47
0.0
 47
0.0
 47
1.0
 47
0.0
 47
0.0
 47
0.0
 47
0.0
 47
1.0
171
     0
 49
0.0208333333333333
 49
0.0
 49
0.0
 49
0.0
 49
0.0
 49
0.0208333333333333
 49
0.0
 49
0.0
 49
0.0
 49
0.0
 49
1.0
 49
0.0
 49
0.0
 49
0.0
 49
0.0
 49
1.0
175
     0
142
0.0208333333333333
142
0.0
142
0.0
142
0.0
142
0.0
142
0.0208333333333333
142
0.0
142
0.0
142
0.0
142
0.0
142
1.0
142
0.0
142
0.0
142
0.0
142
0.0
142
1.0
179
     0
144
0.0208333333333333
144
0.0
144
0.0
144
0.0
144
0.0
144
0.0208333333333333
144
0.0
144
0.0
144
0.0
144
0.0
144
1.0
144
0.0
144
0.0
144
0.0
144
0.0
144
1.0
147
0.0208333333333333
147
0.0
147
0.0
147
0.0
147
0.0
147
0.0208333333333333
147
0.0
147
0.0
147
0.0
147
0.0
147
1.0
147
0.0
147
0.0
147
0.0
147
0.0
147
1.0
  0
MATERIAL
  5
8
102
{ACAD_XDICTIONARY
360
A
102
}
102
{ACAD_REACTORS
330
9
102
}
330
9
100
AcDbMaterial
  1
Global
 72
     0
 43
0.0208333333333333
 43
0.0
 43
0.0
 43
0.0
 43
0.0
 43
0.0208333333333333
 43
0.0
 43
0.0
 43
0.0
 43
0.0
 43
1.0
 43
0.0
 43
0.0
 43
0.0
 43
0.0
 43
1.0
 77
     0
 47
0.0208333333333333
 47
0.0
 47
0.0
 47
0.0
 47
0.0
 47
0.0208333333333333
 47
0.0
 47
0.0
 47
0.0
 47
0.0
 47
1.0
 47
0.0
 47
0.0
 47
0.0
 47
0.0
 47
1.0
171
     0
 49
0.0208333333333333
 49
0.0
 49
0.0
 49
0.0
 49
0.0
 49
0.0208333333333333
 49
0.0
 49
0.0
 49
0.0
 49
0.0
 49
1.0
 49
0.0
 49
0.0
 49
0.0
 49
0.0
 49
1.0
175
     0
142
0.0208333333333333
142
0.0
142
0.0
142
0.0
142
0.0
142
0.0208333333333333
142
0.0
142
0.0
142
0.0
142
0.0
142
1.0
142
0.0
142
0.0
142
0.0
142
0.0
142
1.0
179
     0
144
0.0208333333333333
144
0.0
144
0.0
144
0.0
144
0.0
144
0.0208333333333333
144
0.0
144
0.0
144
0.0
144
0.0
144
1.0
144
0.0
144
0.0
144
0.0
144
0.0
144
1.0
147
0.0208333333333333
147
0.0
147
0.0
147
0.0
147
0.0
147
0.0208333333333333
147
0.0
147
0.0
147
0.0
147
0.0
147
1.0
147
0.0
147
0.0
147
0.0
147
0.0
147
1.0
  0
MLINESTYLE
  5
4F
102
{ACAD_REACTORS
330
2C
102
}
330
2C
100
AcDbMlineStyle
  2
STANDARD
 70
     0
  3

 62
   256
 51
90.0
 52
90.0
 71
     2
 49
0.5
 62
   256
  6
BYLAYER
 49
-0.5
 62
   256
  6
BYLAYER
  0
ACDBPLACEHOLDER
  5
5
102
{ACAD_REACTORS
330
6
102
}
330
6
  0
SCALE
  5
54
102
{ACAD_REACTORS
330
3F
102
}
330
3F
100
AcDbScale
 70
     0
300
1:1
140
1.0
141
1.0
290
     1
  0
SCALE
  5
55
102
{ACAD_REACTORS
330
3F
102
}
330
3F
100
AcDbScale
 70
     0
300
1/128" = 1'-0"
140
0.0078125
141
12.0
290
     0
  0
SCALE
  5
56
102
{ACAD_REACTORS
330
3F
102
}
330
3F
100
AcDbScale
 70
     0
300
1/64" = 1'-0"
140
0.015625
141
12.0
290
     0
  0
SCALE
  5
57
102
{ACAD_REACTORS
330
3F
102
}
330
3F
100
AcDbScale
 70
     0
300
1/32" = 1'-0"
140
0.03125
141
12.0
290
     0
  0
SCALE
  5
58
102
{ACAD_REACTORS
330
3F
102
}
330
3F
100
AcDbScale
 70
     0
300
1/16" = 1'-0"
140
0.0625
141
12.0
290
     0
  0
SCALE
  5
59
102
{ACAD_REACTORS
330
3F
102
}
330
3F
100
AcDbScale
 70
     0
300
3/32" = 1'-0"
140
0.09375
141
12.0
290
     0
  0
SCALE
  5
5A
102
{ACAD_REACTORS
330
3F
102
}
330
3F
100
AcDbScale
 70
     0
300
1/8" = 1'-0"
140
0.125
141
12.0
290
     0
  0
SCALE
  5
5B
102
{ACAD_REACTORS
330
3F
102
}
330
3F
100
AcDbScale
 70
     0
300
3/16" = 1'-0"
140
0.1875
141
12.0
290
     0
  0
SCALE
  5
5C
102
{ACAD_REACTORS
330
3F
102
}
330
3F
100
AcDbScale
 70
     0
300
1/4" = 1'-0"
140
0.25
141
12.0
290
     0
  0
SCALE
  5
5D
102
{ACAD_REACTORS
330
3F
102
}
330
3F
100
AcDbScale
 70
     0
300
3/8" = 1'-0"
140
0.375
141
12.0
290
     0
  0
SCALE
  5
5E
102
{ACAD_REACTORS
330
3F
102
}
330
3F
100
AcDbScale
 70
     0
300
1/2" = 1'-0"
140
0.5
141
12.0
290
     0
  0
SCALE
  5
5F
102
{ACAD_REACTORS
330
3F
102
}
330
3F
100
AcDbScale
 70
     0
300
3/4" = 1'-0"
140
0.75
141
12.0
290
     0
  0
SCALE
  5
60
102
{ACAD_REACTORS
330
3F
102
}
330
3F
100
AcDbScale
 70
     0
300
1" = 1'-0"
140
1.0
141
12.0
290
     0
  0
SCALE
  5
61
102
{ACAD_REACTORS
330
3F
102
}
330
3F
100
AcDbScale
 70
     0
300
1-1/2" = 1'-0"
140
1.5
141
12.0
290
     0
  0
SCALE
  5
62
102
{ACAD_REACTORS
330
3F
102
}
330
3F
100
AcDbScale
 70
     0
300
3" = 1'-0"
140
3.0
141
12.0
290
     0
  0
SCALE
  5
63
102
{ACAD_REACTORS
330
3F
102
}
330
3F
100
AcDbScale
 70
     0
300
6" = 1'-0"
140
6.0
141
12.0
290
     0
  0
SCALE
  5
64
102
{ACAD_REACTORS
330
3F
102
}
330
3F
100
AcDbScale
 70
     0
300
1'-0" = 1'-0"
140
12.0
141
12.0
290
     0
  0
TABLESTYLE
  5
50
102
{ACAD_XDICTIONARY
360
24F
102
}
102
{ACAD_REACTORS
330
40
102
}
330
40
100
AcDbTableStyle
280
     0
  3
Standard
 70
     0
 71
     0
 40
0.06
 41
0.06
280
     0
281
     0
  7
Standard
140
0.18
170
     2
 62
     0
 63
     7
283
     0
 90
        4
 91
        0
  1

274
    -2
284
     1
 64
     0
275
    -2
285
     1
 65
     0
276
    -2
286
     1
 66
     0
277
    -2
287
     1
 67
     0
278
    -2
288
     1
 68
     0
279
    -2
289
     1
 69
     0
  7
Standard
140
0.25
170
     5
 62
     0
 63
     7
283
     0
 90
        4
 91
        0
  1

274
    -2
284
     1
 64
     0
275
    -2
285
     1
 65
     0
276
    -2
286
     1
 66
     0
277
    -2
287
     1
 67
     0
278
    -2
288
     1
 68
     0
279
    -2
289
     1
 69
     0
  7
Standard
140
0.18
170
     5
 62
     0
 63
     7
283
     0
 90
        4
 91
        0
  1

274
    -2
284
     1
 64
     0
275
    -2
285
     1
 65
     0
276
    -2
286
     1
 66
     0
277
    -2
287
     1
 67
     0
278
    -2
288
     1
 68
     0
279
    -2
289
     1
 69
     0
  0
VISUALSTYLE
  5
24
102
{ACAD_REACTORS
330
25
102
}
330
25
100
AcDbVisualStyle
  2
2dWireframe
 70
     4
177
     3
291
     0
 70
    58
 90
        0
176
     1
 90
        2
176
     1
 90
        0
176
     1
 90
        0
176
     1
 40
0.6
176
     1
 40
30.0
176
     1
 62
     7
420
 16777215
176
     1
 90
        1
176
     1
 90
        4
176
     1
 62
     7
176
     1
 62
   257
176
     1
 90
        1
176
     1
 90
        1
176
     1
 40
1.0
176
     1
 90
        0
176
     1
 62
   257
176
     1
 40
1.0
176
     1
 90
        1
176
     1
 90
        6
176
     1
 90
        2
176
     1
 62
     7
176
     1
 90
        5
176
     1
 90
        0
176
     1
 90
        0
176
     1
290
     0
176
     1
 90
        1
176
     1
 40
0.0
176
     1
 90
        0
176
     1
290
     1
176
     1
290
     1
176
     1
290
     0
176
     1
290
     0
176
     1
290
     0
176
     1
290
     0
176
     1
290
     0
176
     1
290
     0
176
     1
290
     0
176
     1
 90
       50
176
     1
 40
0.0
176
     1
 40
1.0
176
     1
 90
        0
176
     1
 62
    18
420
        0
176
     1
 90
       50
176
     1
 90
        3
176
     1
 62
     5
420
      255
176
     1
290
     0
176
     1
 90
       50
176
     1
 90
       50
176
     1
 90
       50
176
     1
290
     0
176
     1
 90
       50
176
     1
 62
   256
176
     0
 40
1.0
176
     0
 90
        2
176
     1
  1
strokes_ogs.tif
176
     1
290
     0
176
     1
 40
1.0
176
     1
 40
1.0
176
     1
  0
VISUALSTYLE
  5
6F
102
{ACAD_REACTORS
330
25
102
}
330
25
100
AcDbVisualStyle
  2
EdgeColorOff
 70
    22
177
     3
291
     1
 70
    58
 90
        2
176
     0
 90
        2
176
     0
 90
        0
176
     0
 90
        0
176
     0
 40
0.6
176
     0
 40
30.0
176
     0
 62
     7
420
 16777215
176
     0
 90
        1
176
     0
 90
        4
176
     0
 62
     7
176
     0
 62
   257
176
     0
 90
        1
176
     0
 90
        1
176
     0
 40
1.0
176
     0
 90
        8
176
     2
 62
     7
176
     0
 40
1.0
176
     0
 90
        1
176
     0
 90
        6
176
     0
 90
        2
176
     0
 62
     7
176
     0
 90
        5
176
     0
 90
        0
176
     0
 90
        0
176
     0
290
     0
176
     0
 90
        1
176
     0
 40
0.0
176
     0
 90
        0
176
     0
290
     0
176
     0
290
     1
176
     0
290
     1
176
     0
290
     0
176
     0
290
     0
176
     0
290
     0
176
     0
290
     0
176
     0
290
     0
176
     0
290
     0
176
     0
 90
       50
176
     0
 40
0.0
176
     0
 40
1.0
176
     0
 90
        0
176
     0
 62
    18
420
        0
176
     0
 90
       50
176
     0
 90
        3
176
     0
 62
     5
420
      255
176
     0
290
     0
176
     0
 90
       50
176
     0
 90
       50
176
     0
 90
       50
176
     0
290
     0
176
     0
 90
       50
176
     0
 62
   256
176
     0
 40
1.0
176
     0
 90
        2
176
     0
  1
strokes_ogs.tif
176
     0
290
     0
176
     0
 40
1.0
176
     0
 40
1.0
176
     0
  0
VISUALSTYLE
  5
51
102
{ACAD_REACTORS
330
25
102
}
330
25
100
AcDbVisualStyle
  2
Realistic
 70
     8
177
     3
291
     0
 70
    58
 90
        2
176
     1
 90
        3
176
     1
 90
        0
176
     1
 90
        2
176
     1
 40
0.6
176
     1
 40
30.0
176
     1
 62
     7
420
 16777215
176
     1
 90
        0
176
     1
 90
        0
176
     1
 62
     7
176
     1
 62
   257
176
     1
 90
        1
176
     1
 90
        1
176
     1
 40
1.0
176
     1
 90
        8
176
     1
 62
   257
176
     1
 40
1.0
176
     1
 90
        1
176
     1
 90
        6
176
     1
 90
        2
176
     1
 62
     7
176
     1
 90
        3
176
     1
 90
        0
176
     1
 90
        0
176
     1
290
     0
176
     1
 90
       13
176
     1
 40
0.0
176
     1
 90
        0
176
     1
290
     0
176
     1
290
     1
176
     1
290
     1
176
     1
290
     0
176
     1
290
     0
176
     1
290
     0
176
     1
290
     0
176
     1
290
     0
176
     1
290
     0
176
     1
 90
       50
176
     1
 40
0.0
176
     1
 40
1.0
176
     1
 90
        0
176
     1
 62
    18
420
        0
176
     1
 90
       50
176
     1
 90
        3
176
     1
 62
     5
420
      255
176
     1
290
     0
176
     1
 90
       50
176
     1
 90
       50
176
     1
 90
       50
176
     1
290
     0
176
     1
 90
       50
176
     1
 62
   256
176
     0
 40
1.0
176
     0
 90
        2
176
     1
  1
strokes_ogs.tif
176
     1
290
     0
176
     1
 40
1.0
176
     1
 40
1.0
176
     1
  0
VISUALSTYLE
  5
52
102
{ACAD_REACTORS
330
25
102
}
330
25
100
AcDbVisualStyle
  2
Wireframe
 70
     5
177
     3
291
     0
 70
    58
 90
        0
176
     1
 90
        2
176
     1
 90
        0
176
     1
 90
        0
176
     1
 40
0.6
176
     1
 40
30.0
176
     1
 62
     7
420
 16777215
176
     1
 90
        1
176
     1
 90
        4
176
     1
 62
     7
176
     1
 62
   257
176
     1
 90
        1
176
     1
 90
        1
176
     1
 40
1.0
176
     1
 90
        0
176
     1
 62
   257
176
     1
 40
1.0
176
     1
 90
        1
176
     1
 90
        6
176
     1
 90
        2
176
     1
 62
     7
176
     1
 90
        3
176
     1
 90
        0
176
     1
 90
        0
176
     1
290
     0
176
     1
 90
        1
176
     1
 40
0.0
176
     1
 90
        0
176
     1
290
     0
176
     1
290
     1
176
     1
290
     1
176
     1
290
     0
176
     1
290
     0
176
     1
290
     0
176
     1
290
     0
176
     1
290
     0
176
     1
290
     0
176
     1
 90
       50
176
     1
 40
0.0
176
     1
 40
1.0
176
     1
 90
        0
176
     1
 62
    18
420
        0
176
     1
 90
       50
176
     1
 90
        3
176
     1
 62
     5
420
      255
176
     1
290
     0
176
     1
 90
       50
176
     1
 90
       50
176
     1
 90
       50
176
     1
290
     0
176
     1
 90
       50
176
     1
 62
   256
176
     0
 40
1.0
176
     0
 90
        2
176
     1
  1
strokes_ogs.tif
176
     1
290
     0
176
     1
 40
1.0
176
     1
 40
1.0
176
     1
  0
DICTIONARYVAR
  5
43
102
{ACAD_REACTORS
330
42
102
}
330
42
100
DictionaryVariables
280
     0
  1
1:1
  0
DICTIONARYVAR
  5
44
102
{ACAD_REACTORS
330
42
102
}
330
42
100
DictionaryVariables
280
     0
  1
STANDARD
  0
DICTIONARYVAR
  5
45
102
{ACAD_REACTORS
330
42
102
}
330
42
100
DictionaryVariables
280
     0
  1
STANDARD
  0
DICTIONARYVAR
  5
46
102
{ACAD_REACTORS
330
42
102
}
330
42
100
DictionaryVariables
280
     0
  1

  0
DICTIONARYVAR
  5
47
102
{ACAD_REACTORS
330
42
102
}
330
42
100
DictionaryVariables
280
     0
  1

  0
DICTIONARYVAR
  5
48
102
{ACAD_REACTORS
330
42
102
}
330
42
100
DictionaryVariables
280
     0
  1
0
  0
DICTIONARYVAR
  5
49
102
{ACAD_REACTORS
330
42
102
}
330
42
100
DictionaryVariables
280
     0
  1
1
  0
DICTIONARYVAR
  5
4A
102
{ACAD_REACTORS
330
42
102
}
330
42
100
DictionaryVariables
280
     0
  1
1
  0
DICTIONARYVAR
  5
4B
102
{ACAD_REACTORS
330
42
102
}
330
42
100
DictionaryVariables
280
     0
  1
15
  0
DICTIONARYVAR
  5
4C
102
{ACAD_REACTORS
330
42
102
}
330
42
100
DictionaryVariables
280
     0
  1
0
  0
DICTIONARYVAR
  5
4D
102
{ACAD_REACTORS
330
42
102
}
330
42
100
DictionaryVariables
280
     0
  1
0
  0
DICTIONARY
  5
37
330
36
100
AcDbDictionary
280
     1
281
     1
  3
BUMPTILE
360
38
  3
DIFFUSETILE
360
39
  3
OPACITYTILE
360
3A
  3
REFLECTIONTILE
360
3B
  3
REFRACTIONTILE
360
3C
  3
SPECULARTILE
360
3D
  0
DICTIONARY
  5
2F
330
2E
100
AcDbDictionary
280
     1
281
     1
  3
BUMPTILE
360
30
  3
DIFFUSETILE
360
31
  3
OPACITYTILE
360
32
  3
REFLECTIONTILE
360
33
  3
REFRACTIONTILE
360
34
  3
SPECULARTILE
360
35
  0
DICTIONARY
  5
A
330
8
100
AcDbDictionary
280
     1
281
     1
  3
BUMPTILE
360
B
  3
DIFFUSETILE
360
C
  3
OPACITYTILE
360
D
  3
REFLECTIONTILE
360
E
  3
REFRACTIONTILE
360
F
  3
SPECULARTILE
360
10
  0
DICTIONARY
  5
24F
330
50
100
AcDbDictionary
280
     1
281
     1
  3
ACAD_ROUNDTRIP_2008_TABLESTYLE_CELLSTYLEMAP
360
250
  0
XRECORD
  5
38
102
{ACAD_REACTORS
330
37
102
}
330
37
100
AcDbXrecord
280
     1
270
     1
271
     1
  0
XRECORD
  5
39
102
{ACAD_REACTORS
330
37
102
}
330
37
100
AcDbXrecord
280
     1
270
     1
271
     1
  0
XRECORD
  5
3A
102
{ACAD_REACTORS
330
37
102
}
330
37
100
AcDbXrecord
280
     1
270
     1
271
     1
  0
XRECORD
  5
3B
102
{ACAD_REACTORS
330
37
102
}
330
37
100
AcDbXrecord
280
     1
270
     1
271
     1
  0
XRECORD
  5
3C
102
{ACAD_REACTORS
330
37
102
}
330
37
100
AcDbXrecord
280
     1
270
     1
271
     1
  0
XRECORD
  5
3D
102
{ACAD_REACTORS
330
37
102
}
330
37
100
AcDbXrecord
280
     1
270
     1
271
     1
  0
XRECORD
  5
30
102
{ACAD_REACTORS
330
2F
102
}
330
2F
100
AcDbXrecord
280
     1
270
     1
271
     1
  0
XRECORD
  5
31
102
{ACAD_REACTORS
330
2F
102
}
330
2F
100
AcDbXrecord
280
     1
270
     1
271
     1
  0
XRECORD
  5
32
102
{ACAD_REACTORS
330
2F
102
}
330
2F
100
AcDbXrecord
280
     1
270
     1
271
     1
  0
XRECORD
  5
33
102
{ACAD_REACTORS
330
2F
102
}
330
2F
100
AcDbXrecord
280
     1
270
     1
271
     1
  0
XRECORD
  5
34
102
{ACAD_REACTORS
330
2F
102
}
330
2F
100
AcDbXrecord
280
     1
270
     1
271
     1
  0
XRECORD
  5
35
102
{ACAD_REACTORS
330
2F
102
}
330
2F
100
AcDbXrecord
280
     1
270
     1
271
     1
  0
XRECORD
  5
B
102
{ACAD_REACTORS
330
A
102
}
330
A
100
AcDbXrecord
280
     1
270
     1
271
     1
  0
XRECORD
  5
C
102
{ACAD_REACTORS
330
A
102
}
330
A
100
AcDbXrecord
280
     1
270
     1
271
     1
  0
XRECORD
  5
D
102
{ACAD_REACTORS
330
A
102
}
330
A
100
AcDbXrecord
280
     1
270
     1
271
     1
  0
XRECORD
  5
E
102
{ACAD_REACTORS
330
A
102
}
330
A
100
AcDbXrecord
280
     1
270
     1
271
     1
  0
XRECORD
  5
F
102
{ACAD_REACTORS
330
A
102
}
330
A
100
AcDbXrecord
280
     1
270
     1
271
     1
  0
XRECORD
  5
10
102
{ACAD_REACTORS
330
A
102
}
330
A
100
AcDbXrecord
280
     1
270
     1
271
     1
  0
CELLSTYLEMAP
  5
250
102
{ACAD_REACTORS
330
24F
102
}
330
24F
100
AcDbCellStyleMap
 90
        3
300
CELLSTYLE
  1
TABLEFORMAT_BEGIN
 90
        5
170
     1
 91
        0
 92
    32768
 62
   257
 93
        1
300
CONTENTFORMAT
  1
CONTENTFORMAT_BEGIN
 90
        0
 91
        0
 92
        4
 93
        0
300

 40
0.0
140
1.0
 94
        5
 62
     0
340
1B
144
0.25
309
CONTENTFORMAT_END
171
     0
 94
        6
 95
        1
302
GRIDFORMAT
  1
GRIDFORMAT_BEGIN
 90
        0
 91
        1
 62
     0
 92
       -2
340
0
 93
        0
 40
0.045
309
GRIDFORMAT_END
 95
        2
302
GRIDFORMAT
  1
GRIDFORMAT_BEGIN
 90
        0
 91
        1
 62
     0
 92
       -2
340
0
 93
        0
 40
0.045
309
GRIDFORMAT_END
 95
        4
302
GRIDFORMAT
  1
GRIDFORMAT_BEGIN
 90
        0
 91
        1
 62
     0
 92
       -2
340
0
 93
        0
 40
0.045
309
GRIDFORMAT_END
 95
        8
302
GRIDFORMAT
  1
GRIDFORMAT_BEGIN
 90
        0
 91
        1
 62
     0
 92
       -2
340
0
 93
        0
 40
0.045
309
GRIDFORMAT_END
 95
       16
302
GRIDFORMAT
  1
GRIDFORMAT_BEGIN
 90
        0
 91
        1
 62
     0
 92
       -2
340
0
 93
        0
 40
0.045
309
GRIDFORMAT_END
 95
       32
302
GRIDFORMAT
  1
GRIDFORMAT_BEGIN
 90
        0
 91
        1
 62
     0
 92
       -2
340
0
 93
        0
 40
0.045
309
GRIDFORMAT_END
309
TABLEFORMAT_END
  1
CELLSTYLE_BEGIN
 90
        1
 91
        1
300
_TITLE
309
CELLSTYLE_END
300
CELLSTYLE
  1
TABLEFORMAT_BEGIN
 90
        5
170
     1
 91
        0
 92
        0
 62
   257
 93
        1
300
CONTENTFORMAT
  1
CONTENTFORMAT_BEGIN
 90
        0
 91
        0
 92
        4
 93
        0
300

 40
0.0
140
1.0
 94
        5
 62
     0
340
1B
144
0.18
309
CONTENTFORMAT_END
171
     0
 94
        6
 95
        1
302
GRIDFORMAT
  1
GRIDFORMAT_BEGIN
 90
        0
 91
        1
 62
     0
 92
       -2
340
0
 93
        0
 40
0.045
309
GRIDFORMAT_END
 95
        2
302
GRIDFORMAT
  1
GRIDFORMAT_BEGIN
 90
        0
 91
        1
 62
     0
 92
       -2
340
0
 93
        0
 40
0.045
309
GRIDFORMAT_END
 95
        4
302
GRIDFORMAT
  1
GRIDFORMAT_BEGIN
 90
        0
 91
        1
 62
     0
 92
       -2
340
0
 93
        0
 40
0.045
309
GRIDFORMAT_END
 95
        8
302
GRIDFORMAT
  1
GRIDFORMAT_BEGIN
 90
        0
 91
        1
 62
     0
 92
       -2
340
0
 93
        0
 40
0.045
309
GRIDFORMAT_END
 95
       16
302
GRIDFORMAT
  1
GRIDFORMAT_BEGIN
 90
        0
 91
        1
 62
     0
 92
       -2
340
0
 93
        0
 40
0.045
309
GRIDFORMAT_END
 95
       32
302
GRIDFORMAT
  1
GRIDFORMAT_BEGIN
 90
        0
 91
        1
 62
     0
 92
       -2
340
0
 93
        0
 40
0.045
309
GRIDFORMAT_END
309
TABLEFORMAT_END
  1
CELLSTYLE_BEGIN
 90
        2
 91
        1
300
_HEADER
309
CELLSTYLE_END
300
CELLSTYLE
  1
TABLEFORMAT_BEGIN
 90
        5
170
     1
 91
        0
 92
        0
 62
   257
 93
        1
300
CONTENTFORMAT
  1
CONTENTFORMAT_BEGIN
 90
        0
 91
        0
 92
        4
 93
        0
300

 40
0.0
140
1.0
 94
        2
 62
     0
340
1B
144
0.18
309
CONTENTFORMAT_END
171
     0
 94
        6
 95
        1
302
GRIDFORMAT
  1
GRIDFORMAT_BEGIN
 90
        0
 91
        1
 62
     0
 92
       -2
340
0
 93
        0
 40
0.045
309
GRIDFORMAT_END
 95
        2
302
GRIDFORMAT
  1
GRIDFORMAT_BEGIN
 90
        0
 91
        1
 62
     0
 92
       -2
340
0
 93
        0
 40
0.045
309
GRIDFORMAT_END
 95
        4
302
GRIDFORMAT
  1
GRIDFORMAT_BEGIN
 90
        0
 91
        1
 62
     0
 92
       -2
340
0
 93
        0
 40
0.045
309
GRIDFORMAT_END
 95
        8
302
GRIDFORMAT
  1
GRIDFORMAT_BEGIN
 90
        0
 91
        1
 62
     0
 92
       -2
340
0
 93
        0
 40
0.045
309
GRIDFORMAT_END
 95
       16
302
GRIDFORMAT
  1
GRIDFORMAT_BEGIN
 90
        0
 91
        1
 62
     0
 92
       -2
340
0
 93
        0
 40
0.045
309
GRIDFORMAT_END
 95
       32
302
GRIDFORMAT
  1
GRIDFORMAT_BEGIN
 90
        0
 91
        1
 62
     0
 92
       -2
340
0
 93
        0
 40
0.045
309
GRIDFORMAT_END
309
TABLEFORMAT_END
  1
CELLSTYLE_BEGIN
 90
        3
 91
        2
300
_DATA
309
CELLSTYLE_END
  0
ENDSEC
  0
EOF
