  0
SECTION
  2
HEADER
  9
$ACADVER
  1
AC1032
  9
$ACADMAINTVER
 90
      248
  9
$DWGCODEPAGE
  3
ANSI_936
  9
$REQUIREDVERSIONS
160
                 0
  9
$INSBASE
 10
0.0
 20
0.0
 30
0.0
  9
$EXTMIN
 10
-1650.664496588554
 20
455.3803071005131
 30
0.0
  9
$EXTMAX
 10
-1323.524471208797
 20
593.2603066096603
 30
0.16
  9
$LIMMIN
 10
0.0
 20
0.0
  9
$LIMMAX
 10
12.0
 20
9.0
  9
$ORTHOMODE
 70
     0
  9
$REGENMODE
 70
     1
  9
$FILLMODE
 70
     1
  9
$QTEXTMODE
 70
     0
  9
$MIRRTEXT
 70
     0
  9
$LTSCALE
 40
0.1
  9
$ATTMODE
 70
     1
  9
$TEXTSIZE
 40
3.0
  9
$TRACEWID
 40
0.05
  9
$TEXTSTYLE
  7
ROMANS2
  9
$CLAYER
  8
1D
  9
$CELTYPE
  6
ByLayer
  9
$CECOLOR
 62
   256
  9
$CELTSCALE
 40
1.0
  9
$DISPSILH
 70
     0
  9
$DIMSCALE
 40
1.0
  9
$DIMASZ
 40
1.0
  9
$DIMEXO
 40
0.1
  9
$DIMDLI
 40
0.38
  9
$DIMRND
 40
0.0
  9
$DIMDLE
 40
0.0
  9
$DIMEXE
 40
0.25
  9
$DIMTP
 40
0.0
  9
$DIMTM
 40
0.0
  9
$DIMTXT
 40
1.0
  9
$DIMCEN
 40
0.09
  9
$DIMTSZ
 40
0.0
  9
$DIMTOL
 70
     0
  9
$DIMLIM
 70
     0
  9
$DIMTIH
 70
     0
  9
$DIMTOH
 70
     0
  9
$DIMSE1
 70
     0
  9
$DIMSE2
 70
     0
  9
$DIMTAD
 70
     0
  9
$DIMZIN
 70
     0
  9
$DIMBLK
  1

  9
$DIMASO
 70
     0
  9
$DIMSHO
 70
     1
  9
$DIMPOST
  1

  9
$DIMAPOST
  1

  9
$DIMALT
 70
     0
  9
$DIMALTD
 70
     2
  9
$DIMALTF
 40
25.4
  9
$DIMLFAC
 40
1.0
  9
$DIMTOFL
 70
     0
  9
$DIMTVP
 40
0.0
  9
$DIMTIX
 70
     0
  9
$DIMSOXD
 70
     0
  9
$DIMSAH
 70
     0
  9
$DIMBLK1
  1

  9
$DIMBLK2
  1

  9
$DIMSTYLE
  2
DM-1-1
  9
$DIMCLRD
 70
   256
  9
$DIMCLRE
 70
   256
  9
$DIMCLRT
 70
   256
  9
$DIMTFAC
 40
1.0
  9
$DIMGAP
 40
0.2
  9
$DIMJUST
 70
     0
  9
$DIMSD1
 70
     0
  9
$DIMSD2
 70
     0
  9
$DIMTOLJ
 70
     1
  9
$DIMTZIN
 70
     0
  9
$DIMALTZ
 70
     0
  9
$DIMALTTZ
 70
     0
  9
$DIMUPT
 70
     0
  9
$DIMDEC
 70
     3
  9
$DIMTDEC
 70
     3
  9
$DIMALTU
 70
     2
  9
$DIMALTTD
 70
     2
  9
$DIMTXSTY
  7
TEXT-1
  9
$DIMAUNIT
 70
     0
  9
$DIMADEC
 70
     0
  9
$DIMALTRND
 40
0.0
  9
$DIMAZIN
 70
     0
  9
$DIMDSEP
 70
    46
  9
$DIMATFIT
 70
     0
  9
$DIMFRAC
 70
     0
  9
$DIMLDRBLK
  1

  9
$DIMLUNIT
 70
     2
  9
$DIMLWD
 70
    -2
  9
$DIMLWE
 70
    -2
  9
$DIMTMOVE
 70
     0
  9
$DIMFXL
 40
1.0
  9
$DIMFXLON
 70
     0
  9
$DIMJOGANG
 40
0.7853981633974483
  9
$DIMTFILL
 70
     0
  9
$DIMTFILLCLR
 70
     0
  9
$DIMARCSYM
 70
     0
  9
$DIMLTYPE
  6

  9
$DIMLTEX1
  6

  9
$DIMLTEX2
  6

  9
$DIMTXTDIRECTION
 70
     0
  9
$LUNITS
 70
     2
  9
$LUPREC
 70
     4
  9
$SKETCHINC
 40
0.1
  9
$FILLETRAD
 40
0.0
  9
$AUNITS
 70
     0
  9
$AUPREC
 70
     0
  9
$MENU
  1
.
  9
$ELEVATION
 40
0.0
  9
$PELEVATION
 40
0.0
  9
$THICKNESS
 40
0.0
  9
$LIMCHECK
 70
     0
  9
$CHAMFERA
 40
0.15
  9
$CHAMFERB
 40
0.15
  9
$CHAMFERC
 40
1.0
  9
$CHAMFERD
 40
0.0
  9
$SKPOLY
 70
     0
  9
$TDCREATE
 40
2453883.125682871
  9
$TDUCREATE
 40
2453882.792357350
  9
$TDUPDATE
 40
2460607.481539352
  9
$TDUUPDATE
 40
2460607.148206019
  9
$TDINDWG
 40
13.3918808102
  9
$TDUSRTIMER
 40
13.3918808102
  9
$USRTIMER
 70
     1
  9
$ANGBASE
 50
0.0
  9
$ANGDIR
 70
     0
  9
$PDMODE
 70
     0
  9
$PDSIZE
 40
0.0
  9
$PLINEWID
 40
0.0
  9
$SPLFRAME
 70
     0
  9
$SPLINETYPE
 70
     6
  9
$SPLINESEGS
 70
     8
  9
$HANDSEED
  5
2F6
  9
$SURFTAB1
 70
     6
  9
$SURFTAB2
 70
     6
  9
$SURFTYPE
 70
     6
  9
$SURFU
 70
     6
  9
$SURFV
 70
     6
  9
$UCSBASE
  2

  9
$UCSNAME
  2

  9
$UCSORG
 10
0.0
 20
0.0
 30
0.0
  9
$UCSXDIR
 10
1.0
 20
0.0
 30
0.0
  9
$UCSYDIR
 10
0.0
 20
1.0
 30
0.0
  9
$UCSORTHOREF
  2

  9
$UCSORTHOVIEW
 70
     0
  9
$UCSORGTOP
 10
0.0
 20
0.0
 30
0.0
  9
$UCSORGBOTTOM
 10
0.0
 20
0.0
 30
0.0
  9
$UCSORGLEFT
 10
0.0
 20
0.0
 30
0.0
  9
$UCSORGRIGHT
 10
0.0
 20
0.0
 30
0.0
  9
$UCSORGFRONT
 10
0.0
 20
0.0
 30
0.0
  9
$UCSORGBACK
 10
0.0
 20
0.0
 30
0.0
  9
$PUCSBASE
  2

  9
$PUCSNAME
  2

  9
$PUCSORG
 10
0.0
 20
0.0
 30
0.0
  9
$PUCSXDIR
 10
1.0
 20
0.0
 30
0.0
  9
$PUCSYDIR
 10
0.0
 20
1.0
 30
0.0
  9
$PUCSORTHOREF
  2

  9
$PUCSORTHOVIEW
 70
     0
  9
$PUCSORGTOP
 10
0.0
 20
0.0
 30
0.0
  9
$PUCSORGBOTTOM
 10
0.0
 20
0.0
 30
0.0
  9
$PUCSORGLEFT
 10
0.0
 20
0.0
 30
0.0
  9
$PUCSORGRIGHT
 10
0.0
 20
0.0
 30
0.0
  9
$PUCSORGFRONT
 10
0.0
 20
0.0
 30
0.0
  9
$PUCSORGBACK
 10
0.0
 20
0.0
 30
0.0
  9
$USERI1
 70
     0
  9
$USERI2
 70
     0
  9
$USERI3
 70
     0
  9
$USERI4
 70
     0
  9
$USERI5
 70
     0
  9
$USERR1
 40
0.0
  9
$USERR2
 40
0.0
  9
$USERR3
 40
0.0
  9
$USERR4
 40
0.0
  9
$USERR5
 40
0.0
  9
$WORLDVIEW
 70
     1
  9
$SHADEDGE
 70
     3
  9
$SHADEDIF
 70
    70
  9
$TILEMODE
 70
     1
  9
$MAXACTVP
 70
    64
  9
$PINSBASE
 10
0.0
 20
0.0
 30
0.0
  9
$PLIMCHECK
 70
     0
  9
$PEXTMIN
 10
1.000000000000000E+20
 20
1.000000000000000E+20
 30
1.000000000000000E+20
  9
$PEXTMAX
 10
-1.000000000000000E+20
 20
-1.000000000000000E+20
 30
-1.000000000000000E+20
  9
$PLIMMIN
 10
0.0
 20
0.0
  9
$PLIMMAX
 10
12.0
 20
9.0
  9
$UNITMODE
 70
     0
  9
$VISRETAIN
 70
     1
  9
$PLINEGEN
 70
     0
  9
$PSLTSCALE
 70
     1
  9
$TREEDEPTH
 70
  3020
  9
$CMLSTYLE
  2
Standard
  9
$CMLJUST
 70
     0
  9
$CMLSCALE
 40
1.0
  9
$PROXYGRAPHICS
 70
     1
  9
$MEASUREMENT
 70
     0
  9
$CELWEIGHT
370
    -1
  9
$ENDCAPS
280
     0
  9
$JOINSTYLE
280
     0
  9
$LWDISPLAY
290
     0
  9
$INSUNITS
 70
     1
  9
$HYPERLINKBASE
  1

  9
$STYLESHEET
  1

  9
$XEDIT
290
     1
  9
$CEPSNTYPE
380
     0
  9
$PSTYLEMODE
290
     1
  9
$FINGERPRINTGUID
  2
{C7D40374-033F-7E42-A017-415C8D8E8A73}
  9
$VERSIONGUID
  2
{5A9910FC-7EF8-6E45-ACE3-A885E4F99EE5}
  9
$EXTNAMES
290
     1
  9
$PSVPSCALE
 40
0.0
  9
$OLESTARTUP
290
     0
  9
$SORTENTS
280
   127
  9
$INDEXCTL
280
     0
  9
$HIDETEXT
280
     1
  9
$XCLIPFRAME
280
     2
  9
$HALOGAP
280
     0
  9
$OBSCOLOR
 70
   257
  9
$OBSLTYPE
280
     0
  9
$INTERSECTIONDISPLAY
280
     0
  9
$INTERSECTIONCOLOR
 70
   257
  9
$DIMASSOC
280
     2
  9
$PROJECTNAME
  1

  9
$CAMERADISPLAY
290
     0
  9
$LENSLENGTH
 40
50.0
  9
$CAMERAHEIGHT
 40
0.0
  9
$STEPSPERSEC
 40
2.0
  9
$STEPSIZE
 40
6.0
  9
$3DDWFPREC
 40
2.0
  9
$PSOLWIDTH
 40
0.25
  9
$PSOLHEIGHT
 40
4.0
  9
$LOFTANG1
 40
1.570796326794896
  9
$LOFTANG2
 40
1.570796326794896
  9
$LOFTMAG1
 40
0.0
  9
$LOFTMAG2
 40
0.0
  9
$LOFTPARAM
 70
     7
  9
$LOFTNORMALS
280
     1
  9
$LATITUDE
 40
37.795
  9
$LONGITUDE
 40
-122.394
  9
$NORTHDIRECTION
 40
0.0
  9
$TIMEZONE
 70
 -8000
  9
$LIGHTGLYPHDISPLAY
280
     1
  9
$TILEMODELIGHTSYNCH
280
     1
  9
$CMATERIAL
347
3E
  9
$SOLIDHIST
280
     1
  9
$SHOWHIST
280
     1
  9
$DWFFRAME
280
     2
  9
$DGNFRAME
280
     0
  9
$REALWORLDSCALE
290
     1
  9
$INTERFERECOLOR
 62
     1
  9
$INTERFEREOBJVS
345
5B
  9
$INTERFEREVPVS
346
5C
  9
$CSHADOW
280
     0
  9
$SHADOWPLANELOCATION
 40
0.0
  0
ENDSEC
  0
SECTION
  2
CLASSES
  0
CLASS
  1
ACDBDICTIONARYWDFLT
  2
AcDbDictionaryWithDefault
  3
ObjectDBX Classes
 90
        0
 91
        1
280
     0
281
     0
  0
CLASS
  1
DICTIONARYVAR
  2
AcDbDictionaryVar
  3
ObjectDBX Classes
 90
        0
 91
       15
280
     0
281
     0
  0
CLASS
  1
TABLESTYLE
  2
AcDbTableStyle
  3
ObjectDBX Classes
 90
     4095
 91
        1
280
     0
281
     0
  0
CLASS
  1
SORTENTSTABLE
  2
AcDbSortentsTable
  3
ObjectDBX Classes
 90
        0
 91
        2
280
     0
281
     0
  0
CLASS
  1
VISUALSTYLE
  2
AcDbVisualStyle
  3
ObjectDBX Classes
 90
     4095
 91
        4
280
     0
281
     0
  0
CLASS
  1
MATERIAL
  2
AcDbMaterial
  3
ObjectDBX Classes
 90
     1153
 91
        3
280
     0
281
     0
  0
CLASS
  1
EXACXREFPANELOBJECT
  2
ExAcXREFPanelObject
  3
EXAC_ESW
 90
     1025
 91
        0
280
     1
281
     0
  0
CLASS
  1
NPOCOLLECTION
  2
AcDbImpNonPersistentObjectsCollection
  3
ObjectDBX Classes
 90
     1153
 91
        0
280
     0
281
     0
  0
CLASS
  1
DIMASSOC
  2
AcDbDimAssoc
  3
"AcDbDimAssoc|Product Desc:     AcDim ARX App For Dimension|Company:          Autodesk, Inc.|WEB Address:      www.autodesk.com"
 90
        0
 91
        4
280
     0
281
     0
  0
CLASS
  1
SCALE
  2
AcDbScale
  3
ObjectDBX Classes
 90
     1153
 91
       33
280
     0
281
     0
  0
CLASS
  1
MLEADERSTYLE
  2
AcDbMLeaderStyle
  3
ACDB_MLEADERSTYLE_CLASS
 90
     4095
 91
        0
280
     0
281
     0
  0
CLASS
  1
ACME_DOCUMENT
  2
AcMeDbDoc
  3
AcMeServices
 90
     1024
 91
        0
280
     1
281
     0
  0
CLASS
  1
ACMESCOPE
  2
AcMeScope
  3
AcMeServices
 90
     1024
 91
        0
280
     1
281
     0
  0
CLASS
  1
ACMECOMMANDHISTORY
  2
AcMeCommandHistory
  3
AcMeServices
 90
     1024
 91
        0
280
     1
281
     0
  0
CLASS
  1
ACIMSYSVARMAN
  2
AcImSysVarManager
  3
AcMeServices
 90
     1024
 91
        0
280
     1
281
     0
  0
CLASS
  1
ACIMINTSYSVAR
  2
AcImIntSysVar
  3
AcMeServices
 90
     1024
 91
        0
280
     1
281
     0
  0
CLASS
  1
ACMEDRAWINGMAN
  2
AcMeDrawingMan
  3
AcMeServices
 90
     1024
 91
        0
280
     1
281
     0
  0
CLASS
  1
ACMEVIEW
  2
AcMeView
  3
AcMeServices
 90
     1024
 91
        0
280
     1
281
     0
  0
CLASS
  1
ACDBENTITYCACHE
  2
AcMeEntityCache
  3
AcMeServices
 90
     1024
 91
        0
280
     1
281
     0
  0
CLASS
  1
ACMESTATEMGR
  2
AcMeStateMgr
  3
AcMeServices
 90
     1024
 91
        0
280
     1
281
     0
  0
CLASS
  1
ACGREFMASTER
  2
AcGrefMaster
  3
AcAttribServices
 90
     1024
 91
        0
280
     1
281
     0
  0
CLASS
  1
AM_DRAWING_MGR
  2
AcDmDwgMgr
  3
AcMechDwgViewMgmt
 90
     1024
 91
        0
280
     1
281
     0
  0
CLASS
  1
AM_DWG_DOCUMENT
  2
AcDmDwgDocument
  3
AcMechDwgViewMgmt
 90
     1024
 91
        0
280
     1
281
     0
  0
CLASS
  1
AM_DWG_SHEET
  2
AcDmSheet
  3
AcMechDwgViewMgmt
 90
     1024
 91
        0
280
     1
281
     0
  0
CLASS
  1
AM_VIEWDIMPARMAP
  2
AcDmViewDimParMap
  3
AcMechDwgViewMgmt
 90
     1024
 91
        0
280
     1
281
     0
  0
CLASS
  1
AMDTINTERNALREACTOR
  2
AmdtInternalReactor
  3
AcMeServices
 90
     1024
 91
        0
280
     1
281
     0
  0
CLASS
  1
ACIMREALSYSVAR
  2
AcImRealSysVar
  3
AcMeServices
 90
     1024
 91
        0
280
     1
281
     0
  0
CLASS
  1
AM_DWGMGR_NAME
  2
AcDmDwgMgrName
  3
AcMechDwgViewMgmt
 90
     1024
 91
        0
280
     1
281
     0
  0
CLASS
  1
ACME_DATABASE
  2
AcMeDbDatabase
  3
AcMeServices
 90
     1024
 91
        0
280
     1
281
     0
  0
CLASS
  1
ACRFINSADJUSTERMGR
  2
AcRfInsAdjusterMgr
  3
AcMeServices
 90
     1024
 91
        0
280
     1
281
     0
  0
CLASS
  1
ACGREFACADMASTER
  2
AcGrefacadMaster
  3
AcGrefServices
 90
     1024
 91
        0
280
     1
281
     0
  0
CLASS
  1
AMDTMENUSTATEMGR
  2
AmdtMenuStateMgr
  3
McadcomServices
 90
     1024
 91
        0
280
     1
281
     0
  0
CLASS
  1
AMDTMCOMMENUSTATE
  2
AmdtMcomMenuState
  3
McadcomServices
 90
     1024
 91
        0
280
     1
281
     0
  0
CLASS
  1
AMIMASTER
  2
AmiMaster
  3
AmiServices
 90
     1024
 91
        0
280
     1
281
     0
  0
CLASS
  1
AMGSETTINGSOBJ
  2
AmgSettingsObj
  3
"AcadM|Product Description: AutoCAD Mechanical|Company: Autodesk, Inc."
 90
     1024
 91
        0
280
     1
281
     0
  0
CLASS
  1
MAPIAMMOUDLE
  2
MApiAmModule
  3
MApiAmServices
 90
     1024
 91
        0
280
     1
281
     0
  0
CLASS
  1
ACIMSTRSYSVAR
  2
AcImStrSysVar
  3
AcMeServices
 90
     1024
 91
        0
280
     1
281
     0
  0
CLASS
  1
AMDTADMENUSTATE
  2
AmdtAdMenuState
  3
DesignerServices
 90
     1024
 91
        0
280
     1
281
     0
  0
CLASS
  1
ADAPPL
  2
AcAdAppl
  3
DesignerServices
 90
     1024
 91
        0
280
     1
281
     0
  0
CLASS
  1
DEPMGR
  2
AcAdDepMgr
  3
DesignerServices
 90
     1024
 91
        0
280
     1
281
     0
  0
CLASS
  1
PARAMMGR
  2
AcAdParamMgr
  3
DesignerServices
 90
     1024
 91
        0
280
     1
281
     0
  0
CLASS
  1
PARAMSCOPE
  2
AcAdParamScope
  3
DesignerServices
 90
     1024
 91
        0
280
     1
281
     0
  0
CLASS
  1
NAMEDAPPL
  2
AcAdNamedAppl
  3
DesignerServices
 90
     1024
 91
        0
280
     1
281
     0
  0
CLASS
  1
AMDTDMMENUSTATE
  2
AmdtDmMenuState
  3
AcMechDwgViewMgmt
 90
     1024
 91
        0
280
     1
281
     0
  0
CLASS
  1
AMDTAMMENUSTATE
  2
AmdtAmMenuState
  3
DesignerAssemblies
 90
     1024
 91
        0
280
     1
281
     0
  0
CLASS
  1
ACAMPROJECT
  2
AcAmProject
  3
DesignerAssemblies
 90
     1024
 91
        0
280
     1
281
     0
  0
CLASS
  1
ACAMGRCOMPDEF
  2
AcAmGrCompDef
  3
DesignerAssemblies
 90
     1024
 91
        0
280
     1
281
     0
  0
CLASS
  1
ACAMCOMPDEF
  2
AcAmCompDef
  3
DesignerAssemblies
 90
     1024
 91
        0
280
     1
281
     0
  0
CLASS
  1
ACAMCOMPDEFMGR
  2
AcAmCompDefMgr
  3
DesignerAssemblies
 90
     1024
 91
        0
280
     1
281
     0
  0
CLASS
  1
AMCONTEXTMGR
  2
AcAmContextMgr
  3
DesignerAssemblies
 90
     1024
 91
        0
280
     1
281
     0
  0
CLASS
  1
ACAMCONTEXTMODELER
  2
AcAmContextModeler
  3
DesignerAssemblies
 90
     1024
 91
        0
280
     1
281
     0
  0
CLASS
  1
ACMDATADICTIONARY
  2
AcmDataDictionary
  3
"AcmSymBB|Product Description: AutoCAD Mechanical|Company: Autodesk, Inc."
 90
     1024
 91
        0
280
     1
281
     0
  0
CLASS
  1
CATALOGSTATE
  2
AcAmCatalogState
  3
DesignerAssemblies
 90
     1024
 91
        0
280
     1
281
     0
  0
CLASS
  1
ACAMGRCOMPDEFSET
  2
AcAmGrCompDefSet
  3
DesignerAssemblies
 90
     1024
 91
        0
280
     1
281
     0
  0
CLASS
  1
AMDTBROWSERDBTAB
  2
AmdtBrowserDbTab
  3
McadcomServices
 90
     1024
 91
        0
280
     1
281
     0
  0
CLASS
  1
CBROWSERAPPOBJECT
  2
CBrowserAppObject
  3
McadcomServices
 90
     1024
 91
        0
280
     1
281
     0
  0
CLASS
  1
DM_PLACEHOLDER
  2
AcDmSelsetPlaceholder
  3
AcMechDwgViewMgmt
 90
     1024
 91
        0
280
     1
281
     0
  0
CLASS
  1
ACMSTANDARDANSI
  2
AcmStandardANSI
  3
"Amdt_StdImp|Product Description: AutoCAD Mechanical|Company: Autodesk, Inc."
 90
     1024
 91
        0
280
     1
281
     0
  0
CLASS
  1
ACMSURFSTANDARDANSI
  2
AcmSurfTextStdANSI
  3
"Amdt_StdImp|Product Description: AutoCAD Mechanical|Company: Autodesk, Inc."
 90
     1024
 91
        0
280
     1
281
     0
  0
CLASS
  1
ACMFCFSTANDARDANSI
  2
AcmFCFStdANSI
  3
"Amdt_StdImp|Product Description: AutoCAD Mechanical|Company: Autodesk, Inc."
 90
     1024
 91
        0
280
     1
281
     0
  0
CLASS
  1
ACMWELDSTANDARDANSI
  2
AcmWeldingStdANSI
  3
"Amdt_StdImp|Product Description: AutoCAD Mechanical|Company: Autodesk, Inc."
 90
     1024
 91
        0
280
     1
281
     0
  0
CLASS
  1
ACMIDSTANDARDANSI
  2
AcmIdStdANSI
  3
"Amdt_StdImp|Product Description: AutoCAD Mechanical|Company: Autodesk, Inc."
 90
     1024
 91
        0
280
     1
281
     0
  0
CLASS
  1
ACMDATUMSTANDARDANSI
  2
AcmDatumStdANSI
  3
"Amdt_StdImp|Product Description: AutoCAD Mechanical|Company: Autodesk, Inc."
 90
     1024
 91
        0
280
     1
281
     0
  0
CLASS
  1
ACMBOMSTANDARDANSI
  2
AcmBOMStdANSI
  3
"Amdt_StdImp|Product Description: AutoCAD Mechanical|Company: Autodesk, Inc."
 90
     1024
 91
        0
280
     1
281
     0
  0
CLASS
  1
ACMDETAILSTANDARDANSI
  2
AmdtDetailSymStdANSI
  3
"Amdt_StdImp|Product Description: AutoCAD Mechanical|Company: Autodesk, Inc."
 90
     1024
 91
        0
280
     1
281
     0
  0
CLASS
  1
ACMSECTIONSTANDARDANSI
  2
AmdtSectionSymStdANSI
  3
"Amdt_StdImp|Product Description: AutoCAD Mechanical|Company: Autodesk, Inc."
 90
     1024
 91
        0
280
     1
281
     0
  0
CLASS
  1
ACMCENTERLINESTANDARDANSI
  2
AmdtCenterLineStdANSI
  3
"Amdt_StdImp|Product Description: AutoCAD Mechanical|Company: Autodesk, Inc."
 90
     1024
 91
        0
280
     1
281
     0
  0
CLASS
  1
ACMTHREADLINESTANDARDANSI
  2
AmdtThreadLineStdANSI
  3
"Amdt_StdImp|Product Description: AutoCAD Mechanical|Company: Autodesk, Inc."
 90
     1024
 91
        0
280
     1
281
     0
  0
CLASS
  1
ACMNOTESTANDARDANSI
  2
AmdtNoteStdANSI
  3
"Amdt_StdImp|Product Description: AutoCAD Mechanical|Company: Autodesk, Inc."
 90
     1024
 91
        0
280
     1
281
     0
  0
CLASS
  1
ACMTAPERSTANDARDANSI
  2
AcmTaperStdANSI
  3
"Amdt_StdImp|Product Description: AutoCAD Mechanical|Company: Autodesk, Inc."
 90
     1024
 91
        0
280
     1
281
     0
  0
CLASS
  1
ACMANOOTATIONVIEWSTANDARDANSI
  2
AmdtAnViewStdANSI
  3
"Amdt_StdImp|Product Description: AutoCAD Mechanical|Company: Autodesk, Inc."
 90
     1024
 91
        0
280
     1
281
     0
  0
CLASS
  1
ACAMGLAYSTD
  2
AcAmgLayStd
  3
"AmgLay|Product Description: AutoCAD Mechanical|Company: Autodesk, Inc."
 90
     1024
 91
        0
280
     1
281
     0
  0
CLASS
  1
ACAMGDIMSTD
  2
AcAmgDimStd
  3
"AmgDim|Product Description: AutoCAD Mechanical|Company: Autodesk, Inc."
 90
     1024
 91
        0
280
     1
281
     0
  0
CLASS
  1
AMGOBJPROPCFG
  2
AmgObjPropCfg
  3
"AmgLay|Product Description: AutoCAD Mechanical|Company: Autodesk, Inc."
 90
     1025
 91
        0
280
     1
281
     0
  0
CLASS
  1
ACAMGHOLECHARTSTDANSI
  2
AcAmgHoleChartStdANSI
  3
AmgDim|Product Description: AutoCAD Mechanical|Company: Autodesk, Inc.
 90
     1024
 91
        0
280
     1
281
     0
  0
CLASS
  1
ACAMGTITLESTD
  2
AcAmgTitleStd
  3
"AmgTitle|Product Description: AutoCAD Mechanical|Company: Autodesk, Inc."
 90
     4095
 91
        0
280
     1
281
     0
  0
CLASS
  1
AMDTNOTETEMPLATEDB
  2
AmdtNoteTemplateDB
  3
AcmSymBB|Product Description: AutoCAD Mechanical|Company: Autodesk, Inc.
 90
     1024
 91
        0
280
     1
281
     0
  0
CLASS
  1
ACAMGFILTERDAT
  2
AcAmgFilterDat
  3
"AcadM|Product Description: AutoCAD Mechanical|Company: Autodesk, Inc."
 90
     1024
 91
        0
280
     1
281
     0
  0
CLASS
  1
CAMSSTRUCTBTNSTATE
  2
StructBtnState
  3
DesignerAssemblies
 90
     1024
 91
        0
280
     1
281
     0
  0
CLASS
  1
ACMSTANDARDISO
  2
AcmStandardISO
  3
"Amdt_StdImp|Product Description: AutoCAD Mechanical|Company: Autodesk, Inc."
 90
     1024
 91
        0
280
     1
281
     0
  0
CLASS
  1
AMDTEDGESTANDARDISO13715
  2
AmdtEdgeStdISO13715
  3
"Amdt_StdImp|Product Description: AutoCAD Mechanical|Company: Autodesk, Inc."
 90
     1024
 91
        0
280
     1
281
     0
  0
CLASS
  1
ACMSURFSTANDARDISO2002
  2
AcmSurfTextStdISO2002
  3
"Amdt_StdImp|Product Description: AutoCAD Mechanical|Company: Autodesk, Inc."
 90
     1024
 91
        0
280
     1
281
     0
  0
CLASS
  1
ACMFCFSTANDARDISO
  2
AcmFCFStdISO
  3
"Amdt_StdImp|Product Description: AutoCAD Mechanical|Company: Autodesk, Inc."
 90
     1024
 91
        0
280
     1
281
     0
  0
CLASS
  1
ACMWELDSTANDARDISO
  2
AcmWeldingStdISO
  3
"Amdt_StdImp|Product Description: AutoCAD Mechanical|Company: Autodesk, Inc."
 90
     1024
 91
        0
280
     1
281
     0
  0
CLASS
  1
ACMIDSTANDARDISO
  2
AcmIdStdISO
  3
"Amdt_StdImp|Product Description: AutoCAD Mechanical|Company: Autodesk, Inc."
 90
     1024
 91
        0
280
     1
281
     0
  0
CLASS
  1
ACMDATUMSTANDARDISO
  2
AcmDatumStdISO
  3
"Amdt_StdImp|Product Description: AutoCAD Mechanical|Company: Autodesk, Inc."
 90
     1024
 91
        0
280
     1
281
     0
  0
CLASS
  1
ACMBOMSTANDARDISO
  2
AcmBOMStdISO
  3
"Amdt_StdImp|Product Description: AutoCAD Mechanical|Company: Autodesk, Inc."
 90
     1024
 91
        0
280
     1
281
     0
  0
CLASS
  1
ACMDETAILSTANDARDISO
  2
AmdtDetailSymStdISO
  3
"Amdt_StdImp|Product Description: AutoCAD Mechanical|Company: Autodesk, Inc."
 90
     1024
 91
        0
280
     1
281
     0
  0
CLASS
  1
ACMSECTIONSTANDARDISO2001
  2
AmdtSectionSymStdISO2001
  3
"Amdt_StdImp|Product Description: AutoCAD Mechanical|Company: Autodesk, Inc."
 90
     1024
 91
        0
280
     1
281
     0
  0
CLASS
  1
ACMCENTERLINESTANDARDISO
  2
AmdtCenterLineStdISO
  3
"Amdt_StdImp|Product Description: AutoCAD Mechanical|Company: Autodesk, Inc."
 90
     1024
 91
        0
280
     1
281
     0
  0
CLASS
  1
ACMTHREADLINESTANDARDISO
  2
AmdtThreadLineStdISO
  3
"Amdt_StdImp|Product Description: AutoCAD Mechanical|Company: Autodesk, Inc."
 90
     1024
 91
        0
280
     1
281
     0
  0
CLASS
  1
ACMNOTESTANDARDISO
  2
AmdtNoteStdISO
  3
"Amdt_StdImp|Product Description: AutoCAD Mechanical|Company: Autodesk, Inc."
 90
     1024
 91
        0
280
     1
281
     0
  0
CLASS
  1
ACMTAPERSTANDARDISO
  2
AcmTaperStdISO
  3
"Amdt_StdImp|Product Description: AutoCAD Mechanical|Company: Autodesk, Inc."
 90
     1024
 91
        0
280
     1
281
     0
  0
CLASS
  1
ACMANOOTATIONVIEWSTANDARDISO
  2
AmdtAnViewStdISO
  3
"Amdt_StdImp|Product Description: AutoCAD Mechanical|Company: Autodesk, Inc."
 90
     1024
 91
        0
280
     1
281
     0
  0
CLASS
  1
ACAMGHOLECHARTSTDISO
  2
AcAmgHoleChartStdISO
  3
AmgDim|Product Description: AutoCAD Mechanical|Company: Autodesk, Inc.
 90
     1024
 91
        0
280
     1
281
     0
  0
CLASS
  1
ACDBASSOCNETWORK
  2
AcDbAssocNetwork
  3
ObjectDBX Classes
 90
     1025
 91
        0
280
     0
281
     0
  0
CLASS
  1
ACDBASSOC2DCONSTRAINTGROUP
  2
AcDbAssoc2dConstraintGroup
  3
ObjectDBX Classes
 90
     1025
 91
        0
280
     0
281
     0
  0
CLASS
  1
ACDBASSOCGEOMDEPENDENCY
  2
AcDbAssocGeomDependency
  3
ObjectDBX Classes
 90
     1025
 91
        0
280
     0
281
     0
  0
CLASS
  1
CELLSTYLEMAP
  2
AcDbCellStyleMap
  3
ObjectDBX Classes
 90
     1152
 91
        1
280
     0
281
     0
  0
CLASS
  1
ACDB_DYNAMICBLOCKPURGEPREVENTER_VERSION
  2
AcDbDynamicBlockPurgePreventer
  3
ObjectDBX Classes
 90
     1153
 91
        0
280
     0
281
     0
  0
CLASS
  1
AEC_REFEDIT_STATUS_TRACKER
  2
AecDbRefEditStatusTracker
  3
AecArchBase80|Product Desc: Autodesk Architectural Desktop 2007 |Company: Autodesk,Inc. |WEB Address: www.autodesk.com
 90
      129
 91
        0
280
     1
281
     0
  0
CLASS
  1
ACMSTANDARDJIS
  2
AcmStandardJIS
  3
"Amdt_StdImp|Product Description: AutoCAD Mechanical|Company: Autodesk, Inc."
 90
     1024
 91
        0
280
     1
281
     0
  0
CLASS
  1
ACMSURFSTANDARDJIS2003
  2
AcmSurfTextStdJIS2003
  3
"Amdt_StdImp|Product Description: AutoCAD Mechanical|Company: Autodesk, Inc."
 90
     1024
 91
        0
280
     1
281
     0
  0
CLASS
  1
ACMFCFSTANDARDJIS98
  2
AcmFCFStdJIS98
  3
"Amdt_StdImp|Product Description: AutoCAD Mechanical|Company: Autodesk, Inc."
 90
     1024
 91
        0
280
     1
281
     0
  0
CLASS
  1
ACMWELDSTANDARDJIS
  2
AcmWeldingStdJIS
  3
"Amdt_StdImp|Product Description: AutoCAD Mechanical|Company: Autodesk, Inc."
 90
     1024
 91
        0
280
     1
281
     0
  0
CLASS
  1
ACMIDSTANDARDJIS
  2
AcmIdStdJIS
  3
"Amdt_StdImp|Product Description: AutoCAD Mechanical|Company: Autodesk, Inc."
 90
     1024
 91
        0
280
     1
281
     0
  0
CLASS
  1
ACMDATUMSTANDARDJIS
  2
AcmDatumStdJIS
  3
"Amdt_StdImp|Product Description: AutoCAD Mechanical|Company: Autodesk, Inc."
 90
     1024
 91
        0
280
     1
281
     0
  0
CLASS
  1
ACMBOMSTANDARDJIS
  2
AcmBOMStdJIS
  3
"Amdt_StdImp|Product Description: AutoCAD Mechanical|Company: Autodesk, Inc."
 90
     1024
 91
        0
280
     1
281
     0
  0
CLASS
  1
ACMDETAILSTANDARDJIS
  2
AmdtDetailSymStdJIS
  3
"Amdt_StdImp|Product Description: AutoCAD Mechanical|Company: Autodesk, Inc."
 90
     1024
 91
        0
280
     1
281
     0
  0
CLASS
  1
ACMSECTIONSTANDARDJIS
  2
AmdtSectionSymStdJIS
  3
"Amdt_StdImp|Product Description: AutoCAD Mechanical|Company: Autodesk, Inc."
 90
     1024
 91
        0
280
     1
281
     0
  0
CLASS
  1
ACMCENTERLINESTANDARDJIS
  2
AmdtCenterLineStdJIS
  3
"Amdt_StdImp|Product Description: AutoCAD Mechanical|Company: Autodesk, Inc."
 90
     1024
 91
        0
280
     1
281
     0
  0
CLASS
  1
ACMTHREADLINESTANDARDJIS
  2
AmdtThreadLineStdJIS
  3
"Amdt_StdImp|Product Description: AutoCAD Mechanical|Company: Autodesk, Inc."
 90
     1024
 91
        0
280
     1
281
     0
  0
CLASS
  1
ACMNOTESTANDARDJIS
  2
AmdtNoteStdJIS
  3
"Amdt_StdImp|Product Description: AutoCAD Mechanical|Company: Autodesk, Inc."
 90
     1024
 91
        0
280
     1
281
     0
  0
CLASS
  1
ACMTAPERSTANDARDJIS
  2
AcmTaperStdJIS
  3
"Amdt_StdImp|Product Description: AutoCAD Mechanical|Company: Autodesk, Inc."
 90
     1024
 91
        0
280
     1
281
     0
  0
CLASS
  1
ACMANOOTATIONVIEWSTANDARDJIS
  2
AmdtAnViewStdJIS
  3
"Amdt_StdImp|Product Description: AutoCAD Mechanical|Company: Autodesk, Inc."
 90
     1024
 91
        0
280
     1
281
     0
  0
CLASS
  1
AMDTEDGESTANDARDJIS
  2
AmdtEdgeStdJIS
  3
"Amdt_StdImp|Product Description: AutoCAD Mechanical|Company: Autodesk, Inc."
 90
     1024
 91
        0
280
     1
281
     0
  0
CLASS
  1
ACAMGHOLECHARTSTDJIS
  2
AcAmgHoleChartStdJIS
  3
AmgDim|Product Description: AutoCAD Mechanical|Company: Autodesk, Inc.
 90
     1024
 91
        0
280
     1
281
     0
  0
CLASS
  1
ACMDATAENTRYBLOCK
  2
AcmDataEntryBlock
  3
AcmSymBB|Product Description: AutoCAD Mechanical|Company: Autodesk, Inc.
 90
     1024
 91
        0
280
     1
281
     0
  0
CLASS
  1
ACDB_MTEXTOBJECTCONTEXTDATA_CLASS
  2
AcDbMTextObjectContextData
  3
ObjectDBX Classes
 90
     1153
 91
        0
280
     0
281
     0
  0
CLASS
  1
MULTILEADER
  2
AcDbMLeader
  3
ACDB_MLEADER_CLASS
 90
     1025
 91
        0
280
     0
281
     1
  0
CLASS
  1
ACDBSECTIONVIEWSTYLE
  2
AcDbSectionViewStyle
  3
ObjectDBX Classes
 90
     1025
 91
        0
280
     0
281
     0
  0
CLASS
  1
ACDBDETAILVIEWSTYLE
  2
AcDbDetailViewStyle
  3
ObjectDBX Classes
 90
     1025
 91
        0
280
     0
281
     0
  0
CLASS
  1
SOLID_BACKGROUND
  2
AcDbSolidBackground
  3
SCENEOE
 90
     4095
 91
        0
280
     0
281
     0
  0
ENDSEC
  0
SECTION
  2
TABLES
  0
TABLE
  2
VPORT
  5
27
102
{ACAD_XDICTIONARY
360
2C
102
}
330
0
100
AcDbSymbolTable
 70
     1
  0
VPORT
  5
28
330
27
100
AcDbSymbolTableRecord
100
AcDbViewportTableRecord
  2
*Active
 70
     0
 10
0.0
 20
0.0
 11
1.0
 21
1.0
 12
-1533.452077004814
 22
470.3568934369323
 13
0.0
 23
0.0
 14
0.5
 24
0.5
 15
0.5
 25
0.5
 16
0.0
 26
0.0
 36
1.0
 17
0.0
 27
0.0
 37
0.0
 40
42.48926714100063
 41
2.570850202429149
 42
50.0
 43
0.0
 44
0.0
 50
0.0
 51
0.0
 71
     0
 72
   100
 73
     1
 74
     2
 75
     0
 76
     0
 77
     0
 78
     0
281
     0
 65
     0
110
0.0
120
0.0
130
0.0
111
1.0
121
0.0
131
0.0
112
0.0
122
1.0
132
0.0
 79
     0
146
0.0
348
29
 60
     3
 61
     5
292
     1
282
     1
141
0.0
142
0.0
 63
   250
421
  3355443
1001
ACAD_NAV_VCDISPLAY
1070
     3
  0
ENDTAB
  0
TABLE
  2
LTYPE
  5
22
330
0
100
AcDbSymbolTable
 70
     3
  0
LTYPE
  5
23
330
22
100
AcDbSymbolTableRecord
100
AcDbLinetypeTableRecord
  2
ByBlock
 70
     0
  3

 72
    65
 73
     0
 40
0.0
  0
LTYPE
  5
24
330
22
100
AcDbSymbolTableRecord
100
AcDbLinetypeTableRecord
  2
ByLayer
 70
     0
  3

 72
    65
 73
     0
 40
0.0
  0
LTYPE
  5
E
330
22
100
AcDbSymbolTableRecord
100
AcDbLinetypeTableRecord
  2
Continuous
 70
     0
  3
Solid line
 72
    65
 73
     0
 40
0.0
  0
LTYPE
  5
91
330
22
100
AcDbSymbolTableRecord
100
AcDbLinetypeTableRecord
  2
CENTER
 70
     0
  3
Center ____ _ ____ _ ____ _ ____ _ ____ _ ____
 72
    65
 73
     4
 40
2.0
 49
1.25
 74
     0
 49
-0.25
 74
     0
 49
0.25
 74
     0
 49
-0.25
 74
     0
  0
LTYPE
  5
A5
330
22
100
AcDbSymbolTableRecord
100
AcDbLinetypeTableRecord
  2
HIDDEN
 70
     0
  3
__ __ __ __ __ __ __ __ __ __ __ __ __ __ __ __
 72
    65
 73
     2
 40
0.375
 49
0.25
 74
     0
 49
-0.125
 74
     0
  0
ENDTAB
  0
TABLE
  2
LAYER
  5
18
102
{ACAD_XDICTIONARY
360
19
102
}
330
0
100
AcDbSymbolTable
 70
    11
  0
LAYER
  5
6
102
{ACAD_XDICTIONARY
360
7
102
}
330
18
100
AcDbSymbolTableRecord
100
AcDbLayerTableRecord
  2
0
 70
     0
 62
     7
  6
Continuous
370
    -3
390
9
347
C
348
0
  0
LAYER
  5
54
102
{ACAD_XDICTIONARY
360
55
102
}
330
18
100
AcDbSymbolTableRecord
100
AcDbLayerTableRecord
  2
1D
 70
     0
 62
     4
  6
Continuous
370
     9
390
9
347
C
348
0
  0
LAYER
  5
DC
330
18
100
AcDbSymbolTableRecord
100
AcDbLayerTableRecord
  2
Defpoints
 70
     0
 62
     7
  6
Continuous
290
     0
370
    -3
390
9
347
C
348
0
  0
LAYER
  5
81
102
{ACAD_XDICTIONARY
360
82
102
}
330
18
100
AcDbSymbolTableRecord
100
AcDbLayerTableRecord
  2
2
 70
     0
 62
     7
  6
Continuous
370
    -3
390
9
347
C
348
0
  0
LAYER
  5
8E
102
{ACAD_XDICTIONARY
360
8F
102
}
330
18
100
AcDbSymbolTableRecord
100
AcDbLayerTableRecord
  2
3D
 70
     0
 62
     4
  6
Continuous
370
    -3
390
9
347
C
348
0
  0
LAYER
  5
2A9
102
{ACAD_XDICTIONARY
360
2AA
102
}
330
18
100
AcDbSymbolTableRecord
100
AcDbLayerTableRecord
  2
LINE
 70
     0
 62
     7
  6
Continuous
370
    -3
390
9
347
C
348
0
  0
LAYER
  5
97
102
{ACAD_XDICTIONARY
360
98
102
}
330
18
100
AcDbSymbolTableRecord
100
AcDbLayerTableRecord
  2
3
 70
     0
 62
     7
  6
Continuous
370
    -3
390
9
347
C
348
0
  0
LAYER
  5
F6
102
{ACAD_XDICTIONARY
360
F7
102
}
330
18
100
AcDbSymbolTableRecord
100
AcDbLayerTableRecord
  2
4D
 70
     0
 62
     4
  6
Continuous
370
    -3
390
9
347
C
348
0
  0
LAYER
  5
A3
102
{ACAD_XDICTIONARY
360
A4
102
}
330
18
100
AcDbSymbolTableRecord
100
AcDbLayerTableRecord
  2
P-L
 70
     0
 62
     7
  6
HIDDEN
370
    13
390
9
347
C
348
0
  0
LAYER
  5
D2
102
{ACAD_XDICTIONARY
360
D3
102
}
330
18
100
AcDbSymbolTableRecord
100
AcDbLayerTableRecord
  2
PKG-OUT
 70
     0
 62
     3
  6
HIDDEN
370
    -3
390
9
347
C
348
0
  0
LAYER
  5
295
330
18
100
AcDbSymbolTableRecord
100
AcDbLayerTableRecord
  2
CENTER
 70
     0
 62
     1
  6
CENTER
370
    -3
390
9
347
C
348
0
  0
ENDTAB
  0
TABLE
  2
STYLE
  5
1F
330
0
100
AcDbSymbolTable
 70
     4
  0
STYLE
  5
20
330
1F
100
AcDbSymbolTableRecord
100
AcDbTextStyleTableRecord
  2
Standard
 70
     0
 40
0.0
 41
1.0
 50
0.0
 71
     0
 42
0.2
  3
txt
  4

  0
STYLE
  5
30
330
1F
100
AcDbSymbolTableRecord
100
AcDbTextStyleTableRecord
  2
TEXT-1
 70
     0
 40
0.0
 41
1.0
 50
0.0
 71
     0
 42
0.2
  3
simplex.shx
  4

  0
STYLE
  5
57
330
1F
100
AcDbSymbolTableRecord
100
AcDbTextStyleTableRecord
  2
ROMANS2
 70
     0
 40
0.0
 41
1.0
 50
0.0
 71
     0
 42
3.0
  3
romantic.ttf
  4

1001
ACAD
1000
Romantic
1071
      514
  0
STYLE
  5
39
330
1F
100
AcDbSymbolTableRecord
100
AcDbTextStyleTableRecord
  2
SIMPLEX
 70
     0
 40
0.0
 41
1.0
 50
0.0
 71
     0
 42
3.5
  3
simplex
  4

  0
ENDTAB
  0
TABLE
  2
VIEW
  5
25
330
0
100
AcDbSymbolTable
 70
     0
  0
ENDTAB
  0
TABLE
  2
UCS
  5
26
330
0
100
AcDbSymbolTable
 70
     0
  0
ENDTAB
  0
TABLE
  2
APPID
  5
2D
330
0
100
AcDbSymbolTable
 70
    11
  0
APPID
  5
1D
330
2D
100
AcDbSymbolTableRecord
100
AcDbRegAppTableRecord
  2
ACAD
 70
     0
  0
APPID
  5
13
330
2D
100
AcDbSymbolTableRecord
100
AcDbRegAppTableRecord
  2
ACAD_PSEXT
 70
     0
  0
APPID
  5
35
330
2D
100
AcDbSymbolTableRecord
100
AcDbRegAppTableRecord
  2
ACADSTRINGINFO
 70
     0
  0
APPID
  5
32
330
2D
100
AcDbSymbolTableRecord
100
AcDbRegAppTableRecord
  2
ACAD_DSTYLE_DIMJAG
 70
     0
  0
APPID
  5
33
330
2D
100
AcDbSymbolTableRecord
100
AcDbRegAppTableRecord
  2
ACAD_DSTYLE_DIMTALN
 70
     0
  0
APPID
  5
31
330
2D
100
AcDbSymbolTableRecord
100
AcDbRegAppTableRecord
  2
ACAD_DSTYLE_DIMBREAK
 70
     0
  0
APPID
  5
F4
330
2D
100
AcDbSymbolTableRecord
100
AcDbRegAppTableRecord
  2
ACAD_DSTYLE_DIMINSPECT
 70
     0
  0
APPID
  5
2A6
330
2D
100
AcDbSymbolTableRecord
100
AcDbRegAppTableRecord
  2
ACAD_DSTYLE_DIMRADIAL_EXTENSION
 70
     0
  0
APPID
  5
2B
330
2D
100
AcDbSymbolTableRecord
100
AcDbRegAppTableRecord
  2
ACAD_NAV_VCDISPLAY
 70
     0
  0
APPID
  5
B8
330
2D
100
AcDbSymbolTableRecord
100
AcDbRegAppTableRecord
  2
GradientColor1ACI
 70
     0
  0
APPID
  5
B9
330
2D
100
AcDbSymbolTableRecord
100
AcDbRegAppTableRecord
  2
GradientColor2ACI
 70
     0
  0
ENDTAB
  0
TABLE
  2
DIMSTYLE
  5
2E
330
0
100
AcDbSymbolTable
 70
     5
100
AcDbDimStyleTable
 71
     5
340
2F
340
34
340
36
340
37
340
38
  0
DIMSTYLE
105
2F
330
2E
100
AcDbSymbolTableRecord
100
AcDbDimStyleTableRecord
  2
DM-1-1
 70
     0
 41
1.0
 42
0.1
 44
0.25
 73
     0
 74
     0
140
1.0
147
0.2
176
   256
177
   256
178
   256
271
     3
272
     3
289
     0
340
30
1001
ACAD_DSTYLE_DIMBREAK
1070
   391
1040
0.125
1001
ACAD_DSTYLE_DIMJAG
1070
   388
1040
1.5
1001
ACAD_DSTYLE_DIMTALN
1070
   392
1070
     0
  0
DIMSTYLE
105
34
102
{ACAD_REACTORS
330
D4
330
E0
330
E9
330
1C2
330
1CD
330
1D6
330
277
330
280
330
28B
330
298
330
2CD
330
2DB
330
2BF
330
2B4
102
}
330
2E
100
AcDbSymbolTableRecord
100
AcDbDimStyleTableRecord
  2
複本 DM-1-1
 70
     0
 41
0.1
 42
0.01
 44
0.025
 73
     0
 74
     0
140
0.3
141
0.04
147
0.02
176
   256
177
   256
178
   256
271
     3
272
     3
289
     0
340
30
1001
ACAD_DSTYLE_DIMBREAK
1070
   391
1040
0.125
1001
ACAD_DSTYLE_DIMJAG
1070
   388
1040
0.5
1001
ACAD_DSTYLE_DIMTALN
1070
   392
1070
     0
1001
ACADSTRINGINFO
1000
MIFCodePage
1070
     2
  0
DIMSTYLE
105
37
330
2E
100
AcDbSymbolTableRecord
100
AcDbDimStyleTableRecord
  2
DM-1
 70
     0
 41
0.1
 42
0.02
 44
0.07
 73
     0
 74
     0
 77
     3
140
0.1
141
0.3
147
0.025
271
     3
272
     3
340
30
  0
DIMSTYLE
105
38
330
2E
100
AcDbSymbolTableRecord
100
AcDbDimStyleTableRecord
  2
ISO-25
 70
     0
 41
5.0
 42
0.625
 43
3.75
 44
1.25
 73
     0
 74
     0
 77
     1
 78
     1
140
2.5
141
2.5
143
0.03937007874016
147
0.85
171
     3
172
     1
274
     3
283
     0
284
     8
289
     0
340
39
  0
DIMSTYLE
105
36
330
2E
100
AcDbSymbolTableRecord
100
AcDbDimStyleTableRecord
  2
複本 DM-1-5
 70
     0
 41
1.0
 42
0.1
 44
0.25
 73
     0
 74
     0
140
1.0
144
5.0
147
0.2
176
   256
177
   256
178
   256
271
     3
272
     3
289
     0
340
30
1001
ACAD_DSTYLE_DIMBREAK
1070
   391
1040
0.125
1001
ACAD_DSTYLE_DIMJAG
1070
   388
1040
1.5
1001
ACAD_DSTYLE_DIMTALN
1070
   392
1070
     0
1001
ACADSTRINGINFO
1000
MIFCodePage
1070
     2
  0
ENDTAB
  0
TABLE
  2
BLOCK_RECORD
  5
1
330
0
100
AcDbSymbolTable
 70
    14
  0
BLOCK_RECORD
  5
2
102
{ACAD_XDICTIONARY
360
3
102
}
330
1
100
AcDbSymbolTableRecord
100
AcDbBlockTableRecord
  2
*Model_Space
340
10
 70
     0
280
     1
281
     0
  0
BLOCK_RECORD
  5
14
330
1
100
AcDbSymbolTableRecord
100
AcDbBlockTableRecord
  2
*Paper_Space
340
17
 70
     0
280
     1
281
     0
  0
BLOCK_RECORD
  5
D7
330
1
100
AcDbSymbolTableRecord
100
AcDbBlockTableRecord
  2
*D0
340
0
 70
     0
280
     1
281
     0
  0
BLOCK_RECORD
  5
E1
330
1
100
AcDbSymbolTableRecord
100
AcDbBlockTableRecord
  2
*D1
340
0
 70
     0
280
     1
281
     0
  0
BLOCK_RECORD
  5
EA
330
1
100
AcDbSymbolTableRecord
100
AcDbBlockTableRecord
  2
*D2
340
0
 70
     0
280
     1
281
     0
  0
BLOCK_RECORD
  5
1CE
330
1
100
AcDbSymbolTableRecord
100
AcDbBlockTableRecord
  2
*D3
340
0
 70
     0
280
     1
281
     0
  0
BLOCK_RECORD
  5
1D7
330
1
100
AcDbSymbolTableRecord
100
AcDbBlockTableRecord
  2
*D4
340
0
 70
     0
280
     1
281
     0
  0
BLOCK_RECORD
  5
1C5
330
1
100
AcDbSymbolTableRecord
100
AcDbBlockTableRecord
  2
*D5
340
0
 70
     0
280
     1
281
     0
  0
BLOCK_RECORD
  5
278
330
1
100
AcDbSymbolTableRecord
100
AcDbBlockTableRecord
  2
*D6
340
0
 70
     0
280
     1
281
     0
  0
BLOCK_RECORD
  5
283
330
1
100
AcDbSymbolTableRecord
100
AcDbBlockTableRecord
  2
*D7
340
0
 70
     0
280
     1
281
     0
  0
BLOCK_RECORD
  5
28C
330
1
100
AcDbSymbolTableRecord
100
AcDbBlockTableRecord
  2
*D8
340
0
 70
     0
280
     1
281
     0
  0
BLOCK_RECORD
  5
29B
330
1
100
AcDbSymbolTableRecord
100
AcDbBlockTableRecord
  2
*D9
340
0
 70
     0
280
     1
281
     0
  0
BLOCK_RECORD
  5
2B5
330
1
100
AcDbSymbolTableRecord
100
AcDbBlockTableRecord
  2
*D10
340
0
 70
     0
280
     1
281
     0
  0
BLOCK_RECORD
  5
2C0
330
1
100
AcDbSymbolTableRecord
100
AcDbBlockTableRecord
  2
*D11
340
0
 70
     0
280
     1
281
     0
  0
BLOCK_RECORD
  5
2CE
330
1
100
AcDbSymbolTableRecord
100
AcDbBlockTableRecord
  2
*D12
340
0
 70
     0
280
     1
281
     0
  0
BLOCK_RECORD
  5
2DC
330
1
100
AcDbSymbolTableRecord
100
AcDbBlockTableRecord
  2
*D13
340
0
 70
     0
280
     1
281
     0
  0
ENDTAB
  0
ENDSEC
  0
SECTION
  2
BLOCKS
  0
BLOCK
  5
5
330
2
100
AcDbEntity
  8
0
100
AcDbBlockBegin
  2
*Model_Space
 70
     0
 10
0.0
 20
0.0
 30
0.0
  3
*Model_Space
  1

  0
ENDBLK
  5
F
330
2
100
AcDbEntity
  8
0
100
AcDbBlockEnd
  0
BLOCK
  5
15
330
14
100
AcDbEntity
 67
     1
  8
0
100
AcDbBlockBegin
  2
*Paper_Space
 70
     0
 10
0.0
 20
0.0
 30
0.0
  3
*Paper_Space
  1

  0
ENDBLK
  5
16
330
14
100
AcDbEntity
 67
     1
  8
0
100
AcDbBlockEnd
  0
BLOCK
  5
D8
330
D7
100
AcDbEntity
  8
0
100
AcDbBlockBegin
  2
*D0
 70
     1
 10
0.0
 20
0.0
 30
0.0
  3
*D0
  1

  0
LINE
  5
D9
330
D7
100
AcDbEntity
  8
1D
440
 16777216
370
    -2
100
AcDbLine
 10
-1545.350777876075
 20
476.3839918354636
 30
0.0
 11
-1545.350777876075
 21
479.7874168893608
 31
0.0
  0
MTEXT
  5
DA
330
D7
100
AcDbEntity
  8
1D
440
 16777216
100
AcDbMText
 10
-1545.350777876075
 20
480.4074168893604
 30
0.0
 40
0.3
 41
0.0
 46
0.0
 71
     5
 72
     1
  1
\A1;0.000
  7
TEXT-1
 11
0.0000000000000001
 21
1.0
 31
0.0
 73
     1
 44
1.0
  0
POINT
  5
DB
330
D7
100
AcDbEntity
  8
Defpoints
 62
     0
440
 16777216
100
AcDbPoint
 10
-1545.350777876075
 20
476.3739918354636
 30
0.0
  0
POINT
  5
DD
330
D7
100
AcDbEntity
  8
Defpoints
 62
     0
440
 16777216
100
AcDbPoint
 10
-1545.350777876075
 20
479.7874168893608
 30
0.0
  0
POINT
  5
DE
330
D7
100
AcDbEntity
  8
Defpoints
 62
     0
440
 16777216
100
AcDbPoint
 10
-1545.350777876075
 20
475.2612135970121
 30
0.0
  0
ENDBLK
  5
DF
330
D7
100
AcDbEntity
  8
0
100
AcDbBlockEnd
  0
BLOCK
  5
E2
330
E1
100
AcDbEntity
  8
0
100
AcDbBlockBegin
  2
*D1
 70
     1
 10
0.0
 20
0.0
 30
0.0
  3
*D1
  1

  0
LINE
  5
E3
330
E1
100
AcDbEntity
  8
1D
440
 16777216
370
    -2
100
AcDbLine
 10
-1544.227999637623
 20
475.2612135970121
 30
0.0
 11
-1539.686362916131
 21
475.2612135970121
 31
0.0
  0
MTEXT
  5
E4
330
E1
100
AcDbEntity
  8
1D
440
 16777216
100
AcDbMText
 10
-1539.066362916132
 20
475.2612135970121
 30
0.0
 40
0.3
 41
0.0
 46
0.0
 71
     5
 72
     1
  1
\A1;0.000
  7
TEXT-1
 73
     1
 44
1.0
  0
POINT
  5
E5
330
E1
100
AcDbEntity
  8
Defpoints
 62
     0
440
 16777216
100
AcDbPoint
 10
-1544.237999637623
 20
475.2612135970121
 30
0.0
  0
POINT
  5
E6
330
E1
100
AcDbEntity
  8
Defpoints
 62
     0
440
 16777216
100
AcDbPoint
 10
-1539.686362916131
 20
475.2612135970121
 30
0.0
  0
POINT
  5
E7
330
E1
100
AcDbEntity
  8
Defpoints
 62
     0
440
 16777216
100
AcDbPoint
 10
-1545.350777876075
 20
475.2612135970121
 30
0.0
  0
ENDBLK
  5
E8
330
E1
100
AcDbEntity
  8
0
100
AcDbBlockEnd
  0
BLOCK
  5
EB
330
EA
100
AcDbEntity
  8
0
100
AcDbBlockBegin
  2
*D2
 70
     1
 10
0.0
 20
0.0
 30
0.0
  3
*D2
  1

  0
LINE
  5
EC
330
EA
100
AcDbEntity
  8
1D
440
 16777216
370
    -2
100
AcDbLine
 10
-1543.235777876243
 20
472.5944573612377
 30
0.0
 11
-1541.74605684988
 21
472.5944573612377
 31
0.0
  0
LINE
  5
ED
330
EA
100
AcDbEntity
  8
1D
440
 16777216
370
    -2
100
AcDbLine
 10
-1541.74605684988
 20
472.5944573612377
 30
0.0
 11
-1541.546056849879
 21
472.5947061481072
 31
0.0
  0
LINE
  5
EE
330
EA
100
AcDbEntity
  8
1D
440
 16777216
370
    -2
100
AcDbLine
 10
-1541.546056849879
 20
472.5947061481072
 30
0.0
 11
-1541.34605684988
 21
472.5947061481072
 31
0.0
  0
MTEXT
  5
EF
330
EA
100
AcDbEntity
  8
1D
440
 16777216
100
AcDbMText
 10
-1539.897485421308
 20
472.5947061481072
 30
0.0
 40
0.3
 41
0.0
 46
0.0
 71
     5
 72
     1
  1
\A1;2.667%%p0.075
  7
TEXT-1
 73
     1
 44
1.0
  0
POINT
  5
F0
330
EA
100
AcDbEntity
  8
Defpoints
 62
     0
440
 16777216
100
AcDbPoint
 10
-1543.245777876243
 20
472.5944573612377
 30
0.0
  0
POINT
  5
F1
330
EA
100
AcDbEntity
  8
Defpoints
 62
     0
440
 16777216
100
AcDbPoint
 10
-1541.34605684988
 20
472.5947061481072
 30
0.0
  0
POINT
  5
F2
330
EA
100
AcDbEntity
  8
Defpoints
 62
     0
440
 16777216
100
AcDbPoint
 10
-1545.350777876075
 20
475.2612135970121
 30
0.0
  0
ENDBLK
  5
F3
330
EA
100
AcDbEntity
  8
0
100
AcDbBlockEnd
  0
BLOCK
  5
1CF
330
1CE
100
AcDbEntity
  8
0
 62
     0
100
AcDbBlockBegin
  2
*D3
 70
     1
 10
0.0
 20
0.0
 30
0.0
  3
*D3
  1

  0
LINE
  5
1D0
330
1CE
100
AcDbEntity
  8
1D
440
 16777216
370
    -2
100
AcDbLine
 10
-1532.761836730782
 20
475.2612135970121
 30
0.0
 11
-1528.22020000929
 21
475.2612135970121
 31
0.0
  0
MTEXT
  5
1D1
330
1CE
100
AcDbEntity
  8
1D
440
 16777216
100
AcDbMText
 10
-1527.60020000929
 20
475.2612135970121
 30
0.0
 40
0.3
 41
0.0
 46
0.0
 71
     5
 72
     1
  1
\A1;0.000
  7
TEXT-1
 73
     1
 44
1.0
  0
POINT
  5
1D2
330
1CE
100
AcDbEntity
  8
Defpoints
 62
     0
440
 16777216
100
AcDbPoint
 10
-1532.771836730782
 20
475.2612135970121
 30
0.0
  0
POINT
  5
1D3
330
1CE
100
AcDbEntity
  8
Defpoints
 62
     0
440
 16777216
100
AcDbPoint
 10
-1528.22020000929
 20
475.2612135970121
 30
0.0
  0
POINT
  5
1D4
330
1CE
100
AcDbEntity
  8
Defpoints
 62
     0
440
 16777216
100
AcDbPoint
 10
-1533.884614969233
 20
475.2612135970121
 30
0.0
  0
ENDBLK
  5
1D5
330
1CE
100
AcDbEntity
  8
0
 62
     0
100
AcDbBlockEnd
  0
BLOCK
  5
1D8
330
1D7
100
AcDbEntity
  8
0
 62
     0
100
AcDbBlockBegin
  2
*D4
 70
     1
 10
0.0
 20
0.0
 30
0.0
  3
*D4
  1

  0
LINE
  5
1D9
330
1D7
100
AcDbEntity
  8
1D
440
 16777216
370
    -2
100
AcDbLine
 10
-1531.769614969402
 20
472.5944573612377
 30
0.0
 11
-1530.279893943038
 21
472.5944573612377
 31
0.0
  0
LINE
  5
1DA
330
1D7
100
AcDbEntity
  8
1D
440
 16777216
370
    -2
100
AcDbLine
 10
-1530.279893943038
 20
472.5944573612377
 30
0.0
 11
-1530.079893943038
 21
472.5947061481072
 31
0.0
  0
LINE
  5
1DB
330
1D7
100
AcDbEntity
  8
1D
440
 16777216
370
    -2
100
AcDbLine
 10
-1530.079893943038
 20
472.5947061481072
 30
0.0
 11
-1529.879893943038
 21
472.5947061481072
 31
0.0
  0
MTEXT
  5
1DC
330
1D7
100
AcDbEntity
  8
1D
440
 16777216
100
AcDbMText
 10
-1528.431322514467
 20
472.5947061481072
 30
0.0
 40
0.3
 41
0.0
 46
0.0
 71
     5
 72
     1
  1
\A1;2.667%%p0.075
  7
TEXT-1
 73
     1
 44
1.0
  0
POINT
  5
1DD
330
1D7
100
AcDbEntity
  8
Defpoints
 62
     0
440
 16777216
100
AcDbPoint
 10
-1531.779614969402
 20
472.5944573612377
 30
0.0
  0
POINT
  5
1DE
330
1D7
100
AcDbEntity
  8
Defpoints
 62
     0
440
 16777216
100
AcDbPoint
 10
-1529.879893943038
 20
472.5947061481072
 30
0.0
  0
POINT
  5
1DF
330
1D7
100
AcDbEntity
  8
Defpoints
 62
     0
440
 16777216
100
AcDbPoint
 10
-1533.884614969233
 20
475.2612135970121
 30
0.0
  0
ENDBLK
  5
1E0
330
1D7
100
AcDbEntity
  8
0
 62
     0
100
AcDbBlockEnd
  0
BLOCK
  5
1C6
330
1C5
100
AcDbEntity
  8
0
 62
     0
100
AcDbBlockBegin
  2
*D5
 70
     1
 10
0.0
 20
0.0
 30
0.0
  3
*D5
  1

  0
LINE
  5
1C7
330
1C5
100
AcDbEntity
  8
1D
440
 16777216
370
    -2
100
AcDbLine
 10
-1533.884614969233
 20
476.3839918354636
 30
0.0
 11
-1533.884614969233
 21
479.7874168893608
 31
0.0
  0
MTEXT
  5
1C8
330
1C5
100
AcDbEntity
  8
1D
440
 16777216
100
AcDbMText
 10
-1533.884614969233
 20
480.4074168893604
 30
0.0
 40
0.3
 41
0.0
 46
0.0
 71
     5
 72
     1
  1
\A1;0.000
  7
TEXT-1
 11
0.0000000000000001
 21
1.0
 31
0.0
 73
     1
 44
1.0
  0
POINT
  5
1C9
330
1C5
100
AcDbEntity
  8
Defpoints
 62
     0
440
 16777216
100
AcDbPoint
 10
-1533.884614969233
 20
476.3739918354636
 30
0.0
  0
POINT
  5
1CA
330
1C5
100
AcDbEntity
  8
Defpoints
 62
     0
440
 16777216
100
AcDbPoint
 10
-1533.884614969233
 20
479.7874168893608
 30
0.0
  0
POINT
  5
1CB
330
1C5
100
AcDbEntity
  8
Defpoints
 62
     0
440
 16777216
100
AcDbPoint
 10
-1533.884614969233
 20
475.2612135970121
 30
0.0
  0
ENDBLK
  5
1CC
330
1C5
100
AcDbEntity
  8
0
 62
     0
100
AcDbBlockEnd
  0
BLOCK
  5
279
330
278
100
AcDbEntity
  8
0
 62
     0
100
AcDbBlockBegin
  2
*D6
 70
     1
 10
0.0
 20
0.0
 30
0.0
  3
*D6
  1

  0
LINE
  5
27A
330
278
100
AcDbEntity
  8
1D
440
 16777216
370
    -2
100
AcDbLine
 10
-1531.769614969338
 20
477.9862138718788
 30
0.0
 11
-1529.557333342965
 21
477.9862138718788
 31
0.0
  0
MTEXT
  5
27B
330
278
100
AcDbEntity
  8
1D
440
 16777216
100
AcDbMText
 10
-1528.937333342965
 20
477.9862138718788
 30
0.0
 40
0.3
 41
0.0
 46
0.0
 71
     5
 72
     1
  1
\A1;2.725
  7
TEXT-1
 73
     1
 44
1.0
  0
POINT
  5
27C
330
278
100
AcDbEntity
  8
Defpoints
 62
     0
440
 16777216
100
AcDbPoint
 10
-1531.779614969338
 20
477.9862138718788
 30
0.0
  0
POINT
  5
27D
330
278
100
AcDbEntity
  8
Defpoints
 62
     0
440
 16777216
100
AcDbPoint
 10
-1529.557333342965
 20
477.9862138718788
 30
0.0
  0
POINT
  5
27E
330
278
100
AcDbEntity
  8
Defpoints
 62
     0
440
 16777216
100
AcDbPoint
 10
-1533.884614969233
 20
475.2612135970121
 30
0.0
  0
ENDBLK
  5
27F
330
278
100
AcDbEntity
  8
0
 62
     0
100
AcDbBlockEnd
  0
BLOCK
  5
284
330
283
100
AcDbEntity
  8
0
 62
     0
100
AcDbBlockBegin
  2
*D7
 70
     1
 10
0.0
 20
0.0
 30
0.0
  3
*D7
  1

  0
LINE
  5
285
330
283
100
AcDbEntity
  8
1D
440
 16777216
370
    -2
100
AcDbLine
 10
-1536.134605859327
 20
474.7712134823355
 30
0.0
 11
-1536.134605859327
 21
479.6412944840028
 31
0.0
  0
MTEXT
  5
286
330
283
100
AcDbEntity
  8
1D
440
 16777216
100
AcDbMText
 10
-1536.134605859327
 20
481.0898659125741
 30
0.0
 40
0.3
 41
0.0
 46
0.0
 71
     5
 72
     1
  1
\A1;2.250%%p0.075
  7
TEXT-1
 11
0.0000000000000001
 21
1.0
 31
0.0
 73
     1
 44
1.0
  0
POINT
  5
287
330
283
100
AcDbEntity
  8
Defpoints
 62
     0
440
 16777216
100
AcDbPoint
 10
-1536.134605859327
 20
474.7612134823357
 30
0.0
  0
POINT
  5
288
330
283
100
AcDbEntity
  8
Defpoints
 62
     0
440
 16777216
100
AcDbPoint
 10
-1536.134605859327
 20
479.6412944840028
 30
0.0
  0
POINT
  5
289
330
283
100
AcDbEntity
  8
Defpoints
 62
     0
440
 16777216
100
AcDbPoint
 10
-1533.884614969233
 20
475.2612135970121
 30
0.0
  0
ENDBLK
  5
28A
330
283
100
AcDbEntity
  8
0
 62
     0
100
AcDbBlockEnd
  0
BLOCK
  5
28D
330
28C
100
AcDbEntity
  8
0
 62
     0
100
AcDbBlockBegin
  2
*D8
 70
     1
 10
0.0
 20
0.0
 30
0.0
  3
*D8
  1

  0
LINE
  5
28E
330
28C
100
AcDbEntity
  8
1D
440
 16777216
370
    -2
100
AcDbLine
 10
-1531.634624079139
 20
474.7712134823355
 30
0.0
 11
-1531.634624079139
 21
479.6412944840028
 31
0.0
  0
MTEXT
  5
28F
330
28C
100
AcDbEntity
  8
1D
440
 16777216
100
AcDbMText
 10
-1531.634624079139
 20
481.0898659125741
 30
0.0
 40
0.3
 41
0.0
 46
0.0
 71
     5
 72
     1
  1
\A1;2.250%%p0.075
  7
TEXT-1
 11
0.0000000000000001
 21
1.0
 31
0.0
 73
     1
 44
1.0
  0
POINT
  5
290
330
28C
100
AcDbEntity
  8
Defpoints
 62
     0
440
 16777216
100
AcDbPoint
 10
-1531.634624079139
 20
474.7612134823357
 30
0.0
  0
POINT
  5
291
330
28C
100
AcDbEntity
  8
Defpoints
 62
     0
440
 16777216
100
AcDbPoint
 10
-1531.634624079139
 20
479.6412944840028
 30
0.0
  0
POINT
  5
292
330
28C
100
AcDbEntity
  8
Defpoints
 62
     0
440
 16777216
100
AcDbPoint
 10
-1533.884614969233
 20
475.2612135970121
 30
0.0
  0
ENDBLK
  5
293
330
28C
100
AcDbEntity
  8
0
 62
     0
100
AcDbBlockEnd
  0
BLOCK
  5
29C
330
29B
100
AcDbEntity
  8
0
100
AcDbBlockBegin
  2
*D9
 70
     1
 10
0.0
 20
0.0
 30
0.0
  3
*D9
  1

  0
LINE
  5
29D
330
29B
100
AcDbEntity
  8
1D
440
 16777216
370
    -2
100
AcDbLine
 10
-1543.195782884883
 20
473.2474585926196
 30
0.0
 11
-1541.347352988872
 21
473.2604093003693
 31
0.0
  0
SOLID
  5
29E
330
29B
100
AcDbEntity
  8
1D
440
 16777216
100
AcDbTrace
 10
-1543.195899654165
 20
473.2641248502291
 30
0.0
 11
-1543.195666115601
 21
473.2307923350098
 31
0.0
 12
-1543.295780430541
 22
473.2467579769282
 32
0.0
 13
-1543.295780430541
 23
473.2467579769282
 33
0.0
  0
MTEXT
  5
2A0
330
29B
100
AcDbEntity
  8
1D
440
 16777216
100
AcDbMText
 10
-1540.591657250969
 20
473.2657039532375
 30
0.0
 40
0.3
 41
0.0
 46
0.0
 71
     5
 72
     1
  1
\A1;∅0.200
  7
TEXT-1
 11
0.9999754565814615
 21
0.0070061569135722
 31
0.0
 73
     1
 44
1.0
  0
LINE
  5
2A1
330
29B
100
AcDbEntity
  8
1D
440
 16777216
370
    -2
100
AcDbLine
 10
-1543.435777976199
 20
473.2460573612367
 30
0.0
 11
-1543.355777976199
 21
473.2460573612367
 31
0.0
  0
LINE
  5
2A2
330
29B
100
AcDbEntity
  8
1D
440
 16777216
370
    -2
100
AcDbLine
 10
-1543.395777976199
 20
473.2060573612367
 30
0.0
 11
-1543.395777976199
 21
473.2860573612368
 31
0.0
  0
POINT
  5
2A3
330
29B
100
AcDbEntity
  8
Defpoints
 62
     0
440
 16777216
100
AcDbPoint
 10
-1543.295780430541
 20
473.2467579769282
 30
0.0
  0
POINT
  5
2A4
330
29B
100
AcDbEntity
  8
Defpoints
 62
     0
440
 16777216
100
AcDbPoint
 10
-1543.495775521857
 20
473.2453567455455
 30
0.0
  0
ENDBLK
  5
2A5
330
29B
100
AcDbEntity
  8
0
100
AcDbBlockEnd
  0
BLOCK
  5
2B6
330
2B5
100
AcDbEntity
  8
0
100
AcDbBlockBegin
  2
*D10
 70
     1
 10
0.0
 20
0.0
 30
0.0
  3
*D10
  1

  0
LINE
  5
2B7
330
2B5
100
AcDbEntity
  8
1D
440
 16777216
370
    -2
100
AcDbLine
 10
-1543.235777876243
 20
472.5944573612376
 30
0.0
 11
-1541.74605684988
 21
472.5944573612376
 31
0.0
  0
LINE
  5
2B8
330
2B5
100
AcDbEntity
  8
1D
440
 16777216
370
    -2
100
AcDbLine
 10
-1541.74605684988
 20
472.5944573612376
 30
0.0
 11
-1541.54605684988
 21
472.5947061481071
 31
0.0
  0
LINE
  5
2B9
330
2B5
100
AcDbEntity
  8
1D
440
 16777216
370
    -2
100
AcDbLine
 10
-1541.54605684988
 20
472.5947061481071
 30
0.0
 11
-1541.34605684988
 21
472.5947061481071
 31
0.0
  0
MTEXT
  5
2BA
330
2B5
100
AcDbEntity
  8
1D
440
 16777216
100
AcDbMText
 10
-1539.897485421308
 20
472.5947061481071
 30
0.0
 40
0.3
 41
0.0
 46
0.0
 71
     5
 72
     1
  1
\A1;2.667%%p0.075
  7
TEXT-1
 73
     1
 44
1.0
  0
POINT
  5
2BB
330
2B5
100
AcDbEntity
  8
Defpoints
 62
     0
440
 16777216
100
AcDbPoint
 10
-1543.245777876243
 20
472.5944573612376
 30
0.0
  0
POINT
  5
2BC
330
2B5
100
AcDbEntity
  8
Defpoints
 62
     0
440
 16777216
100
AcDbPoint
 10
-1541.34605684988
 20
472.5947061481071
 30
0.0
  0
POINT
  5
2BD
330
2B5
100
AcDbEntity
  8
Defpoints
 62
     0
440
 16777216
100
AcDbPoint
 10
-1545.350777876075
 20
475.2612135970121
 30
0.0
  0
ENDBLK
  5
2BE
330
2B5
100
AcDbEntity
  8
0
100
AcDbBlockEnd
  0
BLOCK
  5
2C1
330
2C0
100
AcDbEntity
  8
0
100
AcDbBlockBegin
  2
*D11
 70
     1
 10
0.0
 20
0.0
 30
0.0
  3
*D11
  1

  0
LINE
  5
2C2
330
2C0
100
AcDbEntity
  8
1D
440
 16777216
370
    -2
100
AcDbLine
 10
-1531.769614969402
 20
472.5944573612376
 30
0.0
 11
-1530.279893943039
 21
472.5944573612376
 31
0.0
  0
LINE
  5
2C3
330
2C0
100
AcDbEntity
  8
1D
440
 16777216
370
    -2
100
AcDbLine
 10
-1530.279893943039
 20
472.5944573612376
 30
0.0
 11
-1530.079893943038
 21
472.5947061481071
 31
0.0
  0
LINE
  5
2C4
330
2C0
100
AcDbEntity
  8
1D
440
 16777216
370
    -2
100
AcDbLine
 10
-1530.079893943038
 20
472.5947061481071
 30
0.0
 11
-1529.879893943038
 21
472.5947061481071
 31
0.0
  0
MTEXT
  5
2C5
330
2C0
100
AcDbEntity
  8
1D
440
 16777216
100
AcDbMText
 10
-1528.431322514467
 20
472.5947061481071
 30
0.0
 40
0.3
 41
0.0
 46
0.0
 71
     5
 72
     1
  1
\A1;2.667%%p0.075
  7
TEXT-1
 73
     1
 44
1.0
  0
POINT
  5
2C6
330
2C0
100
AcDbEntity
  8
Defpoints
 62
     0
440
 16777216
100
AcDbPoint
 10
-1531.779614969402
 20
472.5944573612376
 30
0.0
  0
POINT
  5
2C7
330
2C0
100
AcDbEntity
  8
Defpoints
 62
     0
440
 16777216
100
AcDbPoint
 10
-1529.879893943038
 20
472.5947061481071
 30
0.0
  0
POINT
  5
2C8
330
2C0
100
AcDbEntity
  8
Defpoints
 62
     0
440
 16777216
100
AcDbPoint
 10
-1533.884614969233
 20
475.2612135970121
 30
0.0
  0
ENDBLK
  5
2C9
330
2C0
100
AcDbEntity
  8
0
100
AcDbBlockEnd
  0
BLOCK
  5
2CF
330
2CE
100
AcDbEntity
  8
0
100
AcDbBlockBegin
  2
*D12
 70
     1
 10
0.0
 20
0.0
 30
0.0
  3
*D12
  1

  0
LINE
  5
2D0
330
2CE
100
AcDbEntity
  8
1D
440
 16777216
370
    -2
100
AcDbLine
 10
-1543.43577787623
 20
472.5112135970124
 30
0.0
 11
-1541.995539519166
 21
472.5112135970124
 31
0.0
  0
LINE
  5
2D1
330
2CE
100
AcDbEntity
  8
1D
440
 16777216
370
    -2
100
AcDbLine
 10
-1542.840777876075
 20
472.2612135970122
 30
0.0
 11
-1541.995539519166
 21
472.2612135970122
 31
0.0
  0
LINE
  5
2D2
330
2CE
100
AcDbEntity
  8
1D
440
 16777216
370
    -2
100
AcDbLine
 10
-1542.020539519166
 20
472.6112135970124
 30
0.0
 11
-1542.020539519166
 21
472.7112135970124
 31
0.0
  0
LINE
  5
2D3
330
2CE
100
AcDbEntity
  8
1D
440
 16777216
370
    -2
100
AcDbLine
 10
-1542.020539519166
 20
472.1612135970123
 30
0.0
 11
-1542.020539519166
 21
472.0612135970124
 31
0.0
  0
SOLID
  5
2D4
330
2CE
100
AcDbEntity
  8
1D
440
 16777216
100
AcDbTrace
 10
-1542.037206185832
 20
472.6112135970124
 30
0.0
 11
-1542.003872852499
 21
472.6112135970124
 31
0.0
 12
-1542.020539519166
 22
472.5112135970124
 32
0.0
 13
-1542.020539519166
 23
472.5112135970124
 33
0.0
  0
SOLID
  5
2D5
330
2CE
100
AcDbEntity
  8
1D
440
 16777216
100
AcDbTrace
 10
-1542.037206185832
 20
472.1612135970123
 30
0.0
 11
-1542.003872852499
 21
472.1612135970123
 31
0.0
 12
-1542.020539519166
 22
472.2612135970122
 32
0.0
 13
-1542.020539519166
 23
472.2612135970122
 33
0.0
  0
MTEXT
  5
2D6
330
2CE
100
AcDbEntity
  8
1D
440
 16777216
100
AcDbMText
 10
-1542.020539519166
 20
471.441213597012
 30
0.0
 40
0.3
 41
0.0
 46
0.0
 71
     5
 72
     1
  1
\A1;0.250
  7
TEXT-1
 11
0.0000000000000001
 21
1.0
 31
0.0
 73
     1
 44
1.0
  0
POINT
  5
2D7
330
2CE
100
AcDbEntity
  8
Defpoints
 62
     0
440
 16777216
100
AcDbPoint
 10
-1543.44577787623
 20
472.5112135970124
 30
0.0
  0
POINT
  5
2D8
330
2CE
100
AcDbEntity
  8
Defpoints
 62
     0
440
 16777216
100
AcDbPoint
 10
-1542.850777876075
 20
472.2612135970122
 30
0.0
  0
POINT
  5
2D9
330
2CE
100
AcDbEntity
  8
Defpoints
 62
     0
440
 16777216
100
AcDbPoint
 10
-1542.020539519166
 20
472.2612135970122
 30
0.0
  0
ENDBLK
  5
2DA
330
2CE
100
AcDbEntity
  8
0
100
AcDbBlockEnd
  0
BLOCK
  5
2DD
330
2DC
100
AcDbEntity
  8
0
100
AcDbBlockBegin
  2
*D13
 70
     1
 10
0.0
 20
0.0
 30
0.0
  3
*D13
  1

  0
LINE
  5
2DE
330
2DC
100
AcDbEntity
  8
1D
440
 16777216
370
    -2
100
AcDbLine
 10
-1543.43577787623
 20
472.7112135970124
 30
0.0
 11
-1541.586423439671
 21
472.7112135970124
 31
0.0
  0
LINE
  5
2DF
330
2DC
100
AcDbEntity
  8
1D
440
 16777216
370
    -2
100
AcDbLine
 10
-1543.43577787623
 20
472.4112135970123
 30
0.0
 11
-1541.586423439671
 21
472.4112135970123
 31
0.0
  0
LINE
  5
2E0
330
2DC
100
AcDbEntity
  8
1D
440
 16777216
370
    -2
100
AcDbLine
 10
-1541.611423439671
 20
472.8112135970124
 30
0.0
 11
-1541.611423439671
 21
472.9112135970122
 31
0.0
  0
LINE
  5
2E1
330
2DC
100
AcDbEntity
  8
1D
440
 16777216
370
    -2
100
AcDbLine
 10
-1541.611423439671
 20
472.3112135970123
 30
0.0
 11
-1541.611423439671
 21
472.2112135970124
 31
0.0
  0
SOLID
  5
2E2
330
2DC
100
AcDbEntity
  8
1D
440
 16777216
100
AcDbTrace
 10
-1541.628090106337
 20
472.8112135970124
 30
0.0
 11
-1541.594756773004
 21
472.8112135970124
 31
0.0
 12
-1541.611423439671
 22
472.7112135970124
 32
0.0
 13
-1541.611423439671
 23
472.7112135970124
 33
0.0
  0
SOLID
  5
2E3
330
2DC
100
AcDbEntity
  8
1D
440
 16777216
100
AcDbTrace
 10
-1541.628090106337
 20
472.3112135970123
 30
0.0
 11
-1541.594756773004
 21
472.3112135970123
 31
0.0
 12
-1541.611423439671
 22
472.4112135970123
 32
0.0
 13
-1541.611423439671
 23
472.4112135970123
 33
0.0
  0
MTEXT
  5
2E4
330
2DC
100
AcDbEntity
  8
1D
440
 16777216
100
AcDbMText
 10
-1541.611423439671
 20
471.591213597012
 30
0.0
 40
0.3
 41
0.0
 46
0.0
 71
     5
 72
     1
  1
\A1;0.300
  7
TEXT-1
 11
0.0000000000000001
 21
1.0
 31
0.0
 73
     1
 44
1.0
  0
POINT
  5
2E5
330
2DC
100
AcDbEntity
  8
Defpoints
 62
     0
440
 16777216
100
AcDbPoint
 10
-1543.44577787623
 20
472.7112135970124
 30
0.0
  0
POINT
  5
2E6
330
2DC
100
AcDbEntity
  8
Defpoints
 62
     0
440
 16777216
100
AcDbPoint
 10
-1543.44577787623
 20
472.4112135970123
 30
0.0
  0
POINT
  5
2E7
330
2DC
100
AcDbEntity
  8
Defpoints
 62
     0
440
 16777216
100
AcDbPoint
 10
-1541.611423439671
 20
472.4112135970123
 30
0.0
  0
ENDBLK
  5
2E8
330
2DC
100
AcDbEntity
  8
0
100
AcDbBlockEnd
  0
ENDSEC
  0
SECTION
  2
ENTITIES
  0
TEXT
  5
7E
330
2
100
AcDbEntity
  8
1D
100
AcDbText
 10
65.64970364936055
 20
-121.6220656698878
 30
0.0
 40
0.1375
  1
HALF ETCH ON BOTTOM SIDE
 72
     2
 11
68.85803698269388
 21
-121.5533156698878
 31
0.0
100
AcDbText
 73
     2
  0
HATCH
  5
7F
330
2
100
AcDbEntity
  8
1D
370
     5
100
AcDbHatch
 10
0.0
 20
0.0
 30
0.0
210
0.0
220
0.0
230
1.0
  2
ANSI31
 70
     0
 71
     0
 91
        1
 92
        7
 72
     0
 73
     1
 93
        4
 10
65.31819029360462
 20
-121.3619298346261
 10
64.88712742880989
 20
-121.3619298346261
 10
64.88712742880989
 20
-121.7282894086525
 10
65.31819029360462
 20
-121.7282894086525
 97
        0
 75
     0
 76
     1
 52
0.0
 41
0.5
 77
     0
 78
     1
 53
45.0
 43
70.46519424437383
 44
-114.3711783289614
 45
-0.0441941738241592
 46
0.0441941738241592
 79
     0
 47
0.0092129015217721
 98
        1
 10
65.22672712991789
 20
-121.5992580975324
1001
ACAD
1010
0.0
1020
0.0
1030
0.0
  0
LINE
  5
80
330
2
100
AcDbEntity
  8
2
100
AcDbLine
 10
65.31819029360462
 20
-121.7282894086525
 30
0.0
 11
65.31819029360462
 21
-121.3619298346261
 31
0.0
  0
LINE
  5
84
330
2
100
AcDbEntity
  8
2
100
AcDbLine
 10
64.88712742880989
 20
-121.3619298346261
 30
0.0
 11
64.88712742880989
 21
-121.7282894086525
 31
0.0
  0
LINE
  5
85
330
2
100
AcDbEntity
  8
2
100
AcDbLine
 10
65.31819029360462
 20
-121.3619298346261
 30
0.0
 11
64.88712742880989
 21
-121.3619298346261
 31
0.0
  0
LINE
  5
86
330
2
100
AcDbEntity
  8
2
100
AcDbLine
 10
64.88712742880989
 20
-121.7282894086525
 30
0.0
 11
65.31819029360462
 21
-121.7282894086525
 31
0.0
  0
TEXT
  5
87
330
2
100
AcDbEntity
  8
1D
100
AcDbText
 10
65.52896696958962
 20
-122.1229327700358
 30
0.0
 40
0.1375
  1
SELECTIVE AG PLATING AREA
 72
     2
 11
68.87480030292294
 21
-122.0541827700359
 31
0.0
100
AcDbText
 73
     2
  0
HATCH
  5
88
330
2
100
AcDbEntity
  8
1D
100
AcDbHatch
 10
0.0
 20
0.0
 30
0.0
210
0.0
220
0.0
230
1.0
  2
DOTS
 70
     0
 71
     0
 91
        1
 92
        7
 72
     0
 73
     1
 93
        4
 10
65.31819029360462
 20
-121.862796934774
 10
64.88712742880989
 20
-121.862796934774
 10
64.88712742880989
 20
-122.2291565088003
 10
65.31819029360462
 20
-122.2291565088003
 97
        0
 75
     0
 76
     1
 52
0.0
 41
1.0
 77
     0
 78
     1
 53
0.0
 43
70.46519424437383
 44
-111.8693605223088
 45
0.03125
 46
0.0625
 79
     2
 49
0.0
 49
-0.0625
 47
0.0092129015217721
 98
        1
 10
65.22672712991789
 20
-122.1001251976803
1001
ACAD
1010
-2090.087314
1020
220.920291
1030
0.0
  0
LINE
  5
89
330
2
100
AcDbEntity
  8
2
100
AcDbLine
 10
65.31819029360462
 20
-122.2291565088003
 30
0.0
 11
65.31819029360462
 21
-121.862796934774
 31
0.0
  0
LINE
  5
8A
330
2
100
AcDbEntity
  8
2
100
AcDbLine
 10
64.88712742880989
 20
-121.862796934774
 30
0.0
 11
64.88712742880989
 21
-122.2291565088003
 31
0.0
  0
LINE
  5
8B
330
2
100
AcDbEntity
  8
2
100
AcDbLine
 10
65.31819029360462
 20
-121.862796934774
 30
0.0
 11
64.88712742880989
 21
-121.862796934774
 31
0.0
  0
LINE
  5
8C
330
2
100
AcDbEntity
  8
2
100
AcDbLine
 10
64.88712742880989
 20
-122.2291565088003
 30
0.0
 11
65.31819029360462
 21
-122.2291565088003
 31
0.0
  0
LINE
  5
8D
102
{ACAD_REACTORS
330
D6
102
}
330
2
100
AcDbEntity
  8
3D
  6
CENTER
 62
     1
 48
2.0
100
AcDbLine
 10
69.98296785164666
 20
-105.083579508124
 30
0.0
 11
69.98296785164666
 21
-102.8580230312209
 31
0.0
  0
LINE
  5
92
330
2
100
AcDbEntity
  8
3D
  6
CENTER
 62
     1
 48
2.0
100
AcDbLine
 10
68.87018961319586
 20
-103.9708012696725
 30
0.0
 11
71.09574609009882
 21
-103.9708012696725
 31
0.0
  0
LINE
  5
93
330
2
100
AcDbEntity
  8
3D
  6
CENTER
 62
     2
100
AcDbLine
 10
67.48296785164575
 20
-106.9708012696722
 30
0.0
 11
67.48296785164666
 21
-100.9708012696722
 31
0.0
  0
LINE
  5
94
330
2
100
AcDbEntity
  8
3D
  6
CENTER
 62
     2
100
AcDbLine
 10
67.48296785164575
 20
-106.9708012696722
 30
0.0
 11
72.48296785164666
 21
-106.9708012696722
 31
0.0
  0
LINE
  5
95
330
2
100
AcDbEntity
  8
3D
  6
CENTER
 62
     2
100
AcDbLine
 10
67.48296785164666
 20
-100.9708012696722
 30
0.0
 11
72.48296785164666
 21
-100.9708012696721
 31
0.0
  0
LINE
  5
96
330
2
100
AcDbEntity
  8
3
100
AcDbLine
 10
66.95796785164588
 20
-107.3608012696735
 30
0.0
 11
66.95796785164588
 21
-104.720801269579
 31
0.0
  0
LINE
  5
9A
330
2
100
AcDbEntity
  8
3
100
AcDbLine
 10
66.95796785164588
 20
-104.4708012696014
 30
0.0
 11
66.9579678516468
 21
-100.5808012696718
 31
0.0
  0
LINE
  5
9B
330
2
100
AcDbEntity
  8
3
100
AcDbLine
 10
73.00796785164675
 20
-100.5808012696759
 30
0.0
 11
73.00796785164675
 21
-104.4708032293289
 31
0.0
  0
LINE
  5
9C
330
2
100
AcDbEntity
  8
3
100
AcDbLine
 10
73.00796785164675
 20
-104.720801269635
 30
0.0
 11
73.00796785164675
 21
-107.3608012696693
 31
0.0
  0
LINE
  5
9D
330
2
100
AcDbEntity
  8
3
100
AcDbLine
 10
72.23295874174073
 20
-104.4707945195642
 30
0.0
 11
73.00796785164675
 21
-104.4708012696497
 31
0.0
  0
LINE
  5
9E
330
2
100
AcDbEntity
  8
3
100
AcDbLine
 10
72.232967161734
 20
-104.720801269635
 30
0.0
 11
73.00796785164789
 21
-104.7208012696351
 31
0.0
  0
LINE
  5
9F
330
2
100
AcDbEntity
  8
3
100
AcDbLine
 10
67.73296854155979
 20
-104.7208012695849
 30
0.0
 11
66.95796785164588
 21
-104.7208012695802
 31
0.0
  0
LINE
  5
A0
330
2
100
AcDbEntity
  8
3
100
AcDbLine
 10
72.18796765154093
 20
-105.7859575054476
 30
0.0
 11
72.18796765154093
 21
-106.5359575054469
 31
0.0
  0
LINE
  5
A1
330
2
100
AcDbEntity
  8
3
100
AcDbLine
 10
71.6879678515038
 20
-105.7859575054476
 30
0.0
 11
72.18796765154093
 21
-105.7859575054476
 31
0.0
  0
LINE
  5
A2
330
2
100
AcDbEntity
  8
P-L
 48
4.0
100
AcDbLine
 10
69.54796785166604
 20
-101.2958007198035
 30
0.0
 11
70.41796785162683
 21
-101.2958007198032
 31
0.0
  0
LINE
  5
A6
330
2
100
AcDbEntity
  8
P-L
 48
4.0
100
AcDbLine
 10
70.81796785160486
 20
-101.2958007198035
 30
0.0
 11
71.68796865157287
 21
-101.2958007198035
 31
0.0
  0
LINE
  5
A7
330
2
100
AcDbEntity
  8
P-L
 48
4.0
100
AcDbLine
 10
68.27796785172973
 20
-101.2958007198035
 30
0.0
 11
69.14796785168801
 21
-101.2958007198032
 31
0.0
  0
LINE
  5
A8
330
2
100
AcDbEntity
  8
3
100
AcDbLine
 10
67.73297696155395
 20
-101.2458009948074
 30
0.0
 11
67.73297696155282
 21
-104.4708012695819
 31
0.0
  0
LINE
  5
A9
330
2
100
AcDbEntity
  8
3
100
AcDbLine
 10
72.23296716173286
 20
-104.720801269635
 30
0.0
 11
72.2329671617349
 21
-105.5858016615961
 31
0.0
  0
LINE
  5
AA
330
2
100
AcDbEntity
  8
3
100
AcDbLine
 10
66.95796785164588
 20
-104.4708012695971
 30
0.0
 11
67.73297696155282
 21
-104.4708012695819
 31
0.0
  0
LINE
  5
AB
330
2
100
AcDbEntity
  8
P-L
 48
4.0
100
AcDbLine
 10
72.08797673148069
 20
-104.9708086315182
 30
0.0
 11
71.78797673133295
 21
-104.9708080415832
 31
0.0
  0
LINE
  5
AC
330
2
100
AcDbEntity
  8
P-L
 48
4.0
100
AcDbLine
 10
71.3879767316198
 20
-104.9708072550034
 30
0.0
 11
67.87795897182673
 21
-104.970800352729
 31
0.0
  0
LINE
  5
AD
330
2
100
AcDbEntity
  8
P-L
 48
4.0
100
AcDbLine
 10
67.87796785175192
 20
-104.4708012695819
 30
0.0
 11
67.73297696155691
 21
-104.4708012695819
 31
0.0
  0
LINE
  5
AE
330
2
100
AcDbEntity
  8
3
100
AcDbLine
 10
72.2329671617349
 20
-105.5858016615962
 30
0.0
 11
67.73296854155796
 21
-105.5857926356654
 31
0.0
  0
LINE
  5
AF
330
2
100
AcDbEntity
  8
P-L
 48
4.0
100
AcDbLine
 10
67.87796785175192
 20
-101.195801269811
 30
0.0
 11
67.87796785175192
 21
-104.4708012695819
 31
0.0
  0
LINE
  5
B0
330
2
100
AcDbEntity
  8
P-L
 48
4.0
100
AcDbLine
 10
72.08796785154072
 20
-101.1958012698117
 30
0.0
 11
72.08796785154072
 21
-104.4708012695819
 31
0.0
  0
LINE
  5
B1
330
2
100
AcDbEntity
  8
3
100
AcDbLine
 10
72.23296703318488
 20
-101.2458009948057
 30
0.0
 11
72.23295874174073
 21
-104.4708012695819
 31
0.0
  0
LINE
  5
B2
330
2
100
AcDbEntity
  8
P-L
 48
4.0
100
AcDbLine
 10
72.08796785154072
 20
-104.4708012695819
 30
0.0
 11
72.23295874173686
 21
-104.4708012695819
 31
0.0
  0
LINE
  5
B3
330
2
100
AcDbEntity
  8
3
100
AcDbLine
 10
67.73296854155979
 20
-104.720801269635
 30
0.0
 11
67.73296854155796
 21
-105.5857926356654
 31
0.0
  0
ARC
  5
B4
330
2
100
AcDbEntity
  8
P-L
 48
4.0
100
AcDbCircle
 10
68.07796785173787
 20
-106.3708012695504
 30
0.0
 40
0.1999999999875443
100
AcDbArc
 50
0.0000000000455964
 51
180.0000000000456
  0
ARC
  5
B5
330
2
100
AcDbEntity
  8
P-L
 48
4.0
100
AcDbCircle
 10
69.34796785165691
 20
-106.3708012695492
 30
0.0
 40
0.1999999999875443
100
AcDbArc
 50
0.0000000000455964
 51
180.0000000000456
  0
ARC
  5
B6
330
2
100
AcDbEntity
  8
P-L
 48
4.0
100
AcDbCircle
 10
70.61796785157389
 20
-106.3708012695492
 30
0.0
 40
0.1999999999875443
100
AcDbArc
 50
0.0000000000455964
 51
180.0000000000456
  0
HATCH
  5
B7
330
2
100
AcDbEntity
  8
1D
100
AcDbHatch
 10
0.0
 20
0.0
 30
0.0
210
0.0
220
0.0
230
1.0
  2
DOTS
 70
     0
 71
     1
 91
        6
 92
        7
 72
     1
 73
     1
 93
        9
 10
72.08796785147979
 20
-106.3708012695484
 42
1.0
 10
71.6879678515038
 20
-106.3708012695487
 42
0.0
 10
71.68796785150471
 20
-106.6375575054467
 42
0.0
 10
71.78796785149166
 20
-106.6375575054467
 42
0.0
 10
71.78796785149166
 20
-106.6208012696722
 42
-1.0
 10
71.9879678514917
 20
-106.6208012696722
 42
0.0
 10
71.9879678514917
 20
-106.6375575054467
 42
0.0
 10
72.08796785147888
 20
-106.6375575054467
 42
0.0
 10
72.08796785147888
 20
-106.4997359053982
 42
0.0
 97
        8
330
BB
330
175
330
CF
330
2EE
330
2CB
330
2CC
330
FC
330
C7
 92
        7
 72
     0
 73
     1
 93
        4
 10
72.18796765154093
 20
-105.7859575054476
 10
71.6879678515038
 20
-105.7859575054476
 10
71.6879678515038
 20
-106.6375575054467
 10
72.18796765154093
 20
-106.6375575054467
 97
        4
330
177
330
175
330
CF
330
176
 92
       22
 72
     1
 73
     1
 93
        2
 10
71.83796775152291
 20
-105.9859575054475
 42
-1.0
 10
72.03796775152182
 20
-105.9859575054475
 42
-1.0
 97
        1
330
296
 92
       23
 72
     1
 73
     1
 93
        9
 10
83.55413075832098
 20
-106.3708012695484
 42
1.0
 10
83.15413075834589
 20
-106.3708012695487
 42
0.0
 10
83.15413075834589
 20
-106.6375575054467
 42
0.0
 10
83.25413075833285
 20
-106.6375575054467
 42
0.0
 10
83.25413075833285
 20
-106.6208012696722
 42
-1.0
 10
83.4541307583329
 20
-106.6208012696722
 42
0.0
 10
83.4541307583329
 20
-106.6375575054467
 42
0.0
 10
83.55413075832007
 20
-106.6375575054467
 42
0.0
 10
83.55413075832007
 20
-106.4997359053982
 42
0.0
 97
        8
330
1AB
330
25B
330
1BF
330
2EC
330
2EB
330
2ED
330
1E5
330
1B7
 92
        7
 72
     1
 73
     1
 93
        7
 10
83.65413055838189
 20
-105.7859575054476
 42
0.0
 10
83.15413075834475
 20
-105.7859575054476
 42
0.0
 10
83.15413075834589
 20
-106.3708012695487
 42
-1.0
 10
83.55413075832098
 20
-106.3708012695484
 42
0.0
 10
83.55413075832007
 20
-106.4997359053982
 42
0.0
 10
83.55413075832007
 20
-106.6375575054467
 42
0.0
 10
83.65413055838189
 20
-106.6375575054467
 42
0.0
 97
        7
330
25D
330
25B
330
1AB
330
1B7
330
1E5
330
1BF
330
25C
 92
       22
 72
     1
 73
     1
 93
        2
 10
83.30413065836387
 20
-105.9859575054475
 42
-1.0
 10
83.50413065836391
 20
-105.9859575054475
 42
-1.0
 97
        1
330
2A7
 75
     0
 76
     1
 52
0.0
 41
1.0
 77
     0
 78
     1
 53
0.0
 43
-2090.087314000001
 44
220.9202909999999
 45
0.03125
 46
0.0625
 79
     2
 49
0.0
 49
-0.0625
 47
0.0019837826436852
 98
        6
 10
71.89324093278378
 20
-106.3822578735599
 10
72.0643820490418
 20
-106.172943232347
 10
72.0643820490418
 20
-106.172943232347
 10
83.48173873633687
 20
-106.4895922008083
 10
83.60679639163095
 20
-106.2555078937432
 10
83.60679639163095
 20
-106.2555078937432
1001
GradientColor1ACI
1070
     5
1001
GradientColor2ACI
1070
     2
1001
ACAD
1010
-2090.087314
1020
220.920291
1030
0.0
  0
HATCH
  5
BA
330
2
100
AcDbEntity
  8
1D
100
AcDbHatch
 10
0.0
 20
0.0
 30
0.0
210
0.0
220
0.0
230
1.0
  2
DOTS
 70
     0
 71
     1
 91
        1
 92
        7
 72
     1
 73
     1
 93
        9
 10
72.08796785147979
 20
-106.3708012695484
 42
1.0
 10
71.6879678515038
 20
-106.3708012695487
 42
0.0
 10
71.68796785150471
 20
-106.6375575054467
 42
0.0
 10
71.78796785149166
 20
-106.6375575054467
 42
0.0
 10
71.78796785149166
 20
-106.6208012696722
 42
-1.0
 10
71.9879678514917
 20
-106.6208012696722
 42
0.0
 10
71.9879678514917
 20
-106.6375575054467
 42
0.0
 10
72.08796785147888
 20
-106.6375575054467
 42
0.0
 10
72.08796785147888
 20
-106.4997359053982
 42
0.0
 97
        8
330
BB
330
175
330
CF
330
2EE
330
2CB
330
2CC
330
FC
330
C7
 75
     0
 76
     1
 52
0.0
 41
1.0
 77
     0
 78
     1
 53
0.0
 43
-2090.087314000001
 44
220.9202909999999
 45
0.03125
 46
0.0625
 79
     2
 49
0.0
 49
-0.0625
 47
0.0049630335686155
 98
        1
 10
71.834852094712
 20
-106.4535448756065
1001
GradientColor1ACI
1070
     5
1001
GradientColor2ACI
1070
     2
1001
ACAD
1010
-2090.087314
1020
220.920291
1030
0.0
  0
ARC
  5
BB
102
{ACAD_REACTORS
330
B7
330
BA
102
}
330
2
100
AcDbEntity
  8
P-L
 48
4.0
100
AcDbCircle
 10
71.88796785149179
 20
-106.3708012695484
 30
0.0
 40
0.1999999999875443
100
AcDbArc
 50
0.0000000000455964
 51
180.0000000000456
  0
LINE
  5
BC
330
2
100
AcDbEntity
  8
P-L
 48
4.0
100
AcDbLine
 10
67.87795943175865
 20
-104.720801269635
 30
0.0
 11
67.73296854156365
 21
-104.720801269635
 31
0.0
  0
LINE
  5
BD
330
2
100
AcDbEntity
  8
P-L
 48
4.0
100
AcDbLine
 10
72.08795943154791
 20
-104.720801269635
 30
0.0
 11
72.23295032174291
 21
-104.720801269635
 31
0.0
  0
LINE
  5
BE
330
2
100
AcDbEntity
  8
P-L
 48
4.0
100
AcDbLine
 10
67.87795943175865
 20
-104.720801269635
 30
0.0
 11
67.87795897182673
 21
-104.970800352729
 31
0.0
  0
LINE
  5
BF
330
2
100
AcDbEntity
  8
P-L
 48
4.0
100
AcDbLine
 10
72.08797627153467
 20
-104.720801269635
 30
0.0
 11
72.08797673146569
 21
-104.970800352729
 31
0.0
  0
LINE
  5
C0
330
2
100
AcDbEntity
  8
P-L
 48
4.0
100
AcDbLine
 10
68.27796785172973
 20
-101.1958012698117
 30
0.0
 11
68.27796785172973
 21
-101.2958007198035
 31
0.0
  0
LINE
  5
C1
330
2
100
AcDbEntity
  8
P-L
 48
4.0
100
AcDbLine
 10
69.14796785168801
 20
-101.195801269811
 30
0.0
 11
69.14796785168801
 21
-101.2958007198032
 31
0.0
  0
LINE
  5
C2
330
2
100
AcDbEntity
  8
P-L
 48
4.0
100
AcDbLine
 10
69.54796785166604
 20
-101.195801269813
 30
0.0
 11
69.54796785166604
 21
-101.2958007198049
 31
0.0
  0
LINE
  5
C3
330
2
100
AcDbEntity
  8
P-L
 48
4.0
100
AcDbLine
 10
70.41796785162683
 20
-101.1958012698097
 30
0.0
 11
70.41796785162683
 21
-101.2958007198018
 31
0.0
  0
LINE
  5
C4
330
2
100
AcDbEntity
  8
P-L
 48
4.0
100
AcDbLine
 10
70.81796785160486
 20
-101.1958012698117
 30
0.0
 11
70.81796785160486
 21
-101.2958007198035
 31
0.0
  0
LINE
  5
C5
330
2
100
AcDbEntity
  8
P-L
 48
4.0
100
AcDbLine
 10
71.68796785156178
 20
-101.1958012698142
 30
0.0
 11
71.68796785156178
 21
-101.2958007198065
 31
0.0
  0
ARC
  5
C6
330
2
100
AcDbEntity
  8
P-L
 48
4.0
100
AcDbCircle
 10
71.5879767314907
 20
-104.970800352729
 30
0.0
 40
0.19999999999
100
AcDbArc
 50
359.9977973054783
 51
180.0019773559518
  0
LINE
  5
C7
102
{ACAD_REACTORS
330
B7
330
BA
102
}
330
2
100
AcDbEntity
  8
P-L
 48
4.0
100
AcDbLine
 10
72.08796785147888
 20
-106.3708012695484
 30
0.0
 11
72.08796785147888
 21
-106.4997359053982
 31
0.0
  0
LINE
  5
C8
330
2
100
AcDbEntity
  8
P-L
 48
4.0
100
AcDbLine
 10
69.54796785164399
 20
-106.3708012695491
 30
0.0
 11
69.54796785164012
 21
-106.5359575053969
 31
0.0
  0
LINE
  5
C9
330
2
100
AcDbEntity
  8
P-L
 48
4.0
100
AcDbLine
 10
69.14796785166891
 20
-106.3708012695493
 30
0.0
 11
69.14796785166777
 21
-106.5359575053969
 31
0.0
  0
LINE
  5
CA
330
2
100
AcDbEntity
  8
P-L
 48
4.0
100
AcDbLine
 10
70.81796785156484
 20
-106.3708012695491
 30
0.0
 11
70.81796785156098
 21
-106.5359575053969
 31
0.0
  0
LINE
  5
CB
330
2
100
AcDbEntity
  8
P-L
 48
4.0
100
AcDbLine
 10
70.41796785158999
 20
-106.3708012695493
 30
0.0
 11
70.41796785158886
 21
-106.5359575053969
 31
0.0
  0
LINE
  5
CC
330
2
100
AcDbEntity
  8
P-L
 48
4.0
100
AcDbLine
 10
68.27796785172973
 20
-106.3708012695491
 30
0.0
 11
68.27796785172586
 21
-106.5359575053969
 31
0.0
  0
LINE
  5
CD
330
2
100
AcDbEntity
  8
P-L
 48
4.0
100
AcDbLine
 10
67.87796785175465
 20
-106.3708012695493
 30
0.0
 11
67.87796785175373
 21
-106.5359575053969
 31
0.0
  0
LINE
  5
CE
330
2
100
AcDbEntity
  8
P-L
 62
     4
 48
4.0
100
AcDbLine
 10
72.18796765154093
 20
-105.7859575054476
 30
0.0
 11
72.18796765154093
 21
-106.5359575054469
 31
0.0
  0
LINE
  5
CF
102
{ACAD_REACTORS
330
B7
330
BA
102
}
330
2
100
AcDbEntity
  8
P-L
 62
     4
 48
4.0
100
AcDbLine
 10
72.18796765154093
 20
-106.6375575054467
 30
0.0
 11
71.6879678515038
 21
-106.6375575054467
 31
0.0
  0
LINE
  5
D0
330
2
100
AcDbEntity
  8
P-L
 62
     4
 48
4.0
100
AcDbLine
 10
71.6879678515038
 20
-105.7859575054476
 30
0.0
 11
72.18796765154093
 21
-105.7859575054476
 31
0.0
  0
LINE
  5
D1
330
2
100
AcDbEntity
  8
PKG-OUT
100
AcDbLine
 10
71.68796785147879
 20
-105.7859575054476
 30
0.0
 11
71.68796785147879
 21
-106.5359575054468
 31
0.0
  0
DIMENSION
  5
D4
102
{ACAD_XDICTIONARY
360
D5
102
}
102
{ACAD_REACTORS
330
D6
102
}
330
2
100
AcDbEntity
  8
1D
100
AcDbDimension
280
     0
  2
*D0
 10
69.98296785164666
 20
-103.9708012696725
 30
0.0
 11
69.98296785164666
 21
-98.82459797732412
 31
0.0
 12
1615.333745727722
 22
-579.2320148666846
 32
0.0
 70
    70
 71
     5
 42
0.0
 73
     0
 74
     0
 75
     0
  3
複本 DM-1-1
100
AcDbOrdinateDimension
 13
69.98296785164666
 23
-102.8580230312209
 33
0.0
 14
69.98296785164666
 24
-99.44459797732378
 34
0.0
  0
DIMENSION
  5
E0
330
2
100
AcDbEntity
  8
1D
100
AcDbDimension
280
     0
  2
*D1
 10
69.98296785164666
 20
-103.9708012696725
 30
0.0
 11
76.26738281158987
 21
-103.9708012696725
 31
0.0
 12
1615.333745727722
 22
-579.2320148666846
 32
0.0
 70
   134
 71
     5
 42
0.0
 73
     0
 74
     0
 75
     0
  3
複本 DM-1-1
100
AcDbOrdinateDimension
 13
71.09574609009882
 23
-103.9708012696725
 33
0.0
 14
75.64738281159089
 24
-103.9708012696725
 34
0.0
  0
DIMENSION
  5
E9
330
2
100
AcDbEntity
  8
1D
100
AcDbDimension
280
     0
  2
*D2
 10
69.98296785164666
 20
-103.9708012696725
 30
0.0
 11
75.43626030641394
 21
-106.6373087185774
 31
0.0
 12
1615.333745727722
 22
-579.2320148666846
 32
0.0
 70
   134
  1
<>%%p0.075
 71
     5
 42
2.66675623577447
 73
     0
 74
     0
 75
     0
  3
複本 DM-1-1
100
AcDbOrdinateDimension
 13
72.08796785147888
 23
-106.6375575054468
 33
0.0
 14
73.98768887784171
 24
-106.6373087185774
 34
0.0
1001
ACAD_DSTYLE_DIMINSPECT
1070
   396
1000
100%
1070
   395
1000

1070
   394
1070
    33
1070
   393
1070
     0
  0
MTEXT
  5
F5
330
2
100
AcDbEntity
  8
4D
100
AcDbMText
 10
69.95822507369076
 20
-108.7566605804712
 30
0.0
 40
0.26
 41
0.0
 46
0.0
 71
     5
 72
     1
  1
{\fRomantic|b0|i0|c2|p2;\LPLATING AREA}
 73
     1
 44
1.0
  0
LINE
  5
F9
330
2
100
AcDbEntity
  8
3
100
AcDbLine
 10
70.81796785156098
 20
-106.5359575053969
 30
0.0
 11
70.81796785156098
 21
-107.2608012696707
 31
0.0
  0
LINE
  5
FA
330
2
100
AcDbEntity
  8
3
100
AcDbLine
 10
71.68796785150471
 20
-107.2608012696699
 30
0.0
 11
71.68796785150289
 21
-105.7859575054476
 31
0.0
  0
LINE
  5
FB
330
2
100
AcDbEntity
  8
P-L
 62
     4
 48
4.0
100
AcDbLine
 10
71.6879678514797
 20
-106.6375575054468
 30
0.0
 11
71.68796785149789
 21
-105.7859575054476
 31
0.0
  0
LINE
  5
FC
102
{ACAD_REACTORS
330
B7
330
BA
102
}
330
2
100
AcDbEntity
  8
3
100
AcDbLine
 10
72.08796785147888
 20
-106.4997359053982
 30
0.0
 11
72.08796785147888
 21
-107.2608012696697
 31
0.0
  0
LINE
  5
FD
330
2
100
AcDbEntity
  8
3
100
AcDbLine
 10
69.14796785166982
 20
-107.2608012696719
 30
0.0
 11
69.14796785166982
 21
-106.5359575053969
 31
0.0
  0
LINE
  5
FE
330
2
100
AcDbEntity
  8
3
100
AcDbLine
 10
70.4179678515868
 20
-107.2608012696711
 30
0.0
 11
70.4179678515868
 21
-106.5359575053974
 31
0.0
  0
LINE
  5
FF
330
2
100
AcDbEntity
  8
3
100
AcDbLine
 10
69.54796785164103
 20
-106.5359575053969
 30
0.0
 11
69.54796785164194
 21
-107.2608012696717
 31
0.0
  0
LINE
  5
100
330
2
100
AcDbEntity
  8
3
100
AcDbLine
 10
67.87796785174987
 20
-106.5359575053991
 30
0.0
 11
67.87796785175192
 21
-107.2608012696725
 31
0.0
  0
LINE
  5
101
330
2
100
AcDbEntity
  8
3
100
AcDbLine
 10
68.277967851727
 20
-107.2608012696727
 30
0.0
 11
68.27796785172495
 21
-106.5359575053969
 31
0.0
  0
LINE
  5
102
330
2
100
AcDbEntity
  8
3
100
AcDbLine
 10
70.41796785162592
 20
-100.6808012696737
 30
0.0
 11
70.41796785162683
 21
-101.195801269811
 31
0.0
  0
LINE
  5
103
330
2
100
AcDbEntity
  8
3
100
AcDbLine
 10
70.81796785160486
 20
-100.6808012696744
 30
0.0
 11
70.81796785160486
 21
-101.1958012698117
 31
0.0
  0
LINE
  5
104
330
2
100
AcDbEntity
  8
3
100
AcDbLine
 10
71.68796843953896
 20
-100.6808012334297
 30
0.0
 11
71.68796865157287
 21
-101.1958012698117
 31
0.0
  0
LINE
  5
105
330
2
100
AcDbEntity
  8
3
100
AcDbLine
 10
72.08796785154163
 20
-100.6808012696752
 30
0.0
 11
72.08796785154072
 21
-101.1958012698117
 31
0.0
  0
LINE
  5
106
330
2
100
AcDbEntity
  8
3
100
AcDbLine
 10
69.54796785166696
 20
-100.6808012696733
 30
0.0
 11
69.54796785166604
 21
-101.1958012698117
 31
0.0
  0
LINE
  5
107
330
2
100
AcDbEntity
  8
3
100
AcDbLine
 10
69.14796785168801
 20
-100.6808012696731
 30
0.0
 11
69.14796785168801
 21
-101.195801269811
 31
0.0
  0
LINE
  5
108
330
2
100
AcDbEntity
  8
3
100
AcDbLine
 10
68.27796785172973
 20
-100.6808012696727
 30
0.0
 11
68.27796785172973
 21
-101.1958012698117
 31
0.0
  0
LINE
  5
109
330
2
100
AcDbEntity
  8
3
100
AcDbLine
 10
67.87796785175078
 20
-100.6808012696722
 30
0.0
 11
67.87796785175078
 21
-101.1958012698117
 31
0.0
  0
LINE
  5
10A
330
2
100
AcDbEntity
  8
3
100
AcDbLine
 10
66.9579678516468
 20
-100.5808012696719
 30
0.0
 11
67.77796785175087
 21
-100.5808012696723
 31
0.0
  0
LINE
  5
10B
330
2
100
AcDbEntity
  8
3
100
AcDbLine
 10
68.37796785172963
 20
-100.5808012696727
 30
0.0
 11
69.04796785168787
 21
-100.5808012696731
 31
0.0
  0
LINE
  5
10C
330
2
100
AcDbEntity
  8
3
100
AcDbLine
 10
69.64796785166777
 20
-100.5808012696735
 30
0.0
 11
70.31796785162601
 21
-100.5808012696739
 31
0.0
  0
LINE
  5
10D
330
2
100
AcDbEntity
  8
3
100
AcDbLine
 10
70.917967851605
 20
-100.5808012696743
 30
0.0
 11
71.58796843953883
 21
-100.5808012696749
 31
0.0
  0
LINE
  5
10E
330
2
100
AcDbEntity
  8
3
100
AcDbLine
 10
72.18796785154177
 20
-100.5808012696752
 30
0.0
 11
73.00796785164584
 21
-100.5808012696757
 31
0.0
  0
LINE
  5
10F
330
2
100
AcDbEntity
  8
3
100
AcDbLine
 10
66.95796785164588
 20
-107.3608012696734
 30
0.0
 11
67.77796785175201
 21
-107.3608012696728
 31
0.0
  0
ARC
  5
110
330
2
100
AcDbEntity
  8
3
100
AcDbCircle
 10
67.77796785175201
 20
-107.2608012696727
 30
0.0
 40
0.1
100
AcDbArc
 50
270.000000000026
 51
0.000000000117248
  0
LINE
  5
111
330
2
100
AcDbEntity
  8
3
100
AcDbLine
 10
68.37796785172691
 20
-107.3608012696724
 30
0.0
 11
69.04796785166991
 21
-107.360801269672
 31
0.0
  0
ARC
  5
112
330
2
100
AcDbEntity
  8
3
100
AcDbCircle
 10
68.37796785172691
 20
-107.2608012696725
 30
0.0
 40
0.1
100
AcDbArc
 50
180.0000000000846
 51
270.0000000000391
  0
ARC
  5
113
330
2
100
AcDbEntity
  8
3
100
AcDbCircle
 10
69.04796785166991
 20
-107.2608012696719
 30
0.0
 40
0.1
100
AcDbArc
 50
270.0000000000391
 51
0.0
  0
LINE
  5
114
330
2
100
AcDbEntity
  8
3
100
AcDbLine
 10
69.64796785164276
 20
-107.3608012696715
 30
0.0
 11
70.31796785158689
 21
-107.3608012696711
 31
0.0
  0
ARC
  5
115
330
2
100
AcDbEntity
  8
3
100
AcDbCircle
 10
69.64796785164276
 20
-107.2608012696715
 30
0.0
 40
0.1
100
AcDbArc
 50
180.0000000000846
 51
270.0000000000391
  0
ARC
  5
116
330
2
100
AcDbEntity
  8
3
100
AcDbCircle
 10
70.31796785158689
 20
-107.2608012696711
 30
0.0
 40
0.1
100
AcDbArc
 50
270.0000000000391
 51
359.9999999999675
  0
LINE
  5
117
330
2
100
AcDbEntity
  8
3
100
AcDbLine
 10
70.91796785156089
 20
-107.3608012696706
 30
0.0
 11
71.5879678515057
 21
-107.3608012696702
 31
0.0
  0
ARC
  5
118
330
2
100
AcDbEntity
  8
3
100
AcDbCircle
 10
70.91796785156089
 20
-107.2608012696707
 30
0.0
 40
0.1
100
AcDbArc
 50
180.0
 51
270.0000000000391
  0
ARC
  5
119
330
2
100
AcDbEntity
  8
3
100
AcDbCircle
 10
71.5879678515057
 20
-107.2608012696703
 30
0.0
 40
0.1
100
AcDbArc
 50
270.0000000000391
 51
0.000000000058624
  0
LINE
  5
11A
330
2
100
AcDbEntity
  8
3
100
AcDbLine
 10
72.18796785147879
 20
-107.3608012696697
 30
0.0
 11
73.00796785164675
 21
-107.3608012696695
 31
0.0
  0
ARC
  5
11B
330
2
100
AcDbEntity
  8
3
100
AcDbCircle
 10
72.18796785147879
 20
-107.2608012696697
 30
0.0
 40
0.1
100
AcDbArc
 50
180.0
 51
270.000000000026
  0
ARC
  5
11C
330
2
100
AcDbEntity
  8
3
100
AcDbCircle
 10
70.31796785162601
 20
-100.6808012696739
 30
0.0
 40
0.1
100
AcDbArc
 50
0.000000000117248
 51
89.99999999996092
  0
ARC
  5
11D
330
2
100
AcDbEntity
  8
3
100
AcDbCircle
 10
70.917967851605
 20
-100.6808012696744
 30
0.0
 40
0.1
100
AcDbArc
 50
89.99999999996092
 51
180.0
  0
ARC
  5
11E
330
2
100
AcDbEntity
  8
3
100
AcDbCircle
 10
71.58796843953883
 20
-100.6808012696748
 30
0.0
 40
0.1
100
AcDbArc
 50
0.0000207669470252
 51
89.99999999996092
  0
ARC
  5
11F
330
2
100
AcDbEntity
  8
3
100
AcDbCircle
 10
72.18796785154177
 20
-100.6808012696753
 30
0.0
 40
0.1
100
AcDbArc
 50
89.99999999997395
 51
179.9999999999218
  0
ARC
  5
120
330
2
100
AcDbEntity
  8
3
100
AcDbCircle
 10
69.64796785166777
 20
-100.6808012696737
 30
0.0
 40
0.1
100
AcDbArc
 50
89.99999999996092
 51
179.9999999998892
  0
ARC
  5
121
330
2
100
AcDbEntity
  8
3
100
AcDbCircle
 10
69.04796785168787
 20
-100.6808012696731
 30
0.0
 40
0.1
100
AcDbArc
 50
0.0
 51
89.99999999996092
  0
ARC
  5
122
330
2
100
AcDbEntity
  8
3
100
AcDbCircle
 10
68.37796785172963
 20
-100.6808012696727
 30
0.0
 40
0.1
100
AcDbArc
 50
89.99999999996092
 51
180.0
  0
ARC
  5
123
330
2
100
AcDbEntity
  8
3
100
AcDbCircle
 10
67.77796785175087
 20
-100.6808012696724
 30
0.0
 40
0.1
100
AcDbArc
 50
0.0000000000390827
 51
89.99999999997395
  0
LINE
  5
124
330
2
100
AcDbEntity
  8
3
100
AcDbLine
 10
67.97796785174501
 20
-100.7708012698347
 30
0.0
 11
67.97796785174501
 21
-100.5208012698447
 31
0.0
  0
ARC
  5
125
330
2
100
AcDbEntity
  8
3
100
AcDbCircle
 10
68.02796785174155
 20
-100.5208012698447
 30
0.0
 40
0.0499999999975
100
AcDbArc
 50
90.0
 51
180.0
  0
LINE
  5
126
330
2
100
AcDbEntity
  8
3
100
AcDbLine
 10
68.17796785173482
 20
-100.7708012698347
 30
0.0
 11
68.17796785173482
 21
-100.5208012698447
 31
0.0
  0
ARC
  5
127
330
2
100
AcDbEntity
  8
3
100
AcDbCircle
 10
68.12796785173805
 20
-100.5208012698447
 30
0.0
 40
0.0499999999975
100
AcDbArc
 50
0.0
 51
90.0
  0
LINE
  5
128
330
2
100
AcDbEntity
  8
3
100
AcDbLine
 10
68.12796785173805
 20
-100.4708012698474
 30
0.0
 11
68.02796785174155
 21
-100.4708012698474
 31
0.0
  0
LINE
  5
129
330
2
100
AcDbEntity
  8
3
100
AcDbLine
 10
68.12796785173668
 20
-100.8208012698319
 30
0.0
 11
68.02796785174155
 21
-100.8208012698319
 31
0.0
  0
ARC
  5
12A
330
2
100
AcDbEntity
  8
3
100
AcDbCircle
 10
68.12796785173668
 20
-100.7708012698347
 30
0.0
 40
0.0499999999975
100
AcDbArc
 50
270.0
 51
0.0
  0
ARC
  5
12B
330
2
100
AcDbEntity
  8
3
100
AcDbCircle
 10
68.02796785174155
 20
-100.7708012698347
 30
0.0
 40
0.0499999999975
100
AcDbArc
 50
180.0
 51
270.0
  0
LINE
  5
12C
330
2
100
AcDbEntity
  8
3
100
AcDbLine
 10
69.24796785168087
 20
-100.7708012698347
 30
0.0
 11
69.24796785168087
 21
-100.5208012698447
 31
0.0
  0
ARC
  5
12D
330
2
100
AcDbEntity
  8
3
100
AcDbCircle
 10
69.29796785167877
 20
-100.5208012698447
 30
0.0
 40
0.0499999999975
100
AcDbArc
 50
90.0
 51
180.0
  0
LINE
  5
12E
330
2
100
AcDbEntity
  8
3
100
AcDbLine
 10
69.44796785167091
 20
-100.7708012698347
 30
0.0
 11
69.44796785167182
 21
-100.5208012698447
 31
0.0
  0
ARC
  5
12F
330
2
100
AcDbEntity
  8
3
100
AcDbCircle
 10
69.39796785167391
 20
-100.5208012698447
 30
0.0
 40
0.0499999999975
100
AcDbArc
 50
0.0
 51
90.0
  0
LINE
  5
130
330
2
100
AcDbEntity
  8
3
100
AcDbLine
 10
69.39796785167391
 20
-100.4708012698474
 30
0.0
 11
69.29796785167877
 21
-100.4708012698474
 31
0.0
  0
LINE
  5
131
330
2
100
AcDbEntity
  8
3
100
AcDbLine
 10
69.39796785167391
 20
-100.8208012698319
 30
0.0
 11
69.29796785167877
 21
-100.8208012698319
 31
0.0
  0
ARC
  5
132
330
2
100
AcDbEntity
  8
3
100
AcDbCircle
 10
69.39796785167391
 20
-100.7708012698347
 30
0.0
 40
0.0499999999975
100
AcDbArc
 50
270.0
 51
0.0
  0
ARC
  5
133
330
2
100
AcDbEntity
  8
3
100
AcDbCircle
 10
69.29796785167877
 20
-100.7708012698347
 30
0.0
 40
0.0499999999975
100
AcDbArc
 50
180.0
 51
270.0
  0
LINE
  5
134
330
2
100
AcDbEntity
  8
3
100
AcDbLine
 10
70.51796785161991
 20
-100.7708012698347
 30
0.0
 11
70.51796785161991
 21
-100.5208012698447
 31
0.0
  0
ARC
  5
135
330
2
100
AcDbEntity
  8
3
100
AcDbCircle
 10
70.56796785161782
 20
-100.5208012698447
 30
0.0
 40
0.0499999999975
100
AcDbArc
 50
90.0
 51
180.0
  0
LINE
  5
136
330
2
100
AcDbEntity
  8
3
100
AcDbLine
 10
70.71796785161064
 20
-100.7708012698347
 30
0.0
 11
70.71796785161064
 21
-100.5208012698447
 31
0.0
  0
ARC
  5
137
330
2
100
AcDbEntity
  8
3
100
AcDbCircle
 10
70.66796785161296
 20
-100.5208012698447
 30
0.0
 40
0.0499999999975
100
AcDbArc
 50
0.0
 51
90.0
  0
LINE
  5
138
330
2
100
AcDbEntity
  8
3
100
AcDbLine
 10
70.66796785161296
 20
-100.4708012698474
 30
0.0
 11
70.56796785161782
 21
-100.4708012698474
 31
0.0
  0
LINE
  5
139
330
2
100
AcDbEntity
  8
3
100
AcDbLine
 10
70.66796785161296
 20
-100.8208012698319
 30
0.0
 11
70.56796785161782
 21
-100.8208012698319
 31
0.0
  0
ARC
  5
13A
330
2
100
AcDbEntity
  8
3
100
AcDbCircle
 10
70.66796785161296
 20
-100.7708012698347
 30
0.0
 40
0.0499999999975
100
AcDbArc
 50
270.0
 51
0.0
  0
ARC
  5
13B
330
2
100
AcDbEntity
  8
3
100
AcDbCircle
 10
70.56796785161782
 20
-100.7708012698347
 30
0.0
 40
0.0499999999975
100
AcDbArc
 50
180.0
 51
270.0
  0
LINE
  5
13C
330
2
100
AcDbEntity
  8
3
100
AcDbLine
 10
71.78796785155691
 20
-100.7708012698347
 30
0.0
 11
71.78796785155691
 21
-100.5208012698447
 31
0.0
  0
ARC
  5
13D
330
2
100
AcDbEntity
  8
3
100
AcDbCircle
 10
71.83796785155482
 20
-100.5208012698447
 30
0.0
 40
0.0499999999975
100
AcDbArc
 50
90.0
 51
180.0
  0
LINE
  5
13E
330
2
100
AcDbEntity
  8
3
100
AcDbLine
 10
71.98796785154787
 20
-100.7708012698347
 30
0.0
 11
71.98796785154695
 21
-100.5208012698447
 31
0.0
  0
ARC
  5
13F
330
2
100
AcDbEntity
  8
3
100
AcDbCircle
 10
71.93796785154995
 20
-100.5208012698447
 30
0.0
 40
0.0499999999975
100
AcDbArc
 50
0.0
 51
90.0
  0
LINE
  5
140
330
2
100
AcDbEntity
  8
3
100
AcDbLine
 10
71.93796785154995
 20
-100.4708012698474
 30
0.0
 11
71.83796785155482
 21
-100.4708012698474
 31
0.0
  0
LINE
  5
141
330
2
100
AcDbEntity
  8
3
100
AcDbLine
 10
71.93796785154995
 20
-100.8208012698319
 30
0.0
 11
71.83796785155482
 21
-100.8208012698319
 31
0.0
  0
ARC
  5
142
330
2
100
AcDbEntity
  8
3
100
AcDbCircle
 10
71.93796785154995
 20
-100.7708012698347
 30
0.0
 40
0.0499999999975
100
AcDbArc
 50
270.0
 51
0.0
  0
ARC
  5
143
330
2
100
AcDbEntity
  8
3
100
AcDbCircle
 10
71.83796785155482
 20
-100.7708012698347
 30
0.0
 40
0.0499999999975
100
AcDbArc
 50
180.0
 51
270.0
  0
LINE
  5
144
330
2
100
AcDbEntity
  8
3
100
AcDbLine
 10
67.97796785174501
 20
-107.1708012695101
 30
0.0
 11
67.97796785174501
 21
-107.4208012695002
 31
0.0
  0
ARC
  5
145
330
2
100
AcDbEntity
  8
3
100
AcDbCircle
 10
68.02796785174155
 20
-107.4208012695002
 30
0.0
 40
0.0499999999975
100
AcDbArc
 50
180.0
 51
270.0
  0
LINE
  5
146
330
2
100
AcDbEntity
  8
3
100
AcDbLine
 10
68.17796785173391
 20
-107.1708012695099
 30
0.0
 11
68.17796785173482
 21
-107.4208012695002
 31
0.0
  0
ARC
  5
147
330
2
100
AcDbEntity
  8
3
100
AcDbCircle
 10
68.12796785173805
 20
-107.4208012695002
 30
0.0
 40
0.0499999999975
100
AcDbArc
 50
270.0
 51
0.0
  0
LINE
  5
148
330
2
100
AcDbEntity
  8
3
100
AcDbLine
 10
68.12796785173805
 20
-107.4708012694975
 30
0.0
 11
68.02796785174155
 21
-107.4708012694975
 31
0.0
  0
LINE
  5
149
330
2
100
AcDbEntity
  8
3
100
AcDbLine
 10
68.12796785173668
 20
-107.1208012695129
 30
0.0
 11
68.02796785174155
 21
-107.1208012695129
 31
0.0
  0
ARC
  5
14A
330
2
100
AcDbEntity
  8
3
100
AcDbCircle
 10
68.12796785173668
 20
-107.1708012695101
 30
0.0
 40
0.0499999999975
100
AcDbArc
 50
0.0
 51
90.0
  0
ARC
  5
14B
330
2
100
AcDbEntity
  8
3
100
AcDbCircle
 10
68.02796785174155
 20
-107.1708012695101
 30
0.0
 40
0.0499999999975
100
AcDbArc
 50
90.0
 51
180.0
  0
LINE
  5
14C
330
2
100
AcDbEntity
  8
3
100
AcDbLine
 10
69.24796785168087
 20
-107.1708012695101
 30
0.0
 11
69.24796785168087
 21
-107.4208012695002
 31
0.0
  0
ARC
  5
14D
330
2
100
AcDbEntity
  8
3
100
AcDbCircle
 10
69.29796785167877
 20
-107.4208012695002
 30
0.0
 40
0.0499999999975
100
AcDbArc
 50
180.0
 51
270.0
  0
LINE
  5
14E
330
2
100
AcDbEntity
  8
3
100
AcDbLine
 10
69.44796785167091
 20
-107.1708012695099
 30
0.0
 11
69.44796785167182
 21
-107.4208012695002
 31
0.0
  0
ARC
  5
14F
330
2
100
AcDbEntity
  8
3
100
AcDbCircle
 10
69.39796785167391
 20
-107.4208012695002
 30
0.0
 40
0.0499999999975
100
AcDbArc
 50
270.0
 51
0.0
  0
LINE
  5
150
330
2
100
AcDbEntity
  8
3
100
AcDbLine
 10
69.39796785167391
 20
-107.4708012694975
 30
0.0
 11
69.29796785167877
 21
-107.4708012694975
 31
0.0
  0
LINE
  5
151
330
2
100
AcDbEntity
  8
3
100
AcDbLine
 10
69.39796785167391
 20
-107.1208012695129
 30
0.0
 11
69.29796785167877
 21
-107.1208012695129
 31
0.0
  0
ARC
  5
152
330
2
100
AcDbEntity
  8
3
100
AcDbCircle
 10
69.39796785167391
 20
-107.1708012695101
 30
0.0
 40
0.0499999999975
100
AcDbArc
 50
0.0
 51
90.0
  0
ARC
  5
153
330
2
100
AcDbEntity
  8
3
100
AcDbCircle
 10
69.29796785167877
 20
-107.1708012695101
 30
0.0
 40
0.0499999999975
100
AcDbArc
 50
90.0
 51
180.0
  0
LINE
  5
154
330
2
100
AcDbEntity
  8
3
100
AcDbLine
 10
70.51796785161991
 20
-107.1708012695101
 30
0.0
 11
70.51796785161991
 21
-107.4208012695002
 31
0.0
  0
ARC
  5
155
330
2
100
AcDbEntity
  8
3
100
AcDbCircle
 10
70.56796785161782
 20
-107.4208012695002
 30
0.0
 40
0.0499999999975
100
AcDbArc
 50
180.0
 51
270.0
  0
LINE
  5
156
330
2
100
AcDbEntity
  8
3
100
AcDbLine
 10
70.71796785161064
 20
-107.1708012695101
 30
0.0
 11
70.71796785161064
 21
-107.4208012695002
 31
0.0
  0
ARC
  5
157
330
2
100
AcDbEntity
  8
3
100
AcDbCircle
 10
70.66796785161296
 20
-107.4208012695002
 30
0.0
 40
0.0499999999975
100
AcDbArc
 50
270.0
 51
0.0
  0
LINE
  5
158
330
2
100
AcDbEntity
  8
3
100
AcDbLine
 10
70.66796785161296
 20
-107.4708012694975
 30
0.0
 11
70.56796785161782
 21
-107.4708012694975
 31
0.0
  0
LINE
  5
159
330
2
100
AcDbEntity
  8
3
100
AcDbLine
 10
70.66796785161296
 20
-107.1208012695129
 30
0.0
 11
70.56796785161782
 21
-107.1208012695129
 31
0.0
  0
ARC
  5
15A
330
2
100
AcDbEntity
  8
3
100
AcDbCircle
 10
70.66796785161296
 20
-107.1708012695101
 30
0.0
 40
0.0499999999975
100
AcDbArc
 50
0.0
 51
90.0
  0
ARC
  5
15B
330
2
100
AcDbEntity
  8
3
100
AcDbCircle
 10
70.56796785161782
 20
-107.1708012695101
 30
0.0
 40
0.0499999999975
100
AcDbArc
 50
90.0
 51
180.0
  0
LINE
  5
15C
330
2
100
AcDbEntity
  8
3
100
AcDbLine
 10
71.78796785155691
 20
-107.1708012695101
 30
0.0
 11
71.78796785155691
 21
-107.4208012695002
 31
0.0
  0
ARC
  5
15D
330
2
100
AcDbEntity
  8
3
100
AcDbCircle
 10
71.83796785155482
 20
-107.4208012695002
 30
0.0
 40
0.0499999999975
100
AcDbArc
 50
180.0
 51
270.0
  0
LINE
  5
15E
330
2
100
AcDbEntity
  8
3
100
AcDbLine
 10
71.98796785154787
 20
-107.1708012695101
 30
0.0
 11
71.98796785154695
 21
-107.4208012695002
 31
0.0
  0
ARC
  5
15F
330
2
100
AcDbEntity
  8
3
100
AcDbCircle
 10
71.93796785154995
 20
-107.4208012695002
 30
0.0
 40
0.0499999999975
100
AcDbArc
 50
270.0
 51
0.0
  0
LINE
  5
160
330
2
100
AcDbEntity
  8
3
100
AcDbLine
 10
71.93796785154995
 20
-107.4708012694975
 30
0.0
 11
71.83796785155482
 21
-107.4708012694975
 31
0.0
  0
LINE
  5
161
330
2
100
AcDbEntity
  8
3
100
AcDbLine
 10
71.93796785154995
 20
-107.1208012695129
 30
0.0
 11
71.83796785155482
 21
-107.1208012695129
 31
0.0
  0
ARC
  5
162
330
2
100
AcDbEntity
  8
3
100
AcDbCircle
 10
71.93796785154995
 20
-107.1708012695101
 30
0.0
 40
0.0499999999975
100
AcDbArc
 50
0.0
 51
90.0
  0
ARC
  5
163
330
2
100
AcDbEntity
  8
3
100
AcDbCircle
 10
71.83796785155482
 20
-107.1708012695101
 30
0.0
 40
0.0499999999975
100
AcDbArc
 50
90.0
 51
180.0
  0
LINE
  5
164
330
2
100
AcDbEntity
  8
3D
  6
CENTER
 62
     2
100
AcDbLine
 10
72.48296785164666
 20
-100.9708012696721
 30
0.0
 11
72.48296785164666
 21
-106.9708012696722
 31
0.0
  0
MTEXT
  5
165
330
2
100
AcDbEntity
  8
1D
100
AcDbMText
 10
81.56621592720785
 20
-109.4741844696494
 30
0.0
 40
0.24
 41
0.0
 46
0.0
 71
     5
 72
     1
  1
\A1;{\fRomantic|b0|i0|c2|p2;Option D: DSCQFN-5.0X6.0-8L-11-Cu/Pad &Lead Selective Ag with hole}
 73
     1
 44
1.0
  0
MTEXT
  5
166
102
{ACAD_XDICTIONARY
360
167
102
}
330
2
100
AcDbEntity
  8
1D
100
AcDbMText
 10
64.90812760902191
 20
-123.1674987178515
 30
0.0
 40
0.24
 41
0.0
 46
0.0
 71
     5
 72
     1
  1
\pxql;{\fRomantic|b0|i0|c2|p2;Cu EXPOSED AND OVERHANG(X & Y AXIS): 0.000~0.030mm\PPLATING OFFSET TO BE 0.030mm MAX IN X AND Y AXIS }
 73
     1
 44
1.0
  0
LINE
  5
168
330
2
100
AcDbEntity
  8
3
100
AcDbLine
 10
68.27796785172973
 20
-101.2458009948073
 30
0.0
 11
69.14796785168801
 21
-101.2458009948073
 31
0.0
  0
LINE
  5
169
330
2
100
AcDbEntity
  8
3
100
AcDbLine
 10
69.54796785166604
 20
-101.2458009948073
 30
0.0
 11
70.41796785162683
 21
-101.2458009948073
 31
0.0
  0
LINE
  5
16A
330
2
100
AcDbEntity
  8
3
100
AcDbLine
 10
70.81796785160486
 20
-101.2458009948057
 30
0.0
 11
71.68796785156178
 21
-101.2458009948058
 31
0.0
  0
LINE
  5
16B
330
2
100
AcDbEntity
  8
3
100
AcDbLine
 10
72.08796785154163
 20
-101.2458009948058
 30
0.0
 11
72.23296703318488
 21
-101.2458009948058
 31
0.0
  0
LINE
  5
16C
330
2
100
AcDbEntity
  8
3
100
AcDbLine
 10
67.73297696155395
 20
-101.2458009948073
 30
0.0
 11
67.87796785175078
 21
-101.2458009948073
 31
0.0
  0
LINE
  5
16D
330
2
100
AcDbEntity
  8
3
100
AcDbLine
 10
73.00796785164675
 20
-99.72080126967274
 30
0.0
 11
73.00796785164789
 21
-99.97080126967274
 31
0.0
  0
LINE
  5
16E
330
2
100
AcDbEntity
  8
3
100
AcDbLine
 10
66.95796785164588
 20
-99.97080126967274
 30
0.0
 11
73.00796785164789
 21
-99.97080126967274
 31
0.0
  0
LINE
  5
16F
330
2
100
AcDbEntity
  8
3
100
AcDbLine
 10
66.9579678516468
 20
-99.7208012696725
 30
0.0
 11
73.00796785164675
 21
-99.7208012696725
 31
0.0
  0
LINE
  5
170
330
2
100
AcDbEntity
  8
3
100
AcDbLine
 10
66.95796785164588
 20
-99.72080126967245
 30
0.0
 11
66.95796785164588
 21
-99.97080126967274
 31
0.0
  0
LINE
  5
171
330
2
100
AcDbEntity
  8
3
100
AcDbLine
 10
73.00796785164675
 20
-108.2208012696724
 30
0.0
 11
73.00796785164789
 21
-107.9708012696722
 31
0.0
  0
LINE
  5
172
330
2
100
AcDbEntity
  8
3
100
AcDbLine
 10
66.95796785164588
 20
-107.9708012696723
 30
0.0
 11
73.00796785164789
 21
-107.9708012696723
 31
0.0
  0
LINE
  5
173
330
2
100
AcDbEntity
  8
3
100
AcDbLine
 10
66.95796785164588
 20
-108.2208012696724
 30
0.0
 11
73.00796785164675
 21
-108.2208012696724
 31
0.0
  0
LINE
  5
174
330
2
100
AcDbEntity
  8
3
100
AcDbLine
 10
66.95796785164588
 20
-108.2208012696724
 30
0.0
 11
66.95796785164588
 21
-107.9708012696722
 31
0.0
  0
LINE
  5
175
102
{ACAD_REACTORS
330
B7
330
BA
102
}
330
2
100
AcDbEntity
  8
3
100
AcDbLine
 10
71.68796785150471
 20
-107.2608012696701
 30
0.0
 11
71.6879678515038
 21
-105.7859575054476
 31
0.0
  0
LINE
  5
176
102
{ACAD_REACTORS
330
B7
102
}
330
2
100
AcDbEntity
  8
3
100
AcDbLine
 10
72.18796765154093
 20
-105.7859575054476
 30
0.0
 11
72.18796765154093
 21
-106.6859575053942
 31
0.0
  0
LINE
  5
177
102
{ACAD_REACTORS
330
B7
102
}
330
2
100
AcDbEntity
  8
3
100
AcDbLine
 10
71.6879678515038
 20
-105.7859575054476
 30
0.0
 11
72.18796765154093
 21
-105.7859575054476
 31
0.0
  0
LINE
  5
178
330
2
100
AcDbEntity
  8
3
100
AcDbLine
 10
72.08796785147979
 20
-106.6859575053942
 30
0.0
 11
72.18796765154093
 21
-106.6859575053942
 31
0.0
  0
LINE
  5
179
330
2
100
AcDbEntity
  8
3
100
AcDbLine
 10
71.23296785164575
 20
-106.685957505392
 30
0.0
 11
70.81796785155802
 21
-106.685957505392
 31
0.0
  0
LINE
  5
17A
330
2
100
AcDbEntity
  8
3
100
AcDbLine
 10
69.14796785166595
 20
-106.685957505392
 30
0.0
 11
68.27796785172267
 21
-106.685957505392
 31
0.0
  0
LINE
  5
17B
330
2
100
AcDbEntity
  8
3
100
AcDbLine
 10
70.41796785158294
 20
-106.6859575053927
 30
0.0
 11
69.54796785163785
 21
-106.685957505392
 31
0.0
  0
LINE
  5
17C
330
2
100
AcDbEntity
  8
3
100
AcDbLine
 10
71.39799662112569
 20
-105.7859575054475
 30
0.0
 11
68.56793908216878
 21
-105.7859575054476
 31
0.0
  0
LINE
  5
17D
330
2
100
AcDbEntity
  8
3
100
AcDbLine
 10
68.27796785172404
 20
-105.7859575054476
 30
0.0
 11
67.73296854155887
 21
-105.7859575054476
 31
0.0
  0
LINE
  5
17E
330
2
100
AcDbEntity
  8
3
100
AcDbLine
 10
68.277967851727
 20
-107.2608012696727
 30
0.0
 11
68.27796785172404
 21
-105.7859575054476
 31
0.0
  0
LINE
  5
17F
330
2
100
AcDbEntity
  8
3
100
AcDbLine
 10
67.73296854155887
 20
-105.7859575054476
 30
0.0
 11
67.73296854155887
 21
-106.6859575053942
 31
0.0
  0
LINE
  5
180
330
2
100
AcDbEntity
  8
3
100
AcDbLine
 10
67.87796785174691
 20
-106.6859575053942
 30
0.0
 11
67.73296854155569
 21
-106.6859575053942
 31
0.0
  0
LINE
  5
181
330
2
100
AcDbEntity
  8
3
100
AcDbLine
 10
68.73296785164393
 20
-106.4359575053984
 30
0.0
 11
68.73296785164575
 21
-105.7859575054478
 31
0.0
  0
LINE
  5
182
330
2
100
AcDbEntity
  8
3
100
AcDbLine
 10
71.23296785164893
 20
-106.6859575053942
 30
0.0
 11
71.23296785164666
 21
-105.7859575054478
 31
0.0
  0
LINE
  5
183
330
2
100
AcDbEntity
  8
3
100
AcDbLine
 10
68.27796785172586
 20
-106.4359575053985
 30
0.0
 11
68.73296785164393
 21
-106.4359575053984
 31
0.0
  0
LINE
  5
184
330
2
100
AcDbEntity
  8
3
100
AcDbLine
 10
68.56793908216878
 20
-106.2859575053985
 30
0.0
 11
68.56793908216878
 21
-105.7859575054476
 31
0.0
  0
LINE
  5
185
330
2
100
AcDbEntity
  8
3
100
AcDbLine
 10
68.66598055353688
 20
-106.2859575053985
 30
0.0
 11
68.66598055353688
 21
-105.7859575054476
 31
0.0
  0
LINE
  5
186
330
2
100
AcDbEntity
  8
3
100
AcDbLine
 10
68.56793908216878
 20
-106.2859575053985
 30
0.0
 11
68.73296785164393
 21
-106.2859575053985
 31
0.0
  0
LINE
  5
187
330
2
100
AcDbEntity
  8
3
100
AcDbLine
 10
71.39799662112569
 20
-106.2859575053985
 30
0.0
 11
71.39799662112569
 21
-105.7859575054476
 31
0.0
  0
LINE
  5
188
330
2
100
AcDbEntity
  8
3
100
AcDbLine
 10
71.29995514975803
 20
-106.2859575053985
 30
0.0
 11
71.29995514975803
 21
-105.7859575054476
 31
0.0
  0
LINE
  5
189
330
2
100
AcDbEntity
  8
3
100
AcDbLine
 10
71.39799662112569
 20
-106.2859575053985
 30
0.0
 11
71.23296785165099
 21
-106.2859575053985
 31
0.0
  0
LINE
  5
18A
102
{ACAD_REACTORS
330
1C4
102
}
330
2
100
AcDbEntity
  8
3D
  6
CENTER
 62
     1
 48
2.0
100
AcDbLine
 10
81.44913075848876
 20
-105.083579508124
 30
0.0
 11
81.44913075848876
 21
-102.8580230312209
 31
0.0
  0
LINE
  5
18B
330
2
100
AcDbEntity
  8
3D
  6
CENTER
 62
     1
 48
2.0
100
AcDbLine
 10
80.33635252003774
 20
-103.9708012696725
 30
0.0
 11
82.56190899694002
 21
-103.9708012696725
 31
0.0
  0
LINE
  5
18C
330
2
100
AcDbEntity
  8
3D
  6
CENTER
 62
     2
100
AcDbLine
 10
78.94913075848785
 20
-106.9708012696722
 30
0.0
 11
78.94913075848876
 21
-100.9708012696722
 31
0.0
  0
LINE
  5
18D
330
2
100
AcDbEntity
  8
3D
  6
CENTER
 62
     2
100
AcDbLine
 10
78.94913075848785
 20
-106.9708012696722
 30
0.0
 11
83.94913075848785
 21
-106.9708012696722
 31
0.0
  0
LINE
  5
18E
330
2
100
AcDbEntity
  8
3D
  6
CENTER
 62
     2
100
AcDbLine
 10
78.94913075848876
 20
-100.9708012696722
 30
0.0
 11
83.94913075848785
 21
-100.9708012696721
 31
0.0
  0
LINE
  5
18F
330
2
100
AcDbEntity
  8
3
100
AcDbLine
 10
78.42413075848776
 20
-107.3608012696735
 30
0.0
 11
78.42413075848776
 21
-104.720801269579
 31
0.0
  0
LINE
  5
190
330
2
100
AcDbEntity
  8
3
100
AcDbLine
 10
78.42413075848776
 20
-104.4708012696014
 30
0.0
 11
78.42413075848776
 21
-100.5808012696718
 31
0.0
  0
LINE
  5
191
330
2
100
AcDbEntity
  8
3
100
AcDbLine
 10
84.47413075848885
 20
-100.5808012696759
 30
0.0
 11
84.47413075848885
 21
-104.4708032293289
 31
0.0
  0
LINE
  5
192
330
2
100
AcDbEntity
  8
3
100
AcDbLine
 10
84.47413075848885
 20
-104.720801269635
 30
0.0
 11
84.47413075848885
 21
-107.3608012696693
 31
0.0
  0
HATCH
  5
193
330
2
100
AcDbEntity
  8
1D
100
AcDbHatch
 10
0.0
 20
0.0
 30
0.0
210
0.0
220
0.0
230
1.0
  2
DOTS
 70
     0
 71
     0
 91
        7
 92
       23
 72
     0
 73
     1
 93
        4
 10
79.34413075859379
 20
-101.2458009948073
 10
79.19913986839606
 20
-101.2458009948073
 10
79.19913986839469
 20
-104.4708012695819
 10
79.34413075859379
 20
-104.4708012695819
 97
        0
 92
        7
 72
     1
 73
     1
 93
       26
 10
83.55413075838191
 20
-101.2458009948058
 42
0.0
 10
83.15413075840297
 20
-101.2458009948058
 42
0.0
 10
83.15413075840297
 20
-101.2958007198035
 42
0.0
 10
82.28413075844583
 20
-101.2958007198035
 42
0.0
 10
82.28413075844583
 20
-101.2458009948058
 42
0.0
 10
81.8841307584678
 20
-101.2458009948058
 42
0.0
 10
81.8841307584678
 20
-101.2958007198032
 42
0.0
 10
81.01413075850677
 20
-101.2958007198035
 42
0.0
 10
81.01413075850677
 20
-101.2458009948072
 42
0.0
 10
80.61413075852874
 20
-101.2458009948072
 42
0.0
 10
80.61413075852874
 20
-101.2958007198032
 42
0.0
 10
79.74413075857092
 20
-101.2958007198035
 42
0.0
 10
79.74413075857092
 20
-101.2458009948073
 42
0.0
 10
79.34413075859379
 20
-101.2458009948073
 42
0.0
 10
79.34413075859379
 20
-104.4708012695819
 42
0.0
 10
79.19913986839787
 20
-104.4708012695819
 42
0.0
 10
79.19913144840098
 20
-104.720801269635
 42
0.0
 10
79.34412233860076
 20
-104.720801269635
 42
0.0
 10
79.34412187866882
 20
-104.970800352729
 42
0.0
 10
82.85413963846099
 20
-104.9708072550034
 42
-1.00003647849128
 10
83.25413963817391
 20
-104.9708080415832
 42
0.0
 10
83.5541396383228
 20
-104.9708086315182
 42
0.0
 10
83.55413917837678
 20
-104.720801269635
 42
0.0
 10
83.69911322837493
 20
-104.720801269635
 42
0.0
 10
83.69912164837183
 20
-104.4708012695819
 42
0.0
 10
83.55413075838191
 20
-104.4708012695819
 42
0.0
 97
        0
 92
       23
 72
     0
 73
     1
 93
        4
 10
80.61413075852874
 20
-101.2458009948073
 10
79.74413075857092
 20
-101.2458009948073
 10
79.74413075857092
 20
-101.2958007198035
 10
80.61413075852874
 20
-101.2958007198032
 97
        0
 92
       23
 72
     0
 73
     1
 93
        4
 10
81.8841307584678
 20
-101.2458009948073
 10
81.01413075850677
 20
-101.2458009948073
 10
81.01413075850677
 20
-101.2958007198035
 10
81.8841307584678
 20
-101.2958007198032
 97
        0
 92
        7
 72
     0
 73
     1
 93
        4
 10
83.15413075840297
 20
-101.2458009948058
 10
82.28413075844583
 20
-101.2458009948057
 10
82.28413075844583
 20
-101.2958007198035
 10
83.15413075840297
 20
-101.2958007198035
 97
        0
 92
        7
 72
     0
 73
     1
 93
        5
 10
83.69912994002675
 20
-101.2458009948058
 10
83.55413075838191
 20
-101.2458009948058
 10
83.55413075838191
 20
-104.4708012695819
 10
83.69912164857874
 20
-104.4708012695819
 10
83.69912164858192
 20
-104.4707945195642
 97
        0
 92
        7
 72
     1
 73
     1
 93
       10
 10
83.69913006857382
 20
-104.720801269635
 42
0.0
 10
83.55413917837678
 20
-104.720801269635
 42
0.0
 10
83.5541396383228
 20
-104.9708086315182
 42
0.0
 10
83.25413963817391
 20
-104.9708080415832
 42
1.00003647849128
 10
82.85413963846099
 20
-104.9708072550034
 42
0.0
 10
79.34412187866882
 20
-104.970800352729
 42
0.0
 10
79.34412233860076
 20
-104.720801269635
 42
0.0
 10
79.19913144840098
 20
-104.720801269635
 42
0.0
 10
79.1991314483987
 20
-105.5857926356654
 42
0.0
 10
83.69913006857563
 20
-105.5858016615962
 42
0.0
 97
        0
 75
     0
 76
     1
 52
0.0
 41
1.0
 77
     0
 78
     1
 53
0.0
 43
-2597.229334653968
 44
131.6519554121566
 45
0.03125
 46
0.0625
 79
     2
 49
0.0
 49
-0.0625
 47
0.01079521627903
 98
        7
 10
79.30601419316372
 20
-101.9752561378157
 10
80.33649070748902
 20
-102.4365781416916
 10
80.24059437162486
 20
-101.2898988160075
 10
81.70243737822488
 20
-101.2631569198774
 10
82.70737727438381
 20
-101.2781997109748
 10
83.60316716403985
 20
-101.4624748509641
 10
82.51006049591593
 20
-105.3182558505897
1001
ACAD
1010
-2090.087314
1020
220.920291
1030
0.0
  0
LINE
  5
194
330
2
100
AcDbEntity
  8
3
100
AcDbLine
 10
83.69912164858192
 20
-104.4707945195642
 30
0.0
 11
84.47413075848885
 21
-104.4708012696497
 31
0.0
  0
LINE
  5
195
330
2
100
AcDbEntity
  8
3
100
AcDbLine
 10
83.69913006857563
 20
-104.720801269635
 30
0.0
 11
84.47413075848885
 21
-104.7208012696351
 31
0.0
  0
LINE
  5
196
330
2
100
AcDbEntity
  8
3
100
AcDbLine
 10
79.19913144840098
 20
-104.7208012695849
 30
0.0
 11
78.42413075848776
 21
-104.7208012695802
 31
0.0
  0
LINE
  5
197
330
2
100
AcDbEntity
  8
3
100
AcDbLine
 10
83.65413055838189
 20
-105.7859575054476
 30
0.0
 11
83.65413055838189
 21
-106.5359575054469
 31
0.0
  0
LINE
  5
198
330
2
100
AcDbEntity
  8
3
100
AcDbLine
 10
83.15413075834475
 20
-105.7859575054476
 30
0.0
 11
83.65413055838189
 21
-105.7859575054476
 31
0.0
  0
LINE
  5
199
330
2
100
AcDbEntity
  8
P-L
 48
4.0
100
AcDbLine
 10
81.01413075850677
 20
-101.2958007198035
 30
0.0
 11
81.8841307584678
 21
-101.2958007198032
 31
0.0
  0
LINE
  5
19A
330
2
100
AcDbEntity
  8
P-L
 48
4.0
100
AcDbLine
 10
82.28413075844583
 20
-101.2958007198035
 30
0.0
 11
83.15413155841406
 21
-101.2958007198035
 31
0.0
  0
LINE
  5
19B
330
2
100
AcDbEntity
  8
P-L
 48
4.0
100
AcDbLine
 10
79.74413075857092
 20
-101.2958007198035
 30
0.0
 11
80.61413075852874
 21
-101.2958007198032
 31
0.0
  0
LINE
  5
19C
102
{ACAD_REACTORS
330
282
102
}
330
2
100
AcDbEntity
  8
3
100
AcDbLine
 10
79.19913986839606
 20
-101.2458009948074
 30
0.0
 11
79.19913986839469
 21
-104.4708012695819
 31
0.0
  0
LINE
  5
19D
330
2
100
AcDbEntity
  8
3
100
AcDbLine
 10
83.69913006857382
 20
-104.720801269635
 30
0.0
 11
83.69913006857563
 21
-105.5858016615961
 31
0.0
  0
LINE
  5
19E
330
2
100
AcDbEntity
  8
3
100
AcDbLine
 10
78.42413075848776
 20
-104.4708012695971
 30
0.0
 11
79.19913986839469
 21
-104.4708012695819
 31
0.0
  0
LINE
  5
19F
330
2
100
AcDbEntity
  8
P-L
 48
4.0
100
AcDbLine
 10
83.55413963832189
 20
-104.9708086315182
 30
0.0
 11
83.25413963817391
 21
-104.9708080415832
 31
0.0
  0
LINE
  5
1A0
330
2
100
AcDbEntity
  8
P-L
 48
4.0
100
AcDbLine
 10
82.85413963846099
 20
-104.9708072550034
 30
0.0
 11
79.34412187866882
 21
-104.970800352729
 31
0.0
  0
LINE
  5
1A1
330
2
100
AcDbEntity
  8
P-L
 48
4.0
100
AcDbLine
 10
79.34413075859379
 20
-104.4708012695819
 30
0.0
 11
79.19913986839787
 21
-104.4708012695819
 31
0.0
  0
LINE
  5
1A2
330
2
100
AcDbEntity
  8
3
100
AcDbLine
 10
83.69913006857563
 20
-105.5858016615962
 30
0.0
 11
79.1991314483987
 21
-105.5857926356654
 31
0.0
  0
LINE
  5
1A3
330
2
100
AcDbEntity
  8
P-L
 48
4.0
100
AcDbLine
 10
79.34413075859379
 20
-101.195801269811
 30
0.0
 11
79.34413075859379
 21
-104.4708012695819
 31
0.0
  0
LINE
  5
1A4
330
2
100
AcDbEntity
  8
P-L
 48
4.0
100
AcDbLine
 10
83.55413075838191
 20
-101.1958012698117
 30
0.0
 11
83.55413075838191
 21
-104.4708012695819
 31
0.0
  0
LINE
  5
1A5
330
2
100
AcDbEntity
  8
3
100
AcDbLine
 10
83.69912994002675
 20
-101.2458009948057
 30
0.0
 11
83.69912164858192
 21
-104.4708012695819
 31
0.0
  0
LINE
  5
1A6
330
2
100
AcDbEntity
  8
P-L
 48
4.0
100
AcDbLine
 10
83.55413075838191
 20
-104.4708012695819
 30
0.0
 11
83.69912164857874
 21
-104.4708012695819
 31
0.0
  0
LINE
  5
1A7
330
2
100
AcDbEntity
  8
3
100
AcDbLine
 10
79.19913144840098
 20
-104.720801269635
 30
0.0
 11
79.1991314483987
 21
-105.5857926356654
 31
0.0
  0
ARC
  5
1A8
330
2
100
AcDbEntity
  8
P-L
 48
4.0
100
AcDbCircle
 10
79.54413075857883
 20
-106.3708012695504
 30
0.0
 40
0.1999999999875443
100
AcDbArc
 50
0.0000000000455964
 51
180.0000000000456
  0
ARC
  5
1A9
330
2
100
AcDbEntity
  8
P-L
 48
4.0
100
AcDbCircle
 10
80.81413075849878
 20
-106.3708012695492
 30
0.0
 40
0.1999999999875443
100
AcDbArc
 50
0.0000000000455964
 51
180.0000000000456
  0
ARC
  5
1AA
330
2
100
AcDbEntity
  8
P-L
 48
4.0
100
AcDbCircle
 10
82.08413075841576
 20
-106.3708012695492
 30
0.0
 40
0.1999999999875443
100
AcDbArc
 50
0.0000000000455964
 51
180.0000000000456
  0
ARC
  5
1AB
102
{ACAD_REACTORS
330
B7
102
}
330
2
100
AcDbEntity
  8
P-L
 48
4.0
100
AcDbCircle
 10
83.35413075833367
 20
-106.3708012695484
 30
0.0
 40
0.1999999999875443
100
AcDbArc
 50
0.0000000000455964
 51
180.0000000000456
  0
LINE
  5
1AC
330
2
100
AcDbEntity
  8
P-L
 48
4.0
100
AcDbLine
 10
79.34412233860076
 20
-104.720801269635
 30
0.0
 11
79.19913144840484
 21
-104.720801269635
 31
0.0
  0
LINE
  5
1AD
330
2
100
AcDbEntity
  8
P-L
 48
4.0
100
AcDbLine
 10
83.55412233838979
 20
-104.720801269635
 30
0.0
 11
83.69911322858389
 21
-104.720801269635
 31
0.0
  0
LINE
  5
1AE
330
2
100
AcDbEntity
  8
P-L
 48
4.0
100
AcDbLine
 10
79.34412233860076
 20
-104.720801269635
 30
0.0
 11
79.34412187866882
 21
-104.970800352729
 31
0.0
  0
LINE
  5
1AF
330
2
100
AcDbEntity
  8
P-L
 48
4.0
100
AcDbLine
 10
83.55413917837678
 20
-104.720801269635
 30
0.0
 11
83.55413963830779
 21
-104.970800352729
 31
0.0
  0
LINE
  5
1B0
330
2
100
AcDbEntity
  8
P-L
 48
4.0
100
AcDbLine
 10
79.74413075857092
 20
-101.1958012698117
 30
0.0
 11
79.74413075857092
 21
-101.2958007198035
 31
0.0
  0
LINE
  5
1B1
330
2
100
AcDbEntity
  8
P-L
 48
4.0
100
AcDbLine
 10
80.61413075852874
 20
-101.195801269811
 30
0.0
 11
80.61413075852874
 21
-101.2958007198032
 31
0.0
  0
LINE
  5
1B2
330
2
100
AcDbEntity
  8
P-L
 48
4.0
100
AcDbLine
 10
81.01413075850677
 20
-101.195801269813
 30
0.0
 11
81.01413075850677
 21
-101.2958007198049
 31
0.0
  0
LINE
  5
1B3
330
2
100
AcDbEntity
  8
P-L
 48
4.0
100
AcDbLine
 10
81.8841307584678
 20
-101.1958012698097
 30
0.0
 11
81.8841307584678
 21
-101.2958007198018
 31
0.0
  0
LINE
  5
1B4
330
2
100
AcDbEntity
  8
P-L
 48
4.0
100
AcDbLine
 10
82.28413075844583
 20
-101.1958012698117
 30
0.0
 11
82.28413075844583
 21
-101.2958007198035
 31
0.0
  0
LINE
  5
1B5
330
2
100
AcDbEntity
  8
P-L
 48
4.0
100
AcDbLine
 10
83.15413075840297
 20
-101.1958012698142
 30
0.0
 11
83.15413075840297
 21
-101.2958007198065
 31
0.0
  0
ARC
  5
1B6
330
2
100
AcDbEntity
  8
P-L
 48
4.0
100
AcDbCircle
 10
83.05413963833188
 20
-104.970800352729
 30
0.0
 40
0.19999999999
100
AcDbArc
 50
359.9977973054783
 51
180.0019773559518
  0
LINE
  5
1B7
102
{ACAD_REACTORS
330
B7
102
}
330
2
100
AcDbEntity
  8
P-L
 48
4.0
100
AcDbLine
 10
83.55413075832007
 20
-106.3708012695484
 30
0.0
 11
83.55413075832007
 21
-106.4997359053982
 31
0.0
  0
LINE
  5
1B8
330
2
100
AcDbEntity
  8
P-L
 48
4.0
100
AcDbLine
 10
81.01413075848473
 20
-106.3708012695491
 30
0.0
 11
81.01413075848176
 21
-106.5359575053969
 31
0.0
  0
LINE
  5
1B9
330
2
100
AcDbEntity
  8
P-L
 48
4.0
100
AcDbLine
 10
80.61413075850987
 20
-106.3708012695493
 30
0.0
 11
80.61413075850897
 21
-106.5359575053969
 31
0.0
  0
LINE
  5
1BA
330
2
100
AcDbEntity
  8
P-L
 48
4.0
100
AcDbLine
 10
82.28413075840581
 20
-106.3708012695491
 30
0.0
 11
82.28413075840171
 21
-106.5359575053969
 31
0.0
  0
LINE
  5
1BB
330
2
100
AcDbEntity
  8
P-L
 48
4.0
100
AcDbLine
 10
81.88413075843163
 20
-106.3708012695493
 30
0.0
 11
81.88413075843072
 21
-106.5359575053969
 31
0.0
  0
LINE
  5
1BC
330
2
100
AcDbEntity
  8
P-L
 48
4.0
100
AcDbLine
 10
79.74413075857092
 20
-106.3708012695491
 30
0.0
 11
79.74413075856773
 21
-106.5359575053969
 31
0.0
  0
LINE
  5
1BD
330
2
100
AcDbEntity
  8
P-L
 48
4.0
100
AcDbLine
 10
79.34413075859675
 20
-106.3708012695493
 30
0.0
 11
79.34413075859584
 21
-106.5359575053969
 31
0.0
  0
LINE
  5
1BE
330
2
100
AcDbEntity
  8
P-L
 62
     4
 48
4.0
100
AcDbLine
 10
83.65413055838189
 20
-105.7859575054476
 30
0.0
 11
83.65413055838189
 21
-106.5359575054469
 31
0.0
  0
LINE
  5
1BF
102
{ACAD_REACTORS
330
B7
102
}
330
2
100
AcDbEntity
  8
P-L
 62
     4
 48
4.0
100
AcDbLine
 10
83.65413055838189
 20
-106.6375575054467
 30
0.0
 11
83.15413075834475
 21
-106.6375575054467
 31
0.0
  0
LINE
  5
1C0
330
2
100
AcDbEntity
  8
P-L
 62
     4
 48
4.0
100
AcDbLine
 10
83.15413075834475
 20
-105.7859575054476
 30
0.0
 11
83.65413055838189
 21
-105.7859575054476
 31
0.0
  0
LINE
  5
1C1
330
2
100
AcDbEntity
  8
PKG-OUT
100
AcDbLine
 10
83.15413075831997
 20
-105.7859575054476
 30
0.0
 11
83.15413075831997
 21
-106.5359575054468
 31
0.0
  0
DIMENSION
  5
1C2
102
{ACAD_XDICTIONARY
360
1C3
102
}
102
{ACAD_REACTORS
330
1C4
102
}
330
2
100
AcDbEntity
  8
1D
100
AcDbDimension
280
     0
  2
*D5
 10
81.44913075848876
 20
-103.9708012696725
 30
0.0
 11
81.44913075848876
 21
-98.82459797732412
 31
0.0
 12
1615.333745727722
 22
-579.2320148666846
 32
0.0
 70
    70
 71
     5
 42
0.0
 73
     0
 74
     0
 75
     0
  3
複本 DM-1-1
100
AcDbOrdinateDimension
 13
81.44913075848876
 23
-102.8580230312209
 33
0.0
 14
81.44913075848876
 24
-99.44459797732378
 34
0.0
  0
DIMENSION
  5
1CD
330
2
100
AcDbEntity
  8
1D
100
AcDbDimension
280
     0
  2
*D3
 10
81.44913075848876
 20
-103.9708012696725
 30
0.0
 11
87.73354571843174
 21
-103.9708012696725
 31
0.0
 12
1615.333745727722
 22
-579.2320148666846
 32
0.0
 70
   134
 71
     5
 42
0.0
 73
     0
 74
     0
 75
     0
  3
複本 DM-1-1
100
AcDbOrdinateDimension
 13
82.56190899694002
 23
-103.9708012696725
 33
0.0
 14
87.11354571843163
 24
-103.9708012696725
 34
0.0
  0
DIMENSION
  5
1D6
330
2
100
AcDbEntity
  8
1D
100
AcDbDimension
280
     0
  2
*D4
 10
81.44913075848876
 20
-103.9708012696725
 30
0.0
 11
86.9024232132549
 21
-106.6373087185774
 31
0.0
 12
1615.333745727722
 22
-579.2320148666846
 32
0.0
 70
   134
  1
<>%%p0.075
 71
     5
 42
2.66675623577447
 73
     0
 74
     0
 75
     0
  3
複本 DM-1-1
100
AcDbOrdinateDimension
 13
83.55413075832007
 23
-106.6375575054468
 33
0.0
 14
85.45385178468382
 24
-106.6373087185774
 34
0.0
1001
ACAD_DSTYLE_DIMINSPECT
1070
   396
1000
100%
1070
   395
1000

1070
   394
1070
    33
1070
   393
1070
     0
  0
MTEXT
  5
1E1
330
2
100
AcDbEntity
  8
4D
100
AcDbMText
 10
81.42438798053195
 20
-108.7566605804712
 30
0.0
 40
0.26
 41
0.0
 46
0.0
 71
     5
 72
     1
  1
{\fRomantic|b0|i0|c2|p2;\LPLATING AREA}
 73
     1
 44
1.0
  0
LINE
  5
1E2
330
2
100
AcDbEntity
  8
3
100
AcDbLine
 10
82.28413075840171
 20
-106.5359575053969
 30
0.0
 11
82.28413075840171
 21
-107.2608012696707
 31
0.0
  0
LINE
  5
1E3
330
2
100
AcDbEntity
  8
3
100
AcDbLine
 10
83.15413075834682
 20
-107.2608012696699
 30
0.0
 11
83.15413075834385
 21
-105.7859575054476
 31
0.0
  0
LINE
  5
1E4
330
2
100
AcDbEntity
  8
P-L
 62
     4
 48
4.0
100
AcDbLine
 10
83.1541307583218
 20
-106.6375575054468
 30
0.0
 11
83.15413075833976
 21
-105.7859575054476
 31
0.0
  0
LINE
  5
1E5
102
{ACAD_REACTORS
330
B7
102
}
330
2
100
AcDbEntity
  8
3
100
AcDbLine
 10
83.55413075832007
 20
-106.4997359053982
 30
0.0
 11
83.55413075832007
 21
-107.2608012696697
 31
0.0
  0
LINE
  5
1E6
330
2
100
AcDbEntity
  8
3
100
AcDbLine
 10
80.61413075851078
 20
-107.2608012696719
 30
0.0
 11
80.61413075851078
 21
-106.5359575053969
 31
0.0
  0
LINE
  5
1E7
330
2
100
AcDbEntity
  8
3
100
AcDbLine
 10
81.88413075842777
 20
-107.2608012696711
 30
0.0
 11
81.88413075842777
 21
-106.5359575053974
 31
0.0
  0
LINE
  5
1E8
330
2
100
AcDbEntity
  8
3
100
AcDbLine
 10
81.0141307584829
 20
-106.5359575053969
 30
0.0
 11
81.01413075848382
 21
-107.2608012696717
 31
0.0
  0
LINE
  5
1E9
330
2
100
AcDbEntity
  8
3
100
AcDbLine
 10
79.34413075859106
 20
-106.5359575053991
 30
0.0
 11
79.34413075859379
 21
-107.2608012696725
 31
0.0
  0
LINE
  5
1EA
330
2
100
AcDbEntity
  8
3
100
AcDbLine
 10
79.74413075856864
 20
-107.2608012696727
 30
0.0
 11
79.74413075856682
 21
-106.5359575053969
 31
0.0
  0
LINE
  5
1EB
330
2
100
AcDbEntity
  8
3
100
AcDbLine
 10
81.88413075846687
 20
-100.6808012696737
 30
0.0
 11
81.8841307584678
 21
-101.195801269811
 31
0.0
  0
LINE
  5
1EC
330
2
100
AcDbEntity
  8
3
100
AcDbLine
 10
82.28413075844583
 20
-100.6808012696744
 30
0.0
 11
82.28413075844583
 21
-101.1958012698117
 31
0.0
  0
LINE
  5
1ED
330
2
100
AcDbEntity
  8
3
100
AcDbLine
 10
83.15413134638083
 20
-100.6808012334297
 30
0.0
 11
83.15413155841406
 21
-101.1958012698117
 31
0.0
  0
LINE
  5
1EE
330
2
100
AcDbEntity
  8
3
100
AcDbLine
 10
83.55413075838374
 20
-100.6808012696752
 30
0.0
 11
83.55413075838191
 21
-101.1958012698117
 31
0.0
  0
LINE
  5
1EF
330
2
100
AcDbEntity
  8
3
100
AcDbLine
 10
81.01413075850791
 20
-100.6808012696733
 30
0.0
 11
81.01413075850677
 21
-101.1958012698117
 31
0.0
  0
LINE
  5
1F0
330
2
100
AcDbEntity
  8
3
100
AcDbLine
 10
80.61413075852874
 20
-100.6808012696731
 30
0.0
 11
80.61413075852874
 21
-101.195801269811
 31
0.0
  0
LINE
  5
1F1
330
2
100
AcDbEntity
  8
3
100
AcDbLine
 10
79.74413075857092
 20
-100.6808012696727
 30
0.0
 11
79.74413075857092
 21
-101.1958012698117
 31
0.0
  0
LINE
  5
1F2
330
2
100
AcDbEntity
  8
3
100
AcDbLine
 10
79.34413075859288
 20
-100.6808012696722
 30
0.0
 11
79.34413075859288
 21
-101.1958012698117
 31
0.0
  0
LINE
  5
1F3
330
2
100
AcDbEntity
  8
3
100
AcDbLine
 10
78.42413075848776
 20
-100.5808012696719
 30
0.0
 11
79.24413075859274
 21
-100.5808012696723
 31
0.0
  0
LINE
  5
1F4
330
2
100
AcDbEntity
  8
3
100
AcDbLine
 10
79.84413075857173
 20
-100.5808012696727
 30
0.0
 11
80.51413075852883
 21
-100.5808012696731
 31
0.0
  0
LINE
  5
1F5
330
2
100
AcDbEntity
  8
3
100
AcDbLine
 10
81.11413075850988
 20
-100.5808012696735
 30
0.0
 11
81.78413075846675
 21
-100.5808012696739
 31
0.0
  0
LINE
  5
1F6
330
2
100
AcDbEntity
  8
3
100
AcDbLine
 10
82.38413075844574
 20
-100.5808012696743
 30
0.0
 11
83.05413134638001
 21
-100.5808012696749
 31
0.0
  0
LINE
  5
1F7
330
2
100
AcDbEntity
  8
3
100
AcDbLine
 10
83.65413075838295
 20
-100.5808012696752
 30
0.0
 11
84.47413075848704
 21
-100.5808012696757
 31
0.0
  0
LINE
  5
1F8
330
2
100
AcDbEntity
  8
3
100
AcDbLine
 10
78.42413075848776
 20
-107.3608012696734
 30
0.0
 11
79.24413075859366
 21
-107.3608012696728
 31
0.0
  0
ARC
  5
1F9
330
2
100
AcDbEntity
  8
3
100
AcDbCircle
 10
79.24413075859366
 20
-107.2608012696727
 30
0.0
 40
0.1
100
AcDbArc
 50
270.000000000026
 51
0.000000000117248
  0
LINE
  5
1FA
330
2
100
AcDbEntity
  8
3
100
AcDbLine
 10
79.84413075856787
 20
-107.3608012696724
 30
0.0
 11
80.51413075851064
 21
-107.360801269672
 31
0.0
  0
ARC
  5
1FB
330
2
100
AcDbEntity
  8
3
100
AcDbCircle
 10
79.84413075856787
 20
-107.2608012696725
 30
0.0
 40
0.1
100
AcDbArc
 50
180.0000000000846
 51
270.0000000000391
  0
ARC
  5
1FC
330
2
100
AcDbEntity
  8
3
100
AcDbCircle
 10
80.51413075851064
 20
-107.2608012696719
 30
0.0
 40
0.1
100
AcDbArc
 50
270.0000000000391
 51
0.0
  0
LINE
  5
1FD
330
2
100
AcDbEntity
  8
3
100
AcDbLine
 10
81.11413075848487
 20
-107.3608012696715
 30
0.0
 11
81.78413075842764
 21
-107.3608012696711
 31
0.0
  0
ARC
  5
1FE
330
2
100
AcDbEntity
  8
3
100
AcDbCircle
 10
81.11413075848487
 20
-107.2608012696715
 30
0.0
 40
0.1
100
AcDbArc
 50
180.0000000000846
 51
270.0000000000391
  0
ARC
  5
1FF
330
2
100
AcDbEntity
  8
3
100
AcDbCircle
 10
81.78413075842764
 20
-107.2608012696711
 30
0.0
 40
0.1
100
AcDbArc
 50
270.0000000000391
 51
359.9999999999675
  0
LINE
  5
200
330
2
100
AcDbEntity
  8
3
100
AcDbLine
 10
82.38413075840185
 20
-107.3608012696706
 30
0.0
 11
83.05413075834691
 21
-107.3608012696702
 31
0.0
  0
ARC
  5
201
330
2
100
AcDbEntity
  8
3
100
AcDbCircle
 10
82.38413075840185
 20
-107.2608012696707
 30
0.0
 40
0.1
100
AcDbArc
 50
180.0
 51
270.0000000000391
  0
ARC
  5
202
330
2
100
AcDbEntity
  8
3
100
AcDbCircle
 10
83.05413075834691
 20
-107.2608012696703
 30
0.0
 40
0.1
100
AcDbArc
 50
270.0000000000391
 51
0.000000000058624
  0
LINE
  5
203
330
2
100
AcDbEntity
  8
3
100
AcDbLine
 10
83.65413075831998
 20
-107.3608012696697
 30
0.0
 11
84.47413075848885
 21
-107.3608012696695
 31
0.0
  0
ARC
  5
204
330
2
100
AcDbEntity
  8
3
100
AcDbCircle
 10
83.65413075831998
 20
-107.2608012696697
 30
0.0
 40
0.1
100
AcDbArc
 50
180.0
 51
270.000000000026
  0
ARC
  5
205
330
2
100
AcDbEntity
  8
3
100
AcDbCircle
 10
81.78413075846675
 20
-100.6808012696739
 30
0.0
 40
0.1
100
AcDbArc
 50
0.000000000117248
 51
89.99999999996092
  0
ARC
  5
206
330
2
100
AcDbEntity
  8
3
100
AcDbCircle
 10
82.38413075844574
 20
-100.6808012696744
 30
0.0
 40
0.1
100
AcDbArc
 50
89.99999999996092
 51
180.0
  0
ARC
  5
207
330
2
100
AcDbEntity
  8
3
100
AcDbCircle
 10
83.05413134638001
 20
-100.6808012696748
 30
0.0
 40
0.1
100
AcDbArc
 50
0.0000207669470252
 51
89.99999999996092
  0
ARC
  5
208
330
2
100
AcDbEntity
  8
3
100
AcDbCircle
 10
83.65413075838295
 20
-100.6808012696753
 30
0.0
 40
0.1
100
AcDbArc
 50
89.99999999997395
 51
179.9999999999218
  0
ARC
  5
209
330
2
100
AcDbEntity
  8
3
100
AcDbCircle
 10
81.11413075850988
 20
-100.6808012696737
 30
0.0
 40
0.1
100
AcDbArc
 50
89.99999999996092
 51
179.9999999998892
  0
ARC
  5
20A
330
2
100
AcDbEntity
  8
3
100
AcDbCircle
 10
80.51413075852883
 20
-100.6808012696731
 30
0.0
 40
0.1
100
AcDbArc
 50
0.0
 51
89.99999999996092
  0
ARC
  5
20B
330
2
100
AcDbEntity
  8
3
100
AcDbCircle
 10
79.84413075857173
 20
-100.6808012696727
 30
0.0
 40
0.1
100
AcDbArc
 50
89.99999999996092
 51
180.0
  0
ARC
  5
20C
330
2
100
AcDbEntity
  8
3
100
AcDbCircle
 10
79.24413075859274
 20
-100.6808012696724
 30
0.0
 40
0.1
100
AcDbArc
 50
0.0000000000390827
 51
89.99999999997395
  0
LINE
  5
20D
330
2
100
AcDbEntity
  8
3
100
AcDbLine
 10
79.44413075858574
 20
-100.7708012698347
 30
0.0
 11
79.44413075858574
 21
-100.5208012698447
 31
0.0
  0
ARC
  5
20E
330
2
100
AcDbEntity
  8
3
100
AcDbCircle
 10
79.49413075858274
 20
-100.5208012698447
 30
0.0
 40
0.0499999999975
100
AcDbArc
 50
90.0
 51
180.0
  0
LINE
  5
20F
330
2
100
AcDbEntity
  8
3
100
AcDbLine
 10
79.64413075857578
 20
-100.7708012698347
 30
0.0
 11
79.64413075857578
 21
-100.5208012698447
 31
0.0
  0
ARC
  5
210
330
2
100
AcDbEntity
  8
3
100
AcDbCircle
 10
79.5941307585797
 20
-100.5208012698447
 30
0.0
 40
0.0499999999975
100
AcDbArc
 50
0.0
 51
90.0
  0
LINE
  5
211
330
2
100
AcDbEntity
  8
3
100
AcDbLine
 10
79.5941307585797
 20
-100.4708012698474
 30
0.0
 11
79.49413075858274
 21
-100.4708012698474
 31
0.0
  0
LINE
  5
212
330
2
100
AcDbEntity
  8
3
100
AcDbLine
 10
79.59413075857878
 20
-100.8208012698319
 30
0.0
 11
79.49413075858274
 21
-100.8208012698319
 31
0.0
  0
ARC
  5
213
330
2
100
AcDbEntity
  8
3
100
AcDbCircle
 10
79.59413075857878
 20
-100.7708012698347
 30
0.0
 40
0.0499999999975
100
AcDbArc
 50
270.0
 51
0.0
  0
ARC
  5
214
330
2
100
AcDbEntity
  8
3
100
AcDbCircle
 10
79.49413075858274
 20
-100.7708012698347
 30
0.0
 40
0.0499999999975
100
AcDbArc
 50
180.0
 51
270.0
  0
LINE
  5
215
330
2
100
AcDbEntity
  8
3
100
AcDbLine
 10
80.71413075852182
 20
-100.7708012698347
 30
0.0
 11
80.71413075852182
 21
-100.5208012698447
 31
0.0
  0
ARC
  5
216
330
2
100
AcDbEntity
  8
3
100
AcDbCircle
 10
80.76413075851997
 20
-100.5208012698447
 30
0.0
 40
0.0499999999975
100
AcDbArc
 50
90.0
 51
180.0
  0
LINE
  5
217
330
2
100
AcDbEntity
  8
3
100
AcDbLine
 10
80.91413075851278
 20
-100.7708012698347
 30
0.0
 11
80.91413075851368
 21
-100.5208012698447
 31
0.0
  0
ARC
  5
218
330
2
100
AcDbEntity
  8
3
100
AcDbCircle
 10
80.864130758516
 20
-100.5208012698447
 30
0.0
 40
0.0499999999975
100
AcDbArc
 50
0.0
 51
90.0
  0
LINE
  5
219
330
2
100
AcDbEntity
  8
3
100
AcDbLine
 10
80.864130758516
 20
-100.4708012698474
 30
0.0
 11
80.76413075851997
 21
-100.4708012698474
 31
0.0
  0
LINE
  5
21A
330
2
100
AcDbEntity
  8
3
100
AcDbLine
 10
80.864130758516
 20
-100.8208012698319
 30
0.0
 11
80.76413075851997
 21
-100.8208012698319
 31
0.0
  0
ARC
  5
21B
330
2
100
AcDbEntity
  8
3
100
AcDbCircle
 10
80.864130758516
 20
-100.7708012698347
 30
0.0
 40
0.0499999999975
100
AcDbArc
 50
270.0
 51
0.0
  0
ARC
  5
21C
330
2
100
AcDbEntity
  8
3
100
AcDbCircle
 10
80.76413075851997
 20
-100.7708012698347
 30
0.0
 40
0.0499999999975
100
AcDbArc
 50
180.0
 51
270.0
  0
LINE
  5
21D
330
2
100
AcDbEntity
  8
3
100
AcDbLine
 10
81.98413075846202
 20
-100.7708012698347
 30
0.0
 11
81.98413075846202
 21
-100.5208012698447
 31
0.0
  0
ARC
  5
21E
330
2
100
AcDbEntity
  8
3
100
AcDbCircle
 10
82.0341307584597
 20
-100.5208012698447
 30
0.0
 40
0.0499999999975
100
AcDbArc
 50
90.0
 51
180.0
  0
LINE
  5
21F
330
2
100
AcDbEntity
  8
3
100
AcDbLine
 10
82.18413075845182
 20
-100.7708012698347
 30
0.0
 11
82.18413075845182
 21
-100.5208012698447
 31
0.0
  0
ARC
  5
220
330
2
100
AcDbEntity
  8
3
100
AcDbCircle
 10
82.13413075845483
 20
-100.5208012698447
 30
0.0
 40
0.0499999999975
100
AcDbArc
 50
0.0
 51
90.0
  0
LINE
  5
221
330
2
100
AcDbEntity
  8
3
100
AcDbLine
 10
82.13413075845483
 20
-100.4708012698474
 30
0.0
 11
82.0341307584597
 21
-100.4708012698474
 31
0.0
  0
LINE
  5
222
330
2
100
AcDbEntity
  8
3
100
AcDbLine
 10
82.13413075845483
 20
-100.8208012698319
 30
0.0
 11
82.0341307584597
 21
-100.8208012698319
 31
0.0
  0
ARC
  5
223
330
2
100
AcDbEntity
  8
3
100
AcDbCircle
 10
82.13413075845483
 20
-100.7708012698347
 30
0.0
 40
0.0499999999975
100
AcDbArc
 50
270.0
 51
0.0
  0
ARC
  5
224
330
2
100
AcDbEntity
  8
3
100
AcDbCircle
 10
82.0341307584597
 20
-100.7708012698347
 30
0.0
 40
0.0499999999975
100
AcDbArc
 50
180.0
 51
270.0
  0
LINE
  5
225
330
2
100
AcDbEntity
  8
3
100
AcDbLine
 10
83.25413075839788
 20
-100.7708012698347
 30
0.0
 11
83.25413075839788
 21
-100.5208012698447
 31
0.0
  0
ARC
  5
226
330
2
100
AcDbEntity
  8
3
100
AcDbCircle
 10
83.30413075839601
 20
-100.5208012698447
 30
0.0
 40
0.0499999999975
100
AcDbArc
 50
90.0
 51
180.0
  0
LINE
  5
227
330
2
100
AcDbEntity
  8
3
100
AcDbLine
 10
83.45413075838905
 20
-100.7708012698347
 30
0.0
 11
83.45413075838768
 21
-100.5208012698447
 31
0.0
  0
ARC
  5
228
330
2
100
AcDbEntity
  8
3
100
AcDbCircle
 10
83.40413075839093
 20
-100.5208012698447
 30
0.0
 40
0.0499999999975
100
AcDbArc
 50
0.0
 51
90.0
  0
LINE
  5
229
330
2
100
AcDbEntity
  8
3
100
AcDbLine
 10
83.40413075839093
 20
-100.4708012698474
 30
0.0
 11
83.30413075839601
 21
-100.4708012698474
 31
0.0
  0
LINE
  5
22A
330
2
100
AcDbEntity
  8
3
100
AcDbLine
 10
83.40413075839093
 20
-100.8208012698319
 30
0.0
 11
83.30413075839601
 21
-100.8208012698319
 31
0.0
  0
ARC
  5
22B
330
2
100
AcDbEntity
  8
3
100
AcDbCircle
 10
83.40413075839093
 20
-100.7708012698347
 30
0.0
 40
0.0499999999975
100
AcDbArc
 50
270.0
 51
0.0
  0
ARC
  5
22C
330
2
100
AcDbEntity
  8
3
100
AcDbCircle
 10
83.30413075839601
 20
-100.7708012698347
 30
0.0
 40
0.0499999999975
100
AcDbArc
 50
180.0
 51
270.0
  0
LINE
  5
22D
330
2
100
AcDbEntity
  8
3
100
AcDbLine
 10
79.44413075858574
 20
-107.1708012695101
 30
0.0
 11
79.44413075858574
 21
-107.4208012695002
 31
0.0
  0
ARC
  5
22E
330
2
100
AcDbEntity
  8
3
100
AcDbCircle
 10
79.49413075858274
 20
-107.4208012695002
 30
0.0
 40
0.0499999999975
100
AcDbArc
 50
180.0
 51
270.0
  0
LINE
  5
22F
330
2
100
AcDbEntity
  8
3
100
AcDbLine
 10
79.64413075857487
 20
-107.1708012695099
 30
0.0
 11
79.64413075857578
 21
-107.4208012695002
 31
0.0
  0
ARC
  5
230
330
2
100
AcDbEntity
  8
3
100
AcDbCircle
 10
79.5941307585797
 20
-107.4208012695002
 30
0.0
 40
0.0499999999975
100
AcDbArc
 50
270.0
 51
0.0
  0
LINE
  5
231
330
2
100
AcDbEntity
  8
3
100
AcDbLine
 10
79.5941307585797
 20
-107.4708012694975
 30
0.0
 11
79.49413075858274
 21
-107.4708012694975
 31
0.0
  0
LINE
  5
232
330
2
100
AcDbEntity
  8
3
100
AcDbLine
 10
79.59413075857878
 20
-107.1208012695129
 30
0.0
 11
79.49413075858274
 21
-107.1208012695129
 31
0.0
  0
ARC
  5
233
330
2
100
AcDbEntity
  8
3
100
AcDbCircle
 10
79.59413075857878
 20
-107.1708012695101
 30
0.0
 40
0.0499999999975
100
AcDbArc
 50
0.0
 51
90.0
  0
ARC
  5
234
330
2
100
AcDbEntity
  8
3
100
AcDbCircle
 10
79.49413075858274
 20
-107.1708012695101
 30
0.0
 40
0.0499999999975
100
AcDbArc
 50
90.0
 51
180.0
  0
LINE
  5
235
330
2
100
AcDbEntity
  8
3
100
AcDbLine
 10
80.71413075852182
 20
-107.1708012695101
 30
0.0
 11
80.71413075852182
 21
-107.4208012695002
 31
0.0
  0
ARC
  5
236
330
2
100
AcDbEntity
  8
3
100
AcDbCircle
 10
80.76413075851997
 20
-107.4208012695002
 30
0.0
 40
0.0499999999975
100
AcDbArc
 50
180.0
 51
270.0
  0
LINE
  5
237
330
2
100
AcDbEntity
  8
3
100
AcDbLine
 10
80.91413075851278
 20
-107.1708012695099
 30
0.0
 11
80.91413075851368
 21
-107.4208012695002
 31
0.0
  0
ARC
  5
238
330
2
100
AcDbEntity
  8
3
100
AcDbCircle
 10
80.864130758516
 20
-107.4208012695002
 30
0.0
 40
0.0499999999975
100
AcDbArc
 50
270.0
 51
0.0
  0
LINE
  5
239
330
2
100
AcDbEntity
  8
3
100
AcDbLine
 10
80.864130758516
 20
-107.4708012694975
 30
0.0
 11
80.76413075851997
 21
-107.4708012694975
 31
0.0
  0
LINE
  5
23A
330
2
100
AcDbEntity
  8
3
100
AcDbLine
 10
80.864130758516
 20
-107.1208012695129
 30
0.0
 11
80.76413075851997
 21
-107.1208012695129
 31
0.0
  0
ARC
  5
23B
330
2
100
AcDbEntity
  8
3
100
AcDbCircle
 10
80.864130758516
 20
-107.1708012695101
 30
0.0
 40
0.0499999999975
100
AcDbArc
 50
0.0
 51
90.0
  0
ARC
  5
23C
330
2
100
AcDbEntity
  8
3
100
AcDbCircle
 10
80.76413075851997
 20
-107.1708012695101
 30
0.0
 40
0.0499999999975
100
AcDbArc
 50
90.0
 51
180.0
  0
LINE
  5
23D
330
2
100
AcDbEntity
  8
3
100
AcDbLine
 10
81.98413075846202
 20
-107.1708012695101
 30
0.0
 11
81.98413075846202
 21
-107.4208012695002
 31
0.0
  0
ARC
  5
23E
330
2
100
AcDbEntity
  8
3
100
AcDbCircle
 10
82.0341307584597
 20
-107.4208012695002
 30
0.0
 40
0.0499999999975
100
AcDbArc
 50
180.0
 51
270.0
  0
LINE
  5
23F
330
2
100
AcDbEntity
  8
3
100
AcDbLine
 10
82.18413075845182
 20
-107.1708012695101
 30
0.0
 11
82.18413075845182
 21
-107.4208012695002
 31
0.0
  0
ARC
  5
240
330
2
100
AcDbEntity
  8
3
100
AcDbCircle
 10
82.13413075845483
 20
-107.4208012695002
 30
0.0
 40
0.0499999999975
100
AcDbArc
 50
270.0
 51
0.0
  0
LINE
  5
241
330
2
100
AcDbEntity
  8
3
100
AcDbLine
 10
82.13413075845483
 20
-107.4708012694975
 30
0.0
 11
82.0341307584597
 21
-107.4708012694975
 31
0.0
  0
LINE
  5
242
330
2
100
AcDbEntity
  8
3
100
AcDbLine
 10
82.13413075845483
 20
-107.1208012695129
 30
0.0
 11
82.0341307584597
 21
-107.1208012695129
 31
0.0
  0
ARC
  5
243
330
2
100
AcDbEntity
  8
3
100
AcDbCircle
 10
82.13413075845483
 20
-107.1708012695101
 30
0.0
 40
0.0499999999975
100
AcDbArc
 50
0.0
 51
90.0
  0
ARC
  5
244
330
2
100
AcDbEntity
  8
3
100
AcDbCircle
 10
82.0341307584597
 20
-107.1708012695101
 30
0.0
 40
0.0499999999975
100
AcDbArc
 50
90.0
 51
180.0
  0
LINE
  5
245
330
2
100
AcDbEntity
  8
3
100
AcDbLine
 10
83.25413075839788
 20
-107.1708012695101
 30
0.0
 11
83.25413075839788
 21
-107.4208012695002
 31
0.0
  0
ARC
  5
246
330
2
100
AcDbEntity
  8
3
100
AcDbCircle
 10
83.30413075839601
 20
-107.4208012695002
 30
0.0
 40
0.0499999999975
100
AcDbArc
 50
180.0
 51
270.0
  0
LINE
  5
247
330
2
100
AcDbEntity
  8
3
100
AcDbLine
 10
83.45413075838905
 20
-107.1708012695101
 30
0.0
 11
83.45413075838768
 21
-107.4208012695002
 31
0.0
  0
ARC
  5
248
330
2
100
AcDbEntity
  8
3
100
AcDbCircle
 10
83.40413075839093
 20
-107.4208012695002
 30
0.0
 40
0.0499999999975
100
AcDbArc
 50
270.0
 51
0.0
  0
LINE
  5
249
330
2
100
AcDbEntity
  8
3
100
AcDbLine
 10
83.40413075839093
 20
-107.4708012694975
 30
0.0
 11
83.30413075839601
 21
-107.4708012694975
 31
0.0
  0
LINE
  5
24A
330
2
100
AcDbEntity
  8
3
100
AcDbLine
 10
83.40413075839093
 20
-107.1208012695129
 30
0.0
 11
83.30413075839601
 21
-107.1208012695129
 31
0.0
  0
ARC
  5
24B
330
2
100
AcDbEntity
  8
3
100
AcDbCircle
 10
83.40413075839093
 20
-107.1708012695101
 30
0.0
 40
0.0499999999975
100
AcDbArc
 50
0.0
 51
90.0
  0
ARC
  5
24C
330
2
100
AcDbEntity
  8
3
100
AcDbCircle
 10
83.30413075839601
 20
-107.1708012695101
 30
0.0
 40
0.0499999999975
100
AcDbArc
 50
90.0
 51
180.0
  0
LINE
  5
24D
330
2
100
AcDbEntity
  8
3D
  6
CENTER
 62
     2
100
AcDbLine
 10
83.94913075848785
 20
-100.9708012696721
 30
0.0
 11
83.94913075848785
 21
-106.9708012696722
 31
0.0
  0
LINE
  5
24E
330
2
100
AcDbEntity
  8
3
100
AcDbLine
 10
79.74413075857092
 20
-101.2458009948073
 30
0.0
 11
80.61413075852874
 21
-101.2458009948073
 31
0.0
  0
LINE
  5
24F
330
2
100
AcDbEntity
  8
3
100
AcDbLine
 10
81.01413075850677
 20
-101.2458009948073
 30
0.0
 11
81.8841307584678
 21
-101.2458009948073
 31
0.0
  0
LINE
  5
250
330
2
100
AcDbEntity
  8
3
100
AcDbLine
 10
82.28413075844583
 20
-101.2458009948057
 30
0.0
 11
83.15413075840297
 21
-101.2458009948058
 31
0.0
  0
LINE
  5
251
330
2
100
AcDbEntity
  8
3
100
AcDbLine
 10
83.55413075838374
 20
-101.2458009948058
 30
0.0
 11
83.69912994002675
 21
-101.2458009948058
 31
0.0
  0
LINE
  5
252
330
2
100
AcDbEntity
  8
3
100
AcDbLine
 10
79.19913986839606
 20
-101.2458009948073
 30
0.0
 11
79.34413075859288
 21
-101.2458009948073
 31
0.0
  0
LINE
  5
253
330
2
100
AcDbEntity
  8
3
100
AcDbLine
 10
84.47413075848885
 20
-99.72080126967274
 30
0.0
 11
84.47413075848885
 21
-99.97080126967274
 31
0.0
  0
LINE
  5
254
330
2
100
AcDbEntity
  8
3
100
AcDbLine
 10
78.42413075848776
 20
-99.97080126967274
 30
0.0
 11
84.47413075848885
 21
-99.97080126967274
 31
0.0
  0
LINE
  5
255
330
2
100
AcDbEntity
  8
3
100
AcDbLine
 10
78.42413075848776
 20
-99.7208012696725
 30
0.0
 11
84.47413075848885
 21
-99.7208012696725
 31
0.0
  0
LINE
  5
256
330
2
100
AcDbEntity
  8
3
100
AcDbLine
 10
78.42413075848776
 20
-99.72080126967245
 30
0.0
 11
78.42413075848776
 21
-99.97080126967274
 31
0.0
  0
LINE
  5
257
330
2
100
AcDbEntity
  8
3
100
AcDbLine
 10
84.47413075848885
 20
-108.2208012696724
 30
0.0
 11
84.47413075848885
 21
-107.9708012696722
 31
0.0
  0
LINE
  5
258
330
2
100
AcDbEntity
  8
3
100
AcDbLine
 10
78.42413075848776
 20
-107.9708012696723
 30
0.0
 11
84.47413075848885
 21
-107.9708012696723
 31
0.0
  0
LINE
  5
259
330
2
100
AcDbEntity
  8
3
100
AcDbLine
 10
78.42413075848776
 20
-108.2208012696724
 30
0.0
 11
84.47413075848885
 21
-108.2208012696724
 31
0.0
  0
LINE
  5
25A
330
2
100
AcDbEntity
  8
3
100
AcDbLine
 10
78.42413075848776
 20
-108.2208012696724
 30
0.0
 11
78.42413075848776
 21
-107.9708012696722
 31
0.0
  0
LINE
  5
25B
102
{ACAD_REACTORS
330
B7
102
}
330
2
100
AcDbEntity
  8
3
100
AcDbLine
 10
83.15413075834682
 20
-107.2608012696701
 30
0.0
 11
83.15413075834475
 21
-105.7859575054476
 31
0.0
  0
LINE
  5
25C
102
{ACAD_REACTORS
330
B7
102
}
330
2
100
AcDbEntity
  8
3
100
AcDbLine
 10
83.65413055838189
 20
-105.7859575054476
 30
0.0
 11
83.65413055838189
 21
-106.6859575053942
 31
0.0
  0
LINE
  5
25D
102
{ACAD_REACTORS
330
B7
102
}
330
2
100
AcDbEntity
  8
3
100
AcDbLine
 10
83.15413075834475
 20
-105.7859575054476
 30
0.0
 11
83.65413055838189
 21
-105.7859575054476
 31
0.0
  0
LINE
  5
25E
330
2
100
AcDbEntity
  8
3
100
AcDbLine
 10
83.55413075832188
 20
-106.6859575053942
 30
0.0
 11
83.65413055838189
 21
-106.6859575053942
 31
0.0
  0
LINE
  5
25F
330
2
100
AcDbEntity
  8
3
100
AcDbLine
 10
82.69913075848785
 20
-106.685957505392
 30
0.0
 11
82.2841307583999
 21
-106.685957505392
 31
0.0
  0
LINE
  5
260
330
2
100
AcDbEntity
  8
3
100
AcDbLine
 10
80.61413075850669
 20
-106.685957505392
 30
0.0
 11
79.74413075856478
 21
-106.685957505392
 31
0.0
  0
LINE
  5
261
330
2
100
AcDbEntity
  8
3
100
AcDbLine
 10
81.88413075842504
 20
-106.6859575053927
 30
0.0
 11
81.01413075847904
 21
-106.685957505392
 31
0.0
  0
LINE
  5
262
330
2
100
AcDbEntity
  8
3
100
AcDbLine
 10
82.86415952796778
 20
-105.7859575054475
 30
0.0
 11
80.03410198900997
 21
-105.7859575054476
 31
0.0
  0
LINE
  5
263
330
2
100
AcDbEntity
  8
3
100
AcDbLine
 10
79.74413075856478
 20
-105.7859575054476
 30
0.0
 11
79.19913144840006
 21
-105.7859575054476
 31
0.0
  0
LINE
  5
264
330
2
100
AcDbEntity
  8
3
100
AcDbLine
 10
79.74413075856864
 20
-107.2608012696727
 30
0.0
 11
79.74413075856478
 21
-105.7859575054476
 31
0.0
  0
LINE
  5
265
330
2
100
AcDbEntity
  8
3
100
AcDbLine
 10
79.19913144840006
 20
-105.7859575054476
 30
0.0
 11
79.19913144840006
 21
-106.6859575053942
 31
0.0
  0
LINE
  5
266
330
2
100
AcDbEntity
  8
3
100
AcDbLine
 10
79.34413075858879
 20
-106.6859575053942
 30
0.0
 11
79.19913144839779
 21
-106.6859575053942
 31
0.0
  0
LINE
  5
267
330
2
100
AcDbEntity
  8
3
100
AcDbLine
 10
80.1991307584849
 20
-106.4359575053984
 30
0.0
 11
80.19913075848785
 21
-105.7859575054478
 31
0.0
  0
LINE
  5
268
330
2
100
AcDbEntity
  8
3
100
AcDbLine
 10
82.6991307584908
 20
-106.6859575053942
 30
0.0
 11
82.69913075848876
 21
-105.7859575054478
 31
0.0
  0
LINE
  5
269
330
2
100
AcDbEntity
  8
3
100
AcDbLine
 10
79.74413075856773
 20
-106.4359575053985
 30
0.0
 11
80.1991307584849
 21
-106.4359575053984
 31
0.0
  0
LINE
  5
26A
330
2
100
AcDbEntity
  8
3
100
AcDbLine
 10
80.03410198900997
 20
-106.2859575053985
 30
0.0
 11
80.03410198900997
 21
-105.7859575054476
 31
0.0
  0
LINE
  5
26B
330
2
100
AcDbEntity
  8
3
100
AcDbLine
 10
80.13214346037784
 20
-106.2859575053985
 30
0.0
 11
80.13214346037784
 21
-105.7859575054476
 31
0.0
  0
LINE
  5
26C
330
2
100
AcDbEntity
  8
3
100
AcDbLine
 10
80.03410198900997
 20
-106.2859575053985
 30
0.0
 11
80.1991307584849
 21
-106.2859575053985
 31
0.0
  0
LINE
  5
26D
330
2
100
AcDbEntity
  8
3
100
AcDbLine
 10
82.86415952796778
 20
-106.2859575053985
 30
0.0
 11
82.86415952796778
 21
-105.7859575054476
 31
0.0
  0
LINE
  5
26E
330
2
100
AcDbEntity
  8
3
100
AcDbLine
 10
82.76611805659968
 20
-106.2859575053985
 30
0.0
 11
82.76611805659968
 21
-105.7859575054476
 31
0.0
  0
LINE
  5
26F
330
2
100
AcDbEntity
  8
3
100
AcDbLine
 10
82.86415952796778
 20
-106.2859575053985
 30
0.0
 11
82.69913075849173
 21
-106.2859575053985
 31
0.0
  0
MTEXT
  5
270
330
2
100
AcDbEntity
  8
1D
100
AcDbMText
 10
70.10005302036597
 20
-109.4741844696494
 30
0.0
 40
0.24
 41
0.0
 46
0.0
 71
     5
 72
     1
  1
\A1;{\fRomantic|b0|i0|c2|p2;Option C: DSCQFN-5.0X6.0-8L-11-Cu/Lead Selective Ag with hole}
 73
     1
 44
1.0
  0
LINE
  5
271
330
2
100
AcDbEntity
  8
P-L
 62
     4
 48
4.0
100
AcDbLine
 10
79.74413075857092
 20
-101.2458009948073
 30
0.0
 11
79.34413075859288
 21
-101.2458009948073
 31
0.0
  0
LINE
  5
272
330
2
100
AcDbEntity
  8
P-L
 62
     4
 48
4.0
100
AcDbLine
 10
81.01413075850677
 20
-101.2458009948072
 30
0.0
 11
80.61413075852874
 21
-101.2458009948072
 31
0.0
  0
LINE
  5
273
330
2
100
AcDbEntity
  8
P-L
 62
     4
 48
4.0
100
AcDbLine
 10
82.28413075844583
 20
-101.2458009948058
 30
0.0
 11
81.8841307584678
 21
-101.2458009948058
 31
0.0
  0
LINE
  5
274
330
2
100
AcDbEntity
  8
P-L
 62
     4
 48
4.0
100
AcDbLine
 10
83.55413075838077
 20
-101.2458009948058
 30
0.0
 11
83.15413075840297
 21
-101.2458009948058
 31
0.0
  0
LINE
  5
275
102
{ACAD_REACTORS
330
282
102
}
330
2
100
AcDbEntity
  8
P-L
 62
     4
 48
4.0
100
AcDbLine
 10
79.19913986839787
 20
-104.4708012695819
 30
0.0
 11
79.19913144840098
 21
-104.7208012695849
 31
0.0
  0
LINE
  5
276
330
2
100
AcDbEntity
  8
P-L
 62
     4
 48
4.0
100
AcDbLine
 10
83.69912164859988
 20
-104.4707945195642
 30
0.0
 11
83.69911322860298
 21
-104.720794519567
 31
0.0
  0
DIMENSION
  5
277
330
2
100
AcDbEntity
  8
1D
 62
     0
100
AcDbDimension
280
     0
  2
*D6
 10
81.44913075848876
 20
-103.9708012696725
 30
0.0
 11
86.39641238475679
 21
-101.2458009948057
 31
0.0
 12
1615.333745727722
 22
-579.2320148666846
 32
0.0
 70
     6
 71
     5
 42
2.725000274866602
 73
     0
 74
     0
 75
     0
  3
複本 DM-1-1
100
AcDbOrdinateDimension
 13
83.55413075838374
 23
-101.2458009948058
 33
0.0
 14
85.77641238475667
 24
-101.2458009948057
 34
0.0
  0
DIMENSION
  5
280
102
{ACAD_XDICTIONARY
360
281
102
}
102
{ACAD_REACTORS
330
282
102
}
330
2
100
AcDbEntity
  8
1D
 62
     0
100
AcDbDimension
280
     0
  2
*D7
 10
81.44913075848876
 20
-103.9708012696725
 30
0.0
 11
79.19913986839469
 21
-98.14214895411044
 31
0.0
 12
1615.333745727722
 22
-579.2320148666846
 32
0.0
 70
   198
  1
<>%%p0.075
 71
     5
 42
2.249990890094068
 73
     0
 74
     0
 75
     0
  3
複本 DM-1-1
100
AcDbOrdinateDimension
 13
79.19913986839469
 23
-104.4708013843489
 33
0.0
 14
79.19913986839469
 24
-99.59072038268175
 34
0.0
1001
ACAD_DSTYLE_DIMINSPECT
1070
   396
1000
100%
1070
   395
1000

1070
   394
1070
    33
1070
   393
1070
     0
  0
DIMENSION
  5
28B
330
2
100
AcDbEntity
  8
1D
 62
     0
100
AcDbDimension
280
     0
  2
*D8
 10
81.44913075848876
 20
-103.9708012696725
 30
0.0
 11
83.69912164858282
 21
-98.14214895411044
 31
0.0
 12
1615.333745727722
 22
-579.2320148666846
 32
0.0
 70
   198
  1
<>%%p0.075
 71
     5
 42
2.249990890094068
 73
     0
 74
     0
 75
     0
  3
複本 DM-1-1
100
AcDbOrdinateDimension
 13
83.69912164858282
 23
-104.4708013843489
 33
0.0
 14
83.69912164858282
 24
-99.59072038268175
 34
0.0
1001
ACAD_DSTYLE_DIMINSPECT
1070
   396
1000
100%
1070
   395
1000

1070
   394
1070
    33
1070
   393
1070
     0
  0
LINE
  5
294
330
2
100
AcDbEntity
  8
CENTER
100
AcDbLine
 10
71.93796775152191
 20
-105.9629803664379
 30
0.0
 11
71.93796775152191
 21
-106.0089346444572
 31
0.0
  0
CIRCLE
  5
296
102
{ACAD_REACTORS
330
29A
330
B7
102
}
330
2
100
AcDbEntity
  8
3
100
AcDbCircle
 10
71.93796775152191
 20
-105.9859575054475
 30
0.0
 40
0.1
  0
LINE
  5
297
330
2
100
AcDbEntity
  8
CENTER
100
AcDbLine
 10
71.92257266203796
 20
-105.9859575054475
 30
0.0
 11
71.95336284100585
 21
-105.9859575054475
 31
0.0
  0
DIMENSION
  5
298
102
{ACAD_XDICTIONARY
360
299
102
}
102
{ACAD_REACTORS
330
29A
102
}
330
2
100
AcDbEntity
  8
1D
100
AcDbDimension
280
     0
  2
*D9
 10
71.83797020586485
 20
-105.9866581211391
 30
0.0
 11
74.74208847675299
 21
-105.9663109134471
 31
0.0
 12
1615.333745727722
 22
-579.2320148666846
 32
0.0
 70
   131
 71
     5
 42
0.2000000000002728
 73
     0
 74
     0
 75
     0
  3
複本 DM-1-1
100
AcDbDiametricDimension
 15
72.03796529718079
 25
-105.9852568897564
 35
0.0
 40
0.0
1001
ACAD_DSTYLE_DIMRADIAL_EXTENSION
1070
   387
1070
     1
1070
   388
1040
0.0
1070
   390
1040
0.0
  0
CIRCLE
  5
2A7
102
{ACAD_REACTORS
330
B7
102
}
330
2
100
AcDbEntity
  8
3
100
AcDbCircle
 10
83.40413065836401
 20
-105.9859575054475
 30
0.0
 40
0.1
  0
TEXT
  5
2A8
330
2
100
AcDbEntity
  8
LINE
 62
     7
100
AcDbText
 10
76.82944183713084
 20
-110.3612609627044
 30
0.0
 40
0.3162568287586871
  1
2
  7
ROMANS2
100
AcDbText
  0
LINE
  5
2AC
330
2
100
AcDbEntity
  8
LINE
 62
     0
100
AcDbLine
 10
76.54617021023591
 20
-110.4662996730919
 30
0.0
 11
77.34617021023587
 21
-110.4662996730919
 31
0.0
  0
LINE
  5
2AD
330
2
100
AcDbEntity
  8
LINE
 62
     0
100
AcDbLine
 10
76.54617021023591
 20
-110.4662996730919
 30
0.0
 11
76.94534349121591
 21
-109.7749112694104
 31
0.0
  0
LINE
  5
2AE
330
2
100
AcDbEntity
  8
LINE
 62
     0
100
AcDbLine
 10
76.94534349121591
 20
-109.7749112694104
 30
0.0
 11
77.34617021023587
 21
-110.4662996730919
 31
0.0
  0
TEXT
  5
2AF
330
2
100
AcDbEntity
  8
LINE
 62
     7
100
AcDbText
 10
65.56529671252383
 20
-110.4567194929739
 30
0.0
 40
0.3162568287586871
  1
2
  7
ROMANS2
100
AcDbText
  0
LINE
  5
2B0
330
2
100
AcDbEntity
  8
LINE
 62
     0
100
AcDbLine
 10
65.28202508562777
 20
-110.5617582033613
 30
0.0
 11
66.08202508562772
 21
-110.5617582033613
 31
0.0
  0
LINE
  5
2B1
330
2
100
AcDbEntity
  8
LINE
 62
     0
100
AcDbLine
 10
65.28202508562777
 20
-110.5617582033613
 30
0.0
 11
65.6811983666089
 21
-109.8703697996798
 31
0.0
  0
LINE
  5
2B2
330
2
100
AcDbEntity
  8
LINE
 62
     0
100
AcDbLine
 10
65.6811983666089
 20
-109.8703697996798
 30
0.0
 11
66.08202508562772
 21
-110.5617582033613
 31
0.0
  0
HATCH
  5
2B3
330
2
100
AcDbEntity
  8
1D
100
AcDbHatch
 10
0.0
 20
0.0
 30
0.0
210
0.0
220
0.0
230
1.0
  2
ANSI37
 70
     0
 71
     0
 91
        2
 92
        7
 72
     1
 73
     1
 93
        4
 10
71.9879678514917
 20
-106.6375575054468
 42
0.0
 10
71.78796785149166
 20
-106.6375575054468
 42
0.0
 10
71.78796785149166
 20
-106.7208012696722
 42
1.0
 10
71.9879678514917
 20
-106.7208012696722
 42
0.0
 97
        0
 92
        7
 72
     1
 73
     1
 93
        4
 10
71.78796785149166
 20
-106.6208012696722
 42
0.0
 10
71.78796785149166
 20
-106.6375575054468
 42
0.0
 10
71.9879678514917
 20
-106.6375575054468
 42
0.0
 10
71.9879678514917
 20
-106.6208012696722
 42
1.0
 97
        0
 75
     1
 76
     1
 52
0.0
 41
0.5
 77
     0
 78
     2
 53
45.0
 43
-2597.229334653968
 44
121.9036216144277
 45
-0.0441941738241592
 46
0.0441941738241592
 79
     0
 53
135.0
 43
-2597.229334653968
 44
121.9036216144277
 45
-0.0441941738241592
 46
-0.0441941738241592
 79
     0
 47
0.001122599745306
 98
        2
 10
71.85931645713981
 20
-106.6978732510238
 10
71.854822561015
 20
-106.6013298878991
1001
GradientColor1ACI
1070
     5
1001
GradientColor2ACI
1070
     2
1001
ACAD
1010
-2090.087314
1020
220.920291
1030
0.0
  0
DIMENSION
  5
2B4
330
2
100
AcDbEntity
  8
1D
100
AcDbDimension
280
     0
  2
*D10
 10
69.98296785164666
 20
-103.9708012696725
 30
0.0
 11
75.43626030641394
 21
-106.6373087185774
 31
0.0
 12
1615.333745727722
 22
-579.2320148666846
 32
0.0
 70
   134
  1
<>%%p0.075
 71
     5
 42
2.66675623577447
 73
     0
 74
     0
 75
     0
  3
複本 DM-1-1
100
AcDbOrdinateDimension
 13
72.08796785147888
 23
-106.637557505447
 33
0.0
 14
73.98768887784171
 24
-106.6373087185774
 34
0.0
1001
ACAD_DSTYLE_DIMINSPECT
1070
   396
1000
100%
1070
   395
1000

1070
   394
1070
    33
1070
   393
1070
     0
  0
DIMENSION
  5
2BF
330
2
100
AcDbEntity
  8
1D
100
AcDbDimension
280
     0
  2
*D11
 10
81.44913075848876
 20
-103.9708012696725
 30
0.0
 11
86.9024232132549
 21
-106.6373087185774
 31
0.0
 12
1615.333745727722
 22
-579.2320148666846
 32
0.0
 70
   134
  1
<>%%p0.075
 71
     5
 42
2.66675623577447
 73
     0
 74
     0
 75
     0
  3
複本 DM-1-1
100
AcDbOrdinateDimension
 13
83.55413075832007
 23
-106.637557505447
 33
0.0
 14
85.45385178468382
 24
-106.6373087185774
 34
0.0
1001
ACAD_DSTYLE_DIMINSPECT
1070
   396
1000
100%
1070
   395
1000

1070
   394
1070
    33
1070
   393
1070
     0
  0
ARC
  5
2CA
330
2
100
AcDbEntity
  8
3
100
AcDbCircle
 10
71.88796785149179
 20
-106.7208012696722
 30
0.0
 40
0.1
100
AcDbArc
 50
180.0
 51
0.0
  0
ARC
  5
2CB
102
{ACAD_REACTORS
330
B7
330
BA
102
}
330
2
100
AcDbEntity
  8
3
100
AcDbCircle
 10
71.88796785149179
 20
-106.6208012696722
 30
0.0
 40
0.1
100
AcDbArc
 50
0.0
 51
180.0
  0
LINE
  5
2CC
102
{ACAD_REACTORS
330
B7
330
BA
102
}
330
2
100
AcDbEntity
  8
3
 62
     0
100
AcDbLine
 10
71.9879678514917
 20
-106.6208012696722
 30
0.0
 11
71.9879678514917
 21
-106.7208012696722
 31
0.0
  0
DIMENSION
  5
2CD
330
2
100
AcDbEntity
  8
1D
 62
     0
100
AcDbDimension
280
     0
  2
*D12
 10
73.31320620855581
 20
-106.9708012696723
 30
0.0
 11
73.31320620855581
 21
-107.7908012696725
 31
0.0
 12
1615.333745727722
 22
-579.2320148666846
 32
0.0
 71
     5
 42
0.25
 73
     0
 74
     0
 75
     0
  3
複本 DM-1-1
100
AcDbAlignedDimension
 13
71.88796785149179
 23
-106.7208012696722
 33
0.0
 14
72.48296785164666
 24
-106.9708012696723
 34
0.0
 50
90.0
100
AcDbRotatedDimension
  0
DIMENSION
  5
2DB
330
2
100
AcDbEntity
  8
1D
100
AcDbDimension
280
     0
  2
*D13
 10
73.72232228805092
 20
-106.8208012696723
 30
0.0
 11
73.72232228805092
 21
-107.6408012696725
 31
0.0
 12
1615.333745727722
 22
-579.2320148666846
 32
0.0
 71
     5
 42
0.3000000000000114
 73
     0
 74
     0
 75
     0
  3
複本 DM-1-1
100
AcDbAlignedDimension
 13
71.88796785149179
 23
-106.5208012696722
 33
0.0
 14
71.88796785149179
 24
-106.8208012696723
 34
0.0
 50
90.0
100
AcDbRotatedDimension
  0
HATCH
  5
2E9
330
2
100
AcDbEntity
  8
1D
100
AcDbHatch
 10
0.0
 20
0.0
 30
0.0
210
0.0
220
0.0
230
1.0
  2
ANSI37
 70
     0
 71
     0
 91
        2
 92
        7
 72
     1
 73
     1
 93
        4
 10
83.4541307583329
 20
-106.6375575054468
 42
0.0
 10
83.25413075833285
 20
-106.6375575054468
 42
0.0
 10
83.25413075833285
 20
-106.7208012696722
 42
1.0
 10
83.4541307583329
 20
-106.7208012696722
 42
0.0
 97
        0
 92
        7
 72
     1
 73
     1
 93
        4
 10
83.25413075833285
 20
-106.6208012696722
 42
0.0
 10
83.25413075833285
 20
-106.6375575054468
 42
0.0
 10
83.4541307583329
 20
-106.6375575054468
 42
0.0
 10
83.4541307583329
 20
-106.6208012696722
 42
1.0
 97
        0
 75
     1
 76
     1
 52
0.0
 41
0.5
 77
     0
 78
     2
 53
45.0
 43
-2585.763171747127
 44
121.9036216144277
 45
-0.0441941738241592
 46
0.0441941738241592
 79
     0
 53
135.0
 43
-2585.763171747127
 44
121.9036216144277
 45
-0.0441941738241592
 46
-0.0441941738241592
 79
     0
 47
0.001122599745306
 98
        2
 10
83.3254793639819
 20
-106.6978732510238
 10
83.32098546785573
 20
-106.6013298878991
1001
GradientColor1ACI
1070
     5
1001
GradientColor2ACI
1070
     2
1001
ACAD
1010
-2090.087314
1020
220.920291
1030
0.0
  0
ARC
  5
2EA
330
2
100
AcDbEntity
  8
3
100
AcDbCircle
 10
83.35413075833276
 20
-106.7208012696722
 30
0.0
 40
0.1
100
AcDbArc
 50
180.0
 51
0.0
  0
ARC
  5
2EB
102
{ACAD_REACTORS
330
B7
102
}
330
2
100
AcDbEntity
  8
3
100
AcDbCircle
 10
83.35413075833276
 20
-106.6208012696722
 30
0.0
 40
0.1
100
AcDbArc
 50
0.0
 51
180.0
  0
LINE
  5
2EC
102
{ACAD_REACTORS
330
B7
102
}
330
2
100
AcDbEntity
  8
3
 62
     0
100
AcDbLine
 10
83.25413075833285
 20
-106.6208012696722
 30
0.0
 11
83.25413075833285
 21
-106.7208012696722
 31
0.0
  0
LINE
  5
2ED
102
{ACAD_REACTORS
330
B7
102
}
330
2
100
AcDbEntity
  8
3
 62
     0
100
AcDbLine
 10
83.4541307583329
 20
-106.6208012696722
 30
0.0
 11
83.4541307583329
 21
-106.7208012696722
 31
0.0
  0
LINE
  5
2EE
102
{ACAD_REACTORS
330
B7
330
BA
102
}
330
2
100
AcDbEntity
  8
3
 62
     0
100
AcDbLine
 10
71.78796785149166
 20
-106.6208012696722
 30
0.0
 11
71.78796785149166
 21
-106.7208012696722
 31
0.0
  0
ENDSEC
  0
SECTION
  2
OBJECTS
  0
DICTIONARY
  5
B
330
0
100
AcDbDictionary
281
     1
  3
ACAD_COLOR
350
40
  3
ACAD_GROUP
350
3B
  3
ACAD_LAYOUT
350
11
  3
ACAD_MATERIAL
350
D
  3
ACAD_MLEADERSTYLE
350
43
  3
ACAD_MLINESTYLE
350
3C
  3
ACAD_PLOTSETTINGS
350
3D
  3
ACAD_PLOTSTYLENAME
350
A
  3
ACAD_SCALELIST
350
41
  3
ACAD_TABLESTYLE
350
42
  3
ACAD_VISUALSTYLE
350
2A
  3
ACDB_RECOMPOSE_DATA
350
2F5
  3
AcDbVariableDictionary
350
44
  0
DICTIONARY
  5
2C
330
27
100
AcDbDictionary
280
     1
281
     1
  0
DICTIONARY
  5
19
330
18
100
AcDbDictionary
280
     1
281
     1
  3
ACAD_LAYERFILTERS
360
1A
  3
ACAD_LAYERSTATES
360
1B
  3
ACLYDICTIONARY
360
1C
  3
AMLAYER_GROUPCOLORS
360
1E
  0
DICTIONARY
  5
7
330
6
100
AcDbDictionary
280
     1
281
     1
  3
ADSK_XREC_LAYER_RECONCILED
360
8
  0
DICTIONARY
  5
55
330
54
100
AcDbDictionary
280
     1
281
     1
  3
ADSK_XREC_LAYER_RECONCILED
360
56
  0
DICTIONARY
  5
82
330
81
100
AcDbDictionary
280
     1
281
     1
  3
ADSK_XREC_LAYER_RECONCILED
360
83
  0
DICTIONARY
  5
8F
330
8E
100
AcDbDictionary
280
     1
281
     1
  3
ADSK_XREC_LAYER_RECONCILED
360
90
  0
DICTIONARY
  5
2AA
330
2A9
100
AcDbDictionary
280
     1
281
     1
  3
ADSK_XREC_LAYER_RECONCILED
360
2AB
  0
DICTIONARY
  5
98
330
97
100
AcDbDictionary
280
     1
281
     1
  3
ADSK_XREC_LAYER_RECONCILED
360
99
  0
DICTIONARY
  5
F7
330
F6
100
AcDbDictionary
280
     1
281
     1
  3
ADSK_XREC_LAYER_RECONCILED
360
F8
  0
DICTIONARY
  5
A4
330
A3
100
AcDbDictionary
280
     1
281
     1
  0
DICTIONARY
  5
D3
330
D2
100
AcDbDictionary
280
     1
281
     1
  0
DICTIONARY
  5
3
330
2
100
AcDbDictionary
280
     1
281
     1
  3
ACAD_SORTENTS
360
2EF
  0
DICTIONARY
  5
D5
330
D4
100
AcDbDictionary
280
     1
281
     1
  3
ACAD_DIMASSOC
360
D6
  0
DICTIONARY
  5
167
330
166
100
AcDbDictionary
280
     1
281
     1
  0
DICTIONARY
  5
1C3
330
1C2
100
AcDbDictionary
280
     1
281
     1
  3
ACAD_DIMASSOC
360
1C4
  0
DICTIONARY
  5
281
330
280
100
AcDbDictionary
280
     1
281
     1
  3
ACAD_DIMASSOC
360
282
  0
DICTIONARY
  5
299
330
298
100
AcDbDictionary
280
     1
281
     1
  3
ACAD_DIMASSOC
360
29A
  0
DICTIONARY
  5
40
102
{ACAD_REACTORS
330
B
102
}
330
B
100
AcDbDictionary
281
     1
  0
DICTIONARY
  5
3B
102
{ACAD_REACTORS
330
B
102
}
330
B
100
AcDbDictionary
281
     1
  0
DICTIONARY
  5
11
102
{ACAD_REACTORS
330
B
102
}
330
B
100
AcDbDictionary
281
     1
  3
Layout1
350
17
  3
Model
350
10
  0
DICTIONARY
  5
D
102
{ACAD_REACTORS
330
B
102
}
330
B
100
AcDbDictionary
281
     1
  3
ByBlock
350
3F
  3
ByLayer
350
3E
  3
Global
350
C
  0
DICTIONARY
  5
43
102
{ACAD_REACTORS
330
B
102
}
330
B
100
AcDbDictionary
281
     1
  0
DICTIONARY
  5
3C
102
{ACAD_REACTORS
330
B
102
}
330
B
100
AcDbDictionary
281
     1
  3
Standard
350
58
  0
DICTIONARY
  5
3D
102
{ACAD_REACTORS
330
B
102
}
330
B
100
AcDbDictionary
281
     1
  0
ACDBDICTIONARYWDFLT
  5
A
102
{ACAD_REACTORS
330
B
102
}
330
B
100
AcDbDictionary
281
     1
  3
Normal
350
9
100
AcDbDictionaryWithDefault
340
9
  0
DICTIONARY
  5
41
102
{ACAD_REACTORS
330
B
102
}
330
B
100
AcDbDictionary
281
     1
  3
A0
350
5D
  3
A1
350
5E
  3
A2
350
5F
  3
A3
350
60
  3
A4
350
61
  3
A5
350
62
  3
A6
350
63
  3
A7
350
64
  3
A8
350
65
  3
A9
350
66
  3
B0
350
67
  3
B1
350
68
  3
B2
350
69
  3
B3
350
6A
  3
B4
350
6B
  3
B5
350
6C
  3
B6
350
6D
  3
B7
350
6E
  3
B8
350
6F
  3
B9
350
70
  3
C0
350
71
  3
C1
350
72
  3
C2
350
73
  3
C3
350
74
  3
C4
350
75
  3
C5
350
76
  3
C6
350
77
  3
C7
350
78
  3
C8
350
79
  3
C9
350
7A
  3
D0
350
7B
  3
D1
350
7C
  3
D2
350
7D
  0
DICTIONARY
  5
42
102
{ACAD_REACTORS
330
B
102
}
330
B
100
AcDbDictionary
281
     1
  3
Standard
350
59
  0
DICTIONARY
  5
2A
102
{ACAD_REACTORS
330
B
102
}
330
B
100
AcDbDictionary
281
     1
  3
2dWireframe
350
29
  3
3dWireframe
350
5C
  3
EdgeColorOff
350
29F
  3
Realistic
350
5B
  0
XRECORD
  5
2F5
102
{ACAD_REACTORS
330
B
102
}
330
B
100
AcDbXrecord
280
     1
 90
        1
330
59
  0
DICTIONARY
  5
44
102
{ACAD_REACTORS
330
B
102
}
330
B
100
AcDbDictionary
281
     1
  3
CANNOSCALE
350
45
  3
CMLEADERSTYLE
350
46
  3
CTABLESTYLE
350
47
  3
CVIEWDETAILSTYLE
350
48
  3
CVIEWSECTIONSTYLE
350
49
  3
DIMASSOC
350
4A
  3
FIELDEVAL
350
4B
  3
HPORIGIN
350
4C
  3
INDEXCTL
350
4D
  3
LAYEREVAL
350
4E
  3
LAYERNOTIFY
350
4F
  3
LIGHTINGUNITS
350
50
  3
MSLTSCALE
350
51
  3
PROJECTNAME
350
52
  3
SORTENTS
350
53
  0
DICTIONARY
  5
1A
102
{ACAD_REACTORS
330
19
102
}
330
19
100
AcDbDictionary
281
     1
  0
DICTIONARY
  5
1B
102
{ACAD_REACTORS
330
19
102
}
330
19
100
AcDbDictionary
281
     1
  0
DICTIONARY
  5
1C
102
{ACAD_REACTORS
330
19
102
}
330
19
100
AcDbDictionary
281
     1
1001
ACAD
1000
<All
  0
DICTIONARY
  5
1E
102
{ACAD_REACTORS
330
19
102
}
330
19
100
AcDbDictionary
280
     1
281
     1
  0
XRECORD
  5
8
102
{ACAD_REACTORS
330
7
102
}
330
7
100
AcDbXrecord
280
     1
290
     1
  0
XRECORD
  5
56
102
{ACAD_REACTORS
330
55
102
}
330
55
100
AcDbXrecord
280
     1
290
     1
  0
XRECORD
  5
83
102
{ACAD_REACTORS
330
82
102
}
330
82
100
AcDbXrecord
280
     1
290
     1
  0
XRECORD
  5
90
102
{ACAD_REACTORS
330
8F
102
}
330
8F
100
AcDbXrecord
280
     1
290
     1
  0
XRECORD
  5
2AB
102
{ACAD_REACTORS
330
2AA
102
}
330
2AA
100
AcDbXrecord
280
     1
290
     1
  0
XRECORD
  5
99
102
{ACAD_REACTORS
330
98
102
}
330
98
100
AcDbXrecord
280
     1
290
     1
  0
XRECORD
  5
F8
102
{ACAD_REACTORS
330
F7
102
}
330
F7
100
AcDbXrecord
280
     1
290
     1
  0
SORTENTSTABLE
  5
2EF
102
{ACAD_REACTORS
330
3
102
}
330
3
100
AcDbSortentsTable
330
2
  0
DIMASSOC
  5
D6
102
{ACAD_REACTORS
330
D5
102
}
330
D5
100
AcDbDimAssoc
330
D4
 90
        2
 70
     0
 71
     0
  1
AcDbOsnapPointRef
 72
     1
331
8D
 73
     2
 91
        0
 40
1.0
 10
0.0
 20
0.0
 30
2.000000000000000E+50
 75
     0
  0
DIMASSOC
  5
1C4
102
{ACAD_REACTORS
330
1C3
102
}
330
1C3
100
AcDbDimAssoc
330
1C2
 90
        2
 70
     0
 71
     0
  1
AcDbOsnapPointRef
 72
     1
331
18A
 73
     2
 91
        0
 40
1.0
 10
0.0
 20
0.0
 30
2.000000000000000E+50
 75
     0
  0
DIMASSOC
  5
282
102
{ACAD_REACTORS
330
281
102
}
330
281
100
AcDbDimAssoc
330
280
 90
        2
 70
     0
 71
     0
  1
AcDbOsnapPointRef
 72
    11
331
275
 73
     2
 91
        0
 40
0.0
 10
0.0
 20
0.0
 30
0.0
332
19C
 74
     2
 92
        0
 75
     0
  0
DIMASSOC
  5
29A
102
{ACAD_REACTORS
330
299
102
}
330
299
100
AcDbDimAssoc
330
298
 90
        2
 70
     0
 71
     0
  1
AcDbOsnapPointRef
 72
     3
331
296
 73
     2
 91
        0
 40
0.0
 10
0.0
 20
0.0
 30
0.0
 75
     0
  0
LAYOUT
  5
17
102
{ACAD_REACTORS
330
11
102
}
330
11
100
AcDbPlotSettings
  1

  2
HP DeskJet 930C/932C/935C
  4

  6

 40
0.0
 41
0.0
 42
0.0
 43
0.0
 44
0.0
 45
0.0
 46
0.0
 47
0.0
 48
0.0
 49
0.0
140
0.0
141
0.0
142
1.0
143
1.0
 70
   688
 72
     0
 73
     0
 74
     5
  7
monochrome.ctb
 75
    16
147
1.0
 76
     0
 77
     2
 78
   300
148
0.0
149
0.0
100
AcDbLayout
  1
Layout1
 70
     1
 71
     1
 10
0.0
 20
0.0
 11
12.0
 21
9.0
 12
0.0
 22
0.0
 32
0.0
 14
1.000000000000000E+20
 24
1.000000000000000E+20
 34
1.000000000000000E+20
 15
-1.000000000000000E+20
 25
-1.000000000000000E+20
 35
-1.000000000000000E+20
146
0.0
 13
0.0
 23
0.0
 33
0.0
 16
1.0
 26
0.0
 36
0.0
 17
0.0
 27
1.0
 37
0.0
 76
     0
330
14
  0
LAYOUT
  5
10
102
{ACAD_XDICTIONARY
360
12
102
}
102
{ACAD_REACTORS
330
11
102
}
330
11
100
AcDbPlotSettings
  1

  2
Adobe PDF
  4
A4
  6

 40
3.174999952316282
 41
3.174999952316282
 42
3.175003051757812
 43
3.17498779296875
 44
209.9733276367186
 45
297.0318298339844
 46
0.0000000000000142
 47
1.981117120998845
 48
-1650.664496588554
 49
455.3803071005131
140
-1552.744496937149
141
593.2603066096603
142
1.0
143
0.4808879327948389
 70
  3764
 72
     1
 73
     0
 74
     4
  7
monochrome.ctb
 75
     0
147
2.079486574321319
 76
     1
 77
     2
 78
   300
148
1650.664496588554
149
-455.3803071005131
100
AcDbLayout
  1
Model
 70
     1
 71
     0
 10
0.0
 20
0.0
 11
12.0
 21
9.0
 12
0.0
 22
0.0
 32
0.0
 14
0.0
 24
0.0
 34
0.0
 15
0.0
 25
0.0
 35
0.0
146
0.0
 13
0.0
 23
0.0
 33
0.0
 16
1.0
 26
0.0
 36
0.0
 17
0.0
 27
1.0
 37
0.0
 76
     0
330
2
331
28
1001
ACAD_PSEXT
1000
Adobe PDF
1000
Adobe PDF Converter
1000
My Documents
1000

1070
     0
  0
MATERIAL
  5
3F
102
{ACAD_REACTORS
330
D
102
}
330
D
100
AcDbMaterial
  1
ByBlock
 73
     1
 78
     1
172
     1
176
     1
270
     1
274
     1
 94
       63
  0
MATERIAL
  5
3E
102
{ACAD_REACTORS
330
D
102
}
330
D
100
AcDbMaterial
  1
ByLayer
 73
     1
 78
     1
172
     1
176
     1
270
     1
274
     1
 94
       63
  0
MATERIAL
  5
C
102
{ACAD_REACTORS
330
D
102
}
330
D
100
AcDbMaterial
  1
Global
 73
     1
 78
     1
172
     1
176
     1
270
     1
274
     1
 94
       63
  0
MLINESTYLE
  5
58
102
{ACAD_REACTORS
330
3C
102
}
330
3C
100
AcDbMlineStyle
  2
STANDARD
 70
     0
  3

 62
   256
 51
90.0
 52
90.0
 71
     2
 49
0.5
 62
   256
  6
BYLAYER
 49
-0.5
 62
   256
  6
BYLAYER
  0
ACDBPLACEHOLDER
  5
9
102
{ACAD_REACTORS
330
A
102
}
330
A
  0
SCALE
  5
5D
102
{ACAD_REACTORS
330
41
102
}
330
41
100
AcDbScale
 70
     0
300
1:1
140
1.0
141
1.0
290
     1
1001
ACAD
1000
AcRTDxfName
1000
SCALE
  0
SCALE
  5
5E
102
{ACAD_REACTORS
330
41
102
}
330
41
100
AcDbScale
 70
     0
300
1:2
140
1.0
141
2.0
290
     0
1001
ACAD
1000
AcRTDxfName
1000
SCALE
  0
SCALE
  5
5F
102
{ACAD_REACTORS
330
41
102
}
330
41
100
AcDbScale
 70
     0
300
1:4
140
1.0
141
4.0
290
     0
1001
ACAD
1000
AcRTDxfName
1000
SCALE
  0
SCALE
  5
60
102
{ACAD_REACTORS
330
41
102
}
330
41
100
AcDbScale
 70
     0
300
1:5
140
1.0
141
5.0
290
     0
1001
ACAD
1000
AcRTDxfName
1000
SCALE
  0
SCALE
  5
61
102
{ACAD_REACTORS
330
41
102
}
330
41
100
AcDbScale
 70
     0
300
1:8
140
1.0
141
8.0
290
     0
1001
ACAD
1000
AcRTDxfName
1000
SCALE
  0
SCALE
  5
62
102
{ACAD_REACTORS
330
41
102
}
330
41
100
AcDbScale
 70
     0
300
1:10
140
1.0
141
10.0
290
     0
1001
ACAD
1000
AcRTDxfName
1000
SCALE
  0
SCALE
  5
63
102
{ACAD_REACTORS
330
41
102
}
330
41
100
AcDbScale
 70
     0
300
1:16
140
1.0
141
16.0
290
     0
1001
ACAD
1000
AcRTDxfName
1000
SCALE
  0
SCALE
  5
64
102
{ACAD_REACTORS
330
41
102
}
330
41
100
AcDbScale
 70
     0
300
1:20
140
1.0
141
20.0
290
     0
1001
ACAD
1000
AcRTDxfName
1000
SCALE
  0
SCALE
  5
65
102
{ACAD_REACTORS
330
41
102
}
330
41
100
AcDbScale
 70
     0
300
1:30
140
1.0
141
30.0
290
     0
1001
ACAD
1000
AcRTDxfName
1000
SCALE
  0
SCALE
  5
66
102
{ACAD_REACTORS
330
41
102
}
330
41
100
AcDbScale
 70
     0
300
1:40
140
1.0
141
40.0
290
     0
1001
ACAD
1000
AcRTDxfName
1000
SCALE
  0
SCALE
  5
67
102
{ACAD_REACTORS
330
41
102
}
330
41
100
AcDbScale
 70
     0
300
1:50
140
1.0
141
50.0
290
     0
1001
ACAD
1000
AcRTDxfName
1000
SCALE
  0
SCALE
  5
68
102
{ACAD_REACTORS
330
41
102
}
330
41
100
AcDbScale
 70
     0
300
1:100
140
1.0
141
100.0
290
     0
1001
ACAD
1000
AcRTDxfName
1000
SCALE
  0
SCALE
  5
69
102
{ACAD_REACTORS
330
41
102
}
330
41
100
AcDbScale
 70
     0
300
2:1
140
2.0
141
1.0
290
     0
1001
ACAD
1000
AcRTDxfName
1000
SCALE
  0
SCALE
  5
6A
102
{ACAD_REACTORS
330
41
102
}
330
41
100
AcDbScale
 70
     0
300
4:1
140
4.0
141
1.0
290
     0
1001
ACAD
1000
AcRTDxfName
1000
SCALE
  0
SCALE
  5
6B
102
{ACAD_REACTORS
330
41
102
}
330
41
100
AcDbScale
 70
     0
300
8:1
140
8.0
141
1.0
290
     0
1001
ACAD
1000
AcRTDxfName
1000
SCALE
  0
SCALE
  5
6C
102
{ACAD_REACTORS
330
41
102
}
330
41
100
AcDbScale
 70
     0
300
10:1
140
10.0
141
1.0
290
     0
1001
ACAD
1000
AcRTDxfName
1000
SCALE
  0
SCALE
  5
6D
102
{ACAD_REACTORS
330
41
102
}
330
41
100
AcDbScale
 70
     0
300
100:1
140
100.0
141
1.0
290
     0
1001
ACAD
1000
AcRTDxfName
1000
SCALE
  0
SCALE
  5
6E
102
{ACAD_REACTORS
330
41
102
}
330
41
100
AcDbScale
 70
     0
300
1/128" = 1'-0"
140
0.0078125
141
12.0
290
     0
1001
ACAD
1000
AcRTDxfName
1000
SCALE
  0
SCALE
  5
6F
102
{ACAD_REACTORS
330
41
102
}
330
41
100
AcDbScale
 70
     0
300
1/64" = 1'-0"
140
0.015625
141
12.0
290
     0
1001
ACAD
1000
AcRTDxfName
1000
SCALE
  0
SCALE
  5
70
102
{ACAD_REACTORS
330
41
102
}
330
41
100
AcDbScale
 70
     0
300
1/32" = 1'-0"
140
0.03125
141
12.0
290
     0
1001
ACAD
1000
AcRTDxfName
1000
SCALE
  0
SCALE
  5
71
102
{ACAD_REACTORS
330
41
102
}
330
41
100
AcDbScale
 70
     0
300
1/16" = 1'-0"
140
0.0625
141
12.0
290
     0
1001
ACAD
1000
AcRTDxfName
1000
SCALE
  0
SCALE
  5
72
102
{ACAD_REACTORS
330
41
102
}
330
41
100
AcDbScale
 70
     0
300
3/32" = 1'-0"
140
0.09375
141
12.0
290
     0
1001
ACAD
1000
AcRTDxfName
1000
SCALE
  0
SCALE
  5
73
102
{ACAD_REACTORS
330
41
102
}
330
41
100
AcDbScale
 70
     0
300
1/8" = 1'-0"
140
0.125
141
12.0
290
     0
1001
ACAD
1000
AcRTDxfName
1000
SCALE
  0
SCALE
  5
74
102
{ACAD_REACTORS
330
41
102
}
330
41
100
AcDbScale
 70
     0
300
3/16" = 1'-0"
140
0.1875
141
12.0
290
     0
1001
ACAD
1000
AcRTDxfName
1000
SCALE
  0
SCALE
  5
75
102
{ACAD_REACTORS
330
41
102
}
330
41
100
AcDbScale
 70
     0
300
1/4" = 1'-0"
140
0.25
141
12.0
290
     0
1001
ACAD
1000
AcRTDxfName
1000
SCALE
  0
SCALE
  5
76
102
{ACAD_REACTORS
330
41
102
}
330
41
100
AcDbScale
 70
     0
300
3/8" = 1'-0"
140
0.375
141
12.0
290
     0
1001
ACAD
1000
AcRTDxfName
1000
SCALE
  0
SCALE
  5
77
102
{ACAD_REACTORS
330
41
102
}
330
41
100
AcDbScale
 70
     0
300
1/2" = 1'-0"
140
0.5
141
12.0
290
     0
1001
ACAD
1000
AcRTDxfName
1000
SCALE
  0
SCALE
  5
78
102
{ACAD_REACTORS
330
41
102
}
330
41
100
AcDbScale
 70
     0
300
3/4" = 1'-0"
140
0.75
141
12.0
290
     0
1001
ACAD
1000
AcRTDxfName
1000
SCALE
  0
SCALE
  5
79
102
{ACAD_REACTORS
330
41
102
}
330
41
100
AcDbScale
 70
     0
300
1" = 1'-0"
140
1.0
141
12.0
290
     0
1001
ACAD
1000
AcRTDxfName
1000
SCALE
  0
SCALE
  5
7A
102
{ACAD_REACTORS
330
41
102
}
330
41
100
AcDbScale
 70
     0
300
1-1/2" = 1'-0"
140
1.5
141
12.0
290
     0
1001
ACAD
1000
AcRTDxfName
1000
SCALE
  0
SCALE
  5
7B
102
{ACAD_REACTORS
330
41
102
}
330
41
100
AcDbScale
 70
     0
300
3" = 1'-0"
140
3.0
141
12.0
290
     0
1001
ACAD
1000
AcRTDxfName
1000
SCALE
  0
SCALE
  5
7C
102
{ACAD_REACTORS
330
41
102
}
330
41
100
AcDbScale
 70
     0
300
6" = 1'-0"
140
6.0
141
12.0
290
     0
1001
ACAD
1000
AcRTDxfName
1000
SCALE
  0
SCALE
  5
7D
102
{ACAD_REACTORS
330
41
102
}
330
41
100
AcDbScale
 70
     0
300
1'-0" = 1'-0"
140
12.0
141
12.0
290
     0
1001
ACAD
1000
AcRTDxfName
1000
SCALE
  0
TABLESTYLE
  5
59
102
{ACAD_XDICTIONARY
360
5A
102
}
102
{ACAD_REACTORS
330
42
102
}
330
42
100
AcDbTableStyle
280
     0
  3
Standard
 70
     0
 71
     0
 40
0.06
 41
0.06
280
     0
281
     0
  7
Standard
140
0.18
170
     2
 62
     0
 63
     7
283
     0
 90
        4
 91
        0
  1

274
    -2
284
     1
 64
     0
275
    -2
285
     1
 65
     0
276
    -2
286
     1
 66
     0
277
    -2
287
     1
 67
     0
278
    -2
288
     1
 68
     0
279
    -2
289
     1
 69
     0
  7
Standard
140
0.25
170
     5
 62
     0
 63
     7
283
     0
 90
        4
 91
        0
  1

274
    -2
284
     1
 64
     0
275
    -2
285
     1
 65
     0
276
    -2
286
     1
 66
     0
277
    -2
287
     1
 67
     0
278
    -2
288
     1
 68
     0
279
    -2
289
     1
 69
     0
  7
Standard
140
0.18
170
     5
 62
     0
 63
     7
283
     0
 90
        4
 91
        0
  1

274
    -2
284
     1
 64
     0
275
    -2
285
     1
 65
     0
276
    -2
286
     1
 66
     0
277
    -2
287
     1
 67
     0
278
    -2
288
     1
 68
     0
279
    -2
289
     1
 69
     0
  0
VISUALSTYLE
  5
29
102
{ACAD_REACTORS
330
2A
102
}
330
2A
100
AcDbVisualStyle
  2
2dWireframe
 70
     4
177
     3
291
     0
 70
    58
 90
        0
176
     1
 90
        2
176
     1
 90
        0
176
     1
 90
        0
176
     1
 40
0.6
176
     1
 40
30.0
176
     1
 62
     7
176
     1
 90
        1
176
     1
 90
        4
176
     1
 62
     7
176
     1
 62
   257
176
     1
 90
        1
176
     1
 90
        1
176
     1
 40
1.0
176
     1
 90
        0
176
     1
 62
   257
176
     1
 40
1.0
176
     1
 90
        1
176
     1
 90
        6
176
     1
 90
        2
176
     1
 62
     7
176
     1
 90
        5
176
     1
 90
        0
176
     1
 90
        0
176
     1
290
     0
176
     1
 90
        1
176
     1
 40
0.0
176
     1
 90
        0
176
     1
290
     1
176
     1
290
     1
176
     1
290
     0
176
     1
290
     0
176
     1
290
     0
176
     1
290
     0
176
     1
290
     0
176
     1
290
     0
176
     1
290
     0
176
     1
 90
       50
176
     1
 40
0.0
176
     1
 40
1.0
176
     1
 90
        0
176
     1
 62
    18
176
     1
 90
       50
176
     1
 90
        3
176
     1
 62
     5
420
      255
176
     1
290
     0
176
     1
 90
       50
176
     1
 90
       50
176
     1
 90
       50
176
     1
290
     0
176
     1
 90
       50
176
     1
 62
   256
176
     0
 40
1.0
176
     0
 90
        2
176
     1
  1
strokes_ogs.tif
176
     1
290
     0
176
     1
 40
1.0
176
     1
 40
1.0
176
     1
1001
ACAD
1000
AcRTDxfName
1000
VISUALSTYLE
1000
AcRTDxfName
1000
VISUALSTYLE
1000
AcRTDxfName
1000
VISUALSTYLE
1000
AcRTDxfName
1000
VISUALSTYLE
1000
AcRTDxfName
1000
VISUALSTYLE
1000
AcRTDxfName
1000
VISUALSTYLE
1000
AcRTDxfName
1000
VISUALSTYLE
1000
AcRTDxfName
1000
VISUALSTYLE
1000
AcRTDxfName
1000
VISUALSTYLE
1000
AcRTDxfName
1000
VISUALSTYLE
1000
AcRTDxfName
1000
VISUALSTYLE
1000
AcRTDxfName
1000
VISUALSTYLE
1000
AcRTDxfName
1000
VISUALSTYLE
1000
AcRTDxfName
1000
VISUALSTYLE
1000
AcRTDxfName
1000
VISUALSTYLE
1000
AcRTDxfName
1000
VISUALSTYLE
1000
AcRTDxfName
1000
VISUALSTYLE
1000
AcRTDxfName
1000
VISUALSTYLE
1000
AcRTDxfName
1000
VISUALSTYLE
1000
AcRTDxfName
1000
VISUALSTYLE
1000
AcRTDxfName
1000
VISUALSTYLE
1000
AcRTDxfName
1000
VISUALSTYLE
1000
AcRTDxfName
1000
VISUALSTYLE
1000
AcRTDxfName
1000
VISUALSTYLE
1000
AcRTDxfName
1000
VISUALSTYLE
1000
AcRTDxfName
1000
VISUALSTYLE
1000
AcRTDxfName
1000
VISUALSTYLE
1000
AcRTDxfName
1000
VISUALSTYLE
1000
AcRTDxfName
1000
VISUALSTYLE
1000
AcRTDxfName
1000
VISUALSTYLE
1000
AcRTDxfName
1000
VISUALSTYLE
1000
AcRTDxfName
1000
VISUALSTYLE
1000
AcRTDxfName
1000
VISUALSTYLE
1000
AcRTDxfName
1000
VISUALSTYLE
1000
AcRTDxfName
1000
VISUALSTYLE
1000
AcRTDxfName
1000
VISUALSTYLE
1000
AcRTDxfName
1000
VISUALSTYLE
1000
AcRTDxfName
1000
VISUALSTYLE
1000
AcRTDxfName
1000
VISUALSTYLE
1000
AcRTDxfName
1000
VISUALSTYLE
1000
AcRTDxfName
1000
VISUALSTYLE
1000
AcRTDxfName
1000
VISUALSTYLE
  0
VISUALSTYLE
  5
5C
102
{ACAD_REACTORS
330
2A
102
}
330
2A
100
AcDbVisualStyle
  2
3dWireframe
 70
     5
177
     3
291
     0
 70
    58
 90
        0
176
     1
 90
        2
176
     1
 90
        0
176
     1
 90
        0
176
     1
 40
0.6
176
     1
 40
30.0
176
     1
 62
     7
176
     1
 90
        1
176
     1
 90
        4
176
     1
 62
     7
176
     1
 62
   257
176
     1
 90
        1
176
     1
 90
        1
176
     1
 40
1.0
176
     1
 90
        0
176
     1
 62
   257
176
     1
 40
1.0
176
     1
 90
        1
176
     1
 90
        6
176
     1
 90
        2
176
     1
 62
     7
176
     1
 90
        5
176
     1
 90
        0
176
     1
 90
        0
176
     1
290
     0
176
     1
 90
        1
176
     1
 40
0.0
176
     1
 90
        0
176
     1
290
     0
176
     1
290
     1
176
     1
290
     1
176
     1
290
     0
176
     1
290
     0
176
     1
290
     0
176
     1
290
     0
176
     1
290
     0
176
     1
290
     0
176
     1
 90
       50
176
     1
 40
0.0
176
     1
 40
1.0
176
     1
 90
        0
176
     1
 62
    18
176
     1
 90
       50
176
     1
 90
        3
176
     1
 62
     5
420
      255
176
     1
290
     0
176
     1
 90
       50
176
     1
 90
       50
176
     1
 90
       50
176
     1
290
     0
176
     1
 90
       50
176
     1
 62
   256
176
     0
 40
1.0
176
     0
 90
        2
176
     1
  1
strokes_ogs.tif
176
     1
290
     0
176
     1
 40
1.0
176
     1
 40
1.0
176
     1
1001
ACAD
1000
AcRTDxfName
1000
VISUALSTYLE
1000
AcRTDxfName
1000
VISUALSTYLE
1000
AcRTDxfName
1000
VISUALSTYLE
1000
AcRTDxfName
1000
VISUALSTYLE
1000
AcRTDxfName
1000
VISUALSTYLE
1000
AcRTDxfName
1000
VISUALSTYLE
1000
AcRTDxfName
1000
VISUALSTYLE
1000
AcRTDxfName
1000
VISUALSTYLE
1000
AcRTDxfName
1000
VISUALSTYLE
1000
AcRTDxfName
1000
VISUALSTYLE
1000
AcRTDxfName
1000
VISUALSTYLE
1000
AcRTDxfName
1000
VISUALSTYLE
1000
AcRTDxfName
1000
VISUALSTYLE
1000
AcRTDxfName
1000
VISUALSTYLE
1000
AcRTDxfName
1000
VISUALSTYLE
1000
AcRTDxfName
1000
VISUALSTYLE
1000
AcRTDxfName
1000
VISUALSTYLE
1000
AcRTDxfName
1000
VISUALSTYLE
1000
AcRTDxfName
1000
VISUALSTYLE
1000
AcRTDxfName
1000
VISUALSTYLE
1000
AcRTDxfName
1000
VISUALSTYLE
1000
AcRTDxfName
1000
VISUALSTYLE
1000
AcRTDxfName
1000
VISUALSTYLE
1000
AcRTDxfName
1000
VISUALSTYLE
1000
AcRTDxfName
1000
VISUALSTYLE
1000
AcRTDxfName
1000
VISUALSTYLE
1000
AcRTDxfName
1000
VISUALSTYLE
1000
AcRTDxfName
1000
VISUALSTYLE
1000
AcRTDxfName
1000
VISUALSTYLE
1000
AcRTDxfName
1000
VISUALSTYLE
1000
AcRTDxfName
1000
VISUALSTYLE
1000
AcRTDxfName
1000
VISUALSTYLE
1000
AcRTDxfName
1000
VISUALSTYLE
1000
AcRTDxfName
1000
VISUALSTYLE
1000
AcRTDxfName
1000
VISUALSTYLE
1000
AcRTDxfName
1000
VISUALSTYLE
1000
AcRTDxfName
1000
VISUALSTYLE
1000
AcRTDxfName
1000
VISUALSTYLE
1000
AcRTDxfName
1000
VISUALSTYLE
1000
AcRTDxfName
1000
VISUALSTYLE
1000
AcRTDxfName
1000
VISUALSTYLE
1000
AcRTDxfName
1000
VISUALSTYLE
  0
VISUALSTYLE
  5
29F
102
{ACAD_REACTORS
330
2A
102
}
330
2A
100
AcDbVisualStyle
  2
EdgeColorOff
 70
    22
177
     3
291
     1
 70
    58
 90
        2
176
     0
 90
        2
176
     0
 90
        0
176
     0
 90
        0
176
     0
 40
0.6
176
     0
 40
30.0
176
     0
 62
     7
176
     0
 90
        1
176
     0
 90
        4
176
     0
 62
     7
176
     0
 62
   257
176
     0
 90
        1
176
     0
 90
        1
176
     0
 40
1.0
176
     0
 90
        8
176
     2
 62
     7
176
     0
 40
1.0
176
     0
 90
        1
176
     0
 90
        6
176
     0
 90
        2
176
     0
 62
     7
176
     0
 90
        5
176
     0
 90
        0
176
     0
 90
        0
176
     0
290
     0
176
     0
 90
        1
176
     0
 40
0.0
176
     0
 90
        0
176
     0
290
     0
176
     1
290
     1
176
     1
290
     1
176
     1
290
     0
176
     1
290
     0
176
     1
290
     0
176
     1
290
     0
176
     1
290
     0
176
     1
290
     0
176
     1
 90
       50
176
     1
 40
0.0
176
     1
 40
1.0
176
     1
 90
        0
176
     1
 62
    18
176
     1
 90
       50
176
     1
 90
        3
176
     1
 62
     5
420
      255
176
     1
290
     0
176
     1
 90
       50
176
     1
 90
       50
176
     1
 90
       50
176
     1
290
     0
176
     1
 90
       50
176
     1
 62
   256
176
     0
 40
1.0
176
     0
 90
        2
176
     1
  1
strokes_ogs.tif
176
     1
290
     0
176
     1
 40
1.0
176
     1
 40
1.0
176
     1
  0
VISUALSTYLE
  5
5B
102
{ACAD_REACTORS
330
2A
102
}
330
2A
100
AcDbVisualStyle
  2
Realistic
 70
     8
177
     3
291
     0
 70
    58
 90
        2
176
     1
 90
        2
176
     1
 90
        0
176
     1
 90
        0
176
     1
 40
0.6
176
     1
 40
30.0
176
     1
 62
     7
176
     1
 90
        1
176
     1
 90
        0
176
     1
 62
     7
176
     1
 62
   257
176
     1
 90
        1
176
     1
 90
        1
176
     1
 40
1.0
176
     1
 90
        8
176
     1
 62
     8
176
     1
 40
1.0
176
     1
 90
        1
176
     1
 90
        6
176
     1
 90
        2
176
     1
 62
     7
176
     1
 90
        5
176
     1
 90
        0
176
     1
 90
        0
176
     1
290
     0
176
     1
 90
       13
176
     1
 40
0.0
176
     1
 90
        0
176
     1
290
     0
176
     1
290
     1
176
     1
290
     1
176
     1
290
     0
176
     1
290
     0
176
     1
290
     0
176
     1
290
     0
176
     1
290
     0
176
     1
290
     0
176
     1
 90
       50
176
     1
 40
0.0
176
     1
 40
1.0
176
     1
 90
        0
176
     1
 62
    18
176
     1
 90
       50
176
     1
 90
        3
176
     1
 62
     5
420
      255
176
     1
290
     0
176
     1
 90
       50
176
     1
 90
       50
176
     1
 90
       50
176
     1
290
     0
176
     1
 90
       50
176
     1
 62
   256
176
     0
 40
1.0
176
     0
 90
        2
176
     1
  1
strokes_ogs.tif
176
     1
290
     0
176
     1
 40
1.0
176
     1
 40
1.0
176
     1
1001
ACAD
1000
AcRTDxfName
1000
VISUALSTYLE
1000
AcRTDxfName
1000
VISUALSTYLE
1000
AcRTDxfName
1000
VISUALSTYLE
1000
AcRTDxfName
1000
VISUALSTYLE
1000
AcRTDxfName
1000
VISUALSTYLE
1000
AcRTDxfName
1000
VISUALSTYLE
1000
AcRTDxfName
1000
VISUALSTYLE
1000
AcRTDxfName
1000
VISUALSTYLE
1000
AcRTDxfName
1000
VISUALSTYLE
1000
AcRTDxfName
1000
VISUALSTYLE
1000
AcRTDxfName
1000
VISUALSTYLE
1000
AcRTDxfName
1000
VISUALSTYLE
1000
AcRTDxfName
1000
VISUALSTYLE
1000
AcRTDxfName
1000
VISUALSTYLE
1000
AcRTDxfName
1000
VISUALSTYLE
1000
AcRTDxfName
1000
VISUALSTYLE
1000
AcRTDxfName
1000
VISUALSTYLE
1000
AcRTDxfName
1000
VISUALSTYLE
1000
AcRTDxfName
1000
VISUALSTYLE
1000
AcRTDxfName
1000
VISUALSTYLE
1000
AcRTDxfName
1000
VISUALSTYLE
1000
AcRTDxfName
1000
VISUALSTYLE
1000
AcRTDxfName
1000
VISUALSTYLE
1000
AcRTDxfName
1000
VISUALSTYLE
1000
AcRTDxfName
1000
VISUALSTYLE
1000
AcRTDxfName
1000
VISUALSTYLE
1000
AcRTDxfName
1000
VISUALSTYLE
1000
AcRTDxfName
1000
VISUALSTYLE
1000
AcRTDxfName
1000
VISUALSTYLE
1000
AcRTDxfName
1000
VISUALSTYLE
1000
AcRTDxfName
1000
VISUALSTYLE
1000
AcRTDxfName
1000
VISUALSTYLE
1000
AcRTDxfName
1000
VISUALSTYLE
1000
AcRTDxfName
1000
VISUALSTYLE
1000
AcRTDxfName
1000
VISUALSTYLE
1000
AcRTDxfName
1000
VISUALSTYLE
1000
AcRTDxfName
1000
VISUALSTYLE
1000
AcRTDxfName
1000
VISUALSTYLE
1000
AcRTDxfName
1000
VISUALSTYLE
1000
AcRTDxfName
1000
VISUALSTYLE
1000
AcRTDxfName
1000
VISUALSTYLE
1000
AcRTDxfName
1000
VISUALSTYLE
  0
DICTIONARYVAR
  5
45
102
{ACAD_REACTORS
330
44
102
}
330
44
100
DictionaryVariables
280
     0
  1
1:1
  0
DICTIONARYVAR
  5
46
102
{ACAD_REACTORS
330
44
102
}
330
44
100
DictionaryVariables
280
     0
  1
STANDARD
  0
DICTIONARYVAR
  5
47
102
{ACAD_REACTORS
330
44
102
}
330
44
100
DictionaryVariables
280
     0
  1
STANDARD
  0
DICTIONARYVAR
  5
48
102
{ACAD_REACTORS
330
44
102
}
330
44
100
DictionaryVariables
280
     0
  1

  0
DICTIONARYVAR
  5
49
102
{ACAD_REACTORS
330
44
102
}
330
44
100
DictionaryVariables
280
     0
  1

  0
DICTIONARYVAR
  5
4A
102
{ACAD_REACTORS
330
44
102
}
330
44
100
DictionaryVariables
280
     0
  1
2
  0
DICTIONARYVAR
  5
4B
102
{ACAD_REACTORS
330
44
102
}
330
44
100
DictionaryVariables
280
     0
  1
4
  0
DICTIONARYVAR
  5
4C
102
{ACAD_REACTORS
330
44
102
}
330
44
100
DictionaryVariables
280
     0
  1
-2090.087314;220.920291
  0
DICTIONARYVAR
  5
4D
102
{ACAD_REACTORS
330
44
102
}
330
44
100
DictionaryVariables
280
     0
  1
0
  0
DICTIONARYVAR
  5
4E
102
{ACAD_REACTORS
330
44
102
}
330
44
100
DictionaryVariables
280
     0
  1
1
  0
DICTIONARYVAR
  5
4F
102
{ACAD_REACTORS
330
44
102
}
330
44
100
DictionaryVariables
280
     0
  1
15
  0
DICTIONARYVAR
  5
50
102
{ACAD_REACTORS
330
44
102
}
330
44
100
DictionaryVariables
280
     0
  1
0
  0
DICTIONARYVAR
  5
51
102
{ACAD_REACTORS
330
44
102
}
330
44
100
DictionaryVariables
280
     0
  1
0
  0
DICTIONARYVAR
  5
52
102
{ACAD_REACTORS
330
44
102
}
330
44
100
DictionaryVariables
280
     0
  1

  0
DICTIONARYVAR
  5
53
102
{ACAD_REACTORS
330
44
102
}
330
44
100
DictionaryVariables
280
     0
  1
127
  0
DICTIONARY
  5
12
330
10
100
AcDbDictionary
280
     1
281
     1
  0
DICTIONARY
  5
5A
330
59
100
AcDbDictionary
280
     1
281
     1
  3
ACAD_ROUNDTRIP_2008_TABLESTYLE_CELLSTYLEMAP
360
2F4
  0
CELLSTYLEMAP
  5
2F4
102
{ACAD_REACTORS
330
5A
102
}
330
5A
100
AcDbCellStyleMap
 90
        3
300
CELLSTYLE
  1
TABLEFORMAT_BEGIN
 90
        5
170
     1
 91
        0
 92
    32768
 62
   257
 93
        1
300
CONTENTFORMAT
  1
CONTENTFORMAT_BEGIN
 90
        0
 91
        0
 92
        4
 93
        0
300

 40
0.0
140
1.0
 94
        5
 62
     0
340
20
144
0.25
309
CONTENTFORMAT_END
171
     1
301
MARGIN
  1
CELLMARGIN_BEGIN
 40
0.06
 40
0.06
 40
0.06
 40
0.06
 40
0.18
 40
0.18
309
CELLMARGIN_END
 94
        6
 95
        1
302
GRIDFORMAT
  1
GRIDFORMAT_BEGIN
 90
        0
 91
        1
 62
     0
 92
       -2
340
0
 93
        0
 40
0.045
309
GRIDFORMAT_END
 95
        2
302
GRIDFORMAT
  1
GRIDFORMAT_BEGIN
 90
        0
 91
        1
 62
     0
 92
       -2
340
0
 93
        0
 40
0.045
309
GRIDFORMAT_END
 95
        4
302
GRIDFORMAT
  1
GRIDFORMAT_BEGIN
 90
        0
 91
        1
 62
     0
 92
       -2
340
0
 93
        0
 40
0.045
309
GRIDFORMAT_END
 95
        8
302
GRIDFORMAT
  1
GRIDFORMAT_BEGIN
 90
        0
 91
        1
 62
     0
 92
       -2
340
0
 93
        0
 40
0.045
309
GRIDFORMAT_END
 95
       16
302
GRIDFORMAT
  1
GRIDFORMAT_BEGIN
 90
        0
 91
        1
 62
     0
 92
       -2
340
0
 93
        0
 40
0.045
309
GRIDFORMAT_END
 95
       32
302
GRIDFORMAT
  1
GRIDFORMAT_BEGIN
 90
        0
 91
        1
 62
     0
 92
       -2
340
0
 93
        0
 40
0.045
309
GRIDFORMAT_END
309
TABLEFORMAT_END
  1
CELLSTYLE_BEGIN
 90
        1
 91
        1
300
_TITLE
309
CELLSTYLE_END
300
CELLSTYLE
  1
TABLEFORMAT_BEGIN
 90
        5
170
     1
 91
        0
 92
        0
 62
   257
 93
        1
300
CONTENTFORMAT
  1
CONTENTFORMAT_BEGIN
 90
        0
 91
        0
 92
        4
 93
        0
300

 40
0.0
140
1.0
 94
        5
 62
     0
340
20
144
0.18
309
CONTENTFORMAT_END
171
     1
301
MARGIN
  1
CELLMARGIN_BEGIN
 40
0.06
 40
0.06
 40
0.06
 40
0.06
 40
0.18
 40
0.18
309
CELLMARGIN_END
 94
        6
 95
        1
302
GRIDFORMAT
  1
GRIDFORMAT_BEGIN
 90
        0
 91
        1
 62
     0
 92
       -2
340
0
 93
        0
 40
0.045
309
GRIDFORMAT_END
 95
        2
302
GRIDFORMAT
  1
GRIDFORMAT_BEGIN
 90
        0
 91
        1
 62
     0
 92
       -2
340
0
 93
        0
 40
0.045
309
GRIDFORMAT_END
 95
        4
302
GRIDFORMAT
  1
GRIDFORMAT_BEGIN
 90
        0
 91
        1
 62
     0
 92
       -2
340
0
 93
        0
 40
0.045
309
GRIDFORMAT_END
 95
        8
302
GRIDFORMAT
  1
GRIDFORMAT_BEGIN
 90
        0
 91
        1
 62
     0
 92
       -2
340
0
 93
        0
 40
0.045
309
GRIDFORMAT_END
 95
       16
302
GRIDFORMAT
  1
GRIDFORMAT_BEGIN
 90
        0
 91
        1
 62
     0
 92
       -2
340
0
 93
        0
 40
0.045
309
GRIDFORMAT_END
 95
       32
302
GRIDFORMAT
  1
GRIDFORMAT_BEGIN
 90
        0
 91
        1
 62
     0
 92
       -2
340
0
 93
        0
 40
0.045
309
GRIDFORMAT_END
309
TABLEFORMAT_END
  1
CELLSTYLE_BEGIN
 90
        2
 91
        1
300
_HEADER
309
CELLSTYLE_END
300
CELLSTYLE
  1
TABLEFORMAT_BEGIN
 90
        5
170
     1
 91
        0
 92
        0
 62
   257
 93
        1
300
CONTENTFORMAT
  1
CONTENTFORMAT_BEGIN
 90
        0
 91
        0
 92
        4
 93
        0
300

 40
0.0
140
1.0
 94
        2
 62
     0
340
20
144
0.18
309
CONTENTFORMAT_END
171
     1
301
MARGIN
  1
CELLMARGIN_BEGIN
 40
0.06
 40
0.06
 40
0.06
 40
0.06
 40
0.18
 40
0.18
309
CELLMARGIN_END
 94
        6
 95
        1
302
GRIDFORMAT
  1
GRIDFORMAT_BEGIN
 90
        0
 91
        1
 62
     0
 92
       -2
340
0
 93
        0
 40
0.045
309
GRIDFORMAT_END
 95
        2
302
GRIDFORMAT
  1
GRIDFORMAT_BEGIN
 90
        0
 91
        1
 62
     0
 92
       -2
340
0
 93
        0
 40
0.045
309
GRIDFORMAT_END
 95
        4
302
GRIDFORMAT
  1
GRIDFORMAT_BEGIN
 90
        0
 91
        1
 62
     0
 92
       -2
340
0
 93
        0
 40
0.045
309
GRIDFORMAT_END
 95
        8
302
GRIDFORMAT
  1
GRIDFORMAT_BEGIN
 90
        0
 91
        1
 62
     0
 92
       -2
340
0
 93
        0
 40
0.045
309
GRIDFORMAT_END
 95
       16
302
GRIDFORMAT
  1
GRIDFORMAT_BEGIN
 90
        0
 91
        1
 62
     0
 92
       -2
340
0
 93
        0
 40
0.045
309
GRIDFORMAT_END
 95
       32
302
GRIDFORMAT
  1
GRIDFORMAT_BEGIN
 90
        0
 91
        1
 62
     0
 92
       -2
340
0
 93
        0
 40
0.045
309
GRIDFORMAT_END
309
TABLEFORMAT_END
  1
CELLSTYLE_BEGIN
 90
        3
 91
        2
300
_DATA
309
CELLSTYLE_END
  0
ENDSEC
  0
SECTION
  2
ACDSDATA
 70
     2
 71
     8
  0
ACDSSCHEMA
 90
        0
  1
AcDb_Thumbnail_Schema
  2
AcDbDs::ID
280
    10
 91
        8
  2
Thumbnail_Data
280
    15
 91
        0
101
ACDSRECORD
 95
        0
 90
        1
  2
AcDbDs::TreatedAsObjectData
280
     1
291
     1
101
ACDSRECORD
 95
        0
 90
        2
  2
AcDbDs::Legacy
280
     1
291
     1
101
ACDSRECORD
  1
AcDbDs::ID
 90
        3
  2
AcDs:Indexable
280
     1
291
     1
101
ACDSRECORD
  1
AcDbDs::ID
 90
        4
  2
AcDbDs::HandleAttribute
280
     7
282
     1
  0
ACDSSCHEMA
 90
        1
  1
AcDbDs::TreatedAsObjectDataSchema
  2
AcDbDs::TreatedAsObjectData
280
     1
 91
        0
  0
ACDSSCHEMA
 90
        2
  1
AcDbDs::LegacySchema
  2
AcDbDs::Legacy
280
     1
 91
        0
  0
ACDSSCHEMA
 90
        3
  1
AcDbDs::IndexedPropertySchema
  2
AcDs:Indexable
280
     1
 91
        0
  0
ACDSSCHEMA
 90
        4
  1
AcDbDs::HandleAttributeSchema
  2
AcDbDs::HandleAttribute
280
     7
 91
        1
284
     1
  0
ACDSRECORD
 90
        0
  2
AcDbDs::ID
280
    10
320
10
  2
Thumbnail_Data
280
    15
 94
     2542
310
89504E470D0A1A0A0000000D49484452000001000000007408030000005D681C3700000300504C5445212830000000FFFFFF0000000000000000000000000000000000000000000000000000330000660000990000CC0000FF0033000033330033660033990033CC0033FF0066000066330066660066990066CC0066FF0099
310
000099330099660099990099CC0099FF00CC0000CC3300CC6600CC9900CCCC00CCFF00FF0000FF3300FF6600FF9900FFCC00FFFF3300003300333300663300993300CC3300FF3333003333333333663333993333CC3333FF3366003366333366663366993366CC3366FF3399003399333399663399993399CC3399FF33CC00
310
33CC3333CC6633CC9933CCCC33CCFF33FF0033FF3333FF6633FF9933FFCC33FFFF6600006600336600666600996600CC6600FF6633006633336633666633996633CC6633FF6666006666336666666666996666CC6666FF6699006699336699666699996699CC6699FF66CC0066CC3366CC6666CC9966CCCC66CCFF66FF0066
310
FF3366FF6666FF9966FFCC66FFFF9900009900339900669900999900CC9900FF9933009933339933669933999933CC9933FF9966009966339966669966999966CC9966FF9999009999339999669999999999CC9999FF99CC0099CC3399CC6699CC9999CCCC99CCFF99FF0099FF3399FF6699FF9999FFCC99FFFFCC0000CC00
310
33CC0066CC0099CC00CCCC00FFCC3300CC3333CC3366CC3399CC33CCCC33FFCC6600CC6633CC6666CC6699CC66CCCC66FFCC9900CC9933CC9966CC9999CC99CCCC99FFCCCC00CCCC33CCCC66CCCC99CCCCCCCCCCFFCCFF00CCFF33CCFF66CCFF99CCFFCCCCFFFFFF0000FF0033FF0066FF0099FF00CCFF00FFFF3300FF3333
310
FF3366FF3399FF33CCFF33FFFF6600FF6633FF6666FF6699FF66CCFF66FFFF9900FF9933FF9966FF9999FF99CCFF99FFFFCC00FFCC33FFCC66FFCC99FFCCCCFFCCFFFFFF00FFFF33FFFF66FFFF99FFFFCCFFFFFF0000000D0D0D1A1A1A2828283535354343435050505D5D5D6B6B6B787878868686939393A1A1A1AEAEAEBB
310
BBBBC9C9C9D6D6D6E4E4E4F1F1F1FFFFFF0000000000000000000000000000000000000000000000000000000000007BFF0FCC000006A94944415478DAE59D5762C3200C407521DDFF8F9F5EC3D7D07F3D18620883CD4A42EB365113C73C6B8271018A1BEDDFAE6D74080E29F1668408BD1AE90D006D339F6E05FAB5C8DFA4
310
DF05F6A8E1FA5107C03EF10018E16800740700BF1C80698A940640AEF7BF04004F00ECF92D0067B30F00A8140035CD046C5FF0EA1003E04E4D00406EE7BB39C4A501600C00C5379503B00CA2B6EF5F9D2D04A0856301302BD83FEFF84C04C0B02F6900A209B8FE673580473CAB015CD88F4012C079BC6401E0AD063CF6017E
310
1EA09279801200C44EEA3500A7B167B72F00894FE804405D71C709D1F8A5B4019D07DA168007D80038DDE3431F50020034809D80D300271CAA01C18EC1A802DE3BC1F71A70763E165E7E608C0FD000B4F21DA7FD7AA0D0EF5A4300DBF1BD5D7DD5FBDDAEBE6B005A3A0BC0A901475EE4E95A39001603F31AC092C294702C00
310
DFB4ACC7C903B84B84D27900791E2F164E011039C3E8186200F93C40D28084DE491E0DD37801BB4481A002600E5104F0C807F00742AC2B6BED0024F68546FC0440DE0780F6305A03F6321475F6AD85EC21422610AE0B00E0FEF4296501280D80F65240EFEBAC0A3A3A816600440F72E3030EB7670098D873845FA701484300
310
A49DAF2FA61B00A106906F02BECD1A2426D8F8052886FE0F7B6782220064F5711D003D9E50620662708CC324EBB63CD8B004807347F25932A685EE0C63F284E3CD60432B005B1AC0E65564A42BE5A23C201B159D015C243400C472008D7DC0668781361F8091E3A66DBAC609DEE657BAEB4B00301F1600B06DA3FA2890EDFF
310
55677E33805CEEE6C2C1F700888C3E97B822EFEB3200545B00B785E26200F65474FFC68D0F8D6EAE1AB6F226008278381F00A5358015EA6D356039009B3714E74C8062798B309807C0921BFC4D006C1CA62F81FB4CB03700970999E8186AC078009E136400324EB07E62240F608E066CE6077800CC38B5953799181101CCF2
310
01AFC603DE03000300421300FC08006D4D8007BF412650FBA65E002036816100A4D18548DC14001F02098AA3D10096D0009CA801AF00B48902EC821A3D3F8FA3A240E24F727B9207944FF3E0C839A22200DBD57200EE4DA0209C4930CA9DC94300C1EC7704C0BB620D1ECE0D96F4C4D380DAB94F736D4F07000526005D4CA0
310
D61A1A0308CC9B0832008A551B64AB95FADCDD04723E0028BA96831E0C88A09E01683BB7DD0A40DA9D3AF30F3B5F01E04FB738A3ED40E0850954B64A0DD83BF9C73BEA2EB95803C0F30CA27C370701EF40994378D4539B2C219F615818001E66100E82A5CC00DD0BC488E8BB4A7898368C03701CD55FD4624F681F7A1D02CE
310
408EA860BEE668C06D2AEC9BC06113BE2A471A00F5A9EE9A26A08FFC0F95B71401FF0407ABF4F6A0299A1C05C472FF02A097403000C0B7EBC1F12AFD4A48BF4216A8D2F3C954A951399C0983BAC88F7D40AFE2763500A04739CE72D26DDE9376825501ECBF36751CA332DBFEE4DC1A0BE60210ABE013C0521AD07A482C1306
310
CD55304301F897E8627C48AD35000A342034812D54DF16024FC9A5EC81CB460098A40198D1009CA1012B9940731F00373E00A528008D055E562C8D3A218C05701D0203B085F6DB4EC007486DB18D10961A0301984A6E6618E4A5289E5B7B00D9988BB301242E3A1F960760DE070CC904918242AC0A40D9AAB1A535E02F1E9C
310
806100EC8AB3084017411A403C1AD51E402E0CE26413C8746ACCAAB1E58AA1910056F001155363CD97CDB97C7429134800E8B16CCE2F8793992034167400F07CD99C3F6DBFBA09F402B086139447625B2D9B2B180F98E903CA00C08B3543722A0C9F62029D96CDD9FB31FD0280FCBCC0EA61B0D7AA315C7062A40C005F35C6
310
0054AF1A336353CAAE0C3F7741FA1E3D8D05AF00C8CBE6F0F9B23977A708EF58F9EF8682577900E89BB8A597CDE5D70CD18BABC5A7B646ABC65A1E913C233F0A80BE91E44F028070D8F0273500856573283BC16F00C0878EDDB53644BFA201FACE7DD765F17C5CE492108F715D014C8B02FE2D6B2A0744BE0040B799A18666
310
D0A541A36573CD4FCBDD9FE8D9AE28A901A97BD94977B89B0E80DF78BF1500616F92EF1D0B804804B0E51B7BBDDD4FE8D108020FBF1C009A08609E134C3BC27E00968B025224E810205605201DAD1005A8D4897E481E60AE03379735C41A107559BC92FD3301B8C58A5900CC94050077C5C4E226003E0408FF9D470200D137
310
02A0DF030092C7FE9528E0676241255A1505A82415FE24004214106382D39BCF03902F8604CBF81100F402007D370022905D27F07F09B6BE137C3858740F808057481F560BA49D603180CF2F868254B83E0CDA94FA0B34C037E7DAC4E7C3342059F63DD180D23058B378DAB47F8F4D14378ED218B80000000049454E44AE42
310
6082
  0
ENDSEC
  0
EOF
