  0
SECTION
  2
HEADER
  9
$ACADVER
  1
AC1032
  9
$ACADMAINTVER
 90
      248
  9
$DWGCODEPAGE
  3
ANSI_936
  9
$REQUIREDVERSIONS
160
                 0
  9
$INSBASE
 10
0.0
 20
0.0
 30
0.0
  9
$EXTMIN
 10
-166.7559303934937
 20
-111.4908763448728
 30
0.0
  9
$EXTMAX
 10
-48.00679180089028
 20
-17.40109191035304
 30
0.0
  9
$LIMMIN
 10
0.0
 20
0.0
  9
$LIMMAX
 10
12.0
 20
9.0
  9
$ORTHOMODE
 70
     0
  9
$REGENMODE
 70
     1
  9
$FILLMODE
 70
     1
  9
$QTEXTMODE
 70
     0
  9
$MIRRTEXT
 70
     0
  9
$LTSCALE
 40
0.8
  9
$ATTMODE
 70
     1
  9
$TEXTSIZE
 40
0.2
  9
$TRACEWID
 40
0.05
  9
$TEXTSTYLE
  7
Standard
  9
$CLAYER
  8
1D
  9
$CELTYPE
  6
BYLAYER
  9
$CECOLOR
 62
   256
  9
$CELTSCALE
 40
1.0
  9
$DISPSILH
 70
     0
  9
$DIMSCALE
 40
1.0
  9
$DIMASZ
 40
0.5600000000000001
  9
$DIMEXO
 40
0.17
  9
$DIMDLI
 40
0.38
  9
$DIMRND
 40
0.0
  9
$DIMDLE
 40
0.0
  9
$DIMEXE
 40
0.17
  9
$DIMTP
 40
0.038
  9
$DIMTM
 40
0.025
  9
$DIMTXT
 40
0.5600000000000001
  9
$DIMCEN
 40
0.25
  9
$DIMTSZ
 40
0.0
  9
$DIMTOL
 70
     0
  9
$DIMLIM
 70
     0
  9
$DIMTIH
 70
     0
  9
$DIMTOH
 70
     0
  9
$DIMSE1
 70
     0
  9
$DIMSE2
 70
     0
  9
$DIMTAD
 70
     0
  9
$DIMZIN
 70
     4
  9
$DIMBLK
  1

  9
$DIMASO
 70
     0
  9
$DIMSHO
 70
     1
  9
$DIMPOST
  1

  9
$DIMAPOST
  1

  9
$DIMALT
 70
     0
  9
$DIMALTD
 70
     2
  9
$DIMALTF
 40
25.4
  9
$DIMLFAC
 40
1.0
  9
$DIMTOFL
 70
     0
  9
$DIMTVP
 40
0.0
  9
$DIMTIX
 70
     0
  9
$DIMSOXD
 70
     0
  9
$DIMSAH
 70
     0
  9
$DIMBLK1
  1

  9
$DIMBLK2
  1

  9
$DIMSTYLE
  2
Standard
  9
$DIMCLRD
 70
     0
  9
$DIMCLRE
 70
     0
  9
$DIMCLRT
 70
     0
  9
$DIMTFAC
 40
0.8
  9
$DIMGAP
 40
0.17
  9
$DIMJUST
 70
     0
  9
$DIMSD1
 70
     0
  9
$DIMSD2
 70
     0
  9
$DIMTOLJ
 70
     1
  9
$DIMTZIN
 70
     4
  9
$DIMALTZ
 70
     0
  9
$DIMALTTZ
 70
     0
  9
$DIMUPT
 70
     0
  9
$DIMDEC
 70
     3
  9
$DIMTDEC
 70
     3
  9
$DIMALTU
 70
     2
  9
$DIMALTTD
 70
     2
  9
$DIMTXSTY
  7
SIMPLEX
  9
$DIMAUNIT
 70
     0
  9
$DIMADEC
 70
     0
  9
$DIMALTRND
 40
0.0
  9
$DIMAZIN
 70
     0
  9
$DIMDSEP
 70
    46
  9
$DIMATFIT
 70
     3
  9
$DIMFRAC
 70
     0
  9
$DIMLDRBLK
  1

  9
$DIMLUNIT
 70
     2
  9
$DIMLWD
 70
    -2
  9
$DIMLWE
 70
    -2
  9
$DIMTMOVE
 70
     0
  9
$DIMFXL
 40
1.0
  9
$DIMFXLON
 70
     0
  9
$DIMJOGANG
 40
0.7853981633974483
  9
$DIMTFILL
 70
     0
  9
$DIMTFILLCLR
 70
     0
  9
$DIMARCSYM
 70
     0
  9
$DIMLTYPE
  6

  9
$DIMLTEX1
  6

  9
$DIMLTEX2
  6

  9
$DIMTXTDIRECTION
 70
     0
  9
$LUNITS
 70
     2
  9
$LUPREC
 70
     8
  9
$SKETCHINC
 40
0.1
  9
$FILLETRAD
 40
0.0
  9
$AUNITS
 70
     0
  9
$AUPREC
 70
     0
  9
$MENU
  1
.
  9
$ELEVATION
 40
0.0
  9
$PELEVATION
 40
0.0
  9
$THICKNESS
 40
0.0
  9
$LIMCHECK
 70
     0
  9
$CHAMFERA
 40
0.0
  9
$CHAMFERB
 40
0.0
  9
$CHAMFERC
 40
0.6240000000000001
  9
$CHAMFERD
 40
0.5235987755982988
  9
$SKPOLY
 70
     0
  9
$TDCREATE
 40
2452836.450532408
  9
$TDUCREATE
 40
2452836.117205243
  9
$TDUPDATE
 40
2460607.483020833
  9
$TDUUPDATE
 40
2460607.149687501
  9
$TDINDWG
 40
2.4046053241
  9
$TDUSRTIMER
 40
2.4043968403
  9
$USRTIMER
 70
     1
  9
$ANGBASE
 50
0.0
  9
$ANGDIR
 70
     0
  9
$PDMODE
 70
     0
  9
$PDSIZE
 40
0.0
  9
$PLINEWID
 40
0.0
  9
$SPLFRAME
 70
     0
  9
$SPLINETYPE
 70
     6
  9
$SPLINESEGS
 70
     8
  9
$HANDSEED
  5
153
  9
$SURFTAB1
 70
     6
  9
$SURFTAB2
 70
     6
  9
$SURFTYPE
 70
     6
  9
$SURFU
 70
     6
  9
$SURFV
 70
     6
  9
$UCSBASE
  2

  9
$UCSNAME
  2

  9
$UCSORG
 10
0.0
 20
0.0
 30
0.0
  9
$UCSXDIR
 10
1.0
 20
0.0
 30
0.0
  9
$UCSYDIR
 10
0.0
 20
1.0
 30
0.0
  9
$UCSORTHOREF
  2

  9
$UCSORTHOVIEW
 70
     0
  9
$UCSORGTOP
 10
0.0
 20
0.0
 30
0.0
  9
$UCSORGBOTTOM
 10
0.0
 20
0.0
 30
0.0
  9
$UCSORGLEFT
 10
0.0
 20
0.0
 30
0.0
  9
$UCSORGRIGHT
 10
0.0
 20
0.0
 30
0.0
  9
$UCSORGFRONT
 10
0.0
 20
0.0
 30
0.0
  9
$UCSORGBACK
 10
0.0
 20
0.0
 30
0.0
  9
$PUCSBASE
  2

  9
$PUCSNAME
  2

  9
$PUCSORG
 10
0.0
 20
0.0
 30
0.0
  9
$PUCSXDIR
 10
1.0
 20
0.0
 30
0.0
  9
$PUCSYDIR
 10
0.0
 20
1.0
 30
0.0
  9
$PUCSORTHOREF
  2

  9
$PUCSORTHOVIEW
 70
     0
  9
$PUCSORGTOP
 10
0.0
 20
0.0
 30
0.0
  9
$PUCSORGBOTTOM
 10
0.0
 20
0.0
 30
0.0
  9
$PUCSORGLEFT
 10
0.0
 20
0.0
 30
0.0
  9
$PUCSORGRIGHT
 10
0.0
 20
0.0
 30
0.0
  9
$PUCSORGFRONT
 10
0.0
 20
0.0
 30
0.0
  9
$PUCSORGBACK
 10
0.0
 20
0.0
 30
0.0
  9
$USERI1
 70
     0
  9
$USERI2
 70
     0
  9
$USERI3
 70
     0
  9
$USERI4
 70
     0
  9
$USERI5
 70
     0
  9
$USERR1
 40
0.0
  9
$USERR2
 40
0.0
  9
$USERR3
 40
0.0
  9
$USERR4
 40
0.0
  9
$USERR5
 40
0.0
  9
$WORLDVIEW
 70
     1
  9
$SHADEDGE
 70
     3
  9
$SHADEDIF
 70
    70
  9
$TILEMODE
 70
     1
  9
$MAXACTVP
 70
    48
  9
$PINSBASE
 10
0.0
 20
0.0
 30
0.0
  9
$PLIMCHECK
 70
     0
  9
$PEXTMIN
 10
1.000000000000000E+20
 20
1.000000000000000E+20
 30
1.000000000000000E+20
  9
$PEXTMAX
 10
-1.000000000000000E+20
 20
-1.000000000000000E+20
 30
-1.000000000000000E+20
  9
$PLIMMIN
 10
0.0
 20
0.0
  9
$PLIMMAX
 10
12.0
 20
9.0
  9
$UNITMODE
 70
     0
  9
$VISRETAIN
 70
     1
  9
$PLINEGEN
 70
     0
  9
$PSLTSCALE
 70
     1
  9
$TREEDEPTH
 70
  3020
  9
$CMLSTYLE
  2
STANDARD
  9
$CMLJUST
 70
     0
  9
$CMLSCALE
 40
1.0
  9
$PROXYGRAPHICS
 70
     1
  9
$MEASUREMENT
 70
     0
  9
$CELWEIGHT
370
    -1
  9
$ENDCAPS
280
     0
  9
$JOINSTYLE
280
     0
  9
$LWDISPLAY
290
     0
  9
$INSUNITS
 70
     0
  9
$HYPERLINKBASE
  1

  9
$STYLESHEET
  1

  9
$XEDIT
290
     1
  9
$CEPSNTYPE
380
     0
  9
$PSTYLEMODE
290
     1
  9
$FINGERPRINTGUID
  2
{9F4ACE2E-79C0-4444-8C3A-AB44F2E1045C}
  9
$VERSIONGUID
  2
{662D0C48-A3B5-44ED-8AD1-2D30035A8C37}
  9
$EXTNAMES
290
     1
  9
$PSVPSCALE
 40
0.0
  9
$OLESTARTUP
290
     0
  9
$SORTENTS
280
   127
  9
$INDEXCTL
280
     0
  9
$HIDETEXT
280
     1
  9
$XCLIPFRAME
280
     2
  9
$HALOGAP
280
     0
  9
$OBSCOLOR
 70
   257
  9
$OBSLTYPE
280
     0
  9
$INTERSECTIONDISPLAY
280
     0
  9
$INTERSECTIONCOLOR
 70
   257
  9
$DIMASSOC
280
     0
  9
$PROJECTNAME
  1

  9
$CAMERADISPLAY
290
     0
  9
$LENSLENGTH
 40
50.0
  9
$CAMERAHEIGHT
 40
0.0
  9
$STEPSPERSEC
 40
2.0
  9
$STEPSIZE
 40
6.0
  9
$3DDWFPREC
 40
2.0
  9
$PSOLWIDTH
 40
0.25
  9
$PSOLHEIGHT
 40
4.0
  9
$LOFTANG1
 40
1.570796326794896
  9
$LOFTANG2
 40
1.570796326794896
  9
$LOFTMAG1
 40
0.0
  9
$LOFTMAG2
 40
0.0
  9
$LOFTPARAM
 70
     7
  9
$LOFTNORMALS
280
     1
  9
$LATITUDE
 40
37.795
  9
$LONGITUDE
 40
-122.394
  9
$NORTHDIRECTION
 40
0.0
  9
$TIMEZONE
 70
 -8000
  9
$LIGHTGLYPHDISPLAY
280
     1
  9
$TILEMODELIGHTSYNCH
280
     1
  9
$CMATERIAL
347
34
  9
$SOLIDHIST
280
     0
  9
$SHOWHIST
280
     1
  9
$DWFFRAME
280
     2
  9
$DGNFRAME
280
     0
  9
$REALWORLDSCALE
290
     1
  9
$INTERFERECOLOR
 62
     1
  9
$INTERFEREOBJVS
345
5E
  9
$INTERFEREVPVS
346
5F
  9
$CSHADOW
280
     0
  9
$SHADOWPLANELOCATION
 40
0.0
  0
ENDSEC
  0
SECTION
  2
CLASSES
  0
CLASS
  1
ACDBDICTIONARYWDFLT
  2
AcDbDictionaryWithDefault
  3
ObjectDBX Classes
 90
        0
 91
        1
280
     0
281
     0
  0
CLASS
  1
DICTIONARYVAR
  2
AcDbDictionaryVar
  3
ObjectDBX Classes
 90
        0
 91
       14
280
     0
281
     0
  0
CLASS
  1
ACME_DOCUMENT
  2
AcMeDbDoc
  3
AcMeServices
 90
        0
 91
        0
280
     1
281
     0
  0
CLASS
  1
AMGSETTINGSOBJ
  2
AmgSettingsObj
  3
"AcadM|Product Description: AutoCAD Mechanical 2000|Company: Autodesk"
 90
        0
 91
        0
280
     1
281
     0
  0
CLASS
  1
ACMESCOPE
  2
AcMeScope
  3
AcMeServices
 90
        0
 91
        0
280
     1
281
     0
  0
CLASS
  1
ACMECOMMANDHISTORY
  2
AcMeCommandHistory
  3
AcMeServices
 90
        0
 91
        0
280
     1
281
     0
  0
CLASS
  1
ACIMSYSVARMAN
  2
AcImSysVarManager
  3
AcMeServices
 90
        0
 91
        0
280
     1
281
     0
  0
CLASS
  1
ACIMREALSYSVAR
  2
AcImRealSysVar
  3
AcMeServices
 90
        0
 91
        0
280
     1
281
     0
  0
CLASS
  1
ACIMINTSYSVAR
  2
AcImIntSysVar
  3
AcMeServices
 90
        0
 91
        0
280
     1
281
     0
  0
CLASS
  1
ACMEDRAWINGMAN
  2
AcMeDrawingMan
  3
AcMeServices
 90
        0
 91
        0
280
     1
281
     0
  0
CLASS
  1
ACMEVIEW
  2
AcMeView
  3
AcMeServices
 90
        0
 91
        0
280
     1
281
     0
  0
CLASS
  1
ACDBENTITYCACHE
  2
AcMeEntityCache
  3
AcMeServices
 90
        0
 91
        0
280
     1
281
     0
  0
CLASS
  1
GSMANAGER
  2
AcMeGSManager
  3
AcMeServices
 90
        0
 91
        0
280
     1
281
     0
  0
CLASS
  1
AMDTINTERNALREACTOR
  2
AmdtInternalReactor
  3
AcMeServices
 90
        0
 91
        0
280
     1
281
     0
  0
CLASS
  1
ACMESTATEMGR
  2
AcMeStateMgr
  3
AcMeServices
 90
        0
 91
        0
280
     1
281
     0
  0
CLASS
  1
ACGREFMASTER
  2
AcGrefMaster
  3
AcAttribServices
 90
        0
 91
        0
280
     1
281
     0
  0
CLASS
  1
AM_DRAWING_MGR
  2
AcDmDwgMgr
  3
AcMechDwgViewMgmt
 90
        0
 91
        0
280
     1
281
     0
  0
CLASS
  1
AM_DWG_DOCUMENT
  2
AcDmDwgDocument
  3
AcMechDwgViewMgmt
 90
        0
 91
        0
280
     1
281
     0
  0
CLASS
  1
AM_DWG_SHEET
  2
AcDmSheet
  3
AcMechDwgViewMgmt
 90
        0
 91
        0
280
     1
281
     0
  0
CLASS
  1
AM_VIEWDIMPARMAP
  2
AcDmViewDimParMap
  3
AcMechDwgViewMgmt
 90
        0
 91
        0
280
     1
281
     0
  0
CLASS
  1
AM_DWGMGR_NAME
  2
AcDmDwgMgrName
  3
AcMechDwgViewMgmt
 90
        0
 91
        0
280
     1
281
     0
  0
CLASS
  1
ACME_DATABASE
  2
AcMeDbDatabase
  3
AcMeServices
 90
        0
 91
        0
280
     1
281
     0
  0
CLASS
  1
ACRFINSADJUSTERMGR
  2
AcRfInsAdjusterMgr
  3
AcMeServices
 90
        0
 91
        0
280
     1
281
     0
  0
CLASS
  1
ACGREFMASTER
  2
AcGrefacadMaster
  3
AcGrefServices
 90
        0
 91
        0
280
     1
281
     0
  0
CLASS
  1
AMDTMENUSTATEMGR
  2
AmdtMenuStateMgr
  3
McadcomServices
 90
        0
 91
        0
280
     1
281
     0
  0
CLASS
  1
AMDTMCOMMENUSTATE
  2
AmdtMcomMenuState
  3
McadcomServices
 90
        0
 91
        0
280
     1
281
     0
  0
CLASS
  1
AMIMASTER
  2
AmiMaster
  3
AmiServices
 90
        0
 91
        0
280
     1
281
     0
  0
CLASS
  1
ASAPP
  2
AcAsAppObject
  3
AutoSurfServices
 90
        0
 91
        0
280
     1
281
     0
  0
CLASS
  1
IM_STATIC_MAN
  2
AcImStaticVarManager
  3
AcMeServices
 90
        0
 91
        0
280
     1
281
     0
  0
CLASS
  1
ACIMSTRSYSVAR
  2
AcImStrSysVar
  3
AcMeServices
 90
        0
 91
        0
280
     1
281
     0
  0
CLASS
  1
ACIMDBLSTATICVAR
  2
AcImDblStaticVar
  3
AcMeServices
 90
        0
 91
        0
280
     1
281
     0
  0
CLASS
  1
ACIMSTRSTATICVAR
  2
AcImStrStaticVar
  3
AcMeServices
 90
        0
 91
        0
280
     1
281
     0
  0
CLASS
  1
ACIMINTSTATICVAR
  2
AcImIntStaticVar
  3
AcMeServices
 90
        0
 91
        0
280
     1
281
     0
  0
CLASS
  1
ACASGREFMASTER
  2
AcAsGrefMaster
  3
AutoSurfResolverServices
 90
        0
 91
        0
280
     1
281
     0
  0
CLASS
  1
ACADGREFMODULE
  2
AcAdGrefModule
  3
AdGrefServices
 90
        0
 91
        0
280
     1
281
     0
  0
CLASS
  1
AMDTMAPISURFMOUDULE
  2
AmdtMApiSurfModule
  3
MApiSurfServices
 90
        0
 91
        0
280
     1
281
     0
  0
CLASS
  1
MAPIAMMOUDLE
  2
MApiAmModule
  3
MApiAmServices
 90
        0
 91
        0
280
     1
281
     0
  0
CLASS
  1
AMDTADMENUSTATE
  2
AmdtAdMenuState
  3
DesignerServices
 90
        0
 91
        0
280
     1
281
     0
  0
CLASS
  1
ADAPPL
  2
AcAdAppl
  3
DesignerServices
 90
        0
 91
        0
280
     1
281
     0
  0
CLASS
  1
DEPMGR
  2
AcAdDepMgr
  3
DesignerServices
 90
        0
 91
        0
280
     1
281
     0
  0
CLASS
  1
PARAMMGR
  2
AcAdParamMgr
  3
DesignerServices
 90
        0
 91
        0
280
     1
281
     0
  0
CLASS
  1
PARAMSCOPE
  2
AcAdParamScope
  3
DesignerServices
 90
        0
 91
        0
280
     1
281
     0
  0
CLASS
  1
NAMEDAPPL
  2
AcAdNamedAppl
  3
DesignerServices
 90
        0
 91
        0
280
     1
281
     0
  0
CLASS
  1
ADHNTMPLT
  2
AdHoleNoteTemplateMgr
  3
DesignerServices
 90
        0
 91
        0
280
     1
281
     0
  0
CLASS
  1
AM_HNTEMPLATE_MGR_NAME
  2
AdHoleNoteTemplateMgrName
  3
DesignerServices
 90
        0
 91
        0
280
     1
281
     0
  0
CLASS
  1
AMDTDMMENUSTATE
  2
AmdtDmMenuState
  3
AcMechDwgViewMgmt
 90
        0
 91
        0
280
     1
281
     0
  0
CLASS
  1
MAPIADMODULE
  2
MApiAdModule
  3
MApiAdServices
 90
        0
 91
        0
280
     1
281
     0
  0
CLASS
  1
AMDTAMMENUSTATE
  2
AmdtAmMenuState
  3
DesignerAssemblies
 90
        0
 91
        0
280
     1
281
     0
  0
CLASS
  1
ACAMPROJECT
  2
AcAmProject
  3
DesignerAssemblies
 90
        0
 91
        0
280
     1
281
     0
  0
CLASS
  1
ACAMGRCOMPDEF
  2
AcAmGrCompDef
  3
DesignerAssemblies
 90
        0
 91
        0
280
     1
281
     0
  0
CLASS
  1
ACCMCONTEXT
  2
AcCmContext
  3
DesignerAssemblies
 90
        0
 91
        0
280
     1
281
     0
  0
CLASS
  1
ACAMCOMPDEF
  2
AcAmCompDef
  3
DesignerAssemblies
 90
        0
 91
        0
280
     1
281
     0
  0
CLASS
  1
ACAMCOMPDEFMGR
  2
AcAmCompDefMgr
  3
DesignerAssemblies
 90
        0
 91
        0
280
     1
281
     0
  0
CLASS
  1
AMCONTEXTMGR
  2
AcAmContextMgr
  3
DesignerAssemblies
 90
        0
 91
        0
280
     1
281
     0
  0
CLASS
  1
ACAMCONTEXTMODELER
  2
AcAmContextModeler
  3
DesignerAssemblies
 90
        0
 91
        0
280
     1
281
     0
  0
CLASS
  1
ACMDATADICTIONARY
  2
AcmDataDictionary
  3
"AcmSymBB|Product Description: AutoCAD Mechanical 2000|Company: Autodesk"
 90
        0
 91
        0
280
     1
281
     0
  0
CLASS
  1
ACMDATAENTRYBLOCK
  2
AcmDataEntryBlock
  3
"AcmSymBB|Product Description: AutoCAD Mechanical 2000|Company: Autodesk"
 90
        0
 91
        0
280
     1
281
     0
  0
CLASS
  1
CATALOGSTATE
  2
AcAmCatalogState
  3
DesignerAssemblies
 90
        0
 91
        0
280
     1
281
     0
  0
CLASS
  1
ACAMGRCOMPDEFSET
  2
AcAmGrCompDefSet
  3
DesignerAssemblies
 90
        0
 91
        0
280
     1
281
     0
  0
CLASS
  1
AMDTBROWSERDBTAB
  2
AmdtBrowserDbTab
  3
McadcomServices
 90
        0
 91
        0
280
     1
281
     0
  0
CLASS
  1
CBROWSERAPPOBJECT
  2
CBrowserAppObject
  3
McadcomServices
 90
        0
 91
        0
280
     1
281
     0
  0
CLASS
  1
DM_PLACEHOLDER
  2
AcDmSelsetPlaceholder
  3
AcMechDwgViewMgmt
 90
        0
 91
        0
280
     1
281
     0
  0
CLASS
  1
ACMSTANDARDANSI
  2
AcmStandardANSI
  3
"Amdt_StdImp|Product Description: AutoCAD Mechanical 2000|Company: Autodesk"
 90
        0
 91
        0
280
     1
281
     0
  0
CLASS
  1
AMGOBJPROPCFG
  2
AmgObjPropCfg
  3
"AmgLay|Product Description: AutoCAD Mechanical 2000|Company: Autodesk"
 90
        1
 91
        0
280
     1
281
     0
  0
CLASS
  1
ACMSURFSTANDARDANSI
  2
AcmSurfTextStdANSI
  3
"Amdt_StdImp|Product Description: AutoCAD Mechanical 2000|Company: Autodesk"
 90
        0
 91
        0
280
     1
281
     0
  0
CLASS
  1
ACMFCFSTANDARDANSI
  2
AcmFCFStdANSI
  3
"Amdt_StdImp|Product Description: AutoCAD Mechanical 2000|Company: Autodesk"
 90
        0
 91
        0
280
     1
281
     0
  0
CLASS
  1
ACMWELDSTANDARDANSI
  2
AcmWeldingStdANSI
  3
"Amdt_StdImp|Product Description: AutoCAD Mechanical 2000|Company: Autodesk"
 90
        0
 91
        0
280
     1
281
     0
  0
CLASS
  1
ACMIDSTANDARDANSI
  2
AcmIdStdANSI
  3
"Amdt_StdImp|Product Description: AutoCAD Mechanical 2000|Company: Autodesk"
 90
        0
 91
        0
280
     1
281
     0
  0
CLASS
  1
ACMDATUMSTANDARDANSI
  2
AcmDatumStdANSI
  3
"Amdt_StdImp|Product Description: AutoCAD Mechanical 2000|Company: Autodesk"
 90
        0
 91
        0
280
     1
281
     0
  0
CLASS
  1
ACMBOMSTANDARDANSI
  2
AcmBOMStdANSI
  3
"Amdt_StdImp|Product Description: AutoCAD Mechanical 2000|Company: Autodesk"
 90
        0
 91
        0
280
     1
281
     0
  0
CLASS
  1
ACMDETAILSTANDARDANSI
  2
AmdtDetailSymStdANSI
  3
"Amdt_StdImp|Product Description: AutoCAD Mechanical 2000|Company: Autodesk"
 90
        0
 91
        0
280
     1
281
     0
  0
CLASS
  1
ACMSECTIONSTANDARDANSI
  2
AmdtSectionSymStdANSI
  3
"Amdt_StdImp|Product Description: AutoCAD Mechanical 2000|Company: Autodesk"
 90
        0
 91
        0
280
     1
281
     0
  0
CLASS
  1
ACMCENTERLINESTANDARDANSI
  2
AmdtCenterLineStdANSI
  3
"Amdt_StdImp|Product Description: AutoCAD Mechanical 2000|Company: Autodesk"
 90
        0
 91
        0
280
     1
281
     0
  0
CLASS
  1
ACMTHREADLINESTANDARDCSN
  2
AmdtThreadLineStdCSN
  3
"Amdt_StdImp|Product Description: AutoCAD Mechanical 2000|Company: Autodesk"
 90
        0
 91
        0
280
     1
281
     0
  0
CLASS
  1
"AcAmgLayStd"
  2
AcAmgLayStd
  3
"AcAmgLayStd|Product Description: AutoCAD Mechanical 2000|Company: Autodesk"
 90
        0
 91
        0
280
     1
281
     0
  0
CLASS
  1
"AcAmgDimStd"
  2
AcAmgDimStd
  3
"AcAmgDimStd|Product Description: AutoCAD Mechanical 2000|Company: Autodesk"
 90
        0
 91
        0
280
     1
281
     0
  0
CLASS
  1
AcAmgTitleStd
  2
AcAmgTitleStd
  3
"TITLEAPP"
 90
        0
 91
        0
280
     1
281
     0
  0
CLASS
  1
ACAMGFILTERDAT
  2
AcAmgFilterDat
  3
"AcadM|Product Description: AutoCAD Mechanical 2000|Company: Autodesk"
 90
        0
 91
        0
280
     1
281
     0
  0
CLASS
  1
LAYER_INDEX
  2
AcDbLayerIndex
  3
ObjectDBX Classes
 90
        0
 91
        0
280
     0
281
     0
  0
CLASS
  1
IDBUFFER
  2
AcDbIdBuffer
  3
ObjectDBX Classes
 90
        0
 91
        0
280
     0
281
     0
  0
CLASS
  1
ACAD_PROXY_OBJECT_WRAPPER
  2
AcDbProxyObjectWrapper
  3
ObjectDBX Classes
 90
        0
 91
        0
280
     0
281
     0
  0
CLASS
  1
IMAGE
  2
AcDbRasterImage
  3
ISM
 90
     2175
 91
        0
280
     0
281
     1
  0
CLASS
  1
RASTERVARIABLES
  2
AcDbRasterVariables
  3
ISM
 90
        0
 91
        0
280
     0
281
     0
  0
CLASS
  1
IMAGEDEF
  2
AcDbRasterImageDef
  3
ISM
 90
        0
 91
        0
280
     0
281
     0
  0
CLASS
  1
IMAGEDEF_REACTOR
  2
AcDbRasterImageDefReactor
  3
ISM
 90
        1
 91
        0
280
     0
281
     0
  0
CLASS
  1
SPATIAL_FILTER
  2
AcDbSpatialFilter
  3
ObjectDBX Classes
 90
        0
 91
        0
280
     0
281
     0
  0
CLASS
  1
SORTENTSTABLE
  2
AcDbSortentsTable
  3
ObjectDBX Classes
 90
        0
 91
        0
280
     0
281
     0
  0
CLASS
  1
SPATIAL_INDEX
  2
AcDbSpatialIndex
  3
ObjectDBX Classes
 90
        0
 91
        0
280
     0
281
     0
  0
CLASS
  1
OBJECT_PTR
  2
CAseDLPNTableRecord
  3
"ASE-LPNTableRecord"
 90
        1
 91
        0
280
     1
281
     0
  0
CLASS
  1
PLOTSETTINGS
  2
AcDbPlotSettings
  3
ObjectDBX Classes
 90
        0
 91
        0
280
     0
281
     0
  0
CLASS
  1
WIPEOUT
  2
AcDbWipeout
  3
WipeOut|Product Desc: Object Enabler for WipeOut entity | Company: Autodesk, Inc. | WEB Address: www.autodesk.com
 90
     2175
 91
        0
280
     0
281
     1
  0
CLASS
  1
WIPEOUTVARIABLES
  2
AcDbWipeoutVariables
  3
"WipeOut|Product Desc:     WipeOut Dbx Application|Company:          Autodesk, Inc.|WEB Address:      www.autodesk.com"
 90
        0
 91
        0
280
     0
281
     0
  0
CLASS
  1
RTEXT
  2
RText
  3
RText|AutoCAD Express Tool|expresstools@autodesk.com
 90
        0
 91
        0
280
     1
281
     1
  0
CLASS
  1
ARCALIGNEDTEXT
  2
AcDbArcAlignedText
  3
ATEXT|AutoCAD Express Tool|expresstools@autodesk.com
 90
        0
 91
        0
280
     1
281
     1
  0
CLASS
  1
DIMASSOC
  2
AcDbDimAssoc
  3
"AcDbDimAssoc|Product Desc:     AcDim ARX App For Dimension|Company:          Autodesk, Inc.|WEB Address:      www.autodesk.com"
 90
        0
 91
        0
280
     0
281
     0
  0
CLASS
  1
MATERIAL
  2
AcDbMaterial
  3
ObjectDBX Classes
 90
     1153
 91
        3
280
     0
281
     0
  0
CLASS
  1
VISUALSTYLE
  2
AcDbVisualStyle
  3
ObjectDBX Classes
 90
     4095
 91
        3
280
     0
281
     0
  0
CLASS
  1
TABLESTYLE
  2
AcDbTableStyle
  3
ObjectDBX Classes
 90
     4095
 91
        1
280
     0
281
     0
  0
CLASS
  1
SCALE
  2
AcDbScale
  3
ObjectDBX Classes
 90
     1153
 91
       17
280
     0
281
     0
  0
CLASS
  1
MLEADERSTYLE
  2
AcDbMLeaderStyle
  3
ACDB_MLEADERSTYLE_CLASS
 90
     4095
 91
        0
280
     0
281
     0
  0
CLASS
  1
ACDBSECTIONVIEWSTYLE
  2
AcDbSectionViewStyle
  3
ObjectDBX Classes
 90
     1025
 91
        0
280
     0
281
     0
  0
CLASS
  1
ACDBDETAILVIEWSTYLE
  2
AcDbDetailViewStyle
  3
ObjectDBX Classes
 90
     1025
 91
        0
280
     0
281
     0
  0
CLASS
  1
CELLSTYLEMAP
  2
AcDbCellStyleMap
  3
ObjectDBX Classes
 90
     1152
 91
        1
280
     0
281
     0
  0
CLASS
  1
SOLID_BACKGROUND
  2
AcDbSolidBackground
  3
SCENEOE
 90
     4095
 91
        0
280
     0
281
     0
  0
CLASS
  1
NPOCOLLECTION
  2
AcDbImpNonPersistentObjectsCollection
  3
ObjectDBX Classes
 90
     1153
 91
        0
280
     0
281
     0
  0
ENDSEC
  0
SECTION
  2
TABLES
  0
TABLE
  2
VPORT
  5
28
330
0
100
AcDbSymbolTable
 70
     1
  0
VPORT
  5
29
330
28
100
AcDbSymbolTableRecord
100
AcDbViewportTableRecord
  2
*Active
 70
     0
 10
0.0
 20
0.0
 11
1.0
 21
1.0
 12
-372.1346495091678
 22
8.673021295189982
 13
0.0
 23
0.0
 14
0.5
 24
0.5
 15
0.5
 25
0.5
 16
0.0
 26
0.0
 36
1.0
 17
288.4994056054601
 27
-33.93730857825663
 37
0.0
 40
16.30714252423217
 41
2.570850202429149
 42
50.0
 43
0.0
 44
0.0
 50
0.0
 51
0.0
 71
     0
 72
   500
 73
     1
 74
     2
 75
     0
 76
     0
 77
     0
 78
     0
281
     0
 65
     0
110
0.0
120
0.0
130
0.0
111
1.0
121
0.0
131
0.0
112
0.0
122
1.0
132
0.0
 79
     0
146
0.0
348
2A
 60
     3
 61
     5
292
     1
282
     1
141
0.0
142
0.0
 63
   250
421
  3355443
1001
ACAD_NAV_VCDISPLAY
1070
     3
  0
ENDTAB
  0
TABLE
  2
LTYPE
  5
23
330
0
100
AcDbSymbolTable
 70
     3
  0
LTYPE
  5
24
330
23
100
AcDbSymbolTableRecord
100
AcDbLinetypeTableRecord
  2
BYBLOCK
 70
     0
  3

 72
    65
 73
     0
 40
0.0
  0
LTYPE
  5
25
330
23
100
AcDbSymbolTableRecord
100
AcDbLinetypeTableRecord
  2
BYLAYER
 70
     0
  3

 72
    65
 73
     0
 40
0.0
  0
LTYPE
  5
15
330
23
100
AcDbSymbolTableRecord
100
AcDbLinetypeTableRecord
  2
Continuous
 70
     0
  3
Solid line
 72
    65
 73
     0
 40
0.0
  0
LTYPE
  5
7B
330
23
100
AcDbSymbolTableRecord
100
AcDbLinetypeTableRecord
  2
CENTER2
 70
     0
  3
Center (.5x) ___ _ ___ _ ___ _ ___ _ ___ _ ___
 72
    65
 73
     4
 40
1.125
 49
0.75
 74
     0
 49
-0.125
 74
     0
 49
0.125
 74
     0
 49
-0.125
 74
     0
  0
LTYPE
  5
76
330
23
100
AcDbSymbolTableRecord
100
AcDbLinetypeTableRecord
  2
HIDDEN2
 70
     0
  3
Hidden (.5x) _ _ _ _ _ _ _ _ _ _ _ _ _ _ _ _ _
 72
    65
 73
     2
 40
0.1875
 49
0.125
 74
     0
 49
-0.0625
 74
     0
  0
ENDTAB
  0
TABLE
  2
LAYER
  5
1F
330
0
100
AcDbSymbolTable
 70
     5
  0
LAYER
  5
6
102
{ACAD_XDICTIONARY
360
7
102
}
330
1F
100
AcDbSymbolTableRecord
100
AcDbLayerTableRecord
  2
0
 70
     0
 62
     7
  6
Continuous
370
    -3
390
9
347
C
348
0
  0
LAYER
  5
57
102
{ACAD_XDICTIONARY
360
58
102
}
330
1F
100
AcDbSymbolTableRecord
100
AcDbLayerTableRecord
  2
1D
 70
     0
 62
     4
  6
Continuous
370
    -3
390
9
347
C
348
0
  0
LAYER
  5
7D
102
{ACAD_XDICTIONARY
360
7E
102
}
330
1F
100
AcDbSymbolTableRecord
100
AcDbLayerTableRecord
  2
3
 70
     0
 62
     7
  6
Continuous
370
    -3
390
9
347
C
348
0
  0
LAYER
  5
73
102
{ACAD_XDICTIONARY
360
74
102
}
330
1F
100
AcDbSymbolTableRecord
100
AcDbLayerTableRecord
  2
3D
 70
     0
 62
     4
  6
Continuous
370
    -3
390
9
347
C
348
0
  0
LAYER
  5
A1
102
{ACAD_XDICTIONARY
360
A2
102
}
330
1F
100
AcDbSymbolTableRecord
100
AcDbLayerTableRecord
  2
2
 70
     0
 62
     7
  6
Continuous
370
    -3
390
9
347
C
348
0
  0
ENDTAB
  0
TABLE
  2
STYLE
  5
20
330
0
100
AcDbSymbolTable
 70
     2
  0
STYLE
  5
21
330
20
100
AcDbSymbolTableRecord
100
AcDbTextStyleTableRecord
  2
Standard
 70
     0
 40
0.0
 41
1.0
 50
0.0
 71
     0
 42
0.2
  3
TXT
  4

  0
STYLE
  5
5A
330
20
100
AcDbSymbolTableRecord
100
AcDbTextStyleTableRecord
  2
SIMPLEX
 70
     0
 40
0.0
 41
1.0
 50
0.0
 71
     0
 42
0.0045
  3
SIMPLEX
  4

  0
ENDTAB
  0
TABLE
  2
VIEW
  5
26
330
0
100
AcDbSymbolTable
 70
     0
  0
ENDTAB
  0
TABLE
  2
UCS
  5
27
330
0
100
AcDbSymbolTable
 70
     0
  0
ENDTAB
  0
TABLE
  2
APPID
  5
2D
330
0
100
AcDbSymbolTable
 70
     2
  0
APPID
  5
2E
330
2D
100
AcDbSymbolTableRecord
100
AcDbRegAppTableRecord
  2
ACAD
 70
     0
  0
APPID
  5
2C
330
2D
100
AcDbSymbolTableRecord
100
AcDbRegAppTableRecord
  2
ACAD_NAV_VCDISPLAY
 70
     0
  0
ENDTAB
  0
TABLE
  2
DIMSTYLE
  5
2F
330
0
100
AcDbSymbolTable
 70
     1
100
AcDbDimStyleTable
 71
     0
  0
DIMSTYLE
105
60
330
2F
100
AcDbSymbolTableRecord
100
AcDbDimStyleTableRecord
  2
Standard
 70
     0
 41
0.5600000000000001
 42
0.17
 44
0.17
 47
0.038
 48
0.025
 73
     0
 74
     0
 78
     4
140
0.5600000000000001
141
0.25
146
0.8
147
0.17
271
     3
272
     3
284
     4
340
5A
  0
ENDTAB
  0
TABLE
  2
BLOCK_RECORD
  5
1
330
0
100
AcDbSymbolTable
 70
     0
  0
BLOCK_RECORD
  5
2
102
{ACAD_XDICTIONARY
360
3
102
}
330
1
100
AcDbSymbolTableRecord
100
AcDbBlockTableRecord
  2
*Model_Space
340
17
 70
     0
280
     1
281
     0
  0
BLOCK_RECORD
  5
19
102
{ACAD_XDICTIONARY
360
1A
102
}
330
1
100
AcDbSymbolTableRecord
100
AcDbBlockTableRecord
  2
*Paper_Space
340
1E
 70
     0
280
     1
281
     0
  0
ENDTAB
  0
ENDSEC
  0
SECTION
  2
BLOCKS
  0
BLOCK
  5
5
330
2
100
AcDbEntity
  8
0
100
AcDbBlockBegin
  2
*Model_Space
 70
     0
 10
0.0
 20
0.0
 30
0.0
  3
*Model_Space
  1

  0
ENDBLK
  5
16
330
2
100
AcDbEntity
  8
0
100
AcDbBlockEnd
  0
BLOCK
  5
1C
330
19
100
AcDbEntity
 67
     1
  8
0
100
AcDbBlockBegin
  2
*Paper_Space
 70
     0
 10
0.0
 20
0.0
 30
0.0
  3
*Paper_Space
  1

  0
ENDBLK
  5
1D
330
19
100
AcDbEntity
 67
     1
  8
0
100
AcDbBlockEnd
  0
ENDSEC
  0
SECTION
  2
ENTITIES
  0
LINE
  5
72
330
2
100
AcDbEntity
  8
3D
  6
HIDDEN2
100
AcDbLine
 10
61.06820943176069
 20
4.185671048817493
 30
0.0
 11
61.06820943176069
 21
0.1856710488174791
 31
0.0
  0
LINE
  5
77
330
2
100
AcDbEntity
  8
3D
  6
HIDDEN2
100
AcDbLine
 10
56.2982094317607
 20
0.1856710488174933
 30
0.0
 11
56.29820943176071
 21
4.185671048817493
 31
0.0
  0
LWPOLYLINE
  5
78
330
2
100
AcDbEntity
  8
3D
  6
HIDDEN2
100
AcDbPolyline
 90
        4
 70
     1
 43
0.0
 10
57.14820943176069
 20
0.9666710488174921
 10
57.14820943176069
 20
3.40467104881749
 10
60.21820943176071
 20
3.40467104881749
 10
60.21820943176071
 20
0.9666710488174921
  0
LWPOLYLINE
  5
79
330
2
100
AcDbEntity
  8
3D
  6
HIDDEN2
100
AcDbPolyline
 90
        4
 70
     1
 43
0.0
 10
57.34820943176069
 20
3.204671048817491
 10
57.34820943176069
 20
1.166671048817491
 10
60.01820943176068
 20
1.166671048817491
 10
60.01820943176068
 20
3.204671048817491
  0
LWPOLYLINE
  5
7A
330
2
100
AcDbEntity
  8
3D
  6
CENTER2
 62
     2
100
AcDbPolyline
 90
        4
 70
     1
 43
0.0
 10
61.20820943176067
 20
-0.0393289511825081
 10
61.20820943176067
 20
4.41067104881748
 10
56.15820943176067
 20
4.41067104881748
 10
56.15820943176067
 20
-0.0393289511825081
  0
LINE
  5
7C
330
2
100
AcDbEntity
  8
3
100
AcDbLine
 10
60.98320943176067
 20
1.862671048817453
 30
0.0
 11
60.98320943176067
 21
2.508671048817497
 31
0.0
  0
LINE
  5
80
330
2
100
AcDbEntity
  8
3
100
AcDbLine
 10
56.38320943176069
 20
1.862671048817453
 30
0.0
 11
56.38320943176069
 21
2.508671048817497
 31
0.0
  0
LINE
  5
81
330
2
100
AcDbEntity
  8
3
100
AcDbLine
 10
56.0709094317607
 20
2.508671048817497
 30
0.0
 11
56.0709094317607
 21
1.862671048817453
 31
0.0
  0
LINE
  5
82
330
2
100
AcDbEntity
  8
3
100
AcDbLine
 10
56.76570943176068
 20
3.215671048817547
 30
0.0
 11
56.76570943176068
 21
1.15567104881746
 31
0.0
  0
LINE
  5
83
330
2
100
AcDbEntity
  8
3
100
AcDbLine
 10
56.58570943176069
 20
1.15567104881746
 30
0.0
 11
56.58570943176069
 21
3.215671048817547
 31
0.0
  0
LINE
  5
84
330
2
100
AcDbEntity
  8
3D
  6
CENTER2
100
AcDbLine
 10
58.6832094317607
 20
1.579187740918612
 30
0.0
 11
58.6832094317607
 21
2.792154356716363
 31
0.0
  0
LINE
  5
85
330
2
100
AcDbEntity
  8
3
100
AcDbLine
 10
60.60070943176066
 20
3.215671048817547
 30
0.0
 11
60.60070943176066
 21
1.15567104881746
 31
0.0
  0
LINE
  5
86
330
2
100
AcDbEntity
  8
3
100
AcDbLine
 10
60.78070943176069
 20
3.215671048817547
 30
0.0
 11
60.78070943176074
 21
1.15567104881746
 31
0.0
  0
LINE
  5
87
330
2
100
AcDbEntity
  8
3
100
AcDbLine
 10
61.29550943176069
 20
2.508671048817497
 30
0.0
 11
61.29550943176069
 21
1.862671048817453
 31
0.0
  0
LINE
  5
88
330
2
100
AcDbEntity
  8
3D
  6
CENTER2
100
AcDbLine
 10
58.07672612386181
 20
2.185671048817493
 30
0.0
 11
59.28969273965957
 21
2.185671048817493
 31
0.0
  0
LINE
  5
89
330
2
100
AcDbEntity
  8
3
100
AcDbLine
 10
58.89820943176069
 20
-0.2143289511825408
 30
0.0
 11
58.46820943176067
 21
-0.2143289511824591
 31
0.0
  0
LINE
  5
8A
330
2
100
AcDbEntity
  8
3
100
AcDbLine
 10
58.78320943176068
 20
0.1856710488175217
 30
0.0
 11
58.89820943176069
 21
0.1856710488174933
 31
0.0
  0
LINE
  5
8B
330
2
100
AcDbEntity
  8
3
100
AcDbLine
 10
58.78320943176068
 20
0.405671048817478
 30
0.0
 11
59.23320943176069
 21
0.4056710488175206
 31
0.0
  0
LINE
  5
8C
330
2
100
AcDbEntity
  8
3
100
AcDbLine
 10
56.50954238147609
 20
0.5856710488174919
 30
0.0
 11
60.85687644318767
 21
0.5856710488174919
 31
0.0
  0
LINE
  5
8D
330
2
100
AcDbEntity
  8
3D
100
AcDbLine
 10
57.11920943176069
 20
0.9666710488174921
 30
0.0
 11
55.06896389310573
 21
0.9666710488174921
 31
0.0
  0
LINE
  5
8E
330
2
100
AcDbEntity
  8
3D
100
AcDbLine
 10
57.3192094317607
 20
1.166671048817491
 30
0.0
 11
55.06896389310575
 21
1.166671048817491
 31
0.0
  0
LINE
  5
8F
330
2
100
AcDbEntity
  8
3D
100
AcDbLine
 10
56.26920943176071
 20
0.1856710488174933
 30
0.0
 11
55.06896389310573
 21
0.1856710488174933
 31
0.0
  0
LINE
  5
90
330
2
100
AcDbEntity
  8
3D
100
AcDbLine
 10
56.07420943176069
 20
0.0056710488174936
 30
0.0
 11
55.06896389310573
 21
0.0056710488174936
 31
0.0
  0
LINE
  5
91
330
2
100
AcDbEntity
  8
3D
100
AcDbLine
 10
58.04772612386182
 20
2.185671048817493
 30
0.0
 11
55.06896389310573
 21
2.185671048817493
 31
0.0
  0
MTEXT
  5
92
330
2
100
AcDbEntity
  8
3D
100
AcDbMText
 10
54.42122880205207
 20
0.9666710488174921
 30
0.0
 40
0.087
 41
0.0
 46
0.0
 71
     5
 72
     1
  1
MIN PLATING 1.219
  7
SIMPLEX
 73
     1
 44
1.0
  0
MTEXT
  5
93
330
2
100
AcDbEntity
  8
3D
100
AcDbMText
 10
54.39618119126921
 20
1.166671048817491
 30
0.0
 40
0.087
 41
0.0
 46
0.0
 71
     5
 72
     1
  1
MAX PLATING 1.019
  7
SIMPLEX
 73
     1
 44
1.0
  0
MTEXT
  5
94
330
2
100
AcDbEntity
  8
3D
100
AcDbMText
 10
54.4067975508963
 20
0.1856710488174933
 30
0.0
 40
0.087
 41
0.0
 46
0.0
 71
     5
 72
     1
  1
MIN PLATING 2.000
  7
SIMPLEX
 73
     1
 44
1.0
  0
MTEXT
  5
95
330
2
100
AcDbEntity
  8
3D
100
AcDbMText
 10
54.90739246453429
 20
2.185671048817493
 30
0.0
 40
0.087
 41
0.0
 46
0.0
 71
     5
 72
     1
  1
\A1;.000
  7
SIMPLEX
 73
     1
 44
1.0
  0
LINE
  5
96
330
2
100
AcDbEntity
  8
3D
100
AcDbLine
 10
58.6832094317607
 20
1.550187740918612
 30
0.0
 11
58.6832094317607
 21
-0.8910918917469103
 31
0.0
  0
LINE
  5
97
330
2
100
AcDbEntity
  8
3
100
AcDbLine
 10
58.46820943176067
 20
0.1856710488174933
 30
0.0
 11
58.46820943176067
 21
-0.2143289511824591
 31
0.0
  0
LINE
  5
98
330
2
100
AcDbEntity
  8
3
100
AcDbLine
 10
57.16820943176069
 20
0.1856710488174933
 30
0.0
 11
57.16820943176069
 21
-0.2143289511824591
 31
0.0
  0
LINE
  5
99
330
2
100
AcDbEntity
  8
3
100
AcDbLine
 10
56.94820943176068
 20
0.1856710488174933
 30
0.0
 11
56.94820943176068
 21
-0.2143289511824591
 31
0.0
  0
LINE
  5
9A
330
2
100
AcDbEntity
  8
3
100
AcDbLine
 10
58.2482094317607
 20
0.1856710488174933
 30
0.0
 11
58.2482094317607
 21
-0.2143289511824591
 31
0.0
  0
LINE
  5
9B
330
2
100
AcDbEntity
  8
3
100
AcDbLine
 10
57.81820943176069
 20
0.1856710488174933
 30
0.0
 11
57.81820943176069
 21
-0.2143289511824875
 31
0.0
  0
LINE
  5
9C
330
2
100
AcDbEntity
  8
3
100
AcDbLine
 10
57.59820943176066
 20
0.1856710488174933
 30
0.0
 11
57.59820943176066
 21
-0.2143289511824591
 31
0.0
  0
LINE
  5
9D
330
2
100
AcDbEntity
  8
3
100
AcDbLine
 10
56.51820943176068
 20
0.1856710488174933
 30
0.0
 11
56.51820943176068
 21
-0.2143289511824875
 31
0.0
  0
LINE
  5
9E
330
2
100
AcDbEntity
  8
3
100
AcDbLine
 10
56.29820943176068
 20
0.405671048817478
 30
0.0
 11
56.29820943176068
 21
-0.2143289511824875
 31
0.0
  0
LINE
  5
9F
330
2
100
AcDbEntity
  8
3
100
AcDbLine
 10
56.07090943176071
 20
1.735671048817454
 30
0.0
 11
56.07090943176071
 21
-0.0143289511704872
 31
0.0
  0
LINE
  5
A0
330
2
100
AcDbEntity
  8
2
100
AcDbLine
 10
55.8682094317607
 20
-0.0143289511704872
 30
0.0
 11
56.07090943176071
 21
-0.0143289511704872
 31
0.0
  0
LINE
  5
A4
330
2
100
AcDbEntity
  8
3
100
AcDbLine
 10
56.29820943176048
 20
-0.2143289511824875
 30
0.0
 11
55.8682094317607
 21
-0.2143289511824875
 31
0.0
  0
LINE
  5
A5
330
2
100
AcDbEntity
  8
3
100
AcDbLine
 10
55.8682094317607
 20
-0.2143289511824875
 30
0.0
 11
55.8682094317607
 21
-0.0393289511704822
 31
0.0
  0
LINE
  5
A6
330
2
100
AcDbEntity
  8
3
100
AcDbLine
 10
56.51820943176068
 20
-0.2143289511824875
 30
0.0
 11
56.94820943176068
 21
-0.2143289511824591
 31
0.0
  0
MTEXT
  5
A7
330
2
100
AcDbEntity
  8
3D
100
AcDbMText
 10
58.6832094317607
 20
-1.052663320318348
 30
0.0
 40
0.087
 41
0.0
 46
0.0
 71
     5
 72
     1
  1
\A1;.000
  7
SIMPLEX
 11
0.0000000000000001
 21
1.0
 31
0.0
 73
     1
 44
1.0
  0
LINE
  5
A8
330
2
100
AcDbEntity
  8
3
100
AcDbLine
 10
57.16820943176069
 20
-0.2143289511824591
 30
0.0
 11
57.59820943176066
 21
-0.2143289511824591
 31
0.0
  0
LINE
  5
A9
330
2
100
AcDbEntity
  8
3
100
AcDbLine
 10
57.81820943176069
 20
-0.2143289511824875
 30
0.0
 11
58.2482094317607
 21
-0.2143289511824591
 31
0.0
  0
LINE
  5
AA
330
2
100
AcDbEntity
  8
3
100
AcDbLine
 10
57.28320943176067
 20
0.405671048817478
 30
0.0
 11
56.83320943176067
 21
0.4056710488175206
 31
0.0
  0
LINE
  5
AB
330
2
100
AcDbEntity
  8
3D
100
AcDbLine
 10
56.58570943176069
 20
1.228671048817492
 30
0.0
 11
56.38320943176069
 21
1.228671048817492
 31
0.0
  0
LINE
  5
AC
330
2
100
AcDbEntity
  8
3D
100
AcDbLine
 10
56.58570943176069
 20
1.685671048817493
 30
0.0
 11
56.38320943176069
 21
1.685671048817493
 31
0.0
  0
LINE
  5
AD
330
2
100
AcDbEntity
  8
3
100
AcDbLine
 10
56.94820943176068
 20
0.1856710488174933
 30
0.0
 11
56.83320943176067
 21
0.1856710488174933
 31
0.0
  0
LINE
  5
AE
330
2
100
AcDbEntity
  8
3
100
AcDbLine
 10
56.83320943176067
 20
0.4056710488175206
 30
0.0
 11
56.83320943176067
 21
0.1856710488174933
 31
0.0
  0
LINE
  5
AF
330
2
100
AcDbEntity
  8
3
100
AcDbLine
 10
56.63320943176069
 20
0.405671048817478
 30
0.0
 11
56.63320943176069
 21
0.1856710488175217
 31
0.0
  0
LINE
  5
B0
330
2
100
AcDbEntity
  8
3
100
AcDbLine
 10
56.38320943176069
 20
1.735671048817454
 30
0.0
 11
56.38320943176069
 21
0.7256710488174783
 31
0.0
  0
ARC
  5
B1
330
2
100
AcDbEntity
  8
3
100
AcDbCircle
 10
56.50954232533951
 20
0.7126710488174979
 30
0.0
 40
0.1270000000000006
100
AcDbArc
 50
174.1247869616938
 51
270.0000253258818
  0
LINE
  5
B2
330
2
100
AcDbEntity
  8
3
100
AcDbLine
 10
56.38320943176069
 20
1.862671048817453
 30
0.0
 11
56.0709094317607
 21
1.862671048817453
 31
0.0
  0
LINE
  5
B3
330
2
100
AcDbEntity
  8
3
100
AcDbLine
 10
56.38320943176069
 20
1.735671048817454
 30
0.0
 11
56.07090943176071
 21
1.735671048817454
 31
0.0
  0
LINE
  5
B4
330
2
100
AcDbEntity
  8
3
100
AcDbLine
 10
56.63320943176069
 20
0.1856710488175217
 30
0.0
 11
56.51820943176068
 21
0.1856710488174933
 31
0.0
  0
LINE
  5
B5
330
2
100
AcDbEntity
  8
3D
100
AcDbLine
 10
56.58570943176069
 20
1.685671048817457
 30
0.0
 11
56.38320943176069
 21
1.685671048817457
 31
0.0
  0
LINE
  5
B6
330
2
100
AcDbEntity
  8
3
100
AcDbLine
 10
56.63320943176069
 20
0.405671048817478
 30
0.0
 11
56.29820943176068
 21
0.405671048817478
 31
0.0
  0
LINE
  5
B7
330
2
100
AcDbEntity
  8
3
100
AcDbLine
 10
56.58570943176069
 20
1.15567104881746
 30
0.0
 11
56.76570943176068
 21
1.15567104881746
 31
0.0
  0
LINE
  5
B8
330
2
100
AcDbEntity
  8
3
100
AcDbLine
 10
58.58320943176069
 20
0.405671048817478
 30
0.0
 11
58.58320943176069
 21
0.1856710488175217
 31
0.0
  0
LINE
  5
B9
330
2
100
AcDbEntity
  8
3
100
AcDbLine
 10
58.58320943176069
 20
0.1856710488175217
 30
0.0
 11
58.46820943176067
 21
0.1856710488174933
 31
0.0
  0
LINE
  5
BA
330
2
100
AcDbEntity
  8
3
100
AcDbLine
 10
58.78320943176068
 20
0.405671048817478
 30
0.0
 11
58.78320943176068
 21
0.1856710488175217
 31
0.0
  0
LINE
  5
BB
330
2
100
AcDbEntity
  8
3
100
AcDbLine
 10
57.59820943176066
 20
0.1856710488174933
 30
0.0
 11
57.48320943176068
 21
0.1856710488174933
 31
0.0
  0
LINE
  5
BC
330
2
100
AcDbEntity
  8
3
100
AcDbLine
 10
57.9332094317607
 20
0.405671048817478
 30
0.0
 11
57.48320943176068
 21
0.4056710488175206
 31
0.0
  0
LINE
  5
BD
330
2
100
AcDbEntity
  8
3
100
AcDbLine
 10
57.28320943176067
 20
0.405671048817478
 30
0.0
 11
57.28320943176067
 21
0.1856710488175217
 31
0.0
  0
LINE
  5
BE
330
2
100
AcDbEntity
  8
3
100
AcDbLine
 10
57.28320943176067
 20
0.1856710488175217
 30
0.0
 11
57.16820943176069
 21
0.1856710488174933
 31
0.0
  0
LINE
  5
BF
330
2
100
AcDbEntity
  8
3
100
AcDbLine
 10
57.48320943176068
 20
0.4056710488175206
 30
0.0
 11
57.48320943176068
 21
0.1856710488174933
 31
0.0
  0
LINE
  5
C0
330
2
100
AcDbEntity
  8
3
100
AcDbLine
 10
58.13320943176069
 20
0.4056710488175206
 30
0.0
 11
58.13320943176069
 21
0.1856710488174933
 31
0.0
  0
LINE
  5
C1
330
2
100
AcDbEntity
  8
3
100
AcDbLine
 10
58.2482094317607
 20
0.1856710488174933
 30
0.0
 11
58.13320943176069
 21
0.1856710488174933
 31
0.0
  0
LINE
  5
C2
330
2
100
AcDbEntity
  8
3
100
AcDbLine
 10
57.9332094317607
 20
0.1856710488175217
 30
0.0
 11
57.81820943176069
 21
0.1856710488174933
 31
0.0
  0
LINE
  5
C3
330
2
100
AcDbEntity
  8
3
100
AcDbLine
 10
57.9332094317607
 20
0.405671048817478
 30
0.0
 11
57.9332094317607
 21
0.1856710488175217
 31
0.0
  0
LINE
  5
C4
330
2
100
AcDbEntity
  8
3
100
AcDbLine
 10
58.58320943176069
 20
0.405671048817478
 30
0.0
 11
58.13320943176069
 21
0.4056710488175206
 31
0.0
  0
LINE
  5
C5
330
2
100
AcDbEntity
  8
3D
100
AcDbLine
 10
61.06820943176069
 20
0.0956710488174935
 30
0.0
 11
61.06820943176069
 21
-0.8910918917469103
 31
0.0
  0
LINE
  5
C6
330
2
100
AcDbEntity
  8
3D
100
AcDbLine
 10
60.21820943176071
 20
0.9376710488174921
 30
0.0
 11
60.21820943176071
 21
-0.8910918917469103
 31
0.0
  0
LINE
  5
C7
330
2
100
AcDbEntity
  8
3D
100
AcDbLine
 10
60.01820943176068
 20
1.137671048817491
 30
0.0
 11
60.01820943176068
 21
-0.8910918917469103
 31
0.0
  0
LINE
  5
C8
330
2
100
AcDbEntity
  8
3
100
AcDbLine
 10
60.41820943176069
 20
0.1856710488174933
 30
0.0
 11
60.41820943176069
 21
-0.2143289511824591
 31
0.0
  0
LINE
  5
C9
330
2
100
AcDbEntity
  8
3
100
AcDbLine
 10
60.84820943176069
 20
0.1856710488174933
 30
0.0
 11
60.84820943176069
 21
-0.2143289511824875
 31
0.0
  0
LINE
  5
CA
330
2
100
AcDbEntity
  8
3
100
AcDbLine
 10
61.06820943176069
 20
0.405671048817478
 30
0.0
 11
61.06820943176069
 21
-0.2143289511824875
 31
0.0
  0
LINE
  5
CB
330
2
100
AcDbEntity
  8
3
100
AcDbLine
 10
61.29550943176072
 20
1.735671048817454
 30
0.0
 11
61.29550943176072
 21
-0.0143289511704872
 31
0.0
  0
LINE
  5
CC
330
2
100
AcDbEntity
  8
3
100
AcDbLine
 10
59.54820943176071
 20
0.1856710488174933
 30
0.0
 11
59.54820943176071
 21
-0.2143289511824875
 31
0.0
  0
LINE
  5
CD
330
2
100
AcDbEntity
  8
3
100
AcDbLine
 10
59.76820943176068
 20
0.1856710488174933
 30
0.0
 11
59.76820943176068
 21
-0.2143289511824591
 31
0.0
  0
LINE
  5
CE
330
2
100
AcDbEntity
  8
3
100
AcDbLine
 10
59.11820943176071
 20
0.1856710488174933
 30
0.0
 11
59.11820943176071
 21
-0.2143289511824591
 31
0.0
  0
LINE
  5
CF
330
2
100
AcDbEntity
  8
3
100
AcDbLine
 10
58.89820943176069
 20
0.1856710488174933
 30
0.0
 11
58.89820943176069
 21
-0.2143289511825408
 31
0.0
  0
LINE
  5
D0
330
2
100
AcDbEntity
  8
3
100
AcDbLine
 10
60.19820943176068
 20
0.1856710488174933
 30
0.0
 11
60.19820943176068
 21
-0.2143289511824591
 31
0.0
  0
LINE
  5
D1
330
2
100
AcDbEntity
  8
3
100
AcDbLine
 10
60.84820943176069
 20
-0.2143289511824875
 30
0.0
 11
60.41820943176069
 21
-0.2143289511824591
 31
0.0
  0
MTEXT
  5
D2
330
2
100
AcDbEntity
  8
3D
100
AcDbMText
 10
60.21820943176071
 20
-1.549085175115362
 30
0.0
 40
0.087
 41
0.0
 46
0.0
 71
     5
 72
     1
  1
MIN PLATING 1.535
  7
SIMPLEX
 11
0.0000000000000001
 21
1.0
 31
0.0
 73
     1
 44
1.0
  0
MTEXT
  5
D3
330
2
100
AcDbEntity
  8
3D
100
AcDbMText
 10
60.01820943176068
 20
-1.578008589509039
 30
0.0
 40
0.087
 41
0.0
 46
0.0
 71
     5
 72
     1
  1
MAX PLATING 1.335
  7
SIMPLEX
 11
0.0000000000000001
 21
1.0
 31
0.0
 73
     1
 44
1.0
  0
LINE
  5
D4
330
2
100
AcDbEntity
  8
3
100
AcDbLine
 10
60.19820943176068
 20
-0.2143289511824591
 30
0.0
 11
59.76820943176068
 21
-0.2143289511824591
 31
0.0
  0
LINE
  5
D5
330
2
100
AcDbEntity
  8
3
100
AcDbLine
 10
59.54820943176071
 20
-0.2143289511824875
 30
0.0
 11
59.11820943176071
 21
-0.2143289511824591
 31
0.0
  0
LINE
  5
D6
330
2
100
AcDbEntity
  8
2
100
AcDbLine
 10
61.49820943176077
 20
-0.0143289511704872
 30
0.0
 11
61.29550943176072
 21
-0.0143289511704872
 31
0.0
  0
MTEXT
  5
D7
330
2
100
AcDbEntity
  8
3D
100
AcDbMText
 10
61.26320943176068
 20
-1.586294303794751
 30
0.0
 40
0.087
 41
0.0
 46
0.0
 71
     5
 72
     1
  1
MAX PLATING 2.585
  7
SIMPLEX
 11
0.0000000000000001
 21
1.0
 31
0.0
 73
     1
 44
1.0
  0
LINE
  5
D8
330
2
100
AcDbEntity
  8
3D
100
AcDbLine
 10
61.26320943176068
 20
-0.058554856093469
 30
0.0
 11
61.26320943176068
 21
-0.8910918917469103
 31
0.0
  0
MTEXT
  5
D9
330
2
100
AcDbEntity
  8
3D
100
AcDbMText
 10
61.06820943176069
 20
-1.557370889401074
 30
0.0
 40
0.087
 41
0.0
 46
0.0
 71
     5
 72
     1
  1
MIN PLATING 2.385
  7
SIMPLEX
 11
0.0000000000000001
 21
1.0
 31
0.0
 73
     1
 44
1.0
  0
LINE
  5
DA
330
2
100
AcDbEntity
  8
3
100
AcDbLine
 10
61.49820943176047
 20
-0.2143289511824875
 30
0.0
 11
61.06820943176069
 21
-0.2143289511824875
 31
0.0
  0
LINE
  5
DB
330
2
100
AcDbEntity
  8
3
100
AcDbLine
 10
61.49820943176077
 20
-0.0143289511704872
 30
0.0
 11
61.49820943176077
 21
-0.2143289511824875
 31
0.0
  0
LINE
  5
DC
330
2
100
AcDbEntity
  8
3
100
AcDbLine
 10
60.53320943176067
 20
0.4056710488175206
 30
0.0
 11
60.53320943176067
 21
0.1856710488174933
 31
0.0
  0
LINE
  5
DD
330
2
100
AcDbEntity
  8
3
100
AcDbLine
 10
60.41820943176069
 20
0.1856710488174933
 30
0.0
 11
60.53320943176067
 21
0.1856710488174933
 31
0.0
  0
LINE
  5
DE
330
2
100
AcDbEntity
  8
3
100
AcDbLine
 10
60.0832094317607
 20
0.1856710488175217
 30
0.0
 11
60.19820943176068
 21
0.1856710488174933
 31
0.0
  0
LINE
  5
DF
330
2
100
AcDbEntity
  8
3
100
AcDbLine
 10
60.0832094317607
 20
0.405671048817478
 30
0.0
 11
60.0832094317607
 21
0.1856710488175217
 31
0.0
  0
LINE
  5
E0
330
2
100
AcDbEntity
  8
3
100
AcDbLine
 10
59.11820943176071
 20
0.1856710488174933
 30
0.0
 11
59.23320943176069
 21
0.1856710488174933
 31
0.0
  0
LINE
  5
E1
330
2
100
AcDbEntity
  8
3
100
AcDbLine
 10
59.23320943176069
 20
0.4056710488175206
 30
0.0
 11
59.23320943176069
 21
0.1856710488174933
 31
0.0
  0
LINE
  5
E2
330
2
100
AcDbEntity
  8
3
100
AcDbLine
 10
59.88320943176069
 20
0.4056710488175206
 30
0.0
 11
59.88320943176069
 21
0.1856710488174933
 31
0.0
  0
LINE
  5
E3
330
2
100
AcDbEntity
  8
3
100
AcDbLine
 10
59.43320943176072
 20
0.405671048817478
 30
0.0
 11
59.43320943176072
 21
0.1856710488175217
 31
0.0
  0
LINE
  5
E4
330
2
100
AcDbEntity
  8
3
100
AcDbLine
 10
59.43320943176072
 20
0.1856710488175217
 30
0.0
 11
59.54820943176071
 21
0.1856710488174933
 31
0.0
  0
LINE
  5
E5
330
2
100
AcDbEntity
  8
3
100
AcDbLine
 10
59.76820943176068
 20
0.1856710488174933
 30
0.0
 11
59.88320943176069
 21
0.1856710488174933
 31
0.0
  0
LINE
  5
E6
330
2
100
AcDbEntity
  8
3
100
AcDbLine
 10
59.43320943176072
 20
0.405671048817478
 30
0.0
 11
59.88320943176069
 21
0.4056710488175206
 31
0.0
  0
LINE
  5
E7
330
2
100
AcDbEntity
  8
3
100
AcDbLine
 10
60.0832094317607
 20
0.405671048817478
 30
0.0
 11
60.53320943176067
 21
0.4056710488175206
 31
0.0
  0
LINE
  5
E8
330
2
100
AcDbEntity
  8
3D
100
AcDbLine
 10
60.78070943176069
 20
1.685671048817493
 30
0.0
 11
60.98320943176068
 21
1.685671048817493
 31
0.0
  0
LINE
  5
E9
330
2
100
AcDbEntity
  8
3D
100
AcDbLine
 10
60.78070943176069
 20
1.228671048817492
 30
0.0
 11
60.98320943176068
 21
1.228671048817492
 31
0.0
  0
ARC
  5
EA
330
2
100
AcDbEntity
  8
3
100
AcDbCircle
 10
60.85687653818189
 20
0.7126710488174766
 30
0.0
 40
0.1269999999999953
100
AcDbArc
 50
269.9999571435815
 51
5.875213038316062
  0
LINE
  5
EB
330
2
100
AcDbEntity
  8
3
100
AcDbLine
 10
60.73320943176068
 20
0.405671048817478
 30
0.0
 11
61.06820943176069
 21
0.405671048817478
 31
0.0
  0
LINE
  5
EC
330
2
100
AcDbEntity
  8
3
100
AcDbLine
 10
60.98320943176067
 20
1.862671048817453
 30
0.0
 11
61.29550943176069
 21
1.862671048817453
 31
0.0
  0
LINE
  5
ED
330
2
100
AcDbEntity
  8
3
100
AcDbLine
 10
60.98320943176071
 20
1.735671048817454
 30
0.0
 11
61.29550943176072
 21
1.735671048817454
 31
0.0
  0
LINE
  5
EE
330
2
100
AcDbEntity
  8
3
100
AcDbLine
 10
60.98320943176071
 20
1.735671048817454
 30
0.0
 11
60.98320943176071
 21
0.7256710488174783
 31
0.0
  0
LINE
  5
EF
330
2
100
AcDbEntity
  8
3
100
AcDbLine
 10
60.78070943176074
 20
1.15567104881746
 30
0.0
 11
60.60070943176066
 21
1.15567104881746
 31
0.0
  0
LINE
  5
F0
330
2
100
AcDbEntity
  8
3
100
AcDbLine
 10
60.73320943176068
 20
0.405671048817478
 30
0.0
 11
60.73320943176068
 21
0.1856710488175217
 31
0.0
  0
LINE
  5
F1
330
2
100
AcDbEntity
  8
3
100
AcDbLine
 10
60.73320943176068
 20
0.1856710488175217
 30
0.0
 11
60.84820943176069
 21
0.1856710488174933
 31
0.0
  0
LINE
  5
F2
330
2
100
AcDbEntity
  8
3D
  6
HIDDEN2
100
AcDbLine
 10
61.26820943176068
 20
4.365671048817493
 30
0.0
 11
56.09820943176072
 21
4.365671048817493
 31
0.0
  0
LINE
  5
F3
330
2
100
AcDbEntity
  8
3D
  6
HIDDEN2
100
AcDbLine
 10
56.29820943176071
 20
4.185671048817493
 30
0.0
 11
61.06820943176069
 21
4.185671048817493
 31
0.0
  0
MTEXT
  5
F4
330
2
100
AcDbEntity
  8
3D
100
AcDbMText
 10
58.47433951573366
 20
6.643935157112139
 30
0.0
 40
0.3
 41
0.0
 46
0.0
 71
     5
 72
     1
  1
{\LDOUBLE-RING PLATING AREA ON TOP}
  7
SIMPLEX
 73
     1
 44
1.0
  0
LINE
  5
F5
330
2
100
AcDbEntity
  8
3
100
AcDbLine
 10
58.89820943176069
 20
4.585671048817516
 30
0.0
 11
58.46820943176067
 21
4.585671048817438
 31
0.0
  0
LINE
  5
F6
330
2
100
AcDbEntity
  8
3
100
AcDbLine
 10
58.78320943176068
 20
4.185671048817461
 30
0.0
 11
58.89820943176069
 21
4.185671048817493
 31
0.0
  0
LINE
  5
F7
330
2
100
AcDbEntity
  8
3
100
AcDbLine
 10
58.78320943176068
 20
3.96567104881749
 30
0.0
 11
59.23320943176069
 21
3.965671048817462
 31
0.0
  0
LINE
  5
F8
330
2
100
AcDbEntity
  8
3
100
AcDbLine
 10
56.50954238541913
 20
3.785671048817476
 30
0.0
 11
60.85620934164133
 21
3.785671048817476
 31
0.0
  0
LINE
  5
F9
330
2
100
AcDbEntity
  8
3
100
AcDbLine
 10
57.28320943176067
 20
3.96567104881749
 30
0.0
 11
56.83320943176067
 21
3.965671048817462
 31
0.0
  0
LINE
  5
FA
330
2
100
AcDbEntity
  8
2
100
AcDbLine
 10
55.8682094317607
 20
4.385671048805459
 30
0.0
 11
56.07090943176071
 21
4.385671048805459
 31
0.0
  0
LINE
  5
FB
330
2
100
AcDbEntity
  8
3D
100
AcDbLine
 10
56.58570943176069
 20
3.14267104881749
 30
0.0
 11
56.38320943176069
 21
3.14267104881749
 31
0.0
  0
LINE
  5
FC
330
2
100
AcDbEntity
  8
3D
100
AcDbLine
 10
56.58570943176069
 20
2.685671048817496
 30
0.0
 11
56.38320943176069
 21
2.685671048817496
 31
0.0
  0
LINE
  5
FD
330
2
100
AcDbEntity
  8
3
100
AcDbLine
 10
56.29820943176048
 20
4.585671048817459
 30
0.0
 11
55.8682094317607
 21
4.585671048817459
 31
0.0
  0
LINE
  5
FE
330
2
100
AcDbEntity
  8
3
100
AcDbLine
 10
56.51820943176068
 20
4.585671048817459
 30
0.0
 11
56.94820943176068
 21
4.585671048817438
 31
0.0
  0
LINE
  5
FF
330
2
100
AcDbEntity
  8
3
100
AcDbLine
 10
56.83320943176067
 20
3.965671048817462
 30
0.0
 11
56.83320943176067
 21
4.185671048817493
 31
0.0
  0
LINE
  5
100
330
2
100
AcDbEntity
  8
3
100
AcDbLine
 10
56.94820943176068
 20
4.185671048817493
 30
0.0
 11
56.83320943176067
 21
4.185671048817493
 31
0.0
  0
LINE
  5
101
330
2
100
AcDbEntity
  8
3
100
AcDbLine
 10
56.63320943176069
 20
3.96567104881749
 30
0.0
 11
56.63320943176069
 21
4.185671048817461
 31
0.0
  0
LINE
  5
102
330
2
100
AcDbEntity
  8
3
100
AcDbLine
 10
56.38320943176069
 20
2.635671048817531
 30
0.0
 11
56.38320943176069
 21
3.645671048817497
 31
0.0
  0
ARC
  5
103
330
2
100
AcDbEntity
  8
3
100
AcDbCircle
 10
56.50954232533951
 20
3.658671048817495
 30
0.0
 40
0.1269999999999953
100
AcDbArc
 50
89.99997289521735
 51
185.8752130383108
  0
LINE
  5
104
330
2
100
AcDbEntity
  8
3
100
AcDbLine
 10
56.07090943176071
 20
4.385671048805459
 30
0.0
 11
56.07090943176074
 21
3.835671048821541
 31
0.0
  0
LINE
  5
105
330
2
100
AcDbEntity
  8
3
100
AcDbLine
 10
54.53620943176071
 20
2.635671048817563
 30
0.0
 11
56.38320943176069
 21
2.635671048817563
 31
0.0
  0
LINE
  5
106
330
2
100
AcDbEntity
  8
3
100
AcDbLine
 10
56.0709094317607
 20
2.508671048817497
 30
0.0
 11
56.38320943176069
 21
2.508671048817497
 31
0.0
  0
LINE
  5
107
330
2
100
AcDbEntity
  8
3
100
AcDbLine
 10
56.63320943176069
 20
4.185671048817461
 30
0.0
 11
56.51820943176068
 21
4.185671048817493
 31
0.0
  0
LINE
  5
108
330
2
100
AcDbEntity
  8
3
100
AcDbLine
 10
56.63320943176069
 20
3.96567104881749
 30
0.0
 11
56.29820943176068
 21
3.96567104881749
 31
0.0
  0
LINE
  5
109
330
2
100
AcDbEntity
  8
3
100
AcDbLine
 10
56.58570943176069
 20
3.215671048817547
 30
0.0
 11
56.76570943176068
 21
3.215671048817547
 31
0.0
  0
LINE
  5
10A
330
2
100
AcDbEntity
  8
3
100
AcDbLine
 10
56.94820943176068
 20
4.185671048817493
 30
0.0
 11
56.94820943176068
 21
4.585671048817438
 31
0.0
  0
LINE
  5
10B
330
2
100
AcDbEntity
  8
3
100
AcDbLine
 10
56.51820943176068
 20
4.185671048817493
 30
0.0
 11
56.51820943176068
 21
4.585671048817459
 31
0.0
  0
LINE
  5
10C
330
2
100
AcDbEntity
  8
3
100
AcDbLine
 10
55.8682094317607
 20
4.585671048817459
 30
0.0
 11
55.8682094317607
 21
4.385671048805459
 31
0.0
  0
LINE
  5
10D
330
2
100
AcDbEntity
  8
3
100
AcDbLine
 10
56.29820943176068
 20
3.96567104881749
 30
0.0
 11
56.29820943176068
 21
4.585671048817459
 31
0.0
  0
LINE
  5
10E
330
2
100
AcDbEntity
  8
3
100
AcDbLine
 10
58.58320943176069
 20
4.185671048817461
 30
0.0
 11
58.46820943176067
 21
4.185671048817493
 31
0.0
  0
LINE
  5
10F
330
2
100
AcDbEntity
  8
3
100
AcDbLine
 10
58.58320943176069
 20
3.96567104881749
 30
0.0
 11
58.58320943176069
 21
4.185671048817461
 31
0.0
  0
LINE
  5
110
330
2
100
AcDbEntity
  8
3
100
AcDbLine
 10
58.78320943176068
 20
3.96567104881749
 30
0.0
 11
58.78320943176068
 21
4.185671048817461
 31
0.0
  0
LINE
  5
111
330
2
100
AcDbEntity
  8
3
100
AcDbLine
 10
58.46820943176067
 20
4.185671048817493
 30
0.0
 11
58.46820943176067
 21
4.585671048817438
 31
0.0
  0
LINE
  5
112
330
2
100
AcDbEntity
  8
3
100
AcDbLine
 10
57.16820943176069
 20
4.585671048817438
 30
0.0
 11
57.59820943176066
 21
4.585671048817438
 31
0.0
  0
LINE
  5
113
330
2
100
AcDbEntity
  8
3
100
AcDbLine
 10
57.81820943176069
 20
4.585671048817459
 30
0.0
 11
58.2482094317607
 21
4.585671048817438
 31
0.0
  0
LINE
  5
114
330
2
100
AcDbEntity
  8
3
100
AcDbLine
 10
57.59820943176066
 20
4.185671048817493
 30
0.0
 11
57.48320943176068
 21
4.185671048817493
 31
0.0
  0
LINE
  5
115
330
2
100
AcDbEntity
  8
3
100
AcDbLine
 10
57.9332094317607
 20
3.96567104881749
 30
0.0
 11
57.48320943176068
 21
3.965671048817462
 31
0.0
  0
LINE
  5
116
330
2
100
AcDbEntity
  8
3
100
AcDbLine
 10
57.28320943176067
 20
3.96567104881749
 30
0.0
 11
57.28320943176067
 21
4.185671048817461
 31
0.0
  0
LINE
  5
117
330
2
100
AcDbEntity
  8
3
100
AcDbLine
 10
57.28320943176067
 20
4.185671048817461
 30
0.0
 11
57.16820943176069
 21
4.185671048817493
 31
0.0
  0
LINE
  5
118
330
2
100
AcDbEntity
  8
3
100
AcDbLine
 10
57.48320943176068
 20
3.965671048817462
 30
0.0
 11
57.48320943176068
 21
4.185671048817493
 31
0.0
  0
LINE
  5
119
330
2
100
AcDbEntity
  8
3
100
AcDbLine
 10
58.2482094317607
 20
4.185671048817493
 30
0.0
 11
58.13320943176069
 21
4.185671048817493
 31
0.0
  0
LINE
  5
11A
330
2
100
AcDbEntity
  8
3
100
AcDbLine
 10
58.13320943176069
 20
3.965671048817462
 30
0.0
 11
58.13320943176069
 21
4.185671048817493
 31
0.0
  0
LINE
  5
11B
330
2
100
AcDbEntity
  8
3
100
AcDbLine
 10
57.9332094317607
 20
3.96567104881749
 30
0.0
 11
57.9332094317607
 21
4.185671048817461
 31
0.0
  0
LINE
  5
11C
330
2
100
AcDbEntity
  8
3
100
AcDbLine
 10
57.9332094317607
 20
4.185671048817461
 30
0.0
 11
57.81820943176069
 21
4.185671048817493
 31
0.0
  0
LINE
  5
11D
330
2
100
AcDbEntity
  8
3
100
AcDbLine
 10
57.16820943176069
 20
4.185671048817493
 30
0.0
 11
57.16820943176069
 21
4.585671048817438
 31
0.0
  0
LINE
  5
11E
330
2
100
AcDbEntity
  8
3
100
AcDbLine
 10
58.2482094317607
 20
4.185671048817493
 30
0.0
 11
58.2482094317607
 21
4.585671048817438
 31
0.0
  0
LINE
  5
11F
330
2
100
AcDbEntity
  8
3
100
AcDbLine
 10
57.81820943176069
 20
4.185671048817493
 30
0.0
 11
57.81820943176069
 21
4.585671048817459
 31
0.0
  0
LINE
  5
120
330
2
100
AcDbEntity
  8
3
100
AcDbLine
 10
57.59820943176066
 20
4.185671048817493
 30
0.0
 11
57.59820943176066
 21
4.585671048817438
 31
0.0
  0
LINE
  5
121
330
2
100
AcDbEntity
  8
3
100
AcDbLine
 10
58.58320943176069
 20
3.96567104881749
 30
0.0
 11
58.13320943176069
 21
3.965671048817462
 31
0.0
  0
LINE
  5
122
330
2
100
AcDbEntity
  8
3
100
AcDbLine
 10
60.84820943176069
 20
4.585671048817459
 30
0.0
 11
60.41820943176069
 21
4.585671048817438
 31
0.0
  0
LINE
  5
123
330
2
100
AcDbEntity
  8
3
100
AcDbLine
 10
60.19820943176068
 20
4.585671048817438
 30
0.0
 11
59.76820943176068
 21
4.585671048817438
 31
0.0
  0
LINE
  5
124
330
2
100
AcDbEntity
  8
3
100
AcDbLine
 10
59.54820943176071
 20
4.585671048817459
 30
0.0
 11
59.11820943176071
 21
4.585671048817438
 31
0.0
  0
LINE
  5
125
330
2
100
AcDbEntity
  8
3
100
AcDbLine
 10
60.41820943176069
 20
4.185671048817493
 30
0.0
 11
60.53320943176067
 21
4.185671048817493
 31
0.0
  0
LINE
  5
126
330
2
100
AcDbEntity
  8
3
100
AcDbLine
 10
60.53320943176067
 20
3.965671048817462
 30
0.0
 11
60.53320943176067
 21
4.185671048817493
 31
0.0
  0
LINE
  5
127
330
2
100
AcDbEntity
  8
3
100
AcDbLine
 10
60.0832094317607
 20
4.185671048817461
 30
0.0
 11
60.19820943176068
 21
4.185671048817493
 31
0.0
  0
LINE
  5
128
330
2
100
AcDbEntity
  8
3
100
AcDbLine
 10
60.0832094317607
 20
3.96567104881749
 30
0.0
 11
60.0832094317607
 21
4.185671048817461
 31
0.0
  0
LINE
  5
129
330
2
100
AcDbEntity
  8
3
100
AcDbLine
 10
59.23320943176069
 20
3.965671048817462
 30
0.0
 11
59.23320943176069
 21
4.185671048817493
 31
0.0
  0
LINE
  5
12A
330
2
100
AcDbEntity
  8
3
100
AcDbLine
 10
59.11820943176071
 20
4.185671048817493
 30
0.0
 11
59.23320943176069
 21
4.185671048817493
 31
0.0
  0
LINE
  5
12B
330
2
100
AcDbEntity
  8
3
100
AcDbLine
 10
59.88320943176069
 20
3.965671048817462
 30
0.0
 11
59.88320943176069
 21
4.185671048817493
 31
0.0
  0
LINE
  5
12C
330
2
100
AcDbEntity
  8
3
100
AcDbLine
 10
59.43320943176072
 20
4.185671048817461
 30
0.0
 11
59.54820943176071
 21
4.185671048817493
 31
0.0
  0
LINE
  5
12D
330
2
100
AcDbEntity
  8
3
100
AcDbLine
 10
59.43320943176072
 20
3.96567104881749
 30
0.0
 11
59.43320943176072
 21
4.185671048817461
 31
0.0
  0
LINE
  5
12E
330
2
100
AcDbEntity
  8
3
100
AcDbLine
 10
59.43320943176072
 20
3.96567104881749
 30
0.0
 11
59.88320943176069
 21
3.965671048817462
 31
0.0
  0
LINE
  5
12F
330
2
100
AcDbEntity
  8
3
100
AcDbLine
 10
59.76820943176068
 20
4.185671048817493
 30
0.0
 11
59.88320943176069
 21
4.185671048817493
 31
0.0
  0
LINE
  5
130
330
2
100
AcDbEntity
  8
3
100
AcDbLine
 10
60.0832094317607
 20
3.96567104881749
 30
0.0
 11
60.53320943176067
 21
3.965671048817462
 31
0.0
  0
LINE
  5
131
330
2
100
AcDbEntity
  8
3
100
AcDbLine
 10
59.11820943176071
 20
4.185671048817493
 30
0.0
 11
59.11820943176071
 21
4.585671048817438
 31
0.0
  0
LINE
  5
132
330
2
100
AcDbEntity
  8
3
100
AcDbLine
 10
58.89820943176069
 20
4.185671048817493
 30
0.0
 11
58.89820943176069
 21
4.585671048817516
 31
0.0
  0
LINE
  5
133
330
2
100
AcDbEntity
  8
3
100
AcDbLine
 10
60.41820943176069
 20
4.185671048817493
 30
0.0
 11
60.41820943176069
 21
4.585671048817438
 31
0.0
  0
LINE
  5
134
330
2
100
AcDbEntity
  8
3
100
AcDbLine
 10
60.19820943176068
 20
4.185671048817493
 30
0.0
 11
60.19820943176068
 21
4.585671048817438
 31
0.0
  0
LINE
  5
135
330
2
100
AcDbEntity
  8
3
100
AcDbLine
 10
59.76820943176068
 20
4.185671048817493
 30
0.0
 11
59.76820943176068
 21
4.585671048817438
 31
0.0
  0
LINE
  5
136
330
2
100
AcDbEntity
  8
3
100
AcDbLine
 10
59.54820943176071
 20
4.185671048817493
 30
0.0
 11
59.54820943176071
 21
4.585671048817459
 31
0.0
  0
LINE
  5
137
330
2
100
AcDbEntity
  8
2
100
AcDbLine
 10
61.49820943176077
 20
4.385671048805459
 30
0.0
 11
61.29550943176065
 21
4.385671048805459
 31
0.0
  0
LINE
  5
138
330
2
100
AcDbEntity
  8
3D
100
AcDbLine
 10
60.78070943176069
 20
3.14267104881749
 30
0.0
 11
60.98320943176068
 21
3.14267104881749
 31
0.0
  0
LINE
  5
139
330
2
100
AcDbEntity
  8
3D
100
AcDbLine
 10
60.78070943176069
 20
2.685671048817496
 30
0.0
 11
60.98320943176067
 21
2.685671048817496
 31
0.0
  0
LINE
  5
13A
330
2
100
AcDbEntity
  8
3
100
AcDbLine
 10
61.49820943176047
 20
4.585671048817459
 30
0.0
 11
61.06820943176069
 21
4.585671048817459
 31
0.0
  0
LINE
  5
13B
330
2
100
AcDbEntity
  8
3
100
AcDbLine
 10
60.73320943176068
 20
3.96567104881749
 30
0.0
 11
61.06820943176069
 21
3.96567104881749
 31
0.0
  0
LINE
  5
13C
330
2
100
AcDbEntity
  8
3
100
AcDbLine
 10
62.83020943176072
 20
2.635671048817712
 30
0.0
 11
60.98320943176071
 21
2.635671048817563
 31
0.0
  0
LINE
  5
13D
330
2
100
AcDbEntity
  8
3
100
AcDbLine
 10
61.29550943176069
 20
2.508671048817497
 30
0.0
 11
60.98320943176067
 21
2.508671048817497
 31
0.0
  0
ARC
  5
13E
330
2
100
AcDbEntity
  8
3
100
AcDbCircle
 10
60.85620943176071
 20
3.658671048817531
 30
0.0
 40
0.1269999999999989
100
AcDbArc
 50
0.0
 51
90.00004065716586
  0
LINE
  5
13F
330
2
100
AcDbEntity
  8
3
100
AcDbLine
 10
60.78070943176069
 20
3.215671048817547
 30
0.0
 11
60.60070943176066
 21
3.215671048817547
 31
0.0
  0
LINE
  5
140
330
2
100
AcDbEntity
  8
3
100
AcDbLine
 10
60.98320943176071
 20
3.645671048817497
 30
0.0
 11
60.98320943176071
 21
3.658671048817531
 31
0.0
  0
LINE
  5
141
330
2
100
AcDbEntity
  8
3
100
AcDbLine
 10
60.98320943176071
 20
2.635671048817563
 30
0.0
 11
60.98320943176071
 21
3.645671048817497
 31
0.0
  0
LINE
  5
142
330
2
100
AcDbEntity
  8
3
100
AcDbLine
 10
60.73320943176068
 20
4.185671048817461
 30
0.0
 11
60.84820943176069
 21
4.185671048817493
 31
0.0
  0
LINE
  5
143
330
2
100
AcDbEntity
  8
3
100
AcDbLine
 10
60.73320943176068
 20
3.96567104881749
 30
0.0
 11
60.73320943176068
 21
4.185671048817461
 31
0.0
  0
LINE
  5
144
330
2
100
AcDbEntity
  8
3
100
AcDbLine
 10
61.29550943176065
 20
4.385671048805459
 30
0.0
 11
61.29550943176065
 21
3.835671048821541
 31
0.0
  0
LINE
  5
145
330
2
100
AcDbEntity
  8
3
100
AcDbLine
 10
60.84820943176069
 20
4.185671048817493
 30
0.0
 11
60.84820943176069
 21
4.585671048817459
 31
0.0
  0
LINE
  5
146
330
2
100
AcDbEntity
  8
3
100
AcDbLine
 10
61.06820943176069
 20
3.96567104881749
 30
0.0
 11
61.06820943176069
 21
4.585671048817459
 31
0.0
  0
LINE
  5
147
330
2
100
AcDbEntity
  8
3
100
AcDbLine
 10
61.49820943176077
 20
4.385671048805459
 30
0.0
 11
61.49820943176077
 21
4.585671048817459
 31
0.0
  0
LINE
  5
148
330
2
100
AcDbEntity
  8
3D
  6
HIDDEN2
100
AcDbLine
 10
56.09820943176072
 20
0.0056710488174936
 30
0.0
 11
56.09820943176072
 21
4.365671048817493
 31
0.0
  0
LINE
  5
149
330
2
100
AcDbEntity
  8
3D
  6
HIDDEN2
100
AcDbLine
 10
61.26820943176068
 20
4.365671048817493
 30
0.0
 11
61.26820943176068
 21
0.0056710488174936
 31
0.0
  0
LINE
  5
14A
330
2
100
AcDbEntity
  8
3D
  6
HIDDEN2
100
AcDbLine
 10
56.2982094317607
 20
0.1856710488174933
 30
0.0
 11
61.06820943176069
 21
0.1856710488174791
 31
0.0
  0
LINE
  5
14B
330
2
100
AcDbEntity
  8
3D
  6
HIDDEN2
100
AcDbLine
 10
61.26820943176068
 20
0.0056710488174936
 30
0.0
 11
56.09820943176072
 21
0.0056710488174936
 31
0.0
  0
LINE
  5
14C
330
2
100
AcDbEntity
  8
3
100
AcDbLine
 10
54.53620943176066
 20
3.835671048821406
 30
0.0
 11
56.07090943176074
 21
3.835671048821541
 31
0.0
  0
LINE
  5
14D
330
2
100
AcDbEntity
  8
3
100
AcDbLine
 10
62.83020943176075
 20
3.835671048821406
 30
0.0
 11
61.29550943176065
 21
3.835671048821541
 31
0.0
  0
LINE
  5
14E
330
2
100
AcDbEntity
  8
2
100
AcDbLine
 10
62.83020943176075
 20
3.835671048821406
 30
0.0
 11
62.83020943176072
 21
2.635671048817712
 31
0.0
  0
LINE
  5
14F
330
2
100
AcDbEntity
  8
2
100
AcDbLine
 10
54.53620943176066
 20
3.835671048821406
 30
0.0
 11
54.53620943176071
 21
2.635671048817563
 31
0.0
  0
ENDSEC
  0
SECTION
  2
OBJECTS
  0
DICTIONARY
  5
B
330
0
100
AcDbDictionary
281
     1
  3
ACAD_COLOR
350
44
  3
ACAD_GROUP
350
31
  3
ACAD_LAYOUT
350
18
  3
ACAD_MATERIAL
350
D
  3
ACAD_MLEADERSTYLE
350
47
  3
ACAD_MLINESTYLE
350
32
  3
ACAD_PLOTSETTINGS
350
33
  3
ACAD_PLOTSTYLENAME
350
A
  3
ACAD_SCALELIST
350
45
  3
ACAD_TABLESTYLE
350
46
  3
ACAD_VISUALSTYLE
350
2B
  3
ACDB_RECOMPOSE_DATA
350
152
  3
ACDBVARIABLEDICTIONARY
350
48
  0
DICTIONARY
  5
7
330
6
100
AcDbDictionary
280
     1
281
     1
  3
ADSK_XREC_LAYER_RECONCILED
360
8
  0
DICTIONARY
  5
58
330
57
100
AcDbDictionary
280
     1
281
     1
  3
ADSK_XREC_LAYER_RECONCILED
360
59
  0
DICTIONARY
  5
7E
330
7D
100
AcDbDictionary
280
     1
281
     1
  3
ADSK_XREC_LAYER_RECONCILED
360
7F
  0
DICTIONARY
  5
74
330
73
100
AcDbDictionary
280
     1
281
     1
  3
ADSK_XREC_LAYER_RECONCILED
360
75
  0
DICTIONARY
  5
A2
330
A1
100
AcDbDictionary
280
     1
281
     1
  3
ADSK_XREC_LAYER_RECONCILED
360
A3
  0
DICTIONARY
  5
3
330
2
100
AcDbDictionary
280
     1
281
     1
  3
ACAD_LAYOUTSELFREF
360
4
  0
DICTIONARY
  5
1A
330
19
100
AcDbDictionary
280
     1
281
     1
  3
ACAD_LAYOUTSELFREF
360
1B
  0
DICTIONARY
  5
44
102
{ACAD_REACTORS
330
B
102
}
330
B
100
AcDbDictionary
281
     1
  0
DICTIONARY
  5
31
102
{ACAD_REACTORS
330
B
102
}
330
B
100
AcDbDictionary
281
     1
  0
DICTIONARY
  5
18
102
{ACAD_REACTORS
330
B
102
}
330
B
100
AcDbDictionary
281
     1
  3
LAYOUT1
350
1E
  3
MODEL
350
17
  0
DICTIONARY
  5
D
102
{ACAD_REACTORS
330
B
102
}
330
B
100
AcDbDictionary
281
     1
  3
ByBlock
350
3C
  3
ByLayer
350
34
  3
Global
350
C
  0
DICTIONARY
  5
47
102
{ACAD_REACTORS
330
B
102
}
330
B
100
AcDbDictionary
281
     1
  0
DICTIONARY
  5
32
102
{ACAD_REACTORS
330
B
102
}
330
B
100
AcDbDictionary
281
     1
  3
STANDARD
350
5B
  0
DICTIONARY
  5
33
102
{ACAD_REACTORS
330
B
102
}
330
B
100
AcDbDictionary
281
     1
  0
ACDBDICTIONARYWDFLT
  5
A
102
{ACAD_REACTORS
330
B
102
}
330
B
100
AcDbDictionary
281
     1
  3
Normal
350
9
100
AcDbDictionaryWithDefault
340
9
  0
DICTIONARY
  5
45
102
{ACAD_REACTORS
330
B
102
}
330
B
100
AcDbDictionary
281
     1
  3
A0
350
61
  3
A1
350
62
  3
A2
350
63
  3
A3
350
64
  3
A4
350
65
  3
A5
350
66
  3
A6
350
67
  3
A7
350
68
  3
A8
350
69
  3
A9
350
6A
  3
B0
350
6B
  3
B1
350
6C
  3
B2
350
6D
  3
B3
350
6E
  3
B4
350
6F
  3
B5
350
70
  3
B6
350
71
  0
DICTIONARY
  5
46
102
{ACAD_REACTORS
330
B
102
}
330
B
100
AcDbDictionary
281
     1
  3
Standard
350
5C
  0
DICTIONARY
  5
2B
102
{ACAD_REACTORS
330
B
102
}
330
B
100
AcDbDictionary
281
     1
  3
2dWireframe
350
2A
  3
Realistic
350
5E
  3
Wireframe
350
5F
  0
XRECORD
  5
152
102
{ACAD_REACTORS
330
B
102
}
330
B
100
AcDbXrecord
280
     1
 90
        1
330
5C
  0
DICTIONARY
  5
48
102
{ACAD_REACTORS
330
B
102
}
330
B
100
AcDbDictionary
281
     1
  3
CANNOSCALE
350
49
  3
CMLEADERSTYLE
350
4A
  3
CTABLESTYLE
350
4B
  3
CVIEWDETAILSTYLE
350
4C
  3
CVIEWSECTIONSTYLE
350
4D
  3
DIMADEC
350
4E
  3
DIMASSOC
350
4F
  3
HIDETEXT
350
50
  3
INDEXCTL
350
51
  3
LAYEREVAL
350
52
  3
LAYERNOTIFY
350
53
  3
LIGHTINGUNITS
350
54
  3
MSLTSCALE
350
55
  3
SORTENTS
350
56
  0
XRECORD
  5
8
102
{ACAD_REACTORS
330
7
102
}
330
7
100
AcDbXrecord
280
     1
290
     1
  0
XRECORD
  5
59
102
{ACAD_REACTORS
330
58
102
}
330
58
100
AcDbXrecord
280
     1
290
     1
  0
XRECORD
  5
7F
102
{ACAD_REACTORS
330
7E
102
}
330
7E
100
AcDbXrecord
280
     1
290
     1
  0
XRECORD
  5
75
102
{ACAD_REACTORS
330
74
102
}
330
74
100
AcDbXrecord
280
     1
290
     1
  0
XRECORD
  5
A3
102
{ACAD_REACTORS
330
A2
102
}
330
A2
100
AcDbXrecord
280
     1
290
     1
  0
XRECORD
  5
4
102
{ACAD_REACTORS
330
3
102
}
330
3
100
AcDbXrecord
280
     1
340
2
  0
XRECORD
  5
1B
102
{ACAD_REACTORS
330
1A
102
}
330
1A
100
AcDbXrecord
280
     1
340
19
  0
LAYOUT
  5
1E
102
{ACAD_REACTORS
330
18
102
}
330
18
100
AcDbPlotSettings
  1

  2
\\ATS1\2FL_CADRM
  4

  6

 40
0.0
 41
0.0
 42
0.0
 43
0.0
 44
0.0
 45
0.0
 46
0.0
 47
0.0
 48
0.0
 49
0.0
140
0.0
141
0.0
142
1.0
143
1.0
 70
   688
 72
     0
 73
     0
 74
     5
  7
monochrome.ctb
 75
    16
147
1.0
 76
     0
 77
     2
 78
   300
148
0.0
149
0.0
100
AcDbLayout
  1
LAYOUT1
 70
     1
 71
     1
 10
0.0
 20
0.0
 11
12.0
 21
9.0
 12
0.0
 22
0.0
 32
0.0
 14
1.000000000000000E+20
 24
1.000000000000000E+20
 34
1.000000000000000E+20
 15
-1.000000000000000E+20
 25
-1.000000000000000E+20
 35
-1.000000000000000E+20
146
0.0
 13
0.0
 23
0.0
 33
0.0
 16
1.0
 26
0.0
 36
0.0
 17
0.0
 27
1.0
 37
0.0
 76
     0
330
19
  0
LAYOUT
  5
17
102
{ACAD_REACTORS
330
18
102
}
330
18
100
AcDbPlotSettings
  1

  2
\\ATS1\2FL_CADRM
  4
A4
  6

 40
5.746749877929687
 41
5.365768432617186
 42
5.70440673828125
 43
5.746734619140625
 44
209.8886566162109
 45
297.0530090332031
 46
0.0
 47
0.0
 48
-364.0199534003327
 49
-23.32315770249214
140
-336.5061974063503
141
16.53621666790359
142
1.0
143
0.1393974394554027
 70
   177
 72
     1
 73
     0
 74
     4
  7
monochrome.ctb
 75
     0
147
7.173732917238621
 76
     0
 77
     2
 78
   300
148
364.0199534003327
149
23.32315770249214
100
AcDbLayout
  1
MODEL
 70
     1
 71
     0
 10
0.0
 20
0.0
 11
12.0
 21
9.0
 12
0.0
 22
0.0
 32
0.0
 14
0.0
 24
0.0
 34
0.0
 15
0.0
 25
0.0
 35
0.0
146
0.0
 13
0.0
 23
0.0
 33
0.0
 16
1.0
 26
0.0
 36
0.0
 17
0.0
 27
1.0
 37
0.0
 76
     0
330
2
331
29
  0
MATERIAL
  5
3C
102
{ACAD_XDICTIONARY
360
3D
102
}
102
{ACAD_REACTORS
330
D
102
}
330
D
100
AcDbMaterial
  1
ByBlock
 72
     0
 43
0.0208333333333333
 43
0.0
 43
0.0
 43
0.0
 43
0.0
 43
0.0208333333333333
 43
0.0
 43
0.0
 43
0.0
 43
0.0
 43
1.0
 43
0.0
 43
0.0
 43
0.0
 43
0.0
 43
1.0
 77
     0
 47
0.0208333333333333
 47
0.0
 47
0.0
 47
0.0
 47
0.0
 47
0.0208333333333333
 47
0.0
 47
0.0
 47
0.0
 47
0.0
 47
1.0
 47
0.0
 47
0.0
 47
0.0
 47
0.0
 47
1.0
171
     0
 49
0.0208333333333333
 49
0.0
 49
0.0
 49
0.0
 49
0.0
 49
0.0208333333333333
 49
0.0
 49
0.0
 49
0.0
 49
0.0
 49
1.0
 49
0.0
 49
0.0
 49
0.0
 49
0.0
 49
1.0
175
     0
142
0.0208333333333333
142
0.0
142
0.0
142
0.0
142
0.0
142
0.0208333333333333
142
0.0
142
0.0
142
0.0
142
0.0
142
1.0
142
0.0
142
0.0
142
0.0
142
0.0
142
1.0
179
     0
144
0.0208333333333333
144
0.0
144
0.0
144
0.0
144
0.0
144
0.0208333333333333
144
0.0
144
0.0
144
0.0
144
0.0
144
1.0
144
0.0
144
0.0
144
0.0
144
0.0
144
1.0
147
0.0208333333333333
147
0.0
147
0.0
147
0.0
147
0.0
147
0.0208333333333333
147
0.0
147
0.0
147
0.0
147
0.0
147
1.0
147
0.0
147
0.0
147
0.0
147
0.0
147
1.0
  0
MATERIAL
  5
34
102
{ACAD_XDICTIONARY
360
35
102
}
102
{ACAD_REACTORS
330
D
102
}
330
D
100
AcDbMaterial
  1
ByLayer
 72
     0
 43
0.0208333333333333
 43
0.0
 43
0.0
 43
0.0
 43
0.0
 43
0.0208333333333333
 43
0.0
 43
0.0
 43
0.0
 43
0.0
 43
1.0
 43
0.0
 43
0.0
 43
0.0
 43
0.0
 43
1.0
 77
     0
 47
0.0208333333333333
 47
0.0
 47
0.0
 47
0.0
 47
0.0
 47
0.0208333333333333
 47
0.0
 47
0.0
 47
0.0
 47
0.0
 47
1.0
 47
0.0
 47
0.0
 47
0.0
 47
0.0
 47
1.0
171
     0
 49
0.0208333333333333
 49
0.0
 49
0.0
 49
0.0
 49
0.0
 49
0.0208333333333333
 49
0.0
 49
0.0
 49
0.0
 49
0.0
 49
1.0
 49
0.0
 49
0.0
 49
0.0
 49
0.0
 49
1.0
175
     0
142
0.0208333333333333
142
0.0
142
0.0
142
0.0
142
0.0
142
0.0208333333333333
142
0.0
142
0.0
142
0.0
142
0.0
142
1.0
142
0.0
142
0.0
142
0.0
142
0.0
142
1.0
179
     0
144
0.0208333333333333
144
0.0
144
0.0
144
0.0
144
0.0
144
0.0208333333333333
144
0.0
144
0.0
144
0.0
144
0.0
144
1.0
144
0.0
144
0.0
144
0.0
144
0.0
144
1.0
147
0.0208333333333333
147
0.0
147
0.0
147
0.0
147
0.0
147
0.0208333333333333
147
0.0
147
0.0
147
0.0
147
0.0
147
1.0
147
0.0
147
0.0
147
0.0
147
0.0
147
1.0
  0
MATERIAL
  5
C
102
{ACAD_XDICTIONARY
360
E
102
}
102
{ACAD_REACTORS
330
D
102
}
330
D
100
AcDbMaterial
  1
Global
 72
     0
 43
0.0208333333333333
 43
0.0
 43
0.0
 43
0.0
 43
0.0
 43
0.0208333333333333
 43
0.0
 43
0.0
 43
0.0
 43
0.0
 43
1.0
 43
0.0
 43
0.0
 43
0.0
 43
0.0
 43
1.0
 77
     0
 47
0.0208333333333333
 47
0.0
 47
0.0
 47
0.0
 47
0.0
 47
0.0208333333333333
 47
0.0
 47
0.0
 47
0.0
 47
0.0
 47
1.0
 47
0.0
 47
0.0
 47
0.0
 47
0.0
 47
1.0
171
     0
 49
0.0208333333333333
 49
0.0
 49
0.0
 49
0.0
 49
0.0
 49
0.0208333333333333
 49
0.0
 49
0.0
 49
0.0
 49
0.0
 49
1.0
 49
0.0
 49
0.0
 49
0.0
 49
0.0
 49
1.0
175
     0
142
0.0208333333333333
142
0.0
142
0.0
142
0.0
142
0.0
142
0.0208333333333333
142
0.0
142
0.0
142
0.0
142
0.0
142
1.0
142
0.0
142
0.0
142
0.0
142
0.0
142
1.0
179
     0
144
0.0208333333333333
144
0.0
144
0.0
144
0.0
144
0.0
144
0.0208333333333333
144
0.0
144
0.0
144
0.0
144
0.0
144
1.0
144
0.0
144
0.0
144
0.0
144
0.0
144
1.0
147
0.0208333333333333
147
0.0
147
0.0
147
0.0
147
0.0
147
0.0208333333333333
147
0.0
147
0.0
147
0.0
147
0.0
147
1.0
147
0.0
147
0.0
147
0.0
147
0.0
147
1.0
  0
MLINESTYLE
  5
5B
102
{ACAD_REACTORS
330
32
102
}
330
32
100
AcDbMlineStyle
  2
STANDARD
 70
     0
  3

 62
   256
 51
90.0
 52
90.0
 71
     2
 49
0.5
 62
   256
  6
BYLAYER
 49
-0.5
 62
   256
  6
BYLAYER
  0
ACDBPLACEHOLDER
  5
9
102
{ACAD_REACTORS
330
A
102
}
330
A
  0
SCALE
  5
61
102
{ACAD_REACTORS
330
45
102
}
330
45
100
AcDbScale
 70
     0
300
1:1
140
1.0
141
1.0
290
     1
  0
SCALE
  5
62
102
{ACAD_REACTORS
330
45
102
}
330
45
100
AcDbScale
 70
     0
300
1/128" = 1'-0"
140
0.0078125
141
12.0
290
     0
  0
SCALE
  5
63
102
{ACAD_REACTORS
330
45
102
}
330
45
100
AcDbScale
 70
     0
300
1/64" = 1'-0"
140
0.015625
141
12.0
290
     0
  0
SCALE
  5
64
102
{ACAD_REACTORS
330
45
102
}
330
45
100
AcDbScale
 70
     0
300
1/32" = 1'-0"
140
0.03125
141
12.0
290
     0
  0
SCALE
  5
65
102
{ACAD_REACTORS
330
45
102
}
330
45
100
AcDbScale
 70
     0
300
1/16" = 1'-0"
140
0.0625
141
12.0
290
     0
  0
SCALE
  5
66
102
{ACAD_REACTORS
330
45
102
}
330
45
100
AcDbScale
 70
     0
300
3/32" = 1'-0"
140
0.09375
141
12.0
290
     0
  0
SCALE
  5
67
102
{ACAD_REACTORS
330
45
102
}
330
45
100
AcDbScale
 70
     0
300
1/8" = 1'-0"
140
0.125
141
12.0
290
     0
  0
SCALE
  5
68
102
{ACAD_REACTORS
330
45
102
}
330
45
100
AcDbScale
 70
     0
300
3/16" = 1'-0"
140
0.1875
141
12.0
290
     0
  0
SCALE
  5
69
102
{ACAD_REACTORS
330
45
102
}
330
45
100
AcDbScale
 70
     0
300
1/4" = 1'-0"
140
0.25
141
12.0
290
     0
  0
SCALE
  5
6A
102
{ACAD_REACTORS
330
45
102
}
330
45
100
AcDbScale
 70
     0
300
3/8" = 1'-0"
140
0.375
141
12.0
290
     0
  0
SCALE
  5
6B
102
{ACAD_REACTORS
330
45
102
}
330
45
100
AcDbScale
 70
     0
300
1/2" = 1'-0"
140
0.5
141
12.0
290
     0
  0
SCALE
  5
6C
102
{ACAD_REACTORS
330
45
102
}
330
45
100
AcDbScale
 70
     0
300
3/4" = 1'-0"
140
0.75
141
12.0
290
     0
  0
SCALE
  5
6D
102
{ACAD_REACTORS
330
45
102
}
330
45
100
AcDbScale
 70
     0
300
1" = 1'-0"
140
1.0
141
12.0
290
     0
  0
SCALE
  5
6E
102
{ACAD_REACTORS
330
45
102
}
330
45
100
AcDbScale
 70
     0
300
1-1/2" = 1'-0"
140
1.5
141
12.0
290
     0
  0
SCALE
  5
6F
102
{ACAD_REACTORS
330
45
102
}
330
45
100
AcDbScale
 70
     0
300
3" = 1'-0"
140
3.0
141
12.0
290
     0
  0
SCALE
  5
70
102
{ACAD_REACTORS
330
45
102
}
330
45
100
AcDbScale
 70
     0
300
6" = 1'-0"
140
6.0
141
12.0
290
     0
  0
SCALE
  5
71
102
{ACAD_REACTORS
330
45
102
}
330
45
100
AcDbScale
 70
     0
300
1'-0" = 1'-0"
140
12.0
141
12.0
290
     0
  0
TABLESTYLE
  5
5C
102
{ACAD_XDICTIONARY
360
5D
102
}
102
{ACAD_REACTORS
330
46
102
}
330
46
100
AcDbTableStyle
280
     0
  3
Standard
 70
     0
 71
     0
 40
0.06
 41
0.06
280
     0
281
     0
  7
Standard
140
0.18
170
     2
 62
     0
 63
     7
283
     0
 90
      512
 91
        0
  1

274
    -2
284
     1
 64
     0
275
    -2
285
     1
 65
     0
276
    -2
286
     1
 66
     0
277
    -2
287
     1
 67
     0
278
    -2
288
     1
 68
     0
279
    -2
289
     1
 69
     0
  7
Standard
140
0.25
170
     5
 62
     0
 63
     7
283
     0
 90
      512
 91
        0
  1

274
    -2
284
     1
 64
     0
275
    -2
285
     1
 65
     0
276
    -2
286
     1
 66
     0
277
    -2
287
     1
 67
     0
278
    -2
288
     1
 68
     0
279
    -2
289
     1
 69
     0
  7
Standard
140
0.18
170
     5
 62
     0
 63
     7
283
     0
 90
      512
 91
        0
  1

274
    -2
284
     1
 64
     0
275
    -2
285
     1
 65
     0
276
    -2
286
     1
 66
     0
277
    -2
287
     1
 67
     0
278
    -2
288
     1
 68
     0
279
    -2
289
     1
 69
     0
  0
VISUALSTYLE
  5
2A
102
{ACAD_REACTORS
330
2B
102
}
330
2B
100
AcDbVisualStyle
  2
2dWireframe
 70
     4
177
     3
291
     0
 70
    58
 90
        0
176
     1
 90
        2
176
     1
 90
        0
176
     1
 90
        0
176
     1
 40
0.6
176
     1
 40
30.0
176
     1
 62
     7
420
 16777215
176
     1
 90
        1
176
     1
 90
        4
176
     1
 62
     7
176
     1
 62
   257
176
     1
 90
        1
176
     1
 90
        1
176
     1
 40
1.0
176
     1
 90
        0
176
     1
 62
   257
176
     1
 40
1.0
176
     1
 90
        1
176
     1
 90
        6
176
     1
 90
        2
176
     1
 62
     7
176
     1
 90
        5
176
     1
 90
        0
176
     1
 90
        0
176
     1
290
     0
176
     1
 90
        1
176
     1
 40
0.0
176
     1
 90
        0
176
     1
290
     1
176
     1
290
     1
176
     1
290
     0
176
     1
290
     0
176
     1
290
     0
176
     1
290
     0
176
     1
290
     0
176
     1
290
     0
176
     1
290
     0
176
     1
 90
       50
176
     1
 40
0.0
176
     1
 40
1.0
176
     1
 90
        0
176
     1
 62
    18
176
     1
 90
       50
176
     1
 90
        3
176
     1
 62
     5
420
      255
176
     1
290
     0
176
     1
 90
       50
176
     1
 90
       50
176
     1
 90
       50
176
     1
290
     0
176
     1
 90
       50
176
     1
 62
   256
176
     0
 40
1.0
176
     0
 90
        2
176
     1
  1
strokes_ogs.tif
176
     1
290
     0
176
     1
 40
1.0
176
     1
 40
1.0
176
     1
  0
VISUALSTYLE
  5
5E
102
{ACAD_REACTORS
330
2B
102
}
330
2B
100
AcDbVisualStyle
  2
Realistic
 70
     8
177
     3
291
     0
 70
    58
 90
        2
176
     1
 90
        3
176
     1
 90
        0
176
     1
 90
        2
176
     1
 40
0.6
176
     1
 40
30.0
176
     1
 62
     7
420
 16777215
176
     1
 90
        0
176
     1
 90
        0
176
     1
 62
     7
176
     1
 62
   257
176
     1
 90
        1
176
     1
 90
        1
176
     1
 40
1.0
176
     1
 90
        8
176
     1
 62
   257
176
     1
 40
1.0
176
     1
 90
        1
176
     1
 90
        6
176
     1
 90
        2
176
     1
 62
     7
176
     1
 90
        3
176
     1
 90
        0
176
     1
 90
        0
176
     1
290
     0
176
     1
 90
       13
176
     1
 40
0.0
176
     1
 90
        0
176
     1
290
     0
176
     1
290
     1
176
     1
290
     1
176
     1
290
     0
176
     1
290
     0
176
     1
290
     0
176
     1
290
     0
176
     1
290
     0
176
     1
290
     0
176
     1
 90
       50
176
     1
 40
0.0
176
     1
 40
1.0
176
     1
 90
        0
176
     1
 62
    18
176
     1
 90
       50
176
     1
 90
        3
176
     1
 62
     5
420
      255
176
     1
290
     0
176
     1
 90
       50
176
     1
 90
       50
176
     1
 90
       50
176
     1
290
     0
176
     1
 90
       50
176
     1
 62
   256
176
     0
 40
1.0
176
     0
 90
        2
176
     1
  1
strokes_ogs.tif
176
     1
290
     0
176
     1
 40
1.0
176
     1
 40
1.0
176
     1
  0
VISUALSTYLE
  5
5F
102
{ACAD_REACTORS
330
2B
102
}
330
2B
100
AcDbVisualStyle
  2
Wireframe
 70
     5
177
     3
291
     0
 70
    58
 90
        0
176
     1
 90
        2
176
     1
 90
        0
176
     1
 90
        0
176
     1
 40
0.6
176
     1
 40
30.0
176
     1
 62
     7
420
 16777215
176
     1
 90
        1
176
     1
 90
        4
176
     1
 62
     7
176
     1
 62
   257
176
     1
 90
        1
176
     1
 90
        1
176
     1
 40
1.0
176
     1
 90
        0
176
     1
 62
   257
176
     1
 40
1.0
176
     1
 90
        1
176
     1
 90
        6
176
     1
 90
        2
176
     1
 62
     7
176
     1
 90
        3
176
     1
 90
        0
176
     1
 90
        0
176
     1
290
     0
176
     1
 90
        1
176
     1
 40
0.0
176
     1
 90
        0
176
     1
290
     0
176
     1
290
     1
176
     1
290
     1
176
     1
290
     0
176
     1
290
     0
176
     1
290
     0
176
     1
290
     0
176
     1
290
     0
176
     1
290
     0
176
     1
 90
       50
176
     1
 40
0.0
176
     1
 40
1.0
176
     1
 90
        0
176
     1
 62
    18
176
     1
 90
       50
176
     1
 90
        3
176
     1
 62
     5
420
      255
176
     1
290
     0
176
     1
 90
       50
176
     1
 90
       50
176
     1
 90
       50
176
     1
290
     0
176
     1
 90
       50
176
     1
 62
   256
176
     0
 40
1.0
176
     0
 90
        2
176
     1
  1
strokes_ogs.tif
176
     1
290
     0
176
     1
 40
1.0
176
     1
 40
1.0
176
     1
  0
DICTIONARYVAR
  5
49
102
{ACAD_REACTORS
330
48
102
}
330
48
100
DictionaryVariables
280
     0
  1
1:1
  0
DICTIONARYVAR
  5
4A
102
{ACAD_REACTORS
330
48
102
}
330
48
100
DictionaryVariables
280
     0
  1
STANDARD
  0
DICTIONARYVAR
  5
4B
102
{ACAD_REACTORS
330
48
102
}
330
48
100
DictionaryVariables
280
     0
  1
STANDARD
  0
DICTIONARYVAR
  5
4C
102
{ACAD_REACTORS
330
48
102
}
330
48
100
DictionaryVariables
280
     0
  1

  0
DICTIONARYVAR
  5
4D
102
{ACAD_REACTORS
330
48
102
}
330
48
100
DictionaryVariables
280
     0
  1

  0
DICTIONARYVAR
  5
4E
330
48
100
DictionaryVariables
280
     0
  1
0
  0
DICTIONARYVAR
  5
4F
102
{ACAD_REACTORS
330
48
102
}
330
48
100
DictionaryVariables
280
     0
  1
0
  0
DICTIONARYVAR
  5
50
102
{ACAD_REACTORS
330
48
102
}
330
48
100
DictionaryVariables
280
     0
  1
1
  0
DICTIONARYVAR
  5
51
102
{ACAD_REACTORS
330
48
102
}
330
48
100
DictionaryVariables
280
     0
  1
1
  0
DICTIONARYVAR
  5
52
102
{ACAD_REACTORS
330
48
102
}
330
48
100
DictionaryVariables
280
     0
  1
1
  0
DICTIONARYVAR
  5
53
102
{ACAD_REACTORS
330
48
102
}
330
48
100
DictionaryVariables
280
     0
  1
15
  0
DICTIONARYVAR
  5
54
102
{ACAD_REACTORS
330
48
102
}
330
48
100
DictionaryVariables
280
     0
  1
0
  0
DICTIONARYVAR
  5
55
102
{ACAD_REACTORS
330
48
102
}
330
48
100
DictionaryVariables
280
     0
  1
0
  0
DICTIONARYVAR
  5
56
102
{ACAD_REACTORS
330
48
102
}
330
48
100
DictionaryVariables
280
     0
  1
96
  0
DICTIONARY
  5
3D
330
3C
100
AcDbDictionary
280
     1
281
     1
  3
BUMPTILE
360
3E
  3
DIFFUSETILE
360
3F
  3
OPACITYTILE
360
40
  3
REFLECTIONTILE
360
41
  3
REFRACTIONTILE
360
42
  3
SPECULARTILE
360
43
  0
DICTIONARY
  5
35
330
34
100
AcDbDictionary
280
     1
281
     1
  3
BUMPTILE
360
36
  3
DIFFUSETILE
360
37
  3
OPACITYTILE
360
38
  3
REFLECTIONTILE
360
39
  3
REFRACTIONTILE
360
3A
  3
SPECULARTILE
360
3B
  0
DICTIONARY
  5
E
330
C
100
AcDbDictionary
280
     1
281
     1
  3
BUMPTILE
360
F
  3
DIFFUSETILE
360
10
  3
OPACITYTILE
360
11
  3
REFLECTIONTILE
360
12
  3
REFRACTIONTILE
360
13
  3
SPECULARTILE
360
14
  0
DICTIONARY
  5
5D
330
5C
100
AcDbDictionary
280
     1
281
     1
  3
ACAD_ROUNDTRIP_2008_TABLESTYLE_CELLSTYLEMAP
360
151
  0
XRECORD
  5
3E
102
{ACAD_REACTORS
330
3D
102
}
330
3D
100
AcDbXrecord
280
     1
270
     1
271
     1
  0
XRECORD
  5
3F
102
{ACAD_REACTORS
330
3D
102
}
330
3D
100
AcDbXrecord
280
     1
270
     1
271
     1
  0
XRECORD
  5
40
102
{ACAD_REACTORS
330
3D
102
}
330
3D
100
AcDbXrecord
280
     1
270
     1
271
     1
  0
XRECORD
  5
41
102
{ACAD_REACTORS
330
3D
102
}
330
3D
100
AcDbXrecord
280
     1
270
     1
271
     1
  0
XRECORD
  5
42
102
{ACAD_REACTORS
330
3D
102
}
330
3D
100
AcDbXrecord
280
     1
270
     1
271
     1
  0
XRECORD
  5
43
102
{ACAD_REACTORS
330
3D
102
}
330
3D
100
AcDbXrecord
280
     1
270
     1
271
     1
  0
XRECORD
  5
36
102
{ACAD_REACTORS
330
35
102
}
330
35
100
AcDbXrecord
280
     1
270
     1
271
     1
  0
XRECORD
  5
37
102
{ACAD_REACTORS
330
35
102
}
330
35
100
AcDbXrecord
280
     1
270
     1
271
     1
  0
XRECORD
  5
38
102
{ACAD_REACTORS
330
35
102
}
330
35
100
AcDbXrecord
280
     1
270
     1
271
     1
  0
XRECORD
  5
39
102
{ACAD_REACTORS
330
35
102
}
330
35
100
AcDbXrecord
280
     1
270
     1
271
     1
  0
XRECORD
  5
3A
102
{ACAD_REACTORS
330
35
102
}
330
35
100
AcDbXrecord
280
     1
270
     1
271
     1
  0
XRECORD
  5
3B
102
{ACAD_REACTORS
330
35
102
}
330
35
100
AcDbXrecord
280
     1
270
     1
271
     1
  0
XRECORD
  5
F
102
{ACAD_REACTORS
330
E
102
}
330
E
100
AcDbXrecord
280
     1
270
     1
271
     1
  0
XRECORD
  5
10
102
{ACAD_REACTORS
330
E
102
}
330
E
100
AcDbXrecord
280
     1
270
     1
271
     1
  0
XRECORD
  5
11
102
{ACAD_REACTORS
330
E
102
}
330
E
100
AcDbXrecord
280
     1
270
     1
271
     1
  0
XRECORD
  5
12
102
{ACAD_REACTORS
330
E
102
}
330
E
100
AcDbXrecord
280
     1
270
     1
271
     1
  0
XRECORD
  5
13
102
{ACAD_REACTORS
330
E
102
}
330
E
100
AcDbXrecord
280
     1
270
     1
271
     1
  0
XRECORD
  5
14
102
{ACAD_REACTORS
330
E
102
}
330
E
100
AcDbXrecord
280
     1
270
     1
271
     1
  0
CELLSTYLEMAP
  5
151
102
{ACAD_REACTORS
330
5D
102
}
330
5D
100
AcDbCellStyleMap
 90
        3
300
CELLSTYLE
  1
TABLEFORMAT_BEGIN
 90
        5
170
     1
 91
        0
 92
    32768
 62
   257
 93
        1
300
CONTENTFORMAT
  1
CONTENTFORMAT_BEGIN
 90
        0
 91
        0
 92
      512
 93
        0
300

 40
0.0
140
1.0
 94
        5
 62
     0
340
21
144
0.25
309
CONTENTFORMAT_END
171
     1
301
MARGIN
  1
CELLMARGIN_BEGIN
 40
0.06
 40
0.06
 40
0.06
 40
0.06
 40
0.18
 40
0.18
309
CELLMARGIN_END
 94
        6
 95
        1
302
GRIDFORMAT
  1
GRIDFORMAT_BEGIN
 90
        0
 91
        1
 62
     0
 92
       -2
340
0
 93
        0
 40
0.045
309
GRIDFORMAT_END
 95
        2
302
GRIDFORMAT
  1
GRIDFORMAT_BEGIN
 90
        0
 91
        1
 62
     0
 92
       -2
340
0
 93
        0
 40
0.045
309
GRIDFORMAT_END
 95
        4
302
GRIDFORMAT
  1
GRIDFORMAT_BEGIN
 90
        0
 91
        1
 62
     0
 92
       -2
340
0
 93
        0
 40
0.045
309
GRIDFORMAT_END
 95
        8
302
GRIDFORMAT
  1
GRIDFORMAT_BEGIN
 90
        0
 91
        1
 62
     0
 92
       -2
340
0
 93
        0
 40
0.045
309
GRIDFORMAT_END
 95
       16
302
GRIDFORMAT
  1
GRIDFORMAT_BEGIN
 90
        0
 91
        1
 62
     0
 92
       -2
340
0
 93
        0
 40
0.045
309
GRIDFORMAT_END
 95
       32
302
GRIDFORMAT
  1
GRIDFORMAT_BEGIN
 90
        0
 91
        1
 62
     0
 92
       -2
340
0
 93
        0
 40
0.045
309
GRIDFORMAT_END
309
TABLEFORMAT_END
  1
CELLSTYLE_BEGIN
 90
        1
 91
        1
300
_TITLE
309
CELLSTYLE_END
300
CELLSTYLE
  1
TABLEFORMAT_BEGIN
 90
        5
170
     1
 91
        0
 92
        0
 62
   257
 93
        1
300
CONTENTFORMAT
  1
CONTENTFORMAT_BEGIN
 90
        0
 91
        0
 92
      512
 93
        0
300

 40
0.0
140
1.0
 94
        5
 62
     0
340
21
144
0.18
309
CONTENTFORMAT_END
171
     1
301
MARGIN
  1
CELLMARGIN_BEGIN
 40
0.06
 40
0.06
 40
0.06
 40
0.06
 40
0.18
 40
0.18
309
CELLMARGIN_END
 94
        6
 95
        1
302
GRIDFORMAT
  1
GRIDFORMAT_BEGIN
 90
        0
 91
        1
 62
     0
 92
       -2
340
0
 93
        0
 40
0.045
309
GRIDFORMAT_END
 95
        2
302
GRIDFORMAT
  1
GRIDFORMAT_BEGIN
 90
        0
 91
        1
 62
     0
 92
       -2
340
0
 93
        0
 40
0.045
309
GRIDFORMAT_END
 95
        4
302
GRIDFORMAT
  1
GRIDFORMAT_BEGIN
 90
        0
 91
        1
 62
     0
 92
       -2
340
0
 93
        0
 40
0.045
309
GRIDFORMAT_END
 95
        8
302
GRIDFORMAT
  1
GRIDFORMAT_BEGIN
 90
        0
 91
        1
 62
     0
 92
       -2
340
0
 93
        0
 40
0.045
309
GRIDFORMAT_END
 95
       16
302
GRIDFORMAT
  1
GRIDFORMAT_BEGIN
 90
        0
 91
        1
 62
     0
 92
       -2
340
0
 93
        0
 40
0.045
309
GRIDFORMAT_END
 95
       32
302
GRIDFORMAT
  1
GRIDFORMAT_BEGIN
 90
        0
 91
        1
 62
     0
 92
       -2
340
0
 93
        0
 40
0.045
309
GRIDFORMAT_END
309
TABLEFORMAT_END
  1
CELLSTYLE_BEGIN
 90
        2
 91
        1
300
_HEADER
309
CELLSTYLE_END
300
CELLSTYLE
  1
TABLEFORMAT_BEGIN
 90
        5
170
     1
 91
        0
 92
        0
 62
   257
 93
        1
300
CONTENTFORMAT
  1
CONTENTFORMAT_BEGIN
 90
        0
 91
        0
 92
      512
 93
        0
300

 40
0.0
140
1.0
 94
        2
 62
     0
340
21
144
0.18
309
CONTENTFORMAT_END
171
     1
301
MARGIN
  1
CELLMARGIN_BEGIN
 40
0.06
 40
0.06
 40
0.06
 40
0.06
 40
0.18
 40
0.18
309
CELLMARGIN_END
 94
        6
 95
        1
302
GRIDFORMAT
  1
GRIDFORMAT_BEGIN
 90
        0
 91
        1
 62
     0
 92
       -2
340
0
 93
        0
 40
0.045
309
GRIDFORMAT_END
 95
        2
302
GRIDFORMAT
  1
GRIDFORMAT_BEGIN
 90
        0
 91
        1
 62
     0
 92
       -2
340
0
 93
        0
 40
0.045
309
GRIDFORMAT_END
 95
        4
302
GRIDFORMAT
  1
GRIDFORMAT_BEGIN
 90
        0
 91
        1
 62
     0
 92
       -2
340
0
 93
        0
 40
0.045
309
GRIDFORMAT_END
 95
        8
302
GRIDFORMAT
  1
GRIDFORMAT_BEGIN
 90
        0
 91
        1
 62
     0
 92
       -2
340
0
 93
        0
 40
0.045
309
GRIDFORMAT_END
 95
       16
302
GRIDFORMAT
  1
GRIDFORMAT_BEGIN
 90
        0
 91
        1
 62
     0
 92
       -2
340
0
 93
        0
 40
0.045
309
GRIDFORMAT_END
 95
       32
302
GRIDFORMAT
  1
GRIDFORMAT_BEGIN
 90
        0
 91
        1
 62
     0
 92
       -2
340
0
 93
        0
 40
0.045
309
GRIDFORMAT_END
309
TABLEFORMAT_END
  1
CELLSTYLE_BEGIN
 90
        3
 91
        2
300
_DATA
309
CELLSTYLE_END
  0
ENDSEC
  0
EOF
