  0
SECTION
  2
HEADER
  9
$ACADVER
  1
AC1032
  9
$ACADMAINTVER
 90
      248
  9
$DWGCODEPAGE
  3
ANSI_936
  9
$REQUIREDVERSIONS
160
                 0
  9
$INSBASE
 10
0.0
 20
0.0
 30
0.0
  9
$EXTMIN
 10
-157.9730274657907
 20
83.46437567225381
 30
0.0
  9
$EXTMAX
 10
-150.8663048445675
 20
88.16886289270295
 30
0.0
  9
$LIMMIN
 10
0.0
 20
0.0
  9
$LIMMAX
 10
285.0
 20
404.0
  9
$ORTHOMODE
 70
     1
  9
$REGENMODE
 70
     1
  9
$FILLMODE
 70
     1
  9
$QTEXTMODE
 70
     0
  9
$MIRRTEXT
 70
     0
  9
$LTSCALE
 40
0.04
  9
$ATTMODE
 70
     1
  9
$TEXTSIZE
 40
2.5
  9
$TRACEWID
 40
0.05
  9
$TEXTSTYLE
  7
SIMPLEX
  9
$CLAYER
  8
1
  9
$CELTYPE
  6
ByLayer
  9
$CECOLOR
 62
   256
  9
$CELTSCALE
 40
1.0
  9
$DISPSILH
 70
     0
  9
$DIMSCALE
 40
1.0
  9
$DIMASZ
 40
0.003
  9
$DIMEXO
 40
0.001
  9
$DIMDLI
 40
0.38
  9
$DIMRND
 40
0.0
  9
$DIMDLE
 40
0.0
  9
$DIMEXE
 40
0.001
  9
$DIMTP
 40
0.0015
  9
$DIMTM
 40
0.001
  9
$DIMTXT
 40
0.003
  9
$DIMCEN
 40
0.001
  9
$DIMTSZ
 40
0.0
  9
$DIMTOL
 70
     0
  9
$DIMLIM
 70
     0
  9
$DIMTIH
 70
     1
  9
$DIMTOH
 70
     1
  9
$DIMSE1
 70
     0
  9
$DIMSE2
 70
     0
  9
$DIMTAD
 70
     0
  9
$DIMZIN
 70
     4
  9
$DIMBLK
  1

  9
$DIMASO
 70
     0
  9
$DIMSHO
 70
     0
  9
$DIMPOST
  1

  9
$DIMAPOST
  1

  9
$DIMALT
 70
     0
  9
$DIMALTD
 70
     2
  9
$DIMALTF
 40
25.4
  9
$DIMLFAC
 40
1.0
  9
$DIMTOFL
 70
     0
  9
$DIMTVP
 40
0.0
  9
$DIMTIX
 70
     0
  9
$DIMSOXD
 70
     0
  9
$DIMSAH
 70
     0
  9
$DIMBLK1
  1

  9
$DIMBLK2
  1

  9
$DIMSTYLE
  2
Standard
  9
$DIMCLRD
 70
     0
  9
$DIMCLRE
 70
     0
  9
$DIMCLRT
 70
     0
  9
$DIMTFAC
 40
0.8
  9
$DIMGAP
 40
0.001
  9
$DIMJUST
 70
     0
  9
$DIMSD1
 70
     0
  9
$DIMSD2
 70
     0
  9
$DIMTOLJ
 70
     1
  9
$DIMTZIN
 70
     4
  9
$DIMALTZ
 70
     0
  9
$DIMALTTZ
 70
     0
  9
$DIMUPT
 70
     0
  9
$DIMDEC
 70
     4
  9
$DIMTDEC
 70
     4
  9
$DIMALTU
 70
     2
  9
$DIMALTTD
 70
     2
  9
$DIMTXSTY
  7
SIMPLEX
  9
$DIMAUNIT
 70
     0
  9
$DIMADEC
 70
     0
  9
$DIMALTRND
 40
0.0
  9
$DIMAZIN
 70
     0
  9
$DIMDSEP
 70
    46
  9
$DIMATFIT
 70
     3
  9
$DIMFRAC
 70
     0
  9
$DIMLDRBLK
  1

  9
$DIMLUNIT
 70
     2
  9
$DIMLWD
 70
    -2
  9
$DIMLWE
 70
    -2
  9
$DIMTMOVE
 70
     0
  9
$DIMFXL
 40
1.0
  9
$DIMFXLON
 70
     0
  9
$DIMJOGANG
 40
0.7853981633974483
  9
$DIMTFILL
 70
     0
  9
$DIMTFILLCLR
 70
     0
  9
$DIMARCSYM
 70
     0
  9
$DIMLTYPE
  6

  9
$DIMLTEX1
  6

  9
$DIMLTEX2
  6

  9
$DIMTXTDIRECTION
 70
     0
  9
$LUNITS
 70
     2
  9
$LUPREC
 70
     8
  9
$SKETCHINC
 40
0.1
  9
$FILLETRAD
 40
0.0
  9
$AUNITS
 70
     0
  9
$AUPREC
 70
     0
  9
$MENU
  1
L:\CTOOL\WORK\LFDWG\LSP\MKT\AAA
  9
$ELEVATION
 40
0.0
  9
$PELEVATION
 40
0.0
  9
$THICKNESS
 40
0.0
  9
$LIMCHECK
 70
     0
  9
$CHAMFERA
 40
0.0
  9
$CHAMFERB
 40
0.0
  9
$CHAMFERC
 40
0.0
  9
$CHAMFERD
 40
0.0
  9
$SKPOLY
 70
     0
  9
$TDCREATE
 40
2451578.696840278
  9
$TDUCREATE
 40
2451578.363510301
  9
$TDUPDATE
 40
2460607.484837963
  9
$TDUUPDATE
 40
2460607.151504630
  9
$TDINDWG
 40
2.1217579282
  9
$TDUSRTIMER
 40
2.1217579282
  9
$USRTIMER
 70
     1
  9
$ANGBASE
 50
0.0
  9
$ANGDIR
 70
     0
  9
$PDMODE
 70
     0
  9
$PDSIZE
 40
0.0
  9
$PLINEWID
 40
0.0
  9
$SPLFRAME
 70
     0
  9
$SPLINETYPE
 70
     6
  9
$SPLINESEGS
 70
     8
  9
$HANDSEED
  5
15A
  9
$SURFTAB1
 70
     6
  9
$SURFTAB2
 70
     6
  9
$SURFTYPE
 70
     6
  9
$SURFU
 70
     6
  9
$SURFV
 70
     6
  9
$UCSBASE
  2

  9
$UCSNAME
  2

  9
$UCSORG
 10
0.0
 20
0.0
 30
0.0
  9
$UCSXDIR
 10
1.0
 20
0.0
 30
0.0
  9
$UCSYDIR
 10
0.0
 20
1.0
 30
0.0
  9
$UCSORTHOREF
  2

  9
$UCSORTHOVIEW
 70
     0
  9
$UCSORGTOP
 10
0.0
 20
0.0
 30
0.0
  9
$UCSORGBOTTOM
 10
0.0
 20
0.0
 30
0.0
  9
$UCSORGLEFT
 10
0.0
 20
0.0
 30
0.0
  9
$UCSORGRIGHT
 10
0.0
 20
0.0
 30
0.0
  9
$UCSORGFRONT
 10
0.0
 20
0.0
 30
0.0
  9
$UCSORGBACK
 10
0.0
 20
0.0
 30
0.0
  9
$PUCSBASE
  2

  9
$PUCSNAME
  2

  9
$PUCSORG
 10
0.0
 20
0.0
 30
0.0
  9
$PUCSXDIR
 10
1.0
 20
0.0
 30
0.0
  9
$PUCSYDIR
 10
0.0
 20
1.0
 30
0.0
  9
$PUCSORTHOREF
  2

  9
$PUCSORTHOVIEW
 70
     0
  9
$PUCSORGTOP
 10
0.0
 20
0.0
 30
0.0
  9
$PUCSORGBOTTOM
 10
0.0
 20
0.0
 30
0.0
  9
$PUCSORGLEFT
 10
0.0
 20
0.0
 30
0.0
  9
$PUCSORGRIGHT
 10
0.0
 20
0.0
 30
0.0
  9
$PUCSORGFRONT
 10
0.0
 20
0.0
 30
0.0
  9
$PUCSORGBACK
 10
0.0
 20
0.0
 30
0.0
  9
$USERI1
 70
     0
  9
$USERI2
 70
     0
  9
$USERI3
 70
     0
  9
$USERI4
 70
     0
  9
$USERI5
 70
 32767
  9
$USERR1
 40
0.0
  9
$USERR2
 40
0.0
  9
$USERR3
 40
0.0
  9
$USERR4
 40
0.0
  9
$USERR5
 40
0.0
  9
$WORLDVIEW
 70
     1
  9
$SHADEDGE
 70
     3
  9
$SHADEDIF
 70
    70
  9
$TILEMODE
 70
     1
  9
$MAXACTVP
 70
    16
  9
$PINSBASE
 10
0.0
 20
0.0
 30
0.0
  9
$PLIMCHECK
 70
     0
  9
$PEXTMIN
 10
1.000000000000000E+20
 20
1.000000000000000E+20
 30
1.000000000000000E+20
  9
$PEXTMAX
 10
-1.000000000000000E+20
 20
-1.000000000000000E+20
 30
-1.000000000000000E+20
  9
$PLIMMIN
 10
0.0
 20
0.0
  9
$PLIMMAX
 10
12.0
 20
9.0
  9
$UNITMODE
 70
     0
  9
$VISRETAIN
 70
     0
  9
$PLINEGEN
 70
     0
  9
$PSLTSCALE
 70
     0
  9
$TREEDEPTH
 70
  3020
  9
$CMLSTYLE
  2
Standard
  9
$CMLJUST
 70
     0
  9
$CMLSCALE
 40
1.0
  9
$PROXYGRAPHICS
 70
     1
  9
$MEASUREMENT
 70
     0
  9
$CELWEIGHT
370
    -1
  9
$ENDCAPS
280
     0
  9
$JOINSTYLE
280
     0
  9
$LWDISPLAY
290
     0
  9
$INSUNITS
 70
     0
  9
$HYPERLINKBASE
  1

  9
$STYLESHEET
  1

  9
$XEDIT
290
     1
  9
$CEPSNTYPE
380
     0
  9
$PSTYLEMODE
290
     1
  9
$FINGERPRINTGUID
  2
{0C7D8404-AB8C-DE4E-8AD3-D6F83ADB83D6}
  9
$VERSIONGUID
  2
{A638EADE-19B1-4232-9023-07E3AAF43E04}
  9
$EXTNAMES
290
     1
  9
$PSVPSCALE
 40
0.0
  9
$OLESTARTUP
290
     0
  9
$SORTENTS
280
   127
  9
$INDEXCTL
280
     0
  9
$HIDETEXT
280
     1
  9
$XCLIPFRAME
280
     2
  9
$HALOGAP
280
     0
  9
$OBSCOLOR
 70
   257
  9
$OBSLTYPE
280
     0
  9
$INTERSECTIONDISPLAY
280
     0
  9
$INTERSECTIONCOLOR
 70
   257
  9
$DIMASSOC
280
     0
  9
$PROJECTNAME
  1

  9
$CAMERADISPLAY
290
     0
  9
$LENSLENGTH
 40
50.0
  9
$CAMERAHEIGHT
 40
0.0
  9
$STEPSPERSEC
 40
2.0
  9
$STEPSIZE
 40
6.0
  9
$3DDWFPREC
 40
2.0
  9
$PSOLWIDTH
 40
0.25
  9
$PSOLHEIGHT
 40
4.0
  9
$LOFTANG1
 40
1.570796326794896
  9
$LOFTANG2
 40
1.570796326794896
  9
$LOFTMAG1
 40
0.0
  9
$LOFTMAG2
 40
0.0
  9
$LOFTPARAM
 70
     7
  9
$LOFTNORMALS
280
     1
  9
$LATITUDE
 40
37.795
  9
$LONGITUDE
 40
-122.394
  9
$NORTHDIRECTION
 40
0.0
  9
$TIMEZONE
 70
 -8000
  9
$LIGHTGLYPHDISPLAY
280
     1
  9
$TILEMODELIGHTSYNCH
280
     1
  9
$CMATERIAL
347
37
  9
$SOLIDHIST
280
     0
  9
$SHOWHIST
280
     1
  9
$DWFFRAME
280
     2
  9
$DGNFRAME
280
     0
  9
$REALWORLDSCALE
290
     1
  9
$INTERFERECOLOR
 62
     1
  9
$INTERFEREOBJVS
345
5E
  9
$INTERFEREVPVS
346
5F
  9
$CSHADOW
280
     0
  9
$SHADOWPLANELOCATION
 40
0.0
  0
ENDSEC
  0
SECTION
  2
CLASSES
  0
CLASS
  1
ACDBDICTIONARYWDFLT
  2
AcDbDictionaryWithDefault
  3
ObjectDBX Classes
 90
        0
 91
        1
280
     0
281
     0
  0
CLASS
  1
DICTIONARYVAR
  2
AcDbDictionaryVar
  3
ObjectDBX Classes
 90
        0
 91
       12
280
     0
281
     0
  0
CLASS
  1
TABLESTYLE
  2
AcDbTableStyle
  3
ObjectDBX Classes
 90
     4095
 91
        1
280
     0
281
     0
  0
CLASS
  1
SORTENTSTABLE
  2
AcDbSortentsTable
  3
ObjectDBX Classes
 90
        0
 91
        2
280
     0
281
     0
  0
CLASS
  1
MATERIAL
  2
AcDbMaterial
  3
ObjectDBX Classes
 90
     1153
 91
        3
280
     0
281
     0
  0
CLASS
  1
VISUALSTYLE
  2
AcDbVisualStyle
  3
ObjectDBX Classes
 90
     4095
 91
        4
280
     0
281
     0
  0
CLASS
  1
SCALE
  2
AcDbScale
  3
ObjectDBX Classes
 90
     1153
 91
       17
280
     0
281
     0
  0
CLASS
  1
MLEADERSTYLE
  2
AcDbMLeaderStyle
  3
ACDB_MLEADERSTYLE_CLASS
 90
     4095
 91
        0
280
     0
281
     0
  0
CLASS
  1
ACDBSECTIONVIEWSTYLE
  2
AcDbSectionViewStyle
  3
ObjectDBX Classes
 90
     1025
 91
        0
280
     0
281
     0
  0
CLASS
  1
ACDBDETAILVIEWSTYLE
  2
AcDbDetailViewStyle
  3
ObjectDBX Classes
 90
     1025
 91
        0
280
     0
281
     0
  0
CLASS
  1
CELLSTYLEMAP
  2
AcDbCellStyleMap
  3
ObjectDBX Classes
 90
     1152
 91
        1
280
     0
281
     0
  0
CLASS
  1
SOLID_BACKGROUND
  2
AcDbSolidBackground
  3
SCENEOE
 90
     4095
 91
        0
280
     0
281
     0
  0
CLASS
  1
NPOCOLLECTION
  2
AcDbImpNonPersistentObjectsCollection
  3
ObjectDBX Classes
 90
     1153
 91
        0
280
     0
281
     0
  0
ENDSEC
  0
SECTION
  2
TABLES
  0
TABLE
  2
VPORT
  5
29
330
0
100
AcDbSymbolTable
 70
     1
  0
VPORT
  5
2A
330
29
100
AcDbSymbolTableRecord
100
AcDbViewportTableRecord
  2
*Active
 70
     0
 10
0.0
 20
0.0
 11
1.0
 21
1.0
 12
-154.1459741145333
 22
87.74299924468115
 13
0.0
 23
0.0
 14
0.1
 24
0.1
 15
0.0
 25
0.0
 16
0.0
 26
0.0
 36
1.0
 17
0.0
 27
0.0
 37
0.0
 40
0.8290544072604461
 41
2.570850202429149
 42
50.0
 43
0.0
 44
0.0
 50
0.0
 51
0.0
 71
     0
 72
 20000
 73
     1
 74
     0
 75
     0
 76
     0
 77
     0
 78
     2
281
     0
 65
     1
110
0.0
120
0.0
130
0.0
111
1.0
121
0.0
131
0.0
112
0.0
122
1.0
132
0.0
 79
     0
146
0.0
348
2B
 60
     3
 61
     5
292
     1
282
     1
141
0.0
142
0.0
 63
   250
421
  3355443
1001
ACAD_NAV_VCDISPLAY
1070
     3
  0
ENDTAB
  0
TABLE
  2
LTYPE
  5
24
330
0
100
AcDbSymbolTable
 70
     3
  0
LTYPE
  5
25
330
24
100
AcDbSymbolTableRecord
100
AcDbLinetypeTableRecord
  2
ByBlock
 70
     0
  3

 72
    65
 73
     0
 40
0.0
  0
LTYPE
  5
26
330
24
100
AcDbSymbolTableRecord
100
AcDbLinetypeTableRecord
  2
ByLayer
 70
     0
  3

 72
    65
 73
     0
 40
0.0
  0
LTYPE
  5
16
330
24
100
AcDbSymbolTableRecord
100
AcDbLinetypeTableRecord
  2
CONTINUOUS
 70
     0
  3
Solid line
 72
    65
 73
     0
 40
0.0
  0
LTYPE
  5
75
330
24
100
AcDbSymbolTableRecord
100
AcDbLinetypeTableRecord
  2
CENTER2
 70
     0
  3
Center (.5x) ___ _ ___ _ ___ _ ___ _ ___ _ ___
 72
    65
 73
     4
 40
1.125
 49
0.75
 74
     0
 49
-0.125
 74
     0
 49
0.125
 74
     0
 49
-0.125
 74
     0
  0
LTYPE
  5
A1
330
24
100
AcDbSymbolTableRecord
100
AcDbLinetypeTableRecord
  2
HIDDEN2
 70
     0
  3
Hidden (.5x) _ _ _ _ _ _ _ _ _ _ _ _ _ _ _ _ _
 72
    65
 73
     2
 40
0.1875
 49
0.125
 74
     0
 49
-0.0625
 74
     0
  0
ENDTAB
  0
TABLE
  2
LAYER
  5
20
330
0
100
AcDbSymbolTable
 70
     4
  0
LAYER
  5
7
102
{ACAD_XDICTIONARY
360
8
102
}
330
20
100
AcDbSymbolTableRecord
100
AcDbLayerTableRecord
  2
0
 70
     0
 62
     7
  6
CONTINUOUS
370
    -3
390
A
347
D
348
0
  0
LAYER
  5
58
102
{ACAD_XDICTIONARY
360
59
102
}
330
20
100
AcDbSymbolTableRecord
100
AcDbLayerTableRecord
  2
1
 70
     0
 62
     7
  6
CONTINUOUS
370
    -3
390
A
347
D
348
0
  0
LAYER
  5
77
102
{ACAD_XDICTIONARY
360
78
102
}
330
20
100
AcDbSymbolTableRecord
100
AcDbLayerTableRecord
  2
2
 70
     0
 62
     7
  6
CONTINUOUS
370
    -3
390
A
347
D
348
0
  0
LAYER
  5
72
102
{ACAD_XDICTIONARY
360
73
102
}
330
20
100
AcDbSymbolTableRecord
100
AcDbLayerTableRecord
  2
2D
 70
     0
 62
     4
  6
CONTINUOUS
370
    -3
390
A
347
D
348
0
  0
ENDTAB
  0
TABLE
  2
STYLE
  5
21
330
0
100
AcDbSymbolTable
 70
     2
  0
STYLE
  5
22
330
21
100
AcDbSymbolTableRecord
100
AcDbTextStyleTableRecord
  2
STANDARD
 70
     0
 40
3.0
 41
1.0
 50
0.0
 71
     0
 42
2.5
  3
SIMPLEX
  4

  0
STYLE
  5
32
330
21
100
AcDbSymbolTableRecord
100
AcDbTextStyleTableRecord
  2
SIMPLEX
 70
     0
 40
0.0
 41
1.0
 50
0.0
 71
     0
 42
2.5
  3
SIMPLEX.shx
  4

  0
ENDTAB
  0
TABLE
  2
VIEW
  5
27
330
0
100
AcDbSymbolTable
 70
     0
  0
ENDTAB
  0
TABLE
  2
UCS
  5
28
330
0
100
AcDbSymbolTable
 70
     0
  0
ENDTAB
  0
TABLE
  2
APPID
  5
2E
330
0
100
AcDbSymbolTable
 70
     2
  0
APPID
  5
2F
330
2E
100
AcDbSymbolTableRecord
100
AcDbRegAppTableRecord
  2
ACAD
 70
     0
  0
APPID
  5
2D
330
2E
100
AcDbSymbolTableRecord
100
AcDbRegAppTableRecord
  2
ACAD_NAV_VCDISPLAY
 70
     0
  0
ENDTAB
  0
TABLE
  2
DIMSTYLE
  5
30
330
0
100
AcDbSymbolTable
 70
     1
100
AcDbDimStyleTable
 71
     1
340
31
  0
DIMSTYLE
105
31
330
30
100
AcDbSymbolTableRecord
100
AcDbDimStyleTableRecord
  2
Standard
 70
     0
 41
0.003
 42
0.001
 44
0.001
 47
0.0015
 48
0.001
 78
     4
140
0.003
141
0.001
146
0.8
147
0.001
284
     4
340
32
  0
ENDTAB
  0
TABLE
  2
BLOCK_RECORD
  5
1
330
0
100
AcDbSymbolTable
 70
     0
  0
BLOCK_RECORD
  5
2
102
{ACAD_XDICTIONARY
360
3
102
}
330
1
100
AcDbSymbolTableRecord
100
AcDbBlockTableRecord
  2
*Model_Space
340
18
 70
     0
280
     1
281
     0
  0
BLOCK_RECORD
  5
1A
102
{ACAD_XDICTIONARY
360
1B
102
}
330
1
100
AcDbSymbolTableRecord
100
AcDbBlockTableRecord
  2
*Paper_Space
340
1F
 70
     0
280
     1
281
     0
  0
ENDTAB
  0
ENDSEC
  0
SECTION
  2
BLOCKS
  0
BLOCK
  5
6
330
2
100
AcDbEntity
  8
0
100
AcDbBlockBegin
  2
*Model_Space
 70
     0
 10
0.0
 20
0.0
 30
0.0
  3
*Model_Space
  1

  0
ENDBLK
  5
17
330
2
100
AcDbEntity
  8
0
100
AcDbBlockEnd
  0
BLOCK
  5
1D
330
1A
100
AcDbEntity
 67
     1
  8
0
100
AcDbBlockBegin
  2
*Paper_Space
 70
     0
 10
0.0
 20
0.0
 30
0.0
  3
*Paper_Space
  1

  0
ENDBLK
  5
1E
330
1A
100
AcDbEntity
 67
     1
  8
0
100
AcDbBlockEnd
  0
ENDSEC
  0
SECTION
  2
ENTITIES
  0
LINE
  5
71
330
2
100
AcDbEntity
  8
2D
  6
CENTER2
100
AcDbLine
 10
-154.494019224993
 20
87.9509579045157
 30
0.0
 11
-154.4148452409969
 21
87.9509579045157
 31
0.0
  0
LWPOLYLINE
  5
76
330
2
100
AcDbEntity
  8
2
100
AcDbPolyline
 90
        4
 70
     1
 43
0.0
 10
-154.6331647764304
 20
87.62058023370967
 10
-154.6331647764304
 20
87.63325482091664
 10
-154.6458393636374
 20
87.63325482091664
 10
-154.6458393636374
 20
87.62058023370967
  0
HATCH
  5
7A
330
2
100
AcDbEntity
  8
2D
100
AcDbHatch
 10
0.0
 20
0.0
 30
0.0
210
0.0
220
0.0
230
1.0
  2
ANSI31
 70
     0
 71
     0
 91
        1
 92
        1
 93
        4
 72
     1
 10
-154.6331647764304
 20
87.62058023370967
 11
-154.6331647764304
 21
87.63325482091664
 72
     1
 10
-154.6331647764304
 20
87.63325482091664
 11
-154.6458393636374
 21
87.63325482091664
 72
     1
 10
-154.6458393636374
 20
87.63325482091664
 11
-154.6458393636374
 21
87.62058023370967
 72
     1
 10
-154.6458393636374
 20
87.62058023370967
 11
-154.6331647764304
 21
87.62058023370967
 97
        0
 75
     0
 76
     1
 52
0.0
 41
0.015
 77
     0
 78
     1
 53
45.0
 43
-154.452191285851
 44
87.95709740562619
 45
-0.0013258252147248
 46
0.0013258252147248
 79
     0
 98
        1
 10
-0.1697574253728931
 20
0.1082859824709175
  0
MTEXT
  5
7B
330
2
100
AcDbEntity
  8
2D
100
AcDbMText
 10
-154.5952464973086
 20
87.62659399443942
 30
0.0
 40
0.003
 41
0.0
 46
0.0
 71
     5
 72
     1
  1
HALF ETCH ON BOTTOM SIDE
  7
SIMPLEX
 73
     1
 44
1.0
  0
MTEXT
  5
7C
330
2
100
AcDbEntity
  8
2D
100
AcDbMText
 10
-154.4598990648116
 20
87.71226990039261
 30
0.0
 40
0.003
 41
0.0
 46
0.0
 71
     5
 72
     1
  1
{\LSECTION A-A}
  7
SIMPLEX
 73
     1
 44
1.0
  0
HATCH
  5
7D
330
2
100
AcDbEntity
  8
2
 62
     4
100
AcDbHatch
 10
0.0
 20
0.0
 30
0.0
210
0.0
220
0.0
230
1.0
  2
ANSI31
 70
     0
 71
     0
 91
        2
 92
        7
 72
     1
 73
     1
 93
        6
 10
-154.602534481986
 20
87.70411110786467
 42
0.0
 10
-154.623292379508
 20
87.70411110786467
 42
-0.2692881814954254
 10
-154.6195344819809
 20
87.69503931109207
 42
-0.2679491922363064
 10
-154.615534481986
 20
87.68811110786469
 42
0.0
 10
-154.607534481986
 20
87.68811110786469
 42
-0.4142135623730951
 10
-154.602534481986
 20
87.69311110786468
 42
0.0
 97
        0
 92
        5
 93
        5
 72
     4
 94
        3
 73
     0
 74
     0
 95
       10
 96
        6
 40
0.0045375238983144
 40
0.0045375238983144
 40
0.0045375238983144
 40
0.0045375238983144
 40
0.0112042065658252
 40
0.0210744431563549
 40
0.0289278733333596
 40
0.0289278733333596
 40
0.0289278733333596
 40
0.0289278733333596
 10
-154.5600445564099
 20
87.68811110786469
 10
-154.5584464442869
 20
87.69022955064526
 10
-154.556421847404
 20
87.69492232822917
 10
-154.5709574606098
 20
87.69676593485286
 10
-154.5664332101261
 20
87.70174865933928
 10
-154.56378832712
 20
87.70411110786467
 97
        0
 72
     1
 10
-154.56378832712
 20
87.70411110786467
 11
-154.602534481986
 21
87.70411110786467
 72
     1
 10
-154.602534481986
 20
87.70411110786467
 11
-154.602534481986
 21
87.69311110786468
 72
     2
 10
-154.602534481986
 20
87.68811110786469
 40
0.0049999999999955
 50
270.0
 51
360.0
 73
     0
 72
     1
 10
-154.597534481986
 20
87.68811110786469
 11
-154.5600445564099
 21
87.68811110786469
 97
        0
 75
     0
 76
     1
 52
0.0
 41
0.01
 77
     0
 78
     1
 53
45.0
 43
-154.4706187910054
 44
87.95080163793507
 45
-0.0008838834764832
 46
0.0008838834764832
 79
     0
 47
0.0002427255310548
 98
        2
 10
-154.6107370108584
 20
87.70091710007635
 10
-154.5871719119721
 20
87.69848984348064
  0
LINE
  5
7E
330
2
100
AcDbEntity
  8
2
100
AcDbLine
 10
-154.623292379508
 20
87.70411110786467
 30
0.0
 11
-154.56378832712
 21
87.70411110786467
 31
0.0
  0
ARC
  5
7F
330
2
100
AcDbEntity
  8
2
100
AcDbCircle
 10
-154.6292247141621
 20
87.69633946650769
 30
0.0
 40
0.0097770651950871
100
AcDbArc
 50
352.3581631414911
 51
52.64438423084229
  0
MTEXT
  5
80
330
2
100
AcDbEntity
  8
2D
100
AcDbMText
 10
-154.5784630534146
 20
87.6813162272885
 30
0.0
 40
0.003
 41
0.0
 46
0.0
 71
     5
 72
     1
  1
.0050 MAX
  7
SIMPLEX
 73
     1
 44
1.0
  0
LINE
  5
81
330
2
100
AcDbEntity
  8
2
100
AcDbLine
 10
-154.597534481986
 20
87.68811110786469
 30
0.0
 11
-154.5600445564099
 21
87.68811110786469
 31
0.0
  0
SPLINE
  5
82
330
2
100
AcDbEntity
  8
2D
100
AcDbSpline
210
0.0
220
0.0
230
1.0
 70
  1064
 71
     3
 72
    10
 73
     6
 74
     4
 42
0.000000001
 43
0.0000000001
 44
0.0000000001
 40
0.0
 40
0.0
 40
0.0
 40
0.0
 40
0.0112042065658377
 40
0.0210744431563172
 40
0.0310930480055896
 40
0.0310930480055896
 40
0.0310930480055896
 40
0.0310930480055896
 10
-154.564032162263
 20
87.68357555426083
 30
0.0
 10
-154.5604519121955
 20
87.68739506896933
 30
0.0
 10
-154.5537176757202
 20
87.69457934793948
 30
0.0
 10
-154.5722478128305
 20
87.69692959508979
 30
0.0
 10
-154.5651026668543
 20
87.70302043541915
 30
0.0
 10
-154.5615034429205
 20
87.70608857403571
 30
0.0
 11
-154.564032162263
 21
87.68357555426083
 31
0.0
 11
-154.558744791921
 21
87.69345370994075
 31
0.0
 11
-154.5674804760122
 21
87.6980482059753
 31
0.0
 11
-154.5615034429205
 21
87.70608857403571
 31
0.0
  0
SOLID
  5
83
330
2
100
AcDbEntity
  8
2D
100
AcDbTrace
 10
-154.5945344819861
 20
87.6818162272885
 30
0.0
 11
-154.5945344819861
 21
87.68081622728848
 31
0.0
 12
-154.597534481986
 22
87.6813162272885
 32
0.0
 13
-154.597534481986
 23
87.6813162272885
 33
0.0
  0
SOLID
  5
85
330
2
100
AcDbEntity
  8
2D
100
AcDbTrace
 10
-154.610534481986
 20
87.6818162272885
 30
0.0
 11
-154.610534481986
 21
87.68081622728848
 31
0.0
 12
-154.607534481986
 22
87.6813162272885
 32
0.0
 13
-154.607534481986
 23
87.6813162272885
 33
0.0
  0
LINE
  5
86
330
2
100
AcDbEntity
  8
2D
100
AcDbLine
 10
-154.607534481986
 20
87.6813162272885
 30
0.0
 11
-154.597534481986
 21
87.6813162272885
 31
0.0
  0
LINE
  5
87
330
2
100
AcDbEntity
  8
2D
100
AcDbLine
 10
-154.5945344819861
 20
87.6813162272885
 30
0.0
 11
-154.591534481986
 21
87.6813162272885
 31
0.0
  0
LINE
  5
88
330
2
100
AcDbEntity
  8
2D
100
AcDbLine
 10
-154.610534481986
 20
87.6813162272885
 30
0.0
 11
-154.613534481986
 21
87.6813162272885
 31
0.0
  0
LINE
  5
89
330
2
100
AcDbEntity
  8
2D
100
AcDbLine
 10
-154.597534481986
 20
87.68711110786467
 30
0.0
 11
-154.597534481986
 21
87.68031622728846
 31
0.0
  0
LINE
  5
8A
330
2
100
AcDbEntity
  8
2D
100
AcDbLine
 10
-154.607534481986
 20
87.68711110786467
 30
0.0
 11
-154.607534481986
 21
87.68031622728846
 31
0.0
  0
ARC
  5
8B
330
2
100
AcDbEntity
  8
2D
 62
     0
100
AcDbCircle
 10
-154.602534481986
 20
87.68811110786469
 30
0.0
 40
0.0049999999999955
100
AcDbArc
 50
0.0
 51
180.0
  0
LINE
  5
8C
330
2
100
AcDbEntity
  8
2D
  6
CENTER2
100
AcDbLine
 10
-154.602534481986
 20
87.70836877737789
 30
0.0
 11
-154.602534481986
 21
87.68501405573537
 31
0.0
  0
MTEXT
  5
8D
330
2
100
AcDbEntity
  8
2D
100
AcDbMText
 10
-154.6199546559354
 20
87.6693450434824
 30
0.0
 40
0.003
 41
0.0
 46
0.0
 71
     5
 72
     1
  1
.0040-.0060
  7
SIMPLEX
 73
     1
 44
1.0
  0
SOLID
  5
8E
330
2
100
AcDbEntity
  8
2D
100
AcDbTrace
 10
-154.612534481986
 20
87.67494227266984
 30
0.0
 11
-154.612534481986
 21
87.67394227266983
 31
0.0
 12
-154.615534481986
 22
87.67444227266983
 32
0.0
 13
-154.615534481986
 23
87.67444227266983
 33
0.0
  0
SOLID
  5
8F
330
2
100
AcDbEntity
  8
2D
100
AcDbTrace
 10
-154.626292379508
 20
87.67494227266984
 30
0.0
 11
-154.626292379508
 21
87.67394227266983
 31
0.0
 12
-154.6232923795081
 22
87.67444227266983
 32
0.0
 13
-154.6232923795081
 23
87.67444227266983
 33
0.0
  0
LINE
  5
90
330
2
100
AcDbEntity
  8
2D
100
AcDbLine
 10
-154.6232923795081
 20
87.67444227266983
 30
0.0
 11
-154.615534481986
 21
87.67444227266983
 31
0.0
  0
LINE
  5
91
330
2
100
AcDbEntity
  8
2D
100
AcDbLine
 10
-154.612534481986
 20
87.67444227266983
 30
0.0
 11
-154.609534481986
 21
87.67444227266983
 31
0.0
  0
LINE
  5
92
330
2
100
AcDbEntity
  8
2D
100
AcDbLine
 10
-154.626292379508
 20
87.67444227266983
 30
0.0
 11
-154.6292923795081
 21
87.67444227266983
 31
0.0
  0
LINE
  5
93
330
2
100
AcDbEntity
  8
2D
100
AcDbLine
 10
-154.615534481986
 20
87.68743407241291
 30
0.0
 11
-154.615534481986
 21
87.67344227266983
 31
0.0
  0
LINE
  5
94
330
2
100
AcDbEntity
  8
2D
100
AcDbLine
 10
-154.6232923795081
 20
87.70277871435842
 30
0.0
 11
-154.6232923795081
 21
87.67386790198704
 31
0.0
  0
LINE
  5
95
330
2
100
AcDbEntity
  8
2D
100
AcDbLine
 10
-154.6161962298224
 20
87.68811110786469
 30
0.0
 11
-154.6405081273973
 21
87.68811110786469
 31
0.0
  0
ARC
  5
96
330
2
100
AcDbEntity
  8
2
100
AcDbCircle
 10
-154.623534481986
 20
87.68811110786471
 30
0.0
 40
0.008
100
AcDbArc
 50
0.0
 51
59.99999995824095
  0
MTEXT
  5
97
330
2
100
AcDbEntity
  8
2D
100
AcDbMText
 10
-154.6382149734677
 20
87.71749106535574
 30
0.0
 40
0.003
 41
0.0
 46
0.0
 71
     5
 72
     1
  1
.0040±.0012
  7
SIMPLEX
 11
0.0000000000000001
 21
1.0
 31
0.0
 73
     1
 44
1.0
  0
SOLID
  5
98
330
2
100
AcDbEntity
  8
2D
100
AcDbTrace
 10
-154.6387160081692
 20
87.69804272928242
 30
0.0
 11
-154.6377160081692
 21
87.69804272928242
 31
0.0
 12
-154.6382160081692
 22
87.69504272928243
 32
0.0
 13
-154.6382160081692
 23
87.69504272928243
 33
0.0
  0
SOLID
  5
99
330
2
100
AcDbEntity
  8
2D
100
AcDbTrace
 10
-154.6387149734677
 20
87.68511110786468
 30
0.0
 11
-154.6377149734677
 21
87.68511110786468
 31
0.0
 12
-154.6382149734677
 22
87.68811110786469
 32
0.0
 13
-154.6382149734677
 23
87.68811110786469
 33
0.0
  0
LINE
  5
9A
330
2
100
AcDbEntity
  8
2D
100
AcDbLine
 10
-154.6382149734677
 20
87.68811110786469
 30
0.0
 11
-154.6382160081692
 21
87.69504272928243
 31
0.0
  0
LINE
  5
9B
330
2
100
AcDbEntity
  8
2D
100
AcDbLine
 10
-154.6382160081692
 20
87.69804272928242
 30
0.0
 11
-154.6382160081692
 21
87.70104272928239
 31
0.0
  0
LINE
  5
9C
330
2
100
AcDbEntity
  8
2D
100
AcDbLine
 10
-154.6382149734677
 20
87.68511110786468
 30
0.0
 11
-154.6382149734677
 21
87.68211110786468
 31
0.0
  0
LINE
  5
9D
330
2
100
AcDbEntity
  8
2D
100
AcDbLine
 10
-154.6202450132867
 20
87.69504272928243
 30
0.0
 11
-154.6392160081692
 21
87.69504272928243
 31
0.0
  0
LINE
  5
9E
330
2
100
AcDbEntity
  8
2
100
AcDbLine
 10
-154.615534481986
 20
87.68811110786469
 30
0.0
 11
-154.607534481986
 21
87.68811110786469
 31
0.0
  0
MTEXT
  5
9F
330
2
100
AcDbEntity
  8
2D
100
AcDbMText
 10
-154.5981025120743
 20
87.66257550338492
 30
0.0
 40
0.003
 41
0.0
 46
0.0
 71
     5
 72
     1
  1
{\LSECTION B-B}
  7
SIMPLEX
 73
     1
 44
1.0
  0
LWPOLYLINE
  5
A0
330
2
100
AcDbEntity
  8
2D
  6
HIDDEN2
100
AcDbPolyline
 90
        6
 70
     0
 43
0.0
 10
-154.517432232995
 20
87.93364161238081
 10
-154.513432232995
 20
87.93364161238086
 10
-154.513432232995
 20
87.90195790451571
 10
-154.395432232995
 20
87.90195790451571
 10
-154.3954322329949
 20
87.93364161238081
 10
-154.3914322329949
 20
87.93364161238081
  0
TEXT
  5
A2
330
2
100
AcDbEntity
  8
2D
100
AcDbText
 10
-154.5415089588471
 20
87.86746141990279
 30
0.0
 40
0.0041666666666667
  1
1
100
AcDbText
  0
TEXT
  5
A3
330
2
100
AcDbEntity
  8
2D
100
AcDbText
 10
-154.4932132004113
 20
87.86784480240079
 30
0.0
 40
0.0041666666666667
  1
2
100
AcDbText
  0
TEXT
  5
A4
330
2
100
AcDbEntity
  8
2D
100
AcDbText
 10
-154.5183359052068
 20
88.02960492769946
 30
0.0
 40
0.0041666666666667
  1
8
100
AcDbText
  0
TEXT
  5
A5
330
2
100
AcDbEntity
  8
2D
100
AcDbText
 10
-154.468909047304
 20
88.02960492769946
 30
0.0
 40
0.0041666666666667
  1
7
100
AcDbText
  0
LINE
  5
A6
330
2
100
AcDbEntity
  8
2D
  6
CENTER2
100
AcDbLine
 10
-154.3294322329951
 20
88.03595790451568
 30
0.0
 11
-154.3294322329951
 21
87.86322290515752
 31
0.0
  0
TEXT
  5
A7
330
2
100
AcDbEntity
  8
2D
100
AcDbText
 10
-154.4427395284053
 20
87.86784480240079
 30
0.0
 40
0.0041666666666667
  1
3
100
AcDbText
  0
TEXT
  5
A8
330
2
100
AcDbEntity
  8
2D
100
AcDbText
 10
-154.3924984539661
 20
87.86784480240079
 30
0.0
 40
0.0041666666666667
  1
4
100
AcDbText
  0
TEXT
  5
A9
330
2
100
AcDbEntity
  8
2D
100
AcDbText
 10
-154.4187530085345
 20
88.02960492769946
 30
0.0
 40
0.0041666666666667
  1
6
100
AcDbText
  0
TEXT
  5
AA
330
2
100
AcDbEntity
  8
2D
100
AcDbText
 10
-154.3673322466873
 20
88.02960492769946
 30
0.0
 40
0.0041666666666667
  1
5
100
AcDbText
  0
LINE
  5
AB
330
2
100
AcDbEntity
  8
2D
  6
CENTER2
100
AcDbLine
 10
-154.454432232995
 20
87.98923060425883
 30
0.0
 11
-154.454432232995
 21
87.91268520477258
 31
0.0
  0
LWPOLYLINE
  5
AC
330
2
100
AcDbEntity
  8
2D
  6
HIDDEN2
100
AcDbPolyline
 90
        6
 70
     0
 43
0.0
 10
-154.517432232995
 20
87.96827419665058
 10
-154.513432232995
 20
87.96827419665055
 10
-154.513432232995
 20
87.99995790451568
 10
-154.395432232995
 20
87.99995790451568
 10
-154.3954322329949
 20
87.96827419665058
 10
-154.3914322329949
 20
87.96827419665058
  0
LWPOLYLINE
  5
AD
330
2
100
AcDbEntity
  8
2D
  6
CENTER2
 62
     2
100
AcDbPolyline
 90
        4
 70
     1
 43
0.0
 10
-154.357932232995
 20
88.02795790451568
 10
-154.550932232995
 20
88.0279579045157
 10
-154.550932232995
 20
87.8739579045157
 10
-154.357932232995
 20
87.8739579045157
  0
LWPOLYLINE
  5
AE
330
2
100
AcDbEntity
  8
2D
  6
HIDDEN2
100
AcDbPolyline
 90
        4
 70
     1
 43
0.0
 10
-154.361432232995
 20
87.8749579045157
 10
-154.5474322329949
 20
87.87495790451574
 10
-154.5474322329949
 20
88.02695790451567
 10
-154.361432232995
 20
88.0269579045157
  0
LINE
  5
AF
330
2
100
AcDbEntity
  8
2D
100
AcDbLine
 10
-154.454432232995
 20
87.99023060425884
 30
0.0
 11
-154.454432232995
 21
88.06376690725718
 31
0.0
  0
MTEXT
  5
B0
330
2
100
AcDbEntity
  8
2D
100
AcDbMText
 10
-154.454432232995
 20
88.0707669072572
 30
0.0
 40
0.003
 41
0.0
 46
0.0
 71
     5
 72
     1
  1
\A1;.0000
  7
SIMPLEX
 11
0.0000000000000001
 21
1.0
 31
0.0
 73
     1
 44
1.0
  0
LINE
  5
B1
330
2
100
AcDbEntity
  8
2D
100
AcDbLine
 10
-154.4138452409969
 20
87.9509579045157
 30
0.0
 11
-154.3054531079376
 21
87.9509579045157
 31
0.0
  0
MTEXT
  5
B2
330
2
100
AcDbEntity
  8
2D
100
AcDbMText
 10
-154.2984531079377
 20
87.9509579045157
 30
0.0
 40
0.003
 41
0.0
 46
0.0
 71
     5
 72
     1
  1
\A1;.0000
  7
SIMPLEX
 73
     1
 44
1.0
  0
LINE
  5
B3
330
2
100
AcDbEntity
  8
2D
100
AcDbLine
 10
-154.370432232995
 20
87.96895790451564
 30
0.0
 11
-154.3054531079376
 21
87.96895790451564
 31
0.0
  0
MTEXT
  5
B4
330
2
100
AcDbEntity
  8
2D
100
AcDbMText
 10
-154.2987388222234
 20
87.96895790451564
 30
0.0
 40
0.003
 41
0.0
 46
0.0
 71
     5
 72
     1
  1
\A1;.0180
  7
SIMPLEX
 73
     1
 44
1.0
  0
LINE
  5
B5
330
2
100
AcDbEntity
  8
2D
100
AcDbLine
 10
-154.3284322329951
 20
87.95595790451564
 30
0.0
 11
-154.3054531079376
 21
87.95595790451564
 31
0.0
  0
MTEXT
  5
B6
330
2
100
AcDbEntity
  8
2D
100
AcDbMText
 10
-154.2984531079377
 20
87.95595790451564
 30
0.0
 40
0.003
 41
0.0
 46
0.0
 71
     5
 72
     1
  1
\A1;.0050
  7
SIMPLEX
 73
     1
 44
1.0
  0
LINE
  5
B7
330
2
100
AcDbEntity
  8
2D
100
AcDbLine
 10
-154.3284322329951
 20
88.01995790451567
 30
0.0
 11
-154.3054531079376
 21
88.01995790451567
 31
0.0
  0
MTEXT
  5
B8
330
2
100
AcDbEntity
  8
2D
100
AcDbMText
 10
-154.2984531079377
 20
88.01995790451567
 30
0.0
 40
0.003
 41
0.0
 46
0.0
 71
     5
 72
     1
  1
\A1;.0690
  7
SIMPLEX
 73
     1
 44
1.0
  0
LINE
  5
B9
330
2
100
AcDbEntity
  8
2D
100
AcDbLine
 10
-154.336432232995
 20
88.0279579045157
 30
0.0
 11
-154.3054531079376
 21
88.0279579045157
 31
0.0
  0
MTEXT
  5
BA
330
2
100
AcDbEntity
  8
2D
100
AcDbMText
 10
-154.2984531079377
 20
88.0279579045157
 30
0.0
 40
0.003
 41
0.0
 46
0.0
 71
     5
 72
     1
  1
\A1;.0770
  7
SIMPLEX
 73
     1
 44
1.0
  0
LINE
  5
BB
330
2
100
AcDbEntity
  8
2D
100
AcDbLine
 10
-154.336432232995
 20
88.03595790451574
 30
0.0
 11
-154.3054531079376
 21
88.03595790451574
 31
0.0
  0
MTEXT
  5
BC
330
2
100
AcDbEntity
  8
2D
100
AcDbMText
 10
-154.2984531079377
 20
88.03595790451574
 30
0.0
 40
0.003
 41
0.0
 46
0.0
 71
     5
 72
     1
  1
\A1;.0850
  7
SIMPLEX
 73
     1
 44
1.0
  0
LINE
  5
BD
330
2
100
AcDbEntity
  8
2D
100
AcDbLine
 10
-154.337432232995
 20
88.03695790451575
 30
0.0
 11
-154.337432232995
 21
88.06376690725718
 31
0.0
  0
MTEXT
  5
BE
330
2
100
AcDbEntity
  8
2D
100
AcDbMText
 10
-154.3374322329951
 20
88.07019547868575
 30
0.0
 40
0.003
 41
0.0
 46
0.0
 71
     5
 72
     1
  1
\A1;.1170
  7
SIMPLEX
 11
0.0000000000000001
 21
1.0
 31
0.0
 73
     1
 44
1.0
  0
LINE
  5
BF
330
2
100
AcDbEntity
  8
2D
100
AcDbLine
 10
-154.344932232995
 20
88.02095790451565
 30
0.0
 11
-154.344932232995
 21
88.06376690725718
 31
0.0
  0
MTEXT
  5
C0
330
2
100
AcDbEntity
  8
2D
100
AcDbMText
 10
-154.344932232995
 20
88.07048119297148
 30
0.0
 40
0.003
 41
0.0
 46
0.0
 71
     5
 72
     1
  1
\A1;.1095
  7
SIMPLEX
 11
0.0000000000000001
 21
1.0
 31
0.0
 73
     1
 44
1.0
  0
LINE
  5
C1
330
2
100
AcDbEntity
  8
2D
100
AcDbLine
 10
-154.3549322329949
 20
88.0289579045157
 30
0.0
 11
-154.3549322329949
 21
88.06376690725718
 31
0.0
  0
MTEXT
  5
C2
330
2
100
AcDbEntity
  8
2D
100
AcDbMText
 10
-154.354932232995
 20
88.07834909092752
 30
0.0
 40
0.003
 41
0.0
 46
0.0
 71
     5
 72
     1
  1
.0995±.0010
  7
SIMPLEX
 11
0.0000000000000001
 21
1.0
 31
0.0
 73
     1
 44
1.0
  0
LINE
  5
C3
330
2
100
AcDbEntity
  8
2D
100
AcDbLine
 10
-154.382432232995
 20
87.89095790451574
 30
0.0
 11
-154.3054531079376
 21
87.89095790451574
 31
0.0
  0
MTEXT
  5
C4
330
2
100
AcDbEntity
  8
2D
100
AcDbMText
 10
-154.2987388222234
 20
87.89095790451574
 30
0.0
 40
0.003
 41
0.0
 46
0.0
 71
     5
 72
     1
  1
.0600
  7
SIMPLEX
 73
     1
 44
1.0
  0
LINE
  5
C5
330
2
100
AcDbEntity
  8
2D
100
AcDbLine
 10
-154.370432232995
 20
87.88295790451568
 30
0.0
 11
-154.3054531079376
 21
87.88295790451568
 31
0.0
  0
MTEXT
  5
C6
330
2
100
AcDbEntity
  8
2D
100
AcDbMText
 10
-154.2984531079377
 20
87.88295790451568
 30
0.0
 40
0.003
 41
0.0
 46
0.0
 71
     5
 72
     1
  1
.0680
  7
SIMPLEX
 73
     1
 44
1.0
  0
LINE
  5
C7
330
2
100
AcDbEntity
  8
2D
100
AcDbLine
 10
-154.3904322329949
 20
87.89795790451572
 30
0.0
 11
-154.3054531079376
 21
87.89795790451572
 31
0.0
  0
MTEXT
  5
C8
330
2
100
AcDbEntity
  8
2D
100
AcDbMText
 10
-154.2984531079377
 20
87.89795790451572
 30
0.0
 40
0.003
 41
0.0
 46
0.0
 71
     5
 72
     1
  1
\A1;.0530
  7
SIMPLEX
 73
     1
 44
1.0
  0
LINE
  5
C9
330
2
100
AcDbEntity
  8
2D
100
AcDbLine
 10
-154.394432232995
 20
87.90195790451571
 30
0.0
 11
-154.3054531079376
 21
87.90195790451571
 31
0.0
  0
MTEXT
  5
CA
330
2
100
AcDbEntity
  8
2D
100
AcDbMText
 10
-154.2984531079377
 20
87.90195790451571
 30
0.0
 40
0.003
 41
0.0
 46
0.0
 71
     5
 72
     1
  1
\A1;.0490
  7
SIMPLEX
 73
     1
 44
1.0
  0
LINE
  5
CB
330
2
100
AcDbEntity
  8
2D
100
AcDbLine
 10
-154.407432232995
 20
87.90595790451574
 30
0.0
 11
-154.3054531079376
 21
87.90595790451574
 31
0.0
  0
MTEXT
  5
CC
330
2
100
AcDbEntity
  8
2D
100
AcDbMText
 10
-154.2984531079377
 20
87.90595790451574
 30
0.0
 40
0.003
 41
0.0
 46
0.0
 71
     5
 72
     1
  1
\A1;.0450
  7
SIMPLEX
 73
     1
 44
1.0
  0
LINE
  5
CD
330
2
100
AcDbEntity
  8
2D
100
AcDbLine
 10
-154.4062740672743
 20
87.91095790451572
 30
0.0
 11
-154.3054531079376
 21
87.91095790451572
 31
0.0
  0
MTEXT
  5
CE
330
2
100
AcDbEntity
  8
2D
100
AcDbMText
 10
-154.2984531079377
 20
87.91095790451572
 30
0.0
 40
0.003
 41
0.0
 46
0.0
 71
     5
 72
     1
  1
\A1;.0400
  7
SIMPLEX
 73
     1
 44
1.0
  0
LINE
  5
CF
330
2
100
AcDbEntity
  8
2D
100
AcDbLine
 10
-154.3764322329949
 20
87.95695790451571
 30
0.0
 11
-154.3764322329949
 21
88.06376690725718
 31
0.0
  0
MTEXT
  5
D0
330
2
100
AcDbEntity
  8
2D
100
AcDbMText
 10
-154.3764322329949
 20
88.0707669072572
 30
0.0
 40
0.003
 41
0.0
 46
0.0
 71
     5
 72
     1
  1
\A1;.0780
  7
SIMPLEX
 11
0.0000000000000001
 21
1.0
 31
0.0
 73
     1
 44
1.0
  0
LINE
  5
D1
330
2
100
AcDbEntity
  8
2D
100
AcDbLine
 10
-154.391432232995
 20
88.00495790451568
 30
0.0
 11
-154.391432232995
 21
88.06376690725718
 31
0.0
  0
MTEXT
  5
D2
330
2
100
AcDbEntity
  8
2D
100
AcDbMText
 10
-154.391432232995
 20
88.0707669072572
 30
0.0
 40
0.003
 41
0.0
 46
0.0
 71
     5
 72
     1
  1
\A1;.0630
  7
SIMPLEX
 11
0.0000000000000001
 21
1.0
 31
0.0
 73
     1
 44
1.0
  0
LINE
  5
D3
330
2
100
AcDbEntity
  8
2D
100
AcDbLine
 10
-154.395432232995
 20
88.00095790451569
 30
0.0
 11
-154.395432232995
 21
88.06376690725718
 31
0.0
  0
MTEXT
  5
D4
330
2
100
AcDbEntity
  8
2D
100
AcDbMText
 10
-154.395432232995
 20
88.0707669072572
 30
0.0
 40
0.003
 41
0.0
 46
0.0
 71
     5
 72
     1
  1
\A1;.0590
  7
SIMPLEX
 11
0.0000000000000001
 21
1.0
 31
0.0
 73
     1
 44
1.0
  0
LINE
  5
D5
330
2
100
AcDbEntity
  8
2D
100
AcDbLine
 10
-154.401432232995
 20
87.98995790451568
 30
0.0
 11
-154.401432232995
 21
88.06376690725718
 31
0.0
  0
MTEXT
  5
D6
330
2
100
AcDbEntity
  8
2D
100
AcDbMText
 10
-154.401432232995
 20
88.0707669072572
 30
0.0
 40
0.003
 41
0.0
 46
0.0
 71
     5
 72
     1
  1
\A1;.0530
  7
SIMPLEX
 11
0.0000000000000001
 21
1.0
 31
0.0
 73
     1
 44
1.0
  0
LINE
  5
D7
330
2
100
AcDbEntity
  8
2D
100
AcDbLine
 10
-154.4054322329948
 20
87.98995790451568
 30
0.0
 11
-154.4054322329948
 21
88.06376690725718
 31
0.0
  0
MTEXT
  5
D8
330
2
100
AcDbEntity
  8
2D
100
AcDbMText
 10
-154.4054322329948
 20
88.0707669072572
 30
0.0
 40
0.003
 41
0.0
 46
0.0
 71
     5
 72
     1
  1
\A1;.0490
  7
SIMPLEX
 11
0.0000000000000001
 21
1.0
 31
0.0
 73
     1
 44
1.0
  0
LINE
  5
D9
330
2
100
AcDbEntity
  8
2D
100
AcDbLine
 10
-154.3459322329949
 20
87.95595790451564
 30
0.0
 11
-154.3539322329949
 21
87.95595790451564
 31
0.0
  0
LINE
  5
DA
330
2
100
AcDbEntity
  8
2D
100
AcDbLine
 10
-154.497432232995
 20
88.02095790451572
 30
0.0
 11
-154.497432232995
 21
88.0647669072572
 31
0.0
  0
LINE
  5
DB
330
2
100
AcDbEntity
  8
2D
100
AcDbLine
 10
-154.461432232995
 20
88.02095790451572
 30
0.0
 11
-154.461432232995
 21
88.0647669072572
 31
0.0
  0
LINE
  5
DC
330
2
100
AcDbEntity
  8
2D
100
AcDbLine
 10
-154.494432232995
 20
88.06376690725718
 30
0.0
 11
-154.491932232995
 21
88.06376690725718
 31
0.0
  0
LINE
  5
DD
330
2
100
AcDbEntity
  8
2D
100
AcDbLine
 10
-154.464432232995
 20
88.06376690725718
 30
0.0
 11
-154.466932232995
 21
88.06376690725718
 31
0.0
  0
SOLID
  5
DE
330
2
100
AcDbEntity
  8
2D
100
AcDbTrace
 10
-154.494432232995
 20
88.0642669072572
 30
0.0
 11
-154.494432232995
 21
88.0632669072572
 31
0.0
 12
-154.497432232995
 22
88.06376690725718
 32
0.0
 13
-154.497432232995
 23
88.06376690725718
 33
0.0
  0
SOLID
  5
DF
330
2
100
AcDbEntity
  8
2D
100
AcDbTrace
 10
-154.464432232995
 20
88.0642669072572
 30
0.0
 11
-154.464432232995
 21
88.0632669072572
 31
0.0
 12
-154.461432232995
 22
88.06376690725718
 32
0.0
 13
-154.461432232995
 23
88.06376690725718
 33
0.0
  0
MTEXT
  5
E0
330
2
100
AcDbEntity
  8
2D
100
AcDbMText
 10
-154.479432232995
 20
88.06376690725718
 30
0.0
 40
0.003
 41
0.0
 46
0.0
 71
     5
 72
     1
  1
.0360 TYP
  7
SIMPLEX
 73
     1
 44
1.0
  0
LINE
  5
E1
330
2
100
AcDbEntity
  8
2D
100
AcDbLine
 10
-154.383432232995
 20
88.0119579045157
 30
0.0
 11
-154.383432232995
 21
88.06376690725718
 31
0.0
  0
MTEXT
  5
E2
330
2
100
AcDbEntity
  8
2D
100
AcDbMText
 10
-154.383432232995
 20
88.07048119297148
 30
0.0
 40
0.003
 41
0.0
 46
0.0
 71
     5
 72
     1
  1
\A1;.0710
  7
SIMPLEX
 11
0.0000000000000001
 21
1.0
 31
0.0
 73
     1
 44
1.0
  0
LINE
  5
E3
330
2
100
AcDbEntity
  8
2D
100
AcDbLine
 10
-154.550932232995
 20
87.87295790451571
 30
0.0
 11
-154.550932232995
 21
87.83827263583864
 31
0.0
  0
MTEXT
  5
E4
330
2
100
AcDbEntity
  8
2D
100
AcDbMText
 10
-154.550932232995
 20
87.82512985865428
 30
0.0
 40
0.003
 41
0.0
 46
0.0
 71
     5
 72
     1
  1
.0965 PKG
  7
SIMPLEX
 11
0.0000000000000001
 21
1.0
 31
0.0
 73
     1
 44
1.0
  0
LINE
  5
E5
330
2
100
AcDbEntity
  8
2D
100
AcDbLine
 10
-154.5474322329949
 20
87.87295790451571
 30
0.0
 11
-154.5474322329949
 21
87.84999100007739
 31
0.0
  0
MTEXT
  5
E6
330
2
100
AcDbEntity
  8
2D
100
AcDbMText
 10
-154.5450393279973
 20
87.81488451401138
 30
0.0
 40
0.003
 41
0.0
 46
0.0
 71
     5
 72
     1
  1
MAX PLATING .0930
  7
SIMPLEX
 11
0.0000000000000001
 21
1.0
 31
0.0
 73
     1
 44
1.0
  0
LINE
  5
E7
330
2
100
AcDbEntity
  8
2D
100
AcDbLine
 10
-154.537432232995
 20
87.88195790451572
 30
0.0
 11
-154.537432232995
 21
87.83827263583864
 31
0.0
  0
MTEXT
  5
E8
330
2
100
AcDbEntity
  8
2D
100
AcDbMText
 10
-154.537432232995
 20
87.81530922052965
 30
0.0
 40
0.003
 41
0.0
 46
0.0
 71
     5
 72
     1
  1
MIN PLATING .0830
  7
SIMPLEX
 11
0.0000000000000001
 21
1.0
 31
0.0
 73
     1
 44
1.0
  0
LINE
  5
E9
330
2
100
AcDbEntity
  8
2D
100
AcDbLine
 10
-154.551932232995
 20
87.8739579045157
 30
0.0
 11
-154.6063446485785
 21
87.8739579045157
 31
0.0
  0
MTEXT
  5
EA
330
2
100
AcDbEntity
  8
2D
100
AcDbMText
 10
-154.6194798089656
 20
87.87358226525141
 30
0.0
 40
0.003
 41
0.0
 46
0.0
 71
     5
 72
     1
  1
.0770 PKG
  7
SIMPLEX
 73
     1
 44
1.0
  0
LINE
  5
EB
330
2
100
AcDbEntity
  8
2D
100
AcDbLine
 10
-154.5384322329949
 20
87.88295790451575
 30
0.0
 11
-154.6063446485785
 21
87.88295790451575
 31
0.0
  0
MTEXT
  5
EC
330
2
100
AcDbEntity
  8
2D
100
AcDbMText
 10
-154.629969674468
 20
87.88295790451575
 30
0.0
 40
0.003
 41
0.0
 46
0.0
 71
     5
 72
     1
  1
MIN PLATING .0680
  7
SIMPLEX
 73
     1
 44
1.0
  0
LINE
  5
ED
330
2
100
AcDbEntity
  8
2
100
AcDbLine
 10
-154.519432232995
 20
87.74754359112845
 30
0.0
 11
-154.389432232995
 21
87.74754359112845
 31
0.0
  0
LINE
  5
EE
330
2
100
AcDbEntity
  8
2
100
AcDbLine
 10
-154.519432232995
 20
87.73954359112844
 30
0.0
 11
-154.509432232995
 21
87.73954359112847
 31
0.0
  0
LINE
  5
EF
330
2
100
AcDbEntity
  8
2
100
AcDbLine
 10
-154.3687281638925
 20
87.77404359112845
 30
0.0
 11
-154.33094848774
 21
87.77404359112845
 31
0.0
  0
LINE
  5
F0
330
2
100
AcDbEntity
  8
2
100
AcDbLine
 10
-154.519432232995
 20
87.73954359112844
 30
0.0
 11
-154.5379877327576
 21
87.76604359112848
 31
0.0
  0
LINE
  5
F1
330
2
100
AcDbEntity
  8
2
100
AcDbLine
 10
-154.5379877327576
 20
87.76604359112848
 30
0.0
 11
-154.57791597825
 21
87.76604359112848
 31
0.0
  0
LINE
  5
F2
330
2
100
AcDbEntity
  8
2
100
AcDbLine
 10
-154.5379877327576
 20
87.77404359112848
 30
0.0
 11
-154.57791597825
 21
87.77404359112845
 31
0.0
  0
LINE
  5
F3
330
2
100
AcDbEntity
  8
2
100
AcDbLine
 10
-154.519432232995
 20
87.74754359112845
 30
0.0
 11
-154.5379877327576
 21
87.77404359112848
 31
0.0
  0
LINE
  5
F4
330
2
100
AcDbEntity
  8
2D
100
AcDbLine
 10
-154.519432232995
 20
87.74854359112843
 30
0.0
 11
-154.519432232995
 21
87.7739938004097
 31
0.0
  0
LINE
  5
F5
330
2
100
AcDbEntity
  8
2D
100
AcDbLine
 10
-154.389432232995
 20
87.74854359112843
 30
0.0
 11
-154.389432232995
 21
87.7739938004097
 31
0.0
  0
LINE
  5
F6
330
2
100
AcDbEntity
  8
2D
100
AcDbLine
 10
-154.516432232995
 20
87.7729938004097
 30
0.0
 11
-154.469432232995
 21
87.7729938004097
 31
0.0
  0
LINE
  5
F7
330
2
100
AcDbEntity
  8
2D
100
AcDbLine
 10
-154.392432232995
 20
87.7729938004097
 30
0.0
 11
-154.439432232995
 21
87.7729938004097
 31
0.0
  0
SOLID
  5
F8
330
2
100
AcDbEntity
  8
2D
100
AcDbTrace
 10
-154.516432232995
 20
87.7734938004097
 30
0.0
 11
-154.516432232995
 21
87.77249380040968
 31
0.0
 12
-154.519432232995
 22
87.7729938004097
 32
0.0
 13
-154.519432232995
 23
87.7729938004097
 33
0.0
  0
SOLID
  5
F9
330
2
100
AcDbEntity
  8
2D
100
AcDbTrace
 10
-154.392432232995
 20
87.7734938004097
 30
0.0
 11
-154.392432232995
 21
87.77249380040968
 31
0.0
 12
-154.389432232995
 22
87.7729938004097
 32
0.0
 13
-154.389432232995
 23
87.7729938004097
 33
0.0
  0
MTEXT
  5
FA
330
2
100
AcDbEntity
  8
2D
100
AcDbMText
 10
-154.454432232995
 20
87.7729938004097
 30
0.0
 40
0.003
 41
0.0
 46
0.0
 71
     5
 72
     1
  1
.1300±.0040
  7
SIMPLEX
 73
     1
 44
1.0
  0
LWPOLYLINE
  5
FB
330
2
100
AcDbEntity
  8
2
100
AcDbPolyline
 90
        3
 70
     0
 43
0.0
 10
-154.57791597825
 20
87.77404359112845
 10
-154.5744747860027
 20
87.77022699222028
 10
-154.57791597825
 20
87.76604359112845
  0
LWPOLYLINE
  5
FC
330
2
100
AcDbEntity
  8
2
100
AcDbPolyline
 90
        3
 70
     0
 43
0.0
 10
-154.33094848774
 20
87.77404359112845
 10
-154.3354180806278
 20
87.77006445870574
 10
-154.33094848774
 20
87.76604359112845
  0
LINE
  5
FD
330
2
100
AcDbEntity
  8
2D
100
AcDbLine
 10
-154.57891597825
 20
87.76604359112845
 30
0.0
 11
-154.5950648550274
 21
87.76604359112845
 31
0.0
  0
LINE
  5
FE
330
2
100
AcDbEntity
  8
2D
100
AcDbLine
 10
-154.57891597825
 20
87.77404359112845
 30
0.0
 11
-154.5950648550274
 21
87.77404359112845
 31
0.0
  0
LINE
  5
FF
330
2
100
AcDbEntity
  8
2D
100
AcDbLine
 10
-154.5940648550274
 20
87.76304359112845
 30
0.0
 11
-154.5940648550274
 21
87.76004359112844
 31
0.0
  0
LINE
  5
100
330
2
100
AcDbEntity
  8
2D
100
AcDbLine
 10
-154.5940648550274
 20
87.77704359112844
 30
0.0
 11
-154.5940648550274
 21
87.78004359112845
 31
0.0
  0
SOLID
  5
101
330
2
100
AcDbEntity
  8
2D
100
AcDbTrace
 10
-154.5945648550274
 20
87.76304359112845
 30
0.0
 11
-154.5935648550274
 21
87.76304359112845
 31
0.0
 12
-154.5940648550274
 22
87.76604359112845
 32
0.0
 13
-154.5940648550274
 23
87.76604359112845
 33
0.0
  0
SOLID
  5
102
330
2
100
AcDbEntity
  8
2D
100
AcDbTrace
 10
-154.5945648550274
 20
87.77704359112844
 30
0.0
 11
-154.5935648550274
 21
87.77704359112844
 31
0.0
 12
-154.5940648550274
 22
87.77404359112845
 32
0.0
 13
-154.5940648550274
 23
87.77404359112845
 33
0.0
  0
MTEXT
  5
103
330
2
100
AcDbEntity
  8
2D
100
AcDbMText
 10
-154.5940648550274
 20
87.74445196240536
 30
0.0
 40
0.003
 41
0.0
 46
0.0
 71
     5
 72
     1
  1
.0080±.0003
  7
SIMPLEX
 11
0.0000000000000001
 21
1.0
 31
0.0
 73
     1
 44
1.0
  0
LINE
  5
104
330
2
100
AcDbEntity
  8
2D
  6
CENTER2
100
AcDbLine
 10
-154.454432232995
 20
87.72760262840995
 30
0.0
 11
-154.454432232995
 21
87.76020836424201
 31
0.0
  0
ARC
  5
105
330
2
100
AcDbEntity
  8
2
100
AcDbCircle
 10
-154.505432232995
 20
87.73954359112847
 30
0.0
 40
0.0039999999999907
100
AcDbArc
 50
0.0
 51
180.0
  0
LINE
  5
106
330
2
100
AcDbEntity
  8
2
100
AcDbLine
 10
-154.501432232995
 20
87.73954359112847
 30
0.0
 11
-154.407432232995
 21
87.73954359112844
 31
0.0
  0
LINE
  5
107
330
2
100
AcDbEntity
  8
2
100
AcDbLine
 10
-154.399432232995
 20
87.73954359112844
 30
0.0
 11
-154.389432232995
 21
87.73954359112844
 31
0.0
  0
LINE
  5
108
330
2
100
AcDbEntity
  8
2D
100
AcDbLine
 10
-154.494019224993
 20
87.9509579045157
 30
0.0
 11
-154.5648528539493
 21
87.9509579045157
 31
0.0
  0
LINE
  5
109
330
2
100
AcDbEntity
  8
2D
100
AcDbLine
 10
-154.582432232995
 20
88.01095790451576
 30
0.0
 11
-154.6063446485785
 21
88.01095790451576
 31
0.0
  0
MTEXT
  5
10A
330
2
100
AcDbEntity
  8
2D
100
AcDbMText
 10
-154.6133446485785
 20
88.01095790451576
 30
0.0
 40
0.003
 41
0.0
 46
0.0
 71
     5
 72
     1
  1
\A1;.0600
  7
SIMPLEX
 73
     1
 44
1.0
  0
LINE
  5
10B
330
2
100
AcDbEntity
  8
2D
100
AcDbLine
 10
-154.582432232995
 20
87.96095790451571
 30
0.0
 11
-154.6063446485785
 21
87.96095790451571
 31
0.0
  0
MTEXT
  5
10C
330
2
100
AcDbEntity
  8
2D
100
AcDbMText
 10
-154.6130589342928
 20
87.96095790451571
 30
0.0
 40
0.003
 41
0.0
 46
0.0
 71
     5
 72
     1
  1
\A1;.0100
  7
SIMPLEX
 73
     1
 44
1.0
  0
SOLID
  5
10D
330
2
100
AcDbEntity
  8
2D
100
AcDbTrace
 10
-154.5653528539493
 20
87.94795790451571
 30
0.0
 11
-154.5648528539493
 21
87.9509579045157
 31
0.0
 12
-154.5643528539494
 22
87.94795790451571
 32
0.0
 13
-154.5643528539494
 23
87.94795790451571
 33
0.0
1001
ACAD
1000
DSTYLE
1002
{
1070
   147
1040
0.001
1070
    77
1070
     0
1002
}
  0
LWPOLYLINE
  5
10E
330
2
100
AcDbEntity
  8
2D
100
AcDbPolyline
 90
        2
 70
     0
 43
0.0
 10
-154.5648528539493
 20
87.94795790451571
 10
-154.5648528539493
 20
87.94284789475547
1001
ACAD
1000
DSTYLE
1002
{
1070
   147
1040
0.001
1070
    77
1070
     0
1002
}
  0
MTEXT
  5
10F
330
2
100
AcDbEntity
  8
2D
100
AcDbMText
 10
-154.5673298294824
 20
87.94410475311808
 30
0.0
 40
0.003
 41
0.0
 46
0.0
 71
     5
 72
     1
  1
A
  7
SIMPLEX
 73
     1
 44
1.0
  0
MTEXT
  5
110
330
2
100
AcDbEntity
  8
2D
100
AcDbMText
 10
-154.3167148741622
 20
87.94657533418913
 30
0.0
 40
0.003
 41
0.0
 46
0.0
 71
     5
 72
     1
  1
A
  7
SIMPLEX
 73
     1
 44
1.0
  0
LWPOLYLINE
  5
111
330
2
100
AcDbEntity
  8
2D
100
AcDbPolyline
 90
        2
 70
     0
 43
0.0
 10
-154.3202425302958
 20
87.94795790451571
 10
-154.3202425302958
 20
87.94284789475547
1001
ACAD
1000
DSTYLE
1002
{
1070
   147
1040
0.001
1070
    77
1070
     0
1002
}
  0
SOLID
  5
112
330
2
100
AcDbEntity
  8
2D
100
AcDbTrace
 10
-154.3207425302958
 20
87.94795790451571
 30
0.0
 11
-154.3202425302958
 21
87.9509579045157
 31
0.0
 12
-154.3197425302958
 22
87.94795790451571
 32
0.0
 13
-154.3197425302958
 23
87.94795790451571
 33
0.0
1001
ACAD
1000
DSTYLE
1002
{
1070
   147
1040
0.001
1070
    77
1070
     0
1002
}
  0
LINE
  5
113
330
2
100
AcDbEntity
  8
2D
100
AcDbLine
 10
-154.3904322329949
 20
87.95827419665057
 30
0.0
 11
-154.3170463167844
 21
87.95827419665057
 31
0.0
  0
LINE
  5
114
330
2
100
AcDbEntity
  8
2D
100
AcDbLine
 10
-154.3170463167844
 20
87.95827419665057
 30
0.0
 11
-154.3110463167844
 21
87.96113110150145
 31
0.0
  0
LINE
  5
115
330
2
100
AcDbEntity
  8
2D
100
AcDbLine
 10
-154.3110463167844
 20
87.96113110150145
 30
0.0
 11
-154.3050463167844
 21
87.96113110150145
 31
0.0
  0
MTEXT
  5
116
330
2
100
AcDbEntity
  8
2D
100
AcDbMText
 10
-154.2980463167844
 20
87.96113110150145
 30
0.0
 40
0.003
 41
0.0
 46
0.0
 71
     5
 72
     1
  1
\A1;.0073
  7
SIMPLEX
 73
     1
 44
1.0
  0
LINE
  5
117
330
2
100
AcDbEntity
  8
2D
100
AcDbLine
 10
-154.5209809093545
 20
87.9759649547851
 30
0.0
 11
-154.4984550327391
 21
87.9759649547851
 31
0.0
  0
SOLID
  5
118
330
2
100
AcDbEntity
  8
2D
100
AcDbTrace
 10
154.4979550327392
 20
87.9729649547851
 30
0.0
 11
154.4984550327392
 21
87.9759649547851
 31
0.0
 12
154.498955032739
 22
87.9729649547851
 32
0.0
 13
154.498955032739
 23
87.9729649547851
 33
0.0
210
0.0
220
0.0
230
-1.0
1001
ACAD
1000
DSTYLE
1002
{
1070
   147
1040
0.001
1070
    77
1070
     0
1002
}
  0
LWPOLYLINE
  5
119
330
2
100
AcDbEntity
  8
2D
100
AcDbPolyline
 90
        2
 70
     0
 43
0.0
 10
154.4984550327392
 20
87.9729649547851
 10
154.4984550327392
 20
87.96700510167672
210
0.0
220
0.0
230
-1.0
1001
ACAD
1000
DSTYLE
1002
{
1070
   147
1040
0.001
1070
    77
1070
     0
1002
}
  0
SOLID
  5
11A
330
2
100
AcDbEntity
  8
2D
100
AcDbTrace
 10
-154.5214809093545
 20
87.9729649547851
 30
0.0
 11
-154.5209809093545
 21
87.9759649547851
 31
0.0
 12
-154.5204809093545
 22
87.9729649547851
 32
0.0
 13
-154.5204809093545
 23
87.9729649547851
 33
0.0
1001
ACAD
1000
DSTYLE
1002
{
1070
   147
1040
0.001
1070
    77
1070
     0
1002
}
  0
LWPOLYLINE
  5
11B
330
2
100
AcDbEntity
  8
2D
100
AcDbPolyline
 90
        2
 70
     0
 43
0.0
 10
-154.5209809093545
 20
87.9729649547851
 10
-154.5209809093545
 20
87.96700510167672
1001
ACAD
1000
DSTYLE
1002
{
1070
   147
1040
0.001
1070
    77
1070
     0
1002
}
  0
MTEXT
  5
11C
330
2
100
AcDbEntity
  8
2D
100
AcDbMText
 10
-154.4980139018388
 20
87.9638756822556
 30
0.0
 40
0.003
 41
0.0
 46
0.0
 71
     5
 72
     1
  1
B
  7
SIMPLEX
 73
     1
 44
1.0
  0
MTEXT
  5
11D
330
2
100
AcDbEntity
  8
2D
100
AcDbMText
 10
-154.5215478704491
 20
87.9638756822556
 30
0.0
 40
0.003
 41
0.0
 46
0.0
 71
     5
 72
     1
  1
B
  7
SIMPLEX
 73
     1
 44
1.0
  0
LINE
  5
11E
330
2
100
AcDbEntity
  8
2D
100
AcDbLine
 10
-154.581432232995
 20
88.01195790451577
 30
0.0
 11
-154.581432232995
 21
88.06376690725718
 31
0.0
  0
MTEXT
  5
11F
330
2
100
AcDbEntity
  8
2D
100
AcDbMText
 10
-154.581432232995
 20
88.07048119297148
 30
0.0
 40
0.003
 41
0.0
 46
0.0
 71
     5
 72
     1
  1
\A1;.1270
  7
SIMPLEX
 11
0.0000000000000001
 21
1.0
 31
0.0
 73
     1
 44
1.0
  0
LINE
  5
120
330
2
100
AcDbEntity
  8
2D
100
AcDbLine
 10
-154.3294322329951
 20
88.03695790451568
 30
0.0
 11
-154.3294322329951
 21
88.06376690725718
 31
0.0
  0
MTEXT
  5
121
330
2
100
AcDbEntity
  8
2D
100
AcDbMText
 10
-154.3294322329952
 20
88.07048119297148
 30
0.0
 40
0.003
 41
0.0
 46
0.0
 71
     5
 72
     1
  1
\A1;.1250
  7
SIMPLEX
 11
0.0000000000000001
 21
1.0
 31
0.0
 73
     1
 44
1.0
  0
LINE
  5
122
330
2
100
AcDbEntity
  8
2
100
AcDbLine
 10
-154.3687281638925
 20
87.76604359112848
 30
0.0
 11
-154.33094848774
 21
87.76604359112848
 31
0.0
  0
LINE
  5
123
330
2
100
AcDbEntity
  8
2D
100
AcDbLine
 10
-154.520432232995
 20
87.73954359112844
 30
0.0
 11
-154.5593805890741
 21
87.73954359112844
 31
0.0
  0
LINE
  5
124
330
2
100
AcDbEntity
  8
2D
100
AcDbLine
 10
-154.5389877327576
 20
87.76604359112848
 30
0.0
 11
-154.5593805890741
 21
87.76604359112848
 31
0.0
  0
LINE
  5
125
330
2
100
AcDbEntity
  8
2D
100
AcDbLine
 10
-154.558380589074
 20
87.74254359112843
 30
0.0
 11
-154.558380589074
 21
87.76304359112847
 31
0.0
  0
LINE
  5
126
330
2
100
AcDbEntity
  8
2D
100
AcDbLine
 10
-154.558380589074
 20
87.76604359112848
 30
0.0
 11
-154.558380589074
 21
87.77705059710921
 31
0.0
  0
SOLID
  5
127
330
2
100
AcDbEntity
  8
2D
100
AcDbTrace
 10
-154.558880589074
 20
87.74254359112843
 30
0.0
 11
-154.5578805890739
 21
87.74254359112843
 31
0.0
 12
-154.558380589074
 22
87.73954359112844
 32
0.0
 13
-154.558380589074
 23
87.73954359112844
 33
0.0
  0
SOLID
  5
128
330
2
100
AcDbEntity
  8
2D
100
AcDbTrace
 10
-154.558880589074
 20
87.76304359112847
 30
0.0
 11
-154.5578805890739
 21
87.76304359112847
 31
0.0
 12
-154.558380589074
 22
87.76604359112848
 32
0.0
 13
-154.558380589074
 23
87.76604359112848
 33
0.0
  0
MTEXT
  5
129
330
2
100
AcDbEntity
  8
2D
100
AcDbMText
 10
-154.560380589074
 20
87.7905363113949
 30
0.0
 40
0.003
 41
0.0
 46
0.0
 71
     5
 72
     1
  1
\A1;.0265{\H0.002400;\S+.0015^ -.0010;}
  7
SIMPLEX
 11
0.0000000000000001
 21
1.0
 31
0.0
 73
     1
 44
1.0
  0
LWPOLYLINE
  5
12A
330
2
100
AcDbEntity
  8
2D
  6
HIDDEN2
100
AcDbPolyline
 90
        4
 70
     1
 43
0.0
 10
-154.537432232995
 20
87.88295790451575
 10
-154.371432232995
 20
87.88295790451568
 10
-154.371432232995
 20
88.01995790451575
 10
-154.5374322329949
 20
88.01995790451568
  0
LINE
  5
12B
330
2
100
AcDbEntity
  8
2D
100
AcDbLine
 10
-154.5484322329949
 20
87.87495790451574
 30
0.0
 11
-154.5943446485785
 21
87.87495790451574
 31
0.0
  0
LINE
  5
12C
330
2
100
AcDbEntity
  8
2D
100
AcDbLine
 10
-154.5943446485785
 20
87.87495790451574
 30
0.0
 11
-154.6003446485785
 21
87.87848802806541
 31
0.0
  0
LINE
  5
12D
330
2
100
AcDbEntity
  8
2D
100
AcDbLine
 10
-154.6003446485785
 20
87.87848802806541
 30
0.0
 11
-154.6063446485785
 21
87.87848802806541
 31
0.0
  0
MTEXT
  5
12E
330
2
100
AcDbEntity
  8
2D
100
AcDbMText
 10
-154.6303512329917
 20
87.87848802806541
 30
0.0
 40
0.003
 41
0.0
 46
0.0
 71
     5
 72
     1
  1
MAX PLATING .0760
  7
SIMPLEX
 73
     1
 44
1.0
  0
LINE
  5
12F
330
2
100
AcDbEntity
  8
2D
100
AcDbLine
 10
-154.5451838898214
 20
87.83824165686855
 30
0.0
 11
-154.5451838898214
 21
87.8459262091995
 31
0.0
  0
LINE
  5
130
330
2
100
AcDbEntity
  8
2D
100
AcDbLine
 10
-154.5451838898214
 20
87.8459262091995
 30
0.0
 11
-154.5474322329949
 21
87.84999100007739
 31
0.0
  0
LINE
  5
131
330
2
100
AcDbEntity
  8
2
100
AcDbLine
 10
-154.389432232995
 20
87.74754359112845
 30
0.0
 11
-154.3687281638925
 21
87.77404359112845
 31
0.0
  0
LINE
  5
132
330
2
100
AcDbEntity
  8
2
100
AcDbLine
 10
-154.389432232995
 20
87.73954359112847
 30
0.0
 11
-154.3687281638925
 21
87.76604359112848
 31
0.0
  0
LINE
  5
133
330
2
100
AcDbEntity
  8
2D
100
AcDbLine
 10
-154.3681125024171
 20
87.77483160188202
 30
0.0
 11
-154.3566471458374
 21
87.78950658909632
 31
0.0
  0
ARC
  5
134
330
2
100
AcDbEntity
  8
2D
100
AcDbCircle
 10
-154.3687281638925
 20
87.77404359112841
 30
0.0
 40
0.0186228260808956
100
AcDbArc
 50
341.5201257133828
 51
350.7600628566954
  0
ARC
  5
135
330
2
100
AcDbEntity
  8
2D
100
AcDbCircle
 10
-154.3687281638925
 20
87.77404359112841
 30
0.0
 40
0.0186228260808956
100
AcDbArc
 50
61.23993714329728
 51
70.47987428660984
  0
SOLID
  5
136
330
2
100
AcDbEntity
  8
2D
100
AcDbTrace
 10
-154.3508453521877
 20
87.77109361168388
 30
0.0
 11
-154.3498486013205
 21
87.77101306536975
 31
0.0
 12
-154.3501053378116
 22
87.77404359112841
 32
0.0
 13
-154.3501053378116
 23
87.77404359112841
 33
0.0
  0
SOLID
  5
137
330
2
100
AcDbEntity
  8
2D
100
AcDbTrace
 10
-154.3594928314329
 20
87.79078666741817
 30
0.0
 11
-154.3600430211806
 21
87.78995162775354
 31
0.0
 12
-154.3572628073128
 22
87.78871857834271
 32
0.0
 13
-154.3572628073128
 23
87.78871857834271
 33
0.0
  0
MTEXT
  5
138
330
2
100
AcDbEntity
  8
2D
100
AcDbMText
 10
-154.3506226298187
 20
87.78087108349366
 30
0.0
 40
0.003
 41
0.0
 46
0.0
 71
     5
 72
     1
  1
\A1;52°
  7
SIMPLEX
 73
     1
 44
1.0
  0
LINE
  5
139
330
2
100
AcDbEntity
  8
2D
100
AcDbLine
 10
-154.519432232995
 20
87.95796535769927
 30
0.0
 11
-154.519432232995
 21
87.94395045133216
 31
0.0
  0
LINE
  5
13A
330
2
100
AcDbEntity
  8
2D
100
AcDbLine
 10
-154.540136301995
 20
87.95595790451569
 30
0.0
 11
-154.540136301995
 21
87.94595790451571
 31
0.0
  0
LINE
  5
13B
330
2
100
AcDbEntity
  8
2D
100
AcDbLine
 10
-154.3894322329949
 20
87.95796535769927
 30
0.0
 11
-154.389432232995
 21
87.94395045133216
 31
0.0
  0
LINE
  5
13C
330
2
100
AcDbEntity
  8
2D
100
AcDbLine
 10
-154.368728163995
 20
87.95595790451569
 30
0.0
 11
-154.368728163995
 21
87.94595790451571
 31
0.0
  0
LINE
  5
13D
330
2
100
AcDbEntity
  8
2D
100
AcDbLine
 10
-154.3904322329949
 20
87.93364161238081
 30
0.0
 11
-154.3054531079376
 21
87.93364161238081
 31
0.0
  0
MTEXT
  5
13E
330
2
100
AcDbEntity
  8
2D
100
AcDbMText
 10
-154.2987388222234
 20
87.93364161238081
 30
0.0
 40
0.003
 41
0.0
 46
0.0
 71
     5
 72
     1
  1
\A1;.0173
  7
SIMPLEX
 73
     1
 44
1.0
  0
HATCH
  5
13F
330
2
100
AcDbEntity
  8
2D
100
AcDbHatch
 10
0.0
 20
0.0
 30
0.0
210
0.0
220
0.0
230
1.0
  2
ANSI31
 70
     0
 71
     0
 91
        4
 92
        1
 93
        8
 72
     1
 10
-154.517432232995
 20
87.93364161238081
 11
-154.513432232995
 21
87.93364161238086
 72
     1
 10
-154.513432232995
 20
87.93364161238086
 11
-154.513432232995
 21
87.90195790451571
 72
     1
 10
-154.513432232995
 20
87.90195790451571
 11
-154.395432232995
 21
87.90195790451571
 72
     1
 10
-154.395432232995
 20
87.90195790451571
 11
-154.3954322329949
 21
87.93364161238081
 72
     1
 10
-154.3954322329949
 20
87.93364161238081
 11
-154.3914322329949
 21
87.93364161238081
 72
     1
 10
-154.3914322329949
 20
87.93364161238081
 11
-154.391432232995
 21
87.89795790451572
 72
     1
 10
-154.391432232995
 20
87.89795790451572
 11
-154.517432232995
 21
87.89795790451572
 72
     1
 10
-154.517432232995
 20
87.89795790451572
 11
-154.517432232995
 21
87.93364161238081
 97
        0
 92
        1
 93
        8
 72
     2
 10
-154.500432232995
 20
87.91295790451576
 40
0.007
 50
180.0000000000258
 51
270.0
 73
     1
 72
     1
 10
-154.500432232995
 20
87.90595790451574
 11
-154.408432232995
 21
87.90595790451574
 72
     2
 10
-154.408432232995
 20
87.91295790451576
 40
0.0070000000000064
 50
270.0
 51
360.0
 73
     1
 72
     1
 10
-154.401432232995
 20
87.91295790451576
 11
-154.401432232995
 21
87.98895790451567
 72
     2
 10
-154.408432232995
 20
87.98895790451567
 40
0.007000000000005
 50
0.0
 51
90.0
 73
     1
 72
     1
 10
-154.408432232995
 20
87.99595790451567
 11
-154.500432232995
 21
87.99595790451569
 72
     2
 10
-154.500432232995
 20
87.98895790451568
 40
0.007000000000005
 50
90.0
 51
180.0
 73
     1
 72
     1
 10
-154.507432232995
 20
87.98895790451568
 11
-154.507432232995
 21
87.91295790451576
 97
        0
 92
       16
 93
        8
 72
     2
 10
-154.5014322329949
 20
87.9889579045157
 40
0.002
 50
90.0
 51
179.9999999998876
 73
     1
 72
     1
 10
-154.503432232995
 20
87.9889579045157
 11
-154.5034322329951
 21
87.91295790451576
 72
     2
 10
-154.5014322329951
 20
87.91295790451576
 40
0.002
 50
179.9999999999224
 51
270.0
 73
     1
 72
     1
 10
-154.5014322329951
 20
87.91095790451574
 11
-154.407432232995
 21
87.91095790451572
 72
     2
 10
-154.407432232995
 20
87.91295790451572
 40
0.002
 50
269.9999999999871
 51
359.9999999998707
 73
     1
 72
     1
 10
-154.405432232995
 20
87.91295790451572
 11
-154.4054322329948
 21
87.98895790451568
 72
     2
 10
-154.4074322329948
 20
87.98895790451568
 40
0.002
 50
359.9999999998597
 51
450.0
 73
     1
 72
     1
 10
-154.4074322329948
 20
87.99095790451568
 11
-154.5014322329949
 21
87.99095790451572
 97
        0
 92
        1
 93
        8
 72
     1
 10
-154.517432232995
 20
87.96827419665058
 11
-154.517432232995
 21
88.00395790451569
 72
     1
 10
-154.517432232995
 20
88.00395790451569
 11
-154.391432232995
 21
88.00395790451569
 72
     1
 10
-154.391432232995
 20
88.00395790451569
 11
-154.3914322329949
 21
87.96827419665058
 72
     1
 10
-154.3914322329949
 20
87.96827419665058
 11
-154.3954322329949
 21
87.96827419665058
 72
     1
 10
-154.3954322329949
 20
87.96827419665058
 11
-154.395432232995
 21
87.99995790451568
 72
     1
 10
-154.395432232995
 20
87.99995790451568
 11
-154.513432232995
 21
87.99995790451568
 72
     1
 10
-154.513432232995
 20
87.99995790451568
 11
-154.513432232995
 21
87.96827419665055
 72
     1
 10
-154.513432232995
 20
87.96827419665055
 11
-154.517432232995
 21
87.96827419665058
 97
        0
 75
     0
 76
     1
 52
0.0
 41
0.01
 77
     0
 78
     1
 53
45.0
 43
-154.454432232995
 44
87.63339055206731
 45
-0.0008838834764832
 46
0.0008838834764832
 79
     0
 98
        1
 10
0.0
 20
-0.3175673524483926
  0
LWPOLYLINE
  5
140
330
2
100
AcDbEntity
  8
2D
  6
HIDDEN2
100
AcDbPolyline
 90
        8
 70
     1
 43
0.0
 10
-154.5014322329949
 20
87.99095790451572
 42
0.4142135623725209
 10
-154.503432232995
 20
87.9889579045157
 10
-154.5034322329951
 20
87.91295790451576
 42
0.4142135623734915
 10
-154.5014322329951
 20
87.91095790451574
 10
-154.407432232995
 20
87.91095790451572
 42
0.4142135623725004
 10
-154.405432232995
 20
87.91295790451572
 10
-154.4054322329948
 20
87.98895790451568
 42
0.4142135623738125
 10
-154.4074322329948
 20
87.99095790451568
  0
LWPOLYLINE
  5
141
330
2
100
AcDbEntity
  8
2D
  6
HIDDEN2
100
AcDbPolyline
 90
        8
 70
     1
 43
0.0
 10
-154.507432232995
 20
87.91295790451576
 42
0.414213562372963
 10
-154.500432232995
 20
87.90595790451574
 10
-154.408432232995
 20
87.90595790451574
 42
0.4142135623730951
 10
-154.401432232995
 20
87.91295790451576
 10
-154.401432232995
 20
87.98895790451567
 42
0.4142135623730951
 10
-154.408432232995
 20
87.99595790451567
 10
-154.500432232995
 20
87.99595790451569
 42
0.4142135623730951
 10
-154.507432232995
 20
87.98895790451568
  0
LWPOLYLINE
  5
142
330
2
100
AcDbEntity
  8
2
100
AcDbPolyline
 90
        4
 70
     0
 43
0.0
 10
-154.3294322329951
 20
88.01995790451567
 10
-154.344932232995
 20
88.01995790451567
 10
-154.344932232995
 20
87.95595790451564
 10
-154.3294322329951
 20
87.95595790451564
  0
LWPOLYLINE
  5
143
330
2
100
AcDbEntity
  8
2
100
AcDbPolyline
 90
       50
 70
     1
 43
0.0
 10
-154.421432232995
 20
88.03595790451574
 10
-154.421432232995
 20
88.01995790451568
 10
-154.411432232995
 20
88.01995790451568
 10
-154.411432232995
 20
88.01095790451569
 10
-154.447432232995
 20
88.01095790451569
 10
-154.447432232995
 20
88.01995790451568
 10
-154.437432232995
 20
88.01995790451568
 10
-154.437432232995
 20
88.03595790451574
 10
-154.471432232995
 20
88.03595790451574
 10
-154.471432232995
 20
88.01995790451568
 10
-154.461432232995
 20
88.01995790451568
 10
-154.461432232995
 20
88.01095790451569
 10
-154.497432232995
 20
88.01095790451569
 10
-154.497432232995
 20
88.01995790451568
 10
-154.487432232995
 20
88.01995790451568
 10
-154.487432232995
 20
88.03595790451574
 10
-154.521432232995
 20
88.03595790451574
 10
-154.521432232995
 20
88.01995790451568
 10
-154.511432232995
 20
88.01995790451568
 10
-154.511432232995
 20
88.01095790451567
 10
-154.525432232995
 20
88.01095790451569
 10
-154.525432232995
 20
87.96895790451563
 10
-154.537432232995
 20
87.96895790451563
 10
-154.537432232995
 20
88.03595790451574
 10
-154.5714322329949
 20
88.03595790451574
 10
-154.5714322329949
 20
88.0279579045157
 10
-154.553932232995
 20
88.0279579045157
 10
-154.553932232995
 20
88.01095790451576
 10
-154.581432232995
 20
88.01095790451576
 10
-154.581432232995
 20
87.96095790451571
 10
-154.553932232995
 20
87.96095790451571
 10
-154.553932232995
 20
87.95595790451569
 10
-154.532432232995
 20
87.95595790451569
 10
-154.517432232995
 20
87.95827419665057
 10
-154.517432232995
 20
88.00395790451569
 10
-154.391432232995
 20
88.00395790451569
 10
-154.3914322329949
 20
87.95827419665057
 10
-154.3764322329949
 20
87.95595790451569
 10
-154.3549322329949
 20
87.95595790451569
 10
-154.3549322329949
 20
88.0279579045157
 10
-154.337432232995
 20
88.0279579045157
 10
-154.337432232995
 20
88.03595790451574
 10
-154.371432232995
 20
88.03595790451574
 10
-154.371432232995
 20
87.96895790451564
 10
-154.383432232995
 20
87.96895790451563
 10
-154.383432232995
 20
88.01095790451569
 10
-154.3974322329949
 20
88.01095790451569
 10
-154.3974322329949
 20
88.01995790451568
 10
-154.387432232995
 20
88.01995790451568
 10
-154.387432232995
 20
88.03595790451574
  0
LWPOLYLINE
  5
144
330
2
100
AcDbEntity
  8
2
100
AcDbPolyline
 90
       42
 70
     1
 43
0.0
 10
-154.387432232995
 20
87.86595790451567
 10
-154.421432232995
 20
87.86595790451567
 10
-154.421432232995
 20
87.88295790451572
 10
-154.411432232995
 20
87.88295790451572
 10
-154.411432232995
 20
87.89095790451574
 10
-154.447432232995
 20
87.89095790451574
 10
-154.447432232995
 20
87.88295790451572
 10
-154.437432232995
 20
87.88295790451572
 10
-154.437432232995
 20
87.86595790451567
 10
-154.471432232995
 20
87.86595790451567
 10
-154.471432232995
 20
87.88295790451572
 10
-154.461432232995
 20
87.88295790451572
 10
-154.461432232995
 20
87.89095790451574
 10
-154.497432232995
 20
87.89095790451574
 10
-154.497432232995
 20
87.88295790451572
 10
-154.487432232995
 20
87.88295790451572
 10
-154.487432232995
 20
87.86595790451567
 10
-154.521432232995
 20
87.86595790451567
 10
-154.521432232995
 20
87.88295790451575
 10
-154.511432232995
 20
87.88295790451575
 10
-154.511432232995
 20
87.89095790451574
 10
-154.525432232995
 20
87.89095790451574
 10
-154.525432232995
 20
87.93295790451578
 10
-154.537432232995
 20
87.93295790451578
 10
-154.537432232995
 20
87.86595790451567
 10
-154.5714322329949
 20
87.86595790451567
 10
-154.5714322329949
 20
87.8739579045157
 10
-154.553932232995
 20
87.8739579045157
 10
-154.553932232995
 20
87.94595790451571
 10
-154.532432232995
 20
87.94595790451571
 10
-154.517432232995
 20
87.94364161238089
 10
-154.517432232995
 20
87.89795790451572
 10
-154.391432232995
 20
87.89795790451572
 10
-154.3914322329949
 20
87.94364161238084
 10
-154.376432232995
 20
87.94595790451571
 10
-154.367728163995
 20
87.94595790451571
 10
-154.367728163995
 20
87.93895790451569
 10
-154.383432232995
 20
87.9256537493824
 10
-154.383432232995
 20
87.89095790451574
 10
-154.3974322329949
 20
87.89095790451574
 10
-154.3974322329949
 20
87.88295790451575
 10
-154.387432232995
 20
87.88295790451575
  0
LWPOLYLINE
  5
145
330
2
100
AcDbEntity
  8
2
100
AcDbPolyline
 90
        6
 70
     0
 43
0.0
 10
-154.3294322329951
 20
87.94595790451571
 10
-154.362728163995
 20
87.94595790451571
 10
-154.3627281639951
 20
87.93795790451568
 10
-154.371432232995
 20
87.91838098448186
 10
-154.371432232995
 20
87.86595790451567
 10
-154.3294322329951
 20
87.86595790451567
  0
LINE
  5
146
330
2
100
AcDbEntity
  8
2D
100
AcDbLine
 10
-154.370432232995
 20
87.91838098448186
 30
0.0
 11
-154.3054531079376
 21
87.91838098448186
 31
0.0
  0
MTEXT
  5
147
330
2
100
AcDbEntity
  8
2D
100
AcDbMText
 10
-154.2985245365091
 20
87.91838098448186
 30
0.0
 40
0.003
 41
0.0
 46
0.0
 71
     5
 72
     1
  1
\A1;.0326
  7
SIMPLEX
 73
     1
 44
1.0
  0
LINE
  5
148
330
2
100
AcDbEntity
  8
2D
100
AcDbLine
 10
-154.382432232995
 20
87.9256537493824
 30
0.0
 11
-154.3054531079376
 21
87.9256537493824
 31
0.0
  0
MTEXT
  5
149
330
2
100
AcDbEntity
  8
2D
100
AcDbMText
 10
-154.2984531079376
 20
87.9256537493824
 30
0.0
 40
0.003
 41
0.0
 46
0.0
 71
     5
 72
     1
  1
\A1;.0253
  7
SIMPLEX
 73
     1
 44
1.0
  0
LINE
  5
14A
330
2
100
AcDbEntity
  8
2D
100
AcDbLine
 10
-154.3617281639951
 20
87.93795790451568
 30
0.0
 11
-154.3054531079376
 21
87.93795790451568
 31
0.0
  0
MTEXT
  5
14B
330
2
100
AcDbEntity
  8
2D
100
AcDbMText
 10
-154.2987388222234
 20
87.93795790451568
 30
0.0
 40
0.003
 41
0.0
 46
0.0
 71
     5
 72
     1
  1
\A1;.0130
  7
SIMPLEX
 73
     1
 44
1.0
  0
LINE
  5
14C
330
2
100
AcDbEntity
  8
2D
100
AcDbLine
 10
-154.366728163995
 20
87.93895790451569
 30
0.0
 11
-154.3173946018899
 21
87.93895790451569
 31
0.0
  0
LINE
  5
14D
330
2
100
AcDbEntity
  8
2D
100
AcDbLine
 10
-154.3173946018899
 20
87.93895790451569
 30
0.0
 11
-154.3113946018899
 21
87.94166742272279
 31
0.0
  0
LINE
  5
14E
330
2
100
AcDbEntity
  8
2D
100
AcDbLine
 10
-154.3113946018899
 20
87.94166742272279
 30
0.0
 11
-154.3053946018899
 21
87.94166742272279
 31
0.0
  0
MTEXT
  5
14F
330
2
100
AcDbEntity
  8
2D
100
AcDbMText
 10
-154.2986803161756
 20
87.94166742272279
 30
0.0
 40
0.003
 41
0.0
 46
0.0
 71
     5
 72
     1
  1
\A1;.0120
  7
SIMPLEX
 73
     1
 44
1.0
  0
LINE
  5
150
330
2
100
AcDbEntity
  8
2D
100
AcDbLine
 10
-154.367728163995
 20
87.94695790451569
 30
0.0
 11
-154.367728163995
 21
88.06373622385756
 31
0.0
  0
MTEXT
  5
151
330
2
100
AcDbEntity
  8
2D
100
AcDbMText
 10
-154.367728163995
 20
88.07073622385756
 30
0.0
 40
0.003
 41
0.0
 46
0.0
 71
     5
 72
     1
  1
\A1;.0867
  7
SIMPLEX
 11
0.0000000000000001
 21
1.0
 31
0.0
 73
     1
 44
1.0
  0
LINE
  5
152
330
2
100
AcDbEntity
  8
2D
100
AcDbLine
 10
-154.362728163995
 20
87.94695790451568
 30
0.0
 11
-154.362728163995
 21
88.06393999044287
 31
0.0
  0
MTEXT
  5
153
330
2
100
AcDbEntity
  8
2D
100
AcDbMText
 10
-154.362728163995
 20
88.07065427615716
 30
0.0
 40
0.003
 41
0.0
 46
0.0
 71
     5
 72
     1
  1
\A1;.0917
  7
SIMPLEX
 11
0.0000000000000001
 21
1.0
 31
0.0
 73
     1
 44
1.0
  0
LINE
  5
154
330
2
100
AcDbEntity
  8
2D
100
AcDbLine
 10
-154.389432232995
 20
87.74754359112845
 30
0.0
 11
-154.389432232995
 21
87.73954359112847
 31
0.0
  0
ARC
  5
155
330
2
100
AcDbEntity
  8
2
100
AcDbCircle
 10
-154.403432232995
 20
87.73954359112844
 30
0.0
 40
0.0039999999999907
100
AcDbArc
 50
0.0
 51
180.0
  0
ENDSEC
  0
SECTION
  2
OBJECTS
  0
DICTIONARY
  5
C
330
0
100
AcDbDictionary
281
     1
  3
ACAD_COLOR
350
47
  3
ACAD_GROUP
350
34
  3
ACAD_LAYOUT
350
19
  3
ACAD_MATERIAL
350
E
  3
ACAD_MLEADERSTYLE
350
4A
  3
ACAD_MLINESTYLE
350
35
  3
ACAD_PLOTSETTINGS
350
36
  3
ACAD_PLOTSTYLENAME
350
B
  3
ACAD_SCALELIST
350
48
  3
ACAD_TABLESTYLE
350
49
  3
ACAD_VISUALSTYLE
350
2C
  3
ACDB_RECOMPOSE_DATA
350
159
  3
AcDbVariableDictionary
350
4B
  0
DICTIONARY
  5
8
330
7
100
AcDbDictionary
280
     1
281
     1
  3
ADSK_XREC_LAYER_RECONCILED
360
9
  0
DICTIONARY
  5
59
330
58
100
AcDbDictionary
280
     1
281
     1
  3
ADSK_XREC_LAYER_RECONCILED
360
5A
  0
DICTIONARY
  5
78
330
77
100
AcDbDictionary
280
     1
281
     1
  3
ADSK_XREC_LAYER_RECONCILED
360
79
  0
DICTIONARY
  5
73
330
72
100
AcDbDictionary
280
     1
281
     1
  3
ADSK_XREC_LAYER_RECONCILED
360
74
  0
DICTIONARY
  5
3
330
2
100
AcDbDictionary
280
     1
281
     1
  3
ACAD_LAYOUTSELFREF
360
4
  3
ACAD_SORTENTS
360
156
  0
DICTIONARY
  5
1B
330
1A
100
AcDbDictionary
280
     1
281
     1
  3
ACAD_LAYOUTSELFREF
360
1C
  0
DICTIONARY
  5
47
102
{ACAD_REACTORS
330
C
102
}
330
C
100
AcDbDictionary
281
     1
  0
DICTIONARY
  5
34
102
{ACAD_REACTORS
330
C
102
}
330
C
100
AcDbDictionary
281
     1
  0
DICTIONARY
  5
19
102
{ACAD_REACTORS
330
C
102
}
330
C
100
AcDbDictionary
281
     1
  3
Layout1
350
1F
  3
Model
350
18
  0
DICTIONARY
  5
E
102
{ACAD_REACTORS
330
C
102
}
330
C
100
AcDbDictionary
281
     1
  3
ByBlock
350
3F
  3
ByLayer
350
37
  3
Global
350
D
  0
DICTIONARY
  5
4A
102
{ACAD_REACTORS
330
C
102
}
330
C
100
AcDbDictionary
281
     1
  0
DICTIONARY
  5
35
102
{ACAD_REACTORS
330
C
102
}
330
C
100
AcDbDictionary
281
     1
  3
Standard
350
5B
  0
DICTIONARY
  5
36
102
{ACAD_REACTORS
330
C
102
}
330
C
100
AcDbDictionary
281
     1
  0
ACDBDICTIONARYWDFLT
  5
B
102
{ACAD_REACTORS
330
C
102
}
330
C
100
AcDbDictionary
281
     1
  3
Normal
350
A
100
AcDbDictionaryWithDefault
340
A
  0
DICTIONARY
  5
48
102
{ACAD_REACTORS
330
C
102
}
330
C
100
AcDbDictionary
281
     1
  3
A0
350
60
  3
A1
350
61
  3
A2
350
62
  3
A3
350
63
  3
A4
350
64
  3
A5
350
65
  3
A6
350
66
  3
A7
350
67
  3
A8
350
68
  3
A9
350
69
  3
B0
350
6A
  3
B1
350
6B
  3
B2
350
6C
  3
B3
350
6D
  3
B4
350
6E
  3
B5
350
6F
  3
B6
350
70
  0
DICTIONARY
  5
49
102
{ACAD_REACTORS
330
C
102
}
330
C
100
AcDbDictionary
281
     1
  3
Standard
350
5C
  0
DICTIONARY
  5
2C
102
{ACAD_REACTORS
330
C
102
}
330
C
100
AcDbDictionary
281
     1
  3
2dWireframe
350
2B
  3
EdgeColorOff
350
84
  3
Realistic
350
5E
  3
Wireframe
350
5F
  0
XRECORD
  5
159
102
{ACAD_REACTORS
330
C
102
}
330
C
100
AcDbXrecord
280
     1
 90
        1
330
5C
  0
DICTIONARY
  5
4B
102
{ACAD_REACTORS
330
C
102
}
330
C
100
AcDbDictionary
281
     1
  3
CANNOSCALE
350
4C
  3
CMLEADERSTYLE
350
4D
  3
CTABLESTYLE
350
4E
  3
CVIEWDETAILSTYLE
350
4F
  3
CVIEWSECTIONSTYLE
350
50
  3
DIMASSOC
350
51
  3
LAYEREVAL
350
52
  3
LAYERNOTIFY
350
53
  3
LIGHTINGUNITS
350
54
  3
MSLTSCALE
350
55
  3
PROJECTNAME
350
56
  3
SORTENTS
350
57
  0
XRECORD
  5
9
102
{ACAD_REACTORS
330
8
102
}
330
8
100
AcDbXrecord
280
     1
290
     1
  0
XRECORD
  5
5A
102
{ACAD_REACTORS
330
59
102
}
330
59
100
AcDbXrecord
280
     1
290
     1
  0
XRECORD
  5
79
102
{ACAD_REACTORS
330
78
102
}
330
78
100
AcDbXrecord
280
     1
290
     1
  0
XRECORD
  5
74
102
{ACAD_REACTORS
330
73
102
}
330
73
100
AcDbXrecord
280
     1
290
     1
  0
XRECORD
  5
4
102
{ACAD_REACTORS
330
3
102
}
330
3
100
AcDbXrecord
280
     1
340
2
  0
SORTENTSTABLE
  5
156
102
{ACAD_REACTORS
330
3
102
}
330
3
100
AcDbSortentsTable
330
2
  0
XRECORD
  5
1C
102
{ACAD_REACTORS
330
1B
102
}
330
1B
100
AcDbXrecord
280
     1
340
1A
  0
LAYOUT
  5
1F
102
{ACAD_REACTORS
330
19
102
}
330
19
100
AcDbPlotSettings
  1

  2
\\ASM_2\LASERQ_3
  4

  6

 40
0.0
 41
0.0
 42
0.0
 43
0.0
 44
0.0
 45
0.0
 46
0.0
 47
0.0
 48
0.0
 49
0.0
140
0.0
141
0.0
142
1.0
143
1.0
 70
   688
 72
     0
 73
     0
 74
     5
  7
monochrome.ctb
 75
    16
147
1.0
 76
     0
 77
     2
 78
   300
148
0.0
149
0.0
100
AcDbLayout
  1
Layout1
 70
     0
 71
     1
 10
0.0
 20
0.0
 11
12.0
 21
9.0
 12
0.0
 22
0.0
 32
0.0
 14
1.000000000000000E+20
 24
1.000000000000000E+20
 34
1.000000000000000E+20
 15
-1.000000000000000E+20
 25
-1.000000000000000E+20
 35
-1.000000000000000E+20
146
0.0
 13
0.0
 23
0.0
 33
0.0
 16
1.0
 26
0.0
 36
0.0
 17
0.0
 27
1.0
 37
0.0
 76
     0
330
1A
  0
LAYOUT
  5
18
102
{ACAD_REACTORS
330
19
102
}
330
19
100
AcDbPlotSettings
  1

  2
\\ATS1\2FL_CADRM
  4
A4
  6

 40
5.746749877929687
 41
5.365768432617186
 42
5.70440673828125
 43
5.746734619140625
 44
209.8886566162109
 45
297.0530090332031
 46
0.5200000000000001
 47
0.0
 48
-152.4510971898208
 49
85.87327688703048
140
-150.8663048445675
141
88.16886289270295
142
1.0
143
0.0080281945287647
 70
 28340
 72
     1
 73
     0
 74
     4
  7
monochrome.ctb
 75
     0
147
124.5610076359062
 76
     0
 77
     2
 78
   300
148
152.4510971898208
149
-85.87327688703048
100
AcDbLayout
  1
Model
 70
     1
 71
     0
 10
0.0
 20
0.0
 11
12.0
 21
9.0
 12
0.0
 22
0.0
 32
0.0
 14
0.0
 24
0.0
 34
0.0
 15
0.0
 25
0.0
 35
0.0
146
0.0
 13
0.0
 23
0.0
 33
0.0
 16
1.0
 26
0.0
 36
0.0
 17
0.0
 27
1.0
 37
0.0
 76
     0
330
2
331
2A
  0
MATERIAL
  5
3F
102
{ACAD_XDICTIONARY
360
40
102
}
102
{ACAD_REACTORS
330
E
102
}
330
E
100
AcDbMaterial
  1
ByBlock
 72
     0
 43
0.0208333333333333
 43
0.0
 43
0.0
 43
0.0
 43
0.0
 43
0.0208333333333333
 43
0.0
 43
0.0
 43
0.0
 43
0.0
 43
1.0
 43
0.0
 43
0.0
 43
0.0
 43
0.0
 43
1.0
 77
     0
 47
0.0208333333333333
 47
0.0
 47
0.0
 47
0.0
 47
0.0
 47
0.0208333333333333
 47
0.0
 47
0.0
 47
0.0
 47
0.0
 47
1.0
 47
0.0
 47
0.0
 47
0.0
 47
0.0
 47
1.0
171
     0
 49
0.0208333333333333
 49
0.0
 49
0.0
 49
0.0
 49
0.0
 49
0.0208333333333333
 49
0.0
 49
0.0
 49
0.0
 49
0.0
 49
1.0
 49
0.0
 49
0.0
 49
0.0
 49
0.0
 49
1.0
175
     0
142
0.0208333333333333
142
0.0
142
0.0
142
0.0
142
0.0
142
0.0208333333333333
142
0.0
142
0.0
142
0.0
142
0.0
142
1.0
142
0.0
142
0.0
142
0.0
142
0.0
142
1.0
179
     0
144
0.0208333333333333
144
0.0
144
0.0
144
0.0
144
0.0
144
0.0208333333333333
144
0.0
144
0.0
144
0.0
144
0.0
144
1.0
144
0.0
144
0.0
144
0.0
144
0.0
144
1.0
147
0.0208333333333333
147
0.0
147
0.0
147
0.0
147
0.0
147
0.0208333333333333
147
0.0
147
0.0
147
0.0
147
0.0
147
1.0
147
0.0
147
0.0
147
0.0
147
0.0
147
1.0
  0
MATERIAL
  5
37
102
{ACAD_XDICTIONARY
360
38
102
}
102
{ACAD_REACTORS
330
E
102
}
330
E
100
AcDbMaterial
  1
ByLayer
 72
     0
 43
0.0208333333333333
 43
0.0
 43
0.0
 43
0.0
 43
0.0
 43
0.0208333333333333
 43
0.0
 43
0.0
 43
0.0
 43
0.0
 43
1.0
 43
0.0
 43
0.0
 43
0.0
 43
0.0
 43
1.0
 77
     0
 47
0.0208333333333333
 47
0.0
 47
0.0
 47
0.0
 47
0.0
 47
0.0208333333333333
 47
0.0
 47
0.0
 47
0.0
 47
0.0
 47
1.0
 47
0.0
 47
0.0
 47
0.0
 47
0.0
 47
1.0
171
     0
 49
0.0208333333333333
 49
0.0
 49
0.0
 49
0.0
 49
0.0
 49
0.0208333333333333
 49
0.0
 49
0.0
 49
0.0
 49
0.0
 49
1.0
 49
0.0
 49
0.0
 49
0.0
 49
0.0
 49
1.0
175
     0
142
0.0208333333333333
142
0.0
142
0.0
142
0.0
142
0.0
142
0.0208333333333333
142
0.0
142
0.0
142
0.0
142
0.0
142
1.0
142
0.0
142
0.0
142
0.0
142
0.0
142
1.0
179
     0
144
0.0208333333333333
144
0.0
144
0.0
144
0.0
144
0.0
144
0.0208333333333333
144
0.0
144
0.0
144
0.0
144
0.0
144
1.0
144
0.0
144
0.0
144
0.0
144
0.0
144
1.0
147
0.0208333333333333
147
0.0
147
0.0
147
0.0
147
0.0
147
0.0208333333333333
147
0.0
147
0.0
147
0.0
147
0.0
147
1.0
147
0.0
147
0.0
147
0.0
147
0.0
147
1.0
  0
MATERIAL
  5
D
102
{ACAD_XDICTIONARY
360
F
102
}
102
{ACAD_REACTORS
330
E
102
}
330
E
100
AcDbMaterial
  1
Global
 72
     0
 43
0.0208333333333333
 43
0.0
 43
0.0
 43
0.0
 43
0.0
 43
0.0208333333333333
 43
0.0
 43
0.0
 43
0.0
 43
0.0
 43
1.0
 43
0.0
 43
0.0
 43
0.0
 43
0.0
 43
1.0
 77
     0
 47
0.0208333333333333
 47
0.0
 47
0.0
 47
0.0
 47
0.0
 47
0.0208333333333333
 47
0.0
 47
0.0
 47
0.0
 47
0.0
 47
1.0
 47
0.0
 47
0.0
 47
0.0
 47
0.0
 47
1.0
171
     0
 49
0.0208333333333333
 49
0.0
 49
0.0
 49
0.0
 49
0.0
 49
0.0208333333333333
 49
0.0
 49
0.0
 49
0.0
 49
0.0
 49
1.0
 49
0.0
 49
0.0
 49
0.0
 49
0.0
 49
1.0
175
     0
142
0.0208333333333333
142
0.0
142
0.0
142
0.0
142
0.0
142
0.0208333333333333
142
0.0
142
0.0
142
0.0
142
0.0
142
1.0
142
0.0
142
0.0
142
0.0
142
0.0
142
1.0
179
     0
144
0.0208333333333333
144
0.0
144
0.0
144
0.0
144
0.0
144
0.0208333333333333
144
0.0
144
0.0
144
0.0
144
0.0
144
1.0
144
0.0
144
0.0
144
0.0
144
0.0
144
1.0
147
0.0208333333333333
147
0.0
147
0.0
147
0.0
147
0.0
147
0.0208333333333333
147
0.0
147
0.0
147
0.0
147
0.0
147
1.0
147
0.0
147
0.0
147
0.0
147
0.0
147
1.0
  0
MLINESTYLE
  5
5B
102
{ACAD_REACTORS
330
35
102
}
330
35
100
AcDbMlineStyle
  2
STANDARD
 70
     0
  3

 62
   256
 51
90.0
 52
90.0
 71
     2
 49
0.5
 62
   256
  6
BYLAYER
 49
-0.5
 62
   256
  6
BYLAYER
  0
ACDBPLACEHOLDER
  5
A
102
{ACAD_REACTORS
330
B
102
}
330
B
  0
SCALE
  5
60
102
{ACAD_REACTORS
330
48
102
}
330
48
100
AcDbScale
 70
     0
300
1:1
140
1.0
141
1.0
290
     1
  0
SCALE
  5
61
102
{ACAD_REACTORS
330
48
102
}
330
48
100
AcDbScale
 70
     0
300
1/128" = 1'-0"
140
0.0078125
141
12.0
290
     0
  0
SCALE
  5
62
102
{ACAD_REACTORS
330
48
102
}
330
48
100
AcDbScale
 70
     0
300
1/64" = 1'-0"
140
0.015625
141
12.0
290
     0
  0
SCALE
  5
63
102
{ACAD_REACTORS
330
48
102
}
330
48
100
AcDbScale
 70
     0
300
1/32" = 1'-0"
140
0.03125
141
12.0
290
     0
  0
SCALE
  5
64
102
{ACAD_REACTORS
330
48
102
}
330
48
100
AcDbScale
 70
     0
300
1/16" = 1'-0"
140
0.0625
141
12.0
290
     0
  0
SCALE
  5
65
102
{ACAD_REACTORS
330
48
102
}
330
48
100
AcDbScale
 70
     0
300
3/32" = 1'-0"
140
0.09375
141
12.0
290
     0
  0
SCALE
  5
66
102
{ACAD_REACTORS
330
48
102
}
330
48
100
AcDbScale
 70
     0
300
1/8" = 1'-0"
140
0.125
141
12.0
290
     0
  0
SCALE
  5
67
102
{ACAD_REACTORS
330
48
102
}
330
48
100
AcDbScale
 70
     0
300
3/16" = 1'-0"
140
0.1875
141
12.0
290
     0
  0
SCALE
  5
68
102
{ACAD_REACTORS
330
48
102
}
330
48
100
AcDbScale
 70
     0
300
1/4" = 1'-0"
140
0.25
141
12.0
290
     0
  0
SCALE
  5
69
102
{ACAD_REACTORS
330
48
102
}
330
48
100
AcDbScale
 70
     0
300
3/8" = 1'-0"
140
0.375
141
12.0
290
     0
  0
SCALE
  5
6A
102
{ACAD_REACTORS
330
48
102
}
330
48
100
AcDbScale
 70
     0
300
1/2" = 1'-0"
140
0.5
141
12.0
290
     0
  0
SCALE
  5
6B
102
{ACAD_REACTORS
330
48
102
}
330
48
100
AcDbScale
 70
     0
300
3/4" = 1'-0"
140
0.75
141
12.0
290
     0
  0
SCALE
  5
6C
102
{ACAD_REACTORS
330
48
102
}
330
48
100
AcDbScale
 70
     0
300
1" = 1'-0"
140
1.0
141
12.0
290
     0
  0
SCALE
  5
6D
102
{ACAD_REACTORS
330
48
102
}
330
48
100
AcDbScale
 70
     0
300
1-1/2" = 1'-0"
140
1.5
141
12.0
290
     0
  0
SCALE
  5
6E
102
{ACAD_REACTORS
330
48
102
}
330
48
100
AcDbScale
 70
     0
300
3" = 1'-0"
140
3.0
141
12.0
290
     0
  0
SCALE
  5
6F
102
{ACAD_REACTORS
330
48
102
}
330
48
100
AcDbScale
 70
     0
300
6" = 1'-0"
140
6.0
141
12.0
290
     0
  0
SCALE
  5
70
102
{ACAD_REACTORS
330
48
102
}
330
48
100
AcDbScale
 70
     0
300
1'-0" = 1'-0"
140
12.0
141
12.0
290
     0
  0
TABLESTYLE
  5
5C
102
{ACAD_XDICTIONARY
360
5D
102
}
102
{ACAD_REACTORS
330
49
102
}
330
49
100
AcDbTableStyle
280
     0
  3
Standard
 70
     0
 71
     0
 40
0.06
 41
0.06
280
     0
281
     0
  7
STANDARD
140
0.18
170
     2
 62
     0
 63
     7
283
     0
 90
        4
 91
        0
  1

274
    -2
284
     1
 64
     0
275
    -2
285
     1
 65
     0
276
    -2
286
     1
 66
     0
277
    -2
287
     1
 67
     0
278
    -2
288
     1
 68
     0
279
    -2
289
     1
 69
     0
  7
STANDARD
140
0.25
170
     5
 62
     0
 63
     7
283
     0
 90
        4
 91
        0
  1

274
    -2
284
     1
 64
     0
275
    -2
285
     1
 65
     0
276
    -2
286
     1
 66
     0
277
    -2
287
     1
 67
     0
278
    -2
288
     1
 68
     0
279
    -2
289
     1
 69
     0
  7
STANDARD
140
0.18
170
     5
 62
     0
 63
     7
283
     0
 90
        4
 91
        0
  1

274
    -2
284
     1
 64
     0
275
    -2
285
     1
 65
     0
276
    -2
286
     1
 66
     0
277
    -2
287
     1
 67
     0
278
    -2
288
     1
 68
     0
279
    -2
289
     1
 69
     0
  0
VISUALSTYLE
  5
2B
102
{ACAD_REACTORS
330
2C
102
}
330
2C
100
AcDbVisualStyle
  2
2dWireframe
 70
     4
177
     3
291
     0
 70
    58
 90
        0
176
     1
 90
        2
176
     1
 90
        0
176
     1
 90
        0
176
     1
 40
0.6
176
     1
 40
30.0
176
     1
 62
     7
420
 16777215
176
     1
 90
        1
176
     1
 90
        4
176
     1
 62
     7
176
     1
 62
   257
176
     1
 90
        1
176
     1
 90
        1
176
     1
 40
1.0
176
     1
 90
        0
176
     1
 62
   257
176
     1
 40
1.0
176
     1
 90
        1
176
     1
 90
        6
176
     1
 90
        2
176
     1
 62
     7
176
     1
 90
        5
176
     1
 90
        0
176
     1
 90
        0
176
     1
290
     0
176
     1
 90
        1
176
     1
 40
0.0
176
     1
 90
        0
176
     1
290
     1
176
     1
290
     1
176
     1
290
     0
176
     1
290
     0
176
     1
290
     0
176
     1
290
     0
176
     1
290
     0
176
     1
290
     0
176
     1
290
     0
176
     1
 90
       50
176
     1
 40
0.0
176
     1
 40
1.0
176
     1
 90
        0
176
     1
 62
    18
176
     1
 90
       50
176
     1
 90
        3
176
     1
 62
     5
420
      255
176
     1
290
     0
176
     1
 90
       50
176
     1
 90
       50
176
     1
 90
       50
176
     1
290
     0
176
     1
 90
       50
176
     1
 62
   256
176
     0
 40
1.0
176
     0
 90
        2
176
     1
  1
strokes_ogs.tif
176
     1
290
     0
176
     1
 40
1.0
176
     1
 40
1.0
176
     1
  0
VISUALSTYLE
  5
84
102
{ACAD_REACTORS
330
2C
102
}
330
2C
100
AcDbVisualStyle
  2
EdgeColorOff
 70
    22
177
     3
291
     1
 70
    58
 90
        2
176
     0
 90
        2
176
     0
 90
        0
176
     0
 90
        0
176
     0
 40
0.6
176
     0
 40
30.0
176
     0
 62
     7
420
 16777215
176
     0
 90
        1
176
     0
 90
        4
176
     0
 62
     7
176
     0
 62
   257
176
     0
 90
        1
176
     0
 90
        1
176
     0
 40
1.0
176
     0
 90
        8
176
     2
 62
     7
176
     0
 40
1.0
176
     0
 90
        1
176
     0
 90
        6
176
     0
 90
        2
176
     0
 62
     7
176
     0
 90
        5
176
     0
 90
        0
176
     0
 90
        0
176
     0
290
     0
176
     0
 90
        1
176
     0
 40
0.0
176
     0
 90
        0
176
     0
290
     0
176
     0
290
     1
176
     0
290
     1
176
     0
290
     0
176
     0
290
     0
176
     0
290
     0
176
     0
290
     0
176
     0
290
     0
176
     0
290
     0
176
     0
 90
       50
176
     0
 40
0.0
176
     0
 40
1.0
176
     0
 90
        0
176
     0
 62
    18
176
     0
 90
       50
176
     0
 90
        3
176
     0
 62
     5
420
      255
176
     0
290
     0
176
     0
 90
       50
176
     0
 90
       50
176
     0
 90
       50
176
     0
290
     0
176
     0
 90
       50
176
     0
 62
   256
176
     0
 40
1.0
176
     0
 90
        2
176
     0
  1
strokes_ogs.tif
176
     0
290
     0
176
     0
 40
1.0
176
     0
 40
1.0
176
     0
  0
VISUALSTYLE
  5
5E
102
{ACAD_REACTORS
330
2C
102
}
330
2C
100
AcDbVisualStyle
  2
Realistic
 70
     8
177
     3
291
     0
 70
    58
 90
        2
176
     1
 90
        3
176
     1
 90
        0
176
     1
 90
        2
176
     1
 40
0.6
176
     1
 40
30.0
176
     1
 62
     7
420
 16777215
176
     1
 90
        0
176
     1
 90
        0
176
     1
 62
     7
176
     1
 62
   257
176
     1
 90
        1
176
     1
 90
        1
176
     1
 40
1.0
176
     1
 90
        8
176
     1
 62
   257
176
     1
 40
1.0
176
     1
 90
        1
176
     1
 90
        6
176
     1
 90
        2
176
     1
 62
     7
176
     1
 90
        3
176
     1
 90
        0
176
     1
 90
        0
176
     1
290
     0
176
     1
 90
       13
176
     1
 40
0.0
176
     1
 90
        0
176
     1
290
     0
176
     1
290
     1
176
     1
290
     1
176
     1
290
     0
176
     1
290
     0
176
     1
290
     0
176
     1
290
     0
176
     1
290
     0
176
     1
290
     0
176
     1
 90
       50
176
     1
 40
0.0
176
     1
 40
1.0
176
     1
 90
        0
176
     1
 62
    18
176
     1
 90
       50
176
     1
 90
        3
176
     1
 62
     5
420
      255
176
     1
290
     0
176
     1
 90
       50
176
     1
 90
       50
176
     1
 90
       50
176
     1
290
     0
176
     1
 90
       50
176
     1
 62
   256
176
     0
 40
1.0
176
     0
 90
        2
176
     1
  1
strokes_ogs.tif
176
     1
290
     0
176
     1
 40
1.0
176
     1
 40
1.0
176
     1
  0
VISUALSTYLE
  5
5F
102
{ACAD_REACTORS
330
2C
102
}
330
2C
100
AcDbVisualStyle
  2
Wireframe
 70
     5
177
     3
291
     0
 70
    58
 90
        0
176
     1
 90
        2
176
     1
 90
        0
176
     1
 90
        0
176
     1
 40
0.6
176
     1
 40
30.0
176
     1
 62
     7
420
 16777215
176
     1
 90
        1
176
     1
 90
        4
176
     1
 62
     7
176
     1
 62
   257
176
     1
 90
        1
176
     1
 90
        1
176
     1
 40
1.0
176
     1
 90
        0
176
     1
 62
   257
176
     1
 40
1.0
176
     1
 90
        1
176
     1
 90
        6
176
     1
 90
        2
176
     1
 62
     7
176
     1
 90
        3
176
     1
 90
        0
176
     1
 90
        0
176
     1
290
     0
176
     1
 90
        1
176
     1
 40
0.0
176
     1
 90
        0
176
     1
290
     0
176
     1
290
     1
176
     1
290
     1
176
     1
290
     0
176
     1
290
     0
176
     1
290
     0
176
     1
290
     0
176
     1
290
     0
176
     1
290
     0
176
     1
 90
       50
176
     1
 40
0.0
176
     1
 40
1.0
176
     1
 90
        0
176
     1
 62
    18
176
     1
 90
       50
176
     1
 90
        3
176
     1
 62
     5
420
      255
176
     1
290
     0
176
     1
 90
       50
176
     1
 90
       50
176
     1
 90
       50
176
     1
290
     0
176
     1
 90
       50
176
     1
 62
   256
176
     0
 40
1.0
176
     0
 90
        2
176
     1
  1
strokes_ogs.tif
176
     1
290
     0
176
     1
 40
1.0
176
     1
 40
1.0
176
     1
  0
DICTIONARYVAR
  5
4C
102
{ACAD_REACTORS
330
4B
102
}
330
4B
100
DictionaryVariables
280
     0
  1
1:1
  0
DICTIONARYVAR
  5
4D
102
{ACAD_REACTORS
330
4B
102
}
330
4B
100
DictionaryVariables
280
     0
  1
STANDARD
  0
DICTIONARYVAR
  5
4E
102
{ACAD_REACTORS
330
4B
102
}
330
4B
100
DictionaryVariables
280
     0
  1
STANDARD
  0
DICTIONARYVAR
  5
4F
102
{ACAD_REACTORS
330
4B
102
}
330
4B
100
DictionaryVariables
280
     0
  1

  0
DICTIONARYVAR
  5
50
102
{ACAD_REACTORS
330
4B
102
}
330
4B
100
DictionaryVariables
280
     0
  1

  0
DICTIONARYVAR
  5
51
102
{ACAD_REACTORS
330
4B
102
}
330
4B
100
DictionaryVariables
280
     0
  1
0
  0
DICTIONARYVAR
  5
52
102
{ACAD_REACTORS
330
4B
102
}
330
4B
100
DictionaryVariables
280
     0
  1
1
  0
DICTIONARYVAR
  5
53
102
{ACAD_REACTORS
330
4B
102
}
330
4B
100
DictionaryVariables
280
     0
  1
15
  0
DICTIONARYVAR
  5
54
102
{ACAD_REACTORS
330
4B
102
}
330
4B
100
DictionaryVariables
280
     0
  1
0
  0
DICTIONARYVAR
  5
55
102
{ACAD_REACTORS
330
4B
102
}
330
4B
100
DictionaryVariables
280
     0
  1
0
  0
DICTIONARYVAR
  5
56
102
{ACAD_REACTORS
330
4B
102
}
330
4B
100
DictionaryVariables
280
     0
  1

  0
DICTIONARYVAR
  5
57
102
{ACAD_REACTORS
330
4B
102
}
330
4B
100
DictionaryVariables
280
     0
  1
1
  0
DICTIONARY
  5
40
330
3F
100
AcDbDictionary
280
     1
281
     1
  3
BUMPTILE
360
41
  3
DIFFUSETILE
360
42
  3
OPACITYTILE
360
43
  3
REFLECTIONTILE
360
44
  3
REFRACTIONTILE
360
45
  3
SPECULARTILE
360
46
  0
DICTIONARY
  5
38
330
37
100
AcDbDictionary
280
     1
281
     1
  3
BUMPTILE
360
39
  3
DIFFUSETILE
360
3A
  3
OPACITYTILE
360
3B
  3
REFLECTIONTILE
360
3C
  3
REFRACTIONTILE
360
3D
  3
SPECULARTILE
360
3E
  0
DICTIONARY
  5
F
330
D
100
AcDbDictionary
280
     1
281
     1
  3
BUMPTILE
360
10
  3
DIFFUSETILE
360
11
  3
OPACITYTILE
360
12
  3
REFLECTIONTILE
360
13
  3
REFRACTIONTILE
360
14
  3
SPECULARTILE
360
15
  0
DICTIONARY
  5
5D
330
5C
100
AcDbDictionary
280
     1
281
     1
  3
ACAD_ROUNDTRIP_2008_TABLESTYLE_CELLSTYLEMAP
360
158
  0
XRECORD
  5
41
102
{ACAD_REACTORS
330
40
102
}
330
40
100
AcDbXrecord
280
     1
270
     1
271
     1
  0
XRECORD
  5
42
102
{ACAD_REACTORS
330
40
102
}
330
40
100
AcDbXrecord
280
     1
270
     1
271
     1
  0
XRECORD
  5
43
102
{ACAD_REACTORS
330
40
102
}
330
40
100
AcDbXrecord
280
     1
270
     1
271
     1
  0
XRECORD
  5
44
102
{ACAD_REACTORS
330
40
102
}
330
40
100
AcDbXrecord
280
     1
270
     1
271
     1
  0
XRECORD
  5
45
102
{ACAD_REACTORS
330
40
102
}
330
40
100
AcDbXrecord
280
     1
270
     1
271
     1
  0
XRECORD
  5
46
102
{ACAD_REACTORS
330
40
102
}
330
40
100
AcDbXrecord
280
     1
270
     1
271
     1
  0
XRECORD
  5
39
102
{ACAD_REACTORS
330
38
102
}
330
38
100
AcDbXrecord
280
     1
270
     1
271
     1
  0
XRECORD
  5
3A
102
{ACAD_REACTORS
330
38
102
}
330
38
100
AcDbXrecord
280
     1
270
     1
271
     1
  0
XRECORD
  5
3B
102
{ACAD_REACTORS
330
38
102
}
330
38
100
AcDbXrecord
280
     1
270
     1
271
     1
  0
XRECORD
  5
3C
102
{ACAD_REACTORS
330
38
102
}
330
38
100
AcDbXrecord
280
     1
270
     1
271
     1
  0
XRECORD
  5
3D
102
{ACAD_REACTORS
330
38
102
}
330
38
100
AcDbXrecord
280
     1
270
     1
271
     1
  0
XRECORD
  5
3E
102
{ACAD_REACTORS
330
38
102
}
330
38
100
AcDbXrecord
280
     1
270
     1
271
     1
  0
XRECORD
  5
10
102
{ACAD_REACTORS
330
F
102
}
330
F
100
AcDbXrecord
280
     1
270
     1
271
     1
  0
XRECORD
  5
11
102
{ACAD_REACTORS
330
F
102
}
330
F
100
AcDbXrecord
280
     1
270
     1
271
     1
  0
XRECORD
  5
12
102
{ACAD_REACTORS
330
F
102
}
330
F
100
AcDbXrecord
280
     1
270
     1
271
     1
  0
XRECORD
  5
13
102
{ACAD_REACTORS
330
F
102
}
330
F
100
AcDbXrecord
280
     1
270
     1
271
     1
  0
XRECORD
  5
14
102
{ACAD_REACTORS
330
F
102
}
330
F
100
AcDbXrecord
280
     1
270
     1
271
     1
  0
XRECORD
  5
15
102
{ACAD_REACTORS
330
F
102
}
330
F
100
AcDbXrecord
280
     1
270
     1
271
     1
  0
CELLSTYLEMAP
  5
158
102
{ACAD_REACTORS
330
5D
102
}
330
5D
100
AcDbCellStyleMap
 90
        3
300
CELLSTYLE
  1
TABLEFORMAT_BEGIN
 90
        5
170
     1
 91
        0
 92
    32768
 62
   257
 93
        1
300
CONTENTFORMAT
  1
CONTENTFORMAT_BEGIN
 90
        0
 91
        0
 92
        4
 93
        0
300

 40
0.0
140
1.0
 94
        5
 62
     0
340
22
144
0.25
309
CONTENTFORMAT_END
171
     1
301
MARGIN
  1
CELLMARGIN_BEGIN
 40
0.06
 40
0.06
 40
0.06
 40
0.06
 40
0.18
 40
0.18
309
CELLMARGIN_END
 94
        6
 95
        1
302
GRIDFORMAT
  1
GRIDFORMAT_BEGIN
 90
        0
 91
        1
 62
     0
 92
       -2
340
0
 93
        0
 40
0.045
309
GRIDFORMAT_END
 95
        2
302
GRIDFORMAT
  1
GRIDFORMAT_BEGIN
 90
        0
 91
        1
 62
     0
 92
       -2
340
0
 93
        0
 40
0.045
309
GRIDFORMAT_END
 95
        4
302
GRIDFORMAT
  1
GRIDFORMAT_BEGIN
 90
        0
 91
        1
 62
     0
 92
       -2
340
0
 93
        0
 40
0.045
309
GRIDFORMAT_END
 95
        8
302
GRIDFORMAT
  1
GRIDFORMAT_BEGIN
 90
        0
 91
        1
 62
     0
 92
       -2
340
0
 93
        0
 40
0.045
309
GRIDFORMAT_END
 95
       16
302
GRIDFORMAT
  1
GRIDFORMAT_BEGIN
 90
        0
 91
        1
 62
     0
 92
       -2
340
0
 93
        0
 40
0.045
309
GRIDFORMAT_END
 95
       32
302
GRIDFORMAT
  1
GRIDFORMAT_BEGIN
 90
        0
 91
        1
 62
     0
 92
       -2
340
0
 93
        0
 40
0.045
309
GRIDFORMAT_END
309
TABLEFORMAT_END
  1
CELLSTYLE_BEGIN
 90
        1
 91
        1
300
_TITLE
309
CELLSTYLE_END
300
CELLSTYLE
  1
TABLEFORMAT_BEGIN
 90
        5
170
     1
 91
        0
 92
        0
 62
   257
 93
        1
300
CONTENTFORMAT
  1
CONTENTFORMAT_BEGIN
 90
        0
 91
        0
 92
        4
 93
        0
300

 40
0.0
140
1.0
 94
        5
 62
     0
340
22
144
0.18
309
CONTENTFORMAT_END
171
     1
301
MARGIN
  1
CELLMARGIN_BEGIN
 40
0.06
 40
0.06
 40
0.06
 40
0.06
 40
0.18
 40
0.18
309
CELLMARGIN_END
 94
        6
 95
        1
302
GRIDFORMAT
  1
GRIDFORMAT_BEGIN
 90
        0
 91
        1
 62
     0
 92
       -2
340
0
 93
        0
 40
0.045
309
GRIDFORMAT_END
 95
        2
302
GRIDFORMAT
  1
GRIDFORMAT_BEGIN
 90
        0
 91
        1
 62
     0
 92
       -2
340
0
 93
        0
 40
0.045
309
GRIDFORMAT_END
 95
        4
302
GRIDFORMAT
  1
GRIDFORMAT_BEGIN
 90
        0
 91
        1
 62
     0
 92
       -2
340
0
 93
        0
 40
0.045
309
GRIDFORMAT_END
 95
        8
302
GRIDFORMAT
  1
GRIDFORMAT_BEGIN
 90
        0
 91
        1
 62
     0
 92
       -2
340
0
 93
        0
 40
0.045
309
GRIDFORMAT_END
 95
       16
302
GRIDFORMAT
  1
GRIDFORMAT_BEGIN
 90
        0
 91
        1
 62
     0
 92
       -2
340
0
 93
        0
 40
0.045
309
GRIDFORMAT_END
 95
       32
302
GRIDFORMAT
  1
GRIDFORMAT_BEGIN
 90
        0
 91
        1
 62
     0
 92
       -2
340
0
 93
        0
 40
0.045
309
GRIDFORMAT_END
309
TABLEFORMAT_END
  1
CELLSTYLE_BEGIN
 90
        2
 91
        1
300
_HEADER
309
CELLSTYLE_END
300
CELLSTYLE
  1
TABLEFORMAT_BEGIN
 90
        5
170
     1
 91
        0
 92
        0
 62
   257
 93
        1
300
CONTENTFORMAT
  1
CONTENTFORMAT_BEGIN
 90
        0
 91
        0
 92
        4
 93
        0
300

 40
0.0
140
1.0
 94
        2
 62
     0
340
22
144
0.18
309
CONTENTFORMAT_END
171
     1
301
MARGIN
  1
CELLMARGIN_BEGIN
 40
0.06
 40
0.06
 40
0.06
 40
0.06
 40
0.18
 40
0.18
309
CELLMARGIN_END
 94
        6
 95
        1
302
GRIDFORMAT
  1
GRIDFORMAT_BEGIN
 90
        0
 91
        1
 62
     0
 92
       -2
340
0
 93
        0
 40
0.045
309
GRIDFORMAT_END
 95
        2
302
GRIDFORMAT
  1
GRIDFORMAT_BEGIN
 90
        0
 91
        1
 62
     0
 92
       -2
340
0
 93
        0
 40
0.045
309
GRIDFORMAT_END
 95
        4
302
GRIDFORMAT
  1
GRIDFORMAT_BEGIN
 90
        0
 91
        1
 62
     0
 92
       -2
340
0
 93
        0
 40
0.045
309
GRIDFORMAT_END
 95
        8
302
GRIDFORMAT
  1
GRIDFORMAT_BEGIN
 90
        0
 91
        1
 62
     0
 92
       -2
340
0
 93
        0
 40
0.045
309
GRIDFORMAT_END
 95
       16
302
GRIDFORMAT
  1
GRIDFORMAT_BEGIN
 90
        0
 91
        1
 62
     0
 92
       -2
340
0
 93
        0
 40
0.045
309
GRIDFORMAT_END
 95
       32
302
GRIDFORMAT
  1
GRIDFORMAT_BEGIN
 90
        0
 91
        1
 62
     0
 92
       -2
340
0
 93
        0
 40
0.045
309
GRIDFORMAT_END
309
TABLEFORMAT_END
  1
CELLSTYLE_BEGIN
 90
        3
 91
        2
300
_DATA
309
CELLSTYLE_END
  0
ENDSEC
  0
EOF
