  0
SECTION
  2
HEADER
  9
$ACADVER
  1
AC1032
  9
$ACADMAINTVER
 90
      248
  9
$DWGCODEPAGE
  3
ANSI_936
  9
$REQUIREDVERSIONS
160
                 0
  9
$INSBASE
 10
0.0
 20
0.0
 30
0.0
  9
$EXTMIN
 10
289.2412109858593
 20
-62.37675048427307
 30
0.0
  9
$EXTMAX
 10
396.969116304069
 20
33.59482963893707
 30
0.0
  9
$LIMMIN
 10
0.0
 20
0.0
  9
$LIMMAX
 10
12.0
 20
9.0
  9
$ORTHOMODE
 70
     0
  9
$REGENMODE
 70
     0
  9
$FILLMODE
 70
     1
  9
$QTEXTMODE
 70
     0
  9
$MIRRTEXT
 70
     0
  9
$LTSCALE
 40
0.5
  9
$ATTMODE
 70
     1
  9
$TEXTSIZE
 40
0.7
  9
$TRACEWID
 40
0.05
  9
$TEXTSTYLE
  7
STANDARD
  9
$CLAYER
  8
2D
  9
$CELTYPE
  6
ByLayer
  9
$CECOLOR
 62
   256
  9
$CELTSCALE
 40
1.0
  9
$DISPSILH
 70
     0
  9
$DIMSCALE
 40
1.0
  9
$DIMASZ
 40
0.35
  9
$DIMEXO
 40
0.1
  9
$DIMDLI
 40
0.1
  9
$DIMRND
 40
0.0
  9
$DIMDLE
 40
0.0
  9
$DIMEXE
 40
0.1
  9
$DIMTP
 40
0.0
  9
$DIMTM
 40
0.5
  9
$DIMTXT
 40
0.35
  9
$DIMCEN
 40
0.195
  9
$DIMTSZ
 40
0.0
  9
$DIMTOL
 70
     0
  9
$DIMLIM
 70
     0
  9
$DIMTIH
 70
     0
  9
$DIMTOH
 70
     0
  9
$DIMSE1
 70
     0
  9
$DIMSE2
 70
     0
  9
$DIMTAD
 70
     0
  9
$DIMZIN
 70
     4
  9
$DIMBLK
  1

  9
$DIMASO
 70
     0
  9
$DIMSHO
 70
     0
  9
$DIMPOST
  1

  9
$DIMAPOST
  1

  9
$DIMALT
 70
     0
  9
$DIMALTD
 70
     2
  9
$DIMALTF
 40
25.4
  9
$DIMLFAC
 40
1.0
  9
$DIMTOFL
 70
     0
  9
$DIMTVP
 40
0.0
  9
$DIMTIX
 70
     0
  9
$DIMSOXD
 70
     0
  9
$DIMSAH
 70
     0
  9
$DIMBLK1
  1

  9
$DIMBLK2
  1

  9
$DIMSTYLE
  2
Standard
  9
$DIMCLRD
 70
   256
  9
$DIMCLRE
 70
   256
  9
$DIMCLRT
 70
   256
  9
$DIMTFAC
 40
1.0
  9
$DIMGAP
 40
0.1
  9
$DIMJUST
 70
     0
  9
$DIMSD1
 70
     0
  9
$DIMSD2
 70
     0
  9
$DIMTOLJ
 70
     1
  9
$DIMTZIN
 70
     4
  9
$DIMALTZ
 70
     0
  9
$DIMALTTZ
 70
     0
  9
$DIMUPT
 70
     0
  9
$DIMDEC
 70
     3
  9
$DIMTDEC
 70
     3
  9
$DIMALTU
 70
     2
  9
$DIMALTTD
 70
     2
  9
$DIMTXSTY
  7
SIMPLEX
  9
$DIMAUNIT
 70
     0
  9
$DIMADEC
 70
     0
  9
$DIMALTRND
 40
0.0
  9
$DIMAZIN
 70
     0
  9
$DIMDSEP
 70
    46
  9
$DIMATFIT
 70
     0
  9
$DIMFRAC
 70
     0
  9
$DIMLDRBLK
  1

  9
$DIMLUNIT
 70
     2
  9
$DIMLWD
 70
    -1
  9
$DIMLWE
 70
    -1
  9
$DIMTMOVE
 70
     0
  9
$DIMFXL
 40
0.03
  9
$DIMFXLON
 70
     0
  9
$DIMJOGANG
 40
0.7853981633974483
  9
$DIMTFILL
 70
     0
  9
$DIMTFILLCLR
 70
     0
  9
$DIMARCSYM
 70
     1
  9
$DIMLTYPE
  6
ByLayer
  9
$DIMLTEX1
  6
ByLayer
  9
$DIMLTEX2
  6
ByLayer
  9
$DIMTXTDIRECTION
 70
     0
  9
$LUNITS
 70
     2
  9
$LUPREC
 70
     8
  9
$SKETCHINC
 40
0.1
  9
$FILLETRAD
 40
0.0
  9
$AUNITS
 70
     1
  9
$AUPREC
 70
     0
  9
$MENU
  1
I:\ASM9401
  9
$ELEVATION
 40
0.0
  9
$PELEVATION
 40
0.0
  9
$THICKNESS
 40
0.0
  9
$LIMCHECK
 70
     0
  9
$CHAMFERA
 40
0.5
  9
$CHAMFERB
 40
0.5
  9
$CHAMFERC
 40
0.0
  9
$CHAMFERD
 40
0.0
  9
$SKPOLY
 70
     0
  9
$TDCREATE
 40
2452668.466053241
  9
$TDUCREATE
 40
2452668.132727894
  9
$TDUPDATE
 40
2460607.487141204
  9
$TDUUPDATE
 40
2460607.153807870
  9
$TDINDWG
 40
12.6360866435
  9
$TDUSRTIMER
 40
12.6360866435
  9
$USRTIMER
 70
     1
  9
$ANGBASE
 50
0.0
  9
$ANGDIR
 70
     0
  9
$PDMODE
 70
     0
  9
$PDSIZE
 40
0.0
  9
$PLINEWID
 40
0.0
  9
$SPLFRAME
 70
     0
  9
$SPLINETYPE
 70
     6
  9
$SPLINESEGS
 70
     8
  9
$HANDSEED
  5
1A3
  9
$SURFTAB1
 70
     6
  9
$SURFTAB2
 70
     6
  9
$SURFTYPE
 70
     6
  9
$SURFU
 70
     6
  9
$SURFV
 70
     6
  9
$UCSBASE
  2

  9
$UCSNAME
  2

  9
$UCSORG
 10
0.0
 20
0.0
 30
0.0
  9
$UCSXDIR
 10
1.0
 20
0.0
 30
0.0
  9
$UCSYDIR
 10
0.0
 20
1.0
 30
0.0
  9
$UCSORTHOREF
  2

  9
$UCSORTHOVIEW
 70
     0
  9
$UCSORGTOP
 10
0.0
 20
0.0
 30
0.0
  9
$UCSORGBOTTOM
 10
0.0
 20
0.0
 30
0.0
  9
$UCSORGLEFT
 10
0.0
 20
0.0
 30
0.0
  9
$UCSORGRIGHT
 10
0.0
 20
0.0
 30
0.0
  9
$UCSORGFRONT
 10
0.0
 20
0.0
 30
0.0
  9
$UCSORGBACK
 10
0.0
 20
0.0
 30
0.0
  9
$PUCSBASE
  2

  9
$PUCSNAME
  2

  9
$PUCSORG
 10
0.0
 20
0.0
 30
0.0
  9
$PUCSXDIR
 10
1.0
 20
0.0
 30
0.0
  9
$PUCSYDIR
 10
0.0
 20
1.0
 30
0.0
  9
$PUCSORTHOREF
  2

  9
$PUCSORTHOVIEW
 70
     0
  9
$PUCSORGTOP
 10
0.0
 20
0.0
 30
0.0
  9
$PUCSORGBOTTOM
 10
0.0
 20
0.0
 30
0.0
  9
$PUCSORGLEFT
 10
0.0
 20
0.0
 30
0.0
  9
$PUCSORGRIGHT
 10
0.0
 20
0.0
 30
0.0
  9
$PUCSORGFRONT
 10
0.0
 20
0.0
 30
0.0
  9
$PUCSORGBACK
 10
0.0
 20
0.0
 30
0.0
  9
$USERI1
 70
     0
  9
$USERI2
 70
     0
  9
$USERI3
 70
     0
  9
$USERI4
 70
     0
  9
$USERI5
 70
 32767
  9
$USERR1
 40
0.0
  9
$USERR2
 40
0.0
  9
$USERR3
 40
0.0
  9
$USERR4
 40
0.0
  9
$USERR5
 40
0.0
  9
$WORLDVIEW
 70
     1
  9
$SHADEDGE
 70
     3
  9
$SHADEDIF
 70
    70
  9
$TILEMODE
 70
     1
  9
$MAXACTVP
 70
    16
  9
$PINSBASE
 10
172.0339424788132
 20
50.0
 30
37.26594377789137
  9
$PLIMCHECK
 70
     0
  9
$PEXTMIN
 10
1.000000000000000E+20
 20
1.000000000000000E+20
 30
1.000000000000000E+20
  9
$PEXTMAX
 10
-1.000000000000000E+20
 20
-1.000000000000000E+20
 30
-1.000000000000000E+20
  9
$PLIMMIN
 10
0.0
 20
0.0
  9
$PLIMMAX
 10
12.0
 20
9.0
  9
$UNITMODE
 70
     0
  9
$VISRETAIN
 70
     0
  9
$PLINEGEN
 70
     0
  9
$PSLTSCALE
 70
     0
  9
$TREEDEPTH
 70
  3020
  9
$CMLSTYLE
  2
Standard
  9
$CMLJUST
 70
     0
  9
$CMLSCALE
 40
1.0
  9
$PROXYGRAPHICS
 70
     1
  9
$MEASUREMENT
 70
     0
  9
$CELWEIGHT
370
    -1
  9
$ENDCAPS
280
     0
  9
$JOINSTYLE
280
     0
  9
$LWDISPLAY
290
     0
  9
$INSUNITS
 70
     0
  9
$HYPERLINKBASE
  1

  9
$STYLESHEET
  1

  9
$XEDIT
290
     1
  9
$CEPSNTYPE
380
     0
  9
$PSTYLEMODE
290
     1
  9
$FINGERPRINTGUID
  2
{2EE142EA-75B6-D14D-B82E-4462D4D5872B}
  9
$VERSIONGUID
  2
{922C750B-201D-4D94-8357-472C9F2EA4F2}
  9
$EXTNAMES
290
     1
  9
$PSVPSCALE
 40
0.0
  9
$OLESTARTUP
290
     0
  9
$SORTENTS
280
   127
  9
$INDEXCTL
280
     0
  9
$HIDETEXT
280
     1
  9
$XCLIPFRAME
280
     2
  9
$HALOGAP
280
     0
  9
$OBSCOLOR
 70
   257
  9
$OBSLTYPE
280
     0
  9
$INTERSECTIONDISPLAY
280
     0
  9
$INTERSECTIONCOLOR
 70
   257
  9
$DIMASSOC
280
     0
  9
$PROJECTNAME
  1

  9
$CAMERADISPLAY
290
     0
  9
$LENSLENGTH
 40
50.0
  9
$CAMERAHEIGHT
 40
0.0
  9
$STEPSPERSEC
 40
2.0
  9
$STEPSIZE
 40
6.0
  9
$3DDWFPREC
 40
2.0
  9
$PSOLWIDTH
 40
0.25
  9
$PSOLHEIGHT
 40
4.0
  9
$LOFTANG1
 40
1.570796326794896
  9
$LOFTANG2
 40
1.570796326794896
  9
$LOFTMAG1
 40
0.0
  9
$LOFTMAG2
 40
0.0
  9
$LOFTPARAM
 70
     7
  9
$LOFTNORMALS
280
     1
  9
$LATITUDE
 40
37.795
  9
$LONGITUDE
 40
-122.394
  9
$NORTHDIRECTION
 40
0.0
  9
$TIMEZONE
 70
 -8000
  9
$LIGHTGLYPHDISPLAY
280
     1
  9
$TILEMODELIGHTSYNCH
280
     1
  9
$CMATERIAL
347
36
  9
$SOLIDHIST
280
     0
  9
$SHOWHIST
280
     1
  9
$DWFFRAME
280
     2
  9
$DGNFRAME
280
     0
  9
$REALWORLDSCALE
290
     1
  9
$INTERFERECOLOR
 62
     1
  9
$INTERFEREOBJVS
345
5D
  9
$INTERFEREVPVS
346
5E
  9
$CSHADOW
280
     0
  9
$SHADOWPLANELOCATION
 40
0.0
  0
ENDSEC
  0
SECTION
  2
CLASSES
  0
CLASS
  1
ACDBDICTIONARYWDFLT
  2
AcDbDictionaryWithDefault
  3
ObjectDBX Classes
 90
        0
 91
        1
280
     0
281
     0
  0
CLASS
  1
DICTIONARYVAR
  2
AcDbDictionaryVar
  3
ObjectDBX Classes
 90
        0
 91
       12
280
     0
281
     0
  0
CLASS
  1
TABLESTYLE
  2
AcDbTableStyle
  3
ObjectDBX Classes
 90
     4095
 91
        1
280
     0
281
     0
  0
CLASS
  1
SORTENTSTABLE
  2
AcDbSortentsTable
  3
ObjectDBX Classes
 90
        0
 91
        2
280
     0
281
     0
  0
CLASS
  1
DIMASSOC
  2
AcDbDimAssoc
  3
"AcDbDimAssoc|Product Desc:     AcDim ARX App For Dimension|Company:          Autodesk, Inc.|WEB Address:      www.autodesk.com"
 90
        0
 91
        0
280
     0
281
     0
  0
CLASS
  1
MATERIAL
  2
AcDbMaterial
  3
ObjectDBX Classes
 90
     1153
 91
        3
280
     0
281
     0
  0
CLASS
  1
VISUALSTYLE
  2
AcDbVisualStyle
  3
ObjectDBX Classes
 90
     4095
 91
        4
280
     0
281
     0
  0
CLASS
  1
SCALE
  2
AcDbScale
  3
ObjectDBX Classes
 90
     1153
 91
       17
280
     0
281
     0
  0
CLASS
  1
MLEADERSTYLE
  2
AcDbMLeaderStyle
  3
ACDB_MLEADERSTYLE_CLASS
 90
     4095
 91
        0
280
     0
281
     0
  0
CLASS
  1
ACDBSECTIONVIEWSTYLE
  2
AcDbSectionViewStyle
  3
ObjectDBX Classes
 90
     1025
 91
        0
280
     0
281
     0
  0
CLASS
  1
ACDBDETAILVIEWSTYLE
  2
AcDbDetailViewStyle
  3
ObjectDBX Classes
 90
     1025
 91
        0
280
     0
281
     0
  0
CLASS
  1
CELLSTYLEMAP
  2
AcDbCellStyleMap
  3
ObjectDBX Classes
 90
     1152
 91
        1
280
     0
281
     0
  0
CLASS
  1
SOLID_BACKGROUND
  2
AcDbSolidBackground
  3
SCENEOE
 90
     4095
 91
        0
280
     0
281
     0
  0
CLASS
  1
NPOCOLLECTION
  2
AcDbImpNonPersistentObjectsCollection
  3
ObjectDBX Classes
 90
     1153
 91
        0
280
     0
281
     0
  0
ENDSEC
  0
SECTION
  2
TABLES
  0
TABLE
  2
VPORT
  5
28
330
0
100
AcDbSymbolTable
 70
     1
  0
VPORT
  5
29
330
28
100
AcDbSymbolTableRecord
100
AcDbViewportTableRecord
  2
*Active
 70
     0
 10
0.0
 20
0.0
 11
1.0
 21
1.0
 12
362.5124259577527
 22
25.98174502063304
 13
0.0
 23
0.0
 14
0.1
 24
0.1
 15
0.0
 25
0.0
 16
0.0
 26
0.0
 36
1.0
 17
0.0
 27
0.0
 37
0.0
 40
16.34240077911869
 41
2.570850202429149
 42
50.0
 43
0.0
 44
0.0
 50
0.0
 51
0.0
 71
     0
 72
 20000
 73
     1
 74
     2
 75
     0
 76
     0
 77
     0
 78
     0
281
     0
 65
     1
110
0.0
120
0.0
130
0.0
111
1.0
121
0.0
131
0.0
112
0.0
122
1.0
132
0.0
 79
     0
146
0.0
348
2A
 60
     3
 61
     5
292
     1
282
     1
141
0.0
142
0.0
 63
   250
421
  3355443
1001
ACAD_NAV_VCDISPLAY
1070
     3
  0
ENDTAB
  0
TABLE
  2
LTYPE
  5
23
330
0
100
AcDbSymbolTable
 70
     3
  0
LTYPE
  5
24
330
23
100
AcDbSymbolTableRecord
100
AcDbLinetypeTableRecord
  2
ByBlock
 70
     0
  3

 72
    65
 73
     0
 40
0.0
  0
LTYPE
  5
25
330
23
100
AcDbSymbolTableRecord
100
AcDbLinetypeTableRecord
  2
ByLayer
 70
     0
  3

 72
    65
 73
     0
 40
0.0
  0
LTYPE
  5
F
330
23
100
AcDbSymbolTableRecord
100
AcDbLinetypeTableRecord
  2
CONTINUOUS
 70
     0
  3
Solid line
 72
    65
 73
     0
 40
0.0
  0
LTYPE
  5
8D
330
23
100
AcDbSymbolTableRecord
100
AcDbLinetypeTableRecord
  2
CENTER
 70
     0
  3
____ _ ____ _ ____ _ ____ _ ____ _ ____ _ ____
 72
    65
 73
     4
 40
2.0
 49
1.25
 74
     0
 49
-0.25
 74
     0
 49
0.25
 74
     0
 49
-0.25
 74
     0
  0
LTYPE
  5
8F
330
23
100
AcDbSymbolTableRecord
100
AcDbLinetypeTableRecord
  2
CENTER2
 70
     0
  3
Center (.5x) ___ _ ___ _ ___ _ ___ _ ___ _ ___
 72
    65
 73
     4
 40
1.125
 49
0.75
 74
     0
 49
-0.125
 74
     0
 49
0.125
 74
     0
 49
-0.125
 74
     0
  0
ENDTAB
  0
TABLE
  2
LAYER
  5
1A
102
{ACAD_XDICTIONARY
360
1B
102
}
330
0
100
AcDbSymbolTable
 70
     3
  0
LAYER
  5
7
102
{ACAD_XDICTIONARY
360
8
102
}
330
1A
100
AcDbSymbolTableRecord
100
AcDbLayerTableRecord
  2
0
 70
     0
 62
     7
  6
CONTINUOUS
370
    -3
390
A
347
D
348
0
  0
LAYER
  5
57
102
{ACAD_XDICTIONARY
360
58
102
}
330
1A
100
AcDbSymbolTableRecord
100
AcDbLayerTableRecord
  2
2D
 70
     0
 62
     4
  6
CONTINUOUS
370
    -3
390
A
347
D
348
0
  0
LAYER
  5
88
102
{ACAD_XDICTIONARY
360
89
102
}
330
1A
100
AcDbSymbolTableRecord
100
AcDbLayerTableRecord
  2
2
 70
     0
 62
     7
  6
CONTINUOUS
370
    -3
390
A
347
D
348
0
  0
ENDTAB
  0
TABLE
  2
STYLE
  5
20
330
0
100
AcDbSymbolTable
 70
     2
  0
STYLE
  5
21
330
20
100
AcDbSymbolTableRecord
100
AcDbTextStyleTableRecord
  2
STANDARD
 70
     0
 40
0.0
 41
1.0
 50
0.0
 71
     0
 42
0.7
  3
SIMPLEX
  4

  0
STYLE
  5
30
330
20
100
AcDbSymbolTableRecord
100
AcDbTextStyleTableRecord
  2
SIMPLEX
 70
     0
 40
0.0
 41
1.0
 50
0.0
 71
     0
 42
0.0045
  3
SIMPLEX
  4

  0
ENDTAB
  0
TABLE
  2
VIEW
  5
26
330
0
100
AcDbSymbolTable
 70
     0
  0
ENDTAB
  0
TABLE
  2
UCS
  5
27
330
0
100
AcDbSymbolTable
 70
     0
  0
ENDTAB
  0
TABLE
  2
APPID
  5
2D
330
0
100
AcDbSymbolTable
 70
     4
  0
APPID
  5
1F
330
2D
100
AcDbSymbolTableRecord
100
AcDbRegAppTableRecord
  2
ACAD
 70
     0
  0
APPID
  5
31
330
2D
100
AcDbSymbolTableRecord
100
AcDbRegAppTableRecord
  2
ACAD_DSTYLE_DIMJOGGED_JOGANGLE_SYMBOL
 70
     0
  0
APPID
  5
13
330
2D
100
AcDbSymbolTableRecord
100
AcDbRegAppTableRecord
  2
ACAD_PSEXT
 70
     0
  0
APPID
  5
2C
330
2D
100
AcDbSymbolTableRecord
100
AcDbRegAppTableRecord
  2
ACAD_NAV_VCDISPLAY
 70
     0
  0
ENDTAB
  0
TABLE
  2
DIMSTYLE
  5
2E
330
0
100
AcDbSymbolTable
 70
     1
100
AcDbDimStyleTable
 71
     1
340
2F
  0
DIMSTYLE
105
2F
330
2E
100
AcDbSymbolTableRecord
100
AcDbDimStyleTableRecord
  2
Standard
 70
     0
 41
0.35
 42
0.1
 43
0.1
 44
0.1
 48
0.5
 49
0.03
 73
     0
 74
     0
 78
     4
 90
        1
140
0.35
141
0.195
147
0.1
176
   256
177
   256
178
   256
271
     3
272
     3
284
     4
289
     0
340
30
345
25
346
25
347
25
371
    -1
372
    -1
1001
ACAD_DSTYLE_DIMJOGGED_JOGANGLE_SYMBOL
1070
   384
1040
0.7853981633974483
  0
ENDTAB
  0
TABLE
  2
BLOCK_RECORD
  5
1
330
0
100
AcDbSymbolTable
 70
     0
  0
BLOCK_RECORD
  5
2
102
{ACAD_XDICTIONARY
360
3
102
}
330
1
100
AcDbSymbolTableRecord
100
AcDbBlockTableRecord
  2
*Model_Space
340
11
 70
     0
280
     1
281
     0
  0
BLOCK_RECORD
  5
14
102
{ACAD_XDICTIONARY
360
15
102
}
330
1
100
AcDbSymbolTableRecord
100
AcDbBlockTableRecord
  2
*Paper_Space
340
19
 70
     0
280
     1
281
     0
  0
ENDTAB
  0
ENDSEC
  0
SECTION
  2
BLOCKS
  0
BLOCK
  5
6
330
2
100
AcDbEntity
  8
0
 62
     4
100
AcDbBlockBegin
  2
*Model_Space
 70
     0
 10
0.0
 20
0.0
 30
0.0
  3
*Model_Space
  1

  0
ENDBLK
  5
10
330
2
100
AcDbEntity
  8
0
 62
     4
100
AcDbBlockEnd
  0
BLOCK
  5
17
330
14
100
AcDbEntity
 67
     1
  8
0
 62
     4
100
AcDbBlockBegin
  2
*Paper_Space
 70
     0
 10
0.0
 20
0.0
 30
0.0
  3
*Paper_Space
  1

  0
ENDBLK
  5
18
330
14
100
AcDbEntity
 67
     1
  8
0
 62
     4
100
AcDbBlockEnd
  0
ENDSEC
  0
SECTION
  2
ENTITIES
  0
MTEXT
  5
70
330
2
100
AcDbEntity
  8
2D
100
AcDbMText
 10
-109.2327675310706
 20
30.29408809911821
 30
0.0
 40
0.08
 41
0.0
 46
0.0
 71
     5
 72
     1
  1
\A1;.000
  7
SIMPLEX
 11
-0.0000000000000001
 21
1.0
 31
0.0
 73
     1
 44
1.0
  0
MTEXT
  5
71
330
2
100
AcDbEntity
  8
2D
100
AcDbMText
 10
-111.6152292507087
 20
30.32000895407592
 30
0.0
 40
0.08
 41
0.0
 46
0.0
 71
     5
 72
     1
  1
\A1;2.380
  7
SIMPLEX
 11
0.0000000000000001
 21
1.0
 31
0.0
 73
     1
 44
1.0
  0
MTEXT
  5
72
330
2
100
AcDbEntity
  8
2D
100
AcDbMText
 10
-111.3152292507086
 20
30.32000895407592
 30
0.0
 40
0.08
 41
0.0
 46
0.0
 71
     5
 72
     1
  1
\A1;2.080
  7
SIMPLEX
 11
0.0000000000000001
 21
1.0
 31
0.0
 73
     1
 44
1.0
  0
MTEXT
  5
73
330
2
100
AcDbEntity
  8
2D
100
AcDbMText
 10
-111.1152292507087
 20
30.31238990645687
 30
0.0
 40
0.08
 41
0.0
 46
0.0
 71
     5
 72
     1
  1
\A1;1.880
  7
SIMPLEX
 11
0.0000000000000001
 21
1.0
 31
0.0
 73
     1
 44
1.0
  0
MTEXT
  5
74
330
2
100
AcDbEntity
  8
2D
100
AcDbMText
 10
-107.7602292507087
 20
30.48381847788544
 30
0.0
 40
0.08
 41
0.0
 46
0.0
 71
     5
 72
     1
  1
\A1;1.475 PKG.
  7
SIMPLEX
 11
0.0000000000000001
 21
1.0
 31
0.0
 73
     1
 44
1.0
  0
MTEXT
  5
75
330
2
100
AcDbEntity
  8
2D
100
AcDbMText
 10
-106.8217292507087
 20
30.34087588548902
 30
0.0
 40
0.08
 41
0.0
 46
0.0
 71
     5
 72
     1
  1
\A1;2.414
  7
SIMPLEX
 11
0.0000000000000001
 21
1.0
 31
0.0
 73
     1
 44
1.0
  0
MTEXT
  5
76
330
2
100
AcDbEntity
  8
2D
100
AcDbMText
 10
-106.053678015238
 20
27.25563119385816
 30
0.0
 40
0.08
 41
0.0
 46
0.0
 71
     5
 72
     1
  1
\A1;.647
  7
SIMPLEX
 73
     1
 44
1.0
  0
MTEXT
  5
77
330
2
100
AcDbEntity
  8
2D
100
AcDbMText
 10
-106.0289286090644
 20
27.63611032840595
 30
0.0
 40
0.08
 41
0.0
 46
0.0
 71
     5
 72
     1
  1
\A1;1.028
  7
SIMPLEX
 73
     1
 44
1.0
  0
MTEXT
  5
78
330
2
100
AcDbEntity
  8
2D
100
AcDbMText
 10
-105.8997320837347
 20
27.43151900292179
 30
0.0
 40
0.08
 41
0.0
 46
0.0
 71
     5
 72
     1
  1
\A1;.825 PKG.
  7
SIMPLEX
 73
     1
 44
1.0
  0
MTEXT
  5
79
330
2
100
AcDbEntity
  8
2D
100
AcDbMText
 10
-106.0289286090644
 20
27.83611032840565
 30
0.0
 40
0.08
 41
0.0
 46
0.0
 71
     5
 72
     1
  1
\A1;1.228
  7
SIMPLEX
 73
     1
 44
1.0
  0
MTEXT
  5
7A
330
2
100
AcDbEntity
  8
2D
100
AcDbMText
 10
-106.053678015238
 20
26.60969086261412
 30
0.0
 40
0.08
 41
0.0
 46
0.0
 71
     5
 72
     1
  1
\A1;.000
  7
SIMPLEX
 73
     1
 44
1.0
  0
MTEXT
  5
7B
330
2
100
AcDbEntity
  8
2D
100
AcDbMText
 10
-106.0524002611501
 20
27.00802586232317
 30
0.0
 40
0.08
 41
0.0
 46
0.0
 71
     5
 72
     1
  1
\A1;.400
  7
SIMPLEX
 73
     1
 44
1.0
  0
MTEXT
  5
7C
330
2
100
AcDbEntity
  8
2D
100
AcDbMText
 10
-106.0482056364299
 20
26.20811032840604
 30
0.0
 40
0.08
 41
0.0
 46
0.0
 71
     5
 72
     1
  1
\A1;.400
  7
SIMPLEX
 73
     1
 44
1.0
  0
MTEXT
  5
7D
330
2
100
AcDbEntity
  8
2D
100
AcDbMText
 10
-109.9860317210589
 20
22.58362525222878
 30
0.0
 40
0.08
 41
0.0
 46
0.0
 71
     5
 72
     1
  1
.650±.025\PTYP.
  7
SIMPLEX
 73
     1
 44
1.0
  0
MTEXT
  5
7E
330
2
100
AcDbEntity
  8
2D
100
AcDbMText
 10
-108.2619593008197
 20
22.46599963449636
 30
0.0
 40
0.08
 41
0.0
 46
0.0
 71
     5
 72
     1
  1
\A1;.975
  7
SIMPLEX
 11
0.0000000000000001
 21
1.0
 31
0.0
 73
     1
 44
1.0
  0
MTEXT
  5
7F
330
2
100
AcDbEntity
  8
2D
100
AcDbMText
 10
-110.1442636077186
 20
22.93395159445521
 30
0.0
 40
0.08
 41
0.0
 46
0.0
 71
     5
 72
     1
  1
.300±.025\PTYP.
  7
SIMPLEX
 73
     1
 44
1.0
  0
MTEXT
  5
80
330
2
100
AcDbEntity
  8
2D
100
AcDbMText
 10
-112.3085190350218
 20
26.6081103284059
 30
0.0
 40
0.08
 41
0.0
 46
0.0
 71
     5
 72
     1
  1
\A1;.000
  7
SIMPLEX
 73
     1
 44
1.0
  0
MTEXT
  5
81
330
2
100
AcDbEntity
  8
2D
100
AcDbMText
 10
-112.2976634911459
 20
27.00587265672249
 30
0.0
 40
0.08
 41
0.0
 46
0.0
 71
     5
 72
     1
  1
\A1;.400
  7
SIMPLEX
 73
     1
 44
1.0
  0
MTEXT
  5
82
330
2
100
AcDbEntity
  8
2D
100
AcDbMText
 10
-112.2928607755789
 20
27.25606319900453
 30
0.0
 40
0.08
 41
0.0
 46
0.0
 71
     5
 72
     1
  1
\A1;.654
  7
SIMPLEX
 73
     1
 44
1.0
  0
MTEXT
  5
83
330
2
100
AcDbEntity
  8
2D
100
AcDbMText
 10
-106.0465594182518
 20
25.95048974987347
 30
0.0
 40
0.08
 41
0.0
 46
0.0
 71
     5
 72
     1
  1
\A1;.654
  7
SIMPLEX
 73
     1
 44
1.0
  0
MTEXT
  5
84
330
2
100
AcDbEntity
  8
2D
100
AcDbMText
 10
-112.3359051370751
 20
29.60811032840601
 30
0.0
 40
0.08
 41
0.0
 46
0.0
 71
     5
 72
     1
  1
\A1;3.000
  7
SIMPLEX
 73
     1
 44
1.0
  0
MTEXT
  5
85
330
2
100
AcDbEntity
  8
2D
100
AcDbMText
 10
-112.3359051370751
 20
29.30811032840606
 30
0.0
 40
0.08
 41
0.0
 46
0.0
 71
     5
 72
     1
  1
\A1;2.700
  7
SIMPLEX
 73
     1
 44
1.0
  0
MTEXT
  5
86
330
2
100
AcDbEntity
  8
2D
100
AcDbMText
 10
-112.3359051370751
 20
29.10811032840602
 30
0.0
 40
0.08
 41
0.0
 46
0.0
 71
     5
 72
     1
  1
\A1;2.500
  7
SIMPLEX
 73
     1
 44
1.0
  0
LINE
  5
87
330
2
100
AcDbEntity
  8
2
100
AcDbLine
 10
-106.8212292507087
 20
27.00811032840599
 30
0.0
 11
-106.8212292507087
 21
26.20811032840604
 31
0.0
  0
LINE
  5
8B
330
2
100
AcDbEntity
  8
2
100
AcDbLine
 10
-111.1152292507088
 20
25.58011032840585
 30
0.0
 11
-111.1152292507084
 21
27.63611032840595
 31
0.0
  0
LINE
  5
8C
330
2
100
AcDbEntity
  8
2D
  6
CENTER
100
AcDbLine
 10
-109.2352292507087
 20
25.47651270522346
 30
0.0
 11
-109.2352292507087
 21
27.73970795158835
 31
0.0
  0
LWPOLYLINE
  5
8E
330
2
100
AcDbEntity
  8
2D
  6
CENTER2
 62
     2
100
AcDbPolyline
 90
        4
 70
     1
 43
0.0
 10
-110.7102292507087
 20
25.78311032840586
 10
-107.7602292507085
 20
25.78311032840586
 10
-107.7602292507087
 20
27.43311032840594
 10
-110.7102292507087
 20
27.43311032840594
  0
REGION
  5
90
330
2
100
AcDbEntity
  8
2
100
AcDbModelerGeometry
290
     1
  2
{c3c3e79b-8361-8148-804b-e2fb1bd44ede}
  0
LINE
  5
91
330
2
100
AcDbEntity
  8
2D
100
AcDbLine
 10
-108.9102292507085
 20
24.08011032840601
 30
0.0
 11
-108.9102292507085
 21
22.62724679669977
 31
0.0
  0
LINE
  5
92
330
2
100
AcDbEntity
  8
2D
  6
CENTER2
100
AcDbLine
 10
-108.9102292507085
 20
25.38011032840615
 30
0.0
 11
-108.9102292507085
 21
24.10811032840602
 31
0.0
  0
SOLID
  5
93
330
2
100
AcDbEntity
  8
2D
100
AcDbTrace
 10
-109.6272292507086
 20
23.02390061016593
 30
0.0
 11
-109.6272292507086
 21
22.99623394349926
 31
0.0
 12
-109.7102292507085
 22
23.0100672768326
 32
0.0
 13
-109.7102292507085
 23
23.0100672768326
 33
0.0
  0
SOLID
  5
95
330
2
100
AcDbEntity
  8
2D
100
AcDbTrace
 10
-109.4932292507087
 20
23.02390061016593
 30
0.0
 11
-109.4932292507087
 21
22.99623394349926
 31
0.0
 12
-109.4102292507087
 22
23.0100672768326
 32
0.0
 13
-109.4102292507087
 23
23.0100672768326
 33
0.0
  0
LINE
  5
96
330
2
100
AcDbEntity
  8
2D
100
AcDbLine
 10
-109.7102292507085
 20
23.0100672768326
 30
0.0
 11
-109.7932292507086
 21
23.0100672768326
 31
0.0
  0
LINE
  5
97
330
2
100
AcDbEntity
  8
2D
100
AcDbLine
 10
-109.4932292507087
 20
23.0100672768326
 30
0.0
 11
-109.6272292507086
 21
23.0100672768326
 31
0.0
  0
LINE
  5
98
330
2
100
AcDbEntity
  8
2D
100
AcDbLine
 10
-109.7102292507085
 20
24.08011032840612
 30
0.0
 11
-109.7102292507085
 21
22.9820672768326
 31
0.0
  0
LINE
  5
99
330
2
100
AcDbEntity
  8
2D
100
AcDbLine
 10
-109.4102292507087
 20
24.08011032840612
 30
0.0
 11
-109.4102292507087
 21
22.9820672768326
 31
0.0
  0
SOLID
  5
9A
330
2
100
AcDbEntity
  8
2D
100
AcDbTrace
 10
-109.4802292507086
 20
22.66858013003311
 30
0.0
 11
-109.4802292507086
 21
22.64191346336644
 31
0.0
 12
-109.5602292507086
 22
22.65524679669977
 32
0.0
 13
-109.5602292507086
 23
22.65524679669977
 33
0.0
  0
LINE
  5
9B
330
2
100
AcDbEntity
  8
2D
100
AcDbLine
 10
-109.4802292507086
 20
22.65524679669977
 30
0.0
 11
-108.9902292507086
 21
22.65524679669977
 31
0.0
  0
LINE
  5
9C
330
2
100
AcDbEntity
  8
2D
100
AcDbLine
 10
-109.5602292507086
 20
24.08011032840614
 30
0.0
 11
-109.5602292507086
 21
22.62724679669977
 31
0.0
  0
LINE
  5
9D
330
2
100
AcDbEntity
  8
2D
100
AcDbLine
 10
-109.6402292507085
 20
22.65524679669977
 30
0.0
 11
-109.5602292507086
 21
22.65524679669977
 31
0.0
  0
LINE
  5
9E
330
2
100
AcDbEntity
  8
2
100
AcDbLine
 10
-110.3602292507133
 20
25.58011032840596
 30
0.0
 11
-110.360229250713
 21
25.96111032840592
 31
0.0
  0
LINE
  5
9F
330
2
100
AcDbEntity
  8
2
100
AcDbLine
 10
-110.0602292507121
 20
25.58011032840596
 30
0.0
 11
-110.060229250712
 21
25.96111032840584
 31
0.0
  0
LINE
  5
A0
330
2
100
AcDbEntity
  8
2
100
AcDbLine
 10
-109.7102292507105
 20
25.58011032840596
 30
0.0
 11
-109.7102292507107
 21
25.96111032840595
 31
0.0
  0
LINE
  5
A1
330
2
100
AcDbEntity
  8
2
100
AcDbLine
 10
-109.4102292507094
 20
25.96111032840595
 30
0.0
 11
-109.4102292507087
 21
25.58011032840608
 31
0.0
  0
LINE
  5
A2
330
2
100
AcDbEntity
  8
2
100
AcDbLine
 10
-109.0602292507079
 20
25.96111032840595
 30
0.0
 11
-109.0602292507087
 21
25.58011032840608
 31
0.0
  0
LINE
  5
A3
330
2
100
AcDbEntity
  8
2D
  6
CENTER2
100
AcDbLine
 10
-109.5602292507087
 20
25.38011032840616
 30
0.0
 11
-109.5602292507086
 21
24.10811032840614
 31
0.0
  0
LINE
  5
A4
330
2
100
AcDbEntity
  8
2
100
AcDbLine
 10
-110.3602292507087
 20
25.38011032840615
 30
0.0
 11
-111.1152292507087
 21
25.38011032840615
 31
0.0
  0
LINE
  5
A5
330
2
100
AcDbEntity
  8
2
100
AcDbLine
 10
-110.3602292507087
 20
25.58011032840596
 30
0.0
 11
-111.1152292507088
 21
25.58011032840585
 31
0.0
  0
LINE
  5
A6
330
2
100
AcDbEntity
  8
2
100
AcDbLine
 10
-109.0602292507087
 20
25.58011032840608
 30
0.0
 11
-109.4102292507087
 21
25.58011032840608
 31
0.0
  0
LWPOLYLINE
  5
A7
330
2
100
AcDbEntity
  8
2
100
AcDbPolyline
 90
        2
 70
     0
 43
0.0
 10
-109.0602292507087
 20
25.38011032840615
 10
-109.4102292507087
 20
25.38011032840615
  0
LINE
  5
A8
330
2
100
AcDbEntity
  8
2
100
AcDbLine
 10
-109.7102292507087
 20
25.58011032840605
 30
0.0
 11
-110.0602292507087
 21
25.580110328406
 31
0.0
  0
LINE
  5
A9
330
2
100
AcDbEntity
  8
2
100
AcDbLine
 10
-109.7102292507087
 20
25.38011032840615
 30
0.0
 11
-110.0602292507087
 21
25.38011032840615
 31
0.0
  0
LINE
  5
AA
330
2
100
AcDbEntity
  8
2
100
AcDbLine
 10
-111.3152292507086
 20
25.95411032840585
 30
0.0
 11
-111.6152292507088
 21
25.95411032840596
 31
0.0
  0
LINE
  5
AB
330
2
100
AcDbEntity
  8
2
100
AcDbLine
 10
-111.1152292507087
 20
24.10811032840613
 30
0.0
 11
-110.3602292507087
 21
24.10811032840602
 31
0.0
  0
LINE
  5
AC
330
2
100
AcDbEntity
  8
2
100
AcDbLine
 10
-111.6152292507088
 20
24.1081103284059
 30
0.0
 11
-111.3152292507086
 21
24.1081103284059
 31
0.0
  0
LINE
  5
AD
330
2
100
AcDbEntity
  8
2
100
AcDbLine
 10
-109.0602292507087
 20
24.10811032840602
 30
0.0
 11
-109.4102292507087
 21
24.10811032840613
 31
0.0
  0
LINE
  5
AE
330
2
100
AcDbEntity
  8
2
100
AcDbLine
 10
-109.7102292507085
 20
24.10811032840613
 30
0.0
 11
-110.0602292507087
 21
24.10811032840613
 31
0.0
  0
LINE
  5
AF
330
2
100
AcDbEntity
  8
2
100
AcDbLine
 10
-111.3152292507086
 20
24.1081103284059
 30
0.0
 11
-111.3152292507086
 21
25.95411032840585
 31
0.0
  0
LINE
  5
B0
330
2
100
AcDbEntity
  8
2
100
AcDbLine
 10
-111.6152292507088
 20
25.95411032840596
 30
0.0
 11
-111.6152292507088
 21
24.1081103284059
 31
0.0
  0
LINE
  5
B1
330
2
100
AcDbEntity
  8
2
100
AcDbLine
 10
-111.1152292507087
 20
25.38011032840615
 30
0.0
 11
-111.1152292507087
 21
24.10811032840613
 31
0.0
  0
LINE
  5
B2
330
2
100
AcDbEntity
  8
2
100
AcDbLine
 10
-110.0602292507087
 20
25.38011032840615
 30
0.0
 11
-110.0602292507087
 21
24.10811032840613
 31
0.0
  0
LINE
  5
B3
330
2
100
AcDbEntity
  8
2
100
AcDbLine
 10
-110.3602292507087
 20
25.38011032840615
 30
0.0
 11
-110.3602292507087
 21
24.10811032840602
 31
0.0
  0
LINE
  5
B4
330
2
100
AcDbEntity
  8
2
100
AcDbLine
 10
-109.7102292507087
 20
25.38011032840615
 30
0.0
 11
-109.7102292507085
 21
24.10811032840613
 31
0.0
  0
LINE
  5
B5
330
2
100
AcDbEntity
  8
2
100
AcDbLine
 10
-109.4102292507087
 20
24.10811032840613
 30
0.0
 11
-109.4102292507087
 21
25.38011032840615
 31
0.0
  0
LINE
  5
B6
330
2
100
AcDbEntity
  8
2
100
AcDbLine
 10
-109.0602292507087
 20
24.10811032840602
 30
0.0
 11
-109.0602292507087
 21
25.38011032840615
 31
0.0
  0
SOLID
  5
B7
330
2
100
AcDbEntity
  8
2D
100
AcDbTrace
 10
-108.9902292507086
 20
22.66858013003311
 30
0.0
 11
-108.9902292507086
 21
22.64191346336644
 31
0.0
 12
-108.9102292507085
 22
22.65524679669977
 32
0.0
 13
-108.9102292507085
 23
22.65524679669977
 33
0.0
  0
LINE
  5
B8
330
2
100
AcDbEntity
  8
2D
100
AcDbLine
 10
-108.2602292507087
 20
23.48208665559962
 30
0.0
 11
-108.2602292507087
 21
22.62233145790403
 31
0.0
  0
LINE
  5
B9
330
2
100
AcDbEntity
  8
2
100
AcDbLine
 10
-108.7602292507068
 20
25.58011032840596
 30
0.0
 11
-108.7602292507067
 21
25.96111032840595
 31
0.0
  0
LINE
  5
BA
330
2
100
AcDbEntity
  8
2
100
AcDbLine
 10
-108.4102292507053
 20
25.58011032840596
 30
0.0
 11
-108.4102292507053
 21
25.96111032840584
 31
0.0
  0
LINE
  5
BB
330
2
100
AcDbEntity
  8
2
100
AcDbLine
 10
-108.110229250704
 20
25.58011032840596
 30
0.0
 11
-108.1102292507042
 21
25.96111032840591
 31
0.0
  0
LINE
  5
BC
330
2
100
AcDbEntity
  8
2D
100
AcDbLine
 10
-106.8272292507085
 20
25.95411032840596
 30
0.0
 11
-106.1981103983347
 21
25.95411032840598
 31
0.0
  0
LINE
  5
BD
330
2
100
AcDbEntity
  8
2D
100
AcDbLine
 10
-106.7937292507087
 20
26.20811032840604
 30
0.0
 11
-106.1981103983347
 21
26.20811032840604
 31
0.0
  0
LINE
  5
BE
330
2
100
AcDbEntity
  8
2
100
AcDbLine
 10
-107.3552292507089
 20
26.20811032840615
 30
0.0
 11
-107.3552292507089
 21
25.58011032840596
 31
0.0
  0
LINE
  5
BF
330
2
100
AcDbEntity
  8
2
100
AcDbLine
 10
-108.4102292507053
 20
25.58011032840596
 30
0.0
 11
-108.7602292507068
 21
25.58011032840596
 31
0.0
  0
LINE
  5
C0
330
2
100
AcDbEntity
  8
2
100
AcDbLine
 10
-108.4102292507085
 20
25.38011032840615
 30
0.0
 11
-108.7602292507087
 21
25.38011032840615
 31
0.0
  0
LINE
  5
C1
330
2
100
AcDbEntity
  8
2
100
AcDbLine
 10
-107.3552292507089
 20
25.58011032840596
 30
0.0
 11
-108.110229250704
 21
25.58011032840596
 31
0.0
  0
LINE
  5
C2
330
2
100
AcDbEntity
  8
2
100
AcDbLine
 10
-107.3552292507089
 20
25.38011032840615
 30
0.0
 11
-108.1102292507087
 21
25.38011032840615
 31
0.0
  0
LINE
  5
C3
330
2
100
AcDbEntity
  8
2
100
AcDbLine
 10
-107.1552292507089
 20
25.95411032840585
 30
0.0
 11
-106.8552292507088
 21
25.95411032840596
 31
0.0
  0
LINE
  5
C4
330
2
100
AcDbEntity
  8
2
100
AcDbLine
 10
-106.8212292507087
 20
26.20811032840604
 30
0.0
 11
-107.3552292507089
 21
26.20811032840615
 31
0.0
  0
LWPOLYLINE
  5
C5
330
2
100
AcDbEntity
  8
2
100
AcDbPolyline
 90
        2
 70
     0
 43
0.0
 10
-108.7602292507085
 20
24.10811032840602
 10
-108.4102292507085
 20
24.10811032840602
  0
LINE
  5
C6
330
2
100
AcDbEntity
  8
2
100
AcDbLine
 10
-108.1102292507089
 20
24.10811032840602
 30
0.0
 11
-107.3552292507089
 21
24.10811032840613
 31
0.0
  0
LINE
  5
C7
330
2
100
AcDbEntity
  8
2D
100
AcDbLine
 10
-108.2602292507087
 20
23.5181103284059
 30
0.0
 11
-108.2602292507087
 21
23.69811032840591
 31
0.0
  0
LINE
  5
C8
330
2
100
AcDbEntity
  8
2D
100
AcDbLine
 10
-108.3502292507085
 20
23.6081103284059
 30
0.0
 11
-108.1702292507086
 21
23.6081103284059
 31
0.0
  0
LINE
  5
C9
330
2
100
AcDbEntity
  8
2
100
AcDbLine
 10
-106.8552292507088
 20
24.1081103284059
 30
0.0
 11
-107.1552292507089
 21
24.1081103284059
 31
0.0
  0
LINE
  5
CA
330
2
100
AcDbEntity
  8
2
100
AcDbLine
 10
-107.1552292507089
 20
24.1081103284059
 30
0.0
 11
-107.1552292507089
 21
25.95411032840585
 31
0.0
  0
LINE
  5
CB
330
2
100
AcDbEntity
  8
2
100
AcDbLine
 10
-106.8552292507088
 20
25.95411032840596
 30
0.0
 11
-106.8552292507088
 21
24.1081103284059
 31
0.0
  0
LINE
  5
CC
330
2
100
AcDbEntity
  8
2
100
AcDbLine
 10
-108.7602292507087
 20
25.38011032840615
 30
0.0
 11
-108.7602292507085
 21
24.10811032840602
 31
0.0
  0
LINE
  5
CD
330
2
100
AcDbEntity
  8
2
100
AcDbLine
 10
-108.1102292507087
 20
25.38011032840615
 30
0.0
 11
-108.1102292507087
 21
24.10811032840602
 31
0.0
  0
LINE
  5
CE
330
2
100
AcDbEntity
  8
2
100
AcDbLine
 10
-107.3552292507089
 20
24.10811032840613
 30
0.0
 11
-107.3552292507089
 21
25.38011032840615
 31
0.0
  0
LINE
  5
CF
330
2
100
AcDbEntity
  8
2
100
AcDbLine
 10
-108.4102292507085
 20
25.38011032840615
 30
0.0
 11
-108.4102292507085
 21
24.10811032840602
 31
0.0
  0
LINE
  5
D0
330
2
100
AcDbEntity
  8
2D
  6
CENTER
100
AcDbLine
 10
-110.3668268738911
 20
26.6081103284059
 30
0.0
 11
-108.1036316275261
 21
26.6081103284059
 31
0.0
  0
LINE
  5
D1
330
2
100
AcDbEntity
  8
2
100
AcDbLine
 10
-106.8552292507088
 20
29.30811032840618
 30
0.0
 11
-111.6152292507087
 21
29.30811032840606
 31
0.0
  0
LINE
  5
D2
330
2
100
AcDbEntity
  8
2
100
AcDbLine
 10
-111.6152292507087
 20
29.60811032840601
 30
0.0
 11
-106.8552292507088
 21
29.60811032840601
 31
0.0
  0
LINE
  5
D3
330
2
100
AcDbEntity
  8
2
100
AcDbLine
 10
-109.0602292507079
 20
27.25511032840582
 30
0.0
 11
-109.0602292507087
 21
27.63611032840572
 31
0.0
  0
LINE
  5
D4
330
2
100
AcDbEntity
  8
2
100
AcDbLine
 10
-109.4102292507094
 20
27.25511032840582
 30
0.0
 11
-109.4102292507087
 21
27.63611032840572
 31
0.0
  0
LINE
  5
D5
330
2
100
AcDbEntity
  8
2
100
AcDbLine
 10
-109.7102292507105
 20
27.63611032840584
 30
0.0
 11
-109.7102292507107
 21
27.25511032840582
 31
0.0
  0
LINE
  5
D6
330
2
100
AcDbEntity
  8
2
100
AcDbLine
 10
-110.0602292507121
 20
27.63611032840584
 30
0.0
 11
-110.060229250712
 21
27.25511032840595
 31
0.0
  0
LINE
  5
D7
330
2
100
AcDbEntity
  8
2
100
AcDbLine
 10
-110.3602292507133
 20
27.63611032840584
 30
0.0
 11
-110.360229250713
 21
27.25511032840588
 31
0.0
  0
LINE
  5
D8
330
2
100
AcDbEntity
  8
2D
100
AcDbLine
 10
-111.6432292507089
 20
27.26211032840595
 30
0.0
 11
-112.147905137075
 21
27.26211032840595
 31
0.0
  0
LINE
  5
D9
330
2
100
AcDbEntity
  8
2D
100
AcDbLine
 10
-110.4997292507136
 20
27.0081103284059
 30
0.0
 11
-112.147905137075
 21
27.0081103284059
 31
0.0
  0
LINE
  5
DA
330
2
100
AcDbEntity
  8
2D
100
AcDbLine
 10
-111.6432292507089
 20
29.10811032840602
 30
0.0
 11
-112.147905137075
 21
29.10811032840602
 31
0.0
  0
LINE
  5
DB
330
2
100
AcDbEntity
  8
2D
100
AcDbLine
 10
-111.6432292507085
 20
29.30811032840606
 30
0.0
 11
-112.147905137075
 21
29.30811032840606
 31
0.0
  0
LINE
  5
DC
330
2
100
AcDbEntity
  8
2D
100
AcDbLine
 10
-111.6432292507085
 20
29.60811032840601
 30
0.0
 11
-112.147905137075
 21
29.60811032840601
 31
0.0
  0
LINE
  5
DD
330
2
100
AcDbEntity
  8
2D
100
AcDbLine
 10
-110.3948268738911
 20
26.6081103284059
 30
0.0
 11
-112.1586142731171
 21
26.6081103284059
 31
0.0
  0
LINE
  5
DE
330
2
100
AcDbEntity
  8
2D
100
AcDbLine
 10
-111.1152292507087
 20
29.13611032840568
 30
0.0
 11
-111.1152292507087
 21
30.1320089540759
 31
0.0
  0
LINE
  5
DF
330
2
100
AcDbEntity
  8
2D
100
AcDbLine
 10
-111.3152292507086
 20
29.13611032840602
 30
0.0
 11
-111.3152292507086
 21
30.1320089540759
 31
0.0
  0
LINE
  5
E0
330
2
100
AcDbEntity
  8
2D
100
AcDbLine
 10
-111.6152292507087
 20
29.63611032840602
 30
0.0
 11
-111.6152292507087
 21
30.1320089540759
 31
0.0
  0
LINE
  5
E1
330
2
100
AcDbEntity
  8
2D
100
AcDbLine
 10
-109.2352292507087
 20
27.66411032840573
 30
0.0
 11
-109.2352292507087
 21
30.15257811619012
 31
0.0
  0
LINE
  5
E2
330
2
100
AcDbEntity
  8
2
100
AcDbLine
 10
-111.1152292507087
 20
29.10811032840567
 30
0.0
 11
-110.3602292507087
 21
29.10811032840579
 31
0.0
  0
LINE
  5
E3
330
2
100
AcDbEntity
  8
2
100
AcDbLine
 10
-110.3602292507087
 20
27.83611032840565
 30
0.0
 11
-111.1152292507087
 21
27.83611032840565
 31
0.0
  0
LINE
  5
E4
330
2
100
AcDbEntity
  8
2
100
AcDbLine
 10
-111.1152292507084
 20
27.63611032840595
 30
0.0
 11
-110.3602292507086
 21
27.63611032840595
 31
0.0
  0
LINE
  5
E5
330
2
100
AcDbEntity
  8
2
100
AcDbLine
 10
-111.1152292507087
 20
27.83611032840565
 30
0.0
 11
-111.1152292507087
 21
29.10811032840567
 31
0.0
  0
LINE
  5
E6
330
2
100
AcDbEntity
  8
2
100
AcDbLine
 10
-111.6152292507088
 20
29.10811032840602
 30
0.0
 11
-111.3152292507086
 21
29.10811032840602
 31
0.0
  0
LINE
  5
E7
330
2
100
AcDbEntity
  8
2
100
AcDbLine
 10
-111.6152292507087
 20
29.30811032840606
 30
0.0
 11
-111.6152292507087
 21
29.60811032840601
 31
0.0
  0
LINE
  5
E8
330
2
100
AcDbEntity
  8
2
100
AcDbLine
 10
-111.3152292507086
 20
27.26211032840608
 30
0.0
 11
-111.6152292507088
 21
27.26211032840595
 31
0.0
  0
LINE
  5
E9
330
2
100
AcDbEntity
  8
2
100
AcDbLine
 10
-111.6152292507088
 20
27.26211032840595
 30
0.0
 11
-111.6152292507088
 21
29.10811032840602
 31
0.0
  0
LINE
  5
EA
330
2
100
AcDbEntity
  8
2
100
AcDbLine
 10
-111.3152292507086
 20
29.10811032840602
 30
0.0
 11
-111.3152292507086
 21
27.26211032840608
 31
0.0
  0
LINE
  5
EB
330
2
100
AcDbEntity
  8
2
100
AcDbLine
 10
-109.7102292507087
 20
27.63611032840575
 30
0.0
 11
-110.0602292507087
 21
27.63611032840581
 31
0.0
  0
LINE
  5
EC
330
2
100
AcDbEntity
  8
2
100
AcDbLine
 10
-109.0602292507087
 20
27.63611032840572
 30
0.0
 11
-109.4102292507087
 21
27.63611032840572
 31
0.0
  0
LINE
  5
ED
330
2
100
AcDbEntity
  8
2
100
AcDbLine
 10
-109.4102292507087
 20
29.10811032840567
 30
0.0
 11
-109.4102292507087
 21
27.83611032840565
 31
0.0
  0
LINE
  5
EE
330
2
100
AcDbEntity
  8
2
100
AcDbLine
 10
-109.7102292507087
 20
27.83611032840565
 30
0.0
 11
-109.7102292507085
 21
29.10811032840567
 31
0.0
  0
LINE
  5
EF
330
2
100
AcDbEntity
  8
2
100
AcDbLine
 10
-110.3602292507087
 20
27.83611032840565
 30
0.0
 11
-110.3602292507087
 21
29.10811032840579
 31
0.0
  0
LINE
  5
F0
330
2
100
AcDbEntity
  8
2
100
AcDbLine
 10
-110.0602292507087
 20
27.83611032840565
 30
0.0
 11
-110.0602292507087
 21
29.10811032840567
 31
0.0
  0
LINE
  5
F1
330
2
100
AcDbEntity
  8
2
100
AcDbLine
 10
-109.0602292507087
 20
29.10811032840579
 30
0.0
 11
-109.0602292507087
 21
27.83611032840565
 31
0.0
  0
LINE
  5
F2
330
2
100
AcDbEntity
  8
2
100
AcDbLine
 10
-109.0602292507087
 20
29.10811032840579
 30
0.0
 11
-109.4102292507087
 21
29.10811032840567
 31
0.0
  0
LINE
  5
F3
330
2
100
AcDbEntity
  8
2
100
AcDbLine
 10
-109.7102292507085
 20
29.10811032840567
 30
0.0
 11
-110.0602292507087
 21
29.10811032840567
 31
0.0
  0
LWPOLYLINE
  5
F4
330
2
100
AcDbEntity
  8
2
100
AcDbPolyline
 90
        2
 70
     0
 43
0.0
 10
-109.0602292507087
 20
27.83611032840565
 10
-109.4102292507087
 20
27.83611032840565
  0
LINE
  5
F5
330
2
100
AcDbEntity
  8
2
100
AcDbLine
 10
-109.7102292507087
 20
27.83611032840565
 30
0.0
 11
-110.0602292507087
 21
27.83611032840565
 31
0.0
  0
LINE
  5
F6
330
2
100
AcDbEntity
  8
2
100
AcDbLine
 10
-108.110229250704
 20
27.63611032840584
 30
0.0
 11
-108.1102292507042
 21
27.25511032840588
 31
0.0
  0
LINE
  5
F7
330
2
100
AcDbEntity
  8
2
100
AcDbLine
 10
-108.4102292507053
 20
27.63611032840584
 30
0.0
 11
-108.4102292507053
 21
27.25511032840595
 31
0.0
  0
LINE
  5
F8
330
2
100
AcDbEntity
  8
2
100
AcDbLine
 10
-108.7602292507068
 20
27.63611032840584
 30
0.0
 11
-108.7602292507067
 21
27.25511032840584
 31
0.0
  0
LINE
  5
F9
330
2
100
AcDbEntity
  8
2D
100
AcDbLine
 10
-106.7937292507087
 20
27.00811032840599
 30
0.0
 11
-106.2093095614454
 21
27.00811032840599
 31
0.0
  0
LINE
  5
FA
330
2
100
AcDbEntity
  8
2D
100
AcDbLine
 10
-108.0756316275262
 20
26.6081103284059
 30
0.0
 11
-106.2093095614454
 21
26.6081103284059
 31
0.0
  0
LINE
  5
FB
330
2
100
AcDbEntity
  8
2D
100
AcDbLine
 10
-107.3272292507088
 20
27.83611032840565
 30
0.0
 11
-106.2093095614454
 21
27.83611032840565
 31
0.0
  0
LINE
  5
FC
330
2
100
AcDbEntity
  8
2D
100
AcDbLine
 10
-107.7322292507085
 20
27.43311032840594
 30
0.0
 11
-106.2093095614454
 21
27.43311032840594
 31
0.0
  0
LINE
  5
FD
330
2
100
AcDbEntity
  8
2D
100
AcDbLine
 10
-107.3272292507088
 20
27.63611032840595
 30
0.0
 11
-106.2093095614454
 21
27.63611032840595
 31
0.0
  0
LINE
  5
FE
330
2
100
AcDbEntity
  8
2D
100
AcDbLine
 10
-107.9707292507037
 20
27.25531032840594
 30
0.0
 11
-106.2093095614454
 21
27.25531032840596
 31
0.0
  0
LINE
  5
FF
330
2
100
AcDbEntity
  8
2D
100
AcDbLine
 10
-106.8217292507087
 20
27.036110328406
 30
0.0
 11
-106.8217292507087
 21
30.15859017120329
 31
0.0
  0
LINE
  5
100
330
2
100
AcDbEntity
  8
2D
100
AcDbLine
 10
-107.7602292507087
 20
27.46111032840595
 30
0.0
 11
-107.7602292507087
 21
30.1320089540759
 31
0.0
  0
LINE
  5
101
330
2
100
AcDbEntity
  8
2
100
AcDbLine
 10
-106.8552292507088
 20
29.60811032840601
 30
0.0
 11
-106.8552292507088
 21
29.30811032840618
 31
0.0
  0
LINE
  5
102
330
2
100
AcDbEntity
  8
2
100
AcDbLine
 10
-106.8552292507088
 20
27.26211032840595
 30
0.0
 11
-106.8552292507088
 21
29.10811032840602
 31
0.0
  0
POINT
  5
103
330
2
100
AcDbEntity
  8
2
100
AcDbPoint
 10
-106.8217292507087
 20
27.00811032840599
 30
0.0
  0
POINT
  5
104
330
2
100
AcDbEntity
  8
2
100
AcDbPoint
 10
-106.8217292507087
 20
27.00811032840599
 30
0.0
  0
LINE
  5
105
330
2
100
AcDbEntity
  8
2
100
AcDbLine
 10
-108.4102292507053
 20
27.63611032840584
 30
0.0
 11
-108.7602292507068
 21
27.63611032840584
 31
0.0
  0
LINE
  5
106
330
2
100
AcDbEntity
  8
2
100
AcDbLine
 10
-108.4102292507085
 20
27.83611032840565
 30
0.0
 11
-108.7602292507087
 21
27.83611032840565
 31
0.0
  0
LWPOLYLINE
  5
107
330
2
100
AcDbEntity
  8
2
100
AcDbPolyline
 90
        2
 70
     0
 43
0.0
 10
-108.7602292507085
 20
29.10811032840579
 10
-108.4102292507085
 20
29.10811032840579
  0
LINE
  5
108
330
2
100
AcDbEntity
  8
2
100
AcDbLine
 10
-108.7602292507087
 20
27.83611032840565
 30
0.0
 11
-108.7602292507085
 21
29.10811032840579
 31
0.0
  0
LINE
  5
109
330
2
100
AcDbEntity
  8
2
100
AcDbLine
 10
-107.3552292507089
 20
27.83611032840565
 30
0.0
 11
-108.1102292507087
 21
27.83611032840565
 31
0.0
  0
LINE
  5
10A
330
2
100
AcDbEntity
  8
2
100
AcDbLine
 10
-108.1102292507089
 20
27.63611032840595
 30
0.0
 11
-107.3552292507089
 21
27.63611032840595
 31
0.0
  0
LINE
  5
10B
330
2
100
AcDbEntity
  8
2
100
AcDbLine
 10
-107.3552292507089
 20
29.10811032840567
 30
0.0
 11
-107.3552292507089
 21
27.83611032840565
 31
0.0
  0
LINE
  5
10C
330
2
100
AcDbEntity
  8
2
100
AcDbLine
 10
-108.1102292507087
 20
27.83611032840565
 30
0.0
 11
-108.1102292507087
 21
29.10811032840579
 31
0.0
  0
LINE
  5
10D
330
2
100
AcDbEntity
  8
2
100
AcDbLine
 10
-108.1102292507089
 20
29.10811032840579
 30
0.0
 11
-107.3552292507089
 21
29.10811032840567
 31
0.0
  0
LINE
  5
10E
330
2
100
AcDbEntity
  8
2
100
AcDbLine
 10
-108.4102292507085
 20
27.83611032840565
 30
0.0
 11
-108.4102292507085
 21
29.10811032840579
 31
0.0
  0
LINE
  5
10F
330
2
100
AcDbEntity
  8
2
100
AcDbLine
 10
-107.1552292507089
 20
29.10811032840602
 30
0.0
 11
-107.1552292507089
 21
27.26211032840608
 31
0.0
  0
LINE
  5
110
330
2
100
AcDbEntity
  8
2
100
AcDbLine
 10
-107.3552292507089
 20
27.63611032840595
 30
0.0
 11
-107.3552292507089
 21
27.00811032840599
 31
0.0
  0
LINE
  5
111
330
2
100
AcDbEntity
  8
2
100
AcDbLine
 10
-106.8552292507088
 20
29.10811032840602
 30
0.0
 11
-107.1552292507089
 21
29.10811032840602
 31
0.0
  0
LINE
  5
112
330
2
100
AcDbEntity
  8
2
100
AcDbLine
 10
-107.1552292507089
 20
27.26211032840608
 30
0.0
 11
-106.8552292507088
 21
27.26211032840595
 31
0.0
  0
LINE
  5
113
330
2
100
AcDbEntity
  8
2
100
AcDbLine
 10
-107.3552292507089
 20
27.00811032840599
 30
0.0
 11
-106.8212292507087
 21
27.00811032840599
 31
0.0
  0
LINE
  5
114
330
2
100
AcDbEntity
  8
2
100
AcDbLine
 10
-110.360229250713
 20
27.25511032840588
 30
0.0
 11
-110.4592292507133
 21
27.25511032840585
 31
0.0
  0
LINE
  5
115
330
2
100
AcDbEntity
  8
2
100
AcDbLine
 10
-110.4592292507132
 20
27.00811032840589
 30
0.0
 11
-110.4102292507132
 21
27.00811032840589
 31
0.0
  0
ARC
  5
116
330
2
100
AcDbEntity
  8
2
100
AcDbCircle
 10
-110.0112292507089
 20
26.73411032840621
 30
0.0
 40
0.05
100
AcDbArc
 50
270.0
 51
0.0000000000056996
  0
LINE
  5
117
330
2
100
AcDbEntity
  8
2
100
AcDbLine
 10
-110.3602292507132
 20
26.68411032840619
 30
0.0
 11
-110.0112292507089
 21
26.68411032840619
 31
0.0
  0
LINE
  5
118
330
2
100
AcDbEntity
  8
2
100
AcDbLine
 10
-109.961229250709
 20
27.25511032840596
 30
0.0
 11
-110.060229250712
 21
27.25511032840596
 31
0.0
  0
LINE
  5
119
330
2
100
AcDbEntity
  8
2
100
AcDbLine
 10
-109.961229250709
 20
27.25511032840595
 30
0.0
 11
-109.9612292507089
 21
26.73411032840621
 31
0.0
  0
ARC
  5
11A
330
2
100
AcDbEntity
  8
2
100
AcDbCircle
 10
-110.3602292507132
 20
26.73411032840621
 30
0.0
 40
0.05
100
AcDbArc
 50
180.0
 51
270.0
  0
LINE
  5
11B
330
2
100
AcDbEntity
  8
2
100
AcDbLine
 10
-110.4102292507132
 20
26.73411032840621
 30
0.0
 11
-110.4102292507132
 21
27.00811032840589
 31
0.0
  0
LINE
  5
11C
330
2
100
AcDbEntity
  8
2
100
AcDbLine
 10
-109.8092292507084
 20
27.25511032840595
 30
0.0
 11
-109.8092292507085
 21
26.73411032840621
 31
0.0
  0
LINE
  5
11D
330
2
100
AcDbEntity
  8
2
100
AcDbLine
 10
-109.7102292507107
 20
27.25511032840585
 30
0.0
 11
-109.8092292507084
 21
27.25511032840586
 31
0.0
  0
ARC
  5
11E
330
2
100
AcDbEntity
  8
2
100
AcDbCircle
 10
-109.7592292507086
 20
26.73411032840621
 30
0.0
 40
0.05
100
AcDbArc
 50
179.9999999999829
 51
270.0
  0
LINE
  5
11F
330
2
100
AcDbEntity
  8
2
100
AcDbLine
 10
-109.7592292507086
 20
26.68411032840619
 30
0.0
 11
-109.349229250709
 21
26.68411032840619
 31
0.0
  0
ARC
  5
120
330
2
100
AcDbEntity
  8
2
100
AcDbCircle
 10
-109.3512016081394
 20
26.72504932005326
 30
0.0
 40
0.0409864761953353
100
AcDbArc
 50
272.7582614702101
 51
12.7720705666431
  0
LINE
  5
121
330
2
100
AcDbEntity
  8
2
100
AcDbLine
 10
-109.4102292507094
 20
27.25511032840585
 30
0.0
 11
-109.3112292507089
 21
27.25511032840584
 31
0.0
  0
LINE
  5
122
330
2
100
AcDbEntity
  8
2
100
AcDbLine
 10
-109.3112292507089
 20
27.25511032840584
 30
0.0
 11
-109.3112292507089
 21
26.73411032840621
 31
0.0
  0
LINE
  5
123
330
2
100
AcDbEntity
  8
2
100
AcDbLine
 10
-109.3112292507089
 20
27.25511032840584
 30
0.0
 11
-109.3112292507089
 21
26.7836103284066
 31
0.0
  0
LINE
  5
124
330
2
100
AcDbEntity
  8
2
100
AcDbLine
 10
-108.5092292507084
 20
27.25511032840595
 30
0.0
 11
-108.5092292507084
 21
26.73411032840621
 31
0.0
  0
LINE
  5
125
330
2
100
AcDbEntity
  8
2
100
AcDbLine
 10
-108.5092292507084
 20
27.25511032840596
 30
0.0
 11
-108.4102292507053
 21
27.25511032840596
 31
0.0
  0
LINE
  5
126
330
2
100
AcDbEntity
  8
2
100
AcDbLine
 10
-108.110229250704
 20
26.68411032840619
 30
0.0
 11
-108.4592292507085
 21
26.68411032840619
 31
0.0
  0
ARC
  5
127
330
2
100
AcDbEntity
  8
2
100
AcDbCircle
 10
-108.4592292507085
 20
26.73411032840621
 30
0.0
 40
0.05
100
AcDbArc
 50
179.9999999999943
 51
270.0
  0
LINE
  5
128
330
2
100
AcDbEntity
  8
2
100
AcDbLine
 10
-109.1592292507084
 20
27.25511032840584
 30
0.0
 11
-109.1592292507084
 21
26.7836103284066
 31
0.0
  0
LINE
  5
129
330
2
100
AcDbEntity
  8
2
100
AcDbLine
 10
-109.1592292507084
 20
27.25511032840584
 30
0.0
 11
-109.1592292507084
 21
26.73411032840621
 31
0.0
  0
LINE
  5
12A
330
2
100
AcDbEntity
  8
2
100
AcDbLine
 10
-109.0602292507079
 20
27.25511032840585
 30
0.0
 11
-109.1592292507084
 21
27.25511032840584
 31
0.0
  0
ARC
  5
12B
330
2
100
AcDbEntity
  8
2
100
AcDbCircle
 10
-109.1192568932781
 20
26.72504932005326
 30
0.0
 40
0.0409864761953353
100
AcDbArc
 50
167.2279294333569
 51
267.2417385297899
  0
LINE
  5
12C
330
2
100
AcDbEntity
  8
2
100
AcDbLine
 10
-108.7112292507088
 20
26.68411032840619
 30
0.0
 11
-109.1212292507083
 21
26.68411032840619
 31
0.0
  0
ARC
  5
12D
330
2
100
AcDbEntity
  8
2
100
AcDbCircle
 10
-108.7112292507088
 20
26.73411032840621
 30
0.0
 40
0.05
100
AcDbArc
 50
270.0
 51
0.0000000000170987
  0
LINE
  5
12E
330
2
100
AcDbEntity
  8
2
100
AcDbLine
 10
-108.7602292507067
 20
27.25511032840585
 30
0.0
 11
-108.661229250709
 21
27.25511032840586
 31
0.0
  0
LINE
  5
12F
330
2
100
AcDbEntity
  8
2
100
AcDbLine
 10
-108.661229250709
 20
27.25511032840595
 30
0.0
 11
-108.6612292507088
 21
26.73411032840621
 31
0.0
  0
LINE
  5
130
330
2
100
AcDbEntity
  8
2
100
AcDbLine
 10
-110.4592292507133
 20
27.25511032840585
 30
0.0
 11
-110.4592292507132
 21
27.00811032840589
 31
0.0
  0
ARC
  5
131
330
2
100
AcDbEntity
  8
2
100
AcDbCircle
 10
-108.110229250704
 20
26.73411032840621
 30
0.0
 40
0.05
100
AcDbArc
 50
270.0
 51
0.0
  0
LINE
  5
132
330
2
100
AcDbEntity
  8
2
100
AcDbLine
 10
-108.0602292507041
 20
26.73411032840621
 30
0.0
 11
-108.0602292507041
 21
27.00811032840589
 31
0.0
  0
LINE
  5
133
330
2
100
AcDbEntity
  8
2
100
AcDbLine
 10
-108.0112292507042
 20
27.00811032840589
 30
0.0
 11
-108.0602292507041
 21
27.00811032840589
 31
0.0
  0
LINE
  5
134
330
2
100
AcDbEntity
  8
2
100
AcDbLine
 10
-108.011229250704
 20
27.25511032840585
 30
0.0
 11
-108.0112292507042
 21
27.00811032840589
 31
0.0
  0
LINE
  5
135
330
2
100
AcDbEntity
  8
2
100
AcDbLine
 10
-108.1102292507042
 20
27.25511032840588
 30
0.0
 11
-108.011229250704
 21
27.25511032840585
 31
0.0
  0
LINE
  5
136
330
2
100
AcDbEntity
  8
2
100
AcDbLine
 10
-110.3602292507132
 20
26.53211032840561
 30
0.0
 11
-110.0112292507089
 21
26.53211032840561
 31
0.0
  0
ARC
  5
137
330
2
100
AcDbEntity
  8
2
100
AcDbCircle
 10
-110.3602292507132
 20
26.4821103284056
 30
0.0
 40
0.05
100
AcDbArc
 50
90.0
 51
180.0
  0
LINE
  5
138
330
2
100
AcDbEntity
  8
2
100
AcDbLine
 10
-110.4102292507132
 20
26.4821103284056
 30
0.0
 11
-110.4102292507132
 21
26.20811032840591
 31
0.0
  0
LINE
  5
139
330
2
100
AcDbEntity
  8
2
100
AcDbLine
 10
-110.4592292507132
 20
26.20811032840591
 30
0.0
 11
-110.4102292507132
 21
26.20811032840591
 31
0.0
  0
LINE
  5
13A
330
2
100
AcDbEntity
  8
2
100
AcDbLine
 10
-110.4592292507133
 20
25.96111032840595
 30
0.0
 11
-110.4592292507132
 21
26.20811032840591
 31
0.0
  0
LINE
  5
13B
330
2
100
AcDbEntity
  8
2
100
AcDbLine
 10
-110.360229250713
 20
25.96111032840592
 30
0.0
 11
-110.4592292507133
 21
25.96111032840595
 31
0.0
  0
LINE
  5
13C
330
2
100
AcDbEntity
  8
2
100
AcDbLine
 10
-109.961229250709
 20
25.96111032840585
 30
0.0
 11
-109.9612292507089
 21
26.4821103284056
 31
0.0
  0
LINE
  5
13D
330
2
100
AcDbEntity
  8
2
100
AcDbLine
 10
-109.961229250709
 20
25.96111032840584
 30
0.0
 11
-110.060229250712
 21
25.96111032840584
 31
0.0
  0
ARC
  5
13E
330
2
100
AcDbEntity
  8
2
100
AcDbCircle
 10
-110.0112292507089
 20
26.4821103284056
 30
0.0
 40
0.05
100
AcDbArc
 50
359.9999999999942
 51
90.0
  0
LINE
  5
13F
330
2
100
AcDbEntity
  8
2
100
AcDbLine
 10
-108.7112292507088
 20
26.53211032840561
 30
0.0
 11
-109.1212292507083
 21
26.53211032840561
 31
0.0
  0
ARC
  5
140
330
2
100
AcDbEntity
  8
2
100
AcDbCircle
 10
-109.1192568932781
 20
26.49117133675854
 30
0.0
 40
0.0409864761953353
100
AcDbArc
 50
92.75826147021005
 51
192.772070566643
  0
LINE
  5
141
330
2
100
AcDbEntity
  8
2
100
AcDbLine
 10
-109.0602292507079
 20
25.96111032840595
 30
0.0
 11
-109.1592292507084
 21
25.96111032840596
 31
0.0
  0
LINE
  5
142
330
2
100
AcDbEntity
  8
2
100
AcDbLine
 10
-109.1592292507084
 20
25.96111032840596
 30
0.0
 11
-109.1592292507084
 21
26.4821103284056
 31
0.0
  0
LINE
  5
143
330
2
100
AcDbEntity
  8
2
100
AcDbLine
 10
-109.1592292507084
 20
25.96111032840596
 30
0.0
 11
-109.1592292507084
 21
26.4326103284052
 31
0.0
  0
LINE
  5
144
330
2
100
AcDbEntity
  8
2
100
AcDbLine
 10
-109.3112292507089
 20
25.96111032840596
 30
0.0
 11
-109.3112292507089
 21
26.4326103284052
 31
0.0
  0
LINE
  5
145
330
2
100
AcDbEntity
  8
2
100
AcDbLine
 10
-109.3112292507089
 20
25.96111032840596
 30
0.0
 11
-109.3112292507089
 21
26.4821103284056
 31
0.0
  0
LINE
  5
146
330
2
100
AcDbEntity
  8
2
100
AcDbLine
 10
-109.4102292507094
 20
25.96111032840595
 30
0.0
 11
-109.3112292507089
 21
25.96111032840596
 31
0.0
  0
ARC
  5
147
330
2
100
AcDbEntity
  8
2
100
AcDbCircle
 10
-109.3512016081394
 20
26.49117133675854
 30
0.0
 40
0.0409864761953353
100
AcDbArc
 50
347.227929433357
 51
87.24173852978996
  0
LINE
  5
148
330
2
100
AcDbEntity
  8
2
100
AcDbLine
 10
-109.7592292507086
 20
26.53211032840561
 30
0.0
 11
-109.349229250709
 21
26.53211032840561
 31
0.0
  0
ARC
  5
149
330
2
100
AcDbEntity
  8
2
100
AcDbCircle
 10
-109.7592292507086
 20
26.4821103284056
 30
0.0
 40
0.05
100
AcDbArc
 50
90.0
 51
180.0000000000171
  0
LINE
  5
14A
330
2
100
AcDbEntity
  8
2
100
AcDbLine
 10
-109.7102292507107
 20
25.96111032840595
 30
0.0
 11
-109.8092292507084
 21
25.96111032840594
 31
0.0
  0
LINE
  5
14B
330
2
100
AcDbEntity
  8
2
100
AcDbLine
 10
-109.8092292507084
 20
25.96111032840585
 30
0.0
 11
-109.8092292507085
 21
26.4821103284056
 31
0.0
  0
LINE
  5
14C
330
2
100
AcDbEntity
  8
2
100
AcDbLine
 10
-108.110229250704
 20
26.53211032840561
 30
0.0
 11
-108.4592292507085
 21
26.53211032840561
 31
0.0
  0
LINE
  5
14D
330
2
100
AcDbEntity
  8
2
100
AcDbLine
 10
-108.1102292507042
 20
25.96111032840592
 30
0.0
 11
-108.011229250704
 21
25.96111032840595
 31
0.0
  0
LINE
  5
14E
330
2
100
AcDbEntity
  8
2
100
AcDbLine
 10
-108.011229250704
 20
25.96111032840595
 30
0.0
 11
-108.0112292507042
 21
26.20811032840591
 31
0.0
  0
LINE
  5
14F
330
2
100
AcDbEntity
  8
2
100
AcDbLine
 10
-108.0112292507042
 20
26.20811032840591
 30
0.0
 11
-108.0602292507041
 21
26.20811032840591
 31
0.0
  0
LINE
  5
150
330
2
100
AcDbEntity
  8
2
100
AcDbLine
 10
-108.0602292507041
 20
26.4821103284056
 30
0.0
 11
-108.0602292507041
 21
26.20811032840591
 31
0.0
  0
ARC
  5
151
330
2
100
AcDbEntity
  8
2
100
AcDbCircle
 10
-108.110229250704
 20
26.4821103284056
 30
0.0
 40
0.05
100
AcDbArc
 50
0.0
 51
90.0
  0
LINE
  5
152
330
2
100
AcDbEntity
  8
2
100
AcDbLine
 10
-108.661229250709
 20
25.96111032840585
 30
0.0
 11
-108.6612292507088
 21
26.4821103284056
 31
0.0
  0
LINE
  5
153
330
2
100
AcDbEntity
  8
2
100
AcDbLine
 10
-108.7602292507067
 20
25.96111032840595
 30
0.0
 11
-108.661229250709
 21
25.96111032840594
 31
0.0
  0
ARC
  5
154
330
2
100
AcDbEntity
  8
2
100
AcDbCircle
 10
-108.7112292507088
 20
26.4821103284056
 30
0.0
 40
0.05
100
AcDbArc
 50
359.9999999999829
 51
90.0
  0
ARC
  5
155
330
2
100
AcDbEntity
  8
2
100
AcDbCircle
 10
-108.4592292507085
 20
26.4821103284056
 30
0.0
 40
0.05
100
AcDbArc
 50
90.0
 51
180.0000000000057
  0
LINE
  5
156
330
2
100
AcDbEntity
  8
2
100
AcDbLine
 10
-108.5092292507084
 20
25.96111032840584
 30
0.0
 11
-108.4102292507053
 21
25.96111032840584
 31
0.0
  0
LINE
  5
157
330
2
100
AcDbEntity
  8
2
100
AcDbLine
 10
-108.5092292507084
 20
25.96111032840585
 30
0.0
 11
-108.5092292507084
 21
26.4821103284056
 31
0.0
  0
LINE
  5
158
330
2
100
AcDbEntity
  8
2D
100
AcDbLine
 10
-109.3112292507089
 20
27.28211032840583
 30
0.0
 11
-109.3112292507089
 21
29.83257811619012
 31
0.0
  0
LINE
  5
159
330
2
100
AcDbEntity
  8
2D
100
AcDbLine
 10
-109.3112292507089
 20
29.83257811619012
 30
0.0
 11
-109.3563270117976
 21
29.99257811619012
 31
0.0
  0
LINE
  5
15A
330
2
100
AcDbEntity
  8
2D
100
AcDbLine
 10
-109.3563270117976
 20
29.99257811619012
 30
0.0
 11
-109.3563270117976
 21
30.15257811619012
 31
0.0
  0
MTEXT
  5
15B
330
2
100
AcDbEntity
  8
2D
100
AcDbMText
 10
-109.3563270117976
 20
30.29957811619012
 30
0.0
 40
0.08
 41
0.0
 46
0.0
 71
     5
 72
     1
  1
\A1;.076
  7
SIMPLEX
 11
0.0000000000000001
 21
1.0
 31
0.0
 73
     1
 44
1.0
  0
LINE
  5
15C
330
2
100
AcDbEntity
  8
2D
100
AcDbLine
 10
-109.8092292507084
 20
27.28211032840595
 30
0.0
 11
-109.8092292507084
 21
30.15257811619012
 31
0.0
  0
MTEXT
  5
15D
330
2
100
AcDbEntity
  8
2D
100
AcDbMText
 10
-109.8092292507084
 20
30.30338763999964
 30
0.0
 40
0.08
 41
0.0
 46
0.0
 71
     5
 72
     1
  1
\A1;.574
  7
SIMPLEX
 11
0.0000000000000001
 21
1.0
 31
0.0
 73
     1
 44
1.0
  0
LINE
  5
15E
330
2
100
AcDbEntity
  8
2D
100
AcDbLine
 10
-110.4592292507133
 20
27.28211032840585
 30
0.0
 11
-110.4592292507133
 21
30.15257811619012
 31
0.0
  0
MTEXT
  5
15F
330
2
100
AcDbEntity
  8
2D
100
AcDbMText
 10
-110.4592292507133
 20
30.33386383047584
 30
0.0
 40
0.08
 41
0.0
 46
0.0
 71
     5
 72
     1
  1
\A1;1.224
  7
SIMPLEX
 11
0.0000000000000001
 21
1.0
 31
0.0
 73
     1
 44
1.0
  0
LINE
  5
160
330
2
100
AcDbEntity
  8
2D
100
AcDbLine
 10
-110.4102292507132
 20
27.03511032840589
 30
0.0
 11
-110.4102292507132
 21
29.83257811619012
 31
0.0
  0
LINE
  5
161
330
2
100
AcDbEntity
  8
2D
100
AcDbLine
 10
-110.4102292507132
 20
29.83257811619012
 30
0.0
 11
-110.3106362716144
 21
29.99257811619012
 31
0.0
  0
LINE
  5
162
330
2
100
AcDbEntity
  8
2D
100
AcDbLine
 10
-110.3106362716144
 20
29.99257811619012
 30
0.0
 11
-110.3106362716144
 21
30.15257811619012
 31
0.0
  0
MTEXT
  5
163
330
2
100
AcDbEntity
  8
2D
100
AcDbMText
 10
-110.3106362716144
 20
30.32434002095202
 30
0.0
 40
0.08
 41
0.0
 46
0.0
 71
     5
 72
     1
  1
\A1;1.175
  7
SIMPLEX
 11
0.0000000000000001
 21
1.0
 31
0.0
 73
     1
 44
1.0
  0
LINE
  5
164
330
2
100
AcDbEntity
  8
2D
100
AcDbLine
 10
-108.083229250704
 20
26.68411032840619
 30
0.0
 11
-106.5293095614453
 21
26.68411032840619
 31
0.0
  0
LINE
  5
165
330
2
100
AcDbEntity
  8
2D
100
AcDbLine
 10
-106.5293095614453
 20
26.68411032840619
 30
0.0
 11
-106.3693095614453
 21
26.74239496500694
 31
0.0
  0
LINE
  5
166
330
2
100
AcDbEntity
  8
2D
100
AcDbLine
 10
-106.3693095614453
 20
26.74239496500694
 30
0.0
 11
-106.2093095614454
 21
26.74239496500694
 31
0.0
  0
MTEXT
  5
167
330
2
100
AcDbEntity
  8
2D
100
AcDbMText
 10
-106.0623095614453
 20
26.74239496500694
 30
0.0
 40
0.08
 41
0.0
 46
0.0
 71
     5
 72
     1
  1
\A1;.076
  7
SIMPLEX
 73
     1
 44
1.0
  0
ARC
  5
168
330
2
100
AcDbEntity
  8
2
100
AcDbCircle
 10
-110.3602292507132
 20
25.88311032840585
 30
0.0
 40
0.0499999999999989
100
AcDbArc
 50
270.0
 51
90.0
  0
ARC
  5
169
330
2
100
AcDbEntity
  8
2
100
AcDbCircle
 10
-110.060229250712
 20
25.88311032840585
 30
0.0
 40
0.0499999999999989
100
AcDbArc
 50
90.0
 51
270.0
  0
ARC
  5
16A
330
2
100
AcDbEntity
  8
2
100
AcDbCircle
 10
-109.7102292507132
 20
25.88311032840585
 30
0.0
 40
0.0499999999999989
100
AcDbArc
 50
270.0
 51
90.0
  0
ARC
  5
16B
330
2
100
AcDbEntity
  8
2
100
AcDbCircle
 10
-109.410229250712
 20
25.88311032840585
 30
0.0
 40
0.0499999999999989
100
AcDbArc
 50
90.0
 51
270.0
  0
ARC
  5
16C
330
2
100
AcDbEntity
  8
2
100
AcDbCircle
 10
-109.0602292507132
 20
25.88311032840585
 30
0.0
 40
0.0499999999999989
100
AcDbArc
 50
270.0
 51
90.0
  0
ARC
  5
16D
330
2
100
AcDbEntity
  8
2
100
AcDbCircle
 10
-108.7602292507119
 20
25.88311032840585
 30
0.0
 40
0.0499999999999989
100
AcDbArc
 50
90.0
 51
270.0
  0
ARC
  5
16E
330
2
100
AcDbEntity
  8
2
100
AcDbCircle
 10
-108.4102292507132
 20
25.88311032840585
 30
0.0
 40
0.0499999999999989
100
AcDbArc
 50
270.0
 51
90.0
  0
ARC
  5
16F
330
2
100
AcDbEntity
  8
2
100
AcDbCircle
 10
-108.110229250712
 20
25.88311032840585
 30
0.0
 40
0.0499999999999989
100
AcDbArc
 50
90.0
 51
270.0
  0
ARC
  5
170
330
2
100
AcDbEntity
  8
2
100
AcDbCircle
 10
-110.3602292507132
 20
27.33311032840595
 30
0.0
 40
0.0499999999999989
100
AcDbArc
 50
270.0
 51
90.0
  0
ARC
  5
171
330
2
100
AcDbEntity
  8
2
100
AcDbCircle
 10
-110.060229250712
 20
27.33311032840595
 30
0.0
 40
0.0499999999999989
100
AcDbArc
 50
90.0
 51
270.0
  0
ARC
  5
172
330
2
100
AcDbEntity
  8
2
100
AcDbCircle
 10
-109.7102292507132
 20
27.33311032840595
 30
0.0
 40
0.0499999999999989
100
AcDbArc
 50
270.0
 51
90.0
  0
ARC
  5
173
330
2
100
AcDbEntity
  8
2
100
AcDbCircle
 10
-109.410229250712
 20
27.33311032840595
 30
0.0
 40
0.0499999999999989
100
AcDbArc
 50
90.0
 51
270.0
  0
ARC
  5
174
330
2
100
AcDbEntity
  8
2
100
AcDbCircle
 10
-109.0602292507132
 20
27.33311032840595
 30
0.0
 40
0.0499999999999989
100
AcDbArc
 50
270.0
 51
90.0
  0
ARC
  5
175
330
2
100
AcDbEntity
  8
2
100
AcDbCircle
 10
-108.7602292507119
 20
27.33311032840595
 30
0.0
 40
0.0499999999999989
100
AcDbArc
 50
90.0
 51
270.0
  0
ARC
  5
176
330
2
100
AcDbEntity
  8
2
100
AcDbCircle
 10
-108.4102292507132
 20
27.33311032840595
 30
0.0
 40
0.0499999999999989
100
AcDbArc
 50
270.0
 51
90.0
  0
ARC
  5
177
330
2
100
AcDbEntity
  8
2
100
AcDbCircle
 10
-108.110229250712
 20
27.33311032840595
 30
0.0
 40
0.0499999999999989
100
AcDbArc
 50
90.0
 51
270.0
  0
LWPOLYLINE
  5
178
330
2
100
AcDbEntity
  8
2D
  6
CENTER2
 62
     2
100
AcDbPolyline
 90
        2
 70
     0
 43
0.0
 10
-109.8345209750021
 20
20.6448801963505
 10
-108.9894809832339
 20
20.6448801963505
  0
LINE
  5
179
330
2
100
AcDbEntity
  8
2
100
AcDbLine
 10
-109.6784949834485
 20
20.6448801963505
 30
0.0
 11
-109.6784949834485
 21
20.91188019635065
 31
0.0
  0
LINE
  5
17A
330
2
100
AcDbEntity
  8
2
100
AcDbLine
 10
-109.2284949834467
 20
20.91188019635065
 30
0.0
 11
-109.2284949834462
 21
20.6448801963505
 31
0.0
  0
LINE
  5
17B
330
2
100
AcDbEntity
  8
2
100
AcDbLine
 10
-109.079994983446
 20
20.91188019635067
 30
0.0
 11
-109.0799949834459
 21
21.61913019634953
 31
0.0
  0
LINE
  5
17C
330
2
100
AcDbEntity
  8
2
100
AcDbLine
 10
-109.079994983446
 20
20.91188019635067
 30
0.0
 11
-109.079994983446
 21
21.69338019635013
 31
0.0
  0
LINE
  5
17D
330
2
100
AcDbEntity
  8
2
100
AcDbLine
 10
-109.2284949834467
 20
20.91188019635065
 30
0.0
 11
-109.079994983446
 21
20.91188019635067
 31
0.0
  0
LINE
  5
17E
330
2
100
AcDbEntity
  8
2
100
AcDbLine
 10
-109.7519949834454
 20
21.76838019635012
 30
0.0
 11
-109.154994983446
 21
21.76838019635012
 31
0.0
  0
ARC
  5
17F
330
2
100
AcDbEntity
  8
2
100
AcDbCircle
 10
-109.154994983446
 20
21.69338019635013
 30
0.0
 40
0.075
100
AcDbArc
 50
0.0000000000032569
 51
90.0
  0
ARC
  5
180
330
2
100
AcDbEntity
  8
2
100
AcDbCircle
 10
-109.7519949834454
 20
21.69338019635011
 30
0.0
 40
0.075
100
AcDbArc
 50
90.0
 51
180.0000000000171
  0
LINE
  5
181
330
2
100
AcDbEntity
  8
2
100
AcDbLine
 10
-109.6784949834485
 20
20.91188019635065
 30
0.0
 11
-109.8269949834452
 21
20.91188019635062
 31
0.0
  0
LINE
  5
182
330
2
100
AcDbEntity
  8
2
100
AcDbLine
 10
-109.8269949834452
 20
20.91188019635049
 30
0.0
 11
-109.8269949834454
 21
21.69338019635011
 31
0.0
  0
ARC
  5
183
330
2
100
AcDbEntity
  8
2
100
AcDbCircle
 10
-109.6784949834523
 20
20.79488019635049
 30
0.0
 40
0.0749999999999984
100
AcDbArc
 50
270.0
 51
90.0
  0
ARC
  5
184
330
2
100
AcDbEntity
  8
2
100
AcDbCircle
 10
-109.2284949834505
 20
20.79488019635049
 30
0.0
 40
0.0749999999999984
100
AcDbArc
 50
90.0
 51
270.0
  0
LINE
  5
185
330
2
100
AcDbEntity
  8
2D
100
AcDbLine
 10
-109.1909949834506
 20
20.79488019635049
 30
0.0
 11
-109.2659949834505
 21
20.79488019635049
 31
0.0
  0
LINE
  5
186
330
2
100
AcDbEntity
  8
2D
100
AcDbLine
 10
-109.1984949834465
 20
20.79488019635049
 30
0.0
 11
-108.5530350892694
 21
20.79488019635049
 31
0.0
  0
MTEXT
  5
187
330
2
100
AcDbEntity
  8
2D
100
AcDbMText
 10
-108.4011303273648
 20
20.79488019635049
 30
0.0
 40
0.08
 41
0.0
 46
0.0
 71
     5
 72
     1
  1
\A1;.725
  7
SIMPLEX
 73
     1
 44
1.0
  0
LINE
  5
188
330
2
100
AcDbEntity
  8
2D
100
AcDbLine
 10
-108.9594809832338
 20
20.6448801963505
 30
0.0
 11
-108.5530350892694
 21
20.6448801963505
 31
0.0
  0
MTEXT
  5
189
330
2
100
AcDbEntity
  8
2D
100
AcDbMText
 10
-108.2449398511743
 20
20.6448801963505
 30
0.0
 40
0.08
 41
0.0
 46
0.0
 71
     5
 72
     1
  1
\A1;.825 PKG
  7
SIMPLEX
 73
     1
 44
1.0
  0
MTEXT
  5
18A
330
2
100
AcDbEntity
  8
2D
100
AcDbMText
 10
-109.337709866794
 20
19.85772822725668
 30
0.0
 40
0.08
 41
0.0
 46
0.0
 71
     9
 72
     1
  1
{\LDETAIL B}
  7
SIMPLEX
 73
     1
 44
1.0
1001
ACAD
1000
ACAD_MTEXT_DEFINED_HEIGHT_BEGIN
1070
    46
1040
0.0
1000
ACAD_MTEXT_DEFINED_HEIGHT_END
  0
SOLID
  5
18B
330
2
100
AcDbEntity
  8
2D
100
AcDbTrace
 10
-109.9544003053952
 20
25.86686074263361
 30
0.0
 11
-109.8766660109161
 21
25.88999420842699
 31
0.0
 12
-109.9426957059768
 22
25.8429000777103
 32
0.0
 13
-109.9426957059768
 23
25.8429000777103
 33
0.0
1001
ACAD
1000
DSTYLE
1002
{
1070
   147
1040
0.03
1070
    77
1070
     0
1002
}
  0
LINE
  5
18C
330
2
100
AcDbEntity
  8
2D
100
AcDbLine
 10
-109.948548005686
 20
25.85488041017196
 30
0.0
 11
-111.7342415871175
 21
24.9825829125249
 31
0.0
1001
ACAD
1000
DSTYLE
1002
{
1070
   147
1040
0.03
1070
    77
1070
     0
1002
}
  0
LINE
  5
18D
330
2
100
AcDbEntity
  8
2D
100
AcDbLine
 10
-111.7342415871175
 20
24.9825829125249
 30
0.0
 11
-111.8142415871176
 21
24.9825829125249
 31
0.0
1001
ACAD
1000
DSTYLE
1002
{
1070
   147
1040
0.03
1070
    77
1070
     0
1002
}
  0
MTEXT
  5
18E
330
2
100
AcDbEntity
  8
2D
100
AcDbMText
 10
-111.8442415871175
 20
24.94258291252491
 30
0.0
 40
0.08
 41
0.0
 46
0.0
 71
     9
 72
     1
  1
DETAIL 'B'
  7
SIMPLEX
 73
     1
 44
1.0
1001
ACAD
1000
ACAD_MTEXT_DEFINED_HEIGHT_BEGIN
1070
    46
1040
0.0
1000
ACAD_MTEXT_DEFINED_HEIGHT_END
  0
LWPOLYLINE
  5
18F
330
2
100
AcDbEntity
  8
2D
  6
CENTER2
 62
     2
 48
0.5
100
AcDbPolyline
 90
        5
 70
     0
 43
0.0
 10
-109.2850881786083
 20
26.57563832838086
 10
-109.2850881786083
 20
25.81301584972993
 10
-109.8824485457278
 20
25.81301584972993
 10
-109.8824485457278
 20
26.57563832838086
 10
-109.2917169382869
 20
26.57563832838086
  0
HATCH
  5
190
330
2
100
AcDbEntity
  8
2D
100
AcDbHatch
 10
0.0
 20
0.0
 30
0.0
210
0.0
220
0.0
230
1.0
  2
DOTS
 70
     0
 71
     0
 91
       16
 92
        1
 93
        2
 72
     2
 10
-108.110229250712
 20
27.33311032840595
 40
0.0499999999999989
 50
90.0
 51
270.0
 73
     1
 72
     1
 10
-108.1102292507042
 20
27.28311032840596
 11
-108.110229250704
 21
27.38311032840595
 97
        0
 92
        1
 93
        2
 72
     2
 10
-108.4102292507132
 20
27.33311032840595
 40
0.0499999999999989
 50
270.0
 51
450.0
 73
     1
 72
     1
 10
-108.4102292507053
 20
27.38311032840595
 11
-108.4102292507053
 21
27.28311032840596
 97
        0
 92
        1
 93
        2
 72
     2
 10
-108.7602292507119
 20
27.33311032840595
 40
0.0499999999999989
 50
90.0
 51
270.0
 73
     1
 72
     1
 10
-108.7602292507067
 20
27.28311032840596
 11
-108.7602292507067
 21
27.38311032840595
 97
        0
 92
        1
 93
        2
 72
     2
 10
-109.0602292507132
 20
27.33311032840595
 40
0.0499999999999989
 50
270.0
 51
450.0
 73
     1
 72
     1
 10
-109.0602292507082
 20
27.38311032840595
 11
-109.060229250708
 21
27.28311032840596
 97
        0
 92
        1
 93
        2
 72
     2
 10
-109.410229250712
 20
27.33311032840595
 40
0.0499999999999989
 50
90.0
 51
270.0
 73
     1
 72
     1
 10
-109.4102292507094
 20
27.28311032840596
 11
-109.4102292507092
 21
27.38311032840595
 97
        0
 92
        1
 93
        2
 72
     2
 10
-109.7102292507132
 20
27.33311032840595
 40
0.0499999999999989
 50
270.0
 51
450.0
 73
     1
 72
     1
 10
-109.7102292507106
 20
27.38311032840595
 11
-109.7102292507107
 21
27.28311032840596
 97
        0
 92
        1
 93
        2
 72
     2
 10
-110.060229250712
 20
27.33311032840595
 40
0.0499999999999989
 50
90.0
 51
270.0
 73
     1
 72
     1
 10
-110.060229250712
 20
27.28311032840596
 11
-110.060229250712
 21
27.38311032840595
 97
        0
 92
        1
 93
        2
 72
     2
 10
-110.3602292507132
 20
27.33311032840595
 40
0.0499999999999989
 50
270.0
 51
450.0
 73
     1
 72
     1
 10
-110.3602292507132
 20
27.38311032840595
 11
-110.360229250713
 21
27.28311032840596
 97
        0
 92
        1
 93
        2
 72
     2
 10
-108.110229250712
 20
25.88311032840585
 40
0.0499999999999989
 50
90.0
 51
270.0
 73
     1
 72
     1
 10
-108.1102292507042
 20
25.83311032840585
 11
-108.1102292507043
 21
25.93311032840585
 97
        0
 92
        1
 93
        2
 72
     2
 10
-108.4102292507132
 20
25.88311032840585
 40
0.0499999999999989
 50
270.0
 51
450.0
 73
     1
 72
     1
 10
-108.4102292507053
 20
25.93311032840585
 11
-108.4102292507053
 21
25.83311032840585
 97
        0
 92
        1
 93
        2
 72
     2
 10
-108.7602292507119
 20
25.88311032840585
 40
0.0499999999999989
 50
90.0
 51
270.0
 73
     1
 72
     1
 10
-108.7602292507067
 20
25.83311032840585
 11
-108.7602292507067
 21
25.93311032840585
 97
        0
 92
        1
 93
        2
 72
     2
 10
-109.0602292507132
 20
25.88311032840585
 40
0.0499999999999989
 50
270.0
 51
450.0
 73
     1
 72
     1
 10
-109.060229250708
 20
25.93311032840585
 11
-109.0602292507082
 21
25.83311032840585
 97
        0
 92
        1
 93
        2
 72
     2
 10
-109.410229250712
 20
25.88311032840585
 40
0.0499999999999989
 50
90.0
 51
270.0
 73
     1
 72
     1
 10
-109.4102292507092
 20
25.83311032840585
 11
-109.4102292507094
 21
25.93311032840585
 97
        0
 92
        1
 93
        2
 72
     2
 10
-109.7102292507132
 20
25.88311032840585
 40
0.0499999999999989
 50
270.0
 51
450.0
 73
     1
 72
     1
 10
-109.7102292507107
 20
25.93311032840585
 11
-109.7102292507106
 21
25.83311032840585
 97
        0
 92
        1
 93
        2
 72
     2
 10
-110.060229250712
 20
25.88311032840585
 40
0.0499999999999989
 50
90.0
 51
270.0
 73
     1
 72
     1
 10
-110.060229250712
 20
25.83311032840585
 11
-110.060229250712
 21
25.93311032840585
 97
        0
 92
        1
 93
        2
 72
     2
 10
-110.3602292507132
 20
25.88311032840585
 40
0.0499999999999989
 50
270.0
 51
450.0
 73
     1
 72
     1
 10
-110.3602292507132
 20
25.93311032840585
 11
-110.3602292507132
 21
25.83311032840585
 97
        0
 75
     0
 76
     1
 52
0.0
 41
0.3
 77
     0
 78
     1
 53
0.0
 43
-111.3877612345234
 44
21.81540602400421
 45
0.009375
 46
0.01875
 79
     2
 49
0.0
 49
-0.01875
 98
        1
 10
-111.3877612345234
 20
3.694091955623975
1001
ACAD
1010
0.0
1020
0.0
1030
0.0
  0
LINE
  5
191
330
2
100
AcDbEntity
  8
2D
100
AcDbLine
 10
-109.3034949834505
 20
20.76488019635049
 30
0.0
 11
-109.3034949834505
 21
20.27270211974168
 31
0.0
  0
LINE
  5
192
330
2
100
AcDbEntity
  8
2D
100
AcDbLine
 10
-109.2284949834462
 20
20.6148801963505
 30
0.0
 11
-109.2284949834462
 21
20.27270211974168
 31
0.0
  0
LINE
  5
193
330
2
100
AcDbEntity
  8
2D
100
AcDbLine
 10
-109.3834949834506
 20
20.30270211974168
 30
0.0
 11
-109.4634949834506
 21
20.30270211974168
 31
0.0
  0
LINE
  5
194
330
2
100
AcDbEntity
  8
2D
100
AcDbLine
 10
-109.1484949834463
 20
20.30270211974168
 30
0.0
 11
-109.0684949834462
 21
20.30270211974168
 31
0.0
  0
SOLID
  5
195
330
2
100
AcDbEntity
  8
2D
100
AcDbTrace
 10
-109.3834949834506
 20
20.31603545307502
 30
0.0
 11
-109.3834949834506
 21
20.28936878640835
 31
0.0
 12
-109.3034949834505
 22
20.30270211974168
 32
0.0
 13
-109.3034949834505
 23
20.30270211974168
 33
0.0
  0
SOLID
  5
196
330
2
100
AcDbEntity
  8
2D
100
AcDbTrace
 10
-109.1484949834463
 20
20.31603545307502
 30
0.0
 11
-109.1484949834463
 21
20.28936878640835
 31
0.0
 12
-109.2284949834462
 22
20.30270211974168
 32
0.0
 13
-109.2284949834462
 23
20.30270211974168
 33
0.0
  0
MTEXT
  5
197
330
2
100
AcDbEntity
  8
2D
100
AcDbMText
 10
-108.9165902215414
 20
20.30270211974168
 30
0.0
 40
0.08
 41
0.0
 46
0.0
 71
     5
 72
     1
  1
\A1;.050
  7
SIMPLEX
 73
     1
 44
1.0
  0
HATCH
  5
198
330
2
100
AcDbEntity
  8
2D
100
AcDbHatch
 10
0.0
 20
0.0
 30
0.0
210
0.0
220
0.0
230
1.0
  2
DOTS
 70
     0
 71
     0
 91
        2
 92
        1
 93
        2
 72
     2
 10
-109.2284949834505
 20
20.79488019635049
 40
0.0749999999999984
 50
90.0
 51
270.0
 73
     1
 72
     1
 10
-109.2284949834463
 20
20.71988019635049
 11
-109.2284949834466
 21
20.86988019635048
 97
        0
 92
        1
 93
        2
 72
     2
 10
-109.6784949834523
 20
20.79488019635049
 40
0.0749999999999984
 50
270.0
 51
450.0
 73
     1
 72
     1
 10
-109.6784949834485
 20
20.86988019635049
 11
-109.6784949834485
 21
20.7198801963505
 97
        0
 75
     0
 76
     1
 52
0.0
 41
0.5
 77
     0
 78
     1
 53
0.0
 43
-108.7765878827282
 44
21.81540602400421
 45
0.015625
 46
0.03125
 79
     2
 49
0.0
 49
-0.03125
 98
        1
 10
-108.7765878827282
 20
21.81540602400421
1001
ACAD
1010
0.0
1020
0.0
1030
0.0
  0
SOLID
  5
199
330
2
100
AcDbEntity
  8
2D
100
AcDbTrace
 10
-109.5401378895258
 20
20.86118145207674
 30
0.0
 11
-109.6058974006685
 21
20.81371078247905
 31
0.0
 12
-109.5590883505383
 22
20.87994287895558
 32
0.0
 13
-109.5590883505383
 23
20.87994287895558
 33
0.0
1001
ACAD
1000
DSTYLE
1002
{
1070
   147
1040
0.03
1070
    77
1070
     0
1002
}
  0
LWPOLYLINE
  5
19A
330
2
100
AcDbEntity
  8
2D
100
AcDbPolyline
 90
        3
 70
     0
 43
0.0
 10
-109.549613120032
 20
20.87056216551616
 10
-108.9228130172979
 20
21.50367770550803
 10
-108.8428130172979
 20
21.50367770550803
1001
ACAD
1000
DSTYLE
1002
{
1070
   147
1040
0.03
1070
    77
1070
     0
1002
}
  0
MTEXT
  5
19B
330
2
100
AcDbEntity
  8
2D
100
AcDbMText
 10
-108.8128130172979
 20
21.54367770550802
 30
0.0
 40
0.08
 41
0.0
 46
0.0
 71
     1
 72
     1
  1
R.050, DEPTH : .100
  7
SIMPLEX
 73
     1
 44
1.0
1001
ACAD
1000
ACAD_MTEXT_DEFINED_HEIGHT_BEGIN
1070
    46
1040
0.0
1000
ACAD_MTEXT_DEFINED_HEIGHT_END
  0
MTEXT
  5
19C
330
2
100
AcDbEntity
  8
2D
100
AcDbMText
 10
-112.3252457408841
 20
18.70919894654462
 30
0.0000000000000002
 40
0.0799999981538492
 41
0.0
 46
0.0
 71
     5
 72
     1
  1
HALF ETCH ON TOP SURFACE
  7
SIMPLEX
 73
     1
 44
1.0
1001
ACAD
1000
ACAD_MTEXT_DEFINED_HEIGHT_BEGIN
1070
    46
1040
0.0
1000
ACAD_MTEXT_DEFINED_HEIGHT_END
  0
HATCH
  5
19D
330
2
100
AcDbEntity
  8
2D
100
AcDbHatch
 10
0.0
 20
0.0
 30
0.0
210
0.0
220
0.0
230
1.0
  2
DOTS
 70
     0
 71
     1
 91
        1
 92
        1
 93
        4
 72
     1
 10
-113.4032475894204
 20
18.57063124292194
 11
-113.4032475894204
 21
18.80389577695637
 72
     1
 10
-113.4032475894204
 20
18.80389577695637
 11
-113.6365121234549
 21
18.80389577695637
 72
     1
 10
-113.6365121234549
 20
18.80389577695637
 11
-113.6365121234548
 21
18.57063124292194
 72
     1
 10
-113.6365121234548
 20
18.57063124292194
 11
-113.4032475894204
 21
18.57063124292194
 97
        1
330
19E
 75
     0
 76
     1
 52
0.0
 41
0.5
 77
     0
 78
     1
 53
0.0
 43
-111.3877612345234
 44
21.81540602400421
 45
0.015625
 46
0.03125
 79
     2
 49
0.0
 49
-0.03125
 98
        1
 10
-111.3877612345234
 20
21.81540602400421
1001
ACAD
1010
0.0
1020
0.0
1030
0.0
  0
LWPOLYLINE
  5
19E
102
{ACAD_REACTORS
330
19D
102
}
330
2
100
AcDbEntity
  8
2
100
AcDbPolyline
 90
        4
 70
     1
 43
0.0
 10
-113.4032475894204
 20
18.57063124292194
 10
-113.4032475894204
 20
18.80389577695637
 10
-113.6365121234549
 20
18.80389577695637
 10
-113.6365121234548
 20
18.57063124292194
  0
ENDSEC
  0
SECTION
  2
OBJECTS
  0
DICTIONARY
  5
C
330
0
100
AcDbDictionary
281
     1
  3
ACAD_COLOR
350
46
  3
ACAD_GROUP
350
33
  3
ACAD_LAYOUT
350
12
  3
ACAD_MATERIAL
350
E
  3
ACAD_MLEADERSTYLE
350
49
  3
ACAD_MLINESTYLE
350
34
  3
ACAD_PLOTSETTINGS
350
35
  3
ACAD_PLOTSTYLENAME
350
B
  3
ACAD_SCALELIST
350
47
  3
ACAD_TABLESTYLE
350
48
  3
ACAD_VISUALSTYLE
350
2B
  3
ACDB_RECOMPOSE_DATA
350
1A2
  3
AcDbVariableDictionary
350
4A
  0
DICTIONARY
  5
1B
330
1A
100
AcDbDictionary
280
     1
281
     1
  3
ACAD_LAYERFILTERS
360
1C
  3
ACAD_LAYERSTATES
360
1D
  3
ACLYDICTIONARY
360
1E
  0
DICTIONARY
  5
8
330
7
100
AcDbDictionary
280
     1
281
     1
  3
ADSK_XREC_LAYER_RECONCILED
360
9
  0
DICTIONARY
  5
58
330
57
100
AcDbDictionary
280
     1
281
     1
  3
ADSK_XREC_LAYER_RECONCILED
360
59
  0
DICTIONARY
  5
89
330
88
100
AcDbDictionary
280
     1
281
     1
  3
ADSK_XREC_LAYER_RECONCILED
360
8A
  0
DICTIONARY
  5
3
330
2
100
AcDbDictionary
280
     1
281
     1
  3
ACAD_LAYOUTSELFREF
360
4
  3
ACAD_SORTENTS
360
19F
  0
DICTIONARY
  5
15
330
14
100
AcDbDictionary
280
     1
281
     1
  3
ACAD_LAYOUTSELFREF
360
16
  0
DICTIONARY
  5
46
102
{ACAD_REACTORS
330
C
102
}
330
C
100
AcDbDictionary
281
     1
  0
DICTIONARY
  5
33
102
{ACAD_REACTORS
330
C
102
}
330
C
100
AcDbDictionary
281
     1
  0
DICTIONARY
  5
12
102
{ACAD_REACTORS
330
C
102
}
330
C
100
AcDbDictionary
281
     1
  3
Layout1
350
19
  3
Model
350
11
  0
DICTIONARY
  5
E
102
{ACAD_REACTORS
330
C
102
}
330
C
100
AcDbDictionary
281
     1
  3
ByBlock
350
3E
  3
ByLayer
350
36
  3
Global
350
D
  0
DICTIONARY
  5
49
102
{ACAD_REACTORS
330
C
102
}
330
C
100
AcDbDictionary
281
     1
  0
DICTIONARY
  5
34
102
{ACAD_REACTORS
330
C
102
}
330
C
100
AcDbDictionary
281
     1
  3
Standard
350
5A
  0
DICTIONARY
  5
35
102
{ACAD_REACTORS
330
C
102
}
330
C
100
AcDbDictionary
281
     1
  0
ACDBDICTIONARYWDFLT
  5
B
102
{ACAD_REACTORS
330
C
102
}
330
C
100
AcDbDictionary
281
     1
  3
Normal
350
A
100
AcDbDictionaryWithDefault
340
A
  0
DICTIONARY
  5
47
102
{ACAD_REACTORS
330
C
102
}
330
C
100
AcDbDictionary
281
     1
  3
A0
350
5F
  3
A1
350
60
  3
A2
350
61
  3
A3
350
62
  3
A4
350
63
  3
A5
350
64
  3
A6
350
65
  3
A7
350
66
  3
A8
350
67
  3
A9
350
68
  3
B0
350
69
  3
B1
350
6A
  3
B2
350
6B
  3
B3
350
6C
  3
B4
350
6D
  3
B5
350
6E
  3
B6
350
6F
  0
DICTIONARY
  5
48
102
{ACAD_REACTORS
330
C
102
}
330
C
100
AcDbDictionary
281
     1
  3
Standard
350
5B
  0
DICTIONARY
  5
2B
102
{ACAD_REACTORS
330
C
102
}
330
C
100
AcDbDictionary
281
     1
  3
2dWireframe
350
2A
  3
EdgeColorOff
350
94
  3
Realistic
350
5D
  3
Wireframe
350
5E
  0
XRECORD
  5
1A2
102
{ACAD_REACTORS
330
C
102
}
330
C
100
AcDbXrecord
280
     1
 90
        1
330
5B
  0
DICTIONARY
  5
4A
102
{ACAD_REACTORS
330
C
102
}
330
C
100
AcDbDictionary
281
     1
  3
CANNOSCALE
350
4B
  3
CMLEADERSTYLE
350
4C
  3
CTABLESTYLE
350
4D
  3
CVIEWDETAILSTYLE
350
4E
  3
CVIEWSECTIONSTYLE
350
4F
  3
DIMASSOC
350
50
  3
HIDETEXT
350
51
  3
LAYEREVAL
350
52
  3
LAYERNOTIFY
350
53
  3
LIGHTINGUNITS
350
54
  3
MSLTSCALE
350
55
  3
PROJECTNAME
350
56
  0
DICTIONARY
  5
1C
102
{ACAD_REACTORS
330
1B
102
}
330
1B
100
AcDbDictionary
281
     1
  0
DICTIONARY
  5
1D
102
{ACAD_REACTORS
330
1B
102
}
330
1B
100
AcDbDictionary
281
     1
  0
DICTIONARY
  5
1E
102
{ACAD_REACTORS
330
1B
102
}
330
1B
100
AcDbDictionary
281
     1
1001
ACAD
1000
<All
  0
XRECORD
  5
9
102
{ACAD_REACTORS
330
8
102
}
330
8
100
AcDbXrecord
280
     1
290
     1
  0
XRECORD
  5
59
102
{ACAD_REACTORS
330
58
102
}
330
58
100
AcDbXrecord
280
     1
290
     1
  0
XRECORD
  5
8A
102
{ACAD_REACTORS
330
89
102
}
330
89
100
AcDbXrecord
280
     1
290
     1
  0
XRECORD
  5
4
102
{ACAD_REACTORS
330
3
102
}
330
3
100
AcDbXrecord
280
     1
340
2
  0
SORTENTSTABLE
  5
19F
102
{ACAD_REACTORS
330
3
102
}
330
3
100
AcDbSortentsTable
330
2
  0
XRECORD
  5
16
102
{ACAD_REACTORS
330
15
102
}
330
15
100
AcDbXrecord
280
     1
340
14
  0
LAYOUT
  5
19
102
{ACAD_REACTORS
330
12
102
}
330
12
100
AcDbPlotSettings
  1

  2
\\ATS1\4FMIS_HP2100TN2
  4

  6

 40
0.0
 41
0.0
 42
0.0
 43
0.0
 44
0.0
 45
0.0
 46
0.0
 47
0.0
 48
0.0
 49
0.0
140
0.0
141
0.0
142
1.0
143
1.0
 70
   688
 72
     0
 73
     0
 74
     5
  7
monochrome.ctb
 75
    16
147
1.0
 76
     0
 77
     2
 78
   300
148
0.0
149
0.0
100
AcDbLayout
  1
Layout1
 70
     0
 71
     1
 10
0.0
 20
0.0
 11
12.0
 21
9.0
 12
172.0339424788132
 22
50.0
 32
37.26594377789137
 14
1.000000000000000E+20
 24
1.000000000000000E+20
 34
1.000000000000000E+20
 15
-1.000000000000000E+20
 25
-1.000000000000000E+20
 35
-1.000000000000000E+20
146
0.0
 13
0.0
 23
0.0
 33
0.0
 16
1.0
 26
0.0
 36
0.0
 17
0.0
 27
1.0
 37
0.0
 76
     0
330
14
  0
LAYOUT
  5
11
102
{ACAD_REACTORS
330
12
102
}
330
12
100
AcDbPlotSettings
  1

  2
\\atsnts34\TJ04
  4
A4
  6

 40
4.233333110809326
 41
4.233341693878172
 42
4.233322143554686
 43
4.23333740234375
 44
209.9733276367186
 45
296.9259948730469
 46
0.0
 47
110.1609822088037
 48
300.1503561464607
 49
-89.43836759052279
140
307.5184937904082
141
-86.94690972675482
142
1.0
143
0.0365652291154243
 70
 11956
 72
     1
 73
     0
 74
     4
  7
monochrome.ctb
 75
     0
147
27.34838599925992
 76
     0
 77
     2
 78
   300
148
-300.1503561464607
149
89.43836759052279
100
AcDbLayout
  1
Model
 70
     1
 71
     0
 10
0.0
 20
0.0
 11
12.0
 21
9.0
 12
0.0
 22
0.0
 32
0.0
 14
0.0
 24
0.0
 34
0.0
 15
0.0
 25
0.0
 35
0.0
146
0.0
 13
0.0
 23
0.0
 33
0.0
 16
1.0
 26
0.0
 36
0.0
 17
0.0
 27
1.0
 37
0.0
 76
     0
330
2
331
29
1001
ACAD_PSEXT
1000
\\atsnts34\TJ04
1000
HP LaserJet 5100 PCL 6
1000
2f_CAD Rm
1000
10.8.12.60
1070
     0
  0
MATERIAL
  5
3E
102
{ACAD_XDICTIONARY
360
3F
102
}
102
{ACAD_REACTORS
330
E
102
}
330
E
100
AcDbMaterial
  1
ByBlock
 72
     0
 43
0.0208333333333333
 43
0.0
 43
0.0
 43
0.0
 43
0.0
 43
0.0208333333333333
 43
0.0
 43
0.0
 43
0.0
 43
0.0
 43
1.0
 43
0.0
 43
0.0
 43
0.0
 43
0.0
 43
1.0
 77
     0
 47
0.0208333333333333
 47
0.0
 47
0.0
 47
0.0
 47
0.0
 47
0.0208333333333333
 47
0.0
 47
0.0
 47
0.0
 47
0.0
 47
1.0
 47
0.0
 47
0.0
 47
0.0
 47
0.0
 47
1.0
171
     0
 49
0.0208333333333333
 49
0.0
 49
0.0
 49
0.0
 49
0.0
 49
0.0208333333333333
 49
0.0
 49
0.0
 49
0.0
 49
0.0
 49
1.0
 49
0.0
 49
0.0
 49
0.0
 49
0.0
 49
1.0
175
     0
142
0.0208333333333333
142
0.0
142
0.0
142
0.0
142
0.0
142
0.0208333333333333
142
0.0
142
0.0
142
0.0
142
0.0
142
1.0
142
0.0
142
0.0
142
0.0
142
0.0
142
1.0
179
     0
144
0.0208333333333333
144
0.0
144
0.0
144
0.0
144
0.0
144
0.0208333333333333
144
0.0
144
0.0
144
0.0
144
0.0
144
1.0
144
0.0
144
0.0
144
0.0
144
0.0
144
1.0
147
0.0208333333333333
147
0.0
147
0.0
147
0.0
147
0.0
147
0.0208333333333333
147
0.0
147
0.0
147
0.0
147
0.0
147
1.0
147
0.0
147
0.0
147
0.0
147
0.0
147
1.0
  0
MATERIAL
  5
36
102
{ACAD_XDICTIONARY
360
37
102
}
102
{ACAD_REACTORS
330
E
102
}
330
E
100
AcDbMaterial
  1
ByLayer
 72
     0
 43
0.0208333333333333
 43
0.0
 43
0.0
 43
0.0
 43
0.0
 43
0.0208333333333333
 43
0.0
 43
0.0
 43
0.0
 43
0.0
 43
1.0
 43
0.0
 43
0.0
 43
0.0
 43
0.0
 43
1.0
 77
     0
 47
0.0208333333333333
 47
0.0
 47
0.0
 47
0.0
 47
0.0
 47
0.0208333333333333
 47
0.0
 47
0.0
 47
0.0
 47
0.0
 47
1.0
 47
0.0
 47
0.0
 47
0.0
 47
0.0
 47
1.0
171
     0
 49
0.0208333333333333
 49
0.0
 49
0.0
 49
0.0
 49
0.0
 49
0.0208333333333333
 49
0.0
 49
0.0
 49
0.0
 49
0.0
 49
1.0
 49
0.0
 49
0.0
 49
0.0
 49
0.0
 49
1.0
175
     0
142
0.0208333333333333
142
0.0
142
0.0
142
0.0
142
0.0
142
0.0208333333333333
142
0.0
142
0.0
142
0.0
142
0.0
142
1.0
142
0.0
142
0.0
142
0.0
142
0.0
142
1.0
179
     0
144
0.0208333333333333
144
0.0
144
0.0
144
0.0
144
0.0
144
0.0208333333333333
144
0.0
144
0.0
144
0.0
144
0.0
144
1.0
144
0.0
144
0.0
144
0.0
144
0.0
144
1.0
147
0.0208333333333333
147
0.0
147
0.0
147
0.0
147
0.0
147
0.0208333333333333
147
0.0
147
0.0
147
0.0
147
0.0
147
1.0
147
0.0
147
0.0
147
0.0
147
0.0
147
1.0
  0
MATERIAL
  5
D
102
{ACAD_REACTORS
330
E
102
}
330
E
100
AcDbMaterial
  1
GLOBAL
 73
     1
 78
     1
172
     1
176
     1
270
     1
274
     1
 94
       63
  0
MLINESTYLE
  5
5A
102
{ACAD_REACTORS
330
34
102
}
330
34
100
AcDbMlineStyle
  2
STANDARD
 70
     0
  3

 62
   256
 51
90.0
 52
90.0
 71
     2
 49
0.5
 62
   256
  6
BYLAYER
 49
-0.5
 62
   256
  6
BYLAYER
  0
ACDBPLACEHOLDER
  5
A
102
{ACAD_REACTORS
330
B
102
}
330
B
  0
SCALE
  5
5F
102
{ACAD_REACTORS
330
47
102
}
330
47
100
AcDbScale
 70
     0
300
1:1
140
1.0
141
1.0
290
     1
  0
SCALE
  5
60
102
{ACAD_REACTORS
330
47
102
}
330
47
100
AcDbScale
 70
     0
300
1/128" = 1'-0"
140
0.0078125
141
12.0
290
     0
  0
SCALE
  5
61
102
{ACAD_REACTORS
330
47
102
}
330
47
100
AcDbScale
 70
     0
300
1/64" = 1'-0"
140
0.015625
141
12.0
290
     0
  0
SCALE
  5
62
102
{ACAD_REACTORS
330
47
102
}
330
47
100
AcDbScale
 70
     0
300
1/32" = 1'-0"
140
0.03125
141
12.0
290
     0
  0
SCALE
  5
63
102
{ACAD_REACTORS
330
47
102
}
330
47
100
AcDbScale
 70
     0
300
1/16" = 1'-0"
140
0.0625
141
12.0
290
     0
  0
SCALE
  5
64
102
{ACAD_REACTORS
330
47
102
}
330
47
100
AcDbScale
 70
     0
300
3/32" = 1'-0"
140
0.09375
141
12.0
290
     0
  0
SCALE
  5
65
102
{ACAD_REACTORS
330
47
102
}
330
47
100
AcDbScale
 70
     0
300
1/8" = 1'-0"
140
0.125
141
12.0
290
     0
  0
SCALE
  5
66
102
{ACAD_REACTORS
330
47
102
}
330
47
100
AcDbScale
 70
     0
300
3/16" = 1'-0"
140
0.1875
141
12.0
290
     0
  0
SCALE
  5
67
102
{ACAD_REACTORS
330
47
102
}
330
47
100
AcDbScale
 70
     0
300
1/4" = 1'-0"
140
0.25
141
12.0
290
     0
  0
SCALE
  5
68
102
{ACAD_REACTORS
330
47
102
}
330
47
100
AcDbScale
 70
     0
300
3/8" = 1'-0"
140
0.375
141
12.0
290
     0
  0
SCALE
  5
69
102
{ACAD_REACTORS
330
47
102
}
330
47
100
AcDbScale
 70
     0
300
1/2" = 1'-0"
140
0.5
141
12.0
290
     0
  0
SCALE
  5
6A
102
{ACAD_REACTORS
330
47
102
}
330
47
100
AcDbScale
 70
     0
300
3/4" = 1'-0"
140
0.75
141
12.0
290
     0
  0
SCALE
  5
6B
102
{ACAD_REACTORS
330
47
102
}
330
47
100
AcDbScale
 70
     0
300
1" = 1'-0"
140
1.0
141
12.0
290
     0
  0
SCALE
  5
6C
102
{ACAD_REACTORS
330
47
102
}
330
47
100
AcDbScale
 70
     0
300
1-1/2" = 1'-0"
140
1.5
141
12.0
290
     0
  0
SCALE
  5
6D
102
{ACAD_REACTORS
330
47
102
}
330
47
100
AcDbScale
 70
     0
300
3" = 1'-0"
140
3.0
141
12.0
290
     0
  0
SCALE
  5
6E
102
{ACAD_REACTORS
330
47
102
}
330
47
100
AcDbScale
 70
     0
300
6" = 1'-0"
140
6.0
141
12.0
290
     0
  0
SCALE
  5
6F
102
{ACAD_REACTORS
330
47
102
}
330
47
100
AcDbScale
 70
     0
300
1'-0" = 1'-0"
140
12.0
141
12.0
290
     0
  0
TABLESTYLE
  5
5B
102
{ACAD_XDICTIONARY
360
5C
102
}
102
{ACAD_REACTORS
330
48
102
}
330
48
100
AcDbTableStyle
280
     0
  3
Standard
 70
     0
 71
     0
 40
0.06
 41
0.06
280
     0
281
     0
  7
STANDARD
140
0.18
170
     2
 62
     0
 63
     7
283
     0
 90
        4
 91
        0
  1

274
    -2
284
     1
 64
     0
275
    -2
285
     1
 65
     0
276
    -2
286
     1
 66
     0
277
    -2
287
     1
 67
     0
278
    -2
288
     1
 68
     0
279
    -2
289
     1
 69
     0
  7
STANDARD
140
0.25
170
     5
 62
     0
 63
     7
283
     0
 90
        4
 91
        0
  1

274
    -2
284
     1
 64
     0
275
    -2
285
     1
 65
     0
276
    -2
286
     1
 66
     0
277
    -2
287
     1
 67
     0
278
    -2
288
     1
 68
     0
279
    -2
289
     1
 69
     0
  7
STANDARD
140
0.18
170
     5
 62
     0
 63
     7
283
     0
 90
        4
 91
        0
  1

274
    -2
284
     1
 64
     0
275
    -2
285
     1
 65
     0
276
    -2
286
     1
 66
     0
277
    -2
287
     1
 67
     0
278
    -2
288
     1
 68
     0
279
    -2
289
     1
 69
     0
  0
VISUALSTYLE
  5
2A
102
{ACAD_REACTORS
330
2B
102
}
330
2B
100
AcDbVisualStyle
  2
2dWireframe
 70
     4
177
     3
291
     0
 70
    58
 90
        0
176
     1
 90
        2
176
     1
 90
        0
176
     1
 90
        0
176
     1
 40
0.6
176
     1
 40
30.0
176
     1
 62
     7
420
 16777215
176
     1
 90
        1
176
     1
 90
        4
176
     1
 62
     7
176
     1
 62
   257
176
     1
 90
        1
176
     1
 90
        1
176
     1
 40
1.0
176
     1
 90
        0
176
     1
 62
   257
176
     1
 40
1.0
176
     1
 90
        1
176
     1
 90
        6
176
     1
 90
        2
176
     1
 62
     7
176
     1
 90
        5
176
     1
 90
        0
176
     1
 90
        0
176
     1
290
     0
176
     1
 90
        1
176
     1
 40
0.0
176
     1
 90
        0
176
     1
290
     1
176
     1
290
     1
176
     1
290
     0
176
     1
290
     0
176
     1
290
     0
176
     1
290
     0
176
     1
290
     0
176
     1
290
     0
176
     1
290
     0
176
     1
 90
       50
176
     1
 40
0.0
176
     1
 40
1.0
176
     1
 90
        0
176
     1
 62
    18
176
     1
 90
       50
176
     1
 90
        3
176
     1
 62
     5
420
      255
176
     1
290
     0
176
     1
 90
       50
176
     1
 90
       50
176
     1
 90
       50
176
     1
290
     0
176
     1
 90
       50
176
     1
 62
   256
176
     0
 40
1.0
176
     0
 90
        2
176
     1
  1
strokes_ogs.tif
176
     1
290
     0
176
     1
 40
1.0
176
     1
 40
1.0
176
     1
  0
VISUALSTYLE
  5
94
102
{ACAD_REACTORS
330
2B
102
}
330
2B
100
AcDbVisualStyle
  2
EdgeColorOff
 70
    22
177
     3
291
     1
 70
    58
 90
        2
176
     0
 90
        2
176
     0
 90
        0
176
     0
 90
        0
176
     0
 40
0.6
176
     0
 40
30.0
176
     0
 62
     7
420
 16777215
176
     0
 90
        1
176
     0
 90
        4
176
     0
 62
     7
176
     0
 62
   257
176
     0
 90
        1
176
     0
 90
        1
176
     0
 40
1.0
176
     0
 90
        8
176
     2
 62
     7
176
     0
 40
1.0
176
     0
 90
        1
176
     0
 90
        6
176
     0
 90
        2
176
     0
 62
     7
176
     0
 90
        5
176
     0
 90
        0
176
     0
 90
        0
176
     0
290
     0
176
     0
 90
        1
176
     0
 40
0.0
176
     0
 90
        0
176
     0
290
     0
176
     0
290
     1
176
     0
290
     1
176
     0
290
     0
176
     0
290
     0
176
     0
290
     0
176
     0
290
     0
176
     0
290
     0
176
     0
290
     0
176
     0
 90
       50
176
     0
 40
0.0
176
     0
 40
1.0
176
     0
 90
        0
176
     0
 62
    18
176
     0
 90
       50
176
     0
 90
        3
176
     0
 62
     5
420
      255
176
     0
290
     0
176
     0
 90
       50
176
     0
 90
       50
176
     0
 90
       50
176
     0
290
     0
176
     0
 90
       50
176
     0
 62
   256
176
     0
 40
1.0
176
     0
 90
        2
176
     0
  1
strokes_ogs.tif
176
     0
290
     0
176
     0
 40
1.0
176
     0
 40
1.0
176
     0
  0
VISUALSTYLE
  5
5D
102
{ACAD_REACTORS
330
2B
102
}
330
2B
100
AcDbVisualStyle
  2
Realistic
 70
     8
177
     3
291
     0
 70
    58
 90
        2
176
     1
 90
        3
176
     1
 90
        0
176
     1
 90
        2
176
     1
 40
0.6
176
     1
 40
30.0
176
     1
 62
     7
420
 16777215
176
     1
 90
        0
176
     1
 90
        0
176
     1
 62
     7
176
     1
 62
   257
176
     1
 90
        1
176
     1
 90
        1
176
     1
 40
1.0
176
     1
 90
        8
176
     1
 62
   257
176
     1
 40
1.0
176
     1
 90
        1
176
     1
 90
        6
176
     1
 90
        2
176
     1
 62
     7
176
     1
 90
        3
176
     1
 90
        0
176
     1
 90
        0
176
     1
290
     0
176
     1
 90
       13
176
     1
 40
0.0
176
     1
 90
        0
176
     1
290
     0
176
     1
290
     1
176
     1
290
     1
176
     1
290
     0
176
     1
290
     0
176
     1
290
     0
176
     1
290
     0
176
     1
290
     0
176
     1
290
     0
176
     1
 90
       50
176
     1
 40
0.0
176
     1
 40
1.0
176
     1
 90
        0
176
     1
 62
    18
176
     1
 90
       50
176
     1
 90
        3
176
     1
 62
     5
420
      255
176
     1
290
     0
176
     1
 90
       50
176
     1
 90
       50
176
     1
 90
       50
176
     1
290
     0
176
     1
 90
       50
176
     1
 62
   256
176
     0
 40
1.0
176
     0
 90
        2
176
     1
  1
strokes_ogs.tif
176
     1
290
     0
176
     1
 40
1.0
176
     1
 40
1.0
176
     1
  0
VISUALSTYLE
  5
5E
102
{ACAD_REACTORS
330
2B
102
}
330
2B
100
AcDbVisualStyle
  2
Wireframe
 70
     5
177
     3
291
     0
 70
    58
 90
        0
176
     1
 90
        2
176
     1
 90
        0
176
     1
 90
        0
176
     1
 40
0.6
176
     1
 40
30.0
176
     1
 62
     7
420
 16777215
176
     1
 90
        1
176
     1
 90
        4
176
     1
 62
     7
176
     1
 62
   257
176
     1
 90
        1
176
     1
 90
        1
176
     1
 40
1.0
176
     1
 90
        0
176
     1
 62
   257
176
     1
 40
1.0
176
     1
 90
        1
176
     1
 90
        6
176
     1
 90
        2
176
     1
 62
     7
176
     1
 90
        3
176
     1
 90
        0
176
     1
 90
        0
176
     1
290
     0
176
     1
 90
        1
176
     1
 40
0.0
176
     1
 90
        0
176
     1
290
     0
176
     1
290
     1
176
     1
290
     1
176
     1
290
     0
176
     1
290
     0
176
     1
290
     0
176
     1
290
     0
176
     1
290
     0
176
     1
290
     0
176
     1
 90
       50
176
     1
 40
0.0
176
     1
 40
1.0
176
     1
 90
        0
176
     1
 62
    18
176
     1
 90
       50
176
     1
 90
        3
176
     1
 62
     5
420
      255
176
     1
290
     0
176
     1
 90
       50
176
     1
 90
       50
176
     1
 90
       50
176
     1
290
     0
176
     1
 90
       50
176
     1
 62
   256
176
     0
 40
1.0
176
     0
 90
        2
176
     1
  1
strokes_ogs.tif
176
     1
290
     0
176
     1
 40
1.0
176
     1
 40
1.0
176
     1
  0
DICTIONARYVAR
  5
4B
102
{ACAD_REACTORS
330
4A
102
}
330
4A
100
DictionaryVariables
280
     0
  1
1:1
  0
DICTIONARYVAR
  5
4C
102
{ACAD_REACTORS
330
4A
102
}
330
4A
100
DictionaryVariables
280
     0
  1
STANDARD
  0
DICTIONARYVAR
  5
4D
102
{ACAD_REACTORS
330
4A
102
}
330
4A
100
DictionaryVariables
280
     0
  1
STANDARD
  0
DICTIONARYVAR
  5
4E
102
{ACAD_REACTORS
330
4A
102
}
330
4A
100
DictionaryVariables
280
     0
  1

  0
DICTIONARYVAR
  5
4F
102
{ACAD_REACTORS
330
4A
102
}
330
4A
100
DictionaryVariables
280
     0
  1

  0
DICTIONARYVAR
  5
50
102
{ACAD_REACTORS
330
4A
102
}
330
4A
100
DictionaryVariables
280
     0
  1
0
  0
DICTIONARYVAR
  5
51
102
{ACAD_REACTORS
330
4A
102
}
330
4A
100
DictionaryVariables
280
     0
  1
1
  0
DICTIONARYVAR
  5
52
102
{ACAD_REACTORS
330
4A
102
}
330
4A
100
DictionaryVariables
280
     0
  1
1
  0
DICTIONARYVAR
  5
53
102
{ACAD_REACTORS
330
4A
102
}
330
4A
100
DictionaryVariables
280
     0
  1
15
  0
DICTIONARYVAR
  5
54
102
{ACAD_REACTORS
330
4A
102
}
330
4A
100
DictionaryVariables
280
     0
  1
0
  0
DICTIONARYVAR
  5
55
102
{ACAD_REACTORS
330
4A
102
}
330
4A
100
DictionaryVariables
280
     0
  1
0
  0
DICTIONARYVAR
  5
56
102
{ACAD_REACTORS
330
4A
102
}
330
4A
100
DictionaryVariables
280
     0
  1

  0
DICTIONARY
  5
3F
330
3E
100
AcDbDictionary
280
     1
281
     1
  3
BUMPTILE
360
40
  3
DIFFUSETILE
360
41
  3
OPACITYTILE
360
42
  3
REFLECTIONTILE
360
43
  3
REFRACTIONTILE
360
44
  3
SPECULARTILE
360
45
  0
DICTIONARY
  5
37
330
36
100
AcDbDictionary
280
     1
281
     1
  3
BUMPTILE
360
38
  3
DIFFUSETILE
360
39
  3
OPACITYTILE
360
3A
  3
REFLECTIONTILE
360
3B
  3
REFRACTIONTILE
360
3C
  3
SPECULARTILE
360
3D
  0
DICTIONARY
  5
5C
330
5B
100
AcDbDictionary
280
     1
281
     1
  3
ACAD_ROUNDTRIP_2008_TABLESTYLE_CELLSTYLEMAP
360
1A1
  0
XRECORD
  5
40
102
{ACAD_REACTORS
330
3F
102
}
330
3F
100
AcDbXrecord
280
     1
270
     1
271
     1
  0
XRECORD
  5
41
102
{ACAD_REACTORS
330
3F
102
}
330
3F
100
AcDbXrecord
280
     1
270
     1
271
     1
  0
XRECORD
  5
42
102
{ACAD_REACTORS
330
3F
102
}
330
3F
100
AcDbXrecord
280
     1
270
     1
271
     1
  0
XRECORD
  5
43
102
{ACAD_REACTORS
330
3F
102
}
330
3F
100
AcDbXrecord
280
     1
270
     1
271
     1
  0
XRECORD
  5
44
102
{ACAD_REACTORS
330
3F
102
}
330
3F
100
AcDbXrecord
280
     1
270
     1
271
     1
  0
XRECORD
  5
45
102
{ACAD_REACTORS
330
3F
102
}
330
3F
100
AcDbXrecord
280
     1
270
     1
271
     1
  0
XRECORD
  5
38
102
{ACAD_REACTORS
330
37
102
}
330
37
100
AcDbXrecord
280
     1
270
     1
271
     1
  0
XRECORD
  5
39
102
{ACAD_REACTORS
330
37
102
}
330
37
100
AcDbXrecord
280
     1
270
     1
271
     1
  0
XRECORD
  5
3A
102
{ACAD_REACTORS
330
37
102
}
330
37
100
AcDbXrecord
280
     1
270
     1
271
     1
  0
XRECORD
  5
3B
102
{ACAD_REACTORS
330
37
102
}
330
37
100
AcDbXrecord
280
     1
270
     1
271
     1
  0
XRECORD
  5
3C
102
{ACAD_REACTORS
330
37
102
}
330
37
100
AcDbXrecord
280
     1
270
     1
271
     1
  0
XRECORD
  5
3D
102
{ACAD_REACTORS
330
37
102
}
330
37
100
AcDbXrecord
280
     1
270
     1
271
     1
  0
CELLSTYLEMAP
  5
1A1
102
{ACAD_REACTORS
330
5C
102
}
330
5C
100
AcDbCellStyleMap
 90
        3
300
CELLSTYLE
  1
TABLEFORMAT_BEGIN
 90
        5
170
     1
 91
        0
 92
    32768
 62
   257
 93
        1
300
CONTENTFORMAT
  1
CONTENTFORMAT_BEGIN
 90
        0
 91
        0
 92
        4
 93
        0
300

 40
0.0
140
1.0
 94
        5
 62
     0
340
21
144
0.25
309
CONTENTFORMAT_END
171
     1
301
MARGIN
  1
CELLMARGIN_BEGIN
 40
0.06
 40
0.06
 40
0.06
 40
0.06
 40
0.18
 40
0.18
309
CELLMARGIN_END
 94
        6
 95
        1
302
GRIDFORMAT
  1
GRIDFORMAT_BEGIN
 90
        0
 91
        1
 62
     0
 92
       -2
340
0
 93
        0
 40
0.045
309
GRIDFORMAT_END
 95
        2
302
GRIDFORMAT
  1
GRIDFORMAT_BEGIN
 90
        0
 91
        1
 62
     0
 92
       -2
340
0
 93
        0
 40
0.045
309
GRIDFORMAT_END
 95
        4
302
GRIDFORMAT
  1
GRIDFORMAT_BEGIN
 90
        0
 91
        1
 62
     0
 92
       -2
340
0
 93
        0
 40
0.045
309
GRIDFORMAT_END
 95
        8
302
GRIDFORMAT
  1
GRIDFORMAT_BEGIN
 90
        0
 91
        1
 62
     0
 92
       -2
340
0
 93
        0
 40
0.045
309
GRIDFORMAT_END
 95
       16
302
GRIDFORMAT
  1
GRIDFORMAT_BEGIN
 90
        0
 91
        1
 62
     0
 92
       -2
340
0
 93
        0
 40
0.045
309
GRIDFORMAT_END
 95
       32
302
GRIDFORMAT
  1
GRIDFORMAT_BEGIN
 90
        0
 91
        1
 62
     0
 92
       -2
340
0
 93
        0
 40
0.045
309
GRIDFORMAT_END
309
TABLEFORMAT_END
  1
CELLSTYLE_BEGIN
 90
        1
 91
        1
300
_TITLE
309
CELLSTYLE_END
300
CELLSTYLE
  1
TABLEFORMAT_BEGIN
 90
        5
170
     1
 91
        0
 92
        0
 62
   257
 93
        1
300
CONTENTFORMAT
  1
CONTENTFORMAT_BEGIN
 90
        0
 91
        0
 92
        4
 93
        0
300

 40
0.0
140
1.0
 94
        5
 62
     0
340
21
144
0.18
309
CONTENTFORMAT_END
171
     1
301
MARGIN
  1
CELLMARGIN_BEGIN
 40
0.06
 40
0.06
 40
0.06
 40
0.06
 40
0.18
 40
0.18
309
CELLMARGIN_END
 94
        6
 95
        1
302
GRIDFORMAT
  1
GRIDFORMAT_BEGIN
 90
        0
 91
        1
 62
     0
 92
       -2
340
0
 93
        0
 40
0.045
309
GRIDFORMAT_END
 95
        2
302
GRIDFORMAT
  1
GRIDFORMAT_BEGIN
 90
        0
 91
        1
 62
     0
 92
       -2
340
0
 93
        0
 40
0.045
309
GRIDFORMAT_END
 95
        4
302
GRIDFORMAT
  1
GRIDFORMAT_BEGIN
 90
        0
 91
        1
 62
     0
 92
       -2
340
0
 93
        0
 40
0.045
309
GRIDFORMAT_END
 95
        8
302
GRIDFORMAT
  1
GRIDFORMAT_BEGIN
 90
        0
 91
        1
 62
     0
 92
       -2
340
0
 93
        0
 40
0.045
309
GRIDFORMAT_END
 95
       16
302
GRIDFORMAT
  1
GRIDFORMAT_BEGIN
 90
        0
 91
        1
 62
     0
 92
       -2
340
0
 93
        0
 40
0.045
309
GRIDFORMAT_END
 95
       32
302
GRIDFORMAT
  1
GRIDFORMAT_BEGIN
 90
        0
 91
        1
 62
     0
 92
       -2
340
0
 93
        0
 40
0.045
309
GRIDFORMAT_END
309
TABLEFORMAT_END
  1
CELLSTYLE_BEGIN
 90
        2
 91
        1
300
_HEADER
309
CELLSTYLE_END
300
CELLSTYLE
  1
TABLEFORMAT_BEGIN
 90
        5
170
     1
 91
        0
 92
        0
 62
   257
 93
        1
300
CONTENTFORMAT
  1
CONTENTFORMAT_BEGIN
 90
        0
 91
        0
 92
        4
 93
        0
300

 40
0.0
140
1.0
 94
        2
 62
     0
340
21
144
0.18
309
CONTENTFORMAT_END
171
     1
301
MARGIN
  1
CELLMARGIN_BEGIN
 40
0.06
 40
0.06
 40
0.06
 40
0.06
 40
0.18
 40
0.18
309
CELLMARGIN_END
 94
        6
 95
        1
302
GRIDFORMAT
  1
GRIDFORMAT_BEGIN
 90
        0
 91
        1
 62
     0
 92
       -2
340
0
 93
        0
 40
0.045
309
GRIDFORMAT_END
 95
        2
302
GRIDFORMAT
  1
GRIDFORMAT_BEGIN
 90
        0
 91
        1
 62
     0
 92
       -2
340
0
 93
        0
 40
0.045
309
GRIDFORMAT_END
 95
        4
302
GRIDFORMAT
  1
GRIDFORMAT_BEGIN
 90
        0
 91
        1
 62
     0
 92
       -2
340
0
 93
        0
 40
0.045
309
GRIDFORMAT_END
 95
        8
302
GRIDFORMAT
  1
GRIDFORMAT_BEGIN
 90
        0
 91
        1
 62
     0
 92
       -2
340
0
 93
        0
 40
0.045
309
GRIDFORMAT_END
 95
       16
302
GRIDFORMAT
  1
GRIDFORMAT_BEGIN
 90
        0
 91
        1
 62
     0
 92
       -2
340
0
 93
        0
 40
0.045
309
GRIDFORMAT_END
 95
       32
302
GRIDFORMAT
  1
GRIDFORMAT_BEGIN
 90
        0
 91
        1
 62
     0
 92
       -2
340
0
 93
        0
 40
0.045
309
GRIDFORMAT_END
309
TABLEFORMAT_END
  1
CELLSTYLE_BEGIN
 90
        3
 91
        2
300
_DATA
309
CELLSTYLE_END
  0
ENDSEC
  0
SECTION
  2
ACDSDATA
 70
     2
 71
     8
  0
ACDSSCHEMA
 90
        0
  1
AcDb3DSolid_ASM_Data
  2
AcDbDs::ID
280
    10
 91
        8
  2
ASM_Data
280
    15
 91
        0
101
ACDSRECORD
 95
        0
 90
        1
  2
AcDbDs::TreatedAsObjectData
280
     1
291
     1
101
ACDSRECORD
 95
        0
 90
        2
  2
AcDbDs::Legacy
280
     1
291
     1
101
ACDSRECORD
  1
AcDbDs::ID
 90
        3
  2
AcDs:Indexable
280
     1
291
     1
101
ACDSRECORD
  1
AcDbDs::ID
 90
        4
  2
AcDbDs::HandleAttribute
280
     7
282
     1
  0
ACDSSCHEMA
 90
        1
  1
AcDbDs::TreatedAsObjectDataSchema
  2
AcDbDs::TreatedAsObjectData
280
     1
 91
        0
  0
ACDSSCHEMA
 90
        2
  1
AcDbDs::LegacySchema
  2
AcDbDs::Legacy
280
     1
 91
        0
  0
ACDSSCHEMA
 90
        3
  1
AcDbDs::IndexedPropertySchema
  2
AcDs:Indexable
280
     1
 91
        0
  0
ACDSSCHEMA
 90
        4
  1
AcDbDs::HandleAttributeSchema
  2
AcDbDs::HandleAttribute
280
     7
 91
        1
284
     1
  0
ACDSRECORD
 90
        0
  2
AcDbDs::ID
280
    10
320
90
  2
ASM_Data
280
    15
 94
     2481
310
41534D2042696E61727946696C65341C57000000000000020000000400000007104175746F6465736B204175746F434144071441534D203232392E322E302E3635353335204E540718547565204F63742032392032303A32383A31342032303234066666666666663940068DEDB5A0F7C6B03E06BBBDD7D9DF7CDB3D0D0961
310
736D6865616465720CFFFFFFFF04FFFFFFFF070D3232392E322E302E3635353335110D04626F64790CFFFFFFFF04FFFFFFFF0CFFFFFFFF0C020000000CFFFFFFFF0C03000000110D046C756D700CFFFFFFFF04FFFFFFFF0CFFFFFFFF0CFFFFFFFF0C040000000C01000000110D097472616E73666F726D0CFFFFFFFF04FFFF
310
FFFF14000000000000F03F00000000000000800000000000000000140000000000000000000000000000F03F00000000000000001400000000000000800000000000000000000000000000F03F1499EEA309D07F7DC05F0BD80DD64F05C0000000000000000006000000000000F03F0B0B0B110D057368656C6C0CFFFFFFFF
310
04FFFFFFFF0CFFFFFFFF0CFFFFFFFF0CFFFFFFFF0C050000000CFFFFFFFF0C02000000110D04666163650CFFFFFFFF04FFFFFFFF0CFFFFFFFF0CFFFFFFFF0C060000000C040000000CFFFFFFFF0C070000000B0A0B110D046C6F6F700CFFFFFFFF04FFFFFFFF0CFFFFFFFF0CFFFFFFFF0C080000000C05000000110E05706C
310
616E650D07737572666163650CFFFFFFFF04FFFFFFFF0CFFFFFFFF13973948C77BAC7640B026451020683A4000000000000000001400000000000000000000000000000000000000000000F03F14000000000000F03F000000000000000000000000000000000B0B0B0B0B110D06636F656467650CFFFFFFFF04FFFFFFFF0C
310
FFFFFFFF0C090000000C0A0000000CFFFFFFFF0C0B0000000B0C0600000004000000000CFFFFFFFF110D06636F656467650CFFFFFFFF04FFFFFFFF0CFFFFFFFF0C0C0000000C080000000CFFFFFFFF0C0D0000000B0C0600000004000000000CFFFFFFFF110D06636F656467650CFFFFFFFF04FFFFFFFF0CFFFFFFFF0C0800
310
00000C0E0000000CFFFFFFFF0C0F0000000B0C0600000004000000000CFFFFFFFF110D04656467650CFFFFFFFF04FFFFFFFF0CFFFFFFFF0C100000000600000000000000000C11000000060020DBF97E6AF23F0C080000000C120000000B0707756E6B6E6F776E110D06636F656467650CFFFFFFFF04FFFFFFFF0CFFFFFFFF
310
0C130000000C090000000CFFFFFFFF0C140000000B0C0600000004000000000CFFFFFFFF110D04656467650CFFFFFFFF04FFFFFFFF0CFFFFFFFF0C110000000600000000000000000C1500000006002833333333D33F0C090000000C160000000B0707756E6B6E6F776E110D06636F656467650CFFFFFFFF04FFFFFFFF0CFF
310
FFFFFF0C0A0000000C130000000CFFFFFFFF0C170000000B0C0600000004000000000CFFFFFFFF110D04656467650CFFFFFFFF04FFFFFFFF0CFFFFFFFF0C1800000006182D4454FB2109C00C100000000600000000000000000C0A0000000C190000000B0707756E6B6E6F776E110D067665727465780CFFFFFFFF04FFFFFF
310
FF0CFFFFFFFF0C0B00000004020000000C1A000000110D067665727465780CFFFFFFFF04FFFFFFFF0CFFFFFFFF0C0B00000004020000000C1B000000110E0873747261696768740D0563757276650CFFFFFFFF04FFFFFFFF0CFFFFFFFF13712DCC85B6BF764064DE0FE0A7453A40000000000000000014000000000000F03F
310
000000000000000000000000000000000B0B110D06636F656467650CFFFFFFFF04FFFFFFFF0CFFFFFFFF0C0E0000000C0C0000000CFFFFFFFF0C1C0000000B0C0600000004000000000CFFFFFFFF110D04656467650CFFFFFFFF04FFFFFFFF0CFFFFFFFF0C150000000600000000000000000C1D0000000680D6A3703D0A13
310
400C0C0000000C1E0000000B0707756E6B6E6F776E110D067665727465780CFFFFFFFF04FFFFFFFF0CFFFFFFFF0C0D00000004020000000C1F000000110E0873747261696768740D0563757276650CFFFFFFFF04FFFFFFFF0CFFFFFFFF139108C60421D2764064DE0FE0A7453A400000000000000000140000000000000000
310
000000000000F03F00000000000000000B0B110D04656467650CFFFFFFFF04FFFFFFFF0CFFFFFFFF0C200000000600000000000000000C1800000006002B8716D9CE08400C0E0000000C210000000B0707756E6B6E6F776E110D067665727465780CFFFFFFFF04FFFFFFFF0CFFFFFFFF0C1700000004020000000C22000000
310
110E07656C6C697073650D0563757276650CFFFFFFFF04FFFFFFFF0CFFFFFFFF137F5A7E23A6BB764064DE0FE0A7453A4000000000000000001400000000000000000000000000000000000000000000F03F1400C84B378941D03F0000000000000000000000000000000006000000000000F03F0B0B110D05706F696E740C
310
FFFFFFFF04FFFFFFFF0CFFFFFFFF13712DCC85B6BF764064DE0FE0A7453A400000000000000000110D05706F696E740CFFFFFFFF04FFFFFFFF0CFFFFFFFF139108C60421D2764064DE0FE0A7453A400000000000000000110D04656467650CFFFFFFFF04FFFFFFFF0CFFFFFFFF0C1D0000000600000000000000000C200000
310
0006003033333333D33F0C130000000C230000000B0707756E6B6E6F776E110D067665727465780CFFFFFFFF04FFFFFFFF0CFFFFFFFF0C1400000004020000000C24000000110E0873747261696768740D0563757276650CFFFFFFFF04FFFFFFFF0CFFFFFFFF139108C60421D2764004ABDCAC74923A400000000000000000
310
14000000000000F0BF5E09E49A08E41A3D00000000000000000B0B110D05706F696E740CFFFFFFFF04FFFFFFFF0CFFFFFFFF139108C60421D2764004ABDCAC74923A400000000000000000110D067665727465780CFFFFFFFF04FFFFFFFF0CFFFFFFFF0C1C00000004020000000C25000000110E0873747261696768740D05
310
63757276650CFFFFFFFF04FFFFFFFF0CFFFFFFFF133779030FF885764064DE0FE0A7453A40000000000000000014000000000000F03F000000000000000000000000000000000B0B110D05706F696E740CFFFFFFFF04FFFFFFFF0CFFFFFFFF138D8730C195B7764064DE0FE0A7453A400000000000000000110E0873747261
310
696768740D0563757276650CFFFFFFFF04FFFFFFFF0CFFFFFFFF133779030FF885764024ABDCAC74923A400000000000000000140000000000000000000000000000F0BF00000000000000000B0B110D05706F696E740CFFFFFFFF04FFFFFFFF0CFFFFFFFF133779030FF885764024ABDCAC74923A40000000000000000011
310
0D05706F696E740CFFFFFFFF04FFFFFFFF0CFFFFFFFF133779030FF885764064DE0FE0A7453A400000000000000000110E03456E640E026F660E0341534D0D0464617461
  0
ENDSEC
  0
EOF
