  0
SECTION
  2
HEADER
  9
$ACADVER
  1
AC1032
  9
$ACADMAINTVER
 90
      248
  9
$DWGCODEPAGE
  3
ANSI_936
  9
$REQUIREDVERSIONS
160
                 0
  9
$INSBASE
 10
0.0
 20
0.0
 30
0.0
  9
$EXTMIN
 10
5.0
 20
8.999999999999943
 30
0.0
  9
$EXTMAX
 10
821.0
 20
392.0
 30
0.0
  9
$LIMMIN
 10
0.0
 20
0.0
  9
$LIMMAX
 10
285.0
 20
404.0
  9
$ORTHOMODE
 70
     0
  9
$REGENMODE
 70
     1
  9
$FILLMODE
 70
     1
  9
$QTEXTMODE
 70
     0
  9
$MIRRTEXT
 70
     0
  9
$LTSCALE
 40
8.0
  9
$ATTMODE
 70
     1
  9
$TEXTSIZE
 40
3.0
  9
$TRACEWID
 40
0.05
  9
$TEXTSTYLE
  7
SIMPLEX
  9
$CLAYER
  8
0
  9
$CELTYPE
  6
ByLayer
  9
$CECOLOR
 62
   256
  9
$CELTSCALE
 40
1.0
  9
$DISPSILH
 70
     0
  9
$DIMSCALE
 40
1.0
  9
$DIMASZ
 40
2.5
  9
$DIMEXO
 40
1.0
  9
$DIMDLI
 40
7.5
  9
$DIMRND
 40
0.0
  9
$DIMDLE
 40
1.25
  9
$DIMEXE
 40
1.25
  9
$DIMTP
 40
0.0
  9
$DIMTM
 40
0.0
  9
$DIMTXT
 40
2.5
  9
$DIMCEN
 40
1.25
  9
$DIMTSZ
 40
0.0
  9
$DIMTOL
 70
     0
  9
$DIMLIM
 70
     0
  9
$DIMTIH
 70
     0
  9
$DIMTOH
 70
     0
  9
$DIMSE1
 70
     0
  9
$DIMSE2
 70
     0
  9
$DIMTAD
 70
     1
  9
$DIMZIN
 70
     8
  9
$DIMBLK
  1

  9
$DIMASO
 70
     1
  9
$DIMSHO
 70
     1
  9
$DIMPOST
  1

  9
$DIMAPOST
  1

  9
$DIMALT
 70
     0
  9
$DIMALTD
 70
     2
  9
$DIMALTF
 40
25.4
  9
$DIMLFAC
 40
1.0
  9
$DIMTOFL
 70
     0
  9
$DIMTVP
 40
2.0
  9
$DIMTIX
 70
     0
  9
$DIMSOXD
 70
     0
  9
$DIMSAH
 70
     0
  9
$DIMBLK1
  1

  9
$DIMBLK2
  1

  9
$DIMSTYLE
  2
Standard
  9
$DIMCLRD
 70
     0
  9
$DIMCLRE
 70
     0
  9
$DIMCLRT
 70
     0
  9
$DIMTFAC
 40
1.0
  9
$DIMGAP
 40
1.25
  9
$DIMJUST
 70
     0
  9
$DIMSD1
 70
     0
  9
$DIMSD2
 70
     0
  9
$DIMTOLJ
 70
     1
  9
$DIMTZIN
 70
     0
  9
$DIMALTZ
 70
     0
  9
$DIMALTTZ
 70
     0
  9
$DIMUPT
 70
     0
  9
$DIMDEC
 70
     3
  9
$DIMTDEC
 70
     4
  9
$DIMALTU
 70
     2
  9
$DIMALTTD
 70
     2
  9
$DIMTXSTY
  7
SIMPLEX
  9
$DIMAUNIT
 70
     0
  9
$DIMADEC
 70
     0
  9
$DIMALTRND
 40
0.0
  9
$DIMAZIN
 70
     0
  9
$DIMDSEP
 70
    46
  9
$DIMATFIT
 70
     3
  9
$DIMFRAC
 70
     0
  9
$DIMLDRBLK
  1

  9
$DIMLUNIT
 70
     2
  9
$DIMLWD
 70
    -2
  9
$DIMLWE
 70
    -2
  9
$DIMTMOVE
 70
     0
  9
$DIMFXL
 40
1.0
  9
$DIMFXLON
 70
     0
  9
$DIMJOGANG
 40
0.7853981633974483
  9
$DIMTFILL
 70
     0
  9
$DIMTFILLCLR
 70
     0
  9
$DIMARCSYM
 70
     0
  9
$DIMLTYPE
  6

  9
$DIMLTEX1
  6

  9
$DIMLTEX2
  6

  9
$DIMTXTDIRECTION
 70
     0
  9
$LUNITS
 70
     2
  9
$LUPREC
 70
     4
  9
$SKETCHINC
 40
0.1
  9
$FILLETRAD
 40
0.07
  9
$AUNITS
 70
     0
  9
$AUPREC
 70
     0
  9
$MENU
  1
.
  9
$ELEVATION
 40
0.0
  9
$PELEVATION
 40
0.0
  9
$THICKNESS
 40
0.0
  9
$LIMCHECK
 70
     0
  9
$CHAMFERA
 40
0.0
  9
$CHAMFERB
 40
0.0
  9
$CHAMFERC
 40
0.0
  9
$CHAMFERD
 40
0.0
  9
$SKPOLY
 70
     0
  9
$TDCREATE
 40
2453354.050451389
  9
$TDUCREATE
 40
2453353.717125822
  9
$TDUPDATE
 40
2460607.477511574
  9
$TDUUPDATE
 40
2460607.144178241
  9
$TDINDWG
 40
49472.4665066204
  9
$TDUSRTIMER
 40
49472.4664949769
  9
$USRTIMER
 70
     1
  9
$ANGBASE
 50
0.0
  9
$ANGDIR
 70
     0
  9
$PDMODE
 70
     0
  9
$PDSIZE
 40
0.0
  9
$PLINEWID
 40
0.0
  9
$SPLFRAME
 70
     0
  9
$SPLINETYPE
 70
     6
  9
$SPLINESEGS
 70
     8
  9
$HANDSEED
  5
1FE
  9
$SURFTAB1
 70
     6
  9
$SURFTAB2
 70
     6
  9
$SURFTYPE
 70
     6
  9
$SURFU
 70
     6
  9
$SURFV
 70
     6
  9
$UCSBASE
  2

  9
$UCSNAME
  2

  9
$UCSORG
 10
0.0
 20
0.0
 30
0.0
  9
$UCSXDIR
 10
1.0
 20
0.0
 30
0.0
  9
$UCSYDIR
 10
0.0
 20
1.0
 30
0.0
  9
$UCSORTHOREF
  2

  9
$UCSORTHOVIEW
 70
     0
  9
$UCSORGTOP
 10
0.0
 20
0.0
 30
0.0
  9
$UCSORGBOTTOM
 10
0.0
 20
0.0
 30
0.0
  9
$UCSORGLEFT
 10
0.0
 20
0.0
 30
0.0
  9
$UCSORGRIGHT
 10
0.0
 20
0.0
 30
0.0
  9
$UCSORGFRONT
 10
0.0
 20
0.0
 30
0.0
  9
$UCSORGBACK
 10
0.0
 20
0.0
 30
0.0
  9
$PUCSBASE
  2

  9
$PUCSNAME
  2

  9
$PUCSORG
 10
0.0
 20
0.0
 30
0.0
  9
$PUCSXDIR
 10
1.0
 20
0.0
 30
0.0
  9
$PUCSYDIR
 10
0.0
 20
1.0
 30
0.0
  9
$PUCSORTHOREF
  2

  9
$PUCSORTHOVIEW
 70
     0
  9
$PUCSORGTOP
 10
0.0
 20
0.0
 30
0.0
  9
$PUCSORGBOTTOM
 10
0.0
 20
0.0
 30
0.0
  9
$PUCSORGLEFT
 10
0.0
 20
0.0
 30
0.0
  9
$PUCSORGRIGHT
 10
0.0
 20
0.0
 30
0.0
  9
$PUCSORGFRONT
 10
0.0
 20
0.0
 30
0.0
  9
$PUCSORGBACK
 10
0.0
 20
0.0
 30
0.0
  9
$USERI1
 70
     0
  9
$USERI2
 70
     0
  9
$USERI3
 70
     0
  9
$USERI4
 70
     0
  9
$USERI5
 70
 32767
  9
$USERR1
 40
0.0
  9
$USERR2
 40
0.0
  9
$USERR3
 40
0.0
  9
$USERR4
 40
0.0
  9
$USERR5
 40
0.0
  9
$WORLDVIEW
 70
     1
  9
$SHADEDGE
 70
     3
  9
$SHADEDIF
 70
    70
  9
$TILEMODE
 70
     1
  9
$MAXACTVP
 70
    16
  9
$PINSBASE
 10
0.0
 20
0.0
 30
0.0
  9
$PLIMCHECK
 70
     0
  9
$PEXTMIN
 10
1.000000000000000E+20
 20
1.000000000000000E+20
 30
1.000000000000000E+20
  9
$PEXTMAX
 10
-1.000000000000000E+20
 20
-1.000000000000000E+20
 30
-1.000000000000000E+20
  9
$PLIMMIN
 10
0.0
 20
0.0
  9
$PLIMMAX
 10
12.0
 20
9.0
  9
$UNITMODE
 70
     0
  9
$VISRETAIN
 70
     0
  9
$PLINEGEN
 70
     0
  9
$PSLTSCALE
 70
     0
  9
$TREEDEPTH
 70
  3020
  9
$CMLSTYLE
  2
Standard
  9
$CMLJUST
 70
     0
  9
$CMLSCALE
 40
1.0
  9
$PROXYGRAPHICS
 70
     1
  9
$MEASUREMENT
 70
     0
  9
$CELWEIGHT
370
    -1
  9
$ENDCAPS
280
     0
  9
$JOINSTYLE
280
     0
  9
$LWDISPLAY
290
     0
  9
$INSUNITS
 70
     0
  9
$HYPERLINKBASE
  1

  9
$STYLESHEET
  1

  9
$XEDIT
290
     1
  9
$CEPSNTYPE
380
     0
  9
$PSTYLEMODE
290
     1
  9
$FINGERPRINTGUID
  2
{4E9A451C-05D8-E949-84E3-2F71A50D3BAD}
  9
$VERSIONGUID
  2
{A8BFE950-1353-2F40-AFE5-D56D36C48865}
  9
$EXTNAMES
290
     1
  9
$PSVPSCALE
 40
0.0
  9
$OLESTARTUP
290
     0
  9
$SORTENTS
280
   127
  9
$INDEXCTL
280
     0
  9
$HIDETEXT
280
     1
  9
$XCLIPFRAME
280
     2
  9
$HALOGAP
280
     0
  9
$OBSCOLOR
 70
   257
  9
$OBSLTYPE
280
     0
  9
$INTERSECTIONDISPLAY
280
     0
  9
$INTERSECTIONCOLOR
 70
   257
  9
$DIMASSOC
280
     0
  9
$PROJECTNAME
  1

  9
$CAMERADISPLAY
290
     0
  9
$LENSLENGTH
 40
50.0
  9
$CAMERAHEIGHT
 40
0.0
  9
$STEPSPERSEC
 40
2.0
  9
$STEPSIZE
 40
6.0
  9
$3DDWFPREC
 40
2.0
  9
$PSOLWIDTH
 40
0.25
  9
$PSOLHEIGHT
 40
4.0
  9
$LOFTANG1
 40
1.570796326794896
  9
$LOFTANG2
 40
1.570796326794896
  9
$LOFTMAG1
 40
0.0
  9
$LOFTMAG2
 40
0.0
  9
$LOFTPARAM
 70
     7
  9
$LOFTNORMALS
280
     1
  9
$LATITUDE
 40
37.795
  9
$LONGITUDE
 40
-122.394
  9
$NORTHDIRECTION
 40
0.0
  9
$TIMEZONE
 70
 -8000
  9
$LIGHTGLYPHDISPLAY
280
     1
  9
$TILEMODELIGHTSYNCH
280
     1
  9
$CMATERIAL
347
30
  9
$SOLIDHIST
280
     0
  9
$SHOWHIST
280
     1
  9
$DWFFRAME
280
     2
  9
$DGNFRAME
280
     0
  9
$REALWORLDSCALE
290
     1
  9
$INTERFERECOLOR
 62
     1
  9
$INTERFEREOBJVS
345
55
  9
$INTERFEREVPVS
346
56
  9
$CSHADOW
280
     0
  9
$SHADOWPLANELOCATION
 40
0.0
  0
ENDSEC
  0
SECTION
  2
CLASSES
  0
CLASS
  1
ACDBDICTIONARYWDFLT
  2
AcDbDictionaryWithDefault
  3
ObjectDBX Classes
 90
        0
 91
        1
280
     0
281
     0
  0
CLASS
  1
DICTIONARYVAR
  2
AcDbDictionaryVar
  3
ObjectDBX Classes
 90
        0
 91
       12
280
     0
281
     0
  0
CLASS
  1
TABLESTYLE
  2
AcDbTableStyle
  3
ObjectDBX Classes
 90
     4095
 91
        1
280
     0
281
     0
  0
CLASS
  1
MATERIAL
  2
AcDbMaterial
  3
ObjectDBX Classes
 90
     1153
 91
        3
280
     0
281
     0
  0
CLASS
  1
VISUALSTYLE
  2
AcDbVisualStyle
  3
ObjectDBX Classes
 90
     4095
 91
        4
280
     0
281
     0
  0
CLASS
  1
SCALE
  2
AcDbScale
  3
ObjectDBX Classes
 90
     1153
 91
       17
280
     0
281
     0
  0
CLASS
  1
MLEADERSTYLE
  2
AcDbMLeaderStyle
  3
ACDB_MLEADERSTYLE_CLASS
 90
     4095
 91
        0
280
     0
281
     0
  0
CLASS
  1
ACDBSECTIONVIEWSTYLE
  2
AcDbSectionViewStyle
  3
ObjectDBX Classes
 90
     1025
 91
        0
280
     0
281
     0
  0
CLASS
  1
ACDBDETAILVIEWSTYLE
  2
AcDbDetailViewStyle
  3
ObjectDBX Classes
 90
     1025
 91
        0
280
     0
281
     0
  0
CLASS
  1
CELLSTYLEMAP
  2
AcDbCellStyleMap
  3
ObjectDBX Classes
 90
     1152
 91
        1
280
     0
281
     0
  0
CLASS
  1
SOLID_BACKGROUND
  2
AcDbSolidBackground
  3
SCENEOE
 90
     4095
 91
        0
280
     0
281
     0
  0
CLASS
  1
NPOCOLLECTION
  2
AcDbImpNonPersistentObjectsCollection
  3
ObjectDBX Classes
 90
     1153
 91
        0
280
     0
281
     0
  0
ENDSEC
  0
SECTION
  2
TABLES
  0
TABLE
  2
VPORT
  5
24
330
0
100
AcDbSymbolTable
 70
     1
  0
VPORT
  5
25
330
24
100
AcDbSymbolTableRecord
100
AcDbViewportTableRecord
  2
*Active
 70
     0
 10
0.0
 20
0.0
 11
1.0
 21
1.0
 12
551.2621548943878
 22
202.3384762744501
 13
0.0
 23
0.0
 14
0.1
 24
0.1
 15
0.5
 25
0.5
 16
0.0
 26
0.0
 36
1.0
 17
0.0
 27
0.0
 37
0.0
 40
436.6675542746647
 41
2.570850202429149
 42
50.0
 43
0.0
 44
0.0
 50
0.0
 51
0.0
 71
    16
 72
   500
 73
     1
 74
     1
 75
     0
 76
     0
 77
     0
 78
     0
281
     0
 65
     1
110
0.0
120
0.0
130
0.0
111
1.0
121
0.0
131
0.0
112
0.0
122
1.0
132
0.0
 79
     0
146
0.0
348
26
 60
     3
 61
     5
292
     1
282
     1
141
0.0
142
0.0
 63
   250
421
  3355443
1001
ACAD_NAV_VCDISPLAY
1070
     3
  0
ENDTAB
  0
TABLE
  2
LTYPE
  5
1F
330
0
100
AcDbSymbolTable
 70
     3
  0
LTYPE
  5
20
330
1F
100
AcDbSymbolTableRecord
100
AcDbLinetypeTableRecord
  2
ByBlock
 70
     0
  3

 72
    65
 73
     0
 40
0.0
  0
LTYPE
  5
21
330
1F
100
AcDbSymbolTableRecord
100
AcDbLinetypeTableRecord
  2
ByLayer
 70
     0
  3

 72
    65
 73
     0
 40
0.0
  0
LTYPE
  5
13
330
1F
100
AcDbSymbolTableRecord
100
AcDbLinetypeTableRecord
  2
Continuous
 70
     0
  3
Solid line
 72
    65
 73
     0
 40
0.0
  0
LTYPE
  5
87
330
1F
100
AcDbSymbolTableRecord
100
AcDbLinetypeTableRecord
  2
CENTER
 70
     0
  3
____ _ ____ _ ____ _ ____ _ ____ _ ____ _ ____
 72
    65
 73
     4
 40
2.0
 49
1.25
 74
     4
 75
     0
340
0
 46
1.0
 50
0.0
 44
0.0
 45
0.0
 49
-0.25
 74
     4
 75
     0
340
0
 46
1.0
 50
0.0
 44
0.0
 45
0.0
 49
0.25
 74
     4
 75
     0
340
0
 46
1.0
 50
0.0
 44
0.0
 45
0.0
 49
-0.25
 74
     4
 75
     0
340
0
 46
1.0
 50
0.0
 44
0.0
 45
0.0
  0
LTYPE
  5
90
330
1F
100
AcDbSymbolTableRecord
100
AcDbLinetypeTableRecord
  2
HIDDEN
 70
     0
  3
_ _ _ _ _ _ _ _ _ _ _ _ _ _ _ _ _ _ _ _ _ _ _
 72
    65
 73
     2
 40
0.375
 49
0.25
 74
     4
 75
     0
340
0
 46
1.0
 50
0.0
 44
0.0
 45
0.0
 49
-0.125
 74
     4
 75
     0
340
0
 46
1.0
 50
0.0
 44
0.0
 45
0.0
  0
ENDTAB
  0
TABLE
  2
LAYER
  5
1B
330
0
100
AcDbSymbolTable
 70
     6
  0
LAYER
  5
4
102
{ACAD_XDICTIONARY
360
5
102
}
330
1B
100
AcDbSymbolTableRecord
100
AcDbLayerTableRecord
  2
0
 70
     0
 62
     7
  6
Continuous
370
    -3
390
7
347
A
348
0
  0
LAYER
  5
6A
102
{ACAD_XDICTIONARY
360
6B
102
}
330
1B
100
AcDbSymbolTableRecord
100
AcDbLayerTableRecord
  2
DIM
 70
     0
 62
     7
  6
Continuous
370
    -3
390
7
347
A
348
0
  0
LAYER
  5
84
102
{ACAD_XDICTIONARY
360
85
102
}
330
1B
100
AcDbSymbolTableRecord
100
AcDbLayerTableRecord
  2
CEN
 70
     0
 62
     2
  6
CENTER
370
    -3
390
7
347
A
348
0
  0
LAYER
  5
7F
102
{ACAD_XDICTIONARY
360
80
102
}
330
1B
100
AcDbSymbolTableRecord
100
AcDbLayerTableRecord
  2
LF-LINE
 70
     0
 62
     1
  6
Continuous
370
    -3
390
7
347
A
348
0
  0
LAYER
  5
9B
102
{ACAD_XDICTIONARY
360
9C
102
}
330
1B
100
AcDbSymbolTableRecord
100
AcDbLayerTableRecord
  2
COIN-LINE
 70
     0
 62
     4
  6
Continuous
370
    -3
390
7
347
A
348
0
  0
LAYER
  5
8D
102
{ACAD_XDICTIONARY
360
8E
102
}
330
1B
100
AcDbSymbolTableRecord
100
AcDbLayerTableRecord
  2
PKG-OUT
 70
     0
 62
     3
  6
HIDDEN
370
    -3
390
7
347
A
348
0
  0
ENDTAB
  0
TABLE
  2
STYLE
  5
1C
330
0
100
AcDbSymbolTable
 70
     3
  0
STYLE
  5
1D
330
1C
100
AcDbSymbolTableRecord
100
AcDbTextStyleTableRecord
  2
Standard
 70
     0
 40
3.0
 41
1.0
 50
0.0
 71
     0
 42
2.5
  3
SIMPLEX
  4

  0
STYLE
  5
51
330
1C
100
AcDbSymbolTableRecord
100
AcDbTextStyleTableRecord
  2
SIMPLEX
 70
     0
 40
3.0
 41
1.0
 50
0.0
 71
     0
 42
3.0
  3
SIMPLEX.shx
  4

  0
STYLE
  5
1F9
330
1C
100
AcDbSymbolTableRecord
100
AcDbTextStyleTableRecord
  2
ROMANS
 70
     0
 40
2.5
 41
1.0
 50
0.0
 71
     0
 42
2.5
  3
romans
  4

  0
ENDTAB
  0
TABLE
  2
VIEW
  5
22
330
0
100
AcDbSymbolTable
 70
     0
  0
ENDTAB
  0
TABLE
  2
UCS
  5
23
330
0
100
AcDbSymbolTable
 70
     0
  0
ENDTAB
  0
TABLE
  2
APPID
  5
29
330
0
100
AcDbSymbolTable
 70
     2
  0
APPID
  5
2A
330
29
100
AcDbSymbolTableRecord
100
AcDbRegAppTableRecord
  2
ACAD
 70
     0
  0
APPID
  5
28
330
29
100
AcDbSymbolTableRecord
100
AcDbRegAppTableRecord
  2
ACAD_NAV_VCDISPLAY
 70
     0
  0
ENDTAB
  0
TABLE
  2
DIMSTYLE
  5
2B
330
0
100
AcDbSymbolTable
 70
     1
100
AcDbDimStyleTable
 71
     0
  0
DIMSTYLE
105
57
330
2B
100
AcDbSymbolTableRecord
100
AcDbDimStyleTableRecord
  2
Standard
 70
     0
340
1D
  0
ENDTAB
  0
TABLE
  2
BLOCK_RECORD
  5
1
330
0
100
AcDbSymbolTable
 70
     1
  0
BLOCK_RECORD
  5
2
330
1
100
AcDbSymbolTableRecord
100
AcDbBlockTableRecord
  2
*Model_Space
340
15
 70
     0
280
     1
281
     0
  0
BLOCK_RECORD
  5
17
330
1
100
AcDbSymbolTableRecord
100
AcDbBlockTableRecord
  2
*Paper_Space
340
1A
 70
     0
280
     1
281
     0
  0
BLOCK_RECORD
  5
8A
330
1
100
AcDbSymbolTableRecord
100
AcDbBlockTableRecord
  2
INT3
340
0
102
{BLKREFS
331
89
102
}
 70
     0
280
     1
281
     0
  0
ENDTAB
  0
ENDSEC
  0
SECTION
  2
BLOCKS
  0
BLOCK
  5
3
330
2
100
AcDbEntity
  8
0
100
AcDbBlockBegin
  2
*Model_Space
 70
     0
 10
0.0
 20
0.0
 30
0.0
  3
*Model_Space
  1

  0
ENDBLK
  5
14
330
2
100
AcDbEntity
  8
0
100
AcDbBlockEnd
  0
BLOCK
  5
18
330
17
100
AcDbEntity
 67
     1
  8
0
100
AcDbBlockBegin
  2
*Paper_Space
 70
     0
 10
0.0
 20
0.0
 30
0.0
  3
*Paper_Space
  1

  0
ENDBLK
  5
19
330
17
100
AcDbEntity
 67
     1
  8
0
100
AcDbBlockEnd
  0
BLOCK
  5
8B
330
8A
100
AcDbEntity
  8
0
100
AcDbBlockBegin
  2
INT3
 70
     0
 10
0.0
 20
0.0
 30
0.0
  3
INT3
  1

  0
LWPOLYLINE
  5
8C
330
8A
100
AcDbEntity
  8
PKG-OUT
100
AcDbPolyline
 90
        4
 70
     1
 43
0.0
 10
-2.450000000018575
 20
-1.950000000000045
 10
-2.450000000018575
 20
1.94999999999993
 10
2.449999999981287
 20
1.949999999999818
 10
2.449999999981287
 20
-1.950000000000045
  0
LWPOLYLINE
  5
91
330
8A
100
AcDbEntity
  8
0
100
AcDbPolyline
 90
        6
 70
     0
 43
0.0
 10
3.025000000019076
 20
0.2499999999993747
 10
2.847500000019009
 20
0.2499999999993747
 42
-0.4142135623731081
 10
2.777500000019016
 20
0.3199999999993679
 10
2.77750000001913
 20
1.529999999999972
 42
-0.4142135623730829
 10
2.847500000019123
 20
1.599999999999965
 10
3.025000000019076
 20
1.599999999999965
  0
LWPOLYLINE
  5
92
330
8A
100
AcDbEntity
  8
0
100
AcDbPolyline
 90
      186
 70
     0
 43
0.0
 10
-2.527500000015785
 20
0.2500000000098249
 10
-2.527500000015663
 20
0.1949999999999932
 42
0.4142135623733328
 10
-2.45750000001567
 20
0.1250000000000568
 10
-2.240000000000634
 20
0.1250000000002274
 42
0.4142135623728571
 10
-2.170000000000071
 20
0.1950000000001068
 10
-2.169999999999788
 20
0.3000000000000114
 10
-2.019999999999753
 20
0.3000000000000114
 42
-0.4142135623736895
 10
-1.949999999999761
 20
0.2299999999999329
 10
-1.950000000000443
 20
-0.4300000000001206
 42
-0.4142135623730949
 10
-2.020000000000436
 20
-0.5000000000000285
 10
-2.17000000000064
 20
-0.5
 10
-2.170000000000469
 20
-0.1950000000003342
 42
0.4142135623732141
 10
-2.240000000000634
 20
-0.1250000000002558
 10
-2.45750000001567
 20
-0.1250000000002274
 42
0.4142135623733329
 10
-2.52750000001572
 20
-0.1950000000002205
 10
-2.527500000015776
 20
-2.064999999997445
 42
0.4142135623730931
 10
-2.457500000015779
 20
-2.134999999997241
 10
-2.175000000001887
 20
-2.134999999995386
 42
0.4142135623714302
 10
-2.105000000002291
 20
-2.064999999995392
 10
-2.105000000002235
 20
-1.449999999999818
 10
-1.204999999998278
 20
-1.450000000000101
 42
-0.4142135623727384
 10
-1.134999999998284
 20
-1.520000000000123
 10
-1.134999999998284
 20
-1.679999999999949
 10
-1.635000000004311
 20
-1.680000000000005
 42
0.414213562360965
 10
-1.705000000004304
 20
-1.749999999996986
 10
-1.705000000017946
 20
-2.064999999992096
 42
0.4142135623854629
 10
-1.63500000001801
 20
-2.134999999995101
 10
-0.9050000000007683
 20
-2.134999999995129
 42
0.4142135623734521
 10
-0.8350000000007753
 20
-2.064999999995136
 10
-0.835000000000889
 20
-1.75
 42
0.3316792666339903
 10
-0.8850000000166458
 20
-1.682917960670265
 10
-0.8850000000164186
 20
-1.519999999999868
 42
-0.4142135623730951
 10
-0.8150000000164252
 20
-1.44999999999996
 10
-0.1949999999999932
 20
-1.450000000000045
 42
-0.4142135623730951
 10
-0.125
 20
-1.520000000000038
 10
-0.125
 20
-1.679999999999949
 10
-0.3650000000035902
 20
-1.679999999999949
 42
0.414213562360965
 10
-0.4350000000035834
 20
-1.749999999997043
 10
-0.435000000016487
 20
-2.064999999992096
 42
0.4142135623852252
 10
-0.3650000000164937
 20
-2.134999999994988
 10
0.3650000000005775
 20
-2.134999999994988
 42
0.4142135623733328
 10
0.4350000000005707
 20
-2.064999999994938
 10
0.4350000000004571
 20
-1.749999999999885
 42
0.4142135623730951
 10
0.3650000000004638
 20
-1.680000000000005
 10
0.125
 20
-1.680000000000063
 10
0.125
 20
-1.520000000000038
 42
-0.4142135623730951
 10
0.1949999999999932
 20
-1.450000000000045
 10
0.8150000000005659
 20
-1.450000000000045
 42
-0.4142135623728573
 10
0.8850000000005023
 20
-1.520000000000038
 10
0.8850000000006728
 20
-1.682917960673449
 42
0.3316792665809987
 10
0.8349999999952615
 20
-1.749999999997611
 10
0.8349999999843474
 20
-2.064999999992608
 42
0.4142135623830847
 10
0.9049999999843407
 20
-2.134999999995101
 10
1.634999999985949
 20
-2.134999999995045
 42
0.4142135623628679
 10
1.704999999985943
 20
-2.064999999997495
 10
1.704999999996856
 20
-1.750000000002501
 42
0.4142135623828467
 10
1.634999999996863
 20
-1.680000000000063
 10
1.134999999982426
 20
-1.680000000000005
 10
1.134999999982198
 20
-1.319999999999936
 42
0.4142135623723817
 10
1.064999999982262
 20
-1.249999999999942
 10
-0.4099999999999683
 20
-1.24999999999997
 42
-0.4142135623734518
 10
-0.4799999999999615
 20
-1.179999999999978
 10
-0.4799999999998478
 20
-0.7500000000001421
 42
0.4142135623727384
 10
-0.5499999999997272
 20
-0.6800000000001205
 10
-0.6300000000003366
 20
-0.6799999999999784
 42
0.4142135623734518
 10
-0.7000000000003297
 20
-0.75
 10
-0.7000000000003297
 20
-0.8800000000000807
 42
-0.4142135623733328
 10
-0.7700000000003798
 20
-0.9500000000000737
 10
-0.9300000000003477
 20
-0.9500000000000452
 10
-0.9300000000004049
 20
-0.4499999999999888
 10
-0.5499999999999547
 20
-0.4500000000000455
 42
0.4142135623733328
 10
-0.4799999999999615
 20
-0.3800000000000523
 10
-0.4799999999998478
 20
-0.3700000000002319
 42
-0.4142135623744032
 10
-0.4099999999998545
 20
-0.2999999999999829
 10
1.600000000000022
 20
-0.2999999999999829
 10
1.599999999999909
 20
-0.7160050506315942
 42
0.1989123673795935
 10
1.620502525316793
 20
-0.7655025253146448
 10
2.105000000013887
 20
-1.250000000012278
 10
2.10499999998592
 20
-2.064999999993004
 42
0.4142135623814197
 10
2.174999999985515
 20
-2.134999999995386
 10
2.905000000021231
 20
-2.134999999999649
 42
0.4142135623747599
 10
2.975000000021622
 20
-2.064999999999656
 10
2.975000000021736
 20
-2.005000000001189
 42
0.4142135623733329
 10
2.905000000021686
 20
-1.935000000001195
 10
2.597499999981896
 20
-1.935000000001081
 42
-0.4142135623730943
 10
2.527499999982246
 20
-1.865000000001055
 10
2.527500000015549
 20
-1.599999999999965
 10
2.804999999999941
 20
-1.60000000000008
 42
0.4142135623730922
 10
2.874999999999817
 20
-1.530000000000022
 10
2.874999999997568
 20
-0.3200000000000569
 42
0.4142135623730959
 10
2.804999999997497
 20
-0.2500000000000684
 10
2.527500000015718
 20
-0.2500000000010075
 10
2.527499999998609
 20
-0.1950000000007322
 42
0.4142135623761869
 10
2.457499999998559
 20
-0.1250000000000568
 10
2.240000000000292
 20
-0.1250000000002274
 42
0.414213562372976
 10
2.170000000000355
 20
-0.1950000000002489
 10
2.170000000000527
 20
-0.5
 10
2.020000000000321
 20
-0.5000000000000285
 42
-0.4142135623730951
 10
1.950000000000328
 20
-0.4300000000001205
 10
1.949999999999646
 20
0.2299999999999329
 42
-0.4142135623736898
 10
2.019999999999639
 20
0.2999999999999829
 10
2.169999999999673
 20
0.3000000000000114
 10
2.170000000000071
 20
0.1949999999999363
 42
0.4142135623720251
 10
2.240000000000009
 20
0.1250000000001421
 10
2.457499999998502
 20
0.125
 42
0.414213562375949
 10
2.527499999998553
 20
0.1950000000006184
 10
2.527499999998089
 20
1.865000000001012
 42
-0.4142135623730933
 10
2.597499999998074
 20
1.935000000001025
 10
2.905000000021686
 20
1.935000000001081
 42
0.4142135623733328
 10
2.97500000002168
 20
2.005000000001018
 10
2.975000000021622
 20
2.064999999999542
 42
0.4142135623747583
 10
2.905000000021178
 20
2.134999999999973
 10
2.174999999985401
 20
2.134999999995272
 42
0.4142135623816574
 10
2.104999999985864
 20
2.064999999993004
 10
2.1050000000061
 20
1.449999999999873
 10
1.204999999982589
 20
1.449999999999903
 42
-0.4142135623730951
 10
1.134999999982595
 20
1.519999999999896
 10
1.134999999982482
 20
1.680000000000063
 10
1.634999999996239
 20
1.680000000000005
 42
0.4142135623833222
 10
1.704999999996231
 20
1.750000000002329
 10
1.704999999985715
 20
2.064999999997268
 42
0.4142135623633436
 10
1.634999999985723
 20
2.13499999999493
 10
0.904999999984227
 20
2.134999999995016
 42
0.4142135623828467
 10
0.8349999999842907
 20
2.06499999999272
 10
0.8349999999946929
 20
1.749999999997639
 42
0.3316792665848434
 10
0.8850000000009002
 20
1.682917960673108
 10
0.8850000000007296
 20
1.51999999999998
 42
-0.4142135623730951
 10
0.8150000000007365
 20
1.450000000000101
 10
0.1949999999998226
 20
1.450000000000101
 42
-0.4142135623733328
 10
0.1249999999998295
 20
1.520000000000038
 10
0.1249999999998863
 20
1.679999999999949
 10
0.3650000000003501
 20
1.680000000000005
 42
0.4142135623730951
 10
0.4350000000003435
 20
1.749999999999885
 10
0.4350000000005707
 20
2.06499999999488
 42
0.4142135623733328
 10
0.3650000000005775
 20
2.13499999999493
 10
-0.3650000000166642
 20
2.13499999999493
 42
0.414213562383798
 10
-0.4350000000166007
 20
2.06499999999221
 10
-0.4350000000043793
 20
1.749999999997328
 42
0.4142135623614407
 10
-0.3650000000043292
 20
1.680000000000063
 10
-0.1250000000001137
 20
1.680000000000063
 10
-0.1250000000001137
 20
1.520000000000038
 42
-0.4142135623730951
 10
-0.1950000000001069
 20
1.450000000000045
 10
-0.8150000000007365
 20
1.450000000000045
 42
-0.4142135623735708
 10
-0.8850000000007296
 20
1.520000000000038
 10
-0.8850000000008433
 20
1.682917960675013
 42
0.3316792665683381
 10
-0.835000000000832
 20
1.75
 10
-0.835000000000889
 20
2.064999999994938
 42
0.4142135623735707
 10
-0.9050000000008822
 20
2.13499999999493
 10
-1.635000000018066
 20
2.13499999999493
 42
0.4142135623852252
 10
-1.70500000001806
 20
2.064999999992039
 10
-1.705000000005156
 20
1.749999999997156
 42
0.414213562360965
 10
-1.635000000005162
 20
1.680000000000063
 10
-1.134999999982482
 20
1.680000000000063
 10
-1.134999999982482
 20
1.320000000000105
 42
0.4142135623733328
 10
-1.064999999982433
 20
1.250000000000113
 10
1.079999999999984
 20
1.250000000000142
 42
-0.4142135623734521
 10
1.149999999999977
 20
1.180000000000148
 10
1.149999999999692
 20
0.7500000000001707
 42
0.4142135623729763
 10
1.219999999999572
 20
0.6800000000001489
 10
1.299999999999954
 20
0.6799999999999784
 42
0.4142135623729761
 10
1.369999999999947
 20
0.75
 10
1.369999999999947
 20
0.8800000000000807
 42
-0.4142135623733329
 10
1.439999999999996
 20
0.9500000000000737
 10
1.599999999999965
 20
0.9500000000000452
 10
1.600000000000078
 20
0.200000000000017
 10
1.439999999999996
 20
0.200000000000017
 42
-0.4142135623733569
 10
1.370000000000004
 20
0.2700000000000671
 10
1.370000000000061
 20
0.3800000000000239
 42
0.4142135623730731
 10
1.300000000000067
 20
0.4500000000000172
 10
1.220000000000027
 20
0.4500000000000172
 42
0.4142135623730951
 10
1.150000000000034
 20
0.3800000000000239
 10
1.149999999999977
 20
0.0500000000014325
 10
-1.599999999999794
 20
0.0499999999984198
 10
-1.599999999999965
 20
0.7160050506321342
 42
0.1989123673796582
 10
-1.620502525316908
 20
0.7655025253151849
 10
-2.105000000002064
 20
1.249999999999942
 10
-2.105000000002291
 20
2.064999999995278
 42
0.4142135623714302
 10
-2.175000000001887
 20
2.134999999995272
 10
-2.457500000019956
 20
2.13499999999535
 42
0.4142135623730934
 10
-2.527500000019799
 20
2.064999999995273
 10
-2.527500000014176
 20
1.600000000000022
 10
-3.030000000000022
 20
1.60000000000002
 42
0.4142135623730951
 10
-3.100000000000026
 20
1.530000000000022
 10
-3.100000000000076
 20
0.3200000000000567
 42
0.4142135623730928
 10
-3.030000000000078
 20
0.2500000000000517
 10
-2.527499999998211
 20
0.2499999999999999
  0
ENDBLK
  5
93
330
8A
100
AcDbEntity
  8
0
100
AcDbBlockEnd
  0
ENDSEC
  0
SECTION
  2
ENTITIES
  0
LINE
  5
69
330
2
100
AcDbEntity
  8
DIM
100
AcDbLine
 10
363.5659295809233
 20
118.4272481977682
 30
0.0
 11
363.5659295809233
 21
115.8794777911169
 31
0.0
  0
SOLID
  5
6D
330
2
100
AcDbEntity
  8
DIM
100
AcDbTrace
 10
363.0659295809233
 20
118.4272481977682
 30
0.0
 11
364.0659295809233
 21
118.4272481977682
 31
0.0
 12
363.5659295809233
 22
121.4272481977682
 32
0.0
 13
363.5659295809233
 23
121.4272481977682
 33
0.0
  0
SOLID
  5
6F
330
2
100
AcDbEntity
  8
DIM
100
AcDbTrace
 10
363.6898850430708
 20
120.3238601086932
 30
0.0
 11
363.7498850430707
 21
120.3238601086932
 31
0.0
 12
363.7198850430707
 22
120.5038601086932
 32
0.0
 13
363.7198850430707
 23
120.5038601086932
 33
0.0
  0
TEXT
  5
70
330
2
100
AcDbEntity
  8
DIM
100
AcDbText
 10
362.8314214322914
 20
122.144101369771
 30
0.0
 40
2.5
  1
D
  7
SIMPLEX
 11
362.8314214322914
 21
123.394101369771
 31
0.0
100
AcDbText
 73
     2
  0
MTEXT
  5
71
330
2
100
AcDbEntity
  8
DIM
100
AcDbMText
 10
342.6265120691691
 20
185.8560644498031
 30
0.0
 40
2.5
 41
0.0
 46
0.0
 71
     5
 72
     1
  1
\A1;0.2030
  7
SIMPLEX
 11
0.0
 21
1.0
 31
0.0
 73
     1
 44
1.0
  0
SOLID
  5
72
330
2
100
AcDbEntity
  8
DIM
100
AcDbTrace
 10
344.2265120691691
 20
178.7693470784684
 30
0.0
 11
345.2265120691691
 21
178.7693470784684
 31
0.0
 12
344.7265120691691
 22
175.7693470784684
 32
0.0
 13
344.7265120691691
 23
175.7693470784684
 33
0.0
  0
SOLID
  5
73
330
2
100
AcDbEntity
  8
DIM
100
AcDbTrace
 10
344.2265120691691
 20
168.3033470784686
 30
0.0
 11
345.2265120691691
 21
168.3033470784686
 31
0.0
 12
344.7265120691691
 22
171.3033470784686
 32
0.0
 13
344.7265120691691
 23
171.3033470784686
 33
0.0
  0
LINE
  5
74
330
2
100
AcDbEntity
  8
DIM
100
AcDbLine
 10
344.7265120691691
 20
170.6943470784685
 30
0.0
 11
344.7265120691691
 21
175.7693470784684
 31
0.0
  0
LINE
  5
75
330
2
100
AcDbEntity
  8
DIM
100
AcDbLine
 10
344.7265120691691
 20
178.7693470784684
 30
0.0
 11
344.7265120691691
 21
192.3294336972319
 31
0.0
  0
LINE
  5
76
330
2
100
AcDbEntity
  8
DIM
100
AcDbLine
 10
344.7265120691691
 20
168.3033470784686
 30
0.0
 11
344.7265120691691
 21
165.3033470784686
 31
0.0
  0
LINE
  5
77
330
2
100
AcDbEntity
  8
DIM
100
AcDbLine
 10
348.4375686201662
 20
175.7693470784684
 30
0.0
 11
343.7265120691691
 21
175.7693470784684
 31
0.0
  0
LINE
  5
78
330
2
100
AcDbEntity
  8
DIM
100
AcDbLine
 10
348.4110261226939
 20
171.3033470784686
 30
0.0
 11
343.7265120691691
 21
171.3033470784686
 31
0.0
  0
TEXT
  5
79
330
2
100
AcDbEntity
  8
DIM
100
AcDbText
 10
342.7281493657015
 20
192.991407739906
 30
0.0
 40
1.799999999999999
  1
%%p0.008
 50
90.0
  7
SIMPLEX
100
AcDbText
  0
MTEXT
  5
7A
330
2
100
AcDbEntity
  8
DIM
100
AcDbMText
 10
469.4746967001831
 20
191.3700130544114
 30
0.0
 40
2.5
 41
0.0
 46
0.0
 71
     4
 72
     1
  1
TOP SIDE
  7
SIMPLEX
 73
     1
 44
1.0
  0
SOLID
  5
7B
330
2
100
AcDbEntity
  8
DIM
100
AcDbTrace
 10
457.1650828866581
 20
175.7693470784685
 30
0.0
 11
458.7450000639875
 21
178.3681663705279
 31
0.0
 12
457.8167388245449
 22
178.7400952230639
 32
0.0
 13
457.8167388245449
 23
178.7400952230639
 33
0.0
  0
LINE
  5
7C
330
2
100
AcDbEntity
  8
DIM
100
AcDbLine
 10
458.2808694442662
 20
178.5541307967959
 30
0.0
 11
463.4734572203925
 21
191.5138082515433
 31
0.0
  0
LINE
  5
7D
330
2
100
AcDbEntity
  8
DIM
100
AcDbLine
 10
463.4734572203925
 20
191.5138082515433
 30
0.0
 11
468.2494441471092
 21
191.5138082515433
 31
0.0
  0
TEXT
  5
7E
330
2
100
AcDbEntity
  8
LF-LINE
100
AcDbText
 10
395.4199673338079
 20
157.1276162463738
 30
0.0
 40
3.0
  1
%%USECTION C-C
  7
SIMPLEX
100
AcDbText
  0
TEXT
  5
82
330
2
100
AcDbEntity
  8
LF-LINE
100
AcDbText
 10
468.9335984541056
 20
70.14321413211611
 30
0.0
 40
3.0
  1
%%USECTION D-D
  7
SIMPLEX
100
AcDbText
  0
LINE
  5
83
330
2
100
AcDbEntity
  8
CEN
100
AcDbLine
 10
429.797947334971
 20
289.3330034384813
 30
0.0
 11
392.8331663036104
 21
289.3330034384813
 31
0.0
  0
LINE
  5
88
330
2
100
AcDbEntity
  8
CEN
100
AcDbLine
 10
411.3155568192906
 20
270.850612922801
 30
0.0
 11
411.3155568192906
 21
307.8153939541617
 31
0.0
  0
INSERT
  5
89
330
2
100
AcDbEntity
  8
LF-LINE
100
AcDbBlockReference
  2
INT3
 10
411.3155568193869
 20
289.3330034413595
 30
0.0
 41
22.0
 42
22.0
 43
22.0
  0
LINE
  5
94
330
2
100
AcDbEntity
  8
CEN
100
AcDbLine
 10
353.844738455765
 20
107.3443478300496
 30
0.0
 11
330.1579501831365
 21
107.3443478300496
 31
0.0
  0
LINE
  5
95
330
2
100
AcDbEntity
  8
CEN
100
AcDbLine
 10
342.0013443194507
 20
95.50095369373531
 30
0.0
 11
342.0013443194507
 21
119.1877419663638
 31
0.0
  0
LINE
  5
96
330
2
100
AcDbEntity
  8
CEN
100
AcDbLine
 10
477.8655568198074
 20
336.3030034413518
 30
0.0
 11
477.8655568198074
 21
242.3630034413608
 31
0.0
  0
LINE
  5
97
330
2
100
AcDbEntity
  8
DIM
100
AcDbLine
 10
411.3155568192906
 20
308.8153939541617
 30
0.0
 11
411.3155568192906
 21
343.3030034413269
 31
0.0
  0
LINE
  5
98
330
2
100
AcDbEntity
  8
DIM
100
AcDbLine
 10
343.1155568193843
 20
323.9930034413589
 30
0.0
 11
343.1155568193843
 21
343.3030034413269
 31
0.0
  0
LINE
  5
99
330
2
100
AcDbEntity
  8
DIM
100
AcDbLine
 10
357.4155568189798
 20
245.4330034413584
 30
0.0
 11
357.4155568189798
 21
235.3630034414697
 31
0.0
  0
LINE
  5
9A
330
2
100
AcDbEntity
  8
COIN-LINE
100
AcDbLine
 10
357.4155568189798
 20
235.3630034414697
 30
0.0
 11
357.4155568189798
 21
230.3630034414697
 31
0.0
  0
LINE
  5
9E
330
2
100
AcDbEntity
  8
DIM
100
AcDbLine
 10
357.4155568189798
 20
230.3630034414697
 30
0.0
 11
357.4155568189798
 21
207.3630034414697
 31
0.0
  0
TEXT
  5
9F
330
2
100
AcDbEntity
  8
DIM
100
AcDbText
 10
356.9155568189798
 20
207.3630034414697
 30
0.0
 40
2.5
  1
2.4500
 50
90.0
  7
SIMPLEX
100
AcDbText
  0
LINE
  5
A0
330
2
100
AcDbEntity
  8
DIM
100
AcDbLine
 10
355.7105568189582
 20
335.7630034413008
 30
0.0
 11
355.7105568189582
 21
343.3030034413269
 31
0.0
  0
LINE
  5
A1
330
2
100
AcDbEntity
  8
DIM
100
AcDbLine
 10
386.3455568197737
 20
327.2930034413609
 30
0.0
 11
386.3455568197737
 21
343.3030034413269
 31
0.0
  0
LINE
  5
A2
330
2
100
AcDbEntity
  8
DIM
100
AcDbLine
 10
391.8455568193697
 20
327.3571985762099
 30
0.0
 11
391.8455568193697
 21
343.3030034413269
 31
0.0
  0
LINE
  5
A3
330
2
100
AcDbEntity
  8
DIM
100
AcDbLine
 10
408.5655568193856
 20
327.2930034413609
 30
0.0
 11
408.5655568193856
 21
343.3030034413269
 31
0.0
  0
LINE
  5
A4
330
2
100
AcDbEntity
  8
DIM
100
AcDbLine
 10
466.9205568190164
 20
331.3630034413828
 30
0.0
 11
466.9205568190164
 21
343.3030034413269
 31
0.0
  0
LINE
  5
A5
330
2
100
AcDbEntity
  8
DIM
100
AcDbLine
 10
472.4205568198088
 20
323.9930034413589
 30
0.0
 11
472.4205568198088
 21
343.3030034413269
 31
0.0
  0
LINE
  5
A6
330
2
100
AcDbEntity
  8
DIM
100
AcDbLine
 10
477.8655568198074
 20
337.3030034413519
 30
0.0
 11
477.8655568198074
 21
343.3030034413269
 31
0.0
  0
LINE
  5
A7
330
2
100
AcDbEntity
  8
DIM
100
AcDbLine
 10
476.2255568198624
 20
331.9030034413859
 30
0.0
 11
484.8655568198076
 21
331.9030034413859
 31
0.0
  0
LINE
  5
A8
330
2
100
AcDbEntity
  8
COIN-LINE
100
AcDbLine
 10
484.8655568198076
 20
331.9030034413859
 30
0.0
 11
489.8655568198075
 21
331.9030034413859
 31
0.0
  0
LINE
  5
A9
330
2
100
AcDbEntity
  8
DIM
100
AcDbLine
 10
489.8655568198075
 20
331.9030034413859
 30
0.0
 11
512.8655568198077
 21
331.9030034413859
 31
0.0
  0
TEXT
  5
AA
330
2
100
AcDbEntity
  8
DIM
100
AcDbText
 10
500.9607949150457
 20
332.4030034413859
 30
0.0
 40
2.5
  1
1.9350
  7
SIMPLEX
 72
     2
 11
512.8655568198077
 21
332.4030034413859
 31
0.0
100
AcDbText
  0
LINE
  5
AB
330
2
100
AcDbEntity
  8
DIM
100
AcDbLine
 10
448.2855568193052
 20
326.2930034413596
 30
0.0
 11
484.8655568198076
 21
326.2930034413596
 31
0.0
  0
LINE
  5
AC
330
2
100
AcDbEntity
  8
COIN-LINE
100
AcDbLine
 10
484.8655568198076
 20
326.2930034413596
 30
0.0
 11
489.8655568198075
 21
328.0330034413588
 31
0.0
  0
LINE
  5
AD
330
2
100
AcDbEntity
  8
DIM
100
AcDbLine
 10
489.8655568198075
 20
328.0330034413588
 30
0.0
 11
512.8655568198077
 21
328.0330034413588
 31
0.0
  0
TEXT
  5
AE
330
2
100
AcDbEntity
  8
DIM
100
AcDbText
 10
500.9607949150457
 20
328.5330034413588
 30
0.0
 40
2.5
  1
1.6800
  7
SIMPLEX
 72
     2
 11
512.8655568198077
 21
328.5330034413588
 31
0.0
100
AcDbText
  0
LINE
  5
AF
330
2
100
AcDbEntity
  8
DIM
100
AcDbLine
 10
478.8655568198075
 20
324.5330034413588
 30
0.0
 11
484.8655568198076
 21
324.5330034413588
 31
0.0
  0
LINE
  5
B0
330
2
100
AcDbEntity
  8
COIN-LINE
100
AcDbLine
 10
484.8655568198076
 20
324.5330034413588
 30
0.0
 11
489.8655568198075
 21
324.5330034413588
 31
0.0
  0
LINE
  5
B1
330
2
100
AcDbEntity
  8
DIM
100
AcDbLine
 10
489.8655568198075
 20
324.5330034413588
 30
0.0
 11
512.8655568198077
 21
324.5330034413588
 31
0.0
  0
TEXT
  5
B2
330
2
100
AcDbEntity
  8
DIM
100
AcDbText
 10
500.9607949150457
 20
325.0330034413588
 30
0.0
 40
2.5
  1
1.6000
  7
SIMPLEX
 72
     2
 11
512.8655568198077
 21
325.0330034413588
 31
0.0
100
AcDbText
  0
LINE
  5
B3
330
2
100
AcDbEntity
  8
DIM
100
AcDbLine
 10
458.6255568195221
 20
321.2330034413568
 30
0.0
 11
484.8655568198076
 21
321.2330034413568
 31
0.0
  0
LINE
  5
B4
330
2
100
AcDbEntity
  8
COIN-LINE
100
AcDbLine
 10
484.8655568198076
 20
321.2330034413568
 30
0.0
 11
489.8655568198075
 21
321.0330034413588
 31
0.0
  0
LINE
  5
B5
330
2
100
AcDbEntity
  8
DIM
100
AcDbLine
 10
489.8655568198075
 20
321.0330034413588
 30
0.0
 11
512.8655568198077
 21
321.0330034413588
 31
0.0
  0
TEXT
  5
B6
330
2
100
AcDbEntity
  8
DIM
100
AcDbText
 10
500.9607949150457
 20
321.5330034413588
 30
0.0
 40
2.5
  1
1.4500
  7
SIMPLEX
 72
     2
 11
512.8655568198077
 21
321.5330034413588
 31
0.0
100
AcDbText
  0
LINE
  5
B7
330
2
100
AcDbEntity
  8
DIM
100
AcDbLine
 10
478.8655568198075
 20
294.8330034413457
 30
0.0
 11
484.8655568198076
 21
294.8330034413457
 31
0.0
  0
LINE
  5
B8
330
2
100
AcDbEntity
  8
COIN-LINE
100
AcDbLine
 10
484.8655568198076
 20
294.8330034413457
 30
0.0
 11
489.8655568198075
 21
297.2330034413598
 31
0.0
  0
LINE
  5
B9
330
2
100
AcDbEntity
  8
DIM
100
AcDbLine
 10
489.8655568198075
 20
297.2330034413598
 30
0.0
 11
512.8655568198077
 21
297.2330034413598
 31
0.0
  0
TEXT
  5
BA
330
2
100
AcDbEntity
  8
DIM
100
AcDbText
 10
500.4846044388553
 20
297.7330034413599
 30
0.0
 40
2.5
  1
0.2500
  7
SIMPLEX
 72
     2
 11
512.8655568198077
 21
297.7330034413599
 31
0.0
100
AcDbText
  0
LINE
  5
BB
330
2
100
AcDbEntity
  8
DIM
100
AcDbLine
 10
430.797947334971
 20
289.3330034384813
 30
0.0
 11
484.8655568198076
 21
289.3330034384813
 31
0.0
  0
LINE
  5
BC
330
2
100
AcDbEntity
  8
COIN-LINE
100
AcDbLine
 10
484.8655568198076
 20
289.3330034384813
 30
0.0
 11
489.8655568198075
 21
289.3330034384813
 31
0.0
  0
LINE
  5
BD
330
2
100
AcDbEntity
  8
DIM
100
AcDbLine
 10
489.8655568198075
 20
289.3330034384813
 30
0.0
 11
512.8655568198077
 21
289.3330034384813
 31
0.0
  0
TEXT
  5
BE
330
2
100
AcDbEntity
  8
DIM
100
AcDbText
 10
500.4846044388553
 20
289.8330034384813
 30
0.0
 40
2.5
  1
0.0000
  7
SIMPLEX
 72
     2
 11
512.8655568198077
 21
289.8330034384813
 31
0.0
100
AcDbText
  0
LINE
  5
BF
330
2
100
AcDbEntity
  8
DIM
100
AcDbLine
 10
474.025556819333
 20
283.8330034413583
 30
0.0
 11
484.8655568198076
 21
283.8330034413583
 31
0.0
  0
LINE
  5
C0
330
2
100
AcDbEntity
  8
COIN-LINE
100
AcDbLine
 10
484.8655568198076
 20
283.8330034413583
 30
0.0
 11
489.8655568198075
 21
283.8330034413583
 31
0.0
  0
LINE
  5
C1
330
2
100
AcDbEntity
  8
DIM
100
AcDbLine
 10
489.8655568198075
 20
283.8330034413583
 30
0.0
 11
512.8655568198077
 21
283.8330034413583
 31
0.0
  0
TEXT
  5
C2
330
2
100
AcDbEntity
  8
DIM
100
AcDbText
 10
500.4846044388553
 20
284.3330034413583
 30
0.0
 40
2.5
  1
0.2500
  7
SIMPLEX
 72
     2
 11
512.8655568198077
 21
284.3330034413583
 31
0.0
100
AcDbText
  0
LINE
  5
C3
330
2
100
AcDbEntity
  8
DIM
100
AcDbLine
 10
474.0255568193817
 20
254.1330034413577
 30
0.0
 11
484.8655568198076
 21
254.1330034413577
 31
0.0
  0
LINE
  5
C4
330
2
100
AcDbEntity
  8
COIN-LINE
100
AcDbLine
 10
484.8655568198076
 20
254.1330034413577
 30
0.0
 11
489.8655568198075
 21
254.1330034413577
 31
0.0
  0
LINE
  5
C5
330
2
100
AcDbEntity
  8
DIM
100
AcDbLine
 10
489.8655568198075
 20
254.1330034413577
 30
0.0
 11
512.8655568198077
 21
254.1330034413577
 31
0.0
  0
TEXT
  5
C6
330
2
100
AcDbEntity
  8
DIM
100
AcDbText
 10
500.9607949150457
 20
254.6330034413577
 30
0.0
 40
2.5
  1
1.6000
  7
SIMPLEX
 72
     2
 11
512.8655568198077
 21
254.6330034413577
 31
0.0
100
AcDbText
  0
LINE
  5
C7
330
2
100
AcDbEntity
  8
DIM
100
AcDbLine
 10
476.7655568198612
 20
242.903003441367
 30
0.0
 11
476.7655568198612
 21
235.3630034414697
 31
0.0
  0
LINE
  5
C8
330
2
100
AcDbEntity
  8
COIN-LINE
100
AcDbLine
 10
476.7655568198612
 20
235.3630034414697
 30
0.0
 11
476.7655568198612
 21
230.3630034414697
 31
0.0
  0
LINE
  5
C9
330
2
100
AcDbEntity
  8
DIM
100
AcDbLine
 10
476.7655568198612
 20
230.3630034414697
 30
0.0
 11
476.7655568198612
 21
207.3630034414697
 31
0.0
  0
TEXT
  5
CA
330
2
100
AcDbEntity
  8
DIM
100
AcDbText
 10
476.2655568198611
 20
207.3630034414697
 30
0.0
 40
2.5
  1
2.9750
 50
90.0
  7
SIMPLEX
100
AcDbText
  0
LINE
  5
CB
330
2
100
AcDbEntity
  8
DIM
100
AcDbLine
 10
474.5655568193816
 20
254.6730034413601
 30
0.0
 11
474.5655568193816
 21
235.3630034414697
 31
0.0
  0
LINE
  5
CC
330
2
100
AcDbEntity
  8
COIN-LINE
100
AcDbLine
 10
474.5655568193816
 20
235.3630034414697
 30
0.0
 11
473.2655568198611
 21
230.3630034414697
 31
0.0
  0
LINE
  5
CD
330
2
100
AcDbEntity
  8
DIM
100
AcDbLine
 10
473.2655568198611
 20
230.3630034414697
 30
0.0
 11
473.2655568198611
 21
207.3630034414697
 31
0.0
  0
TEXT
  5
CE
330
2
100
AcDbEntity
  8
DIM
100
AcDbText
 10
472.7655568198612
 20
207.3630034414697
 30
0.0
 40
2.5
  1
2.8750
 50
90.0
  7
SIMPLEX
100
AcDbText
  0
LINE
  5
CF
330
2
100
AcDbEntity
  8
DIM
100
AcDbLine
 10
356.2505568190441
 20
242.3630034414201
 30
0.0
 11
336.1155568193843
 21
242.3630034414201
 31
0.0
  0
LINE
  5
D0
330
2
100
AcDbEntity
  8
COIN-LINE
100
AcDbLine
 10
336.1155568193843
 20
242.3630034414201
 30
0.0
 11
331.1155568193843
 21
242.3630034414201
 31
0.0
  0
LINE
  5
D1
330
2
100
AcDbEntity
  8
DIM
100
AcDbLine
 10
331.1155568193843
 20
242.3630034414201
 30
0.0
 11
308.1155568193843
 21
242.3630034414201
 31
0.0
  0
TEXT
  5
D2
330
2
100
AcDbEntity
  8
DIM
100
AcDbText
 10
308.1155568193843
 20
242.8630034414201
 30
0.0
 40
2.5
  1
2.1350
  7
SIMPLEX
100
AcDbText
  0
LINE
  5
D3
330
2
100
AcDbEntity
  8
DIM
100
AcDbLine
 10
356.4155568189798
 20
246.4330034413584
 30
0.0
 11
336.1155568193843
 21
246.4330034413584
 31
0.0
  0
LINE
  5
D4
330
2
100
AcDbEntity
  8
COIN-LINE
100
AcDbLine
 10
336.1155568193843
 20
246.4330034413584
 30
0.0
 11
331.1155568193843
 21
246.4330034413584
 31
0.0
  0
LINE
  5
D5
330
2
100
AcDbEntity
  8
DIM
100
AcDbLine
 10
331.1155568193843
 20
246.4330034413584
 30
0.0
 11
308.1155568193843
 21
246.4330034413584
 31
0.0
  0
TEXT
  5
D6
330
2
100
AcDbEntity
  8
DIM
100
AcDbText
 10
308.1155568193843
 20
246.9330034413584
 30
0.0
 40
2.5
  1
1.9500
  7
SIMPLEX
100
AcDbText
  0
LINE
  5
D7
330
2
100
AcDbEntity
  8
DIM
100
AcDbLine
 10
356.2505568190437
 20
286.5830034413545
 30
0.0
 11
336.1155568193843
 21
286.5830034413545
 31
0.0
  0
LINE
  5
D8
330
2
100
AcDbEntity
  8
COIN-LINE
100
AcDbLine
 10
336.1155568193843
 20
286.5830034413545
 30
0.0
 11
331.1155568193843
 21
286.5830034413545
 31
0.0
  0
LINE
  5
D9
330
2
100
AcDbEntity
  8
DIM
100
AcDbLine
 10
331.1155568193843
 20
286.5830034413545
 30
0.0
 11
308.1155568193843
 21
286.5830034413545
 31
0.0
  0
TEXT
  5
DA
330
2
100
AcDbEntity
  8
DIM
100
AcDbText
 10
308.1155568193843
 20
287.0830034413545
 30
0.0
 40
2.5
  1
0.1250
  7
SIMPLEX
100
AcDbText
  0
LINE
  5
DB
330
2
100
AcDbEntity
  8
DIM
100
AcDbLine
 10
343.6555568193842
 20
294.8330034413595
 30
0.0
 11
336.1155568193843
 21
294.8330034413595
 31
0.0
  0
LINE
  5
DC
330
2
100
AcDbEntity
  8
COIN-LINE
100
AcDbLine
 10
336.1155568193843
 20
294.8330034413595
 30
0.0
 11
331.1155568193843
 21
294.8330034413595
 31
0.0
  0
LINE
  5
DD
330
2
100
AcDbEntity
  8
DIM
100
AcDbLine
 10
331.1155568193843
 20
294.8330034413595
 30
0.0
 11
308.1155568193843
 21
294.8330034413595
 31
0.0
  0
TEXT
  5
DE
330
2
100
AcDbEntity
  8
DIM
100
AcDbText
 10
308.1155568193843
 20
295.3330034413595
 30
0.0
 40
2.5
  1
0.2500
  7
SIMPLEX
100
AcDbText
  0
LINE
  5
DF
330
2
100
AcDbEntity
  8
DIM
100
AcDbLine
 10
343.6555568193842
 20
324.5330034413588
 30
0.0
 11
336.1155568193843
 21
324.5330034413588
 31
0.0
  0
LINE
  5
E0
330
2
100
AcDbEntity
  8
COIN-LINE
100
AcDbLine
 10
336.1155568193843
 20
324.5330034413588
 30
0.0
 11
331.1155568193843
 21
324.5330034413588
 31
0.0
  0
LINE
  5
E1
330
2
100
AcDbEntity
  8
DIM
100
AcDbLine
 10
331.1155568193843
 20
324.5330034413588
 30
0.0
 11
308.1155568193843
 21
324.5330034413588
 31
0.0
  0
TEXT
  5
E2
330
2
100
AcDbEntity
  8
DIM
100
AcDbText
 10
308.1155568193843
 20
325.0330034413588
 30
0.0
 40
2.5
  1
1.6000
  7
SIMPLEX
100
AcDbText
  0
LINE
  5
E3
330
2
100
AcDbEntity
  8
DIM
100
AcDbLine
 10
356.2505568189627
 20
336.3030034412919
 30
0.0
 11
336.1155568193843
 21
336.3030034412919
 31
0.0
  0
LINE
  5
E4
330
2
100
AcDbEntity
  8
COIN-LINE
100
AcDbLine
 10
336.1155568193843
 20
336.3030034412919
 30
0.0
 11
331.1155568193843
 21
336.3030034412919
 31
0.0
  0
LINE
  5
E5
330
2
100
AcDbEntity
  8
DIM
100
AcDbLine
 10
331.1155568193843
 20
336.3030034412919
 30
0.0
 11
308.1155568193843
 21
336.3030034412919
 31
0.0
  0
TEXT
  5
E6
330
2
100
AcDbEntity
  8
DIM
100
AcDbText
 10
308.1155568193843
 20
336.8030034412919
 30
0.0
 40
2.5
  1
2.1350
  7
SIMPLEX
100
AcDbText
  0
TEXT
  5
E7
330
2
100
AcDbEntity
  8
DIM
100
AcDbText
 10
321.0332954361118
 20
246.9330034413584
 30
0.0
 40
1.8
  1
PKG.(REF.)
  7
SIMPLEX
100
AcDbText
  0
TEXT
  5
E8
330
2
100
AcDbEntity
  8
DIM
100
AcDbText
 10
356.9155568189798
 20
220.7100245690129
 30
0.0
 40
1.8
  1
PKG.(REF.)
 50
90.0
  7
SIMPLEX
100
AcDbText
  0
SOLID
  5
E9
330
2
100
AcDbEntity
  8
DIM
100
AcDbTrace
 10
484.8655568198076
 20
296.3080797582997
 30
0.0
 11
484.3655568198076
 21
293.3080797582997
 31
0.0
 12
485.3655568198075
 22
293.3080797582997
 32
0.0
 13
485.3655568198075
 23
293.3080797582997
 33
0.0
  0
LINE
  5
EA
330
2
100
AcDbEntity
  8
DIM
100
AcDbLine
 10
484.8655568198076
 20
289.3330034384813
 30
0.0
 11
484.8655568198076
 21
295.5830034417363
 31
0.0
  0
TEXT
  5
EB
330
2
100
AcDbEntity
  8
DIM
100
AcDbText
 10
483.9560605192298
 20
296.8658724114538
 30
0.0
 40
2.5
  1
C
  7
SIMPLEX
100
AcDbText
  0
SOLID
  5
EC
330
2
100
AcDbEntity
  8
DIM
100
AcDbTrace
 10
350.0650476919006
 20
296.3080797582997
 30
0.0
 11
349.5650476919006
 21
293.3080797582997
 31
0.0
 12
350.5650476919007
 22
293.3080797582997
 32
0.0
 13
350.5650476919007
 23
293.3080797582997
 33
0.0
  0
LINE
  5
ED
330
2
100
AcDbEntity
  8
DIM
100
AcDbLine
 10
350.0650476919006
 20
289.3330034384813
 30
0.0
 11
350.0650476919006
 21
295.5830034417363
 31
0.0
  0
TEXT
  5
EE
330
2
100
AcDbEntity
  8
DIM
100
AcDbText
 10
349.155551391323
 20
296.8658724114538
 30
0.0
 40
2.5
  1
C
  7
SIMPLEX
100
AcDbText
  0
LINE
  5
EF
330
2
100
AcDbEntity
  8
DIM
100
AcDbLine
 10
350.0650476919006
 20
289.3330034384813
 30
0.0
 11
391.8331663036104
 21
289.3330034384813
 31
0.0
  0
LINE
  5
F0
330
2
100
AcDbEntity
  8
CEN
100
AcDbLine
 10
411.3155568192906
 20
184.419328806544
 30
0.0
 11
411.3155568192906
 21
164.3903088422038
 31
0.0
  0
LINE
  5
F1
330
2
100
AcDbEntity
  8
DIM
100
AcDbLine
 10
342.0013443194507
 20
120.1877419663638
 30
0.0
 11
342.0013443194507
 21
143.8253777891248
 31
0.0
  0
LINE
  5
F2
330
2
100
AcDbEntity
  8
DIM
100
AcDbLine
 10
347.5013443194507
 20
128.1443478300501
 30
0.0
 11
347.5013443194507
 21
150.3453098494827
 31
0.0
  0
LINE
  5
F3
330
2
100
AcDbEntity
  8
DIM
100
AcDbLine
 10
339.0013443194507
 20
142.8253777891248
 30
0.0
 11
336.0013443194507
 21
142.8253777891248
 31
0.0
  0
SOLID
  5
F4
330
2
100
AcDbEntity
  8
DIM
100
AcDbTrace
 10
342.0013443194507
 20
142.8253777891248
 30
0.0
 11
339.0013443194507
 21
142.3253777891248
 31
0.0
 12
339.0013443194507
 22
143.3253777891249
 32
0.0
 13
339.0013443194507
 23
143.3253777891249
 33
0.0
  0
LINE
  5
F5
330
2
100
AcDbEntity
  8
DIM
100
AcDbLine
 10
350.5013443194507
 20
142.8253777891248
 30
0.0
 11
364.3410441967694
 21
142.8253777891248
 31
0.0
  0
SOLID
  5
F6
330
2
100
AcDbEntity
  8
DIM
100
AcDbTrace
 10
347.5013443194507
 20
142.8253777891248
 30
0.0
 11
350.5013443194507
 21
142.3253777891248
 31
0.0
 12
350.5013443194507
 22
143.3253777891249
 32
0.0
 13
350.5013443194507
 23
143.3253777891249
 33
0.0
  0
MTEXT
  5
F7
330
2
100
AcDbEntity
  8
DIM
100
AcDbMText
 10
357.9386307268864
 20
144.9253777891248
 30
0.0
 40
2.5
 41
0.0
 46
0.0
 71
     5
 72
     1
  1
0.2500
  7
SIMPLEX
 73
     1
 44
1.0
  0
LINE
  5
F8
330
2
100
AcDbEntity
  8
DIM
100
AcDbLine
 10
342.0013443194507
 20
142.8253777891248
 30
0.0
 11
347.5013443194507
 21
142.8253777891248
 31
0.0
  0
MTEXT
  5
F9
330
2
100
AcDbEntity
  8
DIM
100
AcDbMText
 10
357.8884235405307
 20
141.1045517356364
 30
0.0
 40
1.800000000000011
 41
0.0
 46
0.0
 71
     5
 72
     1
  1
TYP.
  7
SIMPLEX
 73
     1
 44
1.0
  0
MTEXT
  5
FA
330
2
100
AcDbEntity
  8
DIM
100
AcDbMText
 10
357.5745447802424
 20
151.4453098494828
 30
0.0
 40
2.5
 41
0.0
 46
0.0
 71
     5
 72
     1
  1
0.5000
  7
SIMPLEX
 73
     1
 44
1.0
  0
SOLID
  5
FB
330
2
100
AcDbEntity
  8
DIM
100
AcDbTrace
 10
336.5013443194507
 20
149.3453098494827
 30
0.0
 11
333.5013443194507
 21
149.8453098494828
 31
0.0
 12
333.5013443194507
 22
148.8453098494827
 32
0.0
 13
333.5013443194507
 23
148.8453098494827
 33
0.0
  0
SOLID
  5
FC
330
2
100
AcDbEntity
  8
DIM
100
AcDbTrace
 10
347.5013443194507
 20
149.3453098494827
 30
0.0
 11
350.5013443194507
 21
149.8453098494828
 31
0.0
 12
350.5013443194507
 22
148.8453098494827
 32
0.0
 13
350.5013443194507
 23
148.8453098494827
 33
0.0
  0
LINE
  5
FD
330
2
100
AcDbEntity
  8
DIM
100
AcDbLine
 10
350.5013443194507
 20
149.3453098494827
 30
0.0
 11
364.6278400150958
 21
149.3453098494827
 31
0.0
  0
LINE
  5
FE
330
2
100
AcDbEntity
  8
DIM
100
AcDbLine
 10
347.5013443194507
 20
149.3453098494827
 30
0.0
 11
336.5013443194507
 21
149.3453098494827
 31
0.0
  0
MTEXT
  5
FF
330
2
100
AcDbEntity
  8
DIM
100
AcDbMText
 10
358.3242665278421
 20
154.5385560529048
 30
0.0
 40
1.799999999999981
 41
0.0
 46
0.0
 71
     5
 72
     1
  1
TYP.
  7
SIMPLEX
 73
     1
 44
1.0
  0
LWPOLYLINE
  5
100
330
2
100
AcDbEntity
  8
COIN-LINE
100
AcDbPolyline
 90
        6
 70
     1
 43
0.0
 10
349.5323239757873
 20
173.0710210792974
 42
-0.2518611044887592
 10
349.4110261226938
 20
175.7693470784685
 10
476.4525115551789
 20
175.7693470784685
 42
0.2518611044887606
 10
476.5738094082723
 20
173.0710210792974
 42
-0.1978848575915758
 10
476.7404934379733
 20
171.3033470784686
 10
349.6990080054885
 20
171.3033470784685
 42
0.1978848575915767
  0
TEXT
  5
101
330
2
100
AcDbEntity
  8
COIN-LINE
100
AcDbText
 10
304.540955828895
 20
298.7189249969911
 30
0.0
 40
1.727999999999999
  1
A
  7
SIMPLEX
100
AcDbText
  0
LINE
  5
102
330
2
100
AcDbEntity
  8
COIN-LINE
100
AcDbLine
 10
305.1955568193843
 20
302.1730034413594
 30
0.0
 11
307.1155568193843
 21
298.3330034413595
 31
0.0
  0
LINE
  5
103
330
2
100
AcDbEntity
  8
COIN-LINE
100
AcDbLine
 10
307.1155568193843
 20
298.3330034413595
 30
0.0
 11
303.2755568193844
 21
298.3330034413594
 31
0.0
  0
LINE
  5
104
330
2
100
AcDbEntity
  8
COIN-LINE
100
AcDbLine
 10
303.2755568193844
 20
298.3330034413594
 30
0.0
 11
305.1955568193843
 21
302.1730034413594
 31
0.0
  0
LINE
  5
105
330
2
100
AcDbEntity
  8
DIM
100
AcDbLine
 10
436.6155568193865
 20
316.2930034413628
 30
0.0
 11
436.6155568193865
 21
343.3030034412491
 31
0.0
  0
LINE
  5
106
330
2
100
AcDbEntity
  8
DIM
100
AcDbLine
 10
441.4555568193858
 20
309.6930034413613
 30
0.0
 11
441.4555568193858
 21
343.3030034412491
 31
0.0
  0
LINE
  5
107
330
2
100
AcDbEntity
  8
DIM
100
AcDbLine
 10
446.5155568193862
 20
311.2330034413605
 30
0.0
 11
446.5155568193862
 21
343.3030034412491
 31
0.0
  0
LINE
  5
108
330
2
100
AcDbEntity
  8
DIM
100
AcDbLine
 10
362.5755568193917
 20
295.9330034413597
 30
0.0
 11
336.1155568193859
 21
295.9330034413597
 31
0.0
  0
LINE
  5
109
330
2
100
AcDbEntity
  8
COIN-LINE
100
AcDbLine
 10
336.1155568193859
 20
295.9330034413597
 30
0.0
 11
331.1155568193843
 21
298.3330034413595
 31
0.0
  0
LINE
  5
10A
330
2
100
AcDbEntity
  8
DIM
100
AcDbLine
 10
331.1155568193843
 20
298.3330034413595
 30
0.0
 11
308.1155568193843
 21
298.3330034413595
 31
0.0
  0
TEXT
  5
10B
330
2
100
AcDbEntity
  8
DIM
100
AcDbText
 10
308.1155568193843
 20
298.8330034413595
 30
0.0
 40
2.5
  1
0.3000
  7
SIMPLEX
100
AcDbText
  0
LINE
  5
10C
330
2
100
AcDbEntity
  8
DIM
100
AcDbLine
 10
389.8555568193781
 20
279.4330034413597
 30
0.0
 11
336.1155568193859
 21
279.4330034413597
 31
0.0
  0
LINE
  5
10D
330
2
100
AcDbEntity
  8
COIN-LINE
100
AcDbLine
 10
336.1155568193859
 20
279.4330034413597
 30
0.0
 11
331.1155568193858
 21
279.4330034413597
 31
0.0
  0
LINE
  5
10E
330
2
100
AcDbEntity
  8
DIM
100
AcDbLine
 10
331.1155568193858
 20
279.4330034413597
 30
0.0
 11
308.1155568193858
 21
279.4330034413597
 31
0.0
  0
TEXT
  5
10F
330
2
100
AcDbEntity
  8
DIM
100
AcDbText
 10
308.1155568193858
 20
279.9330034413598
 30
0.0
 40
2.5
  1
0.4500
  7
SIMPLEX
100
AcDbText
  0
LINE
  5
110
330
2
100
AcDbEntity
  8
DIM
100
AcDbLine
 10
390.8555568193794
 20
267.4330034413585
 30
0.0
 11
390.8555568193794
 21
235.3630034414698
 31
0.0
  0
LINE
  5
111
330
2
100
AcDbEntity
  8
COIN-LINE
100
AcDbLine
 10
390.8555568193794
 20
235.3630034414698
 30
0.0
 11
390.8555568193788
 21
230.3630034414697
 31
0.0
  0
LINE
  5
112
330
2
100
AcDbEntity
  8
DIM
100
AcDbLine
 10
390.8555568193788
 20
230.3630034414697
 30
0.0
 11
390.8555568193788
 21
207.3630034414697
 31
0.0
  0
TEXT
  5
113
330
2
100
AcDbEntity
  8
DIM
100
AcDbText
 10
390.3555568193788
 20
207.3630034414697
 30
0.0
 40
2.5
  1
0.9300
 50
90.0
  7
SIMPLEX
100
AcDbText
  0
LINE
  5
114
330
2
100
AcDbEntity
  8
DIM
100
AcDbLine
 10
395.9155568193797
 20
268.9730034413577
 30
0.0
 11
395.9155568193797
 21
235.3630034414698
 31
0.0
  0
LINE
  5
115
330
2
100
AcDbEntity
  8
COIN-LINE
100
AcDbLine
 10
395.9155568193797
 20
235.3630034414698
 30
0.0
 11
395.9155568193787
 21
230.3630034414697
 31
0.0
  0
LINE
  5
116
330
2
100
AcDbEntity
  8
DIM
100
AcDbLine
 10
395.9155568193787
 20
230.3630034414697
 30
0.0
 11
395.9155568193787
 21
207.3630034414697
 31
0.0
  0
TEXT
  5
117
330
2
100
AcDbEntity
  8
DIM
100
AcDbText
 10
395.4155568193787
 20
207.3630034414697
 30
0.0
 40
2.5
  1
0.7000
 50
90.0
  7
SIMPLEX
100
AcDbText
  0
LINE
  5
118
330
2
100
AcDbEntity
  8
DIM
100
AcDbLine
 10
400.7555568193878
 20
262.37300344136
 30
0.0
 11
400.7555568193878
 21
235.3630034414698
 31
0.0
  0
LINE
  5
119
330
2
100
AcDbEntity
  8
COIN-LINE
100
AcDbLine
 10
400.7555568193878
 20
235.3630034414698
 30
0.0
 11
400.7555568193878
 21
230.3630034414697
 31
0.0
  0
LINE
  5
11A
330
2
100
AcDbEntity
  8
DIM
100
AcDbLine
 10
400.7555568193878
 20
230.3630034414697
 30
0.0
 11
400.7555568193878
 21
207.3630034414697
 31
0.0
  0
TEXT
  5
11B
330
2
100
AcDbEntity
  8
DIM
100
AcDbText
 10
400.2555568193878
 20
207.3630034414697
 30
0.0
 40
2.5
  1
0.4800
 50
90.0
  7
SIMPLEX
100
AcDbText
  0
LINE
  5
11C
330
2
100
AcDbEntity
  8
DIM
100
AcDbLine
 10
447.5155568193875
 20
282.7330034413598
 30
0.0
 11
484.8655568198076
 21
282.7330034413598
 31
0.0
  0
LINE
  5
11D
330
2
100
AcDbEntity
  8
COIN-LINE
100
AcDbLine
 10
484.8655568198076
 20
282.7330034413598
 30
0.0
 11
489.8655568198075
 21
280.3330034413582
 31
0.0
  0
LINE
  5
11E
330
2
100
AcDbEntity
  8
DIM
100
AcDbLine
 10
489.8655568198075
 20
280.3330034413582
 30
0.0
 11
512.8655568198077
 21
280.3330034413582
 31
0.0
  0
TEXT
  5
11F
330
2
100
AcDbEntity
  8
DIM
100
AcDbText
 10
500.4846044388553
 20
280.8330034413582
 30
0.0
 40
2.5
  1
0.3000
  7
SIMPLEX
 72
     2
 11
512.8655568198077
 21
280.8330034413582
 31
0.0
100
AcDbText
  0
LINE
  5
120
330
2
100
AcDbEntity
  8
COIN-LINE
100
AcDbLine
 10
336.1155568193859
 20
274.3730034413569
 30
0.0
 11
331.1155568193858
 21
274.3730034413569
 31
0.0
  0
LINE
  5
121
330
2
100
AcDbEntity
  8
DIM
100
AcDbLine
 10
331.1155568193858
 20
274.3730034413569
 30
0.0
 11
308.1155568193858
 21
274.3730034413569
 31
0.0
  0
TEXT
  5
122
330
2
100
AcDbEntity
  8
DIM
100
AcDbText
 10
308.1155568193858
 20
274.8730034413569
 30
0.0
 40
2.5
  1
0.6800
  7
SIMPLEX
100
AcDbText
  0
LINE
  5
123
330
2
100
AcDbEntity
  8
DIM
100
AcDbLine
 10
375.1155568193915
 20
290.4330034413247
 30
0.0
 11
336.1155568193859
 21
290.4330034413247
 31
0.0
  0
LINE
  5
124
330
2
100
AcDbEntity
  8
COIN-LINE
100
AcDbLine
 10
336.1155568193859
 20
290.4330034413247
 30
0.0
 11
331.1155568193858
 21
290.4330034413247
 31
0.0
  0
LINE
  5
125
330
2
100
AcDbEntity
  8
DIM
100
AcDbLine
 10
331.1155568193858
 20
290.4330034413247
 30
0.0
 11
308.1155568193858
 21
290.4330034413247
 31
0.0
  0
TEXT
  5
126
330
2
100
AcDbEntity
  8
DIM
100
AcDbText
 10
308.1155568193858
 20
290.9330034413248
 30
0.0
 40
2.5
  1
0.0500
  7
SIMPLEX
100
AcDbText
  0
LINE
  5
127
330
2
100
AcDbEntity
  8
DIM
100
AcDbLine
 10
447.5155568193886
 20
293.7330034413599
 30
0.0
 11
484.8655568198076
 21
293.7330034413599
 31
0.0
  0
LINE
  5
128
330
2
100
AcDbEntity
  8
COIN-LINE
100
AcDbLine
 10
484.8655568198076
 20
293.7330034413599
 30
0.0
 11
489.8655568198075
 21
293.7330034413599
 31
0.0
  0
LINE
  5
129
330
2
100
AcDbEntity
  8
DIM
100
AcDbLine
 10
489.8655568198075
 20
293.7330034413599
 30
0.0
 11
512.8655568198077
 21
293.7330034413599
 31
0.0
  0
TEXT
  5
12A
330
2
100
AcDbEntity
  8
DIM
100
AcDbText
 10
500.4846044388553
 20
294.2330034413599
 30
0.0
 40
2.5
  1
0.2000
  7
SIMPLEX
 72
     2
 11
512.8655568198077
 21
294.2330034413599
 31
0.0
100
AcDbText
  0
LINE
  5
12B
330
2
100
AcDbEntity
  8
DIM
100
AcDbLine
 10
389.8555568193793
 20
268.4330034413585
 30
0.0
 11
336.1155568193859
 21
268.4330034413585
 31
0.0
  0
LINE
  5
12C
330
2
100
AcDbEntity
  8
COIN-LINE
100
AcDbLine
 10
336.1155568193859
 20
268.4330034413585
 30
0.0
 11
331.1155568193858
 21
268.4330034413585
 31
0.0
  0
LINE
  5
12D
330
2
100
AcDbEntity
  8
DIM
100
AcDbLine
 10
331.1155568193858
 20
268.4330034413585
 30
0.0
 11
308.1155568193858
 21
268.4330034413585
 31
0.0
  0
TEXT
  5
12E
330
2
100
AcDbEntity
  8
DIM
100
AcDbText
 10
308.1155568193858
 20
268.9330034413585
 30
0.0
 40
2.5
  1
0.9500
  7
SIMPLEX
100
AcDbText
  0
LINE
  5
12F
330
2
100
AcDbEntity
  8
DIM
100
AcDbLine
 10
447.5155568193862
 20
310.2330034413605
 30
0.0
 11
484.8655568198076
 21
310.2330034413605
 31
0.0
  0
LINE
  5
130
330
2
100
AcDbEntity
  8
COIN-LINE
100
AcDbLine
 10
484.8655568198076
 20
310.2330034413605
 30
0.0
 11
489.8655568198075
 21
310.2330034413605
 31
0.0
  0
LINE
  5
131
330
2
100
AcDbEntity
  8
DIM
100
AcDbLine
 10
489.8655568198075
 20
310.2330034413605
 30
0.0
 11
512.8655568198077
 21
310.2330034413605
 31
0.0
  0
TEXT
  5
132
330
2
100
AcDbEntity
  8
DIM
100
AcDbText
 10
500.4846044388553
 20
310.7330034413605
 30
0.0
 40
2.5
  1
0.9500
  7
SIMPLEX
 72
     2
 11
512.8655568198077
 21
310.7330034413605
 31
0.0
100
AcDbText
  0
LINE
  5
133
330
2
100
AcDbEntity
  8
DIM
100
AcDbLine
 10
460.0555568193986
 20
278.3330034413595
 30
0.0
 11
484.8655568198076
 21
278.3330034413595
 31
0.0
  0
LINE
  5
134
330
2
100
AcDbEntity
  8
COIN-LINE
100
AcDbLine
 10
484.8655568198076
 20
278.3330034413595
 30
0.0
 11
489.8655568198075
 21
276.8330034413582
 31
0.0
  0
LINE
  5
135
330
2
100
AcDbEntity
  8
DIM
100
AcDbLine
 10
489.8655568198075
 20
276.8330034413582
 30
0.0
 11
512.8655568198077
 21
276.8330034413582
 31
0.0
  0
TEXT
  5
136
330
2
100
AcDbEntity
  8
DIM
100
AcDbText
 10
500.4846044388553
 20
277.3330034413582
 30
0.0
 40
2.5
  1
0.5000
  7
SIMPLEX
 72
     2
 11
512.8655568198077
 21
277.3330034413582
 31
0.0
100
AcDbText
  0
LINE
  5
137
330
2
100
AcDbEntity
  8
DIM
100
AcDbLine
 10
459.0555568193986
 20
277.3330034413595
 30
0.0
 11
459.0555568193986
 21
235.3630034414698
 31
0.0
  0
LINE
  5
138
330
2
100
AcDbEntity
  8
COIN-LINE
100
AcDbLine
 10
459.0555568193986
 20
235.3630034414698
 30
0.0
 11
459.0555568193986
 21
230.3630034414697
 31
0.0
  0
LINE
  5
139
330
2
100
AcDbEntity
  8
DIM
100
AcDbLine
 10
459.0555568193986
 20
230.3630034414697
 30
0.0
 11
459.0555568193986
 21
207.3630034414697
 31
0.0
  0
TEXT
  5
13A
330
2
100
AcDbEntity
  8
DIM
100
AcDbText
 10
458.5555568193986
 20
207.3630034414697
 30
0.0
 40
2.5
  1
2.1700
 50
90.0
  7
SIMPLEX
100
AcDbText
  0
LINE
  5
13B
330
2
100
AcDbEntity
  8
DIM
100
AcDbLine
 10
454.215556819394
 20
278.8730034413569
 30
0.0
 11
454.215556819394
 21
235.3630034414698
 31
0.0
  0
LINE
  5
13C
330
2
100
AcDbEntity
  8
COIN-LINE
100
AcDbLine
 10
454.215556819394
 20
235.3630034414698
 30
0.0
 11
454.215556819394
 21
230.3630034414697
 31
0.0
  0
LINE
  5
13D
330
2
100
AcDbEntity
  8
DIM
100
AcDbLine
 10
454.215556819394
 20
230.3630034414697
 30
0.0
 11
454.215556819394
 21
207.3630034414697
 31
0.0
  0
TEXT
  5
13E
330
2
100
AcDbEntity
  8
DIM
100
AcDbText
 10
453.7155568193941
 20
207.3630034414697
 30
0.0
 40
2.5
  1
1.9500
 50
90.0
  7
SIMPLEX
100
AcDbText
  0
LINE
  5
13F
330
2
100
AcDbEntity
  8
DIM
100
AcDbLine
 10
386.8855568197735
 20
316.833003441362
 30
0.0
 11
366.0055568193417
 21
316.833003441362
 31
0.0
  0
LINE
  5
140
330
2
100
AcDbEntity
  8
COIN-LINE
100
AcDbLine
 10
336.1155568193859
 20
316.833003441362
 30
0.0
 11
331.1155568193858
 21
316.833003441362
 31
0.0
  0
LINE
  5
141
330
2
100
AcDbEntity
  8
DIM
100
AcDbLine
 10
331.1155568193858
 20
316.833003441362
 30
0.0
 11
308.1155568193858
 21
316.833003441362
 31
0.0
  0
TEXT
  5
142
330
2
100
AcDbEntity
  8
DIM
100
AcDbText
 10
308.1155568193858
 20
317.333003441362
 30
0.0
 40
2.5
  1
1.2500
  7
SIMPLEX
100
AcDbText
  0
LINE
  5
143
330
2
100
AcDbEntity
  8
DIM
100
AcDbLine
 10
446.5155568193848
 20
272.5808923274644
 30
0.0
 11
446.5155568193848
 21
235.3630034414698
 31
0.0
  0
LINE
  5
144
330
2
100
AcDbEntity
  8
COIN-LINE
100
AcDbLine
 10
446.5155568193848
 20
235.3630034414698
 30
0.0
 11
446.5155568193848
 21
230.3630034414697
 31
0.0
  0
LINE
  5
145
330
2
100
AcDbEntity
  8
DIM
100
AcDbLine
 10
446.5155568193848
 20
230.3630034414697
 30
0.0
 11
446.5155568193848
 21
207.3630034414697
 31
0.0
  0
TEXT
  5
146
330
2
100
AcDbEntity
  8
DIM
100
AcDbText
 10
446.0155568193848
 20
207.3630034414697
 30
0.0
 40
2.5
  1
1.6000
 50
90.0
  7
SIMPLEX
100
AcDbText
  0
LINE
  5
147
330
2
100
AcDbEntity
  8
DIM
100
AcDbLine
 10
364.0055568193417
 20
316.833003441362
 30
0.0
 11
336.1155568193859
 21
316.833003441362
 31
0.0
  0
MTEXT
  5
148
102
{ACAD_XDICTIONARY
360
149
102
}
330
2
100
AcDbEntity
  8
DIM
100
AcDbMText
 10
367.9863366453151
 20
308.5273169292284
 30
0.0
 40
2.5
 41
0.0
 46
0.0
 71
     5
 72
     1
  1
\A1;45%%d
  7
SIMPLEX
 73
     1
 44
1.0
  0
POINT
  5
14A
330
2
100
AcDbEntity
  8
DIM
100
AcDbPoint
 10
386.8855568197735
 20
316.833003441362
 30
0.0
  0
MTEXT
  5
14B
330
2
100
AcDbEntity
  8
DIM
100
AcDbMText
 10
368.0860277227649
 20
305.8014517109772
 30
0.0
 40
1.800000000000011
 41
0.0
 46
0.0
 71
     5
 72
     1
  1
TYP.
  7
SIMPLEX
 73
     1
 44
1.0
  0
SOLID
  5
14C
330
2
100
AcDbEntity
  8
DIM
100
AcDbTrace
 10
365.0055568193417
 20
311.4866370070653
 30
0.0
 11
362.4774290480905
 21
311.6660278745587
 31
0.0
 12
362.672265425183
 22
312.4762644021271
 32
0.0
 13
362.672265425183
 23
312.4762644021271
 33
0.0
  0
SOLID
  5
14D
330
2
100
AcDbEntity
  8
DIM
100
AcDbTrace
 10
368.7860087797399
 20
313.0525514809631
 30
0.0
 11
369.7361227051363
 21
315.4022098901534
 31
0.0
 12
370.4468165716094
 22
314.967056270609
 32
0.0
 13
370.4468165716094
 23
314.967056270609
 33
0.0
  0
LINE
  5
14E
330
2
100
AcDbEntity
  8
DIM
100
AcDbLine
 10
365.0055568193417
 20
315.8330034413582
 30
0.0
 11
365.0055568193417
 21
310.4866370070653
 31
0.0
  0
ARC
  5
14F
330
2
100
AcDbEntity
  8
DIM
100
AcDbCircle
 10
365.0055568193417
 20
316.8330034413582
 30
0.0
 40
5.346366434292929
100
AcDbArc
 50
342.0422253627985
 51
10.75818657537395
  0
ARC
  5
150
330
2
100
AcDbEntity
  8
DIM
100
AcDbCircle
 10
365.0055568193417
 20
316.8330034413582
 30
0.0
 40
5.346366434292929
100
AcDbArc
 50
214.2418134246504
 51
242.9577746372249
  0
ARC
  5
151
330
2
100
AcDbEntity
  8
DIM
100
AcDbCircle
 10
365.0055568193417
 20
316.8330034413582
 30
0.0
 40
5.346366434292929
100
AcDbArc
 50
242.9577746372249
 51
342.0422253627985
  0
TEXT
  5
152
330
2
100
AcDbEntity
  8
COIN-LINE
100
AcDbText
 10
304.5409558288966
 20
290.8189249969563
 30
0.0
 40
1.727999999999999
  1
A
  7
SIMPLEX
100
AcDbText
  0
LINE
  5
153
330
2
100
AcDbEntity
  8
COIN-LINE
100
AcDbLine
 10
305.1955568193859
 20
294.2730034413246
 30
0.0
 11
307.1155568193859
 21
290.4330034413247
 31
0.0
  0
LINE
  5
154
330
2
100
AcDbEntity
  8
COIN-LINE
100
AcDbLine
 10
307.1155568193859
 20
290.4330034413247
 30
0.0
 11
303.275556819386
 21
290.4330034413246
 31
0.0
  0
LINE
  5
155
330
2
100
AcDbEntity
  8
COIN-LINE
100
AcDbLine
 10
303.275556819386
 20
290.4330034413246
 30
0.0
 11
305.1955568193859
 21
294.2730034413246
 31
0.0
  0
LINE
  5
156
330
2
100
AcDbEntity
  8
DIM
100
AcDbLine
 10
396.4555568193796
 20
274.3730034413569
 30
0.0
 11
336.1155568193859
 21
274.3730034413569
 31
0.0
  0
TEXT
  5
157
330
2
100
AcDbEntity
  8
COIN-LINE
100
AcDbText
 10
304.5409558288966
 20
279.8189249969914
 30
0.0
 40
1.727999999999999
  1
A
  7
SIMPLEX
100
AcDbText
  0
LINE
  5
158
330
2
100
AcDbEntity
  8
COIN-LINE
100
AcDbLine
 10
305.1955568193859
 20
283.2730034413597
 30
0.0
 11
307.1155568193859
 21
279.4330034413597
 31
0.0
  0
LINE
  5
159
330
2
100
AcDbEntity
  8
COIN-LINE
100
AcDbLine
 10
307.1155568193859
 20
279.4330034413597
 30
0.0
 11
303.275556819386
 21
279.4330034413596
 31
0.0
  0
LINE
  5
15A
330
2
100
AcDbEntity
  8
COIN-LINE
100
AcDbLine
 10
303.275556819386
 20
279.4330034413596
 30
0.0
 11
305.1955568193859
 21
283.2730034413597
 31
0.0
  0
TEXT
  5
15B
330
2
100
AcDbEntity
  8
COIN-LINE
100
AcDbText
 10
304.5409558288966
 20
274.7589249969885
 30
0.0
 40
1.727999999999999
  1
A
  7
SIMPLEX
100
AcDbText
  0
LINE
  5
15C
330
2
100
AcDbEntity
  8
COIN-LINE
100
AcDbLine
 10
305.1955568193859
 20
278.2130034413567
 30
0.0
 11
307.1155568193859
 21
274.3730034413569
 31
0.0
  0
LINE
  5
15D
330
2
100
AcDbEntity
  8
COIN-LINE
100
AcDbLine
 10
307.1155568193859
 20
274.3730034413569
 30
0.0
 11
303.275556819386
 21
274.3730034413567
 31
0.0
  0
LINE
  5
15E
330
2
100
AcDbEntity
  8
COIN-LINE
100
AcDbLine
 10
303.275556819386
 20
274.3730034413567
 30
0.0
 11
305.1955568193859
 21
278.2130034413567
 31
0.0
  0
TEXT
  5
15F
330
2
100
AcDbEntity
  8
COIN-LINE
100
AcDbText
 10
304.5409558288966
 20
268.8189249969901
 30
0.0
 40
1.727999999999999
  1
A
  7
SIMPLEX
100
AcDbText
  0
TEXT
  5
160
330
2
100
AcDbEntity
  8
COIN-LINE
100
AcDbText
 10
390.3929163171804
 20
203.7884024509805
 30
0.0
 40
1.727999999999999
  1
A
 50
90.0
  7
SIMPLEX
100
AcDbText
  0
LWPOLYLINE
  5
161
330
2
100
AcDbEntity
  8
COIN-LINE
100
AcDbPolyline
 90
        3
 70
     1
 43
0.0
 10
390.7788378728121
 20
202.5230034414698
 10
386.9388378728121
 20
204.4430034414697
 10
390.778837872812
 20
206.3630034414698
  0
TEXT
  5
162
330
2
100
AcDbEntity
  8
COIN-LINE
100
AcDbText
 10
395.6801573883565
 20
203.7884024509805
 30
0.0
 40
1.727999999999999
  1
A
 50
90.0
  7
SIMPLEX
100
AcDbText
  0
LWPOLYLINE
  5
163
330
2
100
AcDbEntity
  8
COIN-LINE
100
AcDbPolyline
 90
        3
 70
     1
 43
0.0
 10
396.0660789439882
 20
202.5230034414698
 10
392.2260789439882
 20
204.4430034414697
 10
396.0660789439881
 20
206.3630034414698
  0
TEXT
  5
164
330
2
100
AcDbEntity
  8
COIN-LINE
100
AcDbText
 10
401.5199073267604
 20
203.7884024509805
 30
0.0
 40
1.727999999999999
  1
A
 50
89.99999999999673
  7
SIMPLEX
100
AcDbText
  0
LWPOLYLINE
  5
165
330
2
100
AcDbEntity
  8
COIN-LINE
100
AcDbPolyline
 90
        3
 70
     1
 43
0.0
 10
401.9058288823921
 20
202.5230034414698
 10
398.0658288823921
 20
204.4430034414697
 10
401.9058288823919
 20
206.3630034414698
  0
TEXT
  5
166
330
2
100
AcDbEntity
  8
COIN-LINE
100
AcDbText
 10
446.1296352637533
 20
203.7884024509805
 30
0.0
 40
1.727999999999999
  1
A
 50
89.99999999999673
  7
SIMPLEX
100
AcDbText
  0
LWPOLYLINE
  5
167
330
2
100
AcDbEntity
  8
COIN-LINE
100
AcDbPolyline
 90
        3
 70
     1
 43
0.0
 10
446.5155568193851
 20
202.5230034414698
 10
442.6755568193851
 20
204.4430034414697
 10
446.5155568193848
 20
206.3630034414698
  0
TEXT
  5
168
330
2
100
AcDbEntity
  8
COIN-LINE
100
AcDbText
 10
453.8296352637626
 20
203.7884024509805
 30
0.0
 40
1.727999999999999
  1
A
 50
89.99999999999673
  7
SIMPLEX
100
AcDbText
  0
LWPOLYLINE
  5
169
330
2
100
AcDbEntity
  8
COIN-LINE
100
AcDbPolyline
 90
        3
 70
     1
 43
0.0
 10
454.2155568193942
 20
202.5230034414698
 10
450.3755568193943
 20
204.4430034414697
 10
454.215556819394
 20
206.3630034414698
  0
TEXT
  5
16A
330
2
100
AcDbEntity
  8
COIN-LINE
100
AcDbText
 10
458.669635263767
 20
203.7884024509805
 30
0.0
 40
1.727999999999999
  1
A
 50
89.99999999999673
  7
SIMPLEX
100
AcDbText
  0
LWPOLYLINE
  5
16B
330
2
100
AcDbEntity
  8
COIN-LINE
100
AcDbPolyline
 90
        3
 70
     1
 43
0.0
 10
459.0555568193986
 20
202.5230034414698
 10
455.2155568193986
 20
204.4430034414697
 10
459.0555568193986
 20
206.3630034414698
  0
LWPOLYLINE
  5
16C
330
2
100
AcDbEntity
  8
COIN-LINE
100
AcDbPolyline
 90
        3
 70
     1
 43
0.0
 10
303.275556819386
 20
268.4330034413584
 10
305.1955568193859
 20
272.2730034413584
 10
307.1155568193859
 20
268.4330034413585
  0
TEXT
  5
16D
330
2
100
AcDbEntity
  8
COIN-LINE
100
AcDbText
 10
515.1309558293181
 20
276.8224915765407
 30
0.0
 40
1.727999999999999
  1
A
  7
SIMPLEX
100
AcDbText
  0
LWPOLYLINE
  5
16E
330
2
100
AcDbEntity
  8
COIN-LINE
100
AcDbPolyline
 90
        3
 70
     1
 43
0.0
 10
513.8655568198077
 20
276.4365700209089
 10
515.7855568198073
 20
280.2765700209089
 10
517.7055568198075
 20
276.436570020909
  0
TEXT
  5
16F
330
2
100
AcDbEntity
  8
COIN-LINE
100
AcDbText
 10
515.1309558293181
 20
281.0350362493718
 30
0.0
 40
1.727999999999999
  1
A
  7
SIMPLEX
100
AcDbText
  0
LWPOLYLINE
  5
170
330
2
100
AcDbEntity
  8
COIN-LINE
100
AcDbPolyline
 90
        3
 70
     1
 43
0.0
 10
513.8655568198077
 20
280.64911469374
 10
515.7855568198073
 20
284.4891146937401
 10
517.7055568198075
 20
280.6491146937402
  0
TEXT
  5
171
330
2
100
AcDbEntity
  8
COIN-LINE
100
AcDbText
 10
515.1309558293181
 20
294.1571683009268
 30
0.0
 40
1.727999999999999
  1
A
  7
SIMPLEX
100
AcDbText
  0
LWPOLYLINE
  5
172
330
2
100
AcDbEntity
  8
COIN-LINE
100
AcDbPolyline
 90
        3
 70
     1
 43
0.0
 10
513.8655568198077
 20
293.7712467452951
 10
515.7855568198073
 20
297.6112467452951
 10
517.7055568198075
 20
293.7712467452952
  0
TEXT
  5
173
330
2
100
AcDbEntity
  8
COIN-LINE
100
AcDbText
 10
515.1309558293181
 20
310.6228706529461
 30
0.0
 40
1.727999999999999
  1
A
  7
SIMPLEX
100
AcDbText
  0
LWPOLYLINE
  5
174
330
2
100
AcDbEntity
  8
COIN-LINE
100
AcDbPolyline
 90
        3
 70
     1
 43
0.0
 10
513.8655568198077
 20
310.2369490973144
 10
515.7855568198073
 20
314.0769490973144
 10
517.7055568198075
 20
310.2369490973145
  0
LWPOLYLINE
  5
175
330
2
100
AcDbEntity
  8
LF-LINE
100
AcDbPolyline
 90
       26
 70
     1
 43
0.0
 10
377.2013443195475
 20
100.7443478329281
 10
377.201344319545
 20
91.59223671903266
 42
0.1989123673795946
 10
377.6523998765165
 20
90.50329227600554
 10
388.3113443198525
 20
79.84434783265759
 10
388.3113443193241
 20
64.44434783318718
 42
0.4842271261708959
 10
384.3001274643631
 20
64.48706224162629
 42
-0.2961533553545949
 10
379.5113443193254
 20
64.44434783349461
 10
379.5113443194779
 20
68.8443478328727
 42
0.4142135623828467
 10
377.971344319478
 20
70.38434783292633
 10
366.9713443191604
 20
70.38434783292756
 10
366.9713443191554
 20
78.30434783292912
 42
0.4142135623723817
 10
365.4313443191568
 20
79.84434783292897
 10
332.9813443195477
 20
79.84434783292835
 42
-0.4142135623734518
 10
331.4413443195479
 20
81.3843478329282
 10
331.4413443195503
 20
90.8443478329246
 42
0.4142135623727384
 10
329.901344319553
 20
92.38434783292508
 10
328.1413443195396
 20
92.3843478329282
 42
0.4142135623734518
 10
326.6013443195398
 20
90.84434783292772
 10
326.6013443195398
 20
87.98434783292595
 42
-0.4142135623733328
 10
325.0613443195387
 20
86.44434783292609
 10
321.5413443195394
 20
86.44434783292672
 10
321.5413443195381
 20
97.44434783292795
 10
329.901344319548
 20
97.44434783292671
 42
0.4142135623733328
 10
331.4413443195479
 20
98.98434783292657
 10
331.4413443195503
 20
99.20434783292265
 42
-0.4142135623744032
 10
332.9813443195501
 20
100.7443478329281
  0
LINE
  5
176
330
2
100
AcDbEntity
  8
COIN-LINE
100
AcDbLine
 10
411.3155568192906
 20
343.3030034413269
 30
0.0
 11
411.3155568192906
 21
348.3030034413269
 31
0.0
  0
LINE
  5
177
330
2
100
AcDbEntity
  8
DIM
100
AcDbLine
 10
411.3155568192906
 20
348.3030034413269
 30
0.0
 11
411.3155568192906
 21
371.3030034413269
 31
0.0
  0
TEXT
  5
178
330
2
100
AcDbEntity
  8
DIM
100
AcDbText
 10
410.8155568192906
 20
358.9220510603746
 30
0.0
 40
2.5
  1
0.0000
 50
90.0
  7
SIMPLEX
 72
     2
 11
410.8155568192906
 21
371.3030034413269
 31
0.0
100
AcDbText
  0
LINE
  5
179
330
2
100
AcDbEntity
  8
COIN-LINE
100
AcDbLine
 10
343.1155568193843
 20
343.3030034413269
 30
0.0
 11
343.1155568193843
 21
348.3030034413269
 31
0.0
  0
LINE
  5
17A
330
2
100
AcDbEntity
  8
DIM
100
AcDbLine
 10
343.1155568193843
 20
348.3030034413269
 30
0.0
 11
343.1155568193843
 21
371.3030034413269
 31
0.0
  0
TEXT
  5
17B
330
2
100
AcDbEntity
  8
DIM
100
AcDbText
 10
342.6155568193843
 20
359.398241536565
 30
0.0
 40
2.5
  1
3.1000
 50
90.0
  7
SIMPLEX
 72
     2
 11
342.6155568193843
 21
371.3030034413269
 31
0.0
100
AcDbText
  0
LINE
  5
17C
330
2
100
AcDbEntity
  8
COIN-LINE
100
AcDbLine
 10
355.7105568189582
 20
343.3030034413269
 30
0.0
 11
355.7105568189582
 21
348.3030034413269
 31
0.0
  0
LINE
  5
17D
330
2
100
AcDbEntity
  8
DIM
100
AcDbLine
 10
355.7105568189582
 20
348.3030034413269
 30
0.0
 11
355.7105568189582
 21
371.3030034413269
 31
0.0
  0
TEXT
  5
17E
330
2
100
AcDbEntity
  8
DIM
100
AcDbText
 10
355.2105568189582
 20
358.9220510603746
 30
0.0
 40
2.5
  1
2.5275
 50
90.0
  7
SIMPLEX
 72
     2
 11
355.2105568189582
 21
371.3030034413269
 31
0.0
100
AcDbText
  0
LINE
  5
17F
330
2
100
AcDbEntity
  8
COIN-LINE
100
AcDbLine
 10
386.3455568197737
 20
343.3030034413269
 30
0.0
 11
386.3455568197737
 21
348.3030034413269
 31
0.0
  0
LINE
  5
180
330
2
100
AcDbEntity
  8
DIM
100
AcDbLine
 10
386.3455568197737
 20
348.3030034413269
 30
0.0
 11
386.3455568197737
 21
371.3030034413269
 31
0.0
  0
TEXT
  5
181
330
2
100
AcDbEntity
  8
DIM
100
AcDbText
 10
385.8455568197737
 20
359.8744320127555
 30
0.0
 40
2.5
  1
1.1350
 50
90.0
  7
SIMPLEX
 72
     2
 11
385.8455568197737
 21
371.3030034413269
 31
0.0
100
AcDbText
  0
LINE
  5
182
330
2
100
AcDbEntity
  8
COIN-LINE
100
AcDbLine
 10
391.8455568193697
 20
343.3030034413269
 30
0.0
 11
391.8455568193697
 21
348.3030034413269
 31
0.0
  0
LINE
  5
183
330
2
100
AcDbEntity
  8
DIM
100
AcDbLine
 10
391.8455568193697
 20
348.3030034413269
 30
0.0
 11
391.8455568193697
 21
371.3030034413269
 31
0.0
  0
TEXT
  5
184
330
2
100
AcDbEntity
  8
DIM
100
AcDbText
 10
391.3455568193697
 20
358.9220510603745
 30
0.0
 40
2.5
  1
0.8850
 50
90.0
  7
SIMPLEX
 72
     2
 11
391.3455568193697
 21
371.3030034413269
 31
0.0
100
AcDbText
  0
LINE
  5
185
330
2
100
AcDbEntity
  8
COIN-LINE
100
AcDbLine
 10
408.5655568193856
 20
343.3030034413269
 30
0.0
 11
407.8155568192906
 21
348.3030034413269
 31
0.0
  0
LINE
  5
186
330
2
100
AcDbEntity
  8
DIM
100
AcDbLine
 10
407.8155568192906
 20
348.3030034413269
 30
0.0
 11
407.8155568192906
 21
371.3030034413269
 31
0.0
  0
TEXT
  5
187
330
2
100
AcDbEntity
  8
DIM
100
AcDbText
 10
407.3155568192906
 20
359.398241536565
 30
0.0
 40
2.5
  1
0.1250
 50
90.0
  7
SIMPLEX
 72
     2
 11
407.3155568192906
 21
371.3030034413269
 31
0.0
100
AcDbText
  0
LINE
  5
188
330
2
100
AcDbEntity
  8
COIN-LINE
100
AcDbLine
 10
466.9205568190164
 20
343.3030034413269
 30
0.0
 11
466.9205568190164
 21
348.3030034413269
 31
0.0
  0
LINE
  5
189
330
2
100
AcDbEntity
  8
DIM
100
AcDbLine
 10
466.9205568190164
 20
348.3030034413269
 30
0.0
 11
466.9205568190164
 21
371.3030034413269
 31
0.0
  0
TEXT
  5
18A
330
2
100
AcDbEntity
  8
DIM
100
AcDbText
 10
466.4205568190165
 20
358.9220510603746
 30
0.0
 40
2.5
  1
2.5275
 50
90.0
  7
SIMPLEX
 72
     2
 11
466.4205568190165
 21
371.3030034413269
 31
0.0
100
AcDbText
  0
LINE
  5
18B
330
2
100
AcDbEntity
  8
COIN-LINE
100
AcDbLine
 10
472.4205568198088
 20
343.3030034413269
 30
0.0
 11
472.4205568198088
 21
348.3030034413269
 31
0.0
  0
LINE
  5
18C
330
2
100
AcDbEntity
  8
DIM
100
AcDbLine
 10
472.4205568198088
 20
348.3030034413269
 30
0.0
 11
472.4205568198088
 21
371.3030034413269
 31
0.0
  0
TEXT
  5
18D
330
2
100
AcDbEntity
  8
DIM
100
AcDbText
 10
471.9205568198088
 20
358.9220510603746
 30
0.0
 40
2.5
  1
2.7775
 50
90.0
  7
SIMPLEX
 72
     2
 11
471.9205568198088
 21
371.3030034413269
 31
0.0
100
AcDbText
  0
LINE
  5
18E
330
2
100
AcDbEntity
  8
COIN-LINE
100
AcDbLine
 10
477.8655568198074
 20
343.3030034413269
 30
0.0
 11
477.8655568198074
 21
348.3030034413269
 31
0.0
  0
LINE
  5
18F
330
2
100
AcDbEntity
  8
DIM
100
AcDbLine
 10
477.8655568198074
 20
348.3030034413269
 30
0.0
 11
477.8655568198074
 21
371.3030034413269
 31
0.0
  0
TEXT
  5
190
330
2
100
AcDbEntity
  8
DIM
100
AcDbText
 10
477.3655568198075
 20
358.9220510603746
 30
0.0
 40
2.5
  1
3.0250
 50
90.0
  7
SIMPLEX
 72
     2
 11
477.3655568198075
 21
371.3030034413269
 31
0.0
100
AcDbText
  0
LINE
  5
191
330
2
100
AcDbEntity
  8
COIN-LINE
100
AcDbLine
 10
436.6155568193865
 20
343.3030034412491
 30
0.0
 11
436.6155568193865
 21
348.3030034412492
 31
0.0
  0
LINE
  5
192
330
2
100
AcDbEntity
  8
DIM
100
AcDbLine
 10
436.6155568193865
 20
348.3030034412492
 30
0.0
 11
436.6155568193865
 21
371.3030034412492
 31
0.0
  0
TEXT
  5
193
330
2
100
AcDbEntity
  8
DIM
100
AcDbText
 10
436.1155568193863
 20
359.8744320126777
 30
0.0
 40
2.5
  1
1.1500
 50
90.0
  7
SIMPLEX
 72
     2
 11
436.1155568193863
 21
371.3030034412492
 31
0.0
100
AcDbText
  0
TEXT
  5
194
330
2
100
AcDbEntity
  8
COIN-LINE
100
AcDbText
 10
435.9898920121818
 20
373.5684024507599
 30
0.0
 40
1.727999999999999
  1
A
 50
90.0
  7
SIMPLEX
100
AcDbText
  0
LINE
  5
195
330
2
100
AcDbEntity
  8
COIN-LINE
100
AcDbLine
 10
441.4555568193858
 20
343.3030034412491
 30
0.0
 11
441.4555568193867
 21
348.3030034412492
 31
0.0
  0
LINE
  5
196
330
2
100
AcDbEntity
  8
DIM
100
AcDbLine
 10
441.4555568193867
 20
348.3030034412492
 30
0.0
 11
441.4555568193867
 21
371.3030034412492
 31
0.0
  0
TEXT
  5
197
330
2
100
AcDbEntity
  8
DIM
100
AcDbText
 10
440.9555568193868
 20
359.3982415364873
 30
0.0
 40
2.5
  1
1.3700
 50
90.0
  7
SIMPLEX
 72
     2
 11
440.9555568193868
 21
371.3030034412492
 31
0.0
100
AcDbText
  0
LINE
  5
198
330
2
100
AcDbEntity
  8
COIN-LINE
100
AcDbLine
 10
446.5155568193862
 20
343.3030034412491
 30
0.0
 11
446.5155568193868
 21
348.3030034412492
 31
0.0
  0
LINE
  5
199
330
2
100
AcDbEntity
  8
DIM
100
AcDbLine
 10
446.5155568193868
 20
348.3030034412492
 30
0.0
 11
446.5155568193868
 21
371.3030034412492
 31
0.0
  0
TEXT
  5
19A
330
2
100
AcDbEntity
  8
DIM
100
AcDbText
 10
446.0155568193868
 20
359.3982415364873
 30
0.0
 40
2.5
  1
1.6000
 50
90.0
  7
SIMPLEX
 72
     2
 11
446.0155568193868
 21
371.3030034412492
 31
0.0
100
AcDbText
  0
LWPOLYLINE
  5
19B
330
2
100
AcDbEntity
  8
COIN-LINE
100
AcDbPolyline
 90
        3
 70
     1
 43
0.0
 10
432.5358135678136
 20
374.223003441249
 10
436.3758135678136
 20
376.143003441249
 10
436.3758135678136
 20
372.3030034412492
  0
TEXT
  5
19C
330
2
100
AcDbEntity
  8
COIN-LINE
100
AcDbText
 10
441.3159634442752
 20
373.5684024507599
 30
0.0
 40
1.727999999999999
  1
A
 50
90.0
  7
SIMPLEX
100
AcDbText
  0
LINE
  5
19D
330
2
100
AcDbEntity
  8
COIN-LINE
100
AcDbLine
 10
437.8618849999069
 20
374.223003441249
 30
0.0
 11
441.7018849999068
 21
376.143003441249
 31
0.0
  0
LINE
  5
19E
330
2
100
AcDbEntity
  8
COIN-LINE
100
AcDbLine
 10
441.7018849999068
 20
376.143003441249
 30
0.0
 11
441.7018849999069
 21
372.3030034412492
 31
0.0
  0
LINE
  5
19F
330
2
100
AcDbEntity
  8
COIN-LINE
100
AcDbLine
 10
441.7018849999069
 20
372.3030034412492
 30
0.0
 11
437.8618849999069
 21
374.223003441249
 31
0.0
  0
TEXT
  5
1A0
330
2
100
AcDbEntity
  8
COIN-LINE
100
AcDbText
 10
446.1805242136523
 20
373.5684024507599
 30
0.0
 40
1.727999999999999
  1
A
 50
90.0
  7
SIMPLEX
100
AcDbText
  0
LINE
  5
1A1
330
2
100
AcDbEntity
  8
COIN-LINE
100
AcDbLine
 10
442.726445769284
 20
374.223003441249
 30
0.0
 11
446.5664457692839
 21
376.143003441249
 31
0.0
  0
LINE
  5
1A2
330
2
100
AcDbEntity
  8
COIN-LINE
100
AcDbLine
 10
446.5664457692839
 20
376.143003441249
 30
0.0
 11
446.5664457692839
 21
372.3030034412492
 31
0.0
  0
LINE
  5
1A3
330
2
100
AcDbEntity
  8
COIN-LINE
100
AcDbLine
 10
446.5664457692839
 20
372.3030034412492
 30
0.0
 11
442.726445769284
 21
374.223003441249
 31
0.0
  0
LINE
  5
1A4
330
2
100
AcDbEntity
  8
DIM
100
AcDbLine
 10
347.5013443194504
 20
143.4614060599989
 30
0.0
 11
347.5013443194504
 21
128.1443478300498
 31
0.0
  0
LINE
  5
1A5
330
2
100
AcDbEntity
  8
DIM
100
AcDbLine
 10
336.5013443194504
 20
150.3453098494827
 30
0.0
 11
336.5013443194504
 21
128.1443478300498
 31
0.0
  0
LINE
  5
1A6
330
2
100
AcDbEntity
  8
DIM
100
AcDbLine
 10
329.1579501831364
 20
107.3443478300496
 30
0.0
 11
300.0826013183203
 21
107.3443478300496
 31
0.0
  0
LINE
  5
1A7
330
2
100
AcDbEntity
  8
DIM
100
AcDbLine
 10
313.5013443194507
 20
116.14434783005
 30
0.0
 11
300.0826013183203
 21
116.14434783005
 31
0.0
  0
LINE
  5
1A8
330
2
100
AcDbEntity
  8
DIM
100
AcDbLine
 10
300.5421279922304
 20
115.8443478300501
 30
0.0
 11
300.5421279922304
 21
128.4578279454722
 31
0.0
  0
SOLID
  5
1A9
330
2
100
AcDbEntity
  8
DIM
100
AcDbTrace
 10
300.5421279922304
 20
107.3443478300496
 30
0.0
 11
301.0421279922305
 21
104.3443478300495
 31
0.0
 12
300.0421279922303
 22
104.3443478300495
 32
0.0
 13
300.0421279922303
 23
104.3443478300495
 33
0.0
  0
SOLID
  5
1AA
330
2
100
AcDbEntity
  8
DIM
100
AcDbTrace
 10
300.5421279922304
 20
116.14434783005
 30
0.0
 11
301.0421279922305
 21
119.1443478300501
 31
0.0
 12
300.0421279922303
 22
119.1443478300501
 32
0.0
 13
300.0421279922303
 23
119.1443478300501
 33
0.0
  0
LINE
  5
1AB
330
2
100
AcDbEntity
  8
DIM
100
AcDbLine
 10
300.5421279922304
 20
116.14434783005
 30
0.0
 11
300.5421279922304
 21
107.3443478300496
 31
0.0
  0
LINE
  5
1AC
330
2
100
AcDbEntity
  8
DIM
100
AcDbLine
 10
333.5013443194507
 20
149.3453098494827
 30
0.0
 11
330.5013443194507
 21
149.3453098494827
 31
0.0
  0
LINE
  5
1AD
330
2
100
AcDbEntity
  8
DIM
100
AcDbLine
 10
300.5421279922304
 20
104.3443478300495
 30
0.0
 11
300.5421279922304
 21
101.3443478300495
 31
0.0
  0
LINE
  5
1AE
330
2
100
AcDbEntity
  8
DIM
100
AcDbLine
 10
503.4611266551671
 20
90.54367215073645
 30
0.0
 11
512.2459003576413
 21
90.54367215073645
 31
0.0
  0
LINE
  5
1AF
330
2
100
AcDbEntity
  8
DIM
100
AcDbLine
 10
488.3854131668914
 20
95.54367215073636
 30
0.0
 11
512.2459003576413
 21
95.54367215073636
 31
0.0
  0
LINE
  5
1B0
330
2
100
AcDbEntity
  8
DIM
100
AcDbLine
 10
511.2459003576415
 20
87.54367215073644
 30
0.0
 11
511.2459003576415
 21
84.54367215073645
 31
0.0
  0
SOLID
  5
1B1
330
2
100
AcDbEntity
  8
DIM
100
AcDbTrace
 10
511.2459003576415
 20
90.54367215073645
 30
0.0
 11
511.7459003576413
 21
87.54367215073644
 31
0.0
 12
510.7459003576413
 22
87.54367215073644
 32
0.0
 13
510.7459003576413
 23
87.54367215073644
 33
0.0
  0
LINE
  5
1B2
330
2
100
AcDbEntity
  8
DIM
100
AcDbLine
 10
511.2459003576415
 20
98.54367215073636
 30
0.0
 11
511.2459003576415
 21
113.3270278300496
 31
0.0
  0
SOLID
  5
1B3
330
2
100
AcDbEntity
  8
DIM
100
AcDbTrace
 10
511.2459003576415
 20
95.54367215073636
 30
0.0
 11
511.7459003576413
 21
98.54367215073636
 31
0.0
 12
510.7459003576413
 22
98.54367215073636
 32
0.0
 13
510.7459003576413
 23
98.54367215073636
 33
0.0
  0
MTEXT
  5
1B4
330
2
100
AcDbEntity
  8
DIM
100
AcDbMText
 10
509.1459003576416
 20
106.8828556896894
 30
0.0
 40
2.5
 41
0.0
 46
0.0
 71
     5
 72
     1
  1
0.1000
  7
SIMPLEX
 11
0.0
 21
1.0
 31
0.0
 73
     1
 44
1.0
  0
LINE
  5
1B5
330
2
100
AcDbEntity
  8
DIM
100
AcDbLine
 10
511.2459003576415
 20
90.54367215073645
 30
0.0
 11
511.2459003576415
 21
95.54367215073636
 31
0.0
  0
LINE
  5
1B6
330
2
100
AcDbEntity
  8
DIM
100
AcDbLine
 10
492.3854131668914
 20
89.54367215073643
 30
0.0
 11
492.3854131668914
 21
80.44447873254718
 31
0.0
  0
LINE
  5
1B7
330
2
100
AcDbEntity
  8
DIM
100
AcDbLine
 10
482.3854131668913
 20
89.54367215073643
 30
0.0
 11
482.3854131668913
 21
80.44447873254718
 31
0.0
  0
LINE
  5
1B8
330
2
100
AcDbEntity
  8
DIM
100
AcDbLine
 10
495.3854131668913
 20
81.44447873254717
 30
0.0
 11
498.3854131668914
 21
81.44447873254717
 31
0.0
  0
LINE
  5
1B9
330
2
100
AcDbEntity
  8
DIM
100
AcDbLine
 10
479.3854131668914
 20
81.44447873254717
 30
0.0
 11
463.5994174495269
 21
81.44447873254717
 31
0.0
  0
LINE
  5
1BA
330
2
100
AcDbEntity
  8
DIM
100
AcDbLine
 10
492.3854131668914
 20
81.44447873254717
 30
0.0
 11
482.3854131668913
 21
81.44447873254717
 31
0.0
  0
SOLID
  5
1BB
330
2
100
AcDbEntity
  8
DIM
100
AcDbTrace
 10
495.3854131668913
 20
81.94447873254718
 30
0.0
 11
495.3854131668913
 21
80.94447873254718
 31
0.0
 12
492.3854131668914
 22
81.44447873254717
 32
0.0
 13
492.3854131668914
 23
81.44447873254717
 33
0.0
  0
SOLID
  5
1BC
330
2
100
AcDbEntity
  8
DIM
100
AcDbTrace
 10
479.3854131668914
 20
81.94447873254718
 30
0.0
 11
479.3854131668914
 21
80.94447873254718
 31
0.0
 12
482.3854131668913
 22
81.44447873254717
 32
0.0
 13
482.3854131668913
 23
81.44447873254717
 33
0.0
  0
MTEXT
  5
1BD
330
2
100
AcDbEntity
  8
DIM
100
AcDbMText
 10
470.7627319387268
 20
83.54447873254718
 30
0.0
 40
2.5
 41
0.0
 46
0.0
 71
     5
 72
     1
  1
%%C0.1500
  7
SIMPLEX
 73
     1
 44
1.0
  0
TEXT
  5
1BE
330
2
100
AcDbEntity
  8
DIM
100
AcDbText
 10
451.6086039241228
 20
111.446285390904
 30
0.0
 40
2.5
  1
TOP SIDE
  7
SIMPLEX
100
AcDbText
  0
SOLID
  5
1BF
330
2
100
AcDbEntity
  8
DIM
100
AcDbTrace
 10
480.4067130815325
 20
100.5436721507364
 30
0.0
 11
479.2771736627111
 21
103.3675242540394
 31
0.0
 12
478.4223859221166
 22
102.8485464909998
 32
0.0
 13
478.4223859221166
 23
102.8485464909998
 33
0.0
  0
LWPOLYLINE
  5
1C0
330
2
100
AcDbEntity
  8
DIM
100
AcDbPolyline
 90
        3
 70
     0
 43
0.0
 10
478.8497797924137
 20
103.1080353725196
 10
472.9331251976898
 20
112.8531230681481
 10
469.0622532176288
 20
112.8531230681481
  0
LINE
  5
1C1
330
2
100
AcDbEntity
  8
LF-LINE
100
AcDbLine
 10
501.4346357635562
 20
98.51332944484994
 30
0.0
 11
502.4611266551671
 21
100.5436721507364
 31
0.0
  0
LINE
  5
1C2
330
2
100
AcDbEntity
  8
LF-LINE
100
AcDbLine
 10
502.4611266551671
 20
100.5436721507364
 30
0.0
 11
472.4611266551671
 21
100.5436721507364
 31
0.0
  0
LINE
  5
1C3
330
2
100
AcDbEntity
  8
LF-LINE
100
AcDbLine
 10
472.4611266551671
 20
100.5436721507364
 30
0.0
 11
471.4346357635563
 21
98.51332944484994
 31
0.0
  0
ARC
  5
1C4
330
2
100
AcDbEntity
  8
LF-LINE
100
AcDbCircle
 10
473.6657061461442
 20
97.38535562071225
 30
0.0
 40
2.499999999999996
100
AcDbArc
 50
153.1799714163694
 51
227.131963612923
  0
LINE
  5
1C5
330
2
100
AcDbEntity
  8
LF-LINE
100
AcDbLine
 10
471.9649258983023
 20
95.55304927390464
 30
0.0
 11
472.252589748924
 21
95.28603442892105
 31
0.0
  0
ARC
  5
1C6
330
2
100
AcDbEntity
  8
LF-LINE
100
AcDbCircle
 10
470.5518095010822
 20
93.45372808211335
 30
0.0
 40
2.500000000000029
100
AcDbArc
 50
347.356094663162
 51
47.13196361292612
  0
LINE
  5
1C7
330
2
100
AcDbEntity
  8
LF-LINE
100
AcDbLine
 10
472.9911827857153
 20
92.90650054422881
 30
0.0
 11
472.4611266551671
 21
90.54367215073645
 31
0.0
  0
LINE
  5
1C8
330
2
100
AcDbEntity
  8
LF-LINE
100
AcDbLine
 10
472.4611266551671
 20
90.54367215073645
 30
0.0
 11
482.3854131668913
 21
90.54367215073645
 31
0.0
  0
ARC
  5
1C9
330
2
100
AcDbEntity
  8
LF-LINE
100
AcDbCircle
 10
487.3854131668913
 20
90.54367215073645
 30
0.0
 40
5.0
100
AcDbArc
 50
359.9999999999998
 51
179.9999999999999
  0
LINE
  5
1CA
330
2
100
AcDbEntity
  8
LF-LINE
100
AcDbLine
 10
492.3854131668914
 20
90.54367215073645
 30
0.0
 11
502.4611266551671
 21
90.54367215073645
 31
0.0
  0
LINE
  5
1CB
330
2
100
AcDbEntity
  8
LF-LINE
100
AcDbLine
 10
502.4611266551671
 20
90.54367215073645
 30
0.0
 11
502.9911827857151
 21
92.90650054422881
 31
0.0
  0
ARC
  5
1CC
330
2
100
AcDbEntity
  8
LF-LINE
100
AcDbCircle
 10
500.5518095010821
 20
93.45372808211347
 30
0.0
 40
2.499999999999996
100
AcDbArc
 50
347.3560946631597
 51
47.13196361292257
  0
LINE
  5
1CD
330
2
100
AcDbEntity
  8
LF-LINE
100
AcDbLine
 10
502.252589748924
 20
95.28603442892105
 30
0.0
 11
501.9649258983023
 21
95.55304927390464
 31
0.0
  0
ARC
  5
1CE
330
2
100
AcDbEntity
  8
LF-LINE
100
AcDbCircle
 10
503.6657061461441
 20
97.38535562071232
 30
0.0
 40
2.500000000000015
100
AcDbArc
 50
153.1799714163712
 51
227.1319636129264
  0
MTEXT
  5
1CF
102
{ACAD_XDICTIONARY
360
1D0
102
}
330
2
100
AcDbEntity
  8
DIM
100
AcDbMText
 10
507.9316466757931
 20
118.2634579525966
 30
0.0
 40
1.800000000000011
 41
0.0
 46
0.0
 71
     5
 72
     1
  1
%%P0.050
  7
SIMPLEX
 11
0.0
 21
1.0
 31
0.0
 73
     1
 44
1.0
  0
TEXT
  5
1D1
330
2
100
AcDbEntity
  8
COIN-LINE
100
AcDbText
 10
503.0088435768413
 20
69.96913893306697
 30
0.0
 40
1.727999999999999
  1
A
  7
SIMPLEX
100
AcDbText
  0
LWPOLYLINE
  5
1D2
330
2
100
AcDbEntity
  8
COIN-LINE
100
AcDbPolyline
 90
        3
 70
     1
 43
0.0
 10
501.7434445673307
 20
69.58321737743523
 10
503.6634445673306
 20
73.42321737743526
 10
505.5834445673307
 20
69.58321737743535
  0
CIRCLE
  5
1D3
330
2
100
AcDbEntity
  8
PKG-OUT
100
AcDbCircle
 10
358.5013443194507
 20
116.14434783005
 30
0.0
 40
1.649999999999999
  0
CIRCLE
  5
1D4
330
2
100
AcDbEntity
  8
PKG-OUT
100
AcDbCircle
 10
358.5013443194507
 20
127.14434783005
 30
0.0
 40
1.650000000000004
  0
CIRCLE
  5
1D5
330
2
100
AcDbEntity
  8
PKG-OUT
100
AcDbCircle
 10
347.5013443194507
 20
127.14434783005
 30
0.0
 40
1.650000000000004
  0
CIRCLE
  5
1D6
330
2
100
AcDbEntity
  8
PKG-OUT
100
AcDbCircle
 10
347.5013443194507
 20
116.14434783005
 30
0.0
 40
1.649999999999999
  0
CIRCLE
  5
1D7
330
2
100
AcDbEntity
  8
PKG-OUT
100
AcDbCircle
 10
336.5013443194507
 20
127.14434783005
 30
0.0
 40
1.650000000000004
  0
CIRCLE
  5
1D8
330
2
100
AcDbEntity
  8
PKG-OUT
100
AcDbCircle
 10
336.5013443194507
 20
116.14434783005
 30
0.0
 40
1.649999999999999
  0
CIRCLE
  5
1D9
330
2
100
AcDbEntity
  8
PKG-OUT
100
AcDbCircle
 10
325.5013443194507
 20
127.14434783005
 30
0.0
 40
1.650000000000004
  0
CIRCLE
  5
1DA
330
2
100
AcDbEntity
  8
PKG-OUT
100
AcDbCircle
 10
325.5013443194507
 20
116.14434783005
 30
0.0
 40
1.649999999999999
  0
CIRCLE
  5
1DB
330
2
100
AcDbEntity
  8
PKG-OUT
100
AcDbCircle
 10
314.5013443194507
 20
127.14434783005
 30
0.0
 40
1.650000000000004
  0
CIRCLE
  5
1DC
330
2
100
AcDbEntity
  8
PKG-OUT
100
AcDbCircle
 10
314.5013443194507
 20
116.14434783005
 30
0.0
 40
1.649999999999997
  0
CIRCLE
  5
1DD
330
2
100
AcDbEntity
  8
PKG-OUT
100
AcDbCircle
 10
336.5013443194507
 20
96.34434783005008
 30
0.0
 40
1.650000000000004
  0
CIRCLE
  5
1DE
330
2
100
AcDbEntity
  8
PKG-OUT
100
AcDbCircle
 10
347.5013443194507
 20
96.34434783005008
 30
0.0
 40
1.650000000000004
  0
CIRCLE
  5
1DF
330
2
100
AcDbEntity
  8
PKG-OUT
100
AcDbCircle
 10
358.5013443194507
 20
96.34434783005008
 30
0.0
 40
1.650000000000004
  0
CIRCLE
  5
1E0
330
2
100
AcDbEntity
  8
PKG-OUT
100
AcDbCircle
 10
369.5013443194507
 20
96.34434783005008
 30
0.0
 40
1.650000000000004
  0
CIRCLE
  5
1E1
330
2
100
AcDbEntity
  8
PKG-OUT
100
AcDbCircle
 10
347.5013443194507
 20
85.34434783005005
 30
0.0
 40
1.650000000000004
  0
CIRCLE
  5
1E2
330
2
100
AcDbEntity
  8
PKG-OUT
100
AcDbCircle
 10
358.5013443194507
 20
85.34434783005005
 30
0.0
 40
1.650000000000004
  0
CIRCLE
  5
1E3
330
2
100
AcDbEntity
  8
PKG-OUT
100
AcDbCircle
 10
369.5013443194507
 20
85.34434783005005
 30
0.0
 40
1.650000000000004
  0
CIRCLE
  5
1E4
330
2
100
AcDbEntity
  8
PKG-OUT
100
AcDbCircle
 10
336.5013443194507
 20
85.34434783005005
 30
0.0
 40
1.650000000000004
  0
TEXT
  5
1E5
330
2
100
AcDbEntity
  8
COIN-LINE
100
AcDbText
 10
370.2331629310469
 20
56.59965460620039
 30
0.0
 40
1.727999999999999
  1
A
  7
SIMPLEX
100
AcDbText
  0
LWPOLYLINE
  5
1E6
330
2
100
AcDbEntity
  8
COIN-LINE
100
AcDbPolyline
 90
        3
 70
     1
 43
0.0
 10
368.9677639215362
 20
56.21373305056865
 10
370.887763921536
 20
60.05373305056867
 10
372.8077639215361
 20
56.21373305056876
  0
LINE
  5
1E7
330
2
100
AcDbEntity
  8
DIM
100
AcDbLine
 10
353.6269429907248
 20
118.4272481977682
 30
0.0
 11
353.6269429907248
 21
115.8794777911169
 31
0.0
  0
SOLID
  5
1E8
330
2
100
AcDbEntity
  8
DIM
100
AcDbTrace
 10
353.1269429907248
 20
118.4272481977682
 30
0.0
 11
354.1269429907249
 21
118.4272481977682
 31
0.0
 12
353.6269429907248
 22
121.4272481977682
 32
0.0
 13
353.6269429907248
 23
121.4272481977682
 33
0.0
  0
SOLID
  5
1E9
330
2
100
AcDbEntity
  8
DIM
100
AcDbTrace
 10
353.7508984528723
 20
120.3238601086932
 30
0.0
 11
353.8108984528723
 21
120.3238601086932
 31
0.0
 12
353.7808984528723
 22
120.5038601086932
 32
0.0
 13
353.7808984528723
 23
120.5038601086932
 33
0.0
  0
TEXT
  5
1EA
330
2
100
AcDbEntity
  8
DIM
100
AcDbText
 10
352.8924348420929
 20
122.144101369771
 30
0.0
 40
2.5
  1
D
  7
SIMPLEX
 11
352.8924348420929
 21
123.394101369771
 31
0.0
100
AcDbText
 73
     2
  0
LINE
  5
1EB
330
2
100
AcDbEntity
  8
DIM
100
AcDbLine
 10
353.6269429907248
 20
115.8794777911169
 30
0.0
 11
363.5659295809233
 21
115.8794777911169
 31
0.0
  0
TEXT
  5
1EC
330
2
100
AcDbEntity
  8
LF-LINE
100
AcDbText
 10
292.0478619596226
 20
56.88115069569491
 30
0.0
 40
3.0
  1
%%UDIMPLES ON BACK SIDE OF PAD
  7
SIMPLEX
100
AcDbText
  0
LWPOLYLINE
  5
1ED
330
2
100
AcDbEntity
  8
LF-LINE
100
AcDbPolyline
 90
       29
 70
     1
 43
0.0
 10
306.0313443194333
 20
144.3043478329291
 10
317.0313443199324
 20
144.3043478329291
 10
317.0313443199324
 20
136.38434783293
 42
0.4142135623733328
 10
318.5713443199335
 20
134.8443478329302
 10
365.7613443195466
 20
134.8443478329308
 42
-0.4142135623734521
 10
367.3013443195465
 20
133.304347832931
 10
367.3013443195403
 20
123.8443478329315
 42
0.4142135623729763
 10
368.8413443195377
 20
122.304347832931
 10
370.601344319546
 20
122.3043478329272
 42
0.4142135623729761
 10
372.1413443195459
 20
123.8443478329277
 10
372.1413443195459
 20
126.7043478329295
 42
-0.4142135623733329
 10
373.6813443195469
 20
128.2443478329293
 10
377.2013443195462
 20
128.2443478329287
 10
377.2013443195488
 20
111.7443478329281
 10
373.6813443195469
 20
111.7443478329281
 42
-0.4142135623733548
 10
372.1413443195471
 20
113.2843478329292
 10
372.1413443195483
 20
115.7043478329282
 42
0.4142135623730736
 10
370.6013443195485
 20
117.2443478329281
 10
368.8413443195476
 20
117.2443478329281
 42
0.4142135623730951
 10
367.3013443195478
 20
115.7043478329282
 10
367.3013443195465
 20
108.4443478329592
 10
306.8013443195515
 20
108.4443478328929
 10
306.8013443195478
 20
123.0964589468346
 42
0.1989123673796599
 10
306.350288762575
 20
124.1854033898618
 10
295.6913443195016
 20
134.8443478329264
 10
295.6913443194973
 20
150.2443478329283
 42
-0.2390443307574366
 10
300.064499913295
 20
149.5842076959651
 42
0.2119149237248141
 10
304.4913443192535
 20
150.2443478335977
 10
304.4913443194336
 20
145.8443478328651
 42
0.414213562360965
  0
MTEXT
  5
1EE
330
2
100
AcDbEntity
  8
DIM
100
AcDbMText
 10
298.4421279922304
 20
122.5633211203507
 30
0.0
 40
2.5
 41
0.0
 46
0.0
 71
     5
 72
     1
  1
0.4000
  7
SIMPLEX
 11
0.0000000000000001
 21
1.0
 31
0.0
 73
     1
 44
1.0
  0
LINE
  5
1EF
330
2
100
AcDbEntity
  8
DIM
100
AcDbLine
 10
335.5013443194504
 20
96.34434783004984
 30
0.0
 11
294.0927011568639
 21
96.34434783004984
 31
0.0
  0
LINE
  5
1F0
330
2
100
AcDbEntity
  8
DIM
100
AcDbLine
 10
329.1579501831364
 20
107.3443478300496
 30
0.0
 11
294.0927011568639
 21
107.3443478300496
 31
0.0
  0
MTEXT
  5
1F1
330
2
100
AcDbEntity
  8
DIM
100
AcDbMText
 10
292.9927011568639
 20
118.2251450197564
 30
0.0
 40
2.5
 41
0.0
 46
0.0
 71
     5
 72
     1
  1
0.5000
  7
SIMPLEX
 11
0.0000000000000001
 21
1.0
 31
0.0
 73
     1
 44
1.0
  0
SOLID
  5
1F2
330
2
100
AcDbEntity
  8
DIM
100
AcDbTrace
 10
295.0927011568639
 20
96.34434783004984
 30
0.0
 11
295.592701156864
 21
93.34434783004985
 31
0.0
 12
294.5927011568638
 22
93.34434783004985
 32
0.0
 13
294.5927011568638
 23
93.34434783004985
 33
0.0
  0
SOLID
  5
1F3
330
2
100
AcDbEntity
  8
DIM
100
AcDbTrace
 10
295.0927011568639
 20
107.3443478300496
 30
0.0
 11
295.592701156864
 21
110.3443478300496
 31
0.0
 12
294.5927011568638
 22
110.3443478300496
 32
0.0
 13
294.5927011568638
 23
110.3443478300496
 33
0.0
  0
LINE
  5
1F4
330
2
100
AcDbEntity
  8
DIM
100
AcDbLine
 10
295.0570149985713
 20
110.2352009703317
 30
0.0
 11
295.0570149985713
 21
124.6112697301487
 31
0.0
  0
LINE
  5
1F5
330
2
100
AcDbEntity
  8
DIM
100
AcDbLine
 10
295.0927011568639
 20
107.3443478300496
 30
0.0
 11
295.0927011568639
 21
96.34434783004984
 31
0.0
  0
MTEXT
  5
1F6
330
2
100
AcDbEntity
  8
DIM
100
AcDbMText
 10
289.9955817155458
 20
119.0607811020241
 30
0.0
 40
1.800000000000004
 41
0.0
 46
0.0
 71
     5
 72
     1
  1
TYP.
  7
SIMPLEX
 11
0.0
 21
1.0
 31
0.0
 73
     1
 44
1.0
  0
LINE
  5
1F7
330
2
100
AcDbEntity
  8
DIM
100
AcDbLine
 10
295.0927011568639
 20
93.34434783004985
 30
0.0
 11
295.0927011568639
 21
90.3443478300498
 31
0.0
  0
TEXT
  5
1F8
330
2
100
AcDbEntity
  8
LF-LINE
100
AcDbText
 10
400.7857624185186
 20
379.4760403157078
 30
0.0
 40
3.0
  1
%%UDETAIL `B'
  7
ROMANS
100
AcDbText
  0
ENDSEC
  0
SECTION
  2
OBJECTS
  0
DICTIONARY
  5
9
330
0
100
AcDbDictionary
281
     1
  3
ACAD_COLOR
350
40
  3
ACAD_GROUP
350
2D
  3
ACAD_LAYOUT
350
16
  3
ACAD_MATERIAL
350
B
  3
ACAD_MLEADERSTYLE
350
43
  3
ACAD_MLINESTYLE
350
2E
  3
ACAD_PLOTSETTINGS
350
2F
  3
ACAD_PLOTSTYLENAME
350
8
  3
ACAD_SCALELIST
350
41
  3
ACAD_TABLESTYLE
350
42
  3
ACAD_VISUALSTYLE
350
27
  3
ACDB_RECOMPOSE_DATA
350
1FD
  3
AcDbVariableDictionary
350
44
  0
DICTIONARY
  5
5
330
4
100
AcDbDictionary
280
     1
281
     1
  3
ADSK_XREC_LAYER_RECONCILED
360
6
  0
DICTIONARY
  5
6B
330
6A
100
AcDbDictionary
280
     1
281
     1
  3
ADSK_XREC_LAYER_RECONCILED
360
6C
  0
DICTIONARY
  5
85
330
84
100
AcDbDictionary
280
     1
281
     1
  3
ADSK_XREC_LAYER_RECONCILED
360
86
  0
DICTIONARY
  5
80
330
7F
100
AcDbDictionary
280
     1
281
     1
  3
ADSK_XREC_LAYER_RECONCILED
360
81
  0
DICTIONARY
  5
9C
330
9B
100
AcDbDictionary
280
     1
281
     1
  3
ADSK_XREC_LAYER_RECONCILED
360
9D
  0
DICTIONARY
  5
8E
330
8D
100
AcDbDictionary
280
     1
281
     1
  3
ADSK_XREC_LAYER_RECONCILED
360
8F
  0
DICTIONARY
  5
149
330
148
100
AcDbDictionary
280
     1
281
     1
  0
DICTIONARY
  5
1D0
330
1CF
100
AcDbDictionary
280
     1
281
     1
  0
DICTIONARY
  5
40
102
{ACAD_REACTORS
330
9
102
}
330
9
100
AcDbDictionary
281
     1
  0
DICTIONARY
  5
2D
102
{ACAD_REACTORS
330
9
102
}
330
9
100
AcDbDictionary
281
     1
  0
DICTIONARY
  5
16
102
{ACAD_REACTORS
330
9
102
}
330
9
100
AcDbDictionary
281
     1
  3
Layout1
350
1A
  3
Model
350
15
  0
DICTIONARY
  5
B
102
{ACAD_REACTORS
330
9
102
}
330
9
100
AcDbDictionary
281
     1
  3
ByBlock
350
38
  3
ByLayer
350
30
  3
Global
350
A
  0
DICTIONARY
  5
43
102
{ACAD_REACTORS
330
9
102
}
330
9
100
AcDbDictionary
281
     1
  0
DICTIONARY
  5
2E
102
{ACAD_REACTORS
330
9
102
}
330
9
100
AcDbDictionary
281
     1
  3
Standard
350
52
  0
DICTIONARY
  5
2F
102
{ACAD_REACTORS
330
9
102
}
330
9
100
AcDbDictionary
281
     1
  0
ACDBDICTIONARYWDFLT
  5
8
102
{ACAD_REACTORS
330
9
102
}
330
9
100
AcDbDictionary
281
     1
  3
Normal
350
7
100
AcDbDictionaryWithDefault
340
7
  0
DICTIONARY
  5
41
102
{ACAD_REACTORS
330
9
102
}
330
9
100
AcDbDictionary
281
     1
  3
A0
350
58
  3
A1
350
59
  3
A2
350
5A
  3
A3
350
5B
  3
A4
350
5C
  3
A5
350
5D
  3
A6
350
5E
  3
A7
350
5F
  3
A8
350
60
  3
A9
350
61
  3
B0
350
62
  3
B1
350
63
  3
B2
350
64
  3
B3
350
65
  3
B4
350
66
  3
B5
350
67
  3
B6
350
68
  0
DICTIONARY
  5
42
102
{ACAD_REACTORS
330
9
102
}
330
9
100
AcDbDictionary
281
     1
  3
Standard
350
53
  0
DICTIONARY
  5
27
102
{ACAD_REACTORS
330
9
102
}
330
9
100
AcDbDictionary
281
     1
  3
2dWireframe
350
26
  3
EdgeColorOff
350
6E
  3
Realistic
350
55
  3
Wireframe
350
56
  0
XRECORD
  5
1FD
102
{ACAD_REACTORS
330
9
102
}
330
9
100
AcDbXrecord
280
     1
 90
        1
330
53
  0
DICTIONARY
  5
44
102
{ACAD_REACTORS
330
9
102
}
330
9
100
AcDbDictionary
281
     1
  3
CANNOSCALE
350
45
  3
CMLEADERSTYLE
350
46
  3
CTABLESTYLE
350
47
  3
CVIEWDETAILSTYLE
350
48
  3
CVIEWSECTIONSTYLE
350
49
  3
DIMASSOC
350
4A
  3
HIDETEXT
350
4B
  3
LAYEREVAL
350
4C
  3
LAYERNOTIFY
350
4D
  3
LIGHTINGUNITS
350
4E
  3
MSLTSCALE
350
4F
  3
PROJECTNAME
350
50
  0
XRECORD
  5
6
102
{ACAD_REACTORS
330
5
102
}
330
5
100
AcDbXrecord
280
     1
290
     1
  0
XRECORD
  5
6C
102
{ACAD_REACTORS
330
6B
102
}
330
6B
100
AcDbXrecord
280
     1
290
     1
  0
XRECORD
  5
86
102
{ACAD_REACTORS
330
85
102
}
330
85
100
AcDbXrecord
280
     1
290
     1
  0
XRECORD
  5
81
102
{ACAD_REACTORS
330
80
102
}
330
80
100
AcDbXrecord
280
     1
290
     1
  0
XRECORD
  5
9D
102
{ACAD_REACTORS
330
9C
102
}
330
9C
100
AcDbXrecord
280
     1
290
     1
  0
XRECORD
  5
8F
102
{ACAD_REACTORS
330
8E
102
}
330
8E
100
AcDbXrecord
280
     1
290
     1
  0
LAYOUT
  5
1A
102
{ACAD_REACTORS
330
16
102
}
330
16
100
AcDbPlotSettings
  1

  2
\\ASM_2\LASERQ_3
  4

  6

 40
0.0
 41
0.0
 42
0.0
 43
0.0
 44
0.0
 45
0.0
 46
0.0
 47
0.0
 48
0.0
 49
0.0
140
0.0
141
0.0
142
1.0
143
1.0
 70
   688
 72
     0
 73
     0
 74
     5
  7
Ctool.ctb
 75
    16
147
1.0
 76
     0
 77
     2
 78
   300
148
0.0
149
0.0
100
AcDbLayout
  1
Layout1
 70
     0
 71
     1
 10
0.0
 20
0.0
 11
12.0
 21
9.0
 12
0.0
 22
0.0
 32
0.0
 14
1.000000000000000E+20
 24
1.000000000000000E+20
 34
1.000000000000000E+20
 15
-1.000000000000000E+20
 25
-1.000000000000000E+20
 35
-1.000000000000000E+20
146
0.0
 13
0.0
 23
0.0
 33
0.0
 16
1.0
 26
0.0
 36
0.0
 17
0.0
 27
1.0
 37
0.0
 76
     0
330
17
  0
LAYOUT
  5
15
102
{ACAD_REACTORS
330
16
102
}
330
16
100
AcDbPlotSettings
  1

  2
Acrobat Distiller
  4
A4
  6

 40
3.174999952316283
 41
3.174999952316283
 42
3.175003051757812
 43
3.17498779296875
 44
209.9098358154297
 45
297.0318298339844
 46
0.0
 47
0.0
 48
821.0
 49
9.0
140
1093.0
141
392.0
142
1.0
143
1.3607
 70
 11952
 72
     1
 73
     0
 74
     1
  7
Ctool.ctb
 75
-20608
147
0.7483817382770426
 76
     0
 77
     2
 78
   300
148
-821.0
149
-9.0
100
AcDbLayout
  1
Model
 70
     1
 71
     0
 10
0.0
 20
0.0
 11
285.0
 21
404.0
 12
0.0
 22
0.0
 32
0.0
 14
5.0
 24
8.999999999999943
 34
0.0
 15
277.0
 25
392.0
 35
0.0
146
0.0
 13
0.0
 23
0.0
 33
0.0
 16
1.0
 26
0.0
 36
0.0
 17
0.0
 27
1.0
 37
0.0
 76
     0
330
2
331
25
  0
MATERIAL
  5
38
102
{ACAD_XDICTIONARY
360
39
102
}
102
{ACAD_REACTORS
330
B
102
}
330
B
100
AcDbMaterial
  1
ByBlock
 72
     0
 43
0.0208333333333333
 43
0.0
 43
0.0
 43
0.0
 43
0.0
 43
0.0208333333333333
 43
0.0
 43
0.0
 43
0.0
 43
0.0
 43
1.0
 43
0.0
 43
0.0
 43
0.0
 43
0.0
 43
1.0
 77
     0
 47
0.0208333333333333
 47
0.0
 47
0.0
 47
0.0
 47
0.0
 47
0.0208333333333333
 47
0.0
 47
0.0
 47
0.0
 47
0.0
 47
1.0
 47
0.0
 47
0.0
 47
0.0
 47
0.0
 47
1.0
171
     0
 49
0.0208333333333333
 49
0.0
 49
0.0
 49
0.0
 49
0.0
 49
0.0208333333333333
 49
0.0
 49
0.0
 49
0.0
 49
0.0
 49
1.0
 49
0.0
 49
0.0
 49
0.0
 49
0.0
 49
1.0
175
     0
142
0.0208333333333333
142
0.0
142
0.0
142
0.0
142
0.0
142
0.0208333333333333
142
0.0
142
0.0
142
0.0
142
0.0
142
1.0
142
0.0
142
0.0
142
0.0
142
0.0
142
1.0
179
     0
144
0.0208333333333333
144
0.0
144
0.0
144
0.0
144
0.0
144
0.0208333333333333
144
0.0
144
0.0
144
0.0
144
0.0
144
1.0
144
0.0
144
0.0
144
0.0
144
0.0
144
1.0
147
0.0208333333333333
147
0.0
147
0.0
147
0.0
147
0.0
147
0.0208333333333333
147
0.0
147
0.0
147
0.0
147
0.0
147
1.0
147
0.0
147
0.0
147
0.0
147
0.0
147
1.0
  0
MATERIAL
  5
30
102
{ACAD_XDICTIONARY
360
31
102
}
102
{ACAD_REACTORS
330
B
102
}
330
B
100
AcDbMaterial
  1
ByLayer
 72
     0
 43
0.0208333333333333
 43
0.0
 43
0.0
 43
0.0
 43
0.0
 43
0.0208333333333333
 43
0.0
 43
0.0
 43
0.0
 43
0.0
 43
1.0
 43
0.0
 43
0.0
 43
0.0
 43
0.0
 43
1.0
 77
     0
 47
0.0208333333333333
 47
0.0
 47
0.0
 47
0.0
 47
0.0
 47
0.0208333333333333
 47
0.0
 47
0.0
 47
0.0
 47
0.0
 47
1.0
 47
0.0
 47
0.0
 47
0.0
 47
0.0
 47
1.0
171
     0
 49
0.0208333333333333
 49
0.0
 49
0.0
 49
0.0
 49
0.0
 49
0.0208333333333333
 49
0.0
 49
0.0
 49
0.0
 49
0.0
 49
1.0
 49
0.0
 49
0.0
 49
0.0
 49
0.0
 49
1.0
175
     0
142
0.0208333333333333
142
0.0
142
0.0
142
0.0
142
0.0
142
0.0208333333333333
142
0.0
142
0.0
142
0.0
142
0.0
142
1.0
142
0.0
142
0.0
142
0.0
142
0.0
142
1.0
179
     0
144
0.0208333333333333
144
0.0
144
0.0
144
0.0
144
0.0
144
0.0208333333333333
144
0.0
144
0.0
144
0.0
144
0.0
144
1.0
144
0.0
144
0.0
144
0.0
144
0.0
144
1.0
147
0.0208333333333333
147
0.0
147
0.0
147
0.0
147
0.0
147
0.0208333333333333
147
0.0
147
0.0
147
0.0
147
0.0
147
1.0
147
0.0
147
0.0
147
0.0
147
0.0
147
1.0
  0
MATERIAL
  5
A
102
{ACAD_XDICTIONARY
360
C
102
}
102
{ACAD_REACTORS
330
B
102
}
330
B
100
AcDbMaterial
  1
Global
 72
     0
 43
0.0208333333333333
 43
0.0
 43
0.0
 43
0.0
 43
0.0
 43
0.0208333333333333
 43
0.0
 43
0.0
 43
0.0
 43
0.0
 43
1.0
 43
0.0
 43
0.0
 43
0.0
 43
0.0
 43
1.0
 77
     0
 47
0.0208333333333333
 47
0.0
 47
0.0
 47
0.0
 47
0.0
 47
0.0208333333333333
 47
0.0
 47
0.0
 47
0.0
 47
0.0
 47
1.0
 47
0.0
 47
0.0
 47
0.0
 47
0.0
 47
1.0
171
     0
 49
0.0208333333333333
 49
0.0
 49
0.0
 49
0.0
 49
0.0
 49
0.0208333333333333
 49
0.0
 49
0.0
 49
0.0
 49
0.0
 49
1.0
 49
0.0
 49
0.0
 49
0.0
 49
0.0
 49
1.0
175
     0
142
0.0208333333333333
142
0.0
142
0.0
142
0.0
142
0.0
142
0.0208333333333333
142
0.0
142
0.0
142
0.0
142
0.0
142
1.0
142
0.0
142
0.0
142
0.0
142
0.0
142
1.0
179
     0
144
0.0208333333333333
144
0.0
144
0.0
144
0.0
144
0.0
144
0.0208333333333333
144
0.0
144
0.0
144
0.0
144
0.0
144
1.0
144
0.0
144
0.0
144
0.0
144
0.0
144
1.0
147
0.0208333333333333
147
0.0
147
0.0
147
0.0
147
0.0
147
0.0208333333333333
147
0.0
147
0.0
147
0.0
147
0.0
147
1.0
147
0.0
147
0.0
147
0.0
147
0.0
147
1.0
  0
MLINESTYLE
  5
52
102
{ACAD_REACTORS
330
2E
102
}
330
2E
100
AcDbMlineStyle
  2
STANDARD
 70
     0
  3

 62
   256
 51
90.0
 52
90.0
 71
     2
 49
0.5
 62
   256
  6
BYLAYER
 49
-0.5
 62
   256
  6
BYLAYER
  0
ACDBPLACEHOLDER
  5
7
102
{ACAD_REACTORS
330
8
102
}
330
8
  0
SCALE
  5
58
102
{ACAD_REACTORS
330
41
102
}
330
41
100
AcDbScale
 70
     0
300
1:1
140
1.0
141
1.0
290
     1
  0
SCALE
  5
59
102
{ACAD_REACTORS
330
41
102
}
330
41
100
AcDbScale
 70
     0
300
1/128" = 1'-0"
140
0.0078125
141
12.0
290
     0
  0
SCALE
  5
5A
102
{ACAD_REACTORS
330
41
102
}
330
41
100
AcDbScale
 70
     0
300
1/64" = 1'-0"
140
0.015625
141
12.0
290
     0
  0
SCALE
  5
5B
102
{ACAD_REACTORS
330
41
102
}
330
41
100
AcDbScale
 70
     0
300
1/32" = 1'-0"
140
0.03125
141
12.0
290
     0
  0
SCALE
  5
5C
102
{ACAD_REACTORS
330
41
102
}
330
41
100
AcDbScale
 70
     0
300
1/16" = 1'-0"
140
0.0625
141
12.0
290
     0
  0
SCALE
  5
5D
102
{ACAD_REACTORS
330
41
102
}
330
41
100
AcDbScale
 70
     0
300
3/32" = 1'-0"
140
0.09375
141
12.0
290
     0
  0
SCALE
  5
5E
102
{ACAD_REACTORS
330
41
102
}
330
41
100
AcDbScale
 70
     0
300
1/8" = 1'-0"
140
0.125
141
12.0
290
     0
  0
SCALE
  5
5F
102
{ACAD_REACTORS
330
41
102
}
330
41
100
AcDbScale
 70
     0
300
3/16" = 1'-0"
140
0.1875
141
12.0
290
     0
  0
SCALE
  5
60
102
{ACAD_REACTORS
330
41
102
}
330
41
100
AcDbScale
 70
     0
300
1/4" = 1'-0"
140
0.25
141
12.0
290
     0
  0
SCALE
  5
61
102
{ACAD_REACTORS
330
41
102
}
330
41
100
AcDbScale
 70
     0
300
3/8" = 1'-0"
140
0.375
141
12.0
290
     0
  0
SCALE
  5
62
102
{ACAD_REACTORS
330
41
102
}
330
41
100
AcDbScale
 70
     0
300
1/2" = 1'-0"
140
0.5
141
12.0
290
     0
  0
SCALE
  5
63
102
{ACAD_REACTORS
330
41
102
}
330
41
100
AcDbScale
 70
     0
300
3/4" = 1'-0"
140
0.75
141
12.0
290
     0
  0
SCALE
  5
64
102
{ACAD_REACTORS
330
41
102
}
330
41
100
AcDbScale
 70
     0
300
1" = 1'-0"
140
1.0
141
12.0
290
     0
  0
SCALE
  5
65
102
{ACAD_REACTORS
330
41
102
}
330
41
100
AcDbScale
 70
     0
300
1-1/2" = 1'-0"
140
1.5
141
12.0
290
     0
  0
SCALE
  5
66
102
{ACAD_REACTORS
330
41
102
}
330
41
100
AcDbScale
 70
     0
300
3" = 1'-0"
140
3.0
141
12.0
290
     0
  0
SCALE
  5
67
102
{ACAD_REACTORS
330
41
102
}
330
41
100
AcDbScale
 70
     0
300
6" = 1'-0"
140
6.0
141
12.0
290
     0
  0
SCALE
  5
68
102
{ACAD_REACTORS
330
41
102
}
330
41
100
AcDbScale
 70
     0
300
1'-0" = 1'-0"
140
12.0
141
12.0
290
     0
  0
TABLESTYLE
  5
53
102
{ACAD_XDICTIONARY
360
54
102
}
102
{ACAD_REACTORS
330
42
102
}
330
42
100
AcDbTableStyle
280
     0
  3
Standard
 70
     0
 71
     0
 40
0.06
 41
0.06
280
     0
281
     0
  7
Standard
140
0.18
170
     2
 62
     0
 63
     7
283
     0
 90
        4
 91
        0
  1

274
    -2
284
     1
 64
     0
275
    -2
285
     1
 65
     0
276
    -2
286
     1
 66
     0
277
    -2
287
     1
 67
     0
278
    -2
288
     1
 68
     0
279
    -2
289
     1
 69
     0
  7
Standard
140
0.25
170
     5
 62
     0
 63
     7
283
     0
 90
        4
 91
        0
  1

274
    -2
284
     1
 64
     0
275
    -2
285
     1
 65
     0
276
    -2
286
     1
 66
     0
277
    -2
287
     1
 67
     0
278
    -2
288
     1
 68
     0
279
    -2
289
     1
 69
     0
  7
Standard
140
0.18
170
     5
 62
     0
 63
     7
283
     0
 90
        4
 91
        0
  1

274
    -2
284
     1
 64
     0
275
    -2
285
     1
 65
     0
276
    -2
286
     1
 66
     0
277
    -2
287
     1
 67
     0
278
    -2
288
     1
 68
     0
279
    -2
289
     1
 69
     0
1001
ACAD
1000
AcRTDxfName
1000
TABLESTYLE
1000
AcRTDxfName
1000
TABLESTYLE
1000
AcRTDxfName
1000
TABLESTYLE
1000
AcRTDxfName
1000
TABLESTYLE
1000
AcRTDxfName
1000
TABLESTYLE
1000
AcRTDxfName
1000
TABLESTYLE
1000
AcRTDxfName
1000
TABLESTYLE
1000
AcRTDxfName
1000
TABLESTYLE
1000
AcRTDxfName
1000
TABLESTYLE
1000
AcRTDxfName
1000
TABLESTYLE
1000
AcRTDxfName
1000
TABLESTYLE
1000
AcRTDxfName
1000
TABLESTYLE
1000
AcRTDxfName
1000
TABLESTYLE
1000
AcRTDxfName
1000
TABLESTYLE
1000
AcRTDxfName
1000
TABLESTYLE
1000
AcRTDxfName
1000
TABLESTYLE
1000
AcRTDxfName
1000
TABLESTYLE
1000
AcRTDxfName
1000
TABLESTYLE
  0
VISUALSTYLE
  5
26
102
{ACAD_REACTORS
330
27
102
}
330
27
100
AcDbVisualStyle
  2
2dWireframe
 70
     4
177
     3
291
     0
 70
    58
 90
        0
176
     1
 90
        2
176
     1
 90
        0
176
     1
 90
        0
176
     1
 40
0.6
176
     1
 40
30.0
176
     1
 62
     7
420
 16777215
176
     1
 90
        1
176
     1
 90
        4
176
     1
 62
     7
176
     1
 62
   257
176
     1
 90
        1
176
     1
 90
        1
176
     1
 40
1.0
176
     1
 90
        0
176
     1
 62
   257
176
     1
 40
1.0
176
     1
 90
        1
176
     1
 90
        6
176
     1
 90
        2
176
     1
 62
     7
176
     1
 90
        5
176
     1
 90
        0
176
     1
 90
        0
176
     1
290
     0
176
     1
 90
        1
176
     1
 40
0.0
176
     1
 90
        0
176
     1
290
     1
176
     1
290
     1
176
     1
290
     0
176
     1
290
     0
176
     1
290
     0
176
     1
290
     0
176
     1
290
     0
176
     1
290
     0
176
     1
290
     0
176
     1
 90
       50
176
     1
 40
0.0
176
     1
 40
1.0
176
     1
 90
        0
176
     1
 62
    18
176
     1
 90
       50
176
     1
 90
        3
176
     1
 62
     5
420
      255
176
     1
290
     0
176
     1
 90
       50
176
     1
 90
       50
176
     1
 90
       50
176
     1
290
     0
176
     1
 90
       50
176
     1
 62
   256
176
     0
 40
1.0
176
     0
 90
        2
176
     1
  1
strokes_ogs.tif
176
     1
290
     0
176
     1
 40
1.0
176
     1
 40
1.0
176
     1
  0
VISUALSTYLE
  5
6E
102
{ACAD_REACTORS
330
27
102
}
330
27
100
AcDbVisualStyle
  2
EdgeColorOff
 70
    22
177
     3
291
     1
 70
    58
 90
        2
176
     0
 90
        2
176
     0
 90
        0
176
     0
 90
        0
176
     0
 40
0.6
176
     0
 40
30.0
176
     0
 62
     7
420
 16777215
176
     0
 90
        1
176
     0
 90
        4
176
     0
 62
     7
176
     0
 62
   257
176
     0
 90
        1
176
     0
 90
        1
176
     0
 40
1.0
176
     0
 90
        8
176
     2
 62
     7
176
     0
 40
1.0
176
     0
 90
        1
176
     0
 90
        6
176
     0
 90
        2
176
     0
 62
     7
176
     0
 90
        5
176
     0
 90
        0
176
     0
 90
        0
176
     0
290
     0
176
     0
 90
        1
176
     0
 40
0.0
176
     0
 90
        0
176
     0
290
     0
176
     0
290
     1
176
     0
290
     1
176
     0
290
     0
176
     0
290
     0
176
     0
290
     0
176
     0
290
     0
176
     0
290
     0
176
     0
290
     0
176
     0
 90
       50
176
     0
 40
0.0
176
     0
 40
1.0
176
     0
 90
        0
176
     0
 62
    18
176
     0
 90
       50
176
     0
 90
        3
176
     0
 62
     5
420
      255
176
     0
290
     0
176
     0
 90
       50
176
     0
 90
       50
176
     0
 90
       50
176
     0
290
     0
176
     0
 90
       50
176
     0
 62
   256
176
     0
 40
1.0
176
     0
 90
        2
176
     0
  1
strokes_ogs.tif
176
     0
290
     0
176
     0
 40
1.0
176
     0
 40
1.0
176
     0
  0
VISUALSTYLE
  5
55
102
{ACAD_REACTORS
330
27
102
}
330
27
100
AcDbVisualStyle
  2
Realistic
 70
     8
177
     3
291
     0
 70
    58
 90
        2
176
     1
 90
        3
176
     1
 90
        0
176
     1
 90
        2
176
     1
 40
0.6
176
     1
 40
30.0
176
     1
 62
     7
420
 16777215
176
     1
 90
        0
176
     1
 90
        0
176
     1
 62
     7
176
     1
 62
   257
176
     1
 90
        1
176
     1
 90
        1
176
     1
 40
1.0
176
     1
 90
        8
176
     1
 62
   257
176
     1
 40
1.0
176
     1
 90
        1
176
     1
 90
        6
176
     1
 90
        2
176
     1
 62
     7
176
     1
 90
        3
176
     1
 90
        0
176
     1
 90
        0
176
     1
290
     0
176
     1
 90
       13
176
     1
 40
0.0
176
     1
 90
        0
176
     1
290
     0
176
     1
290
     1
176
     1
290
     1
176
     1
290
     0
176
     1
290
     0
176
     1
290
     0
176
     1
290
     0
176
     1
290
     0
176
     1
290
     0
176
     1
 90
       50
176
     1
 40
0.0
176
     1
 40
1.0
176
     1
 90
        0
176
     1
 62
    18
176
     1
 90
       50
176
     1
 90
        3
176
     1
 62
     5
420
      255
176
     1
290
     0
176
     1
 90
       50
176
     1
 90
       50
176
     1
 90
       50
176
     1
290
     0
176
     1
 90
       50
176
     1
 62
   256
176
     0
 40
1.0
176
     0
 90
        2
176
     1
  1
strokes_ogs.tif
176
     1
290
     0
176
     1
 40
1.0
176
     1
 40
1.0
176
     1
  0
VISUALSTYLE
  5
56
102
{ACAD_REACTORS
330
27
102
}
330
27
100
AcDbVisualStyle
  2
Wireframe
 70
     5
177
     3
291
     0
 70
    58
 90
        0
176
     1
 90
        2
176
     1
 90
        0
176
     1
 90
        0
176
     1
 40
0.6
176
     1
 40
30.0
176
     1
 62
     7
420
 16777215
176
     1
 90
        1
176
     1
 90
        4
176
     1
 62
     7
176
     1
 62
   257
176
     1
 90
        1
176
     1
 90
        1
176
     1
 40
1.0
176
     1
 90
        0
176
     1
 62
   257
176
     1
 40
1.0
176
     1
 90
        1
176
     1
 90
        6
176
     1
 90
        2
176
     1
 62
     7
176
     1
 90
        3
176
     1
 90
        0
176
     1
 90
        0
176
     1
290
     0
176
     1
 90
        1
176
     1
 40
0.0
176
     1
 90
        0
176
     1
290
     0
176
     1
290
     1
176
     1
290
     1
176
     1
290
     0
176
     1
290
     0
176
     1
290
     0
176
     1
290
     0
176
     1
290
     0
176
     1
290
     0
176
     1
 90
       50
176
     1
 40
0.0
176
     1
 40
1.0
176
     1
 90
        0
176
     1
 62
    18
176
     1
 90
       50
176
     1
 90
        3
176
     1
 62
     5
420
      255
176
     1
290
     0
176
     1
 90
       50
176
     1
 90
       50
176
     1
 90
       50
176
     1
290
     0
176
     1
 90
       50
176
     1
 62
   256
176
     0
 40
1.0
176
     0
 90
        2
176
     1
  1
strokes_ogs.tif
176
     1
290
     0
176
     1
 40
1.0
176
     1
 40
1.0
176
     1
  0
DICTIONARYVAR
  5
45
102
{ACAD_REACTORS
330
44
102
}
330
44
100
DictionaryVariables
280
     0
  1
1:1
  0
DICTIONARYVAR
  5
46
102
{ACAD_REACTORS
330
44
102
}
330
44
100
DictionaryVariables
280
     0
  1
STANDARD
  0
DICTIONARYVAR
  5
47
102
{ACAD_REACTORS
330
44
102
}
330
44
100
DictionaryVariables
280
     0
  1
STANDARD
  0
DICTIONARYVAR
  5
48
102
{ACAD_REACTORS
330
44
102
}
330
44
100
DictionaryVariables
280
     0
  1

  0
DICTIONARYVAR
  5
49
102
{ACAD_REACTORS
330
44
102
}
330
44
100
DictionaryVariables
280
     0
  1

  0
DICTIONARYVAR
  5
4A
102
{ACAD_REACTORS
330
44
102
}
330
44
100
DictionaryVariables
280
     0
  1
0
  0
DICTIONARYVAR
  5
4B
102
{ACAD_REACTORS
330
44
102
}
330
44
100
DictionaryVariables
280
     0
  1
1
  0
DICTIONARYVAR
  5
4C
102
{ACAD_REACTORS
330
44
102
}
330
44
100
DictionaryVariables
280
     0
  1
1
  0
DICTIONARYVAR
  5
4D
102
{ACAD_REACTORS
330
44
102
}
330
44
100
DictionaryVariables
280
     0
  1
15
  0
DICTIONARYVAR
  5
4E
102
{ACAD_REACTORS
330
44
102
}
330
44
100
DictionaryVariables
280
     0
  1
0
  0
DICTIONARYVAR
  5
4F
102
{ACAD_REACTORS
330
44
102
}
330
44
100
DictionaryVariables
280
     0
  1
0
  0
DICTIONARYVAR
  5
50
102
{ACAD_REACTORS
330
44
102
}
330
44
100
DictionaryVariables
280
     0
  1

  0
DICTIONARY
  5
39
330
38
100
AcDbDictionary
280
     1
281
     1
  3
BUMPTILE
360
3A
  3
DIFFUSETILE
360
3B
  3
OPACITYTILE
360
3C
  3
REFLECTIONTILE
360
3D
  3
REFRACTIONTILE
360
3E
  3
SPECULARTILE
360
3F
  0
DICTIONARY
  5
31
330
30
100
AcDbDictionary
280
     1
281
     1
  3
BUMPTILE
360
32
  3
DIFFUSETILE
360
33
  3
OPACITYTILE
360
34
  3
REFLECTIONTILE
360
35
  3
REFRACTIONTILE
360
36
  3
SPECULARTILE
360
37
  0
DICTIONARY
  5
C
330
A
100
AcDbDictionary
280
     1
281
     1
  3
BUMPTILE
360
D
  3
DIFFUSETILE
360
E
  3
OPACITYTILE
360
F
  3
REFLECTIONTILE
360
10
  3
REFRACTIONTILE
360
11
  3
SPECULARTILE
360
12
  0
DICTIONARY
  5
54
330
53
100
AcDbDictionary
280
     1
281
     1
  3
ACAD_ROUNDTRIP_2008_TABLESTYLE_CELLSTYLEMAP
360
1FC
  0
XRECORD
  5
3A
102
{ACAD_REACTORS
330
39
102
}
330
39
100
AcDbXrecord
280
     1
270
     1
271
     1
  0
XRECORD
  5
3B
102
{ACAD_REACTORS
330
39
102
}
330
39
100
AcDbXrecord
280
     1
270
     1
271
     1
  0
XRECORD
  5
3C
102
{ACAD_REACTORS
330
39
102
}
330
39
100
AcDbXrecord
280
     1
270
     1
271
     1
  0
XRECORD
  5
3D
102
{ACAD_REACTORS
330
39
102
}
330
39
100
AcDbXrecord
280
     1
270
     1
271
     1
  0
XRECORD
  5
3E
102
{ACAD_REACTORS
330
39
102
}
330
39
100
AcDbXrecord
280
     1
270
     1
271
     1
  0
XRECORD
  5
3F
102
{ACAD_REACTORS
330
39
102
}
330
39
100
AcDbXrecord
280
     1
270
     1
271
     1
  0
XRECORD
  5
32
102
{ACAD_REACTORS
330
31
102
}
330
31
100
AcDbXrecord
280
     1
270
     1
271
     1
  0
XRECORD
  5
33
102
{ACAD_REACTORS
330
31
102
}
330
31
100
AcDbXrecord
280
     1
270
     1
271
     1
  0
XRECORD
  5
34
102
{ACAD_REACTORS
330
31
102
}
330
31
100
AcDbXrecord
280
     1
270
     1
271
     1
  0
XRECORD
  5
35
102
{ACAD_REACTORS
330
31
102
}
330
31
100
AcDbXrecord
280
     1
270
     1
271
     1
  0
XRECORD
  5
36
102
{ACAD_REACTORS
330
31
102
}
330
31
100
AcDbXrecord
280
     1
270
     1
271
     1
  0
XRECORD
  5
37
102
{ACAD_REACTORS
330
31
102
}
330
31
100
AcDbXrecord
280
     1
270
     1
271
     1
  0
XRECORD
  5
D
102
{ACAD_REACTORS
330
C
102
}
330
C
100
AcDbXrecord
280
     1
270
     1
271
     1
  0
XRECORD
  5
E
102
{ACAD_REACTORS
330
C
102
}
330
C
100
AcDbXrecord
280
     1
270
     1
271
     1
  0
XRECORD
  5
F
102
{ACAD_REACTORS
330
C
102
}
330
C
100
AcDbXrecord
280
     1
270
     1
271
     1
  0
XRECORD
  5
10
102
{ACAD_REACTORS
330
C
102
}
330
C
100
AcDbXrecord
280
     1
270
     1
271
     1
  0
XRECORD
  5
11
102
{ACAD_REACTORS
330
C
102
}
330
C
100
AcDbXrecord
280
     1
270
     1
271
     1
  0
XRECORD
  5
12
102
{ACAD_REACTORS
330
C
102
}
330
C
100
AcDbXrecord
280
     1
270
     1
271
     1
  0
CELLSTYLEMAP
  5
1FC
102
{ACAD_REACTORS
330
54
102
}
330
54
100
AcDbCellStyleMap
 90
        3
300
CELLSTYLE
  1
TABLEFORMAT_BEGIN
 90
        5
170
     1
 91
        0
 92
    32768
 62
   257
 93
        1
300
CONTENTFORMAT
  1
CONTENTFORMAT_BEGIN
 90
        0
 91
        0
 92
        4
 93
        0
300

 40
0.0
140
1.0
 94
        5
 62
     0
340
1D
144
0.25
309
CONTENTFORMAT_END
171
     1
301
MARGIN
  1
CELLMARGIN_BEGIN
 40
0.06
 40
0.06
 40
0.06
 40
0.06
 40
0.18
 40
0.18
309
CELLMARGIN_END
 94
        6
 95
        1
302
GRIDFORMAT
  1
GRIDFORMAT_BEGIN
 90
        0
 91
        1
 62
     0
 92
       -2
340
0
 93
        0
 40
0.045
309
GRIDFORMAT_END
 95
        2
302
GRIDFORMAT
  1
GRIDFORMAT_BEGIN
 90
        0
 91
        1
 62
     0
 92
       -2
340
0
 93
        0
 40
0.045
309
GRIDFORMAT_END
 95
        4
302
GRIDFORMAT
  1
GRIDFORMAT_BEGIN
 90
        0
 91
        1
 62
     0
 92
       -2
340
0
 93
        0
 40
0.045
309
GRIDFORMAT_END
 95
        8
302
GRIDFORMAT
  1
GRIDFORMAT_BEGIN
 90
        0
 91
        1
 62
     0
 92
       -2
340
0
 93
        0
 40
0.045
309
GRIDFORMAT_END
 95
       16
302
GRIDFORMAT
  1
GRIDFORMAT_BEGIN
 90
        0
 91
        1
 62
     0
 92
       -2
340
0
 93
        0
 40
0.045
309
GRIDFORMAT_END
 95
       32
302
GRIDFORMAT
  1
GRIDFORMAT_BEGIN
 90
        0
 91
        1
 62
     0
 92
       -2
340
0
 93
        0
 40
0.045
309
GRIDFORMAT_END
309
TABLEFORMAT_END
  1
CELLSTYLE_BEGIN
 90
        1
 91
        1
300
_TITLE
309
CELLSTYLE_END
300
CELLSTYLE
  1
TABLEFORMAT_BEGIN
 90
        5
170
     1
 91
        0
 92
        0
 62
   257
 93
        1
300
CONTENTFORMAT
  1
CONTENTFORMAT_BEGIN
 90
        0
 91
        0
 92
        4
 93
        0
300

 40
0.0
140
1.0
 94
        5
 62
     0
340
1D
144
0.18
309
CONTENTFORMAT_END
171
     1
301
MARGIN
  1
CELLMARGIN_BEGIN
 40
0.06
 40
0.06
 40
0.06
 40
0.06
 40
0.18
 40
0.18
309
CELLMARGIN_END
 94
        6
 95
        1
302
GRIDFORMAT
  1
GRIDFORMAT_BEGIN
 90
        0
 91
        1
 62
     0
 92
       -2
340
0
 93
        0
 40
0.045
309
GRIDFORMAT_END
 95
        2
302
GRIDFORMAT
  1
GRIDFORMAT_BEGIN
 90
        0
 91
        1
 62
     0
 92
       -2
340
0
 93
        0
 40
0.045
309
GRIDFORMAT_END
 95
        4
302
GRIDFORMAT
  1
GRIDFORMAT_BEGIN
 90
        0
 91
        1
 62
     0
 92
       -2
340
0
 93
        0
 40
0.045
309
GRIDFORMAT_END
 95
        8
302
GRIDFORMAT
  1
GRIDFORMAT_BEGIN
 90
        0
 91
        1
 62
     0
 92
       -2
340
0
 93
        0
 40
0.045
309
GRIDFORMAT_END
 95
       16
302
GRIDFORMAT
  1
GRIDFORMAT_BEGIN
 90
        0
 91
        1
 62
     0
 92
       -2
340
0
 93
        0
 40
0.045
309
GRIDFORMAT_END
 95
       32
302
GRIDFORMAT
  1
GRIDFORMAT_BEGIN
 90
        0
 91
        1
 62
     0
 92
       -2
340
0
 93
        0
 40
0.045
309
GRIDFORMAT_END
309
TABLEFORMAT_END
  1
CELLSTYLE_BEGIN
 90
        2
 91
        1
300
_HEADER
309
CELLSTYLE_END
300
CELLSTYLE
  1
TABLEFORMAT_BEGIN
 90
        5
170
     1
 91
        0
 92
        0
 62
   257
 93
        1
300
CONTENTFORMAT
  1
CONTENTFORMAT_BEGIN
 90
        0
 91
        0
 92
        4
 93
        0
300

 40
0.0
140
1.0
 94
        2
 62
     0
340
1D
144
0.18
309
CONTENTFORMAT_END
171
     1
301
MARGIN
  1
CELLMARGIN_BEGIN
 40
0.06
 40
0.06
 40
0.06
 40
0.06
 40
0.18
 40
0.18
309
CELLMARGIN_END
 94
        6
 95
        1
302
GRIDFORMAT
  1
GRIDFORMAT_BEGIN
 90
        0
 91
        1
 62
     0
 92
       -2
340
0
 93
        0
 40
0.045
309
GRIDFORMAT_END
 95
        2
302
GRIDFORMAT
  1
GRIDFORMAT_BEGIN
 90
        0
 91
        1
 62
     0
 92
       -2
340
0
 93
        0
 40
0.045
309
GRIDFORMAT_END
 95
        4
302
GRIDFORMAT
  1
GRIDFORMAT_BEGIN
 90
        0
 91
        1
 62
     0
 92
       -2
340
0
 93
        0
 40
0.045
309
GRIDFORMAT_END
 95
        8
302
GRIDFORMAT
  1
GRIDFORMAT_BEGIN
 90
        0
 91
        1
 62
     0
 92
       -2
340
0
 93
        0
 40
0.045
309
GRIDFORMAT_END
 95
       16
302
GRIDFORMAT
  1
GRIDFORMAT_BEGIN
 90
        0
 91
        1
 62
     0
 92
       -2
340
0
 93
        0
 40
0.045
309
GRIDFORMAT_END
 95
       32
302
GRIDFORMAT
  1
GRIDFORMAT_BEGIN
 90
        0
 91
        1
 62
     0
 92
       -2
340
0
 93
        0
 40
0.045
309
GRIDFORMAT_END
309
TABLEFORMAT_END
  1
CELLSTYLE_BEGIN
 90
        3
 91
        2
300
_DATA
309
CELLSTYLE_END
  0
ENDSEC
  0
EOF
