  0
SECTION
  2
HEADER
  9
$ACADVER
  1
AC1032
  9
$ACADMAINTVER
 90
      248
  9
$DWGCODEPAGE
  3
ANSI_936
  9
$REQUIREDVERSIONS
160
                 0
  9
$INSBASE
 10
0.0
 20
0.0
 30
0.0
  9
$EXTMIN
 10
5.0
 20
8.999999999999943
 30
0.0
  9
$EXTMAX
 10
821.0
 20
392.0
 30
0.0
  9
$LIMMIN
 10
0.0
 20
0.0
  9
$LIMMAX
 10
285.0
 20
404.0
  9
$ORTHOMODE
 70
     0
  9
$REGENMODE
 70
     1
  9
$FILLMODE
 70
     1
  9
$QTEXTMODE
 70
     0
  9
$MIRRTEXT
 70
     0
  9
$LTSCALE
 40
8.0
  9
$ATTMODE
 70
     1
  9
$TEXTSIZE
 40
3.0
  9
$TRACEWID
 40
0.05
  9
$TEXTSTYLE
  7
SIMPLEX
  9
$CLAYER
  8
0
  9
$CELTYPE
  6
ByLayer
  9
$CECOLOR
 62
   256
  9
$CELTSCALE
 40
1.0
  9
$DISPSILH
 70
     0
  9
$DIMSCALE
 40
1.0
  9
$DIMASZ
 40
2.5
  9
$DIMEXO
 40
1.0
  9
$DIMDLI
 40
7.5
  9
$DIMRND
 40
0.0
  9
$DIMDLE
 40
1.25
  9
$DIMEXE
 40
1.25
  9
$DIMTP
 40
0.0
  9
$DIMTM
 40
0.0
  9
$DIMTXT
 40
2.5
  9
$DIMCEN
 40
1.25
  9
$DIMTSZ
 40
0.0
  9
$DIMTOL
 70
     0
  9
$DIMLIM
 70
     0
  9
$DIMTIH
 70
     0
  9
$DIMTOH
 70
     0
  9
$DIMSE1
 70
     0
  9
$DIMSE2
 70
     0
  9
$DIMTAD
 70
     1
  9
$DIMZIN
 70
     8
  9
$DIMBLK
  1

  9
$DIMASO
 70
     1
  9
$DIMSHO
 70
     1
  9
$DIMPOST
  1

  9
$DIMAPOST
  1

  9
$DIMALT
 70
     0
  9
$DIMALTD
 70
     2
  9
$DIMALTF
 40
25.4
  9
$DIMLFAC
 40
1.0
  9
$DIMTOFL
 70
     0
  9
$DIMTVP
 40
2.0
  9
$DIMTIX
 70
     0
  9
$DIMSOXD
 70
     0
  9
$DIMSAH
 70
     0
  9
$DIMBLK1
  1

  9
$DIMBLK2
  1

  9
$DIMSTYLE
  2
Standard
  9
$DIMCLRD
 70
     0
  9
$DIMCLRE
 70
     0
  9
$DIMCLRT
 70
     0
  9
$DIMTFAC
 40
1.0
  9
$DIMGAP
 40
1.25
  9
$DIMJUST
 70
     0
  9
$DIMSD1
 70
     0
  9
$DIMSD2
 70
     0
  9
$DIMTOLJ
 70
     1
  9
$DIMTZIN
 70
     0
  9
$DIMALTZ
 70
     0
  9
$DIMALTTZ
 70
     0
  9
$DIMUPT
 70
     0
  9
$DIMDEC
 70
     3
  9
$DIMTDEC
 70
     4
  9
$DIMALTU
 70
     2
  9
$DIMALTTD
 70
     2
  9
$DIMTXSTY
  7
SIMPLEX
  9
$DIMAUNIT
 70
     0
  9
$DIMADEC
 70
     0
  9
$DIMALTRND
 40
0.0
  9
$DIMAZIN
 70
     0
  9
$DIMDSEP
 70
    46
  9
$DIMATFIT
 70
     3
  9
$DIMFRAC
 70
     0
  9
$DIMLDRBLK
  1

  9
$DIMLUNIT
 70
     2
  9
$DIMLWD
 70
    -2
  9
$DIMLWE
 70
    -2
  9
$DIMTMOVE
 70
     0
  9
$DIMFXL
 40
1.0
  9
$DIMFXLON
 70
     0
  9
$DIMJOGANG
 40
0.7853981633974483
  9
$DIMTFILL
 70
     0
  9
$DIMTFILLCLR
 70
     0
  9
$DIMARCSYM
 70
     0
  9
$DIMLTYPE
  6

  9
$DIMLTEX1
  6

  9
$DIMLTEX2
  6

  9
$DIMTXTDIRECTION
 70
     0
  9
$LUNITS
 70
     2
  9
$LUPREC
 70
     4
  9
$SKETCHINC
 40
0.1
  9
$FILLETRAD
 40
0.07
  9
$AUNITS
 70
     0
  9
$AUPREC
 70
     0
  9
$MENU
  1
.
  9
$ELEVATION
 40
0.0
  9
$PELEVATION
 40
0.0
  9
$THICKNESS
 40
0.0
  9
$LIMCHECK
 70
     0
  9
$CHAMFERA
 40
0.0
  9
$CHAMFERB
 40
0.0
  9
$CHAMFERC
 40
0.0
  9
$CHAMFERD
 40
0.0
  9
$SKPOLY
 70
     0
  9
$TDCREATE
 40
2453354.050451389
  9
$TDUCREATE
 40
2453353.717125822
  9
$TDUPDATE
 40
2460607.477511574
  9
$TDUUPDATE
 40
2460607.144178241
  9
$TDINDWG
 40
49472.4666455093
  9
$TDUSRTIMER
 40
49472.4666338658
  9
$USRTIMER
 70
     1
  9
$ANGBASE
 50
0.0
  9
$ANGDIR
 70
     0
  9
$PDMODE
 70
     0
  9
$PDSIZE
 40
0.0
  9
$PLINEWID
 40
0.0
  9
$SPLFRAME
 70
     0
  9
$SPLINETYPE
 70
     6
  9
$SPLINESEGS
 70
     8
  9
$HANDSEED
  5
F4
  9
$SURFTAB1
 70
     6
  9
$SURFTAB2
 70
     6
  9
$SURFTYPE
 70
     6
  9
$SURFU
 70
     6
  9
$SURFV
 70
     6
  9
$UCSBASE
  2

  9
$UCSNAME
  2

  9
$UCSORG
 10
0.0
 20
0.0
 30
0.0
  9
$UCSXDIR
 10
1.0
 20
0.0
 30
0.0
  9
$UCSYDIR
 10
0.0
 20
1.0
 30
0.0
  9
$UCSORTHOREF
  2

  9
$UCSORTHOVIEW
 70
     0
  9
$UCSORGTOP
 10
0.0
 20
0.0
 30
0.0
  9
$UCSORGBOTTOM
 10
0.0
 20
0.0
 30
0.0
  9
$UCSORGLEFT
 10
0.0
 20
0.0
 30
0.0
  9
$UCSORGRIGHT
 10
0.0
 20
0.0
 30
0.0
  9
$UCSORGFRONT
 10
0.0
 20
0.0
 30
0.0
  9
$UCSORGBACK
 10
0.0
 20
0.0
 30
0.0
  9
$PUCSBASE
  2

  9
$PUCSNAME
  2

  9
$PUCSORG
 10
0.0
 20
0.0
 30
0.0
  9
$PUCSXDIR
 10
1.0
 20
0.0
 30
0.0
  9
$PUCSYDIR
 10
0.0
 20
1.0
 30
0.0
  9
$PUCSORTHOREF
  2

  9
$PUCSORTHOVIEW
 70
     0
  9
$PUCSORGTOP
 10
0.0
 20
0.0
 30
0.0
  9
$PUCSORGBOTTOM
 10
0.0
 20
0.0
 30
0.0
  9
$PUCSORGLEFT
 10
0.0
 20
0.0
 30
0.0
  9
$PUCSORGRIGHT
 10
0.0
 20
0.0
 30
0.0
  9
$PUCSORGFRONT
 10
0.0
 20
0.0
 30
0.0
  9
$PUCSORGBACK
 10
0.0
 20
0.0
 30
0.0
  9
$USERI1
 70
     0
  9
$USERI2
 70
     0
  9
$USERI3
 70
     0
  9
$USERI4
 70
     0
  9
$USERI5
 70
 32767
  9
$USERR1
 40
0.0
  9
$USERR2
 40
0.0
  9
$USERR3
 40
0.0
  9
$USERR4
 40
0.0
  9
$USERR5
 40
0.0
  9
$WORLDVIEW
 70
     1
  9
$SHADEDGE
 70
     3
  9
$SHADEDIF
 70
    70
  9
$TILEMODE
 70
     1
  9
$MAXACTVP
 70
    16
  9
$PINSBASE
 10
0.0
 20
0.0
 30
0.0
  9
$PLIMCHECK
 70
     0
  9
$PEXTMIN
 10
1.000000000000000E+20
 20
1.000000000000000E+20
 30
1.000000000000000E+20
  9
$PEXTMAX
 10
-1.000000000000000E+20
 20
-1.000000000000000E+20
 30
-1.000000000000000E+20
  9
$PLIMMIN
 10
0.0
 20
0.0
  9
$PLIMMAX
 10
12.0
 20
9.0
  9
$UNITMODE
 70
     0
  9
$VISRETAIN
 70
     0
  9
$PLINEGEN
 70
     0
  9
$PSLTSCALE
 70
     0
  9
$TREEDEPTH
 70
  3020
  9
$CMLSTYLE
  2
Standard
  9
$CMLJUST
 70
     0
  9
$CMLSCALE
 40
1.0
  9
$PROXYGRAPHICS
 70
     1
  9
$MEASUREMENT
 70
     0
  9
$CELWEIGHT
370
    -1
  9
$ENDCAPS
280
     0
  9
$JOINSTYLE
280
     0
  9
$LWDISPLAY
290
     0
  9
$INSUNITS
 70
     0
  9
$HYPERLINKBASE
  1

  9
$STYLESHEET
  1

  9
$XEDIT
290
     1
  9
$CEPSNTYPE
380
     0
  9
$PSTYLEMODE
290
     1
  9
$FINGERPRINTGUID
  2
{E78F5CC7-5A1D-6C46-857F-D3B9450F5504}
  9
$VERSIONGUID
  2
{A8BFE950-1353-2F40-AFE5-D56D36C48865}
  9
$EXTNAMES
290
     1
  9
$PSVPSCALE
 40
0.0
  9
$OLESTARTUP
290
     0
  9
$SORTENTS
280
   127
  9
$INDEXCTL
280
     0
  9
$HIDETEXT
280
     1
  9
$XCLIPFRAME
280
     2
  9
$HALOGAP
280
     0
  9
$OBSCOLOR
 70
   257
  9
$OBSLTYPE
280
     0
  9
$INTERSECTIONDISPLAY
280
     0
  9
$INTERSECTIONCOLOR
 70
   257
  9
$DIMASSOC
280
     0
  9
$PROJECTNAME
  1

  9
$CAMERADISPLAY
290
     0
  9
$LENSLENGTH
 40
50.0
  9
$CAMERAHEIGHT
 40
0.0
  9
$STEPSPERSEC
 40
2.0
  9
$STEPSIZE
 40
6.0
  9
$3DDWFPREC
 40
2.0
  9
$PSOLWIDTH
 40
0.25
  9
$PSOLHEIGHT
 40
4.0
  9
$LOFTANG1
 40
1.570796326794896
  9
$LOFTANG2
 40
1.570796326794896
  9
$LOFTMAG1
 40
0.0
  9
$LOFTMAG2
 40
0.0
  9
$LOFTPARAM
 70
     7
  9
$LOFTNORMALS
280
     1
  9
$LATITUDE
 40
37.795
  9
$LONGITUDE
 40
-122.394
  9
$NORTHDIRECTION
 40
0.0
  9
$TIMEZONE
 70
 -8000
  9
$LIGHTGLYPHDISPLAY
280
     1
  9
$TILEMODELIGHTSYNCH
280
     1
  9
$CMATERIAL
347
30
  9
$SOLIDHIST
280
     0
  9
$SHOWHIST
280
     1
  9
$DWFFRAME
280
     2
  9
$DGNFRAME
280
     0
  9
$REALWORLDSCALE
290
     1
  9
$INTERFERECOLOR
 62
     1
  9
$INTERFEREOBJVS
345
55
  9
$INTERFEREVPVS
346
56
  9
$CSHADOW
280
     0
  9
$SHADOWPLANELOCATION
 40
0.0
  0
ENDSEC
  0
SECTION
  2
CLASSES
  0
CLASS
  1
ACDBDICTIONARYWDFLT
  2
AcDbDictionaryWithDefault
  3
ObjectDBX Classes
 90
        0
 91
        1
280
     0
281
     0
  0
CLASS
  1
DICTIONARYVAR
  2
AcDbDictionaryVar
  3
ObjectDBX Classes
 90
        0
 91
       12
280
     0
281
     0
  0
CLASS
  1
TABLESTYLE
  2
AcDbTableStyle
  3
ObjectDBX Classes
 90
     4095
 91
        1
280
     0
281
     0
  0
CLASS
  1
MATERIAL
  2
AcDbMaterial
  3
ObjectDBX Classes
 90
     1153
 91
        3
280
     0
281
     0
  0
CLASS
  1
VISUALSTYLE
  2
AcDbVisualStyle
  3
ObjectDBX Classes
 90
     4095
 91
        3
280
     0
281
     0
  0
CLASS
  1
SCALE
  2
AcDbScale
  3
ObjectDBX Classes
 90
     1153
 91
       17
280
     0
281
     0
  0
CLASS
  1
MLEADERSTYLE
  2
AcDbMLeaderStyle
  3
ACDB_MLEADERSTYLE_CLASS
 90
     4095
 91
        0
280
     0
281
     0
  0
CLASS
  1
ACDBSECTIONVIEWSTYLE
  2
AcDbSectionViewStyle
  3
ObjectDBX Classes
 90
     1025
 91
        0
280
     0
281
     0
  0
CLASS
  1
ACDBDETAILVIEWSTYLE
  2
AcDbDetailViewStyle
  3
ObjectDBX Classes
 90
     1025
 91
        0
280
     0
281
     0
  0
CLASS
  1
CELLSTYLEMAP
  2
AcDbCellStyleMap
  3
ObjectDBX Classes
 90
     1152
 91
        1
280
     0
281
     0
  0
CLASS
  1
SOLID_BACKGROUND
  2
AcDbSolidBackground
  3
SCENEOE
 90
     4095
 91
        0
280
     0
281
     0
  0
CLASS
  1
NPOCOLLECTION
  2
AcDbImpNonPersistentObjectsCollection
  3
ObjectDBX Classes
 90
     1153
 91
        0
280
     0
281
     0
  0
ENDSEC
  0
SECTION
  2
TABLES
  0
TABLE
  2
VPORT
  5
24
330
0
100
AcDbSymbolTable
 70
     1
  0
VPORT
  5
25
330
24
100
AcDbSymbolTableRecord
100
AcDbViewportTableRecord
  2
*Active
 70
     0
 10
0.0
 20
0.0
 11
1.0
 21
1.0
 12
551.2621548943878
 22
202.3384762744501
 13
0.0
 23
0.0
 14
0.1
 24
0.1
 15
0.5
 25
0.5
 16
0.0
 26
0.0
 36
1.0
 17
0.0
 27
0.0
 37
0.0
 40
436.6675542746647
 41
2.570850202429149
 42
50.0
 43
0.0
 44
0.0
 50
0.0
 51
0.0
 71
    16
 72
   500
 73
     1
 74
     1
 75
     0
 76
     0
 77
     0
 78
     0
281
     0
 65
     1
110
0.0
120
0.0
130
0.0
111
1.0
121
0.0
131
0.0
112
0.0
122
1.0
132
0.0
 79
     0
146
0.0
348
26
 60
     3
 61
     5
292
     1
282
     1
141
0.0
142
0.0
 63
   250
421
  3355443
1001
ACAD_NAV_VCDISPLAY
1070
     3
  0
ENDTAB
  0
TABLE
  2
LTYPE
  5
1F
330
0
100
AcDbSymbolTable
 70
     1
  0
LTYPE
  5
20
330
1F
100
AcDbSymbolTableRecord
100
AcDbLinetypeTableRecord
  2
ByBlock
 70
     0
  3

 72
    65
 73
     0
 40
0.0
  0
LTYPE
  5
21
330
1F
100
AcDbSymbolTableRecord
100
AcDbLinetypeTableRecord
  2
ByLayer
 70
     0
  3

 72
    65
 73
     0
 40
0.0
  0
LTYPE
  5
13
330
1F
100
AcDbSymbolTableRecord
100
AcDbLinetypeTableRecord
  2
Continuous
 70
     0
  3
Solid line
 72
    65
 73
     0
 40
0.0
  0
ENDTAB
  0
TABLE
  2
LAYER
  5
1B
330
0
100
AcDbSymbolTable
 70
     3
  0
LAYER
  5
4
102
{ACAD_XDICTIONARY
360
5
102
}
330
1B
100
AcDbSymbolTableRecord
100
AcDbLayerTableRecord
  2
0
 70
     0
 62
     7
  6
Continuous
370
    -3
390
7
347
A
348
0
  0
LAYER
  5
6B
102
{ACAD_XDICTIONARY
360
6C
102
}
330
1B
100
AcDbSymbolTableRecord
100
AcDbLayerTableRecord
  2
LF-LINE
 70
     0
 62
     1
  6
Continuous
370
    -3
390
7
347
A
348
0
  0
LAYER
  5
70
102
{ACAD_XDICTIONARY
360
71
102
}
330
1B
100
AcDbSymbolTableRecord
100
AcDbLayerTableRecord
  2
COIN-LINE
 70
     0
 62
     4
  6
Continuous
370
    -3
390
7
347
A
348
0
  0
ENDTAB
  0
TABLE
  2
STYLE
  5
1C
330
0
100
AcDbSymbolTable
 70
     2
  0
STYLE
  5
1D
330
1C
100
AcDbSymbolTableRecord
100
AcDbTextStyleTableRecord
  2
Standard
 70
     0
 40
3.0
 41
1.0
 50
0.0
 71
     0
 42
2.5
  3
SIMPLEX
  4

  0
STYLE
  5
51
330
1C
100
AcDbSymbolTableRecord
100
AcDbTextStyleTableRecord
  2
SIMPLEX
 70
     0
 40
3.0
 41
1.0
 50
0.0
 71
     0
 42
3.0
  3
SIMPLEX.shx
  4

  0
ENDTAB
  0
TABLE
  2
VIEW
  5
22
330
0
100
AcDbSymbolTable
 70
     0
  0
ENDTAB
  0
TABLE
  2
UCS
  5
23
330
0
100
AcDbSymbolTable
 70
     0
  0
ENDTAB
  0
TABLE
  2
APPID
  5
29
330
0
100
AcDbSymbolTable
 70
     2
  0
APPID
  5
2A
330
29
100
AcDbSymbolTableRecord
100
AcDbRegAppTableRecord
  2
ACAD
 70
     0
  0
APPID
  5
28
330
29
100
AcDbSymbolTableRecord
100
AcDbRegAppTableRecord
  2
ACAD_NAV_VCDISPLAY
 70
     0
  0
ENDTAB
  0
TABLE
  2
DIMSTYLE
  5
2B
330
0
100
AcDbSymbolTable
 70
     1
100
AcDbDimStyleTable
 71
     0
  0
DIMSTYLE
105
57
330
2B
100
AcDbSymbolTableRecord
100
AcDbDimStyleTableRecord
  2
Standard
 70
     0
340
1D
  0
ENDTAB
  0
TABLE
  2
BLOCK_RECORD
  5
1
330
0
100
AcDbSymbolTable
 70
     0
  0
BLOCK_RECORD
  5
2
330
1
100
AcDbSymbolTableRecord
100
AcDbBlockTableRecord
  2
*Model_Space
340
15
 70
     0
280
     1
281
     0
  0
BLOCK_RECORD
  5
17
330
1
100
AcDbSymbolTableRecord
100
AcDbBlockTableRecord
  2
*Paper_Space
340
1A
 70
     0
280
     1
281
     0
  0
ENDTAB
  0
ENDSEC
  0
SECTION
  2
BLOCKS
  0
BLOCK
  5
3
330
2
100
AcDbEntity
  8
0
100
AcDbBlockBegin
  2
*Model_Space
 70
     0
 10
0.0
 20
0.0
 30
0.0
  3
*Model_Space
  1

  0
ENDBLK
  5
14
330
2
100
AcDbEntity
  8
0
100
AcDbBlockEnd
  0
BLOCK
  5
18
330
17
100
AcDbEntity
 67
     1
  8
0
100
AcDbBlockBegin
  2
*Paper_Space
 70
     0
 10
0.0
 20
0.0
 30
0.0
  3
*Paper_Space
  1

  0
ENDBLK
  5
19
330
17
100
AcDbEntity
 67
     1
  8
0
100
AcDbBlockEnd
  0
ENDSEC
  0
SECTION
  2
ENTITIES
  0
TEXT
  5
69
330
2
100
AcDbEntity
  8
0
100
AcDbText
 10
573.7784618507431
 20
186.9168439172529
 30
0.0
 40
3.0
  1
13
  7
SIMPLEX
 72
     4
 11
575.9213189936002
 21
188.4168439172529
 31
0.0
100
AcDbText
  0
LINE
  5
6A
330
2
100
AcDbEntity
  8
LF-LINE
100
AcDbLine
 10
570.9213189936003
 20
184.4168439172527
 30
0.0
 11
802.3755886004531
 21
184.4168439172522
 31
0.0
  0
TEXT
  5
6E
330
2
100
AcDbEntity
  8
0
100
AcDbText
 10
589.4638445397641
 20
92.91682846604741
 30
0.0
 40
3.0
  1
INT. LEAD DESIGN
  7
SIMPLEX
100
AcDbText
  0
LINE
  5
6F
330
2
100
AcDbEntity
  8
COIN-LINE
100
AcDbLine
 10
575.2426126430719
 20
97.61946950779504
 30
0.0
 11
581.2426126430717
 21
97.6194695077951
 31
0.0
  0
LINE
  5
73
330
2
100
AcDbEntity
  8
COIN-LINE
100
AcDbLine
 10
578.2426126430717
 20
103.6194695077951
 30
0.0
 11
575.2426126430718
 21
97.6194695077951
 31
0.0
  0
LINE
  5
74
330
2
100
AcDbEntity
  8
COIN-LINE
100
AcDbLine
 10
578.2426126430717
 20
103.6194695077951
 30
0.0
 11
581.2426126430717
 21
97.6194695077951
 31
0.0
  0
TEXT
  5
75
330
2
100
AcDbEntity
  8
COIN-LINE
100
AcDbText
 10
577.1989798184024
 20
98.22247193846957
 30
0.0
 40
2.699999999999998
  1
A
  7
SIMPLEX
100
AcDbText
  0
LWPOLYLINE
  5
76
330
2
100
AcDbEntity
  8
LF-LINE
100
AcDbPolyline
 90
        4
 70
     1
 43
1.0
 10
570.9213189936001
 20
112.4168284660473
 10
802.3755886004531
 20
112.4168284660473
 10
802.3755886004531
 20
90.41682846604729
 10
570.9213189936001
 20
90.41682846604729
  0
LINE
  5
77
330
2
100
AcDbEntity
  8
LF-LINE
100
AcDbLine
 10
585.9213189936001
 20
112.4168284660473
 30
0.0
 11
585.9213189936001
 21
90.41682846604729
 31
0.0
  0
LINE
  5
78
330
2
100
AcDbEntity
  8
LF-LINE
100
AcDbLine
 10
772.3755886004531
 20
112.4168284660473
 30
0.0
 11
772.3755886004531
 21
90.41682846604729
 31
0.0
  0
LINE
  5
79
330
2
100
AcDbEntity
  8
LF-LINE
100
AcDbLine
 10
802.3755886004531
 20
104.4168284660472
 30
0.0
 11
570.9213189936001
 21
104.4168284660472
 31
0.0
  0
TEXT
  5
7A
330
2
100
AcDbEntity
  8
0
100
AcDbText
 10
653.6240696339391
 20
106.9168284660474
 30
0.0
 40
3.0
  1
DESCRIPTION
  7
SIMPLEX
100
AcDbText
  0
TEXT
  5
7B
330
2
100
AcDbEntity
  8
0
100
AcDbText
 10
781.9253425133906
 20
106.9168284660474
 30
0.0
 40
3.0
  1
DATE
  7
SIMPLEX
100
AcDbText
  0
TEXT
  5
7C
330
2
100
AcDbEntity
  8
0
100
AcDbText
 10
574.1454050183497
 20
106.9168284660474
 30
0.0
 40
3.0
  1
REV
  7
SIMPLEX
100
AcDbText
  0
TEXT
  5
7D
330
2
100
AcDbEntity
  8
0
100
AcDbText
 10
589.4638445397641
 20
98.91682846604741
 30
0.0
 40
3.0
  1
CONVERT FROM 8-054134-SOP1 PRELIM-0, DELETE STAMPED FRAME, REVISE
  7
SIMPLEX
100
AcDbText
  0
TEXT
  5
7E
330
2
100
AcDbEntity
  8
0
100
AcDbText
 10
775.9181141466171
 20
98.91682846604741
 30
0.0
 40
3.0
  1
SEP 28 16
  7
SIMPLEX
100
AcDbText
  0
TEXT
  5
7F
330
2
100
AcDbEntity
  8
0
100
AcDbText
 10
760.0184457433104
 20
226.9168439172531
 30
0.0
 40
3.0
  1
MAX.
  7
SIMPLEX
 72
     4
 11
764.8755886004533
 21
228.4168439172531
 31
0.0
100
AcDbText
  0
TEXT
  5
80
330
2
100
AcDbEntity
  8
0
100
AcDbText
 10
781.4857390060003
 20
226.9168439172531
 30
0.0
 40
3.0
  1
0.076
  7
SIMPLEX
 72
     4
 11
787.4143104345717
 21
228.4168439172531
 31
0.0
100
AcDbText
  0
LINE
  5
81
330
2
100
AcDbEntity
  8
LF-LINE
100
AcDbLine
 10
570.9213189936003
 20
232.4168439172527
 30
0.0
 11
802.3755886004535
 21
232.4168439172531
 31
0.0
  0
LWPOLYLINE
  5
82
330
2
100
AcDbEntity
  8
LF-LINE
100
AcDbPolyline
 90
        4
 70
     1
 43
1.0
 10
802.3755886004531
 20
116.4168439172524
 10
802.3755886004531
 20
320.4168439172527
 10
570.9213189936001
 20
320.4168439172527
 10
570.9213189936001
 20
116.4168439172529
  0
TEXT
  5
83
330
2
100
AcDbEntity
  8
0
100
AcDbText
 10
769.7762047875154
 20
210.9168439172523
 30
0.0
 40
3.0
  1
%%P0.102
  7
SIMPLEX
 72
     4
 11
777.347633358944
 21
212.4168439172523
 31
0.0
100
AcDbText
  0
LINE
  5
84
330
2
100
AcDbEntity
  8
LF-LINE
100
AcDbLine
 10
772.3755886004535
 20
208.4168439172523
 30
0.0
 11
772.3755886004535
 21
168.4168439172531
 31
0.0
  0
TEXT
  5
85
330
2
100
AcDbEntity
  8
0
100
AcDbText
 10
573.7784618507431
 20
154.9168439172528
 30
0.0
 40
3.0
  1
17
  7
SIMPLEX
 72
     4
 11
575.9213189936002
 21
156.4168439172528
 31
0.0
100
AcDbText
  0
TEXT
  5
86
330
2
100
AcDbEntity
  8
0
100
AcDbText
 10
783.5184457433106
 20
170.9168439172523
 30
0.0
 40
3.0
  1
2.5%%D
  7
SIMPLEX
 72
     4
 11
787.3755886004535
 21
172.4168439172523
 31
0.0
100
AcDbText
  0
TEXT
  5
87
330
2
100
AcDbEntity
  8
0
100
AcDbText
 10
760.0184457433104
 20
170.9168439172527
 30
0.0
 40
3.0
  1
MAX.
  7
SIMPLEX
 72
     4
 11
764.8755886004533
 21
172.4168439172527
 31
0.0
100
AcDbText
  0
TEXT
  5
88
330
2
100
AcDbEntity
  8
0
100
AcDbText
 10
573.8498904221716
 20
162.9168439172529
 30
0.0
 40
3.0
  1
16
  7
SIMPLEX
 72
     4
 11
575.9213189936002
 21
164.4168439172529
 31
0.0
100
AcDbText
  0
TEXT
  5
89
330
2
100
AcDbEntity
  8
0
100
AcDbText
 10
586.6349094579425
 20
170.9168439172529
 30
0.0
 40
3.0
  1
LEAD TILT
  7
SIMPLEX
100
AcDbText
  0
TEXT
  5
8A
330
2
100
AcDbEntity
  8
0
100
AcDbText
 10
575.5641761364574
 20
314.9168439172528
 30
0.0
 40
3.0
  1
1
  7
SIMPLEX
 72
     4
 11
575.9213189936003
 21
316.4168439172528
 31
0.0
100
AcDbText
  0
TEXT
  5
8B
330
2
100
AcDbEntity
  8
0
100
AcDbText
 10
586.6349094579427
 20
314.9168439172529
 30
0.0
 40
3.0
  1
DIMENSION QUADRANT IS SYMMETRICAL FOR ALL QUADRANTS EXCEPT OTHERWISE SHOWN
  7
SIMPLEX
100
AcDbText
  0
TEXT
  5
8C
330
2
100
AcDbEntity
  8
0
100
AcDbText
 10
571.0596776517769
 20
325.8526237337666
 30
0.0
 40
3.0
  1
NOTES :
  7
SIMPLEX
100
AcDbText
  0
LINE
  5
8D
330
2
100
AcDbEntity
  8
LF-LINE
100
AcDbLine
 10
772.3755886004533
 20
248.4168439172525
 30
0.0
 11
772.3755886004533
 21
216.4168439172524
 31
0.0
  0
TEXT
  5
8E
330
2
100
AcDbEntity
  8
0
100
AcDbText
 10
668.3455798725226
 20
266.9168439172526
 30
0.0
 40
3.0
  1
HORIZONTAL
  7
SIMPLEX
100
AcDbText
  0
TEXT
  5
8F
330
2
100
AcDbEntity
  8
0
100
AcDbText
 10
668.3455798725226
 20
274.9168439172525
 30
0.0
 40
3.0
  1
VERTICAL
  7
SIMPLEX
100
AcDbText
  0
TEXT
  5
90
330
2
100
AcDbEntity
  8
0
100
AcDbText
 10
596.5176707562712
 20
274.9168439172528
 30
0.0
 40
3.0
  1
ANOTHER AREA
  7
SIMPLEX
100
AcDbText
  0
TEXT
  5
91
330
2
100
AcDbEntity
  8
0
100
AcDbText
 10
584.9213189936003
 20
274.9168439172528
 30
0.0
 40
3.0
  1
B
  7
SIMPLEX
 72
     4
 11
585.9213189936004
 21
276.4168439172528
 31
0.0
100
AcDbText
  0
TEXT
  5
92
330
2
100
AcDbEntity
  8
0
100
AcDbText
 10
668.3455798725226
 20
282.9168439172526
 30
0.0
 40
3.0
  1
HORIZONTAL
  7
SIMPLEX
100
AcDbText
  0
TEXT
  5
93
330
2
100
AcDbEntity
  8
0
100
AcDbText
 10
668.3455798725226
 20
290.9168439172526
 30
0.0
 40
3.0
  1
VERTICAL
  7
SIMPLEX
100
AcDbText
  0
LINE
  5
94
330
2
100
AcDbEntity
  8
LF-LINE
100
AcDbLine
 10
661.4447036184725
 20
296.4168439172527
 30
0.0
 11
661.4447036184722
 21
264.4168439172526
 31
0.0
  0
LINE
  5
95
330
2
100
AcDbEntity
  8
LF-LINE
100
AcDbLine
 10
590.9213189936004
 20
296.4168439172528
 30
0.0
 11
590.9213189936004
 21
264.4168439172528
 31
0.0
  0
LINE
  5
96
330
2
100
AcDbEntity
  8
LF-LINE
100
AcDbLine
 10
772.3755886004535
 20
296.4168439172525
 30
0.0
 11
772.3755886004533
 21
256.4168439172525
 31
0.0
  0
LINE
  5
97
330
2
100
AcDbEntity
  8
LF-LINE
100
AcDbLine
 10
757.3755886004533
 20
296.4168439172525
 30
0.0
 11
757.3755886004533
 21
168.4168439172531
 31
0.0
  0
TEXT
  5
98
330
2
100
AcDbEntity
  8
0
100
AcDbText
 10
781.3755886004531
 20
178.9168439172523
 30
0.0
 40
3.0
  1
0.508
  7
SIMPLEX
 72
     4
 11
787.3755886004532
 21
180.4168439172523
 31
0.0
100
AcDbText
  0
TEXT
  5
99
330
2
100
AcDbEntity
  8
0
100
AcDbText
 10
760.0184457433104
 20
178.9168439172527
 30
0.0
 40
3.0
  1
MAX.
  7
SIMPLEX
 72
     4
 11
764.8755886004533
 21
180.4168439172527
 31
0.0
100
AcDbText
  0
TEXT
  5
9A
330
2
100
AcDbEntity
  8
0
100
AcDbText
 10
783.5184457433106
 20
186.9168439172523
 30
0.0
 40
3.0
  1
2.5%%D
  7
SIMPLEX
 72
     4
 11
787.3755886004535
 21
188.4168439172523
 31
0.0
100
AcDbText
  0
TEXT
  5
9B
330
2
100
AcDbEntity
  8
0
100
AcDbText
 10
760.0184457433104
 20
186.9168439172527
 30
0.0
 40
3.0
  1
MAX.
  7
SIMPLEX
 72
     4
 11
764.8755886004533
 21
188.4168439172526
 31
0.0
100
AcDbText
  0
TEXT
  5
9C
330
2
100
AcDbEntity
  8
0
100
AcDbText
 10
781.3755886004535
 20
194.9168439172523
 30
0.0
 40
3.0
  1
0.395
  7
SIMPLEX
 72
     4
 11
787.3755886004535
 21
196.4168439172523
 31
0.0
100
AcDbText
  0
TEXT
  5
9D
330
2
100
AcDbEntity
  8
0
100
AcDbText
 10
760.0184457433106
 20
194.9168439172527
 30
0.0
 40
3.0
  1
MAX.
  7
SIMPLEX
 72
     4
 11
764.8755886004535
 21
196.4168439172527
 31
0.0
100
AcDbText
  0
TEXT
  5
9E
330
2
100
AcDbEntity
  8
0
100
AcDbText
 10
781.3755886004535
 20
202.9168439172523
 30
0.0
 40
3.0
  1
0.508
  7
SIMPLEX
 72
     4
 11
787.3755886004535
 21
204.4168439172523
 31
0.0
100
AcDbText
  0
TEXT
  5
9F
330
2
100
AcDbEntity
  8
0
100
AcDbText
 10
760.0184457433106
 20
202.9168439172527
 30
0.0
 40
3.0
  1
MAX.
  7
SIMPLEX
 72
     4
 11
764.8755886004535
 21
204.4168439172527
 31
0.0
100
AcDbText
  0
TEXT
  5
A0
330
2
100
AcDbEntity
  8
0
100
AcDbText
 10
773.6613028861678
 20
219.131129631538
 30
0.0
 40
3.0
  1
0.051/2.540
  7
SIMPLEX
 72
     4
 11
787.3755886004535
 21
220.4168439172523
 31
0.0
100
AcDbText
  0
TEXT
  5
A1
330
2
100
AcDbEntity
  8
0
100
AcDbText
 10
760.0184457433104
 20
218.9168439172526
 30
0.0
 40
3.0
  1
MAX.
  7
SIMPLEX
 72
     4
 11
764.8755886004533
 21
220.4168439172526
 31
0.0
100
AcDbText
  0
TEXT
  5
A2
330
2
100
AcDbEntity
  8
0
100
AcDbText
 10
781.6613028861675
 20
234.9168439172524
 30
0.0
 40
3.0
  1
0.180
  7
SIMPLEX
 72
     4
 11
787.3755886004532
 21
236.4168439172524
 31
0.0
100
AcDbText
  0
TEXT
  5
A3
330
2
100
AcDbEntity
  8
0
100
AcDbText
 10
760.8755886004533
 20
234.9168439172526
 30
0.0
 40
3.0
  1
MIN.
  7
SIMPLEX
 72
     4
 11
764.8755886004533
 21
236.4168439172526
 31
0.0
100
AcDbText
  0
TEXT
  5
A4
330
2
100
AcDbEntity
  8
0
100
AcDbText
 10
773.6613028861675
 20
243.1311296315381
 30
0.0
 40
3.0
  1
0.010/2.540
  7
SIMPLEX
 72
     4
 11
787.3755886004532
 21
244.4168439172524
 31
0.0
100
AcDbText
  0
TEXT
  5
A5
330
2
100
AcDbEntity
  8
0
100
AcDbText
 10
760.0184457433104
 20
242.9168439172525
 30
0.0
 40
3.0
  1
MAX.
  7
SIMPLEX
 72
     4
 11
764.8755886004533
 21
244.4168439172525
 31
0.0
100
AcDbText
  0
TEXT
  5
A6
330
2
100
AcDbEntity
  8
0
100
AcDbText
 10
769.7762047875154
 20
250.9168439172524
 30
0.0
 40
3.0
  1
%%P0.102
  7
SIMPLEX
 72
     4
 11
777.347633358944
 21
252.4168439172524
 31
0.0
100
AcDbText
  0
TEXT
  5
A7
330
2
100
AcDbEntity
  8
0
100
AcDbText
 10
781.6613028861675
 20
258.9168439172525
 30
0.0
 40
3.0
  1
0.100
  7
SIMPLEX
 72
     4
 11
787.3755886004532
 21
260.4168439172525
 31
0.0
100
AcDbText
  0
TEXT
  5
A8
330
2
100
AcDbEntity
  8
0
100
AcDbText
 10
760.8755886004533
 20
258.9168439172525
 30
0.0
 40
3.0
  1
MIN.
  7
SIMPLEX
 72
     4
 11
764.8755886004533
 21
260.4168439172525
 31
0.0
100
AcDbText
  0
TEXT
  5
A9
330
2
100
AcDbEntity
  8
0
100
AcDbText
 10
782.0184457433103
 20
266.9168439172525
 30
0.0
 40
3.0
  1
0.051
  7
SIMPLEX
 72
     4
 11
787.3755886004532
 21
268.4168439172525
 31
0.0
100
AcDbText
  0
TEXT
  5
AA
330
2
100
AcDbEntity
  8
0
100
AcDbText
 10
760.0184457433104
 20
266.9168439172526
 30
0.0
 40
3.0
  1
MAX.
  7
SIMPLEX
 72
     4
 11
764.8755886004533
 21
268.4168439172526
 31
0.0
100
AcDbText
  0
TEXT
  5
AB
330
2
100
AcDbEntity
  8
0
100
AcDbText
 10
781.3755886004531
 20
274.9168439172525
 30
0.0
 40
3.0
  1
0.025
  7
SIMPLEX
 72
     4
 11
787.3755886004532
 21
276.4168439172525
 31
0.0
100
AcDbText
  0
TEXT
  5
AC
330
2
100
AcDbEntity
  8
0
100
AcDbText
 10
760.0184457433104
 20
274.9168439172525
 30
0.0
 40
3.0
  1
MAX.
  7
SIMPLEX
 72
     4
 11
764.8755886004533
 21
276.4168439172525
 31
0.0
100
AcDbText
  0
TEXT
  5
AD
330
2
100
AcDbEntity
  8
0
100
AcDbText
 10
782.0184457433106
 20
282.9168439172525
 30
0.0
 40
3.0
  1
0.051
  7
SIMPLEX
 72
     4
 11
787.3755886004535
 21
284.4168439172525
 31
0.0
100
AcDbText
  0
TEXT
  5
AE
330
2
100
AcDbEntity
  8
0
100
AcDbText
 10
760.0184457433106
 20
282.9168439172525
 30
0.0
 40
3.0
  1
MAX.
  7
SIMPLEX
 72
     4
 11
764.8755886004535
 21
284.4168439172525
 31
0.0
100
AcDbText
  0
TEXT
  5
AF
330
2
100
AcDbEntity
  8
0
100
AcDbText
 10
781.3755886004535
 20
290.9168439172525
 30
0.0
 40
3.0
  1
0.025
  7
SIMPLEX
 72
     4
 11
787.3755886004535
 21
292.4168439172525
 31
0.0
100
AcDbText
  0
TEXT
  5
B0
330
2
100
AcDbEntity
  8
0
100
AcDbText
 10
760.0184457433106
 20
290.9168439172525
 30
0.0
 40
3.0
  1
MAX.
  7
SIMPLEX
 72
     4
 11
764.8755886004535
 21
292.4168439172525
 31
0.0
100
AcDbText
  0
TEXT
  5
B1
330
2
100
AcDbEntity
  8
0
100
AcDbText
 10
781.6613028861679
 20
306.9168439172525
 30
0.0
 40
3.0
  1
0.127
  7
SIMPLEX
 72
     4
 11
787.3755886004536
 21
308.4168439172525
 31
0.0
100
AcDbText
  0
TEXT
  5
B2
330
2
100
AcDbEntity
  8
0
100
AcDbText
 10
760.0184457433106
 20
306.9168439172525
 30
0.0
 40
3.0
  1
MAX.
  7
SIMPLEX
 72
     4
 11
764.8755886004535
 21
308.4168439172525
 31
0.0
100
AcDbText
  0
TEXT
  5
B3
330
2
100
AcDbEntity
  8
0
100
AcDbText
 10
586.6349094579425
 20
126.9168439172529
 30
0.0
 40
3.0
  1
BUT BEFORE COINING
  7
SIMPLEX
100
AcDbText
  0
TEXT
  5
B4
330
2
100
AcDbEntity
  8
0
100
AcDbText
 10
586.6349094579425
 20
132.9168439172529
 30
0.0
 40
3.0
  1
DIMENSIONS SHOWN FOR INTERNAL LEAD POSITIONS REPRESENT THAT AFTER STAMPING
  7
SIMPLEX
100
AcDbText
  0
TEXT
  5
B5
330
2
100
AcDbEntity
  8
0
100
AcDbText
 10
586.6349094579425
 20
178.9168439172529
 30
0.0
 40
3.0
  1
FRAME TWIST
  7
SIMPLEX
100
AcDbText
  0
TEXT
  5
B6
330
2
100
AcDbEntity
  8
0
100
AcDbText
 10
586.6349094579425
 20
186.9168439172529
 30
0.0
 40
3.0
  1
LEAD TWIST
  7
SIMPLEX
100
AcDbText
  0
TEXT
  5
B7
330
2
100
AcDbEntity
  8
0
100
AcDbText
 10
586.032890040027
 20
194.9168439172529
 30
0.0
 40
3.0
  1
CROSS BOW
  7
SIMPLEX
100
AcDbText
  0
TEXT
  5
B8
330
2
100
AcDbEntity
  8
0
100
AcDbText
 10
586.1877582935786
 20
202.9168439172528
 30
0.0
 40
3.0
  1
COIL SET
  7
SIMPLEX
100
AcDbText
  0
TEXT
  5
B9
330
2
100
AcDbEntity
  8
0
100
AcDbText
 10
586.6349094579426
 20
210.9168439172528
 30
0.0
 40
3.0
  1
PAD PLANARITY 
  7
SIMPLEX
100
AcDbText
  0
TEXT
  5
BA
330
2
100
AcDbEntity
  8
0
100
AcDbText
 10
586.6349094579426
 20
218.9168439172529
 30
0.0
 40
3.0
  1
PAD TILT
  7
SIMPLEX
100
AcDbText
  0
TEXT
  5
BB
330
2
100
AcDbEntity
  8
0
100
AcDbText
 10
586.6349094579427
 20
226.9168439172528
 30
0.0
 40
3.0
  1
CAMBER
  7
SIMPLEX
100
AcDbText
  0
TEXT
  5
BC
330
2
100
AcDbEntity
  8
0
100
AcDbText
 10
586.6349094579427
 20
234.9168439172528
 30
0.0
 40
3.0
  1
LEAD TIP FLAT WIDTH
  7
SIMPLEX
100
AcDbText
  0
TEXT
  5
BD
330
2
100
AcDbEntity
  8
0
100
AcDbText
 10
586.6349094579427
 20
242.9168439172528
 30
0.0
 40
3.0
  1
PAD FLATNESS
  7
SIMPLEX
100
AcDbText
  0
TEXT
  5
BE
330
2
100
AcDbEntity
  8
0
100
AcDbText
 10
586.6349094579427
 20
250.9168439172528
 30
0.0
 40
3.0
  1
LEAD TIP PLANARITY FROM DAM BAR
  7
SIMPLEX
100
AcDbText
  0
TEXT
  5
BF
330
2
100
AcDbEntity
  8
0
100
AcDbText
 10
586.6349094579427
 20
258.9168439172528
 30
0.0
 40
3.0
  1
MINIMUM LEAD SPACE 
  7
SIMPLEX
100
AcDbText
  0
TEXT
  5
C0
330
2
100
AcDbEntity
  8
0
100
AcDbText
 10
596.5176707562712
 20
290.9168439172528
 30
0.0
 40
3.0
  1
INSIDE PACKAGE OUTLINE
  7
SIMPLEX
100
AcDbText
  0
TEXT
  5
C1
330
2
100
AcDbEntity
  8
0
100
AcDbText
 10
586.6349094579427
 20
298.9168439172528
 30
0.0
 40
3.0
  1
BURR
  7
SIMPLEX
100
AcDbText
  0
TEXT
  5
C2
330
2
100
AcDbEntity
  8
0
100
AcDbText
 10
586.6349094579427
 20
306.9168439172528
 30
0.0
 40
3.0
  1
MAXIMUM RADIUS ON ALL CORNERS UNLESS OTHERWISE SPECIFIED
  7
SIMPLEX
100
AcDbText
  0
TEXT
  5
C3
330
2
100
AcDbEntity
  8
0
100
AcDbText
 10
573.8498904221716
 20
132.4259586557256
 30
0.0
 40
3.0
  1
19
  7
SIMPLEX
 72
     4
 11
575.9213189936001
 21
133.9259586557256
 31
0.0
100
AcDbText
  0
TEXT
  5
C4
330
2
100
AcDbEntity
  8
0
100
AcDbText
 10
573.778461850743
 20
146.9168439172529
 30
0.0
 40
3.0
  1
18
  7
SIMPLEX
 72
     4
 11
575.9213189936001
 21
148.4168439172529
 31
0.0
100
AcDbText
  0
TEXT
  5
C5
330
2
100
AcDbEntity
  8
0
100
AcDbText
 10
573.7784618507431
 20
170.9168439172529
 30
0.0
 40
3.0
  1
15
  7
SIMPLEX
 72
     4
 11
575.9213189936002
 21
172.4168439172529
 31
0.0
100
AcDbText
  0
TEXT
  5
C6
330
2
100
AcDbEntity
  8
0
100
AcDbText
 10
573.7070332793146
 20
178.9168439172529
 30
0.0
 40
3.0
  1
14
  7
SIMPLEX
 72
     4
 11
575.9213189936002
 21
180.4168439172529
 31
0.0
100
AcDbText
  0
TEXT
  5
C7
330
2
100
AcDbEntity
  8
0
100
AcDbText
 10
573.7784618507431
 20
194.9168439172528
 30
0.0
 40
3.0
  1
12
  7
SIMPLEX
 72
     4
 11
575.9213189936002
 21
196.4168439172528
 31
0.0
100
AcDbText
  0
TEXT
  5
C8
330
2
100
AcDbEntity
  8
0
100
AcDbText
 10
574.4213189936003
 20
202.9168439172528
 30
0.0
 40
3.0
  1
11
  7
SIMPLEX
 72
     4
 11
575.9213189936002
 21
204.4168439172528
 31
0.0
100
AcDbText
  0
TEXT
  5
C9
330
2
100
AcDbEntity
  8
0
100
AcDbText
 10
573.7784618507431
 20
210.9168439172528
 30
0.0
 40
3.0
  1
10
  7
SIMPLEX
 72
     4
 11
575.9213189936002
 21
212.4168439172528
 31
0.0
100
AcDbText
  0
TEXT
  5
CA
330
2
100
AcDbEntity
  8
0
100
AcDbText
 10
574.9927475650288
 20
218.9168439172528
 30
0.0
 40
3.0
  1
9
  7
SIMPLEX
 72
     4
 11
575.9213189936002
 21
220.4168439172528
 31
0.0
100
AcDbText
  0
TEXT
  5
CB
330
2
100
AcDbEntity
  8
0
100
AcDbText
 10
574.9213189936003
 20
226.9168439172528
 30
0.0
 40
3.0
  1
8
  7
SIMPLEX
 72
     4
 11
575.9213189936002
 21
228.4168439172528
 31
0.0
100
AcDbText
  0
TEXT
  5
CC
330
2
100
AcDbEntity
  8
0
100
AcDbText
 10
574.9213189936003
 20
234.9168439172528
 30
0.0
 40
3.0
  1
7
  7
SIMPLEX
 72
     4
 11
575.9213189936002
 21
236.4168439172528
 31
0.0
100
AcDbText
  0
TEXT
  5
CD
330
2
100
AcDbEntity
  8
0
100
AcDbText
 10
574.9927475650288
 20
242.9168439172528
 30
0.0
 40
3.0
  1
6
  7
SIMPLEX
 72
     4
 11
575.9213189936002
 21
244.4168439172528
 31
0.0
100
AcDbText
  0
TEXT
  5
CE
330
2
100
AcDbEntity
  8
0
100
AcDbText
 10
574.9213189936003
 20
250.9168439172528
 30
0.0
 40
3.0
  1
5
  7
SIMPLEX
 72
     4
 11
575.9213189936002
 21
252.4168439172528
 31
0.0
100
AcDbText
  0
TEXT
  5
CF
330
2
100
AcDbEntity
  8
0
100
AcDbText
 10
574.8498904221717
 20
258.9168439172529
 30
0.0
 40
3.0
  1
4
  7
SIMPLEX
 72
     4
 11
575.9213189936002
 21
260.4168439172529
 31
0.0
100
AcDbText
  0
TEXT
  5
D0
330
2
100
AcDbEntity
  8
0
100
AcDbText
 10
584.7784618507432
 20
290.9168439172528
 30
0.0
 40
3.0
  1
A
  7
SIMPLEX
 72
     4
 11
585.9213189936004
 21
292.4168439172528
 31
0.0
100
AcDbText
  0
TEXT
  5
D1
330
2
100
AcDbEntity
  8
0
100
AcDbText
 10
574.9213189936003
 20
298.9168439172528
 30
0.0
 40
3.0
  1
3
  7
SIMPLEX
 72
     4
 11
575.9213189936003
 21
300.4168439172528
 31
0.0
100
AcDbText
  0
TEXT
  5
D2
330
2
100
AcDbEntity
  8
0
100
AcDbText
 10
574.9213189936003
 20
306.9168439172529
 30
0.0
 40
3.0
  1
2
  7
SIMPLEX
 72
     4
 11
575.9213189936003
 21
308.4168439172529
 31
0.0
100
AcDbText
  0
LINE
  5
D3
330
2
100
AcDbEntity
  8
LF-LINE
100
AcDbLine
 10
757.3755886004533
 20
312.4168439172525
 30
0.0
 11
757.3755886004533
 21
304.4168439172525
 31
0.0
  0
LINE
  5
D4
330
2
100
AcDbEntity
  8
LF-LINE
100
AcDbLine
 10
772.3755886004536
 20
312.4168439172525
 30
0.0
 11
772.3755886004535
 21
304.4168439172525
 31
0.0
  0
LINE
  5
D5
330
2
100
AcDbEntity
  8
LF-LINE
100
AcDbLine
 10
580.9213189936005
 20
320.4168439172527
 30
0.0
 11
580.9213189936002
 21
116.4168439172529
 31
0.0
  0
LINE
  5
D6
330
2
100
AcDbEntity
  8
LF-LINE
100
AcDbLine
 10
570.9213189936001
 20
138.4168439172529
 30
0.0
 11
802.3755886004531
 21
138.4168439172523
 31
0.0
  0
LINE
  5
D7
330
2
100
AcDbEntity
  8
LF-LINE
100
AcDbLine
 10
570.9213189936003
 20
152.4168439172528
 30
0.0
 11
802.3755886004531
 21
152.4168439172522
 31
0.0
  0
LINE
  5
D8
330
2
100
AcDbEntity
  8
LF-LINE
100
AcDbLine
 10
570.9213189936003
 20
160.4168439172527
 30
0.0
 11
802.3755886004531
 21
160.4168439172522
 31
0.0
  0
LINE
  5
D9
330
2
100
AcDbEntity
  8
LF-LINE
100
AcDbLine
 10
570.9213189936003
 20
168.4168439172528
 30
0.0
 11
802.3755886004531
 21
168.4168439172522
 31
0.0
  0
LINE
  5
DA
330
2
100
AcDbEntity
  8
LF-LINE
100
AcDbLine
 10
570.9213189936003
 20
176.4168439172528
 30
0.0
 11
802.3755886004531
 21
176.4168439172522
 31
0.0
  0
LINE
  5
DB
330
2
100
AcDbEntity
  8
LF-LINE
100
AcDbLine
 10
570.9213189936003
 20
192.4168439172527
 30
0.0
 11
802.3755886004531
 21
192.4168439172522
 31
0.0
  0
LINE
  5
DC
330
2
100
AcDbEntity
  8
LF-LINE
100
AcDbLine
 10
570.9213189936003
 20
200.4168439172528
 30
0.0
 11
802.3755886004531
 21
200.4168439172523
 31
0.0
  0
LINE
  5
DD
330
2
100
AcDbEntity
  8
LF-LINE
100
AcDbLine
 10
570.9213189936003
 20
208.4168439172528
 30
0.0
 11
802.3755886004535
 21
208.4168439172523
 31
0.0
  0
LINE
  5
DE
330
2
100
AcDbEntity
  8
LF-LINE
100
AcDbLine
 10
570.9213189936003
 20
216.4168439172528
 30
0.0
 11
802.3755886004535
 21
216.4168439172523
 31
0.0
  0
LINE
  5
DF
330
2
100
AcDbEntity
  8
LF-LINE
100
AcDbLine
 10
570.9213189936003
 20
224.4168439172528
 30
0.0
 11
802.3755886004535
 21
224.4168439172522
 31
0.0
  0
LINE
  5
E0
330
2
100
AcDbEntity
  8
LF-LINE
100
AcDbLine
 10
570.9213189936003
 20
240.4168439172528
 30
0.0
 11
802.3755886004535
 21
240.4168439172524
 31
0.0
  0
LINE
  5
E1
330
2
100
AcDbEntity
  8
LF-LINE
100
AcDbLine
 10
570.9213189936003
 20
248.4168439172528
 30
0.0
 11
802.3755886004535
 21
248.4168439172524
 31
0.0
  0
LINE
  5
E2
330
2
100
AcDbEntity
  8
LF-LINE
100
AcDbLine
 10
570.9213189936003
 20
256.4168439172529
 30
0.0
 11
802.3755886004535
 21
256.4168439172525
 31
0.0
  0
LINE
  5
E3
330
2
100
AcDbEntity
  8
LF-LINE
100
AcDbLine
 10
570.9213189936003
 20
264.4168439172529
 30
0.0
 11
802.3755886004535
 21
264.4168439172525
 31
0.0
  0
LINE
  5
E4
330
2
100
AcDbEntity
  8
LF-LINE
100
AcDbLine
 10
661.4447036184725
 20
272.4168439172526
 30
0.0
 11
802.3755886004535
 21
272.4168439172525
 31
0.0
  0
LINE
  5
E5
330
2
100
AcDbEntity
  8
LF-LINE
100
AcDbLine
 10
580.9213189936002
 20
280.416843917253
 30
0.0
 11
802.3755886004535
 21
280.4168439172525
 31
0.0
  0
LINE
  5
E6
330
2
100
AcDbEntity
  8
LF-LINE
100
AcDbLine
 10
661.4447036184725
 20
288.4168439172526
 30
0.0
 11
802.3755886004535
 21
288.4168439172525
 31
0.0
  0
LINE
  5
E7
330
2
100
AcDbEntity
  8
LF-LINE
100
AcDbLine
 10
580.9213189936002
 20
296.4168439172528
 30
0.0
 11
802.3755886004535
 21
296.4168439172524
 31
0.0
  0
LINE
  5
E8
330
2
100
AcDbEntity
  8
LF-LINE
100
AcDbLine
 10
570.9213189936003
 20
304.4168439172528
 30
0.0
 11
802.3755886004535
 21
304.4168439172524
 31
0.0
  0
LINE
  5
E9
330
2
100
AcDbEntity
  8
LF-LINE
100
AcDbLine
 10
570.9213189936003
 20
312.4168439172529
 30
0.0
 11
802.3755886004535
 21
312.4168439172525
 31
0.0
  0
TEXT
  5
EA
330
2
100
AcDbEntity
  8
0
100
AcDbText
 10
586.6349094579425
 20
118.9168439172529
 30
0.0
 40
3.0
  1
THE FOURTH DECIMAL PLACE IS USED FOR TOOLING REFERENCE ONLY
  7
SIMPLEX
100
AcDbText
  0
LINE
  5
EB
330
2
100
AcDbEntity
  8
LF-LINE
100
AcDbLine
 10
570.9213189936003
 20
124.4168439172529
 30
0.0
 11
802.3755886004531
 21
124.4168439172524
 31
0.0
  0
TEXT
  5
EC
330
2
100
AcDbEntity
  8
0
100
AcDbText
 10
573.4927475650287
 20
118.9168439172529
 30
0.0
 40
3.0
  1
20
  7
SIMPLEX
 72
     4
 11
575.9213189936002
 21
120.4168439172529
 31
0.0
100
AcDbText
  0
TEXT
  5
ED
330
2
100
AcDbEntity
  8
0
100
AcDbText
 10
586.6349094579425
 20
154.9168439172528
 30
0.0
 40
3.0
  1
FULL Ni-Pd-Au PLATING
  7
SIMPLEX
100
AcDbText
  0
TEXT
  5
EE
330
2
100
AcDbEntity
  8
0
100
AcDbText
 10
586.6349094579425
 20
162.9168439172528
 30
0.0
 40
3.0
  1
MATERIAL A194 F.H. THICKNESS 0.203%%P0.008
  7
SIMPLEX
100
AcDbText
  0
TEXT
  5
EF
330
2
100
AcDbEntity
  8
0
100
AcDbText
 10
586.6349094579425
 20
140.9168439172528
 30
0.0
 40
3.0
  1
EXT LEAD SPANKING MARK IS IMPOSED 0.254 AWAY FROM DAM BAR 
  7
SIMPLEX
100
AcDbText
  0
TEXT
  5
F0
330
2
100
AcDbEntity
  8
0
100
AcDbText
 10
586.6349094579425
 20
146.9168439172527
 30
0.0
 40
3.0
  1
SCRATCHES, EXT LEAD SPANKING MARK OR OTHER TOOL MARKS NOT DEEPER THAN 0.007,
  7
SIMPLEX
100
AcDbText
  0
ENDSEC
  0
SECTION
  2
OBJECTS
  0
DICTIONARY
  5
9
330
0
100
AcDbDictionary
281
     1
  3
ACAD_COLOR
350
40
  3
ACAD_GROUP
350
2D
  3
ACAD_LAYOUT
350
16
  3
ACAD_MATERIAL
350
B
  3
ACAD_MLEADERSTYLE
350
43
  3
ACAD_MLINESTYLE
350
2E
  3
ACAD_PLOTSETTINGS
350
2F
  3
ACAD_PLOTSTYLENAME
350
8
  3
ACAD_SCALELIST
350
41
  3
ACAD_TABLESTYLE
350
42
  3
ACAD_VISUALSTYLE
350
27
  3
ACDB_RECOMPOSE_DATA
350
F3
  3
AcDbVariableDictionary
350
44
  0
DICTIONARY
  5
5
330
4
100
AcDbDictionary
280
     1
281
     1
  3
ADSK_XREC_LAYER_RECONCILED
360
6
  0
DICTIONARY
  5
6C
330
6B
100
AcDbDictionary
280
     1
281
     1
  3
ADSK_XREC_LAYER_RECONCILED
360
6D
  0
DICTIONARY
  5
71
330
70
100
AcDbDictionary
280
     1
281
     1
  3
ADSK_XREC_LAYER_RECONCILED
360
72
  0
DICTIONARY
  5
40
102
{ACAD_REACTORS
330
9
102
}
330
9
100
AcDbDictionary
281
     1
  0
DICTIONARY
  5
2D
102
{ACAD_REACTORS
330
9
102
}
330
9
100
AcDbDictionary
281
     1
  0
DICTIONARY
  5
16
102
{ACAD_REACTORS
330
9
102
}
330
9
100
AcDbDictionary
281
     1
  3
Layout1
350
1A
  3
Model
350
15
  0
DICTIONARY
  5
B
102
{ACAD_REACTORS
330
9
102
}
330
9
100
AcDbDictionary
281
     1
  3
ByBlock
350
38
  3
ByLayer
350
30
  3
Global
350
A
  0
DICTIONARY
  5
43
102
{ACAD_REACTORS
330
9
102
}
330
9
100
AcDbDictionary
281
     1
  0
DICTIONARY
  5
2E
102
{ACAD_REACTORS
330
9
102
}
330
9
100
AcDbDictionary
281
     1
  3
Standard
350
52
  0
DICTIONARY
  5
2F
102
{ACAD_REACTORS
330
9
102
}
330
9
100
AcDbDictionary
281
     1
  0
ACDBDICTIONARYWDFLT
  5
8
102
{ACAD_REACTORS
330
9
102
}
330
9
100
AcDbDictionary
281
     1
  3
Normal
350
7
100
AcDbDictionaryWithDefault
340
7
  0
DICTIONARY
  5
41
102
{ACAD_REACTORS
330
9
102
}
330
9
100
AcDbDictionary
281
     1
  3
A0
350
58
  3
A1
350
59
  3
A2
350
5A
  3
A3
350
5B
  3
A4
350
5C
  3
A5
350
5D
  3
A6
350
5E
  3
A7
350
5F
  3
A8
350
60
  3
A9
350
61
  3
B0
350
62
  3
B1
350
63
  3
B2
350
64
  3
B3
350
65
  3
B4
350
66
  3
B5
350
67
  3
B6
350
68
  0
DICTIONARY
  5
42
102
{ACAD_REACTORS
330
9
102
}
330
9
100
AcDbDictionary
281
     1
  3
Standard
350
53
  0
DICTIONARY
  5
27
102
{ACAD_REACTORS
330
9
102
}
330
9
100
AcDbDictionary
281
     1
  3
2dWireframe
350
26
  3
Realistic
350
55
  3
Wireframe
350
56
  0
XRECORD
  5
F3
102
{ACAD_REACTORS
330
9
102
}
330
9
100
AcDbXrecord
280
     1
 90
        1
330
53
  0
DICTIONARY
  5
44
102
{ACAD_REACTORS
330
9
102
}
330
9
100
AcDbDictionary
281
     1
  3
CANNOSCALE
350
45
  3
CMLEADERSTYLE
350
46
  3
CTABLESTYLE
350
47
  3
CVIEWDETAILSTYLE
350
48
  3
CVIEWSECTIONSTYLE
350
49
  3
DIMASSOC
350
4A
  3
HIDETEXT
350
4B
  3
LAYEREVAL
350
4C
  3
LAYERNOTIFY
350
4D
  3
LIGHTINGUNITS
350
4E
  3
MSLTSCALE
350
4F
  3
PROJECTNAME
350
50
  0
XRECORD
  5
6
102
{ACAD_REACTORS
330
5
102
}
330
5
100
AcDbXrecord
280
     1
290
     1
  0
XRECORD
  5
6D
102
{ACAD_REACTORS
330
6C
102
}
330
6C
100
AcDbXrecord
280
     1
290
     1
  0
XRECORD
  5
72
102
{ACAD_REACTORS
330
71
102
}
330
71
100
AcDbXrecord
280
     1
290
     1
  0
LAYOUT
  5
1A
102
{ACAD_REACTORS
330
16
102
}
330
16
100
AcDbPlotSettings
  1

  2
\\ASM_2\LASERQ_3
  4

  6

 40
0.0
 41
0.0
 42
0.0
 43
0.0
 44
0.0
 45
0.0
 46
0.0
 47
0.0
 48
0.0
 49
0.0
140
0.0
141
0.0
142
1.0
143
1.0
 70
   688
 72
     0
 73
     0
 74
     5
  7
Ctool.ctb
 75
    16
147
1.0
 76
     0
 77
     2
 78
   300
148
0.0
149
0.0
100
AcDbLayout
  1
Layout1
 70
     0
 71
     1
 10
0.0
 20
0.0
 11
12.0
 21
9.0
 12
0.0
 22
0.0
 32
0.0
 14
1.000000000000000E+20
 24
1.000000000000000E+20
 34
1.000000000000000E+20
 15
-1.000000000000000E+20
 25
-1.000000000000000E+20
 35
-1.000000000000000E+20
146
0.0
 13
0.0
 23
0.0
 33
0.0
 16
1.0
 26
0.0
 36
0.0
 17
0.0
 27
1.0
 37
0.0
 76
     0
330
17
  0
LAYOUT
  5
15
102
{ACAD_REACTORS
330
16
102
}
330
16
100
AcDbPlotSettings
  1

  2
Acrobat Distiller
  4
A4
  6

 40
3.174999952316283
 41
3.174999952316283
 42
3.175003051757812
 43
3.17498779296875
 44
209.9098358154297
 45
297.0318298339844
 46
0.0
 47
0.0
 48
821.0
 49
9.0
140
1093.0
141
392.0
142
1.0
143
1.3607
 70
 11952
 72
     1
 73
     0
 74
     1
  7
Ctool.ctb
 75
-20608
147
0.7483817382770426
 76
     0
 77
     2
 78
   300
148
-821.0
149
-9.0
100
AcDbLayout
  1
Model
 70
     1
 71
     0
 10
0.0
 20
0.0
 11
285.0
 21
404.0
 12
0.0
 22
0.0
 32
0.0
 14
5.0
 24
8.999999999999943
 34
0.0
 15
277.0
 25
392.0
 35
0.0
146
0.0
 13
0.0
 23
0.0
 33
0.0
 16
1.0
 26
0.0
 36
0.0
 17
0.0
 27
1.0
 37
0.0
 76
     0
330
2
331
25
  0
MATERIAL
  5
38
102
{ACAD_XDICTIONARY
360
39
102
}
102
{ACAD_REACTORS
330
B
102
}
330
B
100
AcDbMaterial
  1
ByBlock
 72
     0
 43
0.0208333333333333
 43
0.0
 43
0.0
 43
0.0
 43
0.0
 43
0.0208333333333333
 43
0.0
 43
0.0
 43
0.0
 43
0.0
 43
1.0
 43
0.0
 43
0.0
 43
0.0
 43
0.0
 43
1.0
 77
     0
 47
0.0208333333333333
 47
0.0
 47
0.0
 47
0.0
 47
0.0
 47
0.0208333333333333
 47
0.0
 47
0.0
 47
0.0
 47
0.0
 47
1.0
 47
0.0
 47
0.0
 47
0.0
 47
0.0
 47
1.0
171
     0
 49
0.0208333333333333
 49
0.0
 49
0.0
 49
0.0
 49
0.0
 49
0.0208333333333333
 49
0.0
 49
0.0
 49
0.0
 49
0.0
 49
1.0
 49
0.0
 49
0.0
 49
0.0
 49
0.0
 49
1.0
175
     0
142
0.0208333333333333
142
0.0
142
0.0
142
0.0
142
0.0
142
0.0208333333333333
142
0.0
142
0.0
142
0.0
142
0.0
142
1.0
142
0.0
142
0.0
142
0.0
142
0.0
142
1.0
179
     0
144
0.0208333333333333
144
0.0
144
0.0
144
0.0
144
0.0
144
0.0208333333333333
144
0.0
144
0.0
144
0.0
144
0.0
144
1.0
144
0.0
144
0.0
144
0.0
144
0.0
144
1.0
147
0.0208333333333333
147
0.0
147
0.0
147
0.0
147
0.0
147
0.0208333333333333
147
0.0
147
0.0
147
0.0
147
0.0
147
1.0
147
0.0
147
0.0
147
0.0
147
0.0
147
1.0
  0
MATERIAL
  5
30
102
{ACAD_XDICTIONARY
360
31
102
}
102
{ACAD_REACTORS
330
B
102
}
330
B
100
AcDbMaterial
  1
ByLayer
 72
     0
 43
0.0208333333333333
 43
0.0
 43
0.0
 43
0.0
 43
0.0
 43
0.0208333333333333
 43
0.0
 43
0.0
 43
0.0
 43
0.0
 43
1.0
 43
0.0
 43
0.0
 43
0.0
 43
0.0
 43
1.0
 77
     0
 47
0.0208333333333333
 47
0.0
 47
0.0
 47
0.0
 47
0.0
 47
0.0208333333333333
 47
0.0
 47
0.0
 47
0.0
 47
0.0
 47
1.0
 47
0.0
 47
0.0
 47
0.0
 47
0.0
 47
1.0
171
     0
 49
0.0208333333333333
 49
0.0
 49
0.0
 49
0.0
 49
0.0
 49
0.0208333333333333
 49
0.0
 49
0.0
 49
0.0
 49
0.0
 49
1.0
 49
0.0
 49
0.0
 49
0.0
 49
0.0
 49
1.0
175
     0
142
0.0208333333333333
142
0.0
142
0.0
142
0.0
142
0.0
142
0.0208333333333333
142
0.0
142
0.0
142
0.0
142
0.0
142
1.0
142
0.0
142
0.0
142
0.0
142
0.0
142
1.0
179
     0
144
0.0208333333333333
144
0.0
144
0.0
144
0.0
144
0.0
144
0.0208333333333333
144
0.0
144
0.0
144
0.0
144
0.0
144
1.0
144
0.0
144
0.0
144
0.0
144
0.0
144
1.0
147
0.0208333333333333
147
0.0
147
0.0
147
0.0
147
0.0
147
0.0208333333333333
147
0.0
147
0.0
147
0.0
147
0.0
147
1.0
147
0.0
147
0.0
147
0.0
147
0.0
147
1.0
  0
MATERIAL
  5
A
102
{ACAD_XDICTIONARY
360
C
102
}
102
{ACAD_REACTORS
330
B
102
}
330
B
100
AcDbMaterial
  1
Global
 72
     0
 43
0.0208333333333333
 43
0.0
 43
0.0
 43
0.0
 43
0.0
 43
0.0208333333333333
 43
0.0
 43
0.0
 43
0.0
 43
0.0
 43
1.0
 43
0.0
 43
0.0
 43
0.0
 43
0.0
 43
1.0
 77
     0
 47
0.0208333333333333
 47
0.0
 47
0.0
 47
0.0
 47
0.0
 47
0.0208333333333333
 47
0.0
 47
0.0
 47
0.0
 47
0.0
 47
1.0
 47
0.0
 47
0.0
 47
0.0
 47
0.0
 47
1.0
171
     0
 49
0.0208333333333333
 49
0.0
 49
0.0
 49
0.0
 49
0.0
 49
0.0208333333333333
 49
0.0
 49
0.0
 49
0.0
 49
0.0
 49
1.0
 49
0.0
 49
0.0
 49
0.0
 49
0.0
 49
1.0
175
     0
142
0.0208333333333333
142
0.0
142
0.0
142
0.0
142
0.0
142
0.0208333333333333
142
0.0
142
0.0
142
0.0
142
0.0
142
1.0
142
0.0
142
0.0
142
0.0
142
0.0
142
1.0
179
     0
144
0.0208333333333333
144
0.0
144
0.0
144
0.0
144
0.0
144
0.0208333333333333
144
0.0
144
0.0
144
0.0
144
0.0
144
1.0
144
0.0
144
0.0
144
0.0
144
0.0
144
1.0
147
0.0208333333333333
147
0.0
147
0.0
147
0.0
147
0.0
147
0.0208333333333333
147
0.0
147
0.0
147
0.0
147
0.0
147
1.0
147
0.0
147
0.0
147
0.0
147
0.0
147
1.0
  0
MLINESTYLE
  5
52
102
{ACAD_REACTORS
330
2E
102
}
330
2E
100
AcDbMlineStyle
  2
STANDARD
 70
     0
  3

 62
   256
 51
90.0
 52
90.0
 71
     2
 49
0.5
 62
   256
  6
BYLAYER
 49
-0.5
 62
   256
  6
BYLAYER
  0
ACDBPLACEHOLDER
  5
7
102
{ACAD_REACTORS
330
8
102
}
330
8
  0
SCALE
  5
58
102
{ACAD_REACTORS
330
41
102
}
330
41
100
AcDbScale
 70
     0
300
1:1
140
1.0
141
1.0
290
     1
  0
SCALE
  5
59
102
{ACAD_REACTORS
330
41
102
}
330
41
100
AcDbScale
 70
     0
300
1/128" = 1'-0"
140
0.0078125
141
12.0
290
     0
  0
SCALE
  5
5A
102
{ACAD_REACTORS
330
41
102
}
330
41
100
AcDbScale
 70
     0
300
1/64" = 1'-0"
140
0.015625
141
12.0
290
     0
  0
SCALE
  5
5B
102
{ACAD_REACTORS
330
41
102
}
330
41
100
AcDbScale
 70
     0
300
1/32" = 1'-0"
140
0.03125
141
12.0
290
     0
  0
SCALE
  5
5C
102
{ACAD_REACTORS
330
41
102
}
330
41
100
AcDbScale
 70
     0
300
1/16" = 1'-0"
140
0.0625
141
12.0
290
     0
  0
SCALE
  5
5D
102
{ACAD_REACTORS
330
41
102
}
330
41
100
AcDbScale
 70
     0
300
3/32" = 1'-0"
140
0.09375
141
12.0
290
     0
  0
SCALE
  5
5E
102
{ACAD_REACTORS
330
41
102
}
330
41
100
AcDbScale
 70
     0
300
1/8" = 1'-0"
140
0.125
141
12.0
290
     0
  0
SCALE
  5
5F
102
{ACAD_REACTORS
330
41
102
}
330
41
100
AcDbScale
 70
     0
300
3/16" = 1'-0"
140
0.1875
141
12.0
290
     0
  0
SCALE
  5
60
102
{ACAD_REACTORS
330
41
102
}
330
41
100
AcDbScale
 70
     0
300
1/4" = 1'-0"
140
0.25
141
12.0
290
     0
  0
SCALE
  5
61
102
{ACAD_REACTORS
330
41
102
}
330
41
100
AcDbScale
 70
     0
300
3/8" = 1'-0"
140
0.375
141
12.0
290
     0
  0
SCALE
  5
62
102
{ACAD_REACTORS
330
41
102
}
330
41
100
AcDbScale
 70
     0
300
1/2" = 1'-0"
140
0.5
141
12.0
290
     0
  0
SCALE
  5
63
102
{ACAD_REACTORS
330
41
102
}
330
41
100
AcDbScale
 70
     0
300
3/4" = 1'-0"
140
0.75
141
12.0
290
     0
  0
SCALE
  5
64
102
{ACAD_REACTORS
330
41
102
}
330
41
100
AcDbScale
 70
     0
300
1" = 1'-0"
140
1.0
141
12.0
290
     0
  0
SCALE
  5
65
102
{ACAD_REACTORS
330
41
102
}
330
41
100
AcDbScale
 70
     0
300
1-1/2" = 1'-0"
140
1.5
141
12.0
290
     0
  0
SCALE
  5
66
102
{ACAD_REACTORS
330
41
102
}
330
41
100
AcDbScale
 70
     0
300
3" = 1'-0"
140
3.0
141
12.0
290
     0
  0
SCALE
  5
67
102
{ACAD_REACTORS
330
41
102
}
330
41
100
AcDbScale
 70
     0
300
6" = 1'-0"
140
6.0
141
12.0
290
     0
  0
SCALE
  5
68
102
{ACAD_REACTORS
330
41
102
}
330
41
100
AcDbScale
 70
     0
300
1'-0" = 1'-0"
140
12.0
141
12.0
290
     0
  0
TABLESTYLE
  5
53
102
{ACAD_XDICTIONARY
360
54
102
}
102
{ACAD_REACTORS
330
42
102
}
330
42
100
AcDbTableStyle
280
     0
  3
Standard
 70
     0
 71
     0
 40
0.06
 41
0.06
280
     0
281
     0
  7
Standard
140
0.18
170
     2
 62
     0
 63
     7
283
     0
 90
        4
 91
        0
  1

274
    -2
284
     1
 64
     0
275
    -2
285
     1
 65
     0
276
    -2
286
     1
 66
     0
277
    -2
287
     1
 67
     0
278
    -2
288
     1
 68
     0
279
    -2
289
     1
 69
     0
  7
Standard
140
0.25
170
     5
 62
     0
 63
     7
283
     0
 90
        4
 91
        0
  1

274
    -2
284
     1
 64
     0
275
    -2
285
     1
 65
     0
276
    -2
286
     1
 66
     0
277
    -2
287
     1
 67
     0
278
    -2
288
     1
 68
     0
279
    -2
289
     1
 69
     0
  7
Standard
140
0.18
170
     5
 62
     0
 63
     7
283
     0
 90
        4
 91
        0
  1

274
    -2
284
     1
 64
     0
275
    -2
285
     1
 65
     0
276
    -2
286
     1
 66
     0
277
    -2
287
     1
 67
     0
278
    -2
288
     1
 68
     0
279
    -2
289
     1
 69
     0
1001
ACAD
1000
AcRTDxfName
1000
TABLESTYLE
1000
AcRTDxfName
1000
TABLESTYLE
1000
AcRTDxfName
1000
TABLESTYLE
1000
AcRTDxfName
1000
TABLESTYLE
1000
AcRTDxfName
1000
TABLESTYLE
1000
AcRTDxfName
1000
TABLESTYLE
1000
AcRTDxfName
1000
TABLESTYLE
1000
AcRTDxfName
1000
TABLESTYLE
1000
AcRTDxfName
1000
TABLESTYLE
1000
AcRTDxfName
1000
TABLESTYLE
1000
AcRTDxfName
1000
TABLESTYLE
1000
AcRTDxfName
1000
TABLESTYLE
1000
AcRTDxfName
1000
TABLESTYLE
1000
AcRTDxfName
1000
TABLESTYLE
1000
AcRTDxfName
1000
TABLESTYLE
1000
AcRTDxfName
1000
TABLESTYLE
1000
AcRTDxfName
1000
TABLESTYLE
1000
AcRTDxfName
1000
TABLESTYLE
  0
VISUALSTYLE
  5
26
102
{ACAD_REACTORS
330
27
102
}
330
27
100
AcDbVisualStyle
  2
2dWireframe
 70
     4
177
     3
291
     0
 70
    58
 90
        0
176
     1
 90
        2
176
     1
 90
        0
176
     1
 90
        0
176
     1
 40
0.6
176
     1
 40
30.0
176
     1
 62
     7
420
 16777215
176
     1
 90
        1
176
     1
 90
        4
176
     1
 62
     7
176
     1
 62
   257
176
     1
 90
        1
176
     1
 90
        1
176
     1
 40
1.0
176
     1
 90
        0
176
     1
 62
   257
176
     1
 40
1.0
176
     1
 90
        1
176
     1
 90
        6
176
     1
 90
        2
176
     1
 62
     7
176
     1
 90
        5
176
     1
 90
        0
176
     1
 90
        0
176
     1
290
     0
176
     1
 90
        1
176
     1
 40
0.0
176
     1
 90
        0
176
     1
290
     1
176
     1
290
     1
176
     1
290
     0
176
     1
290
     0
176
     1
290
     0
176
     1
290
     0
176
     1
290
     0
176
     1
290
     0
176
     1
290
     0
176
     1
 90
       50
176
     1
 40
0.0
176
     1
 40
1.0
176
     1
 90
        0
176
     1
 62
    18
176
     1
 90
       50
176
     1
 90
        3
176
     1
 62
     5
420
      255
176
     1
290
     0
176
     1
 90
       50
176
     1
 90
       50
176
     1
 90
       50
176
     1
290
     0
176
     1
 90
       50
176
     1
 62
   256
176
     0
 40
1.0
176
     0
 90
        2
176
     1
  1
strokes_ogs.tif
176
     1
290
     0
176
     1
 40
1.0
176
     1
 40
1.0
176
     1
  0
VISUALSTYLE
  5
55
102
{ACAD_REACTORS
330
27
102
}
330
27
100
AcDbVisualStyle
  2
Realistic
 70
     8
177
     3
291
     0
 70
    58
 90
        2
176
     1
 90
        3
176
     1
 90
        0
176
     1
 90
        2
176
     1
 40
0.6
176
     1
 40
30.0
176
     1
 62
     7
420
 16777215
176
     1
 90
        0
176
     1
 90
        0
176
     1
 62
     7
176
     1
 62
   257
176
     1
 90
        1
176
     1
 90
        1
176
     1
 40
1.0
176
     1
 90
        8
176
     1
 62
   257
176
     1
 40
1.0
176
     1
 90
        1
176
     1
 90
        6
176
     1
 90
        2
176
     1
 62
     7
176
     1
 90
        3
176
     1
 90
        0
176
     1
 90
        0
176
     1
290
     0
176
     1
 90
       13
176
     1
 40
0.0
176
     1
 90
        0
176
     1
290
     0
176
     1
290
     1
176
     1
290
     1
176
     1
290
     0
176
     1
290
     0
176
     1
290
     0
176
     1
290
     0
176
     1
290
     0
176
     1
290
     0
176
     1
 90
       50
176
     1
 40
0.0
176
     1
 40
1.0
176
     1
 90
        0
176
     1
 62
    18
176
     1
 90
       50
176
     1
 90
        3
176
     1
 62
     5
420
      255
176
     1
290
     0
176
     1
 90
       50
176
     1
 90
       50
176
     1
 90
       50
176
     1
290
     0
176
     1
 90
       50
176
     1
 62
   256
176
     0
 40
1.0
176
     0
 90
        2
176
     1
  1
strokes_ogs.tif
176
     1
290
     0
176
     1
 40
1.0
176
     1
 40
1.0
176
     1
  0
VISUALSTYLE
  5
56
102
{ACAD_REACTORS
330
27
102
}
330
27
100
AcDbVisualStyle
  2
Wireframe
 70
     5
177
     3
291
     0
 70
    58
 90
        0
176
     1
 90
        2
176
     1
 90
        0
176
     1
 90
        0
176
     1
 40
0.6
176
     1
 40
30.0
176
     1
 62
     7
420
 16777215
176
     1
 90
        1
176
     1
 90
        4
176
     1
 62
     7
176
     1
 62
   257
176
     1
 90
        1
176
     1
 90
        1
176
     1
 40
1.0
176
     1
 90
        0
176
     1
 62
   257
176
     1
 40
1.0
176
     1
 90
        1
176
     1
 90
        6
176
     1
 90
        2
176
     1
 62
     7
176
     1
 90
        3
176
     1
 90
        0
176
     1
 90
        0
176
     1
290
     0
176
     1
 90
        1
176
     1
 40
0.0
176
     1
 90
        0
176
     1
290
     0
176
     1
290
     1
176
     1
290
     1
176
     1
290
     0
176
     1
290
     0
176
     1
290
     0
176
     1
290
     0
176
     1
290
     0
176
     1
290
     0
176
     1
 90
       50
176
     1
 40
0.0
176
     1
 40
1.0
176
     1
 90
        0
176
     1
 62
    18
176
     1
 90
       50
176
     1
 90
        3
176
     1
 62
     5
420
      255
176
     1
290
     0
176
     1
 90
       50
176
     1
 90
       50
176
     1
 90
       50
176
     1
290
     0
176
     1
 90
       50
176
     1
 62
   256
176
     0
 40
1.0
176
     0
 90
        2
176
     1
  1
strokes_ogs.tif
176
     1
290
     0
176
     1
 40
1.0
176
     1
 40
1.0
176
     1
  0
DICTIONARYVAR
  5
45
102
{ACAD_REACTORS
330
44
102
}
330
44
100
DictionaryVariables
280
     0
  1
1:1
  0
DICTIONARYVAR
  5
46
102
{ACAD_REACTORS
330
44
102
}
330
44
100
DictionaryVariables
280
     0
  1
STANDARD
  0
DICTIONARYVAR
  5
47
102
{ACAD_REACTORS
330
44
102
}
330
44
100
DictionaryVariables
280
     0
  1
STANDARD
  0
DICTIONARYVAR
  5
48
102
{ACAD_REACTORS
330
44
102
}
330
44
100
DictionaryVariables
280
     0
  1

  0
DICTIONARYVAR
  5
49
102
{ACAD_REACTORS
330
44
102
}
330
44
100
DictionaryVariables
280
     0
  1

  0
DICTIONARYVAR
  5
4A
102
{ACAD_REACTORS
330
44
102
}
330
44
100
DictionaryVariables
280
     0
  1
0
  0
DICTIONARYVAR
  5
4B
102
{ACAD_REACTORS
330
44
102
}
330
44
100
DictionaryVariables
280
     0
  1
1
  0
DICTIONARYVAR
  5
4C
102
{ACAD_REACTORS
330
44
102
}
330
44
100
DictionaryVariables
280
     0
  1
1
  0
DICTIONARYVAR
  5
4D
102
{ACAD_REACTORS
330
44
102
}
330
44
100
DictionaryVariables
280
     0
  1
15
  0
DICTIONARYVAR
  5
4E
102
{ACAD_REACTORS
330
44
102
}
330
44
100
DictionaryVariables
280
     0
  1
0
  0
DICTIONARYVAR
  5
4F
102
{ACAD_REACTORS
330
44
102
}
330
44
100
DictionaryVariables
280
     0
  1
0
  0
DICTIONARYVAR
  5
50
102
{ACAD_REACTORS
330
44
102
}
330
44
100
DictionaryVariables
280
     0
  1

  0
DICTIONARY
  5
39
330
38
100
AcDbDictionary
280
     1
281
     1
  3
BUMPTILE
360
3A
  3
DIFFUSETILE
360
3B
  3
OPACITYTILE
360
3C
  3
REFLECTIONTILE
360
3D
  3
REFRACTIONTILE
360
3E
  3
SPECULARTILE
360
3F
  0
DICTIONARY
  5
31
330
30
100
AcDbDictionary
280
     1
281
     1
  3
BUMPTILE
360
32
  3
DIFFUSETILE
360
33
  3
OPACITYTILE
360
34
  3
REFLECTIONTILE
360
35
  3
REFRACTIONTILE
360
36
  3
SPECULARTILE
360
37
  0
DICTIONARY
  5
C
330
A
100
AcDbDictionary
280
     1
281
     1
  3
BUMPTILE
360
D
  3
DIFFUSETILE
360
E
  3
OPACITYTILE
360
F
  3
REFLECTIONTILE
360
10
  3
REFRACTIONTILE
360
11
  3
SPECULARTILE
360
12
  0
DICTIONARY
  5
54
330
53
100
AcDbDictionary
280
     1
281
     1
  3
ACAD_ROUNDTRIP_2008_TABLESTYLE_CELLSTYLEMAP
360
F2
  0
XRECORD
  5
3A
102
{ACAD_REACTORS
330
39
102
}
330
39
100
AcDbXrecord
280
     1
270
     1
271
     1
  0
XRECORD
  5
3B
102
{ACAD_REACTORS
330
39
102
}
330
39
100
AcDbXrecord
280
     1
270
     1
271
     1
  0
XRECORD
  5
3C
102
{ACAD_REACTORS
330
39
102
}
330
39
100
AcDbXrecord
280
     1
270
     1
271
     1
  0
XRECORD
  5
3D
102
{ACAD_REACTORS
330
39
102
}
330
39
100
AcDbXrecord
280
     1
270
     1
271
     1
  0
XRECORD
  5
3E
102
{ACAD_REACTORS
330
39
102
}
330
39
100
AcDbXrecord
280
     1
270
     1
271
     1
  0
XRECORD
  5
3F
102
{ACAD_REACTORS
330
39
102
}
330
39
100
AcDbXrecord
280
     1
270
     1
271
     1
  0
XRECORD
  5
32
102
{ACAD_REACTORS
330
31
102
}
330
31
100
AcDbXrecord
280
     1
270
     1
271
     1
  0
XRECORD
  5
33
102
{ACAD_REACTORS
330
31
102
}
330
31
100
AcDbXrecord
280
     1
270
     1
271
     1
  0
XRECORD
  5
34
102
{ACAD_REACTORS
330
31
102
}
330
31
100
AcDbXrecord
280
     1
270
     1
271
     1
  0
XRECORD
  5
35
102
{ACAD_REACTORS
330
31
102
}
330
31
100
AcDbXrecord
280
     1
270
     1
271
     1
  0
XRECORD
  5
36
102
{ACAD_REACTORS
330
31
102
}
330
31
100
AcDbXrecord
280
     1
270
     1
271
     1
  0
XRECORD
  5
37
102
{ACAD_REACTORS
330
31
102
}
330
31
100
AcDbXrecord
280
     1
270
     1
271
     1
  0
XRECORD
  5
D
102
{ACAD_REACTORS
330
C
102
}
330
C
100
AcDbXrecord
280
     1
270
     1
271
     1
  0
XRECORD
  5
E
102
{ACAD_REACTORS
330
C
102
}
330
C
100
AcDbXrecord
280
     1
270
     1
271
     1
  0
XRECORD
  5
F
102
{ACAD_REACTORS
330
C
102
}
330
C
100
AcDbXrecord
280
     1
270
     1
271
     1
  0
XRECORD
  5
10
102
{ACAD_REACTORS
330
C
102
}
330
C
100
AcDbXrecord
280
     1
270
     1
271
     1
  0
XRECORD
  5
11
102
{ACAD_REACTORS
330
C
102
}
330
C
100
AcDbXrecord
280
     1
270
     1
271
     1
  0
XRECORD
  5
12
102
{ACAD_REACTORS
330
C
102
}
330
C
100
AcDbXrecord
280
     1
270
     1
271
     1
  0
CELLSTYLEMAP
  5
F2
102
{ACAD_REACTORS
330
54
102
}
330
54
100
AcDbCellStyleMap
 90
        3
300
CELLSTYLE
  1
TABLEFORMAT_BEGIN
 90
        5
170
     1
 91
        0
 92
    32768
 62
   257
 93
        1
300
CONTENTFORMAT
  1
CONTENTFORMAT_BEGIN
 90
        0
 91
        0
 92
        4
 93
        0
300

 40
0.0
140
1.0
 94
        5
 62
     0
340
1D
144
0.25
309
CONTENTFORMAT_END
171
     1
301
MARGIN
  1
CELLMARGIN_BEGIN
 40
0.06
 40
0.06
 40
0.06
 40
0.06
 40
0.18
 40
0.18
309
CELLMARGIN_END
 94
        6
 95
        1
302
GRIDFORMAT
  1
GRIDFORMAT_BEGIN
 90
        0
 91
        1
 62
     0
 92
       -2
340
0
 93
        0
 40
0.045
309
GRIDFORMAT_END
 95
        2
302
GRIDFORMAT
  1
GRIDFORMAT_BEGIN
 90
        0
 91
        1
 62
     0
 92
       -2
340
0
 93
        0
 40
0.045
309
GRIDFORMAT_END
 95
        4
302
GRIDFORMAT
  1
GRIDFORMAT_BEGIN
 90
        0
 91
        1
 62
     0
 92
       -2
340
0
 93
        0
 40
0.045
309
GRIDFORMAT_END
 95
        8
302
GRIDFORMAT
  1
GRIDFORMAT_BEGIN
 90
        0
 91
        1
 62
     0
 92
       -2
340
0
 93
        0
 40
0.045
309
GRIDFORMAT_END
 95
       16
302
GRIDFORMAT
  1
GRIDFORMAT_BEGIN
 90
        0
 91
        1
 62
     0
 92
       -2
340
0
 93
        0
 40
0.045
309
GRIDFORMAT_END
 95
       32
302
GRIDFORMAT
  1
GRIDFORMAT_BEGIN
 90
        0
 91
        1
 62
     0
 92
       -2
340
0
 93
        0
 40
0.045
309
GRIDFORMAT_END
309
TABLEFORMAT_END
  1
CELLSTYLE_BEGIN
 90
        1
 91
        1
300
_TITLE
309
CELLSTYLE_END
300
CELLSTYLE
  1
TABLEFORMAT_BEGIN
 90
        5
170
     1
 91
        0
 92
        0
 62
   257
 93
        1
300
CONTENTFORMAT
  1
CONTENTFORMAT_BEGIN
 90
        0
 91
        0
 92
        4
 93
        0
300

 40
0.0
140
1.0
 94
        5
 62
     0
340
1D
144
0.18
309
CONTENTFORMAT_END
171
     1
301
MARGIN
  1
CELLMARGIN_BEGIN
 40
0.06
 40
0.06
 40
0.06
 40
0.06
 40
0.18
 40
0.18
309
CELLMARGIN_END
 94
        6
 95
        1
302
GRIDFORMAT
  1
GRIDFORMAT_BEGIN
 90
        0
 91
        1
 62
     0
 92
       -2
340
0
 93
        0
 40
0.045
309
GRIDFORMAT_END
 95
        2
302
GRIDFORMAT
  1
GRIDFORMAT_BEGIN
 90
        0
 91
        1
 62
     0
 92
       -2
340
0
 93
        0
 40
0.045
309
GRIDFORMAT_END
 95
        4
302
GRIDFORMAT
  1
GRIDFORMAT_BEGIN
 90
        0
 91
        1
 62
     0
 92
       -2
340
0
 93
        0
 40
0.045
309
GRIDFORMAT_END
 95
        8
302
GRIDFORMAT
  1
GRIDFORMAT_BEGIN
 90
        0
 91
        1
 62
     0
 92
       -2
340
0
 93
        0
 40
0.045
309
GRIDFORMAT_END
 95
       16
302
GRIDFORMAT
  1
GRIDFORMAT_BEGIN
 90
        0
 91
        1
 62
     0
 92
       -2
340
0
 93
        0
 40
0.045
309
GRIDFORMAT_END
 95
       32
302
GRIDFORMAT
  1
GRIDFORMAT_BEGIN
 90
        0
 91
        1
 62
     0
 92
       -2
340
0
 93
        0
 40
0.045
309
GRIDFORMAT_END
309
TABLEFORMAT_END
  1
CELLSTYLE_BEGIN
 90
        2
 91
        1
300
_HEADER
309
CELLSTYLE_END
300
CELLSTYLE
  1
TABLEFORMAT_BEGIN
 90
        5
170
     1
 91
        0
 92
        0
 62
   257
 93
        1
300
CONTENTFORMAT
  1
CONTENTFORMAT_BEGIN
 90
        0
 91
        0
 92
        4
 93
        0
300

 40
0.0
140
1.0
 94
        2
 62
     0
340
1D
144
0.18
309
CONTENTFORMAT_END
171
     1
301
MARGIN
  1
CELLMARGIN_BEGIN
 40
0.06
 40
0.06
 40
0.06
 40
0.06
 40
0.18
 40
0.18
309
CELLMARGIN_END
 94
        6
 95
        1
302
GRIDFORMAT
  1
GRIDFORMAT_BEGIN
 90
        0
 91
        1
 62
     0
 92
       -2
340
0
 93
        0
 40
0.045
309
GRIDFORMAT_END
 95
        2
302
GRIDFORMAT
  1
GRIDFORMAT_BEGIN
 90
        0
 91
        1
 62
     0
 92
       -2
340
0
 93
        0
 40
0.045
309
GRIDFORMAT_END
 95
        4
302
GRIDFORMAT
  1
GRIDFORMAT_BEGIN
 90
        0
 91
        1
 62
     0
 92
       -2
340
0
 93
        0
 40
0.045
309
GRIDFORMAT_END
 95
        8
302
GRIDFORMAT
  1
GRIDFORMAT_BEGIN
 90
        0
 91
        1
 62
     0
 92
       -2
340
0
 93
        0
 40
0.045
309
GRIDFORMAT_END
 95
       16
302
GRIDFORMAT
  1
GRIDFORMAT_BEGIN
 90
        0
 91
        1
 62
     0
 92
       -2
340
0
 93
        0
 40
0.045
309
GRIDFORMAT_END
 95
       32
302
GRIDFORMAT
  1
GRIDFORMAT_BEGIN
 90
        0
 91
        1
 62
     0
 92
       -2
340
0
 93
        0
 40
0.045
309
GRIDFORMAT_END
309
TABLEFORMAT_END
  1
CELLSTYLE_BEGIN
 90
        3
 91
        2
300
_DATA
309
CELLSTYLE_END
  0
ENDSEC
  0
EOF
