  0
SECTION
  2
HEADER
  9
$ACADVER
  1
AC1032
  9
$ACADMAINTVER
 90
      248
  9
$DWGCODEPAGE
  3
ANSI_936
  9
$REQUIREDVERSIONS
160
                 0
  9
$INSBASE
 10
0.0
 20
0.0
 30
0.0
  9
$EXTMIN
 10
5.0
 20
8.999999999999943
 30
0.0
  9
$EXTMAX
 10
821.0
 20
392.0
 30
0.0
  9
$LIMMIN
 10
0.0
 20
0.0
  9
$LIMMAX
 10
285.0
 20
404.0
  9
$ORTHOMODE
 70
     0
  9
$REGENMODE
 70
     1
  9
$FILLMODE
 70
     1
  9
$QTEXTMODE
 70
     0
  9
$MIRRTEXT
 70
     0
  9
$LTSCALE
 40
8.0
  9
$ATTMODE
 70
     1
  9
$TEXTSIZE
 40
2.5
  9
$TRACEWID
 40
0.05
  9
$TEXTSTYLE
  7
SIMPLEX
  9
$CLAYER
  8
0
  9
$CELTYPE
  6
ByLayer
  9
$CECOLOR
 62
   256
  9
$CELTSCALE
 40
1.0
  9
$DISPSILH
 70
     0
  9
$DIMSCALE
 40
1.0
  9
$DIMASZ
 40
3.0
  9
$DIMEXO
 40
1.0
  9
$DIMDLI
 40
10.0
  9
$DIMRND
 40
0.0
  9
$DIMDLE
 40
1.25
  9
$DIMEXE
 40
1.0
  9
$DIMTP
 40
0.0
  9
$DIMTM
 40
0.0
  9
$DIMTXT
 40
2.5
  9
$DIMCEN
 40
0.0
  9
$DIMTSZ
 40
0.0
  9
$DIMTOL
 70
     0
  9
$DIMLIM
 70
     0
  9
$DIMTIH
 70
     0
  9
$DIMTOH
 70
     0
  9
$DIMSE1
 70
     0
  9
$DIMSE2
 70
     0
  9
$DIMTAD
 70
     1
  9
$DIMZIN
 70
     1
  9
$DIMBLK
  1

  9
$DIMASO
 70
     1
  9
$DIMSHO
 70
     1
  9
$DIMPOST
  1

  9
$DIMAPOST
  1

  9
$DIMALT
 70
     0
  9
$DIMALTD
 70
     2
  9
$DIMALTF
 40
25.4
  9
$DIMLFAC
 40
1.0
  9
$DIMTOFL
 70
     1
  9
$DIMTVP
 40
2.0
  9
$DIMTIX
 70
     0
  9
$DIMSOXD
 70
     0
  9
$DIMSAH
 70
     0
  9
$DIMBLK1
  1

  9
$DIMBLK2
  1

  9
$DIMSTYLE
  2
Standard
  9
$DIMCLRD
 70
   256
  9
$DIMCLRE
 70
   256
  9
$DIMCLRT
 70
   256
  9
$DIMTFAC
 40
1.0
  9
$DIMGAP
 40
0.85
  9
$DIMJUST
 70
     0
  9
$DIMSD1
 70
     0
  9
$DIMSD2
 70
     0
  9
$DIMTOLJ
 70
     1
  9
$DIMTZIN
 70
     0
  9
$DIMALTZ
 70
     0
  9
$DIMALTTZ
 70
     0
  9
$DIMUPT
 70
     0
  9
$DIMDEC
 70
     4
  9
$DIMTDEC
 70
     4
  9
$DIMALTU
 70
     2
  9
$DIMALTTD
 70
     2
  9
$DIMTXSTY
  7
SIMPLEX
  9
$DIMAUNIT
 70
     0
  9
$DIMADEC
 70
     0
  9
$DIMALTRND
 40
0.0
  9
$DIMAZIN
 70
     0
  9
$DIMDSEP
 70
    46
  9
$DIMATFIT
 70
     0
  9
$DIMFRAC
 70
     0
  9
$DIMLDRBLK
  1

  9
$DIMLUNIT
 70
     2
  9
$DIMLWD
 70
    -1
  9
$DIMLWE
 70
    -1
  9
$DIMTMOVE
 70
     0
  9
$DIMFXL
 40
1.0
  9
$DIMFXLON
 70
     0
  9
$DIMJOGANG
 40
0.7853981633974483
  9
$DIMTFILL
 70
     0
  9
$DIMTFILLCLR
 70
     0
  9
$DIMARCSYM
 70
     0
  9
$DIMLTYPE
  6

  9
$DIMLTEX1
  6

  9
$DIMLTEX2
  6

  9
$DIMTXTDIRECTION
 70
     0
  9
$LUNITS
 70
     2
  9
$LUPREC
 70
     4
  9
$SKETCHINC
 40
0.1
  9
$FILLETRAD
 40
0.381
  9
$AUNITS
 70
     0
  9
$AUPREC
 70
     0
  9
$MENU
  1
.
  9
$ELEVATION
 40
0.0
  9
$PELEVATION
 40
0.0
  9
$THICKNESS
 40
0.0
  9
$LIMCHECK
 70
     0
  9
$CHAMFERA
 40
0.0
  9
$CHAMFERB
 40
0.0
  9
$CHAMFERC
 40
0.0
  9
$CHAMFERD
 40
0.0
  9
$SKPOLY
 70
     0
  9
$TDCREATE
 40
2453354.050451389
  9
$TDUCREATE
 40
2453353.717125822
  9
$TDUPDATE
 40
2460607.478275463
  9
$TDUUPDATE
 40
2460607.144942130
  9
$TDINDWG
 40
770.7800096065
  9
$TDUSRTIMER
 40
770.7799980440
  9
$USRTIMER
 70
     1
  9
$ANGBASE
 50
0.0
  9
$ANGDIR
 70
     0
  9
$PDMODE
 70
     0
  9
$PDSIZE
 40
0.0
  9
$PLINEWID
 40
0.0
  9
$SPLFRAME
 70
     0
  9
$SPLINETYPE
 70
     6
  9
$SPLINESEGS
 70
     8
  9
$HANDSEED
  5
2DE
  9
$SURFTAB1
 70
     6
  9
$SURFTAB2
 70
     6
  9
$SURFTYPE
 70
     6
  9
$SURFU
 70
     6
  9
$SURFV
 70
     6
  9
$UCSBASE
  2

  9
$UCSNAME
  2

  9
$UCSORG
 10
0.0
 20
0.0
 30
0.0
  9
$UCSXDIR
 10
1.0
 20
0.0
 30
0.0
  9
$UCSYDIR
 10
0.0
 20
1.0
 30
0.0
  9
$UCSORTHOREF
  2

  9
$UCSORTHOVIEW
 70
     0
  9
$UCSORGTOP
 10
0.0
 20
0.0
 30
0.0
  9
$UCSORGBOTTOM
 10
0.0
 20
0.0
 30
0.0
  9
$UCSORGLEFT
 10
0.0
 20
0.0
 30
0.0
  9
$UCSORGRIGHT
 10
0.0
 20
0.0
 30
0.0
  9
$UCSORGFRONT
 10
0.0
 20
0.0
 30
0.0
  9
$UCSORGBACK
 10
0.0
 20
0.0
 30
0.0
  9
$PUCSBASE
  2

  9
$PUCSNAME
  2

  9
$PUCSORG
 10
0.0
 20
0.0
 30
0.0
  9
$PUCSXDIR
 10
1.0
 20
0.0
 30
0.0
  9
$PUCSYDIR
 10
0.0
 20
1.0
 30
0.0
  9
$PUCSORTHOREF
  2

  9
$PUCSORTHOVIEW
 70
     0
  9
$PUCSORGTOP
 10
0.0
 20
0.0
 30
0.0
  9
$PUCSORGBOTTOM
 10
0.0
 20
0.0
 30
0.0
  9
$PUCSORGLEFT
 10
0.0
 20
0.0
 30
0.0
  9
$PUCSORGRIGHT
 10
0.0
 20
0.0
 30
0.0
  9
$PUCSORGFRONT
 10
0.0
 20
0.0
 30
0.0
  9
$PUCSORGBACK
 10
0.0
 20
0.0
 30
0.0
  9
$USERI1
 70
     0
  9
$USERI2
 70
     0
  9
$USERI3
 70
     0
  9
$USERI4
 70
     0
  9
$USERI5
 70
 32767
  9
$USERR1
 40
0.0
  9
$USERR2
 40
0.0
  9
$USERR3
 40
0.0
  9
$USERR4
 40
0.0
  9
$USERR5
 40
0.0
  9
$WORLDVIEW
 70
     1
  9
$SHADEDGE
 70
     3
  9
$SHADEDIF
 70
    70
  9
$TILEMODE
 70
     1
  9
$MAXACTVP
 70
    16
  9
$PINSBASE
 10
0.0
 20
0.0
 30
0.0
  9
$PLIMCHECK
 70
     0
  9
$PEXTMIN
 10
1.000000000000000E+20
 20
1.000000000000000E+20
 30
1.000000000000000E+20
  9
$PEXTMAX
 10
-1.000000000000000E+20
 20
-1.000000000000000E+20
 30
-1.000000000000000E+20
  9
$PLIMMIN
 10
0.0
 20
0.0
  9
$PLIMMAX
 10
12.0
 20
9.0
  9
$UNITMODE
 70
     0
  9
$VISRETAIN
 70
     0
  9
$PLINEGEN
 70
     0
  9
$PSLTSCALE
 70
     0
  9
$TREEDEPTH
 70
  3020
  9
$CMLSTYLE
  2
Standard
  9
$CMLJUST
 70
     0
  9
$CMLSCALE
 40
1.0
  9
$PROXYGRAPHICS
 70
     1
  9
$MEASUREMENT
 70
     0
  9
$CELWEIGHT
370
    -1
  9
$ENDCAPS
280
     0
  9
$JOINSTYLE
280
     0
  9
$LWDISPLAY
290
     0
  9
$INSUNITS
 70
     0
  9
$HYPERLINKBASE
  1

  9
$STYLESHEET
  1

  9
$XEDIT
290
     1
  9
$CEPSNTYPE
380
     0
  9
$PSTYLEMODE
290
     1
  9
$FINGERPRINTGUID
  2
{47E46D99-9886-A54D-8B1C-4826FC4568BC}
  9
$VERSIONGUID
  2
{607D9872-0082-4A70-88D1-3920379459E9}
  9
$EXTNAMES
290
     1
  9
$PSVPSCALE
 40
0.0
  9
$OLESTARTUP
290
     0
  9
$SORTENTS
280
   127
  9
$INDEXCTL
280
     0
  9
$HIDETEXT
280
     1
  9
$XCLIPFRAME
280
     2
  9
$HALOGAP
280
     0
  9
$OBSCOLOR
 70
   257
  9
$OBSLTYPE
280
     0
  9
$INTERSECTIONDISPLAY
280
     0
  9
$INTERSECTIONCOLOR
 70
   257
  9
$DIMASSOC
280
     0
  9
$PROJECTNAME
  1

  9
$CAMERADISPLAY
290
     0
  9
$LENSLENGTH
 40
50.0
  9
$CAMERAHEIGHT
 40
0.0
  9
$STEPSPERSEC
 40
2.0
  9
$STEPSIZE
 40
6.0
  9
$3DDWFPREC
 40
2.0
  9
$PSOLWIDTH
 40
0.25
  9
$PSOLHEIGHT
 40
4.0
  9
$LOFTANG1
 40
1.570796326794896
  9
$LOFTANG2
 40
1.570796326794896
  9
$LOFTMAG1
 40
0.0
  9
$LOFTMAG2
 40
0.0
  9
$LOFTPARAM
 70
     7
  9
$LOFTNORMALS
280
     1
  9
$LATITUDE
 40
37.795
  9
$LONGITUDE
 40
-122.394
  9
$NORTHDIRECTION
 40
0.0
  9
$TIMEZONE
 70
 -8000
  9
$LIGHTGLYPHDISPLAY
280
     1
  9
$TILEMODELIGHTSYNCH
280
     1
  9
$CMATERIAL
347
33
  9
$SOLIDHIST
280
     0
  9
$SHOWHIST
280
     1
  9
$DWFFRAME
280
     2
  9
$DGNFRAME
280
     0
  9
$REALWORLDSCALE
290
     1
  9
$INTERFERECOLOR
 62
     1
  9
$INTERFEREOBJVS
345
59
  9
$INTERFEREVPVS
346
5A
  9
$CSHADOW
280
     0
  9
$SHADOWPLANELOCATION
 40
0.0
  0
ENDSEC
  0
SECTION
  2
CLASSES
  0
CLASS
  1
ACDBDICTIONARYWDFLT
  2
AcDbDictionaryWithDefault
  3
ObjectDBX Classes
 90
        0
 91
        1
280
     0
281
     0
  0
CLASS
  1
DICTIONARYVAR
  2
AcDbDictionaryVar
  3
ObjectDBX Classes
 90
        0
 91
       13
280
     0
281
     0
  0
CLASS
  1
TABLESTYLE
  2
AcDbTableStyle
  3
ObjectDBX Classes
 90
     4095
 91
        1
280
     0
281
     0
  0
CLASS
  1
MATERIAL
  2
AcDbMaterial
  3
ObjectDBX Classes
 90
     1153
 91
        3
280
     0
281
     0
  0
CLASS
  1
VISUALSTYLE
  2
AcDbVisualStyle
  3
ObjectDBX Classes
 90
     4095
 91
        4
280
     0
281
     0
  0
CLASS
  1
SCALE
  2
AcDbScale
  3
ObjectDBX Classes
 90
     1153
 91
       17
280
     0
281
     0
  0
CLASS
  1
MLEADERSTYLE
  2
AcDbMLeaderStyle
  3
ACDB_MLEADERSTYLE_CLASS
 90
     4095
 91
        0
280
     0
281
     0
  0
CLASS
  1
ACDBSECTIONVIEWSTYLE
  2
AcDbSectionViewStyle
  3
ObjectDBX Classes
 90
     1025
 91
        0
280
     0
281
     0
  0
CLASS
  1
ACDBDETAILVIEWSTYLE
  2
AcDbDetailViewStyle
  3
ObjectDBX Classes
 90
     1025
 91
        0
280
     0
281
     0
  0
CLASS
  1
CELLSTYLEMAP
  2
AcDbCellStyleMap
  3
ObjectDBX Classes
 90
     1152
 91
        1
280
     0
281
     0
  0
CLASS
  1
SOLID_BACKGROUND
  2
AcDbSolidBackground
  3
SCENEOE
 90
     4095
 91
        0
280
     0
281
     0
  0
CLASS
  1
NPOCOLLECTION
  2
AcDbImpNonPersistentObjectsCollection
  3
ObjectDBX Classes
 90
     1153
 91
        0
280
     0
281
     0
  0
ENDSEC
  0
SECTION
  2
TABLES
  0
TABLE
  2
VPORT
  5
26
330
0
100
AcDbSymbolTable
 70
     1
  0
VPORT
  5
27
330
26
100
AcDbSymbolTableRecord
100
AcDbViewportTableRecord
  2
*Active
 70
     0
 10
0.0
 20
0.0
 11
1.0
 21
1.0
 12
537.4047297748656
 22
159.1647519722062
 13
0.0
 23
0.0
 14
0.1
 24
0.1
 15
0.5
 25
0.5
 16
0.0
 26
0.0
 36
1.0
 17
0.0
 27
0.0
 37
0.0
 40
569.3979896810357
 41
2.570850202429149
 42
50.0
 43
0.0
 44
0.0
 50
0.0
 51
0.0
 71
    16
 72
   500
 73
     1
 74
     1
 75
     0
 76
     0
 77
     0
 78
     0
281
     0
 65
     1
110
0.0
120
0.0
130
0.0
111
1.0
121
0.0
131
0.0
112
0.0
122
1.0
132
0.0
 79
     0
146
0.0
348
28
 60
     3
 61
     5
292
     1
282
     1
141
0.0
142
0.0
 63
   250
421
  3355443
1001
ACAD_NAV_VCDISPLAY
1070
     3
  0
ENDTAB
  0
TABLE
  2
LTYPE
  5
21
330
0
100
AcDbSymbolTable
 70
     3
  0
LTYPE
  5
22
330
21
100
AcDbSymbolTableRecord
100
AcDbLinetypeTableRecord
  2
ByBlock
 70
     0
  3

 72
    65
 73
     0
 40
0.0
  0
LTYPE
  5
23
330
21
100
AcDbSymbolTableRecord
100
AcDbLinetypeTableRecord
  2
ByLayer
 70
     0
  3

 72
    65
 73
     0
 40
0.0
  0
LTYPE
  5
13
330
21
100
AcDbSymbolTableRecord
100
AcDbLinetypeTableRecord
  2
Continuous
 70
     0
  3
Solid line
 72
    65
 73
     0
 40
0.0
  0
LTYPE
  5
98
330
21
100
AcDbSymbolTableRecord
100
AcDbLinetypeTableRecord
  2
CENTER
 70
     0
  3
____ _ ____ _ ____ _ ____ _ ____ _ ____ _ ____
 72
    65
 73
     4
 40
2.0
 49
1.25
 74
     4
 75
     0
340
0
 46
1.0
 50
0.0
 44
0.0
 45
0.0
 49
-0.25
 74
     4
 75
     0
340
0
 46
1.0
 50
0.0
 44
0.0
 45
0.0
 49
0.25
 74
     4
 75
     0
340
0
 46
1.0
 50
0.0
 44
0.0
 45
0.0
 49
-0.25
 74
     4
 75
     0
340
0
 46
1.0
 50
0.0
 44
0.0
 45
0.0
  0
LTYPE
  5
C9
330
21
100
AcDbSymbolTableRecord
100
AcDbLinetypeTableRecord
  2
HIDDEN
 70
     0
  3
_ _ _ _ _ _ _ _ _ _ _ _ _ _ _ _ _ _ _ _ _ _ _
 72
    65
 73
     2
 40
0.375
 49
0.25
 74
     4
 75
     0
340
0
 46
1.0
 50
0.0
 44
0.0
 45
0.0
 49
-0.125
 74
     4
 75
     0
340
0
 46
1.0
 50
0.0
 44
0.0
 45
0.0
  0
ENDTAB
  0
TABLE
  2
LAYER
  5
1B
102
{ACAD_XDICTIONARY
360
1C
102
}
330
0
100
AcDbSymbolTable
 70
     6
  0
LAYER
  5
4
102
{ACAD_XDICTIONARY
360
5
102
}
330
1B
100
AcDbSymbolTableRecord
100
AcDbLayerTableRecord
  2
0
 70
     0
 62
     7
  6
Continuous
370
    -3
390
7
347
A
348
0
  0
LAYER
  5
6D
102
{ACAD_XDICTIONARY
360
6E
102
}
330
1B
100
AcDbSymbolTableRecord
100
AcDbLayerTableRecord
  2
DIM
 70
     0
 62
     7
  6
Continuous
370
    -3
390
7
347
A
348
0
  0
LAYER
  5
95
102
{ACAD_XDICTIONARY
360
96
102
}
330
1B
100
AcDbSymbolTableRecord
100
AcDbLayerTableRecord
  2
CEN
 70
     0
 62
     2
  6
CENTER
370
    -3
390
7
347
A
348
0
  0
LAYER
  5
A1
102
{ACAD_XDICTIONARY
360
A2
102
}
330
1B
100
AcDbSymbolTableRecord
100
AcDbLayerTableRecord
  2
LF-LINE
 70
     0
 62
     1
  6
Continuous
370
    -3
390
7
347
A
348
0
  0
LAYER
  5
B6
102
{ACAD_XDICTIONARY
360
B7
102
}
330
1B
100
AcDbSymbolTableRecord
100
AcDbLayerTableRecord
  2
COIN-LINE
 70
     0
 62
     4
  6
Continuous
370
    -3
390
7
347
A
348
0
  0
LAYER
  5
C6
102
{ACAD_XDICTIONARY
360
C7
102
}
330
1B
100
AcDbSymbolTableRecord
100
AcDbLayerTableRecord
  2
PKG-OUT
 70
     0
 62
     3
  6
HIDDEN
370
    -3
390
7
347
A
348
0
  0
ENDTAB
  0
TABLE
  2
STYLE
  5
1E
330
0
100
AcDbSymbolTable
 70
     2
  0
STYLE
  5
1F
330
1E
100
AcDbSymbolTableRecord
100
AcDbTextStyleTableRecord
  2
Standard
 70
     0
 40
3.0
 41
1.0
 50
0.0
 71
     0
 42
2.5
  3
SIMPLEX
  4

  0
STYLE
  5
55
330
1E
100
AcDbSymbolTableRecord
100
AcDbTextStyleTableRecord
  2
SIMPLEX
 70
     0
 40
2.5
 41
1.0
 50
0.0
 71
     0
 42
2.5
  3
SIMPLEX.shx
  4

  0
ENDTAB
  0
TABLE
  2
VIEW
  5
24
330
0
100
AcDbSymbolTable
 70
     0
  0
ENDTAB
  0
TABLE
  2
UCS
  5
25
330
0
100
AcDbSymbolTable
 70
     0
  0
ENDTAB
  0
TABLE
  2
APPID
  5
2B
330
0
100
AcDbSymbolTable
 70
     2
  0
APPID
  5
2C
330
2B
100
AcDbSymbolTableRecord
100
AcDbRegAppTableRecord
  2
ACAD
 70
     0
  0
APPID
  5
2A
330
2B
100
AcDbSymbolTableRecord
100
AcDbRegAppTableRecord
  2
ACAD_NAV_VCDISPLAY
 70
     0
  0
ENDTAB
  0
TABLE
  2
DIMSTYLE
  5
2D
330
0
100
AcDbSymbolTable
 70
     1
100
AcDbDimStyleTable
 71
     1
340
2E
  0
DIMSTYLE
105
2E
330
2D
100
AcDbSymbolTableRecord
100
AcDbDimStyleTableRecord
  2
Standard
 70
     0
340
1F
  0
ENDTAB
  0
TABLE
  2
BLOCK_RECORD
  5
1
330
0
100
AcDbSymbolTable
 70
     1
  0
BLOCK_RECORD
  5
2
330
1
100
AcDbSymbolTableRecord
100
AcDbBlockTableRecord
  2
*Model_Space
340
15
 70
     0
280
     1
281
     0
  0
BLOCK_RECORD
  5
17
330
1
100
AcDbSymbolTableRecord
100
AcDbBlockTableRecord
  2
*Paper_Space
340
1A
 70
     0
280
     1
281
     0
  0
BLOCK_RECORD
  5
AB
330
1
100
AcDbSymbolTableRecord
100
AcDbBlockTableRecord
  2
INT2
340
0
310
2800000020000000200000000100080000000000000400000000000000000000000000000000000000000000000080000080000000808000800000008000800080800000C0C0C000C0DCC000F0CAA6000020400000206000002080000020A0000020C0000020E00000400000004020000040400000406000004080000040A0
310
000040C0000040E00000600000006020000060400000606000006080000060A0000060C0000060E00000800000008020000080400000806000008080000080A0000080C0000080E00000A0000000A0200000A0400000A0600000A0800000A0A00000A0C00000A0E00000C0000000C0200000C0400000C0600000C0800000C0
310
A00000C0C00000C0E00000E0000000E0200000E0400000E0600000E0800000E0A00000E0C00000E0E00040000000400020004000400040006000400080004000A0004000C0004000E00040200000402020004020400040206000402080004020A0004020C0004020E000404000004040200040404000404060004040800040
310
40A0004040C0004040E00040600000406020004060400040606000406080004060A0004060C0004060E00040800000408020004080400040806000408080004080A0004080C0004080E00040A0000040A0200040A0400040A0600040A0800040A0A00040A0C00040A0E00040C0000040C0200040C0400040C0600040C08000
310
40C0A00040C0C00040C0E00040E0000040E0200040E0400040E0600040E0800040E0A00040E0C00040E0E00080000000800020008000400080006000800080008000A0008000C0008000E00080200000802020008020400080206000802080008020A0008020C0008020E00080400000804020008040400080406000804080
310
008040A0008040C0008040E00080600000806020008060400080606000806080008060A0008060C0008060E00080800000808020008080400080806000808080008080A0008080C0008080E00080A0000080A0200080A0400080A0600080A0800080A0A00080A0C00080A0E00080C0000080C0200080C0400080C0600080C0
310
800080C0A00080C0C00080C0E00080E0000080E0200080E0400080E0600080E0800080E0A00080E0C00080E0E000C0000000C0002000C0004000C0006000C0008000C000A000C000C000C000E000C0200000C0202000C0204000C0206000C0208000C020A000C020C000C020E000C0400000C0402000C0404000C0406000C0
310
408000C040A000C040C000C040E000C0600000C0602000C0604000C0606000C0608000C060A000C060C000C060E000C0800000C0802000C0804000C0806000C0808000C080A000C080C000C080E000C0A00000C0A02000C0A04000C0A06000C0A08000C0A0A000C0A0C000C0A0E000C0C00000C0C02000C0C04000C0C06000
310
C0C08000C0C0A000F0FBFF00A4A0A000808080000000FF0000FF000000FFFF00FF000000FF00FF00FFFF0000FFFFFF000000000000000000000000000000000000000000000000000000000000000000000000000000FFFF00000000000000000000000000000000FFFF000000000000000000000000FFFF00000000000000
310
000000000000000000FFFF000000000000000000000000FFFAFAFAFAFAFAFAFAFAFAFFFFFFFFFFFFFFFFFF000000000000000000000000FFFA0000000000000000FFFF000000000000FAFF000000000000000000000000FFFAFFFFFFFAFAFAFAFAFAFAFAFAFAFAFAFAFFFF00000000000000000000000000FA000000FAFAFA
310
FAFAFFFF000000FAFAFAFA0000000000000000000000000000FA00FFFFFAFAFAFAFAFFFF000000FAFAFAFA00000000000000000000000000FFFFFF00FFFAFAFAFAFAFAFAFAFAFFFAFAFAFFFF000000000000000000000000FFFA00FF00000000000000000000FAFAFAFAFAFF000000000000000000000000FFFA00FF000000
310
00000000000000FAFAFAFAFAFF000000000000000000000000FFFFFFFF00000000000000000000FAFAFAFAFFFF00000000000000000000000000FAFFFF00000000000000000000FAFAFAFAFA0000000000000000000000000000FAFFFF00000000000000000000FAFAFAFAFA00000000000000000000000000FFFFFFFF0000
310
0000000000000000FAFAFAFAFFFF000000000000000000000000FFFA00FF00000000000000000000FAFAFAFAFAFF000000000000000000000000FFFA00FF00000000000000000000FAFAFAFAFAFF000000000000000000000000FFFFFFFF00000000000000000000FAFAFAFAFAFF00000000000000000000000000FAFFFF00
310
000000000000000000FAFAFAFAFAFF00000000000000000000000000FAFFFF00000000000000000000FAFA00FAFAFF00000000000000000000000000FAFFFF00000000000000000000FAFAFAFAFAFF000000000000000000000000FFFFFFFF00000000000000000000FAFF00FAFAFF000000000000000000000000FFFA00FF
310
00000000000000000000FAFFFFFAFAFF000000000000000000000000FFFA00FF0000000000FFFF000000FAFFFFFAFAFF000000000000000000000000FFFFFF00FFFFFFFFFFFAFAFAFAFAFAFFFFFAFFFF00000000000000000000000000FA00FFFFFF0000FFFAFA000000FAFFFFFFFA00000000000000000000000000FFFAFF
310
0000FF0000FFFAFAFAFAFAFAFAFAFAFFFF000000000000000000000000FFFA00FFFFFF0000FFFF0000000000000000FAFF000000000000000000000000FFFAFAFAFAFAFAFAFAFFFFFFFFFFFFFFFFFFFAFF000000000000000000000000FF00000000000000FF000000000000000000FFFF000000000000000000000000FF00
310
000000000000FF00000000000000000000000000000000000000000000000000000000000000000000000000000000000000000000000000
102
{BLKREFS
331
AA
102
}
 70
     0
280
     1
281
     0
  0
ENDTAB
  0
ENDSEC
  0
SECTION
  2
BLOCKS
  0
BLOCK
  5
3
330
2
100
AcDbEntity
  8
0
100
AcDbBlockBegin
  2
*Model_Space
 70
     0
 10
0.0
 20
0.0
 30
0.0
  3
*Model_Space
  1

  0
ENDBLK
  5
14
330
2
100
AcDbEntity
  8
0
100
AcDbBlockEnd
  0
BLOCK
  5
18
330
17
100
AcDbEntity
 67
     1
  8
0
100
AcDbBlockBegin
  2
*Paper_Space
 70
     0
 10
0.0
 20
0.0
 30
0.0
  3
*Paper_Space
  1

  0
ENDBLK
  5
19
330
17
100
AcDbEntity
 67
     1
  8
0
100
AcDbBlockEnd
  0
BLOCK
  5
AC
330
AB
100
AcDbEntity
  8
0
100
AcDbBlockBegin
  2
INT2
 70
     0
 10
0.0
 20
0.0
 30
0.0
  3
INT2
  1

  0
LWPOLYLINE
  5
AD
330
AB
100
AcDbEntity
  8
0
100
AcDbPolyline
 90
       17
 70
     0
 43
0.0
 10
-0.0210000000002424
 20
0.2119999999998754
 10
-0.0210000000000719
 20
0.1876502116982692
 42
-0.33498616980507
 10
-0.0230000000001951
 20
0.184999999999718
 42
0.3349861698032782
 10
-0.0250000000002046
 20
0.1823497883011669
 10
-0.0250000000002046
 20
0.1227559055117808
 42
-0.4142135623732141
 10
-0.0277559055120378
 20
0.1200000000000045
 10
-0.0592440944883492
 20
0.1199999999998909
 42
-0.4142135623717868
 10
-0.0620000000001824
 20
0.1227559055116671
 10
-0.0620000000003529
 20
0.1622440944881873
 42
0.414213562371549
 10
-0.0647559055122429
 20
0.1650000000000205
 10
-0.1072440944881805
 20
0.1650000000000205
 42
0.4142135623730951
 10
-0.1100000000000705
 20
0.1622440944881873
 10
-0.1100000000000705
 20
0.1617559055118249
 42
-0.4142135623735707
 10
-0.1127559055118468
 20
0.1589999999999918
 10
-0.1472440944883147
 20
0.1590000000000487
 42
-0.4142135623728573
 10
-0.1500000000001478
 20
0.1617559055118818
 10
-0.1500000000000909
 20
0.2119999999998754
  0
LWPOLYLINE
  5
AE
330
AB
100
AcDbEntity
  8
0
100
AcDbPolyline
 90
       37
 70
     1
 43
0.0
 10
-0.0358071860365499
 20
-0.1508071860362747
 42
-0.1989123673785131
 10
-0.0338584665608437
 20
-0.1500000000002046
 10
-0.0047559055119564
 20
-0.1500000000002046
 42
0.4142135623730951
 10
-0.0020000000001801
 20
-0.1472440944883715
 10
-0.0020000000001801
 20
-0.1299999999999954
 10
-0.0472440944883488
 20
-0.1299999999999954
 42
0.4142135623715492
 10
-0.0500000000001819
 20
-0.1327559055117717
 10
-0.0500000000002388
 20
-0.1392440944880491
 42
-0.4142135623711924
 10
-0.052755905512015
 20
-0.1419999999998254
 10
-0.0592440944884061
 20
-0.1419999999998254
 42
-0.4142135623752356
 10
-0.0620000000002961
 20
-0.1392440944879922
 10
-0.0620000000001824
 20
-0.1227559055117808
 42
-0.4142135623711923
 10
-0.0592440944883492
 20
-0.1200000000000045
 10
-0.0020000000002369
 20
-0.1200000000000045
 10
-0.0020000000002369
 20
-0.1197559055120791
 42
-0.4142135623607273
 10
0.0007559055115394
 20
-0.1170000000004165
 10
0.0072440944879304
 20
-0.1170000000004165
 42
-0.4142135623710734
 10
0.0099999999997635
 20
-0.1197559055121928
 10
0.0099999999998204
 20
-0.1823497883017353
 42
0.3349861697930311
 10
0.0119999999998299
 20
-0.1850000000002865
 42
-0.3349861697933758
 10
0.0139999999998963
 20
-0.1876502116988377
 10
0.0139999999998963
 20
-0.1922440944883306
 42
-0.4142135623728573
 10
0.0112440944880064
 20
-0.1950000000001637
 10
-0.1222440944883942
 20
-0.1950000000002774
 42
0.4142135623727384
 10
-0.1250000000001705
 20
-0.1977559055121105
 10
-0.1250000000001705
 20
-0.2182440944882842
 42
-0.4142135623730807
 10
-0.1277559055120037
 20
-0.2210000000001742
 10
-0.1472440944883147
 20
-0.2210000000001742
 42
-0.4142135623730951
 10
-0.1500000000000341
 20
-0.2182440944882842
 10
-0.1500000000000341
 20
-0.1617559055118818
 42
-0.4142135623727384
 10
-0.1472440944883147
 20
-0.1590000000001055
 10
-0.1127559055118468
 20
-0.1590000000001055
 42
-0.4142135623734517
 10
-0.1100000000000705
 20
-0.1617559055118818
 10
-0.1100000000000705
 20
-0.1622440944882442
 42
0.4142135623732141
 10
-0.1072440944881805
 20
-0.1650000000000773
 10
-0.0511415334400454
 20
-0.1650000000000773
 42
0.198912367378315
 10
-0.0491928139642823
 20
-0.1641928139639504
  0
LINE
  5
AF
330
AB
100
AcDbEntity
  8
0
100
AcDbLine
 10
-0.1009999999999991
 20
-0.0440000000000964
 30
0.0
 11
-0.1009999999999991
 21
-0.0200000000000955
 31
0.0
  0
LINE
  5
B0
330
AB
100
AcDbEntity
  8
0
100
AcDbLine
 10
-0.11099999999999
 20
-0.0440000000000964
 30
0.0
 11
-0.11099999999999
 21
-0.0200000000000955
 31
0.0
  0
LINE
  5
B1
330
AB
100
AcDbEntity
  8
0
100
AcDbLine
 10
-0.11099999999999
 20
0.0439999999999827
 30
0.0
 11
-0.11099999999999
 21
0.0199999999999818
 31
0.0
  0
LINE
  5
B2
330
AB
100
AcDbEntity
  8
0
100
AcDbLine
 10
-0.1009999999999991
 20
0.0439999999999827
 30
0.0
 11
-0.1009999999999991
 21
0.0199999999999818
 31
0.0
  0
LWPOLYLINE
  5
B3
330
AB
100
AcDbEntity
  8
0
100
AcDbPolyline
 90
        8
 70
     1
 43
0.0
 10
-0.0980000000000701
 20
-0.0467559055118727
 10
-0.0980000000000701
 20
-0.0532440944882637
 42
-0.4142135623731141
 10
-0.1007559055118463
 20
-0.05600000000004
 10
-0.1152440944882187
 20
-0.05600000000004
 42
-0.4142135623730951
 10
-0.1180000000000518
 20
-0.0532440944882637
 10
-0.1180000000000518
 20
-0.0467559055118727
 42
-0.4142135623730951
 10
-0.1152440944882187
 20
-0.0440000000000964
 10
-0.1007559055118463
 20
-0.0440000000000964
 42
-0.4142135623730951
  0
LWPOLYLINE
  5
B4
330
AB
100
AcDbEntity
  8
0
100
AcDbPolyline
 90
        8
 70
     1
 43
0.0
 10
-0.0980000000000701
 20
0.0532440944881501
 10
-0.0980000000000701
 20
0.046755905511759
 42
-0.4142135623730951
 10
-0.1007559055118463
 20
0.0439999999999827
 10
-0.1152440944882187
 20
0.0439999999999827
 42
-0.4142135623731659
 10
-0.1180000000000518
 20
0.046755905511759
 10
-0.1180000000000518
 20
0.0532440944881501
 42
-0.4142135623730951
 10
-0.1152440944882187
 20
0.0559999999999263
 10
-0.1007559055118463
 20
0.0559999999999263
 42
-0.4142135623731468
  0
LINE
  5
B5
330
AB
100
AcDbEntity
  8
COIN-LINE
100
AcDbLine
 10
0.1079999999998904
 20
-0.1341318031075787
 30
0.0
 11
0.1079999999998904
 21
-0.1200000000000045
 31
0.0
  0
LINE
  5
B9
330
AB
100
AcDbEntity
  8
COIN-LINE
100
AcDbLine
 10
0.1079999999999472
 20
-0.0446318031077055
 30
0.0
 11
0.1079999999999472
 21
-0.0199999999999818
 31
0.0
  0
LINE
  5
BA
330
AB
100
AcDbEntity
  8
COIN-LINE
100
AcDbLine
 10
0.1079999999998904
 20
-0.0800000000000978
 30
0.0
 11
0.1079999999998904
 21
-0.0553681968925162
 31
0.0
  0
LINE
  5
BB
330
AB
100
AcDbEntity
  8
COIN-LINE
100
AcDbLine
 10
0.074999999999875
 20
0.1299999999997681
 30
0.0
 11
0.074999999999875
 21
0.1499999999997499
 31
0.0
  0
LINE
  5
BC
330
AB
100
AcDbEntity
  8
0
100
AcDbLine
 10
-0.0250000000002046
 20
0.1340000000000714
 30
0.0
 11
-0.0050000000000523
 21
0.1340000000000714
 31
0.0
  0
LINE
  5
BD
330
AB
100
AcDbEntity
  8
0
100
AcDbLine
 10
-0.0250000000002046
 20
0.1240000000000805
 30
0.0
 11
-0.0050000000000523
 21
0.1240000000000805
 31
0.0
  0
LINE
  5
BE
330
AB
100
AcDbEntity
  8
0
100
AcDbLine
 10
-0.0820000000003916
 20
0.1239999999997963
 30
0.0
 11
-0.0620000000001255
 21
0.1239999999999668
 31
0.0
  0
LINE
  5
BF
330
AB
100
AcDbEntity
  8
0
100
AcDbLine
 10
-0.0820000000003916
 20
0.1339999999997872
 30
0.0
 11
-0.0620000000001255
 21
0.1339999999999577
 31
0.0
  0
LWPOLYLINE
  5
C0
330
AB
100
AcDbEntity
  8
0
100
AcDbPolyline
 90
        8
 70
     1
 43
0.0
 10
0.1089999999999236
 20
-0.1362559055119163
 10
0.1089999999999236
 20
-0.1427440944881937
 42
-0.4142135623730951
 10
0.1062440944880905
 20
-0.1455000000000268
 10
0.0997559055116995
 20
-0.1455000000000268
 42
-0.4142135623730951
 10
0.0969999999999232
 20
-0.1427440944881937
 10
0.0969999999999232
 20
-0.1362559055119163
 42
-0.4142135623730951
 10
0.0997559055116995
 20
-0.1335000000000264
 10
0.1062440944880905
 20
-0.1335000000000264
 42
-0.4142135623730595
  0
LINE
  5
C1
330
AB
100
AcDbEntity
  8
0
100
AcDbLine
 10
-0.0820000000001642
 20
-0.1340000000000145
 30
0.0
 11
-0.0620000000001255
 21
-0.1340000000000145
 31
0.0
  0
LINE
  5
C2
330
AB
100
AcDbEntity
  8
0
100
AcDbLine
 10
-0.0820000000000505
 20
-0.1240000000000236
 30
0.0
 11
-0.0620000000001255
 21
-0.1240000000000236
 31
0.0
  0
LINE
  5
C3
330
AB
100
AcDbEntity
  8
COIN-LINE
100
AcDbLine
 10
0.1079999999998336
 20
-0.1590000000000487
 30
0.0
 11
0.1079999999998336
 21
-0.1448681968924745
 31
0.0
  0
LWPOLYLINE
  5
C4
330
AB
100
AcDbEntity
  8
0
100
AcDbPolyline
 90
        8
 70
     1
 43
0.0
 10
0.1089999999999236
 20
-0.0532440944882069
 10
0.1089999999999236
 20
-0.0467559055118727
 42
0.4142135623731304
 10
0.1062440944880905
 20
-0.0440000000000964
 10
0.0997559055116995
 20
-0.0440000000000964
 42
0.4142135623730951
 10
0.0969999999999232
 20
-0.0467559055118727
 10
0.0969999999999232
 20
-0.0532440944882069
 42
0.4142135623730951
 10
0.0997559055116995
 20
-0.05600000000004
 10
0.1062440944880905
 20
-0.05600000000004
 42
0.4142135623731658
  0
LWPOLYLINE
  5
C5
330
AB
100
AcDbEntity
  8
PKG-OUT
100
AcDbPolyline
 90
        4
 70
     1
 43
0.0
 10
0.1249999999998863
 20
-0.1900000000000546
 10
0.1249999999998863
 20
0.1899999999999409
 10
-0.1250000000001705
 20
0.1899999999999409
 10
-0.1250000000001705
 20
-0.1900000000000546
  0
LWPOLYLINE
  5
CA
330
AB
100
AcDbEntity
  8
0
100
AcDbPolyline
 90
        8
 70
     1
 43
0.0
 10
-0.0980000000001269
 20
-0.0172440944883192
 10
-0.0980000000001269
 20
0.0172440944881487
 42
0.4142135623730951
 10
-0.10075590551196
 20
0.0199999999999818
 10
-0.1472440944883147
 20
0.0199999999999818
 42
0.4142135623730951
 10
-0.1500000000001478
 20
0.0172440944881487
 10
-0.1500000000001478
 20
-0.0172440944882624
 42
0.4142135623727023
 10
-0.1472440944883147
 20
-0.0200000000000387
 10
-0.10075590551196
 20
-0.0200000000000955
 42
0.4142135623734984
  0
LINE
  5
CB
330
AB
100
AcDbEntity
  8
0
100
AcDbLine
 10
0.0099999999997067
 20
-0.1240000000001373
 30
0.0
 11
0.029999999999859
 21
-0.1240000000001373
 31
0.0
  0
LINE
  5
CC
330
AB
100
AcDbEntity
  8
0
100
AcDbLine
 10
0.0099999999997067
 20
-0.1340000000001282
 30
0.0
 11
0.029999999999859
 21
-0.1340000000001282
 31
0.0
  0
LINE
  5
CD
330
AB
100
AcDbEntity
  8
0
100
AcDbLine
 10
-0.1009999999999991
 20
0.0799999999999273
 30
0.0
 11
-0.1009999999999991
 21
0.0559999999999263
 31
0.0
  0
LINE
  5
CE
330
AB
100
AcDbEntity
  8
0
100
AcDbLine
 10
-0.11099999999999
 20
0.0799999999999273
 30
0.0
 11
-0.11099999999999
 21
0.0559999999999263
 31
0.0
  0
LINE
  5
CF
330
AB
100
AcDbEntity
  8
0
100
AcDbLine
 10
-0.11099999999999
 20
-0.0800000000000409
 30
0.0
 11
-0.11099999999999
 21
-0.05600000000004
 31
0.0
  0
LINE
  5
D0
330
AB
100
AcDbEntity
  8
0
100
AcDbLine
 10
-0.1009999999999991
 20
-0.0800000000000409
 30
0.0
 11
-0.1009999999999991
 21
-0.05600000000004
 31
0.0
  0
LWPOLYLINE
  5
D1
330
AB
100
AcDbEntity
  8
0
100
AcDbPolyline
 90
       16
 70
     1
 43
0.0
 10
-0.0847559055121678
 20
0.1419999999998822
 10
-0.0957071712888933
 20
0.1419999999999391
 42
0.2679491924323745
 10
-0.0980938554725981
 20
0.1406220472440509
 10
-0.1092044386056159
 20
0.1213779527558358
 42
-0.267949192431124
 10
-0.1115911227892639
 20
0.1200000000000045
 10
-0.1472440944883147
 20
0.1200000000000045
 42
0.4142135623730951
 10
-0.1500000000000341
 20
0.1172440944881714
 10
-0.1500000000000341
 20
0.0827559055117604
 42
0.4142135623729063
 10
-0.1472440944883147
 20
0.0799999999999273
 10
-0.10075590551196
 20
0.0799999999999273
 42
0.4142135623718988
 10
-0.0980000000001269
 20
0.0827559055117036
 10
-0.0980000000000132
 20
0.1099999999998999
 42
-0.4142135623717424
 10
-0.0880000000000223
 20
0.1199999999998909
 10
-0.0847559055119405
 20
0.1199999999999477
 42
0.414213562373414
 10
-0.0820000000001642
 20
0.1227559055117808
 10
-0.0820000000003347
 20
0.1392440944881628
 42
0.4142135623679103
  0
LWPOLYLINE
  5
D2
330
AB
100
AcDbEntity
  8
0
100
AcDbPolyline
 90
       16
 70
     1
 43
0.0
 10
-0.0820000000003347
 20
-0.1392440944881628
 10
-0.0820000000001642
 20
-0.1227559055117808
 42
0.4142135623769099
 10
-0.0847559055119973
 20
-0.1200000000000045
 10
-0.0880000000000223
 20
-0.1200000000000045
 42
-0.4142135623726789
 10
-0.0980000000000132
 20
-0.1100000000000136
 10
-0.0980000000001269
 20
-0.0827559055118172
 42
0.4142135623716969
 10
-0.1007559055118463
 20
-0.0799999999999841
 10
-0.1472440944883147
 20
-0.0799999999999841
 42
0.4142135623730951
 10
-0.1500000000001478
 20
-0.0827559055118172
 10
-0.1500000000001478
 20
-0.1172440944882283
 42
0.4142135623728391
 10
-0.1472440944883147
 20
-0.1200000000000045
 10
-0.1115911227892639
 20
-0.1200000000000045
 42
-0.2679491924306797
 10
-0.1092044386056159
 20
-0.1213779527559495
 10
-0.0980938554725981
 20
-0.1406220472441078
 42
0.2679491924321619
 10
-0.0957071712888933
 20
-0.1419999999999959
 10
-0.0847559055121678
 20
-0.1419999999999391
 42
0.4142135623679106
  0
LINE
  5
D3
330
AB
100
AcDbEntity
  8
COIN-LINE
100
AcDbLine
 10
-0.0550000000002342
 20
-0.1419999999998254
 30
0.0
 11
-0.0550000000002911
 21
-0.1650000000000205
 31
0.0
  0
LINE
  5
D4
330
AB
100
AcDbEntity
  8
0
100
AcDbLine
 10
0.0749999999992497
 20
0.0950000000000841
 30
0.0
 11
0.0749999999995339
 21
0.0750000000001023
 31
0.0
  0
LINE
  5
D5
330
AB
100
AcDbEntity
  8
0
100
AcDbLine
 10
0.0849999999992406
 20
0.0950000000002547
 30
0.0
 11
0.0849999999995248
 21
0.0750000000002729
 31
0.0
  0
LINE
  5
D6
330
AB
100
AcDbEntity
  8
COIN-LINE
100
AcDbLine
 10
0.0919999999998709
 20
0.0690000000000737
 30
0.0
 11
0.1079999999998336
 21
0.0690000000000737
 31
0.0
  0
LWPOLYLINE
  5
D7
330
AB
100
AcDbEntity
  8
0
100
AcDbPolyline
 90
       93
 70
     1
 43
0.0
 10
0.0719999999998891
 20
0.1099999999997863
 10
0.0719999999998322
 20
0.0977559055118036
 42
0.4142135623748083
 10
0.0747559055116653
 20
0.0950000000000273
 10
0.0892440944880377
 20
0.0950000000000273
 42
0.4142135623728573
 10
0.0919999999998709
 20
0.0977559055118036
 10
0.0919999999998709
 20
0.0999999999999659
 10
0.1052440944879436
 20
0.0999999999999659
 42
-0.4142135623730951
 10
0.1079999999997199
 20
0.0972440944881328
 10
0.1079999999999472
 20
0.0297559055117063
 42
-0.4142135623728573
 10
0.1052440944881141
 20
0.0269999999998731
 10
0.0900000000000319
 20
0.0269999999998731
 10
0.0899999999998613
 20
0.0628758975959158
 42
-0.2236222439440165
 10
0.0909999999998945
 20
0.0650000000000546
 42
0.2236222439430485
 10
0.0919999999998709
 20
0.0671241024042502
 10
0.0919999999998709
 20
0.0722440944882692
 42
0.4142135623730951
 10
0.0892440944880377
 20
0.0750000000001023
 10
0.0747559055117222
 20
0.0750000000001023
 42
0.4142135623730498
 10
0.0719999999998891
 20
0.0722440944882692
 10
0.0719999999998891
 20
-0.1100000000003547
 42
-0.4142135623730953
 10
0.0619999999997845
 20
-0.1200000000003456
 10
0.0419999999995753
 20
-0.1200000000002319
 10
0.0419999999995753
 20
-0.1197559055121928
 42
0.4142135623746411
 10
0.0392440944877421
 20
-0.1170000000004165
 10
0.0327559055116922
 20
-0.1170000000004165
 42
0.4142135623711926
 10
0.029999999999859
 20
-0.1197559055121928
 10
0.0299999999998022
 20
-0.1823497883017353
 42
-0.3349861697929585
 10
0.0279999999997926
 20
-0.1850000000002296
 42
0.3349861697934858
 10
0.0259999999998968
 20
-0.1876502116987808
 10
0.0259999999998968
 20
-0.1922440944883874
 42
0.414213562372976
 10
0.0287559055116162
 20
-0.1950000000002205
 10
0.1222440944880532
 20
-0.1950000000002774
 42
-0.4142135623729761
 10
0.1249999999998295
 20
-0.1977559055120537
 10
0.1249999999998295
 20
-0.2182440944882842
 42
0.4142135623730951
 10
0.1277559055117194
 20
-0.2210000000001742
 10
0.1472440944880304
 20
-0.2210000000001742
 42
0.4142135623732141
 10
0.1499999999999204
 20
-0.2182440944882842
 10
0.1499999999999204
 20
-0.1617559055118818
 42
0.4142135623730951
 10
0.1472440944880304
 20
-0.1589999999999918
 10
0.0850000000007754
 20
-0.1590000000000487
 10
0.0850000000007754
 20
-0.1050000000002456
 10
0.1002440944879481
 20
-0.1050000000002456
 42
-0.4142135623726194
 10
0.1029999999997244
 20
-0.1077559055120218
 10
0.1029999999997244
 20
-0.1172440944882283
 42
0.4142135623730949
 10
0.1057559055116144
 20
-0.1200000000000045
 10
0.1472440944880304
 20
-0.1200000000000045
 42
0.4142135623730949
 10
0.1499999999999204
 20
-0.1172440944882283
 10
0.1499999999999204
 20
-0.0827559055118172
 42
0.4142135623736898
 10
0.1472440944880304
 20
-0.0799999999999841
 10
0.1057559055116144
 20
-0.0800000000000978
 42
0.4142135623702412
 10
0.1029999999997813
 20
-0.0827559055119309
 10
0.1029999999997813
 20
-0.0872440944884829
 42
-0.4142135623717869
 10
0.1002440944879481
 20
-0.0900000000002592
 10
0.085000000000548
 20
-0.0900000000002592
 10
0.0849999999999796
 20
0.0079999999999814
 10
0.1002440944880618
 20
0.0079999999999814
 42
-0.4142135623721437
 10
0.1029999999998949
 20
0.0052440944881482
 10
0.1030000000000086
 20
-0.0172440944882055
 42
0.4142135623711923
 10
0.1057559055118986
 20
-0.0199999999999818
 10
0.1472440944880304
 20
-0.0199999999999818
 42
0.4142135623735708
 10
0.1499999999999204
 20
-0.0172440944882055
 10
0.1499999999999204
 20
0.1172440944881146
 42
0.4142135623729761
 10
0.1472440944880304
 20
0.1199999999999477
 10
0.1057439984610369
 20
0.1200000000000045
 42
0.3872320566567254
 10
0.102999999999156
 20
0.11749999999995
 42
-0.3872320566566207
 10
0.1002560015372182
 20
0.1149999999999522
 10
0.0849999999997522
 20
0.1149999999999522
 10
0.0849999999996953
 20
0.1199999999998909
 42
0.4142135623706042
 10
0.0749999999996476
 20
0.1299999999997681
 10
0.0069999999998913
 20
0.1299999999997681
 10
0.0069999999998913
 20
0.1472440944880873
 42
-0.4142135623735708
 10
0.0097559055117245
 20
0.1499999999998636
 10
0.0768584665592584
 20
0.1499999999997499
 42
0.1989123673775517
 10
0.0788071860350215
 20
0.15080718603582
 10
0.0861928139632369
 20
0.1581928139638649
 42
-0.1989123673773408
 10
0.0881415334388862
 20
0.1589999999999918
 10
0.1472440944880304
 20
0.158999999999935
 42
0.4142135623730951
 10
0.1499999999999204
 20
0.1617559055117681
 10
0.1499999999999204
 20
0.1962440944877812
 42
0.4142135623730951
 10
0.1472440944880304
 20
0.1989999999996144
 10
0.1276502116984375
 20
0.1989999999995575
 42
0.3349861697614667
 10
0.125
 20
0.196999999999889
 42
-0.3349861697609123
 10
0.1223497883014488
 20
0.1950000000002205
 10
-0.0062440944883519
 20
0.1950000000001069
 42
0.4142135623729761
 10
-0.0090000000000714
 20
0.1922440944882737
 10
-0.0090000000000714
 20
0.1876502116982692
 42
0.334986169793317
 10
-0.0070000000001755
 20
0.184999999999718
 42
-0.3349861697921098
 10
-0.005000000000166
 20
0.1823497883011669
 10
-0.0049999999999386
 20
0.1197559055116244
 42
0.4142135623722627
 10
-0.0022440944881623
 20
0.1169999999998481
 10
0.004244094488115
 20
0.1169999999998481
 42
0.4142135623726196
 10
0.0069999999998913
 20
0.1197559055116244
 10
0.0069999999998913
 20
0.1199999999997772
 10
0.061999999999955
 20
0.1199999999997772
 42
-0.4142135623730951
  0
LWPOLYLINE
  5
D8
330
AB
100
AcDbEntity
  8
PKG-OUT
100
AcDbPolyline
 90
       10
 70
     1
 43
0.0
 10
0.0569999999999595
 20
0.1200000000001182
 42
-0.414213562375315
 10
0.0720000000000027
 20
0.1050000000001319
 10
0.0720000000002301
 20
-0.1050000000002456
 42
-0.41421356237365
 10
0.0570000000002438
 20
-0.1200000000002319
 10
-0.064999999999543
 20
-0.1200000000002319
 10
-0.0649999999995998
 20
-0.1600000000000818
 10
0.1150000000002933
 20
-0.1600000000000818
 10
0.1149999999997249
 20
0.1600000000004229
 10
-0.0049999999999955
 20
0.1599999999998545
 10
-0.0050000000000523
 20
0.1199999999997772
  0
LWPOLYLINE
  5
D9
330
AB
100
AcDbEntity
  8
PKG-OUT
100
AcDbPolyline
 90
        6
 70
     1
 43
0.0
 10
0.1079999999998336
 20
0.0640000000000782
 10
0.0849999999996385
 20
0.0640000000000782
 10
0.0850000000003206
 20
-0.1500000000000909
 10
0.103000000000236
 20
-0.1500000000000909
 10
0.1029999999999518
 20
0.0269999999998163
 10
0.1079999999997767
 20
0.0269999999998163
  0
LWPOLYLINE
  5
DA
330
AB
100
AcDbEntity
  8
PKG-OUT
100
AcDbPolyline
 90
        4
 70
     1
 43
0.0
 10
0.0699999999998795
 20
0.1500000000002046
 10
0.0149999999999864
 20
0.1499999999999204
 10
0.0149999999999864
 20
0.1299999999998249
 10
0.0699999999999363
 20
0.1300000000002228
  0
LWPOLYLINE
  5
DB
330
AB
100
AcDbEntity
  8
PKG-OUT
100
AcDbPolyline
 90
        4
 70
     1
 43
0.0
 10
-0.0020000000000664
 20
-0.1500000000000909
 10
-0.0020000000000664
 20
-0.1300000000002228
 10
-0.0499999999996703
 20
-0.1300000000002228
 10
-0.0499999999996135
 20
-0.1500000000000909
  0
LWPOLYLINE
  5
DC
330
AB
100
AcDbEntity
  8
0
100
AcDbPolyline
 90
        8
 70
     1
 43
0.0
 10
0.1089999999999804
 20
0.1427440944881937
 10
0.1089999999999804
 20
0.1362559055118027
 42
-0.4142135623730951
 10
0.1062440944882041
 20
0.1335000000000264
 10
0.0917559055118886
 20
0.1335000000000264
 42
-0.4142135623731659
 10
0.0889999999999987
 20
0.1362559055118027
 10
0.0889999999999987
 20
0.1427440944881937
 42
-0.4142135623730951
 10
0.0917559055118886
 20
0.14549999999997
 10
0.1062440944882041
 20
0.14549999999997
 42
-0.4142135623731468
  0
ENDBLK
  5
DD
330
AB
100
AcDbEntity
  8
0
100
AcDbBlockEnd
  0
ENDSEC
  0
SECTION
  2
ENTITIES
  0
TEXT
  5
6C
330
2
100
AcDbEntity
  8
DIM
100
AcDbText
 10
438.9651838995662
 20
330.7026161526439
 30
0.0
 40
1.8
  1
MIN PLATING
 50
90.0
  7
SIMPLEX
 72
     2
 11
438.9651838995662
 21
347.5026161526439
 31
0.0
100
AcDbText
  0
TEXT
  5
70
330
2
100
AcDbEntity
  8
DIM
100
AcDbText
 10
450.1286775185631
 20
245.9226331884802
 30
0.0
 40
1.8
  1
MIN COIN LENGTH
 50
90.0
  7
SIMPLEX
100
AcDbText
  0
MTEXT
  5
71
330
2
100
AcDbEntity
  8
0
100
AcDbMText
 10
445.3941007773334
 20
260.0912541221921
 30
0.0
 40
2.5
 41
0.0
 46
0.0
 71
     5
 72
     1
  1
\A1;0.0390
  7
SIMPLEX
 11
0.0000000000000001
 21
1.0
 31
0.0
 73
     1
 44
1.0
  0
SOLID
  5
72
330
2
100
AcDbEntity
  8
0
100
AcDbTrace
 10
446.9941007773333
 20
254.6912541221406
 30
0.0
 11
447.9941007773333
 21
254.6912541221406
 31
0.0
 12
447.4941007773333
 22
251.6912541221406
 32
0.0
 13
447.4941007773333
 23
251.6912541221406
 33
0.0
  0
SOLID
  5
74
330
2
100
AcDbEntity
  8
0
100
AcDbTrace
 10
446.9941007773333
 20
265.4912541222435
 30
0.0
 11
447.9941007773333
 21
265.4912541222435
 31
0.0
 12
447.4941007773333
 22
268.4912541222435
 32
0.0
 13
447.4941007773333
 23
268.4912541222435
 33
0.0
  0
LINE
  5
75
330
2
100
AcDbEntity
  8
0
100
AcDbLine
 10
447.4941007773333
 20
265.4912541222435
 30
0.0
 11
447.4941007773333
 21
254.6912541221406
 31
0.0
  0
MTEXT
  5
76
330
2
100
AcDbEntity
  8
DIM
100
AcDbMText
 10
461.4100587233012
 20
215.0617902890894
 30
0.0
 40
1.800000000000011
 41
0.0
 46
0.0
 71
     5
 72
     1
  1
TYP.
  7
SIMPLEX
 73
     1
 44
1.0
  0
TEXT
  5
77
330
2
100
AcDbEntity
  8
DIM
100
AcDbText
 10
462.3076019932131
 20
270.6864707350793
 30
0.0
 40
1.8
  1
COIN LINE
  7
SIMPLEX
 72
     2
 11
475.3361734217845
 21
270.6864707350793
 31
0.0
100
AcDbText
  0
TEXT
  5
78
330
2
100
AcDbEntity
  8
DIM
100
AcDbText
 10
420.3029110309926
 20
190.0853387554845
 30
0.0
 40
2.5
  1
*
  7
SIMPLEX
100
AcDbText
  0
MTEXT
  5
79
330
2
100
AcDbEntity
  8
DIM
100
AcDbMText
 10
325.9343384240012
 20
97.71313099625587
 30
0.0
 40
2.5
 41
0.0
 46
0.0
 71
     5
 72
     1
  1
\A1;0.0100
  7
SIMPLEX
 11
0.0000000000000001
 21
1.0
 31
0.0
 73
     1
 44
1.0
  0
SOLID
  5
7A
330
2
100
AcDbEntity
  8
DIM
100
AcDbTrace
 10
327.5343384240013
 20
87.91075004387492
 30
0.0
 11
328.5343384240012
 21
87.91075004387492
 31
0.0
 12
328.0343384240012
 22
84.91075004387489
 32
0.0
 13
328.0343384240012
 23
84.91075004387489
 33
0.0
  0
SOLID
  5
7B
330
2
100
AcDbEntity
  8
DIM
100
AcDbTrace
 10
327.5343384240013
 20
77.91075004372939
 30
0.0
 11
328.5343384240012
 21
77.91075004372939
 31
0.0
 12
328.0343384240012
 22
80.91075004372939
 32
0.0
 13
328.0343384240012
 23
80.91075004372939
 33
0.0
  0
LINE
  5
7C
330
2
100
AcDbEntity
  8
DIM
100
AcDbLine
 10
328.0343384240012
 20
80.91075004372939
 30
0.0
 11
328.0343384240012
 21
84.91075004387489
 31
0.0
  0
LINE
  5
7D
330
2
100
AcDbEntity
  8
DIM
100
AcDbLine
 10
328.0343384240012
 20
87.91075004387492
 30
0.0
 11
328.0343384240012
 21
104.5155119486368
 31
0.0
  0
LINE
  5
7E
330
2
100
AcDbEntity
  8
DIM
100
AcDbLine
 10
328.0343384240012
 20
77.91075004372939
 30
0.0
 11
328.0343384240012
 21
74.91075004372939
 31
0.0
  0
LINE
  5
7F
330
2
100
AcDbEntity
  8
DIM
100
AcDbLine
 10
351.8266491247923
 20
80.91075004372939
 30
0.0
 11
327.0343384240013
 21
80.91075004372939
 31
0.0
  0
MTEXT
  5
80
102
{ACAD_REACTORS
330
81
102
}
330
2
100
AcDbEntity
  8
DIM
100
AcDbMText
 10
314.7736031292388
 20
71.83717359661243
 30
0.0
 40
2.5
 41
0.0
 46
0.0
 71
     9
 72
     1
  1
BURR SIDE
  7
SIMPLEX
 73
     1
 44
1.0
  0
LEADER
  5
81
330
2
100
AcDbEntity
  8
DIM
100
AcDbLeader
  3
Standard
 73
     0
 75
     1
 40
2.5
 41
19.76190476190476
 76
     3
 10
320.7752289391362
 20
84.91075004395026
 30
0.0
 10
315.8036031292388
 20
73.08717359661243
 30
0.0
 10
315.6236031292388
 20
73.08717359661243
 30
0.0
340
80
213
0.0
223
1.25
233
0.0
1001
ACAD
1000
DSTYLE
1002
{
1070
    41
1040
3.0
1070
    42
1040
1.0
1070
    43
1040
10.0
1070
    44
1040
1.0
1070
    47
1040
0.002
1070
    48
1040
0.002
1070
    73
1070
     0
1070
    74
1070
     0
1070
    77
1070
     0
1070
   140
1040
2.5
1070
   141
1040
0.0
1070
   143
1040
0.03937
1070
   147
1040
0.85
1070
   171
1070
     4
1070
   172
1070
     1
1070
   274
1070
     4
1070
   289
1070
     0
1070
   340
1005
55
1002
}
  0
MTEXT
  5
82
330
2
100
AcDbEntity
  8
DIM
100
AcDbMText
 10
504.7530883822727
 20
302.6425434235862
 30
0.0
 40
2.5
 41
0.0
 46
0.0
 71
     5
 72
     1
  1
\A1;0.0100
  7
SIMPLEX
 73
     1
 44
1.0
  0
SOLID
  5
83
330
2
100
AcDbEntity
  8
DIM
100
AcDbTrace
 10
514.5554693346537
 20
301.0425434235862
 30
0.0
 11
514.5554693346537
 21
300.0425434235861
 31
0.0
 12
517.5554693346537
 22
300.5425434235862
 32
0.0
 13
517.5554693346537
 23
300.5425434235862
 33
0.0
  0
SOLID
  5
84
330
2
100
AcDbEntity
  8
DIM
100
AcDbTrace
 10
524.5554693346246
 20
301.0425434235862
 30
0.0
 11
524.5554693346246
 21
300.0425434235861
 31
0.0
 12
521.5554693346246
 22
300.5425434235862
 32
0.0
 13
521.5554693346246
 23
300.5425434235862
 33
0.0
  0
LINE
  5
85
330
2
100
AcDbEntity
  8
DIM
100
AcDbLine
 10
521.5554693346246
 20
300.5425434235862
 30
0.0
 11
517.5554693346537
 21
300.5425434235862
 31
0.0
  0
LINE
  5
86
330
2
100
AcDbEntity
  8
DIM
100
AcDbLine
 10
514.5554693346537
 20
300.5425434235862
 30
0.0
 11
497.9507074298918
 21
300.5425434235862
 31
0.0
  0
LINE
  5
87
330
2
100
AcDbEntity
  8
DIM
100
AcDbLine
 10
524.5554693346246
 20
300.5425434235862
 30
0.0
 11
527.5554693346244
 21
300.5425434235862
 31
0.0
  0
LINE
  5
88
330
2
100
AcDbEntity
  8
DIM
100
AcDbLine
 10
521.5554693346246
 20
291.4912541222026
 30
0.0
 11
521.5554693346246
 21
301.5425434235861
 31
0.0
  0
TEXT
  5
89
330
2
100
AcDbEntity
  8
DIM
100
AcDbText
 10
338.8329593203414
 20
275.5148415579977
 30
0.0
 40
2.5
  1
B
  7
SIMPLEX
100
AcDbText
  0
LEADER
  5
8A
330
2
100
AcDbEntity
  8
DIM
100
AcDbLeader
  3
Standard
 76
     2
 10
339.7690755255128
 20
274.3311440908528
 30
0.0
 10
339.7690755255128
 20
267.7147632174383
 30
0.0
1001
ACAD
1000
DSTYLE
1002
{
1070
    41
1040
3.0
1070
    42
1040
1.0
1070
    43
1040
10.0
1070
    44
1040
1.0
1070
    47
1040
0.002
1070
    48
1040
0.002
1070
    73
1070
     0
1070
    74
1070
     0
1070
    77
1070
     0
1070
   140
1040
2.5
1070
   141
1040
0.0
1070
   143
1040
0.03937
1070
   147
1040
0.85
1070
   171
1070
     4
1070
   172
1070
     1
1070
   274
1070
     4
1070
   289
1070
     0
1070
   340
1005
55
1002
}
  0
LINE
  5
8B
330
2
100
AcDbEntity
  8
DIM
100
AcDbLine
 10
401.2266491247244
 20
159.5753505758056
 30
0.0
 11
401.2266491247244
 21
240.8912541222141
 31
0.0
  0
LINE
  5
8C
330
2
100
AcDbEntity
  8
DIM
100
AcDbLine
 10
387.2266491247599
 20
312.4847398684138
 30
0.0
 11
387.2266491247599
 21
240.8912541222141
 31
0.0
  0
MTEXT
  5
8D
102
{ACAD_REACTORS
330
8E
102
}
330
2
100
AcDbEntity
  8
DIM
100
AcDbMText
 10
409.7847032798695
 20
207.6851542231312
 30
0.0
 40
2.5
 41
0.0
 46
0.0
 71
     9
 72
     1
  1
\A1;R0.0100
  7
SIMPLEX
 73
     1
 44
1.0
  0
LEADER
  5
8E
330
2
100
AcDbEntity
  8
DIM
100
AcDbLeader
  3
Standard
 73
     0
 75
     1
 40
2.5
 41
14.40476190476189
 76
     3
 10
420.5169419535145
 20
193.7610078655151
 30
0.0
 10
410.8147032798695
 20
208.9351542231312
 30
0.0
 10
410.6347032798695
 20
208.9351542231312
 30
0.0
340
8D
213
0.0
223
1.25
233
0.0
1001
ACAD
1000
DSTYLE
1002
{
1070
    41
1040
3.0
1070
    42
1040
1.0
1070
    43
1040
10.0
1070
    44
1040
1.0
1070
    47
1040
0.002
1070
    48
1040
0.002
1070
    73
1070
     0
1070
    74
1070
     0
1070
    77
1070
     0
1070
   140
1040
2.5
1070
   141
1040
0.0
1070
   143
1040
0.03937
1070
   147
1040
0.85
1070
   171
1070
     4
1070
   172
1070
     1
1070
   274
1070
     4
1070
   289
1070
     0
1070
   340
1005
55
1002
}
  0
TEXT
  5
8F
330
2
100
AcDbEntity
  8
DIM
100
AcDbText
 10
419.5258147756285
 20
362.3059018024886
 30
0.0
 40
1.8
  1
MIN PLATING
  7
SIMPLEX
100
AcDbText
  0
LINE
  5
90
330
2
100
AcDbEntity
  8
DIM
100
AcDbLine
 10
323.5881594649056
 20
224.3108951749046
 30
0.0
 11
324.9298770680575
 21
224.3108951749046
 31
0.0
  0
TEXT
  5
91
330
2
100
AcDbEntity
  8
DIM
100
AcDbText
 10
313.268428289163
 20
224.6006414225168
 30
0.0
 40
1.8
  1
DEPTH < 0.001
  7
SIMPLEX
100
AcDbText
  0
MTEXT
  5
92
102
{ACAD_REACTORS
330
93
102
}
330
2
100
AcDbEntity
  8
DIM
100
AcDbMText
 10
332.986947234269
 20
227.6621405307468
 30
0.0
 40
2.5
 41
0.0
 46
0.0
 71
     9
 72
     1
  1
\A1;D/S MARK
  7
SIMPLEX
 73
     1
 44
1.0
  0
LEADER
  5
93
330
2
100
AcDbEntity
  8
DIM
100
AcDbLeader
  3
Standard
 73
     0
 75
     1
 40
3.809523809523809
 41
19.4047619047619
 76
     3
 10
344.9789030701999
 20
220.8050945375325
 30
0.0
 10
334.016947234269
 20
228.9121405307467
 30
0.0
 10
333.8369472342689
 20
228.9121405307467
 30
0.0
340
92
213
0.0
223
1.25
233
0.0
1001
ACAD
1000
DSTYLE
1002
{
1070
    41
1040
3.0
1070
    42
1040
1.0
1070
    43
1040
10.0
1070
    44
1040
1.0
1070
    47
1040
0.002
1070
    48
1040
0.002
1070
    73
1070
     0
1070
    74
1070
     0
1070
    77
1070
     0
1070
   140
1040
2.5
1070
   141
1040
0.0
1070
   143
1040
0.03937
1070
   147
1040
0.85
1070
   171
1070
     4
1070
   172
1070
     1
1070
   274
1070
     4
1070
   289
1070
     0
1070
   340
1005
55
1002
}
  0
LINE
  5
94
330
2
100
AcDbEntity
  8
CEN
100
AcDbLine
 10
443.2266491247482
 20
240.8912541222141
 30
0.0
 11
343.2266491247028
 21
240.8912541222141
 31
0.0
  0
LINE
  5
99
330
2
100
AcDbEntity
  8
CEN
100
AcDbLine
 10
393.2266491247483
 20
178.8912541222249
 30
0.0
 11
393.2266491247483
 21
325.6912541223368
 31
0.0
  0
TEXT
  5
9A
330
2
100
AcDbEntity
  8
DIM
100
AcDbText
 10
402.7564546269741
 20
204.551414478483
 30
0.0
 40
1.8
  1
(5X)
  7
SIMPLEX
100
AcDbText
  0
TEXT
  5
9B
330
2
100
AcDbEntity
  8
DIM
100
AcDbText
 10
311.5823257154905
 20
317.3912541219971
 30
0.0
 40
1.8
  1
PKG.(REF.)
  7
SIMPLEX
100
AcDbText
  0
TEXT
  5
9C
330
2
100
AcDbEntity
  8
DIM
100
AcDbText
 10
366.7266491249084
 20
131.0702917133912
 30
0.0
 40
1.8
  1
MAX PLATING
 50
90.0
  7
SIMPLEX
100
AcDbText
  0
TEXT
  5
9D
330
2
100
AcDbEntity
  8
DIM
100
AcDbText
 10
296.0853003512551
 20
194.0030616171298
 30
0.0
 40
1.8
  1
MIN PLATING
 50
90.0
  7
SIMPLEX
100
AcDbText
  0
TEXT
  5
9E
330
2
100
AcDbEntity
  8
DIM
100
AcDbText
 10
288.0405031385802
 20
177.9402685520677
 30
0.0
 40
1.8
  1
MAX PLATING
 50
90.0
  7
SIMPLEX
100
AcDbText
  0
TEXT
  5
9F
330
2
100
AcDbEntity
  8
DIM
100
AcDbText
 10
342.7266491247083
 20
333.6169018669297
 30
0.0
 40
1.8
  1
PKG.(REF.)
 50
90.0
  7
SIMPLEX
 72
     2
 11
342.7266491247083
 21
347.5026161526439
 31
0.0
100
AcDbText
  0
TEXT
  5
A0
330
2
100
AcDbEntity
  8
LF-LINE
100
AcDbText
 10
398.9598221800645
 20
382.1493392353531
 30
0.0
 40
3.0
  1
%%uDETAIL `A'
  7
SIMPLEX
100
AcDbText
  0
LEADER
  5
A4
330
2
100
AcDbEntity
  8
DIM
100
AcDbLeader
  3
Standard
 76
     2
 10
441.2005264521603
 20
280.2953176384495
 30
0.0
 10
441.2005264521603
 20
273.678936765035
 30
0.0
1001
ACAD
1000
DSTYLE
1002
{
1070
    41
1040
3.0
1070
    42
1040
1.0
1070
    43
1040
10.0
1070
    44
1040
1.0
1070
    47
1040
0.002
1070
    48
1040
0.002
1070
    73
1070
     0
1070
    74
1070
     0
1070
    77
1070
     0
1070
   140
1040
2.5
1070
   141
1040
0.0
1070
   143
1040
0.03937
1070
   147
1040
0.85
1070
   171
1070
     4
1070
   172
1070
     1
1070
   274
1070
     4
1070
   289
1070
     0
1070
   340
1005
55
1002
}
  0
TEXT
  5
A5
330
2
100
AcDbEntity
  8
DIM
100
AcDbText
 10
440.2644102469889
 20
281.4790151055944
 30
0.0
 40
2.5
  1
B
  7
SIMPLEX
100
AcDbText
  0
LEADER
  5
A6
330
2
100
AcDbEntity
  8
DIM
100
AcDbLeader
  3
Standard
 76
     2
 10
378.387705469546
 20
312.4847398684138
 30
0.0
 10
387.2266491247599
 20
312.4847398684138
 30
0.0
1001
ACAD
1000
DSTYLE
1002
{
1070
    41
1040
3.0
1070
    42
1040
1.0
1070
    43
1040
10.0
1070
    44
1040
1.0
1070
    47
1040
0.002
1070
    48
1040
0.002
1070
    73
1070
     0
1070
    74
1070
     0
1070
    77
1070
     0
1070
   140
1040
2.5
1070
   141
1040
0.0
1070
   143
1040
0.03937
1070
   147
1040
0.85
1070
   171
1070
     4
1070
   172
1070
     1
1070
   274
1070
     4
1070
   289
1070
     0
1070
   340
1005
55
1002
}
  0
TEXT
  5
A7
330
2
100
AcDbEntity
  8
DIM
100
AcDbText
 10
375.0704153085737
 20
311.2432726463534
 30
0.0
 40
2.5
  1
C
  7
SIMPLEX
100
AcDbText
  0
LEADER
  5
A8
330
2
100
AcDbEntity
  8
DIM
100
AcDbLeader
  3
Standard
 76
     2
 10
392.3877054695107
 20
159.5753505758056
 30
0.0
 10
401.2266491247244
 20
159.5753505758056
 30
0.0
1001
ACAD
1000
DSTYLE
1002
{
1070
    41
1040
3.0
1070
    42
1040
1.0
1070
    43
1040
10.0
1070
    44
1040
1.0
1070
    47
1040
0.002
1070
    48
1040
0.002
1070
    73
1070
     0
1070
    74
1070
     0
1070
    77
1070
     0
1070
   140
1040
2.5
1070
   141
1040
0.0
1070
   143
1040
0.03937
1070
   147
1040
0.85
1070
   171
1070
     4
1070
   172
1070
     1
1070
   274
1070
     4
1070
   289
1070
     0
1070
   340
1005
55
1002
}
  0
TEXT
  5
A9
330
2
100
AcDbEntity
  8
DIM
100
AcDbText
 10
390.0991706815628
 20
158.3338833537451
 30
0.0
 40
2.5
  1
C
  7
SIMPLEX
100
AcDbText
  0
INSERT
  5
AA
102
{ACAD_REACTORS
330
29A
330
29B
102
}
330
2
100
AcDbEntity
  8
LF-LINE
100
AcDbBlockReference
  2
INT2
 10
393.2266491247483
 20
240.8912541222141
 30
0.0
 41
400.0
 42
400.0
 43
400.0
  0
LINE
  5
DE
330
2
100
AcDbEntity
  8
CEN
100
AcDbLine
 10
333.2266491247976
 20
325.6912541221642
 30
0.0
 11
453.2266491247794
 21
325.6912541225093
 31
0.0
  0
TEXT
  5
DF
330
2
100
AcDbEntity
  8
DIM
100
AcDbText
 10
444.4423650519225
 20
210.4242045455662
 30
0.0
 40
1.8
  1
MIN COIN LENGTH
  7
SIMPLEX
100
AcDbText
  0
LINE
  5
E0
330
2
100
AcDbEntity
  8
CEN
100
AcDbLine
 10
523.4065495975263
 20
240.8912541222141
 30
0.0
 11
515.2633069517113
 21
240.8912541222254
 31
0.0
  0
LWPOLYLINE
  5
E1
330
2
100
AcDbEntity
  8
COIN-LINE
100
AcDbPolyline
 90
       14
 70
     1
 43
0.0
 10
517.5554693345368
 20
187.291254122028
 10
517.5554693344204
 20
149.3355158562033
 42
0.5482462931330688
 10
515.3792187429246
 20
149.4380288005184
 42
-0.4829133502197843
 10
513.5554693344494
 20
149.335515856276
 10
513.5554693345368
 20
187.2912541220136
 10
517.5554693346241
 20
191.291254122159
 10
517.5554693346537
 20
290.4912541222462
 10
513.5554693346537
 20
294.4912541222462
 10
513.5554693346537
 20
326.5244214733823
 42
-0.4829133502197843
 10
515.3792187431288
 20
326.4219085291253
 42
0.5482462931330688
 10
517.5554693346246
 20
326.5244214734405
 10
517.5554693346537
 20
294.4912541222171
 10
521.5554693346246
 20
290.4912541222026
 10
521.5554693346823
 20
191.2912541222026
  0
LINE
  5
E2
330
2
100
AcDbEntity
  8
DIM
100
AcDbLine
 10
513.5554693344494
 20
148.335515856276
 30
0.0
 11
513.5554693344494
 21
143.2834457867315
 31
0.0
  0
LINE
  5
E3
330
2
100
AcDbEntity
  8
DIM
100
AcDbLine
 10
517.5554693344204
 20
148.3355158562033
 30
0.0
 11
517.5554693344204
 21
143.2834457867315
 31
0.0
  0
LINE
  5
E4
330
2
100
AcDbEntity
  8
DIM
100
AcDbLine
 10
510.5554693344494
 20
144.2834457867315
 30
0.0
 11
507.5554693344495
 21
144.2834457867315
 31
0.0
  0
LINE
  5
E5
330
2
100
AcDbEntity
  8
DIM
100
AcDbLine
 10
520.5554693344204
 20
144.2834457867315
 30
0.0
 11
534.9258503323595
 21
144.2834457867315
 31
0.0
  0
LINE
  5
E6
330
2
100
AcDbEntity
  8
DIM
100
AcDbLine
 10
513.5554693344494
 20
144.2834457867315
 30
0.0
 11
517.5554693344204
 21
144.2834457867315
 31
0.0
  0
SOLID
  5
E7
330
2
100
AcDbEntity
  8
DIM
100
AcDbTrace
 10
510.5554693344494
 20
144.7834457867315
 30
0.0
 11
510.5554693344494
 21
143.7834457867315
 31
0.0
 12
513.5554693344494
 22
144.2834457867315
 32
0.0
 13
513.5554693344494
 23
144.2834457867315
 33
0.0
  0
SOLID
  5
E8
330
2
100
AcDbEntity
  8
DIM
100
AcDbTrace
 10
520.5554693344204
 20
144.7834457867315
 30
0.0
 11
520.5554693344204
 21
143.7834457867315
 31
0.0
 12
517.5554693344204
 22
144.2834457867315
 32
0.0
 13
517.5554693344204
 23
144.2834457867315
 33
0.0
  0
MTEXT
  5
E9
330
2
100
AcDbEntity
  8
DIM
100
AcDbMText
 10
528.1234693799786
 20
146.3834457867315
 30
0.0
 40
2.5
 41
0.0
 46
0.0
 71
     5
 72
     1
  1
\A1;0.0100
  7
SIMPLEX
 73
     1
 44
1.0
  0
LINE
  5
EA
330
2
100
AcDbEntity
  8
DIM
100
AcDbLine
 10
512.8483625533553
 20
186.5841473408218
 30
0.0
 11
503.9771848527577
 21
177.7129696400947
 31
0.0
  0
ARC
  5
EB
330
2
100
AcDbEntity
  8
DIM
100
AcDbCircle
 10
513.5554693345368
 20
187.2912541220135
 30
0.0
 40
12.54573981849865
100
AcDbArc
 50
197.5325847427641
 51
211.266292371591
  0
ARC
  5
EC
330
2
100
AcDbEntity
  8
DIM
100
AcDbCircle
 10
513.5554693345368
 20
187.2912541220135
 30
0.0
 40
12.54573981849865
100
AcDbArc
 50
283.7337076286535
 51
297.4674152574802
  0
ARC
  5
ED
330
2
100
AcDbEntity
  8
DIM
100
AcDbCircle
 10
513.5554693345368
 20
187.2912541220135
 30
0.0
 40
12.54573981849865
100
AcDbArc
 50
225.000000000418
 51
269.9999999998274
  0
SOLID
  5
EE
330
2
100
AcDbEntity
  8
DIM
100
AcDbTrace
 10
503.2251075332356
 20
181.0885557186119
 30
0.0
 11
502.4385296044114
 21
180.4710646969068
 31
0.0
 12
504.6842916339389
 22
178.4200764212865
 32
0.0
 13
504.6842916339389
 23
178.4200764212865
 33
0.0
  0
SOLID
  5
EF
330
2
100
AcDbEntity
  8
DIM
100
AcDbTrace
 10
516.5937306123348
 20
174.6077884613427
 30
0.0
 11
516.4741681136968
 21
175.6006151375151
 31
0.0
 12
513.5554693344986
 22
174.7455143035149
 32
0.0
 13
513.5554693344986
 23
174.7455143035149
 33
0.0
  0
TEXT
  5
F0
330
2
100
AcDbEntity
  8
DIM
100
AcDbText
 10
504.2086233611409
 20
170.8139261591768
 30
0.0
 40
2.5
  1
45%%D
  7
SIMPLEX
100
AcDbText
  0
LEADER
  5
F1
330
2
100
AcDbEntity
  8
DIM
100
AcDbLeader
  3
Standard
 73
     0
 74
     0
 75
     1
 40
2.5
 41
19.76190476190476
 76
     3
 10
517.5554693346346
 20
316.6808273934719
 30
0.0
 10
524.2082267740776
 20
324.6863653563125
 30
0.0
 10
524.3882267740775
 20
324.6863653563125
 30
0.0
340
F2
213
0.0
223
-1.25
233
0.0
1001
ACAD
1000
DSTYLE
1002
{
1070
    41
1040
3.0
1070
    42
1040
1.0
1070
    43
1040
10.0
1070
    44
1040
1.0
1070
    47
1040
0.002
1070
    48
1040
0.002
1070
    73
1070
     0
1070
    74
1070
     0
1070
    77
1070
     0
1070
   140
1040
2.5
1070
   141
1040
0.0
1070
   143
1040
0.03937
1070
   147
1040
0.85
1070
   171
1070
     4
1070
   172
1070
     1
1070
   274
1070
     4
1070
   289
1070
     0
1070
   340
1005
55
1002
}
  0
MTEXT
  5
F2
102
{ACAD_REACTORS
330
F1
102
}
330
2
100
AcDbEntity
  8
DIM
100
AcDbMText
 10
525.2382267740776
 20
325.9363653563125
 30
0.0
 40
2.5
 41
0.0
 46
0.0
 71
     1
 72
     1
  1
\A1;BURR SIDE
  7
SIMPLEX
 73
     1
 44
1.0
  0
TEXT
  5
F3
330
2
100
AcDbEntity
  8
DIM
100
AcDbText
 10
508.0021629147982
 20
248.1551670918854
 30
0.0
 40
1.799999999999999
  1
%%p0.004
 50
90.0
  7
SIMPLEX
100
AcDbText
  0
TEXT
  5
F4
330
2
100
AcDbEntity
  8
DIM
100
AcDbText
 10
535.2593730147003
 20
145.9006423362874
 30
0.0
 40
1.799999999999999
  1
%%p0.0003
  7
SIMPLEX
100
AcDbText
  0
TEXT
  5
F5
330
2
100
AcDbEntity
  8
DIM
100
AcDbText
 10
306.2369437164833
 20
108.5958759619389
 30
0.0
 40
1.799999999999999
  1
%%p0.0003
 50
90.0
  7
SIMPLEX
100
AcDbText
  0
TEXT
  5
F6
330
2
100
AcDbEntity
  8
DIM
100
AcDbText
 10
394.8693955782082
 20
98.12013213139568
 30
0.0
 40
1.799999999999999
  1
%%p0.004
  7
SIMPLEX
100
AcDbText
  0
SOLID
  5
F7
330
2
100
AcDbEntity
  8
DIM
100
AcDbTrace
 10
336.1431834639323
 20
85.87248876607691
 30
0.0
 11
337.1360101401046
 21
85.99205126471494
 31
0.0
 12
336.2809093061045
 22
88.91075004391295
 32
0.0
 13
336.2809093061045
 23
88.91075004391295
 33
0.0
  0
SOLID
  5
F8
330
2
100
AcDbEntity
  8
DIM
100
AcDbTrace
 10
342.6239507212015
 20
99.24111184517601
 30
0.0
 11
342.0064596994963
 21
100.0276897740003
 31
0.0
 12
339.955471423876
 22
97.78192774447274
 32
0.0
 13
339.955471423876
 23
97.78192774447274
 33
0.0
  0
ARC
  5
F9
330
2
100
AcDbEntity
  8
DIM
100
AcDbCircle
 10
348.826649124603
 20
88.91075004387486
 30
0.0
 40
12.54573981849865
100
AcDbArc
 50
135.0000000004184
 51
179.9999999998259
  0
ARC
  5
FA
330
2
100
AcDbEntity
  8
DIM
100
AcDbCircle
 10
348.826649124603
 20
88.91075004387486
 30
0.0
 40
12.54573981849865
100
AcDbArc
 50
193.7337076286521
 51
207.4674152574792
  0
ARC
  5
FB
330
2
100
AcDbEntity
  8
DIM
100
AcDbCircle
 10
348.826649124603
 20
88.91075004387486
 30
0.0
 40
12.54573981849865
100
AcDbArc
 50
107.532584742763
 51
121.2662923715915
  0
LINE
  5
FC
330
2
100
AcDbEntity
  8
DIM
100
AcDbLine
 10
348.1195423434114
 20
89.61785682505631
 30
0.0
 11
339.2483646426843
 21
98.48903452565416
 31
0.0
  0
LINE
  5
FD
330
2
100
AcDbEntity
  8
CEN
100
AcDbLine
 10
393.2266491247885
 20
79.05966978088568
 30
0.0
 11
393.2266491247999
 21
87.2029124267007
 31
0.0
  0
TEXT
  5
FE
330
2
100
AcDbEntity
  8
DIM
100
AcDbText
 10
330.6086254505183
 20
93.85033960013471
 30
0.0
 40
2.5
  1
45%%D
  7
SIMPLEX
100
AcDbText
  0
LINE
  5
FF
330
2
100
AcDbEntity
  8
DIM
100
AcDbLine
 10
311.4709108590475
 20
84.91075004399133
 30
0.0
 11
306.928882766594
 21
84.91075004399133
 31
0.0
  0
LINE
  5
100
330
2
100
AcDbEntity
  8
DIM
100
AcDbLine
 10
311.4709108591203
 20
88.91075004396221
 30
0.0
 11
306.928882766594
 21
88.91075004396221
 31
0.0
  0
LINE
  5
101
330
2
100
AcDbEntity
  8
DIM
100
AcDbLine
 10
307.928882766594
 20
81.91075004399133
 30
0.0
 11
307.928882766594
 21
78.91075004399133
 31
0.0
  0
LINE
  5
102
330
2
100
AcDbEntity
  8
DIM
100
AcDbLine
 10
307.928882766594
 20
91.91075004396223
 30
0.0
 11
307.928882766594
 21
108.5155119487241
 31
0.0
  0
LINE
  5
103
330
2
100
AcDbEntity
  8
DIM
100
AcDbLine
 10
307.928882766594
 20
84.91075004399133
 30
0.0
 11
307.928882766594
 21
88.91075004396221
 31
0.0
  0
SOLID
  5
104
330
2
100
AcDbEntity
  8
DIM
100
AcDbTrace
 10
307.428882766594
 20
81.91075004399133
 30
0.0
 11
308.428882766594
 21
81.91075004399133
 31
0.0
 12
307.928882766594
 22
84.91075004399133
 32
0.0
 13
307.928882766594
 23
84.91075004399133
 33
0.0
  0
SOLID
  5
105
330
2
100
AcDbEntity
  8
DIM
100
AcDbTrace
 10
307.428882766594
 20
91.91075004396223
 30
0.0
 11
308.428882766594
 21
91.91075004396223
 31
0.0
 12
307.928882766594
 22
88.91075004396221
 32
0.0
 13
307.928882766594
 23
88.91075004396221
 33
0.0
  0
MTEXT
  5
106
330
2
100
AcDbEntity
  8
DIM
100
AcDbMText
 10
305.8288827665939
 20
101.7131309963432
 30
0.0
 40
2.5
 41
0.0
 46
0.0
 71
     5
 72
     1
  1
\A1;0.0100
  7
SIMPLEX
 11
0.0000000000000001
 21
1.0
 31
0.0
 73
     1
 44
1.0
  0
TEXT
  5
107
330
2
100
AcDbEntity
  8
LF-LINE
100
AcDbText
 10
503.0126701561185
 20
130.8848585486753
 30
0.0
 40
3.0
  1
%%uSECTION C-C
  7
SIMPLEX
100
AcDbText
  0
TEXT
  5
108
330
2
100
AcDbEntity
  8
LF-LINE
100
AcDbText
 10
378.6688772101704
 20
70.23600005044419
 30
0.0
 40
3.0
  1
%%uSECTION B-B
  7
SIMPLEX
100
AcDbText
  0
LEADER
  5
109
330
2
100
AcDbEntity
  8
DIM
100
AcDbLeader
  3
Standard
 76
     2
 10
355.7551368066346
 20
223.8020052415764
 30
0.0
 10
336.836947234269
 20
228.9121405307467
 30
0.0
1001
ACAD
1000
DSTYLE
1002
{
1070
    41
1040
3.0
1070
    42
1040
1.0
1070
    43
1040
10.0
1070
    44
1040
1.0
1070
    47
1040
0.002
1070
    48
1040
0.002
1070
    73
1070
     0
1070
    74
1070
     0
1070
    77
1070
     0
1070
   140
1040
2.5
1070
   141
1040
0.0
1070
   143
1040
0.03937
1070
   147
1040
0.85
1070
   171
1070
     4
1070
   172
1070
     1
1070
   274
1070
     4
1070
   289
1070
     0
1070
   340
1005
55
1002
}
  0
LWPOLYLINE
  5
10A
330
2
100
AcDbEntity
  8
COIN-LINE
100
AcDbPolyline
 90
       13
 70
     1
 43
0.0
 10
436.4266491257335
 20
84.91075004377909
 10
427.2266491273652
 20
84.91075004372712
 10
423.2266491272495
 20
80.91075004364055
 10
352.8266491247923
 20
80.91075004372939
 10
348.8266491246177
 20
84.91075004387489
 10
312.4709108590475
 20
84.91075004399133
 42
0.5482462931330678
 10
312.5734238033626
 20
87.08700063548709
 42
-0.4829133502197834
 10
312.4709108591204
 20
88.91075004396221
 10
348.8266491246031
 20
88.91075004387491
 10
352.8266491247487
 20
84.91075004378759
 10
423.2266491272047
 20
84.91075004361038
 10
427.2266491273796
 20
88.91075004372714
 10
436.426649125711
 20
88.9107500437734
  0
LINE
  5
10B
330
2
100
AcDbEntity
  8
DIM
100
AcDbLine
 10
342.2266491247028
 20
240.8912541222141
 30
0.0
 11
326.2266491246974
 21
240.8912541222141
 31
0.0
  0
LINE
  5
10C
330
2
100
AcDbEntity
  8
COIN-LINE
100
AcDbLine
 10
326.2266491246974
 20
240.8912541222141
 30
0.0
 11
321.2266491246974
 21
240.8912541222141
 31
0.0
  0
LINE
  5
10D
330
2
100
AcDbEntity
  8
DIM
100
AcDbLine
 10
321.2266491246974
 20
240.8912541222141
 30
0.0
 11
298.2266491246974
 21
240.8912541222141
 31
0.0
  0
TEXT
  5
10E
330
2
100
AcDbEntity
  8
DIM
100
AcDbText
 10
298.2266491246974
 20
241.3912541222141
 30
0.0
 40
2.5
  1
0.0000
  7
SIMPLEX
100
AcDbText
  0
LINE
  5
10F
330
2
100
AcDbEntity
  8
DIM
100
AcDbLine
 10
332.2266491247976
 20
325.6912541221642
 30
0.0
 11
326.2266491246974
 21
325.6912541221642
 31
0.0
  0
LINE
  5
110
330
2
100
AcDbEntity
  8
COIN-LINE
100
AcDbLine
 10
326.2266491246974
 20
325.6912541221642
 30
0.0
 11
321.2266491246974
 21
325.6912541221642
 31
0.0
  0
LINE
  5
111
330
2
100
AcDbEntity
  8
DIM
100
AcDbLine
 10
321.2266491246974
 20
325.6912541221642
 30
0.0
 11
298.2266491246974
 21
325.6912541221642
 31
0.0
  0
TEXT
  5
112
330
2
100
AcDbEntity
  8
DIM
100
AcDbText
 10
298.2266491246974
 20
326.1912541221642
 30
0.0
 40
2.5
  1
0.2120
  7
SIMPLEX
100
AcDbText
  0
LINE
  5
113
330
2
100
AcDbEntity
  8
DIM
100
AcDbLine
 10
342.2266491246801
 20
316.8912541221904
 30
0.0
 11
326.2266491246974
 21
316.8912541221904
 31
0.0
  0
LINE
  5
114
330
2
100
AcDbEntity
  8
COIN-LINE
100
AcDbLine
 10
326.2266491246974
 20
316.8912541221904
 30
0.0
 11
321.2266491246974
 21
316.8912541221904
 31
0.0
  0
LINE
  5
115
330
2
100
AcDbEntity
  8
DIM
100
AcDbLine
 10
321.2266491246974
 20
316.8912541221904
 30
0.0
 11
298.2266491246974
 21
316.8912541221904
 31
0.0
  0
TEXT
  5
116
330
2
100
AcDbEntity
  8
DIM
100
AcDbText
 10
298.2266491246974
 20
317.3912541221904
 30
0.0
 40
2.5
  1
0.1900
  7
SIMPLEX
100
AcDbText
  0
LINE
  5
117
330
2
100
AcDbEntity
  8
DIM
100
AcDbLine
 10
343.2266491246801
 20
317.8912541221904
 30
0.0
 11
343.2266491246801
 21
332.6912541222144
 31
0.0
  0
LINE
  5
118
330
2
100
AcDbEntity
  8
COIN-LINE
100
AcDbLine
 10
343.2266491246801
 20
332.6912541222144
 30
0.0
 11
343.2266491246801
 21
337.6912541222144
 31
0.0
  0
LINE
  5
119
330
2
100
AcDbEntity
  8
DIM
100
AcDbLine
 10
343.2266491246801
 20
337.6912541222144
 30
0.0
 11
343.2266491246801
 21
360.6912541222143
 31
0.0
  0
TEXT
  5
11A
330
2
100
AcDbEntity
  8
DIM
100
AcDbText
 10
342.7266491246801
 20
348.7864922174524
 30
0.0
 40
2.5
  1
0.1250
 50
90.0
  7
SIMPLEX
 72
     2
 11
342.7266491246801
 21
360.6912541222143
 31
0.0
100
AcDbText
  0
LINE
  5
11B
330
2
100
AcDbEntity
  8
DIM
100
AcDbLine
 10
333.2266491247119
 20
326.6912541221642
 30
0.0
 11
333.2266491247119
 21
332.6912541222144
 31
0.0
  0
LINE
  5
11C
330
2
100
AcDbEntity
  8
COIN-LINE
100
AcDbLine
 10
333.2266491247119
 20
332.6912541222144
 30
0.0
 11
333.2266491247119
 21
337.6912541222144
 31
0.0
  0
LINE
  5
11D
330
2
100
AcDbEntity
  8
DIM
100
AcDbLine
 10
333.2266491247119
 20
337.6912541222144
 30
0.0
 11
333.2266491247119
 21
360.6912541222143
 31
0.0
  0
TEXT
  5
11E
330
2
100
AcDbEntity
  8
DIM
100
AcDbText
 10
332.7266491247119
 20
348.7864922174524
 30
0.0
 40
2.5
  1
0.1500
 50
90.0
  7
SIMPLEX
 72
     2
 11
332.7266491247119
 21
360.6912541222143
 31
0.0
100
AcDbText
  0
LINE
  5
11F
330
2
100
AcDbEntity
  8
DIM
100
AcDbLine
 10
349.3290113294761
 20
306.8912541222222
 30
0.0
 11
326.2266491246974
 21
306.8912541222222
 31
0.0
  0
LINE
  5
120
330
2
100
AcDbEntity
  8
COIN-LINE
100
AcDbLine
 10
326.2266491246974
 20
306.8912541222222
 30
0.0
 11
321.2266491246974
 21
306.8912541222222
 31
0.0
  0
LINE
  5
121
330
2
100
AcDbEntity
  8
DIM
100
AcDbLine
 10
321.2266491246974
 20
306.8912541222222
 30
0.0
 11
298.2266491246974
 21
306.8912541222222
 31
0.0
  0
TEXT
  5
122
330
2
100
AcDbEntity
  8
DIM
100
AcDbText
 10
298.2266491246974
 20
307.3912541222222
 30
0.0
 40
2.5
  1
0.1650
  7
SIMPLEX
100
AcDbText
  0
LINE
  5
123
330
2
100
AcDbEntity
  8
DIM
100
AcDbLine
 10
353.943780609191
 20
297.6912541221897
 30
0.0
 11
326.2266491246974
 21
297.6912541221897
 31
0.0
  0
LINE
  5
124
330
2
100
AcDbEntity
  8
COIN-LINE
100
AcDbLine
 10
326.2266491246974
 20
297.6912541221897
 30
0.0
 11
321.2266491246974
 21
297.6912541221897
 31
0.0
  0
LINE
  5
125
330
2
100
AcDbEntity
  8
DIM
100
AcDbLine
 10
321.2266491246974
 20
297.6912541221897
 30
0.0
 11
298.2266491246974
 21
297.6912541221897
 31
0.0
  0
TEXT
  5
126
330
2
100
AcDbEntity
  8
DIM
100
AcDbText
 10
298.2266491246974
 20
298.1912541221896
 30
0.0
 40
2.5
  1
0.1420
  7
SIMPLEX
100
AcDbText
  0
LINE
  5
127
330
2
100
AcDbEntity
  8
DIM
100
AcDbLine
 10
357.0266491247394
 20
288.8912541221704
 30
0.0
 11
349.9934363391137
 21
288.8912541221704
 31
0.0
  0
LINE
  5
128
330
2
100
AcDbEntity
  8
COIN-LINE
100
AcDbLine
 10
326.2266491246974
 20
288.8912541221704
 30
0.0
 11
321.2266491246974
 21
288.8912541221704
 31
0.0
  0
LINE
  5
129
330
2
100
AcDbEntity
  8
DIM
100
AcDbLine
 10
321.2266491246974
 20
288.8912541221704
 30
0.0
 11
298.2266491246974
 21
288.8912541221704
 31
0.0
  0
TEXT
  5
12A
330
2
100
AcDbEntity
  8
DIM
100
AcDbText
 10
298.2266491246974
 20
289.3912541221704
 30
0.0
 40
2.5
  1
0.1200
  7
SIMPLEX
100
AcDbText
  0
LINE
  5
12B
330
2
100
AcDbEntity
  8
DIM
100
AcDbLine
 10
349.3290113294761
 20
174.8912541221831
 30
0.0
 11
326.2266491246974
 21
174.8912541221831
 31
0.0
  0
LINE
  5
12C
330
2
100
AcDbEntity
  8
COIN-LINE
100
AcDbLine
 10
326.2266491246974
 20
174.8912541221831
 30
0.0
 11
321.2266491246974
 21
172.6932712431403
 31
0.0
  0
LINE
  5
12D
330
2
100
AcDbEntity
  8
DIM
100
AcDbLine
 10
321.2266491246974
 20
172.6932712431403
 30
0.0
 11
298.2266491246974
 21
172.6932712431403
 31
0.0
  0
TEXT
  5
12E
330
2
100
AcDbEntity
  8
DIM
100
AcDbText
 10
298.2266491246974
 20
173.1932712431403
 30
0.0
 40
2.5
  1
0.1650
  7
SIMPLEX
100
AcDbText
  0
LINE
  5
12F
330
2
100
AcDbEntity
  8
DIM
100
AcDbLine
 10
333.3290113294224
 20
152.4912541221444
 30
0.0
 11
326.2266491246974
 21
152.4912541221444
 31
0.0
  0
LINE
  5
130
330
2
100
AcDbEntity
  8
COIN-LINE
100
AcDbLine
 10
326.2266491246974
 20
152.4912541221444
 30
0.0
 11
321.2266491246974
 21
152.4912541221444
 31
0.0
  0
LINE
  5
131
330
2
100
AcDbEntity
  8
DIM
100
AcDbLine
 10
321.2266491246974
 20
152.4912541221444
 30
0.0
 11
298.2266491246974
 21
152.4912541221444
 31
0.0
  0
TEXT
  5
132
330
2
100
AcDbEntity
  8
DIM
100
AcDbText
 10
298.2266491246974
 20
152.9912541221444
 30
0.0
 40
2.5
  1
0.2210
  7
SIMPLEX
100
AcDbText
  0
LINE
  5
133
330
2
100
AcDbEntity
  8
DIM
100
AcDbLine
 10
453.1242869199604
 20
320.4912541220598
 30
0.0
 11
460.2266491247163
 21
320.4912541220598
 31
0.0
  0
LINE
  5
134
330
2
100
AcDbEntity
  8
COIN-LINE
100
AcDbLine
 10
460.2266491247163
 20
320.4912541220598
 30
0.0
 11
465.2266491247163
 21
322.5893278299915
 31
0.0
  0
LINE
  5
135
330
2
100
AcDbEntity
  8
DIM
100
AcDbLine
 10
465.2266491247163
 20
322.5893278299915
 30
0.0
 11
488.2266491247163
 21
322.5893278299915
 31
0.0
  0
TEXT
  5
136
330
2
100
AcDbEntity
  8
DIM
100
AcDbText
 10
476.3218872199543
 20
323.0893278299915
 30
0.0
 40
2.5
  1
0.1990
  7
SIMPLEX
 72
     2
 11
488.2266491247163
 21
323.0893278299915
 31
0.0
100
AcDbText
  0
LINE
  5
137
330
2
100
AcDbEntity
  8
DIM
100
AcDbLine
 10
391.4266491246781
 20
314.8912541221013
 30
0.0
 11
460.2266491247163
 21
314.8912541221013
 31
0.0
  0
LINE
  5
138
330
2
100
AcDbEntity
  8
COIN-LINE
100
AcDbLine
 10
460.2266491247163
 20
314.8912541221013
 30
0.0
 11
465.2266491247163
 21
314.8912541221013
 31
0.0
  0
LINE
  5
139
330
2
100
AcDbEntity
  8
DIM
100
AcDbLine
 10
465.2266491247163
 20
314.8912541221013
 30
0.0
 11
488.2266491247163
 21
314.8912541221013
 31
0.0
  0
TEXT
  5
13A
330
2
100
AcDbEntity
  8
DIM
100
AcDbText
 10
476.3218872199543
 20
315.3912541221012
 30
0.0
 40
2.5
  1
0.1850
  7
SIMPLEX
 72
     2
 11
488.2266491247163
 21
315.3912541221012
 31
0.0
100
AcDbText
  0
LINE
  5
13B
330
2
100
AcDbEntity
  8
DIM
100
AcDbLine
 10
424.2266491246073
 20
292.8912541221213
 30
0.0
 11
460.2266491247163
 21
292.8912541221213
 31
0.0
  0
LINE
  5
13C
330
2
100
AcDbEntity
  8
COIN-LINE
100
AcDbLine
 10
460.2266491247163
 20
292.8912541221213
 30
0.0
 11
465.2266491247163
 21
292.8912541221213
 31
0.0
  0
LINE
  5
13D
330
2
100
AcDbEntity
  8
DIM
100
AcDbLine
 10
465.2266491247163
 20
292.8912541221213
 30
0.0
 11
488.2266491247163
 21
292.8912541221213
 31
0.0
  0
TEXT
  5
13E
330
2
100
AcDbEntity
  8
DIM
100
AcDbText
 10
476.3218872199543
 20
293.3912541221213
 30
0.0
 40
2.5
  1
0.1300
  7
SIMPLEX
 72
     2
 11
488.2266491247163
 21
293.3912541221213
 31
0.0
100
AcDbText
  0
LINE
  5
13F
330
2
100
AcDbEntity
  8
DIM
100
AcDbLine
 10
434.3290497396354
 20
286.8912541221949
 30
0.0
 11
460.2266491247163
 21
286.8912541221949
 31
0.0
  0
LINE
  5
140
330
2
100
AcDbEntity
  8
COIN-LINE
100
AcDbLine
 10
460.2266491247163
 20
286.8912541221949
 30
0.0
 11
465.2266491247163
 21
286.8912541221949
 31
0.0
  0
LINE
  5
141
330
2
100
AcDbEntity
  8
DIM
100
AcDbLine
 10
465.2266491247163
 20
286.8912541221949
 30
0.0
 11
488.2266491247163
 21
286.8912541221949
 31
0.0
  0
TEXT
  5
142
330
2
100
AcDbEntity
  8
DIM
100
AcDbText
 10
476.7980776961449
 20
287.3912541221949
 30
0.0
 40
2.5
  1
0.1150
  7
SIMPLEX
 72
     2
 11
488.2266491247163
 21
287.3912541221949
 31
0.0
100
AcDbText
  0
LINE
  5
143
330
2
100
AcDbEntity
  8
DIM
100
AcDbLine
 10
436.3242869199257
 20
280.8912541222004
 30
0.0
 11
460.2266491247163
 21
280.8912541222004
 31
0.0
  0
LINE
  5
144
330
2
100
AcDbEntity
  8
COIN-LINE
100
AcDbLine
 10
460.2266491247163
 20
280.8912541222004
 30
0.0
 11
465.2266491247163
 21
280.8912541222004
 31
0.0
  0
LINE
  5
145
330
2
100
AcDbEntity
  8
DIM
100
AcDbLine
 10
465.2266491247163
 20
280.8912541222004
 30
0.0
 11
488.2266491247163
 21
280.8912541222004
 31
0.0
  0
TEXT
  5
146
330
2
100
AcDbEntity
  8
DIM
100
AcDbText
 10
476.3218872199543
 20
281.3912541222004
 30
0.0
 40
2.5
  1
0.1000
  7
SIMPLEX
 72
     2
 11
488.2266491247163
 21
281.3912541222004
 31
0.0
100
AcDbText
  0
LINE
  5
147
330
2
100
AcDbEntity
  8
DIM
100
AcDbLine
 10
429.9242869199633
 20
278.8912541222249
 30
0.0
 11
460.2266491247163
 21
278.8912541222249
 31
0.0
  0
LINE
  5
148
330
2
100
AcDbEntity
  8
COIN-LINE
100
AcDbLine
 10
460.2266491247163
 20
278.8912541222249
 30
0.0
 11
465.2266491247163
 21
277.367822720969
 31
0.0
  0
LINE
  5
149
330
2
100
AcDbEntity
  8
DIM
100
AcDbLine
 10
465.2266491247163
 20
277.367822720969
 30
0.0
 11
488.2266491247163
 21
277.367822720969
 31
0.0
  0
TEXT
  5
14A
330
2
100
AcDbEntity
  8
DIM
100
AcDbText
 10
475.8456967437639
 20
277.867822720969
 30
0.0
 40
2.5
  1
0.0950
  7
SIMPLEX
 72
     2
 11
488.2266491247163
 21
277.867822720969
 31
0.0
100
AcDbText
  0
LINE
  5
14B
330
2
100
AcDbEntity
  8
DIM
100
AcDbLine
 10
429.9242869199633
 20
270.891254122255
 30
0.0
 11
460.2266491247163
 21
270.891254122255
 31
0.0
  0
LINE
  5
14C
330
2
100
AcDbEntity
  8
COIN-LINE
100
AcDbLine
 10
460.2266491247163
 20
270.891254122255
 30
0.0
 11
465.2266491247163
 21
273.6736790328742
 31
0.0
  0
LINE
  5
14D
330
2
100
AcDbEntity
  8
DIM
100
AcDbLine
 10
465.2266491247163
 20
273.6736790328742
 30
0.0
 11
488.2266491247163
 21
273.6736790328742
 31
0.0
  0
TEXT
  5
14E
330
2
100
AcDbEntity
  8
DIM
100
AcDbText
 10
475.8456967437639
 20
274.1736790328742
 30
0.0
 40
2.5
  1
0.0750
  7
SIMPLEX
 72
     2
 11
488.2266491247163
 21
274.1736790328742
 31
0.0
100
AcDbText
  0
LINE
  5
14F
330
2
100
AcDbEntity
  8
DIM
100
AcDbLine
 10
437.4266491246816
 20
268.4912541222435
 30
0.0
 11
460.2266491247163
 21
268.4912541222435
 31
0.0
  0
LINE
  5
150
330
2
100
AcDbEntity
  8
COIN-LINE
100
AcDbLine
 10
460.2266491247163
 20
268.4912541222435
 30
0.0
 11
465.2266491247163
 21
270.1864707350793
 31
0.0
  0
LINE
  5
151
330
2
100
AcDbEntity
  8
DIM
100
AcDbLine
 10
465.2266491247163
 20
270.1864707350793
 30
0.0
 11
488.2266491247163
 21
270.1864707350793
 31
0.0
  0
TEXT
  5
152
330
2
100
AcDbEntity
  8
DIM
100
AcDbText
 10
475.8456967437639
 20
270.6864707350793
 30
0.0
 40
2.5
  1
0.0690
  7
SIMPLEX
 72
     2
 11
488.2266491247163
 21
270.6864707350793
 31
0.0
100
AcDbText
  0
LINE
  5
153
330
2
100
AcDbEntity
  8
DIM
100
AcDbLine
 10
437.4266491246816
 20
266.4912541222453
 30
0.0
 11
460.2266491247163
 21
266.4912541222453
 31
0.0
  0
LINE
  5
154
330
2
100
AcDbEntity
  8
COIN-LINE
100
AcDbLine
 10
460.2266491247163
 20
266.4912541222453
 30
0.0
 11
465.2266491247163
 21
266.4912541222453
 31
0.0
  0
LINE
  5
155
330
2
100
AcDbEntity
  8
DIM
100
AcDbLine
 10
465.2266491247163
 20
266.4912541222453
 30
0.0
 11
488.2266491247163
 21
266.4912541222453
 31
0.0
  0
TEXT
  5
156
330
2
100
AcDbEntity
  8
DIM
100
AcDbText
 10
475.8456967437639
 20
266.9912541222453
 30
0.0
 40
2.5
  1
0.0640
  7
SIMPLEX
 72
     2
 11
488.2266491247163
 21
266.9912541222453
 31
0.0
100
AcDbText
  0
LINE
  5
157
330
2
100
AcDbEntity
  8
DIM
100
AcDbLine
 10
437.4266491246588
 20
251.6912541221406
 30
0.0
 11
460.2266491247163
 21
251.6912541221406
 31
0.0
  0
LINE
  5
158
330
2
100
AcDbEntity
  8
COIN-LINE
100
AcDbLine
 10
460.2266491247163
 20
251.6912541221406
 30
0.0
 11
465.2266491247163
 21
251.6912541221406
 31
0.0
  0
LINE
  5
159
330
2
100
AcDbEntity
  8
DIM
100
AcDbLine
 10
465.2266491247163
 20
251.6912541221406
 30
0.0
 11
488.2266491247163
 21
251.6912541221406
 31
0.0
  0
TEXT
  5
15A
330
2
100
AcDbEntity
  8
DIM
100
AcDbText
 10
475.845696743764
 20
252.1912541221406
 30
0.0
 40
2.5
  1
0.0270
  7
SIMPLEX
 72
     2
 11
488.2266491247163
 21
252.1912541221406
 31
0.0
100
AcDbText
  0
LINE
  5
15B
330
2
100
AcDbEntity
  8
DIM
100
AcDbLine
 10
434.324286919973
 20
244.0912541222066
 30
0.0
 11
460.2266491247163
 21
244.0912541222066
 31
0.0
  0
LINE
  5
15C
330
2
100
AcDbEntity
  8
COIN-LINE
100
AcDbLine
 10
460.2266491247163
 20
244.0912541222066
 30
0.0
 11
465.2266491247163
 21
244.0912541222066
 31
0.0
  0
LINE
  5
15D
330
2
100
AcDbEntity
  8
DIM
100
AcDbLine
 10
465.2266491247163
 20
244.0912541222066
 30
0.0
 11
488.2266491247163
 21
244.0912541222066
 31
0.0
  0
TEXT
  5
15E
330
2
100
AcDbEntity
  8
DIM
100
AcDbText
 10
475.845696743764
 20
244.5912541222066
 30
0.0
 40
2.5
  1
0.0080
  7
SIMPLEX
 72
     2
 11
488.2266491247163
 21
244.5912541222066
 31
0.0
100
AcDbText
  0
LINE
  5
15F
330
2
100
AcDbEntity
  8
DIM
100
AcDbLine
 10
436.7242869199843
 20
223.2912541221755
 30
0.0
 11
460.2266491247163
 21
223.2912541221755
 31
0.0
  0
LINE
  5
160
330
2
100
AcDbEntity
  8
COIN-LINE
100
AcDbLine
 10
460.2266491247163
 20
223.2912541221755
 30
0.0
 11
465.2266491247163
 21
223.2912541221755
 31
0.0
  0
LINE
  5
161
330
2
100
AcDbEntity
  8
DIM
100
AcDbLine
 10
465.2266491247163
 20
223.2912541221755
 30
0.0
 11
488.2266491247163
 21
223.2912541221755
 31
0.0
  0
TEXT
  5
162
330
2
100
AcDbEntity
  8
DIM
100
AcDbText
 10
475.8456967437639
 20
223.7912541221755
 30
0.0
 40
2.5
  1
0.0440
  7
SIMPLEX
 72
     2
 11
488.2266491247163
 21
223.7912541221755
 31
0.0
100
AcDbText
  0
LINE
  5
163
330
2
100
AcDbEntity
  8
DIM
100
AcDbLine
 10
436.7242869199843
 20
218.4912541221981
 30
0.0
 11
460.2266491247163
 21
218.4912541221981
 31
0.0
  0
LINE
  5
164
330
2
100
AcDbEntity
  8
COIN-LINE
100
AcDbLine
 10
460.2266491247163
 20
218.4912541221981
 30
0.0
 11
465.2266491247163
 21
218.4912541221981
 31
0.0
  0
LINE
  5
165
330
2
100
AcDbEntity
  8
DIM
100
AcDbLine
 10
465.2266491247163
 20
218.4912541221981
 30
0.0
 11
488.2266491247163
 21
218.4912541221981
 31
0.0
  0
TEXT
  5
166
330
2
100
AcDbEntity
  8
DIM
100
AcDbText
 10
475.8456967437639
 20
218.9912541221981
 30
0.0
 40
2.5
  1
0.0560
  7
SIMPLEX
 72
     2
 11
488.2266491247163
 21
218.9912541221981
 31
0.0
100
AcDbText
  0
LINE
  5
167
330
2
100
AcDbEntity
  8
DIM
100
AcDbLine
 10
434.3242869199275
 20
204.8912541221104
 30
0.0
 11
460.2266491247163
 21
204.8912541221104
 31
0.0
  0
LINE
  5
168
330
2
100
AcDbEntity
  8
COIN-LINE
100
AcDbLine
 10
460.2266491247163
 20
204.8912541221104
 30
0.0
 11
465.2266491247163
 21
204.8912541221104
 31
0.0
  0
LINE
  5
169
330
2
100
AcDbEntity
  8
DIM
100
AcDbLine
 10
465.2266491247163
 20
204.8912541221104
 30
0.0
 11
488.2266491247163
 21
204.8912541221104
 31
0.0
  0
TEXT
  5
16A
330
2
100
AcDbEntity
  8
DIM
100
AcDbText
 10
475.8456967437639
 20
205.3912541221104
 30
0.0
 40
2.5
  1
0.0900
  7
SIMPLEX
 72
     2
 11
488.2266491247163
 21
205.3912541221104
 31
0.0
100
AcDbText
  0
LINE
  5
16B
330
2
100
AcDbEntity
  8
DIM
100
AcDbLine
 10
434.3242869199275
 20
198.8912541221158
 30
0.0
 11
460.2266491247163
 21
198.8912541221158
 31
0.0
  0
LINE
  5
16C
330
2
100
AcDbEntity
  8
COIN-LINE
100
AcDbLine
 10
460.2266491247163
 20
198.8912541221158
 30
0.0
 11
465.2266491247163
 21
198.8912541221158
 31
0.0
  0
LINE
  5
16D
330
2
100
AcDbEntity
  8
DIM
100
AcDbLine
 10
465.2266491247163
 20
198.8912541221158
 30
0.0
 11
488.2266491247163
 21
198.8912541221158
 31
0.0
  0
TEXT
  5
16E
330
2
100
AcDbEntity
  8
DIM
100
AcDbText
 10
476.3218872199543
 20
199.3912541221158
 30
0.0
 40
2.5
  1
0.1050
  7
SIMPLEX
 72
     2
 11
488.2266491247163
 21
199.3912541221158
 31
0.0
100
AcDbText
  0
LINE
  5
16F
330
2
100
AcDbEntity
  8
DIM
100
AcDbLine
 10
436.7242869199843
 20
187.4912541222035
 30
0.0
 11
460.2266491247163
 21
187.4912541222035
 31
0.0
  0
LINE
  5
170
330
2
100
AcDbEntity
  8
COIN-LINE
100
AcDbLine
 10
460.2266491247163
 20
187.4912541222035
 30
0.0
 11
465.2266491247163
 21
188.9056349185944
 31
0.0
  0
LINE
  5
171
330
2
100
AcDbEntity
  8
DIM
100
AcDbLine
 10
465.2266491247163
 20
188.9056349185944
 30
0.0
 11
488.2266491247163
 21
188.9056349185944
 31
0.0
  0
TEXT
  5
172
330
2
100
AcDbEntity
  8
DIM
100
AcDbText
 10
476.3218872199543
 20
189.4056349185944
 30
0.0
 40
2.5
  1
0.1335
  7
SIMPLEX
 72
     2
 11
488.2266491247163
 21
189.4056349185944
 31
0.0
100
AcDbText
  0
LINE
  5
173
330
2
100
AcDbEntity
  8
DIM
100
AcDbLine
 10
436.7242869199843
 20
182.6912541222033
 30
0.0
 11
460.2266491247163
 21
182.6912541222033
 31
0.0
  0
LINE
  5
174
330
2
100
AcDbEntity
  8
COIN-LINE
100
AcDbLine
 10
460.2266491247163
 20
182.6912541222033
 30
0.0
 11
465.2266491247163
 21
185.0113473110771
 31
0.0
  0
LINE
  5
175
330
2
100
AcDbEntity
  8
DIM
100
AcDbLine
 10
465.2266491247163
 20
185.0113473110771
 30
0.0
 11
488.2266491247163
 21
185.0113473110771
 31
0.0
  0
TEXT
  5
176
330
2
100
AcDbEntity
  8
DIM
100
AcDbText
 10
476.3218872199543
 20
185.5113473110771
 30
0.0
 40
2.5
  1
0.1455
  7
SIMPLEX
 72
     2
 11
488.2266491247163
 21
185.5113473110771
 31
0.0
100
AcDbText
  0
LINE
  5
177
330
2
100
AcDbEntity
  8
DIM
100
AcDbLine
 10
453.2266491247163
 20
320.3888919173266
 30
0.0
 11
453.2266491247163
 21
332.6912541222144
 31
0.0
  0
LINE
  5
178
330
2
100
AcDbEntity
  8
COIN-LINE
100
AcDbLine
 10
453.2266491247163
 20
332.6912541222144
 30
0.0
 11
453.2266491247163
 21
337.6912541222144
 31
0.0
  0
LINE
  5
179
330
2
100
AcDbEntity
  8
DIM
100
AcDbLine
 10
453.2266491247163
 20
337.6912541222144
 30
0.0
 11
453.2266491247163
 21
360.6912541222143
 31
0.0
  0
TEXT
  5
17A
330
2
100
AcDbEntity
  8
DIM
100
AcDbText
 10
452.7266491247163
 20
348.7864922174524
 30
0.0
 40
2.5
  1
0.1500
 50
90.0
  7
SIMPLEX
 72
     2
 11
452.7266491247163
 21
360.6912541222143
 31
0.0
100
AcDbText
  0
LINE
  5
17B
330
2
100
AcDbEntity
  8
DIM
100
AcDbLine
 10
443.2266491247482
 20
320.6912541221697
 30
0.0
 11
443.2266491247482
 21
332.6912541222144
 31
0.0
  0
LINE
  5
17C
330
2
100
AcDbEntity
  8
COIN-LINE
100
AcDbLine
 10
443.2266491247482
 20
332.6912541222144
 30
0.0
 11
443.2266491247482
 21
337.6912541222144
 31
0.0
  0
LINE
  5
17D
330
2
100
AcDbEntity
  8
DIM
100
AcDbLine
 10
443.2266491247482
 20
337.6912541222144
 30
0.0
 11
443.2266491247482
 21
360.6912541222143
 31
0.0
  0
TEXT
  5
17E
330
2
100
AcDbEntity
  8
DIM
100
AcDbText
 10
442.7266491247483
 20
348.7864922174524
 30
0.0
 40
2.5
  1
0.1250
 50
90.0
  7
SIMPLEX
 72
     2
 11
442.7266491247483
 21
360.6912541222143
 31
0.0
100
AcDbText
  0
LINE
  5
17F
330
2
100
AcDbEntity
  8
DIM
100
AcDbLine
 10
368.4266491246071
 20
306.788891917489
 30
0.0
 11
368.4266491246071
 21
332.6912541222144
 31
0.0
  0
LINE
  5
180
330
2
100
AcDbEntity
  8
COIN-LINE
100
AcDbLine
 10
368.4266491246071
 20
332.6912541222144
 30
0.0
 11
368.4266491246071
 21
337.6912541222144
 31
0.0
  0
LINE
  5
181
330
2
100
AcDbEntity
  8
DIM
100
AcDbLine
 10
368.4266491246071
 20
337.6912541222144
 30
0.0
 11
368.4266491246071
 21
360.6912541222143
 31
0.0
  0
TEXT
  5
182
330
2
100
AcDbEntity
  8
DIM
100
AcDbText
 10
367.9266491246071
 20
348.310301741262
 30
0.0
 40
2.5
  1
0.0620
 50
90.0
  7
SIMPLEX
 72
     2
 11
367.9266491246071
 21
360.6912541222143
 31
0.0
100
AcDbText
  0
LINE
  5
183
330
2
100
AcDbEntity
  8
DIM
100
AcDbLine
 10
360.4266491246144
 20
297.5888919174792
 30
0.0
 11
360.4266491246144
 21
332.6912541222144
 31
0.0
  0
LINE
  5
184
330
2
100
AcDbEntity
  8
COIN-LINE
100
AcDbLine
 10
360.4266491246144
 20
332.6912541222144
 30
0.0
 11
360.4266491246144
 21
337.6912541222144
 31
0.0
  0
LINE
  5
185
330
2
100
AcDbEntity
  8
DIM
100
AcDbLine
 10
360.4266491246144
 20
337.6912541222144
 30
0.0
 11
360.4266491246144
 21
360.6912541222143
 31
0.0
  0
TEXT
  5
186
330
2
100
AcDbEntity
  8
DIM
100
AcDbText
 10
359.9266491246144
 20
348.310301741262
 30
0.0
 40
2.5
  1
0.0820
 50
90.0
  7
SIMPLEX
 72
     2
 11
359.9266491246144
 21
360.6912541222143
 31
0.0
100
AcDbText
  0
LINE
  5
187
330
2
100
AcDbEntity
  8
DIM
100
AcDbLine
 10
383.2266491246664
 20
314.8311694426808
 30
0.0
 11
383.2266491246664
 21
332.6912541222144
 31
0.0
  0
LINE
  5
188
330
2
100
AcDbEntity
  8
COIN-LINE
100
AcDbLine
 10
383.2266491246664
 20
332.6912541222144
 30
0.0
 11
380.1279284755878
 21
337.6912541222145
 31
0.0
  0
LINE
  5
189
330
2
100
AcDbEntity
  8
DIM
100
AcDbLine
 10
380.1279284755878
 20
337.6912541222145
 30
0.0
 11
380.1279284755878
 21
360.6912541222145
 31
0.0
  0
TEXT
  5
18A
330
2
100
AcDbEntity
  8
DIM
100
AcDbText
 10
379.6279284755879
 20
348.3103017412621
 30
0.0
 40
2.5
  1
0.0250
 50
90.0
  7
SIMPLEX
 72
     2
 11
379.6279284755879
 21
360.6912541222145
 31
0.0
100
AcDbText
  0
LINE
  5
18B
330
2
100
AcDbEntity
  8
DIM
100
AcDbLine
 10
384.8266491246513
 20
326.6912541221642
 30
0.0
 11
384.8266491246513
 21
332.6912541222144
 31
0.0
  0
LINE
  5
18C
330
2
100
AcDbEntity
  8
COIN-LINE
100
AcDbLine
 10
384.8266491246513
 20
332.6912541222144
 30
0.0
 11
383.6756960593877
 21
337.6912541222145
 31
0.0
  0
LINE
  5
18D
330
2
100
AcDbEntity
  8
DIM
100
AcDbLine
 10
383.6756960593877
 20
337.6912541222145
 30
0.0
 11
383.6756960593877
 21
360.6912541222145
 31
0.0
  0
TEXT
  5
18E
330
2
100
AcDbEntity
  8
DIM
100
AcDbText
 10
383.1756960593878
 20
348.7864922174527
 30
0.0
 40
2.5
  1
0.0210
 50
90.0
  7
SIMPLEX
 72
     2
 11
383.1756960593878
 21
360.6912541222145
 31
0.0
100
AcDbText
  0
LINE
  5
18F
330
2
100
AcDbEntity
  8
DIM
100
AcDbLine
 10
389.6266491247197
 20
318.7888919175235
 30
0.0
 11
389.6266491247197
 21
327.6912541222145
 31
0.0
  0
LINE
  5
190
330
2
100
AcDbEntity
  8
COIN-LINE
100
AcDbLine
 10
389.6266491247197
 20
327.6912541222145
 30
0.0
 11
387.2362069632901
 21
332.6912541222145
 31
0.0
  0
LINE
  5
191
330
2
100
AcDbEntity
  8
DIM
100
AcDbLine
 10
387.2362069632901
 20
332.6912541222145
 30
0.0
 11
387.2362069632901
 21
360.6912541222145
 31
0.0
  0
TEXT
  5
192
330
2
100
AcDbEntity
  8
DIM
100
AcDbText
 10
386.7362069632902
 20
348.3103017412621
 30
0.0
 40
2.5
  1
0.0090
 50
90.0
  7
SIMPLEX
 72
     2
 11
386.7362069632902
 21
360.6912541222145
 31
0.0
100
AcDbText
  0
LINE
  5
193
330
2
100
AcDbEntity
  8
DIM
100
AcDbLine
 10
391.2266491246819
 20
314.8311694426808
 30
0.0
 11
391.2266491246819
 21
332.6912541222144
 31
0.0
  0
LINE
  5
194
330
2
100
AcDbEntity
  8
COIN-LINE
100
AcDbLine
 10
391.2266491246819
 20
332.6912541222144
 30
0.0
 11
391.2266491246819
 21
337.6912541222145
 31
0.0
  0
LINE
  5
195
330
2
100
AcDbEntity
  8
DIM
100
AcDbLine
 10
391.2266491246819
 20
337.6912541222145
 30
0.0
 11
391.2266491246819
 21
360.6912541222145
 31
0.0
  0
TEXT
  5
196
330
2
100
AcDbEntity
  8
DIM
100
AcDbText
 10
390.7266491246819
 20
348.3103017412621
 30
0.0
 40
2.5
  1
0.0050
 50
90.0
  7
SIMPLEX
 72
     2
 11
390.7266491246819
 21
360.6912541222145
 31
0.0
100
AcDbText
  0
LINE
  5
197
330
2
100
AcDbEntity
  8
DIM
100
AcDbLine
 10
393.2266491247483
 20
326.6912541223368
 30
0.0
 11
393.2266491247483
 21
332.6912541222144
 31
0.0
  0
LINE
  5
198
330
2
100
AcDbEntity
  8
COIN-LINE
100
AcDbLine
 10
393.2266491247483
 20
332.6912541222144
 30
0.0
 11
394.9088127985289
 21
337.6912541222145
 31
0.0
  0
LINE
  5
199
330
2
100
AcDbEntity
  8
DIM
100
AcDbLine
 10
394.9088127985289
 20
337.6912541222145
 30
0.0
 11
394.9088127985289
 21
360.6912541222145
 31
0.0
  0
TEXT
  5
19A
330
2
100
AcDbEntity
  8
DIM
100
AcDbText
 10
394.408812798529
 20
348.3103017412621
 30
0.0
 40
2.5
  1
0.0000
 50
90.0
  7
SIMPLEX
 72
     2
 11
394.408812798529
 21
360.6912541222145
 31
0.0
100
AcDbText
  0
LINE
  5
19B
330
2
100
AcDbEntity
  8
DIM
100
AcDbLine
 10
396.0266491247048
 20
300.788891917449
 30
0.0
 11
396.0266491247048
 21
332.6912541222144
 31
0.0
  0
LINE
  5
19C
330
2
100
AcDbEntity
  8
COIN-LINE
100
AcDbLine
 10
396.0266491247048
 20
332.6912541222144
 30
0.0
 11
398.5056273170369
 21
337.6912541222145
 31
0.0
  0
LINE
  5
19D
330
2
100
AcDbEntity
  8
DIM
100
AcDbLine
 10
398.5056273170369
 20
337.6912541222145
 30
0.0
 11
398.5056273170369
 21
360.6912541222145
 31
0.0
  0
TEXT
  5
19E
330
2
100
AcDbEntity
  8
DIM
100
AcDbText
 10
398.0056273170369
 20
348.3103017412621
 30
0.0
 40
2.5
  1
0.0070
 50
90.0
  7
SIMPLEX
 72
     2
 11
398.0056273170369
 21
360.6912541222145
 31
0.0
100
AcDbText
  0
LINE
  5
19F
330
2
100
AcDbEntity
  8
DIM
100
AcDbLine
 10
399.2266491247428
 20
301.8912541221822
 30
0.0
 11
399.2266491247428
 21
332.6912541222144
 31
0.0
  0
LINE
  5
1A0
330
2
100
AcDbEntity
  8
COIN-LINE
100
AcDbLine
 10
399.2266491247428
 20
332.6912541222144
 30
0.0
 11
402.1483018946896
 21
337.6912541222145
 31
0.0
  0
LINE
  5
1A1
330
2
100
AcDbEntity
  8
DIM
100
AcDbLine
 10
402.1483018946896
 20
337.6912541222145
 30
0.0
 11
402.1483018946896
 21
360.6912541222145
 31
0.0
  0
TEXT
  5
1A2
330
2
100
AcDbEntity
  8
DIM
100
AcDbText
 10
401.6483018946896
 20
348.7864922174526
 30
0.0
 40
2.5
  1
0.0150
 50
90.0
  7
SIMPLEX
 72
     2
 11
401.6483018946896
 21
360.6912541222145
 31
0.0
100
AcDbText
  0
LINE
  5
1A3
330
2
100
AcDbEntity
  8
DIM
100
AcDbLine
 10
421.2266491247
 20
301.8912541222959
 30
0.0
 11
421.2266491247
 21
327.6912541222145
 31
0.0
  0
LINE
  5
1A4
330
2
100
AcDbEntity
  8
COIN-LINE
100
AcDbLine
 10
421.2266491247
 20
327.6912541222145
 30
0.0
 11
414.4488243215199
 21
332.6912541222144
 31
0.0
  0
LINE
  5
1A5
330
2
100
AcDbEntity
  8
DIM
100
AcDbLine
 10
414.4488243215199
 20
332.6912541222144
 30
0.0
 11
414.4488243215199
 21
360.6912541222143
 31
0.0
  0
TEXT
  5
1A6
330
2
100
AcDbEntity
  8
DIM
100
AcDbText
 10
413.94882432152
 20
348.310301741262
 30
0.0
 40
2.5
  1
0.0700
 50
90.0
  7
SIMPLEX
 72
     2
 11
413.94882432152
 21
360.6912541222143
 31
0.0
100
AcDbText
  0
LINE
  5
1A7
330
2
100
AcDbEntity
  8
DIM
100
AcDbLine
 10
423.2266491246981
 20
301.891254122114
 30
0.0
 11
423.2266491246981
 21
332.6912541222144
 31
0.0
  0
LINE
  5
1A8
330
2
100
AcDbEntity
  8
COIN-LINE
100
AcDbLine
 10
423.2266491246981
 20
332.6912541222144
 30
0.0
 11
418.0272214582458
 21
337.6912541222144
 31
0.0
  0
LINE
  5
1A9
330
2
100
AcDbEntity
  8
DIM
100
AcDbLine
 10
418.0272214582458
 20
337.6912541222144
 30
0.0
 11
418.0272214582458
 21
360.6912541222143
 31
0.0
  0
TEXT
  5
1AA
330
2
100
AcDbEntity
  8
DIM
100
AcDbText
 10
417.5272214582458
 20
348.3103017412619
 30
0.0
 40
2.5
  1
0.0750
 50
90.0
  7
SIMPLEX
 72
     2
 11
417.5272214582458
 21
360.6912541222143
 31
0.0
100
AcDbText
  0
LINE
  5
1AB
330
2
100
AcDbEntity
  8
DIM
100
AcDbLine
 10
428.8266491247476
 20
298.9888919174915
 30
0.0
 11
428.8266491247476
 21
332.6912541222144
 31
0.0
  0
LINE
  5
1AC
330
2
100
AcDbEntity
  8
COIN-LINE
100
AcDbLine
 10
428.8266491247476
 20
332.6912541222144
 30
0.0
 11
428.8266491247476
 21
337.6912541222144
 31
0.0
  0
LINE
  5
1AD
330
2
100
AcDbEntity
  8
DIM
100
AcDbLine
 10
428.8266491247476
 20
337.6912541222144
 30
0.0
 11
428.8266491247476
 21
360.6912541222143
 31
0.0
  0
TEXT
  5
1AE
330
2
100
AcDbEntity
  8
DIM
100
AcDbText
 10
428.3266491247476
 20
348.3103017412619
 30
0.0
 40
2.5
  1
0.0890
 50
90.0
  7
SIMPLEX
 72
     2
 11
428.3266491247476
 21
360.6912541222143
 31
0.0
100
AcDbText
  0
LINE
  5
1AF
330
2
100
AcDbEntity
  8
DIM
100
AcDbLine
 10
405.226649124669
 20
166.9513388015199
 30
0.0
 11
405.226649124669
 21
145.4912541221444
 31
0.0
  0
LINE
  5
1B0
330
2
100
AcDbEntity
  8
COIN-LINE
100
AcDbLine
 10
405.226649124669
 20
145.4912541221444
 30
0.0
 11
408.0362913093327
 21
140.4912541221444
 31
0.0
  0
LINE
  5
1B1
330
2
100
AcDbEntity
  8
DIM
100
AcDbLine
 10
408.0362913093327
 20
140.4912541221444
 30
0.0
 11
408.0362913093327
 21
117.4912541221444
 31
0.0
  0
TEXT
  5
1B2
330
2
100
AcDbEntity
  8
DIM
100
AcDbText
 10
407.5362913093327
 20
117.4912541221444
 30
0.0
 40
2.5
  1
0.0300
 50
90.0
  7
SIMPLEX
100
AcDbText
  0
LINE
  5
1B3
330
2
100
AcDbEntity
  8
DIM
100
AcDbLine
 10
403.626649124707
 20
162.9936163268591
 30
0.0
 11
403.626649124707
 21
145.4912541221444
 31
0.0
  0
LINE
  5
1B4
330
2
100
AcDbEntity
  8
COIN-LINE
100
AcDbLine
 10
403.626649124707
 20
145.4912541221444
 30
0.0
 11
403.626649124707
 21
140.4912541221444
 31
0.0
  0
LINE
  5
1B5
330
2
100
AcDbEntity
  8
DIM
100
AcDbLine
 10
403.626649124707
 20
140.4912541221444
 30
0.0
 11
403.626649124707
 21
117.4912541221444
 31
0.0
  0
TEXT
  5
1B6
330
2
100
AcDbEntity
  8
DIM
100
AcDbText
 10
403.1266491247071
 20
117.4912541221444
 30
0.0
 40
2.5
  1
0.0260
 50
90.0
  7
SIMPLEX
100
AcDbText
  0
LINE
  5
1B7
330
2
100
AcDbEntity
  8
DIM
100
AcDbLine
 10
398.8266491247068
 20
162.9936163268818
 30
0.0
 11
398.8266491247068
 21
145.4912541221444
 31
0.0
  0
LINE
  5
1B8
330
2
100
AcDbEntity
  8
COIN-LINE
100
AcDbLine
 10
398.8266491247068
 20
145.4912541221444
 30
0.0
 11
398.8266491247068
 21
140.4912541221444
 31
0.0
  0
LINE
  5
1B9
330
2
100
AcDbEntity
  8
DIM
100
AcDbLine
 10
398.8266491247068
 20
140.4912541221444
 30
0.0
 11
398.8266491247068
 21
117.4912541221444
 31
0.0
  0
TEXT
  5
1BA
330
2
100
AcDbEntity
  8
DIM
100
AcDbText
 10
398.3266491247068
 20
117.4912541221444
 30
0.0
 40
2.5
  1
0.0140
 50
90.0
  7
SIMPLEX
100
AcDbText
  0
LINE
  5
1BB
330
2
100
AcDbEntity
  8
DIM
100
AcDbLine
 10
397.2266491246764
 20
166.9513388015199
 30
0.0
 11
397.2266491246764
 21
145.4912541221444
 31
0.0
  0
LINE
  5
1BC
330
2
100
AcDbEntity
  8
COIN-LINE
100
AcDbLine
 10
397.2266491246764
 20
145.4912541221444
 30
0.0
 11
394.905639332919
 21
140.4912541221444
 31
0.0
  0
LINE
  5
1BD
330
2
100
AcDbEntity
  8
DIM
100
AcDbLine
 10
394.905639332919
 20
140.4912541221444
 30
0.0
 11
394.905639332919
 21
117.4912541221444
 31
0.0
  0
TEXT
  5
1BE
330
2
100
AcDbEntity
  8
DIM
100
AcDbText
 10
394.405639332919
 20
117.4912541221444
 30
0.0
 40
2.5
  1
0.0100
 50
90.0
  7
SIMPLEX
100
AcDbText
  0
LINE
  5
1BF
330
2
100
AcDbEntity
  8
DIM
100
AcDbLine
 10
392.4266491247217
 20
179.8912541221777
 30
0.0
 11
392.4266491247217
 21
145.4912541221444
 31
0.0
  0
LINE
  5
1C0
330
2
100
AcDbEntity
  8
COIN-LINE
100
AcDbLine
 10
392.4266491247217
 20
145.4912541221444
 30
0.0
 11
391.20506605112
 21
140.4912541221444
 31
0.0
  0
LINE
  5
1C1
330
2
100
AcDbEntity
  8
DIM
100
AcDbLine
 10
391.20506605112
 20
140.4912541221444
 30
0.0
 11
391.20506605112
 21
117.4912541221444
 31
0.0
  0
TEXT
  5
1C2
330
2
100
AcDbEntity
  8
DIM
100
AcDbText
 10
390.70506605112
 20
117.4912541221444
 30
0.0
 40
2.5
  1
0.0020
 50
90.0
  7
SIMPLEX
100
AcDbText
  0
LINE
  5
1C3
330
2
100
AcDbEntity
  8
DIM
100
AcDbLine
 10
373.2266491249029
 20
179.8912541221777
 30
0.0
 11
373.2266491249029
 21
175.8106443910615
 31
0.0
  0
LINE
  5
1C4
330
2
100
AcDbEntity
  8
COIN-LINE
100
AcDbLine
 10
373.2266491249029
 20
145.4912541221444
 30
0.0
 11
375.3778423980639
 21
140.4912541221444
 31
0.0
  0
LINE
  5
1C5
330
2
100
AcDbEntity
  8
DIM
100
AcDbLine
 10
375.3778423980639
 20
140.4912541221444
 30
0.0
 11
375.3778423980639
 21
117.4912541221444
 31
0.0
  0
TEXT
  5
1C6
330
2
100
AcDbEntity
  8
DIM
100
AcDbText
 10
374.8778423980639
 20
117.4912541221444
 30
0.0
 40
2.5
  1
0.0500
 50
90.0
  7
SIMPLEX
100
AcDbText
  0
LINE
  5
1C7
330
2
100
AcDbEntity
  8
DIM
100
AcDbLine
 10
371.2266491246319
 20
173.8912541222059
 30
0.0
 11
371.2266491246319
 21
145.4912541221444
 31
0.0
  0
LINE
  5
1C8
330
2
100
AcDbEntity
  8
COIN-LINE
100
AcDbLine
 10
371.2266491246319
 20
145.4912541221444
 30
0.0
 11
371.2266491246319
 21
140.4912541221444
 31
0.0
  0
LINE
  5
1C9
330
2
100
AcDbEntity
  8
DIM
100
AcDbLine
 10
371.2266491246319
 20
140.4912541221444
 30
0.0
 11
371.2266491246319
 21
117.4912541221444
 31
0.0
  0
TEXT
  5
1CA
330
2
100
AcDbEntity
  8
DIM
100
AcDbText
 10
370.7266491246319
 20
117.4912541221444
 30
0.0
 40
2.5
  1
0.0550
 50
90.0
  7
SIMPLEX
100
AcDbText
  0
LINE
  5
1CB
330
2
100
AcDbEntity
  8
DIM
100
AcDbLine
 10
435.4266491248425
 20
180.8912541221777
 30
0.0
 11
460.2266491247163
 21
180.8912541221777
 31
0.0
  0
LINE
  5
1CC
330
2
100
AcDbEntity
  8
COIN-LINE
100
AcDbLine
 10
460.2266491247163
 20
180.8912541221777
 30
0.0
 11
465.2266491247163
 21
180.8912541221777
 31
0.0
  0
LINE
  5
1CD
330
2
100
AcDbEntity
  8
DIM
100
AcDbLine
 10
465.2266491247163
 20
180.8912541221777
 30
0.0
 11
488.2266491247163
 21
180.8912541221777
 31
0.0
  0
TEXT
  5
1CE
330
2
100
AcDbEntity
  8
DIM
100
AcDbText
 10
476.3218872199543
 20
181.3912541221777
 30
0.0
 40
2.5
  1
0.1500
  7
SIMPLEX
 72
     2
 11
488.2266491247163
 21
181.3912541221777
 31
0.0
100
AcDbText
  0
LINE
  5
1CF
330
2
100
AcDbEntity
  8
DIM
100
AcDbLine
 10
366.2266491249311
 20
192.8912541221213
 30
0.0
 11
360.3700161505271
 21
192.8912541221213
 31
0.0
  0
LINE
  5
1D0
330
2
100
AcDbEntity
  8
COIN-LINE
100
AcDbLine
 10
326.2266491246974
 20
192.8912541221213
 30
0.0
 11
321.2266491246974
 21
192.8912541221213
 31
0.0
  0
LINE
  5
1D1
330
2
100
AcDbEntity
  8
DIM
100
AcDbLine
 10
321.2266491246974
 20
192.8912541221213
 30
0.0
 11
298.2266491246974
 21
192.8912541221213
 31
0.0
  0
TEXT
  5
1D2
330
2
100
AcDbEntity
  8
DIM
100
AcDbText
 10
298.2266491246974
 20
193.3912541221213
 30
0.0
 40
2.5
  1
0.1200
  7
SIMPLEX
100
AcDbText
  0
LINE
  5
1D3
330
2
100
AcDbEntity
  8
DIM
100
AcDbLine
 10
366.2266491249084
 20
176.8912541221813
 30
0.0
 11
326.2266491246974
 21
176.8912541221813
 31
0.0
  0
LINE
  5
1D4
330
2
100
AcDbEntity
  8
COIN-LINE
100
AcDbLine
 10
326.2266491246974
 20
176.8912541221813
 30
0.0
 11
321.2266491246974
 21
176.8912541221813
 31
0.0
  0
LINE
  5
1D5
330
2
100
AcDbEntity
  8
DIM
100
AcDbLine
 10
321.2266491246974
 20
176.8912541221813
 30
0.0
 11
298.2266491246974
 21
176.8912541221813
 31
0.0
  0
TEXT
  5
1D6
330
2
100
AcDbEntity
  8
DIM
100
AcDbText
 10
298.2266491246974
 20
177.3912541221813
 30
0.0
 40
2.5
  1
0.1600
  7
SIMPLEX
100
AcDbText
  0
LINE
  5
1D7
330
2
100
AcDbEntity
  8
DIM
100
AcDbLine
 10
432.0266491247174
 20
182.7936163269366
 30
0.0
 11
432.0266491247174
 21
145.4912541221444
 31
0.0
  0
LINE
  5
1D8
330
2
100
AcDbEntity
  8
COIN-LINE
100
AcDbLine
 10
432.0266491247174
 20
145.4912541221444
 30
0.0
 11
429.3196985301793
 21
140.4912541221444
 31
0.0
  0
LINE
  5
1D9
330
2
100
AcDbEntity
  8
DIM
100
AcDbLine
 10
429.3196985301793
 20
140.4912541221444
 30
0.0
 11
429.3196985301793
 21
117.4912541221444
 31
0.0
  0
TEXT
  5
1DA
330
2
100
AcDbEntity
  8
DIM
100
AcDbText
 10
428.8196985301793
 20
117.4912541221444
 30
0.0
 40
2.5
  1
0.0970
 50
90.0
  7
SIMPLEX
100
AcDbText
  0
LINE
  5
1DB
330
2
100
AcDbEntity
  8
DIM
100
AcDbLine
 10
427.2266491250583
 20
176.2912541221946
 30
0.0
 11
427.2266491250583
 21
145.4912541221444
 31
0.0
  0
LINE
  5
1DC
330
2
100
AcDbEntity
  8
COIN-LINE
100
AcDbLine
 10
427.2266491250583
 20
145.4912541221444
 30
0.0
 11
425.577633133787
 21
140.4912541221444
 31
0.0
  0
LINE
  5
1DD
330
2
100
AcDbEntity
  8
DIM
100
AcDbLine
 10
425.577633133787
 20
140.4912541221444
 30
0.0
 11
425.577633133787
 21
117.4912541221444
 31
0.0
  0
TEXT
  5
1DE
330
2
100
AcDbEntity
  8
DIM
100
AcDbText
 10
425.077633133787
 20
117.4912541221444
 30
0.0
 40
2.5
  1
0.0850
 50
90.0
  7
SIMPLEX
100
AcDbText
  0
LINE
  5
1DF
330
2
100
AcDbEntity
  8
DIM
100
AcDbLine
 10
434.4266491248427
 20
179.8912541221777
 30
0.0
 11
434.4266491248427
 21
145.4912541221444
 31
0.0
  0
LINE
  5
1E0
330
2
100
AcDbEntity
  8
COIN-LINE
100
AcDbLine
 10
434.4266491248427
 20
145.4912541221444
 30
0.0
 11
432.7776331335711
 21
140.4912541221444
 31
0.0
  0
LINE
  5
1E1
330
2
100
AcDbEntity
  8
DIM
100
AcDbLine
 10
432.7776331335711
 20
140.4912541221444
 30
0.0
 11
432.7776331335711
 21
117.4912541221444
 31
0.0
  0
TEXT
  5
1E2
330
2
100
AcDbEntity
  8
DIM
100
AcDbText
 10
432.2776331335711
 20
117.4912541221444
 30
0.0
 40
2.5
  1
0.1030
 50
90.0
  7
SIMPLEX
100
AcDbText
  0
LINE
  5
1E3
330
2
100
AcDbEntity
  8
DIM
100
AcDbLine
 10
439.2266491248657
 20
175.8912541221813
 30
0.0
 11
439.2266491248657
 21
145.4912541221444
 31
0.0
  0
LINE
  5
1E4
330
2
100
AcDbEntity
  8
COIN-LINE
100
AcDbLine
 10
439.2266491248657
 20
145.4912541221444
 30
0.0
 11
443.8119307508737
 21
140.4912541221444
 31
0.0
  0
LINE
  5
1E5
330
2
100
AcDbEntity
  8
DIM
100
AcDbLine
 10
443.8119307508737
 20
140.4912541221444
 30
0.0
 11
443.8119307508737
 21
117.4912541221444
 31
0.0
  0
TEXT
  5
1E6
330
2
100
AcDbEntity
  8
DIM
100
AcDbText
 10
443.3119307508738
 20
117.4912541221444
 30
0.0
 40
2.5
  1
0.1150
 50
90.0
  7
SIMPLEX
100
AcDbText
  0
LINE
  5
1E7
330
2
100
AcDbEntity
  8
DIM
100
AcDbLine
 10
333.3452982662539
 20
288.8912541221704
 30
0.0
 11
326.2266491246974
 21
288.8912541221704
 31
0.0
  0
LWPOLYLINE
  5
1E8
330
2
100
AcDbEntity
  8
0
100
AcDbPolyline
 90
        3
 70
     0
 43
0.0
 10
349.4334754314975
 20
289.2494877939333
 10
349.2266491246998
 20
288.8912541222158
 10
348.7789387133569
 20
288.8912541222159
  0
LINE
  5
1E9
330
2
100
AcDbEntity
  8
DIM
100
AcDbLine
 10
349.2266491246998
 20
289.8912541222158
 30
0.0
 11
349.2266491246998
 21
304.9640633621275
 31
0.0
  0
LINE
  5
1EA
330
2
100
AcDbEntity
  8
COIN-LINE
100
AcDbLine
 10
349.2266491246998
 20
332.6912541222144
 30
0.0
 11
350.997348829383
 21
337.6912541222144
 31
0.0
  0
LINE
  5
1EB
330
2
100
AcDbEntity
  8
DIM
100
AcDbLine
 10
350.997348829383
 20
337.6912541222144
 30
0.0
 11
350.997348829383
 21
360.6912541222143
 31
0.0
  0
TEXT
  5
1EC
330
2
100
AcDbEntity
  8
DIM
100
AcDbText
 10
350.497348829383
 20
349.2626826936429
 30
0.0
 40
2.5
  1
0.1100
 50
90.0
  7
SIMPLEX
 72
     2
 11
350.497348829383
 21
360.6912541222143
 31
0.0
100
AcDbText
  0
LINE
  5
1ED
330
2
100
AcDbEntity
  8
DIM
100
AcDbLine
 10
349.2266491246998
 20
306.2590956138677
 30
0.0
 11
349.2266491246998
 21
332.6912541222144
 31
0.0
  0
LINE
  5
1EE
330
2
100
AcDbEntity
  8
DIM
100
AcDbLine
 10
443.1665644453278
 20
318.8912541223023
 30
0.0
 11
460.2266491247163
 21
318.8912541223023
 31
0.0
  0
LINE
  5
1EF
330
2
100
AcDbEntity
  8
COIN-LINE
100
AcDbLine
 10
460.2266491247163
 20
318.8912541223023
 30
0.0
 11
465.2266491247163
 21
318.8912541223023
 31
0.0
  0
LINE
  5
1F0
330
2
100
AcDbEntity
  8
DIM
100
AcDbLine
 10
465.2266491247163
 20
318.8912541223023
 30
0.0
 11
488.2266491247163
 21
318.8912541223023
 31
0.0
  0
TEXT
  5
1F1
330
2
100
AcDbEntity
  8
DIM
100
AcDbText
 10
476.3218872199543
 20
319.3912541223022
 30
0.0
 40
2.5
  1
0.1950
  7
SIMPLEX
 72
     2
 11
488.2266491247163
 21
319.3912541223022
 31
0.0
100
AcDbText
  0
LINE
  5
1F2
330
2
100
AcDbEntity
  8
DIM
100
AcDbLine
 10
443.1242869199695
 20
162.8912541221031
 30
0.0
 11
460.2266491247163
 21
162.8912541221031
 31
0.0
  0
LINE
  5
1F3
330
2
100
AcDbEntity
  8
COIN-LINE
100
AcDbLine
 10
460.2266491247163
 20
162.8912541221031
 30
0.0
 11
465.2266491247163
 21
162.8912541221031
 31
0.0
  0
LINE
  5
1F4
330
2
100
AcDbEntity
  8
DIM
100
AcDbLine
 10
465.2266491247163
 20
162.8912541221031
 30
0.0
 11
488.2266491247163
 21
162.8912541221031
 31
0.0
  0
TEXT
  5
1F5
330
2
100
AcDbEntity
  8
DIM
100
AcDbText
 10
476.3218872199543
 20
163.3912541221031
 30
0.0
 40
2.5
  1
0.1950
  7
SIMPLEX
 72
     2
 11
488.2266491247163
 21
163.3912541221031
 31
0.0
100
AcDbText
  0
LINE
  5
1F6
330
2
100
AcDbEntity
  8
DIM
100
AcDbLine
 10
372.2266491248802
 20
188.8912541221249
 30
0.0
 11
326.2266491246974
 21
188.8912541221249
 31
0.0
  0
LINE
  5
1F7
330
2
100
AcDbEntity
  8
COIN-LINE
100
AcDbLine
 10
326.2266491246974
 20
188.8912541221249
 30
0.0
 11
321.2266491246974
 21
188.8912541221249
 31
0.0
  0
LINE
  5
1F8
330
2
100
AcDbEntity
  8
DIM
100
AcDbLine
 10
321.2266491246974
 20
188.8912541221249
 30
0.0
 11
298.2266491246974
 21
188.8912541221249
 31
0.0
  0
TEXT
  5
1F9
330
2
100
AcDbEntity
  8
DIM
100
AcDbText
 10
298.2266491246974
 20
189.3912541221249
 30
0.0
 40
2.5
  1
0.1300
  7
SIMPLEX
100
AcDbText
  0
LINE
  5
1FA
330
2
100
AcDbEntity
  8
DIM
100
AcDbLine
 10
372.2266491249029
 20
180.8912541221777
 30
0.0
 11
326.2266491246974
 21
180.8912541221777
 31
0.0
  0
LINE
  5
1FB
330
2
100
AcDbEntity
  8
COIN-LINE
100
AcDbLine
 10
326.2266491246974
 20
180.8912541221777
 30
0.0
 11
321.2266491246974
 21
180.8912541221777
 31
0.0
  0
LINE
  5
1FC
330
2
100
AcDbEntity
  8
DIM
100
AcDbLine
 10
321.2266491246974
 20
180.8912541221777
 30
0.0
 11
298.2266491246974
 21
180.8912541221777
 31
0.0
  0
TEXT
  5
1FD
330
2
100
AcDbEntity
  8
DIM
100
AcDbText
 10
298.2266491246974
 20
181.3912541221777
 30
0.0
 40
2.5
  1
0.1500
  7
SIMPLEX
100
AcDbText
  0
LINE
  5
1FE
330
2
100
AcDbEntity
  8
DIM
100
AcDbLine
 10
368.5290113293859
 20
184.0912541222839
 30
0.0
 11
360.1937666810538
 21
184.0912541222839
 31
0.0
  0
LINE
  5
1FF
330
2
100
AcDbEntity
  8
COIN-LINE
100
AcDbLine
 10
326.2266491246974
 20
184.0912541222839
 30
0.0
 11
321.2266491246974
 21
185.3123554219838
 31
0.0
  0
LINE
  5
200
330
2
100
AcDbEntity
  8
DIM
100
AcDbLine
 10
321.2266491246974
 20
185.3123554219838
 30
0.0
 11
298.2266491246974
 21
185.3123554219838
 31
0.0
  0
TEXT
  5
201
330
2
100
AcDbEntity
  8
DIM
100
AcDbText
 10
298.2266491246974
 20
185.8123554219839
 30
0.0
 40
2.5
  1
0.1420
  7
SIMPLEX
100
AcDbText
  0
LINE
  5
202
330
2
100
AcDbEntity
  8
DIM
100
AcDbLine
 10
353.9157085459647
 20
184.0912541222839
 30
0.0
 11
326.2266491246974
 21
184.0912541222839
 31
0.0
  0
LINE
  5
203
330
2
100
AcDbEntity
  8
DIM
100
AcDbLine
 10
356.5105063443423
 20
192.8912541221213
 30
0.0
 11
349.6068737122989
 21
192.8912541221213
 31
0.0
  0
LINE
  5
204
330
2
100
AcDbEntity
  8
DIM
100
AcDbLine
 10
333.407801341202
 20
192.8912541221213
 30
0.0
 11
326.2266491246974
 21
192.8912541221213
 31
0.0
  0
LINE
  5
205
330
2
100
AcDbEntity
  8
DIM
100
AcDbLine
 10
346.0266491247276
 20
263.1888919174741
 30
0.0
 11
346.0266491247276
 21
332.6912541222144
 31
0.0
  0
LINE
  5
206
330
2
100
AcDbEntity
  8
COIN-LINE
100
AcDbLine
 10
346.0266491247276
 20
332.6912541222144
 30
0.0
 11
346.9119996741813
 21
337.6912541222144
 31
0.0
  0
LINE
  5
207
330
2
100
AcDbEntity
  8
DIM
100
AcDbLine
 10
346.9119996741813
 20
337.6912541222144
 30
0.0
 11
346.9119996741813
 21
360.6912541222143
 31
0.0
  0
TEXT
  5
208
330
2
100
AcDbEntity
  8
DIM
100
AcDbText
 10
346.4119996741813
 20
349.2626826936429
 30
0.0
 40
2.5
  1
0.1180
 50
90.0
  7
SIMPLEX
 72
     2
 11
346.4119996741813
 21
360.6912541222143
 31
0.0
100
AcDbText
  0
LINE
  5
209
330
2
100
AcDbEntity
  8
DIM
100
AcDbLine
 10
354.0266491247203
 20
263.1888919174741
 30
0.0
 11
354.0266491247203
 21
272.8637384240164
 31
0.0
  0
LINE
  5
20A
330
2
100
AcDbEntity
  8
DIM
100
AcDbLine
 10
354.026649124743
 20
285.891254122174
 30
0.0
 11
354.026649124743
 21
332.6912541222144
 31
0.0
  0
LINE
  5
20B
330
2
100
AcDbEntity
  8
COIN-LINE
100
AcDbLine
 10
354.026649124743
 20
332.6912541222144
 30
0.0
 11
354.9119996741968
 21
337.6912541222144
 31
0.0
  0
LINE
  5
20C
330
2
100
AcDbEntity
  8
DIM
100
AcDbLine
 10
354.9119996741968
 20
337.6912541222144
 30
0.0
 11
354.9119996741968
 21
360.6912541222143
 31
0.0
  0
TEXT
  5
20D
330
2
100
AcDbEntity
  8
DIM
100
AcDbText
 10
354.4119996741967
 20
348.310301741262
 30
0.0
 40
2.5
  1
0.0980
 50
90.0
  7
SIMPLEX
 72
     2
 11
354.4119996741967
 21
360.6912541222143
 31
0.0
100
AcDbText
  0
LINE
  5
20E
330
2
100
AcDbEntity
  8
DIM
100
AcDbLine
 10
346.1290113294608
 20
263.2912541221846
 30
0.0
 11
326.2266491246974
 21
263.2912541221846
 31
0.0
  0
LINE
  5
20F
330
2
100
AcDbEntity
  8
COIN-LINE
100
AcDbLine
 10
326.2266491246974
 20
263.2912541221846
 30
0.0
 11
321.2266491246974
 21
263.2912541221846
 31
0.0
  0
LINE
  5
210
330
2
100
AcDbEntity
  8
DIM
100
AcDbLine
 10
321.2266491246974
 20
263.2912541221846
 30
0.0
 11
298.2266491246974
 21
263.2912541221846
 31
0.0
  0
TEXT
  5
211
330
2
100
AcDbEntity
  8
DIM
100
AcDbText
 10
298.2266491246974
 20
263.7912541221846
 30
0.0
 40
2.5
  1
0.0560
  7
SIMPLEX
100
AcDbText
  0
LINE
  5
212
330
2
100
AcDbEntity
  8
DIM
100
AcDbLine
 10
346.1290113294608
 20
258.4912541222071
 30
0.0
 11
326.2266491246974
 21
258.4912541222071
 31
0.0
  0
LINE
  5
213
330
2
100
AcDbEntity
  8
COIN-LINE
100
AcDbLine
 10
326.2266491246974
 20
258.4912541222071
 30
0.0
 11
321.2266491246974
 21
258.4912541222071
 31
0.0
  0
LINE
  5
214
330
2
100
AcDbEntity
  8
DIM
100
AcDbLine
 10
321.2266491246974
 20
258.4912541222071
 30
0.0
 11
298.2266491246974
 21
258.4912541222071
 31
0.0
  0
TEXT
  5
215
330
2
100
AcDbEntity
  8
DIM
100
AcDbText
 10
298.2266491246974
 20
258.9912541222071
 30
0.0
 40
2.5
  1
0.0440
  7
SIMPLEX
100
AcDbText
  0
LINE
  5
216
330
2
100
AcDbEntity
  8
DIM
100
AcDbLine
 10
367.2266491249084
 20
175.8912541221813
 30
0.0
 11
367.2266491249084
 21
145.4912541221444
 31
0.0
  0
LINE
  5
217
330
2
100
AcDbEntity
  8
COIN-LINE
100
AcDbLine
 10
367.2266491249084
 20
145.4912541221444
 30
0.0
 11
367.2266491249084
 21
140.4912541221444
 31
0.0
  0
LINE
  5
218
330
2
100
AcDbEntity
  8
DIM
100
AcDbLine
 10
367.2266491249084
 20
140.4912541221444
 30
0.0
 11
367.2266491249084
 21
117.4912541221444
 31
0.0
  0
TEXT
  5
219
330
2
100
AcDbEntity
  8
DIM
100
AcDbText
 10
366.7266491249084
 20
117.4912541221444
 30
0.0
 40
2.5
  1
0.0650
 50
90.0
  7
SIMPLEX
100
AcDbText
  0
LWPOLYLINE
  5
21A
330
2
100
AcDbEntity
  8
0
100
AcDbPolyline
 90
        3
 70
     0
 43
0.0
 10
373.4697206135694
 20
175.1343256111681
 10
373.2266491245832
 20
174.8912541221831
 10
372.9479325117134
 20
174.8912541221831
  0
LINE
  5
21B
330
2
100
AcDbEntity
  8
DIM
100
AcDbLine
 10
373.2266491249029
 20
173.9075147930897
 30
0.0
 11
373.2266491249029
 21
145.4912541221444
 31
0.0
  0
LINE
  5
21C
330
2
100
AcDbEntity
  8
DIM
100
AcDbLine
 10
427.2266491246263
 20
289.8912541221704
 30
0.0
 11
427.2266491246263
 21
332.6912541222144
 31
0.0
  0
LINE
  5
21D
330
2
100
AcDbEntity
  8
COIN-LINE
100
AcDbLine
 10
427.2266491246263
 20
332.6912541222144
 30
0.0
 11
425.2768640982627
 21
337.6912541222144
 31
0.0
  0
LINE
  5
21E
330
2
100
AcDbEntity
  8
DIM
100
AcDbLine
 10
425.2768640982627
 20
337.6912541222144
 30
0.0
 11
425.2768640982627
 21
360.6912541222143
 31
0.0
  0
TEXT
  5
21F
330
2
100
AcDbEntity
  8
DIM
100
AcDbText
 10
424.7768640982627
 20
348.3103017412619
 30
0.0
 40
2.5
  1
0.0850
 50
90.0
  7
SIMPLEX
 72
     2
 11
424.7768640982627
 21
360.6912541222143
 31
0.0
100
AcDbText
  0
LINE
  5
220
330
2
100
AcDbEntity
  8
DIM
100
AcDbLine
 10
429.2266491246928
 20
267.0416131605804
 30
0.0
 11
429.2266491246928
 21
332.6912541222144
 31
0.0
  0
LINE
  5
221
330
2
100
AcDbEntity
  8
COIN-LINE
100
AcDbLine
 10
429.2266491246928
 20
332.6912541222144
 30
0.0
 11
432.2174163811737
 21
337.6912541222144
 31
0.0
  0
LINE
  5
222
330
2
100
AcDbEntity
  8
DIM
100
AcDbLine
 10
432.2174163811737
 20
337.6912541222144
 30
0.0
 11
432.2174163811737
 21
360.6912541222143
 31
0.0
  0
TEXT
  5
223
330
2
100
AcDbEntity
  8
DIM
100
AcDbText
 10
431.7174163811737
 20
348.3103017412619
 30
0.0
 40
2.5
  1
0.0900
 50
90.0
  7
SIMPLEX
 72
     2
 11
431.7174163811737
 21
360.6912541222143
 31
0.0
100
AcDbText
  0
LINE
  5
224
330
2
100
AcDbEntity
  8
DIM
100
AcDbLine
 10
422.0266491247039
 20
195.8912541220722
 30
0.0
 11
422.0266491247039
 21
145.4912541221444
 31
0.0
  0
LINE
  5
225
330
2
100
AcDbEntity
  8
COIN-LINE
100
AcDbLine
 10
422.0266491247039
 20
145.4912541221444
 30
0.0
 11
422.0266491247039
 21
140.4912541221444
 31
0.0
  0
LINE
  5
226
330
2
100
AcDbEntity
  8
DIM
100
AcDbLine
 10
422.0266491247039
 20
140.4912541221444
 30
0.0
 11
422.0266491247039
 21
117.4912541221444
 31
0.0
  0
TEXT
  5
227
330
2
100
AcDbEntity
  8
DIM
100
AcDbText
 10
421.5266491247039
 20
117.4912541221444
 30
0.0
 40
2.5
  1
0.0720
 50
90.0
  7
SIMPLEX
100
AcDbText
  0
LINE
  5
228
330
2
100
AcDbEntity
  8
DIM
100
AcDbLine
 10
436.4266491246361
 20
280.7888919174672
 30
0.0
 11
436.4266491246361
 21
327.6912541222145
 31
0.0
  0
LINE
  5
229
330
2
100
AcDbEntity
  8
COIN-LINE
100
AcDbLine
 10
436.4266491246361
 20
327.6912541222145
 30
0.0
 11
439.4651838995379
 21
332.6912541222144
 31
0.0
  0
LINE
  5
22A
330
2
100
AcDbEntity
  8
DIM
100
AcDbLine
 10
439.4651838995379
 20
332.6912541222144
 30
0.0
 11
439.4651838995379
 21
360.6912541222143
 31
0.0
  0
TEXT
  5
22B
330
2
100
AcDbEntity
  8
DIM
100
AcDbText
 10
438.9651838995379
 20
348.7864922174524
 30
0.0
 40
2.5
  1
0.1080
 50
90.0
  7
SIMPLEX
 72
     2
 11
438.9651838995379
 21
360.6912541222143
 31
0.0
100
AcDbText
  0
LWPOLYLINE
  5
22C
330
2
100
AcDbEntity
  8
0
100
AcDbPolyline
 90
        3
 70
     0
 43
0.0
 10
424.690449594328
 20
301.1550545921145
 10
424.4266491243212
 20
300.891254122114
 10
424.0989474696672
 20
300.891254122114
  0
LINE
  5
22D
330
2
100
AcDbEntity
  8
DIM
100
AcDbLine
 10
425.4266491243212
 20
300.891254122114
 30
0.0
 11
460.2266491247163
 21
300.891254122114
 31
0.0
  0
LINE
  5
22E
330
2
100
AcDbEntity
  8
DIM
100
AcDbLine
 10
460.2266491247163
 20
300.891254122114
 30
0.0
 11
465.2266491247163
 21
300.891254122114
 31
0.0
  0
LINE
  5
22F
330
2
100
AcDbEntity
  8
DIM
100
AcDbLine
 10
465.2266491247163
 20
300.891254122114
 30
0.0
 11
488.2266491247163
 21
300.891254122114
 31
0.0
  0
TEXT
  5
230
330
2
100
AcDbEntity
  8
DIM
100
AcDbText
 10
476.3218872199543
 20
301.391254122114
 30
0.0
 40
2.5
  1
0.1500
  7
SIMPLEX
 72
     2
 11
488.2266491247163
 21
301.391254122114
 31
0.0
100
AcDbText
  0
LINE
  5
231
330
2
100
AcDbEntity
  8
DIM
100
AcDbLine
 10
424.4266491243212
 20
301.891254122114
 30
0.0
 11
424.4266491243212
 21
332.6912541222144
 31
0.0
  0
LINE
  5
232
330
2
100
AcDbEntity
  8
COIN-LINE
100
AcDbLine
 10
424.4266491243212
 20
332.6912541222144
 30
0.0
 11
421.6412413462771
 21
337.6912541222144
 31
0.0
  0
LINE
  5
233
330
2
100
AcDbEntity
  8
DIM
100
AcDbLine
 10
421.6412413462771
 20
337.6912541222144
 30
0.0
 11
421.6412413462771
 21
360.6912541222143
 31
0.0
  0
TEXT
  5
234
330
2
100
AcDbEntity
  8
DIM
100
AcDbText
 10
421.1412413462771
 20
348.310301741262
 30
0.0
 40
2.5
  1
0.0780
 50
90.0
  7
SIMPLEX
 72
     2
 11
421.1412413462771
 21
360.6912541222143
 31
0.0
100
AcDbText
  0
LINE
  5
235
330
2
100
AcDbEntity
  8
DIM
100
AcDbLine
 10
434.4266491244106
 20
288.8912541221941
 30
0.0
 11
434.4266491244106
 21
332.6912541222144
 31
0.0
  0
LINE
  5
236
330
2
100
AcDbEntity
  8
COIN-LINE
100
AcDbLine
 10
434.4266491244106
 20
332.6912541222144
 30
0.0
 11
435.8888014166843
 21
337.6912541222144
 31
0.0
  0
LINE
  5
237
330
2
100
AcDbEntity
  8
DIM
100
AcDbLine
 10
435.8888014166843
 20
337.6912541222144
 30
0.0
 11
435.8888014166843
 21
360.6912541222143
 31
0.0
  0
TEXT
  5
238
330
2
100
AcDbEntity
  8
DIM
100
AcDbText
 10
435.3888014166843
 20
348.7864922174524
 30
0.0
 40
2.5
  1
0.1030
 50
90.0
  7
SIMPLEX
 72
     2
 11
435.3888014166843
 21
360.6912541222143
 31
0.0
100
AcDbText
  0
LWPOLYLINE
  5
239
330
2
100
AcDbEntity
  8
DIM
100
AcDbPolyline
 90
        4
 70
     0
 43
0.0
 10
354.0266491246975
 20
234.0912541221758
 10
358.826649124774
 20
234.0912541221758
 10
358.826649124774
 20
207.6912541221977
 10
354.0266491246979
 20
207.6912541221977
  0
LWPOLYLINE
  5
23A
330
2
100
AcDbEntity
  8
DIM
100
AcDbPolyline
 90
        4
 70
     0
 43
0.0
 10
396.0266491247302
 20
194.0912541220474
 10
396.0266491247302
 20
197.291254122238
 10
406.4266491246601
 20
197.291254122238
 10
406.4266491246601
 20
194.0912541220474
  0
LWPOLYLINE
  5
23B
330
2
100
AcDbEntity
  8
DIM
100
AcDbPolyline
 90
        4
 70
     0
 43
0.0
 10
359.2266491247253
 20
192.8912541222122
 10
359.2266491247253
 20
197.2912541222046
 10
369.6266491246553
 20
197.2912541222046
 10
369.6266491246553
 20
192.8912541221213
  0
LWPOLYLINE
  5
23C
330
2
100
AcDbEntity
  8
DIM
100
AcDbPolyline
 90
        4
 70
     0
 43
0.0
 10
359.2266491247253
 20
288.8912541222159
 10
359.2266491247253
 20
284.4912541222235
 10
369.6266491246553
 20
284.4912541222235
 10
369.6266491246553
 20
288.8912541223068
  0
LWPOLYLINE
  5
23D
330
2
100
AcDbEntity
  8
DIM
100
AcDbPolyline
 90
        4
 70
     0
 43
0.0
 10
392.4266491246619
 20
287.6912541223807
 10
392.4266491246619
 20
284.4912541221901
 10
382.0266491247319
 20
284.4912541221902
 10
382.0266491247319
 20
288.8912541222155
  0
LINE
  5
23E
330
2
100
AcDbEntity
  8
DIM
100
AcDbLine
 10
359.2266491247253
 20
284.4912541222235
 30
0.0
 11
359.2266491247253
 21
288.8912541221914
 31
0.0
  0
LINE
  5
23F
330
2
100
AcDbEntity
  8
DIM
100
AcDbLine
 10
359.2266491247253
 20
297.6912541221675
 30
0.0
 11
359.2266491247253
 21
306.8912541222222
 31
0.0
  0
LWPOLYLINE
  5
240
330
2
100
AcDbEntity
  8
0
100
AcDbPolyline
 90
        4
 70
     0
 43
0.0
 10
354.0266491246979
 20
274.0912541221849
 10
358.826649124774
 20
274.0912541221849
 10
358.826649124774
 20
247.6912541222068
 10
354.0266491246975
 20
247.6912541222068
  0
LINE
  5
241
330
2
100
AcDbEntity
  8
DIM
100
AcDbLine
 10
359.2266491247253
 20
184.0912541222379
 30
0.0
 11
359.2266491247253
 21
174.8912541221831
 31
0.0
  0
LINE
  5
242
330
2
100
AcDbEntity
  8
DIM
100
AcDbLine
 10
369.6266491246554
 20
184.0912541222839
 30
0.0
 11
369.6266491246554
 21
174.8912541221831
 31
0.0
  0
TEXT
  5
243
330
2
100
AcDbEntity
  8
DIM
100
AcDbText
 10
355.5251981910532
 20
193.7995244234354
 30
0.0
 40
2.5
  1
*
  7
SIMPLEX
100
AcDbText
  0
TEXT
  5
244
330
2
100
AcDbEntity
  8
DIM
100
AcDbText
 10
355.5251981910532
 20
284.4115552495641
 30
0.0
 40
2.5
  1
*
  7
SIMPLEX
100
AcDbText
  0
TEXT
  5
245
330
2
100
AcDbEntity
  8
DIM
100
AcDbText
 10
420.3029110309926
 20
288.125740917515
 30
0.0
 40
2.5
  1
*
  7
SIMPLEX
100
AcDbText
  0
TEXT
  5
246
330
2
100
AcDbEntity
  8
DIM
100
AcDbText
 10
424.6971630158228
 20
288.8643058135065
 30
0.0
 40
2.5
  1
*
  7
SIMPLEX
100
AcDbText
  0
LINE
  5
247
330
2
100
AcDbEntity
  8
DIM
100
AcDbLine
 10
349.8266491247487
 20
229.9871703247535
 30
0.0
 11
346.8266491247486
 21
229.9871703247535
 31
0.0
  0
LINE
  5
248
330
2
100
AcDbEntity
  8
DIM
100
AcDbLine
 10
361.826649124774
 20
229.9871703247535
 30
0.0
 11
378.4314110295359
 21
229.9871703247535
 31
0.0
  0
LINE
  5
249
330
2
100
AcDbEntity
  8
DIM
100
AcDbLine
 10
352.8266491247487
 20
229.9871703247535
 30
0.0
 11
358.826649124774
 21
229.9871703247535
 31
0.0
  0
SOLID
  5
24A
330
2
100
AcDbEntity
  8
DIM
100
AcDbTrace
 10
349.8266491247487
 20
230.4871703247535
 30
0.0
 11
349.8266491247487
 21
229.4871703247535
 31
0.0
 12
352.8266491247487
 22
229.9871703247535
 32
0.0
 13
352.8266491247487
 23
229.9871703247535
 33
0.0
  0
SOLID
  5
24B
330
2
100
AcDbEntity
  8
DIM
100
AcDbTrace
 10
361.826649124774
 20
230.4871703247535
 30
0.0
 11
361.826649124774
 21
229.4871703247535
 31
0.0
 12
358.826649124774
 22
229.9871703247535
 32
0.0
 13
358.826649124774
 23
229.9871703247535
 33
0.0
  0
MTEXT
  5
24C
330
2
100
AcDbEntity
  8
DIM
100
AcDbMText
 10
371.6290300771548
 20
232.0871703247535
 30
0.0
 40
2.5
 41
0.0
 46
0.0
 71
     5
 72
     1
  1
\A1;0.0150
  7
SIMPLEX
 73
     1
 44
1.0
  0
TEXT
  5
24D
330
2
100
AcDbEntity
  8
DIM
100
AcDbText
 10
369.7131242289545
 20
227.2731328949152
 30
0.0
 40
1.8
  1
TYP.
  7
SIMPLEX
100
AcDbText
  0
LINE
  5
24E
330
2
100
AcDbEntity
  8
DIM
100
AcDbLine
 10
351.8266491247524
 20
212.3830801278277
 30
0.0
 11
354.8266491247523
 21
212.3830801278277
 31
0.0
  0
LINE
  5
24F
330
2
100
AcDbEntity
  8
DIM
100
AcDbLine
 10
340.2266491246801
 20
212.3830801278277
 30
0.0
 11
323.6218872199182
 21
212.3830801278277
 31
0.0
  0
LINE
  5
250
330
2
100
AcDbEntity
  8
DIM
100
AcDbLine
 10
348.8266491247523
 20
212.3830801278277
 30
0.0
 11
343.2266491246801
 21
212.3830801278277
 31
0.0
  0
SOLID
  5
251
330
2
100
AcDbEntity
  8
DIM
100
AcDbTrace
 10
351.8266491247524
 20
212.8830801278277
 30
0.0
 11
351.8266491247524
 21
211.8830801278277
 31
0.0
 12
348.8266491247523
 22
212.3830801278277
 32
0.0
 13
348.8266491247523
 23
212.3830801278277
 33
0.0
  0
SOLID
  5
252
330
2
100
AcDbEntity
  8
DIM
100
AcDbTrace
 10
340.2266491246801
 20
212.8830801278277
 30
0.0
 11
340.2266491246801
 21
211.8830801278277
 31
0.0
 12
343.2266491246801
 22
212.3830801278277
 32
0.0
 13
343.2266491246801
 23
212.3830801278277
 33
0.0
  0
MTEXT
  5
253
330
2
100
AcDbEntity
  8
DIM
100
AcDbMText
 10
330.4242681722991
 20
214.4830801278277
 30
0.0
 40
2.5
 41
0.0
 46
0.0
 71
     5
 72
     1
  1
\A1;0.0140
  7
SIMPLEX
 73
     1
 44
1.0
  0
TEXT
  5
254
330
2
100
AcDbEntity
  8
DIM
100
AcDbText
 10
326.1927364575699
 20
209.4526087994425
 30
0.0
 40
1.8
  1
TYP.
  7
SIMPLEX
100
AcDbText
  0
LINE
  5
255
330
2
100
AcDbEntity
  8
DIM
100
AcDbLine
 10
436.4266491246817
 20
176.2912541221946
 30
0.0
 11
436.4266491246817
 21
145.4912541221444
 31
0.0
  0
LINE
  5
256
330
2
100
AcDbEntity
  8
COIN-LINE
100
AcDbLine
 10
436.4266491246817
 20
145.4912541221444
 30
0.0
 11
436.4266491246817
 21
140.4912541221444
 31
0.0
  0
LINE
  5
257
330
2
100
AcDbEntity
  8
DIM
100
AcDbLine
 10
436.4266491246817
 20
140.4912541221444
 30
0.0
 11
436.4266491246817
 21
117.4912541221444
 31
0.0
  0
TEXT
  5
258
330
2
100
AcDbEntity
  8
DIM
100
AcDbText
 10
435.9266491246817
 20
117.4912541221444
 30
0.0
 40
2.5
  1
0.1080
 50
90.0
  7
SIMPLEX
100
AcDbText
  0
LINE
  5
259
330
2
100
AcDbEntity
  8
DIM
100
AcDbLine
 10
436.8266491247177
 20
182.7936163269366
 30
0.0
 11
436.8266491247177
 21
145.4912541221444
 31
0.0
  0
LINE
  5
25A
330
2
100
AcDbEntity
  8
COIN-LINE
100
AcDbLine
 10
436.8266491247177
 20
145.4912541221444
 30
0.0
 11
440.1704883463287
 21
140.4912541221444
 31
0.0
  0
LINE
  5
25B
330
2
100
AcDbEntity
  8
DIM
100
AcDbLine
 10
440.1704883463287
 20
140.4912541221444
 30
0.0
 11
440.1704883463287
 21
117.4912541221444
 31
0.0
  0
TEXT
  5
25C
330
2
100
AcDbEntity
  8
DIM
100
AcDbText
 10
439.6704883463287
 20
117.4912541221444
 30
0.0
 40
2.5
  1
0.1090
 50
90.0
  7
SIMPLEX
100
AcDbText
  0
LWPOLYLINE
  5
25D
330
2
100
AcDbEntity
  8
0
100
AcDbPolyline
 90
        4
 70
     0
 43
0.0
 10
422.0266491247033
 20
280.0912541222249
 10
417.2266491246274
 20
280.0912541222249
 10
417.2266491246274
 20
269.6912541224142
 10
422.0266491247033
 20
269.6912541224142
  0
LINE
  5
25E
330
2
100
AcDbEntity
  8
DIM
100
AcDbLine
 10
417.2266491246274
 20
269.6912541224142
 30
0.0
 11
422.0266491247039
 21
269.6912541224304
 31
0.0
  0
LINE
  5
25F
330
2
100
AcDbEntity
  8
DIM
100
AcDbLine
 10
430.0266491246966
 20
269.6912541224573
 30
0.0
 11
436.4266491246701
 21
269.6912541224789
 31
0.0
  0
HATCH
  5
260
330
2
100
AcDbEntity
  8
DIM
100
AcDbHatch
 10
0.0
 20
0.0
 30
0.0
210
0.0
220
0.0
230
1.0
  2
ANSI31
 70
     0
 71
     0
 91
       22
 92
        7
 72
     1
 73
     1
 93
        8
 10
368.4266491246071
 20
305.788891917489
 42
0.4142135623693025
 10
367.3242869198596
 20
306.8912541222222
 42
0.0
 10
359.2266491247253
 20
306.8912541222222
 42
0.0
 10
359.2266491247253
 20
297.6912541221675
 42
0.0
 10
359.3242869198812
 20
297.6912541221669
 42
-0.4142135623679103
 10
360.4266491246144
 20
296.5888919174791
 42
0.0
 10
360.4266491246361
 20
294.4912541221289
 42
0.0
 10
368.4266491246559
 20
294.4912541221971
 42
0.0
 97
        0
 92
        7
 72
     1
 73
     1
 93
       10
 10
369.6266491246553
 20
288.8912541221708
 42
0.0
 10
369.5290113294086
 20
288.8912541221704
 42
-0.4142135623742032
 10
368.4266491246753
 20
289.99361632689
 42
0.0
 10
368.4266491246731
 20
290.4912541222008
 42
0.0
 10
360.4266491246775
 20
290.4912541221326
 42
0.0
 10
360.4266491246826
 20
289.9936163269264
 42
-0.4142135623734143
 10
359.3242869199722
 20
288.8912541221931
 42
0.0
 10
359.2266491247253
 20
288.8912541221914
 42
0.0
 10
359.2266491247253
 20
284.4912541222235
 42
0.0
 10
369.6266491246553
 20
284.4912541222234
 42
0.0
 97
        0
 92
        7
 72
     1
 73
     1
 93
       10
 10
392.4266491246619
 20
287.6912541221533
 42
0.0
 10
392.3290113294834
 20
287.6912541221533
 42
-0.4142135623852287
 10
391.2266491247271
 20
288.793616326867
 42
0.0
 10
391.2266491247296
 20
290.4912541222464
 42
0.0
 10
383.2266491246664
 20
290.4912541222462
 42
0.0
 10
383.2266491246664
 20
289.9936163269264
 42
-0.414213562369076
 10
382.1242869199488
 20
288.8912541222159
 42
0.0
 10
382.0266491247319
 20
288.8912541222155
 42
0.0
 10
382.0266491247319
 20
284.4912541221901
 42
0.0
 10
392.4266491246619
 20
284.4912541221901
 42
0.0
 97
        0
 92
        7
 72
     1
 73
     1
 93
       16
 10
358.826649124774
 20
274.0912541221849
 42
0.0
 10
354.0266491246979
 20
274.0912541221849
 42
0.0
 10
354.0266491246975
 20
273.9936163268954
 42
-0.4142135623718988
 10
352.9242869199643
 20
272.8912541221849
 42
0.0
 10
352.8266491247487
 20
272.8912541221849
 42
0.0
 10
352.8266491247487
 20
263.2912541221846
 42
0.0
 10
352.9242869200098
 20
263.2912541221846
 42
-0.4142135623731166
 10
354.0266491247203
 20
262.1888919174742
 42
0.0
 10
354.0266491247203
 20
259.5936163269176
 42
-0.4142135623730951
 10
352.9242869200098
 20
258.4912541222071
 42
0.0
 10
352.8266491247486
 20
258.4912541222071
 42
0.0
 10
352.8266491247487
 20
248.8912541222068
 42
0.0
 10
352.9242869199643
 20
248.8912541222068
 42
-0.4142135623730951
 10
354.0266491246975
 20
247.7888919174735
 42
0.0
 10
354.0266491246975
 20
247.6912541222068
 42
0.0
 10
358.826649124774
 20
247.6912541222068
 42
0.0
 97
        0
 92
        7
 72
     1
 73
     1
 93
       12
 10
348.8266491247523
 20
272.8912541221849
 42
0.0
 10
346.0266491247276
 20
272.8912541221849
 42
0.0
 10
346.0266491247276
 20
263.2912541221846
 42
0.0
 10
343.22664912468
 20
263.2912541221845
 42
0.0
 10
343.22664912468
 20
248.8912541222068
 42
0.0
 10
348.8266491247523
 20
248.8912541222068
 42
0.0
 10
348.8266491247523
 20
258.4912541222071
 42
0.0
 10
347.1290113294608
 20
258.4912541222071
 42
-0.4142135623761564
 10
346.0266491247276
 20
259.5936163269289
 42
0.0
 10
346.0266491247276
 20
262.188891917474
 42
-0.4142135623700745
 10
347.1290113294494
 20
263.2912541221846
 42
0.0
 10
348.8266491247523
 20
263.2912541221846
 42
0.0
 97
        0
 92
       22
 72
     0
 73
     1
 93
        4
 10
346.0266491247276
 20
272.8912541221849
 10
343.2266491246801
 20
272.8912541221849
 10
343.22664912468
 20
263.2912541221846
 10
346.0266491247276
 20
263.2912541221846
 97
        0
 92
        7
 72
     1
 73
     1
 93
       13
 10
358.826649124774
 20
228.3584707948123
 42
0.0
 10
352.8266491247487
 20
228.3584707948123
 42
0.0
 10
352.8266491247487
 20
223.2912541221755
 42
0.0
 10
352.9242869200098
 20
223.2912541221755
 42
-0.4142135623730951
 10
354.0266491247203
 20
222.188891917465
 42
0.0
 10
354.0266491247203
 20
219.5936163269086
 42
-0.4142135623731029
 10
352.9242869200098
 20
218.4912541221981
 42
0.0
 10
352.8266491247486
 20
218.4912541221981
 42
0.0
 10
352.8266491247487
 20
208.8912541222204
 42
0.0
 10
352.9242869200098
 20
208.8912541222204
 42
-0.4142135623716969
 10
354.0266491246975
 20
207.7888919174872
 42
0.0
 10
354.0266491246979
 20
207.6912541221977
 42
0.0
 10
358.826649124774
 20
207.6912541221977
 42
0.0
 97
        0
 92
        7
 72
     1
 73
     1
 93
        7
 10
358.826649124774
 20
234.0912541221758
 42
0.0
 10
354.0266491246975
 20
234.0912541221758
 42
0.0
 10
354.0266491246975
 20
233.9936163268864
 42
-0.4142135623734984
 10
352.9242869199643
 20
232.8912541221759
 42
0.0
 10
352.8266491247487
 20
232.891254122176
 42
0.0
 10
352.8266491247487
 20
228.3584707948123
 42
0.0
 10
358.826649124774
 20
228.3584707948123
 42
0.0
 97
        0
 92
        7
 72
     1
 73
     1
 93
       10
 10
348.8266491247523
 20
232.8912541221809
 42
0.0
 10
343.2266491246801
 20
232.8912541221877
 42
0.0
 10
343.2266491246801
 20
213.5327505429576
 42
0.0
 10
348.8266491247523
 20
213.5327505429576
 42
0.0
 10
348.8266491247523
 20
218.4912541221981
 42
0.0
 10
347.1290113294608
 20
218.4912541221981
 42
-0.4142135623761158
 10
346.0266491247276
 20
219.59361632692
 42
0.0
 10
346.0266491247276
 20
222.188891917465
 42
-0.4142135623700745
 10
347.1290113294494
 20
223.2912541221755
 42
0.0
 10
348.8266491247523
 20
223.2912541221755
 42
0.0
 97
        0
 92
        7
 72
     0
 73
     1
 93
        4
 10
348.8266491247522
 20
213.5327505429576
 10
343.2266491246801
 20
213.5327505429576
 10
343.2266491246801
 20
208.8912541222204
 10
348.8266491247523
 20
208.8912541222204
 97
        0
 92
        7
 72
     1
 73
     1
 93
        9
 10
369.6266491246554
 20
197.2912541222046
 42
0.0
 10
359.2266491247253
 20
197.2912541222046
 42
0.0
 10
359.2266491247253
 20
192.8912541222122
 42
0.0
 10
359.3242869199493
 20
192.8912541222122
 42
-0.41421356237691
 10
360.4266491246826
 20
191.7888919175016
 42
0.0
 10
360.4266491246775
 20
191.2912541222046
 42
0.0
 10
367.2266491249288
 20
191.2912541222046
 42
0.0
 10
367.2266491249311
 20
192.8912541221213
 42
0.0
 10
369.6266491246553
 20
192.8912541221212
 42
0.0
 97
        0
 92
       22
 72
     1
 73
     1
 93
        5
 10
369.5290113294007
 20
192.8912541221213
 42
0.0
 10
367.2266491249311
 20
192.8912541221213
 42
0.0
 10
367.2266491249288
 20
191.2912541222046
 42
0.0
 10
368.4266491246719
 20
191.2912541222046
 42
0.0
 10
368.4266491246753
 20
191.7888919175016
 42
-0.4142135623449621
 97
        0
 92
        7
 72
     1
 73
     1
 93
        7
 10
367.2266491249231
 20
187.2912541222083
 42
0.0
 10
360.4266491246361
 20
187.2912541222082
 42
0.0
 10
360.4266491246144
 20
185.1936163269489
 42
-0.4142135623679103
 10
359.3242869198812
 20
184.0912541222384
 42
0.0
 10
359.2266491247253
 20
184.0912541222379
 42
0.0
 10
359.2266491247253
 20
180.8912541221775
 42
0.0
 10
367.226649124914
 20
180.8912541221775
 42
0.0
 97
        0
 92
        7
 72
     1
 73
     1
 93
        7
 10
368.4266491246443
 20
187.2912541222083
 42
0.0
 10
367.2266491249231
 20
187.2912541222083
 42
0.0
 10
367.226649124914
 20
180.8912541221777
 42
0.0
 10
369.6266491246554
 20
180.8912541221777
 42
0.0
 10
369.6266491246554
 20
184.0912541222839
 42
0.0
 10
369.5290113293859
 20
184.0912541222839
 42
-0.4142135623792078
 10
368.4266491246299
 20
185.1936163270321
 42
0.0
 97
        0
 92
       23
 72
     0
 73
     1
 93
        4
 10
369.6266491246554
 20
180.8912541221777
 10
367.226649124914
 20
180.8912541221777
 10
367.2266491249084
 20
176.8912541221813
 10
369.6266491246553
 20
176.8912541221813
 97
        0
 92
        7
 72
     0
 73
     1
 93
        6
 10
369.6266491246554
 20
176.8912541221813
 10
367.2266491249084
 20
176.8912541221813
 10
367.226649124914
 20
180.8912541221777
 10
359.2266491247253
 20
180.8912541221775
 10
359.2266491247253
 20
174.8912541221831
 10
369.6266491246553
 20
174.8912541221831
 97
        0
 92
        7
 72
     1
 73
     1
 93
       10
 10
406.4266491246601
 20
197.2912541222381
 42
0.0
 10
396.0266491247302
 20
197.291254122238
 42
0.0
 10
396.02664912473
 20
194.0912541220474
 42
0.0
 10
396.1242869199205
 20
194.0912541220474
 42
-0.4142135623748417
 10
397.2266491246537
 20
192.9888919173227
 42
0.0
 10
397.2266491246537
 20
192.8912541221213
 42
0.0
 10
405.2266491246918
 20
192.8912541221213
 42
0.0
 10
405.2266491246918
 20
192.9888919173369
 42
-0.4142135623711926
 10
406.329011329425
 20
194.0912541220474
 42
0.0
 10
406.4266491246601
 20
194.0912541220474
 42
0.0
 97
        0
 92
        7
 72
     0
 73
     1
 93
        4
 10
405.2266491246918
 20
192.8912541221213
 10
397.2266491246537
 20
192.8912541221212
 10
397.2266491246551
 20
191.291254122159
 10
405.2266491246903
 20
191.2912541221592
 97
        0
 92
        7
 72
     0
 73
     1
 93
        4
 10
422.0266491247523
 20
280.0912541222249
 10
417.2266491246274
 20
280.0912541222248
 10
417.2266491246274
 20
269.6912541224142
 10
422.0266491247636
 20
269.6912541224304
 97
        0
 92
        7
 72
     1
 73
     1
 93
        6
 10
423.2266491244479
 20
278.8912541222249
 42
0.0
 10
423.1290113294143
 20
278.8912541222249
 42
-0.4142135623577118
 10
422.0266491247523
 20
279.9936163269425
 42
0.0
 10
422.0266491247635
 20
269.7888919175204
 42
-0.4142135623575466
 10
423.129011329437
 20
270.891254122255
 42
0.0
 10
423.2266491245618
 20
270.8912541222549
 42
0.0
 97
        0
 92
        7
 72
     1
 73
     1
 93
        6
 10
429.2266491246927
 20
278.9335316475193
 42
-0.0695736448108717
 10
428.9242869199632
 20
278.8912541222249
 42
0.0
 10
427.2266491244445
 20
278.8912541222249
 42
0.0
 10
427.2266491245582
 20
270.891254122255
 42
0.0
 10
428.9242869199632
 20
270.891254122255
 42
-0.0695736448102674
 10
429.2266491246928
 20
270.848976596958
 42
0.0
 97
        0
 92
        7
 72
     1
 73
     1
 93
        9
 10
436.4266491246361
 20
279.7888919174671
 42
0.4142135623730951
 10
435.3242869199256
 20
280.8912541222004
 42
0.0
 10
430.0266491246966
 20
280.8912541222004
 42
0.0
 10
430.0266491246966
 20
279.9936163269355
 42
-0.3349861697921424
 10
429.2266491246928
 20
278.9335316475193
 42
0.0
 10
429.2266491246928
 20
270.848976596958
 42
-0.3349861697930459
 10
430.0266491246966
 20
269.7888919175217
 42
0.0
 10
430.0266491246966
 20
269.6912541224573
 42
0.0
 10
436.4266491246701
 20
269.691254122479
 42
0.0
 97
        0
 75
     0
 76
     1
 52
0.0
 41
10.0
 77
     0
 78
     1
 53
45.0
 43
275.1067095542637
 44
0.0
 45
-0.8838834764831842
 46
0.8838834764831844
 79
     0
 47
0.2289565304615561
 98
       22
 10
365.2801757380607
 20
301.007301003772
 10
365.0511283889262
 20
287.9567788397935
 10
388.184871613224
 20
287.0409528650187
 10
357.4925798097329
 20
253.6132989402524
 10
347.1854658293746
 20
265.061125873201
 10
345.1240438698377
 20
268.0375605160457
 10
356.5763918074194
 20
220.4146017340061
 10
357.034485111464
 20
230.0307767174051
 10
347.6435605276437
 20
226.1385152004806
 10
346.9564198744645
 20
211.0273843684322
 10
365.7382690421052
 20
194.542514124569
 10
368.0287397450011
 20
192.2529487379793
 10
362.7606590802547
 20
185.8421660152501
 10
367.7996923958665
 20
185.3842525782102
 10
368.9449263530901
 20
178.5155564184409
 10
368.9449263530901
 20
175.9970352126361
 10
401.240548206298
 20
195.229383380824
 10
401.4695941612083
 20
192.0239920194593
 10
420.4804920722076
 20
274.2193865202551
 10
422.7709613808789
 20
274.906256675815
 10
428.0390406514011
 20
276.0510393691097
 10
431.7037926606549
 20
279.4853874489945
  0
LINE
  5
261
330
2
100
AcDbEntity
  8
DIM
100
AcDbLine
 10
297.2266491247818
 20
180.8912541220355
 30
0.0
 11
292.3530154710645
 21
180.8912541220355
 31
0.0
  0
LINE
  5
262
330
2
100
AcDbEntity
  8
DIM
100
AcDbLine
 10
297.2266491246974
 20
188.8912541221249
 30
0.0
 11
292.3530154710645
 21
188.8912541221249
 31
0.0
  0
LINE
  5
263
330
2
100
AcDbEntity
  8
DIM
100
AcDbLine
 10
293.3530154710646
 20
177.8912541220355
 30
0.0
 11
293.3530154710646
 21
174.8912541220356
 31
0.0
  0
LINE
  5
264
330
2
100
AcDbEntity
  8
DIM
100
AcDbLine
 10
293.3530154710646
 20
191.8912541221249
 30
0.0
 11
293.3530154710646
 21
208.9722065030773
 31
0.0
  0
LINE
  5
265
330
2
100
AcDbEntity
  8
DIM
100
AcDbLine
 10
293.3530154710646
 20
180.8912541220355
 30
0.0
 11
293.3530154710646
 21
188.8912541221249
 31
0.0
  0
SOLID
  5
266
330
2
100
AcDbEntity
  8
DIM
100
AcDbTrace
 10
292.8530154710646
 20
177.8912541220355
 30
0.0
 11
293.8530154710646
 21
177.8912541220355
 31
0.0
 12
293.3530154710646
 22
180.8912541220355
 32
0.0
 13
293.3530154710646
 23
180.8912541220355
 33
0.0
  0
SOLID
  5
267
330
2
100
AcDbEntity
  8
DIM
100
AcDbTrace
 10
292.8530154710646
 20
191.8912541221249
 30
0.0
 11
293.8530154710646
 21
191.8912541221249
 31
0.0
 12
293.3530154710646
 22
188.8912541221249
 32
0.0
 13
293.3530154710646
 23
188.8912541221249
 33
0.0
  0
MTEXT
  5
268
330
2
100
AcDbEntity
  8
DIM
100
AcDbMText
 10
291.2530154710647
 20
201.9317303126011
 30
0.0
 40
2.5
 41
0.0
 46
0.0
 71
     5
 72
     1
  1
\A1;0.0200
  7
SIMPLEX
 11
0.0000000000000001
 21
1.0
 31
0.0
 73
     1
 44
1.0
  0
LINE
  5
269
330
2
100
AcDbEntity
  8
DIM
100
AcDbLine
 10
297.2266491246974
 20
176.8912541221813
 30
0.0
 11
284.0800205889312
 21
176.8912541221813
 31
0.0
  0
LINE
  5
26A
330
2
100
AcDbEntity
  8
DIM
100
AcDbLine
 10
297.2266491246974
 20
192.8912541221213
 30
0.0
 11
284.0800205889312
 21
192.8912541221213
 31
0.0
  0
LINE
  5
26B
330
2
100
AcDbEntity
  8
DIM
100
AcDbLine
 10
285.0800205889312
 20
179.8912541221813
 30
0.0
 11
285.0800205889312
 21
189.8912541221213
 31
0.0
  0
SOLID
  5
26C
330
2
100
AcDbEntity
  8
DIM
100
AcDbTrace
 10
284.5800205889312
 20
179.8912541221813
 30
0.0
 11
285.5800205889312
 21
179.8912541221813
 31
0.0
 12
285.0800205889312
 22
176.8912541221813
 32
0.0
 13
285.0800205889312
 23
176.8912541221813
 33
0.0
  0
SOLID
  5
26D
330
2
100
AcDbEntity
  8
DIM
100
AcDbTrace
 10
284.5800205889312
 20
189.8912541221213
 30
0.0
 11
285.5800205889312
 21
189.8912541221213
 31
0.0
 12
285.0800205889312
 22
192.8912541221213
 32
0.0
 13
285.0800205889312
 23
192.8912541221213
 33
0.0
  0
MTEXT
  5
26E
330
2
100
AcDbEntity
  8
DIM
100
AcDbMText
 10
282.9800205889311
 20
184.8912541221513
 30
0.0
 40
2.5
 41
0.0
 46
0.0
 71
     5
 72
     1
  1
\A1;0.0400
  7
SIMPLEX
 11
0.0000000000000001
 21
1.0
 31
0.0
 73
     1
 44
1.0
  0
LINE
  5
26F
330
2
100
AcDbEntity
  8
DIM
100
AcDbLine
 10
339.7690755255128
 20
267.7147632174383
 30
0.0
 11
393.2266491247483
 21
267.7147632174383
 31
0.0
  0
LINE
  5
270
330
2
100
AcDbEntity
  8
DIM
100
AcDbLine
 10
441.2005264521603
 20
273.678936765035
 30
0.0
 11
393.2266491247483
 21
273.678936765035
 31
0.0
  0
TEXT
  5
271
330
2
100
AcDbEntity
  8
DIM
100
AcDbText
 10
458.5361734217845
 20
266.9912541222453
 30
0.0
 40
1.8
  1
MIN PLATING
  7
SIMPLEX
 72
     2
 11
475.3361734217845
 21
266.9912541222453
 31
0.0
100
AcDbText
  0
TEXT
  5
272
330
2
100
AcDbEntity
  8
DIM
100
AcDbText
 10
458.5361734217845
 20
252.1912541221406
 30
0.0
 40
1.8
  1
MIN PLATING
  7
SIMPLEX
 72
     2
 11
475.3361734217845
 21
252.1912541221406
 31
0.0
100
AcDbText
  0
TEXT
  5
273
330
2
100
AcDbEntity
  8
DIM
100
AcDbText
 10
458.5361734217845
 20
181.3912541221777
 30
0.0
 40
1.8
  1
MIN PLATING
  7
SIMPLEX
 72
     2
 11
475.3361734217845
 21
181.3912541221777
 31
0.0
100
AcDbText
  0
LEADER
  5
274
330
2
100
AcDbEntity
  8
DIM
100
AcDbLeader
  3
Standard
 73
     0
 75
     1
 40
2.5
 41
14.4047619047619
 76
     3
 10
418.8315051842852
 20
288.195288670165
 30
0.0
 10
411.3220042639572
 20
279.5746767291855
 30
0.0
 10
411.1420042639572
 20
279.5746767291855
 30
0.0
340
275
213
0.0
223
1.25
233
0.0
1001
ACAD
1000
DSTYLE
1002
{
1070
    41
1040
3.0
1070
    42
1040
1.0
1070
    43
1040
10.0
1070
    44
1040
1.0
1070
    46
1040
1.25
1070
    73
1070
     0
1070
    74
1070
     0
1070
    77
1070
     0
1070
    78
1070
     1
1070
   140
1040
2.5
1070
   141
1040
0.0
1070
   145
1040
2.0
1070
   147
1040
0.85
1070
   172
1070
     1
1070
   176
1070
   256
1070
   177
1070
   256
1070
   178
1070
   256
1070
   289
1070
     0
1070
   340
1005
55
1070
   371
1070
    -1
1070
   372
1070
    -1
1002
}
  0
MTEXT
  5
275
102
{ACAD_REACTORS
330
274
102
}
330
2
100
AcDbEntity
  8
DIM
100
AcDbMText
 10
410.2920042639571
 20
278.3246767291855
 30
0.0
 40
2.5
 41
0.0
 46
0.0
 71
     9
 72
     1
  1
R0.0150
  7
SIMPLEX
 73
     1
 44
1.0
  0
TEXT
  5
276
330
2
100
AcDbEntity
  8
DIM
100
AcDbText
 10
399.7792378363739
 20
282.4589099865576
 30
0.0
 40
1.8
  1
(2X)
  7
SIMPLEX
100
AcDbText
  0
TEXT
  5
277
330
2
100
AcDbEntity
  8
DIM
100
AcDbText
 10
390.7266491247101
 20
329.6740447240727
 30
0.0
 40
1.8
  1
MAX PLATING
 50
90.0
  7
SIMPLEX
 72
     2
 11
390.7266491247101
 21
347.5026161526441
 31
0.0
100
AcDbText
  0
LINE
  5
278
330
2
100
AcDbEntity
  8
DIM
100
AcDbLine
 10
402.1483018946896
 20
361.6912541222145
 30
0.0
 11
402.1483018946896
 21
365.8967107373463
 31
0.0
  0
LINE
  5
279
330
2
100
AcDbEntity
  8
DIM
100
AcDbLine
 10
414.4488243215199
 20
361.6912541222145
 30
0.0
 11
414.4488243215199
 21
365.8967107373463
 31
0.0
  0
LINE
  5
27A
330
2
100
AcDbEntity
  8
DIM
100
AcDbLine
 10
399.1483018946897
 20
364.8967107373463
 30
0.0
 11
396.1483018946897
 21
364.8967107373463
 31
0.0
  0
LINE
  5
27B
330
2
100
AcDbEntity
  8
DIM
100
AcDbLine
 10
417.4488243215201
 20
364.8967107373463
 30
0.0
 11
434.5297767024724
 21
364.8967107373463
 31
0.0
  0
LINE
  5
27C
330
2
100
AcDbEntity
  8
DIM
100
AcDbLine
 10
402.1483018946896
 20
364.8967107373463
 30
0.0
 11
414.4488243215199
 21
364.8967107373463
 31
0.0
  0
SOLID
  5
27D
330
2
100
AcDbEntity
  8
DIM
100
AcDbTrace
 10
399.1483018946897
 20
365.3967107373463
 30
0.0
 11
399.1483018946897
 21
364.3967107373463
 31
0.0
 12
402.1483018946896
 22
364.8967107373463
 32
0.0
 13
402.1483018946896
 23
364.8967107373463
 33
0.0
  0
SOLID
  5
27E
330
2
100
AcDbEntity
  8
DIM
100
AcDbTrace
 10
417.4488243215201
 20
365.3967107373463
 30
0.0
 11
417.4488243215201
 21
364.3967107373463
 31
0.0
 12
414.4488243215199
 22
364.8967107373463
 32
0.0
 13
414.4488243215199
 23
364.8967107373463
 33
0.0
  0
MTEXT
  5
27F
330
2
100
AcDbEntity
  8
DIM
100
AcDbMText
 10
427.4893005119961
 20
366.9967107373464
 30
0.0
 40
2.5
 41
0.0
 46
0.0
 71
     5
 72
     1
  1
\A1;0.0550
  7
SIMPLEX
 73
     1
 44
1.0
  0
TEXT
  5
280
330
2
100
AcDbEntity
  8
DIM
100
AcDbText
 10
417.5272214582741
 20
334.4740447240726
 30
0.0
 40
1.8
  1
COIN LINE
 50
90.0
  7
SIMPLEX
 72
     2
 11
417.5272214582741
 21
347.5026161526439
 31
0.0
100
AcDbText
  0
LINE
  5
281
330
2
100
AcDbEntity
  8
DIM
100
AcDbLine
 10
375.3778423980639
 20
116.4912541221444
 30
0.0
 11
375.3778423980639
 21
111.8239742194682
 31
0.0
  0
LINE
  5
282
330
2
100
AcDbEntity
  8
DIM
100
AcDbLine
 10
391.20506605112
 20
116.4912541221444
 30
0.0
 11
391.20506605112
 21
111.8239742194682
 31
0.0
  0
LINE
  5
283
330
2
100
AcDbEntity
  8
DIM
100
AcDbLine
 10
378.3778423980639
 20
112.8239742194682
 30
0.0
 11
388.2050660511199
 21
112.8239742194682
 31
0.0
  0
SOLID
  5
284
330
2
100
AcDbEntity
  8
DIM
100
AcDbTrace
 10
378.3778423980639
 20
113.3239742194682
 30
0.0
 11
378.3778423980639
 21
112.3239742194682
 31
0.0
 12
375.3778423980639
 22
112.8239742194682
 32
0.0
 13
375.3778423980639
 23
112.8239742194682
 33
0.0
  0
SOLID
  5
285
330
2
100
AcDbEntity
  8
DIM
100
AcDbTrace
 10
388.2050660511199
 20
113.3239742194682
 30
0.0
 11
388.2050660511199
 21
112.3239742194682
 31
0.0
 12
391.20506605112
 22
112.8239742194682
 32
0.0
 13
391.20506605112
 23
112.8239742194682
 33
0.0
  0
MTEXT
  5
286
330
2
100
AcDbEntity
  8
DIM
100
AcDbMText
 10
383.2914542245919
 20
114.9239742194682
 30
0.0
 40
2.5
 41
0.0
 46
0.0
 71
     5
 72
     1
  1
\A1;0.0480
  7
SIMPLEX
 73
     1
 44
1.0
  0
TEXT
  5
287
330
2
100
AcDbEntity
  8
DIM
100
AcDbText
 10
375.1930979202257
 20
110.3083727928595
 30
0.0
 40
1.8
  1
MIN PLATING
  7
SIMPLEX
100
AcDbText
  0
TEXT
  5
288
330
2
100
AcDbEntity
  8
DIM
100
AcDbText
 10
370.7266491246319
 20
131.0702917133912
 30
0.0
 40
1.8
  1
COIN LINE
 50
90.0
  7
SIMPLEX
100
AcDbText
  0
TEXT
  5
289
330
2
100
AcDbEntity
  8
DIM
100
AcDbText
 10
435.9266491246817
 20
131.0702917133912
 30
0.0
 40
1.8
  1
COIN LINE
 50
90.0
  7
SIMPLEX
100
AcDbText
  0
LINE
  5
28A
330
2
100
AcDbEntity
  8
DIM
100
AcDbLine
 10
425.577633133787
 20
116.4912541221444
 30
0.0
 11
425.577633133787
 21
111.8239742194682
 31
0.0
  0
LINE
  5
28B
330
2
100
AcDbEntity
  8
DIM
100
AcDbLine
 10
432.7776331335711
 20
116.4912541221444
 30
0.0
 11
432.7776331335711
 21
111.8239742194682
 31
0.0
  0
LINE
  5
28C
330
2
100
AcDbEntity
  8
DIM
100
AcDbLine
 10
422.5776331337868
 20
112.8239742194682
 30
0.0
 11
419.577633133787
 21
112.8239742194682
 31
0.0
  0
LINE
  5
28D
330
2
100
AcDbEntity
  8
DIM
100
AcDbLine
 10
435.7776331335712
 20
112.8239742194682
 30
0.0
 11
452.8585855145236
 21
112.8239742194682
 31
0.0
  0
LINE
  5
28E
330
2
100
AcDbEntity
  8
DIM
100
AcDbLine
 10
425.577633133787
 20
112.8239742194682
 30
0.0
 11
432.7776331335711
 21
112.8239742194682
 31
0.0
  0
SOLID
  5
28F
330
2
100
AcDbEntity
  8
DIM
100
AcDbTrace
 10
422.5776331337868
 20
113.3239742194682
 30
0.0
 11
422.5776331337868
 21
112.3239742194682
 31
0.0
 12
425.577633133787
 22
112.8239742194682
 32
0.0
 13
425.577633133787
 23
112.8239742194682
 33
0.0
  0
SOLID
  5
290
330
2
100
AcDbEntity
  8
DIM
100
AcDbTrace
 10
435.7776331335712
 20
113.3239742194682
 30
0.0
 11
435.7776331335712
 21
112.3239742194682
 31
0.0
 12
432.7776331335711
 22
112.8239742194682
 32
0.0
 13
432.7776331335711
 23
112.8239742194682
 33
0.0
  0
MTEXT
  5
291
330
2
100
AcDbEntity
  8
DIM
100
AcDbMText
 10
446.3619739122259
 20
114.9239742194682
 30
0.0
 40
2.5
 41
0.0
 46
0.0
 71
     5
 72
     1
  1
0.0180
  7
SIMPLEX
 73
     1
 44
1.0
  0
TEXT
  5
292
330
2
100
AcDbEntity
  8
DIM
100
AcDbText
 10
438.3828102065232
 20
110.3083727928595
 30
0.0
 40
1.8
  1
MIN PLATING
  7
SIMPLEX
100
AcDbText
  0
LINE
  5
293
330
2
100
AcDbEntity
  8
DIM
100
AcDbLine
 10
422.0266491247039
 20
116.4912541221444
 30
0.0
 11
422.0266491247039
 21
105.0101716274658
 31
0.0
  0
LINE
  5
294
330
2
100
AcDbEntity
  8
DIM
100
AcDbLine
 10
443.8119307508737
 20
116.4912541221444
 30
0.0
 11
443.8119307508737
 21
105.0101716274658
 31
0.0
  0
LINE
  5
295
330
2
100
AcDbEntity
  8
DIM
100
AcDbLine
 10
425.0266491247039
 20
106.0101716274658
 30
0.0
 11
440.8119307508739
 21
106.0101716274658
 31
0.0
  0
SOLID
  5
296
330
2
100
AcDbEntity
  8
DIM
100
AcDbTrace
 10
425.0266491247039
 20
106.5101716274658
 30
0.0
 11
425.0266491247039
 21
105.5101716274658
 31
0.0
 12
422.0266491247039
 22
106.0101716274658
 32
0.0
 13
422.0266491247039
 23
106.0101716274658
 33
0.0
  0
SOLID
  5
297
330
2
100
AcDbEntity
  8
DIM
100
AcDbTrace
 10
440.8119307508739
 20
106.5101716274658
 30
0.0
 11
440.8119307508739
 21
105.5101716274658
 31
0.0
 12
443.8119307508737
 22
106.0101716274658
 32
0.0
 13
443.8119307508737
 23
106.0101716274658
 33
0.0
  0
MTEXT
  5
298
330
2
100
AcDbEntity
  8
DIM
100
AcDbMText
 10
432.9192899377888
 20
108.1101716274658
 30
0.0
 40
2.5
 41
0.0
 46
0.0
 71
     5
 72
     1
  1
0.0430
  7
SIMPLEX
 73
     1
 44
1.0
  0
TEXT
  5
299
330
2
100
AcDbEntity
  8
DIM
100
AcDbText
 10
424.4598438454557
 20
103.3496382319629
 30
0.0
 40
1.8
  1
MAX PLATING
  7
SIMPLEX
100
AcDbText
  0
HATCH
  5
29A
330
2
100
AcDbEntity
  8
COIN-LINE
100
AcDbHatch
 10
0.0
 20
0.0
 30
0.0
210
0.0
220
0.0
230
1.0
  2
DOTS
 70
     0
 71
     1
 91
        3
 92
        7
 72
     0
 73
     1
 93
        4
 10
399.2266491247428
 20
300.891254122156
 10
399.2266491247428
 20
292.8912541221213
 10
421.2266491247228
 20
292.8912541221213
 10
421.2266491247
 20
300.8912541221186
 97
        1
330
AA
 92
        7
 72
     0
 73
     1
 93
        4
 10
423.226649124698
 20
300.8912541221152
 10
421.2266491247
 20
300.8912541221186
 10
421.2266491247228
 20
292.8912541221213
 10
423.2266491246981
 20
292.8912541221213
 97
        1
330
AA
 92
        7
 72
     1
 73
     1
 93
        5
 10
396.0266491247048
 20
292.8912541221212
 42
0.0
 10
399.2266491247428
 20
292.8912541221212
 42
0.0
 10
399.2266491247428
 20
300.891254122156
 42
0.0
 10
397.1290113294381
 20
300.8912541221595
 42
0.4142135623735708
 10
396.0266491247048
 20
299.7888919174489
 42
0.0
 97
        1
330
AA
 75
     0
 76
     1
 52
0.0
 41
10.0
 77
     0
 78
     1
 53
0.0
 43
275.1067095542637
 44
0.0
 45
0.3125
 46
0.625
 79
     2
 49
0.0
 49
-0.625
 47
0.0724710652632934
 98
        3
 10
412.1600556871668
 20
298.4269741731582
 10
422.6000099637101
 20
296.325313138198
 10
397.5876178248045
 20
296.6151977599978
  0
HATCH
  5
29B
330
2
100
AcDbEntity
  8
COIN-LINE
100
AcDbHatch
 10
0.0
 20
0.0
 30
0.0
210
0.0
220
0.0
230
1.0
  2
DOTS
 70
     0
 71
     1
 91
        2
 92
        7
 72
     1
 73
     1
 93
        6
 10
436.426649124681
 20
266.4912541222454
 42
0.0
 10
436.4266491246743
 20
268.4912541222435
 42
0.0
 10
430.0266491246966
 20
268.4912541222435
 42
0.0
 10
430.0266491246966
 20
267.7408950839141
 42
-0.2236222439475129
 10
429.6266491246916
 20
266.8912541222239
 42
0.1154768269124507
 10
429.3225196821785
 20
266.4912541222453
 42
0.0
 97
        1
330
AA
 92
        7
 72
     1
 73
     1
 93
        6
 10
436.426649124681
 20
266.4912541222453
 42
0.0
 10
429.3225196821785
 20
266.4912541222453
 42
0.1054230576780004
 10
429.2266491246928
 20
266.0416131605804
 42
0.0
 10
429.2266491247609
 20
251.6912541221633
 42
0.0
 10
435.3242869199938
 20
251.6912541221633
 42
0.4142135623728573
 10
436.4266491247271
 20
252.7936163268966
 42
0.0
 97
        1
330
AA
 75
     0
 76
     1
 52
0.0
 41
10.0
 77
     0
 78
     1
 53
0.0
 43
275.1067095542637
 44
0.0
 45
0.3125
 46
0.625
 79
     2
 49
0.0
 49
-0.625
 47
0.0724710656400129
 98
        2
 10
433.9213565869461
 20
267.345545437465
 10
433.4863586082754
 20
262.200099920479
  0
HATCH
  5
29C
330
2
100
AcDbEntity
  8
COIN-LINE
100
AcDbHatch
 10
0.0
 20
0.0
 30
0.0
210
0.0
220
0.0
230
1.0
  2
DOTS
 70
     0
 71
     0
 91
        3
 92
        7
 72
     1
 73
     1
 93
       13
 10
434.4266491247061
 20
242.9888919174734
 42
0.4142135623721436
 10
433.324286919973
 20
244.0912541222066
 42
0.0
 10
427.22664912474
 20
244.0912541222066
 42
0.0
 10
427.2266491249673
 20
204.8912541221104
 42
0.0
 10
433.3242869199275
 20
204.8912541221104
 42
0.4142135623717869
 10
434.4266491246608
 20
205.9936163268209
 42
0.0
 10
434.4266491246608
 20
207.7888919174417
 42
0.0
 10
434.4266491246773
 20
218.491254122198
 42
0.0
 10
433.1290113294279
 20
218.4912541221981
 42
-0.4142135623730951
 10
432.0266491247174
 20
219.5936163269313
 42
0.0
 10
432.0266491247174
 20
222.188891917465
 42
-0.4142135623730951
 10
433.1290113294279
 20
223.2912541221755
 42
0.0
 10
434.4266491247744
 20
223.2912541221755
 42
0.0
 97
        0
 92
        7
 72
     1
 73
     1
 93
        6
 10
436.4266491247271
 20
232.8912541222213
 42
0.0
 10
435.5290113295076
 20
232.8912541222214
 42
-0.4142135623762064
 10
434.4266491247573
 20
233.9936163269564
 42
0.0
 10
434.4266491247744
 20
223.2912541221755
 42
0.0
 10
435.7242869199843
 20
223.2912541221755
 42
-0.1744339601143868
 10
436.4266491247271
 20
223.0385328791335
 42
0.0
 97
        0
 92
        7
 72
     1
 73
     1
 93
        6
 10
436.4266491247043
 20
218.7439753652272
 42
-0.1744339601060949
 10
435.7242869199843
 20
218.4912541221981
 42
0.0
 10
434.4266491247823
 20
218.491254122198
 42
0.0
 10
434.4266491247995
 20
207.7888919174346
 42
-0.4142135623352774
 10
435.5290113293939
 20
208.891254122175
 42
0.0
 10
436.4266491247043
 20
208.8912541221774
 42
0.0
 97
        0
 75
     0
 76
     1
 52
0.0
 41
10.0
 77
     0
 78
     1
 53
0.0
 43
275.1067095542637
 44
0.0
 45
0.3125
 46
0.625
 79
     2
 49
0.0
 49
-0.625
 47
0.1304358414282406
 98
        4
 10
432.1861482558047
 20
191.5516492361741
 10
433.0995589633312
 20
237.8563737014606
 10
435.5788187889698
 20
228.0736852314864
 10
435.3178450978048
 20
215.9431519244123
  0
HATCH
  5
29D
330
2
100
AcDbEntity
  8
COIN-LINE
100
AcDbHatch
 10
0.0
 20
0.0
 30
0.0
210
0.0
220
0.0
230
1.0
  2
DOTS
 70
     0
 71
     0
 91
        1
 92
        7
 72
     1
 73
     1
 93
       13
 10
392.4266491246762
 20
188.8912541222159
 42
0.0
 10
374.3290113294088
 20
188.8912541222159
 42
0.4142135623727798
 10
373.2266491246755
 20
187.7888919175006
 42
0.0
 10
373.2266491246528
 20
185.1936163269944
 42
-0.4142135623721441
 10
372.1242869199386
 20
184.0912541222839
 42
0.0
 10
371.2266491246546
 20
184.0912541222839
 42
0.0
 10
371.2266491246319
 20
174.8912541221831
 42
0.0
 10
372.7700357487301
 20
174.8912541221831
 42
0.1989123673778318
 10
373.5495235390339
 20
175.2141285366325
 42
0.0
 10
378.9037747101283
 20
180.5683797077041
 42
-0.1989123673758998
 10
379.6832625003997
 20
180.8912541221322
 42
0.0
 10
391.3242869199658
 20
180.8912541221322
 42
0.4142135623700745
 10
392.4266491246763
 20
181.9936163268541
 42
0.0
 97
        0
 75
     0
 76
     1
 52
0.0
 41
10.0
 77
     0
 78
     1
 53
0.0
 43
275.1067095542637
 44
0.0
 45
0.3125
 46
0.625
 79
     2
 49
0.0
 49
-0.625
 47
0.0396120207433336
 98
        1
 10
382.2999178053212
 20
185.9964030913802
  0
HATCH
  5
29E
330
2
100
AcDbEntity
  8
COIN-LINE
100
AcDbHatch
 10
0.0
 20
0.0
 30
0.0
210
0.0
220
0.0
230
1.0
  2
DOTS
 70
     0
 71
     0
 91
        1
 92
        7
 72
     1
 73
     1
 93
       16
 10
432.0266491247174
 20
186.3888919174475
 42
-0.4142135623791364
 10
433.1290113294508
 20
187.4912541222035
 42
0.0
 10
435.7242869199843
 20
187.4912541222035
 42
-0.174433960104668
 10
436.4266491247043
 20
187.2385328791681
 42
0.0
 10
436.4266491247043
 20
192.8912541222122
 42
0.0
 10
435.5290113293939
 20
192.8912541222122
 42
-0.4142135623730949
 10
434.4266491246379
 20
193.9936163269227
 42
0.0
 10
434.4266491246379
 20
197.7888919174053
 42
0.4142135623726194
 10
433.3242869199275
 20
198.8912541221158
 42
0.0
 10
427.2266491250583
 20
198.8912541221158
 42
0.0
 10
427.2266491250583
 20
177.2912541221946
 42
0.0
 10
436.4266491246817
 20
177.291254122203
 42
0.0
 10
436.4266491246817
 20
182.9439753652138
 42
-0.1744339600991866
 10
435.7242869199843
 20
182.6912541222033
 42
0.0
 10
433.1290113294279
 20
182.6912541222033
 42
-0.4142135623700745
 10
432.0266491247174
 20
183.7936163269252
 42
0.0
 97
        0
 75
     0
 76
     1
 52
0.0
 41
10.0
 77
     0
 78
     1
 53
0.0
 43
275.1067095542637
 44
0.0
 45
0.3125
 46
0.625
 79
     2
 49
0.0
 49
-0.625
 47
0.0693807672814271
 98
        1
 10
431.94810955422
 20
184.5412765910513
  0
LINE
  5
29F
330
2
100
AcDbEntity
  8
DIM
100
AcDbLine
 10
424.2266491248
 20
213.3866890471776
 30
0.0
 11
421.2266491248
 21
213.3866890471776
 31
0.0
  0
LINE
  5
2A0
330
2
100
AcDbEntity
  8
DIM
100
AcDbLine
 10
439.4266491247043
 20
213.3866890471776
 30
0.0
 11
457.8831362196519
 21
213.3866890471776
 31
0.0
  0
LINE
  5
2A1
330
2
100
AcDbEntity
  8
DIM
100
AcDbLine
 10
427.2266491248
 20
213.3866890471776
 30
0.0
 11
436.4266491247043
 21
213.3866890471776
 31
0.0
  0
SOLID
  5
2A2
330
2
100
AcDbEntity
  8
DIM
100
AcDbTrace
 10
424.2266491248
 20
213.8866890471776
 30
0.0
 11
424.2266491248
 21
212.8866890471776
 31
0.0
 12
427.2266491248
 22
213.3866890471776
 32
0.0
 13
427.2266491248
 23
213.3866890471776
 33
0.0
  0
SOLID
  5
2A3
330
2
100
AcDbEntity
  8
DIM
100
AcDbTrace
 10
439.4266491247043
 20
213.8866890471776
 30
0.0
 11
439.4266491247043
 21
212.8866890471776
 31
0.0
 12
436.4266491247043
 22
213.3866890471776
 32
0.0
 13
436.4266491247043
 23
213.3866890471776
 33
0.0
  0
MTEXT
  5
2A4
330
2
100
AcDbEntity
  8
DIM
100
AcDbMText
 10
450.8426600291758
 20
215.4866890471776
 30
0.0
 40
2.5
 41
0.0
 46
0.0
 71
     5
 72
     1
  1
\A1;0.0200
  7
SIMPLEX
 73
     1
 44
1.0
  0
LINE
  5
2A5
330
2
100
AcDbEntity
  8
DIM
100
AcDbLine
 10
374.2266491246319
 20
170.2263435053204
 30
0.0
 11
389.4266491247218
 21
170.2263435053204
 31
0.0
  0
SOLID
  5
2A6
330
2
100
AcDbEntity
  8
DIM
100
AcDbTrace
 10
374.2266491246319
 20
170.7263435053204
 30
0.0
 11
374.2266491246319
 21
169.7263435053204
 31
0.0
 12
371.2266491246319
 22
170.2263435053204
 32
0.0
 13
371.2266491246319
 23
170.2263435053204
 33
0.0
  0
SOLID
  5
2A7
330
2
100
AcDbEntity
  8
DIM
100
AcDbTrace
 10
389.4266491247218
 20
170.7263435053204
 30
0.0
 11
389.4266491247218
 21
169.7263435053204
 31
0.0
 12
392.4266491247217
 22
170.2263435053204
 32
0.0
 13
392.4266491247217
 23
170.2263435053204
 33
0.0
  0
MTEXT
  5
2A8
330
2
100
AcDbEntity
  8
DIM
100
AcDbMText
 10
381.8266491246768
 20
172.3263435053204
 30
0.0
 40
2.5
 41
0.0
 46
0.0
 71
     5
 72
     1
  1
\A1;0.0500
  7
SIMPLEX
 73
     1
 44
1.0
  0
TEXT
  5
2A9
330
2
100
AcDbEntity
  8
DIM
100
AcDbText
 10
371.5621470258082
 20
167.6116174895335
 30
0.0
 40
1.8
  1
MIN COIN LENGTH
  7
SIMPLEX
100
AcDbText
  0
LINE
  5
2AA
330
2
100
AcDbEntity
  8
DIM
100
AcDbLine
 10
399.0266491247048
 20
309.0346813111373
 30
0.0
 11
420.2266491246981
 21
309.0346813111373
 31
0.0
  0
SOLID
  5
2AB
330
2
100
AcDbEntity
  8
DIM
100
AcDbTrace
 10
399.0266491247048
 20
309.5346813111373
 30
0.0
 11
399.0266491247048
 21
308.5346813111373
 31
0.0
 12
396.0266491247048
 22
309.0346813111373
 32
0.0
 13
396.0266491247048
 23
309.0346813111373
 33
0.0
  0
SOLID
  5
2AC
330
2
100
AcDbEntity
  8
DIM
100
AcDbTrace
 10
420.2266491246981
 20
309.5346813111373
 30
0.0
 11
420.2266491246981
 21
308.5346813111373
 31
0.0
 12
423.2266491246981
 22
309.0346813111373
 32
0.0
 13
423.2266491246981
 23
309.0346813111373
 33
0.0
  0
MTEXT
  5
2AD
330
2
100
AcDbEntity
  8
DIM
100
AcDbMText
 10
409.6266491247015
 20
311.1346813111373
 30
0.0
 40
2.5
 41
0.0
 46
0.0
 71
     5
 72
     1
  1
\A1;0.0650
  7
SIMPLEX
 73
     1
 44
1.0
  0
TEXT
  5
2AE
330
2
100
AcDbEntity
  8
DIM
100
AcDbText
 10
396.9403320589008
 20
306.1053211840524
 30
0.0
 40
1.8
  1
MIN COIN LENGTH
  7
SIMPLEX
100
AcDbText
  0
LINE
  5
2AF
330
2
100
AcDbEntity
  8
DIM
100
AcDbLine
 10
516.5554693346535
 20
290.4912541222462
 30
0.0
 11
508.8303219334423
 21
290.4912541222462
 31
0.0
  0
LINE
  5
2B0
330
2
100
AcDbEntity
  8
DIM
100
AcDbLine
 10
516.5554693346535
 20
191.2912541221886
 30
0.0
 11
508.8303219334423
 21
191.2912541221886
 31
0.0
  0
LINE
  5
2B1
330
2
100
AcDbEntity
  8
DIM
100
AcDbLine
 10
509.8303219334423
 20
287.4912541222462
 30
0.0
 11
509.8303219334423
 21
194.2912541221886
 31
0.0
  0
SOLID
  5
2B2
330
2
100
AcDbEntity
  8
DIM
100
AcDbTrace
 10
509.3303219334423
 20
287.4912541222462
 30
0.0
 11
510.3303219334422
 21
287.4912541222462
 31
0.0
 12
509.8303219334423
 22
290.4912541222462
 32
0.0
 13
509.8303219334423
 23
290.4912541222462
 33
0.0
  0
SOLID
  5
2B3
330
2
100
AcDbEntity
  8
DIM
100
AcDbTrace
 10
509.3303219334423
 20
194.2912541221886
 30
0.0
 11
510.3303219334422
 21
194.2912541221886
 31
0.0
 12
509.8303219334423
 22
191.2912541221886
 32
0.0
 13
509.8303219334423
 23
191.2912541221886
 33
0.0
  0
MTEXT
  5
2B4
330
2
100
AcDbEntity
  8
DIM
100
AcDbMText
 10
507.7303219334423
 20
240.8912541222175
 30
0.0
 40
2.5
 41
0.0
 46
0.0
 71
     5
 72
     1
  1
\A1;0.2480
  7
SIMPLEX
 11
0.0000000000000001
 21
1.0
 31
0.0
 73
     1
 44
1.0
  0
ARC
  5
2B5
330
2
100
AcDbEntity
  8
DIM
100
AcDbCircle
 10
349.2266491246998
 20
288.8912541222158
 30
0.0
 40
4.79049033554061
100
AcDbArc
 50
347.010487449366
 51
23.50524372475464
  0
ARC
  5
2B6
330
2
100
AcDbEntity
  8
DIM
100
AcDbCircle
 10
349.2266491246998
 20
288.8912541222158
 30
0.0
 40
4.79049033554061
100
AcDbArc
 50
126.4947562753885
 51
162.9895125507757
  0
ARC
  5
2B7
330
2
100
AcDbEntity
  8
DIM
100
AcDbCircle
 10
349.2266491246998
 20
288.8912541222158
 30
0.0
 40
4.79049033554061
100
AcDbArc
 50
60.00000000014279
 51
90.0
  0
SOLID
  5
2B8
330
2
100
AcDbEntity
  8
DIM
100
AcDbTrace
 10
353.2466282556994
 20
290.4689018365473
 30
0.0
 11
353.9926551591469
 21
291.1348176415351
 31
0.0
 12
351.6218942924597
 22
293.0399404493837
 32
0.0
 13
351.6218942924597
 23
293.0399404493837
 33
0.0
  0
SOLID
  5
2B9
330
2
100
AcDbEntity
  8
DIM
100
AcDbTrace
 10
346.2209485839276
 20
293.2172401421665
 30
0.0
 11
346.5340689317282
 21
292.2675266865426
 31
0.0
 12
349.2266491246998
 22
293.6817444577565
 32
0.0
 13
349.2266491246998
 23
293.6817444577565
 33
0.0
  0
TEXT
  5
2BA
330
2
100
AcDbEntity
  8
DIM
100
AcDbText
 10
347.5989316153559
 20
284.8146202692824
 30
0.0
 40
2.5
  1
30%%d
  7
SIMPLEX
100
AcDbText
  0
TEXT
  5
2BB
330
2
100
AcDbEntity
  8
DIM
100
AcDbText
 10
347.579462270985
 20
281.1661835524414
 30
0.0
 40
1.8
  1
TYP.
  7
SIMPLEX
100
AcDbText
  0
LINE
  5
2BC
330
2
100
AcDbEntity
  8
DIM
100
AcDbLine
 10
392.5290113293645
 20
194.0912541220474
 30
0.0
 11
387.8493533332319
 21
194.0912541220474
 31
0.0
  0
LINE
  5
2BD
330
2
100
AcDbEntity
  8
DIM
100
AcDbLine
 10
388.8493533332319
 20
189.8912541222122
 30
0.0
 11
388.8493533332319
 21
186.8912541222122
 31
0.0
  0
LINE
  5
2BE
330
2
100
AcDbEntity
  8
DIM
100
AcDbLine
 10
388.8493533332319
 20
197.0912541220474
 30
0.0
 11
388.8493533332319
 21
214.1722065029998
 31
0.0
  0
LINE
  5
2BF
330
2
100
AcDbEntity
  8
DIM
100
AcDbLine
 10
388.8493533332319
 20
192.8912541222122
 30
0.0
 11
388.8493533332319
 21
194.0912541220474
 31
0.0
  0
SOLID
  5
2C0
330
2
100
AcDbEntity
  8
DIM
100
AcDbTrace
 10
388.3493533332319
 20
189.8912541222122
 30
0.0
 11
389.3493533332319
 21
189.8912541222122
 31
0.0
 12
388.8493533332319
 22
192.8912541222122
 32
0.0
 13
388.8493533332319
 23
192.8912541222122
 33
0.0
  0
SOLID
  5
2C1
330
2
100
AcDbEntity
  8
DIM
100
AcDbTrace
 10
388.3493533332319
 20
197.0912541220474
 30
0.0
 11
389.3493533332319
 21
197.0912541220474
 31
0.0
 12
388.8493533332319
 22
194.0912541220474
 32
0.0
 13
388.8493533332319
 23
194.0912541220474
 33
0.0
  0
MTEXT
  5
2C2
330
2
100
AcDbEntity
  8
DIM
100
AcDbMText
 10
386.7493533332319
 20
207.1317303125236
 30
0.0
 40
2.5
 41
0.0
 46
0.0
 71
     5
 72
     1
  1
\A1;0.0030
  7
SIMPLEX
 11
0.0000000000000001
 21
1.0
 31
0.0
 73
     1
 44
1.0
  0
TEXT
  5
2C3
330
2
100
AcDbEntity
  8
DIM
100
AcDbText
 10
391.4445322957868
 20
205.6828785067357
 30
0.0
 40
1.8
  1
TYP.
 50
90.0
  7
SIMPLEX
100
AcDbText
  0
LINE
  5
2C4
330
2
100
AcDbEntity
  8
DIM
100
AcDbLine
 10
430.0266491246966
 20
266.7408950839141
 30
0.0
 11
430.0266491246966
 21
262.9228703344745
 31
0.0
  0
LINE
  5
2C5
330
2
100
AcDbEntity
  8
DIM
100
AcDbLine
 10
433.0266491246966
 20
263.9228703344745
 30
0.0
 11
436.0266491246966
 21
263.9228703344745
 31
0.0
  0
LINE
  5
2C6
330
2
100
AcDbEntity
  8
DIM
100
AcDbLine
 10
426.2266491246927
 20
263.9228703344745
 30
0.0
 11
410.7636006199669
 21
263.9228703344745
 31
0.0
  0
LINE
  5
2C7
330
2
100
AcDbEntity
  8
DIM
100
AcDbLine
 10
430.0266491246966
 20
263.9228703344745
 30
0.0
 11
429.2266491246928
 21
263.9228703344745
 31
0.0
  0
SOLID
  5
2C8
330
2
100
AcDbEntity
  8
DIM
100
AcDbTrace
 10
433.0266491246966
 20
264.4228703344745
 30
0.0
 11
433.0266491246966
 21
263.4228703344745
 31
0.0
 12
430.0266491246966
 22
263.9228703344745
 32
0.0
 13
430.0266491246966
 23
263.9228703344745
 33
0.0
  0
SOLID
  5
2C9
330
2
100
AcDbEntity
  8
DIM
100
AcDbTrace
 10
426.2266491246927
 20
264.4228703344745
 30
0.0
 11
426.2266491246927
 21
263.4228703344745
 31
0.0
 12
429.2266491246928
 22
263.9228703344745
 32
0.0
 13
429.2266491246928
 23
263.9228703344745
 33
0.0
  0
MTEXT
  5
2CA
330
2
100
AcDbEntity
  8
DIM
100
AcDbMText
 10
417.804076810443
 20
266.0228703344746
 30
0.0
 40
2.5
 41
0.0
 46
0.0
 71
     5
 72
     1
  1
\A1;0.0020
  7
SIMPLEX
 73
     1
 44
1.0
  0
LINE
  5
2CB
330
2
100
AcDbEntity
  8
DIM
100
AcDbLine
 10
352.8266491247487
 20
85.91075004378758
 30
0.0
 11
352.8266491247487
 21
91.3904533289458
 31
0.0
  0
LINE
  5
2CC
330
2
100
AcDbEntity
  8
DIM
100
AcDbLine
 10
393.2266491247999
 20
88.20291242670069
 30
0.0
 11
393.2266491247999
 21
91.3904533289458
 31
0.0
  0
LINE
  5
2CD
330
2
100
AcDbEntity
  8
DIM
100
AcDbLine
 10
355.8266491247487
 20
90.39045332894579
 30
0.0
 11
390.2266491247999
 21
90.39045332894579
 31
0.0
  0
SOLID
  5
2CE
330
2
100
AcDbEntity
  8
DIM
100
AcDbTrace
 10
355.8266491247487
 20
90.89045332894579
 30
0.0
 11
355.8266491247487
 21
89.8904533289458
 31
0.0
 12
352.8266491247487
 22
90.39045332894579
 32
0.0
 13
352.8266491247487
 23
90.39045332894579
 33
0.0
  0
SOLID
  5
2CF
330
2
100
AcDbEntity
  8
DIM
100
AcDbTrace
 10
390.2266491247999
 20
90.89045332894579
 30
0.0
 11
390.2266491247999
 21
89.8904533289458
 31
0.0
 12
393.2266491247999
 22
90.39045332894579
 32
0.0
 13
393.2266491247999
 23
90.39045332894579
 33
0.0
  0
MTEXT
  5
2D0
330
2
100
AcDbEntity
  8
DIM
100
AcDbMText
 10
373.0266491247743
 20
92.4904533289458
 30
0.0
 40
2.5
 41
0.0
 46
0.0
 71
     5
 72
     1
  1
\A1;0.1010
  7
SIMPLEX
 73
     1
 44
1.0
  0
LINE
  5
2D1
330
2
100
AcDbEntity
  8
DIM
100
AcDbLine
 10
352.8266491247487
 20
85.91075004378758
 30
0.0
 11
352.8266491247487
 21
97.03927933734847
 31
0.0
  0
LINE
  5
2D2
330
2
100
AcDbEntity
  8
DIM
100
AcDbLine
 10
423.2266491272047
 20
85.91075004361037
 30
0.0
 11
423.2266491272047
 21
97.03927933734847
 31
0.0
  0
LINE
  5
2D3
330
2
100
AcDbEntity
  8
DIM
100
AcDbLine
 10
355.8266491247487
 20
96.03927933734848
 30
0.0
 11
420.2266491272045
 21
96.03927933734848
 31
0.0
  0
SOLID
  5
2D4
330
2
100
AcDbEntity
  8
DIM
100
AcDbTrace
 10
355.8266491247487
 20
96.53927933734848
 30
0.0
 11
355.8266491247487
 21
95.53927933734847
 31
0.0
 12
352.8266491247487
 22
96.03927933734848
 32
0.0
 13
352.8266491247487
 23
96.03927933734848
 33
0.0
  0
SOLID
  5
2D5
330
2
100
AcDbEntity
  8
DIM
100
AcDbTrace
 10
420.2266491272045
 20
96.53927933734848
 30
0.0
 11
420.2266491272045
 21
95.53927933734847
 31
0.0
 12
423.2266491272047
 22
96.03927933734848
 32
0.0
 13
423.2266491272047
 23
96.03927933734848
 33
0.0
  0
MTEXT
  5
2D6
330
2
100
AcDbEntity
  8
DIM
100
AcDbMText
 10
388.0266491259767
 20
98.13927933734849
 30
0.0
 40
2.5
 41
0.0
 46
0.0
 71
     5
 72
     1
  1
\A1;0.1760
  7
SIMPLEX
 73
     1
 44
1.0
  0
LINE
  5
2D7
330
2
100
AcDbEntity
  8
DIM
100
AcDbLine
 10
343.2266491246801
 20
152.5936163269004
 30
0.0
 11
343.2266491246801
 21
145.4912541221444
 31
0.0
  0
LINE
  5
2D8
330
2
100
AcDbEntity
  8
COIN-LINE
100
AcDbLine
 10
343.2266491246801
 20
145.4912541221444
 30
0.0
 11
343.2266491246801
 21
140.4912541221444
 31
0.0
  0
LINE
  5
2D9
330
2
100
AcDbEntity
  8
DIM
100
AcDbLine
 10
343.2266491246801
 20
140.4912541221444
 30
0.0
 11
343.2266491246801
 21
117.4912541221444
 31
0.0
  0
TEXT
  5
2DA
330
2
100
AcDbEntity
  8
DIM
100
AcDbText
 10
342.7266491246801
 20
117.4912541221444
 30
0.0
 40
2.5
  1
0.1250
 50
90.0
  7
SIMPLEX
100
AcDbText
  0
ENDSEC
  0
SECTION
  2
OBJECTS
  0
DICTIONARY
  5
9
330
0
100
AcDbDictionary
281
     1
  3
ACAD_COLOR
350
43
  3
ACAD_GROUP
350
30
  3
ACAD_LAYOUT
350
16
  3
ACAD_MATERIAL
350
B
  3
ACAD_MLEADERSTYLE
350
46
  3
ACAD_MLINESTYLE
350
31
  3
ACAD_PLOTSETTINGS
350
32
  3
ACAD_PLOTSTYLENAME
350
8
  3
ACAD_SCALELIST
350
44
  3
ACAD_TABLESTYLE
350
45
  3
ACAD_VISUALSTYLE
350
29
  3
ACDB_RECOMPOSE_DATA
350
2DD
  3
AcDbVariableDictionary
350
47
  0
DICTIONARY
  5
1C
330
1B
100
AcDbDictionary
280
     1
281
     1
  3
ACAD_LAYERSTATES
360
1D
  0
DICTIONARY
  5
5
330
4
100
AcDbDictionary
280
     1
281
     1
  3
ADSK_XREC_LAYER_RECONCILED
360
6
  0
DICTIONARY
  5
6E
330
6D
100
AcDbDictionary
280
     1
281
     1
  3
ADSK_XREC_LAYER_RECONCILED
360
6F
  0
DICTIONARY
  5
96
330
95
100
AcDbDictionary
280
     1
281
     1
  3
ADSK_XREC_LAYER_RECONCILED
360
97
  0
DICTIONARY
  5
A2
330
A1
100
AcDbDictionary
280
     1
281
     1
  3
ADSK_XREC_LAYER_RECONCILED
360
A3
  0
DICTIONARY
  5
B7
330
B6
100
AcDbDictionary
280
     1
281
     1
  3
ADSK_XREC_LAYER_RECONCILED
360
B8
  0
DICTIONARY
  5
C7
330
C6
100
AcDbDictionary
280
     1
281
     1
  3
ADSK_XREC_LAYER_RECONCILED
360
C8
  0
DICTIONARY
  5
43
102
{ACAD_REACTORS
330
9
102
}
330
9
100
AcDbDictionary
281
     1
  0
DICTIONARY
  5
30
102
{ACAD_REACTORS
330
9
102
}
330
9
100
AcDbDictionary
281
     1
  0
DICTIONARY
  5
16
102
{ACAD_REACTORS
330
9
102
}
330
9
100
AcDbDictionary
281
     1
  3
Layout1
350
1A
  3
Model
350
15
  0
DICTIONARY
  5
B
102
{ACAD_REACTORS
330
9
102
}
330
9
100
AcDbDictionary
281
     1
  3
ByBlock
350
3B
  3
ByLayer
350
33
  3
Global
350
A
  0
DICTIONARY
  5
46
102
{ACAD_REACTORS
330
9
102
}
330
9
100
AcDbDictionary
281
     1
  0
DICTIONARY
  5
31
102
{ACAD_REACTORS
330
9
102
}
330
9
100
AcDbDictionary
281
     1
  3
Standard
350
56
  0
DICTIONARY
  5
32
102
{ACAD_REACTORS
330
9
102
}
330
9
100
AcDbDictionary
281
     1
  0
ACDBDICTIONARYWDFLT
  5
8
102
{ACAD_REACTORS
330
9
102
}
330
9
100
AcDbDictionary
281
     1
  3
Normal
350
7
100
AcDbDictionaryWithDefault
340
7
  0
DICTIONARY
  5
44
102
{ACAD_REACTORS
330
9
102
}
330
9
100
AcDbDictionary
281
     1
  3
A0
350
5B
  3
A1
350
5C
  3
A2
350
5D
  3
A3
350
5E
  3
A4
350
5F
  3
A5
350
60
  3
A6
350
61
  3
A7
350
62
  3
A8
350
63
  3
A9
350
64
  3
B0
350
65
  3
B1
350
66
  3
B2
350
67
  3
B3
350
68
  3
B4
350
69
  3
B5
350
6A
  3
B6
350
6B
  0
DICTIONARY
  5
45
102
{ACAD_REACTORS
330
9
102
}
330
9
100
AcDbDictionary
281
     1
  3
Standard
350
57
  0
DICTIONARY
  5
29
102
{ACAD_REACTORS
330
9
102
}
330
9
100
AcDbDictionary
281
     1
  3
2dWireframe
350
28
  3
EdgeColorOff
350
73
  3
Realistic
350
59
  3
Wireframe
350
5A
  0
XRECORD
  5
2DD
102
{ACAD_REACTORS
330
9
102
}
330
9
100
AcDbXrecord
280
     1
 90
        1
330
57
  0
DICTIONARY
  5
47
102
{ACAD_REACTORS
330
9
102
}
330
9
100
AcDbDictionary
281
     1
  3
CANNOSCALE
350
48
  3
CMLEADERSTYLE
350
49
  3
CTABLESTYLE
350
4A
  3
CVIEWDETAILSTYLE
350
4B
  3
CVIEWSECTIONSTYLE
350
4C
  3
DIMASSOC
350
4D
  3
HIDETEXT
350
4E
  3
LAYEREVAL
350
4F
  3
LAYERNOTIFY
350
50
  3
LIGHTINGUNITS
350
51
  3
MSLTSCALE
350
52
  3
PROJECTNAME
350
53
  3
SORTENTS
350
54
  0
DICTIONARY
  5
1D
102
{ACAD_REACTORS
330
1C
102
}
330
1C
100
AcDbDictionary
281
     1
  0
XRECORD
  5
6
102
{ACAD_REACTORS
330
5
102
}
330
5
100
AcDbXrecord
280
     1
290
     1
  0
XRECORD
  5
6F
102
{ACAD_REACTORS
330
6E
102
}
330
6E
100
AcDbXrecord
280
     1
290
     1
  0
XRECORD
  5
97
102
{ACAD_REACTORS
330
96
102
}
330
96
100
AcDbXrecord
280
     1
290
     1
  0
XRECORD
  5
A3
102
{ACAD_REACTORS
330
A2
102
}
330
A2
100
AcDbXrecord
280
     1
290
     1
  0
XRECORD
  5
B8
102
{ACAD_REACTORS
330
B7
102
}
330
B7
100
AcDbXrecord
280
     1
290
     1
  0
XRECORD
  5
C8
102
{ACAD_REACTORS
330
C7
102
}
330
C7
100
AcDbXrecord
280
     1
290
     1
  0
LAYOUT
  5
1A
102
{ACAD_REACTORS
330
16
102
}
330
16
100
AcDbPlotSettings
  1

  2
\\ASM_2\LASERQ_3
  4

  6

 40
0.0
 41
0.0
 42
0.0
 43
0.0
 44
0.0
 45
0.0
 46
0.0
 47
0.0
 48
0.0
 49
0.0
140
0.0
141
0.0
142
1.0
143
1.0
 70
   688
 72
     0
 73
     0
 74
     5
  7
Ctool.ctb
 75
    16
147
1.0
 76
     0
 77
     2
 78
   300
148
0.0
149
0.0
100
AcDbLayout
  1
Layout1
 70
     0
 71
     1
 10
0.0
 20
0.0
 11
12.0
 21
9.0
 12
0.0
 22
0.0
 32
0.0
 14
1.000000000000000E+20
 24
1.000000000000000E+20
 34
1.000000000000000E+20
 15
-1.000000000000000E+20
 25
-1.000000000000000E+20
 35
-1.000000000000000E+20
146
0.0
 13
0.0
 23
0.0
 33
0.0
 16
1.0
 26
0.0
 36
0.0
 17
0.0
 27
1.0
 37
0.0
 76
     0
330
17
  0
LAYOUT
  5
15
102
{ACAD_REACTORS
330
16
102
}
330
16
100
AcDbPlotSettings
  1

  2
\\AMCPS2\AMC_153_MK1_HP2420
  4
A4
  6

 40
4.233333110809326
 41
4.995328426361083
 42
4.233322143554686
 43
4.995330810546875
 44
209.9733276367186
 45
296.9683227539062
 46
0.0
 47
1.61
 48
0.0
 49
0.0
140
0.0
141
0.0
142
1.0
143
1.349903775834591
 70
 11956
 72
     1
 73
     0
 74
     1
  7
Ctool.ctb
 75
     0
147
0.7407935424002642
 76
     0
 77
     2
 78
   300
148
-4.992371274847981
149
-8.987915990161695
100
AcDbLayout
  1
Model
 70
     1
 71
     0
 10
0.0
 20
0.0
 11
285.0
 21
404.0
 12
0.0
 22
0.0
 32
0.0
 14
5.0
 24
8.999999999999943
 34
0.0
 15
277.0
 25
392.0
 35
0.0
146
0.0
 13
0.0
 23
0.0
 33
0.0
 16
1.0
 26
0.0
 36
0.0
 17
0.0
 27
1.0
 37
0.0
 76
     0
330
2
331
27
  0
MATERIAL
  5
3B
102
{ACAD_XDICTIONARY
360
3C
102
}
102
{ACAD_REACTORS
330
B
102
}
330
B
100
AcDbMaterial
  1
ByBlock
 72
     0
 43
0.0208333333333333
 43
0.0
 43
0.0
 43
0.0
 43
0.0
 43
0.0208333333333333
 43
0.0
 43
0.0
 43
0.0
 43
0.0
 43
1.0
 43
0.0
 43
0.0
 43
0.0
 43
0.0
 43
1.0
 77
     0
 47
0.0208333333333333
 47
0.0
 47
0.0
 47
0.0
 47
0.0
 47
0.0208333333333333
 47
0.0
 47
0.0
 47
0.0
 47
0.0
 47
1.0
 47
0.0
 47
0.0
 47
0.0
 47
0.0
 47
1.0
171
     0
 49
0.0208333333333333
 49
0.0
 49
0.0
 49
0.0
 49
0.0
 49
0.0208333333333333
 49
0.0
 49
0.0
 49
0.0
 49
0.0
 49
1.0
 49
0.0
 49
0.0
 49
0.0
 49
0.0
 49
1.0
175
     0
142
0.0208333333333333
142
0.0
142
0.0
142
0.0
142
0.0
142
0.0208333333333333
142
0.0
142
0.0
142
0.0
142
0.0
142
1.0
142
0.0
142
0.0
142
0.0
142
0.0
142
1.0
179
     0
144
0.0208333333333333
144
0.0
144
0.0
144
0.0
144
0.0
144
0.0208333333333333
144
0.0
144
0.0
144
0.0
144
0.0
144
1.0
144
0.0
144
0.0
144
0.0
144
0.0
144
1.0
147
0.0208333333333333
147
0.0
147
0.0
147
0.0
147
0.0
147
0.0208333333333333
147
0.0
147
0.0
147
0.0
147
0.0
147
1.0
147
0.0
147
0.0
147
0.0
147
0.0
147
1.0
  0
MATERIAL
  5
33
102
{ACAD_XDICTIONARY
360
34
102
}
102
{ACAD_REACTORS
330
B
102
}
330
B
100
AcDbMaterial
  1
ByLayer
 72
     0
 43
0.0208333333333333
 43
0.0
 43
0.0
 43
0.0
 43
0.0
 43
0.0208333333333333
 43
0.0
 43
0.0
 43
0.0
 43
0.0
 43
1.0
 43
0.0
 43
0.0
 43
0.0
 43
0.0
 43
1.0
 77
     0
 47
0.0208333333333333
 47
0.0
 47
0.0
 47
0.0
 47
0.0
 47
0.0208333333333333
 47
0.0
 47
0.0
 47
0.0
 47
0.0
 47
1.0
 47
0.0
 47
0.0
 47
0.0
 47
0.0
 47
1.0
171
     0
 49
0.0208333333333333
 49
0.0
 49
0.0
 49
0.0
 49
0.0
 49
0.0208333333333333
 49
0.0
 49
0.0
 49
0.0
 49
0.0
 49
1.0
 49
0.0
 49
0.0
 49
0.0
 49
0.0
 49
1.0
175
     0
142
0.0208333333333333
142
0.0
142
0.0
142
0.0
142
0.0
142
0.0208333333333333
142
0.0
142
0.0
142
0.0
142
0.0
142
1.0
142
0.0
142
0.0
142
0.0
142
0.0
142
1.0
179
     0
144
0.0208333333333333
144
0.0
144
0.0
144
0.0
144
0.0
144
0.0208333333333333
144
0.0
144
0.0
144
0.0
144
0.0
144
1.0
144
0.0
144
0.0
144
0.0
144
0.0
144
1.0
147
0.0208333333333333
147
0.0
147
0.0
147
0.0
147
0.0
147
0.0208333333333333
147
0.0
147
0.0
147
0.0
147
0.0
147
1.0
147
0.0
147
0.0
147
0.0
147
0.0
147
1.0
  0
MATERIAL
  5
A
102
{ACAD_XDICTIONARY
360
C
102
}
102
{ACAD_REACTORS
330
B
102
}
330
B
100
AcDbMaterial
  1
Global
 72
     0
 43
0.0208333333333333
 43
0.0
 43
0.0
 43
0.0
 43
0.0
 43
0.0208333333333333
 43
0.0
 43
0.0
 43
0.0
 43
0.0
 43
1.0
 43
0.0
 43
0.0
 43
0.0
 43
0.0
 43
1.0
 77
     0
 47
0.0208333333333333
 47
0.0
 47
0.0
 47
0.0
 47
0.0
 47
0.0208333333333333
 47
0.0
 47
0.0
 47
0.0
 47
0.0
 47
1.0
 47
0.0
 47
0.0
 47
0.0
 47
0.0
 47
1.0
171
     0
 49
0.0208333333333333
 49
0.0
 49
0.0
 49
0.0
 49
0.0
 49
0.0208333333333333
 49
0.0
 49
0.0
 49
0.0
 49
0.0
 49
1.0
 49
0.0
 49
0.0
 49
0.0
 49
0.0
 49
1.0
175
     0
142
0.0208333333333333
142
0.0
142
0.0
142
0.0
142
0.0
142
0.0208333333333333
142
0.0
142
0.0
142
0.0
142
0.0
142
1.0
142
0.0
142
0.0
142
0.0
142
0.0
142
1.0
179
     0
144
0.0208333333333333
144
0.0
144
0.0
144
0.0
144
0.0
144
0.0208333333333333
144
0.0
144
0.0
144
0.0
144
0.0
144
1.0
144
0.0
144
0.0
144
0.0
144
0.0
144
1.0
147
0.0208333333333333
147
0.0
147
0.0
147
0.0
147
0.0
147
0.0208333333333333
147
0.0
147
0.0
147
0.0
147
0.0
147
1.0
147
0.0
147
0.0
147
0.0
147
0.0
147
1.0
  0
MLINESTYLE
  5
56
102
{ACAD_REACTORS
330
31
102
}
330
31
100
AcDbMlineStyle
  2
STANDARD
 70
     0
  3

 62
   256
 51
90.0
 52
90.0
 71
     2
 49
0.5
 62
   256
  6
BYLAYER
 49
-0.5
 62
   256
  6
BYLAYER
  0
ACDBPLACEHOLDER
  5
7
102
{ACAD_REACTORS
330
8
102
}
330
8
  0
SCALE
  5
5B
102
{ACAD_REACTORS
330
44
102
}
330
44
100
AcDbScale
 70
     0
300
1:1
140
1.0
141
1.0
290
     1
  0
SCALE
  5
5C
102
{ACAD_REACTORS
330
44
102
}
330
44
100
AcDbScale
 70
     0
300
1/128" = 1'-0"
140
0.0078125
141
12.0
290
     0
  0
SCALE
  5
5D
102
{ACAD_REACTORS
330
44
102
}
330
44
100
AcDbScale
 70
     0
300
1/64" = 1'-0"
140
0.015625
141
12.0
290
     0
  0
SCALE
  5
5E
102
{ACAD_REACTORS
330
44
102
}
330
44
100
AcDbScale
 70
     0
300
1/32" = 1'-0"
140
0.03125
141
12.0
290
     0
  0
SCALE
  5
5F
102
{ACAD_REACTORS
330
44
102
}
330
44
100
AcDbScale
 70
     0
300
1/16" = 1'-0"
140
0.0625
141
12.0
290
     0
  0
SCALE
  5
60
102
{ACAD_REACTORS
330
44
102
}
330
44
100
AcDbScale
 70
     0
300
3/32" = 1'-0"
140
0.09375
141
12.0
290
     0
  0
SCALE
  5
61
102
{ACAD_REACTORS
330
44
102
}
330
44
100
AcDbScale
 70
     0
300
1/8" = 1'-0"
140
0.125
141
12.0
290
     0
  0
SCALE
  5
62
102
{ACAD_REACTORS
330
44
102
}
330
44
100
AcDbScale
 70
     0
300
3/16" = 1'-0"
140
0.1875
141
12.0
290
     0
  0
SCALE
  5
63
102
{ACAD_REACTORS
330
44
102
}
330
44
100
AcDbScale
 70
     0
300
1/4" = 1'-0"
140
0.25
141
12.0
290
     0
  0
SCALE
  5
64
102
{ACAD_REACTORS
330
44
102
}
330
44
100
AcDbScale
 70
     0
300
3/8" = 1'-0"
140
0.375
141
12.0
290
     0
  0
SCALE
  5
65
102
{ACAD_REACTORS
330
44
102
}
330
44
100
AcDbScale
 70
     0
300
1/2" = 1'-0"
140
0.5
141
12.0
290
     0
  0
SCALE
  5
66
102
{ACAD_REACTORS
330
44
102
}
330
44
100
AcDbScale
 70
     0
300
3/4" = 1'-0"
140
0.75
141
12.0
290
     0
  0
SCALE
  5
67
102
{ACAD_REACTORS
330
44
102
}
330
44
100
AcDbScale
 70
     0
300
1" = 1'-0"
140
1.0
141
12.0
290
     0
  0
SCALE
  5
68
102
{ACAD_REACTORS
330
44
102
}
330
44
100
AcDbScale
 70
     0
300
1-1/2" = 1'-0"
140
1.5
141
12.0
290
     0
  0
SCALE
  5
69
102
{ACAD_REACTORS
330
44
102
}
330
44
100
AcDbScale
 70
     0
300
3" = 1'-0"
140
3.0
141
12.0
290
     0
  0
SCALE
  5
6A
102
{ACAD_REACTORS
330
44
102
}
330
44
100
AcDbScale
 70
     0
300
6" = 1'-0"
140
6.0
141
12.0
290
     0
  0
SCALE
  5
6B
102
{ACAD_REACTORS
330
44
102
}
330
44
100
AcDbScale
 70
     0
300
1'-0" = 1'-0"
140
12.0
141
12.0
290
     0
  0
TABLESTYLE
  5
57
102
{ACAD_XDICTIONARY
360
58
102
}
102
{ACAD_REACTORS
330
45
102
}
330
45
100
AcDbTableStyle
280
     0
  3
Standard
 70
     0
 71
     0
 40
0.06
 41
0.06
280
     0
281
     0
  7
Standard
140
0.18
170
     2
 62
     0
 63
     7
283
     0
 90
        4
 91
        0
  1

274
    -2
284
     1
 64
     0
275
    -2
285
     1
 65
     0
276
    -2
286
     1
 66
     0
277
    -2
287
     1
 67
     0
278
    -2
288
     1
 68
     0
279
    -2
289
     1
 69
     0
  7
Standard
140
0.25
170
     5
 62
     0
 63
     7
283
     0
 90
        4
 91
        0
  1

274
    -2
284
     1
 64
     0
275
    -2
285
     1
 65
     0
276
    -2
286
     1
 66
     0
277
    -2
287
     1
 67
     0
278
    -2
288
     1
 68
     0
279
    -2
289
     1
 69
     0
  7
Standard
140
0.18
170
     5
 62
     0
 63
     7
283
     0
 90
        4
 91
        0
  1

274
    -2
284
     1
 64
     0
275
    -2
285
     1
 65
     0
276
    -2
286
     1
 66
     0
277
    -2
287
     1
 67
     0
278
    -2
288
     1
 68
     0
279
    -2
289
     1
 69
     0
1001
ACAD
1000
AcRTDxfName
1000
TABLESTYLE
1000
AcRTDxfName
1000
TABLESTYLE
1000
AcRTDxfName
1000
TABLESTYLE
1000
AcRTDxfName
1000
TABLESTYLE
1000
AcRTDxfName
1000
TABLESTYLE
1000
AcRTDxfName
1000
TABLESTYLE
1000
AcRTDxfName
1000
TABLESTYLE
1000
AcRTDxfName
1000
TABLESTYLE
1000
AcRTDxfName
1000
TABLESTYLE
1000
AcRTDxfName
1000
TABLESTYLE
1000
AcRTDxfName
1000
TABLESTYLE
1000
AcRTDxfName
1000
TABLESTYLE
1000
AcRTDxfName
1000
TABLESTYLE
  0
VISUALSTYLE
  5
28
102
{ACAD_REACTORS
330
29
102
}
330
29
100
AcDbVisualStyle
  2
2dWireframe
 70
     4
177
     3
291
     0
 70
    58
 90
        0
176
     1
 90
        2
176
     1
 90
        0
176
     1
 90
        0
176
     1
 40
0.6
176
     1
 40
30.0
176
     1
 62
     7
420
 16777215
176
     1
 90
        1
176
     1
 90
        4
176
     1
 62
     7
176
     1
 62
   257
176
     1
 90
        1
176
     1
 90
        1
176
     1
 40
1.0
176
     1
 90
        0
176
     1
 62
   257
176
     1
 40
1.0
176
     1
 90
        1
176
     1
 90
        6
176
     1
 90
        2
176
     1
 62
     7
176
     1
 90
        5
176
     1
 90
        0
176
     1
 90
        0
176
     1
290
     0
176
     1
 90
        1
176
     1
 40
0.0
176
     1
 90
        0
176
     1
290
     1
176
     1
290
     1
176
     1
290
     0
176
     1
290
     0
176
     1
290
     0
176
     1
290
     0
176
     1
290
     0
176
     1
290
     0
176
     1
290
     0
176
     1
 90
       50
176
     1
 40
0.0
176
     1
 40
1.0
176
     1
 90
        0
176
     1
 62
    18
176
     1
 90
       50
176
     1
 90
        3
176
     1
 62
     5
420
      255
176
     1
290
     0
176
     1
 90
       50
176
     1
 90
       50
176
     1
 90
       50
176
     1
290
     0
176
     1
 90
       50
176
     1
 62
   256
176
     0
 40
1.0
176
     0
 90
        2
176
     1
  1
strokes_ogs.tif
176
     1
290
     0
176
     1
 40
1.0
176
     1
 40
1.0
176
     1
  0
VISUALSTYLE
  5
73
102
{ACAD_REACTORS
330
29
102
}
330
29
100
AcDbVisualStyle
  2
EdgeColorOff
 70
    22
177
     3
291
     1
 70
    58
 90
        2
176
     0
 90
        2
176
     0
 90
        0
176
     0
 90
        0
176
     0
 40
0.6
176
     0
 40
30.0
176
     0
 62
     7
420
 16777215
176
     0
 90
        1
176
     0
 90
        4
176
     0
 62
     7
176
     0
 62
   257
176
     0
 90
        1
176
     0
 90
        1
176
     0
 40
1.0
176
     0
 90
        8
176
     2
 62
     7
176
     0
 40
1.0
176
     0
 90
        1
176
     0
 90
        6
176
     0
 90
        2
176
     0
 62
     7
176
     0
 90
        5
176
     0
 90
        0
176
     0
 90
        0
176
     0
290
     0
176
     0
 90
        1
176
     0
 40
0.0
176
     0
 90
        0
176
     0
290
     0
176
     0
290
     1
176
     0
290
     1
176
     0
290
     0
176
     0
290
     0
176
     0
290
     0
176
     0
290
     0
176
     0
290
     0
176
     0
290
     0
176
     0
 90
       50
176
     0
 40
0.0
176
     0
 40
1.0
176
     0
 90
        0
176
     0
 62
    18
176
     0
 90
       50
176
     0
 90
        3
176
     0
 62
     5
420
      255
176
     0
290
     0
176
     0
 90
       50
176
     0
 90
       50
176
     0
 90
       50
176
     0
290
     0
176
     0
 90
       50
176
     0
 62
   256
176
     0
 40
1.0
176
     0
 90
        2
176
     0
  1
strokes_ogs.tif
176
     0
290
     0
176
     0
 40
1.0
176
     0
 40
1.0
176
     0
  0
VISUALSTYLE
  5
59
102
{ACAD_REACTORS
330
29
102
}
330
29
100
AcDbVisualStyle
  2
Realistic
 70
     8
177
     3
291
     0
 70
    58
 90
        2
176
     1
 90
        3
176
     1
 90
        0
176
     1
 90
        2
176
     1
 40
0.6
176
     1
 40
30.0
176
     1
 62
     7
420
 16777215
176
     1
 90
        0
176
     1
 90
        0
176
     1
 62
     7
176
     1
 62
   257
176
     1
 90
        1
176
     1
 90
        1
176
     1
 40
1.0
176
     1
 90
        8
176
     1
 62
   257
176
     1
 40
1.0
176
     1
 90
        1
176
     1
 90
        6
176
     1
 90
        2
176
     1
 62
     7
176
     1
 90
        3
176
     1
 90
        0
176
     1
 90
        0
176
     1
290
     0
176
     1
 90
       13
176
     1
 40
0.0
176
     1
 90
        0
176
     1
290
     0
176
     1
290
     1
176
     1
290
     1
176
     1
290
     0
176
     1
290
     0
176
     1
290
     0
176
     1
290
     0
176
     1
290
     0
176
     1
290
     0
176
     1
 90
       50
176
     1
 40
0.0
176
     1
 40
1.0
176
     1
 90
        0
176
     1
 62
    18
176
     1
 90
       50
176
     1
 90
        3
176
     1
 62
     5
420
      255
176
     1
290
     0
176
     1
 90
       50
176
     1
 90
       50
176
     1
 90
       50
176
     1
290
     0
176
     1
 90
       50
176
     1
 62
   256
176
     0
 40
1.0
176
     0
 90
        2
176
     1
  1
strokes_ogs.tif
176
     1
290
     0
176
     1
 40
1.0
176
     1
 40
1.0
176
     1
  0
VISUALSTYLE
  5
5A
102
{ACAD_REACTORS
330
29
102
}
330
29
100
AcDbVisualStyle
  2
Wireframe
 70
     5
177
     3
291
     0
 70
    58
 90
        0
176
     1
 90
        2
176
     1
 90
        0
176
     1
 90
        0
176
     1
 40
0.6
176
     1
 40
30.0
176
     1
 62
     7
420
 16777215
176
     1
 90
        1
176
     1
 90
        4
176
     1
 62
     7
176
     1
 62
   257
176
     1
 90
        1
176
     1
 90
        1
176
     1
 40
1.0
176
     1
 90
        0
176
     1
 62
   257
176
     1
 40
1.0
176
     1
 90
        1
176
     1
 90
        6
176
     1
 90
        2
176
     1
 62
     7
176
     1
 90
        3
176
     1
 90
        0
176
     1
 90
        0
176
     1
290
     0
176
     1
 90
        1
176
     1
 40
0.0
176
     1
 90
        0
176
     1
290
     0
176
     1
290
     1
176
     1
290
     1
176
     1
290
     0
176
     1
290
     0
176
     1
290
     0
176
     1
290
     0
176
     1
290
     0
176
     1
290
     0
176
     1
 90
       50
176
     1
 40
0.0
176
     1
 40
1.0
176
     1
 90
        0
176
     1
 62
    18
176
     1
 90
       50
176
     1
 90
        3
176
     1
 62
     5
420
      255
176
     1
290
     0
176
     1
 90
       50
176
     1
 90
       50
176
     1
 90
       50
176
     1
290
     0
176
     1
 90
       50
176
     1
 62
   256
176
     0
 40
1.0
176
     0
 90
        2
176
     1
  1
strokes_ogs.tif
176
     1
290
     0
176
     1
 40
1.0
176
     1
 40
1.0
176
     1
  0
DICTIONARYVAR
  5
48
102
{ACAD_REACTORS
330
47
102
}
330
47
100
DictionaryVariables
280
     0
  1
1:1
  0
DICTIONARYVAR
  5
49
102
{ACAD_REACTORS
330
47
102
}
330
47
100
DictionaryVariables
280
     0
  1
STANDARD
  0
DICTIONARYVAR
  5
4A
102
{ACAD_REACTORS
330
47
102
}
330
47
100
DictionaryVariables
280
     0
  1
STANDARD
  0
DICTIONARYVAR
  5
4B
102
{ACAD_REACTORS
330
47
102
}
330
47
100
DictionaryVariables
280
     0
  1

  0
DICTIONARYVAR
  5
4C
102
{ACAD_REACTORS
330
47
102
}
330
47
100
DictionaryVariables
280
     0
  1

  0
DICTIONARYVAR
  5
4D
102
{ACAD_REACTORS
330
47
102
}
330
47
100
DictionaryVariables
280
     0
  1
0
  0
DICTIONARYVAR
  5
4E
102
{ACAD_REACTORS
330
47
102
}
330
47
100
DictionaryVariables
280
     0
  1
1
  0
DICTIONARYVAR
  5
4F
102
{ACAD_REACTORS
330
47
102
}
330
47
100
DictionaryVariables
280
     0
  1
1
  0
DICTIONARYVAR
  5
50
102
{ACAD_REACTORS
330
47
102
}
330
47
100
DictionaryVariables
280
     0
  1
15
  0
DICTIONARYVAR
  5
51
102
{ACAD_REACTORS
330
47
102
}
330
47
100
DictionaryVariables
280
     0
  1
0
  0
DICTIONARYVAR
  5
52
102
{ACAD_REACTORS
330
47
102
}
330
47
100
DictionaryVariables
280
     0
  1
0
  0
DICTIONARYVAR
  5
53
102
{ACAD_REACTORS
330
47
102
}
330
47
100
DictionaryVariables
280
     0
  1

  0
DICTIONARYVAR
  5
54
102
{ACAD_REACTORS
330
47
102
}
330
47
100
DictionaryVariables
280
     0
  1
1
  0
DICTIONARY
  5
3C
330
3B
100
AcDbDictionary
280
     1
281
     1
  3
BUMPTILE
360
3D
  3
DIFFUSETILE
360
3E
  3
OPACITYTILE
360
3F
  3
REFLECTIONTILE
360
40
  3
REFRACTIONTILE
360
41
  3
SPECULARTILE
360
42
  0
DICTIONARY
  5
34
330
33
100
AcDbDictionary
280
     1
281
     1
  3
BUMPTILE
360
35
  3
DIFFUSETILE
360
36
  3
OPACITYTILE
360
37
  3
REFLECTIONTILE
360
38
  3
REFRACTIONTILE
360
39
  3
SPECULARTILE
360
3A
  0
DICTIONARY
  5
C
330
A
100
AcDbDictionary
280
     1
281
     1
  3
BUMPTILE
360
D
  3
DIFFUSETILE
360
E
  3
OPACITYTILE
360
F
  3
REFLECTIONTILE
360
10
  3
REFRACTIONTILE
360
11
  3
SPECULARTILE
360
12
  0
DICTIONARY
  5
58
330
57
100
AcDbDictionary
280
     1
281
     1
  3
ACAD_ROUNDTRIP_2008_TABLESTYLE_CELLSTYLEMAP
360
2DC
  0
XRECORD
  5
3D
102
{ACAD_REACTORS
330
3C
102
}
330
3C
100
AcDbXrecord
280
     1
270
     1
271
     1
  0
XRECORD
  5
3E
102
{ACAD_REACTORS
330
3C
102
}
330
3C
100
AcDbXrecord
280
     1
270
     1
271
     1
  0
XRECORD
  5
3F
102
{ACAD_REACTORS
330
3C
102
}
330
3C
100
AcDbXrecord
280
     1
270
     1
271
     1
  0
XRECORD
  5
40
102
{ACAD_REACTORS
330
3C
102
}
330
3C
100
AcDbXrecord
280
     1
270
     1
271
     1
  0
XRECORD
  5
41
102
{ACAD_REACTORS
330
3C
102
}
330
3C
100
AcDbXrecord
280
     1
270
     1
271
     1
  0
XRECORD
  5
42
102
{ACAD_REACTORS
330
3C
102
}
330
3C
100
AcDbXrecord
280
     1
270
     1
271
     1
  0
XRECORD
  5
35
102
{ACAD_REACTORS
330
34
102
}
330
34
100
AcDbXrecord
280
     1
270
     1
271
     1
  0
XRECORD
  5
36
102
{ACAD_REACTORS
330
34
102
}
330
34
100
AcDbXrecord
280
     1
270
     1
271
     1
  0
XRECORD
  5
37
102
{ACAD_REACTORS
330
34
102
}
330
34
100
AcDbXrecord
280
     1
270
     1
271
     1
  0
XRECORD
  5
38
102
{ACAD_REACTORS
330
34
102
}
330
34
100
AcDbXrecord
280
     1
270
     1
271
     1
  0
XRECORD
  5
39
102
{ACAD_REACTORS
330
34
102
}
330
34
100
AcDbXrecord
280
     1
270
     1
271
     1
  0
XRECORD
  5
3A
102
{ACAD_REACTORS
330
34
102
}
330
34
100
AcDbXrecord
280
     1
270
     1
271
     1
  0
XRECORD
  5
D
102
{ACAD_REACTORS
330
C
102
}
330
C
100
AcDbXrecord
280
     1
270
     1
271
     1
  0
XRECORD
  5
E
102
{ACAD_REACTORS
330
C
102
}
330
C
100
AcDbXrecord
280
     1
270
     1
271
     1
  0
XRECORD
  5
F
102
{ACAD_REACTORS
330
C
102
}
330
C
100
AcDbXrecord
280
     1
270
     1
271
     1
  0
XRECORD
  5
10
102
{ACAD_REACTORS
330
C
102
}
330
C
100
AcDbXrecord
280
     1
270
     1
271
     1
  0
XRECORD
  5
11
102
{ACAD_REACTORS
330
C
102
}
330
C
100
AcDbXrecord
280
     1
270
     1
271
     1
  0
XRECORD
  5
12
102
{ACAD_REACTORS
330
C
102
}
330
C
100
AcDbXrecord
280
     1
270
     1
271
     1
  0
CELLSTYLEMAP
  5
2DC
102
{ACAD_REACTORS
330
58
102
}
330
58
100
AcDbCellStyleMap
 90
        3
300
CELLSTYLE
  1
TABLEFORMAT_BEGIN
 90
        5
170
     1
 91
        0
 92
    32768
 62
   257
 93
        1
300
CONTENTFORMAT
  1
CONTENTFORMAT_BEGIN
 90
        0
 91
        0
 92
        4
 93
        0
300

 40
0.0
140
1.0
 94
        5
 62
     0
340
1F
144
0.25
309
CONTENTFORMAT_END
171
     1
301
MARGIN
  1
CELLMARGIN_BEGIN
 40
0.06
 40
0.06
 40
0.06
 40
0.06
 40
0.18
 40
0.18
309
CELLMARGIN_END
 94
        6
 95
        1
302
GRIDFORMAT
  1
GRIDFORMAT_BEGIN
 90
        0
 91
        1
 62
     0
 92
       -2
340
0
 93
        0
 40
0.045
309
GRIDFORMAT_END
 95
        2
302
GRIDFORMAT
  1
GRIDFORMAT_BEGIN
 90
        0
 91
        1
 62
     0
 92
       -2
340
0
 93
        0
 40
0.045
309
GRIDFORMAT_END
 95
        4
302
GRIDFORMAT
  1
GRIDFORMAT_BEGIN
 90
        0
 91
        1
 62
     0
 92
       -2
340
0
 93
        0
 40
0.045
309
GRIDFORMAT_END
 95
        8
302
GRIDFORMAT
  1
GRIDFORMAT_BEGIN
 90
        0
 91
        1
 62
     0
 92
       -2
340
0
 93
        0
 40
0.045
309
GRIDFORMAT_END
 95
       16
302
GRIDFORMAT
  1
GRIDFORMAT_BEGIN
 90
        0
 91
        1
 62
     0
 92
       -2
340
0
 93
        0
 40
0.045
309
GRIDFORMAT_END
 95
       32
302
GRIDFORMAT
  1
GRIDFORMAT_BEGIN
 90
        0
 91
        1
 62
     0
 92
       -2
340
0
 93
        0
 40
0.045
309
GRIDFORMAT_END
309
TABLEFORMAT_END
  1
CELLSTYLE_BEGIN
 90
        1
 91
        1
300
_TITLE
309
CELLSTYLE_END
300
CELLSTYLE
  1
TABLEFORMAT_BEGIN
 90
        5
170
     1
 91
        0
 92
        0
 62
   257
 93
        1
300
CONTENTFORMAT
  1
CONTENTFORMAT_BEGIN
 90
        0
 91
        0
 92
        4
 93
        0
300

 40
0.0
140
1.0
 94
        5
 62
     0
340
1F
144
0.18
309
CONTENTFORMAT_END
171
     1
301
MARGIN
  1
CELLMARGIN_BEGIN
 40
0.06
 40
0.06
 40
0.06
 40
0.06
 40
0.18
 40
0.18
309
CELLMARGIN_END
 94
        6
 95
        1
302
GRIDFORMAT
  1
GRIDFORMAT_BEGIN
 90
        0
 91
        1
 62
     0
 92
       -2
340
0
 93
        0
 40
0.045
309
GRIDFORMAT_END
 95
        2
302
GRIDFORMAT
  1
GRIDFORMAT_BEGIN
 90
        0
 91
        1
 62
     0
 92
       -2
340
0
 93
        0
 40
0.045
309
GRIDFORMAT_END
 95
        4
302
GRIDFORMAT
  1
GRIDFORMAT_BEGIN
 90
        0
 91
        1
 62
     0
 92
       -2
340
0
 93
        0
 40
0.045
309
GRIDFORMAT_END
 95
        8
302
GRIDFORMAT
  1
GRIDFORMAT_BEGIN
 90
        0
 91
        1
 62
     0
 92
       -2
340
0
 93
        0
 40
0.045
309
GRIDFORMAT_END
 95
       16
302
GRIDFORMAT
  1
GRIDFORMAT_BEGIN
 90
        0
 91
        1
 62
     0
 92
       -2
340
0
 93
        0
 40
0.045
309
GRIDFORMAT_END
 95
       32
302
GRIDFORMAT
  1
GRIDFORMAT_BEGIN
 90
        0
 91
        1
 62
     0
 92
       -2
340
0
 93
        0
 40
0.045
309
GRIDFORMAT_END
309
TABLEFORMAT_END
  1
CELLSTYLE_BEGIN
 90
        2
 91
        1
300
_HEADER
309
CELLSTYLE_END
300
CELLSTYLE
  1
TABLEFORMAT_BEGIN
 90
        5
170
     1
 91
        0
 92
        0
 62
   257
 93
        1
300
CONTENTFORMAT
  1
CONTENTFORMAT_BEGIN
 90
        0
 91
        0
 92
        4
 93
        0
300

 40
0.0
140
1.0
 94
        2
 62
     0
340
1F
144
0.18
309
CONTENTFORMAT_END
171
     1
301
MARGIN
  1
CELLMARGIN_BEGIN
 40
0.06
 40
0.06
 40
0.06
 40
0.06
 40
0.18
 40
0.18
309
CELLMARGIN_END
 94
        6
 95
        1
302
GRIDFORMAT
  1
GRIDFORMAT_BEGIN
 90
        0
 91
        1
 62
     0
 92
       -2
340
0
 93
        0
 40
0.045
309
GRIDFORMAT_END
 95
        2
302
GRIDFORMAT
  1
GRIDFORMAT_BEGIN
 90
        0
 91
        1
 62
     0
 92
       -2
340
0
 93
        0
 40
0.045
309
GRIDFORMAT_END
 95
        4
302
GRIDFORMAT
  1
GRIDFORMAT_BEGIN
 90
        0
 91
        1
 62
     0
 92
       -2
340
0
 93
        0
 40
0.045
309
GRIDFORMAT_END
 95
        8
302
GRIDFORMAT
  1
GRIDFORMAT_BEGIN
 90
        0
 91
        1
 62
     0
 92
       -2
340
0
 93
        0
 40
0.045
309
GRIDFORMAT_END
 95
       16
302
GRIDFORMAT
  1
GRIDFORMAT_BEGIN
 90
        0
 91
        1
 62
     0
 92
       -2
340
0
 93
        0
 40
0.045
309
GRIDFORMAT_END
 95
       32
302
GRIDFORMAT
  1
GRIDFORMAT_BEGIN
 90
        0
 91
        1
 62
     0
 92
       -2
340
0
 93
        0
 40
0.045
309
GRIDFORMAT_END
309
TABLEFORMAT_END
  1
CELLSTYLE_BEGIN
 90
        3
 91
        2
300
_DATA
309
CELLSTYLE_END
  0
ENDSEC
  0
EOF
