  0
SECTION
  2
HEADER
  9
$ACADVER
  1
AC1032
  9
$ACADMAINTVER
 90
      248
  9
$DWGCODEPAGE
  3
ANSI_936
  9
$REQUIREDVERSIONS
160
                 0
  9
$INSBASE
 10
0.0
 20
0.0
 30
0.0
  9
$EXTMIN
 10
145.2316628137282
 20
122.4206293389393
 30
0.0
  9
$EXTMAX
 10
1008.831662813731
 20
681.1647493389402
 30
0.0
  9
$LIMMIN
 10
-0.0000000000000076
 20
0.0000000000000133
  9
$LIMMAX
 10
863.6000000000031
 20
558.7441200000008
  9
$ORTHOMODE
 70
     1
  9
$REGENMODE
 70
     1
  9
$FILLMODE
 70
     1
  9
$QTEXTMODE
 70
     0
  9
$MIRRTEXT
 70
     0
  9
$LTSCALE
 40
1.0
  9
$ATTMODE
 70
     1
  9
$TEXTSIZE
 40
2.0
  9
$TRACEWID
 40
0.05
  9
$TEXTSTYLE
  7
Standard
  9
$CLAYER
  8
SH-01_DIM
  9
$CELTYPE
  6
ByLayer
  9
$CECOLOR
 62
   256
  9
$CELTSCALE
 40
1.0
  9
$DISPSILH
 70
     0
  9
$DIMSCALE
 40
1.0
  9
$DIMASZ
 40
5.0
  9
$DIMEXO
 40
3.0
  9
$DIMDLI
 40
0.38
  9
$DIMRND
 40
0.0
  9
$DIMDLE
 40
0.0
  9
$DIMEXE
 40
3.0
  9
$DIMTP
 40
0.03
  9
$DIMTM
 40
0.03
  9
$DIMTXT
 40
5.0
  9
$DIMCEN
 40
3.0
  9
$DIMTSZ
 40
0.0
  9
$DIMTOL
 70
     0
  9
$DIMLIM
 70
     0
  9
$DIMTIH
 70
     1
  9
$DIMTOH
 70
     1
  9
$DIMSE1
 70
     0
  9
$DIMSE2
 70
     0
  9
$DIMTAD
 70
     0
  9
$DIMZIN
 70
     0
  9
$DIMBLK
  1

  9
$DIMASO
 70
     1
  9
$DIMSHO
 70
     1
  9
$DIMPOST
  1

  9
$DIMAPOST
  1

  9
$DIMALT
 70
     0
  9
$DIMALTD
 70
     4
  9
$DIMALTF
 40
0.03937007874
  9
$DIMLFAC
 40
0.01
  9
$DIMTOFL
 70
     0
  9
$DIMTVP
 40
0.0
  9
$DIMTIX
 70
     0
  9
$DIMSOXD
 70
     0
  9
$DIMSAH
 70
     0
  9
$DIMBLK1
  1

  9
$DIMBLK2
  1

  9
$DIMSTYLE
  2
Standard
  9
$DIMCLRD
 70
     0
  9
$DIMCLRE
 70
     0
  9
$DIMCLRT
 70
     0
  9
$DIMTFAC
 40
1.0
  9
$DIMGAP
 40
3.0
  9
$DIMJUST
 70
     0
  9
$DIMSD1
 70
     0
  9
$DIMSD2
 70
     0
  9
$DIMTOLJ
 70
     1
  9
$DIMTZIN
 70
     0
  9
$DIMALTZ
 70
     0
  9
$DIMALTTZ
 70
     0
  9
$DIMUPT
 70
     1
  9
$DIMDEC
 70
     4
  9
$DIMTDEC
 70
     4
  9
$DIMALTU
 70
     2
  9
$DIMALTTD
 70
     4
  9
$DIMTXSTY
  7
Standard
  9
$DIMAUNIT
 70
     0
  9
$DIMADEC
 70
     0
  9
$DIMALTRND
 40
0.0
  9
$DIMAZIN
 70
     0
  9
$DIMDSEP
 70
    46
  9
$DIMATFIT
 70
     3
  9
$DIMFRAC
 70
     0
  9
$DIMLDRBLK
  1

  9
$DIMLUNIT
 70
     2
  9
$DIMLWD
 70
    -2
  9
$DIMLWE
 70
    -2
  9
$DIMTMOVE
 70
     0
  9
$DIMFXL
 40
1.0
  9
$DIMFXLON
 70
     0
  9
$DIMJOGANG
 40
0.7853981633974483
  9
$DIMTFILL
 70
     0
  9
$DIMTFILLCLR
 70
     0
  9
$DIMARCSYM
 70
     0
  9
$DIMLTYPE
  6

  9
$DIMLTEX1
  6

  9
$DIMLTEX2
  6

  9
$DIMTXTDIRECTION
 70
     0
  9
$LUNITS
 70
     2
  9
$LUPREC
 70
     4
  9
$SKETCHINC
 40
0.1
  9
$FILLETRAD
 40
0.0
  9
$AUNITS
 70
     0
  9
$AUPREC
 70
     0
  9
$MENU
  1
.
  9
$ELEVATION
 40
0.0
  9
$PELEVATION
 40
0.0
  9
$THICKNESS
 40
0.0
  9
$LIMCHECK
 70
     0
  9
$CHAMFERA
 40
0.0
  9
$CHAMFERB
 40
0.0
  9
$CHAMFERC
 40
0.0
  9
$CHAMFERD
 40
0.0
  9
$SKPOLY
 70
     0
  9
$TDCREATE
 40
2454440.552881945
  9
$TDUCREATE
 40
2454440.219551724
  9
$TDUPDATE
 40
2460607.483969907
  9
$TDUUPDATE
 40
2460607.150636574
  9
$TDINDWG
 40
12.6248962384
  9
$TDUSRTIMER
 40
12.6248906250
  9
$USRTIMER
 70
     1
  9
$ANGBASE
 50
0.0
  9
$ANGDIR
 70
     0
  9
$PDMODE
 70
     0
  9
$PDSIZE
 40
0.0
  9
$PLINEWID
 40
0.5
  9
$SPLFRAME
 70
     0
  9
$SPLINETYPE
 70
     6
  9
$SPLINESEGS
 70
     8
  9
$HANDSEED
  5
2A1
  9
$SURFTAB1
 70
     6
  9
$SURFTAB2
 70
     6
  9
$SURFTYPE
 70
     6
  9
$SURFU
 70
     6
  9
$SURFV
 70
     6
  9
$UCSBASE
  2

  9
$UCSNAME
  2

  9
$UCSORG
 10
0.0
 20
0.0
 30
0.0
  9
$UCSXDIR
 10
1.0
 20
0.0
 30
0.0
  9
$UCSYDIR
 10
0.0
 20
1.0
 30
0.0
  9
$UCSORTHOREF
  2

  9
$UCSORTHOVIEW
 70
     0
  9
$UCSORGTOP
 10
0.0
 20
0.0
 30
0.0
  9
$UCSORGBOTTOM
 10
0.0
 20
0.0
 30
0.0
  9
$UCSORGLEFT
 10
0.0
 20
0.0
 30
0.0
  9
$UCSORGRIGHT
 10
0.0
 20
0.0
 30
0.0
  9
$UCSORGFRONT
 10
0.0
 20
0.0
 30
0.0
  9
$UCSORGBACK
 10
0.0
 20
0.0
 30
0.0
  9
$PUCSBASE
  2

  9
$PUCSNAME
  2

  9
$PUCSORG
 10
0.0
 20
0.0
 30
0.0
  9
$PUCSXDIR
 10
1.0
 20
0.0
 30
0.0
  9
$PUCSYDIR
 10
0.0
 20
1.0
 30
0.0
  9
$PUCSORTHOREF
  2

  9
$PUCSORTHOVIEW
 70
     0
  9
$PUCSORGTOP
 10
0.0
 20
0.0
 30
0.0
  9
$PUCSORGBOTTOM
 10
0.0
 20
0.0
 30
0.0
  9
$PUCSORGLEFT
 10
0.0
 20
0.0
 30
0.0
  9
$PUCSORGRIGHT
 10
0.0
 20
0.0
 30
0.0
  9
$PUCSORGFRONT
 10
0.0
 20
0.0
 30
0.0
  9
$PUCSORGBACK
 10
0.0
 20
0.0
 30
0.0
  9
$USERI1
 70
     0
  9
$USERI2
 70
     0
  9
$USERI3
 70
     0
  9
$USERI4
 70
     0
  9
$USERI5
 70
     0
  9
$USERR1
 40
0.0
  9
$USERR2
 40
0.0
  9
$USERR3
 40
0.0
  9
$USERR4
 40
0.0
  9
$USERR5
 40
0.0
  9
$WORLDVIEW
 70
     1
  9
$SHADEDGE
 70
     3
  9
$SHADEDIF
 70
    70
  9
$TILEMODE
 70
     1
  9
$MAXACTVP
 70
    64
  9
$PINSBASE
 10
0.0
 20
0.0
 30
0.0
  9
$PLIMCHECK
 70
     0
  9
$PEXTMIN
 10
0.0
 20
0.0
 30
0.0
  9
$PEXTMAX
 10
0.0
 20
0.0
 30
0.0
  9
$PLIMMIN
 10
0.0
 20
0.0
  9
$PLIMMAX
 10
12.0
 20
9.0
  9
$UNITMODE
 70
     0
  9
$VISRETAIN
 70
     1
  9
$PLINEGEN
 70
     0
  9
$PSLTSCALE
 70
     1
  9
$TREEDEPTH
 70
  3020
  9
$CMLSTYLE
  2
Standard
  9
$CMLJUST
 70
     0
  9
$CMLSCALE
 40
1.0
  9
$PROXYGRAPHICS
 70
     1
  9
$MEASUREMENT
 70
     0
  9
$CELWEIGHT
370
    -1
  9
$ENDCAPS
280
     0
  9
$JOINSTYLE
280
     0
  9
$LWDISPLAY
290
     0
  9
$INSUNITS
 70
     1
  9
$HYPERLINKBASE
  1

  9
$STYLESHEET
  1

  9
$XEDIT
290
     1
  9
$CEPSNTYPE
380
     0
  9
$PSTYLEMODE
290
     1
  9
$FINGERPRINTGUID
  2
{06C7982A-157F-E546-B791-EA6236C934B7}
  9
$VERSIONGUID
  2
{4CAB11E5-4315-4C9B-BFBD-173A61A960C6}
  9
$EXTNAMES
290
     1
  9
$PSVPSCALE
 40
0.0
  9
$OLESTARTUP
290
     0
  9
$SORTENTS
280
   127
  9
$INDEXCTL
280
     0
  9
$HIDETEXT
280
     1
  9
$XCLIPFRAME
280
     2
  9
$HALOGAP
280
     0
  9
$OBSCOLOR
 70
   257
  9
$OBSLTYPE
280
     0
  9
$INTERSECTIONDISPLAY
280
     0
  9
$INTERSECTIONCOLOR
 70
   257
  9
$DIMASSOC
280
     2
  9
$PROJECTNAME
  1

  9
$CAMERADISPLAY
290
     0
  9
$LENSLENGTH
 40
50.0
  9
$CAMERAHEIGHT
 40
0.0
  9
$STEPSPERSEC
 40
2.0
  9
$STEPSIZE
 40
6.0
  9
$3DDWFPREC
 40
2.0
  9
$PSOLWIDTH
 40
0.25
  9
$PSOLHEIGHT
 40
4.0
  9
$LOFTANG1
 40
1.570796326794896
  9
$LOFTANG2
 40
1.570796326794896
  9
$LOFTMAG1
 40
0.0
  9
$LOFTMAG2
 40
0.0
  9
$LOFTPARAM
 70
     7
  9
$LOFTNORMALS
280
     1
  9
$LATITUDE
 40
37.795
  9
$LONGITUDE
 40
-122.394
  9
$NORTHDIRECTION
 40
0.0
  9
$TIMEZONE
 70
 -8000
  9
$LIGHTGLYPHDISPLAY
280
     1
  9
$TILEMODELIGHTSYNCH
280
     1
  9
$CMATERIAL
347
F
  9
$SOLIDHIST
280
     1
  9
$SHOWHIST
280
     1
  9
$DWFFRAME
280
     2
  9
$DGNFRAME
280
     0
  9
$REALWORLDSCALE
290
     1
  9
$INTERFERECOLOR
 62
     1
  9
$INTERFEREOBJVS
345
50
  9
$INTERFEREVPVS
346
51
  9
$CSHADOW
280
     0
  9
$SHADOWPLANELOCATION
 40
0.0
  0
ENDSEC
  0
SECTION
  2
CLASSES
  0
CLASS
  1
ACDBDICTIONARYWDFLT
  2
AcDbDictionaryWithDefault
  3
ObjectDBX Classes
 90
        0
 91
        1
280
     0
281
     0
  0
CLASS
  1
DICTIONARYVAR
  2
AcDbDictionaryVar
  3
ObjectDBX Classes
 90
        0
 91
       14
280
     0
281
     0
  0
CLASS
  1
TABLESTYLE
  2
AcDbTableStyle
  3
ObjectDBX Classes
 90
     4095
 91
        1
280
     0
281
     0
  0
CLASS
  1
MATERIAL
  2
AcDbMaterial
  3
ObjectDBX Classes
 90
     1153
 91
        3
280
     0
281
     0
  0
CLASS
  1
VISUALSTYLE
  2
AcDbVisualStyle
  3
ObjectDBX Classes
 90
     4095
 91
        4
280
     0
281
     0
  0
CLASS
  1
SORTENTSTABLE
  2
AcDbSortentsTable
  3
ObjectDBX Classes
 90
        0
 91
        2
280
     0
281
     0
  0
CLASS
  1
DIMASSOC
  2
AcDbDimAssoc
  3
"AcDbDimAssoc|Product Desc:     AcDim ARX App For Dimension|Company:          Autodesk, Inc.|WEB Address:      www.autodesk.com"
 90
        0
 91
       10
280
     0
281
     0
  0
CLASS
  1
SCALE
  2
AcDbScale
  3
ObjectDBX Classes
 90
     1153
 91
       33
280
     0
281
     0
  0
CLASS
  1
MLEADERSTYLE
  2
AcDbMLeaderStyle
  3
ACDB_MLEADERSTYLE_CLASS
 90
     4095
 91
        0
280
     0
281
     0
  0
CLASS
  1
CELLSTYLEMAP
  2
AcDbCellStyleMap
  3
ObjectDBX Classes
 90
     1152
 91
        1
280
     0
281
     0
  0
CLASS
  1
ACME_DOCUMENT
  2
AcMeDbDoc
  3
AcMeServices
 90
     1024
 91
        0
280
     1
281
     0
  0
CLASS
  1
AMGSETTINGSOBJ
  2
AmgSettingsObj
  3
"AcadM|Product Description: AutoCAD Mechanical|Company: Autodesk, Inc."
 90
     1024
 91
        0
280
     1
281
     0
  0
CLASS
  1
ACMESCOPE
  2
AcMeScope
  3
AcMeServices
 90
     1024
 91
        0
280
     1
281
     0
  0
CLASS
  1
ACMECOMMANDHISTORY
  2
AcMeCommandHistory
  3
AcMeServices
 90
     1024
 91
        0
280
     1
281
     0
  0
CLASS
  1
ACIMSYSVARMAN
  2
AcImSysVarManager
  3
AcMeServices
 90
     1024
 91
        0
280
     1
281
     0
  0
CLASS
  1
ACIMINTSYSVAR
  2
AcImIntSysVar
  3
AcMeServices
 90
     1024
 91
        0
280
     1
281
     0
  0
CLASS
  1
ACMESTATEMGR
  2
AcMeStateMgr
  3
AcMeServices
 90
     1024
 91
        0
280
     1
281
     0
  0
CLASS
  1
ACDBENTITYCACHE
  2
AcMeEntityCache
  3
AcMeServices
 90
     1024
 91
        0
280
     1
281
     0
  0
CLASS
  1
ACGREFMASTER
  2
AcGrefMaster
  3
AcAttribServices
 90
     1024
 91
        0
280
     1
281
     0
  0
CLASS
  1
AM_DRAWING_MGR
  2
AcDmDwgMgr
  3
AcMechDwgViewMgmt
 90
     1024
 91
        0
280
     1
281
     0
  0
CLASS
  1
AM_DWG_DOCUMENT
  2
AcDmDwgDocument
  3
AcMechDwgViewMgmt
 90
     1024
 91
        0
280
     1
281
     0
  0
CLASS
  1
AM_DWG_SHEET
  2
AcDmSheet
  3
AcMechDwgViewMgmt
 90
     1024
 91
        0
280
     1
281
     0
  0
CLASS
  1
AM_VIEWDIMPARMAP
  2
AcDmViewDimParMap
  3
AcMechDwgViewMgmt
 90
     1024
 91
        0
280
     1
281
     0
  0
CLASS
  1
AMDTINTERNALREACTOR
  2
AmdtInternalReactor
  3
AcMeServices
 90
     1024
 91
        0
280
     1
281
     0
  0
CLASS
  1
ACIMREALSYSVAR
  2
AcImRealSysVar
  3
AcMeServices
 90
     1024
 91
        0
280
     1
281
     0
  0
CLASS
  1
AM_DWGMGR_NAME
  2
AcDmDwgMgrName
  3
AcMechDwgViewMgmt
 90
     1024
 91
        0
280
     1
281
     0
  0
CLASS
  1
ACME_DATABASE
  2
AcMeDbDatabase
  3
AcMeServices
 90
     1024
 91
        0
280
     1
281
     0
  0
CLASS
  1
ACRFINSADJUSTERMGR
  2
AcRfInsAdjusterMgr
  3
AcMeServices
 90
     1024
 91
        0
280
     1
281
     0
  0
CLASS
  1
ACGREFACADMASTER
  2
AcGrefacadMaster
  3
AcGrefServices
 90
     1024
 91
        0
280
     1
281
     0
  0
CLASS
  1
AMDTMENUSTATEMGR
  2
AmdtMenuStateMgr
  3
McadcomServices
 90
     1024
 91
        0
280
     1
281
     0
  0
CLASS
  1
AMDTMCOMMENUSTATE
  2
AmdtMcomMenuState
  3
McadcomServices
 90
     1024
 91
        0
280
     1
281
     0
  0
CLASS
  1
AMIMASTER
  2
AmiMaster
  3
AmiServices
 90
     1024
 91
        0
280
     1
281
     0
  0
CLASS
  1
MAPIAMMOUDLE
  2
MApiAmModule
  3
MApiAmServices
 90
     1024
 91
        0
280
     1
281
     0
  0
CLASS
  1
ACIMSTRSYSVAR
  2
AcImStrSysVar
  3
AcMeServices
 90
     1024
 91
        0
280
     1
281
     0
  0
CLASS
  1
AMDTDMMENUSTATE
  2
AmdtDmMenuState
  3
AcMechDwgViewMgmt
 90
     1024
 91
        0
280
     1
281
     0
  0
CLASS
  1
AMDTAMMENUSTATE
  2
AmdtAmMenuState
  3
DesignerAssemblies
 90
     1024
 91
        0
280
     1
281
     0
  0
CLASS
  1
ACAMPROJECT
  2
AcAmProject
  3
DesignerAssemblies
 90
     1024
 91
        0
280
     1
281
     0
  0
CLASS
  1
ACAMGRCOMPDEF
  2
AcAmGrCompDef
  3
DesignerAssemblies
 90
     1024
 91
        0
280
     1
281
     0
  0
CLASS
  1
ACAMCOMPDEF
  2
AcAmCompDef
  3
DesignerAssemblies
 90
     1024
 91
        0
280
     1
281
     0
  0
CLASS
  1
ACAMCOMPDEFMGR
  2
AcAmCompDefMgr
  3
DesignerAssemblies
 90
     1024
 91
        0
280
     1
281
     0
  0
CLASS
  1
AMCONTEXTMGR
  2
AcAmContextMgr
  3
DesignerAssemblies
 90
     1024
 91
        0
280
     1
281
     0
  0
CLASS
  1
ACAMCONTEXTMODELER
  2
AcAmContextModeler
  3
DesignerAssemblies
 90
     1024
 91
        0
280
     1
281
     0
  0
CLASS
  1
ACMDATADICTIONARY
  2
AcmDataDictionary
  3
"AcmSymBB|Product Description: AutoCAD Mechanical|Company: Autodesk, Inc."
 90
     1024
 91
        0
280
     1
281
     0
  0
CLASS
  1
ACAMGRCOMPDEFSET
  2
AcAmGrCompDefSet
  3
DesignerAssemblies
 90
     1024
 91
        0
280
     1
281
     0
  0
CLASS
  1
AMDTBROWSERDBTAB
  2
AmdtBrowserDbTab
  3
McadcomServices
 90
     1024
 91
        0
280
     1
281
     0
  0
CLASS
  1
CBROWSERAPPOBJECT
  2
CBrowserAppObject
  3
McadcomServices
 90
     1024
 91
        0
280
     1
281
     0
  0
CLASS
  1
DM_PLACEHOLDER
  2
AcDmSelsetPlaceholder
  3
AcMechDwgViewMgmt
 90
     1024
 91
        0
280
     1
281
     0
  0
CLASS
  1
ACMSTANDARDANSI
  2
AcmStandardANSI
  3
"Amdt_StdImp|Product Description: AutoCAD Mechanical|Company: Autodesk, Inc."
 90
     1024
 91
        0
280
     1
281
     0
  0
CLASS
  1
ACMSURFSTANDARDANSI
  2
AcmSurfTextStdANSI
  3
"Amdt_StdImp|Product Description: AutoCAD Mechanical|Company: Autodesk, Inc."
 90
     1024
 91
        0
280
     1
281
     0
  0
CLASS
  1
ACMFCFSTANDARDANSI
  2
AcmFCFStdANSI
  3
"Amdt_StdImp|Product Description: AutoCAD Mechanical|Company: Autodesk, Inc."
 90
     1024
 91
        0
280
     1
281
     0
  0
CLASS
  1
ACMWELDSTANDARDANSI
  2
AcmWeldingStdANSI
  3
"Amdt_StdImp|Product Description: AutoCAD Mechanical|Company: Autodesk, Inc."
 90
     1024
 91
        0
280
     1
281
     0
  0
CLASS
  1
ACMIDSTANDARDANSI
  2
AcmIdStdANSI
  3
"Amdt_StdImp|Product Description: AutoCAD Mechanical|Company: Autodesk, Inc."
 90
     1024
 91
        0
280
     1
281
     0
  0
CLASS
  1
ACMDATUMSTANDARDANSI
  2
AcmDatumStdANSI
  3
"Amdt_StdImp|Product Description: AutoCAD Mechanical|Company: Autodesk, Inc."
 90
     1024
 91
        0
280
     1
281
     0
  0
CLASS
  1
ACMBOMSTANDARDANSI
  2
AcmBOMStdANSI
  3
"Amdt_StdImp|Product Description: AutoCAD Mechanical|Company: Autodesk, Inc."
 90
     1024
 91
        0
280
     1
281
     0
  0
CLASS
  1
ACMDETAILSTANDARDANSI
  2
AmdtDetailSymStdANSI
  3
"Amdt_StdImp|Product Description: AutoCAD Mechanical|Company: Autodesk, Inc."
 90
     1024
 91
        0
280
     1
281
     0
  0
CLASS
  1
ACMSECTIONSTANDARDANSI
  2
AmdtSectionSymStdANSI
  3
"Amdt_StdImp|Product Description: AutoCAD Mechanical|Company: Autodesk, Inc."
 90
     1024
 91
        0
280
     1
281
     0
  0
CLASS
  1
ACMCENTERLINESTANDARDANSI
  2
AmdtCenterLineStdANSI
  3
"Amdt_StdImp|Product Description: AutoCAD Mechanical|Company: Autodesk, Inc."
 90
     1024
 91
        0
280
     1
281
     0
  0
CLASS
  1
ACMTHREADLINESTANDARDANSI
  2
AmdtThreadLineStdANSI
  3
"Amdt_StdImp|Product Description: AutoCAD Mechanical|Company: Autodesk, Inc."
 90
     1024
 91
        0
280
     1
281
     0
  0
CLASS
  1
ACMNOTESTANDARDANSI
  2
AmdtNoteStdANSI
  3
"Amdt_StdImp|Product Description: AutoCAD Mechanical|Company: Autodesk, Inc."
 90
     1024
 91
        0
280
     1
281
     0
  0
CLASS
  1
ACMTAPERSTANDARDANSI
  2
AcmTaperStdANSI
  3
"Amdt_StdImp|Product Description: AutoCAD Mechanical|Company: Autodesk, Inc."
 90
     1024
 91
        0
280
     1
281
     0
  0
CLASS
  1
ACMANOOTATIONVIEWSTANDARDANSI
  2
AmdtAnViewStdANSI
  3
"Amdt_StdImp|Product Description: AutoCAD Mechanical|Company: Autodesk, Inc."
 90
     1024
 91
        0
280
     1
281
     0
  0
CLASS
  1
ACAMGLAYSTD
  2
AcAmgLayStd
  3
"AmgLay|Product Description: AutoCAD Mechanical|Company: Autodesk, Inc."
 90
     1024
 91
        0
280
     1
281
     0
  0
CLASS
  1
ACAMGDIMSTD
  2
AcAmgDimStd
  3
"AmgDim|Product Description: AutoCAD Mechanical|Company: Autodesk, Inc."
 90
     1024
 91
        0
280
     1
281
     0
  0
CLASS
  1
AMGOBJPROPCFG
  2
AmgObjPropCfg
  3
"AmgLay|Product Description: AutoCAD Mechanical|Company: Autodesk, Inc."
 90
     1025
 91
        0
280
     1
281
     0
  0
CLASS
  1
ACAMGHOLECHARTSTDANSI
  2
AcAmgHoleChartStdANSI
  3
AmgDim|Product Description: AutoCAD Mechanical|Company: Autodesk, Inc.
 90
     1024
 91
        0
280
     1
281
     0
  0
CLASS
  1
ACAMGTITLESTD
  2
AcAmgTitleStd
  3
"AmgTitle|Product Description: AutoCAD Mechanical|Company: Autodesk, Inc."
 90
     4095
 91
        0
280
     1
281
     0
  0
CLASS
  1
AMDTNOTETEMPLATEDB
  2
AmdtNoteTemplateDB
  3
AcmSymBB|Product Description: AutoCAD Mechanical|Company: Autodesk, Inc.
 90
     1024
 91
        0
280
     1
281
     0
  0
CLASS
  1
CAMSSTRUCTBTNSTATE
  2
StructBtnState
  3
DesignerAssemblies
 90
     1024
 91
        0
280
     1
281
     0
  0
CLASS
  1
ACAMGFILTERDAT
  2
AcAmgFilterDat
  3
"AcadM|Product Description: AutoCAD Mechanical|Company: Autodesk, Inc."
 90
     1024
 91
        0
280
     1
281
     0
  0
CLASS
  1
AEC_REFEDIT_STATUS_TRACKER
  2
AecDbRefEditStatusTracker
  3
AecArchBase80|Product Desc: Autodesk Architectural Desktop 2007 |Company: Autodesk,Inc. |WEB Address: www.autodesk.com
 90
      129
 91
        0
280
     0
281
     0
  0
CLASS
  1
NPOCOLLECTION
  2
AcDbImpNonPersistentObjectsCollection
  3
ObjectDBX Classes
 90
     1153
 91
        0
280
     0
281
     0
  0
CLASS
  1
ACDBOPPOLYLINERES
  2
AcDbOpPolylineRes
  3
AcGrefServices
 90
     1024
 91
        0
280
     1
281
     0
  0
CLASS
  1
AMDTNOTE
  2
AmdtNote
  3
"AcmSymBB|Product Description: AutoCAD Mechanical|Company: Autodesk, Inc."
 90
     4095
 91
        0
280
     1
281
     1
  0
CLASS
  1
AMDTFORMULAUPDATEDISPATCHER
  2
AmdtFormulaUpdateDispatcher
  3
AcMeServices
 90
     1024
 91
        0
280
     1
281
     0
  0
CLASS
  1
BREAKDATA
  2
AcDbBreakData
  3
ObjectDBX Classes
 90
     1024
 91
        0
280
     0
281
     0
  0
CLASS
  1
ACMPPTEMPLATEMGR
  2
AcmPPTemplateMgr
  3
"G3vPPCustObj|Product Description: AutoCAD Mechanical|Company: Autodesk, Inc."
 90
     1024
 91
        0
280
     1
281
     0
  0
CLASS
  1
ACMPPVIEWDATAFILER
  2
AcmPPViewDataFiler
  3
"G3vPPCustObj|Product Description: AutoCAD Mechanical|Company: Autodesk, Inc."
 90
     1024
 91
        0
280
     1
281
     0
  0
CLASS
  1
ACMPARTPROPERTIESTABLE
  2
AcmPartPropertiesTable
  3
"G3vPPCustObj|Product Description: AutoCAD Mechanical|Company: Autodesk, Inc."
 90
     1024
 91
        0
280
     1
281
     0
  0
CLASS
  1
ACMPPTABLECOLUMN
  2
AcmPPTableColumn
  3
"G3vPPCustObj|Product Description: AutoCAD Mechanical|Company: Autodesk, Inc."
 90
     1024
 91
        0
280
     1
281
     0
  0
CLASS
  1
PARTAUTHBACKUPOBJ
  2
PartAuthBackupObj
  3
"G3vPartAuthEnviron|Product Description: AutoCAD Mechanical|Company: Autodesk, Inc."
 90
     1024
 91
        0
280
     1
281
     0
  0
CLASS
  1
ACAD_EVALUATION_GRAPH
  2
AcDbEvalGraph
  3
ObjectDBX Classes
 90
     1153
 91
        0
280
     0
281
     0
  0
CLASS
  1
ACAECUSTOBJ
  2
AcAeEditorObj
  3
AcAeEditorObj
 90
     1024
 91
        0
280
     1
281
     0
  0
CLASS
  1
ACDBASSOCNETWORK
  2
AcDbAssocNetwork
  3
ObjectDBX Classes
 90
     1025
 91
        0
280
     0
281
     0
  0
CLASS
  1
ACDBSECTIONVIEWSTYLE
  2
AcDbSectionViewStyle
  3
ObjectDBX Classes
 90
     1025
 91
        0
280
     0
281
     0
  0
CLASS
  1
ACDBDETAILVIEWSTYLE
  2
AcDbDetailViewStyle
  3
ObjectDBX Classes
 90
     1025
 91
        0
280
     0
281
     0
  0
ENDSEC
  0
SECTION
  2
TABLES
  0
TABLE
  2
VPORT
  5
27
102
{ACAD_XDICTIONARY
360
2C
102
}
330
0
100
AcDbSymbolTable
 70
     1
  0
VPORT
  5
28
330
27
100
AcDbSymbolTableRecord
100
AcDbViewportTableRecord
  2
*Active
 70
     0
 10
0.0
 20
0.0
 11
1.0
 21
1.0
 12
524.5167854542716
 22
336.2385556131394
 13
0.0
 23
0.0
 14
0.5
 24
0.5
 15
0.5
 25
0.5
 16
0.0
 26
0.0
 36
1.0
 17
0.0
 27
0.0
 37
0.0
 40
789.8260123552318
 41
2.570850202429149
 42
50.0
 43
0.0
 44
0.0
 50
0.0
 51
0.0
 71
     0
 72
  5000
 73
     1
 74
     2
 75
     0
 76
     0
 77
     0
 78
     0
281
     0
 65
     1
110
0.0
120
0.0
130
0.0
111
1.0
121
0.0
131
0.0
112
0.0
122
1.0
132
0.0
 79
     0
146
0.0
348
29
 60
     2
 61
     5
292
     1
282
     1
141
0.0
142
0.0
 63
   250
421
  3355443
1001
ACAD_NAV_VCDISPLAY
1070
     3
  0
ENDTAB
  0
TABLE
  2
LTYPE
  5
22
330
0
100
AcDbSymbolTable
 70
     4
  0
LTYPE
  5
23
330
22
100
AcDbSymbolTableRecord
100
AcDbLinetypeTableRecord
  2
ByBlock
 70
     0
  3

 72
    65
 73
     0
 40
0.0
  0
LTYPE
  5
24
330
22
100
AcDbSymbolTableRecord
100
AcDbLinetypeTableRecord
  2
ByLayer
 70
     0
  3

 72
    65
 73
     0
 40
0.0
  0
LTYPE
  5
E
330
22
100
AcDbSymbolTableRecord
100
AcDbLinetypeTableRecord
  2
Continuous
 70
     0
  3
Solid line
 72
    65
 73
     0
 40
0.0
  0
LTYPE
  5
D7
330
22
100
AcDbSymbolTableRecord
100
AcDbLinetypeTableRecord
  2
HIDDEN
 70
     0
  3
Hidden __ __ __ __ __ __ __ __ __ __ __ __ __ _
 72
    65
 73
     2
 40
0.375
 49
0.25
 74
     0
 49
-0.125
 74
     0
  0
LTYPE
  5
1F1
330
22
100
AcDbSymbolTableRecord
100
AcDbLinetypeTableRecord
  2
PHANTOM2
 70
     0
  3
__ _ _ __ _ _ __ _ _ __ _ _ __ _ _ __ _ _ __ _
 72
    65
 73
     6
 40
1.25
 49
0.625
 74
     0
 49
-0.125
 74
     0
 49
0.125
 74
     0
 49
-0.125
 74
     0
 49
0.125
 74
     0
 49
-0.125
 74
     0
  0
LTYPE
  5
80
330
22
100
AcDbSymbolTableRecord
100
AcDbLinetypeTableRecord
  2
CENTERX2
 70
     0
  3
Center (2x) ________  __  ________  __  _____
 72
    65
 73
     4
 40
4.0
 49
2.5
 74
     0
 49
-0.5
 74
     0
 49
0.5
 74
     0
 49
-0.5
 74
     0
  0
ENDTAB
  0
TABLE
  2
LAYER
  5
19
102
{ACAD_XDICTIONARY
360
1A
102
}
330
0
100
AcDbSymbolTable
 70
    10
  0
LAYER
  5
6
102
{ACAD_XDICTIONARY
360
7
102
}
330
19
100
AcDbSymbolTableRecord
100
AcDbLayerTableRecord
  2
0
 70
     0
 62
     1
  6
Continuous
370
    -3
390
9
347
C
348
0
  0
LAYER
  5
4A
102
{ACAD_XDICTIONARY
360
4B
102
}
330
19
100
AcDbSymbolTableRecord
100
AcDbLayerTableRecord
  2
SH-01_DIM
 70
     0
 62
     4
  6
Continuous
370
    -3
390
9
347
C
348
0
  0
LAYER
  5
79
102
{ACAD_XDICTIONARY
360
7A
102
}
330
19
100
AcDbSymbolTableRecord
100
AcDbLayerTableRecord
  2
SH-01_OBJECT
 70
     0
 62
     7
  6
Continuous
370
    -3
390
9
347
C
348
0
  0
LAYER
  5
74
102
{ACAD_XDICTIONARY
360
75
102
}
330
19
100
AcDbSymbolTableRecord
100
AcDbLayerTableRecord
  2
SH-01_NOTES
 70
     0
 62
     3
  6
Continuous
370
    -3
390
9
347
C
348
0
  0
LAYER
  5
7D
102
{ACAD_XDICTIONARY
360
7E
102
}
330
19
100
AcDbSymbolTableRecord
100
AcDbLayerTableRecord
  2
SH-01_CENTER
 70
     0
 62
     2
  6
CENTERX2
370
    -3
390
9
347
C
348
0
  0
LAYER
  5
D4
102
{ACAD_XDICTIONARY
360
D5
102
}
330
19
100
AcDbSymbolTableRecord
100
AcDbLayerTableRecord
  2
SH-01_PKG
 70
     0
 62
    44
  6
HIDDEN
370
    -3
390
9
347
C
348
0
  0
LAYER
  5
21B
330
19
100
AcDbSymbolTableRecord
100
AcDbLayerTableRecord
  2
Defpoints
 70
     0
 62
     7
  6
Continuous
290
     0
370
    -3
390
9
347
C
348
0
  0
LAYER
  5
1EE
102
{ACAD_XDICTIONARY
360
1EF
102
}
330
19
100
AcDbSymbolTableRecord
100
AcDbLayerTableRecord
  2
SH-01_PHANTOM
 70
     0
 62
     1
  6
PHANTOM2
370
    -3
390
9
347
C
348
0
  0
LAYER
  5
1C6
102
{ACAD_XDICTIONARY
360
1C7
102
}
330
19
100
AcDbSymbolTableRecord
100
AcDbLayerTableRecord
  2
SH-01_MISC
 70
     0
 62
     6
  6
Continuous
370
    -3
390
9
347
C
348
0
  0
LAYER
  5
E9
102
{ACAD_XDICTIONARY
360
EA
102
}
330
19
100
AcDbSymbolTableRecord
100
AcDbLayerTableRecord
  2
SH-01_INNER LEAD
 70
     0
 62
     5
  6
Continuous
370
    -3
390
9
347
C
348
0
1001
AcAecLayerStandard
1000

1000

  0
ENDTAB
  0
TABLE
  2
STYLE
  5
1F
330
0
100
AcDbSymbolTable
 70
     1
  0
STYLE
  5
20
330
1F
100
AcDbSymbolTableRecord
100
AcDbTextStyleTableRecord
  2
Standard
 70
     0
 40
5.0
 41
0.8
 50
0.0
 71
     0
 42
2.0
  3
simplex.shx
  4

  0
ENDTAB
  0
TABLE
  2
VIEW
  5
25
330
0
100
AcDbSymbolTable
 70
     0
  0
ENDTAB
  0
TABLE
  2
UCS
  5
26
330
0
100
AcDbSymbolTable
 70
     0
  0
ENDTAB
  0
TABLE
  2
APPID
  5
2D
330
0
100
AcDbSymbolTable
 70
     7
  0
APPID
  5
1E
330
2D
100
AcDbSymbolTableRecord
100
AcDbRegAppTableRecord
  2
ACAD
 70
     0
  0
APPID
  5
EC
330
2D
100
AcDbSymbolTableRecord
100
AcDbRegAppTableRecord
  2
AcAecLayerStandard
 70
     0
  0
APPID
  5
13
330
2D
100
AcDbSymbolTableRecord
100
AcDbRegAppTableRecord
  2
ACADSTRINGINFO
 70
     0
  0
APPID
  5
2B
330
2D
100
AcDbSymbolTableRecord
100
AcDbRegAppTableRecord
  2
ACAD_NAV_VCDISPLAY
 70
     0
  0
APPID
  5
1F2
330
2D
100
AcDbSymbolTableRecord
100
AcDbRegAppTableRecord
  2
GENIUS_GENREC_14
 70
     0
  0
APPID
  5
1F4
330
2D
100
AcDbSymbolTableRecord
100
AcDbRegAppTableRecord
  2
GENIUS_GENOBJ-N-REC_13
 70
     0
  0
APPID
  5
1F3
330
2D
100
AcDbSymbolTableRecord
100
AcDbRegAppTableRecord
  2
GENIUS_GENODEF_13
 70
     0
  0
ENDTAB
  0
TABLE
  2
DIMSTYLE
  5
2E
330
0
100
AcDbSymbolTable
 70
     3
100
AcDbDimStyleTable
 71
     3
340
2F
340
30
340
31
  0
DIMSTYLE
105
2F
102
{ACAD_REACTORS
330
213
330
21F
330
22A
330
23B
330
24D
330
25D
330
26D
330
27E
330
28E
102
}
330
2E
100
AcDbSymbolTableRecord
100
AcDbDimStyleTableRecord
  2
Standard
 70
     0
 41
2.0
 42
0.35
 44
1.0
 73
     0
 74
     0
140
2.0
143
0.03937007874
170
     1
171
     4
271
     3
272
     3
274
     4
288
     1
340
20
  0
DIMSTYLE
105
30
330
2E
100
AcDbSymbolTableRecord
100
AcDbDimStyleTableRecord
  2
Standard X 4
 70
     0
 41
2.5
 42
0.5
 44
1.0
140
2.0
143
0.03937007874
144
0.25
170
     1
171
     4
271
     3
272
     3
274
     4
288
     1
340
20
  0
DIMSTYLE
105
31
330
2E
100
AcDbSymbolTableRecord
100
AcDbDimStyleTableRecord
  2
STANDARD x 8
 70
     0
  3
\X
 41
2.399999999999999
 42
1.0
 44
1.199999999999999
 73
     0
 74
     0
140
2.399999999999999
143
0.03937007874
144
0.125
170
     1
171
     4
271
     3
272
     3
274
     4
288
     1
340
20
  0
ENDTAB
  0
TABLE
  2
BLOCK_RECORD
  5
1
330
0
100
AcDbSymbolTable
 70
    10
  0
BLOCK_RECORD
  5
2
102
{ACAD_XDICTIONARY
360
3
102
}
330
1
100
AcDbSymbolTableRecord
100
AcDbBlockTableRecord
  2
*Model_Space
340
11
 70
     0
280
     1
281
     0
  0
BLOCK_RECORD
  5
15
330
1
100
AcDbSymbolTableRecord
100
AcDbBlockTableRecord
  2
*Paper_Space
340
18
 70
     0
280
     1
281
     0
  0
BLOCK_RECORD
  5
EE
330
1
100
AcDbSymbolTableRecord
100
AcDbBlockTableRecord
  2
INT
340
0
310
2800000020000000200000000100080000000000000400000000000000000000000000000000000000000000000080000080000000808000800000008000800080800000C0C0C000C0DCC000F0CAA6000020400000206000002080000020A0000020C0000020E00000400000004020000040400000406000004080000040A0
310
000040C0000040E00000600000006020000060400000606000006080000060A0000060C0000060E00000800000008020000080400000806000008080000080A0000080C0000080E00000A0000000A0200000A0400000A0600000A0800000A0A00000A0C00000A0E00000C0000000C0200000C0400000C0600000C0800000C0
310
A00000C0C00000C0E00000E0000000E0200000E0400000E0600000E0800000E0A00000E0C00000E0E00040000000400020004000400040006000400080004000A0004000C0004000E00040200000402020004020400040206000402080004020A0004020C0004020E000404000004040200040404000404060004040800040
310
40A0004040C0004040E00040600000406020004060400040606000406080004060A0004060C0004060E00040800000408020004080400040806000408080004080A0004080C0004080E00040A0000040A0200040A0400040A0600040A0800040A0A00040A0C00040A0E00040C0000040C0200040C0400040C0600040C08000
310
40C0A00040C0C00040C0E00040E0000040E0200040E0400040E0600040E0800040E0A00040E0C00040E0E00080000000800020008000400080006000800080008000A0008000C0008000E00080200000802020008020400080206000802080008020A0008020C0008020E00080400000804020008040400080406000804080
310
008040A0008040C0008040E00080600000806020008060400080606000806080008060A0008060C0008060E00080800000808020008080400080806000808080008080A0008080C0008080E00080A0000080A0200080A0400080A0600080A0800080A0A00080A0C00080A0E00080C0000080C0200080C0400080C0600080C0
310
800080C0A00080C0C00080C0E00080E0000080E0200080E0400080E0600080E0800080E0A00080E0C00080E0E000C0000000C0002000C0004000C0006000C0008000C000A000C000C000C000E000C0200000C0202000C0204000C0206000C0208000C020A000C020C000C020E000C0400000C0402000C0404000C0406000C0
310
408000C040A000C040C000C040E000C0600000C0602000C0604000C0606000C0608000C060A000C060C000C060E000C0800000C0802000C0804000C0806000C0808000C080A000C080C000C080E000C0A00000C0A02000C0A04000C0A06000C0A08000C0A0A000C0A0C000C0A0E000C0C00000C0C02000C0C04000C0C06000
310
C0C08000C0C0A000F0FBFF00A4A0A000808080000000FF0000FF000000FFFF00FF000000FF00FF00FFFF0000FFFFFF0000000000000000000000000000000000000000000000000000000000000000000000000000000000000000000000000000000000000000000000000000000000000000000000000000000000000000
310
000000000000000000000000000000000000FCFCFCFCFCFCFCFCFC00FCFCFCFCFCFCFCFCFCFCFCFCFCFCFCFCFCFC00000000FC2525252525252525252525252525252525252525252525252525FC000000000025FCFCFCFCFC00FDFDFD00FDFD00FDFD00FDFD0000FCFC00FC25FC000000000025FCFCFC00FC00FC00FCFCFC
310
FCFCFCFCFCFCFCFC00FCFC00FC25FCFCFC0000002500FCFDFDFD00FC00FCFC0000FC0000FCFC00FC00FDFDFCFC250000FC0000002500FCFC0000FCFCFCFCFCFCFCFCFCFCFCFCFCFCFC00FCFCFC250000FC0000002500FCFC00FCFCFCFCFCFCFCFCFCFCFCFCFCFCFC00FCFCFCFC250000FC0000002500FCFCFCFCFC00000000
310
000000000000000000FCFCFCFCFC250000FC0000002500FCFDFCFCFC00000000000000000000000000FCFCFCFDFC250000FC000000250000FD00FCFC00000000000000000000000000FCFC00FD00250000FC000000250000FCFCFCFC00000000000000000000000000FCFCFCFC0025FCFCFC0000002500FC000000FC000000
310
00000000000000000000FC0000FCFC25FC000000000025FCFCFCFCFCFC00000000000000000000000000FCFCFCFCFC25FC000000000025FCFCFCFCFCFC00000000000000000000000000FCFCFCFCFC25FC00000000002500FC000000FC00000000000000000000000000FC0000FCFC25FC0000000000250000FCFCFCFC0000
310
0000000000000000000000FCFCFCFC0025FC0000000000250000FD00FCFC00000000000000000000000000FCFC00FD0025FC00000000002500FCFDFCFCFC00000000000000000000000000FCFCFCFDFC25FC00000000002500FCFCFCFCFC00000000000000000000000000FCFCFCFCFC25FC00000000002500FCFC00FCFCFC
310
FCFCFCFCFCFCFCFCFCFCFCFC00FCFCFCFC25FC00000000002500FCFC0000FCFCFCFCFCFCFCFCFCFCFCFCFCFCFC00FCFCFC25FC00000000002500FCFDFDFD00FC00FCFC0000FC0000FCFC00FC00FDFDFCFC25FC000000000025FCFCFC00FC00FC00FCFCFCFCFCFCFCFCFCFCFC00FCFC00FC25FC000000000025FCFCFCFCFC00
310
FDFDFD00FDFD00FDFD00FDFD0000FCFC00FC25FC00000000FC2525252525252525252525252525252525252525252525252525FC00000000FCFCFCFCFCFCFCFCFC00FCFCFCFCFCFCFCFCFCFCFCFCFCFCFCFCFCFC00000000000000000000000000000000000000000000000000000000000000000000000000000000000000
310
0000000000000000000000000000000000000000000000000000000000000000000000000000000000000000000000000000000000000000
102
{BLKREFS
331
ED
102
}
 70
     1
280
     1
281
     0
  0
BLOCK_RECORD
  5
216
330
1
100
AcDbSymbolTableRecord
100
AcDbBlockTableRecord
  2
*D1
340
0
 70
     0
280
     1
281
     0
  0
BLOCK_RECORD
  5
222
330
1
100
AcDbSymbolTableRecord
100
AcDbBlockTableRecord
  2
*D2
340
0
 70
     0
280
     1
281
     0
  0
BLOCK_RECORD
  5
22D
330
1
100
AcDbSymbolTableRecord
100
AcDbBlockTableRecord
  2
*D3
340
0
 70
     0
280
     1
281
     0
  0
BLOCK_RECORD
  5
23E
330
1
100
AcDbSymbolTableRecord
100
AcDbBlockTableRecord
  2
*D4
340
0
 70
     0
280
     1
281
     0
  0
BLOCK_RECORD
  5
250
330
1
100
AcDbSymbolTableRecord
100
AcDbBlockTableRecord
  2
*D5
340
0
 70
     0
280
     1
281
     0
  0
BLOCK_RECORD
  5
260
330
1
100
AcDbSymbolTableRecord
100
AcDbBlockTableRecord
  2
*D6
340
0
 70
     0
280
     1
281
     0
  0
BLOCK_RECORD
  5
270
330
1
100
AcDbSymbolTableRecord
100
AcDbBlockTableRecord
  2
*D7
340
0
 70
     0
280
     1
281
     0
  0
BLOCK_RECORD
  5
281
330
1
100
AcDbSymbolTableRecord
100
AcDbBlockTableRecord
  2
*D8
340
0
 70
     0
280
     1
281
     0
  0
BLOCK_RECORD
  5
291
330
1
100
AcDbSymbolTableRecord
100
AcDbBlockTableRecord
  2
*D9
340
0
 70
     0
280
     1
281
     0
  0
ENDTAB
  0
ENDSEC
  0
SECTION
  2
BLOCKS
  0
BLOCK
  5
5
330
2
100
AcDbEntity
  8
0
100
AcDbBlockBegin
  2
*Model_Space
 70
     0
 10
0.0
 20
0.0
 30
0.0
  3
*Model_Space
  1

  0
ENDBLK
  5
10
330
2
100
AcDbEntity
  8
0
100
AcDbBlockEnd
  0
BLOCK
  5
16
330
15
100
AcDbEntity
 67
     1
  8
0
100
AcDbBlockBegin
  2
*Paper_Space
 70
     0
 10
0.0
 20
0.0
 30
0.0
  3
*Paper_Space
  1

  0
ENDBLK
  5
17
330
15
100
AcDbEntity
 67
     1
  8
0
100
AcDbBlockEnd
  0
BLOCK
  5
EF
330
EE
100
AcDbEntity
  8
0
100
AcDbBlockBegin
  2
INT
 70
     0
 10
0.0
 20
0.0
 30
0.0
  3
INT
  1

  0
ARC
  5
F0
330
EE
100
AcDbEntity
  8
SH-01_INNER LEAD
100
AcDbCircle
 10
2.400000000000089
 20
-0.2499999999995452
 30
0.0
 40
0.1500000000000909
100
AcDbArc
 50
0.0
 51
180.0000000000423
  0
LINE
  5
F1
330
EE
100
AcDbEntity
  8
SH-01_INNER LEAD
100
AcDbLine
 10
2.550000000000181
 20
-0.2499999999995452
 30
0.0
 11
2.550000000000181
 21
-0.400000000000091
 31
0.0
  0
LINE
  5
F2
330
EE
100
AcDbEntity
  8
SH-01_INNER LEAD
100
AcDbLine
 10
2.550000000000181
 20
-0.400000000000091
 30
0.0
 11
2.922000000000025
 21
-0.4000000000003185
 31
0.0
  0
LINE
  5
F3
330
EE
100
AcDbEntity
  8
SH-01_INNER LEAD
100
AcDbLine
 10
2.922000000000025
 20
-0.4000000000003185
 30
0.0
 11
2.922000000000025
 21
-1.899999999999862
 31
0.0
  0
LINE
  5
F4
330
EE
100
AcDbEntity
  8
SH-01_INNER LEAD
100
AcDbLine
 10
2.922000000000025
 20
-1.899999999999862
 30
0.0
 11
2.550000000000181
 21
-1.899999999999862
 31
0.0
  0
LINE
  5
F5
330
EE
100
AcDbEntity
  8
SH-01_INNER LEAD
100
AcDbLine
 10
2.550000000000181
 20
-1.899999999999862
 30
0.0
 11
2.550000000000181
 21
-2.19999999999618
 31
0.0
  0
LINE
  5
F6
330
EE
100
AcDbEntity
  8
SH-01_INNER LEAD
100
AcDbLine
 10
2.550000000000181
 20
-2.19999999999618
 30
0.0
 11
2.684999999999148
 21
-2.199999999996009
 31
0.0
  0
LINE
  5
F7
330
EE
100
AcDbEntity
  8
SH-01_INNER LEAD
100
AcDbLine
 10
2.682499999999208
 20
-2.199999999996065
 30
0.0
 11
2.682499999999208
 21
-2.400000000001114
 31
0.0
  0
LINE
  5
F8
330
EE
100
AcDbEntity
  8
SH-01_INNER LEAD
100
AcDbLine
 10
2.68499999999912
 20
-2.400000000001
 30
0.0
 11
2.385000000000218
 21
-2.400000000001
 31
0.0
  0
LINE
  5
F9
330
EE
100
AcDbEntity
  8
SH-01_INNER LEAD
100
AcDbLine
 10
2.385000000000218
 20
-2.400000000001
 30
0.0
 11
2.384999999999763
 21
-1.900279480567632
 31
0.0
  0
LINE
  5
FA
330
EE
100
AcDbEntity
  8
SH-01_INNER LEAD
100
AcDbLine
 10
2.384999999999763
 20
-1.900279480567632
 30
0.0
 11
2.199999999999818
 21
-1.703470969929639
 31
0.0
  0
LINE
  5
FB
330
EE
100
AcDbEntity
  8
SH-01_INNER LEAD
100
AcDbLine
 10
2.199999999999818
 20
-1.703470969929639
 30
0.0
 11
2.199999999999818
 21
-0.9021408601925031
 31
0.0
  0
LINE
  5
FC
330
EE
100
AcDbEntity
  8
SH-01_INNER LEAD
100
AcDbLine
 10
2.199999999999818
 20
-0.9021408601925031
 30
0.0
 11
1.924712734042259
 21
-0.7189169429871072
 31
0.0
  0
LINE
  5
FD
330
EE
100
AcDbEntity
  8
SH-01_INNER LEAD
100
AcDbLine
 10
1.924712734042259
 20
-0.7189169429871072
 30
0.0
 11
1.924712734042259
 21
-0.4999618015654052
 31
0.0
  0
LINE
  5
FE
330
EE
100
AcDbEntity
  8
SH-01_INNER LEAD
100
AcDbLine
 10
1.924712734042259
 20
-0.4999618015654052
 30
0.0
 11
1.574717349497859
 21
-0.4499608895530402
 31
0.0
  0
LINE
  5
FF
330
EE
100
AcDbEntity
  8
SH-01_INNER LEAD
100
AcDbLine
 10
1.574717349497859
 20
-0.4499608895530402
 30
0.0
 11
1.574717349497859
 21
-0.8499966153326568
 31
0.0
  0
LINE
  5
100
330
EE
100
AcDbEntity
  8
SH-01_INNER LEAD
100
AcDbLine
 10
1.574717349497859
 20
-0.8499966153326568
 30
0.0
 11
1.924684838788379
 21
-0.9049230823366087
 31
0.0
  0
LINE
  5
101
330
EE
100
AcDbEntity
  8
SH-01_INNER LEAD
100
AcDbLine
 10
1.924684838788379
 20
-0.9049230823366087
 30
0.0
 11
2.050000000000181
 21
-0.9829923734246222
 31
0.0
  0
LINE
  5
102
330
EE
100
AcDbEntity
  8
SH-01_INNER LEAD
100
AcDbLine
 10
2.050000000000181
 20
-0.9829923734246222
 30
0.0
 11
2.050000000000181
 21
-1.754157794340016
 31
0.0
  0
LINE
  5
103
330
EE
100
AcDbEntity
  8
SH-01_INNER LEAD
100
AcDbLine
 10
2.050000000000181
 20
-1.754157794340016
 30
0.0
 11
2.164999999999963
 21
-1.900353980780436
 31
0.0
  0
LINE
  5
104
330
EE
100
AcDbEntity
  8
SH-01_INNER LEAD
100
AcDbLine
 10
2.164999999999963
 20
-1.900353980780436
 30
0.0
 11
2.164999999999963
 21
-2.400000000001
 31
0.0
  0
LINE
  5
105
330
EE
100
AcDbEntity
  8
SH-01_INNER LEAD
100
AcDbLine
 10
2.164999999999963
 20
-2.400000000001
 30
0.0
 11
1.735000000000126
 21
-2.400000000001
 31
0.0
  0
LINE
  5
106
330
EE
100
AcDbEntity
  8
SH-01_INNER LEAD
100
AcDbLine
 10
1.735000000000126
 20
-2.400000000001
 30
0.0
 11
1.734999999999671
 21
-1.99997230726626
 31
0.0
  0
LINE
  5
107
330
EE
100
AcDbEntity
  8
SH-01_INNER LEAD
100
AcDbLine
 10
1.734999999999671
 20
-1.99997230726626
 30
0.0
 11
1.875
 21
-1.99997230726626
 31
0.0
  0
LINE
  5
108
330
EE
100
AcDbEntity
  8
SH-01_INNER LEAD
100
AcDbLine
 10
1.875
 20
-1.99997230726626
 30
0.0
 11
1.875
 21
-1.13580592623407
 31
0.0
  0
LINE
  5
109
330
EE
100
AcDbEntity
  8
SH-01_INNER LEAD
100
AcDbLine
 10
1.875
 20
-1.13580592623407
 30
0.0
 11
1.574715457640195
 21
-1.050017152092095
 31
0.0
  0
LINE
  5
10A
330
EE
100
AcDbEntity
  8
SH-01_INNER LEAD
100
AcDbLine
 10
1.574715457640195
 20
-1.050017152092095
 30
0.0
 11
1.524716580255244
 21
-1.30002153879286
 31
0.0
  0
LINE
  5
10B
330
EE
100
AcDbEntity
  8
SH-01_INNER LEAD
100
AcDbLine
 10
1.524716580255244
 20
-1.30002153879286
 30
0.0
 11
1.407714780227252
 21
-1.51496484561312
 31
0.0
  0
LINE
  5
10C
330
EE
100
AcDbEntity
  8
SH-01_INNER LEAD
100
AcDbLine
 10
1.407714780227252
 20
-1.51496484561312
 30
0.0
 11
1.514999999999417
 21
-1.594070453721996
 31
0.0
  0
LINE
  5
10D
330
EE
100
AcDbEntity
  8
SH-01_INNER LEAD
100
AcDbLine
 10
1.514999999999417
 20
-1.594070453721996
 30
0.0
 11
1.514999999999871
 21
-2.400000000001
 31
0.0
  0
LINE
  5
10E
330
EE
100
AcDbEntity
  8
SH-01_INNER LEAD
100
AcDbLine
 10
1.514999999999871
 20
-2.400000000001
 30
0.0
 11
1.085000000000035
 21
-2.400000000001
 31
0.0
  0
LINE
  5
10F
330
EE
100
AcDbEntity
  8
SH-01_INNER LEAD
100
AcDbLine
 10
1.085000000000035
 20
-2.400000000001
 30
0.0
 11
1.085000000000035
 21
-1.97500000000059
 31
0.0
  0
LINE
  5
110
330
EE
100
AcDbEntity
  8
SH-01_INNER LEAD
100
AcDbLine
 10
1.085000000000035
 20
-1.97500000000059
 30
0.0
 11
1.224999999999909
 21
-1.900560679567887
 31
0.0
  0
LINE
  5
111
330
EE
100
AcDbEntity
  8
SH-01_INNER LEAD
100
AcDbLine
 10
1.224999999999909
 20
-1.900560679567887
 30
0.0
 11
1.224999999999909
 21
-1.575000000000045
 31
0.0
  0
LINE
  5
112
330
EE
100
AcDbEntity
  8
SH-01_INNER LEAD
100
AcDbLine
 10
1.224999999999909
 20
-1.575000000000045
 30
0.0
 11
0.7249999999999091
 21
-1.575000000000045
 31
0.0
  0
LINE
  5
113
330
EE
100
AcDbEntity
  8
SH-01_INNER LEAD
100
AcDbLine
 10
0.7249999999999091
 20
-1.575000000000045
 30
0.0
 11
0.7249999999999091
 21
-1.900560679568116
 31
0.0
  0
LINE
  5
114
330
EE
100
AcDbEntity
  8
SH-01_INNER LEAD
100
AcDbLine
 10
0.7249999999999091
 20
-1.900560679568116
 30
0.0
 11
0.8649999999997817
 21
-1.975000000000362
 31
0.0
  0
LINE
  5
115
330
EE
100
AcDbEntity
  8
SH-01_INNER LEAD
100
AcDbLine
 10
0.8649999999997817
 20
-1.975000000000362
 30
0.0
 11
0.8649999999997817
 21
-2.400000000001
 31
0.0
  0
LINE
  5
116
330
EE
100
AcDbEntity
  8
SH-01_INNER LEAD
100
AcDbLine
 10
0.8649999999997817
 20
-2.400000000001
 30
0.0
 11
0.4349999999999456
 21
-2.400000000001
 31
0.0
  0
LINE
  5
117
330
EE
100
AcDbEntity
  8
SH-01_INNER LEAD
100
AcDbLine
 10
0.4349999999999456
 20
-2.400000000001
 30
0.0
 11
0.4349999999994907
 21
-1.975000000001044
 31
0.0
  0
LINE
  5
118
330
EE
100
AcDbEntity
  8
SH-01_INNER LEAD
100
AcDbLine
 10
0.4349999999994907
 20
-1.975000000001044
 30
0.0
 11
0.5749999999998181
 21
-1.900560679568569
 31
0.0
  0
LINE
  5
119
330
EE
100
AcDbEntity
  8
SH-01_INNER LEAD
100
AcDbLine
 10
0.5749999999998181
 20
-1.900560679568569
 30
0.0
 11
0.5749999999998181
 21
-1.575000000000045
 31
0.0
  0
LINE
  5
11A
330
EE
100
AcDbEntity
  8
SH-01_INNER LEAD
100
AcDbLine
 10
0.5749999999998181
 20
-1.575000000000045
 30
0.0
 11
0.0749999999998181
 21
-1.575000000000045
 31
0.0
  0
LINE
  5
11B
330
EE
100
AcDbEntity
  8
SH-01_INNER LEAD
100
AcDbLine
 10
0.0749999999998181
 20
-1.575000000000045
 30
0.0
 11
0.0749999999998181
 21
-1.900560679568569
 31
0.0
  0
LINE
  5
11C
330
EE
100
AcDbEntity
  8
SH-01_INNER LEAD
100
AcDbLine
 10
0.0749999999998181
 20
-1.900560679568569
 30
0.0
 11
0.2149999999996908
 21
-1.975000000001044
 31
0.0
  0
LINE
  5
11D
330
EE
100
AcDbEntity
  8
SH-01_INNER LEAD
100
AcDbLine
 10
0.2149999999996908
 20
-1.975000000001044
 30
0.0
 11
0.2150000000001455
 21
-2.400000000001
 31
0.0
  0
LINE
  5
11E
330
EE
100
AcDbEntity
  8
SH-01_INNER LEAD
100
AcDbLine
 10
0.2150000000001455
 20
-2.400000000001
 30
0.0
 11
0.0000000000009095
 21
-2.400000000001
 31
0.0
  0
LINE
  5
11F
330
EE
100
AcDbEntity
  8
SH-01_INNER LEAD
100
AcDbLine
 10
0.0000000000009095
 20
-2.400000000001
 30
0.0
 11
-0.2149999999983265
 21
-2.400000000001
 31
0.0
  0
LINE
  5
120
330
EE
100
AcDbEntity
  8
SH-01_INNER LEAD
100
AcDbLine
 10
-0.2149999999983265
 20
-2.400000000001
 30
0.0
 11
-0.214999999997417
 21
-1.975000000001044
 31
0.0
  0
LINE
  5
121
330
EE
100
AcDbEntity
  8
SH-01_INNER LEAD
100
AcDbLine
 10
-0.214999999997417
 20
-1.975000000001044
 30
0.0
 11
-0.0749999999979991
 21
-1.900560679568569
 31
0.0
  0
LINE
  5
122
330
EE
100
AcDbEntity
  8
SH-01_INNER LEAD
100
AcDbLine
 10
-0.0749999999979991
 20
-1.900560679568569
 30
0.0
 11
-0.0749999999979991
 21
-1.575000000000045
 31
0.0
  0
LINE
  5
123
330
EE
100
AcDbEntity
  8
SH-01_INNER LEAD
100
AcDbLine
 10
-0.0749999999979991
 20
-1.575000000000045
 30
0.0
 11
-0.5749999999979992
 21
-1.575000000000045
 31
0.0
  0
LINE
  5
124
330
EE
100
AcDbEntity
  8
SH-01_INNER LEAD
100
AcDbLine
 10
-0.5749999999979992
 20
-1.575000000000045
 30
0.0
 11
-0.5749999999979992
 21
-1.900560679568569
 31
0.0
  0
LINE
  5
125
330
EE
100
AcDbEntity
  8
SH-01_INNER LEAD
100
AcDbLine
 10
-0.5749999999979992
 20
-1.900560679568569
 30
0.0
 11
-0.4349999999976717
 21
-1.975000000001044
 31
0.0
  0
LINE
  5
126
330
EE
100
AcDbEntity
  8
SH-01_INNER LEAD
100
AcDbLine
 10
-0.4349999999976717
 20
-1.975000000001044
 30
0.0
 11
-0.4349999999981266
 21
-2.400000000001
 31
0.0
  0
LINE
  5
127
330
EE
100
AcDbEntity
  8
SH-01_INNER LEAD
100
AcDbLine
 10
-0.4349999999981266
 20
-2.400000000001
 30
0.0
 11
-0.8649999999979627
 21
-2.400000000001
 31
0.0
  0
LINE
  5
128
330
EE
100
AcDbEntity
  8
SH-01_INNER LEAD
100
AcDbLine
 10
-0.8649999999979627
 20
-2.400000000001
 30
0.0
 11
-0.8649999999979627
 21
-1.975000000000362
 31
0.0
  0
LINE
  5
129
330
EE
100
AcDbEntity
  8
SH-01_INNER LEAD
100
AcDbLine
 10
-0.8649999999979627
 20
-1.975000000000362
 30
0.0
 11
-0.7249999999980901
 21
-1.900560679568116
 31
0.0
  0
LINE
  5
12A
330
EE
100
AcDbEntity
  8
SH-01_INNER LEAD
100
AcDbLine
 10
-0.7249999999980901
 20
-1.900560679568116
 30
0.0
 11
-0.7249999999980901
 21
-1.575000000000045
 31
0.0
  0
LINE
  5
12B
330
EE
100
AcDbEntity
  8
SH-01_INNER LEAD
100
AcDbLine
 10
-0.7249999999980901
 20
-1.575000000000045
 30
0.0
 11
-1.22499999999809
 21
-1.575000000000045
 31
0.0
  0
LINE
  5
12C
330
EE
100
AcDbEntity
  8
SH-01_INNER LEAD
100
AcDbLine
 10
-1.22499999999809
 20
-1.575000000000045
 30
0.0
 11
-1.22499999999809
 21
-1.900560679567887
 31
0.0
  0
LINE
  5
12D
330
EE
100
AcDbEntity
  8
SH-01_INNER LEAD
100
AcDbLine
 10
-1.22499999999809
 20
-1.900560679567887
 30
0.0
 11
-1.084999999997762
 21
-1.97500000000059
 31
0.0
  0
LINE
  5
12E
330
EE
100
AcDbEntity
  8
SH-01_INNER LEAD
100
AcDbLine
 10
-1.084999999997762
 20
-1.97500000000059
 30
0.0
 11
-1.084999999998217
 21
-2.400000000001
 31
0.0
  0
LINE
  5
12F
330
EE
100
AcDbEntity
  8
SH-01_INNER LEAD
100
AcDbLine
 10
-1.084999999998217
 20
-2.400000000001
 30
0.0
 11
-1.514999999998053
 21
-2.400000000001
 31
0.0
  0
LINE
  5
130
330
EE
100
AcDbEntity
  8
SH-01_INNER LEAD
100
AcDbLine
 10
-1.514999999998053
 20
-2.400000000001
 30
0.0
 11
-1.514999999997598
 21
-1.594070453721996
 31
0.0
  0
LINE
  5
131
330
EE
100
AcDbEntity
  8
SH-01_INNER LEAD
100
AcDbLine
 10
-1.514999999997598
 20
-1.594070453721996
 30
0.0
 11
-1.407714780225433
 21
-1.51496484561312
 31
0.0
  0
LINE
  5
132
330
EE
100
AcDbEntity
  8
SH-01_INNER LEAD
100
AcDbLine
 10
-1.407714780225433
 20
-1.51496484561312
 30
0.0
 11
-1.524716580252969
 21
-1.30002153879286
 31
0.0
  0
LINE
  5
133
330
EE
100
AcDbEntity
  8
SH-01_INNER LEAD
100
AcDbLine
 10
-1.524716580252969
 20
-1.30002153879286
 30
0.0
 11
-1.574715457638375
 21
-1.050017152092095
 31
0.0
  0
LINE
  5
134
330
EE
100
AcDbEntity
  8
SH-01_INNER LEAD
100
AcDbLine
 10
-1.574715457638375
 20
-1.050017152092095
 30
0.0
 11
-1.87499999999818
 21
-1.13580592623407
 31
0.0
  0
LINE
  5
135
330
EE
100
AcDbEntity
  8
SH-01_INNER LEAD
100
AcDbLine
 10
-1.87499999999818
 20
-1.13580592623407
 30
0.0
 11
-1.87499999999818
 21
-1.99997230726626
 31
0.0
  0
LINE
  5
136
330
EE
100
AcDbEntity
  8
SH-01_INNER LEAD
100
AcDbLine
 10
-1.87499999999818
 20
-1.99997230726626
 30
0.0
 11
-1.734999999997853
 21
-1.99997230726626
 31
0.0
  0
LINE
  5
137
330
EE
100
AcDbEntity
  8
SH-01_INNER LEAD
100
AcDbLine
 10
-1.734999999997853
 20
-1.99997230726626
 30
0.0
 11
-1.734999999997853
 21
-2.400000000001
 31
0.0
  0
LINE
  5
138
330
EE
100
AcDbEntity
  8
SH-01_INNER LEAD
100
AcDbLine
 10
-1.734999999997853
 20
-2.400000000001
 30
0.0
 11
-2.164999999998143
 21
-2.400000000001
 31
0.0
  0
LINE
  5
139
330
EE
100
AcDbEntity
  8
SH-01_INNER LEAD
100
AcDbLine
 10
-2.164999999998143
 20
-2.400000000001
 30
0.0
 11
-2.164999999998143
 21
-1.900353980780436
 31
0.0
  0
LINE
  5
13A
330
EE
100
AcDbEntity
  8
SH-01_INNER LEAD
100
AcDbLine
 10
-2.164999999998143
 20
-1.900353980780436
 30
0.0
 11
-2.049999999998361
 21
-1.754157794340016
 31
0.0
  0
LINE
  5
13B
330
EE
100
AcDbEntity
  8
SH-01_INNER LEAD
100
AcDbLine
 10
-2.049999999998361
 20
-1.754157794340016
 30
0.0
 11
-2.049999999998361
 21
-0.9829923734246222
 31
0.0
  0
LINE
  5
13C
330
EE
100
AcDbEntity
  8
SH-01_INNER LEAD
100
AcDbLine
 10
-2.049999999998361
 20
-0.9829923734246222
 30
0.0
 11
-1.92468483878656
 21
-0.9049230823366087
 31
0.0
  0
LINE
  5
13D
330
EE
100
AcDbEntity
  8
SH-01_INNER LEAD
100
AcDbLine
 10
-1.92468483878656
 20
-0.9049230823366087
 30
0.0
 11
-1.574717349495585
 21
-0.8499966153326568
 31
0.0
  0
LINE
  5
13E
330
EE
100
AcDbEntity
  8
SH-01_INNER LEAD
100
AcDbLine
 10
-1.574717349495585
 20
-0.8499966153326568
 30
0.0
 11
-1.574717349495585
 21
-0.4499608895530402
 31
0.0
  0
LINE
  5
13F
330
EE
100
AcDbEntity
  8
SH-01_INNER LEAD
100
AcDbLine
 10
-1.574717349495585
 20
-0.4499608895530402
 30
0.0
 11
-1.92471273404044
 21
-0.4999618015654052
 31
0.0
  0
LINE
  5
140
330
EE
100
AcDbEntity
  8
SH-01_INNER LEAD
100
AcDbLine
 10
-1.92471273404044
 20
-0.4999618015654052
 30
0.0
 11
-1.92471273404044
 21
-0.7189169429871072
 31
0.0
  0
LINE
  5
141
330
EE
100
AcDbEntity
  8
SH-01_INNER LEAD
100
AcDbLine
 10
-1.92471273404044
 20
-0.7189169429871072
 30
0.0
 11
-2.199999999997999
 21
-0.9021408601925031
 31
0.0
  0
LINE
  5
142
330
EE
100
AcDbEntity
  8
SH-01_INNER LEAD
100
AcDbLine
 10
-2.199999999997999
 20
-0.9021408601925031
 30
0.0
 11
-2.199999999997999
 21
-1.703470969929639
 31
0.0
  0
LINE
  5
143
330
EE
100
AcDbEntity
  8
SH-01_INNER LEAD
100
AcDbLine
 10
-2.199999999997999
 20
-1.703470969929639
 30
0.0
 11
-2.384999999997489
 21
-1.900279480567632
 31
0.0
  0
LINE
  5
144
330
EE
100
AcDbEntity
  8
SH-01_INNER LEAD
100
AcDbLine
 10
-2.384999999997489
 20
-1.900279480567632
 30
0.0
 11
-2.384999999997944
 21
-2.400000000001
 31
0.0
  0
LINE
  5
145
330
EE
100
AcDbEntity
  8
SH-01_INNER LEAD
100
AcDbLine
 10
-2.384999999997944
 20
-2.400000000001
 30
0.0
 11
-2.685000000000997
 21
-2.400000000001
 31
0.0
  0
LINE
  5
146
330
EE
100
AcDbEntity
  8
SH-01_INNER LEAD
100
AcDbLine
 10
-2.685000000000968
 20
-2.400000000001
 30
0.0
 11
-2.685000000000968
 21
-2.199999999997088
 31
0.0
  0
LINE
  5
147
330
EE
100
AcDbEntity
  8
SH-01_INNER LEAD
100
AcDbLine
 10
-2.685000000000997
 20
-2.199999999997088
 30
0.0
 11
-2.549999999999271
 21
-2.199999999997088
 31
0.0
  0
LINE
  5
148
330
EE
100
AcDbEntity
  8
SH-01_INNER LEAD
100
AcDbLine
 10
-2.549999999999271
 20
-2.199999999997088
 30
0.0
 11
-2.549999999997908
 21
-0.2499999999995452
 31
0.0
  0
ARC
  5
149
330
EE
100
AcDbEntity
  8
SH-01_INNER LEAD
100
AcDbCircle
 10
-2.399999999997816
 20
-0.2499999999995452
 30
0.0
 40
0.1499999999998636
100
AcDbArc
 50
359.9999999999544
 51
180.0
  0
LINE
  5
14A
330
EE
100
AcDbEntity
  8
SH-01_INNER LEAD
100
AcDbLine
 10
-2.249999999998181
 20
-0.2499999999995452
 30
0.0
 11
-2.249999999998181
 21
-0.2999999999994998
 31
0.0
  0
LINE
  5
14B
330
EE
100
AcDbEntity
  8
SH-01_INNER LEAD
100
AcDbLine
 10
-2.249999999998181
 20
-0.2999999999994998
 30
0.0
 11
-2.09999999999809
 21
-0.2999999999997271
 31
0.0
  0
LINE
  5
14C
330
EE
100
AcDbEntity
  8
SH-01_INNER LEAD
100
AcDbLine
 10
-2.09999999999809
 20
-0.2999999999997271
 30
0.0
 11
-2.09999999999809
 21
-0.1499528454285155
 31
0.0
  0
LINE
  5
14D
330
EE
100
AcDbEntity
  8
SH-01_INNER LEAD
100
AcDbLine
 10
-2.09999999999809
 20
-0.1499528454285155
 30
0.0
 11
-1.425000000000181
 21
-0.1499528454285155
 31
0.0
  0
LINE
  5
14E
330
EE
100
AcDbEntity
  8
SH-01_INNER LEAD
100
AcDbLine
 10
-1.425000000000181
 20
-0.1499528454285155
 30
0.0
 11
-1.425000000000181
 21
-0.1999528454300616
 31
0.0
  0
LINE
  5
14F
330
EE
100
AcDbEntity
  8
SH-01_INNER LEAD
100
AcDbLine
 10
-1.425000000000181
 20
-0.1999528454300616
 30
0.0
 11
-1.324999999997999
 21
-0.1999528454300616
 31
0.0
  0
LINE
  5
150
330
EE
100
AcDbEntity
  8
SH-01_INNER LEAD
100
AcDbLine
 10
-1.324999999997999
 20
-0.1999528454300616
 30
0.0
 11
-1.324999999998452
 21
-1.125
 31
0.0
  0
ARC
  5
151
330
EE
100
AcDbEntity
  8
SH-01_INNER LEAD
100
AcDbCircle
 10
-1.124999999998635
 20
-1.125
 30
0.0
 40
0.1999999999998181
100
AcDbArc
 50
180.0
 51
270.0000000000652
  0
LINE
  5
152
330
EE
100
AcDbEntity
  8
SH-01_INNER LEAD
100
AcDbLine
 10
-1.12499999999818
 20
-1.325000000000044
 30
0.0
 11
0.000000000001819
 21
-1.325000000000044
 31
0.0
  0
LINE
  5
153
330
EE
100
AcDbEntity
  8
SH-01_INNER LEAD
100
AcDbLine
 10
0.000000000001819
 20
-1.325000000000044
 30
0.0
 11
1.125000000000454
 21
-1.325000000000044
 31
0.0
  0
ARC
  5
154
330
EE
100
AcDbEntity
  8
SH-01_INNER LEAD
100
AcDbCircle
 10
1.125000000000454
 20
-1.125
 30
0.0
 40
0.1999999999999318
100
AcDbArc
 50
270.0
 51
0.0000000000325689
  0
LINE
  5
155
330
EE
100
AcDbEntity
  8
SH-01_INNER LEAD
100
AcDbLine
 10
1.325000000000271
 20
-1.125
 30
0.0
 11
1.324999999999817
 21
-0.1999528454300616
 31
0.0
  0
LINE
  5
156
330
EE
100
AcDbEntity
  8
SH-01_INNER LEAD
100
AcDbLine
 10
1.324999999999817
 20
-0.1999528454300616
 30
0.0
 11
1.425000000000181
 21
-0.1999528454300616
 31
0.0
  0
LINE
  5
157
330
EE
100
AcDbEntity
  8
SH-01_INNER LEAD
100
AcDbLine
 10
1.425000000000181
 20
-0.1999528454300616
 30
0.0
 11
1.425000000000181
 21
-0.1499528454285155
 31
0.0
  0
LINE
  5
158
330
EE
100
AcDbEntity
  8
SH-01_INNER LEAD
100
AcDbLine
 10
1.425000000000181
 20
-0.1499528454285155
 30
0.0
 11
2.100000000000362
 21
-0.1499528454285155
 31
0.0
  0
LINE
  5
159
330
EE
100
AcDbEntity
  8
SH-01_INNER LEAD
100
AcDbLine
 10
2.100000000000362
 20
-0.1499528454285155
 30
0.0
 11
2.100000000000362
 21
-0.2999999999997271
 31
0.0
  0
LINE
  5
15A
330
EE
100
AcDbEntity
  8
SH-01_INNER LEAD
100
AcDbLine
 10
2.100000000000362
 20
-0.2999999999997271
 30
0.0
 11
2.25
 21
-0.2999999999994998
 31
0.0
  0
LINE
  5
15B
330
EE
100
AcDbEntity
  8
SH-01_INNER LEAD
100
AcDbLine
 10
2.25
 20
-0.2999999999994998
 30
0.0
 11
2.25
 21
-0.2499999999995452
 31
0.0
  0
LINE
  5
15C
330
EE
100
AcDbEntity
  8
SH-01_INNER LEAD
100
AcDbLine
 10
2.100000000000362
 20
0.2999999999985903
 30
0.0
 11
2.100000000000362
 21
0.1499528454273786
 31
0.0
  0
LINE
  5
15D
330
EE
100
AcDbEntity
  8
SH-01_INNER LEAD
100
AcDbLine
 10
2.100000000000362
 20
0.1499528454273786
 30
0.0
 11
1.425000000000181
 21
0.1499528454273786
 31
0.0
  0
LINE
  5
15E
330
EE
100
AcDbEntity
  8
SH-01_INNER LEAD
100
AcDbLine
 10
1.425000000000181
 20
0.1499528454273786
 30
0.0
 11
1.425000000000181
 21
0.1999528454273331
 31
0.0
  0
LINE
  5
15F
330
EE
100
AcDbEntity
  8
SH-01_INNER LEAD
100
AcDbLine
 10
1.425000000000181
 20
0.1999528454273331
 30
0.0
 11
1.324999999999817
 21
0.1999528454273331
 31
0.0
  0
LINE
  5
160
330
EE
100
AcDbEntity
  8
SH-01_INNER LEAD
100
AcDbLine
 10
1.324999999999817
 20
0.1999528454273331
 30
0.0
 11
1.325000000000271
 21
1.124999999998863
 31
0.0
  0
ARC
  5
161
330
EE
100
AcDbEntity
  8
SH-01_INNER LEAD
100
AcDbCircle
 10
1.125000000000454
 20
1.12499999999909
 30
0.0
 40
0.1999999999998181
100
AcDbArc
 50
359.9999999999675
 51
90.0
  0
LINE
  5
162
330
EE
100
AcDbEntity
  8
SH-01_INNER LEAD
100
AcDbLine
 10
1.125000000000454
 20
1.324999999998907
 30
0.0
 11
0.000000000001819
 21
1.324999999998907
 31
0.0
  0
LINE
  5
163
330
EE
100
AcDbEntity
  8
SH-01_INNER LEAD
100
AcDbLine
 10
0.000000000001819
 20
1.324999999998907
 30
0.0
 11
-1.12499999999818
 21
1.324999999998907
 31
0.0
  0
ARC
  5
164
330
EE
100
AcDbEntity
  8
SH-01_INNER LEAD
100
AcDbCircle
 10
-1.124999999998635
 20
1.124999999998863
 30
0.0
 40
0.2000000000000455
100
AcDbArc
 50
89.99999999993486
 51
180.0
  0
LINE
  5
165
330
EE
100
AcDbEntity
  8
SH-01_INNER LEAD
100
AcDbLine
 10
-1.324999999998452
 20
1.124999999998863
 30
0.0
 11
-1.324999999997999
 21
0.1999528454273331
 31
0.0
  0
LINE
  5
166
330
EE
100
AcDbEntity
  8
SH-01_INNER LEAD
100
AcDbLine
 10
-1.324999999997999
 20
0.1999528454273331
 30
0.0
 11
-1.425000000000181
 21
0.1999528454273331
 31
0.0
  0
LINE
  5
167
330
EE
100
AcDbEntity
  8
SH-01_INNER LEAD
100
AcDbLine
 10
-1.425000000000181
 20
0.1999528454273331
 30
0.0
 11
-1.425000000000181
 21
0.1499528454273786
 31
0.0
  0
LINE
  5
168
330
EE
100
AcDbEntity
  8
SH-01_INNER LEAD
100
AcDbLine
 10
-1.425000000000181
 20
0.1499528454273786
 30
0.0
 11
-2.09999999999809
 21
0.1499528454273786
 31
0.0
  0
LINE
  5
169
330
EE
100
AcDbEntity
  8
SH-01_INNER LEAD
100
AcDbLine
 10
-2.09999999999809
 20
0.1499528454273786
 30
0.0
 11
-2.09999999999809
 21
0.2999999999985903
 31
0.0
  0
LINE
  5
16A
330
EE
100
AcDbEntity
  8
SH-01_INNER LEAD
100
AcDbLine
 10
-2.09999999999809
 20
0.2999999999985903
 30
0.0
 11
-2.249999999998181
 21
0.2999999999985903
 31
0.0
  0
LINE
  5
16B
330
EE
100
AcDbEntity
  8
SH-01_INNER LEAD
100
AcDbLine
 10
-2.249999999998181
 20
0.2999999999985903
 30
0.0
 11
-2.249999999998181
 21
0.2499999999984084
 31
0.0
  0
ARC
  5
16C
330
EE
100
AcDbEntity
  8
SH-01_INNER LEAD
100
AcDbCircle
 10
-2.399999999997816
 20
0.2499999999984084
 30
0.0
 40
0.1499999999998636
100
AcDbArc
 50
180.0
 51
0.0
  0
LINE
  5
16D
330
EE
100
AcDbEntity
  8
SH-01_INNER LEAD
100
AcDbLine
 10
-2.549999999997908
 20
0.2499999999984084
 30
0.0
 11
-2.549999999999271
 21
2.199999999995951
 31
0.0
  0
LINE
  5
16E
330
EE
100
AcDbEntity
  8
SH-01_INNER LEAD
100
AcDbLine
 10
-2.549999999999271
 20
2.199999999995951
 30
0.0
 11
-2.685000000000997
 21
2.199999999995781
 31
0.0
  0
LINE
  5
16F
330
EE
100
AcDbEntity
  8
SH-01_INNER LEAD
100
AcDbLine
 10
-2.685000000000968
 20
2.199999999995725
 30
0.0
 11
-2.685000000000968
 21
2.399999999999863
 31
0.0
  0
LINE
  5
170
330
EE
100
AcDbEntity
  8
SH-01_INNER LEAD
100
AcDbLine
 10
-2.685000000000997
 20
2.399999999999863
 30
0.0
 11
-2.384999999997944
 21
2.399999999999863
 31
0.0
  0
LINE
  5
171
330
EE
100
AcDbEntity
  8
SH-01_INNER LEAD
100
AcDbLine
 10
-2.384999999997944
 20
2.399999999999863
 30
0.0
 11
-2.384999999997489
 21
1.900279480566723
 31
0.0
  0
LINE
  5
172
330
EE
100
AcDbEntity
  8
SH-01_INNER LEAD
100
AcDbLine
 10
-2.384999999997489
 20
1.900279480566723
 30
0.0
 11
-2.199999999997999
 21
1.703470969928729
 31
0.0
  0
LINE
  5
173
330
EE
100
AcDbEntity
  8
SH-01_INNER LEAD
100
AcDbLine
 10
-2.199999999997999
 20
1.703470969928729
 30
0.0
 11
-2.199999999997999
 21
0.9021408601913664
 31
0.0
  0
LINE
  5
174
330
EE
100
AcDbEntity
  8
SH-01_INNER LEAD
100
AcDbLine
 10
-2.199999999997999
 20
0.9021408601913664
 30
0.0
 11
-1.92471273404044
 21
0.7189169429859703
 31
0.0
  0
LINE
  5
175
330
EE
100
AcDbEntity
  8
SH-01_INNER LEAD
100
AcDbLine
 10
-1.92471273404044
 20
0.7189169429859703
 30
0.0
 11
-1.92471273404044
 21
0.4999618015642683
 31
0.0
  0
LINE
  5
176
330
EE
100
AcDbEntity
  8
SH-01_INNER LEAD
100
AcDbLine
 10
-1.92471273404044
 20
0.4999618015642683
 30
0.0
 11
-1.574717349495585
 21
0.4499608895521307
 31
0.0
  0
LINE
  5
177
330
EE
100
AcDbEntity
  8
SH-01_INNER LEAD
100
AcDbLine
 10
-1.574717349495585
 20
0.4499608895521307
 30
0.0
 11
-1.574717349495585
 21
0.8499966153315199
 31
0.0
  0
LINE
  5
178
330
EE
100
AcDbEntity
  8
SH-01_INNER LEAD
100
AcDbLine
 10
-1.574717349495585
 20
0.8499966153315199
 30
0.0
 11
-1.92468483878656
 21
0.904923082335472
 31
0.0
  0
LINE
  5
179
330
EE
100
AcDbEntity
  8
SH-01_INNER LEAD
100
AcDbLine
 10
-1.92468483878656
 20
0.904923082335472
 30
0.0
 11
-2.049999999998361
 21
0.9829923734234851
 31
0.0
  0
LINE
  5
17A
330
EE
100
AcDbEntity
  8
SH-01_INNER LEAD
100
AcDbLine
 10
-2.049999999998361
 20
0.9829923734234851
 30
0.0
 11
-2.049999999998361
 21
1.75415779433888
 31
0.0
  0
LINE
  5
17B
330
EE
100
AcDbEntity
  8
SH-01_INNER LEAD
100
AcDbLine
 10
-2.049999999998361
 20
1.75415779433888
 30
0.0
 11
-2.164999999998143
 21
1.9003539807793
 31
0.0
  0
LINE
  5
17C
330
EE
100
AcDbEntity
  8
SH-01_INNER LEAD
100
AcDbLine
 10
-2.164999999998143
 20
1.9003539807793
 30
0.0
 11
-2.164999999998143
 21
2.399999999999863
 31
0.0
  0
LINE
  5
17D
330
EE
100
AcDbEntity
  8
SH-01_INNER LEAD
100
AcDbLine
 10
-2.164999999998143
 20
2.399999999999863
 30
0.0
 11
-1.734999999997853
 21
2.399999999999863
 31
0.0
  0
LINE
  5
17E
330
EE
100
AcDbEntity
  8
SH-01_INNER LEAD
100
AcDbLine
 10
-1.734999999997853
 20
2.399999999999863
 30
0.0
 11
-1.734999999997853
 21
1.999972307265124
 31
0.0
  0
LINE
  5
17F
330
EE
100
AcDbEntity
  8
SH-01_INNER LEAD
100
AcDbLine
 10
-1.734999999997853
 20
1.999972307265124
 30
0.0
 11
-1.87499999999818
 21
1.999972307265124
 31
0.0
  0
LINE
  5
180
330
EE
100
AcDbEntity
  8
SH-01_INNER LEAD
100
AcDbLine
 10
-1.87499999999818
 20
1.999972307265124
 30
0.0
 11
-1.87499999999818
 21
1.135805926232932
 31
0.0
  0
LINE
  5
181
330
EE
100
AcDbEntity
  8
SH-01_INNER LEAD
100
AcDbLine
 10
-1.87499999999818
 20
1.135805926232932
 30
0.0
 11
-1.574715457638375
 21
1.050017152090958
 31
0.0
  0
LINE
  5
182
330
EE
100
AcDbEntity
  8
SH-01_INNER LEAD
100
AcDbLine
 10
-1.574715457638375
 20
1.050017152090958
 30
0.0
 11
-1.524716580252969
 21
1.300021538791952
 31
0.0
  0
LINE
  5
183
330
EE
100
AcDbEntity
  8
SH-01_INNER LEAD
100
AcDbLine
 10
-1.524716580252969
 20
1.300021538791952
 30
0.0
 11
-1.407714780225433
 21
1.514964845611984
 31
0.0
  0
LINE
  5
184
330
EE
100
AcDbEntity
  8
SH-01_INNER LEAD
100
AcDbLine
 10
-1.407714780225433
 20
1.514964845611984
 30
0.0
 11
-1.514999999997598
 21
1.59407045372086
 31
0.0
  0
LINE
  5
185
330
EE
100
AcDbEntity
  8
SH-01_INNER LEAD
100
AcDbLine
 10
-1.514999999997598
 20
1.59407045372086
 30
0.0
 11
-1.514999999998053
 21
2.399999999999863
 31
0.0
  0
LINE
  5
186
330
EE
100
AcDbEntity
  8
SH-01_INNER LEAD
100
AcDbLine
 10
-1.514999999998053
 20
2.399999999999863
 30
0.0
 11
-1.084999999998217
 21
2.399999999999863
 31
0.0
  0
LINE
  5
187
330
EE
100
AcDbEntity
  8
SH-01_INNER LEAD
100
AcDbLine
 10
-1.084999999998217
 20
2.399999999999863
 30
0.0
 11
-1.084999999997762
 21
1.97499999999968
 31
0.0
  0
LINE
  5
188
330
EE
100
AcDbEntity
  8
SH-01_INNER LEAD
100
AcDbLine
 10
-1.084999999997762
 20
1.97499999999968
 30
0.0
 11
-1.22499999999809
 21
1.900560679566979
 31
0.0
  0
LINE
  5
189
330
EE
100
AcDbEntity
  8
SH-01_INNER LEAD
100
AcDbLine
 10
-1.22499999999809
 20
1.900560679566979
 30
0.0
 11
-1.22499999999809
 21
1.574999999998908
 31
0.0
  0
LINE
  5
18A
330
EE
100
AcDbEntity
  8
SH-01_INNER LEAD
100
AcDbLine
 10
-1.22499999999809
 20
1.574999999998908
 30
0.0
 11
-0.7249999999980901
 21
1.574999999998908
 31
0.0
  0
LINE
  5
18B
330
EE
100
AcDbEntity
  8
SH-01_INNER LEAD
100
AcDbLine
 10
-0.7249999999980901
 20
1.574999999998908
 30
0.0
 11
-0.7249999999980901
 21
1.900560679566979
 31
0.0
  0
LINE
  5
18C
330
EE
100
AcDbEntity
  8
SH-01_INNER LEAD
100
AcDbLine
 10
-0.7249999999980901
 20
1.900560679566979
 30
0.0
 11
-0.8649999999979627
 21
1.974999999999225
 31
0.0
  0
LINE
  5
18D
330
EE
100
AcDbEntity
  8
SH-01_INNER LEAD
100
AcDbLine
 10
-0.8649999999979627
 20
1.974999999999225
 30
0.0
 11
-0.8649999999979627
 21
2.399999999999863
 31
0.0
  0
LINE
  5
18E
330
EE
100
AcDbEntity
  8
SH-01_INNER LEAD
100
AcDbLine
 10
-0.8649999999979627
 20
2.399999999999863
 30
0.0
 11
-0.4349999999981266
 21
2.399999999999863
 31
0.0
  0
LINE
  5
18F
330
EE
100
AcDbEntity
  8
SH-01_INNER LEAD
100
AcDbLine
 10
-0.4349999999981266
 20
2.399999999999863
 30
0.0
 11
-0.4349999999976717
 21
1.974999999999909
 31
0.0
  0
LINE
  5
190
330
EE
100
AcDbEntity
  8
SH-01_INNER LEAD
100
AcDbLine
 10
-0.4349999999976717
 20
1.974999999999909
 30
0.0
 11
-0.5749999999979992
 21
1.900560679567433
 31
0.0
  0
LINE
  5
191
330
EE
100
AcDbEntity
  8
SH-01_INNER LEAD
100
AcDbLine
 10
-0.5749999999979992
 20
1.900560679567433
 30
0.0
 11
-0.5749999999979992
 21
1.574999999998908
 31
0.0
  0
LINE
  5
192
330
EE
100
AcDbEntity
  8
SH-01_INNER LEAD
100
AcDbLine
 10
-0.5749999999979992
 20
1.574999999998908
 30
0.0
 11
-0.0749999999979991
 21
1.574999999998908
 31
0.0
  0
LINE
  5
193
330
EE
100
AcDbEntity
  8
SH-01_INNER LEAD
100
AcDbLine
 10
-0.0749999999979991
 20
1.574999999998908
 30
0.0
 11
-0.0749999999979991
 21
1.900560679567433
 31
0.0
  0
LINE
  5
194
330
EE
100
AcDbEntity
  8
SH-01_INNER LEAD
100
AcDbLine
 10
-0.0749999999979991
 20
1.900560679567433
 30
0.0
 11
-0.214999999997417
 21
1.974999999999909
 31
0.0
  0
LINE
  5
195
330
EE
100
AcDbEntity
  8
SH-01_INNER LEAD
100
AcDbLine
 10
-0.214999999997417
 20
1.974999999999909
 30
0.0
 11
-0.2149999999983265
 21
2.399999999999863
 31
0.0
  0
LINE
  5
196
330
EE
100
AcDbEntity
  8
SH-01_INNER LEAD
100
AcDbLine
 10
-0.2149999999983265
 20
2.399999999999863
 30
0.0
 11
0.0000000000009095
 21
2.399999999999863
 31
0.0
  0
LINE
  5
197
330
EE
100
AcDbEntity
  8
SH-01_INNER LEAD
100
AcDbLine
 10
0.0000000000009095
 20
2.399999999999863
 30
0.0
 11
0.2150000000001455
 21
2.399999999999863
 31
0.0
  0
LINE
  5
198
330
EE
100
AcDbEntity
  8
SH-01_INNER LEAD
100
AcDbLine
 10
0.2150000000001455
 20
2.399999999999863
 30
0.0
 11
0.2149999999996908
 21
1.974999999999909
 31
0.0
  0
LINE
  5
199
330
EE
100
AcDbEntity
  8
SH-01_INNER LEAD
100
AcDbLine
 10
0.2149999999996908
 20
1.974999999999909
 30
0.0
 11
0.0749999999998181
 21
1.900560679567433
 31
0.0
  0
LINE
  5
19A
330
EE
100
AcDbEntity
  8
SH-01_INNER LEAD
100
AcDbLine
 10
0.0749999999998181
 20
1.900560679567433
 30
0.0
 11
0.0749999999998181
 21
1.574999999998908
 31
0.0
  0
LINE
  5
19B
330
EE
100
AcDbEntity
  8
SH-01_INNER LEAD
100
AcDbLine
 10
0.0749999999998181
 20
1.574999999998908
 30
0.0
 11
0.5749999999998181
 21
1.574999999998908
 31
0.0
  0
LINE
  5
19C
330
EE
100
AcDbEntity
  8
SH-01_INNER LEAD
100
AcDbLine
 10
0.5749999999998181
 20
1.574999999998908
 30
0.0
 11
0.5749999999998181
 21
1.900560679567433
 31
0.0
  0
LINE
  5
19D
330
EE
100
AcDbEntity
  8
SH-01_INNER LEAD
100
AcDbLine
 10
0.5749999999998181
 20
1.900560679567433
 30
0.0
 11
0.4349999999994907
 21
1.974999999999909
 31
0.0
  0
LINE
  5
19E
330
EE
100
AcDbEntity
  8
SH-01_INNER LEAD
100
AcDbLine
 10
0.4349999999994907
 20
1.974999999999909
 30
0.0
 11
0.4349999999999456
 21
2.399999999999863
 31
0.0
  0
LINE
  5
19F
330
EE
100
AcDbEntity
  8
SH-01_INNER LEAD
100
AcDbLine
 10
0.4349999999999456
 20
2.399999999999863
 30
0.0
 11
0.8649999999997817
 21
2.399999999999863
 31
0.0
  0
LINE
  5
1A0
330
EE
100
AcDbEntity
  8
SH-01_INNER LEAD
100
AcDbLine
 10
0.8649999999997817
 20
2.399999999999863
 30
0.0
 11
0.8649999999997817
 21
1.974999999999225
 31
0.0
  0
LINE
  5
1A1
330
EE
100
AcDbEntity
  8
SH-01_INNER LEAD
100
AcDbLine
 10
0.8649999999997817
 20
1.974999999999225
 30
0.0
 11
0.7249999999999091
 21
1.900560679566979
 31
0.0
  0
LINE
  5
1A2
330
EE
100
AcDbEntity
  8
SH-01_INNER LEAD
100
AcDbLine
 10
0.7249999999999091
 20
1.900560679566979
 30
0.0
 11
0.7249999999999091
 21
1.574999999998908
 31
0.0
  0
LINE
  5
1A3
330
EE
100
AcDbEntity
  8
SH-01_INNER LEAD
100
AcDbLine
 10
0.7249999999999091
 20
1.574999999998908
 30
0.0
 11
1.224999999999909
 21
1.574999999998908
 31
0.0
  0
LINE
  5
1A4
330
EE
100
AcDbEntity
  8
SH-01_INNER LEAD
100
AcDbLine
 10
1.224999999999909
 20
1.574999999998908
 30
0.0
 11
1.224999999999909
 21
1.900560679566979
 31
0.0
  0
LINE
  5
1A5
330
EE
100
AcDbEntity
  8
SH-01_INNER LEAD
100
AcDbLine
 10
1.224999999999909
 20
1.900560679566979
 30
0.0
 11
1.085000000000035
 21
1.97499999999968
 31
0.0
  0
LINE
  5
1A6
330
EE
100
AcDbEntity
  8
SH-01_INNER LEAD
100
AcDbLine
 10
1.085000000000035
 20
1.97499999999968
 30
0.0
 11
1.085000000000035
 21
2.399999999999863
 31
0.0
  0
LINE
  5
1A7
330
EE
100
AcDbEntity
  8
SH-01_INNER LEAD
100
AcDbLine
 10
1.085000000000035
 20
2.399999999999863
 30
0.0
 11
1.514999999999871
 21
2.399999999999863
 31
0.0
  0
LINE
  5
1A8
330
EE
100
AcDbEntity
  8
SH-01_INNER LEAD
100
AcDbLine
 10
1.514999999999871
 20
2.399999999999863
 30
0.0
 11
1.514999999999417
 21
1.59407045372086
 31
0.0
  0
LINE
  5
1A9
330
EE
100
AcDbEntity
  8
SH-01_INNER LEAD
100
AcDbLine
 10
1.514999999999417
 20
1.59407045372086
 30
0.0
 11
1.407714780227252
 21
1.514964845611984
 31
0.0
  0
LINE
  5
1AA
330
EE
100
AcDbEntity
  8
SH-01_INNER LEAD
100
AcDbLine
 10
1.407714780227252
 20
1.514964845611984
 30
0.0
 11
1.524716580255244
 21
1.300021538791952
 31
0.0
  0
LINE
  5
1AB
330
EE
100
AcDbEntity
  8
SH-01_INNER LEAD
100
AcDbLine
 10
1.524716580255244
 20
1.300021538791952
 30
0.0
 11
1.574715457640195
 21
1.050017152090958
 31
0.0
  0
LINE
  5
1AC
330
EE
100
AcDbEntity
  8
SH-01_INNER LEAD
100
AcDbLine
 10
1.574715457640195
 20
1.050017152090958
 30
0.0
 11
1.875
 21
1.135805926232932
 31
0.0
  0
LINE
  5
1AD
330
EE
100
AcDbEntity
  8
SH-01_INNER LEAD
100
AcDbLine
 10
1.875
 20
1.135805926232932
 30
0.0
 11
1.875
 21
1.999972307265124
 31
0.0
  0
LINE
  5
1AE
330
EE
100
AcDbEntity
  8
SH-01_INNER LEAD
100
AcDbLine
 10
1.875
 20
1.999972307265124
 30
0.0
 11
1.734999999999671
 21
1.999972307265124
 31
0.0
  0
LINE
  5
1AF
330
EE
100
AcDbEntity
  8
SH-01_INNER LEAD
100
AcDbLine
 10
1.734999999999671
 20
1.999972307265124
 30
0.0
 11
1.735000000000126
 21
2.399999999999863
 31
0.0
  0
LINE
  5
1B0
330
EE
100
AcDbEntity
  8
SH-01_INNER LEAD
100
AcDbLine
 10
1.735000000000126
 20
2.399999999999863
 30
0.0
 11
2.164999999999963
 21
2.399999999999863
 31
0.0
  0
LINE
  5
1B1
330
EE
100
AcDbEntity
  8
SH-01_INNER LEAD
100
AcDbLine
 10
2.164999999999963
 20
2.399999999999863
 30
0.0
 11
2.164999999999963
 21
1.9003539807793
 31
0.0
  0
LINE
  5
1B2
330
EE
100
AcDbEntity
  8
SH-01_INNER LEAD
100
AcDbLine
 10
2.164999999999963
 20
1.9003539807793
 30
0.0
 11
2.050000000000181
 21
1.75415779433888
 31
0.0
  0
LINE
  5
1B3
330
EE
100
AcDbEntity
  8
SH-01_INNER LEAD
100
AcDbLine
 10
2.050000000000181
 20
1.75415779433888
 30
0.0
 11
2.050000000000181
 21
0.9829923734234851
 31
0.0
  0
LINE
  5
1B4
330
EE
100
AcDbEntity
  8
SH-01_INNER LEAD
100
AcDbLine
 10
2.050000000000181
 20
0.9829923734234851
 30
0.0
 11
1.924684838788379
 21
0.904923082335472
 31
0.0
  0
LINE
  5
1B5
330
EE
100
AcDbEntity
  8
SH-01_INNER LEAD
100
AcDbLine
 10
1.924684838788379
 20
0.904923082335472
 30
0.0
 11
1.574717349497859
 21
0.8499966153315199
 31
0.0
  0
LINE
  5
1B6
330
EE
100
AcDbEntity
  8
SH-01_INNER LEAD
100
AcDbLine
 10
1.574717349497859
 20
0.8499966153315199
 30
0.0
 11
1.574717349497859
 21
0.4499608895521307
 31
0.0
  0
LINE
  5
1B7
330
EE
100
AcDbEntity
  8
SH-01_INNER LEAD
100
AcDbLine
 10
1.574717349497859
 20
0.4499608895521307
 30
0.0
 11
1.924712734042259
 21
0.4999618015642683
 31
0.0
  0
LINE
  5
1B8
330
EE
100
AcDbEntity
  8
SH-01_INNER LEAD
100
AcDbLine
 10
1.924712734042259
 20
0.4999618015642683
 30
0.0
 11
1.924712734042259
 21
0.7189169429859703
 31
0.0
  0
LINE
  5
1B9
330
EE
100
AcDbEntity
  8
SH-01_INNER LEAD
100
AcDbLine
 10
1.924712734042259
 20
0.7189169429859703
 30
0.0
 11
2.199999999999818
 21
0.9021408601913664
 31
0.0
  0
LINE
  5
1BA
330
EE
100
AcDbEntity
  8
SH-01_INNER LEAD
100
AcDbLine
 10
2.199999999999818
 20
0.9021408601913664
 30
0.0
 11
2.199999999999818
 21
1.703470969928729
 31
0.0
  0
LINE
  5
1BB
330
EE
100
AcDbEntity
  8
SH-01_INNER LEAD
100
AcDbLine
 10
2.199999999999818
 20
1.703470969928729
 30
0.0
 11
2.384999999999763
 21
1.900279480566723
 31
0.0
  0
LINE
  5
1BC
330
EE
100
AcDbEntity
  8
SH-01_INNER LEAD
100
AcDbLine
 10
2.384999999999763
 20
1.900279480566723
 30
0.0
 11
2.385000000000218
 21
2.399999999999863
 31
0.0
  0
LINE
  5
1BD
330
EE
100
AcDbEntity
  8
SH-01_INNER LEAD
100
AcDbLine
 10
2.385000000000218
 20
2.399999999999863
 30
0.0
 11
2.68499999999912
 21
2.399999999999863
 31
0.0
  0
LINE
  5
1BE
330
EE
100
AcDbEntity
  8
SH-01_INNER LEAD
100
AcDbLine
 10
2.682499999999208
 20
2.399999999999749
 30
0.0
 11
2.682499999999208
 21
2.199999999994701
 31
0.0
  0
LINE
  5
1BF
330
EE
100
AcDbEntity
  8
SH-01_INNER LEAD
100
AcDbLine
 10
2.684999999999148
 20
2.199999999994814
 30
0.0
 11
2.55000000000109
 21
2.199999999994814
 31
0.0
  0
LINE
  5
1C0
330
EE
100
AcDbEntity
  8
SH-01_INNER LEAD
100
AcDbLine
 10
2.55000000000109
 20
2.199999999994814
 30
0.0
 11
2.550000000000181
 21
0.2499999999984084
 31
0.0
  0
ARC
  5
1C1
330
EE
100
AcDbEntity
  8
SH-01_INNER LEAD
100
AcDbCircle
 10
2.400000000000089
 20
0.2499999999984084
 30
0.0
 40
0.1499999999998636
100
AcDbArc
 50
180.0
 51
0.0
  0
LINE
  5
1C2
330
EE
100
AcDbEntity
  8
SH-01_INNER LEAD
100
AcDbLine
 10
2.25
 20
0.2499999999984084
 30
0.0
 11
2.25
 21
0.2999999999985903
 31
0.0
  0
LINE
  5
1C3
330
EE
100
AcDbEntity
  8
SH-01_INNER LEAD
100
AcDbLine
 10
2.25
 20
0.2999999999985903
 30
0.0
 11
2.100000000000362
 21
0.2999999999985903
 31
0.0
  0
LWPOLYLINE
  5
1C4
330
EE
100
AcDbEntity
  8
SH-01_PKG
 48
8.0
100
AcDbPolyline
 90
        4
 70
     1
 43
0.0
 10
-2.5
 20
2.199999999999931
 10
2.5
 20
2.199999999999931
 10
2.5
 20
-2.200000000000045
 10
-2.5
 20
-2.200000000000045
  0
LINE
  5
1C5
330
EE
100
AcDbEntity
  8
SH-01_MISC
100
AcDbLine
 10
-1.9246843659036
 20
-0.904923008118885
 30
0.0
 11
-2.010494053752893
 21
-0.7760094770688966
 31
0.0
  0
LINE
  5
1C9
330
EE
100
AcDbEntity
  8
SH-01_MISC
100
AcDbLine
 10
-1.514716426404731
 20
-1.724968076431878
 30
0.0
 11
-1.874729811226075
 21
-1.724968076431878
 31
0.0
  0
LINE
  5
1CA
330
EE
100
AcDbEntity
  8
SH-01_MISC
100
AcDbLine
 10
-0.8646964260971117
 20
-2.072971922644909
 30
0.0
 11
-1.08469981076456
 21
-2.072971922644909
 31
0.0
  0
LINE
  5
1CB
330
EE
100
AcDbEntity
  8
SH-01_MISC
100
AcDbLine
 10
-0.2146964260970776
 20
-2.072971922644909
 30
0.0
 11
-0.4346998107645277
 21
-2.072971922644909
 31
0.0
  0
LINE
  5
1CC
330
EE
100
AcDbEntity
  8
SH-01_MISC
100
AcDbLine
 10
1.924684365904198
 20
-0.9049230081176348
 30
0.0
 11
2.010494053753403
 21
-0.7760094770675892
 31
0.0
  0
LINE
  5
1CD
330
EE
100
AcDbEntity
  8
SH-01_MISC
100
AcDbLine
 10
1.51471642640584
 20
-1.72496807643091
 30
0.0
 11
1.874729811227183
 21
-1.724968076430684
 31
0.0
  0
LINE
  5
1CE
330
EE
100
AcDbEntity
  8
SH-01_MISC
100
AcDbLine
 10
0.8646964260984475
 20
-2.072971922644341
 30
0.0
 11
1.084699810765896
 21
-2.072971922644228
 31
0.0
  0
LINE
  5
1CF
330
EE
100
AcDbEntity
  8
SH-01_MISC
100
AcDbLine
 10
0.2146964260984134
 20
-2.07297192264474
 30
0.0
 11
0.4346998107658635
 21
-2.072971922644625
 31
0.0
  0
LINE
  5
1D0
330
EE
100
AcDbEntity
  8
SH-01_MISC
100
AcDbLine
 10
-1.924684365903885
 20
0.9049230081182599
 30
0.0
 11
-2.010494053753149
 21
0.7760094770682146
 31
0.0
  0
LINE
  5
1D1
330
EE
100
AcDbEntity
  8
SH-01_MISC
100
AcDbLine
 10
-1.514716426405299
 20
1.724968076431365
 30
0.0
 11
-1.874729811226643
 21
1.724968076431252
 31
0.0
  0
LINE
  5
1D2
330
EE
100
AcDbEntity
  8
SH-01_MISC
100
AcDbLine
 10
-0.8646964260977938
 20
2.072971922644625
 30
0.0
 11
-1.084699810765242
 21
2.072971922644512
 31
0.0
  0
LINE
  5
1D3
330
EE
100
AcDbEntity
  8
SH-01_MISC
100
AcDbLine
 10
-0.2146964260977597
 20
2.072971922644795
 30
0.0
 11
-0.4346998107652098
 21
2.07297192264474
 31
0.0
  0
LINE
  5
1D4
330
EE
100
AcDbEntity
  8
SH-01_MISC
100
AcDbLine
 10
1.924684365903913
 20
0.9049230081182033
 30
0.0
 11
2.010494053753149
 21
0.7760094770682146
 31
0.0
  0
LINE
  5
1D5
330
EE
100
AcDbEntity
  8
SH-01_MISC
100
AcDbLine
 10
1.514716426405271
 20
1.724968076431365
 30
0.0
 11
1.874729811226615
 21
1.724968076431252
 31
0.0
  0
LINE
  5
1D6
330
EE
100
AcDbEntity
  8
SH-01_MISC
100
AcDbLine
 10
0.8646964260977654
 20
2.072971922644569
 30
0.0
 11
1.084699810765215
 21
2.072971922644569
 31
0.0
  0
LINE
  5
1D7
330
EE
100
AcDbEntity
  8
SH-01_MISC
100
AcDbLine
 10
0.2146964260977313
 20
2.072971922644795
 30
0.0
 11
0.4346998107651814
 21
2.07297192264474
 31
0.0
  0
ENDBLK
  5
1D8
330
EE
100
AcDbEntity
  8
0
100
AcDbBlockEnd
  0
BLOCK
  5
217
330
216
100
AcDbEntity
  8
0
100
AcDbBlockBegin
  2
*D1
 70
     1
 10
0.0
 20
0.0
 30
0.0
  3
*D1
  1

  0
LINE
  5
218
330
216
100
AcDbEntity
  8
SH-01_DIM
  6
Continuous
 62
     0
440
 16777216
370
    -2
100
AcDbLine
 10
459.6062027988718
 20
349.7015657469976
 30
0.0
 11
594.9752161258755
 21
349.7015657469976
 31
0.0
  0
MTEXT
  5
219
330
216
100
AcDbEntity
  8
SH-01_DIM
  6
Continuous
 62
     0
440
 16777216
100
AcDbMText
 10
606.1752161258757
 20
349.7015657469976
 30
0.0
 40
5.0
 41
0.0
 46
0.0
 71
     5
 72
     1
  1
\A1;0.000
 73
     1
 44
1.0
  0
POINT
  5
21A
330
216
100
AcDbEntity
  8
Defpoints
  6
Continuous
 62
     0
440
 16777216
100
AcDbPoint
 10
456.6062027988718
 20
349.7015657469976
 30
0.0
  0
POINT
  5
21C
330
216
100
AcDbEntity
  8
Defpoints
  6
Continuous
 62
     0
440
 16777216
100
AcDbPoint
 10
594.9752161258755
 20
349.7015657469976
 30
0.0
  0
POINT
  5
21D
330
216
100
AcDbEntity
  8
Defpoints
  6
Continuous
 62
     0
440
 16777216
100
AcDbPoint
 10
451.0862027988681
 20
349.7015657469976
 30
0.0
  0
ENDBLK
  5
21E
330
216
100
AcDbEntity
  8
0
100
AcDbBlockEnd
  0
BLOCK
  5
223
330
222
100
AcDbEntity
  8
0
100
AcDbBlockBegin
  2
*D2
 70
     1
 10
0.0
 20
0.0
 30
0.0
  3
*D2
  1

  0
LINE
  5
224
330
222
100
AcDbEntity
  8
SH-01_DIM
  6
Continuous
 62
     0
440
 16777216
370
    -2
100
AcDbLine
 10
451.0862027988658
 20
341.1815657469917
 30
0.0
 11
451.0862027988658
 21
309.0808376375331
 31
0.0
  0
MTEXT
  5
225
330
222
100
AcDbEntity
  8
SH-01_DIM
  6
Continuous
 62
     0
440
 16777216
100
AcDbMText
 10
451.0862027988658
 20
297.8808376375332
 30
0.0
 40
5.0
 41
0.0
 46
0.0
 71
     5
 72
     1
  1
\A1;0.000
 11
0.0000000000000001
 21
1.0
 31
0.0
 73
     1
 44
1.0
  0
POINT
  5
226
330
222
100
AcDbEntity
  8
Defpoints
  6
Continuous
 62
     0
440
 16777216
100
AcDbPoint
 10
451.0862027988658
 20
344.1815657469917
 30
0.0
  0
POINT
  5
227
330
222
100
AcDbEntity
  8
Defpoints
  6
Continuous
 62
     0
440
 16777216
100
AcDbPoint
 10
451.0862027988658
 20
309.0808376375331
 30
0.0
  0
POINT
  5
228
330
222
100
AcDbEntity
  8
Defpoints
  6
Continuous
 62
     0
440
 16777216
100
AcDbPoint
 10
451.0862027988681
 20
349.7015657469976
 30
0.0
  0
ENDBLK
  5
229
330
222
100
AcDbEntity
  8
0
100
AcDbBlockEnd
  0
BLOCK
  5
22E
330
22D
100
AcDbEntity
  8
0
100
AcDbBlockBegin
  2
*D3
 70
     1
 10
0.0
 20
0.0
 30
0.0
  3
*D3
  1

  0
LINE
  5
22F
330
22D
100
AcDbEntity
  8
SH-01_DIM
  6
Continuous
 62
     0
440
 16777216
370
    -2
100
AcDbLine
 10
417.0362027988702
 20
525.2015657476113
 30
0.0
 11
417.0362027988702
 21
607.9232908861844
 31
0.0
  0
LINE
  5
230
330
22D
100
AcDbEntity
  8
SH-01_DIM
  6
Continuous
 62
     0
440
 16777216
370
    -2
100
AcDbLine
 10
364.0362027988913
 20
525.2015657476113
 30
0.0
 11
364.0362027988913
 21
607.9232908861844
 31
0.0
  0
LINE
  5
231
330
22D
100
AcDbEntity
  8
SH-01_DIM
  6
Continuous
 62
     0
440
 16777216
370
    -2
100
AcDbLine
 10
412.0362027988702
 20
604.9232908861844
 30
0.0
 11
400.2362027989049
 21
604.9232908861844
 31
0.0
  0
LINE
  5
232
330
22D
100
AcDbEntity
  8
SH-01_DIM
  6
Continuous
 62
     0
440
 16777216
370
    -2
100
AcDbLine
 10
369.0362027988913
 20
604.9232908861844
 30
0.0
 11
377.8362027989049
 21
604.9232908861844
 31
0.0
  0
SOLID
  5
233
330
22D
100
AcDbEntity
  8
SH-01_DIM
  6
Continuous
 62
     0
440
 16777216
100
AcDbTrace
 10
412.0362027988702
 20
605.7566242195179
 30
0.0
 11
412.0362027988702
 21
604.0899575528511
 31
0.0
 12
417.0362027988702
 22
604.9232908861844
 32
0.0
 13
417.0362027988702
 23
604.9232908861844
 33
0.0
  0
SOLID
  5
235
330
22D
100
AcDbEntity
  8
SH-01_DIM
  6
Continuous
 62
     0
440
 16777216
100
AcDbTrace
 10
369.0362027988913
 20
605.7566242195179
 30
0.0
 11
369.0362027988913
 21
604.0899575528511
 31
0.0
 12
364.0362027988913
 22
604.9232908861844
 32
0.0
 13
364.0362027988913
 23
604.9232908861844
 33
0.0
  0
MTEXT
  5
236
330
22D
100
AcDbEntity
  8
SH-01_DIM
  6
Continuous
 62
     0
440
 16777216
100
AcDbMText
 10
389.0362027989049
 20
604.9232908861844
 30
0.0
 40
5.0
 41
0.0
 46
0.0
 71
     5
 72
     1
  1
\A1;2.650
 73
     1
 44
1.0
  0
POINT
  5
237
330
22D
100
AcDbEntity
  8
Defpoints
  6
Continuous
 62
     0
440
 16777216
100
AcDbPoint
 10
417.0362027988702
 20
522.2015657476113
 30
0.0
  0
POINT
  5
238
330
22D
100
AcDbEntity
  8
Defpoints
  6
Continuous
 62
     0
440
 16777216
100
AcDbPoint
 10
364.0362027988913
 20
522.2015657476113
 30
0.0
  0
POINT
  5
239
330
22D
100
AcDbEntity
  8
Defpoints
  6
Continuous
 62
     0
440
 16777216
100
AcDbPoint
 10
364.0362027988913
 20
604.9232908861844
 30
0.0
  0
ENDBLK
  5
23A
330
22D
100
AcDbEntity
  8
0
100
AcDbBlockEnd
  0
BLOCK
  5
23F
330
23E
100
AcDbEntity
  8
0
100
AcDbBlockBegin
  2
*D4
 70
     1
 10
0.0
 20
0.0
 30
0.0
  3
*D4
  1

  0
LINE
  5
240
330
23E
100
AcDbEntity
  8
SH-01_DIM
  6
Continuous
 62
     0
440
 16777216
370
    -2
100
AcDbLine
 10
575.248716908738
 20
225.3256669309198
 30
0.0
 11
596.8784100037784
 21
225.3256669309197
 31
0.0
  0
LINE
  5
241
330
23E
100
AcDbEntity
  8
SH-01_DIM
  6
Continuous
 62
     0
440
 16777216
370
    -2
100
AcDbLine
 10
551.1624822404987
 20
226.8256669309244
 30
0.0
 11
590.405560829719
 21
249.4826689182401
 31
0.0
  0
ARC
  5
242
330
23E
100
AcDbEntity
  8
SH-01_DIM
  6
Continuous
 62
     0
440
 16777216
370
    -2
100
AcDbCircle
 10
548.5644060291376
 20
225.3256669309199
 30
0.0
 40
45.31400397464092
100
AcDbArc
 50
347.3494106781334
 51
353.6747053390666
  0
ARC
  5
243
330
23E
100
AcDbEntity
  8
SH-01_DIM
  6
Continuous
 62
     0
440
 16777216
370
    -2
100
AcDbCircle
 10
548.5644060291376
 20
225.3256669309199
 30
0.0
 40
45.31400397464092
100
AcDbArc
 50
36.32529466093286
 51
42.65058932186607
  0
SOLID
  5
244
330
23E
100
AcDbEntity
  8
SH-01_DIM
  6
Continuous
 62
     0
440
 16777216
100
AcDbTrace
 10
592.770492971062
 20
220.3792576986522
 30
0.0
 11
594.4346212103226
 21
220.2873067276235
 31
0.0
 12
593.8784100037785
 22
225.3256669309197
 32
0.0
 13
593.8784100037785
 23
225.3256669309197
 33
0.0
  0
SOLID
  5
245
330
23E
100
AcDbEntity
  8
SH-01_DIM
  6
Continuous
 62
     0
440
 16777216
100
AcDbTrace
 10
585.7699975514544
 20
252.6241224509833
 30
0.0
 11
584.3747957066141
 21
251.7124264545395
 31
0.0
 12
587.8074846183658
 22
247.9826689182401
 32
0.0
 13
587.8074846183658
 23
247.9826689182401
 33
0.0
  0
MTEXT
  5
246
330
23E
100
AcDbEntity
  8
SH-01_DIM
  6
Continuous
 62
     0
440
 16777216
100
AcDbMText
 10
592.4283217488834
 20
236.6973798161806
 30
0.0
 40
5.0
 41
0.0
 46
0.0
 71
     5
 72
     1
  1
\A1;305
 73
     1
 44
1.0
  0
POINT
  5
247
330
23E
100
AcDbEntity
  8
Defpoints
  6
Continuous
 62
     0
440
 16777216
100
AcDbPoint
 10
591.145641182371
 20
240.8239690649863
 30
0.0
  0
POINT
  5
248
330
23E
100
AcDbEntity
  8
Defpoints
  6
Continuous
 62
     0
440
 16777216
100
AcDbPoint
 10
548.5644060291373
 20
225.3256669309199
 30
0.0
  0
POINT
  5
249
330
23E
100
AcDbEntity
  8
Defpoints
  6
Continuous
 62
     0
440
 16777216
100
AcDbPoint
 10
548.5644060291454
 20
225.3256669309244
 30
0.0
  0
POINT
  5
24A
330
23E
100
AcDbEntity
  8
Defpoints
  6
Continuous
 62
     0
440
 16777216
100
AcDbPoint
 10
541.6362027988697
 20
221.3256669309244
 30
0.0
  0
POINT
  5
24B
330
23E
100
AcDbEntity
  8
Defpoints
  6
Continuous
 62
     0
440
 16777216
100
AcDbPoint
 10
572.2487169087378
 20
225.3256669309198
 30
0.0
  0
ENDBLK
  5
24C
330
23E
100
AcDbEntity
  8
0
100
AcDbBlockEnd
  0
BLOCK
  5
251
330
250
100
AcDbEntity
  8
0
100
AcDbBlockBegin
  2
*D5
 70
     1
 10
0.0
 20
0.0
 30
0.0
  3
*D5
  1

  0
LINE
  5
252
330
250
100
AcDbEntity
  8
SH-01_DIM
  6
Continuous
 62
     0
440
 16777216
370
    -2
100
AcDbLine
 10
481.6362027988795
 20
224.3256669309198
 30
0.0
 11
481.6362027988795
 21
251.4191828869593
 31
0.0
  0
LINE
  5
253
330
250
100
AcDbEntity
  8
SH-01_DIM
  6
Continuous
 62
     0
440
 16777216
370
    -2
100
AcDbLine
 10
541.6362027988618
 20
224.3256669309198
 30
0.0
 11
541.6362027988618
 21
251.4191828869593
 31
0.0
  0
LINE
  5
254
330
250
100
AcDbEntity
  8
SH-01_DIM
  6
Continuous
 62
     0
440
 16777216
370
    -2
100
AcDbLine
 10
486.6362027988794
 20
248.4191828869593
 30
0.0
 11
489.4240493121241
 21
248.4191828869593
 31
0.0
  0
LINE
  5
255
330
250
100
AcDbEntity
  8
SH-01_DIM
  6
Continuous
 62
     0
440
 16777216
370
    -2
100
AcDbLine
 10
536.6362027988619
 20
248.4191828869593
 30
0.0
 11
533.6907159787906
 21
248.4191828869593
 31
0.0
  0
SOLID
  5
256
330
250
100
AcDbEntity
  8
SH-01_DIM
  6
Continuous
 62
     0
440
 16777216
100
AcDbTrace
 10
486.6362027988794
 20
249.2525162202927
 30
0.0
 11
486.6362027988794
 21
247.585849553626
 31
0.0
 12
481.6362027988795
 22
248.4191828869593
 32
0.0
 13
481.6362027988795
 23
248.4191828869593
 33
0.0
  0
SOLID
  5
257
330
250
100
AcDbEntity
  8
SH-01_DIM
  6
Continuous
 62
     0
440
 16777216
100
AcDbTrace
 10
536.6362027988619
 20
249.2525162202927
 30
0.0
 11
536.6362027988619
 21
247.585849553626
 31
0.0
 12
541.6362027988618
 22
248.4191828869593
 32
0.0
 13
541.6362027988618
 23
248.4191828869593
 33
0.0
  0
MTEXT
  5
258
330
250
100
AcDbEntity
  8
SH-01_DIM
  6
Continuous
 62
     0
440
 16777216
100
AcDbMText
 10
511.5573826454573
 20
248.4191828869593
 30
0.0
 40
5.0
 41
0.0
 46
0.0
 71
     5
 72
     1
  1
\A1;3.0000.100
 73
     1
 44
1.0
  0
POINT
  5
259
330
250
100
AcDbEntity
  8
Defpoints
  6
Continuous
 62
     0
440
 16777216
100
AcDbPoint
 10
481.6362027988795
 20
221.3256669309198
 30
0.0
  0
POINT
  5
25A
330
250
100
AcDbEntity
  8
Defpoints
  6
Continuous
 62
     0
440
 16777216
100
AcDbPoint
 10
541.6362027988618
 20
221.3256669309198
 30
0.0
  0
POINT
  5
25B
330
250
100
AcDbEntity
  8
Defpoints
  6
Continuous
 62
     0
440
 16777216
100
AcDbPoint
 10
541.6362027988618
 20
248.4191828869593
 30
0.0
  0
ENDBLK
  5
25C
330
250
100
AcDbEntity
  8
0
100
AcDbBlockEnd
  0
BLOCK
  5
261
330
260
100
AcDbEntity
  8
0
100
AcDbBlockBegin
  2
*D6
 70
     1
 10
0.0
 20
0.0
 30
0.0
  3
*D6
  1

  0
LINE
  5
262
330
260
100
AcDbEntity
  8
SH-01_DIM
  6
Continuous
 62
     0
440
 16777216
370
    -2
100
AcDbLine
 10
360.5362027988649
 20
224.3256669309198
 30
0.0
 11
360.5362027988649
 21
251.7956927196305
 31
0.0
  0
LINE
  5
263
330
260
100
AcDbEntity
  8
SH-01_DIM
  6
Continuous
 62
     0
440
 16777216
370
    -2
100
AcDbLine
 10
420.5362027988648
 20
224.3256669309198
 30
0.0
 11
420.5362027988648
 21
251.7956927196305
 31
0.0
  0
LINE
  5
264
330
260
100
AcDbEntity
  8
SH-01_DIM
  6
Continuous
 62
     0
440
 16777216
370
    -2
100
AcDbLine
 10
365.5362027988649
 20
248.7956927196306
 30
0.0
 11
368.4327826833677
 21
248.7956927196306
 31
0.0
  0
LINE
  5
265
330
260
100
AcDbEntity
  8
SH-01_DIM
  6
Continuous
 62
     0
440
 16777216
370
    -2
100
AcDbLine
 10
415.5362027988648
 20
248.7956927196306
 30
0.0
 11
412.6994493500343
 21
248.7956927196306
 31
0.0
  0
SOLID
  5
266
330
260
100
AcDbEntity
  8
SH-01_DIM
  6
Continuous
 62
     0
440
 16777216
100
AcDbTrace
 10
365.5362027988649
 20
249.6290260529639
 30
0.0
 11
365.5362027988649
 21
247.9623593862972
 31
0.0
 12
360.5362027988649
 22
248.7956927196306
 32
0.0
 13
360.5362027988649
 23
248.7956927196306
 33
0.0
  0
SOLID
  5
267
330
260
100
AcDbEntity
  8
SH-01_DIM
  6
Continuous
 62
     0
440
 16777216
100
AcDbTrace
 10
415.5362027988648
 20
249.6290260529639
 30
0.0
 11
415.5362027988648
 21
247.9623593862972
 31
0.0
 12
420.5362027988648
 22
248.7956927196306
 32
0.0
 13
420.5362027988648
 23
248.7956927196306
 33
0.0
  0
MTEXT
  5
268
330
260
100
AcDbEntity
  8
SH-01_DIM
  6
Continuous
 62
     0
440
 16777216
100
AcDbMText
 10
390.566116016701
 20
248.7956927196306
 30
0.0
 40
5.0
 41
0.0
 46
0.0
 71
     5
 72
     1
  1
\A1;3.0000.100
 73
     1
 44
1.0
  0
POINT
  5
269
330
260
100
AcDbEntity
  8
Defpoints
  6
Continuous
 62
     0
440
 16777216
100
AcDbPoint
 10
360.5362027988649
 20
221.3256669309199
 30
0.0
  0
POINT
  5
26A
330
260
100
AcDbEntity
  8
Defpoints
  6
Continuous
 62
     0
440
 16777216
100
AcDbPoint
 10
420.5362027988648
 20
221.3256669309199
 30
0.0
  0
POINT
  5
26B
330
260
100
AcDbEntity
  8
Defpoints
  6
Continuous
 62
     0
440
 16777216
100
AcDbPoint
 10
420.5362027988648
 20
248.7956927196306
 30
0.0
  0
ENDBLK
  5
26C
330
260
100
AcDbEntity
  8
0
100
AcDbBlockEnd
  0
BLOCK
  5
271
330
270
100
AcDbEntity
  8
0
100
AcDbBlockBegin
  2
*D7
 70
     1
 10
0.0
 20
0.0
 30
0.0
  3
*D7
  1

  0
LINE
  5
272
330
270
100
AcDbEntity
  8
SH-01_DIM
  6
Continuous
 62
     0
440
 16777216
370
    -2
100
AcDbLine
 10
357.5362027988649
 20
221.3256669309199
 30
0.0
 11
318.3260844311312
 21
221.3256669309199
 31
0.0
  0
LINE
  5
273
330
270
100
AcDbEntity
  8
SH-01_DIM
  6
Continuous
 62
     0
440
 16777216
370
    -2
100
AcDbLine
 10
326.9236886889939
 20
225.3256669309199
 30
0.0
 11
318.3260844311312
 21
225.3256669309199
 31
0.0
  0
LINE
  5
274
330
270
100
AcDbEntity
  8
SH-01_DIM
  6
Continuous
 62
     0
440
 16777216
370
    -2
100
AcDbLine
 10
321.3260844311311
 20
230.3256669309198
 30
0.0
 11
321.3260844311311
 21
235.3256669309199
 31
0.0
  0
LINE
  5
275
330
270
100
AcDbEntity
  8
SH-01_DIM
  6
Continuous
 62
     0
440
 16777216
370
    -2
100
AcDbLine
 10
321.3260844311311
 20
216.3256669309198
 30
0.0
 11
321.3260844311311
 21
208.7269704724085
 31
0.0
  0
LINE
  5
276
330
270
100
AcDbEntity
  8
SH-01_DIM
  6
Continuous
 62
     0
440
 16777216
370
    -2
100
AcDbLine
 10
321.3260844311311
 20
208.7269704724085
 30
0.0
 11
316.3260844311312
 21
208.7269704724085
 31
0.0
  0
SOLID
  5
277
330
270
100
AcDbEntity
  8
SH-01_DIM
  6
Continuous
 62
     0
440
 16777216
100
AcDbTrace
 10
320.4927510977979
 20
230.3256669309198
 30
0.0
 11
322.1594177644645
 21
230.3256669309198
 31
0.0
 12
321.3260844311311
 22
225.3256669309199
 32
0.0
 13
321.3260844311311
 23
225.3256669309199
 33
0.0
  0
SOLID
  5
278
330
270
100
AcDbEntity
  8
SH-01_DIM
  6
Continuous
 62
     0
440
 16777216
100
AcDbTrace
 10
320.4927510977979
 20
216.3256669309198
 30
0.0
 11
322.1594177644645
 21
216.3256669309198
 31
0.0
 12
321.3260844311311
 22
221.3256669309199
 32
0.0
 13
321.3260844311311
 23
221.3256669309199
 33
0.0
  0
MTEXT
  5
279
330
270
100
AcDbEntity
  8
SH-01_DIM
  6
Continuous
 62
     0
440
 16777216
100
AcDbMText
 10
293.8022749073216
 20
208.7269704724085
 30
0.0
 40
5.0
 41
0.0
 46
0.0
 71
     5
 72
     1
  1
\A1;0.2000.030
 73
     1
 44
1.0
  0
POINT
  5
27A
330
270
100
AcDbEntity
  8
Defpoints
  6
Continuous
 62
     0
440
 16777216
100
AcDbPoint
 10
360.5362027988649
 20
221.3256669309199
 30
0.0
  0
POINT
  5
27B
330
270
100
AcDbEntity
  8
Defpoints
  6
Continuous
 62
     0
440
 16777216
100
AcDbPoint
 10
329.9236886889939
 20
225.3256669309199
 30
0.0
  0
POINT
  5
27C
330
270
100
AcDbEntity
  8
Defpoints
  6
Continuous
 62
     0
440
 16777216
100
AcDbPoint
 10
321.3260844311311
 20
225.3256669309199
 30
0.0
  0
ENDBLK
  5
27D
330
270
100
AcDbEntity
  8
0
100
AcDbBlockEnd
  0
BLOCK
  5
282
330
281
100
AcDbEntity
  8
0
100
AcDbBlockBegin
  2
*D8
 70
     1
 10
0.0
 20
0.0
 30
0.0
  3
*D8
  1

  0
LINE
  5
283
330
281
100
AcDbEntity
  8
SH-01_DIM
  6
Continuous
 62
     0
440
 16777216
370
    -2
100
AcDbLine
 10
365.0362027988922
 20
526.2015657476121
 30
0.0
 11
296.0362214725702
 21
526.2015657476121
 31
0.0
  0
LINE
  5
284
330
281
100
AcDbEntity
  8
SH-01_DIM
  6
Continuous
 62
     0
440
 16777216
370
    -2
100
AcDbLine
 10
365.0362027989013
 20
473.2015657476331
 30
0.0
 11
296.0362214725702
 21
473.2015657476331
 31
0.0
  0
LINE
  5
285
330
281
100
AcDbEntity
  8
SH-01_DIM
  6
Continuous
 62
     0
440
 16777216
370
    -2
100
AcDbLine
 10
299.0362214725702
 20
521.2015657476121
 30
0.0
 11
299.0362214725702
 21
510.0955363501271
 31
0.0
  0
LINE
  5
286
330
281
100
AcDbEntity
  8
SH-01_DIM
  6
Continuous
 62
     0
440
 16777216
370
    -2
100
AcDbLine
 10
299.0362214725702
 20
478.2015657476331
 30
0.0
 11
299.0362214725702
 21
487.6955363501271
 31
0.0
  0
SOLID
  5
287
330
281
100
AcDbEntity
  8
SH-01_DIM
  6
Continuous
 62
     0
440
 16777216
100
AcDbTrace
 10
298.2028881392368
 20
521.2015657476121
 30
0.0
 11
299.8695548059036
 21
521.2015657476121
 31
0.0
 12
299.0362214725702
 22
526.2015657476121
 32
0.0
 13
299.0362214725702
 23
526.2015657476121
 33
0.0
  0
SOLID
  5
288
330
281
100
AcDbEntity
  8
SH-01_DIM
  6
Continuous
 62
     0
440
 16777216
100
AcDbTrace
 10
298.2028881392368
 20
478.2015657476331
 30
0.0
 11
299.8695548059036
 21
478.2015657476331
 31
0.0
 12
299.0362214725702
 22
473.2015657476331
 32
0.0
 13
299.0362214725702
 23
473.2015657476331
 33
0.0
  0
MTEXT
  5
289
330
281
100
AcDbEntity
  8
SH-01_DIM
  6
Continuous
 62
     0
440
 16777216
100
AcDbMText
 10
299.0362214725701
 20
498.8955363501272
 30
0.0
 40
5.0
 41
0.0
 46
0.0
 71
     5
 72
     1
  1
\A1;2.650
 11
0.0000000000000001
 21
1.0
 31
0.0
 73
     1
 44
1.0
  0
POINT
  5
28A
330
281
100
AcDbEntity
  8
Defpoints
  6
Continuous
 62
     0
440
 16777216
100
AcDbPoint
 10
368.0362027988922
 20
526.2015657476121
 30
0.0
  0
POINT
  5
28B
330
281
100
AcDbEntity
  8
Defpoints
  6
Continuous
 62
     0
440
 16777216
100
AcDbPoint
 10
368.0362027989013
 20
473.2015657476331
 30
0.0
  0
POINT
  5
28C
330
281
100
AcDbEntity
  8
Defpoints
  6
Continuous
 62
     0
440
 16777216
100
AcDbPoint
 10
299.0362214725702
 20
473.2015657476331
 30
0.0
  0
ENDBLK
  5
28D
330
281
100
AcDbEntity
  8
0
100
AcDbBlockEnd
  0
BLOCK
  5
292
330
291
100
AcDbEntity
  8
0
100
AcDbBlockBegin
  2
*D9
 70
     1
 10
0.0
 20
0.0
 30
0.0
  3
*D9
  1

  0
LINE
  5
293
330
291
100
AcDbEntity
  8
SH-01_DIM
  6
Continuous
 62
     0
440
 16777216
370
    -2
100
AcDbLine
 10
524.6362027988651
 20
499.701565747634
 30
0.0
 11
594.7006517327936
 21
499.701565747634
 31
0.0
  0
MTEXT
  5
294
330
291
100
AcDbEntity
  8
SH-01_DIM
  6
Continuous
 62
     0
440
 16777216
100
AcDbMText
 10
607.6054136375554
 20
499.701565747634
 30
0.0
 40
5.0
 41
0.0
 46
0.0
 71
     5
 72
     1
  1
\A1;7.5000
 73
     1
 44
1.0
  0
POINT
  5
295
330
291
100
AcDbEntity
  8
Defpoints
  6
Continuous
 62
     0
440
 16777216
100
AcDbPoint
 10
521.6362027988651
 20
499.701565747634
 30
0.0
  0
POINT
  5
296
330
291
100
AcDbEntity
  8
Defpoints
  6
Continuous
 62
     0
440
 16777216
100
AcDbPoint
 10
594.7006517327936
 20
499.701565747634
 30
0.0
  0
POINT
  5
297
330
291
100
AcDbEntity
  8
Defpoints
  6
Continuous
 62
     0
440
 16777216
100
AcDbPoint
 10
451.0862027988681
 20
349.7015657469976
 30
0.0
  0
ENDBLK
  5
298
330
291
100
AcDbEntity
  8
0
100
AcDbBlockEnd
  0
ENDSEC
  0
SECTION
  2
ENTITIES
  0
TEXT
  5
73
330
2
100
AcDbEntity
  8
SH-01_NOTES
  6
Continuous
100
AcDbText
 10
-206.5867443816918
 20
369.9848968194022
 30
0.0
 40
5.0
  1
%%UVIEW A
 41
0.8
 72
     4
 11
-196.5200777150251
 21
371.9848968194022
 31
0.0
100
AcDbText
  0
TEXT
  5
77
330
2
100
AcDbEntity
  8
SH-01_NOTES
  6
Continuous
100
AcDbText
 10
-214.3589439338732
 20
360.6431198865672
 30
0.0
 40
5.0
  1
SCALE: 20/1
 41
0.8
 72
     1
 11
-195.3113248862542
 21
360.6431198865672
 31
0.0
100
AcDbText
  0
LINE
  5
78
330
2
100
AcDbEntity
  8
SH-01_OBJECT
100
AcDbLine
 10
-80.51288321581774
 20
514.4872996703909
 30
0.0
 11
-291.7628832153288
 21
514.487299670383
 31
0.0
  0
LINE
  5
7C
102
{ACAD_REACTORS
330
221
102
}
330
2
100
AcDbEntity
  8
SH-01_CENTER
100
AcDbLine
 10
-196.7628832158187
 20
550.007299669734
 30
0.0
 11
-196.7628832158187
 21
538.9672996697313
 31
0.0
  0
LINE
  5
81
102
{ACAD_REACTORS
330
215
102
}
330
2
100
AcDbEntity
  8
SH-01_CENTER
100
AcDbLine
 10
-191.2428832158128
 20
544.4872996697372
 30
0.0
 11
-202.2828832158201
 21
544.4872996697372
 31
0.0
  0
CIRCLE
  5
82
330
2
100
AcDbEntity
  8
SH-01_OBJECT
100
AcDbCircle
 10
-196.7628832158187
 20
544.4872996697372
 30
0.0
 40
15.23999999999887
  0
LINE
  5
83
330
2
100
AcDbEntity
  8
SH-01_CENTER
100
AcDbLine
 10
-323.7628832154921
 20
559.4872996678645
 30
0.0
 11
-323.762883215494
 21
551.487299667867
 31
0.0
  0
LINE
  5
84
330
2
100
AcDbEntity
  8
SH-01_CENTER
100
AcDbLine
 10
-327.762883215493
 20
555.487299667868
 30
0.0
 11
-319.7628832154913
 21
555.487299667868
 31
0.0
  0
LINE
  5
85
330
2
100
AcDbEntity
  8
SH-01_OBJECT
100
AcDbLine
 10
-80.51288321581774
 20
514.4872996703909
 30
0.0
 11
-291.7628832153288
 21
514.487299670383
 31
0.0
  0
LINE
  5
86
330
2
100
AcDbEntity
  8
SH-01_CENTER
100
AcDbLine
 10
-302.812883215817
 20
615.9372996710194
 30
0.0
 11
-302.812883215817
 21
609.0372996710144
 31
0.0
  0
LINE
  5
87
330
2
100
AcDbEntity
  8
SH-01_CENTER
100
AcDbLine
 10
-299.362883215819
 20
612.4872996710214
 30
0.0
 11
-306.2628832158241
 21
612.4872996710214
 31
0.0
  0
LINE
  5
88
330
2
100
AcDbEntity
  8
SH-01_CENTER
100
AcDbLine
 10
-302.812883215817
 20
615.9372996710194
 30
0.0
 11
-302.8128832158215
 21
609.0372996710144
 31
0.0
  0
LINE
  5
89
330
2
100
AcDbEntity
  8
SH-01_CENTER
100
AcDbLine
 10
-299.362883215819
 20
612.4872996710169
 30
0.0
 11
-306.2628832158195
 21
612.4872996710169
 31
0.0
  0
LINE
  5
8A
330
2
100
AcDbEntity
  8
SH-01_CENTER
100
AcDbLine
 10
-302.812883215817
 20
615.9372996710194
 30
0.0
 11
-302.8128832158215
 21
609.0372996710144
 31
0.0
  0
LINE
  5
8B
330
2
100
AcDbEntity
  8
SH-01_CENTER
100
AcDbLine
 10
-299.362883215819
 20
612.4872996710169
 30
0.0
 11
-306.2628832158195
 21
612.4872996710169
 31
0.0
  0
LWPOLYLINE
  5
8C
330
2
100
AcDbEntity
  8
SH-01_OBJECT
100
AcDbPolyline
 90
        6
 70
     1
 43
0.0
 10
-309.0128832158023
 20
612.4872996713965
 10
-307.8128832158169
 20
612.4872996719991
 42
1.0
 10
-297.812883215817
 20
612.4872996712784
 10
-205.6128832158163
 20
612.4872996713193
 42
1.0
 10
-205.6128832158163
 20
616.4872996712861
 10
-309.0128832158023
 20
616.4872996712816
 42
1.0
  0
LINE
  5
8D
330
2
100
AcDbEntity
  8
SH-01_CENTER
100
AcDbLine
 10
-309.0128832158031
 20
618.4872996714423
 30
0.0
 11
-309.0128832158009
 21
610.487299671445
 31
0.0
  0
LINE
  5
8E
330
2
100
AcDbEntity
  8
SH-01_CENTER
100
AcDbLine
 10
-309.0128832158031
 20
618.4872996713423
 30
0.0
 11
-309.0128832157986
 21
610.4872996713404
 31
0.0
  0
LINE
  5
8F
330
2
100
AcDbEntity
  8
SH-01_CENTER
100
AcDbLine
 10
-305.0128832157999
 20
614.4872996713416
 30
0.0
 11
-313.0128832158018
 21
614.4872996713368
 31
0.0
  0
LINE
  5
90
330
2
100
AcDbEntity
  8
SH-01_CENTER
100
AcDbLine
 10
-205.6128832158155
 20
618.4872996714059
 30
0.0
 11
-205.6128832158178
 21
610.4872996714086
 31
0.0
  0
LINE
  5
91
330
2
100
AcDbEntity
  8
SH-01_CENTER
100
AcDbLine
 10
-205.6128832158155
 20
618.4872996713059
 30
0.0
 11
-205.6128832158178
 21
610.4872996713041
 31
0.0
  0
LINE
  5
92
330
2
100
AcDbEntity
  8
SH-01_CENTER
100
AcDbLine
 10
-209.6128832158163
 20
614.487299671305
 30
0.0
 11
-201.6128832158168
 21
614.4872996713004
 31
0.0
  0
LINE
  5
93
330
2
100
AcDbEntity
  8
SH-01_CENTER
100
AcDbLine
 10
-181.7128832158203
 20
615.9372996710194
 30
0.0
 11
-181.7128832158203
 21
609.0372996710144
 31
0.0
  0
LINE
  5
94
330
2
100
AcDbEntity
  8
SH-01_CENTER
100
AcDbLine
 10
-178.2628832158177
 20
612.4872996710214
 30
0.0
 11
-185.1628832158228
 21
612.4872996710214
 31
0.0
  0
LINE
  5
95
330
2
100
AcDbEntity
  8
SH-01_CENTER
100
AcDbLine
 10
-181.7128832158158
 20
615.9372996710194
 30
0.0
 11
-181.7128832158203
 21
609.0372996710144
 31
0.0
  0
LINE
  5
96
330
2
100
AcDbEntity
  8
SH-01_CENTER
100
AcDbLine
 10
-178.2628832158223
 20
612.4872996710169
 30
0.0
 11
-185.1628832158183
 21
612.4872996710169
 31
0.0
  0
LINE
  5
97
330
2
100
AcDbEntity
  8
SH-01_CENTER
100
AcDbLine
 10
-181.7128832158158
 20
615.9372996710194
 30
0.0
 11
-181.7128832158203
 21
609.0372996710144
 31
0.0
  0
LINE
  5
98
330
2
100
AcDbEntity
  8
SH-01_CENTER
100
AcDbLine
 10
-178.2628832158223
 20
612.4872996710169
 30
0.0
 11
-185.1628832158183
 21
612.4872996710169
 31
0.0
  0
LWPOLYLINE
  5
99
330
2
100
AcDbEntity
  8
SH-01_OBJECT
100
AcDbPolyline
 90
        6
 70
     1
 43
0.0
 10
-187.9128832158028
 20
612.4872996713965
 10
-186.7128832158176
 20
612.4872996719991
 42
1.0
 10
-176.7128832158175
 20
612.4872996712784
 10
-84.51288321581774
 20
612.4872996713193
 42
1.0
 10
-84.51288321581774
 20
616.4872996712861
 10
-187.9128832158028
 20
616.4872996712816
 42
1.0
  0
LINE
  5
9A
330
2
100
AcDbEntity
  8
SH-01_CENTER
100
AcDbLine
 10
-187.9128832158055
 20
618.4872996714423
 30
0.0
 11
-187.9128832158028
 21
610.487299671445
 31
0.0
  0
LINE
  5
9B
330
2
100
AcDbEntity
  8
SH-01_CENTER
100
AcDbLine
 10
-187.9128832158055
 20
618.4872996713423
 30
0.0
 11
-187.912883215801
 21
610.4872996713404
 31
0.0
  0
LINE
  5
9C
330
2
100
AcDbEntity
  8
SH-01_CENTER
100
AcDbLine
 10
-183.9128832158019
 20
614.4872996713416
 30
0.0
 11
-191.9128832158038
 21
614.4872996713368
 31
0.0
  0
LINE
  5
9D
330
2
100
AcDbEntity
  8
SH-01_CENTER
100
AcDbLine
 10
-84.51288321581637
 20
618.4872996714059
 30
0.0
 11
-84.51288321581865
 21
610.4872996714086
 31
0.0
  0
LINE
  5
9E
330
2
100
AcDbEntity
  8
SH-01_CENTER
100
AcDbLine
 10
-84.51288321581637
 20
618.4872996713059
 30
0.0
 11
-84.51288321581865
 21
610.4872996713041
 31
0.0
  0
LINE
  5
9F
330
2
100
AcDbEntity
  8
SH-01_CENTER
100
AcDbLine
 10
-88.51288321581728
 20
614.487299671305
 30
0.0
 11
-80.51288321581774
 21
614.4872996713004
 31
0.0
  0
LWPOLYLINE
  5
A0
330
2
100
AcDbEntity
  8
SH-01_OBJECT
100
AcDbPolyline
 90
        4
 70
     1
 43
0.0
 10
-205.6128832158163
 20
772.4872996703254
 10
-309.0128832158204
 20
772.4872996703282
 42
-1.0
 10
-309.0128832158204
 20
776.48729967034
 10
-205.612883215819
 20
776.4872996702945
 42
-1.0
  0
LINE
  5
A1
330
2
100
AcDbEntity
  8
SH-01_CENTER
100
AcDbLine
 10
-309.0128832158223
 20
770.4872996702708
 30
0.0
 11
-309.0128832158204
 21
778.4872996702682
 31
0.0
  0
LINE
  5
A2
330
2
100
AcDbEntity
  8
SH-01_CENTER
100
AcDbLine
 10
-309.0128832158223
 20
770.4872996703709
 30
0.0
 11
-309.0128832158177
 21
778.4872996703727
 31
0.0
  0
LINE
  5
A3
330
2
100
AcDbEntity
  8
SH-01_CENTER
100
AcDbLine
 10
-305.0128832158195
 20
774.4872996703718
 30
0.0
 11
-313.0128832158214
 21
774.4872996703763
 31
0.0
  0
LINE
  5
A4
330
2
100
AcDbEntity
  8
SH-01_CENTER
100
AcDbLine
 10
-205.6128832158163
 20
770.4872996703364
 30
0.0
 11
-205.612883215819
 21
778.4872996703336
 31
0.0
  0
LINE
  5
A5
330
2
100
AcDbEntity
  8
SH-01_CENTER
100
AcDbLine
 10
-205.6128832158163
 20
770.4872996704364
 30
0.0
 11
-205.612883215819
 21
778.4872996704382
 31
0.0
  0
LINE
  5
A6
330
2
100
AcDbEntity
  8
SH-01_CENTER
100
AcDbLine
 10
-209.6128832158171
 20
774.4872996704373
 30
0.0
 11
-201.6128832158182
 21
774.4872996704418
 31
0.0
  0
LWPOLYLINE
  5
A7
330
2
100
AcDbEntity
  8
SH-01_OBJECT
100
AcDbPolyline
 90
        4
 70
     1
 43
0.0
 10
-84.51288321581774
 20
772.4872996703254
 10
-187.912883215821
 20
772.4872996703282
 42
-1.0
 10
-187.912883215821
 20
776.48729967034
 10
-84.51288321581955
 20
776.4872996702945
 42
-1.0
  0
LINE
  5
A8
330
2
100
AcDbEntity
  8
SH-01_CENTER
100
AcDbLine
 10
-187.9128832158238
 20
770.4872996702708
 30
0.0
 11
-187.912883215821
 21
778.4872996702682
 31
0.0
  0
LINE
  5
A9
330
2
100
AcDbEntity
  8
SH-01_CENTER
100
AcDbLine
 10
-187.9128832158238
 20
770.4872996703709
 30
0.0
 11
-187.9128832158193
 21
778.4872996703727
 31
0.0
  0
LINE
  5
AA
330
2
100
AcDbEntity
  8
SH-01_CENTER
100
AcDbLine
 10
-183.9128832158201
 20
774.4872996703718
 30
0.0
 11
-191.912883215822
 21
774.4872996703763
 31
0.0
  0
LINE
  5
AB
330
2
100
AcDbEntity
  8
SH-01_CENTER
100
AcDbLine
 10
-84.51288321581774
 20
770.4872996703364
 30
0.0
 11
-84.51288321581955
 21
778.4872996703336
 31
0.0
  0
LINE
  5
AC
330
2
100
AcDbEntity
  8
SH-01_CENTER
100
AcDbLine
 10
-84.51288321581774
 20
770.4872996704364
 30
0.0
 11
-84.51288321581955
 21
778.4872996704382
 31
0.0
  0
LINE
  5
AD
330
2
100
AcDbEntity
  8
SH-01_CENTER
100
AcDbLine
 10
-88.51288321581865
 20
774.4872996704373
 30
0.0
 11
-80.51288321581864
 21
774.4872996704418
 31
0.0
  0
LWPOLYLINE
  5
AE
330
2
100
AcDbEntity
  8
SH-01_OBJECT
100
AcDbPolyline
 90
        9
 70
     0
 43
0.0
 10
-291.7628832154993
 20
514.4872996653898
 10
-315.003448415778
 20
527.9052462399059
 42
-0.3130023601649527
 10
-318.8932493790165
 20
536.1567184377228
 10
-315.873082252249
 20
554.1640307003299
 42
0.4637654940426354
 10
-323.762883215493
 20
563.4872996678715
 10
-325.7628832155071
 20
563.4872996678669
 10
-325.7628832154889
 20
618.4872996678645
 10
-327.7628832154917
 20
618.4872996678668
 10
-327.7628832154639
 20
778.9652234623197
  0
LWPOLYLINE
  5
AF
330
2
100
AcDbEntity
  8
SH-01_OBJECT
100
AcDbPolyline
 90
        4
 70
     1
 43
0.0
 10
-287.6128832158581
 20
619.4872996703739
 10
-287.6128832158581
 20
642.4872996703667
 10
-279.0128832158542
 20
642.4872996703689
 10
-279.0128832158568
 20
619.4872996703739
  0
LWPOLYLINE
  5
B0
330
2
100
AcDbEntity
  8
SH-01_OBJECT
100
AcDbPolyline
 90
        4
 70
     1
 43
0.0
 10
-274.6128832158563
 20
619.4872996703739
 10
-274.6128832158563
 20
642.4872996703667
 10
-266.012883215855
 20
642.4872996703689
 10
-266.012883215855
 20
619.4872996703739
  0
LWPOLYLINE
  5
B1
330
2
100
AcDbEntity
  8
SH-01_OBJECT
100
AcDbPolyline
 90
        4
 70
     1
 43
0.0
 10
-261.6128832158564
 20
619.4872996703739
 10
-261.6128832158564
 20
642.4872996703667
 10
-253.012883215855
 20
642.4872996703689
 10
-253.012883215855
 20
619.4872996703739
  0
LWPOLYLINE
  5
B2
330
2
100
AcDbEntity
  8
SH-01_OBJECT
100
AcDbPolyline
 90
        4
 70
     1
 43
0.0
 10
-248.6128832158573
 20
619.4872996703739
 10
-248.6128832158573
 20
642.4872996703667
 10
-240.0128832158533
 20
642.4872996703689
 10
-240.012883215856
 20
619.4872996703739
  0
LWPOLYLINE
  5
B3
330
2
100
AcDbEntity
  8
SH-01_OBJECT
100
AcDbPolyline
 90
        4
 70
     1
 43
0.0
 10
-235.6128832158573
 20
619.4872996703739
 10
-235.6128832158573
 20
642.4872996703667
 10
-227.0128832158542
 20
642.4872996703689
 10
-227.012883215856
 20
619.4872996703739
  0
LWPOLYLINE
  5
B4
330
2
100
AcDbEntity
  8
SH-01_OBJECT
100
AcDbPolyline
 90
        4
 70
     1
 43
0.0
 10
-222.6128832158581
 20
619.4872996703739
 10
-222.6128832158581
 20
642.4872996703667
 10
-214.0128832158542
 20
642.4872996703689
 10
-214.0128832158568
 20
619.4872996703739
  0
LWPOLYLINE
  5
B5
330
2
100
AcDbEntity
  8
SH-01_OBJECT
100
AcDbPolyline
 90
        4
 70
     1
 43
0.0
 10
-311.0128832158569
 20
619.4872996703739
 10
-311.0128832158569
 20
642.4872996703667
 10
-305.0128832158559
 20
642.4872996703689
 10
-305.0128832158577
 20
619.4872996703739
  0
LWPOLYLINE
  5
B6
330
2
100
AcDbEntity
  8
SH-01_OBJECT
100
AcDbPolyline
 90
        4
 70
     1
 43
0.0
 10
-300.6128832158573
 20
619.4872996703739
 10
-300.6128832158573
 20
642.4872996703667
 10
-292.012883215856
 20
642.4872996703689
 10
-292.012883215856
 20
619.4872996703739
  0
LWPOLYLINE
  5
B7
330
2
100
AcDbEntity
  8
SH-01_OBJECT
100
AcDbPolyline
 90
        4
 70
     1
 43
0.0
 10
-203.6128832158545
 20
619.4872996703739
 10
-203.6128832158545
 20
642.4872996703667
 10
-209.6128832158564
 20
642.4872996703689
 10
-209.6128832158536
 20
619.4872996703739
  0
LWPOLYLINE
  5
B8
330
2
100
AcDbEntity
  8
SH-01_OBJECT
100
AcDbPolyline
 90
        4
 70
     1
 43
0.0
 10
-105.9128832158529
 20
619.4872996703764
 10
-105.9128832158537
 20
642.4872996703689
 10
-114.5128832158574
 20
642.4872996703712
 10
-114.5128832158541
 20
619.4872996703764
  0
LWPOLYLINE
  5
B9
330
2
100
AcDbEntity
  8
SH-01_OBJECT
100
AcDbPolyline
 90
        4
 70
     1
 43
0.0
 10
-118.9128832158546
 20
619.4872996703764
 10
-118.9128832158557
 20
642.4872996703689
 10
-127.5128832158569
 20
642.4872996703712
 10
-127.5128832158559
 20
619.4872996703764
  0
LWPOLYLINE
  5
BA
330
2
100
AcDbEntity
  8
SH-01_OBJECT
100
AcDbPolyline
 90
        4
 70
     1
 43
0.0
 10
-131.9128832158537
 20
619.4872996703764
 10
-131.9128832158551
 20
642.4872996703689
 10
-140.5128832158564
 20
642.4872996703712
 10
-140.512883215855
 20
619.4872996703764
  0
LWPOLYLINE
  5
BB
330
2
100
AcDbEntity
  8
SH-01_OBJECT
100
AcDbPolyline
 90
        4
 70
     1
 43
0.0
 10
-144.9128832158537
 20
619.4872996703764
 10
-144.9128832158548
 20
642.4872996703689
 10
-153.5128832158583
 20
642.4872996703712
 10
-153.5128832158549
 20
619.4872996703764
  0
LWPOLYLINE
  5
BC
330
2
100
AcDbEntity
  8
SH-01_OBJECT
100
AcDbPolyline
 90
        4
 70
     1
 43
0.0
 10
-157.9128832158528
 20
619.4872996703739
 10
-157.9128832158543
 20
642.4872996703667
 10
-166.5128832158577
 20
642.4872996703689
 10
-166.5128832158542
 20
619.4872996703739
  0
LWPOLYLINE
  5
BD
330
2
100
AcDbEntity
  8
SH-01_OBJECT
100
AcDbPolyline
 90
        4
 70
     1
 43
0.0
 10
-170.9128832158528
 20
619.4872996703739
 10
-170.9128832158538
 20
642.4872996703667
 10
-179.5128832158573
 20
642.4872996703689
 10
-179.5128832158541
 20
619.4872996703739
  0
LWPOLYLINE
  5
BE
330
2
100
AcDbEntity
  8
SH-01_OBJECT
100
AcDbPolyline
 90
        4
 70
     1
 43
0.0
 10
-82.5128832158532
 20
619.4872996703764
 10
-82.51288321585457
 20
642.4872996703689
 10
-88.51288321585593
 20
642.4872996703712
 10
-88.51288321585229
 20
619.4872996703764
  0
LWPOLYLINE
  5
BF
330
2
100
AcDbEntity
  8
SH-01_OBJECT
100
AcDbPolyline
 90
        4
 70
     1
 43
0.0
 10
-92.91288321585296
 20
619.4872996703764
 10
-92.91288321585431
 20
642.4872996703689
 10
-101.5128832158554
 20
642.4872996703712
 10
-101.5128832158541
 20
619.4872996703764
  0
LWPOLYLINE
  5
C0
330
2
100
AcDbEntity
  8
SH-01_OBJECT
100
AcDbPolyline
 90
        4
 70
     1
 43
0.0
 10
-189.9128832158557
 20
619.4872996703739
 10
-189.912883215857
 20
642.4872996703667
 10
-183.9128832158555
 20
642.4872996703689
 10
-183.9128832158564
 20
619.4872996703739
  0
LWPOLYLINE
  5
C1
330
2
100
AcDbEntity
  8
SH-01_OBJECT
100
AcDbPolyline
 90
        4
 70
     1
 43
0.0
 10
-287.6128832158581
 20
769.4872996703736
 10
-287.6128832158581
 20
746.4872996703809
 10
-279.0128832158542
 20
746.4872996703791
 10
-279.0128832158568
 20
769.4872996703736
  0
LWPOLYLINE
  5
C2
330
2
100
AcDbEntity
  8
SH-01_OBJECT
100
AcDbPolyline
 90
        4
 70
     1
 43
0.0
 10
-274.6128832158563
 20
769.4872996703736
 10
-274.6128832158563
 20
746.4872996703809
 10
-266.012883215855
 20
746.4872996703791
 10
-266.012883215855
 20
769.4872996703736
  0
LWPOLYLINE
  5
C3
330
2
100
AcDbEntity
  8
SH-01_OBJECT
100
AcDbPolyline
 90
        4
 70
     1
 43
0.0
 10
-261.6128832158564
 20
769.4872996703736
 10
-261.6128832158564
 20
746.4872996703809
 10
-253.012883215855
 20
746.4872996703791
 10
-253.012883215855
 20
769.4872996703736
  0
LWPOLYLINE
  5
C4
330
2
100
AcDbEntity
  8
SH-01_OBJECT
100
AcDbPolyline
 90
        4
 70
     1
 43
0.0
 10
-248.6128832158573
 20
769.4872996703736
 10
-248.6128832158573
 20
746.4872996703809
 10
-240.0128832158533
 20
746.4872996703791
 10
-240.012883215856
 20
769.4872996703736
  0
LWPOLYLINE
  5
C5
330
2
100
AcDbEntity
  8
SH-01_OBJECT
100
AcDbPolyline
 90
        4
 70
     1
 43
0.0
 10
-235.6128832158573
 20
769.4872996703736
 10
-235.6128832158573
 20
746.4872996703809
 10
-227.0128832158542
 20
746.4872996703791
 10
-227.012883215856
 20
769.4872996703736
  0
LWPOLYLINE
  5
C6
330
2
100
AcDbEntity
  8
SH-01_OBJECT
100
AcDbPolyline
 90
        4
 70
     1
 43
0.0
 10
-222.6128832158581
 20
769.4872996703736
 10
-222.6128832158581
 20
746.4872996703809
 10
-214.0128832158542
 20
746.4872996703791
 10
-214.0128832158568
 20
769.4872996703736
  0
LWPOLYLINE
  5
C7
330
2
100
AcDbEntity
  8
SH-01_OBJECT
100
AcDbPolyline
 90
        4
 70
     1
 43
0.0
 10
-311.0128832158569
 20
769.4872996703736
 10
-311.0128832158569
 20
746.4872996703809
 10
-305.0128832158559
 20
746.4872996703791
 10
-305.0128832158577
 20
769.4872996703736
  0
LWPOLYLINE
  5
C8
330
2
100
AcDbEntity
  8
SH-01_OBJECT
100
AcDbPolyline
 90
        4
 70
     1
 43
0.0
 10
-300.6128832158573
 20
769.4872996703736
 10
-300.6128832158573
 20
746.4872996703809
 10
-292.012883215856
 20
746.4872996703791
 10
-292.012883215856
 20
769.4872996703736
  0
LWPOLYLINE
  5
C9
330
2
100
AcDbEntity
  8
SH-01_OBJECT
100
AcDbPolyline
 90
        4
 70
     1
 43
0.0
 10
-203.6128832158545
 20
769.4872996703736
 10
-203.6128832158545
 20
746.4872996703809
 10
-209.6128832158564
 20
746.4872996703791
 10
-209.6128832158536
 20
769.4872996703736
  0
LWPOLYLINE
  5
CA
330
2
100
AcDbEntity
  8
SH-01_OBJECT
100
AcDbPolyline
 90
        4
 70
     1
 43
0.0
 10
-105.9128832158529
 20
769.4872996703718
 10
-105.9128832158537
 20
746.4872996703791
 10
-114.5128832158574
 20
746.4872996703763
 10
-114.5128832158541
 20
769.4872996703718
  0
LWPOLYLINE
  5
CB
330
2
100
AcDbEntity
  8
SH-01_OBJECT
100
AcDbPolyline
 90
        4
 70
     1
 43
0.0
 10
-118.9128832158546
 20
769.4872996703718
 10
-118.9128832158557
 20
746.4872996703791
 10
-127.5128832158569
 20
746.4872996703763
 10
-127.5128832158559
 20
769.4872996703718
  0
LWPOLYLINE
  5
CC
330
2
100
AcDbEntity
  8
SH-01_OBJECT
100
AcDbPolyline
 90
        4
 70
     1
 43
0.0
 10
-131.9128832158537
 20
769.4872996703718
 10
-131.9128832158551
 20
746.4872996703791
 10
-140.5128832158564
 20
746.4872996703763
 10
-140.512883215855
 20
769.4872996703718
  0
LWPOLYLINE
  5
CD
330
2
100
AcDbEntity
  8
SH-01_OBJECT
100
AcDbPolyline
 90
        4
 70
     1
 43
0.0
 10
-144.9128832158537
 20
769.4872996703718
 10
-144.9128832158548
 20
746.4872996703791
 10
-153.5128832158583
 20
746.4872996703763
 10
-153.5128832158549
 20
769.4872996703718
  0
LWPOLYLINE
  5
CE
330
2
100
AcDbEntity
  8
SH-01_OBJECT
100
AcDbPolyline
 90
        4
 70
     1
 43
0.0
 10
-157.9128832158528
 20
769.4872996703736
 10
-157.9128832158543
 20
746.4872996703809
 10
-166.5128832158577
 20
746.4872996703791
 10
-166.5128832158542
 20
769.4872996703736
  0
LWPOLYLINE
  5
CF
330
2
100
AcDbEntity
  8
SH-01_OBJECT
100
AcDbPolyline
 90
        4
 70
     1
 43
0.0
 10
-170.9128832158528
 20
769.4872996703736
 10
-170.9128832158538
 20
746.4872996703809
 10
-179.5128832158573
 20
746.4872996703791
 10
-179.5128832158541
 20
769.4872996703736
  0
LWPOLYLINE
  5
D0
330
2
100
AcDbEntity
  8
SH-01_OBJECT
100
AcDbPolyline
 90
        4
 70
     1
 43
0.0
 10
-82.5128832158532
 20
769.4872996703718
 10
-82.51288321585457
 20
746.4872996703791
 10
-88.51288321585593
 20
746.4872996703763
 10
-88.51288321585229
 20
769.4872996703718
  0
LWPOLYLINE
  5
D1
330
2
100
AcDbEntity
  8
SH-01_OBJECT
100
AcDbPolyline
 90
        4
 70
     1
 43
0.0
 10
-92.91288321585296
 20
769.4872996703718
 10
-92.91288321585431
 20
746.4872996703791
 10
-101.5128832158554
 20
746.4872996703763
 10
-101.5128832158541
 20
769.4872996703718
  0
LWPOLYLINE
  5
D2
330
2
100
AcDbEntity
  8
SH-01_OBJECT
100
AcDbPolyline
 90
        4
 70
     1
 43
0.0
 10
-189.9128832158557
 20
769.4872996703736
 10
-189.912883215857
 20
746.4872996703809
 10
-183.9128832158555
 20
746.4872996703791
 10
-183.9128832158564
 20
769.4872996703736
  0
LWPOLYLINE
  5
D3
330
2
100
AcDbEntity
  8
SH-01_PKG
 48
8.0
100
AcDbPolyline
 90
        4
 70
     1
 43
0.0
 10
-86.21288321582108
 20
738.4872996703718
 10
-186.2128832158211
 20
738.4872996703718
 10
-186.2128832158211
 20
650.4872996703737
 10
-86.21288321582108
 20
650.4872996703737
  0
LINE
  5
D8
330
2
100
AcDbEntity
  8
SH-01_CENTER
100
AcDbLine
 10
-257.3128832158197
 20
684.4872996703736
 30
0.0
 11
-257.3128832158197
 21
704.4872996703737
 31
0.0
  0
LINE
  5
D9
330
2
100
AcDbEntity
  8
SH-01_CENTER
100
AcDbLine
 10
-257.3128832158197
 20
684.4872996703736
 30
0.0
 11
-257.3128832158197
 21
704.4872996703737
 31
0.0
  0
LINE
  5
DA
330
2
100
AcDbEntity
  8
SH-01_CENTER
100
AcDbLine
 10
-247.3128832158197
 20
694.4872996703736
 30
0.0
 11
-267.3128832158198
 21
694.4872996703736
 31
0.0
  0
LINE
  5
DB
330
2
100
AcDbEntity
  8
SH-01_CENTER
100
AcDbLine
 10
-136.2128832158211
 20
684.4872996703736
 30
0.0
 11
-136.2128832158211
 21
704.4872996703737
 31
0.0
  0
LINE
  5
DC
102
{ACAD_REACTORS
330
290
102
}
330
2
100
AcDbEntity
  8
SH-01_CENTER
100
AcDbLine
 10
-146.2128832158212
 20
694.4872996703736
 30
0.0
 11
-126.2128832158195
 21
694.4872996703736
 31
0.0
  0
LINE
  5
DD
330
2
100
AcDbEntity
  8
SH-01_CENTER
100
AcDbLine
 10
-136.2128832158211
 20
684.4872996703736
 30
0.0
 11
-136.2128832158211
 21
704.4872996703737
 31
0.0
  0
LINE
  5
DE
330
2
100
AcDbEntity
  8
SH-01_CENTER
100
AcDbLine
 10
-146.2128832158212
 20
694.4872996703736
 30
0.0
 11
-126.2128832158213
 21
694.4872996703736
 31
0.0
  0
LINE
  5
DF
330
2
100
AcDbEntity
  8
SH-01_CENTER
100
AcDbLine
 10
-257.3128832158197
 20
684.4872996703736
 30
0.0
 11
-257.3128832158197
 21
704.4872996703737
 31
0.0
  0
LINE
  5
E0
330
2
100
AcDbEntity
  8
SH-01_CENTER
100
AcDbLine
 10
-257.3128832158197
 20
684.4872996703736
 30
0.0
 11
-257.3128832158197
 21
704.4872996703737
 31
0.0
  0
LINE
  5
E1
330
2
100
AcDbEntity
  8
SH-01_CENTER
100
AcDbLine
 10
-247.3128832158197
 20
694.4872996703736
 30
0.0
 11
-267.3128832158198
 21
694.4872996703736
 31
0.0
  0
LINE
  5
E2
330
2
100
AcDbEntity
  8
SH-01_CENTER
100
AcDbLine
 10
-136.2128832158211
 20
684.4872996703736
 30
0.0
 11
-136.2128832158211
 21
704.4872996703737
 31
0.0
  0
LINE
  5
E3
330
2
100
AcDbEntity
  8
SH-01_CENTER
100
AcDbLine
 10
-136.2128832158211
 20
684.4872996703736
 30
0.0
 11
-136.2128832158211
 21
704.4872996703737
 31
0.0
  0
LINE
  5
E4
330
2
100
AcDbEntity
  8
SH-01_CENTER
100
AcDbLine
 10
-146.2128832158212
 20
694.4872996703736
 30
0.0
 11
-126.2128832158213
 21
694.4872996703736
 31
0.0
  0
LINE
  5
E5
330
2
100
AcDbEntity
  8
SH-01_CENTER
100
AcDbLine
 10
-136.2128832158211
 20
684.4872996703736
 30
0.0
 11
-136.2128832158211
 21
704.4872996703737
 31
0.0
  0
LINE
  5
E6
330
2
100
AcDbEntity
  8
SH-01_CENTER
100
AcDbLine
 10
-136.2128832158211
 20
684.4872996703736
 30
0.0
 11
-136.2128832158211
 21
704.4872996703737
 31
0.0
  0
LINE
  5
E7
330
2
100
AcDbEntity
  8
SH-01_CENTER
100
AcDbLine
 10
-146.2128832158212
 20
694.4872996703736
 30
0.0
 11
-126.2128832158213
 21
694.4872996703736
 31
0.0
  0
LWPOLYLINE
  5
E8
330
2
100
AcDbEntity
  8
SH-01_INNER LEAD
100
AcDbPolyline
 90
      108
 70
     0
 43
0.0
 10
-189.9128832158019
 20
742.48729967037
 10
-183.9128832158229
 20
742.48729967037
 10
-183.9128832158138
 20
732.4928892817072
 10
-180.2128832158149
 20
728.5567190689483
 10
-180.2128832158149
 20
712.5301168742001
 10
-174.7071378966636
 20
708.8656385300922
 10
-174.7071378966636
 20
704.4865357016599
 10
-167.7072302057758
 20
703.4865174614163
 10
-167.7072302057758
 20
711.4872319770031
 10
-174.706579991586
 20
712.585761317084
 10
-177.2128832158221
 20
714.1471471388424
 10
-177.2128832158221
 20
729.5704555571512
 10
-179.5128832158178
 20
732.4943792859587
 10
-179.5128832158178
 20
742.48729967037
 10
-170.912883215821
 20
742.48729967037
 10
-170.912883215812
 20
734.4867458156762
 10
-173.7128832158185
 20
734.4867458156762
 10
-173.7128832158185
 20
717.2034181950323
 10
-167.7071923686225
 20
715.4876427121919
 10
-166.7072148209234
 20
720.4877304462127
 10
-164.3671788203635
 20
724.7865965826124
 10
-166.5128832158069
 20
726.3687087447899
 10
-166.5128832158159
 20
742.48729967037
 10
-157.9128832158193
 20
742.48729967037
 10
-157.9128832158193
 20
733.9872996703664
 10
-160.7128832158166
 20
732.4985132617142
 10
-160.7128832158166
 20
725.9872996703518
 10
-150.7128832158167
 20
725.9872996703518
 10
-150.7128832158167
 20
732.4985132617142
 10
-153.5128832158141
 20
733.9872996703591
 10
-153.5128832158141
 20
742.48729967037
 10
-144.9128832158174
 20
742.48729967037
 10
-144.9128832158083
 20
733.9872996703718
 10
-147.7128832158149
 20
732.4985132617214
 10
-147.7128832158149
 20
725.9872996703518
 10
-137.7128832158149
 20
725.9872996703518
 10
-137.7128832158149
 20
732.4985132617214
 10
-140.5128832158123
 20
733.9872996703718
 10
-140.5128832158214
 20
742.48729967037
 10
-136.2128832158367
 20
742.48729967037
 10
-131.912883215852
 20
742.48729967037
 10
-131.9128832158702
 20
733.9872996703718
 10
-134.7128832158585
 20
732.4985132617214
 10
-134.7128832158585
 20
725.9872996703518
 10
-124.7128832158585
 20
725.9872996703518
 10
-124.7128832158585
 20
732.4985132617214
 10
-127.512883215865
 20
733.9872996703718
 10
-127.5128832158559
 20
742.48729967037
 10
-118.9128832158592
 20
742.48729967037
 10
-118.9128832158592
 20
733.9872996703591
 10
-121.7128832158566
 20
732.4985132617142
 10
-121.7128832158566
 20
725.9872996703518
 10
-111.7128832158567
 20
725.9872996703518
 10
-111.7128832158567
 20
732.4985132617142
 10
-114.5128832158632
 20
733.9872996703664
 10
-114.5128832158541
 20
742.48729967037
 10
-105.9128832158574
 20
742.48729967037
 10
-105.9128832158665
 20
726.3687087447899
 10
-108.0585876113098
 20
724.7865965826124
 10
-105.718551610759
 20
720.4877304462127
 10
-104.7185740630509
 20
715.4876427121919
 10
-98.71288321585485
 20
717.2034181950323
 10
-98.71288321585485
 20
734.4867458156762
 10
-101.5128832158615
 20
734.4867458156762
 10
-101.5128832158615
 20
742.48729967037
 10
-92.91288321585557
 20
742.48729967037
 10
-92.91288321585557
 20
732.4943792859587
 10
-95.21288321585121
 20
729.5704555571512
 10
-95.21288321585121
 20
714.1471471388424
 10
-97.71918644008735
 20
712.585761317084
 10
-104.7185362259067
 20
711.4872319770031
 10
-104.7185362259067
 20
703.4865174614163
 10
-97.71862853500977
 20
704.4865357016599
 10
-97.71862853500977
 20
708.8656385300922
 10
-92.21288321585848
 20
712.5301168742001
 10
-92.21288321585848
 20
728.5567190689483
 10
-88.51288321586867
 20
732.4928892817072
 10
-88.51288321585968
 20
742.48729967037
 10
-82.51288321579863
 20
742.48729967037
 10
-82.51288321579863
 20
738.48729967029
 10
-85.21288321583302
 20
738.4872996702936
 10
-85.21288321582131
 20
732.4872996703484
 10
-73.31288321582156
 20
732.48729967035
 10
-73.31288321582156
 20
702.48729967035
 10
-85.21288321582131
 20
702.4872996703483
 10
-85.2128832158603
 20
699.4872996703409
 42
-0.9999999999999998
 10
-91.2128832158595
 20
699.4872996703409
 10
-91.21288321585495
 20
700.4872996703445
 10
-94.21288321585677
 20
700.4872996703445
 10
-94.21288321585677
 20
697.4863565789212
 10
-107.7128832158148
 20
697.4863565789212
 10
-107.7128832158148
 20
698.4863565789193
 10
-109.7128832158585
 20
698.4863565789193
 10
-109.7128832158494
 20
716.9872996703518
 42
0.4142135623734279
 10
-113.7128832158503
 20
720.9872996703518
 10
-136.2128832158548
 20
720.9872996703518
 10
-158.7128832158277
 20
720.9872996703518
 42
0.4142135623732617
 10
-162.712883215824
 20
716.9872996703536
 10
-162.7128832158149
 20
698.4863565789193
 10
-164.7128832158221
 20
698.4863565789193
 10
-164.7128832158221
 20
697.4863565789212
 10
-178.2128832158258
 20
697.4863565789212
 10
-178.2128832158258
 20
700.4872996703445
 10
-181.2128832158185
 20
700.4872996703445
 10
-181.2128832158185
 20
699.4872996703409
 42
-0.9999999999999998
 10
-187.2128832158176
 20
699.4872996703409
 10
-187.2128832158403
 20
738.4872996702699
 10
-189.9128832158019
 20
738.4872996702699
  0
INSERT
  5
ED
102
{ACAD_REACTORS
330
22C
330
280
102
}
330
2
100
AcDbEntity
  8
SH-01_INNER LEAD
  6
Continuous
100
AcDbBlockReference
  2
INT
 10
-257.3128832158197
 20
694.4872996703736
 30
0.0
 41
20.0
 42
20.0
 43
20.0
  0
LWPOLYLINE
  5
1D9
330
2
100
AcDbEntity
  8
SH-01_INNER LEAD
100
AcDbPolyline
 90
      108
 70
     0
 43
0.0
 10
-189.9128832158019
 20
646.4872996703536
 10
-183.9128832158229
 20
646.4872996703536
 10
-183.9128832158138
 20
656.481710059022
 10
-180.2128832158149
 20
660.4178802717808
 10
-180.2128832158149
 20
676.4444824665237
 10
-174.7071378966636
 20
680.1089608106315
 10
-174.7071378966636
 20
684.4880636390655
 10
-167.7072302057758
 20
685.4880818793128
 10
-167.7072302057758
 20
677.4873673637205
 10
-174.706579991586
 20
676.3888380236415
 10
-177.2128832158221
 20
674.8274522018812
 10
-177.2128832158221
 20
659.4041437835723
 10
-179.5128832158178
 20
656.4802200547648
 10
-179.5128832158178
 20
646.4872996703536
 10
-170.912883215821
 20
646.4872996703536
 10
-170.912883215812
 20
654.4878535250493
 10
-173.7128832158185
 20
654.4878535250493
 10
-173.7128832158185
 20
671.7711811456931
 10
-167.7071923686225
 20
673.4869566285317
 10
-166.7072148209234
 20
668.4868688945164
 10
-164.3671788203635
 20
664.1880027581112
 10
-166.5128832158069
 20
662.6058905959337
 10
-166.5128832158159
 20
646.4872996703536
 10
-157.9128832158193
 20
646.4872996703536
 10
-157.9128832158193
 20
654.9872996703627
 10
-160.7128832158166
 20
656.4760860790149
 10
-160.7128832158166
 20
662.9872996703737
 10
-150.7128832158167
 20
662.9872996703737
 10
-150.7128832158167
 20
656.4760860790113
 10
-153.5128832158141
 20
654.9872996703664
 10
-153.5128832158141
 20
646.4872996703536
 10
-144.9128832158174
 20
646.4872996703536
 10
-144.9128832158083
 20
654.9872996703518
 10
-147.7128832158149
 20
656.4760860790022
 10
-147.7128832158149
 20
662.9872996703737
 10
-137.7128832158149
 20
662.9872996703737
 10
-137.7128832158149
 20
656.4760860790022
 10
-140.5128832158123
 20
654.9872996703518
 10
-140.5128832158214
 20
646.4872996703536
 10
-136.2128832158367
 20
646.4872996703536
 10
-131.912883215852
 20
646.4872996703536
 10
-131.9128832158702
 20
654.9872996703518
 10
-134.7128832158585
 20
656.4760860790022
 10
-134.7128832158585
 20
662.9872996703737
 10
-124.7128832158585
 20
662.9872996703737
 10
-124.7128832158585
 20
656.4760860790022
 10
-127.512883215865
 20
654.9872996703518
 10
-127.5128832158559
 20
646.4872996703536
 10
-118.9128832158592
 20
646.4872996703536
 10
-118.9128832158592
 20
654.9872996703664
 10
-121.7128832158566
 20
656.4760860790113
 10
-121.7128832158566
 20
662.9872996703737
 10
-111.7128832158567
 20
662.9872996703737
 10
-111.7128832158567
 20
656.4760860790149
 10
-114.5128832158632
 20
654.9872996703627
 10
-114.5128832158541
 20
646.4872996703536
 10
-105.9128832158574
 20
646.4872996703536
 10
-105.9128832158665
 20
662.6058905959337
 10
-108.0585876113098
 20
664.1880027581112
 10
-105.718551610759
 20
668.4868688945164
 10
-104.7185740630509
 20
673.4869566285317
 10
-98.71288321585485
 20
671.7711811456931
 10
-98.71288321585485
 20
654.4878535250493
 10
-101.5128832158615
 20
654.4878535250493
 10
-101.5128832158615
 20
646.4872996703536
 10
-92.91288321585557
 20
646.4872996703536
 10
-92.91288321585557
 20
656.4802200547648
 10
-95.21288321585121
 20
659.4041437835723
 10
-95.21288321585121
 20
674.8274522018812
 10
-97.71918644008735
 20
676.3888380236415
 10
-104.7185362259067
 20
677.4873673637205
 10
-104.7185362259067
 20
685.4880818793128
 10
-97.71862853500977
 20
684.4880636390655
 10
-97.71862853500977
 20
680.1089608106315
 10
-92.21288321585848
 20
676.4444824665237
 10
-92.21288321585848
 20
660.4178802717808
 10
-88.51288321586867
 20
656.481710059022
 10
-88.51288321585968
 20
646.4872996703536
 10
-82.51288321579863
 20
646.4872996703536
 10
-82.51288321579863
 20
650.4872996704318
 10
-85.21288321583302
 20
650.4872996704318
 10
-85.21288321586496
 20
689.4872996703827
 42
1.000000000000397
 10
-91.21288321585495
 20
689.4872996703827
 10
-91.21288321585495
 20
688.4872996703846
 10
-94.21288321585677
 20
688.4872996703791
 10
-94.21288321585677
 20
691.4882427618024
 10
-107.7128832158148
 20
691.4882427618024
 10
-107.7128832158148
 20
690.4882427617733
 10
-109.7128832158585
 20
690.4882427617733
 10
-109.7128832158494
 20
671.9872996703736
 42
-0.414213562373428
 10
-113.7128832158548
 20
667.9872996703736
 10
-136.2128832158548
 20
667.9872996703736
 10
-158.7128832158277
 20
667.9872996703754
 42
-0.4142135623732617
 10
-162.712883215824
 20
671.9872996703736
 10
-162.7128832158149
 20
690.4882427617733
 10
-164.7128832158221
 20
690.4882427617733
 10
-164.7128832158221
 20
691.4882427618024
 10
-178.2128832158258
 20
691.4882427618024
 10
-178.2128832158258
 20
688.4872996703791
 10
-181.2128832158185
 20
688.4872996703846
 10
-181.2128832158185
 20
689.4872996703809
 42
1.000000000000369
 10
-187.2128832158221
 20
689.4872996703827
 10
-187.2128832158221
 20
686.4872996703718
 10
-194.6528832158189
 20
686.4872996703663
 10
-194.6528832158189
 20
656.4872996703773
 10
-187.2128832158221
 20
656.4872996703773
 10
-187.2128832158221
 20
650.48729967045
 10
-189.9128832158019
 20
650.4872996704537
  0
LINE
  5
1DA
330
2
100
AcDbEntity
  8
SH-01_INNER LEAD
100
AcDbLine
 10
-189.8628832158026
 20
650.4872996704518
 30
0.0
 11
-189.8628832158026
 21
646.4872996703518
 31
0.0
  0
LINE
  5
1DB
330
2
100
AcDbEntity
  8
SH-01_INNER LEAD
100
AcDbLine
 10
-189.8628832158026
 20
742.4872996703681
 30
0.0
 11
-189.8628832158026
 21
738.4872996702681
 31
0.0
  0
LWPOLYLINE
  5
1DC
330
2
100
AcDbEntity
  8
SH-01_PKG
 48
8.0
100
AcDbPolyline
 90
        4
 70
     1
 43
0.0
 10
-86.21288321581857
 20
738.4872996703718
 10
-186.2128832158185
 20
738.4872996703718
 10
-186.2128832158185
 20
650.4872996703737
 10
-86.21288321581857
 20
650.4872996703737
  0
LINE
  5
1DD
330
2
100
AcDbEntity
  8
SH-01_MISC
100
AcDbLine
 10
-97.7191958977462
 20
676.388839507995
 30
0.0
 11
-96.00300214076083
 21
678.9671101289963
 31
0.0
  0
LINE
  5
1DE
330
2
100
AcDbEntity
  8
SH-01_MISC
100
AcDbLine
 10
-105.918554687724
 20
659.987938141737
 30
0.0
 11
-98.71828699129743
 21
659.987938141737
 31
0.0
  0
LINE
  5
1DF
330
2
100
AcDbEntity
  8
SH-01_MISC
100
AcDbLine
 10
-118.9189546938759
 20
653.0278612174763
 30
0.0
 11
-114.5188870005275
 21
653.0278612174763
 31
0.0
  0
LINE
  5
1E0
330
2
100
AcDbEntity
  8
SH-01_MISC
100
AcDbLine
 10
-131.9189546938766
 20
653.0278612174763
 30
0.0
 11
-127.5188870005274
 21
653.0278612174763
 31
0.0
  0
LINE
  5
1E1
330
2
100
AcDbEntity
  8
SH-01_MISC
100
AcDbLine
 10
-174.7065705339025
 20
676.3888395080205
 30
0.0
 11
-176.4227642908861
 21
678.9671101290216
 31
0.0
  0
LINE
  5
1E2
330
2
100
AcDbEntity
  8
SH-01_MISC
100
AcDbLine
 10
-166.5072117439347
 20
659.9879381417552
 30
0.0
 11
-173.7074794403631
 21
659.9879381417606
 31
0.0
  0
LINE
  5
1E3
330
2
100
AcDbEntity
  8
SH-01_MISC
100
AcDbLine
 10
-153.5068117377885
 20
653.0278612174874
 30
0.0
 11
-157.9068794311359
 21
653.0278612174891
 31
0.0
  0
LINE
  5
1E4
330
2
100
AcDbEntity
  8
SH-01_MISC
100
AcDbLine
 10
-140.5068117377866
 20
653.0278612174782
 30
0.0
 11
-144.9068794311368
 21
653.0278612174818
 31
0.0
  0
LINE
  5
1E5
330
2
100
AcDbEntity
  8
SH-01_MISC
100
AcDbLine
 10
-97.71919589774086
 20
712.5857598327395
 30
0.0
 11
-96.00300214075446
 21
710.0074892117383
 31
0.0
  0
LINE
  5
1E6
330
2
100
AcDbEntity
  8
SH-01_MISC
100
AcDbLine
 10
-105.9185546877123
 20
728.9866611990012
 30
0.0
 11
-98.7182869912857
 21
728.9866611989993
 31
0.0
  0
LINE
  5
1E7
330
2
100
AcDbEntity
  8
SH-01_MISC
100
AcDbLine
 10
-118.9189546938631
 20
735.9467381232654
 30
0.0
 11
-114.5188870005138
 21
735.9467381232636
 31
0.0
  0
LINE
  5
1E8
330
2
100
AcDbEntity
  8
SH-01_MISC
100
AcDbLine
 10
-131.9189546938631
 20
735.9467381232691
 30
0.0
 11
-127.5188870005148
 21
735.9467381232691
 31
0.0
  0
LINE
  5
1E9
330
2
100
AcDbEntity
  8
SH-01_MISC
100
AcDbLine
 10
-174.7065705338963
 20
712.5857598327377
 30
0.0
 11
-176.4227642908825
 21
710.0074892117383
 31
0.0
  0
LINE
  5
1EA
330
2
100
AcDbEntity
  8
SH-01_MISC
100
AcDbLine
 10
-166.5072117439229
 20
728.9866611990012
 30
0.0
 11
-173.7074794403512
 21
728.9866611989993
 31
0.0
  0
LINE
  5
1EB
330
2
100
AcDbEntity
  8
SH-01_MISC
100
AcDbLine
 10
-153.5068117377739
 20
735.9467381232654
 30
0.0
 11
-157.9068794311222
 21
735.9467381232654
 31
0.0
  0
LINE
  5
1EC
330
2
100
AcDbEntity
  8
SH-01_MISC
100
AcDbLine
 10
-140.506811737772
 20
735.9467381232691
 30
0.0
 11
-144.9068794311222
 21
735.9467381232691
 31
0.0
  0
LWPOLYLINE
  5
1ED
102
{ACAD_REACTORS
330
29B
102
}
330
2
100
AcDbEntity
  8
SH-01_PHANTOM
  6
PHANTOM2
 48
10.0
100
AcDbPolyline
 90
        8
 70
     1
 43
0.5
 10
-259.3428008058943
 20
700.9347090358703
 10
-201.9369626093065
 20
700.9347090358703
 42
-0.4142135623730951
 10
-196.9369626093065
 20
695.9347090358703
 10
-196.9369626093065
 20
648.931078280045
 42
-0.4142135623730951
 10
-201.9369626093065
 20
643.931078280045
 10
-259.3428008058943
 20
643.931078280045
 42
-0.4142135623730951
 10
-264.3428008058943
 20
648.931078280045
 10
-264.3428008058943
 20
695.9347090358703
 42
-0.4142135623730951
1001
GENIUS_GENREC_14
1002
{
1000
PYDIR
1011
-264.3428008058943
1021
643.931078280045
1031
0.0
1002
}
1002
{
1000
PXDIR
1011
-196.9369626093065
1021
700.9347090358703
1031
0.0
1002
}
1002
{
1000
PORI
1011
-264.3428008058943
1021
700.9347090358703
1031
0.0
1002
}
1002
{
1000
PINS
1011
-264.3428008058943
1021
700.9347090358703
1031
0.0
1002
}
1002
{
1000
PINS2
1011
-196.9369626093065
1021
643.931078280045
1031
0.0
1002
}
1002
{
1000
C
1070
     1
1002
}
1001
GENIUS_GENODEF_13
1002
{
1000
HIER
1070
     0
1002
}
1002
{
1000
MANEDIT
1070
     0
1002
}
1002
{
1000
NOSEL
1070
     0
1002
}
1002
{
1000
BEHIND
1070
     0
1002
}
1002
{
1000
OTHER
1070
     0
1002
}
1002
{
1000
REACTOR
1002
}
1001
GENIUS_GENOBJ-N-REC_13
1002
{
1000
OWNER
1000
GEN
1002
}
  0
LINE
  5
1F5
330
2
100
AcDbEntity
  8
SH-01_OBJECT
  6
Continuous
100
AcDbLine
 10
-317.9253973256908
 20
420.1114008536595
 30
0.0
 11
-294.2410864460953
 21
420.1114008536595
 31
0.0
  0
LINE
  5
1F6
330
2
100
AcDbEntity
  8
SH-01_OBJECT
  6
Continuous
100
AcDbLine
 10
-220.3846799855441
 20
420.1114008536595
 30
0.0
 11
-173.141086446082
 21
420.1114008536595
 31
0.0
  0
LINE
  5
1F7
102
{ACAD_REACTORS
330
23D
102
}
330
2
100
AcDbEntity
  8
SH-01_OBJECT
  6
Continuous
100
AcDbLine
 10
-99.28467998554731
 20
420.1114008536595
 30
0.0
 11
-75.60036910594658
 21
420.1114008536595
 31
0.0
  0
LINE
  5
1F8
330
2
100
AcDbEntity
  8
SH-01_OBJECT
  6
Continuous
100
AcDbLine
 10
-287.3128832158197
 20
416.1114008536595
 30
0.0
 11
-227.3128832158198
 21
416.1114008536595
 31
0.0
  0
LINE
  5
1F9
102
{ACAD_REACTORS
330
24F
102
}
330
2
100
AcDbEntity
  8
SH-01_OBJECT
  6
Continuous
100
AcDbLine
 10
-166.2128832158052
 20
416.1114008536594
 30
0.0
 11
-106.2128832158228
 21
416.1114008536594
 31
0.0
  0
LINE
  5
1FA
330
2
100
AcDbEntity
  8
SH-01_OBJECT
  6
Continuous
100
AcDbLine
 10
-288.116730793113
 20
413.1114008536594
 30
0.0
 11
-226.5090356385264
 21
413.1114008536594
 31
0.0
  0
LINE
  5
1FB
330
2
100
AcDbEntity
  8
SH-01_OBJECT
  6
Continuous
100
AcDbLine
 10
-167.0167307930985
 20
413.1114008536594
 30
0.0
 11
-105.4090356385295
 21
413.1114008536594
 31
0.0
  0
LINE
  5
1FC
330
2
100
AcDbEntity
  8
SH-01_OBJECT
  6
Continuous
100
AcDbLine
 10
-317.9253973256908
 20
417.1114008536594
 30
0.0
 11
-295.0449340233884
 21
417.1114008536594
 31
0.0
  0
LINE
  5
1FD
330
2
100
AcDbEntity
  8
SH-01_OBJECT
  6
Continuous
100
AcDbLine
 10
-219.580832408251
 20
417.1114008536594
 30
0.0
 11
-173.9449340233753
 21
417.1114008536595
 31
0.0
  0
LINE
  5
1FE
330
2
100
AcDbEntity
  8
SH-01_OBJECT
  6
Continuous
100
AcDbLine
 10
-98.48083240825395
 20
417.1114008536594
 30
0.0
 11
-75.60036910594658
 21
417.1114008536595
 31
0.0
  0
SPLINE
  5
1FF
102
{ACAD_REACTORS
330
26F
102
}
330
2
100
AcDbEntity
  8
SH-01_OBJECT
  6
Continuous
100
AcDbSpline
210
0.0
220
0.0
230
1.0
 70
     8
 71
     3
 72
    10
 73
     6
 74
     0
 42
0.000000001
 43
0.0000000001
 40
0.0
 40
0.0
 40
0.0
 40
0.0
 40
1.414066280160456
 40
2.784699427105805
 40
3.639641115269328
 40
3.639641115269328
 40
3.639641115269328
 40
3.639641115269342
 10
-317.9253973256908
 20
420.1114008536595
 30
0.0
 10
-318.3490279922656
 20
419.6614585201344
 30
0.0
 10
-319.183277483302
 20
418.7753938596749
 30
0.0
 10
-317.295228633097
 20
418.1839797990503
 30
0.0
 10
-317.7288678070715
 20
417.3306937954119
 30
0.0
 10
-317.9253973256907
 20
417.1114008536594
 30
0.0
  0
SPLINE
  5
200
330
2
100
AcDbEntity
  8
SH-01_OBJECT
  6
Continuous
100
AcDbSpline
210
0.0
220
0.0
230
1.0
 70
     8
 71
     3
 72
    10
 73
     6
 74
     0
 42
0.000000001
 43
0.0000000001
 40
0.0
 40
0.0
 40
0.0
 40
0.0
 40
1.414066280160456
 40
2.784699427105805
 40
3.639641115269328
 40
3.639641115269328
 40
3.639641115269328
 40
3.639641115269342
 10
-75.60036910594658
 20
420.1114008536595
 30
0.0
 10
-76.02399977252151
 20
419.6614585201344
 30
0.0
 10
-76.85824926355781
 20
418.7753938596749
 30
0.0
 10
-74.97020041335304
 20
418.1839797990503
 30
0.0
 10
-75.40383958732741
 20
417.3306937954119
 30
0.0
 10
-75.60036910594658
 20
417.1114008536594
 30
0.0
  0
LINE
  5
201
102
{ACAD_REACTORS
330
25F
330
26F
102
}
330
2
100
AcDbEntity
  8
SH-01_OBJECT
  6
Continuous
100
AcDbLine
 10
-294.2410864460953
 20
420.1114008536595
 30
0.0
 11
-287.3128832158197
 21
416.1114008536595
 31
0.0
  0
LINE
  5
202
330
2
100
AcDbEntity
  8
SH-01_OBJECT
  6
Continuous
100
AcDbLine
 10
-295.0449340233884
 20
417.1114008536594
 30
0.0
 11
-288.116730793113
 21
413.1114008536594
 31
0.0
  0
LINE
  5
203
330
2
100
AcDbEntity
  8
SH-01_INNER LEAD
  6
Continuous
100
AcDbLine
 10
-294.2410864460951
 20
697.4863565789212
 30
0.0
 11
-294.2410864460951
 21
691.4882427618033
 31
0.0
  0
LINE
  5
204
330
2
100
AcDbEntity
  8
SH-01_INNER LEAD
  6
Continuous
100
AcDbLine
 10
-287.3128832158197
 20
697.4863565789212
 30
0.0
 11
-287.3128832158197
 21
691.4882427618033
 31
0.0
  0
LINE
  5
205
330
2
100
AcDbEntity
  8
SH-01_INNER LEAD
  6
Continuous
100
AcDbLine
 10
-220.3846799855443
 20
697.4863565789212
 30
0.0
 11
-220.3846799855443
 21
691.4882427618033
 31
0.0
  0
LINE
  5
206
330
2
100
AcDbEntity
  8
SH-01_INNER LEAD
  6
Continuous
100
AcDbLine
 10
-227.3128832158198
 20
697.4863565789212
 30
0.0
 11
-227.3128832158198
 21
691.4882427618033
 31
0.0
  0
LINE
  5
207
330
2
100
AcDbEntity
  8
SH-01_INNER LEAD
  6
Continuous
100
AcDbLine
 10
-173.1410864460958
 20
697.4863565789212
 30
0.0
 11
-173.1410864460958
 21
691.4882427618033
 31
0.0
  0
LINE
  5
208
330
2
100
AcDbEntity
  8
SH-01_INNER LEAD
  6
Continuous
100
AcDbLine
 10
-166.2128832158203
 20
697.4863565789212
 30
0.0
 11
-166.2128832158203
 21
691.4882427618033
 31
0.0
  0
LINE
  5
209
330
2
100
AcDbEntity
  8
SH-01_INNER LEAD
  6
Continuous
100
AcDbLine
 10
-99.28467998554481
 20
697.4863565789212
 30
0.0
 11
-99.28467998554481
 21
691.4882427618033
 31
0.0
  0
LINE
  5
20A
330
2
100
AcDbEntity
  8
SH-01_INNER LEAD
  6
Continuous
100
AcDbLine
 10
-106.2128832158204
 20
697.4863565789212
 30
0.0
 11
-106.2128832158204
 21
691.4882427618033
 31
0.0
  0
LINE
  5
20B
102
{ACAD_REACTORS
330
25F
102
}
330
2
100
AcDbEntity
  8
SH-01_OBJECT
  6
Continuous
100
AcDbLine
 10
-220.3846799855443
 20
420.1114008536595
 30
0.0
 11
-227.3128832158198
 21
416.1114008536595
 31
0.0
  0
LINE
  5
20C
330
2
100
AcDbEntity
  8
SH-01_OBJECT
  6
Continuous
100
AcDbLine
 10
-219.580832408251
 20
417.1114008536594
 30
0.0
 11
-226.5090356385265
 21
413.1114008536594
 31
0.0
  0
LINE
  5
20D
102
{ACAD_REACTORS
330
24F
102
}
330
2
100
AcDbEntity
  8
SH-01_OBJECT
  6
Continuous
100
AcDbLine
 10
-173.1410864460852
 20
420.1114008536613
 30
0.0
 11
-166.2128832158094
 21
416.1114008536618
 31
0.0
  0
LINE
  5
20E
330
2
100
AcDbEntity
  8
SH-01_OBJECT
  6
Continuous
100
AcDbLine
 10
-173.9449340233782
 20
417.1114008536612
 30
0.0
 11
-167.0167307931024
 21
413.1114008536617
 31
0.0
  0
LINE
  5
20F
102
{ACAD_REACTORS
330
23D
102
}
330
2
100
AcDbEntity
  8
SH-01_OBJECT
  6
Continuous
100
AcDbLine
 10
-99.28467998553925
 20
420.1114008536641
 30
0.0
 11
-106.2128832158149
 21
416.1114008536641
 31
0.0
  0
LINE
  5
210
330
2
100
AcDbEntity
  8
SH-01_OBJECT
  6
Continuous
100
AcDbLine
 10
-98.4808324082461
 20
417.111400853664
 30
0.0
 11
-105.4090356385215
 21
413.111400853664
 31
0.0
  0
LINE
  5
211
330
2
100
AcDbEntity
  8
SH-01_CENTER
100
AcDbLine
 10
-257.3128832158197
 20
426.1089550812612
 30
0.0
 11
-257.3128832158197
 21
403.160609274082
 31
0.0
  0
LINE
  5
212
330
2
100
AcDbEntity
  8
SH-01_CENTER
100
AcDbLine
 10
-136.212883215814
 20
426.1089550812612
 30
0.0
 11
-136.212883215814
 21
403.160609274082
 31
0.0
  0
DIMENSION
  5
213
102
{ACAD_XDICTIONARY
360
214
102
}
102
{ACAD_REACTORS
330
215
102
}
330
2
100
AcDbEntity
  8
SH-01_DIM
  6
Continuous
100
AcDbDimension
280
     0
  2
*D1
 10
-196.7628832158165
 20
544.4872996697372
 30
0.0
 11
-41.67386988880889
 21
544.4872996697372
 31
0.0
 12
-647.8490860146846
 22
194.7857339227397
 32
0.0
 70
     6
 71
     5
 42
0.0
 73
     0
 74
     0
 75
     0
  3
Standard
100
AcDbOrdinateDimension
 13
-191.2428832158128
 23
544.4872996697372
 33
0.0
 14
-52.87386988880905
 24
544.4872996697372
 34
0.0
1001
ACAD
1000
DSTYLE
1002
{
1070
    41
1040
5.0
1070
    42
1040
3.0
1070
    44
1040
3.0
1070
    47
1040
0.05
1070
    73
1070
     1
1070
    74
1070
     1
1070
   140
1040
5.0
1070
   141
1040
3.0
1070
   144
1040
0.05
1070
   147
1040
3.0
1070
   170
1070
     0
1002
}
  0
DIMENSION
  5
21F
102
{ACAD_XDICTIONARY
360
220
102
}
102
{ACAD_REACTORS
330
221
102
}
330
2
100
AcDbEntity
  8
SH-01_DIM
  6
Continuous
100
AcDbDimension
280
     0
  2
*D2
 10
-196.7628832158165
 20
544.4872996697372
 30
0.0
 11
-196.7628832158187
 21
492.6665715602728
 31
0.0
 12
-647.8490860146846
 22
194.7857339227397
 32
0.0
 70
   198
 71
     5
 42
0.0000000000001137
 73
     0
 74
     0
 75
     0
  3
Standard
100
AcDbOrdinateDimension
 13
-196.7628832158187
 23
538.9672996697313
 33
0.0
 14
-196.7628832158187
 24
503.8665715602728
 34
0.0
1001
ACAD
1000
DSTYLE
1002
{
1070
    41
1040
5.0
1070
    42
1040
3.0
1070
    44
1040
3.0
1070
    47
1040
0.05
1070
    73
1070
     1
1070
    74
1070
     1
1070
   140
1040
5.0
1070
   141
1040
3.0
1070
   144
1040
0.05
1070
   147
1040
3.0
1070
   170
1070
     0
1002
}
  0
DIMENSION
  5
22A
102
{ACAD_XDICTIONARY
360
22B
102
}
102
{ACAD_REACTORS
330
22C
102
}
330
2
100
AcDbEntity
  8
SH-01_DIM
  6
Continuous
100
AcDbDimension
280
     0
  2
*D3
 10
-283.8128832157934
 20
799.7090248089241
 30
0.0
 11
-258.8128832157798
 21
799.7090248089241
 31
0.0
 12
-647.8490860146846
 22
194.7857339227397
 32
0.0
 70
   128
 71
     5
 42
2.649999999998954
 73
     0
 74
     0
 75
     0
  3
Standard
100
AcDbAlignedDimension
 13
-230.8128832158143
 23
716.9872996703509
 33
0.0
 14
-283.8128832157934
 24
716.9872996703509
 34
0.0
100
AcDbRotatedDimension
1001
ACAD
1000
DSTYLE
1002
{
1070
    41
1040
5.0
1070
    42
1040
3.0
1070
    44
1040
3.0
1070
    47
1040
0.05
1070
    73
1070
     1
1070
    74
1070
     1
1070
   140
1040
5.0
1070
   141
1040
3.0
1070
   144
1040
0.05
1070
   147
1040
3.0
1070
   170
1070
     0
1002
}
  0
DIMENSION
  5
23B
102
{ACAD_XDICTIONARY
360
23C
102
}
102
{ACAD_REACTORS
330
23D
102
}
330
2
100
AcDbEntity
  8
SH-01_DIM
  6
Continuous
100
AcDbDimension
280
     0
  2
*D4
 10
-75.60036910594658
 20
420.1114008536595
 30
0.0
 11
-55.42076426580127
 21
431.4831137389203
 31
0.0
 12
-647.8490860146846
 22
194.7857339227397
 32
0.0
 70
   130
 71
     5
 42
0.5235987755982963
 73
     0
 74
     0
 75
     0
  3
Standard
100
AcDb2LineAngularDimension
 13
-99.28467998553925
 23
420.1114008536641
 33
0.0
 14
-106.2128832158149
 24
416.1114008536641
 34
0.0
 15
-99.28467998554731
 25
420.1114008536595
 35
0.0
 16
-56.7034448323136
 26
435.6097029877259
 36
0.0
1001
ACAD
1000
DSTYLE
1002
{
1070
    41
1040
5.0
1070
    42
1040
3.0
1070
    44
1040
3.0
1070
    47
1040
5.0
1070
    48
1040
5.0
1070
    71
1070
     1
1070
    73
1070
     1
1070
    74
1070
     1
1070
   140
1040
5.0
1070
   141
1040
3.0
1070
   144
1040
0.05
1070
   147
1040
3.0
1070
   170
1070
     0
1070
   272
1070
     0
1002
}
  0
DIMENSION
  5
24D
102
{ACAD_XDICTIONARY
360
24E
102
}
102
{ACAD_REACTORS
330
24F
102
}
330
2
100
AcDbEntity
  8
SH-01_DIM
  6
Continuous
100
AcDbDimension
280
     0
  2
*D5
 10
-106.2128832158228
 20
443.2049168096989
 30
0.0
 11
-136.2917033692272
 21
443.2049168096989
 31
0.0
 12
-647.8490860146846
 22
194.7857339227397
 32
0.0
 70
   128
 71
     5
 42
2.999999999999118
 73
     0
 74
     0
 75
     0
  3
Standard
100
AcDbAlignedDimension
 13
-166.2128832158051
 23
416.1114008536594
 33
0.0
 14
-106.2128832158228
 24
416.1114008536594
 34
0.0
100
AcDbRotatedDimension
1001
ACAD
1000
DSTYLE
1002
{
1070
    41
1040
5.0
1070
    42
1040
3.0
1070
    44
1040
3.0
1070
    47
1040
0.1
1070
    48
1040
0.1
1070
    71
1070
     1
1070
    73
1070
     1
1070
    74
1070
     1
1070
   140
1040
5.0
1070
   141
1040
3.0
1070
   144
1040
0.05
1070
   147
1040
3.0
1070
   170
1070
     0
1002
}
  0
DIMENSION
  5
25D
102
{ACAD_XDICTIONARY
360
25E
102
}
102
{ACAD_REACTORS
330
25F
102
}
330
2
100
AcDbEntity
  8
SH-01_DIM
  6
Continuous
100
AcDbDimension
280
     0
  2
*D6
 10
-227.3128832158198
 20
443.5814266423703
 30
0.0
 11
-257.2829699979837
 21
443.5814266423703
 31
0.0
 12
-647.8490860146846
 22
194.7857339227397
 32
0.0
 70
   128
 71
     5
 42
3.0
 73
     0
 74
     0
 75
     0
  3
Standard
100
AcDbAlignedDimension
 13
-287.3128832158197
 23
416.1114008536595
 33
0.0
 14
-227.3128832158198
 24
416.1114008536595
 34
0.0
100
AcDbRotatedDimension
1001
ACAD
1000
DSTYLE
1002
{
1070
    41
1040
5.0
1070
    42
1040
3.0
1070
    44
1040
3.0
1070
    47
1040
0.1
1070
    48
1040
0.1
1070
    71
1070
     1
1070
    73
1070
     1
1070
    74
1070
     1
1070
   140
1040
5.0
1070
   141
1040
3.0
1070
   144
1040
0.05
1070
   147
1040
3.0
1070
   170
1070
     0
1002
}
  0
DIMENSION
  5
26D
102
{ACAD_XDICTIONARY
360
26E
102
}
102
{ACAD_REACTORS
330
26F
102
}
330
2
100
AcDbEntity
  8
SH-01_DIM
  6
Continuous
100
AcDbDimension
280
     0
  2
*D7
 10
-326.5230015835535
 20
420.1114008536595
 30
0.0
 11
-354.046811107363
 21
403.5127043951481
 31
0.0
 12
-647.8490860146846
 22
194.7857339227397
 32
0.0
 70
   128
 71
     5
 42
0.2
 73
     0
 74
     0
 75
     0
  3
Standard
100
AcDbAlignedDimension
 13
-287.3128832158197
 23
416.1114008536595
 33
0.0
 14
-317.9253973256908
 24
420.1114008536595
 34
0.0
 50
90.0
100
AcDbRotatedDimension
1001
ACAD
1000
DSTYLE
1002
{
1070
    41
1040
5.0
1070
    42
1040
3.0
1070
    44
1040
3.0
1070
    47
1040
0.03
1070
    48
1040
0.03
1070
    71
1070
     1
1070
    73
1070
     1
1070
    74
1070
     1
1070
   140
1040
5.0
1070
   141
1040
3.0
1070
   144
1040
0.05
1070
   147
1040
3.0
1070
   170
1070
     0
1002
}
  0
DIMENSION
  5
27E
102
{ACAD_XDICTIONARY
360
27F
102
}
102
{ACAD_REACTORS
330
280
102
}
330
2
100
AcDbEntity
  8
SH-01_DIM
  6
Continuous
100
AcDbDimension
280
     0
  2
*D8
 10
-348.8128645421144
 20
667.9872996703728
 30
0.0
 11
-348.8128645421145
 21
693.6812702728668
 31
0.0
 12
-647.8490860146846
 22
194.7857339227397
 32
0.0
 70
   128
 71
     5
 42
2.649999999998956
 73
     0
 74
     0
 75
     0
  3
Standard
100
AcDbAlignedDimension
 13
-279.8128832157924
 23
720.9872996703518
 33
0.0
 14
-279.8128832157833
 24
667.9872996703728
 34
0.0
 50
90.0
100
AcDbRotatedDimension
1001
ACAD
1000
DSTYLE
1002
{
1070
    41
1040
5.0
1070
    42
1040
3.0
1070
    44
1040
3.0
1070
    47
1040
0.03
1070
    48
1040
0.03
1070
   140
1040
5.0
1070
   141
1040
3.0
1070
   144
1040
0.05
1070
   147
1040
3.0
1070
   170
1070
     0
1002
}
  0
DIMENSION
  5
28E
102
{ACAD_XDICTIONARY
360
28F
102
}
102
{ACAD_REACTORS
330
290
102
}
330
2
100
AcDbEntity
  8
SH-01_DIM
  6
Continuous
100
AcDbDimension
280
     0
  2
*D9
 10
-196.7628832158165
 20
544.4872996697372
 30
0.0
 11
-40.2436723771292
 21
694.4872996703736
 31
0.0
 12
-647.8490860146846
 22
194.7857339227397
 32
0.0
 70
     6
 71
     5
 42
7.500000000031821
 73
     0
 74
     0
 75
     0
  3
Standard
100
AcDbOrdinateDimension
 13
-126.2128832158195
 23
694.4872996703736
 33
0.0
 14
-53.14843428189101
 24
694.4872996703736
 34
0.0
1001
ACAD
1000
DSTYLE
1002
{
1070
    41
1040
5.0
1070
    42
1040
3.0
1070
    44
1040
3.0
1070
    47
1040
0.03
1070
    48
1040
0.03
1070
   140
1040
5.0
1070
   141
1040
3.0
1070
   144
1040
0.05
1070
   147
1040
3.0
1070
   170
1070
     0
1070
   271
1070
     4
1002
}
  0
LEADER
  5
299
102
{ACAD_XDICTIONARY
360
29A
102
}
102
{ACAD_REACTORS
330
29B
102
}
330
2
100
AcDbEntity
  8
SH-01_NOTES
100
AcDbLeader
  3
Standard
 73
     0
 40
16.9047619047619
 41
44.38095238095238
 76
     3
 10
-259.3428008058943
 20
643.931078280045
 30
0.0
 10
-323.0887820307105
 20
501.5457818681873
 30
0.0
 10
-333.0762427535995
 20
501.5457818681873
 30
0.0
340
29C
1001
ACAD
1000
DSTYLE
1002
{
1070
    41
1040
5.0
1070
    42
1040
3.0
1070
    44
1040
3.0
1070
    47
1040
0.03
1070
    48
1040
0.03
1070
    73
1070
     1
1070
    74
1070
     1
1070
   140
1040
5.0
1070
   141
1040
3.0
1070
   144
1040
0.01
1070
   147
1040
3.0
1070
   170
1070
     0
1070
   271
1070
     4
1070
   272
1070
     4
1002
}
  0
MTEXT
  5
29C
102
{ACAD_REACTORS
330
299
102
}
330
2
100
AcDbEntity
  8
SH-01_NOTES
100
AcDbMText
 10
-336.0762427535994
 20
501.5457818681873
 30
0.0
 40
5.0
 41
0.0
 46
0.0
 71
     6
 72
     1
  1
SEE DETAIL 'B'\P(SHT-02)
 73
     1
 44
1.0
  0
ENDSEC
  0
SECTION
  2
OBJECTS
  0
DICTIONARY
  5
B
330
0
100
AcDbDictionary
281
     1
  3
ACAD_COLOR
350
37
  3
ACAD_GROUP
350
33
  3
ACAD_LAYOUT
350
12
  3
ACAD_MATERIAL
350
D
  3
ACAD_MLEADERSTYLE
350
3A
  3
ACAD_MLINESTYLE
350
34
  3
ACAD_PLOTSETTINGS
350
35
  3
ACAD_PLOTSTYLENAME
350
A
  3
ACAD_SCALELIST
350
38
  3
ACAD_TABLESTYLE
350
39
  3
ACAD_VISUALSTYLE
350
2A
  3
ACDB_RECOMPOSE_DATA
350
2A0
  3
AcDbVariableDictionary
350
3B
  0
DICTIONARY
  5
2C
330
27
100
AcDbDictionary
280
     1
281
     1
  0
DICTIONARY
  5
1A
330
19
100
AcDbDictionary
280
     1
281
     1
  3
ACAD_LAYERFILTERS
360
1B
  3
ACAD_LAYERSTATES
360
1C
  3
ACLYDICTIONARY
360
1D
  0
DICTIONARY
  5
7
330
6
100
AcDbDictionary
280
     1
281
     1
  3
ADSK_XREC_LAYER_RECONCILED
360
8
  0
DICTIONARY
  5
4B
330
4A
100
AcDbDictionary
280
     1
281
     1
  3
ADSK_XREC_LAYER_RECONCILED
360
4C
  0
DICTIONARY
  5
7A
330
79
100
AcDbDictionary
280
     1
281
     1
  3
ADSK_XREC_LAYER_RECONCILED
360
7B
  0
DICTIONARY
  5
75
330
74
100
AcDbDictionary
280
     1
281
     1
  3
ADSK_XREC_LAYER_RECONCILED
360
76
  0
DICTIONARY
  5
7E
330
7D
100
AcDbDictionary
280
     1
281
     1
  3
ADSK_XREC_LAYER_RECONCILED
360
7F
  0
DICTIONARY
  5
D5
330
D4
100
AcDbDictionary
280
     1
281
     1
  3
ADSK_XREC_LAYER_RECONCILED
360
D6
  0
DICTIONARY
  5
1EF
330
1EE
100
AcDbDictionary
280
     1
281
     1
  3
ADSK_XREC_LAYER_RECONCILED
360
1F0
  0
DICTIONARY
  5
1C7
330
1C6
100
AcDbDictionary
280
     1
281
     1
  3
ADSK_XREC_LAYER_RECONCILED
360
1C8
  0
DICTIONARY
  5
EA
330
E9
100
AcDbDictionary
280
     1
281
     1
  3
ADSK_XREC_LAYER_RECONCILED
360
EB
  0
DICTIONARY
  5
3
330
2
100
AcDbDictionary
280
     1
281
     1
  3
ACAD_SORTENTS
360
29D
  0
DICTIONARY
  5
214
330
213
100
AcDbDictionary
280
     1
281
     1
  3
ACAD_DIMASSOC
360
215
  0
DICTIONARY
  5
220
330
21F
100
AcDbDictionary
280
     1
281
     1
  3
ACAD_DIMASSOC
360
221
  0
DICTIONARY
  5
22B
330
22A
100
AcDbDictionary
280
     1
281
     1
  3
ACAD_DIMASSOC
360
22C
  0
DICTIONARY
  5
23C
330
23B
100
AcDbDictionary
280
     1
281
     1
  3
ACAD_DIMASSOC
360
23D
  0
DICTIONARY
  5
24E
330
24D
100
AcDbDictionary
280
     1
281
     1
  3
ACAD_DIMASSOC
360
24F
  0
DICTIONARY
  5
25E
330
25D
100
AcDbDictionary
280
     1
281
     1
  3
ACAD_DIMASSOC
360
25F
  0
DICTIONARY
  5
26E
330
26D
100
AcDbDictionary
280
     1
281
     1
  3
ACAD_DIMASSOC
360
26F
  0
DICTIONARY
  5
27F
330
27E
100
AcDbDictionary
280
     1
281
     1
  3
ACAD_DIMASSOC
360
280
  0
DICTIONARY
  5
28F
330
28E
100
AcDbDictionary
280
     1
281
     1
  3
ACAD_DIMASSOC
360
290
  0
DICTIONARY
  5
29A
330
299
100
AcDbDictionary
280
     1
281
     1
  3
ACAD_DIMASSOC
360
29B
  0
DICTIONARY
  5
37
102
{ACAD_REACTORS
330
B
102
}
330
B
100
AcDbDictionary
281
     1
  0
DICTIONARY
  5
33
102
{ACAD_REACTORS
330
B
102
}
330
B
100
AcDbDictionary
281
     1
  0
DICTIONARY
  5
12
102
{ACAD_REACTORS
330
B
102
}
330
B
100
AcDbDictionary
281
     1
  3
Layout1
350
18
  3
Model
350
11
1001
ACADSTRINGINFO
1000
MIFCodePage
1070
     2
  0
DICTIONARY
  5
D
102
{ACAD_REACTORS
330
B
102
}
330
B
100
AcDbDictionary
281
     1
  3
ByBlock
350
36
  3
ByLayer
350
F
  3
Global
350
C
  0
DICTIONARY
  5
3A
102
{ACAD_REACTORS
330
B
102
}
330
B
100
AcDbDictionary
281
     1
  0
DICTIONARY
  5
34
102
{ACAD_REACTORS
330
B
102
}
330
B
100
AcDbDictionary
281
     1
  3
Standard
350
4D
  0
DICTIONARY
  5
35
102
{ACAD_REACTORS
330
B
102
}
330
B
100
AcDbDictionary
281
     1
  0
ACDBDICTIONARYWDFLT
  5
A
102
{ACAD_REACTORS
330
B
102
}
330
B
100
AcDbDictionary
281
     1
  3
Normal
350
9
100
AcDbDictionaryWithDefault
340
9
  0
DICTIONARY
  5
38
102
{ACAD_REACTORS
330
B
102
}
330
B
100
AcDbDictionary
281
     1
  3
A0
350
52
  3
A1
350
53
  3
A2
350
54
  3
A3
350
55
  3
A4
350
56
  3
A5
350
57
  3
A6
350
58
  3
A7
350
59
  3
A8
350
5A
  3
A9
350
5B
  3
B0
350
5C
  3
B1
350
5D
  3
B2
350
5E
  3
B3
350
5F
  3
B4
350
60
  3
B5
350
61
  3
B6
350
62
  3
B7
350
63
  3
B8
350
64
  3
B9
350
65
  3
C0
350
66
  3
C1
350
67
  3
C2
350
68
  3
C3
350
69
  3
C4
350
6A
  3
C5
350
6B
  3
C6
350
6C
  3
C7
350
6D
  3
C8
350
6E
  3
C9
350
6F
  3
D0
350
70
  3
D1
350
71
  3
D2
350
72
  0
DICTIONARY
  5
39
102
{ACAD_REACTORS
330
B
102
}
330
B
100
AcDbDictionary
281
     1
  3
Standard
350
4E
  0
DICTIONARY
  5
2A
102
{ACAD_REACTORS
330
B
102
}
330
B
100
AcDbDictionary
281
     1
  3
2dWireframe
350
29
  3
EdgeColorOff
350
234
  3
Realistic
350
50
  3
Wireframe
350
51
  0
XRECORD
  5
2A0
102
{ACAD_REACTORS
330
B
102
}
330
B
100
AcDbXrecord
280
     1
 90
        1
330
4E
  0
DICTIONARY
  5
3B
102
{ACAD_REACTORS
330
B
102
}
330
B
100
AcDbDictionary
281
     1
  3
CANNOSCALE
350
3C
  3
CMLEADERSTYLE
350
3D
  3
CTABLESTYLE
350
3E
  3
CVIEWDETAILSTYLE
350
3F
  3
CVIEWSECTIONSTYLE
350
40
  3
DIMASSOC
350
41
  3
HIDETEXT
350
42
  3
INDEXCTL
350
43
  3
LAYEREVAL
350
44
  3
LAYERNOTIFY
350
45
  3
LIGHTINGUNITS
350
46
  3
MSLTSCALE
350
47
  3
PROJECTNAME
350
48
  3
SORTENTS
350
49
  0
DICTIONARY
  5
1B
102
{ACAD_REACTORS
330
1A
102
}
330
1A
100
AcDbDictionary
281
     1
  0
DICTIONARY
  5
1C
102
{ACAD_REACTORS
330
1A
102
}
330
1A
100
AcDbDictionary
281
     1
  0
DICTIONARY
  5
1D
102
{ACAD_REACTORS
330
1A
102
}
330
1A
100
AcDbDictionary
281
     1
1001
ACAD
1000
<All
  0
XRECORD
  5
8
102
{ACAD_REACTORS
330
7
102
}
330
7
100
AcDbXrecord
280
     1
290
     1
  0
XRECORD
  5
4C
102
{ACAD_REACTORS
330
4B
102
}
330
4B
100
AcDbXrecord
280
     1
290
     1
  0
XRECORD
  5
7B
102
{ACAD_REACTORS
330
7A
102
}
330
7A
100
AcDbXrecord
280
     1
290
     1
  0
XRECORD
  5
76
102
{ACAD_REACTORS
330
75
102
}
330
75
100
AcDbXrecord
280
     1
290
     1
  0
XRECORD
  5
7F
102
{ACAD_REACTORS
330
7E
102
}
330
7E
100
AcDbXrecord
280
     1
290
     1
  0
XRECORD
  5
D6
102
{ACAD_REACTORS
330
D5
102
}
330
D5
100
AcDbXrecord
280
     1
290
     1
  0
XRECORD
  5
1F0
102
{ACAD_REACTORS
330
1EF
102
}
330
1EF
100
AcDbXrecord
280
     1
290
     1
  0
XRECORD
  5
1C8
102
{ACAD_REACTORS
330
1C7
102
}
330
1C7
100
AcDbXrecord
280
     1
290
     1
  0
XRECORD
  5
EB
102
{ACAD_REACTORS
330
EA
102
}
330
EA
100
AcDbXrecord
280
     1
290
     1
  0
SORTENTSTABLE
  5
29D
102
{ACAD_REACTORS
330
3
102
}
330
3
100
AcDbSortentsTable
330
2
  0
DIMASSOC
  5
215
102
{ACAD_REACTORS
330
214
102
}
330
214
100
AcDbDimAssoc
330
213
 90
        2
 70
     0
 71
     0
  1
AcDbOsnapPointRef
 72
    13
331
81
 73
     2
 91
        0
 40
0.0
 10
0.0
 20
0.0
 30
2.000000000000000E+50
 75
     0
  0
DIMASSOC
  5
221
102
{ACAD_REACTORS
330
220
102
}
330
220
100
AcDbDimAssoc
330
21F
 90
        2
 70
     0
 71
     0
  1
AcDbOsnapPointRef
 72
     1
331
7C
 73
     2
 91
        0
 40
1.0
 10
0.0
 20
0.0
 30
2.000000000000000E+50
 75
     0
  0
DIMASSOC
  5
22C
102
{ACAD_REACTORS
330
22B
102
}
330
22B
100
AcDbDimAssoc
330
22A
 90
        3
 70
     0
 71
     0
  1
AcDbOsnapPointRef
 72
     1
331
ED
331
160
 73
     2
 91
        0
 40
1.0
 10
0.0
 20
0.0
 30
2.000000000000000E+50
 75
     0
  1
AcDbOsnapPointRef
 72
     1
331
ED
331
164
 73
     2
 91
        0
 40
3.141592653589792
 10
0.0
 20
0.0
 30
2.000000000000000E+50
 75
     0
  0
DIMASSOC
  5
23D
102
{ACAD_REACTORS
330
23C
102
}
330
23C
100
AcDbDimAssoc
330
23B
 90
       15
 70
     0
 71
     0
  1
AcDbOsnapPointRef
 72
    13
331
20F
 73
     2
 91
        0
 40
0.0
 10
0.0
 20
0.0
 30
2.000000000000000E+50
 75
     0
  1
AcDbOsnapPointRef
 72
     1
331
20F
 73
     2
 91
        0
 40
1.0
 10
0.0
 20
0.0
 30
2.000000000000000E+50
 75
     0
  1
AcDbOsnapPointRef
 72
    13
331
1F7
 73
     2
 91
        0
 40
0.0
 10
0.0
 20
0.0
 30
2.000000000000000E+50
 75
     0
  1
AcDbOsnapPointRef
 72
     1
331
1F7
 73
     2
 91
        0
 40
1.0
 10
0.0
 20
0.0
 30
2.000000000000000E+50
 75
     0
  0
DIMASSOC
  5
24F
102
{ACAD_REACTORS
330
24E
102
}
330
24E
100
AcDbDimAssoc
330
24D
 90
        3
 70
     0
 71
     0
  1
AcDbOsnapPointRef
 72
     6
331
20D
 73
     2
 91
        0
 40
1.0
 10
0.0
 20
0.0
 30
0.0
332
1F9
 74
     2
 92
        0
 75
     0
  1
AcDbOsnapPointRef
 72
     1
331
1F9
 73
     2
 91
        0
 40
1.0
 10
0.0
 20
0.0
 30
2.000000000000000E+50
 75
     0
  0
DIMASSOC
  5
25F
102
{ACAD_REACTORS
330
25E
102
}
330
25E
100
AcDbDimAssoc
330
25D
 90
        3
 70
     0
 71
     0
  1
AcDbOsnapPointRef
 72
     1
331
201
 73
     2
 91
        0
 40
1.0
 10
0.0
 20
0.0
 30
2.000000000000000E+50
 75
     0
  1
AcDbOsnapPointRef
 72
     1
331
20B
 73
     2
 91
        0
 40
1.0
 10
0.0
 20
0.0
 30
2.000000000000000E+50
 75
     0
  0
DIMASSOC
  5
26F
102
{ACAD_REACTORS
330
26E
102
}
330
26E
100
AcDbDimAssoc
330
26D
 90
        3
 70
     0
 71
     0
  1
AcDbOsnapPointRef
 72
     1
331
201
 73
     2
 91
        0
 40
1.0
 10
0.0
 20
0.0
 30
2.000000000000000E+50
 75
     0
  1
AcDbOsnapPointRef
 72
    13
331
1FF
 73
     2
 91
        0
 40
0.0
 10
0.0
 20
0.0
 30
2.000000000000000E+50
 75
     0
  0
DIMASSOC
  5
280
102
{ACAD_REACTORS
330
27F
102
}
330
27F
100
AcDbDimAssoc
330
27E
 90
        3
 70
     0
 71
     0
  1
AcDbOsnapPointRef
 72
     8
331
ED
331
163
 73
     2
 91
        0
 40
1.0
 10
0.0
 20
0.0
 30
0.0
 75
     1
  1
AcDbOsnapPointRef
 72
     0
 40
0.0
 10
368.0362027988922
 20
473.2015657476376
 30
0.0
 75
     0
  1
AcDbOsnapPointRef
 72
    13
331
ED
331
152
 73
     2
 91
        0
 40
0.0
 10
0.0
 20
0.0
 30
2.000000000000000E+50
 75
     0
  0
DIMASSOC
  5
290
102
{ACAD_REACTORS
330
28F
102
}
330
28F
100
AcDbDimAssoc
330
28E
 90
        2
 70
     0
 71
     0
  1
AcDbOsnapPointRef
 72
     1
331
DC
 73
     2
 91
        0
 40
1.0
 10
0.0
 20
0.0
 30
2.000000000000000E+50
 75
     0
  0
DIMASSOC
  5
29B
102
{ACAD_REACTORS
330
29A
102
}
330
29A
100
AcDbDimAssoc
330
299
 90
        1
 70
     0
 71
     0
  1
AcDbOsnapPointRef
 72
     1
331
1ED
 73
     2
 91
        5
 40
1.0
 10
0.0
 20
0.0
 30
2.000000000000000E+50
 75
     0
  0
LAYOUT
  5
18
102
{ACAD_REACTORS
330
12
102
}
330
12
100
AcDbPlotSettings
  1

  2
None
  4

  6

 40
0.0
 41
0.0
 42
0.0
 43
0.0
 44
0.0
 45
0.0
 46
0.0
 47
0.0
 48
0.0
 49
0.0
140
0.0
141
0.0
142
1.0
143
1.0
 70
   688
 72
     0
 73
     0
 74
     5
  7

 75
    16
147
1.0
 76
     0
 77
     2
 78
   300
148
0.0
149
0.0
100
AcDbLayout
  1
Layout1
 70
     1
 71
     1
 10
0.0
 20
0.0
 11
12.0
 21
9.0
 12
0.0
 22
0.0
 32
0.0
 14
0.0
 24
0.0
 34
0.0
 15
0.0
 25
0.0
 35
0.0
146
0.0
 13
0.0
 23
0.0
 33
0.0
 16
1.0
 26
0.0
 36
0.0
 17
0.0
 27
1.0
 37
0.0
 76
     0
330
15
1001
ACADSTRINGINFO
1000
MIFCodePage
1070
     2
  0
LAYOUT
  5
11
102
{ACAD_XDICTIONARY
360
14
102
}
102
{ACAD_REACTORS
330
12
102
}
330
12
100
AcDbPlotSettings
  1

  2
FX Document Centre C400 PCL 6
  4
Letter
  6

 40
4.773083209991455
 41
4.815417766571044
 42
4.815414428710936
 43
4.7730712890625
 44
215.8999938964844
 45
279.3999938964844
 46
0.0
 47
0.0
 48
0.0
 49
0.0
140
0.0
141
0.0
142
1.0
143
14.64352952249187
 70
 11952
 72
     0
 73
     1
 74
     0
  7

 75
     0
147
0.0682895471658005
 76
     0
 77
     2
 78
   300
148
31853.37391143018
149
-25131.29175652567
100
AcDbLayout
  1
Model
 70
     1
 71
     0
 10
0.0
 20
0.0
 11
12.0
 21
9.0
 12
0.0
 22
0.0
 32
0.0
 14
0.0
 24
0.0
 34
0.0
 15
0.0
 25
0.0
 35
0.0
146
0.0
 13
0.0
 23
0.0
 33
0.0
 16
1.0
 26
0.0
 36
0.0
 17
0.0
 27
1.0
 37
0.0
 76
     0
330
2
331
28
  0
MATERIAL
  5
36
102
{ACAD_REACTORS
330
D
102
}
330
D
100
AcDbMaterial
  1
ByBlock
 73
     1
 78
     1
172
     1
176
     1
270
     1
274
     1
 94
       63
  0
MATERIAL
  5
F
102
{ACAD_REACTORS
330
D
102
}
330
D
100
AcDbMaterial
  1
ByLayer
 73
     1
 78
     1
172
     1
176
     1
270
     1
274
     1
 94
       63
  0
MATERIAL
  5
C
102
{ACAD_REACTORS
330
D
102
}
330
D
100
AcDbMaterial
  1
Global
 73
     1
 78
     1
172
     1
176
     1
270
     1
274
     1
 94
       63
  0
MLINESTYLE
  5
4D
102
{ACAD_REACTORS
330
34
102
}
330
34
100
AcDbMlineStyle
  2
STANDARD
 70
     0
  3

 62
   256
 51
90.0
 52
90.0
 71
     2
 49
0.5
 62
   256
  6
BYLAYER
 49
-0.5
 62
   256
  6
BYLAYER
  0
ACDBPLACEHOLDER
  5
9
102
{ACAD_REACTORS
330
A
102
}
330
A
  0
SCALE
  5
52
102
{ACAD_REACTORS
330
38
102
}
330
38
100
AcDbScale
 70
     0
300
1:1
140
1.0
141
1.0
290
     1
1001
ACAD
1000
AcRTDxfName
1000
SCALE
1000
AcRTDxfName
1000
SCALE
  0
SCALE
  5
53
102
{ACAD_REACTORS
330
38
102
}
330
38
100
AcDbScale
 70
     0
300
1:2
140
1.0
141
2.0
290
     0
1001
ACAD
1000
AcRTDxfName
1000
SCALE
1000
AcRTDxfName
1000
SCALE
  0
SCALE
  5
54
102
{ACAD_REACTORS
330
38
102
}
330
38
100
AcDbScale
 70
     0
300
1:4
140
1.0
141
4.0
290
     0
1001
ACAD
1000
AcRTDxfName
1000
SCALE
1000
AcRTDxfName
1000
SCALE
  0
SCALE
  5
55
102
{ACAD_REACTORS
330
38
102
}
330
38
100
AcDbScale
 70
     0
300
1:5
140
1.0
141
5.0
290
     0
1001
ACAD
1000
AcRTDxfName
1000
SCALE
1000
AcRTDxfName
1000
SCALE
  0
SCALE
  5
56
102
{ACAD_REACTORS
330
38
102
}
330
38
100
AcDbScale
 70
     0
300
1:8
140
1.0
141
8.0
290
     0
1001
ACAD
1000
AcRTDxfName
1000
SCALE
1000
AcRTDxfName
1000
SCALE
  0
SCALE
  5
57
102
{ACAD_REACTORS
330
38
102
}
330
38
100
AcDbScale
 70
     0
300
1:10
140
1.0
141
10.0
290
     0
1001
ACAD
1000
AcRTDxfName
1000
SCALE
1000
AcRTDxfName
1000
SCALE
  0
SCALE
  5
58
102
{ACAD_REACTORS
330
38
102
}
330
38
100
AcDbScale
 70
     0
300
1:16
140
1.0
141
16.0
290
     0
1001
ACAD
1000
AcRTDxfName
1000
SCALE
1000
AcRTDxfName
1000
SCALE
  0
SCALE
  5
59
102
{ACAD_REACTORS
330
38
102
}
330
38
100
AcDbScale
 70
     0
300
1:20
140
1.0
141
20.0
290
     0
1001
ACAD
1000
AcRTDxfName
1000
SCALE
1000
AcRTDxfName
1000
SCALE
  0
SCALE
  5
5A
102
{ACAD_REACTORS
330
38
102
}
330
38
100
AcDbScale
 70
     0
300
1:30
140
1.0
141
30.0
290
     0
1001
ACAD
1000
AcRTDxfName
1000
SCALE
1000
AcRTDxfName
1000
SCALE
  0
SCALE
  5
5B
102
{ACAD_REACTORS
330
38
102
}
330
38
100
AcDbScale
 70
     0
300
1:40
140
1.0
141
40.0
290
     0
1001
ACAD
1000
AcRTDxfName
1000
SCALE
1000
AcRTDxfName
1000
SCALE
  0
SCALE
  5
5C
102
{ACAD_REACTORS
330
38
102
}
330
38
100
AcDbScale
 70
     0
300
1:50
140
1.0
141
50.0
290
     0
1001
ACAD
1000
AcRTDxfName
1000
SCALE
1000
AcRTDxfName
1000
SCALE
  0
SCALE
  5
5D
102
{ACAD_REACTORS
330
38
102
}
330
38
100
AcDbScale
 70
     0
300
1:100
140
1.0
141
100.0
290
     0
1001
ACAD
1000
AcRTDxfName
1000
SCALE
1000
AcRTDxfName
1000
SCALE
  0
SCALE
  5
5E
102
{ACAD_REACTORS
330
38
102
}
330
38
100
AcDbScale
 70
     0
300
2:1
140
2.0
141
1.0
290
     0
1001
ACAD
1000
AcRTDxfName
1000
SCALE
1000
AcRTDxfName
1000
SCALE
  0
SCALE
  5
5F
102
{ACAD_REACTORS
330
38
102
}
330
38
100
AcDbScale
 70
     0
300
4:1
140
4.0
141
1.0
290
     0
1001
ACAD
1000
AcRTDxfName
1000
SCALE
1000
AcRTDxfName
1000
SCALE
  0
SCALE
  5
60
102
{ACAD_REACTORS
330
38
102
}
330
38
100
AcDbScale
 70
     0
300
8:1
140
8.0
141
1.0
290
     0
1001
ACAD
1000
AcRTDxfName
1000
SCALE
1000
AcRTDxfName
1000
SCALE
  0
SCALE
  5
61
102
{ACAD_REACTORS
330
38
102
}
330
38
100
AcDbScale
 70
     0
300
10:1
140
10.0
141
1.0
290
     0
1001
ACAD
1000
AcRTDxfName
1000
SCALE
1000
AcRTDxfName
1000
SCALE
  0
SCALE
  5
62
102
{ACAD_REACTORS
330
38
102
}
330
38
100
AcDbScale
 70
     0
300
100:1
140
100.0
141
1.0
290
     0
1001
ACAD
1000
AcRTDxfName
1000
SCALE
1000
AcRTDxfName
1000
SCALE
  0
SCALE
  5
63
102
{ACAD_REACTORS
330
38
102
}
330
38
100
AcDbScale
 70
     0
300
1/128" = 1'-0"
140
0.0078125
141
12.0
290
     0
1001
ACAD
1000
AcRTDxfName
1000
SCALE
1000
AcRTDxfName
1000
SCALE
  0
SCALE
  5
64
102
{ACAD_REACTORS
330
38
102
}
330
38
100
AcDbScale
 70
     0
300
1/64" = 1'-0"
140
0.015625
141
12.0
290
     0
1001
ACAD
1000
AcRTDxfName
1000
SCALE
1000
AcRTDxfName
1000
SCALE
  0
SCALE
  5
65
102
{ACAD_REACTORS
330
38
102
}
330
38
100
AcDbScale
 70
     0
300
1/32" = 1'-0"
140
0.03125
141
12.0
290
     0
1001
ACAD
1000
AcRTDxfName
1000
SCALE
1000
AcRTDxfName
1000
SCALE
  0
SCALE
  5
66
102
{ACAD_REACTORS
330
38
102
}
330
38
100
AcDbScale
 70
     0
300
1/16" = 1'-0"
140
0.0625
141
12.0
290
     0
1001
ACAD
1000
AcRTDxfName
1000
SCALE
1000
AcRTDxfName
1000
SCALE
  0
SCALE
  5
67
102
{ACAD_REACTORS
330
38
102
}
330
38
100
AcDbScale
 70
     0
300
3/32" = 1'-0"
140
0.09375
141
12.0
290
     0
1001
ACAD
1000
AcRTDxfName
1000
SCALE
1000
AcRTDxfName
1000
SCALE
  0
SCALE
  5
68
102
{ACAD_REACTORS
330
38
102
}
330
38
100
AcDbScale
 70
     0
300
1/8" = 1'-0"
140
0.125
141
12.0
290
     0
1001
ACAD
1000
AcRTDxfName
1000
SCALE
1000
AcRTDxfName
1000
SCALE
  0
SCALE
  5
69
102
{ACAD_REACTORS
330
38
102
}
330
38
100
AcDbScale
 70
     0
300
3/16" = 1'-0"
140
0.1875
141
12.0
290
     0
1001
ACAD
1000
AcRTDxfName
1000
SCALE
1000
AcRTDxfName
1000
SCALE
  0
SCALE
  5
6A
102
{ACAD_REACTORS
330
38
102
}
330
38
100
AcDbScale
 70
     0
300
1/4" = 1'-0"
140
0.25
141
12.0
290
     0
1001
ACAD
1000
AcRTDxfName
1000
SCALE
1000
AcRTDxfName
1000
SCALE
  0
SCALE
  5
6B
102
{ACAD_REACTORS
330
38
102
}
330
38
100
AcDbScale
 70
     0
300
3/8" = 1'-0"
140
0.375
141
12.0
290
     0
1001
ACAD
1000
AcRTDxfName
1000
SCALE
1000
AcRTDxfName
1000
SCALE
  0
SCALE
  5
6C
102
{ACAD_REACTORS
330
38
102
}
330
38
100
AcDbScale
 70
     0
300
1/2" = 1'-0"
140
0.5
141
12.0
290
     0
1001
ACAD
1000
AcRTDxfName
1000
SCALE
1000
AcRTDxfName
1000
SCALE
  0
SCALE
  5
6D
102
{ACAD_REACTORS
330
38
102
}
330
38
100
AcDbScale
 70
     0
300
3/4" = 1'-0"
140
0.75
141
12.0
290
     0
1001
ACAD
1000
AcRTDxfName
1000
SCALE
1000
AcRTDxfName
1000
SCALE
  0
SCALE
  5
6E
102
{ACAD_REACTORS
330
38
102
}
330
38
100
AcDbScale
 70
     0
300
1" = 1'-0"
140
1.0
141
12.0
290
     0
1001
ACAD
1000
AcRTDxfName
1000
SCALE
1000
AcRTDxfName
1000
SCALE
  0
SCALE
  5
6F
102
{ACAD_REACTORS
330
38
102
}
330
38
100
AcDbScale
 70
     0
300
1-1/2" = 1'-0"
140
1.5
141
12.0
290
     0
1001
ACAD
1000
AcRTDxfName
1000
SCALE
1000
AcRTDxfName
1000
SCALE
  0
SCALE
  5
70
102
{ACAD_REACTORS
330
38
102
}
330
38
100
AcDbScale
 70
     0
300
3" = 1'-0"
140
3.0
141
12.0
290
     0
1001
ACAD
1000
AcRTDxfName
1000
SCALE
1000
AcRTDxfName
1000
SCALE
  0
SCALE
  5
71
102
{ACAD_REACTORS
330
38
102
}
330
38
100
AcDbScale
 70
     0
300
6" = 1'-0"
140
6.0
141
12.0
290
     0
1001
ACAD
1000
AcRTDxfName
1000
SCALE
1000
AcRTDxfName
1000
SCALE
  0
SCALE
  5
72
102
{ACAD_REACTORS
330
38
102
}
330
38
100
AcDbScale
 70
     0
300
1'-0" = 1'-0"
140
12.0
141
12.0
290
     0
1001
ACAD
1000
AcRTDxfName
1000
SCALE
1000
AcRTDxfName
1000
SCALE
  0
TABLESTYLE
  5
4E
102
{ACAD_XDICTIONARY
360
4F
102
}
102
{ACAD_REACTORS
330
39
102
}
330
39
100
AcDbTableStyle
280
     0
  3
Standard
 70
     0
 71
     0
 40
0.06
 41
0.06
280
     0
281
     0
  7
Standard
140
0.18
170
     2
 62
     0
 63
     7
283
     0
 90
        4
 91
        0
  1

274
    -2
284
     1
 64
     0
275
    -2
285
     1
 65
     0
276
    -2
286
     1
 66
     0
277
    -2
287
     1
 67
     0
278
    -2
288
     1
 68
     0
279
    -2
289
     1
 69
     0
  7
Standard
140
0.25
170
     5
 62
     0
 63
     7
283
     0
 90
        4
 91
        0
  1

274
    -2
284
     1
 64
     0
275
    -2
285
     1
 65
     0
276
    -2
286
     1
 66
     0
277
    -2
287
     1
 67
     0
278
    -2
288
     1
 68
     0
279
    -2
289
     1
 69
     0
  7
Standard
140
0.18
170
     5
 62
     0
 63
     7
283
     0
 90
        4
 91
        0
  1

274
    -2
284
     1
 64
     0
275
    -2
285
     1
 65
     0
276
    -2
286
     1
 66
     0
277
    -2
287
     1
 67
     0
278
    -2
288
     1
 68
     0
279
    -2
289
     1
 69
     0
  0
VISUALSTYLE
  5
29
102
{ACAD_REACTORS
330
2A
102
}
330
2A
100
AcDbVisualStyle
  2
2dWireframe
 70
     4
177
     3
291
     0
 70
    58
 90
        0
176
     1
 90
        2
176
     1
 90
        1
176
     1
 90
        0
176
     1
 40
0.6
176
     1
 40
30.0
176
     1
 62
     7
176
     1
 90
        1
176
     1
 90
        4
176
     1
 62
     7
176
     1
 62
   257
176
     1
 90
        1
176
     1
 90
        1
176
     1
 40
1.0
176
     1
 90
        0
176
     1
 62
   257
176
     1
 40
1.0
176
     1
 90
        1
176
     1
 90
        6
176
     1
 90
        2
176
     1
 62
     7
176
     1
 90
        5
176
     1
 90
        0
176
     1
 90
        0
176
     1
290
     0
176
     1
 90
        1
176
     1
 40
0.0
176
     1
 90
        0
176
     1
290
     1
176
     1
290
     1
176
     1
290
     0
176
     1
290
     0
176
     1
290
     0
176
     1
290
     0
176
     1
290
     0
176
     1
290
     0
176
     1
290
     0
176
     1
 90
       50
176
     1
 40
0.0
176
     1
 40
1.0
176
     1
 90
        0
176
     1
 62
    18
176
     1
 90
       50
176
     1
 90
        3
176
     1
 62
     5
420
      255
176
     1
290
     0
176
     1
 90
       50
176
     1
 90
       50
176
     1
 90
       50
176
     1
290
     0
176
     1
 90
       50
176
     1
 62
   256
176
     0
 40
1.0
176
     0
 90
        2
176
     1
  1
strokes_ogs.tif
176
     1
290
     0
176
     1
 40
1.0
176
     1
 40
1.0
176
     1
1001
ACAD
1000
AcRTDxfName
1000
VISUALSTYLE
  0
VISUALSTYLE
  5
234
102
{ACAD_REACTORS
330
2A
102
}
330
2A
100
AcDbVisualStyle
  2
EdgeColorOff
 70
    22
177
     3
291
     1
 70
    58
 90
        2
176
     0
 90
        2
176
     0
 90
        0
176
     0
 90
        0
176
     0
 40
0.6
176
     0
 40
30.0
176
     0
 62
     7
176
     0
 90
        1
176
     0
 90
        4
176
     0
 62
     7
176
     0
 62
   257
176
     0
 90
        1
176
     0
 90
        1
176
     0
 40
1.0
176
     0
 90
        8
176
     2
 62
     7
176
     0
 40
1.0
176
     0
 90
        1
176
     0
 90
        6
176
     0
 90
        2
176
     0
 62
     7
176
     0
 90
        5
176
     0
 90
        0
176
     0
 90
        0
176
     0
290
     0
176
     0
 90
        1
176
     0
 40
0.0
176
     0
 90
        0
176
     0
290
     0
176
     1
290
     1
176
     1
290
     1
176
     1
290
     0
176
     1
290
     0
176
     1
290
     0
176
     1
290
     0
176
     1
290
     0
176
     1
290
     0
176
     1
 90
       50
176
     1
 40
0.0
176
     1
 40
1.0
176
     1
 90
        0
176
     1
 62
    18
176
     1
 90
       50
176
     1
 90
        3
176
     1
 62
     5
420
      255
176
     1
290
     0
176
     1
 90
       50
176
     1
 90
       50
176
     1
 90
       50
176
     1
290
     0
176
     1
 90
       50
176
     1
 62
   256
176
     0
 40
1.0
176
     0
 90
        2
176
     1
  1
strokes_ogs.tif
176
     1
290
     0
176
     1
 40
1.0
176
     1
 40
1.0
176
     1
  0
VISUALSTYLE
  5
50
102
{ACAD_REACTORS
330
2A
102
}
330
2A
100
AcDbVisualStyle
  2
Realistic
 70
     8
177
     3
291
     0
 70
    58
 90
        2
176
     1
 90
        2
176
     1
 90
        1
176
     1
 90
        0
176
     1
 40
0.6
176
     1
 40
30.0
176
     1
 62
     7
176
     1
 90
        1
176
     1
 90
        0
176
     1
 62
     7
176
     1
 62
   257
176
     1
 90
        1
176
     1
 90
        1
176
     1
 40
1.0
176
     1
 90
        8
176
     1
 62
     8
176
     1
 40
1.0
176
     1
 90
        1
176
     1
 90
        6
176
     1
 90
        2
176
     1
 62
     7
176
     1
 90
        5
176
     1
 90
        0
176
     1
 90
        0
176
     1
290
     0
176
     1
 90
       13
176
     1
 40
0.0
176
     1
 90
        0
176
     1
290
     0
176
     1
290
     1
176
     1
290
     1
176
     1
290
     0
176
     1
290
     0
176
     1
290
     0
176
     1
290
     0
176
     1
290
     0
176
     1
290
     0
176
     1
 90
       50
176
     1
 40
0.0
176
     1
 40
1.0
176
     1
 90
        0
176
     1
 62
    18
176
     1
 90
       50
176
     1
 90
        3
176
     1
 62
     5
420
      255
176
     1
290
     0
176
     1
 90
       50
176
     1
 90
       50
176
     1
 90
       50
176
     1
290
     0
176
     1
 90
       50
176
     1
 62
   256
176
     0
 40
1.0
176
     0
 90
        2
176
     1
  1
strokes_ogs.tif
176
     1
290
     0
176
     1
 40
1.0
176
     1
 40
1.0
176
     1
1001
ACAD
1000
AcRTDxfName
1000
VISUALSTYLE
  0
VISUALSTYLE
  5
51
102
{ACAD_REACTORS
330
2A
102
}
330
2A
100
AcDbVisualStyle
  2
Wireframe
 70
     5
177
     3
291
     0
 70
    58
 90
        0
176
     1
 90
        2
176
     1
 90
        0
176
     1
 90
        0
176
     1
 40
0.6
176
     1
 40
30.0
176
     1
 62
     7
176
     1
 90
        1
176
     1
 90
        4
176
     1
 62
     7
176
     1
 62
   257
176
     1
 90
        1
176
     1
 90
        1
176
     1
 40
1.0
176
     1
 90
        0
176
     1
 62
   257
176
     1
 40
1.0
176
     1
 90
        1
176
     1
 90
        6
176
     1
 90
        2
176
     1
 62
     7
176
     1
 90
        3
176
     1
 90
        0
176
     1
 90
        0
176
     1
290
     0
176
     1
 90
        1
176
     1
 40
0.0
176
     1
 90
        0
176
     1
290
     0
176
     1
290
     1
176
     1
290
     1
176
     1
290
     0
176
     1
290
     0
176
     1
290
     0
176
     1
290
     0
176
     1
290
     0
176
     1
290
     0
176
     1
 90
       50
176
     1
 40
0.0
176
     1
 40
1.0
176
     1
 90
        0
176
     1
 62
    18
176
     1
 90
       50
176
     1
 90
        3
176
     1
 62
     5
420
      255
176
     1
290
     0
176
     1
 90
       50
176
     1
 90
       50
176
     1
 90
       50
176
     1
290
     0
176
     1
 90
       50
176
     1
 62
   256
176
     0
 40
1.0
176
     0
 90
        2
176
     1
  1
strokes_ogs.tif
176
     1
290
     0
176
     1
 40
1.0
176
     1
 40
1.0
176
     1
  0
DICTIONARYVAR
  5
3C
102
{ACAD_REACTORS
330
3B
102
}
330
3B
100
DictionaryVariables
280
     0
  1
1:1
  0
DICTIONARYVAR
  5
3D
102
{ACAD_REACTORS
330
3B
102
}
330
3B
100
DictionaryVariables
280
     0
  1
STANDARD
  0
DICTIONARYVAR
  5
3E
102
{ACAD_REACTORS
330
3B
102
}
330
3B
100
DictionaryVariables
280
     0
  1
STANDARD
  0
DICTIONARYVAR
  5
3F
102
{ACAD_REACTORS
330
3B
102
}
330
3B
100
DictionaryVariables
280
     0
  1

  0
DICTIONARYVAR
  5
40
102
{ACAD_REACTORS
330
3B
102
}
330
3B
100
DictionaryVariables
280
     0
  1

  0
DICTIONARYVAR
  5
41
102
{ACAD_REACTORS
330
3B
102
}
330
3B
100
DictionaryVariables
280
     0
  1
2
  0
DICTIONARYVAR
  5
42
102
{ACAD_REACTORS
330
3B
102
}
330
3B
100
DictionaryVariables
280
     0
  1
1
  0
DICTIONARYVAR
  5
43
102
{ACAD_REACTORS
330
3B
102
}
330
3B
100
DictionaryVariables
280
     0
  1
0
  0
DICTIONARYVAR
  5
44
102
{ACAD_REACTORS
330
3B
102
}
330
3B
100
DictionaryVariables
280
     0
  1
1
  0
DICTIONARYVAR
  5
45
102
{ACAD_REACTORS
330
3B
102
}
330
3B
100
DictionaryVariables
280
     0
  1
15
  0
DICTIONARYVAR
  5
46
102
{ACAD_REACTORS
330
3B
102
}
330
3B
100
DictionaryVariables
280
     0
  1
0
  0
DICTIONARYVAR
  5
47
102
{ACAD_REACTORS
330
3B
102
}
330
3B
100
DictionaryVariables
280
     0
  1
0
  0
DICTIONARYVAR
  5
48
102
{ACAD_REACTORS
330
3B
102
}
330
3B
100
DictionaryVariables
280
     0
  1

  0
DICTIONARYVAR
  5
49
102
{ACAD_REACTORS
330
3B
102
}
330
3B
100
DictionaryVariables
280
     0
  1
127
  0
DICTIONARY
  5
14
330
11
100
AcDbDictionary
280
     1
281
     1
  0
DICTIONARY
  5
4F
330
4E
100
AcDbDictionary
280
     1
281
     1
  3
ACAD_ROUNDTRIP_2008_TABLESTYLE_CELLSTYLEMAP
360
29F
  0
CELLSTYLEMAP
  5
29F
102
{ACAD_REACTORS
330
4F
102
}
330
4F
100
AcDbCellStyleMap
 90
        3
300
CELLSTYLE
  1
TABLEFORMAT_BEGIN
 90
        5
170
     1
 91
        0
 92
    32768
 62
   257
 93
        1
300
CONTENTFORMAT
  1
CONTENTFORMAT_BEGIN
 90
        0
 91
        0
 92
        4
 93
        0
300

 40
0.0
140
1.0
 94
        5
 62
     0
340
20
144
0.25
309
CONTENTFORMAT_END
171
     1
301
MARGIN
  1
CELLMARGIN_BEGIN
 40
0.06
 40
0.06
 40
0.06
 40
0.06
 40
0.18
 40
0.18
309
CELLMARGIN_END
 94
        6
 95
        1
302
GRIDFORMAT
  1
GRIDFORMAT_BEGIN
 90
        0
 91
        1
 62
     0
 92
       -2
340
0
 93
        0
 40
0.045
309
GRIDFORMAT_END
 95
        2
302
GRIDFORMAT
  1
GRIDFORMAT_BEGIN
 90
        0
 91
        1
 62
     0
 92
       -2
340
0
 93
        0
 40
0.045
309
GRIDFORMAT_END
 95
        4
302
GRIDFORMAT
  1
GRIDFORMAT_BEGIN
 90
        0
 91
        1
 62
     0
 92
       -2
340
0
 93
        0
 40
0.045
309
GRIDFORMAT_END
 95
        8
302
GRIDFORMAT
  1
GRIDFORMAT_BEGIN
 90
        0
 91
        1
 62
     0
 92
       -2
340
0
 93
        0
 40
0.045
309
GRIDFORMAT_END
 95
       16
302
GRIDFORMAT
  1
GRIDFORMAT_BEGIN
 90
        0
 91
        1
 62
     0
 92
       -2
340
0
 93
        0
 40
0.045
309
GRIDFORMAT_END
 95
       32
302
GRIDFORMAT
  1
GRIDFORMAT_BEGIN
 90
        0
 91
        1
 62
     0
 92
       -2
340
0
 93
        0
 40
0.045
309
GRIDFORMAT_END
309
TABLEFORMAT_END
  1
CELLSTYLE_BEGIN
 90
        1
 91
        1
300
_TITLE
309
CELLSTYLE_END
300
CELLSTYLE
  1
TABLEFORMAT_BEGIN
 90
        5
170
     1
 91
        0
 92
        0
 62
   257
 93
        1
300
CONTENTFORMAT
  1
CONTENTFORMAT_BEGIN
 90
        0
 91
        0
 92
        4
 93
        0
300

 40
0.0
140
1.0
 94
        5
 62
     0
340
20
144
0.18
309
CONTENTFORMAT_END
171
     1
301
MARGIN
  1
CELLMARGIN_BEGIN
 40
0.06
 40
0.06
 40
0.06
 40
0.06
 40
0.18
 40
0.18
309
CELLMARGIN_END
 94
        6
 95
        1
302
GRIDFORMAT
  1
GRIDFORMAT_BEGIN
 90
        0
 91
        1
 62
     0
 92
       -2
340
0
 93
        0
 40
0.045
309
GRIDFORMAT_END
 95
        2
302
GRIDFORMAT
  1
GRIDFORMAT_BEGIN
 90
        0
 91
        1
 62
     0
 92
       -2
340
0
 93
        0
 40
0.045
309
GRIDFORMAT_END
 95
        4
302
GRIDFORMAT
  1
GRIDFORMAT_BEGIN
 90
        0
 91
        1
 62
     0
 92
       -2
340
0
 93
        0
 40
0.045
309
GRIDFORMAT_END
 95
        8
302
GRIDFORMAT
  1
GRIDFORMAT_BEGIN
 90
        0
 91
        1
 62
     0
 92
       -2
340
0
 93
        0
 40
0.045
309
GRIDFORMAT_END
 95
       16
302
GRIDFORMAT
  1
GRIDFORMAT_BEGIN
 90
        0
 91
        1
 62
     0
 92
       -2
340
0
 93
        0
 40
0.045
309
GRIDFORMAT_END
 95
       32
302
GRIDFORMAT
  1
GRIDFORMAT_BEGIN
 90
        0
 91
        1
 62
     0
 92
       -2
340
0
 93
        0
 40
0.045
309
GRIDFORMAT_END
309
TABLEFORMAT_END
  1
CELLSTYLE_BEGIN
 90
        2
 91
        1
300
_HEADER
309
CELLSTYLE_END
300
CELLSTYLE
  1
TABLEFORMAT_BEGIN
 90
        5
170
     1
 91
        0
 92
        0
 62
   257
 93
        1
300
CONTENTFORMAT
  1
CONTENTFORMAT_BEGIN
 90
        0
 91
        0
 92
        4
 93
        0
300

 40
0.0
140
1.0
 94
        2
 62
     0
340
20
144
0.18
309
CONTENTFORMAT_END
171
     1
301
MARGIN
  1
CELLMARGIN_BEGIN
 40
0.06
 40
0.06
 40
0.06
 40
0.06
 40
0.18
 40
0.18
309
CELLMARGIN_END
 94
        6
 95
        1
302
GRIDFORMAT
  1
GRIDFORMAT_BEGIN
 90
        0
 91
        1
 62
     0
 92
       -2
340
0
 93
        0
 40
0.045
309
GRIDFORMAT_END
 95
        2
302
GRIDFORMAT
  1
GRIDFORMAT_BEGIN
 90
        0
 91
        1
 62
     0
 92
       -2
340
0
 93
        0
 40
0.045
309
GRIDFORMAT_END
 95
        4
302
GRIDFORMAT
  1
GRIDFORMAT_BEGIN
 90
        0
 91
        1
 62
     0
 92
       -2
340
0
 93
        0
 40
0.045
309
GRIDFORMAT_END
 95
        8
302
GRIDFORMAT
  1
GRIDFORMAT_BEGIN
 90
        0
 91
        1
 62
     0
 92
       -2
340
0
 93
        0
 40
0.045
309
GRIDFORMAT_END
 95
       16
302
GRIDFORMAT
  1
GRIDFORMAT_BEGIN
 90
        0
 91
        1
 62
     0
 92
       -2
340
0
 93
        0
 40
0.045
309
GRIDFORMAT_END
 95
       32
302
GRIDFORMAT
  1
GRIDFORMAT_BEGIN
 90
        0
 91
        1
 62
     0
 92
       -2
340
0
 93
        0
 40
0.045
309
GRIDFORMAT_END
309
TABLEFORMAT_END
  1
CELLSTYLE_BEGIN
 90
        3
 91
        2
300
_DATA
309
CELLSTYLE_END
  0
ENDSEC
  0
SECTION
  2
ACDSDATA
 70
     2
 71
     8
  0
ACDSSCHEMA
 90
        0
  1
AcDb_Thumbnail_Schema
  2
AcDbDs::ID
280
    10
 91
        8
  2
Thumbnail_Data
280
    15
 91
        0
101
ACDSRECORD
 95
        0
 90
        1
  2
AcDbDs::TreatedAsObjectData
280
     1
291
     1
101
ACDSRECORD
 95
        0
 90
        2
  2
AcDbDs::Legacy
280
     1
291
     1
101
ACDSRECORD
  1
AcDbDs::ID
 90
        3
  2
AcDs:Indexable
280
     1
291
     1
101
ACDSRECORD
  1
AcDbDs::ID
 90
        4
  2
AcDbDs::HandleAttribute
280
     7
282
     1
  0
ACDSSCHEMA
 90
        1
  1
AcDbDs::TreatedAsObjectDataSchema
  2
AcDbDs::TreatedAsObjectData
280
     1
 91
        0
  0
ACDSSCHEMA
 90
        2
  1
AcDbDs::LegacySchema
  2
AcDbDs::Legacy
280
     1
 91
        0
  0
ACDSSCHEMA
 90
        3
  1
AcDbDs::IndexedPropertySchema
  2
AcDs:Indexable
280
     1
 91
        0
  0
ACDSSCHEMA
 90
        4
  1
AcDbDs::HandleAttributeSchema
  2
AcDbDs::HandleAttribute
280
     7
 91
        1
284
     1
  0
ACDSRECORD
 90
        0
  2
AcDbDs::ID
280
    10
320
11
  2
Thumbnail_Data
280
    15
 94
     2659
310
89504E470D0A1A0A0000000D4948445200000100000000A20803000000990FE30500000300504C5445212830000000C8C8C80000000000000000000000000000000000000000000000000000330000660000990000CC0000FF0033000033330033660033990033CC0033FF0066000066330066660066990066CC0066FF0099
310
000099330099660099990099CC0099FF00CC0000CC3300CC6600CC9900CCCC00CCFF00FF0000FF3300FF6600FF9900FFCC00FFFF3300003300333300663300993300CC3300FF3333003333333333663333993333CC3333FF3366003366333366663366993366CC3366FF3399003399333399663399993399CC3399FF33CC00
310
33CC3333CC6633CC9933CCCC33CCFF33FF0033FF3333FF6633FF9933FFCC33FFFF6600006600336600666600996600CC6600FF6633006633336633666633996633CC6633FF6666006666336666666666996666CC6666FF6699006699336699666699996699CC6699FF66CC0066CC3366CC6666CC9966CCCC66CCFF66FF0066
310
FF3366FF6666FF9966FFCC66FFFF9900009900339900669900999900CC9900FF9933009933339933669933999933CC9933FF9966009966339966669966999966CC9966FF9999009999339999669999999999CC9999FF99CC0099CC3399CC6699CC9999CCCC99CCFF99FF0099FF3399FF6699FF9999FFCC99FFFFCC0000CC00
310
33CC0066CC0099CC00CCCC00FFCC3300CC3333CC3366CC3399CC33CCCC33FFCC6600CC6633CC6666CC6699CC66CCCC66FFCC9900CC9933CC9966CC9999CC99CCCC99FFCCCC00CCCC33CCCC66CCCC99CCCCCCCCCCFFCCFF00CCFF33CCFF66CCFF99CCFFCCCCFFFFFF0000FF0033FF0066FF0099FF00CCFF00FFFF3300FF3333
310
FF3366FF3399FF33CCFF33FFFF6600FF6633FF6666FF6699FF66CCFF66FFFF9900FF9933FF9966FF9999FF99CCFF99FFFFCC00FFCC33FFCC66FFCC99FFCCCCFFCCFFFFFF00FFFF33FFFF66FFFF99FFFFCCFFFFFF0000000D0D0D1A1A1A2828283535354343435050505D5D5D6B6B6B787878868686939393A1A1A1AEAEAEBB
310
BBBBC9C9C9D6D6D6E4E4E4F1F1F1FFFFFF000000000000000000000000000000000000000000000000000000000000B21171F60000071D4944415478DAED9D4B6284200C407303AEC1862BF5A86CE61A1EC20DFB0AA2FCC10F022269A7AD23D336CF1020C10CC010983F2B1B009709633A20FBA4C52FF2D2E46936B31BAF3E
310
759AB9575E7D6731995997A73F00603172ED47EDC803E083CEED0300F02E9E935FB000CC2F330E9C649FB2009F7C004054D80030000C0003C00030000C0003C00030000C00DF04C072012096BC0600CB0560F9805DF71701C86601D1C30FF880016000F8200036002C8F694D3010331BB11D4E5A93804CEF06304D5304C072
310
5635F1AB2F9ABCD9020C8DDD43D0336E56F20DB6ECD4490924392A01104A2E1AF3EFCC39D49B68A7F5C301E03C0095ED48A43D92A85E0940E8840F4B8716E0D11FCEEBDE17003C009C57FEBDC3A0AF0B541B05901422BEBA875A13EDB471F872007FAB903F43B643A4350908BA320A243D60B9C5D0DF7A2509FC7ECB277FC0
310
F220E2EAC2AA9D6CA29D160FC43FD01FDC0670DD0580B94FF02A00AE1F41DCD685CDF30711CA290048680B204FA3ADF502E0522FC8340864B180458DE5D23A0096E7B8765A131B806801DC025E0F806B6CFAB79587060081E501A5137C02C0F34E90F8C40420BA80010015037002C365009605708DAD8810422600A7A723E9
310
271FEB024F8E0216809F573BD307049AF400007E72C6636A073FD8468168930E00805F3BA4018834792300620350F63D691DDC00106E7269369C611A9CD109EE17917AC46AA200ACEB84BF4BFF38FFBD342C450120CDC5D34D3BE9F7FFF8536613709B98836B0E00B41280894E5B983B0440349848447259C1210AD9BB806D
310
DF089EE9023B0070B52E0E40F370D4F57074D531EC045F991A0B0D83D41DE3284A0F838F44850B02F86916E04CF356003FFF54F87715006E0980D0C3012094DE00684DC06C72BD0BDC5B066E00AEED11F22C863C16807400D1C5502E00B81C80C072986A4B5D3001C496C33501E40A885816003220A2017066FC3701541D05
310
DC90D87A81350B584362CA076C4D94A890D8D96B7F6014281A15DE239E1C800CF86D4151310F880645AB4685F385C545A0FB4755DC7B0B8BD3EC61F1B6BA8099F5A06ED6833E9F18B9E304B3A5C690E503F6D418CD9E1A6B0B8099EEA4D8B326CB9D1CCDB63F0672A6C7D784F7F2BF99F9EF6776889C91B200A00C80E3108A
310
5B002B006033034F8A183E01405A00247608D5F0011858211F503B1E501980E603A0953D425CB0679C83327B84EA01D0774263DF56E867364B67D92094C702947A38B0179E45095CDB2E9F67774096C5D0B41BB1EF4F4F66130835B90B00CA6E90D00118ABF46252798748CB00AEFB00B561ECDD1670EAF718DBE4E65B1680
310
0B2A9F7135C8B27501DC46FF3F6906F97C0086A21690BA5FA46B0087A2C2B83080A2FA37901BAC0A20EC076A4C85EBE83F00B41314FD3680D832E80B00F8322F01E072C4E31500F83A3FA53FB8959E7BB2008803D85467BD02585F82E331B3A66DE0790013896E0BBDB151B4090071FD770B38F89BFB0440BAF6012C310760
310
0240C3C3C0DD5A62221B14FFFDA4ED61F06E3135969A05F2FBC85B9E08DD2EA686532F6ABBA4D2FD525A3865E19D03C0909AE77C0140F4DD49084BCA1B01C8F0CB8175704F166046A2BF0D40DEB702DF02B053D8EDE0D004BF47002742B07D02800F03382B03C0D701B42D03C00030000C0003C000D02F806404E25E39BD57
310
5C609572129F22F5C2DAB300F2760024FD4CF4898726CCC92E900F403ACB9968416AF5917C1660AAE6B9E0A6F6E4410B6087A58D2EE027760780FEAEEAF2683DB4CA0B350180907365B48E59B6BA455BD74BDCCD9CED9DA7490E00ABD69937478400F0DA53F3B300A63480C9F01B4FF93689603FDAED9FB604E029D7CFBC47
310
B2F85AB6375FE746BB27C05C004E8ECC01B0A5CDF26F0FF23A7CCA1F74F9BA297F77143046B5FD2EC0604ED06942C098973C0C8032E100B30E83C4F317A760CA33D524EF3028173A4A28F77E741F103723C805009C2E1096E9F9E5009B67577DBBFB5F0260CCF6F20280DC16A08918FD6CF72F6F94BB0CC0EFB55A04B095DE
310
D49F9BD78F5E03220600597AD3981DE7F101EF0040D7E2ABB357F2BDE566B300E4EC0F420058E700C4D5E705CD02007AEF02B2F02E283DBFE203D4048086FA7FFF00C40C7876A7BF42CA0090DB49EA00A0BC90DD4C11624103783E2C7EBF00FE2511FAEF910FB62E7BCD69A02CE4F32800BDC649710B90533FAE6CD8026E06
310
440E02800A00D03AFD5983626C7507AA7813E48F0A270094EE05339DB5D5AFA77A551900F54495D79F77BD2CE5F768599700CCE1DF0B80750D800FFFB3A85D3CCF8B0F30A364A0116801003B2F7AD1047F0B63F6D73A00CD651ACF6D87862765760D3171EB9EF684B8934FA5C6E6B85E8D03903725A8B7941000AC021ACC2C
310
A4C60F976150AB568C5A07705170A8849F9AE96B33C12A13A1131660554261AA6CAADE008CB21D589DD65E2CFA88D505C45CC09C0EAC54906501D56476BD9AEFD0E3092DAF287FF65A84F7090340C561ABE69CA10100556F9D9BCD18D1070586C03F2CF362EC4E7F9B8D0000000049454E44AE42608282
  0
ENDSEC
  0
EOF
