  0
SECTION
  2
HEADER
  9
$ACADVER
  1
AC1032
  9
$ACADMAINTVER
 90
      248
  9
$DWGCODEPAGE
  3
ANSI_936
  9
$REQUIREDVERSIONS
160
                 0
  9
$INSBASE
 10
0.0
 20
0.0
 30
0.0
  9
$EXTMIN
 10
-27000.01753793431
 20
17307.57511628894
 30
0.0
  9
$EXTMAX
 10
-26991.58284862125
 20
17312.32246259517
 30
0.0000000000001635
  9
$LIMMIN
 10
0.0
 20
0.0
  9
$LIMMAX
 10
12.0
 20
9.0
  9
$ORTHOMODE
 70
     1
  9
$REGENMODE
 70
     1
  9
$FILLMODE
 70
     1
  9
$QTEXTMODE
 70
     0
  9
$MIRRTEXT
 70
     1
  9
$LTSCALE
 40
1.0
  9
$ATTMODE
 70
     1
  9
$TEXTSIZE
 40
0.2
  9
$TRACEWID
 40
0.05
  9
$TEXTSTYLE
  7
Standard
  9
$CLAYER
  8
3D
  9
$CELTYPE
  6
ByLayer
  9
$CECOLOR
 62
   256
  9
$CELTSCALE
 40
1.0
  9
$DISPSILH
 70
     0
  9
$DIMSCALE
 40
1.0
  9
$DIMASZ
 40
0.006
  9
$DIMEXO
 40
0.002
  9
$DIMDLI
 40
0.002
  9
$DIMRND
 40
0.0
  9
$DIMDLE
 40
0.0
  9
$DIMEXE
 40
0.002
  9
$DIMTP
 40
0.0
  9
$DIMTM
 40
0.0
  9
$DIMTXT
 40
0.006
  9
$DIMCEN
 40
0.009
  9
$DIMTSZ
 40
0.0
  9
$DIMTOL
 70
     0
  9
$DIMLIM
 70
     0
  9
$DIMTIH
 70
     0
  9
$DIMTOH
 70
     0
  9
$DIMSE1
 70
     0
  9
$DIMSE2
 70
     0
  9
$DIMTAD
 70
     0
  9
$DIMZIN
 70
     0
  9
$DIMBLK
  1

  9
$DIMASO
 70
     0
  9
$DIMSHO
 70
     1
  9
$DIMPOST
  1

  9
$DIMAPOST
  1

  9
$DIMALT
 70
     0
  9
$DIMALTD
 70
     2
  9
$DIMALTF
 40
25.4
  9
$DIMLFAC
 40
1.0
  9
$DIMTOFL
 70
     1
  9
$DIMTVP
 40
0.0
  9
$DIMTIX
 70
     0
  9
$DIMSOXD
 70
     0
  9
$DIMSAH
 70
     0
  9
$DIMBLK1
  1

  9
$DIMBLK2
  1

  9
$DIMSTYLE
  2
1D
  9
$DIMCLRD
 70
   256
  9
$DIMCLRE
 70
   256
  9
$DIMCLRT
 70
   256
  9
$DIMTFAC
 40
1.0
  9
$DIMGAP
 40
0.002
  9
$DIMJUST
 70
     0
  9
$DIMSD1
 70
     0
  9
$DIMSD2
 70
     0
  9
$DIMTOLJ
 70
     1
  9
$DIMTZIN
 70
     0
  9
$DIMALTZ
 70
     0
  9
$DIMALTTZ
 70
     0
  9
$DIMUPT
 70
     0
  9
$DIMDEC
 70
     4
  9
$DIMTDEC
 70
     4
  9
$DIMALTU
 70
     2
  9
$DIMALTTD
 70
     2
  9
$DIMTXSTY
  7
Standard
  9
$DIMAUNIT
 70
     0
  9
$DIMADEC
 70
     0
  9
$DIMALTRND
 40
0.0
  9
$DIMAZIN
 70
     0
  9
$DIMDSEP
 70
    46
  9
$DIMATFIT
 70
     3
  9
$DIMFRAC
 70
     0
  9
$DIMLDRBLK
  1

  9
$DIMLUNIT
 70
     2
  9
$DIMLWD
 70
    -1
  9
$DIMLWE
 70
    -1
  9
$DIMTMOVE
 70
     0
  9
$DIMFXL
 40
0.0072
  9
$DIMFXLON
 70
     0
  9
$DIMJOGANG
 40
0.7853981633974483
  9
$DIMTFILL
 70
     0
  9
$DIMTFILLCLR
 70
     0
  9
$DIMARCSYM
 70
     0
  9
$DIMLTYPE
  6
ByLayer
  9
$DIMLTEX1
  6
ByLayer
  9
$DIMLTEX2
  6
ByLayer
  9
$DIMTXTDIRECTION
 70
     0
  9
$LUNITS
 70
     2
  9
$LUPREC
 70
     8
  9
$SKETCHINC
 40
0.1
  9
$FILLETRAD
 40
0.0019685
  9
$AUNITS
 70
     0
  9
$AUPREC
 70
     0
  9
$MENU
  1
.
  9
$ELEVATION
 40
0.0
  9
$PELEVATION
 40
0.0
  9
$THICKNESS
 40
0.0
  9
$LIMCHECK
 70
     0
  9
$CHAMFERA
 40
0.0
  9
$CHAMFERB
 40
0.0
  9
$CHAMFERC
 40
1.0
  9
$CHAMFERD
 40
0.0
  9
$SKPOLY
 70
     0
  9
$TDCREATE
 40
2453883.125682871
  9
$TDUCREATE
 40
2453882.792357350
  9
$TDUPDATE
 40
2460607.487326389
  9
$TDUUPDATE
 40
2460607.153993056
  9
$TDINDWG
 40
4.8941973032
  9
$TDUSRTIMER
 40
4.8941973032
  9
$USRTIMER
 70
     1
  9
$ANGBASE
 50
0.0
  9
$ANGDIR
 70
     0
  9
$PDMODE
 70
     0
  9
$PDSIZE
 40
0.0
  9
$PLINEWID
 40
0.0
  9
$SPLFRAME
 70
     0
  9
$SPLINETYPE
 70
     6
  9
$SPLINESEGS
 70
     8
  9
$HANDSEED
  5
157
  9
$SURFTAB1
 70
     6
  9
$SURFTAB2
 70
     6
  9
$SURFTYPE
 70
     6
  9
$SURFU
 70
     6
  9
$SURFV
 70
     6
  9
$UCSBASE
  2

  9
$UCSNAME
  2

  9
$UCSORG
 10
0.0
 20
0.0
 30
0.0
  9
$UCSXDIR
 10
1.0
 20
0.0
 30
0.0
  9
$UCSYDIR
 10
0.0
 20
1.0
 30
0.0
  9
$UCSORTHOREF
  2

  9
$UCSORTHOVIEW
 70
     0
  9
$UCSORGTOP
 10
0.0
 20
0.0
 30
0.0
  9
$UCSORGBOTTOM
 10
0.0
 20
0.0
 30
0.0
  9
$UCSORGLEFT
 10
0.0
 20
0.0
 30
0.0
  9
$UCSORGRIGHT
 10
0.0
 20
0.0
 30
0.0
  9
$UCSORGFRONT
 10
0.0
 20
0.0
 30
0.0
  9
$UCSORGBACK
 10
0.0
 20
0.0
 30
0.0
  9
$PUCSBASE
  2

  9
$PUCSNAME
  2

  9
$PUCSORG
 10
0.0
 20
0.0
 30
0.0
  9
$PUCSXDIR
 10
1.0
 20
0.0
 30
0.0
  9
$PUCSYDIR
 10
0.0
 20
1.0
 30
0.0
  9
$PUCSORTHOREF
  2

  9
$PUCSORTHOVIEW
 70
     0
  9
$PUCSORGTOP
 10
0.0
 20
0.0
 30
0.0
  9
$PUCSORGBOTTOM
 10
0.0
 20
0.0
 30
0.0
  9
$PUCSORGLEFT
 10
0.0
 20
0.0
 30
0.0
  9
$PUCSORGRIGHT
 10
0.0
 20
0.0
 30
0.0
  9
$PUCSORGFRONT
 10
0.0
 20
0.0
 30
0.0
  9
$PUCSORGBACK
 10
0.0
 20
0.0
 30
0.0
  9
$USERI1
 70
     0
  9
$USERI2
 70
     0
  9
$USERI3
 70
     0
  9
$USERI4
 70
     0
  9
$USERI5
 70
     0
  9
$USERR1
 40
0.0
  9
$USERR2
 40
0.0
  9
$USERR3
 40
0.0
  9
$USERR4
 40
0.0
  9
$USERR5
 40
0.0
  9
$WORLDVIEW
 70
     1
  9
$SHADEDGE
 70
     3
  9
$SHADEDIF
 70
    70
  9
$TILEMODE
 70
     1
  9
$MAXACTVP
 70
    64
  9
$PINSBASE
 10
0.0
 20
0.0
 30
0.0
  9
$PLIMCHECK
 70
     0
  9
$PEXTMIN
 10
1.06666659370182
 20
0.8166666875674033
 30
0.0
  9
$PEXTMAX
 10
9.599999343316387
 20
7.350000188106627
 30
0.0
  9
$PLIMMIN
 10
-0.1666668268639272
 20
-0.166666657905879
  9
$PLIMMAX
 10
10.83333293284018
 20
8.333333101798231
  9
$UNITMODE
 70
     0
  9
$VISRETAIN
 70
     1
  9
$PLINEGEN
 70
     0
  9
$PSLTSCALE
 70
     1
  9
$TREEDEPTH
 70
  3020
  9
$CMLSTYLE
  2
Standard
  9
$CMLJUST
 70
     0
  9
$CMLSCALE
 40
1.0
  9
$PROXYGRAPHICS
 70
     1
  9
$MEASUREMENT
 70
     0
  9
$CELWEIGHT
370
    -1
  9
$ENDCAPS
280
     0
  9
$JOINSTYLE
280
     0
  9
$LWDISPLAY
290
     0
  9
$INSUNITS
 70
     0
  9
$HYPERLINKBASE
  1

  9
$STYLESHEET
  1

  9
$XEDIT
290
     1
  9
$CEPSNTYPE
380
     0
  9
$PSTYLEMODE
290
     1
  9
$FINGERPRINTGUID
  2
{5212EFEF-9DD7-A049-ABFA-86C37BE354F7}
  9
$VERSIONGUID
  2
{E65D35C4-3594-48B9-B688-FBEA117A17EC}
  9
$EXTNAMES
290
     1
  9
$PSVPSCALE
 40
0.0
  9
$OLESTARTUP
290
     0
  9
$SORTENTS
280
   127
  9
$INDEXCTL
280
     0
  9
$HIDETEXT
280
     1
  9
$XCLIPFRAME
280
     2
  9
$HALOGAP
280
     0
  9
$OBSCOLOR
 70
   257
  9
$OBSLTYPE
280
     0
  9
$INTERSECTIONDISPLAY
280
     0
  9
$INTERSECTIONCOLOR
 70
   257
  9
$DIMASSOC
280
     0
  9
$PROJECTNAME
  1

  9
$CAMERADISPLAY
290
     0
  9
$LENSLENGTH
 40
50.0
  9
$CAMERAHEIGHT
 40
0.0
  9
$STEPSPERSEC
 40
2.0
  9
$STEPSIZE
 40
6.0
  9
$3DDWFPREC
 40
2.0
  9
$PSOLWIDTH
 40
0.25
  9
$PSOLHEIGHT
 40
4.0
  9
$LOFTANG1
 40
1.570796326794896
  9
$LOFTANG2
 40
1.570796326794896
  9
$LOFTMAG1
 40
0.0
  9
$LOFTMAG2
 40
0.0
  9
$LOFTPARAM
 70
     7
  9
$LOFTNORMALS
280
     1
  9
$LATITUDE
 40
37.795
  9
$LONGITUDE
 40
-122.394
  9
$NORTHDIRECTION
 40
0.0
  9
$TIMEZONE
 70
 -8000
  9
$LIGHTGLYPHDISPLAY
280
     1
  9
$TILEMODELIGHTSYNCH
280
     1
  9
$CMATERIAL
347
35
  9
$SOLIDHIST
280
     0
  9
$SHOWHIST
280
     1
  9
$DWFFRAME
280
     2
  9
$DGNFRAME
280
     0
  9
$REALWORLDSCALE
290
     1
  9
$INTERFERECOLOR
 62
     1
  9
$INTERFEREOBJVS
345
50
  9
$INTERFEREVPVS
346
51
  9
$CSHADOW
280
     0
  9
$SHADOWPLANELOCATION
 40
0.0
  0
ENDSEC
  0
SECTION
  2
CLASSES
  0
CLASS
  1
ACDBDICTIONARYWDFLT
  2
AcDbDictionaryWithDefault
  3
ObjectDBX Classes
 90
        0
 91
        1
280
     0
281
     0
  0
CLASS
  1
DICTIONARYVAR
  2
AcDbDictionaryVar
  3
ObjectDBX Classes
 90
        0
 91
       13
280
     0
281
     0
  0
CLASS
  1
TABLESTYLE
  2
AcDbTableStyle
  3
ObjectDBX Classes
 90
     4095
 91
        1
280
     0
281
     0
  0
CLASS
  1
SORTENTSTABLE
  2
AcDbSortentsTable
  3
ObjectDBX Classes
 90
        0
 91
        2
280
     0
281
     0
  0
CLASS
  1
MATERIAL
  2
AcDbMaterial
  3
ObjectDBX Classes
 90
     1153
 91
        3
280
     0
281
     0
  0
CLASS
  1
VISUALSTYLE
  2
AcDbVisualStyle
  3
ObjectDBX Classes
 90
     4095
 91
        3
280
     0
281
     0
  0
CLASS
  1
DIMASSOC
  2
AcDbDimAssoc
  3
"AcDbDimAssoc|Product Desc:     AcDim ARX App For Dimension|Company:          Autodesk, Inc.|WEB Address:      www.autodesk.com"
 90
        0
 91
        0
280
     0
281
     0
  0
CLASS
  1
SCALE
  2
AcDbScale
  3
ObjectDBX Classes
 90
     1153
 91
       17
280
     0
281
     0
  0
CLASS
  1
MLEADERSTYLE
  2
AcDbMLeaderStyle
  3
ACDB_MLEADERSTYLE_CLASS
 90
     4095
 91
        0
280
     0
281
     0
  0
CLASS
  1
ACDBSECTIONVIEWSTYLE
  2
AcDbSectionViewStyle
  3
ObjectDBX Classes
 90
     1025
 91
        0
280
     0
281
     0
  0
CLASS
  1
ACDBDETAILVIEWSTYLE
  2
AcDbDetailViewStyle
  3
ObjectDBX Classes
 90
     1025
 91
        0
280
     0
281
     0
  0
CLASS
  1
CELLSTYLEMAP
  2
AcDbCellStyleMap
  3
ObjectDBX Classes
 90
     1152
 91
        1
280
     0
281
     0
  0
CLASS
  1
SOLID_BACKGROUND
  2
AcDbSolidBackground
  3
SCENEOE
 90
     4095
 91
        0
280
     0
281
     0
  0
CLASS
  1
NPOCOLLECTION
  2
AcDbImpNonPersistentObjectsCollection
  3
ObjectDBX Classes
 90
     1153
 91
        0
280
     0
281
     0
  0
ENDSEC
  0
SECTION
  2
TABLES
  0
TABLE
  2
VPORT
  5
26
102
{ACAD_XDICTIONARY
360
2B
102
}
330
0
100
AcDbSymbolTable
 70
     1
  0
VPORT
  5
27
330
26
100
AcDbSymbolTableRecord
100
AcDbViewportTableRecord
  2
*Active
 70
     0
 10
0.0
 20
0.0
 11
1.0
 21
1.0
 12
-26992.46168906002
 22
17311.38886019097
 13
0.0
 23
0.0
 14
0.5
 24
0.5
 15
0.5
 25
0.5
 16
0.0
 26
0.0
 36
1.0
 17
0.0
 27
0.0
 37
0.0
 40
2.077428123946447
 41
2.570850202429149
 42
50.0
 43
0.0
 44
0.0
 50
0.0
 51
0.0
 71
     0
 72
   100
 73
     1
 74
     2
 75
     0
 76
     0
 77
     0
 78
     0
281
     0
 65
     1
110
0.0
120
0.0
130
0.0
111
1.0
121
0.0
131
0.0
112
0.0
122
1.0
132
0.0
 79
     0
146
0.0
348
28
 60
     3
 61
     5
292
     1
282
     1
141
0.0
142
0.0
 63
   250
421
  3355443
1001
ACAD_NAV_VCDISPLAY
1070
     3
  0
ENDTAB
  0
TABLE
  2
LTYPE
  5
21
330
0
100
AcDbSymbolTable
 70
     1
  0
LTYPE
  5
22
330
21
100
AcDbSymbolTableRecord
100
AcDbLinetypeTableRecord
  2
ByBlock
 70
     0
  3

 72
    65
 73
     0
 40
0.0
  0
LTYPE
  5
23
330
21
100
AcDbSymbolTableRecord
100
AcDbLinetypeTableRecord
  2
ByLayer
 70
     0
  3

 72
    65
 73
     0
 40
0.0
  0
LTYPE
  5
E
330
21
100
AcDbSymbolTableRecord
100
AcDbLinetypeTableRecord
  2
Continuous
 70
     0
  3
Solid line
 72
    65
 73
     0
 40
0.0
  0
ENDTAB
  0
TABLE
  2
LAYER
  5
18
102
{ACAD_XDICTIONARY
360
19
102
}
330
0
100
AcDbSymbolTable
 70
     4
  0
LAYER
  5
6
102
{ACAD_XDICTIONARY
360
7
102
}
330
18
100
AcDbSymbolTableRecord
100
AcDbLayerTableRecord
  2
0
 70
     0
 62
     7
  6
Continuous
370
    -3
390
9
347
C
348
0
  0
LAYER
  5
87
102
{ACAD_XDICTIONARY
360
88
102
}
330
18
100
AcDbSymbolTableRecord
100
AcDbLayerTableRecord
  2
4
 70
     0
 62
     7
  6
Continuous
370
    -3
390
9
347
C
348
0
  0
LAYER
  5
49
102
{ACAD_XDICTIONARY
360
4A
102
}
330
18
100
AcDbSymbolTableRecord
100
AcDbLayerTableRecord
  2
3D
 70
     0
 62
     4
  6
Continuous
370
    -3
390
9
347
C
348
0
1001
AcAecLayerStandard
1000

1000

  0
LAYER
  5
64
102
{ACAD_XDICTIONARY
360
65
102
}
330
18
100
AcDbSymbolTableRecord
100
AcDbLayerTableRecord
  2
5
 70
     0
 62
     7
  6
Continuous
370
    -3
390
9
347
C
348
0
1001
AcAecLayerStandard
1000

1000

  0
ENDTAB
  0
TABLE
  2
STYLE
  5
1E
330
0
100
AcDbSymbolTable
 70
     2
  0
STYLE
  5
1F
330
1E
100
AcDbSymbolTableRecord
100
AcDbTextStyleTableRecord
  2
Standard
 70
     0
 40
0.0
 41
1.0
 50
0.0
 71
     0
 42
0.2
  3
txt
  4

  0
STYLE
  5
69
330
1E
100
AcDbSymbolTableRecord
100
AcDbTextStyleTableRecord
  2
ROMANS
 70
     0
 40
2.5
 41
1.0
 50
0.0
 71
     0
 42
2.5
  3
romans
  4

  0
ENDTAB
  0
TABLE
  2
VIEW
  5
24
330
0
100
AcDbSymbolTable
 70
     0
  0
ENDTAB
  0
TABLE
  2
UCS
  5
25
330
0
100
AcDbSymbolTable
 70
     0
  0
ENDTAB
  0
TABLE
  2
APPID
  5
2C
330
0
100
AcDbSymbolTable
 70
     5
  0
APPID
  5
1D
330
2C
100
AcDbSymbolTableRecord
100
AcDbRegAppTableRecord
  2
ACAD
 70
     0
  0
APPID
  5
2F
330
2C
100
AcDbSymbolTableRecord
100
AcDbRegAppTableRecord
  2
ACAD_DSTYLE_DIMJOGGED_JOGANGLE_SYMBOL
 70
     0
  0
APPID
  5
12
330
2C
100
AcDbSymbolTableRecord
100
AcDbRegAppTableRecord
  2
ACAD_PSEXT
 70
     0
  0
APPID
  5
4C
330
2C
100
AcDbSymbolTableRecord
100
AcDbRegAppTableRecord
  2
AcAecLayerStandard
 70
     0
  0
APPID
  5
2A
330
2C
100
AcDbSymbolTableRecord
100
AcDbRegAppTableRecord
  2
ACAD_NAV_VCDISPLAY
 70
     0
  0
ENDTAB
  0
TABLE
  2
DIMSTYLE
  5
2D
330
0
100
AcDbSymbolTable
 70
     2
100
AcDbDimStyleTable
 71
     2
340
2E
340
30
  0
DIMSTYLE
105
30
330
2D
100
AcDbSymbolTableRecord
100
AcDbDimStyleTableRecord
  2
Standard
 70
     0
 41
0.006
 42
0.002
 43
0.002
 44
0.002
 49
0.0072
 73
     0
 74
     0
140
0.006
141
0.009
147
0.002
172
     1
289
     0
340
1F
1001
ACAD_DSTYLE_DIMJOGGED_JOGANGLE_SYMBOL
1070
   384
1040
0.7853981633974483
  0
DIMSTYLE
105
2E
330
2D
100
AcDbSymbolTableRecord
100
AcDbDimStyleTableRecord
  2
1D
 70
     0
 41
0.006
 42
0.002
 43
0.002
 44
0.002
 49
0.0072
 73
     0
 74
     0
140
0.006
141
0.009
147
0.002
172
     1
176
   256
177
   256
178
   256
340
1F
345
23
346
23
347
23
371
    -1
372
    -1
1001
ACAD_DSTYLE_DIMJOGGED_JOGANGLE_SYMBOL
1070
   384
1040
0.7853981633974483
  0
ENDTAB
  0
TABLE
  2
BLOCK_RECORD
  5
1
330
0
100
AcDbSymbolTable
 70
     0
  0
BLOCK_RECORD
  5
2
102
{ACAD_XDICTIONARY
360
3
102
}
330
1
100
AcDbSymbolTableRecord
100
AcDbBlockTableRecord
  2
*Model_Space
340
10
 70
     0
280
     1
281
     0
  0
BLOCK_RECORD
  5
13
330
1
100
AcDbSymbolTableRecord
100
AcDbBlockTableRecord
  2
*Paper_Space
340
16
 70
     0
280
     1
281
     0
  0
ENDTAB
  0
ENDSEC
  0
SECTION
  2
BLOCKS
  0
BLOCK
  5
5
330
2
100
AcDbEntity
  8
0
100
AcDbBlockBegin
  2
*Model_Space
 70
     0
 10
0.0
 20
0.0
 30
0.0
  3
*Model_Space
  1

  0
ENDBLK
  5
F
330
2
100
AcDbEntity
  8
0
100
AcDbBlockEnd
  0
BLOCK
  5
14
330
13
100
AcDbEntity
 67
     1
  8
0
100
AcDbBlockBegin
  2
*Paper_Space
 70
     0
 10
0.0
 20
0.0
 30
0.0
  3
*Paper_Space
  1

  0
ENDBLK
  5
15
330
13
100
AcDbEntity
 67
     1
  8
0
100
AcDbBlockEnd
  0
ENDSEC
  0
SECTION
  2
ENTITIES
  0
LINE
  5
63
330
2
100
AcDbEntity
  8
5
 62
     3
100
AcDbLine
 10
3.341908946185867
 20
-1.315485204340802
 30
0.0
 11
3.341908946185867
 21
0.0971510258204944
 31
0.0
  0
LINE
  5
67
330
2
100
AcDbEntity
  8
5
 62
     7
100
AcDbLine
 10
3.289347972327959
 20
-1.315485204340802
 30
0.0
 11
3.289347972327959
 21
0.0971510258204944
 31
0.0
  0
TEXT
  5
68
330
2
100
AcDbEntity
  8
5
 62
     3
100
AcDbText
 10
3.301510309542168
 20
-0.53555762106996
 30
0.0
 40
0.0152209826018842
  1
18
 41
0.9
  7
ROMANS
 72
     4
 11
3.315535357796761
 21
-0.527947129769018
 31
0.0
100
AcDbText
  0
LINE
  5
6A
330
2
100
AcDbEntity
  8
5
 62
     7
100
AcDbLine
 10
4.405523990819347
 20
-1.181540617981227
 30
0.0
 11
4.405523990819347
 21
-0.7797066772909603
 31
0.0
  0
LINE
  5
6B
330
2
100
AcDbEntity
  8
5
 62
     7
100
AcDbLine
 10
4.244393355606007
 20
-1.181540617981227
 30
0.0
 11
4.244393355606007
 21
-0.7797066772909603
 31
0.0
  0
LINE
  5
6C
330
2
100
AcDbEntity
  8
5
 62
     7
100
AcDbLine
 10
4.083262720392667
 20
-1.181540617981227
 30
0.0
 11
4.083262720392667
 21
-0.7797066772909603
 31
0.0
  0
LINE
  5
6D
330
2
100
AcDbEntity
  8
5
 62
     7
100
AcDbLine
 10
4.566654626039962
 20
-1.315485204340802
 30
0.0
 11
4.566654626039962
 21
0.0971510258204944
 31
0.0
  0
LINE
  5
6E
330
2
100
AcDbEntity
  8
5
 62
     7
100
AcDbLine
 10
3.289347972327959
 20
-1.315485204340802
 30
0.0
 11
4.566654626039962
 21
-1.315485204340802
 31
0.0
  0
LINE
  5
6F
330
2
100
AcDbEntity
  8
5
 62
     3
100
AcDbLine
 10
3.289347972327959
 20
-1.14805445625825
 30
0.0
 11
4.566654626039962
 21
-1.14805445625825
 31
0.0
  0
LINE
  5
70
330
2
100
AcDbEntity
  8
5
 62
     3
100
AcDbLine
 10
3.289347972327959
 20
-1.28199904261055
 30
0.0
 11
4.566654626039962
 21
-1.28199904261055
 31
0.0
  0
LINE
  5
71
330
2
100
AcDbEntity
  8
5
 62
     3
100
AcDbLine
 10
3.289347972327959
 20
-1.215026779707841
 30
0.0
 11
4.566654626039962
 21
-1.215026779707841
 31
0.0
  0
LINE
  5
72
330
2
100
AcDbEntity
  8
5
 62
     3
100
AcDbLine
 10
3.289347972327959
 20
-0.9806236476324556
 30
0.0
 11
4.566654626039962
 21
-0.9806236476324556
 31
0.0
  0
LINE
  5
73
330
2
100
AcDbEntity
  8
5
 62
     3
100
AcDbLine
 10
3.289347972327959
 20
-1.248512941430817
 30
0.0
 11
4.566654626039962
 21
-1.248512941430817
 31
0.0
  0
LINE
  5
74
330
2
100
AcDbEntity
  8
5
 62
     3
100
AcDbLine
 10
3.289347972327959
 20
-1.181540617981227
 30
0.0
 11
4.566654626039962
 21
-1.181540617981227
 31
0.0
  0
LINE
  5
75
330
2
100
AcDbEntity
  8
5
 62
     3
100
AcDbLine
 10
3.289347972327959
 20
-1.114568294538912
 30
0.0
 11
4.566654626039962
 21
-1.114568294538912
 31
0.0
  0
LINE
  5
76
330
2
100
AcDbEntity
  8
5
 62
     3
100
AcDbLine
 10
3.289347972327959
 20
-1.08108213280866
 30
0.0
 11
4.566654626039962
 21
-1.08108213280866
 31
0.0
  0
LINE
  5
77
330
2
100
AcDbEntity
  8
5
 62
     3
100
AcDbLine
 10
3.289347972327959
 20
-1.047595971089322
 30
0.0
 11
4.566654626039962
 21
-1.047595971089322
 31
0.0
  0
LINE
  5
78
330
2
100
AcDbEntity
  8
5
 62
     3
100
AcDbLine
 10
3.289347972327959
 20
-1.014109809359069
 30
0.0
 11
4.566654626039962
 21
-1.014109809359069
 31
0.0
  0
LINE
  5
79
330
2
100
AcDbEntity
  8
5
 62
     3
100
AcDbLine
 10
3.289347972327959
 20
-0.8466790007405506
 30
0.0
 11
4.566654626039962
 21
-0.8466790007405506
 31
0.0
  0
LINE
  5
7A
330
2
100
AcDbEntity
  8
5
 62
     3
100
AcDbLine
 10
3.289347972327959
 20
-0.8801651624598889
 30
0.0
 11
4.566654626039962
 21
-0.8801651624598889
 31
0.0
  0
LINE
  5
7B
330
2
100
AcDbEntity
  8
5
 62
     3
100
AcDbLine
 10
3.289347972327959
 20
-0.9136513241901411
 30
0.0
 11
4.566654626039962
 21
-0.9136513241901411
 31
0.0
  0
LINE
  5
7C
330
2
100
AcDbEntity
  8
5
 62
     3
100
AcDbLine
 10
3.289347972327959
 20
-0.9471374859094794
 30
0.0
 11
4.566654626039962
 21
-0.9471374859094794
 31
0.0
  0
LINE
  5
7D
330
2
100
AcDbEntity
  8
5
 62
     3
100
AcDbLine
 10
3.289347972327959
 20
-0.8131928390175744
 30
0.0
 11
4.566654626039962
 21
-0.8131928390175744
 31
0.0
  0
TEXT
  5
7E
330
2
100
AcDbEntity
  8
5
 62
     3
100
AcDbText
 10
3.300056935441107
 20
-1.071529357248867
 30
0.0
 40
0.0152209826018842
  1
28
 41
0.9
  7
ROMANS
 72
     4
 11
3.313103491957008
 21
-1.063918865947925
 31
0.0
100
AcDbText
  0
TEXT
  5
7F
330
2
100
AcDbEntity
  8
5
 62
     3
100
AcDbText
 10
3.301856311792597
 20
-1.27281024462943
 30
0.0
 40
0.0152209826018842
  1
34
 41
0.9
  7
ROMANS
 72
     4
 11
3.315229032221395
 21
-1.265199753328488
 31
0.0
100
AcDbText
  0
TEXT
  5
80
330
2
100
AcDbEntity
  8
5
 62
     3
100
AcDbText
 10
3.302182475705495
 20
-1.238581073509043
 30
0.0
 40
0.0152209826018842
  1
33
 41
0.9
  7
ROMANS
 72
     4
 11
3.315229032221395
 21
-1.230970582208101
 31
0.0
100
AcDbText
  0
TEXT
  5
81
330
2
100
AcDbEntity
  8
5
 62
     3
100
AcDbText
 10
3.30413945918288
 20
-1.172351820000107
 30
0.0
 40
0.0152209826018842
  1
31
 41
0.9
  7
ROMANS
 72
     4
 11
3.315229032221395
 21
-1.164741328699165
 31
0.0
100
AcDbText
  0
TEXT
  5
82
330
2
100
AcDbEntity
  8
5
 62
     3
100
AcDbText
 10
3.302182475705495
 20
-1.205837981719445
 30
0.0
 40
0.0152209826018842
  1
32
 41
0.9
  7
ROMANS
 72
     4
 11
3.315229032221395
 21
-1.198227490418503
 31
0.0
100
AcDbText
  0
TEXT
  5
83
330
2
100
AcDbEntity
  8
5
 62
     3
100
AcDbText
 10
3.302182475705495
 20
-1.139043367160842
 30
0.0
 40
0.0152209826018842
  1
30
 41
0.9
  7
ROMANS
 72
     4
 11
3.315229032221395
 21
-1.1314328758599
 31
0.0
100
AcDbText
  0
TEXT
  5
84
330
2
100
AcDbEntity
  8
5
 62
     3
100
AcDbText
 10
3.302508639618392
 20
-1.105197507759361
 30
0.0
 40
0.0152209826018842
  1
29
 41
0.9
  7
ROMANS
 72
     4
 11
3.315229032221395
 21
-1.097587016458419
 31
0.0
100
AcDbText
  0
TEXT
  5
85
330
2
100
AcDbEntity
  8
5
 62
     3
100
AcDbText
 10
3.302182475705495
 20
-1.038010650083809
 30
0.0
 40
0.0152209826018842
  1
27
 41
0.9
  7
ROMANS
 72
     4
 11
3.315229032221395
 21
-1.030400158782867
 31
0.0
100
AcDbText
  0
TEXT
  5
86
330
2
100
AcDbEntity
  8
4
 62
     3
100
AcDbText
 10
3.303604584915165
 20
-1.00470647714835
 30
0.0
 40
0.0152209826018842
  1
26
 41
0.9
  7
ROMANS
 72
     4
 11
3.316651141431066
 21
-0.9970959858474088
 31
0.0
100
AcDbText
  0
TEXT
  5
8A
330
2
100
AcDbEntity
  8
5
 62
     3
100
AcDbText
 10
3.303604584915165
 20
-0.9708563378394263
 30
0.0
 40
0.0152209826018842
  1
25
 41
0.9
  7
ROMANS
 72
     4
 11
3.316651141431066
 21
-0.9632458465384843
 31
0.0
100
AcDbText
  0
TEXT
  5
8B
330
2
100
AcDbEntity
  8
5
 62
     3
100
AcDbText
 10
3.302162637367963
 20
-0.9376452625824402
 30
0.0
 40
0.0152209826018842
  1
24
 41
0.9
  7
ROMANS
 72
     4
 11
3.315535357796761
 21
-0.9300347712814982
 31
0.0
100
AcDbText
  0
TEXT
  5
8C
330
2
100
AcDbEntity
  8
5
 62
     3
100
AcDbText
 10
3.302488801280861
 20
-0.9043985423072388
 30
0.0
 40
0.0152209826018842
  1
23
 41
0.9
  7
ROMANS
 72
     4
 11
3.315535357796761
 21
-0.8967880510062968
 31
0.0
100
AcDbText
  0
TEXT
  5
8D
330
2
100
AcDbEntity
  8
5
 62
     3
100
AcDbText
 10
3.302488801280861
 20
-0.869156476592683
 30
0.0
 40
0.0152209826018842
  1
22
 41
0.9
  7
ROMANS
 72
     4
 11
3.315535357796761
 21
-0.861545985291741
 31
0.0
100
AcDbText
  0
TEXT
  5
8E
330
2
100
AcDbEntity
  8
5
 62
     3
100
AcDbText
 10
3.302488801280861
 20
-0.8038254285588426
 30
0.0
 40
0.0152209826018842
  1
20
 41
0.9
  7
ROMANS
 72
     4
 11
3.315535357796761
 21
-0.7962149372579006
 31
0.0
100
AcDbText
  0
TEXT
  5
8F
330
2
100
AcDbEntity
  8
5
 62
     3
100
AcDbText
 10
3.304445784758246
 20
-0.8371853383200448
 30
0.0
 40
0.0152209826018842
  1
21
 41
0.9
  7
ROMANS
 72
     4
 11
3.315535357796761
 21
-0.8295748470191028
 31
0.0
100
AcDbText
  0
TEXT
  5
90
330
2
100
AcDbEntity
  8
5
 62
     3
100
AcDbText
 10
3.301836473455066
 20
-0.7364743492384822
 30
0.0
 40
0.0152209826018842
  1
19
 41
0.9
  7
ROMANS
 72
     4
 11
3.315535357796761
 21
-0.7288638579375402
 31
0.0
100
AcDbText
  0
TEXT
  5
91
330
2
100
AcDbEntity
  8
5
 62
     3
100
AcDbText
 10
4.157171257752829
 20
-1.138339445747837
 30
0.0
 40
0.0152209826018842
  1
-
 41
0.9
  7
ROMANS
 72
     4
 11
4.165651519488164
 21
-1.131816167489887
 31
0.0
100
AcDbText
  0
TEXT
  5
92
330
2
100
AcDbEntity
  8
5
 62
     3
100
AcDbText
 10
4.157171257752829
 20
-1.171825607467176
 30
0.0
 40
0.0152209826018842
  1
-
 41
0.9
  7
ROMANS
 72
     4
 11
4.165651519488164
 21
-1.165302329209225
 31
0.0
100
AcDbText
  0
TEXT
  5
93
330
2
100
AcDbEntity
  8
5
 62
     3
100
AcDbText
 10
4.157171257752829
 20
-1.071367122298247
 30
0.0
 40
0.0152209826018842
  1
-
 41
0.9
  7
ROMANS
 72
     4
 11
4.165651519488164
 21
-1.064843844040296
 31
0.0
100
AcDbText
  0
TEXT
  5
94
330
2
100
AcDbEntity
  8
5
 62
     3
100
AcDbText
 10
4.157171257752829
 20
-1.104853284024861
 30
0.0
 40
0.0152209826018842
  1
-
 41
0.9
  7
ROMANS
 72
     4
 11
4.165651519488164
 21
-1.098330005766911
 31
0.0
100
AcDbText
  0
TEXT
  5
95
330
2
100
AcDbEntity
  8
5
 62
     3
100
AcDbText
 10
4.157171257752829
 20
-0.9039363136760901
 30
0.0
 40
0.0152209826018842
  1
-
 41
0.9
  7
ROMANS
 72
     4
 11
4.165651519488164
 21
-0.8974130354181397
 31
0.0
100
AcDbText
  0
TEXT
  5
96
330
2
100
AcDbEntity
  8
5
 62
     3
100
AcDbText
 10
4.157171257752829
 20
-0.8369639902264996
 30
0.0
 40
0.0152209826018842
  1
-
 41
0.9
  7
ROMANS
 72
     4
 11
4.165651519488164
 21
-0.8304407119685492
 31
0.0
100
AcDbText
  0
TEXT
  5
97
330
2
100
AcDbEntity
  8
5
 62
     3
100
AcDbText
 10
4.157171257752829
 20
-0.8704501519458379
 30
0.0
 40
0.0152209826018842
  1
-
 41
0.9
  7
ROMANS
 72
     4
 11
4.165651519488164
 21
-0.8639268736878875
 31
0.0
100
AcDbText
  0
TEXT
  5
98
330
2
100
AcDbEntity
  8
5
 62
     3
100
AcDbText
 10
4.157171257752829
 20
-1.037880960575271
 30
0.0
 40
0.0152209826018842
  1
-
 41
0.9
  7
ROMANS
 72
     4
 11
4.165651519488164
 21
-1.03135768231732
 31
0.0
100
AcDbText
  0
TEXT
  5
99
330
2
100
AcDbEntity
  8
5
 62
     3
100
AcDbText
 10
4.157171257752829
 20
-1.004394798848656
 30
0.0
 40
0.0152209826018842
  1
-
 41
0.9
  7
ROMANS
 72
     4
 11
4.165651519488164
 21
-0.9978715205907064
 31
0.0
100
AcDbText
  0
TEXT
  5
9A
330
2
100
AcDbEntity
  8
5
 62
     3
100
AcDbText
 10
4.157171257752829
 20
-0.9709086371256805
 30
0.0
 40
0.0152209826018842
  1
-
 41
0.9
  7
ROMANS
 72
     4
 11
4.165651519488164
 21
-0.9643853588677302
 31
0.0
100
AcDbText
  0
TEXT
  5
9B
330
2
100
AcDbEntity
  8
5
 62
     3
100
AcDbText
 10
4.157171257752829
 20
-0.9374224753990663
 30
0.0
 40
0.0152209826018842
  1
-
 41
0.9
  7
ROMANS
 72
     4
 11
4.165651519488164
 21
-0.930899197141116
 31
0.0
100
AcDbText
  0
TEXT
  5
9C
330
2
100
AcDbEntity
  8
5
 62
     3
100
AcDbText
 10
4.471581601372307
 20
-1.138713302180325
 30
0.0
 40
0.0152209826018842
  1
2.5%%d
 41
0.9
  7
ROMANS
 72
     4
 11
4.490499108320364
 21
-1.131102810879383
 31
0.0
100
AcDbText
  0
TEXT
  5
9D
330
2
100
AcDbEntity
  8
5
 62
     3
100
AcDbText
 10
4.315626407932918
 20
-1.171825607467176
 30
0.0
 40
0.0152209826018842
  1
-
 41
0.9
  7
ROMANS
 72
     4
 11
4.324106669668253
 21
-1.165302329209225
 31
0.0
100
AcDbText
  0
TEXT
  5
9E
330
2
100
AcDbEntity
  8
5
 62
     3
100
AcDbText
 10
4.315626407932918
 20
-1.138339445747837
 30
0.0
 40
0.0152209826018842
  1
-
 41
0.9
  7
ROMANS
 72
     4
 11
4.324106669668253
 21
-1.131816167489887
 31
0.0
100
AcDbText
  0
TEXT
  5
9F
330
2
100
AcDbEntity
  8
5
 62
     3
100
AcDbText
 10
4.301375222174777
 20
-1.207693869239368
 30
0.0
 40
0.0152209826018842
  1
0.008
 41
0.9
  7
ROMANS
 72
     4
 11
4.330729974335554
 21
-1.200083377938426
 31
0.0
100
AcDbText
  0
TEXT
  5
A0
330
2
100
AcDbEntity
  8
5
 62
     3
100
AcDbText
 10
4.461144356159587
 20
-0.8708240083892395
 30
0.0
 40
0.0152209826018842
  1
0.025
 41
0.9
  7
ROMANS
 72
     4
 11
4.490499108320364
 21
-0.8632135170882975
 31
0.0
100
AcDbText
  0
TEXT
  5
A1
330
2
100
AcDbEntity
  8
5
 62
     3
100
AcDbText
 10
4.463101339636972
 20
-0.9043101701085777
 30
0.0
 40
0.0152209826018842
  1
0.051
 41
0.9
  7
ROMANS
 72
     4
 11
4.490499108320364
 21
-0.8966996788076357
 31
0.0
100
AcDbText
  0
TEXT
  5
A2
330
2
100
AcDbEntity
  8
5
 62
     3
100
AcDbText
 10
4.481409135936169
 20
-1.071367122298247
 30
0.0
 40
0.0152209826018842
  1
-
 41
0.9
  7
ROMANS
 72
     4
 11
4.489889397671504
 21
-1.064843844040296
 31
0.0
100
AcDbText
  0
TEXT
  5
A3
330
2
100
AcDbEntity
  8
5
 62
     3
100
AcDbText
 10
4.481409135936169
 20
-0.9374224753990663
 30
0.0
 40
0.0152209826018842
  1
-
 41
0.9
  7
ROMANS
 72
     4
 11
4.489889397671504
 21
-0.930899197141116
 31
0.0
100
AcDbText
  0
TEXT
  5
A4
330
2
100
AcDbEntity
  8
5
 62
     3
100
AcDbText
 10
4.315626407932918
 20
-0.8704501519458379
 30
0.0
 40
0.0152209826018842
  1
-
 41
0.9
  7
ROMANS
 72
     4
 11
4.324106669668253
 21
-0.8639268736878875
 31
0.0
100
AcDbText
  0
TEXT
  5
A5
330
2
100
AcDbEntity
  8
5
 62
     3
100
AcDbText
 10
4.315626407932918
 20
-0.8369639902264996
 30
0.0
 40
0.0152209826018842
  1
-
 41
0.9
  7
ROMANS
 72
     4
 11
4.324106669668253
 21
-0.8304407119685492
 31
0.0
100
AcDbText
  0
TEXT
  5
A6
330
2
100
AcDbEntity
  8
5
 62
     3
100
AcDbText
 10
4.315626407932918
 20
-0.9039363136760901
 30
0.0
 40
0.0152209826018842
  1
-
 41
0.9
  7
ROMANS
 72
     4
 11
4.324106669668253
 21
-0.8974130354181397
 31
0.0
100
AcDbText
  0
TEXT
  5
A7
330
2
100
AcDbEntity
  8
5
 62
     3
100
AcDbText
 10
4.315626407932918
 20
-1.104853284024861
 30
0.0
 40
0.0152209826018842
  1
-
 41
0.9
  7
ROMANS
 72
     4
 11
4.324106669668253
 21
-1.098330005766911
 31
0.0
100
AcDbText
  0
TEXT
  5
A8
330
2
100
AcDbEntity
  8
5
 62
     3
100
AcDbText
 10
4.315626407932918
 20
-0.9709086371256805
 30
0.0
 40
0.0152209826018842
  1
-
 41
0.9
  7
ROMANS
 72
     4
 11
4.324106669668253
 21
-0.9643853588677302
 31
0.0
100
AcDbText
  0
TEXT
  5
A9
330
2
100
AcDbEntity
  8
5
 62
     3
100
AcDbText
 10
4.315626407932918
 20
-1.004394798848656
 30
0.0
 40
0.0152209826018842
  1
-
 41
0.9
  7
ROMANS
 72
     4
 11
4.324106669668253
 21
-0.9978715205907064
 31
0.0
100
AcDbText
  0
TEXT
  5
AA
330
2
100
AcDbEntity
  8
5
 62
     3
100
AcDbText
 10
4.315626407932918
 20
-1.037880960575271
 30
0.0
 40
0.0152209826018842
  1
-
 41
0.9
  7
ROMANS
 72
     4
 11
4.324106669668253
 21
-1.03135768231732
 31
0.0
100
AcDbText
  0
TEXT
  5
AB
330
2
100
AcDbEntity
  8
5
 62
     3
100
AcDbText
 10
4.286555202500827
 20
-1.071740978730735
 30
0.0
 40
0.0152209826018842
  1
%%p0.102
 41
0.9
  7
ROMANS
 72
     4
 11
4.324716380309837
 21
-1.064130487429792
 31
0.0
100
AcDbText
  0
LINE
  5
AC
330
2
100
AcDbEntity
  8
5
 62
     3
100
AcDbLine
 10
3.289347972327959
 20
-0.6457620303990553
 30
0.0
 11
4.566654626039962
 21
-0.6457620303990553
 31
0.0
  0
LINE
  5
AD
330
2
100
AcDbEntity
  8
5
 62
     3
100
AcDbLine
 10
3.289347972327959
 20
-0.5787898280395894
 30
0.0
 11
4.566654626039962
 21
-0.5787898280395894
 31
0.0
  0
LINE
  5
AE
330
2
100
AcDbEntity
  8
5
 62
     3
100
AcDbLine
 10
3.289347972327959
 20
-0.5453037268562185
 30
0.0
 11
4.566654626039962
 21
-0.5453037268562185
 31
0.0
  0
LINE
  5
AF
330
2
100
AcDbEntity
  8
5
 62
     3
100
AcDbLine
 10
3.289347972327959
 20
-0.5118176256692096
 30
0.0
 11
4.566654626039962
 21
-0.5118176256692096
 31
0.0
  0
LINE
  5
B0
330
2
100
AcDbEntity
  8
5
 62
     3
100
AcDbLine
 10
3.289347972327959
 20
-0.7127343538413698
 30
0.0
 11
4.566654626039962
 21
-0.7127343538413698
 31
0.0
  0
LINE
  5
B1
330
2
100
AcDbEntity
  8
5
 62
     3
100
AcDbLine
 10
3.289347972327959
 20
0.0239609013697191
 30
0.0
 11
4.566654626039962
 21
0.0239609013697191
 31
0.0
  0
LINE
  5
B2
330
2
100
AcDbEntity
  8
5
 62
     3
100
AcDbLine
 10
3.289347972327959
 20
-0.0095252603568952
 30
0.0
 11
4.566654626039962
 21
-0.0095252603568952
 31
0.0
  0
LINE
  5
B3
330
2
100
AcDbEntity
  8
5
 62
     3
100
AcDbLine
 10
3.289347972327959
 20
-0.1434699072488001
 30
0.0
 11
4.566654626039962
 21
-0.1434699072488001
 31
0.0
  0
LINE
  5
B4
330
2
100
AcDbEntity
  8
5
 62
     3
100
AcDbLine
 10
3.289347972327959
 20
-0.1099837455294619
 30
0.0
 11
4.566654626039962
 21
-0.1099837455294619
 31
0.0
  0
LINE
  5
B5
330
2
100
AcDbEntity
  8
5
 62
     3
100
AcDbLine
 10
3.289347972327959
 20
-0.0764975837992097
 30
0.0
 11
4.566654626039962
 21
-0.0764975837992097
 31
0.0
  0
LINE
  5
B6
330
2
100
AcDbEntity
  8
5
 62
     3
100
AcDbLine
 10
3.289347972327959
 20
-0.0430114220798714
 30
0.0
 11
4.566654626039962
 21
-0.0430114220798714
 31
0.0
  0
LINE
  5
B7
330
2
100
AcDbEntity
  8
5
 62
     3
100
AcDbLine
 10
3.289347972327959
 20
-0.2439283924177289
 30
0.0
 11
4.566654626039962
 21
-0.2439283924177289
 31
0.0
  0
LINE
  5
B8
330
2
100
AcDbEntity
  8
5
 62
     3
100
AcDbLine
 10
3.289347972327959
 20
-0.2774145541516191
 30
0.0
 11
4.566654626039962
 21
-0.2774145541516191
 31
0.0
  0
LINE
  5
B9
330
2
100
AcDbEntity
  8
5
 62
     3
100
AcDbLine
 10
3.289347972327959
 20
-0.3109007158673194
 30
0.0
 11
4.566654626039962
 21
-0.3109007158673194
 31
0.0
  0
LINE
  5
BA
330
2
100
AcDbEntity
  8
5
 62
     3
100
AcDbLine
 10
3.289347972327959
 20
-0.3443868776012096
 30
0.0
 11
4.566654626039962
 21
-0.3443868776012096
 31
0.0
  0
LINE
  5
BB
330
2
100
AcDbEntity
  8
5
 62
     3
100
AcDbLine
 10
3.289347972327959
 20
-0.3778730393169098
 30
0.0
 11
4.566654626039962
 21
-0.3778730393169098
 31
0.0
  0
LINE
  5
BC
330
2
100
AcDbEntity
  8
5
 62
     3
100
AcDbLine
 10
3.289347972327959
 20
-0.4113592010508001
 30
0.0
 11
4.566654626039962
 21
-0.4113592010508001
 31
0.0
  0
LINE
  5
BD
330
2
100
AcDbEntity
  8
5
 62
     3
100
AcDbLine
 10
3.289347972327959
 20
-0.4783315244894766
 30
0.0
 11
4.566654626039962
 21
-0.4783315244894766
 31
0.0
  0
LINE
  5
BE
330
2
100
AcDbEntity
  8
5
 62
     3
100
AcDbLine
 10
3.289347972327959
 20
-0.1769560689790524
 30
0.0
 11
4.566654626039962
 21
-0.1769560689790524
 31
0.0
  0
LINE
  5
BF
330
2
100
AcDbEntity
  8
5
 62
     3
100
AcDbLine
 10
3.289347972327959
 20
0.0574470630926953
 30
0.0
 11
4.566654626039962
 21
0.0574470630926953
 31
0.0
  0
LINE
  5
C0
330
2
100
AcDbEntity
  8
5
 62
     7
100
AcDbLine
 10
3.289347972327959
 20
0.0971510258204944
 30
0.0
 11
4.566654626039962
 21
0.0971510258204944
 31
0.0
  0
LINE
  5
C1
330
2
100
AcDbEntity
  8
5
 62
     3
100
AcDbLine
 10
3.289347972327959
 20
-0.4448453627665004
 30
0.0
 11
4.566654626039962
 21
-0.4448453627665004
 31
0.0
  0
TEXT
  5
C2
330
2
100
AcDbEntity
  8
5
 62
     3
100
AcDbText
 10
3.301203983966802
 20
-0.5022331325294307
 30
0.0
 40
0.0152209826018842
  1
17
 41
0.9
  7
ROMANS
 72
     4
 11
3.315229032221395
 21
-0.4946226412284887
 31
0.0
100
AcDbText
  0
TEXT
  5
C3
330
2
100
AcDbEntity
  8
5
 62
     3
100
AcDbText
 10
3.301203983966802
 20
-0.267829233149745
 30
0.0
 40
0.0152209826018842
  1
10
 41
0.9
  7
ROMANS
 72
     4
 11
3.315229032221395
 21
-0.2602187418488029
 31
0.0
100
AcDbText
  0
TEXT
  5
C4
330
2
100
AcDbEntity
  8
5
 62
     3
100
AcDbText
 10
3.3010354271798
 20
-0.301347940307527
 30
0.0
 40
0.0152209826018842
  1
11
 41
0.9
  7
ROMANS
 72
     4
 11
3.313103491957008
 21
-0.2937374490065849
 31
0.0
100
AcDbText
  0
TEXT
  5
C5
330
2
100
AcDbEntity
  8
5
 62
     3
100
AcDbText
 10
3.301203983966802
 20
-0.3350160908180205
 30
0.0
 40
0.0152209826018842
  1
12
 41
0.9
  7
ROMANS
 72
     4
 11
3.315229032221395
 21
-0.3274055995170784
 31
0.0
100
AcDbText
  0
TEXT
  5
C6
330
2
100
AcDbEntity
  8
5
 62
     3
100
AcDbText
 10
3.301203983966802
 20
-0.3685022525519106
 30
0.0
 40
0.0152209826018842
  1
13
 41
0.9
  7
ROMANS
 72
     4
 11
3.315229032221395
 21
-0.3608917612509686
 31
0.0
100
AcDbText
  0
TEXT
  5
C7
330
2
100
AcDbEntity
  8
5
 62
     3
100
AcDbText
 10
3.300877820053905
 20
-0.4023481119388398
 30
0.0
 40
0.0152209826018842
  1
14
 41
0.9
  7
ROMANS
 72
     4
 11
3.315229032221395
 21
-0.3947376206378976
 31
0.0
100
AcDbText
  0
TEXT
  5
C8
330
2
100
AcDbEntity
  8
5
 62
     3
100
AcDbText
 10
3.301203983966802
 20
-0.4691427265119946
 30
0.0
 40
0.0152209826018842
  1
16
 41
0.9
  7
ROMANS
 72
     4
 11
3.315229032221395
 21
-0.4615322352110525
 31
0.0
100
AcDbText
  0
TEXT
  5
C9
330
2
100
AcDbEntity
  8
5
 62
     3
100
AcDbText
 10
3.301203983966802
 20
-0.4356565647817424
 30
0.0
 40
0.0152209826018842
  1
15
 41
0.9
  7
ROMANS
 72
     4
 11
3.315229032221395
 21
-0.4280460734808003
 31
0.0
100
AcDbText
  0
TEXT
  5
CA
330
2
100
AcDbEntity
  8
5
 62
     7
100
AcDbText
 10
3.293087111134569
 20
0.1153225211938487
 30
0.0
 40
0.0221791460770312
  1
NOTES :
 41
0.9
  7
ROMANS
 72
     4
 11
3.354871875206299
 21
0.1264120942323643
 31
0.0
100
AcDbText
  0
TEXT
  5
CB
330
2
100
AcDbEntity
  8
5
 62
     3
100
AcDbText
 10
3.309012079538811
 20
-0.1674638456520133
 30
0.0
 40
0.0152209826018842
  1
7
 41
0.9
  7
ROMANS
 72
     4
 11
3.315535357796761
 21
-0.1598533543510712
 31
0.0
100
AcDbText
  0
TEXT
  5
CC
330
2
100
AcDbEntity
  8
5
 62
     3
100
AcDbText
 10
3.310127863173115
 20
-0.2006749209089993
 30
0.0
 40
0.0152209826018842
  1
8
 41
0.9
  7
ROMANS
 72
     4
 11
3.316651141431066
 21
-0.1930644296080572
 31
0.0
100
AcDbText
  0
TEXT
  5
CD
330
2
100
AcDbEntity
  8
5
 62
     3
100
AcDbText
 10
3.310454027086013
 20
-0.2345250602106479
 30
0.0
 40
0.0152209826018842
  1
9
 41
0.9
  7
ROMANS
 72
     4
 11
3.316651141431066
 21
-0.2269145689097058
 31
0.0
100
AcDbText
  0
TEXT
  5
CE
330
2
100
AcDbEntity
  8
5
 62
     3
100
AcDbText
 10
3.309012079538811
 20
0.0002209059689686
 30
0.0
 40
0.0152209826018842
  1
2
 41
0.9
  7
ROMANS
 72
     4
 11
3.315535357796761
 21
0.0078313972699107
 31
0.0
100
AcDbText
  0
TEXT
  5
CF
330
2
100
AcDbEntity
  8
5
 62
     3
100
AcDbText
 10
3.308685915625913
 20
-0.0670039213896179
 30
0.0
 40
0.0152209826018842
  1
4
 41
0.9
  7
ROMANS
 72
     4
 11
3.315535357796761
 21
-0.0593934300886758
 31
0.0
100
AcDbText
  0
TEXT
  5
D0
330
2
100
AcDbEntity
  8
5
 62
     3
100
AcDbText
 10
3.309012079538811
 20
-0.0336440116175017
 30
0.0
 40
0.0152209826018842
  1
3
 41
0.9
  7
ROMANS
 72
     4
 11
3.315535357796761
 21
-0.0260335203165596
 31
0.0
100
AcDbText
  0
TEXT
  5
D1
330
2
100
AcDbEntity
  8
5
 62
     3
100
AcDbText
 10
3.309012079538811
 20
-0.0989750596586182
 30
0.0
 40
0.0152209826018842
  1
5
 41
0.9
  7
ROMANS
 72
     4
 11
3.315535357796761
 21
-0.0913645683576761
 31
0.0
100
AcDbText
  0
TEXT
  5
D2
330
2
100
AcDbEntity
  8
5
 62
     3
100
AcDbText
 10
3.308685915625913
 20
-0.1342171253804499
 30
0.0
 40
0.0152209826018842
  1
6
 41
0.9
  7
ROMANS
 72
     4
 11
3.315535357796761
 21
-0.1266066340795078
 31
0.0
100
AcDbText
  0
TEXT
  5
D3
330
2
100
AcDbEntity
  8
5
 62
     3
100
AcDbText
 10
3.309990571277503
 20
0.0337070676919448
 30
0.0
 40
0.0152209826018842
  1
1
 41
0.9
  7
ROMANS
 72
     4
 11
3.315535357796761
 21
0.0413175589928869
 31
0.0
100
AcDbText
  0
LINE
  5
D4
330
2
100
AcDbEntity
  8
5
 62
     7
100
AcDbLine
 10
4.083262720392667
 20
-0.7127343538413698
 30
0.0
 11
4.083262720392667
 21
0.0971510258204944
 31
0.0
  0
TEXT
  5
D5
330
2
100
AcDbEntity
  8
5
 62
     3
100
AcDbText
 10
4.160519493612278
 20
-0.4686165139754256
 30
0.0
 40
0.0152209826018842
  1
-
 41
0.9
  7
ROMANS
 72
     4
 11
4.168999755347613
 21
-0.4620932357174752
 31
0.0
100
AcDbText
  0
TEXT
  5
D6
330
2
100
AcDbEntity
  8
5
 62
     3
100
AcDbText
 10
4.160519493612278
 20
-0.5021026757056779
 30
0.0
 40
0.0152209826018842
  1
-
 41
0.9
  7
ROMANS
 72
     4
 11
4.168999755347613
 21
-0.4955793974477274
 31
0.0
100
AcDbText
  0
TEXT
  5
D7
330
2
100
AcDbEntity
  8
5
 62
     3
100
AcDbText
 10
4.134251415932485
 20
-0.0001841062826078
 30
0.0
 40
0.0152209826018842
  1
1.499
 41
0.9
  7
ROMANS
 72
     4
 11
4.164258495919057
 21
0.0074263850183343
 31
0.0
100
AcDbText
  0
TEXT
  5
D8
330
2
100
AcDbEntity
  8
5
 62
     3
100
AcDbText
 10
4.13490374375828
 20
0.0333020554512824
 30
0.0
 40
0.0152209826018842
  1
0.246
 41
0.9
  7
ROMANS
 72
     4
 11
4.164258495919057
 21
0.0409125467522245
 31
0.0
100
AcDbText
  0
TEXT
  5
D9
330
2
100
AcDbEntity
  8
5
 62
     7
100
AcDbText
 10
4.142342010196438
 20
0.0670342003084727
 30
0.0
 40
0.018265179122261
  1
MIN.
 41
0.9
  7
ROMANS
 72
     4
 11
4.167391398706968
 21
0.0761667898696032
 31
0.0
100
AcDbText
  0
LINE
  5
DA
330
2
100
AcDbEntity
  8
5
 62
     7
100
AcDbLine
 10
4.405523990819347
 20
-0.7127343538413698
 30
0.0
 11
4.405523990819347
 21
0.0971510258204944
 31
0.0
  0
LINE
  5
DB
330
2
100
AcDbEntity
  8
5
 62
     7
100
AcDbLine
 10
4.244393355606007
 20
-0.7127343538413698
 30
0.0
 11
4.244393355606007
 21
0.0971510258204944
 31
0.0
  0
TEXT
  5
DC
330
2
100
AcDbEntity
  8
5
 62
     3
100
AcDbText
 10
4.457165014177683
 20
-0.5024765321418034
 30
0.0
 40
0.0152209826018842
  1
0.508
 41
0.9
  7
ROMANS
 72
     4
 11
4.48651976633846
 21
-0.4948660408408614
 31
0.0
100
AcDbText
  0
TEXT
  5
DD
330
2
100
AcDbEntity
  8
5
 62
     3
100
AcDbText
 10
4.457165014177683
 20
-0.4689903704188273
 30
0.0
 40
0.0152209826018842
  1
0.020
 41
0.9
  7
ROMANS
 72
     4
 11
4.48651976633846
 21
-0.4613798791178852
 31
0.0
100
AcDbText
  0
TEXT
  5
DE
330
2
100
AcDbEntity
  8
5
 62
     3
100
AcDbText
 10
4.316601648562405
 20
-0.5021026757056779
 30
0.0
 40
0.0152209826018842
  1
-
 41
0.9
  7
ROMANS
 72
     4
 11
4.32508191029774
 21
-0.4955793974477274
 31
0.0
100
AcDbText
  0
TEXT
  5
DF
330
2
100
AcDbEntity
  8
5
 62
     3
100
AcDbText
 10
4.316601648562405
 20
-0.4686165139754256
 30
0.0
 40
0.0152209826018842
  1
-
 41
0.9
  7
ROMANS
 72
     4
 11
4.32508191029774
 21
-0.4620932357174752
 31
0.0
100
AcDbText
  0
TEXT
  5
E0
330
2
100
AcDbEntity
  8
5
 62
     7
100
AcDbText
 10
4.463790096755468
 20
0.0672021826302001
 30
0.0
 40
0.018265179122261
  1
MAX.
 41
0.9
  7
ROMANS
 72
     4
 11
4.491970658829814
 21
0.0763347721913306
 31
0.0
100
AcDbText
  0
TEXT
  5
E1
330
2
100
AcDbEntity
  8
5
 62
     3
100
AcDbText
 10
4.456512686351889
 20
-0.0001841062826078
 30
0.0
 40
0.0152209826018842
  1
1.549
 41
0.9
  7
ROMANS
 72
     4
 11
4.48651976633846
 21
0.0074263850183343
 31
0.0
100
AcDbText
  0
TEXT
  5
E2
330
2
100
AcDbEntity
  8
5
 62
     3
100
AcDbText
 10
4.294729723316391
 20
-0.0001841062826078
 30
0.0
 40
0.0152209826018842
  1
1.524
 41
0.9
  7
ROMANS
 72
     4
 11
4.325389131128758
 21
0.0074263850183343
 31
0.0
100
AcDbText
  0
TEXT
  5
E3
330
2
100
AcDbEntity
  8
5
 62
     3
100
AcDbText
 10
4.457165014177683
 20
0.0333020554512824
 30
0.0
 40
0.0152209826018842
  1
0.262
 41
0.9
  7
ROMANS
 72
     4
 11
4.48651976633846
 21
0.0409125467522245
 31
0.0
100
AcDbText
  0
TEXT
  5
E4
330
2
100
AcDbEntity
  8
5
 62
     3
100
AcDbText
 10
4.480710258645026
 20
-0.0667825732887967
 30
0.0
 40
0.0152209826018842
  1
-
 41
0.9
  7
ROMANS
 72
     4
 11
4.489190520380361
 21
-0.0602592950308463
 31
0.0
100
AcDbText
  0
TEXT
  5
E5
330
2
100
AcDbEntity
  8
5
 62
     3
100
AcDbText
 10
4.480710258645026
 20
-0.1002687350154109
 30
0.0
 40
0.0152209826018842
  1
-
 41
0.9
  7
ROMANS
 72
     4
 11
4.489190520380361
 21
-0.0937454567574605
 31
0.0
100
AcDbText
  0
TEXT
  5
E6
330
2
100
AcDbEntity
  8
5
 62
     3
100
AcDbText
 10
4.480710258645026
 20
-0.1337548967383871
 30
0.0
 40
0.0152209826018842
  1
-
 41
0.9
  7
ROMANS
 72
     4
 11
4.489190520380361
 21
-0.1272316184804367
 31
0.0
100
AcDbText
  0
TEXT
  5
E7
330
2
100
AcDbEntity
  8
5
 62
     3
100
AcDbText
 10
4.480710258645026
 20
-0.1672410584686393
 30
0.0
 40
0.0152209826018842
  1
-
 41
0.9
  7
ROMANS
 72
     4
 11
4.489190520380361
 21
-0.1607177802106889
 31
0.0
100
AcDbText
  0
TEXT
  5
E8
330
2
100
AcDbEntity
  8
5
 62
     3
100
AcDbText
 10
4.295708215055084
 20
0.0333020554512824
 30
0.0
 40
0.0152209826018842
  1
0.254
 41
0.9
  7
ROMANS
 72
     4
 11
4.325389131128758
 21
0.0409125467522245
 31
0.0
100
AcDbText
  0
TEXT
  5
E9
330
2
100
AcDbEntity
  8
5
 62
     7
100
AcDbText
 10
4.292852289330306
 20
0.0668662179794695
 30
0.0
 40
0.018265179122261
  1
NOM.
 41
0.9
  7
ROMANS
 72
     4
 11
4.323381231577513
 21
0.0759988075406
 31
0.0
100
AcDbText
  0
TEXT
  5
EA
330
2
100
AcDbEntity
  8
5
 62
     3
100
AcDbText
 10
4.316601648562405
 20
-0.0667825732887967
 30
0.0
 40
0.0152209826018842
  1
-
 41
0.9
  7
ROMANS
 72
     4
 11
4.32508191029774
 21
-0.0602592950308463
 31
0.0
100
AcDbText
  0
TEXT
  5
EB
330
2
100
AcDbEntity
  8
5
 62
     3
100
AcDbText
 10
4.316601648562405
 20
-0.1002687350154109
 30
0.0
 40
0.0152209826018842
  1
-
 41
0.9
  7
ROMANS
 72
     4
 11
4.32508191029774
 21
-0.0937454567574605
 31
0.0
100
AcDbText
  0
TEXT
  5
EC
330
2
100
AcDbEntity
  8
5
 62
     3
100
AcDbText
 10
4.316601648562405
 20
-0.1337548967383871
 30
0.0
 40
0.0152209826018842
  1
-
 41
0.9
  7
ROMANS
 72
     4
 11
4.32508191029774
 21
-0.1272316184804367
 31
0.0
100
AcDbText
  0
TEXT
  5
ED
330
2
100
AcDbEntity
  8
5
 62
     3
100
AcDbText
 10
4.316601648562405
 20
-0.1672410584686393
 30
0.0
 40
0.0152209826018842
  1
-
 41
0.9
  7
ROMANS
 72
     4
 11
4.32508191029774
 21
-0.1607177802106889
 31
0.0
100
AcDbText
  0
LINE
  5
EE
330
2
100
AcDbEntity
  8
5
 62
     3
100
AcDbLine
 10
3.289347972327959
 20
-0.2104422306983906
 30
0.0
 11
4.566654626039962
 21
-0.2104422306983906
 31
0.0
  0
LINE
  5
EF
330
2
100
AcDbEntity
  8
5
 62
     3
100
AcDbLine
 10
3.289347972327959
 20
-0.7797066772909603
 30
0.0
 11
4.566654626039962
 21
-0.7797066772909603
 31
0.0
  0
TEXT
  5
F0
330
2
100
AcDbEntity
  8
5
 62
     3
100
AcDbText
 10
3.302182475705495
 20
-1.306296345809163
 30
0.0
 40
0.0152209826018842
  1
35
 41
0.9
  7
ROMANS
 72
     4
 11
3.315229032221395
 21
-1.298685854508221
 31
0.0
100
AcDbText
  0
TEXT
  5
F1
330
2
100
AcDbEntity
  8
5
 62
     3
100
AcDbText
 10
4.457165014177683
 20
-0.0336702679983081
 30
0.0
 40
0.0152209826018842
  1
0.432
 41
0.9
  7
ROMANS
 72
     4
 11
4.48651976633846
 21
-0.026059776697366
 31
0.0
100
AcDbText
  0
TEXT
  5
F2
330
2
100
AcDbEntity
  8
5
 62
     3
100
AcDbText
 10
4.444118457661783
 20
-0.301559561800308
 30
0.0
 40
0.0152209826018842
  1
213.462
 41
0.9
  7
ROMANS
 72
     4
 11
4.48651976633846
 21
-0.2939490704993659
 31
0.0
100
AcDbText
  0
TEXT
  5
F3
330
2
100
AcDbEntity
  8
5
 62
     3
100
AcDbText
 10
4.452598719397118
 20
-0.3350457235196463
 30
0.0
 40
0.0152209826018842
  1
58.471
 41
0.9
  7
ROMANS
 72
     4
 11
4.48651976633846
 21
-0.3274352322187042
 31
0.0
100
AcDbText
  0
TEXT
  5
F4
330
2
100
AcDbEntity
  8
5
 62
     3
100
AcDbText
 10
4.44966324418104
 20
-0.3685318852426225
 30
0.0
 40
0.0152209826018842
  1
17.805
 41
0.9
  7
ROMANS
 72
     4
 11
4.48651976633846
 21
-0.3609213939416804
 31
0.0
100
AcDbText
  0
TEXT
  5
F5
330
2
100
AcDbEntity
  8
5
 62
     3
100
AcDbText
 10
4.445096949400475
 20
-0.4020180469692368
 30
0.0
 40
0.0152209826018842
  1
195.631
 41
0.9
  7
ROMANS
 72
     4
 11
4.48651976633846
 21
-0.3944075556682946
 31
0.0
100
AcDbText
  0
TEXT
  5
F6
330
2
100
AcDbEntity
  8
5
 62
     3
100
AcDbText
 10
4.121204859416584
 20
-0.4020180469692368
 30
0.0
 40
0.0152209826018842
  1
195.529
 41
0.9
  7
ROMANS
 72
     4
 11
4.164258495919057
 21
-0.3944075556682946
 31
0.0
100
AcDbText
  0
TEXT
  5
F7
330
2
100
AcDbEntity
  8
5
 62
     3
100
AcDbText
 10
4.127401973761637
 20
-0.3685318852426225
 30
0.0
 40
0.0152209826018842
  1
17.755
 41
0.9
  7
ROMANS
 72
     4
 11
4.164258495919057
 21
-0.3609213939416804
 31
0.0
100
AcDbText
  0
TEXT
  5
F8
330
2
100
AcDbEntity
  8
5
 62
     3
100
AcDbText
 10
4.128706629413227
 20
-0.3350457235196463
 30
0.0
 40
0.0152209826018842
  1
58.369
 41
0.9
  7
ROMANS
 72
     4
 11
4.164258495919057
 21
-0.3274352322187042
 31
0.0
100
AcDbText
  0
TEXT
  5
F9
330
2
100
AcDbEntity
  8
5
 62
     3
100
AcDbText
 10
4.12185718724238
 20
-0.301559561800308
 30
0.0
 40
0.0152209826018842
  1
213.258
 41
0.9
  7
ROMANS
 72
     4
 11
4.164258495919057
 21
-0.2939490704993659
 31
0.0
100
AcDbText
  0
TEXT
  5
FA
330
2
100
AcDbEntity
  8
5
 62
     3
100
AcDbText
 10
4.282987822452081
 20
-0.301559561800308
 30
0.0
 40
0.0152209826018842
  1
213.360
 41
0.9
  7
ROMANS
 72
     4
 11
4.325389131128758
 21
-0.2939490704993659
 31
0.0
100
AcDbText
  0
TEXT
  5
FB
330
2
100
AcDbEntity
  8
5
 62
     3
100
AcDbText
 10
4.289511100710031
 20
-0.3350457235196463
 30
0.0
 40
0.0152209826018842
  1
58.420
 41
0.9
  7
ROMANS
 72
     4
 11
4.325389131128758
 21
-0.3274352322187042
 31
0.0
100
AcDbText
  0
TEXT
  5
FC
330
2
100
AcDbEntity
  8
5
 62
     3
100
AcDbText
 10
4.288532608971339
 20
-0.3685318852426225
 30
0.0
 40
0.0152209826018842
  1
17.780
 41
0.9
  7
ROMANS
 72
     4
 11
4.325389131128758
 21
-0.3609213939416804
 31
0.0
100
AcDbText
  0
TEXT
  5
FD
330
2
100
AcDbEntity
  8
5
 62
     3
100
AcDbText
 10
4.282009330713388
 20
-0.4020180469692368
 30
0.0
 40
0.0152209826018842
  1
195.580
 41
0.9
  7
ROMANS
 72
     4
 11
4.325389131128758
 21
-0.3944075556682946
 31
0.0
100
AcDbText
  0
TEXT
  5
FE
330
2
100
AcDbEntity
  8
5
 62
     3
100
AcDbText
 10
4.13490374375828
 20
-0.1676149148974891
 30
0.0
 40
0.0152209826018842
  1
0.102
 41
0.9
  7
ROMANS
 72
     4
 11
4.164258495919057
 21
-0.160004423596547
 31
0.0
100
AcDbText
  0
TEXT
  5
FF
330
2
100
AcDbEntity
  8
5
 62
     3
100
AcDbText
 10
4.13490374375828
 20
-0.1341287531817888
 30
0.0
 40
0.0152209826018842
  1
0.112
 41
0.9
  7
ROMANS
 72
     4
 11
4.164258495919057
 21
-0.1265182618808467
 31
0.0
100
AcDbText
  0
TEXT
  5
100
330
2
100
AcDbEntity
  8
5
 62
     3
100
AcDbText
 10
4.13490374375828
 20
-0.1006425914478986
 30
0.0
 40
0.0152209826018842
  1
0.112
 41
0.9
  7
ROMANS
 72
     4
 11
4.164258495919057
 21
-0.0930321001469565
 31
0.0
100
AcDbText
  0
TEXT
  5
101
330
2
100
AcDbEntity
  8
5
 62
     3
100
AcDbText
 10
4.13490374375828
 20
-0.0671564297321983
 30
0.0
 40
0.0152209826018842
  1
0.203
 41
0.9
  7
ROMANS
 72
     4
 11
4.164258495919057
 21
-0.0595459384312562
 31
0.0
100
AcDbText
  0
TEXT
  5
102
330
2
100
AcDbEntity
  8
5
 62
     3
100
AcDbText
 10
4.136860727235665
 20
-0.0336702679983081
 30
0.0
 40
0.0152209826018842
  1
0.381
 41
0.9
  7
ROMANS
 72
     4
 11
4.164258495919057
 21
-0.026059776697366
 31
0.0
100
AcDbText
  0
TEXT
  5
103
330
2
100
AcDbEntity
  8
5
 62
     3
100
AcDbText
 10
4.296034378967982
 20
-0.0336702679983081
 30
0.0
 40
0.0152209826018842
  1
0.406
 41
0.9
  7
ROMANS
 72
     4
 11
4.325389131128758
 21
-0.026059776697366
 31
0.0
100
AcDbText
  0
TEXT
  5
104
330
2
100
AcDbEntity
  8
5
 62
     3
100
AcDbText
 10
4.13490374375828
 20
-0.2011010766168273
 30
0.0
 40
0.0152209826018842
  1
0.076
 41
0.9
  7
ROMANS
 72
     4
 11
4.164258495919057
 21
-0.1934905853158852
 31
0.0
100
AcDbText
  0
TEXT
  5
105
330
2
100
AcDbEntity
  8
5
 62
     3
100
AcDbText
 10
4.296034378967982
 20
-0.2011010766168273
 30
0.0
 40
0.0152209826018842
  1
0.127
 41
0.9
  7
ROMANS
 72
     4
 11
4.325389131128758
 21
-0.1934905853158852
 31
0.0
100
AcDbText
  0
TEXT
  5
106
330
2
100
AcDbEntity
  8
5
 62
     3
100
AcDbText
 10
4.457165014177683
 20
-0.2011010766168273
 30
0.0
 40
0.0152209826018842
  1
0.178
 41
0.9
  7
ROMANS
 72
     4
 11
4.48651976633846
 21
-0.1934905853158852
 31
0.0
100
AcDbText
  0
TEXT
  5
107
330
2
100
AcDbEntity
  8
5
 62
     3
100
AcDbText
 10
3.84916149414322
 20
-0.7370318386697126
 30
0.0
 40
0.0152209826018842
  1
3     5. THICKNESS: MIN 150 MICROINCHES
 41
0.9
  7
ROMANS
 72
     4
 11
4.090522789687383
 21
-0.7294213473687706
 31
0.0
100
AcDbText
  0
TEXT
  5
108
330
2
100
AcDbEntity
  8
5
 62
     3
100
AcDbText
 10
4.316601648562405
 20
-0.5355887768890488
 30
0.0
 40
0.0152209826018842
  1
-
 41
0.9
  7
ROMANS
 72
     4
 11
4.32508191029774
 21
-0.5290654986310983
 31
0.0
100
AcDbText
  0
TEXT
  5
109
330
2
100
AcDbEntity
  8
5
 62
     3
100
AcDbText
 10
4.316601648562405
 20
-0.5690748780687817
 30
0.0
 40
0.0152209826018842
  1
-
 41
0.9
  7
ROMANS
 72
     4
 11
4.32508191029774
 21
-0.5625515998108313
 31
0.0
100
AcDbText
  0
TEXT
  5
10A
330
2
100
AcDbEntity
  8
5
 62
     3
100
AcDbText
 10
4.316601648562405
 20
-0.6025609792485147
 30
0.0
 40
0.0152209826018842
  1
-
 41
0.9
  7
ROMANS
 72
     4
 11
4.32508191029774
 21
-0.5960377009905642
 31
0.0
100
AcDbText
  0
TEXT
  5
10B
330
2
100
AcDbEntity
  8
5
 62
     3
100
AcDbText
 10
4.316601648562405
 20
-0.6695332421548618
 30
0.0
 40
0.0152209826018842
  1
-
 41
0.9
  7
ROMANS
 72
     4
 11
4.32508191029774
 21
-0.6630099638969114
 31
0.0
100
AcDbText
  0
TEXT
  5
10C
330
2
100
AcDbEntity
  8
5
 62
     3
100
AcDbText
 10
4.286555202500827
 20
-0.9377963318388299
 30
0.0
 40
0.0152209826018842
  1
%%p0.102
 41
0.9
  7
ROMANS
 72
     4
 11
4.324716380309837
 21
-0.9301858405378879
 31
0.0
100
AcDbText
  0
TEXT
  5
10D
330
2
100
AcDbEntity
  8
4
 62
     3
100
AcDbText
 10
4.461144356159587
 20
-1.004768655281144
 30
0.0
 40
0.0152209826018842
  1
0.038
 41
0.9
  7
ROMANS
 72
     4
 11
4.490499108320364
 21
-0.9971581639802025
 31
0.0
100
AcDbText
  0
TEXT
  5
10E
330
2
100
AcDbEntity
  8
5
 62
     3
100
AcDbText
 10
4.461144356159587
 20
-0.8373378466589873
 30
0.0
 40
0.0152209826018842
  1
0.152
 41
0.9
  7
ROMANS
 72
     4
 11
4.490499108320364
 21
-0.8297273553580453
 31
0.0
100
AcDbText
  0
TEXT
  5
10F
330
2
100
AcDbEntity
  8
5
 62
     3
100
AcDbText
 10
4.461144356159587
 20
-1.172199463910577
 30
0.0
 40
0.0152209826018842
  1
0.508
 41
0.9
  7
ROMANS
 72
     4
 11
4.490499108320364
 21
-1.164588972609635
 31
0.0
100
AcDbText
  0
TEXT
  5
110
330
2
100
AcDbEntity
  8
5
 62
     3
100
AcDbText
 10
4.408140680580632
 20
-1.037167603964767
 30
0.0
 40
0.0152209826018842
  1
 0.051/2.540
 41
0.9
  7
ROMANS
 72
     4
 11
4.487724675327626
 21
-1.030644325706816
 31
0.0
100
AcDbText
  0
TEXT
  5
111
330
2
100
AcDbEntity
  8
5
 62
     3
100
AcDbText
 10
4.421163430844961
 20
-0.9701952805151766
 30
0.0
 40
0.0152209826018842
  1
0.010/2.540
 41
0.9
  7
ROMANS
 72
     4
 11
4.48704854125026
 21
-0.9636720022572262
 31
0.0
100
AcDbText
  0
TEXT
  5
112
330
2
100
AcDbEntity
  8
5
 62
     3
100
AcDbText
 10
4.460818192246689
 20
-1.105227140457349
 30
0.0
 40
0.0152209826018842
  1
0.254
 41
0.9
  7
ROMANS
 72
     4
 11
4.490499108320364
 21
-1.097616649156407
 31
0.0
100
AcDbText
  0
TEXT
  5
113
330
2
100
AcDbEntity
  8
5
 62
     3
100
AcDbText
 10
3.35880985936471
 20
-0.8372951859805416
 30
0.0
 40
0.0152209826018842
  1
MAXIMUM RADIUS ON ALL CORNERS UNLESS OTHERWISE SPECIFIED
 41
0.9
  7
ROMANS
 72
     4
 11
3.713023868771415
 21
-0.8296846946795994
 31
0.0
100
AcDbText
  0
TEXT
  5
114
330
2
100
AcDbEntity
  8
5
 62
     3
100
AcDbText
 10
3.358663502692984
 20
-1.239281803208063
 30
0.0
 40
0.0152209826018842
  1
INTERNAL LEAD TIP DIMENSIONS GIVEN ARE GIVEN VALUES
 41
0.9
  7
ROMANS
 72
     4
 11
3.666888400381139
 21
-1.23167131190712
 31
0.0
100
AcDbText
  0
TEXT
  5
115
330
2
100
AcDbEntity
  8
5
 62
     3
100
AcDbText
 10
3.357559000313528
 20
-0.7363857074684546
 30
0.0
 40
0.0152209826018842
  1
PLATING TO BE SILVER, AREA REFER TO SHT    OF
 41
0.9
  7
ROMANS
 72
     4
 11
3.637407637579599
 21
-0.7302248335581681
 31
0.0
100
AcDbText
  0
TEXT
  5
116
330
2
100
AcDbEntity
  8
5
 62
     3
100
AcDbText
 10
3.35848566986965
 20
-1.272219297950525
 30
0.0
 40
0.0152209826018842
  1
DIMENSION QUADRANT IS TYPICAL FOR QUADRANTS, EXCEPT AS SHOWN
 41
0.9
  7
ROMANS
 72
     4
 11
3.735531153179181
 21
-1.266058424040238
 31
0.0
100
AcDbText
  0
TEXT
  5
117
330
2
100
AcDbEntity
  8
5
 62
     3
100
AcDbText
 10
3.358292123736855
 20
-1.206547623188836
 30
0.0
 40
0.0152209826018842
  1
PART TO BE FREE OF RUST, KINKS, BENDS, WRINKLES, OR SCRATCHES DEEPER THAN
 41
0.9
  7
ROMANS
 72
     4
 11
3.817530913096561
 21
-1.20038674927855
 31
0.0
100
AcDbText
  0
TEXT
  5
118
330
2
100
AcDbEntity
  8
5
 62
     3
100
AcDbText
 10
3.359006868250214
 20
-1.137583428458887
 30
0.0
 40
0.0152209826018842
  1
LEAD TWIST/LEAD TILT
 41
0.9
  7
ROMANS
 72
     4
 11
3.475773549067525
 21
-1.131060150200937
 31
0.0
100
AcDbText
  0
TEXT
  5
119
330
2
100
AcDbEntity
  8
5
 62
     3
100
AcDbText
 10
3.358798746827379
 20
-1.306627660140724
 30
0.0
 40
0.0152209826018842
  1
STRIP NUMBER TO BE ADDED ON STRIP
 41
0.9
  7
ROMANS
 72
     4
 11
3.570479126297868
 21
-1.299017168839782
 31
0.0
100
AcDbText
  0
TEXT
  5
11A
330
2
100
AcDbEntity
  8
5
 62
     3
100
AcDbText
 10
3.358342599126733
 20
-1.172156803221217
 30
0.0
 40
0.0152209826018842
  1
FRAME TWIST
 41
0.9
  7
ROMANS
 72
     4
 11
3.426184693009417
 21
-1.164546311920275
 31
0.0
100
AcDbText
  0
TEXT
  5
11B
330
2
100
AcDbEntity
  8
5
 62
     3
100
AcDbText
 10
3.358836578900534
 20
-0.9377536711494704
 30
0.0
 40
0.0152209826018842
  1
LEAD TIP PLANARITY FROM DAM BAR
 41
0.9
  7
ROMANS
 72
     4
 11
3.552251779248763
 21
-0.9301431798485282
 31
0.0
100
AcDbText
  0
TEXT
  5
11C
330
2
100
AcDbEntity
  8
4
 62
     3
100
AcDbText
 10
3.35932484173993
 20
-1.00472599459906
 30
0.0
 40
0.0152209826018842
  1
CAMBER
 41
0.9
  7
ROMANS
 72
     4
 11
3.399769166939222
 21
-0.9971155032981187
 31
0.0
100
AcDbText
  0
TEXT
  5
11D
330
2
100
AcDbEntity
  8
5
 62
     3
100
AcDbText
 10
3.358817647260698
 20
-1.038212156318399
 30
0.0
 40
0.0152209826018842
  1
PAD TILT
 41
0.9
  7
ROMANS
 72
     4
 11
3.404806758979248
 21
-1.030601665017456
 31
0.0
100
AcDbText
  0
TEXT
  5
11E
330
2
100
AcDbEntity
  8
5
 62
     3
100
AcDbText
 10
3.359314170499778
 20
-1.105184479767989
 30
0.0
 40
0.0152209826018842
  1
CROSS BOW
 41
0.9
  7
ROMANS
 72
     4
 11
3.422263805688999
 21
-1.097573988467047
 31
0.0
100
AcDbText
  0
TEXT
  5
11F
330
2
100
AcDbEntity
  8
5
 62
     3
100
AcDbText
 10
3.360312928707934
 20
-0.8700753673497038
 30
0.0
 40
0.0152209826018842
  1
VERTICAL BURR
 41
0.9
  7
ROMANS
 72
     4
 11
3.439244595629133
 21
-0.8624648760487616
 31
0.0
100
AcDbText
  0
TEXT
  5
120
330
2
100
AcDbEntity
  8
5
 62
     3
100
AcDbText
 10
3.358728096482479
 20
-0.9042675094301321
 30
0.0
 40
0.0152209826018842
  1
HORIZONTAL BURR
 41
0.9
  7
ROMANS
 72
     4
 11
3.454946450787247
 21
-0.8966570181291899
 31
0.0
100
AcDbText
  0
TEXT
  5
121
330
2
100
AcDbEntity
  8
5
 62
     3
100
AcDbText
 10
3.358485796347228
 20
-0.9702328059015362
 30
0.0
 40
0.0152209826018842
  1
PAD FLATNESS
 41
0.9
  7
ROMANS
 72
     4
 11
3.434155824139452
 21
-0.9626223146005941
 31
0.0
100
AcDbText
  0
TEXT
  5
122
330
2
100
AcDbEntity
  8
5
 62
     3
100
AcDbText
 10
3.358758701467747
 20
-1.072567535581105
 30
0.0
 40
0.0152209826018842
  1
PAD PLANARITY
 41
0.9
  7
ROMANS
 72
     4
 11
3.438016532301844
 21
-1.064957044280163
 31
0.0
100
AcDbText
  0
TEXT
  5
123
330
2
100
AcDbEntity
  8
5
 62
     3
100
AcDbText
 10
3.358859940205032
 20
-0.0671137690392006
 30
0.0
 40
0.0152209826018842
  1
LEAD TIP FLAT WIDTH
 41
0.9
  7
ROMANS
 72
     4
 11
3.470734162328881
 21
-0.0595032777382585
 31
0.0
100
AcDbText
  0
TEXT
  5
124
330
2
100
AcDbEntity
  8
5
 62
     3
100
AcDbText
 10
3.358153354211551
 20
-0.5354355673988129
 30
0.0
 40
0.0152209826018842
  1
PLATING AREA (PAD CENTER REF.) : XR
 41
0.9
  7
ROMANS
 72
     4
 11
3.570486061507835
 21
-0.5289122891408625
 31
0.0
100
AcDbText
  0
TEXT
  5
125
330
2
100
AcDbEntity
  8
5
 62
     3
100
AcDbText
 10
3.359627563770143
 20
-0.3350030628412004
 30
0.0
 40
0.0152209826018842
  1
STRIP WIDTH
 41
0.9
  7
ROMANS
 72
     4
 11
3.423881854610954
 21
-0.3273925715402584
 31
0.0
100
AcDbText
  0
TEXT
  5
126
330
2
100
AcDbEntity
  8
5
 62
     3
100
AcDbText
 10
3.358890397257584
 20
-0.3684892245605387
 30
0.0
 40
0.0152209826018842
  1
UNIT PITCH
 41
0.9
  7
ROMANS
 72
     4
 11
3.416621409840445
 21
-0.3608787332595966
 31
0.0
100
AcDbText
  0
TEXT
  5
127
330
2
100
AcDbEntity
  8
5
 62
     3
100
AcDbText
 10
3.359090453796312
 20
-0.5034323744170923
 30
0.0
 40
0.0152209826018842
  1
COIL SET
 41
0.9
  7
ROMANS
 72
     4
 11
3.40671038507935
 21
-0.4958218831161503
 31
0.0
100
AcDbText
  0
TEXT
  5
128
330
2
100
AcDbEntity
  8
5
 62
     3
100
AcDbText
 10
3.358775118563646
 20
-0.3015169011109482
 30
0.0
 40
0.0152209826018842
  1
STRIP LENGTH
 41
0.9
  7
ROMANS
 72
     4
 11
3.431509671139792
 21
-0.2939064098100061
 31
0.0
100
AcDbText
  0
TEXT
  5
129
330
2
100
AcDbEntity
  8
5
 62
     3
100
AcDbText
 10
3.359085520556636
 20
-0.4020995926170817
 30
0.0
 40
0.0152209826018842
  1
CUMULATIVE PITCH
 41
0.9
  7
ROMANS
 72
     4
 11
3.454651547035609
 21
-0.3944891013161396
 31
0.0
100
AcDbText
  0
TEXT
  5
12A
330
2
100
AcDbEntity
  8
5
 62
     3
100
AcDbText
 10
3.358766712455902
 20
-0.4700013366805015
 30
0.0
 40
0.0152209826018842
  1
MISALIGNMENT
 41
0.9
  7
ROMANS
 72
     4
 11
3.431175101119151
 21
-0.4623908453795594
 31
0.0
100
AcDbText
  0
TEXT
  5
12B
330
2
100
AcDbEntity
  8
5
 62
     3
100
AcDbText
 10
3.358520081606131
 20
-0.4345270115080301
 30
0.0
 40
0.0152209826018842
  1
LOCK/ANCHOR HOLE
 41
0.9
  7
ROMANS
 72
     4
 11
3.466806500688107
 21
-0.4280037332500797
 31
0.0
100
AcDbText
  0
TEXT
  5
12C
330
2
100
AcDbEntity
  8
5
 62
     3
100
AcDbText
 10
3.735740813906313
 20
-0.6850537491904778
 30
0.0
 40
0.0152209826018842
  1
: YL
 41
0.9
  7
ROMANS
 72
     4
 11
3.758246123896242
 21
-0.6774432578895358
 31
0.0
100
AcDbText
  0
TEXT
  5
12D
330
2
100
AcDbEntity
  8
5
 62
     3
100
AcDbText
 10
3.735088486080518
 20
-0.6169731320501104
 30
0.0
 40
0.0152209826018842
  1
: YH
 41
0.9
  7
ROMANS
 72
     4
 11
3.758246123896242
 21
-0.6093626407491684
 31
0.0
100
AcDbText
  0
TEXT
  5
12E
330
2
100
AcDbEntity
  8
5
 62
     3
100
AcDbText
 10
3.735088486080518
 20
-0.5697460857104251
 30
0.0
 40
0.0152209826018842
  1
: XL
 41
0.9
  7
ROMANS
 72
     4
 11
3.758246123896242
 21
-0.5621355944094831
 31
0.0
100
AcDbText
  0
TEXT
  5
12F
330
2
100
AcDbEntity
  8
5
 62
     3
100
AcDbText
 10
3.358084872078132
 20
-0.1675722542081293
 30
0.0
 40
0.0152209826018842
  1
MIN. LEAD SPACE AFTER PLATE
 41
0.9
  7
ROMANS
 72
     4
 11
3.523449975917174
 21
-0.1599617629071872
 31
0.0
100
AcDbText
  0
TEXT
  5
130
330
2
100
AcDbEntity
  8
5
 62
     3
100
AcDbText
 10
3.358082821800813
 20
-0.1005999307585388
 30
0.0
 40
0.0152209826018842
  1
M TO M CLEARANCE AFTER ETCH
 41
0.9
  7
ROMANS
 72
     4
 11
3.53323284302678
 21
-0.0929894394575968
 31
0.0
100
AcDbText
  0
TEXT
  5
131
330
2
100
AcDbEntity
  8
5
 62
     3
100
AcDbText
 10
3.358600819074595
 20
0.000564534760566
 30
0.0
 40
0.0152209826018842
  1
PILOT HOLE DIAMETER
 41
0.9
  7
ROMANS
 72
     4
 11
3.473736680327419
 21
0.0081750260615081
 31
0.0
100
AcDbText
  0
TEXT
  5
132
330
2
100
AcDbEntity
  8
5
 62
     3
100
AcDbText
 10
3.358250302952088
 20
0.0333447161297282
 30
0.0
 40
0.0152209826018842
  1
MATERIAL THICKNESS - 
 41
0.9
  7
ROMANS
 72
     4
 11
3.488389704198198
 21
0.0409552074306703
 31
0.0
100
AcDbText
  0
TEXT
  5
133
330
2
100
AcDbEntity
  8
5
 62
     3
100
AcDbText
 10
3.358320458936735
 20
-0.0336276073198623
 30
0.0
 40
0.0152209826018842
  1
EXTERNAL LEAD WIDTH
 41
0.9
  7
ROMANS
 72
     4
 11
3.475739467579842
 21
-0.0260171160189202
 31
0.0
100
AcDbText
  0
TEXT
  5
134
330
2
100
AcDbEntity
  8
5
 62
     3
100
AcDbText
 10
3.358716725574107
 20
-0.134086092488791
 30
0.0
 40
0.0152209826018842
  1
MIN. LEAD SPACE AFTER ETCH
 41
0.9
  7
ROMANS
 72
     4
 11
3.519189370719686
 21
-0.1264756011878489
 31
0.0
100
AcDbText
  0
TEXT
  5
135
330
2
100
AcDbEntity
  8
5
 62
     3
100
AcDbText
 10
3.359015268432078
 20
-0.2343265821580961
 30
0.0
 40
0.0152209826018842
  1
PAD SIZE (X)
 41
0.9
  7
ROMANS
 72
     4
 11
3.42979283753084
 21
-0.2278033039001457
 31
0.0
100
AcDbText
  0
TEXT
  5
136
330
2
100
AcDbEntity
  8
5
 62
     3
100
AcDbText
 10
3.358949687506334
 20
-0.2669435263486183
 30
0.0
 40
0.0152209826018842
  1
PAD SIZE (Y)
 41
0.9
  7
ROMANS
 72
     4
 11
3.4290749287793
 21
-0.2604202480906679
 31
0.0
100
AcDbText
  0
TEXT
  5
137
330
2
100
AcDbEntity
  8
5
 62
     3
100
AcDbText
 10
3.359020178896779
 20
-0.2019276334671976
 30
0.0
 40
0.0152209826018842
  1
HALF ETCH DEPTH
 41
0.9
  7
ROMANS
 72
     4
 11
3.454912369288649
 21
-0.1943171421662555
 31
0.0
100
AcDbText
  0
TEXT
  5
138
330
2
100
AcDbEntity
  8
5
 62
     3
100
AcDbText
 10
3.357570265717168
 20
-0.8048626512085993
 30
0.0
 40
0.0152209826018842
  1
DOWNSET DEPTH
 41
0.9
  7
ROMANS
 72
     4
 11
3.443677538722113
 21
-0.7972521599076572
 31
0.0
100
AcDbText
  0
TEXT
  5
139
330
2
100
AcDbEntity
  8
5
 62
     3
100
AcDbText
 10
4.139645003186836
 20
-0.804565041550153
 30
0.0
 40
0.0152209826018842
  1
0.216
 41
0.9
  7
ROMANS
 72
     4
 11
4.168999755347613
 21
-0.7969545502492111
 31
0.0
100
AcDbText
  0
TEXT
  5
13A
330
2
100
AcDbEntity
  8
5
 62
     3
100
AcDbText
 10
4.300449474498192
 20
-0.804565041550153
 30
0.0
 40
0.0152209826018842
  1
0.254
 41
0.9
  7
ROMANS
 72
     4
 11
4.330130390571866
 21
-0.7969545502492111
 31
0.0
100
AcDbText
  0
TEXT
  5
13B
330
2
100
AcDbEntity
  8
5
 62
     3
100
AcDbText
 10
4.461906273620791
 20
-0.804565041550153
 30
0.0
 40
0.0152209826018842
  1
0.292
 41
0.9
  7
ROMANS
 72
     4
 11
4.491261025781568
 21
-0.7969545502492111
 31
0.0
100
AcDbText
  0
TEXT
  5
13C
330
2
100
AcDbEntity
  8
5
 62
     3
100
AcDbText
 10
3.612447140454899
 20
0.0322646261425017
 30
0.0
 40
0.0152209826018842
  1
A194 FH
 41
0.9
  7
ROMANS
 72
     4
 11
3.656805432608962
 21
0.0398751174434438
 31
0.0
100
AcDbText
  0
TEXT
  5
13D
330
2
100
AcDbEntity
  8
5
 62
     3
100
AcDbText
 10
4.459121997655069
 20
-0.2345872383470795
 30
0.0
 40
0.0152209826018842
  1
5.691
 41
0.9
  7
ROMANS
 72
     4
 11
4.48651976633846
 21
-0.2269767470461375
 31
0.0
100
AcDbText
  0
TEXT
  5
13E
330
2
100
AcDbEntity
  8
5
 62
     3
100
AcDbText
 10
4.135229907671178
 20
-0.2345872383470795
 30
0.0
 40
0.0152209826018842
  1
5.589
 41
0.9
  7
ROMANS
 72
     4
 11
4.164258495919057
 21
-0.2269767470461375
 31
0.0
100
AcDbText
  0
TEXT
  5
13F
330
2
100
AcDbEntity
  8
5
 62
     3
100
AcDbText
 10
4.296034378967982
 20
-0.2345872383470795
 30
0.0
 40
0.0152209826018842
  1
5.640
 41
0.9
  7
ROMANS
 72
     4
 11
4.325389131128758
 21
-0.2269767470461375
 31
0.0
100
AcDbText
  0
TEXT
  5
140
330
2
100
AcDbEntity
  8
5
 62
     3
100
AcDbText
 10
3.343400094283126
 20
-0.768784656148439
 30
0.0
 40
0.0152209826018842
  1
 SEMI-BRIGHT: 0.3~1.0 gam
 41
0.9
  7
ROMANS
 72
     4
 11
3.504198903341602
 21
-0.7637109952811443
 31
0.0
100
AcDbText
  0
TEXT
  5
141
330
2
100
AcDbEntity
  8
4
 62
     3
100
AcDbText
 10
4.426917072902204
 20
-0.6056607270764606
 30
0.0
 40
0.0152209826018842
  1
0.790/2.830
 41
0.9
  7
ROMANS
 72
     4
 11
4.492802183307503
 21
-0.5991374488185102
 31
0.0
100
AcDbText
  0
TEXT
  5
142
330
2
100
AcDbEntity
  8
4
 62
     3
100
AcDbText
 10
4.098228681555029
 20
-0.5355887768890488
 30
0.0
 40
0.0152209826018842
  1
3.170/3.769
 41
0.9
  7
ROMANS
 72
     4
 11
4.16378762804743
 21
-0.5290654986310983
 31
0.0
100
AcDbText
  0
TEXT
  5
143
330
2
100
AcDbEntity
  8
4
 62
     3
100
AcDbText
 10
4.420413864540085
 20
-0.5355887163494434
 30
0.0
 40
0.0152209826018842
  1
2.830/3.970
 41
0.9
  7
ROMANS
 72
     4
 11
4.486298974945384
 21
-0.529065438091493
 31
0.0
100
AcDbText
  0
TEXT
  5
144
330
2
100
AcDbEntity
  8
4
 62
     3
100
AcDbText
 10
4.099019827385618
 20
-0.6056607270764606
 30
0.0
 40
0.0152209826018842
  1
0.991/3.099
 41
0.9
  7
ROMANS
 72
     4
 11
4.16457877387802
 21
-0.5991374488185102
 31
0.0
100
AcDbText
  0
TEXT
  5
145
330
2
100
AcDbEntity
  8
4
 62
     3
100
AcDbText
 10
4.135224021717243
 20
-0.6352744447708338
 30
0.0
 40
0.0152209826018842
  1
3.360
 41
0.9
  7
ROMANS
 72
     4
 11
4.16457877387802
 21
-0.6276639534698916
 31
0.0
100
AcDbText
  0
TEXT
  5
146
330
2
100
AcDbEntity
  8
4
 62
     3
100
AcDbText
 10
4.456944222784607
 20
-0.6352744447708338
 30
0.0
 40
0.0152209826018842
  1
3.630
 41
0.9
  7
ROMANS
 72
     4
 11
4.486298974945384
 21
-0.6276639534698916
 31
0.0
100
AcDbText
  0
TEXT
  5
147
330
2
100
AcDbEntity
  8
4
 62
     3
100
AcDbText
 10
4.42691707289129
 20
-0.6726329294395645
 30
0.0
 40
0.0152209826018842
  1
0.361/2.830
 41
0.9
  7
ROMANS
 72
     4
 11
4.492802183296589
 21
-0.6661096511816141
 31
0.0
100
AcDbText
  0
TEXT
  5
148
330
2
100
AcDbEntity
  8
4
 62
     3
100
AcDbText
 10
4.099019827385618
 20
-0.6726329294395645
 30
0.0
 40
0.0152209826018842
  1
0.559/3.099
 41
0.9
  7
ROMANS
 72
     4
 11
4.16457877387802
 21
-0.6661096511816141
 31
0.0
100
AcDbText
  0
TEXT
  5
149
330
2
100
AcDbEntity
  8
4
 62
     3
100
AcDbText
 10
4.135224021717243
 20
-0.7022466471302997
 30
0.0
 40
0.0152209826018842
  1
3.360
 41
0.9
  7
ROMANS
 72
     4
 11
4.16457877387802
 21
-0.6946361558293575
 31
0.0
100
AcDbText
  0
TEXT
  5
14A
330
2
100
AcDbEntity
  8
4
 62
     3
100
AcDbText
 10
4.456944222784607
 20
-0.7022466471302997
 30
0.0
 40
0.0152209826018842
  1
3.630
 41
0.9
  7
ROMANS
 72
     4
 11
4.486298974945384
 21
-0.6946361558293575
 31
0.0
100
AcDbText
  0
TEXT
  5
14B
330
2
100
AcDbEntity
  8
5
 62
     3
100
AcDbText
 10
4.296034378967982
 20
-0.2680734000664178
 30
0.0
 40
0.0152209826018842
  1
5.640
 41
0.9
  7
ROMANS
 72
     4
 11
4.325389131128758
 21
-0.2604629087654757
 31
0.0
100
AcDbText
  0
TEXT
  5
14C
330
2
100
AcDbEntity
  8
5
 62
     3
100
AcDbText
 10
4.160519493612278
 20
-0.4351303522560873
 30
0.0
 40
0.0152209826018842
  1
-
 41
0.9
  7
ROMANS
 72
     4
 11
4.168999755347613
 21
-0.428607073998137
 31
0.0
100
AcDbText
  0
TEXT
  5
14D
330
2
100
AcDbEntity
  8
5
 62
     3
100
AcDbText
 10
4.316601648562405
 20
-0.4351303522560873
 30
0.0
 40
0.0152209826018842
  1
-
 41
0.9
  7
ROMANS
 72
     4
 11
4.32508191029774
 21
-0.428607073998137
 31
0.0
100
AcDbText
  0
TEXT
  5
14E
330
2
100
AcDbEntity
  8
5
 62
     3
100
AcDbText
 10
4.480710258645026
 20
-0.4351303522560873
 30
0.0
 40
0.0152209826018842
  1
-
 41
0.9
  7
ROMANS
 72
     4
 11
4.489190520380361
 21
-0.428607073998137
 31
0.0
100
AcDbText
  0
TEXT
  5
14F
330
2
100
AcDbEntity
  8
5
 62
     3
100
AcDbText
 10
4.459121997655069
 20
-0.2680734000664178
 30
0.0
 40
0.0152209826018842
  1
5.691
 41
0.9
  7
ROMANS
 72
     4
 11
4.48651976633846
 21
-0.2604629087654757
 31
0.0
100
AcDbText
  0
TEXT
  5
150
330
2
100
AcDbEntity
  8
5
 62
     3
100
AcDbText
 10
4.135229907671178
 20
-0.2680734000664178
 30
0.0
 40
0.0152209826018842
  1
5.589
 41
0.9
  7
ROMANS
 72
     4
 11
4.164258495919057
 21
-0.2604629087654757
 31
0.0
100
AcDbText
  0
TEXT
  5
151
330
2
100
AcDbEntity
  8
4
 62
     3
100
AcDbText
 10
4.098228681555029
 20
-0.5690748780687817
 30
0.0
 40
0.0152209826018842
  1
3.170/3.769
 41
0.9
  7
ROMANS
 72
     4
 11
4.16378762804743
 21
-0.5625515998108313
 31
0.0
100
AcDbText
  0
TEXT
  5
152
330
2
100
AcDbEntity
  8
4
 62
     3
100
AcDbText
 10
4.420413864540085
 20
-0.5690748175255384
 30
0.0
 40
0.0152209826018842
  1
2.830/3.970
 41
0.9
  7
ROMANS
 72
     4
 11
4.486298974945384
 21
-0.562551539267588
 31
0.0
100
AcDbText
  0
ENDSEC
  0
SECTION
  2
OBJECTS
  0
DICTIONARY
  5
B
330
0
100
AcDbDictionary
281
     1
  3
ACAD_COLOR
350
37
  3
ACAD_GROUP
350
32
  3
ACAD_LAYOUT
350
11
  3
ACAD_MATERIAL
350
D
  3
ACAD_MLEADERSTYLE
350
3A
  3
ACAD_MLINESTYLE
350
33
  3
ACAD_PLOTSETTINGS
350
34
  3
ACAD_PLOTSTYLENAME
350
A
  3
ACAD_SCALELIST
350
38
  3
ACAD_TABLESTYLE
350
39
  3
ACAD_VISUALSTYLE
350
29
  3
ACDB_RECOMPOSE_DATA
350
156
  3
AcDbVariableDictionary
350
3B
  0
DICTIONARY
  5
2B
330
26
100
AcDbDictionary
280
     1
281
     1
  0
DICTIONARY
  5
19
330
18
100
AcDbDictionary
280
     1
281
     1
  3
ACAD_LAYERFILTERS
360
1A
  3
ACAD_LAYERSTATES
360
1B
  3
ACLYDICTIONARY
360
1C
  0
DICTIONARY
  5
7
330
6
100
AcDbDictionary
280
     1
281
     1
  3
ADSK_XREC_LAYER_RECONCILED
360
8
  0
DICTIONARY
  5
88
330
87
100
AcDbDictionary
280
     1
281
     1
  3
ADSK_XREC_LAYER_RECONCILED
360
89
  0
DICTIONARY
  5
4A
330
49
100
AcDbDictionary
280
     1
281
     1
  3
ADSK_XREC_LAYER_RECONCILED
360
4B
  0
DICTIONARY
  5
65
330
64
100
AcDbDictionary
280
     1
281
     1
  3
ADSK_XREC_LAYER_RECONCILED
360
66
  0
DICTIONARY
  5
3
330
2
100
AcDbDictionary
280
     1
281
     1
  3
ACAD_SORTENTS
360
153
  0
DICTIONARY
  5
37
102
{ACAD_REACTORS
330
B
102
}
330
B
100
AcDbDictionary
281
     1
  0
DICTIONARY
  5
32
102
{ACAD_REACTORS
330
B
102
}
330
B
100
AcDbDictionary
281
     1
  0
DICTIONARY
  5
11
102
{ACAD_REACTORS
330
B
102
}
330
B
100
AcDbDictionary
281
     1
  3
Layout1
350
16
  3
Model
350
10
  0
DICTIONARY
  5
D
102
{ACAD_REACTORS
330
B
102
}
330
B
100
AcDbDictionary
281
     1
  3
ByBlock
350
36
  3
ByLayer
350
35
  3
Global
350
C
  0
DICTIONARY
  5
3A
102
{ACAD_REACTORS
330
B
102
}
330
B
100
AcDbDictionary
281
     1
  0
DICTIONARY
  5
33
102
{ACAD_REACTORS
330
B
102
}
330
B
100
AcDbDictionary
281
     1
  3
Standard
350
4D
  0
DICTIONARY
  5
34
102
{ACAD_REACTORS
330
B
102
}
330
B
100
AcDbDictionary
281
     1
  0
ACDBDICTIONARYWDFLT
  5
A
102
{ACAD_REACTORS
330
B
102
}
330
B
100
AcDbDictionary
281
     1
  3
Normal
350
9
100
AcDbDictionaryWithDefault
340
9
  0
DICTIONARY
  5
38
102
{ACAD_REACTORS
330
B
102
}
330
B
100
AcDbDictionary
281
     1
  3
A0
350
52
  3
A1
350
53
  3
A2
350
54
  3
A3
350
55
  3
A4
350
56
  3
A5
350
57
  3
A6
350
58
  3
A7
350
59
  3
A8
350
5A
  3
A9
350
5B
  3
B0
350
5C
  3
B1
350
5D
  3
B2
350
5E
  3
B3
350
5F
  3
B4
350
60
  3
B5
350
61
  3
B6
350
62
  0
DICTIONARY
  5
39
102
{ACAD_REACTORS
330
B
102
}
330
B
100
AcDbDictionary
281
     1
  3
Standard
350
4E
  0
DICTIONARY
  5
29
102
{ACAD_REACTORS
330
B
102
}
330
B
100
AcDbDictionary
281
     1
  3
2dWireframe
350
28
  3
Realistic
350
50
  3
Wireframe
350
51
  0
XRECORD
  5
156
102
{ACAD_REACTORS
330
B
102
}
330
B
100
AcDbXrecord
280
     1
 90
        1
330
4E
  0
DICTIONARY
  5
3B
102
{ACAD_REACTORS
330
B
102
}
330
B
100
AcDbDictionary
281
     1
  3
CANNOSCALE
350
3C
  3
CMLEADERSTYLE
350
3D
  3
CTABLESTYLE
350
3E
  3
CVIEWDETAILSTYLE
350
3F
  3
CVIEWSECTIONSTYLE
350
40
  3
DIMASSOC
350
41
  3
INDEXCTL
350
42
  3
LAYEREVAL
350
43
  3
LAYERNOTIFY
350
44
  3
LIGHTINGUNITS
350
45
  3
MSLTSCALE
350
46
  3
PROJECTNAME
350
47
  3
SORTENTS
350
48
  0
DICTIONARY
  5
1A
102
{ACAD_REACTORS
330
19
102
}
330
19
100
AcDbDictionary
281
     1
  0
DICTIONARY
  5
1B
102
{ACAD_REACTORS
330
19
102
}
330
19
100
AcDbDictionary
281
     1
  0
DICTIONARY
  5
1C
102
{ACAD_REACTORS
330
19
102
}
330
19
100
AcDbDictionary
281
     1
1001
ACAD
1000
<All
  0
XRECORD
  5
8
102
{ACAD_REACTORS
330
7
102
}
330
7
100
AcDbXrecord
280
     1
290
     1
  0
XRECORD
  5
89
102
{ACAD_REACTORS
330
88
102
}
330
88
100
AcDbXrecord
280
     1
290
     1
  0
XRECORD
  5
4B
102
{ACAD_REACTORS
330
4A
102
}
330
4A
100
AcDbXrecord
280
     1
290
     1
  0
XRECORD
  5
66
102
{ACAD_REACTORS
330
65
102
}
330
65
100
AcDbXrecord
280
     1
290
     1
  0
SORTENTSTABLE
  5
153
102
{ACAD_REACTORS
330
3
102
}
330
3
100
AcDbSortentsTable
330
2
  0
LAYOUT
  5
16
102
{ACAD_XDICTIONARY
360
17
102
}
102
{ACAD_REACTORS
330
11
102
}
330
11
100
AcDbPlotSettings
  1

  2
\\atsnts34\TJ04
  4
Letter
  6

 40
4.233333110809326
 41
4.233341693878172
 42
4.233322143554686
 43
4.23333740234375
 44
215.8999938964844
 45
279.3999938964844
 46
0.0
 47
0.0
 48
0.0
 49
0.0
140
0.0
141
0.0
142
1.0
143
1.0
 70
   688
 72
     0
 73
     1
 74
     5
  7
monochrome.ctb
 75
     0
147
1.0
 76
     0
 77
     2
 78
   300
148
0.0
149
0.0
100
AcDbLayout
  1
Layout1
 70
     1
 71
     1
 10
-0.1666668268639272
 20
-0.166666657905879
 11
10.83333293284018
 21
8.333333101798231
 12
0.0
 22
0.0
 32
0.0
 14
1.06666659370182
 24
0.8166666875674033
 34
0.0
 15
9.599999343316387
 25
7.350000188106627
 35
0.0
146
0.0
 13
0.0
 23
0.0
 33
0.0
 16
1.0
 26
0.0
 36
0.0
 17
0.0
 27
1.0
 37
0.0
 76
     0
330
13
1001
ACAD_PSEXT
1000
\\atsnts34\TJ04
1000
HP LaserJet 5100 PCL 6
1000
2f_CAD Rm
1000
10.8.12.60
1070
     0
  0
LAYOUT
  5
10
102
{ACAD_REACTORS
330
11
102
}
330
11
100
AcDbPlotSettings
  1

  2
\\atsnts34\TJ17
  4
A4
  6

 40
5.323416233062744
 41
5.323403835296629
 42
5.323410034179686
 43
5.32342529296875
 44
209.9733276367186
 45
296.9259948730469
 46
0.8447180624137189
 47
0.0
 48
-29.97489016439562
 49
-41.05868959261795
140
-0.0950026227700463
141
2.22261124726113
142
1.0
143
0.151185646804855
 70
 11956
 72
     1
 73
     0
 74
     4
  7
monochrome.ctb
 75
     0
147
6.614384507616414
 76
     0
 77
     2
 78
   300
148
29.97489016439562
149
41.05868959261795
100
AcDbLayout
  1
Model
 70
     1
 71
     0
 10
0.0
 20
0.0
 11
12.0
 21
9.0
 12
0.0
 22
0.0
 32
0.0
 14
0.0
 24
0.0
 34
0.0
 15
0.0
 25
0.0
 35
0.0
146
0.0
 13
0.0
 23
0.0
 33
0.0
 16
1.0
 26
0.0
 36
0.0
 17
0.0
 27
1.0
 37
0.0
 76
     0
330
2
331
27
1001
ACAD_PSEXT
1000
\\atsnts34\TJ17
1000
Canon iR8500 PCL6
1000
2f_LF office printing rm
1000
10.8.12.200
1070
     0
  0
MATERIAL
  5
36
102
{ACAD_REACTORS
330
D
102
}
330
D
100
AcDbMaterial
  1
ByBlock
 73
     1
 78
     1
172
     1
176
     1
270
     1
274
     1
 94
       63
  0
MATERIAL
  5
35
102
{ACAD_REACTORS
330
D
102
}
330
D
100
AcDbMaterial
  1
ByLayer
 73
     1
 78
     1
172
     1
176
     1
270
     1
274
     1
 94
       63
  0
MATERIAL
  5
C
102
{ACAD_REACTORS
330
D
102
}
330
D
100
AcDbMaterial
  1
Global
 73
     1
 78
     1
172
     1
176
     1
270
     1
274
     1
 94
       63
  0
MLINESTYLE
  5
4D
102
{ACAD_REACTORS
330
33
102
}
330
33
100
AcDbMlineStyle
  2
STANDARD
 70
     0
  3

 62
   256
 51
90.0
 52
90.0
 71
     2
 49
0.5
 62
   256
  6
BYLAYER
 49
-0.5
 62
   256
  6
BYLAYER
  0
ACDBPLACEHOLDER
  5
9
102
{ACAD_REACTORS
330
A
102
}
330
A
  0
SCALE
  5
52
102
{ACAD_REACTORS
330
38
102
}
330
38
100
AcDbScale
 70
     0
300
1:1
140
1.0
141
1.0
290
     1
  0
SCALE
  5
53
102
{ACAD_REACTORS
330
38
102
}
330
38
100
AcDbScale
 70
     0
300
1/128" = 1'-0"
140
0.0078125
141
12.0
290
     0
  0
SCALE
  5
54
102
{ACAD_REACTORS
330
38
102
}
330
38
100
AcDbScale
 70
     0
300
1/64" = 1'-0"
140
0.015625
141
12.0
290
     0
  0
SCALE
  5
55
102
{ACAD_REACTORS
330
38
102
}
330
38
100
AcDbScale
 70
     0
300
1/32" = 1'-0"
140
0.03125
141
12.0
290
     0
  0
SCALE
  5
56
102
{ACAD_REACTORS
330
38
102
}
330
38
100
AcDbScale
 70
     0
300
1/16" = 1'-0"
140
0.0625
141
12.0
290
     0
  0
SCALE
  5
57
102
{ACAD_REACTORS
330
38
102
}
330
38
100
AcDbScale
 70
     0
300
3/32" = 1'-0"
140
0.09375
141
12.0
290
     0
  0
SCALE
  5
58
102
{ACAD_REACTORS
330
38
102
}
330
38
100
AcDbScale
 70
     0
300
1/8" = 1'-0"
140
0.125
141
12.0
290
     0
  0
SCALE
  5
59
102
{ACAD_REACTORS
330
38
102
}
330
38
100
AcDbScale
 70
     0
300
3/16" = 1'-0"
140
0.1875
141
12.0
290
     0
  0
SCALE
  5
5A
102
{ACAD_REACTORS
330
38
102
}
330
38
100
AcDbScale
 70
     0
300
1/4" = 1'-0"
140
0.25
141
12.0
290
     0
  0
SCALE
  5
5B
102
{ACAD_REACTORS
330
38
102
}
330
38
100
AcDbScale
 70
     0
300
3/8" = 1'-0"
140
0.375
141
12.0
290
     0
  0
SCALE
  5
5C
102
{ACAD_REACTORS
330
38
102
}
330
38
100
AcDbScale
 70
     0
300
1/2" = 1'-0"
140
0.5
141
12.0
290
     0
  0
SCALE
  5
5D
102
{ACAD_REACTORS
330
38
102
}
330
38
100
AcDbScale
 70
     0
300
3/4" = 1'-0"
140
0.75
141
12.0
290
     0
  0
SCALE
  5
5E
102
{ACAD_REACTORS
330
38
102
}
330
38
100
AcDbScale
 70
     0
300
1" = 1'-0"
140
1.0
141
12.0
290
     0
  0
SCALE
  5
5F
102
{ACAD_REACTORS
330
38
102
}
330
38
100
AcDbScale
 70
     0
300
1-1/2" = 1'-0"
140
1.5
141
12.0
290
     0
  0
SCALE
  5
60
102
{ACAD_REACTORS
330
38
102
}
330
38
100
AcDbScale
 70
     0
300
3" = 1'-0"
140
3.0
141
12.0
290
     0
  0
SCALE
  5
61
102
{ACAD_REACTORS
330
38
102
}
330
38
100
AcDbScale
 70
     0
300
6" = 1'-0"
140
6.0
141
12.0
290
     0
  0
SCALE
  5
62
102
{ACAD_REACTORS
330
38
102
}
330
38
100
AcDbScale
 70
     0
300
1'-0" = 1'-0"
140
12.0
141
12.0
290
     0
  0
TABLESTYLE
  5
4E
102
{ACAD_XDICTIONARY
360
4F
102
}
102
{ACAD_REACTORS
330
39
102
}
330
39
100
AcDbTableStyle
280
     0
  3
Standard
 70
     0
 71
     0
 40
0.06
 41
0.06
280
     0
281
     0
  7
Standard
140
0.18
170
     2
 62
     0
 63
     7
283
     0
 90
        4
 91
        0
  1

274
    -2
284
     1
 64
     0
275
    -2
285
     1
 65
     0
276
    -2
286
     1
 66
     0
277
    -2
287
     1
 67
     0
278
    -2
288
     1
 68
     0
279
    -2
289
     1
 69
     0
  7
Standard
140
0.25
170
     5
 62
     0
 63
     7
283
     0
 90
        4
 91
        0
  1

274
    -2
284
     1
 64
     0
275
    -2
285
     1
 65
     0
276
    -2
286
     1
 66
     0
277
    -2
287
     1
 67
     0
278
    -2
288
     1
 68
     0
279
    -2
289
     1
 69
     0
  7
Standard
140
0.18
170
     5
 62
     0
 63
     7
283
     0
 90
        4
 91
        0
  1

274
    -2
284
     1
 64
     0
275
    -2
285
     1
 65
     0
276
    -2
286
     1
 66
     0
277
    -2
287
     1
 67
     0
278
    -2
288
     1
 68
     0
279
    -2
289
     1
 69
     0
1001
ACAD
1000
AcRTDxfName
1000
TABLESTYLE
  0
VISUALSTYLE
  5
28
102
{ACAD_REACTORS
330
29
102
}
330
29
100
AcDbVisualStyle
  2
2dWireframe
 70
     4
177
     3
291
     0
 70
    58
 90
        0
176
     1
 90
        2
176
     1
 90
        0
176
     1
 90
        0
176
     1
 40
0.6
176
     1
 40
30.0
176
     1
 62
     7
176
     1
 90
        1
176
     1
 90
        4
176
     1
 62
     7
176
     1
 62
   257
176
     1
 90
        1
176
     1
 90
        1
176
     1
 40
1.0
176
     1
 90
        0
176
     1
 62
   257
176
     1
 40
1.0
176
     1
 90
        1
176
     1
 90
        6
176
     1
 90
        2
176
     1
 62
     7
176
     1
 90
        5
176
     1
 90
        0
176
     1
 90
        0
176
     1
290
     0
176
     1
 90
        1
176
     1
 40
0.0
176
     1
 90
        0
176
     1
290
     1
176
     1
290
     1
176
     1
290
     0
176
     1
290
     0
176
     1
290
     0
176
     1
290
     0
176
     1
290
     0
176
     1
290
     0
176
     1
290
     0
176
     1
 90
       50
176
     1
 40
0.0
176
     1
 40
1.0
176
     1
 90
        0
176
     1
 62
    18
176
     1
 90
       50
176
     1
 90
        3
176
     1
 62
     5
420
      255
176
     1
290
     0
176
     1
 90
       50
176
     1
 90
       50
176
     1
 90
       50
176
     1
290
     0
176
     1
 90
       50
176
     1
 62
   256
176
     0
 40
1.0
176
     0
 90
        2
176
     1
  1
strokes_ogs.tif
176
     1
290
     0
176
     1
 40
1.0
176
     1
 40
1.0
176
     1
1001
ACAD
1000
AcRTDxfName
1000
VISUALSTYLE
1000
AcRTDxfName
1000
VISUALSTYLE
1000
AcRTDxfName
1000
VISUALSTYLE
1000
AcRTDxfName
1000
VISUALSTYLE
1000
AcRTDxfName
1000
VISUALSTYLE
1000
AcRTDxfName
1000
VISUALSTYLE
1000
AcRTDxfName
1000
VISUALSTYLE
1000
AcRTDxfName
1000
VISUALSTYLE
1000
AcRTDxfName
1000
VISUALSTYLE
1000
AcRTDxfName
1000
VISUALSTYLE
  0
VISUALSTYLE
  5
50
102
{ACAD_REACTORS
330
29
102
}
330
29
100
AcDbVisualStyle
  2
Realistic
 70
     8
177
     3
291
     0
 70
    58
 90
        2
176
     1
 90
        2
176
     1
 90
        0
176
     1
 90
        0
176
     1
 40
0.6
176
     1
 40
30.0
176
     1
 62
     7
176
     1
 90
        1
176
     1
 90
        0
176
     1
 62
     7
176
     1
 62
   257
176
     1
 90
        1
176
     1
 90
        1
176
     1
 40
1.0
176
     1
 90
        8
176
     1
 62
     8
176
     1
 40
1.0
176
     1
 90
        1
176
     1
 90
        6
176
     1
 90
        2
176
     1
 62
     7
176
     1
 90
        5
176
     1
 90
        0
176
     1
 90
        0
176
     1
290
     0
176
     1
 90
       13
176
     1
 40
0.0
176
     1
 90
        0
176
     1
290
     0
176
     1
290
     1
176
     1
290
     1
176
     1
290
     0
176
     1
290
     0
176
     1
290
     0
176
     1
290
     0
176
     1
290
     0
176
     1
290
     0
176
     1
 90
       50
176
     1
 40
0.0
176
     1
 40
1.0
176
     1
 90
        0
176
     1
 62
    18
176
     1
 90
       50
176
     1
 90
        3
176
     1
 62
     5
420
      255
176
     1
290
     0
176
     1
 90
       50
176
     1
 90
       50
176
     1
 90
       50
176
     1
290
     0
176
     1
 90
       50
176
     1
 62
   256
176
     0
 40
1.0
176
     0
 90
        2
176
     1
  1
strokes_ogs.tif
176
     1
290
     0
176
     1
 40
1.0
176
     1
 40
1.0
176
     1
1001
ACAD
1000
AcRTDxfName
1000
VISUALSTYLE
1000
AcRTDxfName
1000
VISUALSTYLE
1000
AcRTDxfName
1000
VISUALSTYLE
1000
AcRTDxfName
1000
VISUALSTYLE
1000
AcRTDxfName
1000
VISUALSTYLE
1000
AcRTDxfName
1000
VISUALSTYLE
1000
AcRTDxfName
1000
VISUALSTYLE
1000
AcRTDxfName
1000
VISUALSTYLE
1000
AcRTDxfName
1000
VISUALSTYLE
1000
AcRTDxfName
1000
VISUALSTYLE
  0
VISUALSTYLE
  5
51
102
{ACAD_REACTORS
330
29
102
}
330
29
100
AcDbVisualStyle
  2
Wireframe
 70
     5
177
     3
291
     0
 70
    58
 90
        0
176
     1
 90
        2
176
     1
 90
        0
176
     1
 90
        0
176
     1
 40
0.6
176
     1
 40
30.0
176
     1
 62
     7
420
 16777215
176
     1
 90
        1
176
     1
 90
        4
176
     1
 62
     7
176
     1
 62
   257
176
     1
 90
        1
176
     1
 90
        1
176
     1
 40
1.0
176
     1
 90
        0
176
     1
 62
   257
176
     1
 40
1.0
176
     1
 90
        1
176
     1
 90
        6
176
     1
 90
        2
176
     1
 62
     7
176
     1
 90
        3
176
     1
 90
        0
176
     1
 90
        0
176
     1
290
     0
176
     1
 90
        1
176
     1
 40
0.0
176
     1
 90
        0
176
     1
290
     0
176
     1
290
     1
176
     1
290
     1
176
     1
290
     0
176
     1
290
     0
176
     1
290
     0
176
     1
290
     0
176
     1
290
     0
176
     1
290
     0
176
     1
 90
       50
176
     1
 40
0.0
176
     1
 40
1.0
176
     1
 90
        0
176
     1
 62
    18
176
     1
 90
       50
176
     1
 90
        3
176
     1
 62
     5
420
      255
176
     1
290
     0
176
     1
 90
       50
176
     1
 90
       50
176
     1
 90
       50
176
     1
290
     0
176
     1
 90
       50
176
     1
 62
   256
176
     0
 40
1.0
176
     0
 90
        2
176
     1
  1
strokes_ogs.tif
176
     1
290
     0
176
     1
 40
1.0
176
     1
 40
1.0
176
     1
  0
DICTIONARYVAR
  5
3C
102
{ACAD_REACTORS
330
3B
102
}
330
3B
100
DictionaryVariables
280
     0
  1
1:1
  0
DICTIONARYVAR
  5
3D
102
{ACAD_REACTORS
330
3B
102
}
330
3B
100
DictionaryVariables
280
     0
  1
STANDARD
  0
DICTIONARYVAR
  5
3E
102
{ACAD_REACTORS
330
3B
102
}
330
3B
100
DictionaryVariables
280
     0
  1
STANDARD
  0
DICTIONARYVAR
  5
3F
102
{ACAD_REACTORS
330
3B
102
}
330
3B
100
DictionaryVariables
280
     0
  1

  0
DICTIONARYVAR
  5
40
102
{ACAD_REACTORS
330
3B
102
}
330
3B
100
DictionaryVariables
280
     0
  1

  0
DICTIONARYVAR
  5
41
102
{ACAD_REACTORS
330
3B
102
}
330
3B
100
DictionaryVariables
280
     0
  1
0
  0
DICTIONARYVAR
  5
42
102
{ACAD_REACTORS
330
3B
102
}
330
3B
100
DictionaryVariables
280
     0
  1
0
  0
DICTIONARYVAR
  5
43
102
{ACAD_REACTORS
330
3B
102
}
330
3B
100
DictionaryVariables
280
     0
  1
1
  0
DICTIONARYVAR
  5
44
102
{ACAD_REACTORS
330
3B
102
}
330
3B
100
DictionaryVariables
280
     0
  1
15
  0
DICTIONARYVAR
  5
45
102
{ACAD_REACTORS
330
3B
102
}
330
3B
100
DictionaryVariables
280
     0
  1
0
  0
DICTIONARYVAR
  5
46
102
{ACAD_REACTORS
330
3B
102
}
330
3B
100
DictionaryVariables
280
     0
  1
0
  0
DICTIONARYVAR
  5
47
102
{ACAD_REACTORS
330
3B
102
}
330
3B
100
DictionaryVariables
280
     0
  1

  0
DICTIONARYVAR
  5
48
102
{ACAD_REACTORS
330
3B
102
}
330
3B
100
DictionaryVariables
280
     0
  1
127
  0
DICTIONARY
  5
17
330
16
100
AcDbDictionary
280
     1
281
     1
  0
DICTIONARY
  5
4F
330
4E
100
AcDbDictionary
280
     1
281
     1
  3
ACAD_ROUNDTRIP_2008_TABLESTYLE_CELLSTYLEMAP
360
155
  0
CELLSTYLEMAP
  5
155
102
{ACAD_REACTORS
330
4F
102
}
330
4F
100
AcDbCellStyleMap
 90
        3
300
CELLSTYLE
  1
TABLEFORMAT_BEGIN
 90
        5
170
     1
 91
        0
 92
    32768
 62
   257
 93
        1
300
CONTENTFORMAT
  1
CONTENTFORMAT_BEGIN
 90
        0
 91
        0
 92
        4
 93
        0
300

 40
0.0
140
1.0
 94
        5
 62
     0
340
1F
144
0.25
309
CONTENTFORMAT_END
171
     1
301
MARGIN
  1
CELLMARGIN_BEGIN
 40
0.06
 40
0.06
 40
0.06
 40
0.06
 40
0.18
 40
0.18
309
CELLMARGIN_END
 94
        6
 95
        1
302
GRIDFORMAT
  1
GRIDFORMAT_BEGIN
 90
        0
 91
        1
 62
     0
 92
       -2
340
0
 93
        0
 40
0.045
309
GRIDFORMAT_END
 95
        2
302
GRIDFORMAT
  1
GRIDFORMAT_BEGIN
 90
        0
 91
        1
 62
     0
 92
       -2
340
0
 93
        0
 40
0.045
309
GRIDFORMAT_END
 95
        4
302
GRIDFORMAT
  1
GRIDFORMAT_BEGIN
 90
        0
 91
        1
 62
     0
 92
       -2
340
0
 93
        0
 40
0.045
309
GRIDFORMAT_END
 95
        8
302
GRIDFORMAT
  1
GRIDFORMAT_BEGIN
 90
        0
 91
        1
 62
     0
 92
       -2
340
0
 93
        0
 40
0.045
309
GRIDFORMAT_END
 95
       16
302
GRIDFORMAT
  1
GRIDFORMAT_BEGIN
 90
        0
 91
        1
 62
     0
 92
       -2
340
0
 93
        0
 40
0.045
309
GRIDFORMAT_END
 95
       32
302
GRIDFORMAT
  1
GRIDFORMAT_BEGIN
 90
        0
 91
        1
 62
     0
 92
       -2
340
0
 93
        0
 40
0.045
309
GRIDFORMAT_END
309
TABLEFORMAT_END
  1
CELLSTYLE_BEGIN
 90
        1
 91
        1
300
_TITLE
309
CELLSTYLE_END
300
CELLSTYLE
  1
TABLEFORMAT_BEGIN
 90
        5
170
     1
 91
        0
 92
        0
 62
   257
 93
        1
300
CONTENTFORMAT
  1
CONTENTFORMAT_BEGIN
 90
        0
 91
        0
 92
        4
 93
        0
300

 40
0.0
140
1.0
 94
        5
 62
     0
340
1F
144
0.18
309
CONTENTFORMAT_END
171
     1
301
MARGIN
  1
CELLMARGIN_BEGIN
 40
0.06
 40
0.06
 40
0.06
 40
0.06
 40
0.18
 40
0.18
309
CELLMARGIN_END
 94
        6
 95
        1
302
GRIDFORMAT
  1
GRIDFORMAT_BEGIN
 90
        0
 91
        1
 62
     0
 92
       -2
340
0
 93
        0
 40
0.045
309
GRIDFORMAT_END
 95
        2
302
GRIDFORMAT
  1
GRIDFORMAT_BEGIN
 90
        0
 91
        1
 62
     0
 92
       -2
340
0
 93
        0
 40
0.045
309
GRIDFORMAT_END
 95
        4
302
GRIDFORMAT
  1
GRIDFORMAT_BEGIN
 90
        0
 91
        1
 62
     0
 92
       -2
340
0
 93
        0
 40
0.045
309
GRIDFORMAT_END
 95
        8
302
GRIDFORMAT
  1
GRIDFORMAT_BEGIN
 90
        0
 91
        1
 62
     0
 92
       -2
340
0
 93
        0
 40
0.045
309
GRIDFORMAT_END
 95
       16
302
GRIDFORMAT
  1
GRIDFORMAT_BEGIN
 90
        0
 91
        1
 62
     0
 92
       -2
340
0
 93
        0
 40
0.045
309
GRIDFORMAT_END
 95
       32
302
GRIDFORMAT
  1
GRIDFORMAT_BEGIN
 90
        0
 91
        1
 62
     0
 92
       -2
340
0
 93
        0
 40
0.045
309
GRIDFORMAT_END
309
TABLEFORMAT_END
  1
CELLSTYLE_BEGIN
 90
        2
 91
        1
300
_HEADER
309
CELLSTYLE_END
300
CELLSTYLE
  1
TABLEFORMAT_BEGIN
 90
        5
170
     1
 91
        0
 92
        0
 62
   257
 93
        1
300
CONTENTFORMAT
  1
CONTENTFORMAT_BEGIN
 90
        0
 91
        0
 92
        4
 93
        0
300

 40
0.0
140
1.0
 94
        2
 62
     0
340
1F
144
0.18
309
CONTENTFORMAT_END
171
     1
301
MARGIN
  1
CELLMARGIN_BEGIN
 40
0.06
 40
0.06
 40
0.06
 40
0.06
 40
0.18
 40
0.18
309
CELLMARGIN_END
 94
        6
 95
        1
302
GRIDFORMAT
  1
GRIDFORMAT_BEGIN
 90
        0
 91
        1
 62
     0
 92
       -2
340
0
 93
        0
 40
0.045
309
GRIDFORMAT_END
 95
        2
302
GRIDFORMAT
  1
GRIDFORMAT_BEGIN
 90
        0
 91
        1
 62
     0
 92
       -2
340
0
 93
        0
 40
0.045
309
GRIDFORMAT_END
 95
        4
302
GRIDFORMAT
  1
GRIDFORMAT_BEGIN
 90
        0
 91
        1
 62
     0
 92
       -2
340
0
 93
        0
 40
0.045
309
GRIDFORMAT_END
 95
        8
302
GRIDFORMAT
  1
GRIDFORMAT_BEGIN
 90
        0
 91
        1
 62
     0
 92
       -2
340
0
 93
        0
 40
0.045
309
GRIDFORMAT_END
 95
       16
302
GRIDFORMAT
  1
GRIDFORMAT_BEGIN
 90
        0
 91
        1
 62
     0
 92
       -2
340
0
 93
        0
 40
0.045
309
GRIDFORMAT_END
 95
       32
302
GRIDFORMAT
  1
GRIDFORMAT_BEGIN
 90
        0
 91
        1
 62
     0
 92
       -2
340
0
 93
        0
 40
0.045
309
GRIDFORMAT_END
309
TABLEFORMAT_END
  1
CELLSTYLE_BEGIN
 90
        3
 91
        2
300
_DATA
309
CELLSTYLE_END
  0
ENDSEC
  0
SECTION
  2
ACDSDATA
 70
     2
 71
     8
  0
ACDSSCHEMA
 90
        0
  1
AcDb_Thumbnail_Schema
  2
AcDbDs::ID
280
    10
 91
        8
  2
Thumbnail_Data
280
    15
 91
        0
101
ACDSRECORD
 95
        0
 90
        1
  2
AcDbDs::TreatedAsObjectData
280
     1
291
     1
101
ACDSRECORD
 95
        0
 90
        2
  2
AcDbDs::Legacy
280
     1
291
     1
101
ACDSRECORD
  1
AcDbDs::ID
 90
        3
  2
AcDs:Indexable
280
     1
291
     1
101
ACDSRECORD
  1
AcDbDs::ID
 90
        4
  2
AcDbDs::HandleAttribute
280
     7
282
     1
  0
ACDSSCHEMA
 90
        1
  1
AcDbDs::TreatedAsObjectDataSchema
  2
AcDbDs::TreatedAsObjectData
280
     1
 91
        0
  0
ACDSSCHEMA
 90
        2
  1
AcDbDs::LegacySchema
  2
AcDbDs::Legacy
280
     1
 91
        0
  0
ACDSSCHEMA
 90
        3
  1
AcDbDs::IndexedPropertySchema
  2
AcDs:Indexable
280
     1
 91
        0
  0
ACDSSCHEMA
 90
        4
  1
AcDbDs::HandleAttributeSchema
  2
AcDbDs::HandleAttribute
280
     7
 91
        1
284
     1
  0
ACDSRECORD
 90
        0
  2
AcDbDs::ID
280
    10
320
16
  2
Thumbnail_Data
280
    15
 94
     1472
310
89504E470D0A1A0A0000000D49484452000000B40000008B0803000000FF3F437800000300504C5445000000000000FFFFFF0000000000000000000000000000000000000000000000000000330000660000990000CC0000FF0033000033330033660033990033CC0033FF0066000066330066660066990066CC0066FF0099
310
000099330099660099990099CC0099FF00CC0000CC3300CC6600CC9900CCCC00CCFF00FF0000FF3300FF6600FF9900FFCC00FFFF3300003300333300663300993300CC3300FF3333003333333333663333993333CC3333FF3366003366333366663366993366CC3366FF3399003399333399663399993399CC3399FF33CC00
310
33CC3333CC6633CC9933CCCC33CCFF33FF0033FF3333FF6633FF9933FFCC33FFFF6600006600336600666600996600CC6600FF6633006633336633666633996633CC6633FF6666006666336666666666996666CC6666FF6699006699336699666699996699CC6699FF66CC0066CC3366CC6666CC9966CCCC66CCFF66FF0066
310
FF3366FF6666FF9966FFCC66FFFF9900009900339900669900999900CC9900FF9933009933339933669933999933CC9933FF9966009966339966669966999966CC9966FF9999009999339999669999999999CC9999FF99CC0099CC3399CC6699CC9999CCCC99CCFF99FF0099FF3399FF6699FF9999FFCC99FFFFCC0000CC00
310
33CC0066CC0099CC00CCCC00FFCC3300CC3333CC3366CC3399CC33CCCC33FFCC6600CC6633CC6666CC6699CC66CCCC66FFCC9900CC9933CC9966CC9999CC99CCCC99FFCCCC00CCCC33CCCC66CCCC99CCCCCCCCCCFFCCFF00CCFF33CCFF66CCFF99CCFFCCCCFFFFFF0000FF0033FF0066FF0099FF00CCFF00FFFF3300FF3333
310
FF3366FF3399FF33CCFF33FFFF6600FF6633FF6666FF6699FF66CCFF66FFFF9900FF9933FF9966FF9999FF99CCFF99FFFFCC00FFCC33FFCC66FFCC99FFCCCCFFCCFFFFFF00FFFF33FFFF66FFFF99FFFFCCFFFFFF0000000D0D0D1A1A1A2828283535354343435050505D5D5D6B6B6B787878868686939393A1A1A1AEAEAEBB
310
BBBBC9C9C9D6D6D6E4E4E4F1F1F1FFFFFF000000000000000000000000000000000000000000000000000000000000C11FEF660000027B4944415478DAEDDD4B6283201006E01E87CDDC7FC7495C7181AC665F1EA262481323C84CFD69D34612CD97E904076DD31F56D71E8F1FA7AD2946E7B0AFDDBBF6F686FE2B6C903E3F
310
025A539881061A68A06F88D6B647041AE8C36841B5F301B4A4C1A231BA4718FBA3C9113BA274A55CFAAC7B089A285CA8BCF279F719347F8B8E5BA85FF9B4FB289A4FA307A44703742D0FE8F3EE21E87CD7F2077EAC7B085A5F4E6B4C0F952F4495393D60E7D2263D789F077CA07B047A40C1741A3DA234051A68A025A16F35
310
B1051A68A0A5A0AD6F6AD15A0E8BC536F9B6AE43F942F901D292AFA78D6136816A4CFCE617AE46C787A56DA4137A69CBE4264E52C854DAE587C516F4769DD9CBAB9A9727D108CDA7D15C41C727B3A2F3A29184E630019CA7D639CEBCC63A8A5D4A6449684AAF3A5EF399D7B4F6F7B171DA6D44A7478E7331F79586CEF67D7A
310
ECB624161DD513C78F29B185A237EBD0363DE69C168F5E86BCF9A6ED912F3591DEA2C383593B77C52165C0B1BC9791F6A588CFE889E25058A2C37EC6DAC4B752D0C5389D2A11FEF3B89F9C71BAA899CE4E275AA3E965C1B4A9F364A1AB9B7F322B40CF2FBEA29ED615E9DE68D7064D95D61CED80665289AEB01968A015A35D
310
65F870D2D1BE48B6FC14ED6E686E88CE2D4F6164EFC66D6AD9AB0D7DB0CE1F5A30F1DEEC836D493AFACB19D548749F0634D040030DF4ADD12AF7887CA0F7B668A708ED80061A68A08106BA1B1AB507D040030D34D040030D34D0AF36CFFC743E8E89C4473AFC4583B6F388F134B3BF10CD5FC2673774934CBCE83473E3E9D6
310
6C5EF03ECC1DCED8BAD6BF3A71C5F169F7CFFE4A4EE33B5EC96E4003FD168D37AE041A68A081168ED6F89EEAD88D5F83D6F71F19F8F10B589A45A5A8C78D6D0000000049454E44AE426082
  0
ENDSEC
  0
EOF
