  0
SECTION
  2
HEADER
  9
$ACADVER
  1
AC1032
  9
$ACADMAINTVER
 90
      248
  9
$DWGCODEPAGE
  3
ANSI_936
  9
$REQUIREDVERSIONS
160
                 0
  9
$INSBASE
 10
0.0
 20
0.0
 30
0.0
  9
$EXTMIN
 10
2033.716402903962
 20
-822.8898716695653
 30
0.0
  9
$EXTMAX
 10
2176.948169714441
 20
-701.1579097702714
 30
0.0
  9
$LIMMIN
 10
0.0
 20
0.0
  9
$LIMMAX
 10
12.0
 20
9.0
  9
$ORTHOMODE
 70
     1
  9
$REGENMODE
 70
     1
  9
$FILLMODE
 70
     1
  9
$QTEXTMODE
 70
     0
  9
$MIRRTEXT
 70
     0
  9
$LTSCALE
 40
1.0
  9
$ATTMODE
 70
     1
  9
$TEXTSIZE
 40
0.45
  9
$TRACEWID
 40
0.05
  9
$TEXTSTYLE
  7
Standard
  9
$CLAYER
  8
3D
  9
$CELTYPE
  6
ByLayer
  9
$CECOLOR
 62
   256
  9
$CELTSCALE
 40
1.0
  9
$DISPSILH
 70
     0
  9
$DIMSCALE
 40
0.1
  9
$DIMASZ
 40
1.0
  9
$DIMEXO
 40
0.3
  9
$DIMDLI
 40
0.3
  9
$DIMRND
 40
0.0
  9
$DIMDLE
 40
0.0
  9
$DIMEXE
 40
0.3
  9
$DIMTP
 40
0.0
  9
$DIMTM
 40
1.25
  9
$DIMTXT
 40
1.0
  9
$DIMCEN
 40
0.5
  9
$DIMTSZ
 40
0.0
  9
$DIMTOL
 70
     0
  9
$DIMLIM
 70
     0
  9
$DIMTIH
 70
     1
  9
$DIMTOH
 70
     1
  9
$DIMSE1
 70
     0
  9
$DIMSE2
 70
     0
  9
$DIMTAD
 70
     0
  9
$DIMZIN
 70
     1
  9
$DIMBLK
  1

  9
$DIMASO
 70
     0
  9
$DIMSHO
 70
     1
  9
$DIMPOST
  1

  9
$DIMAPOST
  1

  9
$DIMALT
 70
     0
  9
$DIMALTD
 70
     2
  9
$DIMALTF
 40
25.4
  9
$DIMLFAC
 40
1.0
  9
$DIMTOFL
 70
     0
  9
$DIMTVP
 40
0.0
  9
$DIMTIX
 70
     0
  9
$DIMSOXD
 70
     0
  9
$DIMSAH
 70
     0
  9
$DIMBLK1
  1

  9
$DIMBLK2
  1

  9
$DIMSTYLE
  2
Standard
  9
$DIMCLRD
 70
   256
  9
$DIMCLRE
 70
   256
  9
$DIMCLRT
 70
   256
  9
$DIMTFAC
 40
1.0
  9
$DIMGAP
 40
0.3
  9
$DIMJUST
 70
     0
  9
$DIMSD1
 70
     0
  9
$DIMSD2
 70
     0
  9
$DIMTOLJ
 70
     1
  9
$DIMTZIN
 70
     0
  9
$DIMALTZ
 70
     0
  9
$DIMALTTZ
 70
     0
  9
$DIMUPT
 70
     0
  9
$DIMDEC
 70
     3
  9
$DIMTDEC
 70
     3
  9
$DIMALTU
 70
     2
  9
$DIMALTTD
 70
     2
  9
$DIMTXSTY
  7
SIMPLEX
  9
$DIMAUNIT
 70
     0
  9
$DIMADEC
 70
     0
  9
$DIMALTRND
 40
0.0
  9
$DIMAZIN
 70
     0
  9
$DIMDSEP
 70
    46
  9
$DIMATFIT
 70
     3
  9
$DIMFRAC
 70
     0
  9
$DIMLDRBLK
  1

  9
$DIMLUNIT
 70
     2
  9
$DIMLWD
 70
    -1
  9
$DIMLWE
 70
    -1
  9
$DIMTMOVE
 70
     0
  9
$DIMFXL
 40
0.0072
  9
$DIMFXLON
 70
     0
  9
$DIMJOGANG
 40
0.7853981633974483
  9
$DIMTFILL
 70
     0
  9
$DIMTFILLCLR
 70
     0
  9
$DIMARCSYM
 70
     0
  9
$DIMLTYPE
  6
ByLayer
  9
$DIMLTEX1
  6
ByLayer
  9
$DIMLTEX2
  6
ByLayer
  9
$DIMTXTDIRECTION
 70
     0
  9
$LUNITS
 70
     2
  9
$LUPREC
 70
     8
  9
$SKETCHINC
 40
0.1
  9
$FILLETRAD
 40
0.127
  9
$AUNITS
 70
     0
  9
$AUPREC
 70
     0
  9
$MENU
  1
.
  9
$ELEVATION
 40
0.0
  9
$PELEVATION
 40
0.0
  9
$THICKNESS
 40
0.0
  9
$LIMCHECK
 70
     0
  9
$CHAMFERA
 40
0.0
  9
$CHAMFERB
 40
0.0
  9
$CHAMFERC
 40
1.0
  9
$CHAMFERD
 40
0.0
  9
$SKPOLY
 70
     0
  9
$TDCREATE
 40
2453883.125682871
  9
$TDUCREATE
 40
2453882.792357350
  9
$TDUPDATE
 40
2460607.487500000
  9
$TDUUPDATE
 40
2460607.154166667
  9
$TDINDWG
 40
9.4778829745
  9
$TDUSRTIMER
 40
9.4778829745
  9
$USRTIMER
 70
     1
  9
$ANGBASE
 50
0.0
  9
$ANGDIR
 70
     0
  9
$PDMODE
 70
     0
  9
$PDSIZE
 40
0.0
  9
$PLINEWID
 40
0.0
  9
$SPLFRAME
 70
     0
  9
$SPLINETYPE
 70
     6
  9
$SPLINESEGS
 70
     8
  9
$HANDSEED
  5
90
  9
$SURFTAB1
 70
     6
  9
$SURFTAB2
 70
     6
  9
$SURFTYPE
 70
     6
  9
$SURFU
 70
     6
  9
$SURFV
 70
     6
  9
$UCSBASE
  2

  9
$UCSNAME
  2

  9
$UCSORG
 10
0.0
 20
0.0
 30
0.0
  9
$UCSXDIR
 10
1.0
 20
0.0
 30
0.0
  9
$UCSYDIR
 10
0.0
 20
1.0
 30
0.0
  9
$UCSORTHOREF
  2

  9
$UCSORTHOVIEW
 70
     0
  9
$UCSORGTOP
 10
0.0
 20
0.0
 30
0.0
  9
$UCSORGBOTTOM
 10
0.0
 20
0.0
 30
0.0
  9
$UCSORGLEFT
 10
0.0
 20
0.0
 30
0.0
  9
$UCSORGRIGHT
 10
0.0
 20
0.0
 30
0.0
  9
$UCSORGFRONT
 10
0.0
 20
0.0
 30
0.0
  9
$UCSORGBACK
 10
0.0
 20
0.0
 30
0.0
  9
$PUCSBASE
  2

  9
$PUCSNAME
  2

  9
$PUCSORG
 10
0.0
 20
0.0
 30
0.0
  9
$PUCSXDIR
 10
1.0
 20
0.0
 30
0.0
  9
$PUCSYDIR
 10
0.0
 20
1.0
 30
0.0
  9
$PUCSORTHOREF
  2

  9
$PUCSORTHOVIEW
 70
     0
  9
$PUCSORGTOP
 10
0.0
 20
0.0
 30
0.0
  9
$PUCSORGBOTTOM
 10
0.0
 20
0.0
 30
0.0
  9
$PUCSORGLEFT
 10
0.0
 20
0.0
 30
0.0
  9
$PUCSORGRIGHT
 10
0.0
 20
0.0
 30
0.0
  9
$PUCSORGFRONT
 10
0.0
 20
0.0
 30
0.0
  9
$PUCSORGBACK
 10
0.0
 20
0.0
 30
0.0
  9
$USERI1
 70
     0
  9
$USERI2
 70
     0
  9
$USERI3
 70
     0
  9
$USERI4
 70
     0
  9
$USERI5
 70
     0
  9
$USERR1
 40
0.0
  9
$USERR2
 40
0.0
  9
$USERR3
 40
0.0
  9
$USERR4
 40
0.0
  9
$USERR5
 40
0.0
  9
$WORLDVIEW
 70
     1
  9
$SHADEDGE
 70
     3
  9
$SHADEDIF
 70
    70
  9
$TILEMODE
 70
     1
  9
$MAXACTVP
 70
    64
  9
$PINSBASE
 10
0.0
 20
0.0
 30
0.0
  9
$PLIMCHECK
 70
     0
  9
$PEXTMIN
 10
1.000000000000000E+20
 20
1.000000000000000E+20
 30
1.000000000000000E+20
  9
$PEXTMAX
 10
-1.000000000000000E+20
 20
-1.000000000000000E+20
 30
-1.000000000000000E+20
  9
$PLIMMIN
 10
0.0
 20
0.0
  9
$PLIMMAX
 10
12.0
 20
9.0
  9
$UNITMODE
 70
     0
  9
$VISRETAIN
 70
     1
  9
$PLINEGEN
 70
     0
  9
$PSLTSCALE
 70
     1
  9
$TREEDEPTH
 70
  3020
  9
$CMLSTYLE
  2
Standard
  9
$CMLJUST
 70
     0
  9
$CMLSCALE
 40
1.0
  9
$PROXYGRAPHICS
 70
     1
  9
$MEASUREMENT
 70
     0
  9
$CELWEIGHT
370
    -1
  9
$ENDCAPS
280
     0
  9
$JOINSTYLE
280
     0
  9
$LWDISPLAY
290
     0
  9
$INSUNITS
 70
     1
  9
$HYPERLINKBASE
  1

  9
$STYLESHEET
  1

  9
$XEDIT
290
     1
  9
$CEPSNTYPE
380
     0
  9
$PSTYLEMODE
290
     1
  9
$FINGERPRINTGUID
  2
{6559C470-5842-B448-AD19-74004E979088}
  9
$VERSIONGUID
  2
{52420FAE-9E84-488A-8B15-DB8900584E96}
  9
$EXTNAMES
290
     1
  9
$PSVPSCALE
 40
0.0
  9
$OLESTARTUP
290
     0
  9
$SORTENTS
280
   127
  9
$INDEXCTL
280
     0
  9
$HIDETEXT
280
     1
  9
$XCLIPFRAME
280
     2
  9
$HALOGAP
280
     0
  9
$OBSCOLOR
 70
   257
  9
$OBSLTYPE
280
     0
  9
$INTERSECTIONDISPLAY
280
     0
  9
$INTERSECTIONCOLOR
 70
   257
  9
$DIMASSOC
280
     0
  9
$PROJECTNAME
  1

  9
$CAMERADISPLAY
290
     0
  9
$LENSLENGTH
 40
50.0
  9
$CAMERAHEIGHT
 40
0.0
  9
$STEPSPERSEC
 40
2.0
  9
$STEPSIZE
 40
6.0
  9
$3DDWFPREC
 40
2.0
  9
$PSOLWIDTH
 40
0.25
  9
$PSOLHEIGHT
 40
4.0
  9
$LOFTANG1
 40
1.570796326794896
  9
$LOFTANG2
 40
1.570796326794896
  9
$LOFTMAG1
 40
0.0
  9
$LOFTMAG2
 40
0.0
  9
$LOFTPARAM
 70
     7
  9
$LOFTNORMALS
280
     1
  9
$LATITUDE
 40
37.795
  9
$LONGITUDE
 40
-122.394
  9
$NORTHDIRECTION
 40
0.0
  9
$TIMEZONE
 70
 -8000
  9
$LIGHTGLYPHDISPLAY
280
     1
  9
$TILEMODELIGHTSYNCH
280
     1
  9
$CMATERIAL
347
34
  9
$SOLIDHIST
280
     0
  9
$SHOWHIST
280
     1
  9
$DWFFRAME
280
     2
  9
$DGNFRAME
280
     0
  9
$REALWORLDSCALE
290
     1
  9
$INTERFERECOLOR
 62
     1
  9
$INTERFEREOBJVS
345
4F
  9
$INTERFEREVPVS
346
50
  9
$CSHADOW
280
     0
  9
$SHADOWPLANELOCATION
 40
0.0
  0
ENDSEC
  0
SECTION
  2
CLASSES
  0
CLASS
  1
ACDBDICTIONARYWDFLT
  2
AcDbDictionaryWithDefault
  3
ObjectDBX Classes
 90
        0
 91
        1
280
     0
281
     0
  0
CLASS
  1
DICTIONARYVAR
  2
AcDbDictionaryVar
  3
ObjectDBX Classes
 90
        0
 91
       13
280
     0
281
     0
  0
CLASS
  1
TABLESTYLE
  2
AcDbTableStyle
  3
ObjectDBX Classes
 90
     4095
 91
        1
280
     0
281
     0
  0
CLASS
  1
SORTENTSTABLE
  2
AcDbSortentsTable
  3
ObjectDBX Classes
 90
        0
 91
        2
280
     0
281
     0
  0
CLASS
  1
VISUALSTYLE
  2
AcDbVisualStyle
  3
ObjectDBX Classes
 90
     4095
 91
        3
280
     0
281
     0
  0
CLASS
  1
MATERIAL
  2
AcDbMaterial
  3
ObjectDBX Classes
 90
     1153
 91
        3
280
     0
281
     0
  0
CLASS
  1
EXACXREFPANELOBJECT
  2
ExAcXREFPanelObject
  3
EXAC_ESW
 90
     1025
 91
        0
280
     1
281
     0
  0
CLASS
  1
NPOCOLLECTION
  2
AcDbImpNonPersistentObjectsCollection
  3
ObjectDBX Classes
 90
     1153
 91
        0
280
     0
281
     0
  0
CLASS
  1
DIMASSOC
  2
AcDbDimAssoc
  3
"AcDbDimAssoc|Product Desc:     AcDim ARX App For Dimension|Company:          Autodesk, Inc.|WEB Address:      www.autodesk.com"
 90
        0
 91
        0
280
     0
281
     0
  0
CLASS
  1
SCALE
  2
AcDbScale
  3
ObjectDBX Classes
 90
     1153
 91
       17
280
     0
281
     0
  0
CLASS
  1
MLEADERSTYLE
  2
AcDbMLeaderStyle
  3
ACDB_MLEADERSTYLE_CLASS
 90
     4095
 91
        0
280
     0
281
     0
  0
CLASS
  1
ACDBSECTIONVIEWSTYLE
  2
AcDbSectionViewStyle
  3
ObjectDBX Classes
 90
     1025
 91
        0
280
     0
281
     0
  0
CLASS
  1
ACDBDETAILVIEWSTYLE
  2
AcDbDetailViewStyle
  3
ObjectDBX Classes
 90
     1025
 91
        0
280
     0
281
     0
  0
CLASS
  1
CELLSTYLEMAP
  2
AcDbCellStyleMap
  3
ObjectDBX Classes
 90
     1152
 91
        1
280
     0
281
     0
  0
CLASS
  1
SOLID_BACKGROUND
  2
AcDbSolidBackground
  3
SCENEOE
 90
     4095
 91
        0
280
     0
281
     0
  0
ENDSEC
  0
SECTION
  2
TABLES
  0
TABLE
  2
VPORT
  5
25
102
{ACAD_XDICTIONARY
360
2A
102
}
330
0
100
AcDbSymbolTable
 70
     1
  0
VPORT
  5
26
330
25
100
AcDbSymbolTableRecord
100
AcDbViewportTableRecord
  2
*Active
 70
     0
 10
0.0
 20
0.0
 11
1.0
 21
1.0
 12
2152.349251812529
 22
-709.8934272164894
 13
0.0
 23
0.0
 14
0.5
 24
0.5
 15
0.5
 25
0.5
 16
0.0
 26
0.0
 36
1.0
 17
0.0
 27
0.0
 37
0.0
 40
21.12938929800987
 41
2.570850202429149
 42
50.0
 43
0.0
 44
0.0
 50
0.0
 51
0.0
 71
     0
 72
 20000
 73
     1
 74
     2
 75
     0
 76
     0
 77
     0
 78
     0
281
     0
 65
     1
110
0.0
120
0.0
130
0.0
111
1.0
121
0.0
131
0.0
112
0.0
122
1.0
132
0.0
 79
     0
146
0.0
348
27
 60
     3
 61
     5
292
     1
282
     1
141
0.0
142
0.0
 63
   250
421
  3355443
1001
ACAD_NAV_VCDISPLAY
1070
     3
  0
ENDTAB
  0
TABLE
  2
LTYPE
  5
20
330
0
100
AcDbSymbolTable
 70
     3
  0
LTYPE
  5
21
330
20
100
AcDbSymbolTableRecord
100
AcDbLinetypeTableRecord
  2
ByBlock
 70
     0
  3

 72
    65
 73
     0
 40
0.0
  0
LTYPE
  5
22
330
20
100
AcDbSymbolTableRecord
100
AcDbLinetypeTableRecord
  2
ByLayer
 70
     0
  3

 72
    65
 73
     0
 40
0.0
  0
LTYPE
  5
E
330
20
100
AcDbSymbolTableRecord
100
AcDbLinetypeTableRecord
  2
Continuous
 70
     0
  3
Solid line
 72
    65
 73
     0
 40
0.0
  0
LTYPE
  5
6A
330
20
100
AcDbSymbolTableRecord
100
AcDbLinetypeTableRecord
  2
CENTER
 70
     0
  3
Center ____ _ ____ _ ____ _ ____ _ ____ _ ____
 72
    65
 73
     4
 40
2.0
 49
1.25
 74
     0
 49
-0.25
 74
     0
 49
0.25
 74
     0
 49
-0.25
 74
     0
  0
LTYPE
  5
6D
330
20
100
AcDbSymbolTableRecord
100
AcDbLinetypeTableRecord
  2
DASHED
 70
     0
  3
__ __ __ __ __ __ __ __ __ __ __ __ __ __ __ __
 72
    65
 73
     2
 40
0.75
 49
0.5
 74
     0
 49
-0.25
 74
     0
  0
ENDTAB
  0
TABLE
  2
LAYER
  5
17
102
{ACAD_XDICTIONARY
360
18
102
}
330
0
100
AcDbSymbolTable
 70
     3
  0
LAYER
  5
6
102
{ACAD_XDICTIONARY
360
7
102
}
330
17
100
AcDbSymbolTableRecord
100
AcDbLayerTableRecord
  2
0
 70
     0
 62
     7
  6
Continuous
370
    -3
390
9
347
C
348
0
  0
LAYER
  5
7E
102
{ACAD_XDICTIONARY
360
7F
102
}
330
17
100
AcDbSymbolTableRecord
100
AcDbLayerTableRecord
  2
3
 70
     0
 62
     7
  6
Continuous
370
    -3
390
9
347
C
348
0
  0
LAYER
  5
48
102
{ACAD_XDICTIONARY
360
49
102
}
330
17
100
AcDbSymbolTableRecord
100
AcDbLayerTableRecord
  2
3D
 70
     0
 62
     4
  6
Continuous
370
    -3
390
9
347
C
348
0
1001
AcAecLayerStandard
1000

1000

  0
ENDTAB
  0
TABLE
  2
STYLE
  5
1D
330
0
100
AcDbSymbolTable
 70
     2
  0
STYLE
  5
1E
330
1D
100
AcDbSymbolTableRecord
100
AcDbTextStyleTableRecord
  2
Standard
 70
     0
 40
0.0
 41
1.0
 50
0.0
 71
     0
 42
0.45
  3
txt
  4

  0
STYLE
  5
2E
330
1D
100
AcDbSymbolTableRecord
100
AcDbTextStyleTableRecord
  2
SIMPLEX
 70
     0
 40
0.0
 41
1.0
 50
0.0
 71
     0
 42
0.0045
  3
SIMPLEX
  4

  0
ENDTAB
  0
TABLE
  2
VIEW
  5
23
330
0
100
AcDbSymbolTable
 70
     0
  0
ENDTAB
  0
TABLE
  2
UCS
  5
24
330
0
100
AcDbSymbolTable
 70
     0
  0
ENDTAB
  0
TABLE
  2
APPID
  5
2B
330
0
100
AcDbSymbolTable
 70
     5
  0
APPID
  5
1C
330
2B
100
AcDbSymbolTableRecord
100
AcDbRegAppTableRecord
  2
ACAD
 70
     0
  0
APPID
  5
2F
330
2B
100
AcDbSymbolTableRecord
100
AcDbRegAppTableRecord
  2
ACAD_DSTYLE_DIMJOGGED_JOGANGLE_SYMBOL
 70
     0
  0
APPID
  5
12
330
2B
100
AcDbSymbolTableRecord
100
AcDbRegAppTableRecord
  2
ACAD_PSEXT
 70
     0
  0
APPID
  5
4B
330
2B
100
AcDbSymbolTableRecord
100
AcDbRegAppTableRecord
  2
AcAecLayerStandard
 70
     0
  0
APPID
  5
29
330
2B
100
AcDbSymbolTableRecord
100
AcDbRegAppTableRecord
  2
ACAD_NAV_VCDISPLAY
 70
     0
  0
ENDTAB
  0
TABLE
  2
DIMSTYLE
  5
2C
330
0
100
AcDbSymbolTable
 70
     1
100
AcDbDimStyleTable
 71
     1
340
2D
  0
DIMSTYLE
105
2D
330
2C
100
AcDbSymbolTableRecord
100
AcDbDimStyleTableRecord
  2
Standard
 70
     0
 40
0.1
 41
1.0
 42
0.3
 43
0.3
 44
0.3
 48
1.25
 49
0.0072
 78
     1
140
1.0
141
0.5
147
0.3
176
   256
177
   256
178
   256
271
     3
272
     3
340
2E
345
22
346
22
347
22
371
    -1
372
    -1
1001
ACAD_DSTYLE_DIMJOGGED_JOGANGLE_SYMBOL
1070
   384
1040
0.7853981633974483
  0
ENDTAB
  0
TABLE
  2
BLOCK_RECORD
  5
1
330
0
100
AcDbSymbolTable
 70
     0
  0
BLOCK_RECORD
  5
2
102
{ACAD_XDICTIONARY
360
3
102
}
330
1
100
AcDbSymbolTableRecord
100
AcDbBlockTableRecord
  2
*Model_Space
340
10
 70
     0
280
     1
281
     0
  0
BLOCK_RECORD
  5
13
330
1
100
AcDbSymbolTableRecord
100
AcDbBlockTableRecord
  2
*Paper_Space
340
16
 70
     0
280
     1
281
     0
  0
ENDTAB
  0
ENDSEC
  0
SECTION
  2
BLOCKS
  0
BLOCK
  5
5
330
2
100
AcDbEntity
  8
0
100
AcDbBlockBegin
  2
*Model_Space
 70
     0
 10
0.0
 20
0.0
 30
0.0
  3
*Model_Space
  1

  0
ENDBLK
  5
F
330
2
100
AcDbEntity
  8
0
100
AcDbBlockEnd
  0
BLOCK
  5
14
330
13
100
AcDbEntity
 67
     1
  8
0
100
AcDbBlockBegin
  2
*Paper_Space
 70
     0
 10
0.0
 20
0.0
 30
0.0
  3
*Paper_Space
  1

  0
ENDBLK
  5
15
330
13
100
AcDbEntity
 67
     1
  8
0
100
AcDbBlockEnd
  0
ENDSEC
  0
SECTION
  2
ENTITIES
  0
MTEXT
  5
62
330
2
100
AcDbEntity
  8
3D
 62
     4
100
AcDbMText
 10
0.4499094758771208
 20
-6.058911698434371
 30
0.0
 40
0.1000000027094964
 41
0.0
 46
0.0
 71
     5
 72
     1
  1
MIN PLATING AREA
  7
SIMPLEX
 73
     1
 44
1.0
  0
HATCH
  5
63
330
2
100
AcDbEntity
  8
3D
100
AcDbHatch
 10
0.0
 20
0.0
 30
0.0
210
0.0
220
0.0
230
1.0
  2
DOTS
 70
     0
 71
     0
 91
        1
 92
        1
 93
        4
 72
     1
 10
-0.4612558665739926
 20
-5.915904398226416
 11
-0.7214262924417199
 21
-5.915904398226416
 72
     1
 10
-0.7214262924417199
 20
-5.915904398226416
 11
-0.7214262924417199
 21
-6.176074824094257
 72
     1
 10
-0.7214262924417199
 20
-6.176074824094257
 11
-0.4612558665739926
 21
-6.176074824094257
 72
     1
 10
-0.4612558665739926
 20
-6.176074824094257
 11
-0.4612558665739926
 21
-5.915904398226416
 97
        0
 75
     0
 76
     1
 52
0.0
 41
1.5
 77
     0
 78
     1
 53
0.0
 43
-16.09231527886777
 44
1.381371669931922
 45
0.046875
 46
0.09375
 79
     2
 49
0.0
 49
-0.09375
 98
        1
 10
5.103680503139912
 20
-91.09793029324908
1001
ACAD
1010
0.0
1020
0.0
1030
0.0
  0
LINE
  5
64
330
2
100
AcDbEntity
  8
3D
100
AcDbLine
 10
-0.4612558665739926
 20
-5.915904398227098
 30
0.0
 11
-0.7214262924417199
 21
-5.915904398227098
 31
0.0
  0
LINE
  5
65
330
2
100
AcDbEntity
  8
3D
100
AcDbLine
 10
-0.7214262924417199
 20
-5.915904398227098
 30
0.0
 11
-0.7214262924417199
 21
-6.176074824094712
 31
0.0
  0
LINE
  5
66
330
2
100
AcDbEntity
  8
3D
100
AcDbLine
 10
-0.7214262924417199
 20
-6.176074824094712
 30
0.0
 11
-0.4612558665739926
 21
-6.176074824094712
 31
0.0
  0
LINE
  5
67
330
2
100
AcDbEntity
  8
3D
100
AcDbLine
 10
-0.4612558665739926
 20
-6.176074824094712
 30
0.0
 11
-0.4612558665739926
 21
-5.915904398227098
 31
0.0
  0
HATCH
  5
68
330
2
100
AcDbEntity
  8
3D
100
AcDbHatch
 10
0.0
 20
0.0
 30
0.0
210
0.0
220
0.0
230
1.0
  2
DOTS
 70
     0
 71
     0
 91
       20
 92
       23
 72
     0
 73
     1
 93
        5
 10
2.350000000000363
 20
0.0
 10
2.120000000000345
 20
0.0
 10
2.120000000000345
 20
-0.1525000000001455
 10
2.325500000000374
 20
-0.1525000000002592
 10
2.350000000000363
 20
-0.1280000000002701
 97
        0
 92
       23
 72
     0
 73
     1
 93
        5
 10
2.350000000000363
 20
0.128000000001748
 10
2.325500000001284
 20
0.1524999999999181
 10
2.120000000000345
 20
0.1525000000000318
 10
2.120000000000345
 20
0.0
 10
2.350000000000363
 20
0.0
 97
        0
 92
        7
 72
     0
 73
     1
 93
        6
 10
-2.1200000000008
 20
0.1525000000003729
 10
-2.325500000000829
 20
0.1525000000003729
 10
-2.350000000000818
 20
0.1280000000008385
 10
-2.350000000000818
 20
-0.1279999999994743
 10
-2.325499999999919
 20
-0.1525000000001455
 10
-2.1200000000008
 20
-0.1525000000001455
 97
        0
 92
        7
 72
     1
 73
     1
 93
       28
 10
1.950000000000272
 20
1.37300000000016
 42
0.4142135623730951
 10
1.82300000000032
 20
1.5
 42
0.0
 10
-1.822999999999865
 20
1.5
 42
0.4142135623729815
 10
-1.949999999999818
 20
1.37300000000016
 42
0.0
 10
-1.950000000000727
 20
0.2024999999975989
 42
0.0
 10
-2.000000000000909
 20
0.2024999999975989
 42
0.0
 10
-2.000000000000909
 20
0.1525000000003729
 42
0.0
 10
-2.346999999999752
 20
0.1525000000003729
 42
0.0
 10
-2.349999999999909
 20
0.1495000000004438
 42
0.0
 10
-2.349999999999909
 20
-0.1495000000004438
 42
0.0
 10
-2.346999999999752
 20
-0.1525000000001455
 42
0.0
 10
-2.000000000000909
 20
-0.1525000000001455
 42
0.0
 10
-2.000000000000909
 20
-0.2024999999974852
 42
0.0
 10
-1.950000000000727
 20
-0.2024999999974852
 42
0.0
 10
-1.949999999999818
 20
-1.37300000000016
 42
0.4142135623731117
 10
-1.822999999999865
 20
-1.5
 42
0.0
 10
1.82300000000032
 20
-1.5
 42
0.4142135623730951
 10
1.950000000000272
 20
-1.37300000000016
 42
0.0
 10
1.950000000000272
 20
-0.2024999999974852
 42
0.0
 10
1.99999999999909
 20
-0.2024999999974852
 42
0.0
 10
1.99999999999909
 20
-0.1525000000001455
 42
0.0
 10
2.347000000000207
 20
-0.1525000000001455
 42
0.0
 10
2.350000000000363
 20
-0.1494999999999891
 42
0.0
 10
2.350000000000363
 20
0.1494999999999891
 42
0.0
 10
2.347000000000207
 20
0.1525000000003729
 42
0.0
 10
1.99999999999909
 20
0.1525000000003729
 42
0.0
 10
1.99999999999909
 20
0.2024999999975989
 42
0.0
 10
1.950000000000272
 20
0.2024999999975989
 42
0.0
 97
        0
 92
        7
 72
     0
 73
     1
 93
        8
 10
-2.129000000000814
 20
-0.7249999999997954
 10
-2.308999999999741
 20
-0.7250000000001365
 10
-2.308999999999741
 20
-1.824000000000182
 10
-2.349999999999909
 20
-1.864999999999668
 10
-2.349999999999909
 20
-1.90000000000009
 10
-2.040000000000873
 20
-1.90000000000009
 10
-2.040000000000873
 20
-1.600000000000136
 10
-2.129000000000814
 20
-1.510999999999967
 97
        0
 92
        7
 72
     0
 73
     1
 93
        4
 10
-1.390000000000782
 20
-1.699999999999931
 10
-1.860000000000582
 20
-1.699999999999931
 10
-1.860000000000582
 20
-1.90000000000009
 10
-1.390000000000782
 20
-1.90000000000009
 97
        0
 92
        7
 72
     0
 73
     1
 93
        4
 10
-0.7399999999997818
 20
-1.699999999999931
 10
-1.210000000000036
 20
-1.699999999999931
 10
-1.210000000000036
 20
-1.90000000000009
 10
-0.7399999999997818
 20
-1.90000000000009
 97
        0
 92
        7
 72
     0
 73
     1
 93
        4
 10
-0.0899999999996908
 20
-1.699999999999931
 10
-0.5599999999999455
 20
-1.699999999999931
 10
-0.5599999999999455
 20
-1.90000000000009
 10
-0.0899999999996908
 20
-1.90000000000009
 97
        0
 92
        7
 72
     0
 73
     1
 93
        4
 10
0.5599999999999455
 20
-1.699999999999931
 10
0.089999999999236
 20
-1.699999999999931
 10
0.089999999999236
 20
-1.90000000000009
 10
0.5599999999999455
 20
-1.90000000000009
 97
        0
 92
        7
 72
     0
 73
     1
 93
        4
 10
1.209999999999126
 20
-1.699999999999931
 10
0.739999999999327
 20
-1.699999999999931
 10
0.739999999999327
 20
-1.90000000000009
 10
1.209999999999126
 20
-1.90000000000009
 97
        0
 92
        7
 72
     0
 73
     1
 93
        4
 10
1.860000000000127
 20
-1.699999999999931
 10
1.389999999999417
 20
-1.699999999999931
 10
1.389999999999417
 20
-1.90000000000009
 10
1.860000000000127
 20
-1.90000000000009
 97
        0
 92
        7
 72
     0
 73
     1
 93
        8
 10
2.309000000000196
 20
-0.7250000000001365
 10
2.12900000000036
 20
-0.7249999999997954
 10
2.12900000000036
 20
-1.510999999999967
 10
2.039999999999963
 20
-1.600000000000136
 10
2.039999999999963
 20
-1.90000000000009
 10
2.350000000000363
 20
-1.90000000000009
 10
2.350000000000363
 20
-1.865000000000009
 10
2.309000000000196
 20
-1.824000000000182
 97
        0
 92
        7
 72
     0
 73
     1
 93
        8
 10
2.309000000000196
 20
1.824000000000069
 10
2.350000000000363
 20
1.865000000000009
 10
2.350000000000363
 20
1.900000000000318
 10
2.039999999999963
 20
1.900000000000318
 10
2.039999999999963
 20
1.600000000000136
 10
2.12900000000036
 20
1.51100000000008
 10
2.12900000000036
 20
0.7249999999999091
 10
2.309000000000196
 20
0.7250000000003638
 97
        0
 92
        7
 72
     0
 73
     1
 93
        4
 10
1.860000000000127
 20
1.900000000000318
 10
1.389999999999417
 20
1.900000000000318
 10
1.389999999999417
 20
1.700000000000045
 10
1.860000000000127
 20
1.700000000000045
 97
        0
 92
        7
 72
     0
 73
     1
 93
        4
 10
1.209999999999126
 20
1.900000000000318
 10
0.739999999999327
 20
1.900000000000318
 10
0.739999999999327
 20
1.700000000000045
 10
1.209999999999126
 20
1.700000000000045
 97
        0
 92
        7
 72
     0
 73
     1
 93
        4
 10
0.5599999999999455
 20
1.900000000000318
 10
0.089999999999236
 20
1.900000000000318
 10
0.089999999999236
 20
1.700000000000045
 10
0.5599999999999455
 20
1.700000000000045
 97
        0
 92
        7
 72
     0
 73
     1
 93
        4
 10
-0.0899999999996908
 20
1.900000000000318
 10
-0.5599999999999455
 20
1.900000000000318
 10
-0.5599999999999455
 20
1.700000000000045
 10
-0.0899999999996908
 20
1.700000000000045
 97
        0
 92
        7
 72
     0
 73
     1
 93
        4
 10
-0.7399999999997818
 20
1.900000000000318
 10
-1.210000000000036
 20
1.900000000000318
 10
-1.210000000000036
 20
1.700000000000045
 10
-0.7399999999997818
 20
1.700000000000045
 97
        0
 92
        7
 72
     0
 73
     1
 93
        4
 10
-1.390000000000782
 20
1.900000000000318
 10
-1.860000000000582
 20
1.900000000000318
 10
-1.860000000000582
 20
1.700000000000045
 10
-1.390000000000782
 20
1.700000000000045
 97
        0
 92
        7
 72
     0
 73
     1
 93
        8
 10
-2.040000000000873
 20
1.900000000000318
 10
-2.349999999999909
 20
1.900000000000318
 10
-2.349999999999909
 20
1.864999999999668
 10
-2.308999999999741
 20
1.824000000000069
 10
-2.308999999999741
 20
0.7250000000003638
 10
-2.129000000000814
 20
0.7249999999999091
 10
-2.129000000000814
 20
1.51100000000008
 10
-2.040000000000873
 20
1.600000000000136
 97
        0
 75
     0
 76
     1
 52
0.0
 41
1.5
 77
     0
 78
     1
 53
0.0
 43
0.0
 44
0.0
 45
0.046875
 46
0.09375
 79
     2
 49
0.0
 49
-0.09375
 47
0.0043242565363155
 98
       20
 10
2.2374322701462
 20
-0.0833208598662623
 10
2.225168197785023
 20
0.0698351882490442
 10
-2.24082880079004
 20
-0.088535403299943
 10
-0.9956156316961823
 20
0.6114448425397541
 10
-2.205519853745045
 20
-1.309084005199224
 10
-1.600566155572778
 20
-1.779144251801085
 10
-0.982172498339878
 20
-1.779144251801085
 10
-0.2696737333249075
 20
-1.819435362154194
 10
0.4159387649792734
 20
-1.819435362154194
 10
1.08810812992715
 20
-1.846295019382637
 10
1.706501787160959
 20
-1.846295019382637
 10
2.203907244194397
 20
-1.698562031094979
 10
2.244236644261036
 20
1.162085685337274
 10
1.545181012601005
 20
1.793308748840786
 10
0.9402304887230457
 20
1.820168406069001
 10
0.2277317237080751
 20
1.793308748840786
 10
-0.3100031333920015
 20
1.779877295716005
 10
-0.982172498339878
 20
1.779877295716005
 10
-1.614009288929082
 20
1.779877295716005
 10
-2.19207672038874
 20
1.739587809873569
1001
ACAD
1010
0.0
1020
0.0
1030
0.0
  0
LINE
  5
69
330
2
100
AcDbEntity
  8
3D
  6
CENTER
100
AcDbLine
 10
-1.283143133987778
 20
0.0
 30
0.0
 11
1.283143133986868
 21
0.0
 31
0.0
  0
LINE
  5
6B
330
2
100
AcDbEntity
  8
3D
  6
CENTER
100
AcDbLine
 10
0.0
 20
1.283143133987891
 30
0.0
 11
0.0
 21
-1.283143133987664
 31
0.0
  0
LWPOLYLINE
  5
6C
330
2
100
AcDbEntity
  8
3D
  6
DASHED
 48
0.5
100
AcDbPolyline
 90
       12
 70
     1
 43
0.0
 10
2.579999999999927
 20
-2.15000000000009
 10
-2.579999999999927
 20
-2.15000000000009
 10
-2.580000000000836
 20
-0.2999999999998408
 10
-2.350000000000818
 20
-0.2999999999998408
 10
-2.350000000000818
 20
0.2999999999998408
 10
-2.579999999999927
 20
0.2999999999998408
 10
-2.579999999999927
 20
2.150000000000318
 10
2.579999999999927
 20
2.150000000000318
 10
2.579999999999927
 20
0.2999999999998408
 10
2.350000000000363
 20
0.2999999999998408
 10
2.350000000000363
 20
-0.2999999999998408
 10
2.579999999999927
 20
-0.2999999999998408
  0
LWPOLYLINE
  5
6E
330
2
100
AcDbEntity
  8
3D
  6
DASHED
 48
0.5
100
AcDbPolyline
 90
       12
 70
     1
 43
0.0
 10
2.350000000000363
 20
-1.90000000000009
 10
-2.349999999999909
 20
-1.90000000000009
 10
-2.350000000000818
 20
-0.5499999999999546
 10
-2.1200000000008
 20
-0.5499999999999546
 10
-2.1200000000008
 20
0.5500000000000683
 10
-2.349999999999909
 20
0.5500000000000683
 10
-2.349999999999909
 20
1.900000000000318
 10
2.350000000000363
 20
1.900000000000318
 10
2.350000000000363
 20
0.5500000000000683
 10
2.120000000000345
 20
0.5500000000000683
 10
2.120000000000345
 20
-0.5499999999999546
 10
2.350000000000363
 20
-0.5499999999999546
  0
LINE
  5
6F
330
2
100
AcDbEntity
  8
3D
100
AcDbLine
 10
0.0
 20
1.31314313398775
 30
0.0
 11
0.0
 21
2.879602700215968
 31
0.0
  0
MTEXT
  5
70
330
2
100
AcDbEntity
  8
3D
100
AcDbMText
 10
0.0
 20
3.109602700216214
 30
0.0
 40
0.1
 41
0.0
 46
0.0
 71
     5
 72
     1
  1
\A1;0.000
  7
SIMPLEX
 11
0.0000000000000001
 21
1.0
 31
0.0
 73
     1
 44
1.0
  0
LINE
  5
71
330
2
100
AcDbEntity
  8
3D
100
AcDbLine
 10
1.313143133987068
 20
0.0
 30
0.0
 11
3.926034525757131
 21
0.0
 31
0.0
  0
MTEXT
  5
72
330
2
100
AcDbEntity
  8
3D
100
AcDbMText
 10
4.156034525757149
 20
0.0
 30
0.0
 40
0.1
 41
0.0
 46
0.0
 71
     5
 72
     1
  1
\A1;0.000
  7
SIMPLEX
 73
     1
 44
1.0
  0
LINE
  5
73
330
2
100
AcDbEntity
  8
3D
100
AcDbLine
 10
-2.349999999999909
 20
1.930000000000291
 30
0.0
 11
-2.349999999999909
 21
2.879602700215968
 31
0.0
  0
MTEXT
  5
74
330
2
100
AcDbEntity
  8
3D
100
AcDbMText
 10
-2.349999999999909
 20
3.635793176406536
 30
0.0
 40
0.1
 41
0.0
 46
0.0
 71
     5
 72
     1
  1
\A1;2.350 MIN PLATING
  7
SIMPLEX
 11
0.0000000000000001
 21
1.0
 31
0.0
 73
     1
 44
1.0
  0
LINE
  5
75
330
2
100
AcDbEntity
  8
3D
100
AcDbLine
 10
2.380000000000109
 20
-1.90000000000009
 30
0.0
 11
3.926034525757131
 21
-1.90000000000009
 31
0.0
  0
MTEXT
  5
76
330
2
100
AcDbEntity
  8
3D
100
AcDbMText
 10
4.672701192423119
 20
-1.90000000000009
 30
0.0
 40
0.1
 41
0.0
 46
0.0
 71
     5
 72
     1
  1
\A1;1.900 MIN PLATING
  7
SIMPLEX
 73
     1
 44
1.0
  0
LINE
  5
77
330
2
100
AcDbEntity
  8
3D
100
AcDbLine
 10
2.610000000000127
 20
-2.15000000000009
 30
0.0
 11
3.926034525757131
 21
-2.15000000000009
 31
0.0
  0
MTEXT
  5
78
330
2
100
AcDbEntity
  8
3D
100
AcDbMText
 10
4.701272620995041
 20
-2.15000000000009
 30
0.0
 40
0.1
 41
0.0
 46
0.0
 71
     5
 72
     1
  1
\A1;2.150 MAX PLATING
  7
SIMPLEX
 73
     1
 44
1.0
  0
LINE
  5
79
330
2
100
AcDbEntity
  8
3D
100
AcDbLine
 10
-2.579999999999927
 20
2.180000000000177
 30
0.0
 11
-2.579999999999927
 21
2.879602700215968
 31
0.0
  0
MTEXT
  5
7A
330
2
100
AcDbEntity
  8
3D
100
AcDbMText
 10
-2.579999999999927
 20
3.664364604978231
 30
0.0
 40
0.1
 41
0.0
 46
0.0
 71
     5
 72
     1
  1
\A1;2.580 MAX PLATING
  7
SIMPLEX
 11
0.0000000000000001
 21
1.0
 31
0.0
 73
     1
 44
1.0
  0
MTEXT
  5
7B
330
2
100
AcDbEntity
  8
3D
100
AcDbMText
 10
0.2495389261189302
 20
5.008320409142925
 30
0.0
 40
0.1
 41
0.0
 46
0.0
 71
     5
 72
     1
  1
\A1;{\LAg SPOT PLATING}
  7
SIMPLEX
 73
     1
 44
1.0
  0
TEXT
  5
7C
330
2
100
AcDbEntity
  8
3D
100
AcDbText
 10
-0.3808789679619622
 20
-2.966168701699757
 30
0.0
 40
0.1
  1
%%UTOP VIEW
  7
SIMPLEX
100
AcDbText
  0
LWPOLYLINE
  5
7D
330
2
100
AcDbEntity
  8
3
100
AcDbPolyline
 90
       98
 70
     1
 43
0.0
 10
-2.325500000000829
 20
0.1525000000003729
 10
-2.398000000002866
 20
0.080000000000382
 10
-2.580000000000836
 20
0.0800000000006094
 10
-2.579999999999927
 20
0.4499999999998181
 10
-3.580000000000836
 20
0.4499999999998181
 10
-3.580000000000836
 20
1.950000000000159
 10
-2.579999999999927
 20
1.950000000000159
 10
-2.580000000000836
 20
2.200000000000045
 10
-2.815000000000054
 20
2.200000000000045
 10
-2.815000000000054
 20
2.400000000000204
 10
-2.384999999999763
 20
2.400000000000204
 10
-2.385000000000673
 20
1.900000000000204
 10
-2.308999999999741
 20
1.824000000000069
 10
-2.308999999999741
 20
0.7250000000003638
 10
-2.129000000000814
 20
0.7249999999999091
 10
-2.129000000000814
 20
1.51100000000008
 10
-2.039999999999963
 20
1.600000000000136
 10
-2.039999999999963
 20
1.900000000000204
 10
-2.165000000000873
 20
1.900000000000204
 10
-2.165000000000873
 20
2.400000000000204
 10
-1.735000000000582
 20
2.400000000000204
 10
-1.735000000000582
 20
1.900000000000204
 10
-1.860000000000582
 20
1.900000000000204
 10
-1.860000000000582
 20
1.700000000000045
 10
-1.390000000000782
 20
1.700000000000045
 10
-1.390000000000782
 20
1.900000000000204
 10
-1.514999999999872
 20
1.900000000000204
 10
-1.514999999999872
 20
2.400000000000204
 10
-1.085000000000036
 20
2.400000000000204
 10
-1.085000000000036
 20
1.900000000000204
 10
-1.210000000000036
 20
1.900000000000204
 10
-1.210000000000036
 20
1.700000000000045
 10
-0.7399999999997818
 20
1.700000000000045
 10
-0.7399999999997818
 20
1.900000000000204
 10
-0.8649999999997817
 20
1.900000000000204
 10
-0.8649999999997817
 20
2.400000000000204
 10
-0.4349999999999455
 20
2.400000000000204
 10
-0.4349999999999455
 20
1.900000000000204
 10
-0.5599999999999455
 20
1.900000000000204
 10
-0.5599999999999455
 20
1.700000000000045
 10
-0.0899999999996908
 20
1.700000000000045
 10
-0.0899999999996908
 20
1.900000000000204
 10
-0.2149999999996908
 20
1.900000000000204
 10
-0.2149999999996908
 20
2.400000000000204
 10
0.214999999999236
 20
2.400000000000204
 10
0.214999999999236
 20
1.900000000000204
 10
0.089999999999236
 20
1.900000000000204
 10
0.089999999999236
 20
1.700000000000045
 10
0.5599999999999455
 20
1.700000000000045
 10
0.5599999999999455
 20
1.900000000000204
 10
0.434999999999036
 20
1.900000000000204
 10
0.434999999999036
 20
2.400000000000204
 10
0.8650000000002364
 20
2.400000000000204
 10
0.8650000000002364
 20
1.900000000000204
 10
0.7400000000002365
 20
1.900000000000204
 10
0.7400000000002365
 20
1.700000000000045
 10
1.210000000000036
 20
1.700000000000045
 10
1.210000000000036
 20
1.900000000000204
 10
1.085000000000036
 20
1.900000000000204
 10
1.085000000000036
 20
2.400000000000204
 10
1.514999999999417
 20
2.400000000000204
 10
1.514999999999417
 20
1.900000000000204
 10
1.389999999999417
 20
1.900000000000204
 10
1.389999999999417
 20
1.700000000000045
 10
1.860000000000127
 20
1.700000000000045
 10
1.860000000000127
 20
1.900000000000204
 10
1.735000000000127
 20
1.900000000000204
 10
1.735000000000127
 20
2.400000000000204
 10
2.164999999999963
 20
2.400000000000204
 10
2.164999999999963
 20
1.900000000000204
 10
2.039999999999963
 20
1.900000000000204
 10
2.039999999999963
 20
1.600000000000136
 10
2.12900000000036
 20
1.51100000000008
 10
2.12900000000036
 20
0.7249999999999091
 10
2.309000000000196
 20
0.7250000000003638
 10
2.309000000000196
 20
1.824000000000069
 10
2.385000000000218
 20
1.900000000000204
 10
2.385000000000218
 20
2.400000000000204
 10
2.815000000000054
 20
2.400000000000204
 10
2.815000000000054
 20
2.200000000000045
 10
2.579999999999927
 20
2.200000000000045
 10
2.579999999999927
 20
1.75
 10
3.579999999999927
 20
1.75
 10
3.579999999999927
 20
0.25
 10
2.579999999999927
 20
0.25
 10
2.579999999994925
 20
0.0800000000006094
 10
2.398000000003321
 20
0.080000000000382
 10
2.325500000001284
 20
0.1524999999999181
 10
2.0
 20
0.1525000000003729
 10
2.0
 20
0.2024999999975989
 10
1.950000000000272
 20
0.2024999999975989
 10
1.950000000000272
 20
1.37300000000016
 42
0.4142135623725707
 10
1.82300000000032
 20
1.5
 10
-1.822999999999865
 20
1.5
 42
0.4142135623725707
 10
-1.949999999998908
 20
1.37300000000016
 10
-1.950000000000727
 20
0.2024999999975989
 10
-2.0
 20
0.2024999999975989
 10
-2.0
 20
0.1525000000003729
  0
LWPOLYLINE
  5
81
330
2
100
AcDbEntity
  8
3
 48
4.0
100
AcDbPolyline
 90
       94
 70
     1
 43
0.0
 10
2.325500000000374
 20
-0.1525000000002592
 10
2.398000000001047
 20
-0.0799999999994725
 10
2.579999999996289
 20
-0.0800000000002683
 10
2.579999999999927
 20
-2.199999999999931
 10
2.815000000000054
 20
-2.199999999999931
 10
2.815000000000054
 20
-2.40000000000009
 10
2.385000000000218
 20
-2.40000000000009
 10
2.385000000000218
 20
-1.90000000000009
 10
2.309000000000196
 20
-1.824000000000182
 10
2.309000000000196
 20
-0.7250000000001365
 10
2.12900000000036
 20
-0.7249999999997954
 10
2.12900000000036
 20
-1.510999999999967
 10
2.039999999999963
 20
-1.600000000000136
 10
2.039999999999963
 20
-1.90000000000009
 10
2.164999999999963
 20
-1.90000000000009
 10
2.164999999999963
 20
-2.40000000000009
 10
1.735000000000127
 20
-2.40000000000009
 10
1.735000000000127
 20
-1.90000000000009
 10
1.860000000000127
 20
-1.90000000000009
 10
1.860000000000127
 20
-1.699999999999931
 10
1.389999999999417
 20
-1.699999999999931
 10
1.389999999999417
 20
-1.90000000000009
 10
1.514999999999417
 20
-1.90000000000009
 10
1.514999999999417
 20
-2.40000000000009
 10
1.085000000000036
 20
-2.40000000000009
 10
1.085000000000036
 20
-1.90000000000009
 10
1.210000000000036
 20
-1.90000000000009
 10
1.210000000000036
 20
-1.699999999999931
 10
0.7400000000002365
 20
-1.699999999999931
 10
0.7400000000002365
 20
-1.90000000000009
 10
0.8650000000002364
 20
-1.90000000000009
 10
0.8650000000002364
 20
-2.40000000000009
 10
0.434999999999036
 20
-2.40000000000009
 10
0.434999999999036
 20
-1.90000000000009
 10
0.5599999999999455
 20
-1.90000000000009
 10
0.5599999999999455
 20
-1.699999999999931
 10
0.089999999999236
 20
-1.699999999999931
 10
0.089999999999236
 20
-1.90000000000009
 10
0.214999999999236
 20
-1.90000000000009
 10
0.214999999999236
 20
-2.40000000000009
 10
-0.2149999999996908
 20
-2.40000000000009
 10
-0.2149999999996908
 20
-1.90000000000009
 10
-0.0899999999996908
 20
-1.90000000000009
 10
-0.0899999999996908
 20
-1.699999999999931
 10
-0.5599999999999455
 20
-1.699999999999931
 10
-0.5599999999999455
 20
-1.90000000000009
 10
-0.4349999999999455
 20
-1.90000000000009
 10
-0.4349999999999455
 20
-2.40000000000009
 10
-0.8649999999997817
 20
-2.40000000000009
 10
-0.8649999999997817
 20
-1.90000000000009
 10
-0.7399999999997818
 20
-1.90000000000009
 10
-0.7399999999997818
 20
-1.699999999999931
 10
-1.210000000000036
 20
-1.699999999999931
 10
-1.210000000000036
 20
-1.90000000000009
 10
-1.085000000000036
 20
-1.90000000000009
 10
-1.085000000000036
 20
-2.40000000000009
 10
-1.514999999999872
 20
-2.40000000000009
 10
-1.514999999999872
 20
-1.90000000000009
 10
-1.390000000000782
 20
-1.90000000000009
 10
-1.390000000000782
 20
-1.699999999999931
 10
-1.860000000000582
 20
-1.699999999999931
 10
-1.860000000000582
 20
-1.90000000000009
 10
-1.735000000000582
 20
-1.90000000000009
 10
-1.735000000000582
 20
-2.40000000000009
 10
-2.165000000000873
 20
-2.40000000000009
 10
-2.165000000000873
 20
-1.90000000000009
 10
-2.039999999999963
 20
-1.90000000000009
 10
-2.039999999999963
 20
-1.600000000000136
 10
-2.129000000000814
 20
-1.510999999999967
 10
-2.129000000000814
 20
-0.7249999999997954
 10
-2.308999999999741
 20
-0.7250000000001365
 10
-2.308999999999741
 20
-1.824000000000182
 10
-2.385000000000673
 20
-1.90000000000009
 10
-2.384999999999763
 20
-2.40000000000009
 10
-2.815000000000054
 20
-2.40000000000009
 10
-2.815000000000054
 20
-2.199999999999931
 10
-2.580000000000836
 20
-2.199999999999931
 10
-2.579999999999927
 20
-1.950000000000159
 10
-3.580000000000836
 20
-1.950000000000159
 10
-3.580000000000836
 20
-0.4499999999998181
 10
-2.579999999999927
 20
-0.4499999999998181
 10
-2.580000000000836
 20
-0.0800000000002683
 10
-2.397999999999683
 20
-0.0799999999996999
 10
-2.325499999999919
 20
-0.1525000000001455
 10
-2.0
 20
-0.1525000000001455
 10
-2.0
 20
-0.2024999999974852
 10
-1.950000000000727
 20
-0.2024999999974852
 10
-1.949999999999818
 20
-1.37300000000016
 42
0.4142135623736193
 10
-1.822999999999865
 20
-1.5
 10
1.82300000000032
 20
-1.5
 42
0.4142135623725707
 10
1.949999999999363
 20
-1.37300000000016
 10
1.950000000000272
 20
-0.2024999999974852
 10
2.0
 20
-0.2024999999974852
 10
2.0
 20
-0.1525000000001455
  0
LINE
  5
82
330
2
100
AcDbEntity
  8
3D
100
AcDbLine
 10
-2.1200000000008
 20
-0.5799999999998136
 30
0.0
 11
-2.1200000000008
 21
-2.690216109575203
 31
0.0
  0
MTEXT
  5
83
330
2
100
AcDbEntity
  8
3D
100
AcDbMText
 10
-2.1200000000008
 20
-3.436882776241532
 30
0.0
 40
0.1
 41
0.0
 46
0.0
 71
     5
 72
     1
  1
\A1;2.120 MIN PLATING
  7
SIMPLEX
 11
0.0000000000000001
 21
1.0
 31
0.0
 73
     1
 44
1.0
  0
LINE
  5
84
330
2
100
AcDbEntity
  8
3D
100
AcDbLine
 10
-2.350000000000818
 20
-0.3299999999999272
 30
0.0
 11
-2.350000000000818
 21
-0.4466398011393267
 31
0.0
  0
LINE
  5
85
330
2
100
AcDbEntity
  8
3D
100
AcDbLine
 10
-2.350000000000818
 20
-0.4466398011393267
 30
0.0
 11
-2.480927054838957
 21
-0.6466398011390311
 31
0.0
  0
LINE
  5
86
330
2
100
AcDbEntity
  8
3D
100
AcDbLine
 10
-2.480927054838957
 20
-0.6466398011390311
 30
0.0
 11
-2.480927054838957
 21
-2.690216109575203
 31
0.0
  0
MTEXT
  5
87
330
2
100
AcDbEntity
  8
3D
100
AcDbMText
 10
-2.480927054838957
 20
-3.474978014336784
 30
0.0
 40
0.1
 41
0.0
 46
0.0
 71
     5
 72
     1
  1
\A1;2.350 MAX PLATING
  7
SIMPLEX
 11
0.0000000000000001
 21
1.0
 31
0.0
 73
     1
 44
1.0
  0
LINE
  5
88
330
2
100
AcDbEntity
  8
3D
100
AcDbLine
 10
2.610000000000127
 20
-0.2999999999998408
 30
0.0
 11
3.926034525757131
 21
-0.2999999999998408
 31
0.0
  0
MTEXT
  5
89
330
2
100
AcDbEntity
  8
3D
100
AcDbMText
 10
4.710796430519167
 20
-0.2999999999998408
 30
0.0
 40
0.1
 41
0.0
 46
0.0
 71
     5
 72
     1
  1
\A1;0.300 MAX PLATING
  7
SIMPLEX
 73
     1
 44
1.0
  0
LINE
  5
8A
330
2
100
AcDbEntity
  8
3D
100
AcDbLine
 10
2.380000000000109
 20
-0.5499999999999546
 30
0.0
 11
3.926034525757131
 21
-0.5499999999999546
 31
0.0
  0
MTEXT
  5
8B
330
2
100
AcDbEntity
  8
3D
100
AcDbMText
 10
4.682225001948154
 20
-0.5499999999999546
 30
0.0
 40
0.1
 41
0.0
 46
0.0
 71
     5
 72
     1
  1
\A1;0.550 MIN PLATING
  7
SIMPLEX
 73
     1
 44
1.0
  0
ENDSEC
  0
SECTION
  2
OBJECTS
  0
DICTIONARY
  5
B
330
0
100
AcDbDictionary
281
     1
  3
ACAD_COLOR
350
36
  3
ACAD_GROUP
350
31
  3
ACAD_LAYOUT
350
11
  3
ACAD_MATERIAL
350
D
  3
ACAD_MLEADERSTYLE
350
39
  3
ACAD_MLINESTYLE
350
32
  3
ACAD_PLOTSETTINGS
350
33
  3
ACAD_PLOTSTYLENAME
350
A
  3
ACAD_SCALELIST
350
37
  3
ACAD_TABLESTYLE
350
38
  3
ACAD_VISUALSTYLE
350
28
  3
ACDB_RECOMPOSE_DATA
350
8F
  3
AcDbVariableDictionary
350
3A
  0
DICTIONARY
  5
2A
330
25
100
AcDbDictionary
280
     1
281
     1
  0
DICTIONARY
  5
18
330
17
100
AcDbDictionary
280
     1
281
     1
  3
ACAD_LAYERFILTERS
360
19
  3
ACAD_LAYERSTATES
360
1A
  3
ACLYDICTIONARY
360
1B
  0
DICTIONARY
  5
7
330
6
100
AcDbDictionary
280
     1
281
     1
  3
ADSK_XREC_LAYER_RECONCILED
360
8
  0
DICTIONARY
  5
7F
330
7E
100
AcDbDictionary
280
     1
281
     1
  3
ADSK_XREC_LAYER_RECONCILED
360
80
  0
DICTIONARY
  5
49
330
48
100
AcDbDictionary
280
     1
281
     1
  3
ADSK_XREC_LAYER_RECONCILED
360
4A
  0
DICTIONARY
  5
3
330
2
100
AcDbDictionary
280
     1
281
     1
  3
ACAD_SORTENTS
360
8C
  0
DICTIONARY
  5
36
102
{ACAD_REACTORS
330
B
102
}
330
B
100
AcDbDictionary
281
     1
  0
DICTIONARY
  5
31
102
{ACAD_REACTORS
330
B
102
}
330
B
100
AcDbDictionary
281
     1
  0
DICTIONARY
  5
11
102
{ACAD_REACTORS
330
B
102
}
330
B
100
AcDbDictionary
281
     1
  3
Layout1
350
16
  3
Model
350
10
  0
DICTIONARY
  5
D
102
{ACAD_REACTORS
330
B
102
}
330
B
100
AcDbDictionary
281
     1
  3
ByBlock
350
35
  3
ByLayer
350
34
  3
Global
350
C
  0
DICTIONARY
  5
39
102
{ACAD_REACTORS
330
B
102
}
330
B
100
AcDbDictionary
281
     1
  0
DICTIONARY
  5
32
102
{ACAD_REACTORS
330
B
102
}
330
B
100
AcDbDictionary
281
     1
  3
Standard
350
4C
  0
DICTIONARY
  5
33
102
{ACAD_REACTORS
330
B
102
}
330
B
100
AcDbDictionary
281
     1
  0
ACDBDICTIONARYWDFLT
  5
A
102
{ACAD_REACTORS
330
B
102
}
330
B
100
AcDbDictionary
281
     1
  3
Normal
350
9
100
AcDbDictionaryWithDefault
340
9
  0
DICTIONARY
  5
37
102
{ACAD_REACTORS
330
B
102
}
330
B
100
AcDbDictionary
281
     1
  3
A0
350
51
  3
A1
350
52
  3
A2
350
53
  3
A3
350
54
  3
A4
350
55
  3
A5
350
56
  3
A6
350
57
  3
A7
350
58
  3
A8
350
59
  3
A9
350
5A
  3
B0
350
5B
  3
B1
350
5C
  3
B2
350
5D
  3
B3
350
5E
  3
B4
350
5F
  3
B5
350
60
  3
B6
350
61
  0
DICTIONARY
  5
38
102
{ACAD_REACTORS
330
B
102
}
330
B
100
AcDbDictionary
281
     1
  3
Standard
350
4D
  0
DICTIONARY
  5
28
102
{ACAD_REACTORS
330
B
102
}
330
B
100
AcDbDictionary
281
     1
  3
2dWireframe
350
27
  3
Realistic
350
4F
  3
Wireframe
350
50
  0
XRECORD
  5
8F
102
{ACAD_REACTORS
330
B
102
}
330
B
100
AcDbXrecord
280
     1
 90
        1
330
4D
  0
DICTIONARY
  5
3A
102
{ACAD_REACTORS
330
B
102
}
330
B
100
AcDbDictionary
281
     1
  3
CANNOSCALE
350
3B
  3
CMLEADERSTYLE
350
3C
  3
CTABLESTYLE
350
3D
  3
CVIEWDETAILSTYLE
350
3E
  3
CVIEWSECTIONSTYLE
350
3F
  3
DIMASSOC
350
40
  3
INDEXCTL
350
41
  3
LAYEREVAL
350
42
  3
LAYERNOTIFY
350
43
  3
LIGHTINGUNITS
350
44
  3
MSLTSCALE
350
45
  3
PROJECTNAME
350
46
  3
SORTENTS
350
47
  0
DICTIONARY
  5
19
102
{ACAD_REACTORS
330
18
102
}
330
18
100
AcDbDictionary
281
     1
  0
DICTIONARY
  5
1A
102
{ACAD_REACTORS
330
18
102
}
330
18
100
AcDbDictionary
281
     1
  0
DICTIONARY
  5
1B
102
{ACAD_REACTORS
330
18
102
}
330
18
100
AcDbDictionary
281
     1
1001
ACAD
1000
<All
  0
XRECORD
  5
8
102
{ACAD_REACTORS
330
7
102
}
330
7
100
AcDbXrecord
280
     1
290
     1
  0
XRECORD
  5
80
102
{ACAD_REACTORS
330
7F
102
}
330
7F
100
AcDbXrecord
280
     1
290
     1
  0
XRECORD
  5
4A
102
{ACAD_REACTORS
330
49
102
}
330
49
100
AcDbXrecord
280
     1
290
     1
  0
SORTENTSTABLE
  5
8C
102
{ACAD_REACTORS
330
3
102
}
330
3
100
AcDbSortentsTable
330
2
  0
LAYOUT
  5
16
102
{ACAD_REACTORS
330
11
102
}
330
11
100
AcDbPlotSettings
  1

  2
HP DeskJet 930C/932C/935C
  4

  6

 40
0.0
 41
0.0
 42
0.0
 43
0.0
 44
0.0
 45
0.0
 46
0.0
 47
0.0
 48
0.0
 49
0.0
140
0.0
141
0.0
142
1.0
143
1.0
 70
   688
 72
     0
 73
     0
 74
     5
  7
black.ctb
 75
    16
147
1.0
 76
     0
 77
     2
 78
   300
148
0.0
149
0.0
100
AcDbLayout
  1
Layout1
 70
     1
 71
     1
 10
0.0
 20
0.0
 11
12.0
 21
9.0
 12
0.0
 22
0.0
 32
0.0
 14
1.000000000000000E+20
 24
1.000000000000000E+20
 34
1.000000000000000E+20
 15
-1.000000000000000E+20
 25
-1.000000000000000E+20
 35
-1.000000000000000E+20
146
0.0
 13
0.0
 23
0.0
 33
0.0
 16
1.0
 26
0.0
 36
0.0
 17
0.0
 27
1.0
 37
0.0
 76
     0
330
13
  0
LAYOUT
  5
10
102
{ACAD_REACTORS
330
11
102
}
330
11
100
AcDbPlotSettings
  1

  2
\\kpc384\hp LaserJet 1010
  4
A4
  6

 40
4.603749752044676
 41
8.032736778259277
 42
5.154098510742186
 43
4.9847412109375
 44
210.0156707763672
 45
297.0106506347656
 46
0.0
 47
2.95
 48
127.5662085622847
 49
142.3500281158103
140
136.3772273578069
141
154.5853048439378
142
1.0
143
0.0439983751192775
 70
 11956
 72
     1
 73
     0
 74
     4
  7
black.ctb
 75
     0
147
22.72811205616225
 76
     0
 77
     2
 78
   300
148
-127.5662085622847
149
-142.3500281158103
100
AcDbLayout
  1
Model
 70
     1
 71
     0
 10
0.0
 20
0.0
 11
12.0
 21
9.0
 12
0.0
 22
0.0
 32
0.0
 14
0.0
 24
0.0
 34
0.0
 15
0.0
 25
0.0
 35
0.0
146
0.0
 13
0.0
 23
0.0
 33
0.0
 16
1.0
 26
0.0
 36
0.0
 17
0.0
 27
1.0
 37
0.0
 76
     0
330
2
331
26
1001
ACAD_PSEXT
1000
\\atsnts34\TJ04
1000
HP LaserJet 5100 PCL 6
1000
2f_CAD Rm
1000
10.8.12.60
1070
     0
  0
MATERIAL
  5
35
102
{ACAD_REACTORS
330
D
102
}
330
D
100
AcDbMaterial
  1
ByBlock
 73
     1
 78
     1
172
     1
176
     1
270
     1
274
     1
 94
       63
  0
MATERIAL
  5
34
102
{ACAD_REACTORS
330
D
102
}
330
D
100
AcDbMaterial
  1
ByLayer
 73
     1
 78
     1
172
     1
176
     1
270
     1
274
     1
 94
       63
  0
MATERIAL
  5
C
102
{ACAD_REACTORS
330
D
102
}
330
D
100
AcDbMaterial
  1
Global
 73
     1
 78
     1
172
     1
176
     1
270
     1
274
     1
 94
       63
  0
MLINESTYLE
  5
4C
102
{ACAD_REACTORS
330
32
102
}
330
32
100
AcDbMlineStyle
  2
STANDARD
 70
     0
  3

 62
   256
 51
90.0
 52
90.0
 71
     2
 49
0.5
 62
   256
  6
BYLAYER
 49
-0.5
 62
   256
  6
BYLAYER
  0
ACDBPLACEHOLDER
  5
9
102
{ACAD_REACTORS
330
A
102
}
330
A
  0
SCALE
  5
51
102
{ACAD_REACTORS
330
37
102
}
330
37
100
AcDbScale
 70
     0
300
1:1
140
1.0
141
1.0
290
     1
  0
SCALE
  5
52
102
{ACAD_REACTORS
330
37
102
}
330
37
100
AcDbScale
 70
     0
300
1/128" = 1'-0"
140
0.0078125
141
12.0
290
     0
  0
SCALE
  5
53
102
{ACAD_REACTORS
330
37
102
}
330
37
100
AcDbScale
 70
     0
300
1/64" = 1'-0"
140
0.015625
141
12.0
290
     0
  0
SCALE
  5
54
102
{ACAD_REACTORS
330
37
102
}
330
37
100
AcDbScale
 70
     0
300
1/32" = 1'-0"
140
0.03125
141
12.0
290
     0
  0
SCALE
  5
55
102
{ACAD_REACTORS
330
37
102
}
330
37
100
AcDbScale
 70
     0
300
1/16" = 1'-0"
140
0.0625
141
12.0
290
     0
  0
SCALE
  5
56
102
{ACAD_REACTORS
330
37
102
}
330
37
100
AcDbScale
 70
     0
300
3/32" = 1'-0"
140
0.09375
141
12.0
290
     0
  0
SCALE
  5
57
102
{ACAD_REACTORS
330
37
102
}
330
37
100
AcDbScale
 70
     0
300
1/8" = 1'-0"
140
0.125
141
12.0
290
     0
  0
SCALE
  5
58
102
{ACAD_REACTORS
330
37
102
}
330
37
100
AcDbScale
 70
     0
300
3/16" = 1'-0"
140
0.1875
141
12.0
290
     0
  0
SCALE
  5
59
102
{ACAD_REACTORS
330
37
102
}
330
37
100
AcDbScale
 70
     0
300
1/4" = 1'-0"
140
0.25
141
12.0
290
     0
  0
SCALE
  5
5A
102
{ACAD_REACTORS
330
37
102
}
330
37
100
AcDbScale
 70
     0
300
3/8" = 1'-0"
140
0.375
141
12.0
290
     0
  0
SCALE
  5
5B
102
{ACAD_REACTORS
330
37
102
}
330
37
100
AcDbScale
 70
     0
300
1/2" = 1'-0"
140
0.5
141
12.0
290
     0
  0
SCALE
  5
5C
102
{ACAD_REACTORS
330
37
102
}
330
37
100
AcDbScale
 70
     0
300
3/4" = 1'-0"
140
0.75
141
12.0
290
     0
  0
SCALE
  5
5D
102
{ACAD_REACTORS
330
37
102
}
330
37
100
AcDbScale
 70
     0
300
1" = 1'-0"
140
1.0
141
12.0
290
     0
  0
SCALE
  5
5E
102
{ACAD_REACTORS
330
37
102
}
330
37
100
AcDbScale
 70
     0
300
1-1/2" = 1'-0"
140
1.5
141
12.0
290
     0
  0
SCALE
  5
5F
102
{ACAD_REACTORS
330
37
102
}
330
37
100
AcDbScale
 70
     0
300
3" = 1'-0"
140
3.0
141
12.0
290
     0
  0
SCALE
  5
60
102
{ACAD_REACTORS
330
37
102
}
330
37
100
AcDbScale
 70
     0
300
6" = 1'-0"
140
6.0
141
12.0
290
     0
  0
SCALE
  5
61
102
{ACAD_REACTORS
330
37
102
}
330
37
100
AcDbScale
 70
     0
300
1'-0" = 1'-0"
140
12.0
141
12.0
290
     0
  0
TABLESTYLE
  5
4D
102
{ACAD_XDICTIONARY
360
4E
102
}
102
{ACAD_REACTORS
330
38
102
}
330
38
100
AcDbTableStyle
280
     0
  3
Standard
 70
     0
 71
     0
 40
0.06
 41
0.06
280
     0
281
     0
  7
Standard
140
0.18
170
     2
 62
     0
 63
     7
283
     0
 90
        4
 91
        0
  1

274
    -2
284
     1
 64
     0
275
    -2
285
     1
 65
     0
276
    -2
286
     1
 66
     0
277
    -2
287
     1
 67
     0
278
    -2
288
     1
 68
     0
279
    -2
289
     1
 69
     0
  7
Standard
140
0.25
170
     5
 62
     0
 63
     7
283
     0
 90
        4
 91
        0
  1

274
    -2
284
     1
 64
     0
275
    -2
285
     1
 65
     0
276
    -2
286
     1
 66
     0
277
    -2
287
     1
 67
     0
278
    -2
288
     1
 68
     0
279
    -2
289
     1
 69
     0
  7
Standard
140
0.18
170
     5
 62
     0
 63
     7
283
     0
 90
        4
 91
        0
  1

274
    -2
284
     1
 64
     0
275
    -2
285
     1
 65
     0
276
    -2
286
     1
 66
     0
277
    -2
287
     1
 67
     0
278
    -2
288
     1
 68
     0
279
    -2
289
     1
 69
     0
  0
VISUALSTYLE
  5
27
102
{ACAD_REACTORS
330
28
102
}
330
28
100
AcDbVisualStyle
  2
2dWireframe
 70
     4
177
     3
291
     0
 70
    58
 90
        0
176
     1
 90
        2
176
     1
 90
        0
176
     1
 90
        0
176
     1
 40
0.6
176
     1
 40
30.0
176
     1
 62
     7
176
     1
 90
        1
176
     1
 90
        4
176
     1
 62
     7
176
     1
 62
   257
176
     1
 90
        1
176
     1
 90
        1
176
     1
 40
1.0
176
     1
 90
        0
176
     1
 62
   257
176
     1
 40
1.0
176
     1
 90
        1
176
     1
 90
        6
176
     1
 90
        2
176
     1
 62
     7
176
     1
 90
        5
176
     1
 90
        0
176
     1
 90
        0
176
     1
290
     0
176
     1
 90
        1
176
     1
 40
0.0
176
     1
 90
        0
176
     1
290
     1
176
     1
290
     1
176
     1
290
     0
176
     1
290
     0
176
     1
290
     0
176
     1
290
     0
176
     1
290
     0
176
     1
290
     0
176
     1
290
     0
176
     1
 90
       50
176
     1
 40
0.0
176
     1
 40
1.0
176
     1
 90
        0
176
     1
 62
    18
176
     1
 90
       50
176
     1
 90
        3
176
     1
 62
     5
420
      255
176
     1
290
     0
176
     1
 90
       50
176
     1
 90
       50
176
     1
 90
       50
176
     1
290
     0
176
     1
 90
       50
176
     1
 62
   256
176
     0
 40
1.0
176
     0
 90
        2
176
     1
  1
strokes_ogs.tif
176
     1
290
     0
176
     1
 40
1.0
176
     1
 40
1.0
176
     1
1001
ACAD
1000
AcRTDxfName
1000
VISUALSTYLE
1000
AcRTDxfName
1000
VISUALSTYLE
1000
AcRTDxfName
1000
VISUALSTYLE
1000
AcRTDxfName
1000
VISUALSTYLE
1000
AcRTDxfName
1000
VISUALSTYLE
1000
AcRTDxfName
1000
VISUALSTYLE
1000
AcRTDxfName
1000
VISUALSTYLE
1000
AcRTDxfName
1000
VISUALSTYLE
1000
AcRTDxfName
1000
VISUALSTYLE
1000
AcRTDxfName
1000
VISUALSTYLE
1000
AcRTDxfName
1000
VISUALSTYLE
1000
AcRTDxfName
1000
VISUALSTYLE
  0
VISUALSTYLE
  5
4F
102
{ACAD_REACTORS
330
28
102
}
330
28
100
AcDbVisualStyle
  2
Realistic
 70
     8
177
     3
291
     0
 70
    58
 90
        2
176
     1
 90
        2
176
     1
 90
        0
176
     1
 90
        0
176
     1
 40
0.6
176
     1
 40
30.0
176
     1
 62
     7
176
     1
 90
        1
176
     1
 90
        0
176
     1
 62
     7
176
     1
 62
   257
176
     1
 90
        1
176
     1
 90
        1
176
     1
 40
1.0
176
     1
 90
        8
176
     1
 62
     8
176
     1
 40
1.0
176
     1
 90
        1
176
     1
 90
        6
176
     1
 90
        2
176
     1
 62
     7
176
     1
 90
        5
176
     1
 90
        0
176
     1
 90
        0
176
     1
290
     0
176
     1
 90
       13
176
     1
 40
0.0
176
     1
 90
        0
176
     1
290
     0
176
     1
290
     1
176
     1
290
     1
176
     1
290
     0
176
     1
290
     0
176
     1
290
     0
176
     1
290
     0
176
     1
290
     0
176
     1
290
     0
176
     1
 90
       50
176
     1
 40
0.0
176
     1
 40
1.0
176
     1
 90
        0
176
     1
 62
    18
176
     1
 90
       50
176
     1
 90
        3
176
     1
 62
     5
420
      255
176
     1
290
     0
176
     1
 90
       50
176
     1
 90
       50
176
     1
 90
       50
176
     1
290
     0
176
     1
 90
       50
176
     1
 62
   256
176
     0
 40
1.0
176
     0
 90
        2
176
     1
  1
strokes_ogs.tif
176
     1
290
     0
176
     1
 40
1.0
176
     1
 40
1.0
176
     1
1001
ACAD
1000
AcRTDxfName
1000
VISUALSTYLE
1000
AcRTDxfName
1000
VISUALSTYLE
1000
AcRTDxfName
1000
VISUALSTYLE
1000
AcRTDxfName
1000
VISUALSTYLE
1000
AcRTDxfName
1000
VISUALSTYLE
1000
AcRTDxfName
1000
VISUALSTYLE
1000
AcRTDxfName
1000
VISUALSTYLE
1000
AcRTDxfName
1000
VISUALSTYLE
1000
AcRTDxfName
1000
VISUALSTYLE
1000
AcRTDxfName
1000
VISUALSTYLE
1000
AcRTDxfName
1000
VISUALSTYLE
1000
AcRTDxfName
1000
VISUALSTYLE
  0
VISUALSTYLE
  5
50
102
{ACAD_REACTORS
330
28
102
}
330
28
100
AcDbVisualStyle
  2
Wireframe
 70
     5
177
     3
291
     0
 70
    58
 90
        0
176
     1
 90
        2
176
     1
 90
        0
176
     1
 90
        0
176
     1
 40
0.6
176
     1
 40
30.0
176
     1
 62
     7
420
 16777215
176
     1
 90
        1
176
     1
 90
        4
176
     1
 62
     7
176
     1
 62
   257
176
     1
 90
        1
176
     1
 90
        1
176
     1
 40
1.0
176
     1
 90
        0
176
     1
 62
   257
176
     1
 40
1.0
176
     1
 90
        1
176
     1
 90
        6
176
     1
 90
        2
176
     1
 62
     7
176
     1
 90
        3
176
     1
 90
        0
176
     1
 90
        0
176
     1
290
     0
176
     1
 90
        1
176
     1
 40
0.0
176
     1
 90
        0
176
     1
290
     0
176
     1
290
     1
176
     1
290
     1
176
     1
290
     0
176
     1
290
     0
176
     1
290
     0
176
     1
290
     0
176
     1
290
     0
176
     1
290
     0
176
     1
 90
       50
176
     1
 40
0.0
176
     1
 40
1.0
176
     1
 90
        0
176
     1
 62
    18
176
     1
 90
       50
176
     1
 90
        3
176
     1
 62
     5
420
      255
176
     1
290
     0
176
     1
 90
       50
176
     1
 90
       50
176
     1
 90
       50
176
     1
290
     0
176
     1
 90
       50
176
     1
 62
   256
176
     0
 40
1.0
176
     0
 90
        2
176
     1
  1
strokes_ogs.tif
176
     1
290
     0
176
     1
 40
1.0
176
     1
 40
1.0
176
     1
  0
DICTIONARYVAR
  5
3B
102
{ACAD_REACTORS
330
3A
102
}
330
3A
100
DictionaryVariables
280
     0
  1
1:1
  0
DICTIONARYVAR
  5
3C
102
{ACAD_REACTORS
330
3A
102
}
330
3A
100
DictionaryVariables
280
     0
  1
STANDARD
  0
DICTIONARYVAR
  5
3D
102
{ACAD_REACTORS
330
3A
102
}
330
3A
100
DictionaryVariables
280
     0
  1
STANDARD
  0
DICTIONARYVAR
  5
3E
102
{ACAD_REACTORS
330
3A
102
}
330
3A
100
DictionaryVariables
280
     0
  1

  0
DICTIONARYVAR
  5
3F
102
{ACAD_REACTORS
330
3A
102
}
330
3A
100
DictionaryVariables
280
     0
  1

  0
DICTIONARYVAR
  5
40
102
{ACAD_REACTORS
330
3A
102
}
330
3A
100
DictionaryVariables
280
     0
  1
0
  0
DICTIONARYVAR
  5
41
102
{ACAD_REACTORS
330
3A
102
}
330
3A
100
DictionaryVariables
280
     0
  1
0
  0
DICTIONARYVAR
  5
42
102
{ACAD_REACTORS
330
3A
102
}
330
3A
100
DictionaryVariables
280
     0
  1
1
  0
DICTIONARYVAR
  5
43
102
{ACAD_REACTORS
330
3A
102
}
330
3A
100
DictionaryVariables
280
     0
  1
15
  0
DICTIONARYVAR
  5
44
102
{ACAD_REACTORS
330
3A
102
}
330
3A
100
DictionaryVariables
280
     0
  1
0
  0
DICTIONARYVAR
  5
45
102
{ACAD_REACTORS
330
3A
102
}
330
3A
100
DictionaryVariables
280
     0
  1
0
  0
DICTIONARYVAR
  5
46
102
{ACAD_REACTORS
330
3A
102
}
330
3A
100
DictionaryVariables
280
     0
  1

  0
DICTIONARYVAR
  5
47
102
{ACAD_REACTORS
330
3A
102
}
330
3A
100
DictionaryVariables
280
     0
  1
127
  0
DICTIONARY
  5
4E
330
4D
100
AcDbDictionary
280
     1
281
     1
  3
ACAD_ROUNDTRIP_2008_TABLESTYLE_CELLSTYLEMAP
360
8E
  0
CELLSTYLEMAP
  5
8E
102
{ACAD_REACTORS
330
4E
102
}
330
4E
100
AcDbCellStyleMap
 90
        3
300
CELLSTYLE
  1
TABLEFORMAT_BEGIN
 90
        5
170
     1
 91
        0
 92
    32768
 62
   257
 93
        1
300
CONTENTFORMAT
  1
CONTENTFORMAT_BEGIN
 90
        0
 91
        0
 92
        4
 93
        0
300

 40
0.0
140
1.0
 94
        5
 62
     0
340
1E
144
0.25
309
CONTENTFORMAT_END
171
     1
301
MARGIN
  1
CELLMARGIN_BEGIN
 40
0.06
 40
0.06
 40
0.06
 40
0.06
 40
0.18
 40
0.18
309
CELLMARGIN_END
 94
        6
 95
        1
302
GRIDFORMAT
  1
GRIDFORMAT_BEGIN
 90
        0
 91
        1
 62
     0
 92
       -2
340
0
 93
        0
 40
0.045
309
GRIDFORMAT_END
 95
        2
302
GRIDFORMAT
  1
GRIDFORMAT_BEGIN
 90
        0
 91
        1
 62
     0
 92
       -2
340
0
 93
        0
 40
0.045
309
GRIDFORMAT_END
 95
        4
302
GRIDFORMAT
  1
GRIDFORMAT_BEGIN
 90
        0
 91
        1
 62
     0
 92
       -2
340
0
 93
        0
 40
0.045
309
GRIDFORMAT_END
 95
        8
302
GRIDFORMAT
  1
GRIDFORMAT_BEGIN
 90
        0
 91
        1
 62
     0
 92
       -2
340
0
 93
        0
 40
0.045
309
GRIDFORMAT_END
 95
       16
302
GRIDFORMAT
  1
GRIDFORMAT_BEGIN
 90
        0
 91
        1
 62
     0
 92
       -2
340
0
 93
        0
 40
0.045
309
GRIDFORMAT_END
 95
       32
302
GRIDFORMAT
  1
GRIDFORMAT_BEGIN
 90
        0
 91
        1
 62
     0
 92
       -2
340
0
 93
        0
 40
0.045
309
GRIDFORMAT_END
309
TABLEFORMAT_END
  1
CELLSTYLE_BEGIN
 90
        1
 91
        1
300
_TITLE
309
CELLSTYLE_END
300
CELLSTYLE
  1
TABLEFORMAT_BEGIN
 90
        5
170
     1
 91
        0
 92
        0
 62
   257
 93
        1
300
CONTENTFORMAT
  1
CONTENTFORMAT_BEGIN
 90
        0
 91
        0
 92
        4
 93
        0
300

 40
0.0
140
1.0
 94
        5
 62
     0
340
1E
144
0.18
309
CONTENTFORMAT_END
171
     1
301
MARGIN
  1
CELLMARGIN_BEGIN
 40
0.06
 40
0.06
 40
0.06
 40
0.06
 40
0.18
 40
0.18
309
CELLMARGIN_END
 94
        6
 95
        1
302
GRIDFORMAT
  1
GRIDFORMAT_BEGIN
 90
        0
 91
        1
 62
     0
 92
       -2
340
0
 93
        0
 40
0.045
309
GRIDFORMAT_END
 95
        2
302
GRIDFORMAT
  1
GRIDFORMAT_BEGIN
 90
        0
 91
        1
 62
     0
 92
       -2
340
0
 93
        0
 40
0.045
309
GRIDFORMAT_END
 95
        4
302
GRIDFORMAT
  1
GRIDFORMAT_BEGIN
 90
        0
 91
        1
 62
     0
 92
       -2
340
0
 93
        0
 40
0.045
309
GRIDFORMAT_END
 95
        8
302
GRIDFORMAT
  1
GRIDFORMAT_BEGIN
 90
        0
 91
        1
 62
     0
 92
       -2
340
0
 93
        0
 40
0.045
309
GRIDFORMAT_END
 95
       16
302
GRIDFORMAT
  1
GRIDFORMAT_BEGIN
 90
        0
 91
        1
 62
     0
 92
       -2
340
0
 93
        0
 40
0.045
309
GRIDFORMAT_END
 95
       32
302
GRIDFORMAT
  1
GRIDFORMAT_BEGIN
 90
        0
 91
        1
 62
     0
 92
       -2
340
0
 93
        0
 40
0.045
309
GRIDFORMAT_END
309
TABLEFORMAT_END
  1
CELLSTYLE_BEGIN
 90
        2
 91
        1
300
_HEADER
309
CELLSTYLE_END
300
CELLSTYLE
  1
TABLEFORMAT_BEGIN
 90
        5
170
     1
 91
        0
 92
        0
 62
   257
 93
        1
300
CONTENTFORMAT
  1
CONTENTFORMAT_BEGIN
 90
        0
 91
        0
 92
        4
 93
        0
300

 40
0.0
140
1.0
 94
        2
 62
     0
340
1E
144
0.18
309
CONTENTFORMAT_END
171
     1
301
MARGIN
  1
CELLMARGIN_BEGIN
 40
0.06
 40
0.06
 40
0.06
 40
0.06
 40
0.18
 40
0.18
309
CELLMARGIN_END
 94
        6
 95
        1
302
GRIDFORMAT
  1
GRIDFORMAT_BEGIN
 90
        0
 91
        1
 62
     0
 92
       -2
340
0
 93
        0
 40
0.045
309
GRIDFORMAT_END
 95
        2
302
GRIDFORMAT
  1
GRIDFORMAT_BEGIN
 90
        0
 91
        1
 62
     0
 92
       -2
340
0
 93
        0
 40
0.045
309
GRIDFORMAT_END
 95
        4
302
GRIDFORMAT
  1
GRIDFORMAT_BEGIN
 90
        0
 91
        1
 62
     0
 92
       -2
340
0
 93
        0
 40
0.045
309
GRIDFORMAT_END
 95
        8
302
GRIDFORMAT
  1
GRIDFORMAT_BEGIN
 90
        0
 91
        1
 62
     0
 92
       -2
340
0
 93
        0
 40
0.045
309
GRIDFORMAT_END
 95
       16
302
GRIDFORMAT
  1
GRIDFORMAT_BEGIN
 90
        0
 91
        1
 62
     0
 92
       -2
340
0
 93
        0
 40
0.045
309
GRIDFORMAT_END
 95
       32
302
GRIDFORMAT
  1
GRIDFORMAT_BEGIN
 90
        0
 91
        1
 62
     0
 92
       -2
340
0
 93
        0
 40
0.045
309
GRIDFORMAT_END
309
TABLEFORMAT_END
  1
CELLSTYLE_BEGIN
 90
        3
 91
        2
300
_DATA
309
CELLSTYLE_END
  0
ENDSEC
  0
EOF
