  0
SECTION
  2
HEADER
  9
$ACADVER
  1
AC1032
  9
$ACADMAINTVER
 90
      248
  9
$DWGCODEPAGE
  3
ANSI_936
  9
$REQUIREDVERSIONS
160
                 0
  9
$INSBASE
 10
0.0
 20
0.0
 30
0.0
  9
$EXTMIN
 10
2033.716402903962
 20
-822.8898716695653
 30
0.0
  9
$EXTMAX
 10
2176.948169714441
 20
-701.1579097702714
 30
0.0
  9
$LIMMIN
 10
0.0
 20
0.0
  9
$LIMMAX
 10
12.0
 20
9.0
  9
$ORTHOMODE
 70
     1
  9
$REGENMODE
 70
     1
  9
$FILLMODE
 70
     1
  9
$QTEXTMODE
 70
     0
  9
$MIRRTEXT
 70
     0
  9
$LTSCALE
 40
1.0
  9
$ATTMODE
 70
     1
  9
$TEXTSIZE
 40
0.45
  9
$TRACEWID
 40
0.05
  9
$TEXTSTYLE
  7
Standard
  9
$CLAYER
  8
3D
  9
$CELTYPE
  6
ByLayer
  9
$CECOLOR
 62
   256
  9
$CELTSCALE
 40
1.0
  9
$DISPSILH
 70
     0
  9
$DIMSCALE
 40
0.1
  9
$DIMASZ
 40
1.0
  9
$DIMEXO
 40
0.3
  9
$DIMDLI
 40
0.3
  9
$DIMRND
 40
0.0
  9
$DIMDLE
 40
0.0
  9
$DIMEXE
 40
0.3
  9
$DIMTP
 40
0.0
  9
$DIMTM
 40
1.25
  9
$DIMTXT
 40
1.0
  9
$DIMCEN
 40
0.5
  9
$DIMTSZ
 40
0.0
  9
$DIMTOL
 70
     0
  9
$DIMLIM
 70
     0
  9
$DIMTIH
 70
     1
  9
$DIMTOH
 70
     1
  9
$DIMSE1
 70
     0
  9
$DIMSE2
 70
     0
  9
$DIMTAD
 70
     0
  9
$DIMZIN
 70
     1
  9
$DIMBLK
  1

  9
$DIMASO
 70
     0
  9
$DIMSHO
 70
     1
  9
$DIMPOST
  1

  9
$DIMAPOST
  1

  9
$DIMALT
 70
     0
  9
$DIMALTD
 70
     2
  9
$DIMALTF
 40
25.4
  9
$DIMLFAC
 40
1.0
  9
$DIMTOFL
 70
     0
  9
$DIMTVP
 40
0.0
  9
$DIMTIX
 70
     0
  9
$DIMSOXD
 70
     0
  9
$DIMSAH
 70
     0
  9
$DIMBLK1
  1

  9
$DIMBLK2
  1

  9
$DIMSTYLE
  2
Standard
  9
$DIMCLRD
 70
   256
  9
$DIMCLRE
 70
   256
  9
$DIMCLRT
 70
   256
  9
$DIMTFAC
 40
1.0
  9
$DIMGAP
 40
0.3
  9
$DIMJUST
 70
     0
  9
$DIMSD1
 70
     0
  9
$DIMSD2
 70
     0
  9
$DIMTOLJ
 70
     1
  9
$DIMTZIN
 70
     0
  9
$DIMALTZ
 70
     0
  9
$DIMALTTZ
 70
     0
  9
$DIMUPT
 70
     0
  9
$DIMDEC
 70
     3
  9
$DIMTDEC
 70
     3
  9
$DIMALTU
 70
     2
  9
$DIMALTTD
 70
     2
  9
$DIMTXSTY
  7
SIMPLEX
  9
$DIMAUNIT
 70
     0
  9
$DIMADEC
 70
     0
  9
$DIMALTRND
 40
0.0
  9
$DIMAZIN
 70
     0
  9
$DIMDSEP
 70
    46
  9
$DIMATFIT
 70
     3
  9
$DIMFRAC
 70
     0
  9
$DIMLDRBLK
  1

  9
$DIMLUNIT
 70
     2
  9
$DIMLWD
 70
    -1
  9
$DIMLWE
 70
    -1
  9
$DIMTMOVE
 70
     0
  9
$DIMFXL
 40
0.0072
  9
$DIMFXLON
 70
     0
  9
$DIMJOGANG
 40
0.7853981633974483
  9
$DIMTFILL
 70
     0
  9
$DIMTFILLCLR
 70
     0
  9
$DIMARCSYM
 70
     0
  9
$DIMLTYPE
  6
ByLayer
  9
$DIMLTEX1
  6
ByLayer
  9
$DIMLTEX2
  6
ByLayer
  9
$DIMTXTDIRECTION
 70
     0
  9
$LUNITS
 70
     2
  9
$LUPREC
 70
     8
  9
$SKETCHINC
 40
0.1
  9
$FILLETRAD
 40
0.127
  9
$AUNITS
 70
     0
  9
$AUPREC
 70
     0
  9
$MENU
  1
.
  9
$ELEVATION
 40
0.0
  9
$PELEVATION
 40
0.0
  9
$THICKNESS
 40
0.0
  9
$LIMCHECK
 70
     0
  9
$CHAMFERA
 40
0.0
  9
$CHAMFERB
 40
0.0
  9
$CHAMFERC
 40
1.0
  9
$CHAMFERD
 40
0.0
  9
$SKPOLY
 70
     0
  9
$TDCREATE
 40
2453883.125682871
  9
$TDUCREATE
 40
2453882.792357350
  9
$TDUPDATE
 40
2460607.487500000
  9
$TDUUPDATE
 40
2460607.154166667
  9
$TDINDWG
 40
9.4780450116
  9
$TDUSRTIMER
 40
9.4780450116
  9
$USRTIMER
 70
     1
  9
$ANGBASE
 50
0.0
  9
$ANGDIR
 70
     0
  9
$PDMODE
 70
     0
  9
$PDSIZE
 40
0.0
  9
$PLINEWID
 40
0.0
  9
$SPLFRAME
 70
     0
  9
$SPLINETYPE
 70
     6
  9
$SPLINESEGS
 70
     8
  9
$HANDSEED
  5
15E
  9
$SURFTAB1
 70
     6
  9
$SURFTAB2
 70
     6
  9
$SURFTYPE
 70
     6
  9
$SURFU
 70
     6
  9
$SURFV
 70
     6
  9
$UCSBASE
  2

  9
$UCSNAME
  2

  9
$UCSORG
 10
0.0
 20
0.0
 30
0.0
  9
$UCSXDIR
 10
1.0
 20
0.0
 30
0.0
  9
$UCSYDIR
 10
0.0
 20
1.0
 30
0.0
  9
$UCSORTHOREF
  2

  9
$UCSORTHOVIEW
 70
     0
  9
$UCSORGTOP
 10
0.0
 20
0.0
 30
0.0
  9
$UCSORGBOTTOM
 10
0.0
 20
0.0
 30
0.0
  9
$UCSORGLEFT
 10
0.0
 20
0.0
 30
0.0
  9
$UCSORGRIGHT
 10
0.0
 20
0.0
 30
0.0
  9
$UCSORGFRONT
 10
0.0
 20
0.0
 30
0.0
  9
$UCSORGBACK
 10
0.0
 20
0.0
 30
0.0
  9
$PUCSBASE
  2

  9
$PUCSNAME
  2

  9
$PUCSORG
 10
0.0
 20
0.0
 30
0.0
  9
$PUCSXDIR
 10
1.0
 20
0.0
 30
0.0
  9
$PUCSYDIR
 10
0.0
 20
1.0
 30
0.0
  9
$PUCSORTHOREF
  2

  9
$PUCSORTHOVIEW
 70
     0
  9
$PUCSORGTOP
 10
0.0
 20
0.0
 30
0.0
  9
$PUCSORGBOTTOM
 10
0.0
 20
0.0
 30
0.0
  9
$PUCSORGLEFT
 10
0.0
 20
0.0
 30
0.0
  9
$PUCSORGRIGHT
 10
0.0
 20
0.0
 30
0.0
  9
$PUCSORGFRONT
 10
0.0
 20
0.0
 30
0.0
  9
$PUCSORGBACK
 10
0.0
 20
0.0
 30
0.0
  9
$USERI1
 70
     0
  9
$USERI2
 70
     0
  9
$USERI3
 70
     0
  9
$USERI4
 70
     0
  9
$USERI5
 70
     0
  9
$USERR1
 40
0.0
  9
$USERR2
 40
0.0
  9
$USERR3
 40
0.0
  9
$USERR4
 40
0.0
  9
$USERR5
 40
0.0
  9
$WORLDVIEW
 70
     1
  9
$SHADEDGE
 70
     3
  9
$SHADEDIF
 70
    70
  9
$TILEMODE
 70
     1
  9
$MAXACTVP
 70
    64
  9
$PINSBASE
 10
0.0
 20
0.0
 30
0.0
  9
$PLIMCHECK
 70
     0
  9
$PEXTMIN
 10
1.000000000000000E+20
 20
1.000000000000000E+20
 30
1.000000000000000E+20
  9
$PEXTMAX
 10
-1.000000000000000E+20
 20
-1.000000000000000E+20
 30
-1.000000000000000E+20
  9
$PLIMMIN
 10
0.0
 20
0.0
  9
$PLIMMAX
 10
12.0
 20
9.0
  9
$UNITMODE
 70
     0
  9
$VISRETAIN
 70
     1
  9
$PLINEGEN
 70
     0
  9
$PSLTSCALE
 70
     1
  9
$TREEDEPTH
 70
  3020
  9
$CMLSTYLE
  2
Standard
  9
$CMLJUST
 70
     0
  9
$CMLSCALE
 40
1.0
  9
$PROXYGRAPHICS
 70
     1
  9
$MEASUREMENT
 70
     0
  9
$CELWEIGHT
370
    -1
  9
$ENDCAPS
280
     0
  9
$JOINSTYLE
280
     0
  9
$LWDISPLAY
290
     0
  9
$INSUNITS
 70
     1
  9
$HYPERLINKBASE
  1

  9
$STYLESHEET
  1

  9
$XEDIT
290
     1
  9
$CEPSNTYPE
380
     0
  9
$PSTYLEMODE
290
     1
  9
$FINGERPRINTGUID
  2
{AE9559DF-14B4-F245-9573-A6F6381FC652}
  9
$VERSIONGUID
  2
{52420FAE-9E84-488A-8B15-DB8900584E96}
  9
$EXTNAMES
290
     1
  9
$PSVPSCALE
 40
0.0
  9
$OLESTARTUP
290
     0
  9
$SORTENTS
280
   127
  9
$INDEXCTL
280
     0
  9
$HIDETEXT
280
     1
  9
$XCLIPFRAME
280
     2
  9
$HALOGAP
280
     0
  9
$OBSCOLOR
 70
   257
  9
$OBSLTYPE
280
     0
  9
$INTERSECTIONDISPLAY
280
     0
  9
$INTERSECTIONCOLOR
 70
   257
  9
$DIMASSOC
280
     0
  9
$PROJECTNAME
  1

  9
$CAMERADISPLAY
290
     0
  9
$LENSLENGTH
 40
50.0
  9
$CAMERAHEIGHT
 40
0.0
  9
$STEPSPERSEC
 40
2.0
  9
$STEPSIZE
 40
6.0
  9
$3DDWFPREC
 40
2.0
  9
$PSOLWIDTH
 40
0.25
  9
$PSOLHEIGHT
 40
4.0
  9
$LOFTANG1
 40
1.570796326794896
  9
$LOFTANG2
 40
1.570796326794896
  9
$LOFTMAG1
 40
0.0
  9
$LOFTMAG2
 40
0.0
  9
$LOFTPARAM
 70
     7
  9
$LOFTNORMALS
280
     1
  9
$LATITUDE
 40
37.795
  9
$LONGITUDE
 40
-122.394
  9
$NORTHDIRECTION
 40
0.0
  9
$TIMEZONE
 70
 -8000
  9
$LIGHTGLYPHDISPLAY
280
     1
  9
$TILEMODELIGHTSYNCH
280
     1
  9
$CMATERIAL
347
34
  9
$SOLIDHIST
280
     0
  9
$SHOWHIST
280
     1
  9
$DWFFRAME
280
     2
  9
$DGNFRAME
280
     0
  9
$REALWORLDSCALE
290
     1
  9
$INTERFERECOLOR
 62
     1
  9
$INTERFEREOBJVS
345
4F
  9
$INTERFEREVPVS
346
50
  9
$CSHADOW
280
     0
  9
$SHADOWPLANELOCATION
 40
0.0
  0
ENDSEC
  0
SECTION
  2
CLASSES
  0
CLASS
  1
ACDBDICTIONARYWDFLT
  2
AcDbDictionaryWithDefault
  3
ObjectDBX Classes
 90
        0
 91
        1
280
     0
281
     0
  0
CLASS
  1
DICTIONARYVAR
  2
AcDbDictionaryVar
  3
ObjectDBX Classes
 90
        0
 91
       13
280
     0
281
     0
  0
CLASS
  1
TABLESTYLE
  2
AcDbTableStyle
  3
ObjectDBX Classes
 90
     4095
 91
        1
280
     0
281
     0
  0
CLASS
  1
SORTENTSTABLE
  2
AcDbSortentsTable
  3
ObjectDBX Classes
 90
        0
 91
        2
280
     0
281
     0
  0
CLASS
  1
VISUALSTYLE
  2
AcDbVisualStyle
  3
ObjectDBX Classes
 90
     4095
 91
        3
280
     0
281
     0
  0
CLASS
  1
MATERIAL
  2
AcDbMaterial
  3
ObjectDBX Classes
 90
     1153
 91
        3
280
     0
281
     0
  0
CLASS
  1
EXACXREFPANELOBJECT
  2
ExAcXREFPanelObject
  3
EXAC_ESW
 90
     1025
 91
        0
280
     1
281
     0
  0
CLASS
  1
NPOCOLLECTION
  2
AcDbImpNonPersistentObjectsCollection
  3
ObjectDBX Classes
 90
     1153
 91
        0
280
     0
281
     0
  0
CLASS
  1
DIMASSOC
  2
AcDbDimAssoc
  3
"AcDbDimAssoc|Product Desc:     AcDim ARX App For Dimension|Company:          Autodesk, Inc.|WEB Address:      www.autodesk.com"
 90
        0
 91
        0
280
     0
281
     0
  0
CLASS
  1
SCALE
  2
AcDbScale
  3
ObjectDBX Classes
 90
     1153
 91
       17
280
     0
281
     0
  0
CLASS
  1
MLEADERSTYLE
  2
AcDbMLeaderStyle
  3
ACDB_MLEADERSTYLE_CLASS
 90
     4095
 91
        0
280
     0
281
     0
  0
CLASS
  1
ACDBSECTIONVIEWSTYLE
  2
AcDbSectionViewStyle
  3
ObjectDBX Classes
 90
     1025
 91
        0
280
     0
281
     0
  0
CLASS
  1
ACDBDETAILVIEWSTYLE
  2
AcDbDetailViewStyle
  3
ObjectDBX Classes
 90
     1025
 91
        0
280
     0
281
     0
  0
CLASS
  1
CELLSTYLEMAP
  2
AcDbCellStyleMap
  3
ObjectDBX Classes
 90
     1152
 91
        1
280
     0
281
     0
  0
CLASS
  1
SOLID_BACKGROUND
  2
AcDbSolidBackground
  3
SCENEOE
 90
     4095
 91
        0
280
     0
281
     0
  0
ENDSEC
  0
SECTION
  2
TABLES
  0
TABLE
  2
VPORT
  5
25
102
{ACAD_XDICTIONARY
360
2A
102
}
330
0
100
AcDbSymbolTable
 70
     1
  0
VPORT
  5
26
330
25
100
AcDbSymbolTableRecord
100
AcDbViewportTableRecord
  2
*Active
 70
     0
 10
0.0
 20
0.0
 11
1.0
 21
1.0
 12
2168.481822502613
 22
-710.3931047539604
 13
0.0
 23
0.0
 14
0.5
 24
0.5
 15
0.5
 25
0.5
 16
0.0
 26
0.0
 36
1.0
 17
0.0
 27
0.0
 37
0.0
 40
21.36602006124377
 41
2.570850202429149
 42
50.0
 43
0.0
 44
0.0
 50
0.0
 51
0.0
 71
     0
 72
 20000
 73
     1
 74
     2
 75
     0
 76
     0
 77
     0
 78
     0
281
     0
 65
     1
110
0.0
120
0.0
130
0.0
111
1.0
121
0.0
131
0.0
112
0.0
122
1.0
132
0.0
 79
     0
146
0.0
348
27
 60
     3
 61
     5
292
     1
282
     1
141
0.0
142
0.0
 63
   250
421
  3355443
1001
ACAD_NAV_VCDISPLAY
1070
     3
  0
ENDTAB
  0
TABLE
  2
LTYPE
  5
20
330
0
100
AcDbSymbolTable
 70
     1
  0
LTYPE
  5
21
330
20
100
AcDbSymbolTableRecord
100
AcDbLinetypeTableRecord
  2
ByBlock
 70
     0
  3

 72
    65
 73
     0
 40
0.0
  0
LTYPE
  5
22
330
20
100
AcDbSymbolTableRecord
100
AcDbLinetypeTableRecord
  2
ByLayer
 70
     0
  3

 72
    65
 73
     0
 40
0.0
  0
LTYPE
  5
E
330
20
100
AcDbSymbolTableRecord
100
AcDbLinetypeTableRecord
  2
Continuous
 70
     0
  3
Solid line
 72
    65
 73
     0
 40
0.0
  0
ENDTAB
  0
TABLE
  2
LAYER
  5
17
102
{ACAD_XDICTIONARY
360
18
102
}
330
0
100
AcDbSymbolTable
 70
     3
  0
LAYER
  5
6
102
{ACAD_XDICTIONARY
360
7
102
}
330
17
100
AcDbSymbolTableRecord
100
AcDbLayerTableRecord
  2
0
 70
     0
 62
     7
  6
Continuous
370
    -3
390
9
347
C
348
0
  0
LAYER
  5
63
102
{ACAD_XDICTIONARY
360
64
102
}
330
17
100
AcDbSymbolTableRecord
100
AcDbLayerTableRecord
  2
4
 70
     0
 62
     7
  6
Continuous
370
    -3
390
9
347
C
348
0
1001
AcAecLayerStandard
1000

1000

  0
LAYER
  5
48
102
{ACAD_XDICTIONARY
360
49
102
}
330
17
100
AcDbSymbolTableRecord
100
AcDbLayerTableRecord
  2
3D
 70
     0
 62
     4
  6
Continuous
370
    -3
390
9
347
C
348
0
1001
AcAecLayerStandard
1000

1000

  0
ENDTAB
  0
TABLE
  2
STYLE
  5
1D
330
0
100
AcDbSymbolTable
 70
     3
  0
STYLE
  5
1E
330
1D
100
AcDbSymbolTableRecord
100
AcDbTextStyleTableRecord
  2
Standard
 70
     0
 40
0.0
 41
1.0
 50
0.0
 71
     0
 42
0.45
  3
txt
  4

  0
STYLE
  5
68
330
1D
100
AcDbSymbolTableRecord
100
AcDbTextStyleTableRecord
  2
ROMANS
 70
     0
 40
1.0
 41
0.8
 50
0.0
 71
     0
 42
1.0
  3
SIMPLEX.shx
  4

  0
STYLE
  5
2E
330
1D
100
AcDbSymbolTableRecord
100
AcDbTextStyleTableRecord
  2
SIMPLEX
 70
     0
 40
0.0
 41
1.0
 50
0.0
 71
     0
 42
0.0045
  3
SIMPLEX
  4

  0
ENDTAB
  0
TABLE
  2
VIEW
  5
23
330
0
100
AcDbSymbolTable
 70
     0
  0
ENDTAB
  0
TABLE
  2
UCS
  5
24
330
0
100
AcDbSymbolTable
 70
     0
  0
ENDTAB
  0
TABLE
  2
APPID
  5
2B
330
0
100
AcDbSymbolTable
 70
     5
  0
APPID
  5
1C
330
2B
100
AcDbSymbolTableRecord
100
AcDbRegAppTableRecord
  2
ACAD
 70
     0
  0
APPID
  5
2F
330
2B
100
AcDbSymbolTableRecord
100
AcDbRegAppTableRecord
  2
ACAD_DSTYLE_DIMJOGGED_JOGANGLE_SYMBOL
 70
     0
  0
APPID
  5
12
330
2B
100
AcDbSymbolTableRecord
100
AcDbRegAppTableRecord
  2
ACAD_PSEXT
 70
     0
  0
APPID
  5
4B
330
2B
100
AcDbSymbolTableRecord
100
AcDbRegAppTableRecord
  2
AcAecLayerStandard
 70
     0
  0
APPID
  5
29
330
2B
100
AcDbSymbolTableRecord
100
AcDbRegAppTableRecord
  2
ACAD_NAV_VCDISPLAY
 70
     0
  0
ENDTAB
  0
TABLE
  2
DIMSTYLE
  5
2C
330
0
100
AcDbSymbolTable
 70
     1
100
AcDbDimStyleTable
 71
     1
340
2D
  0
DIMSTYLE
105
2D
330
2C
100
AcDbSymbolTableRecord
100
AcDbDimStyleTableRecord
  2
Standard
 70
     0
 40
0.1
 41
1.0
 42
0.3
 43
0.3
 44
0.3
 48
1.25
 49
0.0072
 78
     1
140
1.0
141
0.5
147
0.3
176
   256
177
   256
178
   256
271
     3
272
     3
340
2E
345
22
346
22
347
22
371
    -1
372
    -1
1001
ACAD_DSTYLE_DIMJOGGED_JOGANGLE_SYMBOL
1070
   384
1040
0.7853981633974483
  0
ENDTAB
  0
TABLE
  2
BLOCK_RECORD
  5
1
330
0
100
AcDbSymbolTable
 70
     0
  0
BLOCK_RECORD
  5
2
102
{ACAD_XDICTIONARY
360
3
102
}
330
1
100
AcDbSymbolTableRecord
100
AcDbBlockTableRecord
  2
*Model_Space
340
10
 70
     0
280
     1
281
     0
  0
BLOCK_RECORD
  5
13
330
1
100
AcDbSymbolTableRecord
100
AcDbBlockTableRecord
  2
*Paper_Space
340
16
 70
     0
280
     1
281
     0
  0
ENDTAB
  0
ENDSEC
  0
SECTION
  2
BLOCKS
  0
BLOCK
  5
5
330
2
100
AcDbEntity
  8
0
100
AcDbBlockBegin
  2
*Model_Space
 70
     0
 10
0.0
 20
0.0
 30
0.0
  3
*Model_Space
  1

  0
ENDBLK
  5
F
330
2
100
AcDbEntity
  8
0
100
AcDbBlockEnd
  0
BLOCK
  5
14
330
13
100
AcDbEntity
 67
     1
  8
0
100
AcDbBlockBegin
  2
*Paper_Space
 70
     0
 10
0.0
 20
0.0
 30
0.0
  3
*Paper_Space
  1

  0
ENDBLK
  5
15
330
13
100
AcDbEntity
 67
     1
  8
0
100
AcDbBlockEnd
  0
ENDSEC
  0
SECTION
  2
ENTITIES
  0
LINE
  5
62
330
2
100
AcDbEntity
  8
4
 62
     3
100
AcDbLine
 10
13.47663423687527
 20
2.581732022381515
 30
0.0
 11
23.23059637422602
 21
2.581732022381515
 31
0.0
  0
LINE
  5
66
330
2
100
AcDbEntity
  8
4
 62
     3
100
AcDbLine
 10
13.47663423687436
 20
-2.788214036262047
 30
0.0
 11
23.23059637422511
 21
-2.788214036262047
 31
0.0
  0
TEXT
  5
67
330
2
100
AcDbEntity
  8
4
 62
     3
100
AcDbText
 10
14.01687116314759
 20
-0.6708596764839712
 30
0.0
 40
0.1162327680363831
  1
MAXIMUM RADIUS ON ALL CORNERS UNLESS OTHERWISE SPECIFIED
 41
0.9
  7
ROMANS
 72
     4
 11
16.70184810478804
 21
-0.6127432924657797
 31
0.0
100
AcDbText
  0
TEXT
  5
69
330
2
100
AcDbEntity
  8
4
 62
     3
100
AcDbText
 10
14.01449063592284
 20
-4.002025130402798
 30
0.0
 40
0.1162327680363831
  1
PART TO BE FREE OF RUST, KINKS, BENDS, WRINKLES, OR SCRATCHES DEEPER THAN
 41
0.9
  7
ROMANS
 72
     4
 11
17.49649227266991
 21
-3.954978533816642
 31
0.0
100
AcDbText
  0
TEXT
  5
6A
330
2
100
AcDbEntity
  8
4
 62
     3
100
AcDbText
 10
14.01510485858711
 20
-4.503517099645035
 30
0.0
 40
0.1162327680363831
  1
DIMENSION QUADRANT IS TYPICAL FOR QUADRANTS, EXCEPT AS SHOWN
 41
0.9
  7
ROMANS
 72
     4
 11
16.91926359138188
 21
-4.456470503058881
 31
0.0
100
AcDbText
  0
TEXT
  5
6B
330
2
100
AcDbEntity
  8
4
 62
     3
100
AcDbText
 10
14.01397412552853
 20
-4.251994823670699
 30
0.0
 40
0.1162327680363831
  1
INTERNAL LEAD TIP DIMENSIONS GIVEN ARE GIVEN VALUES
 41
0.9
  7
ROMANS
 72
     4
 11
16.38014118912633
 21
-4.193878439652507
 31
0.0
100
AcDbText
  0
TEXT
  5
6C
330
2
100
AcDbEntity
  8
4
 62
     3
100
AcDbText
 10
14.01389141423877
 20
-4.76420461229604
 30
0.0
 40
0.1162327680363831
  1
STRIP NUMBER TO BE ADDED ON STRIP
 41
0.9
  7
ROMANS
 72
     4
 11
15.60794080445203
 21
-4.706088228277849
 31
0.0
100
AcDbText
  0
LINE
  5
6D
330
2
100
AcDbEntity
  8
4
 62
     3
100
AcDbLine
 10
13.47663423687436
 20
-0.9982294085018565
 30
0.0
 11
23.23059637422511
 21
-0.9982294085018565
 31
0.0
  0
LINE
  5
6E
330
2
100
AcDbEntity
  8
4
 62
     3
100
AcDbLine
 10
13.47663423687436
 20
-1.25394149818203
 30
0.0
 11
23.23059637422511
 21
-1.25394149818203
 31
0.0
  0
LINE
  5
6F
330
2
100
AcDbEntity
  8
4
 62
     3
100
AcDbLine
 10
13.47663423687436
 20
-2.276789856902155
 30
0.0
 11
23.23059637422511
 21
-2.276789856902155
 31
0.0
  0
LINE
  5
70
330
2
100
AcDbEntity
  8
4
 62
     3
100
AcDbLine
 10
13.47663423687436
 20
-2.021077767222095
 30
0.0
 11
23.23059637422511
 21
-2.021077767222095
 31
0.0
  0
LINE
  5
71
330
2
100
AcDbEntity
  8
4
 62
     3
100
AcDbLine
 10
13.47663423687436
 20
-1.765365677541922
 30
0.0
 11
23.23059637422511
 21
-1.765365677541922
 31
0.0
  0
LINE
  5
72
330
2
100
AcDbEntity
  8
4
 62
     3
100
AcDbLine
 10
13.47663423687436
 20
-1.509653587861862
 30
0.0
 11
23.23059637422511
 21
-1.509653587861862
 31
0.0
  0
LINE
  5
73
330
2
100
AcDbEntity
  8
4
 62
     3
100
AcDbLine
 10
13.47663423687436
 20
-3.043926125942221
 30
0.0
 11
23.23059637422511
 21
-3.043926125942221
 31
0.0
  0
LINE
  5
74
330
2
100
AcDbEntity
  8
4
 62
     3
100
AcDbLine
 10
13.47663423687436
 20
-3.29963821562228
 30
0.0
 11
23.23059637422511
 21
-3.29963821562228
 31
0.0
  0
LINE
  5
75
330
2
100
AcDbEntity
  8
4
 62
     3
100
AcDbLine
 10
13.47663423687436
 20
-3.811062394982172
 30
0.0
 11
23.23059637422511
 21
-3.811062394982172
 31
0.0
  0
LINE
  5
76
330
2
100
AcDbEntity
  8
4
 62
     3
100
AcDbLine
 10
13.47663423687436
 20
-4.066774484662346
 30
0.0
 11
23.23059637422511
 21
-4.066774484662346
 31
0.0
  0
LINE
  5
77
330
2
100
AcDbEntity
  8
4
 62
     3
100
AcDbLine
 10
13.47663423687436
 20
-4.578198664022352
 30
0.0
 11
23.23059637422511
 21
-4.578198664022352
 31
0.0
  0
LINE
  5
78
330
2
100
AcDbEntity
  8
4
 62
     3
100
AcDbLine
 10
13.47663423687436
 20
-2.532501946582215
 30
0.0
 11
23.23059637422511
 21
-2.532501946582215
 31
0.0
  0
LINE
  5
79
330
2
100
AcDbEntity
  8
4
 62
     3
100
AcDbLine
 10
13.47663423687527
 20
1.303171573980876
 30
0.0
 11
23.23059637422602
 21
1.303171573980876
 31
0.0
  0
LWPOLYLINE
  5
7A
330
2
100
AcDbEntity
  8
4
 62
     7
100
AcDbPolyline
 90
        2
 70
     0
 43
0.0116232768036383
 10
13.47663423687527
 20
5.442046320692952
 10
23.23059637422602
 20
5.442046320692952
  0
LINE
  5
7B
330
2
100
AcDbEntity
  8
4
 62
     3
100
AcDbLine
 10
13.47663423687527
 20
5.138852919181886
 30
0.0
 11
23.23059637422602
 21
5.138852919181886
 31
0.0
  0
LINE
  5
7C
330
2
100
AcDbEntity
  8
4
 62
     3
100
AcDbLine
 10
13.47663423687527
 20
3.348868291421354
 30
0.0
 11
23.23059637422602
 21
3.348868291421354
 31
0.0
  0
LINE
  5
7D
330
2
100
AcDbEntity
  8
4
 62
     3
100
AcDbLine
 10
13.47663423687527
 20
1.047459484301157
 30
0.0
 11
23.23059637422602
 21
1.047459484301157
 31
0.0
  0
LINE
  5
7E
330
2
100
AcDbEntity
  8
4
 62
     3
100
AcDbLine
 10
13.47663423687527
 20
1.558883663661163
 30
0.0
 11
23.23059637422602
 21
1.558883663661163
 31
0.0
  0
LINE
  5
7F
330
2
100
AcDbEntity
  8
4
 62
     3
100
AcDbLine
 10
13.47663423687527
 20
1.814595753341109
 30
0.0
 11
23.23059637422602
 21
1.814595753341109
 31
0.0
  0
LINE
  5
80
330
2
100
AcDbEntity
  8
4
 62
     3
100
AcDbLine
 10
13.47663423687527
 20
2.070307843021282
 30
0.0
 11
23.23059637422602
 21
2.070307843021282
 31
0.0
  0
LINE
  5
81
330
2
100
AcDbEntity
  8
4
 62
     3
100
AcDbLine
 10
13.47663423687527
 20
2.326019932701115
 30
0.0
 11
23.23059637422602
 21
2.326019932701115
 31
0.0
  0
LINE
  5
82
330
2
100
AcDbEntity
  8
4
 62
     3
100
AcDbLine
 10
13.47663423687527
 20
2.837444112061348
 30
0.0
 11
23.23059637422602
 21
2.837444112061348
 31
0.0
  0
LINE
  5
83
330
2
100
AcDbEntity
  8
4
 62
     3
100
AcDbLine
 10
13.47663423687527
 20
4.371716650141593
 30
0.0
 11
23.23059637422602
 21
4.371716650141593
 31
0.0
  0
LINE
  5
84
330
2
100
AcDbEntity
  8
4
 62
     3
100
AcDbLine
 10
13.47663423687527
 20
4.11600456046176
 30
0.0
 11
23.23059637422602
 21
4.11600456046176
 31
0.0
  0
LINE
  5
85
330
2
100
AcDbEntity
  8
4
 62
     3
100
AcDbLine
 10
13.47663423687527
 20
3.860292470781587
 30
0.0
 11
23.23059637422602
 21
3.860292470781587
 31
0.0
  0
LINE
  5
86
330
2
100
AcDbEntity
  8
4
 62
     3
100
AcDbLine
 10
13.47663423687527
 20
3.604580381101413
 30
0.0
 11
23.23059637422602
 21
3.604580381101413
 31
0.0
  0
LINE
  5
87
330
2
100
AcDbEntity
  8
4
 62
     3
100
AcDbLine
 10
13.47663423687527
 20
4.627428739821766
 30
0.0
 11
23.23059637422602
 21
4.627428739821766
 31
0.0
  0
LINE
  5
88
330
2
100
AcDbEntity
  8
4
 62
     3
100
AcDbLine
 10
13.47663423687527
 20
4.883140829501826
 30
0.0
 11
23.23059637422602
 21
4.883140829501826
 31
0.0
  0
LINE
  5
89
330
2
100
AcDbEntity
  8
4
 62
     3
100
AcDbLine
 10
13.47663423687436
 20
-0.7425173188217969
 30
0.0
 11
23.23059637422511
 21
-0.7425173188217969
 31
0.0
  0
LINE
  5
8A
330
2
100
AcDbEntity
  8
4
 62
     3
100
AcDbLine
 10
13.47663423687527
 20
0.7917478569542027
 30
0.0
 11
23.23059637422602
 21
0.7917478569542027
 31
0.0
  0
LINE
  5
8B
330
2
100
AcDbEntity
  8
4
 62
     3
100
AcDbLine
 10
13.47663423687436
 20
-0.4868052291418508
 30
0.0
 11
23.23059637422511
 21
-0.4868052291418508
 31
0.0
  0
LINE
  5
8C
330
2
100
AcDbEntity
  8
4
 62
     3
100
AcDbLine
 10
13.47663423687436
 20
-4.322486574342178
 30
0.0
 11
23.23059637422511
 21
-4.322486574342178
 31
0.0
  0
LWPOLYLINE
  5
8D
330
2
100
AcDbEntity
  8
4
 62
     7
100
AcDbPolyline
 90
        2
 70
     0
 43
0.0116232768036383
 10
13.47663423687527
 20
-4.833910291369306
 10
23.23059637422602
 20
-4.833910291369306
  0
LWPOLYLINE
  5
8E
330
2
100
AcDbEntity
  8
4
 62
     7
100
AcDbPolyline
 90
        2
 70
     0
 43
0.0116232768036383
 10
13.47663423687527
 20
-4.833910291369306
 10
13.47663423687527
 20
5.442046320692952
  0
LINE
  5
8F
330
2
100
AcDbEntity
  8
4
 62
     3
100
AcDbLine
 10
13.87800829017715
 20
-4.833910291369306
 30
0.0
 11
13.87800829017806
 21
5.442046320692952
 31
0.0
  0
TEXT
  5
90
330
2
100
AcDbEntity
  8
4
 62
     3
100
AcDbText
 10
13.58709652240082
 20
-4.252325048575855
 30
0.0
 40
0.1162327680363831
  1
34
 41
0.9
  7
ROMANS
 72
     4
 11
13.67427109842811
 21
-4.194208664557663
 31
0.0
100
AcDbText
  0
TEXT
  5
91
330
2
100
AcDbEntity
  8
4
 62
     3
100
AcDbText
 10
13.58958722457303
 20
-4.502362795260566
 30
0.0
 40
0.1162327680363831
  1
35
 41
0.9
  7
ROMANS
 72
     4
 11
13.67427109842811
 21
-4.444246411242374
 31
0.0
100
AcDbText
  0
TEXT
  5
92
330
2
100
AcDbEntity
  8
4
 62
     3
100
AcDbText
 10
14.03098215957895
 20
-3.227980573284568
 30
0.0
 40
0.1162327680363831
  1
LEAD TILT
 41
0.9
  7
ROMANS
 72
     4
 11
14.41704099627122
 21
-3.169864189266377
 31
0.0
100
AcDbText
  0
TEXT
  5
93
330
2
100
AcDbEntity
  8
4
 62
     3
100
AcDbText
 10
13.58958722457166
 20
-3.230833737270742
 30
0.0
 40
0.1162327680363831
  1
30
 41
0.9
  7
ROMANS
 72
     4
 11
13.67427109842674
 21
-3.172717353252551
 31
0.0
100
AcDbText
  0
TEXT
  5
94
330
2
100
AcDbEntity
  8
4
 62
     3
100
AcDbText
 10
13.58958722457303
 20
-3.740900869215508
 30
0.0
 40
0.1162327680363831
  1
32
 41
0.9
  7
ROMANS
 72
     4
 11
13.67427109842811
 21
-3.682784485197316
 31
0.0
100
AcDbText
  0
TEXT
  5
95
330
2
100
AcDbEntity
  8
4
 62
     3
100
AcDbText
 10
13.58958722457303
 20
-3.990938615900333
 30
0.0
 40
0.1162327680363831
  1
33
 41
0.9
  7
ROMANS
 72
     4
 11
13.67427109842811
 21
-3.932822231882141
 31
0.0
100
AcDbText
  0
TEXT
  5
96
330
2
100
AcDbEntity
  8
4
 62
     3
100
AcDbText
 10
14.01581220834426
 20
-3.739404752644233
 30
0.0
 40
0.1162327680363831
  1
FRAME TWIST
 41
0.9
  7
ROMANS
 72
     4
 11
14.53138755799136
 21
-3.681288368626042
 31
0.0
100
AcDbText
  0
TEXT
  5
97
330
2
100
AcDbEntity
  8
4
 62
     3
100
AcDbText
 10
14.01511858431789
 20
-2.467481954573301
 30
0.0
 40
0.1162327680363831
  1
PAD PLANARITY
 41
0.9
  7
ROMANS
 72
     4
 11
14.63779412736994
 21
-2.40936557055511
 31
0.0
100
AcDbText
  0
TEXT
  5
98
330
2
100
AcDbEntity
  8
4
 62
     3
100
AcDbText
 10
14.0139171811915
 20
-1.686018023593916
 30
0.0
 40
0.1162327680363831
  1
PAD FLATNESS
 41
0.9
  7
ROMANS
 72
     4
 11
14.59425078731601
 21
-1.627901639575725
 31
0.0
100
AcDbText
  0
TEXT
  5
99
330
2
100
AcDbEntity
  8
4
 62
     3
100
AcDbText
 10
14.01496639335534
 20
-1.182283855844204
 30
0.0
 40
0.1162327680363831
  1
HORIZONTAL BURR
 41
0.9
  7
ROMANS
 72
     4
 11
14.73976072546793
 21
-1.124167471826012
 31
0.0
100
AcDbText
  0
TEXT
  5
9A
330
2
100
AcDbEntity
  8
4
 62
     3
100
AcDbText
 10
14.01481126541504
 20
-1.437995945524264
 30
0.0
 40
0.1162327680363831
  1
LEAD TIP PLANARITY FROM DAM BAR
 41
0.9
  7
ROMANS
 72
     4
 11
15.51172327091217
 21
-1.379879561506072
 31
0.0
100
AcDbText
  0
TEXT
  5
9B
330
2
100
AcDbEntity
  8
4
 62
     3
100
AcDbText
 10
13.59207792674387
 20
-2.972374869880169
 30
0.0
 40
0.1162327680363831
  1
29
 41
0.9
  7
ROMANS
 72
     4
 11
13.67427109842674
 21
-2.914258485861978
 31
0.0
100
AcDbText
  0
TEXT
  5
9C
330
2
100
AcDbEntity
  8
4
 62
     3
100
AcDbText
 10
13.58958722457166
 20
-2.45931243181387
 30
0.0
 40
0.1162327680363831
  1
27
 41
0.9
  7
ROMANS
 72
     4
 11
13.67427109842674
 21
-2.401196047795679
 31
0.0
100
AcDbText
  0
TEXT
  5
9D
330
2
100
AcDbEntity
  8
4
 62
     3
100
AcDbText
 10
13.59192643426715
 20
-1.43900345862157
 30
0.0
 40
0.1162327680363831
  1
23
 41
0.9
  7
ROMANS
 72
     4
 11
13.67661030812223
 21
-1.380887074603379
 31
0.0
100
AcDbText
  0
TEXT
  5
9E
330
2
100
AcDbEntity
  8
4
 62
     3
100
AcDbText
 10
13.58943573209495
 20
-1.6928870892812
 30
0.0
 40
0.1162327680363831
  1
24
 41
0.9
  7
ROMANS
 72
     4
 11
13.67661030812223
 21
-1.634770705263008
 31
0.0
100
AcDbText
  0
TEXT
  5
9F
330
2
100
AcDbEntity
  8
4
 62
     3
100
AcDbText
 10
13.60044694990413
 20
-1.946498522158705
 30
0.0
 40
0.1162327680363831
  1
25
 41
0.9
  7
ROMANS
 72
     4
 11
13.68513082375921
 21
-1.888382138140514
 31
0.0
100
AcDbText
  0
TEXT
  5
A0
330
2
100
AcDbEntity
  8
4
 62
     3
100
AcDbText
 10
13.60293765207634
 20
-2.204990072429424
 30
0.0
 40
0.1162327680363831
  1
26
 41
0.9
  7
ROMANS
 72
     4
 11
13.68513082375921
 21
-2.146873688411233
 31
0.0
100
AcDbText
  0
TEXT
  5
A1
330
2
100
AcDbEntity
  8
4
 62
     3
100
AcDbText
 10
14.01701291425743
 20
-2.972268483604395
 30
0.0
 40
0.1162327680363831
  1
CROSS BOW
 41
0.9
  7
ROMANS
 72
     4
 11
14.48028351828816
 21
-2.914152099586203
 31
0.0
100
AcDbText
  0
TEXT
  5
A2
330
2
100
AcDbEntity
  8
4
 62
     3
100
AcDbText
 10
14.01534281119277
 20
-2.205132214564329
 30
0.0
 40
0.1162327680363831
  1
PAD TILT
 41
0.9
  7
ROMANS
 72
     4
 11
14.36404111530191
 21
-2.147015830546138
 31
0.0
100
AcDbText
  0
TEXT
  5
A3
330
2
100
AcDbEntity
  8
4
 62
     3
100
AcDbText
 10
14.01683780239813
 20
-1.949420124884269
 30
0.0
 40
0.1162327680363831
  1
CAMBER
 41
0.9
  7
ROMANS
 72
     4
 11
14.31821276523533
 21
-1.891303740866078
 31
0.0
100
AcDbText
  0
TEXT
  5
A4
330
2
100
AcDbEntity
  8
4
 62
     3
100
AcDbText
 10
13.57335585274197
 20
-2.715273049904723
 30
0.0
 40
0.1162327680363831
  1
28
 41
0.9
  7
ROMANS
 72
     4
 11
13.65803972659705
 21
-2.657156665886532
 31
0.0
100
AcDbText
  0
TEXT
  5
A5
330
2
100
AcDbEntity
  8
4
 62
     3
100
AcDbText
 10
14.01445837654011
 20
1.381966127559487
 30
0.0
 40
0.1162327680363831
  1
LOCK/ANCHOR HOLE
 41
0.9
  7
ROMANS
 72
     4
 11
14.82642728467999
 21
1.431780171003651
 31
0.0
100
AcDbText
  0
TEXT
  5
A6
330
2
100
AcDbEntity
  8
4
 62
     3
100
AcDbText
 10
14.01616989023361
 20
-0.9211806522974228
 30
0.0
 40
0.1162327680363831
  1
VERTICAL BURR
 41
0.9
  7
ROMANS
 72
     4
 11
14.62141051808021
 21
-0.8630642682792313
 31
0.0
100
AcDbText
  0
TEXT
  5
A7
330
2
100
AcDbEntity
  8
4
 62
     3
100
AcDbText
 10
14.01536013106959
 20
-0.4151475868039114
 30
0.0
 40
0.1162327680363831
  1
DOWNSET DEPTH
 41
0.9
  7
ROMANS
 72
     4
 11
14.6579612914993
 21
-0.3570312027857199
 31
0.0
100
AcDbText
  0
TEXT
  5
A8
330
2
100
AcDbEntity
  8
4
 62
     3
100
AcDbText
 10
13.60437994512819
 20
-0.412395736986511
 30
0.0
 40
0.1162327680363831
  1
19
 41
0.9
  7
ROMANS
 72
     4
 11
13.67661030812223
 21
-0.3542793529683195
 31
0.0
100
AcDbText
  0
TEXT
  5
A9
330
2
100
AcDbEntity
  8
4
 62
     3
100
AcDbText
 10
13.61434275381703
 20
-0.9257338275661339
 30
0.0
 40
0.1162327680363831
  1
21
 41
0.9
  7
ROMANS
 72
     4
 11
13.67661030812223
 21
-0.8676174435479424
 31
0.0
100
AcDbText
  0
TEXT
  5
AA
330
2
100
AcDbEntity
  8
4
 62
     3
100
AcDbText
 10
13.59192643426715
 20
-1.169882669460932
 30
0.0
 40
0.1162327680363831
  1
22
 41
0.9
  7
ROMANS
 72
     4
 11
13.67661030812223
 21
-1.11176628544274
 31
0.0
100
AcDbText
  0
TEXT
  5
AB
330
2
100
AcDbEntity
  8
4
 62
     3
100
AcDbText
 10
13.6018892429569
 20
0.6104600050518485
 30
0.0
 40
0.1162327680363831
  1
18
 41
0.9
  7
ROMANS
 72
     4
 11
13.67661030812314
 21
0.6685763890700401
 31
0.0
100
AcDbText
  0
TEXT
  5
AC
330
2
100
AcDbEntity
  8
4
 62
     3
100
AcDbText
 10
13.60204073543407
 20
1.11762837237218
 30
0.0
 40
0.1162327680363831
  1
16
 41
0.9
  7
ROMANS
 72
     4
 11
13.67427109842811
 21
1.175744756390372
 31
0.0
100
AcDbText
  0
TEXT
  5
AD
330
2
100
AcDbEntity
  8
4
 62
     3
100
AcDbText
 10
14.01397239013997
 20
0.8557805800312081
 30
0.0
 40
0.1162327680363831
  1
COIL SET
 41
0.9
  7
ROMANS
 72
     4
 11
14.36267069424912
 21
0.9138969640493996
 31
0.0
100
AcDbText
  0
TEXT
  5
AE
330
2
100
AcDbEntity
  8
4
 62
     3
100
AcDbText
 10
14.01498692431911
 20
1.1110717235792
 30
0.0
 40
0.1162327680363831
  1
MISALIGNMENT
 41
0.9
  7
ROMANS
 72
     4
 11
14.56543210437712
 21
1.169188107597392
 31
0.0
100
AcDbText
  0
TEXT
  5
AF
330
2
100
AcDbEntity
  8
4
 62
     3
100
AcDbText
 10
13.59955003326186
 20
0.8649384121990379
 30
0.0
 40
0.1162327680363831
  1
17
 41
0.9
  7
ROMANS
 72
     4
 11
13.67427109842811
 21
0.9230547962172295
 31
0.0
100
AcDbText
  0
TEXT
  5
B0
330
2
100
AcDbEntity
  8
4
 62
     3
100
AcDbText
 10
14.01482053222485
 20
1.629593285093804
 30
0.0
 40
0.1162327680363831
  1
CUMULATIVE PITCH
 41
0.9
  7
ROMANS
 72
     4
 11
14.74708697085407
 21
1.687709669111995
 31
0.0
100
AcDbText
  0
TEXT
  5
B1
330
2
100
AcDbEntity
  8
4
 62
     3
100
AcDbText
 10
13.59955003326186
 20
1.37334046205224
 30
0.0
 40
0.1162327680363831
  1
15
 41
0.9
  7
ROMANS
 72
     4
 11
13.67427109842811
 21
1.431456846070432
 31
0.0
100
AcDbText
  0
TEXT
  5
B2
330
2
100
AcDbEntity
  8
4
 62
     3
100
AcDbText
 10
13.59705933108965
 20
1.627695504316832
 30
0.0
 40
0.1162327680363831
  1
14
 41
0.9
  7
ROMANS
 72
     4
 11
13.67427109842811
 21
1.685811888335024
 31
0.0
100
AcDbText
  0
TEXT
  5
B3
330
2
100
AcDbEntity
  8
4
 62
     3
100
AcDbText
 10
13.59955003326186
 20
1.886154371707746
 30
0.0
 40
0.1162327680363831
  1
13
 41
0.9
  7
ROMANS
 72
     4
 11
13.67427109842811
 21
1.944270755725938
 31
0.0
100
AcDbText
  0
TEXT
  5
B4
330
2
100
AcDbEntity
  8
4
 62
     3
100
AcDbText
 10
13.59955003326186
 20
2.141866461387579
 30
0.0
 40
0.1162327680363831
  1
12
 41
0.9
  7
ROMANS
 72
     4
 11
13.67427109842811
 21
2.19998284540577
 31
0.0
100
AcDbText
  0
TEXT
  5
B5
330
2
100
AcDbEntity
  8
4
 62
     3
100
AcDbText
 10
13.60573498098068
 20
2.398968281363138
 30
0.0
 40
0.1162327680363831
  1
11
 41
0.9
  7
ROMANS
 72
     4
 11
13.65803972659705
 21
2.45708466538133
 31
0.0
100
AcDbText
  0
TEXT
  5
B6
330
2
100
AcDbEntity
  8
4
 62
     3
100
AcDbText
 10
13.59955003326186
 20
2.654928899453651
 30
0.0
 40
0.1162327680363831
  1
10
 41
0.9
  7
ROMANS
 72
     4
 11
13.67427109842811
 21
2.713045283471842
 31
0.0
100
AcDbText
  0
TEXT
  5
B7
330
2
100
AcDbEntity
  8
4
 62
     3
100
AcDbText
 10
13.65275169552141
 20
2.909251258838324
 30
0.0
 40
0.1162327680363831
  1
9
 41
0.9
  7
ROMANS
 72
     4
 11
13.68513082376012
 21
2.967367642856515
 31
0.0
100
AcDbText
  0
TEXT
  5
B8
330
2
100
AcDbEntity
  8
4
 62
     3
100
AcDbText
 10
14.01444775129626
 20
1.88625385801204
 30
0.0
 40
0.1162327680363831
  1
UNIT PITCH
 41
0.9
  7
ROMANS
 72
     4
 11
14.44035782274386
 21
1.944370242030231
 31
0.0
100
AcDbText
  0
TEXT
  5
B9
330
2
100
AcDbEntity
  8
4
 62
     3
100
AcDbText
 10
14.01176825280925
 20
2.141965947692213
 30
0.0
 40
0.1162327680363831
  1
STRIP WIDTH
 41
0.9
  7
ROMANS
 72
     4
 11
14.48998306987323
 21
2.200082331710405
 31
0.0
100
AcDbText
  0
TEXT
  5
BA
330
2
100
AcDbEntity
  8
4
 62
     3
100
AcDbText
 10
14.0136194637798
 20
2.397678037372159
 30
0.0
 40
0.1162327680363831
  1
STRIP LENGTH
 41
0.9
  7
ROMANS
 72
     4
 11
14.55659253732119
 21
2.455794421390351
 31
0.0
100
AcDbText
  0
TEXT
  5
BB
330
2
100
AcDbEntity
  8
4
 62
     3
100
AcDbText
 10
14.01399368747654
 20
3.676238485772458
 30
0.0
 40
0.1162327680363831
  1
MIN. LEAD SPACE AFTER ETCH
 41
0.9
  7
ROMANS
 72
     4
 11
15.23941915620298
 21
3.734354869790649
 31
0.0
100
AcDbText
  0
TEXT
  5
BC
330
2
100
AcDbEntity
  8
4
 62
     3
100
AcDbText
 10
14.0152568029574
 20
4.443374754812523
 30
0.0
 40
0.1162327680363831
  1
EXTERNAL LEAD WIDTH
 41
0.9
  7
ROMANS
 72
     4
 11
14.91190958495235
 21
4.501491138830715
 31
0.0
100
AcDbText
  0
TEXT
  5
BD
330
2
100
AcDbEntity
  8
4
 62
     3
100
AcDbText
 10
14.01436542866504
 20
4.954798934172643
 30
0.0
 40
0.1162327680363831
  1
MATERIAL THICKNESS - 
 41
0.9
  7
ROMANS
 72
     4
 11
15.02309980840937
 21
5.012915318190835
 31
0.0
100
AcDbText
  0
TEXT
  5
BE
330
2
100
AcDbEntity
  8
4
 62
     3
100
AcDbText
 10
14.01541442463141
 20
4.704477958359191
 30
0.0
 40
0.1162327680363831
  1
PILOT HOLE DIAMETER
 41
0.9
  7
ROMANS
 72
     4
 11
14.88466948273208
 21
4.762594342377383
 31
0.0
100
AcDbText
  0
TEXT
  5
BF
330
2
100
AcDbEntity
  8
4
 62
     3
100
AcDbText
 10
14.01556392091541
 20
3.931950575452518
 30
0.0
 40
0.1162327680363831
  1
M TO M CLEARANCE AFTER ETCH
 41
0.9
  7
ROMANS
 72
     4
 11
15.35307098739122
 21
3.990066959470709
 31
0.0
100
AcDbText
  0
TEXT
  5
C0
330
2
100
AcDbEntity
  8
4
 62
     3
100
AcDbText
 10
14.01635152391113
 20
4.187662665132577
 30
0.0
 40
0.1162327680363831
  1
LEAD TIP FLAT WIDTH 
 41
0.9
  7
ROMANS
 72
     4
 11
14.93791132762817
 21
4.245779049150769
 31
0.0
100
AcDbText
  0
TEXT
  5
C1
330
2
100
AcDbEntity
  8
4
 62
     3
100
AcDbText
 10
14.01464902303287
 20
3.420526396092512
 30
0.0
 40
0.1162327680363831
  1
MIN. LEAD SPACE AFTER PLATE
 41
0.9
  7
ROMANS
 72
     4
 11
15.28739783303126
 21
3.478642780110703
 31
0.0
100
AcDbText
  0
TEXT
  5
C2
330
2
100
AcDbEntity
  8
4
 62
     3
100
AcDbText
 10
13.6641567972621
 20
4.957565977935999
 30
0.0
 40
0.1162327680363831
  1
1
 41
0.9
  7
ROMANS
 72
     4
 11
13.67661030812314
 21
5.015682361954191
 31
0.0
100
AcDbText
  0
TEXT
  5
C3
330
2
100
AcDbEntity
  8
4
 62
     3
100
AcDbText
 10
13.64423117988444
 20
3.675237872646292
 30
0.0
 40
0.1162327680363831
  1
6
 41
0.9
  7
ROMANS
 72
     4
 11
13.67661030812314
 21
3.733354256664483
 31
0.0
100
AcDbText
  0
TEXT
  5
C4
330
2
100
AcDbEntity
  8
4
 62
     3
100
AcDbText
 10
13.64174047771223
 20
3.944358661806703
 30
0.0
 40
0.1162327680363831
  1
5
 41
0.9
  7
ROMANS
 72
     4
 11
13.67661030812314
 21
4.002475045824894
 31
0.0
100
AcDbText
  0
TEXT
  5
C5
330
2
100
AcDbEntity
  8
4
 62
     3
100
AcDbText
 10
13.64174047771223
 20
4.443249485799086
 30
0.0
 40
0.1162327680363831
  1
3
 41
0.9
  7
ROMANS
 72
     4
 11
13.67661030812314
 21
4.501365869817277
 31
0.0
100
AcDbText
  0
TEXT
  5
C6
330
2
100
AcDbEntity
  8
4
 62
     3
100
AcDbText
 10
13.63924977554002
 20
4.188501500377881
 30
0.0
 40
0.1162327680363831
  1
4
 41
0.9
  7
ROMANS
 72
     4
 11
13.67661030812314
 21
4.246617884396073
 31
0.0
100
AcDbText
  0
TEXT
  5
C7
330
2
100
AcDbEntity
  8
4
 62
     3
100
AcDbText
 10
13.64174047771223
 20
4.701853888256167
 30
0.0
 40
0.1162327680363831
  1
2
 41
0.9
  7
ROMANS
 72
     4
 11
13.67661030812314
 21
4.759970272274358
 31
0.0
100
AcDbText
  0
TEXT
  5
C8
330
2
100
AcDbEntity
  8
4
 62
     3
100
AcDbText
 10
13.64174047771223
 20
3.421354241986207
 30
0.0
 40
0.1162327680363831
  1
7
 41
0.9
  7
ROMANS
 72
     4
 11
13.67661030812314
 21
3.479470626004399
 31
0.0
100
AcDbText
  0
TEXT
  5
C9
330
2
100
AcDbEntity
  8
4
 62
     3
100
AcDbText
 10
15.96384881036091
 20
4.954853328329684
 30
0.0
 40
0.1162327680363831
  1
C7025 1/2H
 41
0.9
  7
ROMANS
 72
     4
 11
16.44206362742488
 21
5.004667371773848
 31
0.0
100
AcDbText
  0
TEXT
  5
CA
330
2
100
AcDbEntity
  8
4
 62
     7
100
AcDbText
 10
13.53422208486184
 20
5.667775427988521
 30
0.0
 40
0.1693677477101581
  1
NOTES :
 41
0.9
  7
ROMANS
 72
     4
 11
13.97699776816125
 21
5.7524593018436
 31
0.0
100
AcDbText
  0
LWPOLYLINE
  5
CB
330
2
100
AcDbEntity
  8
4
 62
     7
100
AcDbPolyline
 90
        2
 70
     0
 43
0.0116232768036383
 10
23.23059637422602
 20
-4.833910291369306
 10
23.23059637422602
 20
5.442046320692952
  0
LWPOLYLINE
  5
CC
330
2
100
AcDbEntity
  8
4
 62
     7
100
AcDbPolyline
 90
        2
 70
     0
 43
0.0116232768036383
 10
19.53924603837504
 20
-0.4868061538078337
 10
19.53924603837504
 20
-0.2310949887937568
  0
LWPOLYLINE
  5
CD
330
2
100
AcDbEntity
  8
4
 62
     7
100
AcDbPolyline
 90
        2
 70
     0
 43
0.0116232768036383
 10
19.53924603837504
 20
0.7917478569542027
 10
19.53924603837504
 20
5.442046320692952
  0
LWPOLYLINE
  5
CE
330
2
100
AcDbEntity
  8
4
 62
     7
100
AcDbPolyline
 90
        2
 70
     0
 43
0.0116232768036383
 10
20.76969615032522
 20
-0.4868061538078337
 10
20.76969615032522
 20
-0.2310949887937568
  0
LWPOLYLINE
  5
CF
330
2
100
AcDbEntity
  8
4
 62
     7
100
AcDbPolyline
 90
        2
 70
     0
 43
0.0116232768036383
 10
20.76969615032522
 20
0.7917478569542027
 10
20.76969615032613
 20
5.442046320692952
  0
LWPOLYLINE
  5
D0
330
2
100
AcDbEntity
  8
4
 62
     7
100
AcDbPolyline
 90
        2
 70
     0
 43
0.0116232768036383
 10
22.00014626227539
 20
-0.4868061538078337
 10
22.00014626227539
 20
-0.2310949887937568
  0
LWPOLYLINE
  5
D1
330
2
100
AcDbEntity
  8
4
 62
     7
100
AcDbPolyline
 90
        2
 70
     0
 43
0.0116232768036383
 10
22.00014626227539
 20
0.7917478569542027
 10
22.0001462622763
 20
5.442046320692952
  0
LWPOLYLINE
  5
D2
330
2
100
AcDbEntity
  8
4
 62
     7
100
AcDbPolyline
 90
        2
 70
     0
 43
0.0116232768036383
 10
22.00014626227539
 20
-3.811062394982172
 10
22.00014626227539
 20
-0.2310936017946688
  0
LWPOLYLINE
  5
D3
330
2
100
AcDbEntity
  8
4
 62
     7
100
AcDbPolyline
 90
        2
 70
     0
 43
0.0116232768036383
 10
19.53924603837504
 20
-3.81106285731505
 10
19.53924603837504
 20
-0.2310936017946688
  0
LWPOLYLINE
  5
D4
330
2
100
AcDbEntity
  8
4
 62
     7
100
AcDbPolyline
 90
        2
 70
     0
 43
0.0116232768036383
 10
20.76969615032522
 20
-3.81106285731505
 10
20.76969615032522
 20
-0.2310936017946688
  0
TEXT
  5
D5
330
2
100
AcDbEntity
  8
4
 62
     3
100
AcDbText
 10
21.21977390579535
 20
-4.010778267705447
 30
0.0
 40
0.1162327680363831
  1
0.008
 41
0.9
  7
ROMANS
 72
     4
 11
21.42899288826084
 21
-3.952661883687255
 31
0.0
100
AcDbText
  0
TEXT
  5
D6
330
2
100
AcDbEntity
  8
4
 62
     3
100
AcDbText
 10
21.18306298512855
 20
2.918277367616795
 30
0.0
 40
0.1162327680363831
  1
3.900
 41
0.9
  7
ROMANS
 72
     4
 11
21.39228196759404
 21
2.976393751634986
 31
0.0
100
AcDbText
  0
TEXT
  5
D7
330
2
100
AcDbEntity
  8
4
 62
     3
100
AcDbText
 10
21.17915883423249
 20
-0.4209208003393741
 30
0.0
 40
0.1162327680363831
  1
0.175
 41
0.9
  7
ROMANS
 72
     4
 11
21.37841500800914
 21
-0.3628044163211825
 31
0.0
100
AcDbText
  0
TEXT
  5
D8
330
2
100
AcDbEntity
  8
4
 62
     3
100
AcDbText
 10
20.14913150500974
 20
0.8659346263301383
 30
0.0
 40
0.1162327680363831
  1
-
 41
0.9
  7
ROMANS
 72
     4
 11
20.19396414410949
 21
0.9157486697743024
 31
0.0
100
AcDbText
  0
TEXT
  5
D9
330
2
100
AcDbEntity
  8
4
 62
     3
100
AcDbText
 10
20.14913150500974
 20
1.121646716010539
 30
0.0
 40
0.1162327680363831
  1
-
 41
0.9
  7
ROMANS
 72
     4
 11
20.19396414410949
 21
1.171460759454703
 31
0.0
100
AcDbText
  0
TEXT
  5
DA
330
2
100
AcDbEntity
  8
4
 62
     3
100
AcDbText
 10
20.14913150500974
 20
1.377358805690485
 30
0.0
 40
0.1162327680363831
  1
-
 41
0.9
  7
ROMANS
 72
     4
 11
20.19396414410949
 21
1.427172849134649
 31
0.0
100
AcDbText
  0
TEXT
  5
DB
330
2
100
AcDbEntity
  8
4
 62
     3
100
AcDbText
 10
19.96913966557432
 20
-0.4209208003393741
 30
0.0
 40
0.1162327680363831
  1
0.150
 41
0.9
  7
ROMANS
 72
     4
 11
20.16839583935098
 21
-0.3628044163211825
 31
0.0
100
AcDbText
  0
TEXT
  5
DC
330
2
100
AcDbEntity
  8
4
 62
     3
100
AcDbText
 10
22.59422062255129
 20
1.377358805690485
 30
0.0
 40
0.1162327680363831
  1
-
 41
0.9
  7
ROMANS
 72
     4
 11
22.63905326165104
 21
1.427172849134649
 31
0.0
100
AcDbText
  0
TEXT
  5
DD
330
2
100
AcDbEntity
  8
4
 62
     3
100
AcDbText
 10
21.34102964884136
 20
1.377358805690485
 30
0.0
 40
0.1162327680363831
  1
-
 41
0.9
  7
ROMANS
 72
     4
 11
21.38586228794111
 21
1.427172849134649
 31
0.0
100
AcDbText
  0
TEXT
  5
DE
330
2
100
AcDbEntity
  8
4
 62
     3
100
AcDbText
 10
21.34102964884136
 20
1.121646716010539
 30
0.0
 40
0.1162327680363831
  1
-
 41
0.9
  7
ROMANS
 72
     4
 11
21.38586228794111
 21
1.171460759454703
 31
0.0
100
AcDbText
  0
TEXT
  5
DF
330
2
100
AcDbEntity
  8
4
 62
     3
100
AcDbText
 10
21.34102964884136
 20
0.8659346263301383
 30
0.0
 40
0.1162327680363831
  1
-
 41
0.9
  7
ROMANS
 72
     4
 11
21.38586228794111
 21
0.9157486697743024
 31
0.0
100
AcDbText
  0
TEXT
  5
E0
330
2
100
AcDbEntity
  8
4
 62
     3
100
AcDbText
 10
22.41940227226534
 20
1.118791816996875
 30
0.0
 40
0.1162327680363831
  1
0.015
 41
0.9
  7
ROMANS
 72
     4
 11
22.61865844604199
 21
1.176908201015066
 31
0.0
100
AcDbText
  0
TEXT
  5
E1
330
2
100
AcDbEntity
  8
4
 62
     3
100
AcDbText
 10
22.41940227226534
 20
0.8630797273167019
 30
0.0
 40
0.1162327680363831
  1
1.000
 41
0.9
  7
ROMANS
 72
     4
 11
22.61865844604199
 21
0.9211961113348934
 31
0.0
100
AcDbText
  0
TEXT
  5
E2
330
2
100
AcDbEntity
  8
4
 62
     3
100
AcDbText
 10
22.43982711624879
 20
-0.4154733587792379
 30
0.0
 40
0.1162327680363831
  1
0.200
 41
0.9
  7
ROMANS
 72
     4
 11
22.64904609871428
 21
-0.3573569747610463
 31
0.0
100
AcDbText
  0
TEXT
  5
E3
330
2
100
AcDbEntity
  8
4
 62
     7
100
AcDbText
 10
21.16365632557038
 20
5.210780893456325
 30
0.0
 40
0.1394793216436596
  1
NOM.
 41
0.9
  7
ROMANS
 72
     4
 11
21.37287530803587
 21
5.280520554278155
 31
0.0
100
AcDbText
  0
TEXT
  5
E4
330
2
100
AcDbEntity
  8
4
 62
     3
100
AcDbText
 10
21.17898935162678
 20
4.443048982837311
 30
0.0
 40
0.1162327680363831
  1
0.220
 41
0.9
  7
ROMANS
 72
     4
 11
21.38820833409227
 21
4.501165366855502
 31
0.0
100
AcDbText
  0
TEXT
  5
E5
330
2
100
AcDbEntity
  8
4
 62
     3
100
AcDbText
 10
21.18895216031561
 20
4.698761072517484
 30
0.0
 40
0.1162327680363831
  1
1.550
 41
0.9
  7
ROMANS
 72
     4
 11
21.38820833409227
 21
4.756877456535676
 31
0.0
100
AcDbText
  0
TEXT
  5
E6
330
2
100
AcDbEntity
  8
4
 62
     3
100
AcDbText
 10
21.18895216031561
 20
4.954473162197544
 30
0.0
 40
0.1162327680363831
  1
0.127
 41
0.9
  7
ROMANS
 72
     4
 11
21.38820833409227
 21
5.012589546215735
 31
0.0
100
AcDbText
  0
TEXT
  5
E7
330
2
100
AcDbEntity
  8
4
 62
     7
100
AcDbText
 10
20.01430698206576
 20
5.212063665501881
 30
0.0
 40
0.1394793216436596
  1
MIN.
 41
0.9
  7
ROMANS
 72
     4
 11
20.18168216803815
 21
5.281803326323711
 31
0.0
100
AcDbText
  0
TEXT
  5
E8
330
2
100
AcDbEntity
  8
4
 62
     3
100
AcDbText
 10
19.97095555922648
 20
4.954473162197544
 30
0.0
 40
0.1162327680363831
  1
0.119
 41
0.9
  7
ROMANS
 72
     4
 11
20.15775822214209
 21
5.012589546215735
 31
0.0
100
AcDbText
  0
TEXT
  5
E9
330
2
100
AcDbEntity
  8
4
 62
     3
100
AcDbText
 10
19.95850204836543
 20
4.698761072517484
 30
0.0
 40
0.1162327680363831
  1
1.525
 41
0.9
  7
ROMANS
 72
     4
 11
20.15775822214209
 21
4.756877456535676
 31
0.0
100
AcDbText
  0
TEXT
  5
EA
330
2
100
AcDbEntity
  8
4
 62
     3
100
AcDbText
 10
19.95850204836543
 20
4.443048982837311
 30
0.0
 40
0.1162327680363831
  1
0.195
 41
0.9
  7
ROMANS
 72
     4
 11
20.15775822214209
 21
4.501165366855502
 31
0.0
100
AcDbText
  0
TEXT
  5
EB
330
2
100
AcDbEntity
  8
4
 62
     3
100
AcDbText
 10
19.95601134619323
 20
4.187336893157251
 30
0.0
 40
0.1162327680363831
  1
0.144
 41
0.9
  7
ROMANS
 72
     4
 11
20.15775822214209
 21
4.245453277175442
 31
0.0
100
AcDbText
  0
TEXT
  5
EC
330
2
100
AcDbEntity
  8
4
 62
     3
100
AcDbText
 10
19.96846485705427
 20
3.931624803477305
 30
0.0
 40
0.1162327680363831
  1
0.110
 41
0.9
  7
ROMANS
 72
     4
 11
20.15775822214209
 21
3.989741187495496
 31
0.0
100
AcDbText
  0
TEXT
  5
ED
330
2
100
AcDbEntity
  8
4
 62
     3
100
AcDbText
 10
19.96846485705427
 20
3.675912713797245
 30
0.0
 40
0.1162327680363831
  1
0.110
 41
0.9
  7
ROMANS
 72
     4
 11
20.15775822214209
 21
3.734029097815437
 31
0.0
100
AcDbText
  0
TEXT
  5
EE
330
2
100
AcDbEntity
  8
4
 62
     3
100
AcDbText
 10
19.95850204836543
 20
3.420200624117185
 30
0.0
 40
0.1162327680363831
  1
0.100
 41
0.9
  7
ROMANS
 72
     4
 11
20.15775822214209
 21
3.478317008135377
 31
0.0
100
AcDbText
  0
TEXT
  5
EF
330
2
100
AcDbEntity
  8
4
 62
     3
100
AcDbText
 10
21.34102964884136
 20
3.423055523130849
 30
0.0
 40
0.1162327680363831
  1
-
 41
0.9
  7
ROMANS
 72
     4
 11
21.38586228794111
 21
3.472869566575013
 31
0.0
100
AcDbText
  0
TEXT
  5
F0
330
2
100
AcDbEntity
  8
4
 62
     3
100
AcDbText
 10
22.59422062255129
 20
3.423055523130849
 30
0.0
 40
0.1162327680363831
  1
-
 41
0.9
  7
ROMANS
 72
     4
 11
22.63905326165104
 21
3.472869566575013
 31
0.0
100
AcDbText
  0
TEXT
  5
F1
330
2
100
AcDbEntity
  8
4
 62
     3
100
AcDbText
 10
21.34102964884136
 20
3.678767612811022
 30
0.0
 40
0.1162327680363831
  1
-
 41
0.9
  7
ROMANS
 72
     4
 11
21.38586228794111
 21
3.728581656255187
 31
0.0
100
AcDbText
  0
TEXT
  5
F2
330
2
100
AcDbEntity
  8
4
 62
     3
100
AcDbText
 10
22.59422062255129
 20
3.678767612811022
 30
0.0
 40
0.1162327680363831
  1
-
 41
0.9
  7
ROMANS
 72
     4
 11
22.63905326165104
 21
3.728581656255187
 31
0.0
100
AcDbText
  0
TEXT
  5
F3
330
2
100
AcDbEntity
  8
4
 62
     3
100
AcDbText
 10
21.34102964884136
 20
3.934479702490969
 30
0.0
 40
0.1162327680363831
  1
-
 41
0.9
  7
ROMANS
 72
     4
 11
21.38586228794111
 21
3.984293745935133
 31
0.0
100
AcDbText
  0
TEXT
  5
F4
330
2
100
AcDbEntity
  8
4
 62
     3
100
AcDbText
 10
22.59422062255129
 20
3.934479702490969
 30
0.0
 40
0.1162327680363831
  1
-
 41
0.9
  7
ROMANS
 72
     4
 11
22.63905326165104
 21
3.984293745935133
 31
0.0
100
AcDbText
  0
TEXT
  5
F5
330
2
100
AcDbEntity
  8
4
 62
     3
100
AcDbText
 10
21.34102964884136
 20
4.190191792170915
 30
0.0
 40
0.1162327680363831
  1
-
 41
0.9
  7
ROMANS
 72
     4
 11
21.38586228794111
 21
4.240005835615079
 31
0.0
100
AcDbText
  0
TEXT
  5
F6
330
2
100
AcDbEntity
  8
4
 62
     3
100
AcDbText
 10
22.59422062255129
 20
4.190191792170915
 30
0.0
 40
0.1162327680363831
  1
-
 41
0.9
  7
ROMANS
 72
     4
 11
22.63905326165104
 21
4.240005835615079
 31
0.0
100
AcDbText
  0
TEXT
  5
F7
330
2
100
AcDbEntity
  8
4
 62
     7
100
AcDbText
 10
22.457042077925
 20
5.213346437547324
 30
0.0
 40
0.1394793216436596
  1
MAX.
 41
0.9
  7
ROMANS
 72
     4
 11
22.66028337517719
 21
5.283086098369153
 31
0.0
100
AcDbText
  0
TEXT
  5
F8
330
2
100
AcDbEntity
  8
4
 62
     3
100
AcDbText
 10
22.4094394635765
 20
4.443048982837311
 30
0.0
 40
0.1162327680363831
  1
0.245
 41
0.9
  7
ROMANS
 72
     4
 11
22.61865844604199
 21
4.501165366855502
 31
0.0
100
AcDbText
  0
TEXT
  5
F9
330
2
100
AcDbEntity
  8
4
 62
     3
100
AcDbText
 10
22.41940227226534
 20
4.698761072517484
 30
0.0
 40
0.1162327680363831
  1
1.575
 41
0.9
  7
ROMANS
 72
     4
 11
22.61865844604199
 21
4.756877456535676
 31
0.0
100
AcDbText
  0
TEXT
  5
FA
330
2
100
AcDbEntity
  8
4
 62
     3
100
AcDbText
 10
22.41940227226534
 20
4.954473162197544
 30
0.0
 40
0.1162327680363831
  1
0.135
 41
0.9
  7
ROMANS
 72
     4
 11
22.61865844604199
 21
5.012589546215735
 31
0.0
100
AcDbText
  0
LINE
  5
FB
330
2
100
AcDbEntity
  8
4
 62
     3
100
AcDbLine
 10
13.47663423687436
 20
-0.2310949887937568
 30
0.0
 11
23.23059637422511
 21
-0.2310949887937568
 31
0.0
  0
TEXT
  5
FC
330
2
100
AcDbEntity
  8
4
 62
     3
100
AcDbText
 10
22.12996939862259
 20
-2.197156155149846
 30
0.0
 40
0.1162327712203424
  1
0.050/1.000
 41
0.9
  7
ROMANS
 72
     4
 11
22.60818422878628
 21
-2.147342110341128
 31
0.0
100
AcDbText
  0
TEXT
  5
FD
330
2
100
AcDbEntity
  8
4
 62
     3
100
AcDbText
 10
22.43982712829328
 20
-1.949746399266652
 30
0.0
 40
0.1162327712203424
  1
0.050
 41
0.9
  7
ROMANS
 72
     4
 11
22.6490461164899
 21
-1.891630013656481
 31
0.0
100
AcDbText
  0
TEXT
  5
FE
330
2
100
AcDbEntity
  8
4
 62
     3
100
AcDbText
 10
22.17083128632621
 20
-1.685731961780325
 30
0.0
 40
0.1162327712203424
  1
0.004/1.000
 41
0.9
  7
ROMANS
 72
     4
 11
22.6490461164899
 21
-1.635917916971607
 31
0.0
100
AcDbText
  0
TEXT
  5
FF
330
2
100
AcDbEntity
  8
4
 62
     3
100
AcDbText
 10
22.59955751141718
 20
-2.458315693544355
 30
0.0
 40
0.1162327712203424
  1
-
 41
0.9
  7
ROMANS
 72
     4
 11
22.64439015174503
 21
-2.408501648735636
 31
0.0
100
AcDbText
  0
TEXT
  5
100
330
2
100
AcDbEntity
  8
4
 62
     3
100
AcDbText
 10
20.84009788218188
 20
-1.43001986373101
 30
0.0
 40
0.1162327680363831
  1
0.050/-0.100
 41
0.9
  7
ROMANS
 72
     4
 11
21.38307095572327
 21
-1.380205820286846
 31
0.0
100
AcDbText
  0
TEXT
  5
101
330
2
100
AcDbEntity
  8
4
 62
     3
100
AcDbText
 10
21.33358235065055
 20
-0.9240431134359054
 30
0.0
 40
0.1162327712203424
  1
-
 41
0.9
  7
ROMANS
 72
     4
 11
21.3784149909784
 21
-0.8742290686271871
 31
0.0
100
AcDbText
  0
TEXT
  5
102
330
2
100
AcDbEntity
  8
4
 62
     3
100
AcDbText
 10
21.33358235065055
 20
-0.6683310167508038
 30
0.0
 40
0.1162327712203424
  1
-
 41
0.9
  7
ROMANS
 72
     4
 11
21.3784149909784
 21
-0.6185169719420856
 31
0.0
100
AcDbText
  0
TEXT
  5
103
330
2
100
AcDbEntity
  8
4
 62
     3
100
AcDbText
 10
21.33358235065055
 20
-1.179755210120438
 30
0.0
 40
0.1162327712203424
  1
-
 41
0.9
  7
ROMANS
 72
     4
 11
21.3784149909784
 21
-1.12994116531172
 31
0.0
100
AcDbText
  0
TEXT
  5
104
330
2
100
AcDbEntity
  8
4
 62
     3
100
AcDbText
 10
21.33358235065055
 20
-3.736876162958301
 30
0.0
 40
0.1162327712203424
  1
-
 41
0.9
  7
ROMANS
 72
     4
 11
21.3784149909784
 21
-3.687062118149583
 31
0.0
100
AcDbText
  0
TEXT
  5
105
330
2
100
AcDbEntity
  8
4
 62
     3
100
AcDbText
 10
21.33358235065055
 20
-3.225451976593822
 30
0.0
 40
0.1162327712203424
  1
-
 41
0.9
  7
ROMANS
 72
     4
 11
21.3784149909784
 21
-3.175637931785104
 31
0.0
100
AcDbText
  0
TEXT
  5
106
330
2
100
AcDbEntity
  8
4
 62
     3
100
AcDbText
 10
21.33358235065055
 20
-2.969739879909061
 30
0.0
 40
0.1162327712203424
  1
-
 41
0.9
  7
ROMANS
 72
     4
 11
21.3784149909784
 21
-2.919925835100343
 31
0.0
100
AcDbText
  0
TEXT
  5
107
330
2
100
AcDbEntity
  8
4
 62
     3
100
AcDbText
 10
20.12356314884631
 20
-2.458315693544355
 30
0.0
 40
0.1162327712203424
  1
-
 41
0.9
  7
ROMANS
 72
     4
 11
20.16839578917416
 21
-2.408501648735636
 31
0.0
100
AcDbText
  0
TEXT
  5
108
330
2
100
AcDbEntity
  8
4
 62
     3
100
AcDbText
 10
20.12356314884631
 20
-2.969739879909061
 30
0.0
 40
0.1162327712203424
  1
-
 41
0.9
  7
ROMANS
 72
     4
 11
20.16839578917416
 21
-2.919925835100343
 31
0.0
100
AcDbText
  0
TEXT
  5
109
330
2
100
AcDbEntity
  8
4
 62
     3
100
AcDbText
 10
20.12356314884631
 20
-3.225451976593822
 30
0.0
 40
0.1162327712203424
  1
-
 41
0.9
  7
ROMANS
 72
     4
 11
20.16839578917416
 21
-3.175637931785104
 31
0.0
100
AcDbText
  0
TEXT
  5
10A
330
2
100
AcDbEntity
  8
4
 62
     3
100
AcDbText
 10
20.12356314884631
 20
-3.736876162958301
 30
0.0
 40
0.1162327712203424
  1
-
 41
0.9
  7
ROMANS
 72
     4
 11
20.16839578917416
 21
-3.687062118149583
 31
0.0
100
AcDbText
  0
TEXT
  5
10B
330
2
100
AcDbEntity
  8
4
 62
     3
100
AcDbText
 10
20.12356314884631
 20
-1.179755210120438
 30
0.0
 40
0.1162327712203424
  1
-
 41
0.9
  7
ROMANS
 72
     4
 11
20.16839578917416
 21
-1.12994116531172
 31
0.0
100
AcDbText
  0
TEXT
  5
10C
330
2
100
AcDbEntity
  8
4
 62
     3
100
AcDbText
 10
20.12356314884631
 20
-0.6683310167508038
 30
0.0
 40
0.1162327712203424
  1
-
 41
0.9
  7
ROMANS
 72
     4
 11
20.16839578917416
 21
-0.6185169719420856
 31
0.0
100
AcDbText
  0
TEXT
  5
10D
330
2
100
AcDbEntity
  8
4
 62
     3
100
AcDbText
 10
20.12356314884631
 20
-0.9240431134359054
 30
0.0
 40
0.1162327712203424
  1
-
 41
0.9
  7
ROMANS
 72
     4
 11
20.16839578917416
 21
-0.8742290686271871
 31
0.0
100
AcDbText
  0
TEXT
  5
10E
330
2
100
AcDbEntity
  8
4
 62
     3
100
AcDbText
 10
20.12356314884631
 20
-2.20260359685948
 30
0.0
 40
0.1162327712203424
  1
-
 41
0.9
  7
ROMANS
 72
     4
 11
20.16839578917416
 21
-2.152789552050762
 31
0.0
100
AcDbText
  0
TEXT
  5
10F
330
2
100
AcDbEntity
  8
4
 62
     3
100
AcDbText
 10
20.12356314884631
 20
-1.94689150017472
 30
0.0
 40
0.1162327712203424
  1
-
 41
0.9
  7
ROMANS
 72
     4
 11
20.16839578917416
 21
-1.897077455366002
 31
0.0
100
AcDbText
  0
TEXT
  5
110
330
2
100
AcDbEntity
  8
4
 62
     3
100
AcDbText
 10
20.12356314884631
 20
-1.691179403490073
 30
0.0
 40
0.1162327712203424
  1
-
 41
0.9
  7
ROMANS
 72
     4
 11
20.16839578917416
 21
-1.641365358681355
 31
0.0
100
AcDbText
  0
TEXT
  5
111
330
2
100
AcDbEntity
  8
4
 62
     3
100
AcDbText
 10
20.12356314884631
 20
-1.435467306805312
 30
0.0
 40
0.1162327712203424
  1
-
 41
0.9
  7
ROMANS
 72
     4
 11
20.16839578917416
 21
-1.385653261996594
 31
0.0
100
AcDbText
  0
TEXT
  5
112
330
2
100
AcDbEntity
  8
4
 62
     3
100
AcDbText
 10
22.59955751141718
 20
-1.435467306805312
 30
0.0
 40
0.1162327712203424
  1
-
 41
0.9
  7
ROMANS
 72
     4
 11
22.64439015174503
 21
-1.385653261996594
 31
0.0
100
AcDbText
  0
TEXT
  5
113
330
2
100
AcDbEntity
  8
4
 62
     3
100
AcDbText
 10
21.33358235065055
 20
-1.691179403490073
 30
0.0
 40
0.1162327712203424
  1
-
 41
0.9
  7
ROMANS
 72
     4
 11
21.3784149909784
 21
-1.641365358681355
 31
0.0
100
AcDbText
  0
TEXT
  5
114
330
2
100
AcDbEntity
  8
4
 62
     3
100
AcDbText
 10
21.33358235065055
 20
-1.94689150017472
 30
0.0
 40
0.1162327712203424
  1
-
 41
0.9
  7
ROMANS
 72
     4
 11
21.3784149909784
 21
-1.897077455366002
 31
0.0
100
AcDbText
  0
TEXT
  5
115
330
2
100
AcDbEntity
  8
4
 62
     3
100
AcDbText
 10
21.33358235065055
 20
-2.20260359685948
 30
0.0
 40
0.1162327712203424
  1
-
 41
0.9
  7
ROMANS
 72
     4
 11
21.3784149909784
 21
-2.152789552050762
 31
0.0
100
AcDbText
  0
TEXT
  5
116
330
2
100
AcDbEntity
  8
4
 62
     3
100
AcDbText
 10
22.44978993725503
 20
-0.6711859158428498
 30
0.0
 40
0.1162327712203424
  1
0.130
 41
0.9
  7
ROMANS
 72
     4
 11
22.6490461164899
 21
-0.6130695302326786
 31
0.0
100
AcDbText
  0
TEXT
  5
117
330
2
100
AcDbEntity
  8
4
 62
     3
100
AcDbText
 10
22.43982712829328
 20
-0.9268980125276103
 30
0.0
 40
0.1162327712203424
  1
0.025
 41
0.9
  7
ROMANS
 72
     4
 11
22.6490461164899
 21
-0.868781626917439
 31
0.0
100
AcDbText
  0
TEXT
  5
118
330
2
100
AcDbEntity
  8
4
 62
     3
100
AcDbText
 10
22.43982712829328
 20
-1.182610109212598
 30
0.0
 40
0.1162327712203424
  1
0.040
 41
0.9
  7
ROMANS
 72
     4
 11
22.6490461164899
 21
-1.124493723602427
 31
0.0
100
AcDbText
  0
TEXT
  5
119
330
2
100
AcDbEntity
  8
4
 62
     3
100
AcDbText
 10
22.41492010588892
 20
-3.228306875685868
 30
0.0
 40
0.1162327712203424
  1
2.500%%d
 41
0.9
  7
ROMANS
 72
     4
 11
22.6490461164899
 21
-3.170190490075697
 31
0.0
100
AcDbText
  0
TEXT
  5
11A
330
2
100
AcDbEntity
  8
4
 62
     3
100
AcDbText
 10
22.43982712829328
 20
-3.739731062050234
 30
0.0
 40
0.1162327712203424
  1
0.750
 41
0.9
  7
ROMANS
 72
     4
 11
22.6490461164899
 21
-3.681614676440062
 31
0.0
100
AcDbText
  0
TEXT
  5
11B
330
2
100
AcDbEntity
  8
4
 62
     3
100
AcDbText
 10
22.43982712829328
 20
-2.972594779000994
 30
0.0
 40
0.1162327712203424
  1
0.250
 41
0.9
  7
ROMANS
 72
     4
 11
22.6490461164899
 21
-2.914478393390822
 31
0.0
100
AcDbText
  0
TEXT
  5
11C
330
2
100
AcDbEntity
  8
4
 62
     3
100
AcDbText
 10
21.10909371678037
 20
-2.461170591044194
 30
0.0
 40
0.1162327680363831
  1
%%P0.050
 41
0.9
  7
ROMANS
 72
     4
 11
21.38307095572327
 21
-2.403054207026002
 31
0.0
100
AcDbText
  0
TEXT
  5
11D
330
2
100
AcDbEntity
  8
4
 62
     3
100
AcDbText
 10
13.6120035441229
 20
-3.485188779535448
 30
0.0
 40
0.1162327680363831
  1
31
 41
0.9
  7
ROMANS
 72
     4
 11
13.67427109842811
 21
-3.427072395517257
 31
0.0
100
AcDbText
  0
TEXT
  5
11E
330
2
100
AcDbEntity
  8
4
 62
     3
100
AcDbText
 10
13.59192643426715
 20
-0.6709862974733341
 30
0.0
 40
0.1162327680363831
  1
20
 41
0.9
  7
ROMANS
 72
     4
 11
13.67661030812223
 21
-0.6128699134551426
 31
0.0
100
AcDbText
  0
LINE
  5
11F
330
2
100
AcDbEntity
  8
4
 62
     3
100
AcDbLine
 10
13.47663423687527
 20
3.093156201741408
 30
0.0
 11
23.23059637422602
 21
3.093156201741408
 31
0.0
  0
TEXT
  5
120
330
2
100
AcDbEntity
  8
4
 62
     3
100
AcDbText
 10
14.00924809639031
 20
3.158176656083313
 30
0.0
 40
0.1162327680363831
  1
HALF ETCHED DEPTH
 41
0.9
  7
ROMANS
 72
     4
 11
14.83117981321902
 21
3.216293040101504
 31
0.0
100
AcDbText
  0
TEXT
  5
121
330
2
100
AcDbEntity
  8
4
 62
     3
100
AcDbText
 10
13.6502609933492
 20
3.167742809109157
 30
0.0
 40
0.1162327680363831
  1
8
 41
0.9
  7
ROMANS
 72
     4
 11
13.68513082376012
 21
3.225859193127348
 31
0.0
100
AcDbText
  0
TEXT
  5
122
330
2
100
AcDbEntity
  8
4
 62
     3
100
AcDbText
 10
14.01707543450672
 20
-2.723194044253247
 30
0.0
 40
0.1162327680363831
  1
PAD SHIFT
 41
0.9
  7
ROMANS
 72
     4
 11
14.42804129292108
 21
-2.665077660235056
 31
0.0
100
AcDbText
  0
TEXT
  5
123
330
2
100
AcDbEntity
  8
4
 62
     3
100
AcDbText
 10
21.10909371678037
 20
-2.71688268072414
 30
0.0
 40
0.1162327680363831
  1
%%P0.050
 41
0.9
  7
ROMANS
 72
     4
 11
21.38307095572327
 21
-2.658766296705948
 31
0.0
100
AcDbText
  0
TEXT
  5
124
330
2
100
AcDbEntity
  8
4
 62
     3
100
AcDbText
 10
22.59955751141718
 20
-2.714027783224414
 30
0.0
 40
0.1162327712203424
  1
-
 41
0.9
  7
ROMANS
 72
     4
 11
22.64439015174503
 21
-2.664213738415696
 31
0.0
100
AcDbText
  0
TEXT
  5
125
330
2
100
AcDbEntity
  8
4
 62
     3
100
AcDbText
 10
20.12356314884631
 20
-2.714027783224414
 30
0.0
 40
0.1162327712203424
  1
-
 41
0.9
  7
ROMANS
 72
     4
 11
20.16839578917416
 21
-2.664213738415696
 31
0.0
100
AcDbText
  0
TEXT
  5
126
330
2
100
AcDbEntity
  8
4
 62
     3
100
AcDbText
 10
21.17898935162678
 20
2.65306435507712
 30
0.0
 40
0.1162327680363831
  1
3.000
 41
0.9
  7
ROMANS
 72
     4
 11
21.38820833409227
 21
2.711180739095311
 31
0.0
100
AcDbText
  0
TEXT
  5
127
330
2
100
AcDbEntity
  8
4
 62
     3
100
AcDbText
 10
22.4094394635765
 20
2.65306435507712
 30
0.0
 40
0.1162327680363831
  1
3.050
 41
0.9
  7
ROMANS
 72
     4
 11
22.61865844604199
 21
2.711180739095311
 31
0.0
100
AcDbText
  0
TEXT
  5
128
330
2
100
AcDbEntity
  8
4
 62
     3
100
AcDbText
 10
19.9485392396766
 20
2.65306435507712
 30
0.0
 40
0.1162327680363831
  1
2.950
 41
0.9
  7
ROMANS
 72
     4
 11
20.15775822214209
 21
2.711180739095311
 31
0.0
100
AcDbText
  0
TEXT
  5
129
330
2
100
AcDbEntity
  8
4
 62
     3
100
AcDbText
 10
14.02062517302723
 20
2.910766906977507
 30
0.0
 40
0.1162327680363831
  1
PAD SIZE (X)
 41
0.9
  7
ROMANS
 72
     4
 11
14.54367262919095
 21
2.960580950421672
 31
0.0
100
AcDbText
  0
TEXT
  5
12A
330
2
100
AcDbEntity
  8
4
 62
     3
100
AcDbText
 10
14.02071502771726
 20
2.655054817297561
 30
0.0
 40
0.1162327680363831
  1
PAD SIZE (Y)
 41
0.9
  7
ROMANS
 72
     4
 11
14.54376248388098
 21
2.704868860741726
 31
0.0
100
AcDbText
  0
TEXT
  5
12B
330
2
100
AcDbEntity
  8
4
 62
     3
100
AcDbText
 10
22.4094394635765
 20
2.908776444757066
 30
0.0
 40
0.1162327680363831
  1
3.950
 41
0.9
  7
ROMANS
 72
     4
 11
22.61865844604199
 21
2.966892828775257
 31
0.0
100
AcDbText
  0
TEXT
  5
12C
330
2
100
AcDbEntity
  8
4
 62
     3
100
AcDbText
 10
19.9485392396766
 20
2.908776444757066
 30
0.0
 40
0.1162327680363831
  1
3.850
 41
0.9
  7
ROMANS
 72
     4
 11
20.15775822214209
 21
2.966892828775257
 31
0.0
100
AcDbText
  0
TEXT
  5
12D
330
2
100
AcDbEntity
  8
4
 62
     3
100
AcDbText
 10
19.98225445947179
 20
3.159041092876876
 30
0.0
 40
0.1162327680363831
  1
0.034
 41
0.9
  7
ROMANS
 72
     4
 11
20.19396414410949
 21
3.217157476895067
 31
0.0
100
AcDbText
  0
TEXT
  5
12E
330
2
100
AcDbEntity
  8
4
 62
     3
100
AcDbText
 10
22.42734357701335
 20
3.159041092876876
 30
0.0
 40
0.1162327680363831
  1
0.094
 41
0.9
  7
ROMANS
 72
     4
 11
22.63905326165104
 21
3.217157476895067
 31
0.0
100
AcDbText
  0
TEXT
  5
12F
330
2
100
AcDbEntity
  8
4
 62
     3
100
AcDbText
 10
21.17415260330341
 20
3.159041092876876
 30
0.0
 40
0.1162327680363831
  1
0.064
 41
0.9
  7
ROMANS
 72
     4
 11
21.38586228794111
 21
3.217157476895067
 31
0.0
100
AcDbText
  0
TEXT
  5
130
330
2
100
AcDbEntity
  8
4
 62
     3
100
AcDbText
 10
22.32973699406582
 20
2.397352265396942
 30
0.0
 40
0.1162327680363914
  1
191.600
 41
0.9
  7
ROMANS
 72
     4
 11
22.61865844604199
 21
2.455468649415138
 31
0.0
100
AcDbText
  0
TEXT
  5
131
330
2
100
AcDbEntity
  8
4
 62
     3
100
AcDbText
 10
22.35962542013232
 20
2.14164017571711
 30
0.0
 40
0.1162327680363914
  1
60.050
 41
0.9
  7
ROMANS
 72
     4
 11
22.61865844604199
 21
2.199756559735305
 31
0.0
100
AcDbText
  0
TEXT
  5
132
330
2
100
AcDbEntity
  8
4
 62
     3
100
AcDbText
 10
22.36958822882115
 20
1.885928086036709
 30
0.0
 40
0.1162327680363914
  1
12.025
 41
0.9
  7
ROMANS
 72
     4
 11
22.61865844604199
 21
1.944044470054905
 31
0.0
100
AcDbText
  0
TEXT
  5
133
330
2
100
AcDbEntity
  8
4
 62
     3
100
AcDbText
 10
22.31977418537699
 20
1.630215996356763
 30
0.0
 40
0.1162327680363914
  1
180.050
 41
0.9
  7
ROMANS
 72
     4
 11
22.61865844604199
 21
1.688332380374959
 31
0.0
100
AcDbText
  0
TEXT
  5
134
330
2
100
AcDbEntity
  8
4
 62
     3
100
AcDbText
 10
19.85887396147709
 20
1.630215996356763
 30
0.0
 40
0.1162327680363914
  1
179.950
 41
0.9
  7
ROMANS
 72
     4
 11
20.15775822214209
 21
1.688332380374959
 31
0.0
100
AcDbText
  0
TEXT
  5
135
330
2
100
AcDbEntity
  8
4
 62
     3
100
AcDbText
 10
19.91865081361009
 20
1.885928086036709
 30
0.0
 40
0.1162327680363914
  1
11.975
 41
0.9
  7
ROMANS
 72
     4
 11
20.15775822214209
 21
1.944044470054905
 31
0.0
100
AcDbText
  0
TEXT
  5
136
330
2
100
AcDbEntity
  8
4
 62
     3
100
AcDbText
 10
19.89872519623242
 20
2.14164017571711
 30
0.0
 40
0.1162327680363914
  1
59.950
 41
0.9
  7
ROMANS
 72
     4
 11
20.15775822214209
 21
2.199756559735305
 31
0.0
100
AcDbText
  0
TEXT
  5
137
330
2
100
AcDbEntity
  8
4
 62
     3
100
AcDbText
 10
19.86883677016592
 20
2.397352265396942
 30
0.0
 40
0.1162327680363914
  1
191.400
 41
0.9
  7
ROMANS
 72
     4
 11
20.15775822214209
 21
2.455468649415138
 31
0.0
100
AcDbText
  0
TEXT
  5
138
330
2
100
AcDbEntity
  8
4
 62
     3
100
AcDbText
 10
21.0992868821161
 20
2.397352265396942
 30
0.0
 40
0.1162327680363914
  1
191.500
 41
0.9
  7
ROMANS
 72
     4
 11
21.38820833409227
 21
2.455468649415138
 31
0.0
100
AcDbText
  0
TEXT
  5
139
330
2
100
AcDbEntity
  8
4
 62
     3
100
AcDbText
 10
21.12917530818259
 20
2.14164017571711
 30
0.0
 40
0.1162327680363914
  1
60.000
 41
0.9
  7
ROMANS
 72
     4
 11
21.38820833409227
 21
2.199756559735305
 31
0.0
100
AcDbText
  0
TEXT
  5
13A
330
2
100
AcDbEntity
  8
4
 62
     3
100
AcDbText
 10
21.13913811687143
 20
1.885928086036709
 30
0.0
 40
0.1162327680363914
  1
12.000
 41
0.9
  7
ROMANS
 72
     4
 11
21.38820833409227
 21
1.944044470054905
 31
0.0
100
AcDbText
  0
TEXT
  5
13B
330
2
100
AcDbEntity
  8
4
 62
     3
100
AcDbText
 10
21.08932407342726
 20
1.630215996356763
 30
0.0
 40
0.1162327680363914
  1
180.000
 41
0.9
  7
ROMANS
 72
     4
 11
21.38820833409227
 21
1.688332380374959
 31
0.0
100
AcDbText
  0
LINE
  5
13C
330
2
100
AcDbEntity
  8
4
 62
     3
100
AcDbLine
 10
13.47663423687436
 20
-3.555350305302113
 30
0.0
 11
23.23059637422511
 21
-3.555350305302113
 31
0.0
  0
TEXT
  5
13D
330
2
100
AcDbEntity
  8
4
 62
     3
100
AcDbText
 10
14.04162719134509
 20
-3.483692662964287
 30
0.0
 40
0.1162327680363831
  1
LEAD TWIST
 41
0.9
  7
ROMANS
 72
     4
 11
14.49493498668698
 21
-3.425576278946095
 31
0.0
100
AcDbText
  0
TEXT
  5
13E
330
2
100
AcDbEntity
  8
4
 62
     3
100
AcDbText
 10
21.33358235065055
 20
-3.481164066273541
 30
0.0
 40
0.1162327712203424
  1
-
 41
0.9
  7
ROMANS
 72
     4
 11
21.3784149909784
 21
-3.431350021464822
 31
0.0
100
AcDbText
  0
TEXT
  5
13F
330
2
100
AcDbEntity
  8
4
 62
     3
100
AcDbText
 10
20.12356314884631
 20
-3.481164066273541
 30
0.0
 40
0.1162327712203424
  1
-
 41
0.9
  7
ROMANS
 72
     4
 11
20.16839578917416
 21
-3.431350021464822
 31
0.0
100
AcDbText
  0
TEXT
  5
140
330
2
100
AcDbEntity
  8
4
 62
     3
100
AcDbText
 10
22.41492010588892
 20
-3.484018965365587
 30
0.0
 40
0.1162327712203424
  1
3.500%%D
 41
0.9
  7
ROMANS
 72
     4
 11
22.6490461164899
 21
-3.425902579755415
 31
0.0
100
AcDbText
  0
TEXT
  5
141
330
2
100
AcDbEntity
  8
4
 62
     3
100
AcDbText
 10
13.59207792674524
 20
-4.758074884940739
 30
0.0
 40
0.1162327680363831
  1
36
 41
0.9
  7
ROMANS
 72
     4
 11
13.67427109842811
 21
-4.699958500922548
 31
0.0
100
AcDbText
  0
LWPOLYLINE
  5
142
330
2
100
AcDbEntity
  8
4
 62
     7
100
AcDbPolyline
 90
        2
 70
     0
 43
0.0116232768036382
 10
22.0001462622763
 20
-0.2310986471385377
 10
22.0001462622763
 20
0.7917478569542027
  0
LWPOLYLINE
  5
143
330
2
100
AcDbEntity
  8
4
 62
     7
100
AcDbPolyline
 90
        2
 70
     0
 43
0.0116232768036382
 10
20.76969615032522
 20
-0.2310986471385377
 10
20.76969615032522
 20
0.7917478569542027
  0
LWPOLYLINE
  5
144
330
2
100
AcDbEntity
  8
4
 62
     7
100
AcDbPolyline
 90
        2
 70
     0
 43
0.0116232768036382
 10
19.53924603837504
 20
-0.2310986471385377
 10
19.53924603837504
 20
0.7917478569542027
  0
TEXT
  5
145
330
2
100
AcDbEntity
  8
4
 62
     3
100
AcDbText
 10
20.14913150500837
 20
0.8659346263304797
 30
0.0
 40
0.1162327680363822
  1
-
 41
0.9
  7
ROMANS
 72
     4
 11
20.19396414410812
 21
0.9157486697746435
 31
0.0
100
AcDbText
  0
TEXT
  5
146
330
2
100
AcDbEntity
  8
4
 62
     3
100
AcDbText
 10
21.34102964884136
 20
0.8659346263304797
 30
0.0
 40
0.1162327680363822
  1
-
 41
0.9
  7
ROMANS
 72
     4
 11
21.38586228794111
 21
0.9157486697746435
 31
0.0
100
AcDbText
  0
LINE
  5
147
330
2
100
AcDbEntity
  8
4
 62
     3
100
AcDbLine
 10
13.47663423895801
 20
0.2803255295680174
 30
0.0
 11
23.23059632571994
 21
0.2803255295680174
 31
0.0
  0
LINE
  5
148
330
2
100
AcDbEntity
  8
4
 62
     3
100
AcDbLine
 10
13.47663423895801
 20
0.5360376179173727
 30
0.0
 11
23.23059632571994
 21
0.5360376179173727
 31
0.0
  0
TEXT
  5
149
330
2
100
AcDbEntity
  8
4
 62
     3
100
AcDbText
 10
21.33358233024374
 20
0.0988006725355491
 30
0.0
 40
0.1162327674335375
  1
-
 41
0.9
  7
ROMANS
 72
     4
 11
21.37841496911097
 21
0.1486147157213509
 31
0.0
100
AcDbText
  0
TEXT
  5
14A
330
2
100
AcDbEntity
  8
4
 62
     3
100
AcDbText
 10
21.33358233024374
 20
0.6102248492421042
 30
0.0
 40
0.1162327674335375
  1
-
 41
0.9
  7
ROMANS
 72
     4
 11
21.37841496911097
 21
0.660038892427906
 31
0.0
100
AcDbText
  0
TEXT
  5
14B
330
2
100
AcDbEntity
  8
4
 62
     3
100
AcDbText
 10
21.33358233024374
 20
0.3545127608926351
 30
0.0
 40
0.1162327674335375
  1
-
 41
0.9
  7
ROMANS
 72
     4
 11
21.37841496911097
 21
0.4043268040784369
 31
0.0
100
AcDbText
  0
TEXT
  5
14C
330
2
100
AcDbEntity
  8
4
 62
     3
100
AcDbText
 10
14.01514917286262
 20
0.61139296136746
 30
0.0
 40
0.1162327674335375
  1
PLATING AREA (PAD CENTER REF.) : XR
 41
0.9
  7
ROMANS
 72
     4
 11
15.64904978935692
 21
0.6612070045532619
 31
0.0
100
AcDbText
  0
TEXT
  5
14D
330
2
100
AcDbEntity
  8
4
 62
     3
100
AcDbText
 10
16.94435807330021
 20
0.3389157225211611
 30
0.0
 40
0.1162327674335375
  1
: XL
 41
0.9
  7
ROMANS
 72
     4
 11
17.10874441581336
 21
0.3970321062379298
 31
0.0
100
AcDbText
  0
TEXT
  5
14E
330
2
100
AcDbEntity
  8
4
 62
     3
100
AcDbText
 10
16.93937666898164
 20
0.097711675194997
 30
0.0
 40
0.1162327674335375
  1
: YH
 41
0.9
  7
ROMANS
 72
     4
 11
17.10874441581336
 21
0.1558280589117658
 31
0.0
100
AcDbText
  0
TEXT
  5
14F
330
2
100
AcDbEntity
  8
4
 62
     3
100
AcDbText
 10
16.94435807330021
 20
-0.1664632705263821
 30
0.0
 40
0.1162327674335375
  1
: YL
 41
0.9
  7
ROMANS
 72
     4
 11
17.10874441581336
 21
-0.1083468868096133
 31
0.0
100
AcDbText
  0
LINE
  5
150
330
2
100
AcDbEntity
  8
4
 62
     3
100
AcDbLine
 10
13.47663423895801
 20
0.0246134412109314
 30
0.0
 11
23.23059632571994
 21
0.0246134412109314
 31
0.0
  0
TEXT
  5
151
330
2
100
AcDbEntity
  8
4
 62
     3
100
AcDbText
 10
21.33358233024374
 20
-0.156911415821537
 30
0.0
 40
0.1162327674335375
  1
-
 41
0.9
  7
ROMANS
 72
     4
 11
21.37841496911097
 21
-0.1070973726357351
 31
0.0
100
AcDbText
  0
TEXT
  5
152
330
2
100
AcDbEntity
  8
4
 62
     3
100
AcDbText
 10
19.68010184369948
 20
0.0988015972110817
 30
0.0
 40
0.1162327674335375
  1
0.550/1.900
 41
0.9
  7
ROMANS
 72
     4
 11
20.15831665828319
 21
0.1486156403968835
 31
0.0
100
AcDbText
  0
TEXT
  5
153
330
2
100
AcDbEntity
  8
4
 62
     3
100
AcDbText
 10
22.13036526289441
 20
0.1042476517520072
 30
0.0
 40
0.1162327674335375
  1
0.300/2.150
 41
0.9
  7
ROMANS
 72
     4
 11
22.60858007747811
 21
0.1540616949378091
 31
0.0
100
AcDbText
  0
TEXT
  5
154
330
2
100
AcDbEntity
  8
4
 62
     3
100
AcDbText
 10
19.67040311832759
 20
0.6102229999445856
 30
0.0
 40
0.1162327674335375
  1
2.120/2.350
 41
0.9
  7
ROMANS
 72
     4
 11
20.14861793291129
 21
0.6600370431303873
 31
0.0
100
AcDbText
  0
TEXT
  5
155
330
2
100
AcDbEntity
  8
4
 62
     3
100
AcDbText
 10
22.12251417366598
 20
0.6156690544856247
 30
0.0
 40
0.1162327674335375
  1
2.350/2.580
 41
0.9
  7
ROMANS
 72
     4
 11
22.61069179688684
 21
0.6654830976714266
 31
0.0
100
AcDbText
  0
TEXT
  5
156
330
2
100
AcDbEntity
  8
4
 62
     3
100
AcDbText
 10
19.67040311832759
 20
0.3545109115951165
 30
0.0
 40
0.1162327674335375
  1
2.120/2.350
 41
0.9
  7
ROMANS
 72
     4
 11
20.14861793291129
 21
0.4043249547809183
 31
0.0
100
AcDbText
  0
TEXT
  5
157
330
2
100
AcDbEntity
  8
4
 62
     3
100
AcDbText
 10
22.12251417366598
 20
0.3599569661361557
 30
0.0
 40
0.1162327674335375
  1
2.350/2.580
 41
0.9
  7
ROMANS
 72
     4
 11
22.61069179688684
 21
0.4097710093219576
 31
0.0
100
AcDbText
  0
TEXT
  5
158
330
2
100
AcDbEntity
  8
4
 62
     3
100
AcDbText
 10
19.68010184369948
 20
-0.1569068327938338
 30
0.0
 40
0.1162327674335375
  1
0.550/1.900
 41
0.9
  7
ROMANS
 72
     4
 11
20.15831665828319
 21
-0.107092789608032
 31
0.0
100
AcDbText
  0
TEXT
  5
159
330
2
100
AcDbEntity
  8
4
 62
     3
100
AcDbText
 10
22.13036526289441
 20
-0.1514607782527946
 30
0.0
 40
0.1162327674335375
  1
0.300/2.150
 41
0.9
  7
ROMANS
 72
     4
 11
22.60858007747811
 21
-0.1016467350669927
 31
0.0
100
AcDbText
  0
ENDSEC
  0
SECTION
  2
OBJECTS
  0
DICTIONARY
  5
B
330
0
100
AcDbDictionary
281
     1
  3
ACAD_COLOR
350
36
  3
ACAD_GROUP
350
31
  3
ACAD_LAYOUT
350
11
  3
ACAD_MATERIAL
350
D
  3
ACAD_MLEADERSTYLE
350
39
  3
ACAD_MLINESTYLE
350
32
  3
ACAD_PLOTSETTINGS
350
33
  3
ACAD_PLOTSTYLENAME
350
A
  3
ACAD_SCALELIST
350
37
  3
ACAD_TABLESTYLE
350
38
  3
ACAD_VISUALSTYLE
350
28
  3
ACDB_RECOMPOSE_DATA
350
15D
  3
AcDbVariableDictionary
350
3A
  0
DICTIONARY
  5
2A
330
25
100
AcDbDictionary
280
     1
281
     1
  0
DICTIONARY
  5
18
330
17
100
AcDbDictionary
280
     1
281
     1
  3
ACAD_LAYERFILTERS
360
19
  3
ACAD_LAYERSTATES
360
1A
  3
ACLYDICTIONARY
360
1B
  0
DICTIONARY
  5
7
330
6
100
AcDbDictionary
280
     1
281
     1
  3
ADSK_XREC_LAYER_RECONCILED
360
8
  0
DICTIONARY
  5
64
330
63
100
AcDbDictionary
280
     1
281
     1
  3
ADSK_XREC_LAYER_RECONCILED
360
65
  0
DICTIONARY
  5
49
330
48
100
AcDbDictionary
280
     1
281
     1
  3
ADSK_XREC_LAYER_RECONCILED
360
4A
  0
DICTIONARY
  5
3
330
2
100
AcDbDictionary
280
     1
281
     1
  3
ACAD_SORTENTS
360
15A
  0
DICTIONARY
  5
36
102
{ACAD_REACTORS
330
B
102
}
330
B
100
AcDbDictionary
281
     1
  0
DICTIONARY
  5
31
102
{ACAD_REACTORS
330
B
102
}
330
B
100
AcDbDictionary
281
     1
  0
DICTIONARY
  5
11
102
{ACAD_REACTORS
330
B
102
}
330
B
100
AcDbDictionary
281
     1
  3
Layout1
350
16
  3
Model
350
10
  0
DICTIONARY
  5
D
102
{ACAD_REACTORS
330
B
102
}
330
B
100
AcDbDictionary
281
     1
  3
ByBlock
350
35
  3
ByLayer
350
34
  3
Global
350
C
  0
DICTIONARY
  5
39
102
{ACAD_REACTORS
330
B
102
}
330
B
100
AcDbDictionary
281
     1
  0
DICTIONARY
  5
32
102
{ACAD_REACTORS
330
B
102
}
330
B
100
AcDbDictionary
281
     1
  3
Standard
350
4C
  0
DICTIONARY
  5
33
102
{ACAD_REACTORS
330
B
102
}
330
B
100
AcDbDictionary
281
     1
  0
ACDBDICTIONARYWDFLT
  5
A
102
{ACAD_REACTORS
330
B
102
}
330
B
100
AcDbDictionary
281
     1
  3
Normal
350
9
100
AcDbDictionaryWithDefault
340
9
  0
DICTIONARY
  5
37
102
{ACAD_REACTORS
330
B
102
}
330
B
100
AcDbDictionary
281
     1
  3
A0
350
51
  3
A1
350
52
  3
A2
350
53
  3
A3
350
54
  3
A4
350
55
  3
A5
350
56
  3
A6
350
57
  3
A7
350
58
  3
A8
350
59
  3
A9
350
5A
  3
B0
350
5B
  3
B1
350
5C
  3
B2
350
5D
  3
B3
350
5E
  3
B4
350
5F
  3
B5
350
60
  3
B6
350
61
  0
DICTIONARY
  5
38
102
{ACAD_REACTORS
330
B
102
}
330
B
100
AcDbDictionary
281
     1
  3
Standard
350
4D
  0
DICTIONARY
  5
28
102
{ACAD_REACTORS
330
B
102
}
330
B
100
AcDbDictionary
281
     1
  3
2dWireframe
350
27
  3
Realistic
350
4F
  3
Wireframe
350
50
  0
XRECORD
  5
15D
102
{ACAD_REACTORS
330
B
102
}
330
B
100
AcDbXrecord
280
     1
 90
        1
330
4D
  0
DICTIONARY
  5
3A
102
{ACAD_REACTORS
330
B
102
}
330
B
100
AcDbDictionary
281
     1
  3
CANNOSCALE
350
3B
  3
CMLEADERSTYLE
350
3C
  3
CTABLESTYLE
350
3D
  3
CVIEWDETAILSTYLE
350
3E
  3
CVIEWSECTIONSTYLE
350
3F
  3
DIMASSOC
350
40
  3
INDEXCTL
350
41
  3
LAYEREVAL
350
42
  3
LAYERNOTIFY
350
43
  3
LIGHTINGUNITS
350
44
  3
MSLTSCALE
350
45
  3
PROJECTNAME
350
46
  3
SORTENTS
350
47
  0
DICTIONARY
  5
19
102
{ACAD_REACTORS
330
18
102
}
330
18
100
AcDbDictionary
281
     1
  0
DICTIONARY
  5
1A
102
{ACAD_REACTORS
330
18
102
}
330
18
100
AcDbDictionary
281
     1
  0
DICTIONARY
  5
1B
102
{ACAD_REACTORS
330
18
102
}
330
18
100
AcDbDictionary
281
     1
1001
ACAD
1000
<All
  0
XRECORD
  5
8
102
{ACAD_REACTORS
330
7
102
}
330
7
100
AcDbXrecord
280
     1
290
     1
  0
XRECORD
  5
65
102
{ACAD_REACTORS
330
64
102
}
330
64
100
AcDbXrecord
280
     1
290
     1
  0
XRECORD
  5
4A
102
{ACAD_REACTORS
330
49
102
}
330
49
100
AcDbXrecord
280
     1
290
     1
  0
SORTENTSTABLE
  5
15A
102
{ACAD_REACTORS
330
3
102
}
330
3
100
AcDbSortentsTable
330
2
  0
LAYOUT
  5
16
102
{ACAD_REACTORS
330
11
102
}
330
11
100
AcDbPlotSettings
  1

  2
HP DeskJet 930C/932C/935C
  4

  6

 40
0.0
 41
0.0
 42
0.0
 43
0.0
 44
0.0
 45
0.0
 46
0.0
 47
0.0
 48
0.0
 49
0.0
140
0.0
141
0.0
142
1.0
143
1.0
 70
   688
 72
     0
 73
     0
 74
     5
  7
black.ctb
 75
    16
147
1.0
 76
     0
 77
     2
 78
   300
148
0.0
149
0.0
100
AcDbLayout
  1
Layout1
 70
     1
 71
     1
 10
0.0
 20
0.0
 11
12.0
 21
9.0
 12
0.0
 22
0.0
 32
0.0
 14
1.000000000000000E+20
 24
1.000000000000000E+20
 34
1.000000000000000E+20
 15
-1.000000000000000E+20
 25
-1.000000000000000E+20
 35
-1.000000000000000E+20
146
0.0
 13
0.0
 23
0.0
 33
0.0
 16
1.0
 26
0.0
 36
0.0
 17
0.0
 27
1.0
 37
0.0
 76
     0
330
13
  0
LAYOUT
  5
10
102
{ACAD_REACTORS
330
11
102
}
330
11
100
AcDbPlotSettings
  1

  2
\\kpc384\hp LaserJet 1010
  4
A4
  6

 40
4.603749752044676
 41
8.032736778259277
 42
5.154098510742186
 43
4.9847412109375
 44
210.0156707763672
 45
297.0106506347656
 46
0.0
 47
2.95
 48
127.5662085622847
 49
142.3500281158103
140
136.3772273578069
141
154.5853048439378
142
1.0
143
0.0439983751192775
 70
 11956
 72
     1
 73
     0
 74
     4
  7
black.ctb
 75
     0
147
22.72811205616225
 76
     0
 77
     2
 78
   300
148
-127.5662085622847
149
-142.3500281158103
100
AcDbLayout
  1
Model
 70
     1
 71
     0
 10
0.0
 20
0.0
 11
12.0
 21
9.0
 12
0.0
 22
0.0
 32
0.0
 14
0.0
 24
0.0
 34
0.0
 15
0.0
 25
0.0
 35
0.0
146
0.0
 13
0.0
 23
0.0
 33
0.0
 16
1.0
 26
0.0
 36
0.0
 17
0.0
 27
1.0
 37
0.0
 76
     0
330
2
331
26
1001
ACAD_PSEXT
1000
\\atsnts34\TJ04
1000
HP LaserJet 5100 PCL 6
1000
2f_CAD Rm
1000
10.8.12.60
1070
     0
  0
MATERIAL
  5
35
102
{ACAD_REACTORS
330
D
102
}
330
D
100
AcDbMaterial
  1
ByBlock
 73
     1
 78
     1
172
     1
176
     1
270
     1
274
     1
 94
       63
  0
MATERIAL
  5
34
102
{ACAD_REACTORS
330
D
102
}
330
D
100
AcDbMaterial
  1
ByLayer
 73
     1
 78
     1
172
     1
176
     1
270
     1
274
     1
 94
       63
  0
MATERIAL
  5
C
102
{ACAD_REACTORS
330
D
102
}
330
D
100
AcDbMaterial
  1
Global
 73
     1
 78
     1
172
     1
176
     1
270
     1
274
     1
 94
       63
  0
MLINESTYLE
  5
4C
102
{ACAD_REACTORS
330
32
102
}
330
32
100
AcDbMlineStyle
  2
STANDARD
 70
     0
  3

 62
   256
 51
90.0
 52
90.0
 71
     2
 49
0.5
 62
   256
  6
BYLAYER
 49
-0.5
 62
   256
  6
BYLAYER
  0
ACDBPLACEHOLDER
  5
9
102
{ACAD_REACTORS
330
A
102
}
330
A
  0
SCALE
  5
51
102
{ACAD_REACTORS
330
37
102
}
330
37
100
AcDbScale
 70
     0
300
1:1
140
1.0
141
1.0
290
     1
  0
SCALE
  5
52
102
{ACAD_REACTORS
330
37
102
}
330
37
100
AcDbScale
 70
     0
300
1/128" = 1'-0"
140
0.0078125
141
12.0
290
     0
  0
SCALE
  5
53
102
{ACAD_REACTORS
330
37
102
}
330
37
100
AcDbScale
 70
     0
300
1/64" = 1'-0"
140
0.015625
141
12.0
290
     0
  0
SCALE
  5
54
102
{ACAD_REACTORS
330
37
102
}
330
37
100
AcDbScale
 70
     0
300
1/32" = 1'-0"
140
0.03125
141
12.0
290
     0
  0
SCALE
  5
55
102
{ACAD_REACTORS
330
37
102
}
330
37
100
AcDbScale
 70
     0
300
1/16" = 1'-0"
140
0.0625
141
12.0
290
     0
  0
SCALE
  5
56
102
{ACAD_REACTORS
330
37
102
}
330
37
100
AcDbScale
 70
     0
300
3/32" = 1'-0"
140
0.09375
141
12.0
290
     0
  0
SCALE
  5
57
102
{ACAD_REACTORS
330
37
102
}
330
37
100
AcDbScale
 70
     0
300
1/8" = 1'-0"
140
0.125
141
12.0
290
     0
  0
SCALE
  5
58
102
{ACAD_REACTORS
330
37
102
}
330
37
100
AcDbScale
 70
     0
300
3/16" = 1'-0"
140
0.1875
141
12.0
290
     0
  0
SCALE
  5
59
102
{ACAD_REACTORS
330
37
102
}
330
37
100
AcDbScale
 70
     0
300
1/4" = 1'-0"
140
0.25
141
12.0
290
     0
  0
SCALE
  5
5A
102
{ACAD_REACTORS
330
37
102
}
330
37
100
AcDbScale
 70
     0
300
3/8" = 1'-0"
140
0.375
141
12.0
290
     0
  0
SCALE
  5
5B
102
{ACAD_REACTORS
330
37
102
}
330
37
100
AcDbScale
 70
     0
300
1/2" = 1'-0"
140
0.5
141
12.0
290
     0
  0
SCALE
  5
5C
102
{ACAD_REACTORS
330
37
102
}
330
37
100
AcDbScale
 70
     0
300
3/4" = 1'-0"
140
0.75
141
12.0
290
     0
  0
SCALE
  5
5D
102
{ACAD_REACTORS
330
37
102
}
330
37
100
AcDbScale
 70
     0
300
1" = 1'-0"
140
1.0
141
12.0
290
     0
  0
SCALE
  5
5E
102
{ACAD_REACTORS
330
37
102
}
330
37
100
AcDbScale
 70
     0
300
1-1/2" = 1'-0"
140
1.5
141
12.0
290
     0
  0
SCALE
  5
5F
102
{ACAD_REACTORS
330
37
102
}
330
37
100
AcDbScale
 70
     0
300
3" = 1'-0"
140
3.0
141
12.0
290
     0
  0
SCALE
  5
60
102
{ACAD_REACTORS
330
37
102
}
330
37
100
AcDbScale
 70
     0
300
6" = 1'-0"
140
6.0
141
12.0
290
     0
  0
SCALE
  5
61
102
{ACAD_REACTORS
330
37
102
}
330
37
100
AcDbScale
 70
     0
300
1'-0" = 1'-0"
140
12.0
141
12.0
290
     0
  0
TABLESTYLE
  5
4D
102
{ACAD_XDICTIONARY
360
4E
102
}
102
{ACAD_REACTORS
330
38
102
}
330
38
100
AcDbTableStyle
280
     0
  3
Standard
 70
     0
 71
     0
 40
0.06
 41
0.06
280
     0
281
     0
  7
Standard
140
0.18
170
     2
 62
     0
 63
     7
283
     0
 90
        4
 91
        0
  1

274
    -2
284
     1
 64
     0
275
    -2
285
     1
 65
     0
276
    -2
286
     1
 66
     0
277
    -2
287
     1
 67
     0
278
    -2
288
     1
 68
     0
279
    -2
289
     1
 69
     0
  7
Standard
140
0.25
170
     5
 62
     0
 63
     7
283
     0
 90
        4
 91
        0
  1

274
    -2
284
     1
 64
     0
275
    -2
285
     1
 65
     0
276
    -2
286
     1
 66
     0
277
    -2
287
     1
 67
     0
278
    -2
288
     1
 68
     0
279
    -2
289
     1
 69
     0
  7
Standard
140
0.18
170
     5
 62
     0
 63
     7
283
     0
 90
        4
 91
        0
  1

274
    -2
284
     1
 64
     0
275
    -2
285
     1
 65
     0
276
    -2
286
     1
 66
     0
277
    -2
287
     1
 67
     0
278
    -2
288
     1
 68
     0
279
    -2
289
     1
 69
     0
  0
VISUALSTYLE
  5
27
102
{ACAD_REACTORS
330
28
102
}
330
28
100
AcDbVisualStyle
  2
2dWireframe
 70
     4
177
     3
291
     0
 70
    58
 90
        0
176
     1
 90
        2
176
     1
 90
        0
176
     1
 90
        0
176
     1
 40
0.6
176
     1
 40
30.0
176
     1
 62
     7
176
     1
 90
        1
176
     1
 90
        4
176
     1
 62
     7
176
     1
 62
   257
176
     1
 90
        1
176
     1
 90
        1
176
     1
 40
1.0
176
     1
 90
        0
176
     1
 62
   257
176
     1
 40
1.0
176
     1
 90
        1
176
     1
 90
        6
176
     1
 90
        2
176
     1
 62
     7
176
     1
 90
        5
176
     1
 90
        0
176
     1
 90
        0
176
     1
290
     0
176
     1
 90
        1
176
     1
 40
0.0
176
     1
 90
        0
176
     1
290
     1
176
     1
290
     1
176
     1
290
     0
176
     1
290
     0
176
     1
290
     0
176
     1
290
     0
176
     1
290
     0
176
     1
290
     0
176
     1
290
     0
176
     1
 90
       50
176
     1
 40
0.0
176
     1
 40
1.0
176
     1
 90
        0
176
     1
 62
    18
176
     1
 90
       50
176
     1
 90
        3
176
     1
 62
     5
420
      255
176
     1
290
     0
176
     1
 90
       50
176
     1
 90
       50
176
     1
 90
       50
176
     1
290
     0
176
     1
 90
       50
176
     1
 62
   256
176
     0
 40
1.0
176
     0
 90
        2
176
     1
  1
strokes_ogs.tif
176
     1
290
     0
176
     1
 40
1.0
176
     1
 40
1.0
176
     1
1001
ACAD
1000
AcRTDxfName
1000
VISUALSTYLE
1000
AcRTDxfName
1000
VISUALSTYLE
1000
AcRTDxfName
1000
VISUALSTYLE
1000
AcRTDxfName
1000
VISUALSTYLE
1000
AcRTDxfName
1000
VISUALSTYLE
1000
AcRTDxfName
1000
VISUALSTYLE
1000
AcRTDxfName
1000
VISUALSTYLE
1000
AcRTDxfName
1000
VISUALSTYLE
1000
AcRTDxfName
1000
VISUALSTYLE
1000
AcRTDxfName
1000
VISUALSTYLE
1000
AcRTDxfName
1000
VISUALSTYLE
1000
AcRTDxfName
1000
VISUALSTYLE
  0
VISUALSTYLE
  5
4F
102
{ACAD_REACTORS
330
28
102
}
330
28
100
AcDbVisualStyle
  2
Realistic
 70
     8
177
     3
291
     0
 70
    58
 90
        2
176
     1
 90
        2
176
     1
 90
        0
176
     1
 90
        0
176
     1
 40
0.6
176
     1
 40
30.0
176
     1
 62
     7
176
     1
 90
        1
176
     1
 90
        0
176
     1
 62
     7
176
     1
 62
   257
176
     1
 90
        1
176
     1
 90
        1
176
     1
 40
1.0
176
     1
 90
        8
176
     1
 62
     8
176
     1
 40
1.0
176
     1
 90
        1
176
     1
 90
        6
176
     1
 90
        2
176
     1
 62
     7
176
     1
 90
        5
176
     1
 90
        0
176
     1
 90
        0
176
     1
290
     0
176
     1
 90
       13
176
     1
 40
0.0
176
     1
 90
        0
176
     1
290
     0
176
     1
290
     1
176
     1
290
     1
176
     1
290
     0
176
     1
290
     0
176
     1
290
     0
176
     1
290
     0
176
     1
290
     0
176
     1
290
     0
176
     1
 90
       50
176
     1
 40
0.0
176
     1
 40
1.0
176
     1
 90
        0
176
     1
 62
    18
176
     1
 90
       50
176
     1
 90
        3
176
     1
 62
     5
420
      255
176
     1
290
     0
176
     1
 90
       50
176
     1
 90
       50
176
     1
 90
       50
176
     1
290
     0
176
     1
 90
       50
176
     1
 62
   256
176
     0
 40
1.0
176
     0
 90
        2
176
     1
  1
strokes_ogs.tif
176
     1
290
     0
176
     1
 40
1.0
176
     1
 40
1.0
176
     1
1001
ACAD
1000
AcRTDxfName
1000
VISUALSTYLE
1000
AcRTDxfName
1000
VISUALSTYLE
1000
AcRTDxfName
1000
VISUALSTYLE
1000
AcRTDxfName
1000
VISUALSTYLE
1000
AcRTDxfName
1000
VISUALSTYLE
1000
AcRTDxfName
1000
VISUALSTYLE
1000
AcRTDxfName
1000
VISUALSTYLE
1000
AcRTDxfName
1000
VISUALSTYLE
1000
AcRTDxfName
1000
VISUALSTYLE
1000
AcRTDxfName
1000
VISUALSTYLE
1000
AcRTDxfName
1000
VISUALSTYLE
1000
AcRTDxfName
1000
VISUALSTYLE
  0
VISUALSTYLE
  5
50
102
{ACAD_REACTORS
330
28
102
}
330
28
100
AcDbVisualStyle
  2
Wireframe
 70
     5
177
     3
291
     0
 70
    58
 90
        0
176
     1
 90
        2
176
     1
 90
        0
176
     1
 90
        0
176
     1
 40
0.6
176
     1
 40
30.0
176
     1
 62
     7
420
 16777215
176
     1
 90
        1
176
     1
 90
        4
176
     1
 62
     7
176
     1
 62
   257
176
     1
 90
        1
176
     1
 90
        1
176
     1
 40
1.0
176
     1
 90
        0
176
     1
 62
   257
176
     1
 40
1.0
176
     1
 90
        1
176
     1
 90
        6
176
     1
 90
        2
176
     1
 62
     7
176
     1
 90
        3
176
     1
 90
        0
176
     1
 90
        0
176
     1
290
     0
176
     1
 90
        1
176
     1
 40
0.0
176
     1
 90
        0
176
     1
290
     0
176
     1
290
     1
176
     1
290
     1
176
     1
290
     0
176
     1
290
     0
176
     1
290
     0
176
     1
290
     0
176
     1
290
     0
176
     1
290
     0
176
     1
 90
       50
176
     1
 40
0.0
176
     1
 40
1.0
176
     1
 90
        0
176
     1
 62
    18
176
     1
 90
       50
176
     1
 90
        3
176
     1
 62
     5
420
      255
176
     1
290
     0
176
     1
 90
       50
176
     1
 90
       50
176
     1
 90
       50
176
     1
290
     0
176
     1
 90
       50
176
     1
 62
   256
176
     0
 40
1.0
176
     0
 90
        2
176
     1
  1
strokes_ogs.tif
176
     1
290
     0
176
     1
 40
1.0
176
     1
 40
1.0
176
     1
  0
DICTIONARYVAR
  5
3B
102
{ACAD_REACTORS
330
3A
102
}
330
3A
100
DictionaryVariables
280
     0
  1
1:1
  0
DICTIONARYVAR
  5
3C
102
{ACAD_REACTORS
330
3A
102
}
330
3A
100
DictionaryVariables
280
     0
  1
STANDARD
  0
DICTIONARYVAR
  5
3D
102
{ACAD_REACTORS
330
3A
102
}
330
3A
100
DictionaryVariables
280
     0
  1
STANDARD
  0
DICTIONARYVAR
  5
3E
102
{ACAD_REACTORS
330
3A
102
}
330
3A
100
DictionaryVariables
280
     0
  1

  0
DICTIONARYVAR
  5
3F
102
{ACAD_REACTORS
330
3A
102
}
330
3A
100
DictionaryVariables
280
     0
  1

  0
DICTIONARYVAR
  5
40
102
{ACAD_REACTORS
330
3A
102
}
330
3A
100
DictionaryVariables
280
     0
  1
0
  0
DICTIONARYVAR
  5
41
102
{ACAD_REACTORS
330
3A
102
}
330
3A
100
DictionaryVariables
280
     0
  1
0
  0
DICTIONARYVAR
  5
42
102
{ACAD_REACTORS
330
3A
102
}
330
3A
100
DictionaryVariables
280
     0
  1
1
  0
DICTIONARYVAR
  5
43
102
{ACAD_REACTORS
330
3A
102
}
330
3A
100
DictionaryVariables
280
     0
  1
15
  0
DICTIONARYVAR
  5
44
102
{ACAD_REACTORS
330
3A
102
}
330
3A
100
DictionaryVariables
280
     0
  1
0
  0
DICTIONARYVAR
  5
45
102
{ACAD_REACTORS
330
3A
102
}
330
3A
100
DictionaryVariables
280
     0
  1
0
  0
DICTIONARYVAR
  5
46
102
{ACAD_REACTORS
330
3A
102
}
330
3A
100
DictionaryVariables
280
     0
  1

  0
DICTIONARYVAR
  5
47
102
{ACAD_REACTORS
330
3A
102
}
330
3A
100
DictionaryVariables
280
     0
  1
127
  0
DICTIONARY
  5
4E
330
4D
100
AcDbDictionary
280
     1
281
     1
  3
ACAD_ROUNDTRIP_2008_TABLESTYLE_CELLSTYLEMAP
360
15C
  0
CELLSTYLEMAP
  5
15C
102
{ACAD_REACTORS
330
4E
102
}
330
4E
100
AcDbCellStyleMap
 90
        3
300
CELLSTYLE
  1
TABLEFORMAT_BEGIN
 90
        5
170
     1
 91
        0
 92
    32768
 62
   257
 93
        1
300
CONTENTFORMAT
  1
CONTENTFORMAT_BEGIN
 90
        0
 91
        0
 92
        4
 93
        0
300

 40
0.0
140
1.0
 94
        5
 62
     0
340
1E
144
0.25
309
CONTENTFORMAT_END
171
     1
301
MARGIN
  1
CELLMARGIN_BEGIN
 40
0.06
 40
0.06
 40
0.06
 40
0.06
 40
0.18
 40
0.18
309
CELLMARGIN_END
 94
        6
 95
        1
302
GRIDFORMAT
  1
GRIDFORMAT_BEGIN
 90
        0
 91
        1
 62
     0
 92
       -2
340
0
 93
        0
 40
0.045
309
GRIDFORMAT_END
 95
        2
302
GRIDFORMAT
  1
GRIDFORMAT_BEGIN
 90
        0
 91
        1
 62
     0
 92
       -2
340
0
 93
        0
 40
0.045
309
GRIDFORMAT_END
 95
        4
302
GRIDFORMAT
  1
GRIDFORMAT_BEGIN
 90
        0
 91
        1
 62
     0
 92
       -2
340
0
 93
        0
 40
0.045
309
GRIDFORMAT_END
 95
        8
302
GRIDFORMAT
  1
GRIDFORMAT_BEGIN
 90
        0
 91
        1
 62
     0
 92
       -2
340
0
 93
        0
 40
0.045
309
GRIDFORMAT_END
 95
       16
302
GRIDFORMAT
  1
GRIDFORMAT_BEGIN
 90
        0
 91
        1
 62
     0
 92
       -2
340
0
 93
        0
 40
0.045
309
GRIDFORMAT_END
 95
       32
302
GRIDFORMAT
  1
GRIDFORMAT_BEGIN
 90
        0
 91
        1
 62
     0
 92
       -2
340
0
 93
        0
 40
0.045
309
GRIDFORMAT_END
309
TABLEFORMAT_END
  1
CELLSTYLE_BEGIN
 90
        1
 91
        1
300
_TITLE
309
CELLSTYLE_END
300
CELLSTYLE
  1
TABLEFORMAT_BEGIN
 90
        5
170
     1
 91
        0
 92
        0
 62
   257
 93
        1
300
CONTENTFORMAT
  1
CONTENTFORMAT_BEGIN
 90
        0
 91
        0
 92
        4
 93
        0
300

 40
0.0
140
1.0
 94
        5
 62
     0
340
1E
144
0.18
309
CONTENTFORMAT_END
171
     1
301
MARGIN
  1
CELLMARGIN_BEGIN
 40
0.06
 40
0.06
 40
0.06
 40
0.06
 40
0.18
 40
0.18
309
CELLMARGIN_END
 94
        6
 95
        1
302
GRIDFORMAT
  1
GRIDFORMAT_BEGIN
 90
        0
 91
        1
 62
     0
 92
       -2
340
0
 93
        0
 40
0.045
309
GRIDFORMAT_END
 95
        2
302
GRIDFORMAT
  1
GRIDFORMAT_BEGIN
 90
        0
 91
        1
 62
     0
 92
       -2
340
0
 93
        0
 40
0.045
309
GRIDFORMAT_END
 95
        4
302
GRIDFORMAT
  1
GRIDFORMAT_BEGIN
 90
        0
 91
        1
 62
     0
 92
       -2
340
0
 93
        0
 40
0.045
309
GRIDFORMAT_END
 95
        8
302
GRIDFORMAT
  1
GRIDFORMAT_BEGIN
 90
        0
 91
        1
 62
     0
 92
       -2
340
0
 93
        0
 40
0.045
309
GRIDFORMAT_END
 95
       16
302
GRIDFORMAT
  1
GRIDFORMAT_BEGIN
 90
        0
 91
        1
 62
     0
 92
       -2
340
0
 93
        0
 40
0.045
309
GRIDFORMAT_END
 95
       32
302
GRIDFORMAT
  1
GRIDFORMAT_BEGIN
 90
        0
 91
        1
 62
     0
 92
       -2
340
0
 93
        0
 40
0.045
309
GRIDFORMAT_END
309
TABLEFORMAT_END
  1
CELLSTYLE_BEGIN
 90
        2
 91
        1
300
_HEADER
309
CELLSTYLE_END
300
CELLSTYLE
  1
TABLEFORMAT_BEGIN
 90
        5
170
     1
 91
        0
 92
        0
 62
   257
 93
        1
300
CONTENTFORMAT
  1
CONTENTFORMAT_BEGIN
 90
        0
 91
        0
 92
        4
 93
        0
300

 40
0.0
140
1.0
 94
        2
 62
     0
340
1E
144
0.18
309
CONTENTFORMAT_END
171
     1
301
MARGIN
  1
CELLMARGIN_BEGIN
 40
0.06
 40
0.06
 40
0.06
 40
0.06
 40
0.18
 40
0.18
309
CELLMARGIN_END
 94
        6
 95
        1
302
GRIDFORMAT
  1
GRIDFORMAT_BEGIN
 90
        0
 91
        1
 62
     0
 92
       -2
340
0
 93
        0
 40
0.045
309
GRIDFORMAT_END
 95
        2
302
GRIDFORMAT
  1
GRIDFORMAT_BEGIN
 90
        0
 91
        1
 62
     0
 92
       -2
340
0
 93
        0
 40
0.045
309
GRIDFORMAT_END
 95
        4
302
GRIDFORMAT
  1
GRIDFORMAT_BEGIN
 90
        0
 91
        1
 62
     0
 92
       -2
340
0
 93
        0
 40
0.045
309
GRIDFORMAT_END
 95
        8
302
GRIDFORMAT
  1
GRIDFORMAT_BEGIN
 90
        0
 91
        1
 62
     0
 92
       -2
340
0
 93
        0
 40
0.045
309
GRIDFORMAT_END
 95
       16
302
GRIDFORMAT
  1
GRIDFORMAT_BEGIN
 90
        0
 91
        1
 62
     0
 92
       -2
340
0
 93
        0
 40
0.045
309
GRIDFORMAT_END
 95
       32
302
GRIDFORMAT
  1
GRIDFORMAT_BEGIN
 90
        0
 91
        1
 62
     0
 92
       -2
340
0
 93
        0
 40
0.045
309
GRIDFORMAT_END
309
TABLEFORMAT_END
  1
CELLSTYLE_BEGIN
 90
        3
 91
        2
300
_DATA
309
CELLSTYLE_END
  0
ENDSEC
  0
EOF
