  0
SECTION
  2
HEADER
  9
$ACADVER
  1
AC1032
  9
$ACADMAINTVER
 90
      197
  9
$DWGCODEPAGE
  3
ANSI_936
  9
$REQUIREDVERSIONS
160
                 0
  9
$INSBASE
 10
0.0
 20
0.0
 30
0.0
  9
$EXTMIN
 10
378.2610676489623
 20
-37.80620340753189
 30
0.0
  9
$EXTMAX
 10
852.1126028477381
 20
332.7895469396476
 30
7719114089.353813
  9
$LIMMIN
 10
0.0
 20
0.0
  9
$LIMMAX
 10
420.0
 20
297.0
  9
$ORTHOMODE
 70
     0
  9
$REGENMODE
 70
     1
  9
$FILLMODE
 70
     1
  9
$QTEXTMODE
 70
     0
  9
$MIRRTEXT
 70
     1
  9
$LTSCALE
 40
0.2
  9
$ATTMODE
 70
     1
  9
$TEXTSIZE
 40
0.2
  9
$TRACEWID
 40
1.0
  9
$TEXTSTYLE
  7
Standard
  9
$CLAYER
  8
DIM
  9
$CELTYPE
  6
Continuous
  9
$CECOLOR
 62
   256
  9
$CELTSCALE
 40
1.0
  9
$DISPSILH
 70
     0
  9
$DIMSCALE
 40
0.1
  9
$DIMASZ
 40
2.54
  9
$DIMEXO
 40
0.762
  9
$DIMDLI
 40
1.9
  9
$DIMRND
 40
0.0
  9
$DIMDLE
 40
0.0
  9
$DIMEXE
 40
0.762
  9
$DIMTP
 40
0.0
  9
$DIMTM
 40
0.0
  9
$DIMTXT
 40
1.778
  9
$DIMCEN
 40
0.0
  9
$DIMTSZ
 40
0.0
  9
$DIMTOL
 70
     0
  9
$DIMLIM
 70
     0
  9
$DIMTIH
 70
     0
  9
$DIMTOH
 70
     0
  9
$DIMSE1
 70
     0
  9
$DIMSE2
 70
     0
  9
$DIMTAD
 70
     0
  9
$DIMZIN
 70
     0
  9
$DIMBLK
  1

  9
$DIMASO
 70
     1
  9
$DIMSHO
 70
     1
  9
$DIMPOST
  1

  9
$DIMAPOST
  1

  9
$DIMALT
 70
     0
  9
$DIMALTD
 70
     2
  9
$DIMALTF
 40
25.4
  9
$DIMLFAC
 40
1.0
  9
$DIMTOFL
 70
     0
  9
$DIMTVP
 40
0.0
  9
$DIMTIX
 70
     0
  9
$DIMSOXD
 70
     0
  9
$DIMSAH
 70
     0
  9
$DIMBLK1
  1

  9
$DIMBLK2
  1

  9
$DIMSTYLE
  2
3DEC X 10
  9
$DIMCLRD
 70
     0
  9
$DIMCLRE
 70
     0
  9
$DIMCLRT
 70
     0
  9
$DIMTFAC
 40
1.0
  9
$DIMGAP
 40
0.762
  9
$DIMJUST
 70
     0
  9
$DIMSD1
 70
     0
  9
$DIMSD2
 70
     0
  9
$DIMTOLJ
 70
     1
  9
$DIMTZIN
 70
     0
  9
$DIMALTZ
 70
     0
  9
$DIMALTTZ
 70
     0
  9
$DIMUPT
 70
     0
  9
$DIMDEC
 70
     3
  9
$DIMTDEC
 70
     3
  9
$DIMALTU
 70
     2
  9
$DIMALTTD
 70
     2
  9
$DIMTXSTY
  7
Standard
  9
$DIMAUNIT
 70
     0
  9
$DIMADEC
 70
     0
  9
$DIMALTRND
 40
0.0
  9
$DIMAZIN
 70
     0
  9
$DIMDSEP
 70
    46
  9
$DIMATFIT
 70
     3
  9
$DIMFRAC
 70
     0
  9
$DIMLDRBLK
  1

  9
$DIMLUNIT
 70
     2
  9
$DIMLWD
 70
    -2
  9
$DIMLWE
 70
    -2
  9
$DIMTMOVE
 70
     0
  9
$DIMFXL
 40
1.0
  9
$DIMFXLON
 70
     0
  9
$DIMJOGANG
 40
0.7853981633974483
  9
$DIMTFILL
 70
     0
  9
$DIMTFILLCLR
 70
     0
  9
$DIMARCSYM
 70
     0
  9
$DIMLTYPE
  6

  9
$DIMLTEX1
  6

  9
$DIMLTEX2
  6

  9
$DIMTXTDIRECTION
 70
     0
  9
$LUNITS
 70
     2
  9
$LUPREC
 70
     7
  9
$SKETCHINC
 40
1.0
  9
$FILLETRAD
 40
0.05
  9
$AUNITS
 70
     0
  9
$AUPREC
 70
     0
  9
$MENU
  1
.
  9
$ELEVATION
 40
0.0
  9
$PELEVATION
 40
0.0
  9
$THICKNESS
 40
0.0
  9
$LIMCHECK
 70
     0
  9
$CHAMFERA
 40
0.0
  9
$CHAMFERB
 40
0.0
  9
$CHAMFERC
 40
0.0
  9
$CHAMFERD
 40
0.0
  9
$SKPOLY
 70
     0
  9
$TDCREATE
 40
2453453.641770833
  9
$TDUCREATE
 40
2453453.308444283
  9
$TDUPDATE
 40
2460367.440879629
  9
$TDUUPDATE
 40
2460367.107550776
  9
$TDINDWG
 40
2.4846337500
  9
$TDUSRTIMER
 40
2.4846334028
  9
$USRTIMER
 70
     1
  9
$ANGBASE
 50
0.0
  9
$ANGDIR
 70
     0
  9
$PDMODE
 70
     0
  9
$PDSIZE
 40
0.0
  9
$PLINEWID
 40
0.0
  9
$SPLFRAME
 70
     0
  9
$SPLINETYPE
 70
     6
  9
$SPLINESEGS
 70
     8
  9
$HANDSEED
  5
261
  9
$SURFTAB1
 70
     6
  9
$SURFTAB2
 70
     6
  9
$SURFTYPE
 70
     6
  9
$SURFU
 70
     6
  9
$SURFV
 70
     6
  9
$UCSBASE
  2

  9
$UCSNAME
  2

  9
$UCSORG
 10
0.0
 20
0.0
 30
0.0
  9
$UCSXDIR
 10
1.0
 20
0.0
 30
0.0
  9
$UCSYDIR
 10
0.0
 20
1.0
 30
0.0
  9
$UCSORTHOREF
  2

  9
$UCSORTHOVIEW
 70
     0
  9
$UCSORGTOP
 10
0.0
 20
0.0
 30
0.0
  9
$UCSORGBOTTOM
 10
0.0
 20
0.0
 30
0.0
  9
$UCSORGLEFT
 10
0.0
 20
0.0
 30
0.0
  9
$UCSORGRIGHT
 10
0.0
 20
0.0
 30
0.0
  9
$UCSORGFRONT
 10
0.0
 20
0.0
 30
0.0
  9
$UCSORGBACK
 10
0.0
 20
0.0
 30
0.0
  9
$PUCSBASE
  2

  9
$PUCSNAME
  2

  9
$PUCSORG
 10
0.0
 20
0.0
 30
0.0
  9
$PUCSXDIR
 10
1.0
 20
0.0
 30
0.0
  9
$PUCSYDIR
 10
0.0
 20
1.0
 30
0.0
  9
$PUCSORTHOREF
  2

  9
$PUCSORTHOVIEW
 70
     0
  9
$PUCSORGTOP
 10
0.0
 20
0.0
 30
0.0
  9
$PUCSORGBOTTOM
 10
0.0
 20
0.0
 30
0.0
  9
$PUCSORGLEFT
 10
0.0
 20
0.0
 30
0.0
  9
$PUCSORGRIGHT
 10
0.0
 20
0.0
 30
0.0
  9
$PUCSORGFRONT
 10
0.0
 20
0.0
 30
0.0
  9
$PUCSORGBACK
 10
0.0
 20
0.0
 30
0.0
  9
$USERI1
 70
     0
  9
$USERI2
 70
     0
  9
$USERI3
 70
     0
  9
$USERI4
 70
     0
  9
$USERI5
 70
     0
  9
$USERR1
 40
0.0
  9
$USERR2
 40
0.0
  9
$USERR3
 40
0.0
  9
$USERR4
 40
0.0
  9
$USERR5
 40
0.0
  9
$WORLDVIEW
 70
     1
  9
$SHADEDGE
 70
     3
  9
$SHADEDIF
 70
    70
  9
$TILEMODE
 70
     1
  9
$MAXACTVP
 70
    48
  9
$PINSBASE
 10
0.0
 20
0.0
 30
0.0
  9
$PLIMCHECK
 70
     0
  9
$PEXTMIN
 10
0.922892519104181
 20
0.8963128939140716
 30
0.0
  9
$PEXTMAX
 10
266.9485241840855
 20
185.0463128939141
 30
0.0
  9
$PLIMMIN
 10
-3.900675264189473
 20
-14.48004181746944
  9
$PLIMMAX
 10
272.1226538452696
 20
198.8107124943853
  9
$UNITMODE
 70
     0
  9
$VISRETAIN
 70
     1
  9
$PLINEGEN
 70
     0
  9
$PSLTSCALE
 70
     1
  9
$TREEDEPTH
 70
  3020
  9
$CMLSTYLE
  2
Standard
  9
$CMLJUST
 70
     0
  9
$CMLSCALE
 40
20.0
  9
$PROXYGRAPHICS
 70
     1
  9
$MEASUREMENT
 70
     0
  9
$CELWEIGHT
370
    -1
  9
$ENDCAPS
280
     0
  9
$JOINSTYLE
280
     0
  9
$LWDISPLAY
290
     0
  9
$INSUNITS
 70
     0
  9
$HYPERLINKBASE
  1

  9
$STYLESHEET
  1

  9
$XEDIT
290
     1
  9
$CEPSNTYPE
380
     0
  9
$PSTYLEMODE
290
     1
  9
$FINGERPRINTGUID
  2
{F2E67A46-F803-9B43-AA0B-1E425BBEA914}
  9
$VERSIONGUID
  2
{A1422F60-7EE8-4B7C-9315-DCF65FC4F35C}
  9
$EXTNAMES
290
     1
  9
$PSVPSCALE
 40
0.0
  9
$OLESTARTUP
290
     0
  9
$SORTENTS
280
   127
  9
$INDEXCTL
280
     0
  9
$HIDETEXT
280
     1
  9
$XCLIPFRAME
280
     2
  9
$HALOGAP
280
     0
  9
$OBSCOLOR
 70
   257
  9
$OBSLTYPE
280
     0
  9
$INTERSECTIONDISPLAY
280
     0
  9
$INTERSECTIONCOLOR
 70
   257
  9
$DIMASSOC
280
     1
  9
$PROJECTNAME
  1

  9
$CAMERADISPLAY
290
     0
  9
$LENSLENGTH
 40
50.0
  9
$CAMERAHEIGHT
 40
0.0
  9
$STEPSPERSEC
 40
2.0
  9
$STEPSIZE
 40
6.0
  9
$3DDWFPREC
 40
2.0
  9
$PSOLWIDTH
 40
0.25
  9
$PSOLHEIGHT
 40
4.0
  9
$LOFTANG1
 40
1.570796326794896
  9
$LOFTANG2
 40
1.570796326794896
  9
$LOFTMAG1
 40
0.0
  9
$LOFTMAG2
 40
0.0
  9
$LOFTPARAM
 70
     7
  9
$LOFTNORMALS
280
     1
  9
$LATITUDE
 40
37.795
  9
$LONGITUDE
 40
-122.394
  9
$NORTHDIRECTION
 40
0.0
  9
$TIMEZONE
 70
 -8000
  9
$LIGHTGLYPHDISPLAY
280
     1
  9
$TILEMODELIGHTSYNCH
280
     1
  9
$CMATERIAL
347
32
  9
$SOLIDHIST
280
     0
  9
$SHOWHIST
280
     1
  9
$DWFFRAME
280
     2
  9
$DGNFRAME
280
     0
  9
$REALWORLDSCALE
290
     1
  9
$INTERFERECOLOR
 62
     1
  9
$INTERFEREOBJVS
345
4E
  9
$INTERFEREVPVS
346
4F
  9
$CSHADOW
280
     0
  9
$SHADOWPLANELOCATION
 40
0.0
  0
ENDSEC
  0
SECTION
  2
CLASSES
  0
CLASS
  1
ACDBDICTIONARYWDFLT
  2
AcDbDictionaryWithDefault
  3
ObjectDBX Classes
 90
        0
 91
        1
280
     0
281
     0
  0
CLASS
  1
DICTIONARYVAR
  2
AcDbDictionaryVar
  3
ObjectDBX Classes
 90
        0
 91
       15
280
     0
281
     0
  0
CLASS
  1
MATERIAL
  2
AcDbMaterial
  3
ObjectDBX Classes
 90
     1153
 91
        3
280
     0
281
     0
  0
CLASS
  1
VISUALSTYLE
  2
AcDbVisualStyle
  3
ObjectDBX Classes
 90
     4095
 91
        4
280
     0
281
     0
  0
CLASS
  1
TABLESTYLE
  2
AcDbTableStyle
  3
ObjectDBX Classes
 90
     4095
 91
        1
280
     0
281
     0
  0
CLASS
  1
SORTENTSTABLE
  2
AcDbSortentsTable
  3
ObjectDBX Classes
 90
        0
 91
        4
280
     0
281
     0
  0
CLASS
  1
SCALE
  2
AcDbScale
  3
ObjectDBX Classes
 90
     1153
 91
       18
280
     0
281
     0
  0
CLASS
  1
MLEADERSTYLE
  2
AcDbMLeaderStyle
  3
ACDB_MLEADERSTYLE_CLASS
 90
     4095
 91
        0
280
     0
281
     0
  0
CLASS
  1
CELLSTYLEMAP
  2
AcDbCellStyleMap
  3
ObjectDBX Classes
 90
     1152
 91
        1
280
     0
281
     0
  0
CLASS
  1
EXACXREFPANELOBJECT
  2
ExAcXREFPanelObject
  3
EXAC_ESW
 90
     1025
 91
        0
280
     1
281
     0
  0
CLASS
  1
NPOCOLLECTION
  2
AcDbImpNonPersistentObjectsCollection
  3
ObjectDBX Classes
 90
     1153
 91
        0
280
     0
281
     0
  0
CLASS
  1
AEC_REFEDIT_STATUS_TRACKER
  2
AecDbRefEditStatusTracker
  3
AecArchBase80|Product Desc: Autodesk Architectural Desktop 2007 |Company: Autodesk,Inc. |WEB Address: www.autodesk.com
 90
      129
 91
        0
280
     0
281
     0
  0
CLASS
  1
SWR_DBCONFIG
  2
TDbConfig
  3
"SWR_ARCHCORE"
 90
        1
 91
        0
280
     1
281
     0
  0
CLASS
  1
RASTERVARIABLES
  2
AcDbRasterVariables
  3
ISM
 90
        0
 91
        0
280
     0
281
     0
  0
CLASS
  1
ACAD_EVALUATION_GRAPH
  2
AcDbEvalGraph
  3
ObjectDBX Classes
 90
     1153
 91
        0
280
     0
281
     0
  0
CLASS
  1
ZRXEBBLOCKEDITORCUSTOBJ
  2
CZrxEbBlockEditorObject
  3
CZrxEbBlockEditorObject
 90
     1024
 91
        0
280
     1
281
     0
  0
CLASS
  1
ACDB_DYNAMICBLOCKPURGEPREVENTER_VERSION
  2
AcDbDynamicBlockPurgePreventer
  3
ObjectDBX Classes
 90
     1153
 91
        0
280
     0
281
     0
  0
CLASS
  1
FIELD
  2
AcDbField
  3
ObjectDBX Classes
 90
     1152
 91
        0
280
     0
281
     0
  0
CLASS
  1
FIELDLIST
  2
AcDbFieldList
  3
ObjectDBX Classes
 90
     1152
 91
        1
280
     0
281
     0
  0
CLASS
  1
ACDB_TEXTOBJECTCONTEXTDATA_CLASS
  2
AcDbTextObjectContextData
  3
ObjectDBX Classes
 90
     1153
 91
        0
280
     0
281
     0
  0
CLASS
  1
ACDBSECTIONVIEWSTYLE
  2
AcDbSectionViewStyle
  3
ObjectDBX Classes
 90
     1025
 91
        0
280
     0
281
     0
  0
CLASS
  1
ACDBDETAILVIEWSTYLE
  2
AcDbDetailViewStyle
  3
ObjectDBX Classes
 90
     1025
 91
        0
280
     0
281
     0
  0
CLASS
  1
SOLID_BACKGROUND
  2
AcDbSolidBackground
  3
SCENEOE
 90
     4095
 91
        0
280
     0
281
     0
  0
ENDSEC
  0
SECTION
  2
TABLES
  0
TABLE
  2
VPORT
  5
25
102
{ACAD_XDICTIONARY
360
2A
102
}
330
0
100
AcDbSymbolTable
 70
     1
  0
VPORT
  5
26
330
25
100
AcDbSymbolTableRecord
100
AcDbViewportTableRecord
  2
*Active
 70
     0
 10
0.0
 20
0.0
 11
1.0
 21
1.0
 12
479.2220813424548
 22
47.9127426085857
 13
0.0
 23
0.0
 14
10.0
 24
10.0
 15
10.0
 25
10.0
 16
0.0
 26
0.0
 36
1.0
 17
0.0
 27
0.0
 37
0.0
 40
15.21159159916026
 41
2.311515151515151
 42
50.0
 43
0.0
 44
0.0
 50
0.0
 51
0.0
 71
     0
 72
   100
 73
     1
 74
     3
 75
     0
 76
     0
 77
     0
 78
     0
281
     0
 65
     1
110
0.0
120
0.0
130
0.0
111
1.0
121
0.0
131
0.0
112
0.0
122
1.0
132
0.0
 79
     0
146
0.0
348
27
 60
     3
 61
     5
292
     1
282
     1
141
0.0
142
0.0
 63
   250
421
  3355443
1001
ACAD_NAV_VCDISPLAY
1070
     3
  0
ENDTAB
  0
TABLE
  2
LTYPE
  5
1F
330
0
100
AcDbSymbolTable
 70
     4
  0
LTYPE
  5
21
330
1F
100
AcDbSymbolTableRecord
100
AcDbLinetypeTableRecord
  2
ByBlock
 70
     0
  3

 72
    65
 73
     0
 40
0.0
  0
LTYPE
  5
22
330
1F
100
AcDbSymbolTableRecord
100
AcDbLinetypeTableRecord
  2
ByLayer
 70
     0
  3

 72
    65
 73
     0
 40
0.0
  0
LTYPE
  5
20
330
1F
100
AcDbSymbolTableRecord
100
AcDbLinetypeTableRecord
  2
Continuous
 70
     0
  3
Solid line
 72
    65
 73
     0
 40
0.0
  0
LTYPE
  5
E
330
1F
100
AcDbSymbolTableRecord
100
AcDbLinetypeTableRecord
  2
HIDDEN
 70
     0
  3
_ _ _ _ _ _ _ _ _ _ _ _ _ _ _ _ _ _ _ _ _ _ _
 72
    65
 73
     2
 40
0.375
 49
0.25
 74
     0
 49
-0.125
 74
     0
  0
LTYPE
  5
10A
330
1F
100
AcDbSymbolTableRecord
100
AcDbLinetypeTableRecord
  2
PHANTOM
 70
     0
  3
Phantom ______  __  __  ______  __  __  ______
 72
    65
 73
     6
 40
2.5
 49
1.25
 74
     0
 49
-0.25
 74
     0
 49
0.25
 74
     0
 49
-0.25
 74
     0
 49
0.25
 74
     0
 49
-0.25
 74
     0
  0
LTYPE
  5
1A1
330
1F
100
AcDbSymbolTableRecord
100
AcDbLinetypeTableRecord
  2
CENTER
 70
     0
  3
Center ____ _ ____ _ ____ _ ____ _ ____ _ ____
 72
    65
 73
     4
 40
2.0
 49
1.25
 74
     0
 49
-0.25
 74
     0
 49
0.25
 74
     0
 49
-0.25
 74
     0
  0
ENDTAB
  0
TABLE
  2
LAYER
  5
19
102
{ACAD_XDICTIONARY
360
1A
102
}
330
0
100
AcDbSymbolTable
 70
     9
  0
LAYER
  5
6
102
{ACAD_XDICTIONARY
360
7
102
}
330
19
100
AcDbSymbolTableRecord
100
AcDbLayerTableRecord
  2
0
 70
     0
 62
     7
  6
HIDDEN
370
    -3
390
9
347
C
348
0
  0
LAYER
  5
74
330
19
100
AcDbSymbolTableRecord
100
AcDbLayerTableRecord
  2
Defpoints
 70
     0
 62
     7
  6
Continuous
290
     0
370
    -3
390
9
347
C
348
0
  0
LAYER
  5
48
102
{ACAD_XDICTIONARY
360
49
102
}
330
19
100
AcDbSymbolTableRecord
100
AcDbLayerTableRecord
  2
DIM
 70
     0
 62
     4
  6
Continuous
370
    -3
390
9
347
C
348
0
  0
LAYER
  5
10C
102
{ACAD_XDICTIONARY
360
10D
102
}
330
19
100
AcDbSymbolTableRecord
100
AcDbLayerTableRecord
  2
OBJ
 70
     0
 62
     3
  6
Continuous
370
    30
390
9
347
C
348
0
  0
LAYER
  5
17D
102
{ACAD_XDICTIONARY
360
17E
102
}
330
19
100
AcDbSymbolTableRecord
100
AcDbLayerTableRecord
  2
Top half etch
 70
     0
 62
    30
  6
Continuous
370
    30
390
9
347
C
348
0
  0
LAYER
  5
107
102
{ACAD_XDICTIONARY
360
108
102
}
330
19
100
AcDbSymbolTableRecord
100
AcDbLayerTableRecord
  2
PHANTOM
 70
     0
 62
     5
  6
PHANTOM
370
    13
390
9
347
C
348
0
  0
LAYER
  5
68
102
{ACAD_XDICTIONARY
360
69
102
}
330
19
100
AcDbSymbolTableRecord
100
AcDbLayerTableRecord
  2
TEXT
 70
     0
 62
     2
  6
Continuous
370
    18
390
9
347
C
348
0
  0
LAYER
  5
B6
102
{ACAD_XDICTIONARY
360
B7
102
}
330
19
100
AcDbSymbolTableRecord
100
AcDbLayerTableRecord
  2
PLATE
 70
     0
 62
     6
  6
HIDDEN
370
    15
390
9
347
C
348
0
  0
LAYER
  5
19E
102
{ACAD_XDICTIONARY
360
19F
102
}
330
19
100
AcDbSymbolTableRecord
100
AcDbLayerTableRecord
  2
CLIN
 70
     0
 62
     1
  6
CENTER
370
     9
390
9
347
C
348
0
  0
ENDTAB
  0
TABLE
  2
STYLE
  5
1C
330
0
100
AcDbSymbolTable
 70
     1
  0
STYLE
  5
1D
330
1C
100
AcDbSymbolTableRecord
100
AcDbTextStyleTableRecord
  2
Standard
 70
     0
 40
0.0
 41
1.0
 50
0.0
 71
     0
 42
0.2
  3
txt
  4

  0
ENDTAB
  0
TABLE
  2
VIEW
  5
23
330
0
100
AcDbSymbolTable
 70
     0
  0
ENDTAB
  0
TABLE
  2
UCS
  5
24
330
0
100
AcDbSymbolTable
 70
     0
  0
ENDTAB
  0
TABLE
  2
APPID
  5
2B
330
0
100
AcDbSymbolTable
 70
    11
  0
APPID
  5
2C
330
2B
100
AcDbSymbolTableRecord
100
AcDbRegAppTableRecord
  2
ACAD
 70
     0
  0
APPID
  5
12
330
2B
100
AcDbSymbolTableRecord
100
AcDbRegAppTableRecord
  2
ACAD_PSEXT
 70
     0
  0
APPID
  5
C8
330
2B
100
AcDbSymbolTableRecord
100
AcDbRegAppTableRecord
  2
GradientColor1ACI
 70
     0
  0
APPID
  5
C9
330
2B
100
AcDbSymbolTableRecord
100
AcDbRegAppTableRecord
  2
GradientColor2ACI
 70
     0
  0
APPID
  5
51
330
2B
100
AcDbSymbolTableRecord
100
AcDbRegAppTableRecord
  2
ACAD_DSTYLE_DIMJAG
 70
     0
  0
APPID
  5
52
330
2B
100
AcDbSymbolTableRecord
100
AcDbRegAppTableRecord
  2
ACAD_DSTYLE_DIMTALN
 70
     0
  0
APPID
  5
1C9
330
2B
100
AcDbSymbolTableRecord
100
AcDbRegAppTableRecord
  2
AcDbDynamicBlockGUID
 70
     0
  0
APPID
  5
18D
330
2B
100
AcDbSymbolTableRecord
100
AcDbRegAppTableRecord
  2
HATCHBACKGROUNDCOLOR
 70
     0
  0
APPID
  5
29
330
2B
100
AcDbSymbolTableRecord
100
AcDbRegAppTableRecord
  2
ACAD_NAV_VCDISPLAY
 70
     0
  0
APPID
  5
78
330
2B
100
AcDbSymbolTableRecord
100
AcDbRegAppTableRecord
  2
ACAD_DSTYLE_DIMINSPECT
 70
     0
  0
APPID
  5
25B
330
2B
100
AcDbSymbolTableRecord
100
AcDbRegAppTableRecord
  2
Acad_TC
 70
     0
  0
ENDTAB
  0
TABLE
  2
DIMSTYLE
  5
2D
330
0
100
AcDbSymbolTable
 70
     2
100
AcDbDimStyleTable
 71
     0
  0
DIMSTYLE
105
C6
102
{ACAD_REACTORS
330
B5
330
CF
330
DD
330
F3
330
1CF
330
1E6
102
}
330
2D
100
AcDbSymbolTableRecord
100
AcDbDimStyleTableRecord
  2
3DEC X 25
 70
     0
 40
0.04
 41
2.54
 42
0.762
 43
1.9
 44
0.762
 73
     0
 74
     0
140
1.778
147
0.762
271
     3
272
     3
340
1D
  0
DIMSTYLE
105
50
102
{ACAD_REACTORS
330
6B
330
79
330
84
330
8F
330
9A
330
A5
330
1DD
330
1F4
330
1FD
330
206
330
20F
330
218
330
221
330
22A
330
233
330
23C
330
245
330
24E
102
}
330
2D
100
AcDbSymbolTableRecord
100
AcDbDimStyleTableRecord
  2
3DEC X 10
 70
     0
 40
0.1
 41
2.54
 42
0.762
 43
1.9
 44
0.762
 73
     0
 74
     0
140
1.778
141
0.0
147
0.762
271
     3
272
     3
340
1D
1001
ACAD_DSTYLE_DIMJAG
1070
   388
1040
1.5
1001
ACAD_DSTYLE_DIMTALN
1070
   392
1070
     0
  0
ENDTAB
  0
TABLE
  2
BLOCK_RECORD
  5
1
330
0
100
AcDbSymbolTable
 70
    25
  0
BLOCK_RECORD
  5
2
102
{ACAD_XDICTIONARY
360
3
102
}
330
1
100
AcDbSymbolTableRecord
100
AcDbBlockTableRecord
  2
*Model_Space
340
10
 70
     0
280
     1
281
     0
  0
BLOCK_RECORD
  5
13
330
1
100
AcDbSymbolTableRecord
100
AcDbBlockTableRecord
  2
*Paper_Space
340
16
 70
     0
280
     1
281
     0
  0
BLOCK_RECORD
  5
102
102
{ACAD_XDICTIONARY
360
103
102
}
330
1
100
AcDbSymbolTableRecord
100
AcDbBlockTableRecord
  2
UNIT
340
0
310
280000002000000020000000010008000000000000040000A857126B00000000000000000000000000000000000080000080000000808000800000008000800080800000C0C0C000C0DCC000F0CAA6000020400000206000002080000020A0000020C0000020E00000400000004020000040400000406000004080000040A0
310
000040C0000040E00000600000006020000060400000606000006080000060A0000060C0000060E00000800000008020000080400000806000008080000080A0000080C0000080E00000A0000000A0200000A0400000A0600000A0800000A0A00000A0C00000A0E00000C0000000C0200000C0400000C0600000C0800000C0
310
A00000C0C00000C0E00000E0000000E0200000E0400000E0600000E0800000E0A00000E0C00000E0E00040000000400020004000400040006000400080004000A0004000C0004000E00040200000402020004020400040206000402080004020A0004020C0004020E000404000004040200040404000404060004040800040
310
40A0004040C0004040E00040600000406020004060400040606000406080004060A0004060C0004060E00040800000408020004080400040806000408080004080A0004080C0004080E00040A0000040A0200040A0400040A0600040A0800040A0A00040A0C00040A0E00040C0000040C0200040C0400040C0600040C08000
310
40C0A00040C0C00040C0E00040E0000040E0200040E0400040E0600040E0800040E0A00040E0C00040E0E00080000000800020008000400080006000800080008000A0008000C0008000E00080200000802020008020400080206000802080008020A0008020C0008020E00080400000804020008040400080406000804080
310
008040A0008040C0008040E00080600000806020008060400080606000806080008060A0008060C0008060E00080800000808020008080400080806000808080008080A0008080C0008080E00080A0000080A0200080A0400080A0600080A0800080A0A00080A0C00080A0E00080C0000080C0200080C0400080C0600080C0
310
800080C0A00080C0C00080C0E00080E0000080E0200080E0400080E0600080E0800080E0A00080E0C00080E0E000C0000000C0002000C0004000C0006000C0008000C000A000C000C000C000E000C0200000C0202000C0204000C0206000C0208000C020A000C020C000C020E000C0400000C0402000C0404000C0406000C0
310
408000C040A000C040C000C040E000C0600000C0602000C0604000C0606000C0608000C060A000C060C000C060E000C0800000C0802000C0804000C0806000C0808000C080A000C080C000C080E000C0A00000C0A02000C0A04000C0A06000C0A08000C0A0A000C0A0C000C0A0E000C0C00000C0C02000C0C04000C0C06000
310
C0C08000C0C0A000F0FBFF00A4A0A000808080000000FF0000FF000000FFFF00FF000000FF00FF00FFFF0000FFFFFF0000000000000000000000000000000000000000000000000000000000000000000000000000000000000000000000000000000000000000000000000000000000000000000000000000000000000000
310
00000000000000000000000000000000000000FAFAFAFAFAFAFA00FAFAFA00FAFA0000FAFAFAFAFA00FAFAFAFAFAFAFA0000FAFAFCFCFAFAFCFA00FAFCFAFAFCFAFCFAFCFAFAFCFAFCFAFCFAFA00FCFAFA0000FAFC00FAFA00FA00FA00FAFA00FA00FA00FAFA00FA00FA00FAFA00FCFA000000FAFCFAFAFAFAFA00FAFAFAFA
310
FAFA00FAFAFAFAFAFA00FAFAFAFAFAFCFA000000FAFCFAFAFAFAFAFAFAFAFAFAFAFAFAFAFAFAFAFAFAFAFAFAFAFAFAFCFA000000FAFC00FA00FAFAFAFAFAFAFAFAFAFAFAFAFAFAFAFAFAFAFAFA000000FA00000000FAFAFA000000000000000000000000000000000000000000FAFAFA00000000FAFAFAFA00000000000000
310
0000000000000000000000000000FAFAFAFA000000FAFC00FA000000000000000000000000000000000000000000FA00FCFA000000FAFC00FA000000000000000000000000000000000000000000FA00FCFA000000FAFC00FA000000000000000000000000000000000000000000FA00FCFA000000FA0000FA002727272727
310
272727272727272727272727272700FA00FCFA000000FAFC00FA000000000000000000000000000000000000000000FA00FCFA000000FAFC00FA000000000000000000000000000000000000000000FA0000FA000000FAFC00FA000000000000000000000000000000000000000000FA00FCFA000000FAFC00FA0000000000
310
00000000000000000000000000000000FA00FCFA000000FAFC00FA0000000000000000000000000000000000000000000000FCFA00000000FAFAFA000000000000000000000000000000000000000000FAFAFA00000000FAFAFAFA000000000000000000000000000000000000000000FAFAFAFA000000FA000000FAFAFAFA
310
FAFAFAFAFAFAFAFAFAFAFAFAFAFAFAFAFAFA00FCFA000000FAFCFAFAFAFAFAFAFAFAFAFAFAFAFAFAFAFAFAFAFAFAFAFAFAFAFAFCFA000000FAFCFAFAFAFAFA00FAFAFAFAFAFA00FAFAFAFAFAFA00FAFAFAFAFAFCFA000000FAFC00FAFA00FA00FA00FAFA00FA00FA00FAFA00FA00FA00FAFA00FCFA0000FAFAFC00FAFAFCFA
310
FCFAFCFAFAFCFAFCFAFCFAFAFCFA00FAFCFAFAFCFCFAFA00FAFAFAFAFAFAFAFA00FAFAFAFAFAFA00FAFA00FAFA0000FAFA00FAFAFAFAFA000000000000000000000000000000000000000000000000000000000000000000000000000000000000000000000000000000000000000000000000000000000000000000000000
310
0000000000000000000000000000000000000000000000000000000000000000000000000000000000000000000000000000000000000000
102
{BLKREFS
331
101
102
}
 70
     0
280
     1
281
     0
1001
AcDbDynamicBlockGUID
1000
{9F82C6D0-A95C-4299-8190-6CDDFBD92E65}
  0
BLOCK_RECORD
  5
6C
330
1
100
AcDbSymbolTableRecord
100
AcDbBlockTableRecord
  2
*D1
340
0
 70
     0
280
     1
281
     0
  0
BLOCK_RECORD
  5
7A
330
1
100
AcDbSymbolTableRecord
100
AcDbBlockTableRecord
  2
*D2
340
0
 70
     0
280
     1
281
     0
  0
BLOCK_RECORD
  5
85
330
1
100
AcDbSymbolTableRecord
100
AcDbBlockTableRecord
  2
*D3
340
0
 70
     0
280
     1
281
     0
  0
BLOCK_RECORD
  5
90
330
1
100
AcDbSymbolTableRecord
100
AcDbBlockTableRecord
  2
*D4
340
0
 70
     0
280
     1
281
     0
  0
BLOCK_RECORD
  5
9B
330
1
100
AcDbSymbolTableRecord
100
AcDbBlockTableRecord
  2
*D5
340
0
 70
     0
280
     1
281
     0
  0
BLOCK_RECORD
  5
A6
330
1
100
AcDbSymbolTableRecord
100
AcDbBlockTableRecord
  2
*D6
340
0
 70
     0
280
     1
281
     0
  0
BLOCK_RECORD
  5
B9
330
1
100
AcDbSymbolTableRecord
100
AcDbBlockTableRecord
  2
*D7
340
0
 70
     0
280
     1
281
     0
  0
BLOCK_RECORD
  5
D0
330
1
100
AcDbSymbolTableRecord
100
AcDbBlockTableRecord
  2
*D8
340
0
 70
     0
280
     1
281
     0
  0
BLOCK_RECORD
  5
DE
330
1
100
AcDbSymbolTableRecord
100
AcDbBlockTableRecord
  2
*D9
340
0
 70
     0
280
     1
281
     0
  0
BLOCK_RECORD
  5
F4
330
1
100
AcDbSymbolTableRecord
100
AcDbBlockTableRecord
  2
*D10
340
0
 70
     0
280
     1
281
     0
  0
BLOCK_RECORD
  5
1D0
330
1
100
AcDbSymbolTableRecord
100
AcDbBlockTableRecord
  2
*D11
340
0
 70
     0
280
     1
281
     0
  0
BLOCK_RECORD
  5
1DE
330
1
100
AcDbSymbolTableRecord
100
AcDbBlockTableRecord
  2
*D12
340
0
 70
     0
280
     1
281
     0
  0
BLOCK_RECORD
  5
1E7
330
1
100
AcDbSymbolTableRecord
100
AcDbBlockTableRecord
  2
*D13
340
0
 70
     0
280
     1
281
     0
  0
BLOCK_RECORD
  5
1F5
330
1
100
AcDbSymbolTableRecord
100
AcDbBlockTableRecord
  2
*D14
340
0
 70
     0
280
     1
281
     0
  0
BLOCK_RECORD
  5
1FE
330
1
100
AcDbSymbolTableRecord
100
AcDbBlockTableRecord
  2
*D15
340
0
 70
     0
280
     1
281
     0
  0
BLOCK_RECORD
  5
207
330
1
100
AcDbSymbolTableRecord
100
AcDbBlockTableRecord
  2
*D16
340
0
 70
     0
280
     1
281
     0
  0
BLOCK_RECORD
  5
210
330
1
100
AcDbSymbolTableRecord
100
AcDbBlockTableRecord
  2
*D17
340
0
 70
     0
280
     1
281
     0
  0
BLOCK_RECORD
  5
219
330
1
100
AcDbSymbolTableRecord
100
AcDbBlockTableRecord
  2
*D18
340
0
 70
     0
280
     1
281
     0
  0
BLOCK_RECORD
  5
222
330
1
100
AcDbSymbolTableRecord
100
AcDbBlockTableRecord
  2
*D19
340
0
 70
     0
280
     1
281
     0
  0
BLOCK_RECORD
  5
22B
330
1
100
AcDbSymbolTableRecord
100
AcDbBlockTableRecord
  2
*D20
340
0
 70
     0
280
     1
281
     0
  0
BLOCK_RECORD
  5
234
330
1
100
AcDbSymbolTableRecord
100
AcDbBlockTableRecord
  2
*D21
340
0
 70
     0
280
     1
281
     0
  0
BLOCK_RECORD
  5
23D
330
1
100
AcDbSymbolTableRecord
100
AcDbBlockTableRecord
  2
*D22
340
0
 70
     0
280
     1
281
     0
  0
BLOCK_RECORD
  5
246
330
1
100
AcDbSymbolTableRecord
100
AcDbBlockTableRecord
  2
*D23
340
0
 70
     0
280
     1
281
     0
  0
BLOCK_RECORD
  5
24F
330
1
100
AcDbSymbolTableRecord
100
AcDbBlockTableRecord
  2
*D24
340
0
 70
     0
280
     1
281
     0
  0
ENDTAB
  0
ENDSEC
  0
SECTION
  2
BLOCKS
  0
BLOCK
  5
5
330
2
100
AcDbEntity
  8
0
100
AcDbBlockBegin
  2
*Model_Space
 70
     0
 10
0.0
 20
0.0
 30
0.0
  3
*Model_Space
  1

  0
ENDBLK
  5
F
330
2
100
AcDbEntity
  8
0
100
AcDbBlockEnd
  0
BLOCK
  5
14
330
13
100
AcDbEntity
 67
     1
  8
0
100
AcDbBlockBegin
  2
*Paper_Space
 70
     0
 10
0.0
 20
0.0
 30
0.0
  3
*Paper_Space
  1

  0
ENDBLK
  5
15
330
13
100
AcDbEntity
 67
     1
  8
0
100
AcDbBlockEnd
  0
BLOCK
  5
105
330
102
100
AcDbEntity
  8
DIM
  6
Continuous
100
AcDbBlockBegin
  2
UNIT
 70
     0
 10
0.0
 20
0.0
 30
0.0
  3
UNIT
  1

  0
LWPOLYLINE
  5
106
330
102
100
AcDbEntity
  8
PHANTOM
100
AcDbPolyline
 90
        4
 70
     1
 43
0.0
 10
403.3639852879863
 20
138.7524158427015
 10
408.2639852879863
 20
138.7524158427015
 10
408.2639852879863
 20
134.8524158427016
 10
403.3639852879863
 20
134.8524158427016
  0
LINE
  5
10B
330
102
100
AcDbEntity
  8
OBJ
100
AcDbLine
 10
405.6889852879863
 20
139.0064158427016
 30
0.0
 11
405.6889852879863
 21
138.5524158427015
 31
0.0
  0
LINE
  5
10F
330
102
100
AcDbEntity
  8
OBJ
100
AcDbLine
 10
405.9389852879863
 20
138.5524158427015
 30
0.0
 11
405.9389852879863
 21
139.0064158427016
 31
0.0
  0
LINE
  5
110
330
102
100
AcDbEntity
  8
OBJ
100
AcDbLine
 10
405.0389852879863
 20
139.0064158427016
 30
0.0
 11
405.0389852879863
 21
138.5524158427015
 31
0.0
  0
LINE
  5
111
330
102
100
AcDbEntity
  8
OBJ
100
AcDbLine
 10
405.2889852879863
 20
138.5524158427015
 30
0.0
 11
405.2889852879863
 21
139.0064158427016
 31
0.0
  0
LINE
  5
112
330
102
100
AcDbEntity
  8
OBJ
100
AcDbLine
 10
404.3889852879863
 20
139.0064158427016
 30
0.0
 11
404.3889852879863
 21
138.5524158427015
 31
0.0
  0
LINE
  5
113
330
102
100
AcDbEntity
  8
OBJ
100
AcDbLine
 10
404.6389852879864
 20
138.5524158427015
 30
0.0
 11
404.6389852879864
 21
139.0064158427016
 31
0.0
  0
LINE
  5
114
330
102
100
AcDbEntity
  8
OBJ
100
AcDbLine
 10
403.7389852879863
 20
139.0064158427016
 30
0.0
 11
403.7389852879863
 21
138.5524158427015
 31
0.0
  0
LINE
  5
115
330
102
100
AcDbEntity
  8
OBJ
100
AcDbLine
 10
403.9889852879864
 20
138.5524158427015
 30
0.0
 11
403.9889852879864
 21
139.0064158427016
 31
0.0
  0
LINE
  5
116
330
102
100
AcDbEntity
  8
OBJ
100
AcDbLine
 10
406.5889852879863
 20
139.0064158427016
 30
0.0
 11
406.5889852879863
 21
138.5524158427015
 31
0.0
  0
LINE
  5
117
330
102
100
AcDbEntity
  8
OBJ
100
AcDbLine
 10
406.3389852879863
 20
138.5524158427015
 30
0.0
 11
406.3389852879863
 21
139.0064158427016
 31
0.0
  0
LINE
  5
118
330
102
100
AcDbEntity
  8
OBJ
100
AcDbLine
 10
407.2389852879862
 20
139.0064158427016
 30
0.0
 11
407.2389852879862
 21
138.5524158427015
 31
0.0
  0
LINE
  5
119
330
102
100
AcDbEntity
  8
OBJ
100
AcDbLine
 10
406.9889852879862
 20
138.5524158427015
 30
0.0
 11
406.9889852879862
 21
139.0064158427016
 31
0.0
  0
LINE
  5
11A
330
102
100
AcDbEntity
  8
OBJ
100
AcDbLine
 10
407.8889852879862
 20
139.0064158427016
 30
0.0
 11
407.8889852879862
 21
138.5524158427015
 31
0.0
  0
LINE
  5
11B
330
102
100
AcDbEntity
  8
OBJ
100
AcDbLine
 10
407.6389852879862
 20
138.5524158427015
 30
0.0
 11
407.6389852879862
 21
139.0064158427016
 31
0.0
  0
LINE
  5
11C
330
102
100
AcDbEntity
  8
OBJ
100
AcDbLine
 10
405.6889852879863
 20
134.5984158427016
 30
0.0
 11
405.6889852879863
 21
135.1024158427016
 31
0.0
  0
LINE
  5
11D
330
102
100
AcDbEntity
  8
OBJ
100
AcDbLine
 10
405.9389852879863
 20
135.1024158427016
 30
0.0
 11
405.9389852879863
 21
134.5984158427016
 31
0.0
  0
LINE
  5
11E
330
102
100
AcDbEntity
  8
OBJ
100
AcDbLine
 10
405.0389852879863
 20
134.5984158427016
 30
0.0
 11
405.0389852879863
 21
135.1024158427016
 31
0.0
  0
LINE
  5
11F
330
102
100
AcDbEntity
  8
OBJ
100
AcDbLine
 10
405.2889852879863
 20
135.1024158427016
 30
0.0
 11
405.2889852879863
 21
134.5984158427016
 31
0.0
  0
LINE
  5
120
330
102
100
AcDbEntity
  8
OBJ
100
AcDbLine
 10
404.3889852879863
 20
134.5984158427016
 30
0.0
 11
404.3889852879863
 21
135.1024158427016
 31
0.0
  0
LINE
  5
121
330
102
100
AcDbEntity
  8
OBJ
100
AcDbLine
 10
404.6389852879864
 20
135.1024158427016
 30
0.0
 11
404.6389852879864
 21
134.5984158427016
 31
0.0
  0
LINE
  5
122
330
102
100
AcDbEntity
  8
OBJ
100
AcDbLine
 10
403.7389852879863
 20
134.5984158427016
 30
0.0
 11
403.7389852879863
 21
135.1024158427016
 31
0.0
  0
LINE
  5
123
330
102
100
AcDbEntity
  8
OBJ
100
AcDbLine
 10
403.9889852879864
 20
135.1024158427016
 30
0.0
 11
403.9889852879864
 21
134.5984158427016
 31
0.0
  0
LINE
  5
124
330
102
100
AcDbEntity
  8
OBJ
100
AcDbLine
 10
406.5889852879863
 20
134.5984158427016
 30
0.0
 11
406.5889852879863
 21
135.1024158427016
 31
0.0
  0
LINE
  5
125
330
102
100
AcDbEntity
  8
OBJ
100
AcDbLine
 10
406.3389852879863
 20
135.1024158427016
 30
0.0
 11
406.3389852879863
 21
134.5984158427016
 31
0.0
  0
LINE
  5
126
330
102
100
AcDbEntity
  8
OBJ
100
AcDbLine
 10
407.2389852879862
 20
134.5984158427016
 30
0.0
 11
407.2389852879862
 21
135.1024158427016
 31
0.0
  0
LINE
  5
127
330
102
100
AcDbEntity
  8
OBJ
100
AcDbLine
 10
406.9889852879862
 20
135.1024158427016
 30
0.0
 11
406.9889852879862
 21
134.5984158427016
 31
0.0
  0
LINE
  5
128
330
102
100
AcDbEntity
  8
OBJ
100
AcDbLine
 10
407.8889852879862
 20
134.5984158427016
 30
0.0
 11
407.8889852879862
 21
135.1024158427016
 31
0.0
  0
LINE
  5
129
330
102
100
AcDbEntity
  8
OBJ
100
AcDbLine
 10
407.6389852879862
 20
135.1024158427016
 30
0.0
 11
407.6389852879862
 21
134.5984158427016
 31
0.0
  0
LWPOLYLINE
  5
12A
330
102
100
AcDbEntity
  8
PHANTOM
100
AcDbPolyline
 90
        4
 70
     1
 43
0.0
 10
403.3639852879863
 20
138.7524158427015
 10
408.2639852879863
 20
138.7524158427015
 10
408.2639852879863
 20
134.8524158427016
 10
403.3639852879863
 20
134.8524158427016
  0
LINE
  5
12B
330
102
100
AcDbEntity
  8
OBJ
100
AcDbLine
 10
405.6889852879863
 20
139.0064158427016
 30
0.0
 11
405.6889852879863
 21
138.5274158427015
 31
0.0
  0
LINE
  5
12C
330
102
100
AcDbEntity
  8
OBJ
100
AcDbLine
 10
405.9389852879863
 20
138.5274158427015
 30
0.0
 11
405.9389852879863
 21
139.0064158427016
 31
0.0
  0
LINE
  5
12D
330
102
100
AcDbEntity
  8
OBJ
100
AcDbLine
 10
405.0389852879863
 20
139.0064158427016
 30
0.0
 11
405.0389852879863
 21
138.5274158427015
 31
0.0
  0
LINE
  5
12E
330
102
100
AcDbEntity
  8
OBJ
100
AcDbLine
 10
405.2889852879863
 20
138.5274158427015
 30
0.0
 11
405.2889852879863
 21
139.0064158427016
 31
0.0
  0
LINE
  5
12F
330
102
100
AcDbEntity
  8
OBJ
100
AcDbLine
 10
404.3889852879863
 20
139.0064158427016
 30
0.0
 11
404.3889852879863
 21
138.5274158427015
 31
0.0
  0
LINE
  5
130
330
102
100
AcDbEntity
  8
OBJ
100
AcDbLine
 10
404.6389852879864
 20
138.5274158427015
 30
0.0
 11
404.6389852879864
 21
139.0064158427016
 31
0.0
  0
LINE
  5
131
330
102
100
AcDbEntity
  8
OBJ
100
AcDbLine
 10
403.7389852879863
 20
139.0064158427016
 30
0.0
 11
403.7389852879863
 21
138.5274158427015
 31
0.0
  0
LINE
  5
132
330
102
100
AcDbEntity
  8
OBJ
100
AcDbLine
 10
403.9889852879864
 20
138.5274158427015
 30
0.0
 11
403.9889852879864
 21
139.0064158427016
 31
0.0
  0
LINE
  5
133
330
102
100
AcDbEntity
  8
OBJ
100
AcDbLine
 10
406.5889852879863
 20
139.0064158427016
 30
0.0
 11
406.5889852879863
 21
138.5274158427015
 31
0.0
  0
LINE
  5
134
330
102
100
AcDbEntity
  8
OBJ
100
AcDbLine
 10
406.3389852879863
 20
138.5274158427015
 30
0.0
 11
406.3389852879863
 21
139.0064158427016
 31
0.0
  0
LINE
  5
135
330
102
100
AcDbEntity
  8
OBJ
100
AcDbLine
 10
407.2389852879862
 20
139.0064158427016
 30
0.0
 11
407.2389852879862
 21
138.5274158427015
 31
0.0
  0
LINE
  5
136
330
102
100
AcDbEntity
  8
OBJ
100
AcDbLine
 10
406.9889852879862
 20
138.5274158427015
 30
0.0
 11
406.9889852879862
 21
139.0064158427016
 31
0.0
  0
LINE
  5
137
330
102
100
AcDbEntity
  8
OBJ
100
AcDbLine
 10
407.8889852879862
 20
139.0064158427016
 30
0.0
 11
407.8889852879862
 21
138.5274158427015
 31
0.0
  0
LINE
  5
138
330
102
100
AcDbEntity
  8
OBJ
100
AcDbLine
 10
407.6389852879862
 20
138.5274158427015
 30
0.0
 11
407.6389852879862
 21
139.0064158427016
 31
0.0
  0
LINE
  5
139
330
102
100
AcDbEntity
  8
OBJ
100
AcDbLine
 10
403.3639852879863
 20
137.1804158427028
 30
0.0
 11
403.2889852879907
 21
137.1804158427028
 31
0.0
  0
LINE
  5
13A
330
102
100
AcDbEntity
  8
OBJ
100
AcDbLine
 10
403.2889852879907
 20
137.1804158427028
 30
0.0
 11
403.2889852879907
 21
136.4244158427004
 31
0.0
  0
LINE
  5
13B
330
102
100
AcDbEntity
  8
OBJ
100
AcDbLine
 10
403.2889852879907
 20
136.4244158427004
 30
0.0
 11
403.3639852879863
 21
136.4244158427004
 31
0.0
  0
LINE
  5
13C
330
102
100
AcDbEntity
  8
OBJ
100
AcDbLine
 10
408.2639852879863
 20
137.1804158427028
 30
0.0
 11
408.3389852879863
 21
137.1804158427028
 31
0.0
  0
LINE
  5
13D
330
102
100
AcDbEntity
  8
OBJ
100
AcDbLine
 10
408.3389852879863
 20
137.1804158427028
 30
0.0
 11
408.3389852879863
 21
136.4244158427004
 31
0.0
  0
LINE
  5
13E
330
102
100
AcDbEntity
  8
OBJ
100
AcDbLine
 10
408.3389852879863
 20
136.4244158427004
 30
0.0
 11
408.2639852879863
 21
136.4244158427004
 31
0.0
  0
LINE
  5
13F
330
102
100
AcDbEntity
  8
OBJ
100
AcDbLine
 10
403.3639852879863
 20
137.3074158427028
 30
0.0
 11
403.2889852879907
 21
137.3074158427028
 31
0.0
  0
LINE
  5
140
330
102
100
AcDbEntity
  8
OBJ
100
AcDbLine
 10
407.7139852879863
 20
135.5524158427015
 30
0.0
 11
403.9139852879863
 21
135.5524158427015
 31
0.0
  0
LINE
  5
141
330
102
100
AcDbEntity
  8
OBJ
100
AcDbLine
 10
405.6889852879863
 20
138.5274158427015
 30
0.0
 11
405.5889852879864
 21
138.5274158427015
 31
0.0
  0
LINE
  5
142
330
102
100
AcDbEntity
  8
OBJ
100
AcDbLine
 10
405.5889852879864
 20
138.5274158427015
 30
0.0
 11
405.5889852879864
 21
138.2524158427016
 31
0.0
  0
LINE
  5
143
330
102
100
AcDbEntity
  8
OBJ
100
AcDbLine
 10
405.5889852879864
 20
138.2524158427016
 30
0.0
 11
406.0389852879863
 21
138.2524158427016
 31
0.0
  0
LINE
  5
144
330
102
100
AcDbEntity
  8
OBJ
100
AcDbLine
 10
406.0389852879863
 20
138.2524158427016
 30
0.0
 11
406.0389852879863
 21
138.5274158427015
 31
0.0
  0
LINE
  5
145
330
102
100
AcDbEntity
  8
OBJ
100
AcDbLine
 10
406.0389852879863
 20
138.5274158427015
 30
0.0
 11
405.9389852879863
 21
138.5274158427015
 31
0.0
  0
LINE
  5
146
330
102
100
AcDbEntity
  8
OBJ
100
AcDbLine
 10
405.0389852879863
 20
138.5274158427015
 30
0.0
 11
404.6389852879864
 21
138.5274158427015
 31
0.0
  0
LINE
  5
147
330
102
100
AcDbEntity
  8
OBJ
100
AcDbLine
 10
404.3889852879863
 20
138.5274158427015
 30
0.0
 11
403.9889852879864
 21
138.5274158427015
 31
0.0
  0
LINE
  5
148
330
102
100
AcDbEntity
  8
OBJ
100
AcDbLine
 10
405.3889852879862
 20
138.2524158427016
 30
0.0
 11
405.3889852879862
 21
138.5274158427015
 31
0.0
  0
LINE
  5
149
330
102
100
AcDbEntity
  8
OBJ
100
AcDbLine
 10
405.3889852879862
 20
138.5274158427015
 30
0.0
 11
405.2889852879863
 21
138.5274158427015
 31
0.0
  0
LINE
  5
14A
330
102
100
AcDbEntity
  8
OBJ
100
AcDbLine
 10
403.7389852879863
 20
138.5274158427015
 30
0.0
 11
403.6389852879864
 21
138.5274158427015
 31
0.0
  0
LINE
  5
14B
330
102
100
AcDbEntity
  8
OBJ
100
AcDbLine
 10
403.6389852879864
 20
138.5274158427015
 30
0.0
 11
403.6389852879864
 21
138.2524158427016
 31
0.0
  0
LINE
  5
14C
330
102
100
AcDbEntity
  8
OBJ
100
AcDbLine
 10
403.6389852879864
 20
138.2524158427016
 30
0.0
 11
405.3889852879862
 21
138.2524158427016
 31
0.0
  0
LINE
  5
14D
330
102
100
AcDbEntity
  8
OBJ
100
AcDbLine
 10
406.5889852879863
 20
138.5274158427015
 30
0.0
 11
406.9889852879862
 21
138.5274158427015
 31
0.0
  0
LINE
  5
14E
330
102
100
AcDbEntity
  8
OBJ
100
AcDbLine
 10
407.2389852879862
 20
138.5274158427015
 30
0.0
 11
407.6389852879862
 21
138.5274158427015
 31
0.0
  0
LINE
  5
14F
330
102
100
AcDbEntity
  8
OBJ
100
AcDbLine
 10
407.9889852879862
 20
138.2524158427016
 30
0.0
 11
406.2389852879864
 21
138.2524158427016
 31
0.0
  0
LINE
  5
150
330
102
100
AcDbEntity
  8
OBJ
100
AcDbLine
 10
406.2389852879864
 20
138.2524158427016
 30
0.0
 11
406.2389852879864
 21
138.5274158427015
 31
0.0
  0
LINE
  5
151
330
102
100
AcDbEntity
  8
OBJ
100
AcDbLine
 10
406.2389852879864
 20
138.5274158427015
 30
0.0
 11
406.3389852879863
 21
138.5274158427015
 31
0.0
  0
LINE
  5
152
330
102
100
AcDbEntity
  8
OBJ
100
AcDbLine
 10
407.8889852879862
 20
138.5274158427015
 30
0.0
 11
407.9889852879862
 21
138.5274158427015
 31
0.0
  0
LINE
  5
153
330
102
100
AcDbEntity
  8
OBJ
100
AcDbLine
 10
407.9889852879862
 20
138.4774158427015
 30
0.0
 11
407.9889852879862
 21
138.2524158427016
 31
0.0
  0
LINE
  5
154
330
102
100
AcDbEntity
  8
OBJ
100
AcDbLine
 10
405.6889852879863
 20
135.1024158427016
 30
0.0
 11
405.5889852879863
 21
135.1024158427016
 31
0.0
  0
LINE
  5
155
330
102
100
AcDbEntity
  8
OBJ
100
AcDbLine
 10
405.5889852879863
 20
135.1024158427016
 30
0.0
 11
405.5889852879863
 21
135.3524158427015
 31
0.0
  0
LINE
  5
156
330
102
100
AcDbEntity
  8
OBJ
100
AcDbLine
 10
405.5889852879863
 20
135.3524158427015
 30
0.0
 11
406.0389852879862
 21
135.3524158427015
 31
0.0
  0
LINE
  5
157
330
102
100
AcDbEntity
  8
OBJ
100
AcDbLine
 10
406.0389852879862
 20
135.3524158427015
 30
0.0
 11
406.0389852879862
 21
135.1024158427016
 31
0.0
  0
LINE
  5
158
330
102
100
AcDbEntity
  8
OBJ
100
AcDbLine
 10
406.0389852879862
 20
135.1024158427016
 30
0.0
 11
405.9389852879863
 21
135.1024158427016
 31
0.0
  0
LINE
  5
159
330
102
100
AcDbEntity
  8
OBJ
100
AcDbLine
 10
405.0389852879863
 20
135.1024158427016
 30
0.0
 11
404.9389852879864
 21
135.1024158427016
 31
0.0
  0
LINE
  5
15A
330
102
100
AcDbEntity
  8
OBJ
100
AcDbLine
 10
404.9389852879864
 20
135.1024158427016
 30
0.0
 11
404.9389852879864
 21
135.3524158427015
 31
0.0
  0
LINE
  5
15B
330
102
100
AcDbEntity
  8
OBJ
100
AcDbLine
 10
404.9389852879864
 20
135.3524158427015
 30
0.0
 11
405.3889852879862
 21
135.3524158427015
 31
0.0
  0
LINE
  5
15C
330
102
100
AcDbEntity
  8
OBJ
100
AcDbLine
 10
405.3889852879862
 20
135.3524158427015
 30
0.0
 11
405.3889852879862
 21
135.1024158427016
 31
0.0
  0
LINE
  5
15D
330
102
100
AcDbEntity
  8
OBJ
100
AcDbLine
 10
405.3889852879862
 20
135.1024158427016
 30
0.0
 11
405.2889852879863
 21
135.1024158427016
 31
0.0
  0
LINE
  5
15E
330
102
100
AcDbEntity
  8
OBJ
100
AcDbLine
 10
404.3889852879863
 20
135.1024158427016
 30
0.0
 11
404.2889852879864
 21
135.1024158427016
 31
0.0
  0
LINE
  5
15F
330
102
100
AcDbEntity
  8
OBJ
100
AcDbLine
 10
404.2889852879864
 20
135.1024158427016
 30
0.0
 11
404.2889852879864
 21
135.3524158427015
 31
0.0
  0
LINE
  5
160
330
102
100
AcDbEntity
  8
OBJ
100
AcDbLine
 10
404.2889852879864
 20
135.3524158427015
 30
0.0
 11
404.7389852879862
 21
135.3524158427015
 31
0.0
  0
LINE
  5
161
330
102
100
AcDbEntity
  8
OBJ
100
AcDbLine
 10
404.7389852879862
 20
135.3524158427015
 30
0.0
 11
404.7389852879862
 21
135.1024158427016
 31
0.0
  0
LINE
  5
162
330
102
100
AcDbEntity
  8
OBJ
100
AcDbLine
 10
404.7389852879862
 20
135.1024158427016
 30
0.0
 11
404.6389852879864
 21
135.1024158427016
 31
0.0
  0
LINE
  5
163
330
102
100
AcDbEntity
  8
OBJ
100
AcDbLine
 10
403.7389852879863
 20
135.1024158427016
 30
0.0
 11
403.6389852879864
 21
135.1024158427016
 31
0.0
  0
LINE
  5
164
330
102
100
AcDbEntity
  8
OBJ
100
AcDbLine
 10
403.6389852879864
 20
135.1024158427016
 30
0.0
 11
403.6389852879864
 21
135.3524158427015
 31
0.0
  0
LINE
  5
165
330
102
100
AcDbEntity
  8
OBJ
100
AcDbLine
 10
403.6389852879864
 20
135.3524158427015
 30
0.0
 11
404.0889852879862
 21
135.3524158427015
 31
0.0
  0
LINE
  5
166
330
102
100
AcDbEntity
  8
OBJ
100
AcDbLine
 10
404.0889852879862
 20
135.3524158427015
 30
0.0
 11
404.0889852879862
 21
135.1024158427016
 31
0.0
  0
LINE
  5
167
330
102
100
AcDbEntity
  8
OBJ
100
AcDbLine
 10
404.0889852879862
 20
135.1024158427016
 30
0.0
 11
403.9889852879864
 21
135.1024158427016
 31
0.0
  0
LINE
  5
168
330
102
100
AcDbEntity
  8
OBJ
100
AcDbLine
 10
406.5889852879863
 20
135.1024158427016
 30
0.0
 11
406.6889852879862
 21
135.1024158427016
 31
0.0
  0
LINE
  5
169
330
102
100
AcDbEntity
  8
OBJ
100
AcDbLine
 10
406.6889852879862
 20
135.1024158427016
 30
0.0
 11
406.6889852879862
 21
135.3524158427015
 31
0.0
  0
LINE
  5
16A
330
102
100
AcDbEntity
  8
OBJ
100
AcDbLine
 10
406.6889852879862
 20
135.3524158427015
 30
0.0
 11
406.2389852879864
 21
135.3524158427015
 31
0.0
  0
LINE
  5
16B
330
102
100
AcDbEntity
  8
OBJ
100
AcDbLine
 10
406.2389852879864
 20
135.3524158427015
 30
0.0
 11
406.2389852879864
 21
135.1024158427016
 31
0.0
  0
LINE
  5
16C
330
102
100
AcDbEntity
  8
OBJ
100
AcDbLine
 10
406.2389852879864
 20
135.1024158427016
 30
0.0
 11
406.3389852879863
 21
135.1024158427016
 31
0.0
  0
LINE
  5
16D
330
102
100
AcDbEntity
  8
OBJ
100
AcDbLine
 10
407.2389852879862
 20
135.1024158427016
 30
0.0
 11
407.3389852879862
 21
135.1024158427016
 31
0.0
  0
LINE
  5
16E
330
102
100
AcDbEntity
  8
OBJ
100
AcDbLine
 10
407.3389852879862
 20
135.1024158427016
 30
0.0
 11
407.3389852879862
 21
135.3524158427015
 31
0.0
  0
LINE
  5
16F
330
102
100
AcDbEntity
  8
OBJ
100
AcDbLine
 10
407.3389852879862
 20
135.3524158427015
 30
0.0
 11
406.8889852879864
 21
135.3524158427015
 31
0.0
  0
LINE
  5
170
330
102
100
AcDbEntity
  8
OBJ
100
AcDbLine
 10
406.8889852879864
 20
135.3524158427015
 30
0.0
 11
406.8889852879864
 21
135.1024158427016
 31
0.0
  0
LINE
  5
171
330
102
100
AcDbEntity
  8
OBJ
100
AcDbLine
 10
406.8889852879864
 20
135.1024158427016
 30
0.0
 11
406.9889852879862
 21
135.1024158427016
 31
0.0
  0
LINE
  5
172
330
102
100
AcDbEntity
  8
OBJ
100
AcDbLine
 10
407.8889852879862
 20
135.1024158427016
 30
0.0
 11
407.9889852879862
 21
135.1024158427016
 31
0.0
  0
LINE
  5
173
330
102
100
AcDbEntity
  8
OBJ
100
AcDbLine
 10
407.9889852879862
 20
135.1024158427016
 30
0.0
 11
407.9889852879862
 21
135.3524158427015
 31
0.0
  0
LINE
  5
174
330
102
100
AcDbEntity
  8
OBJ
100
AcDbLine
 10
407.9889852879862
 20
135.3524158427015
 30
0.0
 11
407.5389852879863
 21
135.3524158427015
 31
0.0
  0
LINE
  5
175
330
102
100
AcDbEntity
  8
OBJ
100
AcDbLine
 10
407.5389852879863
 20
135.3524158427015
 30
0.0
 11
407.5389852879863
 21
135.1024158427016
 31
0.0
  0
LINE
  5
176
330
102
100
AcDbEntity
  8
OBJ
100
AcDbLine
 10
407.5389852879863
 20
135.1024158427016
 30
0.0
 11
407.6389852879862
 21
135.1024158427016
 31
0.0
  0
LINE
  5
177
330
102
100
AcDbEntity
  8
OBJ
100
AcDbLine
 10
407.8889852879862
 20
138.5274158427015
 30
0.0
 11
407.9889852879862
 21
138.5274158427015
 31
0.0
  0
LINE
  5
178
330
102
100
AcDbEntity
  8
OBJ
100
AcDbLine
 10
407.9889852879862
 20
138.5274158427015
 30
0.0
 11
407.9889852879862
 21
138.2524158427016
 31
0.0
  0
ARC
  5
179
330
102
100
AcDbEntity
  8
OBJ
100
AcDbCircle
 10
407.7139852879863
 20
135.6524158427014
 30
0.0
 40
0.0999999999998806
100
AcDbArc
 50
269.9999999999023
 51
0.0000000000651378
  0
LINE
  5
17A
330
102
100
AcDbEntity
  8
OBJ
100
AcDbLine
 10
407.7139852879863
 20
138.0524158427017
 30
0.0
 11
403.9139852879863
 21
138.0524158427017
 31
0.0
  0
ARC
  5
17B
330
102
100
AcDbEntity
  8
OBJ
100
AcDbCircle
 10
407.7139852879865
 20
137.9524158427018
 30
0.0
 40
0.0999999999998806
100
AcDbArc
 50
359.9999999999349
 51
90.00000000009769
  0
ARC
  5
17C
330
102
100
AcDbEntity
  8
Top half etch
  6
Continuous
100
AcDbCircle
 10
407.2389852879862
 20
136.5774158427015
 30
0.0
 40
0.0750000000000739
100
AcDbArc
 50
0.0000000000651378
 51
89.99999999991207
  0
LINE
  5
180
330
102
100
AcDbEntity
  8
Top half etch
  6
Continuous
100
AcDbLine
 10
407.3139852879863
 20
136.5774158427016
 30
0.0
 11
407.3139852879863
 21
136.5774158427016
 31
0.0
  0
ARC
  5
181
330
102
100
AcDbEntity
  8
Top half etch
  6
Continuous
100
AcDbCircle
 10
407.2389852879862
 20
136.5774158427016
 30
0.0
 40
0.0750000000000455
100
AcDbArc
 50
270.0000000000423
 51
359.999999999956
  0
ARC
  5
182
330
102
100
AcDbEntity
  8
Top half etch
  6
Continuous
100
AcDbCircle
 10
404.3889852879863
 20
136.5774158427016
 30
0.0
 40
0.0750000000000455
100
AcDbArc
 50
180.0000000000406
 51
269.9999999999576
  0
ARC
  5
183
330
102
100
AcDbEntity
  8
Top half etch
  6
Continuous
100
AcDbCircle
 10
404.3889852879864
 20
136.5774158427015
 30
0.0
 40
0.0750000000001023
100
AcDbArc
 50
90.00000000008794
 51
179.9999999999348
  0
LINE
  5
184
330
102
100
AcDbEntity
  8
OBJ
100
AcDbLine
 10
407.8139852879864
 20
136.0609158427004
 30
0.0
 11
407.8139852879864
 21
135.6524158427014
 31
0.0
  0
LINE
  5
185
330
102
100
AcDbEntity
  8
OBJ
100
AcDbLine
 10
407.8139852879863
 20
137.9524158427018
 30
0.0
 11
407.8139852879863
 21
137.5439158427028
 31
0.0
  0
ARC
  5
186
330
102
100
AcDbEntity
  8
OBJ
100
AcDbCircle
 10
403.9139852879863
 20
135.6524158427014
 30
0.0
 40
0.0999999999998806
100
AcDbArc
 50
179.9999999999348
 51
270.0000000000977
  0
ARC
  5
187
330
102
100
AcDbEntity
  8
OBJ
100
AcDbCircle
 10
403.9139852879861
 20
137.9524158427019
 30
0.0
 40
0.0999999999998806
100
AcDbArc
 50
89.99999999990228
 51
180.0000000000651
  0
LINE
  5
188
330
102
100
AcDbEntity
  8
OBJ
100
AcDbLine
 10
403.8139852879862
 20
136.0609158427004
 30
0.0
 11
403.8139852879862
 21
135.6524158427014
 31
0.0
  0
LINE
  5
189
330
102
100
AcDbEntity
  8
OBJ
100
AcDbLine
 10
403.8139852879862
 20
137.9524158427019
 30
0.0
 11
403.8139852879862
 21
137.5439158427028
 31
0.0
  0
LWPOLYLINE
  5
18A
330
102
100
AcDbEntity
  8
OBJ
100
AcDbPolyline
 90
        2
 70
     0
 43
0.0
 10
403.8139852879862
 20
136.9439158427028
 10
403.8139852879862
 20
136.6609158427004
  0
LINE
  5
18B
330
102
100
AcDbEntity
  8
Top half etch
  6
Continuous
100
AcDbLine
 10
404.3672768996923
 20
136.6524158427016
 30
0.0
 11
407.2389852879862
 21
136.6524158427016
 31
0.0
  0
HATCH
  5
18C
330
102
100
AcDbEntity
  8
Top half etch
  6
Continuous
100
AcDbHatch
 10
0.0
 20
0.0
 30
0.0
210
0.0
220
0.0
230
1.0
  2
ANSI37
 70
     0
 71
     0
 91
        1
 92
        3
 72
     1
 73
     1
 93
        6
 10
404.3139852879863
 20
136.5774158427015
 42
0.4142135623719852
 10
404.3889852879862
 20
136.5024158427015
 42
0.0
 10
407.2389852879863
 20
136.5024158427015
 42
0.4142135623730951
 10
407.3139852879863
 20
136.5774158427015
 42
0.4142135623728731
 10
407.2389852879863
 20
136.6524158427016
 42
0.0
 10
404.3889852879864
 20
136.6524158427016
 42
0.4142135623729841
 97
        0
 75
     1
 76
     1
 52
0.0
 41
1.0
 77
     0
 78
     2
 53
45.0
 43
24.80816514242702
 44
8.508858708026309
 45
-0.0883883476483184
 46
0.0883883476483185
 79
     0
 53
135.0
 43
24.80816514242702
 44
8.508858708026309
 45
-0.0883883476483185
 46
-0.0883883476483184
 79
     0
 98
        1
 10
405.7063035834518
 20
136.5650489627796
1001
HATCHBACKGROUNDCOLOR
1071
-939524096
1000

1000

1001
ACAD
1010
0.0
1020
0.0
1030
0.0
  0
LINE
  5
18E
330
102
100
AcDbEntity
  8
OBJ
100
AcDbLine
 10
405.6889852879863
 20
134.5984158427016
 30
0.0
 11
405.6889852879863
 21
135.1024158427016
 31
0.0
  0
LINE
  5
18F
330
102
100
AcDbEntity
  8
OBJ
100
AcDbLine
 10
405.9389852879863
 20
135.1024158427016
 30
0.0
 11
405.9389852879863
 21
134.5984158427016
 31
0.0
  0
LINE
  5
190
330
102
100
AcDbEntity
  8
OBJ
100
AcDbLine
 10
405.0389852879863
 20
134.5984158427016
 30
0.0
 11
405.0389852879863
 21
135.1024158427016
 31
0.0
  0
LINE
  5
191
330
102
100
AcDbEntity
  8
OBJ
100
AcDbLine
 10
405.2889852879863
 20
135.1024158427016
 30
0.0
 11
405.2889852879863
 21
134.5984158427016
 31
0.0
  0
LINE
  5
192
330
102
100
AcDbEntity
  8
OBJ
100
AcDbLine
 10
404.3889852879863
 20
134.5984158427016
 30
0.0
 11
404.3889852879863
 21
135.1024158427016
 31
0.0
  0
LINE
  5
193
330
102
100
AcDbEntity
  8
OBJ
100
AcDbLine
 10
404.6389852879864
 20
135.1024158427016
 30
0.0
 11
404.6389852879864
 21
134.5984158427016
 31
0.0
  0
LINE
  5
194
330
102
100
AcDbEntity
  8
OBJ
100
AcDbLine
 10
403.7389852879863
 20
134.5984158427016
 30
0.0
 11
403.7389852879863
 21
135.1024158427016
 31
0.0
  0
LINE
  5
195
330
102
100
AcDbEntity
  8
OBJ
100
AcDbLine
 10
403.9889852879864
 20
135.1024158427016
 30
0.0
 11
403.9889852879864
 21
134.5984158427016
 31
0.0
  0
LINE
  5
196
330
102
100
AcDbEntity
  8
OBJ
100
AcDbLine
 10
406.5889852879863
 20
134.5984158427016
 30
0.0
 11
406.5889852879863
 21
135.1024158427016
 31
0.0
  0
LINE
  5
197
330
102
100
AcDbEntity
  8
OBJ
100
AcDbLine
 10
406.3389852879863
 20
135.1024158427016
 30
0.0
 11
406.3389852879863
 21
134.5984158427016
 31
0.0
  0
LINE
  5
198
330
102
100
AcDbEntity
  8
OBJ
100
AcDbLine
 10
407.2389852879862
 20
134.5984158427016
 30
0.0
 11
407.2389852879862
 21
135.1024158427016
 31
0.0
  0
LINE
  5
199
330
102
100
AcDbEntity
  8
OBJ
100
AcDbLine
 10
406.9889852879862
 20
135.1024158427016
 30
0.0
 11
406.9889852879862
 21
134.5984158427016
 31
0.0
  0
LINE
  5
19A
330
102
100
AcDbEntity
  8
OBJ
100
AcDbLine
 10
407.8889852879862
 20
134.5984158427016
 30
0.0
 11
407.8889852879862
 21
135.1024158427016
 31
0.0
  0
LINE
  5
19B
330
102
100
AcDbEntity
  8
OBJ
100
AcDbLine
 10
407.6389852879862
 20
135.1024158427016
 30
0.0
 11
407.6389852879862
 21
134.5984158427016
 31
0.0
  0
LWPOLYLINE
  5
19C
330
102
100
AcDbEntity
  8
OBJ
100
AcDbPolyline
 90
        2
 70
     0
 43
0.0
 10
407.8139852879864
 20
136.9439158427028
 10
407.8139852879864
 20
136.6609158427004
  0
LINE
  5
19D
330
102
100
AcDbEntity
  8
CLIN
  6
CENTER
 48
2.0
100
AcDbLine
 10
403.3639852879863
 20
136.8024158427016
 30
0.0
 11
408.2639852879863
 21
136.8024158427016
 31
0.0
  0
LINE
  5
1A2
330
102
100
AcDbEntity
  8
CLIN
  6
CENTER
 48
2.0
100
AcDbLine
 10
405.8139852879863
 20
138.7524158427015
 30
0.0
 11
405.8139852879863
 21
134.8524158427016
 31
0.0
  0
LWPOLYLINE
  5
1A3
330
102
100
AcDbEntity
  8
OBJ
 62
     1
100
AcDbPolyline
 90
        4
 70
     0
 43
0.0
 10
407.8139852879864
 20
137.1439158427029
 10
408.1524852879862
 20
137.1439158427029
 10
408.1889852879862
 20
137.1804158427028
 10
408.2639852879863
 20
137.1804158427028
  0
LINE
  5
1A4
330
102
100
AcDbEntity
  8
OBJ
100
AcDbLine
 10
408.2639852879863
 20
137.1804158427028
 30
0.0
 11
408.3389852879863
 21
137.1804158427028
 31
0.0
  0
LINE
  5
1A5
330
102
100
AcDbEntity
  8
OBJ
100
AcDbLine
 10
408.3389852879863
 20
136.4244158427004
 30
0.0
 11
408.2639852879863
 21
136.4244158427004
 31
0.0
  0
LINE
  5
1A6
330
102
100
AcDbEntity
  8
OBJ
100
AcDbLine
 10
408.1889852879863
 20
137.3074158427028
 30
0.0
 11
408.2639852879863
 21
137.3074158427028
 31
0.0
  0
LWPOLYLINE
  5
1A7
330
102
100
AcDbEntity
  8
OBJ
 62
     1
100
AcDbPolyline
 90
        2
 70
     0
 43
0.0
 10
407.8139852879863
 20
137.1439158427029
 10
407.8139852879863
 20
137.3439158427028
  0
ARC
  5
1A8
330
102
100
AcDbEntity
  8
OBJ
 62
     1
100
AcDbCircle
 10
407.8139852879864
 20
137.0439158427028
 30
0.0
 40
0.1
100
AcDbArc
 50
90.0
 51
270.0
  0
ARC
  5
1A9
330
102
100
AcDbEntity
  8
OBJ
 62
     1
100
AcDbCircle
 10
407.8139852879864
 20
137.4439158427028
 30
0.0
 40
0.1
100
AcDbArc
 50
90.0
 51
270.0
  0
LINE
  5
1AA
330
102
100
AcDbEntity
  8
OBJ
  6
Continuous
 62
     1
100
AcDbLine
 10
408.1889852879863
 20
137.3074158427028
 30
0.0
 11
408.1524852879861
 21
137.3439158427029
 31
0.0
  0
LINE
  5
1AB
330
102
100
AcDbEntity
  8
OBJ
  6
Continuous
 62
     1
100
AcDbLine
 10
407.8139852879864
 20
137.3439158427029
 30
0.0
 11
408.1524852879861
 21
137.3439158427029
 31
0.0
  0
LWPOLYLINE
  5
1AC
330
102
100
AcDbEntity
  8
OBJ
 62
     1
100
AcDbPolyline
 90
        2
 70
     0
 43
0.0
 10
408.1286476496778
 20
137.143915842703
 10
408.1286476496778
 20
137.3439158427029
  0
LWPOLYLINE
  5
1AD
330
102
100
AcDbEntity
  8
OBJ
 62
     1
100
AcDbPolyline
 90
        4
 70
     0
 43
0.0
 10
407.8139852879864
 20
136.4609158427004
 10
408.1524852879862
 20
136.4609158427004
 10
408.1889852879862
 20
136.4244158427004
 10
408.2639852879863
 20
136.4244158427004
  0
LWPOLYLINE
  5
1AE
330
102
100
AcDbEntity
  8
OBJ
 62
     1
100
AcDbPolyline
 90
        2
 70
     0
 43
0.0
 10
407.8139852879863
 20
136.4609158427004
 10
407.8139852879863
 20
136.2609158427004
  0
ARC
  5
1AF
330
102
100
AcDbEntity
  8
OBJ
 62
     1
100
AcDbCircle
 10
407.8139852879864
 20
136.5609158427004
 30
0.0
 40
0.1
100
AcDbArc
 50
90.0
 51
270.0
  0
ARC
  5
1B0
330
102
100
AcDbEntity
  8
OBJ
 62
     1
100
AcDbCircle
 10
407.8139852879864
 20
136.1609158427004
 30
0.0
 40
0.1
100
AcDbArc
 50
90.0
 51
270.0
  0
LINE
  5
1B1
330
102
100
AcDbEntity
  8
OBJ
  6
Continuous
 62
     1
100
AcDbLine
 10
408.1889852879863
 20
136.2974158427004
 30
0.0
 11
408.1524852879861
 21
136.2609158427003
 31
0.0
  0
LINE
  5
1B2
330
102
100
AcDbEntity
  8
OBJ
  6
Continuous
 62
     1
100
AcDbLine
 10
407.8139852879864
 20
136.2609158427003
 30
0.0
 11
408.1524852879861
 21
136.2609158427003
 31
0.0
  0
LWPOLYLINE
  5
1B3
330
102
100
AcDbEntity
  8
OBJ
 62
     1
100
AcDbPolyline
 90
        2
 70
     0
 43
0.0
 10
408.1286476496778
 20
136.4609158427003
 10
408.1286476496778
 20
136.2609158427003
  0
LINE
  5
1B4
330
102
100
AcDbEntity
  8
OBJ
100
AcDbLine
 10
408.1889852879863
 20
136.2974158427004
 30
0.0
 11
408.2639852879863
 21
136.2974158427004
 31
0.0
  0
LWPOLYLINE
  5
1B5
330
102
100
AcDbEntity
  8
OBJ
 62
     1
100
AcDbPolyline
 90
        4
 70
     0
 43
0.0
 10
403.8139852879861
 20
137.1439158427029
 10
403.4754852879864
 20
137.1439158427029
 10
403.4389852879864
 20
137.1804158427028
 10
403.3639852879863
 20
137.1804158427028
  0
LINE
  5
1B6
330
102
100
AcDbEntity
  8
OBJ
100
AcDbLine
 10
403.3639852879863
 20
137.1804158427028
 30
0.0
 11
403.2889852879863
 21
137.1804158427028
 31
0.0
  0
LINE
  5
1B7
330
102
100
AcDbEntity
  8
OBJ
100
AcDbLine
 10
403.2889852879863
 20
136.4244158427004
 30
0.0
 11
403.3639852879863
 21
136.4244158427004
 31
0.0
  0
LINE
  5
1B8
330
102
100
AcDbEntity
  8
OBJ
100
AcDbLine
 10
403.4389852879862
 20
137.3074158427028
 30
0.0
 11
403.3639852879863
 21
137.3074158427028
 31
0.0
  0
LWPOLYLINE
  5
1B9
330
102
100
AcDbEntity
  8
OBJ
 62
     1
100
AcDbPolyline
 90
        2
 70
     0
 43
0.0
 10
403.8139852879862
 20
137.1439158427029
 10
403.8139852879862
 20
137.3439158427028
  0
ARC
  5
1BA
330
102
100
AcDbEntity
  8
OBJ
 62
     1
100
AcDbCircle
 10
403.8139852879861
 20
137.0439158427028
 30
0.0
 40
0.1
100
AcDbArc
 50
270.0
 51
90.0
  0
ARC
  5
1BB
330
102
100
AcDbEntity
  8
OBJ
 62
     1
100
AcDbCircle
 10
403.8139852879861
 20
137.4439158427028
 30
0.0
 40
0.1
100
AcDbArc
 50
270.0
 51
90.0
  0
LINE
  5
1BC
330
102
100
AcDbEntity
  8
OBJ
  6
Continuous
 62
     1
100
AcDbLine
 10
403.4389852879862
 20
137.3074158427028
 30
0.0
 11
403.4754852879864
 21
137.3439158427029
 31
0.0
  0
LINE
  5
1BD
330
102
100
AcDbEntity
  8
OBJ
  6
Continuous
 62
     1
100
AcDbLine
 10
403.8139852879861
 20
137.3439158427029
 30
0.0
 11
403.4754852879864
 21
137.3439158427029
 31
0.0
  0
LWPOLYLINE
  5
1BE
330
102
100
AcDbEntity
  8
OBJ
 62
     1
100
AcDbPolyline
 90
        2
 70
     0
 43
0.0
 10
403.4993229262948
 20
137.143915842703
 10
403.4993229262948
 20
137.3439158427029
  0
LWPOLYLINE
  5
1BF
330
102
100
AcDbEntity
  8
OBJ
 62
     1
100
AcDbPolyline
 90
        4
 70
     0
 43
0.0
 10
403.8139852879861
 20
136.4609158427004
 10
403.4754852879864
 20
136.4609158427004
 10
403.4389852879864
 20
136.4244158427004
 10
403.3639852879863
 20
136.4244158427004
  0
LWPOLYLINE
  5
1C0
330
102
100
AcDbEntity
  8
OBJ
 62
     1
100
AcDbPolyline
 90
        2
 70
     0
 43
0.0
 10
403.8139852879862
 20
136.4609158427004
 10
403.8139852879862
 20
136.2609158427004
  0
ARC
  5
1C1
330
102
100
AcDbEntity
  8
OBJ
 62
     1
100
AcDbCircle
 10
403.8139852879861
 20
136.5609158427004
 30
0.0
 40
0.1
100
AcDbArc
 50
270.0
 51
90.0
  0
ARC
  5
1C2
330
102
100
AcDbEntity
  8
OBJ
 62
     1
100
AcDbCircle
 10
403.8139852879861
 20
136.1609158427004
 30
0.0
 40
0.1
100
AcDbArc
 50
270.0
 51
90.0
  0
LINE
  5
1C3
330
102
100
AcDbEntity
  8
OBJ
  6
Continuous
 62
     1
100
AcDbLine
 10
403.4389852879862
 20
136.2974158427004
 30
0.0
 11
403.4754852879864
 21
136.2609158427003
 31
0.0
  0
LINE
  5
1C4
330
102
100
AcDbEntity
  8
OBJ
  6
Continuous
 62
     1
100
AcDbLine
 10
403.8139852879861
 20
136.2609158427003
 30
0.0
 11
403.4754852879864
 21
136.2609158427003
 31
0.0
  0
LWPOLYLINE
  5
1C5
330
102
100
AcDbEntity
  8
OBJ
 62
     1
100
AcDbPolyline
 90
        2
 70
     0
 43
0.0
 10
403.4993229262948
 20
136.4609158427003
 10
403.4993229262948
 20
136.2609158427003
  0
LINE
  5
1C6
330
102
100
AcDbEntity
  8
OBJ
100
AcDbLine
 10
403.4389852879862
 20
136.2974158427004
 30
0.0
 11
403.3639852879863
 21
136.2974158427004
 31
0.0
  0
LINE
  5
1C7
330
102
100
AcDbEntity
  8
Top half etch
  6
Continuous
100
AcDbLine
 10
407.2389852879862
 20
136.5024158427015
 30
0.0
 11
404.3889852879863
 21
136.5024158427015
 31
0.0
  0
ENDBLK
  5
1C8
330
102
100
AcDbEntity
  8
DIM
  6
Continuous
100
AcDbBlockEnd
  0
BLOCK
  5
6D
330
6C
100
AcDbEntity
  8
DIM
  6
Continuous
100
AcDbBlockBegin
  2
*D1
 70
     1
 10
0.0
 20
0.0
 30
0.0
  3
*D1
  1

  0
LINE
  5
6E
330
6C
100
AcDbEntity
  8
DIM
  6
Continuous
 62
     0
440
 16777216
370
    -2
390
6F
100
AcDbLine
 10
475.0598319393474
 20
44.83427197062712
 30
0.0
 11
475.0598319393474
 21
44.81047197062707
 31
0.0
  0
LINE
  5
70
330
6C
100
AcDbEntity
  8
DIM
  6
Continuous
 62
     0
440
 16777216
370
    -2
390
6F
100
AcDbLine
 10
475.0598319393474
 20
44.81047197062707
 30
0.0
 11
474.8032777567242
 21
44.72647197062963
 31
0.0
  0
LINE
  5
71
330
6C
100
AcDbEntity
  8
DIM
  6
Continuous
 62
     0
440
 16777216
370
    -2
390
6F
100
AcDbLine
 10
474.8032777567242
 20
44.72647197062963
 30
0.0
 11
474.8032777567242
 21
44.62647197062961
 31
0.0
  0
MTEXT
  5
72
330
6C
100
AcDbEntity
  8
DIM
  6
Continuous
 62
     0
440
 16777216
390
6F
100
AcDbMText
 10
474.8032777567242
 20
44.10652197062965
 30
0.0
 40
0.075
 41
0.0
 46
0.0
 71
     5
 72
     1
  1
\A1;2.450 MAX PLT
 11
0.0
 21
1.0
 31
0.0
 73
     1
 44
1.0
  0
POINT
  5
73
330
6C
100
AcDbEntity
  8
Defpoints
  6
Continuous
 62
     0
440
 16777216
390
6F
100
AcDbPoint
 10
475.0598319393473
 20
44.91047197062712
 30
0.0
  0
POINT
  5
75
330
6C
100
AcDbEntity
  8
Defpoints
  6
Continuous
 62
     0
440
 16777216
390
6F
100
AcDbPoint
 10
474.8032777567242
 20
44.62647197062962
 30
0.0
  0
POINT
  5
76
330
6C
100
AcDbEntity
  8
Defpoints
  6
Continuous
 62
     0
440
 16777216
390
6F
100
AcDbPoint
 10
477.5098319393499
 20
46.83047197062956
 30
0.0
  0
ENDBLK
  5
77
330
6C
100
AcDbEntity
  8
DIM
  6
Continuous
100
AcDbBlockEnd
  0
BLOCK
  5
7B
330
7A
100
AcDbEntity
  8
DIM
  6
Continuous
100
AcDbBlockBegin
  2
*D2
 70
     1
 10
0.0
 20
0.0
 30
0.0
  3
*D2
  1

  0
LINE
  5
7C
330
7A
100
AcDbEntity
  8
DIM
  6
Continuous
 62
     0
440
 16777216
370
    -2
390
6F
100
AcDbLine
 10
475.3348319393475
 20
45.0542719706271
 30
0.0
 11
475.3348319393475
 21
44.82647197062902
 31
0.0
  0
LINE
  5
7D
330
7A
100
AcDbEntity
  8
DIM
  6
Continuous
 62
     0
440
 16777216
370
    -2
390
6F
100
AcDbLine
 10
475.3348319393475
 20
44.82647197062902
 30
0.0
 11
475.0298356439045
 21
44.726471970629
 31
0.0
  0
LINE
  5
7E
330
7A
100
AcDbEntity
  8
DIM
  6
Continuous
 62
     0
440
 16777216
370
    -2
390
6F
100
AcDbLine
 10
475.0298356439045
 20
44.726471970629
 30
0.0
 11
475.0298356439045
 21
44.62647197062898
 31
0.0
  0
MTEXT
  5
7F
330
7A
100
AcDbEntity
  8
DIM
  6
Continuous
 62
     0
440
 16777216
390
6F
100
AcDbMText
 10
475.0298356439044
 20
44.16277197062908
 30
0.0
 40
0.075
 41
0.0
 46
0.0
 71
     5
 72
     1
  1
\A1;2.175MIN PLT
 11
0.0
 21
1.0
 31
0.0
 73
     1
 44
1.0
  0
POINT
  5
80
330
7A
100
AcDbEntity
  8
Defpoints
  6
Continuous
 62
     0
440
 16777216
390
6F
100
AcDbPoint
 10
475.3348319393474
 20
45.13047197062713
 30
0.0
  0
POINT
  5
81
330
7A
100
AcDbEntity
  8
Defpoints
  6
Continuous
 62
     0
440
 16777216
390
6F
100
AcDbPoint
 10
475.0298356439045
 20
44.62647197062898
 30
0.0
  0
POINT
  5
82
330
7A
100
AcDbEntity
  8
Defpoints
  6
Continuous
 62
     0
440
 16777216
390
6F
100
AcDbPoint
 10
477.5098319393493
 20
46.83047197062911
 30
0.0
  0
ENDBLK
  5
83
330
7A
100
AcDbEntity
  8
DIM
  6
Continuous
100
AcDbBlockEnd
  0
BLOCK
  5
86
330
85
100
AcDbEntity
  8
DIM
  6
Continuous
100
AcDbBlockBegin
  2
*D3
 70
     1
 10
0.0
 20
0.0
 30
0.0
  3
*D3
  1

  0
LINE
  5
87
330
85
100
AcDbEntity
  8
DIM
  6
Continuous
 62
     0
440
 16777216
370
    -2
390
6F
100
AcDbLine
 10
479.8522752712248
 20
46.10047197062704
 30
0.0
 11
480.0138319393473
 21
46.10047197062704
 31
0.0
  0
LINE
  5
88
330
85
100
AcDbEntity
  8
DIM
  6
Continuous
 62
     0
440
 16777216
370
    -2
390
6F
100
AcDbLine
 10
480.0138319393473
 20
46.10047197062704
 30
0.0
 11
480.1138319393473
 21
45.93992198682942
 31
0.0
  0
LINE
  5
89
330
85
100
AcDbEntity
  8
DIM
  6
Continuous
 62
     0
440
 16777216
370
    -2
390
6F
100
AcDbLine
 10
480.1138319393473
 20
45.93992198682942
 30
0.0
 11
480.2138319393473
 21
45.93992198682942
 31
0.0
  0
MTEXT
  5
8A
330
85
100
AcDbEntity
  8
DIM
  6
Continuous
 62
     0
440
 16777216
390
6F
100
AcDbMText
 10
480.7275319393474
 20
45.93992198682942
 30
0.0
 40
0.075
 41
0.0
 46
0.0
 71
     5
 72
     1
  1
\A1;0.730 MAX PLT
 73
     1
 44
1.0
  0
POINT
  5
8B
330
85
100
AcDbEntity
  8
Defpoints
  6
Continuous
 62
     0
440
 16777216
390
6F
100
AcDbPoint
 10
479.7760752712248
 20
46.10047197062704
 30
0.0
  0
POINT
  5
8C
330
85
100
AcDbEntity
  8
Defpoints
  6
Continuous
 62
     0
440
 16777216
390
6F
100
AcDbPoint
 10
480.2138319393473
 20
45.93992198682942
 30
0.0
  0
POINT
  5
8D
330
85
100
AcDbEntity
  8
Defpoints
  6
Continuous
 62
     0
440
 16777216
390
6F
100
AcDbPoint
 10
477.5098319393473
 20
46.83047197062717
 30
0.0
  0
ENDBLK
  5
8E
330
85
100
AcDbEntity
  8
DIM
  6
Continuous
100
AcDbBlockEnd
  0
BLOCK
  5
91
330
90
100
AcDbEntity
  8
DIM
  6
Continuous
100
AcDbBlockBegin
  2
*D4
 70
     1
 10
0.0
 20
0.0
 30
0.0
  3
*D4
  1

  0
LINE
  5
92
330
90
100
AcDbEntity
  8
DIM
  6
Continuous
 62
     0
440
 16777216
370
    -2
390
6F
100
AcDbLine
 10
479.7610319393472
 20
45.88047197062705
 30
0.0
 11
480.0138319393473
 21
45.88047197062705
 31
0.0
  0
LINE
  5
93
330
90
100
AcDbEntity
  8
DIM
  6
Continuous
 62
     0
440
 16777216
370
    -2
390
6F
100
AcDbLine
 10
480.0138319393473
 20
45.88047197062705
 30
0.0
 11
480.1138319393473
 21
45.72189734195114
 31
0.0
  0
LINE
  5
94
330
90
100
AcDbEntity
  8
DIM
  6
Continuous
 62
     0
440
 16777216
370
    -2
390
6F
100
AcDbLine
 10
480.1138319393473
 20
45.72189734195114
 30
0.0
 11
480.2138319393473
 21
45.72189734195114
 31
0.0
  0
MTEXT
  5
95
330
90
100
AcDbEntity
  8
DIM
  6
Continuous
 62
     0
440
 16777216
390
6F
100
AcDbMText
 10
480.7150319393473
 20
45.72189734195114
 30
0.0
 40
0.075
 41
0.0
 46
0.0
 71
     5
 72
     1
  1
\A1;0.950 MIN PLT
 73
     1
 44
1.0
  0
POINT
  5
96
330
90
100
AcDbEntity
  8
Defpoints
  6
Continuous
 62
     0
440
 16777216
390
6F
100
AcDbPoint
 10
479.6848319393472
 20
45.88047197062705
 30
0.0
  0
POINT
  5
97
330
90
100
AcDbEntity
  8
Defpoints
  6
Continuous
 62
     0
440
 16777216
390
6F
100
AcDbPoint
 10
480.2138319393473
 20
45.72189734195114
 30
0.0
  0
POINT
  5
98
330
90
100
AcDbEntity
  8
Defpoints
  6
Continuous
 62
     0
440
 16777216
390
6F
100
AcDbPoint
 10
477.5098319393473
 20
46.83047197062717
 30
0.0
  0
ENDBLK
  5
99
330
90
100
AcDbEntity
  8
DIM
  6
Continuous
100
AcDbBlockEnd
  0
BLOCK
  5
9C
330
9B
100
AcDbEntity
  8
DIM
  6
Continuous
100
AcDbBlockBegin
  2
*D5
 70
     1
 10
0.0
 20
0.0
 30
0.0
  3
*D5
  1

  0
LINE
  5
9D
330
9B
100
AcDbEntity
  8
DIM
  6
Continuous
 62
     0
440
 16777216
370
    -2
390
6F
100
AcDbLine
 10
479.9598319393473
 20
44.83427197062712
 30
0.0
 11
479.9598319393473
 21
44.81047197062707
 31
0.0
  0
LINE
  5
9E
330
9B
100
AcDbEntity
  8
DIM
  6
Continuous
 62
     0
440
 16777216
370
    -2
390
6F
100
AcDbLine
 10
479.9598319393473
 20
44.81047197062707
 30
0.0
 11
480.1714298680158
 21
44.72647197062991
 31
0.0
  0
LINE
  5
9F
330
9B
100
AcDbEntity
  8
DIM
  6
Continuous
 62
     0
440
 16777216
370
    -2
390
6F
100
AcDbLine
 10
480.1714298680158
 20
44.72647197062991
 30
0.0
 11
480.1714298680158
 21
44.62647197062989
 31
0.0
  0
MTEXT
  5
A0
330
9B
100
AcDbEntity
  8
DIM
  6
Continuous
 62
     0
440
 16777216
390
6F
100
AcDbMText
 10
480.1714298680158
 20
44.10652197062989
 30
0.0
 40
0.075
 41
0.0
 46
0.0
 71
     5
 72
     1
  1
\A1;2.450 MAX PLT
 11
0.0
 21
1.0
 31
0.0
 73
     1
 44
1.0
  0
POINT
  5
A1
330
9B
100
AcDbEntity
  8
Defpoints
  6
Continuous
 62
     0
440
 16777216
390
6F
100
AcDbPoint
 10
479.9598319393473
 20
44.91047197062712
 30
0.0
  0
POINT
  5
A2
330
9B
100
AcDbEntity
  8
Defpoints
  6
Continuous
 62
     0
440
 16777216
390
6F
100
AcDbPoint
 10
480.1714298680158
 20
44.62647197062989
 30
0.0
  0
POINT
  5
A3
330
9B
100
AcDbEntity
  8
Defpoints
  6
Continuous
 62
     0
440
 16777216
390
6F
100
AcDbPoint
 10
477.5098319393448
 20
46.83047197063001
 30
0.0
  0
ENDBLK
  5
A4
330
9B
100
AcDbEntity
  8
DIM
  6
Continuous
100
AcDbBlockEnd
  0
BLOCK
  5
A7
330
A6
100
AcDbEntity
  8
DIM
  6
Continuous
100
AcDbBlockBegin
  2
*D6
 70
     1
 10
0.0
 20
0.0
 30
0.0
  3
*D6
  1

  0
LINE
  5
A8
330
A6
100
AcDbEntity
  8
DIM
  6
Continuous
 62
     0
440
 16777216
370
    -2
390
6F
100
AcDbLine
 10
479.6848319393473
 20
45.0542719706271
 30
0.0
 11
479.6848319393473
 21
44.82647197062948
 31
0.0
  0
LINE
  5
A9
330
A6
100
AcDbEntity
  8
DIM
  6
Continuous
 62
     0
440
 16777216
370
    -2
390
6F
100
AcDbLine
 10
479.6848319393473
 20
44.82647197062948
 30
0.0
 11
479.9640320023447
 21
44.72647197062946
 31
0.0
  0
LINE
  5
AA
330
A6
100
AcDbEntity
  8
DIM
  6
Continuous
 62
     0
440
 16777216
370
    -2
390
6F
100
AcDbLine
 10
479.9640320023447
 20
44.72647197062946
 30
0.0
 11
479.9640320023447
 21
44.62647197062944
 31
0.0
  0
MTEXT
  5
AB
330
A6
100
AcDbEntity
  8
DIM
  6
Continuous
 62
     0
440
 16777216
390
6F
100
AcDbMText
 10
479.9640320023446
 20
44.12527197062951
 30
0.0
 40
0.075
 41
0.0
 46
0.0
 71
     5
 72
     1
  1
\A1;2.175 MIN PLT
 11
0.0
 21
1.0
 31
0.0
 73
     1
 44
1.0
  0
POINT
  5
AC
330
A6
100
AcDbEntity
  8
Defpoints
  6
Continuous
 62
     0
440
 16777216
390
6F
100
AcDbPoint
 10
479.6848319393472
 20
45.13047197062713
 30
0.0
  0
POINT
  5
AD
330
A6
100
AcDbEntity
  8
Defpoints
  6
Continuous
 62
     0
440
 16777216
390
6F
100
AcDbPoint
 10
479.9640320023446
 20
44.62647197062944
 30
0.0
  0
POINT
  5
AE
330
A6
100
AcDbEntity
  8
Defpoints
  6
Continuous
 62
     0
440
 16777216
390
6F
100
AcDbPoint
 10
477.5098319393452
 20
46.83047197062956
 30
0.0
  0
ENDBLK
  5
AF
330
A6
100
AcDbEntity
  8
DIM
  6
Continuous
100
AcDbBlockEnd
  0
BLOCK
  5
BA
330
B9
100
AcDbEntity
  8
DIM
  6
Continuous
100
AcDbBlockBegin
  2
*D7
 70
     1
 10
0.0
 20
0.0
 30
0.0
  3
*D7
  1

  0
LINE
  5
BB
330
B9
100
AcDbEntity
  8
PLATE
  6
Continuous
 62
     0
440
 16777216
370
    -2
390
6F
100
AcDbLine
 10
476.2293519393472
 20
48.28047197062713
 30
0.0
 11
475.754737486562
 21
48.28047197062713
 31
0.0
  0
LINE
  5
BC
330
B9
100
AcDbEntity
  8
PLATE
  6
Continuous
 62
     0
440
 16777216
370
    -2
390
6F
100
AcDbLine
 10
476.2293519393472
 20
48.53047197062711
 30
0.0
 11
475.754737486562
 21
48.53047197062711
 31
0.0
  0
LINE
  5
BD
330
B9
100
AcDbEntity
  8
PLATE
  6
Continuous
 62
     0
440
 16777216
370
    -2
390
6F
100
AcDbLine
 10
475.7852174865621
 20
48.6320719706271
 30
0.0
 11
475.7852174865621
 21
48.7336719706271
 31
0.0
  0
LINE
  5
BE
330
B9
100
AcDbEntity
  8
PLATE
  6
Continuous
 62
     0
440
 16777216
370
    -2
390
6F
100
AcDbLine
 10
475.7852174865621
 20
48.17887197062713
 30
0.0
 11
475.7852174865621
 21
48.07727197062714
 31
0.0
  0
SOLID
  5
BF
330
B9
100
AcDbEntity
  8
PLATE
  6
Continuous
 62
     0
440
 16777216
390
6F
100
AcDbTrace
 10
475.8021508198954
 20
48.17887197062713
 30
0.0
 11
475.7682841532287
 21
48.17887197062713
 31
0.0
 12
475.7852174865621
 22
48.28047197062713
 32
0.0
 13
475.7852174865621
 23
48.28047197062713
 33
0.0
  0
SOLID
  5
C0
330
B9
100
AcDbEntity
  8
PLATE
  6
Continuous
 62
     0
440
 16777216
390
6F
100
AcDbTrace
 10
475.7682841532287
 20
48.6320719706271
 30
0.0
 11
475.8021508198954
 21
48.6320719706271
 31
0.0
 12
475.7852174865621
 22
48.53047197062711
 32
0.0
 13
475.7852174865621
 23
48.53047197062711
 33
0.0
  0
MTEXT
  5
C1
330
B9
100
AcDbEntity
  8
PLATE
  6
Continuous
 62
     0
440
 16777216
390
6F
100
AcDbMText
 10
475.7852174865621
 20
49.08419197062713
 30
0.0
 40
0.07112
 41
0.0
 46
0.0
 71
     5
 72
     1
  1
\A1;0.250\P\Ftxt.shx|c1;min Ag are
 11
0.0
 21
1.0
 31
0.0
 73
     1
 44
1.0
  0
POINT
  5
C2
330
B9
100
AcDbEntity
  8
Defpoints
  6
Continuous
 62
     0
440
 16777216
390
6F
100
AcDbPoint
 10
476.2598319393473
 20
48.28047197062713
 30
0.0
  0
POINT
  5
C3
330
B9
100
AcDbEntity
  8
Defpoints
  6
Continuous
 62
     0
440
 16777216
390
6F
100
AcDbPoint
 10
476.2598319393473
 20
48.53047197062711
 30
0.0
  0
POINT
  5
C4
330
B9
100
AcDbEntity
  8
Defpoints
  6
Continuous
 62
     0
440
 16777216
390
6F
100
AcDbPoint
 10
475.7852174865621
 20
48.53047197062711
 30
0.0
  0
ENDBLK
  5
C5
330
B9
100
AcDbEntity
  8
DIM
  6
Continuous
100
AcDbBlockEnd
  0
BLOCK
  5
D1
330
D0
100
AcDbEntity
  8
DIM
  6
Continuous
100
AcDbBlockBegin
  2
*D8
 70
     1
 10
0.0
 20
0.0
 30
0.0
  3
*D8
  1

  0
LINE
  5
D2
330
D0
100
AcDbEntity
  8
PLATE
  6
Continuous
 62
     0
440
 16777216
370
    -2
390
6F
100
AcDbLine
 10
476.0098319393472
 20
48.04999197062713
 30
0.0
 11
476.0098319393472
 21
47.73792358130878
 31
0.0
  0
LINE
  5
D3
330
D0
100
AcDbEntity
  8
PLATE
  6
Continuous
 62
     0
440
 16777216
370
    -2
390
6F
100
AcDbLine
 10
479.0098319393473
 20
48.04999197062729
 30
0.0
 11
479.0098319393473
 21
47.73792358130878
 31
0.0
  0
LINE
  5
D4
330
D0
100
AcDbEntity
  8
PLATE
  6
Continuous
 62
     0
440
 16777216
370
    -2
390
6F
100
AcDbLine
 10
476.1114319393473
 20
47.76840358130878
 30
0.0
 11
477.1356052726806
 21
47.76840358130878
 31
0.0
  0
LINE
  5
D5
330
D0
100
AcDbEntity
  8
PLATE
  6
Continuous
 62
     0
440
 16777216
370
    -2
390
6F
100
AcDbLine
 10
478.9082319393473
 20
47.76840358130878
 30
0.0
 11
477.884058606014
 21
47.76840358130878
 31
0.0
  0
SOLID
  5
D6
330
D0
100
AcDbEntity
  8
PLATE
  6
Continuous
 62
     0
440
 16777216
390
6F
100
AcDbTrace
 10
476.1114319393473
 20
47.78533691464211
 30
0.0
 11
476.1114319393473
 21
47.75147024797544
 31
0.0
 12
476.0098319393472
 22
47.76840358130878
 32
0.0
 13
476.0098319393472
 23
47.76840358130878
 33
0.0
  0
SOLID
  5
D7
330
D0
100
AcDbEntity
  8
PLATE
  6
Continuous
 62
     0
440
 16777216
390
6F
100
AcDbTrace
 10
478.9082319393473
 20
47.75147024797544
 30
0.0
 11
478.9082319393473
 21
47.78533691464211
 31
0.0
 12
479.0098319393473
 22
47.76840358130878
 32
0.0
 13
479.0098319393473
 23
47.76840358130878
 33
0.0
  0
MTEXT
  5
D8
330
D0
100
AcDbEntity
  8
PLATE
  6
Continuous
 62
     0
440
 16777216
390
6F
100
AcDbMText
 10
477.5098319393473
 20
47.76840358130878
 30
0.0
 40
0.07112
 41
0.0
 46
0.0
 71
     5
 72
     1
  1
\A1;3.000\P\Ftxt.shx|c1;max Ag are
 73
     1
 44
1.0
  0
POINT
  5
D9
330
D0
100
AcDbEntity
  8
Defpoints
  6
Continuous
 62
     0
440
 16777216
390
6F
100
AcDbPoint
 10
476.0098319393472
 20
48.08047197062712
 30
0.0
  0
POINT
  5
DA
330
D0
100
AcDbEntity
  8
Defpoints
  6
Continuous
 62
     0
440
 16777216
390
6F
100
AcDbPoint
 10
479.0098319393473
 20
48.08047197062728
 30
0.0
  0
POINT
  5
DB
330
D0
100
AcDbEntity
  8
Defpoints
  6
Continuous
 62
     0
440
 16777216
390
6F
100
AcDbPoint
 10
479.0098319393473
 20
47.76840358130878
 30
0.0
  0
ENDBLK
  5
DC
330
D0
100
AcDbEntity
  8
DIM
  6
Continuous
100
AcDbBlockEnd
  0
BLOCK
  5
DF
330
DE
100
AcDbEntity
  8
DIM
  6
Continuous
100
AcDbBlockBegin
  2
*D9
 70
     1
 10
0.0
 20
0.0
 30
0.0
  3
*D9
  1

  0
LINE
  5
E0
330
DE
100
AcDbEntity
  8
PLATE
  6
Continuous
 62
     0
440
 16777216
370
    -2
390
6F
100
AcDbLine
 10
475.9793519393473
 20
48.08047197062728
 30
0.0
 11
475.5030802745154
 21
48.08047197062728
 31
0.0
  0
LINE
  5
E1
330
DE
100
AcDbEntity
  8
PLATE
  6
Continuous
 62
     0
440
 16777216
370
    -2
390
6F
100
AcDbLine
 10
475.9793519393473
 20
48.7504719706271
 30
0.0
 11
475.5030802745154
 21
48.7504719706271
 31
0.0
  0
LINE
  5
E2
330
DE
100
AcDbEntity
  8
PLATE
  6
Continuous
 62
     0
440
 16777216
370
    -2
390
6F
100
AcDbLine
 10
475.5335602745154
 20
48.7504719706271
 30
0.0
 11
475.5335602745154
 21
48.8520719706271
 31
0.0
  0
LINE
  5
E3
330
DE
100
AcDbEntity
  8
PLATE
  6
Continuous
 62
     0
440
 16777216
370
    -2
390
6F
100
AcDbLine
 10
475.5335602745154
 20
48.18207197062728
 30
0.0
 11
475.5335602745154
 21
48.6488719706271
 31
0.0
  0
SOLID
  5
E4
330
DE
100
AcDbEntity
  8
PLATE
  6
Continuous
 62
     0
440
 16777216
390
6F
100
AcDbTrace
 10
475.5166269411821
 20
48.18207197062728
 30
0.0
 11
475.5504936078487
 21
48.18207197062728
 31
0.0
 12
475.5335602745154
 22
48.08047197062728
 32
0.0
 13
475.5335602745154
 23
48.08047197062728
 33
0.0
  0
SOLID
  5
E5
330
DE
100
AcDbEntity
  8
PLATE
  6
Continuous
 62
     0
440
 16777216
390
6F
100
AcDbTrace
 10
475.5504936078487
 20
48.6488719706271
 30
0.0
 11
475.5166269411821
 21
48.6488719706271
 31
0.0
 12
475.5335602745154
 22
48.7504719706271
 32
0.0
 13
475.5335602745154
 23
48.7504719706271
 33
0.0
  0
MTEXT
  5
E6
330
DE
100
AcDbEntity
  8
PLATE
  6
Continuous
 62
     0
440
 16777216
390
6F
100
AcDbMText
 10
475.5335602745154
 20
49.22629863729379
 30
0.0
 40
0.07112
 41
0.0
 46
0.0
 71
     5
 72
     1
  1
\A1;0.670\P\Ftxt.shx|c1;max Ag are
 11
0.0
 21
1.0
 31
0.0
 73
     1
 44
1.0
  0
POINT
  5
E7
330
DE
100
AcDbEntity
  8
Defpoints
  6
Continuous
 62
     0
440
 16777216
390
6F
100
AcDbPoint
 10
476.0098319393472
 20
48.08047197062728
 30
0.0
  0
POINT
  5
E8
330
DE
100
AcDbEntity
  8
Defpoints
  6
Continuous
 62
     0
440
 16777216
390
6F
100
AcDbPoint
 10
476.0098319393472
 20
48.7504719706271
 30
0.0
  0
POINT
  5
E9
330
DE
100
AcDbEntity
  8
Defpoints
  6
Continuous
 62
     0
440
 16777216
390
6F
100
AcDbPoint
 10
475.5335602745154
 20
48.7504719706271
 30
0.0
  0
ENDBLK
  5
EA
330
DE
100
AcDbEntity
  8
DIM
  6
Continuous
100
AcDbBlockEnd
  0
BLOCK
  5
F5
330
F4
100
AcDbEntity
  8
DIM
  6
Continuous
100
AcDbBlockBegin
  2
*D10
 70
     1
 10
0.0
 20
0.0
 30
0.0
  3
*D10
  1

  0
LINE
  5
F6
330
F4
100
AcDbEntity
  8
PLATE
  6
Continuous
 62
     0
440
 16777216
370
    -2
390
6F
100
AcDbLine
 10
475.5098319393472
 20
47.30245197062838
 30
0.0
 11
475.5098319393472
 21
47.58711515068898
 31
0.0
  0
LINE
  5
F7
330
F4
100
AcDbEntity
  8
PLATE
  6
Continuous
 62
     0
440
 16777216
370
    -2
390
6F
100
AcDbLine
 10
475.9098319393472
 20
47.4774519706285
 30
0.0
 11
475.9098319393472
 21
47.58711515068898
 31
0.0
  0
LINE
  5
F8
330
F4
100
AcDbEntity
  8
PLATE
  6
Continuous
 62
     0
440
 16777216
370
    -2
390
6F
100
AcDbLine
 10
475.4082319393472
 20
47.55663515068898
 30
0.0
 11
475.3066319393473
 21
47.55663515068898
 31
0.0
  0
LINE
  5
F9
330
F4
100
AcDbEntity
  8
PLATE
  6
Continuous
 62
     0
440
 16777216
370
    -2
390
6F
100
AcDbLine
 10
476.0114319393473
 20
47.55663515068898
 30
0.0
 11
476.1130319393473
 21
47.55663515068898
 31
0.0
  0
SOLID
  5
FA
330
F4
100
AcDbEntity
  8
PLATE
  6
Continuous
 62
     0
440
 16777216
390
6F
100
AcDbTrace
 10
475.4082319393472
 20
47.53970181735565
 30
0.0
 11
475.4082319393472
 21
47.57356848402232
 31
0.0
 12
475.5098319393472
 22
47.55663515068898
 32
0.0
 13
475.5098319393472
 23
47.55663515068898
 33
0.0
  0
SOLID
  5
FB
330
F4
100
AcDbEntity
  8
PLATE
  6
Continuous
 62
     0
440
 16777216
390
6F
100
AcDbTrace
 10
476.0114319393473
 20
47.57356848402232
 30
0.0
 11
476.0114319393473
 21
47.53970181735565
 31
0.0
 12
475.9098319393472
 22
47.55663515068898
 32
0.0
 13
475.9098319393472
 23
47.55663515068898
 33
0.0
  0
MTEXT
  5
FC
330
F4
100
AcDbEntity
  8
PLATE
  6
Continuous
 62
     0
440
 16777216
390
6F
100
AcDbMText
 10
475.7098319393472
 20
47.55663515068898
 30
0.0
 40
0.07112
 41
0.0
 46
0.0
 71
     5
 72
     1
  1
\A1;0.400
 73
     1
 44
1.0
  0
POINT
  5
FD
330
F4
100
AcDbEntity
  8
Defpoints
  6
Continuous
 62
     0
440
 16777216
390
6F
100
AcDbPoint
 10
475.5098319393472
 20
47.27197197062838
 30
0.0
  0
POINT
  5
FE
330
F4
100
AcDbEntity
  8
Defpoints
  6
Continuous
 62
     0
440
 16777216
390
6F
100
AcDbPoint
 10
475.9098319393472
 20
47.4469719706285
 30
0.0
  0
POINT
  5
FF
330
F4
100
AcDbEntity
  8
Defpoints
  6
Continuous
 62
     0
440
 16777216
390
6F
100
AcDbPoint
 10
475.9098319393472
 20
47.55663515068898
 30
0.0
  0
ENDBLK
  5
100
330
F4
100
AcDbEntity
  8
DIM
  6
Continuous
100
AcDbBlockEnd
  0
BLOCK
  5
1D1
330
1D0
100
AcDbEntity
  8
DIM
  6
Continuous
100
AcDbBlockBegin
  2
*D11
 70
     1
 10
0.0
 20
0.0
 30
0.0
  3
*D11
  1

  0
LINE
  5
1D2
330
1D0
100
AcDbEntity
  8
PLATE
  6
Continuous
 62
     0
440
 16777216
370
    -2
390
6F
100
AcDbLine
 10
476.2598319393473
 20
48.24999197062713
 30
0.0
 11
476.2598319393473
 21
47.99372351844339
 31
0.0
  0
LINE
  5
1D3
330
1D0
100
AcDbEntity
  8
PLATE
  6
Continuous
 62
     0
440
 16777216
370
    -2
390
6F
100
AcDbLine
 10
478.7598319393473
 20
48.24999197062713
 30
0.0
 11
478.7598319393473
 21
47.99372351844339
 31
0.0
  0
LINE
  5
1D4
330
1D0
100
AcDbEntity
  8
PLATE
  6
Continuous
 62
     0
440
 16777216
370
    -2
390
6F
100
AcDbLine
 10
476.3614319393473
 20
48.02420351844339
 30
0.0
 11
477.1237519393473
 21
48.02420351844339
 31
0.0
  0
LINE
  5
1D5
330
1D0
100
AcDbEntity
  8
PLATE
  6
Continuous
 62
     0
440
 16777216
370
    -2
390
6F
100
AcDbLine
 10
478.6582319393473
 20
48.02420351844339
 30
0.0
 11
477.8959119393473
 21
48.02420351844339
 31
0.0
  0
SOLID
  5
1D6
330
1D0
100
AcDbEntity
  8
PLATE
  6
Continuous
 62
     0
440
 16777216
390
6F
100
AcDbTrace
 10
476.3614319393473
 20
48.04113685177672
 30
0.0
 11
476.3614319393473
 21
48.00727018511005
 31
0.0
 12
476.2598319393473
 22
48.02420351844339
 32
0.0
 13
476.2598319393473
 23
48.02420351844339
 33
0.0
  0
SOLID
  5
1D7
330
1D0
100
AcDbEntity
  8
PLATE
  6
Continuous
 62
     0
440
 16777216
390
6F
100
AcDbTrace
 10
478.6582319393473
 20
48.00727018511005
 30
0.0
 11
478.6582319393473
 21
48.04113685177672
 31
0.0
 12
478.7598319393473
 22
48.02420351844339
 32
0.0
 13
478.7598319393473
 23
48.02420351844339
 33
0.0
  0
MTEXT
  5
1D8
330
1D0
100
AcDbEntity
  8
PLATE
  6
Continuous
 62
     0
440
 16777216
390
6F
100
AcDbMText
 10
477.5098319393473
 20
48.02420351844339
 30
0.0
 40
0.07112
 41
0.0
 46
0.0
 71
     5
 72
     1
  1
\A1;2.500\Pmin Ag area
 73
     1
 44
1.0
  0
POINT
  5
1D9
330
1D0
100
AcDbEntity
  8
Defpoints
  6
Continuous
 62
     0
440
 16777216
390
6F
100
AcDbPoint
 10
476.2598319393473
 20
48.28047197062713
 30
0.0
  0
POINT
  5
1DA
330
1D0
100
AcDbEntity
  8
Defpoints
  6
Continuous
 62
     0
440
 16777216
390
6F
100
AcDbPoint
 10
478.7598319393473
 20
48.28047197062713
 30
0.0
  0
POINT
  5
1DB
330
1D0
100
AcDbEntity
  8
Defpoints
  6
Continuous
 62
     0
440
 16777216
390
6F
100
AcDbPoint
 10
478.7598319393473
 20
48.02420351844339
 30
0.0
  0
ENDBLK
  5
1DC
330
1D0
100
AcDbEntity
  8
DIM
  6
Continuous
100
AcDbBlockEnd
  0
BLOCK
  5
1DF
330
1DE
100
AcDbEntity
  8
DIM
  6
Continuous
100
AcDbBlockBegin
  2
*D12
 70
     1
 10
0.0
 20
0.0
 30
0.0
  3
*D12
  1

  0
LINE
  5
1E0
330
1DE
100
AcDbEntity
  8
DIM
  6
Continuous
 62
     0
440
 16777216
370
    -2
390
6F
100
AcDbLine
 10
479.0860319393473
 20
48.08047197062728
 30
0.0
 11
480.2622069059191
 21
48.08047197062728
 31
0.0
  0
MTEXT
  5
1E1
330
1DE
100
AcDbEntity
  8
DIM
  6
Continuous
 62
     0
440
 16777216
390
6F
100
AcDbMText
 10
480.7696569059191
 20
48.08047197062728
 30
0.0
 40
0.075
 41
0.0
 46
0.0
 71
     5
 72
     1
  1
\A1;1.250 MAX PLT
 73
     1
 44
1.0
  0
POINT
  5
1E2
330
1DE
100
AcDbEntity
  8
Defpoints
  6
Continuous
 62
     0
440
 16777216
390
6F
100
AcDbPoint
 10
479.0098319393473
 20
48.08047197062728
 30
0.0
  0
POINT
  5
1E3
330
1DE
100
AcDbEntity
  8
Defpoints
  6
Continuous
 62
     0
440
 16777216
390
6F
100
AcDbPoint
 10
480.2622069059191
 20
48.08047197062728
 30
0.0
  0
POINT
  5
1E4
330
1DE
100
AcDbEntity
  8
Defpoints
  6
Continuous
 62
     0
440
 16777216
390
6F
100
AcDbPoint
 10
477.5098319393473
 20
46.83047197062712
 30
0.0
  0
ENDBLK
  5
1E5
330
1DE
100
AcDbEntity
  8
DIM
  6
Continuous
100
AcDbBlockEnd
  0
BLOCK
  5
1E8
330
1E7
100
AcDbEntity
  8
DIM
  6
Continuous
100
AcDbBlockBegin
  2
*D13
 70
     1
 10
0.0
 20
0.0
 30
0.0
  3
*D13
  1

  0
ARC
  5
1E9
330
1E7
100
AcDbEntity
  8
PLATE
  6
Continuous
 62
     0
440
 16777216
370
    -2
390
6F
100
AcDbCircle
 10
478.8987049556253
 20
45.5804719706271
 30
0.0
 40
0.3124679927773601
100
AcDbArc
 50
63.71297211902842
 51
86.46265003553139
  0
ARC
  5
1EA
330
1E7
100
AcDbEntity
  8
PLATE
  6
Continuous
 62
     0
440
 16777216
370
    -2
390
6F
100
AcDbCircle
 10
478.8987049556253
 20
45.5804719706271
 30
0.0
 40
0.3124679927773601
100
AcDbArc
 50
138.5373499644376
 51
161.2870278809696
  0
SOLID
  5
1EB
330
1E7
100
AcDbEntity
  8
PLATE
  6
Continuous
 62
     0
440
 16777216
390
6F
100
AcDbTrace
 10
479.0272193599782
 20
45.84686560781043
 30
0.0
 11
479.0469548321816
 21
45.87438763985782
 31
0.0
 12
479.1196531922221
 22
45.80142020722371
 32
0.0
 13
479.1196531922221
 23
45.80142020722371
 33
0.0
  0
SOLID
  5
1EC
330
1E7
100
AcDbEntity
  8
PLATE
  6
Continuous
 62
     0
440
 16777216
390
6F
100
AcDbTrace
 10
478.5860466997924
 20
45.68347324041416
 30
0.0
 11
478.6194628015102
 21
45.67796731114643
 31
0.0
 12
478.586236962848
 22
45.5804719706271
 32
0.0
 13
478.586236962848
 23
45.5804719706271
 33
0.0
  0
MTEXT
  5
1ED
330
1E7
100
AcDbEntity
  8
PLATE
  6
Continuous
 62
     0
440
 16777216
390
6F
100
AcDbMText
 10
478.7791286316451
 20
45.86915475371898
 30
0.0
 40
0.07112
 41
0.0
 46
0.0
 71
     5
 72
     1
  1
\A1;135%%d
 11
0.9238795325113038
 21
0.3826834323650485
 31
0.0
 73
     1
 44
1.0
  0
POINT
  5
1EE
330
1E7
100
AcDbEntity
  8
Defpoints
  6
Continuous
 62
     0
440
 16777216
390
6F
100
AcDbPoint
 10
478.7300258963218
 20
45.84349976661601
 30
0.0
  0
POINT
  5
1EF
330
1E7
100
AcDbEntity
  8
Defpoints
  6
Continuous
 62
     0
440
 16777216
390
6F
100
AcDbPoint
 10
479.4187049556254
 20
46.10047197062704
 30
0.0
  0
POINT
  5
1F0
330
1E7
100
AcDbEntity
  8
Defpoints
  6
Continuous
 62
     0
440
 16777216
390
6F
100
AcDbPoint
 10
478.8987049556253
 20
45.5804719706271
 30
0.0
  0
POINT
  5
1F1
330
1E7
100
AcDbEntity
  8
Defpoints
  6
Continuous
 62
     0
440
 16777216
390
6F
100
AcDbPoint
 10
476.1209589230692
 20
45.5804719706271
 30
0.0
  0
POINT
  5
1F2
330
1E7
100
AcDbEntity
  8
Defpoints
  6
Continuous
 62
     0
440
 16777216
390
6F
100
AcDbPoint
 10
478.8987049556253
 20
45.5804719706271
 30
0.0
  0
ENDBLK
  5
1F3
330
1E7
100
AcDbEntity
  8
DIM
  6
Continuous
100
AcDbBlockEnd
  0
BLOCK
  5
1F6
330
1F5
100
AcDbEntity
  8
DIM
  6
Continuous
100
AcDbBlockBegin
  2
*D14
 70
     1
 10
0.0
 20
0.0
 30
0.0
  3
*D14
  1

  0
LINE
  5
1F7
330
1F5
100
AcDbEntity
  8
DIM
  6
Continuous
 62
     0
440
 16777216
370
    -2
390
6F
100
AcDbLine
 10
478.8360319393474
 20
48.53047197062711
 30
0.0
 11
480.2162044330559
 21
48.53047197062711
 31
0.0
  0
MTEXT
  5
1F8
330
1F5
100
AcDbEntity
  8
DIM
  6
Continuous
 62
     0
440
 16777216
390
6F
100
AcDbMText
 10
480.7049044330559
 20
48.53047197062711
 30
0.0
 40
0.075
 41
0.0
 46
0.0
 71
     5
 72
     1
  1
\A1;1.700 MIN PLT
 73
     1
 44
1.0
  0
POINT
  5
1F9
330
1F5
100
AcDbEntity
  8
Defpoints
  6
Continuous
 62
     0
440
 16777216
390
6F
100
AcDbPoint
 10
478.7598319393474
 20
48.53047197062711
 30
0.0
  0
POINT
  5
1FA
330
1F5
100
AcDbEntity
  8
Defpoints
  6
Continuous
 62
     0
440
 16777216
390
6F
100
AcDbPoint
 10
480.2162044330559
 20
48.53047197062711
 30
0.0
  0
POINT
  5
1FB
330
1F5
100
AcDbEntity
  8
Defpoints
  6
Continuous
 62
     0
440
 16777216
390
6F
100
AcDbPoint
 10
477.5098319393473
 20
46.83047197062712
 30
0.0
  0
ENDBLK
  5
1FC
330
1F5
100
AcDbEntity
  8
DIM
  6
Continuous
100
AcDbBlockEnd
  0
BLOCK
  5
1FF
330
1FE
100
AcDbEntity
  8
DIM
  6
Continuous
100
AcDbBlockBegin
  2
*D15
 70
     1
 10
0.0
 20
0.0
 30
0.0
  3
*D15
  1

  0
LINE
  5
200
330
1FE
100
AcDbEntity
  8
DIM
  6
Continuous
 62
     0
440
 16777216
370
    -2
390
6F
100
AcDbLine
 10
479.0860319393473
 20
48.7504719706271
 30
0.0
 11
480.2060035410883
 21
48.7504719706271
 31
0.0
  0
MTEXT
  5
201
330
1FE
100
AcDbEntity
  8
DIM
  6
Continuous
 62
     0
440
 16777216
390
6F
100
AcDbMText
 10
480.7134535410884
 20
48.7504719706271
 30
0.0
 40
0.075
 41
0.0
 46
0.0
 71
     5
 72
     1
  1
\A1;1.920 MAX PLT
 73
     1
 44
1.0
  0
POINT
  5
202
330
1FE
100
AcDbEntity
  8
Defpoints
  6
Continuous
 62
     0
440
 16777216
390
6F
100
AcDbPoint
 10
479.0098319393473
 20
48.7504719706271
 30
0.0
  0
POINT
  5
203
330
1FE
100
AcDbEntity
  8
Defpoints
  6
Continuous
 62
     0
440
 16777216
390
6F
100
AcDbPoint
 10
480.2060035410883
 20
48.7504719706271
 30
0.0
  0
POINT
  5
204
330
1FE
100
AcDbEntity
  8
Defpoints
  6
Continuous
 62
     0
440
 16777216
390
6F
100
AcDbPoint
 10
477.5098319393473
 20
46.83047197062712
 30
0.0
  0
ENDBLK
  5
205
330
1FE
100
AcDbEntity
  8
DIM
  6
Continuous
100
AcDbBlockEnd
  0
BLOCK
  5
208
330
207
100
AcDbEntity
  8
DIM
  6
Continuous
100
AcDbBlockBegin
  2
*D16
 70
     1
 10
0.0
 20
0.0
 30
0.0
  3
*D16
  1

  0
LINE
  5
209
330
207
100
AcDbEntity
  8
DIM
  6
Continuous
 62
     0
440
 16777216
370
    -2
390
6F
100
AcDbLine
 10
478.8360319393473
 20
48.28047197062713
 30
0.0
 11
480.238794278138
 21
48.28047197062713
 31
0.0
  0
MTEXT
  5
20A
330
207
100
AcDbEntity
  8
DIM
  6
Continuous
 62
     0
440
 16777216
390
6F
100
AcDbMText
 10
480.7337442781379
 20
48.28047197062713
 30
0.0
 40
0.075
 41
0.0
 46
0.0
 71
     5
 72
     1
  1
\A1;1.450 MIN PLT
 73
     1
 44
1.0
  0
POINT
  5
20B
330
207
100
AcDbEntity
  8
Defpoints
  6
Continuous
 62
     0
440
 16777216
390
6F
100
AcDbPoint
 10
478.7598319393473
 20
48.28047197062713
 30
0.0
  0
POINT
  5
20C
330
207
100
AcDbEntity
  8
Defpoints
  6
Continuous
 62
     0
440
 16777216
390
6F
100
AcDbPoint
 10
480.238794278138
 20
48.28047197062713
 30
0.0
  0
POINT
  5
20D
330
207
100
AcDbEntity
  8
Defpoints
  6
Continuous
 62
     0
440
 16777216
390
6F
100
AcDbPoint
 10
477.5098319393473
 20
46.83047197062712
 30
0.0
  0
ENDBLK
  5
20E
330
207
100
AcDbEntity
  8
DIM
  6
Continuous
100
AcDbBlockEnd
  0
BLOCK
  5
211
330
210
100
AcDbEntity
  8
DIM
  6
Continuous
100
AcDbBlockBegin
  2
*D17
 70
     1
 10
0.0
 20
0.0
 30
0.0
  3
*D17
  1

  0
LINE
  5
212
330
210
100
AcDbEntity
  8
DIM
  6
Continuous
 62
     0
440
 16777216
370
    -2
390
6F
100
AcDbLine
 10
478.7598319393474
 20
48.60667197062707
 30
0.0
 11
478.7598319393474
 21
49.05430032392832
 31
0.0
  0
MTEXT
  5
213
330
210
100
AcDbEntity
  8
DIM
  6
Continuous
 62
     0
440
 16777216
390
6F
100
AcDbMText
 10
478.7598319393474
 20
49.54925032392835
 30
0.0
 40
0.075
 41
0.0
 46
0.0
 71
     5
 72
     1
  1
\A1;1.250 MIN PLT
 11
0.0
 21
1.0
 31
0.0
 73
     1
 44
1.0
  0
POINT
  5
214
330
210
100
AcDbEntity
  8
Defpoints
  6
Continuous
 62
     0
440
 16777216
390
6F
100
AcDbPoint
 10
478.7598319393474
 20
48.53047197062711
 30
0.0
  0
POINT
  5
215
330
210
100
AcDbEntity
  8
Defpoints
  6
Continuous
 62
     0
440
 16777216
390
6F
100
AcDbPoint
 10
478.7598319393474
 20
49.05430032392835
 30
0.0
  0
POINT
  5
216
330
210
100
AcDbEntity
  8
Defpoints
  6
Continuous
 62
     0
440
 16777216
390
6F
100
AcDbPoint
 10
477.5098319393473
 20
46.83047197062712
 30
0.0
  0
ENDBLK
  5
217
330
210
100
AcDbEntity
  8
DIM
  6
Continuous
100
AcDbBlockEnd
  0
BLOCK
  5
21A
330
219
100
AcDbEntity
  8
DIM
  6
Continuous
100
AcDbBlockBegin
  2
*D18
 70
     1
 10
0.0
 20
0.0
 30
0.0
  3
*D18
  1

  0
LINE
  5
21B
330
219
100
AcDbEntity
  8
DIM
  6
Continuous
 62
     0
440
 16777216
370
    -2
390
6F
100
AcDbLine
 10
479.0098319393474
 20
48.82667197062705
 30
0.0
 11
479.0098319393474
 21
49.05430032392832
 31
0.0
  0
MTEXT
  5
21C
330
219
100
AcDbEntity
  8
DIM
  6
Continuous
 62
     0
440
 16777216
390
6F
100
AcDbMText
 10
479.0098319393473
 20
49.55550032392842
 30
0.0
 40
0.075
 41
0.0
 46
0.0
 71
     5
 72
     1
  1
\A1;1.500 MAX PLT
 11
0.0
 21
1.0
 31
0.0
 73
     1
 44
1.0
  0
POINT
  5
21D
330
219
100
AcDbEntity
  8
Defpoints
  6
Continuous
 62
     0
440
 16777216
390
6F
100
AcDbPoint
 10
479.0098319393473
 20
48.7504719706271
 30
0.0
  0
POINT
  5
21E
330
219
100
AcDbEntity
  8
Defpoints
  6
Continuous
 62
     0
440
 16777216
390
6F
100
AcDbPoint
 10
479.0098319393474
 20
49.05430032392835
 30
0.0
  0
POINT
  5
21F
330
219
100
AcDbEntity
  8
Defpoints
  6
Continuous
 62
     0
440
 16777216
390
6F
100
AcDbPoint
 10
477.5098319393473
 20
46.83047197062712
 30
0.0
  0
ENDBLK
  5
220
330
219
100
AcDbEntity
  8
DIM
  6
Continuous
100
AcDbBlockEnd
  0
BLOCK
  5
223
330
222
100
AcDbEntity
  8
DIM
  6
Continuous
100
AcDbBlockBegin
  2
*D19
 70
     1
 10
0.0
 20
0.0
 30
0.0
  3
*D19
  1

  0
LINE
  5
224
330
222
100
AcDbEntity
  8
DIM
  6
Continuous
 62
     0
440
 16777216
370
    -2
390
6F
100
AcDbLine
 10
476.2598319393474
 20
48.60667197062707
 30
0.0
 11
476.2598319393474
 21
49.05430032392832
 31
0.0
  0
MTEXT
  5
225
330
222
100
AcDbEntity
  8
DIM
  6
Continuous
 62
     0
440
 16777216
390
6F
100
AcDbMText
 10
476.2598319393472
 20
49.54925032392835
 30
0.0
 40
0.075
 41
0.0
 46
0.0
 71
     5
 72
     1
  1
\A1;1.250 MIN PLT
 11
0.0
 21
1.0
 31
0.0
 73
     1
 44
1.0
  0
POINT
  5
226
330
222
100
AcDbEntity
  8
Defpoints
  6
Continuous
 62
     0
440
 16777216
390
6F
100
AcDbPoint
 10
476.2598319393473
 20
48.53047197062711
 30
0.0
  0
POINT
  5
227
330
222
100
AcDbEntity
  8
Defpoints
  6
Continuous
 62
     0
440
 16777216
390
6F
100
AcDbPoint
 10
476.2598319393472
 20
49.05430032392835
 30
0.0
  0
POINT
  5
228
330
222
100
AcDbEntity
  8
Defpoints
  6
Continuous
 62
     0
440
 16777216
390
6F
100
AcDbPoint
 10
477.5098319393473
 20
46.83047197062712
 30
0.0
  0
ENDBLK
  5
229
330
222
100
AcDbEntity
  8
DIM
  6
Continuous
100
AcDbBlockEnd
  0
BLOCK
  5
22C
330
22B
100
AcDbEntity
  8
DIM
  6
Continuous
100
AcDbBlockBegin
  2
*D20
 70
     1
 10
0.0
 20
0.0
 30
0.0
  3
*D20
  1

  0
LINE
  5
22D
330
22B
100
AcDbEntity
  8
DIM
  6
Continuous
 62
     0
440
 16777216
370
    -2
390
6F
100
AcDbLine
 10
476.0098319393473
 20
48.82667197062705
 30
0.0
 11
476.0098319393473
 21
49.05430032392832
 31
0.0
  0
MTEXT
  5
22E
330
22B
100
AcDbEntity
  8
DIM
  6
Continuous
 62
     0
440
 16777216
390
6F
100
AcDbMText
 10
476.0098319393471
 20
49.55550032392842
 30
0.0
 40
0.075
 41
0.0
 46
0.0
 71
     5
 72
     1
  1
\A1;1.500 MAX PLT
 11
0.0
 21
1.0
 31
0.0
 73
     1
 44
1.0
  0
POINT
  5
22F
330
22B
100
AcDbEntity
  8
Defpoints
  6
Continuous
 62
     0
440
 16777216
390
6F
100
AcDbPoint
 10
476.0098319393472
 20
48.7504719706271
 30
0.0
  0
POINT
  5
230
330
22B
100
AcDbEntity
  8
Defpoints
  6
Continuous
 62
     0
440
 16777216
390
6F
100
AcDbPoint
 10
476.0098319393472
 20
49.05430032392835
 30
0.0
  0
POINT
  5
231
330
22B
100
AcDbEntity
  8
Defpoints
  6
Continuous
 62
     0
440
 16777216
390
6F
100
AcDbPoint
 10
477.5098319393473
 20
46.83047197062712
 30
0.0
  0
ENDBLK
  5
232
330
22B
100
AcDbEntity
  8
DIM
  6
Continuous
100
AcDbBlockEnd
  0
BLOCK
  5
235
330
234
100
AcDbEntity
  8
DIM
  6
Continuous
100
AcDbBlockBegin
  2
*D21
 70
     1
 10
0.0
 20
0.0
 30
0.0
  3
*D21
  1

  0
LINE
  5
236
330
234
100
AcDbEntity
  8
DIM
  6
Continuous
 62
     0
440
 16777216
370
    -2
390
6F
100
AcDbLine
 10
479.0860319393474
 20
45.38047197062709
 30
0.0
 11
480.2095622951042
 21
45.38047197062709
 31
0.0
  0
MTEXT
  5
237
330
234
100
AcDbEntity
  8
DIM
  6
Continuous
 62
     0
440
 16777216
390
6F
100
AcDbMText
 10
480.7045122951042
 20
45.38047197062709
 30
0.0
 40
0.075
 41
0.0
 46
0.0
 71
     5
 72
     1
  1
\A1;1.450 MIN PLT
 73
     1
 44
1.0
  0
POINT
  5
238
330
234
100
AcDbEntity
  8
Defpoints
  6
Continuous
 62
     0
440
 16777216
390
6F
100
AcDbPoint
 10
479.0098319393474
 20
45.38047197062709
 30
0.0
  0
POINT
  5
239
330
234
100
AcDbEntity
  8
Defpoints
  6
Continuous
 62
     0
440
 16777216
390
6F
100
AcDbPoint
 10
480.2095622951042
 20
45.38047197062709
 30
0.0
  0
POINT
  5
23A
330
234
100
AcDbEntity
  8
Defpoints
  6
Continuous
 62
     0
440
 16777216
390
6F
100
AcDbPoint
 10
477.5098319393473
 20
46.83047197062712
 30
0.0
  0
ENDBLK
  5
23B
330
234
100
AcDbEntity
  8
DIM
  6
Continuous
100
AcDbBlockEnd
  0
BLOCK
  5
23E
330
23D
100
AcDbEntity
  8
DIM
  6
Continuous
100
AcDbBlockBegin
  2
*D22
 70
     1
 10
0.0
 20
0.0
 30
0.0
  3
*D22
  1

  0
LINE
  5
23F
330
23D
100
AcDbEntity
  8
DIM
  6
Continuous
 62
     0
440
 16777216
370
    -2
390
6F
100
AcDbLine
 10
478.9749049556253
 20
45.58047197062705
 30
0.0
 11
480.2045071193511
 21
45.58047197062705
 31
0.0
  0
MTEXT
  5
240
330
23D
100
AcDbEntity
  8
DIM
  6
Continuous
 62
     0
440
 16777216
390
6F
100
AcDbMText
 10
480.7119571193511
 20
45.58047197062705
 30
0.0
 40
0.075
 41
0.0
 46
0.0
 71
     5
 72
     1
  1
\A1;1.250 MAX PLT
 73
     1
 44
1.0
  0
POINT
  5
241
330
23D
100
AcDbEntity
  8
Defpoints
  6
Continuous
 62
     0
440
 16777216
390
6F
100
AcDbPoint
 10
478.8987049556253
 20
45.58047197062705
 30
0.0
  0
POINT
  5
242
330
23D
100
AcDbEntity
  8
Defpoints
  6
Continuous
 62
     0
440
 16777216
390
6F
100
AcDbPoint
 10
480.2045071193511
 20
45.58047197062705
 30
0.0
  0
POINT
  5
243
330
23D
100
AcDbEntity
  8
Defpoints
  6
Continuous
 62
     0
440
 16777216
390
6F
100
AcDbPoint
 10
477.5098319393473
 20
46.83047197062712
 30
0.0
  0
ENDBLK
  5
244
330
23D
100
AcDbEntity
  8
DIM
  6
Continuous
100
AcDbBlockEnd
  0
BLOCK
  5
247
330
246
100
AcDbEntity
  8
DIM
  6
Continuous
100
AcDbBlockBegin
  2
*D23
 70
     1
 10
0.0
 20
0.0
 30
0.0
  3
*D23
  1

  0
LINE
  5
248
330
246
100
AcDbEntity
  8
DIM
  6
Continuous
 62
     0
440
 16777216
370
    -2
390
6F
100
AcDbLine
 10
479.0098319393474
 20
45.30427197062704
 30
0.0
 11
479.0098319393474
 21
44.53821524075175
 31
0.0
  0
MTEXT
  5
249
330
246
100
AcDbEntity
  8
DIM
  6
Continuous
 62
     0
440
 16777216
390
6F
100
AcDbMText
 10
479.0098319393473
 20
44.04951524075179
 30
0.0
 40
0.075
 41
0.0
 46
0.0
 71
     5
 72
     1
  1
\A1;1.500 MIN PLT
 11
0.0
 21
1.0
 31
0.0
 73
     1
 44
1.0
  0
POINT
  5
24A
330
246
100
AcDbEntity
  8
Defpoints
  6
Continuous
 62
     0
440
 16777216
390
6F
100
AcDbPoint
 10
479.0098319393473
 20
45.38047197062704
 30
0.0
  0
POINT
  5
24B
330
246
100
AcDbEntity
  8
Defpoints
  6
Continuous
 62
     0
440
 16777216
390
6F
100
AcDbPoint
 10
479.0098319393474
 20
44.53821524075176
 30
0.0
  0
POINT
  5
24C
330
246
100
AcDbEntity
  8
Defpoints
  6
Continuous
 62
     0
440
 16777216
390
6F
100
AcDbPoint
 10
477.5098319393473
 20
46.83047197062712
 30
0.0
  0
ENDBLK
  5
24D
330
246
100
AcDbEntity
  8
DIM
  6
Continuous
100
AcDbBlockEnd
  0
BLOCK
  5
250
330
24F
100
AcDbEntity
  8
DIM
  6
Continuous
100
AcDbBlockBegin
  2
*D24
 70
     1
 10
0.0
 20
0.0
 30
0.0
  3
*D24
  1

  0
LINE
  5
251
330
24F
100
AcDbEntity
  8
DIM
  6
Continuous
 62
     0
440
 16777216
370
    -2
390
6F
100
AcDbLine
 10
478.8987049556254
 20
45.50427197062709
 30
0.0
 11
478.8987049556254
 21
44.73462143351724
 31
0.0
  0
LINE
  5
252
330
24F
100
AcDbEntity
  8
DIM
  6
Continuous
 62
     0
440
 16777216
370
    -2
390
6F
100
AcDbLine
 10
478.8987049556254
 20
44.73462143351724
 30
0.0
 11
478.7570398139981
 21
44.63462143351722
 31
0.0
  0
LINE
  5
253
330
24F
100
AcDbEntity
  8
DIM
  6
Continuous
 62
     0
440
 16777216
370
    -2
390
6F
100
AcDbLine
 10
478.7570398139981
 20
44.63462143351722
 30
0.0
 11
478.7570398139981
 21
44.5346214335172
 31
0.0
  0
MTEXT
  5
254
330
24F
100
AcDbEntity
  8
DIM
  6
Continuous
 62
     0
440
 16777216
390
6F
100
AcDbMText
 10
478.7570398139979
 20
44.02092143351723
 30
0.0
 40
0.075
 41
0.0
 46
0.0
 71
     5
 72
     1
  1
\A1;1.389 MAX PLT
 11
0.0
 21
1.0
 31
0.0
 73
     1
 44
1.0
  0
POINT
  5
255
330
24F
100
AcDbEntity
  8
Defpoints
  6
Continuous
 62
     0
440
 16777216
390
6F
100
AcDbPoint
 10
478.8987049556253
 20
45.5804719706271
 30
0.0
  0
POINT
  5
256
330
24F
100
AcDbEntity
  8
Defpoints
  6
Continuous
 62
     0
440
 16777216
390
6F
100
AcDbPoint
 10
478.7570398139981
 20
44.5346214335172
 30
0.0
  0
POINT
  5
257
330
24F
100
AcDbEntity
  8
Defpoints
  6
Continuous
 62
     0
440
 16777216
390
6F
100
AcDbPoint
 10
477.5098319393473
 20
46.83047197062712
 30
0.0
  0
ENDBLK
  5
258
330
24F
100
AcDbEntity
  8
DIM
  6
Continuous
100
AcDbBlockEnd
  0
ENDSEC
  0
SECTION
  2
ENTITIES
  0
MTEXT
  5
65
102
{ACAD_XDICTIONARY
360
66
102
}
330
2
100
AcDbEntity
  8
TEXT
  6
Continuous
100
AcDbMText
 10
-0.9146867025831397
 20
-2.653876372246941
 30
0.0
 40
0.128625
 41
0.0064312500000018
 46
0.168883259425705
 71
     1
 72
     1
  1
\pxql;{\LSelective Ag\f|b0|i0|c134|p2;\Ftxt|c134;PRP)}
 73
     1
 44
1.0
1001
ACAD
1000
ACAD_MTEXT_DEFINED_HEIGHT_BEGIN
1070
    46
1040
0.168883259425705
1000
ACAD_MTEXT_DEFINED_HEIGHT_END
  0
DIMENSION
  5
6B
330
2
100
AcDbEntity
  8
DIM
  6
Continuous
 62
     1
100
AcDbDimension
280
     0
  2
*D1
 10
0.0000000000025011
 20
0.0000000000024443
 30
0.0
 11
-2.706554182623108
 21
-2.723949999997458
 31
0.0
 12
-477.5098319393473
 22
-46.83047197062712
 32
0.0
 70
    70
  1
<> MAX PLT
 71
     5
 42
2.450000000002489
 73
     0
 74
     0
 75
     0
  3
3DEC X 10
100
AcDbOrdinateDimension
 13
-2.449999999999988
 23
-1.919999999999987
 33
0.0
 14
-2.706554182623108
 24
-2.203999999997485
 34
0.0
1001
ACAD
1000
DSTYLE
1002
{
1070
    41
1040
0.5
1070
   140
1040
0.75
1002
}
1001
ACAD_DSTYLE_DIMINSPECT
1070
   393
1070
     0
1070
   394
1070
     0
1070
   395
1000

1070
   396
1000

  0
DIMENSION
  5
79
330
2
100
AcDbEntity
  8
DIM
  6
Continuous
 62
     1
100
AcDbDimension
280
     0
  2
*D2
 10
0.0000000000020464
 20
0.0000000000019895
 30
0.0
 11
-2.479996295442902
 21
-2.667699999998035
 31
0.0
 12
-477.5098319393473
 22
-46.83047197062712
 32
0.0
 70
    70
  1
<>MIN PLT
 71
     5
 42
2.175000000001944
 73
     0
 74
     0
 75
     0
  3
3DEC X 10
100
AcDbOrdinateDimension
 13
-2.174999999999897
 23
-1.699999999999988
 33
0.0
 14
-2.479996295442845
 24
-2.203999999998131
 34
0.0
1001
ACAD
1000
DSTYLE
1002
{
1070
    41
1040
0.5
1070
   140
1040
0.75
1002
}
1001
ACAD_DSTYLE_DIMINSPECT
1070
   393
1070
     0
1070
   394
1070
     0
1070
   395
1000

1070
   396
1000

  0
DIMENSION
  5
84
330
2
100
AcDbEntity
  8
DIM
  6
Continuous
 62
     1
100
AcDbDimension
280
     0
  2
*D3
 10
0.0
 20
0.0000000000000568
 30
0.0
 11
3.217700000000036
 21
-0.8905499837976975
 31
0.0
 12
-477.5098319393473
 22
-46.83047197062712
 32
0.0
 70
     6
  1
<> MAX PLT
 71
     5
 42
0.7300000000001248
 73
     0
 74
     0
 75
     0
  3
3DEC X 10
100
AcDbOrdinateDimension
 13
2.26624333187749
 23
-0.730000000000068
 33
0.0
 14
2.704000000000007
 24
-0.8905499837976975
 34
0.0
1001
ACAD
1000
DSTYLE
1002
{
1070
    41
1040
0.5
1070
   140
1040
0.75
1002
}
1001
ACAD_DSTYLE_DIMINSPECT
1070
   393
1070
     0
1070
   394
1070
     0
1070
   395
1000

1070
   396
1000

  0
DIMENSION
  5
8F
330
2
100
AcDbEntity
  8
DIM
  6
Continuous
 62
     1
100
AcDbDimension
280
     0
  2
*D4
 10
0.0
 20
0.0000000000000568
 30
0.0
 11
3.20519999999999
 21
-1.108574628675974
 31
0.0
 12
-477.5098319393473
 22
-46.83047197062712
 32
0.0
 70
     6
  1
<> MIN PLT
 71
     5
 42
0.9500000000001236
 73
     0
 74
     0
 75
     0
  3
3DEC X 10
100
AcDbOrdinateDimension
 13
2.174999999999897
 23
-0.9500000000000667
 33
0.0
 14
2.704000000000007
 24
-1.108574628675974
 34
0.0
1001
ACAD
1000
DSTYLE
1002
{
1070
    41
1040
0.5
1070
   140
1040
0.75
1002
}
1001
ACAD_DSTYLE_DIMINSPECT
1070
   393
1070
     0
1070
   394
1070
     0
1070
   395
1000

1070
   396
1000

  0
DIMENSION
  5
9A
330
2
100
AcDbEntity
  8
DIM
  6
Continuous
 62
     1
100
AcDbDimension
280
     0
  2
*D5
 10
-0.0000000000025011
 20
0.000000000002899
 30
0.0
 11
2.66159792866847
 21
-2.723949999997216
 31
0.0
 12
-477.5098319393473
 22
-46.83047197062712
 32
0.0
 70
    70
  1
<> MAX PLT
 71
     5
 42
2.450000000002489
 73
     0
 74
     0
 75
     0
  3
3DEC X 10
100
AcDbOrdinateDimension
 13
2.449999999999988
 23
-1.919999999999987
 33
0.0
 14
2.66159792866847
 24
-2.203999999997222
 34
0.0
1001
ACAD
1000
DSTYLE
1002
{
1070
    41
1040
0.5
1070
   140
1040
0.75
1002
}
1001
ACAD_DSTYLE_DIMINSPECT
1070
   393
1070
     0
1070
   394
1070
     0
1070
   395
1000

1070
   396
1000

  0
DIMENSION
  5
A5
330
2
100
AcDbEntity
  8
DIM
  6
Continuous
 62
     1
100
AcDbDimension
280
     0
  2
*D6
 10
-0.0000000000020464
 20
0.0000000000024443
 30
0.0
 11
2.454200062997301
 21
-2.705199999997603
 31
0.0
 12
-477.5098319393473
 22
-46.83047197062712
 32
0.0
 70
    70
  1
<> MIN PLT
 71
     5
 42
2.175000000001944
 73
     0
 74
     0
 75
     0
  3
3DEC X 10
100
AcDbOrdinateDimension
 13
2.174999999999897
 23
-1.699999999999988
 33
0.0
 14
2.454200062997358
 24
-2.203999999997677
 34
0.0
1001
ACAD
1000
DSTYLE
1002
{
1070
   340
1005
1D
1070
    41
1040
0.5
1070
   140
1040
0.75
1002
}
1001
ACAD_DSTYLE_DIMINSPECT
1070
   393
1070
     0
1070
   394
1070
     0
1070
   395
1000

1070
   396
1000

  0
LINE
  5
B0
330
2
100
AcDbEntity
  8
DIM
  6
Continuous
 62
     1
100
AcDbLine
 10
-2.665715241905957
 20
0.8806943139698546
 30
0.0
 11
-2.006717824322834
 21
0.4958271163787345
 31
0.0
  0
MTEXT
  5
B1
330
2
100
AcDbEntity
  8
DIM
  6
Continuous
 62
     1
100
AcDbMText
 10
-2.927454209667359
 20
1.033554917569915
 30
0.0
 40
0.07112
 41
0.0
 46
0.0
 71
     5
 72
     1
  1
\A1;{\Ftxt|c134;D/S MARK}
 11
0.8635209863239284
 21
-0.5043129050283662
 31
0.0
 73
     1
 44
1.0
  0
SOLID
  5
B2
330
2
100
AcDbEntity
  8
DIM
  6
Continuous
 62
     1
100
AcDbTrace
 10
-1.998178125797664
 20
0.5104494050804647
 30
0.0
 11
-2.015257522847946
 21
0.4812048276768906
 31
0.0
 12
-1.918984092112339
 22
0.4445889252279472
 32
0.0
 13
-1.918984092112339
 23
0.4445889252279472
 33
0.0
  0
MTEXT
  5
B4
330
2
100
AcDbEntity
  8
DIM
  6
Continuous
 62
     1
100
AcDbMText
 10
-2.935365873741886
 20
0.9110715382236662
 30
0.0
 40
0.07112
 41
0.0
 46
0.0
 71
     5
 72
     1
  1
\A1;{\Ftxt|c134;DEPTH<=0.0127}
 11
0.8635209863239284
 21
-0.5043129050283662
 31
0.0
 73
     1
 44
1.0
  0
DIMENSION
  5
B5
330
2
100
AcDbEntity
  8
PLATE
  6
Continuous
 62
     1
100
AcDbDimension
280
     0
  2
*D7
 10
-1.72461445278526
 20
1.699999999999988
 30
0.0
 11
-1.72461445278526
 21
2.253720000000008
 31
0.0
 12
-477.5098319393473
 22
-46.83047197062712
 32
0.0
  1
<>\P\Ftxt.shx|c1;min Ag are
 71
     5
 42
0.2499999999999716
 73
     0
 74
     0
 75
     0
  3
3DEC X 25
100
AcDbAlignedDimension
 13
-1.250000000000056
 23
1.450000000000017
 33
0.0
 14
-1.250000000000056
 24
1.699999999999988
 34
0.0
 50
90.0
100
AcDbRotatedDimension
1001
ACAD_DSTYLE_DIMINSPECT
1070
   393
1070
     0
1070
   394
1070
     0
1070
   395
1000

1070
   396
1000

1001
ACAD
1000
DSTYLE
1002
{
1070
   340
1005
1D
1002
}
  0
LINE
  5
C7
330
2
100
AcDbEntity
  8
PLATE
  6
Continuous
 62
     1
100
AcDbLine
 10
-2.000000000000113
 20
-0.4956574449707319
 30
0.0
 11
-1.879157444969564
 21
-0.6165000000012811
 31
0.0
1001
GradientColor1ACI
1070
     5
1001
GradientColor2ACI
1070
     2
1001
ACAD
1010
0.0
1020
0.0
1030
0.0
  0
LINE
  5
CA
330
2
100
AcDbEntity
  8
PLATE
  6
Continuous
 62
     1
100
AcDbLine
 10
-2.000000000000113
 20
-0.4072690973223985
 30
0.0
 11
-1.790769097321231
 21
-0.6165000000012526
 31
0.0
1001
GradientColor1ACI
1070
     5
1001
GradientColor2ACI
1070
     2
1001
ACAD
1010
0.0
1020
0.0
1030
0.0
  0
LINE
  5
CB
330
2
100
AcDbEntity
  8
PLATE
  6
Continuous
 62
     1
100
AcDbLine
 10
-1.787215706727977
 20
-0.2665000000012014
 30
0.0
 11
-1.700000000000102
 21
-0.3537157067290622
 31
0.0
1001
GradientColor1ACI
1070
     5
1001
GradientColor2ACI
1070
     2
1001
ACAD
1010
0.0
1020
0.0
1030
0.0
  0
LINE
  5
CC
330
2
100
AcDbEntity
  8
PLATE
  6
Continuous
 62
     1
100
AcDbLine
 10
2.000000000000113
 20
0.4956574449708456
 30
0.0
 11
1.879157444969564
 21
0.6165000000013947
 31
0.0
1001
GradientColor1ACI
1070
     5
1001
GradientColor2ACI
1070
     2
1001
ACAD
1010
0.0
1020
0.0
1030
0.0
  0
LINE
  5
CD
330
2
100
AcDbEntity
  8
PLATE
  6
Continuous
 62
     1
100
AcDbLine
 10
2.000000000000113
 20
0.4072690973225122
 30
0.0
 11
1.790769097321231
 21
0.6165000000013663
 31
0.0
1001
GradientColor1ACI
1070
     5
1001
GradientColor2ACI
1070
     2
1001
ACAD
1010
0.0
1020
0.0
1030
0.0
  0
LINE
  5
CE
330
2
100
AcDbEntity
  8
PLATE
  6
Continuous
 62
     1
100
AcDbLine
 10
2.000000000000113
 20
-0.4956574449707319
 30
0.0
 11
1.879157444969564
 21
-0.6165000000012811
 31
0.0
1001
GradientColor1ACI
1070
     5
1001
GradientColor2ACI
1070
     2
1001
ACAD
1010
0.0
1020
0.0
1030
0.0
  0
DIMENSION
  5
CF
330
2
100
AcDbEntity
  8
PLATE
  6
Continuous
 62
     1
100
AcDbDimension
280
     0
  2
*D8
 10
1.500000000000056
 20
0.9379316106816659
 30
0.0
 11
0.0
 21
0.9379316106816659
 31
0.0
 12
-477.5098319393473
 22
-46.83047197062712
 32
0.0
  1
<>\P\Ftxt.shx|c1;max Ag are
 71
     5
 42
3.000000000000113
 73
     0
 74
     0
 75
     0
  3
3DEC X 25
100
AcDbAlignedDimension
 13
-1.500000000000056
 23
1.250000000000014
 33
0.0
 14
1.500000000000056
 24
1.25000000000017
 34
0.0
100
AcDbRotatedDimension
1001
ACAD_DSTYLE_DIMINSPECT
1070
   393
1070
     0
1070
   394
1070
     0
1070
   395
1000

1070
   396
1000

1001
ACAD
1000
DSTYLE
1002
{
1070
   340
1005
1D
1002
}
  0
DIMENSION
  5
DD
330
2
100
AcDbEntity
  8
PLATE
  6
Continuous
 62
     1
100
AcDbDimension
280
     0
  2
*D9
 10
-1.97627166483187
 20
1.919999999999987
 30
0.0
 11
-1.97627166483187
 21
2.395826666666671
 31
0.0
 12
-477.5098319393473
 22
-46.83047197062712
 32
0.0
  1
<>\P\Ftxt.shx|c1;max Ag are
 71
     5
 42
0.669999999999817
 73
     0
 74
     0
 75
     0
  3
3DEC X 25
100
AcDbAlignedDimension
 13
-1.500000000000056
 23
1.25000000000017
 33
0.0
 14
-1.500000000000056
 24
1.919999999999987
 34
0.0
 50
90.0
100
AcDbRotatedDimension
1001
ACAD_DSTYLE_DIMINSPECT
1070
   393
1070
     0
1070
   394
1070
     0
1070
   395
1000

1070
   396
1000

1001
ACAD
1000
DSTYLE
1002
{
1070
   340
1005
1D
1002
}
  0
MTEXT
  5
EB
102
{ACAD_XDICTIONARY
360
EC
102
}
330
2
100
AcDbEntity
  8
0
  6
Continuous
 62
     1
100
AcDbMText
 10
-1.963403238717887
 20
3.308128521124118
 30
0.0
 40
0.08
 41
0.0064312500000018
 46
0.168883259425705
 71
     1
 72
     1
  1
\pxql;{\Ftxt|c134;\Lother d/s tool mark on tie bar only with depth <=0.030}
 73
     1
 44
1.0
1001
ACAD
1000
ACAD_MTEXT_DEFINED_HEIGHT_BEGIN
1070
    46
1040
0.168883259425705
1000
ACAD_MTEXT_DEFINED_HEIGHT_END
  0
HATCH
  5
EE
330
2
100
AcDbEntity
  8
PLATE
  6
Continuous
 62
     1
100
AcDbHatch
 10
0.0
 20
0.0
 30
0.0
210
0.0
220
0.0
230
1.0
  2
ANSI31
 70
     0
 71
     0
 91
        4
 92
        7
 72
     1
 73
     1
 93
        6
 10
-1.600000000000079
 20
0.6165000000013947
 42
0.0
 10
-1.903175416344936
 20
0.6165000000013947
 42
-0.3419987131197388
 10
-2.000000000000056
 20
0.5415000000012356
 42
0.0
 10
-2.000000000000056
 20
0.3415000000013038
 42
-0.3419987131195697
 10
-1.903175416344879
 20
0.2665000000012583
 42
0.0
 10
-1.600000000000079
 20
0.2665000000012583
 42
0.0
 97
        0
 92
        7
 72
     1
 73
     1
 93
        8
 10
-1.600000000000079
 20
-0.3000000000000114
 42
0.0
 10
-1.624999999999772
 20
-0.3000000000000114
 42
-0.2512012139831203
 10
-1.687471993724216
 20
-0.2665000000011446
 42
0.0
 10
-1.903175416344936
 20
-0.2665000000011446
 42
-0.3419987131194108
 10
-2.000000000000056
 20
-0.3415000000011901
 42
0.0
 10
-2.000000000000056
 20
-0.5415000000011219
 42
-0.3419987131198975
 10
-1.903175416344879
 20
-0.6165000000012811
 42
0.0
 10
-1.600000000000079
 20
-0.6165000000012811
 42
0.0
 97
        0
 92
        7
 72
     1
 73
     1
 93
        6
 10
2.000000000000056
 20
0.5415000000012356
 42
-0.341998713119897
 10
1.903175416344879
 20
0.6165000000013947
 42
0.0
 10
1.600000000000079
 20
0.6165000000013947
 42
0.0
 10
1.600000000000079
 20
0.2665000000012583
 42
0.0
 10
1.903175416344936
 20
0.2665000000012583
 42
-0.3419987131194105
 10
2.000000000000056
 20
0.3415000000013038
 42
0.0
 97
        0
 92
        7
 72
     1
 73
     1
 93
        8
 10
2.000000000000056
 20
-0.3415000000011901
 42
-0.3419987131195692
 10
1.903175416344879
 20
-0.2665000000011446
 42
0.0
 10
1.687471993724614
 20
-0.2665000000011446
 42
-0.2512012139832216
 10
1.625000000000113
 20
-0.3000000000000114
 42
0.0
 10
1.600000000000079
 20
-0.3000000000000114
 42
0.0
 10
1.600000000000079
 20
-0.6165000000012811
 42
0.0
 10
1.903175416344936
 20
-0.6165000000012811
 42
-0.3419987131197383
 10
2.000000000000056
 20
-0.5415000000011219
 42
0.0
 97
        0
 75
     1
 76
     1
 52
0.0
 41
0.5
 77
     0
 78
     1
 53
45.0
 43
0.0
 44
-477.0111285471574
 45
-0.0441941738241592
 46
0.0441941738241592
 79
     0
 47
0.0061498288663309
 98
        4
 10
-1.78617242290511
 20
0.4848626174680817
 10
-1.71233461292013
 20
-0.4745100454628642
 10
1.739744264884393
 20
0.4602640062412889
 10
1.795125913414267
 20
-0.480659698269335
1001
GradientColor1ACI
1070
     5
1001
GradientColor2ACI
1070
     2
1001
ACAD
1010
0.0
1020
0.0
1030
0.0
  0
LWPOLYLINE
  5
EF
330
2
100
AcDbEntity
  8
PLATE
  6
Continuous
 62
     1
100
AcDbPolyline
 90
        4
 70
     0
 43
0.0
 10
-1.903175416344936
 20
0.6165000000013947
 10
-1.600000000000079
 20
0.6165000000013947
 10
-1.600000000000079
 20
0.2665000000012583
 10
-1.903175416344993
 20
0.2665000000012583
  0
LWPOLYLINE
  5
F0
330
2
100
AcDbEntity
  8
PLATE
  6
Continuous
 62
     1
100
AcDbPolyline
 90
        4
 70
     0
 43
0.0
 10
1.903175416344936
 20
0.6165000000013947
 10
1.600000000000079
 20
0.6165000000013947
 10
1.600000000000079
 20
0.2665000000012583
 10
1.903175416344993
 20
0.2665000000012583
  0
LWPOLYLINE
  5
F1
330
2
100
AcDbEntity
  8
PLATE
  6
Continuous
 62
     1
100
AcDbPolyline
 90
        4
 70
     0
 43
0.0
 10
-1.903175416344936
 20
-0.6165000000012811
 10
-1.600000000000079
 20
-0.6165000000012811
 10
-1.600000000000079
 20
-0.2665000000011446
 10
-1.903175416344993
 20
-0.2665000000011446
  0
LWPOLYLINE
  5
F2
330
2
100
AcDbEntity
  8
PLATE
  6
Continuous
 62
     1
100
AcDbPolyline
 90
        4
 70
     0
 43
0.0
 10
1.903175416344936
 20
-0.6165000000012811
 10
1.600000000000079
 20
-0.6165000000012811
 10
1.600000000000079
 20
-0.2665000000011446
 10
1.903175416344993
 20
-0.2665000000011446
  0
DIMENSION
  5
F3
330
2
100
AcDbEntity
  8
PLATE
  6
Continuous
 62
     1
100
AcDbDimension
280
     0
  2
*D10
 10
-1.600000000000079
 20
0.7261631800618745
 30
0.0
 11
-1.800000000000068
 21
0.7261631800618745
 31
0.0
 12
-477.5098319393473
 22
-46.83047197062712
 32
0.0
 71
     5
 42
0.3999999999999773
 73
     0
 74
     0
 75
     0
  3
3DEC X 25
100
AcDbAlignedDimension
 13
-2.000000000000056
 23
0.4415000000012697
 33
0.0
 14
-1.600000000000079
 24
0.6165000000013947
 34
0.0
100
AcDbRotatedDimension
1001
ACAD_DSTYLE_DIMINSPECT
1070
   393
1070
     0
1070
   394
1070
     0
1070
   395
1000

1070
   396
1000

  0
INSERT
  5
101
330
2
100
AcDbEntity
  8
DIM
  6
Continuous
100
AcDbBlockReference
  2
UNIT
 10
-405.8139852879863
 20
-136.8024158427016
 30
0.0
  0
HATCH
  5
1CA
330
2
100
AcDbEntity
  8
PLATE
  6
Continuous
100
AcDbHatch
 10
0.0
 20
0.0
 30
0.0
210
0.0
220
0.0
230
1.0
  2
ANSI31
 70
     0
 71
     0
 91
       14
 92
        7
 72
     0
 73
     1
 93
        4
 10
-0.4250000000000683
 20
1.699999999999988
 10
-1.250000000000056
 20
1.699999999999988
 10
-1.250000000000056
 20
1.450000000000017
 10
-0.4250000000000683
 20
1.450000000000017
 97
        0
 92
        7
 72
     0
 73
     1
 93
        4
 10
0.0
 20
1.699999999999988
 10
-0.224999999999909
 20
1.699999999999988
 10
-0.224999999999909
 20
1.450000000000017
 10
0.0
 20
1.450000000000017
 97
        0
 92
        7
 72
     0
 73
     1
 93
        4
 10
0.2249999999999659
 20
1.699999999999988
 10
0.0
 20
1.699999999999988
 10
0.0
 20
1.450000000000017
 10
0.2249999999999659
 20
1.450000000000017
 97
        0
 92
        7
 72
     0
 73
     1
 93
        4
 10
1.250000000000056
 20
1.699999999999988
 10
0.4250000000000683
 20
1.699999999999988
 10
0.4250000000000683
 20
1.450000000000017
 10
1.25
 20
1.450000000000017
 97
        0
 92
        7
 72
     0
 73
     1
 93
        5
 10
-1.725000000000022
 20
-1.450000000000017
 10
-2.174999999999897
 20
-1.450000000000017
 10
-2.174999999999897
 20
-1.699999999999988
 10
-2.074999999999931
 20
-1.699999999999988
 10
-1.725000000000022
 20
-1.699999999999988
 97
        0
 92
        7
 72
     0
 73
     1
 93
        5
 10
-1.075000000000045
 20
-1.450000000000017
 10
-1.52499999999992
 20
-1.450000000000017
 10
-1.52499999999992
 20
-1.699999999999988
 10
-1.424999999999954
 20
-1.699999999999988
 10
-1.075000000000045
 20
-1.699999999999988
 97
        0
 92
        7
 72
     0
 73
     1
 93
        5
 10
-0.4250000000000683
 20
-1.450000000000017
 10
-0.8749999999999431
 20
-1.450000000000017
 10
-0.8749999999999431
 20
-1.699999999999988
 10
-0.7749999999999773
 20
-1.699999999999988
 10
-0.4250000000000683
 20
-1.699999999999988
 97
        0
 92
        7
 72
     0
 73
     1
 93
        5
 10
0.0
 20
-1.450000000000073
 10
-0.2249999999999659
 20
-1.450000000000073
 10
-0.2249999999999659
 20
-1.699999999999988
 10
-0.125
 20
-1.699999999999988
 10
0.0
 20
-1.699999999999988
 97
        0
 92
        7
 72
     0
 73
     1
 93
        4
 10
0.224999999999909
 20
-1.450000000000073
 10
0.0
 20
-1.450000000000073
 10
0.0
 20
-1.699999999999988
 10
0.224999999999909
 20
-1.699999999999988
 97
        0
 92
        7
 72
     0
 73
     1
 93
        5
 10
0.8749999999999431
 20
-1.450000000000073
 10
0.4250000000000683
 20
-1.450000000000073
 10
0.4250000000000683
 20
-1.699999999999988
 10
0.5249999999999773
 20
-1.699999999999988
 10
0.8749999999999431
 20
-1.699999999999988
 97
        0
 92
        7
 72
     0
 73
     1
 93
        5
 10
1.52499999999992
 20
-1.450000000000073
 10
1.075000000000045
 20
-1.450000000000073
 10
1.075000000000045
 20
-1.699999999999988
 10
1.174999999999954
 20
-1.699999999999988
 10
1.52499999999992
 20
-1.699999999999988
 97
        0
 92
        7
 72
     0
 73
     1
 93
        5
 10
2.174999999999897
 20
-1.450000000000073
 10
1.725000000000022
 20
-1.450000000000073
 10
1.725000000000022
 20
-1.699999999999988
 10
1.824999999999931
 20
-1.699999999999988
 10
2.174999999999897
 20
-1.699999999999988
 97
        0
 92
        7
 72
     1
 73
     1
 93
        4
 10
2.00000000000017
 20
-0.9499999999999531
 42
0.0
 10
1.700000000000045
 20
-1.250000000000056
 42
0.0
 10
1.900000000000034
 20
-1.250000000000028
 42
0.414213562373095
 10
1.999999999999886
 20
-1.150000000000162
 42
0.0
 97
        0
 92
        7
 72
     1
 73
     1
 93
        4
 10
-2.000000000000056
 20
-0.9500000000000667
 42
0.0
 10
-1.999999999999886
 20
-1.150000000000162
 42
0.414213562373095
 10
-1.900000000000034
 20
-1.250000000000028
 42
0.0
 10
-1.700000000000102
 20
-1.250000000000028
 42
0.0
 97
        0
 75
     1
 76
     1
 52
0.0
 41
0.2
 77
     0
 78
     1
 53
45.0
 43
-14.32329063118436
 44
0.0
 45
-0.0176776695296637
 46
0.0176776695296637
 79
     0
 47
0.0064516201633835
 98
       14
 10
-0.7658417104084947
 20
1.556077459884193
 10
-0.1848561737631371
 20
1.588335622947681
 10
0.0991809850470418
 20
1.575432751402615
 10
0.9190173118379334
 20
1.607690914466104
 10
-1.921358140161373
 20
-1.560055580526125
 10
-1.301640878389434
 20
-1.579410872044434
 10
-0.5980016589276147
 20
-1.618120470880569
 10
-0.1396678731491647
 20
-1.618120470880569
 10
0.1120922040722689
 20
-1.605216615134679
 10
0.7124436032809172
 20
-1.566507016298658
 10
1.164322745521531
 20
-1.572958452071191
 10
2.02934544097684
 20
-1.579410872044434
 10
1.945425415236513
 20
-1.147151880673789
 10
-1.83743811442082
 20
-1.179410043737277
1001
GradientColor1ACI
1070
     5
1001
GradientColor2ACI
1070
     2
1001
ACAD
1010
0.0
1020
0.0
1030
0.0
  0
LWPOLYLINE
  5
1CB
330
2
100
AcDbEntity
  8
PLATE
  6
Continuous
100
AcDbPolyline
 90
        8
 70
     1
 43
0.0
 10
-1.500000000000113
 20
-1.450000000000017
 10
-2.000000000000056
 20
-0.9500000000000667
 10
-2.174999999999897
 20
-0.9500000000000667
 10
-2.174999999999897
 20
-1.699999999999988
 10
2.174999999999897
 20
-1.699999999999988
 10
2.174999999999897
 20
-0.9500000000000667
 10
2.000000000000056
 20
-0.9500000000000667
 10
1.500000000000113
 20
-1.450000000000017
  0
LWPOLYLINE
  5
1CC
330
2
100
AcDbEntity
  8
PLATE
  6
Continuous
100
AcDbPolyline
 90
        8
 70
     1
 43
0.0
 10
-1.388873016278068
 20
-1.250000000000014
 10
-1.90887301627805
 20
-0.730000000000068
 10
-2.449999999999988
 20
-0.730000000000068
 10
-2.449999999999988
 20
-1.919999999999987
 10
2.449999999999988
 20
-1.919999999999987
 10
2.449999999999988
 20
-0.730000000000068
 10
1.90887301627805
 20
-0.730000000000068
 10
1.388873016278068
 20
-1.250000000000014
  0
LWPOLYLINE
  5
1CD
330
2
100
AcDbEntity
  8
PLATE
  6
Continuous
100
AcDbPolyline
 90
        4
 70
     1
 43
0.0
 10
-1.500000000000056
 20
1.250000000000014
 10
-1.500000000000056
 20
1.919999999999987
 10
1.500000000000056
 20
1.919999999999987
 10
1.500000000000056
 20
1.250000000000014
  0
LWPOLYLINE
  5
1CE
330
2
100
AcDbEntity
  8
PLATE
  6
Continuous
100
AcDbPolyline
 90
        4
 70
     1
 43
0.0
 10
1.25
 20
1.450000000000017
 10
-1.250000000000056
 20
1.450000000000017
 10
-1.250000000000056
 20
1.699999999999988
 10
1.250000000000056
 20
1.699999999999988
  0
DIMENSION
  5
1CF
330
2
100
AcDbEntity
  8
PLATE
  6
Continuous
 62
     1
100
AcDbDimension
280
     0
  2
*D11
 10
1.25
 20
1.19373154781627
 30
0.0
 11
0.0
 21
1.19373154781627
 31
0.0
 12
-477.5098319393473
 22
-46.83047197062712
 32
0.0
 70
   128
  1
<>\Pmin Ag area
 71
     5
 42
2.500000000000056
 73
     0
 74
     0
 75
     0
  3
3DEC X 25
100
AcDbAlignedDimension
 13
-1.250000000000056
 23
1.450000000000017
 33
0.0
 14
1.25
 24
1.450000000000017
 34
0.0
100
AcDbRotatedDimension
1001
ACAD_DSTYLE_DIMINSPECT
1070
   393
1070
     0
1070
   394
1070
     0
1070
   395
1000

1070
   396
1000

1001
ACAD
1000
DSTYLE
1002
{
1070
   340
1005
1D
1002
}
  0
DIMENSION
  5
1DD
330
2
100
AcDbEntity
  8
DIM
  6
Continuous
 62
     1
100
AcDbDimension
280
     0
  2
*D12
 10
0.0
 20
0.0
 30
0.0
 11
3.259824966571841
 21
1.25000000000017
 31
0.0
 12
-477.5098319393473
 22
-46.83047197062712
 32
0.0
 70
     6
  1
<> MAX PLT
 71
     5
 42
1.25000000000017
 73
     0
 74
     0
 75
     0
  3
3DEC X 10
100
AcDbOrdinateDimension
 13
1.500000000000056
 23
1.25000000000017
 33
0.0
 14
2.752374966571835
 24
1.25000000000017
 34
0.0
1001
ACAD
1000
DSTYLE
1002
{
1070
    41
1040
0.5
1070
   140
1040
0.75
1002
}
1001
ACAD_DSTYLE_DIMINSPECT
1070
   393
1070
     0
1070
   394
1070
     0
1070
   395
1000

1070
   396
1000

  0
DIMENSION
  5
1E6
330
2
100
AcDbEntity
  8
PLATE
  6
Continuous
 62
     1
100
AcDbDimension
280
     0
  2
*D13
 10
1.388873016278068
 20
-1.250000000000014
 30
0.0
 11
1.269296692297814
 21
-0.9613172169081281
 31
0.0
 12
-477.5098319393473
 22
-46.83047197062712
 32
0.0
 70
     2
 71
     5
 42
2.356194490192379
 73
     0
 74
     0
 75
     0
  3
3DEC X 25
100
AcDb2LineAngularDimension
 13
1.388873016278068
 23
-1.250000000000014
 33
0.0
 14
-1.388873016278068
 24
-1.250000000000014
 34
0.0
 15
1.90887301627805
 25
-0.730000000000068
 35
0.0
 16
1.220193956974526
 26
-0.9869722040111028
 36
0.0
1001
ACAD_DSTYLE_DIMINSPECT
1070
   393
1070
     0
1070
   394
1070
     0
1070
   395
1000

1070
   396
1000

  0
DIMENSION
  5
1F4
330
2
100
AcDbEntity
  8
DIM
  6
Continuous
 62
     1
100
AcDbDimension
280
     0
  2
*D14
 10
0.0
 20
0.0
 30
0.0
 11
3.195072493708607
 21
1.699999999999988
 31
0.0
 12
-477.5098319393473
 22
-46.83047197062712
 32
0.0
 70
     6
  1
<> MIN PLT
 71
     5
 42
1.699999999999988
 73
     0
 74
     0
 75
     0
  3
3DEC X 10
100
AcDbOrdinateDimension
 13
1.250000000000056
 23
1.699999999999988
 33
0.0
 14
2.706372493708613
 24
1.699999999999988
 34
0.0
1001
ACAD
1000
DSTYLE
1002
{
1070
    41
1040
0.5
1070
   140
1040
0.75
1002
}
1001
ACAD_DSTYLE_DIMINSPECT
1070
   393
1070
     0
1070
   394
1070
     0
1070
   395
1000

1070
   396
1000

  0
DIMENSION
  5
1FD
330
2
100
AcDbEntity
  8
DIM
  6
Continuous
 62
     1
100
AcDbDimension
280
     0
  2
*D15
 10
0.0
 20
0.0
 30
0.0
 11
3.203621601741019
 21
1.919999999999987
 31
0.0
 12
-477.5098319393473
 22
-46.83047197062712
 32
0.0
 70
     6
  1
<> MAX PLT
 71
     5
 42
1.919999999999987
 73
     0
 74
     0
 75
     0
  3
3DEC X 10
100
AcDbOrdinateDimension
 13
1.500000000000056
 23
1.919999999999987
 33
0.0
 14
2.696171601741014
 24
1.919999999999987
 34
0.0
1001
ACAD
1000
DSTYLE
1002
{
1070
    41
1040
0.5
1070
   140
1040
0.75
1002
}
1001
ACAD_DSTYLE_DIMINSPECT
1070
   393
1070
     0
1070
   394
1070
     0
1070
   395
1000

1070
   396
1000

  0
DIMENSION
  5
206
330
2
100
AcDbEntity
  8
DIM
  6
Continuous
 62
     1
100
AcDbDimension
280
     0
  2
*D16
 10
0.0
 20
0.0
 30
0.0
 11
3.223912338790626
 21
1.450000000000017
 31
0.0
 12
-477.5098319393473
 22
-46.83047197062712
 32
0.0
 70
     6
  1
<> MIN PLT
 71
     5
 42
1.450000000000017
 73
     0
 74
     0
 75
     0
  3
3DEC X 10
100
AcDbOrdinateDimension
 13
1.25
 23
1.450000000000017
 33
0.0
 14
2.728962338790665
 24
1.450000000000017
 34
0.0
1001
ACAD
1000
DSTYLE
1002
{
1070
    41
1040
0.5
1070
   140
1040
0.75
1002
}
1001
ACAD_DSTYLE_DIMINSPECT
1070
   393
1070
     0
1070
   394
1070
     0
1070
   395
1000

1070
   396
1000

  0
DIMENSION
  5
20F
330
2
100
AcDbEntity
  8
DIM
  6
Continuous
 62
     1
100
AcDbDimension
280
     0
  2
*D17
 10
0.0
 20
0.0
 30
0.0
 11
1.250000000000056
 21
2.718778353301232
 31
0.0
 12
-477.5098319393473
 22
-46.83047197062712
 32
0.0
 70
    70
  1
<> MIN PLT
 71
     5
 42
1.250000000000056
 73
     0
 74
     0
 75
     0
  3
3DEC X 10
100
AcDbOrdinateDimension
 13
1.250000000000056
 23
1.699999999999988
 33
0.0
 14
1.250000000000113
 24
2.223828353301236
 34
0.0
1001
ACAD
1000
DSTYLE
1002
{
1070
    41
1040
0.5
1070
   140
1040
0.75
1002
}
1001
ACAD_DSTYLE_DIMINSPECT
1070
   393
1070
     0
1070
   394
1070
     0
1070
   395
1000

1070
   396
1000

  0
DIMENSION
  5
218
330
2
100
AcDbEntity
  8
DIM
  6
Continuous
 62
     1
100
AcDbDimension
280
     0
  2
*D18
 10
0.0
 20
0.0
 30
0.0
 11
1.500000000000056
 21
2.725028353301311
 31
0.0
 12
-477.5098319393473
 22
-46.83047197062712
 32
0.0
 70
    70
  1
<> MAX PLT
 71
     5
 42
1.500000000000056
 73
     0
 74
     0
 75
     0
  3
3DEC X 10
100
AcDbOrdinateDimension
 13
1.500000000000056
 23
1.919999999999987
 33
0.0
 14
1.500000000000113
 24
2.223828353301236
 34
0.0
1001
ACAD
1000
DSTYLE
1002
{
1070
    41
1040
0.5
1070
   140
1040
0.75
1002
}
1001
ACAD_DSTYLE_DIMINSPECT
1070
   393
1070
     0
1070
   394
1070
     0
1070
   395
1000

1070
   396
1000

  0
DIMENSION
  5
221
330
2
100
AcDbEntity
  8
DIM
  6
Continuous
 62
     1
100
AcDbDimension
280
     0
  2
*D19
 10
0.0
 20
0.0
 30
0.0
 11
-1.25000000000017
 21
2.718778353301232
 31
0.0
 12
-477.5098319393473
 22
-46.83047197062712
 32
0.0
 70
    70
  1
<> MIN PLT
 71
     5
 42
1.250000000000056
 73
     0
 74
     0
 75
     0
  3
3DEC X 10
100
AcDbOrdinateDimension
 13
-1.250000000000056
 23
1.699999999999988
 33
0.0
 14
-1.250000000000113
 24
2.223828353301236
 34
0.0
1001
ACAD
1000
DSTYLE
1002
{
1070
    41
1040
0.5
1070
   140
1040
0.75
1002
}
1001
ACAD_DSTYLE_DIMINSPECT
1070
   393
1070
     0
1070
   394
1070
     0
1070
   395
1000

1070
   396
1000

  0
DIMENSION
  5
22A
330
2
100
AcDbEntity
  8
DIM
  6
Continuous
 62
     1
100
AcDbDimension
280
     0
  2
*D20
 10
0.0
 20
0.0
 30
0.0
 11
-1.50000000000017
 21
2.725028353301311
 31
0.0
 12
-477.5098319393473
 22
-46.83047197062712
 32
0.0
 70
    70
  1
<> MAX PLT
 71
     5
 42
1.500000000000056
 73
     0
 74
     0
 75
     0
  3
3DEC X 10
100
AcDbOrdinateDimension
 13
-1.500000000000056
 23
1.919999999999987
 33
0.0
 14
-1.500000000000113
 24
2.223828353301236
 34
0.0
1001
ACAD
1000
DSTYLE
1002
{
1070
    41
1040
0.5
1070
   140
1040
0.75
1002
}
1001
ACAD_DSTYLE_DIMINSPECT
1070
   393
1070
     0
1070
   394
1070
     0
1070
   395
1000

1070
   396
1000

  0
DIMENSION
  5
233
330
2
100
AcDbEntity
  8
DIM
  6
Continuous
 62
     1
100
AcDbDimension
280
     0
  2
*D21
 10
0.0
 20
0.0
 30
0.0
 11
3.194680355756872
 21
-1.450000000000017
 31
0.0
 12
-477.5098319393473
 22
-46.83047197062712
 32
0.0
 70
     6
  1
<> MIN PLT
 71
     5
 42
1.450000000000017
 73
     0
 74
     0
 75
     0
  3
3DEC X 10
100
AcDbOrdinateDimension
 13
1.500000000000113
 23
-1.450000000000017
 33
0.0
 14
2.699730355756912
 24
-1.450000000000017
 34
0.0
1001
ACAD
1000
DSTYLE
1002
{
1070
    41
1040
0.5
1070
   140
1040
0.75
1002
}
1001
ACAD_DSTYLE_DIMINSPECT
1070
   393
1070
     0
1070
   394
1070
     0
1070
   395
1000

1070
   396
1000

  0
DIMENSION
  5
23C
330
2
100
AcDbEntity
  8
DIM
  6
Continuous
 62
     1
100
AcDbDimension
280
     0
  2
*D22
 10
0.0
 20
0.0
 30
0.0
 11
3.202125180003804
 21
-1.250000000000056
 31
0.0
 12
-477.5098319393473
 22
-46.83047197062712
 32
0.0
 70
     6
  1
<> MAX PLT
 71
     5
 42
1.250000000000056
 73
     0
 74
     0
 75
     0
  3
3DEC X 10
100
AcDbOrdinateDimension
 13
1.388873016278012
 23
-1.250000000000056
 33
0.0
 14
2.694675180003798
 24
-1.250000000000056
 34
0.0
1001
ACAD
1000
DSTYLE
1002
{
1070
    41
1040
0.5
1070
   140
1040
0.75
1002
}
1001
ACAD_DSTYLE_DIMINSPECT
1070
   393
1070
     0
1070
   394
1070
     0
1070
   395
1000

1070
   396
1000

  0
DIMENSION
  5
245
330
2
100
AcDbEntity
  8
DIM
  6
Continuous
 62
     1
100
AcDbDimension
280
     0
  2
*D23
 10
0.0
 20
0.0
 30
0.0
 11
1.500000000000056
 21
-2.780956729875327
 31
0.0
 12
-477.5098319393473
 22
-46.83047197062712
 32
0.0
 70
    70
  1
<> MIN PLT
 71
     5
 42
1.500000000000056
 73
     0
 74
     0
 75
     0
  3
3DEC X 10
100
AcDbOrdinateDimension
 13
1.500000000000056
 23
-1.450000000000073
 33
0.0
 14
1.500000000000113
 24
-2.292256729875347
 34
0.0
1001
ACAD
1000
DSTYLE
1002
{
1070
   340
1005
1D
1070
    41
1040
0.5
1070
   140
1040
0.75
1002
}
1001
ACAD_DSTYLE_DIMINSPECT
1070
   393
1070
     0
1070
   394
1070
     0
1070
   395
1000

1070
   396
1000

  0
DIMENSION
  5
24E
330
2
100
AcDbEntity
  8
DIM
  6
Continuous
 62
     1
100
AcDbDimension
280
     0
  2
*D24
 10
0.0
 20
0.0
 30
0.0
 11
1.247207874650598
 21
-2.809550537109885
 31
0.0
 12
-477.5098319393473
 22
-46.83047197062712
 32
0.0
 70
    70
  1
<> MAX PLT
 71
     5
 42
1.388873016278068
 73
     0
 74
     0
 75
     0
  3
3DEC X 10
100
AcDbOrdinateDimension
 13
1.388873016278068
 23
-1.250000000000014
 33
0.0
 14
1.247207874650712
 24
-2.295850537109913
 34
0.0
1001
ACAD
1000
DSTYLE
1002
{
1070
   340
1005
1D
1070
    41
1040
0.5
1070
   140
1040
0.75
1002
}
1001
ACAD_DSTYLE_DIMINSPECT
1070
   393
1070
     0
1070
   394
1070
     0
1070
   395
1000

1070
   396
1000

  0
ENDSEC
  0
SECTION
  2
OBJECTS
  0
DICTIONARY
  5
B
330
0
100
AcDbDictionary
281
     1
  3
ACAD_COLOR
350
34
  3
ACAD_FIELDLIST
350
25C
  3
ACAD_GROUP
350
2F
  3
ACAD_LAYOUT
350
11
  3
ACAD_MATERIAL
350
D
  3
ACAD_MLEADERSTYLE
350
37
  3
ACAD_MLINESTYLE
350
30
  3
ACAD_PLOTSETTINGS
350
31
  3
ACAD_PLOTSTYLENAME
350
A
  3
ACAD_SCALELIST
350
35
  3
ACAD_TABLESTYLE
350
36
  3
ACAD_VISUALSTYLE
350
28
  3
ACDB_RECOMPOSE_DATA
350
260
  3
AcDbVariableDictionary
350
38
  0
DICTIONARY
  5
2A
330
25
100
AcDbDictionary
280
     1
281
     1
  0
DICTIONARY
  5
1A
330
19
100
AcDbDictionary
280
     1
281
     1
  3
ACAD_LAYERSTATES
360
1B
  0
DICTIONARY
  5
7
330
6
100
AcDbDictionary
280
     1
281
     1
  3
ADSK_XREC_LAYER_RECONCILED
360
8
  0
DICTIONARY
  5
49
330
48
100
AcDbDictionary
280
     1
281
     1
  3
ADSK_XREC_LAYER_RECONCILED
360
4A
  0
DICTIONARY
  5
10D
330
10C
100
AcDbDictionary
280
     1
281
     1
  3
ADSK_XREC_LAYER_RECONCILED
360
10E
  0
DICTIONARY
  5
17E
330
17D
100
AcDbDictionary
280
     1
281
     1
  3
ADSK_XREC_LAYER_RECONCILED
360
17F
  0
DICTIONARY
  5
108
330
107
100
AcDbDictionary
280
     1
281
     1
  3
ADSK_XREC_LAYER_RECONCILED
360
109
  0
DICTIONARY
  5
69
330
68
100
AcDbDictionary
280
     1
281
     1
  3
ADSK_XREC_LAYER_RECONCILED
360
6A
  0
DICTIONARY
  5
B7
330
B6
100
AcDbDictionary
280
     1
281
     1
  3
ADSK_XREC_LAYER_RECONCILED
360
B8
  0
DICTIONARY
  5
19F
330
19E
100
AcDbDictionary
280
     1
281
     1
  3
ADSK_XREC_LAYER_RECONCILED
360
1A0
  0
DICTIONARY
  5
3
330
2
100
AcDbDictionary
280
     1
281
     1
  3
ACAD_SORTENTS
360
25A
  0
DICTIONARY
  5
103
330
102
100
AcDbDictionary
280
     1
281
     1
  3
ACAD_SORTENTS
360
259
  0
DICTIONARY
  5
66
330
65
100
AcDbDictionary
280
     1
281
     1
  3
ACAD_MTEXT_2008_RT
360
67
  0
DICTIONARY
  5
EC
330
EB
100
AcDbDictionary
280
     1
281
     1
  3
ACAD_MTEXT_2008_RT
360
ED
  0
DICTIONARY
  5
34
102
{ACAD_REACTORS
330
B
102
}
330
B
100
AcDbDictionary
281
     1
  0
FIELDLIST
  5
25C
102
{ACAD_REACTORS
330
B
102
}
330
B
100
AcDbIdSet
 90
        0
100
AcDbFieldList
  0
DICTIONARY
  5
2F
102
{ACAD_REACTORS
330
B
102
}
330
B
100
AcDbDictionary
281
     1
  0
DICTIONARY
  5
11
102
{ACAD_REACTORS
330
B
102
}
330
B
100
AcDbDictionary
281
     1
  3
Layout1
350
16
  3
Model
350
10
  0
DICTIONARY
  5
D
102
{ACAD_REACTORS
330
B
102
}
330
B
100
AcDbDictionary
281
     1
  3
ByBlock
350
33
  3
ByLayer
350
32
  3
Global
350
C
  0
DICTIONARY
  5
37
102
{ACAD_REACTORS
330
B
102
}
330
B
100
AcDbDictionary
281
     1
  0
DICTIONARY
  5
30
102
{ACAD_REACTORS
330
B
102
}
330
B
100
AcDbDictionary
281
     1
  3
Standard
350
4B
  0
DICTIONARY
  5
31
102
{ACAD_REACTORS
330
B
102
}
330
B
100
AcDbDictionary
281
     1
  0
ACDBDICTIONARYWDFLT
  5
A
102
{ACAD_REACTORS
330
B
102
}
330
B
100
AcDbDictionary
281
     1
  3
Color_1
350
6F
  3
Normal
350
9
100
AcDbDictionaryWithDefault
340
9
  0
DICTIONARY
  5
35
102
{ACAD_REACTORS
330
B
102
}
330
B
100
AcDbDictionary
281
     1
  3
A0
350
53
  3
A1
350
54
  3
A2
350
55
  3
A3
350
56
  3
A4
350
57
  3
A5
350
58
  3
A6
350
59
  3
A7
350
5A
  3
A8
350
5B
  3
A9
350
5C
  3
B0
350
5D
  3
B1
350
5E
  3
B2
350
5F
  3
B3
350
60
  3
B4
350
61
  3
B5
350
62
  3
B6
350
63
  3
B7
350
64
  0
DICTIONARY
  5
36
102
{ACAD_REACTORS
330
B
102
}
330
B
100
AcDbDictionary
281
     1
  3
Standard
350
4C
  0
DICTIONARY
  5
28
102
{ACAD_REACTORS
330
B
102
}
330
B
100
AcDbDictionary
281
     1
  3
2dWireframe
350
27
  3
EdgeColorOff
350
B3
  3
Realistic
350
4E
  3
Wireframe
350
4F
  0
XRECORD
  5
260
102
{ACAD_REACTORS
330
B
102
}
330
B
100
AcDbXrecord
280
     1
 90
        1
330
4C
  0
DICTIONARY
  5
38
102
{ACAD_REACTORS
330
B
102
}
330
B
100
AcDbDictionary
281
     1
  3
CANNOSCALE
350
39
  3
CMLEADERSTYLE
350
3A
  3
CTABLESTYLE
350
3B
  3
CVIEWDETAILSTYLE
350
3C
  3
CVIEWSECTIONSTYLE
350
3D
  3
DIMASSOC
350
3E
  3
HIDETEXT
350
3F
  3
INDEXCTL
350
40
  3
LAYEREVAL
350
41
  3
LAYERNOTIFY
350
42
  3
LIGHTINGUNITS
350
43
  3
MSLTSCALE
350
44
  3
OLEFRAME
350
45
  3
PROJECTNAME
350
46
  3
SORTENTS
350
47
  0
DICTIONARY
  5
1B
102
{ACAD_REACTORS
330
1A
102
}
330
1A
100
AcDbDictionary
281
     1
  0
XRECORD
  5
8
102
{ACAD_REACTORS
330
7
102
}
330
7
100
AcDbXrecord
280
     1
290
     1
  0
XRECORD
  5
4A
102
{ACAD_REACTORS
330
49
102
}
330
49
100
AcDbXrecord
280
     1
290
     1
  0
XRECORD
  5
10E
102
{ACAD_REACTORS
330
10D
102
}
330
10D
100
AcDbXrecord
280
     1
290
     1
  0
XRECORD
  5
17F
102
{ACAD_REACTORS
330
17E
102
}
330
17E
100
AcDbXrecord
280
     1
290
     1
  0
XRECORD
  5
109
102
{ACAD_REACTORS
330
108
102
}
330
108
100
AcDbXrecord
280
     1
290
     1
  0
XRECORD
  5
6A
102
{ACAD_REACTORS
330
69
102
}
330
69
100
AcDbXrecord
280
     1
290
     1
  0
XRECORD
  5
B8
102
{ACAD_REACTORS
330
B7
102
}
330
B7
100
AcDbXrecord
280
     1
290
     1
  0
XRECORD
  5
1A0
102
{ACAD_REACTORS
330
19F
102
}
330
19F
100
AcDbXrecord
280
     1
290
     1
  0
SORTENTSTABLE
  5
25A
102
{ACAD_REACTORS
330
3
102
}
330
3
100
AcDbSortentsTable
330
2
  0
SORTENTSTABLE
  5
259
102
{ACAD_REACTORS
330
103
102
}
330
103
100
AcDbSortentsTable
330
102
331
182
  5
183
331
183
  5
184
331
184
  5
185
331
185
  5
186
331
186
  5
187
331
187
  5
188
331
188
  5
189
331
189
  5
18A
331
18A
  5
18B
331
18B
  5
18C
331
18C
  5
18E
331
18E
  5
18F
331
18F
  5
190
331
190
  5
191
331
191
  5
192
331
192
  5
193
331
193
  5
194
331
194
  5
195
331
195
  5
196
331
196
  5
197
331
197
  5
198
331
198
  5
199
331
199
  5
19A
331
19A
  5
19B
331
19B
  5
19C
331
19C
  5
19D
331
19D
  5
1A2
331
1A2
  5
1A3
331
1A3
  5
1A4
331
1A4
  5
1A5
331
1A5
  5
1A6
331
1A6
  5
1A7
331
1A7
  5
1A8
331
1A8
  5
1A9
331
1A9
  5
1AA
331
1AA
  5
1AB
331
1AB
  5
1AC
331
1AC
  5
1AD
331
1AD
  5
1AE
331
1AE
  5
1AF
331
1AF
  5
1B0
331
1B0
  5
1B1
331
1B1
  5
1B2
331
1B2
  5
1B3
331
1B3
  5
1B4
331
1B4
  5
1B5
331
1B5
  5
1B6
331
1B6
  5
1B7
331
1B7
  5
1B8
331
1B8
  5
1B9
331
1B9
  5
1BA
331
1BA
  5
1BB
331
1BB
  5
1BC
331
1BC
  5
1BD
331
1BD
  5
1BE
331
1BE
  5
1BF
331
1BF
  5
1C0
331
1C0
  5
1C1
331
1C1
  5
1C2
331
1C2
  5
1C3
331
1C3
  5
1C4
331
1C4
  5
1C5
331
1C5
  5
1C6
331
1C6
  5
1C7
331
1C7
  5
182
  0
XRECORD
  5
67
102
{ACAD_REACTORS
330
66
102
}
330
66
100
AcDbXrecord
280
     1
 40
139156.0
  1
\pxql;{\LSelective Ag\f|b0|i0|c134|p2;\Ftxt|c134;PRP)}
  0
XRECORD
  5
ED
102
{ACAD_REACTORS
330
EC
102
}
330
EC
100
AcDbXrecord
280
     1
 40
197161.0
  1
\pxql;{\Ftxt|c134;\Lother d/s tool mark on tie bar only with depth <=0.030}
  0
LAYOUT
  5
16
102
{ACAD_XDICTIONARY
360
17
102
}
102
{ACAD_REACTORS
330
11
102
}
330
11
100
AcDbPlotSettings
  1

  2
PDFCreator
  4
PostScript Custom Page Size
  6

 40
3.174999999999999
 41
3.174999999999999
 42
3.175000000000011
 43
3.175000000000011
 44
215.9
 45
279.4
 46
9.198393142517199
 47
-0.0000000000000382
 48
-0.7640465243092834
 49
-2.256186529073772
140
268.9860251053894
141
186.5868572059896
142
1.0
143
0.9879145637418007
 70
   564
 72
     1
 73
     1
 74
     4
  7
monochrome.ctb
 75
     0
147
1.012233280793457
 76
     0
 77
     2
 78
   300
148
0.7640465243092834
149
2.256186529073772
100
AcDbLayout
  1
Layout1
 70
     1
 71
     1
 10
-3.900675264189473
 20
-14.48004181746944
 11
272.1226538452696
 21
198.8107124943853
 12
0.0
 22
0.0
 32
0.0
 14
0.9228925108909606
 24
0.8963128924369812
 34
-0.0000000001
 15
266.9485241840855
 25
185.0463128939141
 35
0.0000000001
146
0.0
 13
0.0
 23
0.0
 33
0.0
 16
1.0
 26
0.0
 36
0.0
 17
0.0
 27
1.0
 37
0.0
 76
     0
330
13
1001
ACAD_PSEXT
1000
PDFCreator
1000
PDFCreator
1000
PDFCreator:
1000

1070
     0
  0
LAYOUT
  5
10
102
{ACAD_REACTORS
330
11
102
}
330
11
100
AcDbPlotSettings
  1

  2
PB01DSC01.pc3
  4
A4
  6

 40
6.720416545867919
 41
6.720423221588134
 42
7.736419677734375
 43
4.011077880859375
 44
209.9733276367187
 45
296.9259948730469
 46
0.0
 47
4.139999999999999
 48
393.7814143292872
 49
137.4555674216731
140
397.1142261888931
141
142.1928458144484
142
1.0
143
0.0170461930628851
 70
 11956
 72
     1
 73
     0
 74
     4
  7
monochrome.ctb
 75
     0
147
58.66412496390845
 76
     0
 77
     2
 78
   300
148
-393.7814143292872
149
-137.4555674216731
100
AcDbLayout
  1
Model
 70
     1
 71
     0
 10
0.0
 20
0.0
 11
12.0
 21
9.0
 12
0.0
 22
0.0
 32
0.0
 14
0.0
 24
0.0
 34
0.0
 15
0.0
 25
0.0
 35
0.0
146
0.0
 13
0.0
 23
0.0
 33
0.0
 16
1.0
 26
0.0
 36
0.0
 17
0.0
 27
1.0
 37
0.0
 76
     0
330
2
331
26
1001
ACAD_PSEXT
1000
doPDF v6
1000
doPDF   6 Printer Driver
1000
DOP6:
1000

1070
     0
  0
MATERIAL
  5
33
102
{ACAD_REACTORS
330
D
102
}
330
D
100
AcDbMaterial
  1
ByBlock
 73
     1
 78
     1
172
     1
176
     1
270
     1
274
     1
 94
       63
  0
MATERIAL
  5
32
102
{ACAD_REACTORS
330
D
102
}
330
D
100
AcDbMaterial
  1
ByLayer
 73
     1
 78
     1
172
     1
176
     1
270
     1
274
     1
 94
       63
  0
MATERIAL
  5
C
102
{ACAD_REACTORS
330
D
102
}
330
D
100
AcDbMaterial
  1
Global
 73
     1
 78
     1
172
     1
176
     1
270
     1
274
     1
 94
       63
  0
MLINESTYLE
  5
4B
102
{ACAD_REACTORS
330
30
102
}
330
30
100
AcDbMlineStyle
  2
STANDARD
 70
     0
  3

 62
   256
 51
90.0
 52
90.0
 71
     2
 49
0.5
 62
   256
  6
BYLAYER
 49
-0.5
 62
   256
  6
BYLAYER
  0
ACDBPLACEHOLDER
  5
6F
102
{ACAD_REACTORS
330
A
102
}
330
A
  0
ACDBPLACEHOLDER
  5
9
102
{ACAD_REACTORS
330
A
102
}
330
A
  0
SCALE
  5
53
102
{ACAD_REACTORS
330
35
102
}
330
35
100
AcDbScale
 70
     0
300
1.1:1
140
1.1
141
1.0
290
     0
  0
SCALE
  5
54
102
{ACAD_REACTORS
330
35
102
}
330
35
100
AcDbScale
 70
     0
300
1:1
140
1.0
141
1.0
290
     1
  0
SCALE
  5
55
102
{ACAD_REACTORS
330
35
102
}
330
35
100
AcDbScale
 70
     0
300
1:2
140
1.0
141
2.0
290
     0
  0
SCALE
  5
56
102
{ACAD_REACTORS
330
35
102
}
330
35
100
AcDbScale
 70
     0
300
1:4
140
1.0
141
4.0
290
     0
  0
SCALE
  5
57
102
{ACAD_REACTORS
330
35
102
}
330
35
100
AcDbScale
 70
     0
300
1:5
140
1.0
141
5.0
290
     0
  0
SCALE
  5
58
102
{ACAD_REACTORS
330
35
102
}
330
35
100
AcDbScale
 70
     0
300
1:8
140
1.0
141
8.0
290
     0
  0
SCALE
  5
59
102
{ACAD_REACTORS
330
35
102
}
330
35
100
AcDbScale
 70
     0
300
1:10
140
1.0
141
10.0
290
     0
  0
SCALE
  5
5A
102
{ACAD_REACTORS
330
35
102
}
330
35
100
AcDbScale
 70
     0
300
1:16
140
1.0
141
16.0
290
     0
  0
SCALE
  5
5B
102
{ACAD_REACTORS
330
35
102
}
330
35
100
AcDbScale
 70
     0
300
1:20
140
1.0
141
20.0
290
     0
  0
SCALE
  5
5C
102
{ACAD_REACTORS
330
35
102
}
330
35
100
AcDbScale
 70
     0
300
1:30
140
1.0
141
30.0
290
     0
  0
SCALE
  5
5D
102
{ACAD_REACTORS
330
35
102
}
330
35
100
AcDbScale
 70
     0
300
1:40
140
1.0
141
40.0
290
     0
  0
SCALE
  5
5E
102
{ACAD_REACTORS
330
35
102
}
330
35
100
AcDbScale
 70
     0
300
1:50
140
1.0
141
50.0
290
     0
  0
SCALE
  5
5F
102
{ACAD_REACTORS
330
35
102
}
330
35
100
AcDbScale
 70
     0
300
1:100
140
1.0
141
100.0
290
     0
  0
SCALE
  5
60
102
{ACAD_REACTORS
330
35
102
}
330
35
100
AcDbScale
 70
     0
300
2:1
140
2.0
141
1.0
290
     0
  0
SCALE
  5
61
102
{ACAD_REACTORS
330
35
102
}
330
35
100
AcDbScale
 70
     0
300
4:1
140
4.0
141
1.0
290
     0
  0
SCALE
  5
62
102
{ACAD_REACTORS
330
35
102
}
330
35
100
AcDbScale
 70
     0
300
8:1
140
8.0
141
1.0
290
     0
  0
SCALE
  5
63
102
{ACAD_REACTORS
330
35
102
}
330
35
100
AcDbScale
 70
     0
300
10:1
140
10.0
141
1.0
290
     0
  0
SCALE
  5
64
102
{ACAD_REACTORS
330
35
102
}
330
35
100
AcDbScale
 70
     0
300
100:1
140
100.0
141
1.0
290
     0
  0
TABLESTYLE
  5
4C
102
{ACAD_XDICTIONARY
360
4D
102
}
102
{ACAD_REACTORS
330
36
102
}
330
36
100
AcDbTableStyle
280
     0
  3
Standard
 70
     0
 71
     0
 40
1.5
 41
1.5
280
     0
281
     0
  7
Standard
140
4.5
170
     2
 62
     0
 63
     7
283
     0
 90
        4
 91
        0
  1

274
    -2
284
     1
 64
     0
275
    -2
285
     1
 65
     0
276
    -2
286
     1
 66
     0
277
    -2
287
     1
 67
     0
278
    -2
288
     1
 68
     0
279
    -2
289
     1
 69
     0
  7
Standard
140
6.0
170
     5
 62
     0
 63
     7
283
     0
 90
        4
 91
        0
  1

274
    -2
284
     1
 64
     0
275
    -2
285
     1
 65
     0
276
    -2
286
     1
 66
     0
277
    -2
287
     1
 67
     0
278
    -2
288
     1
 68
     0
279
    -2
289
     1
 69
     0
  7
Standard
140
4.5
170
     5
 62
     0
 63
     7
283
     0
 90
        4
 91
        0
  1

274
    -2
284
     1
 64
     0
275
    -2
285
     1
 65
     0
276
    -2
286
     1
 66
     0
277
    -2
287
     1
 67
     0
278
    -2
288
     1
 68
     0
279
    -2
289
     1
 69
     0
  0
VISUALSTYLE
  5
27
102
{ACAD_REACTORS
330
28
102
}
330
28
100
AcDbVisualStyle
  2
2dWireframe
 70
     4
177
     3
291
     0
 70
    58
 90
        0
176
     1
 90
        2
176
     1
 90
        0
176
     1
 90
        0
176
     1
 40
0.6
176
     1
 40
30.0
176
     1
 62
     7
176
     1
 90
        1
176
     1
 90
        4
176
     1
 62
     7
176
     1
 62
   257
176
     1
 90
        1
176
     1
 90
        1
176
     1
 40
1.0
176
     1
 90
        0
176
     1
 62
   257
176
     1
 40
1.0
176
     1
 90
        1
176
     1
 90
        6
176
     1
 90
        2
176
     1
 62
     7
176
     1
 90
        5
176
     1
 90
        0
176
     1
 90
        0
176
     1
290
     0
176
     1
 90
        1
176
     1
 40
0.0
176
     1
 90
        0
176
     1
290
     1
176
     1
290
     1
176
     1
290
     0
176
     1
290
     0
176
     1
290
     0
176
     1
290
     0
176
     1
290
     0
176
     1
290
     0
176
     1
290
     0
176
     1
 90
       50
176
     1
 40
0.0
176
     1
 40
1.0
176
     1
 90
        0
176
     1
 62
    18
420
        0
176
     1
 90
       50
176
     1
 90
        3
176
     1
 62
     5
420
      255
176
     1
290
     0
176
     1
 90
       50
176
     1
 90
       50
176
     1
 90
       50
176
     1
290
     0
176
     1
 90
       50
176
     1
 62
   256
176
     0
 40
1.0
176
     0
 90
        2
176
     1
  1
strokes_ogs.tif
176
     1
290
     0
176
     1
 40
1.0
176
     1
 40
1.0
176
     1
  0
VISUALSTYLE
  5
B3
102
{ACAD_REACTORS
330
28
102
}
330
28
100
AcDbVisualStyle
  2
EdgeColorOff
 70
    22
177
     3
291
     1
 70
    58
 90
        2
176
     1
 90
        2
176
     1
 90
        0
176
     1
 90
        0
176
     1
 40
0.6
176
     1
 40
30.0
176
     1
 62
     7
176
     1
 90
        1
176
     1
 90
        4
176
     1
 62
     7
176
     1
 62
   257
176
     1
 90
        1
176
     1
 90
        1
176
     1
 40
1.0
176
     1
 90
        8
176
     1
 62
     7
176
     1
 40
1.0
176
     1
 90
        1
176
     1
 90
        6
176
     1
 90
        2
176
     1
 62
     7
176
     1
 90
        5
176
     1
 90
        0
176
     1
 90
        0
176
     1
290
     0
176
     1
 90
        1
176
     1
 40
0.0
176
     1
 90
        0
176
     1
290
     0
176
     1
290
     1
176
     1
290
     1
176
     1
290
     0
176
     1
290
     0
176
     1
290
     0
176
     1
290
     0
176
     1
290
     0
176
     1
290
     0
176
     1
 90
       50
176
     1
 40
0.0
176
     1
 40
1.0
176
     1
 90
        0
176
     1
 62
    18
420
        0
176
     1
 90
       50
176
     1
 90
        3
176
     1
 62
     5
420
      255
176
     1
290
     0
176
     1
 90
       50
176
     1
 90
       50
176
     1
 90
       50
176
     1
290
     0
176
     1
 90
       50
176
     1
 62
   256
176
     0
 40
1.0
176
     0
 90
        2
176
     1
  1
strokes_ogs.tif
176
     1
290
     0
176
     1
 40
1.0
176
     1
 40
1.0
176
     1
  0
VISUALSTYLE
  5
4E
102
{ACAD_REACTORS
330
28
102
}
330
28
100
AcDbVisualStyle
  2
Realistic
 70
     8
177
     3
291
     0
 70
    58
 90
        2
176
     1
 90
        2
176
     1
 90
        0
176
     1
 90
        0
176
     1
 40
0.6
176
     1
 40
30.0
176
     1
 62
     7
176
     1
 90
        1
176
     1
 90
        0
176
     1
 62
     7
176
     1
 62
   257
176
     1
 90
        1
176
     1
 90
        1
176
     1
 40
1.0
176
     1
 90
        8
176
     1
 62
     8
176
     1
 40
1.0
176
     1
 90
        1
176
     1
 90
        6
176
     1
 90
        2
176
     1
 62
     7
176
     1
 90
        5
176
     1
 90
        0
176
     1
 90
        0
176
     1
290
     0
176
     1
 90
       13
176
     1
 40
0.0
176
     1
 90
        0
176
     1
290
     0
176
     1
290
     1
176
     1
290
     1
176
     1
290
     0
176
     1
290
     0
176
     1
290
     0
176
     1
290
     0
176
     1
290
     0
176
     1
290
     0
176
     1
 90
       50
176
     1
 40
0.0
176
     1
 40
1.0
176
     1
 90
        0
176
     1
 62
    18
420
        0
176
     1
 90
       50
176
     1
 90
        3
176
     1
 62
     5
420
      255
176
     1
290
     0
176
     1
 90
       50
176
     1
 90
       50
176
     1
 90
       50
176
     1
290
     0
176
     1
 90
       50
176
     1
 62
   256
176
     0
 40
1.0
176
     0
 90
        2
176
     1
  1
strokes_ogs.tif
176
     1
290
     0
176
     1
 40
1.0
176
     1
 40
1.0
176
     1
  0
VISUALSTYLE
  5
4F
102
{ACAD_REACTORS
330
28
102
}
330
28
100
AcDbVisualStyle
  2
Wireframe
 70
     5
177
     3
291
     0
 70
    58
 90
        0
176
     1
 90
        2
176
     1
 90
        0
176
     1
 90
        0
176
     1
 40
0.6
176
     1
 40
30.0
176
     1
 62
     7
176
     1
 90
        1
176
     1
 90
        4
176
     1
 62
     7
176
     1
 62
   257
176
     1
 90
        1
176
     1
 90
        1
176
     1
 40
1.0
176
     1
 90
        0
176
     1
 62
   257
176
     1
 40
1.0
176
     1
 90
        1
176
     1
 90
        6
176
     1
 90
        2
176
     1
 62
     7
176
     1
 90
        3
176
     1
 90
        0
176
     1
 90
        0
176
     1
290
     0
176
     1
 90
        1
176
     1
 40
0.0
176
     1
 90
        0
176
     1
290
     0
176
     1
290
     1
176
     1
290
     1
176
     1
290
     0
176
     1
290
     0
176
     1
290
     0
176
     1
290
     0
176
     1
290
     0
176
     1
290
     0
176
     1
 90
       50
176
     1
 40
0.0
176
     1
 40
1.0
176
     1
 90
        0
176
     1
 62
    18
420
        0
176
     1
 90
       50
176
     1
 90
        3
176
     1
 62
     5
420
      255
176
     1
290
     0
176
     1
 90
       50
176
     1
 90
       50
176
     1
 90
       50
176
     1
290
     0
176
     1
 90
       50
176
     1
 62
   256
176
     0
 40
1.0
176
     0
 90
        2
176
     1
  1
strokes_ogs.tif
176
     1
290
     0
176
     1
 40
1.0
176
     1
 40
1.0
176
     1
  0
DICTIONARYVAR
  5
39
102
{ACAD_REACTORS
330
38
102
}
330
38
100
DictionaryVariables
280
     0
  1
1:1
  0
DICTIONARYVAR
  5
3A
102
{ACAD_REACTORS
330
38
102
}
330
38
100
DictionaryVariables
280
     0
  1
STANDARD
  0
DICTIONARYVAR
  5
3B
102
{ACAD_REACTORS
330
38
102
}
330
38
100
DictionaryVariables
280
     0
  1
STANDARD
  0
DICTIONARYVAR
  5
3C
102
{ACAD_REACTORS
330
38
102
}
330
38
100
DictionaryVariables
280
     0
  1

  0
DICTIONARYVAR
  5
3D
102
{ACAD_REACTORS
330
38
102
}
330
38
100
DictionaryVariables
280
     0
  1

  0
DICTIONARYVAR
  5
3E
102
{ACAD_REACTORS
330
38
102
}
330
38
100
DictionaryVariables
280
     0
  1
1
  0
DICTIONARYVAR
  5
3F
102
{ACAD_REACTORS
330
38
102
}
330
38
100
DictionaryVariables
280
     0
  1
1
  0
DICTIONARYVAR
  5
40
102
{ACAD_REACTORS
330
38
102
}
330
38
100
DictionaryVariables
280
     0
  1
0
  0
DICTIONARYVAR
  5
41
102
{ACAD_REACTORS
330
38
102
}
330
38
100
DictionaryVariables
280
     0
  1
1
  0
DICTIONARYVAR
  5
42
102
{ACAD_REACTORS
330
38
102
}
330
38
100
DictionaryVariables
280
     0
  1
15
  0
DICTIONARYVAR
  5
43
102
{ACAD_REACTORS
330
38
102
}
330
38
100
DictionaryVariables
280
     0
  1
0
  0
DICTIONARYVAR
  5
44
102
{ACAD_REACTORS
330
38
102
}
330
38
100
DictionaryVariables
280
     0
  1
0
  0
DICTIONARYVAR
  5
45
102
{ACAD_REACTORS
330
38
102
}
330
38
100
DictionaryVariables
280
     0
  1
2
  0
DICTIONARYVAR
  5
46
102
{ACAD_REACTORS
330
38
102
}
330
38
100
DictionaryVariables
280
     0
  1

  0
DICTIONARYVAR
  5
47
102
{ACAD_REACTORS
330
38
102
}
330
38
100
DictionaryVariables
280
     0
  1
127
  0
DICTIONARY
  5
17
330
16
100
AcDbDictionary
280
     1
281
     1
  0
DICTIONARY
  5
4D
330
4C
100
AcDbDictionary
280
     1
281
     1
  3
ACAD_ROUNDTRIP_2008_TABLESTYLE_CELLSTYLEMAP
360
25F
  0
CELLSTYLEMAP
  5
25F
102
{ACAD_REACTORS
330
4D
102
}
330
4D
100
AcDbCellStyleMap
 90
        3
300
CELLSTYLE
  1
TABLEFORMAT_BEGIN
 90
        5
170
     1
 91
        0
 92
    32768
 62
   257
 93
        1
300
CONTENTFORMAT
  1
CONTENTFORMAT_BEGIN
 90
        0
 91
        0
 92
        4
 93
        0
300

 40
0.0
140
1.0
 94
        5
 62
     0
340
1D
144
6.0
309
CONTENTFORMAT_END
171
     1
301
MARGIN
  1
CELLMARGIN_BEGIN
 40
1.5
 40
1.5
 40
1.5
 40
1.5
 40
0.06
 40
0.06
309
CELLMARGIN_END
 94
        6
 95
        1
302
GRIDFORMAT
  1
GRIDFORMAT_BEGIN
 90
        0
 91
        1
 62
     0
 92
       -2
340
0
 93
        0
 40
0.045
309
GRIDFORMAT_END
 95
        2
302
GRIDFORMAT
  1
GRIDFORMAT_BEGIN
 90
        0
 91
        1
 62
     0
 92
       -2
340
0
 93
        0
 40
0.045
309
GRIDFORMAT_END
 95
        4
302
GRIDFORMAT
  1
GRIDFORMAT_BEGIN
 90
        0
 91
        1
 62
     0
 92
       -2
340
0
 93
        0
 40
0.045
309
GRIDFORMAT_END
 95
        8
302
GRIDFORMAT
  1
GRIDFORMAT_BEGIN
 90
        0
 91
        1
 62
     0
 92
       -2
340
0
 93
        0
 40
0.045
309
GRIDFORMAT_END
 95
       16
302
GRIDFORMAT
  1
GRIDFORMAT_BEGIN
 90
        0
 91
        1
 62
     0
 92
       -2
340
0
 93
        0
 40
0.045
309
GRIDFORMAT_END
 95
       32
302
GRIDFORMAT
  1
GRIDFORMAT_BEGIN
 90
        0
 91
        1
 62
     0
 92
       -2
340
0
 93
        0
 40
0.045
309
GRIDFORMAT_END
309
TABLEFORMAT_END
  1
CELLSTYLE_BEGIN
 90
        1
 91
        1
300
_TITLE
309
CELLSTYLE_END
300
CELLSTYLE
  1
TABLEFORMAT_BEGIN
 90
        5
170
     1
 91
        0
 92
        0
 62
   257
 93
        1
300
CONTENTFORMAT
  1
CONTENTFORMAT_BEGIN
 90
        0
 91
        0
 92
        4
 93
        0
300

 40
0.0
140
1.0
 94
        5
 62
     0
340
1D
144
4.5
309
CONTENTFORMAT_END
171
     1
301
MARGIN
  1
CELLMARGIN_BEGIN
 40
1.5
 40
1.5
 40
1.5
 40
1.5
 40
0.06
 40
0.06
309
CELLMARGIN_END
 94
        6
 95
        1
302
GRIDFORMAT
  1
GRIDFORMAT_BEGIN
 90
        0
 91
        1
 62
     0
 92
       -2
340
0
 93
        0
 40
0.045
309
GRIDFORMAT_END
 95
        2
302
GRIDFORMAT
  1
GRIDFORMAT_BEGIN
 90
        0
 91
        1
 62
     0
 92
       -2
340
0
 93
        0
 40
0.045
309
GRIDFORMAT_END
 95
        4
302
GRIDFORMAT
  1
GRIDFORMAT_BEGIN
 90
        0
 91
        1
 62
     0
 92
       -2
340
0
 93
        0
 40
0.045
309
GRIDFORMAT_END
 95
        8
302
GRIDFORMAT
  1
GRIDFORMAT_BEGIN
 90
        0
 91
        1
 62
     0
 92
       -2
340
0
 93
        0
 40
0.045
309
GRIDFORMAT_END
 95
       16
302
GRIDFORMAT
  1
GRIDFORMAT_BEGIN
 90
        0
 91
        1
 62
     0
 92
       -2
340
0
 93
        0
 40
0.045
309
GRIDFORMAT_END
 95
       32
302
GRIDFORMAT
  1
GRIDFORMAT_BEGIN
 90
        0
 91
        1
 62
     0
 92
       -2
340
0
 93
        0
 40
0.045
309
GRIDFORMAT_END
309
TABLEFORMAT_END
  1
CELLSTYLE_BEGIN
 90
        2
 91
        1
300
_HEADER
309
CELLSTYLE_END
300
CELLSTYLE
  1
TABLEFORMAT_BEGIN
 90
        5
170
     1
 91
        0
 92
        0
 62
   257
 93
        1
300
CONTENTFORMAT
  1
CONTENTFORMAT_BEGIN
 90
        0
 91
        0
 92
        4
 93
        0
300

 40
0.0
140
1.0
 94
        2
 62
     0
340
1D
144
4.5
309
CONTENTFORMAT_END
171
     1
301
MARGIN
  1
CELLMARGIN_BEGIN
 40
1.5
 40
1.5
 40
1.5
 40
1.5
 40
0.06
 40
0.06
309
CELLMARGIN_END
 94
        6
 95
        1
302
GRIDFORMAT
  1
GRIDFORMAT_BEGIN
 90
        0
 91
        1
 62
     0
 92
       -2
340
0
 93
        0
 40
0.045
309
GRIDFORMAT_END
 95
        2
302
GRIDFORMAT
  1
GRIDFORMAT_BEGIN
 90
        0
 91
        1
 62
     0
 92
       -2
340
0
 93
        0
 40
0.045
309
GRIDFORMAT_END
 95
        4
302
GRIDFORMAT
  1
GRIDFORMAT_BEGIN
 90
        0
 91
        1
 62
     0
 92
       -2
340
0
 93
        0
 40
0.045
309
GRIDFORMAT_END
 95
        8
302
GRIDFORMAT
  1
GRIDFORMAT_BEGIN
 90
        0
 91
        1
 62
     0
 92
       -2
340
0
 93
        0
 40
0.045
309
GRIDFORMAT_END
 95
       16
302
GRIDFORMAT
  1
GRIDFORMAT_BEGIN
 90
        0
 91
        1
 62
     0
 92
       -2
340
0
 93
        0
 40
0.045
309
GRIDFORMAT_END
 95
       32
302
GRIDFORMAT
  1
GRIDFORMAT_BEGIN
 90
        0
 91
        1
 62
     0
 92
       -2
340
0
 93
        0
 40
0.045
309
GRIDFORMAT_END
309
TABLEFORMAT_END
  1
CELLSTYLE_BEGIN
 90
        3
 91
        2
300
_DATA
309
CELLSTYLE_END
  0
ENDSEC
  0
SECTION
  2
ACDSDATA
 70
     2
 71
     8
  0
ACDSSCHEMA
 90
        0
  1
AcDb_Thumbnail_Schema
  2
AcDbDs::ID
280
    10
 91
        8
  2
Thumbnail_Data
280
    15
 91
        0
101
ACDSRECORD
 95
        0
 90
        1
  2
AcDbDs::TreatedAsObjectData
280
     1
291
     1
101
ACDSRECORD
 95
        0
 90
        2
  2
AcDbDs::Legacy
280
     1
291
     1
101
ACDSRECORD
  1
AcDbDs::ID
 90
        3
  2
AcDs:Indexable
280
     1
291
     1
101
ACDSRECORD
  1
AcDbDs::ID
 90
        4
  2
AcDbDs::HandleAttribute
280
     7
282
     1
  0
ACDSSCHEMA
 90
        1
  1
AcDbDs::TreatedAsObjectDataSchema
  2
AcDbDs::TreatedAsObjectData
280
     1
 91
        0
  0
ACDSSCHEMA
 90
        2
  1
AcDbDs::LegacySchema
  2
AcDbDs::Legacy
280
     1
 91
        0
  0
ACDSSCHEMA
 90
        3
  1
AcDbDs::IndexedPropertySchema
  2
AcDs:Indexable
280
     1
 91
        0
  0
ACDSSCHEMA
 90
        4
  1
AcDbDs::HandleAttributeSchema
  2
AcDbDs::HandleAttribute
280
     7
 91
        1
284
     1
  0
ACDSRECORD
 90
        0
  2
AcDbDs::ID
280
    10
320
16
  2
Thumbnail_Data
280
    15
 94
     1028
310
89504E470D0A1A0A0000000D49484452000000B40000008B0803000000FF3F437800000300504C5445000000000000FFFFFF0000000000000000000000000000000000000000000000000000330000660000990000CC0000FF0033000033330033660033990033CC0033FF0066000066330066660066990066CC0066FF0099
310
000099330099660099990099CC0099FF00CC0000CC3300CC6600CC9900CCCC00CCFF00FF0000FF3300FF6600FF9900FFCC00FFFF3300003300333300663300993300CC3300FF3333003333333333663333993333CC3333FF3366003366333366663366993366CC3366FF3399003399333399663399993399CC3399FF33CC00
310
33CC3333CC6633CC9933CCCC33CCFF33FF0033FF3333FF6633FF9933FFCC33FFFF6600006600336600666600996600CC6600FF6633006633336633666633996633CC6633FF6666006666336666666666996666CC6666FF6699006699336699666699996699CC6699FF66CC0066CC3366CC6666CC9966CCCC66CCFF66FF0066
310
FF3366FF6666FF9966FFCC66FFFF9900009900339900669900999900CC9900FF9933009933339933669933999933CC9933FF9966009966339966669966999966CC9966FF9999009999339999669999999999CC9999FF99CC0099CC3399CC6699CC9999CCCC99CCFF99FF0099FF3399FF6699FF9999FFCC99FFFFCC0000CC00
310
33CC0066CC0099CC00CCCC00FFCC3300CC3333CC3366CC3399CC33CCCC33FFCC6600CC6633CC6666CC6699CC66CCCC66FFCC9900CC9933CC9966CC9999CC99CCCC99FFCCCC00CCCC33CCCC66CCCC99CCCCCCCCCCFFCCFF00CCFF33CCFF66CCFF99CCFFCCCCFFFFFF0000FF0033FF0066FF0099FF00CCFF00FFFF3300FF3333
310
FF3366FF3399FF33CCFF33FFFF6600FF6633FF6666FF6699FF66CCFF66FFFF9900FF9933FF9966FF9999FF99CCFF99FFFFCC00FFCC33FFCC66FFCC99FFCCCCFFCCFFFFFF00FFFF33FFFF66FFFF99FFFFCCFFFFFF0000000D0D0D1A1A1A2828283535354343435050505D5D5D6B6B6B787878868686939393A1A1A1AEAEAEBB
310
BBBBC9C9C9D6D6D6E4E4E4F1F1F1FFFFFF000000000000000000000000000000000000000000000000000000000000C11FEF66000000BF4944415478DAEDDD310AC0200C0550EF7F4B0FE1DEC1C50ED2424331E46511B2F4E1F2F98B6D23DDF4DED20DF46FE8D1E73167D9DFE769DF3EEEDF7F6041E7B965686868E892E894
310
89080D0D0D0D7D787311E3D0D0D0D0D0D0D0D0D0D0B5D0EA163434343474385A8C434343434343434343431743AB5BD0D0D0D0D0E168310E0D0D0D0D0D0D0D0D0D5D0CAD6E414343434387A3C5383434343434343434347431B4BA050D0D0D0D1D8E16E3D0D0D0D087A333BEF42DC6A177E891F0970C17F4824A586DA1CD1A
310
0000000049454E44AE426082
  0
ENDSEC
  0
EOF
