  0
SECTION
  2
HEADER
  9
$ACADVER
  1
AC1032
  9
$ACADMAINTVER
 90
      197
  9
$DWGCODEPAGE
  3
ANSI_936
  9
$REQUIREDVERSIONS
160
                 0
  9
$INSBASE
 10
0.0
 20
0.0
 30
0.0
  9
$EXTMIN
 10
-125.8142521038857
 20
-426.2721655436362
 30
0.0
  9
$EXTMAX
 10
638.739470090253
 20
10.60907897952003
 30
0.0
  9
$LIMMIN
 10
0.0
 20
0.0
  9
$LIMMAX
 10
12.0
 20
9.0
  9
$ORTHOMODE
 70
     0
  9
$REGENMODE
 70
     1
  9
$FILLMODE
 70
     1
  9
$QTEXTMODE
 70
     0
  9
$MIRRTEXT
 70
     1
  9
$LTSCALE
 40
3.0
  9
$ATTMODE
 70
     1
  9
$TEXTSIZE
 40
0.889
  9
$TRACEWID
 40
0.05
  9
$TEXTSTYLE
  7
Standard
  9
$CLAYER
  8
DIM
  9
$CELTYPE
  6
ByLayer
  9
$CECOLOR
 62
   256
  9
$CELTSCALE
 40
1.0
  9
$DISPSILH
 70
     0
  9
$DIMSCALE
 40
1.0
  9
$DIMASZ
 40
1.27
  9
$DIMEXO
 40
0.381
  9
$DIMDLI
 40
0.95
  9
$DIMRND
 40
0.0
  9
$DIMDLE
 40
0.0
  9
$DIMEXE
 40
0.381
  9
$DIMTP
 40
0.0
  9
$DIMTM
 40
0.0
  9
$DIMTXT
 40
0.889
  9
$DIMCEN
 40
0.0
  9
$DIMTSZ
 40
0.0
  9
$DIMTOL
 70
     0
  9
$DIMLIM
 70
     0
  9
$DIMTIH
 70
     0
  9
$DIMTOH
 70
     0
  9
$DIMSE1
 70
     0
  9
$DIMSE2
 70
     0
  9
$DIMTAD
 70
     0
  9
$DIMZIN
 70
     0
  9
$DIMBLK
  1

  9
$DIMASO
 70
     1
  9
$DIMSHO
 70
     1
  9
$DIMPOST
  1

  9
$DIMAPOST
  1

  9
$DIMALT
 70
     0
  9
$DIMALTD
 70
     2
  9
$DIMALTF
 40
25.4
  9
$DIMLFAC
 40
1.0
  9
$DIMTOFL
 70
     0
  9
$DIMTVP
 40
0.0
  9
$DIMTIX
 70
     0
  9
$DIMSOXD
 70
     0
  9
$DIMSAH
 70
     0
  9
$DIMBLK1
  1

  9
$DIMBLK2
  1

  9
$DIMSTYLE
  2
3DEC X 2
  9
$DIMCLRD
 70
     0
  9
$DIMCLRE
 70
     0
  9
$DIMCLRT
 70
     0
  9
$DIMTFAC
 40
1.0
  9
$DIMGAP
 40
0.381
  9
$DIMJUST
 70
     0
  9
$DIMSD1
 70
     0
  9
$DIMSD2
 70
     0
  9
$DIMTOLJ
 70
     1
  9
$DIMTZIN
 70
     0
  9
$DIMALTZ
 70
     0
  9
$DIMALTTZ
 70
     0
  9
$DIMUPT
 70
     0
  9
$DIMDEC
 70
     3
  9
$DIMTDEC
 70
     3
  9
$DIMALTU
 70
     2
  9
$DIMALTTD
 70
     2
  9
$DIMTXSTY
  7
Standard
  9
$DIMAUNIT
 70
     0
  9
$DIMADEC
 70
     0
  9
$DIMALTRND
 40
0.0
  9
$DIMAZIN
 70
     0
  9
$DIMDSEP
 70
    46
  9
$DIMATFIT
 70
     3
  9
$DIMFRAC
 70
     0
  9
$DIMLDRBLK
  1

  9
$DIMLUNIT
 70
     2
  9
$DIMLWD
 70
    -2
  9
$DIMLWE
 70
    -2
  9
$DIMTMOVE
 70
     0
  9
$DIMFXL
 40
1.0
  9
$DIMFXLON
 70
     0
  9
$DIMJOGANG
 40
0.7853981633974483
  9
$DIMTFILL
 70
     0
  9
$DIMTFILLCLR
 70
     0
  9
$DIMARCSYM
 70
     0
  9
$DIMLTYPE
  6

  9
$DIMLTEX1
  6

  9
$DIMLTEX2
  6

  9
$DIMTXTDIRECTION
 70
     0
  9
$LUNITS
 70
     2
  9
$LUPREC
 70
     8
  9
$SKETCHINC
 40
0.1
  9
$FILLETRAD
 40
0.0
  9
$AUNITS
 70
     0
  9
$AUPREC
 70
     8
  9
$MENU
  1
.
  9
$ELEVATION
 40
0.0
  9
$PELEVATION
 40
0.0
  9
$THICKNESS
 40
0.0
  9
$LIMCHECK
 70
     0
  9
$CHAMFERA
 40
0.0
  9
$CHAMFERB
 40
0.0
  9
$CHAMFERC
 40
1.0
  9
$CHAMFERD
 40
0.0
  9
$SKPOLY
 70
     0
  9
$TDCREATE
 40
2452333.424745370
  9
$TDUCREATE
 40
2452333.091417095
  9
$TDUPDATE
 40
2460318.657638889
  9
$TDUUPDATE
 40
2460318.324311481
  9
$TDINDWG
 40
9.3102067708
  9
$TDUSRTIMER
 40
9.3101962616
  9
$USRTIMER
 70
     1
  9
$ANGBASE
 50
0.0
  9
$ANGDIR
 70
     0
  9
$PDMODE
 70
     0
  9
$PDSIZE
 40
0.0
  9
$PLINEWID
 40
0.0
  9
$SPLFRAME
 70
     0
  9
$SPLINETYPE
 70
     6
  9
$SPLINESEGS
 70
     8
  9
$HANDSEED
  5
27B
  9
$SURFTAB1
 70
     6
  9
$SURFTAB2
 70
     6
  9
$SURFTYPE
 70
     6
  9
$SURFU
 70
     6
  9
$SURFV
 70
     6
  9
$UCSBASE
  2

  9
$UCSNAME
  2

  9
$UCSORG
 10
0.0
 20
0.0
 30
0.0
  9
$UCSXDIR
 10
1.0
 20
0.0
 30
0.0
  9
$UCSYDIR
 10
0.0
 20
1.0
 30
0.0
  9
$UCSORTHOREF
  2

  9
$UCSORTHOVIEW
 70
     0
  9
$UCSORGTOP
 10
0.0
 20
0.0
 30
0.0
  9
$UCSORGBOTTOM
 10
0.0
 20
0.0
 30
0.0
  9
$UCSORGLEFT
 10
0.0
 20
0.0
 30
0.0
  9
$UCSORGRIGHT
 10
0.0
 20
0.0
 30
0.0
  9
$UCSORGFRONT
 10
0.0
 20
0.0
 30
0.0
  9
$UCSORGBACK
 10
0.0
 20
0.0
 30
0.0
  9
$PUCSBASE
  2

  9
$PUCSNAME
  2

  9
$PUCSORG
 10
0.0
 20
0.0
 30
0.0
  9
$PUCSXDIR
 10
1.0
 20
0.0
 30
0.0
  9
$PUCSYDIR
 10
0.0
 20
1.0
 30
0.0
  9
$PUCSORTHOREF
  2

  9
$PUCSORTHOVIEW
 70
     0
  9
$PUCSORGTOP
 10
0.0
 20
0.0
 30
0.0
  9
$PUCSORGBOTTOM
 10
0.0
 20
0.0
 30
0.0
  9
$PUCSORGLEFT
 10
0.0
 20
0.0
 30
0.0
  9
$PUCSORGRIGHT
 10
0.0
 20
0.0
 30
0.0
  9
$PUCSORGFRONT
 10
0.0
 20
0.0
 30
0.0
  9
$PUCSORGBACK
 10
0.0
 20
0.0
 30
0.0
  9
$USERI1
 70
     0
  9
$USERI2
 70
     0
  9
$USERI3
 70
     0
  9
$USERI4
 70
     0
  9
$USERI5
 70
     0
  9
$USERR1
 40
0.0
  9
$USERR2
 40
0.0
  9
$USERR3
 40
0.0
  9
$USERR4
 40
0.0
  9
$USERR5
 40
0.0
  9
$WORLDVIEW
 70
     1
  9
$SHADEDGE
 70
     3
  9
$SHADEDIF
 70
    70
  9
$TILEMODE
 70
     1
  9
$MAXACTVP
 70
    48
  9
$PINSBASE
 10
0.0
 20
0.0
 30
0.0
  9
$PLIMCHECK
 70
     0
  9
$PEXTMIN
 10
0.5944070135562951
 20
0.6817607850565075
 30
0.0
  9
$PEXTMAX
 10
9.523703222664178
 20
6.995404569274202
 30
0.0
  9
$PLIMMIN
 10
-0.7874015748031497
 20
-0.2952755905511811
  9
$PLIMMAX
 10
10.90551181102362
 20
7.97244094488189
  9
$UNITMODE
 70
     0
  9
$VISRETAIN
 70
     1
  9
$PLINEGEN
 70
     0
  9
$PSLTSCALE
 70
     1
  9
$TREEDEPTH
 70
  3020
  9
$CMLSTYLE
  2
Standard
  9
$CMLJUST
 70
     0
  9
$CMLSCALE
 40
1.0
  9
$PROXYGRAPHICS
 70
     1
  9
$MEASUREMENT
 70
     0
  9
$CELWEIGHT
370
    -1
  9
$ENDCAPS
280
     0
  9
$JOINSTYLE
280
     0
  9
$LWDISPLAY
290
     0
  9
$INSUNITS
 70
     0
  9
$HYPERLINKBASE
  1

  9
$STYLESHEET
  1

  9
$XEDIT
290
     1
  9
$CEPSNTYPE
380
     0
  9
$PSTYLEMODE
290
     1
  9
$FINGERPRINTGUID
  2
{76CE1D0E-5699-8448-A505-85BA02D6DE25}
  9
$VERSIONGUID
  2
{13D05268-93FF-4C08-98F8-ABA905CEE354}
  9
$EXTNAMES
290
     1
  9
$PSVPSCALE
 40
0.0
  9
$OLESTARTUP
290
     0
  9
$SORTENTS
280
   127
  9
$INDEXCTL
280
     0
  9
$HIDETEXT
280
     1
  9
$XCLIPFRAME
280
     2
  9
$HALOGAP
280
     0
  9
$OBSCOLOR
 70
   257
  9
$OBSLTYPE
280
     0
  9
$INTERSECTIONDISPLAY
280
     0
  9
$INTERSECTIONCOLOR
 70
   257
  9
$DIMASSOC
280
     1
  9
$PROJECTNAME
  1

  9
$CAMERADISPLAY
290
     0
  9
$LENSLENGTH
 40
50.0
  9
$CAMERAHEIGHT
 40
0.0
  9
$STEPSPERSEC
 40
2.0
  9
$STEPSIZE
 40
6.0
  9
$3DDWFPREC
 40
2.0
  9
$PSOLWIDTH
 40
0.25
  9
$PSOLHEIGHT
 40
4.0
  9
$LOFTANG1
 40
1.570796326794896
  9
$LOFTANG2
 40
1.570796326794896
  9
$LOFTMAG1
 40
0.0
  9
$LOFTMAG2
 40
0.0
  9
$LOFTPARAM
 70
     7
  9
$LOFTNORMALS
280
     1
  9
$LATITUDE
 40
37.795
  9
$LONGITUDE
 40
-122.394
  9
$NORTHDIRECTION
 40
0.0
  9
$TIMEZONE
 70
 -8000
  9
$LIGHTGLYPHDISPLAY
280
     1
  9
$TILEMODELIGHTSYNCH
280
     1
  9
$CMATERIAL
347
12B
  9
$SOLIDHIST
280
     1
  9
$SHOWHIST
280
     1
  9
$DWFFRAME
280
     2
  9
$DGNFRAME
280
     0
  9
$REALWORLDSCALE
290
     1
  9
$INTERFERECOLOR
 62
   256
  9
$INTERFEREOBJVS
345
143
  9
$INTERFEREVPVS
346
144
  9
$CSHADOW
280
     0
  9
$SHADOWPLANELOCATION
 40
0.0
  0
ENDSEC
  0
SECTION
  2
CLASSES
  0
CLASS
  1
ACDBDICTIONARYWDFLT
  2
AcDbDictionaryWithDefault
  3
ObjectDBX Classes
 90
        0
 91
        1
280
     0
281
     0
  0
CLASS
  1
DICTIONARYVAR
  2
AcDbDictionaryVar
  3
ObjectDBX Classes
 90
        0
 91
       12
280
     0
281
     0
  0
CLASS
  1
PLOTSETTINGS
  2
AcDbPlotSettings
  3
ObjectDBX Classes
 90
        0
 91
        0
280
     0
281
     0
  0
CLASS
  1
SORTENTSTABLE
  2
AcDbSortentsTable
  3
ObjectDBX Classes
 90
        0
 91
        2
280
     0
281
     0
  0
CLASS
  1
MATERIAL
  2
AcDbMaterial
  3
ObjectDBX Classes
 90
     1153
 91
        3
280
     0
281
     0
  0
CLASS
  1
VISUALSTYLE
  2
AcDbVisualStyle
  3
ObjectDBX Classes
 90
     4095
 91
        3
280
     0
281
     0
  0
CLASS
  1
SCALE
  2
AcDbScale
  3
ObjectDBX Classes
 90
     1153
 91
       33
280
     0
281
     0
  0
CLASS
  1
TABLESTYLE
  2
AcDbTableStyle
  3
ObjectDBX Classes
 90
     4095
 91
        1
280
     0
281
     0
  0
CLASS
  1
MLEADERSTYLE
  2
AcDbMLeaderStyle
  3
ACDB_MLEADERSTYLE_CLASS
 90
     4095
 91
        0
280
     0
281
     0
  0
CLASS
  1
EXACXREFPANELOBJECT
  2
ExAcXREFPanelObject
  3
EXAC_ESW
 90
     1025
 91
        0
280
     1
281
     0
  0
CLASS
  1
NPOCOLLECTION
  2
AcDbImpNonPersistentObjectsCollection
  3
ObjectDBX Classes
 90
     1153
 91
        0
280
     0
281
     0
  0
CLASS
  1
CELLSTYLEMAP
  2
AcDbCellStyleMap
  3
ObjectDBX Classes
 90
     1152
 91
        1
280
     0
281
     0
  0
CLASS
  1
FIELD
  2
AcDbField
  3
ObjectDBX Classes
 90
     1152
 91
        0
280
     0
281
     0
  0
CLASS
  1
FIELDLIST
  2
AcDbFieldList
  3
ObjectDBX Classes
 90
     1152
 91
        1
280
     0
281
     0
  0
CLASS
  1
ACAD_EVALUATION_GRAPH
  2
AcDbEvalGraph
  3
ObjectDBX Classes
 90
     1153
 91
        0
280
     0
281
     0
  0
CLASS
  1
ACAECUSTOBJ
  2
AcAeEditorObj
  3
AcAeEditorObj
 90
     1024
 91
        0
280
     1
281
     0
  0
CLASS
  1
ACDB_DYNAMICBLOCKPURGEPREVENTER_VERSION
  2
AcDbDynamicBlockPurgePreventer
  3
ObjectDBX Classes
 90
     1153
 91
        0
280
     0
281
     0
  0
CLASS
  1
SOLID_BACKGROUND
  2
AcDbSolidBackground
  3
SCENEOE
 90
     4095
 91
        0
280
     0
281
     0
  0
CLASS
  1
ACME_DOCUMENT
  2
AcMeDbDoc
  3
AcMeServices
 90
     1024
 91
        0
280
     1
281
     0
  0
CLASS
  1
AMGSETTINGSOBJ
  2
AmgSettingsObj
  3
"AcadM|Product Description: AutoCAD Mechanical|Company: Autodesk, Inc."
 90
     1024
 91
        0
280
     1
281
     0
  0
CLASS
  1
ACMESCOPE
  2
AcMeScope
  3
AcMeServices
 90
     1024
 91
        0
280
     1
281
     0
  0
CLASS
  1
ACMECOMMANDHISTORY
  2
AcMeCommandHistory
  3
AcMeServices
 90
     1024
 91
        0
280
     1
281
     0
  0
CLASS
  1
ACIMSYSVARMAN
  2
AcImSysVarManager
  3
AcMeServices
 90
     1024
 91
        0
280
     1
281
     0
  0
CLASS
  1
ACIMINTSYSVAR
  2
AcImIntSysVar
  3
AcMeServices
 90
     1024
 91
        0
280
     1
281
     0
  0
CLASS
  1
ACMESTATEMGR
  2
AcMeStateMgr
  3
AcMeServices
 90
     1024
 91
        0
280
     1
281
     0
  0
CLASS
  1
ACDBENTITYCACHE
  2
AcMeEntityCache
  3
AcMeServices
 90
     1024
 91
        0
280
     1
281
     0
  0
CLASS
  1
ACGREFMASTER
  2
AcGrefMaster
  3
AcAttribServices
 90
     1024
 91
        0
280
     1
281
     0
  0
CLASS
  1
ACME_DATABASE
  2
AcMeDbDatabase
  3
AcMeServices
 90
     1024
 91
        0
280
     1
281
     0
  0
CLASS
  1
ACRFINSADJUSTERMGR
  2
AcRfInsAdjusterMgr
  3
AcMeServices
 90
     1024
 91
        0
280
     1
281
     0
  0
CLASS
  1
ACGREFACADMASTER
  2
AcGrefacadMaster
  3
AcGrefServices
 90
     1024
 91
        0
280
     1
281
     0
  0
CLASS
  1
AMDTMENUSTATEMGR
  2
AmdtMenuStateMgr
  3
McadcomServices
 90
     1024
 91
        0
280
     1
281
     0
  0
CLASS
  1
AMDTMCOMMENUSTATE
  2
AmdtMcomMenuState
  3
McadcomServices
 90
     1024
 91
        0
280
     1
281
     0
  0
CLASS
  1
AMIMASTER
  2
AmiMaster
  3
AmiServices
 90
     1024
 91
        0
280
     1
281
     0
  0
CLASS
  1
MAPIAMMOUDLE
  2
MApiAmModule
  3
MApiAmServices
 90
     1024
 91
        0
280
     1
281
     0
  0
CLASS
  1
ACIMSTRSYSVAR
  2
AcImStrSysVar
  3
AcMeServices
 90
     1024
 91
        0
280
     1
281
     0
  0
CLASS
  1
AMDTAMMENUSTATE
  2
AmdtAmMenuState
  3
DesignerAssemblies
 90
     1024
 91
        0
280
     1
281
     0
  0
CLASS
  1
ACAMPROJECT
  2
AcAmProject
  3
DesignerAssemblies
 90
     1024
 91
        0
280
     1
281
     0
  0
CLASS
  1
ACAMGRCOMPDEF
  2
AcAmGrCompDef
  3
DesignerAssemblies
 90
     1024
 91
        0
280
     1
281
     0
  0
CLASS
  1
ACAMCOMPDEF
  2
AcAmCompDef
  3
DesignerAssemblies
 90
     1024
 91
        0
280
     1
281
     0
  0
CLASS
  1
ACAMCOMPDEFMGR
  2
AcAmCompDefMgr
  3
DesignerAssemblies
 90
     1024
 91
        0
280
     1
281
     0
  0
CLASS
  1
AMCONTEXTMGR
  2
AcAmContextMgr
  3
DesignerAssemblies
 90
     1024
 91
        0
280
     1
281
     0
  0
CLASS
  1
ACAMCONTEXTMODELER
  2
AcAmContextModeler
  3
DesignerAssemblies
 90
     1024
 91
        0
280
     1
281
     0
  0
CLASS
  1
ACMDATADICTIONARY
  2
AcmDataDictionary
  3
"AcmSymBB|Product Description: AutoCAD Mechanical|Company: Autodesk, Inc."
 90
     1024
 91
        0
280
     1
281
     0
  0
CLASS
  1
ACAMGRCOMPDEFSET
  2
AcAmGrCompDefSet
  3
DesignerAssemblies
 90
     1024
 91
        0
280
     1
281
     0
  0
CLASS
  1
AMDTBROWSERDBTAB
  2
AmdtBrowserDbTab
  3
McadcomServices
 90
     1024
 91
        0
280
     1
281
     0
  0
CLASS
  1
CBROWSERAPPOBJECT
  2
CBrowserAppObject
  3
McadcomServices
 90
     1024
 91
        0
280
     1
281
     0
  0
CLASS
  1
DM_PLACEHOLDER
  2
AcDmSelsetPlaceholder
  3
McadcomServices
 90
     1024
 91
        0
280
     1
281
     0
  0
CLASS
  1
ACMSTANDARDANSI
  2
AcmStandardANSI
  3
"Amdt_StdImp|Product Description: AutoCAD Mechanical|Company: Autodesk, Inc."
 90
     1024
 91
        0
280
     1
281
     0
  0
CLASS
  1
ACMSURFSTANDARDANSI
  2
AcmSurfTextStdANSI
  3
"Amdt_StdImp|Product Description: AutoCAD Mechanical|Company: Autodesk, Inc."
 90
     1024
 91
        0
280
     1
281
     0
  0
CLASS
  1
ACMFCFSTANDARDANSI
  2
AcmFCFStdANSI
  3
"Amdt_StdImp|Product Description: AutoCAD Mechanical|Company: Autodesk, Inc."
 90
     1024
 91
        0
280
     1
281
     0
  0
CLASS
  1
ACMWELDSTANDARDANSI
  2
AcmWeldingStdANSI
  3
"Amdt_StdImp|Product Description: AutoCAD Mechanical|Company: Autodesk, Inc."
 90
     1024
 91
        0
280
     1
281
     0
  0
CLASS
  1
ACMIDSTANDARDANSI
  2
AcmIdStdANSI
  3
"Amdt_StdImp|Product Description: AutoCAD Mechanical|Company: Autodesk, Inc."
 90
     1024
 91
        0
280
     1
281
     0
  0
CLASS
  1
ACMDATUMSTANDARDANSI
  2
AcmDatumStdANSI
  3
"Amdt_StdImp|Product Description: AutoCAD Mechanical|Company: Autodesk, Inc."
 90
     1024
 91
        0
280
     1
281
     0
  0
CLASS
  1
ACMBOMSTANDARDANSI
  2
AcmBOMStdANSI
  3
"Amdt_StdImp|Product Description: AutoCAD Mechanical|Company: Autodesk, Inc."
 90
     1024
 91
        0
280
     1
281
     0
  0
CLASS
  1
ACMDETAILSTANDARDANSI
  2
AmdtDetailSymStdANSI
  3
"Amdt_StdImp|Product Description: AutoCAD Mechanical|Company: Autodesk, Inc."
 90
     1024
 91
        0
280
     1
281
     0
  0
CLASS
  1
ACMSECTIONSTANDARDANSI
  2
AmdtSectionSymStdANSI
  3
"Amdt_StdImp|Product Description: AutoCAD Mechanical|Company: Autodesk, Inc."
 90
     1024
 91
        0
280
     1
281
     0
  0
CLASS
  1
ACMCENTERLINESTANDARDANSI
  2
AmdtCenterLineStdANSI
  3
"Amdt_StdImp|Product Description: AutoCAD Mechanical|Company: Autodesk, Inc."
 90
     1024
 91
        0
280
     1
281
     0
  0
CLASS
  1
ACMTHREADLINESTANDARDANSI
  2
AmdtThreadLineStdANSI
  3
"Amdt_StdImp|Product Description: AutoCAD Mechanical|Company: Autodesk, Inc."
 90
     1024
 91
        0
280
     1
281
     0
  0
CLASS
  1
ACMNOTESTANDARDANSI
  2
AmdtNoteStdANSI
  3
"Amdt_StdImp|Product Description: AutoCAD Mechanical|Company: Autodesk, Inc."
 90
     1024
 91
        0
280
     1
281
     0
  0
CLASS
  1
ACMTAPERSTANDARDANSI
  2
AcmTaperStdANSI
  3
"Amdt_StdImp|Product Description: AutoCAD Mechanical|Company: Autodesk, Inc."
 90
     1024
 91
        0
280
     1
281
     0
  0
CLASS
  1
ACMANOOTATIONVIEWSTANDARDANSI
  2
AmdtAnViewStdANSI
  3
"Amdt_StdImp|Product Description: AutoCAD Mechanical|Company: Autodesk, Inc."
 90
     1024
 91
        0
280
     1
281
     0
  0
CLASS
  1
ACAMGLAYSTD
  2
AcAmgLayStd
  3
"AmgLay|Product Description: AutoCAD Mechanical|Company: Autodesk, Inc."
 90
     1024
 91
        0
280
     1
281
     0
  0
CLASS
  1
ACAMGDIMSTD
  2
AcAmgDimStd
  3
"AmgDim|Product Description: AutoCAD Mechanical|Company: Autodesk, Inc."
 90
     1024
 91
        0
280
     1
281
     0
  0
CLASS
  1
AMGOBJPROPCFG
  2
AmgObjPropCfg
  3
"AmgLay|Product Description: AutoCAD Mechanical|Company: Autodesk, Inc."
 90
     1025
 91
        0
280
     1
281
     0
  0
CLASS
  1
ACAMGHOLECHARTSTDANSI
  2
AcAmgHoleChartStdANSI
  3
AmgDim|Product Description: AutoCAD Mechanical|Company: Autodesk, Inc.
 90
     1024
 91
        0
280
     1
281
     0
  0
CLASS
  1
ACAMGTITLESTD
  2
AcAmgTitleStd
  3
"AmgTitle|Product Description: AutoCAD Mechanical|Company: Autodesk, Inc."
 90
     4095
 91
        0
280
     1
281
     0
  0
CLASS
  1
AMDTNOTETEMPLATEDB
  2
AmdtNoteTemplateDB
  3
AcmSymBB|Product Description: AutoCAD Mechanical|Company: Autodesk, Inc.
 90
     1024
 91
        0
280
     1
281
     0
  0
CLASS
  1
ACAMGFILTERDAT
  2
AcAmgFilterDat
  3
"AcadM|Product Description: AutoCAD Mechanical|Company: Autodesk, Inc."
 90
     1024
 91
        0
280
     1
281
     0
  0
CLASS
  1
CAMSSTRUCTBTNSTATE
  2
StructBtnState
  3
DesignerAssemblies
 90
     1024
 91
        0
280
     1
281
     0
  0
CLASS
  1
ACDBASSOCACTION
  2
AcDbAssocAction
  3
ObjectDBX Classes
 90
     1025
 91
        0
280
     0
281
     0
  0
CLASS
  1
ACDBASSOCARRAYACTIONBODY
  2
AcDbAssocArrayActionBody
  3
ObjectDBX Classes
 90
     1025
 91
        0
280
     0
281
     0
  0
CLASS
  1
ACDBASSOCDEPENDENCY
  2
AcDbAssocDependency
  3
ObjectDBX Classes
 90
     1025
 91
        0
280
     0
281
     0
  0
CLASS
  1
ACDBASSOCVERTEXACTIONPARAM
  2
AcDbAssocVertexActionParam
  3
ObjectDBX Classes
 90
     1025
 91
        0
280
     0
281
     0
  0
CLASS
  1
ACDBASSOCNETWORK
  2
AcDbAssocNetwork
  3
ObjectDBX Classes
 90
     1025
 91
        0
280
     0
281
     0
  0
CLASS
  1
ACDBSECTIONVIEWSTYLE
  2
AcDbSectionViewStyle
  3
ObjectDBX Classes
 90
     1025
 91
        0
280
     0
281
     0
  0
CLASS
  1
ACDBDETAILVIEWSTYLE
  2
AcDbDetailViewStyle
  3
ObjectDBX Classes
 90
     1025
 91
        0
280
     0
281
     0
  0
CLASS
  1
ACDBASSOCARRAYRECTANGULARPARAMETERS
  2
AcDbAssocArrayRectangularParameters
  3
ObjectDBX Classes
 90
     1025
 91
        0
280
     0
281
     0
  0
ENDSEC
  0
SECTION
  2
TABLES
  0
TABLE
  2
VPORT
  5
11F
330
0
100
AcDbSymbolTable
 70
     1
  0
VPORT
  5
120
330
11F
100
AcDbSymbolTableRecord
100
AcDbViewportTableRecord
  2
*Active
 70
     0
 10
0.0
 20
0.0
 11
1.0
 21
1.0
 12
388.1807901706129
 22
-133.1211992561109
 13
0.0
 23
0.0
 14
0.5
 24
0.5
 15
0.5
 25
0.5
 16
0.0
 26
0.0
 36
1.0
 17
0.0
 27
0.0
 37
0.0
 40
276.0848266881644
 41
2.311515151515151
 42
50.0
 43
0.0
 44
0.0
 50
0.0
 51
0.0
 71
     0
 72
 20000
 73
     1
 74
     1
 75
     0
 76
     0
 77
     0
 78
     0
281
     0
 65
     1
110
0.0
120
0.0
130
0.0
111
1.0
121
0.0
131
0.0
112
0.0
122
1.0
132
0.0
 79
     0
146
0.0
348
121
 60
     3
 61
     5
292
     1
282
     1
141
0.0
142
0.0
1001
ACAD_NAV_VCDISPLAY
1070
     3
  0
ENDTAB
  0
TABLE
  2
LTYPE
  5
11A
330
0
100
AcDbSymbolTable
 70
     1
  0
LTYPE
  5
11B
330
11A
100
AcDbSymbolTableRecord
100
AcDbLinetypeTableRecord
  2
ByBlock
 70
     0
  3

 72
    65
 73
     0
 40
0.0
  0
LTYPE
  5
11C
330
11A
100
AcDbSymbolTableRecord
100
AcDbLinetypeTableRecord
  2
ByLayer
 70
     0
  3

 72
    65
 73
     0
 40
0.0
  0
LTYPE
  5
F
330
11A
100
AcDbSymbolTableRecord
100
AcDbLinetypeTableRecord
  2
Continuous
 70
     0
  3
Solid line
 72
    65
 73
     0
 40
0.0
  0
ENDTAB
  0
TABLE
  2
LAYER
  5
1C
102
{ACAD_XDICTIONARY
360
1D
102
}
330
0
100
AcDbSymbolTable
 70
     5
  0
LAYER
  5
7
102
{ACAD_XDICTIONARY
360
8
102
}
330
1C
100
AcDbSymbolTableRecord
100
AcDbLayerTableRecord
  2
0
 70
     0
 62
     7
  6
Continuous
370
    -3
390
A
347
D
348
0
  0
LAYER
  5
13E
102
{ACAD_XDICTIONARY
360
13F
102
}
330
1C
100
AcDbSymbolTableRecord
100
AcDbLayerTableRecord
  2
DIM
 70
     0
 62
     4
  6
Continuous
370
    13
390
A
347
D
348
0
  0
LAYER
  5
188
102
{ACAD_XDICTIONARY
360
189
102
}
330
1C
100
AcDbSymbolTableRecord
100
AcDbLayerTableRecord
  2
5
 70
     0
 62
    90
  6
Continuous
370
    -3
390
A
347
D
348
0
  0
LAYER
  5
17
102
{ACAD_XDICTIONARY
360
18
102
}
330
1C
100
AcDbSymbolTableRecord
100
AcDbLayerTableRecord
  2
OBJ4
 70
     0
 62
     7
  6
Continuous
370
    30
390
A
347
D
348
0
  0
LAYER
  5
16A
330
1C
100
AcDbSymbolTableRecord
100
AcDbLayerTableRecord
  2
6
 70
     0
 62
     7
  6
Continuous
370
    -3
390
A
347
D
348
0
1001
AcAecLayerStandard
1000

1000

  0
ENDTAB
  0
TABLE
  2
STYLE
  5
117
330
0
100
AcDbSymbolTable
 70
     2
  0
STYLE
  5
118
330
117
100
AcDbSymbolTableRecord
100
AcDbTextStyleTableRecord
  2
Standard
 70
     0
 40
0.0
 41
1.0
 50
0.0
 71
     0
 42
0.889
  3
txt
  4

  0
STYLE
  5
16C
330
117
100
AcDbSymbolTableRecord
100
AcDbTextStyleTableRecord
  2
ROMANS
 70
     0
 40
0.018
 41
0.8
 50
0.0
 71
     0
 42
0.018
  3
SIMPLEX
  4

  0
ENDTAB
  0
TABLE
  2
VIEW
  5
11D
330
0
100
AcDbSymbolTable
 70
     0
  0
ENDTAB
  0
TABLE
  2
UCS
  5
11E
330
0
100
AcDbSymbolTable
 70
     0
  0
ENDTAB
  0
TABLE
  2
APPID
  5
124
330
0
100
AcDbSymbolTable
 70
     6
  0
APPID
  5
125
330
124
100
AcDbSymbolTableRecord
100
AcDbRegAppTableRecord
  2
ACAD
 70
     0
  0
APPID
  5
16B
330
124
100
AcDbSymbolTableRecord
100
AcDbRegAppTableRecord
  2
AcAecLayerStandard
 70
     0
  0
APPID
  5
146
330
124
100
AcDbSymbolTableRecord
100
AcDbRegAppTableRecord
  2
ACAD_DSTYLE_DIMJAG
 70
     0
  0
APPID
  5
147
330
124
100
AcDbSymbolTableRecord
100
AcDbRegAppTableRecord
  2
ACAD_DSTYLE_DIMTALN
 70
     0
  0
APPID
  5
123
330
124
100
AcDbSymbolTableRecord
100
AcDbRegAppTableRecord
  2
ACAD_NAV_VCDISPLAY
 70
     0
  0
APPID
  5
116
330
124
100
AcDbSymbolTableRecord
100
AcDbRegAppTableRecord
  2
ACLAYERTOOLS
 70
     0
  0
ENDTAB
  0
TABLE
  2
DIMSTYLE
  5
126
330
0
100
AcDbSymbolTable
 70
     1
100
AcDbDimStyleTable
 71
     0
  0
DIMSTYLE
105
145
330
126
100
AcDbSymbolTableRecord
100
AcDbDimStyleTableRecord
  2
3DEC X 2
 70
     0
 41
1.27
 42
0.381
 43
0.95
 44
0.381
 73
     0
 74
     0
140
0.889
141
0.0
147
0.381
271
     3
272
     3
340
118
1001
ACAD_DSTYLE_DIMJAG
1070
   388
1040
1.5
1001
ACAD_DSTYLE_DIMTALN
1070
   392
1070
     0
  0
ENDTAB
  0
TABLE
  2
BLOCK_RECORD
  5
1
330
0
100
AcDbSymbolTable
 70
     0
  0
BLOCK_RECORD
  5
2
102
{ACAD_XDICTIONARY
360
3
102
}
330
1
100
AcDbSymbolTableRecord
100
AcDbBlockTableRecord
  2
*Model_Space
340
11
 70
     0
280
     1
281
     0
  0
BLOCK_RECORD
  5
15
330
1
100
AcDbSymbolTableRecord
100
AcDbBlockTableRecord
  2
*Paper_Space
340
1B
 70
     0
280
     1
281
     0
  0
ENDTAB
  0
ENDSEC
  0
SECTION
  2
BLOCKS
  0
BLOCK
  5
6
330
2
100
AcDbEntity
  8
0
100
AcDbBlockBegin
  2
*Model_Space
 70
     0
 10
0.0
 20
0.0
 30
0.0
  3
*Model_Space
  1

  0
ENDBLK
  5
10
330
2
100
AcDbEntity
  8
0
100
AcDbBlockEnd
  0
BLOCK
  5
16
330
15
100
AcDbEntity
 67
     1
  8
OBJ4
100
AcDbBlockBegin
  2
*Paper_Space
 70
     0
 10
0.0
 20
0.0
 30
0.0
  3
*Paper_Space
  1
Acad:XRef
  0
ENDBLK
  5
1A
330
15
100
AcDbEntity
 67
     1
  8
OBJ4
100
AcDbBlockEnd
  0
ENDSEC
  0
SECTION
  2
ENTITIES
  0
TEXT
  5
169
330
2
100
AcDbEntity
  8
6
 62
     7
100
AcDbText
 10
102.6046408664545
 20
-98.84492160466994
 30
0.0
 40
3.363599822891405
  1
OPTION TABLE :
 41
0.9
  7
ROMANS
100
AcDbText
  0
LWPOLYLINE
  5
16D
330
2
100
AcDbEntity
  8
6
 62
     7
100
AcDbPolyline
 90
        2
 70
     0
 43
0.1672957110615182
 10
100.4538084471463
 20
-102.0041302899229
 10
261.1958676767475
 20
-102.0041302899229
  0
LWPOLYLINE
  5
16E
330
2
100
AcDbEntity
  8
6
 62
     7
100
AcDbPolyline
 90
        2
 70
     0
 43
0.1672957110615182
 10
100.4538084471463
 20
-121.7721327706624
 10
100.4538084471463
 20
-102.0041302899229
  0
LINE
  5
16F
330
2
100
AcDbEntity
  8
6
 62
     3
100
AcDbLine
 10
111.9005742943562
 20
-121.7721327706624
 30
0.0
 11
111.9005742943562
 21
-102.0041302899229
 31
0.0
  0
LINE
  5
170
330
2
100
AcDbEntity
  8
6
 62
     3
100
AcDbLine
 10
132.9116444304066
 20
-121.7721327706624
 30
0.0
 11
132.9116444304066
 21
-102.0041302899229
 31
0.0
  0
TEXT
  5
171
330
2
100
AcDbEntity
  8
6
 62
     3
100
AcDbText
 10
102.6905507319247
 20
-105.2185802355075
 30
0.0
 40
1.672957110615181
  1
OPT. #
 41
0.9
  7
ROMANS
 72
     1
 11
106.4547042308089
 21
-105.2185802355075
 31
0.0
100
AcDbText
  0
TEXT
  5
172
330
2
100
AcDbEntity
  8
6
 62
     3
100
AcDbText
 10
135.933405653718
 20
-105.2185802355075
 30
0.0
 40
1.672957110615181
  1
TAPE OPTION
 41
0.9
  7
ROMANS
 72
     1
 11
143.2466181658358
 21
-105.2185802355075
 31
0.0
100
AcDbText
  0
TEXT
  5
173
330
2
100
AcDbEntity
  8
6
 62
     3
100
AcDbText
 10
155.800098373659
 20
-105.2185802355075
 30
0.0
 40
1.672957110615181
  1
MATERIAL TYPE
 41
0.9
  7
ROMANS
 72
     1
 11
164.4755759615635
 21
-105.2185802355075
 31
0.0
100
AcDbText
  0
TEXT
  5
174
330
2
100
AcDbEntity
  8
6
 62
     3
100
AcDbText
 10
105.9099846918635
 20
-111.2662142157755
 30
0.0
 40
1.672957110615181
  1
1
 41
0.9
  7
ROMANS
 72
     1
 11
106.0892300965723
 21
-111.2662142157755
 31
0.0
100
AcDbText
  0
LINE
  5
175
330
2
100
AcDbEntity
  8
6
 62
     3
100
AcDbLine
 10
100.4538084471463
 20
-106.5973497855302
 30
0.0
 11
261.1958676767475
 21
-106.5973497855302
 31
0.0
  0
LINE
  5
176
330
2
100
AcDbEntity
  8
6
 62
     3
100
AcDbLine
 10
100.4538084471463
 20
-113.9552571317203
 30
0.0
 11
261.1958676767475
 21
-113.9552571317203
 31
0.0
  0
LINE
  5
177
330
2
100
AcDbEntity
  8
6
 62
     3
100
AcDbLine
 10
153.808704057589
 20
-121.7721327706624
 30
0.0
 11
153.808704057589
 21
-102.0041302899229
 31
0.0
  0
TEXT
  5
178
330
2
100
AcDbEntity
  8
6
 62
     3
100
AcDbText
 10
177.4208231564086
 20
-105.2185802355075
 30
0.0
 40
1.672957110615181
  1
PLATING TYPE
 41
0.9
  7
ROMANS
 72
     1
 11
185.3076209635945
 21
-105.2185802355075
 31
0.0
100
AcDbText
  0
TEXT
  5
179
330
2
100
AcDbEntity
  8
6
 62
     3
100
AcDbText
 10
134.4632555928824
 20
-111.0661224238667
 30
0.0
 40
1.672957110615181
  1
HITACHI RT-321
 41
0.9
  7
ROMANS
 72
     1
 11
143.4255258283208
 21
-111.0661224238667
 31
0.0
100
AcDbText
  0
TEXT
  5
17A
330
2
100
AcDbEntity
  8
6
 62
     3
100
AcDbText
 10
181.3655099120474
 20
-110.9978376324842
 30
0.0
 40
1.672957110615181
  1
NiPdAu
 41
0.9
  7
ROMANS
 72
     1
 11
185.0579652490481
 21
-110.9978376324842
 31
0.0
100
AcDbText
  0
LWPOLYLINE
  5
17B
330
2
100
AcDbEntity
  8
6
 62
     7
100
AcDbPolyline
 90
        2
 70
     0
 43
0.1672957110615182
 10
100.4538084471463
 20
-121.7721327706624
 10
261.1958676767475
 20
-121.7721327706624
  0
LWPOLYLINE
  5
17C
330
2
100
AcDbEntity
  8
6
 62
     7
100
AcDbPolyline
 90
        2
 70
     0
 43
0.1672957110615182
 10
261.1958676767475
 20
-121.7721327706624
 10
261.1958676767475
 20
-102.0041302899229
  0
LINE
  5
17D
330
2
100
AcDbEntity
  8
6
 62
     3
100
AcDbLine
 10
174.8370030549466
 20
-121.7721327706624
 30
0.0
 11
174.8370030549466
 21
-102.0041302899229
 31
0.0
  0
TEXT
  5
17E
330
2
100
AcDbEntity
  8
6
 62
     3
100
AcDbText
 10
206.4938622781882
 20
-105.2185802355075
 30
0.0
 40
1.672957110615181
  1
PLATING THICKNESS
 41
0.9
  7
ROMANS
 72
     1
 11
217.7146246129571
 21
-105.2185802355075
 31
0.0
100
AcDbText
  0
MTEXT
  5
17F
330
2
100
AcDbEntity
  8
6
 62
     3
100
AcDbMText
 10
198.2960823094793
 20
-110.1572382609464
 30
0.0
 40
1.672957110615181
 41
0.0
 46
0.0
 71
     4
 72
     1
  1
Ni: 0.5~2.0 um, Pd: 0.02~0.15 um\PAu: 0.003~0.015 um
  7
ROMANS
 73
     1
 44
1.0
  0
LINE
  5
180
330
2
100
AcDbEntity
  8
6
 62
     3
100
AcDbLine
 10
195.1711036463553
 20
-121.7721327706624
 30
0.0
 11
195.1711036463553
 21
-102.0041302899229
 31
0.0
  0
TEXT
  5
181
330
2
100
AcDbEntity
  8
6
 62
     3
100
AcDbText
 10
244.2304626424443
 20
-105.2185802355075
 30
0.0
 40
1.672957110615181
  1
TREATMENT
 41
0.9
  7
ROMANS
 72
     1
 11
250.5757499691347
 21
-105.2185802355075
 31
0.0
100
AcDbText
  0
TEXT
  5
182
330
2
100
AcDbEntity
  8
6
 62
     3
100
AcDbText
 10
248.796731152705
 20
-111.1740987121434
 30
0.0
 40
1.672957110615181
  1
NIL
 41
0.9
  7
ROMANS
 72
     1
 11
250.3023925522587
 21
-111.1740987121434
 31
0.0
100
AcDbText
  0
LINE
  5
183
330
2
100
AcDbEntity
  8
6
 62
     3
100
AcDbLine
 10
240.8078526080579
 20
-121.7721327706624
 30
0.0
 11
240.8078526080579
 21
-102.0041302899229
 31
0.0
  0
TEXT
  5
184
330
2
100
AcDbEntity
  8
6
 62
     3
100
AcDbText
 10
113.2374287134052
 20
-105.2185802355075
 30
0.0
 40
1.672957110615181
  1
PAD SIZE (TOP)
 41
0.9
  7
ROMANS
 72
     1
 11
122.2355480297854
 21
-105.2185802355075
 31
0.0
100
AcDbText
  0
TEXT
  5
185
330
2
100
AcDbEntity
  8
6
 62
     3
100
AcDbText
 10
120.442756240474
 20
-111.0661224238667
 30
0.0
 40
1.672957110615181
  1
COL
 41
0.9
  7
ROMANS
 72
     1
 11
122.4144556922704
 21
-111.0661224238667
 31
0.0
100
AcDbText
  0
TEXT
  5
186
330
2
100
AcDbEntity
  8
6
 62
     3
100
AcDbText
 10
162.4893089614432
 20
-111.0143979721611
 30
0.0
 40
1.672957110615181
  1
A194
 41
0.9
  7
ROMANS
 72
     1
 11
165.1062918701912
 21
-111.0143979721611
 31
0.0
100
AcDbText
  0
LINE
  5
187
330
2
100
AcDbEntity
  8
5
 62
     3
100
AcDbLine
 10
101.0132065138921
 20
-80.09645395398322
 30
0.0
 11
241.4035679400165
 21
-80.09645395398322
 31
0.0
  0
LINE
  5
18B
330
2
100
AcDbEntity
  8
5
 62
     3
100
AcDbLine
 10
101.0132065138921
 20
-83.7764539539833
 30
0.0
 11
241.4035679400165
 21
-83.7764539539833
 31
0.0
  0
LINE
  5
18C
330
2
100
AcDbEntity
  8
5
 62
     3
100
AcDbLine
 10
101.0132065138921
 20
-87.45645395398312
 30
0.0
 11
241.4035679400165
 21
-87.45645395398312
 31
0.0
  0
LINE
  5
18D
330
2
100
AcDbEntity
  8
5
 62
     3
100
AcDbLine
 10
101.0132065138893
 20
-6.486407632004571
 30
0.0
 11
241.4035679400165
 21
-6.486407632004571
 31
0.0
  0
LINE
  5
18E
330
2
100
AcDbEntity
  8
5
 62
     3
100
AcDbLine
 10
101.0132065138921
 20
-61.69395235514028
 30
0.0
 11
241.4035679400165
 21
-61.69395235514028
 31
0.0
  0
LINE
  5
18F
330
2
100
AcDbEntity
  8
5
 62
     3
100
AcDbLine
 10
101.0132065138893
 20
48.7211703633013
 30
0.0
 11
241.4035679400165
 21
48.7211703633013
 31
0.0
  0
LINE
  5
190
330
2
100
AcDbEntity
  8
5
 62
     3
100
AcDbLine
 10
101.0132065138893
 20
45.04066471998519
 30
0.0
 11
241.4035679400165
 21
45.04066471998519
 31
0.0
  0
LINE
  5
191
330
2
100
AcDbEntity
  8
5
 62
     3
100
AcDbLine
 10
101.0132065138893
 20
33.99914779003777
 30
0.0
 11
241.4035679400165
 21
33.99914779003777
 31
0.0
  0
LINE
  5
192
330
2
100
AcDbEntity
  8
5
 62
     3
100
AcDbLine
 10
101.0132065138893
 20
37.67965343335365
 30
0.0
 11
241.4035679400165
 21
37.67965343335365
 31
0.0
  0
LINE
  5
193
330
2
100
AcDbEntity
  8
5
 62
     3
100
AcDbLine
 10
101.0132065138893
 20
41.36015907666975
 30
0.0
 11
241.4035679400165
 21
41.36015907666975
 31
0.0
  0
LINE
  5
194
330
2
100
AcDbEntity
  8
5
 62
     3
100
AcDbLine
 10
101.0132065138893
 20
22.95763086009012
 30
0.0
 11
241.4035679400165
 21
22.95763086009012
 31
0.0
  0
LINE
  5
195
330
2
100
AcDbEntity
  8
5
 62
     3
100
AcDbLine
 10
101.0132065138893
 20
19.27712521677424
 30
0.0
 11
241.4035679400165
 21
19.27712521677424
 31
0.0
  0
LINE
  5
196
330
2
100
AcDbEntity
  8
5
 62
     3
100
AcDbLine
 10
101.0132065138893
 20
15.59661957345813
 30
0.0
 11
241.4035679400165
 21
15.59661957345813
 31
0.0
  0
LINE
  5
197
330
2
100
AcDbEntity
  8
5
 62
     3
100
AcDbLine
 10
101.0132065138893
 20
11.91611393014202
 30
0.0
 11
241.4035679400165
 21
11.91611393014202
 31
0.0
  0
LINE
  5
198
330
2
100
AcDbEntity
  8
5
 62
     3
100
AcDbLine
 10
101.0132065138893
 20
8.235608286826135
 30
0.0
 11
241.4035679400165
 21
8.235608286826135
 31
0.0
  0
LINE
  5
199
330
2
100
AcDbEntity
  8
5
 62
     3
100
AcDbLine
 10
101.0132065138893
 20
4.555102643510025
 30
0.0
 11
241.4035679400165
 21
4.555102643510025
 31
0.0
  0
LINE
  5
19A
330
2
100
AcDbEntity
  8
5
 62
     3
100
AcDbLine
 10
101.0132065138893
 20
-2.805908643121512
 30
0.0
 11
241.4035679400165
 21
-2.805908643121512
 31
0.0
  0
LINE
  5
19B
330
2
100
AcDbEntity
  8
5
 62
     3
100
AcDbLine
 10
101.0132065138893
 20
26.63813650340555
 30
0.0
 11
241.4035679400165
 21
26.63813650340555
 31
0.0
  0
LINE
  5
19C
330
2
100
AcDbEntity
  8
5
 62
     3
100
AcDbLine
 10
101.0132065138893
 20
52.40167600661718
 30
0.0
 11
241.4035679400165
 21
52.40167600661718
 31
0.0
  0
LWPOLYLINE
  5
19D
330
2
100
AcDbEntity
  8
5
 62
     7
100
AcDbPolyline
 90
        2
 70
     0
 43
0.1672957110598158
 10
101.0132065138893
 20
56.76558788373447
 10
241.4035679400165
 20
56.76558788373447
  0
LINE
  5
19E
330
2
100
AcDbEntity
  8
5
 62
     3
100
AcDbLine
 10
101.0132065138893
 20
0.8745970001920966
 30
0.0
 11
241.4035679400165
 21
0.8745970001920966
 31
0.0
  0
LINE
  5
19F
330
2
100
AcDbEntity
  8
5
 62
     3
100
AcDbLine
 10
101.0132065138921
 20
-54.33295437737641
 30
0.0
 11
241.4035679400165
 21
-54.33295437737641
 31
0.0
  0
TEXT
  5
1A0
330
2
100
AcDbEntity
  8
5
 62
     3
100
AcDbText
 10
108.9343240696557
 20
-75.40138236511042
 30
0.0
 40
1.672957110598158
  1
INTERNAL LEAD TIP DIMENSIONS GIVEN ARE GIVEN VALUES
 41
0.9
  7
ROMANS
 72
     4
 11
142.9909509639753
 21
-74.56490380981134
 31
0.0
100
AcDbText
  0
LINE
  5
1A1
330
2
100
AcDbEntity
  8
5
 62
     3
100
AcDbLine
 10
101.0132065138921
 20
-28.56941487416522
 30
0.0
 11
241.4035679400165
 21
-28.56941487416522
 31
0.0
  0
LINE
  5
1A2
330
2
100
AcDbEntity
  8
5
 62
     3
100
AcDbLine
 10
101.0132065138921
 20
-58.01346002069251
 30
0.0
 11
241.4035679400165
 21
-58.01346002069251
 31
0.0
  0
LINE
  5
1A3
330
2
100
AcDbEntity
  8
5
 62
     3
100
AcDbLine
 10
101.0132065138921
 20
-43.29143744742876
 30
0.0
 11
241.4035679400165
 21
-43.29143744742876
 31
0.0
  0
LINE
  5
1A4
330
2
100
AcDbEntity
  8
5
 62
     3
100
AcDbLine
 10
101.0132065138921
 20
-39.61093180411288
 30
0.0
 11
241.4035679400165
 21
-39.61093180411288
 31
0.0
  0
LINE
  5
1A5
330
2
100
AcDbEntity
  8
5
 62
     3
100
AcDbLine
 10
101.0132065138921
 20
-35.93042616079677
 30
0.0
 11
241.4035679400165
 21
-35.93042616079677
 31
0.0
  0
LINE
  5
1A6
330
2
100
AcDbEntity
  8
5
 62
     3
100
AcDbLine
 10
101.0132065138921
 20
-32.24992051748087
 30
0.0
 11
241.4035679400165
 21
-32.24992051748087
 31
0.0
  0
TEXT
  5
1A7
330
2
100
AcDbEntity
  8
5
 62
     3
100
AcDbText
 10
108.9224991270213
 20
-79.02158333918478
 30
0.0
 40
1.672957110598158
  1
DIMENSION QUADRANT IS TYPICAL FOR QUADRANTS, EXCEPT AS SHOWN
 41
0.9
  7
ROMANS
 72
     4
 11
150.722527504681
 21
-78.3444340325141
 31
0.0
100
AcDbText
  0
TEXT
  5
1A8
330
2
100
AcDbEntity
  8
5
 62
     3
100
AcDbText
 10
109.0822035993902
 20
-71.80352796611569
 30
0.0
 40
1.672957110598158
  1
PART TO BE FREE OF RUST, KINKS, BENDS, WRINKLES, OR SCRATCHES DEEPER THAN
 41
0.9
  7
ROMANS
 72
     4
 11
159.1992187554522
 21
-71.12637865944501
 31
0.0
100
AcDbText
  0
LINE
  5
1A9
330
2
100
AcDbEntity
  8
5
 62
     3
100
AcDbLine
 10
101.0132065138893
 20
-46.97192312744121
 30
0.0
 11
241.4035679400165
 21
-46.97192312744121
 31
0.0
  0
TEXT
  5
1AA
330
2
100
AcDbEntity
  8
5
 62
     3
100
AcDbText
 10
108.7422379803342
 20
-31.21853377718037
 30
0.0
 40
1.672957110598158
  1
MAXIMUM RADIUS ON ALL CORNERS UNLESS OTHERWISE SPECIFIED
 41
0.9
  7
ROMANS
 72
     4
 11
147.3875472351517
 21
-30.38205522188129
 31
0.0
100
AcDbText
  0
LINE
  5
1AB
330
2
100
AcDbEntity
  8
5
 62
     3
100
AcDbLine
 10
101.0132065138893
 20
-24.88890257641471
 30
0.0
 11
241.4035679400165
 21
-24.88890257641471
 31
0.0
  0
LINE
  5
1AC
330
2
100
AcDbEntity
  8
5
 62
     3
100
AcDbLine
 10
101.0132065138893
 20
30.31864214672166
 30
0.0
 11
241.4035679400165
 21
30.31864214672166
 31
0.0
  0
LWPOLYLINE
  5
1AD
330
2
100
AcDbEntity
  8
5
 62
     7
100
AcDbPolyline
 90
        2
 70
     0
 43
0.1672957110598158
 10
101.0132065138921
 20
-91.13645395398297
 10
241.403567940017
 20
-91.13645395398297
  0
LINE
  5
1AE
330
2
100
AcDbEntity
  8
5
 62
     3
100
AcDbLine
 10
101.0132065138921
 20
-50.65244873406098
 30
0.0
 11
241.4035679400165
 21
-50.65244873406098
 31
0.0
  0
LINE
  5
1AF
330
2
100
AcDbEntity
  8
5
 62
     3
100
AcDbLine
 10
101.0132065138921
 20
-65.37445799845617
 30
0.0
 11
241.4035679400165
 21
-65.37445799845617
 31
0.0
  0
LINE
  5
1B0
330
2
100
AcDbEntity
  8
5
 62
     3
100
AcDbLine
 10
101.0132065138921
 20
-72.7354692850877
 30
0.0
 11
241.4035679400165
 21
-72.7354692850877
 31
0.0
  0
LINE
  5
1B1
330
2
100
AcDbEntity
  8
5
 62
     3
100
AcDbLine
 10
101.0132065138921
 20
-69.05496364177228
 30
0.0
 11
241.4035679400165
 21
-69.05496364177228
 31
0.0
  0
TEXT
  5
1B2
330
2
100
AcDbEntity
  8
5
 62
     3
100
AcDbText
 10
108.7737652686639
 20
-5.570832993662746
 30
0.0
 40
1.672957110598158
  1
MISALIGNMENT
 41
0.9
  7
ROMANS
 72
     4
 11
116.6964121567109
 21
-4.734354438363666
 31
0.0
100
AcDbText
  0
TEXT
  5
1B3
330
2
100
AcDbEntity
  8
5
 62
     3
100
AcDbText
 10
102.8182026180276
 20
-5.476462082559576
 30
0.0
 40
1.672957110598158
  1
16
 41
0.9
  7
ROMANS
 72
     4
 11
103.8578259653279
 21
-4.639983527260497
 31
0.0
100
AcDbText
  0
TEXT
  5
1B4
330
2
100
AcDbEntity
  8
5
 62
     3
100
AcDbText
 10
102.6389572133211
 20
-75.40604934226975
 30
0.0
 40
1.672957110598158
  1
32
 41
0.9
  7
ROMANS
 72
     4
 11
103.8578259653284
 21
-74.56957078697067
 31
0.0
100
AcDbText
  0
TEXT
  5
1B5
330
2
100
AcDbEntity
  8
5
 62
     3
100
AcDbText
 10
102.6389572133211
 20
-79.08655498558291
 30
0.0
 40
1.672957110598158
  1
33
 41
0.9
  7
ROMANS
 72
     4
 11
103.8578259653284
 21
-78.25007643028382
 31
0.0
100
AcDbText
  0
TEXT
  5
1B6
330
2
100
AcDbEntity
  8
5
 62
     3
100
AcDbText
 10
102.9615989417937
 20
-71.89369731175124
 30
0.0
 40
1.672957110598158
  1
31
 41
0.9
  7
ROMANS
 72
     4
 11
103.8578259653284
 21
-71.05721875645215
 31
0.0
100
AcDbText
  0
TEXT
  5
1B7
330
2
100
AcDbEntity
  8
5
 62
     3
100
AcDbText
 10
102.6389572133211
 20
-68.02503544175251
 30
0.0
 40
1.672957110598158
  1
30
 41
0.9
  7
ROMANS
 72
     4
 11
103.8578259653284
 21
-67.18855688645342
 31
0.0
100
AcDbText
  0
TEXT
  5
1B8
330
2
100
AcDbEntity
  8
5
 62
     3
100
AcDbText
 10
102.4411855229706
 20
-64.32452718455433
 30
0.0
 40
1.672957110598158
  1
29
 41
0.9
  7
ROMANS
 72
     4
 11
103.6242051940364
 21
-63.48804862925525
 31
0.0
100
AcDbText
  0
TEXT
  5
1B9
330
2
100
AcDbEntity
  8
5
 62
     3
100
AcDbText
 10
102.6389572133211
 20
-60.6404444314593
 30
0.0
 40
1.672957110598158
  1
28
 41
0.9
  7
ROMANS
 72
     4
 11
103.8578259653284
 21
-59.80396587616022
 31
0.0
100
AcDbText
  0
TEXT
  5
1BA
330
2
100
AcDbEntity
  8
5
 62
     3
100
AcDbText
 10
102.7823535370863
 20
-9.156967725875686
 30
0.0
 40
1.672957110598158
  1
17
 41
0.9
  7
ROMANS
 72
     4
 11
103.8578259653279
 21
-8.320489170576607
 31
0.0
100
AcDbText
  0
TEXT
  5
1BB
330
2
100
AcDbEntity
  8
5
 62
     3
100
AcDbText
 10
102.7952630040167
 20
-56.97994140202322
 30
0.0
 40
1.672957110598158
  1
27
 41
0.9
  7
ROMANS
 72
     4
 11
104.0141317560239
 21
-56.14346284672413
 31
0.0
100
AcDbText
  0
TEXT
  5
1BC
330
2
100
AcDbEntity
  8
5
 62
     3
100
AcDbText
 10
102.8311120849581
 20
-53.25943053094523
 30
0.0
 40
1.672957110598158
  1
26
 41
0.9
  7
ROMANS
 72
     4
 11
104.0141317560239
 21
-52.42295197564615
 31
0.0
100
AcDbText
  0
TEXT
  5
1BD
330
2
100
AcDbEntity
  8
5
 62
     3
100
AcDbText
 10
102.6726258384328
 20
-49.60915998221175
 30
0.0
 40
1.672957110598158
  1
25
 41
0.9
  7
ROMANS
 72
     4
 11
103.89149459044
 21
-48.77268142691267
 31
0.0
100
AcDbText
  0
TEXT
  5
1BE
330
2
100
AcDbEntity
  8
5
 62
     3
100
AcDbText
 10
102.6367767574914
 20
-45.95497164658026
 30
0.0
 40
1.672957110598158
  1
24
 41
0.9
  7
ROMANS
 72
     4
 11
103.89149459044
 21
-45.11849309128118
 31
0.0
100
AcDbText
  0
TEXT
  5
1BF
330
2
100
AcDbEntity
  8
5
 62
     3
100
AcDbText
 10
102.6726258384328
 20
-42.08147241359974
 30
0.0
 40
1.672957110598158
  1
23
 41
0.9
  7
ROMANS
 72
     4
 11
103.89149459044
 21
-41.24499385830065
 31
0.0
100
AcDbText
  0
TEXT
  5
1C0
330
2
100
AcDbEntity
  8
5
 62
     3
100
AcDbText
 10
102.9952675669053
 20
-34.9008557466342
 30
0.0
 40
1.672957110598158
  1
21
 41
0.9
  7
ROMANS
 72
     4
 11
103.89149459044
 21
-34.06437719133511
 31
0.0
100
AcDbText
  0
TEXT
  5
1C1
330
2
100
AcDbEntity
  8
5
 62
     3
100
AcDbText
 10
102.6726258384328
 20
-38.56748488074403
 30
0.0
 40
1.672957110598158
  1
22
 41
0.9
  7
ROMANS
 72
     4
 11
103.89149459044
 21
-37.73100632544495
 31
0.0
100
AcDbText
  0
TEXT
  5
1C2
330
2
100
AcDbEntity
  8
5
 62
     3
100
AcDbText
 10
109.0407389294405
 20
-82.77369439907138
 30
0.0
 40
1.672957110598158
  1
STRIP NUMBER TO BE ADDED ON STRIP
 41
0.9
  7
ROMANS
 72
     4
 11
131.9841507319295
 21
-81.93721584377229
 31
0.0
100
AcDbText
  0
TEXT
  5
1C3
330
2
100
AcDbEntity
  8
5
 62
     3
100
AcDbText
 10
108.8766249983743
 20
-68.02359021033966
 30
0.0
 40
1.672957110598158
  1
FRAME TWIST
 41
0.9
  7
ROMANS
 72
     4
 11
116.2973847532419
 21
-67.18711165504058
 31
0.0
100
AcDbText
  0
TEXT
  5
1C4
330
2
100
AcDbEntity
  8
5
 62
     3
100
AcDbText
 10
108.8922285257115
 20
-64.34308456702355
 30
0.0
 40
1.672957110598158
  1
LEAD TWIST
 41
0.9
  7
ROMANS
 72
     4
 11
115.4167612570443
 21
-63.50660601172447
 31
0.0
100
AcDbText
  0
TEXT
  5
1C5
330
2
100
AcDbEntity
  8
5
 62
     3
100
AcDbText
 10
108.9407471788337
 20
-60.66257892370813
 30
0.0
 40
1.672957110598158
  1
CROSS BOW
 41
0.9
  7
ROMANS
 72
     4
 11
115.6086762339321
 21
-59.82610036840904
 31
0.0
100
AcDbText
  0
TEXT
  5
1C6
330
2
100
AcDbEntity
  8
5
 62
     3
100
AcDbText
 10
108.8153874916233
 20
-42.26005070712848
 30
0.0
 40
1.672957110598158
  1
LEAD TIP PLANARITY FROM DAM BAR
 41
0.9
  7
ROMANS
 72
     4
 11
130.3606851373981
 21
-41.4235721518294
 31
0.0
100
AcDbText
  0
TEXT
  5
1C7
330
2
100
AcDbEntity
  8
5
 62
     3
100
AcDbText
 10
108.8148288383983
 20
-9.245279890925869
 30
0.0
 40
1.672957110598158
  1
COIL SET
 41
0.9
  7
ROMANS
 72
     4
 11
113.8337001701927
 21
-8.40880133562679
 31
0.0
100
AcDbText
  0
TEXT
  5
1C8
330
2
100
AcDbEntity
  8
5
 62
     3
100
AcDbText
 10
108.8665850964282
 20
-57.0776100597633
 30
0.0
 40
1.672957110598158
  1
PAD PLANARITY
 41
0.9
  7
ROMANS
 72
     4
 11
117.8288553317754
 21
-56.24113150446422
 31
0.0
100
AcDbText
  0
TEXT
  5
1C9
330
2
100
AcDbEntity
  8
5
 62
     3
100
AcDbText
 10
108.9166493962694
 20
-53.30156763707613
 30
0.0
 40
1.672957110598158
  1
PAD TILT
 41
0.9
  7
ROMANS
 72
     4
 11
113.9355207280639
 21
-52.46508908177705
 31
0.0
100
AcDbText
  0
TEXT
  5
1CA
330
2
100
AcDbEntity
  8
5
 62
     3
100
AcDbText
 10
108.9381923426451
 20
-49.62106199376002
 30
0.0
 40
1.672957110598158
  1
CAMBER
 41
0.9
  7
ROMANS
 72
     4
 11
113.2759311365532
 21
-48.78458343846094
 31
0.0
100
AcDbText
  0
TEXT
  5
1CB
330
2
100
AcDbEntity
  8
5
 62
     3
100
AcDbText
 10
108.8399840620741
 20
-45.82987276421262
 30
0.0
 40
1.672957110598158
  1
PAD FLATNESS
 41
0.9
  7
ROMANS
 72
     4
 11
117.1928199214178
 21
-44.99339420891354
 31
0.0
100
AcDbText
  0
TEXT
  5
1CC
330
2
100
AcDbEntity
  8
5
 62
     3
100
AcDbText
 10
108.8364171899147
 20
-38.57954506381238
 30
0.0
 40
1.672957110598158
  1
HORIZONTAL BURR
 41
0.9
  7
ROMANS
 72
     4
 11
119.2684997438589
 21
-37.74306650851329
 31
0.0
100
AcDbText
  0
TEXT
  5
1CD
330
2
100
AcDbEntity
  8
5
 62
     3
100
AcDbText
 10
108.7882622260255
 20
-34.82144424290903
 30
0.0
 40
1.672957110598158
  1
VERTICAL BURR
 41
0.9
  7
ROMANS
 72
     4
 11
117.499588894783
 21
-33.98496568760994
 31
0.0
100
AcDbText
  0
TEXT
  5
1CE
330
2
100
AcDbEntity
  8
5
 62
     3
100
AcDbText
 10
103.3896074572601
 20
46.11187797063904
 30
0.0
 40
1.672957110598158
  1
2
 41
0.9
  7
ROMANS
 72
     4
 11
103.8914945904396
 21
46.94835652593812
 31
0.0
100
AcDbText
  0
TEXT
  5
1CF
330
2
100
AcDbEntity
  8
5
 62
     3
100
AcDbText
 10
103.3537583763187
 20
38.72311366559517
 30
0.0
 40
1.672957110598158
  1
4
 41
0.9
  7
ROMANS
 72
     4
 11
103.8914945904396
 21
39.55959222089425
 31
0.0
100
AcDbText
  0
TEXT
  5
1D0
330
2
100
AcDbEntity
  8
5
 62
     3
100
AcDbText
 10
103.3896074572601
 20
42.38974279970749
 30
0.0
 40
1.672957110598158
  1
3
 41
0.9
  7
ROMANS
 72
     4
 11
103.8914945904396
 21
43.22622135500657
 31
0.0
100
AcDbText
  0
TEXT
  5
1D1
330
2
100
AcDbEntity
  8
5
 62
     3
100
AcDbText
 10
103.3896074572601
 20
35.20912613273946
 30
0.0
 40
1.672957110598158
  1
5
 41
0.9
  7
ROMANS
 72
     4
 11
103.8914945904396
 21
36.04560468803854
 31
0.0
100
AcDbText
  0
TEXT
  5
1D2
330
2
100
AcDbEntity
  8
5
 62
     3
100
AcDbText
 10
103.4254565382015
 20
31.33562689976394
 30
0.0
 40
1.672957110598158
  1
6
 41
0.9
  7
ROMANS
 72
     4
 11
103.8914945904396
 21
32.17210545506302
 31
0.0
100
AcDbText
  0
TEXT
  5
1D3
330
2
100
AcDbEntity
  8
5
 62
     3
100
AcDbText
 10
103.3896074572601
 20
27.68143856412745
 30
0.0
 40
1.672957110598158
  1
7
 41
0.9
  7
ROMANS
 72
     4
 11
103.8914945904396
 21
28.51791711942653
 31
0.0
100
AcDbText
  0
TEXT
  5
1D4
330
2
100
AcDbEntity
  8
5
 62
     3
100
AcDbText
 10
103.5480937037854
 20
20.35066237208035
 30
0.0
 40
1.672957110598158
  1
9
 41
0.9
  7
ROMANS
 72
     4
 11
104.0141317560235
 21
21.18714092737943
 31
0.0
100
AcDbText
  0
TEXT
  5
1D5
330
2
100
AcDbEntity
  8
5
 62
     3
100
AcDbText
 10
102.9386593277818
 20
16.63015150099987
 30
0.0
 40
1.672957110598158
  1
10
 41
0.9
  7
ROMANS
 72
     4
 11
104.0141317560235
 21
17.46663005629895
 31
0.0
100
AcDbText
  0
TEXT
  5
1D6
330
2
100
AcDbEntity
  8
5
 62
     3
100
AcDbText
 10
103.1049952655587
 20
12.96964847156651
 30
0.0
 40
1.672957110598158
  1
11
 41
0.9
  7
ROMANS
 72
     4
 11
103.8578259653279
 21
13.80612702686559
 31
0.0
100
AcDbText
  0
TEXT
  5
1D7
330
2
100
AcDbEntity
  8
5
 62
     3
100
AcDbText
 10
102.5487327657943
 20
9.285565718468989
 30
0.0
 40
1.672957110598158
  1
12
 41
0.9
  7
ROMANS
 72
     4
 11
103.624205194036
 21
10.12204427376807
 31
0.0
100
AcDbText
  0
TEXT
  5
1D8
330
2
100
AcDbEntity
  8
5
 62
     3
100
AcDbText
 10
102.7823535370863
 20
5.585057461267853
 30
0.0
 40
1.672957110598158
  1
13
 41
0.9
  7
ROMANS
 72
     4
 11
103.8578259653279
 21
6.421536016566932
 31
0.0
100
AcDbText
  0
TEXT
  5
1D9
330
2
100
AcDbEntity
  8
5
 62
     3
100
AcDbText
 10
102.7465044561449
 20
1.904551817954471
 30
0.0
 40
1.672957110598158
  1
14
 41
0.9
  7
ROMANS
 72
     4
 11
103.8578259653279
 21
2.741030373253551
 31
0.0
100
AcDbText
  0
TEXT
  5
1DA
330
2
100
AcDbEntity
  8
5
 62
     3
100
AcDbText
 10
102.7823535370863
 20
-1.815488643124934
 30
0.0
 40
1.672957110598158
  1
15
 41
0.9
  7
ROMANS
 72
     4
 11
103.8578259653279
 21
-0.9790100878258556
 31
0.0
100
AcDbText
  0
TEXT
  5
1DB
330
2
100
AcDbEntity
  8
5
 62
     3
100
AcDbText
 10
103.3896074572601
 20
24.00093292081134
 30
0.0
 40
1.672957110598158
  1
8
 41
0.9
  7
ROMANS
 72
     4
 11
103.8914945904396
 21
24.83741147611042
 31
0.0
100
AcDbText
  0
TEXT
  5
1DC
330
2
100
AcDbEntity
  8
5
 62
     3
100
AcDbText
 10
103.7122491857326
 20
49.79238361395265
 30
0.0
 40
1.672957110598158
  1
1
 41
0.9
  7
ROMANS
 72
     4
 11
103.8914945904396
 21
50.62886216925173
 31
0.0
100
AcDbText
  0
TEXT
  5
1DD
330
2
100
AcDbEntity
  8
5
 62
     3
100
AcDbText
 10
108.7401887150261
 20
46.1496466378736
 30
0.0
 40
1.672957110598158
  1
PILOT HOLE DIAMETER
 41
0.9
  7
ROMANS
 72
     4
 11
121.2515179635709
 21
46.98612519317268
 31
0.0
100
AcDbText
  0
TEXT
  5
1DE
330
2
100
AcDbEntity
  8
5
 62
     3
100
AcDbText
 10
108.7656550242797
 20
42.39154581697003
 30
0.0
 40
1.672957110598158
  1
EXTERNAL LEAD WIDTH
 41
0.9
  7
ROMANS
 72
     4
 11
121.6713241631798
 21
43.22802437226911
 31
0.0
100
AcDbText
  0
TEXT
  5
1DF
330
2
100
AcDbEntity
  8
5
 62
     3
100
AcDbText
 10
108.8095200689325
 20
38.71104017365416
 30
0.0
 40
1.672957110598158
  1
M TO M CLEARANCE AFTER ETCH
 41
0.9
  7
ROMANS
 72
     4
 11
128.0604765344585
 21
39.54751872895324
 31
0.0
100
AcDbText
  0
TEXT
  5
1E0
330
2
100
AcDbEntity
  8
5
 62
     3
100
AcDbText
 10
108.8346234863663
 20
35.03053453033805
 30
0.0
 40
1.672957110598158
  1
MIN. LEAD SPACE AFTER ETCH
 41
0.9
  7
ROMANS
 72
     4
 11
126.4723713095297
 21
35.86701308563713
 31
0.0
100
AcDbText
  0
TEXT
  5
1E1
330
2
100
AcDbEntity
  8
5
 62
     3
100
AcDbText
 10
108.8130805399906
 20
31.35002888702194
 30
0.0
 40
1.672957110598158
  1
MIN. LEAD SPACE AFTER PLATE
 41
0.9
  7
ROMANS
 72
     4
 11
127.1319609010404
 21
32.18650744232102
 31
0.0
100
AcDbText
  0
TEXT
  5
1E2
330
2
100
AcDbEntity
  8
5
 62
     3
100
AcDbText
 10
108.4685718159471
 20
27.66952324370651
 30
0.0
 40
1.672957110598158
  1
CONNECTING BAR WIDTH
 41
0.9
  7
ROMANS
 72
     4
 11
122.1987698164991
 21
28.50600179900559
 31
0.0
100
AcDbText
  0
TEXT
  5
1E3
330
2
100
AcDbEntity
  8
5
 62
     3
100
AcDbText
 10
130.6217961319655
 20
20.42647843710566
 30
0.0
 40
1.672957110598158
  1
(TOP)
 41
0.9
  7
ROMANS
 72
     4
 11
133.5614207691594
 21
21.14346005593345
 31
0.0
100
AcDbText
  0
TEXT
  5
1E4
330
2
100
AcDbEntity
  8
5
 62
     3
100
AcDbText
 10
128.2028965901971
 20
16.62345367518438
 30
0.0
 40
1.672957110598158
  1
(BOTTOM)
 41
0.9
  7
ROMANS
 72
     4
 11
133.4368624076399
 21
17.34043529401217
 31
0.0
100
AcDbText
  0
TEXT
  5
1E5
330
2
100
AcDbEntity
  8
5
 62
     3
100
AcDbText
 10
108.7936091096208
 20
20.33247211417475
 30
0.0
 40
1.672957110598158
  1
PAD SIZE (X,Y)
 41
0.9
  7
ROMANS
 72
     4
 11
117.3973885355542
 21
21.04945373300254
 31
0.0
100
AcDbText
  0
TEXT
  5
1E6
330
2
100
AcDbEntity
  8
5
 62
     3
100
AcDbText
 10
108.6482783457505
 20
16.7475032502297
 30
0.0
 40
1.672957110598158
  1
PAD SIZE (X,Y)
 41
0.9
  7
ROMANS
 72
     4
 11
117.2520577716839
 21
17.46448486905748
 31
0.0
100
AcDbText
  0
TEXT
  5
1E7
330
2
100
AcDbEntity
  8
5
 62
     3
100
AcDbText
 10
108.7660533917907
 20
12.94750067044252
 30
0.0
 40
1.672957110598158
  1
STRIP LENGTH
 41
0.9
  7
ROMANS
 72
     4
 11
116.5811530370135
 21
13.7839792257416
 31
0.0
100
AcDbText
  0
TEXT
  5
1E8
330
2
100
AcDbEntity
  8
5
 62
     3
100
AcDbText
 10
108.7674768902887
 20
9.266995027126869
 30
0.0
 40
1.672957110598158
  1
STRIP WIDTH
 41
0.9
  7
ROMANS
 72
     4
 11
115.6505004310354
 21
10.10347358242595
 31
0.0
100
AcDbText
  0
TEXT
  5
1E9
330
2
100
AcDbEntity
  8
5
 62
     3
100
AcDbText
 10
108.8349461955483
 20
5.586489383810986
 30
0.0
 40
1.672957110598158
  1
UNIT PITCH
 41
0.9
  7
ROMANS
 72
     4
 11
114.9651390365259
 21
6.422967939110066
 31
0.0
100
AcDbText
  0
TEXT
  5
1EA
330
2
100
AcDbEntity
  8
5
 62
     3
100
AcDbText
 10
108.8138929972824
 20
1.892332067178687
 30
0.0
 40
1.672957110598158
  1
CUMULATIVE PITCH
 41
0.9
  7
ROMANS
 72
     4
 11
119.3535227940508
 21
2.728810622477766
 31
0.0
100
AcDbText
  0
TEXT
  5
1EB
330
2
100
AcDbEntity
  8
5
 62
     3
100
AcDbText
 10
108.7925761643564
 20
-1.671805834488475
 30
0.0
 40
1.672957110598158
  1
LOCK/ANCHOR HOLE
 41
0.9
  7
ROMANS
 72
     4
 11
120.4793765512493
 21
-0.9548242156606931
 31
0.0
100
AcDbText
  0
TEXT
  5
1EC
330
2
100
AcDbEntity
  8
5
 62
     3
100
AcDbText
 10
108.6279197844873
 20
23.98901760039063
 30
0.0
 40
1.672957110598158
  1
HALF ETCHED DEPTH
 41
0.9
  7
ROMANS
 72
     4
 11
120.4581164951457
 21
24.82549615568971
 31
0.0
100
AcDbText
  0
TEXT
  5
1ED
330
2
100
AcDbEntity
  8
5
 62
     3
100
AcDbText
 10
137.5358617452641
 20
42.70133783143948
 30
0.0
 40
1.672957110598158
  1
(BOTTOM)
 41
0.9
  7
ROMANS
 72
     4
 11
142.7698275627069
 21
43.41831945026726
 31
0.0
100
AcDbText
  0
TEXT
  5
1EE
330
2
100
AcDbEntity
  8
5
 62
     3
100
AcDbText
 10
229.5845231405501
 20
-5.459716435092898
 30
0.0
 40
1.672957110598158
  1
0.020
 41
0.9
  7
ROMANS
 72
     4
 11
232.5958459396268
 21
-4.623237879793819
 31
0.0
100
AcDbText
  0
LWPOLYLINE
  5
1EF
330
2
100
AcDbEntity
  8
5
 62
     7
100
AcDbPolyline
 90
        2
 70
     0
 43
0.1672957110598158
 10
223.6934996107554
 20
-28.56940821972991
 10
223.6934996107554
 20
-24.88890923084934
  0
LWPOLYLINE
  5
1F0
330
2
100
AcDbEntity
  8
5
 62
     7
100
AcDbPolyline
 90
        2
 70
     0
 43
0.1672957110598158
 10
223.6934996107554
 20
-24.88888926754386
 10
223.6934996107554
 20
56.76558788373447
  0
LWPOLYLINE
  5
1F1
330
2
100
AcDbEntity
  8
5
 62
     7
100
AcDbPolyline
 90
        2
 70
     0
 43
0.1672957110598158
 10
205.983431281494
 20
-28.56940821972991
 10
205.983431281494
 20
-24.88890923084934
  0
LWPOLYLINE
  5
1F2
330
2
100
AcDbEntity
  8
5
 62
     7
100
AcDbPolyline
 90
        2
 70
     0
 43
0.1672957110598158
 10
205.983431281494
 20
-24.88888926754386
 10
205.983431281494
 20
56.76558788373447
  0
LWPOLYLINE
  5
1F3
330
2
100
AcDbEntity
  8
5
 62
     7
100
AcDbPolyline
 90
        2
 70
     0
 43
0.1672957110598158
 10
188.2733629522352
 20
-28.56940821972991
 10
188.2733629522352
 20
-24.88890923084934
  0
LWPOLYLINE
  5
1F4
330
2
100
AcDbEntity
  8
5
 62
     7
100
AcDbPolyline
 90
        2
 70
     0
 43
0.1672957110598158
 10
188.2733629522352
 20
-24.88888926754386
 10
188.2733629522352
 20
56.76558788373447
  0
TEXT
  5
1F5
330
2
100
AcDbEntity
  8
5
 62
     3
100
AcDbText
 10
214.2067271301014
 20
-9.099131053171797
 30
0.0
 40
1.672957110598158
  1
-
 41
0.9
  7
ROMANS
 72
     4
 11
214.8520105870464
 21
-8.382149434344015
 31
0.0
100
AcDbText
  0
TEXT
  5
1F6
330
2
100
AcDbEntity
  8
5
 62
     3
100
AcDbText
 10
211.0118321525232
 20
-56.98676216934781
 30
0.0
 40
1.672957110598158
  1
%%p0.102
 41
0.9
  7
ROMANS
 72
     4
 11
214.8118347323105
 21
-56.15028361404873
 31
0.0
100
AcDbText
  0
TEXT
  5
1F7
330
2
100
AcDbEntity
  8
5
 62
     3
100
AcDbText
 10
214.0995372203399
 20
-53.26516550079539
 30
0.0
 40
1.672957110598158
  1
-
 41
0.9
  7
ROMANS
 72
     4
 11
214.7448206772849
 21
-52.54818388196762
 31
0.0
100
AcDbText
  0
TEXT
  5
1F8
330
2
100
AcDbEntity
  8
5
 62
     3
100
AcDbText
 10
214.0995372203399
 20
-49.58465985747679
 30
0.0
 40
1.672957110598158
  1
-
 41
0.9
  7
ROMANS
 72
     4
 11
214.7448206772849
 21
-48.867678238649
 31
0.0
100
AcDbText
  0
TEXT
  5
1F9
330
2
100
AcDbEntity
  8
5
 62
     3
100
AcDbText
 10
214.0995372203399
 20
-45.90415421416317
 30
0.0
 40
1.672957110598158
  1
-
 41
0.9
  7
ROMANS
 72
     4
 11
214.7448206772849
 21
-45.1871725953354
 31
0.0
100
AcDbText
  0
TEXT
  5
1FA
330
2
100
AcDbEntity
  8
5
 62
     3
100
AcDbText
 10
212.4906467769042
 20
-71.71339561317212
 30
0.0
 40
1.672957110598158
  1
0.008
 41
0.9
  7
ROMANS
 72
     4
 11
215.5019695759809
 21
-70.87691705787304
 31
0.0
100
AcDbText
  0
TEXT
  5
1FB
330
2
100
AcDbEntity
  8
5
 62
     3
100
AcDbText
 10
214.0995372203399
 20
-60.62617678742693
 30
0.0
 40
1.672957110598158
  1
-
 41
0.9
  7
ROMANS
 72
     4
 11
214.7448206772849
 21
-59.90919516859915
 31
0.0
100
AcDbText
  0
TEXT
  5
1FC
330
2
100
AcDbEntity
  8
5
 62
     3
100
AcDbText
 10
214.0995372203399
 20
-64.30668243074032
 30
0.0
 40
1.672957110598158
  1
-
 41
0.9
  7
ROMANS
 72
     4
 11
214.7448206772849
 21
-63.58970081191253
 31
0.0
100
AcDbText
  0
TEXT
  5
1FD
330
2
100
AcDbEntity
  8
5
 62
     3
100
AcDbText
 10
214.0995372203399
 20
-67.98718807405894
 30
0.0
 40
1.672957110598158
  1
-
 41
0.9
  7
ROMANS
 72
     4
 11
214.7448206772849
 21
-67.27020645523115
 31
0.0
100
AcDbText
  0
TEXT
  5
1FE
330
2
100
AcDbEntity
  8
5
 62
     3
100
AcDbText
 10
214.0995372203399
 20
-38.54314292752869
 30
0.0
 40
1.672957110598158
  1
-
 41
0.9
  7
ROMANS
 72
     4
 11
214.7448206772849
 21
-37.82616130870091
 31
0.0
100
AcDbText
  0
TEXT
  5
1FF
330
2
100
AcDbEntity
  8
5
 62
     3
100
AcDbText
 10
214.0995372203399
 20
-31.18213164089964
 30
0.0
 40
1.672957110598158
  1
-
 41
0.9
  7
ROMANS
 72
     4
 11
214.7448206772849
 21
-30.46515002207185
 31
0.0
100
AcDbText
  0
TEXT
  5
200
330
2
100
AcDbEntity
  8
5
 62
     3
100
AcDbText
 10
214.0995372203399
 20
-34.86263728421279
 30
0.0
 40
1.672957110598158
  1
-
 41
0.9
  7
ROMANS
 72
     4
 11
214.7448206772849
 21
-34.14565566538501
 31
0.0
100
AcDbText
  0
TEXT
  5
201
330
2
100
AcDbEntity
  8
5
 62
     3
100
AcDbText
 10
211.0118321525205
 20
-42.26473959608428
 30
0.0
 40
1.672957110598158
  1
%%p0.152
 41
0.9
  7
ROMANS
 72
     4
 11
214.8118347323077
 21
-41.4282610407852
 31
0.0
100
AcDbText
  0
LWPOLYLINE
  5
202
330
2
100
AcDbEntity
  8
5
 62
     7
100
AcDbPolyline
 90
        2
 70
     0
 43
0.1672957110598158
 10
205.983431281494
 20
-69.05496364177228
 10
205.983431281494
 20
-28.56940821972991
  0
LWPOLYLINE
  5
203
330
2
100
AcDbEntity
  8
5
 62
     7
100
AcDbPolyline
 90
        2
 70
     0
 43
0.1672957110598158
 10
188.2733629522352
 20
-69.05496364177228
 10
188.2733629522352
 20
-28.56940821972991
  0
TEXT
  5
204
330
2
100
AcDbEntity
  8
5
 62
     3
100
AcDbText
 10
196.6835347765815
 20
-67.98718807405894
 30
0.0
 40
1.672957110598158
  1
-
 41
0.9
  7
ROMANS
 72
     4
 11
197.3288182335266
 21
-67.27020645523115
 31
0.0
100
AcDbText
  0
TEXT
  5
205
330
2
100
AcDbEntity
  8
5
 62
     3
100
AcDbText
 10
196.6835347765815
 20
-64.30668243074032
 30
0.0
 40
1.672957110598158
  1
-
 41
0.9
  7
ROMANS
 72
     4
 11
197.3288182335266
 21
-63.58970081191253
 31
0.0
100
AcDbText
  0
TEXT
  5
206
330
2
100
AcDbEntity
  8
5
 62
     3
100
AcDbText
 10
196.6835347765815
 20
-60.62617678742693
 30
0.0
 40
1.672957110598158
  1
-
 41
0.9
  7
ROMANS
 72
     4
 11
197.3288182335266
 21
-59.90919516859915
 31
0.0
100
AcDbText
  0
TEXT
  5
207
330
2
100
AcDbEntity
  8
5
 62
     3
100
AcDbText
 10
197.0515435401368
 20
-9.099131053171797
 30
0.0
 40
1.672957110598158
  1
-
 41
0.9
  7
ROMANS
 72
     4
 11
197.6968269970818
 21
-8.382149434344015
 31
0.0
100
AcDbText
  0
TEXT
  5
208
330
2
100
AcDbEntity
  8
5
 62
     3
100
AcDbText
 10
196.6835347765815
 20
-42.22364857084479
 30
0.0
 40
1.672957110598158
  1
-
 41
0.9
  7
ROMANS
 72
     4
 11
197.3288182335266
 21
-41.50666695201701
 31
0.0
100
AcDbText
  0
TEXT
  5
209
330
2
100
AcDbEntity
  8
5
 62
     3
100
AcDbText
 10
196.6835347765815
 20
-45.90415421416317
 30
0.0
 40
1.672957110598158
  1
-
 41
0.9
  7
ROMANS
 72
     4
 11
197.3288182335266
 21
-45.1871725953354
 31
0.0
100
AcDbText
  0
TEXT
  5
20A
330
2
100
AcDbEntity
  8
5
 62
     3
100
AcDbText
 10
196.6835347765815
 20
-49.58465985747679
 30
0.0
 40
1.672957110598158
  1
-
 41
0.9
  7
ROMANS
 72
     4
 11
197.3288182335266
 21
-48.867678238649
 31
0.0
100
AcDbText
  0
TEXT
  5
20B
330
2
100
AcDbEntity
  8
5
 62
     3
100
AcDbText
 10
196.6835347765815
 20
-53.26516550079539
 30
0.0
 40
1.672957110598158
  1
-
 41
0.9
  7
ROMANS
 72
     4
 11
197.3288182335266
 21
-52.54818388196762
 31
0.0
100
AcDbText
  0
TEXT
  5
20C
330
2
100
AcDbEntity
  8
5
 62
     3
100
AcDbText
 10
196.6835347765815
 20
-34.86263728421279
 30
0.0
 40
1.672957110598158
  1
-
 41
0.9
  7
ROMANS
 72
     4
 11
197.3288182335266
 21
-34.14565566538501
 31
0.0
100
AcDbText
  0
TEXT
  5
20D
330
2
100
AcDbEntity
  8
5
 62
     3
100
AcDbText
 10
196.6835347765815
 20
-31.18213164089964
 30
0.0
 40
1.672957110598158
  1
-
 41
0.9
  7
ROMANS
 72
     4
 11
197.3288182335266
 21
-30.46515002207185
 31
0.0
100
AcDbText
  0
TEXT
  5
20E
330
2
100
AcDbEntity
  8
5
 62
     3
100
AcDbText
 10
196.6835347765815
 20
-38.54314292752869
 30
0.0
 40
1.672957110598158
  1
-
 41
0.9
  7
ROMANS
 72
     4
 11
197.3288182335266
 21
-37.82616130870091
 31
0.0
100
AcDbText
  0
TEXT
  5
20F
330
2
100
AcDbEntity
  8
5
 62
     3
100
AcDbText
 10
196.6835347765815
 20
-56.94567114410832
 30
0.0
 40
1.672957110598158
  1
-
 41
0.9
  7
ROMANS
 72
     4
 11
197.3288182335266
 21
-56.22868952528055
 31
0.0
100
AcDbText
  0
TEXT
  5
210
330
2
100
AcDbEntity
  8
5
 62
     3
100
AcDbText
 10
230.0218975614734
 20
-60.66726781266392
 30
0.0
 40
1.672957110598158
  1
0.300
 41
0.9
  7
ROMANS
 72
     4
 11
233.0332203605501
 21
-59.83078925736484
 31
0.0
100
AcDbText
  0
TEXT
  5
211
330
2
100
AcDbEntity
  8
5
 62
     3
100
AcDbText
 10
230.0218975614734
 20
-68.02827909929546
 30
0.0
 40
1.672957110598158
  1
0.508
 41
0.9
  7
ROMANS
 72
     4
 11
233.0332203605501
 21
-67.19180054399638
 31
0.0
100
AcDbText
  0
TEXT
  5
212
330
2
100
AcDbEntity
  8
5
 62
     3
100
AcDbText
 10
229.6634067520595
 20
-64.34777345598231
 30
0.0
 40
1.672957110598158
  1
2.500%%d
 41
0.9
  7
ROMANS
 72
     4
 11
233.0332203605501
 21
-63.51129490068323
 31
0.0
100
AcDbText
  0
TEXT
  5
213
330
2
100
AcDbEntity
  8
5
 62
     3
100
AcDbText
 10
229.5845231405501
 20
-9.140222078409008
 30
0.0
 40
1.672957110598158
  1
0.508
 41
0.9
  7
ROMANS
 72
     4
 11
232.5958459396268
 21
-8.303743523109929
 31
0.0
100
AcDbText
  0
TEXT
  5
214
330
2
100
AcDbEntity
  8
5
 62
     3
100
AcDbText
 10
230.0218975614734
 20
-34.90372830945228
 30
0.0
 40
1.672957110598158
  1
0.025
 41
0.9
  7
ROMANS
 72
     4
 11
233.0332203605501
 21
-34.0672497541532
 31
0.0
100
AcDbText
  0
TEXT
  5
215
330
2
100
AcDbEntity
  8
5
 62
     3
100
AcDbText
 10
230.165293885239
 20
-31.22322266613617
 30
0.0
 40
1.672957110598158
  1
0.150
 41
0.9
  7
ROMANS
 72
     4
 11
233.0332203605501
 21
-30.38674411083709
 31
0.0
100
AcDbText
  0
TEXT
  5
216
330
2
100
AcDbEntity
  8
5
 62
     3
100
AcDbText
 10
232.3209228485832
 20
-42.22364857084479
 30
0.0
 40
1.672957110598158
  1
-
 41
0.9
  7
ROMANS
 72
     4
 11
232.9662063055282
 21
-41.50666695201701
 31
0.0
100
AcDbText
  0
TEXT
  5
217
330
2
100
AcDbEntity
  8
5
 62
     3
100
AcDbText
 10
232.3209228485832
 20
-56.94567114410832
 30
0.0
 40
1.672957110598158
  1
-
 41
0.9
  7
ROMANS
 72
     4
 11
232.9662063055282
 21
-56.22868952528055
 31
0.0
100
AcDbText
  0
TEXT
  5
218
330
2
100
AcDbEntity
  8
5
 62
     3
100
AcDbText
 10
226.1501968198034
 20
-45.8257483029284
 30
0.0
 40
1.672957110598158
  1
0.010/2.540
 41
0.9
  7
ROMANS
 72
     4
 11
233.0332203605501
 21
-45.10876668410062
 31
0.0
100
AcDbText
  0
TEXT
  5
219
330
2
100
AcDbEntity
  8
5
 62
     3
100
AcDbText
 10
230.7388791803012
 20
-49.62575088271582
 30
0.0
 40
1.672957110598158
  1
0.05
 41
0.9
  7
ROMANS
 72
     4
 11
233.0332203605501
 21
-48.78927232741673
 31
0.0
100
AcDbText
  0
TEXT
  5
21A
330
2
100
AcDbEntity
  8
5
 62
     3
100
AcDbText
 10
225.4186687250378
 20
-53.18675958956063
 30
0.0
 40
1.672957110598158
  1
0.076/2.540
 41
0.9
  7
ROMANS
 72
     4
 11
232.4450885895501
 21
-52.46977797073284
 31
0.0
100
AcDbText
  0
TEXT
  5
21B
330
2
100
AcDbEntity
  8
5
 62
     3
100
AcDbText
 10
210.4404915736334
 20
12.94281178148672
 30
0.0
 40
1.672957110598158
  1
240.000
 41
0.9
  7
ROMANS
 72
     4
 11
214.8857776103657
 21
13.7792903367858
 31
0.0
100
AcDbText
  0
TEXT
  5
21C
330
2
100
AcDbEntity
  8
5
 62
     3
100
AcDbText
 10
211.1574731924612
 20
9.262306138171071
 30
0.0
 40
1.672957110598158
  1
75.000
 41
0.9
  7
ROMANS
 72
     4
 11
214.8857776103657
 21
10.09878469347015
 31
0.0
100
AcDbText
  0
TEXT
  5
21D
330
2
100
AcDbEntity
  8
5
 62
     3
100
AcDbText
 10
210.583887897399
 20
5.581800494855189
 30
0.0
 40
1.672957110598158
  1
120.000
 41
0.9
  7
ROMANS
 72
     4
 11
214.8857776103657
 21
6.418279050154268
 31
0.0
100
AcDbText
  0
TEXT
  5
21E
330
2
100
AcDbEntity
  8
5
 62
     3
100
AcDbText
 10
211.8744548112891
 20
49.74786821464578
 30
0.0
 40
1.672957110598158
  1
0.203
 41
0.9
  7
ROMANS
 72
     4
 11
214.8857776103657
 21
50.58434676994486
 31
0.0
100
AcDbText
  0
TEXT
  5
21F
330
2
100
AcDbEntity
  8
5
 62
     3
100
AcDbText
 10
212.0178511350546
 20
46.06736257133035
 30
0.0
 40
1.672957110598158
  1
1.550
 41
0.9
  7
ROMANS
 72
     4
 11
214.8857776103657
 21
46.90384112662942
 31
0.0
100
AcDbText
  0
TEXT
  5
220
330
2
100
AcDbEntity
  8
5
 62
     3
100
AcDbText
 10
211.8744548112891
 20
42.38685692801424
 30
0.0
 40
1.672957110598158
  1
0.600
 41
0.9
  7
ROMANS
 72
     4
 11
214.8857776103657
 21
43.22333548331331
 31
0.0
100
AcDbText
  0
TEXT
  5
221
330
2
100
AcDbEntity
  8
5
 62
     7
100
AcDbText
 10
211.6537640766505
 20
53.43694702395809
 30
0.0
 40
2.007548532717789
  1
NOM.
 41
0.9
  7
ROMANS
 72
     4
 11
214.6650868757272
 21
54.44072129031699
 31
0.0
100
AcDbText
  0
TEXT
  5
222
330
2
100
AcDbEntity
  8
5
 62
     3
100
AcDbText
 10
214.2067271301014
 20
-5.418625409853413
 30
0.0
 40
1.672957110598158
  1
-
 41
0.9
  7
ROMANS
 72
     4
 11
214.8520105870464
 21
-4.701643791025631
 31
0.0
100
AcDbText
  0
TEXT
  5
223
330
2
100
AcDbEntity
  8
5
 62
     3
100
AcDbText
 10
214.2067271301014
 20
-1.738119766539818
 30
0.0
 40
1.672957110598158
  1
-
 41
0.9
  7
ROMANS
 72
     4
 11
214.8520105870464
 21
-1.021138147712036
 31
0.0
100
AcDbText
  0
TEXT
  5
224
330
2
100
AcDbEntity
  8
5
 62
     3
100
AcDbText
 10
214.2067271301014
 20
38.74744230993785
 30
0.0
 40
1.672957110598158
  1
-
 41
0.9
  7
ROMANS
 72
     4
 11
214.8520105870464
 21
39.46442392876562
 31
0.0
100
AcDbText
  0
TEXT
  5
225
330
2
100
AcDbEntity
  8
5
 62
     3
100
AcDbText
 10
214.2067271301014
 20
35.06693666661924
 30
0.0
 40
1.672957110598158
  1
-
 41
0.9
  7
ROMANS
 72
     4
 11
214.8520105870464
 21
35.78391828544702
 31
0.0
100
AcDbText
  0
TEXT
  5
226
330
2
100
AcDbEntity
  8
5
 62
     3
100
AcDbText
 10
214.2067271301014
 20
31.38643102330585
 30
0.0
 40
1.672957110598158
  1
-
 41
0.9
  7
ROMANS
 72
     4
 11
214.8520105870464
 21
32.10341264213364
 31
0.0
100
AcDbText
  0
TEXT
  5
227
330
2
100
AcDbEntity
  8
5
 62
     3
100
AcDbText
 10
211.9840841117353
 20
27.58642844351845
 30
0.0
 40
1.672957110598158
  1
0.170
 41
0.9
  7
ROMANS
 72
     4
 11
214.8520105870464
 21
28.42290699881753
 31
0.0
100
AcDbText
  0
TEXT
  5
228
330
2
100
AcDbEntity
  8
5
 62
     3
100
AcDbText
 10
212.0916313545594
 20
23.90592280020257
 30
0.0
 40
1.672957110598158
  1
0.114
 41
0.9
  7
ROMANS
 72
     4
 11
214.8520105870464
 21
24.74240135550164
 31
0.0
100
AcDbText
  0
TEXT
  5
229
330
2
100
AcDbEntity
  8
5
 62
     3
100
AcDbText
 10
193.0172158919053
 20
5.581800494855189
 30
0.0
 40
1.672957110598158
  1
119.975
 41
0.9
  7
ROMANS
 72
     4
 11
197.1757092811065
 21
6.418279050154268
 31
0.0
100
AcDbText
  0
TEXT
  5
22A
330
2
100
AcDbEntity
  8
5
 62
     3
100
AcDbText
 10
193.447404863202
 20
9.262306138171071
 30
0.0
 40
1.672957110598158
  1
74.950
 41
0.9
  7
ROMANS
 72
     4
 11
197.1757092811065
 21
10.09878469347015
 31
0.0
100
AcDbText
  0
TEXT
  5
22B
330
2
100
AcDbEntity
  8
5
 62
     3
100
AcDbText
 10
192.7304232443742
 20
12.94281178148672
 30
0.0
 40
1.672957110598158
  1
239.900
 41
0.9
  7
ROMANS
 72
     4
 11
197.1757092811065
 21
13.7792903367858
 31
0.0
100
AcDbText
  0
TEXT
  5
22C
330
2
100
AcDbEntity
  8
5
 62
     3
100
AcDbText
 10
194.1643864820298
 20
31.34533999806637
 30
0.0
 40
1.672957110598158
  1
0.050
 41
0.9
  7
ROMANS
 72
     4
 11
197.1757092811065
 21
32.18181855336545
 31
0.0
100
AcDbText
  0
TEXT
  5
22D
330
2
100
AcDbEntity
  8
5
 62
     3
100
AcDbText
 10
194.1643864820298
 20
35.02584564138225
 30
0.0
 40
1.672957110598158
  1
0.060
 41
0.9
  7
ROMANS
 72
     4
 11
197.1757092811065
 21
35.86232419668133
 31
0.0
100
AcDbText
  0
TEXT
  5
22E
330
2
100
AcDbEntity
  8
5
 62
     3
100
AcDbText
 10
194.1643864820298
 20
38.70635128469836
 30
0.0
 40
1.672957110598158
  1
0.060
 41
0.9
  7
ROMANS
 72
     4
 11
197.1757092811065
 21
39.54282983999744
 31
0.0
100
AcDbText
  0
TEXT
  5
22F
330
2
100
AcDbEntity
  8
5
 62
     3
100
AcDbText
 10
194.1643864820298
 20
42.38685692801424
 30
0.0
 40
1.672957110598158
  1
0.570
 41
0.9
  7
ROMANS
 72
     4
 11
197.1757092811065
 21
43.22333548331331
 31
0.0
100
AcDbText
  0
TEXT
  5
230
330
2
100
AcDbEntity
  8
5
 62
     3
100
AcDbText
 10
194.3077828057953
 20
46.06736257133035
 30
0.0
 40
1.672957110598158
  1
1.525
 41
0.9
  7
ROMANS
 72
     4
 11
197.1757092811065
 21
46.90384112662942
 31
0.0
100
AcDbText
  0
TEXT
  5
231
330
2
100
AcDbEntity
  8
5
 62
     3
100
AcDbText
 10
197.0515435401368
 20
-1.738119766539818
 30
0.0
 40
1.672957110598158
  1
-
 41
0.9
  7
ROMANS
 72
     4
 11
197.6968269970818
 21
-1.021138147712036
 31
0.0
100
AcDbText
  0
TEXT
  5
232
330
2
100
AcDbEntity
  8
5
 62
     3
100
AcDbText
 10
197.0515435401368
 20
-5.418625409853413
 30
0.0
 40
1.672957110598158
  1
-
 41
0.9
  7
ROMANS
 72
     4
 11
197.6968269970818
 21
-4.701643791025631
 31
0.0
100
AcDbText
  0
TEXT
  5
233
330
2
100
AcDbEntity
  8
5
 62
     3
100
AcDbText
 10
194.3077828057953
 20
27.66483435475071
 30
0.0
 40
1.672957110598158
  1
0.130
 41
0.9
  7
ROMANS
 72
     4
 11
197.1757092811065
 21
28.50131291004979
 31
0.0
100
AcDbText
  0
TEXT
  5
234
330
2
100
AcDbEntity
  8
5
 62
     3
100
AcDbText
 10
194.1285374010884
 20
23.98432871143461
 30
0.0
 40
1.672957110598158
  1
0.084
 41
0.9
  7
ROMANS
 72
     4
 11
197.1757092811065
 21
24.82080726673368
 31
0.0
100
AcDbText
  0
TEXT
  5
235
330
2
100
AcDbEntity
  8
5
 62
     3
100
AcDbText
 10
194.3077828057953
 20
49.74786821464578
 30
0.0
 40
1.672957110598158
  1
0.195
 41
0.9
  7
ROMANS
 72
     4
 11
197.1757092811065
 21
50.58434676994486
 31
0.0
100
AcDbText
  0
TEXT
  5
236
330
2
100
AcDbEntity
  8
5
 62
     7
100
AcDbText
 10
195.1109922812168
 20
53.45541017037639
 30
0.0
 40
2.007548532717789
  1
MIN.
 41
0.9
  7
ROMANS
 72
     4
 11
197.5200505204782
 21
54.45918443673528
 31
0.0
100
AcDbText
  0
TEXT
  5
237
330
2
100
AcDbEntity
  8
5
 62
     3
100
AcDbText
 10
228.2939562266601
 20
12.94281178148672
 30
0.0
 40
1.672957110598158
  1
240.100
 41
0.9
  7
ROMANS
 72
     4
 11
232.5958459396268
 21
13.7792903367858
 31
0.0
100
AcDbText
  0
TEXT
  5
238
330
2
100
AcDbEntity
  8
5
 62
     3
100
AcDbText
 10
228.8675415217223
 20
9.262306138171071
 30
0.0
 40
1.672957110598158
  1
75.050
 41
0.9
  7
ROMANS
 72
     4
 11
232.5958459396268
 21
10.09878469347015
 31
0.0
100
AcDbText
  0
TEXT
  5
239
330
2
100
AcDbEntity
  8
5
 62
     3
100
AcDbText
 10
228.2939562266601
 20
5.581800494855189
 30
0.0
 40
1.672957110598158
  1
120.025
 41
0.9
  7
ROMANS
 72
     4
 11
232.5958459396268
 21
6.418279050154268
 31
0.0
100
AcDbText
  0
TEXT
  5
23A
330
2
100
AcDbEntity
  8
5
 62
     3
100
AcDbText
 10
229.7279194643156
 20
46.06736257133035
 30
0.0
 40
1.672957110598158
  1
1.575
 41
0.9
  7
ROMANS
 72
     4
 11
232.5958459396268
 21
46.90384112662942
 31
0.0
100
AcDbText
  0
TEXT
  5
23B
330
2
100
AcDbEntity
  8
5
 62
     3
100
AcDbText
 10
229.5845231405501
 20
42.38685692801424
 30
0.0
 40
1.672957110598158
  1
0.630
 41
0.9
  7
ROMANS
 72
     4
 11
232.5958459396268
 21
43.22333548331331
 31
0.0
100
AcDbText
  0
TEXT
  5
23C
330
2
100
AcDbEntity
  8
5
 62
     3
100
AcDbText
 10
232.2441083765618
 20
-1.738119766539818
 30
0.0
 40
1.672957110598158
  1
-
 41
0.9
  7
ROMANS
 72
     4
 11
232.8893918335068
 21
-1.021138147712036
 31
0.0
100
AcDbText
  0
TEXT
  5
23D
330
2
100
AcDbEntity
  8
5
 62
     3
100
AcDbText
 10
232.2441083765618
 20
38.74744230993785
 30
0.0
 40
1.672957110598158
  1
-
 41
0.9
  7
ROMANS
 72
     4
 11
232.8893918335068
 21
39.46442392876562
 31
0.0
100
AcDbText
  0
TEXT
  5
23E
330
2
100
AcDbEntity
  8
5
 62
     3
100
AcDbText
 10
232.2441083765618
 20
35.06693666661924
 30
0.0
 40
1.672957110598158
  1
-
 41
0.9
  7
ROMANS
 72
     4
 11
232.8893918335068
 21
35.78391828544702
 31
0.0
100
AcDbText
  0
TEXT
  5
23F
330
2
100
AcDbEntity
  8
5
 62
     3
100
AcDbText
 10
232.2441083765618
 20
31.38643102330585
 30
0.0
 40
1.672957110598158
  1
-
 41
0.9
  7
ROMANS
 72
     4
 11
232.8893918335068
 21
32.10341264213364
 31
0.0
100
AcDbText
  0
TEXT
  5
240
330
2
100
AcDbEntity
  8
5
 62
     3
100
AcDbText
 10
230.0214653581957
 20
27.58642844351844
 30
0.0
 40
1.672957110598158
  1
0.210
 41
0.9
  7
ROMANS
 72
     4
 11
232.8893918335068
 21
28.42290699881753
 31
0.0
100
AcDbText
  0
TEXT
  5
241
330
2
100
AcDbEntity
  8
5
 62
     3
100
AcDbText
 10
229.9856162772543
 20
23.90592280020257
 30
0.0
 40
1.672957110598158
  1
0.144
 41
0.9
  7
ROMANS
 72
     4
 11
232.8893918335068
 21
24.74240135550164
 31
0.0
100
AcDbText
  0
TEXT
  5
242
330
2
100
AcDbEntity
  8
5
 62
     3
100
AcDbText
 10
230.0505611927881
 20
49.74786821464578
 30
0.0
 40
1.672957110598158
  1
0.211
 41
0.9
  7
ROMANS
 72
     4
 11
232.5958459396268
 21
50.58434676994486
 31
0.0
100
AcDbText
  0
TEXT
  5
243
330
2
100
AcDbEntity
  8
5
 62
     7
100
AcDbText
 10
230.2696753011908
 20
53.47387331679423
 30
0.0
 40
2.007548532717789
  1
MAX.
 41
0.9
  7
ROMANS
 72
     4
 11
233.1949603060082
 21
54.47764758315313
 31
0.0
100
AcDbText
  0
LINE
  5
244
330
2
100
AcDbEntity
  8
5
 62
     3
100
AcDbLine
 10
101.0132065138921
 20
-76.41594831066711
 30
0.0
 11
241.4035679400165
 21
-76.41594831066711
 31
0.0
  0
TEXT
  5
245
330
2
100
AcDbEntity
  8
5
 62
     3
100
AcDbText
 10
108.8945456826446
 20
-27.53802813386449
 30
0.0
 40
1.672957110598158
  1
TAPE POSITION TOL.
 41
0.9
  7
ROMANS
 72
     4
 11
120.2945534220064
 21
-26.70154957856541
 31
0.0
100
AcDbText
  0
TEXT
  5
246
330
2
100
AcDbEntity
  8
5
 62
     3
100
AcDbText
 10
102.6726258384328
 20
-31.17872723013795
 30
0.0
 40
1.672957110598158
  1
20
 41
0.9
  7
ROMANS
 72
     4
 11
103.89149459044
 21
-30.34224867483887
 31
0.0
100
AcDbText
  0
LWPOLYLINE
  5
247
330
2
100
AcDbEntity
  8
5
 62
     7
100
AcDbPolyline
 90
        2
 70
     0
 43
0.1672957110598158
 10
223.6934996107554
 20
-69.05496364177228
 10
223.6934996107554
 20
-28.56940821972991
  0
LWPOLYLINE
  5
248
330
2
100
AcDbEntity
  8
5
 62
     7
100
AcDbPolyline
 90
        2
 70
     0
 43
0.1672957110598158
 10
241.4035679400165
 20
-91.13645395398297
 10
241.4035679400165
 20
56.76558788373447
  0
LINE
  5
249
330
2
100
AcDbEntity
  8
5
 62
     3
100
AcDbLine
 10
106.7902484602116
 20
-91.13645395398297
 30
0.0
 11
106.7902484602089
 21
56.76558788373447
 31
0.0
  0
LWPOLYLINE
  5
24A
330
2
100
AcDbEntity
  8
5
 62
     7
100
AcDbPolyline
 90
        2
 70
     0
 43
0.1672957110598158
 10
101.0132065138921
 20
-91.13645395398297
 10
101.0132065138893
 20
56.76558788373447
  0
TEXT
  5
24B
330
2
100
AcDbEntity
  8
5
 62
     3
100
AcDbText
 10
230.0218975614734
 20
-38.5842339527684
 30
0.0
 40
1.672957110598158
  1
0.025
 41
0.9
  7
ROMANS
 72
     4
 11
233.0332203605501
 21
-37.74775539746932
 31
0.0
100
AcDbText
  0
TEXT
  5
24C
330
2
100
AcDbEntity
  8
5
 62
     3
100
AcDbText
 10
102.8182026180281
 20
-27.51598463269272
 30
0.0
 40
1.672957110598158
  1
19
 41
0.9
  7
ROMANS
 72
     4
 11
103.8578259653284
 21
-26.67950607739364
 31
0.0
100
AcDbText
  0
TEXT
  5
24D
330
2
100
AcDbEntity
  8
5
 62
     3
100
AcDbText
 10
108.7798380725687
 20
49.75255710360226
 30
0.0
 40
1.672957110598158
  1
MATERIAL THICKNESS
 41
0.9
  7
ROMANS
 72
     4
 11
120.7892801879341
 21
50.58903565890133
 31
0.0
100
AcDbText
  0
TEXT
  5
24E
330
2
100
AcDbEntity
  8
5
 62
     3
100
AcDbText
 10
102.7823535370867
 20
-12.79394209612371
 30
0.0
 40
1.672957110598158
  1
18
 41
0.9
  7
ROMANS
 72
     4
 11
103.8578259653284
 21
-11.95746354082463
 31
0.0
100
AcDbText
  0
TEXT
  5
24F
330
2
100
AcDbEntity
  8
5
 62
     3
100
AcDbText
 10
102.6031081323798
 20
-82.76655498558275
 30
0.0
 40
1.672957110598158
  1
34
 41
0.9
  7
ROMANS
 72
     4
 11
103.8578259653284
 21
-81.93007643028366
 31
0.0
100
AcDbText
  0
TEXT
  5
250
330
2
100
AcDbEntity
  8
5
 62
     3
100
AcDbText
 10
109.4744143665724
 20
-86.45369439907144
 30
0.0
 40
1.672957110598158
  1
MASK TOOLING: SINGLE EXPOSE MASK
 41
0.9
  7
ROMANS
 72
     4
 11
131.557448226468
 21
-85.61721584377236
 31
0.0
100
AcDbText
  0
TEXT
  5
251
330
2
100
AcDbEntity
  8
5
 62
     3
100
AcDbText
 10
102.6389572133211
 20
-86.44655498558257
 30
0.0
 40
1.672957110598158
  1
35
 41
0.9
  7
ROMANS
 72
     4
 11
103.8578259653284
 21
-85.6100764302835
 31
0.0
100
AcDbText
  0
TEXT
  5
252
330
2
100
AcDbEntity
  8
5
 62
     3
100
AcDbText
 10
109.325050222109
 20
-89.97436515044288
 30
0.0
 40
1.672957110598158
  1
EPOXY BLEED TEST: QMI 519, MAX EBO 0.125MM
 41
0.9
  7
ROMANS
 72
     4
 11
137.8609186514548
 21
-89.29721584377219
 31
0.0
100
AcDbText
  0
TEXT
  5
253
330
2
100
AcDbEntity
  8
5
 62
     3
100
AcDbText
 10
214.2067271301014
 20
1.942385876778109
 30
0.0
 40
1.672957110598158
  1
-
 41
0.9
  7
ROMANS
 72
     4
 11
214.8520105870464
 21
2.659367495605891
 31
0.0
100
AcDbText
  0
TEXT
  5
254
330
2
100
AcDbEntity
  8
5
 62
     3
100
AcDbText
 10
197.0515435401368
 20
1.942385876778109
 30
0.0
 40
1.672957110598158
  1
-
 41
0.9
  7
ROMANS
 72
     4
 11
197.6968269970818
 21
2.659367495605891
 31
0.0
100
AcDbText
  0
TEXT
  5
255
330
2
100
AcDbEntity
  8
5
 62
     3
100
AcDbText
 10
232.2441083765618
 20
1.942385876778109
 30
0.0
 40
1.672957110598158
  1
-
 41
0.9
  7
ROMANS
 72
     4
 11
232.8893918335068
 21
2.659367495605891
 31
0.0
100
AcDbText
  0
TEXT
  5
256
330
2
100
AcDbEntity
  8
5
 62
     3
100
AcDbText
 10
211.1237061691419
 20
-27.62112293405255
 30
0.0
 40
1.672957110598158
  1
34.250
 41
0.9
  7
ROMANS
 72
     4
 11
214.8520105870464
 21
-26.78464437875347
 31
0.0
100
AcDbText
  0
TEXT
  5
257
330
2
100
AcDbEntity
  8
5
 62
     3
100
AcDbText
 10
193.9685225791774
 20
-27.62112293405255
 30
0.0
 40
1.672957110598158
  1
33.950
 41
0.9
  7
ROMANS
 72
     4
 11
197.6968269970818
 21
-26.78464437875347
 31
0.0
100
AcDbText
  0
TEXT
  5
258
330
2
100
AcDbEntity
  8
5
 62
     3
100
AcDbText
 10
229.1610874156023
 20
-27.62112293405255
 30
0.0
 40
1.672957110598158
  1
34.550
 41
0.9
  7
ROMANS
 72
     4
 11
232.8893918335068
 21
-26.78464437875347
 31
0.0
100
AcDbText
  0
LINE
  5
259
330
2
100
AcDbEntity
  8
5
 62
     3
100
AcDbLine
 10
101.0132065138893
 20
-10.16690662088764
 30
0.0
 11
241.403567940017
 21
-10.16690662088764
 31
0.0
  0
LINE
  5
25A
330
2
100
AcDbEntity
  8
6
 62
     3
100
AcDbLine
 10
101.0132065159393
 20
-17.52791790490688
 30
0.0
 11
241.4035678922535
 21
-17.52791790490688
 31
0.0
  0
LINE
  5
25B
330
2
100
AcDbEntity
  8
6
 62
     3
100
AcDbLine
 10
101.0132065159393
 20
-13.84741226289976
 30
0.0
 11
241.4035678922535
 21
-13.84741226289976
 31
0.0
  0
LINE
  5
25C
330
2
100
AcDbEntity
  8
6
 62
     3
100
AcDbLine
 10
101.0132065159393
 20
-21.20842354691764
 30
0.0
 11
241.4035678922535
 21
-21.20842354691764
 31
0.0
  0
TEXT
  5
25D
330
2
100
AcDbEntity
  8
6
 62
     3
100
AcDbText
 10
108.5190202200776
 20
-12.6306378566254
 30
0.0
 40
1.672957110004569
  1
PLATING AREA (PAD CENTER REF.) : XR
 41
0.9
  7
ROMANS
 72
     4
 11
132.0360173092847
 21
-11.91365623805201
 31
0.0
100
AcDbText
  0
TEXT
  5
25E
330
2
100
AcDbEntity
  8
6
 62
     3
100
AcDbText
 10
150.6795999333513
 20
-16.5524603427771
 30
0.0
 40
1.672957110004569
  1
: XL
 41
0.9
  7
ROMANS
 72
     4
 11
153.0456392746434
 21
-15.71598178777482
 31
0.0
100
AcDbText
  0
TEXT
  5
25F
330
2
100
AcDbEntity
  8
6
 62
     3
100
AcDbText
 10
150.6079017714939
 20
-20.02414939271015
 30
0.0
 40
1.672957110004569
  1
: YH
 41
0.9
  7
ROMANS
 72
     4
 11
153.0456392746434
 21
-19.18767083770787
 31
0.0
100
AcDbText
  0
TEXT
  5
260
330
2
100
AcDbEntity
  8
6
 62
     3
100
AcDbText
 10
150.6795999333513
 20
-23.82647562503966
 30
0.0
 40
1.672957110004569
  1
: YL
 41
0.9
  7
ROMANS
 72
     4
 11
153.0456392746434
 21
-22.98999707003738
 31
0.0
100
AcDbText
  0
TEXT
  5
261
330
2
100
AcDbEntity
  8
6
 62
     3
100
AcDbText
 10
214.206727091986
 20
-23.82114031272191
 30
0.0
 40
1.672957110004569
  1
-
 41
0.9
  7
ROMANS
 72
     4
 11
214.8520105487021
 21
-23.10415869414852
 31
0.0
100
AcDbText
  0
TEXT
  5
262
330
2
100
AcDbEntity
  8
6
 62
     3
100
AcDbText
 10
214.206727091986
 20
-20.14063467071297
 30
0.0
 40
1.672957110004569
  1
-
 41
0.9
  7
ROMANS
 72
     4
 11
214.8520105487021
 21
-19.42365305213958
 31
0.0
100
AcDbText
  0
TEXT
  5
263
330
2
100
AcDbEntity
  8
6
 62
     3
100
AcDbText
 10
214.206727091986
 20
-16.46012902870403
 30
0.0
 40
1.672957110004569
  1
-
 41
0.9
  7
ROMANS
 72
     4
 11
214.8520105487021
 21
-15.74314741013064
 31
0.0
100
AcDbText
  0
TEXT
  5
264
330
2
100
AcDbEntity
  8
6
 62
     3
100
AcDbText
 10
214.206727091986
 20
-12.77962338669327
 30
0.0
 40
1.672957110004569
  1
-
 41
0.9
  7
ROMANS
 72
     4
 11
214.8520105487021
 21
-12.06264176811989
 31
0.0
100
AcDbText
  0
TEXT
  5
265
330
2
100
AcDbEntity
  8
6
 62
     3
100
AcDbText
 10
231.9167954149643
 20
-23.82114031272191
 30
0.0
 40
1.672957110004569
  1
-
 41
0.9
  7
ROMANS
 72
     4
 11
232.5620788716804
 21
-23.10415869414852
 31
0.0
100
AcDbText
  0
TEXT
  5
266
330
2
100
AcDbEntity
  8
6
 62
     3
100
AcDbText
 10
231.9167954149643
 20
-20.14063467071297
 30
0.0
 40
1.672957110004569
  1
-
 41
0.9
  7
ROMANS
 72
     4
 11
232.5620788716804
 21
-19.42365305213958
 31
0.0
100
AcDbText
  0
TEXT
  5
267
330
2
100
AcDbEntity
  8
6
 62
     3
100
AcDbText
 10
231.9167954149643
 20
-16.46012902870403
 30
0.0
 40
1.672957110004569
  1
-
 41
0.9
  7
ROMANS
 72
     4
 11
232.5620788716804
 21
-15.74314741013064
 31
0.0
100
AcDbText
  0
TEXT
  5
268
330
2
100
AcDbEntity
  8
6
 62
     3
100
AcDbText
 10
231.9167954149643
 20
-12.77962338669327
 30
0.0
 40
1.672957110004569
  1
-
 41
0.9
  7
ROMANS
 72
     4
 11
232.5620788716804
 21
-12.06264176811989
 31
0.0
100
AcDbText
  0
TEXT
  5
269
330
2
100
AcDbEntity
  8
5
 62
     3
100
AcDbText
 10
102.6748062942625
 20
-90.12655498558265
 30
0.0
 40
1.672957110598158
  1
36
 41
0.9
  7
ROMANS
 72
     4
 11
103.8578259653284
 21
-89.29007643028356
 31
0.0
100
AcDbText
  0
TEXT
  5
26A
330
2
100
AcDbEntity
  8
6
 62
     3
100
AcDbText
 10
196.496658762725
 20
-23.82114031272191
 30
0.0
 40
1.672957110004569
  1
-
 41
0.9
  7
ROMANS
 72
     4
 11
197.141942219441
 21
-23.10415869414852
 31
0.0
100
AcDbText
  0
TEXT
  5
26B
330
2
100
AcDbEntity
  8
6
 62
     3
100
AcDbText
 10
196.496658762725
 20
-20.14063467071297
 30
0.0
 40
1.672957110004569
  1
-
 41
0.9
  7
ROMANS
 72
     4
 11
197.141942219441
 21
-19.42365305213958
 31
0.0
100
AcDbText
  0
TEXT
  5
26C
330
2
100
AcDbEntity
  8
6
 62
     3
100
AcDbText
 10
196.496658762725
 20
-16.46012902870403
 30
0.0
 40
1.672957110004569
  1
-
 41
0.9
  7
ROMANS
 72
     4
 11
197.141942219441
 21
-15.74314741013064
 31
0.0
100
AcDbText
  0
TEXT
  5
26D
330
2
100
AcDbEntity
  8
6
 62
     3
100
AcDbText
 10
196.496658762725
 20
-12.77962338669327
 30
0.0
 40
1.672957110004569
  1
-
 41
0.9
  7
ROMANS
 72
     4
 11
197.141942219441
 21
-12.06264176811989
 31
0.0
100
AcDbText
  0
TEXT
  5
26E
330
2
100
AcDbEntity
  8
5
 62
     7
100
AcDbText
 10
165.0435352774537
 20
59.92353575089257
 30
0.0
 40
4.265373104485653
  1
NOTES :
 41
0.9
  7
ROMANS
 72
     4
 11
176.1944392506091
 21
62.0562223031354
 31
0.0
100
AcDbText
  0
TEXT
  5
26F
330
2
100
AcDbEntity
  8
5
 62
     3
100
AcDbText
 10
214.2067271301014
 20
20.34491409336025
 30
0.0
 40
1.672957110598158
  1
-
 41
0.9
  7
ROMANS
 72
     4
 11
214.8520105870464
 21
21.06189571218803
 31
0.0
100
AcDbText
  0
TEXT
  5
270
330
2
100
AcDbEntity
  8
5
 62
     3
100
AcDbText
 10
197.0515435401368
 20
20.34491409336025
 30
0.0
 40
1.672957110598158
  1
-
 41
0.9
  7
ROMANS
 72
     4
 11
197.6968269970818
 21
21.06189571218803
 31
0.0
100
AcDbText
  0
TEXT
  5
271
330
2
100
AcDbEntity
  8
5
 62
     3
100
AcDbText
 10
232.2441083765618
 20
20.34491409336025
 30
0.0
 40
1.672957110598158
  1
-
 41
0.9
  7
ROMANS
 72
     4
 11
232.8893918335068
 21
21.06189571218803
 31
0.0
100
AcDbText
  0
TEXT
  5
272
330
2
100
AcDbEntity
  8
5
 62
     3
100
AcDbText
 10
214.2067271301014
 20
17.00613818468131
 30
0.0
 40
1.672957110598158
  1
-
 41
0.9
  7
ROMANS
 72
     4
 11
214.8520105870464
 21
17.72311980350909
 31
0.0
100
AcDbText
  0
TEXT
  5
273
330
2
100
AcDbEntity
  8
5
 62
     3
100
AcDbText
 10
197.0515435401368
 20
17.00613818468131
 30
0.0
 40
1.672957110598158
  1
-
 41
0.9
  7
ROMANS
 72
     4
 11
197.6968269970818
 21
17.72311980350909
 31
0.0
100
AcDbText
  0
TEXT
  5
274
330
2
100
AcDbEntity
  8
5
 62
     3
100
AcDbText
 10
232.2441083765618
 20
17.00613818468131
 30
0.0
 40
1.672957110598158
  1
-
 41
0.9
  7
ROMANS
 72
     4
 11
232.8893918335068
 21
17.72311980350909
 31
0.0
100
AcDbText
  0
ENDSEC
  0
SECTION
  2
OBJECTS
  0
DICTIONARY
  5
C
330
0
100
AcDbDictionary
281
     1
  3
ACAD_COLOR
350
12D
  3
ACAD_FIELDLIST
350
276
  3
ACAD_GROUP
350
128
  3
ACAD_LAYOUT
350
12
  3
ACAD_MATERIAL
350
E
  3
ACAD_MLEADERSTYLE
350
130
  3
ACAD_MLINESTYLE
350
129
  3
ACAD_PLOTSETTINGS
350
12A
  3
ACAD_PLOTSTYLENAME
350
B
  3
ACAD_SCALELIST
350
12E
  3
ACAD_TABLESTYLE
350
12F
  3
ACAD_VISUALSTYLE
350
122
  3
ACDB_RECOMPOSE_DATA
350
27A
  3
AcDbVariableDictionary
350
131
  0
DICTIONARY
  5
1D
330
1C
100
AcDbDictionary
280
     1
281
     1
  3
ACAD_LAYERFILTERS
360
1E
  3
ACAD_LAYERSTATES
360
115
  0
DICTIONARY
  5
8
330
7
100
AcDbDictionary
280
     1
281
     1
  3
ADSK_XREC_LAYER_RECONCILED
360
9
  0
DICTIONARY
  5
13F
330
13E
100
AcDbDictionary
280
     1
281
     1
  3
ADSK_XREC_LAYER_RECONCILED
360
140
  0
DICTIONARY
  5
189
330
188
100
AcDbDictionary
280
     1
281
     1
  3
ADSK_XREC_LAYER_RECONCILED
360
18A
  0
DICTIONARY
  5
18
330
17
100
AcDbDictionary
280
     1
281
     1
  3
ADSK_XREC_LAYER_RECONCILED
360
19
  0
DICTIONARY
  5
3
330
2
100
AcDbDictionary
280
     1
281
     1
  3
ACAD_ASSOCNETWORK
360
4
  3
ACAD_SORTENTS
360
275
  0
DICTIONARY
  5
12D
102
{ACAD_REACTORS
330
C
102
}
330
C
100
AcDbDictionary
281
     1
  0
FIELDLIST
  5
276
102
{ACAD_REACTORS
330
C
102
}
330
C
100
AcDbIdSet
 90
        0
100
AcDbFieldList
  0
DICTIONARY
  5
128
102
{ACAD_REACTORS
330
C
102
}
330
C
100
AcDbDictionary
281
     1
  0
DICTIONARY
  5
12
102
{ACAD_REACTORS
330
C
102
}
330
C
100
AcDbDictionary
281
     1
  3
Model
350
11
  3
1
350
1B
  0
DICTIONARY
  5
E
102
{ACAD_REACTORS
330
C
102
}
330
C
100
AcDbDictionary
281
     1
  3
ByBlock
350
12C
  3
ByLayer
350
12B
  3
Global
350
D
  0
DICTIONARY
  5
130
102
{ACAD_REACTORS
330
C
102
}
330
C
100
AcDbDictionary
281
     1
  0
DICTIONARY
  5
129
102
{ACAD_REACTORS
330
C
102
}
330
C
100
AcDbDictionary
281
     1
  3
Standard
350
141
  0
DICTIONARY
  5
12A
102
{ACAD_REACTORS
330
C
102
}
330
C
100
AcDbDictionary
281
     1
  0
ACDBDICTIONARYWDFLT
  5
B
102
{ACAD_REACTORS
330
C
102
}
330
C
100
AcDbDictionary
281
     1
  3
Normal
350
A
100
AcDbDictionaryWithDefault
340
A
  0
DICTIONARY
  5
12E
102
{ACAD_REACTORS
330
C
102
}
330
C
100
AcDbDictionary
281
     1
  3
A0
350
148
  3
A1
350
149
  3
A2
350
14A
  3
A3
350
14B
  3
A4
350
14C
  3
A5
350
14D
  3
A6
350
14E
  3
A7
350
14F
  3
A8
350
150
  3
A9
350
151
  3
B0
350
152
  3
B1
350
153
  3
B2
350
154
  3
B3
350
155
  3
B4
350
156
  3
B5
350
157
  3
B6
350
158
  3
B7
350
159
  3
B8
350
15A
  3
B9
350
15B
  3
C0
350
15C
  3
C1
350
15D
  3
C2
350
15E
  3
C3
350
15F
  3
C4
350
160
  3
C5
350
161
  3
C6
350
162
  3
C7
350
163
  3
C8
350
164
  3
C9
350
165
  3
D0
350
166
  3
D1
350
167
  3
D2
350
168
  0
DICTIONARY
  5
12F
102
{ACAD_REACTORS
330
C
102
}
330
C
100
AcDbDictionary
281
     1
  3
Standard
350
142
  0
DICTIONARY
  5
122
102
{ACAD_REACTORS
330
C
102
}
330
C
100
AcDbDictionary
281
     1
  3
2dWireframe
350
121
  3
Realistic
350
143
  3
Wireframe
350
144
  0
XRECORD
  5
27A
102
{ACAD_REACTORS
330
C
102
}
330
C
100
AcDbXrecord
280
     1
 90
        1
330
142
  0
DICTIONARY
  5
131
102
{ACAD_REACTORS
330
C
102
}
330
C
100
AcDbDictionary
281
     1
  3
CANNOSCALE
350
132
  3
CMLEADERSTYLE
350
133
  3
CTABLESTYLE
350
134
  3
CVIEWDETAILSTYLE
350
135
  3
CVIEWSECTIONSTYLE
350
136
  3
DIMASSOC
350
137
  3
INDEXCTL
350
138
  3
LAYEREVAL
350
139
  3
LAYERNOTIFY
350
13A
  3
MSLTSCALE
350
13B
  3
SORTENTS
350
13C
  3
XCLIPFRAME
350
13D
  0
DICTIONARY
  5
1E
102
{ACAD_REACTORS
330
1D
102
}
330
1D
100
AcDbDictionary
280
     1
281
     1
  3
!
360
1F
  3
!!
360
20
  3
!!!ALL LAYERS
360
21
  3
!_3DLAYER
360
22
  3
!_shane
360
23
  3
!_WORKING
360
24
  3
!a
360
25
  3
!AQ
360
26
  3
!awall
360
27
  3
!AXIS
360
28
  3
!CEILING
360
29
  3
!DETAIL
360
2A
  3
!DOOR
360
2B
  3
!EL
360
2C
  3
!ELEVATION
360
2D
  3
!EXISTING
360
2E
  3
!FLOOR
360
2F
  3
!FURNITURE
360
30
  3
!LS
360
31
  3
!MS
360
32
  3
!TA
360
33
  3
!TS
360
34
  3
!WALL
360
35
  3
#
360
36
  3
# Arhitektuur
360
37
  3
# Asend
360
38
  3
# Asendiplaan
360
39
  3
# Elekter
360
3A
  3
# Kik kihid
360
3B
  3
# Kte-vent
360
3C
  3
# Planeering
360
3D
  3
# Sisekujundus
360
3E
  3
# Soojus
360
3F
  3
# Tehnoloogia
360
40
  3
# Topo
360
41
  3
# Topo-geodeesia
360
42
  3
# Tugiplaan
360
43
  3
# Vertikaal-teed
360
44
  3
# Vesi-kanal
360
45
  3
#8
360
46
  3
#EC
360
47
  3
#RD
360
48
  3
#RE
360
49
  3
#SD
360
4A
  3
#SF
360
4B
  3
#SS
360
4C
  3
#SV
360
4D
  3
#SWA Files
360
4E
  3
#TR
360
4F
  3
#UT
360
50
  3
#WA
360
51
  3
#WF
360
52
  3
$
360
53
  3
$$
360
54
  3
$$$
360
55
  3
$-
360
56
  3
$0
360
57
  3
$0$
360
58
  3
--- ein
360
59
  3
--- getaut
360
5A
  3
--- neu
360
5B
  3
--- plotten
360
5C
  3
---ein
360
5D
  3
-100
360
5E
  3
-50
360
5F
  3
-getaut
360
60
  3
-H
360
61
  3
-T
360
62
  3
00
360
63
  3
01_book holder
360
64
  3
025
360
65
  3
035
360
66
  3
050
360
67
  3
070
360
68
  3
1
360
69
  3
1000
360
6A
  3
1111
360
6B
  3
12
360
6C
  3
123
360
6D
  3
14-6
360
6E
  3
2
360
6F
  3
21
360
70
  3
41
360
71
  3
5
360
72
  3
51-52
360
73
  3
8
360
74
  3
_ein
360
75
  3
a
360
76
  3
A-
360
77
  3
A3
360
78
  3
AIR BLOCK
360
79
  3
ALL DROPINS
360
7A
  3
APP LAYERS
360
7B
  3
APP-A
360
7C
  3
APP-D
360
7D
  3
APP-M LAYERS
360
7E
  3
AS-
360
7F
  3
AS-MAST_AS1-
360
80
  3
BALLON
360
81
  3
BASE
360
82
  3
BOLSTER
360
83
  3
BOM-DATA
360
84
  3
BOOK
360
85
  3
bottom
360
86
  3
c5
360
87
  3
CHASE
360
88
  3
CON
360
89
  3
conveyor
360
8A
  3
D01
360
8B
  3
D04
360
8C
  3
D25
360
8D
  3
D26
360
8E
  3
D50 LAYERS
360
8F
  3
D80
360
90
  3
D97
360
91
  3
D98 LAYERS
360
92
  3
Delme
360
93
  3
DETAIL LAYERS
360
94
  3
DIE ASSEMBLY
360
95
  3
DIE BACKING PLATE
360
96
  3
DIE BACKING PLATE1
360
97
  3
DIE BACKING PLATE2
360
98
  3
DIE CHASE
360
99
  3
DIE PLAN
360
9A
  3
DIE PLAN - PG
360
9B
  3
DIE PLAN-PG
360
9C
  3
DIE RISER
360
9D
  3
DIE RISER1
360
9E
  3
DIE RISER2
360
9F
  3
DIE SECT SOLID LT
360
A0
  3
DIE SECTION
360
A1
  3
DIE SECTION 1
360
A2
  3
DIE SECTION 2
360
A3
  3
DIE SECTION3
360
A4
  3
DIE SECTION4
360
A5
  3
DIE SECTIONA
360
A6
  3
DIE SHOE
360
A7
  3
DIM
360
A8
  3
DIM LAYERS
360
A9
  3
dim_vp
360
AA
  3
DIMENSION (ASSEMBLY)
360
AB
  3
DIMENSION (PLAN)
360
AC
  3
DIN 1
360
AD
  3
DOR-H
360
AE
  3
DR
360
AF
  3
dsec
360
B0
  3
ET
360
B1
  3
FD
360
B2
  3
fpc
360
B3
  3
front
360
B4
  3
FUNNELS
360
B5
  3
GREEN
360
B6
  3
GRIND PLATE
360
B7
  3
H
360
B8
  3
HAISEN
360
B9
  3
ICD Layer
360
BA
  3
KABESHIN
360
BB
  3
key
360
BC
  3
kijun
360
BD
  3
L1
360
BE
  3
L2
360
BF
  3
Layer01
360
C0
  3
LIH
360
C1
  3
M LAYERS
360
C2
  3
MCM_layout
360
C3
  3
MISC
360
C4
  3
mmAR
360
C5
  3
mmMC
360
C6
  3
mmRS
360
C7
  3
mmTxt
360
C8
  3
MST_ELAYER
360
C9
  3
NS and FS
360
CA
  3
on
360
CB
  3
opt157130
360
CC
  3
P BACKING PLATE
360
CD
  3
panel
360
CE
  3
PASSEMBLY
360
CF
  3
Passivation
360
D0
  3
PC
360
D1
  3
phantom
360
D2
  3
pl
360
D3
  3
PLATE
360
D4
  3
plot
360
D5
  3
PPLAN
360
D6
  3
PQUILL
360
D7
  3
PQUILL SUPPORT
360
D8
  3
PQUILL2
360
D9
  3
PQUILLSUPPORT
360
DA
  3
PUN RETAINER
360
DB
  3
PUN-9
360
DC
  3
PUNCH
360
DD
  3
PUNCH BACKING PLATE
360
DE
  3
PUNCH BACKING PLATE (NESTED)
360
DF
  3
PUNCH BLOCK
360
E0
  3
PUNCH BLOCK(NESTED)
360
E1
  3
PUNCH BODIES
360
E2
  3
PUNCH RETAINER
360
E3
  3
PUNCH SHOE
360
E4
  3
PUNCHES
360
E5
  3
puns
360
E6
  3
RAI
360
E7
  3
S
360
E8
  3
selec3
360
E9
  3
SHIM PACK
360
EA
  3
SI
360
EB
  3
SI-X-S2
360
EC
  3
SOLID LINETYPE
360
ED
  3
SPACERS
360
EE
  3
standard
360
EF
  3
start hole
360
F0
  3
STOCK GUIDE
360
F1
  3
Stripper Assembly
360
F2
  3
STRIPPER INSERTS
360
F3
  3
STRIPPER INSERTS (NESTED)
360
F4
  3
STRIPPER PLATE
360
F5
  3
SUB PUN BACK
360
F6
  3
SUB PUN BLK
360
F7
  3
T
360
F8
  3
temp
360
F9
  3
test
360
FA
  3
TOP
360
FB
  3
TOP and BOT layout
360
FC
  3
topcond
360
FD
  3
TORISHIN
360
FE
  3
TOWER
360
FF
  3
Vacuum 1st
360
100
  3
Vacuum 2nd
360
101
  3
View_All
360
102
  3
VIEWBOX
360
103
  3
WEDGE LAYERS
360
104
  3
X
360
105
  3

360
106
  3

360
107
  3

360
108
  3
1
360
109
  3
2
360
10A
  3

360
10B
  3

360
10C
  3
8
360
10D
  3

360
10E
  3

360
10F
  3

360
110
  3
 
360
111
  3
 
360
112
  3
 
360
113
  3

360
114
  0
DICTIONARY
  5
115
102
{ACAD_REACTORS
330
1D
102
}
330
1D
100
AcDbDictionary
281
     1
1001
ACLAYERTOOLS
1000
22
1000
0
  0
XRECORD
  5
9
102
{ACAD_REACTORS
330
8
102
}
330
8
100
AcDbXrecord
280
     1
290
     1
  0
XRECORD
  5
140
102
{ACAD_REACTORS
330
13F
102
}
330
13F
100
AcDbXrecord
280
     1
290
     1
  0
XRECORD
  5
18A
102
{ACAD_REACTORS
330
189
102
}
330
189
100
AcDbXrecord
280
     1
290
     1
  0
XRECORD
  5
19
102
{ACAD_REACTORS
330
18
102
}
330
18
100
AcDbXrecord
280
     1
290
     1
  0
DICTIONARY
  5
4
102
{ACAD_REACTORS
330
3
102
}
330
3
100
AcDbDictionary
281
     1
  0
SORTENTSTABLE
  5
275
102
{ACAD_REACTORS
330
3
102
}
330
3
100
AcDbSortentsTable
330
2
  0
LAYOUT
  5
11
102
{ACAD_XDICTIONARY
360
13
102
}
102
{ACAD_REACTORS
330
12
102
}
330
12
100
AcDbPlotSettings
  1

  2
PB01DSC01.pc3
  4
A4
  6

 40
5.746749877929687
 41
5.365768432617187
 42
5.70440673828125
 43
5.746734619140625
 44
209.8886566162109
 45
297.0530090332031
 46
0.0
 47
40.13
 48
270.9789581868176
 49
-149.690328108798
140
278.8828328552438
141
-142.0646388984727
142
1.0
143
0.0384286700362849
 70
 11956
 72
     1
 73
     1
 74
     4
  7
monochrome.ctb
 75
     0
147
26.02223805965147
 76
     0
 77
     2
 78
   300
148
-270.9789581868176
149
149.690328108798
100
AcDbLayout
  1
Model
 70
     1
 71
     0
 10
0.0
 20
0.0
 11
12.0
 21
9.0
 12
0.0
 22
0.0
 32
0.0
 14
-125.8142521038857
 24
-426.2721655436362
 34
0.0
 15
638.739470090253
 25
10.60907897952003
 35
0.0
146
0.0
 13
0.0
 23
0.0
 33
0.0
 16
1.0
 26
0.0
 36
0.0
 17
0.0
 27
1.0
 37
0.0
 76
     0
330
2
  0
LAYOUT
  5
1B
102
{ACAD_REACTORS
330
12
102
}
330
12
100
AcDbPlotSettings
  1

  2
none_device
  4
ISO_A4_(210.00_x_297.00_MM)
  6

 40
7.5
 41
20.0
 42
7.5
 43
20.0
 44
210.0
 45
297.0
 46
0.0
 47
0.0
 48
0.0
 49
0.0
140
0.0
141
0.0
142
1.0
143
1.0
 70
   688
 72
     0
 73
     1
 74
     5
  7

 75
    16
147
1.0
 76
     0
 77
     2
 78
   300
148
0.0
149
0.0
100
AcDbLayout
  1
1
 70
     1
 71
     1
 10
-0.7874015748031497
 20
-0.2952755905511811
 11
10.90551181102362
 21
7.97244094488189
 12
0.0
 22
0.0
 32
0.0
 14
0.5944070135562951
 24
0.6817607850565075
 34
0.0
 15
9.523703222664178
 25
6.995404569274202
 35
0.0
146
0.0
 13
0.0
 23
0.0
 33
0.0
 16
1.0
 26
0.0
 36
0.0
 17
0.0
 27
1.0
 37
0.0
 76
     0
330
15
  0
MATERIAL
  5
12C
102
{ACAD_REACTORS
330
E
102
}
330
E
100
AcDbMaterial
  1
ByBlock
 72
     0
 43
0.0208333333333333
 43
0.0
 43
0.0
 43
0.0
 43
0.0
 43
0.0208333333333333
 43
0.0
 43
0.0
 43
0.0
 43
0.0
 43
1.0
 43
0.0
 43
0.0
 43
0.0
 43
0.0
 43
1.0
 77
     0
 47
0.0208333333333333
 47
0.0
 47
0.0
 47
0.0
 47
0.0
 47
0.0208333333333333
 47
0.0
 47
0.0
 47
0.0
 47
0.0
 47
1.0
 47
0.0
 47
0.0
 47
0.0
 47
0.0
 47
1.0
171
     0
 49
0.0208333333333333
 49
0.0
 49
0.0
 49
0.0
 49
0.0
 49
0.0208333333333333
 49
0.0
 49
0.0
 49
0.0
 49
0.0
 49
1.0
 49
0.0
 49
0.0
 49
0.0
 49
0.0
 49
1.0
175
     0
142
0.0208333333333333
142
0.0
142
0.0
142
0.0
142
0.0
142
0.0208333333333333
142
0.0
142
0.0
142
0.0
142
0.0
142
1.0
142
0.0
142
0.0
142
0.0
142
0.0
142
1.0
179
     0
144
0.0208333333333333
144
0.0
144
0.0
144
0.0
144
0.0
144
0.0208333333333333
144
0.0
144
0.0
144
0.0
144
0.0
144
1.0
144
0.0
144
0.0
144
0.0
144
0.0
144
1.0
147
0.0208333333333333
147
0.0
147
0.0
147
0.0
147
0.0
147
0.0208333333333333
147
0.0
147
0.0
147
0.0
147
0.0
147
1.0
147
0.0
147
0.0
147
0.0
147
0.0
147
1.0
  0
MATERIAL
  5
12B
102
{ACAD_REACTORS
330
E
102
}
330
E
100
AcDbMaterial
  1
ByLayer
 72
     0
 43
0.0208333333333333
 43
0.0
 43
0.0
 43
0.0
 43
0.0
 43
0.0208333333333333
 43
0.0
 43
0.0
 43
0.0
 43
0.0
 43
1.0
 43
0.0
 43
0.0
 43
0.0
 43
0.0
 43
1.0
 77
     0
 47
0.0208333333333333
 47
0.0
 47
0.0
 47
0.0
 47
0.0
 47
0.0208333333333333
 47
0.0
 47
0.0
 47
0.0
 47
0.0
 47
1.0
 47
0.0
 47
0.0
 47
0.0
 47
0.0
 47
1.0
171
     0
 49
0.0208333333333333
 49
0.0
 49
0.0
 49
0.0
 49
0.0
 49
0.0208333333333333
 49
0.0
 49
0.0
 49
0.0
 49
0.0
 49
1.0
 49
0.0
 49
0.0
 49
0.0
 49
0.0
 49
1.0
175
     0
142
0.0208333333333333
142
0.0
142
0.0
142
0.0
142
0.0
142
0.0208333333333333
142
0.0
142
0.0
142
0.0
142
0.0
142
1.0
142
0.0
142
0.0
142
0.0
142
0.0
142
1.0
179
     0
144
0.0208333333333333
144
0.0
144
0.0
144
0.0
144
0.0
144
0.0208333333333333
144
0.0
144
0.0
144
0.0
144
0.0
144
1.0
144
0.0
144
0.0
144
0.0
144
0.0
144
1.0
147
0.0208333333333333
147
0.0
147
0.0
147
0.0
147
0.0
147
0.0208333333333333
147
0.0
147
0.0
147
0.0
147
0.0
147
1.0
147
0.0
147
0.0
147
0.0
147
0.0
147
1.0
  0
MATERIAL
  5
D
102
{ACAD_REACTORS
330
E
102
}
330
E
100
AcDbMaterial
  1
Global
 72
     0
 43
0.0208333333333333
 43
0.0
 43
0.0
 43
0.0
 43
0.0
 43
0.0208333333333333
 43
0.0
 43
0.0
 43
0.0
 43
0.0
 43
1.0
 43
0.0
 43
0.0
 43
0.0
 43
0.0
 43
1.0
 77
     0
 47
0.0208333333333333
 47
0.0
 47
0.0
 47
0.0
 47
0.0
 47
0.0208333333333333
 47
0.0
 47
0.0
 47
0.0
 47
0.0
 47
1.0
 47
0.0
 47
0.0
 47
0.0
 47
0.0
 47
1.0
171
     0
 49
0.0208333333333333
 49
0.0
 49
0.0
 49
0.0
 49
0.0
 49
0.0208333333333333
 49
0.0
 49
0.0
 49
0.0
 49
0.0
 49
1.0
 49
0.0
 49
0.0
 49
0.0
 49
0.0
 49
1.0
175
     0
142
0.0208333333333333
142
0.0
142
0.0
142
0.0
142
0.0
142
0.0208333333333333
142
0.0
142
0.0
142
0.0
142
0.0
142
1.0
142
0.0
142
0.0
142
0.0
142
0.0
142
1.0
179
     0
144
0.0208333333333333
144
0.0
144
0.0
144
0.0
144
0.0
144
0.0208333333333333
144
0.0
144
0.0
144
0.0
144
0.0
144
1.0
144
0.0
144
0.0
144
0.0
144
0.0
144
1.0
147
0.0208333333333333
147
0.0
147
0.0
147
0.0
147
0.0
147
0.0208333333333333
147
0.0
147
0.0
147
0.0
147
0.0
147
1.0
147
0.0
147
0.0
147
0.0
147
0.0
147
1.0
  0
MLINESTYLE
  5
141
102
{ACAD_REACTORS
330
129
102
}
330
129
100
AcDbMlineStyle
  2
STANDARD
 70
     0
  3

 62
   256
 51
90.0
 52
90.0
 71
     2
 49
0.5
 62
   256
  6
BYLAYER
 49
-0.5
 62
   256
  6
BYLAYER
  0
ACDBPLACEHOLDER
  5
A
102
{ACAD_REACTORS
330
B
102
}
330
B
  0
SCALE
  5
148
102
{ACAD_REACTORS
330
12E
102
}
330
12E
100
AcDbScale
 70
     0
300
1:1
140
1.0
141
1.0
290
     1
  0
SCALE
  5
149
102
{ACAD_REACTORS
330
12E
102
}
330
12E
100
AcDbScale
 70
     0
300
1:2
140
1.0
141
2.0
290
     0
  0
SCALE
  5
14A
102
{ACAD_REACTORS
330
12E
102
}
330
12E
100
AcDbScale
 70
     0
300
1:4
140
1.0
141
4.0
290
     0
  0
SCALE
  5
14B
102
{ACAD_REACTORS
330
12E
102
}
330
12E
100
AcDbScale
 70
     0
300
1:5
140
1.0
141
5.0
290
     0
  0
SCALE
  5
14C
102
{ACAD_REACTORS
330
12E
102
}
330
12E
100
AcDbScale
 70
     0
300
1:8
140
1.0
141
8.0
290
     0
  0
SCALE
  5
14D
102
{ACAD_REACTORS
330
12E
102
}
330
12E
100
AcDbScale
 70
     0
300
1:10
140
1.0
141
10.0
290
     0
  0
SCALE
  5
14E
102
{ACAD_REACTORS
330
12E
102
}
330
12E
100
AcDbScale
 70
     0
300
1:16
140
1.0
141
16.0
290
     0
  0
SCALE
  5
14F
102
{ACAD_REACTORS
330
12E
102
}
330
12E
100
AcDbScale
 70
     0
300
1:20
140
1.0
141
20.0
290
     0
  0
SCALE
  5
150
102
{ACAD_REACTORS
330
12E
102
}
330
12E
100
AcDbScale
 70
     0
300
1:30
140
1.0
141
30.0
290
     0
  0
SCALE
  5
151
102
{ACAD_REACTORS
330
12E
102
}
330
12E
100
AcDbScale
 70
     0
300
1:40
140
1.0
141
40.0
290
     0
  0
SCALE
  5
152
102
{ACAD_REACTORS
330
12E
102
}
330
12E
100
AcDbScale
 70
     0
300
1:50
140
1.0
141
50.0
290
     0
  0
SCALE
  5
153
102
{ACAD_REACTORS
330
12E
102
}
330
12E
100
AcDbScale
 70
     0
300
1:100
140
1.0
141
100.0
290
     0
  0
SCALE
  5
154
102
{ACAD_REACTORS
330
12E
102
}
330
12E
100
AcDbScale
 70
     0
300
2:1
140
2.0
141
1.0
290
     0
  0
SCALE
  5
155
102
{ACAD_REACTORS
330
12E
102
}
330
12E
100
AcDbScale
 70
     0
300
4:1
140
4.0
141
1.0
290
     0
  0
SCALE
  5
156
102
{ACAD_REACTORS
330
12E
102
}
330
12E
100
AcDbScale
 70
     0
300
8:1
140
8.0
141
1.0
290
     0
  0
SCALE
  5
157
102
{ACAD_REACTORS
330
12E
102
}
330
12E
100
AcDbScale
 70
     0
300
10:1
140
10.0
141
1.0
290
     0
  0
SCALE
  5
158
102
{ACAD_REACTORS
330
12E
102
}
330
12E
100
AcDbScale
 70
     0
300
100:1
140
100.0
141
1.0
290
     0
  0
SCALE
  5
159
102
{ACAD_REACTORS
330
12E
102
}
330
12E
100
AcDbScale
 70
     0
300
1/128" = 1'-0"
140
0.0078125
141
12.0
290
     0
  0
SCALE
  5
15A
102
{ACAD_REACTORS
330
12E
102
}
330
12E
100
AcDbScale
 70
     0
300
1/64" = 1'-0"
140
0.015625
141
12.0
290
     0
  0
SCALE
  5
15B
102
{ACAD_REACTORS
330
12E
102
}
330
12E
100
AcDbScale
 70
     0
300
1/32" = 1'-0"
140
0.03125
141
12.0
290
     0
  0
SCALE
  5
15C
102
{ACAD_REACTORS
330
12E
102
}
330
12E
100
AcDbScale
 70
     0
300
1/16" = 1'-0"
140
0.0625
141
12.0
290
     0
  0
SCALE
  5
15D
102
{ACAD_REACTORS
330
12E
102
}
330
12E
100
AcDbScale
 70
     0
300
3/32" = 1'-0"
140
0.09375
141
12.0
290
     0
  0
SCALE
  5
15E
102
{ACAD_REACTORS
330
12E
102
}
330
12E
100
AcDbScale
 70
     0
300
1/8" = 1'-0"
140
0.125
141
12.0
290
     0
  0
SCALE
  5
15F
102
{ACAD_REACTORS
330
12E
102
}
330
12E
100
AcDbScale
 70
     0
300
3/16" = 1'-0"
140
0.1875
141
12.0
290
     0
  0
SCALE
  5
160
102
{ACAD_REACTORS
330
12E
102
}
330
12E
100
AcDbScale
 70
     0
300
1/4" = 1'-0"
140
0.25
141
12.0
290
     0
  0
SCALE
  5
161
102
{ACAD_REACTORS
330
12E
102
}
330
12E
100
AcDbScale
 70
     0
300
3/8" = 1'-0"
140
0.375
141
12.0
290
     0
  0
SCALE
  5
162
102
{ACAD_REACTORS
330
12E
102
}
330
12E
100
AcDbScale
 70
     0
300
1/2" = 1'-0"
140
0.5
141
12.0
290
     0
  0
SCALE
  5
163
102
{ACAD_REACTORS
330
12E
102
}
330
12E
100
AcDbScale
 70
     0
300
3/4" = 1'-0"
140
0.75
141
12.0
290
     0
  0
SCALE
  5
164
102
{ACAD_REACTORS
330
12E
102
}
330
12E
100
AcDbScale
 70
     0
300
1" = 1'-0"
140
1.0
141
12.0
290
     0
  0
SCALE
  5
165
102
{ACAD_REACTORS
330
12E
102
}
330
12E
100
AcDbScale
 70
     0
300
1-1/2" = 1'-0"
140
1.5
141
12.0
290
     0
  0
SCALE
  5
166
102
{ACAD_REACTORS
330
12E
102
}
330
12E
100
AcDbScale
 70
     0
300
3" = 1'-0"
140
3.0
141
12.0
290
     0
  0
SCALE
  5
167
102
{ACAD_REACTORS
330
12E
102
}
330
12E
100
AcDbScale
 70
     0
300
6" = 1'-0"
140
6.0
141
12.0
290
     0
  0
SCALE
  5
168
102
{ACAD_REACTORS
330
12E
102
}
330
12E
100
AcDbScale
 70
     0
300
1'-0" = 1'-0"
140
12.0
141
12.0
290
     0
  0
TABLESTYLE
  5
142
102
{ACAD_XDICTIONARY
360
278
102
}
102
{ACAD_REACTORS
330
12F
102
}
330
12F
100
AcDbTableStyle
280
     0
  3
Standard
 70
     0
 71
     0
 40
0.06
 41
0.06
280
     0
281
     0
  7
Standard
140
0.18
170
     2
 62
     0
 63
     7
283
     0
 90
      512
 91
        0
  1

274
    -2
284
     1
 64
     0
275
    -2
285
     1
 65
     0
276
    -2
286
     1
 66
     0
277
    -2
287
     1
 67
     0
278
    -2
288
     1
 68
     0
279
    -2
289
     1
 69
     0
  7
Standard
140
0.25
170
     5
 62
     0
 63
     7
283
     0
 90
      512
 91
        0
  1

274
    -2
284
     1
 64
     0
275
    -2
285
     1
 65
     0
276
    -2
286
     1
 66
     0
277
    -2
287
     1
 67
     0
278
    -2
288
     1
 68
     0
279
    -2
289
     1
 69
     0
  7
Standard
140
0.18
170
     5
 62
     0
 63
     7
283
     0
 90
      512
 91
        0
  1

274
    -2
284
     1
 64
     0
275
    -2
285
     1
 65
     0
276
    -2
286
     1
 66
     0
277
    -2
287
     1
 67
     0
278
    -2
288
     1
 68
     0
279
    -2
289
     1
 69
     0
  0
VISUALSTYLE
  5
121
102
{ACAD_REACTORS
330
122
102
}
330
122
100
AcDbVisualStyle
  2
2dWireframe
 70
     4
177
     3
291
     0
 70
    58
 90
        0
176
     1
 90
        2
176
     1
 90
        0
176
     1
 90
        0
176
     1
 40
0.6
176
     1
 40
30.0
176
     1
 62
     7
176
     1
 90
        1
176
     1
 90
        4
176
     1
 62
     7
176
     1
 62
   257
176
     1
 90
        1
176
     1
 90
        1
176
     1
 40
1.0
176
     1
 90
        0
176
     1
 62
   257
176
     1
 40
1.0
176
     1
 90
        1
176
     1
 90
        6
176
     1
 90
        2
176
     1
 62
     7
176
     1
 90
        5
176
     1
 90
        0
176
     1
 90
        0
176
     1
290
     0
176
     1
 90
        1
176
     1
 40
0.0
176
     1
 90
        0
176
     1
290
     1
176
     1
290
     1
176
     1
290
     0
176
     1
290
     0
176
     1
290
     0
176
     1
290
     0
176
     1
290
     0
176
     1
290
     0
176
     1
290
     0
176
     1
 90
       50
176
     1
 40
0.0
176
     1
 40
1.0
176
     1
 90
        0
176
     1
 62
    18
420
        0
176
     1
 90
       50
176
     1
 90
        3
176
     1
 62
     5
420
      255
176
     1
290
     0
176
     1
 90
       50
176
     1
 90
       50
176
     1
 90
       50
176
     1
290
     0
176
     1
 90
       50
176
     1
 62
   256
176
     0
 40
1.0
176
     0
 90
        2
176
     1
  1
strokes_ogs.tif
176
     1
290
     0
176
     1
 40
1.0
176
     1
 40
1.0
176
     1
  0
VISUALSTYLE
  5
143
102
{ACAD_REACTORS
330
122
102
}
330
122
100
AcDbVisualStyle
  2
Realistic
 70
     8
177
     3
291
     0
 70
    58
 90
        2
176
     1
 90
        2
176
     1
 90
        0
176
     1
 90
        0
176
     1
 40
0.6
176
     1
 40
30.0
176
     1
 62
     7
176
     1
 90
        1
176
     1
 90
        0
176
     1
 62
     7
176
     1
 62
   257
176
     1
 90
        1
176
     1
 90
        1
176
     1
 40
1.0
176
     1
 90
        8
176
     1
 62
     8
176
     1
 40
1.0
176
     1
 90
        1
176
     1
 90
        6
176
     1
 90
        2
176
     1
 62
     7
176
     1
 90
        5
176
     1
 90
        0
176
     1
 90
        0
176
     1
290
     0
176
     1
 90
       13
176
     1
 40
0.0
176
     1
 90
        0
176
     1
290
     0
176
     1
290
     1
176
     1
290
     1
176
     1
290
     0
176
     1
290
     0
176
     1
290
     0
176
     1
290
     0
176
     1
290
     0
176
     1
290
     0
176
     1
 90
       50
176
     1
 40
0.0
176
     1
 40
1.0
176
     1
 90
        0
176
     1
 62
    18
420
        0
176
     1
 90
       50
176
     1
 90
        3
176
     1
 62
     5
420
      255
176
     1
290
     0
176
     1
 90
       50
176
     1
 90
       50
176
     1
 90
       50
176
     1
290
     0
176
     1
 90
       50
176
     1
 62
   256
176
     0
 40
1.0
176
     0
 90
        2
176
     1
  1
strokes_ogs.tif
176
     1
290
     0
176
     1
 40
1.0
176
     1
 40
1.0
176
     1
  0
VISUALSTYLE
  5
144
102
{ACAD_REACTORS
330
122
102
}
330
122
100
AcDbVisualStyle
  2
Wireframe
 70
     5
177
     3
291
     0
 70
    58
 90
        0
176
     1
 90
        2
176
     1
 90
        0
176
     1
 90
        0
176
     1
 40
0.6
176
     1
 40
30.0
176
     1
 62
     7
176
     1
 90
        1
176
     1
 90
        4
176
     1
 62
     7
176
     1
 62
   257
176
     1
 90
        1
176
     1
 90
        1
176
     1
 40
1.0
176
     1
 90
        0
176
     1
 62
   257
176
     1
 40
1.0
176
     1
 90
        1
176
     1
 90
        6
176
     1
 90
        2
176
     1
 62
     7
176
     1
 90
        3
176
     1
 90
        0
176
     1
 90
        0
176
     1
290
     0
176
     1
 90
        1
176
     1
 40
0.0
176
     1
 90
        0
176
     1
290
     0
176
     1
290
     1
176
     1
290
     1
176
     1
290
     0
176
     1
290
     0
176
     1
290
     0
176
     1
290
     0
176
     1
290
     0
176
     1
290
     0
176
     1
 90
       50
176
     1
 40
0.0
176
     1
 40
1.0
176
     1
 90
        0
176
     1
 62
    18
420
        0
176
     1
 90
       50
176
     1
 90
        3
176
     1
 62
     5
420
      255
176
     1
290
     0
176
     1
 90
       50
176
     1
 90
       50
176
     1
 90
       50
176
     1
290
     0
176
     1
 90
       50
176
     1
 62
   256
176
     0
 40
1.0
176
     0
 90
        2
176
     1
  1
strokes_ogs.tif
176
     1
290
     0
176
     1
 40
1.0
176
     1
 40
1.0
176
     1
  0
DICTIONARYVAR
  5
132
102
{ACAD_REACTORS
330
131
102
}
330
131
100
DictionaryVariables
280
     0
  1
1:1
  0
DICTIONARYVAR
  5
133
102
{ACAD_REACTORS
330
131
102
}
330
131
100
DictionaryVariables
280
     0
  1
STANDARD
  0
DICTIONARYVAR
  5
134
102
{ACAD_REACTORS
330
131
102
}
330
131
100
DictionaryVariables
280
     0
  1
STANDARD
  0
DICTIONARYVAR
  5
135
102
{ACAD_REACTORS
330
131
102
}
330
131
100
DictionaryVariables
280
     0
  1

  0
DICTIONARYVAR
  5
136
102
{ACAD_REACTORS
330
131
102
}
330
131
100
DictionaryVariables
280
     0
  1

  0
DICTIONARYVAR
  5
137
102
{ACAD_REACTORS
330
131
102
}
330
131
100
DictionaryVariables
280
     0
  1
1
  0
DICTIONARYVAR
  5
138
102
{ACAD_REACTORS
330
131
102
}
330
131
100
DictionaryVariables
280
     0
  1
0
  0
DICTIONARYVAR
  5
139
102
{ACAD_REACTORS
330
131
102
}
330
131
100
DictionaryVariables
280
     0
  1
1
  0
DICTIONARYVAR
  5
13A
102
{ACAD_REACTORS
330
131
102
}
330
131
100
DictionaryVariables
280
     0
  1
15
  0
DICTIONARYVAR
  5
13B
102
{ACAD_REACTORS
330
131
102
}
330
131
100
DictionaryVariables
280
     0
  1
0
  0
DICTIONARYVAR
  5
13C
102
{ACAD_REACTORS
330
131
102
}
330
131
100
DictionaryVariables
280
     0
  1
127
  0
DICTIONARYVAR
  5
13D
102
{ACAD_REACTORS
330
131
102
}
330
131
100
DictionaryVariables
280
     0
  1
2
  0
XRECORD
  5
1F
102
{ACAD_REACTORS
330
1E
102
}
330
1E
100
AcDbXrecord
280
     1
  1
!
  1
!*
  1
*
  1
*
 70
     0
  1
*
  1
*
  0
XRECORD
  5
20
102
{ACAD_REACTORS
330
1E
102
}
330
1E
100
AcDbXrecord
280
     1
  1
!!
  1
*EQUIP*
  1
*
  1
*
 70
     0
  1
*
  1
*
  0
XRECORD
  5
21
102
{ACAD_REACTORS
330
1E
102
}
330
1E
100
AcDbXrecord
280
     1
  1
!!!ALL LAYERS
  1
*
  1
*
  1
*
 70
     0
  1
*
  1
*
  0
XRECORD
  5
22
102
{ACAD_REACTORS
330
1E
102
}
330
1E
100
AcDbXrecord
280
     1
  1
!_3DLAYER
  1
_*
  1
*
  1
*
 70
     0
  1
*
  1
*
  0
XRECORD
  5
23
102
{ACAD_REACTORS
330
1E
102
}
330
1E
100
AcDbXrecord
280
     1
  1
!_shane
  1
*
  1
*
  1
*
 70
    12
  1
*
  1
*
  0
XRECORD
  5
24
102
{ACAD_REACTORS
330
1E
102
}
330
1E
100
AcDbXrecord
280
     1
  1
!_WORKING
  1
-*
  1
*
  1
*
 70
     0
  1
*
  1
*
  0
XRECORD
  5
25
102
{ACAD_REACTORS
330
1E
102
}
330
1E
100
AcDbXrecord
280
     1
  1
!a
  1
A-*
  1
*
  1
*
 70
     0
  1
*
  1
*
  0
XRECORD
  5
26
102
{ACAD_REACTORS
330
1E
102
}
330
1E
100
AcDbXrecord
280
     1
  1
!AQ
  1
!AQ*
  1
*
  1
*
 70
     0
  1
*
  1
*
  0
XRECORD
  5
27
102
{ACAD_REACTORS
330
1E
102
}
330
1E
100
AcDbXrecord
280
     1
  1
!awall
  1
a-wall*
  1
*
  1
*
 70
     0
  1
*
  1
*
  0
XRECORD
  5
28
102
{ACAD_REACTORS
330
1E
102
}
330
1E
100
AcDbXrecord
280
     1
  1
!AXIS
  1
AXIS*
  1
*
  1
*
 70
     0
  1
*
  1
*
  0
XRECORD
  5
29
102
{ACAD_REACTORS
330
1E
102
}
330
1E
100
AcDbXrecord
280
     1
  1
!CEILING
  1
CEILING*
  1
*
  1
*
 70
     0
  1
*
  1
*
  0
XRECORD
  5
2A
102
{ACAD_REACTORS
330
1E
102
}
330
1E
100
AcDbXrecord
280
     1
  1
!DETAIL
  1
DETAIL*
  1
*
  1
*
 70
     0
  1
*
  1
*
  0
XRECORD
  5
2B
102
{ACAD_REACTORS
330
1E
102
}
330
1E
100
AcDbXrecord
280
     1
  1
!DOOR
  1
DOOR*
  1
*
  1
*
 70
     0
  1
*
  1
*
  0
XRECORD
  5
2C
102
{ACAD_REACTORS
330
1E
102
}
330
1E
100
AcDbXrecord
280
     1
  1
!EL
  1
EL_*
  1
*
  1
*
 70
     0
  1
*
  1
*
  0
XRECORD
  5
2D
102
{ACAD_REACTORS
330
1E
102
}
330
1E
100
AcDbXrecord
280
     1
  1
!ELEVATION
  1
ELEVATION*
  1
*
  1
*
 70
     0
  1
*
  1
*
  0
XRECORD
  5
2E
102
{ACAD_REACTORS
330
1E
102
}
330
1E
100
AcDbXrecord
280
     1
  1
!EXISTING
  1
EXISTING*
  1
*
  1
*
 70
     0
  1
*
  1
*
  0
XRECORD
  5
2F
102
{ACAD_REACTORS
330
1E
102
}
330
1E
100
AcDbXrecord
280
     1
  1
!FLOOR
  1
FLOOR*
  1
*
  1
*
 70
     0
  1
*
  1
*
  0
XRECORD
  5
30
102
{ACAD_REACTORS
330
1E
102
}
330
1E
100
AcDbXrecord
280
     1
  1
!FURNITURE
  1
FURNITURE*
  1
*
  1
*
 70
     0
  1
*
  1
*
  0
XRECORD
  5
31
102
{ACAD_REACTORS
330
1E
102
}
330
1E
100
AcDbXrecord
280
     1
  1
!LS
  1
!LS*
  1
*
  1
*
 70
     0
  1
*
  1
*
  0
XRECORD
  5
32
102
{ACAD_REACTORS
330
1E
102
}
330
1E
100
AcDbXrecord
280
     1
  1
!MS
  1
!MS*
  1
*
  1
*
 70
     0
  1
*
  1
*
  0
XRECORD
  5
33
102
{ACAD_REACTORS
330
1E
102
}
330
1E
100
AcDbXrecord
280
     1
  1
!TA
  1
!TA*
  1
*
  1
*
 70
     0
  1
*
  1
*
  0
XRECORD
  5
34
102
{ACAD_REACTORS
330
1E
102
}
330
1E
100
AcDbXrecord
280
     1
  1
!TS
  1
!TS*
  1
*
  1
*
 70
     0
  1
*
  1
*
  0
XRECORD
  5
35
102
{ACAD_REACTORS
330
1E
102
}
330
1E
100
AcDbXrecord
280
     1
  1
!WALL
  1
WALL*
  1
*
  1
*
 70
     0
  1
*
  1
*
  0
XRECORD
  5
36
102
{ACAD_REACTORS
330
1E
102
}
330
1E
100
AcDbXrecord
280
     1
  1
#
  1
~*#*
  1
*
  1
*
 70
     0
  1
*
  1
*
  0
XRECORD
  5
37
102
{ACAD_REACTORS
330
1E
102
}
330
1E
100
AcDbXrecord
280
     1
  1
# Arhitektuur
  1
Ar*
  1
*
  1
*
 70
     0
  1
*
  1
*
  0
XRECORD
  5
38
102
{ACAD_REACTORS
330
1E
102
}
330
1E
100
AcDbXrecord
280
     1
  1
# Asend
  1
GP*
  1
*
  1
*
 70
     0
  1
*
  1
*
  0
XRECORD
  5
39
102
{ACAD_REACTORS
330
1E
102
}
330
1E
100
AcDbXrecord
280
     1
  1
# Asendiplaan
  1
GP*
  1
*
  1
*
 70
     0
  1
*
  1
*
  0
XRECORD
  5
3A
102
{ACAD_REACTORS
330
1E
102
}
330
1E
100
AcDbXrecord
280
     1
  1
# Elekter
  1
El*
  1
*
  1
*
 70
     0
  1
*
  1
*
  0
XRECORD
  5
3B
102
{ACAD_REACTORS
330
1E
102
}
330
1E
100
AcDbXrecord
280
     1
  1
# Kik kihid
  1
*
  1
*
  1
*
 70
     0
  1
*
  1
*
  0
XRECORD
  5
3C
102
{ACAD_REACTORS
330
1E
102
}
330
1E
100
AcDbXrecord
280
     1
  1
# Kte-vent
  1
KV*
  1
*
  1
*
 70
     0
  1
*
  1
*
  0
XRECORD
  5
3D
102
{ACAD_REACTORS
330
1E
102
}
330
1E
100
AcDbXrecord
280
     1
  1
# Planeering
  1
*
  1
*
  1
*
 70
     0
  1
*
  1
*
  0
XRECORD
  5
3E
102
{ACAD_REACTORS
330
1E
102
}
330
1E
100
AcDbXrecord
280
     1
  1
# Sisekujundus
  1
As*
  1
*
  1
*
 70
     1
  1
*
  1
*
  0
XRECORD
  5
3F
102
{ACAD_REACTORS
330
1E
102
}
330
1E
100
AcDbXrecord
280
     1
  1
# Soojus
  1
SV*
  1
*
  1
*
 70
     0
  1
*
  1
*
  0
XRECORD
  5
40
102
{ACAD_REACTORS
330
1E
102
}
330
1E
100
AcDbXrecord
280
     1
  1
# Tehnoloogia
  1
Th*
  1
*
  1
*
 70
     1
  1
*
  1
*
  0
XRECORD
  5
41
102
{ACAD_REACTORS
330
1E
102
}
330
1E
100
AcDbXrecord
280
     1
  1
# Topo
  1
TG*
  1
*
  1
*
 70
     0
  1
*
  1
*
  0
XRECORD
  5
42
102
{ACAD_REACTORS
330
1E
102
}
330
1E
100
AcDbXrecord
280
     1
  1
# Topo-geodeesia
  1
Tg-*
  1
*
  1
*
 70
     1
  1
*
  1
*
  0
XRECORD
  5
43
102
{ACAD_REACTORS
330
1E
102
}
330
1E
100
AcDbXrecord
280
     1
  1
# Tugiplaan
  1
*
  1
*
  1
*
 70
     0
  1
*
  1
*
  0
XRECORD
  5
44
102
{ACAD_REACTORS
330
1E
102
}
330
1E
100
AcDbXrecord
280
     1
  1
# Vertikaal-teed
  1
VP*
  1
*
  1
*
 70
     0
  1
*
  1
*
  0
XRECORD
  5
45
102
{ACAD_REACTORS
330
1E
102
}
330
1E
100
AcDbXrecord
280
     1
  1
# Vesi-kanal
  1
VK*
  1
*
  1
*
 70
     1
  1
*
  1
*
  0
XRECORD
  5
46
102
{ACAD_REACTORS
330
1E
102
}
330
1E
100
AcDbXrecord
280
     1
  1
#8
  1
*
  1
8
  1
*
 70
     0
  1
*
  1
*
  0
XRECORD
  5
47
102
{ACAD_REACTORS
330
1E
102
}
330
1E
100
AcDbXrecord
280
     1
  1
#EC
  1
EC-*
  1
*
  1
*
 70
     0
  1
*
  1
*
  0
XRECORD
  5
48
102
{ACAD_REACTORS
330
1E
102
}
330
1E
100
AcDbXrecord
280
     1
  1
#RD
  1
RD-*
  1
*
  1
*
 70
     0
  1
*
  1
*
  0
XRECORD
  5
49
102
{ACAD_REACTORS
330
1E
102
}
330
1E
100
AcDbXrecord
280
     1
  1
#RE
  1
RE-*
  1
*
  1
*
 70
     0
  1
*
  1
*
  0
XRECORD
  5
4A
102
{ACAD_REACTORS
330
1E
102
}
330
1E
100
AcDbXrecord
280
     1
  1
#SD
  1
SD-*
  1
*
  1
*
 70
     0
  1
*
  1
*
  0
XRECORD
  5
4B
102
{ACAD_REACTORS
330
1E
102
}
330
1E
100
AcDbXrecord
280
     1
  1
#SF
  1
SF-*
  1
*
  1
*
 70
     0
  1
*
  1
*
  0
XRECORD
  5
4C
102
{ACAD_REACTORS
330
1E
102
}
330
1E
100
AcDbXrecord
280
     1
  1
#SS
  1
SS-*
  1
*
  1
*
 70
     0
  1
*
  1
*
  0
XRECORD
  5
4D
102
{ACAD_REACTORS
330
1E
102
}
330
1E
100
AcDbXrecord
280
     1
  1
#SV
  1
SV-*
  1
*
  1
*
 70
     0
  1
*
  1
*
  0
XRECORD
  5
4E
102
{ACAD_REACTORS
330
1E
102
}
330
1E
100
AcDbXrecord
280
     1
  1
#SWA Files
  1
L_*
  1
*
  1
*
 70
     0
  1
*
  1
*
  0
XRECORD
  5
4F
102
{ACAD_REACTORS
330
1E
102
}
330
1E
100
AcDbXrecord
280
     1
  1
#TR
  1
TR-*
  1
*
  1
*
 70
     0
  1
*
  1
*
  0
XRECORD
  5
50
102
{ACAD_REACTORS
330
1E
102
}
330
1E
100
AcDbXrecord
280
     1
  1
#UT
  1
UT-*
  1
*
  1
*
 70
     0
  1
*
  1
*
  0
XRECORD
  5
51
102
{ACAD_REACTORS
330
1E
102
}
330
1E
100
AcDbXrecord
280
     1
  1
#WA
  1
WA-*
  1
*
  1
*
 70
     0
  1
*
  1
*
  0
XRECORD
  5
52
102
{ACAD_REACTORS
330
1E
102
}
330
1E
100
AcDbXrecord
280
     1
  1
#WF
  1
WF-*
  1
*
  1
*
 70
     0
  1
*
  1
*
  0
XRECORD
  5
53
102
{ACAD_REACTORS
330
1E
102
}
330
1E
100
AcDbXrecord
280
     1
  1
$
  1
*$0$*
  1
*
  1
*
 70
     0
  1
*
  1
*
  0
XRECORD
  5
54
102
{ACAD_REACTORS
330
1E
102
}
330
1E
100
AcDbXrecord
280
     1
  1
$$
  1
*$0$*
  1
*
  1
*
 70
     0
  1
*
  1
*
  0
XRECORD
  5
55
102
{ACAD_REACTORS
330
1E
102
}
330
1E
100
AcDbXrecord
280
     1
  1
$$$
  1
###
  1
*
  1
*
 70
     0
  1
*
  1
*
  0
XRECORD
  5
56
102
{ACAD_REACTORS
330
1E
102
}
330
1E
100
AcDbXrecord
280
     1
  1
$-
  1
$-*
  1
*
  1
*
 70
     0
  1
*
  1
*
  0
XRECORD
  5
57
102
{ACAD_REACTORS
330
1E
102
}
330
1E
100
AcDbXrecord
280
     1
  1
$0
  1
*$0
  1
*
  1
*
 70
     0
  1
*
  1
*
  0
XRECORD
  5
58
102
{ACAD_REACTORS
330
1E
102
}
330
1E
100
AcDbXrecord
280
     1
  1
$0$
  1
$0$*
  1
*
  1
*
 70
     0
  1
*
  1
*
  0
XRECORD
  5
59
102
{ACAD_REACTORS
330
1E
102
}
330
1E
100
AcDbXrecord
280
     1
  1
--- ein
  1
*
  1
*
  1
*
 70
     1
  1
*
  1
*
  0
XRECORD
  5
5A
102
{ACAD_REACTORS
330
1E
102
}
330
1E
100
AcDbXrecord
280
     1
  1
--- getaut
  1
*
  1
*
  1
*
 70
    12
  1
*
  1
*
  0
XRECORD
  5
5B
102
{ACAD_REACTORS
330
1E
102
}
330
1E
100
AcDbXrecord
280
     1
  1
--- neu
  1
*neu
  1
*
  1
*
 70
     0
  1
*
  1
*
  0
XRECORD
  5
5C
102
{ACAD_REACTORS
330
1E
102
}
330
1E
100
AcDbXrecord
280
     1
  1
--- plotten
  1
*
  1
*
  1
*
 70
  1024
  1
*
  1
*
  0
XRECORD
  5
5D
102
{ACAD_REACTORS
330
1E
102
}
330
1E
100
AcDbXrecord
280
     1
  1
---ein
  1
*
  1
*
  1
*
 70
     1
  1
*
  1
*
  0
XRECORD
  5
5E
102
{ACAD_REACTORS
330
1E
102
}
330
1E
100
AcDbXrecord
280
     1
  1
-100
  1
*-100
  1
*
  1
*
 70
     0
  1
*
  1
*
  0
XRECORD
  5
5F
102
{ACAD_REACTORS
330
1E
102
}
330
1E
100
AcDbXrecord
280
     1
  1
-50
  1
*-50
  1
*
  1
*
 70
     0
  1
*
  1
*
  0
XRECORD
  5
60
102
{ACAD_REACTORS
330
1E
102
}
330
1E
100
AcDbXrecord
280
     1
  1
-getaut
  1
*
  1
*
  1
*
 70
    12
  1
*
  1
*
  0
XRECORD
  5
61
102
{ACAD_REACTORS
330
1E
102
}
330
1E
100
AcDbXrecord
280
     1
  1
-H
  1
00*,01*,02*,05*,1*,2*,3*,4*,5*,6*,8*
  1
*
  1
*
 70
     0
  1
*
  1
*
  0
XRECORD
  5
62
102
{ACAD_REACTORS
330
1E
102
}
330
1E
100
AcDbXrecord
280
     1
  1
-T
  1
00*,01*,04*,05*,1*,20*,21*,22*,23*,24*,25*,26*,27*,29*,2a*,3*,4*,7*,9*
  1
*
  1
*
 70
     0
  1
*
  1
*
  0
XRECORD
  5
63
102
{ACAD_REACTORS
330
1E
102
}
330
1E
100
AcDbXrecord
280
     1
  1
00
  1
*-100
  1
*
  1
*
 70
     0
  1
*
  1
*
  0
XRECORD
  5
64
102
{ACAD_REACTORS
330
1E
102
}
330
1E
100
AcDbXrecord
280
     1
  1
01_book holder
  1
B~*
  1
*
  1
*
 70
     0
  1
*
  1
*
  0
XRECORD
  5
65
102
{ACAD_REACTORS
330
1E
102
}
330
1E
100
AcDbXrecord
280
     1
  1
025
  1
*_025
  1
*
  1
*
 70
     0
  1
*
  1
*
  0
XRECORD
  5
66
102
{ACAD_REACTORS
330
1E
102
}
330
1E
100
AcDbXrecord
280
     1
  1
035
  1
*_035
  1
*
  1
*
 70
     0
  1
*
  1
*
  0
XRECORD
  5
67
102
{ACAD_REACTORS
330
1E
102
}
330
1E
100
AcDbXrecord
280
     1
  1
050
  1
*_050
  1
*
  1
*
 70
     0
  1
*
  1
*
  0
XRECORD
  5
68
102
{ACAD_REACTORS
330
1E
102
}
330
1E
100
AcDbXrecord
280
     1
  1
070
  1
*_070
  1
*
  1
*
 70
     0
  1
*
  1
*
  0
XRECORD
  5
69
102
{ACAD_REACTORS
330
1E
102
}
330
1E
100
AcDbXrecord
280
     1
  1
1
  1
M1,PIN_BASE,SOLDER_MASK,PIN_SR_BOTTOM,VC_VDD
  1
*
  1
*
 70
     0
  1
*
  1
*
  0
XRECORD
  5
6A
102
{ACAD_REACTORS
330
1E
102
}
330
1E
100
AcDbXrecord
280
     1
  1
1000
  1
1*
  1
*
  1
*
 70
     0
  1
*
  1
*
  0
XRECORD
  5
6B
102
{ACAD_REACTORS
330
1E
102
}
330
1E
100
AcDbXrecord
280
     1
  1
1111
  1
*-50
  1
*
  1
*
 70
     0
  1
*
  1
*
  0
XRECORD
  5
6C
102
{ACAD_REACTORS
330
1E
102
}
330
1E
100
AcDbXrecord
280
     1
  1
12
  1
*
  1
*
  1
*
 70
     0
  1
*
  1
*
  0
XRECORD
  5
6D
102
{ACAD_REACTORS
330
1E
102
}
330
1E
100
AcDbXrecord
280
     1
  1
123
  1
*
  1
*
  1
*
 70
     1
  1
*
  1
*
  0
XRECORD
  5
6E
102
{ACAD_REACTORS
330
1E
102
}
330
1E
100
AcDbXrecord
280
     1
  1
14-6
  1
*
  1
*
  1
*
 70
    20
  1
*
  1
*
  0
XRECORD
  5
6F
102
{ACAD_REACTORS
330
1E
102
}
330
1E
100
AcDbXrecord
280
     1
  1
2
  1
*
  1
2
  1
*
 70
     0
  1
*
  1
*
  0
XRECORD
  5
70
102
{ACAD_REACTORS
330
1E
102
}
330
1E
100
AcDbXrecord
280
     1
  1
21
  1
*
  1
*
  1
*
 70
     0
  1
*
  1
*
  0
XRECORD
  5
71
102
{ACAD_REACTORS
330
1E
102
}
330
1E
100
AcDbXrecord
280
     1
  1
41
  1
41
  1
*
  1
*
 70
     1
  1
*
  1
*
  0
XRECORD
  5
72
102
{ACAD_REACTORS
330
1E
102
}
330
1E
100
AcDbXrecord
280
     1
  1
5
  1
*5
  1
*
  1
*
 70
     1
  1
*
  1
*
  0
XRECORD
  5
73
102
{ACAD_REACTORS
330
1E
102
}
330
1E
100
AcDbXrecord
280
     1
  1
51-52
  1
5*
  1
*
  1
*
 70
     0
  1
*
  1
*
  0
XRECORD
  5
74
102
{ACAD_REACTORS
330
1E
102
}
330
1E
100
AcDbXrecord
280
     1
  1
8
  1
*
  1
8
  1
*
 70
    12
  1
*
  1
*
  0
XRECORD
  5
75
102
{ACAD_REACTORS
330
1E
102
}
330
1E
100
AcDbXrecord
280
     1
  1
_ein
  1
*
  1
*
  1
*
 70
     1
  1
*
  1
*
  0
XRECORD
  5
76
102
{ACAD_REACTORS
330
1E
102
}
330
1E
100
AcDbXrecord
280
     1
  1
a
  1
a-*
  1
*
  1
*
 70
     0
  1
*
  1
*
  0
XRECORD
  5
77
102
{ACAD_REACTORS
330
1E
102
}
330
1E
100
AcDbXrecord
280
     1
  1
A-
  1
A-*
  1
*
  1
*
 70
     0
  1
*
  1
*
  0
XRECORD
  5
78
102
{ACAD_REACTORS
330
1E
102
}
330
1E
100
AcDbXrecord
280
     1
  1
A3
  1
*A3
  1
*
  1
*
 70
     0
  1
*
  1
*
  0
XRECORD
  5
79
102
{ACAD_REACTORS
330
1E
102
}
330
1E
100
AcDbXrecord
280
     1
  1
AIR BLOCK
  1
D02-*
  1
*
  1
*
 70
     0
  1
*
  1
*
  0
XRECORD
  5
7A
102
{ACAD_REACTORS
330
1E
102
}
330
1E
100
AcDbXrecord
280
     1
  1
ALL DROPINS
  1
*_D
  1
*
  1
*
 70
     0
  1
*
  1
*
  0
XRECORD
  5
7B
102
{ACAD_REACTORS
330
1E
102
}
330
1E
100
AcDbXrecord
280
     1
  1
APP LAYERS
  1
*APP-M-*
  1
*
  1
*
 70
     0
  1
*
  1
*
  0
XRECORD
  5
7C
102
{ACAD_REACTORS
330
1E
102
}
330
1E
100
AcDbXrecord
280
     1
  1
APP-A
  1
*APP-A-*
  1
*
  1
*
 70
     0
  1
*
  1
*
  0
XRECORD
  5
7D
102
{ACAD_REACTORS
330
1E
102
}
330
1E
100
AcDbXrecord
280
     1
  1
APP-D
  1
*APP-D-*
  1
*
  1
*
 70
     0
  1
*
  1
*
  0
XRECORD
  5
7E
102
{ACAD_REACTORS
330
1E
102
}
330
1E
100
AcDbXrecord
280
     1
  1
APP-M LAYERS
  1
*APP-M-*
  1
*
  1
*
 70
     0
  1
*
  1
*
  0
XRECORD
  5
7F
102
{ACAD_REACTORS
330
1E
102
}
330
1E
100
AcDbXrecord
280
     1
  1
AS-
  1
AS-*
  1
*
  1
*
 70
     0
  1
*
  1
*
  0
XRECORD
  5
80
102
{ACAD_REACTORS
330
1E
102
}
330
1E
100
AcDbXrecord
280
     1
  1
AS-MAST_AS1-
  1
AS-MAST_AS1-*
  1
*
  1
*
 70
     0
  1
*
  1
*
  0
XRECORD
  5
81
102
{ACAD_REACTORS
330
1E
102
}
330
1E
100
AcDbXrecord
280
     1
  1
BALLON
  1
*-*-BA
  1
*
  1
*
 70
     0
  1
*
  1
*
  0
XRECORD
  5
82
102
{ACAD_REACTORS
330
1E
102
}
330
1E
100
AcDbXrecord
280
     1
  1
BASE
  1
*BASE,*BOTTOM
  1
*
  1
*
 70
     0
  1
*
  1
*
  0
XRECORD
  5
83
102
{ACAD_REACTORS
330
1E
102
}
330
1E
100
AcDbXrecord
280
     1
  1
BOLSTER
  1
D17-*-*
  1
*
  1
*
 70
     0
  1
*
  1
*
  0
XRECORD
  5
84
102
{ACAD_REACTORS
330
1E
102
}
330
1E
100
AcDbXrecord
280
     1
  1
BOM-DATA
  1
*BOM-DATA
  1
*
  1
*
 70
     0
  1
*
  1
*
  0
XRECORD
  5
85
102
{ACAD_REACTORS
330
1E
102
}
330
1E
100
AcDbXrecord
280
     1
  1
BOOK
  1
B~*
  1
*
  1
*
 70
     0
  1
*
  1
*
  0
XRECORD
  5
86
102
{ACAD_REACTORS
330
1E
102
}
330
1E
100
AcDbXrecord
280
     1
  1
bottom
  1
*bottom,*base
  1
*
  1
*
 70
     0
  1
*
  1
*
  0
XRECORD
  5
87
102
{ACAD_REACTORS
330
1E
102
}
330
1E
100
AcDbXrecord
280
     1
  1
c5
  1
*
  1
*
  1
c5
 70
     0
  1
*
  1
*
  0
XRECORD
  5
88
102
{ACAD_REACTORS
330
1E
102
}
330
1E
100
AcDbXrecord
280
     1
  1
CHASE
  1
*DIE*
  1
*
  1
*
 70
     0
  1
*
  1
*
  0
XRECORD
  5
89
102
{ACAD_REACTORS
330
1E
102
}
330
1E
100
AcDbXrecord
280
     1
  1
CON
  1
C~*
  1
*
  1
*
 70
     0
  1
*
  1
*
  0
XRECORD
  5
8A
102
{ACAD_REACTORS
330
1E
102
}
330
1E
100
AcDbXrecord
280
     1
  1
conveyor
  1
con*
  1
*
  1
*
 70
     0
  1
*
  1
*
  0
XRECORD
  5
8B
102
{ACAD_REACTORS
330
1E
102
}
330
1E
100
AcDbXrecord
280
     1
  1
D01
  1
D01-*-*
  1
*
  1
*
 70
     0
  1
*
  1
*
  0
XRECORD
  5
8C
102
{ACAD_REACTORS
330
1E
102
}
330
1E
100
AcDbXrecord
280
     1
  1
D04
  1
D04-*-*
  1
*
  1
*
 70
     0
  1
*
  1
*
  0
XRECORD
  5
8D
102
{ACAD_REACTORS
330
1E
102
}
330
1E
100
AcDbXrecord
280
     1
  1
D25
  1
D25-*-*
  1
*
  1
*
 70
     0
  1
*
  1
*
  0
XRECORD
  5
8E
102
{ACAD_REACTORS
330
1E
102
}
330
1E
100
AcDbXrecord
280
     1
  1
D26
  1
D26-*-*
  1
*
  1
*
 70
     0
  1
*
  1
*
  0
XRECORD
  5
8F
102
{ACAD_REACTORS
330
1E
102
}
330
1E
100
AcDbXrecord
280
     1
  1
D50 LAYERS
  1
*D50-*
  1
*
  1
*
 70
     0
  1
*
  1
*
  0
XRECORD
  5
90
102
{ACAD_REACTORS
330
1E
102
}
330
1E
100
AcDbXrecord
280
     1
  1
D80
  1
D80-*-*
  1
*
  1
*
 70
     0
  1
*
  1
*
  0
XRECORD
  5
91
102
{ACAD_REACTORS
330
1E
102
}
330
1E
100
AcDbXrecord
280
     1
  1
D97
  1
D97-*-*
  1
*
  1
*
 70
     0
  1
*
  1
*
  0
XRECORD
  5
92
102
{ACAD_REACTORS
330
1E
102
}
330
1E
100
AcDbXrecord
280
     1
  1
D98 LAYERS
  1
*D98*
  1
*
  1
*
 70
     0
  1
*
  1
*
  0
XRECORD
  5
93
102
{ACAD_REACTORS
330
1E
102
}
330
1E
100
AcDbXrecord
280
     1
  1
Delme
  1
*-*-ba
  1
*
  1
*
 70
     0
  1
*
  1
*
  0
XRECORD
  5
94
102
{ACAD_REACTORS
330
1E
102
}
330
1E
100
AcDbXrecord
280
     1
  1
DETAIL LAYERS
  1
*-D-*
  1
*
  1
*
 70
     0
  1
*
  1
*
  0
XRECORD
  5
95
102
{ACAD_REACTORS
330
1E
102
}
330
1E
100
AcDbXrecord
280
     1
  1
DIE ASSEMBLY
  1
*-D-*
  1
*
  1
*
 70
     0
  1
*
  1
*
  0
XRECORD
  5
96
102
{ACAD_REACTORS
330
1E
102
}
330
1E
100
AcDbXrecord
280
     1
  1
DIE BACKING PLATE
  1
DBU-*
  1
*
  1
*
 70
     0
  1
*
  1
*
  0
XRECORD
  5
97
102
{ACAD_REACTORS
330
1E
102
}
330
1E
100
AcDbXrecord
280
     1
  1
DIE BACKING PLATE1
  1
*DBU*-*
  1
*
  1
*
 70
     0
  1
*
  1
*
  0
XRECORD
  5
98
102
{ACAD_REACTORS
330
1E
102
}
330
1E
100
AcDbXrecord
280
     1
  1
DIE BACKING PLATE2
  1
*DBU-*
  1
*
  1
*
 70
     0
  1
*
  1
*
  0
XRECORD
  5
99
102
{ACAD_REACTORS
330
1E
102
}
330
1E
100
AcDbXrecord
280
     1
  1
DIE CHASE
  1
DIE-*
  1
*
  1
*
 70
     0
  1
*
  1
*
  0
XRECORD
  5
9A
102
{ACAD_REACTORS
330
1E
102
}
330
1E
100
AcDbXrecord
280
     1
  1
DIE PLAN
  1
*-M-*
  1
*
  1
*
 70
     0
  1
*
  1
*
  0
XRECORD
  5
9B
102
{ACAD_REACTORS
330
1E
102
}
330
1E
100
AcDbXrecord
280
     1
  1
DIE PLAN - PG
  1
0,*APP-M-*,*RAI-M-*,*DIN-M-*,*DBU-M-*,*DIE-M-*,*D08-M-*,*D14-M-*,*D50-M-*
  1
*
  1
*
 70
     0
  1
*
  1
*
  0
XRECORD
  5
9C
102
{ACAD_REACTORS
330
1E
102
}
330
1E
100
AcDbXrecord
280
     1
  1
DIE PLAN-PG
  1
RAI-M-*,DIN-M-*,DBU-M-*,DIE-M-*
  1
*
  1
*
 70
     0
  1
*
  1
*
  0
XRECORD
  5
9D
102
{ACAD_REACTORS
330
1E
102
}
330
1E
100
AcDbXrecord
280
     1
  1
DIE RISER
  1
MFB-*
  1
*
  1
*
 70
     0
  1
*
  1
*
  0
XRECORD
  5
9E
102
{ACAD_REACTORS
330
1E
102
}
330
1E
100
AcDbXrecord
280
     1
  1
DIE RISER1
  1
*MFB*-*
  1
*
  1
*
 70
     0
  1
*
  1
*
  0
XRECORD
  5
9F
102
{ACAD_REACTORS
330
1E
102
}
330
1E
100
AcDbXrecord
280
     1
  1
DIE RISER2
  1
*MFB-*
  1
*
  1
*
 70
     0
  1
*
  1
*
  0
XRECORD
  5
A0
102
{ACAD_REACTORS
330
1E
102
}
330
1E
100
AcDbXrecord
280
     1
  1
DIE SECT SOLID LT
  1
*DIN-*-S
  1
*
  1
*
 70
     0
  1
*
  1
*
  0
XRECORD
  5
A1
102
{ACAD_REACTORS
330
1E
102
}
330
1E
100
AcDbXrecord
280
     1
  1
DIE SECTION
  1
DIN-*
  1
*
  1
*
 70
     0
  1
*
  1
*
  0
XRECORD
  5
A2
102
{ACAD_REACTORS
330
1E
102
}
330
1E
100
AcDbXrecord
280
     1
  1
DIE SECTION 1
  1
DIN-1-*
  1
*
  1
*
 70
     0
  1
*
  1
*
  0
XRECORD
  5
A3
102
{ACAD_REACTORS
330
1E
102
}
330
1E
100
AcDbXrecord
280
     1
  1
DIE SECTION 2
  1
DIN-2-*
  1
*
  1
*
 70
     0
  1
*
  1
*
  0
XRECORD
  5
A4
102
{ACAD_REACTORS
330
1E
102
}
330
1E
100
AcDbXrecord
280
     1
  1
DIE SECTION3
  1
*DIN*-*
  1
*
  1
*
 70
     0
  1
*
  1
*
  0
XRECORD
  5
A5
102
{ACAD_REACTORS
330
1E
102
}
330
1E
100
AcDbXrecord
280
     1
  1
DIE SECTION4
  1
*DIN*-*
  1
*
  1
*
 70
     0
  1
*
  1
*
  0
XRECORD
  5
A6
102
{ACAD_REACTORS
330
1E
102
}
330
1E
100
AcDbXrecord
280
     1
  1
DIE SECTIONA
  1
*DIN-*
  1
*
  1
*
 70
     0
  1
*
  1
*
  0
XRECORD
  5
A7
102
{ACAD_REACTORS
330
1E
102
}
330
1E
100
AcDbXrecord
280
     1
  1
DIE SHOE
  1
DSS-*
  1
*
  1
*
 70
     0
  1
*
  1
*
  0
XRECORD
  5
A8
102
{ACAD_REACTORS
330
1E
102
}
330
1E
100
AcDbXrecord
280
     1
  1
DIM
  1
DIM*
  1
*
  1
*
 70
     0
  1
*
  1
*
  0
XRECORD
  5
A9
102
{ACAD_REACTORS
330
1E
102
}
330
1E
100
AcDbXrecord
280
     1
  1
DIM LAYERS
  1
*-*-D*
  1
*
  1
*
 70
     0
  1
*
  1
*
  0
XRECORD
  5
AA
102
{ACAD_REACTORS
330
1E
102
}
330
1E
100
AcDbXrecord
280
     1
  1
dim_vp
  1
DIM_VP
  1
*
  1
*
 70
     0
  1
*
  1
*
  0
XRECORD
  5
AB
102
{ACAD_REACTORS
330
1E
102
}
330
1E
100
AcDbXrecord
280
     1
  1
DIMENSION (ASSEMBLY)
  1
*APP-A-*
  1
*
  1
*
 70
     0
  1
*
  1
*
  0
XRECORD
  5
AC
102
{ACAD_REACTORS
330
1E
102
}
330
1E
100
AcDbXrecord
280
     1
  1
DIMENSION (PLAN)
  1
*APP-M-*
  1
*
  1
*
 70
     0
  1
*
  1
*
  0
XRECORD
  5
AD
102
{ACAD_REACTORS
330
1E
102
}
330
1E
100
AcDbXrecord
280
     1
  1
DIN 1
  1
DIN-1-*
  1
*
  1
*
 70
     0
  1
*
  1
*
  0
XRECORD
  5
AE
102
{ACAD_REACTORS
330
1E
102
}
330
1E
100
AcDbXrecord
280
     1
  1
DOR-H
  1
*
  1
7
  1
*
 70
     0
  1
*
  1
*
  0
XRECORD
  5
AF
102
{ACAD_REACTORS
330
1E
102
}
330
1E
100
AcDbXrecord
280
     1
  1
DR
  1
*DDR,*SDR
  1
*
  1
*
 70
     0
  1
*
  1
*
  0
XRECORD
  5
B0
102
{ACAD_REACTORS
330
1E
102
}
330
1E
100
AcDbXrecord
280
     1
  1
dsec
  1
11??
  1
*
  1
*
 70
     0
  1
*
  1
*
  0
XRECORD
  5
B1
102
{ACAD_REACTORS
330
1E
102
}
330
1E
100
AcDbXrecord
280
     1
  1
ET
  1
*
  1
*
  1
*
 70
     0
  1
*
  1
*
  0
XRECORD
  5
B2
102
{ACAD_REACTORS
330
1E
102
}
330
1E
100
AcDbXrecord
280
     1
  1
FD
  1
*
  1
7
  1
*
 70
     0
  1
*
  1
*
  0
XRECORD
  5
B3
102
{ACAD_REACTORS
330
1E
102
}
330
1E
100
AcDbXrecord
280
     1
  1
fpc
  1
fpc
  1
*
  1
*
 70
     0
  1
*
  1
*
  0
XRECORD
  5
B4
102
{ACAD_REACTORS
330
1E
102
}
330
1E
100
AcDbXrecord
280
     1
  1
front
  1
*
  1
*
  1
*
 70
     0
  1
*
  1
*
  0
XRECORD
  5
B5
102
{ACAD_REACTORS
330
1E
102
}
330
1E
100
AcDbXrecord
280
     1
  1
FUNNELS
  1
D03-*
  1
*
  1
*
 70
     0
  1
*
  1
*
  0
XRECORD
  5
B6
102
{ACAD_REACTORS
330
1E
102
}
330
1E
100
AcDbXrecord
280
     1
  1
GREEN
  1
*
  1
*
  1
DASHED
 70
     0
  1
*
  1
*
  0
XRECORD
  5
B7
102
{ACAD_REACTORS
330
1E
102
}
330
1E
100
AcDbXrecord
280
     1
  1
GRIND PLATE
  1
D01-*
  1
*
  1
*
 70
     0
  1
*
  1
*
  0
XRECORD
  5
B8
102
{ACAD_REACTORS
330
1E
102
}
330
1E
100
AcDbXrecord
280
     1
  1
H
  1
00*,01*,02*,03*,05*,06*,1*,2*,3*,4*,5*,6*,8*,
  1
*
  1
*
 70
     0
  1
*
  1
*
  0
XRECORD
  5
B9
102
{ACAD_REACTORS
330
1E
102
}
330
1E
100
AcDbXrecord
280
     1
  1
HAISEN
  1
*1,HAISEN
  1
*
  1
*
 70
     0
  1
*
  1
*
  0
XRECORD
  5
BA
102
{ACAD_REACTORS
330
1E
102
}
330
1E
100
AcDbXrecord
280
     1
  1
ICD Layer
  1
*
  1
*
  1
*
 70
     0
  1
*
  1
*
  0
XRECORD
  5
BB
102
{ACAD_REACTORS
330
1E
102
}
330
1E
100
AcDbXrecord
280
     1
  1
KABESHIN
  1
*A12
  1
*
  1
*
 70
     0
  1
*
  1
*
  0
XRECORD
  5
BC
102
{ACAD_REACTORS
330
1E
102
}
330
1E
100
AcDbXrecord
280
     1
  1
key
  1
keyplan
  1
*
  1
*
 70
     0
  1
*
  1
*
  0
XRECORD
  5
BD
102
{ACAD_REACTORS
330
1E
102
}
330
1E
100
AcDbXrecord
280
     1
  1
kijun
  1
kijun
  1
*
  1
*
 70
     0
  1
*
  1
*
  0
XRECORD
  5
BE
102
{ACAD_REACTORS
330
1E
102
}
330
1E
100
AcDbXrecord
280
     1
  1
L1
  1
*
  1
*
  1
*
 70
     0
  1
*
  1
*
  0
XRECORD
  5
BF
102
{ACAD_REACTORS
330
1E
102
}
330
1E
100
AcDbXrecord
280
     1
  1
L2
  1
*
  1
*
  1
*
 70
     0
  1
*
  1
*
  0
XRECORD
  5
C0
102
{ACAD_REACTORS
330
1E
102
}
330
1E
100
AcDbXrecord
280
     1
  1
Layer01
  1
*
  1
*
  1
*
 70
     0
  1
*
  1
*
  0
XRECORD
  5
C1
102
{ACAD_REACTORS
330
1E
102
}
330
1E
100
AcDbXrecord
280
     1
  1
LIH
  1
*
  1
*
  1
*
 70
     0
  1
*
  1
*
  0
XRECORD
  5
C2
102
{ACAD_REACTORS
330
1E
102
}
330
1E
100
AcDbXrecord
280
     1
  1
M LAYERS
  1
*-M-*
  1
*
  1
*
 70
     0
  1
*
  1
*
  0
XRECORD
  5
C3
102
{ACAD_REACTORS
330
1E
102
}
330
1E
100
AcDbXrecord
280
     1
  1
MCM_layout
  1
0,DIE_OUTLINE,FAB,M1,M2,M3,M4,PINOUTS,SM1,SM4,XDRILL1_2,XDRILL14,XDRILL2_3,XDRILL3_4
  1
*
  1
*
 70
     0
  1
*
  1
*
  0
XRECORD
  5
C4
102
{ACAD_REACTORS
330
1E
102
}
330
1E
100
AcDbXrecord
280
     1
  1
MISC
  1
*D9*-*-*
  1
*
  1
*
 70
     0
  1
*
  1
*
  0
XRECORD
  5
C5
102
{ACAD_REACTORS
330
1E
102
}
330
1E
100
AcDbXrecord
280
     1
  1
mmAR
  1
AR_*
  1
*
  1
*
 70
     0
  1
*
  1
*
  0
XRECORD
  5
C6
102
{ACAD_REACTORS
330
1E
102
}
330
1E
100
AcDbXrecord
280
     1
  1
mmMC
  1
MC_*
  1
*
  1
*
 70
     0
  1
*
  1
*
  0
XRECORD
  5
C7
102
{ACAD_REACTORS
330
1E
102
}
330
1E
100
AcDbXrecord
280
     1
  1
mmRS
  1
MM_4*
  1
*
  1
*
 70
     0
  1
*
  1
*
  0
XRECORD
  5
C8
102
{ACAD_REACTORS
330
1E
102
}
330
1E
100
AcDbXrecord
280
     1
  1
mmTxt
  1
MM_8*
  1
*
  1
*
 70
     0
  1
*
  1
*
  0
XRECORD
  5
C9
102
{ACAD_REACTORS
330
1E
102
}
330
1E
100
AcDbXrecord
280
     1
  1
MST_ELAYER
  1
*
  1
*
  1
*
 70
     0
  1
*
  1
*
  0
XRECORD
  5
CA
102
{ACAD_REACTORS
330
1E
102
}
330
1E
100
AcDbXrecord
280
     1
  1
NS and FS
  1
*
  1
*
  1
*
 70
     0
  1
*
  1
*
  0
XRECORD
  5
CB
102
{ACAD_REACTORS
330
1E
102
}
330
1E
100
AcDbXrecord
280
     1
  1
on
  1
*
  1
*
  1
*
 70
     1
  1
*
  1
*
  0
XRECORD
  5
CC
102
{ACAD_REACTORS
330
1E
102
}
330
1E
100
AcDbXrecord
280
     1
  1
opt157130
  1
33??
  1
*
  1
*
 70
     0
  1
*
  1
*
  0
XRECORD
  5
CD
102
{ACAD_REACTORS
330
1E
102
}
330
1E
100
AcDbXrecord
280
     1
  1
P BACKING PLATE
  1
*PBU-*-*
  1
*
  1
*
 70
     0
  1
*
  1
*
  0
XRECORD
  5
CE
102
{ACAD_REACTORS
330
1E
102
}
330
1E
100
AcDbXrecord
280
     1
  1
panel
  1
panel
  1
*
  1
*
 70
     0
  1
*
  1
*
  0
XRECORD
  5
CF
102
{ACAD_REACTORS
330
1E
102
}
330
1E
100
AcDbXrecord
280
     1
  1
PASSEMBLY
  1
*-A-*
  1
*
  1
*
 70
     0
  1
*
  1
*
  0
XRECORD
  5
D0
102
{ACAD_REACTORS
330
1E
102
}
330
1E
100
AcDbXrecord
280
     1
  1
Passivation
  1
*
  1
*
  1
*
 70
     0
  1
*
  1
*
  0
XRECORD
  5
D1
102
{ACAD_REACTORS
330
1E
102
}
330
1E
100
AcDbXrecord
280
     1
  1
PC
  1
0,11*,12*,13*,14*,15*,18*,23*,25*,30*,31*,32*,51*,52*,54*,59*,60*,66*,67*,69*,76*
  1
*
  1
*
 70
     0
  1
*
  1
*
  0
XRECORD
  5
D2
102
{ACAD_REACTORS
330
1E
102
}
330
1E
100
AcDbXrecord
280
     1
  1
phantom
  1
*-*-p?
  1
*
  1
*
 70
     0
  1
*
  1
*
  0
XRECORD
  5
D3
102
{ACAD_REACTORS
330
1E
102
}
330
1E
100
AcDbXrecord
280
     1
  1
pl
  1
pl
  1
*
  1
*
 70
     0
  1
*
  1
*
  0
XRECORD
  5
D4
102
{ACAD_REACTORS
330
1E
102
}
330
1E
100
AcDbXrecord
280
     1
  1
PLATE
  1
P~*
  1
*
  1
*
 70
     0
  1
*
  1
*
  0
XRECORD
  5
D5
102
{ACAD_REACTORS
330
1E
102
}
330
1E
100
AcDbXrecord
280
     1
  1
plot
  1
*
  1
*
  1
*
 70
     1
  1
*
  1
*
  0
XRECORD
  5
D6
102
{ACAD_REACTORS
330
1E
102
}
330
1E
100
AcDbXrecord
280
     1
  1
PPLAN
  1
*-M-*
  1
*
  1
*
 70
     0
  1
*
  1
*
  0
XRECORD
  5
D7
102
{ACAD_REACTORS
330
1E
102
}
330
1E
100
AcDbXrecord
280
     1
  1
PQUILL
  1
*DO7-*
  1
*
  1
*
 70
     0
  1
*
  1
*
  0
XRECORD
  5
D8
102
{ACAD_REACTORS
330
1E
102
}
330
1E
100
AcDbXrecord
280
     1
  1
PQUILL SUPPORT
  1
*D19-*-*
  1
*
  1
*
 70
     0
  1
*
  1
*
  0
XRECORD
  5
D9
102
{ACAD_REACTORS
330
1E
102
}
330
1E
100
AcDbXrecord
280
     1
  1
PQUILL2
  1
*D10-*
  1
*
  1
*
 70
     0
  1
*
  1
*
  0
XRECORD
  5
DA
102
{ACAD_REACTORS
330
1E
102
}
330
1E
100
AcDbXrecord
280
     1
  1
PQUILLSUPPORT
  1
*D19-*-*
  1
*
  1
*
 70
     0
  1
*
  1
*
  0
XRECORD
  5
DB
102
{ACAD_REACTORS
330
1E
102
}
330
1E
100
AcDbXrecord
280
     1
  1
PUN RETAINER
  1
*D06-*-*
  1
*
  1
*
 70
     0
  1
*
  1
*
  0
XRECORD
  5
DC
102
{ACAD_REACTORS
330
1E
102
}
330
1E
100
AcDbXrecord
280
     1
  1
PUN-9
  1
PUN-9-*
  1
*
  1
*
 70
     0
  1
*
  1
*
  0
XRECORD
  5
DD
102
{ACAD_REACTORS
330
1E
102
}
330
1E
100
AcDbXrecord
280
     1
  1
PUNCH
  1
*PUN-*-*
  1
*
  1
*
 70
     0
  1
*
  1
*
  0
XRECORD
  5
DE
102
{ACAD_REACTORS
330
1E
102
}
330
1E
100
AcDbXrecord
280
     1
  1
PUNCH BACKING PLATE
  1
PBU-*-*
  1
*
  1
*
 70
     0
  1
*
  1
*
  0
XRECORD
  5
DF
102
{ACAD_REACTORS
330
1E
102
}
330
1E
100
AcDbXrecord
280
     1
  1
PUNCH BACKING PLATE (NESTED)
  1
D15-*-*
  1
*
  1
*
 70
     0
  1
*
  1
*
  0
XRECORD
  5
E0
102
{ACAD_REACTORS
330
1E
102
}
330
1E
100
AcDbXrecord
280
     1
  1
PUNCH BLOCK
  1
PAD-*-*
  1
*
  1
*
 70
     0
  1
*
  1
*
  0
XRECORD
  5
E1
102
{ACAD_REACTORS
330
1E
102
}
330
1E
100
AcDbXrecord
280
     1
  1
PUNCH BLOCK(NESTED)
  1
D14-*-*
  1
*
  1
*
 70
     0
  1
*
  1
*
  0
XRECORD
  5
E2
102
{ACAD_REACTORS
330
1E
102
}
330
1E
100
AcDbXrecord
280
     1
  1
PUNCH BODIES
  1
*PUN-0-*
  1
*
  1
*
 70
     0
  1
*
  1
*
  0
XRECORD
  5
E3
102
{ACAD_REACTORS
330
1E
102
}
330
1E
100
AcDbXrecord
280
     1
  1
PUNCH RETAINER
  1
*D06*-*
  1
*
  1
*
 70
     0
  1
*
  1
*
  0
XRECORD
  5
E4
102
{ACAD_REACTORS
330
1E
102
}
330
1E
100
AcDbXrecord
280
     1
  1
PUNCH SHOE
  1
DST-*-*
  1
*
  1
*
 70
     0
  1
*
  1
*
  0
XRECORD
  5
E5
102
{ACAD_REACTORS
330
1E
102
}
330
1E
100
AcDbXrecord
280
     1
  1
PUNCHES
  1
PUN-*-*
  1
*
  1
*
 70
     0
  1
*
  1
*
  0
XRECORD
  5
E6
102
{ACAD_REACTORS
330
1E
102
}
330
1E
100
AcDbXrecord
280
     1
  1
puns
  1
*pun-m-s
  1
*
  1
*
 70
     0
  1
*
  1
*
  0
XRECORD
  5
E7
102
{ACAD_REACTORS
330
1E
102
}
330
1E
100
AcDbXrecord
280
     1
  1
RAI
  1
RAI-*
  1
*
  1
*
 70
     0
  1
*
  1
*
  0
XRECORD
  5
E8
102
{ACAD_REACTORS
330
1E
102
}
330
1E
100
AcDbXrecord
280
     1
  1
S
  1
0,05*,11*,12*,13*,14*,20*,21*,22*,55*,56*,
  1
*
  1
*
 70
     0
  1
*
  1
*
  0
XRECORD
  5
E9
102
{ACAD_REACTORS
330
1E
102
}
330
1E
100
AcDbXrecord
280
     1
  1
selec3
  1
3
  1
*
  1
*
 70
     1
  1
*
  1
*
  0
XRECORD
  5
EA
102
{ACAD_REACTORS
330
1E
102
}
330
1E
100
AcDbXrecord
280
     1
  1
SHIM PACK
  1
DO9-*
  1
*
  1
*
 70
     0
  1
*
  1
*
  0
XRECORD
  5
EB
102
{ACAD_REACTORS
330
1E
102
}
330
1E
100
AcDbXrecord
280
     1
  1
SI
  1
55*
  1
*
  1
*
 70
     0
  1
*
  1
*
  0
XRECORD
  5
EC
102
{ACAD_REACTORS
330
1E
102
}
330
1E
100
AcDbXrecord
280
     1
  1
SI-X-S2
  1
S*-*-*S2,S*-*-*H2,
  1
*
  1
*
 70
     0
  1
*
  1
*
  0
XRECORD
  5
ED
102
{ACAD_REACTORS
330
1E
102
}
330
1E
100
AcDbXrecord
280
     1
  1
SOLID LINETYPE
  1
*-*-S
  1
*
  1
*
 70
     0
  1
*
  1
*
  0
XRECORD
  5
EE
102
{ACAD_REACTORS
330
1E
102
}
330
1E
100
AcDbXrecord
280
     1
  1
SPACERS
  1
D04-*
  1
*
  1
*
 70
     0
  1
*
  1
*
  0
XRECORD
  5
EF
102
{ACAD_REACTORS
330
1E
102
}
330
1E
100
AcDbXrecord
280
     1
  1
standard
  1
*
  1
*
  1
*
 70
     0
  1
*
  1
*
  0
XRECORD
  5
F0
102
{ACAD_REACTORS
330
1E
102
}
330
1E
100
AcDbXrecord
280
     1
  1
start hole
  1
117*,116*,din*
  1
*
  1
*
 70
     0
  1
*
  1
*
  0
XRECORD
  5
F1
102
{ACAD_REACTORS
330
1E
102
}
330
1E
100
AcDbXrecord
280
     1
  1
STOCK GUIDE
  1
RAI-*
  1
*
  1
*
 70
     0
  1
*
  1
*
  0
XRECORD
  5
F2
102
{ACAD_REACTORS
330
1E
102
}
330
1E
100
AcDbXrecord
280
     1
  1
Stripper Assembly
  1
ST?-D-*
  1
*
  1
*
 70
     0
  1
*
  1
*
  0
XRECORD
  5
F3
102
{ACAD_REACTORS
330
1E
102
}
330
1E
100
AcDbXrecord
280
     1
  1
STRIPPER INSERTS
  1
ST2-*-*
  1
*
  1
*
 70
     0
  1
*
  1
*
  0
XRECORD
  5
F4
102
{ACAD_REACTORS
330
1E
102
}
330
1E
100
AcDbXrecord
280
     1
  1
STRIPPER INSERTS (NESTED)
  1
*D18-*-*
  1
*
  1
*
 70
     0
  1
*
  1
*
  0
XRECORD
  5
F5
102
{ACAD_REACTORS
330
1E
102
}
330
1E
100
AcDbXrecord
280
     1
  1
STRIPPER PLATE
  1
ST1-*-*
  1
*
  1
*
 70
     0
  1
*
  1
*
  0
XRECORD
  5
F6
102
{ACAD_REACTORS
330
1E
102
}
330
1E
100
AcDbXrecord
280
     1
  1
SUB PUN BACK
  1
*D15-*-*
  1
*
  1
*
 70
     0
  1
*
  1
*
  0
XRECORD
  5
F7
102
{ACAD_REACTORS
330
1E
102
}
330
1E
100
AcDbXrecord
280
     1
  1
SUB PUN BLK
  1
*D14-*-*
  1
*
  1
*
 70
     0
  1
*
  1
*
  0
XRECORD
  5
F8
102
{ACAD_REACTORS
330
1E
102
}
330
1E
100
AcDbXrecord
280
     1
  1
T
  1
*
  1
*
  1
*
 70
   256
  1
*
  1
*
  0
XRECORD
  5
F9
102
{ACAD_REACTORS
330
1E
102
}
330
1E
100
AcDbXrecord
280
     1
  1
temp
  1
*belt*
  1
*
  1
*
 70
     0
  1
*
  1
*
  0
XRECORD
  5
FA
102
{ACAD_REACTORS
330
1E
102
}
330
1E
100
AcDbXrecord
280
     1
  1
test
  1
keyplan
  1
*
  1
*
 70
     0
  1
*
  1
*
  0
XRECORD
  5
FB
102
{ACAD_REACTORS
330
1E
102
}
330
1E
100
AcDbXrecord
280
     1
  1
TOP
  1
*TOP
  1
*
  1
*
 70
     0
  1
*
  1
*
  0
XRECORD
  5
FC
102
{ACAD_REACTORS
330
1E
102
}
330
1E
100
AcDbXrecord
280
     1
  1
TOP and BOT layout
  1
*
  1
*
  1
*
 70
     0
  1
*
  1
*
  0
XRECORD
  5
FD
102
{ACAD_REACTORS
330
1E
102
}
330
1E
100
AcDbXrecord
280
     1
  1
topcond
  1
topcond
  1
*
  1
*
 70
     0
  1
*
  1
*
  0
XRECORD
  5
FE
102
{ACAD_REACTORS
330
1E
102
}
330
1E
100
AcDbXrecord
280
     1
  1
TORISHIN
  1
*A11
  1
*
  1
*
 70
     0
  1
*
  1
*
  0
XRECORD
  5
FF
102
{ACAD_REACTORS
330
1E
102
}
330
1E
100
AcDbXrecord
280
     1
  1
TOWER
  1
T~*
  1
*
  1
*
 70
     0
  1
*
  1
*
  0
XRECORD
  5
100
102
{ACAD_REACTORS
330
1E
102
}
330
1E
100
AcDbXrecord
280
     1
  1
Vacuum 1st
  1
D01-*-*
  1
*
  1
*
 70
     0
  1
*
  1
*
  0
XRECORD
  5
101
102
{ACAD_REACTORS
330
1E
102
}
330
1E
100
AcDbXrecord
280
     1
  1
Vacuum 2nd
  1
D03-*-*
  1
*
  1
*
 70
     0
  1
*
  1
*
  0
XRECORD
  5
102
102
{ACAD_REACTORS
330
1E
102
}
330
1E
100
AcDbXrecord
280
     1
  1
View_All
  1
*
  1
*
  1
*
 70
    13
  1
*
  1
*
  0
XRECORD
  5
103
102
{ACAD_REACTORS
330
1E
102
}
330
1E
100
AcDbXrecord
280
     1
  1
VIEWBOX
  1
V~*
  1
*
  1
*
 70
     0
  1
*
  1
*
  0
XRECORD
  5
104
102
{ACAD_REACTORS
330
1E
102
}
330
1E
100
AcDbXrecord
280
     1
  1
WEDGE LAYERS
  1
*D05-*-*
  1
*
  1
*
 70
     0
  1
*
  1
*
  0
XRECORD
  5
105
102
{ACAD_REACTORS
330
1E
102
}
330
1E
100
AcDbXrecord
280
     1
  1
X
  1
*$*$*
  1
*
  1
*
 70
     0
  1
*
  1
*
  0
XRECORD
  5
106
102
{ACAD_REACTORS
330
1E
102
}
330
1E
100
AcDbXrecord
280
     1
  1

  1
*
  1
*
  1
*
 70
    12
  1
*
  1
*
  0
XRECORD
  5
107
102
{ACAD_REACTORS
330
1E
102
}
330
1E
100
AcDbXrecord
280
     1
  1

  1
*
  1
*
  1
*
 70
   768
  1
*
  1
*
  0
XRECORD
  5
108
102
{ACAD_REACTORS
330
1E
102
}
330
1E
100
AcDbXrecord
280
     1
  1

  1
*
  1
*
  1
*
 70
     0
  1
*
  1
*
  0
XRECORD
  5
109
102
{ACAD_REACTORS
330
1E
102
}
330
1E
100
AcDbXrecord
280
     1
  1
1
  1
*
  1
120
  1
*
 70
   276
  1
*
  1
*
  0
XRECORD
  5
10A
102
{ACAD_REACTORS
330
1E
102
}
330
1E
100
AcDbXrecord
280
     1
  1
2
  1
*
  1
120;41
  1
*
 70
     0
  1
*
  1
*
  0
XRECORD
  5
10B
102
{ACAD_REACTORS
330
1E
102
}
330
1E
100
AcDbXrecord
280
     1
  1

  1
*92
  1
*
  1
*
 70
     0
  1
*
  1
*
  0
XRECORD
  5
10C
102
{ACAD_REACTORS
330
1E
102
}
330
1E
100
AcDbXrecord
280
     1
  1

  1
*0
  1
*
  1
*
 70
     0
  1
*
  1
*
  0
XRECORD
  5
10D
102
{ACAD_REACTORS
330
1E
102
}
330
1E
100
AcDbXrecord
280
     1
  1
8
  1
*
  1
8
  1
*
 70
     0
  1
*
  1
*
  0
XRECORD
  5
10E
102
{ACAD_REACTORS
330
1E
102
}
330
1E
100
AcDbXrecord
280
     1
  1

  1
*
  1
*
  1
*
 70
   256
  1
*
  1
*
  0
XRECORD
  5
10F
102
{ACAD_REACTORS
330
1E
102
}
330
1E
100
AcDbXrecord
280
     1
  1

  1
*
  1
*
  1
*
 70
     0
  1
*
  1
*
  0
XRECORD
  5
110
102
{ACAD_REACTORS
330
1E
102
}
330
1E
100
AcDbXrecord
280
     1
  1

  1
*
  1
*
  1
*
 70
     0
  1
*
  1
*
  0
XRECORD
  5
111
102
{ACAD_REACTORS
330
1E
102
}
330
1E
100
AcDbXrecord
280
     1
  1
 
  1
*
  1
*
  1
*
 70
  1025
  1
*
  1
*
  0
XRECORD
  5
112
102
{ACAD_REACTORS
330
1E
102
}
330
1E
100
AcDbXrecord
280
     1
  1
 
  1
*
  1
*
  1
*
 70
     1
  1
*
  1
*
  0
XRECORD
  5
113
102
{ACAD_REACTORS
330
1E
102
}
330
1E
100
AcDbXrecord
280
     1
  1
 
  1
*
  1
*
  1
*
 70
   257
  1
*
  1
*
  0
XRECORD
  5
114
102
{ACAD_REACTORS
330
1E
102
}
330
1E
100
AcDbXrecord
280
     1
  1

  1
*
  1
*
  1
*
 70
    12
  1
*
  1
*
  0
DICTIONARY
  5
13
330
11
100
AcDbDictionary
280
     1
281
     1
  0
DICTIONARY
  5
278
330
142
100
AcDbDictionary
280
     1
281
     1
  3
ACAD_ROUNDTRIP_2008_TABLESTYLE_CELLSTYLEMAP
360
279
  0
CELLSTYLEMAP
  5
279
102
{ACAD_REACTORS
330
278
102
}
330
278
100
AcDbCellStyleMap
 90
        3
300
CELLSTYLE
  1
TABLEFORMAT_BEGIN
 90
        5
170
     1
 91
        0
 92
    32768
 62
   257
 93
        1
300
CONTENTFORMAT
  1
CONTENTFORMAT_BEGIN
 90
        0
 91
        0
 92
      512
 93
        0
300

 40
0.0
140
1.0
 94
        5
 62
     0
340
118
144
0.25
309
CONTENTFORMAT_END
171
     1
301
MARGIN
  1
CELLMARGIN_BEGIN
 40
0.06
 40
0.06
 40
0.06
 40
0.06
 40
0.18
 40
0.18
309
CELLMARGIN_END
 94
        6
 95
        1
302
GRIDFORMAT
  1
GRIDFORMAT_BEGIN
 90
        0
 91
        1
 62
     0
 92
       -2
340
0
 93
        0
 40
0.045
309
GRIDFORMAT_END
 95
        2
302
GRIDFORMAT
  1
GRIDFORMAT_BEGIN
 90
        0
 91
        1
 62
     0
 92
       -2
340
0
 93
        0
 40
0.045
309
GRIDFORMAT_END
 95
        4
302
GRIDFORMAT
  1
GRIDFORMAT_BEGIN
 90
        0
 91
        1
 62
     0
 92
       -2
340
0
 93
        0
 40
0.045
309
GRIDFORMAT_END
 95
        8
302
GRIDFORMAT
  1
GRIDFORMAT_BEGIN
 90
        0
 91
        1
 62
     0
 92
       -2
340
0
 93
        0
 40
0.045
309
GRIDFORMAT_END
 95
       16
302
GRIDFORMAT
  1
GRIDFORMAT_BEGIN
 90
        0
 91
        1
 62
     0
 92
       -2
340
0
 93
        0
 40
0.045
309
GRIDFORMAT_END
 95
       32
302
GRIDFORMAT
  1
GRIDFORMAT_BEGIN
 90
        0
 91
        1
 62
     0
 92
       -2
340
0
 93
        0
 40
0.045
309
GRIDFORMAT_END
309
TABLEFORMAT_END
  1
CELLSTYLE_BEGIN
 90
        1
 91
        1
300
_TITLE
309
CELLSTYLE_END
300
CELLSTYLE
  1
TABLEFORMAT_BEGIN
 90
        5
170
     1
 91
        0
 92
        0
 62
   257
 93
        1
300
CONTENTFORMAT
  1
CONTENTFORMAT_BEGIN
 90
        0
 91
        0
 92
      512
 93
        0
300

 40
0.0
140
1.0
 94
        5
 62
     0
340
118
144
0.18
309
CONTENTFORMAT_END
171
     1
301
MARGIN
  1
CELLMARGIN_BEGIN
 40
0.06
 40
0.06
 40
0.06
 40
0.06
 40
0.18
 40
0.18
309
CELLMARGIN_END
 94
        6
 95
        1
302
GRIDFORMAT
  1
GRIDFORMAT_BEGIN
 90
        0
 91
        1
 62
     0
 92
       -2
340
0
 93
        0
 40
0.045
309
GRIDFORMAT_END
 95
        2
302
GRIDFORMAT
  1
GRIDFORMAT_BEGIN
 90
        0
 91
        1
 62
     0
 92
       -2
340
0
 93
        0
 40
0.045
309
GRIDFORMAT_END
 95
        4
302
GRIDFORMAT
  1
GRIDFORMAT_BEGIN
 90
        0
 91
        1
 62
     0
 92
       -2
340
0
 93
        0
 40
0.045
309
GRIDFORMAT_END
 95
        8
302
GRIDFORMAT
  1
GRIDFORMAT_BEGIN
 90
        0
 91
        1
 62
     0
 92
       -2
340
0
 93
        0
 40
0.045
309
GRIDFORMAT_END
 95
       16
302
GRIDFORMAT
  1
GRIDFORMAT_BEGIN
 90
        0
 91
        1
 62
     0
 92
       -2
340
0
 93
        0
 40
0.045
309
GRIDFORMAT_END
 95
       32
302
GRIDFORMAT
  1
GRIDFORMAT_BEGIN
 90
        0
 91
        1
 62
     0
 92
       -2
340
0
 93
        0
 40
0.045
309
GRIDFORMAT_END
309
TABLEFORMAT_END
  1
CELLSTYLE_BEGIN
 90
        2
 91
        1
300
_HEADER
309
CELLSTYLE_END
300
CELLSTYLE
  1
TABLEFORMAT_BEGIN
 90
        5
170
     1
 91
        0
 92
        0
 62
   257
 93
        1
300
CONTENTFORMAT
  1
CONTENTFORMAT_BEGIN
 90
        0
 91
        0
 92
      512
 93
        0
300

 40
0.0
140
1.0
 94
        2
 62
     0
340
118
144
0.18
309
CONTENTFORMAT_END
171
     1
301
MARGIN
  1
CELLMARGIN_BEGIN
 40
0.06
 40
0.06
 40
0.06
 40
0.06
 40
0.18
 40
0.18
309
CELLMARGIN_END
 94
        6
 95
        1
302
GRIDFORMAT
  1
GRIDFORMAT_BEGIN
 90
        0
 91
        1
 62
     0
 92
       -2
340
0
 93
        0
 40
0.045
309
GRIDFORMAT_END
 95
        2
302
GRIDFORMAT
  1
GRIDFORMAT_BEGIN
 90
        0
 91
        1
 62
     0
 92
       -2
340
0
 93
        0
 40
0.045
309
GRIDFORMAT_END
 95
        4
302
GRIDFORMAT
  1
GRIDFORMAT_BEGIN
 90
        0
 91
        1
 62
     0
 92
       -2
340
0
 93
        0
 40
0.045
309
GRIDFORMAT_END
 95
        8
302
GRIDFORMAT
  1
GRIDFORMAT_BEGIN
 90
        0
 91
        1
 62
     0
 92
       -2
340
0
 93
        0
 40
0.045
309
GRIDFORMAT_END
 95
       16
302
GRIDFORMAT
  1
GRIDFORMAT_BEGIN
 90
        0
 91
        1
 62
     0
 92
       -2
340
0
 93
        0
 40
0.045
309
GRIDFORMAT_END
 95
       32
302
GRIDFORMAT
  1
GRIDFORMAT_BEGIN
 90
        0
 91
        1
 62
     0
 92
       -2
340
0
 93
        0
 40
0.045
309
GRIDFORMAT_END
309
TABLEFORMAT_END
  1
CELLSTYLE_BEGIN
 90
        3
 91
        2
300
_DATA
309
CELLSTYLE_END
  0
ENDSEC
  0
SECTION
  2
ACDSDATA
 70
     2
 71
     8
  0
ACDSSCHEMA
 90
        0
  1
AcDb_Thumbnail_Schema
  2
AcDbDs::ID
280
    10
 91
        8
  2
Thumbnail_Data
280
    15
 91
        0
101
ACDSRECORD
 95
        0
 90
        1
  2
AcDbDs::TreatedAsObjectData
280
     1
291
     1
101
ACDSRECORD
 95
        0
 90
        2
  2
AcDbDs::Legacy
280
     1
291
     1
101
ACDSRECORD
  1
AcDbDs::ID
 90
        3
  2
AcDs:Indexable
280
     1
291
     1
101
ACDSRECORD
  1
AcDbDs::ID
 90
        4
  2
AcDbDs::HandleAttribute
280
     7
282
     1
  0
ACDSSCHEMA
 90
        1
  1
AcDbDs::TreatedAsObjectDataSchema
  2
AcDbDs::TreatedAsObjectData
280
     1
 91
        0
  0
ACDSSCHEMA
 90
        2
  1
AcDbDs::LegacySchema
  2
AcDbDs::Legacy
280
     1
 91
        0
  0
ACDSSCHEMA
 90
        3
  1
AcDbDs::IndexedPropertySchema
  2
AcDs:Indexable
280
     1
 91
        0
  0
ACDSSCHEMA
 90
        4
  1
AcDbDs::HandleAttributeSchema
  2
AcDbDs::HandleAttribute
280
     7
 91
        1
284
     1
  0
ACDSRECORD
 90
        0
  2
AcDbDs::ID
280
    10
320
11
  2
Thumbnail_Data
280
    15
 94
     1598
310
89504E470D0A1A0A0000000D49484452000001000000007C0803000000B13B9E5A00000300504C5445000000000000C8C8C80000000000000000000000000000000000000000000000000000330000660000990000CC0000FF0033000033330033660033990033CC0033FF0066000066330066660066990066CC0066FF0099
310
000099330099660099990099CC0099FF00CC0000CC3300CC6600CC9900CCCC00CCFF00FF0000FF3300FF6600FF9900FFCC00FFFF3300003300333300663300993300CC3300FF3333003333333333663333993333CC3333FF3366003366333366663366993366CC3366FF3399003399333399663399993399CC3399FF33CC00
310
33CC3333CC6633CC9933CCCC33CCFF33FF0033FF3333FF6633FF9933FFCC33FFFF6600006600336600666600996600CC6600FF6633006633336633666633996633CC6633FF6666006666336666666666996666CC6666FF6699006699336699666699996699CC6699FF66CC0066CC3366CC6666CC9966CCCC66CCFF66FF0066
310
FF3366FF6666FF9966FFCC66FFFF9900009900339900669900999900CC9900FF9933009933339933669933999933CC9933FF9966009966339966669966999966CC9966FF9999009999339999669999999999CC9999FF99CC0099CC3399CC6699CC9999CCCC99CCFF99FF0099FF3399FF6699FF9999FFCC99FFFFCC0000CC00
310
33CC0066CC0099CC00CCCC00FFCC3300CC3333CC3366CC3399CC33CCCC33FFCC6600CC6633CC6666CC6699CC66CCCC66FFCC9900CC9933CC9966CC9999CC99CCCC99FFCCCC00CCCC33CCCC66CCCC99CCCCCCCCCCFFCCFF00CCFF33CCFF66CCFF99CCFFCCCCFFFFFF0000FF0033FF0066FF0099FF00CCFF00FFFF3300FF3333
310
FF3366FF3399FF33CCFF33FFFF6600FF6633FF6666FF6699FF66CCFF66FFFF9900FF9933FF9966FF9999FF99CCFF99FFFFCC00FFCC33FFCC66FFCC99FFCCCCFFCCFFFFFF00FFFF33FFFF66FFFF99FFFFCCFFFFFF0000000D0D0D1A1A1A2828283535354343435050505D5D5D6B6B6B787878868686939393A1A1A1AEAEAEBB
310
BBBBC9C9C9D6D6D6E4E4E4F1F1F1FFFFFF00000000000000000000000000000000000000000000000000000000000008F1915C000002F94944415478DAED9C417AF2201086E706FF35663357CF11D8B0F30059710DF77F804090601AFB5003E17B6D6D3A120DAF4070508900000000007E81FC5CC251E9CE1A1450954E5B40
310
B51A772BE0B366F1BEC6FDB78010FBAD00F9A0ABB53B06D86A7DD4058E6B55D8A51101FE7898396EA45BCCAF01178A3BAC5BB2158A85CFF6A7469EFDE79E52EC1C5A0AC3807B14FF40EEBAA11E600FA3500DAE2E609E43030BED4AAFE51E0FB95CC0BF80F22C025460BD65A99B4ACBD88D2DB6EDA9CB5D609E269952B66256
310
80987B09908200FD2A809FA1055CDB17BE256069F13A1740ED8C013505D01B01D37420C0586EDE0532E6675AD0ACBF979C05BF23203760CF02BEE063B936EE720F0174AE05245D401A6C01AAEE6990B820202D76D918F0272D80CAF380230197CE84AB8F01543A0B8C24E0DC18104B69FDB8D944A8F4280309A09302E254F8
310
6E3341FBC4EE4741AD7753611948807B21D0AC00F9C220685F0A4601B3BD483B6380544E88140568E6E5679E6D5E64F67F5A11B04CD3DC3CCC302B76B3365E0ED8879663F6219BC731A118FBC91D098B0F4928C6544E76891B03FCCEEE465B90B89984B0AF45C87CDA44A73B5AA3F596C00A06624ECB05D73D9993D8FBACA8
310
49D2A72D65C5D3B4ADFF5F284EE7F2F5829837DFA2AF6B0874B8CC1296199DB88604BC1CA61740C729EC3CC52F99C3CE1686F2F47DDA2EDEACF7487131A8D795B15893B599E63529F46ABA8D801FBD947BF599BDFA1630CCDB03CE48F0E91A6368504C64D88AE740C0B0ED60F0418000000000000000E096842521081856C0
310
BA2636722FC0CB7E00000000000000002350F79D4D32AC80F0DE5A08E8AFFE3505C8B002647001020110D0AB00AA3504F47B1AAC7327D2EF4488EBA094FB50547F024C553AFCCCC0B614AAC206F32EA4F721E26DCFD005D80C2A20864C7F7DA0B6008100088000088080AE04A81C3BADCBD0FB90E2C29E6801100001100001
310
108057836801C808F503C7A73D7C1F1467215B2409C562B42BC6CCD41F5C13BA23F8E28431BF4362780125170400000000004053FC079085289C9EDBD3970000000049454E44AE426082
  0
ENDSEC
  0
EOF
