  0
SECTION
  2
HEADER
  9
$ACADVER
  1
AC1032
  9
$ACADMAINTVER
 90
      248
  9
$DWGCODEPAGE
  3
ANSI_936
  9
$REQUIREDVERSIONS
160
                 0
  9
$INSBASE
 10
0.0
 20
0.0
 30
0.0
  9
$EXTMIN
 10
5.277662885870014
 20
5.388792975765371
 30
-0.1563873012657211
  9
$EXTMAX
 10
403.3071599464728
 20
265.2686010024931
 30
1.060622250968004
  9
$LIMMIN
 10
0.0
 20
0.0
  9
$LIMMAX
 10
12.0
 20
9.0
  9
$ORTHOMODE
 70
     1
  9
$REGENMODE
 70
     1
  9
$FILLMODE
 70
     1
  9
$QTEXTMODE
 70
     0
  9
$MIRRTEXT
 70
     0
  9
$LTSCALE
 40
1.0
  9
$ATTMODE
 70
     1
  9
$TEXTSIZE
 40
0.2
  9
$TRACEWID
 40
0.05
  9
$TEXTSTYLE
  7
Standard
  9
$CLAYER
  8
0
  9
$CELTYPE
  6
ByLayer
  9
$CECOLOR
 62
   256
  9
$CELTSCALE
 40
1.0
  9
$DISPSILH
 70
     0
  9
$DIMSCALE
 40
1.0
  9
$DIMASZ
 40
0.18
  9
$DIMEXO
 40
0.0625
  9
$DIMDLI
 40
0.38
  9
$DIMRND
 40
0.0
  9
$DIMDLE
 40
0.0
  9
$DIMEXE
 40
0.18
  9
$DIMTP
 40
0.0
  9
$DIMTM
 40
0.0
  9
$DIMTXT
 40
0.18
  9
$DIMCEN
 40
0.09
  9
$DIMTSZ
 40
0.0
  9
$DIMTOL
 70
     0
  9
$DIMLIM
 70
     0
  9
$DIMTIH
 70
     1
  9
$DIMTOH
 70
     1
  9
$DIMSE1
 70
     0
  9
$DIMSE2
 70
     0
  9
$DIMTAD
 70
     0
  9
$DIMZIN
 70
     0
  9
$DIMBLK
  1

  9
$DIMASO
 70
     1
  9
$DIMSHO
 70
     1
  9
$DIMPOST
  1

  9
$DIMAPOST
  1

  9
$DIMALT
 70
     0
  9
$DIMALTD
 70
     2
  9
$DIMALTF
 40
25.4
  9
$DIMLFAC
 40
1.0
  9
$DIMTOFL
 70
     0
  9
$DIMTVP
 40
0.0
  9
$DIMTIX
 70
     0
  9
$DIMSOXD
 70
     0
  9
$DIMSAH
 70
     0
  9
$DIMBLK1
  1

  9
$DIMBLK2
  1

  9
$DIMSTYLE
  2
Standard
  9
$DIMCLRD
 70
     0
  9
$DIMCLRE
 70
     0
  9
$DIMCLRT
 70
     0
  9
$DIMTFAC
 40
1.0
  9
$DIMGAP
 40
0.09
  9
$DIMJUST
 70
     0
  9
$DIMSD1
 70
     0
  9
$DIMSD2
 70
     0
  9
$DIMTOLJ
 70
     1
  9
$DIMTZIN
 70
     0
  9
$DIMALTZ
 70
     0
  9
$DIMALTTZ
 70
     0
  9
$DIMUPT
 70
     0
  9
$DIMDEC
 70
     4
  9
$DIMTDEC
 70
     4
  9
$DIMALTU
 70
     2
  9
$DIMALTTD
 70
     2
  9
$DIMTXSTY
  7
Standard
  9
$DIMAUNIT
 70
     0
  9
$DIMADEC
 70
     0
  9
$DIMALTRND
 40
0.0
  9
$DIMAZIN
 70
     0
  9
$DIMDSEP
 70
    46
  9
$DIMATFIT
 70
     3
  9
$DIMFRAC
 70
     0
  9
$DIMLDRBLK
  1

  9
$DIMLUNIT
 70
     2
  9
$DIMLWD
 70
    -2
  9
$DIMLWE
 70
    -2
  9
$DIMTMOVE
 70
     0
  9
$DIMFXL
 40
1.0
  9
$DIMFXLON
 70
     0
  9
$DIMJOGANG
 40
0.7853981633974483
  9
$DIMTFILL
 70
     0
  9
$DIMTFILLCLR
 70
     0
  9
$DIMARCSYM
 70
     2
  9
$DIMLTYPE
  6

  9
$DIMLTEX1
  6

  9
$DIMLTEX2
  6

  9
$DIMTXTDIRECTION
 70
     0
  9
$LUNITS
 70
     2
  9
$LUPREC
 70
     4
  9
$SKETCHINC
 40
0.1
  9
$FILLETRAD
 40
0.0
  9
$AUNITS
 70
     0
  9
$AUPREC
 70
     0
  9
$MENU
  1
.
  9
$ELEVATION
 40
0.0
  9
$PELEVATION
 40
0.0
  9
$THICKNESS
 40
0.0
  9
$LIMCHECK
 70
     0
  9
$CHAMFERA
 40
0.0
  9
$CHAMFERB
 40
0.0
  9
$CHAMFERC
 40
0.0
  9
$CHAMFERD
 40
0.0
  9
$SKPOLY
 70
     0
  9
$TDCREATE
 40
2460262.430127315
  9
$TDUCREATE
 40
2460262.096803797
  9
$TDUPDATE
 40
2460607.490439815
  9
$TDUUPDATE
 40
2460607.157106482
  9
$TDINDWG
 40
0.2167234375
  9
$TDUSRTIMER
 40
0.2167230671
  9
$USRTIMER
 70
     1
  9
$ANGBASE
 50
0.0
  9
$ANGDIR
 70
     0
  9
$PDMODE
 70
     0
  9
$PDSIZE
 40
0.0
  9
$PLINEWID
 40
0.0
  9
$SPLFRAME
 70
     0
  9
$SPLINETYPE
 70
     6
  9
$SPLINESEGS
 70
     8
  9
$HANDSEED
  5
116
  9
$SURFTAB1
 70
     6
  9
$SURFTAB2
 70
     6
  9
$SURFTYPE
 70
     6
  9
$SURFU
 70
     6
  9
$SURFV
 70
     6
  9
$UCSBASE
  2

  9
$UCSNAME
  2

  9
$UCSORG
 10
0.0
 20
0.0
 30
0.0
  9
$UCSXDIR
 10
1.0
 20
0.0
 30
0.0
  9
$UCSYDIR
 10
0.0
 20
1.0
 30
0.0
  9
$UCSORTHOREF
  2

  9
$UCSORTHOVIEW
 70
     0
  9
$UCSORGTOP
 10
0.0
 20
0.0
 30
0.0
  9
$UCSORGBOTTOM
 10
0.0
 20
0.0
 30
0.0
  9
$UCSORGLEFT
 10
0.0
 20
0.0
 30
0.0
  9
$UCSORGRIGHT
 10
0.0
 20
0.0
 30
0.0
  9
$UCSORGFRONT
 10
0.0
 20
0.0
 30
0.0
  9
$UCSORGBACK
 10
0.0
 20
0.0
 30
0.0
  9
$PUCSBASE
  2

  9
$PUCSNAME
  2

  9
$PUCSORG
 10
0.0
 20
0.0
 30
0.0
  9
$PUCSXDIR
 10
1.0
 20
0.0
 30
0.0
  9
$PUCSYDIR
 10
0.0
 20
1.0
 30
0.0
  9
$PUCSORTHOREF
  2

  9
$PUCSORTHOVIEW
 70
     0
  9
$PUCSORGTOP
 10
0.0
 20
0.0
 30
0.0
  9
$PUCSORGBOTTOM
 10
0.0
 20
0.0
 30
0.0
  9
$PUCSORGLEFT
 10
0.0
 20
0.0
 30
0.0
  9
$PUCSORGRIGHT
 10
0.0
 20
0.0
 30
0.0
  9
$PUCSORGFRONT
 10
0.0
 20
0.0
 30
0.0
  9
$PUCSORGBACK
 10
0.0
 20
0.0
 30
0.0
  9
$USERI1
 70
     0
  9
$USERI2
 70
     0
  9
$USERI3
 70
     0
  9
$USERI4
 70
     0
  9
$USERI5
 70
     0
  9
$USERR1
 40
0.0
  9
$USERR2
 40
0.0
  9
$USERR3
 40
0.0
  9
$USERR4
 40
0.0
  9
$USERR5
 40
0.0
  9
$WORLDVIEW
 70
     1
  9
$SHADEDGE
 70
     3
  9
$SHADEDIF
 70
    70
  9
$TILEMODE
 70
     1
  9
$MAXACTVP
 70
    64
  9
$PINSBASE
 10
0.0
 20
0.0
 30
0.0
  9
$PLIMCHECK
 70
     0
  9
$PEXTMIN
 10
0.0
 20
0.0
 30
0.0
  9
$PEXTMAX
 10
0.0
 20
0.0
 30
0.0
  9
$PLIMMIN
 10
0.0
 20
0.0
  9
$PLIMMAX
 10
12.0
 20
9.0
  9
$UNITMODE
 70
     0
  9
$VISRETAIN
 70
     1
  9
$PLINEGEN
 70
     0
  9
$PSLTSCALE
 70
     1
  9
$TREEDEPTH
 70
  3020
  9
$CMLSTYLE
  2
Standard
  9
$CMLJUST
 70
     0
  9
$CMLSCALE
 40
1.0
  9
$PROXYGRAPHICS
 70
     1
  9
$MEASUREMENT
 70
     0
  9
$CELWEIGHT
370
    -1
  9
$ENDCAPS
280
     0
  9
$JOINSTYLE
280
     0
  9
$LWDISPLAY
290
     0
  9
$INSUNITS
 70
     1
  9
$HYPERLINKBASE
  1

  9
$STYLESHEET
  1

  9
$XEDIT
290
     1
  9
$CEPSNTYPE
380
     0
  9
$PSTYLEMODE
290
     1
  9
$FINGERPRINTGUID
  2
{CBF97210-A5DD-0545-9177-A824FD18CE17}
  9
$VERSIONGUID
  2
{BE4626F4-5795-4495-8555-BEF36844AC15}
  9
$EXTNAMES
290
     1
  9
$PSVPSCALE
 40
0.0
  9
$OLESTARTUP
290
     0
  9
$SORTENTS
280
   127
  9
$INDEXCTL
280
     0
  9
$HIDETEXT
280
     1
  9
$XCLIPFRAME
280
     2
  9
$HALOGAP
280
     0
  9
$OBSCOLOR
 70
   257
  9
$OBSLTYPE
280
     0
  9
$INTERSECTIONDISPLAY
280
     0
  9
$INTERSECTIONCOLOR
 70
   257
  9
$DIMASSOC
280
     2
  9
$PROJECTNAME
  1

  9
$CAMERADISPLAY
290
     0
  9
$LENSLENGTH
 40
50.0
  9
$CAMERAHEIGHT
 40
0.0
  9
$STEPSPERSEC
 40
2.0
  9
$STEPSIZE
 40
6.0
  9
$3DDWFPREC
 40
2.0
  9
$PSOLWIDTH
 40
0.25
  9
$PSOLHEIGHT
 40
4.0
  9
$LOFTANG1
 40
1.570796326794896
  9
$LOFTANG2
 40
1.570796326794896
  9
$LOFTMAG1
 40
0.0
  9
$LOFTMAG2
 40
0.0
  9
$LOFTPARAM
 70
     7
  9
$LOFTNORMALS
280
     1
  9
$LATITUDE
 40
37.795
  9
$LONGITUDE
 40
-122.394
  9
$NORTHDIRECTION
 40
0.0
  9
$TIMEZONE
 70
 -8000
  9
$LIGHTGLYPHDISPLAY
280
     1
  9
$TILEMODELIGHTSYNCH
280
     1
  9
$CMATERIAL
347
30
  9
$SOLIDHIST
280
     0
  9
$SHOWHIST
280
     1
  9
$DWFFRAME
280
     2
  9
$DGNFRAME
280
     0
  9
$REALWORLDSCALE
290
     1
  9
$INTERFERECOLOR
 62
     1
  9
$INTERFEREOBJVS
345
45
  9
$INTERFEREVPVS
346
46
  9
$CSHADOW
280
     0
  9
$SHADOWPLANELOCATION
 40
0.0
  0
ENDSEC
  0
SECTION
  2
CLASSES
  0
CLASS
  1
ACDBDICTIONARYWDFLT
  2
AcDbDictionaryWithDefault
  3
ObjectDBX Classes
 90
        0
 91
        1
280
     0
281
     0
  0
CLASS
  1
DICTIONARYVAR
  2
AcDbDictionaryVar
  3
ObjectDBX Classes
 90
        0
 91
       11
280
     0
281
     0
  0
CLASS
  1
TABLESTYLE
  2
AcDbTableStyle
  3
ObjectDBX Classes
 90
     4095
 91
        1
280
     0
281
     0
  0
CLASS
  1
WIPEOUTVARIABLES
  2
AcDbWipeoutVariables
  3
"WipeOut|Product Desc:     WipeOut Dbx Application|Company:          Autodesk, Inc.|WEB Address:      www.autodesk.com"
 90
        0
 91
        0
280
     0
281
     0
  0
CLASS
  1
SCALE
  2
AcDbScale
  3
ObjectDBX Classes
 90
     1153
 91
       33
280
     0
281
     0
  0
CLASS
  1
MLEADERSTYLE
  2
AcDbMLeaderStyle
  3
ACDB_MLEADERSTYLE_CLASS
 90
     4095
 91
        0
280
     0
281
     0
  0
CLASS
  1
CELLSTYLEMAP
  2
AcDbCellStyleMap
  3
ObjectDBX Classes
 90
     1152
 91
        1
280
     0
281
     0
  0
CLASS
  1
MATERIAL
  2
AcDbMaterial
  3
ObjectDBX Classes
 90
     1153
 91
        3
280
     0
281
     0
  0
CLASS
  1
VISUALSTYLE
  2
AcDbVisualStyle
  3
ObjectDBX Classes
 90
     4095
 91
        3
280
     0
281
     0
  0
CLASS
  1
ACDBSECTIONVIEWSTYLE
  2
AcDbSectionViewStyle
  3
ObjectDBX Classes
 90
     1025
 91
        0
280
     0
281
     0
  0
CLASS
  1
ACDBDETAILVIEWSTYLE
  2
AcDbDetailViewStyle
  3
ObjectDBX Classes
 90
     1025
 91
        0
280
     0
281
     0
  0
CLASS
  1
SORTENTSTABLE
  2
AcDbSortentsTable
  3
ObjectDBX Classes
 90
        0
 91
        2
280
     0
281
     0
  0
CLASS
  1
MULTILEADER
  2
AcDbMLeader
  3
ACDB_MLEADER_CLASS
 90
     1025
 91
        0
280
     0
281
     1
  0
CLASS
  1
DIMASSOC
  2
AcDbDimAssoc
  3
"AcDbDimAssoc|Product Desc:     AcDim ARX App For Dimension|Company:          Autodesk, Inc.|WEB Address:      www.autodesk.com"
 90
        0
 91
        0
280
     0
281
     0
  0
CLASS
  1
ACDB_HATCHSCALECONTEXTDATA_CLASS
  2
AcDbHatchScaleContextData
  3
ObjectDBX Classes
 90
     1153
 91
        0
280
     0
281
     0
  0
CLASS
  1
ACDB_HATCHVIEWCONTEXTDATA_CLASS
  2
AcDbHatchViewContextData
  3
ObjectDBX Classes
 90
     1153
 91
        0
280
     0
281
     0
  0
CLASS
  1
SOLID_BACKGROUND
  2
AcDbSolidBackground
  3
SCENEOE
 90
     4095
 91
        0
280
     0
281
     0
  0
CLASS
  1
NPOCOLLECTION
  2
AcDbImpNonPersistentObjectsCollection
  3
ObjectDBX Classes
 90
     1153
 91
        0
280
     0
281
     0
  0
ENDSEC
  0
SECTION
  2
TABLES
  0
TABLE
  2
VPORT
  5
23
102
{ACAD_XDICTIONARY
360
28
102
}
330
0
100
AcDbSymbolTable
 70
     1
  0
VPORT
  5
24
330
23
100
AcDbSymbolTableRecord
100
AcDbViewportTableRecord
  2
*Active
 70
     0
 10
0.0
 20
0.0
 11
1.0
 21
1.0
 12
374.1282781406134
 22
192.3183151232491
 13
0.0
 23
0.0
 14
0.5
 24
0.5
 15
0.5
 25
0.5
 16
0.0
 26
0.0
 36
1.0
 17
0.0
 27
0.0
 37
0.0
 40
91.79718790843708
 41
2.570850202429149
 42
50.0
 43
0.0
 44
0.0
 50
0.0
 51
0.0
 71
    16
 72
  1000
 73
     1
 74
     3
 75
     0
 76
     0
 77
     0
 78
     0
281
     0
 65
     1
110
0.0
120
0.0
130
0.0
111
1.0
121
0.0
131
0.0
112
0.0
122
1.0
132
0.0
 79
     0
146
0.0
348
25
 60
     3
 61
     5
292
     1
282
     1
141
0.0
142
0.0
 63
   250
421
  3355443
1001
ACAD_NAV_VCDISPLAY
1070
     3
  0
ENDTAB
  0
TABLE
  2
LTYPE
  5
1E
330
0
100
AcDbSymbolTable
 70
     1
  0
LTYPE
  5
1F
330
1E
100
AcDbSymbolTableRecord
100
AcDbLinetypeTableRecord
  2
ByBlock
 70
     0
  3

 72
    65
 73
     0
 40
0.0
  0
LTYPE
  5
20
330
1E
100
AcDbSymbolTableRecord
100
AcDbLinetypeTableRecord
  2
ByLayer
 70
     0
  3

 72
    65
 73
     0
 40
0.0
  0
LTYPE
  5
E
330
1E
100
AcDbSymbolTableRecord
100
AcDbLinetypeTableRecord
  2
Continuous
 70
     0
  3
Solid line
 72
    65
 73
     0
 40
0.0
  0
ENDTAB
  0
TABLE
  2
LAYER
  5
17
102
{ACAD_XDICTIONARY
360
18
102
}
330
0
100
AcDbSymbolTable
 70
     1
  0
LAYER
  5
6
102
{ACAD_XDICTIONARY
360
7
102
}
330
17
100
AcDbSymbolTableRecord
100
AcDbLayerTableRecord
  2
0
 70
     0
 62
     7
  6
Continuous
370
    -3
390
9
347
C
348
0
  0
ENDTAB
  0
TABLE
  2
STYLE
  5
1A
330
0
100
AcDbSymbolTable
 70
     2
  0
STYLE
  5
1B
330
1A
100
AcDbSymbolTableRecord
100
AcDbTextStyleTableRecord
  2
Standard
 70
     0
 40
0.0
 41
1.0
 50
0.0
 71
     0
 42
0.2
  3
SimSun.ttf
  4

1001
ACAD
1000
SimSun
1071
    34306
  0
STYLE
  5
7B
330
1A
100
AcDbSymbolTableRecord
100
AcDbTextStyleTableRecord
  2
ROMANS
 70
     0
 40
0.018
 41
0.8
 50
0.0
 71
     0
 42
0.018
  3
SIMPLEX
  4

  0
ENDTAB
  0
TABLE
  2
VIEW
  5
21
330
0
100
AcDbSymbolTable
 70
     0
  0
ENDTAB
  0
TABLE
  2
UCS
  5
22
330
0
100
AcDbSymbolTable
 70
     0
  0
ENDTAB
  0
TABLE
  2
APPID
  5
29
330
0
100
AcDbSymbolTable
 70
     3
  0
APPID
  5
1C
330
29
100
AcDbSymbolTableRecord
100
AcDbRegAppTableRecord
  2
ACAD
 70
     0
  0
APPID
  5
27
330
29
100
AcDbSymbolTableRecord
100
AcDbRegAppTableRecord
  2
ACAD_NAV_VCDISPLAY
 70
     0
  0
APPID
  5
EA
330
29
100
AcDbSymbolTableRecord
100
AcDbRegAppTableRecord
  2
CAXA_DRAFT_TXTSCALE
 70
     0
  0
ENDTAB
  0
TABLE
  2
DIMSTYLE
  5
2A
330
0
100
AcDbSymbolTable
 70
     1
100
AcDbDimStyleTable
 71
     1
340
2B
  0
DIMSTYLE
105
2B
330
2A
100
AcDbSymbolTableRecord
100
AcDbDimStyleTableRecord
  2
Standard
 70
     0
340
1B
  0
ENDTAB
  0
TABLE
  2
BLOCK_RECORD
  5
1
330
0
100
AcDbSymbolTable
 70
     0
  0
BLOCK_RECORD
  5
2
102
{ACAD_XDICTIONARY
360
3
102
}
330
1
100
AcDbSymbolTableRecord
100
AcDbBlockTableRecord
  2
*Model_Space
340
10
 70
     0
280
     1
281
     0
  0
BLOCK_RECORD
  5
13
330
1
100
AcDbSymbolTableRecord
100
AcDbBlockTableRecord
  2
*Paper_Space
340
16
 70
     0
280
     1
281
     0
  0
ENDTAB
  0
ENDSEC
  0
SECTION
  2
BLOCKS
  0
BLOCK
  5
5
330
2
100
AcDbEntity
  8
0
100
AcDbBlockBegin
  2
*Model_Space
 70
     0
 10
0.0
 20
0.0
 30
0.0
  3
*Model_Space
  1

  0
ENDBLK
  5
F
330
2
100
AcDbEntity
  8
0
100
AcDbBlockEnd
  0
BLOCK
  5
14
330
13
100
AcDbEntity
 67
     1
  8
0
100
AcDbBlockBegin
  2
*Paper_Space
 70
     0
 10
0.0
 20
0.0
 30
0.0
  3
*Paper_Space
  1

  0
ENDBLK
  5
15
330
13
100
AcDbEntity
 67
     1
  8
0
100
AcDbBlockEnd
  0
ENDSEC
  0
SECTION
  2
ENTITIES
  0
LINE
  5
68
330
2
100
AcDbEntity
  8
0
 62
     3
100
AcDbLine
 10
320.9830245868989
 20
180.5747507081138
 30
0.1199941103777999
 11
378.2264085258404
 21
180.5747507081138
 31
0.1199941103777999
  0
LINE
  5
69
330
2
100
AcDbEntity
  8
0
 62
     3
100
AcDbLine
 10
320.9830245868989
 20
191.0796707180761
 30
0.1199941103777999
 11
378.2264085258404
 21
191.0796707180761
 31
0.1199941103777999
  0
LINE
  5
6A
330
2
100
AcDbEntity
  8
0
 62
     3
100
AcDbLine
 10
320.9830245868989
 20
213.5902515828724
 30
0.1199941103777999
 11
378.2264085258404
 21
213.5902515828724
 31
0.1199941103777999
  0
LINE
  5
6B
330
2
100
AcDbEntity
  8
0
 62
     3
100
AcDbLine
 10
320.9830245868989
 20
212.0895460110061
 30
0.1199941103777999
 11
378.2264085258404
 21
212.0895460110061
 31
0.1199941103777999
  0
LINE
  5
6C
330
2
100
AcDbEntity
  8
0
 62
     3
100
AcDbLine
 10
320.9830245868989
 20
207.5874292953785
 30
0.1199941103777999
 11
378.2264085258404
 21
207.5874292953785
 31
0.1199941103777999
  0
LINE
  5
6D
330
2
100
AcDbEntity
  8
0
 62
     3
100
AcDbLine
 10
320.9830245868989
 20
209.0881348672591
 30
0.1199941103777999
 11
378.2264085258404
 21
209.0881348672591
 31
0.1199941103777999
  0
LINE
  5
6E
330
2
100
AcDbEntity
  8
0
 62
     3
100
AcDbLine
 10
320.9830245868989
 20
210.5888404391248
 30
0.1199941103777999
 11
378.2264085258404
 21
210.5888404391248
 31
0.1199941103777999
  0
LINE
  5
6F
330
2
100
AcDbEntity
  8
0
 62
     3
100
AcDbLine
 10
320.9830245868989
 20
203.0853125797652
 30
0.1199941103777999
 11
378.2264085258404
 21
203.0853125797652
 31
0.1199941103777999
  0
LINE
  5
70
330
2
100
AcDbEntity
  8
0
 62
     3
100
AcDbLine
 10
320.9830245868989
 20
201.5846070078846
 30
0.1199941103777999
 11
378.2264085258404
 21
201.5846070078846
 31
0.1199941103777999
  0
LINE
  5
71
330
2
100
AcDbEntity
  8
0
 62
     3
100
AcDbLine
 10
320.9830245868989
 20
200.0839014360182
 30
0.1199941103777999
 11
378.2264085258404
 21
200.0839014360182
 31
0.1199941103777999
  0
LINE
  5
72
330
2
100
AcDbEntity
  8
0
 62
     3
100
AcDbLine
 10
320.9830245868989
 20
198.5831958641369
 30
0.1199941103777999
 11
378.2264085258404
 21
198.5831958641369
 31
0.1199941103777999
  0
LINE
  5
73
330
2
100
AcDbEntity
  8
0
 62
     3
100
AcDbLine
 10
320.9830245868989
 20
197.0824902922712
 30
0.1199941103777999
 11
378.2264085258404
 21
197.0824902922712
 31
0.1199941103777999
  0
LINE
  5
74
330
2
100
AcDbEntity
  8
0
 62
     3
100
AcDbLine
 10
320.9830245868989
 20
195.5817847203906
 30
0.1199941103777999
 11
378.2264085258404
 21
195.5817847203906
 31
0.1199941103777999
  0
LINE
  5
75
330
2
100
AcDbEntity
  8
0
 62
     3
100
AcDbLine
 10
320.9830245868989
 20
192.580373576643
 30
0.1199941103777999
 11
378.2264085258404
 21
192.580373576643
 31
0.1199941103777999
  0
LINE
  5
76
330
2
100
AcDbEntity
  8
0
 62
     3
100
AcDbLine
 10
320.9830245868989
 20
204.5860181516308
 30
0.1199941103777999
 11
378.2264085258404
 21
204.5860181516308
 31
0.1199941103777999
  0
LINE
  5
77
330
2
100
AcDbEntity
  8
0
 62
     3
100
AcDbLine
 10
320.9830245868989
 20
215.0909571547531
 30
0.1199941103777999
 11
378.2264085258404
 21
215.0909571547531
 31
0.1199941103777999
  0
LINE
  5
78
330
2
100
AcDbEntity
  8
0
 62
     7
100
AcDbLine
 10
320.9830245868989
 20
216.8703177926099
 30
0.1199941103777999
 11
378.2264085258404
 21
216.8703177926099
 31
0.1199941103777999
  0
LINE
  5
79
330
2
100
AcDbEntity
  8
0
 62
     3
100
AcDbLine
 10
320.9830245868989
 20
194.0810791485243
 30
0.1199941103777999
 11
378.2264085258404
 21
194.0810791485243
 31
0.1199941103777999
  0
TEXT
  5
7A
330
2
100
AcDbEntity
  8
0
 62
     3
100
AcDbText
 10
324.2079943721293
 20
181.0130231839574
 30
0.1199941103777999
 40
0.6821388963060634
  1
DIMENSION QUADRANT IS TYPICAL FOR QUADRANTS, EXCEPT AS SHOWN
 41
0.9
  7
ROMANS
 72
     4
 11
341.251721938405
 21
181.2891270229385
 31
0.1199941103777999
100
AcDbText
  0
LINE
  5
7C
330
2
100
AcDbEntity
  8
0
 62
     3
100
AcDbLine
 10
320.9830245868989
 20
183.5761591385607
 30
0.1199941103777999
 11
378.2264085258404
 21
183.5761591385607
 31
0.1199941103777999
  0
TEXT
  5
7D
330
2
100
AcDbEntity
  8
0
 62
     3
100
AcDbText
 10
324.1344938987353
 20
182.4959957361348
 30
0.1199941103777999
 40
0.6821388963060634
  1
MAXIMUM RADIUS ON ALL CORNERS UNLESS OTHERWISE SPECIFIED
 41
0.9
  7
ROMANS
 72
     4
 11
339.8919024034054
 21
182.8370651842878
 31
0.1199941103777999
100
AcDbText
  0
LINE
  5
7E
330
2
100
AcDbEntity
  8
0
 62
     3
100
AcDbLine
 10
320.9830245868989
 20
189.5789705728256
 30
0.1199941103777999
 11
378.2264085258404
 21
189.5789705728256
 31
0.1199941103777999
  0
LINE
  5
7F
330
2
100
AcDbEntity
  8
0
 62
     3
100
AcDbLine
 10
320.9830245868989
 20
206.0867237235122
 30
0.1199941103777999
 11
378.2264085258404
 21
206.0867237235122
 31
0.1199941103777999
  0
LINE
  5
80
330
2
100
AcDbEntity
  8
0
 62
     7
100
AcDbLine
 10
320.9830245868989
 20
179.0740451362325
 30
0.1199941103777999
 11
378.2264085258404
 21
179.0740451362325
 31
0.1199941103777999
  0
TEXT
  5
81
330
2
100
AcDbEntity
  8
0
 62
     3
100
AcDbText
 10
321.7043843816094
 20
185.5063868541689
 30
0.1199941103777999
 40
0.6821388963060634
  1
17
 41
0.9
  7
ROMANS
 72
     4
 11
322.1429022435205
 21
185.847456302322
 31
0.1199941103777999
100
AcDbText
  0
TEXT
  5
82
330
2
100
AcDbEntity
  8
0
 62
     3
100
AcDbText
 10
321.7327298370893
 20
182.5009267748118
 30
0.1199941103777999
 40
0.6821388963060634
  1
19
 41
0.9
  7
ROMANS
 72
     4
 11
322.1566304369367
 21
182.8419962229649
 31
0.1199941103777999
100
AcDbText
  0
TEXT
  5
83
330
2
100
AcDbEntity
  8
0
 62
     3
100
AcDbText
 10
321.9519887680448
 20
212.5263272170937
 30
0.1199941103777999
 40
0.6821388963060634
  1
2
 41
0.9
  7
ROMANS
 72
     4
 11
322.1566304369367
 21
212.8673966652467
 31
0.1199941103777999
100
AcDbText
  0
TEXT
  5
84
330
2
100
AcDbEntity
  8
0
 62
     3
100
AcDbText
 10
321.9373715059812
 20
209.5135999354607
 30
0.1199941103777999
 40
0.6821388963060634
  1
4
 41
0.9
  7
ROMANS
 72
     4
 11
322.1566304369367
 21
209.8546693836137
 31
0.1199941103777999
100
AcDbText
  0
TEXT
  5
85
330
2
100
AcDbEntity
  8
0
 62
     3
100
AcDbText
 10
321.9519887680448
 20
211.0086474383815
 30
0.1199941103777999
 40
0.6821388963060634
  1
3
 41
0.9
  7
ROMANS
 72
     4
 11
322.1566304369367
 21
211.3497168865346
 31
0.1199941103777999
100
AcDbText
  0
TEXT
  5
86
330
2
100
AcDbEntity
  8
0
 62
     3
100
AcDbText
 10
321.9519887680448
 20
208.0807911909238
 30
0.1199941103777999
 40
0.6821388963060634
  1
5
 41
0.9
  7
ROMANS
 72
     4
 11
322.1566304369367
 21
208.4218606390768
 31
0.1199941103777999
100
AcDbText
  0
TEXT
  5
87
330
2
100
AcDbEntity
  8
0
 62
     3
100
AcDbText
 10
321.9666060301086
 20
206.5013935632765
 30
0.1199941103777999
 40
0.6821388963060634
  1
6
 41
0.9
  7
ROMANS
 72
     4
 11
322.1566304369367
 21
206.8424630114295
 31
0.1199941103777999
100
AcDbText
  0
TEXT
  5
88
330
2
100
AcDbEntity
  8
0
 62
     3
100
AcDbText
 10
321.9519887680448
 20
205.0114187262825
 30
0.1199941103777999
 40
0.6821388963060634
  1
7
 41
0.9
  7
ROMANS
 72
     4
 11
322.1566304369367
 21
205.3524881744355
 31
0.1199941103777999
100
AcDbText
  0
TEXT
  5
89
330
2
100
AcDbEntity
  8
0
 62
     3
100
AcDbText
 10
322.0166106478462
 20
202.0223357730898
 30
0.1199941103777999
 40
0.6821388963060634
  1
9
 41
0.9
  7
ROMANS
 72
     4
 11
322.2066350546743
 21
202.3634052212428
 31
0.1199941103777999
100
AcDbText
  0
TEXT
  5
8A
330
2
100
AcDbEntity
  8
0
 62
     3
100
AcDbText
 10
321.7681171927632
 20
200.5053182935549
 30
0.1199941103777999
 40
0.6821388963060634
  1
10
 41
0.9
  7
ROMANS
 72
     4
 11
322.2066350546743
 21
200.8463877417079
 31
0.1199941103777999
100
AcDbText
  0
TEXT
  5
8B
330
2
100
AcDbEntity
  8
0
 62
     3
100
AcDbText
 10
321.8359397401828
 20
199.0127686755162
 30
0.1199941103777999
 40
0.6821388963060634
  1
11
 41
0.9
  7
ROMANS
 72
     4
 11
322.1429022435205
 21
199.3538381236693
 31
0.1199941103777999
100
AcDbText
  0
TEXT
  5
8C
330
2
100
AcDbEntity
  8
0
 62
     3
100
AcDbText
 10
321.6091268199223
 20
197.5106045571532
 30
0.1199941103777999
 40
0.6821388963060634
  1
12
 41
0.9
  7
ROMANS
 72
     4
 11
322.0476446818334
 21
197.8516740053063
 31
0.1199941103777999
100
AcDbText
  0
TEXT
  5
8D
330
2
100
AcDbEntity
  8
0
 62
     3
100
AcDbText
 10
321.7043843816094
 20
196.0017430314429
 30
0.1199941103777999
 40
0.6821388963060634
  1
13
 41
0.9
  7
ROMANS
 72
     4
 11
322.1429022435205
 21
196.3428124795959
 31
0.1199941103777999
100
AcDbText
  0
TEXT
  5
8E
330
2
100
AcDbEntity
  8
0
 62
     3
100
AcDbText
 10
321.6897671195458
 20
194.5010374595771
 30
0.1199941103777999
 40
0.6821388963060634
  1
14
 41
0.9
  7
ROMANS
 72
     4
 11
322.1429022435205
 21
194.8421069077302
 31
0.1199941103777999
100
AcDbText
  0
TEXT
  5
8F
330
2
100
AcDbEntity
  8
0
 62
     3
100
AcDbText
 10
321.9519887680448
 20
203.5107131544141
 30
0.1199941103777999
 40
0.6821388963060634
  1
8
 41
0.9
  7
ROMANS
 72
     4
 11
322.1566304369367
 21
203.8517826025671
 31
0.1199941103777999
100
AcDbText
  0
TEXT
  5
90
330
2
100
AcDbEntity
  8
0
 62
     3
100
AcDbText
 10
322.0835441266182
 20
214.0270327889594
 30
0.1199941103777999
 40
0.6821388963060634
  1
1
 41
0.9
  7
ROMANS
 72
     4
 11
322.1566304369367
 21
214.3681022371124
 31
0.1199941103777999
100
AcDbText
  0
TEXT
  5
91
330
2
100
AcDbEntity
  8
0
 62
     3
100
AcDbText
 10
324.133658322284
 20
212.5417271797251
 30
0.1199941103777999
 40
0.6821388963060634
  1
PILOT HOLE DIAMETER
 41
0.9
  7
ROMANS
 72
     4
 11
329.2350827825158
 21
212.8827966278781
 31
0.1199941103777999
100
AcDbText
  0
TEXT
  5
92
330
2
100
AcDbEntity
  8
0
 62
     3
100
AcDbText
 10
324.1440420673467
 20
211.0093826085801
 30
0.1199941103777999
 40
0.6821388963060634
  1
EXTERNAL LEAD WIDTH
 41
0.9
  7
ROMANS
 72
     4
 11
329.4062564102792
 21
211.3504520567332
 31
0.1199941103777999
100
AcDbText
  0
TEXT
  5
93
330
2
100
AcDbEntity
  8
0
 62
     3
100
AcDbText
 10
324.161927793698
 20
209.5086770367124
 30
0.1199941103777999
 40
0.6821388963060634
  1
M TO M CLEARANCE AFTER ETCH
 41
0.9
  7
ROMANS
 72
     4
 11
332.0113975219056
 21
209.8497464848655
 31
0.1199941103777999
100
AcDbText
  0
TEXT
  5
94
330
2
100
AcDbEntity
  8
0
 62
     3
100
AcDbText
 10
324.17216357158
 20
208.0079714648332
 30
0.1199941103777999
 40
0.6821388963060634
  1
MIN. LEAD SPACE AFTER ETCH
 41
0.9
  7
ROMANS
 72
     4
 11
331.363856506921
 21
208.3490409129862
 31
0.1199941103777999
100
AcDbText
  0
TEXT
  5
95
330
2
100
AcDbEntity
  8
0
 62
     3
100
AcDbText
 10
324.1633795558155
 20
206.5072658929655
 30
0.1199941103777999
 40
0.6821388963060634
  1
MIN. LEAD SPACE AFTER PLATE
 41
0.9
  7
ROMANS
 72
     4
 11
331.6328004703669
 21
206.8483353411185
 31
0.1199941103777999
100
AcDbText
  0
TEXT
  5
96
330
2
100
AcDbEntity
  8
0
 62
     3
100
AcDbText
 10
324.0229080522535
 20
205.0065603210863
 30
0.1199941103777999
 40
0.6821388963060634
  1
CONNECTING BAR WIDTH
 41
0.9
  7
ROMANS
 72
     4
 11
329.6213194226512
 21
205.3476297692393
 31
0.1199941103777999
100
AcDbText
  0
TEXT
  5
97
330
2
100
AcDbEntity
  8
0
 62
     3
100
AcDbText
 10
332.0501468415276
 20
202.05324934918
 30
0.1199941103777999
 40
0.6821388963060634
  1
(TOP)
 41
0.9
  7
ROMANS
 72
     4
 11
333.2487623307512
 21
202.345594590454
 31
0.1199941103777999
100
AcDbText
  0
TEXT
  5
98
330
2
100
AcDbEntity
  8
0
 62
     3
100
AcDbText
 10
332.0694685023568
 20
200.5025872925759
 30
0.1199941103777999
 40
0.6821388963060634
  1
(BOTTOM)
 41
0.9
  7
ROMANS
 72
     4
 11
334.2035887636571
 21
200.7949325338499
 31
0.1199941103777999
100
AcDbText
  0
TEXT
  5
99
330
2
100
AcDbEntity
  8
0
 62
     3
100
AcDbText
 10
324.1554401891483
 20
202.0149187972661
 30
0.1199941103777999
 40
0.6821388963060634
  1
PAD SIZE (X,Y)
 41
0.9
  7
ROMANS
 72
     4
 11
327.6635830844366
 21
202.3072640385402
 31
0.1199941103777999
100
AcDbText
  0
TEXT
  5
9A
330
2
100
AcDbEntity
  8
0
 62
     3
100
AcDbText
 10
324.0961823837216
 20
200.5531678123506
 30
0.1199941103777999
 40
0.6821388963060634
  1
PAD SIZE (X,Y)
 41
0.9
  7
ROMANS
 72
     4
 11
327.6043252790099
 21
200.8455130536246
 31
0.1199941103777999
100
AcDbText
  0
TEXT
  5
9B
330
2
100
AcDbEntity
  8
0
 62
     3
100
AcDbText
 10
324.1442044994188
 20
199.0037380335922
 30
0.1199941103777999
 40
0.6821388963060634
  1
STRIP LENGTH
 41
0.9
  7
ROMANS
 72
     4
 11
327.3307676293057
 21
199.3448074817453
 31
0.1199941103777999
100
AcDbText
  0
TEXT
  5
9C
330
2
100
AcDbEntity
  8
0
 62
     3
100
AcDbText
 10
324.1447849229495
 20
197.5030324617245
 30
0.1199941103777999
 40
0.6821388963060634
  1
STRIP WIDTH
 41
0.9
  7
ROMANS
 72
     4
 11
326.9512992391802
 21
197.8441019098776
 31
0.1199941103777999
100
AcDbText
  0
TEXT
  5
9D
330
2
100
AcDbEntity
  8
0
 62
     3
100
AcDbText
 10
324.1722951544949
 20
196.0023268898453
 30
0.1199941103777999
 40
0.6821388963060634
  1
UNIT PITCH
 41
0.9
  7
ROMANS
 72
     4
 11
326.6718469673879
 21
196.3433963379983
 31
0.1199941103777999
100
AcDbText
  0
TEXT
  5
9E
330
2
100
AcDbEntity
  8
0
 62
     3
100
AcDbText
 10
324.1637108308084
 20
194.4960549246049
 30
0.1199941103777999
 40
0.6821388963060634
  1
CUMULATIVE PITCH
 41
0.9
  7
ROMANS
 72
     4
 11
328.4611858775366
 21
194.837124372758
 31
0.1199941103777999
100
AcDbText
  0
TEXT
  5
9F
330
2
100
AcDbEntity
  8
0
 62
     3
100
AcDbText
 10
324.0878812944051
 20
203.5058547492186
 30
0.1199941103777999
 40
0.6821388963060634
  1
HALF ETCHED DEPTH
 41
0.9
  7
ROMANS
 72
     4
 11
328.9115777754265
 21
203.8469241973716
 31
0.1199941103777999
100
AcDbText
  0
TEXT
  5
A0
330
2
100
AcDbEntity
  8
0
 62
     3
100
AcDbText
 10
335.874932796552
 20
211.135698568203
 30
0.1199941103777999
 40
0.6821388963060634
  1
(BOTTOM)
 41
0.9
  7
ROMANS
 72
     4
 11
338.0090530578523
 21
211.4280438094771
 31
0.1199941103777999
100
AcDbText
  0
TEXT
  5
A1
330
2
100
AcDbEntity
  8
0
 62
     3
100
AcDbText
 10
324.1388245207328
 20
214.0107937523271
 30
0.1199941103777999
 40
0.6821388963060634
  1
MATERIAL THICKNESS - 
 41
0.9
  7
ROMANS
 72
     4
 11
330.0588156565319
 21
214.3518632004802
 31
0.1199941103777999
100
AcDbText
  0
TEXT
  5
A2
330
2
100
AcDbEntity
  8
0
 62
     3
100
AcDbText
 10
336.1363666059483
 20
213.9370044268023
 30
0.1199941103777999
 40
0.6821388963060634
  1
A194FH
 41
0.9
  7
ROMANS
 72
     4
 11
337.7442654329555
 21
214.2780738749554
 31
0.1199941103777999
100
AcDbText
  0
LINE
  5
A3
330
2
100
AcDbEntity
  8
0
 62
     7
100
AcDbLine
 10
371.0052273089815
 20
182.07545627998
 30
0.1199941103777999
 11
371.0052273089815
 21
183.5761591385607
 31
0.1199941103777999
  0
LINE
  5
A4
330
2
100
AcDbEntity
  8
0
 62
     7
100
AcDbLine
 10
371.0052273089815
 20
185.0768619971262
 30
0.1199941103777999
 11
371.0052273089815
 21
186.5775648556938
 31
0.1199941103777999
  0
LINE
  5
A5
330
2
100
AcDbEntity
  8
0
 62
     7
100
AcDbLine
 10
371.0052273089815
 20
188.0782677142573
 30
0.1199941103777999
 11
371.0052273089815
 21
189.5789705728256
 31
0.1199941103777999
  0
LINE
  5
A6
330
2
100
AcDbEntity
  8
0
 62
     7
100
AcDbLine
 10
371.0052273089815
 20
189.5789705728256
 30
0.1199941103777999
 11
371.0052273089815
 21
216.8703177926099
 31
0.1199941103777999
  0
LINE
  5
A7
330
2
100
AcDbEntity
  8
0
 62
     7
100
AcDbLine
 10
363.7840460921227
 20
182.07545627998
 30
0.1199941103777999
 11
363.7840460921227
 21
183.5761591385607
 31
0.1199941103777999
  0
LINE
  5
A8
330
2
100
AcDbEntity
  8
0
 62
     7
100
AcDbLine
 10
363.7840460921227
 20
185.0768619971262
 30
0.1199941103777999
 11
363.7840460921227
 21
186.5775648556938
 31
0.1199941103777999
  0
LINE
  5
A9
330
2
100
AcDbEntity
  8
0
 62
     7
100
AcDbLine
 10
363.7840460921227
 20
188.0782677142573
 30
0.1199941103777999
 11
363.7840460921227
 21
189.5789705728256
 31
0.1199941103777999
  0
LINE
  5
AA
330
2
100
AcDbEntity
  8
0
 62
     7
100
AcDbLine
 10
363.7840460921227
 20
189.5789705728256
 30
0.1199941103777999
 11
363.7840460921227
 21
216.8703177926099
 31
0.1199941103777999
  0
LINE
  5
AB
330
2
100
AcDbEntity
  8
0
 62
     7
100
AcDbLine
 10
356.562864875256
 20
182.07545627998
 30
0.1199941103777999
 11
356.562864875256
 21
186.5775648556938
 31
0.1199941103777999
  0
LINE
  5
AC
330
2
100
AcDbEntity
  8
0
 62
     7
100
AcDbLine
 10
356.562864875256
 20
188.0782677142573
 30
0.1199941103777999
 11
356.562864875256
 21
189.5789705728256
 31
0.1199941103777999
  0
LINE
  5
AD
330
2
100
AcDbEntity
  8
0
 62
     7
100
AcDbLine
 10
356.562864875256
 20
189.5789705728256
 30
0.1199941103777999
 11
356.562864875256
 21
216.8703177926099
 31
0.1199941103777999
  0
TEXT
  5
AE
330
2
100
AcDbEntity
  8
0
 62
     3
100
AcDbText
 10
367.0933428531148
 20
182.5108385034296
 30
0.1199941103777999
 40
0.6821388963060634
  1
-
 41
0.9
  7
ROMANS
 72
     4
 11
367.3564535702614
 21
182.8031837447037
 31
0.1199941103777999
100
AcDbText
  0
TEXT
  5
AF
330
2
100
AcDbEntity
  8
0
 62
     3
100
AcDbText
 10
359.9920653548443
 20
182.5108385034296
 30
0.1199941103777999
 40
0.6821388963060634
  1
-
 41
0.9
  7
ROMANS
 72
     4
 11
360.2551760719909
 21
182.8031837447037
 31
0.1199941103777999
100
AcDbText
  0
TEXT
  5
B0
330
2
100
AcDbEntity
  8
0
 62
     3
100
AcDbText
 10
373.6440651940289
 20
182.4940838679199
 30
0.1199941103777999
 40
0.6821388963060634
  1
0.150
 41
0.9
  7
ROMANS
 72
     4
 11
374.8134461591249
 21
182.8351533160729
 31
0.1199941103777999
100
AcDbText
  0
TEXT
  5
B1
330
2
100
AcDbEntity
  8
0
 62
     3
100
AcDbText
 10
366.186077957328
 20
214.0088818841
 30
0.1199941103777999
 40
0.6821388963060634
  1
0.203
 41
0.9
  7
ROMANS
 72
     4
 11
367.4139279706789
 21
214.349951332253
 31
0.1199941103777999
100
AcDbText
  0
TEXT
  5
B2
330
2
100
AcDbEntity
  8
0
 62
     3
100
AcDbText
 10
366.2299297435191
 20
212.5081763122337
 30
0.1199941103777999
 40
0.6821388963060634
  1
1.524
 41
0.9
  7
ROMANS
 72
     4
 11
367.4139279706789
 21
212.8492457603867
 31
0.1199941103777999
100
AcDbText
  0
TEXT
  5
B3
330
2
100
AcDbEntity
  8
0
 62
     7
100
AcDbText
 10
366.0960925456874
 20
215.5130831164146
 30
0.1199941103777999
 40
0.8185666755672752
  1
NOM.
 41
0.9
  7
ROMANS
 72
     4
 11
367.3239425590383
 21
215.9223664541982
 31
0.1199941103777999
100
AcDbText
  0
TEXT
  5
B4
330
2
100
AcDbEntity
  8
0
 62
     3
100
AcDbText
 10
367.1370489387755
 20
209.5235198039924
 30
0.1199941103777999
 40
0.6821388963060634
  1
-
 41
0.9
  7
ROMANS
 72
     4
 11
367.4001596559221
 21
209.8158650452664
 31
0.1199941103777999
100
AcDbText
  0
TEXT
  5
B5
330
2
100
AcDbEntity
  8
0
 62
     3
100
AcDbText
 10
367.1370489387755
 20
208.0228142321131
 30
0.1199941103777999
 40
0.6821388963060634
  1
-
 41
0.9
  7
ROMANS
 72
     4
 11
367.4001596559221
 21
208.3151594733871
 31
0.1199941103777999
100
AcDbText
  0
TEXT
  5
B6
330
2
100
AcDbEntity
  8
0
 62
     3
100
AcDbText
 10
367.1370489387755
 20
206.5221086602448
 30
0.1199941103777999
 40
0.6821388963060634
  1
-
 41
0.9
  7
ROMANS
 72
     4
 11
367.4001596559221
 21
206.8144539015188
 31
0.1199941103777999
100
AcDbText
  0
TEXT
  5
B7
330
2
100
AcDbEntity
  8
0
 62
     3
100
AcDbText
 10
358.9648967404614
 20
206.5053540247398
 30
0.1199941103777999
 40
0.6821388963060634
  1
0.050
 41
0.9
  7
ROMANS
 72
     4
 11
360.1927467538124
 21
206.8464234728928
 31
0.1199941103777999
100
AcDbText
  0
TEXT
  5
B8
330
2
100
AcDbEntity
  8
0
 62
     3
100
AcDbText
 10
358.9648967404614
 20
208.006059596606
 30
0.1199941103777999
 40
0.6821388963060634
  1
0.060
 41
0.9
  7
ROMANS
 72
     4
 11
360.1927467538124
 21
208.3471290447591
 31
0.1199941103777999
100
AcDbText
  0
TEXT
  5
B9
330
2
100
AcDbEntity
  8
0
 62
     3
100
AcDbText
 10
358.9648967404614
 20
209.5067651684866
 30
0.1199941103777999
 40
0.6821388963060634
  1
0.060
 41
0.9
  7
ROMANS
 72
     4
 11
360.1927467538124
 21
209.8478346166396
 31
0.1199941103777999
100
AcDbText
  0
TEXT
  5
BA
330
2
100
AcDbEntity
  8
0
 62
     3
100
AcDbText
 10
359.0379830507799
 20
212.5081763122337
 30
0.1199941103777999
 40
0.6821388963060634
  1
1.499
 41
0.9
  7
ROMANS
 72
     4
 11
360.1927467538124
 21
212.8492457603867
 31
0.1199941103777999
100
AcDbText
  0
TEXT
  5
BB
330
2
100
AcDbEntity
  8
0
 62
     3
100
AcDbText
 10
359.0233657887162
 20
214.0088818841
 30
0.1199941103777999
 40
0.6821388963060634
  1
0.195
 41
0.9
  7
ROMANS
 72
     4
 11
360.1927467538124
 21
214.349951332253
 31
0.1199941103777999
100
AcDbText
  0
TEXT
  5
BC
330
2
100
AcDbEntity
  8
0
 62
     7
100
AcDbText
 10
359.3508699557454
 20
215.5206113610041
 30
0.1199941103777999
 40
0.8185666755672752
  1
MIN.
 41
0.9
  7
ROMANS
 72
     4
 11
360.3331499664262
 21
215.9298946987878
 31
0.1199941103777999
100
AcDbText
  0
TEXT
  5
BD
330
2
100
AcDbEntity
  8
0
 62
     3
100
AcDbText
 10
373.4803454844003
 20
212.5081763122337
 30
0.1199941103777999
 40
0.6821388963060634
  1
1.549
 41
0.9
  7
ROMANS
 72
     4
 11
374.6351091874327
 21
212.8492457603867
 31
0.1199941103777999
100
AcDbText
  0
TEXT
  5
BE
330
2
100
AcDbEntity
  8
0
 62
     3
100
AcDbText
 10
374.4916901652614
 20
209.5235198039924
 30
0.1199941103777999
 40
0.6821388963060634
  1
-
 41
0.9
  7
ROMANS
 72
     4
 11
374.754800882408
 21
209.8158650452664
 31
0.1199941103777999
100
AcDbText
  0
TEXT
  5
BF
330
2
100
AcDbEntity
  8
0
 62
     3
100
AcDbText
 10
374.4916901652614
 20
208.0228142321131
 30
0.1199941103777999
 40
0.6821388963060634
  1
-
 41
0.9
  7
ROMANS
 72
     4
 11
374.754800882408
 21
208.3151594733871
 31
0.1199941103777999
100
AcDbText
  0
TEXT
  5
C0
330
2
100
AcDbEntity
  8
0
 62
     3
100
AcDbText
 10
374.4916901652614
 20
206.5221086602448
 30
0.1199941103777999
 40
0.6821388963060634
  1
-
 41
0.9
  7
ROMANS
 72
     4
 11
374.754800882408
 21
206.8144539015188
 31
0.1199941103777999
100
AcDbText
  0
TEXT
  5
C1
330
2
100
AcDbEntity
  8
0
 62
     3
100
AcDbText
 10
373.5972835809099
 20
214.0088818841
 30
0.1199941103777999
 40
0.6821388963060634
  1
0.211
 41
0.9
  7
ROMANS
 72
     4
 11
374.6351091874327
 21
214.349951332253
 31
0.1199941103777999
100
AcDbText
  0
TEXT
  5
C2
330
2
100
AcDbEntity
  8
0
 62
     7
100
AcDbText
 10
373.6866261319834
 20
215.5281396055964
 30
0.1199941103777999
 40
0.8185666755672752
  1
MAX.
 41
0.9
  7
ROMANS
 72
     4
 11
374.8793947163814
 21
215.9374229433801
 31
0.1199941103777999
100
AcDbText
  0
TEXT
  5
C3
330
2
100
AcDbEntity
  8
0
 62
     3
100
AcDbText
 10
324.1965965117626
 20
185.4974014532794
 30
0.1199941103777999
 40
0.6821388963060634
  1
TAPE POSITION TOL.
 41
0.9
  7
ROMANS
 72
     4
 11
328.8448858480196
 21
185.8384709014325
 31
0.1199941103777999
100
AcDbText
  0
LINE
  5
C4
330
2
100
AcDbEntity
  8
0
 62
     7
100
AcDbLine
 10
320.9830245868989
 20
171.5705145635858
 30
0.1199941103777999
 11
320.9830245868989
 21
216.8703177926099
 31
0.1199941103777999
  0
TEXT
  5
C5
330
2
100
AcDbEntity
  8
0
 62
     3
100
AcDbText
 10
321.7181125750256
 20
184.0129403446613
 30
0.1199941103777999
 40
0.6821388963060634
  1
18
 41
0.9
  7
ROMANS
 72
     4
 11
322.1566304369367
 21
184.3540097928143
 31
0.1199941103777999
100
AcDbText
  0
LINE
  5
C6
330
2
100
AcDbEntity
  8
0
 62
     7
100
AcDbLine
 10
378.2264085258477
 20
171.5705145635858
 30
0.1199941103777999
 11
378.2264085258477
 21
216.8703177926099
 31
0.1199941103777999
  0
TEXT
  5
C7
330
2
100
AcDbEntity
  8
0
 62
     3
100
AcDbText
 10
341.2476079265136
 20
191.4235263695551
 30
0.1199941103777999
 40
0.6821388661388161
  1
: XL
 41
0.9
  7
ROMANS
 72
     4
 11
342.2123471800528
 21
191.7645958026245
 31
0.1199941103777999
100
AcDbText
  0
LINE
  5
C8
330
2
100
AcDbEntity
  8
0
 62
     3
100
AcDbLine
 10
323.3385810994906
 20
171.5705145635858
 30
0.1199941103777999
 11
323.3385810994906
 21
216.8703177926099
 31
0.1199941103777999
  0
TEXT
  5
C9
330
2
100
AcDbEntity
  8
0
 62
     3
100
AcDbText
 10
341.2183734036791
 20
190.0079782232745
 30
0.1199941103777999
 40
0.6821388661388161
  1
: YH
 41
0.9
  7
ROMANS
 72
     4
 11
342.2123471800528
 21
190.3490476563439
 31
0.1199941103777999
100
AcDbText
  0
TEXT
  5
CA
330
2
100
AcDbEntity
  8
0
 62
     3
100
AcDbText
 10
321.7043843816094
 20
193.0099038603015
 30
0.1199941103777999
 40
0.6821388963060634
  1
15
 41
0.9
  7
ROMANS
 72
     4
 11
322.1429022435205
 21
193.3509733084546
 31
0.1199941103777999
100
AcDbText
  0
TEXT
  5
CB
330
2
100
AcDbEntity
  8
0
 62
     3
100
AcDbText
 10
324.1645596621556
 20
193.0226410295497
 30
0.1199941103777999
 40
0.6821388661388161
  1
PLATING AREA (PKG CENTER REF.) : XR
 41
0.9
  7
ROMANS
 72
     4
 11
333.7388658904611
 21
193.3149862578949
 31
0.1199941103777999
100
AcDbText
  0
LINE
  5
CC
330
2
100
AcDbEntity
  8
0
 62
     3
100
AcDbLine
 10
320.9830245868989
 20
185.0768619971262
 30
0.1199941103777999
 11
378.2264085258404
 21
185.0768619971262
 31
0.1199941103777999
  0
LINE
  5
CD
330
2
100
AcDbEntity
  8
0
 62
     3
100
AcDbLine
 10
320.9830245868989
 20
186.5775648556938
 30
0.1199941103777999
 11
378.2264085258404
 21
186.5775648556938
 31
0.1199941103777999
  0
TEXT
  5
CE
330
2
100
AcDbEntity
  8
0
 62
     3
100
AcDbText
 10
341.2476079265136
 20
188.4576146227706
 30
0.1199941103777999
 40
0.6821388661388161
  1
: YL
 41
0.9
  7
ROMANS
 72
     4
 11
342.2123471800528
 21
188.79868405584
 31
0.1199941103777999
100
AcDbText
  0
TEXT
  5
CF
330
2
100
AcDbEntity
  8
0
 62
     3
100
AcDbText
 10
367.1370489791708
 20
193.0157693656356
 30
0.1199941103777999
 40
0.6821388969354345
  1
-
 41
0.9
  7
ROMANS
 72
     4
 11
367.4001596965601
 21
193.3081146071794
 31
0.1199941103777999
100
AcDbText
  0
TEXT
  5
D0
330
2
100
AcDbEntity
  8
0
 62
     3
100
AcDbText
 10
324.2881766834761
 20
187.0084513174654
 30
0.1199941103777999
 40
0.6821388661388161
  1
PLATING TO SILVER, AREA REFER TO SHT 4 OF 5.
 41
0.9
  7
ROMANS
 72
     4
 11
336.2597137842123
 21
187.2845551442359
 31
0.1199941103777999
100
AcDbText
  0
LINE
  5
D1
330
2
100
AcDbEntity
  8
0
 62
     3
100
AcDbLine
 10
320.9830245868989
 20
188.0782677142573
 30
0.1199941103777999
 11
378.2264085258404
 21
188.0782677142573
 31
0.1199941103777999
  0
LINE
  5
D2
330
2
100
AcDbEntity
  8
0
 62
     3
100
AcDbLine
 10
320.9830245868989
 20
182.07545627998
 30
0.1199941103777999
 11
378.2264085258404
 21
182.07545627998
 31
0.1199941103777999
  0
TEXT
  5
D3
330
2
100
AcDbEntity
  8
0
 62
     3
100
AcDbText
 10
324.2527686910983
 20
183.9966958814001
 30
0.1199941103777999
 40
0.6821388963060634
  1
TAPE MATERIAL
 41
0.9
  7
ROMANS
 72
     4
 11
327.8339978967052
 21
184.3377653295531
 31
0.1199941103777999
100
AcDbText
  0
TEXT
  5
D4
330
2
100
AcDbEntity
  8
0
 62
     3
100
AcDbText
 10
321.6459153333547
 20
180.9865557786396
 30
0.1199941103777999
 40
0.6821388963060634
  1
20
 41
0.9
  7
ROMANS
 72
     4
 11
322.1429022435205
 21
181.3276252267927
 31
0.1199941103777999
100
AcDbText
  0
TEXT
  5
D5
330
2
100
AcDbEntity
  8
0
 62
     3
100
AcDbText
 10
365.6013874747799
 20
199.0018261653644
 30
0.1199941103777999
 40
0.6821388963060655
  1
258.000
 41
0.9
  7
ROMANS
 72
     4
 11
367.4139279706789
 21
199.3428956135175
 31
0.1199941103777999
100
AcDbText
  0
TEXT
  5
D6
330
2
100
AcDbEntity
  8
0
 62
     3
100
AcDbText
 10
358.3802062579134
 20
199.0018261653644
 30
0.1199941103777999
 40
0.6821388963060655
  1
257.900
 41
0.9
  7
ROMANS
 72
     4
 11
360.1927467538124
 21
199.3428956135175
 31
0.1199941103777999
100
AcDbText
  0
TEXT
  5
D7
330
2
100
AcDbEntity
  8
0
 62
     3
100
AcDbText
 10
372.8810377397886
 20
199.0018261653644
 30
0.1199941103777999
 40
0.6821388963060655
  1
258.100
 41
0.9
  7
ROMANS
 72
     4
 11
374.6351091874327
 21
199.3428956135175
 31
0.1199941103777999
100
AcDbText
  0
TEXT
  5
D8
330
2
100
AcDbEntity
  8
0
 62
     3
100
AcDbText
 10
365.8937327160539
 20
197.5011205934989
 30
0.1199941103777999
 40
0.6821388963060655
  1
78.000
 41
0.9
  7
ROMANS
 72
     4
 11
367.4139279706789
 21
197.8421900416519
 31
0.1199941103777999
100
AcDbText
  0
TEXT
  5
D9
330
2
100
AcDbEntity
  8
0
 62
     3
100
AcDbText
 10
358.6725514991874
 20
197.5011205934989
 30
0.1199941103777999
 40
0.6821388963060655
  1
77.950
 41
0.9
  7
ROMANS
 72
     4
 11
360.1927467538124
 21
197.8421900416519
 31
0.1199941103777999
100
AcDbText
  0
TEXT
  5
DA
330
2
100
AcDbEntity
  8
0
 62
     3
100
AcDbText
 10
373.1149139328078
 20
197.5011205934989
 30
0.1199941103777999
 40
0.6821388963060655
  1
78.050
 41
0.9
  7
ROMANS
 72
     4
 11
374.6351091874327
 21
197.8421900416519
 31
0.1199941103777999
100
AcDbText
  0
LINE
  5
DB
330
2
100
AcDbEntity
  8
0
 62
     3
100
AcDbLine
 10
320.9830245868989
 20
179.0740424229193
 30
0.1199941103777999
 11
378.2264085258404
 21
179.0740424229193
 31
0.1199941103777999
  0
LINE
  5
DC
330
2
100
AcDbEntity
  8
0
 62
     3
100
AcDbLine
 10
320.9830245868989
 20
177.5975720185508
 30
0.1199941103777999
 11
378.2264085258404
 21
177.5975720185508
 31
0.1199941103777999
  0
TEXT
  5
DD
330
2
100
AcDbEntity
  8
0
 62
     3
100
AcDbText
 10
321.777470691928
 20
179.5191514017313
 30
0.1199941103777999
 40
0.6821388963060634
  1
21
 41
0.9
  7
ROMANS
 72
     4
 11
322.1429022435205
 21
179.8602208498843
 31
0.1199941103777999
100
AcDbText
  0
TEXT
  5
DE
330
2
100
AcDbEntity
  8
0
 62
     3
100
AcDbText
 10
324.2213027204631
 20
179.4260438475231
 30
0.1199941103777999
 40
0.6821388963060634
  1
GENERAL TOLERANCE SHOULD BE +/-0.050MM;
 41
0.9
  7
ROMANS
 72
     4
 11
335.5642980818953
 21
179.7183890887971
 31
0.1199941103777999
100
AcDbText
  0
TEXT
  5
DF
330
2
100
AcDbEntity
  8
0
 62
     3
100
AcDbText
 10
366.1363148713294
 20
210.9944153026543
 30
0.1199941103777999
 40
0.6821388963060655
  1
0.200
 41
0.9
  7
ROMANS
 72
     4
 11
367.3641648846804
 21
211.3354847508073
 31
0.1199941103777999
100
AcDbText
  0
TEXT
  5
E0
330
2
100
AcDbEntity
  8
0
 62
     3
100
AcDbText
 10
359.0976986880792
 20
210.9944153026543
 30
0.1199941103777999
 40
0.6821388963060655
  1
0.175
 41
0.9
  7
ROMANS
 72
     4
 11
360.2670796531754
 21
211.3354847508073
 31
0.1199941103777999
100
AcDbText
  0
TEXT
  5
E1
330
2
100
AcDbEntity
  8
0
 62
     3
100
AcDbText
 10
373.4288466346965
 20
210.9944153026543
 30
0.1199941103777999
 40
0.6821388963060655
  1
0.225
 41
0.9
  7
ROMANS
 72
     4
 11
374.6566966480474
 21
211.3354847508073
 31
0.1199941103777999
100
AcDbText
  0
TEXT
  5
E2
330
2
100
AcDbEntity
  8
0
 62
     3
100
AcDbText
 10
373.3968875253555
 20
203.5110465110837
 30
0.0197357844637839
 40
0.6821388963060655
  1
0.130
 41
0.9
  7
ROMANS
 72
     4
 11
374.5662684904516
 21
203.8521159592368
 31
0.0197357844637839
100
AcDbText
  0
TEXT
  5
E3
330
2
100
AcDbEntity
  8
0
 62
     3
100
AcDbText
 10
373.3384184771007
 20
204.9859624616218
 30
0.0197357844637839
 40
0.6821388963060655
  1
0.220
 41
0.9
  7
ROMANS
 72
     4
 11
374.5662684904516
 21
205.3270319097748
 31
0.0197357844637839
100
AcDbText
  0
TEXT
  5
E4
330
2
100
AcDbEntity
  8
0
 62
     3
100
AcDbText
 10
359.0266132107135
 20
203.5424666854583
 30
0.0197357844637839
 40
0.6821388963060655
  1
0.070
 41
0.9
  7
ROMANS
 72
     4
 11
360.2544632240644
 21
203.8835361336113
 31
0.0197357844637839
100
AcDbText
  0
TEXT
  5
E5
330
2
100
AcDbEntity
  8
0
 62
     3
100
AcDbText
 10
359.0850822589683
 20
205.0173826359941
 30
0.0197357844637839
 40
0.6821388963060655
  1
0.160
 41
0.9
  7
ROMANS
 72
     4
 11
360.2544632240644
 21
205.3584520841472
 31
0.0197357844637839
100
AcDbText
  0
TEXT
  5
E6
330
2
100
AcDbEntity
  8
0
 62
     3
100
AcDbText
 10
366.1686357891718
 20
203.5110465110837
 30
0.0197357844637839
 40
0.6821388963060655
  1
0.100
 41
0.9
  7
ROMANS
 72
     4
 11
367.3380167542679
 21
203.8521159592368
 31
0.0197357844637839
100
AcDbText
  0
TEXT
  5
E7
330
2
100
AcDbEntity
  8
0
 62
     3
100
AcDbText
 10
366.1686357891718
 20
204.9859624616218
 30
0.0197357844637839
 40
0.6821388963060655
  1
0.190
 41
0.9
  7
ROMANS
 72
     4
 11
367.3380167542679
 21
205.3270319097748
 31
0.0197357844637839
100
AcDbText
  0
MTEXT
  5
E8
330
2
100
AcDbEntity
  8
0
 62
     3
100
AcDbMText
 10
324.3279820265564
 20
178.818114408546
 30
0.103911753774926
 40
0.6821388963060634
 41
207.6666264018551
 46
0.0
 71
     1
 72
     5
  1
LOGO(HALF ETCH),{\fSimSun|b0|i0|c134|p2;刻字内容}:{\fSimSun|b0|i0|c134|p2;料号}-{\fSimSun|b0|i0|c134|p2;供应商名字。}({\fSimSun|b0|i0|c134|p2;料号以收到的订单料号为准},{\fSimSun|b0|i0|c134|p2;供应商名字取公司名字首字母})
  7
ROMANS
 73
     1
 44
1.0
  0
MTEXT
  5
E9
330
2
100
AcDbEntity
  8
0
 62
     3
100
AcDbMText
 10
322.1621504451935
 20
178.4171249537975
 30
0.1199941103777999
 40
0.6821388963060634
 41
0.3779466165683368
 46
0.0
 71
     5
 72
     1
  1
{\W0.9;22}
  7
ROMANS
 73
     1
 44
1.0
1001
CAXA_DRAFT_TXTSCALE
1041
4.752000000000003
  0
TEXT
  5
EB
330
2
100
AcDbEntity
  8
0
 62
     3
100
AcDbText
 10
367.1370489791708
 20
191.5150665070687
 30
0.1199941103777999
 40
0.6821388969354345
  1
-
 41
0.9
  7
ROMANS
 72
     4
 11
367.4001596965601
 21
191.8074117486125
 31
0.1199941103777999
100
AcDbText
  0
TEXT
  5
EC
330
2
100
AcDbEntity
  8
0
 62
     3
100
AcDbText
 10
367.1370489791708
 20
190.0143636485045
 30
0.1199941103777999
 40
0.6821388969354345
  1
-
 41
0.9
  7
ROMANS
 72
     4
 11
367.4001596965601
 21
190.3067088900483
 31
0.1199941103777999
100
AcDbText
  0
TEXT
  5
ED
330
2
100
AcDbEntity
  8
0
 62
     3
100
AcDbText
 10
367.1370489791708
 20
188.5136607899369
 30
0.1199941103777999
 40
0.6821388969354345
  1
-
 41
0.9
  7
ROMANS
 72
     4
 11
367.4001596965601
 21
188.8060060314806
 31
0.1199941103777999
100
AcDbText
  0
TEXT
  5
EE
330
2
100
AcDbEntity
  8
0
 62
     3
100
AcDbText
 10
367.1370489387755
 20
194.5164640852459
 30
0.1199941103777999
 40
0.6821388963060634
  1
-
 41
0.9
  7
ROMANS
 72
     4
 11
367.4001596559221
 21
194.80880932652
 31
0.1199941103777999
100
AcDbText
  0
TEXT
  5
EF
330
2
100
AcDbEntity
  8
0
 62
     3
100
AcDbText
 10
360.1421188680474
 20
194.5164640852459
 30
0.1199941103777999
 40
0.6821388963060634
  1
-
 41
0.9
  7
ROMANS
 72
     4
 11
360.405229585194
 21
194.80880932652
 31
0.1199941103777999
100
AcDbText
  0
TEXT
  5
F0
330
2
100
AcDbEntity
  8
0
 62
     3
100
AcDbText
 10
374.4916901652614
 20
194.5164640852459
 30
0.1199941103777999
 40
0.6821388963060634
  1
-
 41
0.9
  7
ROMANS
 72
     4
 11
374.754800882408
 21
194.80880932652
 31
0.1199941103777999
100
AcDbText
  0
TEXT
  5
F1
330
2
100
AcDbEntity
  8
0
 62
     3
100
AcDbText
 10
367.1370489387755
 20
196.0171696571252
 30
0.1199941103777999
 40
0.6821388963060634
  1
-
 41
0.9
  7
ROMANS
 72
     4
 11
367.4001596559221
 21
196.3095148983992
 31
0.1199941103777999
100
AcDbText
  0
TEXT
  5
F2
330
2
100
AcDbEntity
  8
0
 62
     3
100
AcDbText
 10
360.1421188680474
 20
196.0171696571252
 30
0.1199941103777999
 40
0.6821388963060634
  1
-
 41
0.9
  7
ROMANS
 72
     4
 11
360.405229585194
 21
196.3095148983992
 31
0.1199941103777999
100
AcDbText
  0
TEXT
  5
F3
330
2
100
AcDbEntity
  8
0
 62
     3
100
AcDbText
 10
374.4916901652614
 20
196.0171696571252
 30
0.1199941103777999
 40
0.6821388963060634
  1
-
 41
0.9
  7
ROMANS
 72
     4
 11
374.754800882408
 21
196.3095148983992
 31
0.1199941103777999
100
AcDbText
  0
TEXT
  5
F4
330
2
100
AcDbEntity
  8
0
 62
     3
100
AcDbText
 10
359.9158677623046
 20
193.0157693656356
 30
0.1199941103777999
 40
0.6821388969354345
  1
-
 41
0.9
  7
ROMANS
 72
     4
 11
360.178978479694
 21
193.3081146071794
 31
0.1199941103777999
100
AcDbText
  0
TEXT
  5
F5
330
2
100
AcDbEntity
  8
0
 62
     3
100
AcDbText
 10
359.9158677623046
 20
191.5150665070687
 30
0.1199941103777999
 40
0.6821388969354345
  1
-
 41
0.9
  7
ROMANS
 72
     4
 11
360.178978479694
 21
191.8074117486125
 31
0.1199941103777999
100
AcDbText
  0
TEXT
  5
F6
330
2
100
AcDbEntity
  8
0
 62
     3
100
AcDbText
 10
359.9158677623046
 20
190.0143636485045
 30
0.1199941103777999
 40
0.6821388969354345
  1
-
 41
0.9
  7
ROMANS
 72
     4
 11
360.178978479694
 21
190.3067088900483
 31
0.1199941103777999
100
AcDbText
  0
TEXT
  5
F7
330
2
100
AcDbEntity
  8
0
 62
     3
100
AcDbText
 10
359.9158677623046
 20
188.5136607899369
 30
0.1199941103777999
 40
0.6821388969354345
  1
-
 41
0.9
  7
ROMANS
 72
     4
 11
360.178978479694
 21
188.8060060314806
 31
0.1199941103777999
100
AcDbText
  0
TEXT
  5
F8
330
2
100
AcDbEntity
  8
0
 62
     3
100
AcDbText
 10
374.3582301960296
 20
193.0157693656356
 30
0.1199941103777999
 40
0.6821388969354345
  1
-
 41
0.9
  7
ROMANS
 72
     4
 11
374.621340913419
 21
193.3081146071794
 31
0.1199941103777999
100
AcDbText
  0
TEXT
  5
F9
330
2
100
AcDbEntity
  8
0
 62
     3
100
AcDbText
 10
374.3582301960296
 20
191.5150665070701
 30
0.1199941103777999
 40
0.6821388969354345
  1
-
 41
0.9
  7
ROMANS
 72
     4
 11
374.621340913419
 21
191.8074117486139
 31
0.1199941103777999
100
AcDbText
  0
TEXT
  5
FA
330
2
100
AcDbEntity
  8
0
 62
     3
100
AcDbText
 10
374.3582301960296
 20
190.0143636485045
 30
0.1199941103777999
 40
0.6821388969354345
  1
-
 41
0.9
  7
ROMANS
 72
     4
 11
374.621340913419
 21
190.3067088900483
 31
0.1199941103777999
100
AcDbText
  0
TEXT
  5
FB
330
2
100
AcDbEntity
  8
0
 62
     3
100
AcDbText
 10
374.3582301960296
 20
188.513660789939
 30
0.1199941103777999
 40
0.6821388969354345
  1
-
 41
0.9
  7
ROMANS
 72
     4
 11
374.621340913419
 21
188.8060060314828
 31
0.1199941103777999
100
AcDbText
  0
LINE
  5
FC
330
2
100
AcDbEntity
  8
0
 62
     3
100
AcDbLine
 10
320.9830245868989
 20
176.0726285658724
 30
0.1199941103777999
 11
378.2264085258404
 21
176.0726285658724
 31
0.1199941103777999
  0
MTEXT
  5
FD
102
{ACAD_XDICTIONARY
360
FE
102
}
330
2
100
AcDbEntity
  8
0
 62
     3
100
AcDbMText
 10
353.9062929602894
 20
174.5062219057135
 30
0.5112550246074953
 40
0.6821388963060634
 41
58.9140154647461
 46
0.0
 71
     5
 72
     1
  1
\pxql;{\f宋体|b0|i0|c134|p0;\W1;框架名称、料号-供应商名称、行列刻字，位置及大小要follow图纸\P\fSimSun|b0|i0|c134|p0;Leadframe name, part number-supplier, row and column number，Position and size should follow the drawing.}
  7
ROMANS
 73
     1
 44
1.0
  0
LINE
  5
FF
330
2
100
AcDbEntity
  8
0
 62
     3
100
AcDbLine
 10
320.9830245868989
 20
173.0712228487672
 30
0.1199941103777999
 11
378.2264085258477
 21
173.0712228487672
 31
0.1199941103777999
  0
MTEXT
  5
100
330
2
100
AcDbEntity
  8
0
 62
     1
100
AcDbMText
 10
334.6770585310608
 20
176.7950342777573
 30
0.1200000096580632
 40
0.6821388963060634
 41
22.96859155129558
 46
1.524943452678413
 71
     5
 72
     1
  1
{\f宋体|b0|i0|c134|p0;\W1;SURFACE TREATMENT: BROWN OXIDE ON TOP SIDE.}
  7
ROMANS
 73
     1
 44
1.0
1001
ACAD
1000
ACAD_MTEXT_DEFINED_HEIGHT_BEGIN
1070
    46
1040
1.524943452678413
1000
ACAD_MTEXT_DEFINED_HEIGHT_END
  0
TEXT
  5
101
330
2
100
AcDbEntity
  8
0
 62
     3
100
AcDbText
 10
321.6299385872755
 20
176.41391853992
 30
0.7679016656573122
 40
0.6821388963060634
  1
23
  7
ROMANS
 72
     4
 11
322.1821462652375
 21
176.754987988073
 31
0.7679016656573122
100
AcDbText
  0
TEXT
  5
102
330
2
100
AcDbEntity
  8
0
 62
     3
100
AcDbText
 10
321.6906768923665
 20
174.2819766541992
 30
0.7679016656573122
 40
0.6821388963060634
  1
24
  7
ROMANS
 72
     4
 11
322.2591259726215
 21
174.6230461023523
 31
0.7679016656573122
100
AcDbText
  0
TEXT
  5
103
330
2
100
AcDbEntity
  8
0
 62
     3
100
AcDbText
 10
321.7190016436731
 20
187.0070897127365
 30
0.1199941103777999
 40
0.6821388963060634
  1
16
 41
0.9
  7
ROMANS
 72
     4
 11
322.1429022435205
 21
187.3481591608896
 31
0.1199941103777999
100
AcDbText
  0
LINE
  5
104
330
2
100
AcDbEntity
  8
0
 62
     7
100
AcDbLine
 10
320.9830245868989
 20
171.5705145635858
 30
0.1199941103777999
 11
378.2264085258404
 21
171.5705145635858
 31
0.1199941103777999
  0
MTEXT
  5
105
330
2
100
AcDbEntity
  8
0
 62
     3
100
AcDbMText
 10
322.2689330963167
 20
172.281867090703
 30
1.060622250968004
 40
0.6821388963060634
 41
0.8436308405543226
 46
0.5467977670267887
 71
     5
 72
     1
  1
{\W0.9;25}
  7
ROMANS
 73
     1
 44
1.0
1001
CAXA_DRAFT_TXTSCALE
1041
7.425000000000001
1001
ACAD
1000
ACAD_MTEXT_DEFINED_HEIGHT_BEGIN
1070
    46
1040
0.5467977670267887
1000
ACAD_MTEXT_DEFINED_HEIGHT_END
  0
MTEXT
  5
106
330
2
100
AcDbEntity
  8
0
 62
     3
100
AcDbMText
 10
324.4485960687855
 20
172.619013857049
 30
1.060622250968004
 40
0.6821388963060634
 41
0.0
 46
0.0
 71
     1
 72
     1
  1
PRODUCT CLASSIFICATION: NA
  7
ROMANS
 73
     1
 44
1.0
  0
TEXT
  5
107
330
2
100
AcDbEntity
  8
0
 62
     3
100
AcDbText
 10
359.8023313303325
 20
200.3332274571454
 30
-0.015212795840297
 40
0.6821388963060655
  1
-
 41
0.9
  7
ROMANS
 72
     4
 11
360.0654420474791
 21
200.6255726984194
 31
-0.015212795840297
100
AcDbText
  0
TEXT
  5
108
330
2
100
AcDbEntity
  8
0
 62
     3
100
AcDbText
 10
367.0171031791515
 20
200.3973423561153
 30
-0.015212795840297
 40
0.6821388963060655
  1
-
 41
0.9
  7
ROMANS
 72
     4
 11
367.2802138962982
 21
200.6896875973893
 31
-0.015212795840297
100
AcDbText
  0
TEXT
  5
109
330
2
100
AcDbEntity
  8
0
 62
     3
100
AcDbText
 10
374.2588032855401
 20
200.4563280631677
 30
-0.015212795840297
 40
0.6821388963060655
  1
-
 41
0.9
  7
ROMANS
 72
     4
 11
374.5219140026867
 21
200.7486733044417
 31
-0.015212795840297
100
AcDbText
  0
TEXT
  5
10A
330
2
100
AcDbEntity
  8
0
 62
     3
100
AcDbText
 10
356.7340134764898
 20
201.975194283358
 30
-0.015212795840297
 40
0.48
  1
2.81*4.75/2.19*1.975/2.19*2.575
 41
0.55
  7
ROMANS
 72
     4
 11
360.0654420479183
 21
202.1809085690723
 31
-0.015212795840297
100
AcDbText
  0
TEXT
  5
10B
330
2
100
AcDbEntity
  8
0
 62
     3
100
AcDbText
 10
363.942898989761
 20
202.0438179962814
 30
-0.015212795840297
 40
0.48
  1
2.86*4.80/2.24*2.025/2.24*2.625
 41
0.55
  7
ROMANS
 72
     4
 11
367.374898989761
 21
202.2495322819957
 31
-0.015212795840297
100
AcDbText
  0
TEXT
  5
10C
330
2
100
AcDbEntity
  8
0
 62
     3
100
AcDbText
 10
371.1150568602694
 20
202.0982948893803
 30
-0.015212795840297
 40
0.48
  1
2.91*4.85/2.29*2.075/2.29*2.675
 41
0.55
  7
ROMANS
 72
     4
 11
374.5219140031265
 21
202.3040091750946
 31
-0.015212795840297
100
AcDbText
  0
TEXT
  5
10D
330
2
100
AcDbEntity
  8
0
 62
     3
100
AcDbText
 10
364.0975397041509
 20
183.9381943941333
 30
0.4012074003639583
 40
0.7054043993618148
  1
PS-1030-05D
 41
0.9
  7
ROMANS
 72
     4
 11
367.4683650125299
 21
184.2908965938142
 31
0.4012074003639583
100
AcDbText
  0
TEXT
  5
10E
330
2
100
AcDbEntity
  8
0
 62
     3
100
AcDbText
 10
366.3951977713004
 20
185.602275104676
 30
0.295716737575642
 40
0.7054043993618148
  1
72.00
 41
0.9
  7
ROMANS
 72
     4
 11
367.6649256901517
 21
185.9549773043569
 31
0.295716737575642
100
AcDbText
  0
TEXT
  5
10F
330
2
100
AcDbEntity
  8
0
 62
     3
100
AcDbText
 10
358.9881891657356
 20
185.6022751037592
 30
0.295716737575642
 40
0.7054043993618148
  1
71.50
 41
0.9
  7
ROMANS
 72
     4
 11
360.1974538503558
 21
185.9549773034401
 31
0.295716737575642
100
AcDbText
  0
TEXT
  5
110
330
2
100
AcDbEntity
  8
0
 62
     3
100
AcDbText
 10
373.8626696110878
 20
185.602275104676
 30
0.295716737575642
 40
0.7054043993618148
  1
72.50
 41
0.9
  7
ROMANS
 72
     4
 11
375.1323975299391
 21
185.9549773043569
 31
0.295716737575642
100
AcDbText
  0
ENDSEC
  0
SECTION
  2
OBJECTS
  0
DICTIONARY
  5
B
330
0
100
AcDbDictionary
281
     1
  3
ACAD_COLOR
350
32
  3
ACAD_GROUP
350
2D
  3
ACAD_LAYOUT
350
11
  3
ACAD_MATERIAL
350
D
  3
ACAD_MLEADERSTYLE
350
35
  3
ACAD_MLINESTYLE
350
2E
  3
ACAD_PLOTSETTINGS
350
2F
  3
ACAD_PLOTSTYLENAME
350
A
  3
ACAD_SCALELIST
350
33
  3
ACAD_TABLESTYLE
350
34
  3
ACAD_VISUALSTYLE
350
26
  3
ACDB_RECOMPOSE_DATA
350
115
  3
AcDbVariableDictionary
350
36
  0
DICTIONARY
  5
28
330
23
100
AcDbDictionary
280
     1
281
     1
  0
DICTIONARY
  5
18
330
17
100
AcDbDictionary
280
     1
281
     1
  3
ACAD_LAYERSTATES
360
19
  0
DICTIONARY
  5
7
330
6
100
AcDbDictionary
280
     1
281
     1
  3
ADSK_XREC_LAYER_RECONCILED
360
8
  0
DICTIONARY
  5
3
330
2
100
AcDbDictionary
280
     1
281
     1
  3
ACAD_SORTENTS
360
111
  0
DICTIONARY
  5
FE
330
FD
100
AcDbDictionary
280
     1
281
     1
  0
DICTIONARY
  5
32
102
{ACAD_REACTORS
330
B
102
}
330
B
100
AcDbDictionary
281
     1
  0
DICTIONARY
  5
2D
102
{ACAD_REACTORS
330
B
102
}
330
B
100
AcDbDictionary
281
     1
  0
DICTIONARY
  5
11
102
{ACAD_REACTORS
330
B
102
}
330
B
100
AcDbDictionary
281
     1
  3
Model
350
10
  3
布局1
350
16
  0
DICTIONARY
  5
D
102
{ACAD_REACTORS
330
B
102
}
330
B
100
AcDbDictionary
281
     1
  3
ByBlock
350
31
  3
ByLayer
350
30
  3
Global
350
C
  0
DICTIONARY
  5
35
102
{ACAD_REACTORS
330
B
102
}
330
B
100
AcDbDictionary
281
     1
  0
DICTIONARY
  5
2E
102
{ACAD_REACTORS
330
B
102
}
330
B
100
AcDbDictionary
281
     1
  3
Standard
350
42
  0
DICTIONARY
  5
2F
102
{ACAD_REACTORS
330
B
102
}
330
B
100
AcDbDictionary
281
     1
  0
ACDBDICTIONARYWDFLT
  5
A
102
{ACAD_REACTORS
330
B
102
}
330
B
100
AcDbDictionary
281
     1
  3
Normal
350
9
100
AcDbDictionaryWithDefault
340
9
  0
DICTIONARY
  5
33
102
{ACAD_REACTORS
330
B
102
}
330
B
100
AcDbDictionary
281
     1
  3
A0
350
47
  3
A1
350
48
  3
A2
350
49
  3
A3
350
4A
  3
A4
350
4B
  3
A5
350
4C
  3
A6
350
4D
  3
A7
350
4E
  3
A8
350
4F
  3
A9
350
50
  3
B0
350
51
  3
B1
350
52
  3
B2
350
53
  3
B3
350
54
  3
B4
350
55
  3
B5
350
56
  3
B6
350
57
  3
B7
350
58
  3
B8
350
59
  3
B9
350
5A
  3
C0
350
5B
  3
C1
350
5C
  3
C2
350
5D
  3
C3
350
5E
  3
C4
350
5F
  3
C5
350
60
  3
C6
350
61
  3
C7
350
62
  3
C8
350
63
  3
C9
350
64
  3
D0
350
65
  3
D1
350
66
  3
D2
350
67
  0
DICTIONARY
  5
34
102
{ACAD_REACTORS
330
B
102
}
330
B
100
AcDbDictionary
281
     1
  3
Standard
350
43
  0
DICTIONARY
  5
26
102
{ACAD_REACTORS
330
B
102
}
330
B
100
AcDbDictionary
281
     1
  3
2dWireframe
350
25
  3
Realistic
350
45
  3
Wireframe
350
46
  0
XRECORD
  5
115
102
{ACAD_REACTORS
330
B
102
}
330
B
100
AcDbXrecord
280
     1
 90
        1
330
43
  0
DICTIONARY
  5
36
102
{ACAD_REACTORS
330
B
102
}
330
B
100
AcDbDictionary
281
     1
  3
CANNOSCALE
350
37
  3
CMLEADERSTYLE
350
38
  3
CTABLESTYLE
350
39
  3
CVIEWDETAILSTYLE
350
3A
  3
CVIEWSECTIONSTYLE
350
3B
  3
DIMASSOC
350
3C
  3
HIDETEXT
350
3D
  3
LAYEREVAL
350
3E
  3
LAYERNOTIFY
350
3F
  3
LIGHTINGUNITS
350
40
  3
MSLTSCALE
350
41
  0
DICTIONARY
  5
19
102
{ACAD_REACTORS
330
18
102
}
330
18
100
AcDbDictionary
281
     1
  0
XRECORD
  5
8
102
{ACAD_REACTORS
330
7
102
}
330
7
100
AcDbXrecord
280
     1
290
     1
  0
SORTENTSTABLE
  5
111
102
{ACAD_REACTORS
330
3
102
}
330
3
100
AcDbSortentsTable
330
2
  0
LAYOUT
  5
10
102
{ACAD_XDICTIONARY
360
12
102
}
102
{ACAD_REACTORS
330
11
102
}
330
11
100
AcDbPlotSettings
  1

  2
none_device
  4
Letter_(8.50_x_11.00_Inches)
  6

 40
6.349999904632567
 41
6.349999904632567
 42
6.350006103515625
 43
6.350006103515625
 44
215.8999938964844
 45
279.3999938964844
 46
0.0
 47
0.0
 48
0.0
 49
0.0
140
0.0
141
0.0
142
1.0
143
3.856645880694191
 70
 11952
 72
     0
 73
     0
 74
     0
  7

 75
     0
147
0.2592926680164893
 76
     0
 77
     2
 78
   300
148
0.0579160791065316
149
0.0376503347311434
100
AcDbLayout
  1
Model
 70
     1
 71
     0
 10
0.0
 20
0.0
 11
12.0
 21
9.0
 12
0.0
 22
0.0
 32
0.0
 14
0.0
 24
0.0
 34
0.0
 15
12.0
 25
9.0
 35
0.0
146
0.0
 13
0.0
 23
0.0
 33
0.0
 16
1.0
 26
0.0
 36
0.0
 17
0.0
 27
1.0
 37
0.0
 76
     0
330
2
331
24
  0
LAYOUT
  5
16
102
{ACAD_REACTORS
330
11
102
}
330
11
100
AcDbPlotSettings
  1

  2
Microsoft XPS Document Writer#:1
  4

  6

 40
0.0
 41
0.0
 42
0.0
 43
0.0
 44
0.0
 45
0.0
 46
0.0
 47
0.0
 48
0.0
 49
0.0
140
0.0
141
0.0
142
1.0
143
1.0
 70
   688
 72
     0
 73
     0
 74
     5
  7

 75
    16
147
1.0
 76
     0
 77
     2
 78
   300
148
0.0
149
0.0
100
AcDbLayout
  1
布局1
 70
     1
 71
     1
 10
0.0
 20
0.0
 11
12.0
 21
9.0
 12
0.0
 22
0.0
 32
0.0
 14
0.0
 24
0.0
 34
0.0
 15
0.0
 25
0.0
 35
0.0
146
0.0
 13
0.0
 23
0.0
 33
0.0
 16
1.0
 26
0.0
 36
0.0
 17
0.0
 27
1.0
 37
0.0
 76
     0
330
13
  0
MATERIAL
  5
31
102
{ACAD_REACTORS
330
D
102
}
330
D
100
AcDbMaterial
  1
ByBlock
 72
     0
 43
0.0208333333333333
 43
0.0
 43
0.0
 43
0.0
 43
0.0
 43
0.0208333333333333
 43
0.0
 43
0.0
 43
0.0
 43
0.0
 43
1.0
 43
0.0
 43
0.0
 43
0.0
 43
0.0
 43
1.0
 77
     0
 47
0.0208333333333333
 47
0.0
 47
0.0
 47
0.0
 47
0.0
 47
0.0208333333333333
 47
0.0
 47
0.0
 47
0.0
 47
0.0
 47
1.0
 47
0.0
 47
0.0
 47
0.0
 47
0.0
 47
1.0
171
     0
 49
0.0208333333333333
 49
0.0
 49
0.0
 49
0.0
 49
0.0
 49
0.0208333333333333
 49
0.0
 49
0.0
 49
0.0
 49
0.0
 49
1.0
 49
0.0
 49
0.0
 49
0.0
 49
0.0
 49
1.0
175
     0
142
0.0208333333333333
142
0.0
142
0.0
142
0.0
142
0.0
142
0.0208333333333333
142
0.0
142
0.0
142
0.0
142
0.0
142
1.0
142
0.0
142
0.0
142
0.0
142
0.0
142
1.0
179
     0
144
0.0208333333333333
144
0.0
144
0.0
144
0.0
144
0.0
144
0.0208333333333333
144
0.0
144
0.0
144
0.0
144
0.0
144
1.0
144
0.0
144
0.0
144
0.0
144
0.0
144
1.0
147
0.0208333333333333
147
0.0
147
0.0
147
0.0
147
0.0
147
0.0208333333333333
147
0.0
147
0.0
147
0.0
147
0.0
147
1.0
147
0.0
147
0.0
147
0.0
147
0.0
147
1.0
  0
MATERIAL
  5
30
102
{ACAD_REACTORS
330
D
102
}
330
D
100
AcDbMaterial
  1
ByLayer
 72
     0
 43
0.0208333333333333
 43
0.0
 43
0.0
 43
0.0
 43
0.0
 43
0.0208333333333333
 43
0.0
 43
0.0
 43
0.0
 43
0.0
 43
1.0
 43
0.0
 43
0.0
 43
0.0
 43
0.0
 43
1.0
 77
     0
 47
0.0208333333333333
 47
0.0
 47
0.0
 47
0.0
 47
0.0
 47
0.0208333333333333
 47
0.0
 47
0.0
 47
0.0
 47
0.0
 47
1.0
 47
0.0
 47
0.0
 47
0.0
 47
0.0
 47
1.0
171
     0
 49
0.0208333333333333
 49
0.0
 49
0.0
 49
0.0
 49
0.0
 49
0.0208333333333333
 49
0.0
 49
0.0
 49
0.0
 49
0.0
 49
1.0
 49
0.0
 49
0.0
 49
0.0
 49
0.0
 49
1.0
175
     0
142
0.0208333333333333
142
0.0
142
0.0
142
0.0
142
0.0
142
0.0208333333333333
142
0.0
142
0.0
142
0.0
142
0.0
142
1.0
142
0.0
142
0.0
142
0.0
142
0.0
142
1.0
179
     0
144
0.0208333333333333
144
0.0
144
0.0
144
0.0
144
0.0
144
0.0208333333333333
144
0.0
144
0.0
144
0.0
144
0.0
144
1.0
144
0.0
144
0.0
144
0.0
144
0.0
144
1.0
147
0.0208333333333333
147
0.0
147
0.0
147
0.0
147
0.0
147
0.0208333333333333
147
0.0
147
0.0
147
0.0
147
0.0
147
1.0
147
0.0
147
0.0
147
0.0
147
0.0
147
1.0
  0
MATERIAL
  5
C
102
{ACAD_REACTORS
330
D
102
}
330
D
100
AcDbMaterial
  1
Global
 72
     0
 43
0.0208333333333333
 43
0.0
 43
0.0
 43
0.0
 43
0.0
 43
0.0208333333333333
 43
0.0
 43
0.0
 43
0.0
 43
0.0
 43
1.0
 43
0.0
 43
0.0
 43
0.0
 43
0.0
 43
1.0
 77
     0
 47
0.0208333333333333
 47
0.0
 47
0.0
 47
0.0
 47
0.0
 47
0.0208333333333333
 47
0.0
 47
0.0
 47
0.0
 47
0.0
 47
1.0
 47
0.0
 47
0.0
 47
0.0
 47
0.0
 47
1.0
171
     0
 49
0.0208333333333333
 49
0.0
 49
0.0
 49
0.0
 49
0.0
 49
0.0208333333333333
 49
0.0
 49
0.0
 49
0.0
 49
0.0
 49
1.0
 49
0.0
 49
0.0
 49
0.0
 49
0.0
 49
1.0
175
     0
142
0.0208333333333333
142
0.0
142
0.0
142
0.0
142
0.0
142
0.0208333333333333
142
0.0
142
0.0
142
0.0
142
0.0
142
1.0
142
0.0
142
0.0
142
0.0
142
0.0
142
1.0
179
     0
144
0.0208333333333333
144
0.0
144
0.0
144
0.0
144
0.0
144
0.0208333333333333
144
0.0
144
0.0
144
0.0
144
0.0
144
1.0
144
0.0
144
0.0
144
0.0
144
0.0
144
1.0
147
0.0208333333333333
147
0.0
147
0.0
147
0.0
147
0.0
147
0.0208333333333333
147
0.0
147
0.0
147
0.0
147
0.0
147
1.0
147
0.0
147
0.0
147
0.0
147
0.0
147
1.0
  0
MLINESTYLE
  5
42
102
{ACAD_REACTORS
330
2E
102
}
330
2E
100
AcDbMlineStyle
  2
STANDARD
 70
     0
  3

 62
   256
 51
90.0
 52
90.0
 71
     2
 49
0.5
 62
   256
  6
BYLAYER
 49
-0.5
 62
   256
  6
BYLAYER
  0
ACDBPLACEHOLDER
  5
9
102
{ACAD_REACTORS
330
A
102
}
330
A
  0
SCALE
  5
47
102
{ACAD_REACTORS
330
33
102
}
330
33
100
AcDbScale
 70
     0
300
1:1
140
1.0
141
1.0
290
     1
  0
SCALE
  5
48
102
{ACAD_REACTORS
330
33
102
}
330
33
100
AcDbScale
 70
     0
300
1:2
140
1.0
141
2.0
290
     0
  0
SCALE
  5
49
102
{ACAD_REACTORS
330
33
102
}
330
33
100
AcDbScale
 70
     0
300
1:4
140
1.0
141
4.0
290
     0
  0
SCALE
  5
4A
102
{ACAD_REACTORS
330
33
102
}
330
33
100
AcDbScale
 70
     0
300
1:5
140
1.0
141
5.0
290
     0
  0
SCALE
  5
4B
102
{ACAD_REACTORS
330
33
102
}
330
33
100
AcDbScale
 70
     0
300
1:8
140
1.0
141
8.0
290
     0
  0
SCALE
  5
4C
102
{ACAD_REACTORS
330
33
102
}
330
33
100
AcDbScale
 70
     0
300
1:10
140
1.0
141
10.0
290
     0
  0
SCALE
  5
4D
102
{ACAD_REACTORS
330
33
102
}
330
33
100
AcDbScale
 70
     0
300
1:16
140
1.0
141
16.0
290
     0
  0
SCALE
  5
4E
102
{ACAD_REACTORS
330
33
102
}
330
33
100
AcDbScale
 70
     0
300
1:20
140
1.0
141
20.0
290
     0
  0
SCALE
  5
4F
102
{ACAD_REACTORS
330
33
102
}
330
33
100
AcDbScale
 70
     0
300
1:30
140
1.0
141
30.0
290
     0
  0
SCALE
  5
50
102
{ACAD_REACTORS
330
33
102
}
330
33
100
AcDbScale
 70
     0
300
1:40
140
1.0
141
40.0
290
     0
  0
SCALE
  5
51
102
{ACAD_REACTORS
330
33
102
}
330
33
100
AcDbScale
 70
     0
300
1:50
140
1.0
141
50.0
290
     0
  0
SCALE
  5
52
102
{ACAD_REACTORS
330
33
102
}
330
33
100
AcDbScale
 70
     0
300
1:100
140
1.0
141
100.0
290
     0
  0
SCALE
  5
53
102
{ACAD_REACTORS
330
33
102
}
330
33
100
AcDbScale
 70
     0
300
2:1
140
2.0
141
1.0
290
     0
  0
SCALE
  5
54
102
{ACAD_REACTORS
330
33
102
}
330
33
100
AcDbScale
 70
     0
300
4:1
140
4.0
141
1.0
290
     0
  0
SCALE
  5
55
102
{ACAD_REACTORS
330
33
102
}
330
33
100
AcDbScale
 70
     0
300
8:1
140
8.0
141
1.0
290
     0
  0
SCALE
  5
56
102
{ACAD_REACTORS
330
33
102
}
330
33
100
AcDbScale
 70
     0
300
10:1
140
10.0
141
1.0
290
     0
  0
SCALE
  5
57
102
{ACAD_REACTORS
330
33
102
}
330
33
100
AcDbScale
 70
     0
300
100:1
140
100.0
141
1.0
290
     0
  0
SCALE
  5
58
102
{ACAD_REACTORS
330
33
102
}
330
33
100
AcDbScale
 70
     0
300
1/128" = 1'-0"
140
0.0078125
141
12.0
290
     0
  0
SCALE
  5
59
102
{ACAD_REACTORS
330
33
102
}
330
33
100
AcDbScale
 70
     0
300
1/64" = 1'-0"
140
0.015625
141
12.0
290
     0
  0
SCALE
  5
5A
102
{ACAD_REACTORS
330
33
102
}
330
33
100
AcDbScale
 70
     0
300
1/32" = 1'-0"
140
0.03125
141
12.0
290
     0
  0
SCALE
  5
5B
102
{ACAD_REACTORS
330
33
102
}
330
33
100
AcDbScale
 70
     0
300
1/16" = 1'-0"
140
0.0625
141
12.0
290
     0
  0
SCALE
  5
5C
102
{ACAD_REACTORS
330
33
102
}
330
33
100
AcDbScale
 70
     0
300
3/32" = 1'-0"
140
0.09375
141
12.0
290
     0
  0
SCALE
  5
5D
102
{ACAD_REACTORS
330
33
102
}
330
33
100
AcDbScale
 70
     0
300
1/8" = 1'-0"
140
0.125
141
12.0
290
     0
  0
SCALE
  5
5E
102
{ACAD_REACTORS
330
33
102
}
330
33
100
AcDbScale
 70
     0
300
3/16" = 1'-0"
140
0.1875
141
12.0
290
     0
  0
SCALE
  5
5F
102
{ACAD_REACTORS
330
33
102
}
330
33
100
AcDbScale
 70
     0
300
1/4" = 1'-0"
140
0.25
141
12.0
290
     0
  0
SCALE
  5
60
102
{ACAD_REACTORS
330
33
102
}
330
33
100
AcDbScale
 70
     0
300
3/8" = 1'-0"
140
0.375
141
12.0
290
     0
  0
SCALE
  5
61
102
{ACAD_REACTORS
330
33
102
}
330
33
100
AcDbScale
 70
     0
300
1/2" = 1'-0"
140
0.5
141
12.0
290
     0
  0
SCALE
  5
62
102
{ACAD_REACTORS
330
33
102
}
330
33
100
AcDbScale
 70
     0
300
3/4" = 1'-0"
140
0.75
141
12.0
290
     0
  0
SCALE
  5
63
102
{ACAD_REACTORS
330
33
102
}
330
33
100
AcDbScale
 70
     0
300
1" = 1'-0"
140
1.0
141
12.0
290
     0
  0
SCALE
  5
64
102
{ACAD_REACTORS
330
33
102
}
330
33
100
AcDbScale
 70
     0
300
1-1/2" = 1'-0"
140
1.5
141
12.0
290
     0
  0
SCALE
  5
65
102
{ACAD_REACTORS
330
33
102
}
330
33
100
AcDbScale
 70
     0
300
3" = 1'-0"
140
3.0
141
12.0
290
     0
  0
SCALE
  5
66
102
{ACAD_REACTORS
330
33
102
}
330
33
100
AcDbScale
 70
     0
300
6" = 1'-0"
140
6.0
141
12.0
290
     0
  0
SCALE
  5
67
102
{ACAD_REACTORS
330
33
102
}
330
33
100
AcDbScale
 70
     0
300
1'-0" = 1'-0"
140
12.0
141
12.0
290
     0
  0
TABLESTYLE
  5
43
102
{ACAD_XDICTIONARY
360
44
102
}
102
{ACAD_REACTORS
330
34
102
}
330
34
100
AcDbTableStyle
280
     0
  3
Standard
 70
     0
 71
     0
 40
0.06
 41
0.06
280
     0
281
     0
  7
Standard
140
0.18
170
     2
 62
     0
 63
     7
283
     0
 90
      512
 91
        0
  1

274
    -2
284
     1
 64
     0
275
    -2
285
     1
 65
     0
276
    -2
286
     1
 66
     0
277
    -2
287
     1
 67
     0
278
    -2
288
     1
 68
     0
279
    -2
289
     1
 69
     0
  7
Standard
140
0.25
170
     5
 62
     0
 63
     7
283
     0
 90
      512
 91
        0
  1

274
    -2
284
     1
 64
     0
275
    -2
285
     1
 65
     0
276
    -2
286
     1
 66
     0
277
    -2
287
     1
 67
     0
278
    -2
288
     1
 68
     0
279
    -2
289
     1
 69
     0
  7
Standard
140
0.18
170
     5
 62
     0
 63
     7
283
     0
 90
      512
 91
        0
  1

274
    -2
284
     1
 64
     0
275
    -2
285
     1
 65
     0
276
    -2
286
     1
 66
     0
277
    -2
287
     1
 67
     0
278
    -2
288
     1
 68
     0
279
    -2
289
     1
 69
     0
  0
VISUALSTYLE
  5
25
102
{ACAD_REACTORS
330
26
102
}
330
26
100
AcDbVisualStyle
  2
2dWireframe
 70
     4
177
     3
291
     0
 70
    58
 90
        0
176
     1
 90
        2
176
     1
 90
        0
176
     1
 90
        0
176
     1
 40
0.6
176
     1
 40
30.0
176
     1
 62
     7
420
 16777215
176
     1
 90
        1
176
     1
 90
        4
176
     1
 62
     7
176
     1
 62
   257
176
     1
 90
        1
176
     1
 90
        1
176
     1
 40
1.0
176
     1
 90
        0
176
     1
 62
   257
176
     1
 40
1.0
176
     1
 90
        1
176
     1
 90
        6
176
     1
 90
        2
176
     1
 62
     7
176
     1
 90
        5
176
     1
 90
        0
176
     1
 90
        0
176
     1
290
     0
176
     1
 90
        1
176
     1
 40
0.0
176
     1
 90
        0
176
     1
290
     1
176
     1
290
     1
176
     1
290
     0
176
     1
290
     0
176
     1
290
     0
176
     1
290
     0
176
     1
290
     0
176
     1
290
     0
176
     1
290
     0
176
     1
 90
       50
176
     1
 40
0.0
176
     1
 40
1.0
176
     1
 90
        0
176
     1
 62
    18
176
     1
 90
       50
176
     1
 90
        3
176
     1
 62
     5
420
      255
176
     1
290
     0
176
     1
 90
       50
176
     1
 90
       50
176
     1
 90
       50
176
     1
290
     0
176
     1
 90
       50
176
     1
 62
   256
176
     0
 40
1.0
176
     0
 90
        0
176
     1
  1
strokes_ogs.tif
176
     1
290
     0
176
     1
 40
1.0
176
     1
 40
1.0
176
     1
  0
VISUALSTYLE
  5
45
102
{ACAD_REACTORS
330
26
102
}
330
26
100
AcDbVisualStyle
  2
Realistic
 70
     8
177
     3
291
     0
 70
    58
 90
        2
176
     1
 90
        2
176
     1
 90
        0
176
     1
 90
        0
176
     1
 40
0.6
176
     1
 40
30.0
176
     1
 62
     7
420
 16777215
176
     1
 90
        1
176
     1
 90
        0
176
     1
 62
     7
176
     1
 62
   257
176
     1
 90
        1
176
     1
 90
        1
176
     1
 40
1.0
176
     1
 90
        8
176
     1
 62
     8
420
  7895160
176
     1
 40
1.0
176
     1
 90
        1
176
     1
 90
        6
176
     1
 90
        2
176
     1
 62
     7
176
     1
 90
        5
176
     1
 90
        0
176
     1
 90
        0
176
     1
290
     0
176
     1
 90
       13
176
     1
 40
0.0
176
     1
 90
        0
176
     1
290
     0
176
     1
290
     1
176
     1
290
     1
176
     1
290
     0
176
     1
290
     0
176
     1
290
     0
176
     1
290
     0
176
     1
290
     0
176
     1
290
     0
176
     1
 90
       50
176
     1
 40
0.0
176
     1
 40
1.0
176
     1
 90
        0
176
     1
 62
    18
176
     1
 90
       50
176
     1
 90
        3
176
     1
 62
     5
420
      255
176
     1
290
     0
176
     1
 90
       50
176
     1
 90
       50
176
     1
 90
       50
176
     1
290
     0
176
     1
 90
       50
176
     1
 62
   256
176
     0
 40
1.0
176
     0
 90
        0
176
     1
  1
strokes_ogs.tif
176
     1
290
     0
176
     1
 40
1.0
176
     1
 40
1.0
176
     1
  0
VISUALSTYLE
  5
46
102
{ACAD_REACTORS
330
26
102
}
330
26
100
AcDbVisualStyle
  2
Wireframe
 70
     5
177
     3
291
     0
 70
    58
 90
        0
176
     1
 90
        2
176
     1
 90
        0
176
     1
 90
        0
176
     1
 40
0.6
176
     1
 40
30.0
176
     1
 62
     7
420
 16777215
176
     1
 90
        1
176
     1
 90
        4
176
     1
 62
     7
176
     1
 62
   257
176
     1
 90
        1
176
     1
 90
        1
176
     1
 40
1.0
176
     1
 90
        0
176
     1
 62
   257
176
     1
 40
1.0
176
     1
 90
        1
176
     1
 90
        6
176
     1
 90
        2
176
     1
 62
     7
176
     1
 90
        3
176
     1
 90
        0
176
     1
 90
        0
176
     1
290
     0
176
     1
 90
        1
176
     1
 40
0.0
176
     1
 90
        0
176
     1
290
     0
176
     1
290
     1
176
     1
290
     1
176
     1
290
     0
176
     1
290
     0
176
     1
290
     0
176
     1
290
     0
176
     1
290
     0
176
     1
290
     0
176
     1
 90
       50
176
     1
 40
0.0
176
     1
 40
1.0
176
     1
 90
        0
176
     1
 62
    18
176
     1
 90
       50
176
     1
 90
        3
176
     1
 62
     5
420
      255
176
     1
290
     0
176
     1
 90
       50
176
     1
 90
       50
176
     1
 90
       50
176
     1
290
     0
176
     1
 90
       50
176
     1
 62
   256
176
     0
 40
1.0
176
     0
 90
        0
176
     1
  1
strokes_ogs.tif
176
     1
290
     0
176
     1
 40
1.0
176
     1
 40
1.0
176
     1
  0
DICTIONARYVAR
  5
37
102
{ACAD_REACTORS
330
36
102
}
330
36
100
DictionaryVariables
280
     0
  1
1:1
  0
DICTIONARYVAR
  5
38
102
{ACAD_REACTORS
330
36
102
}
330
36
100
DictionaryVariables
280
     0
  1
STANDARD
  0
DICTIONARYVAR
  5
39
102
{ACAD_REACTORS
330
36
102
}
330
36
100
DictionaryVariables
280
     0
  1
STANDARD
  0
DICTIONARYVAR
  5
3A
102
{ACAD_REACTORS
330
36
102
}
330
36
100
DictionaryVariables
280
     0
  1

  0
DICTIONARYVAR
  5
3B
102
{ACAD_REACTORS
330
36
102
}
330
36
100
DictionaryVariables
280
     0
  1

  0
DICTIONARYVAR
  5
3C
102
{ACAD_REACTORS
330
36
102
}
330
36
100
DictionaryVariables
280
     0
  1
2
  0
DICTIONARYVAR
  5
3D
102
{ACAD_REACTORS
330
36
102
}
330
36
100
DictionaryVariables
280
     0
  1
1
  0
DICTIONARYVAR
  5
3E
102
{ACAD_REACTORS
330
36
102
}
330
36
100
DictionaryVariables
280
     0
  1
1
  0
DICTIONARYVAR
  5
3F
102
{ACAD_REACTORS
330
36
102
}
330
36
100
DictionaryVariables
280
     0
  1
15
  0
DICTIONARYVAR
  5
40
102
{ACAD_REACTORS
330
36
102
}
330
36
100
DictionaryVariables
280
     0
  1
0
  0
DICTIONARYVAR
  5
41
102
{ACAD_REACTORS
330
36
102
}
330
36
100
DictionaryVariables
280
     0
  1
1
  0
DICTIONARY
  5
12
330
10
100
AcDbDictionary
280
     1
281
     1
  0
DICTIONARY
  5
44
330
43
100
AcDbDictionary
280
     1
281
     1
  3
ACAD_ROUNDTRIP_2008_TABLESTYLE_CELLSTYLEMAP
360
114
  0
CELLSTYLEMAP
  5
114
102
{ACAD_REACTORS
330
44
102
}
330
44
100
AcDbCellStyleMap
 90
        3
300
CELLSTYLE
  1
TABLEFORMAT_BEGIN
 90
        5
170
     1
 91
        0
 92
    32768
 62
   257
 93
        1
300
CONTENTFORMAT
  1
CONTENTFORMAT_BEGIN
 90
        0
 91
        0
 92
      512
 93
        0
300

 40
0.0
140
1.0
 94
        5
 62
     0
340
1B
144
0.25
309
CONTENTFORMAT_END
171
     1
301
MARGIN
  1
CELLMARGIN_BEGIN
 40
0.06
 40
0.06
 40
0.06
 40
0.06
 40
0.18
 40
0.18
309
CELLMARGIN_END
 94
        6
 95
        1
302
GRIDFORMAT
  1
GRIDFORMAT_BEGIN
 90
        0
 91
        1
 62
     0
 92
       -2
340
0
 93
        0
 40
0.045
309
GRIDFORMAT_END
 95
        2
302
GRIDFORMAT
  1
GRIDFORMAT_BEGIN
 90
        0
 91
        1
 62
     0
 92
       -2
340
0
 93
        0
 40
0.045
309
GRIDFORMAT_END
 95
        4
302
GRIDFORMAT
  1
GRIDFORMAT_BEGIN
 90
        0
 91
        1
 62
     0
 92
       -2
340
0
 93
        0
 40
0.045
309
GRIDFORMAT_END
 95
        8
302
GRIDFORMAT
  1
GRIDFORMAT_BEGIN
 90
        0
 91
        1
 62
     0
 92
       -2
340
0
 93
        0
 40
0.045
309
GRIDFORMAT_END
 95
       16
302
GRIDFORMAT
  1
GRIDFORMAT_BEGIN
 90
        0
 91
        1
 62
     0
 92
       -2
340
0
 93
        0
 40
0.045
309
GRIDFORMAT_END
 95
       32
302
GRIDFORMAT
  1
GRIDFORMAT_BEGIN
 90
        0
 91
        1
 62
     0
 92
       -2
340
0
 93
        0
 40
0.045
309
GRIDFORMAT_END
309
TABLEFORMAT_END
  1
CELLSTYLE_BEGIN
 90
        1
 91
        1
300
_TITLE
309
CELLSTYLE_END
300
CELLSTYLE
  1
TABLEFORMAT_BEGIN
 90
        5
170
     1
 91
        0
 92
        0
 62
   257
 93
        1
300
CONTENTFORMAT
  1
CONTENTFORMAT_BEGIN
 90
        0
 91
        0
 92
      512
 93
        0
300

 40
0.0
140
1.0
 94
        5
 62
     0
340
1B
144
0.18
309
CONTENTFORMAT_END
171
     1
301
MARGIN
  1
CELLMARGIN_BEGIN
 40
0.06
 40
0.06
 40
0.06
 40
0.06
 40
0.18
 40
0.18
309
CELLMARGIN_END
 94
        6
 95
        1
302
GRIDFORMAT
  1
GRIDFORMAT_BEGIN
 90
        0
 91
        1
 62
     0
 92
       -2
340
0
 93
        0
 40
0.045
309
GRIDFORMAT_END
 95
        2
302
GRIDFORMAT
  1
GRIDFORMAT_BEGIN
 90
        0
 91
        1
 62
     0
 92
       -2
340
0
 93
        0
 40
0.045
309
GRIDFORMAT_END
 95
        4
302
GRIDFORMAT
  1
GRIDFORMAT_BEGIN
 90
        0
 91
        1
 62
     0
 92
       -2
340
0
 93
        0
 40
0.045
309
GRIDFORMAT_END
 95
        8
302
GRIDFORMAT
  1
GRIDFORMAT_BEGIN
 90
        0
 91
        1
 62
     0
 92
       -2
340
0
 93
        0
 40
0.045
309
GRIDFORMAT_END
 95
       16
302
GRIDFORMAT
  1
GRIDFORMAT_BEGIN
 90
        0
 91
        1
 62
     0
 92
       -2
340
0
 93
        0
 40
0.045
309
GRIDFORMAT_END
 95
       32
302
GRIDFORMAT
  1
GRIDFORMAT_BEGIN
 90
        0
 91
        1
 62
     0
 92
       -2
340
0
 93
        0
 40
0.045
309
GRIDFORMAT_END
309
TABLEFORMAT_END
  1
CELLSTYLE_BEGIN
 90
        2
 91
        1
300
_HEADER
309
CELLSTYLE_END
300
CELLSTYLE
  1
TABLEFORMAT_BEGIN
 90
        5
170
     1
 91
        0
 92
        0
 62
   257
 93
        1
300
CONTENTFORMAT
  1
CONTENTFORMAT_BEGIN
 90
        0
 91
        0
 92
      512
 93
        0
300

 40
0.0
140
1.0
 94
        2
 62
     0
340
1B
144
0.18
309
CONTENTFORMAT_END
171
     1
301
MARGIN
  1
CELLMARGIN_BEGIN
 40
0.06
 40
0.06
 40
0.06
 40
0.06
 40
0.18
 40
0.18
309
CELLMARGIN_END
 94
        6
 95
        1
302
GRIDFORMAT
  1
GRIDFORMAT_BEGIN
 90
        0
 91
        1
 62
     0
 92
       -2
340
0
 93
        0
 40
0.045
309
GRIDFORMAT_END
 95
        2
302
GRIDFORMAT
  1
GRIDFORMAT_BEGIN
 90
        0
 91
        1
 62
     0
 92
       -2
340
0
 93
        0
 40
0.045
309
GRIDFORMAT_END
 95
        4
302
GRIDFORMAT
  1
GRIDFORMAT_BEGIN
 90
        0
 91
        1
 62
     0
 92
       -2
340
0
 93
        0
 40
0.045
309
GRIDFORMAT_END
 95
        8
302
GRIDFORMAT
  1
GRIDFORMAT_BEGIN
 90
        0
 91
        1
 62
     0
 92
       -2
340
0
 93
        0
 40
0.045
309
GRIDFORMAT_END
 95
       16
302
GRIDFORMAT
  1
GRIDFORMAT_BEGIN
 90
        0
 91
        1
 62
     0
 92
       -2
340
0
 93
        0
 40
0.045
309
GRIDFORMAT_END
 95
       32
302
GRIDFORMAT
  1
GRIDFORMAT_BEGIN
 90
        0
 91
        1
 62
     0
 92
       -2
340
0
 93
        0
 40
0.045
309
GRIDFORMAT_END
309
TABLEFORMAT_END
  1
CELLSTYLE_BEGIN
 90
        3
 91
        2
300
_DATA
309
CELLSTYLE_END
  0
ENDSEC
  0
SECTION
  2
ACDSDATA
 70
     2
 71
     8
  0
ACDSSCHEMA
 90
        0
  1
AcDb_Thumbnail_Schema
  2
AcDbDs::ID
280
    10
 91
        8
  2
Thumbnail_Data
280
    15
 91
        0
101
ACDSRECORD
 95
        0
 90
        1
  2
AcDbDs::TreatedAsObjectData
280
     1
291
     1
101
ACDSRECORD
 95
        0
 90
        2
  2
AcDbDs::Legacy
280
     1
291
     1
101
ACDSRECORD
  1
AcDbDs::ID
 90
        3
  2
AcDs:Indexable
280
     1
291
     1
101
ACDSRECORD
  1
AcDbDs::ID
 90
        4
  2
AcDbDs::HandleAttribute
280
     7
282
     1
  0
ACDSSCHEMA
 90
        1
  1
AcDbDs::TreatedAsObjectDataSchema
  2
AcDbDs::TreatedAsObjectData
280
     1
 91
        0
  0
ACDSSCHEMA
 90
        2
  1
AcDbDs::LegacySchema
  2
AcDbDs::Legacy
280
     1
 91
        0
  0
ACDSSCHEMA
 90
        3
  1
AcDbDs::IndexedPropertySchema
  2
AcDs:Indexable
280
     1
 91
        0
  0
ACDSSCHEMA
 90
        4
  1
AcDbDs::HandleAttributeSchema
  2
AcDbDs::HandleAttribute
280
     7
 91
        1
284
     1
  0
ACDSRECORD
 90
        0
  2
AcDbDs::ID
280
    10
320
10
  2
Thumbnail_Data
280
    15
 94
      884
310
89504E470D0A1A0A0000000D49484452000001000000005F08030000003003E9C200000300504C5445212830000000C8C8C80000000000000000000000000000000000000000000000000000330000660000990000CC0000FF0033000033330033660033990033CC0033FF0066000066330066660066990066CC0066FF0099
310
000099330099660099990099CC0099FF00CC0000CC3300CC6600CC9900CCCC00CCFF00FF0000FF3300FF6600FF9900FFCC00FFFF3300003300333300663300993300CC3300FF3333003333333333663333993333CC3333FF3366003366333366663366993366CC3366FF3399003399333399663399993399CC3399FF33CC00
310
33CC3333CC6633CC9933CCCC33CCFF33FF0033FF3333FF6633FF9933FFCC33FFFF6600006600336600666600996600CC6600FF6633006633336633666633996633CC6633FF6666006666336666666666996666CC6666FF6699006699336699666699996699CC6699FF66CC0066CC3366CC6666CC9966CCCC66CCFF66FF0066
310
FF3366FF6666FF9966FFCC66FFFF9900009900339900669900999900CC9900FF9933009933339933669933999933CC9933FF9966009966339966669966999966CC9966FF9999009999339999669999999999CC9999FF99CC0099CC3399CC6699CC9999CCCC99CCFF99FF0099FF3399FF6699FF9999FFCC99FFFFCC0000CC00
310
33CC0066CC0099CC00CCCC00FFCC3300CC3333CC3366CC3399CC33CCCC33FFCC6600CC6633CC6666CC6699CC66CCCC66FFCC9900CC9933CC9966CC9999CC99CCCC99FFCCCC00CCCC33CCCC66CCCC99CCCCCCCCCCFFCCFF00CCFF33CCFF66CCFF99CCFFCCCCFFFFFF0000FF0033FF0066FF0099FF00CCFF00FFFF3300FF3333
310
FF3366FF3399FF33CCFF33FFFF6600FF6633FF6666FF6699FF66CCFF66FFFF9900FF9933FF9966FF9999FF99CCFF99FFFFCC00FFCC33FFCC66FFCC99FFCCCCFFCCFFFFFF00FFFF33FFFF66FFFF99FFFFCCFFFFFF0000000D0D0D1A1A1A2828283535354343435050505D5D5D6B6B6B787878868686939393A1A1A1AEAEAEBB
310
BBBBC9C9C9D6D6D6E4E4E4F1F1F1FFFFFF000000000000000000000000000000000000000000000000000000000000B21171F60000002F4944415478DAEDC13101000000C2A0F54F6D0D0FA00000000000000000000000000000000000000000000000E0DE005F5F0001B38822CD0000000049454E44AE426082
  0
ENDSEC
  0
EOF
