  0
SECTION
  2
HEADER
  9
$ACADVER
  1
AC1032
  9
$ACADMAINTVER
 90
      197
  9
$DWGCODEPAGE
  3
ANSI_936
  9
$REQUIREDVERSIONS
160
                 0
  9
$INSBASE
 10
0.0
 20
0.0
 30
0.0
  9
$EXTMIN
 10
-1014.000877556705
 20
354.2064686216967
 30
-0.0000001179008495
  9
$EXTMAX
 10
1295.999122443295
 20
984.2064686216966
 30
-0.0000000235801702
  9
$LIMMIN
 10
0.0
 20
0.0
  9
$LIMMAX
 10
420.0
 20
297.0
  9
$ORTHOMODE
 70
     0
  9
$REGENMODE
 70
     1
  9
$FILLMODE
 70
     1
  9
$QTEXTMODE
 70
     0
  9
$MIRRTEXT
 70
     1
  9
$LTSCALE
 40
0.04
  9
$ATTMODE
 70
     1
  9
$TEXTSIZE
 40
12.5436837105276
  9
$TRACEWID
 40
1.0
  9
$TEXTSTYLE
  7
11111111111
  9
$CLAYER
  8
DIM
  9
$CELTYPE
  6
ByLayer
  9
$CECOLOR
 62
   256
  9
$CELTSCALE
 40
0.02
  9
$DISPSILH
 70
     0
  9
$DIMSCALE
 40
1.0
  9
$DIMASZ
 40
0.05
  9
$DIMEXO
 40
0.02
  9
$DIMDLI
 40
0.38
  9
$DIMRND
 40
0.0
  9
$DIMDLE
 40
0.0
  9
$DIMEXE
 40
0.03
  9
$DIMTP
 40
0.0
  9
$DIMTM
 40
0.0
  9
$DIMTXT
 40
0.125
  9
$DIMCEN
 40
0.03
  9
$DIMTSZ
 40
0.0
  9
$DIMTOL
 70
     0
  9
$DIMLIM
 70
     0
  9
$DIMTIH
 70
     1
  9
$DIMTOH
 70
     1
  9
$DIMSE1
 70
     0
  9
$DIMSE2
 70
     0
  9
$DIMTAD
 70
     0
  9
$DIMZIN
 70
     0
  9
$DIMBLK
  1

  9
$DIMASO
 70
     1
  9
$DIMSHO
 70
     1
  9
$DIMPOST
  1

  9
$DIMAPOST
  1

  9
$DIMALT
 70
     0
  9
$DIMALTD
 70
     2
  9
$DIMALTF
 40
25.4
  9
$DIMLFAC
 40
1.0
  9
$DIMTOFL
 70
     1
  9
$DIMTVP
 40
0.0
  9
$DIMTIX
 70
     0
  9
$DIMSOXD
 70
     0
  9
$DIMSAH
 70
     0
  9
$DIMBLK1
  1

  9
$DIMBLK2
  1

  9
$DIMSTYLE
  2
St2.ZB
  9
$DIMCLRD
 70
     7
  9
$DIMCLRE
 70
     1
  9
$DIMCLRT
 70
     0
  9
$DIMTFAC
 40
1.0
  9
$DIMGAP
 40
0.03
  9
$DIMJUST
 70
     0
  9
$DIMSD1
 70
     0
  9
$DIMSD2
 70
     0
  9
$DIMTOLJ
 70
     1
  9
$DIMTZIN
 70
     0
  9
$DIMALTZ
 70
     0
  9
$DIMALTTZ
 70
     0
  9
$DIMUPT
 70
     0
  9
$DIMDEC
 70
     4
  9
$DIMTDEC
 70
     4
  9
$DIMALTU
 70
     2
  9
$DIMALTTD
 70
     2
  9
$DIMTXSTY
  7
BZ
  9
$DIMAUNIT
 70
     0
  9
$DIMADEC
 70
     0
  9
$DIMALTRND
 40
0.0
  9
$DIMAZIN
 70
     0
  9
$DIMDSEP
 70
    46
  9
$DIMATFIT
 70
     3
  9
$DIMFRAC
 70
     0
  9
$DIMLDRBLK
  1

  9
$DIMLUNIT
 70
     2
  9
$DIMLWD
 70
    -2
  9
$DIMLWE
 70
    -2
  9
$DIMTMOVE
 70
     0
  9
$DIMFXL
 40
1.0
  9
$DIMFXLON
 70
     0
  9
$DIMJOGANG
 40
0.7853981633974483
  9
$DIMTFILL
 70
     0
  9
$DIMTFILLCLR
 70
     0
  9
$DIMARCSYM
 70
     0
  9
$DIMLTYPE
  6
ByLayer
  9
$DIMLTEX1
  6

  9
$DIMLTEX2
  6

  9
$DIMTXTDIRECTION
 70
     0
  9
$LUNITS
 70
     2
  9
$LUPREC
 70
     8
  9
$SKETCHINC
 40
1.0
  9
$FILLETRAD
 40
0.0
  9
$AUNITS
 70
     0
  9
$AUPREC
 70
     0
  9
$MENU
  1
.
  9
$ELEVATION
 40
0.0
  9
$PELEVATION
 40
0.0
  9
$THICKNESS
 40
0.0
  9
$LIMCHECK
 70
     0
  9
$CHAMFERA
 40
0.3
  9
$CHAMFERB
 40
0.3
  9
$CHAMFERC
 40
20.0
  9
$CHAMFERD
 40
0.0
  9
$SKPOLY
 70
     0
  9
$TDCREATE
 40
2451542.700358797
  9
$TDUCREATE
 40
2451542.367035451
  9
$TDUPDATE
 40
2458789.423715277
  9
$TDUUPDATE
 40
2458789.090387095
  9
$TDINDWG
 40
12.7747685185
  9
$TDUSRTIMER
 40
12.7747684028
  9
$USRTIMER
 70
     1
  9
$ANGBASE
 50
0.0
  9
$ANGDIR
 70
     0
  9
$PDMODE
 70
     3
  9
$PDSIZE
 40
0.0
  9
$PLINEWID
 40
0.0
  9
$SPLFRAME
 70
     0
  9
$SPLINETYPE
 70
     6
  9
$SPLINESEGS
 70
     8
  9
$HANDSEED
  5
3A1
  9
$SURFTAB1
 70
     6
  9
$SURFTAB2
 70
     6
  9
$SURFTYPE
 70
     6
  9
$SURFU
 70
     6
  9
$SURFV
 70
     6
  9
$UCSBASE
  2

  9
$UCSNAME
  2

  9
$UCSORG
 10
0.0
 20
0.0
 30
0.0
  9
$UCSXDIR
 10
1.0
 20
0.0
 30
0.0
  9
$UCSYDIR
 10
0.0
 20
1.0
 30
0.0
  9
$UCSORTHOREF
  2

  9
$UCSORTHOVIEW
 70
     0
  9
$UCSORGTOP
 10
0.0
 20
0.0
 30
0.0
  9
$UCSORGBOTTOM
 10
0.0
 20
0.0
 30
0.0
  9
$UCSORGLEFT
 10
0.0
 20
0.0
 30
0.0
  9
$UCSORGRIGHT
 10
0.0
 20
0.0
 30
0.0
  9
$UCSORGFRONT
 10
0.0
 20
0.0
 30
0.0
  9
$UCSORGBACK
 10
0.0
 20
0.0
 30
0.0
  9
$PUCSBASE
  2

  9
$PUCSNAME
  2

  9
$PUCSORG
 10
0.0
 20
0.0
 30
0.0
  9
$PUCSXDIR
 10
1.0
 20
0.0
 30
0.0
  9
$PUCSYDIR
 10
0.0
 20
1.0
 30
0.0
  9
$PUCSORTHOREF
  2

  9
$PUCSORTHOVIEW
 70
     0
  9
$PUCSORGTOP
 10
0.0
 20
0.0
 30
0.0
  9
$PUCSORGBOTTOM
 10
0.0
 20
0.0
 30
0.0
  9
$PUCSORGLEFT
 10
0.0
 20
0.0
 30
0.0
  9
$PUCSORGRIGHT
 10
0.0
 20
0.0
 30
0.0
  9
$PUCSORGFRONT
 10
0.0
 20
0.0
 30
0.0
  9
$PUCSORGBACK
 10
0.0
 20
0.0
 30
0.0
  9
$USERI1
 70
     0
  9
$USERI2
 70
     0
  9
$USERI3
 70
     0
  9
$USERI4
 70
     0
  9
$USERI5
 70
     0
  9
$USERR1
 40
0.0
  9
$USERR2
 40
0.0
  9
$USERR3
 40
0.0
  9
$USERR4
 40
0.0
  9
$USERR5
 40
0.0
  9
$WORLDVIEW
 70
     1
  9
$SHADEDGE
 70
     3
  9
$SHADEDIF
 70
    70
  9
$TILEMODE
 70
     1
  9
$MAXACTVP
 70
    48
  9
$PINSBASE
 10
0.0
 20
0.0
 30
0.0
  9
$PLIMCHECK
 70
     0
  9
$PEXTMIN
 10
-143.0934682448112
 20
-18.83108083434535
 30
-0.0000000349181948
  9
$PEXTMAX
 10
277.3374077922226
 20
278.5789338556843
 30
0.0000000814935746
  9
$PLIMMIN
 10
-147.8363546216141
 20
-22.09132231192207
  9
$PLIMMAX
 10
282.0802921670699
 20
281.8391739179745
  9
$UNITMODE
 70
     0
  9
$VISRETAIN
 70
     1
  9
$PLINEGEN
 70
     0
  9
$PSLTSCALE
 70
     1
  9
$TREEDEPTH
 70
  3020
  9
$CMLSTYLE
  2
Standard
  9
$CMLJUST
 70
     0
  9
$CMLSCALE
 40
20.0
  9
$PROXYGRAPHICS
 70
     1
  9
$MEASUREMENT
 70
     0
  9
$CELWEIGHT
370
    -1
  9
$ENDCAPS
280
     0
  9
$JOINSTYLE
280
     0
  9
$LWDISPLAY
290
     0
  9
$INSUNITS
 70
     0
  9
$HYPERLINKBASE
  1

  9
$STYLESHEET
  1

  9
$XEDIT
290
     1
  9
$CEPSNTYPE
380
     0
  9
$PSTYLEMODE
290
     1
  9
$FINGERPRINTGUID
  2
{B4338358-772B-4647-9064-5BBD67F0EFFF}
  9
$VERSIONGUID
  2
{0C852939-B063-4B7F-8BE0-CA0589D66375}
  9
$EXTNAMES
290
     1
  9
$PSVPSCALE
 40
0.0
  9
$OLESTARTUP
290
     0
  9
$SORTENTS
280
   127
  9
$INDEXCTL
280
     0
  9
$HIDETEXT
280
     1
  9
$XCLIPFRAME
280
     0
  9
$HALOGAP
280
     0
  9
$OBSCOLOR
 70
   257
  9
$OBSLTYPE
280
     0
  9
$INTERSECTIONDISPLAY
280
     0
  9
$INTERSECTIONCOLOR
 70
   257
  9
$DIMASSOC
280
     1
  9
$PROJECTNAME
  1

  9
$CAMERADISPLAY
290
     0
  9
$LENSLENGTH
 40
50.0
  9
$CAMERAHEIGHT
 40
0.0
  9
$STEPSPERSEC
 40
2.0
  9
$STEPSIZE
 40
6.0
  9
$3DDWFPREC
 40
2.0
  9
$PSOLWIDTH
 40
0.25
  9
$PSOLHEIGHT
 40
4.0
  9
$LOFTANG1
 40
1.570796326794896
  9
$LOFTANG2
 40
1.570796326794896
  9
$LOFTMAG1
 40
0.0
  9
$LOFTMAG2
 40
0.0
  9
$LOFTPARAM
 70
     7
  9
$LOFTNORMALS
280
     1
  9
$LATITUDE
 40
37.795
  9
$LONGITUDE
 40
-122.394
  9
$NORTHDIRECTION
 40
0.0
  9
$TIMEZONE
 70
 -8000
  9
$LIGHTGLYPHDISPLAY
280
     1
  9
$TILEMODELIGHTSYNCH
280
     1
  9
$CMATERIAL
347
47
  9
$SOLIDHIST
280
     0
  9
$SHOWHIST
280
     1
  9
$DWFFRAME
280
     2
  9
$DGNFRAME
280
     0
  9
$REALWORLDSCALE
290
     1
  9
$INTERFERECOLOR
 62
     1
  9
$INTERFEREOBJVS
345
73
  9
$INTERFEREVPVS
346
74
  9
$CSHADOW
280
     0
  9
$SHADOWPLANELOCATION
 40
0.0
  0
ENDSEC
  0
SECTION
  2
CLASSES
  0
CLASS
  1
ACDBDICTIONARYWDFLT
  2
AcDbDictionaryWithDefault
  3
ObjectDBX Classes
 90
        0
 91
        1
280
     0
281
     0
  0
CLASS
  1
DICTIONARYVAR
  2
AcDbDictionaryVar
  3
ObjectDBX Classes
 90
        0
 91
       15
280
     0
281
     0
  0
CLASS
  1
TABLESTYLE
  2
AcDbTableStyle
  3
ObjectDBX Classes
 90
     4095
 91
        1
280
     0
281
     0
  0
CLASS
  1
SORTENTSTABLE
  2
AcDbSortentsTable
  3
ObjectDBX Classes
 90
        0
 91
        2
280
     0
281
     0
  0
CLASS
  1
PLOTSETTINGS
  2
AcDbPlotSettings
  3
ObjectDBX Classes
 90
        0
 91
        0
280
     0
281
     0
  0
CLASS
  1
MATERIAL
  2
AcDbMaterial
  3
ObjectDBX Classes
 90
     1153
 91
        3
280
     0
281
     0
  0
CLASS
  1
VISUALSTYLE
  2
AcDbVisualStyle
  3
ObjectDBX Classes
 90
     4095
 91
        4
280
     0
281
     0
  0
CLASS
  1
SCALE
  2
AcDbScale
  3
ObjectDBX Classes
 90
     1153
 91
       34
280
     0
281
     0
  0
CLASS
  1
MLEADERSTYLE
  2
AcDbMLeaderStyle
  3
ACDB_MLEADERSTYLE_CLASS
 90
     4095
 91
        0
280
     0
281
     0
  0
CLASS
  1
FIELD
  2
AcDbField
  3
ObjectDBX Classes
 90
     1152
 91
        0
280
     0
281
     0
  0
CLASS
  1
ACAD_TABLE
  2
AcDbTable
  3
ObjectDBX Classes
 90
     1025
 91
        0
280
     0
281
     1
  0
CLASS
  1
FIELDLIST
  2
AcDbFieldList
  3
ObjectDBX Classes
 90
     1152
 91
        1
280
     0
281
     0
  0
CLASS
  1
CELLSTYLEMAP
  2
AcDbCellStyleMap
  3
ObjectDBX Classes
 90
     1152
 91
        1
280
     0
281
     0
  0
CLASS
  1
TABLECONTENT
  2
AcDbTableContent
  3
ObjectDBX Classes
 90
     1152
 91
        0
280
     0
281
     0
  0
CLASS
  1
TABLEGEOMETRY
  2
AcDbTableGeometry
  3
ObjectDBX Classes
 90
     1152
 91
        0
280
     0
281
     0
  0
CLASS
  1
DATATABLE
  2
AcDbDataTable
  3
ObjectDBX Classes
 90
        0
 91
        0
280
     0
281
     0
  0
CLASS
  1
ACAD_EVALUATION_GRAPH
  2
AcDbEvalGraph
  3
ObjectDBX Classes
 90
     1153
 91
        0
280
     0
281
     0
  0
CLASS
  1
ACAECUSTOBJ
  2
AcAeEditorObj
  3
AcAeEditorObj
 90
     1024
 91
        0
280
     1
281
     0
  0
CLASS
  1
ACDB_DYNAMICBLOCKPURGEPREVENTER_VERSION
  2
AcDbDynamicBlockPurgePreventer
  3
ObjectDBX Classes
 90
     1153
 91
        0
280
     0
281
     0
  0
CLASS
  1
EXACXREFPANELOBJECT
  2
ExAcXREFPanelObject
  3
EXAC_ESW
 90
     1025
 91
        0
280
     1
281
     0
  0
CLASS
  1
NPOCOLLECTION
  2
AcDbImpNonPersistentObjectsCollection
  3
ObjectDBX Classes
 90
     1153
 91
        0
280
     0
281
     0
  0
CLASS
  1
ACDBSECTIONVIEWSTYLE
  2
AcDbSectionViewStyle
  3
ObjectDBX Classes
 90
     1025
 91
        0
280
     0
281
     0
  0
CLASS
  1
ACDBDETAILVIEWSTYLE
  2
AcDbDetailViewStyle
  3
ObjectDBX Classes
 90
     1025
 91
        0
280
     0
281
     0
  0
CLASS
  1
ACDB_BLOCKREPRESENTATION_DATA
  2
AcDbBlockRepresentationData
  3
ObjectDBX Classes
 90
     1153
 91
        0
280
     0
281
     0
  0
CLASS
  1
DIMASSOC
  2
AcDbDimAssoc
  3
"AcDbDimAssoc|Product Desc:     AcDim ARX App For Dimension|Company:          Autodesk, Inc.|WEB Address:      www.autodesk.com"
 90
        0
 91
        5
280
     0
281
     0
  0
CLASS
  1
MULTILEADER
  2
AcDbMLeader
  3
ACDB_MLEADER_CLASS
 90
     1025
 91
        0
280
     0
281
     1
  0
CLASS
  1
SOLID_BACKGROUND
  2
AcDbSolidBackground
  3
SCENEOE
 90
     4095
 91
        0
280
     0
281
     0
  0
CLASS
  1
BLOCKBASEPOINTPARAMETER
  2
AcDbBlockBasepointParameter
  3
ObjectDBX Classes
 90
     1153
 91
        0
280
     0
281
     0
  0
CLASS
  1
IMAGE
  2
AcDbRasterImage
  3
ISM
 90
     2175
 91
        0
280
     0
281
     1
  0
CLASS
  1
IMAGEDEF_REACTOR
  2
AcDbRasterImageDefReactor
  3
ISM
 90
        1
 91
        0
280
     0
281
     0
  0
CLASS
  1
IMAGEDEF
  2
AcDbRasterImageDef
  3
ISM
 90
        0
 91
        0
280
     0
281
     0
  0
CLASS
  1
RASTERVARIABLES
  2
AcDbRasterVariables
  3
ISM
 90
        0
 91
        0
280
     0
281
     0
  0
CLASS
  1
AEC_REFEDIT_STATUS_TRACKER
  2
AecDbRefEditStatusTracker
  3
AecArchBase80|Product Desc: Autodesk Architectural Desktop 2007 |Company: Autodesk,Inc. |WEB Address: www.autodesk.com
 90
      129
 91
        0
280
     0
281
     0
  0
CLASS
  1
LARGE_RADIAL_DIMENSION
  2
AcDbRadialDimensionLarge
  3
ObjectDBX Classes
 90
     1025
 91
        0
280
     0
281
     1
  0
ENDSEC
  0
SECTION
  2
TABLES
  0
TABLE
  2
VPORT
  5
33
102
{ACAD_XDICTIONARY
360
38
102
}
330
0
100
AcDbSymbolTable
 70
     1
  0
VPORT
  5
34
330
33
100
AcDbSymbolTableRecord
100
AcDbViewportTableRecord
  2
*Active
 70
     0
 10
0.0
 20
0.0
 11
1.0
 21
1.0
 12
-771.4689928940056
 22
-326.997465656175
 13
0.0
 23
0.0
 14
10.0
 24
10.0
 15
10.0
 25
10.0
 16
0.0
 26
0.0
 36
10.96533247161759
 17
302.8937028489615
 27
774.0681718160446
 37
0.0
 40
1817.048334663017
 41
2.311515151515151
 42
50.0
 43
0.0
 44
0.0
 50
0.0
 51
0.0
 71
     0
 72
   100
 73
     1
 74
     3
 75
     0
 76
     0
 77
     0
 78
     0
281
     0
 65
     1
110
0.0
120
0.0
130
0.0
111
1.0
121
0.0
131
0.0
112
0.0
122
1.0
132
0.0
 79
     0
146
0.0
348
35
 60
     3
 61
     5
292
     1
282
     1
141
0.0
142
0.0
 63
   250
421
  3355443
1001
ACAD_NAV_VCDISPLAY
1070
     3
  0
ENDTAB
  0
TABLE
  2
LTYPE
  5
2E
330
0
100
AcDbSymbolTable
 70
     2
  0
LTYPE
  5
2F
330
2E
100
AcDbSymbolTableRecord
100
AcDbLinetypeTableRecord
  2
ByBlock
 70
     0
  3

 72
    65
 73
     0
 40
0.0
  0
LTYPE
  5
30
330
2E
100
AcDbSymbolTableRecord
100
AcDbLinetypeTableRecord
  2
ByLayer
 70
     0
  3

 72
    65
 73
     0
 40
0.0
  0
LTYPE
  5
16
330
2E
100
AcDbSymbolTableRecord
100
AcDbLinetypeTableRecord
  2
Continuous
 70
     0
  3
Solid line
 72
    65
 73
     0
 40
0.0
  0
LTYPE
  5
EF
330
2E
100
AcDbSymbolTableRecord
100
AcDbLinetypeTableRecord
  2
CENTER
 70
     0
  3
Center ____ _ ____ _ ____ _ ____ _ ____ _ ____
 72
    65
 73
     4
 40
50.8
 49
31.75
 74
     0
 49
-6.349999999999999
 74
     0
 49
6.349999999999999
 74
     0
 49
-6.349999999999999
 74
     0
  0
ENDTAB
  0
TABLE
  2
LAYER
  5
25
102
{ACAD_XDICTIONARY
360
26
102
}
330
0
100
AcDbSymbolTable
 70
     6
  0
LAYER
  5
7
102
{ACAD_XDICTIONARY
360
8
102
}
330
25
100
AcDbSymbolTableRecord
100
AcDbLayerTableRecord
  2
0
 70
     0
 62
     7
  6
Continuous
370
    -3
390
A
347
D
348
0
  0
LAYER
  5
A9
330
25
100
AcDbSymbolTableRecord
100
AcDbLayerTableRecord
  2
Defpoints
 70
     0
 62
     7
  6
Continuous
290
     0
370
    -3
390
A
347
D
348
0
  0
LAYER
  5
6B
102
{ACAD_XDICTIONARY
360
6C
102
}
330
25
100
AcDbSymbolTableRecord
100
AcDbLayerTableRecord
  2
DIM
 70
     0
 62
     7
  6
Continuous
370
     9
390
A
347
D
348
0
1001
AcAecLayerStandard
1000

1000

1001
AcCmTransparency
1071
        0
  0
LAYER
  5
ED
102
{ACAD_XDICTIONARY
360
EE
102
}
330
25
100
AcDbSymbolTableRecord
100
AcDbLayerTableRecord
  2
CEN
 70
     0
 62
     3
  6
CENTER
370
     9
390
A
347
D
348
0
  0
LAYER
  5
104
330
25
100
AcDbSymbolTableRecord
100
AcDbLayerTableRecord
  2
D Frame
 70
     0
 62
     7
  6
Continuous
370
    30
390
A
347
D
348
0
1001
AcAecLayerStandard
1000

1000

1001
AcCmTransparency
1071
        0
  0
LAYER
  5
98
102
{ACAD_XDICTIONARY
360
99
102
}
330
25
100
AcDbSymbolTableRecord
100
AcDbLayerTableRecord
  2
标注线
 70
     0
 62
     7
  6
Continuous
370
     0
390
A
347
D
348
0
1001
AcAecLayerStandard
1000

1000

  0
ENDTAB
  0
TABLE
  2
STYLE
  5
2B
330
0
100
AcDbSymbolTable
 70
     5
  0
STYLE
  5
2C
330
2B
100
AcDbSymbolTableRecord
100
AcDbTextStyleTableRecord
  2
Standard
 70
     0
 40
0.0
 41
1.0
 50
0.0
 71
     0
 42
12.5436837105276
  3
simplex.shx
  4

  0
STYLE
  5
3C
330
2B
100
AcDbSymbolTableRecord
100
AcDbTextStyleTableRecord
  2
BZ
 70
     0
 40
0.0
 41
1.0
 50
0.0
 71
     0
 42
2.5
  3
simplex.shx
  4

  0
STYLE
  5
A7
330
2B
100
AcDbSymbolTableRecord
100
AcDbTextStyleTableRecord
  2
SIMPLEX
 70
     0
 40
0.0
 41
1.0
 50
0.0
 71
     0
 42
2.5
  3
SIMPLEX.SHX
  4

  0
STYLE
  5
9A
330
2B
100
AcDbSymbolTableRecord
100
AcDbTextStyleTableRecord
  2
宋体
 70
     0
 40
3.0
 41
1.0
 50
0.0
 71
     0
 42
3.0
  3

  4

1001
ACAD
1000
SimSun
1071
    34306
  0
STYLE
  5
6F
330
2B
100
AcDbSymbolTableRecord
100
AcDbTextStyleTableRecord
  2
11111111111
 70
     0
 40
2.0
 41
1.0
 50
0.0
 71
     0
 42
12.5436837105276
  3

  4

1001
ACAD
1000
SimSun
1071
    34306
  0
ENDTAB
  0
TABLE
  2
VIEW
  5
31
330
0
100
AcDbSymbolTable
 70
     0
  0
ENDTAB
  0
TABLE
  2
UCS
  5
32
330
0
100
AcDbSymbolTable
 70
     0
  0
ENDTAB
  0
TABLE
  2
APPID
  5
39
330
0
100
AcDbSymbolTable
 70
    10
  0
APPID
  5
2A
330
39
100
AcDbSymbolTableRecord
100
AcDbRegAppTableRecord
  2
ACAD
 70
     0
  0
APPID
  5
24
330
39
100
AcDbSymbolTableRecord
100
AcDbRegAppTableRecord
  2
ACAD_PSEXT
 70
     0
  0
APPID
  5
6D
330
39
100
AcDbSymbolTableRecord
100
AcDbRegAppTableRecord
  2
AcAecLayerStandard
 70
     0
  0
APPID
  5
37
330
39
100
AcDbSymbolTableRecord
100
AcDbRegAppTableRecord
  2
ACAD_NAV_VCDISPLAY
 70
     0
  0
APPID
  5
3E
330
39
100
AcDbSymbolTableRecord
100
AcDbRegAppTableRecord
  2
ACAD_DSTYLE_DIMJAG
 70
     0
  0
APPID
  5
3F
330
39
100
AcDbSymbolTableRecord
100
AcDbRegAppTableRecord
  2
ACAD_DSTYLE_DIMTALN
 70
     0
  0
APPID
  5
3D
330
39
100
AcDbSymbolTableRecord
100
AcDbRegAppTableRecord
  2
ACAD_DSTYLE_DIMBREAK
 70
     0
  0
APPID
  5
6E
330
39
100
AcDbSymbolTableRecord
100
AcDbRegAppTableRecord
  2
AcCmTransparency
 70
     0
  0
APPID
  5
1A
330
39
100
AcDbSymbolTableRecord
100
AcDbRegAppTableRecord
  2
AcadStringInfo
 70
     0
  0
APPID
  5
39B
330
39
100
AcDbSymbolTableRecord
100
AcDbRegAppTableRecord
  2
Acad_TC
 70
     0
  0
ENDTAB
  0
TABLE
  2
DIMSTYLE
  5
3A
330
0
100
AcDbSymbolTable
 70
     5
100
AcDbDimStyleTable
 71
     4
340
3B
340
40
340
41
340
42
  0
DIMSTYLE
105
3B
330
3A
100
AcDbSymbolTableRecord
100
AcDbDimStyleTableRecord
  2
St2.ZB
 70
     0
 41
0.05
 42
0.02
 44
0.03
140
0.125
141
0.03
147
0.03
172
     1
176
     7
177
     1
340
3C
1001
ACAD_DSTYLE_DIMBREAK
1070
   391
1040
3.75
1001
ACAD_DSTYLE_DIMJAG
1070
   388
1040
1.5
1001
ACAD_DSTYLE_DIMTALN
1070
   392
1070
     0
  0
DIMSTYLE
105
AD
102
{ACAD_REACTORS
330
9B
330
AE
330
BE
330
CE
330
DD
102
}
330
3A
100
AcDbSymbolTableRecord
100
AcDbDimStyleTableRecord
  2
副本 (2)ISO
 70
     0
 41
2.5
 42
0.4
 43
3.75
 44
0.6
 73
     0
 74
     0
 77
     1
 78
     1
140
2.5
141
0.6
143
0.03937007874016
147
0.6
171
     3
172
     1
177
     1
274
     3
283
     0
284
     8
340
2C
  0
DIMSTYLE
105
41
330
3A
100
AcDbSymbolTableRecord
100
AcDbDimStyleTableRecord
  2
St.CG(1)
 70
     0
 41
1.0
 42
0.16
 44
0.24
 73
     0
 74
     0
 77
     1
140
1.0
141
0.24
147
0.24
172
     1
176
     7
177
     1
340
3C
1001
ACAD_DSTYLE_DIMBREAK
1070
   391
1040
3.75
1001
ACAD_DSTYLE_DIMJAG
1070
   388
1040
1.5
1001
ACAD_DSTYLE_DIMTALN
1070
   392
1070
     0
  0
DIMSTYLE
105
40
330
3A
100
AcDbSymbolTableRecord
100
AcDbDimStyleTableRecord
  2
St.ISO(1)
 70
     0
 41
1.0
 42
0.16
 44
0.24
 73
     0
 77
     1
140
1.0
141
0.24
147
0.24
172
     1
176
     7
177
     1
340
3C
1001
ACAD_DSTYLE_DIMBREAK
1070
   391
1040
3.75
1001
ACAD_DSTYLE_DIMJAG
1070
   388
1040
1.5
1001
ACAD_DSTYLE_DIMTALN
1070
   392
1070
     0
  0
DIMSTYLE
105
42
330
3A
100
AcDbSymbolTableRecord
100
AcDbDimStyleTableRecord
  2
St.CG(0.125)
 70
     0
 41
0.125
 42
0.02
 44
0.03
 73
     0
 74
     0
 77
     1
140
0.125
141
0.03
147
0.03
172
     1
176
     7
177
     1
340
3C
1001
ACAD_DSTYLE_DIMBREAK
1070
   391
1040
3.75
1001
ACAD_DSTYLE_DIMJAG
1070
   388
1040
1.5
1001
ACAD_DSTYLE_DIMTALN
1070
   392
1070
     0
  0
ENDTAB
  0
TABLE
  2
BLOCK_RECORD
  5
1
330
0
100
AcDbSymbolTable
 70
     5
  0
BLOCK_RECORD
  5
2
102
{ACAD_XDICTIONARY
360
3
102
}
330
1
100
AcDbSymbolTableRecord
100
AcDbBlockTableRecord
  2
*Model_Space
340
18
 70
     0
280
     1
281
     0
  0
BLOCK_RECORD
  5
1D
102
{ACAD_XDICTIONARY
360
1E
102
}
330
1
100
AcDbSymbolTableRecord
100
AcDbBlockTableRecord
  2
*Paper_Space
340
21
 70
     0
280
     1
281
     0
  0
BLOCK_RECORD
  5
9E
330
1
100
AcDbSymbolTableRecord
100
AcDbBlockTableRecord
  2
*D0
340
0
 70
     0
280
     1
281
     0
  0
BLOCK_RECORD
  5
B1
330
1
100
AcDbSymbolTableRecord
100
AcDbBlockTableRecord
  2
*D1
340
0
 70
     0
280
     1
281
     0
  0
BLOCK_RECORD
  5
C1
330
1
100
AcDbSymbolTableRecord
100
AcDbBlockTableRecord
  2
*D2
340
0
 70
     0
280
     1
281
     0
  0
BLOCK_RECORD
  5
D1
330
1
100
AcDbSymbolTableRecord
100
AcDbBlockTableRecord
  2
*D3
340
0
 70
     0
280
     1
281
     0
  0
BLOCK_RECORD
  5
E0
330
1
100
AcDbSymbolTableRecord
100
AcDbBlockTableRecord
  2
*D4
340
0
 70
     0
280
     1
281
     0
  0
ENDTAB
  0
ENDSEC
  0
SECTION
  2
BLOCKS
  0
BLOCK
  5
6
330
2
100
AcDbEntity
  8
0
100
AcDbBlockBegin
  2
*Model_Space
 70
     0
 10
0.0
 20
0.0
 30
0.0
  3
*Model_Space
  1

  0
ENDBLK
  5
17
330
2
100
AcDbEntity
  8
0
100
AcDbBlockEnd
  0
BLOCK
  5
1F
330
1D
100
AcDbEntity
 67
     1
  8
0
 48
0.02
100
AcDbBlockBegin
  2
*Paper_Space
 70
     0
 10
0.0
 20
0.0
 30
0.0
  3
*Paper_Space
  1

  0
ENDBLK
  5
20
330
1D
100
AcDbEntity
 67
     1
  8
0
 48
0.02
100
AcDbBlockEnd
  0
BLOCK
  5
9F
330
9E
100
AcDbEntity
  8
0
 48
0.02
100
AcDbBlockBegin
  2
*D0
 70
     1
 10
0.0
 20
0.0
 30
0.0
  3
*D0
  1

  0
LINE
  5
A0
330
9E
100
AcDbEntity
  8
标注线
 62
     1
440
 16777216
370
    -2
100
AcDbLine
 10
-743.6323171289774
 20
703.617854370537
 30
0.0
 11
-750.3673743520264
 21
703.617854370537
 31
0.0
  0
LINE
  5
A1
330
9E
100
AcDbEntity
  8
标注线
 62
     1
440
 16777216
370
    -2
100
AcDbLine
 10
-743.6323171281779
 20
652.8178543705368
 30
0.0
 11
-750.3673743520264
 21
652.8178543705368
 31
0.0
  0
LINE
  5
A2
330
9E
100
AcDbEntity
  8
标注线
 62
     0
440
 16777216
370
    -2
100
AcDbLine
 10
-749.7673743520264
 20
701.1178543705369
 30
0.0
 11
-749.7673743520264
 21
655.3178543705367
 31
0.0
  0
SOLID
  5
A3
330
9E
100
AcDbEntity
  8
标注线
 62
     0
440
 16777216
100
AcDbTrace
 10
-750.184041018693
 20
701.1178543705369
 30
0.0
 11
-749.3507076853598
 21
701.1178543705369
 31
0.0
 12
-749.7673743520264
 22
703.617854370537
 32
0.0
 13
-749.7673743520264
 23
703.617854370537
 33
0.0
  0
SOLID
  5
A5
330
9E
100
AcDbEntity
  8
标注线
 62
     0
440
 16777216
100
AcDbTrace
 10
-750.184041018693
 20
655.3178543705367
 30
0.0
 11
-749.3507076853598
 21
655.3178543705367
 31
0.0
 12
-749.7673743520264
 22
652.8178543705368
 32
0.0
 13
-749.7673743520264
 23
652.8178543705368
 33
0.0
  0
MTEXT
  5
A6
330
9E
100
AcDbEntity
  8
标注线
 62
     0
440
 16777216
100
AcDbMText
 10
-751.6173743520266
 20
678.9748392042762
 30
0.0
 40
2.5
 41
0.0
 46
0.0
 71
     5
 72
     1
  1
50.8000%%p0.051
  7
SIMPLEX
 11
0.0000000000000001
 21
1.0
 31
0.0
 73
     1
 44
1.0
  0
POINT
  5
A8
330
9E
100
AcDbEntity
  8
Defpoints
 62
     0
440
 16777216
100
AcDbPoint
 10
-743.2323171289774
 20
703.617854370537
 30
0.0
  0
POINT
  5
AA
330
9E
100
AcDbEntity
  8
Defpoints
 62
     0
440
 16777216
100
AcDbPoint
 10
-743.232317128178
 20
652.8178543705368
 30
0.0
  0
POINT
  5
AB
330
9E
100
AcDbEntity
  8
Defpoints
 62
     0
440
 16777216
100
AcDbPoint
 10
-749.7673743520264
 20
652.8178543705368
 30
0.0
  0
ENDBLK
  5
AC
330
9E
100
AcDbEntity
  8
0
 48
0.02
100
AcDbBlockEnd
  0
BLOCK
  5
B2
330
B1
100
AcDbEntity
  8
0
 48
0.02
100
AcDbBlockBegin
  2
*D1
 70
     1
 10
0.0
 20
0.0
 30
0.0
  3
*D1
  1

  0
LINE
  5
B3
330
B1
100
AcDbEntity
  8
标注线
 62
     1
440
 16777216
370
    -2
100
AcDbLine
 10
-687.0479171283816
 20
702.7478543705361
 30
0.0
 11
-687.0479171283816
 21
707.992428062794
 31
0.0
  0
LINE
  5
B4
330
B1
100
AcDbEntity
  8
标注线
 62
     1
440
 16777216
370
    -2
100
AcDbLine
 10
-670.7411171283631
 20
702.7478543705361
 30
0.0
 11
-670.7411171283631
 21
707.992428062794
 31
0.0
  0
LINE
  5
B5
330
B1
100
AcDbEntity
  8
标注线
 62
     0
440
 16777216
370
    -2
100
AcDbLine
 10
-684.5479171283816
 20
707.392428062794
 30
0.0
 11
-673.2411171283631
 21
707.392428062794
 31
0.0
  0
LINE
  5
B6
330
B1
100
AcDbEntity
  8
标注线
 62
     0
440
 16777216
370
    -2
100
AcDbLine
 10
-670.7411171283631
 20
707.392428062794
 30
0.0
 11
-638.9458790331249
 21
707.392428062794
 31
0.0
  0
SOLID
  5
B7
330
B1
100
AcDbEntity
  8
标注线
 62
     0
440
 16777216
100
AcDbTrace
 10
-684.5479171283816
 20
707.8090947294606
 30
0.0
 11
-684.5479171283816
 21
706.9757613961273
 31
0.0
 12
-687.0479171283816
 22
707.392428062794
 32
0.0
 13
-687.0479171283816
 23
707.392428062794
 33
0.0
  0
SOLID
  5
B8
330
B1
100
AcDbEntity
  8
标注线
 62
     0
440
 16777216
100
AcDbTrace
 10
-673.2411171283631
 20
707.8090947294606
 30
0.0
 11
-673.2411171283631
 21
706.9757613961273
 31
0.0
 12
-670.7411171283631
 22
707.392428062794
 32
0.0
 13
-670.7411171283631
 23
707.392428062794
 33
0.0
  0
MTEXT
  5
B9
330
B1
100
AcDbEntity
  8
标注线
 62
     0
440
 16777216
100
AcDbMText
 10
-653.5934980807439
 20
709.242428062794
 30
0.0
 40
2.5
 41
0.0
 46
0.0
 71
     5
 72
     1
  1
16.3068%%p0.025
  7
SIMPLEX
 73
     1
 44
1.0
  0
POINT
  5
BA
330
B1
100
AcDbEntity
  8
Defpoints
 62
     0
440
 16777216
100
AcDbPoint
 10
-687.0479171283816
 20
702.347854370536
 30
0.0
  0
POINT
  5
BB
330
B1
100
AcDbEntity
  8
Defpoints
 62
     0
440
 16777216
100
AcDbPoint
 10
-670.7411171283631
 20
702.347854370536
 30
0.0
  0
POINT
  5
BC
330
B1
100
AcDbEntity
  8
Defpoints
 62
     0
440
 16777216
100
AcDbPoint
 10
-670.7411171283631
 20
707.392428062794
 30
0.0
  0
ENDBLK
  5
BD
330
B1
100
AcDbEntity
  8
0
 48
0.02
100
AcDbBlockEnd
  0
BLOCK
  5
C2
330
C1
100
AcDbEntity
  8
0
 48
0.02
100
AcDbBlockBegin
  2
*D2
 70
     1
 10
0.0
 20
0.0
 30
0.0
  3
*D2
  1

  0
LINE
  5
C3
330
C1
100
AcDbEntity
  8
标注线
 62
     1
440
 16777216
370
    -2
100
AcDbLine
 10
-735.9683171284371
 20
702.7478543705365
 30
0.0
 11
-735.9683171284371
 21
708.6585783451762
 31
0.0
  0
LINE
  5
C4
330
C1
100
AcDbEntity
  8
标注线
 62
     1
440
 16777216
370
    -2
100
AcDbLine
 10
-744.1217171281894
 20
703.1798543705368
 30
0.0
 11
-744.1217171281894
 21
708.6585783451762
 31
0.0
  0
LINE
  5
C5
330
C1
100
AcDbEntity
  8
标注线
 62
     0
440
 16777216
370
    -2
100
AcDbLine
 10
-741.6217171281894
 20
708.0585783451762
 30
0.0
 11
-738.4683171284371
 21
708.0585783451762
 31
0.0
  0
LINE
  5
C6
330
C1
100
AcDbEntity
  8
标注线
 62
     0
440
 16777216
370
    -2
100
AcDbLine
 10
-735.9683171284371
 20
708.0585783451762
 30
0.0
 11
-706.613555223675
 21
708.0585783451762
 31
0.0
  0
SOLID
  5
C7
330
C1
100
AcDbEntity
  8
标注线
 62
     0
440
 16777216
100
AcDbTrace
 10
-741.6217171281894
 20
708.4752450118428
 30
0.0
 11
-741.6217171281894
 21
707.6419116785095
 31
0.0
 12
-744.1217171281894
 22
708.0585783451762
 32
0.0
 13
-744.1217171281894
 23
708.0585783451762
 33
0.0
  0
SOLID
  5
C8
330
C1
100
AcDbEntity
  8
标注线
 62
     0
440
 16777216
100
AcDbTrace
 10
-738.4683171284371
 20
708.4752450118428
 30
0.0
 11
-738.4683171284371
 21
707.6419116785095
 31
0.0
 12
-735.9683171284371
 22
708.0585783451762
 32
0.0
 13
-735.9683171284371
 23
708.0585783451762
 33
0.0
  0
MTEXT
  5
C9
330
C1
100
AcDbEntity
  8
标注线
 62
     0
440
 16777216
100
AcDbMText
 10
-720.011174271294
 20
709.9085783451762
 30
0.0
 40
2.5
 41
0.0
 46
0.0
 71
     5
 72
     1
  1
8.1534%%p0.076
  7
SIMPLEX
 73
     1
 44
1.0
  0
POINT
  5
CA
330
C1
100
AcDbEntity
  8
Defpoints
 62
     0
440
 16777216
100
AcDbPoint
 10
-735.9683171284371
 20
702.3478543705365
 30
0.0
  0
POINT
  5
CB
330
C1
100
AcDbEntity
  8
Defpoints
 62
     0
440
 16777216
100
AcDbPoint
 10
-744.1217171281894
 20
702.7798543705367
 30
0.0
  0
POINT
  5
CC
330
C1
100
AcDbEntity
  8
Defpoints
 62
     0
440
 16777216
100
AcDbPoint
 10
-744.1217171281894
 20
708.0585783451762
 30
0.0
  0
ENDBLK
  5
CD
330
C1
100
AcDbEntity
  8
0
 48
0.02
100
AcDbBlockEnd
  0
BLOCK
  5
D2
330
D1
100
AcDbEntity
  8
0
 48
0.02
100
AcDbBlockBegin
  2
*D3
 70
     1
 10
0.0
 20
0.0
 30
0.0
  3
*D3
  1

  0
LINE
  5
D3
330
D1
100
AcDbEntity
  8
标注线
 62
     1
440
 16777216
370
    -2
100
AcDbLine
 10
-735.9683171284371
 20
702.7478543705365
 30
0.0
 11
-735.9683171284371
 21
715.0189341909138
 31
0.0
  0
LINE
  5
D4
330
D1
100
AcDbEntity
  8
标注线
 62
     1
440
 16777216
370
    -2
100
AcDbLine
 10
-523.9799171281967
 20
702.7478543705361
 30
0.0
 11
-523.9799171281967
 21
715.0189341909138
 31
0.0
  0
LINE
  5
D5
330
D1
100
AcDbEntity
  8
标注线
 62
     0
440
 16777216
370
    -2
100
AcDbLine
 10
-733.468317128437
 20
714.4189341909138
 30
0.0
 11
-526.4799171281968
 21
714.4189341909138
 31
0.0
  0
SOLID
  5
D6
330
D1
100
AcDbEntity
  8
标注线
 62
     0
440
 16777216
100
AcDbTrace
 10
-733.468317128437
 20
714.8356008575803
 30
0.0
 11
-733.468317128437
 21
714.0022675242471
 31
0.0
 12
-735.9683171284371
 22
714.4189341909138
 32
0.0
 13
-735.9683171284371
 23
714.4189341909138
 33
0.0
  0
SOLID
  5
D7
330
D1
100
AcDbEntity
  8
标注线
 62
     0
440
 16777216
100
AcDbTrace
 10
-526.4799171281968
 20
714.8356008575803
 30
0.0
 11
-526.4799171281968
 21
714.0022675242471
 31
0.0
 12
-523.9799171281967
 22
714.4189341909138
 32
0.0
 13
-523.9799171281967
 23
714.4189341909138
 33
0.0
  0
MTEXT
  5
D8
330
D1
100
AcDbEntity
  8
标注线
 62
     0
440
 16777216
100
AcDbMText
 10
-634.1004757067669
 20
716.2689341909137
 30
0.0
 40
2.5
 41
0.0
 46
0.0
 71
     5
 72
     1
  1
211.9884%%p0.038
  7
SIMPLEX
 73
     1
 44
1.0
  0
POINT
  5
D9
330
D1
100
AcDbEntity
  8
Defpoints
 62
     0
440
 16777216
100
AcDbPoint
 10
-735.9683171284371
 20
702.3478543705365
 30
0.0
  0
POINT
  5
DA
330
D1
100
AcDbEntity
  8
Defpoints
 62
     0
440
 16777216
100
AcDbPoint
 10
-523.9799171281967
 20
702.347854370536
 30
0.0
  0
POINT
  5
DB
330
D1
100
AcDbEntity
  8
Defpoints
 62
     0
440
 16777216
100
AcDbPoint
 10
-523.9799171281967
 20
714.4189341909138
 30
0.0
  0
ENDBLK
  5
DC
330
D1
100
AcDbEntity
  8
0
 48
0.02
100
AcDbBlockEnd
  0
BLOCK
  5
E1
330
E0
100
AcDbEntity
  8
0
 48
0.02
100
AcDbBlockBegin
  2
*D4
 70
     1
 10
0.0
 20
0.0
 30
0.0
  3
*D4
  1

  0
LINE
  5
E2
330
E0
100
AcDbEntity
  8
标注线
 62
     1
440
 16777216
370
    -2
100
AcDbLine
 10
-744.1217171281894
 20
703.1798543705368
 30
0.0
 11
-744.1217171281894
 21
721.1125856677238
 31
0.0
  0
LINE
  5
E3
330
E0
100
AcDbEntity
  8
标注线
 62
     1
440
 16777216
370
    -2
100
AcDbLine
 10
-515.8265171281893
 20
703.1798543705304
 30
0.0
 11
-515.8265171281893
 21
721.1125856677238
 31
0.0
  0
LINE
  5
E4
330
E0
100
AcDbEntity
  8
标注线
 62
     0
440
 16777216
370
    -2
100
AcDbLine
 10
-741.6217171281894
 20
720.5125856677238
 30
0.0
 11
-518.3265171281894
 21
720.5125856677238
 31
0.0
  0
SOLID
  5
E5
330
E0
100
AcDbEntity
  8
标注线
 62
     0
440
 16777216
100
AcDbTrace
 10
-741.6217171281894
 20
720.9292523343904
 30
0.0
 11
-741.6217171281894
 21
720.0959190010571
 31
0.0
 12
-744.1217171281894
 22
720.5125856677238
 32
0.0
 13
-744.1217171281894
 23
720.5125856677238
 33
0.0
  0
SOLID
  5
E6
330
E0
100
AcDbEntity
  8
标注线
 62
     0
440
 16777216
100
AcDbTrace
 10
-518.3265171281894
 20
720.9292523343904
 30
0.0
 11
-518.3265171281894
 21
720.0959190010571
 31
0.0
 12
-515.8265171281893
 22
720.5125856677238
 32
0.0
 13
-515.8265171281893
 23
720.5125856677238
 33
0.0
  0
MTEXT
  5
E7
330
E0
100
AcDbEntity
  8
标注线
 62
     0
440
 16777216
100
AcDbMText
 10
-634.3179724493514
 20
722.3625856677237
 30
0.0
 40
2.5
 41
0.0
 46
0.0
 71
     5
 72
     1
  1
228.2952%%p0.102
  7
SIMPLEX
 73
     1
 44
1.0
  0
POINT
  5
E8
330
E0
100
AcDbEntity
  8
Defpoints
 62
     0
440
 16777216
100
AcDbPoint
 10
-744.1217171281894
 20
702.7798543705367
 30
0.0
  0
POINT
  5
E9
330
E0
100
AcDbEntity
  8
Defpoints
 62
     0
440
 16777216
100
AcDbPoint
 10
-515.8265171281893
 20
702.7798543705304
 30
0.0
  0
POINT
  5
EA
330
E0
100
AcDbEntity
  8
Defpoints
 62
     0
440
 16777216
100
AcDbPoint
 10
-515.8265171281893
 20
720.5125856677238
 30
0.0
  0
ENDBLK
  5
EB
330
E0
100
AcDbEntity
  8
0
 48
0.02
100
AcDbBlockEnd
  0
ENDSEC
  0
SECTION
  2
ENTITIES
  0
MTEXT
  5
97
330
2
100
AcDbEntity
  8
标注线
100
AcDbMText
 10
-1631.184660308522
 20
-65.26386559871685
 30
0.0
 40
3.5
 41
37.07655881934988
 46
0.0
 71
     1
 72
     5
  1
{\L140 UNITS/STRIP}
  7
宋体
 73
     1
 44
1.0
  0
DIMENSION
  5
9B
102
{ACAD_XDICTIONARY
360
9C
102
}
102
{ACAD_REACTORS
330
9D
102
}
330
2
100
AcDbEntity
  8
标注线
100
AcDbDimension
280
     0
  2
*D0
 10
-1725.81773293172
 20
-56.84716136485099
 30
0.0
 11
-1725.81773293172
 21
-30.69017653111155
 31
0.0
 12
-976.0503585796939
 22
-709.6650157353877
 32
0.0
 70
   128
  1
<>%%p0.051
 71
     5
 42
50.80000000000018
 73
     0
 74
     0
 75
     0
  3
副本 (2)ISO
100
AcDbAlignedDimension
 13
-1719.282675708671
 23
-6.047161364850808
 33
0.0
 14
-1719.282675707872
 24
-56.84716136485099
 34
0.0
 50
90.0
100
AcDbRotatedDimension
1001
ACAD
1000
DSTYLE
1002
{
1070
   340
1005
A7
1002
}
  0
DIMENSION
  5
AE
102
{ACAD_XDICTIONARY
360
AF
102
}
102
{ACAD_REACTORS
330
B0
102
}
330
2
100
AcDbEntity
  8
标注线
100
AcDbDimension
280
     0
  2
*D1
 10
-1646.791475708057
 20
-2.272587672593772
 30
0.0
 11
-1629.643856660438
 21
-2.272587672593772
 31
0.0
 12
-976.0503585796939
 22
-709.6650157353877
 32
0.0
 70
   128
  1
<>%%p0.025
 71
     5
 42
16.30680000001848
 73
     0
 74
     0
 75
     0
  3
副本 (2)ISO
100
AcDbAlignedDimension
 13
-1663.098275708075
 23
-7.317161364851699
 33
0.0
 14
-1646.791475708057
 24
-7.317161364851699
 34
0.0
100
AcDbRotatedDimension
1001
ACAD
1000
DSTYLE
1002
{
1070
   340
1005
A7
1002
}
  0
DIMENSION
  5
BE
102
{ACAD_XDICTIONARY
360
BF
102
}
102
{ACAD_REACTORS
330
C0
102
}
330
2
100
AcDbEntity
  8
标注线
100
AcDbDimension
280
     0
  2
*D2
 10
-1720.172075707883
 20
-1.606437390211567
 30
0.0
 11
-1696.061532850988
 21
-1.606437390211567
 31
0.0
 12
-976.0503585796939
 22
-709.6650157353877
 32
0.0
 70
   128
  1
<>%%p0.076
 71
     5
 42
8.153399999752309
 73
     0
 74
     0
 75
     0
  3
副本 (2)ISO
100
AcDbAlignedDimension
 13
-1712.018675708131
 23
-7.317161364851244
 33
0.0
 14
-1720.172075707883
 24
-6.885161364851001
 34
0.0
100
AcDbRotatedDimension
1001
ACAD
1000
DSTYLE
1002
{
1070
   340
1005
A7
1002
}
  0
DIMENSION
  5
CE
102
{ACAD_XDICTIONARY
360
CF
102
}
102
{ACAD_REACTORS
330
D0
102
}
330
2
100
AcDbEntity
  8
标注线
100
AcDbDimension
280
     0
  2
*D3
 10
-1500.030275707891
 20
4.75391845552599
 30
0.0
 11
-1610.150834286461
 21
4.75391845552599
 31
0.0
 12
-976.0503585796939
 22
-709.6650157353877
 32
0.0
 70
   128
  1
<>%%p0.038
 71
     5
 42
211.9884000002403
 73
     0
 74
     0
 75
     0
  3
副本 (2)ISO
100
AcDbAlignedDimension
 13
-1712.018675708131
 23
-7.317161364851244
 33
0.0
 14
-1500.030275707891
 24
-7.317161364851699
 34
0.0
100
AcDbRotatedDimension
1001
ACAD
1000
DSTYLE
1002
{
1070
   340
1005
A7
1002
}
  0
DIMENSION
  5
DD
102
{ACAD_XDICTIONARY
360
DE
102
}
102
{ACAD_REACTORS
330
DF
102
}
330
2
100
AcDbEntity
  8
标注线
100
AcDbDimension
280
     0
  2
*D4
 10
-1491.876875707883
 20
10.847569932336
 30
0.0
 11
-1610.368331029045
 21
10.847569932336
 31
0.0
 12
-976.0503585796939
 22
-709.6650157353877
 32
0.0
 70
   128
  1
<>%%p0.102
 71
     5
 42
228.2952
 73
     0
 74
     0
 75
     0
  3
副本 (2)ISO
100
AcDbAlignedDimension
 13
-1720.172075707883
 23
-6.885161364851001
 33
0.0
 14
-1491.876875707883
 24
-6.885161364857367
 34
0.0
100
AcDbRotatedDimension
1001
ACAD
1000
DSTYLE
1002
{
1070
   340
1005
A7
1002
}
  0
LINE
  5
EC
330
2
100
AcDbEntity
  8
CEN
 48
0.0125
100
AcDbLine
 10
-1708.324552367938
 20
-15.19116136485559
 30
0.0
 11
-1709.362799048335
 21
-15.19116136485559
 31
0.0
  0
LINE
  5
F0
330
2
100
AcDbEntity
  8
CEN
 48
0.0125
100
AcDbLine
 10
-1708.843675708148
 20
-14.67203802465678
 30
0.0
 11
-1708.843675708124
 21
-15.71028470505439
 31
0.0
  0
LINE
  5
F1
330
2
100
AcDbEntity
  8
CEN
 48
0.0125
100
AcDbLine
 10
-1714.674552367984
 20
-15.19116136485422
 30
0.0
 11
-1715.712799048381
 21
-15.19116136485422
 31
0.0
  0
LINE
  5
F2
330
2
100
AcDbEntity
  8
CEN
 48
0.0125
100
AcDbLine
 10
-1715.193675708195
 20
-14.67203802465542
 30
0.0
 11
-1715.19367570817
 21
-15.71028470505303
 31
0.0
  0
LINE
  5
F3
330
2
100
AcDbEntity
  8
CEN
 48
0.0125
100
AcDbLine
 10
-1708.324552367926
 20
-23.31916136485529
 30
0.0
 11
-1709.362799048324
 21
-23.31916136485529
 31
0.0
  0
LINE
  5
F4
330
2
100
AcDbEntity
  8
CEN
 48
0.0125
100
AcDbLine
 10
-1708.843675708137
 20
-22.80003802465649
 30
0.0
 11
-1708.843675708113
 21
-23.8382847050541
 31
0.0
  0
LINE
  5
F5
330
2
100
AcDbEntity
  8
CEN
 48
0.0125
100
AcDbLine
 10
-1714.674552367973
 20
-23.31916136485393
 30
0.0
 11
-1715.71279904837
 21
-23.31916136485393
 31
0.0
  0
LINE
  5
F6
330
2
100
AcDbEntity
  8
CEN
 48
0.0125
100
AcDbLine
 10
-1715.193675708183
 20
-22.80003802465512
 30
0.0
 11
-1715.193675708159
 21
-23.83828470505273
 31
0.0
  0
LINE
  5
F7
330
2
100
AcDbEntity
  8
CEN
 48
0.0125
100
AcDbLine
 10
-1708.324552367915
 20
-31.44716136485363
 30
0.0
 11
-1709.362799048313
 21
-31.44716136485363
 31
0.0
  0
LINE
  5
F8
330
2
100
AcDbEntity
  8
CEN
 48
0.0125
100
AcDbLine
 10
-1708.843675708125
 20
-30.92803802465482
 30
0.0
 11
-1708.843675708101
 21
-31.96628470505243
 31
0.0
  0
LINE
  5
F9
330
2
100
AcDbEntity
  8
CEN
 48
0.0125
100
AcDbLine
 10
-1714.674552367961
 20
-31.44716136485226
 30
0.0
 11
-1715.712799048359
 21
-31.44716136485226
 31
0.0
  0
LINE
  5
FA
330
2
100
AcDbEntity
  8
CEN
 48
0.0125
100
AcDbLine
 10
-1715.193675708172
 20
-30.92803802465346
 30
0.0
 11
-1715.193675708148
 21
-31.96628470505107
 31
0.0
  0
LINE
  5
FB
330
2
100
AcDbEntity
  8
CEN
 48
0.0125
100
AcDbLine
 10
-1708.324552367915
 20
-39.5751613648547
 30
0.0
 11
-1709.362799048313
 21
-39.5751613648547
 31
0.0
  0
LINE
  5
FC
330
2
100
AcDbEntity
  8
CEN
 48
0.0125
100
AcDbLine
 10
-1708.843675708125
 20
-39.05603802465634
 30
0.0
 11
-1708.843675708101
 21
-40.09428470505395
 31
0.0
  0
LINE
  5
FD
330
2
100
AcDbEntity
  8
CEN
 48
0.0125
100
AcDbLine
 10
-1714.674552367961
 20
-39.57516136485379
 30
0.0
 11
-1715.712799048359
 21
-39.57516136485379
 31
0.0
  0
LINE
  5
FE
330
2
100
AcDbEntity
  8
CEN
 48
0.0125
100
AcDbLine
 10
-1715.193675708172
 20
-39.05603802465498
 30
0.0
 11
-1715.193675708148
 21
-40.09428470505213
 31
0.0
  0
LINE
  5
FF
330
2
100
AcDbEntity
  8
CEN
 48
0.0125
100
AcDbLine
 10
-1708.324552367903
 20
-47.70316136485166
 30
0.0
 11
-1709.362799048301
 21
-47.70316136485166
 31
0.0
  0
LINE
  5
100
330
2
100
AcDbEntity
  8
CEN
 48
0.0125
100
AcDbLine
 10
-1708.843675708114
 20
-47.18403802465331
 30
0.0
 11
-1708.84367570809
 21
-48.22228470505092
 31
0.0
  0
LINE
  5
101
330
2
100
AcDbEntity
  8
CEN
 48
0.0125
100
AcDbLine
 10
-1714.674552367949
 20
-47.70316136485075
 30
0.0
 11
-1715.712799048347
 21
-47.70316136485075
 31
0.0
  0
LINE
  5
102
330
2
100
AcDbEntity
  8
CEN
 48
0.0125
100
AcDbLine
 10
-1715.19367570816
 20
-47.18403802465195
 30
0.0
 11
-1715.193675708136
 21
-48.2222847050491
 31
0.0
  0
ARC
  5
103
330
2
100
AcDbEntity
  8
D Frame
100
AcDbCircle
 10
-1720.172075708134
 20
-12.27016136485713
 30
0.0
 40
0.6350000000052205
100
AcDbArc
 50
0.0000000005211021
 51
90.00000000054717
  0
LINE
  5
105
330
2
100
AcDbEntity
  8
D Frame
100
AcDbLine
 10
-1719.537075708138
 20
-15.66804661904939
 30
0.0
 11
-1719.537075708129
 21
-12.27016136485122
 31
0.0
  0
ARC
  5
106
330
2
100
AcDbEntity
  8
D Frame
100
AcDbCircle
 10
-1720.172075708138
 20
-16.46116136485147
 30
0.0
 40
1.01600000000473
100
AcDbArc
 50
308.6821874542581
 51
51.31781254667787
  0
LINE
  5
107
330
2
100
AcDbEntity
  8
D Frame
100
AcDbLine
 10
-1719.537075708126
 20
-31.92404661906062
 30
0.0
 11
-1719.537075708124
 21
-17.25427611064356
 31
0.0
  0
ARC
  5
108
330
2
100
AcDbEntity
  8
D Frame
100
AcDbCircle
 10
-1720.172075708129
 20
-32.71716136485316
 30
0.0
 40
1.015999999998406
100
AcDbArc
 50
308.6821874538552
 51
51.31781254624247
  0
LINE
  5
109
330
2
100
AcDbEntity
  8
D Frame
100
AcDbLine
 10
-1719.537075708126
 20
-48.18004661906002
 30
0.0
 11
-1719.537075708124
 21
-33.51027611064433
 31
0.0
  0
ARC
  5
10A
330
2
100
AcDbEntity
  8
D Frame
100
AcDbCircle
 10
-1720.172075708129
 20
-48.97316136485301
 30
0.0
 40
1.015999999998406
100
AcDbArc
 50
308.6821874538552
 51
51.31781254624247
  0
LINE
  5
10B
330
2
100
AcDbEntity
  8
D Frame
100
AcDbLine
 10
-1719.537075708126
 20
-50.62416136485103
 30
0.0
 11
-1719.537075708124
 21
-49.76627611064419
 31
0.0
  0
ARC
  5
10C
330
2
100
AcDbEntity
  8
D Frame
100
AcDbCircle
 10
-1720.172075708127
 20
-50.62416136484967
 30
0.0
 40
0.6350000000012415
100
AcDbArc
 50
269.9999999998958
 51
359.9999999998697
  0
CIRCLE
  5
10D
330
2
100
AcDbEntity
  8
D Frame
100
AcDbCircle
 10
-1714.558675708128
 20
-7.317161364851244
 30
0.0
 40
0.508
  0
ARC
  5
10E
330
2
100
AcDbEntity
  8
D Frame
100
AcDbCircle
 10
-1707.700675708129
 20
-7.317161364851244
 30
0.0
 40
0.7619999999993752
100
AcDbArc
 50
270.0
 51
90.0
  0
LINE
  5
10F
330
2
100
AcDbEntity
  8
D Frame
100
AcDbLine
 10
-1708.208675708129
 20
-8.079161364850506
 30
0.0
 11
-1707.700675708129
 21
-8.079161364850506
 31
0.0
  0
ARC
  5
110
330
2
100
AcDbEntity
  8
D Frame
100
AcDbCircle
 10
-1708.208675708129
 20
-7.31716136485079
 30
0.0
 40
0.7619999999996594
100
AcDbArc
 50
90.0
 51
270.0
  0
LINE
  5
111
330
2
100
AcDbEntity
  8
D Frame
100
AcDbLine
 10
-1707.700675708129
 20
-6.555161364851983
 30
0.0
 11
-1708.208675708129
 21
-6.555161364851528
 31
0.0
  0
CIRCLE
  5
112
102
{ACAD_REACTORS
330
D0
330
C0
102
}
330
2
100
AcDbEntity
  8
D Frame
100
AcDbCircle
 10
-1712.018675708131
 20
-7.317161364851244
 30
0.0
 40
0.762
  0
CIRCLE
  5
113
330
2
100
AcDbEntity
  8
D Frame
100
AcDbCircle
 10
-1712.018675708131
 20
-55.57716136485055
 30
0.0
 40
0.762
  0
LINE
  5
114
330
2
100
AcDbEntity
  8
CEN
 48
0.0125
100
AcDbLine
 10
-1692.017752367919
 20
-15.19116136485559
 30
0.0
 11
-1693.055999048317
 21
-15.19116136485559
 31
0.0
  0
LINE
  5
115
330
2
100
AcDbEntity
  8
CEN
 48
0.0125
100
AcDbLine
 10
-1692.53687570813
 20
-14.67203802465678
 30
0.0
 11
-1692.536875708106
 21
-15.71028470505439
 31
0.0
  0
LINE
  5
116
330
2
100
AcDbEntity
  8
CEN
 48
0.0125
100
AcDbLine
 10
-1698.367752367965
 20
-15.19116136485422
 30
0.0
 11
-1699.405999048362
 21
-15.19116136485422
 31
0.0
  0
LINE
  5
117
330
2
100
AcDbEntity
  8
CEN
 48
0.0125
100
AcDbLine
 10
-1698.886875708176
 20
-14.67203802465542
 30
0.0
 11
-1698.886875708152
 21
-15.71028470505303
 31
0.0
  0
LINE
  5
118
330
2
100
AcDbEntity
  8
CEN
 48
0.0125
100
AcDbLine
 10
-1692.017752367907
 20
-23.31916136485529
 30
0.0
 11
-1693.055999048305
 21
-23.31916136485529
 31
0.0
  0
LINE
  5
119
330
2
100
AcDbEntity
  8
CEN
 48
0.0125
100
AcDbLine
 10
-1692.536875708119
 20
-22.80003802465649
 30
0.0
 11
-1692.536875708094
 21
-23.8382847050541
 31
0.0
  0
LINE
  5
11A
330
2
100
AcDbEntity
  8
CEN
 48
0.0125
100
AcDbLine
 10
-1698.367752367954
 20
-23.31916136485393
 30
0.0
 11
-1699.405999048352
 21
-23.31916136485393
 31
0.0
  0
LINE
  5
11B
330
2
100
AcDbEntity
  8
CEN
 48
0.0125
100
AcDbLine
 10
-1698.886875708165
 20
-22.80003802465512
 30
0.0
 11
-1698.886875708141
 21
-23.83828470505273
 31
0.0
  0
LINE
  5
11C
330
2
100
AcDbEntity
  8
CEN
 48
0.0125
100
AcDbLine
 10
-1692.017752367896
 20
-31.44716136485363
 30
0.0
 11
-1693.055999048294
 21
-31.44716136485363
 31
0.0
  0
LINE
  5
11D
330
2
100
AcDbEntity
  8
CEN
 48
0.0125
100
AcDbLine
 10
-1692.536875708107
 20
-30.92803802465482
 30
0.0
 11
-1692.536875708083
 21
-31.96628470505243
 31
0.0
  0
LINE
  5
11E
330
2
100
AcDbEntity
  8
CEN
 48
0.0125
100
AcDbLine
 10
-1698.367752367942
 20
-31.44716136485226
 30
0.0
 11
-1699.40599904834
 21
-31.44716136485226
 31
0.0
  0
LINE
  5
11F
330
2
100
AcDbEntity
  8
CEN
 48
0.0125
100
AcDbLine
 10
-1698.886875708154
 20
-30.92803802465346
 30
0.0
 11
-1698.886875708129
 21
-31.96628470505107
 31
0.0
  0
LINE
  5
120
330
2
100
AcDbEntity
  8
CEN
 48
0.0125
100
AcDbLine
 10
-1692.017752367896
 20
-39.5751613648547
 30
0.0
 11
-1693.055999048294
 21
-39.5751613648547
 31
0.0
  0
LINE
  5
121
330
2
100
AcDbEntity
  8
CEN
 48
0.0125
100
AcDbLine
 10
-1692.536875708107
 20
-39.05603802465634
 30
0.0
 11
-1692.536875708083
 21
-40.09428470505395
 31
0.0
  0
LINE
  5
122
330
2
100
AcDbEntity
  8
CEN
 48
0.0125
100
AcDbLine
 10
-1698.367752367942
 20
-39.57516136485379
 30
0.0
 11
-1699.40599904834
 21
-39.57516136485379
 31
0.0
  0
LINE
  5
123
330
2
100
AcDbEntity
  8
CEN
 48
0.0125
100
AcDbLine
 10
-1698.886875708154
 20
-39.05603802465498
 30
0.0
 11
-1698.886875708129
 21
-40.09428470505213
 31
0.0
  0
LINE
  5
124
330
2
100
AcDbEntity
  8
CEN
 48
0.0125
100
AcDbLine
 10
-1692.017752367885
 20
-47.70316136485166
 30
0.0
 11
-1693.055999048282
 21
-47.70316136485166
 31
0.0
  0
LINE
  5
125
330
2
100
AcDbEntity
  8
CEN
 48
0.0125
100
AcDbLine
 10
-1692.536875708096
 20
-47.18403802465331
 30
0.0
 11
-1692.536875708071
 21
-48.22228470505092
 31
0.0
  0
LINE
  5
126
330
2
100
AcDbEntity
  8
CEN
 48
0.0125
100
AcDbLine
 10
-1698.36775236793
 20
-47.70316136485075
 30
0.0
 11
-1699.405999048328
 21
-47.70316136485075
 31
0.0
  0
LINE
  5
127
330
2
100
AcDbEntity
  8
CEN
 48
0.0125
100
AcDbLine
 10
-1698.886875708142
 20
-47.18403802465195
 30
0.0
 11
-1698.886875708118
 21
-48.2222847050491
 31
0.0
  0
ARC
  5
128
330
2
100
AcDbEntity
  8
D Frame
100
AcDbCircle
 10
-1703.865275708128
 20
-12.27016136485713
 30
0.0
 40
0.6350000000052205
100
AcDbArc
 50
89.99999999942678
 51
179.9999999994528
  0
LINE
  5
129
330
2
100
AcDbEntity
  8
D Frame
100
AcDbLine
 10
-1704.500275708124
 20
-15.66804661904939
 30
0.0
 11
-1704.500275708133
 21
-12.27016136485122
 31
0.0
  0
ARC
  5
12A
330
2
100
AcDbEntity
  8
D Frame
100
AcDbCircle
 10
-1703.865275708124
 20
-16.46116136485147
 30
0.0
 40
1.01600000000473
100
AcDbArc
 50
128.6821874533221
 51
231.3178125457419
  0
LINE
  5
12B
330
2
100
AcDbEntity
  8
D Frame
100
AcDbLine
 10
-1704.500275708135
 20
-31.92404661906062
 30
0.0
 11
-1704.500275708137
 21
-17.25427611064356
 31
0.0
  0
ARC
  5
12C
330
2
100
AcDbEntity
  8
D Frame
100
AcDbCircle
 10
-1703.865275708133
 20
-32.71716136485316
 30
0.0
 40
1.015999999998406
100
AcDbArc
 50
128.6821874537575
 51
231.3178125461448
  0
LINE
  5
12D
330
2
100
AcDbEntity
  8
D Frame
100
AcDbLine
 10
-1704.500275708135
 20
-48.18004661906002
 30
0.0
 11
-1704.500275708137
 21
-33.51027611064433
 31
0.0
  0
ARC
  5
12E
330
2
100
AcDbEntity
  8
D Frame
100
AcDbCircle
 10
-1703.865275708133
 20
-48.97316136485301
 30
0.0
 40
1.015999999998406
100
AcDbArc
 50
128.6821874537575
 51
231.3178125461448
  0
LINE
  5
12F
330
2
100
AcDbEntity
  8
D Frame
100
AcDbLine
 10
-1704.500275708135
 20
-50.62416136485103
 30
0.0
 11
-1704.500275708137
 21
-49.76627611064419
 31
0.0
  0
ARC
  5
130
330
2
100
AcDbEntity
  8
D Frame
100
AcDbCircle
 10
-1703.865275708134
 20
-50.62416136484967
 30
0.0
 40
0.6350000000012415
100
AcDbArc
 50
180.0000000001042
 51
270.0000000001042
  0
ARC
  5
131
330
2
100
AcDbEntity
  8
D Frame
100
AcDbCircle
 10
-1703.865275708115
 20
-12.27016136485713
 30
0.0
 40
0.6350000000052205
100
AcDbArc
 50
0.0000000005211021
 51
90.00000000054717
  0
LINE
  5
132
330
2
100
AcDbEntity
  8
D Frame
100
AcDbLine
 10
-1703.230275708119
 20
-15.66804661904939
 30
0.0
 11
-1703.23027570811
 21
-12.27016136485122
 31
0.0
  0
ARC
  5
133
330
2
100
AcDbEntity
  8
D Frame
100
AcDbCircle
 10
-1703.86527570812
 20
-16.46116136485147
 30
0.0
 40
1.01600000000473
100
AcDbArc
 50
308.6821874542581
 51
51.31781254667787
  0
LINE
  5
134
330
2
100
AcDbEntity
  8
D Frame
100
AcDbLine
 10
-1703.230275708108
 20
-31.92404661906062
 30
0.0
 11
-1703.230275708106
 21
-17.25427611064356
 31
0.0
  0
ARC
  5
135
330
2
100
AcDbEntity
  8
D Frame
100
AcDbCircle
 10
-1703.86527570811
 20
-32.71716136485316
 30
0.0
 40
1.015999999998406
100
AcDbArc
 50
308.6821874538552
 51
51.31781254624247
  0
LINE
  5
136
330
2
100
AcDbEntity
  8
D Frame
100
AcDbLine
 10
-1703.230275708108
 20
-48.18004661906002
 30
0.0
 11
-1703.230275708106
 21
-33.51027611064433
 31
0.0
  0
ARC
  5
137
330
2
100
AcDbEntity
  8
D Frame
100
AcDbCircle
 10
-1703.86527570811
 20
-48.97316136485301
 30
0.0
 40
1.015999999998406
100
AcDbArc
 50
308.6821874538552
 51
51.31781254624247
  0
LINE
  5
138
330
2
100
AcDbEntity
  8
D Frame
100
AcDbLine
 10
-1703.230275708108
 20
-50.62416136485103
 30
0.0
 11
-1703.230275708106
 21
-49.76627611064419
 31
0.0
  0
ARC
  5
139
330
2
100
AcDbEntity
  8
D Frame
100
AcDbCircle
 10
-1703.865275708109
 20
-50.62416136484967
 30
0.0
 40
0.6350000000012415
100
AcDbArc
 50
269.9999999998958
 51
359.9999999998697
  0
CIRCLE
  5
13A
330
2
100
AcDbEntity
  8
D Frame
100
AcDbCircle
 10
-1698.25187570811
 20
-7.317161364851244
 30
0.0
 40
0.508
  0
ARC
  5
13B
330
2
100
AcDbEntity
  8
D Frame
100
AcDbCircle
 10
-1691.39387570811
 20
-7.317161364851244
 30
0.0
 40
0.7619999999993752
100
AcDbArc
 50
270.0
 51
90.0
  0
LINE
  5
13C
330
2
100
AcDbEntity
  8
D Frame
100
AcDbLine
 10
-1691.90187570811
 20
-8.079161364850506
 30
0.0
 11
-1691.39387570811
 21
-8.079161364850506
 31
0.0
  0
ARC
  5
13D
330
2
100
AcDbEntity
  8
D Frame
100
AcDbCircle
 10
-1691.90187570811
 20
-7.31716136485079
 30
0.0
 40
0.7619999999996594
100
AcDbArc
 50
90.0
 51
270.0
  0
LINE
  5
13E
330
2
100
AcDbEntity
  8
D Frame
100
AcDbLine
 10
-1691.39387570811
 20
-6.555161364851983
 30
0.0
 11
-1691.90187570811
 21
-6.555161364851528
 31
0.0
  0
CIRCLE
  5
13F
330
2
100
AcDbEntity
  8
D Frame
100
AcDbCircle
 10
-1695.711875708112
 20
-7.317161364851244
 30
0.0
 40
0.762
  0
CIRCLE
  5
140
330
2
100
AcDbEntity
  8
D Frame
100
AcDbCircle
 10
-1695.711875708112
 20
-55.57716136485055
 30
0.0
 40
0.762
  0
LINE
  5
141
330
2
100
AcDbEntity
  8
CEN
 48
0.0125
100
AcDbLine
 10
-1675.710952367901
 20
-15.19116136485604
 30
0.0
 11
-1676.749199048298
 21
-15.19116136485604
 31
0.0
  0
LINE
  5
142
330
2
100
AcDbEntity
  8
CEN
 48
0.0125
100
AcDbLine
 10
-1676.230075708112
 20
-14.67203802465724
 30
0.0
 11
-1676.230075708087
 21
-15.71028470505484
 31
0.0
  0
LINE
  5
143
330
2
100
AcDbEntity
  8
CEN
 48
0.0125
100
AcDbLine
 10
-1682.060952367947
 20
-15.19116136485422
 30
0.0
 11
-1683.099199048344
 21
-15.19116136485422
 31
0.0
  0
LINE
  5
144
330
2
100
AcDbEntity
  8
CEN
 48
0.0125
100
AcDbLine
 10
-1682.580075708158
 20
-14.67203802465542
 30
0.0
 11
-1682.580075708134
 21
-15.71028470505303
 31
0.0
  0
LINE
  5
145
330
2
100
AcDbEntity
  8
CEN
 48
0.0125
100
AcDbLine
 10
-1675.710952367889
 20
-23.31916136485574
 30
0.0
 11
-1676.749199048287
 21
-23.31916136485574
 31
0.0
  0
LINE
  5
146
330
2
100
AcDbEntity
  8
CEN
 48
0.0125
100
AcDbLine
 10
-1676.2300757081
 20
-22.80003802465694
 30
0.0
 11
-1676.230075708076
 21
-23.83828470505455
 31
0.0
  0
LINE
  5
147
330
2
100
AcDbEntity
  8
CEN
 48
0.0125
100
AcDbLine
 10
-1682.060952367936
 20
-23.31916136485393
 30
0.0
 11
-1683.099199048333
 21
-23.31916136485393
 31
0.0
  0
LINE
  5
148
330
2
100
AcDbEntity
  8
CEN
 48
0.0125
100
AcDbLine
 10
-1682.580075708147
 20
-22.80003802465512
 30
0.0
 11
-1682.580075708122
 21
-23.83828470505273
 31
0.0
  0
LINE
  5
149
330
2
100
AcDbEntity
  8
CEN
 48
0.0125
100
AcDbLine
 10
-1675.710952367878
 20
-31.44716136485409
 30
0.0
 11
-1676.749199048276
 21
-31.44716136485409
 31
0.0
  0
LINE
  5
14A
330
2
100
AcDbEntity
  8
CEN
 48
0.0125
100
AcDbLine
 10
-1676.230075708089
 20
-30.92803802465528
 30
0.0
 11
-1676.230075708065
 21
-31.96628470505288
 31
0.0
  0
LINE
  5
14B
330
2
100
AcDbEntity
  8
CEN
 48
0.0125
100
AcDbLine
 10
-1682.060952367924
 20
-31.44716136485226
 30
0.0
 11
-1683.099199048321
 21
-31.44716136485226
 31
0.0
  0
LINE
  5
14C
330
2
100
AcDbEntity
  8
CEN
 48
0.0125
100
AcDbLine
 10
-1682.580075708135
 20
-30.92803802465346
 30
0.0
 11
-1682.580075708111
 21
-31.96628470505107
 31
0.0
  0
LINE
  5
14D
330
2
100
AcDbEntity
  8
CEN
 48
0.0125
100
AcDbLine
 10
-1675.710952367878
 20
-39.57516136485515
 30
0.0
 11
-1676.749199048276
 21
-39.57516136485515
 31
0.0
  0
LINE
  5
14E
330
2
100
AcDbEntity
  8
CEN
 48
0.0125
100
AcDbLine
 10
-1676.230075708089
 20
-39.0560380246568
 30
0.0
 11
-1676.230075708065
 21
-40.0942847050544
 31
0.0
  0
LINE
  5
14F
330
2
100
AcDbEntity
  8
CEN
 48
0.0125
100
AcDbLine
 10
-1682.060952367924
 20
-39.57516136485379
 30
0.0
 11
-1683.099199048321
 21
-39.57516136485379
 31
0.0
  0
LINE
  5
150
330
2
100
AcDbEntity
  8
CEN
 48
0.0125
100
AcDbLine
 10
-1682.580075708135
 20
-39.05603802465498
 30
0.0
 11
-1682.580075708111
 21
-40.09428470505213
 31
0.0
  0
LINE
  5
151
330
2
100
AcDbEntity
  8
CEN
 48
0.0125
100
AcDbLine
 10
-1675.710952367866
 20
-47.70316136485212
 30
0.0
 11
-1676.749199048264
 21
-47.70316136485212
 31
0.0
  0
LINE
  5
152
330
2
100
AcDbEntity
  8
CEN
 48
0.0125
100
AcDbLine
 10
-1676.230075708077
 20
-47.18403802465377
 30
0.0
 11
-1676.230075708053
 21
-48.22228470505137
 31
0.0
  0
LINE
  5
153
330
2
100
AcDbEntity
  8
CEN
 48
0.0125
100
AcDbLine
 10
-1682.060952367912
 20
-47.70316136485075
 30
0.0
 11
-1683.09919904831
 21
-47.70316136485075
 31
0.0
  0
LINE
  5
154
330
2
100
AcDbEntity
  8
CEN
 48
0.0125
100
AcDbLine
 10
-1682.580075708123
 20
-47.18403802465195
 30
0.0
 11
-1682.580075708099
 21
-48.2222847050491
 31
0.0
  0
ARC
  5
155
330
2
100
AcDbEntity
  8
D Frame
100
AcDbCircle
 10
-1687.558475708109
 20
-12.27016136485713
 30
0.0
 40
0.6350000000052205
100
AcDbArc
 50
89.99999999942678
 51
179.9999999994528
  0
LINE
  5
156
330
2
100
AcDbEntity
  8
D Frame
100
AcDbLine
 10
-1688.193475708106
 20
-15.66804661904939
 30
0.0
 11
-1688.193475708114
 21
-12.27016136485122
 31
0.0
  0
ARC
  5
157
330
2
100
AcDbEntity
  8
D Frame
100
AcDbCircle
 10
-1687.558475708105
 20
-16.46116136485147
 30
0.0
 40
1.01600000000473
100
AcDbArc
 50
128.6821874533221
 51
231.3178125457419
  0
LINE
  5
158
330
2
100
AcDbEntity
  8
D Frame
100
AcDbLine
 10
-1688.193475708117
 20
-31.92404661906062
 30
0.0
 11
-1688.193475708119
 21
-17.25427611064356
 31
0.0
  0
ARC
  5
159
330
2
100
AcDbEntity
  8
D Frame
100
AcDbCircle
 10
-1687.558475708114
 20
-32.71716136485316
 30
0.0
 40
1.015999999998406
100
AcDbArc
 50
128.6821874537575
 51
231.3178125461448
  0
LINE
  5
15A
330
2
100
AcDbEntity
  8
D Frame
100
AcDbLine
 10
-1688.193475708117
 20
-48.18004661906002
 30
0.0
 11
-1688.193475708119
 21
-33.51027611064433
 31
0.0
  0
ARC
  5
15B
330
2
100
AcDbEntity
  8
D Frame
100
AcDbCircle
 10
-1687.558475708114
 20
-48.97316136485301
 30
0.0
 40
1.015999999998406
100
AcDbArc
 50
128.6821874537575
 51
231.3178125461448
  0
LINE
  5
15C
330
2
100
AcDbEntity
  8
D Frame
100
AcDbLine
 10
-1688.193475708117
 20
-50.62416136485103
 30
0.0
 11
-1688.193475708119
 21
-49.76627611064419
 31
0.0
  0
ARC
  5
15D
330
2
100
AcDbEntity
  8
D Frame
100
AcDbCircle
 10
-1687.558475708116
 20
-50.62416136484967
 30
0.0
 40
0.6350000000012415
100
AcDbArc
 50
180.0000000001042
 51
270.0000000001042
  0
ARC
  5
15E
330
2
100
AcDbEntity
  8
D Frame
100
AcDbCircle
 10
-1687.558475708097
 20
-12.27016136485713
 30
0.0
 40
0.6350000000052205
100
AcDbArc
 50
0.0000000005211021
 51
90.00000000054717
  0
LINE
  5
15F
330
2
100
AcDbEntity
  8
D Frame
100
AcDbLine
 10
-1686.923475708101
 20
-15.66804661904939
 30
0.0
 11
-1686.923475708092
 21
-12.27016136485122
 31
0.0
  0
ARC
  5
160
330
2
100
AcDbEntity
  8
D Frame
100
AcDbCircle
 10
-1687.558475708101
 20
-16.46116136485147
 30
0.0
 40
1.01600000000473
100
AcDbArc
 50
308.6821874542581
 51
51.31781254667787
  0
LINE
  5
161
330
2
100
AcDbEntity
  8
D Frame
100
AcDbLine
 10
-1686.923475708089
 20
-31.92404661906062
 30
0.0
 11
-1686.923475708087
 21
-17.25427611064356
 31
0.0
  0
ARC
  5
162
330
2
100
AcDbEntity
  8
D Frame
100
AcDbCircle
 10
-1687.558475708092
 20
-32.71716136485316
 30
0.0
 40
1.015999999998406
100
AcDbArc
 50
308.6821874538552
 51
51.31781254624247
  0
LINE
  5
163
330
2
100
AcDbEntity
  8
D Frame
100
AcDbLine
 10
-1686.923475708089
 20
-48.18004661906002
 30
0.0
 11
-1686.923475708087
 21
-33.51027611064433
 31
0.0
  0
ARC
  5
164
330
2
100
AcDbEntity
  8
D Frame
100
AcDbCircle
 10
-1687.558475708092
 20
-48.97316136485301
 30
0.0
 40
1.015999999998406
100
AcDbArc
 50
308.6821874538552
 51
51.31781254624247
  0
LINE
  5
165
330
2
100
AcDbEntity
  8
D Frame
100
AcDbLine
 10
-1686.923475708089
 20
-50.62416136485103
 30
0.0
 11
-1686.923475708087
 21
-49.76627611064419
 31
0.0
  0
ARC
  5
166
330
2
100
AcDbEntity
  8
D Frame
100
AcDbCircle
 10
-1687.55847570809
 20
-50.62416136484967
 30
0.0
 40
0.6350000000012415
100
AcDbArc
 50
269.9999999998958
 51
359.9999999998697
  0
CIRCLE
  5
167
330
2
100
AcDbEntity
  8
D Frame
100
AcDbCircle
 10
-1681.945075708092
 20
-7.317161364851244
 30
0.0
 40
0.508
  0
ARC
  5
168
330
2
100
AcDbEntity
  8
D Frame
100
AcDbCircle
 10
-1675.087075708092
 20
-7.317161364851699
 30
0.0
 40
0.7619999999993752
100
AcDbArc
 50
270.0
 51
90.0
  0
LINE
  5
169
330
2
100
AcDbEntity
  8
D Frame
100
AcDbLine
 10
-1675.595075708091
 20
-8.079161364850961
 30
0.0
 11
-1675.087075708092
 21
-8.079161364850961
 31
0.0
  0
ARC
  5
16A
330
2
100
AcDbEntity
  8
D Frame
100
AcDbCircle
 10
-1675.595075708091
 20
-7.317161364851244
 30
0.0
 40
0.7619999999996594
100
AcDbArc
 50
90.0
 51
270.0
  0
LINE
  5
16B
330
2
100
AcDbEntity
  8
D Frame
100
AcDbLine
 10
-1675.087075708092
 20
-6.555161364852438
 30
0.0
 11
-1675.595075708091
 21
-6.555161364851983
 31
0.0
  0
CIRCLE
  5
16C
330
2
100
AcDbEntity
  8
D Frame
100
AcDbCircle
 10
-1679.405075708094
 20
-7.317161364851699
 30
0.0
 40
0.762
  0
CIRCLE
  5
16D
330
2
100
AcDbEntity
  8
D Frame
100
AcDbCircle
 10
-1679.405075708094
 20
-55.57716136485101
 30
0.0
 40
0.762
  0
LINE
  5
16E
330
2
100
AcDbEntity
  8
CEN
 48
0.0125
100
AcDbLine
 10
-1659.404152367882
 20
-15.19116136485604
 30
0.0
 11
-1660.44239904828
 21
-15.19116136485604
 31
0.0
  0
LINE
  5
16F
330
2
100
AcDbEntity
  8
CEN
 48
0.0125
100
AcDbLine
 10
-1659.923275708093
 20
-14.67203802465724
 30
0.0
 11
-1659.923275708069
 21
-15.71028470505484
 31
0.0
  0
LINE
  5
170
330
2
100
AcDbEntity
  8
CEN
 48
0.0125
100
AcDbLine
 10
-1665.754152367928
 20
-15.19116136485468
 30
0.0
 11
-1666.792399048326
 21
-15.19116136485468
 31
0.0
  0
LINE
  5
171
330
2
100
AcDbEntity
  8
CEN
 48
0.0125
100
AcDbLine
 10
-1666.273275708139
 20
-14.67203802465587
 30
0.0
 11
-1666.273275708115
 21
-15.71028470505348
 31
0.0
  0
LINE
  5
172
330
2
100
AcDbEntity
  8
CEN
 48
0.0125
100
AcDbLine
 10
-1659.404152367871
 20
-23.31916136485574
 30
0.0
 11
-1660.442399048268
 21
-23.31916136485574
 31
0.0
  0
LINE
  5
173
330
2
100
AcDbEntity
  8
CEN
 48
0.0125
100
AcDbLine
 10
-1659.923275708082
 20
-22.80003802465694
 30
0.0
 11
-1659.923275708058
 21
-23.83828470505455
 31
0.0
  0
LINE
  5
174
330
2
100
AcDbEntity
  8
CEN
 48
0.0125
100
AcDbLine
 10
-1665.754152367917
 20
-23.31916136485438
 30
0.0
 11
-1666.792399048315
 21
-23.31916136485438
 31
0.0
  0
LINE
  5
175
330
2
100
AcDbEntity
  8
CEN
 48
0.0125
100
AcDbLine
 10
-1666.273275708128
 20
-22.80003802465558
 30
0.0
 11
-1666.273275708103
 21
-23.83828470505318
 31
0.0
  0
LINE
  5
176
330
2
100
AcDbEntity
  8
CEN
 48
0.0125
100
AcDbLine
 10
-1659.40415236786
 20
-31.44716136485409
 30
0.0
 11
-1660.442399048257
 21
-31.44716136485409
 31
0.0
  0
LINE
  5
177
330
2
100
AcDbEntity
  8
CEN
 48
0.0125
100
AcDbLine
 10
-1659.92327570807
 20
-30.92803802465528
 30
0.0
 11
-1659.923275708046
 21
-31.96628470505288
 31
0.0
  0
LINE
  5
178
330
2
100
AcDbEntity
  8
CEN
 48
0.0125
100
AcDbLine
 10
-1665.754152367906
 20
-31.44716136485272
 30
0.0
 11
-1666.792399048303
 21
-31.44716136485272
 31
0.0
  0
LINE
  5
179
330
2
100
AcDbEntity
  8
CEN
 48
0.0125
100
AcDbLine
 10
-1666.273275708116
 20
-30.92803802465392
 30
0.0
 11
-1666.273275708092
 21
-31.96628470505152
 31
0.0
  0
LINE
  5
17A
330
2
100
AcDbEntity
  8
CEN
 48
0.0125
100
AcDbLine
 10
-1659.40415236786
 20
-39.57516136485515
 30
0.0
 11
-1660.442399048257
 21
-39.57516136485515
 31
0.0
  0
LINE
  5
17B
330
2
100
AcDbEntity
  8
CEN
 48
0.0125
100
AcDbLine
 10
-1659.92327570807
 20
-39.0560380246568
 30
0.0
 11
-1659.923275708046
 21
-40.0942847050544
 31
0.0
  0
LINE
  5
17C
330
2
100
AcDbEntity
  8
CEN
 48
0.0125
100
AcDbLine
 10
-1665.754152367906
 20
-39.57516136485424
 30
0.0
 11
-1666.792399048303
 21
-39.57516136485424
 31
0.0
  0
LINE
  5
17D
330
2
100
AcDbEntity
  8
CEN
 48
0.0125
100
AcDbLine
 10
-1666.273275708116
 20
-39.05603802465544
 30
0.0
 11
-1666.273275708092
 21
-40.09428470505258
 31
0.0
  0
LINE
  5
17E
330
2
100
AcDbEntity
  8
CEN
 48
0.0125
100
AcDbLine
 10
-1659.404152367848
 20
-47.70316136485212
 30
0.0
 11
-1660.442399048245
 21
-47.70316136485212
 31
0.0
  0
LINE
  5
17F
330
2
100
AcDbEntity
  8
CEN
 48
0.0125
100
AcDbLine
 10
-1659.923275708058
 20
-47.18403802465377
 30
0.0
 11
-1659.923275708034
 21
-48.22228470505137
 31
0.0
  0
LINE
  5
180
330
2
100
AcDbEntity
  8
CEN
 48
0.0125
100
AcDbLine
 10
-1665.754152367894
 20
-47.70316136485121
 30
0.0
 11
-1666.792399048291
 21
-47.70316136485121
 31
0.0
  0
LINE
  5
181
330
2
100
AcDbEntity
  8
CEN
 48
0.0125
100
AcDbLine
 10
-1666.273275708105
 20
-47.18403802465241
 30
0.0
 11
-1666.27327570808
 21
-48.22228470504956
 31
0.0
  0
ARC
  5
182
330
2
100
AcDbEntity
  8
D Frame
100
AcDbCircle
 10
-1671.251675708091
 20
-12.27016136485758
 30
0.0
 40
0.6350000000052205
100
AcDbArc
 50
89.99999999942678
 51
179.9999999994528
  0
LINE
  5
183
330
2
100
AcDbEntity
  8
D Frame
100
AcDbLine
 10
-1671.886675708087
 20
-15.66804661904984
 30
0.0
 11
-1671.886675708096
 21
-12.27016136485167
 31
0.0
  0
ARC
  5
184
330
2
100
AcDbEntity
  8
D Frame
100
AcDbCircle
 10
-1671.251675708086
 20
-16.46116136485193
 30
0.0
 40
1.01600000000473
100
AcDbArc
 50
128.6821874533221
 51
231.3178125457419
  0
LINE
  5
185
330
2
100
AcDbEntity
  8
D Frame
100
AcDbLine
 10
-1671.886675708099
 20
-31.92404661906107
 30
0.0
 11
-1671.8866757081
 21
-17.25427611064401
 31
0.0
  0
ARC
  5
186
330
2
100
AcDbEntity
  8
D Frame
100
AcDbCircle
 10
-1671.251675708096
 20
-32.71716136485361
 30
0.0
 40
1.015999999998406
100
AcDbArc
 50
128.6821874537575
 51
231.3178125461448
  0
LINE
  5
187
330
2
100
AcDbEntity
  8
D Frame
100
AcDbLine
 10
-1671.886675708099
 20
-48.18004661906048
 30
0.0
 11
-1671.8866757081
 21
-33.51027611064478
 31
0.0
  0
ARC
  5
188
330
2
100
AcDbEntity
  8
D Frame
100
AcDbCircle
 10
-1671.251675708096
 20
-48.97316136485347
 30
0.0
 40
1.015999999998406
100
AcDbArc
 50
128.6821874537575
 51
231.3178125461448
  0
LINE
  5
189
330
2
100
AcDbEntity
  8
D Frame
100
AcDbLine
 10
-1671.886675708099
 20
-50.62416136485149
 30
0.0
 11
-1671.8866757081
 21
-49.76627611064464
 31
0.0
  0
ARC
  5
18A
330
2
100
AcDbEntity
  8
D Frame
100
AcDbCircle
 10
-1671.251675708098
 20
-50.62416136485012
 30
0.0
 40
0.6350000000012415
100
AcDbArc
 50
180.0000000001042
 51
270.0000000001042
  0
ARC
  5
18B
330
2
100
AcDbEntity
  8
D Frame
100
AcDbCircle
 10
-1671.251675708078
 20
-12.27016136485758
 30
0.0
 40
0.6350000000052205
100
AcDbArc
 50
0.0000000005211021
 51
90.00000000054717
  0
LINE
  5
18C
330
2
100
AcDbEntity
  8
D Frame
100
AcDbLine
 10
-1670.616675708082
 20
-15.66804661904984
 30
0.0
 11
-1670.616675708074
 21
-12.27016136485167
 31
0.0
  0
ARC
  5
18D
330
2
100
AcDbEntity
  8
D Frame
100
AcDbCircle
 10
-1671.251675708083
 20
-16.46116136485193
 30
0.0
 40
1.01600000000473
100
AcDbArc
 50
308.6821874542581
 51
51.31781254667787
  0
LINE
  5
18E
330
2
100
AcDbEntity
  8
D Frame
100
AcDbLine
 10
-1670.616675708071
 20
-31.92404661906107
 30
0.0
 11
-1670.616675708069
 21
-17.25427611064401
 31
0.0
  0
ARC
  5
18F
330
2
100
AcDbEntity
  8
D Frame
100
AcDbCircle
 10
-1671.251675708073
 20
-32.71716136485361
 30
0.0
 40
1.015999999998406
100
AcDbArc
 50
308.6821874538552
 51
51.31781254624247
  0
LINE
  5
190
330
2
100
AcDbEntity
  8
D Frame
100
AcDbLine
 10
-1670.616675708071
 20
-48.18004661906048
 30
0.0
 11
-1670.616675708069
 21
-33.51027611064478
 31
0.0
  0
ARC
  5
191
330
2
100
AcDbEntity
  8
D Frame
100
AcDbCircle
 10
-1671.251675708073
 20
-48.97316136485347
 30
0.0
 40
1.015999999998406
100
AcDbArc
 50
308.6821874538552
 51
51.31781254624247
  0
LINE
  5
192
330
2
100
AcDbEntity
  8
D Frame
100
AcDbLine
 10
-1670.616675708071
 20
-50.62416136485149
 30
0.0
 11
-1670.616675708069
 21
-49.76627611064464
 31
0.0
  0
ARC
  5
193
330
2
100
AcDbEntity
  8
D Frame
100
AcDbCircle
 10
-1671.251675708072
 20
-50.62416136485012
 30
0.0
 40
0.6350000000012415
100
AcDbArc
 50
269.9999999998958
 51
359.9999999998697
  0
CIRCLE
  5
194
330
2
100
AcDbEntity
  8
D Frame
100
AcDbCircle
 10
-1665.638275708073
 20
-7.317161364851699
 30
0.0
 40
0.508
  0
ARC
  5
195
330
2
100
AcDbEntity
  8
D Frame
100
AcDbCircle
 10
-1658.780275708073
 20
-7.317161364851699
 30
0.0
 40
0.7619999999993752
100
AcDbArc
 50
270.0
 51
90.0
  0
LINE
  5
196
330
2
100
AcDbEntity
  8
D Frame
100
AcDbLine
 10
-1659.288275708073
 20
-8.079161364850961
 30
0.0
 11
-1658.780275708073
 21
-8.079161364850961
 31
0.0
  0
ARC
  5
197
330
2
100
AcDbEntity
  8
D Frame
100
AcDbCircle
 10
-1659.288275708073
 20
-7.317161364851244
 30
0.0
 40
0.7619999999996594
100
AcDbArc
 50
90.0
 51
270.0
  0
LINE
  5
198
330
2
100
AcDbEntity
  8
D Frame
100
AcDbLine
 10
-1658.780275708073
 20
-6.555161364852438
 30
0.0
 11
-1659.288275708073
 21
-6.555161364851983
 31
0.0
  0
CIRCLE
  5
199
102
{ACAD_REACTORS
330
B0
102
}
330
2
100
AcDbEntity
  8
D Frame
100
AcDbCircle
 10
-1663.098275708075
 20
-7.317161364851699
 30
0.0
 40
0.762
  0
CIRCLE
  5
19A
330
2
100
AcDbEntity
  8
D Frame
100
AcDbCircle
 10
-1663.098275708075
 20
-55.57716136485101
 30
0.0
 40
0.762
  0
LINE
  5
19B
330
2
100
AcDbEntity
  8
CEN
 48
0.0125
100
AcDbLine
 10
-1643.097352367864
 20
-15.19116136485604
 30
0.0
 11
-1644.135599048262
 21
-15.19116136485604
 31
0.0
  0
LINE
  5
19C
330
2
100
AcDbEntity
  8
CEN
 48
0.0125
100
AcDbLine
 10
-1643.616475708074
 20
-14.67203802465724
 30
0.0
 11
-1643.61647570805
 21
-15.71028470505484
 31
0.0
  0
LINE
  5
19D
330
2
100
AcDbEntity
  8
CEN
 48
0.0125
100
AcDbLine
 10
-1649.44735236791
 20
-15.19116136485468
 30
0.0
 11
-1650.485599048307
 21
-15.19116136485468
 31
0.0
  0
LINE
  5
19E
330
2
100
AcDbEntity
  8
CEN
 48
0.0125
100
AcDbLine
 10
-1649.966475708121
 20
-14.67203802465587
 30
0.0
 11
-1649.966475708097
 21
-15.71028470505348
 31
0.0
  0
LINE
  5
19F
330
2
100
AcDbEntity
  8
CEN
 48
0.0125
100
AcDbLine
 10
-1643.097352367852
 20
-23.31916136485574
 30
0.0
 11
-1644.13559904825
 21
-23.31916136485574
 31
0.0
  0
LINE
  5
1A0
330
2
100
AcDbEntity
  8
CEN
 48
0.0125
100
AcDbLine
 10
-1643.616475708063
 20
-22.80003802465694
 30
0.0
 11
-1643.616475708039
 21
-23.83828470505455
 31
0.0
  0
LINE
  5
1A1
330
2
100
AcDbEntity
  8
CEN
 48
0.0125
100
AcDbLine
 10
-1649.447352367899
 20
-23.31916136485438
 30
0.0
 11
-1650.485599048296
 21
-23.31916136485438
 31
0.0
  0
LINE
  5
1A2
330
2
100
AcDbEntity
  8
CEN
 48
0.0125
100
AcDbLine
 10
-1649.966475708109
 20
-22.80003802465558
 30
0.0
 11
-1649.966475708085
 21
-23.83828470505318
 31
0.0
  0
LINE
  5
1A3
330
2
100
AcDbEntity
  8
CEN
 48
0.0125
100
AcDbLine
 10
-1643.097352367841
 20
-31.44716136485409
 30
0.0
 11
-1644.135599048239
 21
-31.44716136485409
 31
0.0
  0
LINE
  5
1A4
330
2
100
AcDbEntity
  8
CEN
 48
0.0125
100
AcDbLine
 10
-1643.616475708052
 20
-30.92803802465528
 30
0.0
 11
-1643.616475708028
 21
-31.96628470505288
 31
0.0
  0
LINE
  5
1A5
330
2
100
AcDbEntity
  8
CEN
 48
0.0125
100
AcDbLine
 10
-1649.447352367887
 20
-31.44716136485272
 30
0.0
 11
-1650.485599048285
 21
-31.44716136485272
 31
0.0
  0
LINE
  5
1A6
330
2
100
AcDbEntity
  8
CEN
 48
0.0125
100
AcDbLine
 10
-1649.966475708098
 20
-30.92803802465392
 30
0.0
 11
-1649.966475708074
 21
-31.96628470505152
 31
0.0
  0
LINE
  5
1A7
330
2
100
AcDbEntity
  8
CEN
 48
0.0125
100
AcDbLine
 10
-1643.097352367841
 20
-39.57516136485515
 30
0.0
 11
-1644.135599048239
 21
-39.57516136485515
 31
0.0
  0
LINE
  5
1A8
330
2
100
AcDbEntity
  8
CEN
 48
0.0125
100
AcDbLine
 10
-1643.616475708052
 20
-39.0560380246568
 30
0.0
 11
-1643.616475708028
 21
-40.0942847050544
 31
0.0
  0
LINE
  5
1A9
330
2
100
AcDbEntity
  8
CEN
 48
0.0125
100
AcDbLine
 10
-1649.447352367887
 20
-39.57516136485424
 30
0.0
 11
-1650.485599048285
 21
-39.57516136485424
 31
0.0
  0
LINE
  5
1AA
330
2
100
AcDbEntity
  8
CEN
 48
0.0125
100
AcDbLine
 10
-1649.966475708098
 20
-39.05603802465544
 30
0.0
 11
-1649.966475708074
 21
-40.09428470505258
 31
0.0
  0
LINE
  5
1AB
330
2
100
AcDbEntity
  8
CEN
 48
0.0125
100
AcDbLine
 10
-1643.097352367829
 20
-47.70316136485212
 30
0.0
 11
-1644.135599048227
 21
-47.70316136485212
 31
0.0
  0
LINE
  5
1AC
330
2
100
AcDbEntity
  8
CEN
 48
0.0125
100
AcDbLine
 10
-1643.61647570804
 20
-47.18403802465377
 30
0.0
 11
-1643.616475708016
 21
-48.22228470505137
 31
0.0
  0
LINE
  5
1AD
330
2
100
AcDbEntity
  8
CEN
 48
0.0125
100
AcDbLine
 10
-1649.447352367875
 20
-47.70316136485121
 30
0.0
 11
-1650.485599048273
 21
-47.70316136485121
 31
0.0
  0
LINE
  5
1AE
330
2
100
AcDbEntity
  8
CEN
 48
0.0125
100
AcDbLine
 10
-1649.966475708086
 20
-47.18403802465241
 30
0.0
 11
-1649.966475708062
 21
-48.22228470504956
 31
0.0
  0
ARC
  5
1AF
330
2
100
AcDbEntity
  8
D Frame
100
AcDbCircle
 10
-1654.944875708073
 20
-12.27016136485758
 30
0.0
 40
0.6350000000052205
100
AcDbArc
 50
89.99999999942678
 51
179.9999999994528
  0
LINE
  5
1B0
330
2
100
AcDbEntity
  8
D Frame
100
AcDbLine
 10
-1655.579875708069
 20
-15.66804661904984
 30
0.0
 11
-1655.579875708077
 21
-12.27016136485167
 31
0.0
  0
ARC
  5
1B1
330
2
100
AcDbEntity
  8
D Frame
100
AcDbCircle
 10
-1654.944875708068
 20
-16.46116136485193
 30
0.0
 40
1.01600000000473
100
AcDbArc
 50
128.6821874533221
 51
231.3178125457419
  0
LINE
  5
1B2
330
2
100
AcDbEntity
  8
D Frame
100
AcDbLine
 10
-1655.57987570808
 20
-31.92404661906107
 30
0.0
 11
-1655.579875708082
 21
-17.25427611064401
 31
0.0
  0
ARC
  5
1B3
330
2
100
AcDbEntity
  8
D Frame
100
AcDbCircle
 10
-1654.944875708078
 20
-32.71716136485361
 30
0.0
 40
1.015999999998406
100
AcDbArc
 50
128.6821874537575
 51
231.3178125461448
  0
LINE
  5
1B4
330
2
100
AcDbEntity
  8
D Frame
100
AcDbLine
 10
-1655.57987570808
 20
-48.18004661906048
 30
0.0
 11
-1655.579875708082
 21
-33.51027611064478
 31
0.0
  0
ARC
  5
1B5
330
2
100
AcDbEntity
  8
D Frame
100
AcDbCircle
 10
-1654.944875708078
 20
-48.97316136485347
 30
0.0
 40
1.015999999998406
100
AcDbArc
 50
128.6821874537575
 51
231.3178125461448
  0
LINE
  5
1B6
330
2
100
AcDbEntity
  8
D Frame
100
AcDbLine
 10
-1655.57987570808
 20
-50.62416136485149
 30
0.0
 11
-1655.579875708082
 21
-49.76627611064464
 31
0.0
  0
ARC
  5
1B7
330
2
100
AcDbEntity
  8
D Frame
100
AcDbCircle
 10
-1654.944875708079
 20
-50.62416136485012
 30
0.0
 40
0.6350000000012415
100
AcDbArc
 50
180.0000000001042
 51
270.0000000001042
  0
ARC
  5
1B8
330
2
100
AcDbEntity
  8
D Frame
100
AcDbCircle
 10
-1654.94487570806
 20
-12.27016136485758
 30
0.0
 40
0.6350000000052205
100
AcDbArc
 50
0.0000000005211021
 51
90.00000000054717
  0
LINE
  5
1B9
330
2
100
AcDbEntity
  8
D Frame
100
AcDbLine
 10
-1654.309875708064
 20
-15.66804661904984
 30
0.0
 11
-1654.309875708055
 21
-12.27016136485167
 31
0.0
  0
ARC
  5
1BA
330
2
100
AcDbEntity
  8
D Frame
100
AcDbCircle
 10
-1654.944875708064
 20
-16.46116136485193
 30
0.0
 40
1.01600000000473
100
AcDbArc
 50
308.6821874542581
 51
51.31781254667787
  0
LINE
  5
1BB
330
2
100
AcDbEntity
  8
D Frame
100
AcDbLine
 10
-1654.309875708052
 20
-31.92404661906107
 30
0.0
 11
-1654.30987570805
 21
-17.25427611064401
 31
0.0
  0
ARC
  5
1BC
330
2
100
AcDbEntity
  8
D Frame
100
AcDbCircle
 10
-1654.944875708055
 20
-32.71716136485361
 30
0.0
 40
1.015999999998406
100
AcDbArc
 50
308.6821874538552
 51
51.31781254624247
  0
LINE
  5
1BD
330
2
100
AcDbEntity
  8
D Frame
100
AcDbLine
 10
-1654.309875708052
 20
-48.18004661906048
 30
0.0
 11
-1654.30987570805
 21
-33.51027611064478
 31
0.0
  0
ARC
  5
1BE
330
2
100
AcDbEntity
  8
D Frame
100
AcDbCircle
 10
-1654.944875708055
 20
-48.97316136485347
 30
0.0
 40
1.015999999998406
100
AcDbArc
 50
308.6821874538552
 51
51.31781254624247
  0
LINE
  5
1BF
330
2
100
AcDbEntity
  8
D Frame
100
AcDbLine
 10
-1654.309875708052
 20
-50.62416136485149
 30
0.0
 11
-1654.30987570805
 21
-49.76627611064464
 31
0.0
  0
ARC
  5
1C0
330
2
100
AcDbEntity
  8
D Frame
100
AcDbCircle
 10
-1654.944875708054
 20
-50.62416136485012
 30
0.0
 40
0.6350000000012415
100
AcDbArc
 50
269.9999999998958
 51
359.9999999998697
  0
CIRCLE
  5
1C1
330
2
100
AcDbEntity
  8
D Frame
100
AcDbCircle
 10
-1649.331475708055
 20
-7.317161364851699
 30
0.0
 40
0.508
  0
ARC
  5
1C2
330
2
100
AcDbEntity
  8
D Frame
100
AcDbCircle
 10
-1642.473475708055
 20
-7.317161364851699
 30
0.0
 40
0.7619999999993752
100
AcDbArc
 50
270.0
 51
90.0
  0
LINE
  5
1C3
330
2
100
AcDbEntity
  8
D Frame
100
AcDbLine
 10
-1642.981475708055
 20
-8.079161364850961
 30
0.0
 11
-1642.473475708055
 21
-8.079161364850961
 31
0.0
  0
ARC
  5
1C4
330
2
100
AcDbEntity
  8
D Frame
100
AcDbCircle
 10
-1642.981475708055
 20
-7.317161364851244
 30
0.0
 40
0.7619999999996594
100
AcDbArc
 50
90.0
 51
270.0
  0
LINE
  5
1C5
330
2
100
AcDbEntity
  8
D Frame
100
AcDbLine
 10
-1642.473475708055
 20
-6.555161364852438
 30
0.0
 11
-1642.981475708055
 21
-6.555161364851983
 31
0.0
  0
CIRCLE
  5
1C6
102
{ACAD_REACTORS
330
B0
102
}
330
2
100
AcDbEntity
  8
D Frame
100
AcDbCircle
 10
-1646.791475708057
 20
-7.317161364851699
 30
0.0
 40
0.762
  0
CIRCLE
  5
1C7
330
2
100
AcDbEntity
  8
D Frame
100
AcDbCircle
 10
-1646.791475708057
 20
-55.57716136485101
 30
0.0
 40
0.762
  0
LINE
  5
1C8
330
2
100
AcDbEntity
  8
CEN
 48
0.0125
100
AcDbLine
 10
-1626.790552367845
 20
-15.19116136485604
 30
0.0
 11
-1627.828799048243
 21
-15.19116136485604
 31
0.0
  0
LINE
  5
1C9
330
2
100
AcDbEntity
  8
CEN
 48
0.0125
100
AcDbLine
 10
-1627.309675708056
 20
-14.67203802465724
 30
0.0
 11
-1627.309675708032
 21
-15.71028470505484
 31
0.0
  0
LINE
  5
1CA
330
2
100
AcDbEntity
  8
CEN
 48
0.0125
100
AcDbLine
 10
-1633.140552367891
 20
-15.19116136485468
 30
0.0
 11
-1634.178799048289
 21
-15.19116136485468
 31
0.0
  0
LINE
  5
1CB
330
2
100
AcDbEntity
  8
CEN
 48
0.0125
100
AcDbLine
 10
-1633.659675708102
 20
-14.67203802465587
 30
0.0
 11
-1633.659675708078
 21
-15.71028470505348
 31
0.0
  0
LINE
  5
1CC
330
2
100
AcDbEntity
  8
CEN
 48
0.0125
100
AcDbLine
 10
-1626.790552367834
 20
-23.31916136485574
 30
0.0
 11
-1627.828799048231
 21
-23.31916136485574
 31
0.0
  0
LINE
  5
1CD
330
2
100
AcDbEntity
  8
CEN
 48
0.0125
100
AcDbLine
 10
-1627.309675708045
 20
-22.80003802465694
 30
0.0
 11
-1627.30967570802
 21
-23.83828470505455
 31
0.0
  0
LINE
  5
1CE
330
2
100
AcDbEntity
  8
CEN
 48
0.0125
100
AcDbLine
 10
-1633.14055236788
 20
-23.31916136485438
 30
0.0
 11
-1634.178799048278
 21
-23.31916136485438
 31
0.0
  0
LINE
  5
1CF
330
2
100
AcDbEntity
  8
CEN
 48
0.0125
100
AcDbLine
 10
-1633.659675708091
 20
-22.80003802465558
 30
0.0
 11
-1633.659675708067
 21
-23.83828470505318
 31
0.0
  0
LINE
  5
1D0
330
2
100
AcDbEntity
  8
CEN
 48
0.0125
100
AcDbLine
 10
-1626.790552367823
 20
-31.44716136485409
 30
0.0
 11
-1627.82879904822
 21
-31.44716136485409
 31
0.0
  0
LINE
  5
1D1
330
2
100
AcDbEntity
  8
CEN
 48
0.0125
100
AcDbLine
 10
-1627.309675708033
 20
-30.92803802465528
 30
0.0
 11
-1627.309675708009
 21
-31.96628470505288
 31
0.0
  0
LINE
  5
1D2
330
2
100
AcDbEntity
  8
CEN
 48
0.0125
100
AcDbLine
 10
-1633.140552367868
 20
-31.44716136485272
 30
0.0
 11
-1634.178799048266
 21
-31.44716136485272
 31
0.0
  0
LINE
  5
1D3
330
2
100
AcDbEntity
  8
CEN
 48
0.0125
100
AcDbLine
 10
-1633.65967570808
 20
-30.92803802465392
 30
0.0
 11
-1633.659675708055
 21
-31.96628470505152
 31
0.0
  0
LINE
  5
1D4
330
2
100
AcDbEntity
  8
CEN
 48
0.0125
100
AcDbLine
 10
-1626.790552367823
 20
-39.57516136485515
 30
0.0
 11
-1627.82879904822
 21
-39.57516136485515
 31
0.0
  0
LINE
  5
1D5
330
2
100
AcDbEntity
  8
CEN
 48
0.0125
100
AcDbLine
 10
-1627.309675708033
 20
-39.0560380246568
 30
0.0
 11
-1627.309675708009
 21
-40.0942847050544
 31
0.0
  0
LINE
  5
1D6
330
2
100
AcDbEntity
  8
CEN
 48
0.0125
100
AcDbLine
 10
-1633.140552367868
 20
-39.57516136485424
 30
0.0
 11
-1634.178799048266
 21
-39.57516136485424
 31
0.0
  0
LINE
  5
1D7
330
2
100
AcDbEntity
  8
CEN
 48
0.0125
100
AcDbLine
 10
-1633.65967570808
 20
-39.05603802465544
 30
0.0
 11
-1633.659675708055
 21
-40.09428470505258
 31
0.0
  0
LINE
  5
1D8
330
2
100
AcDbEntity
  8
CEN
 48
0.0125
100
AcDbLine
 10
-1626.790552367811
 20
-47.70316136485212
 30
0.0
 11
-1627.828799048208
 21
-47.70316136485212
 31
0.0
  0
LINE
  5
1D9
330
2
100
AcDbEntity
  8
CEN
 48
0.0125
100
AcDbLine
 10
-1627.309675708022
 20
-47.18403802465377
 30
0.0
 11
-1627.309675707997
 21
-48.22228470505137
 31
0.0
  0
LINE
  5
1DA
330
2
100
AcDbEntity
  8
CEN
 48
0.0125
100
AcDbLine
 10
-1633.140552367857
 20
-47.70316136485121
 30
0.0
 11
-1634.178799048254
 21
-47.70316136485121
 31
0.0
  0
LINE
  5
1DB
330
2
100
AcDbEntity
  8
CEN
 48
0.0125
100
AcDbLine
 10
-1633.659675708068
 20
-47.18403802465241
 30
0.0
 11
-1633.659675708044
 21
-48.22228470504956
 31
0.0
  0
ARC
  5
1DC
330
2
100
AcDbEntity
  8
D Frame
100
AcDbCircle
 10
-1638.638075708054
 20
-12.27016136485758
 30
0.0
 40
0.6350000000052205
100
AcDbArc
 50
89.99999999942678
 51
179.9999999994528
  0
LINE
  5
1DD
330
2
100
AcDbEntity
  8
D Frame
100
AcDbLine
 10
-1639.27307570805
 20
-15.66804661904984
 30
0.0
 11
-1639.273075708059
 21
-12.27016136485167
 31
0.0
  0
ARC
  5
1DE
330
2
100
AcDbEntity
  8
D Frame
100
AcDbCircle
 10
-1638.638075708049
 20
-16.46116136485193
 30
0.0
 40
1.01600000000473
100
AcDbArc
 50
128.6821874533221
 51
231.3178125457419
  0
LINE
  5
1DF
330
2
100
AcDbEntity
  8
D Frame
100
AcDbLine
 10
-1639.273075708062
 20
-31.92404661906107
 30
0.0
 11
-1639.273075708063
 21
-17.25427611064401
 31
0.0
  0
ARC
  5
1E0
330
2
100
AcDbEntity
  8
D Frame
100
AcDbCircle
 10
-1638.638075708059
 20
-32.71716136485361
 30
0.0
 40
1.015999999998406
100
AcDbArc
 50
128.6821874537575
 51
231.3178125461448
  0
LINE
  5
1E1
330
2
100
AcDbEntity
  8
D Frame
100
AcDbLine
 10
-1639.273075708062
 20
-48.18004661906048
 30
0.0
 11
-1639.273075708063
 21
-33.51027611064478
 31
0.0
  0
ARC
  5
1E2
330
2
100
AcDbEntity
  8
D Frame
100
AcDbCircle
 10
-1638.638075708059
 20
-48.97316136485347
 30
0.0
 40
1.015999999998406
100
AcDbArc
 50
128.6821874537575
 51
231.3178125461448
  0
LINE
  5
1E3
330
2
100
AcDbEntity
  8
D Frame
100
AcDbLine
 10
-1639.273075708062
 20
-50.62416136485149
 30
0.0
 11
-1639.273075708063
 21
-49.76627611064464
 31
0.0
  0
ARC
  5
1E4
330
2
100
AcDbEntity
  8
D Frame
100
AcDbCircle
 10
-1638.63807570806
 20
-50.62416136485012
 30
0.0
 40
0.6350000000012415
100
AcDbArc
 50
180.0000000001042
 51
270.0000000001042
  0
ARC
  5
1E5
330
2
100
AcDbEntity
  8
D Frame
100
AcDbCircle
 10
-1638.638075708041
 20
-12.27016136485758
 30
0.0
 40
0.6350000000052205
100
AcDbArc
 50
0.0000000005211021
 51
90.00000000054717
  0
LINE
  5
1E6
330
2
100
AcDbEntity
  8
D Frame
100
AcDbLine
 10
-1638.003075708045
 20
-15.66804661904984
 30
0.0
 11
-1638.003075708036
 21
-12.27016136485167
 31
0.0
  0
ARC
  5
1E7
330
2
100
AcDbEntity
  8
D Frame
100
AcDbCircle
 10
-1638.638075708046
 20
-16.46116136485193
 30
0.0
 40
1.01600000000473
100
AcDbArc
 50
308.6821874542581
 51
51.31781254667787
  0
LINE
  5
1E8
330
2
100
AcDbEntity
  8
D Frame
100
AcDbLine
 10
-1638.003075708034
 20
-31.92404661906107
 30
0.0
 11
-1638.003075708032
 21
-17.25427611064401
 31
0.0
  0
ARC
  5
1E9
330
2
100
AcDbEntity
  8
D Frame
100
AcDbCircle
 10
-1638.638075708036
 20
-32.71716136485361
 30
0.0
 40
1.015999999998406
100
AcDbArc
 50
308.6821874538552
 51
51.31781254624247
  0
LINE
  5
1EA
330
2
100
AcDbEntity
  8
D Frame
100
AcDbLine
 10
-1638.003075708034
 20
-48.18004661906048
 30
0.0
 11
-1638.003075708032
 21
-33.51027611064478
 31
0.0
  0
ARC
  5
1EB
330
2
100
AcDbEntity
  8
D Frame
100
AcDbCircle
 10
-1638.638075708036
 20
-48.97316136485347
 30
0.0
 40
1.015999999998406
100
AcDbArc
 50
308.6821874538552
 51
51.31781254624247
  0
LINE
  5
1EC
330
2
100
AcDbEntity
  8
D Frame
100
AcDbLine
 10
-1638.003075708034
 20
-50.62416136485149
 30
0.0
 11
-1638.003075708032
 21
-49.76627611064464
 31
0.0
  0
ARC
  5
1ED
330
2
100
AcDbEntity
  8
D Frame
100
AcDbCircle
 10
-1638.638075708035
 20
-50.62416136485012
 30
0.0
 40
0.6350000000012415
100
AcDbArc
 50
269.9999999998958
 51
359.9999999998697
  0
CIRCLE
  5
1EE
330
2
100
AcDbEntity
  8
D Frame
100
AcDbCircle
 10
-1633.024675708036
 20
-7.317161364851699
 30
0.0
 40
0.508
  0
ARC
  5
1EF
330
2
100
AcDbEntity
  8
D Frame
100
AcDbCircle
 10
-1626.166675708036
 20
-7.317161364851699
 30
0.0
 40
0.7619999999993752
100
AcDbArc
 50
270.0
 51
90.0
  0
LINE
  5
1F0
330
2
100
AcDbEntity
  8
D Frame
100
AcDbLine
 10
-1626.674675708036
 20
-8.079161364850961
 30
0.0
 11
-1626.166675708036
 21
-8.079161364850961
 31
0.0
  0
ARC
  5
1F1
330
2
100
AcDbEntity
  8
D Frame
100
AcDbCircle
 10
-1626.674675708036
 20
-7.317161364851244
 30
0.0
 40
0.7619999999996594
100
AcDbArc
 50
90.0
 51
270.0
  0
LINE
  5
1F2
330
2
100
AcDbEntity
  8
D Frame
100
AcDbLine
 10
-1626.166675708036
 20
-6.555161364852438
 30
0.0
 11
-1626.674675708036
 21
-6.555161364851983
 31
0.0
  0
CIRCLE
  5
1F3
330
2
100
AcDbEntity
  8
D Frame
100
AcDbCircle
 10
-1630.484675708039
 20
-7.317161364851699
 30
0.0
 40
0.762
  0
LINE
  5
1F4
330
2
100
AcDbEntity
  8
CEN
 48
0.0125
100
AcDbLine
 10
-1610.483752367827
 20
-15.19116136485604
 30
0.0
 11
-1611.521999048224
 21
-15.19116136485604
 31
0.0
  0
LINE
  5
1F5
330
2
100
AcDbEntity
  8
CEN
 48
0.0125
100
AcDbLine
 10
-1611.002875708038
 20
-14.67203802465724
 30
0.0
 11
-1611.002875708013
 21
-15.71028470505484
 31
0.0
  0
LINE
  5
1F6
330
2
100
AcDbEntity
  8
CEN
 48
0.0125
100
AcDbLine
 10
-1616.833752367873
 20
-15.19116136485468
 30
0.0
 11
-1617.87199904827
 21
-15.19116136485468
 31
0.0
  0
LINE
  5
1F7
330
2
100
AcDbEntity
  8
CEN
 48
0.0125
100
AcDbLine
 10
-1617.352875708084
 20
-14.67203802465587
 30
0.0
 11
-1617.35287570806
 21
-15.71028470505348
 31
0.0
  0
LINE
  5
1F8
330
2
100
AcDbEntity
  8
CEN
 48
0.0125
100
AcDbLine
 10
-1610.483752367815
 20
-23.31916136485574
 30
0.0
 11
-1611.521999048212
 21
-23.31916136485574
 31
0.0
  0
LINE
  5
1F9
330
2
100
AcDbEntity
  8
CEN
 48
0.0125
100
AcDbLine
 10
-1611.002875708026
 20
-22.80003802465694
 30
0.0
 11
-1611.002875708002
 21
-23.83828470505455
 31
0.0
  0
LINE
  5
1FA
330
2
100
AcDbEntity
  8
CEN
 48
0.0125
100
AcDbLine
 10
-1616.833752367862
 20
-23.31916136485438
 30
0.0
 11
-1617.871999048259
 21
-23.31916136485438
 31
0.0
  0
LINE
  5
1FB
330
2
100
AcDbEntity
  8
CEN
 48
0.0125
100
AcDbLine
 10
-1617.352875708072
 20
-22.80003802465558
 30
0.0
 11
-1617.352875708048
 21
-23.83828470505318
 31
0.0
  0
LINE
  5
1FC
330
2
100
AcDbEntity
  8
CEN
 48
0.0125
100
AcDbLine
 10
-1610.483752367804
 20
-31.44716136485409
 30
0.0
 11
-1611.521999048202
 21
-31.44716136485409
 31
0.0
  0
LINE
  5
1FD
330
2
100
AcDbEntity
  8
CEN
 48
0.0125
100
AcDbLine
 10
-1611.002875708015
 20
-30.92803802465528
 30
0.0
 11
-1611.002875707991
 21
-31.96628470505288
 31
0.0
  0
LINE
  5
1FE
330
2
100
AcDbEntity
  8
CEN
 48
0.0125
100
AcDbLine
 10
-1616.83375236785
 20
-31.44716136485272
 30
0.0
 11
-1617.871999048247
 21
-31.44716136485272
 31
0.0
  0
LINE
  5
1FF
330
2
100
AcDbEntity
  8
CEN
 48
0.0125
100
AcDbLine
 10
-1617.352875708061
 20
-30.92803802465392
 30
0.0
 11
-1617.352875708037
 21
-31.96628470505152
 31
0.0
  0
LINE
  5
200
330
2
100
AcDbEntity
  8
CEN
 48
0.0125
100
AcDbLine
 10
-1610.483752367804
 20
-39.57516136485515
 30
0.0
 11
-1611.521999048202
 21
-39.57516136485515
 31
0.0
  0
LINE
  5
201
330
2
100
AcDbEntity
  8
CEN
 48
0.0125
100
AcDbLine
 10
-1611.002875708015
 20
-39.0560380246568
 30
0.0
 11
-1611.002875707991
 21
-40.0942847050544
 31
0.0
  0
LINE
  5
202
330
2
100
AcDbEntity
  8
CEN
 48
0.0125
100
AcDbLine
 10
-1616.83375236785
 20
-39.57516136485424
 30
0.0
 11
-1617.871999048247
 21
-39.57516136485424
 31
0.0
  0
LINE
  5
203
330
2
100
AcDbEntity
  8
CEN
 48
0.0125
100
AcDbLine
 10
-1617.352875708061
 20
-39.05603802465544
 30
0.0
 11
-1617.352875708037
 21
-40.09428470505258
 31
0.0
  0
LINE
  5
204
330
2
100
AcDbEntity
  8
CEN
 48
0.0125
100
AcDbLine
 10
-1610.483752367792
 20
-47.70316136485212
 30
0.0
 11
-1611.52199904819
 21
-47.70316136485212
 31
0.0
  0
LINE
  5
205
330
2
100
AcDbEntity
  8
CEN
 48
0.0125
100
AcDbLine
 10
-1611.002875708003
 20
-47.18403802465377
 30
0.0
 11
-1611.002875707979
 21
-48.22228470505137
 31
0.0
  0
LINE
  5
206
330
2
100
AcDbEntity
  8
CEN
 48
0.0125
100
AcDbLine
 10
-1616.833752367838
 20
-47.70316136485121
 30
0.0
 11
-1617.871999048236
 21
-47.70316136485121
 31
0.0
  0
LINE
  5
207
330
2
100
AcDbEntity
  8
CEN
 48
0.0125
100
AcDbLine
 10
-1617.352875708049
 20
-47.18403802465241
 30
0.0
 11
-1617.352875708025
 21
-48.22228470504956
 31
0.0
  0
ARC
  5
208
330
2
100
AcDbEntity
  8
D Frame
100
AcDbCircle
 10
-1622.331275708036
 20
-12.27016136485758
 30
0.0
 40
0.6350000000052205
100
AcDbArc
 50
89.99999999942678
 51
179.9999999994528
  0
LINE
  5
209
330
2
100
AcDbEntity
  8
D Frame
100
AcDbLine
 10
-1622.966275708032
 20
-15.66804661904984
 30
0.0
 11
-1622.96627570804
 21
-12.27016136485167
 31
0.0
  0
ARC
  5
20A
330
2
100
AcDbEntity
  8
D Frame
100
AcDbCircle
 10
-1622.331275708031
 20
-16.46116136485193
 30
0.0
 40
1.01600000000473
100
AcDbArc
 50
128.6821874533221
 51
231.3178125457419
  0
LINE
  5
20B
330
2
100
AcDbEntity
  8
D Frame
100
AcDbLine
 10
-1622.966275708043
 20
-31.92404661906107
 30
0.0
 11
-1622.966275708045
 21
-17.25427611064401
 31
0.0
  0
ARC
  5
20C
330
2
100
AcDbEntity
  8
D Frame
100
AcDbCircle
 10
-1622.331275708041
 20
-32.71716136485361
 30
0.0
 40
1.015999999998406
100
AcDbArc
 50
128.6821874537575
 51
231.3178125461448
  0
LINE
  5
20D
330
2
100
AcDbEntity
  8
D Frame
100
AcDbLine
 10
-1622.966275708043
 20
-48.18004661906048
 30
0.0
 11
-1622.966275708045
 21
-33.51027611064478
 31
0.0
  0
ARC
  5
20E
330
2
100
AcDbEntity
  8
D Frame
100
AcDbCircle
 10
-1622.331275708041
 20
-48.97316136485347
 30
0.0
 40
1.015999999998406
100
AcDbArc
 50
128.6821874537575
 51
231.3178125461448
  0
LINE
  5
20F
330
2
100
AcDbEntity
  8
D Frame
100
AcDbLine
 10
-1622.966275708043
 20
-50.62416136485149
 30
0.0
 11
-1622.966275708045
 21
-49.76627611064464
 31
0.0
  0
ARC
  5
210
330
2
100
AcDbEntity
  8
D Frame
100
AcDbCircle
 10
-1622.331275708042
 20
-50.62416136485012
 30
0.0
 40
0.6350000000012415
100
AcDbArc
 50
180.0000000001042
 51
270.0000000001042
  0
ARC
  5
211
330
2
100
AcDbEntity
  8
D Frame
100
AcDbCircle
 10
-1622.331275708023
 20
-12.27016136485758
 30
0.0
 40
0.6350000000052205
100
AcDbArc
 50
0.0000000005211021
 51
90.00000000054717
  0
LINE
  5
212
330
2
100
AcDbEntity
  8
D Frame
100
AcDbLine
 10
-1621.696275708027
 20
-15.66804661904984
 30
0.0
 11
-1621.696275708018
 21
-12.27016136485167
 31
0.0
  0
ARC
  5
213
330
2
100
AcDbEntity
  8
D Frame
100
AcDbCircle
 10
-1622.331275708027
 20
-16.46116136485193
 30
0.0
 40
1.01600000000473
100
AcDbArc
 50
308.6821874542581
 51
51.31781254667787
  0
LINE
  5
214
330
2
100
AcDbEntity
  8
D Frame
100
AcDbLine
 10
-1621.696275708015
 20
-31.92404661906107
 30
0.0
 11
-1621.696275708013
 21
-17.25427611064401
 31
0.0
  0
ARC
  5
215
330
2
100
AcDbEntity
  8
D Frame
100
AcDbCircle
 10
-1622.331275708018
 20
-32.71716136485361
 30
0.0
 40
1.015999999998406
100
AcDbArc
 50
308.6821874538552
 51
51.31781254624247
  0
LINE
  5
216
330
2
100
AcDbEntity
  8
D Frame
100
AcDbLine
 10
-1621.696275708015
 20
-48.18004661906048
 30
0.0
 11
-1621.696275708013
 21
-33.51027611064478
 31
0.0
  0
ARC
  5
217
330
2
100
AcDbEntity
  8
D Frame
100
AcDbCircle
 10
-1622.331275708018
 20
-48.97316136485347
 30
0.0
 40
1.015999999998406
100
AcDbArc
 50
308.6821874538552
 51
51.31781254624247
  0
LINE
  5
218
330
2
100
AcDbEntity
  8
D Frame
100
AcDbLine
 10
-1621.696275708015
 20
-50.62416136485149
 30
0.0
 11
-1621.696275708013
 21
-49.76627611064464
 31
0.0
  0
ARC
  5
219
330
2
100
AcDbEntity
  8
D Frame
100
AcDbCircle
 10
-1622.331275708016
 20
-50.62416136485012
 30
0.0
 40
0.6350000000012415
100
AcDbArc
 50
269.9999999998958
 51
359.9999999998697
  0
CIRCLE
  5
21A
330
2
100
AcDbEntity
  8
D Frame
100
AcDbCircle
 10
-1616.717875708018
 20
-7.317161364851699
 30
0.0
 40
0.508
  0
ARC
  5
21B
330
2
100
AcDbEntity
  8
D Frame
100
AcDbCircle
 10
-1609.859875708018
 20
-7.317161364851699
 30
0.0
 40
0.7619999999993752
100
AcDbArc
 50
270.0
 51
90.0
  0
LINE
  5
21C
330
2
100
AcDbEntity
  8
D Frame
100
AcDbLine
 10
-1610.367875708018
 20
-8.079161364850961
 30
0.0
 11
-1609.859875708018
 21
-8.079161364850961
 31
0.0
  0
ARC
  5
21D
330
2
100
AcDbEntity
  8
D Frame
100
AcDbCircle
 10
-1610.367875708018
 20
-7.317161364851244
 30
0.0
 40
0.7619999999996594
100
AcDbArc
 50
90.0
 51
270.0
  0
LINE
  5
21E
330
2
100
AcDbEntity
  8
D Frame
100
AcDbLine
 10
-1609.859875708018
 20
-6.555161364852438
 30
0.0
 11
-1610.367875708018
 21
-6.555161364851983
 31
0.0
  0
CIRCLE
  5
21F
330
2
100
AcDbEntity
  8
D Frame
100
AcDbCircle
 10
-1614.17787570802
 20
-7.317161364851699
 30
0.0
 40
0.762
  0
LINE
  5
220
330
2
100
AcDbEntity
  8
CEN
 48
0.0125
100
AcDbLine
 10
-1594.176952367808
 20
-15.19116136485604
 30
0.0
 11
-1595.215199048206
 21
-15.19116136485604
 31
0.0
  0
LINE
  5
221
330
2
100
AcDbEntity
  8
CEN
 48
0.0125
100
AcDbLine
 10
-1594.696075708019
 20
-14.67203802465724
 30
0.0
 11
-1594.696075707995
 21
-15.71028470505484
 31
0.0
  0
LINE
  5
222
330
2
100
AcDbEntity
  8
CEN
 48
0.0125
100
AcDbLine
 10
-1600.526952367854
 20
-15.19116136485468
 30
0.0
 11
-1601.565199048252
 21
-15.19116136485468
 31
0.0
  0
LINE
  5
223
330
2
100
AcDbEntity
  8
CEN
 48
0.0125
100
AcDbLine
 10
-1601.046075708065
 20
-14.67203802465587
 30
0.0
 11
-1601.046075708041
 21
-15.71028470505348
 31
0.0
  0
LINE
  5
224
330
2
100
AcDbEntity
  8
CEN
 48
0.0125
100
AcDbLine
 10
-1594.176952367797
 20
-23.31916136485574
 30
0.0
 11
-1595.215199048194
 21
-23.31916136485574
 31
0.0
  0
LINE
  5
225
330
2
100
AcDbEntity
  8
CEN
 48
0.0125
100
AcDbLine
 10
-1594.696075708008
 20
-22.80003802465694
 30
0.0
 11
-1594.696075707983
 21
-23.83828470505455
 31
0.0
  0
LINE
  5
226
330
2
100
AcDbEntity
  8
CEN
 48
0.0125
100
AcDbLine
 10
-1600.526952367843
 20
-23.31916136485438
 30
0.0
 11
-1601.565199048241
 21
-23.31916136485438
 31
0.0
  0
LINE
  5
227
330
2
100
AcDbEntity
  8
CEN
 48
0.0125
100
AcDbLine
 10
-1601.046075708054
 20
-22.80003802465558
 30
0.0
 11
-1601.04607570803
 21
-23.83828470505318
 31
0.0
  0
LINE
  5
228
330
2
100
AcDbEntity
  8
CEN
 48
0.0125
100
AcDbLine
 10
-1594.176952367786
 20
-31.44716136485409
 30
0.0
 11
-1595.215199048183
 21
-31.44716136485409
 31
0.0
  0
LINE
  5
229
330
2
100
AcDbEntity
  8
CEN
 48
0.0125
100
AcDbLine
 10
-1594.696075707996
 20
-30.92803802465528
 30
0.0
 11
-1594.696075707972
 21
-31.96628470505288
 31
0.0
  0
LINE
  5
22A
330
2
100
AcDbEntity
  8
CEN
 48
0.0125
100
AcDbLine
 10
-1600.526952367831
 20
-31.44716136485272
 30
0.0
 11
-1601.565199048229
 21
-31.44716136485272
 31
0.0
  0
LINE
  5
22B
330
2
100
AcDbEntity
  8
CEN
 48
0.0125
100
AcDbLine
 10
-1601.046075708042
 20
-30.92803802465392
 30
0.0
 11
-1601.046075708018
 21
-31.96628470505152
 31
0.0
  0
LINE
  5
22C
330
2
100
AcDbEntity
  8
CEN
 48
0.0125
100
AcDbLine
 10
-1594.176952367786
 20
-39.57516136485515
 30
0.0
 11
-1595.215199048183
 21
-39.57516136485515
 31
0.0
  0
LINE
  5
22D
330
2
100
AcDbEntity
  8
CEN
 48
0.0125
100
AcDbLine
 10
-1594.696075707996
 20
-39.0560380246568
 30
0.0
 11
-1594.696075707972
 21
-40.0942847050544
 31
0.0
  0
LINE
  5
22E
330
2
100
AcDbEntity
  8
CEN
 48
0.0125
100
AcDbLine
 10
-1600.526952367831
 20
-39.57516136485424
 30
0.0
 11
-1601.565199048229
 21
-39.57516136485424
 31
0.0
  0
LINE
  5
22F
330
2
100
AcDbEntity
  8
CEN
 48
0.0125
100
AcDbLine
 10
-1601.046075708042
 20
-39.05603802465544
 30
0.0
 11
-1601.046075708018
 21
-40.09428470505258
 31
0.0
  0
LINE
  5
230
330
2
100
AcDbEntity
  8
CEN
 48
0.0125
100
AcDbLine
 10
-1594.176952367774
 20
-47.70316136485212
 30
0.0
 11
-1595.215199048172
 21
-47.70316136485212
 31
0.0
  0
LINE
  5
231
330
2
100
AcDbEntity
  8
CEN
 48
0.0125
100
AcDbLine
 10
-1594.696075707984
 20
-47.18403802465377
 30
0.0
 11
-1594.69607570796
 21
-48.22228470505137
 31
0.0
  0
LINE
  5
232
330
2
100
AcDbEntity
  8
CEN
 48
0.0125
100
AcDbLine
 10
-1600.52695236782
 20
-47.70316136485121
 30
0.0
 11
-1601.565199048217
 21
-47.70316136485121
 31
0.0
  0
LINE
  5
233
330
2
100
AcDbEntity
  8
CEN
 48
0.0125
100
AcDbLine
 10
-1601.046075708031
 20
-47.18403802465241
 30
0.0
 11
-1601.046075708007
 21
-48.22228470504956
 31
0.0
  0
ARC
  5
234
330
2
100
AcDbEntity
  8
D Frame
100
AcDbCircle
 10
-1606.024475708017
 20
-12.27016136485758
 30
0.0
 40
0.6350000000052205
100
AcDbArc
 50
89.99999999942678
 51
179.9999999994528
  0
LINE
  5
235
330
2
100
AcDbEntity
  8
D Frame
100
AcDbLine
 10
-1606.659475708013
 20
-15.66804661904984
 30
0.0
 11
-1606.659475708022
 21
-12.27016136485167
 31
0.0
  0
ARC
  5
236
330
2
100
AcDbEntity
  8
D Frame
100
AcDbCircle
 10
-1606.024475708013
 20
-16.46116136485193
 30
0.0
 40
1.01600000000473
100
AcDbArc
 50
128.6821874533221
 51
231.3178125457419
  0
LINE
  5
237
330
2
100
AcDbEntity
  8
D Frame
100
AcDbLine
 10
-1606.659475708024
 20
-31.92404661906107
 30
0.0
 11
-1606.659475708027
 21
-17.25427611064401
 31
0.0
  0
ARC
  5
238
330
2
100
AcDbEntity
  8
D Frame
100
AcDbCircle
 10
-1606.024475708022
 20
-32.71716136485361
 30
0.0
 40
1.015999999998406
100
AcDbArc
 50
128.6821874537575
 51
231.3178125461448
  0
LINE
  5
239
330
2
100
AcDbEntity
  8
D Frame
100
AcDbLine
 10
-1606.659475708024
 20
-48.18004661906048
 30
0.0
 11
-1606.659475708027
 21
-33.51027611064478
 31
0.0
  0
ARC
  5
23A
330
2
100
AcDbEntity
  8
D Frame
100
AcDbCircle
 10
-1606.024475708022
 20
-48.97316136485347
 30
0.0
 40
1.015999999998406
100
AcDbArc
 50
128.6821874537575
 51
231.3178125461448
  0
LINE
  5
23B
330
2
100
AcDbEntity
  8
D Frame
100
AcDbLine
 10
-1606.659475708024
 20
-50.62416136485149
 30
0.0
 11
-1606.659475708027
 21
-49.76627611064464
 31
0.0
  0
ARC
  5
23C
330
2
100
AcDbEntity
  8
D Frame
100
AcDbCircle
 10
-1606.024475708023
 20
-50.62416136485012
 30
0.0
 40
0.6350000000012415
100
AcDbArc
 50
180.0000000001042
 51
270.0000000001042
  0
ARC
  5
23D
330
2
100
AcDbEntity
  8
D Frame
100
AcDbCircle
 10
-1606.024475708004
 20
-12.27016136485758
 30
0.0
 40
0.6350000000052205
100
AcDbArc
 50
0.0000000005211021
 51
90.00000000054717
  0
LINE
  5
23E
330
2
100
AcDbEntity
  8
D Frame
100
AcDbLine
 10
-1605.389475708008
 20
-15.66804661904984
 30
0.0
 11
-1605.389475708
 21
-12.27016136485167
 31
0.0
  0
ARC
  5
23F
330
2
100
AcDbEntity
  8
D Frame
100
AcDbCircle
 10
-1606.024475708009
 20
-16.46116136485193
 30
0.0
 40
1.01600000000473
100
AcDbArc
 50
308.6821874542581
 51
51.31781254667787
  0
LINE
  5
240
330
2
100
AcDbEntity
  8
D Frame
100
AcDbLine
 10
-1605.389475707997
 20
-31.92404661906107
 30
0.0
 11
-1605.389475707995
 21
-17.25427611064401
 31
0.0
  0
ARC
  5
241
330
2
100
AcDbEntity
  8
D Frame
100
AcDbCircle
 10
-1606.024475707999
 20
-32.71716136485361
 30
0.0
 40
1.015999999998406
100
AcDbArc
 50
308.6821874538552
 51
51.31781254624247
  0
LINE
  5
242
330
2
100
AcDbEntity
  8
D Frame
100
AcDbLine
 10
-1605.389475707997
 20
-48.18004661906048
 30
0.0
 11
-1605.389475707995
 21
-33.51027611064478
 31
0.0
  0
ARC
  5
243
330
2
100
AcDbEntity
  8
D Frame
100
AcDbCircle
 10
-1606.024475707999
 20
-48.97316136485347
 30
0.0
 40
1.015999999998406
100
AcDbArc
 50
308.6821874538552
 51
51.31781254624247
  0
LINE
  5
244
330
2
100
AcDbEntity
  8
D Frame
100
AcDbLine
 10
-1605.389475707997
 20
-50.62416136485149
 30
0.0
 11
-1605.389475707995
 21
-49.76627611064464
 31
0.0
  0
ARC
  5
245
330
2
100
AcDbEntity
  8
D Frame
100
AcDbCircle
 10
-1606.024475707998
 20
-50.62416136485012
 30
0.0
 40
0.6350000000012415
100
AcDbArc
 50
269.9999999998958
 51
359.9999999998697
  0
CIRCLE
  5
246
330
2
100
AcDbEntity
  8
D Frame
100
AcDbCircle
 10
-1600.411075707999
 20
-7.317161364851699
 30
0.0
 40
0.508
  0
ARC
  5
247
330
2
100
AcDbEntity
  8
D Frame
100
AcDbCircle
 10
-1593.553075708
 20
-7.317161364851699
 30
0.0
 40
0.7619999999993752
100
AcDbArc
 50
270.0
 51
90.0
  0
LINE
  5
248
330
2
100
AcDbEntity
  8
D Frame
100
AcDbLine
 10
-1594.061075707999
 20
-8.079161364850961
 30
0.0
 11
-1593.553075708
 21
-8.079161364850961
 31
0.0
  0
ARC
  5
249
330
2
100
AcDbEntity
  8
D Frame
100
AcDbCircle
 10
-1594.061075707999
 20
-7.317161364851244
 30
0.0
 40
0.7619999999996594
100
AcDbArc
 50
90.0
 51
270.0
  0
LINE
  5
24A
330
2
100
AcDbEntity
  8
D Frame
100
AcDbLine
 10
-1593.553075708
 20
-6.555161364852438
 30
0.0
 11
-1594.061075707999
 21
-6.555161364851983
 31
0.0
  0
CIRCLE
  5
24B
330
2
100
AcDbEntity
  8
D Frame
100
AcDbCircle
 10
-1597.871075708001
 20
-7.317161364851699
 30
0.0
 40
0.762
  0
LINE
  5
24C
330
2
100
AcDbEntity
  8
CEN
 48
0.0125
100
AcDbLine
 10
-1577.87015236779
 20
-15.19116136485604
 30
0.0
 11
-1578.908399048188
 21
-15.19116136485604
 31
0.0
  0
LINE
  5
24D
330
2
100
AcDbEntity
  8
CEN
 48
0.0125
100
AcDbLine
 10
-1578.389275708001
 20
-14.67203802465724
 30
0.0
 11
-1578.389275707976
 21
-15.71028470505484
 31
0.0
  0
LINE
  5
24E
330
2
100
AcDbEntity
  8
CEN
 48
0.0125
100
AcDbLine
 10
-1584.220152367836
 20
-15.19116136485468
 30
0.0
 11
-1585.258399048233
 21
-15.19116136485468
 31
0.0
  0
LINE
  5
24F
330
2
100
AcDbEntity
  8
CEN
 48
0.0125
100
AcDbLine
 10
-1584.739275708047
 20
-14.67203802465587
 30
0.0
 11
-1584.739275708023
 21
-15.71028470505348
 31
0.0
  0
LINE
  5
250
330
2
100
AcDbEntity
  8
CEN
 48
0.0125
100
AcDbLine
 10
-1577.870152367778
 20
-23.31916136485574
 30
0.0
 11
-1578.908399048176
 21
-23.31916136485574
 31
0.0
  0
LINE
  5
251
330
2
100
AcDbEntity
  8
CEN
 48
0.0125
100
AcDbLine
 10
-1578.389275707989
 20
-22.80003802465694
 30
0.0
 11
-1578.389275707965
 21
-23.83828470505455
 31
0.0
  0
LINE
  5
252
330
2
100
AcDbEntity
  8
CEN
 48
0.0125
100
AcDbLine
 10
-1584.220152367825
 20
-23.31916136485438
 30
0.0
 11
-1585.258399048222
 21
-23.31916136485438
 31
0.0
  0
LINE
  5
253
330
2
100
AcDbEntity
  8
CEN
 48
0.0125
100
AcDbLine
 10
-1584.739275708036
 20
-22.80003802465558
 30
0.0
 11
-1584.739275708011
 21
-23.83828470505318
 31
0.0
  0
LINE
  5
254
330
2
100
AcDbEntity
  8
CEN
 48
0.0125
100
AcDbLine
 10
-1577.870152367767
 20
-31.44716136485409
 30
0.0
 11
-1578.908399048165
 21
-31.44716136485409
 31
0.0
  0
LINE
  5
255
330
2
100
AcDbEntity
  8
CEN
 48
0.0125
100
AcDbLine
 10
-1578.389275707978
 20
-30.92803802465528
 30
0.0
 11
-1578.389275707954
 21
-31.96628470505288
 31
0.0
  0
LINE
  5
256
330
2
100
AcDbEntity
  8
CEN
 48
0.0125
100
AcDbLine
 10
-1584.220152367813
 20
-31.44716136485272
 30
0.0
 11
-1585.258399048211
 21
-31.44716136485272
 31
0.0
  0
LINE
  5
257
330
2
100
AcDbEntity
  8
CEN
 48
0.0125
100
AcDbLine
 10
-1584.739275708024
 20
-30.92803802465392
 30
0.0
 11
-1584.739275708
 21
-31.96628470505152
 31
0.0
  0
LINE
  5
258
330
2
100
AcDbEntity
  8
CEN
 48
0.0125
100
AcDbLine
 10
-1577.870152367767
 20
-39.57516136485515
 30
0.0
 11
-1578.908399048165
 21
-39.57516136485515
 31
0.0
  0
LINE
  5
259
330
2
100
AcDbEntity
  8
CEN
 48
0.0125
100
AcDbLine
 10
-1578.389275707978
 20
-39.0560380246568
 30
0.0
 11
-1578.389275707954
 21
-40.0942847050544
 31
0.0
  0
LINE
  5
25A
330
2
100
AcDbEntity
  8
CEN
 48
0.0125
100
AcDbLine
 10
-1584.220152367813
 20
-39.57516136485424
 30
0.0
 11
-1585.258399048211
 21
-39.57516136485424
 31
0.0
  0
LINE
  5
25B
330
2
100
AcDbEntity
  8
CEN
 48
0.0125
100
AcDbLine
 10
-1584.739275708024
 20
-39.05603802465544
 30
0.0
 11
-1584.739275708
 21
-40.09428470505258
 31
0.0
  0
LINE
  5
25C
330
2
100
AcDbEntity
  8
CEN
 48
0.0125
100
AcDbLine
 10
-1577.870152367755
 20
-47.70316136485212
 30
0.0
 11
-1578.908399048153
 21
-47.70316136485212
 31
0.0
  0
LINE
  5
25D
330
2
100
AcDbEntity
  8
CEN
 48
0.0125
100
AcDbLine
 10
-1578.389275707966
 20
-47.18403802465377
 30
0.0
 11
-1578.389275707942
 21
-48.22228470505137
 31
0.0
  0
LINE
  5
25E
330
2
100
AcDbEntity
  8
CEN
 48
0.0125
100
AcDbLine
 10
-1584.220152367801
 20
-47.70316136485121
 30
0.0
 11
-1585.258399048199
 21
-47.70316136485121
 31
0.0
  0
LINE
  5
25F
330
2
100
AcDbEntity
  8
CEN
 48
0.0125
100
AcDbLine
 10
-1584.739275708012
 20
-47.18403802465241
 30
0.0
 11
-1584.739275707988
 21
-48.22228470504956
 31
0.0
  0
ARC
  5
260
330
2
100
AcDbEntity
  8
D Frame
100
AcDbCircle
 10
-1589.717675707999
 20
-12.27016136485758
 30
0.0
 40
0.6350000000052205
100
AcDbArc
 50
89.99999999942678
 51
179.9999999994528
  0
LINE
  5
261
330
2
100
AcDbEntity
  8
D Frame
100
AcDbLine
 10
-1590.352675707995
 20
-15.66804661904984
 30
0.0
 11
-1590.352675708003
 21
-12.27016136485167
 31
0.0
  0
ARC
  5
262
330
2
100
AcDbEntity
  8
D Frame
100
AcDbCircle
 10
-1589.717675707994
 20
-16.46116136485193
 30
0.0
 40
1.01600000000473
100
AcDbArc
 50
128.6821874533221
 51
231.3178125457419
  0
LINE
  5
263
330
2
100
AcDbEntity
  8
D Frame
100
AcDbLine
 10
-1590.352675708006
 20
-31.92404661906107
 30
0.0
 11
-1590.352675708008
 21
-17.25427611064401
 31
0.0
  0
ARC
  5
264
330
2
100
AcDbEntity
  8
D Frame
100
AcDbCircle
 10
-1589.717675708004
 20
-32.71716136485361
 30
0.0
 40
1.015999999998406
100
AcDbArc
 50
128.6821874537575
 51
231.3178125461448
  0
LINE
  5
265
330
2
100
AcDbEntity
  8
D Frame
100
AcDbLine
 10
-1590.352675708006
 20
-48.18004661906048
 30
0.0
 11
-1590.352675708008
 21
-33.51027611064478
 31
0.0
  0
ARC
  5
266
330
2
100
AcDbEntity
  8
D Frame
100
AcDbCircle
 10
-1589.717675708004
 20
-48.97316136485347
 30
0.0
 40
1.015999999998406
100
AcDbArc
 50
128.6821874537575
 51
231.3178125461448
  0
LINE
  5
267
330
2
100
AcDbEntity
  8
D Frame
100
AcDbLine
 10
-1590.352675708006
 20
-50.62416136485149
 30
0.0
 11
-1590.352675708008
 21
-49.76627611064464
 31
0.0
  0
ARC
  5
268
330
2
100
AcDbEntity
  8
D Frame
100
AcDbCircle
 10
-1589.717675708005
 20
-50.62416136485012
 30
0.0
 40
0.6350000000012415
100
AcDbArc
 50
180.0000000001042
 51
270.0000000001042
  0
ARC
  5
269
330
2
100
AcDbEntity
  8
D Frame
100
AcDbCircle
 10
-1589.717675707986
 20
-12.27016136485758
 30
0.0
 40
0.6350000000052205
100
AcDbArc
 50
0.0000000005211021
 51
90.00000000054717
  0
LINE
  5
26A
330
2
100
AcDbEntity
  8
D Frame
100
AcDbLine
 10
-1589.08267570799
 20
-15.66804661904984
 30
0.0
 11
-1589.082675707981
 21
-12.27016136485167
 31
0.0
  0
ARC
  5
26B
330
2
100
AcDbEntity
  8
D Frame
100
AcDbCircle
 10
-1589.71767570799
 20
-16.46116136485193
 30
0.0
 40
1.01600000000473
100
AcDbArc
 50
308.6821874542581
 51
51.31781254667787
  0
LINE
  5
26C
330
2
100
AcDbEntity
  8
D Frame
100
AcDbLine
 10
-1589.082675707978
 20
-31.92404661906107
 30
0.0
 11
-1589.082675707977
 21
-17.25427611064401
 31
0.0
  0
ARC
  5
26D
330
2
100
AcDbEntity
  8
D Frame
100
AcDbCircle
 10
-1589.717675707981
 20
-32.71716136485361
 30
0.0
 40
1.015999999998406
100
AcDbArc
 50
308.6821874538552
 51
51.31781254624247
  0
LINE
  5
26E
330
2
100
AcDbEntity
  8
D Frame
100
AcDbLine
 10
-1589.082675707978
 20
-48.18004661906048
 30
0.0
 11
-1589.082675707977
 21
-33.51027611064478
 31
0.0
  0
ARC
  5
26F
330
2
100
AcDbEntity
  8
D Frame
100
AcDbCircle
 10
-1589.717675707981
 20
-48.97316136485347
 30
0.0
 40
1.015999999998406
100
AcDbArc
 50
308.6821874538552
 51
51.31781254624247
  0
LINE
  5
270
330
2
100
AcDbEntity
  8
D Frame
100
AcDbLine
 10
-1589.082675707978
 20
-50.62416136485149
 30
0.0
 11
-1589.082675707977
 21
-49.76627611064464
 31
0.0
  0
ARC
  5
271
330
2
100
AcDbEntity
  8
D Frame
100
AcDbCircle
 10
-1589.717675707979
 20
-50.62416136485012
 30
0.0
 40
0.6350000000012415
100
AcDbArc
 50
269.9999999998958
 51
359.9999999998697
  0
CIRCLE
  5
272
330
2
100
AcDbEntity
  8
D Frame
100
AcDbCircle
 10
-1584.104275707981
 20
-7.317161364851699
 30
0.0
 40
0.508
  0
ARC
  5
273
330
2
100
AcDbEntity
  8
D Frame
100
AcDbCircle
 10
-1577.246275707981
 20
-7.317161364851699
 30
0.0
 40
0.7619999999993752
100
AcDbArc
 50
270.0
 51
90.0
  0
LINE
  5
274
330
2
100
AcDbEntity
  8
D Frame
100
AcDbLine
 10
-1577.754275707981
 20
-8.079161364850961
 30
0.0
 11
-1577.246275707981
 21
-8.079161364850961
 31
0.0
  0
ARC
  5
275
330
2
100
AcDbEntity
  8
D Frame
100
AcDbCircle
 10
-1577.754275707981
 20
-7.317161364851244
 30
0.0
 40
0.7619999999996594
100
AcDbArc
 50
90.0
 51
270.0
  0
LINE
  5
276
330
2
100
AcDbEntity
  8
D Frame
100
AcDbLine
 10
-1577.246275707981
 20
-6.555161364852438
 30
0.0
 11
-1577.754275707981
 21
-6.555161364851983
 31
0.0
  0
CIRCLE
  5
277
330
2
100
AcDbEntity
  8
D Frame
100
AcDbCircle
 10
-1581.564275707983
 20
-7.317161364851699
 30
0.0
 40
0.762
  0
LINE
  5
278
330
2
100
AcDbEntity
  8
CEN
 48
0.0125
100
AcDbLine
 10
-1561.563352367772
 20
-15.19116136485604
 30
0.0
 11
-1562.601599048169
 21
-15.19116136485604
 31
0.0
  0
LINE
  5
279
330
2
100
AcDbEntity
  8
CEN
 48
0.0125
100
AcDbLine
 10
-1562.082475707982
 20
-14.67203802465724
 30
0.0
 11
-1562.082475707958
 21
-15.71028470505484
 31
0.0
  0
LINE
  5
27A
330
2
100
AcDbEntity
  8
CEN
 48
0.0125
100
AcDbLine
 10
-1567.913352367817
 20
-15.19116136485468
 30
0.0
 11
-1568.951599048215
 21
-15.19116136485468
 31
0.0
  0
LINE
  5
27B
330
2
100
AcDbEntity
  8
CEN
 48
0.0125
100
AcDbLine
 10
-1568.432475708028
 20
-14.67203802465587
 30
0.0
 11
-1568.432475708004
 21
-15.71028470505348
 31
0.0
  0
LINE
  5
27C
330
2
100
AcDbEntity
  8
CEN
 48
0.0125
100
AcDbLine
 10
-1561.56335236776
 20
-23.31916136485574
 30
0.0
 11
-1562.601599048157
 21
-23.31916136485574
 31
0.0
  0
LINE
  5
27D
330
2
100
AcDbEntity
  8
CEN
 48
0.0125
100
AcDbLine
 10
-1562.082475707971
 20
-22.80003802465694
 30
0.0
 11
-1562.082475707947
 21
-23.83828470505455
 31
0.0
  0
LINE
  5
27E
330
2
100
AcDbEntity
  8
CEN
 48
0.0125
100
AcDbLine
 10
-1567.913352367806
 20
-23.31916136485438
 30
0.0
 11
-1568.951599048204
 21
-23.31916136485438
 31
0.0
  0
LINE
  5
27F
330
2
100
AcDbEntity
  8
CEN
 48
0.0125
100
AcDbLine
 10
-1568.432475708017
 20
-22.80003802465558
 30
0.0
 11
-1568.432475707993
 21
-23.83828470505318
 31
0.0
  0
LINE
  5
280
330
2
100
AcDbEntity
  8
CEN
 48
0.0125
100
AcDbLine
 10
-1561.563352367749
 20
-31.44716136485409
 30
0.0
 11
-1562.601599048146
 21
-31.44716136485409
 31
0.0
  0
LINE
  5
281
330
2
100
AcDbEntity
  8
CEN
 48
0.0125
100
AcDbLine
 10
-1562.082475707959
 20
-30.92803802465528
 30
0.0
 11
-1562.082475707935
 21
-31.96628470505288
 31
0.0
  0
LINE
  5
282
330
2
100
AcDbEntity
  8
CEN
 48
0.0125
100
AcDbLine
 10
-1567.913352367795
 20
-31.44716136485272
 30
0.0
 11
-1568.951599048192
 21
-31.44716136485272
 31
0.0
  0
LINE
  5
283
330
2
100
AcDbEntity
  8
CEN
 48
0.0125
100
AcDbLine
 10
-1568.432475708006
 20
-30.92803802465392
 30
0.0
 11
-1568.432475707982
 21
-31.96628470505152
 31
0.0
  0
LINE
  5
284
330
2
100
AcDbEntity
  8
CEN
 48
0.0125
100
AcDbLine
 10
-1561.563352367749
 20
-39.57516136485515
 30
0.0
 11
-1562.601599048146
 21
-39.57516136485515
 31
0.0
  0
LINE
  5
285
330
2
100
AcDbEntity
  8
CEN
 48
0.0125
100
AcDbLine
 10
-1562.082475707959
 20
-39.0560380246568
 30
0.0
 11
-1562.082475707935
 21
-40.0942847050544
 31
0.0
  0
LINE
  5
286
330
2
100
AcDbEntity
  8
CEN
 48
0.0125
100
AcDbLine
 10
-1567.913352367795
 20
-39.57516136485424
 30
0.0
 11
-1568.951599048192
 21
-39.57516136485424
 31
0.0
  0
LINE
  5
287
330
2
100
AcDbEntity
  8
CEN
 48
0.0125
100
AcDbLine
 10
-1568.432475708006
 20
-39.05603802465544
 30
0.0
 11
-1568.432475707982
 21
-40.09428470505258
 31
0.0
  0
LINE
  5
288
330
2
100
AcDbEntity
  8
CEN
 48
0.0125
100
AcDbLine
 10
-1561.563352367737
 20
-47.70316136485212
 30
0.0
 11
-1562.601599048135
 21
-47.70316136485212
 31
0.0
  0
LINE
  5
289
330
2
100
AcDbEntity
  8
CEN
 48
0.0125
100
AcDbLine
 10
-1562.082475707948
 20
-47.18403802465377
 30
0.0
 11
-1562.082475707923
 21
-48.22228470505137
 31
0.0
  0
LINE
  5
28A
330
2
100
AcDbEntity
  8
CEN
 48
0.0125
100
AcDbLine
 10
-1567.913352367783
 20
-47.70316136485121
 30
0.0
 11
-1568.95159904818
 21
-47.70316136485121
 31
0.0
  0
LINE
  5
28B
330
2
100
AcDbEntity
  8
CEN
 48
0.0125
100
AcDbLine
 10
-1568.432475707994
 20
-47.18403802465241
 30
0.0
 11
-1568.43247570797
 21
-48.22228470504956
 31
0.0
  0
ARC
  5
28C
330
2
100
AcDbEntity
  8
D Frame
100
AcDbCircle
 10
-1573.41087570798
 20
-12.27016136485758
 30
0.0
 40
0.6350000000052205
100
AcDbArc
 50
89.99999999942678
 51
179.9999999994528
  0
LINE
  5
28D
330
2
100
AcDbEntity
  8
D Frame
100
AcDbLine
 10
-1574.045875707976
 20
-15.66804661904984
 30
0.0
 11
-1574.045875707985
 21
-12.27016136485167
 31
0.0
  0
ARC
  5
28E
330
2
100
AcDbEntity
  8
D Frame
100
AcDbCircle
 10
-1573.410875707976
 20
-16.46116136485193
 30
0.0
 40
1.01600000000473
100
AcDbArc
 50
128.6821874533221
 51
231.3178125457419
  0
LINE
  5
28F
330
2
100
AcDbEntity
  8
D Frame
100
AcDbLine
 10
-1574.045875707987
 20
-31.92404661906107
 30
0.0
 11
-1574.045875707989
 21
-17.25427611064401
 31
0.0
  0
ARC
  5
290
330
2
100
AcDbEntity
  8
D Frame
100
AcDbCircle
 10
-1573.410875707985
 20
-32.71716136485361
 30
0.0
 40
1.015999999998406
100
AcDbArc
 50
128.6821874537575
 51
231.3178125461448
  0
LINE
  5
291
330
2
100
AcDbEntity
  8
D Frame
100
AcDbLine
 10
-1574.045875707987
 20
-48.18004661906048
 30
0.0
 11
-1574.045875707989
 21
-33.51027611064478
 31
0.0
  0
ARC
  5
292
330
2
100
AcDbEntity
  8
D Frame
100
AcDbCircle
 10
-1573.410875707985
 20
-48.97316136485347
 30
0.0
 40
1.015999999998406
100
AcDbArc
 50
128.6821874537575
 51
231.3178125461448
  0
LINE
  5
293
330
2
100
AcDbEntity
  8
D Frame
100
AcDbLine
 10
-1574.045875707987
 20
-50.62416136485149
 30
0.0
 11
-1574.045875707989
 21
-49.76627611064464
 31
0.0
  0
ARC
  5
294
330
2
100
AcDbEntity
  8
D Frame
100
AcDbCircle
 10
-1573.410875707986
 20
-50.62416136485012
 30
0.0
 40
0.6350000000012415
100
AcDbArc
 50
180.0000000001042
 51
270.0000000001042
  0
ARC
  5
295
330
2
100
AcDbEntity
  8
D Frame
100
AcDbCircle
 10
-1573.410875707967
 20
-12.27016136485758
 30
0.0
 40
0.6350000000052205
100
AcDbArc
 50
0.0000000005211021
 51
90.00000000054717
  0
LINE
  5
296
330
2
100
AcDbEntity
  8
D Frame
100
AcDbLine
 10
-1572.775875707971
 20
-15.66804661904984
 30
0.0
 11
-1572.775875707963
 21
-12.27016136485167
 31
0.0
  0
ARC
  5
297
330
2
100
AcDbEntity
  8
D Frame
100
AcDbCircle
 10
-1573.410875707972
 20
-16.46116136485193
 30
0.0
 40
1.01600000000473
100
AcDbArc
 50
308.6821874542581
 51
51.31781254667787
  0
LINE
  5
298
330
2
100
AcDbEntity
  8
D Frame
100
AcDbLine
 10
-1572.77587570796
 20
-31.92404661906107
 30
0.0
 11
-1572.775875707958
 21
-17.25427611064401
 31
0.0
  0
ARC
  5
299
330
2
100
AcDbEntity
  8
D Frame
100
AcDbCircle
 10
-1573.410875707963
 20
-32.71716136485361
 30
0.0
 40
1.015999999998406
100
AcDbArc
 50
308.6821874538552
 51
51.31781254624247
  0
LINE
  5
29A
330
2
100
AcDbEntity
  8
D Frame
100
AcDbLine
 10
-1572.77587570796
 20
-48.18004661906048
 30
0.0
 11
-1572.775875707958
 21
-33.51027611064478
 31
0.0
  0
ARC
  5
29B
330
2
100
AcDbEntity
  8
D Frame
100
AcDbCircle
 10
-1573.410875707963
 20
-48.97316136485347
 30
0.0
 40
1.015999999998406
100
AcDbArc
 50
308.6821874538552
 51
51.31781254624247
  0
LINE
  5
29C
330
2
100
AcDbEntity
  8
D Frame
100
AcDbLine
 10
-1572.77587570796
 20
-50.62416136485149
 30
0.0
 11
-1572.775875707958
 21
-49.76627611064464
 31
0.0
  0
ARC
  5
29D
330
2
100
AcDbEntity
  8
D Frame
100
AcDbCircle
 10
-1573.410875707961
 20
-50.62416136485012
 30
0.0
 40
0.6350000000012415
100
AcDbArc
 50
269.9999999998958
 51
359.9999999998697
  0
CIRCLE
  5
29E
330
2
100
AcDbEntity
  8
D Frame
100
AcDbCircle
 10
-1567.797475707962
 20
-7.317161364851699
 30
0.0
 40
0.508
  0
ARC
  5
29F
330
2
100
AcDbEntity
  8
D Frame
100
AcDbCircle
 10
-1560.939475707963
 20
-7.317161364851699
 30
0.0
 40
0.7619999999993752
100
AcDbArc
 50
270.0
 51
90.0
  0
LINE
  5
2A0
330
2
100
AcDbEntity
  8
D Frame
100
AcDbLine
 10
-1561.447475707962
 20
-8.079161364850961
 30
0.0
 11
-1560.939475707963
 21
-8.079161364850961
 31
0.0
  0
ARC
  5
2A1
330
2
100
AcDbEntity
  8
D Frame
100
AcDbCircle
 10
-1561.447475707962
 20
-7.317161364851244
 30
0.0
 40
0.7619999999996594
100
AcDbArc
 50
90.0
 51
270.0
  0
LINE
  5
2A2
330
2
100
AcDbEntity
  8
D Frame
100
AcDbLine
 10
-1560.939475707963
 20
-6.555161364852438
 30
0.0
 11
-1561.447475707962
 21
-6.555161364851983
 31
0.0
  0
CIRCLE
  5
2A3
330
2
100
AcDbEntity
  8
D Frame
100
AcDbCircle
 10
-1565.257475707964
 20
-7.317161364851699
 30
0.0
 40
0.762
  0
LINE
  5
2A4
330
2
100
AcDbEntity
  8
CEN
 48
0.0125
100
AcDbLine
 10
-1545.256552367753
 20
-15.19116136485604
 30
0.0
 11
-1546.29479904815
 21
-15.19116136485604
 31
0.0
  0
LINE
  5
2A5
330
2
100
AcDbEntity
  8
CEN
 48
0.0125
100
AcDbLine
 10
-1545.775675707964
 20
-14.67203802465724
 30
0.0
 11
-1545.775675707939
 21
-15.71028470505484
 31
0.0
  0
LINE
  5
2A6
330
2
100
AcDbEntity
  8
CEN
 48
0.0125
100
AcDbLine
 10
-1551.606552367799
 20
-15.19116136485468
 30
0.0
 11
-1552.644799048196
 21
-15.19116136485468
 31
0.0
  0
LINE
  5
2A7
330
2
100
AcDbEntity
  8
CEN
 48
0.0125
100
AcDbLine
 10
-1552.12567570801
 20
-14.67203802465587
 30
0.0
 11
-1552.125675707986
 21
-15.71028470505348
 31
0.0
  0
LINE
  5
2A8
330
2
100
AcDbEntity
  8
CEN
 48
0.0125
100
AcDbLine
 10
-1545.256552367741
 20
-23.31916136485574
 30
0.0
 11
-1546.294799048139
 21
-23.31916136485574
 31
0.0
  0
LINE
  5
2A9
330
2
100
AcDbEntity
  8
CEN
 48
0.0125
100
AcDbLine
 10
-1545.775675707952
 20
-22.80003802465694
 30
0.0
 11
-1545.775675707928
 21
-23.83828470505455
 31
0.0
  0
LINE
  5
2AA
330
2
100
AcDbEntity
  8
CEN
 48
0.0125
100
AcDbLine
 10
-1551.606552367788
 20
-23.31916136485438
 30
0.0
 11
-1552.644799048185
 21
-23.31916136485438
 31
0.0
  0
LINE
  5
2AB
330
2
100
AcDbEntity
  8
CEN
 48
0.0125
100
AcDbLine
 10
-1552.125675707999
 20
-22.80003802465558
 30
0.0
 11
-1552.125675707974
 21
-23.83828470505318
 31
0.0
  0
LINE
  5
2AC
330
2
100
AcDbEntity
  8
CEN
 48
0.0125
100
AcDbLine
 10
-1545.25655236773
 20
-31.44716136485409
 30
0.0
 11
-1546.294799048128
 21
-31.44716136485409
 31
0.0
  0
LINE
  5
2AD
330
2
100
AcDbEntity
  8
CEN
 48
0.0125
100
AcDbLine
 10
-1545.775675707941
 20
-30.92803802465528
 30
0.0
 11
-1545.775675707917
 21
-31.96628470505288
 31
0.0
  0
LINE
  5
2AE
330
2
100
AcDbEntity
  8
CEN
 48
0.0125
100
AcDbLine
 10
-1551.606552367776
 20
-31.44716136485272
 30
0.0
 11
-1552.644799048174
 21
-31.44716136485272
 31
0.0
  0
LINE
  5
2AF
330
2
100
AcDbEntity
  8
CEN
 48
0.0125
100
AcDbLine
 10
-1552.125675707987
 20
-30.92803802465392
 30
0.0
 11
-1552.125675707963
 21
-31.96628470505152
 31
0.0
  0
LINE
  5
2B0
330
2
100
AcDbEntity
  8
CEN
 48
0.0125
100
AcDbLine
 10
-1545.25655236773
 20
-39.57516136485515
 30
0.0
 11
-1546.294799048128
 21
-39.57516136485515
 31
0.0
  0
LINE
  5
2B1
330
2
100
AcDbEntity
  8
CEN
 48
0.0125
100
AcDbLine
 10
-1545.775675707941
 20
-39.0560380246568
 30
0.0
 11
-1545.775675707917
 21
-40.0942847050544
 31
0.0
  0
LINE
  5
2B2
330
2
100
AcDbEntity
  8
CEN
 48
0.0125
100
AcDbLine
 10
-1551.606552367776
 20
-39.57516136485424
 30
0.0
 11
-1552.644799048174
 21
-39.57516136485424
 31
0.0
  0
LINE
  5
2B3
330
2
100
AcDbEntity
  8
CEN
 48
0.0125
100
AcDbLine
 10
-1552.125675707987
 20
-39.05603802465544
 30
0.0
 11
-1552.125675707963
 21
-40.09428470505258
 31
0.0
  0
LINE
  5
2B4
330
2
100
AcDbEntity
  8
CEN
 48
0.0125
100
AcDbLine
 10
-1545.256552367718
 20
-47.70316136485212
 30
0.0
 11
-1546.294799048116
 21
-47.70316136485212
 31
0.0
  0
LINE
  5
2B5
330
2
100
AcDbEntity
  8
CEN
 48
0.0125
100
AcDbLine
 10
-1545.775675707929
 20
-47.18403802465377
 30
0.0
 11
-1545.775675707905
 21
-48.22228470505137
 31
0.0
  0
LINE
  5
2B6
330
2
100
AcDbEntity
  8
CEN
 48
0.0125
100
AcDbLine
 10
-1551.606552367764
 20
-47.70316136485121
 30
0.0
 11
-1552.644799048162
 21
-47.70316136485121
 31
0.0
  0
LINE
  5
2B7
330
2
100
AcDbEntity
  8
CEN
 48
0.0125
100
AcDbLine
 10
-1552.125675707975
 20
-47.18403802465241
 30
0.0
 11
-1552.125675707951
 21
-48.22228470504956
 31
0.0
  0
ARC
  5
2B8
330
2
100
AcDbEntity
  8
D Frame
100
AcDbCircle
 10
-1557.104075707962
 20
-12.27016136485758
 30
0.0
 40
0.6350000000052205
100
AcDbArc
 50
89.99999999942678
 51
179.9999999994528
  0
LINE
  5
2B9
330
2
100
AcDbEntity
  8
D Frame
100
AcDbLine
 10
-1557.739075707958
 20
-15.66804661904984
 30
0.0
 11
-1557.739075707966
 21
-12.27016136485167
 31
0.0
  0
ARC
  5
2BA
330
2
100
AcDbEntity
  8
D Frame
100
AcDbCircle
 10
-1557.104075707957
 20
-16.46116136485193
 30
0.0
 40
1.01600000000473
100
AcDbArc
 50
128.6821874533221
 51
231.3178125457419
  0
LINE
  5
2BB
330
2
100
AcDbEntity
  8
D Frame
100
AcDbLine
 10
-1557.739075707969
 20
-31.92404661906107
 30
0.0
 11
-1557.739075707971
 21
-17.25427611064401
 31
0.0
  0
ARC
  5
2BC
330
2
100
AcDbEntity
  8
D Frame
100
AcDbCircle
 10
-1557.104075707967
 20
-32.71716136485361
 30
0.0
 40
1.015999999998406
100
AcDbArc
 50
128.6821874537575
 51
231.3178125461448
  0
LINE
  5
2BD
330
2
100
AcDbEntity
  8
D Frame
100
AcDbLine
 10
-1557.739075707969
 20
-48.18004661906048
 30
0.0
 11
-1557.739075707971
 21
-33.51027611064478
 31
0.0
  0
ARC
  5
2BE
330
2
100
AcDbEntity
  8
D Frame
100
AcDbCircle
 10
-1557.104075707967
 20
-48.97316136485347
 30
0.0
 40
1.015999999998406
100
AcDbArc
 50
128.6821874537575
 51
231.3178125461448
  0
LINE
  5
2BF
330
2
100
AcDbEntity
  8
D Frame
100
AcDbLine
 10
-1557.739075707969
 20
-50.62416136485149
 30
0.0
 11
-1557.739075707971
 21
-49.76627611064464
 31
0.0
  0
ARC
  5
2C0
330
2
100
AcDbEntity
  8
D Frame
100
AcDbCircle
 10
-1557.104075707968
 20
-50.62416136485012
 30
0.0
 40
0.6350000000012415
100
AcDbArc
 50
180.0000000001042
 51
270.0000000001042
  0
ARC
  5
2C1
330
2
100
AcDbEntity
  8
D Frame
100
AcDbCircle
 10
-1557.104075707949
 20
-12.27016136485758
 30
0.0
 40
0.6350000000052205
100
AcDbArc
 50
0.0000000005211021
 51
90.00000000054717
  0
LINE
  5
2C2
330
2
100
AcDbEntity
  8
D Frame
100
AcDbLine
 10
-1556.469075707953
 20
-15.66804661904984
 30
0.0
 11
-1556.469075707944
 21
-12.27016136485167
 31
0.0
  0
ARC
  5
2C3
330
2
100
AcDbEntity
  8
D Frame
100
AcDbCircle
 10
-1557.104075707953
 20
-16.46116136485193
 30
0.0
 40
1.01600000000473
100
AcDbArc
 50
308.6821874542581
 51
51.31781254667787
  0
LINE
  5
2C4
330
2
100
AcDbEntity
  8
D Frame
100
AcDbLine
 10
-1556.469075707942
 20
-31.92404661906107
 30
0.0
 11
-1556.46907570794
 21
-17.25427611064401
 31
0.0
  0
ARC
  5
2C5
330
2
100
AcDbEntity
  8
D Frame
100
AcDbCircle
 10
-1557.104075707944
 20
-32.71716136485361
 30
0.0
 40
1.015999999998406
100
AcDbArc
 50
308.6821874538552
 51
51.31781254624247
  0
LINE
  5
2C6
330
2
100
AcDbEntity
  8
D Frame
100
AcDbLine
 10
-1556.469075707942
 20
-48.18004661906048
 30
0.0
 11
-1556.46907570794
 21
-33.51027611064478
 31
0.0
  0
ARC
  5
2C7
330
2
100
AcDbEntity
  8
D Frame
100
AcDbCircle
 10
-1557.104075707944
 20
-48.97316136485347
 30
0.0
 40
1.015999999998406
100
AcDbArc
 50
308.6821874538552
 51
51.31781254624247
  0
LINE
  5
2C8
330
2
100
AcDbEntity
  8
D Frame
100
AcDbLine
 10
-1556.469075707942
 20
-50.62416136485149
 30
0.0
 11
-1556.46907570794
 21
-49.76627611064464
 31
0.0
  0
ARC
  5
2C9
330
2
100
AcDbEntity
  8
D Frame
100
AcDbCircle
 10
-1557.104075707943
 20
-50.62416136485012
 30
0.0
 40
0.6350000000012415
100
AcDbArc
 50
269.9999999998958
 51
359.9999999998697
  0
CIRCLE
  5
2CA
330
2
100
AcDbEntity
  8
D Frame
100
AcDbCircle
 10
-1551.490675707944
 20
-7.317161364851699
 30
0.0
 40
0.508
  0
ARC
  5
2CB
330
2
100
AcDbEntity
  8
D Frame
100
AcDbCircle
 10
-1544.632675707944
 20
-7.317161364851699
 30
0.0
 40
0.7619999999993752
100
AcDbArc
 50
270.0
 51
90.0
  0
LINE
  5
2CC
330
2
100
AcDbEntity
  8
D Frame
100
AcDbLine
 10
-1545.140675707944
 20
-8.079161364850961
 30
0.0
 11
-1544.632675707944
 21
-8.079161364850961
 31
0.0
  0
ARC
  5
2CD
330
2
100
AcDbEntity
  8
D Frame
100
AcDbCircle
 10
-1545.140675707944
 20
-7.317161364851244
 30
0.0
 40
0.7619999999996594
100
AcDbArc
 50
90.0
 51
270.0
  0
LINE
  5
2CE
330
2
100
AcDbEntity
  8
D Frame
100
AcDbLine
 10
-1544.632675707944
 20
-6.555161364852438
 30
0.0
 11
-1545.140675707944
 21
-6.555161364851983
 31
0.0
  0
CIRCLE
  5
2CF
330
2
100
AcDbEntity
  8
D Frame
100
AcDbCircle
 10
-1548.950675707946
 20
-7.317161364851699
 30
0.0
 40
0.762
  0
LINE
  5
2D0
330
2
100
AcDbEntity
  8
CEN
 48
0.0125
100
AcDbLine
 10
-1528.949752367734
 20
-15.19116136485604
 30
0.0
 11
-1529.987999048132
 21
-15.19116136485604
 31
0.0
  0
LINE
  5
2D1
330
2
100
AcDbEntity
  8
CEN
 48
0.0125
100
AcDbLine
 10
-1529.468875707945
 20
-14.67203802465724
 30
0.0
 11
-1529.468875707921
 21
-15.71028470505484
 31
0.0
  0
LINE
  5
2D2
330
2
100
AcDbEntity
  8
CEN
 48
0.0125
100
AcDbLine
 10
-1535.29975236778
 20
-15.19116136485468
 30
0.0
 11
-1536.337999048178
 21
-15.19116136485468
 31
0.0
  0
LINE
  5
2D3
330
2
100
AcDbEntity
  8
CEN
 48
0.0125
100
AcDbLine
 10
-1535.818875707991
 20
-14.67203802465587
 30
0.0
 11
-1535.818875707967
 21
-15.71028470505348
 31
0.0
  0
LINE
  5
2D4
330
2
100
AcDbEntity
  8
CEN
 48
0.0125
100
AcDbLine
 10
-1528.949752367723
 20
-23.31916136485574
 30
0.0
 11
-1529.98799904812
 21
-23.31916136485574
 31
0.0
  0
LINE
  5
2D5
330
2
100
AcDbEntity
  8
CEN
 48
0.0125
100
AcDbLine
 10
-1529.468875707934
 20
-22.80003802465694
 30
0.0
 11
-1529.46887570791
 21
-23.83828470505455
 31
0.0
  0
LINE
  5
2D6
330
2
100
AcDbEntity
  8
CEN
 48
0.0125
100
AcDbLine
 10
-1535.299752367769
 20
-23.31916136485438
 30
0.0
 11
-1536.337999048167
 21
-23.31916136485438
 31
0.0
  0
LINE
  5
2D7
330
2
100
AcDbEntity
  8
CEN
 48
0.0125
100
AcDbLine
 10
-1535.81887570798
 20
-22.80003802465558
 30
0.0
 11
-1535.818875707956
 21
-23.83828470505318
 31
0.0
  0
LINE
  5
2D8
330
2
100
AcDbEntity
  8
CEN
 48
0.0125
100
AcDbLine
 10
-1528.949752367712
 20
-31.44716136485409
 30
0.0
 11
-1529.987999048109
 21
-31.44716136485409
 31
0.0
  0
LINE
  5
2D9
330
2
100
AcDbEntity
  8
CEN
 48
0.0125
100
AcDbLine
 10
-1529.468875707922
 20
-30.92803802465528
 30
0.0
 11
-1529.468875707898
 21
-31.96628470505288
 31
0.0
  0
LINE
  5
2DA
330
2
100
AcDbEntity
  8
CEN
 48
0.0125
100
AcDbLine
 10
-1535.299752367758
 20
-31.44716136485272
 30
0.0
 11
-1536.337999048155
 21
-31.44716136485272
 31
0.0
  0
LINE
  5
2DB
330
2
100
AcDbEntity
  8
CEN
 48
0.0125
100
AcDbLine
 10
-1535.818875707969
 20
-30.92803802465392
 30
0.0
 11
-1535.818875707944
 21
-31.96628470505152
 31
0.0
  0
LINE
  5
2DC
330
2
100
AcDbEntity
  8
CEN
 48
0.0125
100
AcDbLine
 10
-1528.949752367712
 20
-39.57516136485515
 30
0.0
 11
-1529.987999048109
 21
-39.57516136485515
 31
0.0
  0
LINE
  5
2DD
330
2
100
AcDbEntity
  8
CEN
 48
0.0125
100
AcDbLine
 10
-1529.468875707922
 20
-39.0560380246568
 30
0.0
 11
-1529.468875707898
 21
-40.0942847050544
 31
0.0
  0
LINE
  5
2DE
330
2
100
AcDbEntity
  8
CEN
 48
0.0125
100
AcDbLine
 10
-1535.299752367758
 20
-39.57516136485424
 30
0.0
 11
-1536.337999048155
 21
-39.57516136485424
 31
0.0
  0
LINE
  5
2DF
330
2
100
AcDbEntity
  8
CEN
 48
0.0125
100
AcDbLine
 10
-1535.818875707969
 20
-39.05603802465544
 30
0.0
 11
-1535.818875707944
 21
-40.09428470505258
 31
0.0
  0
LINE
  5
2E0
330
2
100
AcDbEntity
  8
CEN
 48
0.0125
100
AcDbLine
 10
-1528.9497523677
 20
-47.70316136485212
 30
0.0
 11
-1529.987999048097
 21
-47.70316136485212
 31
0.0
  0
LINE
  5
2E1
330
2
100
AcDbEntity
  8
CEN
 48
0.0125
100
AcDbLine
 10
-1529.468875707911
 20
-47.18403802465377
 30
0.0
 11
-1529.468875707886
 21
-48.22228470505137
 31
0.0
  0
LINE
  5
2E2
330
2
100
AcDbEntity
  8
CEN
 48
0.0125
100
AcDbLine
 10
-1535.299752367746
 20
-47.70316136485121
 30
0.0
 11
-1536.337999048143
 21
-47.70316136485121
 31
0.0
  0
LINE
  5
2E3
330
2
100
AcDbEntity
  8
CEN
 48
0.0125
100
AcDbLine
 10
-1535.818875707957
 20
-47.18403802465241
 30
0.0
 11
-1535.818875707933
 21
-48.22228470504956
 31
0.0
  0
ARC
  5
2E4
330
2
100
AcDbEntity
  8
D Frame
100
AcDbCircle
 10
-1540.797275707943
 20
-12.27016136485758
 30
0.0
 40
0.6350000000052205
100
AcDbArc
 50
89.99999999942678
 51
179.9999999994528
  0
LINE
  5
2E5
330
2
100
AcDbEntity
  8
D Frame
100
AcDbLine
 10
-1541.432275707939
 20
-15.66804661904984
 30
0.0
 11
-1541.432275707948
 21
-12.27016136485167
 31
0.0
  0
ARC
  5
2E6
330
2
100
AcDbEntity
  8
D Frame
100
AcDbCircle
 10
-1540.797275707939
 20
-16.46116136485193
 30
0.0
 40
1.01600000000473
100
AcDbArc
 50
128.6821874533221
 51
231.3178125457419
  0
LINE
  5
2E7
330
2
100
AcDbEntity
  8
D Frame
100
AcDbLine
 10
-1541.432275707951
 20
-31.92404661906107
 30
0.0
 11
-1541.432275707953
 21
-17.25427611064401
 31
0.0
  0
ARC
  5
2E8
330
2
100
AcDbEntity
  8
D Frame
100
AcDbCircle
 10
-1540.797275707948
 20
-32.71716136485361
 30
0.0
 40
1.015999999998406
100
AcDbArc
 50
128.6821874537575
 51
231.3178125461448
  0
LINE
  5
2E9
330
2
100
AcDbEntity
  8
D Frame
100
AcDbLine
 10
-1541.432275707951
 20
-48.18004661906048
 30
0.0
 11
-1541.432275707953
 21
-33.51027611064478
 31
0.0
  0
ARC
  5
2EA
330
2
100
AcDbEntity
  8
D Frame
100
AcDbCircle
 10
-1540.797275707948
 20
-48.97316136485347
 30
0.0
 40
1.015999999998406
100
AcDbArc
 50
128.6821874537575
 51
231.3178125461448
  0
LINE
  5
2EB
330
2
100
AcDbEntity
  8
D Frame
100
AcDbLine
 10
-1541.432275707951
 20
-50.62416136485149
 30
0.0
 11
-1541.432275707953
 21
-49.76627611064464
 31
0.0
  0
ARC
  5
2EC
330
2
100
AcDbEntity
  8
D Frame
100
AcDbCircle
 10
-1540.79727570795
 20
-50.62416136485012
 30
0.0
 40
0.6350000000012415
100
AcDbArc
 50
180.0000000001042
 51
270.0000000001042
  0
ARC
  5
2ED
330
2
100
AcDbEntity
  8
D Frame
100
AcDbCircle
 10
-1540.79727570793
 20
-12.27016136485758
 30
0.0
 40
0.6350000000052205
100
AcDbArc
 50
0.0000000005211021
 51
90.00000000054717
  0
LINE
  5
2EE
330
2
100
AcDbEntity
  8
D Frame
100
AcDbLine
 10
-1540.162275707934
 20
-15.66804661904984
 30
0.0
 11
-1540.162275707926
 21
-12.27016136485167
 31
0.0
  0
ARC
  5
2EF
330
2
100
AcDbEntity
  8
D Frame
100
AcDbCircle
 10
-1540.797275707935
 20
-16.46116136485193
 30
0.0
 40
1.01600000000473
100
AcDbArc
 50
308.6821874542581
 51
51.31781254667787
  0
LINE
  5
2F0
330
2
100
AcDbEntity
  8
D Frame
100
AcDbLine
 10
-1540.162275707923
 20
-31.92404661906107
 30
0.0
 11
-1540.162275707921
 21
-17.25427611064401
 31
0.0
  0
ARC
  5
2F1
330
2
100
AcDbEntity
  8
D Frame
100
AcDbCircle
 10
-1540.797275707925
 20
-32.71716136485361
 30
0.0
 40
1.015999999998406
100
AcDbArc
 50
308.6821874538552
 51
51.31781254624247
  0
LINE
  5
2F2
330
2
100
AcDbEntity
  8
D Frame
100
AcDbLine
 10
-1540.162275707923
 20
-48.18004661906048
 30
0.0
 11
-1540.162275707921
 21
-33.51027611064478
 31
0.0
  0
ARC
  5
2F3
330
2
100
AcDbEntity
  8
D Frame
100
AcDbCircle
 10
-1540.797275707925
 20
-48.97316136485347
 30
0.0
 40
1.015999999998406
100
AcDbArc
 50
308.6821874538552
 51
51.31781254624247
  0
LINE
  5
2F4
330
2
100
AcDbEntity
  8
D Frame
100
AcDbLine
 10
-1540.162275707923
 20
-50.62416136485149
 30
0.0
 11
-1540.162275707921
 21
-49.76627611064464
 31
0.0
  0
ARC
  5
2F5
330
2
100
AcDbEntity
  8
D Frame
100
AcDbCircle
 10
-1540.797275707924
 20
-50.62416136485012
 30
0.0
 40
0.6350000000012415
100
AcDbArc
 50
269.9999999998958
 51
359.9999999998697
  0
CIRCLE
  5
2F6
330
2
100
AcDbEntity
  8
D Frame
100
AcDbCircle
 10
-1535.183875707925
 20
-7.317161364851699
 30
0.0
 40
0.508
  0
ARC
  5
2F7
330
2
100
AcDbEntity
  8
D Frame
100
AcDbCircle
 10
-1528.325875707925
 20
-7.317161364851699
 30
0.0
 40
0.7619999999993752
100
AcDbArc
 50
270.0
 51
90.0
  0
LINE
  5
2F8
330
2
100
AcDbEntity
  8
D Frame
100
AcDbLine
 10
-1528.833875707925
 20
-8.079161364850961
 30
0.0
 11
-1528.325875707925
 21
-8.079161364850961
 31
0.0
  0
ARC
  5
2F9
330
2
100
AcDbEntity
  8
D Frame
100
AcDbCircle
 10
-1528.833875707925
 20
-7.317161364851244
 30
0.0
 40
0.7619999999996594
100
AcDbArc
 50
90.0
 51
270.0
  0
LINE
  5
2FA
330
2
100
AcDbEntity
  8
D Frame
100
AcDbLine
 10
-1528.325875707925
 20
-6.555161364852438
 30
0.0
 11
-1528.833875707925
 21
-6.555161364851983
 31
0.0
  0
CIRCLE
  5
2FB
330
2
100
AcDbEntity
  8
D Frame
100
AcDbCircle
 10
-1532.643875707927
 20
-7.317161364851699
 30
0.0
 40
0.762
  0
LINE
  5
2FC
330
2
100
AcDbEntity
  8
CEN
 48
0.0125
100
AcDbLine
 10
-1496.336152367663
 20
-47.70316136485212
 30
0.0
 11
-1497.374399048061
 21
-47.70316136485212
 31
0.0
  0
LINE
  5
2FD
330
2
100
AcDbEntity
  8
CEN
 48
0.0125
100
AcDbLine
 10
-1496.855275707874
 20
-47.18403802465377
 30
0.0
 11
-1496.855275707849
 21
-48.22228470505137
 31
0.0
  0
LINE
  5
2FE
330
2
100
AcDbEntity
  8
CEN
 48
0.0125
100
AcDbLine
 10
-1502.686152367709
 20
-47.70316136485121
 30
0.0
 11
-1503.724399048106
 21
-47.70316136485121
 31
0.0
  0
LINE
  5
2FF
330
2
100
AcDbEntity
  8
CEN
 48
0.0125
100
AcDbLine
 10
-1503.20527570792
 20
-47.18403802465241
 30
0.0
 11
-1503.205275707896
 21
-48.22228470504956
 31
0.0
  0
LINE
  5
300
330
2
100
AcDbEntity
  8
CEN
 48
0.0125
100
AcDbLine
 10
-1496.336152367686
 20
-39.57516136485424
 30
0.0
 11
-1497.374399048083
 21
-39.57516136485424
 31
0.0
  0
LINE
  5
301
330
2
100
AcDbEntity
  8
CEN
 48
0.0125
100
AcDbLine
 10
-1496.855275707897
 20
-39.05603802465544
 30
0.0
 11
-1496.855275707873
 21
-40.09428470505258
 31
0.0
  0
LINE
  5
302
330
2
100
AcDbEntity
  8
CEN
 48
0.0125
100
AcDbLine
 10
-1502.686152367732
 20
-39.57516136485242
 30
0.0
 11
-1503.72439904813
 21
-39.57516136485242
 31
0.0
  0
LINE
  5
303
330
2
100
AcDbEntity
  8
CEN
 48
0.0125
100
AcDbLine
 10
-1503.205275707943
 20
-39.05603802465407
 30
0.0
 11
-1503.205275707919
 21
-40.09428470505167
 31
0.0
  0
LINE
  5
304
330
2
100
AcDbEntity
  8
CEN
 48
0.0125
100
AcDbLine
 10
-1496.336152367686
 20
-31.44716136485409
 30
0.0
 11
-1497.374399048083
 21
-31.44716136485409
 31
0.0
  0
LINE
  5
305
330
2
100
AcDbEntity
  8
CEN
 48
0.0125
100
AcDbLine
 10
-1496.855275707897
 20
-30.92803802465528
 30
0.0
 11
-1496.855275707873
 21
-31.96628470505288
 31
0.0
  0
LINE
  5
306
330
2
100
AcDbEntity
  8
CEN
 48
0.0125
100
AcDbLine
 10
-1502.686152367732
 20
-31.44716136485272
 30
0.0
 11
-1503.72439904813
 21
-31.44716136485272
 31
0.0
  0
LINE
  5
307
330
2
100
AcDbEntity
  8
CEN
 48
0.0125
100
AcDbLine
 10
-1503.205275707943
 20
-30.92803802465392
 30
0.0
 11
-1503.205275707919
 21
-31.96628470505152
 31
0.0
  0
LINE
  5
308
330
2
100
AcDbEntity
  8
CEN
 48
0.0125
100
AcDbLine
 10
-1496.336152367686
 20
-23.31916136485574
 30
0.0
 11
-1497.374399048083
 21
-23.31916136485574
 31
0.0
  0
LINE
  5
309
330
2
100
AcDbEntity
  8
CEN
 48
0.0125
100
AcDbLine
 10
-1496.855275707897
 20
-22.80003802465694
 30
0.0
 11
-1496.855275707873
 21
-23.83828470505455
 31
0.0
  0
LINE
  5
30A
330
2
100
AcDbEntity
  8
CEN
 48
0.0125
100
AcDbLine
 10
-1502.686152367732
 20
-23.31916136485438
 30
0.0
 11
-1503.72439904813
 21
-23.31916136485438
 31
0.0
  0
LINE
  5
30B
330
2
100
AcDbEntity
  8
CEN
 48
0.0125
100
AcDbLine
 10
-1503.205275707943
 20
-22.80003802465558
 30
0.0
 11
-1503.205275707919
 21
-23.83828470505318
 31
0.0
  0
LINE
  5
30C
330
2
100
AcDbEntity
  8
CEN
 48
0.0125
100
AcDbLine
 10
-1496.336152367697
 20
-15.19116136485604
 30
0.0
 11
-1497.374399048095
 21
-15.19116136485604
 31
0.0
  0
LINE
  5
30D
330
2
100
AcDbEntity
  8
CEN
 48
0.0125
100
AcDbLine
 10
-1496.855275707908
 20
-14.67203802465724
 30
0.0
 11
-1496.855275707884
 21
-15.71028470505484
 31
0.0
  0
LINE
  5
30E
330
2
100
AcDbEntity
  8
CEN
 48
0.0125
100
AcDbLine
 10
-1502.686152367743
 20
-15.19116136485468
 30
0.0
 11
-1503.724399048141
 21
-15.19116136485468
 31
0.0
  0
LINE
  5
30F
330
2
100
AcDbEntity
  8
CEN
 48
0.0125
100
AcDbLine
 10
-1503.205275707954
 20
-14.67203802465587
 30
0.0
 11
-1503.20527570793
 21
-15.71028470505348
 31
0.0
  0
LINE
  5
310
330
2
100
AcDbEntity
  8
CEN
 48
0.0125
100
AcDbLine
 10
-1512.642952367716
 20
-15.19116136485604
 30
0.0
 11
-1513.681199048114
 21
-15.19116136485604
 31
0.0
  0
LINE
  5
311
330
2
100
AcDbEntity
  8
CEN
 48
0.0125
100
AcDbLine
 10
-1513.162075707927
 20
-14.67203802465724
 30
0.0
 11
-1513.162075707902
 21
-15.71028470505484
 31
0.0
  0
LINE
  5
312
330
2
100
AcDbEntity
  8
CEN
 48
0.0125
100
AcDbLine
 10
-1518.992952367762
 20
-15.19116136485468
 30
0.0
 11
-1520.031199048159
 21
-15.19116136485468
 31
0.0
  0
LINE
  5
313
330
2
100
AcDbEntity
  8
CEN
 48
0.0125
100
AcDbLine
 10
-1519.512075707973
 20
-14.67203802465587
 30
0.0
 11
-1519.512075707949
 21
-15.71028470505348
 31
0.0
  0
LINE
  5
314
330
2
100
AcDbEntity
  8
CEN
 48
0.0125
100
AcDbLine
 10
-1512.642952367704
 20
-23.31916136485574
 30
0.0
 11
-1513.681199048102
 21
-23.31916136485574
 31
0.0
  0
LINE
  5
315
330
2
100
AcDbEntity
  8
CEN
 48
0.0125
100
AcDbLine
 10
-1513.162075707915
 20
-22.80003802465694
 30
0.0
 11
-1513.162075707891
 21
-23.83828470505455
 31
0.0
  0
LINE
  5
316
330
2
100
AcDbEntity
  8
CEN
 48
0.0125
100
AcDbLine
 10
-1518.992952367751
 20
-23.31916136485438
 30
0.0
 11
-1520.031199048148
 21
-23.31916136485438
 31
0.0
  0
LINE
  5
317
330
2
100
AcDbEntity
  8
CEN
 48
0.0125
100
AcDbLine
 10
-1519.512075707962
 20
-22.80003802465558
 30
0.0
 11
-1519.512075707937
 21
-23.83828470505318
 31
0.0
  0
LINE
  5
318
330
2
100
AcDbEntity
  8
CEN
 48
0.0125
100
AcDbLine
 10
-1512.642952367693
 20
-31.44716136485409
 30
0.0
 11
-1513.681199048091
 21
-31.44716136485409
 31
0.0
  0
LINE
  5
319
330
2
100
AcDbEntity
  8
CEN
 48
0.0125
100
AcDbLine
 10
-1513.162075707904
 20
-30.92803802465528
 30
0.0
 11
-1513.16207570788
 21
-31.96628470505288
 31
0.0
  0
LINE
  5
31A
330
2
100
AcDbEntity
  8
CEN
 48
0.0125
100
AcDbLine
 10
-1518.992952367739
 20
-31.44716136485272
 30
0.0
 11
-1520.031199048137
 21
-31.44716136485272
 31
0.0
  0
LINE
  5
31B
330
2
100
AcDbEntity
  8
CEN
 48
0.0125
100
AcDbLine
 10
-1519.51207570795
 20
-30.92803802465392
 30
0.0
 11
-1519.512075707926
 21
-31.96628470505152
 31
0.0
  0
LINE
  5
31C
330
2
100
AcDbEntity
  8
CEN
 48
0.0125
100
AcDbLine
 10
-1512.642952367693
 20
-39.57516136485515
 30
0.0
 11
-1513.681199048091
 21
-39.57516136485515
 31
0.0
  0
LINE
  5
31D
330
2
100
AcDbEntity
  8
CEN
 48
0.0125
100
AcDbLine
 10
-1513.162075707904
 20
-39.0560380246568
 30
0.0
 11
-1513.16207570788
 21
-40.0942847050544
 31
0.0
  0
LINE
  5
31E
330
2
100
AcDbEntity
  8
CEN
 48
0.0125
100
AcDbLine
 10
-1518.992952367739
 20
-39.57516136485424
 30
0.0
 11
-1520.031199048137
 21
-39.57516136485424
 31
0.0
  0
LINE
  5
31F
330
2
100
AcDbEntity
  8
CEN
 48
0.0125
100
AcDbLine
 10
-1519.51207570795
 20
-39.05603802465544
 30
0.0
 11
-1519.512075707926
 21
-40.09428470505258
 31
0.0
  0
LINE
  5
320
330
2
100
AcDbEntity
  8
CEN
 48
0.0125
100
AcDbLine
 10
-1512.642952367681
 20
-47.70316136485212
 30
0.0
 11
-1513.681199048079
 21
-47.70316136485212
 31
0.0
  0
LINE
  5
321
330
2
100
AcDbEntity
  8
CEN
 48
0.0125
100
AcDbLine
 10
-1513.162075707892
 20
-47.18403802465377
 30
0.0
 11
-1513.162075707868
 21
-48.22228470505137
 31
0.0
  0
LINE
  5
322
330
2
100
AcDbEntity
  8
CEN
 48
0.0125
100
AcDbLine
 10
-1518.992952367727
 20
-47.70316136485121
 30
0.0
 11
-1520.031199048125
 21
-47.70316136485121
 31
0.0
  0
LINE
  5
323
330
2
100
AcDbEntity
  8
CEN
 48
0.0125
100
AcDbLine
 10
-1519.512075707938
 20
-47.18403802465241
 30
0.0
 11
-1519.512075707914
 21
-48.22228470504956
 31
0.0
  0
ARC
  5
324
330
2
100
AcDbEntity
  8
D Frame
100
AcDbCircle
 10
-1524.490475707925
 20
-12.27016136485758
 30
0.0
 40
0.6350000000052205
100
AcDbArc
 50
89.99999999942678
 51
179.9999999994528
  0
LINE
  5
325
330
2
100
AcDbEntity
  8
D Frame
100
AcDbLine
 10
-1525.125475707921
 20
-15.66804661904984
 30
0.0
 11
-1525.12547570793
 21
-12.27016136485167
 31
0.0
  0
ARC
  5
326
330
2
100
AcDbEntity
  8
D Frame
100
AcDbCircle
 10
-1524.49047570792
 20
-16.46116136485193
 30
0.0
 40
1.01600000000473
100
AcDbArc
 50
128.6821874533221
 51
231.3178125457419
  0
LINE
  5
327
330
2
100
AcDbEntity
  8
D Frame
100
AcDbLine
 10
-1525.125475707932
 20
-31.92404661906107
 30
0.0
 11
-1525.125475707934
 21
-17.25427611064401
 31
0.0
  0
ARC
  5
328
330
2
100
AcDbEntity
  8
D Frame
100
AcDbCircle
 10
-1524.49047570793
 20
-32.71716136485361
 30
0.0
 40
1.015999999998406
100
AcDbArc
 50
128.6821874537575
 51
231.3178125461448
  0
LINE
  5
329
330
2
100
AcDbEntity
  8
D Frame
100
AcDbLine
 10
-1525.125475707932
 20
-48.18004661906048
 30
0.0
 11
-1525.125475707934
 21
-33.51027611064478
 31
0.0
  0
ARC
  5
32A
330
2
100
AcDbEntity
  8
D Frame
100
AcDbCircle
 10
-1524.49047570793
 20
-48.97316136485347
 30
0.0
 40
1.015999999998406
100
AcDbArc
 50
128.6821874537575
 51
231.3178125461448
  0
LINE
  5
32B
330
2
100
AcDbEntity
  8
D Frame
100
AcDbLine
 10
-1525.125475707932
 20
-50.62416136485149
 30
0.0
 11
-1525.125475707934
 21
-49.76627611064464
 31
0.0
  0
ARC
  5
32C
330
2
100
AcDbEntity
  8
D Frame
100
AcDbCircle
 10
-1524.490475707931
 20
-50.62416136485012
 30
0.0
 40
0.6350000000012415
100
AcDbArc
 50
180.0000000001042
 51
270.0000000001042
  0
LINE
  5
32D
330
2
100
AcDbEntity
  8
D Frame
100
AcDbLine
 10
-1492.766275707891
 20
-56.84716136485144
 30
0.0
 11
-1508.1836757079
 21
-56.84716136485144
 31
0.0
  0
LINE
  5
32E
330
2
100
AcDbEntity
  8
D Frame
100
AcDbLine
 10
-1720.172075707881
 20
-51.25916136485034
 30
0.0
 11
-1720.172075707881
 21
-56.00916136484489
 31
0.0
  0
LINE
  5
32F
330
2
100
AcDbEntity
  8
D Frame
100
AcDbLine
 10
-1491.876875707881
 20
-51.2591613648508
 30
0.0
 11
-1491.876875707881
 21
-56.00916136485125
 31
0.0
  0
ARC
  5
330
330
2
100
AcDbEntity
  8
D Frame
100
AcDbCircle
 10
-1491.876875707888
 20
-50.62416136484512
 30
0.0
 40
0.6350000000052205
100
AcDbArc
 50
180.0000000005471
 51
270.0000000005472
  0
LINE
  5
331
330
2
100
AcDbEntity
  8
D Frame
100
AcDbLine
 10
-1492.511875707895
 20
-49.76627611064191
 30
0.0
 11
-1492.511875707893
 21
-50.62416136485149
 31
0.0
  0
ARC
  5
332
330
2
100
AcDbEntity
  8
D Frame
100
AcDbCircle
 10
-1491.876875707893
 20
-48.97316136484938
 30
0.0
 40
1.015999999998406
100
AcDbArc
 50
128.6821874538552
 51
231.3178125462425
  0
LINE
  5
333
330
2
100
AcDbEntity
  8
D Frame
100
AcDbLine
 10
-1492.511875707895
 20
-33.51027611064251
 30
0.0
 11
-1492.511875707897
 21
-48.1800466190582
 31
0.0
  0
ARC
  5
334
330
2
100
AcDbEntity
  8
D Frame
100
AcDbCircle
 10
-1491.876875707893
 20
-32.71716136484997
 30
0.0
 40
1.015999999998406
100
AcDbArc
 50
128.6821874538552
 51
231.3178125462425
  0
LINE
  5
335
330
2
100
AcDbEntity
  8
D Frame
100
AcDbLine
 10
-1492.511875707883
 20
-17.25427611065129
 30
0.0
 11
-1492.511875707897
 21
-31.92404661905835
 31
0.0
  0
ARC
  5
336
330
2
100
AcDbEntity
  8
D Frame
100
AcDbCircle
 10
-1491.876875707883
 20
-16.4611613648492
 30
0.0
 40
1.016000000004925
100
AcDbArc
 50
128.6821874542906
 51
231.3178125466779
  0
LINE
  5
337
330
2
100
AcDbEntity
  8
D Frame
100
AcDbLine
 10
-1492.511875707895
 20
-12.27016136485167
 30
0.0
 11
-1492.511875707897
 21
-15.66804661905712
 31
0.0
  0
ARC
  5
338
330
2
100
AcDbEntity
  8
D Frame
100
AcDbCircle
 10
-1491.876875707894
 20
-12.27016136485304
 30
0.0
 40
0.6350000000012415
100
AcDbArc
 50
89.99999999989578
 51
179.9999999998697
  0
LINE
  5
339
330
2
100
AcDbEntity
  8
D Frame
100
AcDbLine
 10
-1720.172075707883
 20
-6.885161364851001
 30
0.0
 11
-1720.172075707893
 21
-11.6351613643908
 31
0.0
  0
LINE
  5
33A
102
{ACAD_REACTORS
330
DF
102
}
330
2
100
AcDbEntity
  8
D Frame
100
AcDbLine
 10
-1491.876875707883
 20
-6.885161364857367
 30
0.0
 11
-1491.876875707893
 21
-11.63516136485145
 31
0.0
  0
LINE
  5
33B
330
2
100
AcDbEntity
  8
D Frame
100
AcDbLine
 10
-1508.1836757079
 20
-6.047161364851262
 30
0.0
 11
-1492.76627570789
 21
-6.047161364851262
 31
0.0
  0
ARC
  5
33C
330
2
100
AcDbEntity
  8
D Frame
100
AcDbCircle
 10
-1508.183675707893
 20
-12.27016136485758
 30
0.0
 40
0.6350000000052205
100
AcDbArc
 50
0.0000000005211021
 51
90.00000000054717
  0
LINE
  5
33D
330
2
100
AcDbEntity
  8
D Frame
100
AcDbLine
 10
-1507.548675707897
 20
-15.66804661904984
 30
0.0
 11
-1507.548675707889
 21
-12.27016136485167
 31
0.0
  0
ARC
  5
33E
330
2
100
AcDbEntity
  8
D Frame
100
AcDbCircle
 10
-1508.183675707898
 20
-16.46116136485193
 30
0.0
 40
1.01600000000473
100
AcDbArc
 50
308.6821874542581
 51
51.31781254667787
  0
LINE
  5
33F
330
2
100
AcDbEntity
  8
D Frame
100
AcDbLine
 10
-1507.548675707886
 20
-31.92404661906107
 30
0.0
 11
-1507.548675707884
 21
-17.25427611064401
 31
0.0
  0
ARC
  5
340
330
2
100
AcDbEntity
  8
D Frame
100
AcDbCircle
 10
-1508.183675707888
 20
-32.71716136485361
 30
0.0
 40
1.015999999998406
100
AcDbArc
 50
308.6821874538552
 51
51.31781254624247
  0
LINE
  5
341
330
2
100
AcDbEntity
  8
D Frame
100
AcDbLine
 10
-1507.548675707886
 20
-48.18004661906048
 30
0.0
 11
-1507.548675707884
 21
-33.51027611064478
 31
0.0
  0
ARC
  5
342
330
2
100
AcDbEntity
  8
D Frame
100
AcDbCircle
 10
-1508.183675707888
 20
-48.97316136485347
 30
0.0
 40
1.015999999998406
100
AcDbArc
 50
308.6821874538552
 51
51.31781254624247
  0
LINE
  5
343
330
2
100
AcDbEntity
  8
D Frame
100
AcDbLine
 10
-1507.548675707886
 20
-50.62416136485149
 30
0.0
 11
-1507.548675707884
 21
-49.76627611064464
 31
0.0
  0
ARC
  5
344
330
2
100
AcDbEntity
  8
D Frame
100
AcDbCircle
 10
-1508.183675707887
 20
-50.62416136485012
 30
0.0
 40
0.6350000000012415
100
AcDbArc
 50
269.9999999998958
 51
359.9999999998697
  0
CIRCLE
  5
345
330
2
100
AcDbEntity
  8
D Frame
100
AcDbCircle
 10
-1502.570275707888
 20
-7.317161364851699
 30
0.0
 40
0.508
  0
ARC
  5
346
330
2
100
AcDbEntity
  8
D Frame
100
AcDbCircle
 10
-1495.712275707888
 20
-7.317161364851699
 30
0.0
 40
0.7619999999993752
100
AcDbArc
 50
270.0
 51
90.0
  0
LINE
  5
347
330
2
100
AcDbEntity
  8
D Frame
100
AcDbLine
 10
-1496.220275707888
 20
-8.079161364850961
 30
0.0
 11
-1495.712275707888
 21
-8.079161364850961
 31
0.0
  0
ARC
  5
348
330
2
100
AcDbEntity
  8
D Frame
100
AcDbCircle
 10
-1496.220275707888
 20
-7.317161364851244
 30
0.0
 40
0.7619999999996594
100
AcDbArc
 50
90.0
 51
270.0
  0
LINE
  5
349
330
2
100
AcDbEntity
  8
D Frame
100
AcDbLine
 10
-1495.712275707888
 20
-6.555161364852438
 30
0.0
 11
-1496.220275707888
 21
-6.555161364851983
 31
0.0
  0
CIRCLE
  5
34A
102
{ACAD_REACTORS
330
D0
102
}
330
2
100
AcDbEntity
  8
D Frame
100
AcDbCircle
 10
-1500.030275707891
 20
-7.317161364851699
 30
0.0
 40
0.762
  0
LINE
  5
34B
330
2
100
AcDbEntity
  8
D Frame
100
AcDbLine
 10
-1508.1836757079
 20
-56.84716136485144
 30
0.0
 11
-1719.282675707872
 21
-56.84716136485099
 31
0.0
  0
ARC
  5
34C
330
2
100
AcDbEntity
  8
D Frame
100
AcDbCircle
 10
-1508.183675707906
 20
-50.62416136484512
 30
0.0
 40
0.6350000000052205
100
AcDbArc
 50
180.0000000005471
 51
270.0000000005472
  0
LINE
  5
34D
330
2
100
AcDbEntity
  8
D Frame
100
AcDbLine
 10
-1508.818675707914
 20
-49.76627611064191
 30
0.0
 11
-1508.818675707911
 21
-50.62416136485149
 31
0.0
  0
ARC
  5
34E
330
2
100
AcDbEntity
  8
D Frame
100
AcDbCircle
 10
-1508.183675707911
 20
-48.97316136484938
 30
0.0
 40
1.015999999998406
100
AcDbArc
 50
128.6821874538552
 51
231.3178125462425
  0
LINE
  5
34F
330
2
100
AcDbEntity
  8
D Frame
100
AcDbLine
 10
-1508.818675707914
 20
-33.51027611064251
 30
0.0
 11
-1508.818675707916
 21
-48.1800466190582
 31
0.0
  0
ARC
  5
350
330
2
100
AcDbEntity
  8
D Frame
100
AcDbCircle
 10
-1508.183675707911
 20
-32.71716136484997
 30
0.0
 40
1.015999999998406
100
AcDbArc
 50
128.6821874538552
 51
231.3178125462425
  0
LINE
  5
351
330
2
100
AcDbEntity
  8
D Frame
100
AcDbLine
 10
-1508.818675707902
 20
-17.25427611065129
 30
0.0
 11
-1508.818675707916
 21
-31.92404661905835
 31
0.0
  0
ARC
  5
352
330
2
100
AcDbEntity
  8
D Frame
100
AcDbCircle
 10
-1508.183675707901
 20
-16.4611613648492
 30
0.0
 40
1.016000000004925
100
AcDbArc
 50
128.6821874542906
 51
231.3178125466779
  0
LINE
  5
353
330
2
100
AcDbEntity
  8
D Frame
100
AcDbLine
 10
-1508.818675707914
 20
-12.27016136485167
 30
0.0
 11
-1508.818675707916
 21
-15.66804661905712
 31
0.0
  0
ARC
  5
354
330
2
100
AcDbEntity
  8
D Frame
100
AcDbCircle
 10
-1508.183675707913
 20
-12.27016136485304
 30
0.0
 40
0.6350000000012415
100
AcDbArc
 50
89.99999999989578
 51
179.9999999998697
  0
LINE
  5
355
102
{ACAD_REACTORS
330
9D
102
}
330
2
100
AcDbEntity
  8
D Frame
100
AcDbLine
 10
-1719.282675708671
 20
-6.047161364850808
 30
0.0
 11
-1508.1836757079
 21
-6.047161364851262
 31
0.0
  0
ARC
  5
356
330
2
100
AcDbEntity
  8
D Frame
100
AcDbCircle
 10
-1524.490475707912
 20
-12.27016136485758
 30
0.0
 40
0.6350000000052205
100
AcDbArc
 50
0.0000000005211021
 51
90.00000000054717
  0
LINE
  5
357
330
2
100
AcDbEntity
  8
D Frame
100
AcDbLine
 10
-1523.855475707916
 20
-15.66804661904984
 30
0.0
 11
-1523.855475707907
 21
-12.27016136485167
 31
0.0
  0
ARC
  5
358
330
2
100
AcDbEntity
  8
D Frame
100
AcDbCircle
 10
-1524.490475707916
 20
-16.46116136485193
 30
0.0
 40
1.01600000000473
100
AcDbArc
 50
308.6821874542581
 51
51.31781254667787
  0
LINE
  5
359
330
2
100
AcDbEntity
  8
D Frame
100
AcDbLine
 10
-1523.855475707904
 20
-31.92404661906107
 30
0.0
 11
-1523.855475707903
 21
-17.25427611064401
 31
0.0
  0
ARC
  5
35A
330
2
100
AcDbEntity
  8
D Frame
100
AcDbCircle
 10
-1524.490475707907
 20
-32.71716136485361
 30
0.0
 40
1.015999999998406
100
AcDbArc
 50
308.6821874538552
 51
51.31781254624247
  0
LINE
  5
35B
330
2
100
AcDbEntity
  8
D Frame
100
AcDbLine
 10
-1523.855475707904
 20
-48.18004661906048
 30
0.0
 11
-1523.855475707903
 21
-33.51027611064478
 31
0.0
  0
ARC
  5
35C
330
2
100
AcDbEntity
  8
D Frame
100
AcDbCircle
 10
-1524.490475707907
 20
-48.97316136485347
 30
0.0
 40
1.015999999998406
100
AcDbArc
 50
308.6821874538552
 51
51.31781254624247
  0
LINE
  5
35D
330
2
100
AcDbEntity
  8
D Frame
100
AcDbLine
 10
-1523.855475707904
 20
-50.62416136485149
 30
0.0
 11
-1523.855475707903
 21
-49.76627611064464
 31
0.0
  0
ARC
  5
35E
330
2
100
AcDbEntity
  8
D Frame
100
AcDbCircle
 10
-1524.490475707906
 20
-50.62416136485012
 30
0.0
 40
0.6350000000012415
100
AcDbArc
 50
269.9999999998958
 51
359.9999999998697
  0
CIRCLE
  5
35F
330
2
100
AcDbEntity
  8
D Frame
100
AcDbCircle
 10
-1518.877075707907
 20
-7.317161364851699
 30
0.0
 40
0.508
  0
ARC
  5
360
330
2
100
AcDbEntity
  8
D Frame
100
AcDbCircle
 10
-1512.019075707907
 20
-7.317161364851699
 30
0.0
 40
0.7619999999993752
100
AcDbArc
 50
270.0
 51
90.0
  0
LINE
  5
361
330
2
100
AcDbEntity
  8
D Frame
100
AcDbLine
 10
-1512.527075707907
 20
-8.079161364850961
 30
0.0
 11
-1512.019075707907
 21
-8.079161364850961
 31
0.0
  0
ARC
  5
362
330
2
100
AcDbEntity
  8
D Frame
100
AcDbCircle
 10
-1512.527075707907
 20
-7.317161364851244
 30
0.0
 40
0.7619999999996594
100
AcDbArc
 50
90.0
 51
270.0
  0
LINE
  5
363
330
2
100
AcDbEntity
  8
D Frame
100
AcDbLine
 10
-1512.019075707907
 20
-6.555161364852438
 30
0.0
 11
-1512.527075707907
 21
-6.555161364851983
 31
0.0
  0
CIRCLE
  5
364
330
2
100
AcDbEntity
  8
D Frame
100
AcDbCircle
 10
-1516.337075707909
 20
-7.317161364851699
 30
0.0
 40
0.762
  0
CIRCLE
  5
365
330
2
100
AcDbEntity
  8
D Frame
100
AcDbCircle
 10
-1630.484675708039
 20
-55.57716136485101
 30
0.0
 40
0.762
  0
CIRCLE
  5
366
330
2
100
AcDbEntity
  8
D Frame
100
AcDbCircle
 10
-1614.17787570802
 20
-55.57716136485101
 30
0.0
 40
0.762
  0
CIRCLE
  5
367
330
2
100
AcDbEntity
  8
D Frame
100
AcDbCircle
 10
-1597.871075708001
 20
-55.57716136485101
 30
0.0
 40
0.762
  0
CIRCLE
  5
368
330
2
100
AcDbEntity
  8
D Frame
100
AcDbCircle
 10
-1581.564275707983
 20
-55.57716136485101
 30
0.0
 40
0.762
  0
CIRCLE
  5
369
330
2
100
AcDbEntity
  8
D Frame
100
AcDbCircle
 10
-1565.257475707964
 20
-55.57716136485101
 30
0.0
 40
0.762
  0
CIRCLE
  5
36A
330
2
100
AcDbEntity
  8
D Frame
100
AcDbCircle
 10
-1548.950675707946
 20
-55.57716136485101
 30
0.0
 40
0.762
  0
CIRCLE
  5
36B
330
2
100
AcDbEntity
  8
D Frame
100
AcDbCircle
 10
-1532.643875707927
 20
-55.57716136485101
 30
0.0
 40
0.762
  0
CIRCLE
  5
36C
330
2
100
AcDbEntity
  8
D Frame
100
AcDbCircle
 10
-1516.337075707909
 20
-55.57716136485101
 30
0.0
 40
0.762
  0
CIRCLE
  5
36D
330
2
100
AcDbEntity
  8
D Frame
100
AcDbCircle
 10
-1500.030275707891
 20
-55.57716136485101
 30
0.0
 40
0.762
  0
CIRCLE
  5
36E
330
2
100
AcDbEntity
  8
D Frame
 62
     0
370
     9
100
AcDbCircle
 10
-1503.205275707896
 20
-55.57716136485101
 30
0.0
 40
0.762
  0
CIRCLE
  5
36F
330
2
100
AcDbEntity
  8
D Frame
 62
     0
370
     9
100
AcDbCircle
 10
-1519.512075707914
 20
-55.57716136485101
 30
0.0
 40
0.762
  0
CIRCLE
  5
370
330
2
100
AcDbEntity
  8
D Frame
 62
     0
370
     9
100
AcDbCircle
 10
-1535.818875707933
 20
-55.57716136485101
 30
0.0
 40
0.762
  0
CIRCLE
  5
371
330
2
100
AcDbEntity
  8
D Frame
 62
     0
370
     9
100
AcDbCircle
 10
-1552.125675707951
 20
-55.57716136485101
 30
0.0
 40
0.762
  0
CIRCLE
  5
372
330
2
100
AcDbEntity
  8
D Frame
 62
     0
370
     9
100
AcDbCircle
 10
-1568.43247570797
 20
-55.57716136485101
 30
0.0
 40
0.762
  0
CIRCLE
  5
373
330
2
100
AcDbEntity
  8
D Frame
 62
     0
370
     9
100
AcDbCircle
 10
-1565.257475707964
 20
-55.57716136485101
 30
0.0
 40
0.762
  0
CIRCLE
  5
374
330
2
100
AcDbEntity
  8
D Frame
 62
     0
370
     9
100
AcDbCircle
 10
-1584.739275707988
 20
-55.57716136485101
 30
0.0
 40
0.762
  0
CIRCLE
  5
375
330
2
100
AcDbEntity
  8
D Frame
 62
     0
370
     9
100
AcDbCircle
 10
-1601.046075708007
 20
-55.57716136485101
 30
0.0
 40
0.762
  0
CIRCLE
  5
376
330
2
100
AcDbEntity
  8
D Frame
 62
     0
370
     9
100
AcDbCircle
 10
-1597.871075708001
 20
-55.57716136485101
 30
0.0
 40
0.762
  0
CIRCLE
  5
377
330
2
100
AcDbEntity
  8
D Frame
 62
     0
370
     9
100
AcDbCircle
 10
-1617.352875708025
 20
-55.57716136485101
 30
0.0
 40
0.762
  0
CIRCLE
  5
378
330
2
100
AcDbEntity
  8
D Frame
 62
     0
370
     9
100
AcDbCircle
 10
-1633.659675708044
 20
-55.57716136485101
 30
0.0
 40
0.762
  0
CIRCLE
  5
379
330
2
100
AcDbEntity
  8
D Frame
 62
     0
370
     9
100
AcDbCircle
 10
-1649.966475708062
 20
-55.57716136485101
 30
0.0
 40
0.762
  0
CIRCLE
  5
37A
330
2
100
AcDbEntity
  8
D Frame
 62
     0
370
     9
100
AcDbCircle
 10
-1666.27327570808
 20
-55.57716136485101
 30
0.0
 40
0.762
  0
CIRCLE
  5
37B
330
2
100
AcDbEntity
  8
D Frame
 62
     0
370
     9
100
AcDbCircle
 10
-1682.580075708099
 20
-55.57716136485055
 30
0.0
 40
0.762
  0
CIRCLE
  5
37C
330
2
100
AcDbEntity
  8
D Frame
 62
     0
370
     9
100
AcDbCircle
 10
-1698.886875708118
 20
-55.57716136485055
 30
0.0
 40
0.762
  0
CIRCLE
  5
37D
330
2
100
AcDbEntity
  8
D Frame
 62
     0
370
     9
100
AcDbCircle
 10
-1715.193675708136
 20
-55.57716136485055
 30
0.0
 40
0.762
  0
CIRCLE
  5
37E
330
2
100
AcDbEntity
  8
D Frame
 62
     0
370
     9
100
AcDbCircle
 10
-1712.018675708131
 20
-55.57716136485055
 30
0.0
 40
0.762
  0
CIRCLE
  5
37F
330
2
100
AcDbEntity
  8
D Frame
 62
     0
370
     9
100
AcDbCircle
 10
-1695.711875708112
 20
-55.57716136485055
 30
0.0
 40
0.762
  0
CIRCLE
  5
380
330
2
100
AcDbEntity
  8
D Frame
 62
     0
370
     9
100
AcDbCircle
 10
-1679.405075708094
 20
-55.57716136485101
 30
0.0
 40
0.762
  0
CIRCLE
  5
381
330
2
100
AcDbEntity
  8
D Frame
 62
     0
370
     9
100
AcDbCircle
 10
-1663.098275708075
 20
-55.57716136485101
 30
0.0
 40
0.762
  0
CIRCLE
  5
382
330
2
100
AcDbEntity
  8
D Frame
 62
     0
370
     9
100
AcDbCircle
 10
-1646.791475708057
 20
-55.57716136485101
 30
0.0
 40
0.762
  0
CIRCLE
  5
383
330
2
100
AcDbEntity
  8
D Frame
 62
     0
370
     9
100
AcDbCircle
 10
-1630.484675708039
 20
-55.57716136485101
 30
0.0
 40
0.762
  0
CIRCLE
  5
384
330
2
100
AcDbEntity
  8
D Frame
 62
     0
370
     9
100
AcDbCircle
 10
-1614.17787570802
 20
-55.57716136485101
 30
0.0
 40
0.762
  0
CIRCLE
  5
385
330
2
100
AcDbEntity
  8
D Frame
 62
     0
370
     9
100
AcDbCircle
 10
-1581.564275707983
 20
-55.57716136485101
 30
0.0
 40
0.762
  0
CIRCLE
  5
386
330
2
100
AcDbEntity
  8
D Frame
 62
     0
370
     9
100
AcDbCircle
 10
-1548.950675707946
 20
-55.57716136485101
 30
0.0
 40
0.762
  0
CIRCLE
  5
387
330
2
100
AcDbEntity
  8
D Frame
 62
     0
370
     9
100
AcDbCircle
 10
-1532.643875707927
 20
-55.57716136485101
 30
0.0
 40
0.762
  0
CIRCLE
  5
388
330
2
100
AcDbEntity
  8
D Frame
 62
     0
370
     9
100
AcDbCircle
 10
-1500.030275707891
 20
-55.57716136485101
 30
0.0
 40
0.762
  0
CIRCLE
  5
389
330
2
100
AcDbEntity
  8
D Frame
 62
     0
370
     9
100
AcDbCircle
 10
-1516.337075707909
 20
-55.57716136485101
 30
0.0
 40
0.762
  0
LINE
  5
38A
330
2
100
AcDbEntity
  8
D Frame
  6
ByBlock
 62
     0
100
AcDbLine
 10
-1492.766275698216
 20
-56.84716135573626
 30
0.0
 11
-1492.099206885296
 21
-56.46202899702848
 31
0.0
  0
LINE
  5
38B
330
2
100
AcDbEntity
  8
D Frame
  6
ByBlock
 62
     0
100
AcDbLine
 10
-1492.02887570622
 20
-56.00916136485125
 30
0.0
 11
-1491.876875707881
 21
-56.00916136485125
 31
0.0
  0
ARC
  5
38C
330
2
100
AcDbEntity
  8
D Frame
  6
ByBlock
 62
     0
100
AcDbCircle
 10
-1492.02887570622
 20
-56.13616136347002
 30
0.0
 40
0.1269999986187504
100
AcDbArc
 50
90.00000000010421
 51
238.204138309052
  0
ARC
  5
38D
330
2
100
AcDbEntity
  8
D Frame
  6
ByBlock
 62
     0
100
AcDbCircle
 10
-1492.162706884605
 20
-56.35204377194407
 30
0.0
 40
0.1269999986186272
100
AcDbArc
 50
299.9999999999916
 51
58.20413830905203
  0
LINE
  5
38E
330
2
100
AcDbEntity
  8
D Frame
  6
ByBlock
 62
     0
100
AcDbLine
 10
-1492.766275698218
 20
-6.047161373972357
 30
0.0
 11
-1492.099206885298
 21
-6.432293732680136
 31
0.0
  0
LINE
  5
38F
330
2
100
AcDbEntity
  8
D Frame
  6
ByBlock
 62
     0
100
AcDbLine
 10
-1492.028875706222
 20
-6.885161364857367
 30
0.0
 11
-1491.876875707883
 21
-6.885161364857367
 31
0.0
  0
ARC
  5
390
330
2
100
AcDbEntity
  8
D Frame
  6
ByBlock
 62
     0
100
AcDbCircle
 10
-1492.028875706222
 20
-6.758161366238596
 30
0.0
 40
0.1269999986187504
100
AcDbArc
 50
121.795861690948
 51
269.9999999998958
  0
ARC
  5
391
330
2
100
AcDbEntity
  8
D Frame
  6
ByBlock
 62
     0
100
AcDbCircle
 10
-1492.162706884607
 20
-6.542278957764551
 30
0.0
 40
0.1269999986186272
100
AcDbArc
 50
301.795861690948
 51
60.00000000000835
  0
LINE
  5
392
330
2
100
AcDbEntity
  8
D Frame
  6
ByBlock
 62
     0
100
AcDbLine
 10
-1719.282675717546
 20
-56.8471613557299
 30
0.0
 11
-1719.949744530467
 21
-56.46202899702212
 31
0.0
  0
LINE
  5
393
330
2
100
AcDbEntity
  8
D Frame
  6
ByBlock
 62
     0
100
AcDbLine
 10
-1720.020075709543
 20
-56.00916136484489
 30
0.0
 11
-1720.172075707881
 21
-56.00916136484489
 31
0.0
  0
ARC
  5
394
330
2
100
AcDbEntity
  8
D Frame
  6
ByBlock
 62
     0
100
AcDbCircle
 10
-1720.020075709543
 20
-56.13616136346365
 30
0.0
 40
0.1269999986187504
100
AcDbArc
 50
301.795861690948
 51
89.99999999989578
  0
ARC
  5
395
330
2
100
AcDbEntity
  8
D Frame
  6
ByBlock
 62
     0
100
AcDbCircle
 10
-1719.886244531157
 20
-56.3520437719377
 30
0.0
 40
0.1269999986186272
100
AcDbArc
 50
121.795861690948
 51
240.000000000014
  0
LINE
  5
396
330
2
100
AcDbEntity
  8
D Frame
  6
ByBlock
 62
     0
100
AcDbLine
 10
-1719.282675717548
 20
-6.047161373965991
 30
0.0
 11
-1719.949744530469
 21
-6.43229373267377
 31
0.0
  0
LINE
  5
397
330
2
100
AcDbEntity
  8
D Frame
  6
ByBlock
 62
     0
100
AcDbLine
 10
-1720.020075709545
 20
-6.885161364851001
 30
0.0
 11
-1720.172075707883
 21
-6.885161364851001
 31
0.0
  0
ARC
  5
398
330
2
100
AcDbEntity
  8
D Frame
  6
ByBlock
 62
     0
100
AcDbCircle
 10
-1720.020075709545
 20
-6.758161366232229
 30
0.0
 40
0.1269999986187504
100
AcDbArc
 50
270.0000000001042
 51
58.20413830905203
  0
ARC
  5
399
330
2
100
AcDbEntity
  8
D Frame
  6
ByBlock
 62
     0
100
AcDbCircle
 10
-1719.886244531159
 20
-6.542278957758185
 30
0.0
 40
0.1269999986186272
100
AcDbArc
 50
119.999999999986
 51
238.204138309052
  0
ENDSEC
  0
SECTION
  2
OBJECTS
  0
DICTIONARY
  5
C
330
0
100
AcDbDictionary
281
     1
  3
ACAD_COLOR
350
57
  3
ACAD_FIELDLIST
350
39C
  3
ACAD_GROUP
350
44
  3
ACAD_LAYOUT
350
19
  3
ACAD_MATERIAL
350
E
  3
ACAD_MLEADERSTYLE
350
5A
  3
ACAD_MLINESTYLE
350
45
  3
ACAD_PLOTSETTINGS
350
46
  3
ACAD_PLOTSTYLENAME
350
B
  3
ACAD_SCALELIST
350
58
  3
ACAD_TABLESTYLE
350
59
  3
ACAD_VISUALSTYLE
350
36
  3
ACDB_RECOMPOSE_DATA
350
3A0
  3
AcDbVariableDictionary
350
5B
  0
DICTIONARY
  5
38
330
33
100
AcDbDictionary
280
     1
281
     1
  0
DICTIONARY
  5
26
330
25
100
AcDbDictionary
280
     1
281
     1
  3
ACAD_LAYERFILTERS
360
27
  3
ACAD_LAYERSTATES
360
28
  3
ACLYDICTIONARY
360
29
  0
DICTIONARY
  5
8
330
7
100
AcDbDictionary
280
     1
281
     1
  3
ADSK_XREC_LAYER_RECONCILED
360
9
  0
DICTIONARY
  5
6C
330
6B
100
AcDbDictionary
280
     1
281
     1
  0
DICTIONARY
  5
EE
330
ED
100
AcDbDictionary
280
     1
281
     1
  0
DICTIONARY
  5
99
330
98
100
AcDbDictionary
280
     1
281
     1
  0
DICTIONARY
  5
3
330
2
100
AcDbDictionary
280
     1
281
     1
  3
ACAD_LAYOUTSELFREF
360
4
  3
ACAD_SORTENTS
360
39A
  0
DICTIONARY
  5
1E
330
1D
100
AcDbDictionary
280
     1
281
     1
  0
DICTIONARY
  5
9C
330
9B
100
AcDbDictionary
280
     1
281
     1
  3
ACAD_DIMASSOC
360
9D
  0
DICTIONARY
  5
AF
330
AE
100
AcDbDictionary
280
     1
281
     1
  3
ACAD_DIMASSOC
360
B0
  0
DICTIONARY
  5
BF
330
BE
100
AcDbDictionary
280
     1
281
     1
  3
ACAD_DIMASSOC
360
C0
  0
DICTIONARY
  5
CF
330
CE
100
AcDbDictionary
280
     1
281
     1
  3
ACAD_DIMASSOC
360
D0
  0
DICTIONARY
  5
DE
330
DD
100
AcDbDictionary
280
     1
281
     1
  3
ACAD_DIMASSOC
360
DF
  0
DICTIONARY
  5
57
102
{ACAD_REACTORS
330
C
102
}
330
C
100
AcDbDictionary
281
     1
  0
FIELDLIST
  5
39C
102
{ACAD_REACTORS
330
C
102
}
330
C
100
AcDbIdSet
 90
        0
100
AcDbFieldList
  0
DICTIONARY
  5
44
102
{ACAD_REACTORS
330
C
102
}
330
C
100
AcDbDictionary
281
     1
  0
DICTIONARY
  5
19
102
{ACAD_REACTORS
330
C
102
}
330
C
100
AcDbDictionary
281
     1
  3
Model
350
18
  3
整体图
350
21
1001
AcadStringInfo
1000
MIFCodePage
1070
     5
  0
DICTIONARY
  5
E
102
{ACAD_REACTORS
330
C
102
}
330
C
100
AcDbDictionary
281
     1
  3
ByBlock
350
4F
  3
ByLayer
350
47
  3
Global
350
D
  0
DICTIONARY
  5
5A
102
{ACAD_REACTORS
330
C
102
}
330
C
100
AcDbDictionary
281
     1
  0
DICTIONARY
  5
45
102
{ACAD_REACTORS
330
C
102
}
330
C
100
AcDbDictionary
281
     1
  3
Standard
350
70
  0
DICTIONARY
  5
46
102
{ACAD_REACTORS
330
C
102
}
330
C
100
AcDbDictionary
281
     1
  0
ACDBDICTIONARYWDFLT
  5
B
102
{ACAD_REACTORS
330
C
102
}
330
C
100
AcDbDictionary
281
     1
  3
Normal
350
A
100
AcDbDictionaryWithDefault
340
A
  0
DICTIONARY
  5
58
102
{ACAD_REACTORS
330
C
102
}
330
C
100
AcDbDictionary
281
     1
  3
A0
350
75
  3
A1
350
76
  3
A2
350
77
  3
A3
350
78
  3
A4
350
79
  3
A5
350
7A
  3
A6
350
7B
  3
A7
350
7C
  3
A8
350
7D
  3
A9
350
7E
  3
B0
350
7F
  3
B1
350
80
  3
B2
350
81
  3
B3
350
82
  3
B4
350
83
  3
B5
350
84
  3
B6
350
85
  3
B7
350
86
  3
B8
350
87
  3
B9
350
88
  3
C0
350
89
  3
C1
350
8A
  3
C2
350
8B
  3
C3
350
8C
  3
C4
350
8D
  3
C5
350
8E
  3
C6
350
8F
  3
C7
350
90
  3
C8
350
91
  3
C9
350
92
  3
D0
350
93
  3
D1
350
94
  3
D2
350
95
  3
D3
350
96
  0
DICTIONARY
  5
59
102
{ACAD_REACTORS
330
C
102
}
330
C
100
AcDbDictionary
281
     1
  3
Standard
350
71
  0
DICTIONARY
  5
36
102
{ACAD_REACTORS
330
C
102
}
330
C
100
AcDbDictionary
281
     1
  3
2dWireframe
350
35
  3
EdgeColorOff
350
A4
  3
Realistic
350
73
  3
Wireframe
350
74
  0
XRECORD
  5
3A0
102
{ACAD_REACTORS
330
C
102
}
330
C
100
AcDbXrecord
280
     1
 90
        1
330
71
  0
DICTIONARY
  5
5B
102
{ACAD_REACTORS
330
C
102
}
330
C
100
AcDbDictionary
281
     1
  3
CANNOSCALE
350
5C
  3
CMLEADERSTYLE
350
5D
  3
CTABLESTYLE
350
5E
  3
CVIEWDETAILSTYLE
350
5F
  3
CVIEWSECTIONSTYLE
350
60
  3
DIMASSOC
350
61
  3
HPCOLOR
350
62
  3
HPTRANSPARENCY
350
63
  3
INDEXCTL
350
64
  3
LAYEREVAL
350
65
  3
LAYERNOTIFY
350
66
  3
LIGHTINGUNITS
350
67
  3
MSLTSCALE
350
68
  3
PROJECTNAME
350
69
  3
SORTENTS
350
6A
  0
DICTIONARY
  5
27
102
{ACAD_REACTORS
330
26
102
}
330
26
100
AcDbDictionary
281
     1
  0
DICTIONARY
  5
28
102
{ACAD_REACTORS
330
26
102
}
330
26
100
AcDbDictionary
281
     1
  0
DICTIONARY
  5
29
102
{ACAD_REACTORS
330
26
102
}
330
26
100
AcDbDictionary
281
     1
1001
ACAD
1000
<All
  0
XRECORD
  5
9
102
{ACAD_REACTORS
330
8
102
}
330
8
100
AcDbXrecord
280
     1
290
     1
  0
XRECORD
  5
4
102
{ACAD_REACTORS
330
3
102
}
330
3
100
AcDbXrecord
280
     1
340
2
  0
SORTENTSTABLE
  5
39A
102
{ACAD_REACTORS
330
3
102
}
330
3
100
AcDbSortentsTable
330
2
  0
DIMASSOC
  5
9D
102
{ACAD_REACTORS
330
9C
102
}
330
9C
100
AcDbDimAssoc
330
9B
 90
        1
 70
     0
 71
     0
  1
AcDbOsnapPointRef
 72
    13
331
355
 73
     2
 91
        0
 40
0.0
 10
0.0
 20
0.0
 30
2.000000000000000E+50
 75
     0
  0
DIMASSOC
  5
B0
102
{ACAD_REACTORS
330
AF
102
}
330
AF
100
AcDbDimAssoc
330
AE
 90
        3
 70
     0
 71
     0
  1
AcDbOsnapPointRef
 72
     3
331
199
 73
     2
 91
        0
 40
0.0
 10
0.0
 20
0.0
 30
0.0
 75
     0
  1
AcDbOsnapPointRef
 72
     3
331
1C6
 73
     2
 91
        0
 40
0.0
 10
0.0
 20
0.0
 30
0.0
 75
     0
  0
DIMASSOC
  5
C0
102
{ACAD_REACTORS
330
BF
102
}
330
BF
100
AcDbDimAssoc
330
BE
 90
        1
 70
     0
 71
     0
  1
AcDbOsnapPointRef
 72
     3
331
112
 73
     2
 91
        0
 40
0.0
 10
0.0
 20
0.0
 30
0.0
 75
     0
  0
DIMASSOC
  5
D0
102
{ACAD_REACTORS
330
CF
102
}
330
CF
100
AcDbDimAssoc
330
CE
 90
        3
 70
     0
 71
     0
  1
AcDbOsnapPointRef
 72
     3
331
112
 73
     2
 91
        0
 40
0.0
 10
0.0
 20
0.0
 30
0.0
 75
     0
  1
AcDbOsnapPointRef
 72
     3
331
34A
 73
     2
 91
        0
 40
0.0
 10
0.0
 20
0.0
 30
0.0
 75
     0
  0
DIMASSOC
  5
DF
102
{ACAD_REACTORS
330
DE
102
}
330
DE
100
AcDbDimAssoc
330
DD
 90
        2
 70
     0
 71
     0
  1
AcDbOsnapPointRef
 72
    13
331
33A
 73
     2
 91
        0
 40
0.0
 10
0.0
 20
0.0
 30
2.000000000000000E+50
 75
     0
  0
LAYOUT
  5
18
102
{ACAD_XDICTIONARY
360
1B
102
}
102
{ACAD_REACTORS
330
19
102
}
330
19
100
AcDbPlotSettings
  1

  2
Acrobat PDFWriter
  4
Letter
  6

 40
7.143749713897705
 41
7.143756389617919
 42
7.14373779296875
 43
7.14373779296875
 44
215.8999938964844
 45
279.3999938964844
 46
0.0
 47
0.0
 48
0.0
 49
0.0
140
0.0
141
0.0
142
1.0
143
6.218471353959765
 70
 11952
 72
     0
 73
     1
 74
     0
  7

 75
     0
147
0.1608112256339695
 76
     0
 77
     2
 78
   300
148
-1591.45067320442
149
1757.702160035893
100
AcDbLayout
  1
Model
 70
     1
 71
     0
 10
0.0
 20
0.0
 11
12.0
 21
9.0
 12
0.0
 22
0.0
 32
0.0
 14
0.0
 24
0.0
 34
0.0
 15
0.0
 25
0.0
 35
0.0
146
0.0
 13
0.0
 23
0.0
 33
0.0
 16
1.0
 26
0.0
 36
0.0
 17
0.0
 27
1.0
 37
0.0
 76
     0
330
2
331
34
  0
LAYOUT
  5
21
102
{ACAD_XDICTIONARY
360
22
102
}
102
{ACAD_REACTORS
330
19
102
}
330
19
100
AcDbPlotSettings
  1

  2
Adobe PDF
  4
A3
  6

 40
3.174999952316284
 41
3.174999952316284
 42
3.17498779296875
 43
3.17498779296875
 44
297.0318298339844
 45
420.1583251953125
 46
0.0
 47
1.458599842993294
 48
0.0000000595974823
 49
0.0000001932867235
140
195.6701811174715
141
258.0000001932867
142
1.0
143
1.023225343895864
 70
   692
 72
     1
 73
     1
 74
     1
  7
monochrome.ctb
 75
     0
147
0.9773018289329746
 76
     0
 77
     2
 78
   300
148
143.0951503193352
149
18.84258189384388
100
AcDbLayout
  1
整体图
 70
     1
 71
     1
 10
-147.8363546216141
 20
-22.09132231192207
 11
282.0802921670699
 21
281.8391739179745
 12
0.0
 22
0.0
 32
0.0
 14
-143.0934682448112
 24
-18.83108083434535
 34
-0.0000000349181948
 15
277.3374077922226
 25
278.5789338556843
 35
0.0000000814935746
146
0.0
 13
0.0
 23
0.0
 33
0.0
 16
1.0
 26
0.0
 36
0.0
 17
0.0
 27
1.0
 37
0.0
 76
     0
330
1D
1001
ACAD_PSEXT
1000
Adobe PDF
1000
Adobe PDF Converter
1000
Documents
1000

1070
     0
  0
MATERIAL
  5
4F
102
{ACAD_XDICTIONARY
360
50
102
}
102
{ACAD_REACTORS
330
E
102
}
330
E
100
AcDbMaterial
  1
ByBlock
 72
     0
 43
0.0008202099737533
 43
0.0
 43
0.0
 43
0.0
 43
0.0
 43
0.0008202099737533
 43
0.0
 43
0.0
 43
0.0
 43
0.0
 43
1.0
 43
0.0
 43
0.0
 43
0.0
 43
0.0
 43
1.0
 77
     0
 47
0.0008202099737533
 47
0.0
 47
0.0
 47
0.0
 47
0.0
 47
0.0008202099737533
 47
0.0
 47
0.0
 47
0.0
 47
0.0
 47
1.0
 47
0.0
 47
0.0
 47
0.0
 47
0.0
 47
1.0
171
     0
 49
0.0008202099737533
 49
0.0
 49
0.0
 49
0.0
 49
0.0
 49
0.0008202099737533
 49
0.0
 49
0.0
 49
0.0
 49
0.0
 49
1.0
 49
0.0
 49
0.0
 49
0.0
 49
0.0
 49
1.0
175
     0
142
0.0008202099737533
142
0.0
142
0.0
142
0.0
142
0.0
142
0.0008202099737533
142
0.0
142
0.0
142
0.0
142
0.0
142
1.0
142
0.0
142
0.0
142
0.0
142
0.0
142
1.0
179
     0
144
0.0008202099737533
144
0.0
144
0.0
144
0.0
144
0.0
144
0.0008202099737533
144
0.0
144
0.0
144
0.0
144
0.0
144
1.0
144
0.0
144
0.0
144
0.0
144
0.0
144
1.0
147
0.0008202099737533
147
0.0
147
0.0
147
0.0
147
0.0
147
0.0008202099737533
147
0.0
147
0.0
147
0.0
147
0.0
147
1.0
147
0.0
147
0.0
147
0.0
147
0.0
147
1.0
  0
MATERIAL
  5
47
102
{ACAD_XDICTIONARY
360
48
102
}
102
{ACAD_REACTORS
330
E
102
}
330
E
100
AcDbMaterial
  1
ByLayer
 72
     0
 43
0.0008202099737533
 43
0.0
 43
0.0
 43
0.0
 43
0.0
 43
0.0008202099737533
 43
0.0
 43
0.0
 43
0.0
 43
0.0
 43
1.0
 43
0.0
 43
0.0
 43
0.0
 43
0.0
 43
1.0
 77
     0
 47
0.0008202099737533
 47
0.0
 47
0.0
 47
0.0
 47
0.0
 47
0.0008202099737533
 47
0.0
 47
0.0
 47
0.0
 47
0.0
 47
1.0
 47
0.0
 47
0.0
 47
0.0
 47
0.0
 47
1.0
171
     0
 49
0.0008202099737533
 49
0.0
 49
0.0
 49
0.0
 49
0.0
 49
0.0008202099737533
 49
0.0
 49
0.0
 49
0.0
 49
0.0
 49
1.0
 49
0.0
 49
0.0
 49
0.0
 49
0.0
 49
1.0
175
     0
142
0.0008202099737533
142
0.0
142
0.0
142
0.0
142
0.0
142
0.0008202099737533
142
0.0
142
0.0
142
0.0
142
0.0
142
1.0
142
0.0
142
0.0
142
0.0
142
0.0
142
1.0
179
     0
144
0.0008202099737533
144
0.0
144
0.0
144
0.0
144
0.0
144
0.0008202099737533
144
0.0
144
0.0
144
0.0
144
0.0
144
1.0
144
0.0
144
0.0
144
0.0
144
0.0
144
1.0
147
0.0008202099737533
147
0.0
147
0.0
147
0.0
147
0.0
147
0.0008202099737533
147
0.0
147
0.0
147
0.0
147
0.0
147
1.0
147
0.0
147
0.0
147
0.0
147
0.0
147
1.0
  0
MATERIAL
  5
D
102
{ACAD_XDICTIONARY
360
F
102
}
102
{ACAD_REACTORS
330
E
102
}
330
E
100
AcDbMaterial
  1
Global
 72
     0
 43
0.0008202099737533
 43
0.0
 43
0.0
 43
0.0
 43
0.0
 43
0.0008202099737533
 43
0.0
 43
0.0
 43
0.0
 43
0.0
 43
1.0
 43
0.0
 43
0.0
 43
0.0
 43
0.0
 43
1.0
 77
     0
 47
0.0008202099737533
 47
0.0
 47
0.0
 47
0.0
 47
0.0
 47
0.0008202099737533
 47
0.0
 47
0.0
 47
0.0
 47
0.0
 47
1.0
 47
0.0
 47
0.0
 47
0.0
 47
0.0
 47
1.0
171
     0
 49
0.0008202099737533
 49
0.0
 49
0.0
 49
0.0
 49
0.0
 49
0.0008202099737533
 49
0.0
 49
0.0
 49
0.0
 49
0.0
 49
1.0
 49
0.0
 49
0.0
 49
0.0
 49
0.0
 49
1.0
175
     0
142
0.0008202099737533
142
0.0
142
0.0
142
0.0
142
0.0
142
0.0008202099737533
142
0.0
142
0.0
142
0.0
142
0.0
142
1.0
142
0.0
142
0.0
142
0.0
142
0.0
142
1.0
179
     0
144
0.0008202099737533
144
0.0
144
0.0
144
0.0
144
0.0
144
0.0008202099737533
144
0.0
144
0.0
144
0.0
144
0.0
144
1.0
144
0.0
144
0.0
144
0.0
144
0.0
144
1.0
147
0.0008202099737533
147
0.0
147
0.0
147
0.0
147
0.0
147
0.0008202099737533
147
0.0
147
0.0
147
0.0
147
0.0
147
1.0
147
0.0
147
0.0
147
0.0
147
0.0
147
1.0
  0
MLINESTYLE
  5
70
102
{ACAD_REACTORS
330
45
102
}
330
45
100
AcDbMlineStyle
  2
STANDARD
 70
     0
  3

 62
   256
 51
90.0
 52
90.0
 71
     2
 49
0.5
 62
   256
  6
BYLAYER
 49
-0.5
 62
   256
  6
BYLAYER
  0
ACDBPLACEHOLDER
  5
A
102
{ACAD_REACTORS
330
B
102
}
330
B
  0
SCALE
  5
75
102
{ACAD_REACTORS
330
58
102
}
330
58
100
AcDbScale
 70
     0
300
1:1
140
1.0
141
1.0
290
     1
1001
ACAD
1000
AcRTDxfName
1000
SCALE
1000
AcRTDxfName
1000
SCALE
1000
AcRTDxfName
1000
SCALE
1000
AcRTDxfName
1000
SCALE
  0
SCALE
  5
76
102
{ACAD_REACTORS
330
58
102
}
330
58
100
AcDbScale
 70
     0
300
1:2
140
1.0
141
2.0
290
     0
  0
SCALE
  5
77
102
{ACAD_REACTORS
330
58
102
}
330
58
100
AcDbScale
 70
     0
300
1:4
140
1.0
141
4.0
290
     0
  0
SCALE
  5
78
102
{ACAD_REACTORS
330
58
102
}
330
58
100
AcDbScale
 70
     0
300
1:5
140
1.0
141
5.0
290
     0
  0
SCALE
  5
79
102
{ACAD_REACTORS
330
58
102
}
330
58
100
AcDbScale
 70
     0
300
1:8
140
1.0
141
8.0
290
     0
  0
SCALE
  5
7A
102
{ACAD_REACTORS
330
58
102
}
330
58
100
AcDbScale
 70
     0
300
1:10
140
1.0
141
10.0
290
     0
  0
SCALE
  5
7B
102
{ACAD_REACTORS
330
58
102
}
330
58
100
AcDbScale
 70
     0
300
1:16
140
1.0
141
16.0
290
     0
  0
SCALE
  5
7C
102
{ACAD_REACTORS
330
58
102
}
330
58
100
AcDbScale
 70
     0
300
1:20
140
1.0
141
20.0
290
     0
  0
SCALE
  5
7D
102
{ACAD_REACTORS
330
58
102
}
330
58
100
AcDbScale
 70
     0
300
1:30
140
1.0
141
30.0
290
     0
  0
SCALE
  5
7E
102
{ACAD_REACTORS
330
58
102
}
330
58
100
AcDbScale
 70
     0
300
1:40
140
1.0
141
40.0
290
     0
  0
SCALE
  5
7F
102
{ACAD_REACTORS
330
58
102
}
330
58
100
AcDbScale
 70
     0
300
1:50
140
1.0
141
50.0
290
     0
  0
SCALE
  5
80
102
{ACAD_REACTORS
330
58
102
}
330
58
100
AcDbScale
 70
     0
300
1:100
140
1.0
141
100.0
290
     0
  0
SCALE
  5
81
102
{ACAD_REACTORS
330
58
102
}
330
58
100
AcDbScale
 70
     0
300
2:1
140
2.0
141
1.0
290
     0
  0
SCALE
  5
82
102
{ACAD_REACTORS
330
58
102
}
330
58
100
AcDbScale
 70
     0
300
4:1
140
4.0
141
1.0
290
     0
  0
SCALE
  5
83
102
{ACAD_REACTORS
330
58
102
}
330
58
100
AcDbScale
 70
     0
300
8:1
140
8.0
141
1.0
290
     0
  0
SCALE
  5
84
102
{ACAD_REACTORS
330
58
102
}
330
58
100
AcDbScale
 70
     0
300
10:1
140
10.0
141
1.0
290
     0
  0
SCALE
  5
85
102
{ACAD_REACTORS
330
58
102
}
330
58
100
AcDbScale
 70
     0
300
100:1
140
100.0
141
1.0
290
     0
  0
SCALE
  5
86
102
{ACAD_REACTORS
330
58
102
}
330
58
100
AcDbScale
 70
     0
300
20:1
140
1.0
141
1.0
290
     0
  0
SCALE
  5
87
102
{ACAD_REACTORS
330
58
102
}
330
58
100
AcDbScale
 70
     0
300
1/128" = 1'-0"
140
0.0078125
141
12.0
290
     0
  0
SCALE
  5
88
102
{ACAD_REACTORS
330
58
102
}
330
58
100
AcDbScale
 70
     0
300
1/64" = 1'-0"
140
0.015625
141
12.0
290
     0
  0
SCALE
  5
89
102
{ACAD_REACTORS
330
58
102
}
330
58
100
AcDbScale
 70
     0
300
1/32" = 1'-0"
140
0.03125
141
12.0
290
     0
  0
SCALE
  5
8A
102
{ACAD_REACTORS
330
58
102
}
330
58
100
AcDbScale
 70
     0
300
1/16" = 1'-0"
140
0.0625
141
12.0
290
     0
  0
SCALE
  5
8B
102
{ACAD_REACTORS
330
58
102
}
330
58
100
AcDbScale
 70
     0
300
3/32" = 1'-0"
140
0.09375
141
12.0
290
     0
  0
SCALE
  5
8C
102
{ACAD_REACTORS
330
58
102
}
330
58
100
AcDbScale
 70
     0
300
1/8" = 1'-0"
140
0.125
141
12.0
290
     0
  0
SCALE
  5
8D
102
{ACAD_REACTORS
330
58
102
}
330
58
100
AcDbScale
 70
     0
300
3/16" = 1'-0"
140
0.1875
141
12.0
290
     0
  0
SCALE
  5
8E
102
{ACAD_REACTORS
330
58
102
}
330
58
100
AcDbScale
 70
     0
300
1/4" = 1'-0"
140
0.25
141
12.0
290
     0
  0
SCALE
  5
8F
102
{ACAD_REACTORS
330
58
102
}
330
58
100
AcDbScale
 70
     0
300
3/8" = 1'-0"
140
0.375
141
12.0
290
     0
  0
SCALE
  5
90
102
{ACAD_REACTORS
330
58
102
}
330
58
100
AcDbScale
 70
     0
300
1/2" = 1'-0"
140
0.5
141
12.0
290
     0
  0
SCALE
  5
91
102
{ACAD_REACTORS
330
58
102
}
330
58
100
AcDbScale
 70
     0
300
3/4" = 1'-0"
140
0.75
141
12.0
290
     0
  0
SCALE
  5
92
102
{ACAD_REACTORS
330
58
102
}
330
58
100
AcDbScale
 70
     0
300
1" = 1'-0"
140
1.0
141
12.0
290
     0
  0
SCALE
  5
93
102
{ACAD_REACTORS
330
58
102
}
330
58
100
AcDbScale
 70
     0
300
1-1/2" = 1'-0"
140
1.5
141
12.0
290
     0
  0
SCALE
  5
94
102
{ACAD_REACTORS
330
58
102
}
330
58
100
AcDbScale
 70
     0
300
3" = 1'-0"
140
3.0
141
12.0
290
     0
  0
SCALE
  5
95
102
{ACAD_REACTORS
330
58
102
}
330
58
100
AcDbScale
 70
     0
300
6" = 1'-0"
140
6.0
141
12.0
290
     0
  0
SCALE
  5
96
102
{ACAD_REACTORS
330
58
102
}
330
58
100
AcDbScale
 70
     0
300
1'-0" = 1'-0"
140
12.0
141
12.0
290
     0
  0
TABLESTYLE
  5
71
102
{ACAD_XDICTIONARY
360
72
102
}
102
{ACAD_REACTORS
330
59
102
}
330
59
100
AcDbTableStyle
280
     0
  3
Standard
 70
     0
 71
     0
 40
0.8
 41
0.8
280
     0
281
     0
  7
Standard
140
2.0
170
     2
 62
     0
 63
     7
283
     0
 90
        4
 91
        0
  1

274
    -2
284
     1
 64
     0
275
    -2
285
     1
 65
     0
276
    -2
286
     1
 66
     0
277
    -2
287
     1
 67
     0
278
    -2
288
     1
 68
     0
279
    -2
289
     1
 69
     0
  7
Standard
140
0.25
170
     5
 62
     0
 63
     7
283
     0
 90
        4
 91
        0
  1

274
    -2
284
     1
 64
     0
275
    -2
285
     1
 65
     0
276
    -2
286
     1
 66
     0
277
    -2
287
     1
 67
     0
278
    -2
288
     1
 68
     0
279
    -2
289
     1
 69
     0
  7
Standard
140
0.18
170
     5
 62
     0
 63
     7
283
     0
 90
        4
 91
        0
  1

274
    -2
284
     1
 64
     0
275
    -2
285
     1
 65
     0
276
    -2
286
     1
 66
     0
277
    -2
287
     1
 67
     0
278
    -2
288
     1
 68
     0
279
    -2
289
     1
 69
     0
  0
VISUALSTYLE
  5
35
102
{ACAD_REACTORS
330
36
102
}
330
36
100
AcDbVisualStyle
  2
2dWireframe
 70
     4
177
     3
291
     0
 70
    58
 90
        0
176
     1
 90
        2
176
     1
 90
        0
176
     1
 90
        0
176
     1
 40
0.6
176
     1
 40
30.0
176
     1
 62
     7
176
     1
 90
        1
176
     1
 90
        4
176
     1
 62
     7
176
     1
 62
   257
176
     1
 90
        1
176
     1
 90
        1
176
     1
 40
1.0
176
     1
 90
        0
176
     1
 62
   257
176
     1
 40
1.0
176
     1
 90
        1
176
     1
 90
        6
176
     1
 90
        2
176
     1
 62
     7
176
     1
 90
        5
176
     1
 90
        0
176
     1
 90
        0
176
     1
290
     0
176
     1
 90
        1
176
     1
 40
0.0
176
     1
 90
        0
176
     1
290
     1
176
     1
290
     1
176
     1
290
     0
176
     1
290
     0
176
     1
290
     0
176
     1
290
     0
176
     1
290
     0
176
     1
290
     0
176
     1
290
     0
176
     1
 90
       50
176
     1
 40
0.0
176
     1
 40
1.0
176
     1
 90
        0
176
     1
 62
    18
420
        0
176
     1
 90
       50
176
     1
 90
        3
176
     1
 62
     5
420
      255
176
     1
290
     0
176
     1
 90
       50
176
     1
 90
       50
176
     1
 90
       50
176
     1
290
     0
176
     1
 90
       50
176
     1
 62
   256
176
     0
 40
1.0
176
     0
 90
        2
176
     1
  1
strokes_ogs.tif
176
     1
290
     0
176
     1
 40
1.0
176
     1
 40
1.0
176
     1
1001
ACAD
1000
AcRTDxfName
1000
VISUALSTYLE
1000
AcRTDxfName
1000
VISUALSTYLE
1000
AcRTDxfName
1000
VISUALSTYLE
1000
AcRTDxfName
1000
VISUALSTYLE
  0
VISUALSTYLE
  5
A4
102
{ACAD_REACTORS
330
36
102
}
330
36
100
AcDbVisualStyle
  2
EdgeColorOff
 70
    22
177
     3
291
     1
 70
    58
 90
        2
176
     0
 90
        2
176
     0
 90
        0
176
     0
 90
        0
176
     0
 40
0.6
176
     0
 40
30.0
176
     0
 62
     7
176
     0
 90
        1
176
     0
 90
        4
176
     0
 62
     7
176
     0
 62
   257
176
     0
 90
        1
176
     0
 90
        1
176
     0
 40
1.0
176
     0
 90
        8
176
     2
 62
     7
176
     0
 40
1.0
176
     0
 90
        1
176
     0
 90
        6
176
     0
 90
        2
176
     0
 62
     7
176
     0
 90
        5
176
     0
 90
        0
176
     0
 90
        0
176
     0
290
     0
176
     0
 90
        1
176
     0
 40
0.0
176
     0
 90
        0
176
     0
290
     0
176
     0
290
     1
176
     0
290
     1
176
     0
290
     0
176
     0
290
     0
176
     0
290
     0
176
     0
290
     0
176
     0
290
     0
176
     0
290
     0
176
     0
 90
       50
176
     0
 40
0.0
176
     0
 40
1.0
176
     0
 90
        0
176
     0
 62
    18
420
        0
176
     0
 90
       50
176
     0
 90
        3
176
     0
 62
     5
420
      255
176
     0
290
     0
176
     0
 90
       50
176
     0
 90
       50
176
     0
 90
       50
176
     0
290
     0
176
     0
 90
       50
176
     0
 62
   256
176
     0
 40
1.0
176
     0
 90
        2
176
     0
  1
strokes_ogs.tif
176
     0
290
     0
176
     0
 40
1.0
176
     0
 40
1.0
176
     0
  0
VISUALSTYLE
  5
73
102
{ACAD_REACTORS
330
36
102
}
330
36
100
AcDbVisualStyle
  2
Realistic
 70
     8
177
     3
291
     0
 70
    58
 90
        2
176
     1
 90
        2
176
     1
 90
        0
176
     1
 90
        0
176
     1
 40
0.6
176
     1
 40
30.0
176
     1
 62
     7
176
     1
 90
        1
176
     1
 90
        0
176
     1
 62
     7
176
     1
 62
   257
176
     1
 90
        1
176
     1
 90
        1
176
     1
 40
1.0
176
     1
 90
        8
176
     1
 62
     8
176
     1
 40
1.0
176
     1
 90
        1
176
     1
 90
        6
176
     1
 90
        2
176
     1
 62
     7
176
     1
 90
        5
176
     1
 90
        0
176
     1
 90
        0
176
     1
290
     0
176
     1
 90
       13
176
     1
 40
0.0
176
     1
 90
        0
176
     1
290
     0
176
     1
290
     1
176
     1
290
     1
176
     1
290
     0
176
     1
290
     0
176
     1
290
     0
176
     1
290
     0
176
     1
290
     0
176
     1
290
     0
176
     1
 90
       50
176
     1
 40
0.0
176
     1
 40
1.0
176
     1
 90
        0
176
     1
 62
    18
420
        0
176
     1
 90
       50
176
     1
 90
        3
176
     1
 62
     5
420
      255
176
     1
290
     0
176
     1
 90
       50
176
     1
 90
       50
176
     1
 90
       50
176
     1
290
     0
176
     1
 90
       50
176
     1
 62
   256
176
     0
 40
1.0
176
     0
 90
        2
176
     1
  1
strokes_ogs.tif
176
     1
290
     0
176
     1
 40
1.0
176
     1
 40
1.0
176
     1
1001
ACAD
1000
AcRTDxfName
1000
VISUALSTYLE
1000
AcRTDxfName
1000
VISUALSTYLE
1000
AcRTDxfName
1000
VISUALSTYLE
1000
AcRTDxfName
1000
VISUALSTYLE
  0
VISUALSTYLE
  5
74
102
{ACAD_REACTORS
330
36
102
}
330
36
100
AcDbVisualStyle
  2
Wireframe
 70
     5
177
     3
291
     0
 70
    58
 90
        0
176
     1
 90
        2
176
     1
 90
        0
176
     1
 90
        0
176
     1
 40
0.6
176
     1
 40
30.0
176
     1
 62
     7
176
     1
 90
        1
176
     1
 90
        4
176
     1
 62
     7
176
     1
 62
   257
176
     1
 90
        1
176
     1
 90
        1
176
     1
 40
1.0
176
     1
 90
        0
176
     1
 62
   257
176
     1
 40
1.0
176
     1
 90
        1
176
     1
 90
        6
176
     1
 90
        2
176
     1
 62
     7
176
     1
 90
        3
176
     1
 90
        0
176
     1
 90
        0
176
     1
290
     0
176
     1
 90
        1
176
     1
 40
0.0
176
     1
 90
        0
176
     1
290
     0
176
     1
290
     1
176
     1
290
     1
176
     1
290
     0
176
     1
290
     0
176
     1
290
     0
176
     1
290
     0
176
     1
290
     0
176
     1
290
     0
176
     1
 90
       50
176
     1
 40
0.0
176
     1
 40
1.0
176
     1
 90
        0
176
     1
 62
    18
420
        0
176
     1
 90
       50
176
     1
 90
        3
176
     1
 62
     5
420
      255
176
     1
290
     0
176
     1
 90
       50
176
     1
 90
       50
176
     1
 90
       50
176
     1
290
     0
176
     1
 90
       50
176
     1
 62
   256
176
     0
 40
1.0
176
     0
 90
        2
176
     1
  1
strokes_ogs.tif
176
     1
290
     0
176
     1
 40
1.0
176
     1
 40
1.0
176
     1
  0
DICTIONARYVAR
  5
5C
102
{ACAD_REACTORS
330
5B
102
}
330
5B
100
DictionaryVariables
280
     0
  1
1:1
  0
DICTIONARYVAR
  5
5D
102
{ACAD_REACTORS
330
5B
102
}
330
5B
100
DictionaryVariables
280
     0
  1
STANDARD
  0
DICTIONARYVAR
  5
5E
102
{ACAD_REACTORS
330
5B
102
}
330
5B
100
DictionaryVariables
280
     0
  1
STANDARD
  0
DICTIONARYVAR
  5
5F
102
{ACAD_REACTORS
330
5B
102
}
330
5B
100
DictionaryVariables
280
     0
  1

  0
DICTIONARYVAR
  5
60
102
{ACAD_REACTORS
330
5B
102
}
330
5B
100
DictionaryVariables
280
     0
  1

  0
DICTIONARYVAR
  5
61
102
{ACAD_REACTORS
330
5B
102
}
330
5B
100
DictionaryVariables
280
     0
  1
1
  0
DICTIONARYVAR
  5
62
102
{ACAD_REACTORS
330
5B
102
}
330
5B
100
DictionaryVariables
280
     0
  1
3
  0
DICTIONARYVAR
  5
63
102
{ACAD_REACTORS
330
5B
102
}
330
5B
100
DictionaryVariables
280
     0
  1
ByLayer
  0
DICTIONARYVAR
  5
64
102
{ACAD_REACTORS
330
5B
102
}
330
5B
100
DictionaryVariables
280
     0
  1
0
  0
DICTIONARYVAR
  5
65
102
{ACAD_REACTORS
330
5B
102
}
330
5B
100
DictionaryVariables
280
     0
  1
1
  0
DICTIONARYVAR
  5
66
102
{ACAD_REACTORS
330
5B
102
}
330
5B
100
DictionaryVariables
280
     0
  1
15
  0
DICTIONARYVAR
  5
67
102
{ACAD_REACTORS
330
5B
102
}
330
5B
100
DictionaryVariables
280
     0
  1
0
  0
DICTIONARYVAR
  5
68
102
{ACAD_REACTORS
330
5B
102
}
330
5B
100
DictionaryVariables
280
     0
  1
0
  0
DICTIONARYVAR
  5
69
102
{ACAD_REACTORS
330
5B
102
}
330
5B
100
DictionaryVariables
280
     0
  1

  0
DICTIONARYVAR
  5
6A
102
{ACAD_REACTORS
330
5B
102
}
330
5B
100
DictionaryVariables
280
     0
  1
127
  0
DICTIONARY
  5
1B
330
18
100
AcDbDictionary
280
     1
281
     1
  0
DICTIONARY
  5
22
330
21
100
AcDbDictionary
280
     1
281
     1
  0
DICTIONARY
  5
50
330
4F
100
AcDbDictionary
280
     1
281
     1
  3
BUMPTILE
360
51
  3
DIFFUSETILE
360
52
  3
OPACITYTILE
360
53
  3
REFLECTIONTILE
360
54
  3
REFRACTIONTILE
360
55
  3
SPECULARTILE
360
56
  0
DICTIONARY
  5
48
330
47
100
AcDbDictionary
280
     1
281
     1
  3
BUMPTILE
360
49
  3
DIFFUSETILE
360
4A
  3
OPACITYTILE
360
4B
  3
REFLECTIONTILE
360
4C
  3
REFRACTIONTILE
360
4D
  3
SPECULARTILE
360
4E
  0
DICTIONARY
  5
F
330
D
100
AcDbDictionary
280
     1
281
     1
  3
BUMPTILE
360
10
  3
DIFFUSETILE
360
11
  3
OPACITYTILE
360
12
  3
REFLECTIONTILE
360
13
  3
REFRACTIONTILE
360
14
  3
SPECULARTILE
360
15
  0
DICTIONARY
  5
72
330
71
100
AcDbDictionary
280
     1
281
     1
  3
ACAD_ROUNDTRIP_2008_TABLESTYLE_CELLSTYLEMAP
360
39F
  0
XRECORD
  5
51
102
{ACAD_REACTORS
330
50
102
}
330
50
100
AcDbXrecord
280
     1
270
     1
271
     1
  0
XRECORD
  5
52
102
{ACAD_REACTORS
330
50
102
}
330
50
100
AcDbXrecord
280
     1
270
     1
271
     1
  0
XRECORD
  5
53
102
{ACAD_REACTORS
330
50
102
}
330
50
100
AcDbXrecord
280
     1
270
     1
271
     1
  0
XRECORD
  5
54
102
{ACAD_REACTORS
330
50
102
}
330
50
100
AcDbXrecord
280
     1
270
     1
271
     1
  0
XRECORD
  5
55
102
{ACAD_REACTORS
330
50
102
}
330
50
100
AcDbXrecord
280
     1
270
     1
271
     1
  0
XRECORD
  5
56
102
{ACAD_REACTORS
330
50
102
}
330
50
100
AcDbXrecord
280
     1
270
     1
271
     1
  0
XRECORD
  5
49
102
{ACAD_REACTORS
330
48
102
}
330
48
100
AcDbXrecord
280
     1
270
     1
271
     1
  0
XRECORD
  5
4A
102
{ACAD_REACTORS
330
48
102
}
330
48
100
AcDbXrecord
280
     1
270
     1
271
     1
  0
XRECORD
  5
4B
102
{ACAD_REACTORS
330
48
102
}
330
48
100
AcDbXrecord
280
     1
270
     1
271
     1
  0
XRECORD
  5
4C
102
{ACAD_REACTORS
330
48
102
}
330
48
100
AcDbXrecord
280
     1
270
     1
271
     1
  0
XRECORD
  5
4D
102
{ACAD_REACTORS
330
48
102
}
330
48
100
AcDbXrecord
280
     1
270
     1
271
     1
  0
XRECORD
  5
4E
102
{ACAD_REACTORS
330
48
102
}
330
48
100
AcDbXrecord
280
     1
270
     1
271
     1
  0
XRECORD
  5
10
102
{ACAD_REACTORS
330
F
102
}
330
F
100
AcDbXrecord
280
     1
270
     1
271
     1
  0
XRECORD
  5
11
102
{ACAD_REACTORS
330
F
102
}
330
F
100
AcDbXrecord
280
     1
270
     1
271
     1
  0
XRECORD
  5
12
102
{ACAD_REACTORS
330
F
102
}
330
F
100
AcDbXrecord
280
     1
270
     1
271
     1
  0
XRECORD
  5
13
102
{ACAD_REACTORS
330
F
102
}
330
F
100
AcDbXrecord
280
     1
270
     1
271
     1
  0
XRECORD
  5
14
102
{ACAD_REACTORS
330
F
102
}
330
F
100
AcDbXrecord
280
     1
270
     1
271
     1
  0
XRECORD
  5
15
102
{ACAD_REACTORS
330
F
102
}
330
F
100
AcDbXrecord
280
     1
270
     1
271
     1
  0
CELLSTYLEMAP
  5
39F
102
{ACAD_REACTORS
330
72
102
}
330
72
100
AcDbCellStyleMap
 90
        3
300
CELLSTYLE
  1
TABLEFORMAT_BEGIN
 90
        5
170
     1
 91
        0
 92
    32768
 62
   257
 93
        1
300
CONTENTFORMAT
  1
CONTENTFORMAT_BEGIN
 90
        0
 91
        0
 92
        4
 93
        0
300

 40
0.0
140
1.0
 94
        5
 62
     0
340
2C
144
0.25
309
CONTENTFORMAT_END
171
     1
301
MARGIN
  1
CELLMARGIN_BEGIN
 40
0.06
 40
0.06
 40
0.06
 40
0.06
 40
0.18
 40
0.18
309
CELLMARGIN_END
 94
        6
 95
        1
302
GRIDFORMAT
  1
GRIDFORMAT_BEGIN
 90
        0
 91
        1
 62
     0
 92
       -2
340
0
 93
        0
 40
0.045
309
GRIDFORMAT_END
 95
        2
302
GRIDFORMAT
  1
GRIDFORMAT_BEGIN
 90
        0
 91
        1
 62
     0
 92
       -2
340
0
 93
        0
 40
0.045
309
GRIDFORMAT_END
 95
        4
302
GRIDFORMAT
  1
GRIDFORMAT_BEGIN
 90
        0
 91
        1
 62
     0
 92
       -2
340
0
 93
        0
 40
0.045
309
GRIDFORMAT_END
 95
        8
302
GRIDFORMAT
  1
GRIDFORMAT_BEGIN
 90
        0
 91
        1
 62
     0
 92
       -2
340
0
 93
        0
 40
0.045
309
GRIDFORMAT_END
 95
       16
302
GRIDFORMAT
  1
GRIDFORMAT_BEGIN
 90
        0
 91
        1
 62
     0
 92
       -2
340
0
 93
        0
 40
0.045
309
GRIDFORMAT_END
 95
       32
302
GRIDFORMAT
  1
GRIDFORMAT_BEGIN
 90
        0
 91
        1
 62
     0
 92
       -2
340
0
 93
        0
 40
0.045
309
GRIDFORMAT_END
309
TABLEFORMAT_END
  1
CELLSTYLE_BEGIN
 90
        1
 91
        1
300
_TITLE
309
CELLSTYLE_END
300
CELLSTYLE
  1
TABLEFORMAT_BEGIN
 90
        5
170
     1
 91
        0
 92
        0
 62
   257
 93
        1
300
CONTENTFORMAT
  1
CONTENTFORMAT_BEGIN
 90
        0
 91
        0
 92
        4
 93
        0
300

 40
0.0
140
1.0
 94
        5
 62
     0
340
2C
144
0.18
309
CONTENTFORMAT_END
171
     1
301
MARGIN
  1
CELLMARGIN_BEGIN
 40
0.06
 40
0.06
 40
0.06
 40
0.06
 40
0.18
 40
0.18
309
CELLMARGIN_END
 94
        6
 95
        1
302
GRIDFORMAT
  1
GRIDFORMAT_BEGIN
 90
        0
 91
        1
 62
     0
 92
       -2
340
0
 93
        0
 40
0.045
309
GRIDFORMAT_END
 95
        2
302
GRIDFORMAT
  1
GRIDFORMAT_BEGIN
 90
        0
 91
        1
 62
     0
 92
       -2
340
0
 93
        0
 40
0.045
309
GRIDFORMAT_END
 95
        4
302
GRIDFORMAT
  1
GRIDFORMAT_BEGIN
 90
        0
 91
        1
 62
     0
 92
       -2
340
0
 93
        0
 40
0.045
309
GRIDFORMAT_END
 95
        8
302
GRIDFORMAT
  1
GRIDFORMAT_BEGIN
 90
        0
 91
        1
 62
     0
 92
       -2
340
0
 93
        0
 40
0.045
309
GRIDFORMAT_END
 95
       16
302
GRIDFORMAT
  1
GRIDFORMAT_BEGIN
 90
        0
 91
        1
 62
     0
 92
       -2
340
0
 93
        0
 40
0.045
309
GRIDFORMAT_END
 95
       32
302
GRIDFORMAT
  1
GRIDFORMAT_BEGIN
 90
        0
 91
        1
 62
     0
 92
       -2
340
0
 93
        0
 40
0.045
309
GRIDFORMAT_END
309
TABLEFORMAT_END
  1
CELLSTYLE_BEGIN
 90
        2
 91
        1
300
_HEADER
309
CELLSTYLE_END
300
CELLSTYLE
  1
TABLEFORMAT_BEGIN
 90
        5
170
     1
 91
        0
 92
        0
 62
   257
 93
        1
300
CONTENTFORMAT
  1
CONTENTFORMAT_BEGIN
 90
        0
 91
        0
 92
        4
 93
        0
300

 40
0.0
140
1.0
 94
        2
 62
     0
340
2C
144
2.0
309
CONTENTFORMAT_END
171
     1
301
MARGIN
  1
CELLMARGIN_BEGIN
 40
0.8
 40
0.8
 40
0.06
 40
0.06
 40
0.18
 40
0.18
309
CELLMARGIN_END
 94
        6
 95
        1
302
GRIDFORMAT
  1
GRIDFORMAT_BEGIN
 90
        0
 91
        1
 62
     0
 92
       -2
340
0
 93
        0
 40
0.045
309
GRIDFORMAT_END
 95
        2
302
GRIDFORMAT
  1
GRIDFORMAT_BEGIN
 90
        0
 91
        1
 62
     0
 92
       -2
340
0
 93
        0
 40
0.045
309
GRIDFORMAT_END
 95
        4
302
GRIDFORMAT
  1
GRIDFORMAT_BEGIN
 90
        0
 91
        1
 62
     0
 92
       -2
340
0
 93
        0
 40
0.045
309
GRIDFORMAT_END
 95
        8
302
GRIDFORMAT
  1
GRIDFORMAT_BEGIN
 90
        0
 91
        1
 62
     0
 92
       -2
340
0
 93
        0
 40
0.045
309
GRIDFORMAT_END
 95
       16
302
GRIDFORMAT
  1
GRIDFORMAT_BEGIN
 90
        0
 91
        1
 62
     0
 92
       -2
340
0
 93
        0
 40
0.045
309
GRIDFORMAT_END
 95
       32
302
GRIDFORMAT
  1
GRIDFORMAT_BEGIN
 90
        0
 91
        1
 62
     0
 92
       -2
340
0
 93
        0
 40
0.045
309
GRIDFORMAT_END
309
TABLEFORMAT_END
  1
CELLSTYLE_BEGIN
 90
        3
 91
        2
300
_DATA
309
CELLSTYLE_END
  0
ENDSEC
  0
SECTION
  2
ACDSDATA
 70
     2
 71
     8
  0
ACDSSCHEMA
 90
        0
  1
AcDb_Thumbnail_Schema
  2
AcDbDs::ID
280
    10
 91
        8
  2
Thumbnail_Data
280
    15
 91
        0
101
ACDSRECORD
 95
        0
 90
        1
  2
AcDbDs::TreatedAsObjectData
280
     1
291
     1
101
ACDSRECORD
 95
        0
 90
        2
  2
AcDbDs::Legacy
280
     1
291
     1
101
ACDSRECORD
  1
AcDbDs::ID
 90
        3
  2
AcDs:Indexable
280
     1
291
     1
101
ACDSRECORD
  1
AcDbDs::ID
 90
        4
  2
AcDbDs::HandleAttribute
280
     7
282
     1
  0
ACDSSCHEMA
 90
        1
  1
AcDbDs::TreatedAsObjectDataSchema
  2
AcDbDs::TreatedAsObjectData
280
     1
 91
        0
  0
ACDSSCHEMA
 90
        2
  1
AcDbDs::LegacySchema
  2
AcDbDs::Legacy
280
     1
 91
        0
  0
ACDSSCHEMA
 90
        3
  1
AcDbDs::IndexedPropertySchema
  2
AcDs:Indexable
280
     1
 91
        0
  0
ACDSSCHEMA
 90
        4
  1
AcDbDs::HandleAttributeSchema
  2
AcDbDs::HandleAttribute
280
     7
 91
        1
284
     1
  0
ACDSRECORD
 90
        0
  2
AcDbDs::ID
280
    10
320
18
  2
Thumbnail_Data
280
    15
 94
     1094
310
89504E470D0A1A0A0000000D49484452000001000000007208030000008B31FF2A00000300504C5445000000000000C8C8C80000000000000000000000000000000000000000000000000000330000660000990000CC0000FF0033000033330033660033990033CC0033FF0066000066330066660066990066CC0066FF0099
310
000099330099660099990099CC0099FF00CC0000CC3300CC6600CC9900CCCC00CCFF00FF0000FF3300FF6600FF9900FFCC00FFFF3300003300333300663300993300CC3300FF3333003333333333663333993333CC3333FF3366003366333366663366993366CC3366FF3399003399333399663399993399CC3399FF33CC00
310
33CC3333CC6633CC9933CCCC33CCFF33FF0033FF3333FF6633FF9933FFCC33FFFF6600006600336600666600996600CC6600FF6633006633336633666633996633CC6633FF6666006666336666666666996666CC6666FF6699006699336699666699996699CC6699FF66CC0066CC3366CC6666CC9966CCCC66CCFF66FF0066
310
FF3366FF6666FF9966FFCC66FFFF9900009900339900669900999900CC9900FF9933009933339933669933999933CC9933FF9966009966339966669966999966CC9966FF9999009999339999669999999999CC9999FF99CC0099CC3399CC6699CC9999CCCC99CCFF99FF0099FF3399FF6699FF9999FFCC99FFFFCC0000CC00
310
33CC0066CC0099CC00CCCC00FFCC3300CC3333CC3366CC3399CC33CCCC33FFCC6600CC6633CC6666CC6699CC66CCCC66FFCC9900CC9933CC9966CC9999CC99CCCC99FFCCCC00CCCC33CCCC66CCCC99CCCCCCCCCCFFCCFF00CCFF33CCFF66CCFF99CCFFCCCCFFFFFF0000FF0033FF0066FF0099FF00CCFF00FFFF3300FF3333
310
FF3366FF3399FF33CCFF33FFFF6600FF6633FF6666FF6699FF66CCFF66FFFF9900FF9933FF9966FF9999FF99CCFF99FFFFCC00FFCC33FFCC66FFCC99FFCCCCFFCCFFFFFF00FFFF33FFFF66FFFF99FFFFCCFFFFFF0000000D0D0D1A1A1A2828283535354343435050505D5D5D6B6B6B787878868686939393A1A1A1AEAEAEBB
310
BBBBC9C9C9D6D6D6E4E4E4F1F1F1FFFFFF00000000000000000000000000000000000000000000000000000000000008F1915C000001014944415478DAEDDC510A824014405177E036DCFF02E667B6D136DE7F581991A442333532E7F65161491D9F26080D8324499224499224A9A7A2EB6680AEB7BE0998016AEC56275A27
310
000000000000000000000000000000000000000000000000F0C30F1B5D032C57277A0588CB6181FF006C5E532A019073E4FBABC7B14580F4E9FBA76200F901B0F79EEDE5EB4D92D22926209E005FEE02ABC547D6BA0B1031DD6E11CBDDF341F10968F218F00630BD3C2F350153D307C1EA13D0FACF607D80D6CF046B1F049D
310
0A9F07E0F8CE6A02000000000000000000000000000000000000000000000000000000000000D02680BFD0E837133048922449922449927AEA0A675FAB0E706321030000000049454E44AE426082
  0
ACDSRECORD
 90
        0
  2
AcDbDs::ID
280
    10
320
21
  2
Thumbnail_Data
280
    15
 94
     1422
310
89504E470D0A1A0A0000000D49484452000000B40000007F0803000000713C187700000300504C5445303A46000000C8C8C80000000000000000000000000000000000000000000000000000330000660000990000CC0000FF0033000033330033660033990033CC0033FF0066000066330066660066990066CC0066FF0099
310
000099330099660099990099CC0099FF00CC0000CC3300CC6600CC9900CCCC00CCFF00FF0000FF3300FF6600FF9900FFCC00FFFF3300003300333300663300993300CC3300FF3333003333333333663333993333CC3333FF3366003366333366663366993366CC3366FF3399003399333399663399993399CC3399FF33CC00
310
33CC3333CC6633CC9933CCCC33CCFF33FF0033FF3333FF6633FF9933FFCC33FFFF6600006600336600666600996600CC6600FF6633006633336633666633996633CC6633FF6666006666336666666666996666CC6666FF6699006699336699666699996699CC6699FF66CC0066CC3366CC6666CC9966CCCC66CCFF66FF0066
310
FF3366FF6666FF9966FFCC66FFFF9900009900339900669900999900CC9900FF9933009933339933669933999933CC9933FF9966009966339966669966999966CC9966FF9999009999339999669999999999CC9999FF99CC0099CC3399CC6699CC9999CCCC99CCFF99FF0099FF3399FF6699FF9999FFCC99FFFFCC0000CC00
310
33CC0066CC0099CC00CCCC00FFCC3300CC3333CC3366CC3399CC33CCCC33FFCC6600CC6633CC6666CC6699CC66CCCC66FFCC9900CC9933CC9966CC9999CC99CCCC99FFCCCC00CCCC33CCCC66CCCC99CCCCCCCCCCFFCCFF00CCFF33CCFF66CCFF99CCFFCCCCFFFFFF0000FF0033FF0066FF0099FF00CCFF00FFFF3300FF3333
310
FF3366FF3399FF33CCFF33FFFF6600FF6633FF6666FF6699FF66CCFF66FFFF9900FF9933FF9966FF9999FF99CCFF99FFFFCC00FFCC33FFCC66FFCC99FFCCCCFFCCFFFFFF00FFFF33FFFF66FFFF99FFFFCCFFFFFF0000000D0D0D1A1A1A2828283535354343435050505D5D5D6B6B6B787878868686939393A1A1A1AEAEAEBB
310
BBBBC9C9C9D6D6D6E4E4E4F1F1F1FFFFFF000000000000000000000000000000000000000000000000000000000000D2A1D024000002494944415478DAED9C519A83200C84731CEF7F00EED243CCFB56572C5850C446884E1F4A21DFBABF711823B60AECBD5E22D690C52634DED023B6C8F4B9FF17A1094D6842139AD08426
310
34A16F0DFDDF3198694213FA76EE014253D384A67B501E847E3AB4C06269CA7A9AD084267427D0ABFB518DA1B56FB7A940BBE24C4B45A69D1AB45392873B063D7D925268456D1C82F6DDC2746C24F1C4FC3B98695F7D946C1970A943EFA62DB82BA1E73584135BAEF48293D025FFC4ADB2DCD6F2E64CEDFF85DFC3A594FD74
310
E2261592DD1014323D8B5F246E526375211CB3BC2A68C4CD89102AA04B2D6F841E44068CCDF06E867723BED90E0D25A1DF434F274E6B99360C3D6A40F2F290BC0684F278923C04BE59C66A437E4C139A96474DD3F2288FBA82C9903CD655DEA6E3D685B4A04DCA63BE58F0EFC9A636A401DDD585ED81C59A7E967A097D25F4
310
2F17BFA1B7A61E4143111A26A0AF9207A1097D2B6880D0842634A11F032DCC34A1094DE8274183992634A1EF0CADF8501245E8EC4533B63A5943BB083AFA066798B035F4B2C41E43C7CB6BCDA1F31D692D0F20899DE0143FBEFE5AD6F5F2C8CCC7627934D23452C77B6B222E2CAD34AD65799A6B79F90D63B553C97D6CA8E9
310
E4ADB7D27B744D2C2F973F04C9DBD9C70667C448DCC14010F986EEC1F202EF4B1A46603685D0AA1351F6B5BA3EF865EE8126D009F3F8D2746379EC4DD12E355D16E904DAE4195116A3FB883953F8055249D5279D67BA7D95F7254EEC6ABAFD4540F4BB14590AFE4CC1247DD4D321B4FC1EDAD4734D7B5F9EB90DB4C1C7DE1A
310
7C2A32FE002FD2DFD47D2404120000000049454E44AE426082
  0
ENDSEC
  0
EOF
