  0
SECTION
  2
HEADER
  9
$ACADVER
  1
AC1032
  9
$ACADMAINTVER
 90
      248
  9
$DWGCODEPAGE
  3
ANSI_936
  9
$REQUIREDVERSIONS
160
                 0
  9
$INSBASE
 10
0.0
 20
0.0
 30
0.0
  9
$EXTMIN
 10
5.0
 20
8.999999999999943
 30
0.0
  9
$EXTMAX
 10
1637.0
 20
392.0000000000002
 30
0.0
  9
$LIMMIN
 10
0.0
 20
0.0
  9
$LIMMAX
 10
0.0
 20
0.0
  9
$ORTHOMODE
 70
     0
  9
$REGENMODE
 70
     1
  9
$FILLMODE
 70
     1
  9
$QTEXTMODE
 70
     0
  9
$MIRRTEXT
 70
     0
  9
$LTSCALE
 40
8.0
  9
$ATTMODE
 70
     1
  9
$TEXTSIZE
 40
2.5
  9
$TRACEWID
 40
0.05
  9
$TEXTSTYLE
  7
SIMPLEX
  9
$CLAYER
  8
0
  9
$CELTYPE
  6
ByLayer
  9
$CECOLOR
 62
   256
  9
$CELTSCALE
 40
1.0
  9
$DISPSILH
 70
     0
  9
$DIMSCALE
 40
1.0
  9
$DIMASZ
 40
2.5
  9
$DIMEXO
 40
1.0
  9
$DIMDLI
 40
7.5
  9
$DIMRND
 40
0.0
  9
$DIMDLE
 40
1.25
  9
$DIMEXE
 40
1.25
  9
$DIMTP
 40
0.0
  9
$DIMTM
 40
0.0
  9
$DIMTXT
 40
3.0
  9
$DIMCEN
 40
1.25
  9
$DIMTSZ
 40
0.0
  9
$DIMTOL
 70
     0
  9
$DIMLIM
 70
     0
  9
$DIMTIH
 70
     0
  9
$DIMTOH
 70
     0
  9
$DIMSE1
 70
     0
  9
$DIMSE2
 70
     0
  9
$DIMTAD
 70
     1
  9
$DIMZIN
 70
     8
  9
$DIMBLK
  1

  9
$DIMASO
 70
     1
  9
$DIMSHO
 70
     1
  9
$DIMPOST
  1

  9
$DIMAPOST
  1

  9
$DIMALT
 70
     0
  9
$DIMALTD
 70
     2
  9
$DIMALTF
 40
25.4
  9
$DIMLFAC
 40
1.0
  9
$DIMTOFL
 70
     0
  9
$DIMTVP
 40
2.0
  9
$DIMTIX
 70
     0
  9
$DIMSOXD
 70
     0
  9
$DIMSAH
 70
     0
  9
$DIMBLK1
  1

  9
$DIMBLK2
  1

  9
$DIMSTYLE
  2
Standard
  9
$DIMCLRD
 70
     0
  9
$DIMCLRE
 70
     0
  9
$DIMCLRT
 70
     0
  9
$DIMTFAC
 40
1.0
  9
$DIMGAP
 40
1.25
  9
$DIMJUST
 70
     0
  9
$DIMSD1
 70
     0
  9
$DIMSD2
 70
     0
  9
$DIMTOLJ
 70
     1
  9
$DIMTZIN
 70
     0
  9
$DIMALTZ
 70
     0
  9
$DIMALTTZ
 70
     0
  9
$DIMUPT
 70
     0
  9
$DIMDEC
 70
     3
  9
$DIMTDEC
 70
     4
  9
$DIMALTU
 70
     2
  9
$DIMALTTD
 70
     2
  9
$DIMTXSTY
  7
SIMPLEX
  9
$DIMAUNIT
 70
     0
  9
$DIMADEC
 70
     0
  9
$DIMALTRND
 40
0.0
  9
$DIMAZIN
 70
     0
  9
$DIMDSEP
 70
    46
  9
$DIMATFIT
 70
     3
  9
$DIMFRAC
 70
     0
  9
$DIMLDRBLK
  1

  9
$DIMLUNIT
 70
     2
  9
$DIMLWD
 70
    -2
  9
$DIMLWE
 70
    -2
  9
$DIMTMOVE
 70
     0
  9
$DIMFXL
 40
1.0
  9
$DIMFXLON
 70
     0
  9
$DIMJOGANG
 40
0.7853981633974483
  9
$DIMTFILL
 70
     0
  9
$DIMTFILLCLR
 70
     0
  9
$DIMARCSYM
 70
     0
  9
$DIMLTYPE
  6

  9
$DIMLTEX1
  6

  9
$DIMLTEX2
  6

  9
$DIMTXTDIRECTION
 70
     0
  9
$LUNITS
 70
     2
  9
$LUPREC
 70
     4
  9
$SKETCHINC
 40
0.1
  9
$FILLETRAD
 40
0.0
  9
$AUNITS
 70
     0
  9
$AUPREC
 70
     0
  9
$MENU
  1
.
  9
$ELEVATION
 40
0.0
  9
$PELEVATION
 40
0.0
  9
$THICKNESS
 40
0.0
  9
$LIMCHECK
 70
     0
  9
$CHAMFERA
 40
0.0
  9
$CHAMFERB
 40
0.0
  9
$CHAMFERC
 40
0.0
  9
$CHAMFERD
 40
0.0
  9
$SKPOLY
 70
     0
  9
$TDCREATE
 40
2453354.050451389
  9
$TDUCREATE
 40
2453353.717125822
  9
$TDUPDATE
 40
2460607.479513889
  9
$TDUUPDATE
 40
2460607.146180556
  9
$TDINDWG
 40
16384.3222257755
  9
$TDUSRTIMER
 40
16384.3220867477
  9
$USRTIMER
 70
     1
  9
$ANGBASE
 50
0.0
  9
$ANGDIR
 70
     0
  9
$PDMODE
 70
     0
  9
$PDSIZE
 40
0.0
  9
$PLINEWID
 40
0.0
  9
$SPLFRAME
 70
     0
  9
$SPLINETYPE
 70
     6
  9
$SPLINESEGS
 70
     8
  9
$HANDSEED
  5
1B9
  9
$SURFTAB1
 70
     6
  9
$SURFTAB2
 70
     6
  9
$SURFTYPE
 70
     6
  9
$SURFU
 70
     6
  9
$SURFV
 70
     6
  9
$UCSBASE
  2

  9
$UCSNAME
  2

  9
$UCSORG
 10
0.0
 20
0.0
 30
0.0
  9
$UCSXDIR
 10
1.0
 20
0.0
 30
0.0
  9
$UCSYDIR
 10
0.0
 20
1.0
 30
0.0
  9
$UCSORTHOREF
  2

  9
$UCSORTHOVIEW
 70
     0
  9
$UCSORGTOP
 10
0.0
 20
0.0
 30
0.0
  9
$UCSORGBOTTOM
 10
0.0
 20
0.0
 30
0.0
  9
$UCSORGLEFT
 10
0.0
 20
0.0
 30
0.0
  9
$UCSORGRIGHT
 10
0.0
 20
0.0
 30
0.0
  9
$UCSORGFRONT
 10
0.0
 20
0.0
 30
0.0
  9
$UCSORGBACK
 10
0.0
 20
0.0
 30
0.0
  9
$PUCSBASE
  2

  9
$PUCSNAME
  2

  9
$PUCSORG
 10
0.0
 20
0.0
 30
0.0
  9
$PUCSXDIR
 10
1.0
 20
0.0
 30
0.0
  9
$PUCSYDIR
 10
0.0
 20
1.0
 30
0.0
  9
$PUCSORTHOREF
  2

  9
$PUCSORTHOVIEW
 70
     0
  9
$PUCSORGTOP
 10
0.0
 20
0.0
 30
0.0
  9
$PUCSORGBOTTOM
 10
0.0
 20
0.0
 30
0.0
  9
$PUCSORGLEFT
 10
0.0
 20
0.0
 30
0.0
  9
$PUCSORGRIGHT
 10
0.0
 20
0.0
 30
0.0
  9
$PUCSORGFRONT
 10
0.0
 20
0.0
 30
0.0
  9
$PUCSORGBACK
 10
0.0
 20
0.0
 30
0.0
  9
$USERI1
 70
     0
  9
$USERI2
 70
     0
  9
$USERI3
 70
     0
  9
$USERI4
 70
     0
  9
$USERI5
 70
 32767
  9
$USERR1
 40
0.0
  9
$USERR2
 40
0.0
  9
$USERR3
 40
0.0
  9
$USERR4
 40
0.0
  9
$USERR5
 40
0.0
  9
$WORLDVIEW
 70
     1
  9
$SHADEDGE
 70
     3
  9
$SHADEDIF
 70
    70
  9
$TILEMODE
 70
     1
  9
$MAXACTVP
 70
    16
  9
$PINSBASE
 10
0.0
 20
0.0
 30
0.0
  9
$PLIMCHECK
 70
     0
  9
$PEXTMIN
 10
0.0
 20
0.0
 30
0.0
  9
$PEXTMAX
 10
0.0
 20
0.0
 30
0.0
  9
$PLIMMIN
 10
0.0
 20
0.0
  9
$PLIMMAX
 10
0.0
 20
0.0
  9
$UNITMODE
 70
     0
  9
$VISRETAIN
 70
     0
  9
$PLINEGEN
 70
     0
  9
$PSLTSCALE
 70
     0
  9
$TREEDEPTH
 70
  3020
  9
$CMLSTYLE
  2
Standard
  9
$CMLJUST
 70
     0
  9
$CMLSCALE
 40
1.0
  9
$PROXYGRAPHICS
 70
     1
  9
$MEASUREMENT
 70
     0
  9
$CELWEIGHT
370
    -1
  9
$ENDCAPS
280
     0
  9
$JOINSTYLE
280
     0
  9
$LWDISPLAY
290
     0
  9
$INSUNITS
 70
     0
  9
$HYPERLINKBASE
  1

  9
$STYLESHEET
  1

  9
$XEDIT
290
     1
  9
$CEPSNTYPE
380
     0
  9
$PSTYLEMODE
290
     1
  9
$FINGERPRINTGUID
  2
{C01931CE-AAF0-1746-9740-397947FF8AAF}
  9
$VERSIONGUID
  2
{2BF848B3-C8EC-446C-9AF0-C3E910DF207B}
  9
$EXTNAMES
290
     1
  9
$PSVPSCALE
 40
0.0
  9
$OLESTARTUP
290
     0
  9
$SORTENTS
280
   127
  9
$INDEXCTL
280
     0
  9
$HIDETEXT
280
     1
  9
$XCLIPFRAME
280
     2
  9
$HALOGAP
280
     0
  9
$OBSCOLOR
 70
   257
  9
$OBSLTYPE
280
     0
  9
$INTERSECTIONDISPLAY
280
     0
  9
$INTERSECTIONCOLOR
 70
   257
  9
$DIMASSOC
280
     0
  9
$PROJECTNAME
  1

  9
$CAMERADISPLAY
290
     0
  9
$LENSLENGTH
 40
50.0
  9
$CAMERAHEIGHT
 40
0.0
  9
$STEPSPERSEC
 40
2.0
  9
$STEPSIZE
 40
6.0
  9
$3DDWFPREC
 40
2.0
  9
$PSOLWIDTH
 40
0.25
  9
$PSOLHEIGHT
 40
4.0
  9
$LOFTANG1
 40
1.570796326794896
  9
$LOFTANG2
 40
1.570796326794896
  9
$LOFTMAG1
 40
0.0
  9
$LOFTMAG2
 40
0.0
  9
$LOFTPARAM
 70
     7
  9
$LOFTNORMALS
280
     1
  9
$LATITUDE
 40
37.795
  9
$LONGITUDE
 40
-122.394
  9
$NORTHDIRECTION
 40
0.0
  9
$TIMEZONE
 70
 -8000
  9
$LIGHTGLYPHDISPLAY
280
     1
  9
$TILEMODELIGHTSYNCH
280
     1
  9
$CMATERIAL
347
34
  9
$SOLIDHIST
280
     0
  9
$SHOWHIST
280
     1
  9
$DWFFRAME
280
     2
  9
$DGNFRAME
280
     0
  9
$REALWORLDSCALE
290
     1
  9
$INTERFERECOLOR
 62
     1
  9
$INTERFEREOBJVS
345
59
  9
$INTERFEREVPVS
346
5A
  9
$CSHADOW
280
     0
  9
$SHADOWPLANELOCATION
 40
0.0
  0
ENDSEC
  0
SECTION
  2
CLASSES
  0
CLASS
  1
ACDBDICTIONARYWDFLT
  2
AcDbDictionaryWithDefault
  3
ObjectDBX Classes
 90
        0
 91
        1
280
     0
281
     0
  0
CLASS
  1
DICTIONARYVAR
  2
AcDbDictionaryVar
  3
ObjectDBX Classes
 90
        0
 91
       12
280
     0
281
     0
  0
CLASS
  1
TABLESTYLE
  2
AcDbTableStyle
  3
ObjectDBX Classes
 90
     4095
 91
        1
280
     0
281
     0
  0
CLASS
  1
SORTENTSTABLE
  2
AcDbSortentsTable
  3
ObjectDBX Classes
 90
        0
 91
        2
280
     0
281
     0
  0
CLASS
  1
MATERIAL
  2
AcDbMaterial
  3
ObjectDBX Classes
 90
     1153
 91
        3
280
     0
281
     0
  0
CLASS
  1
VISUALSTYLE
  2
AcDbVisualStyle
  3
ObjectDBX Classes
 90
     4095
 91
        4
280
     0
281
     0
  0
CLASS
  1
SCALE
  2
AcDbScale
  3
ObjectDBX Classes
 90
     1153
 91
       17
280
     0
281
     0
  0
CLASS
  1
MLEADERSTYLE
  2
AcDbMLeaderStyle
  3
ACDB_MLEADERSTYLE_CLASS
 90
     4095
 91
        0
280
     0
281
     0
  0
CLASS
  1
ACDBSECTIONVIEWSTYLE
  2
AcDbSectionViewStyle
  3
ObjectDBX Classes
 90
     1025
 91
        0
280
     0
281
     0
  0
CLASS
  1
ACDBDETAILVIEWSTYLE
  2
AcDbDetailViewStyle
  3
ObjectDBX Classes
 90
     1025
 91
        0
280
     0
281
     0
  0
CLASS
  1
CELLSTYLEMAP
  2
AcDbCellStyleMap
  3
ObjectDBX Classes
 90
     1152
 91
        1
280
     0
281
     0
  0
CLASS
  1
SOLID_BACKGROUND
  2
AcDbSolidBackground
  3
SCENEOE
 90
     4095
 91
        0
280
     0
281
     0
  0
CLASS
  1
NPOCOLLECTION
  2
AcDbImpNonPersistentObjectsCollection
  3
ObjectDBX Classes
 90
     1153
 91
        0
280
     0
281
     0
  0
ENDSEC
  0
SECTION
  2
TABLES
  0
TABLE
  2
VPORT
  5
28
330
0
100
AcDbSymbolTable
 70
     1
  0
VPORT
  5
29
330
28
100
AcDbSymbolTableRecord
100
AcDbViewportTableRecord
  2
*Active
 70
     0
 10
0.0
 20
0.0
 11
1.0
 21
1.0
 12
1123.456745534725
 22
211.6112294867003
 13
0.0
 23
0.0
 14
0.1
 24
0.1
 15
0.5
 25
0.5
 16
0.0
 26
0.0
 36
1.0
 17
0.0
 27
0.0
 37
0.0
 40
494.1738688857483
 41
2.570850202429149
 42
50.0
 43
0.0
 44
0.0
 50
0.0
 51
0.0
 71
    16
 72
   500
 73
     1
 74
     1
 75
     0
 76
     0
 77
     0
 78
     0
281
     0
 65
     1
110
0.0
120
0.0
130
0.0
111
1.0
121
0.0
131
0.0
112
0.0
122
1.0
132
0.0
 79
     0
146
0.0
348
2A
 60
     3
 61
     5
292
     1
282
     1
141
0.0
142
0.0
 63
   250
421
  3355443
1001
ACAD_NAV_VCDISPLAY
1070
     3
  0
ENDTAB
  0
TABLE
  2
LTYPE
  5
23
330
0
100
AcDbSymbolTable
 70
     3
  0
LTYPE
  5
24
330
23
100
AcDbSymbolTableRecord
100
AcDbLinetypeTableRecord
  2
ByBlock
 70
     0
  3

 72
    65
 73
     0
 40
0.0
  0
LTYPE
  5
25
330
23
100
AcDbSymbolTableRecord
100
AcDbLinetypeTableRecord
  2
ByLayer
 70
     0
  3

 72
    65
 73
     0
 40
0.0
  0
LTYPE
  5
17
330
23
100
AcDbSymbolTableRecord
100
AcDbLinetypeTableRecord
  2
Continuous
 70
     0
  3
Solid line
 72
    65
 73
     0
 40
0.0
  0
LTYPE
  5
B4
330
23
100
AcDbSymbolTableRecord
100
AcDbLinetypeTableRecord
  2
CENTER
 70
     0
  3
____ _ ____ _ ____ _ ____ _ ____ _ ____ _ ____
 72
    65
 73
     4
 40
2.0
 49
1.25
 74
     4
 75
     0
340
0
 46
1.0
 50
0.0
 44
0.0
 45
0.0
 49
-0.25
 74
     4
 75
     0
340
0
 46
1.0
 50
0.0
 44
0.0
 45
0.0
 49
0.25
 74
     4
 75
     0
340
0
 46
1.0
 50
0.0
 44
0.0
 45
0.0
 49
-0.25
 74
     4
 75
     0
340
0
 46
1.0
 50
0.0
 44
0.0
 45
0.0
  0
LTYPE
  5
8F
330
23
100
AcDbSymbolTableRecord
100
AcDbLinetypeTableRecord
  2
HIDDEN
 70
     0
  3
_ _ _ _ _ _ _ _ _ _ _ _ _ _ _ _ _ _ _ _ _ _ _
 72
    65
 73
     2
 40
0.375
 49
0.25
 74
     4
 75
     0
340
0
 46
1.0
 50
0.0
 44
0.0
 45
0.0
 49
-0.125
 74
     4
 75
     0
340
0
 46
1.0
 50
0.0
 44
0.0
 45
0.0
  0
ENDTAB
  0
TABLE
  2
LAYER
  5
1F
330
0
100
AcDbSymbolTable
 70
     6
  0
LAYER
  5
6
102
{ACAD_XDICTIONARY
360
7
102
}
330
1F
100
AcDbSymbolTableRecord
100
AcDbLayerTableRecord
  2
0
 70
     0
 62
     7
  6
Continuous
370
    -3
390
B
347
E
348
0
  0
LAYER
  5
B6
330
1F
100
AcDbSymbolTableRecord
100
AcDbLayerTableRecord
  2
DIM
 70
     0
 62
     7
  6
Continuous
370
    -3
390
B
347
E
348
0
  0
LAYER
  5
B1
102
{ACAD_XDICTIONARY
360
B2
102
}
330
1F
100
AcDbSymbolTableRecord
100
AcDbLayerTableRecord
  2
CEN
 70
     0
 62
     2
  6
CENTER
370
    -3
390
B
347
E
348
0
  0
LAYER
  5
6E
102
{ACAD_XDICTIONARY
360
6F
102
}
330
1F
100
AcDbSymbolTableRecord
100
AcDbLayerTableRecord
  2
LF-LINE
 70
     0
 62
     1
  6
Continuous
370
    -3
390
B
347
E
348
0
  0
LAYER
  5
74
102
{ACAD_XDICTIONARY
360
75
102
}
330
1F
100
AcDbSymbolTableRecord
100
AcDbLayerTableRecord
  2
COIN-LINE
 70
     0
 62
     4
  6
Continuous
370
    -3
390
B
347
E
348
0
  0
LAYER
  5
8C
102
{ACAD_XDICTIONARY
360
8D
102
}
330
1F
100
AcDbSymbolTableRecord
100
AcDbLayerTableRecord
  2
PKG-OUT
 70
     0
 62
     3
  6
HIDDEN
370
    -3
390
B
347
E
348
0
  0
ENDTAB
  0
TABLE
  2
STYLE
  5
20
330
0
100
AcDbSymbolTable
 70
     2
  0
STYLE
  5
21
330
20
100
AcDbSymbolTableRecord
100
AcDbTextStyleTableRecord
  2
Standard
 70
     0
 40
3.0
 41
1.0
 50
0.0
 71
     0
 42
2.5
  3
SIMPLEX
  4

  0
STYLE
  5
55
330
20
100
AcDbSymbolTableRecord
100
AcDbTextStyleTableRecord
  2
SIMPLEX
 70
     0
 40
3.0
 41
1.0
 50
0.0
 71
     0
 42
2.5
  3
SIMPLEX.shx
  4

  0
ENDTAB
  0
TABLE
  2
VIEW
  5
26
330
0
100
AcDbSymbolTable
 70
     0
  0
ENDTAB
  0
TABLE
  2
UCS
  5
27
330
0
100
AcDbSymbolTable
 70
     0
  0
ENDTAB
  0
TABLE
  2
APPID
  5
2D
330
0
100
AcDbSymbolTable
 70
     2
  0
APPID
  5
2E
330
2D
100
AcDbSymbolTableRecord
100
AcDbRegAppTableRecord
  2
ACAD
 70
     0
  0
APPID
  5
2C
330
2D
100
AcDbSymbolTableRecord
100
AcDbRegAppTableRecord
  2
ACAD_NAV_VCDISPLAY
 70
     0
  0
ENDTAB
  0
TABLE
  2
DIMSTYLE
  5
2F
330
0
100
AcDbSymbolTable
 70
     1
100
AcDbDimStyleTable
 71
     0
  0
DIMSTYLE
105
5B
330
2F
100
AcDbSymbolTableRecord
100
AcDbDimStyleTableRecord
  2
Standard
 70
     0
340
21
  0
ENDTAB
  0
TABLE
  2
BLOCK_RECORD
  5
1
330
0
100
AcDbSymbolTable
 70
     1
  0
BLOCK_RECORD
  5
2
102
{ACAD_XDICTIONARY
360
3
102
}
330
1
100
AcDbSymbolTableRecord
100
AcDbBlockTableRecord
  2
*Model_Space
340
19
 70
     0
280
     1
281
     0
  0
BLOCK_RECORD
  5
1B
330
1
100
AcDbSymbolTableRecord
100
AcDbBlockTableRecord
  2
*Paper_Space
340
1E
 70
     0
280
     1
281
     0
  0
BLOCK_RECORD
  5
71
330
1
100
AcDbSymbolTableRecord
100
AcDbBlockTableRecord
  2
INT1
340
0
102
{BLKREFS
331
6D
102
}
 70
     0
280
     1
281
     0
  0
ENDTAB
  0
ENDSEC
  0
SECTION
  2
BLOCKS
  0
BLOCK
  5
5
330
2
100
AcDbEntity
  8
0
100
AcDbBlockBegin
  2
*Model_Space
 70
     0
 10
0.0
 20
0.0
 30
0.0
  3
*Model_Space
  1

  0
ENDBLK
  5
18
330
2
100
AcDbEntity
  8
0
100
AcDbBlockEnd
  0
BLOCK
  5
1C
330
1B
100
AcDbEntity
 67
     1
  8
0
100
AcDbBlockBegin
  2
*Paper_Space
 70
     0
 10
0.0
 20
0.0
 30
0.0
  3
*Paper_Space
  1

  0
ENDBLK
  5
1D
330
1B
100
AcDbEntity
 67
     1
  8
0
100
AcDbBlockEnd
  0
BLOCK
  5
72
330
71
100
AcDbEntity
  8
0
100
AcDbBlockBegin
  2
INT1
 70
     0
 10
0.0
 20
0.0
 30
0.0
  3
INT1
  1

  0
LWPOLYLINE
  5
73
330
71
100
AcDbEntity
  8
COIN-LINE
100
AcDbPolyline
 90
        3
 70
     0
 43
0.0
 10
-0.1139999999999688
 20
-0.136999999999948
 10
-0.1139999999999972
 20
-0.1619999999999448
 10
-0.1098989794855569
 20
-0.1619999999999448
  0
LINE
  5
77
330
71
100
AcDbEntity
  8
COIN-LINE
100
AcDbLine
 10
-0.136398979485655
 20
-0.0840000000001409
 30
0.0
 11
-0.1545000000000556
 21
-0.0840000000001409
 31
0.0
  0
LWPOLYLINE
  5
78
330
71
100
AcDbEntity
  8
COIN-LINE
100
AcDbPolyline
 90
        2
 70
     0
 43
0.0
 10
-0.1020005050888315
 20
0.1650000000000675
 10
-0.1220000000000212
 20
0.1650000000000675
  0
LWPOLYLINE
  5
79
330
71
100
AcDbEntity
  8
COIN-LINE
100
AcDbPolyline
 90
        3
 70
     0
 43
0.0
 10
-0.0509999999999593
 20
0.1608989794856264
 10
-0.0509999999999309
 20
0.1650000000000675
 10
-0.0769999999999271
 20
0.1650000000000675
  0
LINE
  5
7A
330
71
100
AcDbEntity
  8
0
100
AcDbLine
 10
0.1446158809999076
 20
0.1149999999999522
 30
0.0
 11
0.1446158809998508
 21
0.0949999999999136
 31
0.0
  0
LINE
  5
7B
330
71
100
AcDbEntity
  8
0
100
AcDbLine
 10
0.1034999999999115
 20
0.1150000000000659
 30
0.0
 11
0.1034999999998547
 21
0.0950000000000273
 31
0.0
  0
LINE
  5
7C
330
71
100
AcDbEntity
  8
0
100
AcDbLine
 10
0.068499999999889
 20
-0.1580000000000528
 30
0.0
 11
0.0684999999998312
 21
-0.1335825756948467
 31
0.0
  0
LINE
  5
7D
330
71
100
AcDbEntity
  8
0
100
AcDbLine
 10
0.1096158809998708
 20
-0.1579999999999391
 30
0.0
 11
0.1096158809998282
 21
-0.1339999999999577
 31
0.0
  0
LINE
  5
7E
330
71
100
AcDbEntity
  8
0
100
AcDbLine
 10
0.1446158809999076
 20
-0.0449999999998454
 30
0.0
 11
0.1446158809998508
 21
-0.0249999999998067
 31
0.0
  0
LINE
  5
7F
330
71
100
AcDbEntity
  8
0
100
AcDbLine
 10
0.1034999999999115
 20
-0.0449999999999591
 30
0.0
 11
0.1034999999998547
 21
-0.0249999999999204
 31
0.0
  0
LINE
  5
80
330
71
100
AcDbEntity
  8
0
100
AcDbLine
 10
0.0100000000000478
 20
-0.1681158809999488
 30
0.0
 11
-0.0100000000000478
 21
-0.1681158810000056
 31
0.0
  0
LINE
  5
81
330
71
100
AcDbEntity
  8
0
100
AcDbLine
 10
0.0100000000000478
 20
0.1681158809999488
 30
0.0
 11
-0.0100000000000478
 21
0.1681158810000056
 31
0.0
  0
LINE
  5
82
330
71
100
AcDbEntity
  8
0
100
AcDbLine
 10
0.1034999999999115
 20
0.0449999999999591
 30
0.0
 11
0.1034999999998547
 21
0.0249999999999204
 31
0.0
  0
LINE
  5
83
330
71
100
AcDbEntity
  8
0
100
AcDbLine
 10
0.1446158809999076
 20
0.0449999999998454
 30
0.0
 11
0.1446158809998508
 21
0.0249999999998067
 31
0.0
  0
LINE
  5
84
330
71
100
AcDbEntity
  8
0
100
AcDbLine
 10
-0.1269947889999372
 20
-0.0919999999999846
 30
0.0
 11
-0.1269947889998804
 21
-0.1119999999999663
 31
0.0
  0
LINE
  5
85
330
71
100
AcDbEntity
  8
0
100
AcDbLine
 10
-0.0250000000000558
 20
0.1504947890001574
 30
0.0
 11
-0.0429999999999922
 21
0.1504947890001063
 31
0.0
  0
CIRCLE
  5
86
330
71
100
AcDbEntity
  8
0
100
AcDbCircle
 10
-0.1295000000000215
 20
-0.1650000000001341
 30
0.0
 40
0.0075000000000003
  0
CIRCLE
  5
87
330
71
100
AcDbEntity
  8
0
100
AcDbCircle
 10
-0.1429999999999865
 20
-0.0250000000000341
 30
0.0
 40
0.0075000000000003
  0
CIRCLE
  5
88
330
71
100
AcDbEntity
  8
0
100
AcDbCircle
 10
-0.1429999999999865
 20
0.0350000000000819
 30
0.0
 40
0.0075000000000003
  0
CIRCLE
  5
89
330
71
100
AcDbEntity
  8
0
100
AcDbCircle
 10
-0.1429999999999865
 20
0.105000000000075
 30
0.0
 40
0.0075000000000003
  0
CIRCLE
  5
8A
330
71
100
AcDbEntity
  8
0
100
AcDbCircle
 10
-0.1295000000000215
 20
0.1650000000001341
 30
0.0
 40
0.0075000000000003
  0
LWPOLYLINE
  5
8B
330
71
100
AcDbEntity
  8
PKG-OUT
100
AcDbPolyline
 90
        4
 70
     0
 43
0.0
 10
0.0935010205144342
 20
0.0209999999999768
 10
0.0885000000000105
 20
0.0209999999999768
 10
0.0885000000000105
 20
-0.0210000000001589
 10
0.0935010205144342
 20
-0.0210000000001554
  0
LWPOLYLINE
  5
90
330
71
100
AcDbEntity
  8
PKG-OUT
100
AcDbPolyline
 90
        4
 70
     0
 43
0.0
 10
0.0935010205144342
 20
-0.0490000000001301
 10
0.0885000000000105
 20
-0.0490000000001301
 10
0.0885000000000105
 20
-0.0910000000002658
 10
0.0935010205144342
 20
-0.0910000000002623
  0
LWPOLYLINE
  5
91
330
71
100
AcDbEntity
  8
PKG-OUT
100
AcDbPolyline
 90
        4
 70
     0
 43
0.0
 10
0.0944999999999112
 20
-0.1169999999999627
 10
0.0944999999998757
 20
-0.1119999999999628
 10
0.0694999999998629
 20
-0.1119999999999468
 10
0.0694999999999055
 20
-0.1171010205143892
  0
LINE
  5
92
330
71
100
AcDbEntity
  8
0
100
AcDbLine
 10
0.068499999999889
 20
0.1580000000000528
 30
0.0
 11
0.0684999999998312
 21
0.1335825756948467
 31
0.0
  0
LINE
  5
93
330
71
100
AcDbEntity
  8
0
100
AcDbLine
 10
0.1096158809998708
 20
0.1579999999999391
 30
0.0
 11
0.1096158809998282
 21
0.1339999999999577
 31
0.0
  0
LINE
  5
94
330
71
100
AcDbEntity
  8
COIN-LINE
100
AcDbLine
 10
-0.1490000000000009
 20
0.0032148330839634
 30
0.0
 11
-0.1490000000000009
 21
-0.0205000000000517
 31
0.0
  0
LINE
  5
95
330
71
100
AcDbEntity
  8
COIN-LINE
100
AcDbLine
 10
-0.1490000000000009
 20
0.0637148330840578
 30
0.0
 11
-0.1490000000000009
 21
0.0395000000000607
 31
0.0
  0
LINE
  5
96
330
71
100
AcDbEntity
  8
COIN-LINE
100
AcDbLine
 10
-0.1490000000000009
 20
0.1005000000000944
 30
0.0
 11
-0.1490000000000009
 21
0.0762851669159872
 31
0.0
  0
LINE
  5
97
330
71
100
AcDbEntity
  8
COIN-LINE
100
AcDbLine
 10
-0.1490000000000009
 20
0.0305000000001021
 30
0.0
 11
-0.1490000000000009
 21
0.0155574600960495
 31
0.0
  0
LINE
  5
98
330
71
100
AcDbEntity
  8
COIN-LINE
100
AcDbLine
 10
-0.1490000000000009
 20
-0.0295000000000183
 30
0.0
 11
-0.1490000000000009
 21
-0.0450000000000479
 31
0.0
  0
LINE
  5
99
330
71
100
AcDbEntity
  8
COIN-LINE
100
AcDbLine
 10
-0.1490000000000009
 20
0.1337148330841078
 30
0.0
 11
-0.1490000000000009
 21
0.1095000000000548
 31
0.0
  0
LINE
  5
9A
330
71
100
AcDbEntity
  8
0
100
AcDbLine
 10
0.1446158809999574
 20
-0.1150000000002631
 30
0.0
 11
0.1446158809999005
 21
-0.0950000000002245
 31
0.0
  0
LINE
  5
9B
330
71
100
AcDbEntity
  8
0
100
AcDbLine
 10
0.1034999999999613
 20
-0.1150000000003768
 30
0.0
 11
0.1034999999999044
 21
-0.0950000000003382
 31
0.0
  0
LWPOLYLINE
  5
9C
330
71
100
AcDbEntity
  8
PKG-OUT
100
AcDbPolyline
 90
        4
 70
     0
 43
0.0
 10
-0.0360000000000014
 20
-0.119500000000329
 10
-0.0360000000000014
 20
-0.1120000000000214
 10
-0.0944999999999539
 20
-0.1119999999999575
 10
-0.0944999999999539
 20
-0.1169890897116685
  0
LWPOLYLINE
  5
9D
330
71
100
AcDbEntity
  8
PKG-OUT
100
AcDbPolyline
 90
        3
 70
     0
 43
0.0
 10
-0.0885000000000247
 20
0.1220000000000478
 10
-0.0884999999999892
 20
-0.0499999999999563
 10
-0.096000000002185
 20
-0.0499999999999545
  0
LWPOLYLINE
  5
9E
330
71
100
AcDbEntity
  8
COIN-LINE
100
AcDbPolyline
 90
        3
 70
     0
 43
0.0
 10
-0.1370000000000218
 20
0.1650000000000675
 10
-0.1490000000000009
 20
0.1650000000000675
 10
-0.1490000000000009
 20
0.1462851669160372
  0
LINE
  5
9F
330
71
100
AcDbEntity
  8
0
100
AcDbLine
 10
-0.1034999999998973
 20
-0.1120000000000232
 30
0.0
 11
-0.1034999999999897
 21
-0.0920000000000982
 31
0.0
  0
LWPOLYLINE
  5
A0
330
71
100
AcDbEntity
  8
PKG-OUT
100
AcDbPolyline
 90
        4
 70
     1
 43
0.0
 10
0.1749999999999972
 20
-0.1999999999999318
 10
0.1749999999999972
 20
0.2000000000000455
 10
-0.1749999999999972
 20
0.2000000000000455
 10
-0.1749999999999972
 20
-0.1999999999999318
  0
LWPOLYLINE
  5
A1
330
71
100
AcDbEntity
  8
PKG-OUT
100
AcDbPolyline
 90
        4
 70
     0
 43
0.0
 10
0.0935010205144342
 20
0.09099999999997
 10
0.0885000000000105
 20
0.09099999999997
 10
0.0885000000000105
 20
0.0489999999998343
 10
0.0935010205144342
 20
0.0489999999998378
  0
LWPOLYLINE
  5
A2
330
71
100
AcDbEntity
  8
PKG-OUT
100
AcDbPolyline
 90
        4
 70
     0
 43
0.0
 10
0.0944999999999112
 20
0.1169999999999618
 10
0.0944999999998757
 20
0.1119999999999628
 10
0.0694999999998629
 20
0.1119999999999459
 10
0.0694999999999055
 20
0.1171010205143883
  0
LINE
  5
A3
330
71
100
AcDbEntity
  8
0
100
AcDbLine
 10
-0.1234999999999218
 20
-0.132000000000005
 30
0.0
 11
-0.1234999999999218
 21
-0.132000000000005
 31
0.0
  0
LINE
  5
A4
330
71
100
AcDbEntity
  8
0
100
AcDbLine
 10
0.0099999999999767
 20
-0.1270000000000664
 30
0.0
 11
-0.0130000000000195
 21
-0.1270000000000211
 31
0.0
  0
LINE
  5
A5
330
71
100
AcDbEntity
  8
0
100
AcDbLine
 10
-0.0100000000000122
 20
0.1270000000001215
 30
0.0
 11
0.0099999999999838
 21
0.1270000000000717
 31
0.0
  0
LWPOLYLINE
  5
A6
330
71
100
AcDbEntity
  8
0
100
AcDbPolyline
 90
       18
 70
     1
 43
0.0
 10
0.1606000000000165
 20
-0.1649999999999636
 42
-0.4142135623730951
 10
0.155600000000021
 20
-0.1599999999999682
 10
0.1556000000000068
 20
-0.1389999999999532
 42
0.4142135623730951
 10
0.1506000000000114
 20
-0.1339999999999577
 10
0.0704999999999885
 20
-0.1339999999999577
 42
-0.4142135623738496
 10
0.065499999999993
 20
-0.1289999999999623
 10
0.0654999999999433
 20
-0.1219999999999839
 42
-0.3563939586921863
 10
0.0694999999999055
 20
-0.1171010205143901
 10
0.0694999999999411
 20
-0.1220000000000754
 10
0.0944999999999468
 20
-0.1219999999999306
 10
0.0944999999999112
 20
-0.1169999999999627
 10
0.0955000000005697
 20
-0.1169999999999582
 42
0.1622776601272174
 10
0.0984999999991701
 20
-0.1159999999994214
 42
-0.1622776601284912
 10
0.101499999998552
 20
-0.1149999999998901
 10
0.1800000000000494
 20
-0.1149999999999522
 42
-0.414213562373069
 10
0.1850000000000449
 20
-0.1199999999999477
 10
0.1850000000000449
 20
-0.1599999999999682
 42
-0.4142135623730561
 10
0.1800000000000494
 20
-0.1649999999999636
  0
LWPOLYLINE
  5
A7
330
71
100
AcDbEntity
  8
0
100
AcDbPolyline
 90
       18
 70
     1
 43
0.0
 10
0.1606000000000165
 20
0.1649999999999636
 42
0.4142135623730951
 10
0.155600000000021
 20
0.1599999999999682
 10
0.1556000000000068
 20
0.1389999999999532
 42
-0.4142135623730951
 10
0.1506000000000114
 20
0.1339999999999577
 10
0.0704999999999885
 20
0.1339999999999577
 42
0.4142135623738496
 10
0.065499999999993
 20
0.1289999999999623
 10
0.0654999999999433
 20
0.1219999999999821
 42
0.3563939586921863
 10
0.0694999999999055
 20
0.1171010205143901
 10
0.0694999999999411
 20
0.1220000000000745
 10
0.0944999999999468
 20
0.1219999999999297
 10
0.0944999999999112
 20
0.1169999999999618
 10
0.0955000000005697
 20
0.1169999999999565
 42
-0.1622776601272174
 10
0.0984999999991701
 20
0.1159999999994206
 42
0.1622776601284912
 10
0.101499999998552
 20
0.1149999999998892
 10
0.1800000000000494
 20
0.1149999999999522
 42
0.414213562373069
 10
0.1850000000000449
 20
0.1199999999999477
 10
0.1850000000000449
 20
0.1599999999999682
 42
0.4142135623730561
 10
0.1800000000000494
 20
0.1649999999999627
  0
LWPOLYLINE
  5
A8
330
71
100
AcDbEntity
  8
0
100
AcDbPolyline
 90
       21
 70
     0
 43
0.0
 10
0.0075999999382503
 20
-0.1957291684587403
 42
0.2617284141759793
 10
0.0099999999999909
 20
-0.1914583371203662
 10
0.0099999999999838
 20
-0.1270000000000717
 42
-0.4142135623720773
 10
0.0149999999999651
 20
-0.1220000000000709
 10
0.0304999999999822
 20
-0.1220000000000141
 42
-0.4142135623738395
 10
0.0355000000000061
 20
-0.1270000000000087
 10
0.0355000000000416
 20
-0.1530000000000573
 42
0.4142135623730951
 10
0.0405000000000371
 20
-0.1580000000000528
 10
0.1185999999999865
 20
-0.1579999999999959
 42
-0.4142135623730951
 10
0.1235999999999819
 20
-0.1629999999999914
 10
0.1235999999999819
 20
-0.17999999999995
 42
0.4142135623730951
 10
0.1285999999999774
 20
-0.1849999999999454
 10
0.1800000000000352
 20
-0.1849999999999454
 42
-0.4142135623730951
 10
0.1850000000000307
 20
-0.1899999999999409
 10
0.1850000000000307
 20
-0.2119999999999891
 42
-0.414213562373017
 10
0.1800000000000352
 20
-0.2169999999999836
 10
0.0109999999999957
 20
-0.2169999999999845
 42
-0.4142135623730951
 10
0.0060000000000002
 20
-0.2119999999999891
 10
0.0059999999999931
 20
-0.2039191835852101
 42
0.1010205143582713
 10
0.0056000000005696
 20
-0.2019595917923569
 42
-0.3726004620289645
 10
0.0076000000617213
 20
-0.1957291686616047
  0
LWPOLYLINE
  5
A9
330
71
100
AcDbEntity
  8
0
100
AcDbPolyline
 90
       30
 70
     0
 43
0.0
 10
0.0076000000620557
 20
0.1957291686614003
 42
-0.7581321936034824
 10
0.0102000000002882
 20
0.2050000000000436
 10
0.0428000000000023
 20
0.2050000000000436
 42
0.4142135623730951
 10
0.0478000000000023
 20
0.2100000000000436
 10
0.0478000000000023
 20
0.240000000000041
 42
-0.4142135623730955
 10
0.0528000000000023
 20
0.2450000000000409
 10
0.1412000000000003
 20
0.2450000000000392
 42
-0.4142135623730918
 10
0.1462000000000003
 20
0.2400000000000392
 10
0.1462000000000003
 20
0.2100000000000427
 42
0.4142135623730951
 10
0.1512000000000003
 20
0.2050000000000428
 10
0.1599999999999991
 20
0.2050000000000433
 42
0.4142135623730966
 10
0.1649999999999992
 20
0.2100000000000436
 10
0.1650000000000024
 20
0.2549999999999989
 42
-0.4142135623730935
 10
0.1700000000000027
 20
0.2599999999999861
 10
0.1800000000000307
 20
0.259999999999923
 42
-0.4142135623730951
 10
0.185000000000018
 20
0.2549999999998977
 10
0.1850000000000307
 20
0.1899999999999409
 42
-0.4142135623730951
 10
0.1800000000000352
 20
0.1849999999999454
 10
0.1285999999999774
 20
0.1849999999999454
 42
0.4142135623730951
 10
0.1235999999999819
 20
0.17999999999995
 10
0.1235999999999819
 20
0.1629999999999914
 42
-0.4142135623730951
 10
0.1185999999999865
 20
0.1579999999999959
 10
0.0405000000000371
 20
0.1580000000000528
 42
0.4142135623730951
 10
0.0355000000000416
 20
0.1530000000000573
 10
0.0355000000000132
 20
0.1270000000000078
 42
-0.4142135623738496
 10
0.0304999999999893
 20
0.1220000000000141
 10
0.0149999999999651
 20
0.1220000000000709
 42
-0.4142135623719244
 10
0.0099999999999838
 20
0.1270000000000717
 10
0.0099999999999909
 20
0.1914583371203662
 42
0.2617284141759793
 10
0.0075999999382503
 20
0.1957291684587403
  0
LWPOLYLINE
  5
AA
330
71
100
AcDbEntity
  8
0
100
AcDbPolyline
 90
       10
 70
     1
 43
0.0
 10
0.0984000000000085
 20
-0.0450000000001296
 42
0.3563939586926287
 10
0.0935010205144342
 20
-0.0490000000001264
 10
0.0984999999999943
 20
-0.0490000000001301
 10
0.0984999999999516
 20
-0.0910000000002587
 10
0.0935010205144342
 20
-0.0910000000002623
 42
0.3563939586926287
 10
0.0984000000000085
 20
-0.0950000000002591
 10
0.1800000000000352
 20
-0.0950000000001978
 42
0.4142135623731212
 10
0.1850000000000307
 20
-0.0900000000002024
 10
0.1850000000000307
 20
-0.0500000000001251
 42
0.4142135623730625
 10
0.1800000000000352
 20
-0.0450000000001296
  0
LWPOLYLINE
  5
AB
330
71
100
AcDbEntity
  8
0
100
AcDbPolyline
 90
       10
 70
     1
 43
0.0
 10
0.0984000000000085
 20
0.0249999999999773
 42
0.3563939586926287
 10
0.0935010205144342
 20
0.0209999999999805
 10
0.0984999999999943
 20
0.0209999999999768
 10
0.0984999999999516
 20
-0.0210000000001518
 10
0.0935010205144342
 20
-0.0210000000001554
 42
0.3563939586926287
 10
0.0984000000000085
 20
-0.0250000000001523
 10
0.1800000000000352
 20
-0.025000000000091
 42
0.4142135623731212
 10
0.1850000000000307
 20
-0.0200000000000955
 10
0.1850000000000307
 20
0.0199999999999818
 42
0.4142135623730625
 10
0.1800000000000352
 20
0.0249999999999773
  0
LWPOLYLINE
  5
AC
330
71
100
AcDbEntity
  8
0
100
AcDbPolyline
 90
       10
 70
     1
 43
0.0
 10
0.0984000000000085
 20
0.0949999999999705
 42
0.3563939586926287
 10
0.0935010205144342
 20
0.0909999999999736
 10
0.0984999999999943
 20
0.09099999999997
 10
0.0984999999999516
 20
0.0489999999998414
 10
0.0935010205144342
 20
0.0489999999998378
 42
0.3563939586926287
 10
0.0984000000000085
 20
0.0449999999998409
 10
0.1800000000000352
 20
0.0449999999999022
 42
0.4142135623731212
 10
0.1850000000000307
 20
0.0499999999998977
 10
0.1850000000000307
 20
0.089999999999975
 42
0.4142135623730625
 10
0.1800000000000352
 20
0.0949999999999705
  0
LINE
  5
AD
330
71
100
AcDbEntity
  8
0
100
AcDbLine
 10
-0.024999999999989
 20
0.1270000000001232
 30
0.0
 11
-0.0429999999999709
 21
0.1270000000001872
 31
0.0
  0
LWPOLYLINE
  5
AE
330
71
100
AcDbEntity
  8
0
100
AcDbPolyline
 90
      141
 70
     1
 43
0.0
 10
-0.0479999999999592
 20
0.1220000000001837
 10
-0.0905000000000485
 20
0.1220000000000407
 42
0.4142135623720384
 10
-0.0985000000000227
 20
0.1140000000000398
 10
-0.0984999999999943
 20
-0.0499999999999608
 10
-0.096000000002185
 20
-0.0499999999999554
 42
0.2679491924118827
 10
-0.0984999999999943
 20
-0.0543301270176127
 10
-0.0984999999999872
 20
-0.0870000000000975
 42
-0.414213562373069
 10
-0.1034999999999897
 20
-0.0920000000000982
 10
-0.1315000000000737
 20
-0.0920000000000982
 42
-0.4142135623728089
 10
-0.1365000000000762
 20
-0.0870000000001135
 10
-0.1365000000000833
 20
-0.0850000000001501
 42
-0.4142135623742658
 10
-0.1315000000000737
 20
-0.0800000000001511
 10
-0.1184999999999974
 20
-0.0800000000002115
 42
0.4142135623735893
 10
-0.1134999999999806
 20
-0.075000000000216
 10
-0.1134999999999948
 20
-0.0570000000001398
 10
-0.1495000000001028
 20
-0.0570000000000732
 42
0.4142135623740836
 10
-0.1545000000001053
 20
-0.0620000000000793
 10
-0.154500000000013
 20
-0.1120000000000232
 10
-0.1028301270176186
 20
-0.1120000000000232
 42
-0.2679491924096354
 10
-0.0984999999989
 20
-0.1144999999996754
 42
0.2503212789185041
 10
-0.0944999999999539
 20
-0.1169890897116712
 10
-0.0944999999999539
 20
-0.1219999999999572
 10
-0.0360000000000014
 20
-0.1220000000000052
 10
-0.0360000000000014
 20
-0.119500000000329
 42
0.2679491924111037
 10
-0.0316698729812686
 20
-0.1220000000000097
 10
-0.0180000000000149
 20
-0.1220000000000212
 42
-0.4142135623726789
 10
-0.0130000000000195
 20
-0.1270000000000211
 10
-0.0130000000000123
 20
-0.1299174243049883
 42
-0.2982166266981356
 10
-0.0100000000000122
 20
-0.1344999999999388
 10
-0.0099999999999625
 20
-0.1914583373991299
 42
0.26172841028319
 10
-0.0076000000001244
 20
-0.1957291686991063
 42
-0.3726004578608429
 10
-0.0056000000007188
 20
-0.2019595917911214
 42
0.1010205143416071
 10
-0.0060000000000002
 20
-0.2039191835836736
 10
-0.0059999999999647
 20
-0.2119999999999322
 42
-0.4142135623734852
 10
-0.0109999999999673
 20
-0.2169999999999277
 10
-0.1800000000000068
 20
-0.2169999999999899
 42
-0.4142135623733812
 10
-0.1850000000000023
 20
-0.2119999999999891
 10
-0.1849999999999809
 20
-0.1900000000000528
 42
-0.4142135623730431
 10
-0.1799999999999784
 20
-0.1850000000000653
 10
-0.1149999999999878
 20
-0.1850000000000644
 42
0.4142135623729131
 10
-0.1099999999999994
 20
-0.1800000000000637
 10
-0.1100000000000065
 20
-0.1630000000000109
 42
-0.4142135623731731
 10
-0.105000000000004
 20
-0.1580000000000217
 10
-0.0399999999999494
 20
-0.1579999999999639
 42
0.4142135623733812
 10
-0.034999999999954
 20
-0.1529999999999632
 10
-0.0349999999999824
 20
-0.1369999999999436
 10
-0.1184999999998979
 20
-0.1369999999999489
 42
-0.4142135623724447
 10
-0.1234999999999218
 20
-0.132000000000005
 42
0.4142135623732771
 10
-0.1284999999999314
 20
-0.1270000000000078
 10
-0.1490000000000151
 20
-0.1270000000000664
 10
-0.1489999999999654
 20
-0.1599999999999611
 42
-0.4142135623717163
 10
-0.1539999999999537
 20
-0.1649999999999672
 10
-0.1799999999999784
 20
-0.1650000000000826
 42
-0.4142135623749942
 10
-0.1850000000000023
 20
-0.1600000000000818
 10
-0.1850000000000378
 20
-0.0500000000000114
 42
-0.4142135623728609
 10
-0.180000000000021
 20
-0.045000000000015
 10
-0.123500000000007
 20
-0.0450000000000728
 10
-0.1235000000000355
 20
0.0034999999999172
 10
-0.147335563461823
 20
0.0034999999999208
 42
0.327209884521385
 10
-0.152103476787488
 20
0.000005656839619
 10
-0.1588965232125972
 20
-0.0215056568397856
 42
-0.3272098845209468
 10
-0.1636644365382693
 20
-0.0250000000000963
 10
-0.1800000000000352
 20
-0.0250000000000963
 42
-0.4142135623724967
 10
-0.1850000000000165
 20
-0.0200000000000955
 10
-0.1850000000000236
 20
0.0200000000000387
 42
-0.4142135623733032
 10
-0.180000000000021
 20
0.0250000000000306
 10
-0.1597558434353914
 20
0.0250000000000377
 42
-0.2573348155904533
 10
-0.155528398920211
 20
0.0226699649569469
 10
-0.1524716010798954
 20
0.0178300350430121
 42
0.2573348155898767
 10
-0.148244156564715
 20
0.0154999999999195
 10
-0.1234999999999928
 20
0.0154999999998609
 10
-0.1234999999999928
 20
0.0640000000000214
 10
-0.1473355634617732
 20
0.0640000000000249
 42
0.327209884522635
 10
-0.1521034767874596
 20
0.0605056568397213
 10
-0.1558965232124976
 20
0.0484943431603284
 42
-0.3272098845219721
 10
-0.1606644365381697
 20
0.0450000000000124
 10
-0.1799999999999926
 20
0.0450000000000106
 42
-0.4142135623733294
 10
-0.184999999999988
 20
0.0500000000000114
 10
-0.1849999999999952
 20
0.0900000000000887
 42
-0.414213562371144
 10
-0.1800000000000068
 20
0.0950000000000841
 10
-0.1606644365382337
 20
0.0950000000002014
 42
-0.3272098845247546
 10
-0.155896523212526
 20
0.0915056568398445
 10
-0.1521034767874738
 20
0.0794943431603512
 42
0.3272098845235575
 10
-0.1473355634617803
 20
0.0760000000000192
 10
-0.1235000000000213
 20
0.075999999999965
 10
-0.1235000000000141
 20
0.1240000000000805
 10
-0.1320355339059418
 20
0.1325355339060046
 42
0.1989123673796581
 10
-0.135571067811874
 20
0.1340000000000714
 10
-0.1473355634617732
 20
0.1340000000000749
 42
0.3272098845226354
 10
-0.1521034767874596
 20
0.1305056568397713
 10
-0.1561172185700101
 20
0.1177954745282692
 42
-0.3272098845232707
 10
-0.1599315492305493
 20
0.1150000000000091
 10
-0.1800000000000281
 20
0.1150000000000038
 42
-0.4142135623716643
 10
-0.1849999999999952
 20
0.1200000000000045
 10
-0.1849999999999952
 20
0.1600000000001387
 42
-0.4142135623733032
 10
-0.1799999999999926
 20
0.1650000000001306
 10
-0.1599315492305422
 20
0.1650000000001341
 42
-0.327209884522349
 10
-0.1561172185700101
 20
0.1622045254718696
 10
-0.1521034767874738
 20
0.1494943431604012
 42
0.3272098845235583
 10
-0.1473355634617803
 20
0.1460000000000692
 10
-0.1269749371854942
 20
0.1460000000000718
 42
-0.3851703882101613
 10
-0.1220000000012149
 20
0.1415000000000308
 42
0.3851703882099898
 10
-0.1170250628156921
 20
0.1370000000001141
 10
-0.1019999999999754
 20
0.1370000000001141
 10
-0.1019999999999257
 20
0.1649289321880367
 42
0.1989123673795694
 10
-0.103464466093989
 20
0.1684644660939725
 10
-0.1199999999999051
 20
0.1849999999999374
 10
-0.1799999999999784
 20
0.1850000000000591
 42
-0.4142135623719505
 10
-0.1849999999999667
 20
0.1900000000000554
 10
-0.1849999999999458
 20
0.2549999999998977
 42
-0.4142135623730951
 10
-0.1800000000000307
 20
0.2599999999999103
 10
-0.1700000000000027
 20
0.2599999999999736
 42
-0.4142135623730935
 10
-0.1649999999999899
 20
0.2549999999999989
 10
-0.1649999999999995
 20
0.2100000000000436
 42
0.4142135623730967
 10
-0.1599999999999991
 20
0.2050000000000436
 10
-0.1512000000000003
 20
0.2050000000000429
 42
0.4142135623730951
 10
-0.1462000000000002
 20
0.2100000000000427
 10
-0.1462000000000003
 20
0.2400000000000392
 42
-0.4142135623730951
 10
-0.1412000000000003
 20
0.2450000000000392
 10
-0.0528000000000023
 20
0.2450000000000409
 42
-0.4142135623730955
 10
-0.0478000000000023
 20
0.240000000000041
 10
-0.0478000000000023
 20
0.2100000000000436
 42
0.4142135623730951
 10
-0.0428000000000023
 20
0.2050000000000436
 10
-0.0102000000004308
 20
0.2049999999976756
 42
-0.7581321878974855
 10
-0.0076000000004582
 20
0.1957291686988821
 42
0.2617284102852526
 10
-0.009999999999998
 20
0.1914583373983509
 10
-0.0100000000000122
 20
0.1270000000001215
 42
-0.4142135623755144
 10
-0.0150000000000432
 20
0.1220000000001349
 10
-0.020000000000022
 20
0.1220000000001224
 42
-0.4142135623716122
 10
-0.024999999999989
 20
0.1270000000001232
 10
-0.0250000000000033
 20
0.1740000000000927
 42
0.4142135623733294
 10
-0.0300000000000058
 20
0.1790000000000855
 10
-0.0769999999998987
 20
0.1790000000000873
 10
-0.0769999999999769
 20
0.1370000000001141
 10
-0.0599999999999597
 20
0.1370000000001088
 42
0.4142135623721847
 10
-0.0549999999999713
 20
0.1420000000001096
 10
-0.05499999999995
 20
0.1560000000000654
 42
-0.4142135623712221
 10
-0.0499999999999474
 20
0.1610000000000644
 10
-0.0480000000000587
 20
0.1610000000000618
 42
-0.4142135623773353
 10
-0.0429999999999922
 20
0.1560000000000627
 10
-0.0429999999999709
 20
0.1270000000001872
 42
-0.4142135623722887
  0
ENDBLK
  5
AF
330
71
100
AcDbEntity
  8
0
100
AcDbBlockEnd
  0
ENDSEC
  0
SECTION
  2
ENTITIES
  0
INSERT
  5
6D
330
2
100
AcDbEntity
  8
LF-LINE
100
AcDbBlockReference
  2
INT1
 10
908.0659226531778
 20
282.0868620156986
 30
0.0
 41
350.0
 42
350.0
 43
350.0
  0
LINE
  5
B0
330
2
100
AcDbEntity
  8
CEN
100
AcDbLine
 10
908.0659226531778
 20
295.7548844648765
 30
0.0
 11
908.0659226531778
 21
268.4188395665208
 31
0.0
  0
LINE
  5
B5
330
2
100
AcDbEntity
  8
DIM
100
AcDbLine
 10
908.0659226531778
 20
296.7548844648765
 30
0.0
 11
908.0659226531778
 21
373.8568468986176
 31
0.0
  0
MTEXT
  5
B7
330
2
100
AcDbEntity
  8
DIM
100
AcDbMText
 10
900.2785794455762
 20
373.7315240368605
 30
0.0
 40
2.5
 41
0.0
 46
0.0
 71
     5
 72
     1
  1
D
  7
SIMPLEX
 73
     1
 44
1.0
  0
SOLID
  5
B8
330
2
100
AcDbEntity
  8
DIM
100
AcDbTrace
 10
901.9696861479848
 20
373.8568468986176
 30
0.0
 11
904.969686147985
 21
374.3568468986177
 31
0.0
 12
904.969686147985
 22
373.3568468986175
 32
0.0
 13
904.969686147985
 23
373.3568468986175
 33
0.0
  0
LINE
  5
BA
330
2
100
AcDbEntity
  8
DIM
100
AcDbLine
 10
904.3465039511373
 20
373.8568468986176
 30
0.0
 11
908.0659226531778
 21
373.8568468986176
 31
0.0
  0
MTEXT
  5
BB
330
2
100
AcDbEntity
  8
DIM
100
AcDbMText
 10
900.2785794455762
 20
199.039261024347
 30
0.0
 40
2.5
 41
0.0
 46
0.0
 71
     5
 72
     1
  1
D
  7
SIMPLEX
 73
     1
 44
1.0
  0
SOLID
  5
BC
330
2
100
AcDbEntity
  8
DIM
100
AcDbTrace
 10
901.9696861479848
 20
199.1645838861041
 30
0.0
 11
904.969686147985
 21
199.6645838861042
 31
0.0
 12
904.969686147985
 22
198.664583886104
 32
0.0
 13
904.969686147985
 23
198.664583886104
 33
0.0
  0
LINE
  5
BD
330
2
100
AcDbEntity
  8
DIM
100
AcDbLine
 10
904.3465039511373
 20
199.1645838861041
 30
0.0
 11
908.0659226531778
 21
199.1645838861041
 31
0.0
  0
LINE
  5
BE
330
2
100
AcDbEntity
  8
DIM
100
AcDbLine
 10
908.0659226531778
 20
199.1645838861041
 30
0.0
 11
908.0659226531778
 21
267.4188395665208
 31
0.0
  0
LINE
  5
BF
330
2
100
AcDbEntity
  8
CEN
 48
0.5
100
AcDbLine
 10
1019.303457632221
 20
282.0868297930561
 30
0.0
 11
1041.115012996244
 21
282.0868297930561
 31
0.0
  0
LINE
  5
C0
330
2
100
AcDbEntity
  8
DIM
100
AcDbLine
 10
1030.442675318739
 20
326.5368297138219
 30
0.0
 11
1008.200775099246
 21
326.5368297138219
 31
0.0
  0
LINE
  5
C1
330
2
100
AcDbEntity
  8
DIM
100
AcDbLine
 10
1030.442675318739
 20
237.6368298723003
 30
0.0
 11
1008.200775099246
 21
237.6368298723003
 31
0.0
  0
LINE
  5
C2
330
2
100
AcDbEntity
  8
DIM
100
AcDbLine
 10
1009.200775099246
 20
324.5868297138219
 30
0.0
 11
1009.200775099246
 21
239.5868298723002
 31
0.0
  0
SOLID
  5
C3
330
2
100
AcDbEntity
  8
DIM
100
AcDbTrace
 10
1009.200775099246
 20
326.5368297138219
 30
0.0
 11
1008.700775099246
 21
323.5368297138219
 31
0.0
 12
1009.700775099246
 22
323.5368297138219
 32
0.0
 13
1009.700775099246
 23
323.5368297138219
 33
0.0
  0
SOLID
  5
C4
330
2
100
AcDbEntity
  8
DIM
100
AcDbTrace
 10
1009.200775099246
 20
237.6368298723003
 30
0.0
 11
1008.700775099246
 21
240.6368298723002
 31
0.0
 12
1009.700775099246
 22
240.6368298723002
 32
0.0
 13
1009.700775099246
 23
240.6368298723002
 33
0.0
  0
MTEXT
  5
C5
330
2
100
AcDbEntity
  8
DIM
100
AcDbMText
 10
1006.850775099246
 20
282.086829793061
 30
0.0
 40
2.5
 41
0.0
 46
0.0
 71
     5
 72
     1
  1
0.2540
  7
SIMPLEX
 11
0.0
 21
1.0
 31
0.0
 73
     1
 44
1.0
  0
MTEXT
  5
C6
102
{ACAD_XDICTIONARY
360
C7
102
}
330
2
100
AcDbEntity
  8
DIM
100
AcDbMText
 10
1006.068285629418
 20
293.9241408015742
 30
0.0
 40
1.800000000000011
 41
0.0
 46
0.0
 71
     5
 72
     1
  1
%%P0.004
  7
SIMPLEX
 11
0.0
 21
1.0
 31
0.0
 73
     1
 44
1.0
  0
MTEXT
  5
C8
102
{ACAD_XDICTIONARY
360
C9
102
}
330
2
100
AcDbEntity
  8
DIM
100
AcDbMText
 10
1009.616981608302
 20
349.5121611758272
 30
0.0
 40
2.5
 41
0.0
 46
0.0
 71
     5
 72
     1
  1
\A1;50%%d
  7
SIMPLEX
 73
     1
 44
1.0
  0
SOLID
  5
CA
330
2
100
AcDbEntity
  8
DIM
100
AcDbTrace
 10
1014.292675318737
 20
347.734015851651
 30
0.0
 11
1017.329108765954
 21
347.560603278231
 31
0.0
 12
1017.108735312563
 22
346.5851877047235
 32
0.0
 13
1017.108735312563
 23
346.5851877047235
 33
0.0
  0
SOLID
  5
CB
330
2
100
AcDbEntity
  8
DIM
100
AcDbTrace
 10
1009.078496174216
 20
345.3026041855685
 30
0.0
 11
1008.148421120104
 21
342.4069245773042
 31
0.0
 12
1007.259556114943
 22
342.8650937628685
 32
0.0
 13
1007.259556114943
 23
342.8650937628685
 33
0.0
  0
LINE
  5
CC
330
2
100
AcDbEntity
  8
DIM
100
AcDbLine
 10
1013.526630875618
 20
341.5701759981965
 30
0.0
 11
1008.312451731097
 21
345.9453917952548
 31
0.0
  0
ARC
  5
CD
330
2
100
AcDbEntity
  8
DIM
100
AcDbCircle
 10
1014.292675318737
 20
340.9273883885101
 30
0.0
 40
6.806627463140849
100
AcDbArc
 50
165.4619372963994
 51
192.3030928787012
  0
ARC
  5
CE
330
2
100
AcDbEntity
  8
DIM
100
AcDbCircle
 10
1014.292675318737
 20
340.9273883885101
 30
0.0
 40
6.806627463140846
100
AcDbArc
 50
37.69690712130649
 51
64.53806270360892
  0
ARC
  5
CF
330
2
100
AcDbEntity
  8
DIM
100
AcDbCircle
 10
1014.292675318737
 20
340.9273883885101
 30
0.0
 40
6.806627463140856
100
AcDbArc
 50
64.53806270360892
 51
165.4619372963994
  0
LINE
  5
D0
330
2
100
AcDbEntity
  8
DIM
100
AcDbLine
 10
1035.642675318739
 20
327.5368297138219
 30
0.0
 11
1035.642675318739
 21
364.7970134907891
 31
0.0
  0
MTEXT
  5
D1
330
2
100
AcDbEntity
  8
DIM
100
AcDbMText
 10
1008.112937471697
 20
365.8970134907891
 30
0.0
 40
2.5
 41
0.0
 46
0.0
 71
     5
 72
     1
  1
0.0490
  7
SIMPLEX
 73
     1
 44
1.0
  0
LINE
  5
D2
330
2
100
AcDbEntity
  8
DIM
100
AcDbLine
 10
1018.492675318737
 20
359.4292120822178
 30
0.0
 11
1018.492675318737
 21
364.7970134907891
 31
0.0
  0
MTEXT
  5
D3
102
{ACAD_XDICTIONARY
360
D4
102
}
330
2
100
AcDbEntity
  8
DIM
100
AcDbMText
 10
1019.602558779779
 20
367.1303626707526
 30
0.0
 40
1.800000000000011
 41
0.0
 46
0.0
 71
     5
 72
     1
  1
%%P0.001
  7
SIMPLEX
 73
     1
 44
1.0
  0
LINE
  5
D5
330
2
100
AcDbEntity
  8
DIM
100
AcDbLine
 10
1018.492675318737
 20
204.7444475038943
 30
0.0
 11
1018.492675318737
 21
196.1153659843062
 31
0.0
  0
LINE
  5
D6
330
2
100
AcDbEntity
  8
DIM
100
AcDbLine
 10
1014.292675318737
 20
204.7444475038943
 30
0.0
 11
1014.292675318737
 21
196.1153659843062
 31
0.0
  0
LINE
  5
D7
330
2
100
AcDbEntity
  8
DIM
100
AcDbLine
 10
1021.492675318737
 20
197.1153659843062
 30
0.0
 11
1024.492675318737
 21
197.1153659843062
 31
0.0
  0
SOLID
  5
D8
330
2
100
AcDbEntity
  8
DIM
100
AcDbTrace
 10
1018.492675318737
 20
197.1153659843062
 30
0.0
 11
1021.492675318737
 21
197.6153659843063
 31
0.0
 12
1021.492675318737
 22
196.6153659843061
 32
0.0
 13
1021.492675318737
 23
196.6153659843061
 33
0.0
  0
LINE
  5
D9
330
2
100
AcDbEntity
  8
DIM
100
AcDbLine
 10
1011.292675318737
 20
197.1153659843062
 30
0.0
 11
989.7051970213698
 21
197.1153659843062
 31
0.0
  0
SOLID
  5
DA
330
2
100
AcDbEntity
  8
DIM
100
AcDbTrace
 10
1014.292675318737
 20
197.1153659843062
 30
0.0
 11
1011.292675318737
 21
197.6153659843063
 31
0.0
 12
1011.292675318737
 22
196.6153659843061
 32
0.0
 13
1011.292675318737
 23
196.6153659843061
 33
0.0
  0
MTEXT
  5
DB
330
2
100
AcDbEntity
  8
DIM
100
AcDbMText
 10
995.6897029516939
 20
199.2153659843062
 30
0.0
 40
2.5
 41
0.0
 46
0.0
 71
     5
 72
     1
  1
0.0120
  7
SIMPLEX
 73
     1
 44
1.0
  0
MTEXT
  5
DC
102
{ACAD_XDICTIONARY
360
DD
102
}
330
2
100
AcDbEntity
  8
DIM
100
AcDbMText
 10
1007.984835130118
 20
200.2794598108393
 30
0.0
 40
1.800000000000011
 41
0.0
 46
0.0
 71
     5
 72
     1
  1
%%P0.0003
  7
SIMPLEX
 73
     1
 44
1.0
  0
LINE
  5
DE
330
2
100
AcDbEntity
  8
DIM
100
AcDbLine
 10
1018.492675318737
 20
197.1153659843062
 30
0.0
 11
1014.292675318737
 21
197.1153659843062
 31
0.0
  0
LINE
  5
DF
330
2
100
AcDbEntity
  8
CEN
 48
0.5
100
AcDbLine
 10
1068.006760232701
 20
282.0868297930561
 30
0.0
 11
1085.601563083842
 21
282.0868297930561
 31
0.0
  0
LINE
  5
E0
330
2
100
AcDbEntity
  8
DIM
100
AcDbLine
 10
1067.006760232701
 20
282.0868297930561
 30
0.0
 11
1060.628291000557
 21
282.0868297930561
 31
0.0
  0
LINE
  5
E1
330
2
100
AcDbEntity
  8
DIM
100
AcDbLine
 10
1074.575175452633
 20
326.5368619364597
 30
0.0
 11
1060.628291000557
 21
326.5368619364597
 31
0.0
  0
LINE
  5
E2
330
2
100
AcDbEntity
  8
DIM
100
AcDbLine
 10
1061.628291000557
 20
285.086829793056
 30
0.0
 11
1061.628291000557
 21
324.5868619364598
 31
0.0
  0
SOLID
  5
E3
330
2
100
AcDbEntity
  8
DIM
100
AcDbTrace
 10
1061.628291000557
 20
282.0868297930561
 30
0.0
 11
1062.128291000557
 21
285.086829793056
 31
0.0
 12
1061.128291000557
 22
285.086829793056
 32
0.0
 13
1061.128291000557
 23
285.086829793056
 33
0.0
  0
SOLID
  5
E4
330
2
100
AcDbEntity
  8
DIM
100
AcDbTrace
 10
1061.628291000557
 20
326.5368619364597
 30
0.0
 11
1062.128291000557
 21
323.5368619364597
 31
0.0
 12
1061.128291000557
 22
323.5368619364597
 32
0.0
 13
1061.128291000557
 23
323.5368619364597
 33
0.0
  0
MTEXT
  5
E5
330
2
100
AcDbEntity
  8
DIM
100
AcDbMText
 10
1059.528291000557
 20
304.8368458647579
 30
0.0
 40
2.5
 41
0.0
 46
0.0
 71
     5
 72
     1
  1
0.1270
  7
SIMPLEX
 11
0.0
 21
1.0
 31
0.0
 73
     1
 44
1.0
  0
MTEXT
  5
E6
102
{ACAD_XDICTIONARY
360
E7
102
}
330
2
100
AcDbEntity
  8
DIM
100
AcDbMText
 10
1058.270544414073
 20
316.5928281011027
 30
0.0
 40
1.800000000000011
 41
0.0
 46
0.0
 71
     5
 72
     1
  1
%%P0.002
  7
SIMPLEX
 11
0.0
 21
1.0
 31
0.0
 73
     1
 44
1.0
  0
LINE
  5
E8
330
2
100
AcDbEntity
  8
DIM
100
AcDbLine
 10
1079.775175452633
 20
247.644762094935
 30
0.0
 11
1079.775175452633
 21
239.0156805753469
 31
0.0
  0
LINE
  5
E9
330
2
100
AcDbEntity
  8
DIM
100
AcDbLine
 10
1075.575175452633
 20
247.644762094935
 30
0.0
 11
1075.575175452633
 21
239.0156805753469
 31
0.0
  0
LINE
  5
EA
330
2
100
AcDbEntity
  8
DIM
100
AcDbLine
 10
1082.775175452633
 20
240.0156805753469
 30
0.0
 11
1085.775175452633
 21
240.0156805753469
 31
0.0
  0
SOLID
  5
EB
330
2
100
AcDbEntity
  8
DIM
100
AcDbTrace
 10
1079.775175452633
 20
240.0156805753469
 30
0.0
 11
1082.775175452633
 21
240.515680575347
 31
0.0
 12
1082.775175452633
 22
239.5156805753468
 32
0.0
 13
1082.775175452633
 23
239.5156805753468
 33
0.0
  0
LINE
  5
EC
330
2
100
AcDbEntity
  8
DIM
100
AcDbLine
 10
1072.575175452633
 20
240.0156805753469
 30
0.0
 11
1050.387747449332
 21
240.0156805753469
 31
0.0
  0
SOLID
  5
ED
330
2
100
AcDbEntity
  8
DIM
100
AcDbTrace
 10
1075.575175452633
 20
240.0156805753469
 30
0.0
 11
1072.575175452633
 21
240.515680575347
 31
0.0
 12
1072.575175452633
 22
239.5156805753468
 32
0.0
 13
1072.575175452633
 23
239.5156805753468
 33
0.0
  0
MTEXT
  5
EE
330
2
100
AcDbEntity
  8
DIM
100
AcDbMText
 10
1056.250455331648
 20
242.1156805753469
 30
0.0
 40
2.5
 41
0.0
 46
0.0
 71
     5
 72
     1
  1
0.0120
  7
SIMPLEX
 73
     1
 44
1.0
  0
MTEXT
  5
EF
102
{ACAD_XDICTIONARY
360
F0
102
}
330
2
100
AcDbEntity
  8
DIM
100
AcDbMText
 10
1068.545587510072
 20
243.17977440188
 30
0.0
 40
1.800000000000011
 41
0.0
 46
0.0
 71
     5
 72
     1
  1
%%P0.0003
  7
SIMPLEX
 73
     1
 44
1.0
  0
LINE
  5
F1
330
2
100
AcDbEntity
  8
DIM
100
AcDbLine
 10
1079.775175452633
 20
240.0156805753469
 30
0.0
 11
1075.575175452633
 21
240.0156805753469
 31
0.0
  0
LINE
  5
F2
330
2
100
AcDbEntity
  8
DIM
100
AcDbLine
 10
1079.775175452633
 20
327.5368619364597
 30
0.0
 11
1079.775175452633
 21
357.7367615036735
 31
0.0
  0
LINE
  5
F3
330
2
100
AcDbEntity
  8
DIM
100
AcDbLine
 10
1082.775175452633
 20
356.7367615036734
 30
0.0
 11
1085.775175452633
 21
356.7367615036734
 31
0.0
  0
SOLID
  5
F4
330
2
100
AcDbEntity
  8
DIM
100
AcDbTrace
 10
1079.775175452633
 20
356.7367615036734
 30
0.0
 11
1082.775175452633
 21
357.2367615036736
 31
0.0
 12
1082.775175452633
 22
356.2367615036734
 32
0.0
 13
1082.775175452633
 23
356.2367615036734
 33
0.0
  0
LINE
  5
F5
330
2
100
AcDbEntity
  8
DIM
100
AcDbLine
 10
1066.975175452631
 20
356.7367615036734
 30
0.0
 11
1053.999483079859
 21
356.7367615036734
 31
0.0
  0
SOLID
  5
F6
330
2
100
AcDbEntity
  8
DIM
100
AcDbTrace
 10
1069.975175452631
 20
356.7367615036734
 30
0.0
 11
1066.975175452631
 21
357.2367615036736
 31
0.0
 12
1066.975175452631
 22
356.2367615036734
 32
0.0
 13
1066.975175452631
 23
356.2367615036734
 33
0.0
  0
MTEXT
  5
F7
330
2
100
AcDbEntity
  8
DIM
100
AcDbMText
 10
1060.531479998593
 20
358.8367615036735
 30
0.0
 40
2.5
 41
0.0
 46
0.0
 71
     5
 72
     1
  1
0.0280
  7
SIMPLEX
 73
     1
 44
1.0
  0
LINE
  5
F8
330
2
100
AcDbEntity
  8
DIM
100
AcDbLine
 10
1069.975175452631
 20
356.7367615036734
 30
0.0
 11
1079.775175452633
 21
356.7367615036734
 31
0.0
  0
MTEXT
  5
F9
102
{ACAD_XDICTIONARY
360
FA
102
}
330
2
100
AcDbEntity
  8
DIM
100
AcDbMText
 10
1071.828271905667
 20
360.0799027138934
 30
0.0
 40
1.800000000000011
 41
0.0
 46
0.0
 71
     5
 72
     1
  1
%%P0.001
  7
SIMPLEX
 73
     1
 44
1.0
  0
LINE
  5
FB
330
2
100
AcDbEntity
  8
DIM
100
AcDbLine
 10
1001.759688866086
 20
363.7970134907891
 30
0.0
 11
1015.492675318737
 21
363.7970134907891
 31
0.0
  0
SOLID
  5
FC
330
2
100
AcDbEntity
  8
DIM
100
AcDbTrace
 10
1018.492675318737
 20
363.7970134907891
 30
0.0
 11
1015.492675318737
 21
364.2970134907892
 31
0.0
 12
1015.492675318737
 22
363.297013490789
 32
0.0
 13
1015.492675318737
 23
363.297013490789
 33
0.0
  0
SOLID
  5
FD
330
2
100
AcDbEntity
  8
DIM
100
AcDbTrace
 10
1035.642675318739
 20
363.7970134907891
 30
0.0
 11
1038.642675318739
 21
364.2970134907892
 31
0.0
 12
1038.642675318739
 22
363.297013490789
 32
0.0
 13
1038.642675318739
 23
363.297013490789
 33
0.0
  0
LINE
  5
FE
330
2
100
AcDbEntity
  8
DIM
100
AcDbLine
 10
1038.642675318739
 20
363.7970134907891
 30
0.0
 11
1041.642675318739
 21
363.7970134907891
 31
0.0
  0
LINE
  5
FF
330
2
100
AcDbEntity
  8
DIM
100
AcDbLine
 10
1035.642675318739
 20
363.7970134907891
 30
0.0
 11
1018.492675318737
 21
363.7970134907891
 31
0.0
  0
TEXT
  5
100
330
2
100
AcDbEntity
  8
LF-LINE
100
AcDbText
 10
999.5980403128097
 20
186.8276628780944
 30
0.0
 40
3.0
  1
%%USECTION D-D
  7
SIMPLEX
100
AcDbText
  0
TEXT
  5
101
330
2
100
AcDbEntity
  8
LF-LINE
100
AcDbText
 10
1056.633160144275
 20
223.4241975725705
 30
0.0
 40
3.0
  1
%%USECTION E-E
  7
SIMPLEX
100
AcDbText
  0
MTEXT
  5
102
330
2
100
AcDbEntity
  8
DIM
100
AcDbMText
 10
888.7401129147562
 20
348.1719715253839
 30
0.0
 40
2.5
 41
0.0
 46
0.0
 71
     5
 72
     1
  1
E
  7
SIMPLEX
 73
     1
 44
1.0
  0
SOLID
  5
103
330
2
100
AcDbEntity
  8
DIM
100
AcDbTrace
 10
890.4312196171646
 20
348.297294387141
 30
0.0
 11
893.4312196171648
 21
348.7972943871411
 31
0.0
 12
893.4312196171648
 22
347.7972943871409
 32
0.0
 13
893.4312196171648
 23
347.7972943871409
 33
0.0
  0
LINE
  5
104
330
2
100
AcDbEntity
  8
DIM
100
AcDbLine
 10
892.8080374203172
 20
348.297294387141
 30
0.0
 11
896.527456122358
 21
348.297294387141
 31
0.0
  0
LINE
  5
105
330
2
100
AcDbEntity
  8
DIM
100
AcDbLine
 10
978.5198643586094
 20
246.5965547963675
 30
0.0
 11
851.7372075908227
 21
246.5965547963675
 31
0.0
  0
LINE
  5
106
330
2
100
AcDbEntity
  8
DIM
100
AcDbLine
 10
851.7372075908227
 20
248.8477783414106
 30
0.0
 11
851.7372075908227
 21
246.5965547963675
 31
0.0
  0
SOLID
  5
107
330
2
100
AcDbEntity
  8
DIM
100
AcDbTrace
 10
851.7372075908227
 20
251.6203734005201
 30
0.0
 11
852.2372075908229
 21
248.6203734005201
 31
0.0
 12
851.2372075908226
 22
248.6203734005201
 32
0.0
 13
851.2372075908226
 23
248.6203734005201
 33
0.0
  0
MTEXT
  5
108
330
2
100
AcDbEntity
  8
DIM
100
AcDbMText
 10
850.9222834423892
 20
252.193264827403
 30
0.0
 40
2.5
 41
0.0
 46
0.0
 71
     5
 72
     1
  1
F
  7
SIMPLEX
 73
     1
 44
1.0
  0
LINE
  5
109
330
2
100
AcDbEntity
  8
CEN
100
AcDbLine
 10
908.0659226531778
 20
161.4553180641327
 30
0.0
 11
908.0659226531778
 21
143.6317838021448
 31
0.0
  0
LINE
  5
10A
330
2
100
AcDbEntity
  8
DIM
100
AcDbLine
 10
871.8409226531765
 20
152.2657303671341
 30
0.0
 11
871.8409226531765
 21
169.1242694118999
 31
0.0
  0
LINE
  5
10B
330
2
100
AcDbEntity
  8
DIM
100
AcDbLine
 10
944.2909226531794
 20
152.2657303671341
 30
0.0
 11
944.2909226531794
 21
169.1242694118999
 31
0.0
  0
LINE
  5
10C
330
2
100
AcDbEntity
  8
DIM
100
AcDbLine
 10
873.7909226531765
 20
168.1242694118999
 30
0.0
 11
942.3409226531793
 21
168.1242694118999
 31
0.0
  0
SOLID
  5
10D
330
2
100
AcDbEntity
  8
DIM
100
AcDbTrace
 10
871.8409226531765
 20
168.1242694118999
 30
0.0
 11
874.8409226531766
 21
167.6242694118999
 31
0.0
 12
874.8409226531766
 22
168.6242694119
 32
0.0
 13
874.8409226531766
 23
168.6242694119
 33
0.0
  0
SOLID
  5
10E
330
2
100
AcDbEntity
  8
DIM
100
AcDbTrace
 10
944.2909226531794
 20
168.1242694118999
 30
0.0
 11
941.2909226531796
 21
167.6242694118999
 31
0.0
 12
941.2909226531796
 22
168.6242694119
 32
0.0
 13
941.2909226531796
 23
168.6242694119
 33
0.0
  0
MTEXT
  5
10F
330
2
100
AcDbEntity
  8
DIM
100
AcDbMText
 10
908.0659226531778
 20
170.2242694118999
 30
0.0
 40
2.5
 41
0.0
 46
0.0
 71
     5
 72
     1
  1
0.2070
  7
SIMPLEX
 73
     1
 44
1.0
  0
MTEXT
  5
110
102
{ACAD_XDICTIONARY
360
111
102
}
330
2
100
AcDbEntity
  8
DIM
100
AcDbMText
 10
919.7347700821273
 20
171.3433180638828
 30
0.0
 40
1.800000000000011
 41
0.0
 46
0.0
 71
     5
 72
     1
  1
%%P0.004
  7
SIMPLEX
 73
     1
 44
1.0
  0
TEXT
  5
112
330
2
100
AcDbEntity
  8
LF-LINE
100
AcDbText
 10
890.3500605554546
 20
136.215974062087
 30
0.0
 40
3.0
  1
%%USECTION F-F
  7
SIMPLEX
100
AcDbText
  0
LINE
  5
113
330
2
100
AcDbEntity
  8
DIM
100
AcDbLine
 10
966.3688889128172
 20
229.7135780617078
 30
0.0
 11
915.9857172206924
 21
229.7135780617078
 31
0.0
  0
LINE
  5
114
330
2
100
AcDbEntity
  8
DIM
100
AcDbLine
 10
915.9857172206924
 20
231.9648016067509
 30
0.0
 11
915.9857172206924
 21
229.7135780617078
 31
0.0
  0
SOLID
  5
115
330
2
100
AcDbEntity
  8
DIM
100
AcDbTrace
 10
915.9857172206924
 20
234.7373966658604
 30
0.0
 11
916.4857172206923
 21
231.7373966658604
 31
0.0
 12
915.4857172206924
 22
231.7373966658604
 32
0.0
 13
915.4857172206924
 23
231.7373966658604
 33
0.0
  0
MTEXT
  5
116
330
2
100
AcDbEntity
  8
DIM
100
AcDbMText
 10
916.1124786336833
 20
236.7687003267548
 30
0.0
 40
2.5
 41
0.0
 46
0.0
 71
     5
 72
     1
  1
G
  7
SIMPLEX
 73
     1
 44
1.0
  0
MTEXT
  5
117
330
2
100
AcDbEntity
  8
DIM
100
AcDbMText
 10
966.4800832260375
 20
236.7178377022275
 30
0.0
 40
2.5
 41
0.0
 46
0.0
 71
     5
 72
     1
  1
G
  7
SIMPLEX
 73
     1
 44
1.0
  0
SOLID
  5
118
330
2
100
AcDbEntity
  8
DIM
100
AcDbTrace
 10
966.3688889128172
 20
234.7373966658604
 30
0.0
 11
966.8688889128173
 21
231.7373966658604
 31
0.0
 12
965.8688889128168
 22
231.7373966658604
 32
0.0
 13
965.8688889128168
 23
231.7373966658604
 33
0.0
  0
LINE
  5
119
330
2
100
AcDbEntity
  8
DIM
100
AcDbLine
 10
966.3688889128172
 20
231.9648016067509
 30
0.0
 11
966.3688889128172
 21
229.7135780617078
 31
0.0
  0
LINE
  5
11A
330
2
100
AcDbEntity
  8
CEN
100
AcDbLine
 10
908.0659226531778
 20
97.90245650146829
 30
0.0
 11
908.0659226531778
 21
85.04656115503328
 31
0.0
  0
LINE
  5
11B
330
2
100
AcDbEntity
  8
DIM
100
AcDbLine
 10
908.0659226531778
 20
98.90245650146828
 30
0.0
 11
908.0659226531778
 21
105.265757582554
 31
0.0
  0
LINE
  5
11C
330
2
100
AcDbEntity
  8
DIM
100
AcDbLine
 10
932.0408769481545
 20
94.25750546468815
 30
0.0
 11
932.0408769481545
 21
105.265757582554
 31
0.0
  0
LINE
  5
11D
330
2
100
AcDbEntity
  8
DIM
100
AcDbLine
 10
911.065922653178
 20
104.265757582554
 30
0.0
 11
931.1410769481545
 21
104.265757582554
 31
0.0
  0
SOLID
  5
11E
330
2
100
AcDbEntity
  8
DIM
100
AcDbTrace
 10
908.0659226531778
 20
104.265757582554
 30
0.0
 11
911.065922653178
 21
103.7657575825539
 31
0.0
 12
911.065922653178
 22
104.7657575825541
 32
0.0
 13
911.065922653178
 23
104.7657575825541
 33
0.0
  0
SOLID
  5
11F
330
2
100
AcDbEntity
  8
DIM
100
AcDbTrace
 10
932.0408769481545
 20
104.265757582554
 30
0.0
 11
929.0408769481546
 21
103.7657575825539
 31
0.0
 12
929.0408769481546
 22
104.7657575825541
 32
0.0
 13
929.0408769481546
 23
104.7657575825541
 33
0.0
  0
MTEXT
  5
120
330
2
100
AcDbEntity
  8
DIM
100
AcDbMText
 10
919.3597897937548
 20
106.365757582554
 30
0.0
 40
2.5
 41
0.0
 46
0.0
 71
     5
 72
     1
  1
0.0685
  7
SIMPLEX
 73
     1
 44
1.0
  0
MTEXT
  5
121
102
{ACAD_XDICTIONARY
360
122
102
}
330
2
100
AcDbEntity
  8
DIM
100
AcDbMText
 10
931.2659545841782
 20
107.5269916135805
 30
0.0
 40
1.799999999999981
 41
0.0
 46
0.0
 71
     5
 72
     1
  1
%%P0.002
  7
SIMPLEX
 73
     1
 44
1.0
  0
MTEXT
  5
123
102
{ACAD_XDICTIONARY
360
124
102
}
330
2
100
AcDbEntity
  8
DIM
100
AcDbMText
 10
954.4914251836027
 20
113.2096734761249
 30
0.0
 40
2.5
 41
0.0
 46
0.0
 71
     5
 72
     1
  1
\A1;50%%d
  7
SIMPLEX
 73
     1
 44
1.0
  0
SOLID
  5
125
330
2
100
AcDbEntity
  8
DIM
100
AcDbTrace
 10
949.6833909389568
 20
114.2830348956203
 30
0.0
 11
947.1959762938466
 21
116.0331115748808
 31
0.0
 12
946.7628387030114
 22
115.1317837613714
 32
0.0
 13
946.7628387030114
 23
115.1317837613714
 33
0.0
  0
LINE
  5
126
330
2
100
AcDbEntity
  8
DIM
100
AcDbLine
 10
947.0742232325321
 20
111.1735499078075
 30
0.0
 11
950.3261785486431
 21
115.0490793387393
 31
0.0
  0
ARC
  5
127
330
2
100
AcDbEntity
  8
DIM
100
AcDbCircle
 10
945.7886480131588
 20
109.6414610215695
 30
0.0
 40
6.059144369160147
100
AcDbArc
 50
78.66631005340429
 51
109.3552496736113
  0
ARC
  5
128
330
2
100
AcDbEntity
  8
DIM
100
AcDbCircle
 10
945.7886480131588
 20
109.6414610215696
 30
0.0
 40
6.059144369160104
100
AcDbArc
 50
331.3336899465957
 51
78.66631005340467
  0
SOLID
  5
129
330
2
100
AcDbEntity
  8
DIM
100
AcDbTrace
 10
951.8477923823187
 20
109.6414610215696
 30
0.0
 11
950.6206769438232
 21
106.8586229557445
 31
0.0
 12
951.5895495834687
 22
106.6110632495202
 32
0.0
 13
951.5895495834687
 23
106.6110632495202
 33
0.0
  0
ARC
  5
12A
330
2
100
AcDbEntity
  8
DIM
100
AcDbCircle
 10
945.7886480131588
 20
109.6414610215696
 30
0.0
 40
6.059144369160113
100
AcDbArc
 50
300.6447503263887
 51
331.3336899465959
  0
LINE
  5
12B
330
2
100
AcDbEntity
  8
DIM
100
AcDbLine
 10
903.5659226531764
 20
89.05750546468814
 30
0.0
 11
893.453091172021
 21
89.05750546468814
 31
0.0
  0
LINE
  5
12C
330
2
100
AcDbEntity
  8
DIM
100
AcDbLine
 10
903.5659226531761
 20
93.25750546468809
 30
0.0
 11
893.453091172021
 21
93.25750546468809
 31
0.0
  0
SOLID
  5
12D
330
2
100
AcDbEntity
  8
DIM
100
AcDbTrace
 10
894.453091172021
 20
89.05750546468814
 30
0.0
 11
894.9530911720213
 21
86.0575054646881
 31
0.0
 12
893.9530911720209
 22
86.0575054646881
 32
0.0
 13
893.9530911720209
 23
86.0575054646881
 33
0.0
  0
SOLID
  5
12E
330
2
100
AcDbEntity
  8
DIM
100
AcDbTrace
 10
894.453091172021
 20
93.25750546468809
 30
0.0
 11
894.9530911720213
 21
96.25750546468813
 31
0.0
 12
893.9530911720209
 22
96.25750546468813
 32
0.0
 13
893.9530911720209
 23
96.25750546468813
 33
0.0
  0
MTEXT
  5
12F
330
2
100
AcDbEntity
  8
DIM
100
AcDbMText
 10
892.3530911720208
 20
79.81484067095303
 30
0.0
 40
2.5
 41
0.0
 46
0.0
 71
     5
 72
     1
  1
0.0120
  7
SIMPLEX
 11
0.0
 21
1.0
 31
0.0
 73
     1
 44
1.0
  0
LINE
  5
130
330
2
100
AcDbEntity
  8
DIM
100
AcDbLine
 10
894.453091172021
 20
89.05750546468814
 30
0.0
 11
894.453091172021
 21
93.25750546468809
 31
0.0
  0
MTEXT
  5
131
102
{ACAD_XDICTIONARY
360
132
102
}
330
2
100
AcDbEntity
  8
DIM
100
AcDbMText
 10
891.6526079975126
 20
92.28344117720324
 30
0.0
 40
1.799999999999981
 41
0.0
 46
0.0
 71
     5
 72
     1
  1
%%P0.0003
  7
SIMPLEX
 11
0.0
 21
1.0
 31
0.0
 73
     1
 44
1.0
  0
LINE
  5
133
330
2
100
AcDbEntity
  8
DIM
100
AcDbLine
 10
894.453091172021
 20
86.0575054646881
 30
0.0
 11
894.453091172021
 21
73.98258917017077
 31
0.0
  0
LINE
  5
134
330
2
100
AcDbEntity
  8
DIM
100
AcDbLine
 10
894.453091172021
 20
96.25750546468813
 30
0.0
 11
894.453091172021
 21
99.25750546468806
 31
0.0
  0
LINE
  5
135
330
2
100
AcDbEntity
  8
DIM
100
AcDbLine
 10
933.0408769481547
 20
89.05750546468814
 30
0.0
 11
971.0550458031107
 21
89.05750546468814
 31
0.0
  0
LINE
  5
136
330
2
100
AcDbEntity
  8
DIM
100
AcDbLine
 10
962.8252750047051
 20
106.2075054646886
 30
0.0
 11
971.0550458031107
 21
106.2075054646886
 31
0.0
  0
MTEXT
  5
137
330
2
100
AcDbEntity
  8
DIM
100
AcDbMText
 10
967.9550458031108
 20
70.43635089333112
 30
0.0
 40
2.5
 41
0.0
 46
0.0
 71
     5
 72
     1
  1
0.0490
  7
SIMPLEX
 11
0.0
 21
1.0
 31
0.0
 73
     1
 44
1.0
  0
MTEXT
  5
138
102
{ACAD_XDICTIONARY
360
139
102
}
330
2
100
AcDbEntity
  8
DIM
100
AcDbMText
 10
967.2163322459992
 20
82.15145858906382
 30
0.0
 40
1.800000000000011
 41
0.0
 46
0.0
 71
     5
 72
     1
  1
%%P0.001
  7
SIMPLEX
 11
0.0
 21
1.0
 31
0.0
 73
     1
 44
1.0
  0
TEXT
  5
13A
330
2
100
AcDbEntity
  8
LF-LINE
100
AcDbText
 10
906.5014941241527
 20
76.98699677919027
 30
0.0
 40
3.0
  1
%%USECTION G-G
  7
SIMPLEX
100
AcDbText
  0
LINE
  5
13B
330
2
100
AcDbEntity
  8
DIM
100
AcDbLine
 10
870.8409226531765
 20
147.0657303671343
 30
0.0
 11
842.0680026211032
 21
147.0657303671343
 31
0.0
  0
LINE
  5
13C
330
2
100
AcDbEntity
  8
DIM
100
AcDbLine
 10
843.0680026211032
 20
144.0657303671343
 30
0.0
 11
843.0680026211032
 21
141.0657303671342
 31
0.0
  0
SOLID
  5
13D
330
2
100
AcDbEntity
  8
DIM
100
AcDbTrace
 10
843.0680026211032
 20
147.0657303671343
 30
0.0
 11
842.5680026211029
 21
144.0657303671343
 31
0.0
 12
843.5680026211032
 22
144.0657303671343
 32
0.0
 13
843.5680026211032
 23
144.0657303671343
 33
0.0
  0
LINE
  5
13E
330
2
100
AcDbEntity
  8
DIM
100
AcDbLine
 10
843.0680026211032
 20
159.8657303671339
 30
0.0
 11
843.0680026211032
 21
172.9687114144041
 31
0.0
  0
SOLID
  5
13F
330
2
100
AcDbEntity
  8
DIM
100
AcDbTrace
 10
843.0680026211032
 20
156.8657303671339
 30
0.0
 11
842.5680026211029
 21
159.8657303671339
 31
0.0
 12
843.5680026211032
 22
159.8657303671339
 32
0.0
 13
843.5680026211032
 23
159.8657303671339
 33
0.0
  0
LINE
  5
140
330
2
100
AcDbEntity
  8
DIM
100
AcDbLine
 10
843.0680026211032
 20
147.0657303671343
 30
0.0
 11
843.0680026211032
 21
156.8657303671339
 31
0.0
  0
MTEXT
  5
141
330
2
100
AcDbEntity
  8
DIM
100
AcDbMText
 10
840.9680026211031
 20
166.7719519674743
 30
0.0
 40
2.5
 41
0.0
 46
0.0
 71
     5
 72
     1
  1
0.0280
  7
SIMPLEX
 11
0.0
 21
1.0
 31
0.0
 73
     1
 44
1.0
  0
MTEXT
  5
142
102
{ACAD_XDICTIONARY
360
143
102
}
330
2
100
AcDbEntity
  8
DIM
100
AcDbMText
 10
839.8334765796969
 20
178.4764238520285
 30
0.0
 40
1.800000000000011
 41
0.0
 46
0.0
 71
     5
 72
     1
  1
%%P0.001
  7
SIMPLEX
 11
0.0
 21
1.0
 31
0.0
 73
     1
 44
1.0
  0
SOLID
  5
144
330
2
100
AcDbEntity
  8
DIM
100
AcDbTrace
 10
970.0550458031107
 20
106.2075054646886
 30
0.0
 11
970.555045803111
 21
109.2075054646886
 31
0.0
 12
969.5550458031108
 22
109.2075054646886
 32
0.0
 13
969.5550458031108
 23
109.2075054646886
 33
0.0
  0
SOLID
  5
145
330
2
100
AcDbEntity
  8
DIM
100
AcDbTrace
 10
970.0550458031107
 20
89.05750546468814
 30
0.0
 11
970.555045803111
 21
86.0575054646881
 31
0.0
 12
969.5550458031108
 22
86.0575054646881
 32
0.0
 13
969.5550458031108
 23
86.0575054646881
 33
0.0
  0
LINE
  5
146
330
2
100
AcDbEntity
  8
DIM
100
AcDbLine
 10
970.0550458031107
 20
86.0575054646881
 30
0.0
 11
970.0550458031107
 21
64.31710457709259
 31
0.0
  0
LINE
  5
147
330
2
100
AcDbEntity
  8
DIM
100
AcDbLine
 10
970.0550458031107
 20
89.05750546468814
 30
0.0
 11
970.0550458031107
 21
106.2075054646886
 31
0.0
  0
MTEXT
  5
148
330
2
100
AcDbEntity
  8
DIM
100
AcDbMText
 10
888.7439322100664
 20
291.3768017540675
 30
0.0
 40
2.5
 41
0.0
 46
0.0
 71
     5
 72
     1
  1
E
  7
SIMPLEX
 73
     1
 44
1.0
  0
SOLID
  5
149
330
2
100
AcDbEntity
  8
DIM
100
AcDbTrace
 10
890.4312196171646
 20
291.2658198203756
 30
0.0
 11
893.4312196171648
 21
291.7658198203757
 31
0.0
 12
893.4312196171648
 22
290.7658198203754
 32
0.0
 13
893.4312196171648
 23
290.7658198203754
 33
0.0
  0
LINE
  5
14A
330
2
100
AcDbEntity
  8
DIM
100
AcDbLine
 10
892.8080374203172
 20
291.2658198203756
 30
0.0
 11
896.527456122358
 21
291.2658198203756
 31
0.0
  0
LINE
  5
14B
330
2
100
AcDbEntity
  8
CEN
100
AcDbLine
 10
894.3979002040002
 20
282.0868620156986
 30
0.0
 11
921.7339451023558
 21
282.0868620156986
 31
0.0
  0
LINE
  5
14C
330
2
100
AcDbEntity
  8
DIM
100
AcDbLine
 10
896.527456122358
 20
291.2658198203756
 30
0.0
 11
896.527456122358
 21
348.297294387141
 31
0.0
  0
LINE
  5
14D
330
2
100
AcDbEntity
  8
DIM
100
AcDbLine
 10
978.5198643586094
 20
248.8477783414106
 30
0.0
 11
978.5198643586094
 21
246.5965547963675
 31
0.0
  0
SOLID
  5
14E
330
2
100
AcDbEntity
  8
DIM
100
AcDbTrace
 10
978.5198643586094
 20
251.6203734005201
 30
0.0
 11
979.0198643586093
 21
248.6203734005201
 31
0.0
 12
978.0198643586093
 22
248.6203734005201
 32
0.0
 13
978.0198643586093
 23
248.6203734005201
 33
0.0
  0
MTEXT
  5
14F
330
2
100
AcDbEntity
  8
DIM
100
AcDbMText
 10
977.7049402101759
 20
252.193264827403
 30
0.0
 40
2.5
 41
0.0
 46
0.0
 71
     5
 72
     1
  1
F
  7
SIMPLEX
 73
     1
 44
1.0
  0
LINE
  5
150
330
2
100
AcDbEntity
  8
0
100
AcDbLine
 10
965.6814810031692
 20
241.8368620155959
 30
0.0
 11
965.6814810031493
 21
248.8368620156095
 31
0.0
  0
LINE
  5
151
330
2
100
AcDbEntity
  8
0
100
AcDbLine
 10
965.6814810031493
 20
266.3368620157527
 30
0.0
 11
965.6814810031294
 21
273.3368620157663
 31
0.0
  0
LINE
  5
152
330
2
100
AcDbEntity
  8
0
100
AcDbLine
 10
965.6814810031493
 20
297.8368620156445
 30
0.0
 11
965.6814810031294
 21
290.836862015631
 31
0.0
  0
LINE
  5
153
330
2
100
AcDbEntity
  8
0
100
AcDbLine
 10
965.6814810031493
 20
322.3368620156819
 30
0.0
 11
965.6814810031294
 21
315.3368620156684
 31
0.0
  0
LINE
  5
154
330
2
100
AcDbEntity
  8
DIM
100
AcDbLine
 10
862.6177465032199
 20
156.8657300863804
 30
0.0
 11
842.0680026211034
 21
156.8657300863802
 31
0.0
  0
MTEXT
  5
155
330
2
100
AcDbEntity
  8
DIM
100
AcDbMText
 10
943.3563300859033
 20
182.0148125209762
 30
0.0
 40
2.5
 41
0.0
 46
0.0
 71
     7
 72
     1
  1
BURR SIDE
  7
SIMPLEX
 73
     1
 44
1.0
  0
LINE
  5
156
330
2
100
AcDbEntity
  8
DIM
100
AcDbLine
 10
986.1697286581579
 20
168.4157299801639
 30
0.0
 11
992.9860360380603
 21
168.4157299801639
 31
0.0
  0
LINE
  5
157
330
2
100
AcDbEntity
  8
DIM
100
AcDbLine
 10
986.3661696958402
 20
164.215729980164
 30
0.0
 11
992.9860360380603
 21
164.215729980164
 31
0.0
  0
LINE
  5
158
330
2
100
AcDbEntity
  8
DIM
100
AcDbLine
 10
991.9860360380603
 20
171.4157299801639
 30
0.0
 11
991.9860360380603
 21
174.4157299801639
 31
0.0
  0
SOLID
  5
159
330
2
100
AcDbEntity
  8
DIM
100
AcDbTrace
 10
991.9860360380603
 20
168.4157299801639
 30
0.0
 11
991.4860360380602
 21
171.4157299801639
 31
0.0
 12
992.4860360380606
 22
171.4157299801639
 32
0.0
 13
992.4860360380606
 23
171.4157299801639
 33
0.0
  0
LINE
  5
15A
330
2
100
AcDbEntity
  8
DIM
100
AcDbLine
 10
991.9860360380603
 20
161.215729980164
 30
0.0
 11
991.9860360380603
 21
138.5153284725749
 31
0.0
  0
SOLID
  5
15B
330
2
100
AcDbEntity
  8
DIM
100
AcDbTrace
 10
991.9860360380603
 20
164.215729980164
 30
0.0
 11
991.4860360380602
 21
161.215729980164
 31
0.0
 12
992.4860360380606
 22
161.215729980164
 32
0.0
 13
992.4860360380606
 23
161.215729980164
 33
0.0
  0
MTEXT
  5
15C
330
2
100
AcDbEntity
  8
DIM
100
AcDbMText
 10
989.8860360380606
 20
144.1283249771535
 30
0.0
 40
2.5
 41
0.0
 46
0.0
 71
     5
 72
     1
  1
0.0120
  7
SIMPLEX
 11
0.0
 21
1.0
 31
0.0
 73
     1
 44
1.0
  0
MTEXT
  5
15D
102
{ACAD_XDICTIONARY
360
15E
102
}
330
2
100
AcDbEntity
  8
DIM
100
AcDbMText
 10
989.110684850856
 20
156.6435094273238
 30
0.0
 40
1.800000000000011
 41
0.0
 46
0.0
 71
     5
 72
     1
  1
%%P0.0003
  7
SIMPLEX
 11
0.0
 21
1.0
 31
0.0
 73
     1
 44
1.0
  0
LINE
  5
15F
330
2
100
AcDbEntity
  8
DIM
100
AcDbLine
 10
991.9860360380603
 20
164.215729980164
 30
0.0
 11
991.9860360380603
 21
168.4157299801639
 31
0.0
  0
LINE
  5
160
330
2
100
AcDbEntity
  8
DIM
100
AcDbLine
 10
968.0270942964037
 20
183.2630182044926
 30
0.0
 11
964.2039570110798
 21
183.2630182044926
 31
0.0
  0
LINE
  5
161
330
2
100
AcDbEntity
  8
DIM
100
AcDbLine
 10
974.0499864638636
 20
171.1039999067231
 30
0.0
 11
968.0270942964037
 21
183.2630182044926
 31
0.0
  0
SOLID
  5
162
330
2
100
AcDbEntity
  8
DIM
100
AcDbTrace
 10
975.3816038270567
 20
168.4157299801639
 30
0.0
 11
973.6019414761038
 21
170.8820636795243
 31
0.0
 12
974.4980314516237
 22
171.325936133922
 32
0.0
 13
974.4980314516237
 23
171.325936133922
 33
0.0
  0
LINE
  5
163
330
2
100
AcDbEntity
  8
DIM
100
AcDbLine
 10
945.2909226531794
 20
147.0657303671343
 30
0.0
 11
981.3787110690194
 21
147.0657303671343
 31
0.0
  0
MTEXT
  5
164
330
2
100
AcDbEntity
  8
DIM
100
AcDbMText
 10
978.2787110690193
 20
177.3025204394297
 30
0.0
 40
2.5
 41
0.0
 46
0.0
 71
     5
 72
     1
  1
0.0490
  7
SIMPLEX
 11
0.0
 21
1.0
 31
0.0
 73
     1
 44
1.0
  0
LINE
  5
165
330
2
100
AcDbEntity
  8
DIM
100
AcDbLine
 10
980.3787110690192
 20
167.2157299801639
 30
0.0
 11
980.3787110690192
 21
183.4312916422033
 31
0.0
  0
SOLID
  5
166
330
2
100
AcDbEntity
  8
DIM
100
AcDbTrace
 10
980.3787110690192
 20
164.2157299801639
 30
0.0
 11
979.8787110690193
 21
167.2157299801639
 31
0.0
 12
980.8787110690193
 22
167.2157299801639
 32
0.0
 13
980.8787110690193
 23
167.2157299801639
 33
0.0
  0
SOLID
  5
167
330
2
100
AcDbEntity
  8
DIM
100
AcDbTrace
 10
980.3787110690192
 20
147.0657303671343
 30
0.0
 11
979.8787110690193
 21
144.0657303671343
 31
0.0
 12
980.8787110690193
 22
144.0657303671343
 32
0.0
 13
980.8787110690193
 23
144.0657303671343
 33
0.0
  0
LINE
  5
168
330
2
100
AcDbEntity
  8
DIM
100
AcDbLine
 10
980.3787110690192
 20
144.0657303671343
 30
0.0
 11
980.3787110690192
 21
141.0657303671342
 31
0.0
  0
LINE
  5
169
330
2
100
AcDbEntity
  8
DIM
100
AcDbLine
 10
980.3787110690192
 20
147.0657303671343
 30
0.0
 11
980.3787110690192
 21
164.2157299801639
 31
0.0
  0
MTEXT
  5
16A
102
{ACAD_XDICTIONARY
360
16B
102
}
330
2
100
AcDbEntity
  8
DIM
100
AcDbMText
 10
977.2616414282753
 20
188.6166092603118
 30
0.0
 40
1.800000000000011
 41
0.0
 46
0.0
 71
     5
 72
     1
  1
%%P0.001
  7
SIMPLEX
 11
0.0
 21
1.0
 31
0.0
 73
     1
 44
1.0
  0
LINE
  5
16C
330
2
100
AcDbEntity
  8
DIM
100
AcDbLine
 10
970.0550458031107
 20
109.2075054646886
 30
0.0
 11
970.0550458031107
 21
112.2075054646886
 31
0.0
  0
LINE
  5
16D
330
2
100
AcDbEntity
  8
DIM
100
AcDbLine
 10
960.1426782221773
 20
113.0957753912477
 30
0.0
 11
966.1655703896373
 21
125.2547936890172
 31
0.0
  0
SOLID
  5
16E
330
2
100
AcDbEntity
  8
DIM
100
AcDbTrace
 10
958.8110608589841
 20
110.4075054646886
 30
0.0
 11
960.5907232099372
 21
112.8738391640489
 31
0.0
 12
959.6946332344172
 22
113.3177116184466
 32
0.0
 13
959.6946332344172
 23
113.3177116184466
 33
0.0
  0
MTEXT
  5
16F
330
2
100
AcDbEntity
  8
DIM
100
AcDbMText
 10
990.8363346001372
 20
124.0065880055008
 30
0.0
 40
2.5
 41
0.0
 46
0.0
 71
     9
 72
     1
  1
BURR SIDE
  7
SIMPLEX
 73
     1
 44
1.0
  0
LINE
  5
170
330
2
100
AcDbEntity
  8
DIM
100
AcDbLine
 10
966.1655703896373
 20
125.2547936890172
 30
0.0
 11
969.9887076749613
 21
125.2547936890172
 31
0.0
  0
LWPOLYLINE
  5
171
330
2
100
AcDbEntity
  8
COIN-LINE
100
AcDbPolyline
 90
       14
 70
     1
 43
0.0
 10
1014.292675318737
 20
223.2462711976021
 10
1031.442675318739
 20
237.6368298723003
 10
1031.442675318739
 20
326.5368297138219
 10
1014.292675318737
 20
340.9273883885101
 10
1014.292675318737
 20
358.4292120822178
 42
-0.3228745711498905
 10
1016.767652675041
 20
358.2830367780895
 42
0.2632493994598501
 10
1018.492675318737
 20
358.4292120822178
 10
1018.492675318737
 20
340.9273883885101
 10
1035.642675318739
 20
326.5368297138219
 10
1035.642675318739
 20
237.6368298723003
 10
1018.492675318737
 20
223.2462711976021
 10
1018.492675318737
 20
205.7444475038943
 42
0.2632493994598545
 10
1016.767652675041
 20
205.8906228080326
 42
-0.3228745711498904
 10
1014.292675318737
 20
205.7444475038943
  0
MTEXT
  5
172
102
{ACAD_XDICTIONARY
360
173
102
}
330
2
100
AcDbEntity
  8
DIM
100
AcDbMText
 10
1061.099481928399
 20
343.3448109530727
 30
0.0
 40
2.5
 41
0.0
 46
0.0
 71
     5
 72
     1
  1
\A1;50%%d
  7
SIMPLEX
 73
     1
 44
1.0
  0
SOLID
  5
174
330
2
100
AcDbEntity
  8
DIM
100
AcDbTrace
 10
1060.560996494313
 20
339.135253962814
 30
0.0
 11
1059.630921440201
 21
336.2395743545497
 31
0.0
 12
1058.74205643504
 22
336.6977435401141
 32
0.0
 13
1058.74205643504
 23
336.6977435401141
 33
0.0
  0
LINE
  5
175
330
2
100
AcDbEntity
  8
DIM
100
AcDbLine
 10
1065.009131195715
 20
335.4028257754421
 30
0.0
 11
1059.794952051194
 21
339.7780415725005
 31
0.0
  0
ARC
  5
176
330
2
100
AcDbEntity
  8
DIM
100
AcDbCircle
 10
1065.775175638834
 20
334.7600381657557
 30
0.0
 40
6.806627463140849
100
AcDbArc
 50
165.4619372963994
 51
192.3030928787012
  0
ARC
  5
177
330
2
100
AcDbEntity
  8
DIM
100
AcDbCircle
 10
1065.775175638834
 20
334.7600381657557
 30
0.0
 40
6.806627463140856
100
AcDbArc
 50
64.53806270360892
 51
165.4619372963994
  0
SOLID
  5
178
330
2
100
AcDbEntity
  8
DIM
100
AcDbTrace
 10
1065.775175638834
 20
341.5666656288967
 30
0.0
 11
1068.811609086051
 21
341.3932530554766
 31
0.0
 12
1068.59123563266
 22
340.4178374819691
 32
0.0
 13
1068.59123563266
 23
340.4178374819691
 33
0.0
  0
ARC
  5
179
330
2
100
AcDbEntity
  8
DIM
100
AcDbCircle
 10
1065.775175638834
 20
334.7600381657557
 30
0.0
 40
6.806627463140846
100
AcDbArc
 50
37.69690712130649
 51
64.53806270360892
  0
LINE
  5
17A
330
2
100
AcDbEntity
  8
DIM
100
AcDbLine
 10
1069.975175452631
 20
335.7600383219986
 30
0.0
 11
1069.975175452631
 21
357.7367615036735
 31
0.0
  0
MTEXT
  5
17B
330
2
100
AcDbEntity
  8
DIM
100
AcDbMText
 10
986.9165275983228
 20
217.983438312927
 30
0.0
 40
2.5
 41
0.0
 46
0.0
 71
     7
 72
     1
  1
BURR SIDE
  7
SIMPLEX
 73
     1
 44
1.0
  0
LINE
  5
17C
330
2
100
AcDbEntity
  8
DIM
100
AcDbLine
 10
1010.032707716846
 20
219.2316439964434
 30
0.0
 11
1007.764154523499
 21
219.2316439964434
 31
0.0
  0
LINE
  5
17D
330
2
100
AcDbEntity
  8
DIM
100
AcDbLine
 10
1012.961057955544
 20
213.3198887890422
 30
0.0
 11
1010.032707716846
 21
219.2316439964434
 31
0.0
  0
SOLID
  5
17E
330
2
100
AcDbEntity
  8
DIM
100
AcDbTrace
 10
1014.292675318737
 20
210.631618862483
 30
0.0
 11
1012.513012967784
 21
213.0979525618434
 31
0.0
 12
1013.409102943304
 22
213.5418250162411
 32
0.0
 13
1013.409102943304
 23
213.5418250162411
 33
0.0
  0
MTEXT
  5
17F
330
2
100
AcDbEntity
  8
DIM
100
AcDbMText
 10
1048.199027732219
 20
260.8837080348954
 30
0.0
 40
2.5
 41
0.0
 46
0.0
 71
     7
 72
     1
  1
BURR SIDE
  7
SIMPLEX
 73
     1
 44
1.0
  0
LINE
  5
180
330
2
100
AcDbEntity
  8
DIM
100
AcDbLine
 10
1071.315207850743
 20
262.1319137184118
 30
0.0
 11
1069.046654657395
 21
262.1319137184118
 31
0.0
  0
LINE
  5
181
330
2
100
AcDbEntity
  8
DIM
100
AcDbLine
 10
1074.24355808944
 20
256.2201585110106
 30
0.0
 11
1071.315207850743
 21
262.1319137184118
 31
0.0
  0
SOLID
  5
182
330
2
100
AcDbEntity
  8
DIM
100
AcDbTrace
 10
1075.575175452633
 20
253.5318885844514
 30
0.0
 11
1073.79551310168
 21
255.9982222838118
 31
0.0
 12
1074.6916030772
 22
256.4420947382095
 32
0.0
 13
1074.6916030772
 23
256.4420947382095
 33
0.0
  0
LINE
  5
183
330
2
100
AcDbEntity
  8
0
100
AcDbLine
 10
890.2159226531923
 20
338.4015048356678
 30
0.0
 11
890.2159226531923
 21
344.7368620157292
 31
0.0
  0
POINT
  5
184
330
2
100
AcDbEntity
  8
0
100
AcDbPoint
 10
958.6814810031258
 20
315.3368620156684
 30
0.0
  0
POINT
  5
185
330
2
100
AcDbEntity
  8
0
100
AcDbPoint
 10
965.6814810031294
 20
315.3368620156684
 30
0.0
  0
LINE
  5
186
330
2
100
AcDbEntity
  8
DIM
370
    -2
100
AcDbLine
 10
958.6814810031258
 20
314.3368620156684
 30
0.0
 11
958.6814810031258
 21
307.9329185364702
 31
0.0
  0
LINE
  5
187
330
2
100
AcDbEntity
  8
DIM
370
    -2
100
AcDbLine
 10
965.6814810031294
 20
314.3368620156684
 30
0.0
 11
965.6814810031294
 21
307.9329185364702
 31
0.0
  0
LINE
  5
188
330
2
100
AcDbEntity
  8
DIM
370
    -2
100
AcDbLine
 10
955.6814810031255
 20
308.9329185364702
 30
0.0
 11
952.6814810031256
 21
308.9329185364702
 31
0.0
  0
SOLID
  5
189
330
2
100
AcDbEntity
  8
DIM
100
AcDbTrace
 10
958.6814810031258
 20
308.9329185364702
 30
0.0
 11
955.6814810031255
 21
308.4329185364701
 31
0.0
 12
955.6814810031255
 22
309.4329185364703
 32
0.0
 13
955.6814810031255
 23
309.4329185364703
 33
0.0
  0
LINE
  5
18A
330
2
100
AcDbEntity
  8
DIM
370
    -2
100
AcDbLine
 10
968.6814810031293
 20
308.9329185364702
 30
0.0
 11
988.2641632487635
 21
308.9329185364702
 31
0.0
  0
SOLID
  5
18B
330
2
100
AcDbEntity
  8
DIM
100
AcDbTrace
 10
965.6814810031294
 20
308.9329185364702
 30
0.0
 11
968.6814810031293
 21
308.4329185364701
 31
0.0
 12
968.6814810031293
 22
309.4329185364703
 32
0.0
 13
968.6814810031293
 23
309.4329185364703
 33
0.0
  0
MTEXT
  5
18C
330
2
100
AcDbEntity
  8
DIM
100
AcDbMText
 10
981.7940269229724
 20
311.0329185364701
 30
0.0
 40
2.5
 41
0.0
 46
0.0
 71
     5
 72
     1
  1
0.0200
  7
SIMPLEX
 73
     1
 44
1.0
  0
LINE
  5
18D
330
2
100
AcDbEntity
  8
DIM
100
AcDbLine
 10
958.6814810031258
 20
308.9329185364702
 30
0.0
 11
965.6814810031294
 21
308.9329185364702
 31
0.0
  0
MTEXT
  5
18E
330
2
100
AcDbEntity
  8
DIM
100
AcDbMText
 10
982.196156540831
 20
307.0718516777475
 30
0.0
 40
1.800000000000011
 41
0.0
 46
0.0
 71
     5
 72
     1
  1
TYP.
  7
SIMPLEX
 73
     1
 44
1.0
  0
LINE
  5
18F
330
2
100
AcDbEntity
  8
DIM
100
AcDbLine
 10
862.6177465032199
 20
161.0657300863802
 30
0.0
 11
855.6302215195605
 21
161.0657300863802
 31
0.0
  0
MTEXT
  5
190
102
{ACAD_XDICTIONARY
360
191
102
}
330
2
100
AcDbEntity
  8
DIM
100
AcDbMText
 10
848.6213569704151
 20
162.4150530994666
 30
0.0
 40
2.5
 41
0.0
 46
0.0
 71
     5
 72
     1
  1
\A1;2%%d
  7
SIMPLEX
 73
     1
 44
1.0
  0
POINT
  5
192
330
2
100
AcDbEntity
  8
DIM
100
AcDbPoint
 10
854.0275556243404
 20
160.2266971034286
 30
0.0
  0
SOLID
  5
193
330
2
100
AcDbEntity
  8
DIM
100
AcDbTrace
 10
856.6568111617147
 20
160.4567271564616
 30
0.0
 11
857.7185986039387
 21
158.1553756972866
 31
0.0
 12
856.914820431113
 22
157.9354095786829
 32
0.0
 13
856.914820431113
 23
157.9354095786829
 33
0.0
  0
SOLID
  5
194
330
2
100
AcDbEntity
  8
DIM
100
AcDbTrace
 10
856.6302215195605
 20
161.0657300863802
 30
0.0
 11
856.6675016795995
 21
163.599940279079
 31
0.0
 12
857.4873925442567
 22
163.4508650816232
 32
0.0
 13
857.4873925442567
 23
163.4508650816232
 33
0.0
  0
ARC
  5
195
330
2
100
AcDbEntity
  8
DIM
370
    -2
100
AcDbCircle
 10
863.6177465032199
 20
161.0657300863802
 30
0.0
 40
6.987524983659347
100
AcDbArc
 50
205.6102518489708
 51
226.9278994882921
  0
ARC
  5
196
330
2
100
AcDbEntity
  8
DIM
370
    -2
100
AcDbCircle
 10
863.6177465032199
 20
161.0657300863802
 30
0.0
 40
6.987524983659347
100
AcDbArc
 50
138.0721005117078
 51
159.3897481510286
  0
ARC
  5
197
330
2
100
AcDbEntity
  8
DIM
370
    -2
100
AcDbCircle
 10
863.6177465032199
 20
161.0657300863802
 30
0.0
 40
6.987524983659347
100
AcDbArc
 50
159.3897481510286
 51
205.6102518489708
  0
MTEXT
  5
198
102
{ACAD_XDICTIONARY
360
199
102
}
330
2
100
AcDbEntity
  8
DIM
100
AcDbMText
 10
853.0379504487417
 20
163.1017987744337
 30
0.0
 40
1.800000000000011
 41
0.0
 46
0.0
 71
     5
 72
     1
  1
%%p2%%D
  7
SIMPLEX
 73
     1
 44
1.0
  0
MTEXT
  5
19A
102
{ACAD_XDICTIONARY
360
19B
102
}
330
2
100
AcDbEntity
  8
DIM
100
AcDbMText
 10
967.5299240834712
 20
172.0770566473579
 30
0.0
 40
2.5
 41
0.0
 46
0.0
 71
     5
 72
     1
  1
\A1;50%%d
  7
SIMPLEX
 73
     1
 44
1.0
  0
POINT
  5
19C
330
2
100
AcDbEntity
  8
DIM
100
AcDbPoint
 10
985.1697286581579
 20
168.4157299801639
 30
0.0
  0
POINT
  5
19D
330
2
100
AcDbEntity
  8
DIM
100
AcDbPoint
 10
944.2909226531794
 20
151.2657303671342
 30
0.0
  0
POINT
  5
19E
330
2
100
AcDbEntity
  8
DIM
100
AcDbPoint
 10
958.6814810031633
 20
168.4157299801639
 30
0.0
  0
POINT
  5
19F
330
2
100
AcDbEntity
  8
DIM
100
AcDbPoint
 10
958.6814810031633
 20
168.4157299801639
 30
0.0
  0
SOLID
  5
1A0
330
2
100
AcDbEntity
  8
DIM
100
AcDbTrace
 10
964.11434391421
 20
168.4157299801639
 30
0.0
 11
963.944628829317
 21
165.8869342388928
 31
0.0
 12
963.1336526475472
 22
166.0786686308188
 32
0.0
 13
963.1336526475472
 23
166.0786686308188
 33
0.0
  0
SOLID
  5
1A1
330
2
100
AcDbEntity
  8
DIM
100
AcDbTrace
 10
962.1736579675095
 20
172.5775444233986
 30
0.0
 11
959.7529889124771
 21
173.3285254065926
 31
0.0
 12
960.1273972883797
 22
174.0730136956199
 32
0.0
 13
960.1273972883797
 23
174.0730136956199
 33
0.0
  0
LINE
  5
1A2
330
2
100
AcDbEntity
  8
DIM
370
    -2
100
AcDbLine
 10
959.3242686128496
 20
169.1817744232829
 30
0.0
 11
962.816445577196
 21
173.3435888665175
 31
0.0
  0
ARC
  5
1A3
330
2
100
AcDbEntity
  8
DIM
370
    -2
100
AcDbCircle
 10
958.6814810031633
 20
168.4157299801639
 30
0.0
 40
5.432862911046908
100
AcDbArc
 50
76.60371303125358
 51
104.7951928968472
  0
ARC
  5
1A4
330
2
100
AcDbEntity
  8
DIM
370
    -2
100
AcDbCircle
 10
958.6814810031633
 20
168.4157299801639
 30
0.0
 40
5.432862911046908
100
AcDbArc
 50
305.2048071031526
 51
333.3962869687465
  0
ARC
  5
1A5
330
2
100
AcDbEntity
  8
DIM
370
    -2
100
AcDbCircle
 10
958.6814810031633
 20
168.4157299801639
 30
0.0
 40
5.432862911046908
100
AcDbArc
 50
333.3962869687465
 51
76.60371303125358
  0
LWPOLYLINE
  5
1A6
330
2
100
AcDbEntity
  8
COIN-LINE
100
AcDbPolyline
 90
       14
 70
     0
 43
0.0
 10
863.6302877694307
 20
156.8507839873178
 10
854.3936097438807
 20
156.0426793714432
 10
854.0275556243404
 20
160.2266971034286
 10
863.6177465032199
 20
161.0657300863802
 10
871.8409226531765
 20
151.2657303671342
 10
944.2909226531794
 20
151.2657303671342
 10
958.6814810031633
 20
168.4157299801639
 10
985.1697286581579
 20
168.4157299801639
 42
0.481241222968531
 10
985.2345228678592
 20
166.2101418341458
 42
-0.1645608013487652
 10
985.3661696958402
 20
164.215729980164
 10
958.6814810031633
 20
164.2157299801639
 10
944.2909226531794
 20
147.0657303671343
 10
871.8409226531765
 20
147.0657303671343
 10
863.6177465032199
 20
156.8657300863802
  0
LINE
  5
1A7
330
2
100
AcDbEntity
  8
DIM
100
AcDbLine
 10
1065.775175638834
 20
335.7600381657557
 30
0.0
 11
1065.775175638834
 21
342.5666656288965
 31
0.0
  0
LWPOLYLINE
  5
1A8
330
2
100
AcDbEntity
  8
COIN-LINE
100
AcDbPolyline
 90
        9
 70
     1
 43
0.0
 10
1066.644713131741
 20
344.6988971888945
 10
1070.812809214712
 20
344.3342360331477
 10
1069.975175452631
 20
334.7600383219987
 10
1079.775175452633
 20
326.5368619364597
 10
1079.775175452633
 20
248.6447172258627
 42
-0.1722099391783434
 10
1077.916783543929
 20
248.5451000815653
 42
0.2923680941376206
 10
1075.575175452633
 20
248.6447172258627
 10
1075.575175452633
 20
326.5368619364597
 10
1065.775175638834
 20
334.7600381657557
  0
TEXT
  5
1A9
330
2
100
AcDbEntity
  8
DIM
100
AcDbText
 10
977.3566889402987
 20
261.5331630367184
 30
0.0
 40
2.5
  1
D/S MARK
  7
SIMPLEX
100
AcDbText
  0
TEXT
  5
1AA
330
2
100
AcDbEntity
  8
DIM
100
AcDbText
 10
976.4600700481704
 20
258.4608230679926
 30
0.0
 40
1.8
  1
DEPTH < 0.0005
  7
SIMPLEX
100
AcDbText
  0
TEXT
  5
1AB
330
2
100
AcDbEntity
  8
DIM
100
AcDbText
 10
986.6134305343887
 20
257.2584514314666
 30
0.0
 40
1.8
  1
-
  7
SIMPLEX
100
AcDbText
  0
TEXT
  5
1AC
330
2
100
AcDbEntity
  8
DIM
100
AcDbText
 10
978.0806265133747
 20
293.0341596688736
 30
0.0
 40
2.5
  1
D/S MARK
  7
SIMPLEX
100
AcDbText
  0
TEXT
  5
1AD
330
2
100
AcDbEntity
  8
DIM
100
AcDbText
 10
977.1840076212463
 20
289.9618197001478
 30
0.0
 40
1.8
  1
DEPTH < 0.001
  7
SIMPLEX
100
AcDbText
  0
TEXT
  5
1AE
330
2
100
AcDbEntity
  8
DIM
100
AcDbText
 10
987.3373681074648
 20
288.759448063622
 30
0.0
 40
1.8
  1
-
  7
SIMPLEX
100
AcDbText
  0
LEADER
  5
1AF
330
2
100
AcDbEntity
  8
DIM
100
AcDbLeader
  3
Standard
 76
     3
 10
961.9537524138264
 20
271.9219585984478
 30
0.0
 10
972.5573100774553
 20
294.3645540285679
 30
0.0
 10
976.2376328340476
 20
294.3645540285679
 30
0.0
1001
ACAD
1000
DSTYLE
1002
{
1070
    41
1040
3.0
1070
    42
1040
1.0
1070
    43
1040
7.5
1070
    44
1040
1.25
1070
    46
1040
1.25
1070
    73
1070
     0
1070
    74
1070
     0
1070
    77
1070
     1
1070
    78
1070
     8
1070
   140
1040
3.0
1070
   141
1040
1.25
1070
   145
1040
2.0
1070
   147
1040
1.25
1070
   271
1070
     3
1070
   340
1005
0
1002
}
  0
LEADER
  5
1B0
330
2
100
AcDbEntity
  8
DIM
100
AcDbLeader
  3
Standard
 76
     3
 10
941.8666241841627
 20
256.3358037287537
 30
0.0
 10
972.2030199326621
 20
262.9501843786397
 30
0.0
 10
975.4669497113173
 20
262.9501843786397
 30
0.0
1001
ACAD
1000
DSTYLE
1002
{
1070
    41
1040
3.0
1070
    42
1040
1.0
1070
    43
1040
7.5
1070
    44
1040
1.25
1070
    46
1040
1.25
1070
    73
1070
     0
1070
    74
1070
     0
1070
    77
1070
     1
1070
    78
1070
     8
1070
   140
1040
3.0
1070
   141
1040
1.25
1070
   145
1040
2.0
1070
   147
1040
1.25
1070
   271
1070
     3
1070
   340
1005
0
1002
}
  0
LINE
  5
1B1
330
2
100
AcDbEntity
  8
0
100
AcDbLine
 10
953.4314810031496
 20
235.1868620157134
 30
0.0
 11
953.4314810031496
 21
217.3368620157177
 31
0.0
  0
LINE
  5
1B2
330
2
100
AcDbEntity
  8
0
100
AcDbLine
 10
953.4314810031496
 20
346.8368620156795
 30
0.0
 11
953.4314810031176
 21
328.9868620156838
 31
0.0
  0
LWPOLYLINE
  5
1B3
330
2
100
AcDbEntity
  8
COIN-LINE
100
AcDbPolyline
 90
        8
 70
     1
 43
0.0
 10
904.5659226531762
 20
89.05750546468814
 10
932.0408769481545
 20
89.05750546468814
 10
946.4314356228454
 20
106.2075054646886
 10
961.825275004705
 20
106.2075054646886
 10
961.825275004705
 20
110.4075054646886
 10
946.4314356228454
 20
110.4075054646886
 10
932.0408769481545
 20
93.25750546468816
 10
904.5659226531762
 20
93.25750546468816
  0
HATCH
  5
1B4
330
2
100
AcDbEntity
  8
0
100
AcDbHatch
 10
0.0
 20
0.0
 30
0.0
210
0.0
220
0.0
230
1.0
  2
ANSI31
 70
     0
 71
     0
 91
        9
 92
        7
 72
     1
 73
     1
 93
        8
 10
862.0409226531521
 20
249.8868620156642
 42
-0.4142135623728047
 10
860.2909226531512
 20
251.6368620156589
 42
0.0
 10
860.2909226531487
 20
252.3368620156461
 42
-0.0503820444854062
 10
860.3262798331986
 20
252.6868620156493
 42
0.0
 10
853.9909226531554
 20
252.6868620156493
 42
0.0
 10
853.9909226531735
 20
242.8868620156904
 42
0.0
 10
863.6177465032199
 20
242.8868620156904
 42
0.0
 10
863.6177465031998
 20
249.8868620156642
 42
0.0
 97
        0
 92
        7
 72
     1
 73
     1
 93
        9
 10
899.3159226531767
 20
342.986862015731
 42
0.4142135623733329
 10
897.5659226531758
 20
344.7368620157285
 42
0.0
 10
890.2159226531923
 20
344.7368620157292
 42
0.0
 10
890.2159226531923
 20
338.4015048356676
 42
-0.050382044485337
 10
890.5659226531964
 20
338.4368620157212
 42
0.0
 10
891.2659226531575
 20
338.4368620157202
 42
-0.4142135623773335
 10
893.0159226531808
 20
336.6868620157206
 42
0.0
 10
893.015922653182
 20
334.7600381657358
 42
0.0
 10
899.3159226531792
 20
334.7600381657537
 42
0.0
 97
        0
 92
        7
 72
     0
 73
     1
 93
        4
 10
958.6814810031432
 20
248.83686201562
 10
958.6814810031633
 20
241.8368620157251
 10
965.6814810031692
 20
241.8368620157195
 10
965.6814810031493
 20
248.8368620156253
 97
        0
 92
        7
 72
     0
 73
     1
 93
        4
 10
958.6814810031258
 20
273.3368620156575
 10
958.6814810031455
 20
266.3368620156532
 10
965.6814810031493
 20
266.3368620156532
 10
965.6814810031294
 20
273.3368620156627
 97
        0
 92
        7
 72
     0
 73
     1
 93
        4
 10
958.6814810031455
 20
297.8368620156551
 10
958.6814810031258
 20
290.8368620156906
 10
965.6814810031294
 20
290.8368620156906
 10
965.6814810031493
 20
297.8368620156603
 97
        0
 92
        7
 72
     1
 73
     1
 93
        8
 10
953.4314810031176
 20
328.9868620156838
 42
0.0
 10
953.4314810031496
 20
346.8368620156795
 42
0.0
 10
953.0759226531699
 20
346.8368620156795
 42
0.4142135623730951
 10
951.3259226531717
 20
345.0868620156811
 42
0.0
 10
951.3259226531717
 20
339.1368620156956
 42
-0.4142135623730951
 10
949.5759226531731
 20
337.3868620156971
 42
0.0
 10
946.4314810031329
 20
337.3868620156995
 42
0.0
 10
946.4314810031178
 20
328.9868620156838
 42
0.0
 97
        0
 92
        7
 72
     1
 73
     1
 93
       83
 10
930.9909226531756
 20
236.9368620157118
 42
0.0
 10
930.9909226531582
 20
239.3868620157042
 42
-0.3563939586921846
 10
932.390922653145
 20
241.101504835662
 42
0.0
 10
932.3909226531572
 20
239.3868620156722
 42
0.0
 10
941.1409226531594
 20
239.3868620157229
 42
0.0
 10
941.1409226531468
 20
241.1368620157116
 42
0.0
 10
941.4909226533772
 20
241.1368620157132
 42
0.1622776601272179
 10
942.5409226528875
 20
241.4868620159011
 42
-0.1622776601284928
 10
943.5909226526712
 20
241.8368620157371
 42
0.0
 10
944.2909226531643
 20
241.8368620157365
 42
0.0
 10
944.2909226531446
 20
248.8368620156092
 42
0.0
 10
942.5059226531807
 20
248.8368620156079
 42
-0.3563939586926281
 10
940.7912798332299
 20
250.2368620156068
 42
0.0
 10
942.5409226531613
 20
250.2368620156081
 42
0.0
 10
942.5409226531758
 20
264.936862015653
 42
0.0
 10
940.7912798332299
 20
264.9368620156543
 42
-0.3563939586926335
 10
942.5059226531807
 20
266.3368620156532
 42
0.0
 10
944.2909226531472
 20
266.3368620156532
 42
0.0
 10
944.2909226531272
 20
273.3368620156467
 42
0.0
 10
942.5059226531807
 20
273.3368620156453
 42
-0.3563939586926273
 10
940.7912798332299
 20
274.7368620156442
 42
0.0
 10
942.5409226531613
 20
274.7368620156455
 42
0.0
 10
942.5409226531758
 20
289.4368620156905
 42
0.0
 10
940.7912798332299
 20
289.4368620156917
 42
-0.3563939586926335
 10
942.5059226531807
 20
290.8368620156906
 42
0.0
 10
944.2909226531272
 20
290.8368620156906
 42
0.0
 10
944.2909226531472
 20
297.8368620156443
 42
0.0
 10
942.5059226531807
 20
297.8368620156429
 42
-0.3563939586926273
 10
940.7912798332299
 20
299.2368620156418
 42
0.0
 10
942.5409226531613
 20
299.2368620156431
 42
0.0
 10
942.5409226531758
 20
313.9368620156881
 42
0.0
 10
940.7912798332299
 20
313.9368620156893
 42
-0.3563939586926335
 10
942.5059226531807
 20
315.3368620156883
 42
0.0
 10
944.2909226531272
 20
315.3368620156883
 42
0.0
 10
944.2909226531472
 20
322.3368620156604
 42
0.0
 10
943.5909226526712
 20
322.3368620156599
 42
-0.1622776601284918
 10
942.5409226528875
 20
322.6868620154958
 42
0.1622776601272202
 10
941.4909226533772
 20
323.0368620156833
 42
0.0
 10
941.1409226531468
 20
323.0368620156852
 42
0.0
 10
941.1409226531594
 20
324.7868620156741
 42
0.0
 10
932.3909226531572
 20
324.7868620157247
 42
0.0
 10
932.390922653145
 20
323.0722191957351
 42
-0.3563939586921834
 10
930.9909226531582
 20
324.7868620156924
 42
0.0
 10
930.9909226531756
 20
327.2368620156854
 42
-0.2982166266897273
 10
932.0409226531188
 20
328.8407635088949
 42
0.0
 10
932.0409226531392
 20
337.3868620157099
 42
0.0
 10
922.240922653191
 20
337.3868620157171
 42
0.4142135623730951
 10
920.4909226531926
 20
335.6368620157187
 42
0.0
 10
920.4909226531826
 20
326.5368620157013
 42
-0.4142135623738466
 10
918.7409226531745
 20
324.7868620157035
 42
0.0
 10
913.3159226531656
 20
324.7868620157234
 42
-0.41421356237192
 10
911.5659226531722
 20
326.5368620157237
 42
0.0
 10
904.5659226531736
 20
326.5368620157411
 42
-0.4142135623755021
 10
902.8159226531627
 20
324.7868620157458
 42
0.0
 10
901.0659226531704
 20
324.7868620157414
 42
-0.4142135623716205
 10
899.3159226531817
 20
326.5368620157417
 42
0.0
 10
893.0159226531882
 20
326.5368620157641
 42
-0.4142135623723008
 10
891.2659226531923
 20
324.7868620157628
 42
0.0
 10
876.3909226531611
 20
324.7868620157129
 42
0.4142135623720368
 10
873.5909226531701
 20
321.9868620157126
 42
0.0
 10
873.59092265318
 20
264.5868620157123
 42
0.0
 10
874.4659226524131
 20
264.5868620157142
 42
0.2679491924118789
 10
873.59092265318
 20
263.0713175595342
 42
0.0
 10
873.5909226531825
 20
251.6368620156645
 42
-0.4142135623730712
 10
871.8409226531816
 20
249.8868620156642
 42
0.0
 10
871.840922653214
 20
242.8868620156904
 42
0.0
 10
872.0753781970115
 20
242.8868620156904
 42
-0.2679491924096364
 10
873.5909226535628
 20
242.0118620158122
 42
0.2503212789185013
 10
874.9909226531942
 20
241.1406806166136
 42
0.0
 10
874.9909226531942
 20
239.3868620157135
 42
0.0
 10
895.4659226531774
 20
239.3868620156968
 42
0.0
 10
895.4659226531774
 20
240.2618620155834
 42
0.2679491924111066
 10
896.981467109734
 20
239.3868620156952
 42
0.0
 10
901.7659226531728
 20
239.3868620156911
 42
-0.4142135623726765
 10
903.5159226531712
 20
237.6368620156912
 42
0.0
 10
911.5659226531722
 20
237.6368620156735
 42
-0.4142135623720769
 10
913.3159226531658
 20
239.3868620156737
 42
0.0
 10
918.7409226531716
 20
239.3868620156936
 42
-0.4142135623738418
 10
920.49092265318
 20
237.6368620156956
 42
0.0
 10
920.4909226531926
 20
228.5368620156785
 42
0.4142135623730951
 10
922.240922653191
 20
226.7868620156801
 42
0.0
 10
932.0409226531392
 20
226.7868620156872
 42
0.0
 10
932.0409226531188
 20
235.3329605225022
 42
-0.2982166266897257
 97
        0
 92
        7
 72
     0
 73
     1
 93
        4
 10
958.6814810031455
 20
322.3368620156819
 10
958.6814810031258
 20
315.3368620157174
 10
965.6814810031294
 20
315.3368620157174
 10
965.6814810031493
 20
322.3368620156871
 97
        0
 92
        7
 72
     1
 73
     1
 93
        8
 10
953.4314810031176
 20
235.1868620157134
 42
0.0
 10
946.4314810031178
 20
235.1868620157134
 42
0.0
 10
946.4314810031329
 20
226.7868620156977
 42
0.0
 10
949.5759226531731
 20
226.7868620157
 42
-0.4142135623730951
 10
951.3259226531717
 20
225.0368620157016
 42
0.0
 10
951.3259226531717
 20
219.0868620157161
 42
0.4142135623730951
 10
953.0759226531699
 20
217.3368620157177
 42
0.0
 10
953.4314810031496
 20
217.3368620157177
 42
0.0
 97
        0
 75
     0
 76
     1
 52
0.0
 41
10.0
 77
     0
 78
     1
 53
45.0
 43
1116.0
 44
215.0123686529758
 45
-0.8838834764831631
 46
0.8838834764831915
 79
     0
 47
0.0
 98
       12
 10
816.0000000000001
 20
0.0000000000001137
 10
816.0000000000001
 20
0.0000000000001137
 10
816.0000000000001
 20
0.0000000000001137
 10
857.7343718484961
 20
249.8284009814287
 10
897.7327856913106
 20
340.2144270677887
 10
962.1458157758427
 20
245.3264150077786
 10
961.6263558558063
 20
269.3947246361389
 10
960.933742629091
 20
293.8093408778568
 10
952.4492306018274
 20
332.7688348805982
 10
930.2856073469344
 20
296.2334871713606
 10
963.8773488426313
 20
318.2239571195747
 10
950.0250843083234
 20
229.915770713361
  0
ENDSEC
  0
SECTION
  2
OBJECTS
  0
DICTIONARY
  5
D
330
0
100
AcDbDictionary
281
     1
  3
ACAD_COLOR
350
44
  3
ACAD_GROUP
350
31
  3
ACAD_LAYOUT
350
1A
  3
ACAD_MATERIAL
350
F
  3
ACAD_MLEADERSTYLE
350
47
  3
ACAD_MLINESTYLE
350
32
  3
ACAD_PLOTSETTINGS
350
33
  3
ACAD_PLOTSTYLENAME
350
C
  3
ACAD_SCALELIST
350
45
  3
ACAD_TABLESTYLE
350
46
  3
ACAD_VISUALSTYLE
350
2B
  3
ACDB_RECOMPOSE_DATA
350
1B8
  3
AcDbVariableDictionary
350
48
  0
DICTIONARY
  5
7
330
6
100
AcDbDictionary
280
     1
281
     1
  3
ACAD_LAYOUT
360
8
  3
ACDBVARIABLEDICTIONARY
360
9
  3
ADSK_XREC_LAYER_RECONCILED
360
A
  0
DICTIONARY
  5
B2
330
B1
100
AcDbDictionary
280
     1
281
     1
  3
ADSK_XREC_LAYER_RECONCILED
360
B3
  0
DICTIONARY
  5
6F
330
6E
100
AcDbDictionary
280
     1
281
     1
  3
ADSK_XREC_LAYER_RECONCILED
360
70
  0
DICTIONARY
  5
75
330
74
100
AcDbDictionary
280
     1
281
     1
  3
ADSK_XREC_LAYER_RECONCILED
360
76
  0
DICTIONARY
  5
8D
330
8C
100
AcDbDictionary
280
     1
281
     1
  3
ADSK_XREC_LAYER_RECONCILED
360
8E
  0
DICTIONARY
  5
3
330
2
100
AcDbDictionary
280
     1
281
     1
  3
ACAD_SORTENTS
360
1B5
  0
DICTIONARY
  5
C7
330
C6
100
AcDbDictionary
280
     1
281
     1
  0
DICTIONARY
  5
C9
330
C8
100
AcDbDictionary
280
     1
281
     1
  0
DICTIONARY
  5
D4
330
D3
100
AcDbDictionary
280
     1
281
     1
  0
DICTIONARY
  5
DD
330
DC
100
AcDbDictionary
280
     1
281
     1
  0
DICTIONARY
  5
E7
330
E6
100
AcDbDictionary
280
     1
281
     1
  0
DICTIONARY
  5
F0
330
EF
100
AcDbDictionary
280
     1
281
     1
  0
DICTIONARY
  5
FA
330
F9
100
AcDbDictionary
280
     1
281
     1
  0
DICTIONARY
  5
111
330
110
100
AcDbDictionary
280
     1
281
     1
  0
DICTIONARY
  5
122
330
121
100
AcDbDictionary
280
     1
281
     1
  0
DICTIONARY
  5
124
330
123
100
AcDbDictionary
280
     1
281
     1
  0
DICTIONARY
  5
132
330
131
100
AcDbDictionary
280
     1
281
     1
  0
DICTIONARY
  5
139
330
138
100
AcDbDictionary
280
     1
281
     1
  0
DICTIONARY
  5
143
330
142
100
AcDbDictionary
280
     1
281
     1
  0
DICTIONARY
  5
15E
330
15D
100
AcDbDictionary
280
     1
281
     1
  0
DICTIONARY
  5
16B
330
16A
100
AcDbDictionary
280
     1
281
     1
  0
DICTIONARY
  5
173
330
172
100
AcDbDictionary
280
     1
281
     1
  0
DICTIONARY
  5
191
330
190
100
AcDbDictionary
280
     1
281
     1
  0
DICTIONARY
  5
199
330
198
100
AcDbDictionary
280
     1
281
     1
  0
DICTIONARY
  5
19B
330
19A
100
AcDbDictionary
280
     1
281
     1
  0
DICTIONARY
  5
44
102
{ACAD_REACTORS
330
D
102
}
330
D
100
AcDbDictionary
281
     1
  0
DICTIONARY
  5
31
102
{ACAD_REACTORS
330
D
102
}
330
D
100
AcDbDictionary
281
     1
  0
DICTIONARY
  5
1A
102
{ACAD_REACTORS
330
D
102
}
330
D
100
AcDbDictionary
281
     1
  3
Layout1
350
1E
  3
Model
350
19
  0
DICTIONARY
  5
F
102
{ACAD_REACTORS
330
D
102
}
330
D
100
AcDbDictionary
281
     1
  3
ByBlock
350
3C
  3
ByLayer
350
34
  3
Global
350
E
  0
DICTIONARY
  5
47
102
{ACAD_REACTORS
330
D
102
}
330
D
100
AcDbDictionary
281
     1
  0
DICTIONARY
  5
32
102
{ACAD_REACTORS
330
D
102
}
330
D
100
AcDbDictionary
281
     1
  3
Standard
350
56
  0
DICTIONARY
  5
33
102
{ACAD_REACTORS
330
D
102
}
330
D
100
AcDbDictionary
281
     1
  0
ACDBDICTIONARYWDFLT
  5
C
102
{ACAD_REACTORS
330
D
102
}
330
D
100
AcDbDictionary
281
     1
  3
Normal
350
B
100
AcDbDictionaryWithDefault
340
B
  0
DICTIONARY
  5
45
102
{ACAD_REACTORS
330
D
102
}
330
D
100
AcDbDictionary
281
     1
  3
A0
350
5C
  3
A1
350
5D
  3
A2
350
5E
  3
A3
350
5F
  3
A4
350
60
  3
A5
350
61
  3
A6
350
62
  3
A7
350
63
  3
A8
350
64
  3
A9
350
65
  3
B0
350
66
  3
B1
350
67
  3
B2
350
68
  3
B3
350
69
  3
B4
350
6A
  3
B5
350
6B
  3
B6
350
6C
  0
DICTIONARY
  5
46
102
{ACAD_REACTORS
330
D
102
}
330
D
100
AcDbDictionary
281
     1
  3
Standard
350
57
  0
DICTIONARY
  5
2B
102
{ACAD_REACTORS
330
D
102
}
330
D
100
AcDbDictionary
281
     1
  3
2dWireframe
350
2A
  3
EdgeColorOff
350
B9
  3
Realistic
350
59
  3
Wireframe
350
5A
  0
XRECORD
  5
1B8
102
{ACAD_REACTORS
330
D
102
}
330
D
100
AcDbXrecord
280
     1
 90
        1
330
57
  0
DICTIONARY
  5
48
102
{ACAD_REACTORS
330
D
102
}
330
D
100
AcDbDictionary
281
     1
  3
CANNOSCALE
350
49
  3
CMLEADERSTYLE
350
4A
  3
CTABLESTYLE
350
4B
  3
CVIEWDETAILSTYLE
350
4C
  3
CVIEWSECTIONSTYLE
350
4D
  3
DIMASSOC
350
4E
  3
HIDETEXT
350
4F
  3
LAYEREVAL
350
50
  3
LAYERNOTIFY
350
51
  3
LIGHTINGUNITS
350
52
  3
MSLTSCALE
350
53
  3
PROJECTNAME
350
54
  0
DICTIONARY
  5
8
102
{ACAD_REACTORS
330
7
102
}
330
7
100
AcDbDictionary
281
     1
  0
DICTIONARY
  5
9
102
{ACAD_REACTORS
330
7
102
}
330
7
100
AcDbDictionary
281
     1
  0
XRECORD
  5
A
102
{ACAD_REACTORS
330
7
102
}
330
7
100
AcDbXrecord
280
     1
290
     1
  0
XRECORD
  5
B3
102
{ACAD_REACTORS
330
B2
102
}
330
B2
100
AcDbXrecord
280
     1
290
     1
  0
XRECORD
  5
70
102
{ACAD_REACTORS
330
6F
102
}
330
6F
100
AcDbXrecord
280
     1
290
     1
  0
XRECORD
  5
76
102
{ACAD_REACTORS
330
75
102
}
330
75
100
AcDbXrecord
280
     1
290
     1
  0
XRECORD
  5
8E
102
{ACAD_REACTORS
330
8D
102
}
330
8D
100
AcDbXrecord
280
     1
290
     1
  0
SORTENTSTABLE
  5
1B5
102
{ACAD_REACTORS
330
3
102
}
330
3
100
AcDbSortentsTable
330
2
  0
LAYOUT
  5
1E
102
{ACAD_REACTORS
330
1A
102
}
330
1A
100
AcDbPlotSettings
  1

  2
None
  4

  6

 40
0.0
 41
0.0
 42
0.0
 43
0.0
 44
0.0
 45
0.0
 46
0.0
 47
0.0
 48
0.0
 49
0.0
140
0.0
141
0.0
142
1.0
143
1.0
 70
   688
 72
     0
 73
     0
 74
     0
  7

 75
     0
147
1.0
 76
     0
 77
     2
 78
   300
148
0.0
149
0.0
100
AcDbLayout
  1
Layout1
 70
     0
 71
     1
 10
0.0
 20
0.0
 11
0.0
 21
0.0
 12
0.0
 22
0.0
 32
0.0
 14
0.0
 24
0.0
 34
0.0
 15
0.0
 25
0.0
 35
0.0
146
0.0
 13
0.0
 23
0.0
 33
0.0
 16
1.0
 26
0.0
 36
0.0
 17
0.0
 27
1.0
 37
0.0
 76
     0
330
1B
  0
LAYOUT
  5
19
102
{ACAD_REACTORS
330
1A
102
}
330
1A
100
AcDbPlotSettings
  1

  2
None
  4

  6

 40
0.0
 41
0.0
 42
0.0
 43
0.0
 44
0.0
 45
0.0
 46
0.0
 47
0.0
 48
0.0
 49
0.0
140
0.0
141
0.0
142
1.0
143
1.0
 70
 11952
 72
     0
 73
     0
 74
     0
  7

 75
     0
147
1.0
 76
     0
 77
     2
 78
   300
148
0.0
149
0.0
100
AcDbLayout
  1
Model
 70
     1
 71
     0
 10
0.0
 20
0.0
 11
0.0
 21
0.0
 12
0.0
 22
0.0
 32
0.0
 14
5.0
 24
8.999999999999943
 34
0.0
 15
277.0
 25
392.0
 35
0.0
146
0.0
 13
0.0
 23
0.0
 33
0.0
 16
1.0
 26
0.0
 36
0.0
 17
0.0
 27
1.0
 37
0.0
 76
     0
330
2
331
29
  0
MATERIAL
  5
3C
102
{ACAD_XDICTIONARY
360
3D
102
}
102
{ACAD_REACTORS
330
F
102
}
330
F
100
AcDbMaterial
  1
ByBlock
 72
     0
 43
0.0208333333333333
 43
0.0
 43
0.0
 43
0.0
 43
0.0
 43
0.0208333333333333
 43
0.0
 43
0.0
 43
0.0
 43
0.0
 43
1.0
 43
0.0
 43
0.0
 43
0.0
 43
0.0
 43
1.0
 77
     0
 47
0.0208333333333333
 47
0.0
 47
0.0
 47
0.0
 47
0.0
 47
0.0208333333333333
 47
0.0
 47
0.0
 47
0.0
 47
0.0
 47
1.0
 47
0.0
 47
0.0
 47
0.0
 47
0.0
 47
1.0
171
     0
 49
0.0208333333333333
 49
0.0
 49
0.0
 49
0.0
 49
0.0
 49
0.0208333333333333
 49
0.0
 49
0.0
 49
0.0
 49
0.0
 49
1.0
 49
0.0
 49
0.0
 49
0.0
 49
0.0
 49
1.0
175
     0
142
0.0208333333333333
142
0.0
142
0.0
142
0.0
142
0.0
142
0.0208333333333333
142
0.0
142
0.0
142
0.0
142
0.0
142
1.0
142
0.0
142
0.0
142
0.0
142
0.0
142
1.0
179
     0
144
0.0208333333333333
144
0.0
144
0.0
144
0.0
144
0.0
144
0.0208333333333333
144
0.0
144
0.0
144
0.0
144
0.0
144
1.0
144
0.0
144
0.0
144
0.0
144
0.0
144
1.0
147
0.0208333333333333
147
0.0
147
0.0
147
0.0
147
0.0
147
0.0208333333333333
147
0.0
147
0.0
147
0.0
147
0.0
147
1.0
147
0.0
147
0.0
147
0.0
147
0.0
147
1.0
  0
MATERIAL
  5
34
102
{ACAD_XDICTIONARY
360
35
102
}
102
{ACAD_REACTORS
330
F
102
}
330
F
100
AcDbMaterial
  1
ByLayer
 72
     0
 43
0.0208333333333333
 43
0.0
 43
0.0
 43
0.0
 43
0.0
 43
0.0208333333333333
 43
0.0
 43
0.0
 43
0.0
 43
0.0
 43
1.0
 43
0.0
 43
0.0
 43
0.0
 43
0.0
 43
1.0
 77
     0
 47
0.0208333333333333
 47
0.0
 47
0.0
 47
0.0
 47
0.0
 47
0.0208333333333333
 47
0.0
 47
0.0
 47
0.0
 47
0.0
 47
1.0
 47
0.0
 47
0.0
 47
0.0
 47
0.0
 47
1.0
171
     0
 49
0.0208333333333333
 49
0.0
 49
0.0
 49
0.0
 49
0.0
 49
0.0208333333333333
 49
0.0
 49
0.0
 49
0.0
 49
0.0
 49
1.0
 49
0.0
 49
0.0
 49
0.0
 49
0.0
 49
1.0
175
     0
142
0.0208333333333333
142
0.0
142
0.0
142
0.0
142
0.0
142
0.0208333333333333
142
0.0
142
0.0
142
0.0
142
0.0
142
1.0
142
0.0
142
0.0
142
0.0
142
0.0
142
1.0
179
     0
144
0.0208333333333333
144
0.0
144
0.0
144
0.0
144
0.0
144
0.0208333333333333
144
0.0
144
0.0
144
0.0
144
0.0
144
1.0
144
0.0
144
0.0
144
0.0
144
0.0
144
1.0
147
0.0208333333333333
147
0.0
147
0.0
147
0.0
147
0.0
147
0.0208333333333333
147
0.0
147
0.0
147
0.0
147
0.0
147
1.0
147
0.0
147
0.0
147
0.0
147
0.0
147
1.0
  0
MATERIAL
  5
E
102
{ACAD_XDICTIONARY
360
10
102
}
102
{ACAD_REACTORS
330
F
102
}
330
F
100
AcDbMaterial
  1
Global
 72
     0
 43
0.0208333333333333
 43
0.0
 43
0.0
 43
0.0
 43
0.0
 43
0.0208333333333333
 43
0.0
 43
0.0
 43
0.0
 43
0.0
 43
1.0
 43
0.0
 43
0.0
 43
0.0
 43
0.0
 43
1.0
 77
     0
 47
0.0208333333333333
 47
0.0
 47
0.0
 47
0.0
 47
0.0
 47
0.0208333333333333
 47
0.0
 47
0.0
 47
0.0
 47
0.0
 47
1.0
 47
0.0
 47
0.0
 47
0.0
 47
0.0
 47
1.0
171
     0
 49
0.0208333333333333
 49
0.0
 49
0.0
 49
0.0
 49
0.0
 49
0.0208333333333333
 49
0.0
 49
0.0
 49
0.0
 49
0.0
 49
1.0
 49
0.0
 49
0.0
 49
0.0
 49
0.0
 49
1.0
175
     0
142
0.0208333333333333
142
0.0
142
0.0
142
0.0
142
0.0
142
0.0208333333333333
142
0.0
142
0.0
142
0.0
142
0.0
142
1.0
142
0.0
142
0.0
142
0.0
142
0.0
142
1.0
179
     0
144
0.0208333333333333
144
0.0
144
0.0
144
0.0
144
0.0
144
0.0208333333333333
144
0.0
144
0.0
144
0.0
144
0.0
144
1.0
144
0.0
144
0.0
144
0.0
144
0.0
144
1.0
147
0.0208333333333333
147
0.0
147
0.0
147
0.0
147
0.0
147
0.0208333333333333
147
0.0
147
0.0
147
0.0
147
0.0
147
1.0
147
0.0
147
0.0
147
0.0
147
0.0
147
1.0
  0
MLINESTYLE
  5
56
102
{ACAD_REACTORS
330
32
102
}
330
32
100
AcDbMlineStyle
  2
STANDARD
 70
     0
  3

 62
   256
 51
90.0
 52
90.0
 71
     2
 49
0.5
 62
   256
  6
BYLAYER
 49
-0.5
 62
   256
  6
BYLAYER
  0
ACDBPLACEHOLDER
  5
B
102
{ACAD_REACTORS
330
C
102
}
330
C
  0
SCALE
  5
5C
102
{ACAD_REACTORS
330
45
102
}
330
45
100
AcDbScale
 70
     0
300
1:1
140
1.0
141
1.0
290
     1
  0
SCALE
  5
5D
102
{ACAD_REACTORS
330
45
102
}
330
45
100
AcDbScale
 70
     0
300
1/128" = 1'-0"
140
0.0078125
141
12.0
290
     0
  0
SCALE
  5
5E
102
{ACAD_REACTORS
330
45
102
}
330
45
100
AcDbScale
 70
     0
300
1/64" = 1'-0"
140
0.015625
141
12.0
290
     0
  0
SCALE
  5
5F
102
{ACAD_REACTORS
330
45
102
}
330
45
100
AcDbScale
 70
     0
300
1/32" = 1'-0"
140
0.03125
141
12.0
290
     0
  0
SCALE
  5
60
102
{ACAD_REACTORS
330
45
102
}
330
45
100
AcDbScale
 70
     0
300
1/16" = 1'-0"
140
0.0625
141
12.0
290
     0
  0
SCALE
  5
61
102
{ACAD_REACTORS
330
45
102
}
330
45
100
AcDbScale
 70
     0
300
3/32" = 1'-0"
140
0.09375
141
12.0
290
     0
  0
SCALE
  5
62
102
{ACAD_REACTORS
330
45
102
}
330
45
100
AcDbScale
 70
     0
300
1/8" = 1'-0"
140
0.125
141
12.0
290
     0
  0
SCALE
  5
63
102
{ACAD_REACTORS
330
45
102
}
330
45
100
AcDbScale
 70
     0
300
3/16" = 1'-0"
140
0.1875
141
12.0
290
     0
  0
SCALE
  5
64
102
{ACAD_REACTORS
330
45
102
}
330
45
100
AcDbScale
 70
     0
300
1/4" = 1'-0"
140
0.25
141
12.0
290
     0
  0
SCALE
  5
65
102
{ACAD_REACTORS
330
45
102
}
330
45
100
AcDbScale
 70
     0
300
3/8" = 1'-0"
140
0.375
141
12.0
290
     0
  0
SCALE
  5
66
102
{ACAD_REACTORS
330
45
102
}
330
45
100
AcDbScale
 70
     0
300
1/2" = 1'-0"
140
0.5
141
12.0
290
     0
  0
SCALE
  5
67
102
{ACAD_REACTORS
330
45
102
}
330
45
100
AcDbScale
 70
     0
300
3/4" = 1'-0"
140
0.75
141
12.0
290
     0
  0
SCALE
  5
68
102
{ACAD_REACTORS
330
45
102
}
330
45
100
AcDbScale
 70
     0
300
1" = 1'-0"
140
1.0
141
12.0
290
     0
  0
SCALE
  5
69
102
{ACAD_REACTORS
330
45
102
}
330
45
100
AcDbScale
 70
     0
300
1-1/2" = 1'-0"
140
1.5
141
12.0
290
     0
  0
SCALE
  5
6A
102
{ACAD_REACTORS
330
45
102
}
330
45
100
AcDbScale
 70
     0
300
3" = 1'-0"
140
3.0
141
12.0
290
     0
  0
SCALE
  5
6B
102
{ACAD_REACTORS
330
45
102
}
330
45
100
AcDbScale
 70
     0
300
6" = 1'-0"
140
6.0
141
12.0
290
     0
  0
SCALE
  5
6C
102
{ACAD_REACTORS
330
45
102
}
330
45
100
AcDbScale
 70
     0
300
1'-0" = 1'-0"
140
12.0
141
12.0
290
     0
  0
TABLESTYLE
  5
57
102
{ACAD_XDICTIONARY
360
58
102
}
102
{ACAD_REACTORS
330
46
102
}
330
46
100
AcDbTableStyle
280
     0
  3
Standard
 70
     0
 71
     0
 40
0.06
 41
0.06
280
     0
281
     0
  7
Standard
140
0.18
170
     2
 62
     0
 63
     7
283
     0
 90
        4
 91
        0
  1

274
    -2
284
     1
 64
     0
275
    -2
285
     1
 65
     0
276
    -2
286
     1
 66
     0
277
    -2
287
     1
 67
     0
278
    -2
288
     1
 68
     0
279
    -2
289
     1
 69
     0
  7
Standard
140
0.25
170
     5
 62
     0
 63
     7
283
     0
 90
        4
 91
        0
  1

274
    -2
284
     1
 64
     0
275
    -2
285
     1
 65
     0
276
    -2
286
     1
 66
     0
277
    -2
287
     1
 67
     0
278
    -2
288
     1
 68
     0
279
    -2
289
     1
 69
     0
  7
Standard
140
0.18
170
     5
 62
     0
 63
     7
283
     0
 90
        4
 91
        0
  1

274
    -2
284
     1
 64
     0
275
    -2
285
     1
 65
     0
276
    -2
286
     1
 66
     0
277
    -2
287
     1
 67
     0
278
    -2
288
     1
 68
     0
279
    -2
289
     1
 69
     0
1001
ACAD
1000
AcRTDxfName
1000
TABLESTYLE
  0
VISUALSTYLE
  5
2A
102
{ACAD_REACTORS
330
2B
102
}
330
2B
100
AcDbVisualStyle
  2
2dWireframe
 70
     4
177
     3
291
     0
 70
    58
 90
        0
176
     1
 90
        2
176
     1
 90
        0
176
     1
 90
        0
176
     1
 40
0.6
176
     1
 40
30.0
176
     1
 62
     7
420
 16777215
176
     1
 90
        1
176
     1
 90
        4
176
     1
 62
     7
176
     1
 62
   257
176
     1
 90
        1
176
     1
 90
        1
176
     1
 40
1.0
176
     1
 90
        0
176
     1
 62
   257
176
     1
 40
1.0
176
     1
 90
        1
176
     1
 90
        6
176
     1
 90
        2
176
     1
 62
     7
176
     1
 90
        5
176
     1
 90
        0
176
     1
 90
        0
176
     1
290
     0
176
     1
 90
        1
176
     1
 40
0.0
176
     1
 90
        0
176
     1
290
     1
176
     1
290
     1
176
     1
290
     0
176
     1
290
     0
176
     1
290
     0
176
     1
290
     0
176
     1
290
     0
176
     1
290
     0
176
     1
290
     0
176
     1
 90
       50
176
     1
 40
0.0
176
     1
 40
1.0
176
     1
 90
        0
176
     1
 62
    18
176
     1
 90
       50
176
     1
 90
        3
176
     1
 62
     5
420
      255
176
     1
290
     0
176
     1
 90
       50
176
     1
 90
       50
176
     1
 90
       50
176
     1
290
     0
176
     1
 90
       50
176
     1
 62
   256
176
     0
 40
1.0
176
     0
 90
        2
176
     1
  1
strokes_ogs.tif
176
     1
290
     0
176
     1
 40
1.0
176
     1
 40
1.0
176
     1
  0
VISUALSTYLE
  5
B9
102
{ACAD_REACTORS
330
2B
102
}
330
2B
100
AcDbVisualStyle
  2
EdgeColorOff
 70
    22
177
     3
291
     1
 70
    58
 90
        2
176
     0
 90
        2
176
     0
 90
        0
176
     0
 90
        0
176
     0
 40
0.6
176
     0
 40
30.0
176
     0
 62
     7
420
 16777215
176
     0
 90
        1
176
     0
 90
        4
176
     0
 62
     7
176
     0
 62
   257
176
     0
 90
        1
176
     0
 90
        1
176
     0
 40
1.0
176
     0
 90
        8
176
     2
 62
     7
176
     0
 40
1.0
176
     0
 90
        1
176
     0
 90
        6
176
     0
 90
        2
176
     0
 62
     7
176
     0
 90
        5
176
     0
 90
        0
176
     0
 90
        0
176
     0
290
     0
176
     0
 90
        1
176
     0
 40
0.0
176
     0
 90
        0
176
     0
290
     0
176
     0
290
     1
176
     0
290
     1
176
     0
290
     0
176
     0
290
     0
176
     0
290
     0
176
     0
290
     0
176
     0
290
     0
176
     0
290
     0
176
     0
 90
       50
176
     0
 40
0.0
176
     0
 40
1.0
176
     0
 90
        0
176
     0
 62
    18
176
     0
 90
       50
176
     0
 90
        3
176
     0
 62
     5
420
      255
176
     0
290
     0
176
     0
 90
       50
176
     0
 90
       50
176
     0
 90
       50
176
     0
290
     0
176
     0
 90
       50
176
     0
 62
   256
176
     0
 40
1.0
176
     0
 90
        2
176
     0
  1
strokes_ogs.tif
176
     0
290
     0
176
     0
 40
1.0
176
     0
 40
1.0
176
     0
  0
VISUALSTYLE
  5
59
102
{ACAD_REACTORS
330
2B
102
}
330
2B
100
AcDbVisualStyle
  2
Realistic
 70
     8
177
     3
291
     0
 70
    58
 90
        2
176
     1
 90
        3
176
     1
 90
        0
176
     1
 90
        2
176
     1
 40
0.6
176
     1
 40
30.0
176
     1
 62
     7
420
 16777215
176
     1
 90
        0
176
     1
 90
        0
176
     1
 62
     7
176
     1
 62
   257
176
     1
 90
        1
176
     1
 90
        1
176
     1
 40
1.0
176
     1
 90
        8
176
     1
 62
   257
176
     1
 40
1.0
176
     1
 90
        1
176
     1
 90
        6
176
     1
 90
        2
176
     1
 62
     7
176
     1
 90
        3
176
     1
 90
        0
176
     1
 90
        0
176
     1
290
     0
176
     1
 90
       13
176
     1
 40
0.0
176
     1
 90
        0
176
     1
290
     0
176
     1
290
     1
176
     1
290
     1
176
     1
290
     0
176
     1
290
     0
176
     1
290
     0
176
     1
290
     0
176
     1
290
     0
176
     1
290
     0
176
     1
 90
       50
176
     1
 40
0.0
176
     1
 40
1.0
176
     1
 90
        0
176
     1
 62
    18
176
     1
 90
       50
176
     1
 90
        3
176
     1
 62
     5
420
      255
176
     1
290
     0
176
     1
 90
       50
176
     1
 90
       50
176
     1
 90
       50
176
     1
290
     0
176
     1
 90
       50
176
     1
 62
   256
176
     0
 40
1.0
176
     0
 90
        2
176
     1
  1
strokes_ogs.tif
176
     1
290
     0
176
     1
 40
1.0
176
     1
 40
1.0
176
     1
  0
VISUALSTYLE
  5
5A
102
{ACAD_REACTORS
330
2B
102
}
330
2B
100
AcDbVisualStyle
  2
Wireframe
 70
     5
177
     3
291
     0
 70
    58
 90
        0
176
     1
 90
        2
176
     1
 90
        0
176
     1
 90
        0
176
     1
 40
0.6
176
     1
 40
30.0
176
     1
 62
     7
420
 16777215
176
     1
 90
        1
176
     1
 90
        4
176
     1
 62
     7
176
     1
 62
   257
176
     1
 90
        1
176
     1
 90
        1
176
     1
 40
1.0
176
     1
 90
        0
176
     1
 62
   257
176
     1
 40
1.0
176
     1
 90
        1
176
     1
 90
        6
176
     1
 90
        2
176
     1
 62
     7
176
     1
 90
        3
176
     1
 90
        0
176
     1
 90
        0
176
     1
290
     0
176
     1
 90
        1
176
     1
 40
0.0
176
     1
 90
        0
176
     1
290
     0
176
     1
290
     1
176
     1
290
     1
176
     1
290
     0
176
     1
290
     0
176
     1
290
     0
176
     1
290
     0
176
     1
290
     0
176
     1
290
     0
176
     1
 90
       50
176
     1
 40
0.0
176
     1
 40
1.0
176
     1
 90
        0
176
     1
 62
    18
176
     1
 90
       50
176
     1
 90
        3
176
     1
 62
     5
420
      255
176
     1
290
     0
176
     1
 90
       50
176
     1
 90
       50
176
     1
 90
       50
176
     1
290
     0
176
     1
 90
       50
176
     1
 62
   256
176
     0
 40
1.0
176
     0
 90
        2
176
     1
  1
strokes_ogs.tif
176
     1
290
     0
176
     1
 40
1.0
176
     1
 40
1.0
176
     1
  0
DICTIONARYVAR
  5
49
102
{ACAD_REACTORS
330
48
102
}
330
48
100
DictionaryVariables
280
     0
  1
1:1
  0
DICTIONARYVAR
  5
4A
102
{ACAD_REACTORS
330
48
102
}
330
48
100
DictionaryVariables
280
     0
  1
STANDARD
  0
DICTIONARYVAR
  5
4B
102
{ACAD_REACTORS
330
48
102
}
330
48
100
DictionaryVariables
280
     0
  1
STANDARD
  0
DICTIONARYVAR
  5
4C
102
{ACAD_REACTORS
330
48
102
}
330
48
100
DictionaryVariables
280
     0
  1

  0
DICTIONARYVAR
  5
4D
102
{ACAD_REACTORS
330
48
102
}
330
48
100
DictionaryVariables
280
     0
  1

  0
DICTIONARYVAR
  5
4E
102
{ACAD_REACTORS
330
48
102
}
330
48
100
DictionaryVariables
280
     0
  1
0
  0
DICTIONARYVAR
  5
4F
102
{ACAD_REACTORS
330
48
102
}
330
48
100
DictionaryVariables
280
     0
  1
1
  0
DICTIONARYVAR
  5
50
102
{ACAD_REACTORS
330
48
102
}
330
48
100
DictionaryVariables
280
     0
  1
1
  0
DICTIONARYVAR
  5
51
102
{ACAD_REACTORS
330
48
102
}
330
48
100
DictionaryVariables
280
     0
  1
15
  0
DICTIONARYVAR
  5
52
102
{ACAD_REACTORS
330
48
102
}
330
48
100
DictionaryVariables
280
     0
  1
0
  0
DICTIONARYVAR
  5
53
102
{ACAD_REACTORS
330
48
102
}
330
48
100
DictionaryVariables
280
     0
  1
0
  0
DICTIONARYVAR
  5
54
102
{ACAD_REACTORS
330
48
102
}
330
48
100
DictionaryVariables
280
     0
  1

  0
DICTIONARY
  5
3D
330
3C
100
AcDbDictionary
280
     1
281
     1
  3
BUMPTILE
360
3E
  3
DIFFUSETILE
360
3F
  3
OPACITYTILE
360
40
  3
REFLECTIONTILE
360
41
  3
REFRACTIONTILE
360
42
  3
SPECULARTILE
360
43
  0
DICTIONARY
  5
35
330
34
100
AcDbDictionary
280
     1
281
     1
  3
BUMPTILE
360
36
  3
DIFFUSETILE
360
37
  3
OPACITYTILE
360
38
  3
REFLECTIONTILE
360
39
  3
REFRACTIONTILE
360
3A
  3
SPECULARTILE
360
3B
  0
DICTIONARY
  5
10
330
E
100
AcDbDictionary
280
     1
281
     1
  3
BUMPTILE
360
11
  3
DIFFUSETILE
360
12
  3
OPACITYTILE
360
13
  3
REFLECTIONTILE
360
14
  3
REFRACTIONTILE
360
15
  3
SPECULARTILE
360
16
  0
DICTIONARY
  5
58
330
57
100
AcDbDictionary
280
     1
281
     1
  3
ACAD_ROUNDTRIP_2008_TABLESTYLE_CELLSTYLEMAP
360
1B7
  0
XRECORD
  5
3E
102
{ACAD_REACTORS
330
3D
102
}
330
3D
100
AcDbXrecord
280
     1
270
     1
271
     1
  0
XRECORD
  5
3F
102
{ACAD_REACTORS
330
3D
102
}
330
3D
100
AcDbXrecord
280
     1
270
     1
271
     1
  0
XRECORD
  5
40
102
{ACAD_REACTORS
330
3D
102
}
330
3D
100
AcDbXrecord
280
     1
270
     1
271
     1
  0
XRECORD
  5
41
102
{ACAD_REACTORS
330
3D
102
}
330
3D
100
AcDbXrecord
280
     1
270
     1
271
     1
  0
XRECORD
  5
42
102
{ACAD_REACTORS
330
3D
102
}
330
3D
100
AcDbXrecord
280
     1
270
     1
271
     1
  0
XRECORD
  5
43
102
{ACAD_REACTORS
330
3D
102
}
330
3D
100
AcDbXrecord
280
     1
270
     1
271
     1
  0
XRECORD
  5
36
102
{ACAD_REACTORS
330
35
102
}
330
35
100
AcDbXrecord
280
     1
270
     1
271
     1
  0
XRECORD
  5
37
102
{ACAD_REACTORS
330
35
102
}
330
35
100
AcDbXrecord
280
     1
270
     1
271
     1
  0
XRECORD
  5
38
102
{ACAD_REACTORS
330
35
102
}
330
35
100
AcDbXrecord
280
     1
270
     1
271
     1
  0
XRECORD
  5
39
102
{ACAD_REACTORS
330
35
102
}
330
35
100
AcDbXrecord
280
     1
270
     1
271
     1
  0
XRECORD
  5
3A
102
{ACAD_REACTORS
330
35
102
}
330
35
100
AcDbXrecord
280
     1
270
     1
271
     1
  0
XRECORD
  5
3B
102
{ACAD_REACTORS
330
35
102
}
330
35
100
AcDbXrecord
280
     1
270
     1
271
     1
  0
XRECORD
  5
11
102
{ACAD_REACTORS
330
10
102
}
330
10
100
AcDbXrecord
280
     1
270
     1
271
     1
  0
XRECORD
  5
12
102
{ACAD_REACTORS
330
10
102
}
330
10
100
AcDbXrecord
280
     1
270
     1
271
     1
  0
XRECORD
  5
13
102
{ACAD_REACTORS
330
10
102
}
330
10
100
AcDbXrecord
280
     1
270
     1
271
     1
  0
XRECORD
  5
14
102
{ACAD_REACTORS
330
10
102
}
330
10
100
AcDbXrecord
280
     1
270
     1
271
     1
  0
XRECORD
  5
15
102
{ACAD_REACTORS
330
10
102
}
330
10
100
AcDbXrecord
280
     1
270
     1
271
     1
  0
XRECORD
  5
16
102
{ACAD_REACTORS
330
10
102
}
330
10
100
AcDbXrecord
280
     1
270
     1
271
     1
  0
CELLSTYLEMAP
  5
1B7
102
{ACAD_REACTORS
330
58
102
}
330
58
100
AcDbCellStyleMap
 90
        3
300
CELLSTYLE
  1
TABLEFORMAT_BEGIN
 90
        5
170
     1
 91
        0
 92
    32768
 62
   257
 93
        1
300
CONTENTFORMAT
  1
CONTENTFORMAT_BEGIN
 90
        0
 91
        0
 92
        4
 93
        0
300

 40
0.0
140
1.0
 94
        5
 62
     0
340
21
144
0.25
309
CONTENTFORMAT_END
171
     1
301
MARGIN
  1
CELLMARGIN_BEGIN
 40
0.06
 40
0.06
 40
0.06
 40
0.06
 40
0.18
 40
0.18
309
CELLMARGIN_END
 94
        6
 95
        1
302
GRIDFORMAT
  1
GRIDFORMAT_BEGIN
 90
        0
 91
        1
 62
     0
 92
       -2
340
0
 93
        0
 40
0.045
309
GRIDFORMAT_END
 95
        2
302
GRIDFORMAT
  1
GRIDFORMAT_BEGIN
 90
        0
 91
        1
 62
     0
 92
       -2
340
0
 93
        0
 40
0.045
309
GRIDFORMAT_END
 95
        4
302
GRIDFORMAT
  1
GRIDFORMAT_BEGIN
 90
        0
 91
        1
 62
     0
 92
       -2
340
0
 93
        0
 40
0.045
309
GRIDFORMAT_END
 95
        8
302
GRIDFORMAT
  1
GRIDFORMAT_BEGIN
 90
        0
 91
        1
 62
     0
 92
       -2
340
0
 93
        0
 40
0.045
309
GRIDFORMAT_END
 95
       16
302
GRIDFORMAT
  1
GRIDFORMAT_BEGIN
 90
        0
 91
        1
 62
     0
 92
       -2
340
0
 93
        0
 40
0.045
309
GRIDFORMAT_END
 95
       32
302
GRIDFORMAT
  1
GRIDFORMAT_BEGIN
 90
        0
 91
        1
 62
     0
 92
       -2
340
0
 93
        0
 40
0.045
309
GRIDFORMAT_END
309
TABLEFORMAT_END
  1
CELLSTYLE_BEGIN
 90
        1
 91
        1
300
_TITLE
309
CELLSTYLE_END
300
CELLSTYLE
  1
TABLEFORMAT_BEGIN
 90
        5
170
     1
 91
        0
 92
        0
 62
   257
 93
        1
300
CONTENTFORMAT
  1
CONTENTFORMAT_BEGIN
 90
        0
 91
        0
 92
        4
 93
        0
300

 40
0.0
140
1.0
 94
        5
 62
     0
340
21
144
0.18
309
CONTENTFORMAT_END
171
     1
301
MARGIN
  1
CELLMARGIN_BEGIN
 40
0.06
 40
0.06
 40
0.06
 40
0.06
 40
0.18
 40
0.18
309
CELLMARGIN_END
 94
        6
 95
        1
302
GRIDFORMAT
  1
GRIDFORMAT_BEGIN
 90
        0
 91
        1
 62
     0
 92
       -2
340
0
 93
        0
 40
0.045
309
GRIDFORMAT_END
 95
        2
302
GRIDFORMAT
  1
GRIDFORMAT_BEGIN
 90
        0
 91
        1
 62
     0
 92
       -2
340
0
 93
        0
 40
0.045
309
GRIDFORMAT_END
 95
        4
302
GRIDFORMAT
  1
GRIDFORMAT_BEGIN
 90
        0
 91
        1
 62
     0
 92
       -2
340
0
 93
        0
 40
0.045
309
GRIDFORMAT_END
 95
        8
302
GRIDFORMAT
  1
GRIDFORMAT_BEGIN
 90
        0
 91
        1
 62
     0
 92
       -2
340
0
 93
        0
 40
0.045
309
GRIDFORMAT_END
 95
       16
302
GRIDFORMAT
  1
GRIDFORMAT_BEGIN
 90
        0
 91
        1
 62
     0
 92
       -2
340
0
 93
        0
 40
0.045
309
GRIDFORMAT_END
 95
       32
302
GRIDFORMAT
  1
GRIDFORMAT_BEGIN
 90
        0
 91
        1
 62
     0
 92
       -2
340
0
 93
        0
 40
0.045
309
GRIDFORMAT_END
309
TABLEFORMAT_END
  1
CELLSTYLE_BEGIN
 90
        2
 91
        1
300
_HEADER
309
CELLSTYLE_END
300
CELLSTYLE
  1
TABLEFORMAT_BEGIN
 90
        5
170
     1
 91
        0
 92
        0
 62
   257
 93
        1
300
CONTENTFORMAT
  1
CONTENTFORMAT_BEGIN
 90
        0
 91
        0
 92
        4
 93
        0
300

 40
0.0
140
1.0
 94
        2
 62
     0
340
21
144
0.18
309
CONTENTFORMAT_END
171
     1
301
MARGIN
  1
CELLMARGIN_BEGIN
 40
0.06
 40
0.06
 40
0.06
 40
0.06
 40
0.18
 40
0.18
309
CELLMARGIN_END
 94
        6
 95
        1
302
GRIDFORMAT
  1
GRIDFORMAT_BEGIN
 90
        0
 91
        1
 62
     0
 92
       -2
340
0
 93
        0
 40
0.045
309
GRIDFORMAT_END
 95
        2
302
GRIDFORMAT
  1
GRIDFORMAT_BEGIN
 90
        0
 91
        1
 62
     0
 92
       -2
340
0
 93
        0
 40
0.045
309
GRIDFORMAT_END
 95
        4
302
GRIDFORMAT
  1
GRIDFORMAT_BEGIN
 90
        0
 91
        1
 62
     0
 92
       -2
340
0
 93
        0
 40
0.045
309
GRIDFORMAT_END
 95
        8
302
GRIDFORMAT
  1
GRIDFORMAT_BEGIN
 90
        0
 91
        1
 62
     0
 92
       -2
340
0
 93
        0
 40
0.045
309
GRIDFORMAT_END
 95
       16
302
GRIDFORMAT
  1
GRIDFORMAT_BEGIN
 90
        0
 91
        1
 62
     0
 92
       -2
340
0
 93
        0
 40
0.045
309
GRIDFORMAT_END
 95
       32
302
GRIDFORMAT
  1
GRIDFORMAT_BEGIN
 90
        0
 91
        1
 62
     0
 92
       -2
340
0
 93
        0
 40
0.045
309
GRIDFORMAT_END
309
TABLEFORMAT_END
  1
CELLSTYLE_BEGIN
 90
        3
 91
        2
300
_DATA
309
CELLSTYLE_END
  0
ENDSEC
  0
EOF
