  0
SECTION
  2
HEADER
  9
$ACADVER
  1
AC1032
  9
$ACADMAINTVER
 90
      197
  9
$DWGCODEPAGE
  3
ANSI_936
  9
$REQUIREDVERSIONS
160
                 0
  9
$INSBASE
 10
0.0
 20
0.0
 30
0.0
  9
$EXTMIN
 10
5.0
 20
8.999999999999943
 30
0.0
  9
$EXTMAX
 10
1637.0
 20
392.0000000000001
 30
0.0
  9
$LIMMIN
 10
0.0
 20
0.0
  9
$LIMMAX
 10
0.0
 20
0.0
  9
$ORTHOMODE
 70
     0
  9
$REGENMODE
 70
     1
  9
$FILLMODE
 70
     1
  9
$QTEXTMODE
 70
     0
  9
$MIRRTEXT
 70
     0
  9
$LTSCALE
 40
8.0
  9
$ATTMODE
 70
     1
  9
$TEXTSIZE
 40
2.5
  9
$TRACEWID
 40
0.05
  9
$TEXTSTYLE
  7
SIMPLEX
  9
$CLAYER
  8
0
  9
$CELTYPE
  6
ByLayer
  9
$CECOLOR
 62
   256
  9
$CELTSCALE
 40
1.0
  9
$DISPSILH
 70
     0
  9
$DIMSCALE
 40
1.0
  9
$DIMASZ
 40
2.5
  9
$DIMEXO
 40
1.0
  9
$DIMDLI
 40
7.5
  9
$DIMRND
 40
0.0
  9
$DIMDLE
 40
1.25
  9
$DIMEXE
 40
1.25
  9
$DIMTP
 40
0.0
  9
$DIMTM
 40
0.0
  9
$DIMTXT
 40
3.0
  9
$DIMCEN
 40
1.25
  9
$DIMTSZ
 40
0.0
  9
$DIMTOL
 70
     0
  9
$DIMLIM
 70
     0
  9
$DIMTIH
 70
     0
  9
$DIMTOH
 70
     0
  9
$DIMSE1
 70
     0
  9
$DIMSE2
 70
     0
  9
$DIMTAD
 70
     1
  9
$DIMZIN
 70
     8
  9
$DIMBLK
  1

  9
$DIMASO
 70
     1
  9
$DIMSHO
 70
     1
  9
$DIMPOST
  1

  9
$DIMAPOST
  1

  9
$DIMALT
 70
     0
  9
$DIMALTD
 70
     2
  9
$DIMALTF
 40
25.4
  9
$DIMLFAC
 40
1.0
  9
$DIMTOFL
 70
     0
  9
$DIMTVP
 40
2.0
  9
$DIMTIX
 70
     0
  9
$DIMSOXD
 70
     0
  9
$DIMSAH
 70
     0
  9
$DIMBLK1
  1

  9
$DIMBLK2
  1

  9
$DIMSTYLE
  2
Standard
  9
$DIMCLRD
 70
     0
  9
$DIMCLRE
 70
     0
  9
$DIMCLRT
 70
     0
  9
$DIMTFAC
 40
1.0
  9
$DIMGAP
 40
1.25
  9
$DIMJUST
 70
     0
  9
$DIMSD1
 70
     0
  9
$DIMSD2
 70
     0
  9
$DIMTOLJ
 70
     1
  9
$DIMTZIN
 70
     0
  9
$DIMALTZ
 70
     0
  9
$DIMALTTZ
 70
     0
  9
$DIMUPT
 70
     0
  9
$DIMDEC
 70
     3
  9
$DIMTDEC
 70
     4
  9
$DIMALTU
 70
     2
  9
$DIMALTTD
 70
     2
  9
$DIMTXSTY
  7
SIMPLEX
  9
$DIMAUNIT
 70
     0
  9
$DIMADEC
 70
     0
  9
$DIMALTRND
 40
0.0
  9
$DIMAZIN
 70
     0
  9
$DIMDSEP
 70
    46
  9
$DIMATFIT
 70
     3
  9
$DIMFRAC
 70
     0
  9
$DIMLDRBLK
  1

  9
$DIMLUNIT
 70
     2
  9
$DIMLWD
 70
    -2
  9
$DIMLWE
 70
    -2
  9
$DIMTMOVE
 70
     0
  9
$DIMFXL
 40
1.0
  9
$DIMFXLON
 70
     0
  9
$DIMJOGANG
 40
0.7853981633974483
  9
$DIMTFILL
 70
     0
  9
$DIMTFILLCLR
 70
     0
  9
$DIMARCSYM
 70
     0
  9
$DIMLTYPE
  6

  9
$DIMLTEX1
  6

  9
$DIMLTEX2
  6

  9
$DIMTXTDIRECTION
 70
     0
  9
$LUNITS
 70
     2
  9
$LUPREC
 70
     6
  9
$SKETCHINC
 40
0.1
  9
$FILLETRAD
 40
0.0
  9
$AUNITS
 70
     0
  9
$AUPREC
 70
     0
  9
$MENU
  1
.
  9
$ELEVATION
 40
0.0
  9
$PELEVATION
 40
0.0
  9
$THICKNESS
 40
0.0
  9
$LIMCHECK
 70
     0
  9
$CHAMFERA
 40
0.0
  9
$CHAMFERB
 40
0.0
  9
$CHAMFERC
 40
0.0
  9
$CHAMFERD
 40
0.0
  9
$SKPOLY
 70
     0
  9
$TDCREATE
 40
2453354.050451389
  9
$TDUCREATE
 40
2453353.717125822
  9
$TDUPDATE
 40
2457253.635486111
  9
$TDUUPDATE
 40
2457253.302160602
  9
$TDINDWG
 40
0.1486818750
  9
$TDUSRTIMER
 40
0.1484160301
  9
$USRTIMER
 70
     1
  9
$ANGBASE
 50
0.0
  9
$ANGDIR
 70
     0
  9
$PDMODE
 70
     0
  9
$PDSIZE
 40
0.0
  9
$PLINEWID
 40
0.0
  9
$SPLFRAME
 70
     0
  9
$SPLINETYPE
 70
     6
  9
$SPLINESEGS
 70
     8
  9
$HANDSEED
  5
12E
  9
$SURFTAB1
 70
     6
  9
$SURFTAB2
 70
     6
  9
$SURFTYPE
 70
     6
  9
$SURFU
 70
     6
  9
$SURFV
 70
     6
  9
$UCSBASE
  2

  9
$UCSNAME
  2

  9
$UCSORG
 10
0.0
 20
0.0
 30
0.0
  9
$UCSXDIR
 10
1.0
 20
0.0
 30
0.0
  9
$UCSYDIR
 10
0.0
 20
1.0
 30
0.0
  9
$UCSORTHOREF
  2

  9
$UCSORTHOVIEW
 70
     0
  9
$UCSORGTOP
 10
0.0
 20
0.0
 30
0.0
  9
$UCSORGBOTTOM
 10
0.0
 20
0.0
 30
0.0
  9
$UCSORGLEFT
 10
0.0
 20
0.0
 30
0.0
  9
$UCSORGRIGHT
 10
0.0
 20
0.0
 30
0.0
  9
$UCSORGFRONT
 10
0.0
 20
0.0
 30
0.0
  9
$UCSORGBACK
 10
0.0
 20
0.0
 30
0.0
  9
$PUCSBASE
  2

  9
$PUCSNAME
  2

  9
$PUCSORG
 10
0.0
 20
0.0
 30
0.0
  9
$PUCSXDIR
 10
1.0
 20
0.0
 30
0.0
  9
$PUCSYDIR
 10
0.0
 20
1.0
 30
0.0
  9
$PUCSORTHOREF
  2

  9
$PUCSORTHOVIEW
 70
     0
  9
$PUCSORGTOP
 10
0.0
 20
0.0
 30
0.0
  9
$PUCSORGBOTTOM
 10
0.0
 20
0.0
 30
0.0
  9
$PUCSORGLEFT
 10
0.0
 20
0.0
 30
0.0
  9
$PUCSORGRIGHT
 10
0.0
 20
0.0
 30
0.0
  9
$PUCSORGFRONT
 10
0.0
 20
0.0
 30
0.0
  9
$PUCSORGBACK
 10
0.0
 20
0.0
 30
0.0
  9
$USERI1
 70
     0
  9
$USERI2
 70
     0
  9
$USERI3
 70
     0
  9
$USERI4
 70
     0
  9
$USERI5
 70
 32767
  9
$USERR1
 40
0.0
  9
$USERR2
 40
0.0
  9
$USERR3
 40
0.0
  9
$USERR4
 40
0.0
  9
$USERR5
 40
0.0
  9
$WORLDVIEW
 70
     1
  9
$SHADEDGE
 70
     3
  9
$SHADEDIF
 70
    70
  9
$TILEMODE
 70
     1
  9
$MAXACTVP
 70
    16
  9
$PINSBASE
 10
0.0
 20
0.0
 30
0.0
  9
$PLIMCHECK
 70
     0
  9
$PEXTMIN
 10
0.0
 20
0.0
 30
0.0
  9
$PEXTMAX
 10
0.0
 20
0.0
 30
0.0
  9
$PLIMMIN
 10
0.0
 20
0.0
  9
$PLIMMAX
 10
0.0
 20
0.0
  9
$UNITMODE
 70
     0
  9
$VISRETAIN
 70
     0
  9
$PLINEGEN
 70
     0
  9
$PSLTSCALE
 70
     0
  9
$TREEDEPTH
 70
  3020
  9
$CMLSTYLE
  2
Standard
  9
$CMLJUST
 70
     0
  9
$CMLSCALE
 40
1.0
  9
$PROXYGRAPHICS
 70
     1
  9
$MEASUREMENT
 70
     0
  9
$CELWEIGHT
370
    -1
  9
$ENDCAPS
280
     0
  9
$JOINSTYLE
280
     0
  9
$LWDISPLAY
290
     0
  9
$INSUNITS
 70
     0
  9
$HYPERLINKBASE
  1

  9
$STYLESHEET
  1

  9
$XEDIT
290
     1
  9
$CEPSNTYPE
380
     0
  9
$PSTYLEMODE
290
     1
  9
$FINGERPRINTGUID
  2
{037ED1DC-B484-1F46-B189-D01DD8A70BC3}
  9
$VERSIONGUID
  2
{B7759CB0-03EC-469A-A7EA-FCFD9CDF1B97}
  9
$EXTNAMES
290
     1
  9
$PSVPSCALE
 40
0.0
  9
$OLESTARTUP
290
     0
  9
$SORTENTS
280
   127
  9
$INDEXCTL
280
     0
  9
$HIDETEXT
280
     1
  9
$XCLIPFRAME
280
     2
  9
$HALOGAP
280
     0
  9
$OBSCOLOR
 70
   257
  9
$OBSLTYPE
280
     0
  9
$INTERSECTIONDISPLAY
280
     0
  9
$INTERSECTIONCOLOR
 70
   257
  9
$DIMASSOC
280
     0
  9
$PROJECTNAME
  1

  9
$CAMERADISPLAY
290
     0
  9
$LENSLENGTH
 40
50.0
  9
$CAMERAHEIGHT
 40
0.0
  9
$STEPSPERSEC
 40
2.0
  9
$STEPSIZE
 40
6.0
  9
$3DDWFPREC
 40
2.0
  9
$PSOLWIDTH
 40
0.25
  9
$PSOLHEIGHT
 40
4.0
  9
$LOFTANG1
 40
1.570796326794896
  9
$LOFTANG2
 40
1.570796326794896
  9
$LOFTMAG1
 40
0.0
  9
$LOFTMAG2
 40
0.0
  9
$LOFTPARAM
 70
     7
  9
$LOFTNORMALS
280
     1
  9
$LATITUDE
 40
37.795
  9
$LONGITUDE
 40
-122.394
  9
$NORTHDIRECTION
 40
0.0
  9
$TIMEZONE
 70
 -8000
  9
$LIGHTGLYPHDISPLAY
280
     1
  9
$TILEMODELIGHTSYNCH
280
     1
  9
$CMATERIAL
347
2E
  9
$SOLIDHIST
280
     0
  9
$SHOWHIST
280
     1
  9
$DWFFRAME
280
     2
  9
$DGNFRAME
280
     0
  9
$REALWORLDSCALE
290
     1
  9
$INTERFERECOLOR
 62
     1
  9
$INTERFEREOBJVS
345
51
  9
$INTERFEREVPVS
346
52
  9
$CSHADOW
280
     0
  9
$SHADOWPLANELOCATION
 40
0.0
  0
ENDSEC
  0
SECTION
  2
CLASSES
  0
CLASS
  1
ACDBDICTIONARYWDFLT
  2
AcDbDictionaryWithDefault
  3
ObjectDBX Classes
 90
        0
 91
        1
280
     0
281
     0
  0
CLASS
  1
DICTIONARYVAR
  2
AcDbDictionaryVar
  3
ObjectDBX Classes
 90
        0
 91
       11
280
     0
281
     0
  0
CLASS
  1
TABLESTYLE
  2
AcDbTableStyle
  3
ObjectDBX Classes
 90
     4095
 91
        1
280
     0
281
     0
  0
CLASS
  1
MATERIAL
  2
AcDbMaterial
  3
ObjectDBX Classes
 90
     1153
 91
        3
280
     0
281
     0
  0
CLASS
  1
VISUALSTYLE
  2
AcDbVisualStyle
  3
ObjectDBX Classes
 90
     4095
 91
        3
280
     0
281
     0
  0
CLASS
  1
SCALE
  2
AcDbScale
  3
ObjectDBX Classes
 90
     1153
 91
       17
280
     0
281
     0
  0
CLASS
  1
MLEADERSTYLE
  2
AcDbMLeaderStyle
  3
ACDB_MLEADERSTYLE_CLASS
 90
     4095
 91
        0
280
     0
281
     0
  0
CLASS
  1
ACDBSECTIONVIEWSTYLE
  2
AcDbSectionViewStyle
  3
ObjectDBX Classes
 90
     1025
 91
        0
280
     0
281
     0
  0
CLASS
  1
ACDBDETAILVIEWSTYLE
  2
AcDbDetailViewStyle
  3
ObjectDBX Classes
 90
     1025
 91
        0
280
     0
281
     0
  0
CLASS
  1
SOLID_BACKGROUND
  2
AcDbSolidBackground
  3
SCENEOE
 90
     4095
 91
        0
280
     0
281
     0
  0
CLASS
  1
NPOCOLLECTION
  2
AcDbImpNonPersistentObjectsCollection
  3
ObjectDBX Classes
 90
     1153
 91
        0
280
     0
281
     0
  0
CLASS
  1
CELLSTYLEMAP
  2
AcDbCellStyleMap
  3
ObjectDBX Classes
 90
     1152
 91
        1
280
     0
281
     0
  0
ENDSEC
  0
SECTION
  2
TABLES
  0
TABLE
  2
VPORT
  5
22
330
0
100
AcDbSymbolTable
 70
     1
  0
VPORT
  5
23
330
22
100
AcDbSymbolTableRecord
100
AcDbViewportTableRecord
  2
*Active
 70
     0
 10
0.0
 20
0.0
 11
1.0
 21
1.0
 12
654.9246984571919
 22
-143.3041541655918
 13
0.0
 23
0.0
 14
0.1
 24
0.1
 15
0.5
 25
0.5
 16
0.0
 26
0.0
 36
1.0
 17
0.0
 27
0.0
 37
0.0
 40
1350.202786772501
 41
2.311515151515151
 42
50.0
 43
0.0
 44
0.0
 50
0.0
 51
0.0
 71
    16
 72
   500
 73
     1
 74
     1
 75
     0
 76
     0
 77
     0
 78
     0
281
     0
 65
     1
110
0.0
120
0.0
130
0.0
111
1.0
121
0.0
131
0.0
112
0.0
122
1.0
132
0.0
 79
     0
146
0.0
348
24
 60
     3
 61
     5
292
     1
282
     1
141
0.0
142
0.0
 63
   250
421
  3355443
1001
ACAD_NAV_VCDISPLAY
1070
     3
  0
ENDTAB
  0
TABLE
  2
LTYPE
  5
1D
330
0
100
AcDbSymbolTable
 70
     2
  0
LTYPE
  5
1E
330
1D
100
AcDbSymbolTableRecord
100
AcDbLinetypeTableRecord
  2
ByBlock
 70
     0
  3

 72
    65
 73
     0
 40
0.0
  0
LTYPE
  5
1F
330
1D
100
AcDbSymbolTableRecord
100
AcDbLinetypeTableRecord
  2
ByLayer
 70
     0
  3

 72
    65
 73
     0
 40
0.0
  0
LTYPE
  5
11
330
1D
100
AcDbSymbolTableRecord
100
AcDbLinetypeTableRecord
  2
Continuous
 70
     0
  3
Solid line
 72
    65
 73
     0
 40
0.0
  0
LTYPE
  5
EF
330
1D
100
AcDbSymbolTableRecord
100
AcDbLinetypeTableRecord
  2
CENTER
 70
     0
  3
____ _ ____ _ ____ _ ____ _ ____ _ ____ _ ____
 72
    65
 73
     4
 40
2.0
 49
1.25
 74
     4
 75
     0
340
0
 46
1.0
 50
0.0
 44
0.0
 45
0.0
 49
-0.25
 74
     4
 75
     0
340
0
 46
1.0
 50
0.0
 44
0.0
 45
0.0
 49
0.25
 74
     4
 75
     0
340
0
 46
1.0
 50
0.0
 44
0.0
 45
0.0
 49
-0.25
 74
     4
 75
     0
340
0
 46
1.0
 50
0.0
 44
0.0
 45
0.0
  0
ENDTAB
  0
TABLE
  2
LAYER
  5
19
330
0
100
AcDbSymbolTable
 70
     4
  0
LAYER
  5
4
330
19
100
AcDbSymbolTableRecord
100
AcDbLayerTableRecord
  2
0
 70
     0
 62
     7
  6
Continuous
370
    -3
390
5
347
8
348
0
  0
LAYER
  5
EE
330
19
100
AcDbSymbolTableRecord
100
AcDbLayerTableRecord
  2
CEN
 70
     0
 62
     3
  6
CENTER
370
    -3
390
5
347
8
348
0
  0
LAYER
  5
6B
330
19
100
AcDbSymbolTableRecord
100
AcDbLayerTableRecord
  2
LF-LINE
 70
     0
 62
     1
  6
Continuous
370
    -3
390
5
347
8
348
0
  0
LAYER
  5
79
330
19
100
AcDbSymbolTableRecord
100
AcDbLayerTableRecord
  2
COIN-LINE
 70
     0
 62
     4
  6
Continuous
370
    -3
390
5
347
8
348
0
  0
ENDTAB
  0
TABLE
  2
STYLE
  5
1A
330
0
100
AcDbSymbolTable
 70
     2
  0
STYLE
  5
1B
330
1A
100
AcDbSymbolTableRecord
100
AcDbTextStyleTableRecord
  2
Standard
 70
     0
 40
3.0
 41
1.0
 50
0.0
 71
     0
 42
2.5
  3
SIMPLEX
  4

  0
STYLE
  5
4E
330
1A
100
AcDbSymbolTableRecord
100
AcDbTextStyleTableRecord
  2
SIMPLEX
 70
     0
 40
3.0
 41
1.0
 50
0.0
 71
     0
 42
2.5
  3
SIMPLEX.shx
  4

  0
ENDTAB
  0
TABLE
  2
VIEW
  5
20
330
0
100
AcDbSymbolTable
 70
     0
  0
ENDTAB
  0
TABLE
  2
UCS
  5
21
330
0
100
AcDbSymbolTable
 70
     0
  0
ENDTAB
  0
TABLE
  2
APPID
  5
27
330
0
100
AcDbSymbolTable
 70
     2
  0
APPID
  5
28
330
27
100
AcDbSymbolTableRecord
100
AcDbRegAppTableRecord
  2
ACAD
 70
     0
  0
APPID
  5
26
330
27
100
AcDbSymbolTableRecord
100
AcDbRegAppTableRecord
  2
ACAD_NAV_VCDISPLAY
 70
     0
  0
ENDTAB
  0
TABLE
  2
DIMSTYLE
  5
29
330
0
100
AcDbSymbolTable
 70
     1
100
AcDbDimStyleTable
 71
     0
  0
DIMSTYLE
105
53
330
29
100
AcDbSymbolTableRecord
100
AcDbDimStyleTableRecord
  2
Standard
 70
     0
340
1B
  0
ENDTAB
  0
TABLE
  2
BLOCK_RECORD
  5
1
330
0
100
AcDbSymbolTable
 70
     0
  0
BLOCK_RECORD
  5
2
330
1
100
AcDbSymbolTableRecord
100
AcDbBlockTableRecord
  2
*Model_Space
340
13
 70
     0
280
     1
281
     0
  0
BLOCK_RECORD
  5
15
330
1
100
AcDbSymbolTableRecord
100
AcDbBlockTableRecord
  2
*Paper_Space
340
18
 70
     0
280
     1
281
     0
  0
ENDTAB
  0
ENDSEC
  0
SECTION
  2
BLOCKS
  0
BLOCK
  5
3
330
2
100
AcDbEntity
  8
0
100
AcDbBlockBegin
  2
*Model_Space
 70
     0
 10
0.0
 20
0.0
 30
0.0
  3
*Model_Space
  1

  0
ENDBLK
  5
12
330
2
100
AcDbEntity
  8
0
100
AcDbBlockEnd
  0
BLOCK
  5
16
330
15
100
AcDbEntity
 67
     1
  8
0
100
AcDbBlockBegin
  2
*Paper_Space
 70
     0
 10
0.0
 20
0.0
 30
0.0
  3
*Paper_Space
  1

  0
ENDBLK
  5
17
330
15
100
AcDbEntity
 67
     1
  8
0
100
AcDbBlockEnd
  0
ENDSEC
  0
SECTION
  2
ENTITIES
  0
TEXT
  5
65
330
2
100
AcDbEntity
  8
0
100
AcDbText
 10
1528.8
 20
-368.175
 30
0.0
 40
2.5
  1
2-092092-SMD3030(FRAME)-6
  7
SIMPLEX
 72
     1
 11
1559.0
 21
-368.9999999999999
 31
0.0
100
AcDbText
 73
     1
  0
TEXT
  5
66
330
2
100
AcDbEntity
  8
0
100
AcDbText
 10
1540.125
 20
-379.4999999999999
 30
0.0
 40
2.5
  1
MM
  7
SIMPLEX
 72
     1
 11
1542.5
 21
-377.0
 31
0.0
100
AcDbText
 73
     3
  0
TEXT
  5
67
330
2
100
AcDbEntity
  8
0
100
AcDbText
 10
1602.325
 20
-356.9999999999999
 30
0.0
 40
2.5
  1
NOT TO SCALE
  7
SIMPLEX
 72
     2
 11
1630.0
 21
-356.9999999999999
 31
0.0
100
AcDbText
  0
TEXT
  5
68
330
2
100
AcDbEntity
  8
0
100
AcDbText
 10
1570.1375
 20
-379.4999999999999
 30
0.0
 40
2.5
  1
%%P.050
  7
SIMPLEX
 72
     1
 11
1575.5
 21
-377.0
 31
0.0
100
AcDbText
 73
     3
  0
TEXT
  5
69
330
2
100
AcDbEntity
  8
0
100
AcDbText
 10
1622.0
 20
-378.3735671831231
 30
0.0
 40
2.5
  1
6
  7
SIMPLEX
 11
1622.0
 21
-377.1235671831231
 31
0.0
100
AcDbText
 73
     2
  0
TEXT
  5
6A
330
2
100
AcDbEntity
  8
LF-LINE
100
AcDbText
 10
1545.0
 20
-343.3999999999999
 30
0.0
 40
4.799999999999999
  1
SMD3030 LEADLESS
  7
SIMPLEX
 11
1545.0
 21
-341.0
 31
0.0
100
AcDbText
 73
     2
  0
TEXT
  5
6C
330
2
100
AcDbEntity
  8
0
100
AcDbText
 10
1602.5
 20
-378.3735671831231
 30
0.0
 40
2.5
  1
6
  7
SIMPLEX
 11
1602.5
 21
-377.1235671831231
 31
0.0
100
AcDbText
 73
     2
  0
TEXT
  5
6D
330
2
100
AcDbEntity
  8
0
100
AcDbText
 10
1611.1
 20
-366.25
 30
0.0
 40
2.5
  1
C
  7
SIMPLEX
 72
     1
 11
1612.0
 21
-364.9999999999999
 31
0.0
100
AcDbText
 73
     2
  0
TEXT
  5
6E
330
2
100
AcDbEntity
  8
0
100
AcDbText
 10
1555.55
 20
-356.1749999999999
 30
0.0
 40
2.5
  1
AOT
  7
SIMPLEX
 72
     1
 11
1559.0
 21
-356.9999999999999
 31
0.0
100
AcDbText
 73
     1
  0
TEXT
  5
6F
330
2
100
AcDbEntity
  8
0
100
AcDbText
 10
1587.387187100757
 20
-224.8261062941282
 30
0.0
 40
2.625
  1
APR 24 14
  7
SIMPLEX
100
AcDbText
  0
TEXT
  5
70
330
2
100
AcDbEntity
  8
0
100
AcDbText
 10
1395.890724489589
 20
-224.8261062941282
 30
0.0
 40
2.625
  1
FIRST RELEASE (CONVERT FROM 2-092092-SMD3030-6(FRAME) PRELIM-0)
  7
SIMPLEX
100
AcDbText
  0
TEXT
  5
71
330
2
100
AcDbEntity
  8
0
100
AcDbText
 10
1382.487089908352
 20
-217.8261062941282
 30
0.0
 40
2.625
  1
REV
  7
SIMPLEX
100
AcDbText
  0
TEXT
  5
72
330
2
100
AcDbEntity
  8
0
100
AcDbText
 10
1592.643511921684
 20
-217.8261062941282
 30
0.0
 40
2.625
  1
DATE
  7
SIMPLEX
100
AcDbText
  0
TEXT
  5
73
330
2
100
AcDbEntity
  8
0
100
AcDbText
 10
1473.993027808425
 20
-217.8261062941282
 30
0.0
 40
2.625
  1
DESCRIPTION
  7
SIMPLEX
100
AcDbText
  0
LINE
  5
74
330
2
100
AcDbEntity
  8
LF-LINE
100
AcDbLine
 10
1610.537477247864
 20
-220.0136062941283
 30
0.0
 11
1379.666014636696
 21
-220.0136062941283
 31
0.0
  0
LINE
  5
75
330
2
100
AcDbEntity
  8
LF-LINE
100
AcDbLine
 10
1584.287477247864
 20
-213.0136062941283
 30
0.0
 11
1584.287477247864
 21
-257.0136062941283
 31
0.0
  0
LINE
  5
76
330
2
100
AcDbEntity
  8
LF-LINE
100
AcDbLine
 10
1392.791014636696
 20
-213.0136062941283
 30
0.0
 11
1392.791014636696
 21
-257.0136062941283
 31
0.0
  0
LWPOLYLINE
  5
77
330
2
100
AcDbEntity
  8
LF-LINE
100
AcDbPolyline
 90
        4
 70
     1
 43
0.875
 10
1379.666014636696
 20
-213.1650772439736
 10
1610.537477247864
 20
-213.1650772439736
 10
1610.537477247864
 20
-257.0136062941283
 10
1379.666014636696
 20
-257.0136062941283
  0
TEXT
  5
78
330
2
100
AcDbEntity
  8
COIN-LINE
100
AcDbText
 10
1385.158967858398
 20
-225.4336682557588
 30
0.0
 40
2.362499999999999
  1
0
  7
SIMPLEX
100
AcDbText
  0
LINE
  5
7A
330
2
100
AcDbEntity
  8
COIN-LINE
100
AcDbLine
 10
1386.072146579984
 20
-220.7112953825989
 30
0.0
 11
1388.697146579984
 21
-225.9612953825989
 31
0.0
  0
LINE
  5
7B
330
2
100
AcDbEntity
  8
COIN-LINE
100
AcDbLine
 10
1386.072146579984
 20
-220.7112953825989
 30
0.0
 11
1383.447146579984
 21
-225.9612953825989
 31
0.0
  0
LINE
  5
7C
330
2
100
AcDbEntity
  8
COIN-LINE
100
AcDbLine
 10
1383.447146579984
 20
-225.9612953825989
 30
0.0
 11
1388.697146579984
 21
-225.9612953825989
 31
0.0
  0
LINE
  5
7D
330
2
100
AcDbEntity
  8
LF-LINE
100
AcDbLine
 10
1379.666014636696
 20
-55.94226849262435
 30
0.0
 11
1610.537477247864
 21
-55.94226849262549
 31
0.0
  0
LINE
  5
7E
330
2
100
AcDbEntity
  8
LF-LINE
100
AcDbLine
 10
1379.666014636696
 20
-62.9422684926248
 30
0.0
 11
1610.537477247864
 21
-62.9422684926256
 31
0.0
  0
LINE
  5
7F
330
2
100
AcDbEntity
  8
LF-LINE
100
AcDbLine
 10
1379.666014636696
 20
-69.94226849262446
 30
0.0
 11
1610.537477247864
 21
-69.9422684926256
 31
0.0
  0
LINE
  5
80
330
2
100
AcDbEntity
  8
LF-LINE
100
AcDbLine
 10
1379.666014636696
 20
-76.94226849262481
 30
0.0
 11
1610.537477247864
 21
-76.9422684926256
 31
0.0
  0
LINE
  5
81
330
2
100
AcDbEntity
  8
LF-LINE
100
AcDbLine
 10
1379.666014636696
 20
-83.94226849262446
 30
0.0
 11
1610.537477247864
 21
-83.9422684926256
 31
0.0
  0
LINE
  5
82
330
2
100
AcDbEntity
  8
LF-LINE
100
AcDbLine
 10
1379.666014636696
 20
-90.94226849262435
 30
0.0
 11
1610.537477247864
 21
-90.94226849262605
 31
0.0
  0
LINE
  5
83
330
2
100
AcDbEntity
  8
LF-LINE
100
AcDbLine
 10
1379.666014636696
 20
-97.94226849262436
 30
0.0
 11
1610.537477247864
 21
-97.94226849262607
 31
0.0
  0
LINE
  5
84
330
2
100
AcDbEntity
  8
LF-LINE
100
AcDbLine
 10
1379.666014636696
 20
-104.9422684926243
 30
0.0
 11
1610.537477247864
 21
-104.942268492626
 31
0.0
  0
LINE
  5
85
330
2
100
AcDbEntity
  8
LF-LINE
100
AcDbLine
 10
1379.666014636696
 20
-118.9422684926223
 30
0.0
 11
1610.537477247864
 21
-118.942268492624
 31
0.0
  0
LINE
  5
86
330
2
100
AcDbEntity
  8
LF-LINE
100
AcDbLine
 10
1379.666014636696
 20
-125.9422684926223
 30
0.0
 11
1610.537477247864
 21
-125.942268492624
 31
0.0
  0
LINE
  5
87
330
2
100
AcDbEntity
  8
LF-LINE
100
AcDbLine
 10
1379.666014636696
 20
-132.9422684926223
 30
0.0
 11
1610.537477247864
 21
-132.942268492624
 31
0.0
  0
LINE
  5
88
330
2
100
AcDbEntity
  8
LF-LINE
100
AcDbLine
 10
1379.666014636696
 20
-139.9422684926223
 30
0.0
 11
1610.537477247864
 21
-139.942268492624
 31
0.0
  0
LINE
  5
89
330
2
100
AcDbEntity
  8
LF-LINE
100
AcDbLine
 10
1379.666014636696
 20
-146.9422684926223
 30
0.0
 11
1610.537477247864
 21
-146.9422684926239
 31
0.0
  0
LINE
  5
8A
330
2
100
AcDbEntity
  8
LF-LINE
100
AcDbLine
 10
1388.416014636695
 20
-153.9422684926223
 30
0.0
 11
1610.537477247864
 21
-153.942268492624
 31
0.0
  0
TEXT
  5
8B
330
2
100
AcDbEntity
  8
0
100
AcDbText
 10
1383.161639636696
 20
-74.75476849262481
 30
0.0
 40
2.625
  1
3
  7
SIMPLEX
 72
     4
 11
1384.041014636696
 21
-73.4422684926248
 31
0.0
100
AcDbText
  0
TEXT
  5
8C
330
2
100
AcDbEntity
  8
0
100
AcDbText
 10
1383.161639636696
 20
-67.75476849262481
 30
0.0
 40
2.625
  1
2
  7
SIMPLEX
 72
     4
 11
1384.041014636696
 21
-66.4422684926248
 31
0.0
100
AcDbText
  0
TEXT
  5
8D
330
2
100
AcDbEntity
  8
0
100
AcDbText
 10
1383.096014636696
 20
-81.75476849262446
 30
0.0
 40
2.625
  1
4
  7
SIMPLEX
 72
     4
 11
1384.041014636696
 21
-80.44226849262447
 31
0.0
100
AcDbText
  0
TEXT
  5
8E
330
2
100
AcDbEntity
  8
0
100
AcDbText
 10
1383.161639636696
 20
-88.75476849262446
 30
0.0
 40
2.625
  1
5
  7
SIMPLEX
 72
     4
 11
1384.041014636696
 21
-87.44226849262446
 31
0.0
100
AcDbText
  0
TEXT
  5
8F
330
2
100
AcDbEntity
  8
0
100
AcDbText
 10
1383.240389636696
 20
-95.75476849262447
 30
0.0
 40
2.625
  1
6
  7
SIMPLEX
 72
     4
 11
1384.041014636696
 21
-94.44226849262447
 31
0.0
100
AcDbText
  0
TEXT
  5
90
330
2
100
AcDbEntity
  8
0
100
AcDbText
 10
1383.240389636696
 20
-116.7547684926223
 30
0.0
 40
2.625
  1
9
  7
SIMPLEX
 72
     4
 11
1384.041014636696
 21
-115.4422684926223
 31
0.0
100
AcDbText
  0
TEXT
  5
91
330
2
100
AcDbEntity
  8
0
100
AcDbText
 10
1382.164139636696
 20
-123.7547684926223
 30
0.0
 40
2.625
  1
10
  7
SIMPLEX
 72
     4
 11
1384.041014636696
 21
-122.4422684926223
 31
0.0
100
AcDbText
  0
TEXT
  5
92
330
2
100
AcDbEntity
  8
0
100
AcDbText
 10
1382.728514636696
 20
-130.7547684926223
 30
0.0
 40
2.625
  1
11
  7
SIMPLEX
 72
     4
 11
1384.041014636696
 21
-129.4422684926223
 31
0.0
100
AcDbText
  0
TEXT
  5
93
330
2
100
AcDbEntity
  8
0
100
AcDbText
 10
1382.164139636696
 20
-137.7547684926223
 30
0.0
 40
2.625
  1
12
  7
SIMPLEX
 72
     4
 11
1384.041014636696
 21
-136.4422684926223
 31
0.0
100
AcDbText
  0
TEXT
  5
94
330
2
100
AcDbEntity
  8
0
100
AcDbText
 10
1382.164139636696
 20
-144.7547684926223
 30
0.0
 40
2.625
  1
13
  7
SIMPLEX
 72
     4
 11
1384.041014636696
 21
-143.4422684926223
 31
0.0
100
AcDbText
  0
TEXT
  5
95
330
2
100
AcDbEntity
  8
0
100
AcDbText
 10
1382.098514636695
 20
-151.7547684926223
 30
0.0
 40
2.624999999999995
  1
14
  7
SIMPLEX
 72
     4
 11
1384.041014636695
 21
-150.4422684926223
 31
0.0
100
AcDbText
  0
TEXT
  5
96
330
2
100
AcDbEntity
  8
0
100
AcDbText
 10
1382.164139636695
 20
-186.5320792839244
 30
0.0
 40
2.625
  1
15
  7
SIMPLEX
 72
     4
 11
1384.041014636695
 21
-185.2195792839244
 31
0.0
100
AcDbText
  0
TEXT
  5
97
330
2
100
AcDbEntity
  8
0
100
AcDbText
 10
1381.078367559735
 20
-46.93666420266032
 30
0.0
 40
2.625
  1
NOTES :
  7
SIMPLEX
100
AcDbText
  0
TEXT
  5
98
330
2
100
AcDbEntity
  8
0
100
AcDbText
 10
1383.726014636696
 20
-60.75476849262447
 30
0.0
 40
2.625
  1
1
  7
SIMPLEX
 72
     4
 11
1384.041014636696
 21
-59.44226849262446
 31
0.0
100
AcDbText
  0
TEXT
  5
99
330
2
100
AcDbEntity
  8
0
100
AcDbText
 10
1393.415406292995
 20
-88.75476849262515
 30
0.0
 40
2.625
  1
MISALIGNMENT
  7
SIMPLEX
100
AcDbText
  0
LINE
  5
9A
330
2
100
AcDbEntity
  8
LF-LINE
100
AcDbLine
 10
1384.041014636696
 20
-48.94226849262435
 30
0.0
 11
1606.162477247863
 21
-48.94226849262435
 31
0.0
  0
TEXT
  5
9B
330
2
100
AcDbEntity
  8
0
100
AcDbText
 10
1393.415406292995
 20
-116.7547684926235
 30
0.0
 40
2.625
  1
COIL SET
  7
SIMPLEX
100
AcDbText
  0
LWPOLYLINE
  5
9C
330
2
100
AcDbEntity
  8
LF-LINE
100
AcDbPolyline
 90
        4
 70
     1
 43
0.875
 10
1610.537477247864
 20
-210.0837926994757
 10
1610.537477247864
 20
-48.94226849262435
 10
1379.666014636696
 20
-48.94226849262435
 10
1379.666014636696
 20
-210.0837926994741
  0
LINE
  5
9D
330
2
100
AcDbEntity
  8
LF-LINE
100
AcDbLine
 10
1379.666014636696
 20
-111.9422684926246
 30
0.0
 11
1610.537477247864
 21
-111.9422684926228
 31
0.0
  0
LINE
  5
9E
330
2
100
AcDbEntity
  8
LF-LINE
100
AcDbLine
 10
1584.287477247864
 20
-48.94226849262435
 30
0.0
 11
1584.287477247863
 21
-146.9422684926236
 31
0.0
  0
LINE
  5
9F
330
2
100
AcDbEntity
  8
LF-LINE
100
AcDbLine
 10
1558.037477247864
 20
-48.94226849262435
 30
0.0
 11
1558.037477247864
 21
-146.942268492623
 31
0.0
  0
LINE
  5
A0
330
2
100
AcDbEntity
  8
LF-LINE
100
AcDbLine
 10
1531.787477247864
 20
-48.94226849262423
 30
0.0
 11
1531.787477247864
 21
-146.9422684926232
 31
0.0
  0
TEXT
  5
A1
330
2
100
AcDbEntity
  8
0
100
AcDbText
 10
1393.415406292995
 20
-74.75476849262571
 30
0.0
 40
2.625
  1
VERTICAL BURR
  7
SIMPLEX
100
AcDbText
  0
TEXT
  5
A2
330
2
100
AcDbEntity
  8
0
100
AcDbText
 10
1393.415406292995
 20
-81.75476849262571
 30
0.0
 40
2.625
  1
HORIZONTAL BURR
  7
SIMPLEX
100
AcDbText
  0
TEXT
  5
A3
330
2
100
AcDbEntity
  8
0
100
AcDbText
 10
1382.164139636696
 20
-200.8962926994741
 30
0.0
 40
2.625
  1
17
  7
SIMPLEX
 72
     4
 11
1384.041014636696
 21
-199.5837926994741
 31
0.0
100
AcDbText
  0
TEXT
  5
A4
330
2
100
AcDbEntity
  8
0
100
AcDbText
 10
1382.164139636696
 20
-207.8962926994741
 30
0.0
 40
2.625
  1
18
  7
SIMPLEX
 72
     4
 11
1384.041014636696
 21
-206.5837926994741
 31
0.0
100
AcDbText
  0
TEXT
  5
A5
330
2
100
AcDbEntity
  8
0
100
AcDbText
 10
1393.415406292995
 20
-95.75476849262798
 30
0.0
 40
2.625
  1
PAD FLATNESS
  7
SIMPLEX
100
AcDbText
  0
TEXT
  5
A6
330
2
100
AcDbEntity
  8
0
100
AcDbText
 10
1393.415406292995
 20
-123.7547684926235
 30
0.0
 40
2.625
  1
CAMBER
  7
SIMPLEX
100
AcDbText
  0
LINE
  5
A7
330
2
100
AcDbEntity
  8
LF-LINE
100
AcDbLine
 10
1379.666014636696
 20
-182.083792699474
 30
0.0
 11
1610.537477247864
 21
-182.0837926994757
 31
0.0
  0
TEXT
  5
A8
330
2
100
AcDbEntity
  8
0
100
AcDbText
 10
1393.415406292995
 20
-152.2861825878096
 30
0.0
 40
2.625
  1
PLATING SCHEME OPTION :
  7
SIMPLEX
100
AcDbText
  0
TEXT
  5
A9
330
2
100
AcDbEntity
  8
0
100
AcDbText
 10
1393.415406292995
 20
-102.7547684926279
 30
0.0
 40
2.625
  1
PAD TILT
  7
SIMPLEX
100
AcDbText
  0
TEXT
  5
AA
330
2
100
AcDbEntity
  8
0
100
AcDbText
 10
1393.415406292995
 20
-109.7547684926279
 30
0.0
 40
2.625
  1
PAD PLANARITY
  7
SIMPLEX
100
AcDbText
  0
TEXT
  5
AB
330
2
100
AcDbEntity
  8
0
100
AcDbText
 10
1393.415406292995
 20
-130.7547684926236
 30
0.0
 40
2.625
  1
CROSS BOW
  7
SIMPLEX
100
AcDbText
  0
TEXT
  5
AC
330
2
100
AcDbEntity
  8
0
100
AcDbText
 10
1393.415406292995
 20
-137.7547684926236
 30
0.0
 40
2.625
  1
LEAD TWIST/LEAD TILT
  7
SIMPLEX
100
AcDbText
  0
TEXT
  5
AD
330
2
100
AcDbEntity
  8
0
100
AcDbText
 10
1393.415406292995
 20
-144.7547684926236
 30
0.0
 40
2.625
  1
FRAME TWIST
  7
SIMPLEX
100
AcDbText
  0
TEXT
  5
AE
330
2
100
AcDbEntity
  8
0
100
AcDbText
 10
1393.415406292995
 20
-186.8962926994745
 30
0.0
 40
2.625
  1
PART TO BE FREE OF RUST, KINKS, BENDS, WRINKLES, OR SCRATCHES DEEPER THAN 0.008MM
  7
SIMPLEX
100
AcDbText
  0
TEXT
  5
AF
330
2
100
AcDbEntity
  8
0
100
AcDbText
 10
1393.415406292995
 20
-193.8962926994745
 30
0.0
 40
2.625
  1
INTERNAL LEAD TIP DIMENSIONS ARE GIVEN VALUES
  7
SIMPLEX
100
AcDbText
  0
TEXT
  5
B0
330
2
100
AcDbEntity
  8
0
100
AcDbText
 10
1393.415406292995
 20
-200.8962926994745
 30
0.0
 40
2.625
  1
DIMENSION QUADRANT IS SYMMETRICAL FOR ALL QUADRANTS, EXCEPT OTHERWISE SHOWN
  7
SIMPLEX
100
AcDbText
  0
TEXT
  5
B1
330
2
100
AcDbEntity
  8
0
100
AcDbText
 10
1393.415406292995
 20
-207.8962926994746
 30
0.0
 40
2.625
  1
STRIP NUMBER TO BE ADDED ON SIDE RAIL
  7
SIMPLEX
100
AcDbText
  0
LINE
  5
B2
330
2
100
AcDbEntity
  8
LF-LINE
100
AcDbLine
 10
1379.666014636696
 20
-182.0837926994741
 30
0.0
 11
1610.537477247864
 21
-182.0837926994757
 31
0.0
  0
TEXT
  5
B3
330
2
100
AcDbEntity
  8
0
100
AcDbText
 10
1593.173102247863
 20
-53.75476849262423
 30
0.0
 40
2.625
  1
MAX.
  7
SIMPLEX
 72
     4
 11
1597.412477247863
 21
-52.44226849262424
 31
0.0
100
AcDbText
  0
TEXT
  5
B4
330
2
100
AcDbEntity
  8
0
100
AcDbText
 10
1566.804977247864
 20
-53.75476849262423
 30
0.0
 40
2.625
  1
NOM.
  7
SIMPLEX
 72
     4
 11
1571.162477247864
 21
-52.44226849262424
 31
0.0
100
AcDbText
  0
TEXT
  5
B5
330
2
100
AcDbEntity
  8
0
100
AcDbText
 10
1541.408102247864
 20
-53.75476849262423
 30
0.0
 40
2.625
  1
MIN.
  7
SIMPLEX
 72
     4
 11
1544.912477247864
 21
-52.44226849262424
 31
0.0
100
AcDbText
  0
TEXT
  5
B6
330
2
100
AcDbEntity
  8
0
100
AcDbText
 10
1592.162477247864
 20
-88.75476849262712
 30
0.0
 40
2.625000000000085
  1
0.020
  7
SIMPLEX
 72
     4
 11
1597.412477247864
 21
-87.44226849262707
 31
0.0
100
AcDbText
  0
TEXT
  5
B7
330
2
100
AcDbEntity
  8
0
100
AcDbText
 10
1570.046852247864
 20
-88.00664349262708
 30
0.0
 40
2.625
  1
-
  7
SIMPLEX
 72
     4
 11
1571.162477247864
 21
-87.44226849262707
 31
0.0
100
AcDbText
  0
TEXT
  5
B8
330
2
100
AcDbEntity
  8
0
100
AcDbText
 10
1543.796852247864
 20
-88.00664349262708
 30
0.0
 40
2.625
  1
-
  7
SIMPLEX
 72
     4
 11
1544.912477247864
 21
-87.44226849262707
 31
0.0
100
AcDbText
  0
TEXT
  5
B9
330
2
100
AcDbEntity
  8
0
100
AcDbText
 10
1592.162477247864
 20
-116.754768492625
 30
0.0
 40
2.625000000000085
  1
0.250
  7
SIMPLEX
 72
     4
 11
1597.412477247864
 21
-115.442268492625
 31
0.0
100
AcDbText
  0
TEXT
  5
BA
330
2
100
AcDbEntity
  8
0
100
AcDbText
 10
1570.046852247864
 20
-116.006643492625
 30
0.0
 40
2.625
  1
-
  7
SIMPLEX
 72
     4
 11
1571.162477247864
 21
-115.442268492625
 31
0.0
100
AcDbText
  0
TEXT
  5
BB
330
2
100
AcDbEntity
  8
0
100
AcDbText
 10
1543.796852247864
 20
-116.006643492625
 30
0.0
 40
2.625
  1
-
  7
SIMPLEX
 72
     4
 11
1544.912477247864
 21
-115.442268492625
 31
0.0
100
AcDbText
  0
TEXT
  5
BC
330
2
100
AcDbEntity
  8
0
100
AcDbText
 10
1570.046852247864
 20
-74.00664349262719
 30
0.0
 40
2.625
  1
-
  7
SIMPLEX
 72
     4
 11
1571.162477247864
 21
-73.44226849262719
 31
0.0
100
AcDbText
  0
TEXT
  5
BD
330
2
100
AcDbEntity
  8
0
100
AcDbText
 10
1543.796852247864
 20
-74.00664349262719
 30
0.0
 40
2.625
  1
-
  7
SIMPLEX
 72
     4
 11
1544.912477247864
 21
-73.44226849262719
 31
0.0
100
AcDbText
  0
TEXT
  5
BE
330
2
100
AcDbEntity
  8
0
100
AcDbText
 10
1592.162477247864
 20
-74.75476849262723
 30
0.0
 40
2.625000000000085
  1
0.025
  7
SIMPLEX
 72
     4
 11
1597.412477247864
 21
-73.44226849262719
 31
0.0
100
AcDbText
  0
TEXT
  5
BF
330
2
100
AcDbEntity
  8
0
100
AcDbText
 10
1570.046852247864
 20
-81.0066434926272
 30
0.0
 40
2.625
  1
-
  7
SIMPLEX
 72
     4
 11
1571.162477247864
 21
-80.44226849262718
 31
0.0
100
AcDbText
  0
TEXT
  5
C0
330
2
100
AcDbEntity
  8
0
100
AcDbText
 10
1543.796852247864
 20
-81.0066434926272
 30
0.0
 40
2.625
  1
-
  7
SIMPLEX
 72
     4
 11
1544.912477247864
 21
-80.44226849262718
 31
0.0
100
AcDbText
  0
TEXT
  5
C1
330
2
100
AcDbEntity
  8
0
100
AcDbText
 10
1592.162477247864
 20
-81.75476849262723
 30
0.0
 40
2.625000000000085
  1
0.025
  7
SIMPLEX
 72
     4
 11
1597.412477247864
 21
-80.44226849262718
 31
0.0
100
AcDbText
  0
TEXT
  5
C2
330
2
100
AcDbEntity
  8
0
100
AcDbText
 10
1570.046852247864
 20
-95.00664349262946
 30
0.0
 40
2.625
  1
-
  7
SIMPLEX
 72
     4
 11
1571.162477247864
 21
-94.44226849262946
 31
0.0
100
AcDbText
  0
TEXT
  5
C3
330
2
100
AcDbEntity
  8
0
100
AcDbText
 10
1543.796852247864
 20
-95.00664349262946
 30
0.0
 40
2.625
  1
-
  7
SIMPLEX
 72
     4
 11
1544.912477247864
 21
-94.44226849262946
 31
0.0
100
AcDbText
  0
TEXT
  5
C4
330
2
100
AcDbEntity
  8
0
100
AcDbText
 10
1585.416227247864
 20
-96.43726849262954
 30
0.0
 40
2.625000000000085
  1
0.010/2.540
  7
SIMPLEX
 72
     4
 11
1597.412477247864
 21
-94.44226849262946
 31
0.0
100
AcDbText
  0
TEXT
  5
C5
330
2
100
AcDbEntity
  8
0
100
AcDbText
 10
1570.046852247864
 20
-123.006643492625
 30
0.0
 40
2.625
  1
-
  7
SIMPLEX
 72
     4
 11
1571.162477247864
 21
-122.442268492625
 31
0.0
100
AcDbText
  0
TEXT
  5
C6
330
2
100
AcDbEntity
  8
0
100
AcDbText
 10
1543.796852247864
 20
-123.006643492625
 30
0.0
 40
2.625
  1
-
  7
SIMPLEX
 72
     4
 11
1544.912477247864
 21
-122.442268492625
 31
0.0
100
AcDbText
  0
TEXT
  5
C7
330
2
100
AcDbEntity
  8
0
100
AcDbText
 10
1592.241227247864
 20
-123.7547684926251
 30
0.0
 40
2.625000000000085
  1
0.076
  7
SIMPLEX
 72
     4
 11
1597.412477247864
 21
-122.442268492625
 31
0.0
100
AcDbText
  0
TEXT
  5
C8
330
2
100
AcDbEntity
  8
0
100
AcDbText
 10
1570.046852247864
 20
-102.0066434926294
 30
0.0
 40
2.625
  1
-
  7
SIMPLEX
 72
     4
 11
1571.162477247864
 21
-101.4422684926294
 31
0.0
100
AcDbText
  0
TEXT
  5
C9
330
2
100
AcDbEntity
  8
0
100
AcDbText
 10
1543.796852247864
 20
-102.0066434926294
 30
0.0
 40
2.625
  1
-
  7
SIMPLEX
 72
     4
 11
1544.912477247864
 21
-101.4422684926294
 31
0.0
100
AcDbText
  0
TEXT
  5
CA
330
2
100
AcDbEntity
  8
0
100
AcDbText
 10
1585.166852247864
 20
-103.4372684926295
 30
0.0
 40
2.625000000000085
  1
0.025/2.540
  7
SIMPLEX
 72
     4
 11
1597.412477247864
 21
-101.4422684926294
 31
0.0
100
AcDbText
  0
TEXT
  5
CB
330
2
100
AcDbEntity
  8
0
100
AcDbText
 10
1596.296852247864
 20
-109.0066434926294
 30
0.0
 40
2.625000000000085
  1
-
  7
SIMPLEX
 72
     4
 11
1597.412477247864
 21
-108.4422684926295
 31
0.0
100
AcDbText
  0
TEXT
  5
CC
330
2
100
AcDbEntity
  8
0
100
AcDbText
 10
1564.534352247864
 20
-109.7547684926294
 30
0.0
 40
2.625
  1
%%p0.102
  7
SIMPLEX
 72
     4
 11
1571.162477247864
 21
-108.4422684926295
 31
0.0
100
AcDbText
  0
TEXT
  5
CD
330
2
100
AcDbEntity
  8
0
100
AcDbText
 10
1543.796852247864
 20
-109.0066434926294
 30
0.0
 40
2.625
  1
-
  7
SIMPLEX
 72
     4
 11
1544.912477247864
 21
-108.4422684926295
 31
0.0
100
AcDbText
  0
TEXT
  5
CE
330
2
100
AcDbEntity
  8
0
100
AcDbText
 10
1592.162477247864
 20
-130.7547684926251
 30
0.0
 40
2.625000000000085
  1
0.200
  7
SIMPLEX
 72
     4
 11
1597.412477247864
 21
-129.4422684926251
 31
0.0
100
AcDbText
  0
TEXT
  5
CF
330
2
100
AcDbEntity
  8
0
100
AcDbText
 10
1570.046852247864
 20
-130.0066434926251
 30
0.0
 40
2.625
  1
-
  7
SIMPLEX
 72
     4
 11
1571.162477247864
 21
-129.4422684926251
 31
0.0
100
AcDbText
  0
TEXT
  5
D0
330
2
100
AcDbEntity
  8
0
100
AcDbText
 10
1543.796852247864
 20
-130.0066434926251
 30
0.0
 40
2.625
  1
-
  7
SIMPLEX
 72
     4
 11
1544.912477247864
 21
-129.4422684926251
 31
0.0
100
AcDbText
  0
TEXT
  5
D1
330
2
100
AcDbEntity
  8
0
100
AcDbText
 10
1594.039352247864
 20
-137.7547684926252
 30
0.0
 40
2.625000000000234
  1
2.5%%d
  7
SIMPLEX
 72
     4
 11
1597.412477247864
 21
-136.442268492625
 31
0.0
100
AcDbText
  0
TEXT
  5
D2
330
2
100
AcDbEntity
  8
0
100
AcDbText
 10
1570.046852247864
 20
-137.0066434926251
 30
0.0
 40
2.625
  1
-
  7
SIMPLEX
 72
     4
 11
1571.162477247864
 21
-136.442268492625
 31
0.0
100
AcDbText
  0
TEXT
  5
D3
330
2
100
AcDbEntity
  8
0
100
AcDbText
 10
1543.796852247864
 20
-137.0066434926251
 30
0.0
 40
2.625
  1
-
  7
SIMPLEX
 72
     4
 11
1544.912477247864
 21
-136.442268492625
 31
0.0
100
AcDbText
  0
TEXT
  5
D4
330
2
100
AcDbEntity
  8
0
100
AcDbText
 10
1592.411852247864
 20
-144.7547684926251
 30
0.0
 40
2.625000000000085
  1
0.100
  7
SIMPLEX
 72
     4
 11
1597.412477247864
 21
-143.442268492625
 31
0.0
100
AcDbText
  0
TEXT
  5
D5
330
2
100
AcDbEntity
  8
0
100
AcDbText
 10
1570.046852247864
 20
-144.0066434926251
 30
0.0
 40
2.625
  1
-
  7
SIMPLEX
 72
     4
 11
1571.162477247864
 21
-143.442268492625
 31
0.0
100
AcDbText
  0
TEXT
  5
D6
330
2
100
AcDbEntity
  8
0
100
AcDbText
 10
1543.796852247864
 20
-144.0066434926251
 30
0.0
 40
2.625
  1
-
  7
SIMPLEX
 72
     4
 11
1544.912477247864
 21
-143.442268492625
 31
0.0
100
AcDbText
  0
LINE
  5
D7
330
2
100
AcDbEntity
  8
LF-LINE
100
AcDbLine
 10
1379.666014636696
 20
-189.083792699474
 30
0.0
 11
1610.537477247864
 21
-189.0837926994757
 31
0.0
  0
LINE
  5
D8
330
2
100
AcDbEntity
  8
LF-LINE
100
AcDbLine
 10
1379.666014636696
 20
-196.083792699474
 30
0.0
 11
1610.537477247864
 21
-196.0837926994757
 31
0.0
  0
LINE
  5
D9
330
2
100
AcDbEntity
  8
LF-LINE
100
AcDbLine
 10
1379.666014636696
 20
-203.083792699474
 30
0.0
 11
1610.537477247864
 21
-203.0837926994757
 31
0.0
  0
LWPOLYLINE
  5
DA
330
2
100
AcDbEntity
  8
LF-LINE
100
AcDbPolyline
 90
        2
 70
     0
 43
0.0
 10
1388.416014636696
 20
-48.94226849262435
 10
1388.416014636695
 20
-160.942268492622
  0
TEXT
  5
DB
330
2
100
AcDbEntity
  8
0
100
AcDbText
 10
1393.415406292995
 20
-67.75476849262526
 30
0.0
 40
2.625
  1
MAXIMUM RADIUS ON ALL CORNERS UNLESS OTHERWISE SPECIFIED
  7
SIMPLEX
100
AcDbText
  0
TEXT
  5
DC
330
2
100
AcDbEntity
  8
0
100
AcDbText
 10
1543.796852247864
 20
-67.00664349262685
 30
0.0
 40
2.625
  1
-
  7
SIMPLEX
 72
     4
 11
1544.912477247864
 21
-66.44226849262685
 31
0.0
100
AcDbText
  0
TEXT
  5
DD
330
2
100
AcDbEntity
  8
0
100
AcDbText
 10
1570.046852247864
 20
-67.00664349262685
 30
0.0
 40
2.625
  1
-
  7
SIMPLEX
 72
     4
 11
1571.162477247864
 21
-66.44226849262685
 31
0.0
100
AcDbText
  0
TEXT
  5
DE
330
2
100
AcDbEntity
  8
0
100
AcDbText
 10
1592.411852247864
 20
-67.75476849262689
 30
0.0
 40
2.625000000000085
  1
0.152
  7
SIMPLEX
 72
     4
 11
1597.412477247864
 21
-66.44226849262685
 31
0.0
100
AcDbText
  0
TEXT
  5
DF
330
2
100
AcDbEntity
  8
0
100
AcDbText
 10
1383.161639636696
 20
-102.7547684926222
 30
0.0
 40
2.625
  1
7
  7
SIMPLEX
 72
     4
 11
1384.041014636696
 21
-101.4422684926222
 31
0.0
100
AcDbText
  0
TEXT
  5
E0
330
2
100
AcDbEntity
  8
0
100
AcDbText
 10
1383.161639636696
 20
-109.7547684926222
 30
0.0
 40
2.625
  1
8
  7
SIMPLEX
 72
     4
 11
1384.041014636696
 21
-108.4422684926222
 31
0.0
100
AcDbText
  0
LWPOLYLINE
  5
E1
330
2
100
AcDbEntity
  8
LF-LINE
100
AcDbPolyline
 90
        3
 70
     0
 43
0.0
 10
1388.416014636695
 20
-160.942268492622
 10
1388.416014636695
 20
-194.1922684926222
 10
1388.416014636695
 20
-210.0837926994742
  0
LINE
  5
E2
330
2
100
AcDbEntity
  8
LF-LINE
100
AcDbLine
 10
1388.416014636695
 20
-160.9422684926223
 30
0.0
 11
1610.537477247864
 21
-160.942268492624
 31
0.0
  0
TEXT
  5
E3
330
2
100
AcDbEntity
  8
0
100
AcDbText
 10
1382.242889636695
 20
-194.2454787331685
 30
0.0
 40
2.625
  1
16
  7
SIMPLEX
 72
     4
 11
1384.041014636695
 21
-192.9329787331685
 31
0.0
100
AcDbText
  0
TEXT
  5
E4
330
2
100
AcDbEntity
  8
0
100
AcDbText
 10
1393.415406292995
 20
-60.7547684926256
 30
0.0
 40
2.625
  1
METAL COIL MATERIAL A194FH THICKNESS
  7
SIMPLEX
100
AcDbText
  0
TEXT
  5
E5
330
2
100
AcDbEntity
  8
0
100
AcDbText
 10
1592.976227247864
 20
-60.75476849262644
 30
0.0
 40
2.625000000000085
  1
0.211
  7
SIMPLEX
 72
     4
 11
1597.412477247864
 21
-59.4422684926264
 31
0.0
100
AcDbText
  0
TEXT
  5
E6
330
2
100
AcDbEntity
  8
0
100
AcDbText
 10
1565.912477247864
 20
-60.75476849262639
 30
0.0
 40
2.625
  1
0.203
  7
SIMPLEX
 72
     4
 11
1571.162477247864
 21
-59.4422684926264
 31
0.0
100
AcDbText
  0
TEXT
  5
E7
330
2
100
AcDbEntity
  8
0
100
AcDbText
 10
1539.911852247864
 20
-60.75476849262639
 30
0.0
 40
2.625
  1
0.195
  7
SIMPLEX
 72
     4
 11
1544.912477247864
 21
-59.4422684926264
 31
0.0
100
AcDbText
  0
LINE
  5
E8
330
2
100
AcDbEntity
  8
LF-LINE
100
AcDbLine
 10
1388.416014636695
 20
-182.0837926994741
 30
0.0
 11
1610.537477247864
 21
-182.0837926994757
 31
0.0
  0
TEXT
  5
E9
330
2
100
AcDbEntity
  8
0
100
AcDbText
 10
1449.852906292995
 20
-170.0885810700777
 30
0.0
 40
2.5
  1
BRIGHT Ag PLATING WITH THICKNESS MIN 2.5UM, BRIGHTNESS MIN 1.6GAM
  7
SIMPLEX
100
AcDbText
  0
TEXT
  5
EA
330
2
100
AcDbEntity
  8
0
100
AcDbText
 10
1449.852906292995
 20
-177.2186879807436
 30
0.0
 40
2.5
  1
LEADFRAME BASE METAL
  7
SIMPLEX
100
AcDbText
  0
LWPOLYLINE
  5
EB
330
2
100
AcDbEntity
  8
0
100
AcDbPolyline
 90
        4
 70
     1
 43
0.0
 10
1441.540406292995
 20
-167.4635810700777
 10
1441.540406292995
 20
-170.0885810700777
 10
1445.915406292995
 20
-170.0885810700777
 10
1445.915406292995
 20
-167.4635810700777
  0
LWPOLYLINE
  5
EC
330
2
100
AcDbEntity
  8
0
100
AcDbPolyline
 90
        4
 70
     1
 43
0.0
 10
1441.540406292995
 20
-174.5936879807436
 10
1441.540406292995
 20
-177.2186879807436
 10
1445.915406292995
 20
-177.2186879807436
 10
1445.915406292995
 20
-174.5936879807436
  0
HATCH
  5
ED
330
2
100
AcDbEntity
  8
CEN
100
AcDbHatch
 10
0.0
 20
0.0
 30
0.0
210
0.0
220
0.0
230
1.0
  2
ANSI31
 70
     0
 71
     0
 91
        1
 92
        7
 72
     0
 73
     1
 93
        4
 10
1441.540406292995
 20
-174.5936879807436
 10
1441.540406292995
 20
-177.2186879807436
 10
1445.915406292995
 20
-177.2186879807436
 10
1445.915406292995
 20
-174.5936879807436
 97
        0
 75
     0
 76
     1
 52
0.0
 41
8.75
 77
     0
 78
     1
 53
45.00000000002764
 43
3367.547360517296
 44
1225.47907359166
 45
-0.7733980419227465
 46
0.7733980419227891
 79
     0
 47
0.0
 98
        1
 10
0.0
 20
0.0
  0
HATCH
  5
F0
330
2
100
AcDbEntity
  8
CEN
100
AcDbHatch
 10
0.0
 20
0.0
 30
0.0
210
0.0
220
0.0
230
1.0
  2
ANSI31
 70
     0
 71
     0
 91
        1
 92
        7
 72
     0
 73
     1
 93
        8
 10
1397.898101535303
 20
-168.1520913477749
 10
1397.898101535303
 20
-171.1520913477749
 10
1402.898101535303
 20
-171.1520913477749
 10
1402.898101535303
 20
-177.2506654878455
 10
1422.898101535303
 20
-177.2506654878455
 10
1422.898101535303
 20
-171.1520913477749
 10
1427.898101535303
 20
-171.1520913477749
 10
1427.898101535303
 20
-168.1520913477749
 97
        0
 75
     0
 76
     1
 52
0.0
 41
10.0
 77
     0
 78
     1
 53
44.9999999999905
 43
1754.976782541703
 44
1228.931064734972
 45
-0.8838834764833334
 46
0.8838834764831915
 79
     0
 47
0.0
 98
        1
 10
0.0
 20
0.0
  0
HATCH
  5
F1
330
2
100
AcDbEntity
  8
COIN-LINE
100
AcDbHatch
 10
0.0
 20
0.0
 30
0.0
210
0.0
220
0.0
230
1.0
  2
ANSI37
 70
     0
 71
     0
 91
        1
 92
        7
 72
     0
 73
     1
 93
        4
 10
1441.540406292995
 20
-167.4635810700777
 10
1441.540406292995
 20
-170.0885810700777
 10
1445.915406292995
 20
-170.0885810700777
 10
1445.915406292995
 20
-167.4635810700777
 97
        0
 75
     0
 76
     1
 52
0.0
 41
10.0
 77
     0
 78
     2
 53
44.99999999999078
 43
2463.0
 44
1169.006292564392
 45
-0.8838834764831062
 46
0.8838834764831846
 79
     0
 53
135.0000000000092
 43
2463.0
 44
1169.006292564392
 45
-0.8838834764831064
 46
-0.8838834764831844
 79
     0
 47
0.0
 98
        1
 10
0.0
 20
0.0
  0
LINE
  5
F2
102
{ACAD_REACTORS
330
124
102
}
330
2
100
AcDbEntity
  8
0
100
AcDbLine
 10
1429.398101535303
 20
-166.6520913477749
 30
0.0
 11
1396.398101535303
 21
-166.6520913477749
 31
0.0
  0
LINE
  5
F3
102
{ACAD_REACTORS
330
124
102
}
330
2
100
AcDbEntity
  8
0
100
AcDbLine
 10
1396.398101535303
 20
-166.6520913477749
 30
0.0
 11
1396.398101535303
 21
-172.6520913477749
 31
0.0
  0
LINE
  5
F4
102
{ACAD_REACTORS
330
124
102
}
330
2
100
AcDbEntity
  8
0
100
AcDbLine
 10
1396.398101535303
 20
-172.6520913477749
 30
0.0
 11
1401.398101535303
 21
-172.6520913477749
 31
0.0
  0
LINE
  5
F5
102
{ACAD_REACTORS
330
124
102
}
330
2
100
AcDbEntity
  8
0
100
AcDbLine
 10
1401.398101535303
 20
-172.6520913477749
 30
0.0
 11
1401.398101535303
 21
-177.2506654878451
 31
0.0
  0
LINE
  5
F6
102
{ACAD_REACTORS
330
124
102
}
330
2
100
AcDbEntity
  8
0
100
AcDbLine
 10
1401.398101535303
 20
-178.7506654878455
 30
0.0
 11
1424.398101535303
 21
-178.7506654878455
 31
0.0
  0
LINE
  5
F7
102
{ACAD_REACTORS
330
124
102
}
330
2
100
AcDbEntity
  8
0
100
AcDbLine
 10
1424.398101535303
 20
-177.250665487846
 30
0.0
 11
1424.398101535303
 21
-172.6520913477749
 31
0.0
  0
LINE
  5
F8
102
{ACAD_REACTORS
330
124
102
}
330
2
100
AcDbEntity
  8
0
100
AcDbLine
 10
1424.398101535303
 20
-172.6520913477749
 30
0.0
 11
1429.398101535303
 21
-172.6520913477749
 31
0.0
  0
LINE
  5
F9
102
{ACAD_REACTORS
330
124
102
}
330
2
100
AcDbEntity
  8
0
100
AcDbLine
 10
1429.398101535303
 20
-172.6520913477749
 30
0.0
 11
1429.398101535303
 21
-166.6520913477749
 31
0.0
  0
LINE
  5
FA
102
{ACAD_REACTORS
330
124
102
}
330
2
100
AcDbEntity
  8
0
100
AcDbLine
 10
1401.398101535303
 20
-177.2506654878447
 30
0.0
 11
1401.398101535303
 21
-178.7506654878447
 31
0.0
  0
LINE
  5
FB
102
{ACAD_REACTORS
330
124
102
}
330
2
100
AcDbEntity
  8
0
100
AcDbLine
 10
1424.398101535303
 20
-177.2506654878465
 30
0.0
 11
1424.398101535303
 21
-178.7506654878465
 31
0.0
  0
LINE
  5
FC
330
2
100
AcDbEntity
  8
0
100
AcDbLine
 10
1402.898101535303
 20
-177.2506654878455
 30
0.0
 11
1422.898101535303
 21
-177.2506654878456
 31
0.0
  0
LINE
  5
FD
330
2
100
AcDbEntity
  8
0
100
AcDbLine
 10
1422.898101535303
 20
-177.2506654878455
 30
0.0
 11
1422.898101535303
 21
-171.1520913477749
 31
0.0
  0
LINE
  5
FE
330
2
100
AcDbEntity
  8
0
100
AcDbLine
 10
1422.898101535303
 20
-171.1520913477749
 30
0.0
 11
1427.898101535303
 21
-171.1520913477749
 31
0.0
  0
LINE
  5
FF
330
2
100
AcDbEntity
  8
0
100
AcDbLine
 10
1427.898101535303
 20
-171.1520913477749
 30
0.0
 11
1427.898101535303
 21
-168.1520913477749
 31
0.0
  0
LINE
  5
100
330
2
100
AcDbEntity
  8
0
100
AcDbLine
 10
1397.898101535303
 20
-168.1520913477749
 30
0.0
 11
1397.898101535303
 21
-171.1520913477749
 31
0.0
  0
LINE
  5
101
330
2
100
AcDbEntity
  8
0
100
AcDbLine
 10
1397.898101535303
 20
-171.1520913477749
 30
0.0
 11
1402.898101535303
 21
-171.1520913477749
 31
0.0
  0
LINE
  5
102
330
2
100
AcDbEntity
  8
0
100
AcDbLine
 10
1402.898101535303
 20
-171.1520913477749
 30
0.0
 11
1402.898101535303
 21
-177.2506654878455
 31
0.0
  0
LINE
  5
103
102
{ACAD_REACTORS
330
124
102
}
330
2
100
AcDbEntity
  8
0
100
AcDbLine
 10
1402.898101535303
 20
-171.1520913477749
 30
0.0
 11
1402.898101535303
 21
-177.2506654878455
 31
0.0
  0
LINE
  5
104
102
{ACAD_REACTORS
330
124
102
}
330
2
100
AcDbEntity
  8
0
100
AcDbLine
 10
1402.898101535303
 20
-177.2506654878455
 30
0.0
 11
1422.898101535303
 21
-177.2506654878455
 31
0.0
  0
LINE
  5
105
102
{ACAD_REACTORS
330
124
102
}
330
2
100
AcDbEntity
  8
0
100
AcDbLine
 10
1422.898101535303
 20
-177.2506654878455
 30
0.0
 11
1422.898101535303
 21
-171.1520913477749
 31
0.0
  0
LINE
  5
106
102
{ACAD_REACTORS
330
124
102
}
330
2
100
AcDbEntity
  8
0
100
AcDbLine
 10
1422.898101535303
 20
-171.1520913477749
 30
0.0
 11
1427.898101535303
 21
-171.1520913477749
 31
0.0
  0
LINE
  5
107
102
{ACAD_REACTORS
330
124
102
}
330
2
100
AcDbEntity
  8
0
100
AcDbLine
 10
1427.898101535303
 20
-171.1520913477749
 30
0.0
 11
1427.898101535303
 21
-168.1520913477749
 31
0.0
  0
LINE
  5
108
330
2
100
AcDbEntity
  8
0
100
AcDbLine
 10
1427.898101535303
 20
-168.1520913477749
 30
0.0
 11
1397.898101535303
 21
-168.1520913477749
 31
0.0
  0
LINE
  5
109
102
{ACAD_REACTORS
330
124
102
}
330
2
100
AcDbEntity
  8
0
100
AcDbLine
 10
1397.898101535303
 20
-168.1520913477749
 30
0.0
 11
1397.898101535303
 21
-171.1520913477749
 31
0.0
  0
LINE
  5
10A
102
{ACAD_REACTORS
330
124
102
}
330
2
100
AcDbEntity
  8
0
100
AcDbLine
 10
1397.898101535303
 20
-171.1520913477749
 30
0.0
 11
1402.898101535303
 21
-171.1520913477749
 31
0.0
  0
TEXT
  5
10B
330
2
100
AcDbEntity
  8
0
100
AcDbText
 10
1393.045325518393
 20
-158.9138948589727
 30
0.0
 40
2.625
  1
Ag PLATING 
  7
SIMPLEX
100
AcDbText
  0
LINE
  5
10C
330
2
100
AcDbEntity
  8
LF-LINE
100
AcDbLine
 10
1379.666014636696
 20
-210.0837926994741
 30
0.0
 11
1610.537477247864
 21
-210.0837926994757
 31
0.0
  0
LINE
  5
10D
330
2
100
AcDbEntity
  8
LF-LINE
100
AcDbLine
 10
1610.537477247864
 20
-234.0136062941283
 30
0.0
 11
1379.666014636696
 21
-234.0136062941283
 31
0.0
  0
LINE
  5
10E
330
2
100
AcDbEntity
  8
LF-LINE
100
AcDbLine
 10
1610.537477247864
 20
-227.0136062941283
 30
0.0
 11
1379.666014636696
 21
-227.0136062941283
 31
0.0
  0
TEXT
  5
10F
330
2
100
AcDbEntity
  8
COIN-LINE
100
AcDbText
 10
1385.158967858398
 20
-232.4336682557588
 30
0.0
 40
2.362499999999999
  1
A
  7
SIMPLEX
100
AcDbText
  0
LINE
  5
110
330
2
100
AcDbEntity
  8
COIN-LINE
100
AcDbLine
 10
1386.072146579984
 20
-227.7112953825989
 30
0.0
 11
1388.697146579984
 21
-232.9612953825989
 31
0.0
  0
LINE
  5
111
330
2
100
AcDbEntity
  8
COIN-LINE
100
AcDbLine
 10
1386.072146579984
 20
-227.7112953825989
 30
0.0
 11
1383.447146579984
 21
-232.9612953825989
 31
0.0
  0
LINE
  5
112
330
2
100
AcDbEntity
  8
COIN-LINE
100
AcDbLine
 10
1383.447146579984
 20
-232.9612953825989
 30
0.0
 11
1388.697146579984
 21
-232.9612953825989
 31
0.0
  0
TEXT
  5
113
330
2
100
AcDbEntity
  8
0
100
AcDbText
 10
1395.890724489589
 20
-231.8261062941282
 30
0.0
 40
2.625
  1
MODIFY TIE BAR WIDTH, ADD DIMENSIONS CONTROL
  7
SIMPLEX
100
AcDbText
  0
TEXT
  5
114
330
2
100
AcDbEntity
  8
0
100
AcDbText
 10
1587.387187100757
 20
-231.8261062941282
 30
0.0
 40
2.625
  1
SEP 12 14
  7
SIMPLEX
100
AcDbText
  0
LINE
  5
115
330
2
100
AcDbEntity
  8
LF-LINE
100
AcDbLine
 10
1610.537477247864
 20
-234.0136062941283
 30
0.0
 11
1379.666014636696
 21
-234.0136062941283
 31
0.0
  0
TEXT
  5
116
330
2
100
AcDbEntity
  8
COIN-LINE
100
AcDbText
 10
1385.158967858398
 20
-239.4336682557588
 30
0.0
 40
2.362499999999999
  1
B
  7
SIMPLEX
100
AcDbText
  0
LINE
  5
117
330
2
100
AcDbEntity
  8
COIN-LINE
100
AcDbLine
 10
1386.072146579984
 20
-234.7112953825989
 30
0.0
 11
1388.697146579984
 21
-239.961295382599
 31
0.0
  0
LINE
  5
118
330
2
100
AcDbEntity
  8
COIN-LINE
100
AcDbLine
 10
1386.072146579984
 20
-234.7112953825989
 30
0.0
 11
1383.447146579984
 21
-239.961295382599
 31
0.0
  0
LINE
  5
119
330
2
100
AcDbEntity
  8
COIN-LINE
100
AcDbLine
 10
1383.447146579984
 20
-239.961295382599
 30
0.0
 11
1388.697146579984
 21
-239.961295382599
 31
0.0
  0
TEXT
  5
11A
330
2
100
AcDbEntity
  8
0
100
AcDbText
 10
1395.890724489589
 20
-238.8261062941282
 30
0.0
 40
2.625
  1
MODIFY CUTTING SLOT
  7
SIMPLEX
100
AcDbText
  0
TEXT
  5
11B
330
2
100
AcDbEntity
  8
0
100
AcDbText
 10
1587.387187100757
 20
-238.8261062941282
 30
0.0
 40
2.625
  1
MAY 11 15
  7
SIMPLEX
100
AcDbText
  0
LINE
  5
11C
330
2
100
AcDbEntity
  8
LF-LINE
100
AcDbLine
 10
1610.537477247864
 20
-242.0136062941283
 30
0.0
 11
1379.666014636696
 21
-242.0136062941283
 31
0.0
  0
LINE
  5
11D
330
2
100
AcDbEntity
  8
COIN-LINE
100
AcDbLine
 10
1386.072146579984
 20
-242.7112953825989
 30
0.0
 11
1388.697146579984
 21
-247.9612953825989
 31
0.0
  0
LINE
  5
11E
330
2
100
AcDbEntity
  8
COIN-LINE
100
AcDbLine
 10
1386.072146579984
 20
-242.7112953825989
 30
0.0
 11
1383.447146579984
 21
-247.9612953825989
 31
0.0
  0
TEXT
  5
11F
330
2
100
AcDbEntity
  8
COIN-LINE
100
AcDbText
 10
1385.158967858398
 20
-247.4336682557588
 30
0.0
 40
2.362499999999999
  1
C
  7
SIMPLEX
100
AcDbText
  0
LINE
  5
120
330
2
100
AcDbEntity
  8
COIN-LINE
100
AcDbLine
 10
1383.447146579984
 20
-247.9612953825989
 30
0.0
 11
1388.697146579984
 21
-247.9612953825989
 31
0.0
  0
TEXT
  5
121
330
2
100
AcDbEntity
  8
0
100
AcDbText
 10
1395.890724489589
 20
-246.8261062941282
 30
0.0
 40
2.625
  1
CHANGE THE PLATING THICKNESS FROM 4.0UM TO 2.5UM / DELETE THE SPECIAL 
  7
SIMPLEX
100
AcDbText
  0
TEXT
  5
122
330
2
100
AcDbEntity
  8
0
100
AcDbText
 10
1587.387187100757
 20
-246.8261062941282
 30
0.0
 40
2.625
  1
AUG 18 15
  7
SIMPLEX
100
AcDbText
  0
LINE
  5
123
102
{ACAD_REACTORS
330
124
102
}
330
2
100
AcDbEntity
  8
0
100
AcDbLine
 10
1427.898101535303
 20
-168.1520913477749
 30
0.0
 11
1397.898101535303
 21
-168.1520913477749
 31
0.0
  0
HATCH
  5
124
330
2
100
AcDbEntity
  8
COIN-LINE
100
AcDbHatch
 10
0.0
 20
0.0
 30
0.0
210
0.0
220
0.0
230
1.0
  2
ANSI37
 70
     0
 71
     1
 91
        2
 92
        7
 72
     0
 73
     1
 93
       10
 10
1424.398101535303
 20
-177.250665487846
 10
1424.398101535303
 20
-172.6520913477749
 10
1429.398101535303
 20
-172.6520913477749
 10
1429.398101535303
 20
-166.6520913477749
 10
1396.398101535303
 20
-166.6520913477749
 10
1396.398101535303
 20
-172.6520913477749
 10
1401.398101535303
 20
-172.6520913477749
 10
1401.398101535303
 20
-177.2506654878447
 10
1401.398101535303
 20
-178.7506654878455
 10
1424.398101535303
 20
-178.7506654878465
 97
       10
330
F7
330
F8
330
F9
330
F2
330
F3
330
F4
330
F5
330
FA
330
F6
330
FB
 92
       22
 72
     0
 73
     1
 93
        8
 10
1397.898101535303
 20
-168.1520913477749
 10
1427.898101535303
 20
-168.1520913477749
 10
1427.898101535303
 20
-171.1520913477749
 10
1422.898101535303
 20
-171.1520913477749
 10
1422.898101535303
 20
-177.2506654878455
 10
1402.898101535303
 20
-177.2506654878455
 10
1402.898101535303
 20
-171.1520913477749
 10
1397.898101535303
 20
-171.1520913477749
 97
        8
330
123
330
107
330
106
330
105
330
104
330
103
330
10A
330
109
 75
     0
 76
     1
 52
0.0
 41
10.0
 77
     0
 78
     2
 53
45.0
 43
10.0
 44
784.0
 45
-0.8838834764831842
 46
0.8838834764831844
 79
     0
 53
135.0
 43
10.0
 44
784.0
 45
-0.8838834764831844
 46
-0.8838834764831842
 79
     0
 47
0.0
 98
        3
 10
0.0
 20
0.0
 10
1397.270574948405
 20
-169.4721787957871
 10
1397.270574948405
 20
-169.4721787957871
  0
TEXT
  5
125
330
2
100
AcDbEntity
  8
0
100
AcDbText
 10
1395.890724489589
 20
-252.8261062941282
 30
0.0
 40
2.625
  1
PLATING PROCESS
  7
SIMPLEX
100
AcDbText
  0
LINE
  5
126
330
2
100
AcDbEntity
  8
COIN-LINE
100
AcDbLine
 10
1598.991575777515
 20
-175.523353765403
 30
0.0
 11
1604.241575777515
 21
-175.523353765403
 31
0.0
  0
LINE
  5
127
330
2
100
AcDbEntity
  8
COIN-LINE
100
AcDbLine
 10
1601.616575777515
 20
-170.273353765403
 30
0.0
 11
1598.991575777515
 21
-175.523353765403
 31
0.0
  0
TEXT
  5
128
330
2
100
AcDbEntity
  8
COIN-LINE
100
AcDbText
 10
1600.703397055929
 20
-174.9957266385629
 30
0.0
 40
2.362499999999999
  1
C
  7
SIMPLEX
100
AcDbText
  0
LINE
  5
129
330
2
100
AcDbEntity
  8
COIN-LINE
100
AcDbLine
 10
1601.616575777515
 20
-170.273353765403
 30
0.0
 11
1604.241575777515
 21
-175.523353765403
 31
0.0
  0
ENDSEC
  0
SECTION
  2
OBJECTS
  0
DICTIONARY
  5
7
330
0
100
AcDbDictionary
281
     1
  3
ACAD_COLOR
350
3E
  3
ACAD_GROUP
350
2B
  3
ACAD_LAYOUT
350
14
  3
ACAD_MATERIAL
350
9
  3
ACAD_MLEADERSTYLE
350
41
  3
ACAD_MLINESTYLE
350
2C
  3
ACAD_PLOTSETTINGS
350
2D
  3
ACAD_PLOTSTYLENAME
350
6
  3
ACAD_SCALELIST
350
3F
  3
ACAD_TABLESTYLE
350
40
  3
ACAD_VISUALSTYLE
350
25
  3
ACDB_RECOMPOSE_DATA
350
12D
  3
AcDbVariableDictionary
350
42
  0
DICTIONARY
  5
3E
102
{ACAD_REACTORS
330
7
102
}
330
7
100
AcDbDictionary
281
     1
  0
DICTIONARY
  5
2B
102
{ACAD_REACTORS
330
7
102
}
330
7
100
AcDbDictionary
281
     1
  0
DICTIONARY
  5
14
102
{ACAD_REACTORS
330
7
102
}
330
7
100
AcDbDictionary
281
     1
  3
Layout1
350
18
  3
Model
350
13
  0
DICTIONARY
  5
9
102
{ACAD_REACTORS
330
7
102
}
330
7
100
AcDbDictionary
281
     1
  3
ByBlock
350
36
  3
ByLayer
350
2E
  3
Global
350
8
  0
DICTIONARY
  5
41
102
{ACAD_REACTORS
330
7
102
}
330
7
100
AcDbDictionary
281
     1
  0
DICTIONARY
  5
2C
102
{ACAD_REACTORS
330
7
102
}
330
7
100
AcDbDictionary
281
     1
  3
Standard
350
4F
  0
DICTIONARY
  5
2D
102
{ACAD_REACTORS
330
7
102
}
330
7
100
AcDbDictionary
281
     1
  0
ACDBDICTIONARYWDFLT
  5
6
102
{ACAD_REACTORS
330
7
102
}
330
7
100
AcDbDictionary
281
     1
  3
Normal
350
5
100
AcDbDictionaryWithDefault
340
5
  0
DICTIONARY
  5
3F
102
{ACAD_REACTORS
330
7
102
}
330
7
100
AcDbDictionary
281
     1
  3
A0
350
54
  3
A1
350
55
  3
A2
350
56
  3
A3
350
57
  3
A4
350
58
  3
A5
350
59
  3
A6
350
5A
  3
A7
350
5B
  3
A8
350
5C
  3
A9
350
5D
  3
B0
350
5E
  3
B1
350
5F
  3
B2
350
60
  3
B3
350
61
  3
B4
350
62
  3
B5
350
63
  3
B6
350
64
  0
DICTIONARY
  5
40
102
{ACAD_REACTORS
330
7
102
}
330
7
100
AcDbDictionary
281
     1
  3
Standard
350
50
  0
DICTIONARY
  5
25
102
{ACAD_REACTORS
330
7
102
}
330
7
100
AcDbDictionary
281
     1
  3
2dWireframe
350
24
  3
Realistic
350
51
  3
Wireframe
350
52
  0
XRECORD
  5
12D
102
{ACAD_REACTORS
330
7
102
}
330
7
100
AcDbXrecord
280
     1
 90
        1
330
50
  0
DICTIONARY
  5
42
102
{ACAD_REACTORS
330
7
102
}
330
7
100
AcDbDictionary
281
     1
  3
CANNOSCALE
350
43
  3
CMLEADERSTYLE
350
44
  3
CTABLESTYLE
350
45
  3
CVIEWDETAILSTYLE
350
46
  3
CVIEWSECTIONSTYLE
350
47
  3
DIMASSOC
350
48
  3
HIDETEXT
350
49
  3
LAYEREVAL
350
4A
  3
LAYERNOTIFY
350
4B
  3
LIGHTINGUNITS
350
4C
  3
MSLTSCALE
350
4D
  0
LAYOUT
  5
18
102
{ACAD_REACTORS
330
14
102
}
330
14
100
AcDbPlotSettings
  1

  2
None
  4

  6

 40
0.0
 41
0.0
 42
0.0
 43
0.0
 44
0.0
 45
0.0
 46
0.0
 47
0.0
 48
0.0
 49
0.0
140
0.0
141
0.0
142
1.0
143
1.0
 70
   688
 72
     0
 73
     0
 74
     0
  7

 75
     0
147
1.0
 76
     0
 77
     2
 78
   300
148
0.0
149
0.0
100
AcDbLayout
  1
Layout1
 70
     0
 71
     1
 10
0.0
 20
0.0
 11
0.0
 21
0.0
 12
0.0
 22
0.0
 32
0.0
 14
0.0
 24
0.0
 34
0.0
 15
0.0
 25
0.0
 35
0.0
146
0.0
 13
0.0
 23
0.0
 33
0.0
 16
1.0
 26
0.0
 36
0.0
 17
0.0
 27
1.0
 37
0.0
 76
     0
330
15
  0
LAYOUT
  5
13
102
{ACAD_REACTORS
330
14
102
}
330
14
100
AcDbPlotSettings
  1

  2
None
  4

  6

 40
0.0
 41
0.0
 42
0.0
 43
0.0
 44
0.0
 45
0.0
 46
0.0
 47
0.0
 48
0.0
 49
0.0
140
0.0
141
0.0
142
1.0
143
1.0
 70
 11952
 72
     0
 73
     0
 74
     0
  7

 75
     0
147
1.0
 76
     0
 77
     2
 78
   300
148
0.0
149
0.0
100
AcDbLayout
  1
Model
 70
     1
 71
     0
 10
0.0
 20
0.0
 11
0.0
 21
0.0
 12
0.0
 22
0.0
 32
0.0
 14
5.0
 24
8.999999999999943
 34
0.0
 15
1637.0
 25
392.0000000000001
 35
0.0
146
0.0
 13
0.0
 23
0.0
 33
0.0
 16
1.0
 26
0.0
 36
0.0
 17
0.0
 27
1.0
 37
0.0
 76
     0
330
2
  0
MATERIAL
  5
36
102
{ACAD_XDICTIONARY
360
37
102
}
102
{ACAD_REACTORS
330
9
102
}
330
9
100
AcDbMaterial
  1
ByBlock
 72
     0
 43
0.0208333333333333
 43
0.0
 43
0.0
 43
0.0
 43
0.0
 43
0.0208333333333333
 43
0.0
 43
0.0
 43
0.0
 43
0.0
 43
1.0
 43
0.0
 43
0.0
 43
0.0
 43
0.0
 43
1.0
 77
     0
 47
0.0208333333333333
 47
0.0
 47
0.0
 47
0.0
 47
0.0
 47
0.0208333333333333
 47
0.0
 47
0.0
 47
0.0
 47
0.0
 47
1.0
 47
0.0
 47
0.0
 47
0.0
 47
0.0
 47
1.0
171
     0
 49
0.0208333333333333
 49
0.0
 49
0.0
 49
0.0
 49
0.0
 49
0.0208333333333333
 49
0.0
 49
0.0
 49
0.0
 49
0.0
 49
1.0
 49
0.0
 49
0.0
 49
0.0
 49
0.0
 49
1.0
175
     0
142
0.0208333333333333
142
0.0
142
0.0
142
0.0
142
0.0
142
0.0208333333333333
142
0.0
142
0.0
142
0.0
142
0.0
142
1.0
142
0.0
142
0.0
142
0.0
142
0.0
142
1.0
179
     0
144
0.0208333333333333
144
0.0
144
0.0
144
0.0
144
0.0
144
0.0208333333333333
144
0.0
144
0.0
144
0.0
144
0.0
144
1.0
144
0.0
144
0.0
144
0.0
144
0.0
144
1.0
147
0.0208333333333333
147
0.0
147
0.0
147
0.0
147
0.0
147
0.0208333333333333
147
0.0
147
0.0
147
0.0
147
0.0
147
1.0
147
0.0
147
0.0
147
0.0
147
0.0
147
1.0
  0
MATERIAL
  5
2E
102
{ACAD_XDICTIONARY
360
2F
102
}
102
{ACAD_REACTORS
330
9
102
}
330
9
100
AcDbMaterial
  1
ByLayer
 72
     0
 43
0.0208333333333333
 43
0.0
 43
0.0
 43
0.0
 43
0.0
 43
0.0208333333333333
 43
0.0
 43
0.0
 43
0.0
 43
0.0
 43
1.0
 43
0.0
 43
0.0
 43
0.0
 43
0.0
 43
1.0
 77
     0
 47
0.0208333333333333
 47
0.0
 47
0.0
 47
0.0
 47
0.0
 47
0.0208333333333333
 47
0.0
 47
0.0
 47
0.0
 47
0.0
 47
1.0
 47
0.0
 47
0.0
 47
0.0
 47
0.0
 47
1.0
171
     0
 49
0.0208333333333333
 49
0.0
 49
0.0
 49
0.0
 49
0.0
 49
0.0208333333333333
 49
0.0
 49
0.0
 49
0.0
 49
0.0
 49
1.0
 49
0.0
 49
0.0
 49
0.0
 49
0.0
 49
1.0
175
     0
142
0.0208333333333333
142
0.0
142
0.0
142
0.0
142
0.0
142
0.0208333333333333
142
0.0
142
0.0
142
0.0
142
0.0
142
1.0
142
0.0
142
0.0
142
0.0
142
0.0
142
1.0
179
     0
144
0.0208333333333333
144
0.0
144
0.0
144
0.0
144
0.0
144
0.0208333333333333
144
0.0
144
0.0
144
0.0
144
0.0
144
1.0
144
0.0
144
0.0
144
0.0
144
0.0
144
1.0
147
0.0208333333333333
147
0.0
147
0.0
147
0.0
147
0.0
147
0.0208333333333333
147
0.0
147
0.0
147
0.0
147
0.0
147
1.0
147
0.0
147
0.0
147
0.0
147
0.0
147
1.0
  0
MATERIAL
  5
8
102
{ACAD_XDICTIONARY
360
A
102
}
102
{ACAD_REACTORS
330
9
102
}
330
9
100
AcDbMaterial
  1
Global
 72
     0
 43
0.0208333333333333
 43
0.0
 43
0.0
 43
0.0
 43
0.0
 43
0.0208333333333333
 43
0.0
 43
0.0
 43
0.0
 43
0.0
 43
1.0
 43
0.0
 43
0.0
 43
0.0
 43
0.0
 43
1.0
 77
     0
 47
0.0208333333333333
 47
0.0
 47
0.0
 47
0.0
 47
0.0
 47
0.0208333333333333
 47
0.0
 47
0.0
 47
0.0
 47
0.0
 47
1.0
 47
0.0
 47
0.0
 47
0.0
 47
0.0
 47
1.0
171
     0
 49
0.0208333333333333
 49
0.0
 49
0.0
 49
0.0
 49
0.0
 49
0.0208333333333333
 49
0.0
 49
0.0
 49
0.0
 49
0.0
 49
1.0
 49
0.0
 49
0.0
 49
0.0
 49
0.0
 49
1.0
175
     0
142
0.0208333333333333
142
0.0
142
0.0
142
0.0
142
0.0
142
0.0208333333333333
142
0.0
142
0.0
142
0.0
142
0.0
142
1.0
142
0.0
142
0.0
142
0.0
142
0.0
142
1.0
179
     0
144
0.0208333333333333
144
0.0
144
0.0
144
0.0
144
0.0
144
0.0208333333333333
144
0.0
144
0.0
144
0.0
144
0.0
144
1.0
144
0.0
144
0.0
144
0.0
144
0.0
144
1.0
147
0.0208333333333333
147
0.0
147
0.0
147
0.0
147
0.0
147
0.0208333333333333
147
0.0
147
0.0
147
0.0
147
0.0
147
1.0
147
0.0
147
0.0
147
0.0
147
0.0
147
1.0
  0
MLINESTYLE
  5
4F
102
{ACAD_REACTORS
330
2C
102
}
330
2C
100
AcDbMlineStyle
  2
STANDARD
 70
     0
  3

 62
   256
 51
90.0
 52
90.0
 71
     2
 49
0.5
 62
   256
  6
BYLAYER
 49
-0.5
 62
   256
  6
BYLAYER
  0
ACDBPLACEHOLDER
  5
5
102
{ACAD_REACTORS
330
6
102
}
330
6
  0
SCALE
  5
54
102
{ACAD_REACTORS
330
3F
102
}
330
3F
100
AcDbScale
 70
     0
300
1:1
140
1.0
141
1.0
290
     1
  0
SCALE
  5
55
102
{ACAD_REACTORS
330
3F
102
}
330
3F
100
AcDbScale
 70
     0
300
1/128" = 1'-0"
140
0.0078125
141
12.0
290
     0
  0
SCALE
  5
56
102
{ACAD_REACTORS
330
3F
102
}
330
3F
100
AcDbScale
 70
     0
300
1/64" = 1'-0"
140
0.015625
141
12.0
290
     0
  0
SCALE
  5
57
102
{ACAD_REACTORS
330
3F
102
}
330
3F
100
AcDbScale
 70
     0
300
1/32" = 1'-0"
140
0.03125
141
12.0
290
     0
  0
SCALE
  5
58
102
{ACAD_REACTORS
330
3F
102
}
330
3F
100
AcDbScale
 70
     0
300
1/16" = 1'-0"
140
0.0625
141
12.0
290
     0
  0
SCALE
  5
59
102
{ACAD_REACTORS
330
3F
102
}
330
3F
100
AcDbScale
 70
     0
300
3/32" = 1'-0"
140
0.09375
141
12.0
290
     0
  0
SCALE
  5
5A
102
{ACAD_REACTORS
330
3F
102
}
330
3F
100
AcDbScale
 70
     0
300
1/8" = 1'-0"
140
0.125
141
12.0
290
     0
  0
SCALE
  5
5B
102
{ACAD_REACTORS
330
3F
102
}
330
3F
100
AcDbScale
 70
     0
300
3/16" = 1'-0"
140
0.1875
141
12.0
290
     0
  0
SCALE
  5
5C
102
{ACAD_REACTORS
330
3F
102
}
330
3F
100
AcDbScale
 70
     0
300
1/4" = 1'-0"
140
0.25
141
12.0
290
     0
  0
SCALE
  5
5D
102
{ACAD_REACTORS
330
3F
102
}
330
3F
100
AcDbScale
 70
     0
300
3/8" = 1'-0"
140
0.375
141
12.0
290
     0
  0
SCALE
  5
5E
102
{ACAD_REACTORS
330
3F
102
}
330
3F
100
AcDbScale
 70
     0
300
1/2" = 1'-0"
140
0.5
141
12.0
290
     0
  0
SCALE
  5
5F
102
{ACAD_REACTORS
330
3F
102
}
330
3F
100
AcDbScale
 70
     0
300
3/4" = 1'-0"
140
0.75
141
12.0
290
     0
  0
SCALE
  5
60
102
{ACAD_REACTORS
330
3F
102
}
330
3F
100
AcDbScale
 70
     0
300
1" = 1'-0"
140
1.0
141
12.0
290
     0
  0
SCALE
  5
61
102
{ACAD_REACTORS
330
3F
102
}
330
3F
100
AcDbScale
 70
     0
300
1-1/2" = 1'-0"
140
1.5
141
12.0
290
     0
  0
SCALE
  5
62
102
{ACAD_REACTORS
330
3F
102
}
330
3F
100
AcDbScale
 70
     0
300
3" = 1'-0"
140
3.0
141
12.0
290
     0
  0
SCALE
  5
63
102
{ACAD_REACTORS
330
3F
102
}
330
3F
100
AcDbScale
 70
     0
300
6" = 1'-0"
140
6.0
141
12.0
290
     0
  0
SCALE
  5
64
102
{ACAD_REACTORS
330
3F
102
}
330
3F
100
AcDbScale
 70
     0
300
1'-0" = 1'-0"
140
12.0
141
12.0
290
     0
  0
TABLESTYLE
  5
50
102
{ACAD_XDICTIONARY
360
12B
102
}
102
{ACAD_REACTORS
330
40
102
}
330
40
100
AcDbTableStyle
280
     0
  3
Standard
 70
     0
 71
     0
 40
0.06
 41
0.06
280
     0
281
     0
  7
Standard
140
0.18
170
     2
 62
     0
 63
     7
283
     0
 90
        4
 91
        0
  1

274
    -2
284
     1
 64
     0
275
    -2
285
     1
 65
     0
276
    -2
286
     1
 66
     0
277
    -2
287
     1
 67
     0
278
    -2
288
     1
 68
     0
279
    -2
289
     1
 69
     0
  7
Standard
140
0.25
170
     5
 62
     0
 63
     7
283
     0
 90
        4
 91
        0
  1

274
    -2
284
     1
 64
     0
275
    -2
285
     1
 65
     0
276
    -2
286
     1
 66
     0
277
    -2
287
     1
 67
     0
278
    -2
288
     1
 68
     0
279
    -2
289
     1
 69
     0
  7
Standard
140
0.18
170
     5
 62
     0
 63
     7
283
     0
 90
        4
 91
        0
  1

274
    -2
284
     1
 64
     0
275
    -2
285
     1
 65
     0
276
    -2
286
     1
 66
     0
277
    -2
287
     1
 67
     0
278
    -2
288
     1
 68
     0
279
    -2
289
     1
 69
     0
  0
VISUALSTYLE
  5
24
102
{ACAD_REACTORS
330
25
102
}
330
25
100
AcDbVisualStyle
  2
2dWireframe
 70
     4
177
     3
291
     0
 70
    58
 90
        0
176
     1
 90
        2
176
     1
 90
        0
176
     1
 90
        0
176
     1
 40
0.6
176
     1
 40
30.0
176
     1
 62
     7
420
 16777215
176
     1
 90
        1
176
     1
 90
        4
176
     1
 62
     7
176
     1
 62
   257
176
     1
 90
        1
176
     1
 90
        1
176
     1
 40
1.0
176
     1
 90
        0
176
     1
 62
   257
176
     1
 40
1.0
176
     1
 90
        1
176
     1
 90
        6
176
     1
 90
        2
176
     1
 62
     7
176
     1
 90
        5
176
     1
 90
        0
176
     1
 90
        0
176
     1
290
     0
176
     1
 90
        1
176
     1
 40
0.0
176
     1
 90
        0
176
     1
290
     1
176
     1
290
     1
176
     1
290
     0
176
     1
290
     0
176
     1
290
     0
176
     1
290
     0
176
     1
290
     0
176
     1
290
     0
176
     1
290
     0
176
     1
 90
       50
176
     1
 40
0.0
176
     1
 40
1.0
176
     1
 90
        0
176
     1
 62
    18
420
        0
176
     1
 90
       50
176
     1
 90
        3
176
     1
 62
     5
420
      255
176
     1
290
     0
176
     1
 90
       50
176
     1
 90
       50
176
     1
 90
       50
176
     1
290
     0
176
     1
 90
       50
176
     1
 62
   256
176
     0
 40
1.0
176
     0
 90
        2
176
     1
  1
strokes_ogs.tif
176
     1
290
     0
176
     1
 40
1.0
176
     1
 40
1.0
176
     1
  0
VISUALSTYLE
  5
51
102
{ACAD_REACTORS
330
25
102
}
330
25
100
AcDbVisualStyle
  2
Realistic
 70
     8
177
     3
291
     0
 70
    58
 90
        2
176
     1
 90
        3
176
     1
 90
        0
176
     1
 90
        2
176
     1
 40
0.6
176
     1
 40
30.0
176
     1
 62
     7
420
 16777215
176
     1
 90
        0
176
     1
 90
        0
176
     1
 62
     7
176
     1
 62
   257
176
     1
 90
        1
176
     1
 90
        1
176
     1
 40
1.0
176
     1
 90
        8
176
     1
 62
   257
176
     1
 40
1.0
176
     1
 90
        1
176
     1
 90
        6
176
     1
 90
        2
176
     1
 62
     7
176
     1
 90
        3
176
     1
 90
        0
176
     1
 90
        0
176
     1
290
     0
176
     1
 90
       13
176
     1
 40
0.0
176
     1
 90
        0
176
     1
290
     0
176
     1
290
     1
176
     1
290
     1
176
     1
290
     0
176
     1
290
     0
176
     1
290
     0
176
     1
290
     0
176
     1
290
     0
176
     1
290
     0
176
     1
 90
       50
176
     1
 40
0.0
176
     1
 40
1.0
176
     1
 90
        0
176
     1
 62
    18
420
        0
176
     1
 90
       50
176
     1
 90
        3
176
     1
 62
     5
420
      255
176
     1
290
     0
176
     1
 90
       50
176
     1
 90
       50
176
     1
 90
       50
176
     1
290
     0
176
     1
 90
       50
176
     1
 62
   256
176
     0
 40
1.0
176
     0
 90
        2
176
     1
  1
strokes_ogs.tif
176
     1
290
     0
176
     1
 40
1.0
176
     1
 40
1.0
176
     1
  0
VISUALSTYLE
  5
52
102
{ACAD_REACTORS
330
25
102
}
330
25
100
AcDbVisualStyle
  2
Wireframe
 70
     5
177
     3
291
     0
 70
    58
 90
        0
176
     1
 90
        2
176
     1
 90
        0
176
     1
 90
        0
176
     1
 40
0.6
176
     1
 40
30.0
176
     1
 62
     7
420
 16777215
176
     1
 90
        1
176
     1
 90
        4
176
     1
 62
     7
176
     1
 62
   257
176
     1
 90
        1
176
     1
 90
        1
176
     1
 40
1.0
176
     1
 90
        0
176
     1
 62
   257
176
     1
 40
1.0
176
     1
 90
        1
176
     1
 90
        6
176
     1
 90
        2
176
     1
 62
     7
176
     1
 90
        3
176
     1
 90
        0
176
     1
 90
        0
176
     1
290
     0
176
     1
 90
        1
176
     1
 40
0.0
176
     1
 90
        0
176
     1
290
     0
176
     1
290
     1
176
     1
290
     1
176
     1
290
     0
176
     1
290
     0
176
     1
290
     0
176
     1
290
     0
176
     1
290
     0
176
     1
290
     0
176
     1
 90
       50
176
     1
 40
0.0
176
     1
 40
1.0
176
     1
 90
        0
176
     1
 62
    18
420
        0
176
     1
 90
       50
176
     1
 90
        3
176
     1
 62
     5
420
      255
176
     1
290
     0
176
     1
 90
       50
176
     1
 90
       50
176
     1
 90
       50
176
     1
290
     0
176
     1
 90
       50
176
     1
 62
   256
176
     0
 40
1.0
176
     0
 90
        2
176
     1
  1
strokes_ogs.tif
176
     1
290
     0
176
     1
 40
1.0
176
     1
 40
1.0
176
     1
  0
DICTIONARYVAR
  5
43
102
{ACAD_REACTORS
330
42
102
}
330
42
100
DictionaryVariables
280
     0
  1
1:1
  0
DICTIONARYVAR
  5
44
102
{ACAD_REACTORS
330
42
102
}
330
42
100
DictionaryVariables
280
     0
  1
STANDARD
  0
DICTIONARYVAR
  5
45
102
{ACAD_REACTORS
330
42
102
}
330
42
100
DictionaryVariables
280
     0
  1
STANDARD
  0
DICTIONARYVAR
  5
46
102
{ACAD_REACTORS
330
42
102
}
330
42
100
DictionaryVariables
280
     0
  1

  0
DICTIONARYVAR
  5
47
102
{ACAD_REACTORS
330
42
102
}
330
42
100
DictionaryVariables
280
     0
  1

  0
DICTIONARYVAR
  5
48
102
{ACAD_REACTORS
330
42
102
}
330
42
100
DictionaryVariables
280
     0
  1
0
  0
DICTIONARYVAR
  5
49
102
{ACAD_REACTORS
330
42
102
}
330
42
100
DictionaryVariables
280
     0
  1
1
  0
DICTIONARYVAR
  5
4A
102
{ACAD_REACTORS
330
42
102
}
330
42
100
DictionaryVariables
280
     0
  1
1
  0
DICTIONARYVAR
  5
4B
102
{ACAD_REACTORS
330
42
102
}
330
42
100
DictionaryVariables
280
     0
  1
15
  0
DICTIONARYVAR
  5
4C
102
{ACAD_REACTORS
330
42
102
}
330
42
100
DictionaryVariables
280
     0
  1
0
  0
DICTIONARYVAR
  5
4D
102
{ACAD_REACTORS
330
42
102
}
330
42
100
DictionaryVariables
280
     0
  1
0
  0
DICTIONARY
  5
37
330
36
100
AcDbDictionary
280
     1
281
     1
  3
BUMPTILE
360
38
  3
DIFFUSETILE
360
39
  3
OPACITYTILE
360
3A
  3
REFLECTIONTILE
360
3B
  3
REFRACTIONTILE
360
3C
  3
SPECULARTILE
360
3D
  0
DICTIONARY
  5
2F
330
2E
100
AcDbDictionary
280
     1
281
     1
  3
BUMPTILE
360
30
  3
DIFFUSETILE
360
31
  3
OPACITYTILE
360
32
  3
REFLECTIONTILE
360
33
  3
REFRACTIONTILE
360
34
  3
SPECULARTILE
360
35
  0
DICTIONARY
  5
A
330
8
100
AcDbDictionary
280
     1
281
     1
  3
BUMPTILE
360
B
  3
DIFFUSETILE
360
C
  3
OPACITYTILE
360
D
  3
REFLECTIONTILE
360
E
  3
REFRACTIONTILE
360
F
  3
SPECULARTILE
360
10
  0
DICTIONARY
  5
12B
330
50
100
AcDbDictionary
280
     1
281
     1
  3
ACAD_ROUNDTRIP_2008_TABLESTYLE_CELLSTYLEMAP
360
12C
  0
XRECORD
  5
38
102
{ACAD_REACTORS
330
37
102
}
330
37
100
AcDbXrecord
280
     1
270
     1
271
     1
  0
XRECORD
  5
39
102
{ACAD_REACTORS
330
37
102
}
330
37
100
AcDbXrecord
280
     1
270
     1
271
     1
  0
XRECORD
  5
3A
102
{ACAD_REACTORS
330
37
102
}
330
37
100
AcDbXrecord
280
     1
270
     1
271
     1
  0
XRECORD
  5
3B
102
{ACAD_REACTORS
330
37
102
}
330
37
100
AcDbXrecord
280
     1
270
     1
271
     1
  0
XRECORD
  5
3C
102
{ACAD_REACTORS
330
37
102
}
330
37
100
AcDbXrecord
280
     1
270
     1
271
     1
  0
XRECORD
  5
3D
102
{ACAD_REACTORS
330
37
102
}
330
37
100
AcDbXrecord
280
     1
270
     1
271
     1
  0
XRECORD
  5
30
102
{ACAD_REACTORS
330
2F
102
}
330
2F
100
AcDbXrecord
280
     1
270
     1
271
     1
  0
XRECORD
  5
31
102
{ACAD_REACTORS
330
2F
102
}
330
2F
100
AcDbXrecord
280
     1
270
     1
271
     1
  0
XRECORD
  5
32
102
{ACAD_REACTORS
330
2F
102
}
330
2F
100
AcDbXrecord
280
     1
270
     1
271
     1
  0
XRECORD
  5
33
102
{ACAD_REACTORS
330
2F
102
}
330
2F
100
AcDbXrecord
280
     1
270
     1
271
     1
  0
XRECORD
  5
34
102
{ACAD_REACTORS
330
2F
102
}
330
2F
100
AcDbXrecord
280
     1
270
     1
271
     1
  0
XRECORD
  5
35
102
{ACAD_REACTORS
330
2F
102
}
330
2F
100
AcDbXrecord
280
     1
270
     1
271
     1
  0
XRECORD
  5
B
102
{ACAD_REACTORS
330
A
102
}
330
A
100
AcDbXrecord
280
     1
270
     1
271
     1
  0
XRECORD
  5
C
102
{ACAD_REACTORS
330
A
102
}
330
A
100
AcDbXrecord
280
     1
270
     1
271
     1
  0
XRECORD
  5
D
102
{ACAD_REACTORS
330
A
102
}
330
A
100
AcDbXrecord
280
     1
270
     1
271
     1
  0
XRECORD
  5
E
102
{ACAD_REACTORS
330
A
102
}
330
A
100
AcDbXrecord
280
     1
270
     1
271
     1
  0
XRECORD
  5
F
102
{ACAD_REACTORS
330
A
102
}
330
A
100
AcDbXrecord
280
     1
270
     1
271
     1
  0
XRECORD
  5
10
102
{ACAD_REACTORS
330
A
102
}
330
A
100
AcDbXrecord
280
     1
270
     1
271
     1
  0
CELLSTYLEMAP
  5
12C
102
{ACAD_REACTORS
330
12B
102
}
330
12B
100
AcDbCellStyleMap
 90
        3
300
CELLSTYLE
  1
TABLEFORMAT_BEGIN
 90
        5
170
     1
 91
        0
 92
    32768
 62
   257
 93
        1
300
CONTENTFORMAT
  1
CONTENTFORMAT_BEGIN
 90
        0
 91
        0
 92
        4
 93
        0
300

 40
0.0
140
1.0
 94
        5
 62
     0
340
1B
144
0.25
309
CONTENTFORMAT_END
171
     0
 94
        6
 95
        1
302
GRIDFORMAT
  1
GRIDFORMAT_BEGIN
 90
        0
 91
        1
 62
     0
 92
       -2
340
0
 93
        0
 40
0.045
309
GRIDFORMAT_END
 95
        2
302
GRIDFORMAT
  1
GRIDFORMAT_BEGIN
 90
        0
 91
        1
 62
     0
 92
       -2
340
0
 93
        0
 40
0.045
309
GRIDFORMAT_END
 95
        4
302
GRIDFORMAT
  1
GRIDFORMAT_BEGIN
 90
        0
 91
        1
 62
     0
 92
       -2
340
0
 93
        0
 40
0.045
309
GRIDFORMAT_END
 95
        8
302
GRIDFORMAT
  1
GRIDFORMAT_BEGIN
 90
        0
 91
        1
 62
     0
 92
       -2
340
0
 93
        0
 40
0.045
309
GRIDFORMAT_END
 95
       16
302
GRIDFORMAT
  1
GRIDFORMAT_BEGIN
 90
        0
 91
        1
 62
     0
 92
       -2
340
0
 93
        0
 40
0.045
309
GRIDFORMAT_END
 95
       32
302
GRIDFORMAT
  1
GRIDFORMAT_BEGIN
 90
        0
 91
        1
 62
     0
 92
       -2
340
0
 93
        0
 40
0.045
309
GRIDFORMAT_END
309
TABLEFORMAT_END
  1
CELLSTYLE_BEGIN
 90
        1
 91
        1
300
_TITLE
309
CELLSTYLE_END
300
CELLSTYLE
  1
TABLEFORMAT_BEGIN
 90
        5
170
     1
 91
        0
 92
        0
 62
   257
 93
        1
300
CONTENTFORMAT
  1
CONTENTFORMAT_BEGIN
 90
        0
 91
        0
 92
        4
 93
        0
300

 40
0.0
140
1.0
 94
        5
 62
     0
340
1B
144
0.18
309
CONTENTFORMAT_END
171
     0
 94
        6
 95
        1
302
GRIDFORMAT
  1
GRIDFORMAT_BEGIN
 90
        0
 91
        1
 62
     0
 92
       -2
340
0
 93
        0
 40
0.045
309
GRIDFORMAT_END
 95
        2
302
GRIDFORMAT
  1
GRIDFORMAT_BEGIN
 90
        0
 91
        1
 62
     0
 92
       -2
340
0
 93
        0
 40
0.045
309
GRIDFORMAT_END
 95
        4
302
GRIDFORMAT
  1
GRIDFORMAT_BEGIN
 90
        0
 91
        1
 62
     0
 92
       -2
340
0
 93
        0
 40
0.045
309
GRIDFORMAT_END
 95
        8
302
GRIDFORMAT
  1
GRIDFORMAT_BEGIN
 90
        0
 91
        1
 62
     0
 92
       -2
340
0
 93
        0
 40
0.045
309
GRIDFORMAT_END
 95
       16
302
GRIDFORMAT
  1
GRIDFORMAT_BEGIN
 90
        0
 91
        1
 62
     0
 92
       -2
340
0
 93
        0
 40
0.045
309
GRIDFORMAT_END
 95
       32
302
GRIDFORMAT
  1
GRIDFORMAT_BEGIN
 90
        0
 91
        1
 62
     0
 92
       -2
340
0
 93
        0
 40
0.045
309
GRIDFORMAT_END
309
TABLEFORMAT_END
  1
CELLSTYLE_BEGIN
 90
        2
 91
        1
300
_HEADER
309
CELLSTYLE_END
300
CELLSTYLE
  1
TABLEFORMAT_BEGIN
 90
        5
170
     1
 91
        0
 92
        0
 62
   257
 93
        1
300
CONTENTFORMAT
  1
CONTENTFORMAT_BEGIN
 90
        0
 91
        0
 92
        4
 93
        0
300

 40
0.0
140
1.0
 94
        2
 62
     0
340
1B
144
0.18
309
CONTENTFORMAT_END
171
     0
 94
        6
 95
        1
302
GRIDFORMAT
  1
GRIDFORMAT_BEGIN
 90
        0
 91
        1
 62
     0
 92
       -2
340
0
 93
        0
 40
0.045
309
GRIDFORMAT_END
 95
        2
302
GRIDFORMAT
  1
GRIDFORMAT_BEGIN
 90
        0
 91
        1
 62
     0
 92
       -2
340
0
 93
        0
 40
0.045
309
GRIDFORMAT_END
 95
        4
302
GRIDFORMAT
  1
GRIDFORMAT_BEGIN
 90
        0
 91
        1
 62
     0
 92
       -2
340
0
 93
        0
 40
0.045
309
GRIDFORMAT_END
 95
        8
302
GRIDFORMAT
  1
GRIDFORMAT_BEGIN
 90
        0
 91
        1
 62
     0
 92
       -2
340
0
 93
        0
 40
0.045
309
GRIDFORMAT_END
 95
       16
302
GRIDFORMAT
  1
GRIDFORMAT_BEGIN
 90
        0
 91
        1
 62
     0
 92
       -2
340
0
 93
        0
 40
0.045
309
GRIDFORMAT_END
 95
       32
302
GRIDFORMAT
  1
GRIDFORMAT_BEGIN
 90
        0
 91
        1
 62
     0
 92
       -2
340
0
 93
        0
 40
0.045
309
GRIDFORMAT_END
309
TABLEFORMAT_END
  1
CELLSTYLE_BEGIN
 90
        3
 91
        2
300
_DATA
309
CELLSTYLE_END
  0
ENDSEC
  0
EOF
