  0
SECTION
  2
HEADER
  9
$ACADVER
  1
AC1032
  9
$ACADMAINTVER
 90
      197
  9
$DWGCODEPAGE
  3
ANSI_936
  9
$REQUIREDVERSIONS
160
                 0
  9
$INSBASE
 10
0.0
 20
0.0
 30
0.0
  9
$EXTMIN
 10
5.0
 20
8.999999999999943
 30
0.0
  9
$EXTMAX
 10
1637.0
 20
392.0000000000001
 30
0.0
  9
$LIMMIN
 10
0.0
 20
0.0
  9
$LIMMAX
 10
0.0
 20
0.0
  9
$ORTHOMODE
 70
     0
  9
$REGENMODE
 70
     1
  9
$FILLMODE
 70
     1
  9
$QTEXTMODE
 70
     0
  9
$MIRRTEXT
 70
     0
  9
$LTSCALE
 40
8.0
  9
$ATTMODE
 70
     1
  9
$TEXTSIZE
 40
2.5
  9
$TRACEWID
 40
0.05
  9
$TEXTSTYLE
  7
SIMPLEX
  9
$CLAYER
  8
0
  9
$CELTYPE
  6
ByLayer
  9
$CECOLOR
 62
   256
  9
$CELTSCALE
 40
1.0
  9
$DISPSILH
 70
     0
  9
$DIMSCALE
 40
1.0
  9
$DIMASZ
 40
2.5
  9
$DIMEXO
 40
1.0
  9
$DIMDLI
 40
7.5
  9
$DIMRND
 40
0.0
  9
$DIMDLE
 40
1.25
  9
$DIMEXE
 40
1.25
  9
$DIMTP
 40
0.0
  9
$DIMTM
 40
0.0
  9
$DIMTXT
 40
3.0
  9
$DIMCEN
 40
1.25
  9
$DIMTSZ
 40
0.0
  9
$DIMTOL
 70
     0
  9
$DIMLIM
 70
     0
  9
$DIMTIH
 70
     0
  9
$DIMTOH
 70
     0
  9
$DIMSE1
 70
     0
  9
$DIMSE2
 70
     0
  9
$DIMTAD
 70
     1
  9
$DIMZIN
 70
     8
  9
$DIMBLK
  1

  9
$DIMASO
 70
     1
  9
$DIMSHO
 70
     1
  9
$DIMPOST
  1

  9
$DIMAPOST
  1

  9
$DIMALT
 70
     0
  9
$DIMALTD
 70
     2
  9
$DIMALTF
 40
25.4
  9
$DIMLFAC
 40
1.0
  9
$DIMTOFL
 70
     0
  9
$DIMTVP
 40
2.0
  9
$DIMTIX
 70
     0
  9
$DIMSOXD
 70
     0
  9
$DIMSAH
 70
     0
  9
$DIMBLK1
  1

  9
$DIMBLK2
  1

  9
$DIMSTYLE
  2
Standard
  9
$DIMCLRD
 70
     0
  9
$DIMCLRE
 70
     0
  9
$DIMCLRT
 70
     0
  9
$DIMTFAC
 40
1.0
  9
$DIMGAP
 40
1.25
  9
$DIMJUST
 70
     0
  9
$DIMSD1
 70
     0
  9
$DIMSD2
 70
     0
  9
$DIMTOLJ
 70
     1
  9
$DIMTZIN
 70
     0
  9
$DIMALTZ
 70
     0
  9
$DIMALTTZ
 70
     0
  9
$DIMUPT
 70
     0
  9
$DIMDEC
 70
     3
  9
$DIMTDEC
 70
     4
  9
$DIMALTU
 70
     2
  9
$DIMALTTD
 70
     2
  9
$DIMTXSTY
  7
SIMPLEX
  9
$DIMAUNIT
 70
     0
  9
$DIMADEC
 70
     0
  9
$DIMALTRND
 40
0.0
  9
$DIMAZIN
 70
     0
  9
$DIMDSEP
 70
    46
  9
$DIMATFIT
 70
     3
  9
$DIMFRAC
 70
     0
  9
$DIMLDRBLK
  1

  9
$DIMLUNIT
 70
     2
  9
$DIMLWD
 70
    -2
  9
$DIMLWE
 70
    -2
  9
$DIMTMOVE
 70
     0
  9
$DIMFXL
 40
1.0
  9
$DIMFXLON
 70
     0
  9
$DIMJOGANG
 40
0.7853981633974483
  9
$DIMTFILL
 70
     0
  9
$DIMTFILLCLR
 70
     0
  9
$DIMARCSYM
 70
     0
  9
$DIMLTYPE
  6

  9
$DIMLTEX1
  6

  9
$DIMLTEX2
  6

  9
$DIMTXTDIRECTION
 70
     0
  9
$LUNITS
 70
     2
  9
$LUPREC
 70
     6
  9
$SKETCHINC
 40
0.1
  9
$FILLETRAD
 40
0.0
  9
$AUNITS
 70
     0
  9
$AUPREC
 70
     0
  9
$MENU
  1
.
  9
$ELEVATION
 40
0.0
  9
$PELEVATION
 40
0.0
  9
$THICKNESS
 40
0.0
  9
$LIMCHECK
 70
     0
  9
$CHAMFERA
 40
0.0
  9
$CHAMFERB
 40
0.0
  9
$CHAMFERC
 40
0.0
  9
$CHAMFERD
 40
0.0
  9
$SKPOLY
 70
     0
  9
$TDCREATE
 40
2453354.050451389
  9
$TDUCREATE
 40
2453353.717125822
  9
$TDUPDATE
 40
2457253.635486111
  9
$TDUUPDATE
 40
2457253.302160602
  9
$TDINDWG
 40
0.1474087269
  9
$TDUSRTIMER
 40
0.1471428819
  9
$USRTIMER
 70
     1
  9
$ANGBASE
 50
0.0
  9
$ANGDIR
 70
     0
  9
$PDMODE
 70
     0
  9
$PDSIZE
 40
0.0
  9
$PLINEWID
 40
0.0
  9
$SPLFRAME
 70
     0
  9
$SPLINETYPE
 70
     6
  9
$SPLINESEGS
 70
     8
  9
$HANDSEED
  5
219
  9
$SURFTAB1
 70
     6
  9
$SURFTAB2
 70
     6
  9
$SURFTYPE
 70
     6
  9
$SURFU
 70
     6
  9
$SURFV
 70
     6
  9
$UCSBASE
  2

  9
$UCSNAME
  2

  9
$UCSORG
 10
0.0
 20
0.0
 30
0.0
  9
$UCSXDIR
 10
1.0
 20
0.0
 30
0.0
  9
$UCSYDIR
 10
0.0
 20
1.0
 30
0.0
  9
$UCSORTHOREF
  2

  9
$UCSORTHOVIEW
 70
     0
  9
$UCSORGTOP
 10
0.0
 20
0.0
 30
0.0
  9
$UCSORGBOTTOM
 10
0.0
 20
0.0
 30
0.0
  9
$UCSORGLEFT
 10
0.0
 20
0.0
 30
0.0
  9
$UCSORGRIGHT
 10
0.0
 20
0.0
 30
0.0
  9
$UCSORGFRONT
 10
0.0
 20
0.0
 30
0.0
  9
$UCSORGBACK
 10
0.0
 20
0.0
 30
0.0
  9
$PUCSBASE
  2

  9
$PUCSNAME
  2

  9
$PUCSORG
 10
0.0
 20
0.0
 30
0.0
  9
$PUCSXDIR
 10
1.0
 20
0.0
 30
0.0
  9
$PUCSYDIR
 10
0.0
 20
1.0
 30
0.0
  9
$PUCSORTHOREF
  2

  9
$PUCSORTHOVIEW
 70
     0
  9
$PUCSORGTOP
 10
0.0
 20
0.0
 30
0.0
  9
$PUCSORGBOTTOM
 10
0.0
 20
0.0
 30
0.0
  9
$PUCSORGLEFT
 10
0.0
 20
0.0
 30
0.0
  9
$PUCSORGRIGHT
 10
0.0
 20
0.0
 30
0.0
  9
$PUCSORGFRONT
 10
0.0
 20
0.0
 30
0.0
  9
$PUCSORGBACK
 10
0.0
 20
0.0
 30
0.0
  9
$USERI1
 70
     0
  9
$USERI2
 70
     0
  9
$USERI3
 70
     0
  9
$USERI4
 70
     0
  9
$USERI5
 70
 32767
  9
$USERR1
 40
0.0
  9
$USERR2
 40
0.0
  9
$USERR3
 40
0.0
  9
$USERR4
 40
0.0
  9
$USERR5
 40
0.0
  9
$WORLDVIEW
 70
     1
  9
$SHADEDGE
 70
     3
  9
$SHADEDIF
 70
    70
  9
$TILEMODE
 70
     1
  9
$MAXACTVP
 70
    16
  9
$PINSBASE
 10
0.0
 20
0.0
 30
0.0
  9
$PLIMCHECK
 70
     0
  9
$PEXTMIN
 10
0.0
 20
0.0
 30
0.0
  9
$PEXTMAX
 10
0.0
 20
0.0
 30
0.0
  9
$PLIMMIN
 10
0.0
 20
0.0
  9
$PLIMMAX
 10
0.0
 20
0.0
  9
$UNITMODE
 70
     0
  9
$VISRETAIN
 70
     0
  9
$PLINEGEN
 70
     0
  9
$PSLTSCALE
 70
     0
  9
$TREEDEPTH
 70
  3020
  9
$CMLSTYLE
  2
Standard
  9
$CMLJUST
 70
     0
  9
$CMLSCALE
 40
1.0
  9
$PROXYGRAPHICS
 70
     1
  9
$MEASUREMENT
 70
     0
  9
$CELWEIGHT
370
    -1
  9
$ENDCAPS
280
     0
  9
$JOINSTYLE
280
     0
  9
$LWDISPLAY
290
     0
  9
$INSUNITS
 70
     0
  9
$HYPERLINKBASE
  1

  9
$STYLESHEET
  1

  9
$XEDIT
290
     1
  9
$CEPSNTYPE
380
     0
  9
$PSTYLEMODE
290
     1
  9
$FINGERPRINTGUID
  2
{BA068B80-3C0C-BA4C-BD75-F8D807862C01}
  9
$VERSIONGUID
  2
{B7759CB0-03EC-469A-A7EA-FCFD9CDF1B97}
  9
$EXTNAMES
290
     1
  9
$PSVPSCALE
 40
0.0
  9
$OLESTARTUP
290
     0
  9
$SORTENTS
280
   127
  9
$INDEXCTL
280
     0
  9
$HIDETEXT
280
     1
  9
$XCLIPFRAME
280
     2
  9
$HALOGAP
280
     0
  9
$OBSCOLOR
 70
   257
  9
$OBSLTYPE
280
     0
  9
$INTERSECTIONDISPLAY
280
     0
  9
$INTERSECTIONCOLOR
 70
   257
  9
$DIMASSOC
280
     0
  9
$PROJECTNAME
  1

  9
$CAMERADISPLAY
290
     0
  9
$LENSLENGTH
 40
50.0
  9
$CAMERAHEIGHT
 40
0.0
  9
$STEPSPERSEC
 40
2.0
  9
$STEPSIZE
 40
6.0
  9
$3DDWFPREC
 40
2.0
  9
$PSOLWIDTH
 40
0.25
  9
$PSOLHEIGHT
 40
4.0
  9
$LOFTANG1
 40
1.570796326794896
  9
$LOFTANG2
 40
1.570796326794896
  9
$LOFTMAG1
 40
0.0
  9
$LOFTMAG2
 40
0.0
  9
$LOFTPARAM
 70
     7
  9
$LOFTNORMALS
280
     1
  9
$LATITUDE
 40
37.795
  9
$LONGITUDE
 40
-122.394
  9
$NORTHDIRECTION
 40
0.0
  9
$TIMEZONE
 70
 -8000
  9
$LIGHTGLYPHDISPLAY
280
     1
  9
$TILEMODELIGHTSYNCH
280
     1
  9
$CMATERIAL
347
2E
  9
$SOLIDHIST
280
     0
  9
$SHOWHIST
280
     1
  9
$DWFFRAME
280
     2
  9
$DGNFRAME
280
     0
  9
$REALWORLDSCALE
290
     1
  9
$INTERFERECOLOR
 62
     1
  9
$INTERFEREOBJVS
345
51
  9
$INTERFEREVPVS
346
52
  9
$CSHADOW
280
     0
  9
$SHADOWPLANELOCATION
 40
0.0
  0
ENDSEC
  0
SECTION
  2
CLASSES
  0
CLASS
  1
ACDBDICTIONARYWDFLT
  2
AcDbDictionaryWithDefault
  3
ObjectDBX Classes
 90
        0
 91
        1
280
     0
281
     0
  0
CLASS
  1
DICTIONARYVAR
  2
AcDbDictionaryVar
  3
ObjectDBX Classes
 90
        0
 91
       11
280
     0
281
     0
  0
CLASS
  1
TABLESTYLE
  2
AcDbTableStyle
  3
ObjectDBX Classes
 90
     4095
 91
        1
280
     0
281
     0
  0
CLASS
  1
MATERIAL
  2
AcDbMaterial
  3
ObjectDBX Classes
 90
     1153
 91
        3
280
     0
281
     0
  0
CLASS
  1
VISUALSTYLE
  2
AcDbVisualStyle
  3
ObjectDBX Classes
 90
     4095
 91
        4
280
     0
281
     0
  0
CLASS
  1
SCALE
  2
AcDbScale
  3
ObjectDBX Classes
 90
     1153
 91
       17
280
     0
281
     0
  0
CLASS
  1
MLEADERSTYLE
  2
AcDbMLeaderStyle
  3
ACDB_MLEADERSTYLE_CLASS
 90
     4095
 91
        0
280
     0
281
     0
  0
CLASS
  1
ACDBSECTIONVIEWSTYLE
  2
AcDbSectionViewStyle
  3
ObjectDBX Classes
 90
     1025
 91
        0
280
     0
281
     0
  0
CLASS
  1
ACDBDETAILVIEWSTYLE
  2
AcDbDetailViewStyle
  3
ObjectDBX Classes
 90
     1025
 91
        0
280
     0
281
     0
  0
CLASS
  1
SOLID_BACKGROUND
  2
AcDbSolidBackground
  3
SCENEOE
 90
     4095
 91
        0
280
     0
281
     0
  0
CLASS
  1
NPOCOLLECTION
  2
AcDbImpNonPersistentObjectsCollection
  3
ObjectDBX Classes
 90
     1153
 91
        0
280
     0
281
     0
  0
CLASS
  1
CELLSTYLEMAP
  2
AcDbCellStyleMap
  3
ObjectDBX Classes
 90
     1152
 91
        1
280
     0
281
     0
  0
ENDSEC
  0
SECTION
  2
TABLES
  0
TABLE
  2
VPORT
  5
22
330
0
100
AcDbSymbolTable
 70
     1
  0
VPORT
  5
23
330
22
100
AcDbSymbolTableRecord
100
AcDbViewportTableRecord
  2
*Active
 70
     0
 10
0.0
 20
0.0
 11
1.0
 21
1.0
 12
951.3218510954802
 22
128.2924916730656
 13
0.0
 23
0.0
 14
0.1
 24
0.1
 15
0.5
 25
0.5
 16
0.0
 26
0.0
 36
1.0
 17
0.0
 27
0.0
 37
0.0
 40
1343.165273933165
 41
2.311515151515151
 42
50.0
 43
0.0
 44
0.0
 50
0.0
 51
0.0
 71
    16
 72
   500
 73
     1
 74
     1
 75
     0
 76
     0
 77
     0
 78
     0
281
     0
 65
     1
110
0.0
120
0.0
130
0.0
111
1.0
121
0.0
131
0.0
112
0.0
122
1.0
132
0.0
 79
     0
146
0.0
348
24
 60
     3
 61
     5
292
     1
282
     1
141
0.0
142
0.0
 63
   250
421
  3355443
1001
ACAD_NAV_VCDISPLAY
1070
     3
  0
ENDTAB
  0
TABLE
  2
LTYPE
  5
1D
330
0
100
AcDbSymbolTable
 70
     3
  0
LTYPE
  5
1E
330
1D
100
AcDbSymbolTableRecord
100
AcDbLinetypeTableRecord
  2
ByBlock
 70
     0
  3

 72
    65
 73
     0
 40
0.0
  0
LTYPE
  5
1F
330
1D
100
AcDbSymbolTableRecord
100
AcDbLinetypeTableRecord
  2
ByLayer
 70
     0
  3

 72
    65
 73
     0
 40
0.0
  0
LTYPE
  5
11
330
1D
100
AcDbSymbolTableRecord
100
AcDbLinetypeTableRecord
  2
Continuous
 70
     0
  3
Solid line
 72
    65
 73
     0
 40
0.0
  0
LTYPE
  5
CF
330
1D
100
AcDbSymbolTableRecord
100
AcDbLinetypeTableRecord
  2
CENTER
 70
     0
  3
____ _ ____ _ ____ _ ____ _ ____ _ ____ _ ____
 72
    65
 73
     4
 40
2.0
 49
1.25
 74
     4
 75
     0
340
0
 46
1.0
 50
0.0
 44
0.0
 45
0.0
 49
-0.25
 74
     4
 75
     0
340
0
 46
1.0
 50
0.0
 44
0.0
 45
0.0
 49
0.25
 74
     4
 75
     0
340
0
 46
1.0
 50
0.0
 44
0.0
 45
0.0
 49
-0.25
 74
     4
 75
     0
340
0
 46
1.0
 50
0.0
 44
0.0
 45
0.0
  0
LTYPE
  5
82
330
1D
100
AcDbSymbolTableRecord
100
AcDbLinetypeTableRecord
  2
HIDDEN
 70
     0
  3
_ _ _ _ _ _ _ _ _ _ _ _ _ _ _ _ _ _ _ _ _ _ _
 72
    65
 73
     2
 40
0.375
 49
0.25
 74
     4
 75
     0
340
0
 46
1.0
 50
0.0
 44
0.0
 45
0.0
 49
-0.125
 74
     4
 75
     0
340
0
 46
1.0
 50
0.0
 44
0.0
 45
0.0
  0
ENDTAB
  0
TABLE
  2
LAYER
  5
19
330
0
100
AcDbSymbolTable
 70
     6
  0
LAYER
  5
4
330
19
100
AcDbSymbolTableRecord
100
AcDbLayerTableRecord
  2
0
 70
     0
 62
     7
  6
Continuous
370
    -3
390
5
347
8
348
0
  0
LAYER
  5
6B
330
19
100
AcDbSymbolTableRecord
100
AcDbLayerTableRecord
  2
DIM
 70
     0
 62
     7
  6
Continuous
370
    -3
390
5
347
8
348
0
  0
LAYER
  5
CE
330
19
100
AcDbSymbolTableRecord
100
AcDbLayerTableRecord
  2
CEN
 70
     0
 62
     3
  6
CENTER
370
    -3
390
5
347
8
348
0
  0
LAYER
  5
69
330
19
100
AcDbSymbolTableRecord
100
AcDbLayerTableRecord
  2
LF-LINE
 70
     0
 62
     1
  6
Continuous
370
    -3
390
5
347
8
348
0
  0
LAYER
  5
85
330
19
100
AcDbSymbolTableRecord
100
AcDbLayerTableRecord
  2
COIN-LINE
 70
     0
 62
     4
  6
Continuous
370
    -3
390
5
347
8
348
0
  0
LAYER
  5
81
330
19
100
AcDbSymbolTableRecord
100
AcDbLayerTableRecord
  2
PKG-OUT
 70
     0
 62
     3
  6
HIDDEN
370
    -3
390
5
347
8
348
0
  0
ENDTAB
  0
TABLE
  2
STYLE
  5
1A
330
0
100
AcDbSymbolTable
 70
     2
  0
STYLE
  5
1B
330
1A
100
AcDbSymbolTableRecord
100
AcDbTextStyleTableRecord
  2
Standard
 70
     0
 40
3.0
 41
1.0
 50
0.0
 71
     0
 42
2.5
  3
SIMPLEX
  4

  0
STYLE
  5
4E
330
1A
100
AcDbSymbolTableRecord
100
AcDbTextStyleTableRecord
  2
SIMPLEX
 70
     0
 40
3.0
 41
1.0
 50
0.0
 71
     0
 42
2.5
  3
SIMPLEX.shx
  4

  0
ENDTAB
  0
TABLE
  2
VIEW
  5
20
330
0
100
AcDbSymbolTable
 70
     0
  0
ENDTAB
  0
TABLE
  2
UCS
  5
21
330
0
100
AcDbSymbolTable
 70
     0
  0
ENDTAB
  0
TABLE
  2
APPID
  5
27
330
0
100
AcDbSymbolTable
 70
     2
  0
APPID
  5
28
330
27
100
AcDbSymbolTableRecord
100
AcDbRegAppTableRecord
  2
ACAD
 70
     0
  0
APPID
  5
26
330
27
100
AcDbSymbolTableRecord
100
AcDbRegAppTableRecord
  2
ACAD_NAV_VCDISPLAY
 70
     0
  0
ENDTAB
  0
TABLE
  2
DIMSTYLE
  5
29
330
0
100
AcDbSymbolTable
 70
     1
100
AcDbDimStyleTable
 71
     0
  0
DIMSTYLE
105
53
330
29
100
AcDbSymbolTableRecord
100
AcDbDimStyleTableRecord
  2
Standard
 70
     0
340
1B
  0
ENDTAB
  0
TABLE
  2
BLOCK_RECORD
  5
1
330
0
100
AcDbSymbolTable
 70
     1
  0
BLOCK_RECORD
  5
2
330
1
100
AcDbSymbolTableRecord
100
AcDbBlockTableRecord
  2
*Model_Space
340
13
 70
     0
280
     1
281
     0
  0
BLOCK_RECORD
  5
15
330
1
100
AcDbSymbolTableRecord
100
AcDbBlockTableRecord
  2
*Paper_Space
340
18
 70
     0
280
     1
281
     0
  0
BLOCK_RECORD
  5
66
330
1
100
AcDbSymbolTableRecord
100
AcDbBlockTableRecord
  2
SH2
340
0
102
{BLKREFS
331
65
102
}
 70
     0
280
     1
281
     0
  0
ENDTAB
  0
ENDSEC
  0
SECTION
  2
BLOCKS
  0
BLOCK
  5
3
330
2
100
AcDbEntity
  8
0
100
AcDbBlockBegin
  2
*Model_Space
 70
     0
 10
0.0
 20
0.0
 30
0.0
  3
*Model_Space
  1

  0
ENDBLK
  5
12
330
2
100
AcDbEntity
  8
0
100
AcDbBlockEnd
  0
BLOCK
  5
16
330
15
100
AcDbEntity
 67
     1
  8
0
100
AcDbBlockBegin
  2
*Paper_Space
 70
     0
 10
0.0
 20
0.0
 30
0.0
  3
*Paper_Space
  1

  0
ENDBLK
  5
17
330
15
100
AcDbEntity
 67
     1
  8
0
100
AcDbBlockEnd
  0
BLOCK
  5
67
330
66
100
AcDbEntity
  8
0
100
AcDbBlockBegin
  2
SH2
 70
     0
 10
0.0
 20
0.0
 30
0.0
  3
SH2
  1

  0
TEXT
  5
68
330
66
100
AcDbEntity
  8
LF-LINE
100
AcDbText
 10
351.619945370128
 20
-327.0975831515656
 30
0.0
 40
3.0
  1
%%USECTION A-A
  7
SIMPLEX
100
AcDbText
  0
LINE
  5
6A
330
66
100
AcDbEntity
  8
DIM
100
AcDbLine
 10
324.4990427191477
 20
-305.6801222305252
 30
0.0
 11
312.4864751801645
 21
-305.6801222305252
 31
0.0
  0
LINE
  5
6C
330
66
100
AcDbEntity
  8
DIM
100
AcDbLine
 10
338.4990427191476
 20
-309.6801222305252
 30
0.0
 11
312.4864751801645
 21
-309.6801222305252
 31
0.0
  0
LINE
  5
6D
330
66
100
AcDbEntity
  8
DIM
100
AcDbLine
 10
313.4864751801645
 20
-312.6801222305252
 30
0.0
 11
313.4864751801645
 21
-315.6801222305252
 31
0.0
  0
SOLID
  5
6E
330
66
100
AcDbEntity
  8
DIM
100
AcDbTrace
 10
313.4864751801645
 20
-305.6801222305252
 30
0.0
 11
312.9864751801644
 21
-302.6801222305252
 31
0.0
 12
313.9864751801646
 22
-302.6801222305252
 32
0.0
 13
313.9864751801646
 23
-302.6801222305252
 33
0.0
  0
LINE
  5
70
330
66
100
AcDbEntity
  8
DIM
100
AcDbLine
 10
313.4864751801645
 20
-302.6801222305252
 30
0.0
 11
313.4864751801645
 21
-287.5772019448368
 31
0.0
  0
SOLID
  5
71
330
66
100
AcDbEntity
  8
DIM
100
AcDbTrace
 10
313.4864751801645
 20
-309.6801222305252
 30
0.0
 11
312.9864751801644
 21
-312.6801222305252
 31
0.0
 12
313.9864751801646
 22
-312.6801222305252
 32
0.0
 13
313.9864751801646
 23
-312.6801222305252
 33
0.0
  0
MTEXT
  5
72
330
66
100
AcDbEntity
  8
DIM
100
AcDbMText
 10
311.3864751801645
 20
-294.0609196770645
 30
0.0
 40
2.5
 41
0.0
 46
0.0
 71
     5
 72
     1
  1
0.1015
  7
SIMPLEX
 11
0.0
 21
1.0
 31
0.0
 73
     1
 44
1.0
  0
LINE
  5
73
330
66
100
AcDbEntity
  8
DIM
100
AcDbLine
 10
398.8011971096508
 20
-309.6801222305252
 30
0.0
 11
424.4287145513503
 21
-309.6801222305252
 31
0.0
  0
LINE
  5
74
330
66
100
AcDbEntity
  8
DIM
100
AcDbLine
 10
412.8011971096507
 20
-313.6801222305252
 30
0.0
 11
424.4287145513503
 21
-313.6801222305252
 31
0.0
  0
LINE
  5
75
330
66
100
AcDbEntity
  8
DIM
100
AcDbLine
 10
423.4287145513503
 20
-306.6801222305252
 30
0.0
 11
423.4287145513503
 21
-291.2169024355648
 31
0.0
  0
SOLID
  5
76
330
66
100
AcDbEntity
  8
DIM
100
AcDbTrace
 10
423.4287145513503
 20
-309.6801222305252
 30
0.0
 11
422.9287145513502
 21
-306.6801222305252
 31
0.0
 12
423.9287145513505
 22
-306.6801222305252
 32
0.0
 13
423.9287145513505
 23
-306.6801222305252
 33
0.0
  0
SOLID
  5
77
330
66
100
AcDbEntity
  8
DIM
100
AcDbTrace
 10
423.4287145513503
 20
-313.6801222305252
 30
0.0
 11
422.9287145513502
 21
-316.6801222305252
 31
0.0
 12
423.9287145513505
 22
-316.6801222305252
 32
0.0
 13
423.9287145513505
 23
-316.6801222305252
 33
0.0
  0
MTEXT
  5
78
330
66
100
AcDbEntity
  8
DIM
100
AcDbMText
 10
421.3287145513503
 20
-297.555830441751
 30
0.0
 40
2.5
 41
0.0
 46
0.0
 71
     5
 72
     1
  1
0.1015
  7
SIMPLEX
 11
0.0
 21
1.0
 31
0.0
 73
     1
 44
1.0
  0
MTEXT
  5
79
330
66
100
AcDbEntity
  8
DIM
100
AcDbMText
 10
310.3084388801711
 20
-282.3561638721532
 30
0.0
 40
1.799999999999954
 41
0.0
 46
0.0
 71
     5
 72
     1
  1
%%P0.050
  7
SIMPLEX
 11
0.0
 21
1.0
 31
0.0
 73
     1
 44
1.0
  0
LINE
  5
7A
330
66
100
AcDbEntity
  8
DIM
100
AcDbLine
 10
313.4864751801645
 20
-305.6801222305252
 30
0.0
 11
313.4864751801645
 21
-309.6801222305252
 31
0.0
  0
MTEXT
  5
7B
330
66
100
AcDbEntity
  8
DIM
100
AcDbMText
 10
420.2373858934277
 20
-286.2685052373512
 30
0.0
 40
1.800000000000011
 41
0.0
 46
0.0
 71
     5
 72
     1
  1
%%P0.050
  7
SIMPLEX
 11
0.0
 21
1.0
 31
0.0
 73
     1
 44
1.0
  0
LINE
  5
7C
330
66
100
AcDbEntity
  8
DIM
100
AcDbLine
 10
423.4287145513503
 20
-313.6801222305252
 30
0.0
 11
423.4287145513503
 21
-309.6801222305252
 31
0.0
  0
TEXT
  5
7D
330
66
100
AcDbEntity
  8
DIM
100
AcDbText
 10
377.336649850638
 20
-286.9910675037478
 30
0.0
 40
2.5
  1
TOP SIDE
  7
SIMPLEX
100
AcDbText
  0
SOLID
  5
7E
330
66
100
AcDbEntity
  8
DIM
100
AcDbTrace
 10
365.9674735965492
 20
-305.6801222305252
 30
0.0
 11
367.4675196389148
 21
-303.0343970235577
 31
0.0
 12
366.5283630289595
 22
-302.6909077777617
 32
0.0
 13
366.5283630289595
 23
-302.6909077777617
 33
0.0
  0
LWPOLYLINE
  5
7F
330
66
100
AcDbEntity
  8
DIM
100
AcDbPolyline
 90
        3
 70
     0
 43
0.0
 10
366.9979413339372
 20
-302.8626524006596
 10
373.3038763807636
 20
-285.6211793308079
 10
376.086649850638
 20
-285.6211793308079
  0
LWPOLYLINE
  5
80
330
66
100
AcDbEntity
  8
PKG-OUT
100
AcDbPolyline
 90
        4
 70
     1
 43
0.0
 10
307.2931679455863
 20
-345.804823363439
 10
307.2931679455863
 20
-350.304823363439
 10
298.2931679455863
 20
-350.304823363439
 10
298.2931679455863
 20
-345.804823363439
  0
TEXT
  5
83
330
66
100
AcDbEntity
  8
DIM
100
AcDbText
 10
311.3670376109957
 20
-349.7315950267303
 30
0.0
 40
2.5
  1
HALF ETCH ON BOTTOM SIDE
  7
SIMPLEX
100
AcDbText
  0
LWPOLYLINE
  5
84
330
66
100
AcDbEntity
  8
COIN-LINE
100
AcDbPolyline
 90
        4
 70
     1
 43
0.0
 10
307.2931679455863
 20
-354.804823363439
 10
307.2931679455863
 20
-359.304823363439
 10
298.2931679455863
 20
-359.304823363439
 10
298.2931679455863
 20
-354.804823363439
  0
TEXT
  5
86
330
66
100
AcDbEntity
  8
DIM
100
AcDbText
 10
311.3670376109957
 20
-358.7315950267302
 30
0.0
 40
2.5
  1
HALF ETCH ON TOP SIDE
  7
SIMPLEX
100
AcDbText
  0
HATCH
  5
87
330
66
100
AcDbEntity
  8
COIN-LINE
 62
     3
100
AcDbHatch
 10
0.0
 20
0.0
 30
0.0
210
0.0
220
0.0
230
1.0
  2
ANSI31
 70
     0
 71
     0
 91
        1
 92
        7
 72
     0
 73
     1
 93
        4
 10
307.2931679455863
 20
-345.804823363439
 10
298.2931679455863
 20
-345.804823363439
 10
298.2931679455863
 20
-350.304823363439
 10
307.2931679455863
 20
-350.304823363439
 97
        0
 75
     0
 76
     1
 52
0.0
 41
5.0
 77
     0
 78
     1
 53
44.99999999999942
 43
115.1171965221597
 44
-40.9465656467849
 45
-0.44194173824161
 46
0.4419417382415923
 79
     0
 47
0.0
 98
        1
 10
0.0
 20
0.0
  0
HATCH
  5
88
330
66
100
AcDbEntity
  8
PKG-OUT
 62
     4
100
AcDbHatch
 10
0.0
 20
0.0
 30
0.0
210
0.0
220
0.0
230
1.0
  2
ANSI37
 70
     0
 71
     0
 91
        1
 92
        7
 72
     0
 73
     1
 93
        4
 10
307.2931679455863
 20
-354.804823363439
 10
298.2931679455863
 20
-354.804823363439
 10
298.2931679455863
 20
-359.304823363439
 10
307.2931679455863
 20
-359.304823363439
 97
        0
 75
     0
 76
     1
 52
0.0
 41
10.0
 77
     0
 78
     2
 53
44.99999999999942
 43
115.1171965221597
 44
-40.9465656467849
 45
-0.8838834764831632
 46
0.8838834764831842
 79
     0
 53
135.0000000000006
 43
115.1171965221597
 44
-40.9465656467849
 45
-0.8838834764831631
 46
-0.8838834764831842
 79
     0
 47
0.0
 98
        1
 10
0.0
 20
0.0
  0
TEXT
  5
89
330
66
100
AcDbEntity
  8
0
100
AcDbText
 10
452.1250000000001
 20
-379.5
 30
0.0
 40
2.5
  1
MM
  7
SIMPLEX
 72
     1
 11
454.5
 21
-377.0
 31
0.0
100
AcDbText
 73
     3
  0
TEXT
  5
8A
330
66
100
AcDbEntity
  8
0
100
AcDbText
 10
514.325
 20
-357.0
 30
0.0
 40
2.5
  1
NOT TO SCALE
  7
SIMPLEX
 72
     2
 11
542.0
 21
-357.0
 31
0.0
100
AcDbText
  0
TEXT
  5
8B
330
66
100
AcDbEntity
  8
0
100
AcDbText
 10
482.1375
 20
-379.5
 30
0.0
 40
2.5
  1
%%P.050
  7
SIMPLEX
 72
     1
 11
487.5
 21
-377.0
 31
0.0
100
AcDbText
 73
     3
  0
TEXT
  5
8C
330
66
100
AcDbEntity
  8
0
100
AcDbText
 10
534.0
 20
-378.3735671831232
 30
0.0
 40
2.5
  1
6
  7
SIMPLEX
 11
534.0
 21
-377.1235671831231
 31
0.0
100
AcDbText
 73
     2
  0
TEXT
  5
8D
330
66
100
AcDbEntity
  8
LF-LINE
100
AcDbText
 10
457.0
 20
-343.4
 30
0.0
 40
4.799999999999999
  1
SMD3030 LEADLESS
  7
SIMPLEX
 11
457.0
 21
-341.0
 31
0.0
100
AcDbText
 73
     2
  0
TEXT
  5
8E
330
66
100
AcDbEntity
  8
0
100
AcDbText
 10
514.5
 20
-378.3735671831232
 30
0.0
 40
2.5
  1
2
  7
SIMPLEX
 11
514.5
 21
-377.1235671831231
 31
0.0
100
AcDbText
 73
     2
  0
TEXT
  5
8F
330
66
100
AcDbEntity
  8
0
100
AcDbText
 10
523.1
 20
-366.25
 30
0.0
 40
2.5
  1
C
  7
SIMPLEX
 72
     1
 11
524.0
 21
-365.0
 31
0.0
100
AcDbText
 73
     2
  0
TEXT
  5
90
330
66
100
AcDbEntity
  8
0
100
AcDbText
 10
467.55
 20
-356.175
 30
0.0
 40
2.5
  1
AOT
  7
SIMPLEX
 72
     1
 11
471.0
 21
-357.0
 31
0.0
100
AcDbText
 73
     1
  0
TEXT
  5
91
330
66
100
AcDbEntity
  8
0
100
AcDbText
 10
440.8
 20
-368.175
 30
0.0
 40
2.5
  1
2-092092-SMD3030(FRAME)-6
  7
SIMPLEX
 72
     1
 11
471.0
 21
-369.0
 31
0.0
100
AcDbText
 73
     1
  0
LINE
  5
92
330
66
100
AcDbEntity
  8
DIM
100
AcDbLine
 10
423.4287145513503
 20
-316.6801222305252
 30
0.0
 11
423.4287145513503
 21
-319.6801222305252
 31
0.0
  0
LINE
  5
93
330
66
100
AcDbEntity
  8
LF-LINE
100
AcDbLine
 10
361.4990427191476
 20
-305.6801222305252
 30
0.0
 11
361.4990427191476
 21
-307.6801222305252
 31
0.0
  0
ARC
  5
94
330
66
100
AcDbEntity
  8
LF-LINE
100
AcDbCircle
 10
359.4990427191476
 20
-307.6801222305252
 30
0.0
 40
2.0
100
AcDbArc
 50
270.0
 51
-0.000000000000014
  0
LINE
  5
95
330
66
100
AcDbEntity
  8
LF-LINE
100
AcDbLine
 10
359.4990427191476
 20
-309.6801222305252
 30
0.0
 11
339.4990427191476
 21
-309.6801222305252
 31
0.0
  0
ARC
  5
96
330
66
100
AcDbEntity
  8
LF-LINE
100
AcDbCircle
 10
339.4990427191476
 20
-307.6801222305252
 30
0.0
 40
2.0
100
AcDbArc
 50
180.0
 51
270.0
  0
LINE
  5
97
330
66
100
AcDbEntity
  8
LF-LINE
100
AcDbLine
 10
337.4990427191476
 20
-307.6801222305252
 30
0.0
 11
337.4990427191476
 21
-305.6801222305252
 31
0.0
  0
LINE
  5
98
330
66
100
AcDbEntity
  8
LF-LINE
100
AcDbLine
 10
337.4990427191476
 20
-305.6801222305252
 30
0.0
 11
325.4990427191477
 21
-305.6801222305252
 31
0.0
  0
ARC
  5
99
330
66
100
AcDbEntity
  8
LF-LINE
100
AcDbCircle
 10
330.9208693308093
 20
-308.5332086125116
 30
0.0
 40
6.126687988627918
100
AcDbArc
 50
152.245651587193
 51
203.0562432488915
  0
ARC
  5
9A
330
66
100
AcDbEntity
  8
LF-LINE
100
AcDbCircle
 10
320.8491287172742
 20
-313.5125254162776
 30
0.0
 40
5.13031930526313
100
AcDbArc
 50
358.1279335000352
 51
30.19019610188418
  0
LINE
  5
9B
330
66
100
AcDbEntity
  8
LF-LINE
100
AcDbLine
 10
325.9767097728802
 20
-313.6801222305252
 30
0.0
 11
375.4990427191476
 21
-313.6801222305252
 31
0.0
  0
LINE
  5
9C
330
66
100
AcDbEntity
  8
LF-LINE
100
AcDbLine
 10
375.4990427191476
 20
-313.6801222305252
 30
0.0
 11
375.4990427191476
 21
-311.6801222305252
 31
0.0
  0
ARC
  5
9D
330
66
100
AcDbEntity
  8
LF-LINE
100
AcDbCircle
 10
377.4990427191476
 20
-311.6801222305252
 30
0.0
 40
2.0
100
AcDbArc
 50
90.0
 51
180.0
  0
LINE
  5
9E
330
66
100
AcDbEntity
  8
LF-LINE
100
AcDbLine
 10
377.4990427191476
 20
-309.6801222305252
 30
0.0
 11
400.4011971096508
 21
-309.6801222305252
 31
0.0
  0
ARC
  5
9F
330
66
100
AcDbEntity
  8
LF-LINE
100
AcDbCircle
 10
400.4011971096508
 20
-311.6801222305252
 30
0.0
 40
2.0
100
AcDbArc
 50
0.0
 51
90.0
  0
LINE
  5
A0
330
66
100
AcDbEntity
  8
LF-LINE
100
AcDbLine
 10
402.4011971096507
 20
-311.6801222305252
 30
0.0
 11
402.4011971096507
 21
-313.6801222305252
 31
0.0
  0
LINE
  5
A1
330
66
100
AcDbEntity
  8
LF-LINE
100
AcDbLine
 10
402.4011971096507
 20
-313.6801222305252
 30
0.0
 11
411.8011971096508
 21
-313.6801222305252
 31
0.0
  0
ARC
  5
A2
330
66
100
AcDbEntity
  8
LF-LINE
100
AcDbCircle
 10
411.0900643605614
 20
-312.3536971764544
 30
0.0
 40
1.505029305659576
100
AcDbArc
 50
298.1969762429476
 51
70.77129469743616
  0
ARC
  5
A3
330
66
100
AcDbEntity
  8
LF-LINE
100
AcDbCircle
 10
417.2230237213123
 20
-308.5332086125115
 30
0.0
 40
6.126687988627905
100
AcDbArc
 50
152.2456515871933
 51
203.056243248892
  0
LINE
  5
A4
330
66
100
AcDbEntity
  8
LF-LINE
100
AcDbLine
 10
411.8011971096508
 20
-305.6801222305252
 30
0.0
 11
361.4990427191476
 21
-305.6801222305252
 31
0.0
  0
LINE
  5
A5
330
66
100
AcDbEntity
  8
LF-LINE
100
AcDbLine
 10
492.0181595612922
 20
-259.6199416276038
 30
0.0
 11
492.015342543603
 21
-282.0682262911138
 31
0.0
  0
ARC
  5
A6
330
66
100
AcDbEntity
  8
LF-LINE
100
AcDbCircle
 10
492.0153425436307
 20
-292.0682262750897
 30
0.0
 40
9.999999983975893
100
AcDbArc
 50
45.00000000012632
 51
90.00000000015882
  0
LINE
  5
A7
330
66
100
AcDbEntity
  8
LF-LINE
100
AcDbLine
 10
499.0864103441499
 20
-284.9971584745393
 30
0.0
 11
507.0153425196424
 21
-292.926090649992
 31
0.0
  0
LINE
  5
A8
330
66
100
AcDbEntity
  8
LF-LINE
100
AcDbLine
 10
507.0153425196424
 20
-292.926090649992
 30
0.0
 11
518.8312662468372
 21
-292.9260906499898
 31
0.0
  0
LINE
  5
A9
330
66
100
AcDbEntity
  8
DIM
 62
     7
370
    -2
100
AcDbLine
 10
498.1881311873251
 20
-281.1986963883061
 30
0.0
 11
508.0895079773463
 21
-263.7635763555829
 31
0.0
  0
SOLID
  5
AA
330
66
100
AcDbEntity
  8
DIM
 62
     7
100
AcDbTrace
 10
496.9535734570036
 20
-283.3726023684496
 30
0.0
 11
498.5504488506824
 21
-281.4044560100263
 31
0.0
 12
497.8258135239678
 22
-280.9929367665858
 32
0.0
 13
497.8258135239678
 23
-280.9929367665858
 33
0.0
  0
MTEXT
  5
AB
330
66
100
AcDbEntity
  8
DIM
 62
     7
100
AcDbMText
 10
503.7983354897015
 20
-266.2572673812075
 30
0.0
 40
2.499999999999993
 41
0.0
 46
0.0
 71
     5
 72
     1
  1
\A1;R0.2000
  7
SIMPLEX
 11
0.4938230921285936
 21
0.8695623920573812
 31
0.0
 73
     1
 44
1.0
  0
POINT
  5
AC
330
66
100
AcDbEntity
  8
DIM
 62
     7
100
AcDbPoint
 10
496.9535734570036
 20
-283.3726023684496
 30
0.0
  0
MTEXT
  5
AD
330
66
100
AcDbEntity
  8
DIM
 62
     7
100
AcDbMText
 10
494.6992543849161
 20
-297.1748564137452
 30
0.0
 40
3.000000000000024
 41
0.0
 46
0.0
 71
     5
 72
     1
  1
\A1;45%%d
  7
SIMPLEX
 11
0.057341366900971
 21
0.9983546302000748
 31
0.0
 73
     1
 44
1.0
  0
POINT
  5
AE
330
66
100
AcDbEntity
  8
DIM
 62
     7
100
AcDbPoint
 10
507.0153425196424
 20
-292.926090649992
 30
0.0
  0
POINT
  5
AF
330
66
100
AcDbEntity
  8
DIM
 62
     7
100
AcDbPoint
 10
507.0153425196424
 20
-292.926090649992
 30
0.0
  0
SOLID
  5
B0
330
66
100
AcDbEntity
  8
DIM
 62
     7
100
AcDbTrace
 10
500.0599672400452
 20
-285.9707153704299
 30
0.0
 11
501.783250465118
 21
-284.1122466358815
 31
0.0
 12
502.2928466371299
 22
-284.7716070729078
 32
0.0
 13
502.2928466371299
 23
-284.7716070729078
 33
0.0
  0
SOLID
  5
B1
330
66
100
AcDbEntity
  8
DIM
 62
     7
100
AcDbTrace
 10
497.1789564678664
 20
-292.926090649994
 30
0.0
 11
497.9099430225682
 21
-295.3528724217971
 31
0.0
 12
497.0833658774047
 22
-295.4587717491705
 32
0.0
 13
497.0833658774047
 23
-295.4587717491705
 33
0.0
  0
LINE
  5
B2
330
66
100
AcDbEntity
  8
DIM
 62
     7
370
    -2
100
AcDbLine
 10
506.0153425196424
 20
-292.9260906499923
 30
0.0
 11
496.1789564678664
 21
-292.9260906499941
 31
0.0
  0
ARC
  5
B3
330
66
100
AcDbEntity
  8
DIM
 62
     7
370
    -2
100
AcDbCircle
 10
507.0153425196424
 20
-292.926090649992
 30
0.0
 40
9.836386051776075
100
AcDbArc
 50
194.6016848901071
 51
209.4474425664878
  0
ARC
  5
B4
330
66
100
AcDbEntity
  8
DIM
 62
     7
370
    -2
100
AcDbCircle
 10
507.0153425196424
 20
-292.926090649992
 30
0.0
 40
9.836386051776072
100
AcDbArc
 50
105.552557433667
 51
120.3983151100479
  0
ARC
  5
B5
330
66
100
AcDbEntity
  8
DIM
 62
     7
370
    -2
100
AcDbCircle
 10
507.0153425196424
 20
-292.926090649992
 30
0.0
 40
9.836386051776116
100
AcDbArc
 50
120.3983151100482
 51
194.6016848901075
  0
POINT
  5
B6
330
66
100
AcDbEntity
  8
DIM
100
AcDbPoint
 10
492.015342543603
 20
-282.0682262911138
 30
0.0
  0
LINE
  5
B7
330
66
100
AcDbEntity
  8
DIM
370
    -2
100
AcDbLine
 10
491.015342543603
 20
-282.0682262911138
 30
0.0
 11
474.8005660836271
 21
-282.0682262911138
 31
0.0
  0
POINT
  5
B8
330
66
100
AcDbEntity
  8
DIM
100
AcDbPoint
 10
507.0153425196424
 20
-292.926090649992
 30
0.0
  0
LINE
  5
B9
330
66
100
AcDbEntity
  8
DIM
370
    -2
100
AcDbLine
 10
507.0153425196424
 20
-293.926090649992
 30
0.0
 11
507.0153425196424
 21
-309.0172392690602
 31
0.0
  0
POINT
  5
BA
330
66
100
AcDbEntity
  8
DIM
 62
     7
100
AcDbPoint
 10
492.015342543603
 20
-282.0682262911138
 30
0.0
  0
POINT
  5
BB
330
66
100
AcDbEntity
  8
DIM
 62
     7
100
AcDbPoint
 10
507.0153425196424
 20
-292.926090649992
 30
0.0
  0
LINE
  5
BC
330
66
100
AcDbEntity
  8
DIM
 62
     7
370
    -2
100
AcDbLine
 10
492.015342543603
 20
-283.0682262911138
 30
0.0
 11
492.015342543603
 21
-317.2455374143683
 31
0.0
  0
LINE
  5
BD
330
66
100
AcDbEntity
  8
DIM
 62
     7
370
    -2
100
AcDbLine
 10
507.0153425196424
 20
-293.926090649992
 30
0.0
 11
507.0153425196424
 21
-317.2455374143683
 31
0.0
  0
LINE
  5
BE
330
66
100
AcDbEntity
  8
DIM
 62
     7
370
    -2
100
AcDbLine
 10
494.515342543603
 20
-315.9955374143683
 30
0.0
 11
504.5153425196423
 21
-315.9955374143683
 31
0.0
  0
SOLID
  5
BF
330
66
100
AcDbEntity
  8
DIM
 62
     7
100
AcDbTrace
 10
492.015342543603
 20
-315.9955374143683
 30
0.0
 11
494.515342543603
 21
-316.412204081035
 31
0.0
 12
494.515342543603
 22
-315.5788707477015
 32
0.0
 13
494.515342543603
 23
-315.5788707477015
 33
0.0
  0
SOLID
  5
C0
330
66
100
AcDbEntity
  8
DIM
 62
     7
100
AcDbTrace
 10
507.0153425196424
 20
-315.9955374143683
 30
0.0
 11
504.5153425196423
 21
-316.412204081035
 31
0.0
 12
504.5153425196423
 22
-315.5788707477015
 32
0.0
 13
504.5153425196423
 23
-315.5788707477015
 33
0.0
  0
MTEXT
  5
C1
330
66
100
AcDbEntity
  8
DIM
 62
     7
100
AcDbMText
 10
499.5153425316226
 20
-313.4955374143683
 30
0.0
 40
2.5
 41
0.0
 46
0.0
 71
     5
 72
     1
  1
\A1;0.3000
  7
SIMPLEX
 73
     1
 44
1.0
  0
POINT
  5
C2
330
66
100
AcDbEntity
  8
DIM
100
AcDbPoint
 10
492.015342543603
 20
-282.0682262911138
 30
0.0
  0
POINT
  5
C3
330
66
100
AcDbEntity
  8
DIM
100
AcDbPoint
 10
507.0153425196424
 20
-292.926090649992
 30
0.0
  0
LINE
  5
C4
330
66
100
AcDbEntity
  8
DIM
370
    -2
100
AcDbLine
 10
491.015342543603
 20
-282.0682262911138
 30
0.0
 11
462.4853255613632
 21
-282.0682262911138
 31
0.0
  0
LINE
  5
C5
330
66
100
AcDbEntity
  8
DIM
370
    -2
100
AcDbLine
 10
506.0153425196424
 20
-292.926090649992
 30
0.0
 11
462.4853255613632
 21
-292.926090649992
 31
0.0
  0
MTEXT
  5
C6
330
66
100
AcDbEntity
  8
LF-LINE
100
AcDbMText
 10
500.4582942645348
 20
-323.7455165457344
 30
0.0
 40
3.0
 41
0.0
 46
0.0
 71
     5
 72
     1
  1
Detail D
  7
SIMPLEX
 73
     1
 44
1.0
  0
LINE
  5
C7
330
66
100
AcDbEntity
  8
LF-LINE
370
    -3
100
AcDbLine
 10
492.0223712990486
 20
-327.2719398709932
 30
0.0
 11
510.2796364055921
 21
-327.2719398709932
 31
0.0
  0
LINE
  5
C8
330
66
100
AcDbEntity
  8
DIM
370
    -2
100
AcDbLine
 10
463.7353255613632
 20
-284.5682262911138
 30
0.0
 11
463.7353255613632
 21
-290.426090649992
 31
0.0
  0
SOLID
  5
C9
330
66
100
AcDbEntity
  8
DIM
100
AcDbTrace
 10
463.7353255613632
 20
-282.0682262911138
 30
0.0
 11
463.3186588946965
 21
-284.5682262911138
 31
0.0
 12
464.1519922280299
 22
-284.5682262911138
 32
0.0
 13
464.1519922280299
 23
-284.5682262911138
 33
0.0
  0
LINE
  5
CA
330
66
100
AcDbEntity
  8
DIM
370
    -2
100
AcDbLine
 10
463.7353255613632
 20
-292.926090649992
 30
0.0
 11
463.7353255613632
 21
-300.426090649992
 31
0.0
  0
SOLID
  5
CB
330
66
100
AcDbEntity
  8
DIM
100
AcDbTrace
 10
463.7353255613632
 20
-292.926090649992
 30
0.0
 11
463.3186588946965
 21
-290.426090649992
 31
0.0
 12
464.1519922280299
 22
-290.426090649992
 32
0.0
 13
464.1519922280299
 23
-290.426090649992
 33
0.0
  0
MTEXT
  5
CC
330
66
100
AcDbEntity
  8
DIM
100
AcDbMText
 10
461.2353255613633
 20
-297.926090649992
 30
0.0
 40
2.5
 41
0.0
 46
0.0
 71
     5
 72
     1
  1
\A1;0.2170
  7
SIMPLEX
 11
0.0
 21
1.0
 31
0.0
 73
     1
 44
1.0
  0
LINE
  5
CD
330
66
100
AcDbEntity
  8
CEN
100
AcDbLine
 10
347.5346847705154
 20
-207.2516000976684
 30
0.0
 11
347.534684838059
 21
-216.2516001020497
 31
0.0
  0
LINE
  5
D0
330
66
100
AcDbEntity
  8
CEN
100
AcDbLine
 10
352.9346847770725
 20
-211.7516000345101
 30
0.0
 11
342.1346847712297
 21
-211.7516001403822
 31
0.0
  0
LINE
  5
D1
330
66
100
AcDbEntity
  8
LF-LINE
100
AcDbLine
 10
428.5346910779789
 20
-203.5010941015364
 30
0.0
 11
428.5346910779789
 21
-217.0010941030179
 31
0.0
  0
ARC
  5
D2
330
66
100
AcDbEntity
  8
LF-LINE
100
AcDbCircle
 10
424.784691077979
 20
-217.0010941030179
 30
0.0
 40
3.75
100
AcDbArc
 50
180.0
 51
-0.000000000000014
  0
LINE
  5
D3
330
66
100
AcDbEntity
  8
LF-LINE
100
AcDbLine
 10
421.0346910779789
 20
-217.0010941030179
 30
0.0
 11
421.0346910779789
 21
-203.5010941015364
 31
0.0
  0
ARC
  5
D4
330
66
100
AcDbEntity
  8
LF-LINE
100
AcDbCircle
 10
424.784691077979
 20
-203.5010941015364
 30
0.0
 40
3.75
100
AcDbArc
 50
0.0
 51
179.9999999999992
  0
LINE
  5
D5
330
66
100
AcDbEntity
  8
LF-LINE
100
AcDbLine
 10
348.2846884684974
 20
-113.5015987037472
 30
0.0
 11
336.2846884685083
 21
-113.5015987037472
 31
0.0
  0
ARC
  5
D6
330
66
100
AcDbEntity
  8
LF-LINE
100
AcDbCircle
 10
336.2846884685083
 20
-109.7515987037473
 30
0.0
 40
3.75
100
AcDbArc
 50
90.0
 51
270.0
  0
LINE
  5
D7
330
66
100
AcDbEntity
  8
LF-LINE
100
AcDbLine
 10
336.2846884685083
 20
-106.0015987037473
 30
0.0
 11
348.2846884684974
 21
-106.0015987037473
 31
0.0
  0
ARC
  5
D8
330
66
100
AcDbEntity
  8
LF-LINE
100
AcDbCircle
 10
348.2846884684974
 20
-109.7515987037473
 30
0.0
 40
3.75
100
AcDbArc
 50
270.0
 51
90.0
  0
LINE
  5
D9
330
66
100
AcDbEntity
  8
CEN
 48
0.01
100
AcDbLine
 10
400.7846910779769
 20
-142.0120948135927
 30
0.0
 11
400.7846910779803
 21
-125.4911025939127
 31
0.0
  0
LINE
  5
DA
330
66
100
AcDbEntity
  8
CEN
 48
0.01
100
AcDbLine
 10
409.0451871878204
 20
-133.7515987037527
 30
0.0
 11
392.524194968137
 21
-133.7515987037493
 31
0.0
  0
LINE
  5
DB
330
66
100
AcDbEntity
  8
CEN
 48
0.01
100
AcDbLine
 10
400.7846910779769
 20
-142.0120948135927
 30
0.0
 11
400.7846910779803
 21
-125.4911025939127
 31
0.0
  0
LINE
  5
DC
330
66
100
AcDbEntity
  8
CEN
 48
0.01
100
AcDbLine
 10
409.0451871878204
 20
-133.7515987037527
 30
0.0
 11
392.524194968137
 21
-133.7515987037493
 31
0.0
  0
LINE
  5
DD
330
66
100
AcDbEntity
  8
CEN
 48
0.01
100
AcDbLine
 10
448.7846910779768
 20
-142.0120948135927
 30
0.0
 11
448.7846910779802
 21
-125.4911025939127
 31
0.0
  0
LINE
  5
DE
330
66
100
AcDbEntity
  8
CEN
 48
0.01
100
AcDbLine
 10
457.0451871878201
 20
-133.7515987037527
 30
0.0
 11
440.5241949681367
 21
-133.7515987037493
 31
0.0
  0
LINE
  5
DF
330
66
100
AcDbEntity
  8
CEN
 48
0.01
100
AcDbLine
 10
448.7846910779768
 20
-142.0120948135927
 30
0.0
 11
448.7846910779802
 21
-125.4911025939127
 31
0.0
  0
LINE
  5
E0
330
66
100
AcDbEntity
  8
CEN
 48
0.01
100
AcDbLine
 10
457.0451871878201
 20
-133.7515987037527
 30
0.0
 11
440.5241949681367
 21
-133.7515987037493
 31
0.0
  0
LINE
  5
E1
330
66
100
AcDbEntity
  8
CEN
 48
0.01
100
AcDbLine
 10
400.7846910779769
 20
-94.01209481359291
 30
0.0
 11
400.7846910779803
 21
-77.4911025939129
 31
0.0
  0
LINE
  5
E2
330
66
100
AcDbEntity
  8
CEN
 48
0.01
100
AcDbLine
 10
409.0451871878204
 20
-85.75159870375291
 30
0.0
 11
392.524194968137
 21
-85.7515987037495
 31
0.0
  0
LINE
  5
E3
330
66
100
AcDbEntity
  8
CEN
 48
0.01
100
AcDbLine
 10
400.7846910779769
 20
-94.01209481359291
 30
0.0
 11
400.7846910779803
 21
-77.4911025939129
 31
0.0
  0
LINE
  5
E4
330
66
100
AcDbEntity
  8
CEN
 48
0.01
100
AcDbLine
 10
409.0451871878204
 20
-85.75159870375291
 30
0.0
 11
392.524194968137
 21
-85.7515987037495
 31
0.0
  0
LINE
  5
E5
330
66
100
AcDbEntity
  8
CEN
 48
0.01
100
AcDbLine
 10
448.7846910779768
 20
-94.01209481359291
 30
0.0
 11
448.7846910779802
 21
-77.4911025939129
 31
0.0
  0
LINE
  5
E6
330
66
100
AcDbEntity
  8
CEN
 48
0.01
100
AcDbLine
 10
457.0451871878201
 20
-85.75159870375291
 30
0.0
 11
440.5241949681367
 21
-85.7515987037495
 31
0.0
  0
LINE
  5
E7
330
66
100
AcDbEntity
  8
CEN
 48
0.01
100
AcDbLine
 10
448.7846910779768
 20
-94.01209481359291
 30
0.0
 11
448.7846910779802
 21
-77.4911025939129
 31
0.0
  0
LINE
  5
E8
330
66
100
AcDbEntity
  8
CEN
 48
0.01
100
AcDbLine
 10
457.0451871878201
 20
-85.75159870375291
 30
0.0
 11
440.5241949681367
 21
-85.7515987037495
 31
0.0
  0
LWPOLYLINE
  5
E9
330
66
100
AcDbEntity
  8
LF-LINE
100
AcDbPolyline
 90
        9
 70
     0
 43
0.0
 10
472.6088993160026
 20
-191.5015656349793
 10
385.7809944901373
 20
-191.5015656349665
 42
-0.9999999999999998
 10
385.7809944901373
 20
-182.5015575287469
 10
434.7309129160373
 20
-182.5015575287567
 10
455.1309312760692
 20
-182.5015575287601
 10
467.5310680651289
 20
-182.501557528764
 42
0.4142135623725956
 10
469.0310694151295
 20
-181.001556172565
 10
469.0310694151329
 20
-177.2515527973842
 10
469.0310694151329
 20
-175.751551447384
  0
HATCH
  5
EA
330
66
100
AcDbEntity
  8
COIN-LINE
 62
     4
100
AcDbHatch
 10
0.0
 20
0.0
 30
0.0
210
0.0
220
0.0
230
1.0
  2
ANSI37
 70
     0
 71
     0
 91
        1
 92
        7
 72
     1
 73
     1
 93
       10
 10
469.0310694151329
 20
-175.751551447384
 42
0.0
 10
469.0310694151329
 20
-177.2515527973842
 42
0.0
 10
469.0310694151295
 20
-181.001556172565
 42
-0.4142135623725956
 10
467.5310680651289
 20
-182.501557528764
 42
0.0
 10
455.1309312760692
 20
-182.5015575287601
 42
0.0
 10
434.7309129160373
 20
-182.5015575287567
 42
0.0
 10
385.7809944901373
 20
-182.5015575287469
 42
0.9999999999999998
 10
385.7809944901373
 20
-191.5015656349665
 42
0.0
 10
472.6088993160026
 20
-191.5015656349793
 42
0.0
 10
472.6088993160026
 20
-175.751551447384
 42
0.0
 97
        0
 75
     0
 76
     1
 52
0.0
 41
10.0
 77
     0
 78
     2
 53
44.99999999999954
 43
257.0
 44
0.0
 45
-0.8838834764831631
 46
0.8838834764831842
 79
     0
 53
135.0000000000004
 43
257.0
 44
0.0
 45
-0.8838834764831631
 46
-0.8838834764831842
 79
     0
 47
0.0
 98
        1
 10
0.0
 20
0.0
  0
LINE
  5
EB
330
66
100
AcDbEntity
  8
LF-LINE
100
AcDbLine
 10
372.2846910779785
 20
-162.2515987037527
 30
0.0
 11
471.2846910779783
 21
-162.2515987037527
 31
0.0
  0
LINE
  5
EC
330
66
100
AcDbEntity
  8
LF-LINE
100
AcDbLine
 10
372.2846910779785
 20
-63.25159870375291
 30
0.0
 11
372.2846910779785
 21
-162.2515987037527
 31
0.0
  0
LINE
  5
ED
330
66
100
AcDbEntity
  8
DIM
100
AcDbLine
 10
393.7374786055843
 20
-148.54303876686
 30
0.0
 11
393.7374786055843
 21
-194.2760105044704
 31
0.0
  0
TEXT
  5
EE
330
66
100
AcDbEntity
  8
DIM
100
AcDbText
 10
384.8711743919202
 20
-195.1667453287643
 30
0.0
 40
2.5
  1
A
 50
90.0
  7
SIMPLEX
100
AcDbText
  0
SOLID
  5
EF
330
66
100
AcDbEntity
  8
DIM
100
AcDbTrace
 10
385.627747199423
 20
-194.2760105044703
 30
0.0
 11
388.6277471994231
 21
-194.7760105044703
 31
0.0
 12
388.6277471994231
 22
-193.7760105044703
 32
0.0
 13
388.6277471994231
 23
-193.7760105044703
 33
0.0
  0
LINE
  5
F0
330
66
100
AcDbEntity
  8
DIM
100
AcDbLine
 10
388.6277471994231
 20
-194.2760105044703
 30
0.0
 11
393.7374786055843
 21
-194.2760105044703
 31
0.0
  0
SOLID
  5
F1
330
66
100
AcDbEntity
  8
DIM
100
AcDbTrace
 10
385.627747199423
 20
-148.54303876686
 30
0.0
 11
388.6277471994231
 21
-149.04303876686
 31
0.0
 12
388.6277471994231
 22
-148.04303876686
 32
0.0
 13
388.6277471994231
 23
-148.04303876686
 33
0.0
  0
LINE
  5
F2
330
66
100
AcDbEntity
  8
DIM
100
AcDbLine
 10
388.6277471994231
 20
-148.54303876686
 30
0.0
 11
393.7374786055843
 21
-148.54303876686
 31
0.0
  0
TEXT
  5
F3
330
66
100
AcDbEntity
  8
DIM
100
AcDbText
 10
384.8711743919202
 20
-149.433773591154
 30
0.0
 40
2.5
  1
A
 50
90.0
  7
SIMPLEX
100
AcDbText
  0
LINE
  5
F4
330
66
100
AcDbEntity
  8
LF-LINE
100
AcDbLine
 10
476.534691077979
 20
-203.5010941015364
 30
0.0
 11
476.534691077979
 21
-217.0010941030179
 31
0.0
  0
ARC
  5
F5
330
66
100
AcDbEntity
  8
LF-LINE
100
AcDbCircle
 10
472.7846910779789
 20
-217.0010941030179
 30
0.0
 40
3.75
100
AcDbArc
 50
180.0
 51
-0.000000000000014
  0
LINE
  5
F6
330
66
100
AcDbEntity
  8
LF-LINE
100
AcDbLine
 10
469.034691077979
 20
-217.0010941030179
 30
0.0
 11
469.034691077979
 21
-203.5010941015364
 31
0.0
  0
ARC
  5
F7
330
66
100
AcDbEntity
  8
LF-LINE
100
AcDbCircle
 10
472.7846910779789
 20
-203.5010941015364
 30
0.0
 40
3.75
100
AcDbArc
 50
0.0
 51
179.9999999999992
  0
LINE
  5
F8
330
66
100
AcDbEntity
  8
LF-LINE
100
AcDbLine
 10
348.2846884684974
 20
-65.50159870374727
 30
0.0
 11
336.2846884685083
 21
-65.50159870374727
 31
0.0
  0
ARC
  5
F9
330
66
100
AcDbEntity
  8
LF-LINE
100
AcDbCircle
 10
336.2846884685083
 20
-61.75159870374727
 30
0.0
 40
3.75
100
AcDbArc
 50
90.0
 51
270.0
  0
LINE
  5
FA
330
66
100
AcDbEntity
  8
LF-LINE
100
AcDbLine
 10
336.2846884685083
 20
-58.00159870374727
 30
0.0
 11
348.2846884684974
 21
-58.00159870374727
 31
0.0
  0
ARC
  5
FB
330
66
100
AcDbEntity
  8
LF-LINE
100
AcDbCircle
 10
348.2846884684974
 20
-61.75159870374727
 30
0.0
 40
3.75
100
AcDbArc
 50
270.0
 51
90.0
  0
POINT
  5
FC
330
66
100
AcDbEntity
  8
DIM
 62
     7
100
AcDbPoint
 10
448.7846910779785
 20
-85.75159870375291
 30
0.0
  0
POINT
  5
FD
330
66
100
AcDbEntity
  8
DIM
 62
     7
100
AcDbPoint
 10
448.7846910779785
 20
-133.7515987037527
 30
0.0
  0
POINT
  5
FE
330
66
100
AcDbEntity
  8
DIM
 62
     7
100
AcDbPoint
 10
471.2846910779783
 20
-108.2515987037529
 30
0.0
  0
POINT
  5
FF
330
66
100
AcDbEntity
  8
DIM
 62
     7
100
AcDbPoint
 10
471.2846910779783
 20
-111.2515987037527
 30
0.0
  0
LINE
  5
100
330
66
100
AcDbEntity
  8
DIM
 62
     7
370
    -2
100
AcDbLine
 10
472.2846910779782
 20
-108.2515987037529
 30
0.0
 11
479.0520009111901
 21
-108.2515987037529
 31
0.0
  0
LINE
  5
101
330
66
100
AcDbEntity
  8
DIM
 62
     7
370
    -2
100
AcDbLine
 10
472.2846910779782
 20
-111.2515987037527
 30
0.0
 11
479.0520009111901
 21
-111.2515987037527
 31
0.0
  0
LINE
  5
102
330
66
100
AcDbEntity
  8
DIM
 62
     7
370
    -2
100
AcDbLine
 10
477.8020009111901
 20
-105.7515987037529
 30
0.0
 11
477.8020009111901
 21
-103.2515987037529
 31
0.0
  0
SOLID
  5
103
330
66
100
AcDbEntity
  8
DIM
 62
     7
100
AcDbTrace
 10
477.8020009111901
 20
-108.2515987037529
 30
0.0
 11
477.3853342445233
 21
-105.7515987037529
 31
0.0
 12
478.2186675778568
 22
-105.7515987037529
 32
0.0
 13
478.2186675778568
 23
-105.7515987037529
 33
0.0
  0
LINE
  5
104
330
66
100
AcDbEntity
  8
DIM
 62
     7
370
    -2
100
AcDbLine
 10
477.8020009111901
 20
-113.7515987037527
 30
0.0
 11
477.8020009111901
 21
-121.2515987037527
 31
0.0
  0
SOLID
  5
105
330
66
100
AcDbEntity
  8
DIM
 62
     7
100
AcDbTrace
 10
477.8020009111901
 20
-111.2515987037527
 30
0.0
 11
477.3853342445233
 21
-113.7515987037527
 31
0.0
 12
478.2186675778568
 22
-113.7515987037527
 32
0.0
 13
478.2186675778568
 23
-113.7515987037527
 33
0.0
  0
MTEXT
  5
106
330
66
100
AcDbEntity
  8
DIM
 62
     7
100
AcDbMText
 10
475.3020009111901
 20
-118.7515987037527
 30
0.0
 40
2.5
 41
0.0
 46
0.0
 71
     5
 72
     1
  1
\A1;0.2000
  7
SIMPLEX
 11
0.0
 21
1.0
 31
0.0
 73
     1
 44
1.0
  0
MTEXT
  5
107
330
66
100
AcDbEntity
  8
DIM
100
AcDbMText
 10
479.4872593362221
 20
-116.7446330582585
 30
0.0
 40
1.800000000000068
 41
0.0
 46
0.0
 71
     5
 72
     1
  1
REF.
  7
SIMPLEX
 11
0.0
 21
1.0
 31
0.0
 73
     1
 44
1.0
  0
POINT
  5
108
330
66
100
AcDbEntity
  8
DIM
 62
     7
100
AcDbPoint
 10
400.7846910779786
 20
-85.75159870375291
 30
0.0
  0
POINT
  5
109
330
66
100
AcDbEntity
  8
DIM
 62
     7
100
AcDbPoint
 10
448.7846910779785
 20
-85.7515987037512
 30
0.0
  0
LINE
  5
10A
330
66
100
AcDbEntity
  8
DIM
 62
     7
370
    -2
100
AcDbLine
 10
400.7846910779786
 20
-85.75159870375063
 30
0.0
 11
400.7846910779786
 21
-38.67420206971792
 31
0.0
  0
LINE
  5
10B
330
66
100
AcDbEntity
  8
DIM
 62
     7
370
    -2
100
AcDbLine
 10
448.7846910779785
 20
-85.75159870374893
 30
0.0
 11
448.7846910779785
 21
-38.67420206971792
 31
0.0
  0
LINE
  5
10C
330
66
100
AcDbEntity
  8
DIM
 62
     7
370
    -2
100
AcDbLine
 10
403.2846910779786
 20
-39.92420206971792
 30
0.0
 11
446.2846910779784
 21
-39.92420206971792
 31
0.0
  0
SOLID
  5
10D
330
66
100
AcDbEntity
  8
DIM
 62
     7
100
AcDbTrace
 10
400.7846910779786
 20
-39.92420206971792
 30
0.0
 11
403.2846910779786
 21
-40.34086873638466
 31
0.0
 12
403.2846910779786
 22
-39.50753540305118
 32
0.0
 13
403.2846910779786
 23
-39.50753540305118
 33
0.0
  0
SOLID
  5
10E
330
66
100
AcDbEntity
  8
DIM
 62
     7
100
AcDbTrace
 10
448.7846910779785
 20
-39.92420206971792
 30
0.0
 11
446.2846910779784
 21
-40.34086873638466
 31
0.0
 12
446.2846910779784
 22
-39.50753540305118
 32
0.0
 13
446.2846910779784
 23
-39.50753540305118
 33
0.0
  0
MTEXT
  5
10F
330
66
100
AcDbEntity
  8
DIM
 62
     7
100
AcDbMText
 10
424.7846910779785
 20
-37.42420206971792
 30
0.0
 40
2.5
 41
0.0
 46
0.0
 71
     5
 72
     1
  1
\A1;3.2000
  7
SIMPLEX
 73
     1
 44
1.0
  0
LINE
  5
110
330
66
100
AcDbEntity
  8
DIM
 62
     7
370
    -2
100
AcDbLine
 10
423.2846910779784
 20
-84.75159870375291
 30
0.0
 11
423.2846910779784
 21
-51.59732196826269
 31
0.0
  0
LINE
  5
111
330
66
100
AcDbEntity
  8
DIM
 62
     7
370
    -2
100
AcDbLine
 10
426.2846910779782
 20
-84.75159870375291
 30
0.0
 11
426.2846910779782
 21
-51.59732196826269
 31
0.0
  0
LINE
  5
112
330
66
100
AcDbEntity
  8
DIM
 62
     7
370
    -2
100
AcDbLine
 10
420.7846910779784
 20
-52.84732196826269
 30
0.0
 11
418.2846910779784
 21
-52.84732196826269
 31
0.0
  0
SOLID
  5
113
330
66
100
AcDbEntity
  8
DIM
 62
     7
100
AcDbTrace
 10
423.2846910779784
 20
-52.84732196826269
 30
0.0
 11
420.7846910779784
 21
-53.26398863492944
 31
0.0
 12
420.7846910779784
 22
-52.43065530159594
 32
0.0
 13
420.7846910779784
 23
-52.43065530159594
 33
0.0
  0
LINE
  5
114
330
66
100
AcDbEntity
  8
DIM
 62
     7
370
    -2
100
AcDbLine
 10
428.7846910779783
 20
-52.84732196826269
 30
0.0
 11
435.4596910779783
 21
-52.84732196826269
 31
0.0
  0
SOLID
  5
115
330
66
100
AcDbEntity
  8
DIM
 62
     7
100
AcDbTrace
 10
426.2846910779782
 20
-52.84732196826269
 30
0.0
 11
428.7846910779783
 21
-53.26398863492944
 31
0.0
 12
428.7846910779783
 22
-52.43065530159594
 32
0.0
 13
428.7846910779783
 23
-52.43065530159594
 33
0.0
  0
MTEXT
  5
116
330
66
100
AcDbEntity
  8
DIM
 62
     7
100
AcDbMText
 10
433.3721910779782
 20
-50.34732196826269
 30
0.0
 40
2.5
 41
0.0
 46
0.0
 71
     5
 72
     1
  1
\A1;0.2000
  7
SIMPLEX
 73
     1
 44
1.0
  0
MTEXT
  5
117
330
66
100
AcDbEntity
  8
DIM
100
AcDbMText
 10
424.2387129088475
 20
-41.51606104434176
 30
0.0
 40
1.800000000000011
 41
0.0
 46
0.0
 71
     5
 72
     1
  1
TYP.
  7
SIMPLEX
 73
     1
 44
1.0
  0
MTEXT
  5
118
330
66
100
AcDbEntity
  8
DIM
100
AcDbMText
 10
442.8716567178695
 20
-54.94241090521268
 30
0.0
 40
1.800000000000011
 41
0.0
 46
0.0
 71
     5
 72
     1
  1
(SAW STREET REF.)
  7
SIMPLEX
 73
     1
 44
1.0
  0
LINE
  5
119
330
66
100
AcDbEntity
  8
DIM
100
AcDbLine
 10
470.0310694151329
 20
-175.751551447384
 30
0.0
 11
497.5112384946602
 21
-175.751551447384
 31
0.0
  0
LINE
  5
11A
330
66
100
AcDbEntity
  8
COIN-LINE
100
AcDbLine
 10
497.5112384946602
 20
-175.751551447384
 30
0.0
 11
502.5112384946602
 21
-175.751551447384
 31
0.0
  0
LINE
  5
11B
330
66
100
AcDbEntity
  8
DIM
100
AcDbLine
 10
502.5112384946602
 20
-175.751551447384
 30
0.0
 11
525.5112384946603
 21
-175.751551447384
 31
0.0
  0
TEXT
  5
11C
330
66
100
AcDbEntity
  8
DIM
100
AcDbText
 10
510.7612384946603
 20
-175.251551447384
 30
0.0
 40
2.5
  1
70,0000
  7
SIMPLEX
 72
     2
 11
525.5112384946603
 21
-175.251551447384
 31
0.0
100
AcDbText
  0
LINE
  5
11D
330
66
100
AcDbEntity
  8
DIM
100
AcDbLine
 10
468.531068065129
 20
-182.501557528764
 30
0.0
 11
497.5112384946602
 21
-182.501557528764
 31
0.0
  0
LINE
  5
11E
330
66
100
AcDbEntity
  8
COIN-LINE
100
AcDbLine
 10
497.5112384946602
 20
-182.501557528764
 30
0.0
 11
502.5112384946602
 21
-182.501557528764
 31
0.0
  0
LINE
  5
11F
330
66
100
AcDbEntity
  8
DIM
100
AcDbLine
 10
502.5112384946602
 20
-182.501557528764
 30
0.0
 11
525.5112384946603
 21
-182.501557528764
 31
0.0
  0
TEXT
  5
120
330
66
100
AcDbEntity
  8
DIM
100
AcDbText
 10
510.7612384946603
 20
-182.001557528764
 30
0.0
 40
2.5
  1
70.4500
  7
SIMPLEX
 72
     2
 11
525.5112384946603
 21
-182.001557528764
 31
0.0
100
AcDbText
  0
LINE
  5
121
330
66
100
AcDbEntity
  8
DIM
100
AcDbLine
 10
473.6088993160026
 20
-191.5015656349793
 30
0.0
 11
497.5112384946602
 21
-191.5015656349793
 31
0.0
  0
LINE
  5
122
330
66
100
AcDbEntity
  8
COIN-LINE
100
AcDbLine
 10
497.5112384946602
 20
-191.5015656349793
 30
0.0
 11
502.5112384946602
 21
-191.5015656349793
 31
0.0
  0
LINE
  5
123
330
66
100
AcDbEntity
  8
DIM
100
AcDbLine
 10
502.5112384946602
 20
-191.5015656349793
 30
0.0
 11
525.5112384946603
 21
-191.5015656349793
 31
0.0
  0
TEXT
  5
124
330
66
100
AcDbEntity
  8
DIM
100
AcDbText
 10
511.2362384946603
 20
-191.0015656349793
 30
0.0
 40
2.5
  1
71.0500
  7
SIMPLEX
 72
     2
 11
525.5112384946603
 21
-191.0015656349793
 31
0.0
100
AcDbText
  0
LINE
  5
125
330
66
100
AcDbEntity
  8
DIM
100
AcDbLine
 10
472.7846910779789
 20
-199.7510941015363
 30
0.0
 11
497.5112384946602
 21
-199.7510941015363
 31
0.0
  0
LINE
  5
126
330
66
100
AcDbEntity
  8
COIN-LINE
100
AcDbLine
 10
497.5112384946602
 20
-199.7510941015363
 30
0.0
 11
502.5112384946602
 21
-199.7510941015363
 31
0.0
  0
LINE
  5
127
330
66
100
AcDbEntity
  8
DIM
100
AcDbLine
 10
502.5112384946602
 20
-199.7510941015363
 30
0.0
 11
525.5112384946603
 21
-199.7510941015363
 31
0.0
  0
TEXT
  5
128
330
66
100
AcDbEntity
  8
DIM
100
AcDbText
 10
511.2362384946603
 20
-199.2510941015364
 30
0.0
 40
2.5
  1
71.6000
  7
SIMPLEX
 72
     2
 11
525.5112384946603
 21
-199.2510941015364
 31
0.0
100
AcDbText
  0
LINE
  5
129
330
66
100
AcDbEntity
  8
DIM
100
AcDbLine
 10
472.7846910779789
 20
-220.751094103018
 30
0.0
 11
497.5112384946602
 21
-220.751094103018
 31
0.0
  0
LINE
  5
12A
330
66
100
AcDbEntity
  8
COIN-LINE
100
AcDbLine
 10
497.5112384946602
 20
-220.751094103018
 30
0.0
 11
502.5112384946602
 21
-220.751094103018
 31
0.0
  0
LINE
  5
12B
330
66
100
AcDbEntity
  8
DIM
100
AcDbLine
 10
502.5112384946602
 20
-220.751094103018
 30
0.0
 11
525.5112384946603
 21
-220.751094103018
 31
0.0
  0
TEXT
  5
12C
330
66
100
AcDbEntity
  8
DIM
100
AcDbText
 10
510.7612384946603
 20
-220.251094103018
 30
0.0
 40
2.5
  1
73.0000
  7
SIMPLEX
 72
     2
 11
525.5112384946603
 21
-220.251094103018
 31
0.0
100
AcDbText
  0
POINT
  5
12D
330
66
100
AcDbEntity
  8
DIM
 62
     7
100
AcDbPoint
 10
421.0346910779789
 20
-217.0010941030179
 30
0.0
  0
POINT
  5
12E
330
66
100
AcDbEntity
  8
DIM
 62
     7
100
AcDbPoint
 10
428.5346910779789
 20
-217.0010941030179
 30
0.0
  0
LINE
  5
12F
330
66
100
AcDbEntity
  8
DIM
 62
     7
370
    -2
100
AcDbLine
 10
421.0346910779789
 20
-218.0010941030179
 30
0.0
 11
421.0346910779789
 21
-247.1832959134665
 31
0.0
  0
LINE
  5
130
330
66
100
AcDbEntity
  8
DIM
 62
     7
370
    -2
100
AcDbLine
 10
428.5346910779789
 20
-218.0010941030179
 30
0.0
 11
428.5346910779789
 21
-247.1832959134665
 31
0.0
  0
LINE
  5
131
330
66
100
AcDbEntity
  8
DIM
 62
     7
370
    -2
100
AcDbLine
 10
423.534691077979
 20
-245.9332959134665
 30
0.0
 11
426.034691077979
 21
-245.9332959134665
 31
0.0
  0
SOLID
  5
132
330
66
100
AcDbEntity
  8
DIM
 62
     7
100
AcDbTrace
 10
421.0346910779789
 20
-245.9332959134665
 30
0.0
 11
423.534691077979
 21
-246.3499625801333
 31
0.0
 12
423.534691077979
 22
-245.5166292467998
 32
0.0
 13
423.534691077979
 23
-245.5166292467998
 33
0.0
  0
LINE
  5
133
330
66
100
AcDbEntity
  8
DIM
 62
     7
370
    -2
100
AcDbLine
 10
428.5346910779789
 20
-245.9332959134665
 30
0.0
 11
445.0436951116652
 21
-245.9332959134665
 31
0.0
  0
SOLID
  5
134
330
66
100
AcDbEntity
  8
DIM
 62
     7
100
AcDbTrace
 10
428.5346910779789
 20
-245.9332959134665
 30
0.0
 11
426.034691077979
 21
-246.3499625801333
 31
0.0
 12
426.034691077979
 22
-245.5166292467998
 32
0.0
 13
426.034691077979
 23
-245.5166292467998
 33
0.0
  0
MTEXT
  5
135
330
66
100
AcDbEntity
  8
DIM
 62
     7
100
AcDbMText
 10
437.9777250103508
 20
-243.4332959134665
 30
0.0
 40
2.5
 41
0.0
 46
0.0
 71
     5
 72
     1
  1
\A1;0.5000
  7
SIMPLEX
 73
     1
 44
1.0
  0
LINE
  5
136
330
66
100
AcDbEntity
  8
0
100
AcDbLine
 10
348.2846884684974
 20
-61.75159870374727
 30
0.0
 11
348.2846884684974
 21
-34.9242020697202
 31
0.0
  0
LINE
  5
137
330
66
100
AcDbEntity
  8
COIN-LINE
100
AcDbLine
 10
348.2846884684974
 20
-34.9242020697202
 30
0.0
 11
348.2846884684974
 21
-29.9242020697202
 31
0.0
  0
LINE
  5
138
330
66
100
AcDbEntity
  8
0
100
AcDbLine
 10
348.2846884684974
 20
-29.9242020697202
 30
0.0
 11
348.2846884684974
 21
-6.924202069720195
 31
0.0
  0
TEXT
  5
139
330
66
100
AcDbEntity
  8
0
100
AcDbText
 10
347.7846884684974
 20
-21.67420206972019
 30
0.0
 40
2.5
  1
25.9000
 50
90.0
  7
SIMPLEX
 72
     2
 11
347.7846884684974
 21
-6.924202069720195
 31
0.0
100
AcDbText
  0
LINE
  5
13A
330
66
100
AcDbEntity
  8
0
100
AcDbLine
 10
336.2846884685083
 20
-61.75159870374727
 30
0.0
 11
336.2846884685083
 21
-34.9242020697202
 31
0.0
  0
LINE
  5
13B
330
66
100
AcDbEntity
  8
COIN-LINE
100
AcDbLine
 10
336.2846884685083
 20
-34.9242020697202
 30
0.0
 11
336.2846884685083
 21
-29.9242020697202
 31
0.0
  0
LINE
  5
13C
330
66
100
AcDbEntity
  8
0
100
AcDbLine
 10
336.2846884685083
 20
-29.9242020697202
 30
0.0
 11
336.2846884685083
 21
-6.924202069720195
 31
0.0
  0
TEXT
  5
13D
330
66
100
AcDbEntity
  8
0
100
AcDbText
 10
335.7846884685083
 20
-21.67420206972019
 30
0.0
 40
2.5
  1
26.7000
 50
90.0
  7
SIMPLEX
 72
     2
 11
335.7846884685083
 21
-6.924202069720195
 31
0.0
100
AcDbText
  0
POINT
  5
13E
330
66
100
AcDbEntity
  8
DIM
100
AcDbPoint
 10
332.5346884685083
 20
-109.7515987037473
 30
0.0
  0
POINT
  5
13F
330
66
100
AcDbEntity
  8
DIM
 62
     7
100
AcDbPoint
 10
336.2846884685083
 20
-106.0015987037473
 30
0.0
  0
POINT
  5
140
330
66
100
AcDbEntity
  8
DIM
 62
     7
100
AcDbPoint
 10
336.2846884685083
 20
-113.5015987037472
 30
0.0
  0
LINE
  5
141
330
66
100
AcDbEntity
  8
DIM
 62
     7
370
    -2
100
AcDbLine
 10
335.2846884685083
 20
-106.0015987037473
 30
0.0
 11
310.6448321276342
 21
-106.0015987037473
 31
0.0
  0
LINE
  5
142
330
66
100
AcDbEntity
  8
DIM
 62
     7
370
    -2
100
AcDbLine
 10
335.2846884685083
 20
-113.5015987037472
 30
0.0
 11
310.6448321276342
 21
-113.5015987037472
 31
0.0
  0
LINE
  5
143
330
66
100
AcDbEntity
  8
DIM
 62
     7
370
    -2
100
AcDbLine
 10
311.8948321276342
 20
-108.5015987037472
 30
0.0
 11
311.8948321276342
 21
-111.0015987037473
 31
0.0
  0
SOLID
  5
144
330
66
100
AcDbEntity
  8
DIM
 62
     7
100
AcDbTrace
 10
311.8948321276342
 20
-106.0015987037473
 30
0.0
 11
311.4781654609674
 21
-108.5015987037472
 31
0.0
 12
312.3114987943009
 22
-108.5015987037472
 32
0.0
 13
312.3114987943009
 23
-108.5015987037472
 33
0.0
  0
LINE
  5
145
330
66
100
AcDbEntity
  8
DIM
 62
     7
370
    -2
100
AcDbLine
 10
311.8948321276342
 20
-113.5015987037472
 30
0.0
 11
311.8948321276342
 21
-121.0015987037472
 31
0.0
  0
SOLID
  5
146
330
66
100
AcDbEntity
  8
DIM
 62
     7
100
AcDbTrace
 10
311.8948321276342
 20
-113.5015987037472
 30
0.0
 11
311.4781654609674
 21
-111.0015987037473
 31
0.0
 12
312.3114987943009
 22
-111.0015987037473
 32
0.0
 13
312.3114987943009
 23
-111.0015987037473
 33
0.0
  0
MTEXT
  5
147
330
66
100
AcDbEntity
  8
DIM
 62
     7
100
AcDbMText
 10
309.3948321276342
 20
-118.5015987037473
 30
0.0
 40
2.5
 41
0.0
 46
0.0
 71
     5
 72
     1
  1
\A1;0.5000
  7
SIMPLEX
 11
0.0
 21
1.0
 31
0.0
 73
     1
 44
1.0
  0
MTEXT
  5
148
330
66
100
AcDbEntity
  8
DIM
100
AcDbMText
 10
437.7082929779638
 20
-247.8216426368462
 30
0.0
 40
1.800000000000011
 41
0.0
 46
0.0
 71
     5
 72
     1
  1
TYP.
  7
SIMPLEX
 73
     1
 44
1.0
  0
POINT
  5
149
330
66
100
AcDbEntity
  8
DIM
100
AcDbPoint
 10
376.7846910779792
 20
-220.751094103018
 30
0.0
  0
LINE
  5
14A
330
66
100
AcDbEntity
  8
DIM
370
    -2
100
AcDbLine
 10
376.7846910779792
 20
-221.7510941030179
 30
0.0
 11
376.7846910779792
 21
-237.2032457142779
 31
0.0
  0
POINT
  5
14B
330
66
100
AcDbEntity
  8
DIM
100
AcDbPoint
 10
332.5346884685083
 20
-157.7515987037513
 30
0.0
  0
POINT
  5
14C
330
66
100
AcDbEntity
  8
DIM
 62
     7
100
AcDbPoint
 10
424.784691077979
 20
-220.751094103018
 30
0.0
  0
POINT
  5
14D
330
66
100
AcDbEntity
  8
DIM
 62
     7
100
AcDbPoint
 10
472.7846910779789
 20
-220.751094103018
 30
0.0
  0
LINE
  5
14E
330
66
100
AcDbEntity
  8
DIM
 62
     7
370
    -2
100
AcDbLine
 10
424.784691077979
 20
-221.7510941030179
 30
0.0
 11
424.784691077979
 21
-256.8778892117678
 31
0.0
  0
LINE
  5
14F
330
66
100
AcDbEntity
  8
DIM
 62
     7
370
    -2
100
AcDbLine
 10
472.7846910779789
 20
-221.7510941030179
 30
0.0
 11
472.7846910779789
 21
-256.8778892117678
 31
0.0
  0
LINE
  5
150
330
66
100
AcDbEntity
  8
DIM
 62
     7
370
    -2
100
AcDbLine
 10
427.2846910779789
 20
-255.6278892117678
 30
0.0
 11
470.284691077979
 21
-255.6278892117678
 31
0.0
  0
SOLID
  5
151
330
66
100
AcDbEntity
  8
DIM
 62
     7
100
AcDbTrace
 10
424.784691077979
 20
-255.6278892117678
 30
0.0
 11
427.2846910779789
 21
-256.0445558784345
 31
0.0
 12
427.2846910779789
 22
-255.2112225451011
 32
0.0
 13
427.2846910779789
 23
-255.2112225451011
 33
0.0
  0
SOLID
  5
152
330
66
100
AcDbEntity
  8
DIM
 62
     7
100
AcDbTrace
 10
472.7846910779789
 20
-255.6278892117678
 30
0.0
 11
470.284691077979
 21
-256.0445558784345
 31
0.0
 12
470.284691077979
 22
-255.2112225451011
 32
0.0
 13
470.284691077979
 23
-255.2112225451011
 33
0.0
  0
MTEXT
  5
153
330
66
100
AcDbEntity
  8
DIM
 62
     7
100
AcDbMText
 10
448.784691077979
 20
-253.1278892117678
 30
0.0
 40
2.5
 41
0.0
 46
0.0
 71
     5
 72
     1
  1
\A1;3.2000
  7
SIMPLEX
 73
     1
 44
1.0
  0
MTEXT
  5
154
330
66
100
AcDbEntity
  8
DIM
100
AcDbMText
 10
448.5919235583403
 20
-258.7052732172226
 30
0.0
 40
1.800000000000011
 41
0.0
 46
0.0
 71
     5
 72
     1
  1
TYP.
  7
SIMPLEX
 73
     1
 44
1.0
  0
POINT
  5
155
330
66
100
AcDbEntity
  8
DIM
 62
     7
100
AcDbPoint
 10
332.5346884685083
 20
-61.75159870374727
 30
0.0
  0
POINT
  5
156
330
66
100
AcDbEntity
  8
DIM
 62
     7
100
AcDbPoint
 10
332.5346884685083
 20
-109.7515987037473
 30
0.0
  0
LINE
  5
157
330
66
100
AcDbEntity
  8
DIM
 62
     7
370
    -2
100
AcDbLine
 10
331.5346884685083
 20
-61.75159870374727
 30
0.0
 11
290.8419573178441
 21
-61.75159870374727
 31
0.0
  0
LINE
  5
158
330
66
100
AcDbEntity
  8
DIM
 62
     7
370
    -2
100
AcDbLine
 10
331.5346884685083
 20
-109.7515987037473
 30
0.0
 11
290.8419573178441
 21
-109.7515987037473
 31
0.0
  0
LINE
  5
159
330
66
100
AcDbEntity
  8
DIM
 62
     7
370
    -2
100
AcDbLine
 10
292.0919573178441
 20
-64.25159870374727
 30
0.0
 11
292.0919573178441
 21
-107.2515987037472
 31
0.0
  0
SOLID
  5
15A
330
66
100
AcDbEntity
  8
DIM
 62
     7
100
AcDbTrace
 10
292.0919573178441
 20
-61.75159870374727
 30
0.0
 11
291.6752906511772
 21
-64.25159870374727
 31
0.0
 12
292.5086239845108
 22
-64.25159870374727
 32
0.0
 13
292.5086239845108
 23
-64.25159870374727
 33
0.0
  0
SOLID
  5
15B
330
66
100
AcDbEntity
  8
DIM
 62
     7
100
AcDbTrace
 10
292.0919573178441
 20
-109.7515987037473
 30
0.0
 11
291.6752906511772
 21
-107.2515987037472
 31
0.0
 12
292.5086239845108
 22
-107.2515987037472
 32
0.0
 13
292.5086239845108
 23
-107.2515987037472
 33
0.0
  0
MTEXT
  5
15C
330
66
100
AcDbEntity
  8
DIM
 62
     7
100
AcDbMText
 10
289.591957317844
 20
-85.75159870374728
 30
0.0
 40
2.5
 41
0.0
 46
0.0
 71
     5
 72
     1
  1
\A1;3.2000
  7
SIMPLEX
 11
0.0
 21
1.0
 31
0.0
 73
     1
 44
1.0
  0
MTEXT
  5
15D
330
66
100
AcDbEntity
  8
DIM
100
AcDbMText
 10
313.8344611651257
 20
-116.7446330582585
 30
0.0
 40
1.800000000000068
 41
0.0
 46
0.0
 71
     5
 72
     1
  1
TYP.
  7
SIMPLEX
 11
0.0
 21
1.0
 31
0.0
 73
     1
 44
1.0
  0
POINT
  5
15E
330
66
100
AcDbEntity
  8
DIM
100
AcDbPoint
 10
347.5346847705154
 20
-207.2516000976684
 30
0.0
  0
POINT
  5
15F
330
66
100
AcDbEntity
  8
DIM
100
AcDbPoint
 10
372.2846910779785
 20
-63.25159870375291
 30
0.0
  0
LINE
  5
160
330
66
100
AcDbEntity
  8
DIM
370
    -2
100
AcDbLine
 10
348.2846884684974
 20
-60.75159870374728
 30
0.0
 11
348.2846884684974
 21
-44.59776677631021
 31
0.0
  0
LINE
  5
161
330
66
100
AcDbEntity
  8
DIM
370
    -2
100
AcDbLine
 10
372.2846910779785
 20
-62.2515987037529
 30
0.0
 11
372.2846910779785
 21
-44.59776677631021
 31
0.0
  0
POINT
  5
162
330
66
100
AcDbEntity
  8
DIM
100
AcDbPoint
 10
469.0310694151329
 20
-175.751551447384
 30
0.0
  0
CIRCLE
  5
163
330
66
100
AcDbEntity
  8
LF-LINE
100
AcDbCircle
 10
321.4721339366085
 20
-225.5765718760039
 30
0.0
 40
5.489656961613036
  0
LINE
  5
164
330
66
100
AcDbEntity
  8
DIM
100
AcDbLine
 10
315.4967851130313
 20
-230.8803276019801
 30
0.0
 11
305.8761313987678
 21
-239.4196779782001
 31
0.0
  0
MTEXT
  5
165
330
66
100
AcDbEntity
  8
DIM
100
AcDbMText
 10
296.0547892577103
 20
-235.8932546529413
 30
0.0
 40
3.0
 41
0.0
 46
0.0
 71
     5
 72
     1
  1
Detail D
  7
SIMPLEX
 73
     1
 44
1.0
  0
LINE
  5
166
330
66
100
AcDbEntity
  8
DIM
100
AcDbLine
 10
287.6188662922242
 20
-239.4196779782001
 30
0.0
 11
305.8761313987677
 21
-239.4196779782001
 31
0.0
  0
SOLID
  5
167
330
66
100
AcDbEntity
  8
DIM
100
AcDbTrace
 10
317.3664989356292
 20
-229.2207583140061
 30
0.0
 11
315.2201902317023
 21
-230.5687086315471
 31
0.0
 12
315.7733799943604
 22
-231.1919465724131
 32
0.0
 13
315.7733799943604
 23
-231.1919465724131
 33
0.0
  0
POINT
  5
168
330
66
100
AcDbEntity
  8
DIM
 62
     7
100
AcDbPoint
 10
392.524194968137
 20
-85.7515987037495
 30
0.0
  0
POINT
  5
169
330
66
100
AcDbEntity
  8
DIM
 62
     7
100
AcDbPoint
 10
400.7846910779769
 20
-142.0120948135927
 30
0.0
  0
POINT
  5
16A
330
66
100
AcDbEntity
  8
DIM
 62
     7
100
AcDbPoint
 10
424.784691077979
 20
-199.7510941015363
 30
0.0
  0
LINE
  5
16B
330
66
100
AcDbEntity
  8
DIM
 62
     7
370
    -2
100
AcDbLine
 10
424.784691077979
 20
-200.7510941015364
 30
0.0
 11
424.784691077979
 21
-207.0382683169924
 31
0.0
  0
LINE
  5
16C
330
66
100
AcDbEntity
  8
CEN
100
AcDbLine
 10
331.5346884685083
 20
-61.75159870374727
 30
0.0
 11
341.0346884685083
 21
-61.75159870374727
 31
0.0
  0
LINE
  5
16D
330
66
100
AcDbEntity
  8
CEN
100
AcDbLine
 10
336.2846884685083
 20
-57.00159870374728
 30
0.0
 11
336.2846884685083
 21
-66.50159870374728
 31
0.0
  0
LINE
  5
16E
330
66
100
AcDbEntity
  8
CEN
100
AcDbLine
 10
343.5346884684974
 20
-61.75159870374727
 30
0.0
 11
353.0346884684974
 21
-61.75159870374727
 31
0.0
  0
LINE
  5
16F
330
66
100
AcDbEntity
  8
CEN
100
AcDbLine
 10
348.2846884684974
 20
-57.00159870374728
 30
0.0
 11
348.2846884684974
 21
-66.50159870374728
 31
0.0
  0
LINE
  5
170
330
66
100
AcDbEntity
  8
CEN
100
AcDbLine
 10
343.5346884684974
 20
-109.7515987037473
 30
0.0
 11
353.0346884684974
 21
-109.7515987037473
 31
0.0
  0
LINE
  5
171
330
66
100
AcDbEntity
  8
CEN
100
AcDbLine
 10
348.2846884684974
 20
-105.0015987037473
 30
0.0
 11
348.2846884684974
 21
-114.5015987037472
 31
0.0
  0
LINE
  5
172
330
66
100
AcDbEntity
  8
CEN
100
AcDbLine
 10
331.5346884685083
 20
-109.7515987037473
 30
0.0
 11
341.0346884685083
 21
-109.7515987037473
 31
0.0
  0
LINE
  5
173
330
66
100
AcDbEntity
  8
CEN
100
AcDbLine
 10
336.2846884685083
 20
-105.0015987037473
 30
0.0
 11
336.2846884685083
 21
-114.5015987037472
 31
0.0
  0
LINE
  5
174
330
66
100
AcDbEntity
  8
CEN
100
AcDbLine
 10
331.5346884685083
 20
-157.7515987037513
 30
0.0
 11
341.0346884685083
 21
-157.7515987037513
 31
0.0
  0
LINE
  5
175
330
66
100
AcDbEntity
  8
CEN
100
AcDbLine
 10
336.2846884685083
 20
-153.0015987037513
 30
0.0
 11
336.2846884685083
 21
-162.5015987037514
 31
0.0
  0
LINE
  5
176
330
66
100
AcDbEntity
  8
CEN
100
AcDbLine
 10
372.0346910779792
 20
-217.0010941030179
 30
0.0
 11
381.5346910779792
 21
-217.0010941030179
 31
0.0
  0
LINE
  5
177
330
66
100
AcDbEntity
  8
CEN
100
AcDbLine
 10
376.7846910779792
 20
-212.251094103018
 30
0.0
 11
376.7846910779792
 21
-221.7510941030179
 31
0.0
  0
LINE
  5
178
330
66
100
AcDbEntity
  8
CEN
100
AcDbLine
 10
420.0346910779789
 20
-217.0010941030179
 30
0.0
 11
429.534691077979
 21
-217.0010941030179
 31
0.0
  0
LINE
  5
179
330
66
100
AcDbEntity
  8
CEN
100
AcDbLine
 10
424.784691077979
 20
-212.251094103018
 30
0.0
 11
424.784691077979
 21
-221.7510941030179
 31
0.0
  0
LINE
  5
17A
330
66
100
AcDbEntity
  8
CEN
100
AcDbLine
 10
420.0346910779789
 20
-203.5010941015364
 30
0.0
 11
429.534691077979
 21
-203.5010941015364
 31
0.0
  0
LINE
  5
17B
330
66
100
AcDbEntity
  8
CEN
100
AcDbLine
 10
424.784691077979
 20
-198.7510941015364
 30
0.0
 11
424.784691077979
 21
-208.2510941015364
 31
0.0
  0
LINE
  5
17C
330
66
100
AcDbEntity
  8
CEN
100
AcDbLine
 10
468.034691077979
 20
-203.5010941015364
 30
0.0
 11
477.534691077979
 21
-203.5010941015364
 31
0.0
  0
LINE
  5
17D
330
66
100
AcDbEntity
  8
CEN
100
AcDbLine
 10
472.7846910779789
 20
-198.7510941015364
 30
0.0
 11
472.7846910779789
 21
-208.2510941015364
 31
0.0
  0
LINE
  5
17E
330
66
100
AcDbEntity
  8
CEN
100
AcDbLine
 10
468.034691077979
 20
-217.0010941030179
 30
0.0
 11
477.534691077979
 21
-217.0010941030179
 31
0.0
  0
LINE
  5
17F
330
66
100
AcDbEntity
  8
CEN
100
AcDbLine
 10
472.7846910779789
 20
-212.251094103018
 30
0.0
 11
472.7846910779789
 21
-221.7510941030179
 31
0.0
  0
MTEXT
  5
180
330
66
100
AcDbEntity
  8
DIM
100
AcDbMText
 10
424.5347528939259
 20
-16.58142151229486
 30
0.0
 40
10.0
 41
0.0
 46
0.0
 71
     5
 72
     1
  1
Detail A
  7
SIMPLEX
 73
     1
 44
1.0
  0
MTEXT
  5
181
330
66
100
AcDbEntity
  8
DIM
100
AcDbMText
 10
293.8999198268394
 20
-85.4834788679533
 30
0.0
 40
1.800000000000068
 41
0.0
 46
0.0
 71
     5
 72
     1
  1
TYP.
  7
SIMPLEX
 11
0.0
 21
1.0
 31
0.0
 73
     1
 44
1.0
  0
LINE
  5
182
330
66
100
AcDbEntity
  8
DIM
100
AcDbLine
 10
285.1135094855816
 20
-157.7515987037162
 30
0.0
 11
304.5346884685085
 21
-157.7515987037162
 31
0.0
  0
LINE
  5
183
330
66
100
AcDbEntity
  8
COIN-LINE
100
AcDbLine
 10
304.5346884685085
 20
-157.7515987037162
 30
0.0
 11
309.5346884685085
 21
-157.7515987037162
 31
0.0
  0
LINE
  5
184
330
66
100
AcDbEntity
  8
DIM
100
AcDbLine
 10
309.5346884685085
 20
-157.7515987037162
 30
0.0
 11
332.5346884685085
 21
-157.7515987037162
 31
0.0
  0
TEXT
  5
185
330
66
100
AcDbEntity
  8
DIM
100
AcDbText
 10
286.1307112834055
 20
-157.0242563834767
 30
0.0
 40
2.5
  1
68.8000
  7
SIMPLEX
 72
     2
 11
300.8807112834054
 21
-157.0242563834767
 31
0.0
100
AcDbText
  0
LINE
  5
186
330
66
100
AcDbEntity
  8
0
100
AcDbLine
 10
376.7846910816149
 20
-240.2515987037113
 30
0.0
 11
376.7846910816149
 21
-263.2515987037113
 31
0.0
  0
TEXT
  5
187
330
66
100
AcDbEntity
  8
0
100
AcDbText
 10
376.2846910816149
 20
-263.2515987037113
 30
0.0
 40
2.5
  1
24.0000
 50
90.0
  7
SIMPLEX
100
AcDbText
  0
LINE
  5
188
330
66
100
AcDbEntity
  8
DIM
370
    -2
100
AcDbLine
 10
376.7846910779791
 20
-217.001094103018
 30
0.0
 11
376.7846910779792
 21
-243.723884623961
 31
0.0
  0
LINE
  5
189
330
66
100
AcDbEntity
  8
DIM
100
AcDbLine
 10
285.6667561677753
 20
-219.6155238238705
 30
0.0
 11
310.3933035844566
 21
-219.6155238238705
 31
0.0
  0
LINE
  5
18A
330
66
100
AcDbEntity
  8
COIN-LINE
100
AcDbLine
 10
310.3933035844566
 20
-219.6155238238705
 30
0.0
 11
315.3933035844566
 21
-217.0010941030179
 31
0.0
  0
LINE
  5
18B
330
66
100
AcDbEntity
  8
DIM
100
AcDbLine
 10
315.3933035844566
 20
-217.0010941030179
 30
0.0
 11
372.0346910779792
 21
-217.0010941030179
 31
0.0
  0
TEXT
  5
18C
330
66
100
AcDbEntity
  8
DIM
100
AcDbText
 10
285.623741432649
 20
-219.1155238238704
 30
0.0
 40
2.5
  1
72.7500
  7
SIMPLEX
 72
     2
 11
300.373741432649
 21
-219.1155238238704
 31
0.0
100
AcDbText
  0
LINE
  5
18D
330
66
100
AcDbEntity
  8
0
100
AcDbLine
 10
336.2846884685083
 20
-263.7968346648134
 30
0.0
 11
336.2846884685083
 21
-236.9694380307864
 31
0.0
  0
LINE
  5
18E
330
66
100
AcDbEntity
  8
COIN-LINE
100
AcDbLine
 10
336.2846884685083
 20
-236.9694380307864
 30
0.0
 11
336.2846884685083
 21
-231.9694380307864
 31
0.0
  0
LINE
  5
18F
330
66
100
AcDbEntity
  8
0
100
AcDbLine
 10
336.2846884685083
 20
-231.9694380307864
 30
0.0
 11
336.2846884685083
 21
-162.5015987037514
 31
0.0
  0
TEXT
  5
190
330
66
100
AcDbEntity
  8
0
100
AcDbText
 10
335.7846884685083
 20
-263.3589890032271
 30
0.0
 40
2.5
  1
26.7000
 50
90.0
  7
SIMPLEX
 72
     2
 11
335.7846884685083
 21
-248.6089890032271
 31
0.0
100
AcDbText
  0
LWPOLYLINE
  5
191
330
66
100
AcDbEntity
  8
LF-LINE
100
AcDbPolyline
 90
        3
 70
     0
 43
0.0
 10
323.5346910779839
 20
-228.2515987037486
 10
321.1560114215405
 20
-225.8729190473086
 42
0.1989123673798001
 10
319.0346910779769
 20
-224.9942393908682
  0
LINE
  5
192
330
66
100
AcDbEntity
  8
LF-LINE
100
AcDbLine
 10
319.0346911544947
 20
-224.99423939608
 30
0.0
 11
319.0346911544947
 21
-130.7511570955974
 31
0.0
  0
LWPOLYLINE
  5
193
330
66
100
AcDbEntity
  8
LF-LINE
100
AcDbPolyline
 90
        3
 70
     0
 43
0.0
 10
319.0346911544947
 20
-130.7511570955978
 42
0.4141481105954147
 10
322.7838530512579
 20
-127.0011572743046
 10
322.7838530512579
 20
-61.75159870374727
  0
LINE
  5
194
330
66
100
AcDbEntity
  8
LF-LINE
100
AcDbLine
 10
472.6088993162499
 20
-228.2515987037205
 30
0.0
 11
323.5346910779841
 21
-228.2515987037486
 31
0.0
  0
LINE
  5
195
330
66
100
AcDbEntity
  8
0
100
AcDbLine
 10
372.2846910779785
 20
-62.2515987037529
 30
0.0
 11
372.2846910779785
 21
-35.42420206972582
 31
0.0
  0
LINE
  5
196
330
66
100
AcDbEntity
  8
COIN-LINE
100
AcDbLine
 10
372.2846910779785
 20
-35.42420206972582
 30
0.0
 11
372.2846910779785
 21
-30.42420206972582
 31
0.0
  0
LINE
  5
197
330
66
100
AcDbEntity
  8
0
100
AcDbLine
 10
372.2846910779785
 20
-30.42420206972582
 30
0.0
 11
372.2846910779785
 21
-7.424202069725822
 31
0.0
  0
TEXT
  5
198
330
66
100
AcDbEntity
  8
0
100
AcDbText
 10
371.7846910779784
 20
-22.17420206972582
 30
0.0
 40
2.5
  1
24.3000
 50
90.0
  7
SIMPLEX
 72
     2
 11
371.7846910779784
 21
-7.424202069725822
 31
0.0
100
AcDbText
  0
LINE
  5
199
330
66
100
AcDbEntity
  8
DIM
 62
     7
370
    -2
100
AcDbLine
 10
345.0346847480063
 20
-202.7516001067746
 30
0.0
 11
327.5909175926094
 21
-202.7516001067746
 31
0.0
  0
LINE
  5
19A
330
66
100
AcDbEntity
  8
DIM
 62
     7
370
    -2
100
AcDbLine
 10
345.0346848605733
 20
-220.7516001267196
 30
0.0
 11
327.5909175926094
 21
-220.7516001267196
 31
0.0
  0
LINE
  5
19B
330
66
100
AcDbEntity
  8
DIM
 62
     7
370
    -2
100
AcDbLine
 10
328.8409175926093
 20
-205.2516001067746
 30
0.0
 11
328.8409175926093
 21
-218.2516001267196
 31
0.0
  0
SOLID
  5
19C
330
66
100
AcDbEntity
  8
DIM
 62
     7
100
AcDbTrace
 10
328.8409175926093
 20
-202.7516001067746
 30
0.0
 11
328.4242509259426
 21
-205.2516001067746
 31
0.0
 12
329.2575842592761
 22
-205.2516001067746
 32
0.0
 13
329.2575842592761
 23
-205.2516001067746
 33
0.0
  0
SOLID
  5
19D
330
66
100
AcDbEntity
  8
DIM
 62
     7
100
AcDbTrace
 10
328.8409175926093
 20
-220.7516001267196
 30
0.0
 11
328.4242509259426
 21
-218.2516001267196
 31
0.0
 12
329.2575842592761
 22
-218.2516001267196
 32
0.0
 13
329.2575842592761
 23
-218.2516001267196
 33
0.0
  0
MTEXT
  5
19E
330
66
100
AcDbEntity
  8
DIM
 62
     7
100
AcDbMText
 10
326.3409175926093
 20
-212.3181641624139
 30
0.0
 40
2.5
 41
0.0
 46
0.0
 71
     5
 72
     1
  1
\A1;1.2000
  7
SIMPLEX
 11
0.0000000000000001
 21
1.0
 31
0.0
 73
     1
 44
1.0
  0
MTEXT
  5
19F
330
66
100
AcDbEntity
  8
DIM
100
AcDbMText
 10
330.6170625586586
 20
-210.9907560192127
 30
0.0
 40
1.800000000000068
 41
0.0
 46
0.0
 71
     5
 72
     1
  1
TYP.
  7
SIMPLEX
 11
0.0
 21
1.0
 31
0.0
 73
     1
 44
1.0
  0
MTEXT
  5
1A0
330
66
100
AcDbEntity
  8
DIM
100
AcDbMText
 10
357.8179752148931
 20
-243.1087997291282
 30
0.0
 40
1.800000000000068
 41
0.0
 46
0.0
 71
     5
 72
     1
  1
TYP.
  7
SIMPLEX
 73
     1
 44
1.0
  0
LINE
  5
1A1
330
66
100
AcDbEntity
  8
LF-LINE
100
AcDbLine
 10
465.2846910779805
 20
-157.7515987037513
 30
0.0
 11
465.2846910779805
 21
-162.2515987037527
 31
0.0
  0
LINE
  5
1A2
330
66
100
AcDbEntity
  8
LF-LINE
100
AcDbLine
 10
443.5346910779824
 20
-157.7515987037496
 30
0.0
 11
443.5346910779824
 21
-162.2515987037527
 31
0.0
  0
LINE
  5
1A3
330
66
100
AcDbEntity
  8
LF-LINE
100
AcDbLine
 10
439.7846910779817
 20
-157.7515987037496
 30
0.0
 11
439.7846910779817
 21
-162.2515987037528
 31
0.0
  0
LINE
  5
1A4
330
66
100
AcDbEntity
  8
LF-LINE
100
AcDbLine
 10
461.5346910779815
 20
-157.7515987037514
 30
0.0
 11
461.5346910779815
 21
-162.2515987037528
 31
0.0
  0
LINE
  5
1A5
330
66
100
AcDbEntity
  8
LF-LINE
100
AcDbLine
 10
417.2846910779805
 20
-157.7515987037513
 30
0.0
 11
417.2846910779805
 21
-162.2515987037527
 31
0.0
  0
LINE
  5
1A6
330
66
100
AcDbEntity
  8
LF-LINE
100
AcDbLine
 10
395.5346910779824
 20
-157.7515987037496
 30
0.0
 11
395.5346910779823
 21
-162.2515987037527
 31
0.0
  0
LINE
  5
1A7
330
66
100
AcDbEntity
  8
LF-LINE
100
AcDbLine
 10
391.7846910779817
 20
-157.7515987037496
 30
0.0
 11
391.7846910779817
 21
-162.2515987037528
 31
0.0
  0
LINE
  5
1A8
330
66
100
AcDbEntity
  8
LF-LINE
100
AcDbLine
 10
413.5346910779815
 20
-157.7515987037514
 30
0.0
 11
413.5346910779815
 21
-162.2515987037528
 31
0.0
  0
LINE
  5
1A9
330
66
100
AcDbEntity
  8
LF-LINE
100
AcDbLine
 10
376.78469107798
 20
-131.876598703751
 30
0.0
 11
372.2846910779783
 21
-131.876598703751
 31
0.0
  0
LINE
  5
1AA
330
66
100
AcDbEntity
  8
LF-LINE
100
AcDbLine
 10
376.78469107798
 20
-135.6265987037503
 30
0.0
 11
372.2846910779793
 21
-135.6265987037503
 31
0.0
  0
LINE
  5
1AB
330
66
100
AcDbEntity
  8
LF-LINE
100
AcDbLine
 10
376.78469107798
 20
-83.87659870375102
 30
0.0
 11
372.2846910779783
 21
-83.87659870375102
 31
0.0
  0
LINE
  5
1AC
330
66
100
AcDbEntity
  8
LF-LINE
100
AcDbLine
 10
376.78469107798
 20
-87.62659870375035
 30
0.0
 11
372.2846910779793
 21
-87.62659870375035
 31
0.0
  0
TEXT
  5
1AD
330
66
100
AcDbEntity
  8
DIM
 62
     7
100
AcDbText
 10
352.4721848432713
 20
-239.4898361451858
 30
0.0
 40
2.5
  1
0.2000
  7
SIMPLEX
100
AcDbText
  0
LINE
  5
1AE
330
66
100
AcDbEntity
  8
0
370
    -2
100
AcDbLine
 10
346.034684860574
 20
-221.7516001189844
 30
0.0
 11
346.034684860574
 21
-242.0733338364287
 31
0.0
  0
LINE
  5
1AF
330
66
100
AcDbEntity
  8
0
370
    -2
100
AcDbLine
 10
349.0346848605764
 20
-221.7516000880429
 30
0.0
 11
349.0346848605764
 21
-242.0733338364287
 31
0.0
  0
LINE
  5
1B0
330
66
100
AcDbEntity
  8
0
370
    -2
100
AcDbLine
 10
343.534684860574
 20
-240.8233338364286
 30
0.0
 11
341.034684860574
 21
-240.8233338364286
 31
0.0
  0
SOLID
  5
1B1
330
66
100
AcDbEntity
  8
0
100
AcDbTrace
 10
346.034684860574
 20
-240.8233338364286
 30
0.0
 11
343.534684860574
 21
-241.2400005030954
 31
0.0
 12
343.534684860574
 22
-240.4066671697619
 32
0.0
 13
343.534684860574
 23
-240.4066671697619
 33
0.0
  0
LINE
  5
1B2
330
66
100
AcDbEntity
  8
0
370
    -2
100
AcDbLine
 10
351.5346848605763
 20
-240.8233338364286
 30
0.0
 11
365.3290624682516
 21
-240.8233338364286
 31
0.0
  0
SOLID
  5
1B3
330
66
100
AcDbEntity
  8
0
100
AcDbTrace
 10
349.0346848605764
 20
-240.8233338364286
 30
0.0
 11
351.5346848605763
 21
-241.2400005030954
 31
0.0
 12
351.5346848605763
 22
-240.4066671697619
 32
0.0
 13
351.5346848605763
 23
-240.4066671697619
 33
0.0
  0
LWPOLYLINE
  5
1B4
330
66
100
AcDbEntity
  8
PKG-OUT
100
AcDbPolyline
 90
       12
 70
     1
 43
0.0
 10
337.7846847743323
 20
-214.0016001502889
 10
337.7846847163229
 20
-209.5016001989628
 10
345.2846847600226
 20
-209.5016001267172
 10
345.2846847466715
 20
-202.0016001076555
 10
349.7846847428548
 20
-202.0016000812396
 10
349.7846847600251
 20
-209.5016000803074
 10
357.2846847337905
 20
-209.5016000080623
 10
357.2846847918058
 20
-214.0015999593892
 10
349.7846848064295
 20
-214.0016000316336
 10
349.7846848665924
 20
-221.5016000803073
 10
345.2846848665894
 20
-221.5016001267201
 10
345.2846848064305
 20
-214.0016000780449
  0
LWPOLYLINE
  5
1B5
330
66
100
AcDbEntity
  8
LF-LINE
100
AcDbPolyline
 90
       12
 70
     1
 43
0.0
 10
349.0346848004132
 20
-213.2516000388581
 10
356.5346847821367
 20
-213.2515999666138
 10
356.5346847434598
 20
-210.2516000152869
 10
349.0346847617421
 20
-210.2516000875321
 10
349.0346847445718
 20
-202.7516000856423
 10
346.0346847480067
 20
-202.7516001032529
 10
346.0346847613577
 20
-210.2516001194939
 10
338.534684725991
 20
-210.2516001917383
 10
338.5346847646641
 20
-213.2516001430644
 10
346.0346848004145
 20
-213.2516000708203
 10
346.0346848605735
 20
-220.7516001189846
 10
349.0346848605761
 20
-220.7516000880426
  0
HATCH
  5
1B6
330
66
100
AcDbEntity
  8
CEN
100
AcDbHatch
 10
0.0
 20
0.0
 30
0.0
210
0.0
220
0.0
230
1.0
  2
ANSI31
 70
     0
 71
     0
 91
        2
 92
        7
 72
     0
 73
     1
 93
       12
 10
337.7846847743323
 20
-214.0016001502889
 10
345.2846848064305
 20
-214.0016000780449
 10
345.2846848665894
 20
-221.5016001267201
 10
349.7846848665924
 20
-221.5016000803073
 10
349.7846848064295
 20
-214.0016000316336
 10
357.2846847918058
 20
-214.0015999593892
 10
357.2846847337905
 20
-209.5016000080623
 10
349.7846847600251
 20
-209.5016000803074
 10
349.7846847428548
 20
-202.0016000812396
 10
345.2846847466715
 20
-202.0016001076555
 10
345.2846847600226
 20
-209.5016001267172
 10
337.7846847163229
 20
-209.5016001989628
 97
        0
 92
       22
 72
     0
 73
     1
 93
       12
 10
349.0346848004132
 20
-213.2516000388581
 10
349.0346848605761
 20
-220.7516000880426
 10
346.0346848605735
 20
-220.7516001189846
 10
346.0346848004145
 20
-213.2516000708203
 10
338.5346847646641
 20
-213.2516001430644
 10
338.534684725991
 20
-210.2516001917383
 10
346.0346847613577
 20
-210.2516001194939
 10
346.0346847480067
 20
-202.7516001032529
 10
349.0346847445718
 20
-202.7516000856423
 10
349.0346847617421
 20
-210.2516000875321
 10
356.5346847434598
 20
-210.2516000152869
 10
356.5346847821367
 20
-213.2515999666138
 97
        0
 75
     0
 76
     1
 52
0.0
 41
6.521739130434783
 77
     0
 78
     1
 53
45.0000000000046
 43
-432.0210269037048
 44
-2132.58408408125
 45
-0.5764457455323964
 46
0.5764457455323964
 79
     0
 47
0.0
 98
       33
 10
0.0
 20
0.0
 10
0.0
 20
0.0
 10
-5.0
 20
-392.0
 10
-5.0
 20
-392.0
 10
-5.0
 20
-392.0
 10
-5.0
 20
-392.0
 10
-5.0
 20
-392.0
 10
-5.0
 20
-392.0
 10
-5.0
 20
-392.0
 10
-5.0
 20
-392.0
 10
-5.0
 20
-392.0
 10
-5.0
 20
-392.0
 10
-5.0
 20
-392.0
 10
-5.0
 20
-392.0
 10
-5.0
 20
-392.0
 10
-5.0
 20
-392.0
 10
-5.0
 20
-392.0
 10
-5.0
 20
-392.0
 10
-5.0
 20
-392.0
 10
-5.0
 20
-392.0
 10
-5.0
 20
-392.0
 10
-5.0
 20
-392.0
 10
-5.0
 20
-392.0
 10
-5.0
 20
-392.0
 10
-5.0
 20
-392.0
 10
-5.0
 20
-392.0
 10
-5.0
 20
-392.0
 10
-5.0
 20
-392.0
 10
-5.0
 20
-392.0
 10
-5.0
 20
-392.0
 10
-5.0
 20
-392.0
 10
344.0966572715626
 20
-209.9246496189508
 10
344.0966572715626
 20
-209.9246496189508
  0
POINT
  5
1B7
330
66
100
AcDbEntity
  8
DIM
100
AcDbPoint
 10
349.7846847428548
 20
-202.0016000812396
 30
0.0
  0
POINT
  5
1B8
330
66
100
AcDbEntity
  8
DIM
100
AcDbPoint
 10
349.7846848665924
 20
-221.5016000803073
 30
0.0
  0
LINE
  5
1B9
330
66
100
AcDbEntity
  8
DIM
370
    -2
100
AcDbLine
 10
350.7846847428548
 20
-202.0016000812396
 30
0.0
 11
364.5783025132407
 21
-202.0016000812396
 31
0.0
  0
LINE
  5
1BA
330
66
100
AcDbEntity
  8
DIM
370
    -2
100
AcDbLine
 10
350.7846848665924
 20
-221.5016000803073
 30
0.0
 11
364.5783025132407
 21
-221.5016000803073
 31
0.0
  0
LINE
  5
1BB
330
66
100
AcDbEntity
  8
DIM
370
    -2
100
AcDbLine
 10
363.3283025132407
 20
-204.5016000812396
 30
0.0
 11
363.3283025132407
 21
-219.0016000803073
 31
0.0
  0
SOLID
  5
1BC
330
66
100
AcDbEntity
  8
DIM
100
AcDbTrace
 10
363.3283025132407
 20
-202.0016000812396
 30
0.0
 11
362.911635846574
 21
-204.5016000812396
 31
0.0
 12
363.7449691799075
 22
-204.5016000812396
 32
0.0
 13
363.7449691799075
 23
-204.5016000812396
 33
0.0
  0
SOLID
  5
1BD
330
66
100
AcDbEntity
  8
DIM
100
AcDbTrace
 10
363.3283025132407
 20
-221.5016000803073
 30
0.0
 11
362.911635846574
 21
-219.0016000803073
 31
0.0
 12
363.7449691799075
 22
-219.0016000803073
 32
0.0
 13
363.7449691799075
 23
-219.0016000803073
 33
0.0
  0
MTEXT
  5
1BE
330
66
100
AcDbEntity
  8
DIM
100
AcDbMText
 10
365.5302549465131
 20
-210.9907560192127
 30
0.0
 40
1.800000000000068
 41
0.0
 46
0.0
 71
     5
 72
     1
  1
TYP.
  7
SIMPLEX
 11
0.0
 21
1.0
 31
0.0
 73
     1
 44
1.0
  0
MTEXT
  5
1BF
330
66
100
AcDbEntity
  8
DIM
 62
     7
100
AcDbMText
 10
361.2541099804639
 20
-212.4563367157573
 30
0.0
 40
2.5
 41
0.0
 46
0.0
 71
     5
 72
     1
  1
\A1;1.3000
  7
SIMPLEX
 11
0.0
 21
1.0
 31
0.0
 73
     1
 44
1.0
  0
POINT
  5
1C0
330
66
100
AcDbEntity
  8
DIM
100
AcDbPoint
 10
345.2846848665894
 20
-221.5016001267201
 30
0.0
  0
POINT
  5
1C1
330
66
100
AcDbEntity
  8
DIM
100
AcDbPoint
 10
349.7846848665924
 20
-221.5016000803073
 30
0.0
  0
LINE
  5
1C2
330
66
100
AcDbEntity
  8
DIM
370
    -2
100
AcDbLine
 10
345.2846848665894
 20
-222.5016001267201
 30
0.0
 11
345.2846848665894
 21
-251.1730759658464
 31
0.0
  0
LINE
  5
1C3
330
66
100
AcDbEntity
  8
DIM
370
    -2
100
AcDbLine
 10
349.7846848665924
 20
-222.5016000803073
 30
0.0
 11
349.7846848665924
 21
-251.1730759658464
 31
0.0
  0
LINE
  5
1C4
330
66
100
AcDbEntity
  8
DIM
370
    -2
100
AcDbLine
 10
342.7846848665894
 20
-249.9230759658463
 30
0.0
 11
340.2846848665894
 21
-249.9230759658463
 31
0.0
  0
SOLID
  5
1C5
330
66
100
AcDbEntity
  8
DIM
100
AcDbTrace
 10
345.2846848665894
 20
-249.9230759658463
 30
0.0
 11
342.7846848665894
 21
-250.3397426325131
 31
0.0
 12
342.7846848665894
 22
-249.5064092991796
 32
0.0
 13
342.7846848665894
 23
-249.5064092991796
 33
0.0
  0
LINE
  5
1C6
330
66
100
AcDbEntity
  8
DIM
370
    -2
100
AcDbLine
 10
352.2846848665924
 20
-249.9230759658463
 30
0.0
 11
365.3290624682516
 21
-249.9230759658463
 31
0.0
  0
SOLID
  5
1C7
330
66
100
AcDbEntity
  8
DIM
100
AcDbTrace
 10
349.7846848665924
 20
-249.9230759658463
 30
0.0
 11
352.2846848665924
 21
-250.3397426325131
 31
0.0
 12
352.2846848665924
 22
-249.5064092991796
 32
0.0
 13
352.2846848665924
 23
-249.5064092991796
 33
0.0
  0
TEXT
  5
1C8
330
66
100
AcDbEntity
  8
DIM
 62
     7
100
AcDbText
 10
352.4721848432713
 20
-249.2156670314425
 30
0.0
 40
2.5
  1
0.3000
  7
SIMPLEX
100
AcDbText
  0
MTEXT
  5
1C9
330
66
100
AcDbEntity
  8
DIM
100
AcDbMText
 10
357.8179752148931
 20
-251.5233546436794
 30
0.0
 40
1.800000000000068
 41
0.0
 46
0.0
 71
     5
 72
     1
  1
TYP.
  7
SIMPLEX
 73
     1
 44
1.0
  0
LINE
  5
1CA
330
66
100
AcDbEntity
  8
PKG-OUT
100
AcDbLine
 10
400.7846910779786
 20
-74.5015987037512
 30
0.0
 11
400.7846910779786
 21
-97.0015987037512
 31
0.0
  0
LINE
  5
1CB
330
66
100
AcDbEntity
  8
PKG-OUT
100
AcDbLine
 10
400.7846910779786
 20
-74.46343627345374
 30
0.0
 11
400.7846910779786
 21
-97.03976113404866
 31
0.0
  0
LINE
  5
1CC
330
66
100
AcDbEntity
  8
PKG-OUT
  6
ByBlock
370
    -2
100
AcDbLine
 10
419.7846910779801
 20
-102.7765987037519
 30
0.0
 11
415.6806486300015
 21
-102.7765987037519
 31
0.0
  0
POINT
  5
1CD
330
66
100
AcDbEntity
  8
PKG-OUT
100
AcDbPoint
 10
402.734691077982
 20
-70.976598703751
 30
0.0
  0
LWPOLYLINE
  5
1CE
330
66
100
AcDbEntity
  8
PKG-OUT
100
AcDbPolyline
 90
        4
 70
     1
 43
0.0
 10
423.2846910779787
 20
-63.2515987037512
 10
378.2846910779787
 20
-63.2515987037512
 10
378.2846910779787
 20
-108.2515987037512
 10
423.2846910779787
 20
-108.2515987037512
  0
LINE
  5
1CF
330
66
100
AcDbEntity
  8
PKG-OUT
100
AcDbLine
 10
381.2846910779811
 20
-83.87659870375291
 30
0.0
 11
381.2846910779811
 21
-87.62659870375035
 31
0.0
  0
LINE
  5
1D0
330
66
100
AcDbEntity
  8
PKG-OUT
100
AcDbLine
 10
420.2846910779796
 20
-83.87659870375291
 30
0.0
 11
420.2846910779796
 21
-87.62659870375035
 31
0.0
  0
LWPOLYLINE
  5
1D1
330
66
100
AcDbEntity
  8
LF-LINE
100
AcDbPolyline
 90
        6
 70
     0
 43
0.0
 10
391.7846910779817
 20
-61.75159870375086
 10
391.7846910779817
 20
-65.50159870375086
 10
383.5346910779807
 20
-65.50159870375086
 42
0.4142135623730914
 10
381.2846910779811
 20
-67.75159870375143
 10
381.2846910779811
 20
-83.87659870375291
 10
376.78469107798
 20
-83.8765987037512
  0
LWPOLYLINE
  5
1D2
330
66
100
AcDbEntity
  8
LF-LINE
100
AcDbPolyline
 90
        6
 70
     0
 43
0.0
 10
376.78469107798
 20
-87.62659870375035
 10
381.2846910779811
 20
-87.62659870375035
 10
381.2846910779811
 20
-103.7515987037519
 42
0.4142135623730914
 10
383.5346910779807
 20
-106.0015987037515
 10
391.78469107798
 20
-106.0015987037515
 10
391.7846910779817
 20
-109.7515987037498
  0
LWPOLYLINE
  5
1D3
330
66
100
AcDbEntity
  8
LF-LINE
100
AcDbPolyline
 90
        8
 70
     0
 43
0.0
 10
395.5346910779817
 20
-61.75159870375086
 10
395.5346910779817
 20
-65.50159870375086
 10
405.2846910779813
 20
-65.50159870375086
 42
-0.4142135623730951
 10
407.534691077981
 20
-67.75159870375143
 10
407.534691077981
 20
-103.7515987037501
 42
-0.4142135623730914
 10
405.2846910779813
 20
-106.0015987037498
 10
395.5346910779817
 20
-106.0015987037515
 10
395.5346910779817
 20
-109.7515987037498
  0
LWPOLYLINE
  5
1D4
330
66
100
AcDbEntity
  8
LF-LINE
100
AcDbPolyline
 90
        8
 70
     0
 43
0.0
 10
413.5346910779807
 20
-109.7515987037515
 10
413.5346910779807
 20
-106.0015987037498
 10
412.7846910779814
 20
-106.0015987037498
 42
-0.4142135623730951
 10
410.5346910779817
 20
-103.7515987037501
 10
410.5346910779799
 20
-67.75159870375052
 42
-0.4142135623730914
 10
412.7846910779814
 20
-65.50159870375006
 10
413.5346910779807
 20
-65.50159870374915
 10
413.5346910779807
 20
-61.75159870375086
  0
LWPOLYLINE
  5
1D5
330
66
100
AcDbEntity
  8
LF-LINE
100
AcDbPolyline
 90
        6
 70
     0
 43
0.0
 10
417.2846910779806
 20
-61.75159870375086
 10
417.2846910779806
 20
-65.50159870374915
 10
418.03469107798
 20
-65.50159870375006
 42
-0.4142135623730953
 10
420.2846910779796
 20
-67.75159870375143
 10
420.2846910779796
 20
-83.87659870375291
 10
424.784691077979
 20
-83.87659870375291
  0
LWPOLYLINE
  5
1D6
330
66
100
AcDbEntity
  8
LF-LINE
100
AcDbPolyline
 90
        6
 70
     0
 43
0.0
 10
417.2846910779806
 20
-109.7515987037515
 10
417.2846910779806
 20
-106.0015987037498
 10
418.03469107798
 20
-106.0015987037498
 42
0.4142135623730914
 10
420.2846910779796
 20
-103.7515987037501
 10
420.2846910779796
 20
-87.62659870375035
 10
424.7846910779773
 20
-87.62659870375205
  0
LWPOLYLINE
  5
1D7
330
66
100
AcDbEntity
  8
PKG-OUT
  6
ByBlock
100
AcDbPolyline
 90
        6
 70
     0
 43
0.0
 10
381.2846910779811
 20
-102.7765987037493
 10
400.4846910779806
 20
-102.776598703751
 42
0.4142135623730951
 10
402.734691077982
 20
-100.5265987037514
 10
402.734691077982
 20
-70.976598703751
 42
0.4142135623732061
 10
400.4846910779806
 20
-68.72659870375134
 10
381.2846910779811
 20
-68.72659870375134
  0
LWPOLYLINE
  5
1D8
330
66
100
AcDbEntity
  8
PKG-OUT
  6
ByBlock
100
AcDbPolyline
 90
        6
 70
     0
 43
0.0
 10
420.2846910779814
 20
-68.72659870374963
 10
415.3346910779807
 20
-68.72659870375134
 42
0.4142135623730951
 10
413.0846910779811
 20
-70.976598703751
 10
413.0846910779776
 20
-100.5265987037514
 42
0.4142135623730951
 10
415.3346910779791
 20
-102.7765987037527
 10
420.2846910779796
 20
-102.7765987037519
  0
LINE
  5
1D9
330
66
100
AcDbEntity
  8
PKG-OUT
100
AcDbLine
 10
448.7846910779785
 20
-74.5015987037512
 30
0.0
 11
448.7846910779785
 21
-97.0015987037512
 31
0.0
  0
LINE
  5
1DA
330
66
100
AcDbEntity
  8
PKG-OUT
100
AcDbLine
 10
448.7846910779785
 20
-74.46343627345374
 30
0.0
 11
448.7846910779785
 21
-97.03976113404866
 31
0.0
  0
LINE
  5
1DB
330
66
100
AcDbEntity
  8
PKG-OUT
  6
ByBlock
370
    -2
100
AcDbLine
 10
467.7846910779799
 20
-102.7765987037519
 30
0.0
 11
463.6806486300013
 21
-102.7765987037519
 31
0.0
  0
POINT
  5
1DC
330
66
100
AcDbEntity
  8
PKG-OUT
100
AcDbPoint
 10
450.7346910779818
 20
-70.976598703751
 30
0.0
  0
LWPOLYLINE
  5
1DD
330
66
100
AcDbEntity
  8
PKG-OUT
100
AcDbPolyline
 90
        4
 70
     1
 43
0.0
 10
471.2846910779784
 20
-63.2515987037512
 10
426.2846910779784
 20
-63.2515987037512
 10
426.2846910779784
 20
-108.2515987037512
 10
471.2846910779784
 20
-108.2515987037512
  0
LINE
  5
1DE
330
66
100
AcDbEntity
  8
PKG-OUT
100
AcDbLine
 10
429.2846910779808
 20
-83.87659870375291
 30
0.0
 11
429.2846910779808
 21
-87.62659870375035
 31
0.0
  0
LINE
  5
1DF
330
66
100
AcDbEntity
  8
PKG-OUT
100
AcDbLine
 10
468.2846910779795
 20
-83.87659870375291
 30
0.0
 11
468.2846910779795
 21
-87.62659870375035
 31
0.0
  0
LWPOLYLINE
  5
1E0
330
66
100
AcDbEntity
  8
LF-LINE
100
AcDbPolyline
 90
        6
 70
     0
 43
0.0
 10
439.7846910779815
 20
-61.75159870375086
 10
439.7846910779815
 20
-65.50159870375086
 10
431.5346910779805
 20
-65.50159870375086
 42
0.4142135623730914
 10
429.2846910779808
 20
-67.75159870375143
 10
429.2846910779808
 20
-83.87659870375291
 10
424.7846910779798
 20
-83.8765987037512
  0
LWPOLYLINE
  5
1E1
330
66
100
AcDbEntity
  8
LF-LINE
100
AcDbPolyline
 90
        6
 70
     0
 43
0.0
 10
424.7846910779798
 20
-87.62659870375035
 10
429.2846910779808
 20
-87.62659870375035
 10
429.2846910779808
 20
-103.7515987037519
 42
0.4142135623730914
 10
431.5346910779805
 20
-106.0015987037515
 10
439.7846910779798
 20
-106.0015987037515
 10
439.7846910779815
 20
-109.7515987037498
  0
LWPOLYLINE
  5
1E2
330
66
100
AcDbEntity
  8
LF-LINE
100
AcDbPolyline
 90
        8
 70
     0
 43
0.0
 10
443.5346910779816
 20
-61.75159870375086
 10
443.5346910779816
 20
-65.50159870375086
 10
453.2846910779812
 20
-65.50159870375086
 42
-0.4142135623730951
 10
455.5346910779809
 20
-67.75159870375143
 10
455.5346910779809
 20
-103.7515987037501
 42
-0.4142135623730914
 10
453.2846910779812
 20
-106.0015987037498
 10
443.5346910779816
 20
-106.0015987037515
 10
443.5346910779816
 20
-109.7515987037498
  0
LWPOLYLINE
  5
1E3
330
66
100
AcDbEntity
  8
LF-LINE
100
AcDbPolyline
 90
        8
 70
     0
 43
0.0
 10
461.5346910779805
 20
-109.7515987037515
 10
461.5346910779805
 20
-106.0015987037498
 10
460.7846910779811
 20
-106.0015987037498
 42
-0.4142135623730951
 10
458.5346910779815
 20
-103.7515987037501
 10
458.5346910779798
 20
-67.75159870375052
 42
-0.4142135623730914
 10
460.7846910779811
 20
-65.50159870375006
 10
461.5346910779805
 20
-65.50159870374915
 10
461.5346910779805
 20
-61.75159870375086
  0
LWPOLYLINE
  5
1E4
330
66
100
AcDbEntity
  8
LF-LINE
100
AcDbPolyline
 90
        6
 70
     0
 43
0.0
 10
465.2846910779805
 20
-61.75159870375086
 10
465.2846910779805
 20
-65.50159870374915
 10
466.0346910779798
 20
-65.50159870375006
 42
-0.4142135623730953
 10
468.2846910779795
 20
-67.75159870375143
 10
468.2846910779795
 20
-83.87659870375291
 10
472.7846910779788
 20
-83.87659870375291
  0
LWPOLYLINE
  5
1E5
330
66
100
AcDbEntity
  8
LF-LINE
100
AcDbPolyline
 90
        6
 70
     0
 43
0.0
 10
465.2846910779805
 20
-109.7515987037515
 10
465.2846910779805
 20
-106.0015987037498
 10
466.0346910779798
 20
-106.0015987037498
 42
0.4142135623730914
 10
468.2846910779795
 20
-103.7515987037501
 10
468.2846910779795
 20
-87.62659870375035
 10
472.7846910779771
 20
-87.62659870375205
  0
LWPOLYLINE
  5
1E6
330
66
100
AcDbEntity
  8
PKG-OUT
  6
ByBlock
100
AcDbPolyline
 90
        6
 70
     0
 43
0.0
 10
429.2846910779808
 20
-102.7765987037493
 10
448.4846910779804
 20
-102.776598703751
 42
0.4142135623730951
 10
450.7346910779818
 20
-100.5265987037514
 10
450.7346910779818
 20
-70.976598703751
 42
0.4142135623732061
 10
448.4846910779804
 20
-68.72659870375134
 10
429.2846910779808
 20
-68.72659870375134
  0
LWPOLYLINE
  5
1E7
330
66
100
AcDbEntity
  8
PKG-OUT
  6
ByBlock
100
AcDbPolyline
 90
        6
 70
     0
 43
0.0
 10
468.2846910779812
 20
-68.72659870374963
 10
463.3346910779805
 20
-68.72659870375134
 42
0.4142135623730951
 10
461.0846910779809
 20
-70.976598703751
 10
461.0846910779775
 20
-100.5265987037514
 42
0.4142135623730951
 10
463.3346910779788
 20
-102.7765987037527
 10
468.2846910779795
 20
-102.7765987037519
  0
LINE
  5
1E8
330
66
100
AcDbEntity
  8
PKG-OUT
100
AcDbLine
 10
400.7846910779786
 20
-122.501598703751
 30
0.0
 11
400.7846910779786
 21
-145.001598703751
 31
0.0
  0
LINE
  5
1E9
330
66
100
AcDbEntity
  8
PKG-OUT
100
AcDbLine
 10
400.7846910779786
 20
-122.4634362734535
 30
0.0
 11
400.7846910779786
 21
-145.0397611340485
 31
0.0
  0
LINE
  5
1EA
330
66
100
AcDbEntity
  8
PKG-OUT
  6
ByBlock
370
    -2
100
AcDbLine
 10
419.7846910779801
 20
-150.7765987037517
 30
0.0
 11
415.6806486300015
 21
-150.7765987037517
 31
0.0
  0
POINT
  5
1EB
330
66
100
AcDbEntity
  8
PKG-OUT
100
AcDbPoint
 10
402.734691077982
 20
-118.9765987037508
 30
0.0
  0
LWPOLYLINE
  5
1EC
330
66
100
AcDbEntity
  8
PKG-OUT
100
AcDbPolyline
 90
        4
 70
     1
 43
0.0
 10
423.2846910779787
 20
-111.251598703751
 10
378.2846910779787
 20
-111.251598703751
 10
378.2846910779787
 20
-156.251598703751
 10
423.2846910779787
 20
-156.251598703751
  0
LINE
  5
1ED
330
66
100
AcDbEntity
  8
PKG-OUT
100
AcDbLine
 10
381.2846910779811
 20
-131.8765987037527
 30
0.0
 11
381.2846910779811
 21
-135.6265987037502
 31
0.0
  0
LINE
  5
1EE
330
66
100
AcDbEntity
  8
PKG-OUT
100
AcDbLine
 10
420.2846910779796
 20
-131.8765987037527
 30
0.0
 11
420.2846910779796
 21
-135.6265987037502
 31
0.0
  0
LWPOLYLINE
  5
1EF
330
66
100
AcDbEntity
  8
LF-LINE
100
AcDbPolyline
 90
        6
 70
     0
 43
0.0
 10
391.7846910779817
 20
-109.7515987037507
 10
391.7846910779817
 20
-113.5015987037507
 10
383.5346910779807
 20
-113.5015987037507
 42
0.4142135623730914
 10
381.2846910779811
 20
-115.7515987037512
 10
381.2846910779811
 20
-131.8765987037527
 10
376.78469107798
 20
-131.876598703751
  0
LWPOLYLINE
  5
1F0
330
66
100
AcDbEntity
  8
LF-LINE
100
AcDbPolyline
 90
        6
 70
     0
 43
0.0
 10
376.78469107798
 20
-135.6265987037502
 10
381.2846910779811
 20
-135.6265987037502
 10
381.2846910779811
 20
-151.7515987037517
 42
0.4142135623730914
 10
383.5346910779807
 20
-154.0015987037513
 10
391.78469107798
 20
-154.0015987037513
 10
391.7846910779817
 20
-157.7515987037496
  0
LWPOLYLINE
  5
1F1
330
66
100
AcDbEntity
  8
LF-LINE
100
AcDbPolyline
 90
        8
 70
     0
 43
0.0
 10
395.5346910779817
 20
-109.7515987037507
 10
395.5346910779817
 20
-113.5015987037507
 10
405.2846910779813
 20
-113.5015987037507
 42
-0.4142135623730951
 10
407.534691077981
 20
-115.7515987037512
 10
407.534691077981
 20
-151.75159870375
 42
-0.4142135623730914
 10
405.2846910779813
 20
-154.0015987037496
 10
395.5346910779817
 20
-154.0015987037513
 10
395.5346910779817
 20
-157.7515987037496
  0
LWPOLYLINE
  5
1F2
330
66
100
AcDbEntity
  8
LF-LINE
100
AcDbPolyline
 90
        8
 70
     0
 43
0.0
 10
413.5346910779807
 20
-157.7515987037513
 10
413.5346910779807
 20
-154.0015987037496
 10
412.7846910779814
 20
-154.0015987037496
 42
-0.4142135623730951
 10
410.5346910779817
 20
-151.75159870375
 10
410.5346910779799
 20
-115.7515987037503
 42
-0.4142135623730914
 10
412.7846910779814
 20
-113.5015987037499
 10
413.5346910779807
 20
-113.501598703749
 10
413.5346910779807
 20
-109.7515987037507
  0
LWPOLYLINE
  5
1F3
330
66
100
AcDbEntity
  8
LF-LINE
100
AcDbPolyline
 90
        6
 70
     0
 43
0.0
 10
417.2846910779806
 20
-109.7515987037507
 10
417.2846910779806
 20
-113.501598703749
 10
418.03469107798
 20
-113.5015987037499
 42
-0.4142135623730953
 10
420.2846910779796
 20
-115.7515987037512
 10
420.2846910779796
 20
-131.8765987037527
 10
424.784691077979
 20
-131.8765987037527
  0
LWPOLYLINE
  5
1F4
330
66
100
AcDbEntity
  8
LF-LINE
100
AcDbPolyline
 90
        6
 70
     0
 43
0.0
 10
417.2846910779806
 20
-157.7515987037513
 10
417.2846910779806
 20
-154.0015987037496
 10
418.03469107798
 20
-154.0015987037496
 42
0.4142135623730914
 10
420.2846910779796
 20
-151.75159870375
 10
420.2846910779796
 20
-135.6265987037502
 10
424.7846910779773
 20
-135.6265987037519
  0
LWPOLYLINE
  5
1F5
330
66
100
AcDbEntity
  8
PKG-OUT
  6
ByBlock
100
AcDbPolyline
 90
        6
 70
     0
 43
0.0
 10
381.2846910779811
 20
-150.7765987037492
 10
400.4846910779806
 20
-150.7765987037509
 42
0.4142135623730951
 10
402.734691077982
 20
-148.5265987037512
 10
402.734691077982
 20
-118.9765987037508
 42
0.4142135623732061
 10
400.4846910779806
 20
-116.7265987037511
 10
381.2846910779811
 20
-116.7265987037511
  0
LWPOLYLINE
  5
1F6
330
66
100
AcDbEntity
  8
PKG-OUT
  6
ByBlock
100
AcDbPolyline
 90
        6
 70
     0
 43
0.0
 10
420.2846910779814
 20
-116.7265987037494
 10
415.3346910779807
 20
-116.7265987037511
 42
0.4142135623730951
 10
413.0846910779811
 20
-118.9765987037508
 10
413.0846910779776
 20
-148.5265987037512
 42
0.4142135623730951
 10
415.3346910779791
 20
-150.7765987037526
 10
420.2846910779796
 20
-150.7765987037517
  0
LINE
  5
1F7
330
66
100
AcDbEntity
  8
PKG-OUT
100
AcDbLine
 10
448.7846910779785
 20
-122.501598703751
 30
0.0
 11
448.7846910779785
 21
-145.001598703751
 31
0.0
  0
LINE
  5
1F8
330
66
100
AcDbEntity
  8
PKG-OUT
100
AcDbLine
 10
448.7846910779785
 20
-122.4634362734535
 30
0.0
 11
448.7846910779785
 21
-145.0397611340485
 31
0.0
  0
LINE
  5
1F9
330
66
100
AcDbEntity
  8
PKG-OUT
  6
ByBlock
370
    -2
100
AcDbLine
 10
467.7846910779799
 20
-150.7765987037517
 30
0.0
 11
463.6806486300013
 21
-150.7765987037517
 31
0.0
  0
POINT
  5
1FA
330
66
100
AcDbEntity
  8
PKG-OUT
100
AcDbPoint
 10
450.7346910779818
 20
-118.9765987037508
 30
0.0
  0
LWPOLYLINE
  5
1FB
330
66
100
AcDbEntity
  8
PKG-OUT
100
AcDbPolyline
 90
        4
 70
     1
 43
0.0
 10
471.2846910779784
 20
-111.251598703751
 10
426.2846910779784
 20
-111.251598703751
 10
426.2846910779784
 20
-156.251598703751
 10
471.2846910779784
 20
-156.251598703751
  0
LINE
  5
1FC
330
66
100
AcDbEntity
  8
PKG-OUT
100
AcDbLine
 10
429.2846910779808
 20
-131.8765987037527
 30
0.0
 11
429.2846910779808
 21
-135.6265987037502
 31
0.0
  0
LINE
  5
1FD
330
66
100
AcDbEntity
  8
PKG-OUT
100
AcDbLine
 10
468.2846910779795
 20
-131.8765987037527
 30
0.0
 11
468.2846910779795
 21
-135.6265987037502
 31
0.0
  0
LWPOLYLINE
  5
1FE
330
66
100
AcDbEntity
  8
LF-LINE
100
AcDbPolyline
 90
        6
 70
     0
 43
0.0
 10
439.7846910779815
 20
-109.7515987037507
 10
439.7846910779815
 20
-113.5015987037507
 10
431.5346910779805
 20
-113.5015987037507
 42
0.4142135623730914
 10
429.2846910779808
 20
-115.7515987037512
 10
429.2846910779808
 20
-131.8765987037527
 10
424.7846910779798
 20
-131.876598703751
  0
LWPOLYLINE
  5
1FF
330
66
100
AcDbEntity
  8
LF-LINE
100
AcDbPolyline
 90
        6
 70
     0
 43
0.0
 10
424.7846910779798
 20
-135.6265987037502
 10
429.2846910779808
 20
-135.6265987037502
 10
429.2846910779808
 20
-151.7515987037517
 42
0.4142135623730914
 10
431.5346910779805
 20
-154.0015987037513
 10
439.7846910779798
 20
-154.0015987037513
 10
439.7846910779815
 20
-157.7515987037496
  0
LWPOLYLINE
  5
200
330
66
100
AcDbEntity
  8
LF-LINE
100
AcDbPolyline
 90
        8
 70
     0
 43
0.0
 10
443.5346910779816
 20
-109.7515987037507
 10
443.5346910779816
 20
-113.5015987037507
 10
453.2846910779812
 20
-113.5015987037507
 42
-0.4142135623730951
 10
455.5346910779809
 20
-115.7515987037512
 10
455.5346910779809
 20
-151.75159870375
 42
-0.4142135623730914
 10
453.2846910779812
 20
-154.0015987037496
 10
443.5346910779816
 20
-154.0015987037513
 10
443.5346910779816
 20
-157.7515987037496
  0
LWPOLYLINE
  5
201
330
66
100
AcDbEntity
  8
LF-LINE
100
AcDbPolyline
 90
        8
 70
     0
 43
0.0
 10
461.5346910779805
 20
-157.7515987037513
 10
461.5346910779805
 20
-154.0015987037496
 10
460.7846910779811
 20
-154.0015987037496
 42
-0.4142135623730951
 10
458.5346910779815
 20
-151.75159870375
 10
458.5346910779798
 20
-115.7515987037503
 42
-0.4142135623730914
 10
460.7846910779811
 20
-113.5015987037499
 10
461.5346910779805
 20
-113.501598703749
 10
461.5346910779805
 20
-109.7515987037507
  0
LWPOLYLINE
  5
202
330
66
100
AcDbEntity
  8
LF-LINE
100
AcDbPolyline
 90
        6
 70
     0
 43
0.0
 10
465.2846910779805
 20
-109.7515987037507
 10
465.2846910779805
 20
-113.501598703749
 10
466.0346910779798
 20
-113.5015987037499
 42
-0.4142135623730953
 10
468.2846910779795
 20
-115.7515987037512
 10
468.2846910779795
 20
-131.8765987037527
 10
472.7846910779788
 20
-131.8765987037527
  0
LWPOLYLINE
  5
203
330
66
100
AcDbEntity
  8
LF-LINE
100
AcDbPolyline
 90
        6
 70
     0
 43
0.0
 10
465.2846910779805
 20
-157.7515987037513
 10
465.2846910779805
 20
-154.0015987037496
 10
466.0346910779798
 20
-154.0015987037496
 42
0.4142135623730914
 10
468.2846910779795
 20
-151.75159870375
 10
468.2846910779795
 20
-135.6265987037502
 10
472.7846910779771
 20
-135.6265987037519
  0
LWPOLYLINE
  5
204
330
66
100
AcDbEntity
  8
PKG-OUT
  6
ByBlock
100
AcDbPolyline
 90
        6
 70
     0
 43
0.0
 10
429.2846910779808
 20
-150.7765987037492
 10
448.4846910779804
 20
-150.7765987037509
 42
0.4142135623730951
 10
450.7346910779818
 20
-148.5265987037512
 10
450.7346910779818
 20
-118.9765987037508
 42
0.4142135623732061
 10
448.4846910779804
 20
-116.7265987037511
 10
429.2846910779808
 20
-116.7265987037511
  0
LWPOLYLINE
  5
205
330
66
100
AcDbEntity
  8
PKG-OUT
  6
ByBlock
100
AcDbPolyline
 90
        6
 70
     0
 43
0.0
 10
468.2846910779812
 20
-116.7265987037494
 10
463.3346910779805
 20
-116.7265987037511
 42
0.4142135623730951
 10
461.0846910779809
 20
-118.9765987037508
 10
461.0846910779775
 20
-148.5265987037512
 42
0.4142135623730951
 10
463.3346910779788
 20
-150.7765987037526
 10
468.2846910779795
 20
-150.7765987037517
  0
HATCH
  5
206
330
66
100
AcDbEntity
  8
PKG-OUT
100
AcDbHatch
 10
0.0
 20
0.0
 30
0.0
210
0.0
220
0.0
230
1.0
  2
ANSI31
 70
     0
 71
     0
 91
       36
 92
        6
 72
     0
 73
     1
 93
        4
 10
471.2846910779784
 20
-131.8765987037527
 10
468.2846910779795
 20
-131.8765987037527
 10
468.2846910779795
 20
-135.6265987037502
 10
471.2846910779784
 20
-135.6265987037502
 97
        0
 92
        6
 72
     1
 73
     1
 93
       24
 10
461.5346910779805
 20
-156.251598703751
 42
0.0
 10
465.2846910779805
 20
-156.251598703751
 42
0.0
 10
465.2846910779805
 20
-154.0015987037496
 42
0.0
 10
466.0346910779798
 20
-154.0015987037496
 42
0.4142135623730914
 10
468.2846910779795
 20
-151.75159870375
 42
0.0
 10
468.2846910779795
 20
-150.7765987037517
 42
0.0
 10
467.7846910779799
 20
-150.7765987037518
 42
0.0
 10
463.6806486300013
 20
-150.7765987037525
 42
0.0
 10
463.3346910779788
 20
-150.7765987037526
 42
-0.4142135623730951
 10
461.0846910779775
 20
-148.5265987037512
 42
0.0
 10
461.0846910779809
 20
-118.9765987037508
 42
-0.4142135623730951
 10
463.3346910779805
 20
-116.7265987037511
 42
0.0
 10
468.2846910779795
 20
-116.7265987037494
 42
0.0
 10
468.2846910779795
 20
-115.7515987037512
 42
0.4142135623730953
 10
466.0346910779798
 20
-113.5015987037499
 42
0.0
 10
465.2846910779805
 20
-113.501598703749
 42
0.0
 10
465.2846910779805
 20
-111.251598703751
 42
0.0
 10
461.5346910779805
 20
-111.251598703751
 42
0.0
 10
461.5346910779805
 20
-113.501598703749
 42
0.0
 10
460.7846910779811
 20
-113.5015987037499
 42
0.4142135623730914
 10
458.5346910779798
 20
-115.7515987037503
 42
0.0
 10
458.5346910779815
 20
-151.75159870375
 42
0.4142135623730951
 10
460.7846910779811
 20
-154.0015987037496
 42
0.0
 10
461.5346910779805
 20
-154.0015987037496
 42
0.0
 97
        0
 92
        6
 72
     0
 73
     1
 93
        6
 10
423.2846910779787
 20
-135.6265987037513
 10
424.7846910779798
 20
-135.6265987037502
 10
426.2846910779784
 20
-135.6265987037502
 10
426.2846910779784
 20
-131.8765987037516
 10
424.784691077979
 20
-131.8765987037527
 10
423.2846910779787
 20
-131.8765987037527
 97
        0
 92
        6
 72
     0
 73
     1
 93
        4
 10
423.2846910779787
 20
-131.8765987037527
 10
420.2846910779796
 20
-131.8765987037527
 10
420.2846910779796
 20
-135.6265987037502
 10
423.2846910779787
 20
-135.6265987037502
 97
        0
 92
        6
 72
     1
 73
     1
 93
       24
 10
413.5346910779807
 20
-156.251598703751
 42
0.0
 10
417.2846910779806
 20
-156.251598703751
 42
0.0
 10
417.2846910779806
 20
-154.0015987037496
 42
0.0
 10
418.03469107798
 20
-154.0015987037496
 42
0.4142135623730914
 10
420.2846910779796
 20
-151.75159870375
 42
0.0
 10
420.2846910779796
 20
-150.7765987037517
 42
0.0
 10
419.7846910779801
 20
-150.7765987037518
 42
0.0
 10
415.6806486300015
 20
-150.7765987037525
 42
0.0
 10
415.3346910779791
 20
-150.7765987037526
 42
-0.4142135623730951
 10
413.0846910779776
 20
-148.5265987037512
 42
0.0
 10
413.0846910779811
 20
-118.9765987037508
 42
-0.4142135623730951
 10
415.3346910779807
 20
-116.7265987037511
 42
0.0
 10
420.2846910779796
 20
-116.7265987037494
 42
0.0
 10
420.2846910779796
 20
-115.7515987037512
 42
0.4142135623730953
 10
418.03469107798
 20
-113.5015987037499
 42
0.0
 10
417.2846910779806
 20
-113.501598703749
 42
0.0
 10
417.2846910779806
 20
-111.251598703751
 42
0.0
 10
413.5346910779807
 20
-111.251598703751
 42
0.0
 10
413.5346910779807
 20
-113.501598703749
 42
0.0
 10
412.7846910779814
 20
-113.5015987037499
 42
0.4142135623730914
 10
410.5346910779799
 20
-115.7515987037503
 42
0.0
 10
410.5346910779817
 20
-151.75159870375
 42
0.4142135623730951
 10
412.7846910779814
 20
-154.0015987037496
 42
0.0
 10
413.5346910779807
 20
-154.0015987037496
 42
0.0
 97
        0
 92
        6
 72
     0
 73
     1
 93
        4
 10
471.2846910779784
 20
-83.87659870375291
 10
468.2846910779795
 20
-83.87659870375291
 10
468.2846910779795
 20
-87.62659870375035
 10
471.2846910779784
 20
-87.62659870375035
 97
        0
 92
        6
 72
     0
 73
     1
 93
        6
 10
461.5346910779805
 20
-109.7515987037507
 10
461.5346910779805
 20
-111.251598703751
 10
465.2846910779805
 20
-111.251598703751
 10
465.2846910779805
 20
-109.7515987037515
 10
465.2846910779805
 20
-108.2515987037512
 10
461.5346910779805
 20
-108.2515987037512
 97
        0
 92
        6
 72
     1
 73
     1
 93
       24
 10
461.5346910779805
 20
-108.2515987037512
 42
0.0
 10
465.2846910779805
 20
-108.2515987037512
 42
0.0
 10
465.2846910779805
 20
-106.0015987037498
 42
0.0
 10
466.0346910779798
 20
-106.0015987037498
 42
0.4142135623730914
 10
468.2846910779795
 20
-103.7515987037501
 42
0.0
 10
468.2846910779795
 20
-102.7765987037519
 42
0.0
 10
467.7846910779799
 20
-102.776598703752
 42
0.0
 10
463.6806486300013
 20
-102.7765987037527
 42
0.0
 10
463.3346910779788
 20
-102.7765987037527
 42
-0.4142135623730951
 10
461.0846910779775
 20
-100.5265987037514
 42
0.0
 10
461.0846910779809
 20
-70.976598703751
 42
-0.4142135623730951
 10
463.3346910779805
 20
-68.72659870375134
 42
0.0
 10
468.2846910779795
 20
-68.72659870374963
 42
0.0
 10
468.2846910779795
 20
-67.75159870375143
 42
0.4142135623730953
 10
466.0346910779798
 20
-65.50159870375006
 42
0.0
 10
465.2846910779805
 20
-65.50159870374915
 42
0.0
 10
465.2846910779805
 20
-63.2515987037512
 42
0.0
 10
461.5346910779805
 20
-63.2515987037512
 42
0.0
 10
461.5346910779805
 20
-65.50159870374915
 42
0.0
 10
460.7846910779811
 20
-65.50159870375006
 42
0.4142135623730914
 10
458.5346910779798
 20
-67.75159870375052
 42
0.0
 10
458.5346910779815
 20
-103.7515987037501
 42
0.4142135623730951
 10
460.7846910779811
 20
-106.0015987037498
 42
0.0
 10
461.5346910779805
 20
-106.0015987037498
 42
0.0
 97
        0
 92
        6
 72
     0
 73
     1
 93
        6
 10
413.5346910779807
 20
-109.7515987037507
 10
413.5346910779807
 20
-111.251598703751
 10
417.2846910779806
 20
-111.251598703751
 10
417.2846910779806
 20
-109.7515987037515
 10
417.2846910779806
 20
-108.2515987037512
 10
413.5346910779807
 20
-108.2515987037512
 97
        0
 92
        6
 72
     0
 73
     1
 93
        4
 10
378.2846910779787
 20
-87.62659870375035
 10
381.2846910779811
 20
-87.62659870375035
 10
381.2846910779811
 20
-83.87659870375291
 10
378.2846910779787
 20
-83.87659870375291
 97
        0
 92
        6
 72
     0
 73
     1
 93
        5
 10
426.2846910779784
 20
-84.75159870375291
 10
426.2846910779784
 20
-87.62659870375035
 10
429.2846910779808
 20
-87.62659870375035
 10
429.2846910779808
 20
-83.87659870375291
 10
426.2846910779784
 20
-83.87659870375291
 97
        0
 92
        6
 72
     0
 73
     1
 93
        5
 10
423.2846910779784
 20
-83.87659870375291
 10
420.2846910779796
 20
-83.87659870375291
 10
420.2846910779796
 20
-87.62659870375035
 10
423.2846910779787
 20
-87.62659870375035
 10
423.2846910779787
 20
-84.75159870375291
 97
        0
 92
        6
 72
     0
 73
     1
 93
        8
 10
423.2846910779787
 20
-84.75159870375291
 10
423.2846910779787
 20
-87.62659870375149
 10
424.7846910779798
 20
-87.62659870375035
 10
426.2846910779784
 20
-87.62659870375035
 10
426.2846910779784
 20
-84.75159870375291
 10
426.2846910779782
 20
-83.87659870375177
 10
424.784691077979
 20
-83.87659870375291
 10
423.2846910779787
 20
-83.87659870375291
 97
        0
 92
        6
 72
     1
 73
     1
 93
       24
 10
413.5346910779807
 20
-63.2515987037512
 42
0.0
 10
413.5346910779807
 20
-65.50159870374915
 42
0.0
 10
412.7846910779814
 20
-65.50159870375006
 42
0.4142135623730914
 10
410.5346910779799
 20
-67.75159870375052
 42
0.0
 10
410.5346910779817
 20
-103.7515987037501
 42
0.4142135623730951
 10
412.7846910779814
 20
-106.0015987037498
 42
0.0
 10
413.5346910779807
 20
-106.0015987037498
 42
0.0
 10
413.5346910779807
 20
-108.2515987037512
 42
0.0
 10
417.2846910779806
 20
-108.2515987037512
 42
0.0
 10
417.2846910779806
 20
-106.0015987037498
 42
0.0
 10
418.03469107798
 20
-106.0015987037498
 42
0.4142135623730914
 10
420.2846910779796
 20
-103.7515987037501
 42
0.0
 10
420.2846910779796
 20
-102.7765987037519
 42
0.0
 10
419.7846910779801
 20
-102.776598703752
 42
0.0
 10
415.6806486300015
 20
-102.7765987037527
 42
0.0
 10
415.3346910779791
 20
-102.7765987037527
 42
-0.4142135623730951
 10
413.0846910779776
 20
-100.5265987037514
 42
0.0
 10
413.0846910779811
 20
-70.976598703751
 42
-0.4142135623730951
 10
415.3346910779807
 20
-68.72659870375134
 42
0.0
 10
420.2846910779796
 20
-68.72659870374963
 42
0.0
 10
420.2846910779796
 20
-67.75159870375143
 42
0.4142135623730953
 10
418.03469107798
 20
-65.50159870375006
 42
0.0
 10
417.2846910779806
 20
-65.50159870374915
 42
0.0
 10
417.2846910779806
 20
-63.2515987037512
 42
0.0
 97
        0
 92
        6
 72
     1
 73
     1
 93
       10
 10
448.7846910779785
 20
-65.50159870375086
 42
0.0
 10
443.5346910779816
 20
-65.50159870375086
 42
0.0
 10
443.5346910779816
 20
-63.2515987037512
 42
0.0
 10
439.7846910779815
 20
-63.2515987037512
 42
0.0
 10
439.7846910779815
 20
-65.50159870375086
 42
0.0
 10
431.5346910779805
 20
-65.50159870375086
 42
0.4142135623730914
 10
429.2846910779808
 20
-67.75159870375143
 42
0.0
 10
429.2846910779808
 20
-68.72659870375134
 42
0.0
 10
448.4846910779804
 20
-68.72659870375139
 42
-0.0334453595606461
 10
448.7846910779785
 20
-68.74668839165315
 42
0.0
 97
        0
 92
        6
 72
     1
 73
     1
 93
       10
 10
400.7846910779786
 20
-65.50159870375086
 42
0.0
 10
395.5346910779817
 20
-65.50159870375086
 42
0.0
 10
395.5346910779817
 20
-63.2515987037512
 42
0.0
 10
391.7846910779817
 20
-63.2515987037512
 42
0.0
 10
391.7846910779817
 20
-65.50159870375086
 42
0.0
 10
383.5346910779807
 20
-65.50159870375086
 42
0.4142135623730914
 10
381.2846910779811
 20
-67.75159870375143
 42
0.0
 10
381.2846910779811
 20
-68.72659870375134
 42
0.0
 10
400.4846910779805
 20
-68.72659870375139
 42
-0.0334453595606524
 10
400.7846910779786
 20
-68.74668839165315
 42
0.0
 97
        0
 92
        6
 72
     0
 73
     1
 93
        6
 10
372.2846910779793
 20
-87.62659870375035
 10
376.78469107798
 20
-87.62659870375035
 10
378.2846910779787
 20
-87.62659870375035
 10
378.2846910779787
 20
-83.87659870375177
 10
376.78469107798
 20
-83.87659870375102
 10
372.2846910779785
 20
-83.87659870375102
 97
        0
 92
        6
 72
     0
 73
     1
 93
        6
 10
372.2846910779793
 20
-135.6265987037503
 10
376.78469107798
 20
-135.6265987037502
 10
378.2846910779787
 20
-135.6265987037502
 10
378.2846910779787
 20
-131.8765987037516
 10
376.78469107798
 20
-131.876598703751
 10
372.2846910779785
 20
-131.876598703751
 97
        0
 92
        7
 72
     0
 73
     1
 93
        6
 10
465.2846910779805
 20
-162.2515987037527
 10
465.2846910779805
 20
-157.7515987037513
 10
465.2846910779805
 20
-156.251598703751
 10
461.5346910779805
 20
-156.251598703751
 10
461.5346910779815
 20
-157.7515987037514
 10
461.5346910779815
 20
-162.2515987037527
 97
        0
 92
        6
 72
     0
 73
     1
 93
        6
 10
417.2846910779805
 20
-162.2515987037527
 10
417.2846910779806
 20
-157.7515987037513
 10
417.2846910779806
 20
-156.251598703751
 10
413.5346910779807
 20
-156.251598703751
 10
413.5346910779815
 20
-157.7515987037514
 10
413.5346910779815
 20
-162.2515987037527
 97
        0
 92
        6
 72
     0
 73
     1
 93
        5
 10
393.7374786055843
 20
-156.251598703751
 10
391.7846910779811
 20
-156.251598703751
 10
391.7846910779817
 20
-157.7515987037496
 10
391.7846910779817
 20
-162.2515987037527
 10
393.7374786055843
 20
-162.2515987037527
 97
        0
 92
        6
 72
     0
 73
     1
 93
        6
 10
443.5346910779816
 20
-108.2515987037512
 10
439.7846910779809
 20
-108.2515987037512
 10
439.7846910779815
 20
-109.7515987037507
 10
439.7846910779815
 20
-111.251598703751
 10
443.5346910779816
 20
-111.251598703751
 10
443.5346910779816
 20
-109.7515987037498
 97
        0
 92
        6
 72
     1
 73
     1
 93
       13
 10
450.7346910779818
 20
-85.75159870375159
 42
0.0
 10
450.7346910779818
 20
-100.5265987037514
 42
-0.4142135623730951
 10
448.4846910779804
 20
-102.776598703751
 42
0.0
 10
429.2846910779808
 20
-102.7765987037493
 42
0.0
 10
429.2846910779808
 20
-103.7515987037519
 42
0.4142135623730914
 10
431.5346910779805
 20
-106.0015987037515
 42
0.0
 10
439.7846910779798
 20
-106.0015987037515
 42
0.0
 10
439.7846910779798
 20
-108.2515987037512
 42
0.0
 10
443.5346910779816
 20
-108.2515987037512
 42
0.0
 10
443.5346910779816
 20
-106.0015987037515
 42
0.0
 10
453.2846910779812
 20
-106.0015987037498
 42
0.4142135623730914
 10
455.5346910779809
 20
-103.7515987037501
 42
0.0
 10
455.5346910779771
 20
-85.75159870375262
 42
0.0
 97
        0
 92
        6
 72
     1
 73
     1
 93
        7
 10
455.5346910779809
 20
-85.75159870375262
 42
0.0
 10
455.5346910779809
 20
-67.75159870375143
 42
0.4142135623730951
 10
453.2846910779812
 20
-65.50159870375086
 42
0.0
 10
448.7846910779785
 20
-65.50159870375086
 42
0.0
 10
448.7846910779785
 20
-68.74668839165315
 42
-0.3755653008321364
 10
450.7346910779818
 20
-70.976598703751
 42
0.0
 10
450.7346910779848
 20
-85.75159870375159
 42
0.0
 97
        0
 92
        6
 72
     0
 73
     1
 93
        6
 10
395.5346910779817
 20
-108.2515987037512
 10
391.7846910779811
 20
-108.2515987037512
 10
391.7846910779817
 20
-109.7515987037507
 10
391.7846910779817
 20
-111.251598703751
 10
395.5346910779817
 20
-111.251598703751
 10
395.5346910779817
 20
-109.7515987037498
 97
        0
 92
        6
 72
     1
 73
     1
 93
       13
 10
402.734691077982
 20
-85.75159870375159
 42
0.0
 10
402.734691077982
 20
-100.5265987037514
 42
-0.4142135623730951
 10
400.4846910779806
 20
-102.776598703751
 42
0.0
 10
381.2846910779811
 20
-102.7765987037493
 42
0.0
 10
381.2846910779811
 20
-103.7515987037519
 42
0.4142135623730914
 10
383.5346910779807
 20
-106.0015987037515
 42
0.0
 10
391.78469107798
 20
-106.0015987037515
 42
0.0
 10
391.78469107798
 20
-108.2515987037512
 42
0.0
 10
395.5346910779817
 20
-108.2515987037512
 42
0.0
 10
395.5346910779817
 20
-106.0015987037515
 42
0.0
 10
405.2846910779813
 20
-106.0015987037498
 42
0.4142135623730914
 10
407.534691077981
 20
-103.7515987037501
 42
0.0
 10
407.5346910779773
 20
-85.75159870375262
 42
0.0
 97
        0
 92
        6
 72
     1
 73
     1
 93
        7
 10
407.534691077981
 20
-85.75159870375262
 42
0.0
 10
407.534691077981
 20
-67.75159870375143
 42
0.4142135623730951
 10
405.2846910779813
 20
-65.50159870375086
 42
0.0
 10
400.7846910779786
 20
-65.50159870375086
 42
0.0
 10
400.7846910779786
 20
-68.74668839165315
 42
-0.3755653008321291
 10
402.734691077982
 20
-70.976598703751
 42
0.0
 10
402.7346910779851
 20
-85.75159870375159
 42
0.0
 97
        0
 92
        6
 72
     0
 73
     1
 93
        6
 10
443.5346910779816
 20
-156.251598703751
 10
439.7846910779809
 20
-156.251598703751
 10
439.7846910779817
 20
-157.7515987037496
 10
439.7846910779817
 20
-162.2515987037527
 10
443.5346910779824
 20
-162.2515987037527
 10
443.5346910779816
 20
-157.7515987037496
 97
        0
 92
        6
 72
     0
 73
     1
 93
        4
 10
429.2846910779808
 20
-131.8765987037527
 10
426.2846910779784
 20
-131.8765987037527
 10
426.2846910779784
 20
-135.6265987037502
 10
429.2846910779808
 20
-135.6265987037502
 97
        0
 92
        6
 72
     1
 73
     1
 93
       13
 10
429.2846910779808
 20
-150.7765987037492
 42
0.0
 10
429.2846910779808
 20
-151.7515987037517
 42
0.4142135623730914
 10
431.5346910779805
 20
-154.0015987037513
 42
0.0
 10
439.7846910779798
 20
-154.0015987037513
 42
0.0
 10
439.7846910779798
 20
-156.251598703751
 42
0.0
 10
443.5346910779816
 20
-156.251598703751
 42
0.0
 10
443.5346910779816
 20
-154.0015987037513
 42
0.0
 10
453.2846910779812
 20
-154.0015987037496
 42
0.4142135623730914
 10
455.5346910779809
 20
-151.75159870375
 42
0.0
 10
455.5346910779771
 20
-133.7515987037524
 42
0.0
 10
450.7346910779818
 20
-133.7515987037514
 42
0.0
 10
450.7346910779818
 20
-148.5265987037512
 42
-0.4142135623730951
 10
448.4846910779804
 20
-150.7765987037509
 42
0.0
 97
        0
 92
        6
 72
     1
 73
     1
 93
       13
 10
450.7346910779848
 20
-133.7515987037514
 42
0.0
 10
455.5346910779809
 20
-133.7515987037524
 42
0.0
 10
455.5346910779809
 20
-115.7515987037512
 42
0.4142135623730951
 10
453.2846910779812
 20
-113.5015987037507
 42
0.0
 10
443.5346910779816
 20
-113.5015987037507
 42
0.0
 10
443.5346910779816
 20
-111.251598703751
 42
0.0
 10
439.7846910779815
 20
-111.251598703751
 42
0.0
 10
439.7846910779815
 20
-113.5015987037507
 42
0.0
 10
431.5346910779805
 20
-113.5015987037507
 42
0.4142135623730914
 10
429.2846910779808
 20
-115.7515987037512
 42
0.0
 10
429.2846910779808
 20
-116.7265987037511
 42
0.0
 10
448.4846910779804
 20
-116.7265987037511
 42
-0.4142135623732061
 10
450.7346910779818
 20
-118.9765987037508
 42
0.0
 97
        0
 92
        6
 72
     0
 73
     1
 93
        5
 10
395.5346910779817
 20
-156.251598703751
 10
393.7374786055843
 20
-156.251598703751
 10
393.7374786055843
 20
-162.2515987037527
 10
395.5346910779823
 20
-162.2515987037527
 10
395.5346910779817
 20
-157.7515987037496
 97
        0
 92
        6
 72
     0
 73
     1
 93
        4
 10
381.2846910779811
 20
-131.8765987037527
 10
378.2846910779787
 20
-131.8765987037527
 10
378.2846910779787
 20
-135.6265987037502
 10
381.2846910779811
 20
-135.6265987037502
 97
        0
 92
        6
 72
     1
 73
     1
 93
        7
 10
381.2846910779811
 20
-150.7765987037492
 42
0.0
 10
381.2846910779811
 20
-151.7515987037517
 42
0.4142135623730914
 10
383.5346910779807
 20
-154.0015987037513
 42
0.0
 10
391.78469107798
 20
-154.0015987037513
 42
0.0
 10
391.78469107798
 20
-156.251598703751
 42
0.0
 10
393.7374786055843
 20
-156.251598703751
 42
0.0
 10
393.7374786055843
 20
-150.7765987037503
 42
0.0
 97
        0
 92
        6
 72
     1
 73
     1
 93
       10
 10
393.7374786055843
 20
-150.7765987037492
 42
0.0
 10
393.7374786055843
 20
-156.251598703751
 42
0.0
 10
395.5346910779817
 20
-156.251598703751
 42
0.0
 10
395.5346910779817
 20
-154.0015987037513
 42
0.0
 10
405.2846910779813
 20
-154.0015987037496
 42
0.4142135623730914
 10
407.534691077981
 20
-151.75159870375
 42
0.0
 10
407.5346910779773
 20
-133.7515987037524
 42
0.0
 10
402.734691077982
 20
-133.7515987037514
 42
0.0
 10
402.734691077982
 20
-148.5265987037512
 42
-0.4142135623730951
 10
400.4846910779806
 20
-150.7765987037509
 42
0.0
 97
        0
 92
        6
 72
     1
 73
     1
 93
       13
 10
402.7346910779851
 20
-133.7515987037514
 42
0.0
 10
407.534691077981
 20
-133.7515987037524
 42
0.0
 10
407.534691077981
 20
-115.7515987037512
 42
0.4142135623730951
 10
405.2846910779813
 20
-113.5015987037507
 42
0.0
 10
395.5346910779817
 20
-113.5015987037507
 42
0.0
 10
395.5346910779817
 20
-111.251598703751
 42
0.0
 10
391.7846910779817
 20
-111.251598703751
 42
0.0
 10
391.7846910779817
 20
-113.5015987037507
 42
0.0
 10
383.5346910779807
 20
-113.5015987037507
 42
0.4142135623730914
 10
381.2846910779811
 20
-115.7515987037512
 42
0.0
 10
381.2846910779811
 20
-116.7265987037511
 42
0.0
 10
400.4846910779805
 20
-116.7265987037511
 42
-0.4142135623732061
 10
402.734691077982
 20
-118.9765987037508
 42
0.0
 97
        0
 75
     0
 76
     1
 52
0.0
 41
10.0
 77
     0
 78
     1
 53
45.0
 43
0.0
 44
0.0
 45
-0.8838834764831842
 46
0.8838834764831844
 79
     0
 47
0.0
 98
       44
 10
0.0
 20
0.0
 10
0.0
 20
0.0
 10
-5.0
 20
-392.0
 10
-5.0
 20
-392.0
 10
-5.0
 20
-392.0
 10
-5.0
 20
-392.0
 10
-5.0
 20
-392.0
 10
-5.0
 20
-392.0
 10
470.1827365250549
 20
-133.7604812471759
 10
463.2557670037683
 20
-114.2019790694256
 10
423.9350282505829
 20
-133.7604812471759
 10
422.3051530691037
 20
-133.1492780541212
 10
412.5259019802286
 20
-142.9285291429963
 10
469.97900212737
 20
-85.47542899585494
 10
463.6632357991381
 20
-110.1272911157277
 10
460.6072198338647
 20
-68.56547398800836
 10
414.9707147524473
 20
-109.5160879226729
 10
380.3358671460147
 20
-85.67916339353985
 10
427.3985130112261
 20
-85.47542899585494
 10
422.1014186714188
 20
-85.47542899585494
 10
424.3424970459527
 20
-85.67916339353985
 10
412.5259019802286
 20
-66.93559880652919
 10
442.6785928375935
 20
-66.52813001115936
 10
392.9673998024784
 20
-67.54680199958386
 10
373.4088976247281
 20
-85.47542899585494
 10
374.8350384085224
 20
-134.3716844402306
 10
463.6632357991381
 20
-159.2272809577882
 10
416.1931211385568
 20
-158.4123433670486
 10
392.7636654047935
 20
-159.0235465601033
 10
441.6599208491691
 20
-109.7198223203579
 10
440.8449832584294
 20
-105.441399968975
 10
453.2727815172083
 20
-70.39908356717245
 10
393.5786029955331
 20
-109.7198223203579
 10
393.782337393218
 20
-106.0526031620297
 10
404.9877292658873
 20
-69.38041157874796
 10
442.0673896445389
 20
-159.4310153554731
 10
427.805981806596
 20
-133.7604812471759
 10
441.6599208491691
 20
-153.522717822611
 10
452.2541095287839
 20
-131.3156684749571
 10
395.0047437793273
 20
-158.6160777647335
 10
379.3171951575902
 20
-134.1679500425457
 10
387.4665710649861
 20
-152.0965770388168
 10
404.3765260728326
 20
-141.9098571545718
 10
402.7466508913534
 20
-116.4430574439595
  0
HATCH
  5
207
330
66
100
AcDbEntity
  8
PKG-OUT
100
AcDbHatch
 10
0.0
 20
0.0
 30
0.0
210
0.0
220
0.0
230
1.0
  2
ANSI31
 70
     0
 71
     0
 91
        6
 92
        7
 72
     0
 73
     1
 93
        4
 10
471.2846910779784
 20
-135.6265987037513
 10
472.7846910779771
 20
-135.6265987037519
 10
472.7846910779788
 20
-131.8765987037527
 10
471.2846910779784
 20
-131.8765987037527
 97
        0
 92
        7
 72
     0
 73
     1
 93
        4
 10
443.5346910779816
 20
-61.75159870375086
 10
439.7846910779815
 20
-61.75159870375086
 10
439.7846910779815
 20
-63.2515987037512
 10
443.5346910779816
 20
-63.2515987037512
 97
        0
 92
        7
 72
     0
 73
     1
 93
        4
 10
465.2846910779805
 20
-63.2515987037512
 10
465.2846910779805
 20
-61.75159870375086
 10
461.5346910779805
 20
-61.75159870375086
 10
461.5346910779805
 20
-63.2515987037512
 97
        0
 92
        7
 72
     0
 73
     1
 93
        4
 10
395.5346910779817
 20
-61.75159870375086
 10
391.7846910779817
 20
-61.75159870375086
 10
391.7846910779817
 20
-63.2515987037512
 10
395.5346910779817
 20
-63.2515987037512
 97
        0
 92
        6
 72
     0
 73
     1
 93
        4
 10
417.2846910779806
 20
-63.2515987037512
 10
417.2846910779806
 20
-61.75159870375086
 10
413.5346910779807
 20
-61.75159870375086
 10
413.5346910779807
 20
-63.2515987037512
 97
        0
 92
        7
 72
     0
 73
     1
 93
        4
 10
472.7846910779788
 20
-83.87659870375291
 10
471.2846910779784
 20
-83.87659870375291
 10
471.2846910779784
 20
-87.62659870375149
 10
472.7846910779787
 20
-87.62659870375205
 97
        0
 75
     0
 76
     1
 52
0.0
 41
10.0
 77
     0
 78
     1
 53
45.0
 43
0.0
 44
0.0
 45
-0.8838834764831842
 46
0.8838834764831844
 79
     0
 47
0.0
 98
       14
 10
0.0
 20
0.0
 10
0.0
 20
0.0
 10
-5.0
 20
-392.0
 10
-5.0
 20
-392.0
 10
-5.0
 20
-392.0
 10
-5.0
 20
-392.0
 10
-5.0
 20
-392.0
 10
-5.0
 20
-392.0
 10
471.8778333986313
 20
-132.7984442663597
 10
441.5812774424436
 20
-62.74514294473999
 10
464.6928794169267
 20
-62.62539371171164
 10
392.8433395998809
 20
-62.74514294473999
 10
415.4759446422503
 20
-62.26614601262639
 10
471.9975826316597
 20
-84.77900182196743
  0
LINE
  5
208
330
66
100
AcDbEntity
  8
LF-LINE
100
AcDbLine
 10
380.534691077979
 20
-203.5010941015364
 30
0.0
 11
380.534691077979
 21
-217.0010941030179
 31
0.0
  0
ARC
  5
209
330
66
100
AcDbEntity
  8
LF-LINE
100
AcDbCircle
 10
376.784691077979
 20
-217.0010941030179
 30
0.0
 40
3.75
100
AcDbArc
 50
180.0
 51
-0.000000000000014
  0
LINE
  5
20A
330
66
100
AcDbEntity
  8
LF-LINE
100
AcDbLine
 10
373.034691077979
 20
-217.0010941030179
 30
0.0
 11
373.034691077979
 21
-203.5010941015364
 31
0.0
  0
ARC
  5
20B
330
66
100
AcDbEntity
  8
LF-LINE
100
AcDbCircle
 10
376.784691077979
 20
-203.5010941015364
 30
0.0
 40
3.75
100
AcDbArc
 50
0.0
 51
179.9999999999992
  0
LINE
  5
20C
330
66
100
AcDbEntity
  8
LF-LINE
100
AcDbLine
 10
348.2846884684974
 20
-161.5015987037472
 30
0.0
 11
336.2846884685083
 21
-161.5015987037472
 31
0.0
  0
ARC
  5
20D
330
66
100
AcDbEntity
  8
LF-LINE
100
AcDbCircle
 10
336.2846884685083
 20
-157.7515987037473
 30
0.0
 40
3.75
100
AcDbArc
 50
90.0
 51
270.0
  0
LINE
  5
20E
330
66
100
AcDbEntity
  8
LF-LINE
100
AcDbLine
 10
336.2846884685083
 20
-154.0015987037472
 30
0.0
 11
348.2846884684974
 21
-154.0015987037472
 31
0.0
  0
ARC
  5
20F
330
66
100
AcDbEntity
  8
LF-LINE
100
AcDbCircle
 10
348.2846884684974
 20
-157.7515987037473
 30
0.0
 40
3.75
100
AcDbArc
 50
270.0
 51
90.0
  0
TEXT
  5
210
330
66
100
AcDbEntity
  8
COIN-LINE
100
AcDbText
 10
350.802789861923
 20
-185.8255814069257
 30
0.0
 40
2.362499999999999
  1
B
  7
SIMPLEX
100
AcDbText
  0
LINE
  5
211
330
66
100
AcDbEntity
  8
COIN-LINE
100
AcDbLine
 10
351.7159685835086
 20
-181.1032085337658
 30
0.0
 11
354.3409685835086
 21
-186.3532085337658
 31
0.0
  0
LINE
  5
212
330
66
100
AcDbEntity
  8
COIN-LINE
100
AcDbLine
 10
351.7159685835086
 20
-181.1032085337658
 30
0.0
 11
349.0909685835086
 21
-186.3532085337658
 31
0.0
  0
LINE
  5
213
330
66
100
AcDbEntity
  8
COIN-LINE
100
AcDbLine
 10
349.0909685835086
 20
-186.3532085337658
 30
0.0
 11
354.3409685835086
 21
-186.3532085337658
 31
0.0
  0
ENDBLK
  5
214
330
66
100
AcDbEntity
  8
0
100
AcDbBlockEnd
  0
ENDSEC
  0
SECTION
  2
ENTITIES
  0
INSERT
  5
65
330
2
100
AcDbEntity
  8
0
100
AcDbBlockReference
  2
SH2
 10
5.0
 20
392.0
 30
0.0
  0
ENDSEC
  0
SECTION
  2
OBJECTS
  0
DICTIONARY
  5
7
330
0
100
AcDbDictionary
281
     1
  3
ACAD_COLOR
350
3E
  3
ACAD_GROUP
350
2B
  3
ACAD_LAYOUT
350
14
  3
ACAD_MATERIAL
350
9
  3
ACAD_MLEADERSTYLE
350
41
  3
ACAD_MLINESTYLE
350
2C
  3
ACAD_PLOTSETTINGS
350
2D
  3
ACAD_PLOTSTYLENAME
350
6
  3
ACAD_SCALELIST
350
3F
  3
ACAD_TABLESTYLE
350
40
  3
ACAD_VISUALSTYLE
350
25
  3
ACDB_RECOMPOSE_DATA
350
218
  3
AcDbVariableDictionary
350
42
  0
DICTIONARY
  5
3E
102
{ACAD_REACTORS
330
7
102
}
330
7
100
AcDbDictionary
281
     1
  0
DICTIONARY
  5
2B
102
{ACAD_REACTORS
330
7
102
}
330
7
100
AcDbDictionary
281
     1
  0
DICTIONARY
  5
14
102
{ACAD_REACTORS
330
7
102
}
330
7
100
AcDbDictionary
281
     1
  3
Layout1
350
18
  3
Model
350
13
  0
DICTIONARY
  5
9
102
{ACAD_REACTORS
330
7
102
}
330
7
100
AcDbDictionary
281
     1
  3
ByBlock
350
36
  3
ByLayer
350
2E
  3
Global
350
8
  0
DICTIONARY
  5
41
102
{ACAD_REACTORS
330
7
102
}
330
7
100
AcDbDictionary
281
     1
  0
DICTIONARY
  5
2C
102
{ACAD_REACTORS
330
7
102
}
330
7
100
AcDbDictionary
281
     1
  3
Standard
350
4F
  0
DICTIONARY
  5
2D
102
{ACAD_REACTORS
330
7
102
}
330
7
100
AcDbDictionary
281
     1
  0
ACDBDICTIONARYWDFLT
  5
6
102
{ACAD_REACTORS
330
7
102
}
330
7
100
AcDbDictionary
281
     1
  3
Normal
350
5
100
AcDbDictionaryWithDefault
340
5
  0
DICTIONARY
  5
3F
102
{ACAD_REACTORS
330
7
102
}
330
7
100
AcDbDictionary
281
     1
  3
A0
350
54
  3
A1
350
55
  3
A2
350
56
  3
A3
350
57
  3
A4
350
58
  3
A5
350
59
  3
A6
350
5A
  3
A7
350
5B
  3
A8
350
5C
  3
A9
350
5D
  3
B0
350
5E
  3
B1
350
5F
  3
B2
350
60
  3
B3
350
61
  3
B4
350
62
  3
B5
350
63
  3
B6
350
64
  0
DICTIONARY
  5
40
102
{ACAD_REACTORS
330
7
102
}
330
7
100
AcDbDictionary
281
     1
  3
Standard
350
50
  0
DICTIONARY
  5
25
102
{ACAD_REACTORS
330
7
102
}
330
7
100
AcDbDictionary
281
     1
  3
2dWireframe
350
24
  3
EdgeColorOff
350
6F
  3
Realistic
350
51
  3
Wireframe
350
52
  0
XRECORD
  5
218
102
{ACAD_REACTORS
330
7
102
}
330
7
100
AcDbXrecord
280
     1
 90
        1
330
50
  0
DICTIONARY
  5
42
102
{ACAD_REACTORS
330
7
102
}
330
7
100
AcDbDictionary
281
     1
  3
CANNOSCALE
350
43
  3
CMLEADERSTYLE
350
44
  3
CTABLESTYLE
350
45
  3
CVIEWDETAILSTYLE
350
46
  3
CVIEWSECTIONSTYLE
350
47
  3
DIMASSOC
350
48
  3
HIDETEXT
350
49
  3
LAYEREVAL
350
4A
  3
LAYERNOTIFY
350
4B
  3
LIGHTINGUNITS
350
4C
  3
MSLTSCALE
350
4D
  0
LAYOUT
  5
18
102
{ACAD_REACTORS
330
14
102
}
330
14
100
AcDbPlotSettings
  1

  2
None
  4

  6

 40
0.0
 41
0.0
 42
0.0
 43
0.0
 44
0.0
 45
0.0
 46
0.0
 47
0.0
 48
0.0
 49
0.0
140
0.0
141
0.0
142
1.0
143
1.0
 70
   688
 72
     0
 73
     0
 74
     0
  7

 75
     0
147
1.0
 76
     0
 77
     2
 78
   300
148
0.0
149
0.0
100
AcDbLayout
  1
Layout1
 70
     0
 71
     1
 10
0.0
 20
0.0
 11
0.0
 21
0.0
 12
0.0
 22
0.0
 32
0.0
 14
0.0
 24
0.0
 34
0.0
 15
0.0
 25
0.0
 35
0.0
146
0.0
 13
0.0
 23
0.0
 33
0.0
 16
1.0
 26
0.0
 36
0.0
 17
0.0
 27
1.0
 37
0.0
 76
     0
330
15
  0
LAYOUT
  5
13
102
{ACAD_REACTORS
330
14
102
}
330
14
100
AcDbPlotSettings
  1

  2
None
  4

  6

 40
0.0
 41
0.0
 42
0.0
 43
0.0
 44
0.0
 45
0.0
 46
0.0
 47
0.0
 48
0.0
 49
0.0
140
0.0
141
0.0
142
1.0
143
1.0
 70
 11952
 72
     0
 73
     0
 74
     0
  7

 75
     0
147
1.0
 76
     0
 77
     2
 78
   300
148
0.0
149
0.0
100
AcDbLayout
  1
Model
 70
     1
 71
     0
 10
0.0
 20
0.0
 11
0.0
 21
0.0
 12
0.0
 22
0.0
 32
0.0
 14
5.0
 24
8.999999999999943
 34
0.0
 15
1637.0
 25
392.0000000000001
 35
0.0
146
0.0
 13
0.0
 23
0.0
 33
0.0
 16
1.0
 26
0.0
 36
0.0
 17
0.0
 27
1.0
 37
0.0
 76
     0
330
2
  0
MATERIAL
  5
36
102
{ACAD_XDICTIONARY
360
37
102
}
102
{ACAD_REACTORS
330
9
102
}
330
9
100
AcDbMaterial
  1
ByBlock
 72
     0
 43
0.0208333333333333
 43
0.0
 43
0.0
 43
0.0
 43
0.0
 43
0.0208333333333333
 43
0.0
 43
0.0
 43
0.0
 43
0.0
 43
1.0
 43
0.0
 43
0.0
 43
0.0
 43
0.0
 43
1.0
 77
     0
 47
0.0208333333333333
 47
0.0
 47
0.0
 47
0.0
 47
0.0
 47
0.0208333333333333
 47
0.0
 47
0.0
 47
0.0
 47
0.0
 47
1.0
 47
0.0
 47
0.0
 47
0.0
 47
0.0
 47
1.0
171
     0
 49
0.0208333333333333
 49
0.0
 49
0.0
 49
0.0
 49
0.0
 49
0.0208333333333333
 49
0.0
 49
0.0
 49
0.0
 49
0.0
 49
1.0
 49
0.0
 49
0.0
 49
0.0
 49
0.0
 49
1.0
175
     0
142
0.0208333333333333
142
0.0
142
0.0
142
0.0
142
0.0
142
0.0208333333333333
142
0.0
142
0.0
142
0.0
142
0.0
142
1.0
142
0.0
142
0.0
142
0.0
142
0.0
142
1.0
179
     0
144
0.0208333333333333
144
0.0
144
0.0
144
0.0
144
0.0
144
0.0208333333333333
144
0.0
144
0.0
144
0.0
144
0.0
144
1.0
144
0.0
144
0.0
144
0.0
144
0.0
144
1.0
147
0.0208333333333333
147
0.0
147
0.0
147
0.0
147
0.0
147
0.0208333333333333
147
0.0
147
0.0
147
0.0
147
0.0
147
1.0
147
0.0
147
0.0
147
0.0
147
0.0
147
1.0
  0
MATERIAL
  5
2E
102
{ACAD_XDICTIONARY
360
2F
102
}
102
{ACAD_REACTORS
330
9
102
}
330
9
100
AcDbMaterial
  1
ByLayer
 72
     0
 43
0.0208333333333333
 43
0.0
 43
0.0
 43
0.0
 43
0.0
 43
0.0208333333333333
 43
0.0
 43
0.0
 43
0.0
 43
0.0
 43
1.0
 43
0.0
 43
0.0
 43
0.0
 43
0.0
 43
1.0
 77
     0
 47
0.0208333333333333
 47
0.0
 47
0.0
 47
0.0
 47
0.0
 47
0.0208333333333333
 47
0.0
 47
0.0
 47
0.0
 47
0.0
 47
1.0
 47
0.0
 47
0.0
 47
0.0
 47
0.0
 47
1.0
171
     0
 49
0.0208333333333333
 49
0.0
 49
0.0
 49
0.0
 49
0.0
 49
0.0208333333333333
 49
0.0
 49
0.0
 49
0.0
 49
0.0
 49
1.0
 49
0.0
 49
0.0
 49
0.0
 49
0.0
 49
1.0
175
     0
142
0.0208333333333333
142
0.0
142
0.0
142
0.0
142
0.0
142
0.0208333333333333
142
0.0
142
0.0
142
0.0
142
0.0
142
1.0
142
0.0
142
0.0
142
0.0
142
0.0
142
1.0
179
     0
144
0.0208333333333333
144
0.0
144
0.0
144
0.0
144
0.0
144
0.0208333333333333
144
0.0
144
0.0
144
0.0
144
0.0
144
1.0
144
0.0
144
0.0
144
0.0
144
0.0
144
1.0
147
0.0208333333333333
147
0.0
147
0.0
147
0.0
147
0.0
147
0.0208333333333333
147
0.0
147
0.0
147
0.0
147
0.0
147
1.0
147
0.0
147
0.0
147
0.0
147
0.0
147
1.0
  0
MATERIAL
  5
8
102
{ACAD_XDICTIONARY
360
A
102
}
102
{ACAD_REACTORS
330
9
102
}
330
9
100
AcDbMaterial
  1
Global
 72
     0
 43
0.0208333333333333
 43
0.0
 43
0.0
 43
0.0
 43
0.0
 43
0.0208333333333333
 43
0.0
 43
0.0
 43
0.0
 43
0.0
 43
1.0
 43
0.0
 43
0.0
 43
0.0
 43
0.0
 43
1.0
 77
     0
 47
0.0208333333333333
 47
0.0
 47
0.0
 47
0.0
 47
0.0
 47
0.0208333333333333
 47
0.0
 47
0.0
 47
0.0
 47
0.0
 47
1.0
 47
0.0
 47
0.0
 47
0.0
 47
0.0
 47
1.0
171
     0
 49
0.0208333333333333
 49
0.0
 49
0.0
 49
0.0
 49
0.0
 49
0.0208333333333333
 49
0.0
 49
0.0
 49
0.0
 49
0.0
 49
1.0
 49
0.0
 49
0.0
 49
0.0
 49
0.0
 49
1.0
175
     0
142
0.0208333333333333
142
0.0
142
0.0
142
0.0
142
0.0
142
0.0208333333333333
142
0.0
142
0.0
142
0.0
142
0.0
142
1.0
142
0.0
142
0.0
142
0.0
142
0.0
142
1.0
179
     0
144
0.0208333333333333
144
0.0
144
0.0
144
0.0
144
0.0
144
0.0208333333333333
144
0.0
144
0.0
144
0.0
144
0.0
144
1.0
144
0.0
144
0.0
144
0.0
144
0.0
144
1.0
147
0.0208333333333333
147
0.0
147
0.0
147
0.0
147
0.0
147
0.0208333333333333
147
0.0
147
0.0
147
0.0
147
0.0
147
1.0
147
0.0
147
0.0
147
0.0
147
0.0
147
1.0
  0
MLINESTYLE
  5
4F
102
{ACAD_REACTORS
330
2C
102
}
330
2C
100
AcDbMlineStyle
  2
STANDARD
 70
     0
  3

 62
   256
 51
90.0
 52
90.0
 71
     2
 49
0.5
 62
   256
  6
BYLAYER
 49
-0.5
 62
   256
  6
BYLAYER
  0
ACDBPLACEHOLDER
  5
5
102
{ACAD_REACTORS
330
6
102
}
330
6
  0
SCALE
  5
54
102
{ACAD_REACTORS
330
3F
102
}
330
3F
100
AcDbScale
 70
     0
300
1:1
140
1.0
141
1.0
290
     1
  0
SCALE
  5
55
102
{ACAD_REACTORS
330
3F
102
}
330
3F
100
AcDbScale
 70
     0
300
1/128" = 1'-0"
140
0.0078125
141
12.0
290
     0
  0
SCALE
  5
56
102
{ACAD_REACTORS
330
3F
102
}
330
3F
100
AcDbScale
 70
     0
300
1/64" = 1'-0"
140
0.015625
141
12.0
290
     0
  0
SCALE
  5
57
102
{ACAD_REACTORS
330
3F
102
}
330
3F
100
AcDbScale
 70
     0
300
1/32" = 1'-0"
140
0.03125
141
12.0
290
     0
  0
SCALE
  5
58
102
{ACAD_REACTORS
330
3F
102
}
330
3F
100
AcDbScale
 70
     0
300
1/16" = 1'-0"
140
0.0625
141
12.0
290
     0
  0
SCALE
  5
59
102
{ACAD_REACTORS
330
3F
102
}
330
3F
100
AcDbScale
 70
     0
300
3/32" = 1'-0"
140
0.09375
141
12.0
290
     0
  0
SCALE
  5
5A
102
{ACAD_REACTORS
330
3F
102
}
330
3F
100
AcDbScale
 70
     0
300
1/8" = 1'-0"
140
0.125
141
12.0
290
     0
  0
SCALE
  5
5B
102
{ACAD_REACTORS
330
3F
102
}
330
3F
100
AcDbScale
 70
     0
300
3/16" = 1'-0"
140
0.1875
141
12.0
290
     0
  0
SCALE
  5
5C
102
{ACAD_REACTORS
330
3F
102
}
330
3F
100
AcDbScale
 70
     0
300
1/4" = 1'-0"
140
0.25
141
12.0
290
     0
  0
SCALE
  5
5D
102
{ACAD_REACTORS
330
3F
102
}
330
3F
100
AcDbScale
 70
     0
300
3/8" = 1'-0"
140
0.375
141
12.0
290
     0
  0
SCALE
  5
5E
102
{ACAD_REACTORS
330
3F
102
}
330
3F
100
AcDbScale
 70
     0
300
1/2" = 1'-0"
140
0.5
141
12.0
290
     0
  0
SCALE
  5
5F
102
{ACAD_REACTORS
330
3F
102
}
330
3F
100
AcDbScale
 70
     0
300
3/4" = 1'-0"
140
0.75
141
12.0
290
     0
  0
SCALE
  5
60
102
{ACAD_REACTORS
330
3F
102
}
330
3F
100
AcDbScale
 70
     0
300
1" = 1'-0"
140
1.0
141
12.0
290
     0
  0
SCALE
  5
61
102
{ACAD_REACTORS
330
3F
102
}
330
3F
100
AcDbScale
 70
     0
300
1-1/2" = 1'-0"
140
1.5
141
12.0
290
     0
  0
SCALE
  5
62
102
{ACAD_REACTORS
330
3F
102
}
330
3F
100
AcDbScale
 70
     0
300
3" = 1'-0"
140
3.0
141
12.0
290
     0
  0
SCALE
  5
63
102
{ACAD_REACTORS
330
3F
102
}
330
3F
100
AcDbScale
 70
     0
300
6" = 1'-0"
140
6.0
141
12.0
290
     0
  0
SCALE
  5
64
102
{ACAD_REACTORS
330
3F
102
}
330
3F
100
AcDbScale
 70
     0
300
1'-0" = 1'-0"
140
12.0
141
12.0
290
     0
  0
TABLESTYLE
  5
50
102
{ACAD_XDICTIONARY
360
216
102
}
102
{ACAD_REACTORS
330
40
102
}
330
40
100
AcDbTableStyle
280
     0
  3
Standard
 70
     0
 71
     0
 40
0.06
 41
0.06
280
     0
281
     0
  7
Standard
140
0.18
170
     2
 62
     0
 63
     7
283
     0
 90
        4
 91
        0
  1

274
    -2
284
     1
 64
     0
275
    -2
285
     1
 65
     0
276
    -2
286
     1
 66
     0
277
    -2
287
     1
 67
     0
278
    -2
288
     1
 68
     0
279
    -2
289
     1
 69
     0
  7
Standard
140
0.25
170
     5
 62
     0
 63
     7
283
     0
 90
        4
 91
        0
  1

274
    -2
284
     1
 64
     0
275
    -2
285
     1
 65
     0
276
    -2
286
     1
 66
     0
277
    -2
287
     1
 67
     0
278
    -2
288
     1
 68
     0
279
    -2
289
     1
 69
     0
  7
Standard
140
0.18
170
     5
 62
     0
 63
     7
283
     0
 90
        4
 91
        0
  1

274
    -2
284
     1
 64
     0
275
    -2
285
     1
 65
     0
276
    -2
286
     1
 66
     0
277
    -2
287
     1
 67
     0
278
    -2
288
     1
 68
     0
279
    -2
289
     1
 69
     0
  0
VISUALSTYLE
  5
24
102
{ACAD_REACTORS
330
25
102
}
330
25
100
AcDbVisualStyle
  2
2dWireframe
 70
     4
177
     3
291
     0
 70
    58
 90
        0
176
     1
 90
        2
176
     1
 90
        0
176
     1
 90
        0
176
     1
 40
0.6
176
     1
 40
30.0
176
     1
 62
     7
420
 16777215
176
     1
 90
        1
176
     1
 90
        4
176
     1
 62
     7
176
     1
 62
   257
176
     1
 90
        1
176
     1
 90
        1
176
     1
 40
1.0
176
     1
 90
        0
176
     1
 62
   257
176
     1
 40
1.0
176
     1
 90
        1
176
     1
 90
        6
176
     1
 90
        2
176
     1
 62
     7
176
     1
 90
        5
176
     1
 90
        0
176
     1
 90
        0
176
     1
290
     0
176
     1
 90
        1
176
     1
 40
0.0
176
     1
 90
        0
176
     1
290
     1
176
     1
290
     1
176
     1
290
     0
176
     1
290
     0
176
     1
290
     0
176
     1
290
     0
176
     1
290
     0
176
     1
290
     0
176
     1
290
     0
176
     1
 90
       50
176
     1
 40
0.0
176
     1
 40
1.0
176
     1
 90
        0
176
     1
 62
    18
420
        0
176
     1
 90
       50
176
     1
 90
        3
176
     1
 62
     5
420
      255
176
     1
290
     0
176
     1
 90
       50
176
     1
 90
       50
176
     1
 90
       50
176
     1
290
     0
176
     1
 90
       50
176
     1
 62
   256
176
     0
 40
1.0
176
     0
 90
        2
176
     1
  1
strokes_ogs.tif
176
     1
290
     0
176
     1
 40
1.0
176
     1
 40
1.0
176
     1
  0
VISUALSTYLE
  5
6F
102
{ACAD_REACTORS
330
25
102
}
330
25
100
AcDbVisualStyle
  2
EdgeColorOff
 70
    22
177
     3
291
     1
 70
    58
 90
        2
176
     0
 90
        2
176
     0
 90
        0
176
     0
 90
        0
176
     0
 40
0.6
176
     0
 40
30.0
176
     0
 62
     7
420
 16777215
176
     0
 90
        1
176
     0
 90
        4
176
     0
 62
     7
176
     0
 62
   257
176
     0
 90
        1
176
     0
 90
        1
176
     0
 40
1.0
176
     0
 90
        8
176
     2
 62
     7
176
     0
 40
1.0
176
     0
 90
        1
176
     0
 90
        6
176
     0
 90
        2
176
     0
 62
     7
176
     0
 90
        5
176
     0
 90
        0
176
     0
 90
        0
176
     0
290
     0
176
     0
 90
        1
176
     0
 40
0.0
176
     0
 90
        0
176
     0
290
     0
176
     0
290
     1
176
     0
290
     1
176
     0
290
     0
176
     0
290
     0
176
     0
290
     0
176
     0
290
     0
176
     0
290
     0
176
     0
290
     0
176
     0
 90
       50
176
     0
 40
0.0
176
     0
 40
1.0
176
     0
 90
        0
176
     0
 62
    18
420
        0
176
     0
 90
       50
176
     0
 90
        3
176
     0
 62
     5
420
      255
176
     0
290
     0
176
     0
 90
       50
176
     0
 90
       50
176
     0
 90
       50
176
     0
290
     0
176
     0
 90
       50
176
     0
 62
   256
176
     0
 40
1.0
176
     0
 90
        2
176
     0
  1
strokes_ogs.tif
176
     0
290
     0
176
     0
 40
1.0
176
     0
 40
1.0
176
     0
  0
VISUALSTYLE
  5
51
102
{ACAD_REACTORS
330
25
102
}
330
25
100
AcDbVisualStyle
  2
Realistic
 70
     8
177
     3
291
     0
 70
    58
 90
        2
176
     1
 90
        3
176
     1
 90
        0
176
     1
 90
        2
176
     1
 40
0.6
176
     1
 40
30.0
176
     1
 62
     7
420
 16777215
176
     1
 90
        0
176
     1
 90
        0
176
     1
 62
     7
176
     1
 62
   257
176
     1
 90
        1
176
     1
 90
        1
176
     1
 40
1.0
176
     1
 90
        8
176
     1
 62
   257
176
     1
 40
1.0
176
     1
 90
        1
176
     1
 90
        6
176
     1
 90
        2
176
     1
 62
     7
176
     1
 90
        3
176
     1
 90
        0
176
     1
 90
        0
176
     1
290
     0
176
     1
 90
       13
176
     1
 40
0.0
176
     1
 90
        0
176
     1
290
     0
176
     1
290
     1
176
     1
290
     1
176
     1
290
     0
176
     1
290
     0
176
     1
290
     0
176
     1
290
     0
176
     1
290
     0
176
     1
290
     0
176
     1
 90
       50
176
     1
 40
0.0
176
     1
 40
1.0
176
     1
 90
        0
176
     1
 62
    18
420
        0
176
     1
 90
       50
176
     1
 90
        3
176
     1
 62
     5
420
      255
176
     1
290
     0
176
     1
 90
       50
176
     1
 90
       50
176
     1
 90
       50
176
     1
290
     0
176
     1
 90
       50
176
     1
 62
   256
176
     0
 40
1.0
176
     0
 90
        2
176
     1
  1
strokes_ogs.tif
176
     1
290
     0
176
     1
 40
1.0
176
     1
 40
1.0
176
     1
  0
VISUALSTYLE
  5
52
102
{ACAD_REACTORS
330
25
102
}
330
25
100
AcDbVisualStyle
  2
Wireframe
 70
     5
177
     3
291
     0
 70
    58
 90
        0
176
     1
 90
        2
176
     1
 90
        0
176
     1
 90
        0
176
     1
 40
0.6
176
     1
 40
30.0
176
     1
 62
     7
420
 16777215
176
     1
 90
        1
176
     1
 90
        4
176
     1
 62
     7
176
     1
 62
   257
176
     1
 90
        1
176
     1
 90
        1
176
     1
 40
1.0
176
     1
 90
        0
176
     1
 62
   257
176
     1
 40
1.0
176
     1
 90
        1
176
     1
 90
        6
176
     1
 90
        2
176
     1
 62
     7
176
     1
 90
        3
176
     1
 90
        0
176
     1
 90
        0
176
     1
290
     0
176
     1
 90
        1
176
     1
 40
0.0
176
     1
 90
        0
176
     1
290
     0
176
     1
290
     1
176
     1
290
     1
176
     1
290
     0
176
     1
290
     0
176
     1
290
     0
176
     1
290
     0
176
     1
290
     0
176
     1
290
     0
176
     1
 90
       50
176
     1
 40
0.0
176
     1
 40
1.0
176
     1
 90
        0
176
     1
 62
    18
420
        0
176
     1
 90
       50
176
     1
 90
        3
176
     1
 62
     5
420
      255
176
     1
290
     0
176
     1
 90
       50
176
     1
 90
       50
176
     1
 90
       50
176
     1
290
     0
176
     1
 90
       50
176
     1
 62
   256
176
     0
 40
1.0
176
     0
 90
        2
176
     1
  1
strokes_ogs.tif
176
     1
290
     0
176
     1
 40
1.0
176
     1
 40
1.0
176
     1
  0
DICTIONARYVAR
  5
43
102
{ACAD_REACTORS
330
42
102
}
330
42
100
DictionaryVariables
280
     0
  1
1:1
  0
DICTIONARYVAR
  5
44
102
{ACAD_REACTORS
330
42
102
}
330
42
100
DictionaryVariables
280
     0
  1
STANDARD
  0
DICTIONARYVAR
  5
45
102
{ACAD_REACTORS
330
42
102
}
330
42
100
DictionaryVariables
280
     0
  1
STANDARD
  0
DICTIONARYVAR
  5
46
102
{ACAD_REACTORS
330
42
102
}
330
42
100
DictionaryVariables
280
     0
  1

  0
DICTIONARYVAR
  5
47
102
{ACAD_REACTORS
330
42
102
}
330
42
100
DictionaryVariables
280
     0
  1

  0
DICTIONARYVAR
  5
48
102
{ACAD_REACTORS
330
42
102
}
330
42
100
DictionaryVariables
280
     0
  1
0
  0
DICTIONARYVAR
  5
49
102
{ACAD_REACTORS
330
42
102
}
330
42
100
DictionaryVariables
280
     0
  1
1
  0
DICTIONARYVAR
  5
4A
102
{ACAD_REACTORS
330
42
102
}
330
42
100
DictionaryVariables
280
     0
  1
1
  0
DICTIONARYVAR
  5
4B
102
{ACAD_REACTORS
330
42
102
}
330
42
100
DictionaryVariables
280
     0
  1
15
  0
DICTIONARYVAR
  5
4C
102
{ACAD_REACTORS
330
42
102
}
330
42
100
DictionaryVariables
280
     0
  1
0
  0
DICTIONARYVAR
  5
4D
102
{ACAD_REACTORS
330
42
102
}
330
42
100
DictionaryVariables
280
     0
  1
0
  0
DICTIONARY
  5
37
330
36
100
AcDbDictionary
280
     1
281
     1
  3
BUMPTILE
360
38
  3
DIFFUSETILE
360
39
  3
OPACITYTILE
360
3A
  3
REFLECTIONTILE
360
3B
  3
REFRACTIONTILE
360
3C
  3
SPECULARTILE
360
3D
  0
DICTIONARY
  5
2F
330
2E
100
AcDbDictionary
280
     1
281
     1
  3
BUMPTILE
360
30
  3
DIFFUSETILE
360
31
  3
OPACITYTILE
360
32
  3
REFLECTIONTILE
360
33
  3
REFRACTIONTILE
360
34
  3
SPECULARTILE
360
35
  0
DICTIONARY
  5
A
330
8
100
AcDbDictionary
280
     1
281
     1
  3
BUMPTILE
360
B
  3
DIFFUSETILE
360
C
  3
OPACITYTILE
360
D
  3
REFLECTIONTILE
360
E
  3
REFRACTIONTILE
360
F
  3
SPECULARTILE
360
10
  0
DICTIONARY
  5
216
330
50
100
AcDbDictionary
280
     1
281
     1
  3
ACAD_ROUNDTRIP_2008_TABLESTYLE_CELLSTYLEMAP
360
217
  0
XRECORD
  5
38
102
{ACAD_REACTORS
330
37
102
}
330
37
100
AcDbXrecord
280
     1
270
     1
271
     1
  0
XRECORD
  5
39
102
{ACAD_REACTORS
330
37
102
}
330
37
100
AcDbXrecord
280
     1
270
     1
271
     1
  0
XRECORD
  5
3A
102
{ACAD_REACTORS
330
37
102
}
330
37
100
AcDbXrecord
280
     1
270
     1
271
     1
  0
XRECORD
  5
3B
102
{ACAD_REACTORS
330
37
102
}
330
37
100
AcDbXrecord
280
     1
270
     1
271
     1
  0
XRECORD
  5
3C
102
{ACAD_REACTORS
330
37
102
}
330
37
100
AcDbXrecord
280
     1
270
     1
271
     1
  0
XRECORD
  5
3D
102
{ACAD_REACTORS
330
37
102
}
330
37
100
AcDbXrecord
280
     1
270
     1
271
     1
  0
XRECORD
  5
30
102
{ACAD_REACTORS
330
2F
102
}
330
2F
100
AcDbXrecord
280
     1
270
     1
271
     1
  0
XRECORD
  5
31
102
{ACAD_REACTORS
330
2F
102
}
330
2F
100
AcDbXrecord
280
     1
270
     1
271
     1
  0
XRECORD
  5
32
102
{ACAD_REACTORS
330
2F
102
}
330
2F
100
AcDbXrecord
280
     1
270
     1
271
     1
  0
XRECORD
  5
33
102
{ACAD_REACTORS
330
2F
102
}
330
2F
100
AcDbXrecord
280
     1
270
     1
271
     1
  0
XRECORD
  5
34
102
{ACAD_REACTORS
330
2F
102
}
330
2F
100
AcDbXrecord
280
     1
270
     1
271
     1
  0
XRECORD
  5
35
102
{ACAD_REACTORS
330
2F
102
}
330
2F
100
AcDbXrecord
280
     1
270
     1
271
     1
  0
XRECORD
  5
B
102
{ACAD_REACTORS
330
A
102
}
330
A
100
AcDbXrecord
280
     1
270
     1
271
     1
  0
XRECORD
  5
C
102
{ACAD_REACTORS
330
A
102
}
330
A
100
AcDbXrecord
280
     1
270
     1
271
     1
  0
XRECORD
  5
D
102
{ACAD_REACTORS
330
A
102
}
330
A
100
AcDbXrecord
280
     1
270
     1
271
     1
  0
XRECORD
  5
E
102
{ACAD_REACTORS
330
A
102
}
330
A
100
AcDbXrecord
280
     1
270
     1
271
     1
  0
XRECORD
  5
F
102
{ACAD_REACTORS
330
A
102
}
330
A
100
AcDbXrecord
280
     1
270
     1
271
     1
  0
XRECORD
  5
10
102
{ACAD_REACTORS
330
A
102
}
330
A
100
AcDbXrecord
280
     1
270
     1
271
     1
  0
CELLSTYLEMAP
  5
217
102
{ACAD_REACTORS
330
216
102
}
330
216
100
AcDbCellStyleMap
 90
        3
300
CELLSTYLE
  1
TABLEFORMAT_BEGIN
 90
        5
170
     1
 91
        0
 92
    32768
 62
   257
 93
        1
300
CONTENTFORMAT
  1
CONTENTFORMAT_BEGIN
 90
        0
 91
        0
 92
        4
 93
        0
300

 40
0.0
140
1.0
 94
        5
 62
     0
340
1B
144
0.25
309
CONTENTFORMAT_END
171
     0
 94
        6
 95
        1
302
GRIDFORMAT
  1
GRIDFORMAT_BEGIN
 90
        0
 91
        1
 62
     0
 92
       -2
340
0
 93
        0
 40
0.045
309
GRIDFORMAT_END
 95
        2
302
GRIDFORMAT
  1
GRIDFORMAT_BEGIN
 90
        0
 91
        1
 62
     0
 92
       -2
340
0
 93
        0
 40
0.045
309
GRIDFORMAT_END
 95
        4
302
GRIDFORMAT
  1
GRIDFORMAT_BEGIN
 90
        0
 91
        1
 62
     0
 92
       -2
340
0
 93
        0
 40
0.045
309
GRIDFORMAT_END
 95
        8
302
GRIDFORMAT
  1
GRIDFORMAT_BEGIN
 90
        0
 91
        1
 62
     0
 92
       -2
340
0
 93
        0
 40
0.045
309
GRIDFORMAT_END
 95
       16
302
GRIDFORMAT
  1
GRIDFORMAT_BEGIN
 90
        0
 91
        1
 62
     0
 92
       -2
340
0
 93
        0
 40
0.045
309
GRIDFORMAT_END
 95
       32
302
GRIDFORMAT
  1
GRIDFORMAT_BEGIN
 90
        0
 91
        1
 62
     0
 92
       -2
340
0
 93
        0
 40
0.045
309
GRIDFORMAT_END
309
TABLEFORMAT_END
  1
CELLSTYLE_BEGIN
 90
        1
 91
        1
300
_TITLE
309
CELLSTYLE_END
300
CELLSTYLE
  1
TABLEFORMAT_BEGIN
 90
        5
170
     1
 91
        0
 92
        0
 62
   257
 93
        1
300
CONTENTFORMAT
  1
CONTENTFORMAT_BEGIN
 90
        0
 91
        0
 92
        4
 93
        0
300

 40
0.0
140
1.0
 94
        5
 62
     0
340
1B
144
0.18
309
CONTENTFORMAT_END
171
     0
 94
        6
 95
        1
302
GRIDFORMAT
  1
GRIDFORMAT_BEGIN
 90
        0
 91
        1
 62
     0
 92
       -2
340
0
 93
        0
 40
0.045
309
GRIDFORMAT_END
 95
        2
302
GRIDFORMAT
  1
GRIDFORMAT_BEGIN
 90
        0
 91
        1
 62
     0
 92
       -2
340
0
 93
        0
 40
0.045
309
GRIDFORMAT_END
 95
        4
302
GRIDFORMAT
  1
GRIDFORMAT_BEGIN
 90
        0
 91
        1
 62
     0
 92
       -2
340
0
 93
        0
 40
0.045
309
GRIDFORMAT_END
 95
        8
302
GRIDFORMAT
  1
GRIDFORMAT_BEGIN
 90
        0
 91
        1
 62
     0
 92
       -2
340
0
 93
        0
 40
0.045
309
GRIDFORMAT_END
 95
       16
302
GRIDFORMAT
  1
GRIDFORMAT_BEGIN
 90
        0
 91
        1
 62
     0
 92
       -2
340
0
 93
        0
 40
0.045
309
GRIDFORMAT_END
 95
       32
302
GRIDFORMAT
  1
GRIDFORMAT_BEGIN
 90
        0
 91
        1
 62
     0
 92
       -2
340
0
 93
        0
 40
0.045
309
GRIDFORMAT_END
309
TABLEFORMAT_END
  1
CELLSTYLE_BEGIN
 90
        2
 91
        1
300
_HEADER
309
CELLSTYLE_END
300
CELLSTYLE
  1
TABLEFORMAT_BEGIN
 90
        5
170
     1
 91
        0
 92
        0
 62
   257
 93
        1
300
CONTENTFORMAT
  1
CONTENTFORMAT_BEGIN
 90
        0
 91
        0
 92
        4
 93
        0
300

 40
0.0
140
1.0
 94
        2
 62
     0
340
1B
144
0.18
309
CONTENTFORMAT_END
171
     0
 94
        6
 95
        1
302
GRIDFORMAT
  1
GRIDFORMAT_BEGIN
 90
        0
 91
        1
 62
     0
 92
       -2
340
0
 93
        0
 40
0.045
309
GRIDFORMAT_END
 95
        2
302
GRIDFORMAT
  1
GRIDFORMAT_BEGIN
 90
        0
 91
        1
 62
     0
 92
       -2
340
0
 93
        0
 40
0.045
309
GRIDFORMAT_END
 95
        4
302
GRIDFORMAT
  1
GRIDFORMAT_BEGIN
 90
        0
 91
        1
 62
     0
 92
       -2
340
0
 93
        0
 40
0.045
309
GRIDFORMAT_END
 95
        8
302
GRIDFORMAT
  1
GRIDFORMAT_BEGIN
 90
        0
 91
        1
 62
     0
 92
       -2
340
0
 93
        0
 40
0.045
309
GRIDFORMAT_END
 95
       16
302
GRIDFORMAT
  1
GRIDFORMAT_BEGIN
 90
        0
 91
        1
 62
     0
 92
       -2
340
0
 93
        0
 40
0.045
309
GRIDFORMAT_END
 95
       32
302
GRIDFORMAT
  1
GRIDFORMAT_BEGIN
 90
        0
 91
        1
 62
     0
 92
       -2
340
0
 93
        0
 40
0.045
309
GRIDFORMAT_END
309
TABLEFORMAT_END
  1
CELLSTYLE_BEGIN
 90
        3
 91
        2
300
_DATA
309
CELLSTYLE_END
  0
ENDSEC
  0
EOF
