  0
SECTION
  2
HEADER
  9
$ACADVER
  1
AC1032
  9
$ACADMAINTVER
 90
      248
  9
$DWGCODEPAGE
  3
ANSI_936
  9
$REQUIREDVERSIONS
160
                 0
  9
$INSBASE
 10
0.0
 20
0.0
 30
0.0
  9
$EXTMIN
 10
-166.7559303934937
 20
-111.4908763448728
 30
0.0
  9
$EXTMAX
 10
-48.00679180089028
 20
-17.40109191035304
 30
0.0
  9
$LIMMIN
 10
0.0
 20
0.0
  9
$LIMMAX
 10
12.0
 20
9.0
  9
$ORTHOMODE
 70
     0
  9
$REGENMODE
 70
     1
  9
$FILLMODE
 70
     1
  9
$QTEXTMODE
 70
     0
  9
$MIRRTEXT
 70
     0
  9
$LTSCALE
 40
0.8
  9
$ATTMODE
 70
     1
  9
$TEXTSIZE
 40
0.2
  9
$TRACEWID
 40
0.05
  9
$TEXTSTYLE
  7
Standard
  9
$CLAYER
  8
1D
  9
$CELTYPE
  6
BYLAYER
  9
$CECOLOR
 62
   256
  9
$CELTSCALE
 40
1.0
  9
$DISPSILH
 70
     0
  9
$DIMSCALE
 40
1.0
  9
$DIMASZ
 40
0.5600000000000001
  9
$DIMEXO
 40
0.17
  9
$DIMDLI
 40
0.38
  9
$DIMRND
 40
0.0
  9
$DIMDLE
 40
0.0
  9
$DIMEXE
 40
0.17
  9
$DIMTP
 40
0.038
  9
$DIMTM
 40
0.025
  9
$DIMTXT
 40
0.5600000000000001
  9
$DIMCEN
 40
0.25
  9
$DIMTSZ
 40
0.0
  9
$DIMTOL
 70
     0
  9
$DIMLIM
 70
     0
  9
$DIMTIH
 70
     0
  9
$DIMTOH
 70
     0
  9
$DIMSE1
 70
     0
  9
$DIMSE2
 70
     0
  9
$DIMTAD
 70
     0
  9
$DIMZIN
 70
     4
  9
$DIMBLK
  1

  9
$DIMASO
 70
     0
  9
$DIMSHO
 70
     1
  9
$DIMPOST
  1

  9
$DIMAPOST
  1

  9
$DIMALT
 70
     0
  9
$DIMALTD
 70
     2
  9
$DIMALTF
 40
25.4
  9
$DIMLFAC
 40
1.0
  9
$DIMTOFL
 70
     0
  9
$DIMTVP
 40
0.0
  9
$DIMTIX
 70
     0
  9
$DIMSOXD
 70
     0
  9
$DIMSAH
 70
     0
  9
$DIMBLK1
  1

  9
$DIMBLK2
  1

  9
$DIMSTYLE
  2
Standard
  9
$DIMCLRD
 70
     0
  9
$DIMCLRE
 70
     0
  9
$DIMCLRT
 70
     0
  9
$DIMTFAC
 40
0.8
  9
$DIMGAP
 40
0.17
  9
$DIMJUST
 70
     0
  9
$DIMSD1
 70
     0
  9
$DIMSD2
 70
     0
  9
$DIMTOLJ
 70
     1
  9
$DIMTZIN
 70
     4
  9
$DIMALTZ
 70
     0
  9
$DIMALTTZ
 70
     0
  9
$DIMUPT
 70
     0
  9
$DIMDEC
 70
     3
  9
$DIMTDEC
 70
     3
  9
$DIMALTU
 70
     2
  9
$DIMALTTD
 70
     2
  9
$DIMTXSTY
  7
SIMPLEX
  9
$DIMAUNIT
 70
     0
  9
$DIMADEC
 70
     0
  9
$DIMALTRND
 40
0.0
  9
$DIMAZIN
 70
     0
  9
$DIMDSEP
 70
    46
  9
$DIMATFIT
 70
     3
  9
$DIMFRAC
 70
     0
  9
$DIMLDRBLK
  1

  9
$DIMLUNIT
 70
     2
  9
$DIMLWD
 70
    -2
  9
$DIMLWE
 70
    -2
  9
$DIMTMOVE
 70
     0
  9
$DIMFXL
 40
1.0
  9
$DIMFXLON
 70
     0
  9
$DIMJOGANG
 40
0.7853981633974483
  9
$DIMTFILL
 70
     0
  9
$DIMTFILLCLR
 70
     0
  9
$DIMARCSYM
 70
     0
  9
$DIMLTYPE
  6

  9
$DIMLTEX1
  6

  9
$DIMLTEX2
  6

  9
$DIMTXTDIRECTION
 70
     0
  9
$LUNITS
 70
     2
  9
$LUPREC
 70
     8
  9
$SKETCHINC
 40
0.1
  9
$FILLETRAD
 40
0.0
  9
$AUNITS
 70
     0
  9
$AUPREC
 70
     0
  9
$MENU
  1
.
  9
$ELEVATION
 40
0.0
  9
$PELEVATION
 40
0.0
  9
$THICKNESS
 40
0.0
  9
$LIMCHECK
 70
     0
  9
$CHAMFERA
 40
0.0
  9
$CHAMFERB
 40
0.0
  9
$CHAMFERC
 40
0.6240000000000001
  9
$CHAMFERD
 40
0.5235987755982988
  9
$SKPOLY
 70
     0
  9
$TDCREATE
 40
2452836.450532408
  9
$TDUCREATE
 40
2452836.117205243
  9
$TDUPDATE
 40
2460607.483020833
  9
$TDUUPDATE
 40
2460607.149687501
  9
$TDINDWG
 40
2.4044317130
  9
$TDUSRTIMER
 40
2.4042232292
  9
$USRTIMER
 70
     1
  9
$ANGBASE
 50
0.0
  9
$ANGDIR
 70
     0
  9
$PDMODE
 70
     0
  9
$PDSIZE
 40
0.0
  9
$PLINEWID
 40
0.0
  9
$SPLFRAME
 70
     0
  9
$SPLINETYPE
 70
     6
  9
$SPLINESEGS
 70
     8
  9
$HANDSEED
  5
1EF
  9
$SURFTAB1
 70
     6
  9
$SURFTAB2
 70
     6
  9
$SURFTYPE
 70
     6
  9
$SURFU
 70
     6
  9
$SURFV
 70
     6
  9
$UCSBASE
  2

  9
$UCSNAME
  2

  9
$UCSORG
 10
0.0
 20
0.0
 30
0.0
  9
$UCSXDIR
 10
1.0
 20
0.0
 30
0.0
  9
$UCSYDIR
 10
0.0
 20
1.0
 30
0.0
  9
$UCSORTHOREF
  2

  9
$UCSORTHOVIEW
 70
     0
  9
$UCSORGTOP
 10
0.0
 20
0.0
 30
0.0
  9
$UCSORGBOTTOM
 10
0.0
 20
0.0
 30
0.0
  9
$UCSORGLEFT
 10
0.0
 20
0.0
 30
0.0
  9
$UCSORGRIGHT
 10
0.0
 20
0.0
 30
0.0
  9
$UCSORGFRONT
 10
0.0
 20
0.0
 30
0.0
  9
$UCSORGBACK
 10
0.0
 20
0.0
 30
0.0
  9
$PUCSBASE
  2

  9
$PUCSNAME
  2

  9
$PUCSORG
 10
0.0
 20
0.0
 30
0.0
  9
$PUCSXDIR
 10
1.0
 20
0.0
 30
0.0
  9
$PUCSYDIR
 10
0.0
 20
1.0
 30
0.0
  9
$PUCSORTHOREF
  2

  9
$PUCSORTHOVIEW
 70
     0
  9
$PUCSORGTOP
 10
0.0
 20
0.0
 30
0.0
  9
$PUCSORGBOTTOM
 10
0.0
 20
0.0
 30
0.0
  9
$PUCSORGLEFT
 10
0.0
 20
0.0
 30
0.0
  9
$PUCSORGRIGHT
 10
0.0
 20
0.0
 30
0.0
  9
$PUCSORGFRONT
 10
0.0
 20
0.0
 30
0.0
  9
$PUCSORGBACK
 10
0.0
 20
0.0
 30
0.0
  9
$USERI1
 70
     0
  9
$USERI2
 70
     0
  9
$USERI3
 70
     0
  9
$USERI4
 70
     0
  9
$USERI5
 70
     0
  9
$USERR1
 40
0.0
  9
$USERR2
 40
0.0
  9
$USERR3
 40
0.0
  9
$USERR4
 40
0.0
  9
$USERR5
 40
0.0
  9
$WORLDVIEW
 70
     1
  9
$SHADEDGE
 70
     3
  9
$SHADEDIF
 70
    70
  9
$TILEMODE
 70
     1
  9
$MAXACTVP
 70
    48
  9
$PINSBASE
 10
0.0
 20
0.0
 30
0.0
  9
$PLIMCHECK
 70
     0
  9
$PEXTMIN
 10
1.000000000000000E+20
 20
1.000000000000000E+20
 30
1.000000000000000E+20
  9
$PEXTMAX
 10
-1.000000000000000E+20
 20
-1.000000000000000E+20
 30
-1.000000000000000E+20
  9
$PLIMMIN
 10
0.0
 20
0.0
  9
$PLIMMAX
 10
12.0
 20
9.0
  9
$UNITMODE
 70
     0
  9
$VISRETAIN
 70
     1
  9
$PLINEGEN
 70
     0
  9
$PSLTSCALE
 70
     1
  9
$TREEDEPTH
 70
  3020
  9
$CMLSTYLE
  2
STANDARD
  9
$CMLJUST
 70
     0
  9
$CMLSCALE
 40
1.0
  9
$PROXYGRAPHICS
 70
     1
  9
$MEASUREMENT
 70
     0
  9
$CELWEIGHT
370
    -1
  9
$ENDCAPS
280
     0
  9
$JOINSTYLE
280
     0
  9
$LWDISPLAY
290
     0
  9
$INSUNITS
 70
     0
  9
$HYPERLINKBASE
  1

  9
$STYLESHEET
  1

  9
$XEDIT
290
     1
  9
$CEPSNTYPE
380
     0
  9
$PSTYLEMODE
290
     1
  9
$FINGERPRINTGUID
  2
{FA1CDAC9-79D9-D94A-8A41-590DB3D526DB}
  9
$VERSIONGUID
  2
{662D0C48-A3B5-44ED-8AD1-2D30035A8C37}
  9
$EXTNAMES
290
     1
  9
$PSVPSCALE
 40
0.0
  9
$OLESTARTUP
290
     0
  9
$SORTENTS
280
   127
  9
$INDEXCTL
280
     0
  9
$HIDETEXT
280
     1
  9
$XCLIPFRAME
280
     2
  9
$HALOGAP
280
     0
  9
$OBSCOLOR
 70
   257
  9
$OBSLTYPE
280
     0
  9
$INTERSECTIONDISPLAY
280
     0
  9
$INTERSECTIONCOLOR
 70
   257
  9
$DIMASSOC
280
     0
  9
$PROJECTNAME
  1

  9
$CAMERADISPLAY
290
     0
  9
$LENSLENGTH
 40
50.0
  9
$CAMERAHEIGHT
 40
0.0
  9
$STEPSPERSEC
 40
2.0
  9
$STEPSIZE
 40
6.0
  9
$3DDWFPREC
 40
2.0
  9
$PSOLWIDTH
 40
0.25
  9
$PSOLHEIGHT
 40
4.0
  9
$LOFTANG1
 40
1.570796326794896
  9
$LOFTANG2
 40
1.570796326794896
  9
$LOFTMAG1
 40
0.0
  9
$LOFTMAG2
 40
0.0
  9
$LOFTPARAM
 70
     7
  9
$LOFTNORMALS
280
     1
  9
$LATITUDE
 40
37.795
  9
$LONGITUDE
 40
-122.394
  9
$NORTHDIRECTION
 40
0.0
  9
$TIMEZONE
 70
 -8000
  9
$LIGHTGLYPHDISPLAY
280
     1
  9
$TILEMODELIGHTSYNCH
280
     1
  9
$CMATERIAL
347
34
  9
$SOLIDHIST
280
     0
  9
$SHOWHIST
280
     1
  9
$DWFFRAME
280
     2
  9
$DGNFRAME
280
     0
  9
$REALWORLDSCALE
290
     1
  9
$INTERFERECOLOR
 62
     1
  9
$INTERFEREOBJVS
345
5E
  9
$INTERFEREVPVS
346
5F
  9
$CSHADOW
280
     0
  9
$SHADOWPLANELOCATION
 40
0.0
  0
ENDSEC
  0
SECTION
  2
CLASSES
  0
CLASS
  1
ACDBDICTIONARYWDFLT
  2
AcDbDictionaryWithDefault
  3
ObjectDBX Classes
 90
        0
 91
        1
280
     0
281
     0
  0
CLASS
  1
DICTIONARYVAR
  2
AcDbDictionaryVar
  3
ObjectDBX Classes
 90
        0
 91
       14
280
     0
281
     0
  0
CLASS
  1
ACME_DOCUMENT
  2
AcMeDbDoc
  3
AcMeServices
 90
        0
 91
        0
280
     1
281
     0
  0
CLASS
  1
AMGSETTINGSOBJ
  2
AmgSettingsObj
  3
"AcadM|Product Description: AutoCAD Mechanical 2000|Company: Autodesk"
 90
        0
 91
        0
280
     1
281
     0
  0
CLASS
  1
ACMESCOPE
  2
AcMeScope
  3
AcMeServices
 90
        0
 91
        0
280
     1
281
     0
  0
CLASS
  1
ACMECOMMANDHISTORY
  2
AcMeCommandHistory
  3
AcMeServices
 90
        0
 91
        0
280
     1
281
     0
  0
CLASS
  1
ACIMSYSVARMAN
  2
AcImSysVarManager
  3
AcMeServices
 90
        0
 91
        0
280
     1
281
     0
  0
CLASS
  1
ACIMREALSYSVAR
  2
AcImRealSysVar
  3
AcMeServices
 90
        0
 91
        0
280
     1
281
     0
  0
CLASS
  1
ACIMINTSYSVAR
  2
AcImIntSysVar
  3
AcMeServices
 90
        0
 91
        0
280
     1
281
     0
  0
CLASS
  1
ACMEDRAWINGMAN
  2
AcMeDrawingMan
  3
AcMeServices
 90
        0
 91
        0
280
     1
281
     0
  0
CLASS
  1
ACMEVIEW
  2
AcMeView
  3
AcMeServices
 90
        0
 91
        0
280
     1
281
     0
  0
CLASS
  1
ACDBENTITYCACHE
  2
AcMeEntityCache
  3
AcMeServices
 90
        0
 91
        0
280
     1
281
     0
  0
CLASS
  1
GSMANAGER
  2
AcMeGSManager
  3
AcMeServices
 90
        0
 91
        0
280
     1
281
     0
  0
CLASS
  1
AMDTINTERNALREACTOR
  2
AmdtInternalReactor
  3
AcMeServices
 90
        0
 91
        0
280
     1
281
     0
  0
CLASS
  1
ACMESTATEMGR
  2
AcMeStateMgr
  3
AcMeServices
 90
        0
 91
        0
280
     1
281
     0
  0
CLASS
  1
ACGREFMASTER
  2
AcGrefMaster
  3
AcAttribServices
 90
        0
 91
        0
280
     1
281
     0
  0
CLASS
  1
AM_DRAWING_MGR
  2
AcDmDwgMgr
  3
AcMechDwgViewMgmt
 90
        0
 91
        0
280
     1
281
     0
  0
CLASS
  1
AM_DWG_DOCUMENT
  2
AcDmDwgDocument
  3
AcMechDwgViewMgmt
 90
        0
 91
        0
280
     1
281
     0
  0
CLASS
  1
AM_DWG_SHEET
  2
AcDmSheet
  3
AcMechDwgViewMgmt
 90
        0
 91
        0
280
     1
281
     0
  0
CLASS
  1
AM_VIEWDIMPARMAP
  2
AcDmViewDimParMap
  3
AcMechDwgViewMgmt
 90
        0
 91
        0
280
     1
281
     0
  0
CLASS
  1
AM_DWGMGR_NAME
  2
AcDmDwgMgrName
  3
AcMechDwgViewMgmt
 90
        0
 91
        0
280
     1
281
     0
  0
CLASS
  1
ACME_DATABASE
  2
AcMeDbDatabase
  3
AcMeServices
 90
        0
 91
        0
280
     1
281
     0
  0
CLASS
  1
ACRFINSADJUSTERMGR
  2
AcRfInsAdjusterMgr
  3
AcMeServices
 90
        0
 91
        0
280
     1
281
     0
  0
CLASS
  1
ACGREFMASTER
  2
AcGrefacadMaster
  3
AcGrefServices
 90
        0
 91
        0
280
     1
281
     0
  0
CLASS
  1
AMDTMENUSTATEMGR
  2
AmdtMenuStateMgr
  3
McadcomServices
 90
        0
 91
        0
280
     1
281
     0
  0
CLASS
  1
AMDTMCOMMENUSTATE
  2
AmdtMcomMenuState
  3
McadcomServices
 90
        0
 91
        0
280
     1
281
     0
  0
CLASS
  1
AMIMASTER
  2
AmiMaster
  3
AmiServices
 90
        0
 91
        0
280
     1
281
     0
  0
CLASS
  1
ASAPP
  2
AcAsAppObject
  3
AutoSurfServices
 90
        0
 91
        0
280
     1
281
     0
  0
CLASS
  1
IM_STATIC_MAN
  2
AcImStaticVarManager
  3
AcMeServices
 90
        0
 91
        0
280
     1
281
     0
  0
CLASS
  1
ACIMSTRSYSVAR
  2
AcImStrSysVar
  3
AcMeServices
 90
        0
 91
        0
280
     1
281
     0
  0
CLASS
  1
ACIMDBLSTATICVAR
  2
AcImDblStaticVar
  3
AcMeServices
 90
        0
 91
        0
280
     1
281
     0
  0
CLASS
  1
ACIMSTRSTATICVAR
  2
AcImStrStaticVar
  3
AcMeServices
 90
        0
 91
        0
280
     1
281
     0
  0
CLASS
  1
ACIMINTSTATICVAR
  2
AcImIntStaticVar
  3
AcMeServices
 90
        0
 91
        0
280
     1
281
     0
  0
CLASS
  1
ACASGREFMASTER
  2
AcAsGrefMaster
  3
AutoSurfResolverServices
 90
        0
 91
        0
280
     1
281
     0
  0
CLASS
  1
ACADGREFMODULE
  2
AcAdGrefModule
  3
AdGrefServices
 90
        0
 91
        0
280
     1
281
     0
  0
CLASS
  1
AMDTMAPISURFMOUDULE
  2
AmdtMApiSurfModule
  3
MApiSurfServices
 90
        0
 91
        0
280
     1
281
     0
  0
CLASS
  1
MAPIAMMOUDLE
  2
MApiAmModule
  3
MApiAmServices
 90
        0
 91
        0
280
     1
281
     0
  0
CLASS
  1
AMDTADMENUSTATE
  2
AmdtAdMenuState
  3
DesignerServices
 90
        0
 91
        0
280
     1
281
     0
  0
CLASS
  1
ADAPPL
  2
AcAdAppl
  3
DesignerServices
 90
        0
 91
        0
280
     1
281
     0
  0
CLASS
  1
DEPMGR
  2
AcAdDepMgr
  3
DesignerServices
 90
        0
 91
        0
280
     1
281
     0
  0
CLASS
  1
PARAMMGR
  2
AcAdParamMgr
  3
DesignerServices
 90
        0
 91
        0
280
     1
281
     0
  0
CLASS
  1
PARAMSCOPE
  2
AcAdParamScope
  3
DesignerServices
 90
        0
 91
        0
280
     1
281
     0
  0
CLASS
  1
NAMEDAPPL
  2
AcAdNamedAppl
  3
DesignerServices
 90
        0
 91
        0
280
     1
281
     0
  0
CLASS
  1
ADHNTMPLT
  2
AdHoleNoteTemplateMgr
  3
DesignerServices
 90
        0
 91
        0
280
     1
281
     0
  0
CLASS
  1
AM_HNTEMPLATE_MGR_NAME
  2
AdHoleNoteTemplateMgrName
  3
DesignerServices
 90
        0
 91
        0
280
     1
281
     0
  0
CLASS
  1
AMDTDMMENUSTATE
  2
AmdtDmMenuState
  3
AcMechDwgViewMgmt
 90
        0
 91
        0
280
     1
281
     0
  0
CLASS
  1
MAPIADMODULE
  2
MApiAdModule
  3
MApiAdServices
 90
        0
 91
        0
280
     1
281
     0
  0
CLASS
  1
AMDTAMMENUSTATE
  2
AmdtAmMenuState
  3
DesignerAssemblies
 90
        0
 91
        0
280
     1
281
     0
  0
CLASS
  1
ACAMPROJECT
  2
AcAmProject
  3
DesignerAssemblies
 90
        0
 91
        0
280
     1
281
     0
  0
CLASS
  1
ACAMGRCOMPDEF
  2
AcAmGrCompDef
  3
DesignerAssemblies
 90
        0
 91
        0
280
     1
281
     0
  0
CLASS
  1
ACCMCONTEXT
  2
AcCmContext
  3
DesignerAssemblies
 90
        0
 91
        0
280
     1
281
     0
  0
CLASS
  1
ACAMCOMPDEF
  2
AcAmCompDef
  3
DesignerAssemblies
 90
        0
 91
        0
280
     1
281
     0
  0
CLASS
  1
ACAMCOMPDEFMGR
  2
AcAmCompDefMgr
  3
DesignerAssemblies
 90
        0
 91
        0
280
     1
281
     0
  0
CLASS
  1
AMCONTEXTMGR
  2
AcAmContextMgr
  3
DesignerAssemblies
 90
        0
 91
        0
280
     1
281
     0
  0
CLASS
  1
ACAMCONTEXTMODELER
  2
AcAmContextModeler
  3
DesignerAssemblies
 90
        0
 91
        0
280
     1
281
     0
  0
CLASS
  1
ACMDATADICTIONARY
  2
AcmDataDictionary
  3
"AcmSymBB|Product Description: AutoCAD Mechanical 2000|Company: Autodesk"
 90
        0
 91
        0
280
     1
281
     0
  0
CLASS
  1
ACMDATAENTRYBLOCK
  2
AcmDataEntryBlock
  3
"AcmSymBB|Product Description: AutoCAD Mechanical 2000|Company: Autodesk"
 90
        0
 91
        0
280
     1
281
     0
  0
CLASS
  1
CATALOGSTATE
  2
AcAmCatalogState
  3
DesignerAssemblies
 90
        0
 91
        0
280
     1
281
     0
  0
CLASS
  1
ACAMGRCOMPDEFSET
  2
AcAmGrCompDefSet
  3
DesignerAssemblies
 90
        0
 91
        0
280
     1
281
     0
  0
CLASS
  1
AMDTBROWSERDBTAB
  2
AmdtBrowserDbTab
  3
McadcomServices
 90
        0
 91
        0
280
     1
281
     0
  0
CLASS
  1
CBROWSERAPPOBJECT
  2
CBrowserAppObject
  3
McadcomServices
 90
        0
 91
        0
280
     1
281
     0
  0
CLASS
  1
DM_PLACEHOLDER
  2
AcDmSelsetPlaceholder
  3
AcMechDwgViewMgmt
 90
        0
 91
        0
280
     1
281
     0
  0
CLASS
  1
ACMSTANDARDANSI
  2
AcmStandardANSI
  3
"Amdt_StdImp|Product Description: AutoCAD Mechanical 2000|Company: Autodesk"
 90
        0
 91
        0
280
     1
281
     0
  0
CLASS
  1
AMGOBJPROPCFG
  2
AmgObjPropCfg
  3
"AmgLay|Product Description: AutoCAD Mechanical 2000|Company: Autodesk"
 90
        1
 91
        0
280
     1
281
     0
  0
CLASS
  1
ACMSURFSTANDARDANSI
  2
AcmSurfTextStdANSI
  3
"Amdt_StdImp|Product Description: AutoCAD Mechanical 2000|Company: Autodesk"
 90
        0
 91
        0
280
     1
281
     0
  0
CLASS
  1
ACMFCFSTANDARDANSI
  2
AcmFCFStdANSI
  3
"Amdt_StdImp|Product Description: AutoCAD Mechanical 2000|Company: Autodesk"
 90
        0
 91
        0
280
     1
281
     0
  0
CLASS
  1
ACMWELDSTANDARDANSI
  2
AcmWeldingStdANSI
  3
"Amdt_StdImp|Product Description: AutoCAD Mechanical 2000|Company: Autodesk"
 90
        0
 91
        0
280
     1
281
     0
  0
CLASS
  1
ACMIDSTANDARDANSI
  2
AcmIdStdANSI
  3
"Amdt_StdImp|Product Description: AutoCAD Mechanical 2000|Company: Autodesk"
 90
        0
 91
        0
280
     1
281
     0
  0
CLASS
  1
ACMDATUMSTANDARDANSI
  2
AcmDatumStdANSI
  3
"Amdt_StdImp|Product Description: AutoCAD Mechanical 2000|Company: Autodesk"
 90
        0
 91
        0
280
     1
281
     0
  0
CLASS
  1
ACMBOMSTANDARDANSI
  2
AcmBOMStdANSI
  3
"Amdt_StdImp|Product Description: AutoCAD Mechanical 2000|Company: Autodesk"
 90
        0
 91
        0
280
     1
281
     0
  0
CLASS
  1
ACMDETAILSTANDARDANSI
  2
AmdtDetailSymStdANSI
  3
"Amdt_StdImp|Product Description: AutoCAD Mechanical 2000|Company: Autodesk"
 90
        0
 91
        0
280
     1
281
     0
  0
CLASS
  1
ACMSECTIONSTANDARDANSI
  2
AmdtSectionSymStdANSI
  3
"Amdt_StdImp|Product Description: AutoCAD Mechanical 2000|Company: Autodesk"
 90
        0
 91
        0
280
     1
281
     0
  0
CLASS
  1
ACMCENTERLINESTANDARDANSI
  2
AmdtCenterLineStdANSI
  3
"Amdt_StdImp|Product Description: AutoCAD Mechanical 2000|Company: Autodesk"
 90
        0
 91
        0
280
     1
281
     0
  0
CLASS
  1
ACMTHREADLINESTANDARDCSN
  2
AmdtThreadLineStdCSN
  3
"Amdt_StdImp|Product Description: AutoCAD Mechanical 2000|Company: Autodesk"
 90
        0
 91
        0
280
     1
281
     0
  0
CLASS
  1
"AcAmgLayStd"
  2
AcAmgLayStd
  3
"AcAmgLayStd|Product Description: AutoCAD Mechanical 2000|Company: Autodesk"
 90
        0
 91
        0
280
     1
281
     0
  0
CLASS
  1
"AcAmgDimStd"
  2
AcAmgDimStd
  3
"AcAmgDimStd|Product Description: AutoCAD Mechanical 2000|Company: Autodesk"
 90
        0
 91
        0
280
     1
281
     0
  0
CLASS
  1
AcAmgTitleStd
  2
AcAmgTitleStd
  3
"TITLEAPP"
 90
        0
 91
        0
280
     1
281
     0
  0
CLASS
  1
ACAMGFILTERDAT
  2
AcAmgFilterDat
  3
"AcadM|Product Description: AutoCAD Mechanical 2000|Company: Autodesk"
 90
        0
 91
        0
280
     1
281
     0
  0
CLASS
  1
LAYER_INDEX
  2
AcDbLayerIndex
  3
ObjectDBX Classes
 90
        0
 91
        0
280
     0
281
     0
  0
CLASS
  1
IDBUFFER
  2
AcDbIdBuffer
  3
ObjectDBX Classes
 90
        0
 91
        0
280
     0
281
     0
  0
CLASS
  1
ACAD_PROXY_OBJECT_WRAPPER
  2
AcDbProxyObjectWrapper
  3
ObjectDBX Classes
 90
        0
 91
        0
280
     0
281
     0
  0
CLASS
  1
IMAGE
  2
AcDbRasterImage
  3
ISM
 90
     2175
 91
        0
280
     0
281
     1
  0
CLASS
  1
RASTERVARIABLES
  2
AcDbRasterVariables
  3
ISM
 90
        0
 91
        0
280
     0
281
     0
  0
CLASS
  1
IMAGEDEF
  2
AcDbRasterImageDef
  3
ISM
 90
        0
 91
        0
280
     0
281
     0
  0
CLASS
  1
IMAGEDEF_REACTOR
  2
AcDbRasterImageDefReactor
  3
ISM
 90
        1
 91
        0
280
     0
281
     0
  0
CLASS
  1
SPATIAL_FILTER
  2
AcDbSpatialFilter
  3
ObjectDBX Classes
 90
        0
 91
        0
280
     0
281
     0
  0
CLASS
  1
SORTENTSTABLE
  2
AcDbSortentsTable
  3
ObjectDBX Classes
 90
        0
 91
        0
280
     0
281
     0
  0
CLASS
  1
SPATIAL_INDEX
  2
AcDbSpatialIndex
  3
ObjectDBX Classes
 90
        0
 91
        0
280
     0
281
     0
  0
CLASS
  1
OBJECT_PTR
  2
CAseDLPNTableRecord
  3
"ASE-LPNTableRecord"
 90
        1
 91
        0
280
     1
281
     0
  0
CLASS
  1
PLOTSETTINGS
  2
AcDbPlotSettings
  3
ObjectDBX Classes
 90
        0
 91
        0
280
     0
281
     0
  0
CLASS
  1
WIPEOUT
  2
AcDbWipeout
  3
WipeOut|Product Desc: Object Enabler for WipeOut entity | Company: Autodesk, Inc. | WEB Address: www.autodesk.com
 90
     2175
 91
        0
280
     0
281
     1
  0
CLASS
  1
WIPEOUTVARIABLES
  2
AcDbWipeoutVariables
  3
"WipeOut|Product Desc:     WipeOut Dbx Application|Company:          Autodesk, Inc.|WEB Address:      www.autodesk.com"
 90
        0
 91
        0
280
     0
281
     0
  0
CLASS
  1
RTEXT
  2
RText
  3
RText|AutoCAD Express Tool|expresstools@autodesk.com
 90
        0
 91
        0
280
     1
281
     1
  0
CLASS
  1
ARCALIGNEDTEXT
  2
AcDbArcAlignedText
  3
ATEXT|AutoCAD Express Tool|expresstools@autodesk.com
 90
        0
 91
        0
280
     1
281
     1
  0
CLASS
  1
DIMASSOC
  2
AcDbDimAssoc
  3
"AcDbDimAssoc|Product Desc:     AcDim ARX App For Dimension|Company:          Autodesk, Inc.|WEB Address:      www.autodesk.com"
 90
        0
 91
        0
280
     0
281
     0
  0
CLASS
  1
MATERIAL
  2
AcDbMaterial
  3
ObjectDBX Classes
 90
     1153
 91
        3
280
     0
281
     0
  0
CLASS
  1
VISUALSTYLE
  2
AcDbVisualStyle
  3
ObjectDBX Classes
 90
     4095
 91
        4
280
     0
281
     0
  0
CLASS
  1
TABLESTYLE
  2
AcDbTableStyle
  3
ObjectDBX Classes
 90
     4095
 91
        1
280
     0
281
     0
  0
CLASS
  1
SCALE
  2
AcDbScale
  3
ObjectDBX Classes
 90
     1153
 91
       17
280
     0
281
     0
  0
CLASS
  1
MLEADERSTYLE
  2
AcDbMLeaderStyle
  3
ACDB_MLEADERSTYLE_CLASS
 90
     4095
 91
        0
280
     0
281
     0
  0
CLASS
  1
ACDBSECTIONVIEWSTYLE
  2
AcDbSectionViewStyle
  3
ObjectDBX Classes
 90
     1025
 91
        0
280
     0
281
     0
  0
CLASS
  1
ACDBDETAILVIEWSTYLE
  2
AcDbDetailViewStyle
  3
ObjectDBX Classes
 90
     1025
 91
        0
280
     0
281
     0
  0
CLASS
  1
CELLSTYLEMAP
  2
AcDbCellStyleMap
  3
ObjectDBX Classes
 90
     1152
 91
        1
280
     0
281
     0
  0
CLASS
  1
SOLID_BACKGROUND
  2
AcDbSolidBackground
  3
SCENEOE
 90
     4095
 91
        0
280
     0
281
     0
  0
CLASS
  1
NPOCOLLECTION
  2
AcDbImpNonPersistentObjectsCollection
  3
ObjectDBX Classes
 90
     1153
 91
        0
280
     0
281
     0
  0
ENDSEC
  0
SECTION
  2
TABLES
  0
TABLE
  2
VPORT
  5
28
330
0
100
AcDbSymbolTable
 70
     1
  0
VPORT
  5
29
330
28
100
AcDbSymbolTableRecord
100
AcDbViewportTableRecord
  2
*Active
 70
     0
 10
0.0
 20
0.0
 11
1.0
 21
1.0
 12
-381.4356225856889
 22
7.879749951227948
 13
0.0
 23
0.0
 14
0.5
 24
0.5
 15
0.5
 25
0.5
 16
0.0
 26
0.0
 36
1.0
 17
288.4994056054601
 27
-33.93730857825663
 37
0.0
 40
16.18651813201586
 41
2.570850202429149
 42
50.0
 43
0.0
 44
0.0
 50
0.0
 51
0.0
 71
     0
 72
   500
 73
     1
 74
     2
 75
     0
 76
     0
 77
     0
 78
     0
281
     0
 65
     0
110
0.0
120
0.0
130
0.0
111
1.0
121
0.0
131
0.0
112
0.0
122
1.0
132
0.0
 79
     0
146
0.0
348
2A
 60
     3
 61
     5
292
     1
282
     1
141
0.0
142
0.0
 63
   250
421
  3355443
1001
ACAD_NAV_VCDISPLAY
1070
     3
  0
ENDTAB
  0
TABLE
  2
LTYPE
  5
23
330
0
100
AcDbSymbolTable
 70
     3
  0
LTYPE
  5
24
330
23
100
AcDbSymbolTableRecord
100
AcDbLinetypeTableRecord
  2
BYBLOCK
 70
     0
  3

 72
    65
 73
     0
 40
0.0
  0
LTYPE
  5
25
330
23
100
AcDbSymbolTableRecord
100
AcDbLinetypeTableRecord
  2
BYLAYER
 70
     0
  3

 72
    65
 73
     0
 40
0.0
  0
LTYPE
  5
15
330
23
100
AcDbSymbolTableRecord
100
AcDbLinetypeTableRecord
  2
Continuous
 70
     0
  3
Solid line
 72
    65
 73
     0
 40
0.0
  0
LTYPE
  5
80
330
23
100
AcDbSymbolTableRecord
100
AcDbLinetypeTableRecord
  2
CENTER2
 70
     0
  3
Center (.5x) ___ _ ___ _ ___ _ ___ _ ___ _ ___
 72
    65
 73
     4
 40
1.125
 49
0.75
 74
     0
 49
-0.125
 74
     0
 49
0.125
 74
     0
 49
-0.125
 74
     0
  0
LTYPE
  5
7B
330
23
100
AcDbSymbolTableRecord
100
AcDbLinetypeTableRecord
  2
HIDDEN2
 70
     0
  3
Hidden (.5x) _ _ _ _ _ _ _ _ _ _ _ _ _ _ _ _ _
 72
    65
 73
     2
 40
0.1875
 49
0.125
 74
     0
 49
-0.0625
 74
     0
  0
ENDTAB
  0
TABLE
  2
LAYER
  5
1F
330
0
100
AcDbSymbolTable
 70
     4
  0
LAYER
  5
6
102
{ACAD_XDICTIONARY
360
7
102
}
330
1F
100
AcDbSymbolTableRecord
100
AcDbLayerTableRecord
  2
0
 70
     0
 62
     7
  6
Continuous
370
    -3
390
9
347
C
348
0
  0
LAYER
  5
57
102
{ACAD_XDICTIONARY
360
58
102
}
330
1F
100
AcDbSymbolTableRecord
100
AcDbLayerTableRecord
  2
1D
 70
     0
 62
     4
  6
Continuous
370
    -3
390
9
347
C
348
0
  0
LAYER
  5
78
102
{ACAD_XDICTIONARY
360
79
102
}
330
1F
100
AcDbSymbolTableRecord
100
AcDbLayerTableRecord
  2
2D
 70
     0
 62
     4
  6
Continuous
370
    -3
390
9
347
C
348
0
  0
LAYER
  5
73
102
{ACAD_XDICTIONARY
360
74
102
}
330
1F
100
AcDbSymbolTableRecord
100
AcDbLayerTableRecord
  2
2
 70
     0
 62
     7
  6
Continuous
370
    -3
390
9
347
C
348
0
  0
ENDTAB
  0
TABLE
  2
STYLE
  5
20
330
0
100
AcDbSymbolTable
 70
     3
  0
STYLE
  5
21
330
20
100
AcDbSymbolTableRecord
100
AcDbTextStyleTableRecord
  2
Standard
 70
     0
 40
0.0
 41
1.0
 50
0.0
 71
     0
 42
0.2
  3
TXT
  4

  0
STYLE
  5
5A
330
20
100
AcDbSymbolTableRecord
100
AcDbTextStyleTableRecord
  2
SIMPLEX
 70
     0
 40
0.0
 41
1.0
 50
0.0
 71
     0
 42
0.0045
  3
SIMPLEX
  4

  0
STYLE
  5
1EA
330
20
100
AcDbSymbolTableRecord
100
AcDbTextStyleTableRecord
  2
ROMANS
 70
     0
 40
0.018
 41
0.8
 50
0.0
 71
     0
 42
0.018
  3
SIMPLEX
  4

  0
ENDTAB
  0
TABLE
  2
VIEW
  5
26
330
0
100
AcDbSymbolTable
 70
     0
  0
ENDTAB
  0
TABLE
  2
UCS
  5
27
330
0
100
AcDbSymbolTable
 70
     0
  0
ENDTAB
  0
TABLE
  2
APPID
  5
2D
330
0
100
AcDbSymbolTable
 70
     2
  0
APPID
  5
2E
330
2D
100
AcDbSymbolTableRecord
100
AcDbRegAppTableRecord
  2
ACAD
 70
     0
  0
APPID
  5
2C
330
2D
100
AcDbSymbolTableRecord
100
AcDbRegAppTableRecord
  2
ACAD_NAV_VCDISPLAY
 70
     0
  0
ENDTAB
  0
TABLE
  2
DIMSTYLE
  5
2F
330
0
100
AcDbSymbolTable
 70
     1
100
AcDbDimStyleTable
 71
     0
  0
DIMSTYLE
105
60
330
2F
100
AcDbSymbolTableRecord
100
AcDbDimStyleTableRecord
  2
Standard
 70
     0
 41
0.5600000000000001
 42
0.17
 44
0.17
 47
0.038
 48
0.025
 73
     0
 74
     0
 78
     4
140
0.5600000000000001
141
0.25
146
0.8
147
0.17
271
     3
272
     3
284
     4
340
5A
  0
ENDTAB
  0
TABLE
  2
BLOCK_RECORD
  5
1
330
0
100
AcDbSymbolTable
 70
     0
  0
BLOCK_RECORD
  5
2
102
{ACAD_XDICTIONARY
360
3
102
}
330
1
100
AcDbSymbolTableRecord
100
AcDbBlockTableRecord
  2
*Model_Space
340
17
 70
     0
280
     1
281
     0
  0
BLOCK_RECORD
  5
19
102
{ACAD_XDICTIONARY
360
1A
102
}
330
1
100
AcDbSymbolTableRecord
100
AcDbBlockTableRecord
  2
*Paper_Space
340
1E
 70
     0
280
     1
281
     0
  0
ENDTAB
  0
ENDSEC
  0
SECTION
  2
BLOCKS
  0
BLOCK
  5
5
330
2
100
AcDbEntity
  8
0
100
AcDbBlockBegin
  2
*Model_Space
 70
     0
 10
0.0
 20
0.0
 30
0.0
  3
*Model_Space
  1

  0
ENDBLK
  5
16
330
2
100
AcDbEntity
  8
0
100
AcDbBlockEnd
  0
BLOCK
  5
1C
330
19
100
AcDbEntity
 67
     1
  8
0
100
AcDbBlockBegin
  2
*Paper_Space
 70
     0
 10
0.0
 20
0.0
 30
0.0
  3
*Paper_Space
  1

  0
ENDBLK
  5
1D
330
19
100
AcDbEntity
 67
     1
  8
0
100
AcDbBlockEnd
  0
ENDSEC
  0
SECTION
  2
ENTITIES
  0
LINE
  5
72
330
2
100
AcDbEntity
  8
2
100
AcDbLine
 10
44.07650405617326
 20
4.86949133257351
 30
0.0
 11
43.74150405617323
 21
4.86949133257351
 31
0.0
  0
ARC
  5
76
330
2
100
AcDbEntity
  8
2
100
AcDbCircle
 10
43.95283694975209
 20
4.562491332573518
 30
0.0
 40
0.1269999999999953
100
AcDbArc
 50
89.99997289521735
 51
185.875213038311
  0
LINE
  5
77
330
2
100
AcDbEntity
  8
2D
  6
HIDDEN2
100
AcDbLine
 10
43.8258369497521
 20
4.562491332573518
 30
0.0
 11
48.42650405617326
 21
4.562491332573518
 31
0.0
  0
LINE
  5
7C
330
2
100
AcDbEntity
  8
2
100
AcDbLine
 10
44.07650405617326
 20
1.309491332573511
 30
0.0
 11
43.74150405617323
 21
1.309491332573511
 31
0.0
  0
ARC
  5
7D
330
2
100
AcDbEntity
  8
2
100
AcDbCircle
 10
43.95283694975209
 20
1.61649133257352
 30
0.0
 40
0.1270000000000006
100
AcDbArc
 50
174.1247869616938
 51
270.0000253258818
  0
LINE
  5
7E
330
2
100
AcDbEntity
  8
2D
  6
HIDDEN2
100
AcDbLine
 10
43.8258369497521
 20
1.61649133257352
 30
0.0
 11
48.42717116259445
 21
1.61649133257352
 31
0.0
  0
LWPOLYLINE
  5
7F
330
2
100
AcDbEntity
  8
2D
  6
CENTER2
 62
     2
100
AcDbPolyline
 90
        4
 70
     1
 43
0.0
 10
48.65150405617327
 20
0.864491332573511
 10
48.65150405617327
 20
5.314491332573499
 10
43.60150405617324
 20
5.314491332573499
 10
43.60150405617324
 20
0.864491332573511
  0
LINE
  5
81
330
2
100
AcDbEntity
  8
2
100
AcDbLine
 10
43.5142040561733
 20
3.412491332573519
 30
0.0
 11
43.5142040561733
 21
2.766491332573473
 31
0.0
  0
LINE
  5
82
330
2
100
AcDbEntity
  8
2
100
AcDbLine
 10
43.8265040561733
 20
2.766491332573473
 30
0.0
 11
43.8265040561733
 21
3.412491332573519
 31
0.0
  0
LINE
  5
83
330
2
100
AcDbEntity
  8
2
100
AcDbLine
 10
43.8265040561733
 20
2.63949133257347
 30
0.0
 11
43.8265040561733
 21
1.6294913325735
 31
0.0
  0
LINE
  5
84
330
2
100
AcDbEntity
  8
2
100
AcDbLine
 10
43.5142040561733
 20
2.63949133257347
 30
0.0
 11
43.5142040561733
 21
0.8894913325855391
 31
0.0
  0
LINE
  5
85
330
2
100
AcDbEntity
  8
2
100
AcDbLine
 10
43.74150405617323
 20
1.309491332573511
 30
0.0
 11
43.74150405617323
 21
0.6894913325735282
 31
0.0
  0
LINE
  5
86
330
2
100
AcDbEntity
  8
2
100
AcDbLine
 10
43.8265040561733
 20
2.63949133257347
 30
0.0
 11
43.5142040561733
 21
2.63949133257347
 31
0.0
  0
LINE
  5
87
330
2
100
AcDbEntity
  8
2
100
AcDbLine
 10
43.8265040561733
 20
2.766491332573473
 30
0.0
 11
43.5142040561733
 21
2.766491332573473
 31
0.0
  0
LINE
  5
88
330
2
100
AcDbEntity
  8
2
100
AcDbLine
 10
43.74150405617306
 20
0.6894913325735282
 30
0.0
 11
43.31150405617324
 21
0.6894913325735282
 31
0.0
  0
LINE
  5
89
330
2
100
AcDbEntity
  8
2
100
AcDbLine
 10
43.74150405617323
 20
4.86949133257351
 30
0.0
 11
43.74150405617323
 21
5.489491332573489
 31
0.0
  0
LINE
  5
8A
330
2
100
AcDbEntity
  8
2
100
AcDbLine
 10
43.8265040561733
 20
3.539491332573561
 30
0.0
 11
43.8265040561733
 21
4.54949133257352
 31
0.0
  0
LINE
  5
8B
330
2
100
AcDbEntity
  8
2
100
AcDbLine
 10
43.5142040561733
 20
3.412491332573519
 30
0.0
 11
43.8265040561733
 21
3.412491332573519
 31
0.0
  0
LINE
  5
8C
330
2
100
AcDbEntity
  8
2
100
AcDbLine
 10
41.97950405617324
 20
3.539491332573589
 30
0.0
 11
43.8265040561733
 21
3.539491332573589
 31
0.0
  0
LINE
  5
8D
330
2
100
AcDbEntity
  8
2
100
AcDbLine
 10
43.5142040561733
 20
5.289491332561478
 30
0.0
 11
43.5142040561733
 21
4.739491332577561
 31
0.0
  0
LWPOLYLINE
  5
8E
330
2
100
AcDbEntity
  8
2
100
AcDbPolyline
 90
        5
 70
     0
 43
0.0
 10
42.66150405617357
 20
5.289491332561478
 10
43.0915040561733
 20
5.289491332561478
 10
43.0915040561733
 20
5.489491332573489
 10
42.66150405617357
 20
5.489491332573489
 10
42.66150405617357
 20
5.289491332561478
  0
LINE
  5
8F
330
2
100
AcDbEntity
  8
2
100
AcDbLine
 10
43.31150405617324
 20
5.489491332573489
 30
0.0
 11
43.31150405617324
 21
5.289491332561478
 31
0.0
  0
LINE
  5
90
330
2
100
AcDbEntity
  8
2
100
AcDbLine
 10
41.97950405617322
 20
4.739491332577497
 30
0.0
 11
43.5142040561733
 21
4.739491332577561
 31
0.0
  0
LINE
  5
91
330
2
100
AcDbEntity
  8
2
100
AcDbLine
 10
43.31150405617324
 20
5.289491332561478
 30
0.0
 11
43.5142040561733
 21
5.289491332561478
 31
0.0
  0
LINE
  5
92
330
2
100
AcDbEntity
  8
2
100
AcDbLine
 10
43.74150405617306
 20
5.489491332573489
 30
0.0
 11
43.31150405617324
 21
5.489491332573489
 31
0.0
  0
LINE
  5
93
330
2
100
AcDbEntity
  8
2
100
AcDbLine
 10
48.73880405617324
 20
3.412491332573519
 30
0.0
 11
48.73880405617324
 21
2.766491332573473
 31
0.0
  0
LINE
  5
94
330
2
100
AcDbEntity
  8
2D
  6
CENTER2
100
AcDbLine
 10
46.12650405617325
 20
1.92426140894997
 30
0.0
 11
46.12650405617325
 21
4.254721256197051
 31
0.0
  0
LINE
  5
95
330
2
100
AcDbEntity
  8
2
100
AcDbLine
 10
44.02900405617325
 20
2.059491332573482
 30
0.0
 11
44.02900405617325
 21
4.11949133257357
 31
0.0
  0
LINE
  5
96
330
2
100
AcDbEntity
  8
2
100
AcDbLine
 10
44.2095040561733
 20
4.11949133257357
 30
0.0
 11
44.2095040561733
 21
2.059491332573482
 31
0.0
  0
LWPOLYLINE
  5
97
330
2
100
AcDbEntity
  8
2D
  6
HIDDEN2
100
AcDbPolyline
 90
        4
 70
     0
 43
0.0
 10
44.2095040561733
 20
4.11949133257357
 10
44.33750405617326
 20
4.11949133257357
 10
44.33750405617326
 20
2.059491332573482
 10
44.2095040561733
 20
2.059491332573482
  0
LINE
  5
98
330
2
100
AcDbEntity
  8
2
100
AcDbLine
 10
48.22400405617326
 20
4.11949133257357
 30
0.0
 11
48.22400405617329
 21
2.059491332573482
 31
0.0
  0
LINE
  5
99
330
2
100
AcDbEntity
  8
2
100
AcDbLine
 10
48.04350405617324
 20
4.11949133257357
 30
0.0
 11
48.04350405617324
 21
2.059491332573482
 31
0.0
  0
LWPOLYLINE
  5
9A
330
2
100
AcDbEntity
  8
2D
  6
HIDDEN2
100
AcDbPolyline
 90
        4
 70
     0
 43
0.0
 10
48.04350405617331
 20
4.11949133257357
 10
47.9155040561733
 20
4.11949133257357
 10
47.9155040561733
 20
2.059491332573482
 10
48.04350405617331
 20
2.059491332573482
  0
LINE
  5
9B
330
2
100
AcDbEntity
  8
2
100
AcDbLine
 10
48.42650405617324
 20
2.766491332573473
 30
0.0
 11
48.42650405617324
 21
3.412491332573519
 31
0.0
  0
LINE
  5
9C
330
2
100
AcDbEntity
  8
2
100
AcDbLine
 10
46.22650405617323
 20
1.309491332573511
 30
0.0
 11
46.67650405617325
 21
1.309491332573543
 31
0.0
  0
LINE
  5
9D
330
2
100
AcDbEntity
  8
2
100
AcDbLine
 10
43.95283700588865
 20
1.489491332573518
 30
0.0
 11
48.30017106760026
 21
1.489491332573518
 31
0.0
  0
LINE
  5
9E
330
2
100
AcDbEntity
  8
2D
  6
CENTER2
100
AcDbLine
 10
44.96127413254972
 20
3.089491332573508
 30
0.0
 11
47.2917339797968
 21
3.089491332573508
 31
0.0
  0
LINE
  5
9F
330
2
100
AcDbEntity
  8
2
100
AcDbLine
 10
46.22650405617323
 20
1.089491332573544
 30
0.0
 11
46.34150405617326
 21
1.089491332573508
 31
0.0
  0
LINE
  5
A0
330
2
100
AcDbEntity
  8
2
100
AcDbLine
 10
46.22650405617323
 20
1.309491332573511
 30
0.0
 11
46.22650405617323
 21
1.089491332573544
 31
0.0
  0
LINE
  5
A1
330
2
100
AcDbEntity
  8
2
100
AcDbLine
 10
46.34150405617326
 20
1.089491332573508
 30
0.0
 11
46.34150405617326
 21
0.689491332573482
 31
0.0
  0
LINE
  5
A2
330
2
100
AcDbEntity
  8
2
100
AcDbLine
 10
44.72650405617324
 20
1.309491332573511
 30
0.0
 11
44.27650405617327
 21
1.309491332573543
 31
0.0
  0
LINE
  5
A3
330
2
100
AcDbEntity
  8
2
100
AcDbLine
 10
44.27650405617327
 20
1.309491332573543
 30
0.0
 11
44.27650405617327
 21
1.089491332573508
 31
0.0
  0
LINE
  5
A4
330
2
100
AcDbEntity
  8
2
100
AcDbLine
 10
44.39150405617325
 20
1.089491332573508
 30
0.0
 11
44.27650405617327
 21
1.089491332573508
 31
0.0
  0
LINE
  5
A5
330
2
100
AcDbEntity
  8
2
100
AcDbLine
 10
44.07650405617326
 20
1.309491332573511
 30
0.0
 11
44.07650405617326
 21
1.089491332573544
 31
0.0
  0
LINE
  5
A6
330
2
100
AcDbEntity
  8
2
100
AcDbLine
 10
44.07650405617326
 20
1.089491332573544
 30
0.0
 11
43.96150405617324
 21
1.089491332573508
 31
0.0
  0
LINE
  5
A7
330
2
100
AcDbEntity
  8
2
100
AcDbLine
 10
44.39150405617325
 20
1.089491332573508
 30
0.0
 11
44.39150405617325
 21
0.6894913325735637
 31
0.0
  0
LINE
  5
A8
330
2
100
AcDbEntity
  8
2
100
AcDbLine
 10
43.96150405617324
 20
0.6894913325735282
 30
0.0
 11
44.39150405617325
 21
0.6894913325735637
 31
0.0
  0
LINE
  5
A9
330
2
100
AcDbEntity
  8
2
100
AcDbLine
 10
43.96150405617324
 20
1.089491332573508
 30
0.0
 11
43.96150405617324
 21
0.6894913325735282
 31
0.0
  0
LINE
  5
AA
330
2
100
AcDbEntity
  8
2
100
AcDbLine
 10
44.02900405617325
 20
2.059491332573482
 30
0.0
 11
44.2095040561733
 21
2.059491332573482
 31
0.0
  0
LINE
  5
AB
330
2
100
AcDbEntity
  8
2
100
AcDbLine
 10
45.37650405617324
 20
1.309491332573511
 30
0.0
 11
44.92650405617324
 21
1.309491332573543
 31
0.0
  0
LINE
  5
AC
330
2
100
AcDbEntity
  8
2
100
AcDbLine
 10
44.72650405617324
 20
1.309491332573511
 30
0.0
 11
44.72650405617324
 21
1.089491332573544
 31
0.0
  0
LINE
  5
AD
330
2
100
AcDbEntity
  8
2
100
AcDbLine
 10
44.72650405617324
 20
1.089491332573544
 30
0.0
 11
44.61150405617326
 21
1.089491332573508
 31
0.0
  0
LINE
  5
AE
330
2
100
AcDbEntity
  8
2
100
AcDbLine
 10
44.61150405617326
 20
1.089491332573508
 30
0.0
 11
44.61150405617326
 21
0.6894913325735637
 31
0.0
  0
LINE
  5
AF
330
2
100
AcDbEntity
  8
2
100
AcDbLine
 10
44.92650405617324
 20
1.309491332573543
 30
0.0
 11
44.92650405617324
 21
1.089491332573508
 31
0.0
  0
LINE
  5
B0
330
2
100
AcDbEntity
  8
2
100
AcDbLine
 10
45.04150405617323
 20
1.089491332573508
 30
0.0
 11
44.92650405617324
 21
1.089491332573508
 31
0.0
  0
LINE
  5
B1
330
2
100
AcDbEntity
  8
2
100
AcDbLine
 10
45.04150405617323
 20
1.089491332573508
 30
0.0
 11
45.04150405617323
 21
0.6894913325735637
 31
0.0
  0
LINE
  5
B2
330
2
100
AcDbEntity
  8
2
100
AcDbLine
 10
44.61150405617326
 20
0.6894913325735637
 30
0.0
 11
45.04150405617323
 21
0.6894913325735637
 31
0.0
  0
LINE
  5
B3
330
2
100
AcDbEntity
  8
2
100
AcDbLine
 10
45.69150405617324
 20
1.089491332573508
 30
0.0
 11
45.69150405617324
 21
0.6894913325735637
 31
0.0
  0
LINE
  5
B4
330
2
100
AcDbEntity
  8
2
100
AcDbLine
 10
45.91150405617324
 20
1.089491332573508
 30
0.0
 11
45.91150405617324
 21
0.6894913325735637
 31
0.0
  0
LINE
  5
B5
330
2
100
AcDbEntity
  8
2
100
AcDbLine
 10
46.02650405617326
 20
1.089491332573544
 30
0.0
 11
45.91150405617324
 21
1.089491332573508
 31
0.0
  0
LINE
  5
B6
330
2
100
AcDbEntity
  8
2
100
AcDbLine
 10
46.02650405617326
 20
1.309491332573511
 30
0.0
 11
46.02650405617326
 21
1.089491332573544
 31
0.0
  0
LINE
  5
B7
330
2
100
AcDbEntity
  8
2
100
AcDbLine
 10
46.02650405617326
 20
1.309491332573511
 30
0.0
 11
45.57650405617326
 21
1.309491332573543
 31
0.0
  0
LINE
  5
B8
330
2
100
AcDbEntity
  8
2
100
AcDbLine
 10
45.69150405617324
 20
1.089491332573508
 30
0.0
 11
45.57650405617326
 21
1.089491332573508
 31
0.0
  0
LINE
  5
B9
330
2
100
AcDbEntity
  8
2
100
AcDbLine
 10
45.57650405617326
 20
1.309491332573543
 30
0.0
 11
45.57650405617326
 21
1.089491332573508
 31
0.0
  0
LINE
  5
BA
330
2
100
AcDbEntity
  8
2
100
AcDbLine
 10
45.37650405617324
 20
1.309491332573511
 30
0.0
 11
45.37650405617324
 21
1.089491332573544
 31
0.0
  0
LINE
  5
BB
330
2
100
AcDbEntity
  8
2
100
AcDbLine
 10
45.37650405617324
 20
1.089491332573544
 30
0.0
 11
45.26150405617324
 21
1.089491332573508
 31
0.0
  0
LINE
  5
BC
330
2
100
AcDbEntity
  8
2
100
AcDbLine
 10
45.26150405617324
 20
0.6894913325735282
 30
0.0
 11
45.69150405617324
 21
0.6894913325735637
 31
0.0
  0
LINE
  5
BD
330
2
100
AcDbEntity
  8
2
100
AcDbLine
 10
45.26150405617324
 20
1.089491332573508
 30
0.0
 11
45.26150405617324
 21
0.6894913325735282
 31
0.0
  0
LINE
  5
BE
330
2
100
AcDbEntity
  8
2
100
AcDbLine
 10
46.34150405617326
 20
0.689491332573482
 30
0.0
 11
45.91150405617324
 21
0.6894913325735637
 31
0.0
  0
LINE
  5
BF
330
2
100
AcDbEntity
  8
2
100
AcDbLine
 10
48.73880405617329
 20
2.63949133257347
 30
0.0
 11
48.73880405617329
 21
0.8894913325855391
 31
0.0
  0
LINE
  5
C0
330
2
100
AcDbEntity
  8
2
100
AcDbLine
 10
48.9415040561733
 20
0.8894913325855391
 30
0.0
 11
48.94150405617331
 21
0.6894913325735282
 31
0.0
  0
LINE
  5
C1
330
2
100
AcDbEntity
  8
2
100
AcDbLine
 10
46.9915040561733
 20
0.6894913325735282
 30
0.0
 11
46.56150405617326
 21
0.6894913325735637
 31
0.0
  0
LINE
  5
C2
330
2
100
AcDbEntity
  8
2
100
AcDbLine
 10
46.67650405617325
 20
1.309491332573543
 30
0.0
 11
46.67650405617325
 21
1.089491332573508
 31
0.0
  0
LINE
  5
C3
330
2
100
AcDbEntity
  8
2
100
AcDbLine
 10
46.56150405617326
 20
1.089491332573508
 30
0.0
 11
46.67650405617325
 21
1.089491332573508
 31
0.0
  0
LINE
  5
C4
330
2
100
AcDbEntity
  8
2
100
AcDbLine
 10
46.56150405617326
 20
1.089491332573508
 30
0.0
 11
46.56150405617326
 21
0.6894913325735637
 31
0.0
  0
LINE
  5
C5
330
2
100
AcDbEntity
  8
2
100
AcDbLine
 10
48.42650405617326
 20
2.63949133257347
 30
0.0
 11
48.42650405617326
 21
1.6294913325735
 31
0.0
  0
LINE
  5
C6
330
2
100
AcDbEntity
  8
2
100
AcDbLine
 10
47.64150405617324
 20
0.6894913325735637
 30
0.0
 11
47.21150405617324
 21
0.6894913325735637
 31
0.0
  0
LINE
  5
C7
330
2
100
AcDbEntity
  8
2
100
AcDbLine
 10
47.21150405617324
 20
1.089491332573508
 30
0.0
 11
47.21150405617324
 21
0.6894913325735637
 31
0.0
  0
LINE
  5
C8
330
2
100
AcDbEntity
  8
2
100
AcDbLine
 10
46.9915040561733
 20
1.089491332573508
 30
0.0
 11
46.9915040561733
 21
0.6894913325735282
 31
0.0
  0
LINE
  5
C9
330
2
100
AcDbEntity
  8
2
100
AcDbLine
 10
46.87650405617325
 20
1.089491332573544
 30
0.0
 11
46.9915040561733
 21
1.089491332573508
 31
0.0
  0
LINE
  5
CA
330
2
100
AcDbEntity
  8
2
100
AcDbLine
 10
46.87650405617325
 20
1.309491332573511
 30
0.0
 11
46.87650405617325
 21
1.089491332573544
 31
0.0
  0
LINE
  5
CB
330
2
100
AcDbEntity
  8
2
100
AcDbLine
 10
46.87650405617325
 20
1.309491332573511
 30
0.0
 11
47.32650405617325
 21
1.309491332573543
 31
0.0
  0
LINE
  5
CC
330
2
100
AcDbEntity
  8
2
100
AcDbLine
 10
47.21150405617324
 20
1.089491332573508
 30
0.0
 11
47.32650405617325
 21
1.089491332573508
 31
0.0
  0
LINE
  5
CD
330
2
100
AcDbEntity
  8
2
100
AcDbLine
 10
47.32650405617325
 20
1.309491332573543
 30
0.0
 11
47.32650405617325
 21
1.089491332573508
 31
0.0
  0
LINE
  5
CE
330
2
100
AcDbEntity
  8
2
100
AcDbLine
 10
48.51150405617326
 20
1.309491332573511
 30
0.0
 11
48.51150405617326
 21
0.6894913325735282
 31
0.0
  0
LINE
  5
CF
330
2
100
AcDbEntity
  8
2
100
AcDbLine
 10
48.29150405617326
 20
1.089491332573508
 30
0.0
 11
48.29150405617326
 21
0.6894913325735282
 31
0.0
  0
LINE
  5
D0
330
2
100
AcDbEntity
  8
2
100
AcDbLine
 10
48.17650405617325
 20
1.089491332573544
 30
0.0
 11
48.29150405617326
 21
1.089491332573508
 31
0.0
  0
LINE
  5
D1
330
2
100
AcDbEntity
  8
2
100
AcDbLine
 10
48.17650405617325
 20
1.309491332573511
 30
0.0
 11
48.17650405617325
 21
1.089491332573544
 31
0.0
  0
LINE
  5
D2
330
2
100
AcDbEntity
  8
2
100
AcDbLine
 10
48.17650405617325
 20
1.309491332573511
 30
0.0
 11
48.51150405617326
 21
1.309491332573511
 31
0.0
  0
LINE
  5
D3
330
2
100
AcDbEntity
  8
2
100
AcDbLine
 10
48.29150405617326
 20
0.6894913325735282
 30
0.0
 11
47.86150405617324
 21
0.6894913325735637
 31
0.0
  0
LINE
  5
D4
330
2
100
AcDbEntity
  8
2
100
AcDbLine
 10
47.86150405617324
 20
1.089491332573508
 30
0.0
 11
47.86150405617324
 21
0.6894913325735637
 31
0.0
  0
LINE
  5
D5
330
2
100
AcDbEntity
  8
2
100
AcDbLine
 10
47.64150405617324
 20
1.089491332573508
 30
0.0
 11
47.64150405617324
 21
0.6894913325735637
 31
0.0
  0
LINE
  5
D6
330
2
100
AcDbEntity
  8
2
100
AcDbLine
 10
47.52650405617329
 20
1.089491332573544
 30
0.0
 11
47.64150405617324
 21
1.089491332573508
 31
0.0
  0
LINE
  5
D7
330
2
100
AcDbEntity
  8
2
100
AcDbLine
 10
47.52650405617329
 20
1.309491332573511
 30
0.0
 11
47.52650405617329
 21
1.089491332573544
 31
0.0
  0
LINE
  5
D8
330
2
100
AcDbEntity
  8
2
100
AcDbLine
 10
47.52650405617329
 20
1.309491332573511
 30
0.0
 11
47.97650405617324
 21
1.309491332573543
 31
0.0
  0
LINE
  5
D9
330
2
100
AcDbEntity
  8
2
100
AcDbLine
 10
47.86150405617324
 20
1.089491332573508
 30
0.0
 11
47.97650405617324
 21
1.089491332573508
 31
0.0
  0
LINE
  5
DA
330
2
100
AcDbEntity
  8
2
100
AcDbLine
 10
47.97650405617324
 20
1.309491332573543
 30
0.0
 11
47.97650405617324
 21
1.089491332573508
 31
0.0
  0
LINE
  5
DB
330
2
100
AcDbEntity
  8
2
100
AcDbLine
 10
48.22400405617329
 20
2.059491332573482
 30
0.0
 11
48.04350405617324
 21
2.059491332573482
 31
0.0
  0
ARC
  5
DC
330
2
100
AcDbEntity
  8
2
100
AcDbCircle
 10
48.30017116259445
 20
1.616491332573499
 30
0.0
 40
0.1269999999999953
100
AcDbArc
 50
269.9999571435831
 51
5.875213038316062
  0
LINE
  5
DD
330
2
100
AcDbEntity
  8
2
100
AcDbLine
 10
48.94150405617306
 20
0.6894913325735282
 30
0.0
 11
48.51150405617326
 21
0.6894913325735282
 31
0.0
  0
LINE
  5
DE
330
2
100
AcDbEntity
  8
2
100
AcDbLine
 10
48.42650405617324
 20
2.766491332573473
 30
0.0
 11
48.73880405617324
 21
2.766491332573473
 31
0.0
  0
LINE
  5
DF
330
2
100
AcDbEntity
  8
2
100
AcDbLine
 10
48.42650405617326
 20
2.63949133257347
 30
0.0
 11
48.73880405617329
 21
2.63949133257347
 31
0.0
  0
LINE
  5
E0
330
2
100
AcDbEntity
  8
2
100
AcDbLine
 10
46.22650405617323
 20
4.86949133257351
 30
0.0
 11
46.67650405617325
 21
4.869491332573478
 31
0.0
  0
LINE
  5
E1
330
2
100
AcDbEntity
  8
2
100
AcDbLine
 10
43.9528370098317
 20
4.689491332573499
 30
0.0
 11
48.29950396605386
 21
4.689491332573499
 31
0.0
  0
LINE
  5
E2
330
2
100
AcDbEntity
  8
2
100
AcDbLine
 10
46.34150405617326
 20
5.089491332573508
 30
0.0
 11
46.34150405617326
 21
5.48949133257355
 31
0.0
  0
LINE
  5
E3
330
2
100
AcDbEntity
  8
2
100
AcDbLine
 10
46.22650405617323
 20
5.08949133257348
 30
0.0
 11
46.34150405617326
 21
5.089491332573508
 31
0.0
  0
LINE
  5
E4
330
2
100
AcDbEntity
  8
2
100
AcDbLine
 10
46.22650405617323
 20
4.86949133257351
 30
0.0
 11
46.22650405617323
 21
5.08949133257348
 31
0.0
  0
LINE
  5
E5
330
2
100
AcDbEntity
  8
2
100
AcDbLine
 10
44.72650405617324
 20
4.86949133257351
 30
0.0
 11
44.27650405617327
 21
4.869491332573478
 31
0.0
  0
LINE
  5
E6
330
2
100
AcDbEntity
  8
2
100
AcDbLine
 10
44.07650405617326
 20
5.08949133257348
 30
0.0
 11
43.96150405617324
 21
5.089491332573508
 31
0.0
  0
LINE
  5
E7
330
2
100
AcDbEntity
  8
2
100
AcDbLine
 10
44.07650405617326
 20
4.86949133257351
 30
0.0
 11
44.07650405617326
 21
5.08949133257348
 31
0.0
  0
LINE
  5
E8
330
2
100
AcDbEntity
  8
2
100
AcDbLine
 10
44.39150405617325
 20
5.089491332573508
 30
0.0
 11
44.27650405617327
 21
5.089491332573508
 31
0.0
  0
LINE
  5
E9
330
2
100
AcDbEntity
  8
2
100
AcDbLine
 10
44.27650405617327
 20
4.869491332573478
 30
0.0
 11
44.27650405617327
 21
5.089491332573508
 31
0.0
  0
LINE
  5
EA
330
2
100
AcDbEntity
  8
2
100
AcDbLine
 10
43.96150405617324
 20
5.089491332573508
 30
0.0
 11
43.96150405617324
 21
5.489491332573489
 31
0.0
  0
LINE
  5
EB
330
2
100
AcDbEntity
  8
2
100
AcDbLine
 10
44.39150405617325
 20
5.089491332573508
 30
0.0
 11
44.39150405617325
 21
5.489491332573461
 31
0.0
  0
LINE
  5
EC
330
2
100
AcDbEntity
  8
2
100
AcDbLine
 10
43.96150405617324
 20
5.489491332573489
 30
0.0
 11
44.39150405617325
 21
5.489491332573461
 31
0.0
  0
LINE
  5
ED
330
2
100
AcDbEntity
  8
2
100
AcDbLine
 10
44.02900405617325
 20
4.11949133257357
 30
0.0
 11
44.2095040561733
 21
4.11949133257357
 31
0.0
  0
LINE
  5
EE
330
2
100
AcDbEntity
  8
2
100
AcDbLine
 10
45.37650405617324
 20
4.86949133257351
 30
0.0
 11
44.92650405617324
 21
4.869491332573478
 31
0.0
  0
LINE
  5
EF
330
2
100
AcDbEntity
  8
2
100
AcDbLine
 10
45.04150405617323
 20
5.089491332573508
 30
0.0
 11
44.92650405617324
 21
5.089491332573508
 31
0.0
  0
LINE
  5
F0
330
2
100
AcDbEntity
  8
2
100
AcDbLine
 10
44.92650405617324
 20
4.869491332573478
 30
0.0
 11
44.92650405617324
 21
5.089491332573508
 31
0.0
  0
LINE
  5
F1
330
2
100
AcDbEntity
  8
2
100
AcDbLine
 10
44.72650405617324
 20
5.08949133257348
 30
0.0
 11
44.61150405617326
 21
5.089491332573508
 31
0.0
  0
LINE
  5
F2
330
2
100
AcDbEntity
  8
2
100
AcDbLine
 10
44.72650405617324
 20
4.86949133257351
 30
0.0
 11
44.72650405617324
 21
5.08949133257348
 31
0.0
  0
LINE
  5
F3
330
2
100
AcDbEntity
  8
2
100
AcDbLine
 10
44.61150405617326
 20
5.089491332573508
 30
0.0
 11
44.61150405617326
 21
5.489491332573461
 31
0.0
  0
LINE
  5
F4
330
2
100
AcDbEntity
  8
2
100
AcDbLine
 10
45.04150405617323
 20
5.089491332573508
 30
0.0
 11
45.04150405617323
 21
5.489491332573461
 31
0.0
  0
LINE
  5
F5
330
2
100
AcDbEntity
  8
2
100
AcDbLine
 10
44.61150405617326
 20
5.489491332573461
 30
0.0
 11
45.04150405617323
 21
5.489491332573461
 31
0.0
  0
LINE
  5
F6
330
2
100
AcDbEntity
  8
2
100
AcDbLine
 10
45.37650405617324
 20
5.08949133257348
 30
0.0
 11
45.26150405617324
 21
5.089491332573508
 31
0.0
  0
LINE
  5
F7
330
2
100
AcDbEntity
  8
2
100
AcDbLine
 10
45.37650405617324
 20
4.86949133257351
 30
0.0
 11
45.37650405617324
 21
5.08949133257348
 31
0.0
  0
LINE
  5
F8
330
2
100
AcDbEntity
  8
2
100
AcDbLine
 10
45.57650405617326
 20
4.869491332573478
 30
0.0
 11
45.57650405617326
 21
5.089491332573508
 31
0.0
  0
LINE
  5
F9
330
2
100
AcDbEntity
  8
2
100
AcDbLine
 10
45.69150405617324
 20
5.089491332573508
 30
0.0
 11
45.57650405617326
 21
5.089491332573508
 31
0.0
  0
LINE
  5
FA
330
2
100
AcDbEntity
  8
2
100
AcDbLine
 10
46.02650405617326
 20
4.86949133257351
 30
0.0
 11
45.57650405617326
 21
4.869491332573478
 31
0.0
  0
LINE
  5
FB
330
2
100
AcDbEntity
  8
2
100
AcDbLine
 10
46.02650405617326
 20
4.86949133257351
 30
0.0
 11
46.02650405617326
 21
5.08949133257348
 31
0.0
  0
LINE
  5
FC
330
2
100
AcDbEntity
  8
2
100
AcDbLine
 10
46.02650405617326
 20
5.08949133257348
 30
0.0
 11
45.91150405617324
 21
5.089491332573508
 31
0.0
  0
LINE
  5
FD
330
2
100
AcDbEntity
  8
2
100
AcDbLine
 10
45.26150405617324
 20
5.089491332573508
 30
0.0
 11
45.26150405617324
 21
5.489491332573489
 31
0.0
  0
LINE
  5
FE
330
2
100
AcDbEntity
  8
2
100
AcDbLine
 10
45.69150405617324
 20
5.089491332573508
 30
0.0
 11
45.69150405617324
 21
5.489491332573461
 31
0.0
  0
LINE
  5
FF
330
2
100
AcDbEntity
  8
2
100
AcDbLine
 10
45.91150405617324
 20
5.089491332573508
 30
0.0
 11
45.91150405617324
 21
5.489491332573461
 31
0.0
  0
LINE
  5
100
330
2
100
AcDbEntity
  8
2
100
AcDbLine
 10
45.26150405617324
 20
5.489491332573489
 30
0.0
 11
45.69150405617324
 21
5.489491332573461
 31
0.0
  0
LINE
  5
101
330
2
100
AcDbEntity
  8
2
100
AcDbLine
 10
46.34150405617326
 20
5.48949133257355
 30
0.0
 11
45.91150405617324
 21
5.489491332573461
 31
0.0
  0
LINE
  5
102
330
2
100
AcDbEntity
  8
2
100
AcDbLine
 10
48.73880405617322
 20
5.289491332561478
 30
0.0
 11
48.73880405617322
 21
4.739491332577561
 31
0.0
  0
LINE
  5
103
330
2
100
AcDbEntity
  8
2
100
AcDbLine
 10
46.9915040561733
 20
5.489491332573489
 30
0.0
 11
46.56150405617326
 21
5.489491332573461
 31
0.0
  0
LINE
  5
104
330
2
100
AcDbEntity
  8
2
100
AcDbLine
 10
46.56150405617326
 20
5.089491332573508
 30
0.0
 11
46.56150405617326
 21
5.489491332573461
 31
0.0
  0
LINE
  5
105
330
2
100
AcDbEntity
  8
2
100
AcDbLine
 10
46.56150405617326
 20
5.089491332573508
 30
0.0
 11
46.67650405617325
 21
5.089491332573508
 31
0.0
  0
LINE
  5
106
330
2
100
AcDbEntity
  8
2
100
AcDbLine
 10
46.67650405617325
 20
4.869491332573478
 30
0.0
 11
46.67650405617325
 21
5.089491332573508
 31
0.0
  0
LINE
  5
107
330
2
100
AcDbEntity
  8
2
100
AcDbLine
 10
47.64150405617324
 20
5.489491332573461
 30
0.0
 11
47.21150405617324
 21
5.489491332573461
 31
0.0
  0
LINE
  5
108
330
2
100
AcDbEntity
  8
2
100
AcDbLine
 10
47.32650405617325
 20
4.869491332573478
 30
0.0
 11
47.32650405617325
 21
5.089491332573508
 31
0.0
  0
LINE
  5
109
330
2
100
AcDbEntity
  8
2
100
AcDbLine
 10
47.21150405617324
 20
5.089491332573508
 30
0.0
 11
47.32650405617325
 21
5.089491332573508
 31
0.0
  0
LINE
  5
10A
330
2
100
AcDbEntity
  8
2
100
AcDbLine
 10
46.87650405617325
 20
4.86949133257351
 30
0.0
 11
47.32650405617325
 21
4.869491332573478
 31
0.0
  0
LINE
  5
10B
330
2
100
AcDbEntity
  8
2
100
AcDbLine
 10
46.87650405617325
 20
4.86949133257351
 30
0.0
 11
46.87650405617325
 21
5.08949133257348
 31
0.0
  0
LINE
  5
10C
330
2
100
AcDbEntity
  8
2
100
AcDbLine
 10
46.87650405617325
 20
5.08949133257348
 30
0.0
 11
46.9915040561733
 21
5.089491332573508
 31
0.0
  0
LINE
  5
10D
330
2
100
AcDbEntity
  8
2
100
AcDbLine
 10
46.9915040561733
 20
5.089491332573508
 30
0.0
 11
46.9915040561733
 21
5.489491332573489
 31
0.0
  0
LINE
  5
10E
330
2
100
AcDbEntity
  8
2
100
AcDbLine
 10
47.21150405617324
 20
5.089491332573508
 30
0.0
 11
47.21150405617324
 21
5.489491332573461
 31
0.0
  0
LINE
  5
10F
330
2
100
AcDbEntity
  8
2
100
AcDbLine
 10
47.97650405617324
 20
4.869491332573478
 30
0.0
 11
47.97650405617324
 21
5.089491332573508
 31
0.0
  0
LINE
  5
110
330
2
100
AcDbEntity
  8
2
100
AcDbLine
 10
47.86150405617324
 20
5.089491332573508
 30
0.0
 11
47.97650405617324
 21
5.089491332573508
 31
0.0
  0
LINE
  5
111
330
2
100
AcDbEntity
  8
2
100
AcDbLine
 10
47.52650405617329
 20
4.86949133257351
 30
0.0
 11
47.97650405617324
 21
4.869491332573478
 31
0.0
  0
LINE
  5
112
330
2
100
AcDbEntity
  8
2
100
AcDbLine
 10
47.52650405617329
 20
4.86949133257351
 30
0.0
 11
47.52650405617329
 21
5.08949133257348
 31
0.0
  0
LINE
  5
113
330
2
100
AcDbEntity
  8
2
100
AcDbLine
 10
47.52650405617329
 20
5.08949133257348
 30
0.0
 11
47.64150405617324
 21
5.089491332573508
 31
0.0
  0
LINE
  5
114
330
2
100
AcDbEntity
  8
2
100
AcDbLine
 10
48.17650405617325
 20
4.86949133257351
 30
0.0
 11
48.17650405617325
 21
5.08949133257348
 31
0.0
  0
LINE
  5
115
330
2
100
AcDbEntity
  8
2
100
AcDbLine
 10
48.17650405617325
 20
5.08949133257348
 30
0.0
 11
48.29150405617326
 21
5.089491332573508
 31
0.0
  0
LINE
  5
116
330
2
100
AcDbEntity
  8
2
100
AcDbLine
 10
47.64150405617324
 20
5.089491332573508
 30
0.0
 11
47.64150405617324
 21
5.489491332573461
 31
0.0
  0
LINE
  5
117
330
2
100
AcDbEntity
  8
2
100
AcDbLine
 10
47.86150405617324
 20
5.089491332573508
 30
0.0
 11
47.86150405617324
 21
5.489491332573461
 31
0.0
  0
LINE
  5
118
330
2
100
AcDbEntity
  8
2
100
AcDbLine
 10
48.29150405617326
 20
5.089491332573508
 30
0.0
 11
48.29150405617326
 21
5.489491332573489
 31
0.0
  0
LINE
  5
119
330
2
100
AcDbEntity
  8
2
100
AcDbLine
 10
48.17650405617325
 20
4.86949133257351
 30
0.0
 11
48.51150405617326
 21
4.86949133257351
 31
0.0
  0
LINE
  5
11A
330
2
100
AcDbEntity
  8
2
100
AcDbLine
 10
48.51150405617326
 20
4.86949133257351
 30
0.0
 11
48.51150405617326
 21
5.489491332573489
 31
0.0
  0
LINE
  5
11B
330
2
100
AcDbEntity
  8
2
100
AcDbLine
 10
48.29150405617326
 20
5.489491332573489
 30
0.0
 11
47.86150405617324
 21
5.489491332573461
 31
0.0
  0
LINE
  5
11C
330
2
100
AcDbEntity
  8
2
100
AcDbLine
 10
48.42650405617326
 20
3.539491332573589
 30
0.0
 11
48.42650405617326
 21
4.54949133257352
 31
0.0
  0
LINE
  5
11D
330
2
100
AcDbEntity
  8
2
100
AcDbLine
 10
48.42650405617326
 20
4.54949133257352
 30
0.0
 11
48.42650405617326
 21
4.56249133257355
 31
0.0
  0
LINE
  5
11E
330
2
100
AcDbEntity
  8
2
100
AcDbLine
 10
48.22400405617326
 20
4.11949133257357
 30
0.0
 11
48.04350405617324
 21
4.11949133257357
 31
0.0
  0
ARC
  5
11F
330
2
100
AcDbEntity
  8
2
100
AcDbCircle
 10
48.29950405617326
 20
4.56249133257355
 30
0.0
 40
0.1269999999999989
100
AcDbArc
 50
0.0
 51
90.00004065716586
  0
LINE
  5
120
330
2
100
AcDbEntity
  8
2
100
AcDbLine
 10
48.94150405617306
 20
5.489491332573489
 30
0.0
 11
48.51150405617326
 21
5.489491332573489
 31
0.0
  0
LINE
  5
121
330
2
100
AcDbEntity
  8
2
100
AcDbLine
 10
50.27350405617326
 20
3.539491332573749
 30
0.0
 11
48.42650405617326
 21
3.539491332573589
 31
0.0
  0
LINE
  5
122
330
2
100
AcDbEntity
  8
2
100
AcDbLine
 10
48.73880405617324
 20
3.412491332573519
 30
0.0
 11
48.42650405617324
 21
3.412491332573519
 31
0.0
  0
LINE
  5
123
330
2
100
AcDbEntity
  8
2D
100
AcDbLine
 10
44.93227413254973
 20
3.089491332573508
 30
0.0
 11
41.50628461852302
 21
3.089491332573508
 31
0.0
  0
MTEXT
  5
124
330
2
100
AcDbEntity
  8
2D
100
AcDbMText
 10
41.34471318995159
 20
3.089491332573508
 30
0.0
 40
0.087
 41
0.0
 46
0.0
 71
     5
 72
     1
  1
\A1;.000
  7
SIMPLEX
 73
     1
 44
1.0
  0
LINE
  5
125
330
2
100
AcDbEntity
  8
2D
100
AcDbLine
 10
46.12650405617325
 20
4.283721256197051
 30
0.0
 11
46.12650405617325
 21
6.116225408437202
 31
0.0
  0
MTEXT
  5
126
330
2
100
AcDbEntity
  8
2D
100
AcDbMText
 10
46.12650405617325
 20
6.277796837008619
 30
0.0
 40
0.087
 41
0.0
 46
0.0
 71
     5
 72
     1
  1
\A1;.000
  7
SIMPLEX
 11
0.0000000000000001
 21
1.0
 31
0.0
 73
     1
 44
1.0
  0
LINE
  5
127
330
2
100
AcDbEntity
  8
2D
100
AcDbLine
 10
41.95280405617348
 20
4.739491332577497
 30
0.0
 11
41.50628461852302
 21
4.739491332577497
 31
0.0
  0
MTEXT
  5
128
330
2
100
AcDbEntity
  8
2D
100
AcDbMText
 10
41.31157033280874
 20
4.739491332577497
 30
0.0
 40
0.087
 41
0.0
 46
0.0
 71
     5
 72
     1
  1
1.650
  7
SIMPLEX
 73
     1
 44
1.0
  0
LINE
  5
129
330
2
100
AcDbEntity
  8
2D
100
AcDbLine
 10
41.98180405617347
 20
4.768491332577497
 30
0.0
 11
41.98180405617347
 21
6.116225408437202
 31
0.0
  0
MTEXT
  5
12A
330
2
100
AcDbEntity
  8
2D
100
AcDbMText
 10
41.98180405617347
 20
6.310939694151482
 30
0.0
 40
0.087
 41
0.0
 46
0.0
 71
     5
 72
     1
  1
4.147
  7
SIMPLEX
 11
0.0000000000000001
 21
1.0
 31
0.0
 73
     1
 44
1.0
  0
LINE
  5
12B
330
2
100
AcDbEntity
  8
2D
100
AcDbLine
 10
43.0915040561733
 20
5.518491332573489
 30
0.0
 11
43.0915040561733
 21
6.116225408437202
 31
0.0
  0
MTEXT
  5
12C
330
2
100
AcDbEntity
  8
2D
100
AcDbMText
 10
43.0915040561733
 20
6.319225408437191
 30
0.0
 40
0.087
 41
0.0
 46
0.0
 71
     5
 72
     1
  1
\A1;3.035
  7
SIMPLEX
 11
0.0000000000000001
 21
1.0
 31
0.0
 73
     1
 44
1.0
  0
LINE
  5
12D
330
2
100
AcDbEntity
  8
2D
100
AcDbLine
 10
42.66150405617357
 20
5.518491332573489
 30
0.0
 11
42.66150405617357
 21
5.768225408437203
 31
0.0
  0
LINE
  5
12E
330
2
100
AcDbEntity
  8
2D
100
AcDbLine
 10
42.66150405617357
 20
5.768225408437203
 30
0.0
 11
42.59135972933394
 21
5.942225408437202
 31
0.0
  0
LINE
  5
12F
330
2
100
AcDbEntity
  8
2D
100
AcDbLine
 10
42.59135972933394
 20
5.942225408437202
 30
0.0
 11
42.59135972933394
 21
6.116225408437202
 31
0.0
  0
MTEXT
  5
130
330
2
100
AcDbEntity
  8
2D
100
AcDbMText
 10
42.59135972933394
 20
6.319225408437191
 30
0.0
 40
0.087
 41
0.0
 46
0.0
 71
     5
 72
     1
  1
\A1;3.465
  7
SIMPLEX
 11
0.0000000000000001
 21
1.0
 31
0.0
 73
     1
 44
1.0
  0
LINE
  5
131
330
2
100
AcDbEntity
  8
2D
100
AcDbLine
 10
43.5142040561733
 20
5.318491332561492
 30
0.0
 11
43.5142040561733
 21
6.116225408437202
 31
0.0
  0
MTEXT
  5
132
330
2
100
AcDbEntity
  8
2D
100
AcDbMText
 10
43.50691008313205
 20
6.508708224355121
 30
0.0
 40
0.087
 41
0.0
 46
0.0
 71
     5
 72
     1
  1
2.612.025
  7
SIMPLEX
 11
0.0000000000000001
 21
1.0
 31
0.0
 73
     1
 44
1.0
  0
LINE
  5
133
330
2
100
AcDbEntity
  8
2D
100
AcDbLine
 10
43.31150405617324
 20
5.518491332573489
 30
0.0
 11
43.31150405617324
 21
6.116225408437202
 31
0.0
  0
MTEXT
  5
134
330
2
100
AcDbEntity
  8
2D
100
AcDbMText
 10
43.31150405617324
 20
6.310939694151482
 30
0.0
 40
0.087
 41
0.0
 46
0.0
 71
     5
 72
     1
  1
\A1;2.815
  7
SIMPLEX
 11
0.0000000000000001
 21
1.0
 31
0.0
 73
     1
 44
1.0
  0
LINE
  5
135
330
2
100
AcDbEntity
  8
2D
100
AcDbLine
 10
48.7678040561733
 20
2.63949133257347
 30
0.0
 11
50.68345835708608
 21
2.63949133257347
 31
0.0
  0
MTEXT
  5
136
330
2
100
AcDbEntity
  8
2D
100
AcDbMText
 10
50.84502978565753
 20
2.63949133257347
 30
0.0
 40
0.087
 41
0.0
 46
0.0
 71
     5
 72
     1
  1
\A1;.450
  7
SIMPLEX
 73
     1
 44
1.0
  0
LINE
  5
137
330
2
100
AcDbEntity
  8
2D
100
AcDbLine
 10
48.76780405617324
 20
2.766491332573473
 30
0.0
 11
50.68345835708608
 21
2.766491332573473
 31
0.0
  0
MTEXT
  5
138
330
2
100
AcDbEntity
  8
2D
100
AcDbMText
 10
50.84502978565753
 20
2.766491332573473
 30
0.0
 40
0.087
 41
0.0
 46
0.0
 71
     5
 72
     1
  1
\A1;.323
  7
SIMPLEX
 73
     1
 44
1.0
  0
LINE
  5
139
330
2
100
AcDbEntity
  8
2D
100
AcDbLine
 10
48.76780405617324
 20
3.412491332573519
 30
0.0
 11
50.68345835708608
 21
3.412491332573519
 31
0.0
  0
MTEXT
  5
13A
330
2
100
AcDbEntity
  8
2D
100
AcDbMText
 10
50.84502978565753
 20
3.412491332573519
 30
0.0
 40
0.087
 41
0.0
 46
0.0
 71
     5
 72
     1
  1
\A1;.323
  7
SIMPLEX
 73
     1
 44
1.0
  0
LINE
  5
13B
330
2
100
AcDbEntity
  8
2D
100
AcDbLine
 10
48.25300405617324
 20
4.11949133257357
 30
0.0
 11
50.68345835708608
 21
4.11949133257357
 31
0.0
  0
MTEXT
  5
13C
330
2
100
AcDbEntity
  8
2D
100
AcDbMText
 10
50.87817264280037
 20
4.11949133257357
 30
0.0
 40
0.087
 41
0.0
 46
0.0
 71
     5
 72
     1
  1
\A1;1.030
  7
SIMPLEX
 73
     1
 44
1.0
  0
LINE
  5
13D
330
2
100
AcDbEntity
  8
2D
100
AcDbLine
 10
48.22400405617326
 20
4.14849133257357
 30
0.0
 11
48.22400405617329
 21
6.116225408437202
 31
0.0
  0
MTEXT
  5
13E
330
2
100
AcDbEntity
  8
2D
100
AcDbMText
 10
48.22400405617329
 20
6.319225408437191
 30
0.0
 40
0.087
 41
0.0
 46
0.0
 71
     5
 72
     1
  1
\A1;2.097
  7
SIMPLEX
 11
0.0000000000000001
 21
1.0
 31
0.0
 73
     1
 44
1.0
  0
LINE
  5
13F
330
2
100
AcDbEntity
  8
2D
100
AcDbLine
 10
48.04400405617323
 20
4.14849133257357
 30
0.0
 11
48.04400405617322
 21
6.116225408437202
 31
0.0
  0
MTEXT
  5
140
330
2
100
AcDbEntity
  8
2D
100
AcDbMText
 10
48.04400405617322
 20
6.302653979865763
 30
0.0
 40
0.087
 41
0.0
 46
0.0
 71
     5
 72
     1
  1
\A1;1.917
  7
SIMPLEX
 11
0.0000000000000001
 21
1.0
 31
0.0
 73
     1
 44
1.0
  0
LINE
  5
141
330
2
100
AcDbEntity
  8
2D
100
AcDbLine
 10
47.9155040561733
 20
4.14849133257357
 30
0.0
 11
47.9155040561733
 21
6.116225408437202
 31
0.0
  0
MTEXT
  5
142
330
2
100
AcDbEntity
  8
2D
100
AcDbMText
 10
47.90821008313209
 20
6.505638967350208
 30
0.0
 40
0.087
 41
0.0
 46
0.0
 71
     5
 72
     1
  1
1.789.025
  7
SIMPLEX
 11
0.0000000000000001
 21
1.0
 31
0.0
 73
     1
 44
1.0
  0
LINE
  5
143
330
2
100
AcDbEntity
  8
2D
100
AcDbLine
 10
48.32050405617327
 20
1.089491332573508
 30
0.0
 11
50.68345835708608
 21
1.089491332573508
 31
0.0
  0
MTEXT
  5
144
330
2
100
AcDbEntity
  8
2D
100
AcDbMText
 10
50.88645835708608
 20
1.089491332573508
 30
0.0
 40
0.087
 41
0.0
 46
0.0
 71
     5
 72
     1
  1
\A1;2.000
  7
SIMPLEX
 73
     1
 44
1.0
  0
LINE
  5
145
330
2
100
AcDbEntity
  8
2D
100
AcDbLine
 10
48.54050405617325
 20
1.309491332573511
 30
0.0
 11
50.68345835708608
 21
1.309491332573511
 31
0.0
  0
MTEXT
  5
146
330
2
100
AcDbEntity
  8
2D
100
AcDbMText
 10
50.87817264280037
 20
1.309491332573511
 30
0.0
 40
0.087
 41
0.0
 46
0.0
 71
     5
 72
     1
  1
\A1;1.780
  7
SIMPLEX
 73
     1
 44
1.0
  0
LINE
  5
147
330
2
100
AcDbEntity
  8
2D
100
AcDbLine
 10
44.27650405617327
 20
1.060491332573509
 30
0.0
 11
44.27650405617327
 21
0.2269397816581105
 31
0.0
  0
LINE
  5
148
330
2
100
AcDbEntity
  8
2D
100
AcDbLine
 10
44.72650405617324
 20
1.060491332573544
 30
0.0
 11
44.72650405617324
 21
0.2269397816581105
 31
0.0
  0
LINE
  5
149
330
2
100
AcDbEntity
  8
2D
100
AcDbLine
 10
44.18950405617325
 20
0.255939781658121
 30
0.0
 11
44.10250405617325
 21
0.255939781658121
 31
0.0
  0
LINE
  5
14A
330
2
100
AcDbEntity
  8
2D
100
AcDbLine
 10
44.81350405617324
 20
0.255939781658121
 30
0.0
 11
44.90050405617326
 21
0.255939781658121
 31
0.0
  0
SOLID
  5
14B
330
2
100
AcDbEntity
  8
2D
100
AcDbTrace
 10
44.18950405617325
 20
0.2704397816581192
 30
0.0
 11
44.18950405617325
 21
0.2414397816581193
 31
0.0
 12
44.27650405617327
 22
0.255939781658121
 32
0.0
 13
44.27650405617327
 23
0.255939781658121
 33
0.0
  0
SOLID
  5
14D
330
2
100
AcDbEntity
  8
2D
100
AcDbTrace
 10
44.81350405617324
 20
0.2704397816581192
 30
0.0
 11
44.81350405617324
 21
0.2414397816581193
 31
0.0
 12
44.72650405617324
 22
0.255939781658121
 32
0.0
 13
44.72650405617324
 23
0.255939781658121
 33
0.0
  0
MTEXT
  5
14E
330
2
100
AcDbEntity
  8
2D
100
AcDbMText
 10
43.76565156389449
 20
0.2505934085301398
 30
0.0
 40
0.087
 41
0.0
 46
0.0
 71
     5
 72
     1
  1
.450 TYP
  7
SIMPLEX
 73
     1
 44
1.0
  0
LINE
  5
14F
330
2
100
AcDbEntity
  8
2D
100
AcDbLine
 10
43.92383700588864
 20
1.489491332573518
 30
0.0
 11
41.63823403988743
 21
1.489491332573518
 31
0.0
  0
MTEXT
  5
150
330
2
100
AcDbEntity
  8
2D
100
AcDbMText
 10
41.44351975417315
 20
1.489491332573518
 30
0.0
 40
0.087
 41
0.0
 46
0.0
 71
     5
 72
     1
  1
\A1;1.600
  7
SIMPLEX
 73
     1
 44
1.0
  0
LINE
  5
151
330
2
100
AcDbEntity
  8
2D
100
AcDbLine
 10
43.79683694975208
 20
1.61649133257352
 30
0.0
 11
41.63823403988743
 21
1.61649133257352
 31
0.0
  0
MTEXT
  5
152
330
2
100
AcDbEntity
  8
2D
100
AcDbMText
 10
41.24067484613552
 20
1.61649133257352
 30
0.0
 40
0.087
 41
0.0
 46
0.0
 71
     5
 72
     1
  1
1.473.025
  7
SIMPLEX
 73
     1
 44
1.0
  0
LINE
  5
153
330
2
100
AcDbEntity
  8
2D
100
AcDbLine
 10
48.42650405617326
 20
4.57849133257352
 30
0.0
 11
48.42650405617326
 21
6.116225408437202
 31
0.0
  0
MTEXT
  5
154
330
2
100
AcDbEntity
  8
2D
100
AcDbMText
 10
48.42650405617326
 20
6.319225408437191
 30
0.0
 40
0.087
 41
0.0
 46
0.0
 71
     5
 72
     1
  1
\A1;2.300
  7
SIMPLEX
 11
0.0000000000000001
 21
1.0
 31
0.0
 73
     1
 44
1.0
  0
LINE
  5
155
330
2
100
AcDbEntity
  8
2D
100
AcDbLine
 10
48.65150405617327
 20
5.34349133257351
 30
0.0
 11
48.65150405617329
 21
6.116225408437202
 31
0.0
  0
MTEXT
  5
156
330
2
100
AcDbEntity
  8
2D
100
AcDbMText
 10
48.65150405617329
 20
6.491750166501031
 30
0.0
 40
0.087
 41
0.0
 46
0.0
 71
     5
 72
     1
  1
2.525 PKG
  7
SIMPLEX
 11
0.0000000000000001
 21
1.0
 31
0.0
 73
     1
 44
1.0
  0
LINE
  5
157
330
2
100
AcDbEntity
  8
2D
100
AcDbLine
 10
42.63250405617357
 20
5.289491332561478
 30
0.0
 11
41.50628461852302
 21
5.289491332561478
 31
0.0
  0
MTEXT
  5
158
330
2
100
AcDbEntity
  8
2D
100
AcDbMText
 10
41.30328461852302
 20
5.289491332561478
 30
0.0
 40
0.087
 41
0.0
 46
0.0
 71
     5
 72
     1
  1
2.200
  7
SIMPLEX
 73
     1
 44
1.0
  0
LINE
  5
159
330
2
100
AcDbEntity
  8
2D
100
AcDbLine
 10
42.63250405617357
 20
5.489491332573489
 30
0.0
 11
41.50628461852302
 21
5.489491332573489
 31
0.0
  0
MTEXT
  5
15A
330
2
100
AcDbEntity
  8
2D
100
AcDbMText
 10
41.30328461852302
 20
5.489491332573489
 30
0.0
 40
0.087
 41
0.0
 46
0.0
 71
     5
 72
     1
  1
\A1;2.400
  7
SIMPLEX
 73
     1
 44
1.0
  0
LINE
  5
15B
330
2
100
AcDbEntity
  8
2D
100
AcDbLine
 10
48.68050405617326
 20
5.314491332573499
 30
0.0
 11
50.48135820003604
 21
5.31449133257351
 31
0.0
  0
MTEXT
  5
15C
330
2
100
AcDbEntity
  8
2D
100
AcDbMText
 10
50.8614432895893
 20
5.314491332573499
 30
0.0
 40
0.087
 41
0.0
 46
0.0
 71
     5
 72
     1
  1
2.225 PKG
  7
SIMPLEX
 73
     1
 44
1.0
  0
LWPOLYLINE
  5
15D
330
2
100
AcDbEntity
  8
2
100
AcDbPolyline
 90
        4
 70
     1
 43
0.0
 10
41.56309188604299
 20
-6.464213618822135
 10
41.56309188604299
 20
-6.117280881844379
 10
41.21615914906532
 20
-6.117280881844379
 10
41.21615914906532
 20
-6.464213618822135
  0
HATCH
  5
15E
330
2
100
AcDbEntity
  8
2D
100
AcDbHatch
 10
0.0
 20
0.0
 30
0.0
210
0.0
220
0.0
230
1.0
  2
ANSI31
 70
     0
 71
     0
 91
        1
 92
        1
 93
        4
 72
     1
 10
41.56309188604299
 20
-6.464213618822135
 11
41.56309188604299
 21
-6.117280881844379
 72
     1
 10
41.56309188604299
 20
-6.117280881844379
 11
41.21615914906532
 21
-6.117280881844379
 72
     1
 10
41.21615914906532
 20
-6.117280881844379
 11
41.21615914906532
 21
-6.464213618822135
 72
     1
 10
41.21615914906532
 20
-6.464213618822135
 11
41.56309188604299
 21
-6.464213618822135
 97
        0
 75
     0
 76
     1
 52
0.0
 41
0.525
 77
     0
 78
     1
 53
45.0
 43
45.86148760602617
 44
1.400086848380979
 45
-0.0464038825153672
 46
0.0464038825153672
 79
     0
 98
        1
 10
145.2137947732807
 20
25.46039561381036
  0
MTEXT
  5
15F
330
2
100
AcDbEntity
  8
2D
100
AcDbMText
 10
42.84353020088438
 20
-6.297994597838449
 30
0.0
 40
0.09135
 41
0.0
 46
0.0
 71
     5
 72
     1
  1
HALF ETCH ON BOTTOM SIDE
  7
SIMPLEX
 73
     1
 44
1.0
  0
LINE
  5
160
330
2
100
AcDbEntity
  8
2D
100
AcDbLine
 10
47.2917339797968
 20
3.089491332573508
 30
0.0
 11
48.14194119411907
 21
3.089491332573508
 31
0.0
  0
SOLID
  5
161
330
2
100
AcDbEntity
  8
2D
100
AcDbTrace
 10
48.12744119411907
 20
3.002491332573509
 30
0.0
 11
48.14194119411907
 21
3.089491332573508
 31
0.0
 12
48.15644119411906
 22
3.002491332573509
 32
0.0
 13
48.15644119411906
 23
3.002491332573509
 33
0.0
1001
ACAD
1000
DSTYLE
1002
{
1070
   147
1040
0.029
1070
    77
1070
     0
1002
}
  0
LWPOLYLINE
  5
162
330
2
100
AcDbEntity
  8
2D
100
AcDbPolyline
 90
        2
 70
     0
 43
0.0
 10
48.14194119411907
 20
3.002491332573509
 10
48.14194119411907
 20
2.861414083931478
1001
ACAD
1000
DSTYLE
1002
{
1070
   147
1040
0.029
1070
    77
1070
     0
1002
}
  0
LWPOLYLINE
  5
163
330
2
100
AcDbEntity
  8
2D
100
AcDbPolyline
 90
        2
 70
     0
 43
0.0
 10
44.10520108983059
 20
3.002491332573509
 10
44.10520108983059
 20
2.861414083931478
1001
ACAD
1000
DSTYLE
1002
{
1070
   147
1040
0.029
1070
    77
1070
     0
1002
}
  0
SOLID
  5
164
330
2
100
AcDbEntity
  8
2D
100
AcDbTrace
 10
44.11970108983058
 20
3.002491332573509
 30
0.0
 11
44.10520108983059
 21
3.089491332573508
 31
0.0
 12
44.0907010898306
 22
3.002491332573509
 32
0.0
 13
44.0907010898306
 23
3.002491332573509
 33
0.0
1001
ACAD
1000
DSTYLE
1002
{
1070
   147
1040
0.029
1070
    77
1070
     0
1002
}
  0
MTEXT
  5
165
330
2
100
AcDbEntity
  8
2D
100
AcDbMText
 10
44.10636201763131
 20
2.763873793534923
 30
0.0
 40
0.087
 41
0.0
 46
0.0
 71
     5
 72
     1
  1
A
  7
SIMPLEX
 73
     1
 44
1.0
  0
MTEXT
  5
166
330
2
100
AcDbEntity
  8
2D
100
AcDbMText
 10
48.14145106414449
 20
2.761339689732089
 30
0.0
 40
0.087
 41
0.0
 46
0.0
 71
     5
 72
     1
  1
A
  7
SIMPLEX
 73
     1
 44
1.0
  0
LINE
  5
167
330
2
100
AcDbEntity
  8
2
100
AcDbLine
 10
44.30047397374936
 20
-1.267031146194138
 30
0.0
 11
48.13547397374934
 21
-1.267031146194128
 31
0.0
  0
LINE
  5
168
330
2
100
AcDbEntity
  8
2
100
AcDbLine
 10
44.42897397374936
 20
-1.380531146194137
 30
0.0
 11
44.42897397374936
 21
-1.394031146194137
 31
0.0
  0
LINE
  5
169
330
2
100
AcDbEntity
  8
2D
  6
CENTER2
100
AcDbLine
 10
46.21797397374936
 20
-1.833673766895707
 30
0.0
 11
46.21797397374936
 21
-0.8850167550305805
 31
0.0
  0
LINE
  5
16A
330
2
100
AcDbEntity
  8
2
100
AcDbLine
 10
44.37897397374936
 20
-1.330531146194136
 30
0.0
 11
44.30047397374936
 21
-1.330531146194136
 31
0.0
  0
LINE
  5
16B
330
2
100
AcDbEntity
  8
2
100
AcDbLine
 10
44.42897397374935
 20
-1.394031146194137
 30
0.0
 11
48.00697397374934
 21
-1.394031146194137
 31
0.0
  0
LINE
  5
16C
330
2
100
AcDbEntity
  8
2
100
AcDbLine
 10
44.30047397374936
 20
-1.330531146194136
 30
0.0
 11
44.30047397374936
 21
-1.267031146194138
 31
0.0
  0
MTEXT
  5
16D
330
2
100
AcDbEntity
  8
2D
100
AcDbMText
 10
46.2967555819493
 20
-2.05412103827496
 30
0.0
 40
0.087
 41
0.0
 46
0.0
 71
     5
 72
     1
  1
{\LSECTION A-A}
  7
SIMPLEX
 73
     1
 44
1.0
  0
MTEXT
  5
16E
330
2
100
AcDbEntity
  8
2D
100
AcDbMText
 10
45.34155957320732
 20
-0.8967695179692967
 30
0.0
 40
0.087
 41
0.0
 46
0.0
 71
     9
 72
     1
  1
\A1;TOP
  7
SIMPLEX
 73
     1
 44
1.0
  0
SOLID
  5
16F
330
2
100
AcDbEntity
  8
2D
100
AcDbTrace
 10
45.59755214370215
 20
-1.180559373706259
 30
0.0
 11
45.61492691169497
 21
-1.267031146194138
 31
0.0
 12
45.57044642116517
 22
-1.19086858346003
 32
0.0
 13
45.57044642116517
 23
-1.19086858346003
 33
0.0
1001
ACAD
1000
DSTYLE
1002
{
1070
   147
1040
0.029
1070
    77
1070
     0
1002
}
  0
LWPOLYLINE
  5
170
330
2
100
AcDbEntity
  8
2D
100
AcDbPolyline
 90
        3
 70
     0
 43
0.0
 10
45.58399928243368
 20
-1.185713978583137
 10
45.45755957320731
 20
-0.8532695179692879
 10
45.3705595732073
 20
-0.8532695179692879
1001
ACAD
1000
DSTYLE
1002
{
1070
   147
1040
0.029
1070
    77
1070
     0
1002
}
  0
LINE
  5
171
330
2
100
AcDbEntity
  8
2
100
AcDbLine
 10
48.13547397374934
 20
-1.330531146194136
 30
0.0
 11
48.13547397374934
 21
-1.267031146194138
 31
0.0
  0
LINE
  5
172
330
2
100
AcDbEntity
  8
2
100
AcDbLine
 10
48.05697397374932
 20
-1.330531146194136
 30
0.0
 11
48.13547397374934
 21
-1.330531146194136
 31
0.0
  0
LINE
  5
173
330
2
100
AcDbEntity
  8
2
100
AcDbLine
 10
48.00697397374934
 20
-1.380531146194137
 30
0.0
 11
48.00697397374934
 21
-1.394031146194137
 31
0.0
  0
LINE
  5
174
330
2
100
AcDbEntity
  8
2D
100
AcDbLine
 10
48.16447397374933
 20
-1.330531146194136
 30
0.0
 11
48.45865535347093
 21
-1.330531146194136
 31
0.0
  0
LINE
  5
175
330
2
100
AcDbEntity
  8
2D
100
AcDbLine
 10
48.04675271573723
 20
-1.394031146194137
 30
0.0
 11
48.45865535347093
 21
-1.394031146194137
 31
0.0
  0
LINE
  5
176
330
2
100
AcDbEntity
  8
2D
100
AcDbLine
 10
48.42965535347094
 20
-1.243531146194136
 30
0.0
 11
48.42965535347094
 21
-1.156531146194136
 31
0.0
  0
LINE
  5
177
330
2
100
AcDbEntity
  8
2D
100
AcDbLine
 10
48.42965535347094
 20
-1.481031146194137
 30
0.0
 11
48.42965535347094
 21
-1.568031146194137
 31
0.0
  0
SOLID
  5
178
330
2
100
AcDbEntity
  8
2D
100
AcDbTrace
 10
48.41515535347094
 20
-1.243531146194136
 30
0.0
 11
48.44415535347093
 21
-1.243531146194136
 31
0.0
 12
48.42965535347094
 22
-1.330531146194136
 32
0.0
 13
48.42965535347094
 23
-1.330531146194136
 33
0.0
  0
SOLID
  5
179
330
2
100
AcDbEntity
  8
2D
100
AcDbTrace
 10
48.41515535347094
 20
-1.481031146194137
 30
0.0
 11
48.44415535347093
 21
-1.481031146194137
 31
0.0
 12
48.42965535347094
 22
-1.394031146194137
 32
0.0
 13
48.42965535347094
 23
-1.394031146194137
 33
0.0
  0
MTEXT
  5
17A
330
2
100
AcDbEntity
  8
2D
100
AcDbMText
 10
48.42965535347094
 20
-1.72131686047987
 30
0.0
 40
0.087
 41
0.0
 46
0.0
 71
     5
 72
     1
  1
.063
  7
SIMPLEX
 11
0.0000000000000001
 21
1.0
 31
0.0
 73
     1
 44
1.0
  0
LINE
  5
17B
330
2
100
AcDbEntity
  8
2D
100
AcDbLine
 10
43.95914718768176
 20
4.233205981178798
 30
0.0
 11
43.95914718768176
 21
1.945776683968219
 31
0.0
  0
SOLID
  5
17C
330
2
100
AcDbEntity
  8
2D
100
AcDbTrace
 10
43.87214718768176
 20
1.960276683968221
 30
0.0
 11
43.95914718768176
 21
1.945776683968219
 31
0.0
 12
43.87214718768176
 22
1.931276683968221
 32
0.0
 13
43.87214718768176
 23
1.931276683968221
 33
0.0
1001
ACAD
1000
DSTYLE
1002
{
1070
   147
1040
0.029
1070
    77
1070
     0
1002
}
  0
LWPOLYLINE
  5
17D
330
2
100
AcDbEntity
  8
2D
100
AcDbPolyline
 90
        2
 70
     0
 43
0.0
 10
43.87214718768176
 20
1.945776683968219
 10
43.70187988674259
 20
1.945776683968219
1001
ACAD
1000
DSTYLE
1002
{
1070
   147
1040
0.029
1070
    77
1070
     0
1002
}
  0
SOLID
  5
17E
330
2
100
AcDbEntity
  8
2D
100
AcDbTrace
 10
-43.87214718768176
 20
4.2187059811788
 30
0.0
 11
-43.95914718768176
 21
4.233205981178798
 31
0.0
 12
-43.87214718768176
 22
4.2477059811788
 32
0.0
 13
-43.87214718768176
 23
4.2477059811788
 33
0.0
210
0.0
220
0.0
230
-1.0
1001
ACAD
1000
DSTYLE
1002
{
1070
   147
1040
0.029
1070
    77
1070
     0
1002
}
  0
LWPOLYLINE
  5
17F
330
2
100
AcDbEntity
  8
2D
100
AcDbPolyline
 90
        2
 70
     0
 43
0.0
 10
-43.87214718768176
 20
4.233205981178798
 10
-43.70187988674259
 20
4.233205981178798
210
0.0
220
0.0
230
-1.0
1001
ACAD
1000
DSTYLE
1002
{
1070
   147
1040
0.029
1070
    77
1070
     0
1002
}
  0
MTEXT
  5
180
330
2
100
AcDbEntity
  8
2D
100
AcDbMText
 10
43.7191969938248
 20
4.308558795075473
 30
0.0
 40
0.087
 41
0.0
 46
0.0
 71
     5
 72
     1
  1
B
  7
SIMPLEX
 73
     1
 44
1.0
  0
MTEXT
  5
181
330
2
100
AcDbEntity
  8
2D
100
AcDbMText
 10
43.7138970282664
 20
1.83840116003337
 30
0.0
 40
0.087
 41
0.0
 46
0.0
 71
     5
 72
     1
  1
B
  7
SIMPLEX
 73
     1
 44
1.0
  0
LINE
  5
182
330
2
100
AcDbEntity
  8
2D
100
AcDbLine
 10
44.02900405617325
 20
3.589491332573508
 30
0.0
 11
43.8265040561733
 21
3.589491332573508
 31
0.0
  0
LINE
  5
183
330
2
100
AcDbEntity
  8
2D
100
AcDbLine
 10
44.02900405617325
 20
2.589491332573508
 30
0.0
 11
43.82650405617326
 21
2.589491332573508
 31
0.0
  0
LINE
  5
184
330
2
100
AcDbEntity
  8
2D
100
AcDbLine
 10
44.02900405617325
 20
2.132491332573508
 30
0.0
 11
43.82650405617326
 21
2.132491332573508
 31
0.0
  0
LINE
  5
185
330
2
100
AcDbEntity
  8
2D
100
AcDbLine
 10
44.02900405617325
 20
4.046491332573509
 30
0.0
 11
43.82650405617326
 21
4.046491332573509
 31
0.0
  0
LINE
  5
186
330
2
100
AcDbEntity
  8
2D
100
AcDbLine
 10
48.22400405617326
 20
4.046491332573509
 30
0.0
 11
48.42650405617324
 21
4.046491332573509
 31
0.0
  0
LINE
  5
187
330
2
100
AcDbEntity
  8
2D
100
AcDbLine
 10
48.22400405617326
 20
3.589491332573508
 30
0.0
 11
48.42650405617324
 21
3.589491332573508
 31
0.0
  0
LINE
  5
188
330
2
100
AcDbEntity
  8
2D
100
AcDbLine
 10
48.22400405617326
 20
2.589491332573508
 30
0.0
 11
48.42650405617324
 21
2.589491332573508
 31
0.0
  0
LINE
  5
189
330
2
100
AcDbEntity
  8
2D
100
AcDbLine
 10
48.22400405617326
 20
2.132491332573508
 30
0.0
 11
48.42650405617324
 21
2.132491332573508
 31
0.0
  0
LINE
  5
18A
330
2
100
AcDbEntity
  8
2
100
AcDbLine
 10
45.71797397374935
 20
-2.878733841581258
 30
0.0
 11
46.71797397374935
 21
-2.878733841581258
 31
0.0
  0
LINE
  5
18B
330
2
100
AcDbEntity
  8
2
100
AcDbLine
 10
46.71797397374935
 20
-2.878733841581258
 30
0.0
 11
47.17497397374934
 21
-3.335733841581273
 31
0.0
  0
LINE
  5
18C
330
2
100
AcDbEntity
  8
2
100
AcDbLine
 10
45.71797397374935
 20
-2.751733841581273
 30
0.0
 11
46.71797397374935
 21
-2.751733841581273
 31
0.0
  0
LINE
  5
18D
330
2
100
AcDbEntity
  8
2
100
AcDbLine
 10
47.17497397374934
 20
-3.335733841581273
 30
0.0
 11
47.64340618086388
 21
-3.335733841581273
 31
0.0
  0
LINE
  5
18E
330
2
100
AcDbEntity
  8
2
100
AcDbLine
 10
47.17497397374934
 20
-3.20873384158127
 30
0.0
 11
47.64340618086388
 21
-3.20873384158127
 31
0.0
  0
LINE
  5
18F
330
2
100
AcDbEntity
  8
2
100
AcDbLine
 10
46.71797397374935
 20
-2.751733841581273
 30
0.0
 11
47.17497397374934
 21
-3.20873384158127
 31
0.0
  0
LINE
  5
190
330
2
100
AcDbEntity
  8
2
100
AcDbLine
 10
45.71797397374935
 20
-2.878733841581258
 30
0.0
 11
45.26097397374934
 21
-3.335733841581273
 31
0.0
  0
LINE
  5
191
330
2
100
AcDbEntity
  8
2
100
AcDbLine
 10
45.26097397374934
 20
-3.20873384158127
 30
0.0
 11
44.79254176663483
 21
-3.20873384158127
 31
0.0
  0
LINE
  5
192
330
2
100
AcDbEntity
  8
2
100
AcDbLine
 10
45.71797397374935
 20
-2.751733841581273
 30
0.0
 11
45.26097397374934
 21
-3.20873384158127
 31
0.0
  0
LINE
  5
193
330
2
100
AcDbEntity
  8
2
100
AcDbLine
 10
45.26097397374934
 20
-3.335733841581273
 30
0.0
 11
44.79254176663483
 21
-3.335733841581273
 31
0.0
  0
LWPOLYLINE
  5
194
330
2
100
AcDbEntity
  8
2
100
AcDbPolyline
 90
        3
 70
     0
 43
0.0
 10
44.79254176663483
 20
-3.335733841581273
 10
44.85084739875555
 20
-3.27780259599227
 10
44.79254176663483
 20
-3.20873384158127
  0
LWPOLYLINE
  5
195
330
2
100
AcDbEntity
  8
2
100
AcDbPolyline
 90
        3
 70
     0
 43
0.0
 10
47.64340618086388
 20
-3.335733841581273
 10
47.58749045406609
 20
-3.271218683583221
 10
47.64340618086388
 20
-3.20873384158127
  0
LINE
  5
196
330
2
100
AcDbEntity
  8
2D
  6
CENTER2
100
AcDbLine
 10
46.21797397374936
 20
-2.488198954485682
 30
0.0
 11
46.21797397374936
 21
-3.131150175235362
 31
0.0
  0
LINE
  5
197
330
2
100
AcDbEntity
  8
2D
100
AcDbLine
 10
45.71797397374935
 20
-2.907733841581258
 30
0.0
 11
45.71797397374935
 21
-3.513195590570539
 31
0.0
  0
LINE
  5
198
330
2
100
AcDbEntity
  8
2D
100
AcDbLine
 10
46.71797397374935
 20
-2.907733841581258
 30
0.0
 11
46.71797397374935
 21
-3.513195590570539
 31
0.0
  0
LINE
  5
199
330
2
100
AcDbEntity
  8
2D
100
AcDbLine
 10
46.80497397374937
 20
-3.484195590570539
 30
0.0
 11
46.86898598210674
 21
-3.484195590570539
 31
0.0
  0
LINE
  5
19A
330
2
100
AcDbEntity
  8
2D
100
AcDbLine
 10
45.63097397374936
 20
-3.484195590570539
 30
0.0
 11
45.56696196539201
 21
-3.484195590570539
 31
0.0
  0
SOLID
  5
19B
330
2
100
AcDbEntity
  8
2D
100
AcDbTrace
 10
46.80497397374937
 20
-3.498695590570541
 30
0.0
 11
46.80497397374937
 21
-3.469695590570538
 31
0.0
 12
46.71797397374935
 22
-3.484195590570539
 32
0.0
 13
46.71797397374935
 23
-3.484195590570539
 33
0.0
  0
SOLID
  5
19C
330
2
100
AcDbEntity
  8
2D
100
AcDbTrace
 10
45.63097397374936
 20
-3.498695590570541
 30
0.0
 11
45.63097397374936
 21
-3.469695590570538
 31
0.0
 12
45.71797397374935
 22
-3.484195590570539
 32
0.0
 13
45.71797397374935
 23
-3.484195590570539
 33
0.0
  0
MTEXT
  5
19D
330
2
100
AcDbEntity
  8
2D
100
AcDbMText
 10
46.21797397374936
 20
-3.484195590570539
 30
0.0
 40
0.087
 41
0.0
 46
0.0
 71
     5
 72
     1
  1
1.000.100
  7
SIMPLEX
 73
     1
 44
1.0
  0
LINE
  5
19E
330
2
100
AcDbEntity
  8
2D
100
AcDbLine
 10
44.76354176663486
 20
-3.335733841581273
 30
0.0
 11
44.50748105741765
 21
-3.335733841581273
 31
0.0
  0
LINE
  5
19F
330
2
100
AcDbEntity
  8
2D
100
AcDbLine
 10
44.76354176663486
 20
-3.20873384158127
 30
0.0
 11
44.50748105741765
 21
-3.20873384158127
 31
0.0
  0
LINE
  5
1A0
330
2
100
AcDbEntity
  8
2D
100
AcDbLine
 10
44.53648105741765
 20
-3.422733841581273
 30
0.0
 11
44.53648105741765
 21
-3.509733841581258
 31
0.0
  0
LINE
  5
1A1
330
2
100
AcDbEntity
  8
2D
100
AcDbLine
 10
44.53648105741765
 20
-3.121733841581271
 30
0.0
 11
44.53648105741765
 21
-3.034733841581257
 31
0.0
  0
SOLID
  5
1A2
330
2
100
AcDbEntity
  8
2D
100
AcDbTrace
 10
44.52198105741764
 20
-3.422733841581273
 30
0.0
 11
44.55098105741766
 21
-3.422733841581273
 31
0.0
 12
44.53648105741765
 22
-3.335733841581273
 32
0.0
 13
44.53648105741765
 23
-3.335733841581273
 33
0.0
  0
SOLID
  5
1A3
330
2
100
AcDbEntity
  8
2D
100
AcDbTrace
 10
44.52198105741764
 20
-3.121733841581271
 30
0.0
 11
44.55098105741766
 21
-3.121733841581271
 31
0.0
 12
44.53648105741765
 22
-3.20873384158127
 32
0.0
 13
44.53648105741765
 23
-3.20873384158127
 33
0.0
  0
MTEXT
  5
1A4
330
2
100
AcDbEntity
  8
2D
100
AcDbMText
 10
44.53648105741765
 20
-2.673784398962268
 30
0.0
 40
0.087
 41
0.0
 46
0.0
 71
     5
 72
     1
  1
.127.008
  7
SIMPLEX
 11
-0.0000000000000001
 21
1.0
 31
0.0
 73
     1
 44
1.0
  0
LINE
  5
1A5
330
2
100
AcDbEntity
  8
2D
100
AcDbLine
 10
46.74697397374934
 20
-2.878733841581258
 30
0.0
 11
48.02687722861382
 21
-2.878733841581258
 31
0.0
  0
LINE
  5
1A6
330
2
100
AcDbEntity
  8
2D
100
AcDbLine
 10
47.67240618086387
 20
-3.335733841581273
 30
0.0
 11
48.02687722861382
 21
-3.335733841581273
 31
0.0
  0
LINE
  5
1A7
330
2
100
AcDbEntity
  8
2D
100
AcDbLine
 10
47.99787722861381
 20
-2.965733841581258
 30
0.0
 11
47.99787722861381
 21
-3.248733841581259
 31
0.0
  0
LINE
  5
1A8
330
2
100
AcDbEntity
  8
2D
100
AcDbLine
 10
47.99787722861381
 20
-3.335733841581273
 30
0.0
 11
47.99787722861381
 21
-3.422733841581273
 31
0.0
  0
SOLID
  5
1A9
330
2
100
AcDbEntity
  8
2D
100
AcDbTrace
 10
47.9833772286138
 20
-2.965733841581258
 30
0.0
 11
48.01237722861381
 21
-2.965733841581258
 31
0.0
 12
47.99787722861381
 22
-2.878733841581258
 32
0.0
 13
47.99787722861381
 23
-2.878733841581258
 33
0.0
  0
SOLID
  5
1AA
330
2
100
AcDbEntity
  8
2D
100
AcDbTrace
 10
47.9833772286138
 20
-3.248733841581259
 30
0.0
 11
48.01237722861381
 21
-3.248733841581259
 31
0.0
 12
47.99787722861381
 22
-3.335733841581273
 32
0.0
 13
47.99787722861381
 23
-3.335733841581273
 33
0.0
  0
MTEXT
  5
1AB
330
2
100
AcDbEntity
  8
2D
100
AcDbMText
 10
47.99787722861381
 20
-3.74587669872411
 30
0.0
 40
0.087
 41
0.0
 46
0.0
 71
     5
 72
     1
  1
\A1;.457{\H0.069600;\S+.038^ -.025;}
  7
SIMPLEX
 11
-0.0000000000000001
 21
1.0
 31
0.0
 73
     1
 44
1.0
  0
LINE
  5
1AC
330
2
100
AcDbEntity
  8
2D
100
AcDbLine
 10
47.19548007040375
 20
-3.356239938235681
 30
0.0
 11
47.49499037665358
 21
-3.655750244485503
 31
0.0
  0
ARC
  5
1AD
330
2
100
AcDbEntity
  8
2D
100
AcDbCircle
 10
47.17497397374936
 20
-3.335733841581273
 30
0.0
 40
0.4235715371690075
100
AcDbArc
 50
11.78912291876689
 51
23.57824583753447
  0
ARC
  5
1AE
330
2
100
AcDbEntity
  8
2D
100
AcDbCircle
 10
47.17497397374936
 20
-3.335733841581273
 30
0.0
 40
0.4235715371690075
100
AcDbArc
 50
291.4217541624651
 51
303.2108770812326
  0
SOLID
  5
1AF
330
2
100
AcDbEntity
  8
2D
100
AcDbTrace
 10
47.57518744233053
 20
-3.250682970734182
 30
0.0
 11
47.60403410685325
 21
-3.247704725292027
 31
0.0
 12
47.59854551091836
 22
-3.335733841581273
 32
0.0
 13
47.59854551091836
 23
-3.335733841581273
 33
0.0
  0
SOLID
  5
1B0
330
2
100
AcDbEntity
  8
2D
100
AcDbTrace
 10
47.41611931833394
 20
-3.701371156305821
 30
0.0
 11
47.39782758378351
 21
-3.678867546659002
 31
0.0
 12
47.47448427999917
 22
-3.635244147831077
 32
0.0
 13
47.47448427999917
 23
-3.635244147831077
 33
0.0
  0
MTEXT
  5
1B1
330
2
100
AcDbEntity
  8
2D
100
AcDbMText
 10
47.57748828842683
 20
-3.502684326474042
 30
0.0
 40
0.087
 41
0.0
 46
0.0
 71
     5
 72
     1
  1
\A1;45
  7
SIMPLEX
 11
0.3113768823875838
 21
0.9502865026478007
 31
0.0
 73
     1
 44
1.0
  0
MTEXT
  5
1B2
330
2
100
AcDbEntity
  8
2D
100
AcDbMText
 10
46.2967555819493
 20
-3.995992413340072
 30
0.0
 40
0.087
 41
0.0
 46
0.0
 71
     5
 72
     1
  1
{\LSECTION B-B}
  7
SIMPLEX
 73
     1
 44
1.0
  0
MTEXT
  5
1B3
330
2
100
AcDbEntity
  8
2D
100
AcDbMText
 10
46.2967555819493
 20
-4.165280723256483
 30
0.0
 40
0.087
 41
0.0
 46
0.0
 71
     5
 72
     1
  1
(ROTATE 90 VIEW)
  7
SIMPLEX
 73
     1
 44
1.0
  0
MTEXT
  5
1B4
330
2
100
AcDbEntity
  8
2D
100
AcDbMText
 10
44.7735865635321
 20
4.04911285480696
 30
0.0
 40
0.087
 41
0.0
 46
0.0
 71
     1
 72
     1
  1
\A1;R.127
  7
SIMPLEX
 73
     1
 44
1.0
  0
SOLID
  5
1B5
330
2
100
AcDbEntity
  8
2D
100
AcDbTrace
 10
43.91729088438133
 20
4.581780211849562
 30
0.0
 11
43.85855017334636
 21
4.64757366796115
 31
0.0
 12
43.93545412901021
 22
4.604387656299369
 32
0.0
 13
43.93545412901021
 23
4.604387656299369
 33
0.0
1001
ACAD
1000
DSTYLE
1002
{
1070
   147
1040
0.029
1070
    77
1070
     0
1002
}
  0
LWPOLYLINE
  5
1B6
330
2
100
AcDbEntity
  8
2D
100
AcDbPolyline
 90
        3
 70
     0
 43
0.0
 10
43.92637250669575
 20
4.593083934074471
 10
44.65758656353209
 20
4.005612854806958
 10
44.74458656353209
 20
4.005612854806958
1001
ACAD
1000
DSTYLE
1002
{
1070
   147
1040
0.029
1070
    77
1070
     0
1002
}
  0
HATCH
  5
1B7
330
2
100
AcDbEntity
  8
2D
100
AcDbHatch
 10
0.0
 20
0.0
 30
0.0
210
0.0
220
0.0
230
1.0
  2
ANSI31
 70
     0
 71
     0
 91
        4
 92
        1
 93
        4
 72
     1
 10
43.8258369497521
 20
1.61649133257352
 11
48.42717116259445
 21
1.61649133257352
 72
     2
 10
48.30017116259445
 20
1.616491332573499
 40
0.1269999999999953
 50
359.9999999999872
 51
450.0000428564177
 73
     0
 72
     1
 10
48.30017106760026
 20
1.489491332573518
 11
43.95283700588865
 21
1.489491332573518
 72
     2
 10
43.95283694975209
 20
1.61649133257352
 40
0.1270000000000006
 50
89.99997467411857
 51
180.0
 73
     0
 97
        0
 92
        1
 93
        4
 72
     1
 10
44.2095040561733
 20
4.11949133257357
 11
44.2095040561733
 21
2.059491332573482
 72
     1
 10
44.2095040561733
 20
2.059491332573482
 11
44.33750405617326
 21
2.059491332573482
 72
     1
 10
44.33750405617326
 20
2.059491332573482
 11
44.33750405617326
 21
4.11949133257357
 72
     1
 10
44.33750405617326
 20
4.11949133257357
 11
44.2095040561733
 21
4.11949133257357
 97
        0
 92
        1
 93
        4
 72
     1
 10
48.04350405617331
 20
4.11949133257357
 11
47.9155040561733
 21
4.11949133257357
 72
     1
 10
47.9155040561733
 20
4.11949133257357
 11
47.9155040561733
 21
2.059491332573482
 72
     1
 10
47.9155040561733
 20
2.059491332573482
 11
48.04350405617331
 21
2.059491332573482
 72
     1
 10
48.04350405617324
 20
2.059491332573482
 11
48.04350405617324
 21
4.11949133257357
 97
        0
 92
        1
 93
        4
 72
     1
 10
43.9528370098317
 20
4.689491332573499
 11
48.29950396605386
 21
4.689491332573499
 72
     2
 10
48.29950405617326
 20
4.56249133257355
 40
0.1269999999999989
 50
269.9999593428345
 51
360.0
 73
     0
 72
     1
 10
48.42650405617326
 20
4.562491332573518
 11
43.8258369497521
 21
4.562491332573518
 72
     2
 10
43.95283694975209
 20
4.562491332573518
 40
0.1269999999999953
 50
180.0
 51
270.0000271047823
 73
     0
 97
        0
 75
     0
 76
     1
 52
0.0
 41
0.5
 77
     0
 78
     1
 53
45.0
 43
46.41668398366157
 44
-4.065131408469007
 45
-0.0441941738241592
 46
0.0441941738241592
 79
     0
 98
        1
 10
141.1293988224324
 20
17.7123014165364
  0
LINE
  5
1B8
330
2
100
AcDbEntity
  8
2D
100
AcDbLine
 10
45.69150405617324
 20
0.6604913325735638
 30
0.0
 11
45.69150405617324
 21
0.2366732983351802
 31
0.0
  0
LINE
  5
1B9
330
2
100
AcDbEntity
  8
2D
100
AcDbLine
 10
45.91150405617324
 20
0.6604913325735638
 30
0.0
 11
45.91150405617324
 21
0.2366732983351802
 31
0.0
  0
LINE
  5
1BA
330
2
100
AcDbEntity
  8
2D
100
AcDbLine
 10
45.60450405617324
 20
0.2656732983351731
 30
0.0
 11
45.51750405617323
 21
0.2656732983351731
 31
0.0
  0
LINE
  5
1BB
330
2
100
AcDbEntity
  8
2D
100
AcDbLine
 10
45.99850405617326
 20
0.2656732983351731
 30
0.0
 11
46.08550405617324
 21
0.2656732983351731
 31
0.0
  0
SOLID
  5
1BC
330
2
100
AcDbEntity
  8
2D
100
AcDbTrace
 10
45.60450405617324
 20
0.2801732983351819
 30
0.0
 11
45.60450405617324
 21
0.2511732983351713
 31
0.0
 12
45.69150405617324
 22
0.2656732983351731
 32
0.0
 13
45.69150405617324
 23
0.2656732983351731
 33
0.0
  0
SOLID
  5
1BD
330
2
100
AcDbEntity
  8
2D
100
AcDbTrace
 10
45.99850405617326
 20
0.2801732983351819
 30
0.0
 11
45.99850405617326
 21
0.2511732983351713
 31
0.0
 12
45.91150405617324
 22
0.2656732983351731
 32
0.0
 13
45.91150405617324
 23
0.2656732983351731
 33
0.0
  0
MTEXT
  5
1BE
330
2
100
AcDbEntity
  8
2D
100
AcDbMText
 10
46.38347707099924
 20
0.2656732983351731
 30
0.0
 40
0.087
 41
0.0
 46
0.0
 71
     5
 72
     1
  1
.220 TYP
  7
SIMPLEX
 73
     1
 44
1.0
  0
LINE
  5
1BF
330
2
100
AcDbEntity
  8
2D
  6
CENTER2
100
AcDbLine
 10
47.10150405617326
 20
0.5996780052044599
 30
0.0
 11
47.10150405617326
 21
1.481503254730906
 31
0.0
  0
LINE
  5
1C0
330
2
100
AcDbEntity
  8
2D
  6
CENTER2
100
AcDbLine
 10
47.7515040561733
 20
0.5996780052044599
 30
0.0
 11
47.7515040561733
 21
1.481503254730906
 31
0.0
  0
LINE
  5
1C1
330
2
100
AcDbEntity
  8
2D
100
AcDbLine
 10
47.10150405617326
 20
0.57067800520446
 30
0.0
 11
47.10150405617326
 21
0.219637307340907
 31
0.0
  0
LINE
  5
1C2
330
2
100
AcDbEntity
  8
2D
100
AcDbLine
 10
47.7515040561733
 20
0.57067800520446
 30
0.0
 11
47.7515040561733
 21
0.219637307340907
 31
0.0
  0
LINE
  5
1C3
330
2
100
AcDbEntity
  8
2D
100
AcDbLine
 10
47.8385040561733
 20
0.2486373073409105
 30
0.0
 11
47.91493262760184
 21
0.2486373073409105
 31
0.0
  0
LINE
  5
1C4
330
2
100
AcDbEntity
  8
2D
100
AcDbLine
 10
47.01450405617324
 20
0.2486373073409105
 30
0.0
 11
46.93807548474471
 21
0.2486373073409105
 31
0.0
  0
SOLID
  5
1C5
330
2
100
AcDbEntity
  8
2D
100
AcDbTrace
 10
47.8385040561733
 20
0.2631373073409229
 30
0.0
 11
47.8385040561733
 21
0.2341373073409088
 31
0.0
 12
47.7515040561733
 22
0.2486373073409105
 32
0.0
 13
47.7515040561733
 23
0.2486373073409105
 33
0.0
  0
SOLID
  5
1C6
330
2
100
AcDbEntity
  8
2D
100
AcDbTrace
 10
47.01450405617324
 20
0.2631373073409229
 30
0.0
 11
47.01450405617324
 21
0.2341373073409088
 31
0.0
 12
47.10150405617326
 22
0.2486373073409105
 32
0.0
 13
47.10150405617326
 23
0.2486373073409105
 33
0.0
  0
MTEXT
  5
1C7
330
2
100
AcDbEntity
  8
2D
100
AcDbMText
 10
48.22897443758218
 20
0.2486373073409105
 30
0.0
 40
0.087
 41
0.0
 46
0.0
 71
     5
 72
     1
  1
.650 TYP
  7
SIMPLEX
 73
     1
 44
1.0
  0
LINE
  5
1C8
330
2
100
AcDbEntity
  8
2
100
AcDbLine
 10
43.31150405617324
 20
0.8894913325855391
 30
0.0
 11
43.5142040561733
 21
0.8894913325855391
 31
0.0
  0
LWPOLYLINE
  5
1C9
330
2
100
AcDbEntity
  8
2
100
AcDbPolyline
 90
        5
 70
     0
 43
0.0
 10
42.66150405617357
 20
0.8894913325855391
 10
43.0915040561733
 20
0.8894913325855391
 10
43.0915040561733
 20
0.6894913325735282
 10
42.66150405617357
 20
0.6894913325735282
 10
42.66150405617357
 20
0.8894913325855391
  0
LINE
  5
1CA
330
2
100
AcDbEntity
  8
2
100
AcDbLine
 10
43.31150405617324
 20
0.6894913325735282
 30
0.0
 11
43.31150405617324
 21
0.8894913325855391
 31
0.0
  0
LINE
  5
1CB
330
2
100
AcDbEntity
  8
2
100
AcDbLine
 10
48.9415040561733
 20
0.8894913325855391
 30
0.0
 11
48.73880405617329
 21
0.8894913325855391
 31
0.0
  0
LWPOLYLINE
  5
1CC
330
2
100
AcDbEntity
  8
2
100
AcDbPolyline
 90
        5
 70
     0
 43
0.0
 10
49.59150405617295
 20
0.8894913325855391
 10
49.16150405617322
 20
0.8894913325855391
 10
49.16150405617322
 20
0.6894913325735282
 10
49.59150405617295
 20
0.6894913325735282
 10
49.59150405617295
 20
0.8894913325855391
  0
LINE
  5
1CD
330
2
100
AcDbEntity
  8
2
100
AcDbLine
 10
48.94150405617324
 20
5.289491332561478
 30
0.0
 11
48.73880405617322
 21
5.289491332561478
 31
0.0
  0
LWPOLYLINE
  5
1CE
330
2
100
AcDbEntity
  8
2
100
AcDbPolyline
 90
        5
 70
     0
 43
0.0
 10
49.59150405617295
 20
5.289491332561478
 10
49.16150405617322
 20
5.289491332561478
 10
49.16150405617322
 20
5.489491332573489
 10
49.59150405617295
 20
5.489491332573489
 10
49.59150405617295
 20
5.289491332561478
  0
LINE
  5
1CF
330
2
100
AcDbEntity
  8
2
100
AcDbLine
 10
48.94150405617324
 20
5.489491332573489
 30
0.0
 11
48.94150405617324
 21
5.289491332561478
 31
0.0
  0
ARC
  5
1D0
330
2
100
AcDbEntity
  8
2
100
AcDbCircle
 10
44.37897397374936
 20
-1.380531146194137
 30
0.0
 40
0.05
100
AcDbArc
 50
0.0
 51
90.0
  0
ARC
  5
1D1
330
2
100
AcDbEntity
  8
2
100
AcDbCircle
 10
48.05697397374932
 20
-1.380531146194137
 30
0.0
 40
0.05
100
AcDbArc
 50
90.0
 51
180.0
  0
HATCH
  5
1D2
330
2
100
AcDbEntity
  8
2D
100
AcDbHatch
 10
0.0
 20
0.0
 30
0.0
210
0.0
220
0.0
230
1.0
  2
ANSI31
 70
     0
 71
     0
 91
        1
 92
        1
 93
       10
 72
     1
 10
44.42897397374935
 20
-1.394031146194137
 11
48.00697397374934
 21
-1.394031146194137
 72
     1
 10
48.00697397374934
 20
-1.394031146194137
 11
48.00697397374934
 21
-1.380531146194137
 72
     2
 10
48.05697397374932
 20
-1.380531146194137
 40
0.05
 50
180.0
 51
270.0
 73
     0
 72
     1
 10
48.05697397374932
 20
-1.330531146194136
 11
48.13547397374934
 21
-1.330531146194136
 72
     1
 10
48.13547397374934
 20
-1.330531146194136
 11
48.13547397374934
 21
-1.267031146194138
 72
     1
 10
48.13547397374934
 20
-1.267031146194128
 11
44.30047397374936
 21
-1.267031146194138
 72
     1
 10
44.30047397374936
 20
-1.267031146194138
 11
44.30047397374936
 21
-1.330531146194136
 72
     1
 10
44.30047397374936
 20
-1.330531146194136
 11
44.37897397374936
 21
-1.330531146194136
 72
     2
 10
44.37897397374936
 20
-1.380531146194137
 40
0.05
 50
270.0
 51
360.0
 73
     0
 72
     1
 10
44.42897397374936
 20
-1.380531146194137
 11
44.42897397374936
 21
-1.394031146194137
 97
        0
 75
     0
 76
     1
 52
0.0
 41
0.4
 77
     0
 78
     1
 53
45.0
 43
46.12650405617325
 44
3.089491332573508
 45
-0.0353553390593274
 46
0.0353553390593274
 79
     0
 98
        1
 10
141.7994784614575
 20
25.15711659968621
  0
HATCH
  5
1D3
330
2
100
AcDbEntity
  8
2D
100
AcDbHatch
 10
0.0
 20
0.0
 30
0.0
210
0.0
220
0.0
230
1.0
  2
ANSI31
 70
     0
 71
     0
 91
        1
 92
        1
 93
       14
 72
     1
 10
46.71797397374935
 20
-2.878733841581258
 11
47.17497397374934
 21
-3.335733841581273
 72
     1
 10
47.17497397374934
 20
-3.335733841581273
 11
47.64340618086388
 21
-3.335733841581273
 72
     1
 10
47.64340618086388
 20
-3.335733841581273
 11
47.58749045406609
 21
-3.271218683583221
 72
     1
 10
47.58749045406609
 20
-3.271218683583221
 11
47.64340618086388
 21
-3.20873384158127
 72
     1
 10
47.64340618086388
 20
-3.20873384158127
 11
47.17497397374934
 21
-3.20873384158127
 72
     1
 10
47.17497397374934
 20
-3.20873384158127
 11
46.71797397374935
 21
-2.751733841581273
 72
     1
 10
46.71797397374935
 20
-2.751733841581273
 11
45.71797397374935
 21
-2.751733841581273
 72
     1
 10
45.71797397374935
 20
-2.751733841581273
 11
45.26097397374934
 21
-3.20873384158127
 72
     1
 10
45.26097397374934
 20
-3.20873384158127
 11
44.79254176663483
 21
-3.20873384158127
 72
     1
 10
44.79254176663483
 20
-3.20873384158127
 11
44.85084739875555
 21
-3.27780259599227
 72
     1
 10
44.85084739875555
 20
-3.27780259599227
 11
44.79254176663483
 21
-3.335733841581273
 72
     1
 10
44.79254176663483
 20
-3.335733841581273
 11
45.26097397374934
 21
-3.335733841581273
 72
     1
 10
45.26097397374934
 20
-3.335733841581273
 11
45.71797397374935
 21
-2.878733841581258
 72
     1
 10
45.71797397374935
 20
-2.878733841581258
 11
46.71797397374935
 21
-2.878733841581258
 97
        0
 75
     0
 76
     1
 52
0.0
 41
0.4
 77
     0
 78
     1
 53
45.0
 43
46.12650405617325
 44
3.089491332573508
 45
-0.0353553390593274
 46
0.0353553390593274
 79
     0
 98
        1
 10
141.7994784614575
 20
25.15711659968621
  0
LINE
  5
1D4
330
2
100
AcDbEntity
  8
2
100
AcDbLine
 10
41.97950405617322
 20
4.739491332577497
 30
0.0
 11
41.97950405617324
 21
3.539491332573589
 31
0.0
  0
LINE
  5
1D5
330
2
100
AcDbEntity
  8
2
100
AcDbLine
 10
50.2735040561733
 20
4.73949133257744
 30
0.0
 11
48.73880405617322
 21
4.739491332577561
 31
0.0
  0
LINE
  5
1D6
330
2
100
AcDbEntity
  8
2D
100
AcDbLine
 10
41.95050405617323
 20
3.539491332573614
 30
0.0
 11
41.50628461852302
 21
3.539491332573614
 31
0.0
  0
MTEXT
  5
1D7
330
2
100
AcDbEntity
  8
2D
100
AcDbMText
 10
41.34471318995159
 20
3.539491332573614
 30
0.0
 40
0.087
 41
0.0
 46
0.0
 71
     5
 72
     1
  1
\A1;.450
  7
SIMPLEX
 73
     1
 44
1.0
  0
LINE
  5
1D8
330
2
100
AcDbEntity
  8
2
100
AcDbLine
 10
42.01150405617323
 20
5.035491332566831
 30
0.0
 11
42.01150405617323
 21
5.489491332573489
 31
0.0
  0
LINE
  5
1D9
330
2
100
AcDbEntity
  8
2
100
AcDbLine
 10
42.4415040561734
 20
5.035491332566799
 30
0.0
 11
42.01150405617323
 21
5.035491332566831
 31
0.0
  0
LINE
  5
1DA
330
2
100
AcDbEntity
  8
2
100
AcDbLine
 10
42.4415040561734
 20
5.035491332566799
 30
0.0
 11
42.4415040561734
 21
5.489491332573471
 31
0.0
  0
SPLINE
  5
1DB
330
2
100
AcDbEntity
  8
2D
100
AcDbSpline
210
0.0
220
0.0
230
1.0
 70
  1064
 71
     3
 72
    10
 73
     6
 74
     4
 42
0.000000001
 43
0.0000000001
 44
0.0000000001
 40
0.0
 40
0.0
 40
0.0
 40
0.0
 40
0.1549672621807999
 40
0.3679420157232495
 40
0.5274963787754904
 40
0.5274963787754904
 40
0.5274963787754904
 40
0.5274963787754904
 10
42.01150405617323
 20
5.489491332573489
 30
0.0
 10
42.05511348535597
 20
5.538302295467946
 30
0.0
 10
42.15865626627776
 20
5.654195186805385
 30
0.0
 10
42.26555312781136
 20
5.36950783874218
 30
0.0
 10
42.38874215061322
 20
5.453512222777145
 30
0.0
 10
42.4415040561734
 20
5.489491332573489
 30
0.0
 11
42.01150405617323
 21
5.489491332573489
 31
0.0
 11
42.13719175996954
 21
5.58014150335229
 31
0.0
 11
42.29196778753596
 21
5.433845136557952
 31
0.0
 11
42.4415040561734
 21
5.489491332573489
 31
0.0
  0
LINE
  5
1DC
330
2
100
AcDbEntity
  8
2
100
AcDbLine
 10
42.4415040561734
 20
1.143491332580222
 30
0.0
 11
42.4415040561734
 21
0.6894913325735495
 31
0.0
  0
LINE
  5
1DD
330
2
100
AcDbEntity
  8
2
100
AcDbLine
 10
42.01150405617323
 20
1.14349133258019
 30
0.0
 11
42.01150405617323
 21
0.6894913325735282
 31
0.0
  0
LINE
  5
1DE
330
2
100
AcDbEntity
  8
2
100
AcDbLine
 10
42.4415040561734
 20
1.143491332580222
 30
0.0
 11
42.01150405617323
 21
1.14349133258019
 31
0.0
  0
SPLINE
  5
1DF
330
2
100
AcDbEntity
  8
2D
100
AcDbSpline
210
0.0
220
0.0
230
1.0
 70
  1064
 71
     3
 72
    10
 73
     6
 74
     4
 42
0.000000001
 43
0.0000000001
 44
0.0000000001
 40
0.0
 40
0.0
 40
0.0
 40
0.0
 40
0.1549672621807979
 40
0.3679420157232474
 40
0.5274963787754895
 40
0.5274963787754895
 40
0.5274963787754895
 40
0.5274963787754895
 10
42.01150405617323
 20
0.6894913325735282
 30
0.0
 10
42.05511348535597
 20
0.6406803696790675
 30
0.0
 10
42.15865626627783
 20
0.5247874783416365
 30
0.0
 10
42.26555312781131
 20
0.8094748264048448
 30
0.0
 10
42.38874215061322
 20
0.7254704423698719
 30
0.0
 10
42.4415040561734
 20
0.6894913325735282
 30
0.0
 11
42.01150405617323
 21
0.6894913325735282
 31
0.0
 11
42.13719175996954
 21
0.5988411617947307
 31
0.0
 11
42.29196778753596
 21
0.7451375285890692
 31
0.0
 11
42.4415040561734
 21
0.6894913325735282
 31
0.0
  0
SPLINE
  5
1E0
330
2
100
AcDbEntity
  8
2D
100
AcDbSpline
210
0.0
220
0.0
230
1.0
 70
  1064
 71
     3
 72
    10
 73
     6
 74
     4
 42
0.000000001
 43
0.0000000001
 44
0.0000000001
 40
0.0
 40
0.0
 40
0.0
 40
0.0
 40
0.1549672621807864
 40
0.3679420157232358
 40
0.5274963787754913
 40
0.5274963787754913
 40
0.5274963787754913
 40
0.5274963787754913
 10
50.24150405617326
 20
0.6894913325735282
 30
0.0
 10
50.19789462699051
 20
0.6406803696790746
 30
0.0
 10
50.09435184606869
 20
0.5247874783416293
 30
0.0
 10
49.98745498453516
 20
0.8094748264048483
 30
0.0
 10
49.86426596173328
 20
0.7254704423698755
 30
0.0
 10
49.81150405617309
 20
0.6894913325735282
 30
0.0
 11
50.24150405617326
 21
0.6894913325735282
 31
0.0
 11
50.11581635237696
 21
0.5988411617947307
 31
0.0
 11
49.96104032481054
 21
0.7451375285890692
 31
0.0
 11
49.81150405617309
 21
0.6894913325735282
 31
0.0
  0
LINE
  5
1E1
330
2
100
AcDbEntity
  8
2
100
AcDbLine
 10
49.81150405617309
 20
1.143491332580222
 30
0.0
 11
50.24150405617326
 21
1.14349133258019
 31
0.0
  0
LINE
  5
1E2
330
2
100
AcDbEntity
  8
2
100
AcDbLine
 10
50.24150405617326
 20
1.14349133258019
 30
0.0
 11
50.24150405617326
 21
0.6894913325735282
 31
0.0
  0
LINE
  5
1E3
330
2
100
AcDbEntity
  8
2
100
AcDbLine
 10
49.81150405617309
 20
1.143491332580222
 30
0.0
 11
49.81150405617313
 21
0.6894913325735495
 31
0.0
  0
LINE
  5
1E4
330
2
100
AcDbEntity
  8
2
100
AcDbLine
 10
49.81150405617309
 20
5.035491332566799
 30
0.0
 11
49.81150405617313
 21
5.489491332573471
 31
0.0
  0
LINE
  5
1E5
330
2
100
AcDbEntity
  8
2
100
AcDbLine
 10
50.24150405617326
 20
5.035491332566831
 30
0.0
 11
50.24150405617326
 21
5.489491332573489
 31
0.0
  0
LINE
  5
1E6
330
2
100
AcDbEntity
  8
2
100
AcDbLine
 10
49.81150405617309
 20
5.035491332566799
 30
0.0
 11
50.24150405617326
 21
5.035491332566831
 31
0.0
  0
SPLINE
  5
1E7
330
2
100
AcDbEntity
  8
2D
100
AcDbSpline
210
0.0
220
0.0
230
1.0
 70
  1064
 71
     3
 72
    10
 73
     6
 74
     4
 42
0.000000001
 43
0.0000000001
 44
0.0000000001
 40
0.0
 40
0.0
 40
0.0
 40
0.0
 40
0.1549672621807884
 40
0.3679420157232379
 40
0.5274963787754922
 40
0.5274963787754922
 40
0.5274963787754922
 40
0.5274963787754922
 10
50.24150405617326
 20
5.489491332573489
 30
0.0
 10
50.1978946269905
 20
5.538302295467943
 30
0.0
 10
50.0943518460687
 20
5.654195186805388
 30
0.0
 10
49.98745498453516
 20
5.369507838742173
 30
0.0
 10
49.86426596173328
 20
5.453512222777145
 30
0.0
 10
49.81150405617309
 20
5.489491332573489
 30
0.0
 11
50.24150405617326
 21
5.489491332573489
 31
0.0
 11
50.11581635237696
 21
5.58014150335229
 31
0.0
 11
49.96104032481054
 21
5.433845136557952
 31
0.0
 11
49.81150405617309
 21
5.489491332573489
 31
0.0
  0
LINE
  5
1E8
330
2
100
AcDbEntity
  8
2
100
AcDbLine
 10
50.2735040561733
 20
4.73949133257744
 30
0.0
 11
50.27350405617326
 21
3.539491332573749
 31
0.0
  0
TEXT
  5
1E9
330
2
100
AcDbEntity
  8
2D
 62
     2
100
AcDbText
 10
41.76238551635794
 20
6.450600666765848
 30
0.0
 40
0.1000000006693665
  1
A
 41
0.9
  7
ROMANS
 72
     4
 11
41.79667123087315
 21
6.500600667100531
 31
0.0
100
AcDbText
  0
LWPOLYLINE
  5
1EB
330
2
100
AcDbEntity
  8
2D
 62
     2
100
AcDbPolyline
 90
        3
 70
     1
 43
0.0
 10
41.89625788338695
 20
6.422560543417372
 10
41.7956991669632
 20
6.596733349407241
 10
41.69514045053943
 20
6.422560543417372
  0
ENDSEC
  0
SECTION
  2
OBJECTS
  0
DICTIONARY
  5
B
330
0
100
AcDbDictionary
281
     1
  3
ACAD_COLOR
350
44
  3
ACAD_GROUP
350
31
  3
ACAD_LAYOUT
350
18
  3
ACAD_MATERIAL
350
D
  3
ACAD_MLEADERSTYLE
350
47
  3
ACAD_MLINESTYLE
350
32
  3
ACAD_PLOTSETTINGS
350
33
  3
ACAD_PLOTSTYLENAME
350
A
  3
ACAD_SCALELIST
350
45
  3
ACAD_TABLESTYLE
350
46
  3
ACAD_VISUALSTYLE
350
2B
  3
ACDB_RECOMPOSE_DATA
350
1EE
  3
ACDBVARIABLEDICTIONARY
350
48
  0
DICTIONARY
  5
7
330
6
100
AcDbDictionary
280
     1
281
     1
  3
ADSK_XREC_LAYER_RECONCILED
360
8
  0
DICTIONARY
  5
58
330
57
100
AcDbDictionary
280
     1
281
     1
  3
ADSK_XREC_LAYER_RECONCILED
360
59
  0
DICTIONARY
  5
79
330
78
100
AcDbDictionary
280
     1
281
     1
  3
ADSK_XREC_LAYER_RECONCILED
360
7A
  0
DICTIONARY
  5
74
330
73
100
AcDbDictionary
280
     1
281
     1
  3
ADSK_XREC_LAYER_RECONCILED
360
75
  0
DICTIONARY
  5
3
330
2
100
AcDbDictionary
280
     1
281
     1
  3
ACAD_LAYOUTSELFREF
360
4
  0
DICTIONARY
  5
1A
330
19
100
AcDbDictionary
280
     1
281
     1
  3
ACAD_LAYOUTSELFREF
360
1B
  0
DICTIONARY
  5
44
102
{ACAD_REACTORS
330
B
102
}
330
B
100
AcDbDictionary
281
     1
  0
DICTIONARY
  5
31
102
{ACAD_REACTORS
330
B
102
}
330
B
100
AcDbDictionary
281
     1
  0
DICTIONARY
  5
18
102
{ACAD_REACTORS
330
B
102
}
330
B
100
AcDbDictionary
281
     1
  3
LAYOUT1
350
1E
  3
MODEL
350
17
  0
DICTIONARY
  5
D
102
{ACAD_REACTORS
330
B
102
}
330
B
100
AcDbDictionary
281
     1
  3
ByBlock
350
3C
  3
ByLayer
350
34
  3
Global
350
C
  0
DICTIONARY
  5
47
102
{ACAD_REACTORS
330
B
102
}
330
B
100
AcDbDictionary
281
     1
  0
DICTIONARY
  5
32
102
{ACAD_REACTORS
330
B
102
}
330
B
100
AcDbDictionary
281
     1
  3
STANDARD
350
5B
  0
DICTIONARY
  5
33
102
{ACAD_REACTORS
330
B
102
}
330
B
100
AcDbDictionary
281
     1
  0
ACDBDICTIONARYWDFLT
  5
A
102
{ACAD_REACTORS
330
B
102
}
330
B
100
AcDbDictionary
281
     1
  3
Normal
350
9
100
AcDbDictionaryWithDefault
340
9
  0
DICTIONARY
  5
45
102
{ACAD_REACTORS
330
B
102
}
330
B
100
AcDbDictionary
281
     1
  3
A0
350
61
  3
A1
350
62
  3
A2
350
63
  3
A3
350
64
  3
A4
350
65
  3
A5
350
66
  3
A6
350
67
  3
A7
350
68
  3
A8
350
69
  3
A9
350
6A
  3
B0
350
6B
  3
B1
350
6C
  3
B2
350
6D
  3
B3
350
6E
  3
B4
350
6F
  3
B5
350
70
  3
B6
350
71
  0
DICTIONARY
  5
46
102
{ACAD_REACTORS
330
B
102
}
330
B
100
AcDbDictionary
281
     1
  3
Standard
350
5C
  0
DICTIONARY
  5
2B
102
{ACAD_REACTORS
330
B
102
}
330
B
100
AcDbDictionary
281
     1
  3
2dWireframe
350
2A
  3
EdgeColorOff
350
14C
  3
Realistic
350
5E
  3
Wireframe
350
5F
  0
XRECORD
  5
1EE
102
{ACAD_REACTORS
330
B
102
}
330
B
100
AcDbXrecord
280
     1
 90
        1
330
5C
  0
DICTIONARY
  5
48
102
{ACAD_REACTORS
330
B
102
}
330
B
100
AcDbDictionary
281
     1
  3
CANNOSCALE
350
49
  3
CMLEADERSTYLE
350
4A
  3
CTABLESTYLE
350
4B
  3
CVIEWDETAILSTYLE
350
4C
  3
CVIEWSECTIONSTYLE
350
4D
  3
DIMADEC
350
4E
  3
DIMASSOC
350
4F
  3
HIDETEXT
350
50
  3
INDEXCTL
350
51
  3
LAYEREVAL
350
52
  3
LAYERNOTIFY
350
53
  3
LIGHTINGUNITS
350
54
  3
MSLTSCALE
350
55
  3
SORTENTS
350
56
  0
XRECORD
  5
8
102
{ACAD_REACTORS
330
7
102
}
330
7
100
AcDbXrecord
280
     1
290
     1
  0
XRECORD
  5
59
102
{ACAD_REACTORS
330
58
102
}
330
58
100
AcDbXrecord
280
     1
290
     1
  0
XRECORD
  5
7A
102
{ACAD_REACTORS
330
79
102
}
330
79
100
AcDbXrecord
280
     1
290
     1
  0
XRECORD
  5
75
102
{ACAD_REACTORS
330
74
102
}
330
74
100
AcDbXrecord
280
     1
290
     1
  0
XRECORD
  5
4
102
{ACAD_REACTORS
330
3
102
}
330
3
100
AcDbXrecord
280
     1
340
2
  0
XRECORD
  5
1B
102
{ACAD_REACTORS
330
1A
102
}
330
1A
100
AcDbXrecord
280
     1
340
19
  0
LAYOUT
  5
1E
102
{ACAD_REACTORS
330
18
102
}
330
18
100
AcDbPlotSettings
  1

  2
\\ATS1\2FL_CADRM
  4

  6

 40
0.0
 41
0.0
 42
0.0
 43
0.0
 44
0.0
 45
0.0
 46
0.0
 47
0.0
 48
0.0
 49
0.0
140
0.0
141
0.0
142
1.0
143
1.0
 70
   688
 72
     0
 73
     0
 74
     5
  7
monochrome.ctb
 75
    16
147
1.0
 76
     0
 77
     2
 78
   300
148
0.0
149
0.0
100
AcDbLayout
  1
LAYOUT1
 70
     1
 71
     1
 10
0.0
 20
0.0
 11
12.0
 21
9.0
 12
0.0
 22
0.0
 32
0.0
 14
1.000000000000000E+20
 24
1.000000000000000E+20
 34
1.000000000000000E+20
 15
-1.000000000000000E+20
 25
-1.000000000000000E+20
 35
-1.000000000000000E+20
146
0.0
 13
0.0
 23
0.0
 33
0.0
 16
1.0
 26
0.0
 36
0.0
 17
0.0
 27
1.0
 37
0.0
 76
     0
330
19
  0
LAYOUT
  5
17
102
{ACAD_REACTORS
330
18
102
}
330
18
100
AcDbPlotSettings
  1

  2
\\ATS1\2FL_CADRM
  4
A4
  6

 40
5.746749877929687
 41
5.365768432617186
 42
5.70440673828125
 43
5.746734619140625
 44
209.8886566162109
 45
297.0530090332031
 46
0.0
 47
0.0
 48
-364.0199534003327
 49
-23.32315770249214
140
-336.5061974063503
141
16.53621666790359
142
1.0
143
0.1393974394554027
 70
   177
 72
     1
 73
     0
 74
     4
  7
monochrome.ctb
 75
     0
147
7.173732917238621
 76
     0
 77
     2
 78
   300
148
364.0199534003327
149
23.32315770249214
100
AcDbLayout
  1
MODEL
 70
     1
 71
     0
 10
0.0
 20
0.0
 11
12.0
 21
9.0
 12
0.0
 22
0.0
 32
0.0
 14
0.0
 24
0.0
 34
0.0
 15
0.0
 25
0.0
 35
0.0
146
0.0
 13
0.0
 23
0.0
 33
0.0
 16
1.0
 26
0.0
 36
0.0
 17
0.0
 27
1.0
 37
0.0
 76
     0
330
2
331
29
  0
MATERIAL
  5
3C
102
{ACAD_XDICTIONARY
360
3D
102
}
102
{ACAD_REACTORS
330
D
102
}
330
D
100
AcDbMaterial
  1
ByBlock
 72
     0
 43
0.0208333333333333
 43
0.0
 43
0.0
 43
0.0
 43
0.0
 43
0.0208333333333333
 43
0.0
 43
0.0
 43
0.0
 43
0.0
 43
1.0
 43
0.0
 43
0.0
 43
0.0
 43
0.0
 43
1.0
 77
     0
 47
0.0208333333333333
 47
0.0
 47
0.0
 47
0.0
 47
0.0
 47
0.0208333333333333
 47
0.0
 47
0.0
 47
0.0
 47
0.0
 47
1.0
 47
0.0
 47
0.0
 47
0.0
 47
0.0
 47
1.0
171
     0
 49
0.0208333333333333
 49
0.0
 49
0.0
 49
0.0
 49
0.0
 49
0.0208333333333333
 49
0.0
 49
0.0
 49
0.0
 49
0.0
 49
1.0
 49
0.0
 49
0.0
 49
0.0
 49
0.0
 49
1.0
175
     0
142
0.0208333333333333
142
0.0
142
0.0
142
0.0
142
0.0
142
0.0208333333333333
142
0.0
142
0.0
142
0.0
142
0.0
142
1.0
142
0.0
142
0.0
142
0.0
142
0.0
142
1.0
179
     0
144
0.0208333333333333
144
0.0
144
0.0
144
0.0
144
0.0
144
0.0208333333333333
144
0.0
144
0.0
144
0.0
144
0.0
144
1.0
144
0.0
144
0.0
144
0.0
144
0.0
144
1.0
147
0.0208333333333333
147
0.0
147
0.0
147
0.0
147
0.0
147
0.0208333333333333
147
0.0
147
0.0
147
0.0
147
0.0
147
1.0
147
0.0
147
0.0
147
0.0
147
0.0
147
1.0
  0
MATERIAL
  5
34
102
{ACAD_XDICTIONARY
360
35
102
}
102
{ACAD_REACTORS
330
D
102
}
330
D
100
AcDbMaterial
  1
ByLayer
 72
     0
 43
0.0208333333333333
 43
0.0
 43
0.0
 43
0.0
 43
0.0
 43
0.0208333333333333
 43
0.0
 43
0.0
 43
0.0
 43
0.0
 43
1.0
 43
0.0
 43
0.0
 43
0.0
 43
0.0
 43
1.0
 77
     0
 47
0.0208333333333333
 47
0.0
 47
0.0
 47
0.0
 47
0.0
 47
0.0208333333333333
 47
0.0
 47
0.0
 47
0.0
 47
0.0
 47
1.0
 47
0.0
 47
0.0
 47
0.0
 47
0.0
 47
1.0
171
     0
 49
0.0208333333333333
 49
0.0
 49
0.0
 49
0.0
 49
0.0
 49
0.0208333333333333
 49
0.0
 49
0.0
 49
0.0
 49
0.0
 49
1.0
 49
0.0
 49
0.0
 49
0.0
 49
0.0
 49
1.0
175
     0
142
0.0208333333333333
142
0.0
142
0.0
142
0.0
142
0.0
142
0.0208333333333333
142
0.0
142
0.0
142
0.0
142
0.0
142
1.0
142
0.0
142
0.0
142
0.0
142
0.0
142
1.0
179
     0
144
0.0208333333333333
144
0.0
144
0.0
144
0.0
144
0.0
144
0.0208333333333333
144
0.0
144
0.0
144
0.0
144
0.0
144
1.0
144
0.0
144
0.0
144
0.0
144
0.0
144
1.0
147
0.0208333333333333
147
0.0
147
0.0
147
0.0
147
0.0
147
0.0208333333333333
147
0.0
147
0.0
147
0.0
147
0.0
147
1.0
147
0.0
147
0.0
147
0.0
147
0.0
147
1.0
  0
MATERIAL
  5
C
102
{ACAD_XDICTIONARY
360
E
102
}
102
{ACAD_REACTORS
330
D
102
}
330
D
100
AcDbMaterial
  1
Global
 72
     0
 43
0.0208333333333333
 43
0.0
 43
0.0
 43
0.0
 43
0.0
 43
0.0208333333333333
 43
0.0
 43
0.0
 43
0.0
 43
0.0
 43
1.0
 43
0.0
 43
0.0
 43
0.0
 43
0.0
 43
1.0
 77
     0
 47
0.0208333333333333
 47
0.0
 47
0.0
 47
0.0
 47
0.0
 47
0.0208333333333333
 47
0.0
 47
0.0
 47
0.0
 47
0.0
 47
1.0
 47
0.0
 47
0.0
 47
0.0
 47
0.0
 47
1.0
171
     0
 49
0.0208333333333333
 49
0.0
 49
0.0
 49
0.0
 49
0.0
 49
0.0208333333333333
 49
0.0
 49
0.0
 49
0.0
 49
0.0
 49
1.0
 49
0.0
 49
0.0
 49
0.0
 49
0.0
 49
1.0
175
     0
142
0.0208333333333333
142
0.0
142
0.0
142
0.0
142
0.0
142
0.0208333333333333
142
0.0
142
0.0
142
0.0
142
0.0
142
1.0
142
0.0
142
0.0
142
0.0
142
0.0
142
1.0
179
     0
144
0.0208333333333333
144
0.0
144
0.0
144
0.0
144
0.0
144
0.0208333333333333
144
0.0
144
0.0
144
0.0
144
0.0
144
1.0
144
0.0
144
0.0
144
0.0
144
0.0
144
1.0
147
0.0208333333333333
147
0.0
147
0.0
147
0.0
147
0.0
147
0.0208333333333333
147
0.0
147
0.0
147
0.0
147
0.0
147
1.0
147
0.0
147
0.0
147
0.0
147
0.0
147
1.0
  0
MLINESTYLE
  5
5B
102
{ACAD_REACTORS
330
32
102
}
330
32
100
AcDbMlineStyle
  2
STANDARD
 70
     0
  3

 62
   256
 51
90.0
 52
90.0
 71
     2
 49
0.5
 62
   256
  6
BYLAYER
 49
-0.5
 62
   256
  6
BYLAYER
  0
ACDBPLACEHOLDER
  5
9
102
{ACAD_REACTORS
330
A
102
}
330
A
  0
SCALE
  5
61
102
{ACAD_REACTORS
330
45
102
}
330
45
100
AcDbScale
 70
     0
300
1:1
140
1.0
141
1.0
290
     1
  0
SCALE
  5
62
102
{ACAD_REACTORS
330
45
102
}
330
45
100
AcDbScale
 70
     0
300
1/128" = 1'-0"
140
0.0078125
141
12.0
290
     0
  0
SCALE
  5
63
102
{ACAD_REACTORS
330
45
102
}
330
45
100
AcDbScale
 70
     0
300
1/64" = 1'-0"
140
0.015625
141
12.0
290
     0
  0
SCALE
  5
64
102
{ACAD_REACTORS
330
45
102
}
330
45
100
AcDbScale
 70
     0
300
1/32" = 1'-0"
140
0.03125
141
12.0
290
     0
  0
SCALE
  5
65
102
{ACAD_REACTORS
330
45
102
}
330
45
100
AcDbScale
 70
     0
300
1/16" = 1'-0"
140
0.0625
141
12.0
290
     0
  0
SCALE
  5
66
102
{ACAD_REACTORS
330
45
102
}
330
45
100
AcDbScale
 70
     0
300
3/32" = 1'-0"
140
0.09375
141
12.0
290
     0
  0
SCALE
  5
67
102
{ACAD_REACTORS
330
45
102
}
330
45
100
AcDbScale
 70
     0
300
1/8" = 1'-0"
140
0.125
141
12.0
290
     0
  0
SCALE
  5
68
102
{ACAD_REACTORS
330
45
102
}
330
45
100
AcDbScale
 70
     0
300
3/16" = 1'-0"
140
0.1875
141
12.0
290
     0
  0
SCALE
  5
69
102
{ACAD_REACTORS
330
45
102
}
330
45
100
AcDbScale
 70
     0
300
1/4" = 1'-0"
140
0.25
141
12.0
290
     0
  0
SCALE
  5
6A
102
{ACAD_REACTORS
330
45
102
}
330
45
100
AcDbScale
 70
     0
300
3/8" = 1'-0"
140
0.375
141
12.0
290
     0
  0
SCALE
  5
6B
102
{ACAD_REACTORS
330
45
102
}
330
45
100
AcDbScale
 70
     0
300
1/2" = 1'-0"
140
0.5
141
12.0
290
     0
  0
SCALE
  5
6C
102
{ACAD_REACTORS
330
45
102
}
330
45
100
AcDbScale
 70
     0
300
3/4" = 1'-0"
140
0.75
141
12.0
290
     0
  0
SCALE
  5
6D
102
{ACAD_REACTORS
330
45
102
}
330
45
100
AcDbScale
 70
     0
300
1" = 1'-0"
140
1.0
141
12.0
290
     0
  0
SCALE
  5
6E
102
{ACAD_REACTORS
330
45
102
}
330
45
100
AcDbScale
 70
     0
300
1-1/2" = 1'-0"
140
1.5
141
12.0
290
     0
  0
SCALE
  5
6F
102
{ACAD_REACTORS
330
45
102
}
330
45
100
AcDbScale
 70
     0
300
3" = 1'-0"
140
3.0
141
12.0
290
     0
  0
SCALE
  5
70
102
{ACAD_REACTORS
330
45
102
}
330
45
100
AcDbScale
 70
     0
300
6" = 1'-0"
140
6.0
141
12.0
290
     0
  0
SCALE
  5
71
102
{ACAD_REACTORS
330
45
102
}
330
45
100
AcDbScale
 70
     0
300
1'-0" = 1'-0"
140
12.0
141
12.0
290
     0
  0
TABLESTYLE
  5
5C
102
{ACAD_XDICTIONARY
360
5D
102
}
102
{ACAD_REACTORS
330
46
102
}
330
46
100
AcDbTableStyle
280
     0
  3
Standard
 70
     0
 71
     0
 40
0.06
 41
0.06
280
     0
281
     0
  7
Standard
140
0.18
170
     2
 62
     0
 63
     7
283
     0
 90
      512
 91
        0
  1

274
    -2
284
     1
 64
     0
275
    -2
285
     1
 65
     0
276
    -2
286
     1
 66
     0
277
    -2
287
     1
 67
     0
278
    -2
288
     1
 68
     0
279
    -2
289
     1
 69
     0
  7
Standard
140
0.25
170
     5
 62
     0
 63
     7
283
     0
 90
      512
 91
        0
  1

274
    -2
284
     1
 64
     0
275
    -2
285
     1
 65
     0
276
    -2
286
     1
 66
     0
277
    -2
287
     1
 67
     0
278
    -2
288
     1
 68
     0
279
    -2
289
     1
 69
     0
  7
Standard
140
0.18
170
     5
 62
     0
 63
     7
283
     0
 90
      512
 91
        0
  1

274
    -2
284
     1
 64
     0
275
    -2
285
     1
 65
     0
276
    -2
286
     1
 66
     0
277
    -2
287
     1
 67
     0
278
    -2
288
     1
 68
     0
279
    -2
289
     1
 69
     0
  0
VISUALSTYLE
  5
2A
102
{ACAD_REACTORS
330
2B
102
}
330
2B
100
AcDbVisualStyle
  2
2dWireframe
 70
     4
177
     3
291
     0
 70
    58
 90
        0
176
     1
 90
        2
176
     1
 90
        0
176
     1
 90
        0
176
     1
 40
0.6
176
     1
 40
30.0
176
     1
 62
     7
420
 16777215
176
     1
 90
        1
176
     1
 90
        4
176
     1
 62
     7
176
     1
 62
   257
176
     1
 90
        1
176
     1
 90
        1
176
     1
 40
1.0
176
     1
 90
        0
176
     1
 62
   257
176
     1
 40
1.0
176
     1
 90
        1
176
     1
 90
        6
176
     1
 90
        2
176
     1
 62
     7
176
     1
 90
        5
176
     1
 90
        0
176
     1
 90
        0
176
     1
290
     0
176
     1
 90
        1
176
     1
 40
0.0
176
     1
 90
        0
176
     1
290
     1
176
     1
290
     1
176
     1
290
     0
176
     1
290
     0
176
     1
290
     0
176
     1
290
     0
176
     1
290
     0
176
     1
290
     0
176
     1
290
     0
176
     1
 90
       50
176
     1
 40
0.0
176
     1
 40
1.0
176
     1
 90
        0
176
     1
 62
    18
176
     1
 90
       50
176
     1
 90
        3
176
     1
 62
     5
420
      255
176
     1
290
     0
176
     1
 90
       50
176
     1
 90
       50
176
     1
 90
       50
176
     1
290
     0
176
     1
 90
       50
176
     1
 62
   256
176
     0
 40
1.0
176
     0
 90
        2
176
     1
  1
strokes_ogs.tif
176
     1
290
     0
176
     1
 40
1.0
176
     1
 40
1.0
176
     1
  0
VISUALSTYLE
  5
14C
102
{ACAD_REACTORS
330
2B
102
}
330
2B
100
AcDbVisualStyle
  2
EdgeColorOff
 70
    22
177
     3
291
     1
 70
    58
 90
        2
176
     0
 90
        2
176
     0
 90
        0
176
     0
 90
        0
176
     0
 40
0.6
176
     0
 40
30.0
176
     0
 62
     7
420
 16777215
176
     0
 90
        1
176
     0
 90
        4
176
     0
 62
     7
176
     0
 62
   257
176
     0
 90
        1
176
     0
 90
        1
176
     0
 40
1.0
176
     0
 90
        8
176
     2
 62
     7
176
     0
 40
1.0
176
     0
 90
        1
176
     0
 90
        6
176
     0
 90
        2
176
     0
 62
     7
176
     0
 90
        5
176
     0
 90
        0
176
     0
 90
        0
176
     0
290
     0
176
     0
 90
        1
176
     0
 40
0.0
176
     0
 90
        0
176
     0
290
     0
176
     0
290
     1
176
     0
290
     1
176
     0
290
     0
176
     0
290
     0
176
     0
290
     0
176
     0
290
     0
176
     0
290
     0
176
     0
290
     0
176
     0
 90
       50
176
     0
 40
0.0
176
     0
 40
1.0
176
     0
 90
        0
176
     0
 62
    18
176
     0
 90
       50
176
     0
 90
        3
176
     0
 62
     5
420
      255
176
     0
290
     0
176
     0
 90
       50
176
     0
 90
       50
176
     0
 90
       50
176
     0
290
     0
176
     0
 90
       50
176
     0
 62
   256
176
     0
 40
1.0
176
     0
 90
        2
176
     0
  1
strokes_ogs.tif
176
     0
290
     0
176
     0
 40
1.0
176
     0
 40
1.0
176
     0
  0
VISUALSTYLE
  5
5E
102
{ACAD_REACTORS
330
2B
102
}
330
2B
100
AcDbVisualStyle
  2
Realistic
 70
     8
177
     3
291
     0
 70
    58
 90
        2
176
     1
 90
        3
176
     1
 90
        0
176
     1
 90
        2
176
     1
 40
0.6
176
     1
 40
30.0
176
     1
 62
     7
420
 16777215
176
     1
 90
        0
176
     1
 90
        0
176
     1
 62
     7
176
     1
 62
   257
176
     1
 90
        1
176
     1
 90
        1
176
     1
 40
1.0
176
     1
 90
        8
176
     1
 62
   257
176
     1
 40
1.0
176
     1
 90
        1
176
     1
 90
        6
176
     1
 90
        2
176
     1
 62
     7
176
     1
 90
        3
176
     1
 90
        0
176
     1
 90
        0
176
     1
290
     0
176
     1
 90
       13
176
     1
 40
0.0
176
     1
 90
        0
176
     1
290
     0
176
     1
290
     1
176
     1
290
     1
176
     1
290
     0
176
     1
290
     0
176
     1
290
     0
176
     1
290
     0
176
     1
290
     0
176
     1
290
     0
176
     1
 90
       50
176
     1
 40
0.0
176
     1
 40
1.0
176
     1
 90
        0
176
     1
 62
    18
176
     1
 90
       50
176
     1
 90
        3
176
     1
 62
     5
420
      255
176
     1
290
     0
176
     1
 90
       50
176
     1
 90
       50
176
     1
 90
       50
176
     1
290
     0
176
     1
 90
       50
176
     1
 62
   256
176
     0
 40
1.0
176
     0
 90
        2
176
     1
  1
strokes_ogs.tif
176
     1
290
     0
176
     1
 40
1.0
176
     1
 40
1.0
176
     1
  0
VISUALSTYLE
  5
5F
102
{ACAD_REACTORS
330
2B
102
}
330
2B
100
AcDbVisualStyle
  2
Wireframe
 70
     5
177
     3
291
     0
 70
    58
 90
        0
176
     1
 90
        2
176
     1
 90
        0
176
     1
 90
        0
176
     1
 40
0.6
176
     1
 40
30.0
176
     1
 62
     7
420
 16777215
176
     1
 90
        1
176
     1
 90
        4
176
     1
 62
     7
176
     1
 62
   257
176
     1
 90
        1
176
     1
 90
        1
176
     1
 40
1.0
176
     1
 90
        0
176
     1
 62
   257
176
     1
 40
1.0
176
     1
 90
        1
176
     1
 90
        6
176
     1
 90
        2
176
     1
 62
     7
176
     1
 90
        3
176
     1
 90
        0
176
     1
 90
        0
176
     1
290
     0
176
     1
 90
        1
176
     1
 40
0.0
176
     1
 90
        0
176
     1
290
     0
176
     1
290
     1
176
     1
290
     1
176
     1
290
     0
176
     1
290
     0
176
     1
290
     0
176
     1
290
     0
176
     1
290
     0
176
     1
290
     0
176
     1
 90
       50
176
     1
 40
0.0
176
     1
 40
1.0
176
     1
 90
        0
176
     1
 62
    18
176
     1
 90
       50
176
     1
 90
        3
176
     1
 62
     5
420
      255
176
     1
290
     0
176
     1
 90
       50
176
     1
 90
       50
176
     1
 90
       50
176
     1
290
     0
176
     1
 90
       50
176
     1
 62
   256
176
     0
 40
1.0
176
     0
 90
        2
176
     1
  1
strokes_ogs.tif
176
     1
290
     0
176
     1
 40
1.0
176
     1
 40
1.0
176
     1
  0
DICTIONARYVAR
  5
49
102
{ACAD_REACTORS
330
48
102
}
330
48
100
DictionaryVariables
280
     0
  1
1:1
  0
DICTIONARYVAR
  5
4A
102
{ACAD_REACTORS
330
48
102
}
330
48
100
DictionaryVariables
280
     0
  1
STANDARD
  0
DICTIONARYVAR
  5
4B
102
{ACAD_REACTORS
330
48
102
}
330
48
100
DictionaryVariables
280
     0
  1
STANDARD
  0
DICTIONARYVAR
  5
4C
102
{ACAD_REACTORS
330
48
102
}
330
48
100
DictionaryVariables
280
     0
  1

  0
DICTIONARYVAR
  5
4D
102
{ACAD_REACTORS
330
48
102
}
330
48
100
DictionaryVariables
280
     0
  1

  0
DICTIONARYVAR
  5
4E
330
48
100
DictionaryVariables
280
     0
  1
0
  0
DICTIONARYVAR
  5
4F
102
{ACAD_REACTORS
330
48
102
}
330
48
100
DictionaryVariables
280
     0
  1
0
  0
DICTIONARYVAR
  5
50
102
{ACAD_REACTORS
330
48
102
}
330
48
100
DictionaryVariables
280
     0
  1
1
  0
DICTIONARYVAR
  5
51
102
{ACAD_REACTORS
330
48
102
}
330
48
100
DictionaryVariables
280
     0
  1
1
  0
DICTIONARYVAR
  5
52
102
{ACAD_REACTORS
330
48
102
}
330
48
100
DictionaryVariables
280
     0
  1
1
  0
DICTIONARYVAR
  5
53
102
{ACAD_REACTORS
330
48
102
}
330
48
100
DictionaryVariables
280
     0
  1
15
  0
DICTIONARYVAR
  5
54
102
{ACAD_REACTORS
330
48
102
}
330
48
100
DictionaryVariables
280
     0
  1
0
  0
DICTIONARYVAR
  5
55
102
{ACAD_REACTORS
330
48
102
}
330
48
100
DictionaryVariables
280
     0
  1
0
  0
DICTIONARYVAR
  5
56
102
{ACAD_REACTORS
330
48
102
}
330
48
100
DictionaryVariables
280
     0
  1
96
  0
DICTIONARY
  5
3D
330
3C
100
AcDbDictionary
280
     1
281
     1
  3
BUMPTILE
360
3E
  3
DIFFUSETILE
360
3F
  3
OPACITYTILE
360
40
  3
REFLECTIONTILE
360
41
  3
REFRACTIONTILE
360
42
  3
SPECULARTILE
360
43
  0
DICTIONARY
  5
35
330
34
100
AcDbDictionary
280
     1
281
     1
  3
BUMPTILE
360
36
  3
DIFFUSETILE
360
37
  3
OPACITYTILE
360
38
  3
REFLECTIONTILE
360
39
  3
REFRACTIONTILE
360
3A
  3
SPECULARTILE
360
3B
  0
DICTIONARY
  5
E
330
C
100
AcDbDictionary
280
     1
281
     1
  3
BUMPTILE
360
F
  3
DIFFUSETILE
360
10
  3
OPACITYTILE
360
11
  3
REFLECTIONTILE
360
12
  3
REFRACTIONTILE
360
13
  3
SPECULARTILE
360
14
  0
DICTIONARY
  5
5D
330
5C
100
AcDbDictionary
280
     1
281
     1
  3
ACAD_ROUNDTRIP_2008_TABLESTYLE_CELLSTYLEMAP
360
1ED
  0
XRECORD
  5
3E
102
{ACAD_REACTORS
330
3D
102
}
330
3D
100
AcDbXrecord
280
     1
270
     1
271
     1
  0
XRECORD
  5
3F
102
{ACAD_REACTORS
330
3D
102
}
330
3D
100
AcDbXrecord
280
     1
270
     1
271
     1
  0
XRECORD
  5
40
102
{ACAD_REACTORS
330
3D
102
}
330
3D
100
AcDbXrecord
280
     1
270
     1
271
     1
  0
XRECORD
  5
41
102
{ACAD_REACTORS
330
3D
102
}
330
3D
100
AcDbXrecord
280
     1
270
     1
271
     1
  0
XRECORD
  5
42
102
{ACAD_REACTORS
330
3D
102
}
330
3D
100
AcDbXrecord
280
     1
270
     1
271
     1
  0
XRECORD
  5
43
102
{ACAD_REACTORS
330
3D
102
}
330
3D
100
AcDbXrecord
280
     1
270
     1
271
     1
  0
XRECORD
  5
36
102
{ACAD_REACTORS
330
35
102
}
330
35
100
AcDbXrecord
280
     1
270
     1
271
     1
  0
XRECORD
  5
37
102
{ACAD_REACTORS
330
35
102
}
330
35
100
AcDbXrecord
280
     1
270
     1
271
     1
  0
XRECORD
  5
38
102
{ACAD_REACTORS
330
35
102
}
330
35
100
AcDbXrecord
280
     1
270
     1
271
     1
  0
XRECORD
  5
39
102
{ACAD_REACTORS
330
35
102
}
330
35
100
AcDbXrecord
280
     1
270
     1
271
     1
  0
XRECORD
  5
3A
102
{ACAD_REACTORS
330
35
102
}
330
35
100
AcDbXrecord
280
     1
270
     1
271
     1
  0
XRECORD
  5
3B
102
{ACAD_REACTORS
330
35
102
}
330
35
100
AcDbXrecord
280
     1
270
     1
271
     1
  0
XRECORD
  5
F
102
{ACAD_REACTORS
330
E
102
}
330
E
100
AcDbXrecord
280
     1
270
     1
271
     1
  0
XRECORD
  5
10
102
{ACAD_REACTORS
330
E
102
}
330
E
100
AcDbXrecord
280
     1
270
     1
271
     1
  0
XRECORD
  5
11
102
{ACAD_REACTORS
330
E
102
}
330
E
100
AcDbXrecord
280
     1
270
     1
271
     1
  0
XRECORD
  5
12
102
{ACAD_REACTORS
330
E
102
}
330
E
100
AcDbXrecord
280
     1
270
     1
271
     1
  0
XRECORD
  5
13
102
{ACAD_REACTORS
330
E
102
}
330
E
100
AcDbXrecord
280
     1
270
     1
271
     1
  0
XRECORD
  5
14
102
{ACAD_REACTORS
330
E
102
}
330
E
100
AcDbXrecord
280
     1
270
     1
271
     1
  0
CELLSTYLEMAP
  5
1ED
102
{ACAD_REACTORS
330
5D
102
}
330
5D
100
AcDbCellStyleMap
 90
        3
300
CELLSTYLE
  1
TABLEFORMAT_BEGIN
 90
        5
170
     1
 91
        0
 92
    32768
 62
   257
 93
        1
300
CONTENTFORMAT
  1
CONTENTFORMAT_BEGIN
 90
        0
 91
        0
 92
      512
 93
        0
300

 40
0.0
140
1.0
 94
        5
 62
     0
340
21
144
0.25
309
CONTENTFORMAT_END
171
     1
301
MARGIN
  1
CELLMARGIN_BEGIN
 40
0.06
 40
0.06
 40
0.06
 40
0.06
 40
0.18
 40
0.18
309
CELLMARGIN_END
 94
        6
 95
        1
302
GRIDFORMAT
  1
GRIDFORMAT_BEGIN
 90
        0
 91
        1
 62
     0
 92
       -2
340
0
 93
        0
 40
0.045
309
GRIDFORMAT_END
 95
        2
302
GRIDFORMAT
  1
GRIDFORMAT_BEGIN
 90
        0
 91
        1
 62
     0
 92
       -2
340
0
 93
        0
 40
0.045
309
GRIDFORMAT_END
 95
        4
302
GRIDFORMAT
  1
GRIDFORMAT_BEGIN
 90
        0
 91
        1
 62
     0
 92
       -2
340
0
 93
        0
 40
0.045
309
GRIDFORMAT_END
 95
        8
302
GRIDFORMAT
  1
GRIDFORMAT_BEGIN
 90
        0
 91
        1
 62
     0
 92
       -2
340
0
 93
        0
 40
0.045
309
GRIDFORMAT_END
 95
       16
302
GRIDFORMAT
  1
GRIDFORMAT_BEGIN
 90
        0
 91
        1
 62
     0
 92
       -2
340
0
 93
        0
 40
0.045
309
GRIDFORMAT_END
 95
       32
302
GRIDFORMAT
  1
GRIDFORMAT_BEGIN
 90
        0
 91
        1
 62
     0
 92
       -2
340
0
 93
        0
 40
0.045
309
GRIDFORMAT_END
309
TABLEFORMAT_END
  1
CELLSTYLE_BEGIN
 90
        1
 91
        1
300
_TITLE
309
CELLSTYLE_END
300
CELLSTYLE
  1
TABLEFORMAT_BEGIN
 90
        5
170
     1
 91
        0
 92
        0
 62
   257
 93
        1
300
CONTENTFORMAT
  1
CONTENTFORMAT_BEGIN
 90
        0
 91
        0
 92
      512
 93
        0
300

 40
0.0
140
1.0
 94
        5
 62
     0
340
21
144
0.18
309
CONTENTFORMAT_END
171
     1
301
MARGIN
  1
CELLMARGIN_BEGIN
 40
0.06
 40
0.06
 40
0.06
 40
0.06
 40
0.18
 40
0.18
309
CELLMARGIN_END
 94
        6
 95
        1
302
GRIDFORMAT
  1
GRIDFORMAT_BEGIN
 90
        0
 91
        1
 62
     0
 92
       -2
340
0
 93
        0
 40
0.045
309
GRIDFORMAT_END
 95
        2
302
GRIDFORMAT
  1
GRIDFORMAT_BEGIN
 90
        0
 91
        1
 62
     0
 92
       -2
340
0
 93
        0
 40
0.045
309
GRIDFORMAT_END
 95
        4
302
GRIDFORMAT
  1
GRIDFORMAT_BEGIN
 90
        0
 91
        1
 62
     0
 92
       -2
340
0
 93
        0
 40
0.045
309
GRIDFORMAT_END
 95
        8
302
GRIDFORMAT
  1
GRIDFORMAT_BEGIN
 90
        0
 91
        1
 62
     0
 92
       -2
340
0
 93
        0
 40
0.045
309
GRIDFORMAT_END
 95
       16
302
GRIDFORMAT
  1
GRIDFORMAT_BEGIN
 90
        0
 91
        1
 62
     0
 92
       -2
340
0
 93
        0
 40
0.045
309
GRIDFORMAT_END
 95
       32
302
GRIDFORMAT
  1
GRIDFORMAT_BEGIN
 90
        0
 91
        1
 62
     0
 92
       -2
340
0
 93
        0
 40
0.045
309
GRIDFORMAT_END
309
TABLEFORMAT_END
  1
CELLSTYLE_BEGIN
 90
        2
 91
        1
300
_HEADER
309
CELLSTYLE_END
300
CELLSTYLE
  1
TABLEFORMAT_BEGIN
 90
        5
170
     1
 91
        0
 92
        0
 62
   257
 93
        1
300
CONTENTFORMAT
  1
CONTENTFORMAT_BEGIN
 90
        0
 91
        0
 92
      512
 93
        0
300

 40
0.0
140
1.0
 94
        2
 62
     0
340
21
144
0.18
309
CONTENTFORMAT_END
171
     1
301
MARGIN
  1
CELLMARGIN_BEGIN
 40
0.06
 40
0.06
 40
0.06
 40
0.06
 40
0.18
 40
0.18
309
CELLMARGIN_END
 94
        6
 95
        1
302
GRIDFORMAT
  1
GRIDFORMAT_BEGIN
 90
        0
 91
        1
 62
     0
 92
       -2
340
0
 93
        0
 40
0.045
309
GRIDFORMAT_END
 95
        2
302
GRIDFORMAT
  1
GRIDFORMAT_BEGIN
 90
        0
 91
        1
 62
     0
 92
       -2
340
0
 93
        0
 40
0.045
309
GRIDFORMAT_END
 95
        4
302
GRIDFORMAT
  1
GRIDFORMAT_BEGIN
 90
        0
 91
        1
 62
     0
 92
       -2
340
0
 93
        0
 40
0.045
309
GRIDFORMAT_END
 95
        8
302
GRIDFORMAT
  1
GRIDFORMAT_BEGIN
 90
        0
 91
        1
 62
     0
 92
       -2
340
0
 93
        0
 40
0.045
309
GRIDFORMAT_END
 95
       16
302
GRIDFORMAT
  1
GRIDFORMAT_BEGIN
 90
        0
 91
        1
 62
     0
 92
       -2
340
0
 93
        0
 40
0.045
309
GRIDFORMAT_END
 95
       32
302
GRIDFORMAT
  1
GRIDFORMAT_BEGIN
 90
        0
 91
        1
 62
     0
 92
       -2
340
0
 93
        0
 40
0.045
309
GRIDFORMAT_END
309
TABLEFORMAT_END
  1
CELLSTYLE_BEGIN
 90
        3
 91
        2
300
_DATA
309
CELLSTYLE_END
  0
ENDSEC
  0
EOF
