  0
SECTION
  2
HEADER
  9
$ACADVER
  1
AC1032
  9
$ACADMAINTVER
 90
      248
  9
$DWGCODEPAGE
  3
ANSI_936
  9
$REQUIREDVERSIONS
160
                 0
  9
$INSBASE
 10
0.0
 20
0.0
 30
0.0
  9
$EXTMIN
 10
-157.9730274657907
 20
83.46437567225381
 30
0.0
  9
$EXTMAX
 10
-150.8663048445675
 20
88.16886289270295
 30
0.0
  9
$LIMMIN
 10
0.0
 20
0.0
  9
$LIMMAX
 10
285.0
 20
404.0
  9
$ORTHOMODE
 70
     1
  9
$REGENMODE
 70
     1
  9
$FILLMODE
 70
     1
  9
$QTEXTMODE
 70
     0
  9
$MIRRTEXT
 70
     0
  9
$LTSCALE
 40
0.04
  9
$ATTMODE
 70
     1
  9
$TEXTSIZE
 40
2.5
  9
$TRACEWID
 40
0.05
  9
$TEXTSTYLE
  7
SIMPLEX
  9
$CLAYER
  8
1
  9
$CELTYPE
  6
ByLayer
  9
$CECOLOR
 62
   256
  9
$CELTSCALE
 40
1.0
  9
$DISPSILH
 70
     0
  9
$DIMSCALE
 40
1.0
  9
$DIMASZ
 40
0.003
  9
$DIMEXO
 40
0.001
  9
$DIMDLI
 40
0.38
  9
$DIMRND
 40
0.0
  9
$DIMDLE
 40
0.0
  9
$DIMEXE
 40
0.001
  9
$DIMTP
 40
0.0015
  9
$DIMTM
 40
0.001
  9
$DIMTXT
 40
0.003
  9
$DIMCEN
 40
0.001
  9
$DIMTSZ
 40
0.0
  9
$DIMTOL
 70
     0
  9
$DIMLIM
 70
     0
  9
$DIMTIH
 70
     1
  9
$DIMTOH
 70
     1
  9
$DIMSE1
 70
     0
  9
$DIMSE2
 70
     0
  9
$DIMTAD
 70
     0
  9
$DIMZIN
 70
     4
  9
$DIMBLK
  1

  9
$DIMASO
 70
     0
  9
$DIMSHO
 70
     0
  9
$DIMPOST
  1

  9
$DIMAPOST
  1

  9
$DIMALT
 70
     0
  9
$DIMALTD
 70
     2
  9
$DIMALTF
 40
25.4
  9
$DIMLFAC
 40
1.0
  9
$DIMTOFL
 70
     0
  9
$DIMTVP
 40
0.0
  9
$DIMTIX
 70
     0
  9
$DIMSOXD
 70
     0
  9
$DIMSAH
 70
     0
  9
$DIMBLK1
  1

  9
$DIMBLK2
  1

  9
$DIMSTYLE
  2
Standard
  9
$DIMCLRD
 70
     0
  9
$DIMCLRE
 70
     0
  9
$DIMCLRT
 70
     0
  9
$DIMTFAC
 40
0.8
  9
$DIMGAP
 40
0.001
  9
$DIMJUST
 70
     0
  9
$DIMSD1
 70
     0
  9
$DIMSD2
 70
     0
  9
$DIMTOLJ
 70
     1
  9
$DIMTZIN
 70
     4
  9
$DIMALTZ
 70
     0
  9
$DIMALTTZ
 70
     0
  9
$DIMUPT
 70
     0
  9
$DIMDEC
 70
     4
  9
$DIMTDEC
 70
     4
  9
$DIMALTU
 70
     2
  9
$DIMALTTD
 70
     2
  9
$DIMTXSTY
  7
SIMPLEX
  9
$DIMAUNIT
 70
     0
  9
$DIMADEC
 70
     0
  9
$DIMALTRND
 40
0.0
  9
$DIMAZIN
 70
     0
  9
$DIMDSEP
 70
    46
  9
$DIMATFIT
 70
     3
  9
$DIMFRAC
 70
     0
  9
$DIMLDRBLK
  1

  9
$DIMLUNIT
 70
     2
  9
$DIMLWD
 70
    -2
  9
$DIMLWE
 70
    -2
  9
$DIMTMOVE
 70
     0
  9
$DIMFXL
 40
1.0
  9
$DIMFXLON
 70
     0
  9
$DIMJOGANG
 40
0.7853981633974483
  9
$DIMTFILL
 70
     0
  9
$DIMTFILLCLR
 70
     0
  9
$DIMARCSYM
 70
     0
  9
$DIMLTYPE
  6

  9
$DIMLTEX1
  6

  9
$DIMLTEX2
  6

  9
$DIMTXTDIRECTION
 70
     0
  9
$LUNITS
 70
     2
  9
$LUPREC
 70
     8
  9
$SKETCHINC
 40
0.1
  9
$FILLETRAD
 40
0.0
  9
$AUNITS
 70
     0
  9
$AUPREC
 70
     0
  9
$MENU
  1
L:\CTOOL\WORK\LFDWG\LSP\MKT\AAA
  9
$ELEVATION
 40
0.0
  9
$PELEVATION
 40
0.0
  9
$THICKNESS
 40
0.0
  9
$LIMCHECK
 70
     0
  9
$CHAMFERA
 40
0.0
  9
$CHAMFERB
 40
0.0
  9
$CHAMFERC
 40
0.0
  9
$CHAMFERD
 40
0.0
  9
$SKPOLY
 70
     0
  9
$TDCREATE
 40
2451578.696840278
  9
$TDUCREATE
 40
2451578.363510301
  9
$TDUPDATE
 40
2460607.484837963
  9
$TDUUPDATE
 40
2460607.151504630
  9
$TDINDWG
 40
2.1219662616
  9
$TDUSRTIMER
 40
2.1219662616
  9
$USRTIMER
 70
     1
  9
$ANGBASE
 50
0.0
  9
$ANGDIR
 70
     0
  9
$PDMODE
 70
     0
  9
$PDSIZE
 40
0.0
  9
$PLINEWID
 40
0.0
  9
$SPLFRAME
 70
     0
  9
$SPLINETYPE
 70
     6
  9
$SPLINESEGS
 70
     8
  9
$HANDSEED
  5
167
  9
$SURFTAB1
 70
     6
  9
$SURFTAB2
 70
     6
  9
$SURFTYPE
 70
     6
  9
$SURFU
 70
     6
  9
$SURFV
 70
     6
  9
$UCSBASE
  2

  9
$UCSNAME
  2

  9
$UCSORG
 10
0.0
 20
0.0
 30
0.0
  9
$UCSXDIR
 10
1.0
 20
0.0
 30
0.0
  9
$UCSYDIR
 10
0.0
 20
1.0
 30
0.0
  9
$UCSORTHOREF
  2

  9
$UCSORTHOVIEW
 70
     0
  9
$UCSORGTOP
 10
0.0
 20
0.0
 30
0.0
  9
$UCSORGBOTTOM
 10
0.0
 20
0.0
 30
0.0
  9
$UCSORGLEFT
 10
0.0
 20
0.0
 30
0.0
  9
$UCSORGRIGHT
 10
0.0
 20
0.0
 30
0.0
  9
$UCSORGFRONT
 10
0.0
 20
0.0
 30
0.0
  9
$UCSORGBACK
 10
0.0
 20
0.0
 30
0.0
  9
$PUCSBASE
  2

  9
$PUCSNAME
  2

  9
$PUCSORG
 10
0.0
 20
0.0
 30
0.0
  9
$PUCSXDIR
 10
1.0
 20
0.0
 30
0.0
  9
$PUCSYDIR
 10
0.0
 20
1.0
 30
0.0
  9
$PUCSORTHOREF
  2

  9
$PUCSORTHOVIEW
 70
     0
  9
$PUCSORGTOP
 10
0.0
 20
0.0
 30
0.0
  9
$PUCSORGBOTTOM
 10
0.0
 20
0.0
 30
0.0
  9
$PUCSORGLEFT
 10
0.0
 20
0.0
 30
0.0
  9
$PUCSORGRIGHT
 10
0.0
 20
0.0
 30
0.0
  9
$PUCSORGFRONT
 10
0.0
 20
0.0
 30
0.0
  9
$PUCSORGBACK
 10
0.0
 20
0.0
 30
0.0
  9
$USERI1
 70
     0
  9
$USERI2
 70
     0
  9
$USERI3
 70
     0
  9
$USERI4
 70
     0
  9
$USERI5
 70
 32767
  9
$USERR1
 40
0.0
  9
$USERR2
 40
0.0
  9
$USERR3
 40
0.0
  9
$USERR4
 40
0.0
  9
$USERR5
 40
0.0
  9
$WORLDVIEW
 70
     1
  9
$SHADEDGE
 70
     3
  9
$SHADEDIF
 70
    70
  9
$TILEMODE
 70
     1
  9
$MAXACTVP
 70
    16
  9
$PINSBASE
 10
0.0
 20
0.0
 30
0.0
  9
$PLIMCHECK
 70
     0
  9
$PEXTMIN
 10
1.000000000000000E+20
 20
1.000000000000000E+20
 30
1.000000000000000E+20
  9
$PEXTMAX
 10
-1.000000000000000E+20
 20
-1.000000000000000E+20
 30
-1.000000000000000E+20
  9
$PLIMMIN
 10
0.0
 20
0.0
  9
$PLIMMAX
 10
12.0
 20
9.0
  9
$UNITMODE
 70
     0
  9
$VISRETAIN
 70
     0
  9
$PLINEGEN
 70
     0
  9
$PSLTSCALE
 70
     0
  9
$TREEDEPTH
 70
  3020
  9
$CMLSTYLE
  2
Standard
  9
$CMLJUST
 70
     0
  9
$CMLSCALE
 40
1.0
  9
$PROXYGRAPHICS
 70
     1
  9
$MEASUREMENT
 70
     0
  9
$CELWEIGHT
370
    -1
  9
$ENDCAPS
280
     0
  9
$JOINSTYLE
280
     0
  9
$LWDISPLAY
290
     0
  9
$INSUNITS
 70
     0
  9
$HYPERLINKBASE
  1

  9
$STYLESHEET
  1

  9
$XEDIT
290
     1
  9
$CEPSNTYPE
380
     0
  9
$PSTYLEMODE
290
     1
  9
$FINGERPRINTGUID
  2
{50E7D4E6-4E61-044D-AC15-A51921909ED2}
  9
$VERSIONGUID
  2
{A638EADE-19B1-4232-9023-07E3AAF43E04}
  9
$EXTNAMES
290
     1
  9
$PSVPSCALE
 40
0.0
  9
$OLESTARTUP
290
     0
  9
$SORTENTS
280
   127
  9
$INDEXCTL
280
     0
  9
$HIDETEXT
280
     1
  9
$XCLIPFRAME
280
     2
  9
$HALOGAP
280
     0
  9
$OBSCOLOR
 70
   257
  9
$OBSLTYPE
280
     0
  9
$INTERSECTIONDISPLAY
280
     0
  9
$INTERSECTIONCOLOR
 70
   257
  9
$DIMASSOC
280
     0
  9
$PROJECTNAME
  1

  9
$CAMERADISPLAY
290
     0
  9
$LENSLENGTH
 40
50.0
  9
$CAMERAHEIGHT
 40
0.0
  9
$STEPSPERSEC
 40
2.0
  9
$STEPSIZE
 40
6.0
  9
$3DDWFPREC
 40
2.0
  9
$PSOLWIDTH
 40
0.25
  9
$PSOLHEIGHT
 40
4.0
  9
$LOFTANG1
 40
1.570796326794896
  9
$LOFTANG2
 40
1.570796326794896
  9
$LOFTMAG1
 40
0.0
  9
$LOFTMAG2
 40
0.0
  9
$LOFTPARAM
 70
     7
  9
$LOFTNORMALS
280
     1
  9
$LATITUDE
 40
37.795
  9
$LONGITUDE
 40
-122.394
  9
$NORTHDIRECTION
 40
0.0
  9
$TIMEZONE
 70
 -8000
  9
$LIGHTGLYPHDISPLAY
280
     1
  9
$TILEMODELIGHTSYNCH
280
     1
  9
$CMATERIAL
347
37
  9
$SOLIDHIST
280
     0
  9
$SHOWHIST
280
     1
  9
$DWFFRAME
280
     2
  9
$DGNFRAME
280
     0
  9
$REALWORLDSCALE
290
     1
  9
$INTERFERECOLOR
 62
     1
  9
$INTERFEREOBJVS
345
5E
  9
$INTERFEREVPVS
346
5F
  9
$CSHADOW
280
     0
  9
$SHADOWPLANELOCATION
 40
0.0
  0
ENDSEC
  0
SECTION
  2
CLASSES
  0
CLASS
  1
ACDBDICTIONARYWDFLT
  2
AcDbDictionaryWithDefault
  3
ObjectDBX Classes
 90
        0
 91
        1
280
     0
281
     0
  0
CLASS
  1
DICTIONARYVAR
  2
AcDbDictionaryVar
  3
ObjectDBX Classes
 90
        0
 91
       12
280
     0
281
     0
  0
CLASS
  1
TABLESTYLE
  2
AcDbTableStyle
  3
ObjectDBX Classes
 90
     4095
 91
        1
280
     0
281
     0
  0
CLASS
  1
SORTENTSTABLE
  2
AcDbSortentsTable
  3
ObjectDBX Classes
 90
        0
 91
        2
280
     0
281
     0
  0
CLASS
  1
MATERIAL
  2
AcDbMaterial
  3
ObjectDBX Classes
 90
     1153
 91
        3
280
     0
281
     0
  0
CLASS
  1
VISUALSTYLE
  2
AcDbVisualStyle
  3
ObjectDBX Classes
 90
     4095
 91
        3
280
     0
281
     0
  0
CLASS
  1
SCALE
  2
AcDbScale
  3
ObjectDBX Classes
 90
     1153
 91
       17
280
     0
281
     0
  0
CLASS
  1
MLEADERSTYLE
  2
AcDbMLeaderStyle
  3
ACDB_MLEADERSTYLE_CLASS
 90
     4095
 91
        0
280
     0
281
     0
  0
CLASS
  1
ACDBSECTIONVIEWSTYLE
  2
AcDbSectionViewStyle
  3
ObjectDBX Classes
 90
     1025
 91
        0
280
     0
281
     0
  0
CLASS
  1
ACDBDETAILVIEWSTYLE
  2
AcDbDetailViewStyle
  3
ObjectDBX Classes
 90
     1025
 91
        0
280
     0
281
     0
  0
CLASS
  1
CELLSTYLEMAP
  2
AcDbCellStyleMap
  3
ObjectDBX Classes
 90
     1152
 91
        1
280
     0
281
     0
  0
CLASS
  1
SOLID_BACKGROUND
  2
AcDbSolidBackground
  3
SCENEOE
 90
     4095
 91
        0
280
     0
281
     0
  0
CLASS
  1
NPOCOLLECTION
  2
AcDbImpNonPersistentObjectsCollection
  3
ObjectDBX Classes
 90
     1153
 91
        0
280
     0
281
     0
  0
ENDSEC
  0
SECTION
  2
TABLES
  0
TABLE
  2
VPORT
  5
29
330
0
100
AcDbSymbolTable
 70
     1
  0
VPORT
  5
2A
330
29
100
AcDbSymbolTableRecord
100
AcDbViewportTableRecord
  2
*Active
 70
     0
 10
0.0
 20
0.0
 11
1.0
 21
1.0
 12
-152.9490324697997
 22
87.13626312944148
 13
0.0
 23
0.0
 14
0.1
 24
0.1
 15
0.0
 25
0.0
 16
0.0
 26
0.0
 36
1.0
 17
0.0
 27
0.0
 37
0.0
 40
2.144739847505022
 41
2.570850202429149
 42
50.0
 43
0.0
 44
0.0
 50
0.0
 51
0.0
 71
     0
 72
 20000
 73
     1
 74
     0
 75
     0
 76
     0
 77
     0
 78
     2
281
     0
 65
     1
110
0.0
120
0.0
130
0.0
111
1.0
121
0.0
131
0.0
112
0.0
122
1.0
132
0.0
 79
     0
146
0.0
348
2B
 60
     3
 61
     5
292
     1
282
     1
141
0.0
142
0.0
 63
   250
421
  3355443
1001
ACAD_NAV_VCDISPLAY
1070
     3
  0
ENDTAB
  0
TABLE
  2
LTYPE
  5
24
330
0
100
AcDbSymbolTable
 70
     1
  0
LTYPE
  5
25
330
24
100
AcDbSymbolTableRecord
100
AcDbLinetypeTableRecord
  2
ByBlock
 70
     0
  3

 72
    65
 73
     0
 40
0.0
  0
LTYPE
  5
26
330
24
100
AcDbSymbolTableRecord
100
AcDbLinetypeTableRecord
  2
ByLayer
 70
     0
  3

 72
    65
 73
     0
 40
0.0
  0
LTYPE
  5
16
330
24
100
AcDbSymbolTableRecord
100
AcDbLinetypeTableRecord
  2
CONTINUOUS
 70
     0
  3
Solid line
 72
    65
 73
     0
 40
0.0
  0
ENDTAB
  0
TABLE
  2
LAYER
  5
20
330
0
100
AcDbSymbolTable
 70
     3
  0
LAYER
  5
7
102
{ACAD_XDICTIONARY
360
8
102
}
330
20
100
AcDbSymbolTableRecord
100
AcDbLayerTableRecord
  2
0
 70
     0
 62
     7
  6
CONTINUOUS
370
    -3
390
A
347
D
348
0
  0
LAYER
  5
58
102
{ACAD_XDICTIONARY
360
59
102
}
330
20
100
AcDbSymbolTableRecord
100
AcDbLayerTableRecord
  2
1
 70
     0
 62
     7
  6
CONTINUOUS
370
    -3
390
A
347
D
348
0
  0
LAYER
  5
72
102
{ACAD_XDICTIONARY
360
73
102
}
330
20
100
AcDbSymbolTableRecord
100
AcDbLayerTableRecord
  2
3
 70
     0
 62
     7
  6
CONTINUOUS
370
    -3
390
A
347
D
348
0
  0
ENDTAB
  0
TABLE
  2
STYLE
  5
21
330
0
100
AcDbSymbolTable
 70
     3
  0
STYLE
  5
22
330
21
100
AcDbSymbolTableRecord
100
AcDbTextStyleTableRecord
  2
STANDARD
 70
     0
 40
3.0
 41
1.0
 50
0.0
 71
     0
 42
2.5
  3
SIMPLEX
  4

  0
STYLE
  5
32
330
21
100
AcDbSymbolTableRecord
100
AcDbTextStyleTableRecord
  2
SIMPLEX
 70
     0
 40
0.0
 41
1.0
 50
0.0
 71
     0
 42
2.5
  3
SIMPLEX.shx
  4

  0
STYLE
  5
77
330
21
100
AcDbSymbolTableRecord
100
AcDbTextStyleTableRecord
  2
ROMANS
 70
     0
 40
2.5
 41
1.0
 50
0.0
 71
     0
 42
2.5
  3
romans
  4

  0
ENDTAB
  0
TABLE
  2
VIEW
  5
27
330
0
100
AcDbSymbolTable
 70
     0
  0
ENDTAB
  0
TABLE
  2
UCS
  5
28
330
0
100
AcDbSymbolTable
 70
     0
  0
ENDTAB
  0
TABLE
  2
APPID
  5
2E
330
0
100
AcDbSymbolTable
 70
     2
  0
APPID
  5
2F
330
2E
100
AcDbSymbolTableRecord
100
AcDbRegAppTableRecord
  2
ACAD
 70
     0
  0
APPID
  5
2D
330
2E
100
AcDbSymbolTableRecord
100
AcDbRegAppTableRecord
  2
ACAD_NAV_VCDISPLAY
 70
     0
  0
ENDTAB
  0
TABLE
  2
DIMSTYLE
  5
30
330
0
100
AcDbSymbolTable
 70
     1
100
AcDbDimStyleTable
 71
     1
340
31
  0
DIMSTYLE
105
31
330
30
100
AcDbSymbolTableRecord
100
AcDbDimStyleTableRecord
  2
Standard
 70
     0
 41
0.003
 42
0.001
 44
0.001
 47
0.0015
 48
0.001
 78
     4
140
0.003
141
0.001
146
0.8
147
0.001
284
     4
340
32
  0
ENDTAB
  0
TABLE
  2
BLOCK_RECORD
  5
1
330
0
100
AcDbSymbolTable
 70
     0
  0
BLOCK_RECORD
  5
2
102
{ACAD_XDICTIONARY
360
3
102
}
330
1
100
AcDbSymbolTableRecord
100
AcDbBlockTableRecord
  2
*Model_Space
340
18
 70
     0
280
     1
281
     0
  0
BLOCK_RECORD
  5
1A
102
{ACAD_XDICTIONARY
360
1B
102
}
330
1
100
AcDbSymbolTableRecord
100
AcDbBlockTableRecord
  2
*Paper_Space
340
1F
 70
     0
280
     1
281
     0
  0
ENDTAB
  0
ENDSEC
  0
SECTION
  2
BLOCKS
  0
BLOCK
  5
6
330
2
100
AcDbEntity
  8
0
100
AcDbBlockBegin
  2
*Model_Space
 70
     0
 10
0.0
 20
0.0
 30
0.0
  3
*Model_Space
  1

  0
ENDBLK
  5
17
330
2
100
AcDbEntity
  8
0
100
AcDbBlockEnd
  0
BLOCK
  5
1D
330
1A
100
AcDbEntity
 67
     1
  8
0
100
AcDbBlockBegin
  2
*Paper_Space
 70
     0
 10
0.0
 20
0.0
 30
0.0
  3
*Paper_Space
  1

  0
ENDBLK
  5
1E
330
1A
100
AcDbEntity
 67
     1
  8
0
100
AcDbBlockEnd
  0
ENDSEC
  0
SECTION
  2
ENTITIES
  0
LINE
  5
71
330
2
100
AcDbEntity
  8
3
 62
     3
100
AcDbLine
 10
-154.0503372474264
 20
86.3631855706687
 30
0.0
 11
-154.0503372474264
 21
87.99054250780327
 31
0.0
  0
LWPOLYLINE
  5
75
330
2
100
AcDbEntity
  8
3
 62
     7
100
AcDbPolyline
 90
        2
 70
     0
 43
0.0017534571957371
 10
-154.1108874893105
 20
86.3631855706687
 10
-154.1108874893105
 20
87.99054250780327
  0
TEXT
  5
76
330
2
100
AcDbEntity
  8
3
 62
     3
100
AcDbText
 10
-154.0968764768339
 20
87.26166221633032
 30
0.0
 40
0.0175345719573706
  1
18
 41
0.9
  7
ROMANS
 72
     4
 11
-154.0807196212447
 21
87.27042950230901
 31
0.0
100
AcDbText
  0
LWPOLYLINE
  5
78
330
2
100
AcDbEntity
  8
3
 62
     7
100
AcDbPolyline
 90
        2
 70
     0
 43
0.0017534571957371
 10
-152.8250527160035
 20
86.51748966440086
 10
-152.8250527160035
 20
86.98040236407543
  0
LWPOLYLINE
  5
79
330
2
100
AcDbEntity
  8
3
 62
     7
100
AcDbPolyline
 90
        2
 70
     0
 43
0.0017534571957371
 10
-153.010675207771
 20
86.51748966440086
 10
-153.010675207771
 20
86.98040236407543
  0
LWPOLYLINE
  5
7A
330
2
100
AcDbEntity
  8
3
 62
     7
100
AcDbPolyline
 90
        2
 70
     0
 43
0.0017534571957371
 10
-153.1962976995385
 20
86.51748966440086
 10
-153.1962976995385
 20
86.98040236407543
  0
LWPOLYLINE
  5
7B
330
2
100
AcDbEntity
  8
3
 62
     7
100
AcDbPolyline
 90
        2
 70
     0
 43
0.0017534571957371
 10
-152.639430224236
 20
86.3631855706687
 10
-152.639430224236
 20
87.99054250780327
  0
TEXT
  5
7C
330
2
100
AcDbEntity
  8
3
 62
     1
100
AcDbText
 10
-153.4582108730448
 20
87.06646994698422
 30
0.0
 40
0.0175345719573706
  1
2     4. THICKNESS:  100-400 u"
 41
0.9
  7
ROMANS
 72
     4
 11
-153.2335178581053
 21
87.07690719219694
 31
0.0
100
AcDbText
  0
TEXT
  5
7D
330
2
100
AcDbEntity
  8
3
 62
     3
100
AcDbText
 10
-154.0328840119544
 20
86.91406040206832
 30
0.0
 40
0.0175345719573706
  1
MAXIMUM RADIUS ON ALL CORNERS UNLESS OTHERWISE SPECIFIED
 41
0.9
  7
ROMANS
 72
     4
 11
-153.6248294731179
 21
86.922827688047
 31
0.0
100
AcDbText
  0
TEXT
  5
7E
330
2
100
AcDbEntity
  8
3
 62
     3
100
AcDbText
 10
-154.0259860914734
 20
86.45097181902052
 30
0.0
 40
0.0175345719573706
  1
INTERNAL LEAD TIP DIMENSIONS GIVEN ARE GIVEN VALUES
 41
0.9
  7
ROMANS
 72
     4
 11
-153.6709110093367
 21
86.45973910499922
 31
0.0
100
AcDbText
  0
TEXT
  5
7F
330
2
100
AcDbEntity
  8
3
 62
     3
100
AcDbText
 10
-154.0307306128022
 20
87.06888424936627
 30
0.0
 40
0.0175345719573706
  1
PLATING TO BE SILVER, AREA REFER TO SHT    OF
 41
0.9
  7
ROMANS
 72
     4
 11
-153.7083449826717
 21
87.07598157611093
 31
0.0
100
AcDbText
  0
TEXT
  5
80
330
2
100
AcDbEntity
  8
3
 62
     3
100
AcDbText
 10
-154.0242313267392
 20
86.41302782507237
 30
0.0
 40
0.0175345719573706
  1
DIMENSION QUADRANT IS TYPICAL FOR QUADRANTS, EXCEPT AS SHOWN
 41
0.9
  7
ROMANS
 72
     4
 11
-153.5898749299667
 21
86.42012515181702
 31
0.0
100
AcDbText
  0
TEXT
  5
81
330
2
100
AcDbEntity
  8
3
 62
     3
100
AcDbText
 10
-154.0300722512693
 20
86.48868159439471
 30
0.0
 40
0.0175345719573706
  1
PART TO BE FREE OF RUST, KINKS, BENDS, WRINKLES, OR SCRATCHES DEEPER THAN
 41
0.9
  7
ROMANS
 72
     4
 11
-153.5010291659269
 21
86.49577892113937
 31
0.0
100
AcDbText
  0
LWPOLYLINE
  5
82
330
2
100
AcDbEntity
  8
3
 62
     7
100
AcDbPolyline
 90
        2
 70
     0
 43
0.0017534571957371
 10
-154.1108874893105
 20
86.3631855706687
 10
-152.639430224236
 20
86.3631855706687
  0
LINE
  5
83
330
2
100
AcDbEntity
  8
3
 62
     3
100
AcDbLine
 10
-154.1108874893105
 20
86.63321783931952
 30
0.0
 11
-152.639430224236
 21
86.63321783931952
 31
0.0
  0
LINE
  5
84
330
2
100
AcDbEntity
  8
3
 62
     3
100
AcDbLine
 10
-154.1108874893105
 20
86.47891367584101
 30
0.0
 11
-152.639430224236
 21
86.47891367584101
 31
0.0
  0
LINE
  5
85
330
2
100
AcDbEntity
  8
3
 62
     3
100
AcDbLine
 10
-154.1108874893105
 20
86.55606572270711
 30
0.0
 11
-152.639430224236
 21
86.55606572270711
 31
0.0
  0
LINE
  5
86
330
2
100
AcDbEntity
  8
3
 62
     3
100
AcDbLine
 10
-154.1108874893105
 20
86.82609813085059
 30
0.0
 11
-152.639430224236
 21
86.82609813085059
 31
0.0
  0
LINE
  5
87
330
2
100
AcDbEntity
  8
3
 62
     3
100
AcDbLine
 10
-154.1108874893105
 20
86.51748966440086
 30
0.0
 11
-152.639430224236
 21
86.51748966440086
 31
0.0
  0
LINE
  5
88
330
2
100
AcDbEntity
  8
3
 62
     3
100
AcDbLine
 10
-154.1108874893105
 20
86.59464178101329
 30
0.0
 11
-152.639430224236
 21
86.59464178101329
 31
0.0
  0
LINE
  5
89
330
2
100
AcDbEntity
  8
3
 62
     3
100
AcDbLine
 10
-154.1108874893105
 20
86.67179389762573
 30
0.0
 11
-152.639430224236
 21
86.67179389762573
 31
0.0
  0
LINE
  5
8A
330
2
100
AcDbEntity
  8
3
 62
     3
100
AcDbLine
 10
-154.1108874893105
 20
86.71036995593196
 30
0.0
 11
-152.639430224236
 21
86.71036995593196
 31
0.0
  0
LINE
  5
8B
330
2
100
AcDbEntity
  8
3
 62
     3
100
AcDbLine
 10
-154.1108874893105
 20
86.74894601423817
 30
0.0
 11
-152.639430224236
 21
86.74894601423817
 31
0.0
  0
LINE
  5
8C
330
2
100
AcDbEntity
  8
3
 62
     3
100
AcDbLine
 10
-154.1108874893105
 20
86.78752207254438
 30
0.0
 11
-152.639430224236
 21
86.78752207254438
 31
0.0
  0
LINE
  5
8D
330
2
100
AcDbEntity
  8
3
 62
     3
100
AcDbLine
 10
-154.1108874893105
 20
87.0575544806879
 30
0.0
 11
-152.639430224236
 21
87.0575544806879
 31
0.0
  0
LINE
  5
8E
330
2
100
AcDbEntity
  8
3
 62
     3
100
AcDbLine
 10
-154.1108874893105
 20
86.94182630576923
 30
0.0
 11
-152.639430224236
 21
86.94182630576923
 31
0.0
  0
LINE
  5
8F
330
2
100
AcDbEntity
  8
3
 62
     3
100
AcDbLine
 10
-154.1108874893105
 20
86.90325024746305
 30
0.0
 11
-152.639430224236
 21
86.90325024746305
 31
0.0
  0
LINE
  5
90
330
2
100
AcDbEntity
  8
3
 62
     3
100
AcDbLine
 10
-154.1108874893105
 20
86.86467418915681
 30
0.0
 11
-152.639430224236
 21
86.86467418915681
 31
0.0
  0
LINE
  5
91
330
2
100
AcDbEntity
  8
3
 62
     3
100
AcDbLine
 10
-154.1108874893105
 20
87.09613053899408
 30
0.0
 11
-152.639430224236
 21
87.09613053899408
 31
0.0
  0
LINE
  5
92
330
2
100
AcDbEntity
  8
3
 62
     3
100
AcDbLine
 10
-154.1108874893105
 20
87.13470659730033
 30
0.0
 11
-152.639430224236
 21
87.13470659730033
 31
0.0
  0
TEXT
  5
93
330
2
100
AcDbEntity
  8
3
 62
     3
100
AcDbText
 10
-154.023712497828
 20
86.56812834673793
 30
0.0
 40
0.0175345719573706
  1
LEAD TWIST/LEAD TILT
 41
0.9
  7
ROMANS
 72
     4
 11
-153.8891972815265
 21
86.57564316329109
 31
0.0
100
AcDbText
  0
TEXT
  5
94
330
2
100
AcDbEntity
  8
3
 62
     3
100
AcDbText
 10
-154.0985507638009
 20
86.72137475337752
 30
0.0
 40
0.0175345719573706
  1
28
 41
0.9
  7
ROMANS
 72
     4
 11
-154.0835211306946
 21
86.7301420393562
 31
0.0
100
AcDbText
  0
TEXT
  5
95
330
2
100
AcDbEntity
  8
3
 62
     3
100
AcDbText
 10
-154.0305414203976
 20
86.37539246696126
 30
0.0
 40
0.0175345719573706
  1
STRIP NUMBER TO BE ADDED ON STRIP
 41
0.9
  7
ROMANS
 72
     4
 11
-153.7866856232476
 21
86.38415975293995
 31
0.0
100
AcDbText
  0
TEXT
  5
96
330
2
100
AcDbEntity
  8
3
 62
     3
100
AcDbText
 10
-154.0288452910447
 20
86.52829981900618
 30
0.0
 40
0.0175345719573706
  1
FRAME TWIST
 41
0.9
  7
ROMANS
 72
     4
 11
-153.9506911988919
 21
86.53706710498488
 31
0.0
100
AcDbText
  0
TEXT
  5
97
330
2
100
AcDbEntity
  8
3
 62
     3
100
AcDbText
 10
-154.0964778822466
 20
86.48949917111767
 30
0.0
 40
0.0175345719573706
  1
34
 41
0.9
  7
ROMANS
 72
     4
 11
-154.0810725083126
 21
86.49826645709635
 31
0.0
100
AcDbText
  0
TEXT
  5
98
330
2
100
AcDbEntity
  8
3
 62
     3
100
AcDbText
 10
-154.0961021414189
 20
86.52893117624879
 30
0.0
 40
0.0175345719573706
  1
33
 41
0.9
  7
ROMANS
 72
     4
 11
-154.0810725083126
 21
86.53769846222749
 31
0.0
100
AcDbText
  0
TEXT
  5
99
330
2
100
AcDbEntity
  8
3
 62
     3
100
AcDbText
 10
-154.093847696453
 20
86.60522727628999
 30
0.0
 40
0.0175345719573706
  1
31
 41
0.9
  7
ROMANS
 72
     4
 11
-154.0810725083126
 21
86.61399456226867
 31
0.0
100
AcDbText
  0
TEXT
  5
9A
330
2
100
AcDbEntity
  8
3
 62
     3
100
AcDbText
 10
-154.0961021414189
 20
86.56665121798376
 30
0.0
 40
0.0175345719573706
  1
32
 41
0.9
  7
ROMANS
 72
     4
 11
-154.0810725083126
 21
86.57541850396246
 31
0.0
100
AcDbText
  0
TEXT
  5
9B
330
2
100
AcDbEntity
  8
3
 62
     3
100
AcDbText
 10
-154.0961021414189
 20
86.64359861396572
 30
0.0
 40
0.0175345719573706
  1
30
 41
0.9
  7
ROMANS
 72
     4
 11
-154.0810725083126
 21
86.65236589994441
 31
0.0
100
AcDbText
  0
TEXT
  5
9C
330
2
100
AcDbEntity
  8
3
 62
     3
100
AcDbText
 10
-154.0957264005913
 20
86.68258904398683
 30
0.0
 40
0.0175345719573706
  1
29
 41
0.9
  7
ROMANS
 72
     4
 11
-154.0810725083126
 21
86.69135632996553
 31
0.0
100
AcDbText
  0
TEXT
  5
9D
330
2
100
AcDbEntity
  8
3
 62
     3
100
AcDbText
 10
-154.0261054651958
 20
86.79833222714968
 30
0.0
 40
0.0175345719573706
  1
LEAD TIP PLANARITY FROM DAM BAR
 41
0.9
  7
ROMANS
 72
     4
 11
-153.8032911543947
 21
86.80709951312838
 31
0.0
100
AcDbText
  0
TEXT
  5
9E
330
2
100
AcDbEntity
  8
3
 62
     3
100
AcDbText
 10
-154.0289514740122
 20
86.72118011053727
 30
0.0
 40
0.0175345719573706
  1
CAMBER
 41
0.9
  7
ROMANS
 72
     4
 11
-153.9823596113826
 21
86.72994739651597
 31
0.0
100
AcDbText
  0
TEXT
  5
9F
330
2
100
AcDbEntity
  8
3
 62
     3
100
AcDbText
 10
-154.0284257879503
 20
86.68260405223106
 30
0.0
 40
0.0175345719573706
  1
PAD TILT
 41
0.9
  7
ROMANS
 72
     4
 11
-153.9754463312505
 21
86.69137133820974
 31
0.0
100
AcDbText
  0
TEXT
  5
A0
330
2
100
AcDbEntity
  8
3
 62
     3
100
AcDbText
 10
-154.0304276596136
 20
86.6054519356186
 30
0.0
 40
0.0175345719573706
  1
CROSS BOW
 41
0.9
  7
ROMANS
 72
     4
 11
-153.9579096798756
 21
86.6142192215973
 31
0.0
100
AcDbText
  0
TEXT
  5
A1
330
2
100
AcDbEntity
  8
3
 62
     3
100
AcDbText
 10
-154.0961021414189
 20
86.75998830403093
 30
0.0
 40
0.0175345719573706
  1
27
 41
0.9
  7
ROMANS
 72
     4
 11
-154.0810725083126
 21
86.76875559000961
 31
0.0
100
AcDbText
  0
TEXT
  5
A2
330
2
100
AcDbEntity
  8
3
 62
     3
100
AcDbText
 10
-154.0944638716051
 20
86.7983547112527
 30
0.0
 40
0.0175345719573706
  1
26
 41
0.9
  7
ROMANS
 72
     4
 11
-154.0794342384988
 21
86.8071219972314
 31
0.0
100
AcDbText
  0
TEXT
  5
A3
330
2
100
AcDbEntity
  8
3
 62
     3
100
AcDbText
 10
-154.0944638716051
 20
86.83735007172781
 30
0.0
 40
0.0175345719573706
  1
25
 41
0.9
  7
ROMANS
 72
     4
 11
-154.0794342384988
 21
86.8461173577065
 31
0.0
100
AcDbText
  0
TEXT
  5
A4
330
2
100
AcDbEntity
  8
3
 62
     3
100
AcDbText
 10
-154.0961249951786
 20
86.87560923043253
 30
0.0
 40
0.0175345719573706
  1
24
 41
0.9
  7
ROMANS
 72
     4
 11
-154.0807196212447
 21
86.88437651641121
 31
0.0
100
AcDbText
  0
TEXT
  5
A5
330
2
100
AcDbEntity
  8
3
 62
     3
100
AcDbText
 10
-154.095749254351
 20
86.91390945218422
 30
0.0
 40
0.0175345719573706
  1
23
 41
0.9
  7
ROMANS
 72
     4
 11
-154.0807196212447
 21
86.92267673816292
 31
0.0
100
AcDbText
  0
TEXT
  5
A6
330
2
100
AcDbEntity
  8
3
 62
     3
100
AcDbText
 10
-154.095749254351
 20
86.95450831189027
 30
0.0
 40
0.0175345719573706
  1
22
 41
0.9
  7
ROMANS
 72
     4
 11
-154.0807196212447
 21
86.96327559786897
 31
0.0
100
AcDbText
  0
TEXT
  5
A7
330
2
100
AcDbEntity
  8
3
 62
     3
100
AcDbText
 10
-154.095749254351
 20
87.06834573753681
 30
0.0
 40
0.0175345719573706
  1
20
 41
0.9
  7
ROMANS
 72
     4
 11
-154.0807196212447
 21
87.07711302351551
 31
0.0
100
AcDbText
  0
TEXT
  5
A8
330
2
100
AcDbEntity
  8
3
 62
     3
100
AcDbText
 10
-154.0965007360063
 20
87.22308615802408
 30
0.0
 40
0.0175345719573706
  1
19
 41
0.9
  7
ROMANS
 72
     4
 11
-154.0807196212447
 21
87.23185344400276
 31
0.0
100
AcDbText
  0
TEXT
  5
A9
330
2
100
AcDbEntity
  8
3
 62
     3
100
AcDbText
 10
-154.0290199558999
 20
86.87629763312639
 30
0.0
 40
0.0175345719573706
  1
VERTICAL BURR
 41
0.9
  7
ROMANS
 72
     4
 11
-153.9380906756067
 21
86.88506491910507
 31
0.0
100
AcDbText
  0
TEXT
  5
AA
330
2
100
AcDbEntity
  8
3
 62
     3
100
AcDbText
 10
-154.0303939389822
 20
86.83690828545591
 30
0.0
 40
0.0175345719573706
  1
HORIZONTAL BURR
 41
0.9
  7
ROMANS
 72
     4
 11
-153.9195503948232
 21
86.84567557143459
 31
0.0
100
AcDbText
  0
TEXT
  5
AB
330
2
100
AcDbEntity
  8
3
 62
     3
100
AcDbText
 10
-154.0284778497991
 20
86.76091626392
 30
0.0
 40
0.0175345719573706
  1
PAD FLATNESS
 41
0.9
  7
ROMANS
 72
     4
 11
-153.9413059777825
 21
86.7696835498987
 31
0.0
100
AcDbText
  0
TEXT
  5
AC
330
2
100
AcDbEntity
  8
3
 62
     3
100
AcDbText
 10
-154.0259445944871
 20
86.64302665532394
 30
0.0
 40
0.0175345719573706
  1
PAD PLANARITY
 41
0.9
  7
ROMANS
 72
     4
 11
-153.9346395733662
 21
86.65179394130264
 31
0.0
100
AcDbText
  0
TEXT
  5
AD
330
2
100
AcDbEntity
  8
3
 62
     3
100
AcDbText
 10
-152.7684928716903
 20
86.72113096542751
 30
0.0
 40
0.0175345719573706
  1
0.0015
 41
0.9
  7
ROMANS
 72
     4
 11
-152.7271613806479
 21
86.72989825140621
 31
0.0
100
AcDbText
  0
TEXT
  5
AE
330
2
100
AcDbEntity
  8
3
 62
     3
100
AcDbText
 10
-152.7684928716903
 20
86.91401125695859
 30
0.0
 40
0.0175345719573706
  1
0.0050
 41
0.9
  7
ROMANS
 72
     4
 11
-152.7271613806479
 21
86.92277854293728
 31
0.0
100
AcDbText
  0
TEXT
  5
AF
330
2
100
AcDbEntity
  8
3
 62
     3
100
AcDbText
 10
-152.7684928716903
 20
86.87543519865236
 30
0.0
 40
0.0175345719573706
  1
0.0010
 41
0.9
  7
ROMANS
 72
     4
 11
-152.7271613806479
 21
86.88420248463106
 31
0.0
100
AcDbText
  0
TEXT
  5
B0
330
2
100
AcDbEntity
  8
3
 62
     3
100
AcDbText
 10
-152.7684928716903
 20
86.83685914034615
 30
0.0
 40
0.0175345719573706
  1
0.0020
 41
0.9
  7
ROMANS
 72
     4
 11
-152.7271613806479
 21
86.84562642632483
 31
0.0
100
AcDbText
  0
TEXT
  5
B1
330
2
100
AcDbEntity
  8
3
 62
     3
100
AcDbText
 10
-152.7684928716903
 20
86.52825067389644
 30
0.0
 40
0.0175345719573706
  1
0.0200
 41
0.9
  7
ROMANS
 72
     4
 11
-152.7271613806479
 21
86.53701795987513
 31
0.0
100
AcDbText
  0
TEXT
  5
B2
330
2
100
AcDbEntity
  8
3
 62
     3
100
AcDbText
 10
-152.8220920203988
 20
86.68380737654683
 30
0.0
 40
0.0175345719573706
  1
0.0020/0.1000
 41
0.9
  7
ROMANS
 72
     4
 11
-152.7311627401056
 21
86.69132219309998
 31
0.0
100
AcDbText
  0
TEXT
  5
B3
330
2
100
AcDbEntity
  8
3
 62
     3
100
AcDbText
 10
-152.822416558791
 20
86.76095949315927
 30
0.0
 40
0.0175345719573706
  1
0.0004/0.1000
 41
0.9
  7
ROMANS
 72
     4
 11
-152.7314872784978
 21
86.76847430971241
 31
0.0
100
AcDbText
  0
TEXT
  5
B4
330
2
100
AcDbEntity
  8
3
 62
     3
100
AcDbText
 10
-152.7376330288346
 20
86.64440953142754
 30
0.0
 40
0.0175345719573706
  1
-
 41
0.9
  7
ROMANS
 72
     4
 11
-152.7278637673155
 21
86.6519243479807
 31
0.0
100
AcDbText
  0
TEXT
  5
B5
330
2
100
AcDbEntity
  8
3
 62
     3
100
AcDbText
 10
-152.7376330288346
 20
86.79871376465239
 30
0.0
 40
0.0175345719573706
  1
-
 41
0.9
  7
ROMANS
 72
     4
 11
-152.7278637673155
 21
86.80622858120555
 31
0.0
100
AcDbText
  0
TEXT
  5
B6
330
2
100
AcDbEntity
  8
3
 62
     3
100
AcDbText
 10
-152.7684928716903
 20
86.60540279050886
 30
0.0
 40
0.0175345719573706
  1
0.0100
 41
0.9
  7
ROMANS
 72
     4
 11
-152.7271613806479
 21
86.61417007648756
 31
0.0
100
AcDbText
  0
TEXT
  5
B7
330
2
100
AcDbEntity
  8
3
 62
     3
100
AcDbText
 10
-152.748954348652
 20
86.56682673220265
 30
0.0
 40
0.0175345719573706
  1
2.5%%d
 41
0.9
  7
ROMANS
 72
     4
 11
-152.7271613806479
 21
86.57559401818135
 31
0.0
100
AcDbText
  0
TEXT
  5
B8
330
2
100
AcDbEntity
  8
3
 62
     3
100
AcDbText
 10
-153.1111550644939
 20
86.56725741481507
 30
0.0
 40
0.0175345719573706
  1
-
 41
0.9
  7
ROMANS
 72
     4
 11
-153.1013858029748
 21
86.57477223136821
 31
0.0
100
AcDbText
  0
TEXT
  5
B9
330
2
100
AcDbEntity
  8
3
 62
     3
100
AcDbText
 10
-153.1111550644939
 20
86.52868135650889
 30
0.0
 40
0.0175345719573706
  1
-
 41
0.9
  7
ROMANS
 72
     4
 11
-153.1013858029748
 21
86.53619617306203
 31
0.0
100
AcDbText
  0
TEXT
  5
BA
330
2
100
AcDbEntity
  8
3
 62
     3
100
AcDbText
 10
-152.9286147314959
 20
86.52868135650889
 30
0.0
 40
0.0175345719573706
  1
-
 41
0.9
  7
ROMANS
 72
     4
 11
-152.9188454699768
 21
86.53619617306203
 31
0.0
100
AcDbText
  0
TEXT
  5
BB
330
2
100
AcDbEntity
  8
3
 62
     3
100
AcDbText
 10
-152.9286147314959
 20
86.56725741481507
 30
0.0
 40
0.0175345719573706
  1
-
 41
0.9
  7
ROMANS
 72
     4
 11
-152.9188454699768
 21
86.57477223136821
 31
0.0
100
AcDbText
  0
TEXT
  5
BC
330
2
100
AcDbEntity
  8
3
 62
     3
100
AcDbText
 10
-152.9525469140393
 20
86.48736111895154
 30
0.0
 40
0.0175345719573706
  1
0.0003
 41
0.9
  7
ROMANS
 72
     4
 11
-152.911215422997
 21
86.49612840493023
 31
0.0
100
AcDbText
  0
TEXT
  5
BD
330
2
100
AcDbEntity
  8
3
 62
     3
100
AcDbText
 10
-153.1111550644939
 20
86.64440953142754
 30
0.0
 40
0.0175345719573706
  1
-
 41
0.9
  7
ROMANS
 72
     4
 11
-153.1013858029748
 21
86.6519243479807
 31
0.0
100
AcDbText
  0
TEXT
  5
BE
330
2
100
AcDbEntity
  8
3
 62
     3
100
AcDbText
 10
-153.1111550644939
 20
86.6058334731213
 30
0.0
 40
0.0175345719573706
  1
-
 41
0.9
  7
ROMANS
 72
     4
 11
-153.1013858029748
 21
86.61334828967445
 31
0.0
100
AcDbText
  0
TEXT
  5
BF
330
2
100
AcDbEntity
  8
3
 62
     3
100
AcDbText
 10
-153.1111550644939
 20
86.83728982295859
 30
0.0
 40
0.0175345719573706
  1
-
 41
0.9
  7
ROMANS
 72
     4
 11
-153.1013858029748
 21
86.84480463951173
 31
0.0
100
AcDbText
  0
TEXT
  5
C0
330
2
100
AcDbEntity
  8
3
 62
     3
100
AcDbText
 10
-153.1111550644939
 20
86.91444193957101
 30
0.0
 40
0.0175345719573706
  1
-
 41
0.9
  7
ROMANS
 72
     4
 11
-153.1013858029748
 21
86.92195675612417
 31
0.0
100
AcDbText
  0
TEXT
  5
C1
330
2
100
AcDbEntity
  8
3
 62
     3
100
AcDbText
 10
-153.1111550644939
 20
86.87586588126478
 30
0.0
 40
0.0175345719573706
  1
-
 41
0.9
  7
ROMANS
 72
     4
 11
-153.1013858029748
 21
86.88338069781794
 31
0.0
100
AcDbText
  0
TEXT
  5
C2
330
2
100
AcDbEntity
  8
3
 62
     3
100
AcDbText
 10
-153.1111550644939
 20
86.68298558973372
 30
0.0
 40
0.0175345719573706
  1
-
 41
0.9
  7
ROMANS
 72
     4
 11
-153.1013858029748
 21
86.69050040628688
 31
0.0
100
AcDbText
  0
TEXT
  5
C3
330
2
100
AcDbEntity
  8
3
 62
     3
100
AcDbText
 10
-153.1111550644939
 20
86.72156164803993
 30
0.0
 40
0.0175345719573706
  1
-
 41
0.9
  7
ROMANS
 72
     4
 11
-153.1013858029748
 21
86.72907646459309
 31
0.0
100
AcDbText
  0
TEXT
  5
C4
330
2
100
AcDbEntity
  8
3
 62
     3
100
AcDbText
 10
-153.1111550644939
 20
86.76013770634614
 30
0.0
 40
0.0175345719573706
  1
-
 41
0.9
  7
ROMANS
 72
     4
 11
-153.1013858029748
 21
86.7676525228993
 31
0.0
100
AcDbText
  0
TEXT
  5
C5
330
2
100
AcDbEntity
  8
3
 62
     3
100
AcDbText
 10
-153.1111550644939
 20
86.79871376465239
 30
0.0
 40
0.0175345719573706
  1
-
 41
0.9
  7
ROMANS
 72
     4
 11
-153.1013858029748
 21
86.80622858120555
 31
0.0
100
AcDbText
  0
TEXT
  5
C6
330
2
100
AcDbEntity
  8
3
 62
     3
100
AcDbText
 10
-152.9696195766984
 20
86.79828308203997
 30
0.0
 40
0.0175345719573706
  1
%%p0.0040
 41
0.9
  7
ROMANS
 72
     4
 11
-152.9181430833093
 21
86.80705036801866
 31
0.0
100
AcDbText
  0
TEXT
  5
C7
330
2
100
AcDbEntity
  8
3
 62
     3
100
AcDbText
 10
-152.9696195766984
 20
86.64397884881507
 30
0.0
 40
0.0175345719573706
  1
%%p0.0040
 41
0.9
  7
ROMANS
 72
     4
 11
-152.9181430833093
 21
86.65274613479375
 31
0.0
100
AcDbText
  0
TEXT
  5
C8
330
2
100
AcDbEntity
  8
3
 62
     3
100
AcDbText
 10
-152.9286147314959
 20
86.87586588126478
 30
0.0
 40
0.0175345719573706
  1
-
 41
0.9
  7
ROMANS
 72
     4
 11
-152.9188454699768
 21
86.88338069781794
 31
0.0
100
AcDbText
  0
TEXT
  5
C9
330
2
100
AcDbEntity
  8
3
 62
     3
100
AcDbText
 10
-152.9286147314959
 20
86.91444193957101
 30
0.0
 40
0.0175345719573706
  1
-
 41
0.9
  7
ROMANS
 72
     4
 11
-152.9188454699768
 21
86.92195675612417
 31
0.0
100
AcDbText
  0
TEXT
  5
CA
330
2
100
AcDbEntity
  8
3
 62
     3
100
AcDbText
 10
-152.9286147314959
 20
86.83728982295859
 30
0.0
 40
0.0175345719573706
  1
-
 41
0.9
  7
ROMANS
 72
     4
 11
-152.9188454699768
 21
86.84480463951173
 31
0.0
100
AcDbText
  0
TEXT
  5
CB
330
2
100
AcDbEntity
  8
3
 62
     3
100
AcDbText
 10
-152.9286147314959
 20
86.6058334731213
 30
0.0
 40
0.0175345719573706
  1
-
 41
0.9
  7
ROMANS
 72
     4
 11
-152.9188454699768
 21
86.61334828967445
 31
0.0
100
AcDbText
  0
TEXT
  5
CC
330
2
100
AcDbEntity
  8
3
 62
     3
100
AcDbText
 10
-152.9286147314959
 20
86.76013770634614
 30
0.0
 40
0.0175345719573706
  1
-
 41
0.9
  7
ROMANS
 72
     4
 11
-152.9188454699768
 21
86.7676525228993
 31
0.0
100
AcDbText
  0
TEXT
  5
CD
330
2
100
AcDbEntity
  8
3
 62
     3
100
AcDbText
 10
-152.9286147314959
 20
86.72156164803993
 30
0.0
 40
0.0175345719573706
  1
-
 41
0.9
  7
ROMANS
 72
     4
 11
-152.9188454699768
 21
86.72907646459309
 31
0.0
100
AcDbText
  0
TEXT
  5
CE
330
2
100
AcDbEntity
  8
3
 62
     3
100
AcDbText
 10
-152.9286147314959
 20
86.68298558973372
 30
0.0
 40
0.0175345719573706
  1
-
 41
0.9
  7
ROMANS
 72
     4
 11
-152.9188454699768
 21
86.69050040628688
 31
0.0
100
AcDbText
  0
TEXT
  5
CF
330
2
100
AcDbEntity
  8
3
 62
     3
100
AcDbText
 10
-154.0271902159525
 20
87.8013094641259
 30
0.0
 40
0.0175345719573706
  1
LEAD TIP FLAT WIDTH
 41
0.9
  7
ROMANS
 72
     4
 11
-153.8983111120658
 21
87.8100767501046
 31
0.0
100
AcDbText
  0
LINE
  5
D0
330
2
100
AcDbEntity
  8
3
 62
     3
100
AcDbLine
 10
-154.1108874893105
 20
87.21185871391273
 30
0.0
 11
-152.639430224236
 21
87.21185871391273
 31
0.0
  0
LINE
  5
D1
330
2
100
AcDbEntity
  8
3
 62
     3
100
AcDbLine
 10
-154.1108874893105
 20
87.25043470247262
 30
0.0
 11
-152.639430224236
 21
87.25043470247262
 31
0.0
  0
LINE
  5
D2
330
2
100
AcDbEntity
  8
3
 62
     3
100
AcDbLine
 10
-154.1108874893105
 20
87.28901069103249
 30
0.0
 11
-152.639430224236
 21
87.28901069103249
 31
0.0
  0
LINE
  5
D3
330
2
100
AcDbEntity
  8
3
 62
     3
100
AcDbLine
 10
-154.1108874893105
 20
87.32758667959233
 30
0.0
 11
-152.639430224236
 21
87.32758667959233
 31
0.0
  0
LINE
  5
D4
330
2
100
AcDbEntity
  8
3
 62
     3
100
AcDbLine
 10
-154.1108874893105
 20
87.1732826556065
 30
0.0
 11
-152.639430224236
 21
87.1732826556065
 31
0.0
  0
LINE
  5
D5
330
2
100
AcDbEntity
  8
3
 62
     3
100
AcDbLine
 10
-154.1108874893105
 20
87.9062274844392
 30
0.0
 11
-152.639430224236
 21
87.9062274844392
 31
0.0
  0
LINE
  5
D6
330
2
100
AcDbEntity
  8
3
 62
     3
100
AcDbLine
 10
-154.1108874893105
 20
87.86765142613303
 30
0.0
 11
-152.639430224236
 21
87.86765142613303
 31
0.0
  0
LINE
  5
D7
330
2
100
AcDbEntity
  8
3
 62
     3
100
AcDbLine
 10
-154.1108874893105
 20
87.71334719290813
 30
0.0
 11
-152.639430224236
 21
87.71334719290813
 31
0.0
  0
LINE
  5
D8
330
2
100
AcDbEntity
  8
3
 62
     3
100
AcDbLine
 10
-154.1108874893105
 20
87.75192325121436
 30
0.0
 11
-152.639430224236
 21
87.75192325121436
 31
0.0
  0
LINE
  5
D9
330
2
100
AcDbEntity
  8
3
 62
     3
100
AcDbLine
 10
-154.1108874893105
 20
87.79049930952057
 30
0.0
 11
-152.639430224236
 21
87.79049930952057
 31
0.0
  0
LINE
  5
DA
330
2
100
AcDbEntity
  8
3
 62
     3
100
AcDbLine
 10
-154.1108874893105
 20
87.82907536782678
 30
0.0
 11
-152.639430224236
 21
87.82907536782678
 31
0.0
  0
LINE
  5
DB
330
2
100
AcDbEntity
  8
3
 62
     3
100
AcDbLine
 10
-154.1108874893105
 20
87.6361950762957
 30
0.0
 11
-152.639430224236
 21
87.6361950762957
 31
0.0
  0
LINE
  5
DC
330
2
100
AcDbEntity
  8
3
 62
     3
100
AcDbLine
 10
-154.1108874893105
 20
87.59761901798949
 30
0.0
 11
-152.639430224236
 21
87.59761901798949
 31
0.0
  0
LINE
  5
DD
330
2
100
AcDbEntity
  8
3
 62
     3
100
AcDbLine
 10
-154.1108874893105
 20
87.55904295968328
 30
0.0
 11
-152.639430224236
 21
87.55904295968328
 31
0.0
  0
LINE
  5
DE
330
2
100
AcDbEntity
  8
3
 62
     3
100
AcDbLine
 10
-154.1108874893105
 20
87.52046690137705
 30
0.0
 11
-152.639430224236
 21
87.52046690137705
 31
0.0
  0
LINE
  5
DF
330
2
100
AcDbEntity
  8
3
 62
     3
100
AcDbLine
 10
-154.1108874893105
 20
87.48189084307083
 30
0.0
 11
-152.639430224236
 21
87.48189084307083
 31
0.0
  0
LINE
  5
E0
330
2
100
AcDbEntity
  8
3
 62
     3
100
AcDbLine
 10
-154.1108874893105
 20
87.44331478476464
 30
0.0
 11
-152.639430224236
 21
87.44331478476464
 31
0.0
  0
LINE
  5
E1
330
2
100
AcDbEntity
  8
3
 62
     3
100
AcDbLine
 10
-154.1108874893105
 20
87.36616266815222
 30
0.0
 11
-152.639430224236
 21
87.36616266815222
 31
0.0
  0
LINE
  5
E2
330
2
100
AcDbEntity
  8
3
 62
     3
100
AcDbLine
 10
-154.1108874893105
 20
87.67477113460193
 30
0.0
 11
-152.639430224236
 21
87.67477113460193
 31
0.0
  0
LINE
  5
E3
330
2
100
AcDbEntity
  8
3
 62
     3
100
AcDbLine
 10
-154.1108874893105
 20
87.94480354274543
 30
0.0
 11
-152.639430224236
 21
87.94480354274543
 31
0.0
  0
LWPOLYLINE
  5
E4
330
2
100
AcDbEntity
  8
3
 62
     7
100
AcDbPolyline
 90
        2
 70
     0
 43
0.0017534571957371
 10
-154.1108874893105
 20
87.99054250780327
 10
-152.639430224236
 20
87.99054250780327
  0
LINE
  5
E5
330
2
100
AcDbEntity
  8
3
 62
     3
100
AcDbLine
 10
-154.1108874893105
 20
87.40473872645839
 30
0.0
 11
-152.639430224236
 21
87.40473872645839
 31
0.0
  0
TEXT
  5
E6
330
2
100
AcDbEntity
  8
3
 62
     3
100
AcDbText
 10
-154.0321253407059
 20
87.22322669411168
 30
0.0
 40
0.0175345719573706
  1
PLATING AREA (PAD CENTER REF.) : XR
 41
0.9
  7
ROMANS
 72
     4
 11
-153.7875180619006
 21
87.23074151066484
 31
0.0
100
AcDbText
  0
TEXT
  5
E7
330
2
100
AcDbEntity
  8
3
 62
     3
100
AcDbText
 10
-154.0972293639019
 20
87.3000519573846
 30
0.0
 40
0.0175345719573706
  1
17
 41
0.9
  7
ROMANS
 72
     4
 11
-154.0810725083126
 21
87.30881924336328
 31
0.0
100
AcDbText
  0
TEXT
  5
E8
330
2
100
AcDbEntity
  8
3
 62
     3
100
AcDbText
 10
-154.0314922558024
 20
87.45412493936997
 30
0.0
 40
0.0175345719573706
  1
STRIP WIDTH
 41
0.9
  7
ROMANS
 72
     4
 11
-153.9574713127538
 21
87.46289222534867
 31
0.0
100
AcDbText
  0
TEXT
  5
E9
330
2
100
AcDbEntity
  8
3
 62
     3
100
AcDbText
 10
-154.0311608384007
 20
87.41554888106376
 30
0.0
 40
0.0175345719573706
  1
UNIT PITCH
 41
0.9
  7
ROMANS
 72
     4
 11
-153.9646547119053
 21
87.42431616704244
 31
0.0
100
AcDbText
  0
TEXT
  5
EA
330
2
100
AcDbEntity
  8
3
 62
     3
100
AcDbText
 10
-154.0313716921305
 20
87.26009437242426
 30
0.0
 40
0.0175345719573706
  1
COIL SET
 41
0.9
  7
ROMANS
 72
     4
 11
-153.9765135312925
 21
87.26886165840296
 31
0.0
100
AcDbText
  0
TEXT
  5
EB
330
2
100
AcDbEntity
  8
3
 62
     3
100
AcDbText
 10
-154.0972293639019
 20
87.57008524947609
 30
0.0
 40
0.0175345719573706
  1
10
 41
0.9
  7
ROMANS
 72
     4
 11
-154.0810725083126
 21
87.57885253545479
 31
0.0
100
AcDbText
  0
TEXT
  5
EC
330
2
100
AcDbEntity
  8
3
 62
     3
100
AcDbText
 10
-154.0974235413179
 20
87.53147169882266
 30
0.0
 40
0.0175345719573706
  1
11
 41
0.9
  7
ROMANS
 72
     4
 11
-154.0835211306946
 21
87.54023898480136
 31
0.0
100
AcDbText
  0
TEXT
  5
ED
330
2
100
AcDbEntity
  8
3
 62
     3
100
AcDbText
 10
-154.0972293639019
 20
87.49268598943201
 30
0.0
 40
0.0175345719573706
  1
12
 41
0.9
  7
ROMANS
 72
     4
 11
-154.0810725083126
 21
87.50145327541069
 31
0.0
100
AcDbText
  0
TEXT
  5
EE
330
2
100
AcDbEntity
  8
3
 62
     3
100
AcDbText
 10
-154.0972293639019
 20
87.4541099311258
 30
0.0
 40
0.0175345719573706
  1
13
 41
0.9
  7
ROMANS
 72
     4
 11
-154.0810725083126
 21
87.4628772171045
 31
0.0
100
AcDbText
  0
TEXT
  5
EF
330
2
100
AcDbEntity
  8
3
 62
     3
100
AcDbText
 10
-154.0976051047296
 20
87.41511950110464
 30
0.0
 40
0.0175345719573706
  1
14
 41
0.9
  7
ROMANS
 72
     4
 11
-154.0810725083126
 21
87.42388678708334
 31
0.0
100
AcDbText
  0
TEXT
  5
F0
330
2
100
AcDbEntity
  8
3
 62
     3
100
AcDbText
 10
-154.0972293639019
 20
87.3381721051227
 30
0.0
 40
0.0175345719573706
  1
16
 41
0.9
  7
ROMANS
 72
     4
 11
-154.0810725083126
 21
87.3469393911014
 31
0.0
100
AcDbText
  0
TEXT
  5
F1
330
2
100
AcDbEntity
  8
3
 62
     3
100
AcDbText
 10
-154.0972293639019
 20
87.37674816342893
 30
0.0
 40
0.0175345719573706
  1
15
 41
0.9
  7
ROMANS
 72
     4
 11
-154.0810725083126
 21
87.38551544940762
 31
0.0
100
AcDbText
  0
TEXT
  5
F2
330
2
100
AcDbEntity
  8
3
 62
     3
100
AcDbText
 10
-154.0315071757526
 20
87.49270099767619
 30
0.0
 40
0.0175345719573706
  1
STRIP LENGTH
 41
0.9
  7
ROMANS
 72
     4
 11
-153.9477169711849
 21
87.50146828365489
 31
0.0
100
AcDbText
  0
TEXT
  5
F3
330
2
100
AcDbEntity
  8
3
 62
     3
100
AcDbText
 10
-154.0287513150603
 20
87.37682973705224
 30
0.0
 40
0.0175345719573706
  1
CUMULATIVE PITCH
 41
0.9
  7
ROMANS
 72
     4
 11
-153.9186592525565
 21
87.38559702303092
 31
0.0
100
AcDbText
  0
TEXT
  5
F4
330
2
100
AcDbEntity
  8
3
 62
     3
100
AcDbText
 10
-154.0299233828385
 20
87.29860692789587
 30
0.0
 40
0.0175345719573706
  1
MISALIGNMENT
 41
0.9
  7
ROMANS
 72
     4
 11
-153.9465089190984
 21
87.30737421387457
 31
0.0
100
AcDbText
  0
TEXT
  5
F5
330
2
100
AcDbEntity
  8
3
 62
     3
100
AcDbText
 10
-154.0316049265103
 20
87.33947335050364
 30
0.0
 40
0.0175345719573706
  1
LOCK/ANCHOR HOLE
 41
0.9
  7
ROMANS
 72
     4
 11
-153.9068589717279
 21
87.34698816705678
 31
0.0
100
AcDbText
  0
TEXT
  5
F6
330
2
100
AcDbEntity
  8
3
 62
     3
100
AcDbText
 10
-153.5932384570896
 20
87.1058810539878
 30
0.0
 40
0.0175345719573706
  1
: YL
 41
0.9
  7
ROMANS
 72
     4
 11
-153.5673123399812
 21
87.11464833996648
 31
0.0
100
AcDbText
  0
TEXT
  5
F7
330
2
100
AcDbEntity
  8
3
 62
     3
100
AcDbText
 10
-153.5939899387449
 20
87.14573393636442
 30
0.0
 40
0.0175345719573706
  1
: YH
 41
0.9
  7
ROMANS
 72
     4
 11
-153.5673123399812
 21
87.15450122234312
 31
0.0
100
AcDbText
  0
TEXT
  5
F8
330
2
100
AcDbEntity
  8
3
 62
     3
100
AcDbText
 10
-153.5939899387449
 20
87.18212134946403
 30
0.0
 40
0.0175345719573706
  1
: XL
 41
0.9
  7
ROMANS
 72
     4
 11
-153.5673123399812
 21
87.19088863544273
 31
0.0
100
AcDbText
  0
TEXT
  5
F9
330
2
100
AcDbEntity
  8
3
 62
     3
100
AcDbText
 10
-154.027632608092
 20
87.68558128920725
 30
0.0
 40
0.0175345719573706
  1
MIN. LEAD SPACE AFTER PLATE
 41
0.9
  7
ROMANS
 72
     4
 11
-153.8371320084694
 21
87.69434857518595
 31
0.0
100
AcDbText
  0
TEXT
  5
FA
330
2
100
AcDbEntity
  8
3
 62
     3
100
AcDbText
 10
-154.0291728893562
 20
87.76273340581969
 30
0.0
 40
0.0175345719573706
  1
M TO M CLEARANCE AFTER ETCH
 41
0.9
  7
ROMANS
 72
     4
 11
-153.8274000649039
 21
87.77150069179837
 31
0.0
100
AcDbText
  0
TEXT
  5
FB
330
2
100
AcDbEntity
  8
3
 62
     3
100
AcDbText
 10
-154.0314025273713
 20
87.87927487010263
 30
0.0
 40
0.0175345719573706
  1
PILOT HOLE DIAMETER
 41
0.9
  7
ROMANS
 72
     4
 11
-153.8987660152081
 21
87.88804215608131
 31
0.0
100
AcDbText
  0
TEXT
  5
FC
330
2
100
AcDbEntity
  8
3
 62
     3
100
AcDbText
 10
-154.027512320512
 20
87.91703763904454
 30
0.0
 40
0.0175345719573706
  1
MATERIAL THICKNESS - 
 41
0.9
  7
ROMANS
 72
     4
 11
-153.8775917302765
 21
87.92580492502322
 31
0.0
100
AcDbText
  0
TEXT
  5
FD
330
2
100
AcDbEntity
  8
3
 62
     3
100
AcDbText
 10
-154.0296326469776
 20
87.83988552243213
 30
0.0
 40
0.0175345719573706
  1
EXTERNAL LEAD WIDTH
 41
0.9
  7
ROMANS
 72
     4
 11
-153.8943659490208
 21
87.84865280841081
 31
0.0
100
AcDbText
  0
TEXT
  5
FE
330
2
100
AcDbEntity
  8
3
 62
     3
100
AcDbText
 10
-154.0289097758092
 20
87.7241573475135
 30
0.0
 40
0.0175345719573706
  1
MIN. LEAD SPACE AFTER ETCH
 41
0.9
  7
ROMANS
 72
     4
 11
-153.8440452886015
 21
87.73292463349219
 31
0.0
100
AcDbText
  0
TEXT
  5
FF
330
2
100
AcDbEntity
  8
3
 62
     3
100
AcDbText
 10
-154.0882344377978
 20
87.68570617587769
 30
0.0
 40
0.0175345719573706
  1
7
 41
0.9
  7
ROMANS
 72
     4
 11
-154.0807196212447
 21
87.69447346185639
 31
0.0
100
AcDbText
  0
TEXT
  5
100
330
2
100
AcDbEntity
  8
3
 62
     3
100
AcDbText
 10
-154.0280604460444
 20
87.6472563617257
 30
0.0
 40
0.0175345719573706
  1
PAD SIZE (X) - TOP
 41
0.9
  7
ROMANS
 72
     4
 11
-153.8984298605024
 21
87.65477117827886
 31
0.0
100
AcDbText
  0
TEXT
  5
101
330
2
100
AcDbEntity
  8
3
 62
     3
100
AcDbText
 10
-154.0277502513451
 20
87.53252952540792
 30
0.0
 40
0.0175345719573706
  1
PAD SIZE (Y) - BOTTOM
 41
0.9
  7
ROMANS
 72
     4
 11
-153.8759509569713
 21
87.54004434196108
 31
0.0
100
AcDbText
  0
TEXT
  5
102
330
2
100
AcDbEntity
  8
3
 62
     3
100
AcDbText
 10
-154.086949055052
 20
87.64744701717297
 30
0.0
 40
0.0175345719573706
  1
8
 41
0.9
  7
ROMANS
 72
     4
 11
-154.0794342384988
 21
87.65621430315167
 31
0.0
100
AcDbText
  0
TEXT
  5
103
330
2
100
AcDbEntity
  8
3
 62
     3
100
AcDbText
 10
-154.0865733142243
 20
87.60845165669786
 30
0.0
 40
0.0175345719573706
  1
9
 41
0.9
  7
ROMANS
 72
     4
 11
-154.0794342384988
 21
87.61721894267656
 31
0.0
100
AcDbText
  0
TEXT
  5
104
330
2
100
AcDbEntity
  8
3
 62
     7
100
AcDbText
 10
-154.1065800014031
 20
88.01147607047226
 30
0.0
 40
0.0255503762807399
  1
NOTES :
 41
0.9
  7
ROMANS
 72
     4
 11
-154.0354039531925
 21
88.02425125861264
 31
0.0
100
AcDbText
  0
TEXT
  5
105
330
2
100
AcDbEntity
  8
3
 62
     3
100
AcDbText
 10
-154.0882344377978
 20
87.87887900973705
 30
0.0
 40
0.0175345719573706
  1
2
 41
0.9
  7
ROMANS
 72
     4
 11
-154.0807196212447
 21
87.88764629571575
 31
0.0
100
AcDbText
  0
TEXT
  5
106
330
2
100
AcDbEntity
  8
3
 62
     3
100
AcDbText
 10
-154.0886101786255
 20
87.80143600862123
 30
0.0
 40
0.0175345719573706
  1
4
 41
0.9
  7
ROMANS
 72
     4
 11
-154.0807196212447
 21
87.81020329459991
 31
0.0
100
AcDbText
  0
TEXT
  5
107
330
2
100
AcDbEntity
  8
3
 62
     3
100
AcDbText
 10
-154.0882344377978
 20
87.83986662467574
 30
0.0
 40
0.0175345719573706
  1
3
 41
0.9
  7
ROMANS
 72
     4
 11
-154.0807196212447
 21
87.84863391065442
 31
0.0
100
AcDbText
  0
TEXT
  5
108
330
2
100
AcDbEntity
  8
3
 62
     3
100
AcDbText
 10
-154.0882344377978
 20
87.76460525733545
 30
0.0
 40
0.0175345719573706
  1
5
 41
0.9
  7
ROMANS
 72
     4
 11
-154.0807196212447
 21
87.77337254331415
 31
0.0
100
AcDbText
  0
TEXT
  5
109
330
2
100
AcDbEntity
  8
3
 62
     3
100
AcDbText
 10
-154.0886101786255
 20
87.72400639762937
 30
0.0
 40
0.0175345719573706
  1
6
 41
0.9
  7
ROMANS
 72
     4
 11
-154.0807196212447
 21
87.73277368360806
 31
0.0
100
AcDbText
  0
TEXT
  5
10A
330
2
100
AcDbEntity
  8
3
 62
     3
100
AcDbText
 10
-154.0871072153148
 20
87.91745506804328
 30
0.0
 40
0.0175345719573706
  1
1
 41
0.9
  7
ROMANS
 72
     4
 11
-154.0807196212447
 21
87.92622235402197
 31
0.0
100
AcDbText
  0
TEXT
  5
10B
330
2
100
AcDbEntity
  8
3
 62
     1
100
AcDbText
 10
-153.6695480147551
 20
87.91579337537955
 30
0.0
 40
0.0175345719573706
  1
A194 FH
 41
0.9
  7
ROMANS
 72
     4
 11
-153.6184472621937
 21
87.92456066135825
 31
0.0
100
AcDbText
  0
TEXT
  5
10C
330
2
100
AcDbEntity
  8
3
 62
     3
100
AcDbText
 10
-152.7730770736447
 20
87.87841243562862
 30
0.0
 40
0.0175345719573706
  1
0.0610
 41
0.9
  7
ROMANS
 72
     4
 11
-152.7317455826023
 21
87.8871797216073
 31
0.0
100
AcDbText
  0
TEXT
  5
10D
330
2
100
AcDbEntity
  8
3
 62
     3
100
AcDbText
 10
-152.7730770736447
 20
87.64695608579129
 30
0.0
 40
0.0175345719573706
  1
0.1280
 41
0.9
  7
ROMANS
 72
     4
 11
-152.7317455826023
 21
87.65572337176998
 31
0.0
100
AcDbText
  0
TEXT
  5
10E
330
2
100
AcDbEntity
  8
3
 62
     3
100
AcDbText
 10
-152.7730770736447
 20
87.53122791087266
 30
0.0
 40
0.0175345719573706
  1
0.1000
 41
0.9
  7
ROMANS
 72
     4
 11
-152.7317455826023
 21
87.53999519685136
 31
0.0
100
AcDbText
  0
TEXT
  5
10F
330
2
100
AcDbEntity
  8
3
 62
     3
100
AcDbText
 10
-152.7730770736447
 20
87.91698849393482
 30
0.0
 40
0.0175345719573706
  1
0.0083
 41
0.9
  7
ROMANS
 72
     4
 11
-152.7317455826023
 21
87.9257557799135
 31
0.0
100
AcDbText
  0
TEXT
  5
110
330
2
100
AcDbEntity
  8
3
 62
     3
100
AcDbText
 10
-152.7730770736447
 20
87.83983637732237
 30
0.0
 40
0.0175345719573706
  1
0.0170
 41
0.9
  7
ROMANS
 72
     4
 11
-152.7317455826023
 21
87.84860366330105
 31
0.0
100
AcDbText
  0
TEXT
  5
111
330
2
100
AcDbEntity
  8
3
 62
     7
100
AcDbText
 10
-152.7579301619655
 20
87.95604144045885
 30
0.0
 40
0.0210414863488447
  1
MAX.
 41
0.9
  7
ROMANS
 72
     4
 11
-152.7254661544559
 21
87.96656218363327
 31
0.0
100
AcDbText
  0
TEXT
  5
112
330
2
100
AcDbEntity
  8
3
 62
     3
100
AcDbText
 10
-152.7384381354799
 20
87.80169100162858
 30
0.0
 40
0.0175345719573706
  1
-
 41
0.9
  7
ROMANS
 72
     4
 11
-152.7286688739608
 21
87.80920581818174
 31
0.0
100
AcDbText
  0
TEXT
  5
113
330
2
100
AcDbEntity
  8
3
 62
     3
100
AcDbText
 10
-152.7384381354799
 20
87.76311494332235
 30
0.0
 40
0.0175345719573706
  1
-
 41
0.9
  7
ROMANS
 72
     4
 11
-152.7286688739608
 21
87.77062975987551
 31
0.0
100
AcDbText
  0
TEXT
  5
114
330
2
100
AcDbEntity
  8
3
 62
     3
100
AcDbText
 10
-152.7384381354799
 20
87.72453888501617
 30
0.0
 40
0.0175345719573706
  1
-
 41
0.9
  7
ROMANS
 72
     4
 11
-152.7286688739608
 21
87.73205370156933
 31
0.0
100
AcDbText
  0
TEXT
  5
115
330
2
100
AcDbEntity
  8
3
 62
     3
100
AcDbText
 10
-152.7384381354799
 20
87.68596282670994
 30
0.0
 40
0.0175345719573706
  1
-
 41
0.9
  7
ROMANS
 72
     4
 11
-152.7286688739608
 21
87.6934776432631
 31
0.0
100
AcDbText
  0
TEXT
  5
116
330
2
100
AcDbEntity
  8
3
 62
     3
100
AcDbText
 10
-152.77333142532
 20
87.10606976167657
 30
0.0
 40
0.0175345719573706
  1
0.0760
 41
0.9
  7
ROMANS
 72
     4
 11
-152.7319999342777
 21
87.11483704765525
 31
0.0
100
AcDbText
  0
TEXT
  5
117
330
2
100
AcDbEntity
  8
3
 62
     3
100
AcDbText
 10
-152.77333142532
 20
87.22179772735618
 30
0.0
 40
0.0175345719573706
  1
0.0930
 41
0.9
  7
ROMANS
 72
     4
 11
-152.7319999342777
 21
87.23056501333486
 31
0.0
100
AcDbText
  0
TEXT
  5
118
330
2
100
AcDbEntity
  8
3
 62
     3
100
AcDbText
 10
-152.77333142532
 20
87.18322173879629
 30
0.0
 40
0.0175345719573706
  1
0.0930
 41
0.9
  7
ROMANS
 72
     4
 11
-152.7319999342777
 21
87.19198902477499
 31
0.0
100
AcDbText
  0
TEXT
  5
119
330
2
100
AcDbEntity
  8
3
 62
     3
100
AcDbText
 10
-152.77333142532
 20
87.14464575023644
 30
0.0
 40
0.0175345719573706
  1
0.0760
 41
0.9
  7
ROMANS
 72
     4
 11
-152.7319999342777
 21
87.15341303621512
 31
0.0
100
AcDbText
  0
TEXT
  5
11A
330
2
100
AcDbEntity
  8
3
 62
     3
100
AcDbText
 10
-152.7730770736447
 20
87.26119550272914
 30
0.0
 40
0.0175345719573706
  1
0.0200
 41
0.9
  7
ROMANS
 72
     4
 11
-152.7317455826023
 21
87.26996278870783
 31
0.0
100
AcDbText
  0
TEXT
  5
11B
330
2
100
AcDbEntity
  8
3
 62
     3
100
AcDbText
 10
-152.7730770736447
 20
87.29977156103535
 30
0.0
 40
0.0175345719573706
  1
0.0008
 41
0.9
  7
ROMANS
 72
     4
 11
-152.7317455826023
 21
87.30853884701405
 31
0.0
100
AcDbText
  0
TEXT
  5
11C
330
2
100
AcDbEntity
  8
3
 62
     3
100
AcDbText
 10
-152.7730770736447
 20
87.49265185256644
 30
0.0
 40
0.0175345719573706
  1
8.9920
 41
0.9
  7
ROMANS
 72
     4
 11
-152.7317455826023
 21
87.50141913854513
 31
0.0
100
AcDbText
  0
TEXT
  5
11D
330
2
100
AcDbEntity
  8
3
 62
     3
100
AcDbText
 10
-152.7730770736447
 20
87.45407579426021
 30
0.0
 40
0.0175345719573706
  1
2.0020
 41
0.9
  7
ROMANS
 72
     4
 11
-152.7317455826023
 21
87.46284308023891
 31
0.0
100
AcDbText
  0
TEXT
  5
11E
330
2
100
AcDbEntity
  8
3
 62
     3
100
AcDbText
 10
-152.7730770736447
 20
87.41549973595398
 30
0.0
 40
0.0175345719573706
  1
0.6430
 41
0.9
  7
ROMANS
 72
     4
 11
-152.7317455826023
 21
87.42426702193268
 31
0.0
100
AcDbText
  0
TEXT
  5
11F
330
2
100
AcDbEntity
  8
3
 62
     3
100
AcDbText
 10
-152.7730770736447
 20
87.37692367764777
 30
0.0
 40
0.0175345719573706
  1
8.3475
 41
0.9
  7
ROMANS
 72
     4
 11
-152.7317455826023
 21
87.38569096362647
 31
0.0
100
AcDbText
  0
TEXT
  5
120
330
2
100
AcDbEntity
  8
3
 62
     3
100
AcDbText
 10
-152.7384381354799
 20
87.33877830195401
 30
0.0
 40
0.0175345719573706
  1
-
 41
0.9
  7
ROMANS
 72
     4
 11
-152.7286688739608
 21
87.34629311850715
 31
0.0
100
AcDbText
  0
LWPOLYLINE
  5
121
330
2
100
AcDbEntity
  8
3
 62
     7
100
AcDbPolyline
 90
        2
 70
     0
 43
0.0017534571957371
 10
-152.8250527160035
 20
87.09613053899408
 10
-152.8250527160035
 20
87.99054250780327
  0
LWPOLYLINE
  5
122
330
2
100
AcDbEntity
  8
3
 62
     7
100
AcDbPolyline
 90
        2
 70
     0
 43
0.0017534571957371
 10
-153.010675207771
 20
87.09613053899408
 10
-153.010675207771
 20
87.99054250780327
  0
LWPOLYLINE
  5
123
330
2
100
AcDbEntity
  8
3
 62
     7
100
AcDbPolyline
 90
        2
 70
     0
 43
0.0017534571957371
 10
-153.1962976995385
 20
87.09613053899408
 10
-153.1962976995385
 20
87.99054250780327
  0
TEXT
  5
124
330
2
100
AcDbEntity
  8
3
 62
     3
100
AcDbText
 10
-153.1388601263081
 20
87.10606976167657
 30
0.0
 40
0.0175345719573706
  1
0.0680
 41
0.9
  7
ROMANS
 72
     4
 11
-153.0975286352658
 21
87.11483704765525
 31
0.0
100
AcDbText
  0
TEXT
  5
125
330
2
100
AcDbEntity
  8
3
 62
     3
100
AcDbText
 10
-153.1388601263081
 20
87.14464575023644
 30
0.0
 40
0.0175345719573706
  1
0.0680
 41
0.9
  7
ROMANS
 72
     4
 11
-153.0975286352658
 21
87.15341303621512
 31
0.0
100
AcDbText
  0
TEXT
  5
126
330
2
100
AcDbEntity
  8
3
 62
     3
100
AcDbText
 10
-153.1388601263081
 20
87.18322173879629
 30
0.0
 40
0.0175345719573706
  1
0.0830
 41
0.9
  7
ROMANS
 72
     4
 11
-153.0975286352658
 21
87.19198902477499
 31
0.0
100
AcDbText
  0
TEXT
  5
127
330
2
100
AcDbEntity
  8
3
 62
     3
100
AcDbText
 10
-153.1388601263081
 20
87.22179772735618
 30
0.0
 40
0.0175345719573706
  1
0.0830
 41
0.9
  7
ROMANS
 72
     4
 11
-153.0975286352658
 21
87.23056501333486
 31
0.0
100
AcDbText
  0
TEXT
  5
128
330
2
100
AcDbEntity
  8
3
 62
     3
100
AcDbText
 10
-153.1443220571797
 20
87.37692367764777
 30
0.0
 40
0.0175345719573706
  1
8.3445
 41
0.9
  7
ROMANS
 72
     4
 11
-153.1029905661373
 21
87.38569096362647
 31
0.0
100
AcDbText
  0
TEXT
  5
129
330
2
100
AcDbEntity
  8
3
 62
     3
100
AcDbText
 10
-153.1443220571797
 20
87.41549973595398
 30
0.0
 40
0.0175345719573706
  1
0.6410
 41
0.9
  7
ROMANS
 72
     4
 11
-153.1029905661373
 21
87.42426702193268
 31
0.0
100
AcDbText
  0
TEXT
  5
12A
330
2
100
AcDbEntity
  8
3
 62
     3
100
AcDbText
 10
-153.1454492796626
 20
87.45407579426021
 30
0.0
 40
0.0175345719573706
  1
1.9980
 41
0.9
  7
ROMANS
 72
     4
 11
-153.1029905661373
 21
87.46284308023891
 31
0.0
100
AcDbText
  0
TEXT
  5
12B
330
2
100
AcDbEntity
  8
3
 62
     3
100
AcDbText
 10
-153.1443220571797
 20
87.49265185256644
 30
0.0
 40
0.0175345719573706
  1
8.9840
 41
0.9
  7
ROMANS
 72
     4
 11
-153.1029905661373
 21
87.50141913854513
 31
0.0
100
AcDbText
  0
TEXT
  5
12C
330
2
100
AcDbEntity
  8
3
 62
     3
100
AcDbText
 10
-153.1072978967849
 20
87.33877830195401
 30
0.0
 40
0.0175345719573706
  1
-
 41
0.9
  7
ROMANS
 72
     4
 11
-153.0975286352658
 21
87.34629311850715
 31
0.0
100
AcDbText
  0
TEXT
  5
12D
330
2
100
AcDbEntity
  8
3
 62
     3
100
AcDbText
 10
-153.1072978967849
 20
87.30020224364778
 30
0.0
 40
0.0175345719573706
  1
-
 41
0.9
  7
ROMANS
 72
     4
 11
-153.0975286352658
 21
87.30771706020094
 31
0.0
100
AcDbText
  0
TEXT
  5
12E
330
2
100
AcDbEntity
  8
3
 62
     3
100
AcDbText
 10
-153.1072978967849
 20
87.26162618534159
 30
0.0
 40
0.0175345719573706
  1
-
 41
0.9
  7
ROMANS
 72
     4
 11
-153.0975286352658
 21
87.26914100189473
 31
0.0
100
AcDbText
  0
TEXT
  5
12F
330
2
100
AcDbEntity
  8
3
 62
     3
100
AcDbText
 10
-152.9274912542867
 20
87.10732223110211
 30
0.0
 40
0.0175345719573706
  1
-
 41
0.9
  7
ROMANS
 72
     4
 11
-152.9177219927676
 21
87.11483704765525
 31
0.0
100
AcDbText
  0
TEXT
  5
130
330
2
100
AcDbEntity
  8
3
 62
     3
100
AcDbText
 10
-152.9274912542867
 20
87.14589821966198
 30
0.0
 40
0.0175345719573706
  1
-
 41
0.9
  7
ROMANS
 72
     4
 11
-152.9177219927676
 21
87.15341303621512
 31
0.0
100
AcDbText
  0
TEXT
  5
131
330
2
100
AcDbEntity
  8
3
 62
     3
100
AcDbText
 10
-152.9274912542867
 20
87.18447420822183
 30
0.0
 40
0.0175345719573706
  1
-
 41
0.9
  7
ROMANS
 72
     4
 11
-152.9177219927676
 21
87.19198902477499
 31
0.0
100
AcDbText
  0
TEXT
  5
132
330
2
100
AcDbEntity
  8
3
 62
     3
100
AcDbText
 10
-152.9274912542867
 20
87.22305019678172
 30
0.0
 40
0.0175345719573706
  1
-
 41
0.9
  7
ROMANS
 72
     4
 11
-152.9177219927676
 21
87.23056501333486
 31
0.0
100
AcDbText
  0
TEXT
  5
133
330
2
100
AcDbEntity
  8
3
 62
     3
100
AcDbText
 10
-152.9586995654122
 20
87.49265185256644
 30
0.0
 40
0.0175345719573706
  1
8.9880
 41
0.9
  7
ROMANS
 72
     4
 11
-152.9173680743698
 21
87.50141913854513
 31
0.0
100
AcDbText
  0
TEXT
  5
134
330
2
100
AcDbEntity
  8
3
 62
     3
100
AcDbText
 10
-152.9586995654122
 20
87.45407579426021
 30
0.0
 40
0.0175345719573706
  1
2.0000
 41
0.9
  7
ROMANS
 72
     4
 11
-152.9173680743698
 21
87.46284308023891
 31
0.0
100
AcDbText
  0
TEXT
  5
135
330
2
100
AcDbEntity
  8
3
 62
     3
100
AcDbText
 10
-152.9586995654122
 20
87.41549973595398
 30
0.0
 40
0.0175345719573706
  1
0.6420
 41
0.9
  7
ROMANS
 72
     4
 11
-152.9173680743698
 21
87.42426702193268
 31
0.0
100
AcDbText
  0
TEXT
  5
136
330
2
100
AcDbEntity
  8
3
 62
     3
100
AcDbText
 10
-152.9586995654122
 20
87.37692367764777
 30
0.0
 40
0.0175345719573706
  1
8.3460
 41
0.9
  7
ROMANS
 72
     4
 11
-152.9173680743698
 21
87.38569096362647
 31
0.0
100
AcDbText
  0
TEXT
  5
137
330
2
100
AcDbEntity
  8
3
 62
     3
100
AcDbText
 10
-152.9274912542867
 20
87.26162618534159
 30
0.0
 40
0.0175345719573706
  1
-
 41
0.9
  7
ROMANS
 72
     4
 11
-152.9177219927676
 21
87.26914100189473
 31
0.0
100
AcDbText
  0
TEXT
  5
138
330
2
100
AcDbEntity
  8
3
 62
     3
100
AcDbText
 10
-152.9274912542867
 20
87.30020224364778
 30
0.0
 40
0.0175345719573706
  1
-
 41
0.9
  7
ROMANS
 72
     4
 11
-152.9177219927676
 21
87.30771706020094
 31
0.0
100
AcDbText
  0
TEXT
  5
139
330
2
100
AcDbEntity
  8
3
 62
     3
100
AcDbText
 10
-152.9274912542867
 20
87.33877830195401
 30
0.0
 40
0.0175345719573706
  1
-
 41
0.9
  7
ROMANS
 72
     4
 11
-152.9177219927676
 21
87.34629311850715
 31
0.0
100
AcDbText
  0
TEXT
  5
13A
330
2
100
AcDbEntity
  8
3
 62
     3
100
AcDbText
 10
-153.1443220571797
 20
87.87841243562862
 30
0.0
 40
0.0175345719573706
  1
0.0590
 41
0.9
  7
ROMANS
 72
     4
 11
-153.1029905661373
 21
87.8871797216073
 31
0.0
100
AcDbText
  0
TEXT
  5
13B
330
2
100
AcDbEntity
  8
3
 62
     7
100
AcDbText
 10
-153.1282383576775
 20
87.95584792481674
 30
0.0
 40
0.0210414863488447
  1
MIN.
 41
0.9
  7
ROMANS
 72
     4
 11
-153.0993814621134
 21
87.96636866799117
 31
0.0
100
AcDbText
  0
TEXT
  5
13C
330
2
100
AcDbEntity
  8
3
 62
     3
100
AcDbText
 10
-153.1443220571797
 20
87.68553214409751
 30
0.0
 40
0.0175345719573706
  1
0.0030
 41
0.9
  7
ROMANS
 72
     4
 11
-153.1029905661373
 21
87.69429943007621
 31
0.0
100
AcDbText
  0
TEXT
  5
13D
330
2
100
AcDbEntity
  8
3
 62
     3
100
AcDbText
 10
-153.1443220571797
 20
87.53122791087266
 30
0.0
 40
0.0175345719573706
  1
0.0960
 41
0.9
  7
ROMANS
 72
     4
 11
-153.1029905661373
 21
87.53999519685136
 31
0.0
100
AcDbText
  0
TEXT
  5
13E
330
2
100
AcDbEntity
  8
3
 62
     3
100
AcDbText
 10
-153.1443220571797
 20
87.64695608579129
 30
0.0
 40
0.0175345719573706
  1
0.1240
 41
0.9
  7
ROMANS
 72
     4
 11
-153.1029905661373
 21
87.65572337176998
 31
0.0
100
AcDbText
  0
TEXT
  5
13F
330
2
100
AcDbEntity
  8
3
 62
     3
100
AcDbText
 10
-153.1446977980073
 20
87.72410820240374
 30
0.0
 40
0.0175345719573706
  1
0.0034
 41
0.9
  7
ROMANS
 72
     4
 11
-153.1029905661373
 21
87.73287548838244
 31
0.0
100
AcDbText
  0
TEXT
  5
140
330
2
100
AcDbEntity
  8
3
 62
     3
100
AcDbText
 10
-153.1446977980073
 20
87.76268426070997
 30
0.0
 40
0.0175345719573706
  1
0.0034
 41
0.9
  7
ROMANS
 72
     4
 11
-153.1029905661373
 21
87.77145154668865
 31
0.0
100
AcDbText
  0
TEXT
  5
141
330
2
100
AcDbEntity
  8
3
 62
     3
100
AcDbText
 10
-153.1446977980073
 20
87.80126031901614
 30
0.0
 40
0.0175345719573706
  1
0.0064
 41
0.9
  7
ROMANS
 72
     4
 11
-153.1029905661373
 21
87.81002760499484
 31
0.0
100
AcDbText
  0
TEXT
  5
142
330
2
100
AcDbEntity
  8
3
 62
     3
100
AcDbText
 10
-153.1443220571797
 20
87.83983637732237
 30
0.0
 40
0.0175345719573706
  1
0.0150
 41
0.9
  7
ROMANS
 72
     4
 11
-153.1029905661373
 21
87.84860366330105
 31
0.0
100
AcDbText
  0
TEXT
  5
143
330
2
100
AcDbEntity
  8
3
 62
     3
100
AcDbText
 10
-153.1443220571797
 20
87.91698849393482
 30
0.0
 40
0.0175345719573706
  1
0.0077
 41
0.9
  7
ROMANS
 72
     4
 11
-153.1029905661373
 21
87.9257557799135
 31
0.0
100
AcDbText
  0
TEXT
  5
144
330
2
100
AcDbEntity
  8
3
 62
     3
100
AcDbText
 10
-152.9586995654122
 20
87.87841243562862
 30
0.0
 40
0.0175345719573706
  1
0.0600
 41
0.9
  7
ROMANS
 72
     4
 11
-152.9173680743698
 21
87.8871797216073
 31
0.0
100
AcDbText
  0
TEXT
  5
145
330
2
100
AcDbEntity
  8
3
 62
     3
100
AcDbText
 10
-152.9586995654122
 20
87.64695608579129
 30
0.0
 40
0.0175345719573706
  1
0.1260
 41
0.9
  7
ROMANS
 72
     4
 11
-152.9173680743698
 21
87.65572337176998
 31
0.0
100
AcDbText
  0
TEXT
  5
146
330
2
100
AcDbEntity
  8
3
 62
     3
100
AcDbText
 10
-152.9586995654122
 20
87.53122791087266
 30
0.0
 40
0.0175345719573706
  1
0.0980
 41
0.9
  7
ROMANS
 72
     4
 11
-152.9173680743698
 21
87.53999519685136
 31
0.0
100
AcDbText
  0
TEXT
  5
147
330
2
100
AcDbEntity
  8
3
 62
     3
100
AcDbText
 10
-152.9586995654122
 20
87.91698849393482
 30
0.0
 40
0.0175345719573706
  1
0.0080
 41
0.9
  7
ROMANS
 72
     4
 11
-152.9173680743698
 21
87.9257557799135
 31
0.0
100
AcDbText
  0
TEXT
  5
148
330
2
100
AcDbEntity
  8
3
 62
     3
100
AcDbText
 10
-152.9586995654122
 20
87.83983637732237
 30
0.0
 40
0.0175345719573706
  1
0.0160
 41
0.9
  7
ROMANS
 72
     4
 11
-152.9173680743698
 21
87.84860366330105
 31
0.0
100
AcDbText
  0
TEXT
  5
149
330
2
100
AcDbEntity
  8
3
 62
     7
100
AcDbText
 10
-152.9548505161221
 20
87.95565440917469
 30
0.0
 40
0.0210414863488447
  1
NOM.
 41
0.9
  7
ROMANS
 72
     4
 11
-152.9196811746533
 21
87.96617515234911
 31
0.0
100
AcDbText
  0
TEXT
  5
14A
330
2
100
AcDbEntity
  8
3
 62
     3
100
AcDbText
 10
-152.9274912542867
 20
87.80169100162858
 30
0.0
 40
0.0175345719573706
  1
-
 41
0.9
  7
ROMANS
 72
     4
 11
-152.9177219927676
 21
87.80920581818174
 31
0.0
100
AcDbText
  0
TEXT
  5
14B
330
2
100
AcDbEntity
  8
3
 62
     3
100
AcDbText
 10
-152.9274912542867
 20
87.76311494332235
 30
0.0
 40
0.0175345719573706
  1
-
 41
0.9
  7
ROMANS
 72
     4
 11
-152.9177219927676
 21
87.77062975987551
 31
0.0
100
AcDbText
  0
TEXT
  5
14C
330
2
100
AcDbEntity
  8
3
 62
     3
100
AcDbText
 10
-152.9274912542867
 20
87.72453888501617
 30
0.0
 40
0.0175345719573706
  1
-
 41
0.9
  7
ROMANS
 72
     4
 11
-152.9177219927676
 21
87.73205370156933
 31
0.0
100
AcDbText
  0
TEXT
  5
14D
330
2
100
AcDbEntity
  8
3
 62
     3
100
AcDbText
 10
-152.9274912542867
 20
87.68596282670994
 30
0.0
 40
0.0175345719573706
  1
-
 41
0.9
  7
ROMANS
 72
     4
 11
-152.9177219927676
 21
87.6934776432631
 31
0.0
100
AcDbText
  0
TEXT
  5
14E
330
2
100
AcDbEntity
  8
3
 62
     3
100
AcDbText
 10
-154.0300581466473
 20
86.95295797043375
 30
0.0
 40
0.0175345719573706
  1
DOWNSET DEPTH
 41
0.9
  7
ROMANS
 72
     4
 11
-153.9308625681456
 21
86.96172525641243
 31
0.0
100
AcDbText
  0
TEXT
  5
14F
330
2
100
AcDbEntity
  8
3
 62
     3
100
AcDbText
 10
-152.9601769610192
 20
86.95176552845172
 30
0.0
 40
0.0175345719573706
  1
0.0265
 41
0.9
  7
ROMANS
 72
     4
 11
-152.9188454699768
 21
86.9605328144304
 31
0.0
100
AcDbText
  0
TEXT
  5
150
330
2
100
AcDbEntity
  8
3
 62
     3
100
AcDbText
 10
-153.1427172940172
 20
86.95176552845172
 30
0.0
 40
0.0175345719573706
  1
0.0255
 41
0.9
  7
ROMANS
 72
     4
 11
-153.1013858029748
 21
86.9605328144304
 31
0.0
100
AcDbText
  0
TEXT
  5
151
330
2
100
AcDbEntity
  8
3
 62
     3
100
AcDbText
 10
-152.7684928716903
 20
86.95258731526482
 30
0.0
 40
0.0175345719573706
  1
0.0280
 41
0.9
  7
ROMANS
 72
     4
 11
-152.7271613806479
 21
86.96135460124351
 31
0.0
100
AcDbText
  0
LINE
  5
152
330
2
100
AcDbEntity
  8
3
 62
     3
100
AcDbLine
 10
-154.1108874893105
 20
86.44033754778844
 30
0.0
 11
-152.639430224236
 21
86.44033754778844
 31
0.0
  0
LINE
  5
153
330
2
100
AcDbEntity
  8
3
 62
     3
100
AcDbLine
 10
-154.1108874893105
 20
86.40176155922857
 30
0.0
 11
-152.639430224236
 21
86.40176155922857
 31
0.0
  0
TEXT
  5
154
330
2
100
AcDbEntity
  8
3
 62
     3
100
AcDbText
 10
-154.0961021414189
 20
86.45177905963633
 30
0.0
 40
0.0175345719573706
  1
35
 41
0.9
  7
ROMANS
 72
     4
 11
-154.0810725083126
 21
86.46054634561503
 31
0.0
100
AcDbText
  0
TEXT
  5
155
330
2
100
AcDbEntity
  8
3
 62
     3
100
AcDbText
 10
-154.0961021414189
 20
86.41234705450525
 30
0.0
 40
0.0175345719573706
  1
36
 41
0.9
  7
ROMANS
 72
     4
 11
-154.0810725083126
 21
86.42111434048393
 31
0.0
100
AcDbText
  0
TEXT
  5
156
330
2
100
AcDbEntity
  8
3
 62
     3
100
AcDbText
 10
-154.027308964389
 20
87.60868030341949
 30
0.0
 40
0.0175345719573706
  1
PAD SIZE (Y) - TOP
 41
0.9
  7
ROMANS
 72
     4
 11
-153.8984298605024
 21
87.61619511997265
 31
0.0
100
AcDbText
  0
TEXT
  5
157
330
2
100
AcDbEntity
  8
3
 62
     3
100
AcDbText
 10
-154.0287777281078
 20
87.57010424511326
 30
0.0
 40
0.0175345719573706
  1
PAD SIZE (X) - BOTTOM
 41
0.9
  7
ROMANS
 72
     4
 11
-153.8762269520787
 21
87.57761906166642
 31
0.0
100
AcDbText
  0
TEXT
  5
158
330
2
100
AcDbEntity
  8
3
 62
     3
100
AcDbText
 10
-152.9586995654122
 20
87.6083800274851
 30
0.0
 40
0.0175345719573706
  1
0.1060
 41
0.9
  7
ROMANS
 72
     4
 11
-152.9173680743698
 21
87.61714731346378
 31
0.0
100
AcDbText
  0
TEXT
  5
159
330
2
100
AcDbEntity
  8
3
 62
     3
100
AcDbText
 10
-153.1443220571797
 20
87.6083800274851
 30
0.0
 40
0.0175345719573706
  1
0.1040
 41
0.9
  7
ROMANS
 72
     4
 11
-153.1029905661373
 21
87.61714731346378
 31
0.0
100
AcDbText
  0
TEXT
  5
15A
330
2
100
AcDbEntity
  8
3
 62
     3
100
AcDbText
 10
-152.7730770736447
 20
87.6083800274851
 30
0.0
 40
0.0175345719573706
  1
0.1080
 41
0.9
  7
ROMANS
 72
     4
 11
-152.7317455826023
 21
87.61714731346378
 31
0.0
100
AcDbText
  0
TEXT
  5
15B
330
2
100
AcDbEntity
  8
3
 62
     3
100
AcDbText
 10
-152.9586995654122
 20
87.56980396917885
 30
0.0
 40
0.0175345719573706
  1
0.1180
 41
0.9
  7
ROMANS
 72
     4
 11
-152.9173680743698
 21
87.57857125515753
 31
0.0
100
AcDbText
  0
TEXT
  5
15C
330
2
100
AcDbEntity
  8
3
 62
     3
100
AcDbText
 10
-153.1443220571797
 20
87.56980396917885
 30
0.0
 40
0.0175345719573706
  1
0.1160
 41
0.9
  7
ROMANS
 72
     4
 11
-153.1029905661373
 21
87.57857125515753
 31
0.0
100
AcDbText
  0
TEXT
  5
15D
330
2
100
AcDbEntity
  8
3
 62
     3
100
AcDbText
 10
-152.7730770736447
 20
87.56980396917885
 30
0.0
 40
0.0175345719573706
  1
0.1200
 41
0.9
  7
ROMANS
 72
     4
 11
-152.7317455826023
 21
87.57857125515753
 31
0.0
100
AcDbText
  0
LINE
  5
15E
330
2
100
AcDbEntity
  8
3
 62
     3
100
AcDbLine
 10
-154.1108874893105
 20
86.98040236407543
 30
0.0
 11
-152.639430224236
 21
86.98040236407543
 31
0.0
  0
TEXT
  5
15F
330
2
100
AcDbEntity
  8
3
 62
     3
100
AcDbText
 10
-154.093494809385
 20
87.02991512148232
 30
0.0
 40
0.0175345719573706
  1
21
 41
0.9
  7
ROMANS
 72
     4
 11
-154.0807196212447
 21
87.03868240746102
 31
0.0
100
AcDbText
  0
TEXT
  5
160
330
2
100
AcDbEntity
  8
3
 62
     3
100
AcDbText
 10
-154.0961021414189
 20
86.3737710659454
 30
0.0
 40
0.0175345719573706
  1
37
 41
0.9
  7
ROMANS
 72
     4
 11
-154.0810725083126
 21
86.38253835192408
 31
0.0
100
AcDbText
  0
TEXT
  5
161
330
2
100
AcDbEntity
  8
3
 62
     3
100
AcDbText
 10
-154.0348414921823
 20
87.02847917339189
 30
0.0
 40
0.0175345719573706
  1
NiPd WITH Au PLATING OPTION:
 41
0.9
  7
ROMANS
 72
     4
 11
-153.8450923742151
 21
87.03724645937059
 31
0.0
100
AcDbText
  0
TEXT
  5
162
330
2
100
AcDbEntity
  8
3
 62
     3
100
AcDbText
 10
-154.0380205891822
 20
86.99656132967579
 30
0.0
 40
0.0175345719573706
  1
Ni: 0.5~2.0 um, Pd: 0.02~0.15 um, Au: 0.003~0.015 um
 41
0.9
  7
ROMANS
 72
     4
 11
-153.673551986354
 21
87.00365865642044
 31
0.0
100
AcDbText
  0
ENDSEC
  0
SECTION
  2
OBJECTS
  0
DICTIONARY
  5
C
330
0
100
AcDbDictionary
281
     1
  3
ACAD_COLOR
350
47
  3
ACAD_GROUP
350
34
  3
ACAD_LAYOUT
350
19
  3
ACAD_MATERIAL
350
E
  3
ACAD_MLEADERSTYLE
350
4A
  3
ACAD_MLINESTYLE
350
35
  3
ACAD_PLOTSETTINGS
350
36
  3
ACAD_PLOTSTYLENAME
350
B
  3
ACAD_SCALELIST
350
48
  3
ACAD_TABLESTYLE
350
49
  3
ACAD_VISUALSTYLE
350
2C
  3
ACDB_RECOMPOSE_DATA
350
166
  3
AcDbVariableDictionary
350
4B
  0
DICTIONARY
  5
8
330
7
100
AcDbDictionary
280
     1
281
     1
  3
ADSK_XREC_LAYER_RECONCILED
360
9
  0
DICTIONARY
  5
59
330
58
100
AcDbDictionary
280
     1
281
     1
  3
ADSK_XREC_LAYER_RECONCILED
360
5A
  0
DICTIONARY
  5
73
330
72
100
AcDbDictionary
280
     1
281
     1
  3
ADSK_XREC_LAYER_RECONCILED
360
74
  0
DICTIONARY
  5
3
330
2
100
AcDbDictionary
280
     1
281
     1
  3
ACAD_LAYOUTSELFREF
360
4
  3
ACAD_SORTENTS
360
163
  0
DICTIONARY
  5
1B
330
1A
100
AcDbDictionary
280
     1
281
     1
  3
ACAD_LAYOUTSELFREF
360
1C
  0
DICTIONARY
  5
47
102
{ACAD_REACTORS
330
C
102
}
330
C
100
AcDbDictionary
281
     1
  0
DICTIONARY
  5
34
102
{ACAD_REACTORS
330
C
102
}
330
C
100
AcDbDictionary
281
     1
  0
DICTIONARY
  5
19
102
{ACAD_REACTORS
330
C
102
}
330
C
100
AcDbDictionary
281
     1
  3
Layout1
350
1F
  3
Model
350
18
  0
DICTIONARY
  5
E
102
{ACAD_REACTORS
330
C
102
}
330
C
100
AcDbDictionary
281
     1
  3
ByBlock
350
3F
  3
ByLayer
350
37
  3
Global
350
D
  0
DICTIONARY
  5
4A
102
{ACAD_REACTORS
330
C
102
}
330
C
100
AcDbDictionary
281
     1
  0
DICTIONARY
  5
35
102
{ACAD_REACTORS
330
C
102
}
330
C
100
AcDbDictionary
281
     1
  3
Standard
350
5B
  0
DICTIONARY
  5
36
102
{ACAD_REACTORS
330
C
102
}
330
C
100
AcDbDictionary
281
     1
  0
ACDBDICTIONARYWDFLT
  5
B
102
{ACAD_REACTORS
330
C
102
}
330
C
100
AcDbDictionary
281
     1
  3
Normal
350
A
100
AcDbDictionaryWithDefault
340
A
  0
DICTIONARY
  5
48
102
{ACAD_REACTORS
330
C
102
}
330
C
100
AcDbDictionary
281
     1
  3
A0
350
60
  3
A1
350
61
  3
A2
350
62
  3
A3
350
63
  3
A4
350
64
  3
A5
350
65
  3
A6
350
66
  3
A7
350
67
  3
A8
350
68
  3
A9
350
69
  3
B0
350
6A
  3
B1
350
6B
  3
B2
350
6C
  3
B3
350
6D
  3
B4
350
6E
  3
B5
350
6F
  3
B6
350
70
  0
DICTIONARY
  5
49
102
{ACAD_REACTORS
330
C
102
}
330
C
100
AcDbDictionary
281
     1
  3
Standard
350
5C
  0
DICTIONARY
  5
2C
102
{ACAD_REACTORS
330
C
102
}
330
C
100
AcDbDictionary
281
     1
  3
2dWireframe
350
2B
  3
Realistic
350
5E
  3
Wireframe
350
5F
  0
XRECORD
  5
166
102
{ACAD_REACTORS
330
C
102
}
330
C
100
AcDbXrecord
280
     1
 90
        1
330
5C
  0
DICTIONARY
  5
4B
102
{ACAD_REACTORS
330
C
102
}
330
C
100
AcDbDictionary
281
     1
  3
CANNOSCALE
350
4C
  3
CMLEADERSTYLE
350
4D
  3
CTABLESTYLE
350
4E
  3
CVIEWDETAILSTYLE
350
4F
  3
CVIEWSECTIONSTYLE
350
50
  3
DIMASSOC
350
51
  3
LAYEREVAL
350
52
  3
LAYERNOTIFY
350
53
  3
LIGHTINGUNITS
350
54
  3
MSLTSCALE
350
55
  3
PROJECTNAME
350
56
  3
SORTENTS
350
57
  0
XRECORD
  5
9
102
{ACAD_REACTORS
330
8
102
}
330
8
100
AcDbXrecord
280
     1
290
     1
  0
XRECORD
  5
5A
102
{ACAD_REACTORS
330
59
102
}
330
59
100
AcDbXrecord
280
     1
290
     1
  0
XRECORD
  5
74
102
{ACAD_REACTORS
330
73
102
}
330
73
100
AcDbXrecord
280
     1
290
     1
  0
XRECORD
  5
4
102
{ACAD_REACTORS
330
3
102
}
330
3
100
AcDbXrecord
280
     1
340
2
  0
SORTENTSTABLE
  5
163
102
{ACAD_REACTORS
330
3
102
}
330
3
100
AcDbSortentsTable
330
2
  0
XRECORD
  5
1C
102
{ACAD_REACTORS
330
1B
102
}
330
1B
100
AcDbXrecord
280
     1
340
1A
  0
LAYOUT
  5
1F
102
{ACAD_REACTORS
330
19
102
}
330
19
100
AcDbPlotSettings
  1

  2
\\ASM_2\LASERQ_3
  4

  6

 40
0.0
 41
0.0
 42
0.0
 43
0.0
 44
0.0
 45
0.0
 46
0.0
 47
0.0
 48
0.0
 49
0.0
140
0.0
141
0.0
142
1.0
143
1.0
 70
   688
 72
     0
 73
     0
 74
     5
  7
monochrome.ctb
 75
    16
147
1.0
 76
     0
 77
     2
 78
   300
148
0.0
149
0.0
100
AcDbLayout
  1
Layout1
 70
     0
 71
     1
 10
0.0
 20
0.0
 11
12.0
 21
9.0
 12
0.0
 22
0.0
 32
0.0
 14
1.000000000000000E+20
 24
1.000000000000000E+20
 34
1.000000000000000E+20
 15
-1.000000000000000E+20
 25
-1.000000000000000E+20
 35
-1.000000000000000E+20
146
0.0
 13
0.0
 23
0.0
 33
0.0
 16
1.0
 26
0.0
 36
0.0
 17
0.0
 27
1.0
 37
0.0
 76
     0
330
1A
  0
LAYOUT
  5
18
102
{ACAD_REACTORS
330
19
102
}
330
19
100
AcDbPlotSettings
  1

  2
\\ATS1\2FL_CADRM
  4
A4
  6

 40
5.746749877929687
 41
5.365768432617186
 42
5.70440673828125
 43
5.746734619140625
 44
209.8886566162109
 45
297.0530090332031
 46
0.5200000000000001
 47
0.0
 48
-152.4510971898208
 49
85.87327688703048
140
-150.8663048445675
141
88.16886289270295
142
1.0
143
0.0080281945287647
 70
 28340
 72
     1
 73
     0
 74
     4
  7
monochrome.ctb
 75
     0
147
124.5610076359062
 76
     0
 77
     2
 78
   300
148
152.4510971898208
149
-85.87327688703048
100
AcDbLayout
  1
Model
 70
     1
 71
     0
 10
0.0
 20
0.0
 11
12.0
 21
9.0
 12
0.0
 22
0.0
 32
0.0
 14
0.0
 24
0.0
 34
0.0
 15
0.0
 25
0.0
 35
0.0
146
0.0
 13
0.0
 23
0.0
 33
0.0
 16
1.0
 26
0.0
 36
0.0
 17
0.0
 27
1.0
 37
0.0
 76
     0
330
2
331
2A
  0
MATERIAL
  5
3F
102
{ACAD_XDICTIONARY
360
40
102
}
102
{ACAD_REACTORS
330
E
102
}
330
E
100
AcDbMaterial
  1
ByBlock
 72
     0
 43
0.0208333333333333
 43
0.0
 43
0.0
 43
0.0
 43
0.0
 43
0.0208333333333333
 43
0.0
 43
0.0
 43
0.0
 43
0.0
 43
1.0
 43
0.0
 43
0.0
 43
0.0
 43
0.0
 43
1.0
 77
     0
 47
0.0208333333333333
 47
0.0
 47
0.0
 47
0.0
 47
0.0
 47
0.0208333333333333
 47
0.0
 47
0.0
 47
0.0
 47
0.0
 47
1.0
 47
0.0
 47
0.0
 47
0.0
 47
0.0
 47
1.0
171
     0
 49
0.0208333333333333
 49
0.0
 49
0.0
 49
0.0
 49
0.0
 49
0.0208333333333333
 49
0.0
 49
0.0
 49
0.0
 49
0.0
 49
1.0
 49
0.0
 49
0.0
 49
0.0
 49
0.0
 49
1.0
175
     0
142
0.0208333333333333
142
0.0
142
0.0
142
0.0
142
0.0
142
0.0208333333333333
142
0.0
142
0.0
142
0.0
142
0.0
142
1.0
142
0.0
142
0.0
142
0.0
142
0.0
142
1.0
179
     0
144
0.0208333333333333
144
0.0
144
0.0
144
0.0
144
0.0
144
0.0208333333333333
144
0.0
144
0.0
144
0.0
144
0.0
144
1.0
144
0.0
144
0.0
144
0.0
144
0.0
144
1.0
147
0.0208333333333333
147
0.0
147
0.0
147
0.0
147
0.0
147
0.0208333333333333
147
0.0
147
0.0
147
0.0
147
0.0
147
1.0
147
0.0
147
0.0
147
0.0
147
0.0
147
1.0
  0
MATERIAL
  5
37
102
{ACAD_XDICTIONARY
360
38
102
}
102
{ACAD_REACTORS
330
E
102
}
330
E
100
AcDbMaterial
  1
ByLayer
 72
     0
 43
0.0208333333333333
 43
0.0
 43
0.0
 43
0.0
 43
0.0
 43
0.0208333333333333
 43
0.0
 43
0.0
 43
0.0
 43
0.0
 43
1.0
 43
0.0
 43
0.0
 43
0.0
 43
0.0
 43
1.0
 77
     0
 47
0.0208333333333333
 47
0.0
 47
0.0
 47
0.0
 47
0.0
 47
0.0208333333333333
 47
0.0
 47
0.0
 47
0.0
 47
0.0
 47
1.0
 47
0.0
 47
0.0
 47
0.0
 47
0.0
 47
1.0
171
     0
 49
0.0208333333333333
 49
0.0
 49
0.0
 49
0.0
 49
0.0
 49
0.0208333333333333
 49
0.0
 49
0.0
 49
0.0
 49
0.0
 49
1.0
 49
0.0
 49
0.0
 49
0.0
 49
0.0
 49
1.0
175
     0
142
0.0208333333333333
142
0.0
142
0.0
142
0.0
142
0.0
142
0.0208333333333333
142
0.0
142
0.0
142
0.0
142
0.0
142
1.0
142
0.0
142
0.0
142
0.0
142
0.0
142
1.0
179
     0
144
0.0208333333333333
144
0.0
144
0.0
144
0.0
144
0.0
144
0.0208333333333333
144
0.0
144
0.0
144
0.0
144
0.0
144
1.0
144
0.0
144
0.0
144
0.0
144
0.0
144
1.0
147
0.0208333333333333
147
0.0
147
0.0
147
0.0
147
0.0
147
0.0208333333333333
147
0.0
147
0.0
147
0.0
147
0.0
147
1.0
147
0.0
147
0.0
147
0.0
147
0.0
147
1.0
  0
MATERIAL
  5
D
102
{ACAD_XDICTIONARY
360
F
102
}
102
{ACAD_REACTORS
330
E
102
}
330
E
100
AcDbMaterial
  1
Global
 72
     0
 43
0.0208333333333333
 43
0.0
 43
0.0
 43
0.0
 43
0.0
 43
0.0208333333333333
 43
0.0
 43
0.0
 43
0.0
 43
0.0
 43
1.0
 43
0.0
 43
0.0
 43
0.0
 43
0.0
 43
1.0
 77
     0
 47
0.0208333333333333
 47
0.0
 47
0.0
 47
0.0
 47
0.0
 47
0.0208333333333333
 47
0.0
 47
0.0
 47
0.0
 47
0.0
 47
1.0
 47
0.0
 47
0.0
 47
0.0
 47
0.0
 47
1.0
171
     0
 49
0.0208333333333333
 49
0.0
 49
0.0
 49
0.0
 49
0.0
 49
0.0208333333333333
 49
0.0
 49
0.0
 49
0.0
 49
0.0
 49
1.0
 49
0.0
 49
0.0
 49
0.0
 49
0.0
 49
1.0
175
     0
142
0.0208333333333333
142
0.0
142
0.0
142
0.0
142
0.0
142
0.0208333333333333
142
0.0
142
0.0
142
0.0
142
0.0
142
1.0
142
0.0
142
0.0
142
0.0
142
0.0
142
1.0
179
     0
144
0.0208333333333333
144
0.0
144
0.0
144
0.0
144
0.0
144
0.0208333333333333
144
0.0
144
0.0
144
0.0
144
0.0
144
1.0
144
0.0
144
0.0
144
0.0
144
0.0
144
1.0
147
0.0208333333333333
147
0.0
147
0.0
147
0.0
147
0.0
147
0.0208333333333333
147
0.0
147
0.0
147
0.0
147
0.0
147
1.0
147
0.0
147
0.0
147
0.0
147
0.0
147
1.0
  0
MLINESTYLE
  5
5B
102
{ACAD_REACTORS
330
35
102
}
330
35
100
AcDbMlineStyle
  2
STANDARD
 70
     0
  3

 62
   256
 51
90.0
 52
90.0
 71
     2
 49
0.5
 62
   256
  6
BYLAYER
 49
-0.5
 62
   256
  6
BYLAYER
  0
ACDBPLACEHOLDER
  5
A
102
{ACAD_REACTORS
330
B
102
}
330
B
  0
SCALE
  5
60
102
{ACAD_REACTORS
330
48
102
}
330
48
100
AcDbScale
 70
     0
300
1:1
140
1.0
141
1.0
290
     1
  0
SCALE
  5
61
102
{ACAD_REACTORS
330
48
102
}
330
48
100
AcDbScale
 70
     0
300
1/128" = 1'-0"
140
0.0078125
141
12.0
290
     0
  0
SCALE
  5
62
102
{ACAD_REACTORS
330
48
102
}
330
48
100
AcDbScale
 70
     0
300
1/64" = 1'-0"
140
0.015625
141
12.0
290
     0
  0
SCALE
  5
63
102
{ACAD_REACTORS
330
48
102
}
330
48
100
AcDbScale
 70
     0
300
1/32" = 1'-0"
140
0.03125
141
12.0
290
     0
  0
SCALE
  5
64
102
{ACAD_REACTORS
330
48
102
}
330
48
100
AcDbScale
 70
     0
300
1/16" = 1'-0"
140
0.0625
141
12.0
290
     0
  0
SCALE
  5
65
102
{ACAD_REACTORS
330
48
102
}
330
48
100
AcDbScale
 70
     0
300
3/32" = 1'-0"
140
0.09375
141
12.0
290
     0
  0
SCALE
  5
66
102
{ACAD_REACTORS
330
48
102
}
330
48
100
AcDbScale
 70
     0
300
1/8" = 1'-0"
140
0.125
141
12.0
290
     0
  0
SCALE
  5
67
102
{ACAD_REACTORS
330
48
102
}
330
48
100
AcDbScale
 70
     0
300
3/16" = 1'-0"
140
0.1875
141
12.0
290
     0
  0
SCALE
  5
68
102
{ACAD_REACTORS
330
48
102
}
330
48
100
AcDbScale
 70
     0
300
1/4" = 1'-0"
140
0.25
141
12.0
290
     0
  0
SCALE
  5
69
102
{ACAD_REACTORS
330
48
102
}
330
48
100
AcDbScale
 70
     0
300
3/8" = 1'-0"
140
0.375
141
12.0
290
     0
  0
SCALE
  5
6A
102
{ACAD_REACTORS
330
48
102
}
330
48
100
AcDbScale
 70
     0
300
1/2" = 1'-0"
140
0.5
141
12.0
290
     0
  0
SCALE
  5
6B
102
{ACAD_REACTORS
330
48
102
}
330
48
100
AcDbScale
 70
     0
300
3/4" = 1'-0"
140
0.75
141
12.0
290
     0
  0
SCALE
  5
6C
102
{ACAD_REACTORS
330
48
102
}
330
48
100
AcDbScale
 70
     0
300
1" = 1'-0"
140
1.0
141
12.0
290
     0
  0
SCALE
  5
6D
102
{ACAD_REACTORS
330
48
102
}
330
48
100
AcDbScale
 70
     0
300
1-1/2" = 1'-0"
140
1.5
141
12.0
290
     0
  0
SCALE
  5
6E
102
{ACAD_REACTORS
330
48
102
}
330
48
100
AcDbScale
 70
     0
300
3" = 1'-0"
140
3.0
141
12.0
290
     0
  0
SCALE
  5
6F
102
{ACAD_REACTORS
330
48
102
}
330
48
100
AcDbScale
 70
     0
300
6" = 1'-0"
140
6.0
141
12.0
290
     0
  0
SCALE
  5
70
102
{ACAD_REACTORS
330
48
102
}
330
48
100
AcDbScale
 70
     0
300
1'-0" = 1'-0"
140
12.0
141
12.0
290
     0
  0
TABLESTYLE
  5
5C
102
{ACAD_XDICTIONARY
360
5D
102
}
102
{ACAD_REACTORS
330
49
102
}
330
49
100
AcDbTableStyle
280
     0
  3
Standard
 70
     0
 71
     0
 40
0.06
 41
0.06
280
     0
281
     0
  7
STANDARD
140
0.18
170
     2
 62
     0
 63
     7
283
     0
 90
        4
 91
        0
  1

274
    -2
284
     1
 64
     0
275
    -2
285
     1
 65
     0
276
    -2
286
     1
 66
     0
277
    -2
287
     1
 67
     0
278
    -2
288
     1
 68
     0
279
    -2
289
     1
 69
     0
  7
STANDARD
140
0.25
170
     5
 62
     0
 63
     7
283
     0
 90
        4
 91
        0
  1

274
    -2
284
     1
 64
     0
275
    -2
285
     1
 65
     0
276
    -2
286
     1
 66
     0
277
    -2
287
     1
 67
     0
278
    -2
288
     1
 68
     0
279
    -2
289
     1
 69
     0
  7
STANDARD
140
0.18
170
     5
 62
     0
 63
     7
283
     0
 90
        4
 91
        0
  1

274
    -2
284
     1
 64
     0
275
    -2
285
     1
 65
     0
276
    -2
286
     1
 66
     0
277
    -2
287
     1
 67
     0
278
    -2
288
     1
 68
     0
279
    -2
289
     1
 69
     0
  0
VISUALSTYLE
  5
2B
102
{ACAD_REACTORS
330
2C
102
}
330
2C
100
AcDbVisualStyle
  2
2dWireframe
 70
     4
177
     3
291
     0
 70
    58
 90
        0
176
     1
 90
        2
176
     1
 90
        0
176
     1
 90
        0
176
     1
 40
0.6
176
     1
 40
30.0
176
     1
 62
     7
420
 16777215
176
     1
 90
        1
176
     1
 90
        4
176
     1
 62
     7
176
     1
 62
   257
176
     1
 90
        1
176
     1
 90
        1
176
     1
 40
1.0
176
     1
 90
        0
176
     1
 62
   257
176
     1
 40
1.0
176
     1
 90
        1
176
     1
 90
        6
176
     1
 90
        2
176
     1
 62
     7
176
     1
 90
        5
176
     1
 90
        0
176
     1
 90
        0
176
     1
290
     0
176
     1
 90
        1
176
     1
 40
0.0
176
     1
 90
        0
176
     1
290
     1
176
     1
290
     1
176
     1
290
     0
176
     1
290
     0
176
     1
290
     0
176
     1
290
     0
176
     1
290
     0
176
     1
290
     0
176
     1
290
     0
176
     1
 90
       50
176
     1
 40
0.0
176
     1
 40
1.0
176
     1
 90
        0
176
     1
 62
    18
176
     1
 90
       50
176
     1
 90
        3
176
     1
 62
     5
420
      255
176
     1
290
     0
176
     1
 90
       50
176
     1
 90
       50
176
     1
 90
       50
176
     1
290
     0
176
     1
 90
       50
176
     1
 62
   256
176
     0
 40
1.0
176
     0
 90
        2
176
     1
  1
strokes_ogs.tif
176
     1
290
     0
176
     1
 40
1.0
176
     1
 40
1.0
176
     1
  0
VISUALSTYLE
  5
5E
102
{ACAD_REACTORS
330
2C
102
}
330
2C
100
AcDbVisualStyle
  2
Realistic
 70
     8
177
     3
291
     0
 70
    58
 90
        2
176
     1
 90
        3
176
     1
 90
        0
176
     1
 90
        2
176
     1
 40
0.6
176
     1
 40
30.0
176
     1
 62
     7
420
 16777215
176
     1
 90
        0
176
     1
 90
        0
176
     1
 62
     7
176
     1
 62
   257
176
     1
 90
        1
176
     1
 90
        1
176
     1
 40
1.0
176
     1
 90
        8
176
     1
 62
   257
176
     1
 40
1.0
176
     1
 90
        1
176
     1
 90
        6
176
     1
 90
        2
176
     1
 62
     7
176
     1
 90
        3
176
     1
 90
        0
176
     1
 90
        0
176
     1
290
     0
176
     1
 90
       13
176
     1
 40
0.0
176
     1
 90
        0
176
     1
290
     0
176
     1
290
     1
176
     1
290
     1
176
     1
290
     0
176
     1
290
     0
176
     1
290
     0
176
     1
290
     0
176
     1
290
     0
176
     1
290
     0
176
     1
 90
       50
176
     1
 40
0.0
176
     1
 40
1.0
176
     1
 90
        0
176
     1
 62
    18
176
     1
 90
       50
176
     1
 90
        3
176
     1
 62
     5
420
      255
176
     1
290
     0
176
     1
 90
       50
176
     1
 90
       50
176
     1
 90
       50
176
     1
290
     0
176
     1
 90
       50
176
     1
 62
   256
176
     0
 40
1.0
176
     0
 90
        2
176
     1
  1
strokes_ogs.tif
176
     1
290
     0
176
     1
 40
1.0
176
     1
 40
1.0
176
     1
  0
VISUALSTYLE
  5
5F
102
{ACAD_REACTORS
330
2C
102
}
330
2C
100
AcDbVisualStyle
  2
Wireframe
 70
     5
177
     3
291
     0
 70
    58
 90
        0
176
     1
 90
        2
176
     1
 90
        0
176
     1
 90
        0
176
     1
 40
0.6
176
     1
 40
30.0
176
     1
 62
     7
420
 16777215
176
     1
 90
        1
176
     1
 90
        4
176
     1
 62
     7
176
     1
 62
   257
176
     1
 90
        1
176
     1
 90
        1
176
     1
 40
1.0
176
     1
 90
        0
176
     1
 62
   257
176
     1
 40
1.0
176
     1
 90
        1
176
     1
 90
        6
176
     1
 90
        2
176
     1
 62
     7
176
     1
 90
        3
176
     1
 90
        0
176
     1
 90
        0
176
     1
290
     0
176
     1
 90
        1
176
     1
 40
0.0
176
     1
 90
        0
176
     1
290
     0
176
     1
290
     1
176
     1
290
     1
176
     1
290
     0
176
     1
290
     0
176
     1
290
     0
176
     1
290
     0
176
     1
290
     0
176
     1
290
     0
176
     1
 90
       50
176
     1
 40
0.0
176
     1
 40
1.0
176
     1
 90
        0
176
     1
 62
    18
176
     1
 90
       50
176
     1
 90
        3
176
     1
 62
     5
420
      255
176
     1
290
     0
176
     1
 90
       50
176
     1
 90
       50
176
     1
 90
       50
176
     1
290
     0
176
     1
 90
       50
176
     1
 62
   256
176
     0
 40
1.0
176
     0
 90
        2
176
     1
  1
strokes_ogs.tif
176
     1
290
     0
176
     1
 40
1.0
176
     1
 40
1.0
176
     1
  0
DICTIONARYVAR
  5
4C
102
{ACAD_REACTORS
330
4B
102
}
330
4B
100
DictionaryVariables
280
     0
  1
1:1
  0
DICTIONARYVAR
  5
4D
102
{ACAD_REACTORS
330
4B
102
}
330
4B
100
DictionaryVariables
280
     0
  1
STANDARD
  0
DICTIONARYVAR
  5
4E
102
{ACAD_REACTORS
330
4B
102
}
330
4B
100
DictionaryVariables
280
     0
  1
STANDARD
  0
DICTIONARYVAR
  5
4F
102
{ACAD_REACTORS
330
4B
102
}
330
4B
100
DictionaryVariables
280
     0
  1

  0
DICTIONARYVAR
  5
50
102
{ACAD_REACTORS
330
4B
102
}
330
4B
100
DictionaryVariables
280
     0
  1

  0
DICTIONARYVAR
  5
51
102
{ACAD_REACTORS
330
4B
102
}
330
4B
100
DictionaryVariables
280
     0
  1
0
  0
DICTIONARYVAR
  5
52
102
{ACAD_REACTORS
330
4B
102
}
330
4B
100
DictionaryVariables
280
     0
  1
1
  0
DICTIONARYVAR
  5
53
102
{ACAD_REACTORS
330
4B
102
}
330
4B
100
DictionaryVariables
280
     0
  1
15
  0
DICTIONARYVAR
  5
54
102
{ACAD_REACTORS
330
4B
102
}
330
4B
100
DictionaryVariables
280
     0
  1
0
  0
DICTIONARYVAR
  5
55
102
{ACAD_REACTORS
330
4B
102
}
330
4B
100
DictionaryVariables
280
     0
  1
0
  0
DICTIONARYVAR
  5
56
102
{ACAD_REACTORS
330
4B
102
}
330
4B
100
DictionaryVariables
280
     0
  1

  0
DICTIONARYVAR
  5
57
102
{ACAD_REACTORS
330
4B
102
}
330
4B
100
DictionaryVariables
280
     0
  1
1
  0
DICTIONARY
  5
40
330
3F
100
AcDbDictionary
280
     1
281
     1
  3
BUMPTILE
360
41
  3
DIFFUSETILE
360
42
  3
OPACITYTILE
360
43
  3
REFLECTIONTILE
360
44
  3
REFRACTIONTILE
360
45
  3
SPECULARTILE
360
46
  0
DICTIONARY
  5
38
330
37
100
AcDbDictionary
280
     1
281
     1
  3
BUMPTILE
360
39
  3
DIFFUSETILE
360
3A
  3
OPACITYTILE
360
3B
  3
REFLECTIONTILE
360
3C
  3
REFRACTIONTILE
360
3D
  3
SPECULARTILE
360
3E
  0
DICTIONARY
  5
F
330
D
100
AcDbDictionary
280
     1
281
     1
  3
BUMPTILE
360
10
  3
DIFFUSETILE
360
11
  3
OPACITYTILE
360
12
  3
REFLECTIONTILE
360
13
  3
REFRACTIONTILE
360
14
  3
SPECULARTILE
360
15
  0
DICTIONARY
  5
5D
330
5C
100
AcDbDictionary
280
     1
281
     1
  3
ACAD_ROUNDTRIP_2008_TABLESTYLE_CELLSTYLEMAP
360
165
  0
XRECORD
  5
41
102
{ACAD_REACTORS
330
40
102
}
330
40
100
AcDbXrecord
280
     1
270
     1
271
     1
  0
XRECORD
  5
42
102
{ACAD_REACTORS
330
40
102
}
330
40
100
AcDbXrecord
280
     1
270
     1
271
     1
  0
XRECORD
  5
43
102
{ACAD_REACTORS
330
40
102
}
330
40
100
AcDbXrecord
280
     1
270
     1
271
     1
  0
XRECORD
  5
44
102
{ACAD_REACTORS
330
40
102
}
330
40
100
AcDbXrecord
280
     1
270
     1
271
     1
  0
XRECORD
  5
45
102
{ACAD_REACTORS
330
40
102
}
330
40
100
AcDbXrecord
280
     1
270
     1
271
     1
  0
XRECORD
  5
46
102
{ACAD_REACTORS
330
40
102
}
330
40
100
AcDbXrecord
280
     1
270
     1
271
     1
  0
XRECORD
  5
39
102
{ACAD_REACTORS
330
38
102
}
330
38
100
AcDbXrecord
280
     1
270
     1
271
     1
  0
XRECORD
  5
3A
102
{ACAD_REACTORS
330
38
102
}
330
38
100
AcDbXrecord
280
     1
270
     1
271
     1
  0
XRECORD
  5
3B
102
{ACAD_REACTORS
330
38
102
}
330
38
100
AcDbXrecord
280
     1
270
     1
271
     1
  0
XRECORD
  5
3C
102
{ACAD_REACTORS
330
38
102
}
330
38
100
AcDbXrecord
280
     1
270
     1
271
     1
  0
XRECORD
  5
3D
102
{ACAD_REACTORS
330
38
102
}
330
38
100
AcDbXrecord
280
     1
270
     1
271
     1
  0
XRECORD
  5
3E
102
{ACAD_REACTORS
330
38
102
}
330
38
100
AcDbXrecord
280
     1
270
     1
271
     1
  0
XRECORD
  5
10
102
{ACAD_REACTORS
330
F
102
}
330
F
100
AcDbXrecord
280
     1
270
     1
271
     1
  0
XRECORD
  5
11
102
{ACAD_REACTORS
330
F
102
}
330
F
100
AcDbXrecord
280
     1
270
     1
271
     1
  0
XRECORD
  5
12
102
{ACAD_REACTORS
330
F
102
}
330
F
100
AcDbXrecord
280
     1
270
     1
271
     1
  0
XRECORD
  5
13
102
{ACAD_REACTORS
330
F
102
}
330
F
100
AcDbXrecord
280
     1
270
     1
271
     1
  0
XRECORD
  5
14
102
{ACAD_REACTORS
330
F
102
}
330
F
100
AcDbXrecord
280
     1
270
     1
271
     1
  0
XRECORD
  5
15
102
{ACAD_REACTORS
330
F
102
}
330
F
100
AcDbXrecord
280
     1
270
     1
271
     1
  0
CELLSTYLEMAP
  5
165
102
{ACAD_REACTORS
330
5D
102
}
330
5D
100
AcDbCellStyleMap
 90
        3
300
CELLSTYLE
  1
TABLEFORMAT_BEGIN
 90
        5
170
     1
 91
        0
 92
    32768
 62
   257
 93
        1
300
CONTENTFORMAT
  1
CONTENTFORMAT_BEGIN
 90
        0
 91
        0
 92
        4
 93
        0
300

 40
0.0
140
1.0
 94
        5
 62
     0
340
22
144
0.25
309
CONTENTFORMAT_END
171
     1
301
MARGIN
  1
CELLMARGIN_BEGIN
 40
0.06
 40
0.06
 40
0.06
 40
0.06
 40
0.18
 40
0.18
309
CELLMARGIN_END
 94
        6
 95
        1
302
GRIDFORMAT
  1
GRIDFORMAT_BEGIN
 90
        0
 91
        1
 62
     0
 92
       -2
340
0
 93
        0
 40
0.045
309
GRIDFORMAT_END
 95
        2
302
GRIDFORMAT
  1
GRIDFORMAT_BEGIN
 90
        0
 91
        1
 62
     0
 92
       -2
340
0
 93
        0
 40
0.045
309
GRIDFORMAT_END
 95
        4
302
GRIDFORMAT
  1
GRIDFORMAT_BEGIN
 90
        0
 91
        1
 62
     0
 92
       -2
340
0
 93
        0
 40
0.045
309
GRIDFORMAT_END
 95
        8
302
GRIDFORMAT
  1
GRIDFORMAT_BEGIN
 90
        0
 91
        1
 62
     0
 92
       -2
340
0
 93
        0
 40
0.045
309
GRIDFORMAT_END
 95
       16
302
GRIDFORMAT
  1
GRIDFORMAT_BEGIN
 90
        0
 91
        1
 62
     0
 92
       -2
340
0
 93
        0
 40
0.045
309
GRIDFORMAT_END
 95
       32
302
GRIDFORMAT
  1
GRIDFORMAT_BEGIN
 90
        0
 91
        1
 62
     0
 92
       -2
340
0
 93
        0
 40
0.045
309
GRIDFORMAT_END
309
TABLEFORMAT_END
  1
CELLSTYLE_BEGIN
 90
        1
 91
        1
300
_TITLE
309
CELLSTYLE_END
300
CELLSTYLE
  1
TABLEFORMAT_BEGIN
 90
        5
170
     1
 91
        0
 92
        0
 62
   257
 93
        1
300
CONTENTFORMAT
  1
CONTENTFORMAT_BEGIN
 90
        0
 91
        0
 92
        4
 93
        0
300

 40
0.0
140
1.0
 94
        5
 62
     0
340
22
144
0.18
309
CONTENTFORMAT_END
171
     1
301
MARGIN
  1
CELLMARGIN_BEGIN
 40
0.06
 40
0.06
 40
0.06
 40
0.06
 40
0.18
 40
0.18
309
CELLMARGIN_END
 94
        6
 95
        1
302
GRIDFORMAT
  1
GRIDFORMAT_BEGIN
 90
        0
 91
        1
 62
     0
 92
       -2
340
0
 93
        0
 40
0.045
309
GRIDFORMAT_END
 95
        2
302
GRIDFORMAT
  1
GRIDFORMAT_BEGIN
 90
        0
 91
        1
 62
     0
 92
       -2
340
0
 93
        0
 40
0.045
309
GRIDFORMAT_END
 95
        4
302
GRIDFORMAT
  1
GRIDFORMAT_BEGIN
 90
        0
 91
        1
 62
     0
 92
       -2
340
0
 93
        0
 40
0.045
309
GRIDFORMAT_END
 95
        8
302
GRIDFORMAT
  1
GRIDFORMAT_BEGIN
 90
        0
 91
        1
 62
     0
 92
       -2
340
0
 93
        0
 40
0.045
309
GRIDFORMAT_END
 95
       16
302
GRIDFORMAT
  1
GRIDFORMAT_BEGIN
 90
        0
 91
        1
 62
     0
 92
       -2
340
0
 93
        0
 40
0.045
309
GRIDFORMAT_END
 95
       32
302
GRIDFORMAT
  1
GRIDFORMAT_BEGIN
 90
        0
 91
        1
 62
     0
 92
       -2
340
0
 93
        0
 40
0.045
309
GRIDFORMAT_END
309
TABLEFORMAT_END
  1
CELLSTYLE_BEGIN
 90
        2
 91
        1
300
_HEADER
309
CELLSTYLE_END
300
CELLSTYLE
  1
TABLEFORMAT_BEGIN
 90
        5
170
     1
 91
        0
 92
        0
 62
   257
 93
        1
300
CONTENTFORMAT
  1
CONTENTFORMAT_BEGIN
 90
        0
 91
        0
 92
        4
 93
        0
300

 40
0.0
140
1.0
 94
        2
 62
     0
340
22
144
0.18
309
CONTENTFORMAT_END
171
     1
301
MARGIN
  1
CELLMARGIN_BEGIN
 40
0.06
 40
0.06
 40
0.06
 40
0.06
 40
0.18
 40
0.18
309
CELLMARGIN_END
 94
        6
 95
        1
302
GRIDFORMAT
  1
GRIDFORMAT_BEGIN
 90
        0
 91
        1
 62
     0
 92
       -2
340
0
 93
        0
 40
0.045
309
GRIDFORMAT_END
 95
        2
302
GRIDFORMAT
  1
GRIDFORMAT_BEGIN
 90
        0
 91
        1
 62
     0
 92
       -2
340
0
 93
        0
 40
0.045
309
GRIDFORMAT_END
 95
        4
302
GRIDFORMAT
  1
GRIDFORMAT_BEGIN
 90
        0
 91
        1
 62
     0
 92
       -2
340
0
 93
        0
 40
0.045
309
GRIDFORMAT_END
 95
        8
302
GRIDFORMAT
  1
GRIDFORMAT_BEGIN
 90
        0
 91
        1
 62
     0
 92
       -2
340
0
 93
        0
 40
0.045
309
GRIDFORMAT_END
 95
       16
302
GRIDFORMAT
  1
GRIDFORMAT_BEGIN
 90
        0
 91
        1
 62
     0
 92
       -2
340
0
 93
        0
 40
0.045
309
GRIDFORMAT_END
 95
       32
302
GRIDFORMAT
  1
GRIDFORMAT_BEGIN
 90
        0
 91
        1
 62
     0
 92
       -2
340
0
 93
        0
 40
0.045
309
GRIDFORMAT_END
309
TABLEFORMAT_END
  1
CELLSTYLE_BEGIN
 90
        3
 91
        2
300
_DATA
309
CELLSTYLE_END
  0
ENDSEC
  0
EOF
