  0
SECTION
  2
HEADER
  9
$ACADVER
  1
AC1032
  9
$ACADMAINTVER
 90
      197
  9
$DWGCODEPAGE
  3
ANSI_936
  9
$REQUIREDVERSIONS
160
                 0
  9
$INSBASE
 10
0.0
 20
0.0
 30
0.0
  9
$EXTMIN
 10
687.9511555405693
 20
-176.0926991762872
 30
0.0
  9
$EXTMAX
 10
693.7634860582319
 20
-171.7316149972949
 30
0.0000000000000568
  9
$LIMMIN
 10
0.0
 20
0.0
  9
$LIMMAX
 10
12.0
 20
9.0
  9
$ORTHOMODE
 70
     0
  9
$REGENMODE
 70
     1
  9
$FILLMODE
 70
     1
  9
$QTEXTMODE
 70
     0
  9
$MIRRTEXT
 70
     0
  9
$LTSCALE
 40
1.0
  9
$ATTMODE
 70
     1
  9
$TEXTSIZE
 40
0.45
  9
$TRACEWID
 40
0.05
  9
$TEXTSTYLE
  7
Standard
  9
$CLAYER
  8
Defpoints
  9
$CELTYPE
  6
ByLayer
  9
$CECOLOR
 62
   256
  9
$CELTSCALE
 40
1.0
  9
$DISPSILH
 70
     0
  9
$DIMSCALE
 40
0.05
  9
$DIMASZ
 40
0.08
  9
$DIMEXO
 40
0.0266
  9
$DIMDLI
 40
0.0266
  9
$DIMRND
 40
0.0
  9
$DIMDLE
 40
0.0
  9
$DIMEXE
 40
0.0266
  9
$DIMTP
 40
0.0
  9
$DIMTM
 40
1.25
  9
$DIMTXT
 40
0.08
  9
$DIMCEN
 40
0.0
  9
$DIMTSZ
 40
0.0
  9
$DIMTOL
 70
     0
  9
$DIMLIM
 70
     0
  9
$DIMTIH
 70
     0
  9
$DIMTOH
 70
     0
  9
$DIMSE1
 70
     0
  9
$DIMSE2
 70
     0
  9
$DIMTAD
 70
     0
  9
$DIMZIN
 70
     1
  9
$DIMBLK
  1

  9
$DIMASO
 70
     0
  9
$DIMSHO
 70
     1
  9
$DIMPOST
  1

  9
$DIMAPOST
  1

  9
$DIMALT
 70
     0
  9
$DIMALTD
 70
     2
  9
$DIMALTF
 40
25.4
  9
$DIMLFAC
 40
1.0
  9
$DIMTOFL
 70
     1
  9
$DIMTVP
 40
0.0
  9
$DIMTIX
 70
     0
  9
$DIMSOXD
 70
     0
  9
$DIMSAH
 70
     0
  9
$DIMBLK1
  1

  9
$DIMBLK2
  1

  9
$DIMSTYLE
  2
Standard
  9
$DIMCLRD
 70
   256
  9
$DIMCLRE
 70
   256
  9
$DIMCLRT
 70
   256
  9
$DIMTFAC
 40
1.0
  9
$DIMGAP
 40
0.0266
  9
$DIMJUST
 70
     0
  9
$DIMSD1
 70
     0
  9
$DIMSD2
 70
     0
  9
$DIMTOLJ
 70
     1
  9
$DIMTZIN
 70
     0
  9
$DIMALTZ
 70
     0
  9
$DIMALTTZ
 70
     0
  9
$DIMUPT
 70
     0
  9
$DIMDEC
 70
     4
  9
$DIMTDEC
 70
     4
  9
$DIMALTU
 70
     2
  9
$DIMALTTD
 70
     2
  9
$DIMTXSTY
  7
Standard
  9
$DIMAUNIT
 70
     0
  9
$DIMADEC
 70
     0
  9
$DIMALTRND
 40
0.0
  9
$DIMAZIN
 70
     1
  9
$DIMDSEP
 70
    46
  9
$DIMATFIT
 70
     0
  9
$DIMFRAC
 70
     0
  9
$DIMLDRBLK
  1

  9
$DIMLUNIT
 70
     2
  9
$DIMLWD
 70
    -1
  9
$DIMLWE
 70
    -1
  9
$DIMTMOVE
 70
     0
  9
$DIMFXL
 40
0.0072
  9
$DIMFXLON
 70
     0
  9
$DIMJOGANG
 40
0.7853981633974483
  9
$DIMTFILL
 70
     0
  9
$DIMTFILLCLR
 70
     0
  9
$DIMARCSYM
 70
     0
  9
$DIMLTYPE
  6
ByLayer
  9
$DIMLTEX1
  6
ByLayer
  9
$DIMLTEX2
  6
ByLayer
  9
$DIMTXTDIRECTION
 70
     0
  9
$LUNITS
 70
     2
  9
$LUPREC
 70
     8
  9
$SKETCHINC
 40
0.1
  9
$FILLETRAD
 40
0.0
  9
$AUNITS
 70
     0
  9
$AUPREC
 70
     0
  9
$MENU
  1
.
  9
$ELEVATION
 40
0.0
  9
$PELEVATION
 40
0.0
  9
$THICKNESS
 40
0.0
  9
$LIMCHECK
 70
     0
  9
$CHAMFERA
 40
0.0
  9
$CHAMFERB
 40
0.0
  9
$CHAMFERC
 40
1.0
  9
$CHAMFERD
 40
0.0
  9
$SKPOLY
 70
     0
  9
$TDCREATE
 40
2453883.125682871
  9
$TDUCREATE
 40
2453882.792357350
  9
$TDUPDATE
 40
2455601.494444445
  9
$TDUUPDATE
 40
2455601.161122049
  9
$TDINDWG
 40
10.0086129514
  9
$TDUSRTIMER
 40
10.0086129514
  9
$USRTIMER
 70
     1
  9
$ANGBASE
 50
0.0
  9
$ANGDIR
 70
     0
  9
$PDMODE
 70
     0
  9
$PDSIZE
 40
0.0
  9
$PLINEWID
 40
0.0
  9
$SPLFRAME
 70
     0
  9
$SPLINETYPE
 70
     6
  9
$SPLINESEGS
 70
     8
  9
$HANDSEED
  5
149
  9
$SURFTAB1
 70
     6
  9
$SURFTAB2
 70
     6
  9
$SURFTYPE
 70
     6
  9
$SURFU
 70
     6
  9
$SURFV
 70
     6
  9
$UCSBASE
  2

  9
$UCSNAME
  2

  9
$UCSORG
 10
0.0
 20
0.0
 30
0.0
  9
$UCSXDIR
 10
1.0
 20
0.0
 30
0.0
  9
$UCSYDIR
 10
0.0
 20
1.0
 30
0.0
  9
$UCSORTHOREF
  2

  9
$UCSORTHOVIEW
 70
     0
  9
$UCSORGTOP
 10
0.0
 20
0.0
 30
0.0
  9
$UCSORGBOTTOM
 10
0.0
 20
0.0
 30
0.0
  9
$UCSORGLEFT
 10
0.0
 20
0.0
 30
0.0
  9
$UCSORGRIGHT
 10
0.0
 20
0.0
 30
0.0
  9
$UCSORGFRONT
 10
0.0
 20
0.0
 30
0.0
  9
$UCSORGBACK
 10
0.0
 20
0.0
 30
0.0
  9
$PUCSBASE
  2

  9
$PUCSNAME
  2

  9
$PUCSORG
 10
0.0
 20
0.0
 30
0.0
  9
$PUCSXDIR
 10
1.0
 20
0.0
 30
0.0
  9
$PUCSYDIR
 10
0.0
 20
1.0
 30
0.0
  9
$PUCSORTHOREF
  2

  9
$PUCSORTHOVIEW
 70
     0
  9
$PUCSORGTOP
 10
0.0
 20
0.0
 30
0.0
  9
$PUCSORGBOTTOM
 10
0.0
 20
0.0
 30
0.0
  9
$PUCSORGLEFT
 10
0.0
 20
0.0
 30
0.0
  9
$PUCSORGRIGHT
 10
0.0
 20
0.0
 30
0.0
  9
$PUCSORGFRONT
 10
0.0
 20
0.0
 30
0.0
  9
$PUCSORGBACK
 10
0.0
 20
0.0
 30
0.0
  9
$USERI1
 70
     0
  9
$USERI2
 70
     0
  9
$USERI3
 70
     0
  9
$USERI4
 70
     0
  9
$USERI5
 70
     0
  9
$USERR1
 40
0.0
  9
$USERR2
 40
0.0
  9
$USERR3
 40
0.0
  9
$USERR4
 40
0.0
  9
$USERR5
 40
0.0
  9
$WORLDVIEW
 70
     1
  9
$SHADEDGE
 70
     3
  9
$SHADEDIF
 70
    70
  9
$TILEMODE
 70
     1
  9
$MAXACTVP
 70
    64
  9
$PINSBASE
 10
0.0
 20
0.0
 30
0.0
  9
$PLIMCHECK
 70
     0
  9
$PEXTMIN
 10
1.000000000000000E+20
 20
1.000000000000000E+20
 30
1.000000000000000E+20
  9
$PEXTMAX
 10
-1.000000000000000E+20
 20
-1.000000000000000E+20
 30
-1.000000000000000E+20
  9
$PLIMMIN
 10
0.0
 20
0.0
  9
$PLIMMAX
 10
12.0
 20
9.0
  9
$UNITMODE
 70
     0
  9
$VISRETAIN
 70
     1
  9
$PLINEGEN
 70
     0
  9
$PSLTSCALE
 70
     1
  9
$TREEDEPTH
 70
  3020
  9
$CMLSTYLE
  2
Standard
  9
$CMLJUST
 70
     0
  9
$CMLSCALE
 40
1.0
  9
$PROXYGRAPHICS
 70
     1
  9
$MEASUREMENT
 70
     0
  9
$CELWEIGHT
370
    -1
  9
$ENDCAPS
280
     0
  9
$JOINSTYLE
280
     0
  9
$LWDISPLAY
290
     0
  9
$INSUNITS
 70
     0
  9
$HYPERLINKBASE
  1

  9
$STYLESHEET
  1

  9
$XEDIT
290
     1
  9
$CEPSNTYPE
380
     0
  9
$PSTYLEMODE
290
     1
  9
$FINGERPRINTGUID
  2
{0D7FCABD-FD49-4142-AA4C-30493D0E20B1}
  9
$VERSIONGUID
  2
{12A48438-84A3-4FD2-A276-BDF2C6C8AAFA}
  9
$EXTNAMES
290
     1
  9
$PSVPSCALE
 40
0.0
  9
$OLESTARTUP
290
     0
  9
$SORTENTS
280
   127
  9
$INDEXCTL
280
     0
  9
$HIDETEXT
280
     1
  9
$XCLIPFRAME
280
     2
  9
$HALOGAP
280
     0
  9
$OBSCOLOR
 70
   257
  9
$OBSLTYPE
280
     0
  9
$INTERSECTIONDISPLAY
280
     0
  9
$INTERSECTIONCOLOR
 70
   257
  9
$DIMASSOC
280
     0
  9
$PROJECTNAME
  1

  9
$CAMERADISPLAY
290
     0
  9
$LENSLENGTH
 40
50.0
  9
$CAMERAHEIGHT
 40
0.0
  9
$STEPSPERSEC
 40
2.0
  9
$STEPSIZE
 40
6.0
  9
$3DDWFPREC
 40
2.0
  9
$PSOLWIDTH
 40
0.25
  9
$PSOLHEIGHT
 40
4.0
  9
$LOFTANG1
 40
1.570796326794896
  9
$LOFTANG2
 40
1.570796326794896
  9
$LOFTMAG1
 40
0.0
  9
$LOFTMAG2
 40
0.0
  9
$LOFTPARAM
 70
     7
  9
$LOFTNORMALS
280
     1
  9
$LATITUDE
 40
37.795
  9
$LONGITUDE
 40
-122.394
  9
$NORTHDIRECTION
 40
0.0
  9
$TIMEZONE
 70
 -8000
  9
$LIGHTGLYPHDISPLAY
280
     1
  9
$TILEMODELIGHTSYNCH
280
     1
  9
$CMATERIAL
347
31
  9
$SOLIDHIST
280
     0
  9
$SHOWHIST
280
     1
  9
$DWFFRAME
280
     2
  9
$DGNFRAME
280
     0
  9
$REALWORLDSCALE
290
     1
  9
$INTERFERECOLOR
 62
     1
  9
$INTERFEREOBJVS
345
48
  9
$INTERFEREVPVS
346
49
  9
$CSHADOW
280
     0
  9
$SHADOWPLANELOCATION
 40
0.0
  0
ENDSEC
  0
SECTION
  2
CLASSES
  0
CLASS
  1
ACDBDICTIONARYWDFLT
  2
AcDbDictionaryWithDefault
  3
ObjectDBX Classes
 90
        0
 91
        1
280
     0
281
     0
  0
CLASS
  1
DICTIONARYVAR
  2
AcDbDictionaryVar
  3
ObjectDBX Classes
 90
        0
 91
       13
280
     0
281
     0
  0
CLASS
  1
TABLESTYLE
  2
AcDbTableStyle
  3
ObjectDBX Classes
 90
     4095
 91
        1
280
     0
281
     0
  0
CLASS
  1
SORTENTSTABLE
  2
AcDbSortentsTable
  3
ObjectDBX Classes
 90
        0
 91
        2
280
     0
281
     0
  0
CLASS
  1
VISUALSTYLE
  2
AcDbVisualStyle
  3
ObjectDBX Classes
 90
     4095
 91
        3
280
     0
281
     0
  0
CLASS
  1
MATERIAL
  2
AcDbMaterial
  3
ObjectDBX Classes
 90
     1153
 91
        3
280
     0
281
     0
  0
CLASS
  1
EXACXREFPANELOBJECT
  2
ExAcXREFPanelObject
  3
EXAC_ESW
 90
     1025
 91
        0
280
     1
281
     0
  0
CLASS
  1
NPOCOLLECTION
  2
AcDbImpNonPersistentObjectsCollection
  3
ObjectDBX Classes
 90
     1153
 91
        0
280
     0
281
     0
  0
CLASS
  1
DIMASSOC
  2
AcDbDimAssoc
  3
"AcDbDimAssoc|Product Desc:     AcDim ARX App For Dimension|Company:          Autodesk, Inc.|WEB Address:      www.autodesk.com"
 90
        0
 91
        0
280
     0
281
     0
  0
CLASS
  1
SCALE
  2
AcDbScale
  3
ObjectDBX Classes
 90
     1153
 91
       17
280
     0
281
     0
  0
CLASS
  1
MLEADERSTYLE
  2
AcDbMLeaderStyle
  3
ACDB_MLEADERSTYLE_CLASS
 90
     4095
 91
        0
280
     0
281
     0
  0
CLASS
  1
ACDBSECTIONVIEWSTYLE
  2
AcDbSectionViewStyle
  3
ObjectDBX Classes
 90
     1025
 91
        0
280
     0
281
     0
  0
CLASS
  1
ACDBDETAILVIEWSTYLE
  2
AcDbDetailViewStyle
  3
ObjectDBX Classes
 90
     1025
 91
        0
280
     0
281
     0
  0
CLASS
  1
SOLID_BACKGROUND
  2
AcDbSolidBackground
  3
SCENEOE
 90
     4095
 91
        0
280
     0
281
     0
  0
CLASS
  1
CELLSTYLEMAP
  2
AcDbCellStyleMap
  3
ObjectDBX Classes
 90
     1152
 91
        1
280
     0
281
     0
  0
ENDSEC
  0
SECTION
  2
TABLES
  0
TABLE
  2
VPORT
  5
23
102
{ACAD_XDICTIONARY
360
28
102
}
330
0
100
AcDbSymbolTable
 70
     1
  0
VPORT
  5
24
330
23
100
AcDbSymbolTableRecord
100
AcDbViewportTableRecord
  2
*Active
 70
     0
 10
0.0
 20
0.0
 11
1.0
 21
1.0
 12
691.9417809486993
 22
-172.3215290371393
 13
0.0
 23
0.0
 14
0.5
 24
0.5
 15
0.5
 25
0.5
 16
0.0
 26
0.0
 36
1.0
 17
0.0
 27
0.0
 37
0.0
 40
1.790731809720116
 41
2.311515151515151
 42
50.0
 43
0.0
 44
0.0
 50
0.0
 51
0.0
 71
     0
 72
   100
 73
     1
 74
     2
 75
     0
 76
     0
 77
     0
 78
     0
281
     0
 65
     1
110
0.0
120
0.0
130
0.0
111
1.0
121
0.0
131
0.0
112
0.0
122
1.0
132
0.0
 79
     0
146
0.0
348
25
 60
     3
 61
     5
292
     1
282
     1
141
0.0
142
0.0
 63
   250
421
  3355443
1001
ACAD_NAV_VCDISPLAY
1070
     3
  0
ENDTAB
  0
TABLE
  2
LTYPE
  5
1E
330
0
100
AcDbSymbolTable
 70
     1
  0
LTYPE
  5
1F
330
1E
100
AcDbSymbolTableRecord
100
AcDbLinetypeTableRecord
  2
ByBlock
 70
     0
  3

 72
    65
 73
     0
 40
0.0
  0
LTYPE
  5
20
330
1E
100
AcDbSymbolTableRecord
100
AcDbLinetypeTableRecord
  2
ByLayer
 70
     0
  3

 72
    65
 73
     0
 40
0.0
  0
LTYPE
  5
C
330
1E
100
AcDbSymbolTableRecord
100
AcDbLinetypeTableRecord
  2
Continuous
 70
     0
  3
Solid line
 72
    65
 73
     0
 40
0.0
  0
ENDTAB
  0
TABLE
  2
LAYER
  5
15
102
{ACAD_XDICTIONARY
360
16
102
}
330
0
100
AcDbSymbolTable
 70
     3
  0
LAYER
  5
6
330
15
100
AcDbSymbolTableRecord
100
AcDbLayerTableRecord
  2
0
 70
     0
 62
     7
  6
Continuous
370
    -3
390
7
347
A
348
0
  0
LAYER
  5
45
330
15
100
AcDbSymbolTableRecord
100
AcDbLayerTableRecord
  2
Defpoints
 70
     0
 62
     7
  6
Continuous
290
     0
370
    -3
390
7
347
A
348
0
  0
LAYER
  5
5C
330
15
100
AcDbSymbolTableRecord
100
AcDbLayerTableRecord
  2
4
 70
     0
 62
     7
  6
Continuous
370
    -3
390
7
347
A
348
0
1001
AcAecLayerStandard
1000

1000

  0
ENDTAB
  0
TABLE
  2
STYLE
  5
1B
330
0
100
AcDbSymbolTable
 70
     2
  0
STYLE
  5
1C
330
1B
100
AcDbSymbolTableRecord
100
AcDbTextStyleTableRecord
  2
Standard
 70
     0
 40
0.0
 41
1.0
 50
0.0
 71
     0
 42
0.45
  3
txt
  4

  0
STYLE
  5
5F
330
1B
100
AcDbSymbolTableRecord
100
AcDbTextStyleTableRecord
  2
ROMANS
 70
     0
 40
1.0
 41
0.8
 50
0.0
 71
     0
 42
1.0
  3
SIMPLEX.shx
  4

  0
ENDTAB
  0
TABLE
  2
VIEW
  5
21
330
0
100
AcDbSymbolTable
 70
     0
  0
ENDTAB
  0
TABLE
  2
UCS
  5
22
330
0
100
AcDbSymbolTable
 70
     0
  0
ENDTAB
  0
TABLE
  2
APPID
  5
29
330
0
100
AcDbSymbolTable
 70
     5
  0
APPID
  5
1A
330
29
100
AcDbSymbolTableRecord
100
AcDbRegAppTableRecord
  2
ACAD
 70
     0
  0
APPID
  5
2C
330
29
100
AcDbSymbolTableRecord
100
AcDbRegAppTableRecord
  2
ACAD_DSTYLE_DIMJOGGED_JOGANGLE_SYMBOL
 70
     0
  0
APPID
  5
10
330
29
100
AcDbSymbolTableRecord
100
AcDbRegAppTableRecord
  2
ACAD_PSEXT
 70
     0
  0
APPID
  5
5D
330
29
100
AcDbSymbolTableRecord
100
AcDbRegAppTableRecord
  2
AcAecLayerStandard
 70
     0
  0
APPID
  5
27
330
29
100
AcDbSymbolTableRecord
100
AcDbRegAppTableRecord
  2
ACAD_NAV_VCDISPLAY
 70
     0
  0
ENDTAB
  0
TABLE
  2
DIMSTYLE
  5
2A
330
0
100
AcDbSymbolTable
 70
     1
100
AcDbDimStyleTable
 71
     1
340
2B
  0
DIMSTYLE
105
2B
330
2A
100
AcDbSymbolTableRecord
100
AcDbDimStyleTableRecord
  2
Standard
 70
     0
 40
0.05
 41
0.08
 42
0.0266
 43
0.0266
 44
0.0266
 48
1.25
 49
0.0072
 73
     0
 74
     0
 78
     1
 79
     1
140
0.08
141
0.0
147
0.0266
172
     1
176
   256
177
   256
178
   256
289
     0
340
1C
345
20
346
20
347
20
371
    -1
372
    -1
1001
ACAD_DSTYLE_DIMJOGGED_JOGANGLE_SYMBOL
1070
   384
1040
0.7853981633974483
  0
ENDTAB
  0
TABLE
  2
BLOCK_RECORD
  5
1
330
0
100
AcDbSymbolTable
 70
     0
  0
BLOCK_RECORD
  5
2
102
{ACAD_XDICTIONARY
360
3
102
}
330
1
100
AcDbSymbolTableRecord
100
AcDbBlockTableRecord
  2
*Model_Space
340
E
 70
     0
280
     1
281
     0
  0
BLOCK_RECORD
  5
11
330
1
100
AcDbSymbolTableRecord
100
AcDbBlockTableRecord
  2
*Paper_Space
340
14
 70
     0
280
     1
281
     0
  0
ENDTAB
  0
ENDSEC
  0
SECTION
  2
BLOCKS
  0
BLOCK
  5
5
330
2
100
AcDbEntity
  8
0
100
AcDbBlockBegin
  2
*Model_Space
 70
     0
 10
0.0
 20
0.0
 30
0.0
  3
*Model_Space
  1

  0
ENDBLK
  5
D
330
2
100
AcDbEntity
  8
0
100
AcDbBlockEnd
  0
BLOCK
  5
12
330
11
100
AcDbEntity
 67
     1
  8
0
100
AcDbBlockBegin
  2
*Paper_Space
 70
     0
 10
0.0
 20
0.0
 30
0.0
  3
*Paper_Space
  1

  0
ENDBLK
  5
13
330
11
100
AcDbEntity
 67
     1
  8
0
100
AcDbBlockEnd
  0
ENDSEC
  0
SECTION
  2
ENTITIES
  0
LINE
  5
5B
330
2
100
AcDbEntity
  8
4
 62
     3
100
AcDbLine
 10
0.3861151485926939
 20
0.0945222365319012
 30
0.0
 11
0.8733969536405083
 21
0.0945222365319012
 31
0.0
  0
TEXT
  5
5E
330
2
100
AcDbEntity
  8
4
 62
     3
100
AcDbText
 10
0.8166762561715888
 20
-0.1957155159480789
 30
0.0
 40
0.0052260097994254
  1
0.0020/0.1000
 41
0.9
  7
ROMANS
 72
     4
 11
0.8426569906030181
 21
-0.1934757974626109
 31
0.0
100
AcDbText
  0
TEXT
  5
60
330
2
100
AcDbEntity
  8
4
 62
     3
100
AcDbText
 10
0.8319013801173294
 20
-0.1829577545265703
 30
0.0
 40
0.0058066775549171
  1
0.0015
 41
0.9
  7
ROMANS
 72
     4
 11
0.8443442605921518
 21
-0.1800544157491117
 31
0.0
100
AcDbText
  0
TEXT
  5
61
330
2
100
AcDbEntity
  8
4
 62
     3
100
AcDbText
 10
0.8418719425938279
 20
-0.2083645126649174
 30
0.0
 40
0.0058066775549171
  1
-
 41
0.9
  7
ROMANS
 72
     4
 11
0.844111661079296
 21
-0.2058759365699529
 31
0.0
100
AcDbText
  0
TEXT
  5
62
330
2
100
AcDbEntity
  8
4
 62
     3
100
AcDbText
 10
0.7649237918413997
 20
-0.1574083732849953
 30
0.0
 40
0.0058066775549171
  1
%%P0.0040
 41
0.9
  7
ROMANS
 72
     4
 11
0.7810995364586688
 21
-0.1545050345075367
 31
0.0
100
AcDbText
  0
TEXT
  5
63
330
2
100
AcDbEntity
  8
4
 62
     3
100
AcDbText
 10
0.7786272184603451
 20
-0.1317163689405618
 30
0.0
 40
0.0058066775549171
  1
-
 41
0.9
  7
ROMANS
 72
     4
 11
0.780866936945813
 21
-0.1292277928455974
 31
0.0
100
AcDbText
  0
TEXT
  5
64
330
2
100
AcDbEntity
  8
4
 62
     3
100
AcDbText
 10
0.7786272184603451
 20
-0.1189416783195896
 30
0.0
 40
0.0058066775549171
  1
-
 41
0.9
  7
ROMANS
 72
     4
 11
0.780866936945813
 21
-0.1164531022246251
 31
0.0
100
AcDbText
  0
TEXT
  5
65
330
2
100
AcDbEntity
  8
4
 62
     3
100
AcDbText
 10
0.7786272184603451
 20
-0.1444910595611646
 30
0.0
 40
0.0058066775549171
  1
-
 41
0.9
  7
ROMANS
 72
     4
 11
0.780866936945813
 21
-0.1420024834662001
 31
0.0
100
AcDbText
  0
TEXT
  5
66
330
2
100
AcDbEntity
  8
4
 62
     3
100
AcDbText
 10
0.7786272184603451
 20
-0.2466885845274931
 30
0.0
 40
0.0058066775549171
  1
-
 41
0.9
  7
ROMANS
 72
     4
 11
0.780866936945813
 21
-0.2442000084325286
 31
0.0
100
AcDbText
  0
TEXT
  5
67
330
2
100
AcDbEntity
  8
4
 62
     3
100
AcDbText
 10
0.7786272184603451
 20
-0.2339138939064925
 30
0.0
 40
0.0058066775549171
  1
-
 41
0.9
  7
ROMANS
 72
     4
 11
0.780866936945813
 21
-0.231425317811528
 31
0.0
100
AcDbText
  0
TEXT
  5
68
330
2
100
AcDbEntity
  8
4
 62
     3
100
AcDbText
 10
0.7786272184603451
 20
-0.2211392032858897
 30
0.0
 40
0.0058066775549171
  1
-
 41
0.9
  7
ROMANS
 72
     4
 11
0.780866936945813
 21
-0.2186506271909252
 31
0.0
100
AcDbText
  0
TEXT
  5
69
330
2
100
AcDbEntity
  8
4
 62
     3
100
AcDbText
 10
0.7181779039824807
 20
-0.2083645126649174
 30
0.0
 40
0.0058066775549171
  1
-
 41
0.9
  7
ROMANS
 72
     4
 11
0.7204176224679486
 21
-0.2058759365699529
 31
0.0
100
AcDbText
  0
TEXT
  5
6A
330
2
100
AcDbEntity
  8
4
 62
     3
100
AcDbText
 10
0.7181779039824807
 20
-0.2211392032858897
 30
0.0
 40
0.0058066775549171
  1
-
 41
0.9
  7
ROMANS
 72
     4
 11
0.7204176224679486
 21
-0.2186506271909252
 31
0.0
100
AcDbText
  0
TEXT
  5
6B
330
2
100
AcDbEntity
  8
4
 62
     3
100
AcDbText
 10
0.7181779039824807
 20
-0.2339138939064925
 30
0.0
 40
0.0058066775549171
  1
-
 41
0.9
  7
ROMANS
 72
     4
 11
0.7204176224679486
 21
-0.231425317811528
 31
0.0
100
AcDbText
  0
TEXT
  5
6C
330
2
100
AcDbEntity
  8
4
 62
     3
100
AcDbText
 10
0.7181779039824807
 20
-0.2466885845274931
 30
0.0
 40
0.0058066775549171
  1
-
 41
0.9
  7
ROMANS
 72
     4
 11
0.7204176224679486
 21
-0.2442000084325286
 31
0.0
100
AcDbText
  0
TEXT
  5
6D
330
2
100
AcDbEntity
  8
4
 62
     3
100
AcDbText
 10
0.7181779039824807
 20
-0.1444910595611646
 30
0.0
 40
0.0058066775549171
  1
-
 41
0.9
  7
ROMANS
 72
     4
 11
0.7204176224679486
 21
-0.1420024834662001
 31
0.0
100
AcDbText
  0
TEXT
  5
6E
330
2
100
AcDbEntity
  8
4
 62
     3
100
AcDbText
 10
0.7181779039824807
 20
-0.1189416783195896
 30
0.0
 40
0.0058066775549171
  1
-
 41
0.9
  7
ROMANS
 72
     4
 11
0.7204176224679486
 21
-0.1164531022246251
 31
0.0
100
AcDbText
  0
TEXT
  5
6F
330
2
100
AcDbEntity
  8
4
 62
     3
100
AcDbText
 10
0.7181779039824807
 20
-0.1317163689405618
 30
0.0
 40
0.0058066775549171
  1
-
 41
0.9
  7
ROMANS
 72
     4
 11
0.7204176224679486
 21
-0.1292277928455974
 31
0.0
100
AcDbText
  0
TEXT
  5
70
330
2
100
AcDbEntity
  8
4
 62
     3
100
AcDbText
 10
0.7181779039824807
 20
-0.1955898220447125
 30
0.0
 40
0.0058066775549171
  1
-
 41
0.9
  7
ROMANS
 72
     4
 11
0.7204176224679486
 21
-0.1931012459497481
 31
0.0
100
AcDbText
  0
TEXT
  5
71
330
2
100
AcDbEntity
  8
4
 62
     3
100
AcDbText
 10
0.7181779039824807
 20
-0.1828151314237119
 30
0.0
 40
0.0058066775549171
  1
-
 41
0.9
  7
ROMANS
 72
     4
 11
0.7204176224679486
 21
-0.1803265553287474
 31
0.0
100
AcDbText
  0
TEXT
  5
72
330
2
100
AcDbEntity
  8
4
 62
     3
100
AcDbText
 10
0.7181779039824807
 20
-0.1700404408027396
 30
0.0
 40
0.0058066775549171
  1
-
 41
0.9
  7
ROMANS
 72
     4
 11
0.7204176224679486
 21
-0.1675518647077752
 31
0.0
100
AcDbText
  0
TEXT
  5
73
330
2
100
AcDbEntity
  8
4
 62
     3
100
AcDbText
 10
0.7181779039824807
 20
-0.1572657501821369
 30
0.0
 40
0.0058066775549171
  1
-
 41
0.9
  7
ROMANS
 72
     4
 11
0.7204176224679486
 21
-0.1547771740871724
 31
0.0
100
AcDbText
  0
TEXT
  5
74
330
2
100
AcDbEntity
  8
4
 62
     3
100
AcDbText
 10
0.5121036022888151
 20
0.1743381818061199
 30
0.0
 40
0.0058066775549171
  1
A194 FH
 41
0.9
  7
ROMANS
 72
     4
 11
0.5281549181013361
 21
0.1772415205835784
 31
0.0
100
AcDbText
  0
LWPOLYLINE
  5
75
330
2
100
AcDbEntity
  8
4
 62
     7
100
AcDbPolyline
 90
        2
 70
     0
 43
0.0005806677554917
 10
0.6889869847079808
 20
-0.0204499328614816
 10
0.6889869847079808
 20
0.199091800574223
  0
LWPOLYLINE
  5
76
330
2
100
AcDbEntity
  8
4
 62
     7
100
AcDbPolyline
 90
        2
 70
     0
 43
0.0005806677554917
 10
0.7504569743521188
 20
-0.0204499328614816
 10
0.7504569743521188
 20
0.199091800574223
  0
TEXT
  5
77
330
2
100
AcDbEntity
  8
4
 62
     3
100
AcDbText
 10
0.4124041964271975
 20
-0.131573391749556
 30
0.0
 40
0.0058066775549171
  1
VERTICAL BURR
 41
0.9
  7
ROMANS
 72
     4
 11
0.4426403959810159
 21
-0.1286700529720974
 31
0.0
100
AcDbText
  0
LINE
  5
78
330
2
100
AcDbEntity
  8
4
 62
     3
100
AcDbLine
 10
0.3861151485923528
 20
-0.1226478735733281
 30
0.0
 11
0.8733969536401673
 21
-0.1226478735733281
 31
0.0
  0
TEXT
  5
79
330
2
100
AcDbEntity
  8
4
 62
     3
100
AcDbText
 10
0.4124463338096433
 20
-0.1190680267276047
 30
0.0
 40
0.0058066775549171
  1
MAXIMUM RADIUS ON ALL CORNERS UNLESS OTHERWISE SPECIFIED
 41
0.9
  7
ROMANS
 72
     4
 11
0.5465805853282291
 21
-0.1161646879501461
 31
0.0
100
AcDbText
  0
TEXT
  5
7A
330
2
100
AcDbEntity
  8
4
 62
     3
100
AcDbText
 10
0.4124393252421069
 20
-0.157392098590152
 30
0.0
 40
0.0058066775549171
  1
LEAD TIP PLANARITY FROM DAM BAR
 41
0.9
  7
ROMANS
 72
     4
 11
0.4872210368957895
 21
-0.1544887598126934
 31
0.0
100
AcDbText
  0
LINE
  5
7B
330
2
100
AcDbEntity
  8
4
 62
     3
100
AcDbLine
 10
0.3861151485923528
 20
-0.1354225641943287
 30
0.0
 11
0.8733969536401673
 21
-0.1354225641943287
 31
0.0
  0
LINE
  5
7C
330
2
100
AcDbEntity
  8
4
 62
     3
100
AcDbLine
 10
0.3861151485923528
 20
-0.1865213266775072
 30
0.0
 11
0.8733969536401673
 21
-0.1865213266775072
 31
0.0
  0
LINE
  5
7D
330
2
100
AcDbEntity
  8
4
 62
     3
100
AcDbLine
 10
0.3861151485923528
 20
-0.1737466360565065
 30
0.0
 11
0.8733969536401673
 21
-0.1737466360565065
 31
0.0
  0
LINE
  5
7E
330
2
100
AcDbEntity
  8
4
 62
     3
100
AcDbLine
 10
0.3861151485923528
 20
-0.1609719454359038
 30
0.0
 11
0.8733969536401673
 21
-0.1609719454359038
 31
0.0
  0
LINE
  5
7F
330
2
100
AcDbEntity
  8
4
 62
     3
100
AcDbLine
 10
0.3861151485923528
 20
-0.1481972548149315
 30
0.0
 11
0.8733969536401673
 21
-0.1481972548149315
 31
0.0
  0
TEXT
  5
80
330
2
100
AcDbEntity
  8
4
 62
     3
100
AcDbText
 10
0.4124532565293302
 20
-0.1446174079691797
 30
0.0
 40
0.0058066775549171
  1
HORIZONTAL BURR
 41
0.9
  7
ROMANS
 72
     4
 11
0.4486620387110634
 21
-0.1417140691917211
 31
0.0
100
AcDbText
  0
TEXT
  5
81
330
2
100
AcDbEntity
  8
4
 62
     3
100
AcDbText
 10
0.4124656368088204
 20
-0.1697826168421567
 30
0.0
 40
0.0058066775549171
  1
PAD FLATNESS
 41
0.9
  7
ROMANS
 72
     4
 11
0.4414575483151566
 21
-0.1668792780646981
 31
0.0
100
AcDbText
  0
TEXT
  5
82
330
2
100
AcDbEntity
  8
4
 62
     3
100
AcDbText
 10
0.4125456048842453
 20
-0.1829414798317554
 30
0.0
 40
0.0058066775549171
  1
CAMBER
 41
0.9
  7
ROMANS
 72
     4
 11
0.4276014902587804
 21
-0.1800381410542968
 31
0.0
100
AcDbText
  0
TEXT
  5
83
330
2
100
AcDbEntity
  8
4
 62
     3
100
AcDbText
 10
0.4124708313335014
 20
-0.1957161704527277
 30
0.0
 40
0.0058066775549171
  1
PAD TILT
 41
0.9
  7
ROMANS
 72
     4
 11
0.4298908639982529
 21
-0.1928128316752691
 31
0.0
100
AcDbText
  0
TEXT
  5
84
330
2
100
AcDbEntity
  8
4
 62
     3
100
AcDbText
 10
0.4124570248936967
 20
-0.2088224602927095
 30
0.0
 40
0.0058066775549171
  1
PAD PLANARITY
 41
0.9
  7
ROMANS
 72
     4
 11
0.4435642260807527
 21
-0.2059191215152509
 31
0.0
100
AcDbText
  0
TEXT
  5
85
330
2
100
AcDbEntity
  8
4
 62
     3
100
AcDbText
 10
0.4124534904814708
 20
-0.2212655516939048
 30
0.0
 40
0.0058066775549171
  1
CROSS BOW
 41
0.9
  7
ROMANS
 72
     4
 11
0.4355972481646404
 21
-0.2183622129164462
 31
0.0
100
AcDbText
  0
TEXT
  5
86
330
2
100
AcDbEntity
  8
4
 62
     3
100
AcDbText
 10
0.4126795966558096
 20
-0.2336254796320134
 30
0.0
 40
0.0058066775549171
  1
LEAD TWIST / LEAD TILT
 41
0.9
  7
ROMANS
 72
     4
 11
0.4625755473598474
 21
-0.231136903537049
 31
0.0
100
AcDbText
  0
TEXT
  5
87
330
2
100
AcDbEntity
  8
4
 62
     3
100
AcDbText
 10
0.4124328520104018
 20
-0.2468149329354798
 30
0.0
 40
0.0058066775549171
  1
FRAME TWIST
 41
0.9
  7
ROMANS
 72
     4
 11
0.4381896145932842
 21
-0.2439115941580212
 31
0.0
100
AcDbText
  0
TEXT
  5
88
330
2
100
AcDbEntity
  8
4
 62
     3
100
AcDbText
 10
0.4123969177407706
 20
-0.2599347431125937
 30
0.0
 40
0.0058066775549171
  1
PART TO BE FREE OF RUST, KINKS, BENDS, WRINKLES, OR SCRATCHES DEEPER THAN 0.0003
 41
0.9
  7
ROMANS
 72
     4
 11
0.6026485602008052
 21
-0.2575844212451273
 31
0.0
100
AcDbText
  0
TEXT
  5
89
330
2
100
AcDbEntity
  8
4
 62
     3
100
AcDbText
 10
0.4124911352016641
 20
-0.2849879377575763
 30
0.0
 40
0.0058066775549171
  1
DIMENSION QUADRANT IS TYPICAL FOR QUADRANTS, EXCEPT AS SHOWN
 41
0.9
  7
ROMANS
 72
     4
 11
0.5575751215380933
 21
-0.2826376158901098
 31
0.0
100
AcDbText
  0
LINE
  5
8A
330
2
100
AcDbEntity
  8
4
 62
     3
100
AcDbLine
 10
0.3861151485923528
 20
-0.2120707079186843
 30
0.0
 11
0.8733969536401673
 21
-0.2120707079186843
 31
0.0
  0
LINE
  5
8B
330
2
100
AcDbEntity
  8
4
 62
     3
100
AcDbLine
 10
0.3861151485923528
 20
-0.2248453985396566
 30
0.0
 11
0.8733969536401673
 21
-0.2248453985396566
 31
0.0
  0
LINE
  5
8C
330
2
100
AcDbEntity
  8
4
 62
     3
100
AcDbLine
 10
0.3861151485923528
 20
-0.2376200891602593
 30
0.0
 11
0.8733969536401673
 21
-0.2376200891602593
 31
0.0
  0
LINE
  5
8D
330
2
100
AcDbEntity
  8
4
 62
     3
100
AcDbLine
 10
0.3861151485923528
 20
-0.2503947797812316
 30
0.0
 11
0.8733969536401673
 21
-0.2503947797812316
 31
0.0
  0
LINE
  5
8E
330
2
100
AcDbEntity
  8
4
 62
     3
100
AcDbLine
 10
0.3861151485923528
 20
-0.2631694704018344
 30
0.0
 11
0.8733969536401673
 21
-0.2631694704018344
 31
0.0
  0
LINE
  5
8F
330
2
100
AcDbEntity
  8
4
 62
     3
100
AcDbLine
 10
0.3861151485923528
 20
-0.2887188516434094
 30
0.0
 11
0.8733969536401673
 21
-0.2887188516434094
 31
0.0
  0
TEXT
  5
90
330
2
100
AcDbEntity
  8
4
 62
     3
100
AcDbText
 10
0.4124746242347149
 20
-0.2724225589997797
 30
0.0
 40
0.0058066775549171
  1
INTERNAL LEAD TIP DIMENSIONS GIVEN ARE GIVEN VALUES
 41
0.9
  7
ROMANS
 72
     4
 11
0.5306819887455277
 21
-0.2695192202223211
 31
0.0
100
AcDbText
  0
LINE
  5
91
330
2
100
AcDbEntity
  8
4
 62
     3
100
AcDbLine
 10
0.3861151485923528
 20
-0.275944161022835
 30
0.0
 11
0.8733969536401673
 21
-0.275944161022835
 31
0.0
  0
TEXT
  5
92
330
2
100
AcDbEntity
  8
4
 62
     3
100
AcDbText
 10
0.7786272184603451
 20
-0.1700404408027396
 30
0.0
 40
0.0058066775549171
  1
-
 41
0.9
  7
ROMANS
 72
     4
 11
0.780866936945813
 21
-0.1675518647077752
 31
0.0
100
AcDbText
  0
TEXT
  5
93
330
2
100
AcDbEntity
  8
4
 62
     3
100
AcDbText
 10
0.7786272184603451
 20
-0.1828151314237119
 30
0.0
 40
0.0058066775549171
  1
-
 41
0.9
  7
ROMANS
 72
     4
 11
0.780866936945813
 21
-0.1803265553287474
 31
0.0
100
AcDbText
  0
TEXT
  5
94
330
2
100
AcDbEntity
  8
4
 62
     3
100
AcDbText
 10
0.7786272184603451
 20
-0.1955898220447125
 30
0.0
 40
0.0058066775549171
  1
-
 41
0.9
  7
ROMANS
 72
     4
 11
0.780866936945813
 21
-0.1931012459497481
 31
0.0
100
AcDbText
  0
TEXT
  5
95
330
2
100
AcDbEntity
  8
4
 62
     3
100
AcDbText
 10
0.8314036648983364
 20
-0.119084301422448
 30
0.0
 40
0.0058066775549171
  1
0.0060
 41
0.9
  7
ROMANS
 72
     4
 11
0.8443442605921518
 21
-0.1161809626449894
 31
0.0
100
AcDbText
  0
TEXT
  5
96
330
2
100
AcDbEntity
  8
4
 62
     3
100
AcDbText
 10
0.8319013801173294
 20
-0.1318589920434203
 30
0.0
 40
0.0058066775549171
  1
0.0010
 41
0.9
  7
ROMANS
 72
     4
 11
0.8443442605921518
 21
-0.1289556532659617
 31
0.0
100
AcDbText
  0
TEXT
  5
97
330
2
100
AcDbEntity
  8
4
 62
     3
100
AcDbText
 10
0.8314036648983364
 20
-0.1446336826639946
 30
0.0
 40
0.0058066775549171
  1
0.0020
 41
0.9
  7
ROMANS
 72
     4
 11
0.8443442605921518
 21
-0.141730343886536
 31
0.0
100
AcDbText
  0
TEXT
  5
98
330
2
100
AcDbEntity
  8
4
 62
     3
100
AcDbText
 10
0.8314036648983364
 20
-0.2468312076303231
 30
0.0
 40
0.0058066775549171
  1
0.0250
 41
0.9
  7
ROMANS
 72
     4
 11
0.8443442605921518
 21
-0.2439278688528645
 31
0.0
100
AcDbText
  0
TEXT
  5
99
330
2
100
AcDbEntity
  8
4
 62
     3
100
AcDbText
 10
0.8319013801173294
 20
-0.2212818263887481
 30
0.0
 40
0.0058066775549171
  1
0.0150
 41
0.9
  7
ROMANS
 72
     4
 11
0.8443442605921518
 21
-0.2183784876112895
 31
0.0
100
AcDbText
  0
TEXT
  5
9A
330
2
100
AcDbEntity
  8
4
 62
     3
100
AcDbText
 10
0.7649237918413997
 20
-0.2085071357677759
 30
0.0
 40
0.0058066775549171
  1
%%P0.0040
 41
0.9
  7
ROMANS
 72
     4
 11
0.7810995364586688
 21
-0.2056037969903173
 31
0.0
100
AcDbText
  0
TEXT
  5
9B
330
2
100
AcDbEntity
  8
4
 62
     3
100
AcDbText
 10
0.7789992646051207
 20
0.0982284317852702
 30
0.0
 40
0.0058066775549171
  1
-
 41
0.9
  7
ROMANS
 72
     4
 11
0.7812389830905886
 21
0.1007170078802346
 31
0.0
100
AcDbText
  0
TEXT
  5
9C
330
2
100
AcDbEntity
  8
4
 62
     3
100
AcDbText
 10
0.8416053267510806
 20
0.0982284317852702
 30
0.0
 40
0.0058066775549171
  1
-
 41
0.9
  7
ROMANS
 72
     4
 11
0.8438450452365486
 21
0.1007170078802346
 31
0.0
100
AcDbText
  0
TEXT
  5
9D
330
2
100
AcDbEntity
  8
4
 62
     3
100
AcDbText
 10
0.7789992646051207
 20
0.1110031224062424
 30
0.0
 40
0.0058066775549171
  1
-
 41
0.9
  7
ROMANS
 72
     4
 11
0.7812389830905886
 21
0.1134916985012069
 31
0.0
100
AcDbText
  0
TEXT
  5
9E
330
2
100
AcDbEntity
  8
4
 62
     3
100
AcDbText
 10
0.8416053267510806
 20
0.1110031224062424
 30
0.0
 40
0.0058066775549171
  1
-
 41
0.9
  7
ROMANS
 72
     4
 11
0.8438450452365486
 21
0.1134916985012069
 31
0.0
100
AcDbText
  0
TEXT
  5
9F
330
2
100
AcDbEntity
  8
4
 62
     3
100
AcDbText
 10
0.7789992646051207
 20
0.1237778130272715
 30
0.0
 40
0.0058066775549171
  1
-
 41
0.9
  7
ROMANS
 72
     4
 11
0.7812389830905886
 21
0.126266389122236
 31
0.0
100
AcDbText
  0
TEXT
  5
A0
330
2
100
AcDbEntity
  8
4
 62
     3
100
AcDbText
 10
0.8416053267510806
 20
0.1237778130272715
 30
0.0
 40
0.0058066775549171
  1
-
 41
0.9
  7
ROMANS
 72
     4
 11
0.8438450452365486
 21
0.126266389122236
 31
0.0
100
AcDbText
  0
TEXT
  5
A1
330
2
100
AcDbEntity
  8
4
 62
     3
100
AcDbText
 10
0.7789992646051207
 20
0.1365525036478459
 30
0.0
 40
0.0058066775549171
  1
-
 41
0.9
  7
ROMANS
 72
     4
 11
0.7812389830905886
 21
0.1390410797428103
 31
0.0
100
AcDbText
  0
TEXT
  5
A2
330
2
100
AcDbEntity
  8
4
 62
     3
100
AcDbText
 10
0.8416053267510806
 20
0.1365525036478459
 30
0.0
 40
0.0058066775549171
  1
-
 41
0.9
  7
ROMANS
 72
     4
 11
0.8438450452365486
 21
0.1390410797428103
 31
0.0
100
AcDbText
  0
TEXT
  5
A3
330
2
100
AcDbEntity
  8
4
 62
     3
100
AcDbText
 10
0.7789992646051207
 20
-0.0039690700839004
 30
0.0
 40
0.0058066775549171
  1
-
 41
0.9
  7
ROMANS
 72
     4
 11
0.7812389830905886
 21
-0.0014804939889359
 31
0.0
100
AcDbText
  0
TEXT
  5
A4
330
2
100
AcDbEntity
  8
4
 62
     3
100
AcDbText
 10
0.7789992646051207
 20
-0.0167437607048726
 30
0.0
 40
0.0058066775549171
  1
-
 41
0.9
  7
ROMANS
 72
     4
 11
0.7812389830905886
 21
-0.0142551846099082
 31
0.0
100
AcDbText
  0
TEXT
  5
A5
330
2
100
AcDbEntity
  8
4
 62
     3
100
AcDbText
 10
0.7194552279582087
 20
-0.0167437607048726
 30
0.0
 40
0.0058066775549171
  1
-
 41
0.9
  7
ROMANS
 72
     4
 11
0.7216949464436766
 21
-0.0142551846099082
 31
0.0
100
AcDbText
  0
TEXT
  5
A6
330
2
100
AcDbEntity
  8
4
 62
     3
100
AcDbText
 10
0.7194552279582087
 20
-0.0039690700839004
 30
0.0
 40
0.0058066775549171
  1
-
 41
0.9
  7
ROMANS
 72
     4
 11
0.7216949464436766
 21
-0.0014804939889359
 31
0.0
100
AcDbText
  0
TEXT
  5
A7
330
2
100
AcDbEntity
  8
4
 62
     7
100
AcDbText
 10
0.7127197561591008
 20
0.1876024835384486
 30
0.0
 40
0.0069680130659006
  1
MIN.
 41
0.9
  7
ROMANS
 72
     4
 11
0.7210813718381815
 21
0.1910864900713989
 31
0.0
100
AcDbText
  0
LINE
  5
A8
330
2
100
AcDbEntity
  8
4
 62
     3
100
AcDbLine
 10
0.3861151485926939
 20
0.0050994252829355
 30
0.0
 11
0.8733969536405083
 21
0.0050994252829355
 31
0.0
  0
TEXT
  5
A9
330
2
100
AcDbEntity
  8
4
 62
     3
100
AcDbText
 10
0.7069455999303973
 20
0.1747339524075631
 30
0.0
 40
0.0058066775549171
  1
0.0077
 41
0.9
  7
ROMANS
 72
     4
 11
0.7198861956242127
 21
0.1776372911850217
 31
0.0
100
AcDbText
  0
TEXT
  5
AA
330
2
100
AcDbEntity
  8
4
 62
     3
100
AcDbText
 10
0.3954832730970523
 20
0.1748884611923234
 30
0.0
 40
0.0058066775549171
  1
1
 41
0.9
  7
ROMANS
 72
     4
 11
0.3961054171207934
 21
0.177791799969782
 31
0.0
100
AcDbText
  0
TEXT
  5
AB
330
2
100
AcDbEntity
  8
4
 62
     3
100
AcDbText
 10
0.412430070734029
 20
0.0090357668917249
 30
0.0
 40
0.0058066775549171
  1
LOCK/ANCHOR HOLE
 41
0.9
  7
ROMANS
 72
     4
 11
0.45299386108195
 21
0.0115243429866894
 31
0.0
100
AcDbText
  0
TEXT
  5
AC
330
2
100
AcDbEntity
  8
4
 62
     7
100
AcDbText
 10
0.834752254338294
 20
0.1876665673914532
 30
0.0
 40
0.0069680130659006
  1
MAX.
 41
0.9
  7
ROMANS
 72
     4
 11
0.844905644805749
 21
0.1911505739244035
 31
0.0
100
AcDbText
  0
TEXT
  5
AD
330
2
100
AcDbEntity
  8
4
 62
     7
100
AcDbText
 10
0.7701381687846342
 20
0.1875383996851029
 30
0.0
 40
0.0069680130659006
  1
NOM.
 41
0.9
  7
ROMANS
 72
     4
 11
0.780590188383485
 21
0.1910224062180532
 31
0.0
100
AcDbText
  0
LWPOLYLINE
  5
AE
330
2
100
AcDbEntity
  8
4
 62
     7
100
AcDbPolyline
 90
        2
 70
     0
 43
0.0005806677554917
 10
0.8733969536401673
 20
-0.3014934960704636
 10
0.8733969536405083
 20
0.199091800574223
  0
LWPOLYLINE
  5
AF
330
2
100
AcDbEntity
  8
4
 62
     7
100
AcDbPolyline
 90
        2
 70
     0
 43
0.0005806677554917
 10
0.3861151485923528
 20
-0.3014934960704636
 10
0.3861151485926939
 20
0.199091800574223
  0
LWPOLYLINE
  5
B0
330
2
100
AcDbEntity
  8
4
 62
     7
100
AcDbPolyline
 90
        2
 70
     0
 43
0.0005806677554917
 10
0.3861151485926939
 20
0.199091800574223
 10
0.8733969536405083
 20
0.199091800574223
  0
LINE
  5
B1
330
2
100
AcDbEntity
  8
4
 62
     3
100
AcDbLine
 10
0.3861151485926939
 20
0.1839450708772574
 30
0.0
 11
0.8733969536405083
 21
0.1839450708772574
 31
0.0
  0
LINE
  5
B2
330
2
100
AcDbEntity
  8
4
 62
     3
100
AcDbLine
 10
0.3861151485926939
 20
0.0945222365315317
 30
0.0
 11
0.8733969536405083
 21
0.0945222365315317
 31
0.0
  0
LINE
  5
B3
330
2
100
AcDbEntity
  8
4
 62
     3
100
AcDbLine
 10
0.3861151485926939
 20
-0.0076752653376388
 30
0.0
 11
0.8733969536405083
 21
-0.0076752653376388
 31
0.0
  0
LINE
  5
B4
330
2
100
AcDbEntity
  8
4
 62
     3
100
AcDbLine
 10
0.3861151485926939
 20
0.0178740928071477
 30
0.0
 11
0.8733969536405083
 21
0.0178740928071477
 31
0.0
  0
LINE
  5
B5
330
2
100
AcDbEntity
  8
4
 62
     3
100
AcDbLine
 10
0.3861151485926939
 20
0.0306487834281484
 30
0.0
 11
0.8733969536405083
 21
0.0306487834281484
 31
0.0
  0
LINE
  5
B6
330
2
100
AcDbEntity
  8
4
 62
     3
100
AcDbLine
 10
0.3861151485926939
 20
0.0434234740487227
 30
0.0
 11
0.8733969536405083
 21
0.0434234740487227
 31
0.0
  0
LINE
  5
B7
330
2
100
AcDbEntity
  8
4
 62
     3
100
AcDbLine
 10
0.3861151485926939
 20
0.0561981646697234
 30
0.0
 11
0.8733969536405083
 21
0.0561981646697234
 31
0.0
  0
LINE
  5
B8
330
2
100
AcDbEntity
  8
4
 62
     3
100
AcDbLine
 10
0.3861151485926939
 20
0.0689728552903262
 30
0.0
 11
0.8733969536405083
 21
0.0689728552903262
 31
0.0
  0
LINE
  5
B9
330
2
100
AcDbEntity
  8
4
 62
     3
100
AcDbLine
 10
0.4061667205012327
 20
-0.3014934960704636
 30
0.0
 11
0.4061667205014601
 21
0.199091800574223
 31
0.0
  0
TEXT
  5
BA
330
2
100
AcDbEntity
  8
4
 62
     3
100
AcDbText
 10
0.3943634138543183
 20
0.0981434403392701
 30
0.0
 40
0.0058066775549171
  1
7
 41
0.9
  7
ROMANS
 72
     4
 11
0.3961054171207934
 21
0.1010467791167287
 31
0.0
100
AcDbText
  0
TEXT
  5
BB
330
2
100
AcDbEntity
  8
4
 62
     3
100
AcDbText
 10
0.3944878426590665
 20
0.1108267860482773
 30
0.0
 40
0.0058066775549171
  1
6
 41
0.9
  7
ROMANS
 72
     4
 11
0.3961054171207934
 21
0.1137301248257359
 31
0.0
100
AcDbText
  0
TEXT
  5
BC
330
2
100
AcDbEntity
  8
4
 62
     3
100
AcDbText
 10
0.3943634138543183
 20
0.1242713393562543
 30
0.0
 40
0.0058066775549171
  1
5
 41
0.9
  7
ROMANS
 72
     4
 11
0.3961054171207934
 21
0.1271746781337129
 31
0.0
100
AcDbText
  0
TEXT
  5
BD
330
2
100
AcDbEntity
  8
4
 62
     3
100
AcDbText
 10
0.4124710923845151
 20
-0.0172510296421262
 30
0.0
 40
0.0058066775549171
  1
COIL SET
 41
0.9
  7
ROMANS
 72
     4
 11
0.4298911250492666
 21
-0.0143476908646676
 31
0.0
100
AcDbText
  0
TEXT
  5
BE
330
2
100
AcDbEntity
  8
4
 62
     3
100
AcDbText
 10
0.4124189600539847
 20
-0.0044973683617979
 30
0.0
 40
0.0058066775549171
  1
MISALIGNMENT
 41
0.9
  7
ROMANS
 72
     4
 11
0.4399177259033423
 21
-0.0015940295843393
 31
0.0
100
AcDbText
  0
TEXT
  5
BF
330
2
100
AcDbEntity
  8
4
 62
     3
100
AcDbText
 10
0.4124136639891259
 20
0.021406555972617
 30
0.0
 40
0.0058066775549171
  1
CUMULATIVE PITCH
 41
0.9
  7
ROMANS
 72
     4
 11
0.4489957325851038
 21
0.0243098947500755
 31
0.0
100
AcDbText
  0
TEXT
  5
C0
330
2
100
AcDbEntity
  8
4
 62
     3
100
AcDbText
 10
0.4124325574911735
 20
0.0342286302735023
 30
0.0
 40
0.0058066775549171
  1
UNIT PITCH
 41
0.9
  7
ROMANS
 72
     4
 11
0.4337098831031199
 21
0.0371319690509608
 31
0.0
100
AcDbText
  0
TEXT
  5
C1
330
2
100
AcDbEntity
  8
4
 62
     3
100
AcDbText
 10
0.4124859821827333
 20
0.0470033208944745
 30
0.0
 40
0.0058066775549171
  1
STRIP WIDTH
 41
0.9
  7
ROMANS
 72
     4
 11
0.4363763126943923
 21
0.0499066596719331
 31
0.0
100
AcDbText
  0
TEXT
  5
C2
330
2
100
AcDbEntity
  8
4
 62
     3
100
AcDbText
 10
0.4124810817369004
 20
0.0597780115150773
 30
0.0
 40
0.0058066775549171
  1
STRIP LENGTH
 41
0.9
  7
ROMANS
 72
     4
 11
0.4396065611720133
 21
0.0626813502925359
 31
0.0
100
AcDbText
  0
TEXT
  5
C3
330
2
100
AcDbEntity
  8
4
 62
     3
100
AcDbText
 10
0.4126512516644086
 20
0.072967464818572
 30
0.0
 40
0.0058066775549171
  1
PAD SIZE (X/Y)
 41
0.9
  7
ROMANS
 72
     4
 11
0.444007310460961
 21
0.0754560409135365
 31
0.0
100
AcDbText
  0
TEXT
  5
C4
330
2
100
AcDbEntity
  8
4
 62
     3
100
AcDbText
 10
0.4124108440258794
 20
0.0981020833772835
 30
0.0
 40
0.0058066775549171
  1
MIN. LEAD SPACE AFTER PLATE
 41
0.9
  7
ROMANS
 72
     4
 11
0.4759939632522219
 21
0.1010054221547421
 31
0.0
100
AcDbText
  0
TEXT
  5
C5
330
2
100
AcDbEntity
  8
4
 62
     3
100
AcDbText
 10
0.412431437397901
 20
0.1108767739982557
 30
0.0
 40
0.0058066775549171
  1
MIN. LEAD SPACE AFTER ETCH
 41
0.9
  7
ROMANS
 72
     4
 11
0.4736504093340273
 21
0.1137801127757143
 31
0.0
100
AcDbText
  0
TEXT
  5
C6
330
2
100
AcDbEntity
  8
4
 62
     3
100
AcDbText
 10
0.412398485964167
 20
0.1236514646188301
 30
0.0
 40
0.0058066775549171
  1
M TO M CLEARANCE AFTER ETCH
 41
0.9
  7
ROMANS
 72
     4
 11
0.4792167541139634
 21
0.1265548033962887
 31
0.0
100
AcDbText
  0
TEXT
  5
C7
330
2
100
AcDbEntity
  8
4
 62
     3
100
AcDbText
 10
0.4124811652476737
 20
0.1492008458604335
 30
0.0
 40
0.0058066775549171
  1
EXTERNAL LEAD WIDTH
 41
0.9
  7
ROMANS
 72
     4
 11
0.4572755349570344
 21
0.1521041846378921
 31
0.0
100
AcDbText
  0
TEXT
  5
C8
330
2
100
AcDbEntity
  8
4
 62
     3
100
AcDbText
 10
0.3943634138543183
 20
0.149194587756482
 30
0.0
 40
0.0058066775549171
  1
3
 41
0.9
  7
ROMANS
 72
     4
 11
0.3961054171207934
 21
0.1520979265339406
 31
0.0
100
AcDbText
  0
LINE
  5
C9
330
2
100
AcDbEntity
  8
4
 62
     3
100
AcDbLine
 10
0.3861151485926939
 20
0.1456209990150796
 30
0.0
 11
0.8733969536405083
 21
0.1456209990150796
 31
0.0
  0
LINE
  5
CA
330
2
100
AcDbEntity
  8
4
 62
     3
100
AcDbLine
 10
0.3861151485926939
 20
0.132846308394079
 30
0.0
 11
0.8733969536405083
 21
0.132846308394079
 31
0.0
  0
LINE
  5
CB
330
2
100
AcDbEntity
  8
4
 62
     3
100
AcDbLine
 10
0.3861151485926939
 20
0.1200716177734762
 30
0.0
 11
0.8733969536405083
 21
0.1200716177734762
 31
0.0
  0
LINE
  5
CC
330
2
100
AcDbEntity
  8
4
 62
     3
100
AcDbLine
 10
0.3861151485926939
 20
0.1072969271525039
 30
0.0
 11
0.8733969536405083
 21
0.1072969271525039
 31
0.0
  0
LINE
  5
CD
330
2
100
AcDbEntity
  8
4
 62
     3
100
AcDbLine
 10
0.3861151485926939
 20
0.158395689635654
 30
0.0
 11
0.8733969536405083
 21
0.158395689635654
 31
0.0
  0
TEXT
  5
CE
330
2
100
AcDbEntity
  8
4
 62
     3
100
AcDbText
 10
0.4124635866093299
 20
0.1364261552398307
 30
0.0
 40
0.0058066775549171
  1
LEAD TIP FLAT WIDTH 
 41
0.9
  7
ROMANS
 72
     4
 11
0.4585022443661729
 21
0.1393294940172893
 31
0.0
100
AcDbText
  0
TEXT
  5
CF
330
2
100
AcDbEntity
  8
4
 62
     3
100
AcDbText
 10
0.39423898504957
 20
0.1364680612005021
 30
0.0
 40
0.0058066775549171
  1
4
 41
0.9
  7
ROMANS
 72
     4
 11
0.3961054171207934
 21
0.1393713999779607
 31
0.0
100
AcDbText
  0
TEXT
  5
D0
330
2
100
AcDbEntity
  8
4
 62
     3
100
AcDbText
 10
0.4124819814829776
 20
0.174750227102378
 30
0.0
 40
0.0058066775549171
  1
MATERIAL THICKNESS - 
 41
0.9
  7
ROMANS
 72
     4
 11
0.4628756474060083
 21
0.1776535658798366
 31
0.0
100
AcDbText
  0
TEXT
  5
D1
330
2
100
AcDbEntity
  8
4
 62
     3
100
AcDbText
 10
0.3943634138543183
 20
0.1621137705713512
 30
0.0
 40
0.0058066775549171
  1
2
 41
0.9
  7
ROMANS
 72
     4
 11
0.3961054171207934
 21
0.1650171093488097
 31
0.0
100
AcDbText
  0
LINE
  5
D2
330
2
100
AcDbEntity
  8
4
 62
     3
100
AcDbLine
 10
0.3861151485926939
 20
0.1711703802566546
 30
0.0
 11
0.8733969536405083
 21
0.1711703802566546
 31
0.0
  0
TEXT
  5
D3
330
2
100
AcDbEntity
  8
4
 62
     3
100
AcDbText
 10
0.4124817033414923
 20
0.1622448620804267
 30
0.0
 40
0.0058066775549171
  1
PILOT HOLE DIAMETER
 41
0.9
  7
ROMANS
 72
     4
 11
0.4559073561986225
 21
0.1651482008578853
 31
0.0
100
AcDbText
  0
TEXT
  5
D4
330
2
100
AcDbEntity
  8
4
 62
     7
100
AcDbText
 10
0.3889920831266172
 20
0.2060240740729789
 30
0.0
 40
0.0084611587228792
  1
NOTES :
 41
0.9
  7
ROMANS
 72
     4
 11
0.4111119695021444
 21
0.2102546534344185
 31
0.0
100
AcDbText
  0
LWPOLYLINE
  5
D5
330
2
100
AcDbEntity
  8
4
 62
     7
100
AcDbPolyline
 90
        2
 70
     0
 43
0.0005806677554917
 10
0.8119269639963704
 20
-0.0204499328614816
 10
0.8119269639963704
 20
0.199091800574223
  0
TEXT
  5
D6
330
2
100
AcDbEntity
  8
4
 62
     3
100
AcDbText
 10
0.7069455999303973
 20
0.1619592617865909
 30
0.0
 40
0.0058066775549171
  1
0.0600
 41
0.9
  7
ROMANS
 72
     4
 11
0.7198861956242127
 21
0.1648626005640494
 31
0.0
100
AcDbText
  0
TEXT
  5
D7
330
2
100
AcDbEntity
  8
4
 62
     3
100
AcDbText
 10
0.7069455999303973
 20
0.1491845711659597
 30
0.0
 40
0.0058066775549171
  1
0.0090
 41
0.9
  7
ROMANS
 72
     4
 11
0.7198861956242127
 21
0.1520879099434182
 31
0.0
100
AcDbText
  0
TEXT
  5
D8
330
2
100
AcDbEntity
  8
4
 62
     3
100
AcDbText
 10
0.7068211711256492
 20
0.1364098805449874
 30
0.0
 40
0.0058066775549171
  1
0.0064
 41
0.9
  7
ROMANS
 72
     4
 11
0.7198861956242127
 21
0.139313219322446
 31
0.0
100
AcDbText
  0
TEXT
  5
D9
330
2
100
AcDbEntity
  8
4
 62
     3
100
AcDbText
 10
0.7070700287351456
 20
0.1236351899244131
 30
0.0
 40
0.0058066775549171
  1
0.0039
 41
0.9
  7
ROMANS
 72
     4
 11
0.7198861956242127
 21
0.1265385287018716
 31
0.0
100
AcDbText
  0
TEXT
  5
DA
330
2
100
AcDbEntity
  8
4
 62
     3
100
AcDbText
 10
0.7070700287351456
 20
0.1108604993034124
 30
0.0
 40
0.0058066775549171
  1
0.0039
 41
0.9
  7
ROMANS
 72
     4
 11
0.7198861956242127
 21
0.113763838080871
 31
0.0
100
AcDbText
  0
TEXT
  5
DB
330
2
100
AcDbEntity
  8
4
 62
     3
100
AcDbText
 10
0.7069455999303973
 20
0.0980858086824402
 30
0.0
 40
0.0058066775549171
  1
0.0035
 41
0.9
  7
ROMANS
 72
     4
 11
0.7198861956242127
 21
0.1009891474598987
 31
0.0
100
AcDbText
  0
TEXT
  5
DC
330
2
100
AcDbEntity
  8
4
 62
     3
100
AcDbText
 10
0.6913360132273115
 20
0.0727625094891493
 30
0.0
 40
0.0058066775549171
  1
0.1380/0.0940
 41
0.9
  7
ROMANS
 72
     4
 11
0.7202034959288995
 21
0.0752510855841138
 31
0.0
100
AcDbText
  0
TEXT
  5
DD
330
2
100
AcDbEntity
  8
4
 62
     3
100
AcDbText
 10
0.7069455999303973
 20
0.0597617368206319
 30
0.0
 40
0.0058066775549171
  1
8.4560
 41
0.9
  7
ROMANS
 72
     4
 11
0.7198861956242127
 21
0.0626650755980904
 31
0.0
100
AcDbText
  0
TEXT
  5
DE
330
2
100
AcDbEntity
  8
4
 62
     3
100
AcDbText
 10
0.7074433151493902
 20
0.0469870461996596
 30
0.0
 40
0.0058066775549171
  1
1.6980
 41
0.9
  7
ROMANS
 72
     4
 11
0.7198861956242127
 21
0.0498903849771182
 31
0.0
100
AcDbText
  0
TEXT
  5
DF
330
2
100
AcDbEntity
  8
4
 62
     3
100
AcDbText
 10
0.7069455999303973
 20
0.0342123555790569
 30
0.0
 40
0.0058066775549171
  1
0.5290
 41
0.9
  7
ROMANS
 72
     4
 11
0.7198861956242127
 21
0.0371156943565154
 31
0.0
100
AcDbText
  0
TEXT
  5
E0
330
2
100
AcDbEntity
  8
4
 62
     3
100
AcDbText
 10
0.7069455999303973
 20
0.0214376649580562
 30
0.0
 40
0.0058066775549171
  1
7.9480
 41
0.9
  7
ROMANS
 72
     4
 11
0.7198861956242127
 21
0.0243410037355147
 31
0.0
100
AcDbText
  0
TEXT
  5
E1
330
2
100
AcDbEntity
  8
4
 62
     3
100
AcDbText
 10
0.7689133047935282
 20
0.1491845711659597
 30
0.0
 40
0.0058066775549171
  1
0.0100
 41
0.9
  7
ROMANS
 72
     4
 11
0.7813561852683506
 21
0.1520879099434182
 31
0.0
100
AcDbText
  0
TEXT
  5
E2
330
2
100
AcDbEntity
  8
4
 62
     3
100
AcDbText
 10
0.7689133047935282
 20
0.1619592617865909
 30
0.0
 40
0.0058066775549171
  1
0.0610
 41
0.9
  7
ROMANS
 72
     4
 11
0.7813561852683506
 21
0.1648626005640494
 31
0.0
100
AcDbText
  0
TEXT
  5
E3
330
2
100
AcDbEntity
  8
4
 62
     3
100
AcDbText
 10
0.7684155895745353
 20
0.1747339524075631
 30
0.0
 40
0.0058066775549171
  1
0.0080
 41
0.9
  7
ROMANS
 72
     4
 11
0.7813561852683506
 21
0.1776372911850217
 31
0.0
100
AcDbText
  0
TEXT
  5
E4
330
2
100
AcDbEntity
  8
4
 62
     3
100
AcDbText
 10
0.830881009656659
 20
0.1491845711659597
 30
0.0
 40
0.0058066775549171
  1
0.0110
 41
0.9
  7
ROMANS
 72
     4
 11
0.8428261749124885
 21
0.1520879099434182
 31
0.0
100
AcDbText
  0
TEXT
  5
E5
330
2
100
AcDbEntity
  8
4
 62
     3
100
AcDbText
 10
0.8298855792186731
 20
0.1619592617865909
 30
0.0
 40
0.0058066775549171
  1
0.0620
 41
0.9
  7
ROMANS
 72
     4
 11
0.8428261749124885
 21
0.1648626005640494
 31
0.0
100
AcDbText
  0
TEXT
  5
E6
330
2
100
AcDbEntity
  8
4
 62
     3
100
AcDbText
 10
0.8298855792186731
 20
0.1747339524075631
 30
0.0
 40
0.0058066775549171
  1
0.0083
 41
0.9
  7
ROMANS
 72
     4
 11
0.8428261749124885
 21
0.1776372911850217
 31
0.0
100
AcDbText
  0
TEXT
  5
E7
330
2
100
AcDbEntity
  8
4
 62
     3
100
AcDbText
 10
0.8298855792186731
 20
0.0214376649580562
 30
0.0
 40
0.0058066775549171
  1
7.9520
 41
0.9
  7
ROMANS
 72
     4
 11
0.8428261749124885
 21
0.0243410037355147
 31
0.0
100
AcDbText
  0
TEXT
  5
E8
330
2
100
AcDbEntity
  8
4
 62
     3
100
AcDbText
 10
0.8303832944376662
 20
0.0342123555790569
 30
0.0
 40
0.0058066775549171
  1
0.5310
 41
0.9
  7
ROMANS
 72
     4
 11
0.8428261749124885
 21
0.0371156943565154
 31
0.0
100
AcDbText
  0
TEXT
  5
E9
330
2
100
AcDbEntity
  8
4
 62
     3
100
AcDbText
 10
0.8303832944376662
 20
0.0469870461996596
 30
0.0
 40
0.0058066775549171
  1
1.7020
 41
0.9
  7
ROMANS
 72
     4
 11
0.8428261749124885
 21
0.0498903849771182
 31
0.0
100
AcDbText
  0
TEXT
  5
EA
330
2
100
AcDbEntity
  8
4
 62
     3
100
AcDbText
 10
0.8298855792186731
 20
0.0597617368206319
 30
0.0
 40
0.0058066775549171
  1
8.4640
 41
0.9
  7
ROMANS
 72
     4
 11
0.8428261749124885
 21
0.0626650755980904
 31
0.0
100
AcDbText
  0
TEXT
  5
EB
330
2
100
AcDbEntity
  8
4
 62
     3
100
AcDbText
 10
0.8139416076706824
 20
0.0727489280913402
 30
0.0
 40
0.0058066775549171
  1
0.1420/0.0980
 41
0.9
  7
ROMANS
 72
     4
 11
0.8428090903722704
 21
0.0752375041863047
 31
0.0
100
AcDbText
  0
TEXT
  5
EC
330
2
100
AcDbEntity
  8
4
 62
     3
100
AcDbText
 10
0.7684155895745353
 20
0.0214376649580562
 30
0.0
 40
0.0058066775549171
  1
7.9500
 41
0.9
  7
ROMANS
 72
     4
 11
0.7813561852683506
 21
0.0243410037355147
 31
0.0
100
AcDbText
  0
TEXT
  5
ED
330
2
100
AcDbEntity
  8
4
 62
     3
100
AcDbText
 10
0.7684155895745353
 20
0.0342123555790569
 30
0.0
 40
0.0058066775549171
  1
0.5300
 41
0.9
  7
ROMANS
 72
     4
 11
0.7813561852683506
 21
0.0371156943565154
 31
0.0
100
AcDbText
  0
TEXT
  5
EE
330
2
100
AcDbEntity
  8
4
 62
     3
100
AcDbText
 10
0.7689133047935282
 20
0.0469870461996596
 30
0.0
 40
0.0058066775549171
  1
1.7000
 41
0.9
  7
ROMANS
 72
     4
 11
0.7813561852683506
 21
0.0498903849771182
 31
0.0
100
AcDbText
  0
TEXT
  5
EF
330
2
100
AcDbEntity
  8
4
 62
     3
100
AcDbText
 10
0.7684155895745353
 20
0.0597617368206319
 30
0.0
 40
0.0058066775549171
  1
8.4600
 41
0.9
  7
ROMANS
 72
     4
 11
0.7813561852683506
 21
0.0626650755980904
 31
0.0
100
AcDbText
  0
TEXT
  5
F0
330
2
100
AcDbEntity
  8
4
 62
     3
100
AcDbText
 10
0.7531106672943056
 20
0.0726278445773516
 30
0.0
 40
0.0058066775549171
  1
0.1400/0.0960
 41
0.9
  7
ROMANS
 72
     4
 11
0.7819781499958936
 21
0.0751164206723161
 31
0.0
100
AcDbText
  0
TEXT
  5
F1
330
2
100
AcDbEntity
  8
4
 62
     3
100
AcDbText
 10
0.8298855792186731
 20
-0.0041116931867304
 30
0.0
 40
0.0058066775549171
  1
0.0008
 41
0.9
  7
ROMANS
 72
     4
 11
0.8428261749124885
 21
-0.0012083544092718
 31
0.0
100
AcDbText
  0
TEXT
  5
F2
330
2
100
AcDbEntity
  8
4
 62
     3
100
AcDbText
 10
0.8298855792186731
 20
-0.0168863838077311
 30
0.0
 40
0.0058066775549171
  1
0.0200
 41
0.9
  7
ROMANS
 72
     4
 11
0.8428261749124885
 21
-0.0139830450302725
 31
0.0
100
AcDbText
  0
LWPOLYLINE
  5
F3
330
2
100
AcDbEntity
  8
4
 62
     7
100
AcDbPolyline
 90
        2
 70
     0
 43
0.0005806677554917
 10
0.3861151485923528
 20
-0.3014934960704636
 10
0.8733969536401673
 20
-0.3014934960704636
  0
TEXT
  5
F4
330
2
100
AcDbEntity
  8
4
 62
     3
100
AcDbText
 10
0.412478404244118
 20
-0.2980111178836193
 30
0.0
 40
0.0058066775549171
  1
STRIP NUMBER TO BE ADDED ON STRIP
 41
0.9
  7
ROMANS
 72
     4
 11
0.4921128392829815
 21
-0.2951077791061607
 31
0.0
100
AcDbText
  0
LINE
  5
F5
330
2
100
AcDbEntity
  8
4
 62
     3
100
AcDbLine
 10
0.3861151485926939
 20
-0.0204499328614816
 30
0.0
 11
0.8733969536405083
 21
-0.0204499328614816
 31
0.0
  0
TEXT
  5
F6
330
2
100
AcDbEntity
  8
4
 62
     3
100
AcDbText
 10
0.7786272184607998
 20
-0.0422932805291965
 30
0.0
 40
0.0058066775549171
  1
-
 41
0.9
  7
ROMANS
 72
     4
 11
0.7808669369462678
 21
-0.039804704434232
 31
0.0
100
AcDbText
  0
TEXT
  5
F7
330
2
100
AcDbEntity
  8
4
 62
     3
100
AcDbText
 10
0.7786272184606861
 20
-0.0295183589383783
 30
0.0
 40
0.0058066775549171
  1
-
 41
0.9
  7
ROMANS
 72
     4
 11
0.7808669369461541
 21
-0.0270297828434139
 31
0.0
100
AcDbText
  0
TEXT
  5
F8
330
2
100
AcDbEntity
  8
4
 62
     3
100
AcDbText
 10
0.7786272184606861
 20
-0.0550676708888774
 30
0.0
 40
0.0058066775549171
  1
-
 41
0.9
  7
ROMANS
 72
     4
 11
0.7808669369461541
 21
-0.0525790947939129
 31
0.0
100
AcDbText
  0
LWPOLYLINE
  5
F9
330
2
100
AcDbEntity
  8
4
 62
     7
100
AcDbPolyline
 90
        2
 70
     0
 43
0.0005806677554917
 10
0.6889869847077535
 20
-0.2503947797812316
 10
0.6889869847076398
 20
-0.0970980765866045
  0
LWPOLYLINE
  5
FA
330
2
100
AcDbEntity
  8
4
 62
     3
100
AcDbPolyline
 90
        2
 70
     0
 43
0.0005806677554917
 10
0.6889869847076398
 20
-0.071548325793799
 10
0.6889869847079808
 20
-0.0204498635715424
  0
LWPOLYLINE
  5
FB
330
2
100
AcDbEntity
  8
4
 62
     7
100
AcDbPolyline
 90
        2
 70
     0
 43
0.0005806677554917
 10
0.7504569743518914
 20
-0.2503947797812316
 10
0.7504569743517778
 20
-0.0970980765866045
  0
LWPOLYLINE
  5
FC
330
2
100
AcDbEntity
  8
4
 62
     3
100
AcDbPolyline
 90
        2
 70
     0
 43
0.0005806677554917
 10
0.7504569743517778
 20
-0.071548325793799
 10
0.7504569743521188
 20
-0.0204498635715424
  0
LWPOLYLINE
  5
FD
330
2
100
AcDbEntity
  8
4
 62
     7
100
AcDbPolyline
 90
        2
 70
     0
 43
0.0005806677554917
 10
0.8119269639960293
 20
-0.2503947797812316
 10
0.8119269639960293
 20
-0.0970980765866045
  0
LWPOLYLINE
  5
FE
330
2
100
AcDbEntity
  8
4
 62
     3
100
AcDbPolyline
 90
        2
 70
     0
 43
0.0005806677554917
 10
0.8119269639960293
 20
-0.071548325793799
 10
0.8119269639963704
 20
-0.0204498635715424
  0
LINE
  5
FF
330
2
100
AcDbEntity
  8
4
 62
     3
100
AcDbLine
 10
0.3861151485928076
 20
-0.0332247851619627
 30
0.0
 11
0.8733969536407357
 21
-0.0332247851619627
 31
0.0
  0
LINE
  5
100
330
2
100
AcDbEntity
  8
4
 62
     3
100
AcDbLine
 10
0.3861151485926939
 20
-0.0459991755220415
 30
0.0
 11
0.8733969536405083
 21
-0.0459991755220415
 31
0.0
  0
TEXT
  5
101
330
2
100
AcDbEntity
  8
4
 62
     3
100
AcDbText
 10
0.412364146249599
 20
-0.0294599800903542
 30
0.0
 40
0.0058066775549171
  1
PLATING AREA (PAD CENTER REF.) : XR
 41
0.9
  7
ROMANS
 72
     4
 11
0.493989442164434
 21
-0.0269714039953897
 31
0.0
100
AcDbText
  0
TEXT
  5
102
330
2
100
AcDbEntity
  8
4
 62
     3
100
AcDbText
 10
0.5586995725791784
 20
-0.04307244366865
 30
0.0
 40
0.0058066775549171
  1
: XL
 41
0.9
  7
ROMANS
 72
     4
 11
0.5669118736925612
 21
-0.0401691048911914
 31
0.0
100
AcDbText
  0
TEXT
  5
103
330
2
100
AcDbEntity
  8
4
 62
     3
100
AcDbText
 10
0.5584507149694545
 20
-0.0551220511806616
 30
0.0
 40
0.0058066775549171
  1
: YH
 41
0.9
  7
ROMANS
 72
     4
 11
0.5669118736923338
 21
-0.052218712403203
 31
0.0
100
AcDbText
  0
LINE
  5
104
330
2
100
AcDbEntity
  8
4
 62
     3
100
AcDbLine
 10
0.3861151485923528
 20
-0.071548325793799
 30
0.0
 11
0.8733969536399399
 21
-0.071548325793799
 31
0.0
  0
LINE
  5
105
330
2
100
AcDbEntity
  8
4
 62
     3
100
AcDbLine
 10
0.3861151485923528
 20
-0.0587736120758677
 30
0.0
 11
0.8733969536399399
 21
-0.0587736120758677
 31
0.0
  0
TEXT
  5
106
330
2
100
AcDbEntity
  8
4
 62
     3
100
AcDbText
 10
0.5586995725787237
 20
-0.068319361796399
 30
0.0
 40
0.0058066775549171
  1
: YL
 41
0.9
  7
ROMANS
 72
     4
 11
0.5669118736921064
 21
-0.0654160230189405
 31
0.0
100
AcDbText
  0
LINE
  5
107
330
2
100
AcDbEntity
  8
4
 62
     3
100
AcDbLine
 10
0.3861151485923528
 20
-0.0970980765868035
 30
0.0
 11
0.8733969536399399
 21
-0.0970980765868035
 31
0.0
  0
TEXT
  5
108
330
2
100
AcDbEntity
  8
4
 62
     3
100
AcDbText
 10
0.3947890759781211
 20
0.0853348384470668
 30
0.0
 40
0.0058066775549171
  1
8
 41
0.9
  7
ROMANS
 72
     4
 11
0.3965310792445962
 21
0.0882381772245253
 31
0.0
100
AcDbText
  0
TEXT
  5
109
330
2
100
AcDbEntity
  8
4
 62
     3
100
AcDbText
 10
0.3918748377590127
 20
-0.1190257974093366
 30
0.0
 40
0.0058066775549171
  1
20
 41
0.9
  7
ROMANS
 72
     4
 11
0.3961054171204523
 21
-0.1161224586318781
 31
0.0
100
AcDbText
  0
TEXT
  5
10A
330
2
100
AcDbEntity
  8
4
 62
     3
100
AcDbText
 10
0.3924969817827538
 20
-0.1062992708533567
 30
0.0
 40
0.0058066775549171
  1
19
 41
0.9
  7
ROMANS
 72
     4
 11
0.3961054171204523
 21
-0.1033959320758981
 31
0.0
100
AcDbText
  0
TEXT
  5
10B
330
2
100
AcDbEntity
  8
4
 62
     3
100
AcDbText
 10
0.3929946970017467
 20
-0.1312225192535845
 30
0.0
 40
0.0058066775549171
  1
21
 41
0.9
  7
ROMANS
 72
     4
 11
0.3961054171204523
 21
-0.1283191804761259
 31
0.0
100
AcDbText
  0
TEXT
  5
10C
330
2
100
AcDbEntity
  8
4
 62
     3
100
AcDbText
 10
0.3918748377590127
 20
-0.1446670725615615
 30
0.0
 40
0.0058066775549171
  1
22
 41
0.9
  7
ROMANS
 72
     4
 11
0.3961054171204523
 21
-0.1417637337841029
 31
0.0
100
AcDbText
  0
TEXT
  5
10D
330
2
100
AcDbEntity
  8
4
 62
     3
100
AcDbText
 10
0.3918748377590127
 20
-0.1573504182705403
 30
0.0
 40
0.0058066775549171
  1
23
 41
0.9
  7
ROMANS
 72
     4
 11
0.3961054171204523
 21
-0.1544470794930817
 31
0.0
100
AcDbText
  0
TEXT
  5
10E
330
2
100
AcDbEntity
  8
4
 62
     3
100
AcDbText
 10
0.3921760710780673
 20
-0.1700201657076274
 30
0.0
 40
0.0058066775549171
  1
24
 41
0.9
  7
ROMANS
 72
     4
 11
0.3965310792442551
 21
-0.1671168269301688
 31
0.0
100
AcDbText
  0
TEXT
  5
10F
330
2
100
AcDbEntity
  8
4
 62
     3
100
AcDbText
 10
0.3923004998828155
 20
-0.1829337107298567
 30
0.0
 40
0.0058066775549171
  1
25
 41
0.9
  7
ROMANS
 72
     4
 11
0.3965310792442551
 21
-0.1800303719523981
 31
0.0
100
AcDbText
  0
TEXT
  5
110
330
2
100
AcDbEntity
  8
4
 62
     3
100
AcDbText
 10
0.3918824059169482
 20
-0.1956391589257588
 30
0.0
 40
0.0058066775549171
  1
26
 41
0.9
  7
ROMANS
 72
     4
 11
0.3959885564736396
 21
-0.1927358201483002
 31
0.0
100
AcDbText
  0
TEXT
  5
111
330
2
100
AcDbEntity
  8
4
 62
     3
100
AcDbText
 10
0.3909471012801695
 20
-0.2084262653597204
 30
0.0
 40
0.0058066775549171
  1
27
 41
0.9
  7
ROMANS
 72
     4
 11
0.3951776806416092
 21
-0.2055229265822618
 31
0.0
100
AcDbText
  0
TEXT
  5
112
330
2
100
AcDbEntity
  8
4
 62
     3
100
AcDbText
 10
0.3917579771122
 20
-0.2212703831813211
 30
0.0
 40
0.0058066775549171
  1
28
 41
0.9
  7
ROMANS
 72
     4
 11
0.3959885564736396
 21
-0.2183670444038626
 31
0.0
100
AcDbText
  0
TEXT
  5
113
330
2
100
AcDbEntity
  8
4
 62
     3
100
AcDbText
 10
0.3918824059169482
 20
-0.2341822954541055
 30
0.0
 40
0.0058066775549171
  1
29
 41
0.9
  7
ROMANS
 72
     4
 11
0.3959885564736396
 21
-0.2312789566766469
 31
0.0
100
AcDbText
  0
TEXT
  5
114
330
2
100
AcDbEntity
  8
4
 62
     3
100
AcDbText
 10
0.392877836354934
 20
-0.2596638822441559
 30
0.0
 40
0.0058066775549171
  1
31
 41
0.9
  7
ROMANS
 72
     4
 11
0.3959885564736396
 21
-0.2567605434666973
 31
0.0
100
AcDbText
  0
TEXT
  5
115
330
2
100
AcDbEntity
  8
4
 62
     3
100
AcDbText
 10
0.3917579771122
 20
-0.2468891916231552
 30
0.0
 40
0.0058066775549171
  1
30
 41
0.9
  7
ROMANS
 72
     4
 11
0.3959885564736396
 21
-0.2439858528456966
 31
0.0
100
AcDbText
  0
TEXT
  5
116
330
2
100
AcDbEntity
  8
4
 62
     3
100
AcDbText
 10
0.3921312635266721
 20
0.0086048748050861
 30
0.0
 40
0.0058066775549171
  1
14
 41
0.9
  7
ROMANS
 72
     4
 11
0.395988556473867
 21
0.0115082135825446
 31
0.0
100
AcDbText
  0
TEXT
  5
117
330
2
100
AcDbEntity
  8
4
 62
     3
100
AcDbText
 10
0.3922556923314203
 20
-0.0041698158155167
 30
0.0
 40
0.0058066775549171
  1
15
 41
0.9
  7
ROMANS
 72
     4
 11
0.395988556473867
 21
-0.0012664770380582
 31
0.0
100
AcDbText
  0
TEXT
  5
118
330
2
100
AcDbEntity
  8
4
 62
     3
100
AcDbText
 10
0.3922556923314203
 20
0.0213117478777452
 30
0.0
 40
0.0058066775549171
  1
13
 41
0.9
  7
ROMANS
 72
     4
 11
0.395988556473867
 21
0.0242150866552038
 31
0.0
100
AcDbText
  0
TEXT
  5
119
330
2
100
AcDbEntity
  8
4
 62
     3
100
AcDbText
 10
0.3922556923314203
 20
0.0342236601509274
 30
0.0
 40
0.0058066775549171
  1
12
 41
0.9
  7
ROMANS
 72
     4
 11
0.395988556473867
 21
0.037126998928386
 31
0.0
100
AcDbText
  0
TEXT
  5
11A
330
2
100
AcDbEntity
  8
4
 62
     3
100
AcDbText
 10
0.3933755515741543
 20
0.0469983507715018
 30
0.0
 40
0.0058066775549171
  1
11
 41
0.9
  7
ROMANS
 72
     4
 11
0.395988556473867
 21
0.0499016895489604
 31
0.0
100
AcDbText
  0
TEXT
  5
11B
330
2
100
AcDbEntity
  8
4
 62
     3
100
AcDbText
 10
0.3914448164996172
 20
0.059842468593131
 30
0.0
 40
0.0058066775549171
  1
10
 41
0.9
  7
ROMANS
 72
     4
 11
0.3951776806420639
 21
0.0627458073705896
 31
0.0
100
AcDbText
  0
TEXT
  5
11C
330
2
100
AcDbEntity
  8
4
 62
     3
100
AcDbText
 10
0.3943709820121401
 20
0.0726295750271209
 30
0.0
 40
0.0058066775549171
  1
9
 41
0.9
  7
ROMANS
 72
     4
 11
0.395988556473867
 21
0.0755329138045795
 31
0.0
100
AcDbText
  0
TEXT
  5
11D
330
2
100
AcDbEntity
  8
4
 62
     3
100
AcDbText
 10
0.3923801211361685
 20
-0.0167935289463241
 30
0.0
 40
0.0058066775549171
  1
16
 41
0.9
  7
ROMANS
 72
     4
 11
0.395988556473867
 21
-0.0138901901688655
 31
0.0
100
AcDbText
  0
TEXT
  5
11E
330
2
100
AcDbEntity
  8
4
 62
     3
100
AcDbText
 10
0.3923725529780056
 20
-0.0295068197089289
 30
0.0
 40
0.0058066775549171
  1
17
 41
0.9
  7
ROMANS
 72
     4
 11
0.3961054171204523
 21
-0.0266034809314704
 31
0.0
100
AcDbText
  0
TEXT
  5
11F
330
2
100
AcDbEntity
  8
4
 62
     3
100
AcDbText
 10
0.3917579771122
 20
-0.2724385728647586
 30
0.0
 40
0.0058066775549171
  1
32
 41
0.9
  7
ROMANS
 72
     4
 11
0.3959885564736396
 21
-0.2695352340873001
 31
0.0
100
AcDbText
  0
TEXT
  5
120
330
2
100
AcDbEntity
  8
4
 62
     3
100
AcDbText
 10
0.8139414364609196
 20
-0.1700404408031375
 30
0.0
 40
0.0058066775549171
  1
0.0005/0.1000
 41
0.9
  7
ROMANS
 72
     4
 11
0.8428089191625076
 21
-0.1675518647081731
 31
0.0
100
AcDbText
  0
TEXT
  5
121
330
2
100
AcDbEntity
  8
4
 62
     3
100
AcDbText
 10
0.7786272184605724
 20
-0.0678421074427036
 30
0.0
 40
0.0058066775549171
  1
-
 41
0.9
  7
ROMANS
 72
     4
 11
0.7808669369460404
 21
-0.0653535313477391
 31
0.0
100
AcDbText
  0
LINE
  5
122
330
2
100
AcDbEntity
  8
4
 62
     3
100
AcDbLine
 10
0.3861151485923528
 20
-0.1992960172976836
 30
0.0
 11
0.8733969536401673
 21
-0.1992960172976836
 31
0.0
  0
TEXT
  5
123
330
2
100
AcDbEntity
  8
4
 62
     3
100
AcDbText
 10
0.3917579771122
 20
-0.2852132172918129
 30
0.0
 40
0.0058066775549171
  1
33
 41
0.9
  7
ROMANS
 72
     4
 11
0.3959885564736396
 21
-0.2823098785143543
 31
0.0
100
AcDbText
  0
TEXT
  5
124
330
2
100
AcDbEntity
  8
4
 62
     3
100
AcDbText
 10
0.392372552978233
 20
-0.0806049354795572
 30
0.0
 40
0.0058066775549171
  1
18
 41
0.9
  7
ROMANS
 72
     4
 11
0.3961054171206797
 21
-0.0777015967020987
 31
0.0
100
AcDbText
  0
LINE
  5
125
330
2
100
AcDbEntity
  8
4
 62
     3
100
AcDbLine
 10
0.3861151484779839
 20
-0.1098730443704881
 30
0.0
 11
0.8733969563052141
 21
-0.1098730443704881
 31
0.0
  0
TEXT
  5
126
330
2
100
AcDbEntity
  8
4
 62
     3
100
AcDbText
 10
0.412939671948019
 20
-0.1062930128016061
 30
0.0
 40
0.0058066775880372
  1
DOWNSET DEPTH
 41
0.9
  7
ROMANS
 72
     4
 11
0.4450423037561678
 21
-0.1033896740075875
 31
0.0
100
AcDbText
  0
TEXT
  5
127
330
2
100
AcDbEntity
  8
4
 62
     3
100
AcDbText
 10
0.8293963329596376
 20
-0.1065814270775915
 30
0.0
 40
0.0058066775880372
  1
0.0070
 41
0.9
  7
ROMANS
 72
     4
 11
0.8423369287272635
 21
-0.1036780882835728
 31
0.0
100
AcDbText
  0
TEXT
  5
128
330
2
100
AcDbEntity
  8
4
 62
     3
100
AcDbText
 10
0.7689470181368474
 20
-0.1065814270775915
 30
0.0
 40
0.0058066775880372
  1
0.0060
 41
0.9
  7
ROMANS
 72
     4
 11
0.7818876139044733
 21
-0.1036780882835728
 31
0.0
100
AcDbText
  0
TEXT
  5
129
330
2
100
AcDbEntity
  8
4
 62
     3
100
AcDbText
 10
0.3916335483074518
 20
-0.2979879079124156
 30
0.0
 40
0.0058066775549171
  1
34
 41
0.9
  7
ROMANS
 72
     4
 11
0.3959885564736396
 21
-0.295084569134957
 31
0.0
100
AcDbText
  0
TEXT
  5
12A
330
2
100
AcDbEntity
  8
4
 62
     3
100
AcDbText
 10
0.7789992646051207
 20
0.0088055974403402
 30
0.0
 40
0.0058066775549171
  1
-
 41
0.9
  7
ROMANS
 72
     4
 11
0.7812389830905886
 21
0.0112941735353047
 31
0.0
100
AcDbText
  0
TEXT
  5
12B
330
2
100
AcDbEntity
  8
4
 62
     3
100
AcDbText
 10
0.7194552279582087
 20
0.0088055974403402
 30
0.0
 40
0.0058066775549171
  1
-
 41
0.9
  7
ROMANS
 72
     4
 11
0.7216949464436766
 21
0.0112941735353047
 31
0.0
100
AcDbText
  0
TEXT
  5
12C
330
2
100
AcDbEntity
  8
4
 62
     3
100
AcDbText
 10
0.8416053267510806
 20
0.0088055974399423
 30
0.0
 40
0.0058066775549171
  1
-
 41
0.9
  7
ROMANS
 72
     4
 11
0.8438450452365486
 21
0.0112941735349068
 31
0.0
100
AcDbText
  0
TEXT
  5
12D
330
2
100
AcDbEntity
  8
4
 62
     3
100
AcDbText
 10
0.7074770284927095
 20
-0.1065814270775915
 30
0.0
 40
0.0058066775880372
  1
0.0050
 41
0.9
  7
ROMANS
 72
     4
 11
0.7204176242603353
 21
-0.1036780882835728
 31
0.0
100
AcDbText
  0
LINE
  5
12E
330
2
100
AcDbEntity
  8
4
 62
     3
100
AcDbLine
 10
0.3861151486771632
 20
0.0817475459646176
 30
0.0
 11
0.8733969516687238
 21
0.0817475459646176
 31
0.0
  0
TEXT
  5
12F
330
2
100
AcDbEntity
  8
4
 62
     3
100
AcDbText
 10
0.7068211698567849
 20
0.0853111181005213
 30
0.0
 40
0.0058066775304137
  1
0.0024
 41
0.9
  7
ROMANS
 72
     4
 11
0.7198861943002158
 21
0.0882144568657282
 31
0.0
100
AcDbText
  0
TEXT
  5
130
330
2
100
AcDbEntity
  8
4
 62
     3
100
AcDbText
 10
0.7684155880457127
 20
0.0853111181005213
 30
0.0
 40
0.0058066775304137
  1
0.0040
 41
0.9
  7
ROMANS
 72
     4
 11
0.7813561836849204
 21
0.0882144568657282
 31
0.0
100
AcDbText
  0
TEXT
  5
131
330
2
100
AcDbEntity
  8
4
 62
     3
100
AcDbText
 10
0.8300100062346404
 20
0.0853111181005213
 30
0.0
 40
0.0058066775304137
  1
0.0056
 41
0.9
  7
ROMANS
 72
     4
 11
0.8428261730696249
 21
0.0882144568657282
 31
0.0
100
AcDbText
  0
TEXT
  5
132
330
2
100
AcDbEntity
  8
4
 62
     3
100
AcDbText
 10
0.4131922278512784
 20
0.0849957935768951
 30
0.0
 40
0.0058066775304137
  1
HALF ETCH DEPTH
 41
0.9
  7
ROMANS
 72
     4
 11
0.449276581075992
 21
0.0878991323421019
 31
0.0
100
AcDbText
  0
TEXT
  5
133
330
2
100
AcDbEntity
  8
4
 62
     3
100
AcDbText
 10
0.8376251052868834
 20
-0.2340565169706954
 30
0.0
 40
0.0058066775304137
  1
2.5%%d
 41
0.9
  7
ROMANS
 72
     4
 11
0.8443442607149336
 21
-0.2311531782054885
 31
0.0
100
AcDbText
  0
TEXT
  5
134
330
2
100
AcDbEntity
  8
4
 62
     3
100
AcDbText
 10
0.6022923289780867
 20
-0.0808179352084428
 30
0.0
 40
0.0058066775304137
  1
2     5. THICKNESS: MIN 150 MICROINCHES
 41
0.9
  7
ROMANS
 72
     4
 11
0.6917566392145318
 21
-0.077914596443236
 31
0.0
100
AcDbText
  0
TEXT
  5
135
330
2
100
AcDbEntity
  8
4
 62
     3
100
AcDbText
 10
0.4131325156616188
 20
-0.0805714415590301
 30
0.0
 40
0.0058066775304137
  1
PLATING TO BE SILVER, AREA REFER TO SHT    OF
 41
0.9
  7
ROMANS
 72
     4
 11
0.5188969992512967
 21
-0.0782211197014817
 31
0.0
100
AcDbText
  0
TEXT
  5
136
330
2
100
AcDbEntity
  8
4
 62
     3
100
AcDbText
 10
0.4082287266740787
 20
-0.0929313694452573
 30
0.0
 40
0.0058066775304137
  1
 SEMI-BRIGHT: 0.3~1.0 gam
 41
0.9
  7
ROMANS
 72
     4
 11
0.4680789815054141
 21
-0.0909958102684527
 31
0.0
100
AcDbText
  0
TEXT
  5
137
330
2
100
AcDbEntity
  8
4
 62
     3
100
AcDbText
 10
0.8418719425938279
 20
-0.1572657501821653
 30
0.0
 40
0.0058066775549171
  1
-
 41
0.9
  7
ROMANS
 72
     4
 11
0.844111661079296
 21
-0.1547771740872008
 31
0.0
100
AcDbText
  0
TEXT
  5
138
330
2
100
AcDbEntity
  8
4
 62
     3
100
AcDbText
 10
0.813376747054124
 20
-0.0550674169023922
 30
0.0
 40
0.0058066775549171
  1
0.0452/0.0730
 41
0.9
  7
ROMANS
 72
     4
 11
0.8427419449747048
 21
-0.0525788408074277
 31
0.0
100
AcDbText
  0
TEXT
  5
139
330
2
100
AcDbEntity
  8
4
 62
     3
100
AcDbText
 10
0.6903413662007577
 20
-0.0550674169023922
 30
0.0
 40
0.0058066775549171
  1
0.0560/0.0640
 41
0.9
  7
ROMANS
 72
     4
 11
0.7197065641213385
 21
-0.0525788408074277
 31
0.0
100
AcDbText
  0
TEXT
  5
13A
330
2
100
AcDbEntity
  8
4
 62
     3
100
AcDbText
 10
0.6914672466857441
 20
-0.0304843872332186
 30
0.0
 40
0.0058066775549171
  1
0.0621/0.0998
 41
0.9
  7
ROMANS
 72
     4
 11
0.7203347293873322
 21
-0.0279958111382541
 31
0.0
100
AcDbText
  0
TEXT
  5
13B
330
2
100
AcDbEntity
  8
4
 62
     3
100
AcDbText
 10
0.814407225455267
 20
-0.0304843872332186
 30
0.0
 40
0.0058066775549171
  1
0.0543/0.1087
 41
0.9
  7
ROMANS
 72
     4
 11
0.843274708156855
 21
-0.0279958111382541
 31
0.0
100
AcDbText
  0
TEXT
  5
13C
330
2
100
AcDbEntity
  8
4
 62
     3
100
AcDbText
 10
0.7789992649934749
 20
-0.055067509289944
 30
0.0
 40
0.0058066775549171
  1
-
 41
0.9
  7
ROMANS
 72
     4
 11
0.7812389834789429
 21
-0.0525789331949795
 31
0.0
100
AcDbText
  0
TEXT
  5
13D
330
2
100
AcDbEntity
  8
4
 62
     3
100
AcDbText
 10
0.7789992649934749
 20
-0.0422928187230583
 30
0.0
 40
0.0058066775549171
  1
-
 41
0.9
  7
ROMANS
 72
     4
 11
0.7812389834789429
 21
-0.0398042426280938
 31
0.0
100
AcDbText
  0
TEXT
  5
13E
330
2
100
AcDbEntity
  8
4
 62
     3
100
AcDbText
 10
0.7789992649934749
 20
-0.0295181281561725
 30
0.0
 40
0.0058066775549171
  1
-
 41
0.9
  7
ROMANS
 72
     4
 11
0.7812389834789429
 21
-0.0270295520612081
 31
0.0
100
AcDbText
  0
TEXT
  5
13F
330
2
100
AcDbEntity
  8
4
 62
     3
100
AcDbText
 10
0.7789992649934749
 20
-0.0678422229537319
 30
0.0
 40
0.0058066775549171
  1
-
 41
0.9
  7
ROMANS
 72
     4
 11
0.7812389834789429
 21
-0.0653536468587674
 31
0.0
100
AcDbText
  0
TEXT
  5
140
330
2
100
AcDbEntity
  8
4
 62
     3
100
AcDbText
 10
0.813376747054124
 20
-0.0678420612755304
 30
0.0
 40
0.0058066775549171
  1
0.0452/0.0730
 41
0.9
  7
ROMANS
 72
     4
 11
0.8427419449747048
 21
-0.065353485180566
 31
0.0
100
AcDbText
  0
TEXT
  5
141
330
2
100
AcDbEntity
  8
4
 62
     3
100
AcDbText
 10
0.6903413662007577
 20
-0.0678420612755304
 30
0.0
 40
0.0058066775549171
  1
0.0560/0.0640
 41
0.9
  7
ROMANS
 72
     4
 11
0.7197065641213385
 21
-0.065353485180566
 31
0.0
100
AcDbText
  0
TEXT
  5
142
330
2
100
AcDbEntity
  8
4
 62
     3
100
AcDbText
 10
0.6914672466857441
 20
-0.0432590316063569
 30
0.0
 40
0.0058066775549171
  1
0.0621/0.0998
 41
0.9
  7
ROMANS
 72
     4
 11
0.7203347293873322
 21
-0.0407704555113924
 31
0.0
100
AcDbText
  0
TEXT
  5
143
330
2
100
AcDbEntity
  8
4
 62
     3
100
AcDbText
 10
0.814407225455267
 20
-0.0432590316063569
 30
0.0
 40
0.0058066775549171
  1
0.0543/0.1087
 41
0.9
  7
ROMANS
 72
     4
 11
0.843274708156855
 21
-0.0407704555113924
 31
0.0
100
AcDbText
  0
ENDSEC
  0
SECTION
  2
OBJECTS
  0
DICTIONARY
  5
9
330
0
100
AcDbDictionary
281
     1
  3
ACAD_COLOR
350
33
  3
ACAD_GROUP
350
2E
  3
ACAD_LAYOUT
350
F
  3
ACAD_MATERIAL
350
B
  3
ACAD_MLEADERSTYLE
350
36
  3
ACAD_MLINESTYLE
350
2F
  3
ACAD_PLOTSETTINGS
350
30
  3
ACAD_PLOTSTYLENAME
350
8
  3
ACAD_SCALELIST
350
34
  3
ACAD_TABLESTYLE
350
35
  3
ACAD_VISUALSTYLE
350
26
  3
ACDB_RECOMPOSE_DATA
350
148
  3
AcDbVariableDictionary
350
37
  0
DICTIONARY
  5
28
330
23
100
AcDbDictionary
280
     1
281
     1
  0
DICTIONARY
  5
16
330
15
100
AcDbDictionary
280
     1
281
     1
  3
ACAD_LAYERFILTERS
360
17
  3
ACAD_LAYERSTATES
360
18
  3
ACLYDICTIONARY
360
19
  0
DICTIONARY
  5
3
330
2
100
AcDbDictionary
280
     1
281
     1
  3
ACAD_SORTENTS
360
144
  0
DICTIONARY
  5
33
102
{ACAD_REACTORS
330
9
102
}
330
9
100
AcDbDictionary
281
     1
  0
DICTIONARY
  5
2E
102
{ACAD_REACTORS
330
9
102
}
330
9
100
AcDbDictionary
281
     1
  0
DICTIONARY
  5
F
102
{ACAD_REACTORS
330
9
102
}
330
9
100
AcDbDictionary
281
     1
  3
Layout1
350
14
  3
Model
350
E
  0
DICTIONARY
  5
B
102
{ACAD_REACTORS
330
9
102
}
330
9
100
AcDbDictionary
281
     1
  3
ByBlock
350
32
  3
ByLayer
350
31
  3
Global
350
A
  0
DICTIONARY
  5
36
102
{ACAD_REACTORS
330
9
102
}
330
9
100
AcDbDictionary
281
     1
  0
DICTIONARY
  5
2F
102
{ACAD_REACTORS
330
9
102
}
330
9
100
AcDbDictionary
281
     1
  3
Standard
350
46
  0
DICTIONARY
  5
30
102
{ACAD_REACTORS
330
9
102
}
330
9
100
AcDbDictionary
281
     1
  0
ACDBDICTIONARYWDFLT
  5
8
102
{ACAD_REACTORS
330
9
102
}
330
9
100
AcDbDictionary
281
     1
  3
Normal
350
7
100
AcDbDictionaryWithDefault
340
7
  0
DICTIONARY
  5
34
102
{ACAD_REACTORS
330
9
102
}
330
9
100
AcDbDictionary
281
     1
  3
A0
350
4A
  3
A1
350
4B
  3
A2
350
4C
  3
A3
350
4D
  3
A4
350
4E
  3
A5
350
4F
  3
A6
350
50
  3
A7
350
51
  3
A8
350
52
  3
A9
350
53
  3
B0
350
54
  3
B1
350
55
  3
B2
350
56
  3
B3
350
57
  3
B4
350
58
  3
B5
350
59
  3
B6
350
5A
  0
DICTIONARY
  5
35
102
{ACAD_REACTORS
330
9
102
}
330
9
100
AcDbDictionary
281
     1
  3
Standard
350
47
  0
DICTIONARY
  5
26
102
{ACAD_REACTORS
330
9
102
}
330
9
100
AcDbDictionary
281
     1
  3
2dWireframe
350
25
  3
Realistic
350
48
  3
Wireframe
350
49
  0
XRECORD
  5
148
102
{ACAD_REACTORS
330
9
102
}
330
9
100
AcDbXrecord
280
     1
 90
        1
330
47
  0
DICTIONARY
  5
37
102
{ACAD_REACTORS
330
9
102
}
330
9
100
AcDbDictionary
281
     1
  3
CANNOSCALE
350
38
  3
CMLEADERSTYLE
350
39
  3
CTABLESTYLE
350
3A
  3
CVIEWDETAILSTYLE
350
3B
  3
CVIEWSECTIONSTYLE
350
3C
  3
DIMASSOC
350
3D
  3
INDEXCTL
350
3E
  3
LAYEREVAL
350
3F
  3
LAYERNOTIFY
350
40
  3
LIGHTINGUNITS
350
41
  3
MSLTSCALE
350
42
  3
PROJECTNAME
350
43
  3
SORTENTS
350
44
  0
DICTIONARY
  5
17
102
{ACAD_REACTORS
330
16
102
}
330
16
100
AcDbDictionary
281
     1
  0
DICTIONARY
  5
18
102
{ACAD_REACTORS
330
16
102
}
330
16
100
AcDbDictionary
281
     1
  0
DICTIONARY
  5
19
102
{ACAD_REACTORS
330
16
102
}
330
16
100
AcDbDictionary
281
     1
1001
ACAD
1000
<All
  0
SORTENTSTABLE
  5
144
102
{ACAD_REACTORS
330
3
102
}
330
3
100
AcDbSortentsTable
330
2
  0
LAYOUT
  5
14
102
{ACAD_REACTORS
330
F
102
}
330
F
100
AcDbPlotSettings
  1

  2
HP DeskJet 930C/932C/935C
  4

  6

 40
0.0
 41
0.0
 42
0.0
 43
0.0
 44
0.0
 45
0.0
 46
0.0
 47
0.0
 48
0.0
 49
0.0
140
0.0
141
0.0
142
1.0
143
1.0
 70
   688
 72
     0
 73
     0
 74
     5
  7
black.ctb
 75
    16
147
1.0
 76
     0
 77
     2
 78
   300
148
0.0
149
0.0
100
AcDbLayout
  1
Layout1
 70
     1
 71
     1
 10
0.0
 20
0.0
 11
12.0
 21
9.0
 12
0.0
 22
0.0
 32
0.0
 14
1.000000000000000E+20
 24
1.000000000000000E+20
 34
1.000000000000000E+20
 15
-1.000000000000000E+20
 25
-1.000000000000000E+20
 35
-1.000000000000000E+20
146
0.0
 13
0.0
 23
0.0
 33
0.0
 16
1.0
 26
0.0
 36
0.0
 17
0.0
 27
1.0
 37
0.0
 76
     0
330
11
  0
LAYOUT
  5
E
102
{ACAD_REACTORS
330
F
102
}
330
F
100
AcDbPlotSettings
  1

  2
\\kpc384\hp LaserJet 1010
  4
A4
  6

 40
4.603749752044677
 41
8.032736778259277
 42
5.154098510742187
 43
4.9847412109375
 44
210.0156707763672
 45
297.0106506347656
 46
0.0
 47
2.95
 48
127.5662085622847
 49
142.3500281158103
140
136.3772273578069
141
154.5853048439378
142
1.0
143
0.0439983751192775
 70
 11956
 72
     1
 73
     0
 74
     4
  7
black.ctb
 75
     0
147
22.72811205616225
 76
     0
 77
     2
 78
   300
148
-127.5662085622847
149
-142.3500281158103
100
AcDbLayout
  1
Model
 70
     1
 71
     0
 10
0.0
 20
0.0
 11
12.0
 21
9.0
 12
0.0
 22
0.0
 32
0.0
 14
0.0
 24
0.0
 34
0.0
 15
0.0
 25
0.0
 35
0.0
146
0.0
 13
0.0
 23
0.0
 33
0.0
 16
1.0
 26
0.0
 36
0.0
 17
0.0
 27
1.0
 37
0.0
 76
     0
330
2
331
24
1001
ACAD_PSEXT
1000
\\atsnts34\TJ04
1000
HP LaserJet 5100 PCL 6
1000
2f_CAD Rm
1000
10.8.12.60
1070
     0
  0
MATERIAL
  5
32
102
{ACAD_REACTORS
330
B
102
}
330
B
100
AcDbMaterial
  1
ByBlock
 73
     1
 78
     1
172
     1
176
     1
270
     1
274
     1
 94
       63
  0
MATERIAL
  5
31
102
{ACAD_REACTORS
330
B
102
}
330
B
100
AcDbMaterial
  1
ByLayer
 73
     1
 78
     1
172
     1
176
     1
270
     1
274
     1
 94
       63
  0
MATERIAL
  5
A
102
{ACAD_REACTORS
330
B
102
}
330
B
100
AcDbMaterial
  1
Global
 73
     1
 78
     1
172
     1
176
     1
270
     1
274
     1
 94
       63
  0
MLINESTYLE
  5
46
102
{ACAD_REACTORS
330
2F
102
}
330
2F
100
AcDbMlineStyle
  2
STANDARD
 70
     0
  3

 62
   256
 51
90.0
 52
90.0
 71
     2
 49
0.5
 62
   256
  6
BYLAYER
 49
-0.5
 62
   256
  6
BYLAYER
  0
ACDBPLACEHOLDER
  5
7
102
{ACAD_REACTORS
330
8
102
}
330
8
  0
SCALE
  5
4A
102
{ACAD_REACTORS
330
34
102
}
330
34
100
AcDbScale
 70
     0
300
1:1
140
1.0
141
1.0
290
     1
  0
SCALE
  5
4B
102
{ACAD_REACTORS
330
34
102
}
330
34
100
AcDbScale
 70
     0
300
1/128" = 1'-0"
140
0.0078125
141
12.0
290
     0
  0
SCALE
  5
4C
102
{ACAD_REACTORS
330
34
102
}
330
34
100
AcDbScale
 70
     0
300
1/64" = 1'-0"
140
0.015625
141
12.0
290
     0
  0
SCALE
  5
4D
102
{ACAD_REACTORS
330
34
102
}
330
34
100
AcDbScale
 70
     0
300
1/32" = 1'-0"
140
0.03125
141
12.0
290
     0
  0
SCALE
  5
4E
102
{ACAD_REACTORS
330
34
102
}
330
34
100
AcDbScale
 70
     0
300
1/16" = 1'-0"
140
0.0625
141
12.0
290
     0
  0
SCALE
  5
4F
102
{ACAD_REACTORS
330
34
102
}
330
34
100
AcDbScale
 70
     0
300
3/32" = 1'-0"
140
0.09375
141
12.0
290
     0
  0
SCALE
  5
50
102
{ACAD_REACTORS
330
34
102
}
330
34
100
AcDbScale
 70
     0
300
1/8" = 1'-0"
140
0.125
141
12.0
290
     0
  0
SCALE
  5
51
102
{ACAD_REACTORS
330
34
102
}
330
34
100
AcDbScale
 70
     0
300
3/16" = 1'-0"
140
0.1875
141
12.0
290
     0
  0
SCALE
  5
52
102
{ACAD_REACTORS
330
34
102
}
330
34
100
AcDbScale
 70
     0
300
1/4" = 1'-0"
140
0.25
141
12.0
290
     0
  0
SCALE
  5
53
102
{ACAD_REACTORS
330
34
102
}
330
34
100
AcDbScale
 70
     0
300
3/8" = 1'-0"
140
0.375
141
12.0
290
     0
  0
SCALE
  5
54
102
{ACAD_REACTORS
330
34
102
}
330
34
100
AcDbScale
 70
     0
300
1/2" = 1'-0"
140
0.5
141
12.0
290
     0
  0
SCALE
  5
55
102
{ACAD_REACTORS
330
34
102
}
330
34
100
AcDbScale
 70
     0
300
3/4" = 1'-0"
140
0.75
141
12.0
290
     0
  0
SCALE
  5
56
102
{ACAD_REACTORS
330
34
102
}
330
34
100
AcDbScale
 70
     0
300
1" = 1'-0"
140
1.0
141
12.0
290
     0
  0
SCALE
  5
57
102
{ACAD_REACTORS
330
34
102
}
330
34
100
AcDbScale
 70
     0
300
1-1/2" = 1'-0"
140
1.5
141
12.0
290
     0
  0
SCALE
  5
58
102
{ACAD_REACTORS
330
34
102
}
330
34
100
AcDbScale
 70
     0
300
3" = 1'-0"
140
3.0
141
12.0
290
     0
  0
SCALE
  5
59
102
{ACAD_REACTORS
330
34
102
}
330
34
100
AcDbScale
 70
     0
300
6" = 1'-0"
140
6.0
141
12.0
290
     0
  0
SCALE
  5
5A
102
{ACAD_REACTORS
330
34
102
}
330
34
100
AcDbScale
 70
     0
300
1'-0" = 1'-0"
140
12.0
141
12.0
290
     0
  0
TABLESTYLE
  5
47
102
{ACAD_XDICTIONARY
360
146
102
}
102
{ACAD_REACTORS
330
35
102
}
330
35
100
AcDbTableStyle
280
     0
  3
Standard
 70
     0
 71
     0
 40
0.06
 41
0.06
280
     0
281
     0
  7
Standard
140
0.18
170
     2
 62
     0
 63
     7
283
     0
 90
        4
 91
        0
  1

274
    -2
284
     1
 64
     0
275
    -2
285
     1
 65
     0
276
    -2
286
     1
 66
     0
277
    -2
287
     1
 67
     0
278
    -2
288
     1
 68
     0
279
    -2
289
     1
 69
     0
  7
Standard
140
0.25
170
     5
 62
     0
 63
     7
283
     0
 90
        4
 91
        0
  1

274
    -2
284
     1
 64
     0
275
    -2
285
     1
 65
     0
276
    -2
286
     1
 66
     0
277
    -2
287
     1
 67
     0
278
    -2
288
     1
 68
     0
279
    -2
289
     1
 69
     0
  7
Standard
140
0.18
170
     5
 62
     0
 63
     7
283
     0
 90
        4
 91
        0
  1

274
    -2
284
     1
 64
     0
275
    -2
285
     1
 65
     0
276
    -2
286
     1
 66
     0
277
    -2
287
     1
 67
     0
278
    -2
288
     1
 68
     0
279
    -2
289
     1
 69
     0
  0
VISUALSTYLE
  5
25
102
{ACAD_REACTORS
330
26
102
}
330
26
100
AcDbVisualStyle
  2
2dWireframe
 70
     4
177
     3
291
     0
 70
    58
 90
        0
176
     1
 90
        2
176
     1
 90
        0
176
     1
 90
        0
176
     1
 40
0.6
176
     1
 40
30.0
176
     1
 62
     7
176
     1
 90
        1
176
     1
 90
        4
176
     1
 62
     7
176
     1
 62
   257
176
     1
 90
        1
176
     1
 90
        1
176
     1
 40
1.0
176
     1
 90
        0
176
     1
 62
   257
176
     1
 40
1.0
176
     1
 90
        1
176
     1
 90
        6
176
     1
 90
        2
176
     1
 62
     7
176
     1
 90
        5
176
     1
 90
        0
176
     1
 90
        0
176
     1
290
     0
176
     1
 90
        1
176
     1
 40
0.0
176
     1
 90
        0
176
     1
290
     1
176
     1
290
     1
176
     1
290
     0
176
     1
290
     0
176
     1
290
     0
176
     1
290
     0
176
     1
290
     0
176
     1
290
     0
176
     1
290
     0
176
     1
 90
       50
176
     1
 40
0.0
176
     1
 40
1.0
176
     1
 90
        0
176
     1
 62
    18
420
        0
176
     1
 90
       50
176
     1
 90
        3
176
     1
 62
     5
420
      255
176
     1
290
     0
176
     1
 90
       50
176
     1
 90
       50
176
     1
 90
       50
176
     1
290
     0
176
     1
 90
       50
176
     1
 62
   256
176
     0
 40
1.0
176
     0
 90
        2
176
     1
  1
strokes_ogs.tif
176
     1
290
     0
176
     1
 40
1.0
176
     1
 40
1.0
176
     1
1001
ACAD
1000
AcRTDxfName
1000
VISUALSTYLE
1000
AcRTDxfName
1000
VISUALSTYLE
1000
AcRTDxfName
1000
VISUALSTYLE
1000
AcRTDxfName
1000
VISUALSTYLE
1000
AcRTDxfName
1000
VISUALSTYLE
1000
AcRTDxfName
1000
VISUALSTYLE
1000
AcRTDxfName
1000
VISUALSTYLE
1000
AcRTDxfName
1000
VISUALSTYLE
1000
AcRTDxfName
1000
VISUALSTYLE
1000
AcRTDxfName
1000
VISUALSTYLE
1000
AcRTDxfName
1000
VISUALSTYLE
  0
VISUALSTYLE
  5
48
102
{ACAD_REACTORS
330
26
102
}
330
26
100
AcDbVisualStyle
  2
Realistic
 70
     8
177
     3
291
     0
 70
    58
 90
        2
176
     1
 90
        2
176
     1
 90
        0
176
     1
 90
        0
176
     1
 40
0.6
176
     1
 40
30.0
176
     1
 62
     7
176
     1
 90
        1
176
     1
 90
        0
176
     1
 62
     7
176
     1
 62
   257
176
     1
 90
        1
176
     1
 90
        1
176
     1
 40
1.0
176
     1
 90
        8
176
     1
 62
     8
176
     1
 40
1.0
176
     1
 90
        1
176
     1
 90
        6
176
     1
 90
        2
176
     1
 62
     7
176
     1
 90
        5
176
     1
 90
        0
176
     1
 90
        0
176
     1
290
     0
176
     1
 90
       13
176
     1
 40
0.0
176
     1
 90
        0
176
     1
290
     0
176
     1
290
     1
176
     1
290
     1
176
     1
290
     0
176
     1
290
     0
176
     1
290
     0
176
     1
290
     0
176
     1
290
     0
176
     1
290
     0
176
     1
 90
       50
176
     1
 40
0.0
176
     1
 40
1.0
176
     1
 90
        0
176
     1
 62
    18
420
        0
176
     1
 90
       50
176
     1
 90
        3
176
     1
 62
     5
420
      255
176
     1
290
     0
176
     1
 90
       50
176
     1
 90
       50
176
     1
 90
       50
176
     1
290
     0
176
     1
 90
       50
176
     1
 62
   256
176
     0
 40
1.0
176
     0
 90
        2
176
     1
  1
strokes_ogs.tif
176
     1
290
     0
176
     1
 40
1.0
176
     1
 40
1.0
176
     1
1001
ACAD
1000
AcRTDxfName
1000
VISUALSTYLE
1000
AcRTDxfName
1000
VISUALSTYLE
1000
AcRTDxfName
1000
VISUALSTYLE
1000
AcRTDxfName
1000
VISUALSTYLE
1000
AcRTDxfName
1000
VISUALSTYLE
1000
AcRTDxfName
1000
VISUALSTYLE
1000
AcRTDxfName
1000
VISUALSTYLE
1000
AcRTDxfName
1000
VISUALSTYLE
1000
AcRTDxfName
1000
VISUALSTYLE
1000
AcRTDxfName
1000
VISUALSTYLE
1000
AcRTDxfName
1000
VISUALSTYLE
  0
VISUALSTYLE
  5
49
102
{ACAD_REACTORS
330
26
102
}
330
26
100
AcDbVisualStyle
  2
Wireframe
 70
     5
177
     3
291
     0
 70
    58
 90
        0
176
     1
 90
        2
176
     1
 90
        0
176
     1
 90
        0
176
     1
 40
0.6
176
     1
 40
30.0
176
     1
 62
     7
420
 16777215
176
     1
 90
        1
176
     1
 90
        4
176
     1
 62
     7
176
     1
 62
   257
176
     1
 90
        1
176
     1
 90
        1
176
     1
 40
1.0
176
     1
 90
        0
176
     1
 62
   257
176
     1
 40
1.0
176
     1
 90
        1
176
     1
 90
        6
176
     1
 90
        2
176
     1
 62
     7
176
     1
 90
        3
176
     1
 90
        0
176
     1
 90
        0
176
     1
290
     0
176
     1
 90
        1
176
     1
 40
0.0
176
     1
 90
        0
176
     1
290
     0
176
     1
290
     1
176
     1
290
     1
176
     1
290
     0
176
     1
290
     0
176
     1
290
     0
176
     1
290
     0
176
     1
290
     0
176
     1
290
     0
176
     1
 90
       50
176
     1
 40
0.0
176
     1
 40
1.0
176
     1
 90
        0
176
     1
 62
    18
420
        0
176
     1
 90
       50
176
     1
 90
        3
176
     1
 62
     5
420
      255
176
     1
290
     0
176
     1
 90
       50
176
     1
 90
       50
176
     1
 90
       50
176
     1
290
     0
176
     1
 90
       50
176
     1
 62
   256
176
     0
 40
1.0
176
     0
 90
        2
176
     1
  1
strokes_ogs.tif
176
     1
290
     0
176
     1
 40
1.0
176
     1
 40
1.0
176
     1
  0
DICTIONARYVAR
  5
38
102
{ACAD_REACTORS
330
37
102
}
330
37
100
DictionaryVariables
280
     0
  1
1:1
  0
DICTIONARYVAR
  5
39
102
{ACAD_REACTORS
330
37
102
}
330
37
100
DictionaryVariables
280
     0
  1
STANDARD
  0
DICTIONARYVAR
  5
3A
102
{ACAD_REACTORS
330
37
102
}
330
37
100
DictionaryVariables
280
     0
  1
STANDARD
  0
DICTIONARYVAR
  5
3B
102
{ACAD_REACTORS
330
37
102
}
330
37
100
DictionaryVariables
280
     0
  1

  0
DICTIONARYVAR
  5
3C
102
{ACAD_REACTORS
330
37
102
}
330
37
100
DictionaryVariables
280
     0
  1

  0
DICTIONARYVAR
  5
3D
102
{ACAD_REACTORS
330
37
102
}
330
37
100
DictionaryVariables
280
     0
  1
0
  0
DICTIONARYVAR
  5
3E
102
{ACAD_REACTORS
330
37
102
}
330
37
100
DictionaryVariables
280
     0
  1
0
  0
DICTIONARYVAR
  5
3F
102
{ACAD_REACTORS
330
37
102
}
330
37
100
DictionaryVariables
280
     0
  1
1
  0
DICTIONARYVAR
  5
40
102
{ACAD_REACTORS
330
37
102
}
330
37
100
DictionaryVariables
280
     0
  1
15
  0
DICTIONARYVAR
  5
41
102
{ACAD_REACTORS
330
37
102
}
330
37
100
DictionaryVariables
280
     0
  1
0
  0
DICTIONARYVAR
  5
42
102
{ACAD_REACTORS
330
37
102
}
330
37
100
DictionaryVariables
280
     0
  1
0
  0
DICTIONARYVAR
  5
43
102
{ACAD_REACTORS
330
37
102
}
330
37
100
DictionaryVariables
280
     0
  1

  0
DICTIONARYVAR
  5
44
102
{ACAD_REACTORS
330
37
102
}
330
37
100
DictionaryVariables
280
     0
  1
127
  0
DICTIONARY
  5
146
330
47
100
AcDbDictionary
280
     1
281
     1
  3
ACAD_ROUNDTRIP_2008_TABLESTYLE_CELLSTYLEMAP
360
147
  0
CELLSTYLEMAP
  5
147
102
{ACAD_REACTORS
330
146
102
}
330
146
100
AcDbCellStyleMap
 90
        3
300
CELLSTYLE
  1
TABLEFORMAT_BEGIN
 90
        5
170
     1
 91
        0
 92
    32768
 62
   257
 93
        1
300
CONTENTFORMAT
  1
CONTENTFORMAT_BEGIN
 90
        0
 91
        0
 92
        4
 93
        0
300

 40
0.0
140
1.0
 94
        5
 62
     0
340
1C
144
0.25
309
CONTENTFORMAT_END
171
     0
 94
        6
 95
        1
302
GRIDFORMAT
  1
GRIDFORMAT_BEGIN
 90
        0
 91
        1
 62
     0
 92
       -2
340
0
 93
        0
 40
0.045
309
GRIDFORMAT_END
 95
        2
302
GRIDFORMAT
  1
GRIDFORMAT_BEGIN
 90
        0
 91
        1
 62
     0
 92
       -2
340
0
 93
        0
 40
0.045
309
GRIDFORMAT_END
 95
        4
302
GRIDFORMAT
  1
GRIDFORMAT_BEGIN
 90
        0
 91
        1
 62
     0
 92
       -2
340
0
 93
        0
 40
0.045
309
GRIDFORMAT_END
 95
        8
302
GRIDFORMAT
  1
GRIDFORMAT_BEGIN
 90
        0
 91
        1
 62
     0
 92
       -2
340
0
 93
        0
 40
0.045
309
GRIDFORMAT_END
 95
       16
302
GRIDFORMAT
  1
GRIDFORMAT_BEGIN
 90
        0
 91
        1
 62
     0
 92
       -2
340
0
 93
        0
 40
0.045
309
GRIDFORMAT_END
 95
       32
302
GRIDFORMAT
  1
GRIDFORMAT_BEGIN
 90
        0
 91
        1
 62
     0
 92
       -2
340
0
 93
        0
 40
0.045
309
GRIDFORMAT_END
309
TABLEFORMAT_END
  1
CELLSTYLE_BEGIN
 90
        1
 91
        1
300
_TITLE
309
CELLSTYLE_END
300
CELLSTYLE
  1
TABLEFORMAT_BEGIN
 90
        5
170
     1
 91
        0
 92
        0
 62
   257
 93
        1
300
CONTENTFORMAT
  1
CONTENTFORMAT_BEGIN
 90
        0
 91
        0
 92
        4
 93
        0
300

 40
0.0
140
1.0
 94
        5
 62
     0
340
1C
144
0.18
309
CONTENTFORMAT_END
171
     0
 94
        6
 95
        1
302
GRIDFORMAT
  1
GRIDFORMAT_BEGIN
 90
        0
 91
        1
 62
     0
 92
       -2
340
0
 93
        0
 40
0.045
309
GRIDFORMAT_END
 95
        2
302
GRIDFORMAT
  1
GRIDFORMAT_BEGIN
 90
        0
 91
        1
 62
     0
 92
       -2
340
0
 93
        0
 40
0.045
309
GRIDFORMAT_END
 95
        4
302
GRIDFORMAT
  1
GRIDFORMAT_BEGIN
 90
        0
 91
        1
 62
     0
 92
       -2
340
0
 93
        0
 40
0.045
309
GRIDFORMAT_END
 95
        8
302
GRIDFORMAT
  1
GRIDFORMAT_BEGIN
 90
        0
 91
        1
 62
     0
 92
       -2
340
0
 93
        0
 40
0.045
309
GRIDFORMAT_END
 95
       16
302
GRIDFORMAT
  1
GRIDFORMAT_BEGIN
 90
        0
 91
        1
 62
     0
 92
       -2
340
0
 93
        0
 40
0.045
309
GRIDFORMAT_END
 95
       32
302
GRIDFORMAT
  1
GRIDFORMAT_BEGIN
 90
        0
 91
        1
 62
     0
 92
       -2
340
0
 93
        0
 40
0.045
309
GRIDFORMAT_END
309
TABLEFORMAT_END
  1
CELLSTYLE_BEGIN
 90
        2
 91
        1
300
_HEADER
309
CELLSTYLE_END
300
CELLSTYLE
  1
TABLEFORMAT_BEGIN
 90
        5
170
     1
 91
        0
 92
        0
 62
   257
 93
        1
300
CONTENTFORMAT
  1
CONTENTFORMAT_BEGIN
 90
        0
 91
        0
 92
        4
 93
        0
300

 40
0.0
140
1.0
 94
        2
 62
     0
340
1C
144
0.18
309
CONTENTFORMAT_END
171
     0
 94
        6
 95
        1
302
GRIDFORMAT
  1
GRIDFORMAT_BEGIN
 90
        0
 91
        1
 62
     0
 92
       -2
340
0
 93
        0
 40
0.045
309
GRIDFORMAT_END
 95
        2
302
GRIDFORMAT
  1
GRIDFORMAT_BEGIN
 90
        0
 91
        1
 62
     0
 92
       -2
340
0
 93
        0
 40
0.045
309
GRIDFORMAT_END
 95
        4
302
GRIDFORMAT
  1
GRIDFORMAT_BEGIN
 90
        0
 91
        1
 62
     0
 92
       -2
340
0
 93
        0
 40
0.045
309
GRIDFORMAT_END
 95
        8
302
GRIDFORMAT
  1
GRIDFORMAT_BEGIN
 90
        0
 91
        1
 62
     0
 92
       -2
340
0
 93
        0
 40
0.045
309
GRIDFORMAT_END
 95
       16
302
GRIDFORMAT
  1
GRIDFORMAT_BEGIN
 90
        0
 91
        1
 62
     0
 92
       -2
340
0
 93
        0
 40
0.045
309
GRIDFORMAT_END
 95
       32
302
GRIDFORMAT
  1
GRIDFORMAT_BEGIN
 90
        0
 91
        1
 62
     0
 92
       -2
340
0
 93
        0
 40
0.045
309
GRIDFORMAT_END
309
TABLEFORMAT_END
  1
CELLSTYLE_BEGIN
 90
        3
 91
        2
300
_DATA
309
CELLSTYLE_END
  0
ENDSEC
  0
EOF
