  0
SECTION
  2
HEADER
  9
$ACADVER
  1
AC1032
  9
$ACADMAINTVER
 90
      197
  9
$DWGCODEPAGE
  3
ANSI_936
  9
$REQUIREDVERSIONS
160
                 0
  9
$INSBASE
 10
0.0
 20
0.0
 30
0.0
  9
$EXTMIN
 10
687.9511555405693
 20
-176.0926991762872
 30
0.0
  9
$EXTMAX
 10
693.7634860582319
 20
-171.7316149972949
 30
0.0000000000000568
  9
$LIMMIN
 10
0.0
 20
0.0
  9
$LIMMAX
 10
12.0
 20
9.0
  9
$ORTHOMODE
 70
     0
  9
$REGENMODE
 70
     1
  9
$FILLMODE
 70
     1
  9
$QTEXTMODE
 70
     0
  9
$MIRRTEXT
 70
     0
  9
$LTSCALE
 40
1.0
  9
$ATTMODE
 70
     1
  9
$TEXTSIZE
 40
0.45
  9
$TRACEWID
 40
0.05
  9
$TEXTSTYLE
  7
Standard
  9
$CLAYER
  8
Defpoints
  9
$CELTYPE
  6
ByLayer
  9
$CECOLOR
 62
   256
  9
$CELTSCALE
 40
1.0
  9
$DISPSILH
 70
     0
  9
$DIMSCALE
 40
0.05
  9
$DIMASZ
 40
0.08
  9
$DIMEXO
 40
0.0266
  9
$DIMDLI
 40
0.0266
  9
$DIMRND
 40
0.0
  9
$DIMDLE
 40
0.0
  9
$DIMEXE
 40
0.0266
  9
$DIMTP
 40
0.0
  9
$DIMTM
 40
1.25
  9
$DIMTXT
 40
0.08
  9
$DIMCEN
 40
0.0
  9
$DIMTSZ
 40
0.0
  9
$DIMTOL
 70
     0
  9
$DIMLIM
 70
     0
  9
$DIMTIH
 70
     0
  9
$DIMTOH
 70
     0
  9
$DIMSE1
 70
     0
  9
$DIMSE2
 70
     0
  9
$DIMTAD
 70
     0
  9
$DIMZIN
 70
     1
  9
$DIMBLK
  1

  9
$DIMASO
 70
     0
  9
$DIMSHO
 70
     1
  9
$DIMPOST
  1

  9
$DIMAPOST
  1

  9
$DIMALT
 70
     0
  9
$DIMALTD
 70
     2
  9
$DIMALTF
 40
25.4
  9
$DIMLFAC
 40
1.0
  9
$DIMTOFL
 70
     1
  9
$DIMTVP
 40
0.0
  9
$DIMTIX
 70
     0
  9
$DIMSOXD
 70
     0
  9
$DIMSAH
 70
     0
  9
$DIMBLK1
  1

  9
$DIMBLK2
  1

  9
$DIMSTYLE
  2
Standard
  9
$DIMCLRD
 70
   256
  9
$DIMCLRE
 70
   256
  9
$DIMCLRT
 70
   256
  9
$DIMTFAC
 40
1.0
  9
$DIMGAP
 40
0.0266
  9
$DIMJUST
 70
     0
  9
$DIMSD1
 70
     0
  9
$DIMSD2
 70
     0
  9
$DIMTOLJ
 70
     1
  9
$DIMTZIN
 70
     0
  9
$DIMALTZ
 70
     0
  9
$DIMALTTZ
 70
     0
  9
$DIMUPT
 70
     0
  9
$DIMDEC
 70
     4
  9
$DIMTDEC
 70
     4
  9
$DIMALTU
 70
     2
  9
$DIMALTTD
 70
     2
  9
$DIMTXSTY
  7
Standard
  9
$DIMAUNIT
 70
     0
  9
$DIMADEC
 70
     0
  9
$DIMALTRND
 40
0.0
  9
$DIMAZIN
 70
     1
  9
$DIMDSEP
 70
    46
  9
$DIMATFIT
 70
     0
  9
$DIMFRAC
 70
     0
  9
$DIMLDRBLK
  1

  9
$DIMLUNIT
 70
     2
  9
$DIMLWD
 70
    -1
  9
$DIMLWE
 70
    -1
  9
$DIMTMOVE
 70
     0
  9
$DIMFXL
 40
0.0072
  9
$DIMFXLON
 70
     0
  9
$DIMJOGANG
 40
0.7853981633974483
  9
$DIMTFILL
 70
     0
  9
$DIMTFILLCLR
 70
     0
  9
$DIMARCSYM
 70
     0
  9
$DIMLTYPE
  6
ByLayer
  9
$DIMLTEX1
  6
ByLayer
  9
$DIMLTEX2
  6
ByLayer
  9
$DIMTXTDIRECTION
 70
     0
  9
$LUNITS
 70
     2
  9
$LUPREC
 70
     8
  9
$SKETCHINC
 40
0.1
  9
$FILLETRAD
 40
0.0
  9
$AUNITS
 70
     0
  9
$AUPREC
 70
     0
  9
$MENU
  1
.
  9
$ELEVATION
 40
0.0
  9
$PELEVATION
 40
0.0
  9
$THICKNESS
 40
0.0
  9
$LIMCHECK
 70
     0
  9
$CHAMFERA
 40
0.0
  9
$CHAMFERB
 40
0.0
  9
$CHAMFERC
 40
1.0
  9
$CHAMFERD
 40
0.0
  9
$SKPOLY
 70
     0
  9
$TDCREATE
 40
2453883.125682871
  9
$TDUCREATE
 40
2453882.792357350
  9
$TDUPDATE
 40
2455601.494444445
  9
$TDUUPDATE
 40
2455601.161122049
  9
$TDINDWG
 40
10.0082541551
  9
$TDUSRTIMER
 40
10.0082541551
  9
$USRTIMER
 70
     1
  9
$ANGBASE
 50
0.0
  9
$ANGDIR
 70
     0
  9
$PDMODE
 70
     0
  9
$PDSIZE
 40
0.0
  9
$PLINEWID
 40
0.0
  9
$SPLFRAME
 70
     0
  9
$SPLINETYPE
 70
     6
  9
$SPLINESEGS
 70
     8
  9
$HANDSEED
  5
15F
  9
$SURFTAB1
 70
     6
  9
$SURFTAB2
 70
     6
  9
$SURFTYPE
 70
     6
  9
$SURFU
 70
     6
  9
$SURFV
 70
     6
  9
$UCSBASE
  2

  9
$UCSNAME
  2

  9
$UCSORG
 10
0.0
 20
0.0
 30
0.0
  9
$UCSXDIR
 10
1.0
 20
0.0
 30
0.0
  9
$UCSYDIR
 10
0.0
 20
1.0
 30
0.0
  9
$UCSORTHOREF
  2

  9
$UCSORTHOVIEW
 70
     0
  9
$UCSORGTOP
 10
0.0
 20
0.0
 30
0.0
  9
$UCSORGBOTTOM
 10
0.0
 20
0.0
 30
0.0
  9
$UCSORGLEFT
 10
0.0
 20
0.0
 30
0.0
  9
$UCSORGRIGHT
 10
0.0
 20
0.0
 30
0.0
  9
$UCSORGFRONT
 10
0.0
 20
0.0
 30
0.0
  9
$UCSORGBACK
 10
0.0
 20
0.0
 30
0.0
  9
$PUCSBASE
  2

  9
$PUCSNAME
  2

  9
$PUCSORG
 10
0.0
 20
0.0
 30
0.0
  9
$PUCSXDIR
 10
1.0
 20
0.0
 30
0.0
  9
$PUCSYDIR
 10
0.0
 20
1.0
 30
0.0
  9
$PUCSORTHOREF
  2

  9
$PUCSORTHOVIEW
 70
     0
  9
$PUCSORGTOP
 10
0.0
 20
0.0
 30
0.0
  9
$PUCSORGBOTTOM
 10
0.0
 20
0.0
 30
0.0
  9
$PUCSORGLEFT
 10
0.0
 20
0.0
 30
0.0
  9
$PUCSORGRIGHT
 10
0.0
 20
0.0
 30
0.0
  9
$PUCSORGFRONT
 10
0.0
 20
0.0
 30
0.0
  9
$PUCSORGBACK
 10
0.0
 20
0.0
 30
0.0
  9
$USERI1
 70
     0
  9
$USERI2
 70
     0
  9
$USERI3
 70
     0
  9
$USERI4
 70
     0
  9
$USERI5
 70
     0
  9
$USERR1
 40
0.0
  9
$USERR2
 40
0.0
  9
$USERR3
 40
0.0
  9
$USERR4
 40
0.0
  9
$USERR5
 40
0.0
  9
$WORLDVIEW
 70
     1
  9
$SHADEDGE
 70
     3
  9
$SHADEDIF
 70
    70
  9
$TILEMODE
 70
     1
  9
$MAXACTVP
 70
    64
  9
$PINSBASE
 10
0.0
 20
0.0
 30
0.0
  9
$PLIMCHECK
 70
     0
  9
$PEXTMIN
 10
1.000000000000000E+20
 20
1.000000000000000E+20
 30
1.000000000000000E+20
  9
$PEXTMAX
 10
-1.000000000000000E+20
 20
-1.000000000000000E+20
 30
-1.000000000000000E+20
  9
$PLIMMIN
 10
0.0
 20
0.0
  9
$PLIMMAX
 10
12.0
 20
9.0
  9
$UNITMODE
 70
     0
  9
$VISRETAIN
 70
     1
  9
$PLINEGEN
 70
     0
  9
$PSLTSCALE
 70
     1
  9
$TREEDEPTH
 70
  3020
  9
$CMLSTYLE
  2
Standard
  9
$CMLJUST
 70
     0
  9
$CMLSCALE
 40
1.0
  9
$PROXYGRAPHICS
 70
     1
  9
$MEASUREMENT
 70
     0
  9
$CELWEIGHT
370
    -1
  9
$ENDCAPS
280
     0
  9
$JOINSTYLE
280
     0
  9
$LWDISPLAY
290
     0
  9
$INSUNITS
 70
     0
  9
$HYPERLINKBASE
  1

  9
$STYLESHEET
  1

  9
$XEDIT
290
     1
  9
$CEPSNTYPE
380
     0
  9
$PSTYLEMODE
290
     1
  9
$FINGERPRINTGUID
  2
{85FD0DB0-7EB8-FE4D-BB69-82F60718C1DC}
  9
$VERSIONGUID
  2
{12A48438-84A3-4FD2-A276-BDF2C6C8AAFA}
  9
$EXTNAMES
290
     1
  9
$PSVPSCALE
 40
0.0
  9
$OLESTARTUP
290
     0
  9
$SORTENTS
280
   127
  9
$INDEXCTL
280
     0
  9
$HIDETEXT
280
     1
  9
$XCLIPFRAME
280
     2
  9
$HALOGAP
280
     0
  9
$OBSCOLOR
 70
   257
  9
$OBSLTYPE
280
     0
  9
$INTERSECTIONDISPLAY
280
     0
  9
$INTERSECTIONCOLOR
 70
   257
  9
$DIMASSOC
280
     0
  9
$PROJECTNAME
  1

  9
$CAMERADISPLAY
290
     0
  9
$LENSLENGTH
 40
50.0
  9
$CAMERAHEIGHT
 40
0.0
  9
$STEPSPERSEC
 40
2.0
  9
$STEPSIZE
 40
6.0
  9
$3DDWFPREC
 40
2.0
  9
$PSOLWIDTH
 40
0.25
  9
$PSOLHEIGHT
 40
4.0
  9
$LOFTANG1
 40
1.570796326794896
  9
$LOFTANG2
 40
1.570796326794896
  9
$LOFTMAG1
 40
0.0
  9
$LOFTMAG2
 40
0.0
  9
$LOFTPARAM
 70
     7
  9
$LOFTNORMALS
280
     1
  9
$LATITUDE
 40
37.795
  9
$LONGITUDE
 40
-122.394
  9
$NORTHDIRECTION
 40
0.0
  9
$TIMEZONE
 70
 -8000
  9
$LIGHTGLYPHDISPLAY
280
     1
  9
$TILEMODELIGHTSYNCH
280
     1
  9
$CMATERIAL
347
31
  9
$SOLIDHIST
280
     0
  9
$SHOWHIST
280
     1
  9
$DWFFRAME
280
     2
  9
$DGNFRAME
280
     0
  9
$REALWORLDSCALE
290
     1
  9
$INTERFERECOLOR
 62
     1
  9
$INTERFEREOBJVS
345
48
  9
$INTERFEREVPVS
346
49
  9
$CSHADOW
280
     0
  9
$SHADOWPLANELOCATION
 40
0.0
  0
ENDSEC
  0
SECTION
  2
CLASSES
  0
CLASS
  1
ACDBDICTIONARYWDFLT
  2
AcDbDictionaryWithDefault
  3
ObjectDBX Classes
 90
        0
 91
        1
280
     0
281
     0
  0
CLASS
  1
DICTIONARYVAR
  2
AcDbDictionaryVar
  3
ObjectDBX Classes
 90
        0
 91
       13
280
     0
281
     0
  0
CLASS
  1
TABLESTYLE
  2
AcDbTableStyle
  3
ObjectDBX Classes
 90
     4095
 91
        1
280
     0
281
     0
  0
CLASS
  1
SORTENTSTABLE
  2
AcDbSortentsTable
  3
ObjectDBX Classes
 90
        0
 91
        2
280
     0
281
     0
  0
CLASS
  1
VISUALSTYLE
  2
AcDbVisualStyle
  3
ObjectDBX Classes
 90
     4095
 91
        4
280
     0
281
     0
  0
CLASS
  1
MATERIAL
  2
AcDbMaterial
  3
ObjectDBX Classes
 90
     1153
 91
        3
280
     0
281
     0
  0
CLASS
  1
EXACXREFPANELOBJECT
  2
ExAcXREFPanelObject
  3
EXAC_ESW
 90
     1025
 91
        0
280
     1
281
     0
  0
CLASS
  1
NPOCOLLECTION
  2
AcDbImpNonPersistentObjectsCollection
  3
ObjectDBX Classes
 90
     1153
 91
        0
280
     0
281
     0
  0
CLASS
  1
DIMASSOC
  2
AcDbDimAssoc
  3
"AcDbDimAssoc|Product Desc:     AcDim ARX App For Dimension|Company:          Autodesk, Inc.|WEB Address:      www.autodesk.com"
 90
        0
 91
        0
280
     0
281
     0
  0
CLASS
  1
SCALE
  2
AcDbScale
  3
ObjectDBX Classes
 90
     1153
 91
       17
280
     0
281
     0
  0
CLASS
  1
MLEADERSTYLE
  2
AcDbMLeaderStyle
  3
ACDB_MLEADERSTYLE_CLASS
 90
     4095
 91
        0
280
     0
281
     0
  0
CLASS
  1
ACDBSECTIONVIEWSTYLE
  2
AcDbSectionViewStyle
  3
ObjectDBX Classes
 90
     1025
 91
        0
280
     0
281
     0
  0
CLASS
  1
ACDBDETAILVIEWSTYLE
  2
AcDbDetailViewStyle
  3
ObjectDBX Classes
 90
     1025
 91
        0
280
     0
281
     0
  0
CLASS
  1
SOLID_BACKGROUND
  2
AcDbSolidBackground
  3
SCENEOE
 90
     4095
 91
        0
280
     0
281
     0
  0
CLASS
  1
CELLSTYLEMAP
  2
AcDbCellStyleMap
  3
ObjectDBX Classes
 90
     1152
 91
        1
280
     0
281
     0
  0
ENDSEC
  0
SECTION
  2
TABLES
  0
TABLE
  2
VPORT
  5
23
102
{ACAD_XDICTIONARY
360
28
102
}
330
0
100
AcDbSymbolTable
 70
     1
  0
VPORT
  5
24
330
23
100
AcDbSymbolTableRecord
100
AcDbViewportTableRecord
  2
*Active
 70
     0
 10
0.0
 20
0.0
 11
1.0
 21
1.0
 12
691.9417809486993
 22
-172.3215290371393
 13
0.0
 23
0.0
 14
0.5
 24
0.5
 15
0.5
 25
0.5
 16
0.0
 26
0.0
 36
1.0
 17
0.0
 27
0.0
 37
0.0
 40
1.790731809720116
 41
2.311515151515151
 42
50.0
 43
0.0
 44
0.0
 50
0.0
 51
0.0
 71
     0
 72
   100
 73
     1
 74
     2
 75
     0
 76
     0
 77
     0
 78
     0
281
     0
 65
     1
110
0.0
120
0.0
130
0.0
111
1.0
121
0.0
131
0.0
112
0.0
122
1.0
132
0.0
 79
     0
146
0.0
348
25
 60
     3
 61
     5
292
     1
282
     1
141
0.0
142
0.0
 63
   250
421
  3355443
1001
ACAD_NAV_VCDISPLAY
1070
     3
  0
ENDTAB
  0
TABLE
  2
LTYPE
  5
1E
330
0
100
AcDbSymbolTable
 70
     3
  0
LTYPE
  5
1F
330
1E
100
AcDbSymbolTableRecord
100
AcDbLinetypeTableRecord
  2
ByBlock
 70
     0
  3

 72
    65
 73
     0
 40
0.0
  0
LTYPE
  5
20
330
1E
100
AcDbSymbolTableRecord
100
AcDbLinetypeTableRecord
  2
ByLayer
 70
     0
  3

 72
    65
 73
     0
 40
0.0
  0
LTYPE
  5
C
330
1E
100
AcDbSymbolTableRecord
100
AcDbLinetypeTableRecord
  2
Continuous
 70
     0
  3
Solid line
 72
    65
 73
     0
 40
0.0
  0
LTYPE
  5
5D
330
1E
100
AcDbSymbolTableRecord
100
AcDbLinetypeTableRecord
  2
CENTER
 70
     0
  3
Center ____ _ ____ _ ____ _ ____ _ ____ _ ____
 72
    65
 73
     4
 40
2.0
 49
1.25
 74
     0
 49
-0.25
 74
     0
 49
0.25
 74
     0
 49
-0.25
 74
     0
  0
LTYPE
  5
140
330
1E
100
AcDbSymbolTableRecord
100
AcDbLinetypeTableRecord
  2
HIDDEN2
 70
     0
  3
Hidden (.5x) _ _ _ _ _ _ _ _ _ _ _ _ _ _ _ _ _
 72
    65
 73
     2
 40
0.1875
 49
0.125
 74
     0
 49
-0.0625
 74
     0
  0
ENDTAB
  0
TABLE
  2
LAYER
  5
15
102
{ACAD_XDICTIONARY
360
16
102
}
330
0
100
AcDbSymbolTable
 70
     4
  0
LAYER
  5
6
330
15
100
AcDbSymbolTableRecord
100
AcDbLayerTableRecord
  2
0
 70
     0
 62
     7
  6
Continuous
370
    -3
390
7
347
A
348
0
  0
LAYER
  5
5C
330
15
100
AcDbSymbolTableRecord
100
AcDbLayerTableRecord
  2
2D
 70
     0
 62
     4
  6
Continuous
370
    -3
390
7
347
A
348
0
  0
LAYER
  5
45
330
15
100
AcDbSymbolTableRecord
100
AcDbLayerTableRecord
  2
Defpoints
 70
     0
 62
     7
  6
Continuous
290
     0
370
    -3
390
7
347
A
348
0
  0
LAYER
  5
65
330
15
100
AcDbSymbolTableRecord
100
AcDbLayerTableRecord
  2
2
 70
     0
 62
     7
  6
Continuous
370
    -3
390
7
347
A
348
0
1001
AcAecLayerStandard
1000

1000

  0
ENDTAB
  0
TABLE
  2
STYLE
  5
1B
330
0
100
AcDbSymbolTable
 70
     2
  0
STYLE
  5
1C
330
1B
100
AcDbSymbolTableRecord
100
AcDbTextStyleTableRecord
  2
Standard
 70
     0
 40
0.0
 41
1.0
 50
0.0
 71
     0
 42
0.45
  3
txt
  4

  0
STYLE
  5
60
330
1B
100
AcDbSymbolTableRecord
100
AcDbTextStyleTableRecord
  2
SIMPLEX
 70
     0
 40
0.0
 41
1.0
 50
0.0
 71
     0
 42
0.0045
  3
SIMPLEX
  4

  0
ENDTAB
  0
TABLE
  2
VIEW
  5
21
330
0
100
AcDbSymbolTable
 70
     0
  0
ENDTAB
  0
TABLE
  2
UCS
  5
22
330
0
100
AcDbSymbolTable
 70
     0
  0
ENDTAB
  0
TABLE
  2
APPID
  5
29
330
0
100
AcDbSymbolTable
 70
     5
  0
APPID
  5
1A
330
29
100
AcDbSymbolTableRecord
100
AcDbRegAppTableRecord
  2
ACAD
 70
     0
  0
APPID
  5
2C
330
29
100
AcDbSymbolTableRecord
100
AcDbRegAppTableRecord
  2
ACAD_DSTYLE_DIMJOGGED_JOGANGLE_SYMBOL
 70
     0
  0
APPID
  5
10
330
29
100
AcDbSymbolTableRecord
100
AcDbRegAppTableRecord
  2
ACAD_PSEXT
 70
     0
  0
APPID
  5
66
330
29
100
AcDbSymbolTableRecord
100
AcDbRegAppTableRecord
  2
AcAecLayerStandard
 70
     0
  0
APPID
  5
27
330
29
100
AcDbSymbolTableRecord
100
AcDbRegAppTableRecord
  2
ACAD_NAV_VCDISPLAY
 70
     0
  0
ENDTAB
  0
TABLE
  2
DIMSTYLE
  5
2A
330
0
100
AcDbSymbolTable
 70
     1
100
AcDbDimStyleTable
 71
     1
340
2B
  0
DIMSTYLE
105
2B
330
2A
100
AcDbSymbolTableRecord
100
AcDbDimStyleTableRecord
  2
Standard
 70
     0
 40
0.05
 41
0.08
 42
0.0266
 43
0.0266
 44
0.0266
 48
1.25
 49
0.0072
 73
     0
 74
     0
 78
     1
 79
     1
140
0.08
141
0.0
147
0.0266
172
     1
176
   256
177
   256
178
   256
289
     0
340
1C
345
20
346
20
347
20
371
    -1
372
    -1
1001
ACAD_DSTYLE_DIMJOGGED_JOGANGLE_SYMBOL
1070
   384
1040
0.7853981633974483
  0
ENDTAB
  0
TABLE
  2
BLOCK_RECORD
  5
1
330
0
100
AcDbSymbolTable
 70
     0
  0
BLOCK_RECORD
  5
2
102
{ACAD_XDICTIONARY
360
3
102
}
330
1
100
AcDbSymbolTableRecord
100
AcDbBlockTableRecord
  2
*Model_Space
340
E
 70
     0
280
     1
281
     0
  0
BLOCK_RECORD
  5
11
330
1
100
AcDbSymbolTableRecord
100
AcDbBlockTableRecord
  2
*Paper_Space
340
14
 70
     0
280
     1
281
     0
  0
ENDTAB
  0
ENDSEC
  0
SECTION
  2
BLOCKS
  0
BLOCK
  5
5
330
2
100
AcDbEntity
  8
0
100
AcDbBlockBegin
  2
*Model_Space
 70
     0
 10
0.0
 20
0.0
 30
0.0
  3
*Model_Space
  1

  0
ENDBLK
  5
D
330
2
100
AcDbEntity
  8
0
100
AcDbBlockEnd
  0
BLOCK
  5
12
330
11
100
AcDbEntity
 67
     1
  8
0
100
AcDbBlockBegin
  2
*Paper_Space
 70
     0
 10
0.0
 20
0.0
 30
0.0
  3
*Paper_Space
  1

  0
ENDBLK
  5
13
330
11
100
AcDbEntity
 67
     1
  8
0
100
AcDbBlockEnd
  0
ENDSEC
  0
SECTION
  2
ENTITIES
  0
LINE
  5
5B
330
2
100
AcDbEntity
  8
2D
  6
CENTER
 48
0.01
100
AcDbLine
 10
-0.7345448197668248
 20
-0.1643721258045616
 30
0.0
 11
-0.6326083106118859
 21
-0.1643721258046753
 31
0.0
  0
LINE
  5
5E
330
2
100
AcDbEntity
  8
2D
  6
CENTER
 48
0.01
100
AcDbLine
 10
-0.6835765651893553
 20
-0.113403871227348
 30
0.0
 11
-0.6835765651893553
 21
-0.21534038038223
 31
0.0
  0
MTEXT
  5
5F
330
2
100
AcDbEntity
  8
2D
100
AcDbMText
 10
-0.6914712577015508
 20
0.202470993315444
 30
0.0
 40
0.0070866141732283
 41
0.0
 46
0.0
 71
     5
 72
     1
  1
\A1;{\LAg DOUBLE RING PLATE}
  7
SIMPLEX
 73
     1
 44
1.0
  0
HATCH
  5
61
330
2
100
AcDbEntity
  8
2D
100
AcDbHatch
 10
0.0
 20
0.0
 30
0.0
210
0.0
220
0.0
230
1.0
  2
DOTS
 70
     0
 71
     0
 91
        1
 92
        7
 72
     0
 73
     1
 93
        4
 10
-1.005652298739278
 20
-0.598840588597426
 10
-1.038026437501343
 20
-0.598840588597426
 10
-1.038026437501343
 20
-0.6239949543098362
 10
-1.005652298739278
 20
-0.6239949543098362
 97
        0
 75
     0
 76
     1
 52
0.0
 41
0.0374015748031496
 77
     0
 78
     1
 53
0.0
 43
-0.1155559984459842
 44
0.1005948505312517
 45
0.0011687992125984
 46
0.0023375984251969
 79
     2
 49
0.0
 49
-0.0023375984251969
 47
0.0045481695952213
 98
        1
 10
-1.020664898963445
 20
-0.6094426913352038
1001
ACAD
1010
0.0
1020
0.0
1030
0.0
  0
LWPOLYLINE
  5
62
330
2
100
AcDbEntity
  8
2D
 62
     7
100
AcDbPolyline
 90
        4
 70
     1
 43
0.0
 10
-1.038026437501343
 20
-0.598840588597426
 10
-1.005652298739278
 20
-0.598840588597426
 10
-1.005652298739278
 20
-0.6239949543098362
 10
-1.038026437501343
 20
-0.6239949543098362
  0
MTEXT
  5
63
330
2
100
AcDbEntity
  8
2D
100
AcDbMText
 10
-0.9538685606358967
 20
-0.6110741357027792
 30
0.0
 40
0.0067322834645669
 41
0.0
 46
0.0
 71
     5
 72
     1
  1
\A1; MIN PLATING AREA 
  7
SIMPLEX
 73
     1
 44
1.0
  0
LWPOLYLINE
  5
64
330
2
100
AcDbEntity
  8
2
100
AcDbPolyline
 90
        4
 70
     1
 43
0.0
 10
-0.8755765651892488
 20
-0.3473721258046112
 10
-0.8755765651892488
 20
-0.33137212580462
 10
-0.4915765651894617
 20
-0.33137212580462
 10
-0.491576565189348
 20
-0.3473721258046112
  0
LWPOLYLINE
  5
67
330
2
100
AcDbEntity
  8
2
100
AcDbPolyline
 90
        4
 70
     1
 43
0.0
 10
-0.8755765651892488
 20
0.0026278741954116
 10
-0.8755765651892488
 20
0.0186278741953743
 10
-0.4915765651894617
 20
0.0186278741953743
 10
-0.491576565189348
 20
0.0026278741954116
  0
LINE
  5
68
330
2
100
AcDbEntity
  8
2D
  6
CENTER
 62
     4
 48
0.4
100
AcDbLine
 10
-0.887589081586384
 20
-0.2883721258046421
 30
0.0
 11
-0.863564048792341
 21
-0.2883721258046137
 31
0.0
  0
LINE
  5
69
330
2
100
AcDbEntity
  8
2D
  6
CENTER
 62
     4
 48
0.4
100
AcDbLine
 10
-0.8755765651893625
 20
-0.2957747876858434
 30
0.0
 11
-0.8755765651893625
 21
-0.2809694639234408
 31
0.0
  0
LINE
  5
6A
330
2
100
AcDbEntity
  8
2D
100
AcDbLine
 10
-0.627723064169345
 20
-0.1643721258047321
 30
0.0
 11
-0.4981773505435286
 21
-0.1643721258047321
 31
0.0
  0
SOLID
  5
6B
330
2
100
AcDbEntity
  8
2D
100
AcDbTrace
 10
-0.8642092017164486
 20
-0.1702776376157544
 30
0.0
 11
-0.8651934536849239
 21
-0.1643721258047321
 31
0.0
 12
-0.8661777056533992
 22
-0.1702776376157544
 32
0.0
 13
-0.8661777056533992
 23
-0.1702776376157544
 33
0.0
1001
ACAD
1000
DSTYLE
1002
{
1070
   147
1040
0.05
1070
    77
1070
     0
1002
}
  0
LWPOLYLINE
  5
6D
330
2
100
AcDbEntity
  8
2D
100
AcDbPolyline
 90
        2
 70
     0
 43
0.0
 10
-0.8651934536849239
 20
-0.1702776376157544
 10
-0.8651934536849239
 20
-0.1772360643040827
1001
ACAD
1000
DSTYLE
1002
{
1070
   147
1040
0.05
1070
    77
1070
     0
1002
}
  0
MTEXT
  5
6E
330
2
100
AcDbEntity
  8
2D
100
AcDbMText
 10
-0.8651999919136414
 20
-0.1829781091435052
 30
0.0
 40
0.0059055118110236
 41
0.0
 46
0.0
 71
     5
 72
     1
  1
\A1;A
  7
SIMPLEX
 73
     1
 44
1.0
  0
SOLID
  5
6F
330
2
100
AcDbEntity
  8
2D
100
AcDbTrace
 10
-0.5014897000849033
 20
-0.1702776376157544
 30
0.0
 11
-0.500505448116428
 21
-0.1643721258047321
 31
0.0
 12
-0.4995211961479527
 22
-0.1702776376157544
 32
0.0
 13
-0.4995211961479527
 23
-0.1702776376157544
 33
0.0
1001
ACAD
1000
DSTYLE
1002
{
1070
   147
1040
0.05
1070
    77
1070
     0
1002
}
  0
LWPOLYLINE
  5
70
330
2
100
AcDbEntity
  8
2D
100
AcDbPolyline
 90
        2
 70
     0
 43
0.0
 10
-0.500505448116428
 20
-0.1702776376157544
 10
-0.500505448116428
 20
-0.1772360643040827
1001
ACAD
1000
DSTYLE
1002
{
1070
   147
1040
0.05
1070
    77
1070
     0
1002
}
  0
MTEXT
  5
71
330
2
100
AcDbEntity
  8
2D
100
AcDbMText
 10
-0.5004989098877104
 20
-0.1829781091435052
 30
0.0
 40
0.0059055118110236
 41
0.0
 46
0.0
 71
     5
 72
     1
  1
\A1;A
  7
SIMPLEX
 73
     1
 44
1.0
  0
SOLID
  5
72
330
2
100
AcDbEntity
  8
2D
100
AcDbTrace
 10
-0.8935176165058464
 20
-0.2989358831768527
 30
0.0
 11
-0.8878574501765115
 21
-0.2969848991144772
 31
0.0
 12
-0.8925789099813528
 22
-0.3006661541992344
 32
0.0
 13
-0.8925789099813528
 23
-0.3006661541992344
 33
0.0
1001
ACAD
1000
DSTYLE
1002
{
1070
    77
1070
     0
1070
    41
1040
0.15
1070
    42
1040
0.05
1070
    43
1040
0.05
1070
    44
1040
0.05
1070
    90
1070
     1
1070
   140
1040
0.15
1070
   147
1040
0.05
1002
}
  0
LINE
  5
73
330
2
100
AcDbEntity
  8
2D
100
AcDbLine
 10
-0.8930482632435996
 20
-0.2998010186880435
 30
0.0
 11
-0.910127154806446
 21
-0.3090666578476657
 31
0.0
1001
ACAD
1000
DSTYLE
1002
{
1070
    77
1070
     0
1070
    41
1040
0.15
1070
    42
1040
0.05
1070
    43
1040
0.05
1070
    44
1040
0.05
1070
    90
1070
     1
1070
   140
1040
0.15
1070
   147
1040
0.05
1002
}
  0
LINE
  5
74
330
2
100
AcDbEntity
  8
2D
100
AcDbLine
 10
-0.910127154806446
 20
-0.3090666578476657
 30
0.0
 11
-0.9160326666174114
 21
-0.3090666578476657
 31
0.0
1001
ACAD
1000
DSTYLE
1002
{
1070
    77
1070
     0
1070
    41
1040
0.15
1070
    42
1040
0.05
1070
    43
1040
0.05
1070
    44
1040
0.05
1070
    90
1070
     1
1070
   140
1040
0.15
1070
   147
1040
0.05
1002
}
  0
MTEXT
  5
75
330
2
100
AcDbEntity
  8
2D
100
AcDbMText
 10
-0.9180011705544757
 20
-0.3120194137531769
 30
0.0
 40
0.0059055118110236
 41
0.1181102362204724
 46
0.0
 71
     9
 72
     1
  1
\A1;R0.0150
 73
     1
 44
1.0
  0
LINE
  5
76
330
2
100
AcDbEntity
  8
2D
 62
     7
100
AcDbLine
 10
-0.7715765651797711
 20
-0.4429849345655441
 30
0.0
 11
-0.5955765651872298
 21
-0.4429849345662547
 31
0.0
  0
LINE
  5
77
330
2
100
AcDbEntity
  8
2D
 62
     7
100
AcDbLine
 10
-0.7715765651796574
 20
-0.4509849345655823
 30
0.0
 11
-0.5955765651871161
 21
-0.4509849345662645
 31
0.0
  0
LINE
  5
78
330
2
100
AcDbEntity
  8
2D
  6
CENTER
 48
0.8
100
AcDbLine
 10
-0.6835765651893553
 20
-0.4278074599293405
 30
0.0
 11
-0.6835765651893553
 21
-0.4631624092032212
 31
0.0
  0
LINE
  5
79
330
2
100
AcDbEntity
  8
2D
 62
     7
100
AcDbLine
 10
-0.8201218535378984
 20
-0.4369849345656008
 30
0.0
 11
-0.7819688700249117
 21
-0.4369849345655723
 31
0.0
  0
LINE
  5
7A
330
2
100
AcDbEntity
  8
2D
 62
     7
100
AcDbLine
 10
-0.8201218535378984
 20
-0.4449849345656105
 30
0.0
 11
-0.7819688700249117
 21
-0.4449849345656105
 31
0.0
  0
LINE
  5
7B
330
2
100
AcDbEntity
  8
2D
 62
     7
100
AcDbLine
 10
-0.7819688700249117
 20
-0.4449849345656105
 30
0.0
 11
-0.7715765651796574
 21
-0.4509849345655823
 31
0.0
  0
LINE
  5
7C
330
2
100
AcDbEntity
  8
2D
100
AcDbLine
 10
-0.6835765651893553
 20
-0.1114038712273384
 30
0.0
 11
-0.6835765651893553
 21
0.0570773153544906
 31
0.0
  0
MTEXT
  5
7D
330
2
100
AcDbEntity
  8
2D
100
AcDbMText
 10
-0.6835765651893553
 20
0.0715773153546024
 30
0.0
 40
0.006
 41
0.0
 46
0.0
 71
     5
 72
     1
  1
\A1;0.0000
 11
0.0000000000000001
 21
1.0
 31
0.0
 73
     1
 44
1.0
  0
LINE
  5
7E
330
2
100
AcDbEntity
  8
2D
100
AcDbLine
 10
-0.4915765651894617
 20
0.0206278741953838
 30
0.0
 11
-0.4915765651894617
 21
0.0570773153544906
 31
0.0
  0
MTEXT
  5
7F
330
2
100
AcDbEntity
  8
2D
100
AcDbMText
 10
-0.4915765651894617
 20
0.0720773153545906
 30
0.0
 40
0.006
 41
0.0
 46
0.0
 71
     5
 72
     1
  1
\A1;0.1920
 11
0.0000000000000001
 21
1.0
 31
0.0
 73
     1
 44
1.0
  0
LINE
  5
80
330
2
100
AcDbEntity
  8
2D
100
AcDbLine
 10
-0.8010765651893052
 20
-0.0103721258046505
 30
0.0
 11
-0.8010765651893052
 21
0.0570773153544906
 31
0.0
  0
MTEXT
  5
81
330
2
100
AcDbEntity
  8
2D
100
AcDbMText
 10
-0.8010765651893052
 20
0.0715773153546024
 30
0.0
 40
0.006
 41
0.0
 46
0.0
 71
     5
 72
     1
  1
\A1;0.1175
 11
0.0000000000000001
 21
1.0
 31
0.0
 73
     1
 44
1.0
  0
LINE
  5
82
330
2
100
AcDbEntity
  8
2D
100
AcDbLine
 10
-0.8755765651892488
 20
0.0206278741953838
 30
0.0
 11
-0.8755765651891351
 21
0.0570773153544906
 31
0.0
  0
MTEXT
  5
83
330
2
100
AcDbEntity
  8
2D
100
AcDbMText
 10
-0.8755765651891351
 20
0.0720773153545906
 30
0.0
 40
0.006
 41
0.0
 46
0.0
 71
     5
 72
     1
  1
\A1;0.1920
 11
0.0000000000000001
 21
1.0
 31
0.0
 73
     1
 44
1.0
  0
LINE
  5
84
330
2
100
AcDbEntity
  8
2D
100
AcDbLine
 10
-0.8775765651892015
 20
-0.3473721258046112
 30
0.0
 11
-0.9212511828698097
 21
-0.3473721258046112
 31
0.0
  0
MTEXT
  5
85
330
2
100
AcDbEntity
  8
2D
100
AcDbMText
 10
-0.9362511828697961
 20
-0.3473721258046112
 30
0.0
 40
0.006
 41
0.0
 46
0.0
 71
     5
 72
     1
  1
\A1;0.1830
 73
     1
 44
1.0
  0
LINE
  5
86
330
2
100
AcDbEntity
  8
2D
100
AcDbLine
 10
-0.8775765651892015
 20
-0.33137212580462
 30
0.0
 11
-0.9212511828698097
 21
-0.33137212580462
 31
0.0
  0
MTEXT
  5
87
330
2
100
AcDbEntity
  8
2D
100
AcDbMText
 10
-0.9362511828697961
 20
-0.33137212580462
 30
0.0
 40
0.006
 41
0.0
 46
0.0
 71
     5
 72
     1
  1
\A1;0.1670
 73
     1
 44
1.0
  0
LINE
  5
88
330
2
100
AcDbEntity
  8
2D
100
AcDbLine
 10
-0.8895890815863367
 20
-0.2883721258046421
 30
0.0
 11
-0.9212511828698097
 21
-0.2883721258046421
 31
0.0
  0
MTEXT
  5
89
330
2
100
AcDbEntity
  8
2D
100
AcDbMText
 10
-0.9362511828697961
 20
-0.2883721258046421
 30
0.0
 40
0.006
 41
0.0
 46
0.0
 71
     5
 72
     1
  1
\A1;0.1240
 73
     1
 44
1.0
  0
LINE
  5
8A
330
2
100
AcDbEntity
  8
2D
100
AcDbLine
 10
-0.8775765651892015
 20
-0.2603721258046221
 30
0.0
 11
-0.9212511828698097
 21
-0.2603721258046221
 31
0.0
  0
MTEXT
  5
8B
330
2
100
AcDbEntity
  8
2D
100
AcDbMText
 10
-0.9367511828697843
 20
-0.2603721258046221
 30
0.0
 40
0.006
 41
0.0
 46
0.0
 71
     5
 72
     1
  1
\A1;0.0960
 73
     1
 44
1.0
  0
LINE
  5
8C
330
2
100
AcDbEntity
  8
2D
100
AcDbLine
 10
-0.8775765651892015
 20
-0.2503721258063933
 30
0.0
 11
-0.9212511828698097
 21
-0.2503721258063933
 31
0.0
  0
MTEXT
  5
8D
330
2
100
AcDbEntity
  8
2D
100
AcDbMText
 10
-0.9367511828697843
 20
-0.2503721258063933
 30
0.0
 40
0.006
 41
0.0
 46
0.0
 71
     5
 72
     1
  1
\A1;0.0860
 73
     1
 44
1.0
  0
LINE
  5
8E
330
2
100
AcDbEntity
  8
2D
100
AcDbLine
 10
-0.7365448197667775
 20
-0.1643721258045616
 30
0.0
 11
-0.9212511828698097
 21
-0.1643721258045616
 31
0.0
  0
MTEXT
  5
8F
330
2
100
AcDbEntity
  8
2D
100
AcDbMText
 10
-0.9357511828698079
 20
-0.1643721258045616
 30
0.0
 40
0.006
 41
0.0
 46
0.0
 71
     5
 72
     1
  1
\A1;0.0000
 73
     1
 44
1.0
  0
LINE
  5
90
330
2
100
AcDbEntity
  8
2D
100
AcDbLine
 10
-0.8775765651887468
 20
-0.0863721258068608
 30
0.0
 11
-0.8972511828698088
 21
-0.0863721258068608
 31
0.0
  0
LINE
  5
91
330
2
100
AcDbEntity
  8
2D
100
AcDbLine
 10
-0.8972511828698088
 20
-0.0863721258068608
 30
0.0
 11
-0.9092511828698661
 21
-0.0895192985481686
 31
0.0
  0
LINE
  5
92
330
2
100
AcDbEntity
  8
2D
100
AcDbLine
 10
-0.9092511828698661
 20
-0.0895192985481686
 30
0.0
 11
-0.9212511828698097
 21
-0.0895192985481686
 31
0.0
  0
MTEXT
  5
93
330
2
100
AcDbEntity
  8
2D
100
AcDbMText
 10
-0.9367511828697843
 20
-0.0895192985481686
 30
0.0
 40
0.006
 41
0.0
 46
0.0
 71
     5
 72
     1
  1
\A1;0.0780
 73
     1
 44
1.0
  0
LINE
  5
94
330
2
100
AcDbEntity
  8
2D
100
AcDbLine
 10
-0.8775765651887468
 20
-0.0783721258068795
 30
0.0
 11
-0.9212511828698097
 21
-0.0783721258068795
 31
0.0
  0
MTEXT
  5
95
330
2
100
AcDbEntity
  8
2D
100
AcDbMText
 10
-0.9367511828697843
 20
-0.0783721258068795
 30
0.0
 40
0.006
 41
0.0
 46
0.0
 71
     5
 72
     1
  1
\A1;0.0860
 73
     1
 44
1.0
  0
LINE
  5
96
330
2
100
AcDbEntity
  8
2D
100
AcDbLine
 10
-0.8775765651892015
 20
-0.0683721258046717
 30
0.0
 11
-0.9212511828698097
 21
-0.0683721258046717
 31
0.0
  0
MTEXT
  5
97
330
2
100
AcDbEntity
  8
2D
100
AcDbMText
 10
-0.9367511828697843
 20
-0.0683721258046717
 30
0.0
 40
0.006
 41
0.0
 46
0.0
 71
     5
 72
     1
  1
\A1;0.0960
 73
     1
 44
1.0
  0
LINE
  5
98
330
2
100
AcDbEntity
  8
2D
100
AcDbLine
 10
-0.8775765651892015
 20
-0.0123721258046601
 30
0.0
 11
-0.9212511828698097
 21
-0.0123721258046601
 31
0.0
  0
MTEXT
  5
99
330
2
100
AcDbEntity
  8
2D
100
AcDbMText
 10
-0.9362511828697961
 20
-0.0123721258046601
 30
0.0
 40
0.006
 41
0.0
 46
0.0
 71
     5
 72
     1
  1
\A1;0.1520
 73
     1
 44
1.0
  0
LINE
  5
9A
330
2
100
AcDbEntity
  8
2D
100
AcDbLine
 10
-0.8775765651892015
 20
0.0026278741954116
 30
0.0
 11
-0.9212511828698097
 21
0.0026278741954116
 31
0.0
  0
MTEXT
  5
9B
330
2
100
AcDbEntity
  8
2D
100
AcDbMText
 10
-0.9362511828697961
 20
0.0026278741954116
 30
0.0
 40
0.006
 41
0.0
 46
0.0
 71
     5
 72
     1
  1
\A1;0.1670
 73
     1
 44
1.0
  0
LINE
  5
9C
330
2
100
AcDbEntity
  8
2D
100
AcDbLine
 10
-0.8775765651892015
 20
0.0186278741953743
 30
0.0
 11
-0.9212511828698097
 21
0.0186278741953459
 31
0.0
  0
MTEXT
  5
9D
330
2
100
AcDbEntity
  8
2D
100
AcDbMText
 10
-0.9362511828697961
 20
0.0186278741953459
 30
0.0
 40
0.006
 41
0.0
 46
0.0
 71
     5
 72
     1
  1
\A1;0.1830
 73
     1
 44
1.0
  0
LINE
  5
9E
330
2
100
AcDbEntity
  8
2D
100
AcDbLine
 10
-0.8221218535378511
 20
-0.4449849345656105
 30
0.0
 11
-0.8536109571676888
 21
-0.4449849345656105
 31
0.0
  0
LINE
  5
9F
330
2
100
AcDbEntity
  8
2D
100
AcDbLine
 10
-0.8221218535378511
 20
-0.4369849345656008
 30
0.0
 11
-0.8536109571676888
 21
-0.4369849345656008
 31
0.0
  0
LINE
  5
A0
330
2
100
AcDbEntity
  8
2D
100
AcDbLine
 10
-0.8516109571677361
 20
-0.4509849345656108
 30
0.0
 11
-0.8516109571677361
 21
-0.456984934565611
 31
0.0
  0
LINE
  5
A1
330
2
100
AcDbEntity
  8
2D
100
AcDbLine
 10
-0.8516109571677361
 20
-0.4309849345656005
 30
0.0
 11
-0.8516109571677361
 21
-0.4249849345656003
 31
0.0
  0
LINE
  5
A2
330
2
100
AcDbEntity
  8
2D
100
AcDbLine
 10
-0.8516109571677361
 20
-0.4449849345656105
 30
0.0
 11
-0.8516109571677361
 21
-0.4369849345656008
 31
0.0
  0
SOLID
  5
A3
330
2
100
AcDbEntity
  8
2D
100
AcDbTrace
 10
-0.8526109571677125
 20
-0.4509849345656108
 30
0.0
 11
-0.8506109571677598
 21
-0.4509849345656108
 31
0.0
 12
-0.8516109571677361
 22
-0.4449849345656105
 32
0.0
 13
-0.8516109571677361
 23
-0.4449849345656105
 33
0.0
  0
SOLID
  5
A4
330
2
100
AcDbEntity
  8
2D
100
AcDbTrace
 10
-0.8526109571677125
 20
-0.4309849345656005
 30
0.0
 11
-0.8506109571677598
 21
-0.4309849345656005
 31
0.0
 12
-0.8516109571677361
 22
-0.4369849345656008
 32
0.0
 13
-0.8516109571677361
 23
-0.4369849345656008
 33
0.0
  0
MTEXT
  5
A5
330
2
100
AcDbEntity
  8
2D
100
AcDbMText
 10
-0.8516109571677361
 20
-0.4893530965559876
 30
0.0
 40
0.006
 41
0.0
 46
0.0
 71
     5
 72
     1
  1
\A1;0.0080%%p0.0003
 11
0.0000000000000001
 21
1.0
 31
0.0
 73
     1
 44
1.0
  0
MTEXT
  5
A6
330
2
100
AcDbEntity
  8
2D
100
AcDbMText
 10
-0.6865996573675375
 20
-0.4976996576471038
 30
0.0
 40
0.0070866141732283
 41
0.0
 46
0.0
 71
     5
 72
     1
  1
\A1;{\LSECTION A-A}
  7
SIMPLEX
 73
     1
 44
1.0
  0
LINE
  5
A7
330
2
100
AcDbEntity
  8
2D
100
AcDbLine
 10
-0.7851839775253211
 20
-0.2283721258037588
 30
0.0
 11
-0.8972511828698088
 21
-0.2283721258037588
 31
0.0
  0
LINE
  5
A8
330
2
100
AcDbEntity
  8
2D
100
AcDbLine
 10
-0.8972511828698088
 20
-0.2283721258037588
 30
0.0
 11
-0.9092511828698661
 21
-0.2283721258037588
 31
0.0
  0
LINE
  5
A9
330
2
100
AcDbEntity
  8
2D
100
AcDbLine
 10
-0.9092511828698661
 20
-0.2283721258037588
 30
0.0
 11
-0.9212511828698097
 21
-0.2283721258037588
 31
0.0
  0
MTEXT
  5
AA
330
2
100
AcDbEntity
  8
2D
100
AcDbMText
 10
-0.9712511828697643
 20
-0.2283721258037588
 30
0.0
 40
0.006
 41
0.0
 46
0.0
 71
     5
 72
     1
  1
\A1;0.0640 MIN PLATING
 73
     1
 44
1.0
  0
LINE
  5
AB
330
2
100
AcDbEntity
  8
2D
100
AcDbLine
 10
-0.794241075995501
 20
-0.2373878738353881
 30
0.0
 11
-0.9212511828698097
 21
-0.2373878738353881
 31
0.0
  0
MTEXT
  5
AC
330
2
100
AcDbEntity
  8
2D
100
AcDbMText
 10
-0.9722511828698543
 20
-0.2373878738353881
 30
0.0
 40
0.006
 41
0.0
 46
0.0
 71
     5
 72
     1
  1
\A1;0.0730 MAX PLATING
 73
     1
 44
1.0
  0
LINE
  5
AD
330
2
100
AcDbEntity
  8
2D
100
AcDbLine
 10
-0.745702549443422
 20
-0.1067507086421244
 30
0.0
 11
-0.745702549443422
 21
0.0330773153544897
 31
0.0
  0
LINE
  5
AE
330
2
100
AcDbEntity
  8
2D
100
AcDbLine
 10
-0.745702549443422
 20
0.0330773153544897
 30
0.0
 11
-0.745702549443422
 21
0.0450773153544901
 31
0.0
  0
LINE
  5
AF
330
2
100
AcDbEntity
  8
2D
100
AcDbLine
 10
-0.745702549443422
 20
0.0450773153544901
 30
0.0
 11
-0.745702549443422
 21
0.0570773153544906
 31
0.0
  0
MTEXT
  5
B0
330
2
100
AcDbEntity
  8
2D
100
AcDbMText
 10
-0.745702549443422
 20
0.1060773153546108
 30
0.0
 40
0.006
 41
0.0
 46
0.0
 71
     5
 72
     1
  1
\A1;0.0621 MIN PLATING
 11
0.0000000000000001
 21
1.0
 31
0.0
 73
     1
 44
1.0
  0
LINE
  5
B1
330
2
100
AcDbEntity
  8
2D
100
AcDbLine
 10
-0.737828533695506
 20
-0.1176538466315833
 30
0.0
 11
-0.737828533695506
 21
0.0330773153544897
 31
0.0
  0
LINE
  5
B2
330
2
100
AcDbEntity
  8
2D
100
AcDbLine
 10
-0.737828533695506
 20
0.0330773153544897
 30
0.0
 11
-0.737828533695506
 21
0.0450773153544901
 31
0.0
  0
LINE
  5
B3
330
2
100
AcDbEntity
  8
2D
100
AcDbLine
 10
-0.737828533695506
 20
0.0450773153544901
 30
0.0
 11
-0.737828533695506
 21
0.0570773153544906
 31
0.0
  0
MTEXT
  5
B4
330
2
100
AcDbEntity
  8
2D
100
AcDbMText
 10
-0.737828533695506
 20
0.106577315354599
 30
0.0
 40
0.006
 41
0.0
 46
0.0
 71
     5
 72
     1
  1
\A1;0.0543 MAX PLATING
 11
0.0000000000000001
 21
1.0
 31
0.0
 73
     1
 44
1.0
  0
LINE
  5
B5
330
2
100
AcDbEntity
  8
2D
 62
     7
100
AcDbLine
 10
-0.5470312768289887
 20
-0.4369849345662829
 30
0.0
 11
-0.5851842603422029
 21
-0.4369849345662545
 31
0.0
  0
LINE
  5
B6
330
2
100
AcDbEntity
  8
2D
 62
     7
100
AcDbLine
 10
-0.5470312768289887
 20
-0.4449849345662927
 30
0.0
 11
-0.5851842603418618
 21
-0.4449849345663211
 31
0.0
  0
LINE
  5
B7
330
2
100
AcDbEntity
  8
2D
100
AcDbLine
 10
-0.7715765651796574
 20
-0.4409849345655914
 30
0.0
 11
-0.7715765651796574
 21
-0.4092812925355816
 31
0.0
  0
LINE
  5
B8
330
2
100
AcDbEntity
  8
2D
100
AcDbLine
 10
-0.5955765651872298
 20
-0.4409849345662451
 30
0.0
 11
-0.5955765651872298
 21
-0.4092812925362637
 31
0.0
  0
LINE
  5
B9
330
2
100
AcDbEntity
  8
2D
100
AcDbLine
 10
-0.7655765651796856
 20
-0.4112812925355911
 30
0.0
 11
-0.7160765651893826
 21
-0.4112812925362733
 31
0.0
  0
LINE
  5
BA
330
2
100
AcDbEntity
  8
2D
100
AcDbLine
 10
-0.6015765651872016
 20
-0.4112812925362733
 30
0.0
 11
-0.651076565189328
 21
-0.4112812925362733
 31
0.0
  0
SOLID
  5
BB
330
2
100
AcDbEntity
  8
2D
100
AcDbTrace
 10
-0.7655765651796856
 20
-0.4102812925355864
 30
0.0
 11
-0.7655765651796856
 21
-0.4122812925355959
 31
0.0
 12
-0.7715765651796574
 22
-0.4112812925355911
 32
0.0
 13
-0.7715765651796574
 23
-0.4112812925355911
 33
0.0
  0
SOLID
  5
BC
330
2
100
AcDbEntity
  8
2D
100
AcDbTrace
 10
-0.6015765651872016
 20
-0.4102812925362685
 30
0.0
 11
-0.6015765651872016
 21
-0.412281292536278
 31
0.0
 12
-0.5955765651872298
 22
-0.4112812925362733
 32
0.0
 13
-0.5955765651872298
 23
-0.4112812925362733
 33
0.0
  0
MTEXT
  5
BD
330
2
100
AcDbEntity
  8
2D
100
AcDbMText
 10
-0.6835765651893553
 20
-0.4112812925362733
 30
0.0
 40
0.006
 41
0.0
 46
0.0
 71
     5
 72
     1
  1
\A1;0.1760±0.0100
 73
     1
 44
1.0
  0
LINE
  5
BE
330
2
100
AcDbEntity
  8
2D
100
AcDbLine
 10
-0.545031276829036
 20
-0.4449849345662927
 30
0.0
 11
-0.5176519171629935
 21
-0.4449849345662927
 31
0.0
  0
LINE
  5
BF
330
2
100
AcDbEntity
  8
2D
100
AcDbLine
 10
-0.5935765651871634
 20
-0.4509849345662645
 30
0.0
 11
-0.5176519171629935
 21
-0.4509849345662645
 31
0.0
  0
LINE
  5
C0
330
2
100
AcDbEntity
  8
2D
100
AcDbLine
 10
-0.5196519171629462
 20
-0.4389849345662924
 30
0.0
 11
-0.5196519171629462
 21
-0.4329849345662922
 31
0.0
  0
LINE
  5
C1
330
2
100
AcDbEntity
  8
2D
100
AcDbLine
 10
-0.5196519171629462
 20
-0.4569849345662647
 30
0.0
 11
-0.5196519171629462
 21
-0.4629849345662649
 31
0.0
  0
LINE
  5
C2
330
2
100
AcDbEntity
  8
2D
100
AcDbLine
 10
-0.5196519171629462
 20
-0.4449849345662927
 30
0.0
 11
-0.5196519171629462
 21
-0.4509849345662645
 31
0.0
  0
SOLID
  5
C3
330
2
100
AcDbEntity
  8
2D
100
AcDbTrace
 10
-0.5206519171629225
 20
-0.4389849345662924
 30
0.0
 11
-0.5186519171629698
 21
-0.4389849345662924
 31
0.0
 12
-0.5196519171629462
 22
-0.4449849345662927
 32
0.0
 13
-0.5196519171629462
 23
-0.4449849345662927
 33
0.0
  0
SOLID
  5
C4
330
2
100
AcDbEntity
  8
2D
100
AcDbTrace
 10
-0.5206519171629225
 20
-0.4569849345662647
 30
0.0
 11
-0.5186519171629698
 21
-0.4569849345662647
 31
0.0
 12
-0.5196519171629462
 22
-0.4509849345662645
 32
0.0
 13
-0.5196519171629462
 23
-0.4509849345662645
 33
0.0
  0
MTEXT
  5
C5
330
2
100
AcDbEntity
  8
2D
100
AcDbMText
 10
-0.5196519171629462
 20
-0.4939849345661571
 30
0.0
 40
0.006
 41
0.0
 46
0.0
 71
     5
 72
     1
  1
\A1;0.0060±0.0010
 11
0.0000000000000001
 21
1.0
 31
0.0
 73
     1
 44
1.0
  0
LINE
  5
C6
330
2
100
AcDbEntity
  8
2D
 62
     7
100
AcDbLine
 10
-0.7819688700249117
 20
-0.4369849345655723
 30
0.0
 11
-0.7715765651797711
 21
-0.4429849345655441
 31
0.0
  0
LINE
  5
C7
330
2
100
AcDbEntity
  8
2D
 62
     7
100
AcDbLine
 10
-0.5851842603419755
 20
-0.4449849345662927
 30
0.0
 11
-0.5955765651872298
 21
-0.4509849345662645
 31
0.0
  0
LINE
  5
C8
330
2
100
AcDbEntity
  8
2D
 62
     7
100
AcDbLine
 10
-0.5851842603419755
 20
-0.4369849345662545
 30
0.0
 11
-0.5955765651871161
 21
-0.4429849345662263
 31
0.0
  0
LINE
  5
C9
330
2
100
AcDbEntity
  8
2D
100
AcDbLine
 10
-0.7837009208324162
 20
-0.4359849345655107
 30
0.0
 11
-0.8097709472735914
 21
-0.4209333977816528
 31
0.0
  0
ARC
  5
CA
330
2
100
AcDbEntity
  8
2D
100
AcDbCircle
 10
-0.7819688700249117
 20
-0.4369849345656008
 30
0.0
 40
0.0301030735672735
100
AcDbArc
 50
127.12218484901
 51
138.5610924242497
  0
ARC
  5
CB
330
2
100
AcDbEntity
  8
2D
100
AcDbCircle
 10
-0.7819688700249117
 20
-0.4369849345656008
 30
0.0
 40
0.0301030735672735
100
AcDbArc
 50
191.4389075752797
 51
202.8778151505159
  0
SOLID
  5
CC
330
2
100
AcDbEntity
  8
2D
100
AcDbTrace
 10
-0.8037241096777734
 20
-0.4176459025955524
 30
0.0
 11
-0.8053478803752796
 21
-0.4164782687823845
 31
0.0
 12
-0.8080388964659732
 22
-0.4219333977817144
 32
0.0
 13
-0.8080388964659732
 23
-0.4219333977817144
 33
0.0
  0
SOLID
  5
CD
330
2
100
AcDbEntity
  8
2D
100
AcDbTrace
 10
-0.8124690197953441
 20
-0.4430547229053162
 30
0.0
 11
-0.8104789762146538
 21
-0.4428554077095726
 31
0.0
 12
-0.8120719435921728
 22
-0.4369849345655723
 32
0.0
 13
-0.8120719435921728
 23
-0.4369849345655723
 33
0.0
  0
MTEXT
  5
CE
330
2
100
AcDbEntity
  8
2D
100
AcDbMText
 10
-0.806034160610352
 20
-0.4314717821444276
 30
0.0
 40
0.006
 41
0.0
 46
0.0
 71
     5
 72
     1
  1
\A1;30%%D
 73
     1
 44
1.0
  0
LINE
  5
CF
330
2
100
AcDbEntity
  8
2
100
AcDbLine
 10
-0.8010765651949895
 20
-0.2603721258055884
 30
0.0
 11
-0.8160765651949759
 21
-0.2603721258055884
 31
0.0
  0
LINE
  5
D0
330
2
100
AcDbEntity
  8
2
100
AcDbLine
 10
-0.8010765651949895
 20
-0.3163721258056285
 30
0.0
 11
-0.8160765651949759
 21
-0.3163721258056285
 31
0.0
  0
LINE
  5
D1
330
2
100
AcDbEntity
  8
2
100
AcDbLine
 10
-0.8010765651949895
 20
-0.012372125805598
 30
0.0
 11
-0.8160765651949759
 21
-0.012372125805598
 31
0.0
  0
LINE
  5
D2
330
2
100
AcDbEntity
  8
2
100
AcDbLine
 10
-0.8010765651949895
 20
-0.0683721258055812
 30
0.0
 11
-0.8160765651949759
 21
-0.0683721258055812
 31
0.0
  0
LINE
  5
D3
330
2
100
AcDbEntity
  8
2
100
AcDbLine
 10
-0.8160765651949759
 20
-0.2603721258055884
 30
0.0
 11
-0.8160765651949759
 21
-0.3163721258056285
 31
0.0
  0
LINE
  5
D4
330
2
100
AcDbEntity
  8
2
100
AcDbLine
 10
-0.8260765651949668
 20
-0.2603721258055884
 30
0.0
 11
-0.8755765651949332
 21
-0.2603721258055884
 31
0.0
  0
LINE
  5
D5
330
2
100
AcDbEntity
  8
2
100
AcDbLine
 10
-0.8260765651949668
 20
-0.2603721258055884
 30
0.0
 11
-0.8260765651949668
 21
-0.3163721258056
 31
0.0
  0
LINE
  5
D6
330
2
100
AcDbEntity
  8
2
100
AcDbLine
 10
-0.8260765651949668
 20
-0.3163721258056
 30
0.0
 11
-0.8755765651949332
 21
-0.3163721258056
 31
0.0
  0
ARC
  5
D7
330
2
100
AcDbEntity
  8
2
100
AcDbCircle
 10
-0.8755765651949332
 20
-0.2883721258056084
 30
0.0
 40
0.015
100
AcDbArc
 50
90.0
 51
270.0
  0
LINE
  5
D8
330
2
100
AcDbEntity
  8
2
100
AcDbLine
 10
-0.8755765651949332
 20
-0.2603721258055884
 30
0.0
 11
-0.8755765651949332
 21
-0.2733721258056221
 31
0.0
  0
LINE
  5
D9
330
2
100
AcDbEntity
  8
2
100
AcDbLine
 10
-0.8755765651949332
 20
-0.3033721258055948
 30
0.0
 11
-0.8755765651949332
 21
-0.3163721258056
 31
0.0
  0
LINE
  5
DA
330
2
100
AcDbEntity
  8
2
100
AcDbLine
 10
-0.8260765651949668
 20
-0.012372125805598
 30
0.0
 11
-0.8755765651949332
 21
-0.012372125805598
 31
0.0
  0
LINE
  5
DB
330
2
100
AcDbEntity
  8
2
100
AcDbLine
 10
-0.8260765651949668
 20
-0.0683721258056096
 30
0.0
 11
-0.8755765651949332
 21
-0.0683721258055812
 31
0.0
  0
LINE
  5
DC
330
2
100
AcDbEntity
  8
2
100
AcDbLine
 10
-0.8755765651949332
 20
-0.0683721258055812
 30
0.0
 11
-0.8755765651949332
 21
-0.012372125805598
 31
0.0
  0
LINE
  5
DD
330
2
100
AcDbEntity
  8
2
100
AcDbLine
 10
-0.8260765651949668
 20
-0.0683721258055812
 30
0.0
 11
-0.8755765651949332
 21
-0.0683721258055812
 31
0.0
  0
LINE
  5
DE
330
2
100
AcDbEntity
  8
2
100
AcDbLine
 10
-0.8260765651949668
 20
-0.0683721258055812
 30
0.0
 11
-0.8260765651949668
 21
-0.012372125805598
 31
0.0
  0
LINE
  5
DF
330
2
100
AcDbEntity
  8
2
100
AcDbLine
 10
-0.8160765651949759
 20
-0.0683721258055812
 30
0.0
 11
-0.8160765651949759
 21
-0.012372125805598
 31
0.0
  0
LINE
  5
E0
330
2
100
AcDbEntity
  8
2
100
AcDbLine
 10
-0.5660765651948623
 20
-0.2603721258055884
 30
0.0
 11
-0.5660765651948623
 21
-0.3163721258056285
 31
0.0
  0
LINE
  5
E1
330
2
100
AcDbEntity
  8
2
100
AcDbLine
 10
-0.551076565194876
 20
-0.2603721258055884
 30
0.0
 11
-0.551076565194876
 21
-0.3163721258056285
 31
0.0
  0
LINE
  5
E2
330
2
100
AcDbEntity
  8
2
100
AcDbLine
 10
-0.4915765651949187
 20
-0.2603721258055884
 30
0.0
 11
-0.4915765651949187
 21
-0.3163721258056285
 31
0.0
  0
LINE
  5
E3
330
2
100
AcDbEntity
  8
2
100
AcDbLine
 10
-0.541076565194885
 20
-0.2603721258055884
 30
0.0
 11
-0.541076565194885
 21
-0.3163721258056285
 31
0.0
  0
LINE
  5
E4
330
2
100
AcDbEntity
  8
2
100
AcDbLine
 10
-0.5760765651949669
 20
-0.2603721258055884
 30
0.0
 11
-0.5760765651949669
 21
-0.3163721258056285
 31
0.0
  0
LINE
  5
E5
330
2
100
AcDbEntity
  8
2
100
AcDbLine
 10
-0.6010765651949442
 20
-0.2603721258055884
 30
0.0
 11
-0.6010765651949442
 21
-0.3163721258056285
 31
0.0
  0
LINE
  5
E6
330
2
100
AcDbEntity
  8
2
100
AcDbLine
 10
-0.5910765651948396
 20
-0.2603721258055884
 30
0.0
 11
-0.5910765651948396
 21
-0.3163721258056285
 31
0.0
  0
LINE
  5
E7
330
2
100
AcDbEntity
  8
2
100
AcDbLine
 10
-0.6160765651949305
 20
-0.2603721258055884
 30
0.0
 11
-0.6160765651949305
 21
-0.3163721258056285
 31
0.0
  0
LINE
  5
E8
330
2
100
AcDbEntity
  8
2
100
AcDbLine
 10
-0.6260765651950351
 20
-0.2603721258055884
 30
0.0
 11
-0.6260765651949214
 21
-0.3163721258056285
 31
0.0
  0
LINE
  5
E9
330
2
100
AcDbEntity
  8
2
100
AcDbLine
 10
-0.6410765651949078
 20
-0.2603721258055884
 30
0.0
 11
-0.6410765651949078
 21
-0.3163721258056285
 31
0.0
  0
LINE
  5
EA
330
2
100
AcDbEntity
  8
2
100
AcDbLine
 10
-0.6510765651950124
 20
-0.2603721258055884
 30
0.0
 11
-0.6510765651950124
 21
-0.3163721258056285
 31
0.0
  0
LINE
  5
EB
330
2
100
AcDbEntity
  8
2
100
AcDbLine
 10
-0.666076565194885
 20
-0.2603721258055884
 30
0.0
 11
-0.666076565194885
 21
-0.3163721258056285
 31
0.0
  0
LINE
  5
EC
330
2
100
AcDbEntity
  8
2
100
AcDbLine
 10
-0.676076565194876
 20
-0.2603721258056169
 30
0.0
 11
-0.676076565194876
 21
-0.3163721258056285
 31
0.0
  0
LINE
  5
ED
330
2
100
AcDbEntity
  8
2
100
AcDbLine
 10
-0.691076565194976
 20
-0.2603721258056169
 30
0.0
 11
-0.691076565194976
 21
-0.3163721258056285
 31
0.0
  0
LINE
  5
EE
330
2
100
AcDbEntity
  8
2
100
AcDbLine
 10
-0.7010765651949669
 20
-0.2603721258055884
 30
0.0
 11
-0.7010765651949669
 21
-0.3163721258056285
 31
0.0
  0
LINE
  5
EF
330
2
100
AcDbEntity
  8
2
100
AcDbLine
 10
-0.7160765651949533
 20
-0.2603721258055884
 30
0.0
 11
-0.7160765651948396
 21
-0.3163721258056285
 31
0.0
  0
LINE
  5
F0
330
2
100
AcDbEntity
  8
2
100
AcDbLine
 10
-0.7260765651950578
 20
-0.2603721258055884
 30
0.0
 11
-0.7260765651949442
 21
-0.3163721258056285
 31
0.0
  0
LINE
  5
F1
330
2
100
AcDbEntity
  8
2
100
AcDbLine
 10
-0.7410765651949305
 20
-0.2603721258055884
 30
0.0
 11
-0.7410765651949305
 21
-0.3163721258056285
 31
0.0
  0
LINE
  5
F2
330
2
100
AcDbEntity
  8
2
100
AcDbLine
 10
-0.7660765651949078
 20
-0.2603721258055884
 30
0.0
 11
-0.7660765651949078
 21
-0.3163721258056285
 31
0.0
  0
LINE
  5
F3
330
2
100
AcDbEntity
  8
2
100
AcDbLine
 10
-0.7510765651949214
 20
-0.2603721258055884
 30
0.0
 11
-0.7510765651949214
 21
-0.3163721258056285
 31
0.0
  0
LINE
  5
F4
330
2
100
AcDbEntity
  8
2
100
AcDbLine
 10
-0.7760765651950124
 20
-0.2603721258055884
 30
0.0
 11
-0.7760765651950124
 21
-0.3163721258056285
 31
0.0
  0
LINE
  5
F5
330
2
100
AcDbEntity
  8
2
100
AcDbLine
 10
-0.7760765651950124
 20
-0.2603721258055884
 30
0.0
 11
-0.791076565194885
 21
-0.2603721258055884
 31
0.0
  0
LINE
  5
F6
330
2
100
AcDbEntity
  8
2
100
AcDbLine
 10
-0.791076565194885
 20
-0.2603721258055884
 30
0.0
 11
-0.791076565194885
 21
-0.3163721258056285
 31
0.0
  0
LINE
  5
F7
330
2
100
AcDbEntity
  8
2
100
AcDbLine
 10
-0.8010765651949895
 20
-0.2603721258055884
 30
0.0
 11
-0.8010765651949895
 21
-0.3163721258056285
 31
0.0
  0
LINE
  5
F8
330
2
100
AcDbEntity
  8
2
100
AcDbLine
 10
-0.683576565194926
 20
-0.2603721258055884
 30
0.0
 11
-0.691076565194976
 21
-0.2603721258055884
 31
0.0
  0
LINE
  5
F9
330
2
100
AcDbEntity
  8
2
100
AcDbLine
 10
-0.7010765651949669
 20
-0.2603721258055884
 30
0.0
 11
-0.7160765651948396
 21
-0.2603721258055884
 31
0.0
  0
LINE
  5
FA
330
2
100
AcDbEntity
  8
2
100
AcDbLine
 10
-0.7260765651949442
 20
-0.2603721258055884
 30
0.0
 11
-0.7410765651949305
 21
-0.2603721258055884
 31
0.0
  0
LINE
  5
FB
330
2
100
AcDbEntity
  8
2
100
AcDbLine
 10
-0.7510765651949214
 20
-0.2603721258055884
 30
0.0
 11
-0.7660765651949078
 21
-0.2603721258055884
 31
0.0
  0
LINE
  5
FC
330
2
100
AcDbEntity
  8
2
100
AcDbLine
 10
-0.541076565194885
 20
-0.2603721258055884
 30
0.0
 11
-0.4915765651949187
 21
-0.2603721258055884
 31
0.0
  0
LINE
  5
FD
330
2
100
AcDbEntity
  8
2
100
AcDbLine
 10
-0.5660765651948623
 20
-0.2603721258055884
 30
0.0
 11
-0.551076565194876
 21
-0.2603721258055884
 31
0.0
  0
LINE
  5
FE
330
2
100
AcDbEntity
  8
2
100
AcDbLine
 10
-0.5910765651948396
 20
-0.2603721258055884
 30
0.0
 11
-0.5760765651949669
 21
-0.2603721258055884
 31
0.0
  0
LINE
  5
FF
330
2
100
AcDbEntity
  8
2
100
AcDbLine
 10
-0.6160765651949305
 20
-0.2603721258055884
 30
0.0
 11
-0.6010765651949442
 21
-0.2603721258055884
 31
0.0
  0
LINE
  5
100
330
2
100
AcDbEntity
  8
2
100
AcDbLine
 10
-0.6410765651949078
 20
-0.2603721258055884
 30
0.0
 11
-0.6260765651949214
 21
-0.2603721258055884
 31
0.0
  0
LINE
  5
101
330
2
100
AcDbEntity
  8
2
100
AcDbLine
 10
-0.666076565194885
 20
-0.2603721258055884
 30
0.0
 11
-0.6510765651950124
 21
-0.2603721258055884
 31
0.0
  0
LINE
  5
102
330
2
100
AcDbEntity
  8
2
100
AcDbLine
 10
-0.683576565194926
 20
-0.2603721258055884
 30
0.0
 11
-0.676076565194876
 21
-0.2603721258055884
 31
0.0
  0
LINE
  5
103
330
2
100
AcDbEntity
  8
2
100
AcDbLine
 10
-0.683576565194926
 20
-0.3163721258056285
 30
0.0
 11
-0.691076565194976
 21
-0.3163721258056285
 31
0.0
  0
LINE
  5
104
330
2
100
AcDbEntity
  8
2
100
AcDbLine
 10
-0.7010765651949669
 20
-0.3163721258056285
 30
0.0
 11
-0.7160765651948396
 21
-0.3163721258056285
 31
0.0
  0
LINE
  5
105
330
2
100
AcDbEntity
  8
2
100
AcDbLine
 10
-0.7260765651949442
 20
-0.3163721258056285
 30
0.0
 11
-0.7410765651949305
 21
-0.3163721258056285
 31
0.0
  0
LINE
  5
106
330
2
100
AcDbEntity
  8
2
100
AcDbLine
 10
-0.7510765651949214
 20
-0.3163721258056285
 30
0.0
 11
-0.7660765651949078
 21
-0.3163721258056285
 31
0.0
  0
LINE
  5
107
330
2
100
AcDbEntity
  8
2
100
AcDbLine
 10
-0.7760765651950124
 20
-0.3163721258056285
 30
0.0
 11
-0.791076565194885
 21
-0.3163721258056285
 31
0.0
  0
LINE
  5
108
330
2
100
AcDbEntity
  8
2
100
AcDbLine
 10
-0.541076565194885
 20
-0.3163721258056285
 30
0.0
 11
-0.4915765651949187
 21
-0.3163721258056285
 31
0.0
  0
LINE
  5
109
330
2
100
AcDbEntity
  8
2
100
AcDbLine
 10
-0.5660765651948623
 20
-0.3163721258056285
 30
0.0
 11
-0.551076565194876
 21
-0.3163721258056285
 31
0.0
  0
LINE
  5
10A
330
2
100
AcDbEntity
  8
2
100
AcDbLine
 10
-0.5910765651948396
 20
-0.3163721258056285
 30
0.0
 11
-0.5760765651949669
 21
-0.3163721258056285
 31
0.0
  0
LINE
  5
10B
330
2
100
AcDbEntity
  8
2
100
AcDbLine
 10
-0.6160765651949305
 20
-0.3163721258056285
 30
0.0
 11
-0.6010765651949442
 21
-0.3163721258056285
 31
0.0
  0
LINE
  5
10C
330
2
100
AcDbEntity
  8
2
100
AcDbLine
 10
-0.6410765651949078
 20
-0.3163721258056285
 30
0.0
 11
-0.6260765651949214
 21
-0.3163721258056285
 31
0.0
  0
LINE
  5
10D
330
2
100
AcDbEntity
  8
2
100
AcDbLine
 10
-0.666076565194885
 20
-0.3163721258056285
 30
0.0
 11
-0.6510765651950124
 21
-0.3163721258056285
 31
0.0
  0
LINE
  5
10E
330
2
100
AcDbEntity
  8
2
100
AcDbLine
 10
-0.683576565194926
 20
-0.3163721258056285
 30
0.0
 11
-0.676076565194876
 21
-0.3163721258056285
 31
0.0
  0
LINE
  5
10F
330
2
100
AcDbEntity
  8
2
100
AcDbLine
 10
-0.683576565194926
 20
-0.012372125805598
 30
0.0
 11
-0.676076565194876
 21
-0.012372125805598
 31
0.0
  0
LINE
  5
110
330
2
100
AcDbEntity
  8
2
100
AcDbLine
 10
-0.666076565194885
 20
-0.012372125805598
 30
0.0
 11
-0.6510765651950124
 21
-0.012372125805598
 31
0.0
  0
LINE
  5
111
330
2
100
AcDbEntity
  8
2
100
AcDbLine
 10
-0.6410765651949078
 20
-0.012372125805598
 30
0.0
 11
-0.6260765651949214
 21
-0.012372125805598
 31
0.0
  0
LINE
  5
112
330
2
100
AcDbEntity
  8
2
100
AcDbLine
 10
-0.6160765651949305
 20
-0.012372125805598
 30
0.0
 11
-0.6010765651949442
 21
-0.012372125805598
 31
0.0
  0
LINE
  5
113
330
2
100
AcDbEntity
  8
2
100
AcDbLine
 10
-0.5910765651948396
 20
-0.012372125805598
 30
0.0
 11
-0.5760765651949669
 21
-0.012372125805598
 31
0.0
  0
LINE
  5
114
330
2
100
AcDbEntity
  8
2
100
AcDbLine
 10
-0.5660765651948623
 20
-0.012372125805598
 30
0.0
 11
-0.551076565194876
 21
-0.012372125805598
 31
0.0
  0
LINE
  5
115
330
2
100
AcDbEntity
  8
2
100
AcDbLine
 10
-0.541076565194885
 20
-0.012372125805598
 30
0.0
 11
-0.4915765651949187
 21
-0.012372125805598
 31
0.0
  0
LINE
  5
116
330
2
100
AcDbEntity
  8
2
100
AcDbLine
 10
-0.7760765651950124
 20
-0.012372125805598
 30
0.0
 11
-0.791076565194885
 21
-0.012372125805598
 31
0.0
  0
LINE
  5
117
330
2
100
AcDbEntity
  8
2
100
AcDbLine
 10
-0.7510765651949214
 20
-0.012372125805598
 30
0.0
 11
-0.7660765651949078
 21
-0.012372125805598
 31
0.0
  0
LINE
  5
118
330
2
100
AcDbEntity
  8
2
100
AcDbLine
 10
-0.7260765651949442
 20
-0.012372125805598
 30
0.0
 11
-0.7410765651949305
 21
-0.012372125805598
 31
0.0
  0
LINE
  5
119
330
2
100
AcDbEntity
  8
2
100
AcDbLine
 10
-0.7010765651949669
 20
-0.012372125805598
 30
0.0
 11
-0.7160765651948396
 21
-0.012372125805598
 31
0.0
  0
LINE
  5
11A
330
2
100
AcDbEntity
  8
2
100
AcDbLine
 10
-0.683576565194926
 20
-0.012372125805598
 30
0.0
 11
-0.691076565194976
 21
-0.012372125805598
 31
0.0
  0
LINE
  5
11B
330
2
100
AcDbEntity
  8
2
100
AcDbLine
 10
-0.683576565194926
 20
-0.0683721258055812
 30
0.0
 11
-0.676076565194876
 21
-0.0683721258055812
 31
0.0
  0
LINE
  5
11C
330
2
100
AcDbEntity
  8
2
100
AcDbLine
 10
-0.666076565194885
 20
-0.0683721258055812
 30
0.0
 11
-0.6510765651950124
 21
-0.0683721258055812
 31
0.0
  0
LINE
  5
11D
330
2
100
AcDbEntity
  8
2
100
AcDbLine
 10
-0.6410765651949078
 20
-0.0683721258055812
 30
0.0
 11
-0.6260765651949214
 21
-0.0683721258055812
 31
0.0
  0
LINE
  5
11E
330
2
100
AcDbEntity
  8
2
100
AcDbLine
 10
-0.6160765651949305
 20
-0.0683721258055812
 30
0.0
 11
-0.6010765651949442
 21
-0.0683721258055812
 31
0.0
  0
LINE
  5
11F
330
2
100
AcDbEntity
  8
2
100
AcDbLine
 10
-0.5910765651948396
 20
-0.0683721258055812
 30
0.0
 11
-0.5760765651949669
 21
-0.0683721258055812
 31
0.0
  0
LINE
  5
120
330
2
100
AcDbEntity
  8
2
100
AcDbLine
 10
-0.5660765651948623
 20
-0.0683721258055812
 30
0.0
 11
-0.551076565194876
 21
-0.0683721258055812
 31
0.0
  0
LINE
  5
121
330
2
100
AcDbEntity
  8
2
100
AcDbLine
 10
-0.541076565194885
 20
-0.0683721258055812
 30
0.0
 11
-0.4915765651949187
 21
-0.0683721258055812
 31
0.0
  0
LINE
  5
122
330
2
100
AcDbEntity
  8
2
100
AcDbLine
 10
-0.7510765651949214
 20
-0.0683721258055812
 30
0.0
 11
-0.7660765651949078
 21
-0.0683721258055812
 31
0.0
  0
LINE
  5
123
330
2
100
AcDbEntity
  8
2
100
AcDbLine
 10
-0.7260765651949442
 20
-0.0683721258055812
 30
0.0
 11
-0.7410765651949305
 21
-0.0683721258055812
 31
0.0
  0
LINE
  5
124
330
2
100
AcDbEntity
  8
2
100
AcDbLine
 10
-0.7010765651949669
 20
-0.0683721258055812
 30
0.0
 11
-0.7160765651948396
 21
-0.0683721258055812
 31
0.0
  0
LINE
  5
125
330
2
100
AcDbEntity
  8
2
100
AcDbLine
 10
-0.683576565194926
 20
-0.0683721258055812
 30
0.0
 11
-0.691076565194976
 21
-0.0683721258055812
 31
0.0
  0
LINE
  5
126
330
2
100
AcDbEntity
  8
2
100
AcDbLine
 10
-0.8010765651949895
 20
-0.0683721258055812
 30
0.0
 11
-0.8010765651949895
 21
-0.012372125805598
 31
0.0
  0
LINE
  5
127
330
2
100
AcDbEntity
  8
2
100
AcDbLine
 10
-0.791076565194885
 20
-0.0683721258055812
 30
0.0
 11
-0.791076565194885
 21
-0.012372125805598
 31
0.0
  0
LINE
  5
128
330
2
100
AcDbEntity
  8
2
100
AcDbLine
 10
-0.7760765651950124
 20
-0.0683721258055812
 30
0.0
 11
-0.791076565194885
 21
-0.0683721258055812
 31
0.0
  0
LINE
  5
129
330
2
100
AcDbEntity
  8
2
100
AcDbLine
 10
-0.7760765651950124
 20
-0.0683721258055812
 30
0.0
 11
-0.7760765651950124
 21
-0.012372125805598
 31
0.0
  0
LINE
  5
12A
330
2
100
AcDbEntity
  8
2
100
AcDbLine
 10
-0.7510765651949214
 20
-0.0683721258055812
 30
0.0
 11
-0.7510765651949214
 21
-0.012372125805598
 31
0.0
  0
LINE
  5
12B
330
2
100
AcDbEntity
  8
2
100
AcDbLine
 10
-0.7660765651949078
 20
-0.0683721258055812
 30
0.0
 11
-0.7660765651949078
 21
-0.012372125805598
 31
0.0
  0
LINE
  5
12C
330
2
100
AcDbEntity
  8
2
100
AcDbLine
 10
-0.7410765651949305
 20
-0.0683721258055812
 30
0.0
 11
-0.7410765651949305
 21
-0.012372125805598
 31
0.0
  0
LINE
  5
12D
330
2
100
AcDbEntity
  8
2
100
AcDbLine
 10
-0.7260765651950578
 20
-0.0683721258055812
 30
0.0
 11
-0.7260765651949442
 21
-0.012372125805598
 31
0.0
  0
LINE
  5
12E
330
2
100
AcDbEntity
  8
2
100
AcDbLine
 10
-0.7160765651949533
 20
-0.0683721258055812
 30
0.0
 11
-0.7160765651948396
 21
-0.012372125805598
 31
0.0
  0
LINE
  5
12F
330
2
100
AcDbEntity
  8
2
100
AcDbLine
 10
-0.7010765651949669
 20
-0.0683721258055812
 30
0.0
 11
-0.7010765651949669
 21
-0.012372125805598
 31
0.0
  0
LINE
  5
130
330
2
100
AcDbEntity
  8
2
100
AcDbLine
 10
-0.691076565194976
 20
-0.0683721258055812
 30
0.0
 11
-0.691076565194976
 21
-0.012372125805598
 31
0.0
  0
LINE
  5
131
330
2
100
AcDbEntity
  8
2
100
AcDbLine
 10
-0.676076565194876
 20
-0.0683721258055812
 30
0.0
 11
-0.676076565194876
 21
-0.012372125805598
 31
0.0
  0
LINE
  5
132
330
2
100
AcDbEntity
  8
2
100
AcDbLine
 10
-0.666076565194885
 20
-0.0683721258055812
 30
0.0
 11
-0.666076565194885
 21
-0.012372125805598
 31
0.0
  0
LINE
  5
133
330
2
100
AcDbEntity
  8
2
100
AcDbLine
 10
-0.6510765651950124
 20
-0.0683721258055812
 30
0.0
 11
-0.6510765651950124
 21
-0.012372125805598
 31
0.0
  0
LINE
  5
134
330
2
100
AcDbEntity
  8
2
100
AcDbLine
 10
-0.6410765651949078
 20
-0.0683721258055812
 30
0.0
 11
-0.6410765651949078
 21
-0.012372125805598
 31
0.0
  0
LINE
  5
135
330
2
100
AcDbEntity
  8
2
100
AcDbLine
 10
-0.6260765651950351
 20
-0.0683721258055812
 30
0.0
 11
-0.6260765651949214
 21
-0.012372125805598
 31
0.0
  0
LINE
  5
136
330
2
100
AcDbEntity
  8
2
100
AcDbLine
 10
-0.6160765651949305
 20
-0.0683721258055812
 30
0.0
 11
-0.6160765651949305
 21
-0.012372125805598
 31
0.0
  0
LINE
  5
137
330
2
100
AcDbEntity
  8
2
100
AcDbLine
 10
-0.5910765651948396
 20
-0.0683721258055812
 30
0.0
 11
-0.5910765651948396
 21
-0.012372125805598
 31
0.0
  0
LINE
  5
138
330
2
100
AcDbEntity
  8
2
100
AcDbLine
 10
-0.6010765651949442
 20
-0.0683721258055812
 30
0.0
 11
-0.6010765651949442
 21
-0.012372125805598
 31
0.0
  0
LINE
  5
139
330
2
100
AcDbEntity
  8
2
100
AcDbLine
 10
-0.5760765651949669
 20
-0.0683721258055812
 30
0.0
 11
-0.5760765651949669
 21
-0.012372125805598
 31
0.0
  0
LINE
  5
13A
330
2
100
AcDbEntity
  8
2
100
AcDbLine
 10
-0.5660765651948623
 20
-0.0683721258055812
 30
0.0
 11
-0.5660765651948623
 21
-0.012372125805598
 31
0.0
  0
LINE
  5
13B
330
2
100
AcDbEntity
  8
2
100
AcDbLine
 10
-0.551076565194876
 20
-0.0683721258055812
 30
0.0
 11
-0.551076565194876
 21
-0.012372125805598
 31
0.0
  0
LINE
  5
13C
330
2
100
AcDbEntity
  8
2
100
AcDbLine
 10
-0.541076565194885
 20
-0.0683721258055812
 30
0.0
 11
-0.541076565194885
 21
-0.012372125805598
 31
0.0
  0
LINE
  5
13D
330
2
100
AcDbEntity
  8
2
100
AcDbLine
 10
-0.4915765651949187
 20
-0.0683721258055812
 30
0.0
 11
-0.4915765651949187
 21
-0.012372125805598
 31
0.0
  0
LWPOLYLINE
  5
13E
330
2
100
AcDbEntity
  8
2D
  6
CENTER
 62
     2
 48
0.025
100
AcDbPolyline
 90
        4
 70
     1
 43
0.0
 10
-0.8535765651881774
 20
-0.0883721258044545
 10
-0.5135765651905331
 20
-0.0883721258044545
 10
-0.5135765651905331
 20
-0.2403721258054077
 10
-0.8535765651881774
 20
-0.2403721258054077
  0
LWPOLYLINE
  5
13F
330
2
100
AcDbEntity
  8
2D
  6
HIDDEN2
 48
0.05
100
AcDbPolyline
 90
        4
 70
     1
 43
0.0
 10
-0.737828533695506
 20
-0.2096162202921334
 10
-0.6293245966878658
 20
-0.2096162202921334
 10
-0.6293245966878658
 20
-0.1191280313156255
 10
-0.737828533695506
 20
-0.1191280313156255
  0
LWPOLYLINE
  5
141
330
2
100
AcDbEntity
  8
2D
  6
HIDDEN2
 48
0.05
100
AcDbPolyline
 90
        4
 70
     1
 43
0.0
 10
-0.6214505809397224
 20
-0.1083721258039532
 10
-0.745702549443422
 20
-0.1083721258039532
 10
-0.745702549443422
 20
-0.2203721258059375
 10
-0.6214505809397224
 20
-0.2203721258059375
  0
LWPOLYLINE
  5
142
330
2
100
AcDbEntity
  8
2D
  6
HIDDEN2
 48
0.05
100
AcDbPolyline
 90
        4
 70
     1
 43
0.0
 10
-0.7834190848768685
 20
-0.2283721258037588
 10
-0.5837340455067306
 20
-0.2283721258037588
 10
-0.5837340455067306
 20
-0.1003721258061034
 10
-0.7834190848768685
 20
-0.1003721258061034
  0
LWPOLYLINE
  5
143
330
2
100
AcDbEntity
  8
2D
  6
HIDDEN2
 48
0.05
100
AcDbPolyline
 90
        4
 70
     1
 43
0.0
 10
-0.5748757777899982
 20
-0.0913563777722004
 10
-0.7922773525933735
 20
-0.0913563777722004
 10
-0.7922773525933735
 20
-0.2373878738353881
 10
-0.5748757777899982
 20
-0.2373878738353881
  0
LINE
  5
144
330
2
100
AcDbEntity
  8
2D
100
AcDbLine
 10
-0.7922773525933735
 20
-0.0894973071394816
 30
0.0
 11
-0.7922773525933735
 21
0.0330773153544897
 31
0.0
  0
LINE
  5
145
330
2
100
AcDbEntity
  8
2D
100
AcDbLine
 10
-0.7922773525933735
 20
0.0330773153544897
 30
0.0
 11
-0.7922773525933735
 21
0.0450773153544901
 31
0.0
  0
LINE
  5
146
330
2
100
AcDbEntity
  8
2D
100
AcDbLine
 10
-0.7922773525933735
 20
0.0450773153544901
 30
0.0
 11
-0.7922773525933735
 21
0.0570773153544906
 31
0.0
  0
MTEXT
  5
147
330
2
100
AcDbEntity
  8
2D
100
AcDbMText
 10
-0.7922773525933735
 20
0.106577315354599
 30
0.0
 40
0.006
 41
0.0
 46
0.0
 71
     5
 72
     1
  1
\A1;0.1087 MAX PLATING
 11
0.0000000000000001
 21
1.0
 31
0.0
 73
     1
 44
1.0
  0
LINE
  5
148
330
2
100
AcDbEntity
  8
2D
100
AcDbLine
 10
-0.7834190848768685
 20
-0.0988710498871797
 30
0.0
 11
-0.7834190848768685
 21
0.0330773153544897
 31
0.0
  0
LINE
  5
149
330
2
100
AcDbEntity
  8
2D
100
AcDbLine
 10
-0.7834190848768685
 20
0.0330773153544897
 30
0.0
 11
-0.7834190848768685
 21
0.0450773153544901
 31
0.0
  0
LINE
  5
14A
330
2
100
AcDbEntity
  8
2D
100
AcDbLine
 10
-0.7834190848768685
 20
0.0450773153544901
 30
0.0
 11
-0.7834190848768685
 21
0.0570773153544906
 31
0.0
  0
MTEXT
  5
14B
330
2
100
AcDbEntity
  8
2D
100
AcDbMText
 10
-0.7834190848768685
 20
0.1060773153546108
 30
0.0
 40
0.006
 41
0.0
 46
0.0
 71
     5
 72
     1
  1
\A1;0.0998 MIN PLATING
 11
0.0000000000000001
 21
1.0
 31
0.0
 73
     1
 44
1.0
  0
LINE
  5
14C
330
2
100
AcDbEntity
  8
2D
100
AcDbLine
 10
-0.7492899192970981
 20
-0.220372125810286
 30
0.0
 11
-0.8972511828700362
 21
-0.220372125810286
 31
0.0
  0
LINE
  5
14D
330
2
100
AcDbEntity
  8
2D
100
AcDbLine
 10
-0.8972511828700362
 20
-0.220372125810286
 30
0.0
 11
-0.9092511828700935
 21
-0.220372125810286
 31
0.0
  0
LINE
  5
14E
330
2
100
AcDbEntity
  8
2D
100
AcDbLine
 10
-0.9092511828700935
 20
-0.220372125810286
 30
0.0
 11
-0.9212511828700371
 21
-0.220372125810286
 31
0.0
  0
MTEXT
  5
14F
330
2
100
AcDbEntity
  8
2D
100
AcDbMText
 10
-0.9712511828699916
 20
-0.220372125810286
 30
0.0
 40
0.006
 41
0.0
 46
0.0
 71
     5
 72
     1
  1
\A1;0.0560 MIN PLATING
 73
     1
 44
1.0
  0
LINE
  5
150
330
2
100
AcDbEntity
  8
2D
100
AcDbLine
 10
-0.7397657928803483
 20
-0.2096162202921334
 30
0.0
 11
-0.9212511828698097
 21
-0.2096162202921334
 31
0.0
  0
MTEXT
  5
151
330
2
100
AcDbEntity
  8
2D
100
AcDbMText
 10
-0.9722511828698543
 20
-0.2096162202921334
 30
0.0
 40
0.006
 41
0.0
 46
0.0
 71
     5
 72
     1
  1
\A1;0.0452 MAX PLATING
 73
     1
 44
1.0
  0
LINE
  5
152
330
2
100
AcDbEntity
  8
2D
100
AcDbLine
 10
-0.7715765651918219
 20
-0.1583721258038224
 30
0.0
 11
-0.7715765651913671
 21
-0.1703721258055566
 31
0.0
  0
LINE
  5
153
330
2
100
AcDbEntity
  8
2D
100
AcDbLine
 10
-0.7819688700249117
 20
-0.1583721258038224
 30
0.0
 11
-0.7819688700249117
 21
-0.1703721258055282
 31
0.0
  0
LINE
  5
154
330
2
100
AcDbEntity
  8
2D
100
AcDbLine
 10
-0.5955765651868888
 20
-0.1583721258038224
 30
0.0
 11
-0.5955765651873435
 21
-0.1703721258055566
 31
0.0
  0
LINE
  5
155
330
2
100
AcDbEntity
  8
2D
100
AcDbLine
 10
-0.5851842603419755
 20
-0.1583721258038224
 30
0.0
 11
-0.5851842603419755
 21
-0.1703721258055282
 31
0.0
  0
LWPOLYLINE
  5
156
330
2
100
AcDbEntity
  8
2
100
AcDbPolyline
 90
      144
 70
     1
 43
0.0
 10
-0.6760765651929433
 20
-0.0783721258060268
 10
-0.6760765651929433
 20
-0.1003721258059613
 10
-0.6800765651955772
 20
-0.1003721258059613
 10
-0.6800765651955772
 20
-0.1083721258059711
 10
-0.6620765651955481
 20
-0.1083721258059711
 10
-0.6620765651955481
 20
-0.1003721258059613
 10
-0.6660765651898828
 20
-0.1003721258059613
 10
-0.6660765651899965
 20
-0.0783721258060268
 10
-0.6510765651879638
 20
-0.0783721258060268
 10
-0.6510765651880775
 20
-0.1003721258059613
 10
-0.6550765651905977
 20
-0.1003721258059613
 10
-0.6550765651905977
 20
-0.1083721258059711
 10
-0.6370765651917055
 20
-0.1083721258059711
 10
-0.6370765651917055
 20
-0.1003721258059613
 10
-0.6410765651896782
 20
-0.1003721258059613
 10
-0.6410765651896782
 20
-0.0783721258060268
 10
-0.6260765651875318
 20
-0.0783721258060268
 10
-0.6260765651875318
 20
-0.1003721258038581
 10
-0.6300765651870961
 20
-0.1003721258038297
 10
-0.6300765651870961
 20
-0.1083721258038111
 10
-0.612076565187067
 20
-0.1083721258038111
 10
-0.612076565187067
 20
-0.1003721258038297
 10
-0.6160765651891325
 20
-0.1003721258038297
 10
-0.6160765651892462
 20
-0.0783721258060268
 10
-0.6010765651872135
 20
-0.0783721258060268
 10
-0.6010765651872135
 20
-0.1003721258038581
 10
-0.6050765651870052
 20
-0.1003721258038297
 10
-0.6050765651870052
 20
-0.1143721258036408
 10
-0.5935765651871634
 20
-0.1143721258036408
 10
-0.5935765651871634
 20
-0.1083721258038111
 10
-0.5845765651871489
 20
-0.1083721258038111
 10
-0.5845765651871489
 20
-0.1003721258038297
 10
-0.5910765651889279
 20
-0.1003721258038297
 10
-0.5910765651889279
 20
-0.0783721258060268
 10
-0.5760765651914426
 20
-0.0783721258060268
 10
-0.5760765651914426
 20
-0.1178721258037285
 10
-0.5771765651869601
 20
-0.1178721258037285
 10
-0.5785765651871771
 20
-0.1223721258036221
 10
-0.5985765651870452
 20
-0.1223721258036221
 10
-0.5985765651870452
 20
-0.1323721258036699
 10
-0.5728234694427102
 20
-0.1323721258036699
 10
-0.561576565187238
 20
-0.1111636777789613
 10
-0.561576565187238
 20
-0.1003721258038297
 10
-0.5660765651884958
 20
-0.1003721258038013
 10
-0.5660765651884958
 20
-0.0783721258060268
 10
-0.5510765651864631
 20
-0.0783721258060268
 10
-0.5510765651864631
 20
-0.1082443477383208
 10
-0.5685765651870725
 20
-0.1403721258036512
 10
-0.5946001872345051
 20
-0.1403721258036512
 10
-0.5946001872345051
 20
-0.150372125803699
 10
-0.561576565187238
 20
-0.150372125803699
 10
-0.5410765651871543
 20
-0.125372125803608
 10
-0.5410765651871543
 20
-0.1083721258038111
 10
-0.5370765651871352
 20
-0.1083721258038111
 10
-0.5370765651871352
 20
-0.1003721258038297
 10
-0.5410765651881775
 20
-0.1003721258038581
 10
-0.5410765651881775
 20
-0.0783721258060268
 10
-0.4915765651905986
 20
-0.0783721258060268
 10
-0.4915765651905986
 20
-0.0863721258032797
 10
-0.5105765651901493
 20
-0.0863721258032797
 10
-0.5105765651877619
 20
-0.1603721258027235
 10
-0.5175765651856637
 20
-0.1603721258027235
 10
-0.5195765651844795
 20
-0.1583721258039645
 10
-0.5360765651871589
 20
-0.1583721258036803
 10
-0.5360765651871589
 20
-0.150372125803699
 10
-0.5460765651871498
 20
-0.150372125803699
 10
-0.5460765651871498
 20
-0.1583721258036803
 10
-0.6085765651872635
 20
-0.1583721258036803
 10
-0.6085765651871498
 20
-0.1573721258035903
 10
-0.6135765651871452
 20
-0.1573721258035903
 10
-0.6135765651870316
 20
-0.1213721258036742
 42
0.4142135623730951
 10
-0.6185765651916882
 20
-0.1163721258036787
 10
-0.7485765651916836
 20
-0.1163721258036787
 42
0.4142135623730951
 10
-0.7535765651916791
 20
-0.1213721258036742
 10
-0.7535765651915654
 20
-0.1573721258035903
 10
-0.7585765651915608
 20
-0.1573721258035903
 10
-0.7585765651914472
 20
-0.1583721258036803
 10
-0.8210765651915608
 20
-0.1583721258036803
 10
-0.8210765651915608
 20
-0.150372125803699
 10
-0.8310765651915517
 20
-0.150372125803699
 10
-0.8310765651915517
 20
-0.1583721258036803
 10
-0.847576565194231
 20
-0.1583721258039645
 10
-0.8495765651930469
 20
-0.1603721258027235
 10
-0.8565765651909487
 20
-0.1603721258027235
 10
-0.8565765651885612
 20
-0.0863721258032797
 10
-0.8755765651881119
 20
-0.0863721258032797
 10
-0.8755765651881119
 20
-0.0783721258060268
 10
-0.826076565190533
 20
-0.0783721258060268
 10
-0.826076565190533
 20
-0.1003721258038581
 10
-0.8300765651915753
 20
-0.1003721258038297
 10
-0.8300765651915753
 20
-0.1083721258038111
 10
-0.8260765651915562
 20
-0.1083721258038111
 10
-0.8260765651915562
 20
-0.125372125803608
 10
-0.8055765651914725
 20
-0.150372125803699
 10
-0.7725529431442056
 20
-0.150372125803699
 10
-0.7725529431442056
 20
-0.1403721258036512
 10
-0.7985765651916381
 20
-0.1403721258036512
 10
-0.8160765651922474
 20
-0.1082443477383208
 10
-0.8160765651922474
 20
-0.0783721258060268
 10
-0.8010765651902147
 20
-0.0783721258060268
 10
-0.8010765651902147
 20
-0.1003721258038013
 10
-0.8055765651914725
 20
-0.1003721258038297
 10
-0.8055765651914725
 20
-0.1111636777789613
 10
-0.7943296609360005
 20
-0.1323721258036699
 10
-0.7685765651916654
 20
-0.1323721258036699
 10
-0.7685765651916654
 20
-0.1223721258036221
 10
-0.7885765651915336
 20
-0.1223721258036221
 10
-0.7899765651917506
 20
-0.1178721258037285
 10
-0.791076565187268
 20
-0.1178721258037285
 10
-0.791076565187268
 20
-0.0783721258060268
 10
-0.7760765651897828
 20
-0.0783721258060268
 10
-0.7760765651897828
 20
-0.1003721258038297
 10
-0.7825765651915618
 20
-0.1003721258038297
 10
-0.7825765651915618
 20
-0.1083721258038111
 10
-0.7735765651915472
 20
-0.1083721258038111
 10
-0.7735765651915472
 20
-0.1143721258036408
 10
-0.7620765651917055
 20
-0.1143721258036408
 10
-0.7620765651917055
 20
-0.1003721258038297
 10
-0.7660765651914972
 20
-0.1003721258038581
 10
-0.7660765651914972
 20
-0.0783721258060268
 10
-0.7510765651894645
 20
-0.0783721258060268
 10
-0.7510765651895781
 20
-0.1003721258038297
 10
-0.7550765651916436
 20
-0.1003721258038297
 10
-0.7550765651916436
 20
-0.1083721258038111
 10
-0.7370765651916145
 20
-0.1083721258038111
 10
-0.7370765651916145
 20
-0.1003721258038297
 10
-0.7410765651911789
 20
-0.1003721258038581
 10
-0.7410765651911789
 20
-0.0783721258060268
 10
-0.7260765651890324
 20
-0.0783721258060268
 10
-0.7260765651890324
 20
-0.1003721258038581
 10
-0.7300765651915527
 20
-0.1003721258038297
 10
-0.7300765651915527
 20
-0.1083721258038111
 10
-0.7120765651915236
 20
-0.1083721258038111
 10
-0.7120765651915236
 20
-0.1003721258038297
 10
-0.7160765651861994
 20
-0.1003721258038297
 10
-0.7160765651861994
 20
-0.0783721258060268
 10
-0.7010765651887141
 20
-0.0783721258060268
 10
-0.7010765651887141
 20
-0.1003721258059329
 10
-0.7050765651916891
 20
-0.1003721258059613
 10
-0.7050765651916891
 20
-0.1083721258059711
 10
-0.6870765651913189
 20
-0.1083721258059711
 10
-0.6870765651913189
 20
-0.1003721258059613
 10
-0.6910765651904285
 20
-0.1003721258059613
 10
-0.6910765651904285
 20
-0.0783721258060268
  0
LWPOLYLINE
  5
157
330
2
100
AcDbEntity
  8
2
100
AcDbPolyline
 90
      144
 70
     1
 43
0.0
 10
-0.6760765651931706
 20
-0.2503721258033238
 10
-0.676076565193057
 20
-0.2283721258033893
 10
-0.6800765651955772
 20
-0.2283721258033609
 10
-0.6800765651955772
 20
-0.2203721258033511
 10
-0.6620765651955481
 20
-0.2203721258034363
 10
-0.6620765651955481
 20
-0.2283721258034461
 10
-0.6660765651899965
 20
-0.2283721258034177
 10
-0.6660765651902239
 20
-0.2503721258033522
 10
-0.6510765651881912
 20
-0.2503721258033806
 10
-0.6510765651881912
 20
-0.2283721258034461
 10
-0.6550765651905977
 20
-0.2283721258034461
 10
-0.6550765651905977
 20
-0.2203721258034363
 10
-0.6370765651918191
 20
-0.2203721258034932
 10
-0.6370765651918191
 20
-0.228372125803503
 10
-0.6410765651897919
 20
-0.2283721258034745
 10
-0.6410765651899056
 20
-0.2503721258034091
 10
-0.6260765651877592
 20
-0.2503721258034659
 10
-0.6260765651876455
 20
-0.2283721258056346
 10
-0.6300765651872098
 20
-0.2283721258056346
 10
-0.6300765651872098
 20
-0.2203721258056532
 10
-0.6120765651871807
 20
-0.2203721258057101
 10
-0.6120765651871807
 20
-0.2283721258056914
 10
-0.6160765651892462
 20
-0.2283721258056914
 10
-0.6160765651894736
 20
-0.2503721258034943
 10
-0.6010765651874408
 20
-0.2503721258035227
 10
-0.6010765651873271
 20
-0.2283721258056914
 10
-0.6050765651871189
 20
-0.2283721258057199
 10
-0.6050765651871189
 20
-0.2143721258059088
 10
-0.5935765651872771
 20
-0.2143721258059372
 10
-0.5935765651872771
 20
-0.2203721258057669
 10
-0.5845765651872626
 20
-0.2203721258057953
 10
-0.5845765651872626
 20
-0.2283721258057767
 10
-0.5910765651890415
 20
-0.2283721258057483
 10
-0.5910765651891552
 20
-0.2503721258035512
 10
-0.57607656519167
 20
-0.250372125803608
 10
-0.5760765651915563
 20
-0.2108721258059063
 10
-0.5771765651870738
 20
-0.2108721258058779
 10
-0.5785765651872908
 20
-0.2063721258059843
 10
-0.5985765651871589
 20
-0.2063721258059274
 10
-0.5985765651871589
 20
-0.1963721258058797
 10
-0.5728234694428238
 20
-0.196372125805965
 10
-0.5615765651873517
 20
-0.2175805738307019
 10
-0.5615765651873517
 20
-0.2283721258058335
 10
-0.5660765651886095
 20
-0.228372125805862
 10
-0.5660765651887232
 20
-0.2503721258036364
 10
-0.5510765651866905
 20
-0.2503721258036649
 10
-0.5510765651865768
 20
-0.2204999038713709
 10
-0.5685765651870725
 20
-0.1883721258059836
 10
-0.5946001872345051
 20
-0.1883721258059268
 10
-0.5946001872345051
 20
-0.178372125805879
 10
-0.561576565187238
 20
-0.1783721258059643
 10
-0.541076565187268
 20
-0.2033721258061121
 10
-0.541076565187268
 20
-0.220372125805909
 10
-0.5370765651872489
 20
-0.220372125805909
 10
-0.5370765651872489
 20
-0.2283721258058904
 10
-0.5410765651882912
 20
-0.228372125805862
 10
-0.5410765651884049
 20
-0.2503721258036933
 10
-0.491576565190826
 20
-0.2503721258038354
 10
-0.491576565190826
 20
-0.2423721258065825
 10
-0.5105765651903767
 20
-0.2423721258065257
 10
-0.5105765651877619
 20
-0.1683721258070818
 10
-0.5175765651856637
 20
-0.1683721258070534
 10
-0.5195765651844795
 20
-0.1703721258058124
 10
-0.5360765651871589
 20
-0.1703721258060398
 10
-0.5360765651871589
 20
-0.1783721258060211
 10
-0.5460765651871498
 20
-0.1783721258059927
 10
-0.5460765651871498
 20
-0.1703721258060113
 10
-0.6085765651872635
 20
-0.1703721258058408
 10
-0.6085765651871498
 20
-0.1713721258059309
 10
-0.6135765651871452
 20
-0.1713721258059309
 10
-0.6135765651871452
 20
-0.207372125805847
 42
-0.4142135623730951
 10
-0.6185765651918019
 20
-0.2123721258058424
 10
-0.7485765651917973
 20
-0.2123721258054729
 42
-0.4142135623730951
 10
-0.7535765651917928
 20
-0.2073721258054775
 10
-0.7535765651915654
 20
-0.1713721258055614
 10
-0.7585765651915608
 20
-0.171372125805533
 10
-0.7585765651914472
 20
-0.1703721258054429
 10
-0.8210765651915608
 20
-0.1703721258052724
 10
-0.8210765651915608
 20
-0.1783721258052537
 10
-0.8310765651915517
 20
-0.1783721258052253
 10
-0.8310765651915517
 20
-0.170372125805244
 10
-0.847576565194231
 20
-0.1703721258049313
 10
-0.8495765651930469
 20
-0.1683721258061439
 10
-0.8565765651909487
 20
-0.1683721258061439
 10
-0.8565765651887886
 20
-0.2423721258055878
 10
-0.8755765651883393
 20
-0.2423721258055309
 10
-0.8755765651883393
 20
-0.2503721258027838
 10
-0.8260765651907604
 20
-0.2503721258029259
 10
-0.8260765651906467
 20
-0.2283721258050946
 10
-0.830076565191689
 20
-0.2283721258050946
 10
-0.830076565191689
 20
-0.2203721258051132
 10
-0.8260765651916699
 20
-0.2203721258051416
 10
-0.8260765651916699
 20
-0.2033721258053447
 10
-0.8055765651914725
 20
-0.1783721258053106
 10
-0.7725529431442056
 20
-0.1783721258053958
 10
-0.7725529431442056
 20
-0.1883721258054436
 10
-0.7985765651916381
 20
-0.1883721258053583
 10
-0.8160765651923611
 20
-0.2204999038706603
 10
-0.8160765651924748
 20
-0.2503721258029543
 10
-0.8010765651904421
 20
-0.2503721258029827
 10
-0.8010765651903284
 20
-0.2283721258052083
 10
-0.8055765651915862
 20
-0.2283721258051798
 10
-0.8055765651915862
 20
-0.2175805738300482
 10
-0.7943296609361142
 20
-0.1963721258053681
 10
-0.7685765651917791
 20
-0.1963721258054249
 10
-0.7685765651917791
 20
-0.2063721258054727
 10
-0.7885765651916472
 20
-0.2063721258054159
 10
-0.7899765651918642
 20
-0.2108721258053094
 10
-0.7910765651873817
 20
-0.2108721258053094
 10
-0.7910765651874954
 20
-0.2503721258030112
 10
-0.7760765651900102
 20
-0.2503721258030396
 10
-0.7760765651898965
 20
-0.2283721258052367
 10
-0.7825765651916754
 20
-0.2283721258052367
 10
-0.7825765651916754
 20
-0.2203721258052553
 10
-0.7735765651916609
 20
-0.2203721258052838
 10
-0.7735765651916609
 20
-0.2143721258054541
 10
-0.7620765651918191
 20
-0.2143721258054825
 10
-0.7620765651918191
 20
-0.2283721258052935
 10
-0.7660765651916109
 20
-0.2283721258052367
 10
-0.7660765651917246
 20
-0.250372125803068
 10
-0.7510765651896918
 20
-0.2503721258031248
 10
-0.7510765651896918
 20
-0.228372125805322
 10
-0.7550765651917573
 20
-0.2283721258052935
 10
-0.7550765651917573
 20
-0.2203721258053122
 10
-0.7370765651917282
 20
-0.220372125805369
 10
-0.7370765651917282
 20
-0.2283721258053504
 10
-0.7410765651912925
 20
-0.228372125805322
 10
-0.7410765651914062
 20
-0.2503721258031533
 10
-0.7260765651892598
 20
-0.2503721258031817
 10
-0.7260765651891461
 20
-0.2283721258053504
 10
-0.7300765651916663
 20
-0.2283721258053788
 10
-0.7300765651916663
 20
-0.2203721258053974
 10
-0.7120765651916372
 20
-0.2203721258054543
 10
-0.7120765651916372
 20
-0.2283721258054356
 10
-0.7160765651863131
 20
-0.2283721258054072
 10
-0.7160765651864267
 20
-0.2503721258032101
 10
-0.7010765651889415
 20
-0.2503721258032669
 10
-0.7010765651888278
 20
-0.2283721258033609
 10
-0.7050765651918028
 20
-0.228372125803304
 10
-0.7050765651918028
 20
-0.2203721258032942
 10
-0.6870765651913189
 20
-0.2203721258033511
 10
-0.6870765651913189
 20
-0.2283721258033609
 10
-0.6910765651905422
 20
-0.2283721258033609
 10
-0.6910765651906559
 20
-0.2503721258032954
  0
HATCH
  5
158
330
2
100
AcDbEntity
  8
2D
100
AcDbHatch
 10
0.0
 20
0.0
 30
0.0
210
0.0
220
0.0
230
1.0
  2
DOTS
 70
     0
 71
     0
 91
       30
 92
        7
 72
     1
 73
     1
 93
       14
 10
-0.745702549443422
 20
-0.1163721258036787
 42
0.0
 10
-0.7485765651916836
 20
-0.1163721258036787
 42
0.4142135623740188
 10
-0.7535765651916791
 20
-0.1213721258037026
 42
0.0
 10
-0.7535765651915654
 20
-0.1573721258035903
 42
0.0
 10
-0.7585765651915608
 20
-0.1573721258035903
 42
0.0
 10
-0.7585765651914472
 20
-0.1583721258036803
 42
0.0
 10
-0.7715765651918219
 20
-0.1583721258036803
 42
0.0
 10
-0.7715765651913671
 20
-0.1703721258054145
 42
0.0
 10
-0.7585765651914472
 20
-0.1703721258054429
 42
0.0
 10
-0.7585765651915608
 20
-0.171372125805533
 42
0.0
 10
-0.7535765651915654
 20
-0.1713721258055614
 42
0.0
 10
-0.7535765651917928
 20
-0.2073721258054775
 42
0.4142135623730951
 10
-0.7485765651917973
 20
-0.2123721258054729
 42
0.0
 10
-0.745702549443422
 20
-0.2123721258054729
 42
0.0
 97
        0
 92
        7
 72
     0
 73
     1
 93
        4
 10
-0.7715765651918219
 20
-0.1583721258036803
 10
-0.7819688700249117
 20
-0.1583721258036803
 10
-0.7819688700249117
 20
-0.1703721258053861
 10
-0.7715765651913671
 20
-0.1703721258054145
 97
        0
 92
        7
 72
     0
 73
     1
 93
        4
 10
-0.7819688700249117
 20
-0.1583721258036803
 10
-0.7834190848768685
 20
-0.1583721258036803
 10
-0.7834190848768685
 20
-0.1703721258053861
 10
-0.7819688700249117
 20
-0.1703721258053861
 97
        0
 92
        7
 72
     0
 73
     1
 93
        4
 10
-0.7725529431442056
 20
-0.1403721258036512
 10
-0.7834190848768685
 20
-0.1403721258036512
 10
-0.7834190848768685
 20
-0.150372125803699
 10
-0.7725529431442056
 20
-0.150372125803699
 97
        0
 92
        7
 72
     0
 73
     1
 93
        4
 10
-0.7685765651916654
 20
-0.1223721258036221
 10
-0.7834190848768685
 20
-0.1223721258036221
 10
-0.7834190848768685
 20
-0.1323721258036699
 10
-0.7685765651916654
 20
-0.1323721258036699
 97
        0
 92
        7
 72
     0
 73
     1
 93
        7
 10
-0.7620765651917055
 20
-0.1003721258038297
 10
-0.7660765651914972
 20
-0.1003721258038581
 10
-0.7825765651915618
 20
-0.1003721258059897
 10
-0.7825765651915618
 20
-0.1083721258038111
 10
-0.7735765651915472
 20
-0.1083721258038111
 10
-0.7735765651915472
 20
-0.1143721258036408
 10
-0.7620765651917055
 20
-0.1143721258036408
 97
        0
 92
        7
 72
     0
 73
     1
 93
        5
 10
-0.7370765651916145
 20
-0.1003721258038297
 10
-0.7410765651911789
 20
-0.1003721258038581
 10
-0.7550765651916436
 20
-0.1003721258045971
 10
-0.7550765651916436
 20
-0.1083721258038111
 10
-0.7370765651916145
 20
-0.1083721258038111
 97
        0
 92
        7
 72
     0
 73
     1
 93
        5
 10
-0.7120765651915236
 20
-0.1003721258038297
 10
-0.7160765651861994
 20
-0.1003721258038297
 10
-0.7300765651915527
 20
-0.1003721258043129
 10
-0.7300765651915527
 20
-0.1083721258038111
 10
-0.7120765651915236
 20
-0.1083721258038111
 97
        0
 92
        7
 72
     0
 73
     1
 93
        5
 10
-0.6870765651913189
 20
-0.1003721258059613
 10
-0.6910765651904285
 20
-0.1003721258059613
 10
-0.7050765651916891
 20
-0.1003721258059897
 10
-0.7050765651916891
 20
-0.1083721258059711
 10
-0.6870765651913189
 20
-0.1083721258059711
 97
        0
 92
        7
 72
     0
 73
     1
 93
        5
 10
-0.6620765651955481
 20
-0.1003721258059613
 10
-0.6660765651898828
 20
-0.1003721258059613
 10
-0.6800765651955772
 20
-0.1003721258059897
 10
-0.6800765651955772
 20
-0.1083721258059711
 10
-0.6620765651955481
 20
-0.1083721258059711
 97
        0
 92
        7
 72
     0
 73
     1
 93
        5
 10
-0.6370765651917055
 20
-0.1003721258059613
 10
-0.6410765651896782
 20
-0.1003721258059613
 10
-0.6550765651905977
 20
-0.1003721258059613
 10
-0.6550765651905977
 20
-0.1083721258059711
 10
-0.6370765651917055
 20
-0.1083721258059711
 97
        0
 92
        7
 72
     0
 73
     1
 93
        5
 10
-0.612076565187067
 20
-0.1003721258038297
 10
-0.6160765651891325
 20
-0.1003721258038297
 10
-0.6300765651870961
 20
-0.1003721258040287
 10
-0.6300765651870961
 20
-0.1083721258038111
 10
-0.612076565187067
 20
-0.1083721258038111
 97
        0
 92
        7
 72
     0
 73
     1
 93
        7
 10
-0.5845765651871489
 20
-0.1003721258038297
 10
-0.5910765651889279
 20
-0.1003721258038297
 10
-0.6050765651870052
 20
-0.1003721258040002
 10
-0.6050765651870052
 20
-0.1143721258036408
 10
-0.5935765651871634
 20
-0.1143721258036408
 10
-0.5935765651871634
 20
-0.1083721258038111
 10
-0.5845765651871489
 20
-0.1083721258038111
 97
        0
 92
        7
 72
     0
 73
     1
 93
        4
 10
-0.5837340455067306
 20
-0.1223721258036221
 10
-0.5985765651870452
 20
-0.1223721258036221
 10
-0.5985765651870452
 20
-0.1323721258036699
 10
-0.5837340455067306
 20
-0.1323721258036699
 97
        0
 92
        7
 72
     0
 73
     1
 93
        4
 10
-0.5837340455067306
 20
-0.1403721258036512
 10
-0.5946001872345051
 20
-0.1403721258036512
 10
-0.5946001872345051
 20
-0.150372125803699
 10
-0.5837340455067306
 20
-0.150372125803699
 97
        0
 92
        7
 72
     0
 73
     1
 93
        4
 10
-0.5837340455067306
 20
-0.1583721258036803
 10
-0.5851842603419755
 20
-0.1583721258036803
 10
-0.5851842603419755
 20
-0.1703721258058977
 10
-0.5837340455067306
 20
-0.1703721258058977
 97
        0
 92
        7
 72
     0
 73
     1
 93
        4
 10
-0.5851842603419755
 20
-0.1583721258036803
 10
-0.5955765651868888
 20
-0.1583721258036803
 10
-0.5955765651873435
 20
-0.1703721258058692
 10
-0.5851842603419755
 20
-0.1703721258058977
 97
        0
 92
        7
 72
     1
 73
     1
 93
       14
 10
-0.5955765651868888
 20
-0.1583721258036803
 42
0.0
 10
-0.6085765651872635
 20
-0.1583721258036803
 42
0.0
 10
-0.6085765651871498
 20
-0.1573721258035903
 42
0.0
 10
-0.6135765651871452
 20
-0.1573721258035903
 42
0.0
 10
-0.6135765651870316
 20
-0.1213721258036742
 42
0.4142135622365728
 10
-0.6185765651894144
 20
-0.1163721258036787
 42
0.0
 10
-0.6214505809397224
 20
-0.1163721258036787
 42
0.0
 10
-0.6214505809397224
 20
-0.2123721258058424
 42
0.0
 10
-0.6185765651918019
 20
-0.2123721258058424
 42
0.4142135623730951
 10
-0.6135765651871452
 20
-0.207372125805847
 42
0.0
 10
-0.6135765651871452
 20
-0.1713721258059309
 42
0.0
 10
-0.6085765651871498
 20
-0.1713721258059309
 42
0.0
 10
-0.6085765651872635
 20
-0.1703721258058408
 42
0.0
 10
-0.5955765651873435
 20
-0.1703721258058692
 42
0.0
 97
        0
 92
        7
 72
     0
 73
     1
 93
        4
 10
-0.5837340455067306
 20
-0.1783721258059074
 10
-0.5946001872345051
 20
-0.178372125805879
 10
-0.5946001872345051
 20
-0.1883721258059268
 10
-0.5837340455067306
 20
-0.1883721258059552
 97
        0
 92
        7
 72
     0
 73
     1
 93
        4
 10
-0.5837340455067306
 20
-0.1963721258059365
 10
-0.5985765651871589
 20
-0.1963721258058797
 10
-0.5985765651871589
 20
-0.2063721258059274
 10
-0.5837340455067306
 20
-0.2063721258059559
 97
        0
 92
        7
 72
     0
 73
     1
 93
        7
 10
-0.5845765651872626
 20
-0.2203721258057953
 10
-0.5935765651872771
 20
-0.2203721258057669
 10
-0.5935765651872771
 20
-0.2143721258059372
 10
-0.6050765651871189
 20
-0.2143721258059088
 10
-0.6050765651871189
 20
-0.2283721258057199
 10
-0.6010765651873271
 20
-0.2283721258056914
 10
-0.5845765651872626
 20
-0.228372125803844
 97
        0
 92
        7
 72
     0
 73
     1
 93
        5
 10
-0.6120765651871807
 20
-0.2203721258057101
 10
-0.6300765651872098
 20
-0.2203721258056532
 10
-0.6300765651872098
 20
-0.2283721258056346
 10
-0.6260765651876455
 20
-0.2283721258056346
 10
-0.6120765651871807
 20
-0.2283721258050093
 97
        0
 92
        7
 72
     0
 73
     1
 93
        5
 10
-0.6370765651918191
 20
-0.2203721258034932
 10
-0.6550765651905977
 20
-0.2203721258034363
 10
-0.6550765651905977
 20
-0.2283721258034461
 10
-0.6510765651881912
 20
-0.2283721258034461
 10
-0.6370765651918191
 20
-0.228372125803503
 97
        0
 92
        7
 72
     0
 73
     1
 93
        5
 10
-0.6620765651955481
 20
-0.2203721258034363
 10
-0.6800765651955772
 20
-0.2203721258033511
 10
-0.6800765651955772
 20
-0.2283721258033609
 10
-0.676076565193057
 20
-0.2283721258033893
 10
-0.6620765651955481
 20
-0.2283721258034461
 97
        0
 92
        7
 72
     0
 73
     1
 93
        5
 10
-0.6870765651913189
 20
-0.2203721258033511
 10
-0.7050765651918028
 20
-0.2203721258032942
 10
-0.7050765651918028
 20
-0.228372125803304
 10
-0.7010765651888278
 20
-0.2283721258033609
 10
-0.6870765651913189
 20
-0.2283721258034177
 97
        0
 92
        7
 72
     0
 73
     1
 93
        5
 10
-0.7120765651916372
 20
-0.2203721258054543
 10
-0.7300765651916663
 20
-0.2203721258053974
 10
-0.7300765651916663
 20
-0.2283721258053788
 10
-0.7260765651891461
 20
-0.2283721258053504
 10
-0.7120765651916372
 20
-0.2283721258051798
 97
        0
 92
        7
 72
     0
 73
     1
 93
        5
 10
-0.7370765651917282
 20
-0.220372125805369
 10
-0.7550765651917573
 20
-0.2203721258053122
 10
-0.7550765651917573
 20
-0.2283721258052935
 10
-0.7510765651896918
 20
-0.228372125805322
 10
-0.7370765651917282
 20
-0.2283721258051798
 97
        0
 92
        7
 72
     0
 73
     1
 93
        7
 10
-0.7620765651918191
 20
-0.2143721258054825
 10
-0.7735765651916609
 20
-0.2143721258054541
 10
-0.7735765651916609
 20
-0.2203721258052838
 10
-0.7825765651916754
 20
-0.2203721258052553
 10
-0.7825765651916754
 20
-0.2283721258052367
 10
-0.7760765651898965
 20
-0.2283721258052367
 10
-0.7620765651918191
 20
-0.228372125805123
 97
        0
 92
        7
 72
     0
 73
     1
 93
        4
 10
-0.7685765651917791
 20
-0.1963721258054249
 10
-0.7834190848768685
 20
-0.1963721258053965
 10
-0.7834190848768685
 20
-0.2063721258054443
 10
-0.7685765651917791
 20
-0.2063721258054727
 97
        0
 92
        7
 72
     0
 73
     1
 93
        4
 10
-0.7725529431442056
 20
-0.1783721258053958
 10
-0.7834190848768685
 20
-0.1783721258053674
 10
-0.7834190848768685
 20
-0.1883721258054152
 10
-0.7725529431442056
 20
-0.1883721258054436
 97
        0
 75
     0
 76
     1
 52
0.0
 41
0.03
 77
     0
 78
     1
 53
0.0
 43
0.0
 44
-0.8215696859641923
 45
0.0009375
 46
0.001875
 79
     2
 49
0.0
 49
-0.001875
 47
0.0005393435305675
 98
       30
 10
-0.7520640417209279
 20
-0.1653747664729224
 10
-0.7741245551186467
 20
-0.166476665213878
 10
-0.782593085546182
 20
-0.1654186793999486
 10
-0.7770887401075015
 20
-0.1436483505691513
 10
-0.7770887401075015
 20
-0.13149858465286
 10
-0.7673589602871971
 20
-0.1096290080671167
 10
-0.7469264598469181
 20
-0.103311128552491
 10
-0.7191966142130469
 20
-0.1047690975734383
 10
-0.6924397300356305
 20
-0.1062270769122904
 10
-0.6724937206521418
 20
-0.1062270769122904
 10
-0.641358437621193
 20
-0.1052550906863985
 10
-0.6180069908407404
 20
-0.1052550906863985
 10
-0.6019528685970954
 20
-0.1076850459332377
 10
-0.588817692693624
 20
-0.1271246672721418
 10
-0.5883312016369473
 20
-0.1460782954981141
 10
-0.5843988889101866
 20
-0.1651765908175378
 10
-0.5898066012902064
 20
-0.1652940290072422
 10
-0.599093786002868
 20
-0.165411477514823
 10
-0.5912597121298404
 20
-0.1819897630697937
 10
-0.5907198229422193
 20
-0.200866791302758
 10
-0.5993581532289909
 20
-0.220822503030945
 10
-0.6214938991190593
 20
-0.2245979004232197
 10
-0.6479488204810196
 20
-0.2267552777315984
 10
-0.6706244555588228
 20
-0.2262159308250489
 10
-0.6954596680440091
 20
-0.2262159308250489
 10
-0.7251539658456068
 20
-0.2256765942363756
 10
-0.7440503352960377
 20
-0.2240585638345465
 10
-0.773744612440737
 20
-0.2224405334327457
 10
-0.7742845222852566
 20
-0.2019454747979807
 10
-0.7786036771002501
 20
-0.1841471403781725
1001
ACAD
1010
0.0
1020
0.0
1030
0.0
  0
ENDSEC
  0
SECTION
  2
OBJECTS
  0
DICTIONARY
  5
9
330
0
100
AcDbDictionary
281
     1
  3
ACAD_COLOR
350
33
  3
ACAD_GROUP
350
2E
  3
ACAD_LAYOUT
350
F
  3
ACAD_MATERIAL
350
B
  3
ACAD_MLEADERSTYLE
350
36
  3
ACAD_MLINESTYLE
350
2F
  3
ACAD_PLOTSETTINGS
350
30
  3
ACAD_PLOTSTYLENAME
350
8
  3
ACAD_SCALELIST
350
34
  3
ACAD_TABLESTYLE
350
35
  3
ACAD_VISUALSTYLE
350
26
  3
ACDB_RECOMPOSE_DATA
350
15E
  3
AcDbVariableDictionary
350
37
  0
DICTIONARY
  5
28
330
23
100
AcDbDictionary
280
     1
281
     1
  0
DICTIONARY
  5
16
330
15
100
AcDbDictionary
280
     1
281
     1
  3
ACAD_LAYERFILTERS
360
17
  3
ACAD_LAYERSTATES
360
18
  3
ACLYDICTIONARY
360
19
  0
DICTIONARY
  5
3
330
2
100
AcDbDictionary
280
     1
281
     1
  3
ACAD_SORTENTS
360
159
  0
DICTIONARY
  5
33
102
{ACAD_REACTORS
330
9
102
}
330
9
100
AcDbDictionary
281
     1
  0
DICTIONARY
  5
2E
102
{ACAD_REACTORS
330
9
102
}
330
9
100
AcDbDictionary
281
     1
  0
DICTIONARY
  5
F
102
{ACAD_REACTORS
330
9
102
}
330
9
100
AcDbDictionary
281
     1
  3
Layout1
350
14
  3
Model
350
E
  0
DICTIONARY
  5
B
102
{ACAD_REACTORS
330
9
102
}
330
9
100
AcDbDictionary
281
     1
  3
ByBlock
350
32
  3
ByLayer
350
31
  3
Global
350
A
  0
DICTIONARY
  5
36
102
{ACAD_REACTORS
330
9
102
}
330
9
100
AcDbDictionary
281
     1
  0
DICTIONARY
  5
2F
102
{ACAD_REACTORS
330
9
102
}
330
9
100
AcDbDictionary
281
     1
  3
Standard
350
46
  0
DICTIONARY
  5
30
102
{ACAD_REACTORS
330
9
102
}
330
9
100
AcDbDictionary
281
     1
  0
ACDBDICTIONARYWDFLT
  5
8
102
{ACAD_REACTORS
330
9
102
}
330
9
100
AcDbDictionary
281
     1
  3
Normal
350
7
100
AcDbDictionaryWithDefault
340
7
  0
DICTIONARY
  5
34
102
{ACAD_REACTORS
330
9
102
}
330
9
100
AcDbDictionary
281
     1
  3
A0
350
4A
  3
A1
350
4B
  3
A2
350
4C
  3
A3
350
4D
  3
A4
350
4E
  3
A5
350
4F
  3
A6
350
50
  3
A7
350
51
  3
A8
350
52
  3
A9
350
53
  3
B0
350
54
  3
B1
350
55
  3
B2
350
56
  3
B3
350
57
  3
B4
350
58
  3
B5
350
59
  3
B6
350
5A
  0
DICTIONARY
  5
35
102
{ACAD_REACTORS
330
9
102
}
330
9
100
AcDbDictionary
281
     1
  3
Standard
350
47
  0
DICTIONARY
  5
26
102
{ACAD_REACTORS
330
9
102
}
330
9
100
AcDbDictionary
281
     1
  3
2dWireframe
350
25
  3
EdgeColorOff
350
6C
  3
Realistic
350
48
  3
Wireframe
350
49
  0
XRECORD
  5
15E
102
{ACAD_REACTORS
330
9
102
}
330
9
100
AcDbXrecord
280
     1
 90
        1
330
47
  0
DICTIONARY
  5
37
102
{ACAD_REACTORS
330
9
102
}
330
9
100
AcDbDictionary
281
     1
  3
CANNOSCALE
350
38
  3
CMLEADERSTYLE
350
39
  3
CTABLESTYLE
350
3A
  3
CVIEWDETAILSTYLE
350
3B
  3
CVIEWSECTIONSTYLE
350
3C
  3
DIMASSOC
350
3D
  3
INDEXCTL
350
3E
  3
LAYEREVAL
350
3F
  3
LAYERNOTIFY
350
40
  3
LIGHTINGUNITS
350
41
  3
MSLTSCALE
350
42
  3
PROJECTNAME
350
43
  3
SORTENTS
350
44
  0
DICTIONARY
  5
17
102
{ACAD_REACTORS
330
16
102
}
330
16
100
AcDbDictionary
281
     1
  0
DICTIONARY
  5
18
102
{ACAD_REACTORS
330
16
102
}
330
16
100
AcDbDictionary
281
     1
  0
DICTIONARY
  5
19
102
{ACAD_REACTORS
330
16
102
}
330
16
100
AcDbDictionary
281
     1
1001
ACAD
1000
<All
  0
SORTENTSTABLE
  5
159
102
{ACAD_REACTORS
330
3
102
}
330
3
100
AcDbSortentsTable
330
2
  0
LAYOUT
  5
14
102
{ACAD_REACTORS
330
F
102
}
330
F
100
AcDbPlotSettings
  1

  2
HP DeskJet 930C/932C/935C
  4

  6

 40
0.0
 41
0.0
 42
0.0
 43
0.0
 44
0.0
 45
0.0
 46
0.0
 47
0.0
 48
0.0
 49
0.0
140
0.0
141
0.0
142
1.0
143
1.0
 70
   688
 72
     0
 73
     0
 74
     5
  7
black.ctb
 75
    16
147
1.0
 76
     0
 77
     2
 78
   300
148
0.0
149
0.0
100
AcDbLayout
  1
Layout1
 70
     1
 71
     1
 10
0.0
 20
0.0
 11
12.0
 21
9.0
 12
0.0
 22
0.0
 32
0.0
 14
1.000000000000000E+20
 24
1.000000000000000E+20
 34
1.000000000000000E+20
 15
-1.000000000000000E+20
 25
-1.000000000000000E+20
 35
-1.000000000000000E+20
146
0.0
 13
0.0
 23
0.0
 33
0.0
 16
1.0
 26
0.0
 36
0.0
 17
0.0
 27
1.0
 37
0.0
 76
     0
330
11
  0
LAYOUT
  5
E
102
{ACAD_REACTORS
330
F
102
}
330
F
100
AcDbPlotSettings
  1

  2
\\kpc384\hp LaserJet 1010
  4
A4
  6

 40
4.603749752044677
 41
8.032736778259277
 42
5.154098510742187
 43
4.9847412109375
 44
210.0156707763672
 45
297.0106506347656
 46
0.0
 47
2.95
 48
127.5662085622847
 49
142.3500281158103
140
136.3772273578069
141
154.5853048439378
142
1.0
143
0.0439983751192775
 70
 11956
 72
     1
 73
     0
 74
     4
  7
black.ctb
 75
     0
147
22.72811205616225
 76
     0
 77
     2
 78
   300
148
-127.5662085622847
149
-142.3500281158103
100
AcDbLayout
  1
Model
 70
     1
 71
     0
 10
0.0
 20
0.0
 11
12.0
 21
9.0
 12
0.0
 22
0.0
 32
0.0
 14
0.0
 24
0.0
 34
0.0
 15
0.0
 25
0.0
 35
0.0
146
0.0
 13
0.0
 23
0.0
 33
0.0
 16
1.0
 26
0.0
 36
0.0
 17
0.0
 27
1.0
 37
0.0
 76
     0
330
2
331
24
1001
ACAD_PSEXT
1000
\\atsnts34\TJ04
1000
HP LaserJet 5100 PCL 6
1000
2f_CAD Rm
1000
10.8.12.60
1070
     0
  0
MATERIAL
  5
32
102
{ACAD_REACTORS
330
B
102
}
330
B
100
AcDbMaterial
  1
ByBlock
 73
     1
 78
     1
172
     1
176
     1
270
     1
274
     1
 94
       63
  0
MATERIAL
  5
31
102
{ACAD_REACTORS
330
B
102
}
330
B
100
AcDbMaterial
  1
ByLayer
 73
     1
 78
     1
172
     1
176
     1
270
     1
274
     1
 94
       63
  0
MATERIAL
  5
A
102
{ACAD_REACTORS
330
B
102
}
330
B
100
AcDbMaterial
  1
Global
 73
     1
 78
     1
172
     1
176
     1
270
     1
274
     1
 94
       63
  0
MLINESTYLE
  5
46
102
{ACAD_REACTORS
330
2F
102
}
330
2F
100
AcDbMlineStyle
  2
STANDARD
 70
     0
  3

 62
   256
 51
90.0
 52
90.0
 71
     2
 49
0.5
 62
   256
  6
BYLAYER
 49
-0.5
 62
   256
  6
BYLAYER
  0
ACDBPLACEHOLDER
  5
7
102
{ACAD_REACTORS
330
8
102
}
330
8
  0
SCALE
  5
4A
102
{ACAD_REACTORS
330
34
102
}
330
34
100
AcDbScale
 70
     0
300
1:1
140
1.0
141
1.0
290
     1
  0
SCALE
  5
4B
102
{ACAD_REACTORS
330
34
102
}
330
34
100
AcDbScale
 70
     0
300
1/128" = 1'-0"
140
0.0078125
141
12.0
290
     0
  0
SCALE
  5
4C
102
{ACAD_REACTORS
330
34
102
}
330
34
100
AcDbScale
 70
     0
300
1/64" = 1'-0"
140
0.015625
141
12.0
290
     0
  0
SCALE
  5
4D
102
{ACAD_REACTORS
330
34
102
}
330
34
100
AcDbScale
 70
     0
300
1/32" = 1'-0"
140
0.03125
141
12.0
290
     0
  0
SCALE
  5
4E
102
{ACAD_REACTORS
330
34
102
}
330
34
100
AcDbScale
 70
     0
300
1/16" = 1'-0"
140
0.0625
141
12.0
290
     0
  0
SCALE
  5
4F
102
{ACAD_REACTORS
330
34
102
}
330
34
100
AcDbScale
 70
     0
300
3/32" = 1'-0"
140
0.09375
141
12.0
290
     0
  0
SCALE
  5
50
102
{ACAD_REACTORS
330
34
102
}
330
34
100
AcDbScale
 70
     0
300
1/8" = 1'-0"
140
0.125
141
12.0
290
     0
  0
SCALE
  5
51
102
{ACAD_REACTORS
330
34
102
}
330
34
100
AcDbScale
 70
     0
300
3/16" = 1'-0"
140
0.1875
141
12.0
290
     0
  0
SCALE
  5
52
102
{ACAD_REACTORS
330
34
102
}
330
34
100
AcDbScale
 70
     0
300
1/4" = 1'-0"
140
0.25
141
12.0
290
     0
  0
SCALE
  5
53
102
{ACAD_REACTORS
330
34
102
}
330
34
100
AcDbScale
 70
     0
300
3/8" = 1'-0"
140
0.375
141
12.0
290
     0
  0
SCALE
  5
54
102
{ACAD_REACTORS
330
34
102
}
330
34
100
AcDbScale
 70
     0
300
1/2" = 1'-0"
140
0.5
141
12.0
290
     0
  0
SCALE
  5
55
102
{ACAD_REACTORS
330
34
102
}
330
34
100
AcDbScale
 70
     0
300
3/4" = 1'-0"
140
0.75
141
12.0
290
     0
  0
SCALE
  5
56
102
{ACAD_REACTORS
330
34
102
}
330
34
100
AcDbScale
 70
     0
300
1" = 1'-0"
140
1.0
141
12.0
290
     0
  0
SCALE
  5
57
102
{ACAD_REACTORS
330
34
102
}
330
34
100
AcDbScale
 70
     0
300
1-1/2" = 1'-0"
140
1.5
141
12.0
290
     0
  0
SCALE
  5
58
102
{ACAD_REACTORS
330
34
102
}
330
34
100
AcDbScale
 70
     0
300
3" = 1'-0"
140
3.0
141
12.0
290
     0
  0
SCALE
  5
59
102
{ACAD_REACTORS
330
34
102
}
330
34
100
AcDbScale
 70
     0
300
6" = 1'-0"
140
6.0
141
12.0
290
     0
  0
SCALE
  5
5A
102
{ACAD_REACTORS
330
34
102
}
330
34
100
AcDbScale
 70
     0
300
1'-0" = 1'-0"
140
12.0
141
12.0
290
     0
  0
TABLESTYLE
  5
47
102
{ACAD_XDICTIONARY
360
15C
102
}
102
{ACAD_REACTORS
330
35
102
}
330
35
100
AcDbTableStyle
280
     0
  3
Standard
 70
     0
 71
     0
 40
0.06
 41
0.06
280
     0
281
     0
  7
Standard
140
0.18
170
     2
 62
     0
 63
     7
283
     0
 90
        4
 91
        0
  1

274
    -2
284
     1
 64
     0
275
    -2
285
     1
 65
     0
276
    -2
286
     1
 66
     0
277
    -2
287
     1
 67
     0
278
    -2
288
     1
 68
     0
279
    -2
289
     1
 69
     0
  7
Standard
140
0.25
170
     5
 62
     0
 63
     7
283
     0
 90
        4
 91
        0
  1

274
    -2
284
     1
 64
     0
275
    -2
285
     1
 65
     0
276
    -2
286
     1
 66
     0
277
    -2
287
     1
 67
     0
278
    -2
288
     1
 68
     0
279
    -2
289
     1
 69
     0
  7
Standard
140
0.18
170
     5
 62
     0
 63
     7
283
     0
 90
        4
 91
        0
  1

274
    -2
284
     1
 64
     0
275
    -2
285
     1
 65
     0
276
    -2
286
     1
 66
     0
277
    -2
287
     1
 67
     0
278
    -2
288
     1
 68
     0
279
    -2
289
     1
 69
     0
  0
VISUALSTYLE
  5
25
102
{ACAD_REACTORS
330
26
102
}
330
26
100
AcDbVisualStyle
  2
2dWireframe
 70
     4
177
     3
291
     0
 70
    58
 90
        0
176
     1
 90
        2
176
     1
 90
        0
176
     1
 90
        0
176
     1
 40
0.6
176
     1
 40
30.0
176
     1
 62
     7
176
     1
 90
        1
176
     1
 90
        4
176
     1
 62
     7
176
     1
 62
   257
176
     1
 90
        1
176
     1
 90
        1
176
     1
 40
1.0
176
     1
 90
        0
176
     1
 62
   257
176
     1
 40
1.0
176
     1
 90
        1
176
     1
 90
        6
176
     1
 90
        2
176
     1
 62
     7
176
     1
 90
        5
176
     1
 90
        0
176
     1
 90
        0
176
     1
290
     0
176
     1
 90
        1
176
     1
 40
0.0
176
     1
 90
        0
176
     1
290
     1
176
     1
290
     1
176
     1
290
     0
176
     1
290
     0
176
     1
290
     0
176
     1
290
     0
176
     1
290
     0
176
     1
290
     0
176
     1
290
     0
176
     1
 90
       50
176
     1
 40
0.0
176
     1
 40
1.0
176
     1
 90
        0
176
     1
 62
    18
420
        0
176
     1
 90
       50
176
     1
 90
        3
176
     1
 62
     5
420
      255
176
     1
290
     0
176
     1
 90
       50
176
     1
 90
       50
176
     1
 90
       50
176
     1
290
     0
176
     1
 90
       50
176
     1
 62
   256
176
     0
 40
1.0
176
     0
 90
        2
176
     1
  1
strokes_ogs.tif
176
     1
290
     0
176
     1
 40
1.0
176
     1
 40
1.0
176
     1
1001
ACAD
1000
AcRTDxfName
1000
VISUALSTYLE
1000
AcRTDxfName
1000
VISUALSTYLE
1000
AcRTDxfName
1000
VISUALSTYLE
1000
AcRTDxfName
1000
VISUALSTYLE
1000
AcRTDxfName
1000
VISUALSTYLE
1000
AcRTDxfName
1000
VISUALSTYLE
1000
AcRTDxfName
1000
VISUALSTYLE
1000
AcRTDxfName
1000
VISUALSTYLE
1000
AcRTDxfName
1000
VISUALSTYLE
1000
AcRTDxfName
1000
VISUALSTYLE
1000
AcRTDxfName
1000
VISUALSTYLE
  0
VISUALSTYLE
  5
6C
102
{ACAD_REACTORS
330
26
102
}
330
26
100
AcDbVisualStyle
  2
EdgeColorOff
 70
    22
177
     3
291
     1
 70
    58
 90
        2
176
     0
 90
        2
176
     0
 90
        0
176
     0
 90
        0
176
     0
 40
0.6
176
     0
 40
30.0
176
     0
 62
     7
420
 16777215
176
     0
 90
        1
176
     0
 90
        4
176
     0
 62
     7
176
     0
 62
   257
176
     0
 90
        1
176
     0
 90
        1
176
     0
 40
1.0
176
     0
 90
        8
176
     2
 62
     7
176
     0
 40
1.0
176
     0
 90
        1
176
     0
 90
        6
176
     0
 90
        2
176
     0
 62
     7
176
     0
 90
        5
176
     0
 90
        0
176
     0
 90
        0
176
     0
290
     0
176
     0
 90
        1
176
     0
 40
0.0
176
     0
 90
        0
176
     0
290
     0
176
     0
290
     1
176
     0
290
     1
176
     0
290
     0
176
     0
290
     0
176
     0
290
     0
176
     0
290
     0
176
     0
290
     0
176
     0
290
     0
176
     0
 90
       50
176
     0
 40
0.0
176
     0
 40
1.0
176
     0
 90
        0
176
     0
 62
    18
420
        0
176
     0
 90
       50
176
     0
 90
        3
176
     0
 62
     5
420
      255
176
     0
290
     0
176
     0
 90
       50
176
     0
 90
       50
176
     0
 90
       50
176
     0
290
     0
176
     0
 90
       50
176
     0
 62
   256
176
     0
 40
1.0
176
     0
 90
        2
176
     0
  1
strokes_ogs.tif
176
     0
290
     0
176
     0
 40
1.0
176
     0
 40
1.0
176
     0
  0
VISUALSTYLE
  5
48
102
{ACAD_REACTORS
330
26
102
}
330
26
100
AcDbVisualStyle
  2
Realistic
 70
     8
177
     3
291
     0
 70
    58
 90
        2
176
     1
 90
        2
176
     1
 90
        0
176
     1
 90
        0
176
     1
 40
0.6
176
     1
 40
30.0
176
     1
 62
     7
176
     1
 90
        1
176
     1
 90
        0
176
     1
 62
     7
176
     1
 62
   257
176
     1
 90
        1
176
     1
 90
        1
176
     1
 40
1.0
176
     1
 90
        8
176
     1
 62
     8
176
     1
 40
1.0
176
     1
 90
        1
176
     1
 90
        6
176
     1
 90
        2
176
     1
 62
     7
176
     1
 90
        5
176
     1
 90
        0
176
     1
 90
        0
176
     1
290
     0
176
     1
 90
       13
176
     1
 40
0.0
176
     1
 90
        0
176
     1
290
     0
176
     1
290
     1
176
     1
290
     1
176
     1
290
     0
176
     1
290
     0
176
     1
290
     0
176
     1
290
     0
176
     1
290
     0
176
     1
290
     0
176
     1
 90
       50
176
     1
 40
0.0
176
     1
 40
1.0
176
     1
 90
        0
176
     1
 62
    18
420
        0
176
     1
 90
       50
176
     1
 90
        3
176
     1
 62
     5
420
      255
176
     1
290
     0
176
     1
 90
       50
176
     1
 90
       50
176
     1
 90
       50
176
     1
290
     0
176
     1
 90
       50
176
     1
 62
   256
176
     0
 40
1.0
176
     0
 90
        2
176
     1
  1
strokes_ogs.tif
176
     1
290
     0
176
     1
 40
1.0
176
     1
 40
1.0
176
     1
1001
ACAD
1000
AcRTDxfName
1000
VISUALSTYLE
1000
AcRTDxfName
1000
VISUALSTYLE
1000
AcRTDxfName
1000
VISUALSTYLE
1000
AcRTDxfName
1000
VISUALSTYLE
1000
AcRTDxfName
1000
VISUALSTYLE
1000
AcRTDxfName
1000
VISUALSTYLE
1000
AcRTDxfName
1000
VISUALSTYLE
1000
AcRTDxfName
1000
VISUALSTYLE
1000
AcRTDxfName
1000
VISUALSTYLE
1000
AcRTDxfName
1000
VISUALSTYLE
1000
AcRTDxfName
1000
VISUALSTYLE
  0
VISUALSTYLE
  5
49
102
{ACAD_REACTORS
330
26
102
}
330
26
100
AcDbVisualStyle
  2
Wireframe
 70
     5
177
     3
291
     0
 70
    58
 90
        0
176
     1
 90
        2
176
     1
 90
        0
176
     1
 90
        0
176
     1
 40
0.6
176
     1
 40
30.0
176
     1
 62
     7
420
 16777215
176
     1
 90
        1
176
     1
 90
        4
176
     1
 62
     7
176
     1
 62
   257
176
     1
 90
        1
176
     1
 90
        1
176
     1
 40
1.0
176
     1
 90
        0
176
     1
 62
   257
176
     1
 40
1.0
176
     1
 90
        1
176
     1
 90
        6
176
     1
 90
        2
176
     1
 62
     7
176
     1
 90
        3
176
     1
 90
        0
176
     1
 90
        0
176
     1
290
     0
176
     1
 90
        1
176
     1
 40
0.0
176
     1
 90
        0
176
     1
290
     0
176
     1
290
     1
176
     1
290
     1
176
     1
290
     0
176
     1
290
     0
176
     1
290
     0
176
     1
290
     0
176
     1
290
     0
176
     1
290
     0
176
     1
 90
       50
176
     1
 40
0.0
176
     1
 40
1.0
176
     1
 90
        0
176
     1
 62
    18
420
        0
176
     1
 90
       50
176
     1
 90
        3
176
     1
 62
     5
420
      255
176
     1
290
     0
176
     1
 90
       50
176
     1
 90
       50
176
     1
 90
       50
176
     1
290
     0
176
     1
 90
       50
176
     1
 62
   256
176
     0
 40
1.0
176
     0
 90
        2
176
     1
  1
strokes_ogs.tif
176
     1
290
     0
176
     1
 40
1.0
176
     1
 40
1.0
176
     1
  0
DICTIONARYVAR
  5
38
102
{ACAD_REACTORS
330
37
102
}
330
37
100
DictionaryVariables
280
     0
  1
1:1
  0
DICTIONARYVAR
  5
39
102
{ACAD_REACTORS
330
37
102
}
330
37
100
DictionaryVariables
280
     0
  1
STANDARD
  0
DICTIONARYVAR
  5
3A
102
{ACAD_REACTORS
330
37
102
}
330
37
100
DictionaryVariables
280
     0
  1
STANDARD
  0
DICTIONARYVAR
  5
3B
102
{ACAD_REACTORS
330
37
102
}
330
37
100
DictionaryVariables
280
     0
  1

  0
DICTIONARYVAR
  5
3C
102
{ACAD_REACTORS
330
37
102
}
330
37
100
DictionaryVariables
280
     0
  1

  0
DICTIONARYVAR
  5
3D
102
{ACAD_REACTORS
330
37
102
}
330
37
100
DictionaryVariables
280
     0
  1
0
  0
DICTIONARYVAR
  5
3E
102
{ACAD_REACTORS
330
37
102
}
330
37
100
DictionaryVariables
280
     0
  1
0
  0
DICTIONARYVAR
  5
3F
102
{ACAD_REACTORS
330
37
102
}
330
37
100
DictionaryVariables
280
     0
  1
1
  0
DICTIONARYVAR
  5
40
102
{ACAD_REACTORS
330
37
102
}
330
37
100
DictionaryVariables
280
     0
  1
15
  0
DICTIONARYVAR
  5
41
102
{ACAD_REACTORS
330
37
102
}
330
37
100
DictionaryVariables
280
     0
  1
0
  0
DICTIONARYVAR
  5
42
102
{ACAD_REACTORS
330
37
102
}
330
37
100
DictionaryVariables
280
     0
  1
0
  0
DICTIONARYVAR
  5
43
102
{ACAD_REACTORS
330
37
102
}
330
37
100
DictionaryVariables
280
     0
  1

  0
DICTIONARYVAR
  5
44
102
{ACAD_REACTORS
330
37
102
}
330
37
100
DictionaryVariables
280
     0
  1
127
  0
DICTIONARY
  5
15C
330
47
100
AcDbDictionary
280
     1
281
     1
  3
ACAD_ROUNDTRIP_2008_TABLESTYLE_CELLSTYLEMAP
360
15D
  0
CELLSTYLEMAP
  5
15D
102
{ACAD_REACTORS
330
15C
102
}
330
15C
100
AcDbCellStyleMap
 90
        3
300
CELLSTYLE
  1
TABLEFORMAT_BEGIN
 90
        5
170
     1
 91
        0
 92
    32768
 62
   257
 93
        1
300
CONTENTFORMAT
  1
CONTENTFORMAT_BEGIN
 90
        0
 91
        0
 92
        4
 93
        0
300

 40
0.0
140
1.0
 94
        5
 62
     0
340
1C
144
0.25
309
CONTENTFORMAT_END
171
     0
 94
        6
 95
        1
302
GRIDFORMAT
  1
GRIDFORMAT_BEGIN
 90
        0
 91
        1
 62
     0
 92
       -2
340
0
 93
        0
 40
0.045
309
GRIDFORMAT_END
 95
        2
302
GRIDFORMAT
  1
GRIDFORMAT_BEGIN
 90
        0
 91
        1
 62
     0
 92
       -2
340
0
 93
        0
 40
0.045
309
GRIDFORMAT_END
 95
        4
302
GRIDFORMAT
  1
GRIDFORMAT_BEGIN
 90
        0
 91
        1
 62
     0
 92
       -2
340
0
 93
        0
 40
0.045
309
GRIDFORMAT_END
 95
        8
302
GRIDFORMAT
  1
GRIDFORMAT_BEGIN
 90
        0
 91
        1
 62
     0
 92
       -2
340
0
 93
        0
 40
0.045
309
GRIDFORMAT_END
 95
       16
302
GRIDFORMAT
  1
GRIDFORMAT_BEGIN
 90
        0
 91
        1
 62
     0
 92
       -2
340
0
 93
        0
 40
0.045
309
GRIDFORMAT_END
 95
       32
302
GRIDFORMAT
  1
GRIDFORMAT_BEGIN
 90
        0
 91
        1
 62
     0
 92
       -2
340
0
 93
        0
 40
0.045
309
GRIDFORMAT_END
309
TABLEFORMAT_END
  1
CELLSTYLE_BEGIN
 90
        1
 91
        1
300
_TITLE
309
CELLSTYLE_END
300
CELLSTYLE
  1
TABLEFORMAT_BEGIN
 90
        5
170
     1
 91
        0
 92
        0
 62
   257
 93
        1
300
CONTENTFORMAT
  1
CONTENTFORMAT_BEGIN
 90
        0
 91
        0
 92
        4
 93
        0
300

 40
0.0
140
1.0
 94
        5
 62
     0
340
1C
144
0.18
309
CONTENTFORMAT_END
171
     0
 94
        6
 95
        1
302
GRIDFORMAT
  1
GRIDFORMAT_BEGIN
 90
        0
 91
        1
 62
     0
 92
       -2
340
0
 93
        0
 40
0.045
309
GRIDFORMAT_END
 95
        2
302
GRIDFORMAT
  1
GRIDFORMAT_BEGIN
 90
        0
 91
        1
 62
     0
 92
       -2
340
0
 93
        0
 40
0.045
309
GRIDFORMAT_END
 95
        4
302
GRIDFORMAT
  1
GRIDFORMAT_BEGIN
 90
        0
 91
        1
 62
     0
 92
       -2
340
0
 93
        0
 40
0.045
309
GRIDFORMAT_END
 95
        8
302
GRIDFORMAT
  1
GRIDFORMAT_BEGIN
 90
        0
 91
        1
 62
     0
 92
       -2
340
0
 93
        0
 40
0.045
309
GRIDFORMAT_END
 95
       16
302
GRIDFORMAT
  1
GRIDFORMAT_BEGIN
 90
        0
 91
        1
 62
     0
 92
       -2
340
0
 93
        0
 40
0.045
309
GRIDFORMAT_END
 95
       32
302
GRIDFORMAT
  1
GRIDFORMAT_BEGIN
 90
        0
 91
        1
 62
     0
 92
       -2
340
0
 93
        0
 40
0.045
309
GRIDFORMAT_END
309
TABLEFORMAT_END
  1
CELLSTYLE_BEGIN
 90
        2
 91
        1
300
_HEADER
309
CELLSTYLE_END
300
CELLSTYLE
  1
TABLEFORMAT_BEGIN
 90
        5
170
     1
 91
        0
 92
        0
 62
   257
 93
        1
300
CONTENTFORMAT
  1
CONTENTFORMAT_BEGIN
 90
        0
 91
        0
 92
        4
 93
        0
300

 40
0.0
140
1.0
 94
        2
 62
     0
340
1C
144
0.18
309
CONTENTFORMAT_END
171
     0
 94
        6
 95
        1
302
GRIDFORMAT
  1
GRIDFORMAT_BEGIN
 90
        0
 91
        1
 62
     0
 92
       -2
340
0
 93
        0
 40
0.045
309
GRIDFORMAT_END
 95
        2
302
GRIDFORMAT
  1
GRIDFORMAT_BEGIN
 90
        0
 91
        1
 62
     0
 92
       -2
340
0
 93
        0
 40
0.045
309
GRIDFORMAT_END
 95
        4
302
GRIDFORMAT
  1
GRIDFORMAT_BEGIN
 90
        0
 91
        1
 62
     0
 92
       -2
340
0
 93
        0
 40
0.045
309
GRIDFORMAT_END
 95
        8
302
GRIDFORMAT
  1
GRIDFORMAT_BEGIN
 90
        0
 91
        1
 62
     0
 92
       -2
340
0
 93
        0
 40
0.045
309
GRIDFORMAT_END
 95
       16
302
GRIDFORMAT
  1
GRIDFORMAT_BEGIN
 90
        0
 91
        1
 62
     0
 92
       -2
340
0
 93
        0
 40
0.045
309
GRIDFORMAT_END
 95
       32
302
GRIDFORMAT
  1
GRIDFORMAT_BEGIN
 90
        0
 91
        1
 62
     0
 92
       -2
340
0
 93
        0
 40
0.045
309
GRIDFORMAT_END
309
TABLEFORMAT_END
  1
CELLSTYLE_BEGIN
 90
        3
 91
        2
300
_DATA
309
CELLSTYLE_END
  0
ENDSEC
  0
EOF
