  0
SECTION
  2
HEADER
  9
$ACADVER
  1
AC1032
  9
$ACADMAINTVER
 90
      197
  9
$DWGCODEPAGE
  3
ANSI_936
  9
$REQUIREDVERSIONS
160
                 0
  9
$INSBASE
 10
0.0
 20
0.0
 30
0.0
  9
$EXTMIN
 10
724.5081161426298
 20
-67.03714960055157
 30
-0.066669363398895
  9
$EXTMAX
 10
900.4717325634878
 20
157.4581211841151
 30
0.1908957645403255
  9
$LIMMIN
 10
0.0
 20
0.0
  9
$LIMMAX
 10
420.0
 20
297.0
  9
$ORTHOMODE
 70
     1
  9
$REGENMODE
 70
     1
  9
$FILLMODE
 70
     1
  9
$QTEXTMODE
 70
     0
  9
$MIRRTEXT
 70
     0
  9
$LTSCALE
 40
1.0
  9
$ATTMODE
 70
     1
  9
$TEXTSIZE
 40
1.854465167846797
  9
$TRACEWID
 40
1.0
  9
$TEXTSTYLE
  7
Standard
  9
$CLAYER
  8
0
  9
$CELTYPE
  6
ByLayer
  9
$CECOLOR
 62
     4
  9
$CELTSCALE
 40
1.0
  9
$DISPSILH
 70
     0
  9
$DIMSCALE
 40
1.0
  9
$DIMASZ
 40
0.01
  9
$DIMEXO
 40
0.05
  9
$DIMDLI
 40
0.01
  9
$DIMRND
 40
0.0
  9
$DIMDLE
 40
0.0
  9
$DIMEXE
 40
0.05
  9
$DIMTP
 40
0.0
  9
$DIMTM
 40
0.0
  9
$DIMTXT
 40
0.05
  9
$DIMCEN
 40
2.5
  9
$DIMTSZ
 40
0.0
  9
$DIMTOL
 70
     0
  9
$DIMLIM
 70
     0
  9
$DIMTIH
 70
     0
  9
$DIMTOH
 70
     0
  9
$DIMSE1
 70
     0
  9
$DIMSE2
 70
     0
  9
$DIMTAD
 70
     1
  9
$DIMZIN
 70
     8
  9
$DIMBLK
  1

  9
$DIMASO
 70
     1
  9
$DIMSHO
 70
     1
  9
$DIMPOST
  1

  9
$DIMAPOST
  1

  9
$DIMALT
 70
     0
  9
$DIMALTD
 70
     3
  9
$DIMALTF
 40
0.03937007874016
  9
$DIMLFAC
 40
1.0
  9
$DIMTOFL
 70
     1
  9
$DIMTVP
 40
0.0
  9
$DIMTIX
 70
     0
  9
$DIMSOXD
 70
     0
  9
$DIMSAH
 70
     0
  9
$DIMBLK1
  1

  9
$DIMBLK2
  1

  9
$DIMSTYLE
  2
ISO-25
  9
$DIMCLRD
 70
     0
  9
$DIMCLRE
 70
     0
  9
$DIMCLRT
 70
     0
  9
$DIMTFAC
 40
1.0
  9
$DIMGAP
 40
0.005
  9
$DIMJUST
 70
     0
  9
$DIMSD1
 70
     0
  9
$DIMSD2
 70
     0
  9
$DIMTOLJ
 70
     0
  9
$DIMTZIN
 70
     8
  9
$DIMALTZ
 70
     0
  9
$DIMALTTZ
 70
     0
  9
$DIMUPT
 70
     0
  9
$DIMDEC
 70
     3
  9
$DIMTDEC
 70
     3
  9
$DIMALTU
 70
     2
  9
$DIMALTTD
 70
     3
  9
$DIMTXSTY
  7
Standard
  9
$DIMAUNIT
 70
     0
  9
$DIMADEC
 70
     0
  9
$DIMALTRND
 40
0.0
  9
$DIMAZIN
 70
     0
  9
$DIMDSEP
 70
    46
  9
$DIMATFIT
 70
     3
  9
$DIMFRAC
 70
     0
  9
$DIMLDRBLK
  1

  9
$DIMLUNIT
 70
     2
  9
$DIMLWD
 70
    -2
  9
$DIMLWE
 70
    -2
  9
$DIMTMOVE
 70
     0
  9
$DIMFXL
 40
1.0
  9
$DIMFXLON
 70
     0
  9
$DIMJOGANG
 40
0.7853981633974483
  9
$DIMTFILL
 70
     0
  9
$DIMTFILLCLR
 70
     0
  9
$DIMARCSYM
 70
     0
  9
$DIMLTYPE
  6

  9
$DIMLTEX1
  6

  9
$DIMLTEX2
  6

  9
$DIMTXTDIRECTION
 70
     0
  9
$LUNITS
 70
     2
  9
$LUPREC
 70
     8
  9
$SKETCHINC
 40
1.0
  9
$FILLETRAD
 40
0.0
  9
$AUNITS
 70
     0
  9
$AUPREC
 70
     0
  9
$MENU
  1
.
  9
$ELEVATION
 40
0.0
  9
$PELEVATION
 40
0.0
  9
$THICKNESS
 40
0.0
  9
$LIMCHECK
 70
     0
  9
$CHAMFERA
 40
0.1
  9
$CHAMFERB
 40
0.1
  9
$CHAMFERC
 40
0.0
  9
$CHAMFERD
 40
0.0
  9
$SKPOLY
 70
     0
  9
$TDCREATE
 40
2457541.401157408
  9
$TDUCREATE
 40
2457541.067832709
  9
$TDUPDATE
 40
2460203.377650463
  9
$TDUUPDATE
 40
2460203.044318183
  9
$TDINDWG
 40
12.7645128819
  9
$TDUSRTIMER
 40
12.7645123958
  9
$USRTIMER
 70
     1
  9
$ANGBASE
 50
0.0
  9
$ANGDIR
 70
     0
  9
$PDMODE
 70
     0
  9
$PDSIZE
 40
0.0
  9
$PLINEWID
 40
0.0
  9
$SPLFRAME
 70
     0
  9
$SPLINETYPE
 70
     6
  9
$SPLINESEGS
 70
     8
  9
$HANDSEED
  5
17E
  9
$SURFTAB1
 70
     6
  9
$SURFTAB2
 70
     6
  9
$SURFTYPE
 70
     6
  9
$SURFU
 70
     6
  9
$SURFV
 70
     6
  9
$UCSBASE
  2

  9
$UCSNAME
  2

  9
$UCSORG
 10
0.0
 20
0.0
 30
0.0
  9
$UCSXDIR
 10
1.0
 20
0.0
 30
0.0
  9
$UCSYDIR
 10
0.0
 20
1.0
 30
0.0
  9
$UCSORTHOREF
  2

  9
$UCSORTHOVIEW
 70
     0
  9
$UCSORGTOP
 10
0.0
 20
0.0
 30
0.0
  9
$UCSORGBOTTOM
 10
0.0
 20
0.0
 30
0.0
  9
$UCSORGLEFT
 10
0.0
 20
0.0
 30
0.0
  9
$UCSORGRIGHT
 10
0.0
 20
0.0
 30
0.0
  9
$UCSORGFRONT
 10
0.0
 20
0.0
 30
0.0
  9
$UCSORGBACK
 10
0.0
 20
0.0
 30
0.0
  9
$PUCSBASE
  2

  9
$PUCSNAME
  2

  9
$PUCSORG
 10
0.0
 20
0.0
 30
0.0
  9
$PUCSXDIR
 10
1.0
 20
0.0
 30
0.0
  9
$PUCSYDIR
 10
0.0
 20
1.0
 30
0.0
  9
$PUCSORTHOREF
  2

  9
$PUCSORTHOVIEW
 70
     0
  9
$PUCSORGTOP
 10
0.0
 20
0.0
 30
0.0
  9
$PUCSORGBOTTOM
 10
0.0
 20
0.0
 30
0.0
  9
$PUCSORGLEFT
 10
0.0
 20
0.0
 30
0.0
  9
$PUCSORGRIGHT
 10
0.0
 20
0.0
 30
0.0
  9
$PUCSORGFRONT
 10
0.0
 20
0.0
 30
0.0
  9
$PUCSORGBACK
 10
0.0
 20
0.0
 30
0.0
  9
$USERI1
 70
     0
  9
$USERI2
 70
     0
  9
$USERI3
 70
     0
  9
$USERI4
 70
     0
  9
$USERI5
 70
     0
  9
$USERR1
 40
0.0
  9
$USERR2
 40
0.0
  9
$USERR3
 40
0.0
  9
$USERR4
 40
0.0
  9
$USERR5
 40
0.0
  9
$WORLDVIEW
 70
     1
  9
$SHADEDGE
 70
     3
  9
$SHADEDIF
 70
    70
  9
$TILEMODE
 70
     1
  9
$MAXACTVP
 70
    64
  9
$PINSBASE
 10
0.0
 20
0.0
 30
0.0
  9
$PLIMCHECK
 70
     0
  9
$PEXTMIN
 10
0.0
 20
0.0
 30
0.0
  9
$PEXTMAX
 10
0.0
 20
0.0
 30
0.0
  9
$PLIMMIN
 10
0.0
 20
0.0
  9
$PLIMMAX
 10
12.0
 20
9.0
  9
$UNITMODE
 70
     0
  9
$VISRETAIN
 70
     1
  9
$PLINEGEN
 70
     0
  9
$PSLTSCALE
 70
     1
  9
$TREEDEPTH
 70
  3020
  9
$CMLSTYLE
  2
Standard
  9
$CMLJUST
 70
     0
  9
$CMLSCALE
 40
20.0
  9
$PROXYGRAPHICS
 70
     1
  9
$MEASUREMENT
 70
     1
  9
$CELWEIGHT
370
    -1
  9
$ENDCAPS
280
     0
  9
$JOINSTYLE
280
     0
  9
$LWDISPLAY
290
     0
  9
$INSUNITS
 70
     0
  9
$HYPERLINKBASE
  1

  9
$STYLESHEET
  1

  9
$XEDIT
290
     1
  9
$CEPSNTYPE
380
     0
  9
$PSTYLEMODE
290
     1
  9
$FINGERPRINTGUID
  2
{957E5915-A089-2840-8D8D-BF4A9A6CC236}
  9
$VERSIONGUID
  2
{09404C07-472E-2743-99B1-763CF765002B}
  9
$EXTNAMES
290
     1
  9
$PSVPSCALE
 40
0.0
  9
$OLESTARTUP
290
     0
  9
$SORTENTS
280
   127
  9
$INDEXCTL
280
     0
  9
$HIDETEXT
280
     1
  9
$XCLIPFRAME
280
     2
  9
$HALOGAP
280
     0
  9
$OBSCOLOR
 70
   257
  9
$OBSLTYPE
280
     0
  9
$INTERSECTIONDISPLAY
280
     0
  9
$INTERSECTIONCOLOR
 70
   257
  9
$DIMASSOC
280
     2
  9
$PROJECTNAME
  1

  9
$CAMERADISPLAY
290
     0
  9
$LENSLENGTH
 40
50.0
  9
$CAMERAHEIGHT
 40
0.0
  9
$STEPSPERSEC
 40
2.0
  9
$STEPSIZE
 40
6.0
  9
$3DDWFPREC
 40
2.0
  9
$PSOLWIDTH
 40
0.25
  9
$PSOLHEIGHT
 40
4.0
  9
$LOFTANG1
 40
1.570796326794896
  9
$LOFTANG2
 40
1.570796326794896
  9
$LOFTMAG1
 40
0.0
  9
$LOFTMAG2
 40
0.0
  9
$LOFTPARAM
 70
     7
  9
$LOFTNORMALS
280
     1
  9
$LATITUDE
 40
0.0
  9
$LONGITUDE
 40
0.0
  9
$NORTHDIRECTION
 40
0.0
  9
$TIMEZONE
 70
 -8000
  9
$LIGHTGLYPHDISPLAY
280
     1
  9
$TILEMODELIGHTSYNCH
280
     1
  9
$CMATERIAL
347
33
  9
$SOLIDHIST
280
     1
  9
$SHOWHIST
280
     1
  9
$DWFFRAME
280
     2
  9
$DGNFRAME
280
     0
  9
$REALWORLDSCALE
290
     1
  9
$INTERFERECOLOR
 62
     1
  9
$INTERFEREOBJVS
345
52
  9
$INTERFEREVPVS
346
53
  9
$CSHADOW
280
     0
  9
$SHADOWPLANELOCATION
 40
0.0
  0
ENDSEC
  0
SECTION
  2
CLASSES
  0
CLASS
  1
ACDBDICTIONARYWDFLT
  2
AcDbDictionaryWithDefault
  3
ObjectDBX Classes
 90
        0
 91
        1
280
     0
281
     0
  0
CLASS
  1
DICTIONARYVAR
  2
AcDbDictionaryVar
  3
ObjectDBX Classes
 90
        0
 91
       18
280
     0
281
     0
  0
CLASS
  1
TABLESTYLE
  2
AcDbTableStyle
  3
ObjectDBX Classes
 90
     4095
 91
        1
280
     0
281
     0
  0
CLASS
  1
MATERIAL
  2
AcDbMaterial
  3
ObjectDBX Classes
 90
     1153
 91
        3
280
     0
281
     0
  0
CLASS
  1
VISUALSTYLE
  2
AcDbVisualStyle
  3
ObjectDBX Classes
 90
     4095
 91
        4
280
     0
281
     0
  0
CLASS
  1
SCALE
  2
AcDbScale
  3
ObjectDBX Classes
 90
     1153
 91
       17
280
     0
281
     0
  0
CLASS
  1
MLEADERSTYLE
  2
AcDbMLeaderStyle
  3
ACDB_MLEADERSTYLE_CLASS
 90
     4095
 91
        0
280
     0
281
     0
  0
CLASS
  1
CELLSTYLEMAP
  2
AcDbCellStyleMap
  3
ObjectDBX Classes
 90
     1152
 91
        1
280
     0
281
     0
  0
CLASS
  1
EXACXREFPANELOBJECT
  2
ExAcXREFPanelObject
  3
EXAC_ESW
 90
     1025
 91
        0
280
     1
281
     0
  0
CLASS
  1
NPOCOLLECTION
  2
AcDbImpNonPersistentObjectsCollection
  3
ObjectDBX Classes
 90
     1153
 91
        0
280
     0
281
     0
  0
CLASS
  1
LAYER_INDEX
  2
AcDbLayerIndex
  3
ObjectDBX Classes
 90
        0
 91
        0
280
     0
281
     0
  0
CLASS
  1
SPATIAL_INDEX
  2
AcDbSpatialIndex
  3
ObjectDBX Classes
 90
        0
 91
        0
280
     0
281
     0
  0
CLASS
  1
IDBUFFER
  2
AcDbIdBuffer
  3
ObjectDBX Classes
 90
        0
 91
        0
280
     0
281
     0
  0
CLASS
  1
SORTENTSTABLE
  2
AcDbSortentsTable
  3
ObjectDBX Classes
 90
        0
 91
        2
280
     0
281
     0
  0
CLASS
  1
DIMASSOC
  2
AcDbDimAssoc
  3
"AcDbDimAssoc|Product Desc:     AcDim ARX App For Dimension|Company:          Autodesk, Inc.|WEB Address:      www.autodesk.com"
 90
        0
 91
        0
280
     0
281
     0
  0
CLASS
  1
MULTILEADER
  2
AcDbMLeader
  3
ACDB_MLEADER_CLASS
 90
     1025
 91
        0
280
     0
281
     1
  0
CLASS
  1
IMAGEDEF
  2
AcDbRasterImageDef
  3
ISM
 90
        0
 91
        0
280
     0
281
     0
  0
CLASS
  1
RASTERVARIABLES
  2
AcDbRasterVariables
  3
ISM
 90
        0
 91
        0
280
     0
281
     0
  0
CLASS
  1
IMAGEDEF_REACTOR
  2
AcDbRasterImageDefReactor
  3
ISM
 90
        1
 91
        0
280
     0
281
     0
  0
CLASS
  1
IMAGE
  2
AcDbRasterImage
  3
ISM
 90
     2175
 91
        0
280
     0
281
     1
  0
CLASS
  1
ACDB_ALDIMOBJECTCONTEXTDATA_CLASS
  2
AcDbAlignedDimensionObjectContextData
  3
ObjectDBX Classes
 90
     1153
 91
        0
280
     0
281
     0
  0
CLASS
  1
ACARRAYJIGENTITY
  2
AcArrayJigEntity
  3
ACAD_ARRAY
 90
      129
 91
        0
280
     1
281
     1
  0
CLASS
  1
ACDBASSOCNETWORK
  2
AcDbAssocNetwork
  3
ObjectDBX Classes
 90
     1025
 91
        0
280
     0
281
     0
  0
CLASS
  1
ACDBASSOCACTION
  2
AcDbAssocAction
  3
ObjectDBX Classes
 90
     1025
 91
        0
280
     0
281
     0
  0
CLASS
  1
ACDBASSOCARRAYACTIONBODY
  2
AcDbAssocArrayActionBody
  3
ObjectDBX Classes
 90
     1025
 91
        0
280
     0
281
     0
  0
CLASS
  1
ACDBASSOCVERTEXACTIONPARAM
  2
AcDbAssocVertexActionParam
  3
ObjectDBX Classes
 90
     1025
 91
        0
280
     0
281
     0
  0
CLASS
  1
ACDBASSOCDEPENDENCY
  2
AcDbAssocDependency
  3
ObjectDBX Classes
 90
     1025
 91
        0
280
     0
281
     0
  0
CLASS
  1
ACDBASSOCARRAYRECTANGULARPARAMETERS
  2
AcDbAssocArrayRectangularParameters
  3
ObjectDBX Classes
 90
     1025
 91
        0
280
     0
281
     0
  0
CLASS
  1
ACDBSECTIONVIEWSTYLE
  2
AcDbSectionViewStyle
  3
ObjectDBX Classes
 90
     1025
 91
        0
280
     0
281
     0
  0
CLASS
  1
ACDBDETAILVIEWSTYLE
  2
AcDbDetailViewStyle
  3
ObjectDBX Classes
 90
     1025
 91
        0
280
     0
281
     0
  0
CLASS
  1
SWR_DBCONFIG
  2
TDbConfig
  3
"SWR_ARCHCORE"
 90
        1
 91
        0
280
     1
281
     0
  0
CLASS
  1
ACDB_TEXTOBJECTCONTEXTDATA_CLASS
  2
AcDbTextObjectContextData
  3
ObjectDBX Classes
 90
     1153
 91
        0
280
     0
281
     0
  0
CLASS
  1
SOLID_BACKGROUND
  2
AcDbSolidBackground
  3
SCENEOE
 90
     4095
 91
        0
280
     0
281
     0
  0
ENDSEC
  0
SECTION
  2
TABLES
  0
TABLE
  2
VPORT
  5
25
330
0
100
AcDbSymbolTable
 70
     1
  0
VPORT
  5
26
330
25
100
AcDbSymbolTableRecord
100
AcDbViewportTableRecord
  2
*Active
 70
     0
 10
0.0
 20
0.0
 11
1.0
 21
1.0
 12
884.7312142299509
 22
91.03231887208833
 13
0.0
 23
0.0
 14
10.0
 24
10.0
 15
10.0
 25
10.0
 16
0.0
 26
0.0
 36
1.0
 17
0.0
 27
0.0
 37
0.0
 40
8.402854735274038
 41
2.311515151515151
 42
50.0
 43
0.0
 44
0.0
 50
0.0
 51
0.0
 71
     0
 72
 20000
 73
     1
 74
     3
 75
     0
 76
     0
 77
     0
 78
     0
281
     0
 65
     1
110
0.0
120
0.0
130
0.0
111
1.0
121
0.0
131
0.0
112
0.0
122
1.0
132
0.0
 79
     0
146
0.0
348
27
 60
     3
 61
     5
292
     1
282
     1
141
0.0
142
0.0
1001
ACAD_NAV_VCDISPLAY
1070
     3
  0
ENDTAB
  0
TABLE
  2
LTYPE
  5
20
330
0
100
AcDbSymbolTable
 70
     3
  0
LTYPE
  5
21
330
20
100
AcDbSymbolTableRecord
100
AcDbLinetypeTableRecord
  2
ByBlock
 70
     0
  3

 72
    65
 73
     0
 40
0.0
  0
LTYPE
  5
22
330
20
100
AcDbSymbolTableRecord
100
AcDbLinetypeTableRecord
  2
ByLayer
 70
     0
  3

 72
    65
 73
     0
 40
0.0
  0
LTYPE
  5
10
330
20
100
AcDbSymbolTableRecord
100
AcDbLinetypeTableRecord
  2
Continuous
 70
     0
  3
Solid line
 72
    65
 73
     0
 40
0.0
  0
LTYPE
  5
72
330
20
100
AcDbSymbolTableRecord
100
AcDbLinetypeTableRecord
  2
CENTER2
 70
     0
  3
Center (.5x) ___ _ ___ _ ___ _ ___ _ ___ _ ___
 72
    65
 73
     4
 40
28.575
 49
19.05
 74
     0
 49
-3.174999999999999
 74
     0
 49
3.174999999999999
 74
     0
 49
-3.174999999999999
 74
     0
  0
LTYPE
  5
7C
330
20
100
AcDbSymbolTableRecord
100
AcDbLinetypeTableRecord
  2
HIDDEN2
 70
     0
  3
Hidden (.5x) _ _ _ _ _ _ _ _ _ _ _ _ _ _ _ _ _
 72
    65
 73
     2
 40
4.762499999999999
 49
3.174999999999999
 74
     0
 49
-1.587499999999999
 74
     0
  0
ENDTAB
  0
TABLE
  2
LAYER
  5
1A
102
{ACAD_XDICTIONARY
360
1B
102
}
330
0
100
AcDbSymbolTable
 70
     9
  0
LAYER
  5
7
330
1A
100
AcDbSymbolTableRecord
100
AcDbLayerTableRecord
  2
0
 70
     0
 62
     7
  6
Continuous
370
    -3
390
8
347
B
348
0
  0
LAYER
  5
71
330
1A
100
AcDbSymbolTableRecord
100
AcDbLayerTableRecord
  2
中心线
 70
     0
 62
     1
  6
CENTER2
370
    -3
390
8
347
B
348
0
1001
AcAecLayerStandard
1000

1000

1001
AcCmTransparency
1071
        0
1001
AcadStringInfo
1000
MIFCodePage
1070
     5
  0
LAYER
  5
F6
330
1A
100
AcDbSymbolTableRecord
100
AcDbLayerTableRecord
  2
Defpoints
 70
     0
 62
     7
  6
Continuous
290
     0
370
    -3
390
8
347
B
348
0
  0
LAYER
  5
66
330
1A
100
AcDbSymbolTableRecord
100
AcDbLayerTableRecord
  2
标注线
 70
     0
 62
     3
  6
Continuous
370
     9
390
8
347
B
348
0
1001
AcAecLayerStandard
1000

1000

1001
AcadStringInfo
1000
MIFCodePage
1070
     5
  0
LAYER
  5
6A
330
1A
100
AcDbSymbolTableRecord
100
AcDbLayerTableRecord
  2
PLATING
 70
     0
 62
     3
  6
Continuous
370
    -3
390
8
347
B
348
0
1001
AcAecLayerStandard
1000

1000

1001
AcCmTransparency
1071
        0
  0
LAYER
  5
81
330
1A
100
AcDbSymbolTableRecord
100
AcDbLayerTableRecord
  2
DIE
 70
     0
 62
     7
  6
Continuous
370
    -3
390
8
347
B
348
0
  0
LAYER
  5
C6
102
{ACAD_XDICTIONARY
360
C7
102
}
330
1A
100
AcDbSymbolTableRecord
100
AcDbLayerTableRecord
  2
ETCH
 70
     0
 62
     4
  6
Continuous
370
    15
390
8
347
B
348
0
1001
AcAecLayerStandard
1000

1000

  0
LAYER
  5
79
330
1A
100
AcDbSymbolTableRecord
100
AcDbLayerTableRecord
  2
outline
 70
     0
 62
   190
  6
Continuous
370
    -3
390
8
347
B
348
0
1001
AcAecLayerStandard
1000

1000

1001
AcCmTransparency
1071
        0
  0
LAYER
  5
7B
330
1A
100
AcDbSymbolTableRecord
100
AcDbLayerTableRecord
  2
BOT
 70
     0
 62
     7
  6
Continuous
370
    -3
390
8
347
B
348
0
1001
AcAecLayerStandard
1000

1000

1001
AcCmTransparency
1071
        0
  0
ENDTAB
  0
TABLE
  2
STYLE
  5
1D
330
0
100
AcDbSymbolTable
 70
     1
  0
STYLE
  5
1E
330
1D
100
AcDbSymbolTableRecord
100
AcDbTextStyleTableRecord
  2
Standard
 70
     0
 40
0.0
 41
1.0
 50
0.0
 71
     0
 42
1.854465167846797
  3

  4

1001
ACAD
1000
SimSun
1071
       34
  0
ENDTAB
  0
TABLE
  2
VIEW
  5
23
330
0
100
AcDbSymbolTable
 70
     0
  0
ENDTAB
  0
TABLE
  2
UCS
  5
24
330
0
100
AcDbSymbolTable
 70
     0
  0
ENDTAB
  0
TABLE
  2
APPID
  5
2A
330
0
100
AcDbSymbolTable
 70
    12
  0
APPID
  5
F
330
2A
100
AcDbSymbolTableRecord
100
AcDbRegAppTableRecord
  2
ACAD
 70
     0
  0
APPID
  5
15
330
2A
100
AcDbSymbolTableRecord
100
AcDbRegAppTableRecord
  2
ACAD_PSEXT
 70
     0
  0
APPID
  5
2D
330
2A
100
AcDbSymbolTableRecord
100
AcDbRegAppTableRecord
  2
ACAD_DSTYLE_DIMJAG
 70
     0
  0
APPID
  5
2E
330
2A
100
AcDbSymbolTableRecord
100
AcDbRegAppTableRecord
  2
ACAD_DSTYLE_DIMTALN
 70
     0
  0
APPID
  5
29
330
2A
100
AcDbSymbolTableRecord
100
AcDbRegAppTableRecord
  2
ACAD_NAV_VCDISPLAY
 70
     0
  0
APPID
  5
67
330
2A
100
AcDbSymbolTableRecord
100
AcDbRegAppTableRecord
  2
AcAecLayerStandard
 70
     0
  0
APPID
  5
6B
330
2A
100
AcDbSymbolTableRecord
100
AcDbRegAppTableRecord
  2
AcCmTransparency
 70
     0
  0
APPID
  5
6C
330
2A
100
AcDbSymbolTableRecord
100
AcDbRegAppTableRecord
  2
GradientColor1ACI
 70
     0
  0
APPID
  5
6D
330
2A
100
AcDbSymbolTableRecord
100
AcDbRegAppTableRecord
  2
GradientColor2ACI
 70
     0
  0
APPID
  5
14
330
2A
100
AcDbSymbolTableRecord
100
AcDbRegAppTableRecord
  2
AcadStringInfo
 70
     0
  0
APPID
  5
74
330
2A
100
AcDbSymbolTableRecord
100
AcDbRegAppTableRecord
  2
HATCHBACKGROUNDCOLOR
 70
     0
  0
APPID
  5
FA
330
2A
100
AcDbSymbolTableRecord
100
AcDbRegAppTableRecord
  2
ACAD_DSTYLE_DIMINSPECT
 70
     0
  0
ENDTAB
  0
TABLE
  2
DIMSTYLE
  5
2B
330
0
100
AcDbSymbolTable
 70
     1
100
AcDbDimStyleTable
 71
     1
340
2C
  0
DIMSTYLE
105
2C
102
{ACAD_REACTORS
330
E8
330
FB
330
10B
330
116
330
121
330
12A
330
138
330
147
330
156
102
}
330
2B
100
AcDbSymbolTableRecord
100
AcDbDimStyleTableRecord
  2
ISO-25
 70
     0
 41
0.01
 42
0.05
 43
0.01
 44
0.05
 73
     0
 74
     0
 77
     1
 78
     8
140
0.05
141
2.5
143
0.03937007874016
147
0.005
171
     3
172
     1
271
     3
272
     3
274
     3
283
     0
284
     8
340
1E
1001
ACAD_DSTYLE_DIMJAG
1070
   388
1040
1.5
1001
ACAD_DSTYLE_DIMTALN
1070
   392
1070
     0
  0
ENDTAB
  0
TABLE
  2
BLOCK_RECORD
  5
1
330
0
100
AcDbSymbolTable
 70
     9
  0
BLOCK_RECORD
  5
2
102
{ACAD_XDICTIONARY
360
3
102
}
330
1
100
AcDbSymbolTableRecord
100
AcDbBlockTableRecord
  2
*Model_Space
340
12
 70
     0
280
     1
281
     0
  0
BLOCK_RECORD
  5
16
330
1
100
AcDbSymbolTableRecord
100
AcDbBlockTableRecord
  2
*Paper_Space
340
19
 70
     0
280
     1
281
     0
  0
BLOCK_RECORD
  5
E9
330
1
100
AcDbSymbolTableRecord
100
AcDbBlockTableRecord
  2
*D0
340
0
 70
     0
280
     1
281
     0
  0
BLOCK_RECORD
  5
FC
330
1
100
AcDbSymbolTableRecord
100
AcDbBlockTableRecord
  2
*D1
340
0
 70
     0
280
     1
281
     0
  0
BLOCK_RECORD
  5
10C
330
1
100
AcDbSymbolTableRecord
100
AcDbBlockTableRecord
  2
*D2
340
0
 70
     0
280
     1
281
     0
  0
BLOCK_RECORD
  5
117
330
1
100
AcDbSymbolTableRecord
100
AcDbBlockTableRecord
  2
*D3
340
0
 70
     0
280
     1
281
     0
  0
BLOCK_RECORD
  5
122
330
1
100
AcDbSymbolTableRecord
100
AcDbBlockTableRecord
  2
*D4
340
0
 70
     0
280
     1
281
     0
  0
BLOCK_RECORD
  5
12B
330
1
100
AcDbSymbolTableRecord
100
AcDbBlockTableRecord
  2
*D5
340
0
 70
     0
280
     1
281
     0
  0
BLOCK_RECORD
  5
139
330
1
100
AcDbSymbolTableRecord
100
AcDbBlockTableRecord
  2
*D6
340
0
 70
     0
280
     1
281
     0
  0
BLOCK_RECORD
  5
148
330
1
100
AcDbSymbolTableRecord
100
AcDbBlockTableRecord
  2
*D7
340
0
 70
     0
280
     1
281
     0
  0
BLOCK_RECORD
  5
157
330
1
100
AcDbSymbolTableRecord
100
AcDbBlockTableRecord
  2
*D8
340
0
 70
     0
280
     1
281
     0
  0
ENDTAB
  0
ENDSEC
  0
SECTION
  2
BLOCKS
  0
BLOCK
  5
6
330
2
100
AcDbEntity
  8
0
100
AcDbBlockBegin
  2
*Model_Space
 70
     0
 10
0.0
 20
0.0
 30
0.0
  3
*Model_Space
  1

  0
ENDBLK
  5
11
330
2
100
AcDbEntity
  8
0
100
AcDbBlockEnd
  0
BLOCK
  5
17
330
16
100
AcDbEntity
 67
     1
  8
0
100
AcDbBlockBegin
  2
*Paper_Space
 70
     0
 10
0.0
 20
0.0
 30
0.0
  3
*Paper_Space
  1

  0
ENDBLK
  5
18
330
16
100
AcDbEntity
 67
     1
  8
0
100
AcDbBlockEnd
  0
BLOCK
  5
EA
330
E9
100
AcDbEntity
  8
PLATING
 62
     4
100
AcDbBlockBegin
  2
*D0
 70
     1
 10
0.0
 20
0.0
 30
0.0
  3
*D0
  1

  0
LINE
  5
EB
330
E9
100
AcDbEntity
  8
标注线
 62
     0
440
 16777216
370
    -2
390
EC
100
AcDbLine
 10
888.0164058460184
 20
91.25915590360319
 30
0.0
 11
887.572943359618
 21
91.25915590360319
 31
0.0
  0
LINE
  5
ED
330
E9
100
AcDbEntity
  8
标注线
 62
     0
440
 16777216
370
    -2
390
EC
100
AcDbLine
 10
888.0425798794588
 20
91.28415590360329
 30
0.0
 11
887.572943359618
 21
91.28415590360329
 31
0.0
  0
LINE
  5
EE
330
E9
100
AcDbEntity
  8
标注线
 62
     0
440
 16777216
370
    -2
390
EC
100
AcDbLine
 10
887.592943359618
 20
91.2091559036032
 30
0.0
 11
887.592943359618
 21
91.09915590360321
 31
0.0
  0
LINE
  5
EF
330
E9
100
AcDbEntity
  8
标注线
 62
     0
440
 16777216
370
    -2
390
EC
100
AcDbLine
 10
887.592943359618
 20
91.25915590360319
 30
0.0
 11
887.592943359618
 21
91.28415590360329
 31
0.0
  0
LINE
  5
F0
330
E9
100
AcDbEntity
  8
标注线
 62
     0
440
 16777216
370
    -2
390
EC
100
AcDbLine
 10
887.592943359618
 20
91.33415590360328
 30
0.0
 11
887.592943359618
 21
91.38415590360329
 31
0.0
  0
SOLID
  5
F1
330
E9
100
AcDbEntity
  8
标注线
 62
     0
440
 16777216
390
EC
100
AcDbTrace
 10
887.6012766929514
 20
91.2091559036032
 30
0.0
 11
887.5846100262847
 21
91.2091559036032
 31
0.0
 12
887.592943359618
 22
91.25915590360319
 32
0.0
 13
887.592943359618
 23
91.25915590360319
 33
0.0
  0
SOLID
  5
F3
330
E9
100
AcDbEntity
  8
标注线
 62
     0
440
 16777216
390
EC
100
AcDbTrace
 10
887.5846100262847
 20
91.33415590360328
 30
0.0
 11
887.6012766929514
 21
91.33415590360328
 31
0.0
 12
887.592943359618
 22
91.28415590360329
 32
0.0
 13
887.592943359618
 23
91.28415590360329
 33
0.0
  0
MTEXT
  5
F4
330
E9
100
AcDbEntity
  8
标注线
 62
     0
440
 16777216
390
EC
100
AcDbMText
 10
887.592943359618
 20
90.51789892036298
 30
0.0
 40
0.05
 41
0.0
 46
0.0
 71
     5
 72
     1
  1
0.025MAX SILVER LACK IS ALLOWED
 11
0.0
 21
1.0
 31
0.0
 73
     1
 44
1.0
  0
POINT
  5
F5
330
E9
100
AcDbEntity
  8
Defpoints
 62
     0
440
 16777216
390
EC
100
AcDbPoint
 10
888.0264058460184
 20
91.25915590360319
 30
0.0
  0
POINT
  5
F7
330
E9
100
AcDbEntity
  8
Defpoints
 62
     0
440
 16777216
390
EC
100
AcDbPoint
 10
888.052579879459
 20
91.28415590360329
 30
0.0
  0
POINT
  5
F8
330
E9
100
AcDbEntity
  8
Defpoints
 62
     0
440
 16777216
390
EC
100
AcDbPoint
 10
887.592943359618
 20
91.28415590360329
 30
0.0
  0
ENDBLK
  5
F9
330
E9
100
AcDbEntity
  8
PLATING
 62
     4
100
AcDbBlockEnd
  0
BLOCK
  5
FD
330
FC
100
AcDbEntity
  8
PLATING
 62
     4
100
AcDbBlockBegin
  2
*D1
 70
     1
 10
0.0
 20
0.0
 30
0.0
  3
*D1
  1

  0
LINE
  5
FE
330
FC
100
AcDbEntity
  8
标注线
 62
     0
440
 16777216
370
    -2
390
EC
100
AcDbLine
 10
888.5191647575183
 20
91.28415590360329
 30
0.0
 11
888.5191647575183
 21
91.34371155305965
 31
0.0
  0
LINE
  5
FF
330
FC
100
AcDbEntity
  8
标注线
 62
     0
440
 16777216
370
    -2
390
EC
100
AcDbLine
 10
888.4941647575182
 20
91.26915590360367
 30
0.0
 11
888.4941647575182
 21
91.34371155305965
 31
0.0
  0
LINE
  5
100
330
FC
100
AcDbEntity
  8
标注线
 62
     0
440
 16777216
370
    -2
390
EC
100
AcDbLine
 10
888.5691647575182
 20
91.32371155305966
 30
0.0
 11
888.8375648466194
 21
91.32371155305966
 31
0.0
  0
LINE
  5
101
330
FC
100
AcDbEntity
  8
标注线
 62
     0
440
 16777216
370
    -2
390
EC
100
AcDbLine
 10
888.5191647575183
 20
91.32371155305966
 30
0.0
 11
888.4941647575182
 21
91.32371155305966
 31
0.0
  0
LINE
  5
102
330
FC
100
AcDbEntity
  8
标注线
 62
     0
440
 16777216
370
    -2
390
EC
100
AcDbLine
 10
888.4441647575183
 20
91.32371155305966
 30
0.0
 11
888.3941647575182
 21
91.32371155305966
 31
0.0
  0
SOLID
  5
103
330
FC
100
AcDbEntity
  8
标注线
 62
     0
440
 16777216
390
EC
100
AcDbTrace
 10
888.5691647575182
 20
91.33204488639298
 30
0.0
 11
888.5691647575182
 21
91.31537821972631
 31
0.0
 12
888.5191647575183
 22
91.32371155305966
 32
0.0
 13
888.5191647575183
 23
91.32371155305966
 33
0.0
  0
SOLID
  5
104
330
FC
100
AcDbEntity
  8
标注线
 62
     0
440
 16777216
390
EC
100
AcDbTrace
 10
888.4441647575183
 20
91.31537821972631
 30
0.0
 11
888.4441647575183
 21
91.33204488639298
 31
0.0
 12
888.4941647575182
 22
91.32371155305966
 32
0.0
 13
888.4941647575182
 23
91.32371155305966
 33
0.0
  0
MTEXT
  5
105
330
FC
100
AcDbEntity
  8
标注线
 62
     0
440
 16777216
390
EC
100
AcDbMText
 10
889.4188218298596
 20
91.32371155305966
 30
0.0
 40
0.05
 41
0.0
 46
0.0
 71
     5
 72
     1
  1
0.025MAX SILVER LACK IS ALLOWED
 73
     1
 44
1.0
  0
POINT
  5
106
330
FC
100
AcDbEntity
  8
Defpoints
 62
     0
440
 16777216
390
EC
100
AcDbPoint
 10
888.5191647575183
 20
91.27415590360328
 30
0.0
  0
POINT
  5
107
330
FC
100
AcDbEntity
  8
Defpoints
 62
     0
440
 16777216
390
EC
100
AcDbPoint
 10
888.4941647575182
 20
91.25915590360365
 30
0.0
  0
POINT
  5
108
330
FC
100
AcDbEntity
  8
Defpoints
 62
     0
440
 16777216
390
EC
100
AcDbPoint
 10
888.4941647575182
 20
91.32371155305966
 30
0.0
  0
ENDBLK
  5
109
330
FC
100
AcDbEntity
  8
PLATING
 62
     4
100
AcDbBlockEnd
  0
BLOCK
  5
10D
330
10C
100
AcDbEntity
  8
PLATING
 62
     4
100
AcDbBlockBegin
  2
*D2
 70
     1
 10
0.0
 20
0.0
 30
0.0
  3
*D2
  1

  0
LINE
  5
10E
330
10C
100
AcDbEntity
  8
标注线
 62
     0
440
 16777216
370
    -2
390
EC
100
AcDbLine
 10
888.004164757522
 20
91.52415590360295
 30
0.0
 11
888.004164757522
 21
92.09480152259038
 31
0.0
  0
LINE
  5
10F
330
10C
100
AcDbEntity
  8
标注线
 62
     0
440
 16777216
370
    -2
390
EC
100
AcDbLine
 10
888.004164757522
 20
92.09480152259038
 30
0.0
 11
887.9641647575178
 21
92.13480152259036
 31
0.0
  0
LINE
  5
110
330
10C
100
AcDbEntity
  8
标注线
 62
     0
440
 16777216
370
    -2
390
EC
100
AcDbLine
 10
887.9641647575178
 20
92.13480152259036
 30
0.0
 11
887.9641647575178
 21
92.17480152259032
 31
0.0
  0
MTEXT
  5
111
330
10C
100
AcDbEntity
  8
标注线
 62
     0
440
 16777216
390
EC
100
AcDbMText
 10
887.9641647575176
 20
92.50239928795338
 30
0.0
 40
0.07
 41
0.0
 46
0.0
 71
     5
 72
     1
  1
\A1;0.235%%p0.025\PPLATING LINE
 11
0.0
 21
1.0
 31
0.0
 73
     1
 44
1.0
  0
POINT
  5
112
330
10C
100
AcDbEntity
  8
Defpoints
 62
     0
440
 16777216
390
EC
100
AcDbPoint
 10
888.004164757522
 20
91.51415590360285
 30
0.0
  0
POINT
  5
113
330
10C
100
AcDbEntity
  8
Defpoints
 62
     0
440
 16777216
390
EC
100
AcDbPoint
 10
887.9641647575178
 20
92.17480152259032
 30
0.0
  0
POINT
  5
114
330
10C
100
AcDbEntity
  8
Defpoints
 62
     0
440
 16777216
390
EC
100
AcDbPoint
 10
888.2391647575195
 20
91.10415590360437
 30
0.0
  0
ENDBLK
  5
115
330
10C
100
AcDbEntity
  8
PLATING
 62
     4
100
AcDbBlockEnd
  0
BLOCK
  5
118
330
117
100
AcDbEntity
  8
PLATING
 62
     4
100
AcDbBlockBegin
  2
*D3
 70
     1
 10
0.0
 20
0.0
 30
0.0
  3
*D3
  1

  0
LINE
  5
119
330
117
100
AcDbEntity
  8
标注线
 62
     0
440
 16777216
370
    -2
390
EC
100
AcDbLine
 10
888.2391647575186
 20
91.11415590360435
 30
0.0
 11
888.2391647575186
 21
92.09567741200306
 31
0.0
  0
LINE
  5
11A
330
117
100
AcDbEntity
  8
标注线
 62
     0
440
 16777216
370
    -2
390
EC
100
AcDbLine
 10
888.2391647575186
 20
92.09567741200306
 30
0.0
 11
888.2380911741682
 21
92.13567741200302
 31
0.0
  0
LINE
  5
11B
330
117
100
AcDbEntity
  8
标注线
 62
     0
440
 16777216
370
    -2
390
EC
100
AcDbLine
 10
888.2380911741682
 20
92.13567741200302
 30
0.0
 11
888.2380911741682
 21
92.17567741200298
 31
0.0
  0
MTEXT
  5
11C
330
117
100
AcDbEntity
  8
标注线
 62
     0
440
 16777216
390
EC
100
AcDbMText
 10
888.2380911741678
 20
92.32592880865114
 30
0.0
 40
0.07
 41
0.0
 46
0.0
 71
     5
 72
     1
  1
0.000
 11
0.0
 21
1.0
 31
0.0
 73
     1
 44
1.0
  0
POINT
  5
11D
330
117
100
AcDbEntity
  8
Defpoints
 62
     0
440
 16777216
390
EC
100
AcDbPoint
 10
888.2391647575186
 20
91.10415590360437
 30
0.0
  0
POINT
  5
11E
330
117
100
AcDbEntity
  8
Defpoints
 62
     0
440
 16777216
390
EC
100
AcDbPoint
 10
888.238091174168
 20
92.17567741200298
 30
0.0
  0
POINT
  5
11F
330
117
100
AcDbEntity
  8
Defpoints
 62
     0
440
 16777216
390
EC
100
AcDbPoint
 10
888.2391647575186
 20
91.10415590360345
 30
0.0
  0
ENDBLK
  5
120
330
117
100
AcDbEntity
  8
PLATING
 62
     4
100
AcDbBlockEnd
  0
BLOCK
  5
123
330
122
100
AcDbEntity
  8
PLATING
 62
     4
100
AcDbBlockBegin
  2
*D4
 70
     1
 10
0.0
 20
0.0
 30
0.0
  3
*D4
  1

  0
LINE
  5
124
330
122
100
AcDbEntity
  8
标注线
 62
     0
440
 16777216
370
    -2
390
EC
100
AcDbLine
 10
888.2491647575195
 20
91.10415590360345
 30
0.0
 11
889.0347198015502
 21
91.10415590360345
 31
0.0
  0
MTEXT
  5
125
330
122
100
AcDbEntity
  8
标注线
 62
     0
440
 16777216
390
EC
100
AcDbMText
 10
889.1849711981983
 20
91.10415590360345
 30
0.0
 40
0.07
 41
0.0
 46
0.0
 71
     5
 72
     1
  1
0.000
 73
     1
 44
1.0
  0
POINT
  5
126
330
122
100
AcDbEntity
  8
Defpoints
 62
     0
440
 16777216
390
EC
100
AcDbPoint
 10
888.2391647575195
 20
91.10415590360345
 30
0.0
  0
POINT
  5
127
330
122
100
AcDbEntity
  8
Defpoints
 62
     0
440
 16777216
390
EC
100
AcDbPoint
 10
889.0347198015502
 20
91.10415590360345
 30
0.0
  0
POINT
  5
128
330
122
100
AcDbEntity
  8
Defpoints
 62
     0
440
 16777216
390
EC
100
AcDbPoint
 10
888.2391647575195
 20
91.10415590360345
 30
0.0
  0
ENDBLK
  5
129
330
122
100
AcDbEntity
  8
PLATING
 62
     4
100
AcDbBlockEnd
  0
BLOCK
  5
12C
330
12B
100
AcDbEntity
  8
PLATING
 62
     4
100
AcDbBlockBegin
  2
*D5
 70
     1
 10
0.0
 20
0.0
 30
0.0
  3
*D5
  1

  0
LINE
  5
12D
330
12B
100
AcDbEntity
  8
标注线
 62
     0
440
 16777216
370
    -2
390
EC
100
AcDbLine
 10
888.089597377967
 20
90.529155903605
 30
0.0
 11
887.6792488566826
 21
90.529155903605
 31
0.0
  0
LINE
  5
12E
330
12B
100
AcDbEntity
  8
标注线
 62
     0
440
 16777216
370
    -2
390
EC
100
AcDbLine
 10
888.0878197762369
 20
90.81915590360587
 30
0.0
 11
887.6792488566826
 21
90.81915590360587
 31
0.0
  0
LINE
  5
12F
330
12B
100
AcDbEntity
  8
标注线
 62
     0
440
 16777216
370
    -2
390
EC
100
AcDbLine
 10
887.6992488566825
 20
90.529155903605
 30
0.0
 11
887.6992488566825
 21
90.42075074527147
 31
0.0
  0
LINE
  5
130
330
12B
100
AcDbEntity
  8
标注线
 62
     0
440
 16777216
370
    -2
390
EC
100
AcDbLine
 10
887.6992488566825
 20
90.60915590360499
 30
0.0
 11
887.6992488566825
 21
90.73915590360588
 31
0.0
  0
SOLID
  5
131
330
12B
100
AcDbEntity
  8
标注线
 62
     0
440
 16777216
390
EC
100
AcDbTrace
 10
887.6859155233491
 20
90.60915590360499
 30
0.0
 11
887.7125821900158
 21
90.60915590360499
 31
0.0
 12
887.6992488566825
 22
90.529155903605
 32
0.0
 13
887.6992488566825
 23
90.529155903605
 33
0.0
  0
SOLID
  5
132
330
12B
100
AcDbEntity
  8
标注线
 62
     0
440
 16777216
390
EC
100
AcDbTrace
 10
887.7125821900158
 20
90.73915590360588
 30
0.0
 11
887.6859155233491
 21
90.73915590360588
 31
0.0
 12
887.6992488566825
 22
90.81915590360587
 32
0.0
 13
887.6992488566825
 23
90.81915590360587
 33
0.0
  0
MTEXT
  5
133
330
12B
100
AcDbEntity
  8
标注线
 62
     0
440
 16777216
390
EC
100
AcDbMText
 10
887.6992488566825
 20
89.99362784024359
 30
0.0
 40
0.07
 41
0.0
 46
0.0
 71
     5
 72
     1
  1
{\fSimSun|b0|i0|c0|p34;0.300MIN PLATING}
 11
0.0
 21
1.0
 31
0.0
 73
     1
 44
1.0
  0
POINT
  5
134
330
12B
100
AcDbEntity
  8
Defpoints
 62
     0
440
 16777216
390
EC
100
AcDbPoint
 10
888.0995973779672
 20
90.529155903605
 30
0.0
  0
POINT
  5
135
330
12B
100
AcDbEntity
  8
Defpoints
 62
     0
440
 16777216
390
EC
100
AcDbPoint
 10
888.0978197762368
 20
90.81915590360587
 30
0.0
  0
POINT
  5
136
330
12B
100
AcDbEntity
  8
Defpoints
 62
     0
440
 16777216
390
EC
100
AcDbPoint
 10
887.6992488566825
 20
90.81915590360587
 30
0.0
  0
ENDBLK
  5
137
330
12B
100
AcDbEntity
  8
PLATING
 62
     4
100
AcDbBlockEnd
  0
BLOCK
  5
13A
330
139
100
AcDbEntity
  8
PLATING
 62
     4
100
AcDbBlockBegin
  2
*D6
 70
     1
 10
0.0
 20
0.0
 30
0.0
  3
*D6
  1

  0
LINE
  5
13B
330
139
100
AcDbEntity
  8
标注线
 62
     0
440
 16777216
370
    -2
390
EC
100
AcDbLine
 10
888.3041647575218
 20
90.58415590360368
 30
0.0
 11
888.3041647575218
 21
90.22544606494466
 31
0.0
  0
LINE
  5
13C
330
139
100
AcDbEntity
  8
标注线
 62
     0
440
 16777216
370
    -2
390
EC
100
AcDbLine
 10
888.4741647575152
 20
90.68415590360588
 30
0.0
 11
888.4741647575152
 21
90.22544606494466
 31
0.0
  0
LINE
  5
13D
330
139
100
AcDbEntity
  8
标注线
 62
     0
440
 16777216
370
    -2
390
EC
100
AcDbLine
 10
888.5541647575152
 20
90.24544606494465
 30
0.0
 11
888.6341647575152
 21
90.24544606494465
 31
0.0
  0
LINE
  5
13E
330
139
100
AcDbEntity
  8
标注线
 62
     0
440
 16777216
370
    -2
390
EC
100
AcDbLine
 10
888.3041647575218
 20
90.24544606494465
 30
0.0
 11
888.4741647575152
 21
90.24544606494465
 31
0.0
  0
LINE
  5
13F
330
139
100
AcDbEntity
  8
标注线
 62
     0
440
 16777216
370
    -2
390
EC
100
AcDbLine
 10
888.2241647575217
 20
90.24544606494465
 30
0.0
 11
888.1441647575217
 21
90.24544606494465
 31
0.0
  0
SOLID
  5
140
330
139
100
AcDbEntity
  8
标注线
 62
     0
440
 16777216
390
EC
100
AcDbTrace
 10
888.2241647575217
 20
90.23211273161132
 30
0.0
 11
888.2241647575217
 21
90.25877939827799
 31
0.0
 12
888.3041647575218
 22
90.24544606494465
 32
0.0
 13
888.3041647575218
 23
90.24544606494465
 33
0.0
  0
SOLID
  5
141
330
139
100
AcDbEntity
  8
标注线
 62
     0
440
 16777216
390
EC
100
AcDbTrace
 10
888.5541647575152
 20
90.25877939827799
 30
0.0
 11
888.5541647575152
 21
90.23211273161132
 31
0.0
 12
888.4741647575152
 22
90.24544606494465
 32
0.0
 13
888.4741647575152
 23
90.24544606494465
 33
0.0
  0
MTEXT
  5
142
330
139
100
AcDbEntity
  8
标注线
 62
     0
440
 16777216
390
EC
100
AcDbMText
 10
889.061287662543
 20
90.24544606494465
 30
0.0
 40
0.07
 41
0.0
 46
0.0
 71
     5
 72
     1
  1
0.170{\fSimSun|b0|i0|c0|p34;MIN PLATING}
 73
     1
 44
1.0
  0
POINT
  5
143
330
139
100
AcDbEntity
  8
Defpoints
 62
     0
440
 16777216
390
EC
100
AcDbPoint
 10
888.3041647575218
 20
90.59415590360369
 30
0.0
  0
POINT
  5
144
330
139
100
AcDbEntity
  8
Defpoints
 62
     0
440
 16777216
390
EC
100
AcDbPoint
 10
888.4741647575152
 20
90.69415590360589
 30
0.0
  0
POINT
  5
145
330
139
100
AcDbEntity
  8
Defpoints
 62
     0
440
 16777216
390
EC
100
AcDbPoint
 10
888.4741647575152
 20
90.24544606494465
 30
0.0
  0
ENDBLK
  5
146
330
139
100
AcDbEntity
  8
PLATING
 62
     4
100
AcDbBlockEnd
  0
BLOCK
  5
149
330
148
100
AcDbEntity
  8
PLATING
 62
     4
100
AcDbBlockBegin
  2
*D7
 70
     1
 10
0.0
 20
0.0
 30
0.0
  3
*D7
  1

  0
LINE
  5
14A
330
148
100
AcDbEntity
  8
标注线
 62
     0
440
 16777216
370
    -2
390
EC
100
AcDbLine
 10
888.3041647575218
 20
91.67915590360372
 30
0.0
 11
888.3041647575218
 21
92.05549527224276
 31
0.0
  0
LINE
  5
14B
330
148
100
AcDbEntity
  8
标注线
 62
     0
440
 16777216
370
    -2
390
EC
100
AcDbLine
 10
888.2791647575217
 20
91.6641559036041
 30
0.0
 11
888.2791647575217
 21
92.05549527224276
 31
0.0
  0
LINE
  5
14C
330
148
100
AcDbEntity
  8
标注线
 62
     0
440
 16777216
370
    -2
390
EC
100
AcDbLine
 10
888.3541647575217
 20
92.03549527224277
 30
0.0
 11
888.4641647575218
 21
92.03549527224277
 31
0.0
  0
LINE
  5
14D
330
148
100
AcDbEntity
  8
标注线
 62
     0
440
 16777216
370
    -2
390
EC
100
AcDbLine
 10
888.3041647575218
 20
92.03549527224277
 30
0.0
 11
888.2791647575217
 21
92.03549527224277
 31
0.0
  0
LINE
  5
14E
330
148
100
AcDbEntity
  8
标注线
 62
     0
440
 16777216
370
    -2
390
EC
100
AcDbLine
 10
888.2291647575216
 20
92.03549527224277
 30
0.0
 11
888.1791647575218
 21
92.03549527224277
 31
0.0
  0
SOLID
  5
14F
330
148
100
AcDbEntity
  8
标注线
 62
     0
440
 16777216
390
EC
100
AcDbTrace
 10
888.3541647575217
 20
92.04382860557611
 30
0.0
 11
888.3541647575217
 21
92.02716193890942
 31
0.0
 12
888.3041647575218
 22
92.03549527224277
 32
0.0
 13
888.3041647575218
 23
92.03549527224277
 33
0.0
  0
SOLID
  5
150
330
148
100
AcDbEntity
  8
标注线
 62
     0
440
 16777216
390
EC
100
AcDbTrace
 10
888.2291647575216
 20
92.02716193890942
 30
0.0
 11
888.2291647575216
 21
92.04382860557611
 31
0.0
 12
888.2791647575217
 22
92.03549527224277
 32
0.0
 13
888.2791647575217
 23
92.03549527224277
 33
0.0
  0
MTEXT
  5
151
330
148
100
AcDbEntity
  8
标注线
 62
     0
440
 16777216
390
EC
100
AcDbMText
 10
889.045421740762
 20
92.03549527224277
 30
0.0
 40
0.05
 41
0.0
 46
0.0
 71
     5
 72
     1
  1
0.025MAX SILVER LACK IS ALLOWED
 73
     1
 44
1.0
  0
POINT
  5
152
330
148
100
AcDbEntity
  8
Defpoints
 62
     0
440
 16777216
390
EC
100
AcDbPoint
 10
888.3041647575218
 20
91.66915590360373
 30
0.0
  0
POINT
  5
153
330
148
100
AcDbEntity
  8
Defpoints
 62
     0
440
 16777216
390
EC
100
AcDbPoint
 10
888.2791647575217
 20
91.65415590360408
 30
0.0
  0
POINT
  5
154
330
148
100
AcDbEntity
  8
Defpoints
 62
     0
440
 16777216
390
EC
100
AcDbPoint
 10
888.2791647575217
 20
92.03549527224277
 30
0.0
  0
ENDBLK
  5
155
330
148
100
AcDbEntity
  8
PLATING
 62
     4
100
AcDbBlockEnd
  0
BLOCK
  5
158
330
157
100
AcDbEntity
  8
PLATING
 62
     4
100
AcDbBlockBegin
  2
*D8
 70
     1
 10
0.0
 20
0.0
 30
0.0
  3
*D8
  1

  0
LINE
  5
159
330
157
100
AcDbEntity
  8
标注线
 62
     0
440
 16777216
370
    -2
390
EC
100
AcDbLine
 10
888.0250299984171
 20
91.67915590360372
 30
0.0
 11
887.4731624552117
 21
91.67915590360372
 31
0.0
  0
LINE
  5
15A
330
157
100
AcDbEntity
  8
标注线
 62
     0
440
 16777216
370
    -2
390
EC
100
AcDbLine
 10
888.0512040318576
 20
91.70415590360336
 30
0.0
 11
887.4731624552117
 21
91.70415590360336
 31
0.0
  0
LINE
  5
15B
330
157
100
AcDbEntity
  8
标注线
 62
     0
440
 16777216
370
    -2
390
EC
100
AcDbLine
 10
887.4931624552116
 20
91.62915590360373
 30
0.0
 11
887.4931624552116
 21
91.51915590360372
 31
0.0
  0
LINE
  5
15C
330
157
100
AcDbEntity
  8
标注线
 62
     0
440
 16777216
370
    -2
390
EC
100
AcDbLine
 10
887.4931624552116
 20
91.67915590360372
 30
0.0
 11
887.4931624552116
 21
91.70415590360336
 31
0.0
  0
LINE
  5
15D
330
157
100
AcDbEntity
  8
标注线
 62
     0
440
 16777216
370
    -2
390
EC
100
AcDbLine
 10
887.4931624552116
 20
91.75415590360335
 30
0.0
 11
887.4931624552116
 21
91.80415590360336
 31
0.0
  0
SOLID
  5
15E
330
157
100
AcDbEntity
  8
标注线
 62
     0
440
 16777216
390
EC
100
AcDbTrace
 10
887.5014957885449
 20
91.62915590360373
 30
0.0
 11
887.4848291218782
 21
91.62915590360373
 31
0.0
 12
887.4931624552116
 22
91.67915590360372
 32
0.0
 13
887.4931624552116
 23
91.67915590360372
 33
0.0
  0
SOLID
  5
15F
330
157
100
AcDbEntity
  8
标注线
 62
     0
440
 16777216
390
EC
100
AcDbTrace
 10
887.4848291218782
 20
91.75415590360335
 30
0.0
 11
887.5014957885449
 21
91.75415590360335
 31
0.0
 12
887.4931624552116
 22
91.70415590360336
 32
0.0
 13
887.4931624552116
 23
91.70415590360336
 33
0.0
  0
MTEXT
  5
160
330
157
100
AcDbEntity
  8
标注线
 62
     0
440
 16777216
390
EC
100
AcDbMText
 10
887.4931624552116
 20
90.93789892036351
 30
0.0
 40
0.05
 41
0.0
 46
0.0
 71
     5
 72
     1
  1
0.025MAX SILVER LACK IS ALLOWED
 11
0.0
 21
1.0
 31
0.0
 73
     1
 44
1.0
  0
POINT
  5
161
330
157
100
AcDbEntity
  8
Defpoints
 62
     0
440
 16777216
390
EC
100
AcDbPoint
 10
888.035029998417
 20
91.67915590360372
 30
0.0
  0
POINT
  5
162
330
157
100
AcDbEntity
  8
Defpoints
 62
     0
440
 16777216
390
EC
100
AcDbPoint
 10
888.0612040318576
 20
91.70415590360336
 30
0.0
  0
POINT
  5
163
330
157
100
AcDbEntity
  8
Defpoints
 62
     0
440
 16777216
390
EC
100
AcDbPoint
 10
887.4931624552116
 20
91.70415590360336
 30
0.0
  0
ENDBLK
  5
164
330
157
100
AcDbEntity
  8
PLATING
 62
     4
100
AcDbBlockEnd
  0
ENDSEC
  0
SECTION
  2
ENTITIES
  0
TEXT
  5
65
330
2
100
AcDbEntity
  8
标注线
 62
     4
100
AcDbText
 10
888.1016052508355
 20
89.63075618617576
 30
0.0
 40
0.05
  1
TOP VIEW
100
AcDbText
  0
LINE
  5
68
330
2
100
AcDbEntity
  8
标注线
 62
     4
100
AcDbLine
 10
888.1008952797131
 20
89.61037445700197
 30
0.0
 11
888.4035133534929
 21
89.61037445700197
 31
0.0
  0
HATCH
  5
69
330
2
100
AcDbEntity
  8
PLATING
100
AcDbHatch
 10
0.0
 20
0.0
 30
0.0
210
0.0
220
0.0
230
1.0
  2
CROSS
 70
     0
 71
     0
 91
        1
 92
        7
 72
     0
 73
     1
 93
        4
 10
888.4287052133
 20
88.98214774922569
 10
888.3062684444444
 20
88.98214774922569
 10
888.3062684444444
 20
88.88250094703806
 10
888.4287052133
 20
88.88250094703806
 97
        0
 75
     1
 76
     1
 52
0.0
 41
0.005
 77
     0
 78
     2
 53
0.0
 43
637.6690901413873
 44
-12.90210372462792
 45
0.03175
 46
0.03175
 79
     2
 49
0.015875
 49
-0.047625
 53
90.0
 43
637.6770276413873
 44
-12.91004122462792
 45
-0.03175
 46
0.03175
 79
     2
 49
0.015875
 49
-0.047625
 47
0.0009621403503437
 98
        1
 10
888.3935734637777
 20
88.93992868560571
1001
GradientColor1ACI
1070
     5
1001
GradientColor2ACI
1070
     2
1001
ACAD
1010
0.0
1020
0.0
1030
0.0
  0
LWPOLYLINE
  5
6E
330
2
100
AcDbEntity
  8
0
100
AcDbPolyline
 90
        4
 70
     1
 43
0.0
 10
888.3062684444444
 20
88.98214774922569
 10
888.4287052133
 20
88.98214774922569
 10
888.4287052133
 20
88.88250094703806
 10
888.3062684444444
 20
88.88250094703806
  0
TEXT
  5
6F
330
2
100
AcDbEntity
  8
标注线
 62
     4
100
AcDbText
 10
888.491365572521
 20
88.90970603280477
 30
0.0
 40
0.05
  1
PLATING AERA
100
AcDbText
  0
LINE
  5
70
330
2
100
AcDbEntity
  8
中心线
  6
CENTER2
 48
0.01
100
AcDbLine
 10
887.9641647575194
 20
91.10415590360437
 30
0.0
 11
888.5141647575196
 21
91.10415590360437
 31
0.0
  0
HATCH
  5
73
330
2
100
AcDbEntity
  8
PLATING
100
AcDbHatch
 10
0.0
 20
0.0
 30
0.0
210
0.0
220
0.0
230
1.0
  2
CROSS
 70
     0
 71
     1
 91
        4
 92
        7
 72
     0
 73
     1
 93
        5
 10
888.10416475752
 20
91.10415590360437
 10
888.2391647575195
 20
91.10415590360437
 10
888.2391647575195
 20
90.98415590360311
 10
888.0741647575186
 20
90.98415590360311
 10
888.0741647575186
 20
91.07415590360325
 97
        3
330
76
330
75
330
7F
 92
        7
 72
     0
 73
     1
 93
        4
 10
888.2391647575195
 20
91.22415590360288
 10
888.4041647575203
 20
91.22415590360288
 10
888.4041647575203
 20
91.10415590360437
 10
888.2391647575195
 20
91.10415590360437
 97
        3
330
7F
330
76
330
75
 92
        7
 72
     0
 73
     1
 93
        4
 10
888.2391647575195
 20
90.98415590360311
 10
888.2391647575195
 20
91.10415590360437
 10
888.4041647575203
 20
91.10415590360437
 10
888.4041647575203
 20
90.98415590360311
 97
        3
330
75
330
76
330
7F
 92
        7
 72
     0
 73
     1
 93
        4
 10
888.10416475752
 20
91.10415590360435
 10
888.2241647575201
 20
91.22415590360288
 10
888.2391647575195
 20
91.22415590360288
 10
888.2391647575195
 20
91.10415590360437
 97
        3
330
7F
330
75
330
76
 75
     1
 76
     1
 52
0.0
 41
0.005
 77
     0
 78
     2
 53
0.0
 43
0.5403719039300086
 44
-0.7612384795778553
 45
0.03175
 46
0.03175
 79
     2
 49
0.015875
 49
-0.047625
 53
90.0
 43
0.5483094039300341
 44
-0.7691759795778524
 45
-0.03175
 46
0.03175
 79
     2
 49
0.015875
 49
-0.047625
 47
0.0
 98
        4
 10
888.3613593580284
 20
91.14771596729054
 10
888.3041271459267
 20
91.02827482899154
 10
888.2021045069629
 20
91.13776253909895
 10
888.1722442223882
 20
91.07057689880576
1001
HATCHBACKGROUNDCOLOR
1071
-939524096
1000

1000

1001
ACAD
1010
0.0
1020
0.0
1030
0.0
  0
LINE
  5
75
102
{ACAD_REACTORS
330
73
102
}
330
2
100
AcDbEntity
  8
中心线
  6
CENTER2
 48
0.01
100
AcDbLine
 10
888.2391647575195
 20
90.82915590360435
 30
0.0
 11
888.2391647575195
 21
91.37915590360437
 31
0.0
  0
LINE
  5
76
102
{ACAD_REACTORS
330
73
102
}
330
2
100
AcDbEntity
  8
中心线
  6
CENTER2
 48
0.01
100
AcDbLine
 10
887.9641647575194
 20
91.10415590360437
 30
0.0
 11
888.5141647575196
 21
91.10415590360437
 31
0.0
  0
LINE
  5
77
330
2
100
AcDbEntity
  8
中心线
  6
CENTER2
 48
0.01
100
AcDbLine
 10
888.2391647575195
 20
90.82915590360435
 30
0.0
 11
888.2391647575195
 21
91.37915590360437
 31
0.0
  0
LWPOLYLINE
  5
78
330
2
100
AcDbEntity
  8
outline
 62
     6
370
    15
100
AcDbPolyline
 90
        4
 70
     1
 43
0.0
 10
887.9091647575178
 20
90.45415590360336
 10
888.5691647575212
 20
90.45415590360336
 10
888.5691647575212
 20
91.75415590360355
 10
887.9091647575178
 20
91.75415590360355
  0
LINE
  5
7A
330
2
100
AcDbEntity
  8
BOT
  6
HIDDEN2
 62
     4
 48
0.01
370
    15
100
AcDbLine
 10
888.4691647575227
 20
91.61415590360322
 30
0.0
 11
888.3091647575191
 21
91.61415590360322
 31
0.0
  0
LINE
  5
7D
330
2
100
AcDbEntity
  8
BOT
  6
HIDDEN2
 62
     4
 48
0.01
370
    15
100
AcDbLine
 10
888.3091647575191
 20
91.61415590360322
 30
0.0
 11
888.3091647575191
 21
91.4141559036034
 31
0.0
  0
LINE
  5
7E
330
2
100
AcDbEntity
  8
BOT
  6
HIDDEN2
 62
     4
 48
0.01
370
    15
100
AcDbLine
 10
888.3091647575191
 20
91.4141559036034
 30
0.0
 11
888.4691647575227
 21
91.4141559036034
 31
0.0
  0
LWPOLYLINE
  5
7F
102
{ACAD_REACTORS
330
73
102
}
330
2
100
AcDbEntity
  8
BOT
  6
HIDDEN2
 62
     4
 48
0.01
370
    15
100
AcDbPolyline
 90
        5
 70
     1
 43
0.0
 10
888.2241647575201
 20
91.22415590360288
 10
888.4041647575203
 20
91.22415590360288
 10
888.4041647575203
 20
90.98415590360311
 10
888.0741647575186
 20
90.98415590360311
 10
888.0741647575186
 20
91.07415590360325
  0
LINE
  5
80
330
2
100
AcDbEntity
  8
DIE
370
    15
100
AcDbLine
 10
888.2791647575203
 20
91.70396133260602
 30
0.0
 11
888.2791647575203
 21
91.36415590360321
 31
0.0
  0
LINE
  5
82
330
2
100
AcDbEntity
  8
DIE
370
    15
100
AcDbLine
 10
888.2791647575203
 20
91.36415590360321
 30
0.0
 11
888.4691647575227
 21
91.36415590360321
 31
0.0
  0
LINE
  5
83
330
2
100
AcDbEntity
  8
DIE
370
    15
100
AcDbLine
 10
888.5191647575183
 20
91.28415590360329
 30
0.0
 11
888.5191647575183
 21
91.18415590360292
 31
0.0
  0
LINE
  5
84
330
2
100
AcDbEntity
  8
DIE
370
    15
100
AcDbLine
 10
888.5191647575183
 20
91.02415590360307
 30
0.0
 11
888.5191647575183
 21
90.92415590360362
 31
0.0
  0
LINE
  5
85
330
2
100
AcDbEntity
  8
DIE
370
    15
100
AcDbLine
 10
888.5191647575183
 20
91.18415590360292
 30
0.0
 11
888.6241647575214
 21
91.18415590360292
 31
0.0
  0
LINE
  5
86
330
2
100
AcDbEntity
  8
DIE
370
    15
100
AcDbLine
 10
888.5191647575183
 20
91.02415590360307
 30
0.0
 11
888.6241647575214
 21
91.02415590360307
 31
0.0
  0
LINE
  5
87
330
2
100
AcDbEntity
  8
DIE
370
    15
100
AcDbLine
 10
888.5191647575183
 20
91.28415590360329
 30
0.0
 11
887.9591647575207
 21
91.28415590360329
 31
0.0
  0
LINE
  5
88
330
2
100
AcDbEntity
  8
DIE
370
    15
100
AcDbLine
 10
887.9591647575207
 20
91.28415590360329
 30
0.0
 11
887.9591647575207
 21
91.18415590360292
 31
0.0
  0
LINE
  5
89
330
2
100
AcDbEntity
  8
DIE
370
    15
100
AcDbLine
 10
887.9591647575207
 20
91.02415590360307
 30
0.0
 11
887.9591647575207
 21
90.92415590360362
 31
0.0
  0
LINE
  5
8A
330
2
100
AcDbEntity
  8
DIE
370
    15
100
AcDbLine
 10
888.5191647575183
 20
90.92415590360362
 30
0.0
 11
887.9591647575207
 21
90.92415590360362
 31
0.0
  0
LINE
  5
8B
330
2
100
AcDbEntity
  8
DIE
370
    15
100
AcDbLine
 10
887.9591647575207
 20
91.18415590360292
 30
0.0
 11
887.8541647575174
 21
91.18415590360292
 31
0.0
  0
LINE
  5
8C
330
2
100
AcDbEntity
  8
DIE
370
    15
100
AcDbLine
 10
887.9591647575207
 20
91.02415590360307
 30
0.0
 11
887.8541647575174
 21
91.02415590360307
 31
0.0
  0
LWPOLYLINE
  5
8D
330
2
100
AcDbEntity
  8
DIE
370
    15
100
AcDbPolyline
 90
        2
 70
     0
 43
0.0
 10
887.8541647575174
 20
91.02415590360307
 10
887.8541647575174
 20
90.82915590360336
  0
LWPOLYLINE
  5
8E
330
2
100
AcDbEntity
  8
DIE
370
    15
100
AcDbPolyline
 90
        3
 70
     0
 43
0.0
 10
887.8541647575174
 20
90.55915590360292
 10
887.8541647575174
 20
90.39915590360307
 10
888.0491647575171
 20
90.39915590360307
  0
LWPOLYLINE
  5
8F
330
2
100
AcDbEntity
  8
DIE
370
    15
100
AcDbPolyline
 90
        2
 70
     0
 43
0.0
 10
888.1491647575229
 20
90.39915590360307
 10
888.3291647575159
 20
90.39915590360307
  0
LWPOLYLINE
  5
90
330
2
100
AcDbEntity
  8
DIE
370
    15
100
AcDbPolyline
 90
        3
 70
     0
 43
0.0
 10
888.4291647575217
 20
90.39915590360307
 10
888.6241647575214
 20
90.39915590360307
 10
888.6241647575214
 20
90.55915590360292
  0
LWPOLYLINE
  5
91
330
2
100
AcDbEntity
  8
DIE
370
    15
100
AcDbPolyline
 90
        2
 70
     0
 43
0.0
 10
888.6241647575214
 20
90.82915590360336
 10
888.6241647575214
 20
91.02415590360307
  0
LWPOLYLINE
  5
92
330
2
100
AcDbEntity
  8
DIE
370
    15
100
AcDbPolyline
 90
        2
 70
     0
 43
0.0
 10
888.6241647575214
 20
91.18415590360292
 10
888.6241647575214
 20
91.37915590360355
  0
LWPOLYLINE
  5
93
330
2
100
AcDbEntity
  8
DIE
370
    15
100
AcDbPolyline
 90
        3
 70
     0
 43
0.0
 10
888.6241647575214
 20
91.64915590360307
 10
888.6241647575214
 20
91.80915590360292
 10
888.4291647575217
 20
91.80915590360292
  0
LWPOLYLINE
  5
94
330
2
100
AcDbEntity
  8
DIE
370
    15
100
AcDbPolyline
 90
        2
 70
     0
 43
0.0
 10
888.3291647575159
 20
91.80915590360292
 10
888.1491647575229
 20
91.80915590360292
  0
LWPOLYLINE
  5
95
330
2
100
AcDbEntity
  8
DIE
370
    15
100
AcDbPolyline
 90
        3
 70
     0
 43
0.0
 10
888.0491647575171
 20
91.80915590360292
 10
887.8541647575174
 20
91.80915590360292
 10
887.8541647575174
 20
91.64915590360307
  0
LWPOLYLINE
  5
96
330
2
100
AcDbEntity
  8
DIE
370
    15
100
AcDbPolyline
 90
        2
 70
     0
 43
0.0
 10
887.8541647575174
 20
91.37915590360355
 10
887.8541647575174
 20
91.18415590360292
  0
LINE
  5
97
330
2
100
AcDbEntity
  8
DIE
370
    15
100
AcDbLine
 10
888.2791647575203
 20
91.70415590360336
 30
0.0
 11
888.3291647575159
 21
91.70415590360336
 31
0.0
  0
LINE
  5
98
330
2
100
AcDbEntity
  8
DIE
370
    15
100
AcDbLine
 10
888.4291647575217
 20
91.70415590360336
 30
0.0
 11
888.4691647575227
 21
91.70415590360336
 31
0.0
  0
LINE
  5
99
330
2
100
AcDbEntity
  8
DIE
370
    15
100
AcDbLine
 10
888.3291647575159
 20
91.80915590360292
 30
0.0
 11
888.3291647575159
 21
91.70396133260602
 31
0.0
  0
LINE
  5
9A
330
2
100
AcDbEntity
  8
DIE
370
    15
100
AcDbLine
 10
888.4291647575217
 20
91.80915590360292
 30
0.0
 11
888.4291647575217
 21
91.70396133260602
 31
0.0
  0
LINE
  5
9B
330
2
100
AcDbEntity
  8
DIE
370
    15
100
AcDbLine
 10
888.5191647575183
 20
91.5991559036029
 30
0.0
 11
888.4691647575227
 21
91.70396133260602
 31
0.0
  0
LINE
  5
9C
330
2
100
AcDbEntity
  8
DIE
370
    15
100
AcDbLine
 10
888.5191647575183
 20
91.42915590360372
 30
0.0
 11
888.4691647575227
 21
91.36415590360321
 31
0.0
  0
LINE
  5
9D
330
2
100
AcDbEntity
  8
BOT
  6
HIDDEN2
 62
     4
 48
0.01
370
    15
100
AcDbLine
 10
888.0091647575163
 20
91.61415590360322
 30
0.0
 11
888.1691647575197
 21
91.61415590360322
 31
0.0
  0
LINE
  5
9E
330
2
100
AcDbEntity
  8
BOT
  6
HIDDEN2
 62
     4
 48
0.01
370
    15
100
AcDbLine
 10
888.1691647575197
 20
91.61415590360322
 30
0.0
 11
888.1691647575197
 21
91.4141559036034
 31
0.0
  0
LINE
  5
9F
330
2
100
AcDbEntity
  8
BOT
  6
HIDDEN2
 62
     4
 48
0.01
370
    15
100
AcDbLine
 10
888.1691647575197
 20
91.4141559036034
 30
0.0
 11
888.0091647575163
 21
91.4141559036034
 31
0.0
  0
LINE
  5
A0
330
2
100
AcDbEntity
  8
DIE
370
    15
100
AcDbLine
 10
888.1991647575185
 20
91.70396133260602
 30
0.0
 11
888.1991647575185
 21
91.36415590360321
 31
0.0
  0
LINE
  5
A1
330
2
100
AcDbEntity
  8
DIE
370
    15
100
AcDbLine
 10
888.1991647575185
 20
91.36415590360321
 30
0.0
 11
888.0091647575163
 21
91.36415590360321
 31
0.0
  0
LINE
  5
A2
330
2
100
AcDbEntity
  8
DIE
370
    15
100
AcDbLine
 10
888.1991647575185
 20
91.70415590360336
 30
0.0
 11
888.1491647575229
 21
91.70415590360336
 31
0.0
  0
LINE
  5
A3
330
2
100
AcDbEntity
  8
DIE
370
    15
100
AcDbLine
 10
888.1491647575229
 20
91.80915590360292
 30
0.0
 11
888.1491647575229
 21
91.70415590360336
 31
0.0
  0
LINE
  5
A4
330
2
100
AcDbEntity
  8
DIE
370
    15
100
AcDbLine
 10
888.0491647575171
 20
91.80915590360292
 30
0.0
 11
888.0491647575171
 21
91.70415590360336
 31
0.0
  0
LINE
  5
A5
330
2
100
AcDbEntity
  8
DIE
370
    15
100
AcDbLine
 10
887.9591647575207
 20
91.5991559036029
 30
0.0
 11
887.8541647575174
 21
91.5991559036029
 31
0.0
  0
ARC
  5
A6
330
2
100
AcDbEntity
  8
DIE
370
    15
100
AcDbCircle
 10
887.8541647575174
 20
91.62415590360344
 30
0.0
 40
0.025
100
AcDbArc
 50
90.0
 51
270.0
  0
LINE
  5
A7
330
2
100
AcDbEntity
  8
DIE
370
    15
100
AcDbLine
 10
887.9591647575207
 20
91.42915590360372
 30
0.0
 11
888.0091647575163
 21
91.36415590360321
 31
0.0
  0
LINE
  5
A8
330
2
100
AcDbEntity
  8
BOT
  6
HIDDEN2
 62
     4
 48
0.01
370
    15
100
AcDbLine
 10
888.4691647575227
 20
90.59415590360369
 30
0.0
 11
888.3091647575191
 21
90.59415590360369
 31
0.0
  0
LINE
  5
A9
330
2
100
AcDbEntity
  8
BOT
  6
HIDDEN2
 62
     4
 48
0.01
370
    15
100
AcDbLine
 10
888.3091647575191
 20
90.59415590360369
 30
0.0
 11
888.3091647575191
 21
90.79415590360351
 31
0.0
  0
LINE
  5
AA
330
2
100
AcDbEntity
  8
BOT
  6
HIDDEN2
 62
     4
 48
0.01
370
    15
100
AcDbLine
 10
888.3091647575191
 20
90.79415590360351
 30
0.0
 11
888.4691647575227
 21
90.79415590360351
 31
0.0
  0
LINE
  5
AB
330
2
100
AcDbEntity
  8
DIE
370
    15
100
AcDbLine
 10
888.2791647575203
 20
90.50435047460089
 30
0.0
 11
888.2791647575203
 21
90.8441559036037
 31
0.0
  0
LINE
  5
AC
330
2
100
AcDbEntity
  8
DIE
370
    15
100
AcDbLine
 10
888.2791647575203
 20
90.8441559036037
 30
0.0
 11
888.4691647575227
 21
90.8441559036037
 31
0.0
  0
LINE
  5
AD
330
2
100
AcDbEntity
  8
DIE
370
    15
100
AcDbLine
 10
888.2791647575203
 20
90.50415590360355
 30
0.0
 11
888.3291647575159
 21
90.50415590360355
 31
0.0
  0
LINE
  5
AE
330
2
100
AcDbEntity
  8
DIE
370
    15
100
AcDbLine
 10
888.4291647575217
 20
90.50415590360355
 30
0.0
 11
888.4691647575227
 21
90.50415590360355
 31
0.0
  0
LINE
  5
AF
330
2
100
AcDbEntity
  8
DIE
370
    15
100
AcDbLine
 10
888.3291647575159
 20
90.39915590360307
 30
0.0
 11
888.3291647575159
 21
90.50435047460089
 31
0.0
  0
LINE
  5
B0
330
2
100
AcDbEntity
  8
DIE
370
    15
100
AcDbLine
 10
888.4291647575217
 20
90.39915590360307
 30
0.0
 11
888.4291647575217
 21
90.50435047460089
 31
0.0
  0
LINE
  5
B1
330
2
100
AcDbEntity
  8
DIE
370
    15
100
AcDbLine
 10
888.5191647575183
 20
90.60915590360311
 30
0.0
 11
888.4691647575227
 21
90.50435047460089
 31
0.0
  0
LINE
  5
B2
330
2
100
AcDbEntity
  8
DIE
370
    15
100
AcDbLine
 10
888.5191647575183
 20
90.77915590360317
 30
0.0
 11
888.4691647575227
 21
90.8441559036037
 31
0.0
  0
LINE
  5
B3
330
2
100
AcDbEntity
  8
BOT
  6
HIDDEN2
 62
     4
 48
0.01
370
    15
100
AcDbLine
 10
888.0091647575163
 20
90.59415590360369
 30
0.0
 11
888.1691647575197
 21
90.59415590360369
 31
0.0
  0
LINE
  5
B4
330
2
100
AcDbEntity
  8
BOT
  6
HIDDEN2
 62
     4
 48
0.01
370
    15
100
AcDbLine
 10
888.1691647575197
 20
90.59415590360369
 30
0.0
 11
888.1691647575197
 21
90.79415590360351
 31
0.0
  0
LINE
  5
B5
330
2
100
AcDbEntity
  8
BOT
  6
HIDDEN2
 62
     4
 48
0.01
370
    15
100
AcDbLine
 10
888.1691647575197
 20
90.79415590360351
 30
0.0
 11
888.0091647575163
 21
90.79415590360351
 31
0.0
  0
LINE
  5
B6
330
2
100
AcDbEntity
  8
DIE
370
    15
100
AcDbLine
 10
888.1991647575185
 20
90.50435047460089
 30
0.0
 11
888.1991647575185
 21
90.8441559036037
 31
0.0
  0
LINE
  5
B7
330
2
100
AcDbEntity
  8
DIE
370
    15
100
AcDbLine
 10
888.1991647575185
 20
90.8441559036037
 30
0.0
 11
888.0091647575163
 21
90.8441559036037
 31
0.0
  0
LINE
  5
B8
330
2
100
AcDbEntity
  8
DIE
370
    15
100
AcDbLine
 10
888.1991647575185
 20
90.50415590360355
 30
0.0
 11
888.1491647575229
 21
90.50415590360355
 31
0.0
  0
LINE
  5
B9
330
2
100
AcDbEntity
  8
DIE
370
    15
100
AcDbLine
 10
888.0491647575171
 20
90.50415590360355
 30
0.0
 11
888.0091647575163
 21
90.50415590360355
 31
0.0
  0
LINE
  5
BA
330
2
100
AcDbEntity
  8
DIE
370
    15
100
AcDbLine
 10
888.1491647575229
 20
90.39915590360307
 30
0.0
 11
888.1491647575229
 21
90.50435047460089
 31
0.0
  0
LINE
  5
BB
330
2
100
AcDbEntity
  8
DIE
370
    15
100
AcDbLine
 10
888.0491647575171
 20
90.39915590360307
 30
0.0
 11
888.0491647575171
 21
90.50435047460089
 31
0.0
  0
LINE
  5
BC
330
2
100
AcDbEntity
  8
DIE
370
    15
100
AcDbLine
 10
887.9591647575207
 20
90.60915590360311
 30
0.0
 11
888.0091647575163
 21
90.50435047460089
 31
0.0
  0
LINE
  5
BD
330
2
100
AcDbEntity
  8
DIE
370
    15
100
AcDbLine
 10
887.9591647575207
 20
90.77915590360317
 30
0.0
 11
888.0091647575163
 21
90.8441559036037
 31
0.0
  0
LINE
  5
BE
330
2
100
AcDbEntity
  8
DIE
100
AcDbLine
 10
887.9591647575207
 20
91.5991559036029
 30
0.0
 11
887.8541647575174
 21
91.5991559036029
 31
0.0
  0
LINE
  5
BF
330
2
100
AcDbEntity
  8
BOT
  6
HIDDEN2
 62
     4
 48
0.01
370
    15
100
AcDbLine
 10
888.0091647575163
 20
91.61415590360322
 30
0.0
 11
887.9591647575207
 21
91.5991559036029
 31
0.0
  0
LINE
  5
C0
330
2
100
AcDbEntity
  8
DIE
370
    15
100
AcDbLine
 10
887.9591647575207
 20
91.42915590360372
 30
0.0
 11
887.8541647575174
 21
91.42915590360372
 31
0.0
  0
ARC
  5
C1
330
2
100
AcDbEntity
  8
DIE
370
    15
100
AcDbCircle
 10
887.8541647575174
 20
91.40415590360317
 30
0.0
 40
0.025
100
AcDbArc
 50
90.0
 51
270.0
  0
LINE
  5
C2
330
2
100
AcDbEntity
  8
DIE
100
AcDbLine
 10
887.9591647575207
 20
91.42915590360372
 30
0.0
 11
887.8541647575174
 21
91.42915590360372
 31
0.0
  0
LINE
  5
C3
330
2
100
AcDbEntity
  8
BOT
  6
HIDDEN2
 62
     4
 48
0.01
370
    15
100
AcDbLine
 10
888.0091647575163
 20
91.4141559036034
 30
0.0
 11
887.9591647575207
 21
91.42915590360372
 31
0.0
  0
CIRCLE
  5
C4
330
2
100
AcDbEntity
  8
DIE
100
AcDbCircle
 10
887.9291647575218
 20
91.51415590360285
 30
0.0
 40
0.05
  0
HATCH
  5
C5
330
2
100
AcDbEntity
  8
ETCH
 62
     6
370
    15
100
AcDbHatch
 10
0.0
 20
0.0
 30
0.0
210
0.0
220
0.0
230
1.0
  2
ANSI37
 70
     0
 71
     0
 91
        1
 92
        7
 72
     1
 73
     1
 93
        2
 10
887.9791647575174
 20
91.51415590360285
 42
0.9999999999999998
 10
887.8791647575189
 20
91.51415590360285
 42
0.9999999999999998
 97
        0
 75
     1
 76
     1
 52
90.0
 41
0.01
 77
     0
 78
     2
 53
135.0
 43
858.5326210632764
 44
96.56882139230404
 45
-0.0224506403026729
 46
-0.0224506403026729
 79
     0
 53
225.0
 43
858.5326210632764
 44
96.56882139230404
 45
0.0224506403026729
 46
-0.0224506403026729
 79
     0
 47
0.0
 98
        1
 10
887.9519399146728
 20
91.54158544127769
1001
HATCHBACKGROUNDCOLOR
1071
-939524096
1000

1000

1001
ACAD
1010
0.0
1020
0.0
1030
0.0
  0
CIRCLE
  5
C9
330
2
100
AcDbEntity
  8
DIE
100
AcDbCircle
 10
888.5491647575172
 20
91.51415590360285
 30
0.0
 40
0.05
  0
HATCH
  5
CA
330
2
100
AcDbEntity
  8
ETCH
 62
     6
370
    15
100
AcDbHatch
 10
0.0
 20
0.0
 30
0.0
210
0.0
220
0.0
230
1.0
  2
ANSI37
 70
     0
 71
     0
 91
        1
 92
        7
 72
     1
 73
     1
 93
        2
 10
888.4991647575215
 20
91.51415590360285
 42
-0.9999999999999998
 10
888.5991647575201
 20
91.51415590360285
 42
-0.9999999999999998
 97
        0
 75
     1
 76
     1
 52
90.00000000000001
 41
0.01
 77
     0
 78
     2
 53
135.0
 43
858.5326210632764
 44
96.56882139230404
 45
-0.0224506403026729
 46
-0.0224506403026729
 79
     0
 53
225.0
 43
858.5326210632764
 44
96.56882139230404
 45
0.0224506403026729
 46
-0.0224506403026729
 79
     0
 47
0.0
 98
        1
 10
888.526389600366
 20
91.54158544127769
1001
HATCHBACKGROUNDCOLOR
1071
-939524096
1000

1000

1001
ACAD
1010
0.0
1020
0.0
1030
0.0
  0
CIRCLE
  5
CB
330
2
100
AcDbEntity
  8
DIE
100
AcDbCircle
 10
887.9291647575218
 20
90.69415590360314
 30
0.0
 40
0.05
  0
HATCH
  5
CC
330
2
100
AcDbEntity
  8
ETCH
 62
     6
370
    15
100
AcDbHatch
 10
0.0
 20
0.0
 30
0.0
210
0.0
220
0.0
230
1.0
  2
ANSI37
 70
     0
 71
     0
 91
        1
 92
        7
 72
     1
 73
     1
 93
        2
 10
887.9791647575174
 20
90.69415590360314
 42
-0.9999999999999998
 10
887.8791647575189
 20
90.69415590360314
 42
-0.9999999999999998
 97
        0
 75
     1
 76
     1
 52
270.0
 41
0.01
 77
     0
 78
     2
 53
135.0
 43
858.5326210632764
 44
96.56882139230404
 45
-0.0224506403026729
 46
-0.0224506403026729
 79
     0
 53
225.0
 43
858.5326210632764
 44
96.56882139230404
 45
0.0224506403026729
 46
-0.0224506403026729
 79
     0
 47
0.0
 98
        1
 10
887.9519399146728
 20
90.66672636592832
1001
HATCHBACKGROUNDCOLOR
1071
-939524096
1000

1000

1001
ACAD
1010
0.0
1020
0.0
1030
0.0
  0
CIRCLE
  5
CD
330
2
100
AcDbEntity
  8
DIE
100
AcDbCircle
 10
888.5491647575172
 20
90.69415590360314
 30
0.0
 40
0.05
  0
HATCH
  5
CE
330
2
100
AcDbEntity
  8
ETCH
 62
     6
370
    15
100
AcDbHatch
 10
0.0
 20
0.0
 30
0.0
210
0.0
220
0.0
230
1.0
  2
ANSI37
 70
     0
 71
     0
 91
        1
 92
        7
 72
     1
 73
     1
 93
        2
 10
888.4991647575215
 20
90.69415590360314
 42
0.9999999999999998
 10
888.5991647575201
 20
90.69415590360314
 42
0.9999999999999998
 97
        0
 75
     1
 76
     1
 52
270.0
 41
0.01
 77
     0
 78
     2
 53
135.0
 43
858.5326210632764
 44
96.56882139230404
 45
-0.0224506403026729
 46
-0.0224506403026729
 79
     0
 53
225.0
 43
858.5326210632764
 44
96.56882139230404
 45
0.0224506403026729
 46
-0.0224506403026729
 79
     0
 47
0.0
 98
        1
 10
888.526389600366
 20
90.66672636592832
1001
HATCHBACKGROUNDCOLOR
1071
-939524096
1000

1000

1001
ACAD
1010
0.0
1020
0.0
1030
0.0
  0
LINE
  5
CF
330
2
100
AcDbEntity
  8
DIE
370
    15
100
AcDbLine
 10
887.9591647575207
 20
90.60915590360311
 30
0.0
 11
887.8541647575174
 21
90.60915590360311
 31
0.0
  0
ARC
  5
D0
330
2
100
AcDbEntity
  8
DIE
370
    15
100
AcDbCircle
 10
887.8541647575174
 20
90.58415590360347
 30
0.0
 40
0.025
100
AcDbArc
 50
90.0
 51
270.0
  0
LINE
  5
D1
330
2
100
AcDbEntity
  8
DIE
100
AcDbLine
 10
887.9591647575207
 20
90.60915590360311
 30
0.0
 11
887.8541647575174
 21
90.60915590360311
 31
0.0
  0
LINE
  5
D2
330
2
100
AcDbEntity
  8
BOT
  6
HIDDEN2
 62
     4
 48
0.01
370
    15
100
AcDbLine
 10
888.0091647575163
 20
90.59415590360369
 30
0.0
 11
887.9591647575207
 21
90.60915590360311
 31
0.0
  0
LINE
  5
D3
330
2
100
AcDbEntity
  8
DIE
370
    15
100
AcDbLine
 10
887.9591647575207
 20
90.77915590360317
 30
0.0
 11
887.8541647575174
 21
90.77915590360317
 31
0.0
  0
ARC
  5
D4
330
2
100
AcDbEntity
  8
DIE
370
    15
100
AcDbCircle
 10
887.8541647575174
 20
90.80415590360372
 30
0.0
 40
0.025
100
AcDbArc
 50
90.0
 51
270.0
  0
LINE
  5
D5
330
2
100
AcDbEntity
  8
DIE
100
AcDbLine
 10
887.9591647575207
 20
90.77915590360317
 30
0.0
 11
887.8541647575174
 21
90.77915590360317
 31
0.0
  0
LINE
  5
D6
330
2
100
AcDbEntity
  8
BOT
  6
HIDDEN2
 62
     4
 48
0.01
370
    15
100
AcDbLine
 10
888.0091647575163
 20
90.79415590360351
 30
0.0
 11
887.9591647575207
 21
90.77915590360317
 31
0.0
  0
ARC
  5
D7
330
2
100
AcDbEntity
  8
DIE
370
    15
100
AcDbCircle
 10
888.6241647575214
 20
91.62415590360344
 30
0.0
 40
0.025
100
AcDbArc
 50
270.0
 51
90.0
  0
LINE
  5
D8
330
2
100
AcDbEntity
  8
DIE
100
AcDbLine
 10
888.5191647575183
 20
91.5991559036029
 30
0.0
 11
888.6241647575214
 21
91.5991559036029
 31
0.0
  0
LINE
  5
D9
330
2
100
AcDbEntity
  8
BOT
  6
HIDDEN2
 62
     4
 48
0.01
370
    15
100
AcDbLine
 10
888.4691647575227
 20
91.61415590360322
 30
0.0
 11
888.5191647575183
 21
91.5991559036029
 31
0.0
  0
LINE
  5
DA
330
2
100
AcDbEntity
  8
DIE
370
    15
100
AcDbLine
 10
888.5191647575183
 20
91.42915590360372
 30
0.0
 11
888.6241647575214
 21
91.42915590360372
 31
0.0
  0
ARC
  5
DB
330
2
100
AcDbEntity
  8
DIE
370
    15
100
AcDbCircle
 10
888.6241647575214
 20
91.40415590360317
 30
0.0
 40
0.025
100
AcDbArc
 50
270.0
 51
90.0
  0
LINE
  5
DC
330
2
100
AcDbEntity
  8
DIE
100
AcDbLine
 10
888.5191647575183
 20
91.42915590360372
 30
0.0
 11
888.6241647575214
 21
91.42915590360372
 31
0.0
  0
LINE
  5
DD
330
2
100
AcDbEntity
  8
BOT
  6
HIDDEN2
 62
     4
 48
0.01
370
    15
100
AcDbLine
 10
888.4691647575227
 20
91.4141559036034
 30
0.0
 11
888.5191647575183
 21
91.42915590360372
 31
0.0
  0
LINE
  5
DE
330
2
100
AcDbEntity
  8
DIE
370
    15
100
AcDbLine
 10
888.5191647575183
 20
90.60915590360311
 30
0.0
 11
888.6241647575214
 21
90.60915590360311
 31
0.0
  0
ARC
  5
DF
330
2
100
AcDbEntity
  8
DIE
370
    15
100
AcDbCircle
 10
888.6241647575214
 20
90.58415590360347
 30
0.0
 40
0.025
100
AcDbArc
 50
270.0
 51
90.0
  0
LINE
  5
E0
330
2
100
AcDbEntity
  8
DIE
100
AcDbLine
 10
888.5191647575183
 20
90.60915590360311
 30
0.0
 11
888.6241647575214
 21
90.60915590360311
 31
0.0
  0
LINE
  5
E1
330
2
100
AcDbEntity
  8
BOT
  6
HIDDEN2
 62
     4
 48
0.01
370
    15
100
AcDbLine
 10
888.4691647575227
 20
90.59415590360369
 30
0.0
 11
888.5191647575183
 21
90.60915590360311
 31
0.0
  0
ARC
  5
E2
330
2
100
AcDbEntity
  8
DIE
370
    15
100
AcDbCircle
 10
888.6241647575214
 20
90.80415590360372
 30
0.0
 40
0.025
100
AcDbArc
 50
270.0
 51
90.0
  0
LINE
  5
E3
330
2
100
AcDbEntity
  8
DIE
100
AcDbLine
 10
888.5191647575183
 20
90.77915590360317
 30
0.0
 11
888.6241647575214
 21
90.77915590360317
 31
0.0
  0
LINE
  5
E4
330
2
100
AcDbEntity
  8
BOT
  6
HIDDEN2
 62
     4
 48
0.01
370
    15
100
AcDbLine
 10
888.4691647575227
 20
90.79415590360351
 30
0.0
 11
888.5191647575183
 21
90.77915590360317
 31
0.0
  0
LINE
  5
E5
330
2
100
AcDbEntity
  8
DIE
100
AcDbLine
 10
888.0091647575163
 20
91.70415590360336
 30
0.0
 11
887.9591647575207
 21
91.5991559036029
 31
0.0
  0
HATCH
  5
E6
330
2
100
AcDbEntity
  8
PLATING
100
AcDbHatch
 10
0.0
 20
0.0
 30
0.0
210
0.0
220
0.0
230
1.0
  2
CROSS
 70
     0
 71
     0
 91
        2
 92
        7
 72
     0
 73
     1
 93
        4
 10
887.984164757522
 20
91.25915590360365
 10
887.984164757522
 20
90.94915590360326
 10
888.4941647575168
 20
90.94915590360326
 10
888.4941647575168
 20
91.25915590360365
 97
        0
 92
       22
 72
     0
 73
     1
 93
        5
 10
888.0741647575186
 20
90.98415590360311
 10
888.0741647575186
 20
91.07415590360325
 10
888.2241647575201
 20
91.22415590360288
 10
888.4041647575203
 20
91.22415590360288
 10
888.4041647575203
 20
90.98415590360311
 97
        0
 75
     1
 76
     1
 52
0.0
 41
0.005
 77
     0
 78
     2
 53
0.0
 43
854.4136655023892
 44
96.56882139230404
 45
0.03175
 46
0.03175
 79
     2
 49
0.015875
 49
-0.047625
 53
90.0
 43
854.421603002388
 44
96.56088389230447
 45
-0.03175
 46
0.03175
 79
     2
 49
0.015875
 49
-0.047625
 47
0.0
 98
        1
 10
888.0918651939635
 20
91.16679063340418
1001
HATCHBACKGROUNDCOLOR
1071
-939524096
1000

1000

1001
ACAD
1010
0.0
1020
0.0
1030
0.0
  0
LWPOLYLINE
  5
E7
330
2
100
AcDbEntity
  8
PLATING
370
    15
100
AcDbPolyline
 90
        4
 70
     1
 43
0.0
 10
887.984164757522
 20
90.94915590360326
 10
887.984164757522
 20
91.25915590360365
 10
888.4941647575168
 20
91.25915590360365
 10
888.4941647575168
 20
90.94915590360326
  0
DIMENSION
  5
E8
330
2
100
AcDbEntity
  8
标注线
 62
     4
100
AcDbDimension
280
     0
  2
*D0
 10
887.592943359618
 20
91.28415590360329
 30
0.0
 11
887.592943359618
 21
90.51789892036298
 31
0.0
 70
   128
  1
<>MAX SILVER LACK IS ALLOWED
 71
     5
 42
0.025000000000091
 73
     0
 74
     0
 75
     0
  3
ISO-25
100
AcDbAlignedDimension
 13
888.0264058460184
 23
91.25915590360319
 33
0.2511949979915419
 14
888.052579879459
 24
91.28415590360329
 34
0.2511949979915419
 50
90.0
100
AcDbRotatedDimension
1001
ACAD_DSTYLE_DIMINSPECT
1070
   393
1070
     0
1070
   394
1070
     0
1070
   395
1000

1070
   396
1000

1001
ACAD
1000
DSTYLE
1002
{
1070
    41
1040
0.05
1070
    44
1040
0.02
1070
    42
1040
0.01
1070
   147
1040
0.03
1070
    77
1070
     0
1070
   140
1040
0.05
1070
    78
1070
     0
1002
}
  0
DIMENSION
  5
FB
330
2
100
AcDbEntity
  8
标注线
 62
     4
100
AcDbDimension
280
     0
  2
*D1
 10
888.4941647575182
 20
91.32371155305966
 30
0.0
 11
889.4188218298596
 21
91.32371155305966
 31
0.0
 70
   128
  1
<>MAX SILVER LACK IS ALLOWED
 71
     5
 42
0.0250000000000909
 73
     0
 74
     0
 75
     0
  3
ISO-25
100
AcDbAlignedDimension
 13
888.5191647575183
 23
91.27415590360328
 33
0.2511949979915419
 14
888.4941647575182
 24
91.25915590360365
 34
0.0
 50
180.0
100
AcDbRotatedDimension
1001
ACAD_DSTYLE_DIMINSPECT
1070
   393
1070
     0
1070
   394
1070
     0
1070
   395
1000

1070
   396
1000

1001
ACAD
1000
DSTYLE
1002
{
1070
    41
1040
0.05
1070
    44
1040
0.02
1070
    42
1040
0.01
1070
   147
1040
0.03
1070
    77
1070
     0
1070
   140
1040
0.05
1070
    78
1070
     0
1002
}
  0
LINE
  5
10A
330
2
100
AcDbEntity
  8
PLATING
100
AcDbLine
 10
887.9891647575176
 20
91.4311589522701
 30
0.0
 11
887.9891647575176
 21
91.43415590359969
 31
0.0
  0
DIMENSION
  5
10B
330
2
100
AcDbEntity
  8
标注线
 62
     4
100
AcDbDimension
280
     0
  2
*D2
 10
888.2391647575195
 20
91.10415590360437
 30
0.0
 11
887.9641647575176
 21
92.50239928795338
 31
0.0
 70
    70
  1
<>\PPLATING LINE
 71
     5
 42
0.2349999999975126
 73
     0
 74
     0
 75
     0
  3
ISO-25
100
AcDbOrdinateDimension
 13
888.004164757522
 23
91.51415590360285
 33
0.0
 14
887.9641647575178
 24
92.17480152259032
 34
0.0
1001
ACAD
1000
DSTYLE
1002
{
1070
   284
1070
     0
1070
   340
1005
1E
1070
    41
1040
0.02
1070
    42
1040
0.01
1070
    44
1040
0.02
1070
    47
1040
0.025
1070
    48
1040
0.025
1070
    71
1070
     1
1070
    77
1070
     0
1070
    78
1070
     0
1070
   140
1040
0.07
1070
   147
1040
0.03
1070
   283
1070
     1
1002
}
  0
DIMENSION
  5
116
330
2
100
AcDbEntity
  8
标注线
 62
     4
100
AcDbDimension
280
     0
  2
*D3
 10
888.2391647575186
 20
91.10415590360345
 30
0.0
 11
888.2380911741678
 21
92.32592880865114
 31
0.0
 70
   198
 71
     5
 42
0.0
 73
     0
 74
     0
 75
     0
  3
ISO-25
100
AcDbOrdinateDimension
 13
888.2391647575186
 23
91.10415590360437
 33
0.0
 14
888.238091174168
 24
92.17567741200298
 34
0.0
1001
ACAD
1000
DSTYLE
1002
{
1070
   140
1040
0.07
1070
    41
1040
0.02
1070
    42
1040
0.01
1070
    44
1040
0.02
1070
    77
1070
     0
1070
    78
1070
     0
1070
   147
1040
0.03
1002
}
  0
DIMENSION
  5
121
330
2
100
AcDbEntity
  8
标注线
 62
     4
100
AcDbDimension
280
     0
  2
*D4
 10
888.2391647575195
 20
91.10415590360345
 30
0.0
 11
889.1849711981983
 21
91.10415590360345
 31
0.0
 70
   134
 71
     5
 42
0.0
 73
     0
 74
     0
 75
     0
  3
ISO-25
100
AcDbOrdinateDimension
 13
888.2391647575195
 23
91.10415590360345
 33
0.0
 14
889.0347198015502
 24
91.10415590360345
 34
0.0
1001
ACAD
1000
DSTYLE
1002
{
1070
    41
1040
0.02
1070
    42
1040
0.01
1070
    44
1040
0.02
1070
    77
1070
     0
1070
    78
1070
     0
1070
   140
1040
0.07
1070
   147
1040
0.03
1002
}
  0
DIMENSION
  5
12A
330
2
100
AcDbEntity
  8
标注线
 62
     4
100
AcDbDimension
280
     0
  2
*D5
 10
887.6992488566825
 20
90.81915590360587
 30
0.0
 11
887.6992488566825
 21
89.99362784024359
 31
0.0
 70
   128
  1
{\fSimSun|b0|i0|c0|p34;0.300MIN PLATING}
 71
     5
 42
0.2900000000008731
 73
     0
 74
     0
 75
     0
  3
ISO-25
100
AcDbAlignedDimension
 13
888.0995973779672
 23
90.529155903605
 33
0.0
 14
888.0978197762368
 24
90.81915590360587
 34
0.0
 50
90.0
100
AcDbRotatedDimension
1001
ACAD
1000
DSTYLE
1002
{
1070
   340
1005
1E
1070
    41
1040
0.08
1070
    44
1040
0.02
1070
    42
1040
0.01
1070
   147
1040
0.03
1070
    77
1070
     0
1070
   140
1040
0.07
1070
    78
1070
     0
1002
}
1001
ACAD_DSTYLE_DIMINSPECT
1070
   393
1070
     0
1070
   394
1070
     0
1070
   395
1000

1070
   396
1000

  0
DIMENSION
  5
138
330
2
100
AcDbEntity
  8
标注线
 62
     4
100
AcDbDimension
280
     0
  2
*D6
 10
888.4741647575152
 20
90.24544606494465
 30
0.0
 11
889.061287662543
 21
90.24544606494465
 31
0.0
 70
   128
  1
<>{\fSimSun|b0|i0|c0|p34;MIN PLATING}
 71
     5
 42
0.1699999999934789
 73
     0
 74
     0
 75
     0
  3
ISO-25
100
AcDbAlignedDimension
 13
888.3041647575218
 23
90.59415590360369
 33
0.0
 14
888.4741647575152
 24
90.69415590360589
 34
0.0
100
AcDbRotatedDimension
1001
ACAD
1000
DSTYLE
1002
{
1070
   340
1005
1E
1070
    41
1040
0.08
1070
    44
1040
0.02
1070
    42
1040
0.01
1070
   147
1040
0.03
1070
    77
1070
     0
1070
   140
1040
0.07
1070
    78
1070
     0
1002
}
1001
ACAD_DSTYLE_DIMINSPECT
1070
   393
1070
     0
1070
   394
1070
     0
1070
   395
1000

1070
   396
1000

  0
DIMENSION
  5
147
330
2
100
AcDbEntity
  8
标注线
 62
     4
100
AcDbDimension
280
     0
  2
*D7
 10
888.2791647575217
 20
92.03549527224277
 30
0.0
 11
889.045421740762
 21
92.03549527224277
 31
0.0
 70
   128
  1
<>MAX SILVER LACK IS ALLOWED
 71
     5
 42
0.0250000000000909
 73
     0
 74
     0
 75
     0
  3
ISO-25
100
AcDbAlignedDimension
 13
888.3041647575218
 23
91.66915590360373
 33
0.2511949979915419
 14
888.2791647575217
 24
91.65415590360408
 34
0.0
 50
180.0
100
AcDbRotatedDimension
1001
ACAD_DSTYLE_DIMINSPECT
1070
   393
1070
     0
1070
   394
1070
     0
1070
   395
1000

1070
   396
1000

1001
ACAD
1000
DSTYLE
1002
{
1070
    41
1040
0.05
1070
    44
1040
0.02
1070
    42
1040
0.01
1070
   147
1040
0.03
1070
    77
1070
     0
1070
   140
1040
0.05
1070
    78
1070
     0
1002
}
  0
DIMENSION
  5
156
330
2
100
AcDbEntity
  8
标注线
 62
     4
100
AcDbDimension
280
     0
  2
*D8
 10
887.4931624552116
 20
91.70415590360336
 30
0.0
 11
887.4931624552116
 21
90.93789892036351
 31
0.0
 70
   128
  1
<>MAX SILVER LACK IS ALLOWED
 71
     5
 42
0.0249999999996362
 73
     0
 74
     0
 75
     0
  3
ISO-25
100
AcDbAlignedDimension
 13
888.035029998417
 23
91.67915590360372
 33
0.2511949979915419
 14
888.0612040318576
 24
91.70415590360336
 34
0.0
 50
90.0
100
AcDbRotatedDimension
1001
ACAD_DSTYLE_DIMINSPECT
1070
   393
1070
     0
1070
   394
1070
     0
1070
   395
1000

1070
   396
1000

1001
ACAD
1000
DSTYLE
1002
{
1070
    41
1040
0.05
1070
    44
1040
0.02
1070
    42
1040
0.01
1070
   147
1040
0.03
1070
    77
1070
     0
1070
   140
1040
0.05
1070
    78
1070
     0
1002
}
  0
LINE
  5
165
330
2
100
AcDbEntity
  8
DIE
370
    15
100
AcDbLine
 10
888.0491647575171
 20
91.70415590360336
 30
0.0
 11
888.0091647575163
 21
91.70415590360336
 31
0.0
  0
LWPOLYLINE
  5
166
330
2
100
AcDbEntity
  8
PLATING
100
AcDbPolyline
 90
        4
 70
     0
 43
0.0
 10
888.5141647575212
 20
91.58048839941294
 10
888.5141647575212
 20
91.70415590360383
 10
887.9641647575176
 20
91.70415590360383
 10
887.9641647575176
 20
91.5804883994121
  0
LWPOLYLINE
  5
167
330
2
100
AcDbEntity
  8
PLATING
100
AcDbPolyline
 90
        8
 70
     1
 43
0.0
 10
888.5141647575196
 20
91.58048839941207
 10
888.5141647575196
 20
91.70415590360383
 10
887.9641647575176
 20
91.70415590360383
 10
887.9641647575176
 20
91.58048839941208
 42
-0.6030226892004836
 10
887.9641647575176
 20
91.44782340779361
 10
887.9641647575176
 20
91.36415590360321
 10
888.5141647575196
 20
91.36415590360321
 10
888.5141647575196
 20
91.44782340779363
 42
-0.603022689200537
  0
HATCH
  5
168
330
2
100
AcDbEntity
  8
PLATING
100
AcDbHatch
 10
0.0
 20
0.0
 30
0.0
210
0.0
220
0.0
230
1.0
  2
CROSS
 70
     0
 71
     0
 91
        2
 92
        3
 72
     0
 73
     1
 93
       10
 10
888.0091647575163
 20
90.59415590360552
 10
888.1691647575197
 20
90.59415590360552
 10
888.1691647575197
 20
90.79415590360534
 10
888.0091647575163
 20
90.79415590360534
 10
888.0001678061855
 20
90.79145681820584
 10
888.0214747949565
 20
90.81915590360589
 10
888.1741647575172
 20
90.81915590360589
 10
888.1741647575172
 20
90.52915590360502
 10
888.0250299984171
 20
90.52915590360502
 10
887.9914905852693
 20
90.59945815528021
 97
        0
 92
        3
 72
     1
 73
     1
 93
       10
 10
887.9891647575176
 20
90.60433334278654
 42
0.0
 10
887.9891647575176
 20
90.64915590359841
 42
0.4114719793338448
 10
887.9891647575169
 20
90.73915590361055
 42
0.0
 10
887.9891647575176
 20
90.77715285493864
 42
0.0
 10
888.0001678061855
 20
90.79145681820584
 42
0.0
 10
888.0091647575163
 20
90.79415590360534
 42
0.0
 10
888.1691647575197
 20
90.79415590360534
 42
0.0
 10
888.1691647575197
 20
90.59415590360552
 42
0.0
 10
888.0091647575163
 20
90.59415590360552
 42
0.0
 10
887.9914905852693
 20
90.59945815528021
 42
0.0
 97
        0
 75
     1
 76
     1
 52
0.0
 41
0.005
 77
     0
 78
     2
 53
0.0
 43
0.5403719039300086
 44
-0.7612384795778553
 45
0.03175
 46
0.03175
 79
     2
 49
0.015875
 49
-0.047625
 53
90.0
 43
0.5483094039300341
 44
-0.7691759795778524
 45
-0.03175
 46
0.03175
 79
     2
 49
0.015875
 49
-0.047625
 98
        2
 10
888.0754598508877
 20
90.72931253199111
 10
888.073650136671
 20
90.5646285382758
1001
HATCHBACKGROUNDCOLOR
1071
-939524096
1000

1000

1001
ACAD
1010
0.0
1020
0.0
1030
0.0
  0
HATCH
  5
169
330
2
100
AcDbEntity
  8
PLATING
100
AcDbHatch
 10
0.0
 20
0.0
 30
0.0
210
0.0
220
0.0
230
1.0
  2
CROSS
 70
     0
 71
     0
 91
        2
 92
        3
 72
     0
 73
     1
 93
       10
 10
888.4691647575211
 20
90.59415590360552
 10
888.3091647575175
 20
90.59415590360552
 10
888.3091647575175
 20
90.79415590360534
 10
888.4691647575211
 20
90.79415590360534
 10
888.4781617088517
 20
90.79145681820584
 10
888.4568547200807
 20
90.81915590360589
 10
888.3041647575202
 20
90.81915590360589
 10
888.3041647575202
 20
90.52915590360502
 10
888.4532995166201
 20
90.52915590360502
 10
888.4868389297681
 20
90.59945815528021
 97
        0
 92
        3
 72
     1
 73
     1
 93
       10
 10
888.4891647575196
 20
90.60433334278654
 42
0.0
 10
888.4891647575196
 20
90.64915590359829
 42
-0.3333333333920294
 10
888.4891647575202
 20
90.73915590361059
 42
0.0
 10
888.4891647575196
 20
90.77715285493864
 42
0.0
 10
888.4781617088517
 20
90.79145681820584
 42
0.0
 10
888.4691647575211
 20
90.79415590360534
 42
0.0
 10
888.3091647575175
 20
90.79415590360534
 42
0.0
 10
888.3091647575175
 20
90.59415590360552
 42
0.0
 10
888.4691647575211
 20
90.59415590360552
 42
0.0
 10
888.4868389297681
 20
90.59945815528021
 42
0.0
 97
        0
 75
     1
 76
     1
 52
180.0
 41
0.005
 77
     0
 78
     2
 53
0.0
 43
0.5403719039300086
 44
-0.7612384795778553
 45
0.03175
 46
0.03175
 79
     2
 49
0.015875
 49
-0.047625
 53
90.0
 43
0.5483094039300341
 44
-0.7691759795778524
 45
-0.03175
 46
0.03175
 79
     2
 49
0.015875
 49
-0.047625
 98
        2
 10
888.4028696641497
 20
90.72931253199111
 10
888.4046793783662
 20
90.5646285382758
1001
HATCHBACKGROUNDCOLOR
1071
-939524096
1000

1000

1001
ACAD
1010
0.0
1020
0.0
1030
0.0
  0
LINE
  5
16A
330
2
100
AcDbEntity
  8
PLATING
100
AcDbLine
 10
888.5141647575196
 20
90.62782340779483
 30
0.0
 11
888.5141647575196
 21
90.50415590360309
 31
0.0
  0
LINE
  5
16B
330
2
100
AcDbEntity
  8
PLATING
100
AcDbLine
 10
888.5141647575196
 20
90.50415590360309
 30
0.0
 11
887.9641647575176
 21
90.50415590360309
 31
0.0
  0
LINE
  5
16C
330
2
100
AcDbEntity
  8
PLATING
100
AcDbLine
 10
887.9641647575176
 20
90.50415590360309
 30
0.0
 11
887.9641647575176
 21
90.62782340779483
 31
0.0
  0
ARC
  5
16D
330
2
100
AcDbEntity
  8
PLATING
100
AcDbCircle
 10
887.9291647575222
 20
90.69415590360405
 30
0.0
 40
0.0749999999997969
100
AcDbArc
 50
297.8181392808785
 51
62.18186071912649
  0
LINE
  5
16E
330
2
100
AcDbEntity
  8
PLATING
100
AcDbLine
 10
887.9641647575176
 20
90.7604883994133
 30
0.0
 11
887.9641647575176
 21
90.8441559036037
 31
0.0
  0
LINE
  5
16F
330
2
100
AcDbEntity
  8
PLATING
100
AcDbLine
 10
887.9641647575176
 20
90.8441559036037
 30
0.0
 11
888.5141647575196
 21
90.8441559036037
 31
0.0
  0
LINE
  5
170
330
2
100
AcDbEntity
  8
PLATING
100
AcDbLine
 10
888.5141647575196
 20
90.8441559036037
 30
0.0
 11
888.5141647575196
 21
90.76048839941327
 31
0.0
  0
ARC
  5
171
330
2
100
AcDbEntity
  8
PLATING
100
AcDbCircle
 10
888.549164757515
 20
90.69415590360405
 30
0.0
 40
0.0749999999997843
100
AcDbArc
 50
117.8181392808836
 51
242.1818607191164
  0
LWPOLYLINE
  5
172
330
2
100
AcDbEntity
  8
PLATING
100
AcDbPolyline
 90
        8
 70
     0
 43
0.0
 10
888.4891647575196
 20
90.64915590359843
 10
888.4891647575196
 20
90.60433334278654
 10
888.4532995166203
 20
90.52915590360537
 10
888.3041647575202
 20
90.52915590360537
 10
888.3041647575202
 20
90.81915590360587
 10
888.4568547200807
 20
90.81915590360587
 10
888.4891647575196
 20
90.77715285493864
 10
888.4891647575196
 20
90.73915590360963
  0
LWPOLYLINE
  5
173
330
2
100
AcDbEntity
  8
PLATING
100
AcDbPolyline
 90
        8
 70
     0
 43
0.0
 10
887.9891647575176
 20
90.64915590359843
 10
887.9891647575176
 20
90.60433334278654
 10
888.0250299984167
 20
90.52915590360537
 10
888.174164757517
 20
90.52915590360537
 10
888.174164757517
 20
90.81915590360587
 10
888.0214747949564
 20
90.81915590360587
 10
887.9891647575176
 20
90.77715285493864
 10
887.9891647575176
 20
90.73915590360963
  0
HATCH
  5
174
330
2
100
AcDbEntity
  8
PLATING
100
AcDbHatch
 10
0.0
 20
0.0
 30
0.0
210
0.0
220
0.0
230
1.0
  2
CROSS
 70
     0
 71
     0
 91
        2
 92
        3
 72
     0
 73
     1
 93
       10
 10
888.0091647575198
 20
91.61415590360352
 10
888.1691647575234
 20
91.6141559036024
 10
888.169164757522
 20
91.41415590360258
 10
888.0091647575184
 20
91.4141559036037
 10
888.0001678061878
 20
91.41685498900326
 10
888.0214747949587
 20
91.38915590360307
 10
888.1741647575191
 20
91.389155903602
 10
888.1741647575212
 20
91.67915590360287
 10
888.0250299984211
 20
91.67915590360392
 10
887.9914905852729
 20
91.60885365192896
 97
        0
 92
        3
 72
     1
 73
     1
 93
       10
 10
887.9891647575211
 20
91.60397846442263
 42
0.0
 10
887.989164757521
 20
91.55915590361077
 42
-0.4114719793338448
 10
887.9891647575195
 20
91.46915590359864
 42
0.0
 10
887.9891647575201
 20
91.43115895227053
 42
0.0
 10
888.0001678061878
 20
91.41685498900326
 42
0.0
 10
888.0091647575184
 20
91.4141559036037
 42
0.0
 10
888.169164757522
 20
91.41415590360258
 42
0.0
 10
888.1691647575234
 20
91.6141559036024
 42
0.0
 10
888.0091647575198
 20
91.61415590360352
 42
0.0
 10
887.9914905852729
 20
91.60885365192896
 42
0.0
 97
        0
 75
     1
 76
     1
 52
359.9999999995986
 41
0.005
 77
     0
 78
     2
 53
0.0
 43
0.5403719039300086
 44
-0.7612384795778553
 45
0.03175
 46
0.03175
 79
     2
 49
0.015875
 49
-0.047625
 53
90.0
 43
0.5483094039300341
 44
-0.7691759795778524
 45
-0.03175
 46
0.03175
 79
     2
 49
0.015875
 49
-0.047625
 98
        2
 10
888.0754598508904
 20
91.47899927521747
 10
888.0736501366749
 20
91.64368326893278
1001
HATCHBACKGROUNDCOLOR
1071
-939524096
1000

1000

1001
ACAD
1010
0.0
1020
0.0
1030
0.0
  0
HATCH
  5
175
330
2
100
AcDbEntity
  8
PLATING
100
AcDbHatch
 10
0.0
 20
0.0
 30
0.0
210
0.0
220
0.0
230
1.0
  2
CROSS
 70
     0
 71
     0
 91
        2
 92
        3
 72
     0
 73
     1
 93
       10
 10
888.4691647575246
 20
91.61415590360029
 10
888.3091647575211
 20
91.61415590360141
 10
888.3091647575199
 20
91.41415590360159
 10
888.4691647575234
 20
91.41415590360047
 10
888.478161708854
 20
91.41685498899992
 10
888.4568547200828
 20
91.38915590360001
 10
888.3041647575222
 20
91.3891559036011
 10
888.3041647575243
 20
91.67915590360196
 10
888.4532995166242
 20
91.67915590360092
 10
888.4868389297716
 20
91.6088536519255
 97
        0
 92
        3
 72
     1
 73
     1
 93
       10
 10
888.4891647575232
 20
91.60397846441913
 42
0.0
 10
888.489164757523
 20
91.5591559036074
 42
0.3333333333920294
 10
888.4891647575228
 20
91.46915590359508
 42
0.0
 10
888.4891647575221
 20
91.43115895226703
 42
0.0
 10
888.478161708854
 20
91.41685498899992
 42
0.0
 10
888.4691647575234
 20
91.41415590360047
 42
0.0
 10
888.3091647575199
 20
91.41415590360159
 42
0.0
 10
888.3091647575211
 20
91.61415590360141
 42
0.0
 10
888.4691647575246
 20
91.61415590360029
 42
0.0
 10
888.4868389297716
 20
91.6088536519255
 42
0.0
 97
        0
 75
     1
 76
     1
 52
179.9999999995986
 41
0.005
 77
     0
 78
     2
 53
0.0
 43
0.5403719039300086
 44
-0.7612384795778553
 45
0.03175
 46
0.03175
 79
     2
 49
0.015875
 49
-0.047625
 53
90.0
 43
0.5483094039300341
 44
-0.7691759795778524
 45
-0.03175
 46
0.03175
 79
     2
 49
0.015875
 49
-0.047625
 98
        2
 10
888.4028696641523
 20
91.47899927521518
 10
888.4046793783701
 20
91.64368326893045
1001
HATCHBACKGROUNDCOLOR
1071
-939524096
1000

1000

1001
ACAD
1010
0.0
1020
0.0
1030
0.0
  0
LWPOLYLINE
  5
176
330
2
100
AcDbEntity
  8
PLATING
100
AcDbPolyline
 90
        8
 70
     0
 43
0.0
 10
888.4891647575196
 20
91.55915590361029
 10
888.4891647575196
 20
91.6039784644222
 10
888.4532995166203
 20
91.67915590360335
 10
888.3041647575202
 20
91.67915590360335
 10
888.3041647575202
 20
91.38915590360285
 10
888.4568547200807
 20
91.38915590360285
 10
888.4891647575196
 20
91.4311589522701
 10
888.4891647575196
 20
91.4691559035991
  0
LWPOLYLINE
  5
177
330
2
100
AcDbEntity
  8
PLATING
100
AcDbPolyline
 90
        8
 70
     0
 43
0.0
 10
887.9891647575176
 20
91.55915590361029
 10
887.9891647575176
 20
91.6039784644222
 10
888.0250299984167
 20
91.67915590360335
 10
888.174164757517
 20
91.67915590360335
 10
888.174164757517
 20
91.38915590360285
 10
888.0214747949564
 20
91.38915590360285
 10
887.9891647575176
 20
91.4311589522701
 10
887.9891647575176
 20
91.4691559035991
  0
ENDSEC
  0
SECTION
  2
OBJECTS
  0
DICTIONARY
  5
A
330
0
100
AcDbDictionary
281
     1
  3
ACAD_COLOR
350
39
  3
ACAD_GROUP
350
30
  3
ACAD_LAYOUT
350
13
  3
ACAD_MATERIAL
350
C
  3
ACAD_MLEADERSTYLE
350
3C
  3
ACAD_MLINESTYLE
350
31
  3
ACAD_PLOTSETTINGS
350
32
  3
ACAD_PLOTSTYLENAME
350
9
  3
ACAD_SCALELIST
350
3A
  3
ACAD_TABLESTYLE
350
3B
  3
ACAD_VISUALSTYLE
350
28
  3
ACDB_RECOMPOSE_DATA
350
17D
  3
AcDbVariableDictionary
350
3D
  0
DICTIONARY
  5
1B
330
1A
100
AcDbDictionary
280
     1
281
     1
  3
ACAD_LAYERSTATES
360
1C
  0
DICTIONARY
  5
C7
330
C6
100
AcDbDictionary
280
     1
281
     1
  3
ADSK_XREC_LAYER_RECONCILED
360
C8
  0
DICTIONARY
  5
3
330
2
100
AcDbDictionary
280
     1
281
     1
  3
ACAD_ASSOCNETWORK
360
4
  3
ACAD_SORTENTS
360
178
  0
DICTIONARY
  5
39
102
{ACAD_REACTORS
330
A
102
}
330
A
100
AcDbDictionary
281
     1
  0
DICTIONARY
  5
30
102
{ACAD_REACTORS
330
A
102
}
330
A
100
AcDbDictionary
281
     1
  0
DICTIONARY
  5
13
102
{ACAD_REACTORS
330
A
102
}
330
A
100
AcDbDictionary
281
     1
  3
Model
350
12
  3
布局1
350
19
1001
AcadStringInfo
1000
MIFCodePage
1070
     5
  0
DICTIONARY
  5
C
102
{ACAD_REACTORS
330
A
102
}
330
A
100
AcDbDictionary
281
     1
  3
ByBlock
350
36
  3
ByLayer
350
33
  3
Global
350
B
  0
DICTIONARY
  5
3C
102
{ACAD_REACTORS
330
A
102
}
330
A
100
AcDbDictionary
281
     1
  0
DICTIONARY
  5
31
102
{ACAD_REACTORS
330
A
102
}
330
A
100
AcDbDictionary
281
     1
  3
Standard
350
50
  0
DICTIONARY
  5
32
102
{ACAD_REACTORS
330
A
102
}
330
A
100
AcDbDictionary
281
     1
  0
ACDBDICTIONARYWDFLT
  5
9
102
{ACAD_REACTORS
330
A
102
}
330
A
100
AcDbDictionary
281
     1
  3
Color_4
350
EC
  3
Normal
350
8
100
AcDbDictionaryWithDefault
340
8
  0
DICTIONARY
  5
3A
102
{ACAD_REACTORS
330
A
102
}
330
A
100
AcDbDictionary
281
     1
  3
A0
350
54
  3
A1
350
55
  3
A2
350
56
  3
A3
350
57
  3
A4
350
58
  3
A5
350
59
  3
A6
350
5A
  3
A7
350
5B
  3
A8
350
5C
  3
A9
350
5D
  3
B0
350
5E
  3
B1
350
5F
  3
B2
350
60
  3
B3
350
61
  3
B4
350
62
  3
B5
350
63
  3
B6
350
64
  0
DICTIONARY
  5
3B
102
{ACAD_REACTORS
330
A
102
}
330
A
100
AcDbDictionary
281
     1
  3
Standard
350
51
  0
DICTIONARY
  5
28
102
{ACAD_REACTORS
330
A
102
}
330
A
100
AcDbDictionary
281
     1
  3
2dWireframe
350
27
  3
EdgeColorOff
350
F2
  3
Realistic
350
52
  3
Wireframe
350
53
  0
XRECORD
  5
17D
102
{ACAD_REACTORS
330
A
102
}
330
A
100
AcDbXrecord
280
     1
 90
        1
330
51
  0
DICTIONARY
  5
3D
102
{ACAD_REACTORS
330
A
102
}
330
A
100
AcDbDictionary
281
     1
  3
CANNOSCALE
350
3E
  3
CMLEADERSTYLE
350
3F
  3
CTABLESTYLE
350
40
  3
CVIEWDETAILSTYLE
350
41
  3
CVIEWSECTIONSTYLE
350
42
  3
DIMASSOC
350
43
  3
HIDETEXT
350
44
  3
HPCOLOR
350
45
  3
HPTRANSPARENCY
350
46
  3
INDEXCTL
350
47
  3
LATITUDE
350
48
  3
LAYEREVAL
350
49
  3
LAYERNOTIFY
350
4A
  3
LIGHTINGUNITS
350
4B
  3
LONGITUDE
350
4C
  3
MSLTSCALE
350
4D
  3
SOLIDHIST
350
4E
  3
SORTENTS
350
4F
  0
DICTIONARY
  5
1C
102
{ACAD_REACTORS
330
1B
102
}
330
1B
100
AcDbDictionary
281
     1
  0
XRECORD
  5
C8
102
{ACAD_REACTORS
330
C7
102
}
330
C7
100
AcDbXrecord
280
     1
290
     1
  0
DICTIONARY
  5
4
102
{ACAD_REACTORS
330
3
102
}
330
3
100
AcDbDictionary
281
     1
  0
SORTENTSTABLE
  5
178
102
{ACAD_REACTORS
330
3
102
}
330
3
100
AcDbSortentsTable
330
2
  0
LAYOUT
  5
12
102
{ACAD_REACTORS
330
13
102
}
330
13
100
AcDbPlotSettings
  1

  2
None
  4
ISO_A4_(210.00_x_297.00_MM)
  6

 40
7.5
 41
20.0
 42
7.5
 43
20.0
 44
210.0
 45
297.0
 46
11.54999923706054
 47
-13.65000009536743
 48
0.0
 49
0.0
140
0.0
141
0.0
142
1.0
143
8.704084754739808
 70
 11952
 72
     1
 73
     0
 74
     0
  7
monochrome.ctb
 75
     0
147
0.1148885871608098
 76
     0
 77
     2
 78
   300
148
0.0
149
0.0
100
AcDbLayout
  1
Model
 70
     1
 71
     0
 10
0.0
 20
0.0
 11
12.0
 21
9.0
 12
0.0
 22
0.0
 32
0.0
 14
78.9119964903798
 24
-74.35170100259893
 34
-0.1908957645403256
 15
267.7801987673102
 25
131.2602249424103
 35
0.7535849939746738
146
0.0
 13
0.0
 23
0.0
 33
0.0
 16
1.0
 26
0.0
 36
0.0
 17
0.0
 27
1.0
 37
0.0
 76
     0
330
2
331
26
1001
ACAD_PSEXT
1000
None
1000
None
1000
Not applicable
1000
The layout will not be plotted unless a new plotter configuration name is selected.
1070
     0
  0
LAYOUT
  5
19
102
{ACAD_REACTORS
330
13
102
}
330
13
100
AcDbPlotSettings
  1

  2
C:\Documents and Settings\basas\Application Data\Autodesk\AutoCAD 2005\R16.1\enu\plotters\Default Windows System Printer.pc3
  4

  6

 40
0.0
 41
0.0
 42
0.0
 43
0.0
 44
0.0
 45
0.0
 46
0.0
 47
0.0
 48
0.0
 49
0.0
140
0.0
141
0.0
142
1.0
143
1.0
 70
   688
 72
     0
 73
     0
 74
     5
  7
monochrome.ctb
 75
    16
147
1.0
 76
     0
 77
     2
 78
   300
148
0.0
149
0.0
100
AcDbLayout
  1
布局1
 70
     1
 71
     1
 10
0.0
 20
0.0
 11
12.0
 21
9.0
 12
0.0
 22
0.0
 32
0.0
 14
0.0
 24
0.0
 34
0.0
 15
0.0
 25
0.0
 35
0.0
146
0.0
 13
0.0
 23
0.0
 33
0.0
 16
1.0
 26
0.0
 36
0.0
 17
0.0
 27
1.0
 37
0.0
 76
     0
330
16
1001
AcadStringInfo
1000
MIFCodePage
1070
     5
  0
MATERIAL
  5
36
102
{ACAD_XDICTIONARY
360
37
102
}
102
{ACAD_REACTORS
330
C
102
}
330
C
100
AcDbMaterial
  1
ByBlock
 94
       63
  0
MATERIAL
  5
33
102
{ACAD_XDICTIONARY
360
34
102
}
102
{ACAD_REACTORS
330
C
102
}
330
C
100
AcDbMaterial
  1
ByLayer
 94
       63
  0
MATERIAL
  5
B
102
{ACAD_XDICTIONARY
360
D
102
}
102
{ACAD_REACTORS
330
C
102
}
330
C
100
AcDbMaterial
  1
Global
 43
0.0007999999797903
 43
0.0
 43
0.0
 43
0.0
 43
0.0
 43
0.0007999999797903
 43
0.0
 43
0.0
 43
0.0
 43
0.0
 43
1.0
 43
0.0
 43
0.0
 43
0.0
 43
0.0
 43
1.0
 49
0.0007999999797903
 49
0.0
 49
0.0
 49
0.0
 49
0.0
 49
0.0007999999797903
 49
0.0
 49
0.0
 49
0.0
 49
0.0
 49
1.0
 49
0.0
 49
0.0
 49
0.0
 49
0.0
 49
1.0
142
0.0007999999797903
142
0.0
142
0.0
142
0.0
142
0.0
142
0.0007999999797903
142
0.0
142
0.0
142
0.0
142
0.0
142
1.0
142
0.0
142
0.0
142
0.0
142
0.0
142
1.0
144
0.0007999999797903
144
0.0
144
0.0
144
0.0
144
0.0
144
0.0007999999797903
144
0.0
144
0.0
144
0.0
144
0.0
144
1.0
144
0.0
144
0.0
144
0.0
144
0.0
144
1.0
 94
       63
1001
ACAD
1070
    -1
1070
     3
1070
     0
1000

1071
        0
1070
     0
  0
MLINESTYLE
  5
50
102
{ACAD_REACTORS
330
31
102
}
330
31
100
AcDbMlineStyle
  2
STANDARD
 70
     0
  3

 62
   256
 51
90.0
 52
90.0
 71
     2
 49
0.5
 62
   256
  6
BYLAYER
 49
-0.5
 62
   256
  6
BYLAYER
  0
ACDBPLACEHOLDER
  5
EC
102
{ACAD_REACTORS
330
9
102
}
330
9
  0
ACDBPLACEHOLDER
  5
8
102
{ACAD_REACTORS
330
9
102
}
330
9
  0
SCALE
  5
54
102
{ACAD_REACTORS
330
3A
102
}
330
3A
100
AcDbScale
 70
     0
300
1:1
140
1.0
141
1.0
290
     1
  0
SCALE
  5
55
102
{ACAD_REACTORS
330
3A
102
}
330
3A
100
AcDbScale
 70
     0
300
1:2
140
1.0
141
2.0
290
     0
  0
SCALE
  5
56
102
{ACAD_REACTORS
330
3A
102
}
330
3A
100
AcDbScale
 70
     0
300
1:4
140
1.0
141
4.0
290
     0
  0
SCALE
  5
57
102
{ACAD_REACTORS
330
3A
102
}
330
3A
100
AcDbScale
 70
     0
300
1:5
140
1.0
141
5.0
290
     0
  0
SCALE
  5
58
102
{ACAD_REACTORS
330
3A
102
}
330
3A
100
AcDbScale
 70
     0
300
1:8
140
1.0
141
8.0
290
     0
  0
SCALE
  5
59
102
{ACAD_REACTORS
330
3A
102
}
330
3A
100
AcDbScale
 70
     0
300
1:10
140
1.0
141
10.0
290
     0
  0
SCALE
  5
5A
102
{ACAD_REACTORS
330
3A
102
}
330
3A
100
AcDbScale
 70
     0
300
1:16
140
1.0
141
16.0
290
     0
  0
SCALE
  5
5B
102
{ACAD_REACTORS
330
3A
102
}
330
3A
100
AcDbScale
 70
     0
300
1:20
140
1.0
141
20.0
290
     0
  0
SCALE
  5
5C
102
{ACAD_REACTORS
330
3A
102
}
330
3A
100
AcDbScale
 70
     0
300
1:30
140
1.0
141
30.0
290
     0
  0
SCALE
  5
5D
102
{ACAD_REACTORS
330
3A
102
}
330
3A
100
AcDbScale
 70
     0
300
1:40
140
1.0
141
40.0
290
     0
  0
SCALE
  5
5E
102
{ACAD_REACTORS
330
3A
102
}
330
3A
100
AcDbScale
 70
     0
300
1:50
140
1.0
141
50.0
290
     0
  0
SCALE
  5
5F
102
{ACAD_REACTORS
330
3A
102
}
330
3A
100
AcDbScale
 70
     0
300
1:100
140
1.0
141
100.0
290
     0
  0
SCALE
  5
60
102
{ACAD_REACTORS
330
3A
102
}
330
3A
100
AcDbScale
 70
     0
300
2:1
140
2.0
141
1.0
290
     0
  0
SCALE
  5
61
102
{ACAD_REACTORS
330
3A
102
}
330
3A
100
AcDbScale
 70
     0
300
4:1
140
4.0
141
1.0
290
     0
  0
SCALE
  5
62
102
{ACAD_REACTORS
330
3A
102
}
330
3A
100
AcDbScale
 70
     0
300
8:1
140
8.0
141
1.0
290
     0
  0
SCALE
  5
63
102
{ACAD_REACTORS
330
3A
102
}
330
3A
100
AcDbScale
 70
     0
300
10:1
140
10.0
141
1.0
290
     0
  0
SCALE
  5
64
102
{ACAD_REACTORS
330
3A
102
}
330
3A
100
AcDbScale
 70
     0
300
100:1
140
100.0
141
1.0
290
     0
  0
TABLESTYLE
  5
51
102
{ACAD_XDICTIONARY
360
17B
102
}
102
{ACAD_REACTORS
330
3B
102
}
330
3B
100
AcDbTableStyle
280
     0
  3
Standard
 70
     0
 71
     0
 40
1.5
 41
1.5
280
     0
281
     0
  7
Standard
140
4.5
170
     2
 62
     0
 63
     7
283
     0
 90
      512
 91
        0
  1

274
    -2
284
     1
 64
     0
275
    -2
285
     1
 65
     0
276
    -2
286
     1
 66
     0
277
    -2
287
     1
 67
     0
278
    -2
288
     1
 68
     0
279
    -2
289
     1
 69
     0
  7
Standard
140
6.0
170
     5
 62
     0
 63
     7
283
     0
 90
      512
 91
        0
  1

274
    -2
284
     1
 64
     0
275
    -2
285
     1
 65
     0
276
    -2
286
     1
 66
     0
277
    -2
287
     1
 67
     0
278
    -2
288
     1
 68
     0
279
    -2
289
     1
 69
     0
  7
Standard
140
4.5
170
     5
 62
     0
 63
     7
283
     0
 90
      512
 91
        0
  1

274
    -2
284
     1
 64
     0
275
    -2
285
     1
 65
     0
276
    -2
286
     1
 66
     0
277
    -2
287
     1
 67
     0
278
    -2
288
     1
 68
     0
279
    -2
289
     1
 69
     0
  0
VISUALSTYLE
  5
27
102
{ACAD_REACTORS
330
28
102
}
330
28
100
AcDbVisualStyle
  2
2dWireframe
 70
     4
177
     3
291
     0
 70
    58
 90
        0
176
     1
 90
        2
176
     1
 90
        1
176
     1
 90
        0
176
     1
 40
0.6
176
     1
 40
30.0
176
     1
 62
     7
176
     1
 90
        1
176
     1
 90
        4
176
     1
 62
     7
176
     1
 62
   257
176
     1
 90
        1
176
     1
 90
        1
176
     1
 40
1.0
176
     1
 90
        0
176
     1
 62
   257
176
     1
 40
1.0
176
     1
 90
        1
176
     1
 90
        6
176
     1
 90
        2
176
     1
 62
     7
176
     1
 90
        5
176
     1
 90
        0
176
     1
 90
        0
176
     1
290
     0
176
     1
 90
        1
176
     1
 40
0.0
176
     1
 90
        0
176
     1
290
     1
176
     1
290
     1
176
     1
290
     0
176
     1
290
     0
176
     1
290
     0
176
     1
290
     0
176
     1
290
     0
176
     1
290
     0
176
     1
290
     0
176
     1
 90
       50
176
     1
 40
0.0
176
     1
 40
1.0
176
     1
 90
        0
176
     1
 62
    18
420
        0
176
     1
 90
       50
176
     1
 90
        3
176
     1
 62
     5
420
      255
176
     1
290
     0
176
     1
 90
       50
176
     1
 90
       50
176
     1
 90
       50
176
     1
290
     0
176
     1
 90
       50
176
     1
 62
   256
176
     0
 40
1.0
176
     0
 90
        2
176
     1
  1
strokes_ogs.tif
176
     1
290
     0
176
     1
 40
1.0
176
     1
 40
1.0
176
     1
  0
VISUALSTYLE
  5
F2
102
{ACAD_REACTORS
330
28
102
}
330
28
100
AcDbVisualStyle
  2
EdgeColorOff
 70
    22
177
     3
291
     1
 70
    58
 90
        2
176
     0
 90
        2
176
     0
 90
        0
176
     0
 90
        0
176
     0
 40
0.6
176
     0
 40
30.0
176
     0
 62
     7
176
     0
 90
        1
176
     0
 90
        4
176
     0
 62
     7
176
     0
 62
   257
176
     0
 90
        1
176
     0
 90
        1
176
     0
 40
1.0
176
     0
 90
        8
176
     2
 62
     7
176
     0
 40
1.0
176
     0
 90
        1
176
     0
 90
        6
176
     0
 90
        2
176
     0
 62
     7
176
     0
 90
        5
176
     0
 90
        0
176
     0
 90
        0
176
     0
290
     0
176
     0
 90
        1
176
     0
 40
0.0
176
     0
 90
        0
176
     0
290
     0
176
     1
290
     1
176
     1
290
     1
176
     1
290
     0
176
     1
290
     0
176
     1
290
     0
176
     1
290
     0
176
     1
290
     0
176
     1
290
     0
176
     1
 90
       50
176
     1
 40
0.0
176
     1
 40
1.0
176
     1
 90
        0
176
     1
 62
    18
420
        0
176
     1
 90
       50
176
     1
 90
        3
176
     1
 62
     5
420
      255
176
     1
290
     0
176
     1
 90
       50
176
     1
 90
       50
176
     1
 90
       50
176
     1
290
     0
176
     1
 90
       50
176
     1
 62
   256
176
     0
 40
1.0
176
     0
 90
        2
176
     1
  1
strokes_ogs.tif
176
     1
290
     0
176
     1
 40
1.0
176
     1
 40
1.0
176
     1
  0
VISUALSTYLE
  5
52
102
{ACAD_REACTORS
330
28
102
}
330
28
100
AcDbVisualStyle
  2
Realistic
 70
     8
177
     3
291
     0
 70
    58
 90
        2
176
     1
 90
        2
176
     1
 90
        0
176
     1
 90
        2
176
     1
 40
0.6
176
     1
 40
30.0
176
     1
 62
     7
176
     1
 90
        0
176
     1
 90
        0
176
     1
 62
     7
176
     1
 62
   257
176
     1
 90
        1
176
     1
 90
        1
176
     1
 40
1.0
176
     1
 90
        8
176
     1
 62
   257
176
     1
 40
1.0
176
     1
 90
        1
176
     1
 90
        6
176
     1
 90
        2
176
     1
 62
     7
176
     1
 90
        3
176
     1
 90
        0
176
     1
 90
        0
176
     1
290
     0
176
     1
 90
       13
176
     1
 40
0.0
176
     1
 90
        0
176
     1
290
     0
176
     1
290
     1
176
     1
290
     1
176
     1
290
     0
176
     1
290
     0
176
     1
290
     0
176
     1
290
     0
176
     1
290
     0
176
     1
290
     0
176
     1
 90
       50
176
     1
 40
0.0
176
     1
 40
1.0
176
     1
 90
        0
176
     1
 62
    18
420
        0
176
     1
 90
       50
176
     1
 90
        3
176
     1
 62
     5
420
      255
176
     1
290
     0
176
     1
 90
       50
176
     1
 90
       50
176
     1
 90
       50
176
     1
290
     0
176
     1
 90
       50
176
     1
 62
   256
176
     0
 40
1.0
176
     0
 90
        2
176
     1
  1
strokes_ogs.tif
176
     1
290
     0
176
     1
 40
1.0
176
     1
 40
1.0
176
     1
  0
VISUALSTYLE
  5
53
102
{ACAD_REACTORS
330
28
102
}
330
28
100
AcDbVisualStyle
  2
Wireframe
 70
     5
177
     3
291
     0
 70
    58
 90
        0
176
     1
 90
        2
176
     1
 90
        0
176
     1
 90
        0
176
     1
 40
0.6
176
     1
 40
30.0
176
     1
 62
     7
176
     1
 90
        1
176
     1
 90
        4
176
     1
 62
     7
176
     1
 62
   257
176
     1
 90
        1
176
     1
 90
        1
176
     1
 40
1.0
176
     1
 90
        0
176
     1
 62
   257
176
     1
 40
1.0
176
     1
 90
        1
176
     1
 90
        6
176
     1
 90
        2
176
     1
 62
     7
176
     1
 90
        3
176
     1
 90
        0
176
     1
 90
        0
176
     1
290
     0
176
     1
 90
        1
176
     1
 40
0.0
176
     1
 90
        0
176
     1
290
     0
176
     1
290
     1
176
     1
290
     1
176
     1
290
     0
176
     1
290
     0
176
     1
290
     0
176
     1
290
     0
176
     1
290
     0
176
     1
290
     0
176
     1
 90
       50
176
     1
 40
0.0
176
     1
 40
1.0
176
     1
 90
        0
176
     1
 62
    18
420
        0
176
     1
 90
       50
176
     1
 90
        3
176
     1
 62
     5
420
      255
176
     1
290
     0
176
     1
 90
       50
176
     1
 90
       50
176
     1
 90
       50
176
     1
290
     0
176
     1
 90
       50
176
     1
 62
   256
176
     0
 40
1.0
176
     0
 90
        2
176
     1
  1
strokes_ogs.tif
176
     1
290
     0
176
     1
 40
1.0
176
     1
 40
1.0
176
     1
  0
DICTIONARYVAR
  5
3E
102
{ACAD_REACTORS
330
3D
102
}
330
3D
100
DictionaryVariables
280
     0
  1
1:1
  0
DICTIONARYVAR
  5
3F
102
{ACAD_REACTORS
330
3D
102
}
330
3D
100
DictionaryVariables
280
     0
  1
STANDARD
  0
DICTIONARYVAR
  5
40
102
{ACAD_REACTORS
330
3D
102
}
330
3D
100
DictionaryVariables
280
     0
  1
STANDARD
  0
DICTIONARYVAR
  5
41
102
{ACAD_REACTORS
330
3D
102
}
330
3D
100
DictionaryVariables
280
     0
  1

  0
DICTIONARYVAR
  5
42
102
{ACAD_REACTORS
330
3D
102
}
330
3D
100
DictionaryVariables
280
     0
  1

  0
DICTIONARYVAR
  5
43
102
{ACAD_REACTORS
330
3D
102
}
330
3D
100
DictionaryVariables
280
     0
  1
2
  0
DICTIONARYVAR
  5
44
102
{ACAD_REACTORS
330
3D
102
}
330
3D
100
DictionaryVariables
280
     0
  1
1
  0
DICTIONARYVAR
  5
45
102
{ACAD_REACTORS
330
3D
102
}
330
3D
100
DictionaryVariables
280
     0
  1
BYLAYER
  0
DICTIONARYVAR
  5
46
102
{ACAD_REACTORS
330
3D
102
}
330
3D
100
DictionaryVariables
280
     0
  1
ByLayer
  0
DICTIONARYVAR
  5
47
102
{ACAD_REACTORS
330
3D
102
}
330
3D
100
DictionaryVariables
280
     0
  1
0
  0
DICTIONARYVAR
  5
48
102
{ACAD_REACTORS
330
3D
102
}
330
3D
100
DictionaryVariables
280
     0
  1
0.000000
  0
DICTIONARYVAR
  5
49
102
{ACAD_REACTORS
330
3D
102
}
330
3D
100
DictionaryVariables
280
     0
  1
0
  0
DICTIONARYVAR
  5
4A
102
{ACAD_REACTORS
330
3D
102
}
330
3D
100
DictionaryVariables
280
     0
  1
0
  0
DICTIONARYVAR
  5
4B
102
{ACAD_REACTORS
330
3D
102
}
330
3D
100
DictionaryVariables
280
     0
  1
2
  0
DICTIONARYVAR
  5
4C
102
{ACAD_REACTORS
330
3D
102
}
330
3D
100
DictionaryVariables
280
     0
  1
0.000000
  0
DICTIONARYVAR
  5
4D
102
{ACAD_REACTORS
330
3D
102
}
330
3D
100
DictionaryVariables
280
     0
  1
1
  0
DICTIONARYVAR
  5
4E
102
{ACAD_REACTORS
330
3D
102
}
330
3D
100
DictionaryVariables
280
     0
  1
1
  0
DICTIONARYVAR
  5
4F
102
{ACAD_REACTORS
330
3D
102
}
330
3D
100
DictionaryVariables
280
     0
  1
127
  0
DICTIONARY
  5
37
330
36
100
AcDbDictionary
280
     1
281
     1
  3
FBXASSET
360
38
  0
DICTIONARY
  5
34
330
33
100
AcDbDictionary
280
     1
281
     1
  3
FBXASSET
360
35
  0
DICTIONARY
  5
D
330
B
100
AcDbDictionary
280
     1
281
     1
  3
FBXASSET
360
E
  0
DICTIONARY
  5
17B
330
51
100
AcDbDictionary
280
     1
281
     1
  3
ACAD_ROUNDTRIP_2008_TABLESTYLE_CELLSTYLEMAP
360
17C
  0
XRECORD
  5
38
102
{ACAD_REACTORS
330
37
102
}
330
37
100
AcDbXrecord
280
     1
 70
     1
 90
429727718
  1
D62C5603-E3A1-4AEA-B7FB-FE5D8D0755AF
310
504B03040A0000080000CC70623B3DEE336E79000000790000001B0000006175746F6465736B2D64657369676E2D7061636B6167652E786D6C3C3F786D6C2076657273696F6E3D22312E302220656E636F64696E673D227574662D3822203F3E3C666F726D6174733E3C666F726D61743E687474703A2F2F736368656D612E
310
6175746F6465736B2E636F6D2F64657369676E2D7061636B6167652F323030393C2F666F726D61743E3C2F666F726D6174733E504B0304140006080800CC70623BD486FD9CA0000000F4000000130000005B436F6E74656E745F54797065735D2E786D6C7D8EC10E82300C865F65E91D8A1E8C310C0EEA1BF002731658846E
310
D98AC1B77784ABF1D8FE5FBFBF75BBCE937A534CCEB38643598122B6FEE978D0B0485F9C41B54DDD7D022595594E1A469170414C76A4D9A4D207E29CF43ECE46F218070CC6BECC4078ACAA135ACF422C856C0E68EA1BF5669944DDD7BCDE7B1F8E415D77AECB980613C2E4AC91FC167A2B244592486606FC29C8FD7F045B9A
310
EF7053A7E60B504B0304140006080800CC70623B853B8169EB0000007C01000008000000636F72652E786D6C8D90416EC3201045AF62CDB6C206821CC7C244919D9CA01740401C94182C03558F5F9C3852BBEB6A467FFE9B197D7EFC9E1EC5975982F5AE035262288C535E5B377690E21535501C055FBC8FBF6C503839990E
310
5619041F179FE64D52DE45E362569DD7661365082642A11EB9E920A89B99642953CC8E702F67A9EE7234257977194EC9EAE275C4EABCCF5EAD5940D4AC6F0E35A568B8F43562CD7046CD199FD07E60174276A7BE677B5EADB0E0D14EEFFB6A31321A0D82627C4084204C3F096B71DD52F6819B16635EADF63F509AF53FA164
310
5DDCD1EDDD17164090FCC8732078B56691CB33A85CD7DCC40F504B0304140006080800CC70623B55019EA25F0000007C00000007000000636E782E786D6C4DCB3B0E80201045D1AD90E915ED2CF8AC45050C11660C8261F98AB1B07AC9C97D42D718D865D3E909258CFD00CCE24AC6E326A164D74DC0B4128928FF32603847
310
2BA13128B1252AC747C6BAB984FC68F0B87FE8960A5C09FE86CFB69FBA01504B0304140006080800CC70623BDBABAAF470010000D40300000C0000006662782F636F72652E786D6CC553D16E823014FD95A6AF4B694182CC941A83FA05FB810A9511A125A5257EFE2E82712ECEB8A7F100CD39F7F69E734AF9FADC366850B6
310
AF8DCE7018308C942E4C59EB2AC3DE1D498AD15A706B8CFB56869196ADCAF00863C12B6B7C374385D14E6907A836A59A41D9F7CA615434B0C8705F7CAA5606D23BA8E84F41278B93AC54100640439DE0BDB320004D43C63716C7C399D30917DCFBBA9CD9BA8469F5B156168B24CED3F7248AC8769F27244EB73B92EED8862C
310
B7F13E0C179B3C8F979C8ECD82BBBABDAA2BAC924E9558448CBD9330242CFA08E3154B5651FCC6D215639C8EE5774DBE2B5F6CF2B5768B68963BB5F5588420E442FC700B1139D4CB01F450C1E918227C2E09DF070D8140C84E1E9AAB8F1340832A9CB13130A5F1376A908D57309505ECF2A0DF179C4E9D30F5B239B87E3823
310
7A79C6F31DE1A8A5AEC08474B03C7837EAE4938639B44E5932B833D2C6B6B279CDC613877FA26EE21F4A2A4C63EC7F29A2F301D1F9F7A0E37D145F504B0304140006080800CC70623B9C113CC27E0000009D0000000B0000006662782F636E782E786D6C4DCCDF0A83201C86E15B91DFB94BFB330DD428C8FB886521330DA7
310
6397BF1A1DECE883878F57749FCDA1B7892F1BBC047A23808C7F84D9FA55424E0BE6803A256208E9EF06C84F9B91703228B1C690F78B66B34CD9A5439DF5CF0BFBF65E35BCA1B8D6A5C6F540381E886698B5741C695F9503EBA150A2F8958E3DC3EA0B504B0304140006080800CC70623B7DF2F77C2A010000120200003100
310
00006662782F41393633353835312D344632462D344230382D423046372D3739314545314133324237412F636F72652E786D6C8D51DB8EC22014FC15C2939B0D2DB4B45643319AE817EC0F6041255A68B86CFCFC856D4D76DF7CE190393373060EDB3DC707F856CE6B6B7A480A0C81328395DA5C7B18C3057510EC3873D686
310
3F34088C18550F330C39BB3A1BA7051AAC09CA84841A2BD5020AEF55806078A44B0FFD7053A328440C89E1EFC52486BBB8AA8214A99D789CF9E05200300FC927E4FB4D5B375D43103D5527440FB843077C5AA3F5861C8F645F5787F59E95B390B318B55CE45AA638FAA2957BD7248B390B7A7CC51F9C124149C82B8C378810
310
84AB2F42B7B8DD56F413775B8C5999E9FF4471926F8AA236A1AE96B8B3CC434E5839373893369E1FAF30EA395917409EB7F26AF8801C171837A4A6AC9C89E9F9C9B1A58BA30FD6A5EF5DDDCF894B9AD9B6A59C957943A9FCAE2FD5BC4DFE03504B0304140006080800CC70623BAD7543B64E01000033030000300000006662
310
782F41393633353835312D344632462D344230382D423046372D3739314545314133324237412F636E782E786D6CD593CD6EC32010845F0571AD6CE3D48AD20813A9873E410FBD12D82434182C7EAAE6EDBB2424CD25871E7B41D6EC30B3FA84F9E67BB2E40B4234DE8DB46F1925E094D7C6ED479AD3AE5951B2113C789FEE
310
6C943839C1488B4C05DF079FE72A69D8C96C13AAD6B8631503449F83828872B949AC57D26200B826A308D316B4064D6E46FCDA41C05550DC9E483A00797BFD207EFB092A45DE9514C1BBD22178396BD39D891265658C238DEA00936C654E5E433CB65A26D9F6EDB5EBC14EBF49A45CB856E66048291F6939A9A81BB5C89177
310
38143CA680F4AA299D66A042CEB3354A2684DC9D8D178FE0D9B8B41CAAD720F880EE7EF93C0C18769E099ECC04D5A102C8049A8A05632F4DDF376CF1DE0F6BB65C2F8627B65A33C6BB62177CEBBDAD973006829F89F22E814B54F4BC2BE347F8AA8F681390B50FA73F804400B5F542E796F19FF974E7F78DB802FE05E20750
310
4B0304140006080800CC70623BE75B7789680500003C100000340000006662782F41393633353835312D344632462D344230382D423046372D3739314545314133324237412F6F626A656374732E786D6CAD575B8F9B3818FD2B887D06C22499CB8AA1CA655245D5B455A356FB305264C061D8018C6C3393D95FBFC7600890
310
A4CD5EF210B0B1BFEBF98E3F7B1FF6596ABC522E1296DF9BAE3D320D9A872C4AF2F8DE2CE5CEBA358D0FBEC719939D65A691938CDE9B6ADAF4BD98B3B2D05311DD91329583D9D5FC0F438434A7A611A644887B5384CF34233629258BA878B12322891DEFF6B66BD70BFB62634E8AE781D082709A4B588AF91C528CDA28B73F
310
1C998EEF39EABBEFA97FBD6A7C7E9553F9D3D79FE442923C3C523610337627CB87ABE99D359D4CC6D6E4FACAB5E6ABF9D2726FC6A3C5F56271377BB88362213924694B38DD99FE47C48627A1E7D49F5A8BB5E1A74C0A599ED3B0F21F1E56366B89112D681E218F0915D0D6F17AD41FBA2A369DCF6335D62ABBD39779D5DDD1
310
11D4D8DE3CBB96B2E04FB8202E41051754A1AA8E8F76B4C6DFE810B580B1547F4B84911149794252234D024EF8BBE963A95AE27B3D310A9D5C215C7960FAEE415ED75694C6AFB17BCACA5D99A60A9AA65F217B0BFC53292ACB92BF283FAD0D3621576592CB5BED907C2FA8E9DF794E35E97BEA31BED21FEB401ABB94C44839
310
DCACBF0E1C5DA8DA5B2F4DFFD32AD86F543D9E565E7056502E157C00AD2671CD534549AB752FCA9CDA00677A313F04E51B22FF19E57B300579E3C97EB29F682D92935CEC18CF901B7B54FD8C51F362B56FC72FE0B3C1EAE335EDCCBF5AEC39ADB17DC238973F804BA5E6F6BFE7AF1FB32E523BE9F3BD571418E3631DCA4D48
310
5250CF639223210A9446CA30052EDF057BD35F8329C1ECD84552BF0DC8D18BE7BCE23BFE6BD960AB4A7DE79923A103BEBD80F911CBAA2C60DB19B01CF164A5583B772EE6D3FFA56666CBCDA74DC97724A48F9A58967497E489C4D979006FD7A05E227A1EBDD0F737C623387A9C844D3709995625106D157315F8B8392CD4E0
310
A0B9A720C4BE9829CEF37EA1E13111214D53925356365ADA634861B52519DD27A00AEB808EAF0628E6F435519D446F45CF2C9CF5214F0A15B2F6D06B79DA3EE3CBF7F56780D2F4E7EF73A0F5E5B02A38D07DC852C6B7C1FBB6664213E0C39E3EBA7FF4E1AD23EA2829407C85E586727488B751B2DB9502BC7B228A3FD68B6E
310
A65A22397E690AA8D158D7E404EC8CDA235CC3B7D1898680131CEC2CDF2638C65196279577750F15884AEE19F94199155B92B13297978469D4F8D358DF0AEF7631E28DC8F0D9F437D5D39A83B2231A1D52D543813A824EF8D44BCFF2FA6A31BD1E8DAD87F1CCB526B3879935BF59CDADD5C37479BB1CDD4CA7B3556B516589
310
EF352754B706114D9C885EC9131DE6EFEB43D99AFE2391C2F958179413D7CFEF6B1B6DB1E7600F00DE6E5C67454A339A4BA2E0FBA85ED26F045D454F463DBFCE484C2F90F2E5E3666003662ED8F755951A7D1BECD5B30B550B2785C8E7320B7292A4838DDA71BBC863ED7613CAF659337A3354231D4FF4A182A54904C2898C
310
98B28C4AD0CE056CCF332A80986E571EE9DBC305BB5FEB7E509220A58D25CF042D712A806AC0AD0C657FDEF80D2D9CEAA2EE4D1C76F60BFE74219A06527D6F82DF6412526107381E55E353090704D085B52408A8913C4ED159D79BDA71BB4BC506F4831350EB6F975CD22D69BF7AC49B91A2C0A9DDA3D5CA36AD20FC478E37
310
E61844E2352865EBCB61A275A65283CAAA9DD27703B4102F5AF51EF5F573B75CBB5AD38BC845F7A49F82A0966A49C2E3EA5EA0ECD326CD965F1DB402C6FA8B51A4658C5C5E2EC9E214602E55810345408596591009A82E7E7FFACA19EEA299B14A0081A705CB3296EBC14CDF658DCD336EA6D1136881AAEB87B81AB9EE53D5
310
F5EB8BC8362082DA24122F98680A4E7930C01A0079749CEA14382A0783E5EBA5A10F8C098456A03D6A4AEB6BB881E2513747552A5DB22C7EDAF83BD5528081A365F7FF06504B0304140006080000CC70623B000000000000000000000000350000006662782F41393633353835312D344632462D344230382D423046372D37
310
39314545314133324237412F76657274696365732E62696E504B0304140006080800CC70623BF270F1330600000004000000360000006662782F41393633353835312D344632462D344230382D423046372D3739314545314133324237412F747269616E676C65732E62696E636660600000504B0304140006080000CC7062
310
3B000000000000000000000000370000006662782F41393633353835312D344632462D344230382D423046372D3739314545314133324237412F617474726962757465732E62696E504B0304140006080800CC70623B08DA0BD19000000041010000360000006662782F41393633353835312D344632462D344230382D4230
310
46372D3739314545314133324237412F6469726563746F72792E786D6C858F410AC3201045AF22B36F53E9A60B35CBEEBAE80D244E44489C6234F4F835464A48035D0DF398FF9F8AF63D0E6CC63039F212F8F9020C7D47C6792B21C5FE7403D62A1188E2E60C98D7234A5830286103A55745067B9D86B8A3CF9C7F90C11DE6
310
07FB144396D7B6A82D282E9A152AD114D5EF2CB866EEE831B8EEA07A7BB5A8D7D61A2BAAEB7FD5F70921FF497D00504B0304140006080800CC70623BEDD1DC58FD000000A00100003B0000006662782F41393633353835312D344632462D344230382D423046372D3739314545314133324237412F7265736F75726365732F
310
636F72652E786D6C8D504B6E833010BD0A9A6D65B00922041947112427E8052C33A156828DFCA97AFC9A40A576D7CDCCE87D344F8F9FBFE667F689CE6B6B3A6039850C8DB2A336530731DC4903D95970676DF82583CCC8193B5861107C72362E3BA4AC096842428D1D7107A5F7182053CF7474E0D507CE32973124857FE48B
310
540F3961CEF244279DE03EB81420DB9EAC1384436FA353E879B1B182C7A8C75DA3C7F453DF353A1075D537A7BA6464B8F535A99AE14A9A2BBD90E350DD183B5CFABE3AF262350B1EF4FC9351399401471025A527C218A1E53BAB5A5AB765F5469B96525EACF23FA6B88CFF34456DC2A1DCE36E360F82A5202F42F062ED2BAD
310
579969AFDD8A6F504B010214000A0000080000CC70623B3DEE336E79000000790000001B00000000000000000000000000000000006175746F6465736B2D64657369676E2D7061636B6167652E786D6C504B01021400140006080800CC70623BD486FD9CA0000000F40000001300000000000000000000000000B20000005B
310
436F6E74656E745F54797065735D2E786D6C504B01021400140006080800CC70623B853B8169EB0000007C010000080000000000000000000000000083010000636F72652E786D6C504B01021400140006080800CC70623B55019EA25F0000007C000000070000000000000000000000000094020000636E782E786D6C504B
310
01021400140006080800CC70623BDBABAAF470010000D40300000C00000000000000000000000000180300006662782F636F72652E786D6C504B01021400140006080800CC70623B9C113CC27E0000009D0000000B00000000000000000000000000B20400006662782F636E782E786D6C504B01021400140006080800CC70
310
623B7DF2F77C2A010000120200003100000000000000000000000000590500006662782F41393633353835312D344632462D344230382D423046372D3739314545314133324237412F636F72652E786D6C504B01021400140006080800CC70623BAD7543B64E010000330300003000000000000000000000000000D2060000
310
6662782F41393633353835312D344632462D344230382D423046372D3739314545314133324237412F636E782E786D6C504B01021400140006080800CC70623BE75B7789680500003C10000034000000000000000000000000006E0800006662782F41393633353835312D344632462D344230382D423046372D3739314545
310
314133324237412F6F626A656374732E786D6C504B01021400140006080000CC70623B0000000000000000000000003500000000000000000000000000280E00006662782F41393633353835312D344632462D344230382D423046372D3739314545314133324237412F76657274696365732E62696E504B01021400140006
310
080800CC70623BF270F133060000000400000036000000000000000000000000007B0E00006662782F41393633353835312D344632462D344230382D423046372D3739314545314133324237412F747269616E676C65732E62696E504B01021400140006080000CC70623B0000000000000000000000003700000000000000
310
000000000000D50E00006662782F41393633353835312D344632462D344230382D423046372D3739314545314133324237412F617474726962757465732E62696E504B01021400140006080800CC70623B08DA0BD1900000004101000036000000000000000000000000002A0F00006662782F41393633353835312D344632
310
462D344230382D423046372D3739314545314133324237412F6469726563746F72792E786D6C504B01021400140006080800CC70623BEDD1DC58FD000000A00100003B000000000000000000000000000E1000006662782F41393633353835312D344632462D344230382D423046372D3739314545314133324237412F7265
310
736F75726365732F636F72652E786D6C504B0506000000000E000E0080040000641100000000
  0
XRECORD
  5
35
102
{ACAD_REACTORS
330
34
102
}
330
34
100
AcDbXrecord
280
     1
 70
     1
 90
429727718
  1
30362254-06B7-45E0-A893-8CFA70E3D6BC
310
504B03040A0000080000CC70623B3DEE336E79000000790000001B0000006175746F6465736B2D64657369676E2D7061636B6167652E786D6C3C3F786D6C2076657273696F6E3D22312E302220656E636F64696E673D227574662D3822203F3E3C666F726D6174733E3C666F726D61743E687474703A2F2F736368656D612E
310
6175746F6465736B2E636F6D2F64657369676E2D7061636B6167652F323030393C2F666F726D61743E3C2F666F726D6174733E504B0304140006080800CC70623BD486FD9CA0000000F4000000130000005B436F6E74656E745F54797065735D2E786D6C7D8EC10E82300C865F65E91D8A1E8C310C0EEA1BF002731658846E
310
D98AC1B77784ABF1D8FE5FBFBF75BBCE937A534CCEB38643598122B6FEE978D0B0485F9C41B54DDD7D022595594E1A469170414C76A4D9A4D207E29CF43ECE46F218070CC6BECC4078ACAA135ACF422C856C0E68EA1BF5669944DDD7BCDE7B1F8E415D77AECB980613C2E4AC91FC167A2B244592486606FC29C8FD7F045B9A
310
EF7053A7E60B504B0304140006080800CC70623B1EC5D7A3EB0000007C01000008000000636F72652E786D6C8D90416EC3201045AF82665B6103C6756C6122AB4D4ED00B204C5C94182C03558F5F9C3852BBEB6A467FFE9B197D71FC9E6FE8CBACC17AD7032D0820E3B41FAD9B7A48F1820F808E52ACDEC75F36404ECDA687
310
4D0629A6D5A76597B477D1B89855E747B38B2A041301E95B6E7A08FAD3CCAA50296647B8168BD2573599823EBB0CA76447F43862C7BCCF5EAC59410E4DDD9C7973C2755553CCCFA4C603E3040F1565ED3B1FDE4E432BCA0D9622DAF9795FAF464533826484B498524CD807E51D79ED187F21878E10516EF63F505AC67F42C9
310
BA58B1FDDD071640D2FCC87D2045B96591CB3DA85CB7DCE40F504B0304140006080800CC70623B55019EA25F0000007C00000007000000636E782E786D6C4DCB3B0E80201045D1AD90E915ED2CF8AC45050C11660C8261F98AB1B07AC9C97D42D718D865D3E909258CFD00CCE24AC6E326A164D74DC0B4128928FF32603847
310
2BA13128B1252AC747C6BAB984FC68F0B87FE8960A5C09FE86CFB69FBA01504B0304140006080800CC70623B8C9102E971010000D40300000C0000006662782F636F72652E786D6CC5535B6E833010BC8AE5DF0A6C08340F1947A84D4ED00B38C6A128602363A31CBFCB234A53A551FA553EC09AD9F5CE8C31DB9E9B1AF5CA
310
7695D1198E428A91D2D214952E33ECDD315861B4E5CC1AE3BE9561A445A3323CC098B3D21ADFCE9034DA29ED00D5A6503328BA4E398C640D8B0C77F253352214DE4145770A5B214FA2546114020D759C75CE8200340D19DE981F0F6746269C33EFAB6266AB02A655C74A59CCF365BADC27CB5D902ED22848F6340DF238A141
310
BE88E2F57B92BFEDF23523433367AE6A2EEAA455C2A902F398D2751045018D3FA264435F3771F242571B4A1919CA6F9A7C5B3CD9E42BED16F12C776AEB308F40C848FC700B1139D4891EF410CEC810227CC6846F8386402064270EF5C5C709A05E49676C024C61FC95EA45ED154CA5211D1FF4FB8291A913A68E9B83EBBB33
310
E2A7673CDE118E5AE8124C0807CB8377834E366998436B950D7A7746DAD846D4CFD978E0F04FD455FC5D49D2D4C6FE9722321F10997F0F32DC47FE05504B0304140006080800CC70623BFFEA85907E0000009D0000000B0000006662782F636E782E786D6C4DCCD10A83201886E15B91FFDC95D95A811AB6F23E625948A6C3
310
E9D8E5AF46073BFAE0E1E365ED67B3E8ADC3CB78C7815C7240DA3DFC64DCC221C519D7805AC182F7F1EF06C88D9BE6703008B6049F9E274D7A1E938DBB5AE3D6131B2589BA0D3D965551E0B2EA732C9B9A624AAEB41E3A557677029960D9AFB4EF11165F504B0304140006080800CC70623B4FEEA4082C0100001202000031
310
0000006662782F39464131463745442D413632322D343644302D413938332D3331353338454246344243312F636F72652E786D6C8D515B6EC32010BC0AE2AB55850DD871ED0813254D72825EC00192A2C460F1A872FC42ED48ED5F7E00CDCECCCEB26C731F6FE05B39AFADE921293004CA082BB5B9F43086336A21D870E6AC
310
0D7F68109861543DCC30E4ECE26C9C164858139409093556AA051CBC570102714B8F1E7AF1A5C6A11862480C7F2DA6415C878B2A4891CA89C7990F2E050073937C42DE1DB7E4F87ED8A36D4329AA9B3D46DBAEAD504556557BD81DEBDD0761E52CE42C462D17B996298E3E6BE59E35C962CE821E1FF18553435012728A7187
310
0841987E927A8D9B35ADDF70BBC6989599FE4F1427F9A4286A132ABAC49D651EF234CD5CE04CDA78BA3DC2A8FB645D00B9DF8B57E215725C60BCA2A463E54C4CE327C7A65E1C7DB02E7DEFCBF594B864C5CA6CDBD49C957943E9FA5D5FBAF336F90F504B0304140006080800CC70623BAD7543B64E01000033030000300000
310
006662782F39464131463745442D413632322D343644302D413938332D3331353338454246344243312F636E782E786D6CD593CD6EC32010845F0571AD6CE3D48AD20813A9873E410FBD12D82434182C7EAAE6EDBB2424CD25871E7B41D6EC30B3FA84F9E67BB2E40B4234DE8DB46F1925E094D7C6ED479AD3AE5951B2113C
310
789FEE6C943839C1488B4C05DF079FE72A69D8C96C13AAD6B8631503449F83828872B949AC57D26200B826A308D316B4064D6E46FCDA41C05550DC9E483A00797BFD207EFB092A45DE9514C1BBD22178396BD39D891265658C238DEA00936C654E5E433CB65A26D9F6EDB5EBC14EBF49A45CB856E66048291F6939A9A81BB5
310
C8917738143CA680F4AA299D66A042CEB3354A2684DC9D8D178FE0D9B8B41CAAD720F880EE7EF93C0C18769E099ECC04D5A102C8049A8A05632F4DDF376CF1DE0F6BB65C2F8627B65A33C6BB62177CEBBDAD973006829F89F22E814B54F4BC2BE347F8AA8F681390B50FA73F804400B5F542E796F19FF974E7F78DB802FE05
310
E207504B0304140006080800CC70623B16AB87BA640500003C100000340000006662782F39464131463745442D413632322D343644302D413938332D3331353338454246344243312F6F626A656374732E786D6CAD575B6FA33818FD2B887DE6924B3BED8A326A92B68A663B534DD4D13E548A0C38942D60649B369D5FBFC7
310
600890A493BDE42160637FD7F31D7FF63E6FB3D478A55C242CBF3247B66B1A340F5994E4F19559CA8D75611A9F7D8F33263BCB4C232719BD32D5B4E97B316765A1A722BA21652A07B3B7B33F0D11D29C9A46981221AE4C113ED38CD8A4942CA2E2C58E882476BCD9DA23BB5ED8171B73523C0F841684D35CC252CCE79062D4
310
468DFA43D7747CCF51DF7D4FFDEB5593E3AB9CCA9FBEFE241792E4E19EB28198C968BAB8199F5D5A67D3E9C49A9E8F47D6EC76B6B0469F26EEFC7C3EBFBCBEB98462213924694B38DD98FE1D62C393D073EA4FADC5DAF04326852CCF6958F90F0F2B9BB5C48816348F90C7840A68EB78EDF68723159BCEE7891A6B95DDE9D3
310
BCEAEEE8086A6C6F9E5D4B59F0175C10A7A0820BAA5055C7473B5AE3CFDD452D602CD5DF12616444529E90D448938013FE6EFA58AA96F85E4F8C42275708571E98FE6827AF6B2B4AE3D7D83D64E5A64C53054DD3AF90BD06FEA9149565C94FCA0F6B834DC85599E4F2423B24DF0B6AFA979E534DFA9E7A4CC6FA631D486393
310
921829879BF5D781A373557BCB85E97FB90DB62B558F8795179C15944B051F40AB495CF35451D26A4727654E6D8033BD98EF82F21D91FF8AF2DD9982BCF1643BDD4EB516C9492E368C67C88DED563FC36D5EACF66DFF057C3658BDBFA69DF9578B3DA735B64F18C7F20770A9D45CFCF7FCF563D6456A277DBEF78A02637CA2
310
43B90A490AEAB94F72244481D24819A6C0E59B606BFA4B3025981DBB48EAB701D97BF19C577CC77F2D1B6C55A9EF3C732474C0B727303F625995056C3B02963D9EAC146BE78EC5FCEC7FA999EBC5EACBAAE41B12D27B4D2C0BBA49F244E2ECDC81B76B502F113D8F5EE8FB1BE3111CDD4FC2AA9B844CAB1288B68AB90A7CDC
310
1C166AB0D3DC5310625FCC14E779BFD0709F8890A629C9292B1B2DED31A4B0DA928CEE135085754027E3018A397D4D5427D15BD1330B677DC8934285AC3DF45A9EB68FF8F2B8FC0A509AFEECFD0FF2DE25CC6047F7214B195F07EFEB9A094D800F7BFAE8FED187B78EA8A3A400F115961BCAD1215E47C966530AF0EE8128FE
310
58CEBB996A8964FFA529A046635D9353B0336A8F700DDF46271A024E70B0B37C9DE01847591E54DED53D54202AB947E4076556AC49C6CA5C9E1226B7F1A7B1BE15DEED62C41B91E1B3E9AFAAA735036547343A925075041DF0A9979E893B391F8FCFA6967B3EFB644DCF6E5CEBFAE272625DCC6FAF3FB93793C5F90CE1EF57
310
407342756B10D1C489E8953CD1617E5CEECAD6F4EF8914CE5D5D504E5C3F1F9736DA62CFC11E00BCDDB8CC8A9466349744C1F75EBDA4DF09BA8A9E8C7A7E9991989E20E5DBDD6A6003664ED8F7A04A8DBE0DF6EAD9B9AA858342E47399053949D2C146EDB85DE4B176BB0965FBAC19BD19AA918E27FA50C1D22402E144464C
310
59462568E704B6E71915404CB72B8FF4EDE184DDAF753F284990D2C6926782963815403548A70C657FDEF80D2D9CEAA2AE4C1C76F60BFE74219A06527D6582DF6412526107381E55E353090704D085B52408D0933C4ED159D79BDA71BB4BC506F4831350EB6F979CD22D69BF7AC49B91A2C0A9DDA3D5CA36AD20FC478E37E6
310
1844E2352865EBCB6EA275A652E3836BE04EFB400BF1A2556F515F1FBB35B2AB35BD889C744FFA1004B5544B121E57F70215746DD2F5E2C1412B602CBF19455AC6C8E5E9922C4E01E65215385004546899059180EAFCF7A707CE7017CD8CDB0410789AB32C63B91E5CEBBBACB17AC6CD347A022D5075FD106377347AAABA7E
310
7D11590744509B44E205134DC1290F06580320F78E537D3D73540E06CB970B431F185308AD40BBD794D6D77003C5A36E8EAA54BA64597CD8F83BD552A080A365F7FF06504B0304140006080000CC70623B000000000000000000000000350000006662782F39464131463745442D413632322D343644302D413938332D3331
310
353338454246344243312F76657274696365732E62696E504B0304140006080800CC70623BF270F1330600000004000000360000006662782F39464131463745442D413632322D343644302D413938332D3331353338454246344243312F747269616E676C65732E62696E636660600000504B0304140006080000CC70623B
310
000000000000000000000000370000006662782F39464131463745442D413632322D343644302D413938332D3331353338454246344243312F617474726962757465732E62696E504B0304140006080800CC70623B08DA0BD19000000041010000360000006662782F39464131463745442D413632322D343644302D413938
310
332D3331353338454246344243312F6469726563746F72792E786D6C858F410AC3201045AF22B36F53E9A60B35CBEEBAE80D244E44489C6234F4F835464A48035D0DF398FF9F8AF63D0E6CC63039F212F8F9020C7D47C6792B21C5FE7403D62A1188E2E60C98D7234A5830286103A55745067B9D86B8A3CF9C7F90C11DE607
310
FB144396D7B6A82D282E9A152AD114D5EF2CB866EEE831B8EEA07A7BB5A8D7D61A2BAAEB7FD5F70921FF497D00504B0304140006080800CC70623B0D6EF93BFE000000A00100003B0000006662782F39464131463745442D413632322D343644302D413938332D3331353338454246344243312F7265736F75726365732F63
310
6F72652E786D6C8D50596E833010BD0A9ADFCA60B334011947A8694ED00B586642AC041B79A97AFC9A40A5F6AF3F33A3B7689E1E3F7DCD8FEC139DD7D6F4C0720A191A65476DA61E62B892236427C19DB5E1970C322367EC618541F0C9D9B8EC90B226A009093576C41D94DE63804C3DD2D18357379C652E63480A7FCF17A9
310
EE72C29CE5894E3AC17D702940B63D59270887DE46A7D0F36263058F518FBB468FE9A7BE6A7420864373B8D4873369AA8691FA421B3294352543C5CAF65C0F6FEF43CB8BD52C78D0F34F46E550061C419494B6843142CB0F5677F4B52BEB177AEC28E5C52AFF638ACBF84F53D42654E51E77B379102C05791282176B5F693D
310
CB4C7BED567C03504B010214000A0000080000CC70623B3DEE336E79000000790000001B00000000000000000000000000000000006175746F6465736B2D64657369676E2D7061636B6167652E786D6C504B01021400140006080800CC70623BD486FD9CA0000000F40000001300000000000000000000000000B20000005B
310
436F6E74656E745F54797065735D2E786D6C504B01021400140006080800CC70623B1EC5D7A3EB0000007C010000080000000000000000000000000083010000636F72652E786D6C504B01021400140006080800CC70623B55019EA25F0000007C000000070000000000000000000000000094020000636E782E786D6C504B
310
01021400140006080800CC70623B8C9102E971010000D40300000C00000000000000000000000000180300006662782F636F72652E786D6C504B01021400140006080800CC70623BFFEA85907E0000009D0000000B00000000000000000000000000B30400006662782F636E782E786D6C504B01021400140006080800CC70
310
623B4FEEA4082C0100001202000031000000000000000000000000005A0500006662782F39464131463745442D413632322D343644302D413938332D3331353338454246344243312F636F72652E786D6C504B01021400140006080800CC70623BAD7543B64E010000330300003000000000000000000000000000D5060000
310
6662782F39464131463745442D413632322D343644302D413938332D3331353338454246344243312F636E782E786D6C504B01021400140006080800CC70623B16AB87BA640500003C1000003400000000000000000000000000710800006662782F39464131463745442D413632322D343644302D413938332D3331353338
310
454246344243312F6F626A656374732E786D6C504B01021400140006080000CC70623B0000000000000000000000003500000000000000000000000000270E00006662782F39464131463745442D413632322D343644302D413938332D3331353338454246344243312F76657274696365732E62696E504B01021400140006
310
080800CC70623BF270F133060000000400000036000000000000000000000000007A0E00006662782F39464131463745442D413632322D343644302D413938332D3331353338454246344243312F747269616E676C65732E62696E504B01021400140006080000CC70623B0000000000000000000000003700000000000000
310
000000000000D40E00006662782F39464131463745442D413632322D343644302D413938332D3331353338454246344243312F617474726962757465732E62696E504B01021400140006080800CC70623B08DA0BD190000000410100003600000000000000000000000000290F00006662782F39464131463745442D413632
310
322D343644302D413938332D3331353338454246344243312F6469726563746F72792E786D6C504B01021400140006080800CC70623B0D6EF93BFE000000A00100003B000000000000000000000000000D1000006662782F39464131463745442D413632322D343644302D413938332D3331353338454246344243312F7265
310
736F75726365732F636F72652E786D6C504B0506000000000E000E0080040000641100000000
  0
XRECORD
  5
E
102
{ACAD_REACTORS
330
D
102
}
330
D
100
AcDbXrecord
280
     1
 70
     0
 90
1673772943
  1
ECE7A1D2-D628-4531-984C-D00F80459256
310
504B03040A0000080000CC70623B3DEE336E79000000790000001B0000006175746F6465736B2D64657369676E2D7061636B6167652E786D6C3C3F786D6C2076657273696F6E3D22312E302220656E636F64696E673D227574662D3822203F3E3C666F726D6174733E3C666F726D61743E687474703A2F2F736368656D612E
310
6175746F6465736B2E636F6D2F64657369676E2D7061636B6167652F323030393C2F666F726D61743E3C2F666F726D6174733E504B0304140006080800CC70623BD486FD9CA0000000F4000000130000005B436F6E74656E745F54797065735D2E786D6C7D8EC10E82300C865F65E91D8A1E8C310C0EEA1BF002731658846E
310
D98AC1B77784ABF1D8FE5FBFBF75BBCE937A534CCEB38643598122B6FEE978D0B0485F9C41B54DDD7D022595594E1A469170414C76A4D9A4D207E29CF43ECE46F218070CC6BECC4078ACAA135ACF422C856C0E68EA1BF5669944DDD7BCDE7B1F8E415D77AECB980613C2E4AC91FC167A2B244592486606FC29C8FD7F045B9A
310
EF7053A7E60B504B0304140006080800CC70623BD9DDAED0EC0000007C01000008000000636F72652E786D6C8D90416EC3201045AF82665B61836D9CD8C2444DD39CA01740405C94182C03558F5F9C3852BBEB6A467FFE9B197D7EF89E6EE8CB2CC17A37002D0820E394D7D68D03A478C17B4007C117EFE32F1B20272733C0
310
2A83E0E3E2D3BC49CABB685CCCAAF3DA6CA20CC14440EA969B0182FA34932C648AD911AEC52CD5558EA6A0CF2EC329598D1E47ACCEFBECC59A050463A7EA5833865FEBDD0E37353BE3EE8DBDE3F6786A48D375FBF6CC78B9C282473B3DEFABC5C86834888A900E538A49F5419B9EB47DD5BC907D4F082F57FB1F28CDFA9F50
310
B22ED6D5F6EE030B20687EE43E10BC5CB3C8E51E54AE6B6EE207504B0304140006080800CC70623B55019EA25F0000007C00000007000000636E782E786D6C4DCB3B0E80201045D1AD90E915ED2CF8AC45050C11660C8261F98AB1B07AC9C97D42D718D865D3E909258CFD00CCE24AC6E326A164D74DC0B4128928FF326038
310
472BA13128B1252AC747C6BAB984FC68F0B87FE8960A5C09FE86CFB69FBA01504B0304140006080800CC70623BA24EB22D72010000D40300000C0000006662782F636F72652E786D6CC5535B6E833010BC8AE5DF0A6C5E49888CA3A6694ED00B38E05014B091B1518EDFE511A5A9D228FD2A1F60CDEC7A67C6986DCE4D8D7A
310
69BA4AAB0C073EC548AA5C17952A33ECECD15B61B4E1CC686DBF9561A44423333CC098B3D268D7CE50AE9595CA02AA74216750749DB418E5352C32DCE59FB211BE70162ABA93DF8AFC244AE9073ED050C759670D0840D390E18DF9F1706664C23973AE2A66B62A605A75ACA4C13C4976E1364A12EF355A2EBD384AF65EFA96
310
BC7B8BED2EA6719AAE16FB8491A199335B351775B991C2CA02F390D2D40B028F861F41BCA68B7518BFD0D59A524686F29B26D7164F36B94AD9289CE54E6D1DE6010819891F6E21228B3AD1831EC219194284CF98F06DD01008846CC5A1BEF83801D4CBDC6A1303536877A57A513B0953A94FC707FDBE6064EA84A9E3E6E0FA
310
EE8CF0E9198F7784A316AA0413C2C2F2E0ECA0934D1AE6D05A69BCDE9E91D2A611F573361E38FC1375157F5752AE6B6DFE4B11990F88CCBF0719EE23FF02504B0304140006080800CC70623B408A7D3B7C0000009D0000000B0000006662782F636E782E786D6C4DCCD10A83201886E15B91FFDC552A92A0064DBC8F581632
310
D3703A76F9ABD1C18E3E78F878E5F0D9027ABBFCF2292AE86E2D20171F69F6715550CB827B40839639A5F2770314A7CD293819B45C73AAFB45B35BA61ACAA1C1C7E7855C58C15BC331339661262CC762340413D68D77DA5B42298546CBE6573AF60CEB2F504B0304140006080800CC70623B449FB9BD290100001202000031
310
0000006662782F36394639363044362D344446342D343946362D394244322D3234314243333846323333332F636F72652E786D6C8D515B6EC32010BC0AE22B55850D98B871848994463E412FE002495162B07854397EA176A4F62F3F2C9A9D991D587EB84F37F0AD7D30CEF6905418026DA553C65E7A98E219ED203808EE9D
310
8B7F6810D871D23D2C3014FCE25D9A57483A1BB58D19B54EE9151C43D0110279CB971E06F9A5A7B11A53CC8C70ADE6515EC78BAE4895DB992778883E0700CB907242D17643D7E2538BD869608875438BBAE38922CAC8F1BDD90DB4691A5E2F42C153326A951B95E398B3D1FE599322163C9AE9115F7A3D46ADA0A018778810
310
84E907617BDCEE297BC5BB3DC6BC2EF47FA234AB2745C9D8D8D035EE220B50105E2F0DC1954B9FB747187D9F9D8FA0CCDB042D5FA0C015C65B42DF78BD10F3F3B363CB56C7109DCFDFBBB97E662ED92EB62D13BC2E1BCAE5777DB9966D8A1F504B0304140006080800CC70623BAD7543B64E01000033030000300000006662
310
782F36394639363044362D344446342D343946362D394244322D3234314243333846323333332F636E782E786D6CD593CD6EC32010845F0571AD6CE3D48AD20813A9873E410FBD12D82434182C7EAAE6EDBB2424CD25871E7B41D6EC30B3FA84F9E67BB2E40B4234DE8DB46F1925E094D7C6ED479AD3AE5951B2113C789FEE
310
6C943839C1488B4C05DF079FE72A69D8C96C13AAD6B8631503449F83828872B949AC57D26200B826A308D316B4064D6E46FCDA41C05550DC9E483A00797BFD207EFB092A45DE9514C1BBD22178396BD39D891265658C238DEA00936C654E5E433CB65A26D9F6EDB5EBC14EBF49A45CB856E66048291F6939A9A81BB5C89177
310
38143CA680F4AA299D66A042CEB3354A2684DC9D8D178FE0D9B8B41CAAD720F880EE7EF93C0C18769E099ECC04D5A102C8049A8A05632F4DDF376CF1DE0F6BB65C2F8627B65A33C6BB62177CEBBDAD973006829F89F22E814B54F4BC2BE347F8AA8F681390B50FA73F804400B5F542E796F19FF974E7F78DB802FE05E20750
310
4B0304140006080800CC70623B8D05915C650500003B100000340000006662782F36394639363044362D344446342D343946362D394244322D3234314243333846323333332F6F626A656374732E786D6CAD575B6FA33814FE2B887D06429276DA1565D4266D158D3A339A6846FB502932E050B66023DB74D2FDF5FB190C01
310
9276B2973C046C8ECFF53B17071F77456EBD502133CEAE6CDF9DD81665314F32965ED995DA3A17B6F5310C04E7AA47665B8C14F4CAD6DB7618A48257A5D94AE89654B91AEDDEDDFC61C998326A5B714EA4BCB265FC440BE2924AF184CA6737218AB8E976E7FA6E4338649B0A523E8D98964450A6A029F619B8588D52FE7039
310
B1BD30F0F4F730D0FF866AF6369557DB33949F31A9088B0F848DD8CCFCF9F2767A76E99CCDE733677E3EF59D9BBB9BA5E37F984D16E78BC5E5F5ED25044B25C0C96822E8D60EEFE11B91C581D77CEA34368A1F5329E68CD1B8B61F16D63A1B8E092D294B10C78C4A48EB593D192E7DED9BDEE7995E1B91FDEDD3ACEA9FE831
310
6A756F9F7D4D79F4274C90A7A04248AA51D5F8C718DAE06FB2F75AC4796EBE65D22A88A22223B995679120E2D50E41AA49C260C046A35368846B0BECD0DFF3EBEB8AD4F835768F69B9ADF25C43D30E6B646F807FAA64AD59F61715C7A54127C4AACA98BA3006A9D792DAE165E0D59B61A01FB3A9F9D838D2DAE62445C86166
310
F37564E842E7DE6A69879FEEA2DD5AE7E371E1A5E025154AC307D06A03D73EB5978C58FFA4C8E9033066E0F3BD53BEC1F39F91BE7B55103791EDE6BBB991A2046172CB4581D8B893FA674DDA17A77B3B7C413D1B511FD2743BFF8A38F03A658705E3ADF8015C3A3417FF3D7E439FF591DA0B5F18BC20C1B8981957AE6392A3
310
F43C640C01D1A0B4728E2DD4F26DB4B3C3152A252A3B4E913CEC1C72F012782FF88EFF8637AA552DBEF76408E8A8DE9E50F9E1CB3A2DA0DB1B6039A893B56063DC5B3E3FFB5F72E67AB9FEB4AEC496C4F4C1149625DD662C53E89D7BF0F6151A046260D1337DFDC94502430F83B0EE07A130A224BCAD7DAE1D9FB6CD422FF6
310
920702629C4BB9AE79C12F243C6432A6794E18E5552BA56B431AAB5D91317302B2B071E86C3A42B1A02F999E24061403B5D0EB639195DA655DD3EBEAB4FB862DDF579F014AD0E73C22F99E28DA57FB98E75C6CA2D74D53086D600F4786E0FE3144B771A8A7B900F03594DB8A633CBC49B2EDB69228BB479CF863B5E807AAAB
310
23872F6DFEB4129B949CA33823F58830E86D65621E10047D9DB34D862E8EAC3C2ABC2F7B2C40D67CDFE01F5545B92105AF983AC54D93D69E56FB8E797F88913F898A9FEC705D3F9D1B54EC8426FB500D40A03BD0119B06E1B95DDC7EB8F6975367793EBD70E66733DFB9BC982F9CE564727731999F5D4ECFCE3B8D6A4DC2A0
310
6D50FD148437D110834A64C6CDDF57FBACB5C307A2A477DFE4939736CFEF2B175371E0E10CF0DD1D5C15654E0BCA14D1E87DD02FF93782A162C0A3D95F1524A52770F972BF1EE9809D13CE7DD599467F8ECE9ADD85CE85A34CD45355448C64F9E8A031DC2D596ACC6E5DD93D9B82DE2EF5CAF81363A8E47996A0DE24564A79
310
4115AACE09C55E14540231FDA13C319787134EBF34E3A022514E5B4D9E0826E25C02D5805B15ABE1BEF51B26383D445DD9E875EE33FE4C22DA16427D65A3BCA92CA6D28DD01DF5DC53330704308475351050232CCD31583787BA75774AFB06E5070DD0C8EF484E19968C5D83BA5B90B244D31E54D55A372320FE4786B7EA58
310
44E135AA5467CB7EA333A61683CC6A8C3257034C10CF46F40EF9F5BE59BE5BD30C3C72D235E95D10345C1D45445A5F0BB47E46A5EBE5570F9380B5FA629579952296A773720405982B9DE04011506178964401AA8BDF1FBF0A8EAB6861DD6580C0E38217056766716DAEB2D6FA0917D3E4116581EADB879C4E7CFFB11EFACD
310
3D641311495D92C8676CB409A72D18610D803CE8A626049E8EC1887CB5B44CC39883690DDA8399B4B9855B481E7D71D4A9D22F96E5BB73BF5793020C02137BF837504B0304140006080000CC70623B000000000000000000000000350000006662782F36394639363044362D344446342D343946362D394244322D32343142
310
43333846323333332F76657274696365732E62696E504B0304140006080800CC70623BF270F1330600000004000000360000006662782F36394639363044362D344446342D343946362D394244322D3234314243333846323333332F747269616E676C65732E62696E636660600000504B0304140006080000CC70623B0000
310
00000000000000000000370000006662782F36394639363044362D344446342D343946362D394244322D3234314243333846323333332F617474726962757465732E62696E504B0304140006080800CC70623B08DA0BD19000000041010000360000006662782F36394639363044362D344446342D343946362D394244322D
310
3234314243333846323333332F6469726563746F72792E786D6C858F410AC3201045AF22B36F53E9A60B35CBEEBAE80D244E44489C6234F4F835464A48035D0DF398FF9F8AF63D0E6CC63039F212F8F9020C7D47C6792B21C5FE7403D62A1188E2E60C98D7234A5830286103A55745067B9D86B8A3CF9C7F90C11DE607FB14
310
4396D7B6A82D282E9A152AD114D5EF2CB866EEE831B8EEA07A7BB5A8D7D61A2BAAEB7FD5F70921FF497D00504B0304140006080800CC70623BCA768048FE000000A00100003B0000006662782F36394639363044362D344446342D343946362D394244322D3234314243333846323333332F7265736F75726365732F636F72
310
652E786D6C8D50596E833010BD0A9ADFCA60D600328E9AA639412F609909B1126CE4A5EAF16B0295DABFFECC8CDEA2797AECF8353F924FB44E193D409E5248504B332A3D0D10FC95B4901C39B3C6F85F3248B49871801506CE266BC2B243D2688FDA47549B11775038871E12F988C7004EDE7016A9083E2ADC3D5D84BC8B09
310
D33C8D74D471E6BC8D0192EDC93A815B742658898E651BCB59086ADC356A8C3FD555A1055ED7E7E254D615792D0F075295F585746FF53B694EE78A565DD736979A65AB9933AFE69F8CD2A2F038022F28ED489E135A7CE4554F9BBEA85E68DB53CAB255FEC71496F19FA6A0B42F8B3DEE6673C0F318E4497096AD7DC5F52C33
310
EEB55BFE0D504B010214000A0000080000CC70623B3DEE336E79000000790000001B00000000000000000000000000000000006175746F6465736B2D64657369676E2D7061636B6167652E786D6C504B01021400140006080800CC70623BD486FD9CA0000000F40000001300000000000000000000000000B20000005B436F
310
6E74656E745F54797065735D2E786D6C504B01021400140006080800CC70623BD9DDAED0EC0000007C010000080000000000000000000000000083010000636F72652E786D6C504B01021400140006080800CC70623B55019EA25F0000007C000000070000000000000000000000000095020000636E782E786D6C504B0102
310
1400140006080800CC70623BA24EB22D72010000D40300000C00000000000000000000000000190300006662782F636F72652E786D6C504B01021400140006080800CC70623B408A7D3B7C0000009D0000000B00000000000000000000000000B50400006662782F636E782E786D6C504B01021400140006080800CC70623B
310
449FB9BD290100001202000031000000000000000000000000005A0500006662782F36394639363044362D344446342D343946362D394244322D3234314243333846323333332F636F72652E786D6C504B01021400140006080800CC70623BAD7543B64E010000330300003000000000000000000000000000D20600006662
310
782F36394639363044362D344446342D343946362D394244322D3234314243333846323333332F636E782E786D6C504B01021400140006080800CC70623B8D05915C650500003B10000034000000000000000000000000006E0800006662782F36394639363044362D344446342D343946362D394244322D32343142433338
310
46323333332F6F626A656374732E786D6C504B01021400140006080000CC70623B0000000000000000000000003500000000000000000000000000250E00006662782F36394639363044362D344446342D343946362D394244322D3234314243333846323333332F76657274696365732E62696E504B010214001400060808
310
00CC70623BF270F13306000000040000003600000000000000000000000000780E00006662782F36394639363044362D344446342D343946362D394244322D3234314243333846323333332F747269616E676C65732E62696E504B01021400140006080000CC70623B00000000000000000000000037000000000000000000
310
00000000D20E00006662782F36394639363044362D344446342D343946362D394244322D3234314243333846323333332F617474726962757465732E62696E504B01021400140006080800CC70623B08DA0BD190000000410100003600000000000000000000000000270F00006662782F36394639363044362D344446342D
310
343946362D394244322D3234314243333846323333332F6469726563746F72792E786D6C504B01021400140006080800CC70623BCA768048FE000000A00100003B000000000000000000000000000B1000006662782F36394639363044362D344446342D343946362D394244322D3234314243333846323333332F7265736F
310
75726365732F636F72652E786D6C504B0506000000000E000E0080040000621100000000
  0
CELLSTYLEMAP
  5
17C
102
{ACAD_REACTORS
330
17B
102
}
330
17B
100
AcDbCellStyleMap
 90
        3
300
CELLSTYLE
  1
TABLEFORMAT_BEGIN
 90
        5
170
     1
 91
        0
 92
    32768
 62
   257
 93
        1
300
CONTENTFORMAT
  1
CONTENTFORMAT_BEGIN
 90
        0
 91
        0
 92
      512
 93
        0
300

 40
0.0
140
1.0
 94
        5
 62
     0
340
1E
144
6.0
309
CONTENTFORMAT_END
171
     1
301
MARGIN
  1
CELLMARGIN_BEGIN
 40
1.5
 40
1.5
 40
1.5
 40
1.5
 40
0.18
 40
0.18
309
CELLMARGIN_END
 94
        6
 95
        1
302
GRIDFORMAT
  1
GRIDFORMAT_BEGIN
 90
        0
 91
        1
 62
     0
 92
       -2
340
21
 93
        0
 40
1.125
309
GRIDFORMAT_END
 95
        2
302
GRIDFORMAT
  1
GRIDFORMAT_BEGIN
 90
        0
 91
        1
 62
     0
 92
       -2
340
21
 93
        0
 40
1.125
309
GRIDFORMAT_END
 95
        4
302
GRIDFORMAT
  1
GRIDFORMAT_BEGIN
 90
        0
 91
        1
 62
     0
 92
       -2
340
21
 93
        0
 40
1.125
309
GRIDFORMAT_END
 95
        8
302
GRIDFORMAT
  1
GRIDFORMAT_BEGIN
 90
        0
 91
        1
 62
     0
 92
       -2
340
21
 93
        0
 40
1.125
309
GRIDFORMAT_END
 95
       16
302
GRIDFORMAT
  1
GRIDFORMAT_BEGIN
 90
        0
 91
        1
 62
     0
 92
       -2
340
21
 93
        0
 40
1.125
309
GRIDFORMAT_END
 95
       32
302
GRIDFORMAT
  1
GRIDFORMAT_BEGIN
 90
        0
 91
        1
 62
     0
 92
       -2
340
21
 93
        0
 40
1.125
309
GRIDFORMAT_END
309
TABLEFORMAT_END
  1
CELLSTYLE_BEGIN
 90
        1
 91
        1
300
_TITLE
309
CELLSTYLE_END
300
CELLSTYLE
  1
TABLEFORMAT_BEGIN
 90
        5
170
     1
 91
        0
 92
        0
 62
   257
 93
        1
300
CONTENTFORMAT
  1
CONTENTFORMAT_BEGIN
 90
        0
 91
        0
 92
      512
 93
        0
300

 40
0.0
140
1.0
 94
        5
 62
     0
340
1E
144
4.5
309
CONTENTFORMAT_END
171
     1
301
MARGIN
  1
CELLMARGIN_BEGIN
 40
1.5
 40
1.5
 40
1.5
 40
1.5
 40
0.18
 40
0.18
309
CELLMARGIN_END
 94
        6
 95
        1
302
GRIDFORMAT
  1
GRIDFORMAT_BEGIN
 90
        0
 91
        1
 62
     0
 92
       -2
340
21
 93
        0
 40
1.125
309
GRIDFORMAT_END
 95
        2
302
GRIDFORMAT
  1
GRIDFORMAT_BEGIN
 90
        0
 91
        1
 62
     0
 92
       -2
340
21
 93
        0
 40
1.125
309
GRIDFORMAT_END
 95
        4
302
GRIDFORMAT
  1
GRIDFORMAT_BEGIN
 90
        0
 91
        1
 62
     0
 92
       -2
340
21
 93
        0
 40
1.125
309
GRIDFORMAT_END
 95
        8
302
GRIDFORMAT
  1
GRIDFORMAT_BEGIN
 90
        0
 91
        1
 62
     0
 92
       -2
340
21
 93
        0
 40
1.125
309
GRIDFORMAT_END
 95
       16
302
GRIDFORMAT
  1
GRIDFORMAT_BEGIN
 90
        0
 91
        1
 62
     0
 92
       -2
340
21
 93
        0
 40
1.125
309
GRIDFORMAT_END
 95
       32
302
GRIDFORMAT
  1
GRIDFORMAT_BEGIN
 90
        0
 91
        1
 62
     0
 92
       -2
340
21
 93
        0
 40
1.125
309
GRIDFORMAT_END
309
TABLEFORMAT_END
  1
CELLSTYLE_BEGIN
 90
        2
 91
        1
300
_HEADER
309
CELLSTYLE_END
300
CELLSTYLE
  1
TABLEFORMAT_BEGIN
 90
        5
170
     1
 91
        0
 92
        0
 62
   257
 93
        1
300
CONTENTFORMAT
  1
CONTENTFORMAT_BEGIN
 90
        0
 91
        0
 92
      512
 93
        0
300

 40
0.0
140
1.0
 94
        2
 62
     0
340
1E
144
4.5
309
CONTENTFORMAT_END
171
     1
301
MARGIN
  1
CELLMARGIN_BEGIN
 40
1.5
 40
1.5
 40
1.5
 40
1.5
 40
0.18
 40
0.18
309
CELLMARGIN_END
 94
        6
 95
        1
302
GRIDFORMAT
  1
GRIDFORMAT_BEGIN
 90
        0
 91
        1
 62
     0
 92
       -2
340
21
 93
        0
 40
1.125
309
GRIDFORMAT_END
 95
        2
302
GRIDFORMAT
  1
GRIDFORMAT_BEGIN
 90
        0
 91
        1
 62
     0
 92
       -2
340
21
 93
        0
 40
1.125
309
GRIDFORMAT_END
 95
        4
302
GRIDFORMAT
  1
GRIDFORMAT_BEGIN
 90
        0
 91
        1
 62
     0
 92
       -2
340
21
 93
        0
 40
1.125
309
GRIDFORMAT_END
 95
        8
302
GRIDFORMAT
  1
GRIDFORMAT_BEGIN
 90
        0
 91
        1
 62
     0
 92
       -2
340
21
 93
        0
 40
1.125
309
GRIDFORMAT_END
 95
       16
302
GRIDFORMAT
  1
GRIDFORMAT_BEGIN
 90
        0
 91
        1
 62
     0
 92
       -2
340
21
 93
        0
 40
1.125
309
GRIDFORMAT_END
 95
       32
302
GRIDFORMAT
  1
GRIDFORMAT_BEGIN
 90
        0
 91
        1
 62
     0
 92
       -2
340
21
 93
        0
 40
1.125
309
GRIDFORMAT_END
309
TABLEFORMAT_END
  1
CELLSTYLE_BEGIN
 90
        3
 91
        2
300
_DATA
309
CELLSTYLE_END
  0
ENDSEC
  0
EOF
