  0
SECTION
  2
HEADER
  9
$ACADVER
  1
AC1032
  9
$ACADMAINTVER
 90
      197
  9
$DWGCODEPAGE
  3
ANSI_936
  9
$REQUIREDVERSIONS
160
                 0
  9
$INSBASE
 10
0.0
 20
0.0
 30
0.0
  9
$EXTMIN
 10
-26.58878393957954
 20
-943.210909656365
 30
0.0
  9
$EXTMAX
 10
1642.264384272078
 20
39.06469536688486
 30
0.0
  9
$LIMMIN
 10
0.0
 20
0.0
  9
$LIMMAX
 10
420.0
 20
297.0
  9
$ORTHOMODE
 70
     1
  9
$REGENMODE
 70
     1
  9
$FILLMODE
 70
     1
  9
$QTEXTMODE
 70
     0
  9
$MIRRTEXT
 70
     0
  9
$LTSCALE
 40
0.5
  9
$ATTMODE
 70
     1
  9
$TEXTSIZE
 40
3.0
  9
$TRACEWID
 40
0.05
  9
$TEXTSTYLE
  7
STANDARD
  9
$CLAYER
  8
0
  9
$CELTYPE
  6
ByLayer
  9
$CECOLOR
 62
   256
  9
$CELTSCALE
 40
1.0
  9
$DISPSILH
 70
     0
  9
$DIMSCALE
 40
1.0
  9
$DIMASZ
 40
3.0
  9
$DIMEXO
 40
0.3125
  9
$DIMDLI
 40
2.5
  9
$DIMRND
 40
0.0
  9
$DIMDLE
 40
0.0
  9
$DIMEXE
 40
0.625
  9
$DIMTP
 40
0.0
  9
$DIMTM
 40
0.0
  9
$DIMTXT
 40
3.0
  9
$DIMCEN
 40
1.25
  9
$DIMTSZ
 40
0.0
  9
$DIMTOL
 70
     0
  9
$DIMLIM
 70
     0
  9
$DIMTIH
 70
     1
  9
$DIMTOH
 70
     1
  9
$DIMSE1
 70
     0
  9
$DIMSE2
 70
     0
  9
$DIMTAD
 70
     0
  9
$DIMZIN
 70
     1
  9
$DIMBLK
  1

  9
$DIMASO
 70
     1
  9
$DIMSHO
 70
     1
  9
$DIMPOST
  1

  9
$DIMAPOST
  1

  9
$DIMALT
 70
     0
  9
$DIMALTD
 70
     3
  9
$DIMALTF
 40
0.03937007874016
  9
$DIMLFAC
 40
0.025
  9
$DIMTOFL
 70
     1
  9
$DIMTVP
 40
0.0
  9
$DIMTIX
 70
     0
  9
$DIMSOXD
 70
     0
  9
$DIMSAH
 70
     0
  9
$DIMBLK1
  1

  9
$DIMBLK2
  1

  9
$DIMSTYLE
  2
DIM40
  9
$DIMCLRD
 70
   256
  9
$DIMCLRE
 70
   256
  9
$DIMCLRT
 70
   256
  9
$DIMTFAC
 40
1.0
  9
$DIMGAP
 40
0.4
  9
$DIMJUST
 70
     0
  9
$DIMSD1
 70
     0
  9
$DIMSD2
 70
     0
  9
$DIMTOLJ
 70
     0
  9
$DIMTZIN
 70
     8
  9
$DIMALTZ
 70
     0
  9
$DIMALTTZ
 70
     0
  9
$DIMUPT
 70
     0
  9
$DIMDEC
 70
     3
  9
$DIMTDEC
 70
     3
  9
$DIMALTU
 70
     2
  9
$DIMALTTD
 70
     3
  9
$DIMTXSTY
  7
STANDARD
  9
$DIMAUNIT
 70
     0
  9
$DIMADEC
 70
     0
  9
$DIMALTRND
 40
0.0
  9
$DIMAZIN
 70
     2
  9
$DIMDSEP
 70
    46
  9
$DIMATFIT
 70
     3
  9
$DIMFRAC
 70
     0
  9
$DIMLDRBLK
  1

  9
$DIMLUNIT
 70
     2
  9
$DIMLWD
 70
    -2
  9
$DIMLWE
 70
    -2
  9
$DIMTMOVE
 70
     0
  9
$DIMFXL
 40
1.0
  9
$DIMFXLON
 70
     0
  9
$DIMJOGANG
 40
1.570796326794896
  9
$DIMTFILL
 70
     0
  9
$DIMTFILLCLR
 70
     0
  9
$DIMARCSYM
 70
     1
  9
$DIMLTYPE
  6
ByBlock
  9
$DIMLTEX1
  6
ByBlock
  9
$DIMLTEX2
  6
ByBlock
  9
$DIMTXTDIRECTION
 70
     0
  9
$LUNITS
 70
     2
  9
$LUPREC
 70
     2
  9
$SKETCHINC
 40
0.1
  9
$FILLETRAD
 40
0.0
  9
$AUNITS
 70
     0
  9
$AUPREC
 70
     0
  9
$MENU
  1
.
  9
$ELEVATION
 40
0.0
  9
$PELEVATION
 40
0.0
  9
$THICKNESS
 40
0.0
  9
$LIMCHECK
 70
     0
  9
$CHAMFERA
 40
2.5
  9
$CHAMFERB
 40
2.5
  9
$CHAMFERC
 40
1.0
  9
$CHAMFERD
 40
0.0
  9
$SKPOLY
 70
     0
  9
$TDCREATE
 40
2458097.459699074
  9
$TDUCREATE
 40
2458097.126370151
  9
$TDUPDATE
 40
2458836.522719908
  9
$TDUUPDATE
 40
2458836.189390833
  9
$TDINDWG
 40
41.5864203241
  9
$TDUSRTIMER
 40
41.5863868171
  9
$USRTIMER
 70
     1
  9
$ANGBASE
 50
0.0
  9
$ANGDIR
 70
     0
  9
$PDMODE
 70
     0
  9
$PDSIZE
 40
0.0
  9
$PLINEWID
 40
0.0
  9
$SPLFRAME
 70
     0
  9
$SPLINETYPE
 70
     6
  9
$SPLINESEGS
 70
     8
  9
$HANDSEED
  5
22D
  9
$SURFTAB1
 70
     6
  9
$SURFTAB2
 70
     6
  9
$SURFTYPE
 70
     6
  9
$SURFU
 70
     6
  9
$SURFV
 70
     6
  9
$UCSBASE
  2

  9
$UCSNAME
  2

  9
$UCSORG
 10
0.0
 20
0.0
 30
0.0
  9
$UCSXDIR
 10
1.0
 20
0.0
 30
0.0
  9
$UCSYDIR
 10
0.0
 20
1.0
 30
0.0
  9
$UCSORTHOREF
  2

  9
$UCSORTHOVIEW
 70
     0
  9
$UCSORGTOP
 10
0.0
 20
0.0
 30
0.0
  9
$UCSORGBOTTOM
 10
0.0
 20
0.0
 30
0.0
  9
$UCSORGLEFT
 10
0.0
 20
0.0
 30
0.0
  9
$UCSORGRIGHT
 10
0.0
 20
0.0
 30
0.0
  9
$UCSORGFRONT
 10
0.0
 20
0.0
 30
0.0
  9
$UCSORGBACK
 10
0.0
 20
0.0
 30
0.0
  9
$PUCSBASE
  2

  9
$PUCSNAME
  2

  9
$PUCSORG
 10
0.0
 20
0.0
 30
0.0
  9
$PUCSXDIR
 10
1.0
 20
0.0
 30
0.0
  9
$PUCSYDIR
 10
0.0
 20
1.0
 30
0.0
  9
$PUCSORTHOREF
  2

  9
$PUCSORTHOVIEW
 70
     0
  9
$PUCSORGTOP
 10
0.0
 20
0.0
 30
0.0
  9
$PUCSORGBOTTOM
 10
0.0
 20
0.0
 30
0.0
  9
$PUCSORGLEFT
 10
0.0
 20
0.0
 30
0.0
  9
$PUCSORGRIGHT
 10
0.0
 20
0.0
 30
0.0
  9
$PUCSORGFRONT
 10
0.0
 20
0.0
 30
0.0
  9
$PUCSORGBACK
 10
0.0
 20
0.0
 30
0.0
  9
$USERI1
 70
     0
  9
$USERI2
 70
     0
  9
$USERI3
 70
     0
  9
$USERI4
 70
     0
  9
$USERI5
 70
     0
  9
$USERR1
 40
0.0
  9
$USERR2
 40
0.0
  9
$USERR3
 40
0.0
  9
$USERR4
 40
0.0
  9
$USERR5
 40
0.0
  9
$WORLDVIEW
 70
     1
  9
$SHADEDGE
 70
     3
  9
$SHADEDIF
 70
    70
  9
$TILEMODE
 70
     1
  9
$MAXACTVP
 70
    64
  9
$PINSBASE
 10
0.0
 20
0.0
 30
0.0
  9
$PLIMCHECK
 70
     0
  9
$PEXTMIN
 10
1.000000000000000E+20
 20
1.000000000000000E+20
 30
1.000000000000000E+20
  9
$PEXTMAX
 10
-1.000000000000000E+20
 20
-1.000000000000000E+20
 30
-1.000000000000000E+20
  9
$PLIMMIN
 10
0.0
 20
0.0
  9
$PLIMMAX
 10
12.0
 20
9.0
  9
$UNITMODE
 70
     0
  9
$VISRETAIN
 70
     1
  9
$PLINEGEN
 70
     0
  9
$PSLTSCALE
 70
     1
  9
$TREEDEPTH
 70
  3020
  9
$CMLSTYLE
  2
Standard
  9
$CMLJUST
 70
     0
  9
$CMLSCALE
 40
1.0
  9
$PROXYGRAPHICS
 70
     1
  9
$MEASUREMENT
 70
     1
  9
$CELWEIGHT
370
    -1
  9
$ENDCAPS
280
     0
  9
$JOINSTYLE
280
     0
  9
$LWDISPLAY
290
     0
  9
$INSUNITS
 70
     0
  9
$HYPERLINKBASE
  1

  9
$STYLESHEET
  1

  9
$XEDIT
290
     1
  9
$CEPSNTYPE
380
     0
  9
$PSTYLEMODE
290
     1
  9
$FINGERPRINTGUID
  2
{940E7A0B-C50A-504F-B395-5EFC51724BB8}
  9
$VERSIONGUID
  2
{94CADCEA-58CF-415D-8E57-17A699308E27}
  9
$EXTNAMES
290
     1
  9
$PSVPSCALE
 40
0.0
  9
$OLESTARTUP
290
     0
  9
$SORTENTS
280
   127
  9
$INDEXCTL
280
     0
  9
$HIDETEXT
280
     1
  9
$XCLIPFRAME
280
     0
  9
$HALOGAP
280
     0
  9
$OBSCOLOR
 70
   257
  9
$OBSLTYPE
280
     0
  9
$INTERSECTIONDISPLAY
280
     0
  9
$INTERSECTIONCOLOR
 70
   257
  9
$DIMASSOC
280
     2
  9
$PROJECTNAME
  1

  9
$CAMERADISPLAY
290
     0
  9
$LENSLENGTH
 40
50.0
  9
$CAMERAHEIGHT
 40
0.0
  9
$STEPSPERSEC
 40
2.0
  9
$STEPSIZE
 40
6.0
  9
$3DDWFPREC
 40
2.0
  9
$PSOLWIDTH
 40
0.25
  9
$PSOLHEIGHT
 40
4.0
  9
$LOFTANG1
 40
1.570796326794896
  9
$LOFTANG2
 40
1.570796326794896
  9
$LOFTMAG1
 40
0.0
  9
$LOFTMAG2
 40
0.0
  9
$LOFTPARAM
 70
     7
  9
$LOFTNORMALS
280
     1
  9
$LATITUDE
 40
37.795
  9
$LONGITUDE
 40
-122.394
  9
$NORTHDIRECTION
 40
0.0
  9
$TIMEZONE
 70
 -8000
  9
$LIGHTGLYPHDISPLAY
280
     1
  9
$TILEMODELIGHTSYNCH
280
     1
  9
$CMATERIAL
347
3A
  9
$SOLIDHIST
280
     0
  9
$SHOWHIST
280
     1
  9
$DWFFRAME
280
     2
  9
$DGNFRAME
280
     0
  9
$REALWORLDSCALE
290
     1
  9
$INTERFERECOLOR
 62
     1
  9
$INTERFEREOBJVS
345
53
  9
$INTERFEREVPVS
346
54
  9
$CSHADOW
280
     0
  9
$SHADOWPLANELOCATION
 40
0.0
  0
ENDSEC
  0
SECTION
  2
CLASSES
  0
CLASS
  1
ACDBDICTIONARYWDFLT
  2
AcDbDictionaryWithDefault
  3
ObjectDBX Classes
 90
        0
 91
        1
280
     0
281
     0
  0
CLASS
  1
ACME_DOCUMENT
  2
AcMeDbDoc
  3
AcMeServices
 90
     1024
 91
        0
280
     1
281
     0
  0
CLASS
  1
AMGSETTINGSOBJ
  2
AmgSettingsObj
  3
"AcadM|Product Description: AutoCAD Mechanical|Company: Autodesk, Inc."
 90
     1024
 91
        0
280
     1
281
     0
  0
CLASS
  1
ACMESCOPE
  2
AcMeScope
  3
AcMeServices
 90
     1024
 91
        0
280
     1
281
     0
  0
CLASS
  1
ACMECOMMANDHISTORY
  2
AcMeCommandHistory
  3
AcMeServices
 90
     1024
 91
        0
280
     1
281
     0
  0
CLASS
  1
ACIMSYSVARMAN
  2
AcImSysVarManager
  3
AcMeServices
 90
     1024
 91
        0
280
     1
281
     0
  0
CLASS
  1
ACIMREALSYSVAR
  2
AcImRealSysVar
  3
AcMeServices
 90
     1024
 91
        0
280
     1
281
     0
  0
CLASS
  1
ACIMINTSYSVAR
  2
AcImIntSysVar
  3
AcMeServices
 90
     1024
 91
        0
280
     1
281
     0
  0
CLASS
  1
ACMEDRAWINGMAN
  2
AcMeDrawingMan
  3
AcMeServices
 90
     1024
 91
        0
280
     1
281
     0
  0
CLASS
  1
ACMEVIEW
  2
AcMeView
  3
AcMeServices
 90
     1024
 91
        0
280
     1
281
     0
  0
CLASS
  1
ACDBENTITYCACHE
  2
AcMeEntityCache
  3
AcMeServices
 90
     1024
 91
        0
280
     1
281
     0
  0
CLASS
  1
GSMANAGER
  2
AcMeGSManager
  3
AcMeServices
 90
     1024
 91
        0
280
     1
281
     0
  0
CLASS
  1
AMDTINTERNALREACTOR
  2
AmdtInternalReactor
  3
AcMeServices
 90
     1024
 91
        0
280
     1
281
     0
  0
CLASS
  1
ACMESTATEMGR
  2
AcMeStateMgr
  3
AcMeServices
 90
     1024
 91
        0
280
     1
281
     0
  0
CLASS
  1
ACGREFMASTER
  2
AcGrefMaster
  3
AcAttribServices
 90
     1024
 91
        0
280
     1
281
     0
  0
CLASS
  1
ACME_DATABASE
  2
AcMeDbDatabase
  3
AcMeServices
 90
     1024
 91
        0
280
     1
281
     0
  0
CLASS
  1
ACRFINSADJUSTERMGR
  2
AcRfInsAdjusterMgr
  3
AcMeServices
 90
     1024
 91
        0
280
     1
281
     0
  0
CLASS
  1
ACGREFACADMASTER
  2
AcGrefacadMaster
  3
AcGrefServices
 90
     1024
 91
        0
280
     1
281
     0
  0
CLASS
  1
AMIMASTER
  2
AmiMaster
  3
AmiServices
 90
     1024
 91
        0
280
     1
281
     0
  0
CLASS
  1
ACMDATADICTIONARY
  2
AcmDataDictionary
  3
"AcmSymBB|Product Description: AutoCAD Mechanical|Company: Autodesk, Inc."
 90
     1024
 91
        0
280
     1
281
     0
  0
CLASS
  1
ACMDATAENTRYBLOCK
  2
AcmDataEntryBlock
  3
AcmSymBB|Product Description: AutoCAD Mechanical|Company: Autodesk, Inc.
 90
     1024
 91
        0
280
     1
281
     0
  0
CLASS
  1
ACIMSTRSYSVAR
  2
AcImStrSysVar
  3
AcMeServices
 90
     1024
 91
        0
280
     1
281
     0
  0
CLASS
  1
ACMSTANDARDANSI
  2
AcmStandardANSI
  3
"Amdt_StdImp|Product Description: AutoCAD Mechanical|Company: Autodesk, Inc."
 90
     1024
 91
        0
280
     1
281
     0
  0
CLASS
  1
AMGOBJPROPCFG
  2
AmgObjPropCfg
  3
"AmgLay|Product Description: AutoCAD Mechanical|Company: Autodesk, Inc."
 90
     1025
 91
        0
280
     1
281
     0
  0
CLASS
  1
ACMSURFSTANDARDANSI
  2
AcmSurfTextStdANSI
  3
"Amdt_StdImp|Product Description: AutoCAD Mechanical|Company: Autodesk, Inc."
 90
     1024
 91
        0
280
     1
281
     0
  0
CLASS
  1
ACMFCFSTANDARDANSI
  2
AcmFCFStdANSI
  3
"Amdt_StdImp|Product Description: AutoCAD Mechanical|Company: Autodesk, Inc."
 90
     1024
 91
        0
280
     1
281
     0
  0
CLASS
  1
ACMWELDSTANDARDANSI
  2
AcmWeldingStdANSI
  3
"Amdt_StdImp|Product Description: AutoCAD Mechanical|Company: Autodesk, Inc."
 90
     1024
 91
        0
280
     1
281
     0
  0
CLASS
  1
ACMIDSTANDARDANSI
  2
AcmIdStdANSI
  3
"Amdt_StdImp|Product Description: AutoCAD Mechanical|Company: Autodesk, Inc."
 90
     1024
 91
        0
280
     1
281
     0
  0
CLASS
  1
ACMDATUMSTANDARDANSI
  2
AcmDatumStdANSI
  3
"Amdt_StdImp|Product Description: AutoCAD Mechanical|Company: Autodesk, Inc."
 90
     1024
 91
        0
280
     1
281
     0
  0
CLASS
  1
ACMBOMSTANDARDANSI
  2
AcmBOMStdANSI
  3
"Amdt_StdImp|Product Description: AutoCAD Mechanical|Company: Autodesk, Inc."
 90
     1024
 91
        0
280
     1
281
     0
  0
CLASS
  1
ACMDETAILSTANDARDANSI
  2
AmdtDetailSymStdANSI
  3
"Amdt_StdImp|Product Description: AutoCAD Mechanical|Company: Autodesk, Inc."
 90
     1024
 91
        0
280
     1
281
     0
  0
CLASS
  1
ACMSECTIONSTANDARDANSI
  2
AmdtSectionSymStdANSI
  3
"Amdt_StdImp|Product Description: AutoCAD Mechanical|Company: Autodesk, Inc."
 90
     1024
 91
        0
280
     1
281
     0
  0
CLASS
  1
ACMCENTERLINESTANDARDANSI
  2
AmdtCenterLineStdANSI
  3
"Amdt_StdImp|Product Description: AutoCAD Mechanical|Company: Autodesk, Inc."
 90
     1024
 91
        0
280
     1
281
     0
  0
CLASS
  1
ACMNOTESTANDARDANSI
  2
AmdtNoteStdANSI
  3
"Amdt_StdImp|Product Description: AutoCAD Mechanical|Company: Autodesk, Inc."
 90
     1024
 91
        0
280
     1
281
     0
  0
CLASS
  1
ACAMGLAYSTD
  2
AcAmgLayStd
  3
"AmgLay|Product Description: AutoCAD Mechanical|Company: Autodesk, Inc."
 90
     1024
 91
        0
280
     1
281
     0
  0
CLASS
  1
ACAMGDIMSTD
  2
AcAmgDimStd
  3
"AmgDim|Product Description: AutoCAD Mechanical|Company: Autodesk, Inc."
 90
     1024
 91
        0
280
     1
281
     0
  0
CLASS
  1
ACAMGHOLECHARTSTDANSI
  2
AcAmgHoleChartStdANSI
  3
AmgDim|Product Description: AutoCAD Mechanical|Company: Autodesk, Inc.
 90
     1024
 91
        0
280
     1
281
     0
  0
CLASS
  1
ACAMGTITLESTD
  2
AcAmgTitleStd
  3
"AmgTitle|Product Description: AutoCAD Mechanical|Company: Autodesk, Inc."
 90
     4095
 91
        0
280
     1
281
     0
  0
CLASS
  1
LAYER_INDEX
  2
AcDbLayerIndex
  3
ObjectDBX Classes
 90
        0
 91
        0
280
     0
281
     0
  0
CLASS
  1
IDBUFFER
  2
AcDbIdBuffer
  3
ObjectDBX Classes
 90
        0
 91
        0
280
     0
281
     0
  0
CLASS
  1
DICTIONARYVAR
  2
AcDbDictionaryVar
  3
ObjectDBX Classes
 90
        0
 91
       15
280
     0
281
     0
  0
CLASS
  1
AM_DRAWING_MGR
  2
AcDmDwgMgr
  3
AcMechDwgViewMgmt
 90
     1024
 91
        0
280
     1
281
     0
  0
CLASS
  1
AM_DWG_DOCUMENT
  2
AcDmDwgDocument
  3
AcMechDwgViewMgmt
 90
     1024
 91
        0
280
     1
281
     0
  0
CLASS
  1
AM_DWG_SHEET
  2
AcDmSheet
  3
AcMechDwgViewMgmt
 90
     1024
 91
        0
280
     1
281
     0
  0
CLASS
  1
AM_VIEWDIMPARMAP
  2
AcDmViewDimParMap
  3
AcMechDwgViewMgmt
 90
     1024
 91
        0
280
     1
281
     0
  0
CLASS
  1
AM_DWGMGR_NAME
  2
AcDmDwgMgrName
  3
AcMechDwgViewMgmt
 90
     1024
 91
        0
280
     1
281
     0
  0
CLASS
  1
AMDTMENUSTATEMGR
  2
AmdtMenuStateMgr
  3
McadcomServices
 90
     1024
 91
        0
280
     1
281
     0
  0
CLASS
  1
AMDTMCOMMENUSTATE
  2
AmdtMcomMenuState
  3
McadcomServices
 90
     1024
 91
        0
280
     1
281
     0
  0
CLASS
  1
MAPIAMMOUDLE
  2
MApiAmModule
  3
MApiAmServices
 90
     1024
 91
        0
280
     1
281
     0
  0
CLASS
  1
AMDTADMENUSTATE
  2
AmdtAdMenuState
  3
DesignerServices
 90
     1024
 91
        0
280
     1
281
     0
  0
CLASS
  1
ADAPPL
  2
AcAdAppl
  3
DesignerAssemblies
 90
     1024
 91
        0
280
     1
281
     0
  0
CLASS
  1
DEPMGR
  2
AcAdDepMgr
  3
DesignerAssemblies
 90
     1024
 91
        0
280
     1
281
     0
  0
CLASS
  1
PARAMMGR
  2
AcAdParamMgr
  3
DesignerAssemblies
 90
     1024
 91
        0
280
     1
281
     0
  0
CLASS
  1
PARAMSCOPE
  2
AcAdParamScope
  3
DesignerAssemblies
 90
     1024
 91
        0
280
     1
281
     0
  0
CLASS
  1
NAMEDAPPL
  2
AcAdNamedAppl
  3
DesignerAssemblies
 90
     1024
 91
        0
280
     1
281
     0
  0
CLASS
  1
AMDTDMMENUSTATE
  2
AmdtDmMenuState
  3
AcMechDwgViewMgmt
 90
     1024
 91
        0
280
     1
281
     0
  0
CLASS
  1
AMDTAMMENUSTATE
  2
AmdtAmMenuState
  3
DesignerAssemblies
 90
     1024
 91
        0
280
     1
281
     0
  0
CLASS
  1
ACAMPROJECT
  2
AcAmProject
  3
DesignerAssemblies
 90
     1024
 91
        0
280
     1
281
     0
  0
CLASS
  1
ACAMGRCOMPDEF
  2
AcAmGrCompDef
  3
DesignerAssemblies
 90
     1024
 91
        0
280
     1
281
     0
  0
CLASS
  1
ACCMCONTEXT
  2
AcCmContext
  3
DesignerAssemblies
 90
     1024
 91
        0
280
     1
281
     0
  0
CLASS
  1
ACAMCOMPDEF
  2
AcAmCompDef
  3
DesignerAssemblies
 90
     1024
 91
        0
280
     1
281
     0
  0
CLASS
  1
ACAMCOMPDEFMGR
  2
AcAmCompDefMgr
  3
DesignerAssemblies
 90
     1024
 91
        0
280
     1
281
     0
  0
CLASS
  1
AMCONTEXTMGR
  2
AcAmContextMgr
  3
DesignerAssemblies
 90
     1024
 91
        0
280
     1
281
     0
  0
CLASS
  1
ACAMCONTEXTMODELER
  2
AcAmContextModeler
  3
DesignerAssemblies
 90
     1024
 91
        0
280
     1
281
     0
  0
CLASS
  1
ACMTHREADLINESTANDARDANSI
  2
AmdtThreadLineStdANSI
  3
"Amdt_StdImp|Product Description: AutoCAD Mechanical|Company: Autodesk, Inc."
 90
     1024
 91
        0
280
     1
281
     0
  0
CLASS
  1
CATALOGSTATE
  2
AcAmCatalogState
  3
DesignerAssemblies
 90
     1024
 91
        0
280
     1
281
     0
  0
CLASS
  1
ACAMGRCOMPDEFSET
  2
AcAmGrCompDefSet
  3
DesignerAssemblies
 90
     1024
 91
        0
280
     1
281
     0
  0
CLASS
  1
AMDTBROWSERDBTAB
  2
AmdtBrowserDbTab
  3
McadcomServices
 90
     1024
 91
        0
280
     1
281
     0
  0
CLASS
  1
CBROWSERAPPOBJECT
  2
CBrowserAppObject
  3
McadcomServices
 90
     1024
 91
        0
280
     1
281
     0
  0
CLASS
  1
DM_PLACEHOLDER
  2
AcDmSelsetPlaceholder
  3
AcMechDwgViewMgmt
 90
     1024
 91
        0
280
     1
281
     0
  0
CLASS
  1
TABLESTYLE
  2
AcDbTableStyle
  3
ObjectDBX Classes
 90
     4095
 91
        1
280
     0
281
     0
  0
CLASS
  1
AMDTNOTETEMPLATEDB
  2
AmdtNoteTemplateDB
  3
AcmSymBB|Product Description: AutoCAD Mechanical|Company: Autodesk, Inc.
 90
     1024
 91
        0
280
     1
281
     0
  0
CLASS
  1
MATERIAL
  2
AcDbMaterial
  3
ObjectDBX Classes
 90
     1153
 91
        3
280
     0
281
     0
  0
CLASS
  1
VISUALSTYLE
  2
AcDbVisualStyle
  3
ObjectDBX Classes
 90
     4095
 91
        4
280
     0
281
     0
  0
CLASS
  1
ACRFATTGENMGR
  2
AcRfAttGeneralMgr
  3
AcAttribServices
 90
     1024
 91
        0
280
     1
281
     0
  0
CLASS
  1
ACRFOBJATTMGR
  2
AcRfObjAttGroupMgr
  3
AcAttribServices
 90
     1024
 91
        0
280
     1
281
     0
  0
CLASS
  1
ACRFMCADAPIATTHOLDER
  2
AcRfMCADAPIAttHolder
  3
AcAttribServices
 90
     1024
 91
        0
280
     1
281
     0
  0
CLASS
  1
AMDTSYSATTR
  2
AmdtSystemAttribute
  3
AcAttribServices
 90
     1024
 91
        0
280
     1
281
     0
  0
CLASS
  1
ACMTAPERSTANDARDANSI
  2
AcmTaperStdANSI
  3
"Amdt_StdImp|Product Description: AutoCAD Mechanical|Company: Autodesk, Inc."
 90
     1024
 91
        0
280
     1
281
     0
  0
CLASS
  1
CAMSSTRUCTBTNSTATE
  2
StructBtnState
  3
DesignerAssemblies
 90
     1024
 91
        0
280
     1
281
     0
  0
CLASS
  1
SCALE
  2
AcDbScale
  3
ObjectDBX Classes
 90
     1153
 91
       33
280
     0
281
     0
  0
CLASS
  1
MLEADERSTYLE
  2
AcDbMLeaderStyle
  3
ACDB_MLEADERSTYLE_CLASS
 90
     4095
 91
        0
280
     0
281
     0
  0
CLASS
  1
ACMANOOTATIONVIEWSTANDARDANSI
  2
AmdtAnViewStdANSI
  3
"Amdt_StdImp|Product Description: AutoCAD Mechanical|Company: Autodesk, Inc."
 90
     1024
 91
        0
280
     1
281
     0
  0
CLASS
  1
CELLSTYLEMAP
  2
AcDbCellStyleMap
  3
ObjectDBX Classes
 90
     1152
 91
        1
280
     0
281
     0
  0
CLASS
  1
EXACXREFPANELOBJECT
  2
ExAcXREFPanelObject
  3
EXAC_ESW
 90
     1025
 91
        0
280
     1
281
     0
  0
CLASS
  1
NPOCOLLECTION
  2
AcDbImpNonPersistentObjectsCollection
  3
ObjectDBX Classes
 90
     1153
 91
        0
280
     0
281
     0
  0
CLASS
  1
ACAMGFILTERDAT
  2
AcAmgFilterDat
  3
"AcadM|Product Description: AutoCAD Mechanical|Company: Autodesk, Inc."
 90
     1024
 91
        0
280
     1
281
     0
  0
CLASS
  1
SORTENTSTABLE
  2
AcDbSortentsTable
  3
ObjectDBX Classes
 90
        0
 91
        2
280
     0
281
     0
  0
CLASS
  1
DIMASSOC
  2
AcDbDimAssoc
  3
"AcDbDimAssoc|Product Desc:     AcDim ARX App For Dimension|Company:          Autodesk, Inc.|WEB Address:      www.autodesk.com"
 90
        0
 91
       19
280
     0
281
     0
  0
CLASS
  1
ACAD_EVALUATION_GRAPH
  2
AcDbEvalGraph
  3
ObjectDBX Classes
 90
     1153
 91
        0
280
     0
281
     0
  0
CLASS
  1
ACAECUSTOBJ
  2
AcAeEditorObj
  3
AcAeEditorObj
 90
     1024
 91
        0
280
     1
281
     0
  0
CLASS
  1
ACDB_DYNAMICBLOCKPURGEPREVENTER_VERSION
  2
AcDbDynamicBlockPurgePreventer
  3
ObjectDBX Classes
 90
     1153
 91
        0
280
     0
281
     0
  0
CLASS
  1
BLOCKPOINTPARAMETER
  2
AcDbBlockPointParameter
  3
ObjectDBX Classes
 90
     1153
 91
        0
280
     0
281
     0
  0
CLASS
  1
BLOCKXYGRIP
  2
AcDbBlockXYGrip
  3
ObjectDBX Classes
 90
     1153
 91
        0
280
     0
281
     0
  0
CLASS
  1
BLOCKGRIPLOCATIONCOMPONENT
  2
AcDbBlockGripExpr
  3
ObjectDBX Classes
 90
     1153
 91
        0
280
     0
281
     0
  0
CLASS
  1
XYGRIPENTITY
  2
AcDbBlockXYGripEntity
  3
ObjectDBX Classes
 90
     1025
 91
        0
280
     0
281
     1
  0
CLASS
  1
ACAEEEMGROBJ
  2
AcAeEEMgrObj
  3
AcAeEEMgrObj
 90
     1024
 91
        0
280
     0
281
     0
  0
CLASS
  1
POINTPARAMETERENTITY
  2
AcDbBlockPointParameterEntity
  3
ObjectDBX Classes
 90
     1025
 91
        0
280
     0
281
     1
  0
CLASS
  1
BLOCKLINEARPARAMETER
  2
AcDbBlockLinearParameter
  3
ObjectDBX Classes
 90
     1153
 91
        0
280
     0
281
     0
  0
CLASS
  1
BLOCKBASEPOINTPARAMETER
  2
AcDbBlockBasepointParameter
  3
ObjectDBX Classes
 90
     1153
 91
        0
280
     0
281
     0
  0
CLASS
  1
BASEPOINTPARAMETERENTITY
  2
AcDbBlockBasepointParameterEntity
  3
ObjectDBX Classes
 90
     1025
 91
        0
280
     0
281
     1
  0
CLASS
  1
BLOCKLOOKUPPARAMETER
  2
AcDbBlockLookupParameter
  3
ObjectDBX Classes
 90
     1153
 91
        0
280
     0
281
     0
  0
CLASS
  1
BLOCKLOOKUPGRIP
  2
AcDbBlockLookupGrip
  3
ObjectDBX Classes
 90
     1153
 91
        0
280
     0
281
     0
  0
CLASS
  1
LOOKUPGRIPENTITY
  2
AcDbBlockLookupGripEntity
  3
ObjectDBX Classes
 90
     1025
 91
        0
280
     0
281
     1
  0
CLASS
  1
LOOKUPPARAMETERENTITY
  2
AcDbBlockLookupParameterEntity
  3
ObjectDBX Classes
 90
     1025
 91
        0
280
     0
281
     1
  0
CLASS
  1
BLOCKALIGNMENTPARAMETER
  2
AcDbBlockAlignmentParameter
  3
ObjectDBX Classes
 90
     1153
 91
        0
280
     0
281
     0
  0
CLASS
  1
BLOCKALIGNMENTGRIP
  2
AcDbBlockAlignmentGrip
  3
ObjectDBX Classes
 90
     1153
 91
        0
280
     0
281
     0
  0
CLASS
  1
ALIGNMENTGRIPENTITY
  2
AcDbBlockAlignmentGripEntity
  3
ObjectDBX Classes
 90
     1025
 91
        0
280
     0
281
     1
  0
CLASS
  1
ALIGNMENTPARAMETERENTITY
  2
AcDbBlockAlignmentParameterEntity
  3
ObjectDBX Classes
 90
     1025
 91
        0
280
     0
281
     1
  0
CLASS
  1
MULTILEADER
  2
AcDbMLeader
  3
ACDB_MLEADER_CLASS
 90
     1025
 91
        0
280
     0
281
     1
  0
CLASS
  1
ACDBASSOCNETWORK
  2
AcDbAssocNetwork
  3
ObjectDBX Classes
 90
     1025
 91
        0
280
     0
281
     0
  0
CLASS
  1
ACDBASSOC2DCONSTRAINTGROUP
  2
AcDbAssoc2dConstraintGroup
  3
ObjectDBX Classes
 90
     1025
 91
        0
280
     0
281
     0
  0
CLASS
  1
ACDBASSOCGEOMDEPENDENCY
  2
AcDbAssocGeomDependency
  3
ObjectDBX Classes
 90
     1025
 91
        0
280
     0
281
     0
  0
CLASS
  1
ACDBCIRCARCRES
  2
AcDbCircArcRes
  3
AcGrefServices
 90
     1024
 91
        0
280
     1
281
     0
  0
CLASS
  1
ACMSTANDARDISO
  2
AcmStandardISO
  3
"Amdt_StdImp|Product Description: AutoCAD Mechanical|Company: Autodesk, Inc."
 90
     1024
 91
        0
280
     1
281
     0
  0
CLASS
  1
AMDTEDGESTANDARDISO13715
  2
AmdtEdgeStdISO13715
  3
"Amdt_StdImp|Product Description: AutoCAD Mechanical|Company: Autodesk, Inc."
 90
     1024
 91
        0
280
     1
281
     0
  0
CLASS
  1
ACMSURFSTANDARDISO2002
  2
AcmSurfTextStdISO2002
  3
"Amdt_StdImp|Product Description: AutoCAD Mechanical|Company: Autodesk, Inc."
 90
     1024
 91
        0
280
     1
281
     0
  0
CLASS
  1
ACMFCFSTANDARDISO
  2
AcmFCFStdISO
  3
"Amdt_StdImp|Product Description: AutoCAD Mechanical|Company: Autodesk, Inc."
 90
     1024
 91
        0
280
     1
281
     0
  0
CLASS
  1
ACMWELDSTANDARDISO
  2
AcmWeldingStdISO
  3
"Amdt_StdImp|Product Description: AutoCAD Mechanical|Company: Autodesk, Inc."
 90
     1024
 91
        0
280
     1
281
     0
  0
CLASS
  1
ACMIDSTANDARDISO
  2
AcmIdStdISO
  3
"Amdt_StdImp|Product Description: AutoCAD Mechanical|Company: Autodesk, Inc."
 90
     1024
 91
        0
280
     1
281
     0
  0
CLASS
  1
ACMDATUMSTANDARDISO
  2
AcmDatumStdISO
  3
"Amdt_StdImp|Product Description: AutoCAD Mechanical|Company: Autodesk, Inc."
 90
     1024
 91
        0
280
     1
281
     0
  0
CLASS
  1
ACMBOMSTANDARDISO
  2
AcmBOMStdISO
  3
"Amdt_StdImp|Product Description: AutoCAD Mechanical|Company: Autodesk, Inc."
 90
     1024
 91
        0
280
     1
281
     0
  0
CLASS
  1
ACMDETAILSTANDARDISO
  2
AmdtDetailSymStdISO
  3
"Amdt_StdImp|Product Description: AutoCAD Mechanical|Company: Autodesk, Inc."
 90
     1024
 91
        0
280
     1
281
     0
  0
CLASS
  1
ACMSECTIONSTANDARDISO2001
  2
AmdtSectionSymStdISO2001
  3
"Amdt_StdImp|Product Description: AutoCAD Mechanical|Company: Autodesk, Inc."
 90
     1024
 91
        0
280
     1
281
     0
  0
CLASS
  1
ACMCENTERLINESTANDARDISO
  2
AmdtCenterLineStdISO
  3
"Amdt_StdImp|Product Description: AutoCAD Mechanical|Company: Autodesk, Inc."
 90
     1024
 91
        0
280
     1
281
     0
  0
CLASS
  1
ACMTHREADLINESTANDARDISO
  2
AmdtThreadLineStdISO
  3
"Amdt_StdImp|Product Description: AutoCAD Mechanical|Company: Autodesk, Inc."
 90
     1024
 91
        0
280
     1
281
     0
  0
CLASS
  1
ACMNOTESTANDARDISO
  2
AmdtNoteStdISO
  3
"Amdt_StdImp|Product Description: AutoCAD Mechanical|Company: Autodesk, Inc."
 90
     1024
 91
        0
280
     1
281
     0
  0
CLASS
  1
ACMTAPERSTANDARDISO
  2
AcmTaperStdISO
  3
"Amdt_StdImp|Product Description: AutoCAD Mechanical|Company: Autodesk, Inc."
 90
     1024
 91
        0
280
     1
281
     0
  0
CLASS
  1
ACMANOOTATIONVIEWSTANDARDISO
  2
AmdtAnViewStdISO
  3
"Amdt_StdImp|Product Description: AutoCAD Mechanical|Company: Autodesk, Inc."
 90
     1024
 91
        0
280
     1
281
     0
  0
CLASS
  1
ACAMGHOLECHARTSTDISO
  2
AcAmgHoleChartStdISO
  3
AmgDim|Product Description: AutoCAD Mechanical|Company: Autodesk, Inc.
 90
     1024
 91
        0
280
     1
281
     0
  0
CLASS
  1
AEC_REFEDIT_STATUS_TRACKER
  2
AecDbRefEditStatusTracker
  3
AecArchBase80|Product Desc: Autodesk Architectural Desktop 2007 |Company: Autodesk,Inc. |WEB Address: www.autodesk.com
 90
      129
 91
        0
280
     0
281
     0
  0
CLASS
  1
ACDBSECTIONVIEWSTYLE
  2
AcDbSectionViewStyle
  3
ObjectDBX Classes
 90
     1025
 91
        0
280
     0
281
     0
  0
CLASS
  1
ACDBDETAILVIEWSTYLE
  2
AcDbDetailViewStyle
  3
ObjectDBX Classes
 90
     1025
 91
        0
280
     0
281
     0
  0
CLASS
  1
SOLID_BACKGROUND
  2
AcDbSolidBackground
  3
SCENEOE
 90
     4095
 91
        0
280
     0
281
     0
  0
ENDSEC
  0
SECTION
  2
TABLES
  0
TABLE
  2
VPORT
  5
24
102
{ACAD_XDICTIONARY
360
29
102
}
330
0
100
AcDbSymbolTable
 70
     1
  0
VPORT
  5
25
330
24
100
AcDbSymbolTableRecord
100
AcDbViewportTableRecord
  2
*Active
 70
     0
 10
0.0
 20
0.0
 11
1.0
 21
1.0
 12
1507.125687212083
 22
-852.6715637303205
 13
0.0
 23
0.0
 14
2.5
 24
2.5
 15
10.0
 25
10.0
 16
0.0
 26
0.0
 36
1.0
 17
0.0
 27
0.0
 37
0.0
 40
331.8306266352429
 41
2.311515151515151
 42
50.0
 43
0.0
 44
0.0
 50
0.0
 51
0.0
 71
     0
 72
   100
 73
     1
 74
     3
 75
     0
 76
     0
 77
     0
 78
     1
281
     0
 65
     1
110
0.0
120
0.0
130
0.0
111
1.0
121
0.0
131
0.0
112
0.0
122
1.0
132
0.0
 79
     0
146
0.0
348
26
 60
     3
 61
     5
292
     1
282
     0
141
0.0
142
0.0
 63
   250
421
  3355443
1001
ACAD_NAV_VCDISPLAY
1070
     3
  0
ENDTAB
  0
TABLE
  2
LTYPE
  5
1F
330
0
100
AcDbSymbolTable
 70
     3
  0
LTYPE
  5
20
330
1F
100
AcDbSymbolTableRecord
100
AcDbLinetypeTableRecord
  2
ByBlock
 70
     0
  3

 72
    65
 73
     0
 40
0.0
  0
LTYPE
  5
21
330
1F
100
AcDbSymbolTableRecord
100
AcDbLinetypeTableRecord
  2
ByLayer
 70
     0
  3

 72
    65
 73
     0
 40
0.0
  0
LTYPE
  5
E
330
1F
100
AcDbSymbolTableRecord
100
AcDbLinetypeTableRecord
  2
Continuous
 70
     0
  3
Solid line
 72
    65
 73
     0
 40
0.0
  0
LTYPE
  5
B3
330
1F
100
AcDbSymbolTableRecord
100
AcDbLinetypeTableRecord
  2
CENTER
 70
     0
  3
Center ____ _ ____ _ ____ _ ____ _ ____ _ ____
 72
    65
 73
     4
 40
2.0
 49
1.25
 74
     0
 49
-0.25
 74
     0
 49
0.25
 74
     0
 49
-0.25
 74
     0
  0
LTYPE
  5
97
330
1F
100
AcDbSymbolTableRecord
100
AcDbLinetypeTableRecord
  2
HIDDEN2
 70
     0
  3
Hidden (.5x) _ _ _ _ _ _ _ _ _ _ _ _ _ _ _ _ _
 72
    65
 73
     2
 40
0.1875
 49
0.125
 74
     0
 49
-0.0625
 74
     0
  0
ENDTAB
  0
TABLE
  2
LAYER
  5
19
102
{ACAD_XDICTIONARY
360
1A
102
}
330
0
100
AcDbSymbolTable
 70
     8
  0
LAYER
  5
6
102
{ACAD_XDICTIONARY
360
7
102
}
330
19
100
AcDbSymbolTableRecord
100
AcDbLayerTableRecord
  2
0
 70
     0
 62
     7
  6
Continuous
370
    -3
390
9
347
C
348
0
  0
LAYER
  5
7B
102
{ACAD_XDICTIONARY
360
7C
102
}
330
19
100
AcDbSymbolTableRecord
100
AcDbLayerTableRecord
  2
B
 70
     0
 62
     5
  6
Continuous
370
    -3
390
9
347
C
348
0
1001
AcAecLayerStandard
1000

1000

1001
ACCMTRANSPARENCY
1071
        0
  0
LAYER
  5
D8
330
19
100
AcDbSymbolTableRecord
100
AcDbLayerTableRecord
  2
Defpoints
 70
     0
 62
     7
  6
Continuous
290
     0
370
    -3
390
9
347
C
348
0
  0
LAYER
  5
B0
102
{ACAD_XDICTIONARY
360
B1
102
}
330
19
100
AcDbSymbolTableRecord
100
AcDbLayerTableRecord
  2
C
 70
     0
 62
     1
  6
CENTER
370
    -3
390
9
347
C
348
0
1001
AcAecLayerStandard
1000

1000

1001
ACCMTRANSPARENCY
1071
        0
  0
LAYER
  5
B5
102
{ACAD_XDICTIONARY
360
B6
102
}
330
19
100
AcDbSymbolTableRecord
100
AcDbLayerTableRecord
  2
hatch
 70
     0
 62
     7
  6
CENTER
370
    -3
390
9
347
C
348
0
1001
AcAecLayerStandard
1000

1000

1001
ACCMTRANSPARENCY
1071
        0
  0
LAYER
  5
77
102
{ACAD_XDICTIONARY
360
78
102
}
330
19
100
AcDbSymbolTableRecord
100
AcDbLayerTableRecord
  2
DIM
 70
     0
 62
     7
  6
Continuous
370
    -3
390
9
347
C
348
0
  0
LAYER
  5
96
330
19
100
AcDbSymbolTableRecord
100
AcDbLayerTableRecord
  2
PACKAGE OL
 70
     0
 62
    51
  6
HIDDEN2
370
    -3
390
9
347
C
348
0
1001
AcAecLayerStandard
1000

1000

1001
ACCMTRANSPARENCY
1071
        0
  0
LAYER
  5
AC
330
19
100
AcDbSymbolTableRecord
100
AcDbLayerTableRecord
  2
Ag
 70
     0
 62
   130
  6
Continuous
370
    -3
390
9
347
C
348
0
1001
AcAecLayerStandard
1000

1000

1001
ACCMTRANSPARENCY
1071
        0
  0
ENDTAB
  0
TABLE
  2
STYLE
  5
1C
330
0
100
AcDbSymbolTable
 70
     1
  0
STYLE
  5
1D
330
1C
100
AcDbSymbolTableRecord
100
AcDbTextStyleTableRecord
  2
STANDARD
 70
     0
 40
0.0
 41
1.0
 50
0.0
 71
     0
 42
3.0
  3
ROMANS.SHX
  4

  0
ENDTAB
  0
TABLE
  2
VIEW
  5
22
330
0
100
AcDbSymbolTable
 70
     0
  0
ENDTAB
  0
TABLE
  2
UCS
  5
23
330
0
100
AcDbSymbolTable
 70
     0
  0
ENDTAB
  0
TABLE
  2
APPID
  5
2A
330
0
100
AcDbSymbolTable
 70
    12
  0
APPID
  5
2B
330
2A
100
AcDbSymbolTableRecord
100
AcDbRegAppTableRecord
  2
ACAD
 70
     0
  0
APPID
  5
31
330
2A
100
AcDbSymbolTableRecord
100
AcDbRegAppTableRecord
  2
ACAD_DSTYLE_DIMJOGGED_JOGANGLE_SYMBOL
 70
     0
  0
APPID
  5
2F
330
2A
100
AcDbSymbolTableRecord
100
AcDbRegAppTableRecord
  2
ACAD_DSTYLE_DIMJAG
 70
     0
  0
APPID
  5
2E
330
2A
100
AcDbSymbolTableRecord
100
AcDbRegAppTableRecord
  2
ACAD_DSTYLE_DIMBREAK
 70
     0
  0
APPID
  5
14
330
2A
100
AcDbSymbolTableRecord
100
AcDbRegAppTableRecord
  2
ACAD_PSEXT
 70
     0
  0
APPID
  5
7E
330
2A
100
AcDbSymbolTableRecord
100
AcDbRegAppTableRecord
  2
AcAecLayerStandard
 70
     0
  0
APPID
  5
7F
330
2A
100
AcDbSymbolTableRecord
100
AcDbRegAppTableRecord
  2
ACCMTRANSPARENCY
 70
     0
  0
APPID
  5
30
330
2A
100
AcDbSymbolTableRecord
100
AcDbRegAppTableRecord
  2
ACAD_DSTYLE_DIMTALN
 70
     0
  0
APPID
  5
AD
330
2A
100
AcDbSymbolTableRecord
100
AcDbRegAppTableRecord
  2
GRADIENTCOLOR1ACI
 70
     0
  0
APPID
  5
AE
330
2A
100
AcDbSymbolTableRecord
100
AcDbRegAppTableRecord
  2
GRADIENTCOLOR2ACI
 70
     0
  0
APPID
  5
28
330
2A
100
AcDbSymbolTableRecord
100
AcDbRegAppTableRecord
  2
ACAD_NAV_VCDISPLAY
 70
     0
  0
APPID
  5
14B
330
2A
100
AcDbSymbolTableRecord
100
AcDbRegAppTableRecord
  2
ACAD_DSTYLE_DIMINSPECT
 70
     0
  0
ENDTAB
  0
TABLE
  2
DIMSTYLE
  5
2C
330
0
100
AcDbSymbolTable
 70
     5
100
AcDbDimStyleTable
 71
     5
340
2D
340
32
340
33
340
34
340
35
  0
DIMSTYLE
105
35
330
2C
100
AcDbSymbolTableRecord
100
AcDbDimStyleTableRecord
  2
DIM 10
 70
     0
 41
3.0
 42
0.3125
 43
2.5
 44
0.625
 50
89.99999999999998
 73
     0
 74
     0
 78
     1
 79
     2
140
3.0
141
1.25
143
0.03937007874016
144
0.1
147
0.4
171
     3
172
     1
176
   256
177
   256
271
     3
272
     3
274
     3
283
     0
284
     8
340
1D
1001
ACAD_DSTYLE_DIMBREAK
1070
   391
1040
0.125
1001
ACAD_DSTYLE_DIMJAG
1070
   388
1040
1.5
1001
ACAD_DSTYLE_DIMTALN
1070
   392
1070
     0
1001
ACAD_DSTYLE_DIMJOGGED_JOGANGLE_SYMBOL
1070
   384
1040
1.570796326794896
  0
DIMSTYLE
105
33
330
2C
100
AcDbSymbolTableRecord
100
AcDbDimStyleTableRecord
  2
DIM 1
 70
     0
 41
1.5
 42
1.5
 43
1.5
 44
1.5
 50
89.99999999999998
 78
     1
 79
     2
140
1.5
141
1.5
143
0.03937007874016
147
1.5
171
     3
172
     1
176
   256
177
   256
178
   256
274
     3
283
     0
284
     8
340
1D
1001
ACAD_DSTYLE_DIMBREAK
1070
   391
1040
1.5
1001
ACAD_DSTYLE_DIMJAG
1070
   388
1040
1.5
1001
ACAD_DSTYLE_DIMTALN
1070
   392
1070
     0
1001
ACAD_DSTYLE_DIMJOGGED_JOGANGLE_SYMBOL
1070
   384
1040
1.570796326794896
  0
DIMSTYLE
105
34
330
2C
100
AcDbSymbolTableRecord
100
AcDbDimStyleTableRecord
  2
DIM1
 70
     0
 41
3.0
 42
0.3125
 43
2.5
 44
0.625
 50
89.99999999999998
 73
     0
 74
     0
 78
     1
 79
     2
140
3.0
141
1.25
143
0.03937007874016
147
0.4
171
     3
172
     1
176
   256
177
   256
178
   256
271
     3
272
     3
274
     3
283
     0
284
     8
340
1D
1001
ACAD_DSTYLE_DIMBREAK
1070
   391
1040
0.125
1001
ACAD_DSTYLE_DIMJAG
1070
   388
1040
1.5
1001
ACAD_DSTYLE_DIMTALN
1070
   392
1070
     0
1001
ACAD_DSTYLE_DIMJOGGED_JOGANGLE_SYMBOL
1070
   384
1040
1.570796326794896
  0
DIMSTYLE
105
32
330
2C
100
AcDbSymbolTableRecord
100
AcDbDimStyleTableRecord
  2
DIM 1.6
 70
     0
 41
1.5
 42
1.5
 43
1.5
 44
1.5
 50
89.99999999999998
 73
     0
 74
     0
 78
     1
 79
     2
140
1.5
141
1.5
143
0.03937007874016
144
0.625
147
1.5
171
     3
172
     1
176
   256
177
   256
178
   256
274
     3
283
     0
284
     8
340
1D
1001
ACAD_DSTYLE_DIMBREAK
1070
   391
1040
1.5
1001
ACAD_DSTYLE_DIMJAG
1070
   388
1040
1.5
1001
ACAD_DSTYLE_DIMTALN
1070
   392
1070
     0
1001
ACAD_DSTYLE_DIMJOGGED_JOGANGLE_SYMBOL
1070
   384
1040
1.570796326794896
  0
DIMSTYLE
105
2D
102
{ACAD_REACTORS
330
D0
330
DC
330
E7
330
F2
330
FD
330
108
330
13A
330
14C
330
15C
330
16D
330
17F
330
194
330
1A4
330
1B5
330
1C5
330
1E4
330
1F6
330
208
330
21C
102
}
330
2C
100
AcDbSymbolTableRecord
100
AcDbDimStyleTableRecord
  2
DIM40
 70
     0
 41
3.0
 42
0.3125
 43
2.5
 44
0.625
 50
89.99999999999998
 78
     1
 79
     2
140
3.0
141
1.25
143
0.03937007874016
144
0.025
147
0.4
171
     3
172
     1
176
   256
177
   256
178
   256
271
     3
272
     3
274
     3
283
     0
284
     8
340
1D
1001
ACAD_DSTYLE_DIMBREAK
1070
   391
1040
0.125
1001
ACAD_DSTYLE_DIMJAG
1070
   388
1040
1.5
1001
ACAD_DSTYLE_DIMTALN
1070
   392
1070
     0
1001
ACAD_DSTYLE_DIMJOGGED_JOGANGLE_SYMBOL
1070
   384
1040
1.570796326794896
  0
ENDTAB
  0
TABLE
  2
BLOCK_RECORD
  5
1
330
0
100
AcDbSymbolTable
 70
    19
  0
BLOCK_RECORD
  5
2
102
{ACAD_XDICTIONARY
360
3
102
}
330
1
100
AcDbSymbolTableRecord
100
AcDbBlockTableRecord
  2
*Model_Space
340
10
 70
     0
280
     1
281
     0
  0
BLOCK_RECORD
  5
15
330
1
100
AcDbSymbolTableRecord
100
AcDbBlockTableRecord
  2
*Paper_Space
340
18
 70
     0
280
     1
281
     0
  0
BLOCK_RECORD
  5
D3
330
1
100
AcDbSymbolTableRecord
100
AcDbBlockTableRecord
  2
*D0
340
0
 70
     0
280
     1
281
     0
  0
BLOCK_RECORD
  5
DF
330
1
100
AcDbSymbolTableRecord
100
AcDbBlockTableRecord
  2
*D1
340
0
 70
     0
280
     1
281
     0
  0
BLOCK_RECORD
  5
EA
330
1
100
AcDbSymbolTableRecord
100
AcDbBlockTableRecord
  2
*D2
340
0
 70
     0
280
     1
281
     0
  0
BLOCK_RECORD
  5
F5
330
1
100
AcDbSymbolTableRecord
100
AcDbBlockTableRecord
  2
*D3
340
0
 70
     0
280
     1
281
     0
  0
BLOCK_RECORD
  5
100
330
1
100
AcDbSymbolTableRecord
100
AcDbBlockTableRecord
  2
*D4
340
0
 70
     0
280
     1
281
     0
  0
BLOCK_RECORD
  5
10B
330
1
100
AcDbSymbolTableRecord
100
AcDbBlockTableRecord
  2
*D5
340
0
 70
     0
280
     1
281
     0
  0
BLOCK_RECORD
  5
13D
330
1
100
AcDbSymbolTableRecord
100
AcDbBlockTableRecord
  2
*D6
340
0
 70
     0
280
     1
281
     0
  0
BLOCK_RECORD
  5
14F
330
1
100
AcDbSymbolTableRecord
100
AcDbBlockTableRecord
  2
*D7
340
0
 70
     0
280
     1
281
     0
  0
BLOCK_RECORD
  5
15F
330
1
100
AcDbSymbolTableRecord
100
AcDbBlockTableRecord
  2
*D8
340
0
 70
     0
280
     1
281
     0
  0
BLOCK_RECORD
  5
170
330
1
100
AcDbSymbolTableRecord
100
AcDbBlockTableRecord
  2
*D9
340
0
 70
     0
280
     1
281
     0
  0
BLOCK_RECORD
  5
182
330
1
100
AcDbSymbolTableRecord
100
AcDbBlockTableRecord
  2
*D10
340
0
 70
     0
280
     1
281
     0
  0
BLOCK_RECORD
  5
197
330
1
100
AcDbSymbolTableRecord
100
AcDbBlockTableRecord
  2
*D11
340
0
 70
     0
280
     1
281
     0
  0
BLOCK_RECORD
  5
1A7
330
1
100
AcDbSymbolTableRecord
100
AcDbBlockTableRecord
  2
*D12
340
0
 70
     0
280
     1
281
     0
  0
BLOCK_RECORD
  5
1B8
330
1
100
AcDbSymbolTableRecord
100
AcDbBlockTableRecord
  2
*D13
340
0
 70
     0
280
     1
281
     0
  0
BLOCK_RECORD
  5
1C8
330
1
100
AcDbSymbolTableRecord
100
AcDbBlockTableRecord
  2
*D14
340
0
 70
     0
280
     1
281
     0
  0
BLOCK_RECORD
  5
1E7
330
1
100
AcDbSymbolTableRecord
100
AcDbBlockTableRecord
  2
*D15
340
0
 70
     0
280
     1
281
     0
  0
BLOCK_RECORD
  5
1F9
330
1
100
AcDbSymbolTableRecord
100
AcDbBlockTableRecord
  2
*D16
340
0
 70
     0
280
     1
281
     0
  0
BLOCK_RECORD
  5
20B
330
1
100
AcDbSymbolTableRecord
100
AcDbBlockTableRecord
  2
*D17
340
0
 70
     0
280
     1
281
     0
  0
BLOCK_RECORD
  5
21F
330
1
100
AcDbSymbolTableRecord
100
AcDbBlockTableRecord
  2
*D18
340
0
 70
     0
280
     1
281
     0
  0
ENDTAB
  0
ENDSEC
  0
SECTION
  2
BLOCKS
  0
BLOCK
  5
5
330
2
100
AcDbEntity
  8
0
100
AcDbBlockBegin
  2
*Model_Space
 70
     0
 10
0.0
 20
0.0
 30
0.0
  3
*Model_Space
  1

  0
ENDBLK
  5
F
330
2
100
AcDbEntity
  8
0
100
AcDbBlockEnd
  0
BLOCK
  5
16
330
15
100
AcDbEntity
 67
     1
  8
0
100
AcDbBlockBegin
  2
*Paper_Space
 70
     0
 10
0.0
 20
0.0
 30
0.0
  3
*Paper_Space
  1

  0
ENDBLK
  5
17
330
15
100
AcDbEntity
 67
     1
  8
0
100
AcDbBlockEnd
  0
BLOCK
  5
D4
330
D3
100
AcDbEntity
  8
0
100
AcDbBlockBegin
  2
*D0
 70
     1
 10
0.0
 20
0.0
 30
0.0
  3
*D0
  1

  0
LINE
  5
D5
330
D3
100
AcDbEntity
  8
DIM
440
 16777216
370
    -2
100
AcDbLine
 10
1374.120469096438
 20
-911.2320584861004
 30
0.0
 11
1363.277782572992
 21
-911.2320584861004
 31
0.0
  0
MTEXT
  5
D6
330
D3
100
AcDbEntity
  8
DIM
440
 16777216
100
AcDbMText
 10
1356.877782572992
 20
-911.2320584861004
 30
0.0
 40
3.0
 41
0.0
 46
0.0
 71
     5
 72
     1
  1
0.000
 73
     1
 44
1.0
  0
POINT
  5
D7
330
D3
100
AcDbEntity
  8
Defpoints
 62
     0
440
 16777216
100
AcDbPoint
 10
1374.432969096438
 20
-911.2320584861004
 30
0.0
  0
POINT
  5
D9
330
D3
100
AcDbEntity
  8
Defpoints
 62
     0
440
 16777216
100
AcDbPoint
 10
1363.277782572992
 20
-911.2320584861004
 30
0.0
  0
POINT
  5
DA
330
D3
100
AcDbEntity
  8
Defpoints
 62
     0
440
 16777216
100
AcDbPoint
 10
1396.338883985193
 20
-911.2320584861004
 30
0.0
  0
ENDBLK
  5
DB
330
D3
100
AcDbEntity
  8
0
100
AcDbBlockEnd
  0
BLOCK
  5
E0
330
DF
100
AcDbEntity
  8
0
100
AcDbBlockBegin
  2
*D1
 70
     1
 10
0.0
 20
0.0
 30
0.0
  3
*D1
  1

  0
LINE
  5
E1
330
DF
100
AcDbEntity
  8
DIM
440
 16777216
370
    -2
100
AcDbLine
 10
1396.338883985193
 20
-895.7122395169479
 30
0.0
 11
1396.338883985193
 21
-892.8373740738898
 31
0.0
  0
MTEXT
  5
E2
330
DF
100
AcDbEntity
  8
DIM
440
 16777216
100
AcDbMText
 10
1396.338883985193
 20
-886.4373740738896
 30
0.0
 40
3.0
 41
0.0
 46
0.0
 71
     5
 72
     1
  1
0.000
 11
0.0000000000000001
 21
1.0
 31
0.0
 73
     1
 44
1.0
  0
POINT
  5
E3
330
DF
100
AcDbEntity
  8
Defpoints
 62
     0
440
 16777216
100
AcDbPoint
 10
1396.338883985193
 20
-896.0247395169478
 30
0.0
  0
POINT
  5
E4
330
DF
100
AcDbEntity
  8
Defpoints
 62
     0
440
 16777216
100
AcDbPoint
 10
1396.338883985193
 20
-892.8373740738898
 30
0.0
  0
POINT
  5
E5
330
DF
100
AcDbEntity
  8
Defpoints
 62
     0
440
 16777216
100
AcDbPoint
 10
1396.338883985193
 20
-911.2320584861004
 30
0.0
  0
ENDBLK
  5
E6
330
DF
100
AcDbEntity
  8
0
100
AcDbBlockEnd
  0
BLOCK
  5
EB
330
EA
100
AcDbEntity
  8
0
100
AcDbBlockBegin
  2
*D2
 70
     1
 10
0.0
 20
0.0
 30
0.0
  3
*D2
  1

  0
LINE
  5
EC
330
EA
100
AcDbEntity
  8
DIM
440
 16777216
370
    -2
100
AcDbLine
 10
1379.938883985192
 20
-904.3195584861004
 30
0.0
 11
1379.938883985192
 21
-892.9901023519137
 31
0.0
  0
MTEXT
  5
ED
330
EA
100
AcDbEntity
  8
DIM
440
 16777216
100
AcDbMText
 10
1379.938883985193
 20
-879.9186737804848
 30
0.0
 40
3.0
 41
0.0
 46
0.0
 71
     5
 72
     1
  1
\A1;0.410{\H2.400000;±0.025}
 11
0.0000000000000001
 21
1.0
 31
0.0
 73
     1
 44
1.0
  0
POINT
  5
EE
330
EA
100
AcDbEntity
  8
Defpoints
 62
     0
440
 16777216
100
AcDbPoint
 10
1379.938883985192
 20
-904.6320584861003
 30
0.0
  0
POINT
  5
EF
330
EA
100
AcDbEntity
  8
Defpoints
 62
     0
440
 16777216
100
AcDbPoint
 10
1379.938883985192
 20
-892.9901023519137
 30
0.0
  0
POINT
  5
F0
330
EA
100
AcDbEntity
  8
Defpoints
 62
     0
440
 16777216
100
AcDbPoint
 10
1396.338883985193
 20
-911.2320584861004
 30
0.0
  0
ENDBLK
  5
F1
330
EA
100
AcDbEntity
  8
0
100
AcDbBlockEnd
  0
BLOCK
  5
F6
330
F5
100
AcDbEntity
  8
0
100
AcDbBlockBegin
  2
*D3
 70
     1
 10
0.0
 20
0.0
 30
0.0
  3
*D3
  1

  0
LINE
  5
F7
330
F5
100
AcDbEntity
  8
DIM
440
 16777216
370
    -2
100
AcDbLine
 10
1404.218883985193
 20
-904.3195584861003
 30
0.0
 11
1404.218883985193
 21
-892.9901023519137
 31
0.0
  0
MTEXT
  5
F8
330
F5
100
AcDbEntity
  8
DIM
440
 16777216
100
AcDbMText
 10
1404.218883985193
 20
-879.9186737804848
 30
0.0
 40
3.0
 41
0.0
 46
0.0
 71
     5
 72
     1
  1
\A1;0.197{\H2.400000;±0.025}
 11
0.0000000000000001
 21
1.0
 31
0.0
 73
     1
 44
1.0
  0
POINT
  5
F9
330
F5
100
AcDbEntity
  8
Defpoints
 62
     0
440
 16777216
100
AcDbPoint
 10
1404.218883985193
 20
-904.6320584861003
 30
0.0
  0
POINT
  5
FA
330
F5
100
AcDbEntity
  8
Defpoints
 62
     0
440
 16777216
100
AcDbPoint
 10
1404.218883985193
 20
-892.9901023519137
 30
0.0
  0
POINT
  5
FB
330
F5
100
AcDbEntity
  8
Defpoints
 62
     0
440
 16777216
100
AcDbPoint
 10
1396.338883985193
 20
-911.2320584861004
 30
0.0
  0
ENDBLK
  5
FC
330
F5
100
AcDbEntity
  8
0
100
AcDbBlockEnd
  0
BLOCK
  5
101
330
100
100
AcDbEntity
  8
0
100
AcDbBlockBegin
  2
*D4
 70
     1
 10
0.0
 20
0.0
 30
0.0
  3
*D4
  1

  0
LINE
  5
102
330
100
100
AcDbEntity
  8
DIM
440
 16777216
370
    -2
100
AcDbLine
 10
1412.738883985193
 20
-904.3195584861004
 30
0.0
 11
1412.738883985193
 21
-893.4482921389058
 31
0.0
  0
MTEXT
  5
103
330
100
100
AcDbEntity
  8
DIM
440
 16777216
100
AcDbMText
 10
1412.738883985193
 20
-880.3768635674769
 30
0.0
 40
3.0
 41
0.0
 46
0.0
 71
     5
 72
     1
  1
\A1;0.410{\H2.400000;±0.025}
 11
0.0000000000000001
 21
1.0
 31
0.0
 73
     1
 44
1.0
  0
POINT
  5
104
330
100
100
AcDbEntity
  8
Defpoints
 62
     0
440
 16777216
100
AcDbPoint
 10
1412.738883985193
 20
-904.6320584861003
 30
0.0
  0
POINT
  5
105
330
100
100
AcDbEntity
  8
Defpoints
 62
     0
440
 16777216
100
AcDbPoint
 10
1412.738883985193
 20
-893.4482921389058
 30
0.0
  0
POINT
  5
106
330
100
100
AcDbEntity
  8
Defpoints
 62
     0
440
 16777216
100
AcDbPoint
 10
1396.338883985193
 20
-911.2320584861004
 30
0.0
  0
ENDBLK
  5
107
330
100
100
AcDbEntity
  8
0
100
AcDbBlockEnd
  0
BLOCK
  5
10C
330
10B
100
AcDbEntity
  8
0
100
AcDbBlockBegin
  2
*D5
 70
     1
 10
0.0
 20
0.0
 30
0.0
  3
*D5
  1

  0
LINE
  5
10D
330
10B
100
AcDbEntity
  8
DIM
440
 16777216
370
    -2
100
AcDbLine
 10
1381.626383985192
 20
-902.6320584861004
 30
0.0
 11
1363.174197736098
 21
-902.6320584861004
 31
0.0
  0
MTEXT
  5
10E
330
10B
100
AcDbEntity
  8
DIM
440
 16777216
100
AcDbMText
 10
1350.102769164669
 20
-902.6320584861004
 30
0.0
 40
3.0
 41
0.0
 46
0.0
 71
     5
 72
     1
  1
\A1;0.215{\H2.400000;±0.025}
 73
     1
 44
1.0
  0
POINT
  5
10F
330
10B
100
AcDbEntity
  8
Defpoints
 62
     0
440
 16777216
100
AcDbPoint
 10
1381.938883985192
 20
-902.6320584861004
 30
0.0
  0
POINT
  5
110
330
10B
100
AcDbEntity
  8
Defpoints
 62
     0
440
 16777216
100
AcDbPoint
 10
1363.174197736098
 20
-902.6320584861004
 30
0.0
  0
POINT
  5
111
330
10B
100
AcDbEntity
  8
Defpoints
 62
     0
440
 16777216
100
AcDbPoint
 10
1396.338883985193
 20
-911.2320584861004
 30
0.0
  0
ENDBLK
  5
112
330
10B
100
AcDbEntity
  8
0
100
AcDbBlockEnd
  0
BLOCK
  5
13E
330
13D
100
AcDbEntity
  8
0
100
AcDbBlockBegin
  2
*D6
 70
     1
 10
0.0
 20
0.0
 30
0.0
  3
*D6
  1

  0
LINE
  5
13F
330
13D
100
AcDbEntity
  8
DIM
440
 16777216
370
    -2
100
AcDbLine
 10
1351.079051395483
 20
-774.4901821437642
 30
0.0
 11
1351.079051395483
 21
-770.5187525989572
 31
0.0
  0
LINE
  5
140
330
13D
100
AcDbEntity
  8
DIM
440
 16777216
370
    -2
100
AcDbLine
 10
1391.079051395483
 20
-774.4901821437642
 30
0.0
 11
1391.079051395483
 21
-770.5187525989572
 31
0.0
  0
LINE
  5
141
330
13D
100
AcDbEntity
  8
DIM
440
 16777216
370
    -2
100
AcDbLine
 10
1354.079051395483
 20
-771.1437525989572
 30
0.0
 11
1369.679051395483
 21
-771.1437525989572
 31
0.0
  0
LINE
  5
142
330
13D
100
AcDbEntity
  8
DIM
440
 16777216
370
    -2
100
AcDbLine
 10
1388.079051395483
 20
-771.1437525989572
 30
0.0
 11
1372.479051395483
 21
-771.1437525989572
 31
0.0
  0
SOLID
  5
143
330
13D
100
AcDbEntity
  8
DIM
440
 16777216
100
AcDbTrace
 10
1354.079051395483
 20
-770.6437525989572
 30
0.0
 11
1354.079051395483
 21
-771.6437525989572
 31
0.0
 12
1351.079051395483
 22
-771.1437525989572
 32
0.0
 13
1351.079051395483
 23
-771.1437525989572
 33
0.0
  0
SOLID
  5
145
330
13D
100
AcDbEntity
  8
DIM
440
 16777216
100
AcDbTrace
 10
1388.079051395483
 20
-770.6437525989572
 30
0.0
 11
1388.079051395483
 21
-771.6437525989572
 31
0.0
 12
1391.079051395483
 22
-771.1437525989572
 32
0.0
 13
1391.079051395483
 23
-771.1437525989572
 33
0.0
  0
MTEXT
  5
146
330
13D
100
AcDbEntity
  8
DIM
440
 16777216
100
AcDbMText
 10
1371.079051395483
 20
-771.1437525989572
 30
0.0
 40
3.0
 41
0.0
 46
0.0
 71
     5
 72
     1
  1
D
 73
     1
 44
1.0
  0
POINT
  5
147
330
13D
100
AcDbEntity
  8
Defpoints
 62
     0
440
 16777216
100
AcDbPoint
 10
1351.079051395483
 20
-774.8026821437642
 30
0.0
  0
POINT
  5
148
330
13D
100
AcDbEntity
  8
Defpoints
 62
     0
440
 16777216
100
AcDbPoint
 10
1391.079051395483
 20
-774.8026821437642
 30
0.0
  0
POINT
  5
149
330
13D
100
AcDbEntity
  8
Defpoints
 62
     0
440
 16777216
100
AcDbPoint
 10
1391.079051395483
 20
-771.1437525989572
 30
0.0
  0
ENDBLK
  5
14A
330
13D
100
AcDbEntity
  8
0
100
AcDbBlockEnd
  0
BLOCK
  5
150
330
14F
100
AcDbEntity
  8
0
100
AcDbBlockBegin
  2
*D7
 70
     1
 10
0.0
 20
0.0
 30
0.0
  3
*D7
  1

  0
LINE
  5
151
330
14F
100
AcDbEntity
  8
DIM
440
 16777216
370
    -2
100
AcDbLine
 10
1391.391551395483
 20
-774.8026821437642
 30
0.0
 11
1404.157465822256
 21
-774.8026821437642
 31
0.0
  0
LINE
  5
152
330
14F
100
AcDbEntity
  8
DIM
440
 16777216
370
    -2
100
AcDbLine
 10
1391.391551395483
 20
-798.8026821437642
 30
0.0
 11
1404.157465822256
 21
-798.8026821437642
 31
0.0
  0
LINE
  5
153
330
14F
100
AcDbEntity
  8
DIM
440
 16777216
370
    -2
100
AcDbLine
 10
1403.532465822256
 20
-777.8026821437642
 30
0.0
 11
1403.532465822256
 21
-784.9026821437643
 31
0.0
  0
LINE
  5
154
330
14F
100
AcDbEntity
  8
DIM
440
 16777216
370
    -2
100
AcDbLine
 10
1403.532465822256
 20
-795.8026821437642
 30
0.0
 11
1403.532465822256
 21
-788.7026821437642
 31
0.0
  0
SOLID
  5
155
330
14F
100
AcDbEntity
  8
DIM
440
 16777216
100
AcDbTrace
 10
1403.032465822256
 20
-777.8026821437642
 30
0.0
 11
1404.032465822256
 21
-777.8026821437642
 31
0.0
 12
1403.532465822256
 22
-774.8026821437642
 32
0.0
 13
1403.532465822256
 23
-774.8026821437642
 33
0.0
  0
SOLID
  5
156
330
14F
100
AcDbEntity
  8
DIM
440
 16777216
100
AcDbTrace
 10
1403.032465822256
 20
-795.8026821437642
 30
0.0
 11
1404.032465822256
 21
-795.8026821437642
 31
0.0
 12
1403.532465822256
 22
-798.8026821437642
 32
0.0
 13
1403.532465822256
 23
-798.8026821437642
 33
0.0
  0
MTEXT
  5
157
330
14F
100
AcDbEntity
  8
DIM
440
 16777216
100
AcDbMText
 10
1403.532465822256
 20
-786.802682143764
 30
0.0
 40
3.0
 41
0.0
 46
0.0
 71
     5
 72
     1
  1
E
 73
     1
 44
1.0
  0
POINT
  5
158
330
14F
100
AcDbEntity
  8
Defpoints
 62
     0
440
 16777216
100
AcDbPoint
 10
1391.079051395483
 20
-774.8026821437642
 30
0.0
  0
POINT
  5
159
330
14F
100
AcDbEntity
  8
Defpoints
 62
     0
440
 16777216
100
AcDbPoint
 10
1391.079051395483
 20
-798.8026821437642
 30
0.0
  0
POINT
  5
15A
330
14F
100
AcDbEntity
  8
Defpoints
 62
     0
440
 16777216
100
AcDbPoint
 10
1403.532465822256
 20
-798.8026821437642
 30
0.0
  0
ENDBLK
  5
15B
330
14F
100
AcDbEntity
  8
0
100
AcDbBlockEnd
  0
BLOCK
  5
160
330
15F
100
AcDbEntity
  8
0
100
AcDbBlockBegin
  2
*D8
 70
     1
 10
0.0
 20
0.0
 30
0.0
  3
*D8
  1

  0
LINE
  5
161
330
15F
100
AcDbEntity
  8
DIM
440
 16777216
370
    -2
100
AcDbLine
 10
1352.766551395476
 20
-845.2162543675658
 30
0.0
 11
1342.579457103336
 21
-845.2162543675658
 31
0.0
  0
LINE
  5
162
330
15F
100
AcDbEntity
  8
DIM
440
 16777216
370
    -2
100
AcDbLine
 10
1355.766551395483
 20
-838.3362543675684
 30
0.0
 11
1342.579457103336
 21
-838.3362543675684
 31
0.0
  0
LINE
  5
163
330
15F
100
AcDbEntity
  8
DIM
440
 16777216
370
    -2
100
AcDbLine
 10
1343.204457103336
 20
-842.2162543675659
 30
0.0
 11
1343.204457103336
 21
-841.3362543675685
 31
0.0
  0
LINE
  5
164
330
15F
100
AcDbEntity
  8
DIM
440
 16777216
370
    -2
100
AcDbLine
 10
1343.204457103336
 20
-838.3362543675684
 30
0.0
 11
1343.204457103336
 21
-835.3362543675684
 31
0.0
  0
LINE
  5
165
330
15F
100
AcDbEntity
  8
DIM
440
 16777216
370
    -2
100
AcDbLine
 10
1343.204457103336
 20
-835.3362543675684
 30
0.0
 11
1346.204457103336
 21
-835.3362543675684
 31
0.0
  0
SOLID
  5
166
330
15F
100
AcDbEntity
  8
DIM
440
 16777216
100
AcDbTrace
 10
1342.704457103337
 20
-842.2162543675659
 30
0.0
 11
1343.704457103336
 21
-842.2162543675659
 31
0.0
 12
1343.204457103336
 22
-845.2162543675658
 32
0.0
 13
1343.204457103336
 23
-845.2162543675658
 33
0.0
  0
SOLID
  5
167
330
15F
100
AcDbEntity
  8
DIM
440
 16777216
100
AcDbTrace
 10
1342.704457103337
 20
-841.3362543675685
 30
0.0
 11
1343.704457103336
 21
-841.3362543675685
 31
0.0
 12
1343.204457103336
 22
-838.3362543675684
 32
0.0
 13
1343.204457103336
 23
-838.3362543675684
 33
0.0
  0
MTEXT
  5
168
330
15F
100
AcDbEntity
  8
DIM
440
 16777216
100
AcDbMText
 10
1347.675885674765
 20
-835.3362543675682
 30
0.0
 40
3.0
 41
0.0
 46
0.0
 71
     5
 72
     1
  1
C
 73
     1
 44
1.0
  0
POINT
  5
169
330
15F
100
AcDbEntity
  8
Defpoints
 62
     0
440
 16777216
100
AcDbPoint
 10
1353.079051395476
 20
-845.2162543675658
 30
0.0
  0
POINT
  5
16A
330
15F
100
AcDbEntity
  8
Defpoints
 62
     0
440
 16777216
100
AcDbPoint
 10
1356.079051395483
 20
-838.3362543675684
 30
0.0
  0
POINT
  5
16B
330
15F
100
AcDbEntity
  8
Defpoints
 62
     0
440
 16777216
100
AcDbPoint
 10
1343.204457103336
 20
-838.3362543675684
 30
0.0
  0
ENDBLK
  5
16C
330
15F
100
AcDbEntity
  8
0
100
AcDbBlockEnd
  0
BLOCK
  5
171
330
170
100
AcDbEntity
  8
0
100
AcDbBlockBegin
  2
*D9
 70
     1
 10
0.0
 20
0.0
 30
0.0
  3
*D9
  1

  0
LINE
  5
172
330
170
100
AcDbEntity
  8
DIM
440
 16777216
370
    -2
100
AcDbLine
 10
1391.391551395483
 20
-844.4162543675702
 30
0.0
 11
1396.471798398404
 21
-844.4162543675702
 31
0.0
  0
LINE
  5
173
330
170
100
AcDbEntity
  8
DIM
440
 16777216
370
    -2
100
AcDbLine
 10
1389.391551395483
 20
-845.2162543675694
 30
0.0
 11
1396.471798398404
 21
-845.2162543675694
 31
0.0
  0
LINE
  5
174
330
170
100
AcDbEntity
  8
DIM
440
 16777216
370
    -2
100
AcDbLine
 10
1395.846798398405
 20
-841.4162543675702
 30
0.0
 11
1395.846798398405
 21
-838.4162543675701
 31
0.0
  0
LINE
  5
175
330
170
100
AcDbEntity
  8
DIM
440
 16777216
370
    -2
100
AcDbLine
 10
1395.846798398405
 20
-848.2162543675695
 30
0.0
 11
1395.846798398405
 21
-851.2162543675694
 31
0.0
  0
LINE
  5
176
330
170
100
AcDbEntity
  8
DIM
440
 16777216
370
    -2
100
AcDbLine
 10
1395.846798398405
 20
-851.2162543675694
 30
0.0
 11
1392.846798398404
 21
-851.2162543675694
 31
0.0
  0
LINE
  5
177
330
170
100
AcDbEntity
  8
DIM
440
 16777216
370
    -2
100
AcDbLine
 10
1395.846798398405
 20
-844.4162543675702
 30
0.0
 11
1395.846798398405
 21
-845.2162543675694
 31
0.0
  0
SOLID
  5
178
330
170
100
AcDbEntity
  8
DIM
440
 16777216
100
AcDbTrace
 10
1395.346798398404
 20
-841.4162543675702
 30
0.0
 11
1396.346798398404
 21
-841.4162543675702
 31
0.0
 12
1395.846798398405
 22
-844.4162543675702
 32
0.0
 13
1395.846798398405
 23
-844.4162543675702
 33
0.0
  0
SOLID
  5
179
330
170
100
AcDbEntity
  8
DIM
440
 16777216
100
AcDbTrace
 10
1395.346798398404
 20
-848.2162543675695
 30
0.0
 11
1396.346798398404
 21
-848.2162543675695
 31
0.0
 12
1395.846798398405
 22
-845.2162543675694
 32
0.0
 13
1395.846798398405
 23
-845.2162543675694
 33
0.0
  0
MTEXT
  5
17A
330
170
100
AcDbEntity
  8
DIM
440
 16777216
100
AcDbMText
 10
1390.446798398405
 20
-851.2162543675692
 30
0.0
 40
3.0
 41
0.0
 46
0.0
 71
     5
 72
     1
  1
A1
 73
     1
 44
1.0
  0
POINT
  5
17B
330
170
100
AcDbEntity
  8
Defpoints
 62
     0
440
 16777216
100
AcDbPoint
 10
1391.079051395483
 20
-844.4162543675702
 30
0.0
  0
POINT
  5
17C
330
170
100
AcDbEntity
  8
Defpoints
 62
     0
440
 16777216
100
AcDbPoint
 10
1389.079051395483
 20
-845.2162543675694
 30
0.0
  0
POINT
  5
17D
330
170
100
AcDbEntity
  8
Defpoints
 62
     0
440
 16777216
100
AcDbPoint
 10
1395.846798398405
 20
-845.2162543675694
 30
0.0
  0
ENDBLK
  5
17E
330
170
100
AcDbEntity
  8
0
100
AcDbBlockEnd
  0
BLOCK
  5
183
330
182
100
AcDbEntity
  8
0
100
AcDbBlockBegin
  2
*D10
 70
     1
 10
0.0
 20
0.0
 30
0.0
  3
*D10
  1

  0
LINE
  5
184
330
182
100
AcDbEntity
  8
DIM
440
 16777216
370
    -2
100
AcDbLine
 10
1391.391551395483
 20
-825.2162543675694
 30
0.0
 11
1404.508793315268
 21
-825.2162543675694
 31
0.0
  0
LINE
  5
185
330
182
100
AcDbEntity
  8
DIM
440
 16777216
370
    -2
100
AcDbLine
 10
1389.391551395483
 20
-845.2162543675694
 30
0.0
 11
1404.508793315268
 21
-845.2162543675694
 31
0.0
  0
LINE
  5
186
330
182
100
AcDbEntity
  8
DIM
440
 16777216
370
    -2
100
AcDbLine
 10
1403.883793315268
 20
-828.2162543675694
 30
0.0
 11
1403.883793315268
 21
-833.3162543675694
 31
0.0
  0
LINE
  5
187
330
182
100
AcDbEntity
  8
DIM
440
 16777216
370
    -2
100
AcDbLine
 10
1403.883793315268
 20
-842.2162543675694
 30
0.0
 11
1403.883793315268
 21
-837.1162543675694
 31
0.0
  0
SOLID
  5
188
330
182
100
AcDbEntity
  8
DIM
440
 16777216
100
AcDbTrace
 10
1403.383793315268
 20
-828.2162543675694
 30
0.0
 11
1404.383793315268
 21
-828.2162543675694
 31
0.0
 12
1403.883793315268
 22
-825.2162543675694
 32
0.0
 13
1403.883793315268
 23
-825.2162543675694
 33
0.0
  0
SOLID
  5
189
330
182
100
AcDbEntity
  8
DIM
440
 16777216
100
AcDbTrace
 10
1403.383793315268
 20
-842.2162543675694
 30
0.0
 11
1404.383793315268
 21
-842.2162543675694
 31
0.0
 12
1403.883793315268
 22
-845.2162543675694
 32
0.0
 13
1403.883793315268
 23
-845.2162543675694
 33
0.0
  0
MTEXT
  5
18A
330
182
100
AcDbEntity
  8
DIM
440
 16777216
100
AcDbMText
 10
1403.883793315268
 20
-835.2162543675692
 30
0.0
 40
3.0
 41
0.0
 46
0.0
 71
     5
 72
     1
  1
A
 73
     1
 44
1.0
  0
POINT
  5
18B
330
182
100
AcDbEntity
  8
Defpoints
 62
     0
440
 16777216
100
AcDbPoint
 10
1391.079051395483
 20
-825.2162543675694
 30
0.0
  0
POINT
  5
18C
330
182
100
AcDbEntity
  8
Defpoints
 62
     0
440
 16777216
100
AcDbPoint
 10
1389.079051395483
 20
-845.2162543675694
 30
0.0
  0
POINT
  5
18D
330
182
100
AcDbEntity
  8
Defpoints
 62
     0
440
 16777216
100
AcDbPoint
 10
1403.883793315268
 20
-845.2162543675694
 30
0.0
  0
ENDBLK
  5
18E
330
182
100
AcDbEntity
  8
0
100
AcDbBlockEnd
  0
BLOCK
  5
198
330
197
100
AcDbEntity
  8
0
100
AcDbBlockBegin
  2
*D11
 70
     1
 10
0.0
 20
0.0
 30
0.0
  3
*D11
  1

  0
LINE
  5
199
330
197
100
AcDbEntity
  8
DIM
440
 16777216
370
    -2
100
AcDbLine
 10
1473.002685308745
 20
-774.3492498504296
 30
0.0
 11
1473.002685308745
 21
-768.1890250438065
 31
0.0
  0
LINE
  5
19A
330
197
100
AcDbEntity
  8
DIM
440
 16777216
370
    -2
100
AcDbLine
 10
1499.002685308752
 20
-774.3492498504295
 30
0.0
 11
1499.002685308752
 21
-768.1890250438065
 31
0.0
  0
LINE
  5
19B
330
197
100
AcDbEntity
  8
DIM
440
 16777216
370
    -2
100
AcDbLine
 10
1476.002685308745
 20
-768.8140250438065
 30
0.0
 11
1484.745542451606
 21
-768.8140250438065
 31
0.0
  0
LINE
  5
19C
330
197
100
AcDbEntity
  8
DIM
440
 16777216
370
    -2
100
AcDbLine
 10
1496.002685308752
 20
-768.8140250438065
 30
0.0
 11
1487.259828165891
 21
-768.8140250438065
 31
0.0
  0
SOLID
  5
19D
330
197
100
AcDbEntity
  8
DIM
440
 16777216
100
AcDbTrace
 10
1476.002685308745
 20
-768.3140250438065
 30
0.0
 11
1476.002685308745
 21
-769.3140250438065
 31
0.0
 12
1473.002685308745
 22
-768.8140250438065
 32
0.0
 13
1473.002685308745
 23
-768.8140250438065
 33
0.0
  0
SOLID
  5
19E
330
197
100
AcDbEntity
  8
DIM
440
 16777216
100
AcDbTrace
 10
1496.002685308752
 20
-768.3140250438065
 30
0.0
 11
1496.002685308752
 21
-769.3140250438065
 31
0.0
 12
1499.002685308752
 22
-768.8140250438065
 32
0.0
 13
1499.002685308752
 23
-768.8140250438065
 33
0.0
  0
MTEXT
  5
19F
330
197
100
AcDbEntity
  8
DIM
440
 16777216
100
AcDbMText
 10
1486.002685308748
 20
-768.8140250438065
 30
0.0
 40
3.0
 41
0.0
 46
0.0
 71
     5
 72
     1
  1
e
 73
     1
 44
1.0
  0
POINT
  5
1A0
330
197
100
AcDbEntity
  8
Defpoints
 62
     0
440
 16777216
100
AcDbPoint
 10
1473.002685308745
 20
-774.6617498504296
 30
0.0
  0
POINT
  5
1A1
330
197
100
AcDbEntity
  8
Defpoints
 62
     0
440
 16777216
100
AcDbPoint
 10
1499.002685308752
 20
-774.6617498504295
 30
0.0
  0
POINT
  5
1A2
330
197
100
AcDbEntity
  8
Defpoints
 62
     0
440
 16777216
100
AcDbPoint
 10
1499.002685308752
 20
-768.8140250438065
 30
0.0
  0
ENDBLK
  5
1A3
330
197
100
AcDbEntity
  8
0
100
AcDbBlockEnd
  0
BLOCK
  5
1A8
330
1A7
100
AcDbEntity
  8
0
100
AcDbBlockBegin
  2
*D12
 70
     1
 10
0.0
 20
0.0
 30
0.0
  3
*D12
  1

  0
LINE
  5
1A9
330
1A7
100
AcDbEntity
  8
DIM
440
 16777216
370
    -2
100
AcDbLine
 10
1468.002685308745
 20
-776.4901821437645
 30
0.0
 11
1468.002685308745
 21
-770.5613712053692
 31
0.0
  0
LINE
  5
1AA
330
1A7
100
AcDbEntity
  8
DIM
440
 16777216
370
    -2
100
AcDbLine
 10
1466.002685308752
 20
-774.4901821437642
 30
0.0
 11
1466.002685308752
 21
-770.5613712053692
 31
0.0
  0
LINE
  5
1AB
330
1A7
100
AcDbEntity
  8
DIM
440
 16777216
370
    -2
100
AcDbLine
 10
1471.002685308745
 20
-771.1863712053692
 30
0.0
 11
1474.002685308745
 21
-771.1863712053692
 31
0.0
  0
LINE
  5
1AC
330
1A7
100
AcDbEntity
  8
DIM
440
 16777216
370
    -2
100
AcDbLine
 10
1463.002685308752
 20
-771.1863712053692
 30
0.0
 11
1460.002685308752
 21
-771.1863712053692
 31
0.0
  0
LINE
  5
1AD
330
1A7
100
AcDbEntity
  8
DIM
440
 16777216
370
    -2
100
AcDbLine
 10
1468.002685308745
 20
-771.1863712053692
 30
0.0
 11
1466.002685308752
 21
-771.1863712053692
 31
0.0
  0
SOLID
  5
1AE
330
1A7
100
AcDbEntity
  8
DIM
440
 16777216
100
AcDbTrace
 10
1471.002685308745
 20
-770.6863712053692
 30
0.0
 11
1471.002685308745
 21
-771.6863712053692
 31
0.0
 12
1468.002685308745
 22
-771.1863712053692
 32
0.0
 13
1468.002685308745
 23
-771.1863712053692
 33
0.0
  0
SOLID
  5
1AF
330
1A7
100
AcDbEntity
  8
DIM
440
 16777216
100
AcDbTrace
 10
1463.002685308752
 20
-770.6863712053692
 30
0.0
 11
1463.002685308752
 21
-771.6863712053692
 31
0.0
 12
1466.002685308752
 22
-771.1863712053692
 32
0.0
 13
1466.002685308752
 23
-771.1863712053692
 33
0.0
  0
MTEXT
  5
1B0
330
1A7
100
AcDbEntity
  8
DIM
440
 16777216
100
AcDbMText
 10
1457.888399594466
 20
-771.1863712053692
 30
0.0
 40
3.0
 41
0.0
 46
0.0
 71
     5
 72
     1
  1
L1
 73
     1
 44
1.0
  0
POINT
  5
1B1
330
1A7
100
AcDbEntity
  8
Defpoints
 62
     0
440
 16777216
100
AcDbPoint
 10
1468.002685308745
 20
-776.8026821437644
 30
0.0
  0
POINT
  5
1B2
330
1A7
100
AcDbEntity
  8
Defpoints
 62
     0
440
 16777216
100
AcDbPoint
 10
1466.002685308752
 20
-774.8026821437642
 30
0.0
  0
POINT
  5
1B3
330
1A7
100
AcDbEntity
  8
Defpoints
 62
     0
440
 16777216
100
AcDbPoint
 10
1466.002685308752
 20
-771.1863712053692
 30
0.0
  0
ENDBLK
  5
1B4
330
1A7
100
AcDbEntity
  8
0
100
AcDbBlockEnd
  0
BLOCK
  5
1B9
330
1B8
100
AcDbEntity
  8
0
100
AcDbBlockBegin
  2
*D13
 70
     1
 10
0.0
 20
0.0
 30
0.0
  3
*D13
  1

  0
LINE
  5
1BA
330
1B8
100
AcDbEntity
  8
DIM
440
 16777216
370
    -2
100
AcDbLine
 10
1467.690185308745
 20
-776.8026821437644
 30
0.0
 11
1452.8050873255
 21
-776.8026821437644
 31
0.0
  0
LINE
  5
1BB
330
1B8
100
AcDbEntity
  8
DIM
440
 16777216
370
    -2
100
AcDbLine
 10
1467.690185308745
 20
-796.8026821437645
 30
0.0
 11
1452.8050873255
 21
-796.8026821437645
 31
0.0
  0
LINE
  5
1BC
330
1B8
100
AcDbEntity
  8
DIM
440
 16777216
370
    -2
100
AcDbLine
 10
1453.4300873255
 20
-779.8026821437645
 30
0.0
 11
1453.4300873255
 21
-784.9026821437645
 31
0.0
  0
LINE
  5
1BD
330
1B8
100
AcDbEntity
  8
DIM
440
 16777216
370
    -2
100
AcDbLine
 10
1453.4300873255
 20
-793.8026821437645
 30
0.0
 11
1453.4300873255
 21
-788.7026821437644
 31
0.0
  0
SOLID
  5
1BE
330
1B8
100
AcDbEntity
  8
DIM
440
 16777216
100
AcDbTrace
 10
1452.9300873255
 20
-779.8026821437645
 30
0.0
 11
1453.9300873255
 21
-779.8026821437645
 31
0.0
 12
1453.4300873255
 22
-776.8026821437644
 32
0.0
 13
1453.4300873255
 23
-776.8026821437644
 33
0.0
  0
SOLID
  5
1BF
330
1B8
100
AcDbEntity
  8
DIM
440
 16777216
100
AcDbTrace
 10
1452.9300873255
 20
-793.8026821437645
 30
0.0
 11
1453.9300873255
 21
-793.8026821437645
 31
0.0
 12
1453.4300873255
 22
-796.8026821437645
 32
0.0
 13
1453.4300873255
 23
-796.8026821437645
 33
0.0
  0
MTEXT
  5
1C0
330
1B8
100
AcDbEntity
  8
DIM
440
 16777216
100
AcDbMText
 10
1453.4300873255
 20
-786.8026821437642
 30
0.0
 40
3.0
 41
0.0
 46
0.0
 71
     5
 72
     1
  1
b
 73
     1
 44
1.0
  0
POINT
  5
1C1
330
1B8
100
AcDbEntity
  8
Defpoints
 62
     0
440
 16777216
100
AcDbPoint
 10
1468.002685308745
 20
-776.8026821437644
 30
0.0
  0
POINT
  5
1C2
330
1B8
100
AcDbEntity
  8
Defpoints
 62
     0
440
 16777216
100
AcDbPoint
 10
1468.002685308745
 20
-796.8026821437645
 30
0.0
  0
POINT
  5
1C3
330
1B8
100
AcDbEntity
  8
Defpoints
 62
     0
440
 16777216
100
AcDbPoint
 10
1453.4300873255
 20
-796.8026821437645
 30
0.0
  0
ENDBLK
  5
1C4
330
1B8
100
AcDbEntity
  8
0
100
AcDbBlockEnd
  0
BLOCK
  5
1C9
330
1C8
100
AcDbEntity
  8
0
100
AcDbBlockBegin
  2
*D14
 70
     1
 10
0.0
 20
0.0
 30
0.0
  3
*D14
  1

  0
LINE
  5
1CA
330
1C8
100
AcDbEntity
  8
DIM
440
 16777216
370
    -2
100
AcDbLine
 10
1468.002685308745
 20
-797.1151821437644
 30
0.0
 11
1468.002685308745
 21
-806.4914296805302
 31
0.0
  0
LINE
  5
1CB
330
1C8
100
AcDbEntity
  8
DIM
440
 16777216
370
    -2
100
AcDbLine
 10
1478.002685308745
 20
-797.1151821437644
 30
0.0
 11
1478.002685308745
 21
-806.4914296805302
 31
0.0
  0
LINE
  5
1CC
330
1C8
100
AcDbEntity
  8
DIM
440
 16777216
370
    -2
100
AcDbLine
 10
1471.002685308745
 20
-805.86642968053
 30
0.0
 11
1471.745542451602
 21
-805.86642968053
 31
0.0
  0
LINE
  5
1CD
330
1C8
100
AcDbEntity
  8
DIM
440
 16777216
370
    -2
100
AcDbLine
 10
1475.002685308745
 20
-805.86642968053
 30
0.0
 11
1474.259828165888
 21
-805.86642968053
 31
0.0
  0
SOLID
  5
1CE
330
1C8
100
AcDbEntity
  8
DIM
440
 16777216
100
AcDbTrace
 10
1471.002685308745
 20
-805.3664296805301
 30
0.0
 11
1471.002685308745
 21
-806.3664296805301
 31
0.0
 12
1468.002685308745
 22
-805.86642968053
 32
0.0
 13
1468.002685308745
 23
-805.86642968053
 33
0.0
  0
SOLID
  5
1CF
330
1C8
100
AcDbEntity
  8
DIM
440
 16777216
100
AcDbTrace
 10
1475.002685308745
 20
-805.3664296805301
 30
0.0
 11
1475.002685308745
 21
-806.3664296805301
 31
0.0
 12
1478.002685308745
 22
-805.86642968053
 32
0.0
 13
1478.002685308745
 23
-805.86642968053
 33
0.0
  0
MTEXT
  5
1D0
330
1C8
100
AcDbEntity
  8
DIM
440
 16777216
100
AcDbMText
 10
1473.002685308745
 20
-805.86642968053
 30
0.0
 40
3.0
 41
0.0
 46
0.0
 71
     5
 72
     1
  1
L
 73
     1
 44
1.0
  0
POINT
  5
1D1
330
1C8
100
AcDbEntity
  8
Defpoints
 62
     0
440
 16777216
100
AcDbPoint
 10
1468.002685308745
 20
-796.8026821437644
 30
0.0
  0
POINT
  5
1D2
330
1C8
100
AcDbEntity
  8
Defpoints
 62
     0
440
 16777216
100
AcDbPoint
 10
1478.002685308745
 20
-796.8026821437644
 30
0.0
  0
POINT
  5
1D3
330
1C8
100
AcDbEntity
  8
Defpoints
 62
     0
440
 16777216
100
AcDbPoint
 10
1478.002685308745
 20
-805.86642968053
 30
0.0
  0
ENDBLK
  5
1D4
330
1C8
100
AcDbEntity
  8
0
100
AcDbBlockEnd
  0
BLOCK
  5
1E8
330
1E7
100
AcDbEntity
  8
0
100
AcDbBlockBegin
  2
*D15
 70
     1
 10
0.0
 20
0.0
 30
0.0
  3
*D15
  1

  0
LINE
  5
1E9
330
1E7
100
AcDbEntity
  8
DIM
440
 16777216
370
    -2
100
AcDbLine
 10
1499.515185308752
 20
-776.8026821437644
 30
0.0
 11
1512.874498662816
 21
-776.8026821437644
 31
0.0
  0
LINE
  5
1EA
330
1E7
100
AcDbEntity
  8
DIM
440
 16777216
370
    -2
100
AcDbLine
 10
1504.315185308752
 20
-781.6026821437644
 30
0.0
 11
1512.874498662816
 21
-781.6026821437644
 31
0.0
  0
LINE
  5
1EB
330
1E7
100
AcDbEntity
  8
DIM
440
 16777216
370
    -2
100
AcDbLine
 10
1512.249498662816
 20
-773.8026821437643
 30
0.0
 11
1512.249498662816
 21
-770.8026821437644
 31
0.0
  0
LINE
  5
1EC
330
1E7
100
AcDbEntity
  8
DIM
440
 16777216
370
    -2
100
AcDbLine
 10
1512.249498662816
 20
-784.6026821437643
 30
0.0
 11
1512.249498662816
 21
-787.6026821437643
 31
0.0
  0
LINE
  5
1ED
330
1E7
100
AcDbEntity
  8
DIM
440
 16777216
370
    -2
100
AcDbLine
 10
1512.249498662816
 20
-776.8026821437644
 30
0.0
 11
1512.249498662816
 21
-777.3026821437643
 31
0.0
  0
LINE
  5
1EE
330
1E7
100
AcDbEntity
  8
DIM
440
 16777216
370
    -2
100
AcDbLine
 10
1512.249498662816
 20
-781.6026821437644
 30
0.0
 11
1512.249498662816
 21
-781.1026821437644
 31
0.0
  0
SOLID
  5
1EF
330
1E7
100
AcDbEntity
  8
DIM
440
 16777216
100
AcDbTrace
 10
1511.749498662816
 20
-773.8026821437643
 30
0.0
 11
1512.749498662816
 21
-773.8026821437643
 31
0.0
 12
1512.249498662816
 22
-776.8026821437644
 32
0.0
 13
1512.249498662816
 23
-776.8026821437644
 33
0.0
  0
SOLID
  5
1F0
330
1E7
100
AcDbEntity
  8
DIM
440
 16777216
100
AcDbTrace
 10
1511.749498662816
 20
-784.6026821437643
 30
0.0
 11
1512.749498662816
 21
-784.6026821437643
 31
0.0
 12
1512.249498662816
 22
-781.6026821437644
 32
0.0
 13
1512.249498662816
 23
-781.6026821437644
 33
0.0
  0
MTEXT
  5
1F1
330
1E7
100
AcDbEntity
  8
DIM
440
 16777216
100
AcDbMText
 10
1512.249498662816
 20
-779.2026821437641
 30
0.0
 40
3.0
 41
0.0
 46
0.0
 71
     5
 72
     1
  1
h
 73
     1
 44
1.0
  0
POINT
  5
1F2
330
1E7
100
AcDbEntity
  8
Defpoints
 62
     0
440
 16777216
100
AcDbPoint
 10
1499.202685308752
 20
-776.8026821437644
 30
0.0
  0
POINT
  5
1F3
330
1E7
100
AcDbEntity
  8
Defpoints
 62
     0
440
 16777216
100
AcDbPoint
 10
1504.002685308752
 20
-781.6026821437644
 30
0.0
  0
POINT
  5
1F4
330
1E7
100
AcDbEntity
  8
Defpoints
 62
     0
440
 16777216
100
AcDbPoint
 10
1512.249498662816
 20
-781.6026821437644
 30
0.0
  0
ENDBLK
  5
1F5
330
1E7
100
AcDbEntity
  8
0
100
AcDbBlockEnd
  0
BLOCK
  5
1FA
330
1F9
100
AcDbEntity
  8
0
100
AcDbBlockBegin
  2
*D16
 70
     1
 10
0.0
 20
0.0
 30
0.0
  3
*D16
  1

  0
LINE
  5
1FB
330
1F9
100
AcDbEntity
  8
DIM
440
 16777216
370
    -2
100
AcDbLine
 10
1499.202685308752
 20
-776.4901821437644
 30
0.0
 11
1499.202685308752
 21
-770.0353256142311
 31
0.0
  0
LINE
  5
1FC
330
1F9
100
AcDbEntity
  8
DIM
440
 16777216
370
    -2
100
AcDbLine
 10
1504.002685308752
 20
-781.2901821437643
 30
0.0
 11
1504.002685308752
 21
-770.0353256142311
 31
0.0
  0
LINE
  5
1FD
330
1F9
100
AcDbEntity
  8
DIM
440
 16777216
370
    -2
100
AcDbLine
 10
1496.202685308752
 20
-770.6603256142312
 30
0.0
 11
1493.202685308752
 21
-770.6603256142312
 31
0.0
  0
LINE
  5
1FE
330
1F9
100
AcDbEntity
  8
DIM
440
 16777216
370
    -2
100
AcDbLine
 10
1507.002685308752
 20
-770.6603256142312
 30
0.0
 11
1510.002685308752
 21
-770.6603256142312
 31
0.0
  0
LINE
  5
1FF
330
1F9
100
AcDbEntity
  8
DIM
440
 16777216
370
    -2
100
AcDbLine
 10
1499.202685308752
 20
-770.6603256142312
 30
0.0
 11
1500.416971023038
 21
-770.6603256142312
 31
0.0
  0
LINE
  5
200
330
1F9
100
AcDbEntity
  8
DIM
440
 16777216
370
    -2
100
AcDbLine
 10
1504.002685308752
 20
-770.6603256142312
 30
0.0
 11
1502.788399594466
 21
-770.6603256142312
 31
0.0
  0
SOLID
  5
201
330
1F9
100
AcDbEntity
  8
DIM
440
 16777216
100
AcDbTrace
 10
1496.202685308752
 20
-770.1603256142312
 30
0.0
 11
1496.202685308752
 21
-771.1603256142312
 31
0.0
 12
1499.202685308752
 22
-770.6603256142312
 32
0.0
 13
1499.202685308752
 23
-770.6603256142312
 33
0.0
  0
SOLID
  5
202
330
1F9
100
AcDbEntity
  8
DIM
440
 16777216
100
AcDbTrace
 10
1507.002685308752
 20
-770.1603256142312
 30
0.0
 11
1507.002685308752
 21
-771.1603256142312
 31
0.0
 12
1504.002685308752
 22
-770.6603256142312
 32
0.0
 13
1504.002685308752
 23
-770.6603256142312
 33
0.0
  0
MTEXT
  5
203
330
1F9
100
AcDbEntity
  8
DIM
440
 16777216
100
AcDbMText
 10
1501.602685308752
 20
-770.6603256142312
 30
0.0
 40
3.0
 41
0.0
 46
0.0
 71
     5
 72
     1
  1
h
 73
     1
 44
1.0
  0
POINT
  5
204
330
1F9
100
AcDbEntity
  8
Defpoints
 62
     0
440
 16777216
100
AcDbPoint
 10
1499.202685308752
 20
-776.8026821437644
 30
0.0
  0
POINT
  5
205
330
1F9
100
AcDbEntity
  8
Defpoints
 62
     0
440
 16777216
100
AcDbPoint
 10
1504.002685308752
 20
-781.6026821437644
 30
0.0
  0
POINT
  5
206
330
1F9
100
AcDbEntity
  8
Defpoints
 62
     0
440
 16777216
100
AcDbPoint
 10
1504.002685308752
 20
-770.6603256142312
 30
0.0
  0
ENDBLK
  5
207
330
1F9
100
AcDbEntity
  8
0
100
AcDbBlockEnd
  0
BLOCK
  5
20C
330
20B
100
AcDbEntity
  8
0
100
AcDbBlockBegin
  2
*D17
 70
     1
 10
0.0
 20
0.0
 30
0.0
  3
*D17
  1

  0
LINE
  5
20D
330
20B
100
AcDbEntity
  8
DIM
440
 16777216
370
    -2
100
AcDbLine
 10
1504.315185308752
 20
-796.8026821437643
 30
0.0
 11
1511.039257335092
 21
-796.8026821437643
 31
0.0
  0
LINE
  5
20E
330
20B
100
AcDbEntity
  8
DIM
440
 16777216
370
    -2
100
AcDbLine
 10
1506.315185308752
 20
-798.8026821437645
 30
0.0
 11
1511.039257335092
 21
-798.8026821437645
 31
0.0
  0
LINE
  5
20F
330
20B
100
AcDbEntity
  8
DIM
440
 16777216
370
    -2
100
AcDbLine
 10
1510.414257335092
 20
-793.8026821437643
 30
0.0
 11
1510.414257335092
 21
-790.8026821437642
 31
0.0
  0
LINE
  5
210
330
20B
100
AcDbEntity
  8
DIM
440
 16777216
370
    -2
100
AcDbLine
 10
1510.414257335092
 20
-801.8026821437645
 30
0.0
 11
1510.414257335092
 21
-804.8026821437645
 31
0.0
  0
LINE
  5
211
330
20B
100
AcDbEntity
  8
DIM
440
 16777216
370
    -2
100
AcDbLine
 10
1510.414257335092
 20
-804.8026821437645
 30
0.0
 11
1507.414257335092
 21
-804.8026821437645
 31
0.0
  0
LINE
  5
212
330
20B
100
AcDbEntity
  8
DIM
440
 16777216
370
    -2
100
AcDbLine
 10
1510.414257335092
 20
-796.8026821437643
 30
0.0
 11
1510.414257335092
 21
-798.8026821437645
 31
0.0
  0
SOLID
  5
213
330
20B
100
AcDbEntity
  8
DIM
440
 16777216
100
AcDbTrace
 10
1509.914257335092
 20
-793.8026821437643
 30
0.0
 11
1510.914257335092
 21
-793.8026821437643
 31
0.0
 12
1510.414257335092
 22
-796.8026821437643
 32
0.0
 13
1510.414257335092
 23
-796.8026821437643
 33
0.0
  0
SOLID
  5
214
330
20B
100
AcDbEntity
  8
DIM
440
 16777216
100
AcDbTrace
 10
1509.914257335092
 20
-801.8026821437645
 30
0.0
 11
1510.914257335092
 21
-801.8026821437645
 31
0.0
 12
1510.414257335092
 22
-798.8026821437645
 32
0.0
 13
1510.414257335092
 23
-798.8026821437645
 33
0.0
  0
MTEXT
  5
215
330
20B
100
AcDbEntity
  8
DIM
440
 16777216
100
AcDbMText
 10
1505.299971620806
 20
-804.8026821437643
 30
0.0
 40
3.0
 41
0.0
 46
0.0
 71
     5
 72
     1
  1
L1
 73
     1
 44
1.0
  0
POINT
  5
216
330
20B
100
AcDbEntity
  8
Defpoints
 62
     0
440
 16777216
100
AcDbPoint
 10
1504.002685308752
 20
-796.8026821437643
 30
0.0
  0
POINT
  5
217
330
20B
100
AcDbEntity
  8
Defpoints
 62
     0
440
 16777216
100
AcDbPoint
 10
1506.002685308752
 20
-798.8026821437645
 30
0.0
  0
POINT
  5
218
330
20B
100
AcDbEntity
  8
Defpoints
 62
     0
440
 16777216
100
AcDbPoint
 10
1510.414257335092
 20
-798.8026821437645
 30
0.0
  0
ENDBLK
  5
219
330
20B
100
AcDbEntity
  8
0
100
AcDbBlockEnd
  0
BLOCK
  5
220
330
21F
100
AcDbEntity
  8
0
100
AcDbBlockBegin
  2
*D18
 70
     1
 10
0.0
 20
0.0
 30
0.0
  3
*D18
  1

  0
LINE
  5
221
330
21F
100
AcDbEntity
  8
0
440
 16777216
370
    -2
100
AcDbLine
 10
1397.138883985193
 20
-904.3195584861003
 30
0.0
 11
1397.138883985193
 21
-898.6320584861003
 31
0.0
  0
LINE
  5
222
330
21F
100
AcDbEntity
  8
0
440
 16777216
370
    -2
100
AcDbLine
 10
1397.138883985193
 20
-898.6320584861003
 30
0.0
 11
1400.231111882422
 21
-898.8807195571748
 31
0.0
  0
LINE
  5
223
330
21F
100
AcDbEntity
  8
0
440
 16777216
370
    -2
100
AcDbLine
 10
1400.231111882422
 20
-898.8807195571748
 30
0.0
 11
1400.231111882422
 21
-892.8807195571748
 31
0.0
  0
MTEXT
  5
224
330
21F
100
AcDbEntity
  8
0
440
 16777216
100
AcDbMText
 10
1400.231111882423
 20
-879.809290985746
 30
0.0
 40
3.0
 41
0.0
 46
0.0
 71
     5
 72
     1
  1
\A1;0.020{\H2.400000;±0.025}
 11
0.0000000000000001
 21
1.0
 31
0.0
 73
     1
 44
1.0
  0
POINT
  5
225
330
21F
100
AcDbEntity
  8
Defpoints
 62
     0
440
 16777216
100
AcDbPoint
 10
1397.138883985193
 20
-904.6320584861003
 30
0.0
  0
POINT
  5
226
330
21F
100
AcDbEntity
  8
Defpoints
 62
     0
440
 16777216
100
AcDbPoint
 10
1400.231111882422
 20
-892.8807195571748
 30
0.0
  0
POINT
  5
227
330
21F
100
AcDbEntity
  8
Defpoints
 62
     0
440
 16777216
100
AcDbPoint
 10
1396.338883985193
 20
-917.3292916407858
 30
0.0
  0
ENDBLK
  5
228
330
21F
100
AcDbEntity
  8
0
100
AcDbBlockEnd
  0
ENDSEC
  0
SECTION
  2
ENTITIES
  0
MTEXT
  5
76
330
2
100
AcDbEntity
  8
DIM
100
AcDbMText
 10
-18.33511214325563
 20
-19.19504619720055
 30
0.0
 40
2.0
 41
99.52716310198002
 46
0.0
 71
     1
 72
     5
  1
{\H1.5x;PLATING REFERENCE}
 73
     1
 44
1.0
101
Embedded Object
 70
     1
 10
1.0
 20
0.0
 30
0.0
 11
-18.33511214325563
 21
-19.19504619720055
 31
0.0
 40
99.52716310198002
 41
0.0
 42
45.28571428571427
 43
3.000000000000004
 71
     2
 72
     1
 44
99.52716310198002
 45
1.0
 73
     0
 74
     0
 46
0.0
  0
LINE
  5
79
330
2
100
AcDbEntity
  8
DIM
100
AcDbLine
 10
-18.87324159315904
 20
-23.00880585321738
 30
0.0
 11
28.86681088183059
 21
-23.00880585321738
 31
0.0
  0
ARC
  5
7A
330
2
100
AcDbEntity
  8
B
100
AcDbCircle
 10
-8.999999999999545
 20
10.01599208867674
 30
0.0
 40
2.0
100
AcDbArc
 50
180.0
 51
269.9999999999739
  0
LINE
  5
80
330
2
100
AcDbEntity
  8
B
100
AcDbLine
 10
-8.999999999997498
 20
-11.18400791131955
 30
0.0
 11
-0.1999999999993633
 21
-11.18400791131955
 31
0.0
  0
ARC
  5
81
330
2
100
AcDbEntity
  8
B
100
AcDbCircle
 10
-0.1999999999993633
 20
-9.184007911321373
 30
0.0
 40
2.0
100
AcDbArc
 50
270.0
 51
0.0
  0
LINE
  5
82
330
2
100
AcDbEntity
  8
B
100
AcDbLine
 10
-17.39999999999963
 20
8.015992088678558
 30
0.0
 11
-17.40000000000122
 21
2.815992088676466
 31
0.0
  0
LINE
  5
83
330
2
100
AcDbEntity
  8
B
100
AcDbLine
 10
-17.40000000000032
 20
-5.984007911315529
 30
0.0
 11
-17.39999999999963
 21
-11.1840079113241
 31
0.0
  0
LINE
  5
84
330
2
100
AcDbEntity
  8
B
100
AcDbLine
 10
17.40000000000009
 20
8.015992088672646
 30
0.0
 11
17.40000000000009
 21
2.815992088676466
 31
0.0
  0
ARC
  5
85
330
2
100
AcDbEntity
  8
B
100
AcDbCircle
 10
8.879999999992378
 20
6.01599208867276
 30
0.0
 40
2.000000000000001
100
AcDbArc
 50
90.0
 51
180.0
  0
LINE
  5
86
330
2
100
AcDbEntity
  8
B
100
AcDbLine
 10
6.879999999998744
 20
6.01599208867276
 30
0.0
 11
6.879999999998744
 21
-9.17398278553469
 31
0.0
  0
ARC
  5
87
330
2
100
AcDbEntity
  8
B
100
AcDbCircle
 10
8.879999999998744
 20
-9.17398278553469
 30
0.0
 40
2.000000000000006
100
AcDbArc
 50
180.0
 51
270.0
  0
LINE
  5
88
330
2
100
AcDbEntity
  8
B
100
AcDbLine
 10
-19.99999999999954
 20
0.8159920886782856
 30
0.0
 11
-20.0
 21
0.8159920886782856
 31
0.0
  0
ARC
  5
89
330
2
100
AcDbEntity
  8
B
100
AcDbCircle
 10
-19.400000000001
 20
2.815992088676466
 30
0.0
 40
2.0
100
AcDbArc
 50
270.0
 51
0.0
  0
LINE
  5
8A
330
2
100
AcDbEntity
  8
B
100
AcDbLine
 10
-19.99999999999954
 20
-3.984007911317348
 30
0.0
 11
-19.99999999999545
 21
-3.984007911317348
 31
0.0
  0
ARC
  5
8B
330
2
100
AcDbEntity
  8
B
100
AcDbCircle
 10
-19.40000000000009
 20
-5.984007911315529
 30
0.0
 40
2.0
100
AcDbArc
 50
0.0
 51
89.99999999986973
  0
LINE
  5
8C
330
2
100
AcDbEntity
  8
B
100
AcDbLine
 10
1.799999999999272
 20
-9.184007911321259
 30
0.0
 11
1.799999999998362
 21
6.015992088675943
 31
0.0
  0
LINE
  5
8D
330
2
100
AcDbEntity
  8
B
100
AcDbLine
 10
-9.0
 20
8.015992088678558
 30
0.0
 11
-0.2000000000011823
 21
8.01599208867276
 31
0.0
  0
ARC
  5
8E
330
2
100
AcDbEntity
  8
B
100
AcDbCircle
 10
-0.2000000000025466
 20
6.01599208867583
 30
0.0
 40
2.0
100
AcDbArc
 50
0.0
 51
89.99999999996092
  0
ARC
  5
8F
330
2
100
AcDbEntity
  8
B
100
AcDbCircle
 10
-8.999999999997498
 20
-13.18400791131773
 30
0.0
 40
2.0
100
AcDbArc
 50
90.0
 51
180.0
  0
LINE
  5
90
330
2
100
AcDbEntity
  8
B
100
AcDbLine
 10
17.39999999999463
 20
-5.955580786571772
 30
0.0
 11
17.39999999999372
 21
-11.17398278553469
 31
0.0
  0
LINE
  5
91
330
2
100
AcDbEntity
  8
B
100
AcDbLine
 10
20.00000000000046
 20
0.8159920886782856
 30
0.0
 11
20.00000000000114
 21
0.8159920886782856
 31
0.0
  0
ARC
  5
92
330
2
100
AcDbEntity
  8
B
100
AcDbCircle
 10
19.40000000000054
 20
2.815992088676466
 30
0.0
 40
2.0
100
AcDbArc
 50
180.0
 51
270.0
  0
LINE
  5
93
330
2
100
AcDbEntity
  8
B
100
AcDbLine
 10
20.00000000000046
 20
-3.984007911317348
 30
0.0
 11
19.99999999999659
 21
-3.984007911317348
 31
0.0
  0
ARC
  5
94
330
2
100
AcDbEntity
  8
B
100
AcDbCircle
 10
19.39999999999441
 20
-5.984007911315529
 30
0.0
 40
2.0
100
AcDbArc
 50
90.00000000013027
 51
180.0
  0
LINE
  5
95
330
2
100
AcDbEntity
  8
PACKAGE OL
100
AcDbLine
 10
-19.99999999999818
 20
-13.58400791132226
 30
0.0
 11
20.00000000000182
 21
-13.58400791132226
 31
0.0
  0
LINE
  5
98
330
2
100
AcDbEntity
  8
PACKAGE OL
100
AcDbLine
 10
20.00000000000182
 20
-13.58400791132226
 30
0.0
 11
20.00000000000182
 21
10.41599208867865
 31
0.0
  0
LINE
  5
99
330
2
100
AcDbEntity
  8
PACKAGE OL
100
AcDbLine
 10
20.0
 20
10.41599208867865
 30
0.0
 11
-20.0
 21
10.41599208867865
 31
0.0
  0
LINE
  5
9A
330
2
100
AcDbEntity
  8
PACKAGE OL
100
AcDbLine
 10
-19.99999999999818
 20
10.41599208867865
 30
0.0
 11
-19.99999999999818
 21
-13.58400791132226
 31
0.0
  0
LINE
  5
9B
330
2
100
AcDbEntity
  8
B
100
AcDbLine
 10
19.39999999999441
 20
-3.984007911317348
 30
0.0
 11
20.00000000000182
 21
-3.984007911317348
 31
0.0
  0
LINE
  5
9C
330
2
100
AcDbEntity
  8
B
100
AcDbLine
 10
19.40000000000486
 20
0.815992088677035
 30
0.0
 11
20.00000000000159
 21
0.8159920886782856
 31
0.0
  0
LINE
  5
9D
330
2
100
AcDbEntity
  8
B
100
AcDbLine
 10
-19.40000000000009
 20
-3.984007911317348
 30
0.0
 11
-19.99999999999818
 21
-3.984007911317348
 31
0.0
  0
LINE
  5
9E
330
2
100
AcDbEntity
  8
B
100
AcDbLine
 10
-19.39999999999668
 20
0.8159920886795362
 30
0.0
 11
-19.99999999999841
 21
0.8159920886783993
 31
0.0
  0
LINE
  5
9F
330
2
100
AcDbEntity
  8
B
100
AcDbLine
 10
-16.99999999999818
 20
8.015992088678558
 30
0.0
 11
-17.39999999999963
 21
8.015992088678558
 31
0.0
  0
ARC
  5
A0
330
2
100
AcDbEntity
  8
B
100
AcDbCircle
 10
-16.99999999999909
 20
10.01599208867674
 30
0.0
 40
2.0
100
AcDbArc
 50
270.000000000026
 51
0.0
  0
ARC
  5
A1
330
2
100
AcDbEntity
  8
B
100
AcDbCircle
 10
-16.9999999999959
 20
-13.18400791132228
 30
0.0
 40
2.0
100
AcDbArc
 50
0.0
 51
90.0
  0
ARC
  5
A2
330
2
100
AcDbEntity
  8
B
100
AcDbCircle
 10
8.999999999994543
 20
10.0159920886748
 30
0.0
 40
2.0
100
AcDbArc
 50
270.0
 51
0.0
  0
ARC
  5
A3
330
2
100
AcDbEntity
  8
B
100
AcDbCircle
 10
16.99999999999318
 20
10.0159920886706
 30
0.0
 40
2.0
100
AcDbArc
 50
179.999999999987
 51
270.0000000000652
  0
ARC
  5
A4
330
2
100
AcDbEntity
  8
B
100
AcDbCircle
 10
17.00000000000068
 20
-13.17398278551934
 30
0.0
 40
2.0
100
AcDbArc
 50
90.0
 51
180.0
  0
ARC
  5
A5
330
2
100
AcDbEntity
  8
B
100
AcDbCircle
 10
9.000000000001818
 20
-13.17398278553469
 30
0.0
 40
2.0
100
AcDbArc
 50
0.0
 51
90.0
  0
LINE
  5
A6
330
2
100
AcDbEntity
  8
B
100
AcDbLine
 10
17.39999999999372
 20
-11.17398278553469
 30
0.0
 11
17.00000000000068
 21
-11.17398278553469
 31
0.0
  0
LINE
  5
A7
330
2
100
AcDbEntity
  8
B
100
AcDbLine
 10
9.000000000001818
 20
-11.17398278553469
 30
0.0
 11
8.879999999998744
 21
-11.17398278553469
 31
0.0
  0
LINE
  5
A8
330
2
100
AcDbEntity
  8
B
100
AcDbLine
 10
8.999999999995452
 20
8.01599208867276
 30
0.0
 11
8.879999999992378
 21
8.01599208867276
 31
0.0
  0
LINE
  5
A9
330
2
100
AcDbEntity
  8
B
100
AcDbLine
 10
16.99999999999363
 20
8.015992088672533
 30
0.0
 11
17.39999999999372
 21
8.015992088672646
 31
0.0
  0
LINE
  5
AA
330
2
100
AcDbEntity
  8
B
100
AcDbLine
 10
-17.39999999999963
 20
-11.1840079113241
 30
0.0
 11
-16.99999999999727
 21
-11.1840079113241
 31
0.0
  0
HATCH
  5
AB
330
2
100
AcDbEntity
  8
Ag
100
AcDbHatch
 10
0.0
 20
0.0
 30
0.0
210
0.0
220
0.0
230
1.0
  2
ANSI31
 70
     0
 71
     0
 91
        6
 92
        7
 72
     1
 73
     1
 93
        6
 10
0.0
 20
6.615992088678353
 42
0.1622776601683881
 10
-1.200000000000045
 20
7.015992088678331
 42
0.0
 10
-14.40000000000009
 20
7.015992088678217
 42
0.4142135623730927
 10
-16.40000000000009
 20
5.015992088678217
 42
0.0
 10
-16.40000000000009
 20
-1.584007911321805
 42
0.0
 10
0.0
 20
-1.584007911321805
 42
0.0
 97
        0
 92
        7
 72
     1
 73
     1
 93
        6
 10
0.0
 20
-1.584007911321805
 42
0.0
 10
-16.40000000000009
 20
-1.584007911321805
 42
0.0
 10
-16.40000000000009
 20
-8.184007911321828
 42
0.4142135623730951
 10
-14.40000000000009
 20
-10.18400791132183
 42
0.0
 10
-1.200000000000045
 20
-10.18400791132183
 42
0.1622776601683866
 10
0.0
 20
-9.78400791132185
 42
0.0
 97
        0
 92
        7
 72
     1
 73
     1
 93
        4
 10
0.7999999999999546
 20
5.015992088678331
 42
0.2360679774997825
 10
0.0
 20
6.615992088678353
 42
0.0
 10
0.0
 20
-1.584007911321805
 42
0.0
 10
0.7999999999999546
 20
-1.584007911321805
 42
0.0
 97
        0
 92
        7
 72
     1
 73
     1
 93
        4
 10
0.7999999999999546
 20
-1.584007911321805
 42
0.0
 10
0.0
 20
-1.584007911321805
 42
0.0
 10
0.0
 20
-9.78400791132185
 42
0.2360679774997822
 10
0.7999999999999546
 20
-8.184007911321828
 42
0.0
 97
        0
 92
        7
 72
     1
 73
     1
 93
        6
 10
16.40000000000009
 20
5.015992088678217
 42
0.4142135623730923
 10
14.40000000000009
 20
7.015992088678217
 42
0.0
 10
9.880000000000109
 20
7.015992088678331
 42
0.4142135623730973
 10
7.880000000000109
 20
5.015992088678331
 42
0.0
 10
7.879999999999881
 20
-1.584007911321805
 42
0.0
 10
16.40000000000009
 20
-1.584007911321805
 42
0.0
 97
        0
 92
        7
 72
     1
 73
     1
 93
        6
 10
16.40000000000009
 20
-1.584007911321805
 42
0.0
 10
7.880000000000109
 20
-1.584007911321805
 42
0.0
 10
7.879999999999881
 20
-8.184007911321828
 42
0.414213562373093
 10
9.879999999999881
 20
-10.18400791132183
 42
0.0
 10
14.39999999999986
 20
-10.18400791132194
 42
0.4142135623730973
 10
16.39999999999986
 20
-8.184007911321941
 42
0.0
 97
        0
 75
     1
 76
     1
 52
0.0
 41
0.2
 77
     0
 78
     1
 53
45.0
 43
-829.9394883328391
 44
-8.169768584428993
 45
-0.4490128060534576
 46
0.4490128060534577
 79
     0
 47
0.0554776628092448
 98
        6
 10
-8.134075051306808
 20
1.284865866089603
 10
-7.079105741906914
 20
-5.316976902592159
 10
0.6388220228323008
 20
0.6746114925140319
 10
0.4722479213482984
 20
-3.819079803815839
 10
11.24403981732348
 20
2.616329953891181
 10
10.63326811188153
 20
-4.595767188366608
1001
GRADIENTCOLOR1ACI
1070
     5
1001
GRADIENTCOLOR2ACI
1070
     2
1001
ACAD
1010
0.0
1020
0.0
1030
0.0
  0
LINE
  5
AF
102
{ACAD_REACTORS
330
DE
102
}
330
2
100
AcDbEntity
  8
C
100
AcDbLine
 10
0.0
 20
13.62331105783073
 30
0.0
 11
0.0
 21
-16.79132688047434
 31
0.0
  0
LINE
  5
B4
330
2
100
AcDbEntity
  8
hatch
100
AcDbLine
 10
-16.40000000000009
 20
5.015992088678217
 30
0.0
 11
-16.40000000000009
 21
-8.184007911321828
 31
0.0
  0
ARC
  5
B8
330
2
100
AcDbEntity
  8
hatch
100
AcDbCircle
 10
-14.40000000000009
 20
-8.184007911321828
 30
0.0
 40
2.0
100
AcDbArc
 50
180.0
 51
270.0
  0
ARC
  5
B9
102
{ACAD_REACTORS
330
E9
102
}
330
2
100
AcDbEntity
  8
hatch
100
AcDbCircle
 10
-14.40000000000009
 20
5.015992088678217
 30
0.0
 40
2.0
100
AcDbArc
 50
90.0
 51
180.0
  0
LINE
  5
BA
330
2
100
AcDbEntity
  8
hatch
100
AcDbLine
 10
16.40000000000009
 20
5.015992088678217
 30
0.0
 11
16.39999999999986
 21
-8.184007911321941
 31
0.0
  0
ARC
  5
BB
102
{ACAD_REACTORS
330
FF
102
}
330
2
100
AcDbEntity
  8
hatch
100
AcDbCircle
 10
14.40000000000009
 20
5.015992088678217
 30
0.0
 40
2.0
100
AcDbArc
 50
0.0
 51
90.0
  0
LINE
  5
BC
330
2
100
AcDbEntity
  8
hatch
100
AcDbLine
 10
7.880000000000109
 20
5.015992088678331
 30
0.0
 11
7.879999999999881
 21
-8.184007911321828
 31
0.0
  0
ARC
  5
BD
330
2
100
AcDbEntity
  8
hatch
100
AcDbCircle
 10
9.879999999999881
 20
-8.184007911321828
 30
0.0
 40
2.0
100
AcDbArc
 50
180.0
 51
270.0
  0
ARC
  5
BE
102
{ACAD_REACTORS
330
F4
102
}
330
2
100
AcDbEntity
  8
hatch
100
AcDbCircle
 10
9.880000000000109
 20
5.015992088678331
 30
0.0
 40
2.0
100
AcDbArc
 50
90.0
 51
180.0
  0
LINE
  5
BF
330
2
100
AcDbEntity
  8
hatch
100
AcDbLine
 10
0.7999999999999546
 20
5.015992088678331
 30
0.0
 11
0.7999999999999546
 21
-8.184007911321828
 31
0.0
  0
ARC
  5
C0
330
2
100
AcDbEntity
  8
hatch
100
AcDbCircle
 10
-1.200000000000045
 20
-8.184007911321828
 30
0.0
 40
2.0
100
AcDbArc
 50
270.0
 51
0.0
  0
LINE
  5
C1
102
{ACAD_REACTORS
330
D2
102
}
330
2
100
AcDbEntity
  8
C
100
AcDbLine
 10
-21.90591488875452
 20
-1.584007911321805
 30
0.0
 11
21.9059148887543
 21
-1.584007911321805
 31
0.0
  0
LINE
  5
C2
330
2
100
AcDbEntity
  8
hatch
100
AcDbLine
 10
-14.40000000000009
 20
-10.18400791132183
 30
0.0
 11
-1.200000000000045
 21
-10.18400791132183
 31
0.0
  0
LINE
  5
C3
330
2
100
AcDbEntity
  8
hatch
100
AcDbLine
 10
9.879999999999881
 20
-10.18400791132183
 30
0.0
 11
14.39999999999986
 21
-10.18400791132194
 31
0.0
  0
ARC
  5
C4
330
2
100
AcDbEntity
  8
hatch
100
AcDbCircle
 10
14.39999999999986
 20
-8.184007911321941
 30
0.0
 40
2.0
100
AcDbArc
 50
270.0
 51
0.0
  0
LINE
  5
C5
102
{ACAD_REACTORS
330
10A
102
}
330
2
100
AcDbEntity
  8
hatch
100
AcDbLine
 10
-14.40000000000009
 20
7.015992088678217
 30
0.0
 11
-1.200000000000045
 21
7.015992088678331
 31
0.0
  0
ARC
  5
C6
102
{ACAD_REACTORS
330
21E
102
}
330
2
100
AcDbEntity
  8
hatch
100
AcDbCircle
 10
-1.200000000000045
 20
5.015992088678331
 30
0.0
 40
2.0
100
AcDbArc
 50
0.0
 51
90.0
  0
LINE
  5
C7
330
2
100
AcDbEntity
  8
hatch
100
AcDbLine
 10
9.880000000000109
 20
7.015992088678331
 30
0.0
 11
14.40000000000009
 21
7.015992088678217
 31
0.0
  0
LINE
  5
C8
330
2
100
AcDbEntity
  8
B
100
AcDbLine
 10
-14.9999999999959
 20
-13.18400791132228
 30
0.0
 11
-14.99999999999727
 21
-13.58400791132226
 31
0.0
  0
LINE
  5
C9
330
2
100
AcDbEntity
  8
B
100
AcDbLine
 10
-10.9999999999975
 20
-13.18400791131773
 30
0.0
 11
-10.99999999999863
 21
-13.58400791132226
 31
0.0
  0
LINE
  5
CA
330
2
100
AcDbEntity
  8
B
100
AcDbLine
 10
-14.99999999999909
 20
10.01599208867674
 30
0.0
 11
-15.00000000000409
 21
10.41599208867149
 31
0.0
  0
LINE
  5
CB
330
2
100
AcDbEntity
  8
B
100
AcDbLine
 10
-10.99999999999954
 20
10.01599208867674
 30
0.0
 11
-11.000000000005
 21
10.41599208866819
 31
0.0
  0
LINE
  5
CC
330
2
100
AcDbEntity
  8
B
100
AcDbLine
 10
10.99999999999454
 20
10.41599208867865
 30
0.0
 11
10.99999999999454
 21
10.0159920886748
 31
0.0
  0
LINE
  5
CD
330
2
100
AcDbEntity
  8
B
100
AcDbLine
 10
14.99999999999318
 20
10.41599208867865
 30
0.0
 11
14.99999999999318
 21
10.0159920886706
 31
0.0
  0
LINE
  5
CE
330
2
100
AcDbEntity
  8
B
100
AcDbLine
 10
15.00000000000045
 20
-13.17398278551934
 30
0.0
 11
15.00000000000045
 21
-13.58400791132226
 31
0.0
  0
LINE
  5
CF
330
2
100
AcDbEntity
  8
B
100
AcDbLine
 10
11.00000000000182
 20
-13.17398278553469
 30
0.0
 11
11.00000000000182
 21
-13.58400791132214
 31
0.0
  0
DIMENSION
  5
D0
102
{ACAD_XDICTIONARY
360
D1
102
}
102
{ACAD_REACTORS
330
D2
102
}
330
2
100
AcDbEntity
  8
DIM
100
AcDbDimension
280
     0
  2
*D0
 10
0.0
 20
-1.584007911321805
 30
0.0
 11
-39.46110141220106
 21
-1.584007911321805
 31
0.0
 12
-1396.338883985193
 22
909.6480505747786
 32
0.0
 70
     6
 71
     5
 42
0.0
 73
     0
 74
     0
 75
     0
  3
DIM40
100
AcDbOrdinateDimension
 13
-21.90591488875452
 23
-1.584007911321805
 33
0.0
 14
-33.06110141220097
 24
-1.584007911321805
 34
0.0
  0
DIMENSION
  5
DC
102
{ACAD_XDICTIONARY
360
DD
102
}
102
{ACAD_REACTORS
330
DE
102
}
330
2
100
AcDbEntity
  8
DIM
100
AcDbDimension
280
     0
  2
*D1
 10
0.0
 20
-1.584007911321805
 30
0.0
 11
0.0000000000002274
 21
23.21067650088901
 31
0.0
 12
-1396.338883985193
 22
909.6480505747786
 32
0.0
 70
    70
 71
     5
 42
0.0
 73
     0
 74
     0
 75
     0
  3
DIM40
100
AcDbOrdinateDimension
 13
0.0
 23
13.62331105783073
 33
0.0
 14
0.0
 24
16.8106765008888
 34
0.0
  0
DIMENSION
  5
E7
102
{ACAD_XDICTIONARY
360
E8
102
}
102
{ACAD_REACTORS
330
E9
102
}
330
2
100
AcDbEntity
  8
DIM
100
AcDbDimension
280
     0
  2
*D2
 10
0.0
 20
-1.584007911321805
 30
0.0
 11
-16.39999999999986
 21
29.72937679429367
 31
0.0
 12
-1396.338883985193
 22
909.6480505747786
 32
0.0
 70
    70
 71
     5
 42
0.4100000000000023
 73
     0
 74
     0
 75
     0
  3
DIM40
100
AcDbOrdinateDimension
 13
-16.40000000000009
 23
5.015992088678217
 33
0.0
 14
-16.40000000000009
 24
16.65794822286489
 34
0.0
1001
ACAD
1000
DSTYLE
1002
{
1070
   146
1040
0.8
1070
   283
1070
     1
1070
    47
1040
0.025
1070
   147
1040
0.4
1070
    48
1040
0.025
1070
    72
1070
     0
1070
    71
1070
     1
1002
}
  0
DIMENSION
  5
F2
102
{ACAD_XDICTIONARY
360
F3
102
}
102
{ACAD_REACTORS
330
F4
102
}
330
2
100
AcDbEntity
  8
DIM
100
AcDbDimension
280
     0
  2
*D3
 10
0.0
 20
-1.584007911321805
 30
0.0
 11
7.880000000000336
 21
29.72937679429367
 31
0.0
 12
-1396.338883985193
 22
909.6480505747786
 32
0.0
 70
    70
 71
     5
 42
0.1970000000000027
 73
     0
 74
     0
 75
     0
  3
DIM40
100
AcDbOrdinateDimension
 13
7.880000000000109
 23
5.015992088678331
 33
0.0
 14
7.880000000000109
 24
16.65794822286489
 34
0.0
1001
ACAD
1000
DSTYLE
1002
{
1070
   146
1040
0.8
1070
   283
1070
     1
1070
    47
1040
0.025
1070
   147
1040
0.4
1070
    48
1040
0.025
1070
    72
1070
     0
1070
    71
1070
     1
1002
}
  0
DIMENSION
  5
FD
102
{ACAD_XDICTIONARY
360
FE
102
}
102
{ACAD_REACTORS
330
FF
102
}
330
2
100
AcDbEntity
  8
DIM
100
AcDbDimension
280
     0
  2
*D4
 10
0.0
 20
-1.584007911321805
 30
0.0
 11
16.40000000000032
 21
29.27118700730159
 31
0.0
 12
-1396.338883985193
 22
909.6480505747786
 32
0.0
 70
    70
 71
     5
 42
0.4100000000000023
 73
     0
 74
     0
 75
     0
  3
DIM40
100
AcDbOrdinateDimension
 13
16.40000000000009
 23
5.015992088678217
 33
0.0
 14
16.40000000000009
 24
16.19975843587281
 34
0.0
1001
ACAD
1000
DSTYLE
1002
{
1070
   146
1040
0.8
1070
   283
1070
     1
1070
    47
1040
0.025
1070
   147
1040
0.4
1070
    48
1040
0.025
1070
    72
1070
     0
1070
    71
1070
     1
1002
}
  0
DIMENSION
  5
108
102
{ACAD_XDICTIONARY
360
109
102
}
102
{ACAD_REACTORS
330
10A
102
}
330
2
100
AcDbEntity
  8
DIM
100
AcDbDimension
280
     0
  2
*D5
 10
0.0
 20
-1.584007911321805
 30
0.0
 11
-46.23611482052342
 21
7.015992088678217
 31
0.0
 12
-1396.338883985193
 22
909.6480505747786
 32
0.0
 70
     6
 71
     5
 42
0.2150000000000006
 73
     0
 74
     0
 75
     0
  3
DIM40
100
AcDbOrdinateDimension
 13
-14.40000000000009
 23
7.015992088678217
 33
0.0
 14
-33.16468624909476
 24
7.015992088678217
 34
0.0
1001
ACAD
1000
DSTYLE
1002
{
1070
   146
1040
0.8
1070
   283
1070
     1
1070
    47
1040
0.025
1070
   147
1040
0.4
1070
    48
1040
0.025
1070
    72
1070
     0
1070
    71
1070
     1
1002
}
  0
MTEXT
  5
113
330
2
100
AcDbEntity
  8
DIM
100
AcDbMText
 10
-48.77641358745427
 20
161.0585339758076
 30
0.0
 40
1.5
 41
99.52716310198002
 46
0.0
 71
     1
 72
     5
  1
{\H1.5x;DETAILED OUT LINE}^I\PMOLDING AND SINGULATION REFERENCE
 73
     1
 44
1.0
101
Embedded Object
 70
     1
 10
1.0
 20
0.0
 30
0.0
 11
-48.77641358745427
 21
161.0585339758076
 31
0.0
 40
99.52716310198002
 41
0.0
 42
44.85714285714286
 43
5.000000000000002
 71
     2
 72
     1
 44
99.52716310198002
 45
1.0
 73
     0
 74
     0
 46
0.0
  0
MTEXT
  5
114
330
2
100
AcDbEntity
  8
DIM
100
AcDbMText
 10
-35.9289463216553
 20
144.4311874563362
 30
0.0
 40
1.5
 41
99.52716310198002
 46
0.0
 71
     1
 72
     5
  1
{\H1.5x;TOP VIEW}
 73
     1
 44
1.0
101
Embedded Object
 70
     1
 10
1.0
 20
0.0
 30
0.0
 11
-35.9289463216553
 21
144.4311874563362
 31
0.0
 40
99.52716310198002
 41
0.0
 42
15.64285714285714
 43
2.25
 71
     2
 72
     1
 44
99.52716310198002
 45
1.0
 73
     0
 74
     0
 46
0.0
  0
MTEXT
  5
115
330
2
100
AcDbEntity
  8
DIM
100
AcDbMText
 10
-36.47563076379834
 20
91.68414533836097
 30
0.0
 40
1.5
 41
99.52716310198002
 46
0.0
 71
     1
 72
     5
  1
{\H1.5x;SIDE VIEW}
 73
     1
 44
1.0
101
Embedded Object
 70
     1
 10
1.0
 20
0.0
 30
0.0
 11
-36.47563076379834
 21
91.68414533836097
 31
0.0
 40
99.52716310198002
 41
0.0
 42
16.39285714285714
 43
2.25
 71
     2
 72
     1
 44
99.52716310198002
 45
1.0
 73
     0
 74
     0
 46
0.0
  0
MTEXT
  5
116
330
2
100
AcDbEntity
  8
DIM
100
AcDbMText
 10
80.38962015872881
 20
148.931179576626
 30
0.0
 40
1.5
 41
99.52716310198002
 46
0.0
 71
     1
 72
     5
  1
{\H1.5x;BACK VIEW}
 73
     1
 44
1.0
101
Embedded Object
 70
     1
 10
1.0
 20
0.0
 30
0.0
 11
80.38962015872881
 21
148.931179576626
 31
0.0
 40
99.52716310198002
 41
0.0
 42
17.67857142857143
 43
2.25
 71
     2
 72
     1
 44
99.52716310198002
 45
1.0
 73
     0
 74
     0
 46
0.0
  0
LINE
  5
117
330
2
100
AcDbEntity
  8
B
100
AcDbLine
 10
-45.25983258970927
 20
110.8453684310143
 30
0.0
 11
-5.259832589709276
 21
110.8453684310143
 31
0.0
  0
LINE
  5
118
102
{ACAD_REACTORS
330
14E
102
}
330
2
100
AcDbEntity
  8
B
100
AcDbLine
 10
-5.259832589709276
 20
110.8453684310143
 30
0.0
 11
-5.259832589709276
 21
134.8453684310143
 31
0.0
  0
LINE
  5
119
102
{ACAD_REACTORS
330
13C
102
}
330
2
100
AcDbEntity
  8
B
100
AcDbLine
 10
-5.259832589709276
 20
134.8453684310143
 30
0.0
 11
-45.25983258970927
 21
134.8453684310143
 31
0.0
  0
LINE
  5
11A
102
{ACAD_REACTORS
330
13C
102
}
330
2
100
AcDbEntity
  8
B
100
AcDbLine
 10
-45.25983258970927
 20
134.8453684310143
 30
0.0
 11
-45.25983258970927
 21
110.8453684310143
 31
0.0
  0
LINE
  5
11B
330
2
100
AcDbEntity
  8
B
100
AcDbLine
 10
-45.25983258970927
 20
65.23179620720839
 30
0.0
 11
-45.259832589702
 21
84.43179620720911
 31
0.0
  0
LINE
  5
11C
102
{ACAD_REACTORS
330
16F
330
181
102
}
330
2
100
AcDbEntity
  8
B
100
AcDbLine
 10
-5.259832589709276
 20
65.23179620720839
 30
0.0
 11
-5.259832589709276
 21
84.43179620720911
 31
0.0
  0
LINE
  5
11D
102
{ACAD_REACTORS
330
15E
102
}
330
2
100
AcDbEntity
  8
B
100
AcDbLine
 10
-43.25983258971655
 20
64.43179620721275
 30
0.0
 11
-33.25983258971656
 21
64.43179620721275
 31
0.0
  0
LINE
  5
11E
330
2
100
AcDbEntity
  8
B
100
AcDbLine
 10
-17.25983258970927
 20
64.43179620720911
 30
0.0
 11
-7.259832589709276
 21
64.43179620720911
 31
0.0
  0
LINE
  5
11F
330
2
100
AcDbEntity
  8
B
100
AcDbLine
 10
-45.25983258970927
 20
65.23179620721203
 30
0.0
 11
-5.259832589709276
 21
65.23179620721203
 31
0.0
  0
LINE
  5
120
330
2
100
AcDbEntity
  8
B
100
AcDbLine
 10
-40.25983258970927
 20
68.23179620721567
 30
0.0
 11
-36.25983258971655
 21
68.23179620721567
 31
0.0
  0
LINE
  5
121
330
2
100
AcDbEntity
  8
B
100
AcDbLine
 10
-40.25983258970927
 20
71.31179620721377
 30
0.0
 11
-36.25983258971655
 21
71.31179620721377
 31
0.0
  0
LINE
  5
122
330
2
100
AcDbEntity
  8
B
100
AcDbLine
 10
-45.259832589702
 20
84.43179620720911
 30
0.0
 11
-5.259832589709276
 21
84.43179620721275
 31
0.0
  0
LINE
  5
123
330
2
100
AcDbEntity
  8
B
100
AcDbLine
 10
-17.25983258970927
 20
64.43179620720911
 30
0.0
 11
-17.25983258970927
 21
65.23179620720839
 31
0.0
  0
LINE
  5
124
102
{ACAD_REACTORS
330
16F
330
181
102
}
330
2
100
AcDbEntity
  8
B
100
AcDbLine
 10
-7.259832589709276
 20
64.43179620720911
 30
0.0
 11
-7.259832589709276
 21
65.23179620721203
 31
0.0
  0
LINE
  5
125
330
2
100
AcDbEntity
  8
B
100
AcDbLine
 10
-33.25983258971656
 20
64.43179620720911
 30
0.0
 11
-33.25983258971656
 21
65.23179620721203
 31
0.0
  0
LINE
  5
126
330
2
100
AcDbEntity
  8
B
100
AcDbLine
 10
-43.25983258971655
 20
64.43179620722003
 30
0.0
 11
-43.25983258971655
 21
65.23179620720839
 31
0.0
  0
LINE
  5
127
102
{ACAD_REACTORS
330
15E
102
}
330
2
100
AcDbEntity
  8
B
100
AcDbLine
 10
-40.25983258970927
 20
68.2317962072193
 30
0.0
 11
-40.25983258970927
 21
71.31179620721013
 31
0.0
  0
LINE
  5
128
330
2
100
AcDbEntity
  8
B
100
AcDbLine
 10
-36.25983258970928
 20
68.23179620721567
 30
0.0
 11
-36.25983258970928
 21
71.31179620721013
 31
0.0
  0
LINE
  5
129
330
2
100
AcDbEntity
  8
B
100
AcDbLine
 10
-14.25983258972383
 20
68.23179620721567
 30
0.0
 11
-14.25983258971655
 21
71.31179620721741
 31
0.0
  0
LINE
  5
12A
330
2
100
AcDbEntity
  8
B
100
AcDbLine
 10
-10.25983258970927
 20
68.2317962072193
 30
0.0
 11
-10.25983258970927
 21
71.31179620721377
 31
0.0
  0
LINE
  5
12B
330
2
100
AcDbEntity
  8
B
100
AcDbLine
 10
-14.25983258971655
 20
71.31179620721741
 30
0.0
 11
-10.25983258970927
 21
71.31179620721377
 31
0.0
  0
LINE
  5
12C
330
2
100
AcDbEntity
  8
B
100
AcDbLine
 10
-10.25983258970927
 20
68.2317962072193
 30
0.0
 11
-14.25983258972383
 21
68.23179620721567
 31
0.0
  0
LINE
  5
12D
102
{ACAD_REACTORS
330
1A6
102
}
330
2
100
AcDbEntity
  8
B
100
AcDbLine
 10
69.66380132355948
 20
134.8453684310143
 30
0.0
 11
69.66380132355948
 21
110.8453684310142
 31
0.0
  0
LINE
  5
12E
102
{ACAD_REACTORS
330
20A
102
}
330
2
100
AcDbEntity
  8
B
100
AcDbLine
 10
109.6638013235592
 20
134.8453684310143
 30
0.0
 11
109.6638013235595
 21
110.8453684310141
 31
0.0
  0
LINE
  5
12F
330
2
100
AcDbEntity
  8
B
100
AcDbLine
 10
69.66380132355926
 20
134.8453684310143
 30
0.0
 11
109.6638013235592
 21
134.8453684310142
 31
0.0
  0
LINE
  5
130
330
2
100
AcDbEntity
  8
B
100
AcDbLine
 10
69.66380132355926
 20
110.8453684310143
 30
0.0
 11
109.6638013235592
 21
110.8453684310142
 31
0.0
  0
LINE
  5
131
102
{ACAD_REACTORS
330
1C7
102
}
330
2
100
AcDbEntity
  8
B
100
AcDbLine
 10
71.66380132355221
 20
132.8453684310141
 30
0.0
 11
71.66380132355221
 21
112.8453684310142
 31
0.0
  0
LINE
  5
132
330
2
100
AcDbEntity
  8
B
100
AcDbLine
 10
81.6638013235522
 20
132.8453684310142
 30
0.0
 11
81.6638013235522
 21
112.8453684310142
 31
0.0
  0
LINE
  5
133
330
2
100
AcDbEntity
  8
B
100
AcDbLine
 10
97.66380132355948
 20
132.8453684310141
 30
0.0
 11
97.66380132355948
 21
112.8453684310142
 31
0.0
  0
LINE
  5
134
330
2
100
AcDbEntity
  8
B
100
AcDbLine
 10
107.6638013235595
 20
128.0453684310142
 30
0.0
 11
107.6638013235595
 21
112.8453684310141
 31
0.0
  0
LINE
  5
135
102
{ACAD_REACTORS
330
1B7
330
1C7
102
}
330
2
100
AcDbEntity
  8
B
100
AcDbLine
 10
71.66380132355221
 20
112.8453684310141
 30
0.0
 11
81.6638013235522
 21
112.8453684310142
 31
0.0
  0
LINE
  5
136
102
{ACAD_REACTORS
330
20A
102
}
330
2
100
AcDbEntity
  8
B
100
AcDbLine
 10
97.66380132355948
 20
112.8453684310143
 30
0.0
 11
107.6638013235592
 21
112.8453684310143
 31
0.0
  0
LINE
  5
137
102
{ACAD_REACTORS
330
1A6
330
1B7
102
}
330
2
100
AcDbEntity
  8
B
100
AcDbLine
 10
71.66380132355221
 20
132.8453684310141
 30
0.0
 11
81.6638013235522
 21
132.8453684310142
 31
0.0
  0
LINE
  5
138
102
{ACAD_REACTORS
330
1E6
330
1F8
102
}
330
2
100
AcDbEntity
  8
B
100
AcDbLine
 10
97.66380132355948
 20
132.8453684310142
 30
0.0
 11
102.8638013235597
 21
132.8453684310142
 31
0.0
  0
LINE
  5
139
102
{ACAD_REACTORS
330
1E6
330
1F8
102
}
330
2
100
AcDbEntity
  8
B
100
AcDbLine
 10
102.8638013235595
 20
132.8453684310142
 30
0.0
 11
107.6638013235595
 21
128.0453684310142
 31
0.0
  0
DIMENSION
  5
13A
102
{ACAD_XDICTIONARY
360
13B
102
}
102
{ACAD_REACTORS
330
13C
102
}
330
2
100
AcDbEntity
  8
DIM
100
AcDbDimension
280
     0
  2
*D6
 10
-5.259832589709276
 20
138.5042979758213
 30
0.0
 11
-25.25983258970928
 21
138.5042979758213
 31
0.0
 12
-1396.338883985193
 22
909.6480505747786
 32
0.0
  1
D
 71
     5
 73
     0
 74
     0
 75
     0
  3
DIM40
100
AcDbAlignedDimension
 13
-45.25983258970927
 23
134.8453684310143
 33
0.0
 14
-5.259832589709276
 24
134.8453684310143
 34
0.0
100
AcDbRotatedDimension
1001
ACAD_DSTYLE_DIMINSPECT
1070
   396
1000
100%
1070
   395
1000

1070
   394
1070
    33
1070
   393
1070
     0
  0
DIMENSION
  5
14C
102
{ACAD_XDICTIONARY
360
14D
102
}
102
{ACAD_REACTORS
330
14E
102
}
330
2
100
AcDbEntity
  8
DIM
100
AcDbDimension
280
     0
  2
*D7
 10
7.193581837063447
 20
110.8453684310143
 30
0.0
 11
7.193581837063675
 21
122.8453684310145
 31
0.0
 12
-1396.338883985193
 22
909.6480505747786
 32
0.0
  1
E
 71
     5
 42
0.6000000000000001
 73
     0
 74
     0
 75
     0
  3
DIM40
100
AcDbAlignedDimension
 13
-5.259832589709276
 23
134.8453684310143
 33
0.0
 14
-5.259832589709276
 24
110.8453684310143
 34
0.0
 50
90.0
100
AcDbRotatedDimension
1001
ACAD_DSTYLE_DIMINSPECT
1070
   396
1000
100%
1070
   395
1000

1070
   394
1070
    33
1070
   393
1070
     0
  0
DIMENSION
  5
15C
102
{ACAD_XDICTIONARY
360
15D
102
}
102
{ACAD_REACTORS
330
15E
102
}
330
2
100
AcDbEntity
  8
DIM
100
AcDbDimension
280
     0
  2
*D8
 10
-53.13442688185614
 20
71.31179620721013
 30
0.0
 11
-48.66299831042738
 21
74.31179620721036
 31
0.0
 12
-1396.338883985193
 22
909.6480505747786
 32
0.0
  1
C
 71
     5
 42
0.1719999999999345
 73
     0
 74
     0
 75
     0
  3
DIM40
100
AcDbAlignedDimension
 13
-43.25983258971655
 23
64.43179620721275
 33
0.0
 14
-40.25983258970927
 24
71.31179620721013
 34
0.0
 50
90.0
100
AcDbRotatedDimension
1001
ACAD_DSTYLE_DIMINSPECT
1070
   396
1000
100%
1070
   395
1000

1070
   394
1070
    33
1070
   393
1070
     0
  0
DIMENSION
  5
16D
102
{ACAD_XDICTIONARY
360
16E
102
}
102
{ACAD_REACTORS
330
16F
102
}
330
2
100
AcDbEntity
  8
DIM
100
AcDbDimension
280
     0
  2
*D9
 10
-0.4920855867881074
 20
64.43179620720911
 30
0.0
 11
-5.89208558678797
 21
58.43179620720935
 31
0.0
 12
-1396.338883985193
 22
909.6480505747786
 32
0.0
  1
A1
 71
     5
 42
0.0199999999999818
 73
     0
 74
     0
 75
     0
  3
DIM40
100
AcDbAlignedDimension
 13
-5.259832589709276
 23
65.23179620720839
 33
0.0
 14
-7.259832589709276
 24
64.43179620720911
 34
0.0
 50
90.0
100
AcDbRotatedDimension
1001
ACAD_DSTYLE_DIMINSPECT
1070
   396
1000
100%
1070
   395
1000

1070
   394
1070
    33
1070
   393
1070
     0
  0
DIMENSION
  5
17F
102
{ACAD_XDICTIONARY
360
180
102
}
102
{ACAD_REACTORS
330
181
102
}
330
2
100
AcDbEntity
  8
DIM
100
AcDbDimension
280
     0
  2
*D10
 10
7.54490933007537
 20
64.43179620720911
 30
0.0
 11
7.544909330075597
 21
74.43179620720934
 31
0.0
 12
-1396.338883985193
 22
909.6480505747786
 32
0.0
  1
A
 71
     5
 42
0.5
 73
     0
 74
     0
 75
     0
  3
DIM40
100
AcDbAlignedDimension
 13
-5.259832589709276
 23
84.43179620720911
 33
0.0
 14
-7.259832589709276
 24
64.43179620720911
 34
0.0
 50
90.0
100
AcDbRotatedDimension
1001
ACAD_DSTYLE_DIMINSPECT
1070
   396
1000
100%
1070
   395
1000

1070
   394
1070
    33
1070
   393
1070
     0
  0
MTEXT
  5
18F
330
2
100
AcDbEntity
  8
DIM
100
AcDbMText
 10
-39.08764955303127
 20
109.8804090478053
 30
0.0
 40
1.5
 41
99.52716310198002
 46
0.0
 71
     1
 72
     5
  1
{\H1.5x;1}
 73
     1
 44
1.0
101
Embedded Object
 70
     1
 10
1.0
 20
0.0
 30
0.0
 11
-39.08764955303127
 21
109.8804090478053
 31
0.0
 40
99.52716310198002
 41
0.0
 42
0.5357142857142856
 43
2.25
 71
     2
 72
     1
 44
99.52716310198002
 45
1.0
 73
     0
 74
     0
 46
0.0
  0
MTEXT
  5
190
330
2
100
AcDbEntity
  8
DIM
100
AcDbMText
 10
-13.06786462622517
 20
109.8804090478053
 30
0.0
 40
1.5
 41
99.52716310198002
 46
0.0
 71
     1
 72
     5
  1
{\H1.5x;2}
 73
     1
 44
1.0
101
Embedded Object
 70
     1
 10
1.0
 20
0.0
 30
0.0
 11
-13.06786462622517
 21
109.8804090478053
 31
0.0
 40
99.52716310198002
 41
0.0
 42
1.5
 43
2.25
 71
     2
 72
     1
 44
99.52716310198002
 45
1.0
 73
     0
 74
     0
 46
0.0
  0
LINE
  5
191
102
{ACAD_REACTORS
330
196
102
}
330
2
100
AcDbEntity
  8
C
100
AcDbLine
 10
76.66380132355221
 20
134.986300724349
 30
0.0
 11
76.66380132355221
 21
110.7044361376794
 31
0.0
  0
LINE
  5
192
330
2
100
AcDbEntity
  8
C
100
AcDbLine
 10
67.53423757271389
 20
121.7817362442151
 30
0.0
 11
111.7933650744041
 21
121.7817362442151
 31
0.0
  0
LINE
  5
193
102
{ACAD_REACTORS
330
196
102
}
330
2
100
AcDbEntity
  8
C
100
AcDbLine
 10
102.6638013235595
 20
134.9863007243491
 30
0.0
 11
102.6638013235595
 21
110.7044361376795
 31
0.0
  0
DIMENSION
  5
194
102
{ACAD_XDICTIONARY
360
195
102
}
102
{ACAD_REACTORS
330
196
102
}
330
2
100
AcDbEntity
  8
DIM
100
AcDbDimension
280
     0
  2
*D11
 10
102.6638013235595
 20
140.8340255309721
 30
0.0
 11
89.66380132355585
 21
140.8340255309721
 31
0.0
 12
-1396.338883985193
 22
909.6480505747786
 32
0.0
  1
e
 71
     5
 42
0.650000000000182
 73
     0
 74
     0
 75
     0
  3
DIM40
100
AcDbAlignedDimension
 13
76.66380132355221
 23
134.986300724349
 33
0.0
 14
102.6638013235595
 24
134.9863007243491
 34
0.0
100
AcDbRotatedDimension
1001
ACAD_DSTYLE_DIMINSPECT
1070
   396
1000
100%
1070
   395
1000

1070
   394
1070
    33
1070
   393
1070
     0
  0
DIMENSION
  5
1A4
102
{ACAD_XDICTIONARY
360
1A5
102
}
102
{ACAD_REACTORS
330
1A6
102
}
330
2
100
AcDbEntity
  8
DIM
100
AcDbDimension
280
     0
  2
*D12
 10
69.66380132355948
 20
138.4616793694093
 30
0.0
 11
61.54951560927384
 21
138.4616793694093
 31
0.0
 12
-1396.338883985193
 22
909.6480505747786
 32
0.0
  1
L1
 71
     5
 42
0.0499999999998181
 73
     0
 74
     0
 75
     0
  3
DIM40
100
AcDbAlignedDimension
 13
71.66380132355221
 23
132.8453684310141
 33
0.0
 14
69.66380132355948
 24
134.8453684310143
 34
0.0
100
AcDbRotatedDimension
1001
ACAD_DSTYLE_DIMINSPECT
1070
   396
1000
100%
1070
   395
1000

1070
   394
1070
    33
1070
   393
1070
     0
  0
DIMENSION
  5
1B5
102
{ACAD_XDICTIONARY
360
1B6
102
}
102
{ACAD_REACTORS
330
1B7
102
}
330
2
100
AcDbEntity
  8
DIM
100
AcDbDimension
280
     0
  2
*D13
 10
57.09120334030718
 20
112.8453684310141
 30
0.0
 11
57.0912033403074
 21
122.8453684310143
 31
0.0
 12
-1396.338883985193
 22
909.6480505747786
 32
0.0
  1
b
 71
     5
 42
0.5
 73
     0
 74
     0
 75
     0
  3
DIM40
100
AcDbAlignedDimension
 13
71.66380132355221
 23
132.8453684310141
 33
0.0
 14
71.66380132355221
 24
112.8453684310141
 34
0.0
 50
90.0
100
AcDbRotatedDimension
1001
ACAD_DSTYLE_DIMINSPECT
1070
   396
1000
100%
1070
   395
1000

1070
   394
1070
    33
1070
   393
1070
     0
  0
DIMENSION
  5
1C5
102
{ACAD_XDICTIONARY
360
1C6
102
}
102
{ACAD_REACTORS
330
1C7
102
}
330
2
100
AcDbEntity
  8
DIM
100
AcDbDimension
280
     0
  2
*D14
 10
81.6638013235522
 20
103.7816208942484
 30
0.0
 11
76.66380132355221
 21
103.7816208942484
 31
0.0
 12
-1396.338883985193
 22
909.6480505747786
 32
0.0
  1
L
 71
     5
 42
0.25
 73
     0
 74
     0
 75
     0
  3
DIM40
100
AcDbAlignedDimension
 13
71.66380132355221
 23
112.8453684310142
 33
0.0
 14
81.6638013235522
 24
112.8453684310142
 34
0.0
100
AcDbRotatedDimension
1001
ACAD_DSTYLE_DIMINSPECT
1070
   396
1000
100%
1070
   395
1000

1070
   394
1070
    33
1070
   393
1070
     0
  0
MTEXT
  5
1D5
330
2
100
AcDbEntity
  8
DIM
100
AcDbMText
 10
77.78173386252638
 20
109.5556454278885
 30
0.0
 40
1.5
 41
99.52716310198002
 46
0.0
 71
     1
 72
     5
  1
{\H1.5x;2}
 73
     1
 44
1.0
101
Embedded Object
 70
     1
 10
1.0
 20
0.0
 30
0.0
 11
77.78173386252638
 21
109.5556454278885
 31
0.0
 40
99.52716310198002
 41
0.0
 42
1.5
 43
2.25
 71
     2
 72
     1
 44
99.52716310198002
 45
1.0
 73
     0
 74
     0
 46
0.0
  0
MTEXT
  5
1D6
330
2
100
AcDbEntity
  8
DIM
100
AcDbMText
 10
104.4349360671558
 20
109.5556454278885
 30
0.0
 40
1.5
 41
99.52716310198002
 46
0.0
 71
     1
 72
     5
  1
{\H1.5x;1}
 73
     1
 44
1.0
101
Embedded Object
 70
     1
 10
1.0
 20
0.0
 30
0.0
 11
104.4349360671558
 21
109.5556454278885
 31
0.0
 40
99.52716310198002
 41
0.0
 42
0.5357142857142856
 43
2.25
 71
     2
 72
     1
 44
99.52716310198002
 45
1.0
 73
     0
 74
     0
 46
0.0
  0
LINE
  5
1D7
330
2
100
AcDbEntity
  8
B
100
AcDbLine
 10
22.06777004716309
 20
134.8453684310143
 30
0.0
 11
41.26777004716291
 21
134.8453684310142
 31
0.0
  0
LINE
  5
1D8
330
2
100
AcDbEntity
  8
B
100
AcDbLine
 10
22.06777004716287
 20
110.8453684310142
 30
0.0
 11
41.26777004716268
 21
110.8453684310144
 31
0.0
  0
LINE
  5
1D9
330
2
100
AcDbEntity
  8
B
100
AcDbLine
 10
22.06777004716309
 20
134.8453684310143
 30
0.0
 11
22.06777004716287
 21
110.8453684310144
 31
0.0
  0
LINE
  5
1DA
330
2
100
AcDbEntity
  8
B
100
AcDbLine
 10
42.06777004716286
 20
132.8453684310141
 30
0.0
 11
42.06777004716286
 21
112.8453684310142
 31
0.0
  0
LINE
  5
1DB
330
2
100
AcDbEntity
  8
B
100
AcDbLine
 10
41.26777004716291
 20
134.8453684310143
 30
0.0
 11
41.26777004716291
 21
110.8453684310144
 31
0.0
  0
LINE
  5
1DC
330
2
100
AcDbEntity
  8
B
100
AcDbLine
 10
35.98777004716294
 20
122.8453684310143
 30
0.0
 11
35.98777004716294
 21
125.2453684310143
 31
0.0
  0
LINE
  5
1DD
330
2
100
AcDbEntity
  8
B
100
AcDbLine
 10
35.98777004716294
 20
122.8453684310143
 30
0.0
 11
35.98777004716294
 21
120.4453684310143
 31
0.0
  0
LINE
  5
1DE
330
2
100
AcDbEntity
  8
B
100
AcDbLine
 10
39.06777004716287
 20
122.8453684310141
 30
0.0
 11
39.06777004716287
 21
125.2453684310141
 31
0.0
  0
LINE
  5
1DF
330
2
100
AcDbEntity
  8
B
100
AcDbLine
 10
39.06777004716287
 20
122.8453684310141
 30
0.0
 11
39.06777004716287
 21
120.4453684310141
 31
0.0
  0
LINE
  5
1E0
330
2
100
AcDbEntity
  8
B
100
AcDbLine
 10
35.98777004716294
 20
125.2453684310143
 30
0.0
 11
39.06777004716287
 21
125.2453684310141
 31
0.0
  0
LINE
  5
1E1
330
2
100
AcDbEntity
  8
B
100
AcDbLine
 10
35.98777004716294
 20
120.4453684310143
 30
0.0
 11
39.06777004716287
 21
120.4453684310141
 31
0.0
  0
LINE
  5
1E2
330
2
100
AcDbEntity
  8
B
100
AcDbLine
 10
42.06777004716286
 20
132.8453684310141
 30
0.0
 11
41.26777004716291
 21
132.8453684310141
 31
0.0
  0
LINE
  5
1E3
330
2
100
AcDbEntity
  8
B
100
AcDbLine
 10
42.06777004716286
 20
112.8453684310142
 30
0.0
 11
41.26777004716268
 21
112.8453684310142
 31
0.0
  0
DIMENSION
  5
1E4
102
{ACAD_XDICTIONARY
360
1E5
102
}
102
{ACAD_REACTORS
330
1E6
102
}
330
2
100
AcDbEntity
  8
DIM
100
AcDbDimension
280
     0
  2
*D15
 10
115.9106146776234
 20
128.0453684310142
 30
0.0
 11
115.9106146776237
 21
130.4453684310144
 31
0.0
 12
-1396.338883985193
 22
909.6480505747786
 32
0.0
  1
h
 71
     5
 42
0.1199999999999989
 73
     0
 74
     0
 75
     0
  3
DIM40
100
AcDbAlignedDimension
 13
102.8638013235597
 23
132.8453684310142
 33
0.0
 14
107.6638013235595
 24
128.0453684310142
 34
0.0
 50
90.0
100
AcDbRotatedDimension
1001
ACAD_DSTYLE_DIMINSPECT
1070
   396
1000
100%
1070
   395
1000

1070
   394
1070
    33
1070
   393
1070
     0
  0
DIMENSION
  5
1F6
102
{ACAD_XDICTIONARY
360
1F7
102
}
102
{ACAD_REACTORS
330
1F8
102
}
330
2
100
AcDbEntity
  8
DIM
100
AcDbDimension
280
     0
  2
*D16
 10
107.6638013235595
 20
138.9877249605474
 30
0.0
 11
105.2638013235596
 21
138.9877249605474
 31
0.0
 12
-1396.338883985193
 22
909.6480505747786
 32
0.0
  1
h
 71
     5
 42
0.1199999999999932
 73
     0
 74
     0
 75
     0
  3
DIM40
100
AcDbAlignedDimension
 13
102.8638013235597
 23
132.8453684310142
 33
0.0
 14
107.6638013235595
 24
128.0453684310142
 34
0.0
100
AcDbRotatedDimension
1001
ACAD_DSTYLE_DIMINSPECT
1070
   396
1000
100%
1070
   395
1000

1070
   394
1070
    33
1070
   393
1070
     0
  0
DIMENSION
  5
208
102
{ACAD_XDICTIONARY
360
209
102
}
102
{ACAD_REACTORS
330
20A
102
}
330
2
100
AcDbEntity
  8
DIM
100
AcDbDimension
280
     0
  2
*D17
 10
114.0753733498991
 20
110.8453684310141
 30
0.0
 11
108.9610876356137
 21
104.8453684310143
 31
0.0
 12
-1396.338883985193
 22
909.6480505747786
 32
0.0
  1
L1
 71
     5
 42
0.0500000000000057
 73
     0
 74
     0
 75
     0
  3
DIM40
100
AcDbAlignedDimension
 13
107.6638013235592
 23
112.8453684310143
 33
0.0
 14
109.6638013235595
 24
110.8453684310141
 34
0.0
 50
90.0
100
AcDbRotatedDimension
1001
ACAD_DSTYLE_DIMINSPECT
1070
   396
1000
100%
1070
   395
1000

1070
   394
1070
    33
1070
   393
1070
     0
  0
LINE
  5
21A
330
2
100
AcDbEntity
  8
0
100
AcDbLine
 10
-54.2296797960148
 20
51.62235182938093
 30
0.0
 11
213.9064946644726
 21
51.62235182938093
 31
0.0
  0
LINE
  5
21B
330
2
100
AcDbEntity
  8
0
100
AcDbLine
 10
-54.2296797960148
 20
53.13712154168024
 30
0.0
 11
213.9064946644726
 21
53.13712154168024
 31
0.0
  0
DIMENSION
  5
21C
102
{ACAD_XDICTIONARY
360
21D
102
}
102
{ACAD_REACTORS
330
21E
102
}
330
2
100
AcDbEntity
  8
0
100
AcDbDimension
280
     0
  2
*D18
 10
0.0
 20
-7.68124106600726
 30
0.0
 11
3.892227897229986
 21
29.83875958903252
 31
0.0
 12
-1396.338883985193
 22
909.6480505747786
 32
0.0
 70
   198
 71
     5
 42
0.0199999999999989
 73
     0
 74
     0
 75
     0
  3
DIM40
100
AcDbOrdinateDimension
 13
0.7999999999999546
 23
5.015992088678331
 33
0.0
 14
3.892227897229759
 24
16.76733101760374
 34
0.0
1001
ACAD
1000
DSTYLE
1002
{
1070
   146
1040
0.8
1070
   283
1070
     1
1070
    47
1040
0.025
1070
   147
1040
0.4
1070
    48
1040
0.025
1070
    72
1070
     0
1070
    71
1070
     1
1002
}
  0
ENDSEC
  0
SECTION
  2
OBJECTS
  0
DICTIONARY
  5
B
330
0
100
AcDbDictionary
281
     1
  3
ACAD_COLOR
350
3C
  3
ACAD_GROUP
350
37
  3
ACAD_LAYOUT
350
11
  3
ACAD_MATERIAL
350
D
  3
ACAD_MLEADERSTYLE
350
3F
  3
ACAD_MLINESTYLE
350
38
  3
ACAD_PLOTSETTINGS
350
39
  3
ACAD_PLOTSTYLENAME
350
A
  3
ACAD_SCALELIST
350
3D
  3
ACAD_TABLESTYLE
350
3E
  3
ACAD_VISUALSTYLE
350
27
  3
ACDB_RECOMPOSE_DATA
350
22C
  3
AcDbVariableDictionary
350
40
  0
DICTIONARY
  5
29
330
24
100
AcDbDictionary
280
     1
281
     1
  0
DICTIONARY
  5
1A
330
19
100
AcDbDictionary
280
     1
281
     1
  3
ACAD_LAYERSTATES
360
1B
  0
DICTIONARY
  5
7
330
6
100
AcDbDictionary
280
     1
281
     1
  3
ADSK_XREC_LAYER_RECONCILED
360
8
  0
DICTIONARY
  5
7C
330
7B
100
AcDbDictionary
280
     1
281
     1
  3
ADSK_XREC_LAYER_RECONCILED
360
7D
  0
DICTIONARY
  5
B1
330
B0
100
AcDbDictionary
280
     1
281
     1
  3
ADSK_XREC_LAYER_RECONCILED
360
B2
  0
DICTIONARY
  5
B6
330
B5
100
AcDbDictionary
280
     1
281
     1
  3
ADSK_XREC_LAYER_RECONCILED
360
B7
  0
DICTIONARY
  5
78
330
77
100
AcDbDictionary
280
     1
281
     1
  0
DICTIONARY
  5
3
330
2
100
AcDbDictionary
280
     1
281
     1
  3
ACAD_SORTENTS
360
229
  0
DICTIONARY
  5
D1
330
D0
100
AcDbDictionary
280
     1
281
     1
  3
ACAD_DIMASSOC
360
D2
  0
DICTIONARY
  5
DD
330
DC
100
AcDbDictionary
280
     1
281
     1
  3
ACAD_DIMASSOC
360
DE
  0
DICTIONARY
  5
E8
330
E7
100
AcDbDictionary
280
     1
281
     1
  3
ACAD_DIMASSOC
360
E9
  0
DICTIONARY
  5
F3
330
F2
100
AcDbDictionary
280
     1
281
     1
  3
ACAD_DIMASSOC
360
F4
  0
DICTIONARY
  5
FE
330
FD
100
AcDbDictionary
280
     1
281
     1
  3
ACAD_DIMASSOC
360
FF
  0
DICTIONARY
  5
109
330
108
100
AcDbDictionary
280
     1
281
     1
  3
ACAD_DIMASSOC
360
10A
  0
DICTIONARY
  5
13B
330
13A
100
AcDbDictionary
280
     1
281
     1
  3
ACAD_DIMASSOC
360
13C
  0
DICTIONARY
  5
14D
330
14C
100
AcDbDictionary
280
     1
281
     1
  3
ACAD_DIMASSOC
360
14E
  0
DICTIONARY
  5
15D
330
15C
100
AcDbDictionary
280
     1
281
     1
  3
ACAD_DIMASSOC
360
15E
  0
DICTIONARY
  5
16E
330
16D
100
AcDbDictionary
280
     1
281
     1
  3
ACAD_DIMASSOC
360
16F
  0
DICTIONARY
  5
180
330
17F
100
AcDbDictionary
280
     1
281
     1
  3
ACAD_DIMASSOC
360
181
  0
DICTIONARY
  5
195
330
194
100
AcDbDictionary
280
     1
281
     1
  3
ACAD_DIMASSOC
360
196
  0
DICTIONARY
  5
1A5
330
1A4
100
AcDbDictionary
280
     1
281
     1
  3
ACAD_DIMASSOC
360
1A6
  0
DICTIONARY
  5
1B6
330
1B5
100
AcDbDictionary
280
     1
281
     1
  3
ACAD_DIMASSOC
360
1B7
  0
DICTIONARY
  5
1C6
330
1C5
100
AcDbDictionary
280
     1
281
     1
  3
ACAD_DIMASSOC
360
1C7
  0
DICTIONARY
  5
1E5
330
1E4
100
AcDbDictionary
280
     1
281
     1
  3
ACAD_DIMASSOC
360
1E6
  0
DICTIONARY
  5
1F7
330
1F6
100
AcDbDictionary
280
     1
281
     1
  3
ACAD_DIMASSOC
360
1F8
  0
DICTIONARY
  5
209
330
208
100
AcDbDictionary
280
     1
281
     1
  3
ACAD_DIMASSOC
360
20A
  0
DICTIONARY
  5
21D
330
21C
100
AcDbDictionary
280
     1
281
     1
  3
ACAD_DIMASSOC
360
21E
  0
DICTIONARY
  5
3C
102
{ACAD_REACTORS
330
B
102
}
330
B
100
AcDbDictionary
281
     1
  0
DICTIONARY
  5
37
102
{ACAD_REACTORS
330
B
102
}
330
B
100
AcDbDictionary
281
     1
  0
DICTIONARY
  5
11
102
{ACAD_REACTORS
330
B
102
}
330
B
100
AcDbDictionary
281
     1
  3
Layout1
350
18
  3
Model
350
10
  0
DICTIONARY
  5
D
102
{ACAD_REACTORS
330
B
102
}
330
B
100
AcDbDictionary
281
     1
  3
ByBlock
350
3B
  3
ByLayer
350
3A
  3
Global
350
C
  0
DICTIONARY
  5
3F
102
{ACAD_REACTORS
330
B
102
}
330
B
100
AcDbDictionary
281
     1
  0
DICTIONARY
  5
38
102
{ACAD_REACTORS
330
B
102
}
330
B
100
AcDbDictionary
281
     1
  3
Standard
350
50
  0
DICTIONARY
  5
39
102
{ACAD_REACTORS
330
B
102
}
330
B
100
AcDbDictionary
281
     1
  0
ACDBDICTIONARYWDFLT
  5
A
102
{ACAD_REACTORS
330
B
102
}
330
B
100
AcDbDictionary
281
     1
  3
Normal
350
9
100
AcDbDictionaryWithDefault
340
9
  0
DICTIONARY
  5
3D
102
{ACAD_REACTORS
330
B
102
}
330
B
100
AcDbDictionary
281
     1
  3
A0
350
55
  3
A1
350
56
  3
A2
350
57
  3
A3
350
58
  3
A4
350
59
  3
A5
350
5A
  3
A6
350
5B
  3
A7
350
5C
  3
A8
350
5D
  3
A9
350
5E
  3
B0
350
5F
  3
B1
350
60
  3
B2
350
61
  3
B3
350
62
  3
B4
350
63
  3
B5
350
64
  3
B6
350
65
  3
B7
350
66
  3
B8
350
67
  3
B9
350
68
  3
C0
350
69
  3
C1
350
6A
  3
C2
350
6B
  3
C3
350
6C
  3
C4
350
6D
  3
C5
350
6E
  3
C6
350
6F
  3
C7
350
70
  3
C8
350
71
  3
C9
350
72
  3
D0
350
73
  3
D1
350
74
  3
D2
350
75
  0
DICTIONARY
  5
3E
102
{ACAD_REACTORS
330
B
102
}
330
B
100
AcDbDictionary
281
     1
  3
Standard
350
51
  0
DICTIONARY
  5
27
102
{ACAD_REACTORS
330
B
102
}
330
B
100
AcDbDictionary
281
     1
  3
2dWireframe
350
26
  3
EdgeColorOff
350
144
  3
Realistic
350
53
  3
Wireframe
350
54
  0
XRECORD
  5
22C
102
{ACAD_REACTORS
330
B
102
}
330
B
100
AcDbXrecord
280
     1
 90
        1
330
51
  0
DICTIONARY
  5
40
102
{ACAD_REACTORS
330
B
102
}
330
B
100
AcDbDictionary
281
     1
  3
CANNOSCALE
350
41
  3
CMLEADERSTYLE
350
42
  3
CTABLESTYLE
350
43
  3
CVIEWDETAILSTYLE
350
44
  3
CVIEWSECTIONSTYLE
350
45
  3
DIMASSOC
350
46
  3
HPCOLOR
350
47
  3
HPINHERIT
350
48
  3
HPLAYER
350
49
  3
HPTRANSPARENCY
350
4A
  3
INDEXCTL
350
4B
  3
LAYEREVAL
350
4C
  3
LAYERNOTIFY
350
4D
  3
LIGHTINGUNITS
350
4E
  3
MSLTSCALE
350
4F
  0
DICTIONARY
  5
1B
102
{ACAD_REACTORS
330
1A
102
}
330
1A
100
AcDbDictionary
281
     1
  0
XRECORD
  5
8
102
{ACAD_REACTORS
330
7
102
}
330
7
100
AcDbXrecord
280
     1
290
     1
  0
XRECORD
  5
7D
102
{ACAD_REACTORS
330
7C
102
}
330
7C
100
AcDbXrecord
280
     1
290
     1
  0
XRECORD
  5
B2
102
{ACAD_REACTORS
330
B1
102
}
330
B1
100
AcDbXrecord
280
     1
290
     1
  0
XRECORD
  5
B7
102
{ACAD_REACTORS
330
B6
102
}
330
B6
100
AcDbXrecord
280
     1
290
     1
  0
SORTENTSTABLE
  5
229
102
{ACAD_REACTORS
330
3
102
}
330
3
100
AcDbSortentsTable
330
2
  0
DIMASSOC
  5
D2
102
{ACAD_REACTORS
330
D1
102
}
330
D1
100
AcDbDimAssoc
330
D0
 90
        2
 70
     0
 71
     0
  1
AcDbOsnapPointRef
 72
    13
331
C1
 73
     2
 91
        0
 40
0.0
 10
0.0
 20
0.0
 30
2.000000000000000E+50
 75
     0
  0
DIMASSOC
  5
DE
102
{ACAD_REACTORS
330
DD
102
}
330
DD
100
AcDbDimAssoc
330
DC
 90
        2
 70
     0
 71
     0
  1
AcDbOsnapPointRef
 72
    13
331
AF
 73
     2
 91
        0
 40
0.0
 10
0.0
 20
0.0
 30
2.000000000000000E+50
 75
     0
  0
DIMASSOC
  5
E9
102
{ACAD_REACTORS
330
E8
102
}
330
E8
100
AcDbDimAssoc
330
E7
 90
        2
 70
     0
 71
     0
  1
AcDbOsnapPointRef
 72
     1
331
B9
 73
     2
 91
        0
 40
3.141592653589793
 10
0.0
 20
0.0
 30
2.000000000000000E+50
 75
     0
  0
DIMASSOC
  5
F4
102
{ACAD_REACTORS
330
F3
102
}
330
F3
100
AcDbDimAssoc
330
F2
 90
        2
 70
     0
 71
     0
  1
AcDbOsnapPointRef
 72
     1
331
BE
 73
     2
 91
        0
 40
3.141592653589793
 10
0.0
 20
0.0
 30
2.000000000000000E+50
 75
     0
  0
DIMASSOC
  5
FF
102
{ACAD_REACTORS
330
FE
102
}
330
FE
100
AcDbDimAssoc
330
FD
 90
        2
 70
     0
 71
     0
  1
AcDbOsnapPointRef
 72
    13
331
BB
 73
     2
 91
        0
 40
6.283185307179586
 10
0.0
 20
0.0
 30
2.000000000000000E+50
 75
     0
  0
DIMASSOC
  5
10A
102
{ACAD_REACTORS
330
109
102
}
330
109
100
AcDbDimAssoc
330
108
 90
        2
 70
     0
 71
     0
  1
AcDbOsnapPointRef
 72
    13
331
C5
 73
     2
 91
        0
 40
0.0
 10
0.0
 20
0.0
 30
2.000000000000000E+50
 75
     0
  0
DIMASSOC
  5
13C
102
{ACAD_REACTORS
330
13B
102
}
330
13B
100
AcDbDimAssoc
330
13A
 90
        3
 70
     0
 71
     0
  1
AcDbOsnapPointRef
 72
    13
331
11A
 73
     2
 91
        0
 40
0.0
 10
0.0
 20
0.0
 30
2.000000000000000E+50
 75
     0
  1
AcDbOsnapPointRef
 72
    13
331
119
 73
     2
 91
        0
 40
0.0
 10
0.0
 20
0.0
 30
2.000000000000000E+50
 75
     0
  0
DIMASSOC
  5
14E
102
{ACAD_REACTORS
330
14D
102
}
330
14D
100
AcDbDimAssoc
330
14C
 90
        3
 70
     0
 71
     0
  1
AcDbOsnapPointRef
 72
     1
331
118
 73
     2
 91
        0
 40
1.0
 10
0.0
 20
0.0
 30
2.000000000000000E+50
 75
     0
  1
AcDbOsnapPointRef
 72
    13
331
118
 73
     2
 91
        0
 40
0.0
 10
0.0
 20
0.0
 30
2.000000000000000E+50
 75
     0
  0
DIMASSOC
  5
15E
102
{ACAD_REACTORS
330
15D
102
}
330
15D
100
AcDbDimAssoc
330
15C
 90
        3
 70
     0
 71
     0
  1
AcDbOsnapPointRef
 72
    13
331
11D
 73
     2
 91
        0
 40
0.0
 10
0.0
 20
0.0
 30
2.000000000000000E+50
 75
     0
  1
AcDbOsnapPointRef
 72
     1
331
127
 73
     2
 91
        0
 40
1.0
 10
0.0
 20
0.0
 30
2.000000000000000E+50
 75
     0
  0
DIMASSOC
  5
16F
102
{ACAD_REACTORS
330
16E
102
}
330
16E
100
AcDbDimAssoc
330
16D
 90
        3
 70
     0
 71
     0
  1
AcDbOsnapPointRef
 72
    13
331
11C
 73
     2
 91
        0
 40
0.0
 10
0.0
 20
0.0
 30
2.000000000000000E+50
 75
     0
  1
AcDbOsnapPointRef
 72
    13
331
124
 73
     2
 91
        0
 40
0.0
 10
0.0
 20
0.0
 30
2.000000000000000E+50
 75
     0
  0
DIMASSOC
  5
181
102
{ACAD_REACTORS
330
180
102
}
330
180
100
AcDbDimAssoc
330
17F
 90
        3
 70
     0
 71
     0
  1
AcDbOsnapPointRef
 72
     1
331
11C
 73
     2
 91
        0
 40
1.0
 10
0.0
 20
0.0
 30
2.000000000000000E+50
 75
     0
  1
AcDbOsnapPointRef
 72
    13
331
124
 73
     2
 91
        0
 40
0.0
 10
0.0
 20
0.0
 30
2.000000000000000E+50
 75
     0
  0
DIMASSOC
  5
196
102
{ACAD_REACTORS
330
195
102
}
330
195
100
AcDbDimAssoc
330
194
 90
        3
 70
     0
 71
     0
  1
AcDbOsnapPointRef
 72
    13
331
191
 73
     2
 91
        0
 40
0.0
 10
0.0
 20
0.0
 30
2.000000000000000E+50
 75
     0
  1
AcDbOsnapPointRef
 72
    13
331
193
 73
     2
 91
        0
 40
0.0
 10
0.0
 20
0.0
 30
2.000000000000000E+50
 75
     0
  0
DIMASSOC
  5
1A6
102
{ACAD_REACTORS
330
1A5
102
}
330
1A5
100
AcDbDimAssoc
330
1A4
 90
        3
 70
     0
 71
     0
  1
AcDbOsnapPointRef
 72
    13
331
137
 73
     2
 91
        0
 40
0.0
 10
0.0
 20
0.0
 30
2.000000000000000E+50
 75
     0
  1
AcDbOsnapPointRef
 72
    13
331
12D
 73
     2
 91
        0
 40
0.0
 10
0.0
 20
0.0
 30
2.000000000000000E+50
 75
     0
  0
DIMASSOC
  5
1B7
102
{ACAD_REACTORS
330
1B6
102
}
330
1B6
100
AcDbDimAssoc
330
1B5
 90
        3
 70
     0
 71
     0
  1
AcDbOsnapPointRef
 72
    13
331
137
 73
     2
 91
        0
 40
0.0
 10
0.0
 20
0.0
 30
2.000000000000000E+50
 75
     0
  1
AcDbOsnapPointRef
 72
    13
331
135
 73
     2
 91
        0
 40
0.0
 10
0.0
 20
0.0
 30
2.000000000000000E+50
 75
     0
  0
DIMASSOC
  5
1C7
102
{ACAD_REACTORS
330
1C6
102
}
330
1C6
100
AcDbDimAssoc
330
1C5
 90
        3
 70
     0
 71
     0
  1
AcDbOsnapPointRef
 72
     1
331
131
 73
     2
 91
        0
 40
1.0
 10
0.0
 20
0.0
 30
2.000000000000000E+50
 75
     0
  1
AcDbOsnapPointRef
 72
     1
331
135
 73
     2
 91
        0
 40
1.0
 10
0.0
 20
0.0
 30
2.000000000000000E+50
 75
     0
  0
DIMASSOC
  5
1E6
102
{ACAD_REACTORS
330
1E5
102
}
330
1E5
100
AcDbDimAssoc
330
1E4
 90
        3
 70
     0
 71
     0
  1
AcDbOsnapPointRef
 72
     1
331
138
 73
     2
 91
        0
 40
1.0
 10
0.0
 20
0.0
 30
2.000000000000000E+50
 75
     0
  1
AcDbOsnapPointRef
 72
     1
331
139
 73
     2
 91
        0
 40
1.0
 10
0.0
 20
0.0
 30
2.000000000000000E+50
 75
     0
  0
DIMASSOC
  5
1F8
102
{ACAD_REACTORS
330
1F7
102
}
330
1F7
100
AcDbDimAssoc
330
1F6
 90
        3
 70
     0
 71
     0
  1
AcDbOsnapPointRef
 72
     1
331
138
 73
     2
 91
        0
 40
1.0
 10
0.0
 20
0.0
 30
2.000000000000000E+50
 75
     0
  1
AcDbOsnapPointRef
 72
     1
331
139
 73
     2
 91
        0
 40
1.0
 10
0.0
 20
0.0
 30
2.000000000000000E+50
 75
     0
  0
DIMASSOC
  5
20A
102
{ACAD_REACTORS
330
209
102
}
330
209
100
AcDbDimAssoc
330
208
 90
        3
 70
     0
 71
     0
  1
AcDbOsnapPointRef
 72
     1
331
136
 73
     2
 91
        0
 40
1.0
 10
0.0
 20
0.0
 30
2.000000000000000E+50
 75
     0
  1
AcDbOsnapPointRef
 72
     1
331
12E
 73
     2
 91
        0
 40
1.0
 10
0.0
 20
0.0
 30
2.000000000000000E+50
 75
     0
  0
DIMASSOC
  5
21E
102
{ACAD_REACTORS
330
21D
102
}
330
21D
100
AcDbDimAssoc
330
21C
 90
        2
 70
     0
 71
     0
  1
AcDbOsnapPointRef
 72
    13
331
C6
 73
     2
 91
        0
 40
0.0
 10
0.0
 20
0.0
 30
2.000000000000000E+50
 75
     0
  0
LAYOUT
  5
18
102
{ACAD_REACTORS
330
11
102
}
330
11
100
AcDbPlotSettings
  1

  2

  4

  6

 40
0.0
 41
0.0
 42
0.0
 43
0.0
 44
0.0
 45
0.0
 46
0.0
 47
0.0
 48
0.0
 49
0.0
140
0.0
141
0.0
142
1.0
143
1.0
 70
   688
 72
     0
 73
     0
 74
     5
  7

 75
    16
147
1.0
 76
     0
 77
     2
 78
   300
148
0.0
149
0.0
100
AcDbLayout
  1
Layout1
 70
     1
 71
     1
 10
0.0
 20
0.0
 11
12.0
 21
9.0
 12
0.0
 22
0.0
 32
0.0
 14
1.000000000000000E+20
 24
1.000000000000000E+20
 34
1.000000000000000E+20
 15
-1.000000000000000E+20
 25
-1.000000000000000E+20
 35
-1.000000000000000E+20
146
0.0
 13
0.0
 23
0.0
 33
0.0
 16
1.0
 26
0.0
 36
0.0
 17
0.0
 27
1.0
 37
0.0
 76
     0
330
15
  0
LAYOUT
  5
10
102
{ACAD_XDICTIONARY
360
12
102
}
102
{ACAD_REACTORS
330
11
102
}
330
11
100
AcDbPlotSettings
  1

  2
Microsoft XPS Document Writer
  4
Letter
  6

 40
3.174999952316284
 41
3.174999952316284
 42
3.175003051757812
 43
3.17498779296875
 44
215.8999938964844
 45
279.3999938964844
 46
0.0
 47
0.0
 48
0.0
 49
0.0
140
0.0
141
0.0
142
1.0
143
6.849119936724107
 70
 11952
 72
     0
 73
     1
 74
     0
  7

 75
     0
147
0.1460041595472913
 76
     0
 77
     2
 78
   300
148
0.9590289534723908
149
-206.7291300837655
100
AcDbLayout
  1
Model
 70
     1
 71
     0
 10
0.0
 20
0.0
 11
12.0
 21
9.0
 12
0.0
 22
0.0
 32
0.0
 14
0.0
 24
0.0
 34
0.0
 15
0.0
 25
0.0
 35
0.0
146
0.0
 13
0.0
 23
0.0
 33
0.0
 16
1.0
 26
0.0
 36
0.0
 17
0.0
 27
1.0
 37
0.0
 76
     0
330
2
331
25
1001
ACAD_PSEXT
1000
Microsoft XPS Document Writer
1000
Microsoft XPS Document Writer
1000
XPSPort:
1000

1070
     0
  0
MATERIAL
  5
3B
102
{ACAD_REACTORS
330
D
102
}
330
D
100
AcDbMaterial
  1
ByBlock
 73
     1
 78
     1
172
     1
176
     1
270
     1
274
     1
 94
       63
  0
MATERIAL
  5
3A
102
{ACAD_REACTORS
330
D
102
}
330
D
100
AcDbMaterial
  1
ByLayer
 73
     1
 78
     1
172
     1
176
     1
270
     1
274
     1
 94
       63
  0
MATERIAL
  5
C
102
{ACAD_REACTORS
330
D
102
}
330
D
100
AcDbMaterial
  1
Global
 73
     1
 78
     1
172
     1
176
     1
270
     1
274
     1
 94
       63
  0
MLINESTYLE
  5
50
102
{ACAD_REACTORS
330
38
102
}
330
38
100
AcDbMlineStyle
  2
STANDARD
 70
     0
  3

 62
   256
 51
90.0
 52
90.0
 71
     2
 49
0.5
 62
   256
  6
BYLAYER
 49
-0.5
 62
   256
  6
BYLAYER
  0
ACDBPLACEHOLDER
  5
9
102
{ACAD_REACTORS
330
A
102
}
330
A
  0
SCALE
  5
55
102
{ACAD_REACTORS
330
3D
102
}
330
3D
100
AcDbScale
 70
     0
300
1:1
140
1.0
141
1.0
290
     1
  0
SCALE
  5
56
102
{ACAD_REACTORS
330
3D
102
}
330
3D
100
AcDbScale
 70
     0
300
1:2
140
1.0
141
2.0
290
     0
  0
SCALE
  5
57
102
{ACAD_REACTORS
330
3D
102
}
330
3D
100
AcDbScale
 70
     0
300
1:4
140
1.0
141
4.0
290
     0
  0
SCALE
  5
58
102
{ACAD_REACTORS
330
3D
102
}
330
3D
100
AcDbScale
 70
     0
300
1:5
140
1.0
141
5.0
290
     0
  0
SCALE
  5
59
102
{ACAD_REACTORS
330
3D
102
}
330
3D
100
AcDbScale
 70
     0
300
1:8
140
1.0
141
8.0
290
     0
  0
SCALE
  5
5A
102
{ACAD_REACTORS
330
3D
102
}
330
3D
100
AcDbScale
 70
     0
300
1:10
140
1.0
141
10.0
290
     0
  0
SCALE
  5
5B
102
{ACAD_REACTORS
330
3D
102
}
330
3D
100
AcDbScale
 70
     0
300
1:16
140
1.0
141
16.0
290
     0
  0
SCALE
  5
5C
102
{ACAD_REACTORS
330
3D
102
}
330
3D
100
AcDbScale
 70
     0
300
1:20
140
1.0
141
20.0
290
     0
  0
SCALE
  5
5D
102
{ACAD_REACTORS
330
3D
102
}
330
3D
100
AcDbScale
 70
     0
300
1:30
140
1.0
141
30.0
290
     0
  0
SCALE
  5
5E
102
{ACAD_REACTORS
330
3D
102
}
330
3D
100
AcDbScale
 70
     0
300
1:40
140
1.0
141
40.0
290
     0
  0
SCALE
  5
5F
102
{ACAD_REACTORS
330
3D
102
}
330
3D
100
AcDbScale
 70
     0
300
1:50
140
1.0
141
50.0
290
     0
  0
SCALE
  5
60
102
{ACAD_REACTORS
330
3D
102
}
330
3D
100
AcDbScale
 70
     0
300
1:100
140
1.0
141
100.0
290
     0
  0
SCALE
  5
61
102
{ACAD_REACTORS
330
3D
102
}
330
3D
100
AcDbScale
 70
     0
300
2:1
140
2.0
141
1.0
290
     0
  0
SCALE
  5
62
102
{ACAD_REACTORS
330
3D
102
}
330
3D
100
AcDbScale
 70
     0
300
4:1
140
4.0
141
1.0
290
     0
  0
SCALE
  5
63
102
{ACAD_REACTORS
330
3D
102
}
330
3D
100
AcDbScale
 70
     0
300
8:1
140
8.0
141
1.0
290
     0
  0
SCALE
  5
64
102
{ACAD_REACTORS
330
3D
102
}
330
3D
100
AcDbScale
 70
     0
300
10:1
140
10.0
141
1.0
290
     0
  0
SCALE
  5
65
102
{ACAD_REACTORS
330
3D
102
}
330
3D
100
AcDbScale
 70
     0
300
100:1
140
100.0
141
1.0
290
     0
  0
SCALE
  5
66
102
{ACAD_REACTORS
330
3D
102
}
330
3D
100
AcDbScale
 70
     0
300
1/128" = 1'-0"
140
0.0078125
141
12.0
290
     0
  0
SCALE
  5
67
102
{ACAD_REACTORS
330
3D
102
}
330
3D
100
AcDbScale
 70
     0
300
1/64" = 1'-0"
140
0.015625
141
12.0
290
     0
  0
SCALE
  5
68
102
{ACAD_REACTORS
330
3D
102
}
330
3D
100
AcDbScale
 70
     0
300
1/32" = 1'-0"
140
0.03125
141
12.0
290
     0
  0
SCALE
  5
69
102
{ACAD_REACTORS
330
3D
102
}
330
3D
100
AcDbScale
 70
     0
300
1/16" = 1'-0"
140
0.0625
141
12.0
290
     0
  0
SCALE
  5
6A
102
{ACAD_REACTORS
330
3D
102
}
330
3D
100
AcDbScale
 70
     0
300
3/32" = 1'-0"
140
0.09375
141
12.0
290
     0
  0
SCALE
  5
6B
102
{ACAD_REACTORS
330
3D
102
}
330
3D
100
AcDbScale
 70
     0
300
1/8" = 1'-0"
140
0.125
141
12.0
290
     0
  0
SCALE
  5
6C
102
{ACAD_REACTORS
330
3D
102
}
330
3D
100
AcDbScale
 70
     0
300
3/16" = 1'-0"
140
0.1875
141
12.0
290
     0
  0
SCALE
  5
6D
102
{ACAD_REACTORS
330
3D
102
}
330
3D
100
AcDbScale
 70
     0
300
1/4" = 1'-0"
140
0.25
141
12.0
290
     0
  0
SCALE
  5
6E
102
{ACAD_REACTORS
330
3D
102
}
330
3D
100
AcDbScale
 70
     0
300
3/8" = 1'-0"
140
0.375
141
12.0
290
     0
  0
SCALE
  5
6F
102
{ACAD_REACTORS
330
3D
102
}
330
3D
100
AcDbScale
 70
     0
300
1/2" = 1'-0"
140
0.5
141
12.0
290
     0
  0
SCALE
  5
70
102
{ACAD_REACTORS
330
3D
102
}
330
3D
100
AcDbScale
 70
     0
300
3/4" = 1'-0"
140
0.75
141
12.0
290
     0
  0
SCALE
  5
71
102
{ACAD_REACTORS
330
3D
102
}
330
3D
100
AcDbScale
 70
     0
300
1" = 1'-0"
140
1.0
141
12.0
290
     0
  0
SCALE
  5
72
102
{ACAD_REACTORS
330
3D
102
}
330
3D
100
AcDbScale
 70
     0
300
1-1/2" = 1'-0"
140
1.5
141
12.0
290
     0
  0
SCALE
  5
73
102
{ACAD_REACTORS
330
3D
102
}
330
3D
100
AcDbScale
 70
     0
300
3" = 1'-0"
140
3.0
141
12.0
290
     0
  0
SCALE
  5
74
102
{ACAD_REACTORS
330
3D
102
}
330
3D
100
AcDbScale
 70
     0
300
6" = 1'-0"
140
6.0
141
12.0
290
     0
  0
SCALE
  5
75
102
{ACAD_REACTORS
330
3D
102
}
330
3D
100
AcDbScale
 70
     0
300
1'-0" = 1'-0"
140
12.0
141
12.0
290
     0
  0
TABLESTYLE
  5
51
102
{ACAD_XDICTIONARY
360
52
102
}
102
{ACAD_REACTORS
330
3E
102
}
330
3E
100
AcDbTableStyle
280
     0
  3
Standard
 70
     0
 71
     0
 40
0.06
 41
0.06
280
     0
281
     0
  7
STANDARD
140
0.18
170
     2
 62
     0
 63
     7
283
     0
 90
      512
 91
        0
  1

274
    -2
284
     1
 64
     0
275
    -2
285
     1
 65
     0
276
    -2
286
     1
 66
     0
277
    -2
287
     1
 67
     0
278
    -2
288
     1
 68
     0
279
    -2
289
     1
 69
     0
  7
STANDARD
140
0.25
170
     5
 62
     0
 63
     7
283
     0
 90
      512
 91
        0
  1

274
    -2
284
     1
 64
     0
275
    -2
285
     1
 65
     0
276
    -2
286
     1
 66
     0
277
    -2
287
     1
 67
     0
278
    -2
288
     1
 68
     0
279
    -2
289
     1
 69
     0
  7
STANDARD
140
0.18
170
     5
 62
     0
 63
     7
283
     0
 90
      512
 91
        0
  1

274
    -2
284
     1
 64
     0
275
    -2
285
     1
 65
     0
276
    -2
286
     1
 66
     0
277
    -2
287
     1
 67
     0
278
    -2
288
     1
 68
     0
279
    -2
289
     1
 69
     0
  0
VISUALSTYLE
  5
26
102
{ACAD_REACTORS
330
27
102
}
330
27
100
AcDbVisualStyle
  2
2dWireframe
 70
     4
177
     3
291
     0
 70
    58
 90
        0
176
     1
 90
        2
176
     1
 90
        0
176
     1
 90
        0
176
     1
 40
0.6
176
     1
 40
30.0
176
     1
 62
     7
420
 16777215
176
     1
 90
        1
176
     1
 90
        4
176
     1
 62
     7
176
     1
 62
   257
176
     1
 90
        1
176
     1
 90
        1
176
     1
 40
1.0
176
     1
 90
        0
176
     1
 62
   257
176
     1
 40
1.0
176
     1
 90
        1
176
     1
 90
        6
176
     1
 90
        2
176
     1
 62
     7
176
     1
 90
        5
176
     1
 90
        0
176
     1
 90
        0
176
     1
290
     0
176
     1
 90
        1
176
     1
 40
0.0
176
     1
 90
        0
176
     1
290
     1
176
     1
290
     1
176
     1
290
     0
176
     1
290
     0
176
     1
290
     0
176
     1
290
     0
176
     1
290
     0
176
     1
290
     0
176
     1
290
     0
176
     1
 90
       50
176
     1
 40
0.0
176
     1
 40
1.0
176
     1
 90
        0
176
     1
 62
    18
420
        0
176
     1
 90
       50
176
     1
 90
        3
176
     1
 62
     5
420
      255
176
     1
290
     0
176
     1
 90
       50
176
     1
 90
       50
176
     1
 90
       50
176
     1
290
     0
176
     1
 90
       50
176
     1
 62
   256
176
     0
 40
1.0
176
     0
 90
        2
176
     1
  1
strokes_ogs.tif
176
     1
290
     0
176
     1
 40
1.0
176
     1
 40
1.0
176
     1
  0
VISUALSTYLE
  5
144
102
{ACAD_REACTORS
330
27
102
}
330
27
100
AcDbVisualStyle
  2
EdgeColorOff
 70
    22
177
     3
291
     1
 70
    58
 90
        2
176
     0
 90
        2
176
     0
 90
        0
176
     0
 90
        0
176
     0
 40
0.6
176
     0
 40
30.0
176
     0
 62
     7
420
 16777215
176
     0
 90
        1
176
     0
 90
        4
176
     0
 62
     7
176
     0
 62
   257
176
     0
 90
        1
176
     0
 90
        1
176
     0
 40
1.0
176
     0
 90
        8
176
     2
 62
     7
176
     0
 40
1.0
176
     0
 90
        1
176
     0
 90
        6
176
     0
 90
        2
176
     0
 62
     7
176
     0
 90
        5
176
     0
 90
        0
176
     0
 90
        0
176
     0
290
     0
176
     0
 90
        1
176
     0
 40
0.0
176
     0
 90
        0
176
     0
290
     0
176
     1
290
     1
176
     1
290
     1
176
     1
290
     0
176
     1
290
     0
176
     1
290
     0
176
     1
290
     0
176
     1
290
     0
176
     1
290
     0
176
     1
 90
       50
176
     1
 40
0.0
176
     1
 40
1.0
176
     1
 90
        0
176
     1
 62
    18
420
        0
176
     1
 90
       50
176
     1
 90
        3
176
     1
 62
     5
420
      255
176
     1
290
     0
176
     1
 90
       50
176
     1
 90
       50
176
     1
 90
       50
176
     1
290
     0
176
     1
 90
       50
176
     1
 62
   256
176
     0
 40
1.0
176
     0
 90
        2
176
     1
  1
strokes_ogs.tif
176
     1
290
     0
176
     1
 40
1.0
176
     1
 40
1.0
176
     1
  0
VISUALSTYLE
  5
53
102
{ACAD_REACTORS
330
27
102
}
330
27
100
AcDbVisualStyle
  2
Realistic
 70
     8
177
     3
291
     0
 70
    58
 90
        2
176
     1
 90
        2
176
     1
 90
        0
176
     1
 90
        0
176
     1
 40
0.6
176
     1
 40
30.0
176
     1
 62
     7
420
 16777215
176
     1
 90
        1
176
     1
 90
        0
176
     1
 62
     7
176
     1
 62
   257
176
     1
 90
        1
176
     1
 90
        1
176
     1
 40
1.0
176
     1
 90
        8
176
     1
 62
     8
420
  7895160
176
     1
 40
1.0
176
     1
 90
        1
176
     1
 90
        6
176
     1
 90
        2
176
     1
 62
     7
176
     1
 90
        5
176
     1
 90
        0
176
     1
 90
        0
176
     1
290
     0
176
     1
 90
       13
176
     1
 40
0.0
176
     1
 90
        0
176
     1
290
     0
176
     1
290
     1
176
     1
290
     1
176
     1
290
     0
176
     1
290
     0
176
     1
290
     0
176
     1
290
     0
176
     1
290
     0
176
     1
290
     0
176
     1
 90
       50
176
     1
 40
0.0
176
     1
 40
1.0
176
     1
 90
        0
176
     1
 62
    18
420
        0
176
     1
 90
       50
176
     1
 90
        3
176
     1
 62
     5
420
      255
176
     1
290
     0
176
     1
 90
       50
176
     1
 90
       50
176
     1
 90
       50
176
     1
290
     0
176
     1
 90
       50
176
     1
 62
   256
176
     0
 40
1.0
176
     0
 90
        2
176
     1
  1
strokes_ogs.tif
176
     1
290
     0
176
     1
 40
1.0
176
     1
 40
1.0
176
     1
  0
VISUALSTYLE
  5
54
102
{ACAD_REACTORS
330
27
102
}
330
27
100
AcDbVisualStyle
  2
Wireframe
 70
     5
177
     3
291
     0
 70
    58
 90
        0
176
     1
 90
        2
176
     1
 90
        0
176
     1
 90
        0
176
     1
 40
0.6
176
     1
 40
30.0
176
     1
 62
     7
420
 16777215
176
     1
 90
        1
176
     1
 90
        4
176
     1
 62
     7
176
     1
 62
   257
176
     1
 90
        1
176
     1
 90
        1
176
     1
 40
1.0
176
     1
 90
        0
176
     1
 62
   257
176
     1
 40
1.0
176
     1
 90
        1
176
     1
 90
        6
176
     1
 90
        2
176
     1
 62
     7
176
     1
 90
        3
176
     1
 90
        0
176
     1
 90
        0
176
     1
290
     0
176
     1
 90
        1
176
     1
 40
0.0
176
     1
 90
        0
176
     1
290
     0
176
     1
290
     1
176
     1
290
     1
176
     1
290
     0
176
     1
290
     0
176
     1
290
     0
176
     1
290
     0
176
     1
290
     0
176
     1
290
     0
176
     1
 90
       50
176
     1
 40
0.0
176
     1
 40
1.0
176
     1
 90
        0
176
     1
 62
    18
420
        0
176
     1
 90
       50
176
     1
 90
        3
176
     1
 62
     5
420
      255
176
     1
290
     0
176
     1
 90
       50
176
     1
 90
       50
176
     1
 90
       50
176
     1
290
     0
176
     1
 90
       50
176
     1
 62
   256
176
     0
 40
1.0
176
     0
 90
        2
176
     1
  1
strokes_ogs.tif
176
     1
290
     0
176
     1
 40
1.0
176
     1
 40
1.0
176
     1
  0
DICTIONARYVAR
  5
41
102
{ACAD_REACTORS
330
40
102
}
330
40
100
DictionaryVariables
280
     0
  1
1:1
  0
DICTIONARYVAR
  5
42
102
{ACAD_REACTORS
330
40
102
}
330
40
100
DictionaryVariables
280
     0
  1
STANDARD
  0
DICTIONARYVAR
  5
43
102
{ACAD_REACTORS
330
40
102
}
330
40
100
DictionaryVariables
280
     0
  1
STANDARD
  0
DICTIONARYVAR
  5
44
102
{ACAD_REACTORS
330
40
102
}
330
40
100
DictionaryVariables
280
     0
  1

  0
DICTIONARYVAR
  5
45
102
{ACAD_REACTORS
330
40
102
}
330
40
100
DictionaryVariables
280
     0
  1

  0
DICTIONARYVAR
  5
46
102
{ACAD_REACTORS
330
40
102
}
330
40
100
DictionaryVariables
280
     0
  1
2
  0
DICTIONARYVAR
  5
47
102
{ACAD_REACTORS
330
40
102
}
330
40
100
DictionaryVariables
280
     0
  1
BYLAYER
  0
DICTIONARYVAR
  5
48
102
{ACAD_REACTORS
330
40
102
}
330
40
100
DictionaryVariables
280
     0
  1
1
  0
DICTIONARYVAR
  5
49
102
{ACAD_REACTORS
330
40
102
}
330
40
100
DictionaryVariables
280
     0
  1
H
  0
DICTIONARYVAR
  5
4A
102
{ACAD_REACTORS
330
40
102
}
330
40
100
DictionaryVariables
280
     0
  1
ByLayer
  0
DICTIONARYVAR
  5
4B
102
{ACAD_REACTORS
330
40
102
}
330
40
100
DictionaryVariables
280
     0
  1
1
  0
DICTIONARYVAR
  5
4C
102
{ACAD_REACTORS
330
40
102
}
330
40
100
DictionaryVariables
280
     0
  1
1
  0
DICTIONARYVAR
  5
4D
102
{ACAD_REACTORS
330
40
102
}
330
40
100
DictionaryVariables
280
     0
  1
15
  0
DICTIONARYVAR
  5
4E
102
{ACAD_REACTORS
330
40
102
}
330
40
100
DictionaryVariables
280
     0
  1
0
  0
DICTIONARYVAR
  5
4F
102
{ACAD_REACTORS
330
40
102
}
330
40
100
DictionaryVariables
280
     0
  1
0
  0
DICTIONARY
  5
12
330
10
100
AcDbDictionary
280
     1
281
     1
  0
DICTIONARY
  5
52
330
51
100
AcDbDictionary
280
     1
281
     1
  3
ACAD_ROUNDTRIP_2008_TABLESTYLE_CELLSTYLEMAP
360
22B
  0
CELLSTYLEMAP
  5
22B
102
{ACAD_REACTORS
330
52
102
}
330
52
100
AcDbCellStyleMap
 90
        3
300
CELLSTYLE
  1
TABLEFORMAT_BEGIN
 90
        5
170
     1
 91
        0
 92
    32768
 62
   257
 93
        1
300
CONTENTFORMAT
  1
CONTENTFORMAT_BEGIN
 90
        0
 91
        0
 92
      512
 93
        0
300

 40
0.0
140
1.0
 94
        5
 62
     0
340
1D
144
0.25
309
CONTENTFORMAT_END
171
     1
301
MARGIN
  1
CELLMARGIN_BEGIN
 40
0.06
 40
0.06
 40
0.06
 40
0.06
 40
0.18
 40
0.18
309
CELLMARGIN_END
 94
        6
 95
        1
302
GRIDFORMAT
  1
GRIDFORMAT_BEGIN
 90
        0
 91
        1
 62
     0
 92
       -2
340
0
 93
        0
 40
0.045
309
GRIDFORMAT_END
 95
        2
302
GRIDFORMAT
  1
GRIDFORMAT_BEGIN
 90
        0
 91
        1
 62
     0
 92
       -2
340
0
 93
        0
 40
0.045
309
GRIDFORMAT_END
 95
        4
302
GRIDFORMAT
  1
GRIDFORMAT_BEGIN
 90
        0
 91
        1
 62
     0
 92
       -2
340
0
 93
        0
 40
0.045
309
GRIDFORMAT_END
 95
        8
302
GRIDFORMAT
  1
GRIDFORMAT_BEGIN
 90
        0
 91
        1
 62
     0
 92
       -2
340
0
 93
        0
 40
0.045
309
GRIDFORMAT_END
 95
       16
302
GRIDFORMAT
  1
GRIDFORMAT_BEGIN
 90
        0
 91
        1
 62
     0
 92
       -2
340
0
 93
        0
 40
0.045
309
GRIDFORMAT_END
 95
       32
302
GRIDFORMAT
  1
GRIDFORMAT_BEGIN
 90
        0
 91
        1
 62
     0
 92
       -2
340
0
 93
        0
 40
0.045
309
GRIDFORMAT_END
309
TABLEFORMAT_END
  1
CELLSTYLE_BEGIN
 90
        1
 91
        1
300
_TITLE
309
CELLSTYLE_END
300
CELLSTYLE
  1
TABLEFORMAT_BEGIN
 90
        5
170
     1
 91
        0
 92
        0
 62
   257
 93
        1
300
CONTENTFORMAT
  1
CONTENTFORMAT_BEGIN
 90
        0
 91
        0
 92
      512
 93
        0
300

 40
0.0
140
1.0
 94
        5
 62
     0
340
1D
144
0.18
309
CONTENTFORMAT_END
171
     1
301
MARGIN
  1
CELLMARGIN_BEGIN
 40
0.06
 40
0.06
 40
0.06
 40
0.06
 40
0.18
 40
0.18
309
CELLMARGIN_END
 94
        6
 95
        1
302
GRIDFORMAT
  1
GRIDFORMAT_BEGIN
 90
        0
 91
        1
 62
     0
 92
       -2
340
0
 93
        0
 40
0.045
309
GRIDFORMAT_END
 95
        2
302
GRIDFORMAT
  1
GRIDFORMAT_BEGIN
 90
        0
 91
        1
 62
     0
 92
       -2
340
0
 93
        0
 40
0.045
309
GRIDFORMAT_END
 95
        4
302
GRIDFORMAT
  1
GRIDFORMAT_BEGIN
 90
        0
 91
        1
 62
     0
 92
       -2
340
0
 93
        0
 40
0.045
309
GRIDFORMAT_END
 95
        8
302
GRIDFORMAT
  1
GRIDFORMAT_BEGIN
 90
        0
 91
        1
 62
     0
 92
       -2
340
0
 93
        0
 40
0.045
309
GRIDFORMAT_END
 95
       16
302
GRIDFORMAT
  1
GRIDFORMAT_BEGIN
 90
        0
 91
        1
 62
     0
 92
       -2
340
0
 93
        0
 40
0.045
309
GRIDFORMAT_END
 95
       32
302
GRIDFORMAT
  1
GRIDFORMAT_BEGIN
 90
        0
 91
        1
 62
     0
 92
       -2
340
0
 93
        0
 40
0.045
309
GRIDFORMAT_END
309
TABLEFORMAT_END
  1
CELLSTYLE_BEGIN
 90
        2
 91
        1
300
_HEADER
309
CELLSTYLE_END
300
CELLSTYLE
  1
TABLEFORMAT_BEGIN
 90
        5
170
     1
 91
        0
 92
        0
 62
   257
 93
        1
300
CONTENTFORMAT
  1
CONTENTFORMAT_BEGIN
 90
        0
 91
        0
 92
      512
 93
        0
300

 40
0.0
140
1.0
 94
        2
 62
     0
340
1D
144
0.18
309
CONTENTFORMAT_END
171
     1
301
MARGIN
  1
CELLMARGIN_BEGIN
 40
0.06
 40
0.06
 40
0.06
 40
0.06
 40
0.18
 40
0.18
309
CELLMARGIN_END
 94
        6
 95
        1
302
GRIDFORMAT
  1
GRIDFORMAT_BEGIN
 90
        0
 91
        1
 62
     0
 92
       -2
340
0
 93
        0
 40
0.045
309
GRIDFORMAT_END
 95
        2
302
GRIDFORMAT
  1
GRIDFORMAT_BEGIN
 90
        0
 91
        1
 62
     0
 92
       -2
340
0
 93
        0
 40
0.045
309
GRIDFORMAT_END
 95
        4
302
GRIDFORMAT
  1
GRIDFORMAT_BEGIN
 90
        0
 91
        1
 62
     0
 92
       -2
340
0
 93
        0
 40
0.045
309
GRIDFORMAT_END
 95
        8
302
GRIDFORMAT
  1
GRIDFORMAT_BEGIN
 90
        0
 91
        1
 62
     0
 92
       -2
340
0
 93
        0
 40
0.045
309
GRIDFORMAT_END
 95
       16
302
GRIDFORMAT
  1
GRIDFORMAT_BEGIN
 90
        0
 91
        1
 62
     0
 92
       -2
340
0
 93
        0
 40
0.045
309
GRIDFORMAT_END
 95
       32
302
GRIDFORMAT
  1
GRIDFORMAT_BEGIN
 90
        0
 91
        1
 62
     0
 92
       -2
340
0
 93
        0
 40
0.045
309
GRIDFORMAT_END
309
TABLEFORMAT_END
  1
CELLSTYLE_BEGIN
 90
        3
 91
        2
300
_DATA
309
CELLSTYLE_END
  0
ENDSEC
  0
SECTION
  2
ACDSDATA
 70
     2
 71
     8
  0
ACDSSCHEMA
 90
        0
  1
AcDb_Thumbnail_Schema
  2
AcDbDs::ID
280
    10
 91
        8
  2
Thumbnail_Data
280
    15
 91
        0
101
ACDSRECORD
 95
        0
 90
        1
  2
AcDbDs::TreatedAsObjectData
280
     1
291
     1
101
ACDSRECORD
 95
        0
 90
        2
  2
AcDbDs::Legacy
280
     1
291
     1
101
ACDSRECORD
  1
AcDbDs::ID
 90
        3
  2
AcDs:Indexable
280
     1
291
     1
101
ACDSRECORD
  1
AcDbDs::ID
 90
        4
  2
AcDbDs::HandleAttribute
280
     7
282
     1
  0
ACDSSCHEMA
 90
        1
  1
AcDbDs::TreatedAsObjectDataSchema
  2
AcDbDs::TreatedAsObjectData
280
     1
 91
        0
  0
ACDSSCHEMA
 90
        2
  1
AcDbDs::LegacySchema
  2
AcDbDs::Legacy
280
     1
 91
        0
  0
ACDSSCHEMA
 90
        3
  1
AcDbDs::IndexedPropertySchema
  2
AcDs:Indexable
280
     1
 91
        0
  0
ACDSSCHEMA
 90
        4
  1
AcDbDs::HandleAttributeSchema
  2
AcDbDs::HandleAttribute
280
     7
 91
        1
284
     1
  0
ACDSRECORD
 90
        0
  2
AcDbDs::ID
280
    10
320
10
  2
Thumbnail_Data
280
    15
 94
     2009
310
89504E470D0A1A0A0000000D49484452000001000000008208030000009EA3E63300000300504C5445000000000000FFFFFF0000000000000000000000000000000000000000000000000000330000660000990000CC0000FF0033000033330033660033990033CC0033FF0066000066330066660066990066CC0066FF0099
310
000099330099660099990099CC0099FF00CC0000CC3300CC6600CC9900CCCC00CCFF00FF0000FF3300FF6600FF9900FFCC00FFFF3300003300333300663300993300CC3300FF3333003333333333663333993333CC3333FF3366003366333366663366993366CC3366FF3399003399333399663399993399CC3399FF33CC00
310
33CC3333CC6633CC9933CCCC33CCFF33FF0033FF3333FF6633FF9933FFCC33FFFF6600006600336600666600996600CC6600FF6633006633336633666633996633CC6633FF6666006666336666666666996666CC6666FF6699006699336699666699996699CC6699FF66CC0066CC3366CC6666CC9966CCCC66CCFF66FF0066
310
FF3366FF6666FF9966FFCC66FFFF9900009900339900669900999900CC9900FF9933009933339933669933999933CC9933FF9966009966339966669966999966CC9966FF9999009999339999669999999999CC9999FF99CC0099CC3399CC6699CC9999CCCC99CCFF99FF0099FF3399FF6699FF9999FFCC99FFFFCC0000CC00
310
33CC0066CC0099CC00CCCC00FFCC3300CC3333CC3366CC3399CC33CCCC33FFCC6600CC6633CC6666CC6699CC66CCCC66FFCC9900CC9933CC9966CC9999CC99CCCC99FFCCCC00CCCC33CCCC66CCCC99CCCCCCCCCCFFCCFF00CCFF33CCFF66CCFF99CCFFCCCCFFFFFF0000FF0033FF0066FF0099FF00CCFF00FFFF3300FF3333
310
FF3366FF3399FF33CCFF33FFFF6600FF6633FF6666FF6699FF66CCFF66FFFF9900FF9933FF9966FF9999FF99CCFF99FFFFCC00FFCC33FFCC66FFCC99FFCCCCFFCCFFFFFF00FFFF33FFFF66FFFF99FFFFCCFFFFFF0000000D0D0D1A1A1A2828283535354343435050505D5D5D6B6B6B787878868686939393A1A1A1AEAEAEBB
310
BBBBC9C9C9D6D6D6E4E4E4F1F1F1FFFFFF000000000000000000000000000000000000000000000000000000000000C11FEF66000004944944415478DAED5B4B96A3300CF40D7C92BEFFCEC76039B7D07E42F057968D6C0CCDBCA97A9D04121076A11F92DB1800000000000000000000000000000000000000000000000000
310
00000000802FEC72DC217344E82801251BEC6B2BFD6485938B2DDBB882ED9ED5D9AA84D603B5E2847404E88825A2722F7D4101D686B1AA655642D915C6854E10A03A90548863ADCE96372F095DE303B8DC6C7C2F2620FEF21C0103D2D404F458E8086D1D381905825CBA4200A59812DEC5594E11E085DE4B0069F5B13BDE8C
310
00E6EE2C659B170958EF037AD362E3493F8904A43FEB9C89DF3B324982A38B26B09C80EE9D6D295A4E413281F4B76D2D0DE073ACAF668A4B3E47C046DBF67DED6FF4DD081F9FD91C9F6EF3F087FB7DDA2A02AAB01D28F0E666A8A702A643C0B20890CB2D3292E34679852D4F61BB71BF26C0B608083EA00887A6B2BC27A2C0
310
E158CA0C2CD7D36C86C1AF3B9671BA6C501304040BA2C2BD7408A85D50E59C0609384216676094007F7416050608A09A00290AECEFF110C73DF5F52860654FACD500C90444EB561220A48181808FE43FEE2B688119441F70D104EC9C0F10277D28409C56650221C908B7CED09228F07B3EC05FBDD8DE77AD44801F8AB37EE4
310
DF1CEE02056F708291009BCD5F2660FFDDEDF81CB1BF5749C32C01E6AA0658C309302D1F6024023237E43A04440DA0651A603B26E012ACEB23F88014057A89D01901456DA37816F8CCF84F22C03B5FBA960AD01A0D30F361B00811F4F385FDBC4402FC4857468137F80012D4B0E1037C9C58F43CDC48852B02A65261120888
310
376E8A80B2B6B0AA22F468182C879F4F7EF7246A02CC4A02DE9008855BF0130FFF39D3809535C1EB1AB08080210D584780BFCED56781A1284012017B09492680151A53EEB34603A259F2824D9700927D80F5F5B07E1E5011C0DB2F629DCDDEDA17A08DF57C8E828FAF1025848A10B1FD918A906913A03181476A82B18A570D
310
CE952DACF814A3F701F44602CC957AF8F1223501A1E893EA01365947B7D47CA70998AAE258B6B0E4AA4B56C25213602B0D986C372D5A1F1032415AD019D145810E015279E3E6C688AD7A839506E803EF6C4DB0DBF42C09585410EF35476B1350F7CFC7CBE26C3E2201AC7E4F6B7B83BF4CC0E97A84C709A83ABEB304A80A22
310
E7229F20A0218EC6578B347B83393679E84DEFFA2C012A79FB41AC24767C9F77878BAA415E46B03422542660651468D42EE70890D707B06C6F9480E26188163320A7C20ADB6463AD4CA0E3DB6948E8DD1A9097DA7A8227D6339D26126F5925A65200DD41AC8B654D3C523A4DA7790F2C9353CECDE48D6B15014C5C45802985
310
BE8680294565DA9AAF78E14F4E838F1E5A02A6DC43EA0CF5E4EA3520A5ED52665110A0D680A3CC6455045C688D3569385DC6958F95AF65A8640DCB8C426FD280F344A8AC7C18E6D48A53A96AE2F409E01AD0AAB7DC69028D6572133E608FDB75C82EED7FD807B8DB7D4099073408C81E5EE57A11C58F46CEC216BFE5656DA6
310
61853D8F3AC1CB89904461747AA5B657EA7F14739463953A0342389E103A41C0D9BF35D8E603433B622D94392874E261E8BFFE9F210000000000000000000000000000000000000000000000000000807F0B7F01024EAD66C75F66F90000000049454E44AE426082
  0
ENDSEC
  0
EOF
