  0
SECTION
  2
HEADER
  9
$ACADVER
  1
AC1032
  9
$ACADMAINTVER
 90
      197
  9
$DWGCODEPAGE
  3
ANSI_936
  9
$REQUIREDVERSIONS
160
                 0
  9
$INSBASE
 10
0.0
 20
0.0
 30
0.0
  9
$EXTMIN
 10
442.2009780324474
 20
-694.6557860105103
 30
-0.0436470691025442
  9
$EXTMAX
 10
1308.519132063224
 20
-424.7687287289686
 30
0.2680110552310389
  9
$LIMMIN
 10
0.0
 20
0.0
  9
$LIMMAX
 10
12.0
 20
9.0
  9
$ORTHOMODE
 70
     1
  9
$REGENMODE
 70
     1
  9
$FILLMODE
 70
     1
  9
$QTEXTMODE
 70
     0
  9
$MIRRTEXT
 70
     0
  9
$LTSCALE
 40
1.0
  9
$ATTMODE
 70
     1
  9
$TEXTSIZE
 40
0.1025444954350405
  9
$TRACEWID
 40
0.05
  9
$TEXTSTYLE
  7
SIMPLEX
  9
$CLAYER
  8
LF TOP
  9
$CELTYPE
  6
ByLayer
  9
$CECOLOR
 62
   256
  9
$CELTSCALE
 40
1.0
  9
$DISPSILH
 70
     0
  9
$DIMSCALE
 40
1.0
  9
$DIMASZ
 40
0.12
  9
$DIMEXO
 40
0.025
  9
$DIMDLI
 40
0.25
  9
$DIMRND
 40
0.0
  9
$DIMDLE
 40
0.0
  9
$DIMEXE
 40
0.05
  9
$DIMTP
 40
0.0
  9
$DIMTM
 40
0.0
  9
$DIMTXT
 40
0.08
  9
$DIMCEN
 40
0.05
  9
$DIMTSZ
 40
0.0
  9
$DIMTOL
 70
     0
  9
$DIMLIM
 70
     0
  9
$DIMTIH
 70
     0
  9
$DIMTOH
 70
     0
  9
$DIMSE1
 70
     0
  9
$DIMSE2
 70
     0
  9
$DIMTAD
 70
     0
  9
$DIMZIN
 70
     1
  9
$DIMBLK
  1

  9
$DIMASO
 70
     1
  9
$DIMSHO
 70
     1
  9
$DIMPOST
  1

  9
$DIMAPOST
  1

  9
$DIMALT
 70
     0
  9
$DIMALTD
 70
     3
  9
$DIMALTF
 40
0.03937007874016
  9
$DIMLFAC
 40
1.0
  9
$DIMTOFL
 70
     1
  9
$DIMTVP
 40
0.0
  9
$DIMTIX
 70
     0
  9
$DIMSOXD
 70
     0
  9
$DIMSAH
 70
     0
  9
$DIMBLK1
  1

  9
$DIMBLK2
  1

  9
$DIMSTYLE
  2
2-0
  9
$DIMCLRD
 70
     0
  9
$DIMCLRE
 70
     0
  9
$DIMCLRT
 70
     0
  9
$DIMTFAC
 40
1.0
  9
$DIMGAP
 40
0.025
  9
$DIMJUST
 70
     0
  9
$DIMSD1
 70
     0
  9
$DIMSD2
 70
     0
  9
$DIMTOLJ
 70
     0
  9
$DIMTZIN
 70
     8
  9
$DIMALTZ
 70
     0
  9
$DIMALTTZ
 70
     0
  9
$DIMUPT
 70
     0
  9
$DIMDEC
 70
     3
  9
$DIMTDEC
 70
     3
  9
$DIMALTU
 70
     2
  9
$DIMALTTD
 70
     3
  9
$DIMTXSTY
  7
SIMPLEX
  9
$DIMAUNIT
 70
     0
  9
$DIMADEC
 70
     0
  9
$DIMALTRND
 40
0.0
  9
$DIMAZIN
 70
     0
  9
$DIMDSEP
 70
    46
  9
$DIMATFIT
 70
     3
  9
$DIMFRAC
 70
     0
  9
$DIMLDRBLK
  1

  9
$DIMLUNIT
 70
     2
  9
$DIMLWD
 70
    -2
  9
$DIMLWE
 70
    -2
  9
$DIMTMOVE
 70
     0
  9
$DIMFXL
 40
1.0
  9
$DIMFXLON
 70
     0
  9
$DIMJOGANG
 40
0.7853981633974483
  9
$DIMTFILL
 70
     0
  9
$DIMTFILLCLR
 70
     0
  9
$DIMARCSYM
 70
     2
  9
$DIMLTYPE
  6

  9
$DIMLTEX1
  6

  9
$DIMLTEX2
  6

  9
$DIMTXTDIRECTION
 70
     0
  9
$LUNITS
 70
     2
  9
$LUPREC
 70
     8
  9
$SKETCHINC
 40
0.1
  9
$FILLETRAD
 40
0.025
  9
$AUNITS
 70
     0
  9
$AUPREC
 70
     0
  9
$MENU
  1
.
  9
$ELEVATION
 40
0.0
  9
$PELEVATION
 40
0.0
  9
$THICKNESS
 40
0.0
  9
$LIMCHECK
 70
     0
  9
$CHAMFERA
 40
0.0
  9
$CHAMFERB
 40
0.0
  9
$CHAMFERC
 40
1.0
  9
$CHAMFERD
 40
0.0
  9
$SKPOLY
 70
     0
  9
$TDCREATE
 40
2453883.125682871
  9
$TDUCREATE
 40
2453882.792357350
  9
$TDUPDATE
 40
2460431.724641204
  9
$TDUUPDATE
 40
2460431.391313299
  9
$TDINDWG
 40
22.1032912384
  9
$TDUSRTIMER
 40
22.1032912384
  9
$USRTIMER
 70
     1
  9
$ANGBASE
 50
0.0
  9
$ANGDIR
 70
     0
  9
$PDMODE
 70
     0
  9
$PDSIZE
 40
0.0
  9
$PLINEWID
 40
0.0
  9
$SPLFRAME
 70
     0
  9
$SPLINETYPE
 70
     6
  9
$SPLINESEGS
 70
     8
  9
$HANDSEED
  5
152
  9
$SURFTAB1
 70
     6
  9
$SURFTAB2
 70
     6
  9
$SURFTYPE
 70
     6
  9
$SURFU
 70
     6
  9
$SURFV
 70
     6
  9
$UCSBASE
  2

  9
$UCSNAME
  2

  9
$UCSORG
 10
0.0
 20
0.0
 30
0.0
  9
$UCSXDIR
 10
1.0
 20
0.0
 30
0.0
  9
$UCSYDIR
 10
0.0
 20
1.0
 30
0.0
  9
$UCSORTHOREF
  2

  9
$UCSORTHOVIEW
 70
     0
  9
$UCSORGTOP
 10
0.0
 20
0.0
 30
0.0
  9
$UCSORGBOTTOM
 10
0.0
 20
0.0
 30
0.0
  9
$UCSORGLEFT
 10
0.0
 20
0.0
 30
0.0
  9
$UCSORGRIGHT
 10
0.0
 20
0.0
 30
0.0
  9
$UCSORGFRONT
 10
0.0
 20
0.0
 30
0.0
  9
$UCSORGBACK
 10
0.0
 20
0.0
 30
0.0
  9
$PUCSBASE
  2

  9
$PUCSNAME
  2

  9
$PUCSORG
 10
0.0
 20
0.0
 30
0.0
  9
$PUCSXDIR
 10
1.0
 20
0.0
 30
0.0
  9
$PUCSYDIR
 10
0.0
 20
1.0
 30
0.0
  9
$PUCSORTHOREF
  2

  9
$PUCSORTHOVIEW
 70
     0
  9
$PUCSORGTOP
 10
0.0
 20
0.0
 30
0.0
  9
$PUCSORGBOTTOM
 10
0.0
 20
0.0
 30
0.0
  9
$PUCSORGLEFT
 10
0.0
 20
0.0
 30
0.0
  9
$PUCSORGRIGHT
 10
0.0
 20
0.0
 30
0.0
  9
$PUCSORGFRONT
 10
0.0
 20
0.0
 30
0.0
  9
$PUCSORGBACK
 10
0.0
 20
0.0
 30
0.0
  9
$USERI1
 70
     0
  9
$USERI2
 70
     0
  9
$USERI3
 70
     0
  9
$USERI4
 70
     0
  9
$USERI5
 70
     0
  9
$USERR1
 40
0.0
  9
$USERR2
 40
0.0
  9
$USERR3
 40
0.0
  9
$USERR4
 40
0.0
  9
$USERR5
 40
0.0
  9
$WORLDVIEW
 70
     1
  9
$SHADEDGE
 70
     3
  9
$SHADEDIF
 70
    70
  9
$TILEMODE
 70
     1
  9
$MAXACTVP
 70
    64
  9
$PINSBASE
 10
0.0
 20
0.0
 30
0.0
  9
$PLIMCHECK
 70
     0
  9
$PEXTMIN
 10
1.000000000000000E+20
 20
1.000000000000000E+20
 30
1.000000000000000E+20
  9
$PEXTMAX
 10
-1.000000000000000E+20
 20
-1.000000000000000E+20
 30
-1.000000000000000E+20
  9
$PLIMMIN
 10
0.0
 20
0.0
  9
$PLIMMAX
 10
12.0
 20
9.0
  9
$UNITMODE
 70
     0
  9
$VISRETAIN
 70
     1
  9
$PLINEGEN
 70
     0
  9
$PSLTSCALE
 70
     1
  9
$TREEDEPTH
 70
  3020
  9
$CMLSTYLE
  2
Standard
  9
$CMLJUST
 70
     0
  9
$CMLSCALE
 40
1.0
  9
$PROXYGRAPHICS
 70
     1
  9
$MEASUREMENT
 70
     0
  9
$CELWEIGHT
370
    -1
  9
$ENDCAPS
280
     0
  9
$JOINSTYLE
280
     0
  9
$LWDISPLAY
290
     0
  9
$INSUNITS
 70
     0
  9
$HYPERLINKBASE
  1

  9
$STYLESHEET
  1

  9
$XEDIT
290
     1
  9
$CEPSNTYPE
380
     0
  9
$PSTYLEMODE
290
     1
  9
$FINGERPRINTGUID
  2
{CAA872A7-C33B-6D4E-83EB-6124BB802F72}
  9
$VERSIONGUID
  2
{FEEAFC05-C392-4284-BD5C-0491159089A6}
  9
$EXTNAMES
290
     1
  9
$PSVPSCALE
 40
0.0
  9
$OLESTARTUP
290
     0
  9
$SORTENTS
280
   127
  9
$INDEXCTL
280
     0
  9
$HIDETEXT
280
     1
  9
$XCLIPFRAME
280
     2
  9
$HALOGAP
280
     0
  9
$OBSCOLOR
 70
   257
  9
$OBSLTYPE
280
     0
  9
$INTERSECTIONDISPLAY
280
     0
  9
$INTERSECTIONCOLOR
 70
   257
  9
$DIMASSOC
280
     1
  9
$PROJECTNAME
  1

  9
$CAMERADISPLAY
290
     0
  9
$LENSLENGTH
 40
50.0
  9
$CAMERAHEIGHT
 40
0.0
  9
$STEPSPERSEC
 40
2.0
  9
$STEPSIZE
 40
6.0
  9
$3DDWFPREC
 40
2.0
  9
$PSOLWIDTH
 40
0.25
  9
$PSOLHEIGHT
 40
4.0
  9
$LOFTANG1
 40
1.570796326794896
  9
$LOFTANG2
 40
1.570796326794896
  9
$LOFTMAG1
 40
0.0
  9
$LOFTMAG2
 40
0.0
  9
$LOFTPARAM
 70
     7
  9
$LOFTNORMALS
280
     1
  9
$LATITUDE
 40
37.795
  9
$LONGITUDE
 40
-122.394
  9
$NORTHDIRECTION
 40
0.0
  9
$TIMEZONE
 70
 -8000
  9
$LIGHTGLYPHDISPLAY
280
     1
  9
$TILEMODELIGHTSYNCH
280
     1
  9
$CMATERIAL
347
33
  9
$SOLIDHIST
280
     0
  9
$SHOWHIST
280
     1
  9
$DWFFRAME
280
     2
  9
$DGNFRAME
280
     0
  9
$REALWORLDSCALE
290
     1
  9
$INTERFERECOLOR
 62
     1
  9
$INTERFEREOBJVS
345
4C
  9
$INTERFEREVPVS
346
4D
  9
$CSHADOW
280
     0
  9
$SHADOWPLANELOCATION
 40
0.0
  0
ENDSEC
  0
SECTION
  2
CLASSES
  0
CLASS
  1
ACDBDICTIONARYWDFLT
  2
AcDbDictionaryWithDefault
  3
ObjectDBX Classes
 90
        0
 91
        1
280
     0
281
     0
  0
CLASS
  1
DICTIONARYVAR
  2
AcDbDictionaryVar
  3
ObjectDBX Classes
 90
        0
 91
       14
280
     0
281
     0
  0
CLASS
  1
TABLESTYLE
  2
AcDbTableStyle
  3
ObjectDBX Classes
 90
     4095
 91
        1
280
     0
281
     0
  0
CLASS
  1
SORTENTSTABLE
  2
AcDbSortentsTable
  3
ObjectDBX Classes
 90
        0
 91
        2
280
     0
281
     0
  0
CLASS
  1
VISUALSTYLE
  2
AcDbVisualStyle
  3
ObjectDBX Classes
 90
     4095
 91
        3
280
     0
281
     0
  0
CLASS
  1
MATERIAL
  2
AcDbMaterial
  3
ObjectDBX Classes
 90
     1153
 91
        3
280
     0
281
     0
  0
CLASS
  1
DIMASSOC
  2
AcDbDimAssoc
  3
"AcDbDimAssoc|Product Desc:     AcDim ARX App For Dimension|Company:          Autodesk, Inc.|WEB Address:      www.autodesk.com"
 90
        0
 91
        0
280
     0
281
     0
  0
CLASS
  1
ACAD_EVALUATION_GRAPH
  2
AcDbEvalGraph
  3
ObjectDBX Classes
 90
     1153
 91
        0
280
     0
281
     0
  0
CLASS
  1
ACAECUSTOBJ
  2
AcAeEditorObj
  3
AcAeEditorObj
 90
     1024
 91
        0
280
     1
281
     0
  0
CLASS
  1
SCALE
  2
AcDbScale
  3
ObjectDBX Classes
 90
     1153
 91
       17
280
     0
281
     0
  0
CLASS
  1
MLEADERSTYLE
  2
AcDbMLeaderStyle
  3
ACDB_MLEADERSTYLE_CLASS
 90
     4095
 91
        0
280
     0
281
     0
  0
CLASS
  1
ACARRAYJIGENTITY
  2
AcArrayJigEntity
  3
ACAD_ARRAY
 90
      129
 91
        0
280
     1
281
     1
  0
CLASS
  1
ACDBASSOCNETWORK
  2
AcDbAssocNetwork
  3
ObjectDBX Classes
 90
     1025
 91
        0
280
     0
281
     0
  0
CLASS
  1
ACDBASSOCACTION
  2
AcDbAssocAction
  3
ObjectDBX Classes
 90
     1025
 91
        0
280
     0
281
     0
  0
CLASS
  1
ACDBASSOCARRAYACTIONBODY
  2
AcDbAssocArrayActionBody
  3
ObjectDBX Classes
 90
     1025
 91
        0
280
     0
281
     0
  0
CLASS
  1
ACDBASSOCVERTEXACTIONPARAM
  2
AcDbAssocVertexActionParam
  3
ObjectDBX Classes
 90
     1025
 91
        0
280
     0
281
     0
  0
CLASS
  1
ACDBASSOCDEPENDENCY
  2
AcDbAssocDependency
  3
ObjectDBX Classes
 90
     1025
 91
        0
280
     0
281
     0
  0
CLASS
  1
ACDBASSOCARRAYRECTANGULARPARAMETERS
  2
AcDbAssocArrayRectangularParameters
  3
ObjectDBX Classes
 90
     1025
 91
        0
280
     0
281
     0
  0
CLASS
  1
CELLSTYLEMAP
  2
AcDbCellStyleMap
  3
ObjectDBX Classes
 90
     1152
 91
        1
280
     0
281
     0
  0
CLASS
  1
SOLID_BACKGROUND
  2
AcDbSolidBackground
  3
SCENEOE
 90
     4095
 91
        0
280
     0
281
     0
  0
CLASS
  1
NPOCOLLECTION
  2
AcDbImpNonPersistentObjectsCollection
  3
ObjectDBX Classes
 90
     1153
 91
        0
280
     0
281
     0
  0
CLASS
  1
MULTILEADER
  2
AcDbMLeader
  3
ACDB_MLEADER_CLASS
 90
     1025
 91
        0
280
     0
281
     1
  0
CLASS
  1
ACDBSECTIONVIEWSTYLE
  2
AcDbSectionViewStyle
  3
ObjectDBX Classes
 90
     1025
 91
        0
280
     0
281
     0
  0
CLASS
  1
ACDBDETAILVIEWSTYLE
  2
AcDbDetailViewStyle
  3
ObjectDBX Classes
 90
     1025
 91
        0
280
     0
281
     0
  0
CLASS
  1
RAPIDRTRENDERSETTINGS
  2
AcDbRapidRTRenderSettings
  3
ObjectDBX Classes
 90
     1024
 91
        0
280
     0
281
     0
  0
CLASS
  1
RASTERVARIABLES
  2
AcDbRasterVariables
  3
ISM
 90
        0
 91
        0
280
     0
281
     0
  0
ENDSEC
  0
SECTION
  2
TABLES
  0
TABLE
  2
VPORT
  5
22
102
{ACAD_XDICTIONARY
360
28
102
}
330
0
100
AcDbSymbolTable
 70
     1
  0
VPORT
  5
23
330
22
100
AcDbSymbolTableRecord
100
AcDbViewportTableRecord
  2
*Active
 70
     0
 10
0.0
 20
0.0
 11
1.0
 21
1.0
 12
1266.74006437134
 22
83.71681761470876
 13
0.0
 23
0.0
 14
0.5
 24
0.5
 15
0.5
 25
0.5
 16
0.0000000000004547
 26
0.0
 36
1054.281138773764
 17
-22.03038969567395
 27
-549.8783890192742
 37
0.0319866415973016
 40
37.58805995444902
 41
2.311515151515151
 42
50.0
 43
0.0
 44
0.0
 50
0.0
 51
0.0
 71
     0
 72
 20000
 73
     1
 74
     2
 75
     0
 76
     0
 77
     0
 78
     0
281
     0
 65
     1
110
0.0
120
0.0
130
0.0
111
1.0
121
0.0
131
0.0
112
0.0
122
1.0
132
0.0
 79
     0
146
0.0
348
24
 60
     3
 61
     5
292
     1
282
     1
141
0.0
142
0.0
 63
   250
421
  3355443
1001
ACAD_NAV_VCDISPLAY
1070
     3
  0
ENDTAB
  0
TABLE
  2
LTYPE
  5
1D
330
0
100
AcDbSymbolTable
 70
     1
  0
LTYPE
  5
1E
330
1D
100
AcDbSymbolTableRecord
100
AcDbLinetypeTableRecord
  2
ByBlock
 70
     0
  3

 72
    65
 73
     0
 40
0.0
  0
LTYPE
  5
1F
330
1D
100
AcDbSymbolTableRecord
100
AcDbLinetypeTableRecord
  2
ByLayer
 70
     0
  3

 72
    65
 73
     0
 40
0.0
  0
LTYPE
  5
E
330
1D
100
AcDbSymbolTableRecord
100
AcDbLinetypeTableRecord
  2
Continuous
 70
     0
  3
Solid line
 72
    65
 73
     0
 40
0.0
  0
ENDTAB
  0
TABLE
  2
LAYER
  5
17
102
{ACAD_XDICTIONARY
360
18
102
}
330
0
100
AcDbSymbolTable
 70
     3
  0
LAYER
  5
6
102
{ACAD_XDICTIONARY
360
7
102
}
330
17
100
AcDbSymbolTableRecord
100
AcDbLayerTableRecord
  2
0
 70
     0
 62
     7
  6
Continuous
370
    -3
390
9
347
C
348
0
  0
LAYER
  5
60
102
{ACAD_XDICTIONARY
360
61
102
}
330
17
100
AcDbSymbolTableRecord
100
AcDbLayerTableRecord
  2
TEMPLATE
 70
     0
 62
     7
  6
Continuous
370
    -3
390
9
347
C
348
0
  0
LAYER
  5
48
330
17
100
AcDbSymbolTableRecord
100
AcDbLayerTableRecord
  2
LF TOP
 70
     0
 62
     7
  6
Continuous
370
    -3
390
9
347
C
348
0
  0
ENDTAB
  0
TABLE
  2
STYLE
  5
1A
330
0
100
AcDbSymbolTable
 70
     3
  0
STYLE
  5
1B
330
1A
100
AcDbSymbolTableRecord
100
AcDbTextStyleTableRecord
  2
Standard
 70
     0
 40
0.0
 41
1.0
 50
0.0
 71
     0
 42
0.2
  3
txt
  4

  0
STYLE
  5
2C
330
1A
100
AcDbSymbolTableRecord
100
AcDbTextStyleTableRecord
  2
SIMPLEX
 70
     0
 40
0.0
 41
1.0
 50
0.0
 71
     0
 42
0.1025444954350405
  3
SIMPLEX
  4

  0
STYLE
  5
77
330
1A
100
AcDbSymbolTableRecord
100
AcDbTextStyleTableRecord
  2
ROMANS
 70
     0
 40
1.0
 41
0.8
 50
0.0
 71
     0
 42
1.0
  3
SIMPLEX.shx
  4

  0
ENDTAB
  0
TABLE
  2
VIEW
  5
20
330
0
100
AcDbSymbolTable
 70
     0
  0
ENDTAB
  0
TABLE
  2
UCS
  5
21
330
0
100
AcDbSymbolTable
 70
     0
  0
ENDTAB
  0
TABLE
  2
APPID
  5
29
330
0
100
AcDbSymbolTable
 70
     3
  0
APPID
  5
26
330
29
100
AcDbSymbolTableRecord
100
AcDbRegAppTableRecord
  2
ACAD
 70
     0
  0
APPID
  5
12
330
29
100
AcDbSymbolTableRecord
100
AcDbRegAppTableRecord
  2
ACAD_PSEXT
 70
     0
  0
APPID
  5
27
330
29
100
AcDbSymbolTableRecord
100
AcDbRegAppTableRecord
  2
ACAD_NAV_VCDISPLAY
 70
     0
  0
ENDTAB
  0
TABLE
  2
DIMSTYLE
  5
2A
330
0
100
AcDbSymbolTable
 70
     3
100
AcDbDimStyleTable
 71
     3
340
2B
340
2D
340
2E
  0
DIMSTYLE
105
2E
330
2A
100
AcDbSymbolTableRecord
100
AcDbDimStyleTableRecord
  2
Standard
 70
     0
 40
1.5625
 41
0.16
 42
0.05
 43
0.05
 44
0.05
 47
0.05
 48
0.03
 78
     1
 79
     1
140
0.16
141
0.009
147
0.05
176
   256
177
   256
178
   256
271
     3
272
     3
289
     0
340
2C
371
    -1
372
    -1
  0
DIMSTYLE
105
2B
330
2A
100
AcDbSymbolTableRecord
100
AcDbDimStyleTableRecord
  2
2-0
 70
     0
 41
0.12
 42
0.025
 43
3.75
 44
0.05
 73
     0
 74
     0
 78
     1
140
0.08
141
0.05
143
0.03937007874016
147
0.025
171
     3
172
     1
271
     3
272
     3
274
     3
283
     0
284
     8
340
2C
  0
DIMSTYLE
105
2D
330
2A
100
AcDbSymbolTableRecord
100
AcDbDimStyleTableRecord
  2
ISO-25
 70
     0
 41
2.5
 42
0.625
 43
3.75
 44
1.25
 73
     0
 74
     0
 77
     1
 78
     8
140
2.5
141
2.5
143
0.03937007874016
147
0.625
171
     3
172
     1
271
     2
272
     2
274
     3
278
    44
283
     0
284
     8
340
1B
  0
ENDTAB
  0
TABLE
  2
BLOCK_RECORD
  5
1
330
0
100
AcDbSymbolTable
 70
     0
  0
BLOCK_RECORD
  5
2
102
{ACAD_XDICTIONARY
360
3
102
}
330
1
100
AcDbSymbolTableRecord
100
AcDbBlockTableRecord
  2
*Model_Space
340
10
 70
     0
280
     1
281
     0
  0
BLOCK_RECORD
  5
13
330
1
100
AcDbSymbolTableRecord
100
AcDbBlockTableRecord
  2
*Paper_Space
340
16
 70
     0
280
     1
281
     0
  0
ENDTAB
  0
ENDSEC
  0
SECTION
  2
BLOCKS
  0
BLOCK
  5
5
330
2
100
AcDbEntity
  8
0
100
AcDbBlockBegin
  2
*Model_Space
 70
     0
 10
0.0
 20
0.0
 30
0.0
  3
*Model_Space
  1

  0
ENDBLK
  5
F
330
2
100
AcDbEntity
  8
0
100
AcDbBlockEnd
  0
BLOCK
  5
14
330
13
100
AcDbEntity
 67
     1
  8
0
100
AcDbBlockBegin
  2
*Paper_Space
 70
     0
 10
0.0
 20
0.0
 30
0.0
  3
*Paper_Space
  1

  0
ENDBLK
  5
15
330
13
100
AcDbEntity
 67
     1
  8
0
100
AcDbBlockEnd
  0
ENDSEC
  0
SECTION
  2
ENTITIES
  0
LINE
  5
5F
330
2
100
AcDbEntity
  8
TEMPLATE
 62
     3
370
     9
100
AcDbLine
 10
1759.879916625948
 20
284.5954727112171
 30
0.0000000000000047
 11
1775.004653084401
 21
284.5954727112171
 31
0.0000000000000047
  0
LINE
  5
63
330
2
100
AcDbEntity
  8
TEMPLATE
 62
     3
370
     9
100
AcDbLine
 10
1759.879916625948
 20
291.7327105290488
 30
0.0000000000000047
 11
1775.004653084401
 21
291.7327105290488
 31
0.0000000000000047
  0
LINE
  5
64
330
2
100
AcDbEntity
  8
TEMPLATE
 62
     3
370
     9
100
AcDbLine
 10
1759.879916625948
 20
286.5780374972278
 30
0.0000000000000047
 11
1775.004653084401
 21
286.5780374972278
 31
0.0000000000000047
  0
LINE
  5
65
330
2
100
AcDbEntity
  8
TEMPLATE
 62
     3
370
     9
100
AcDbLine
 10
1759.879916625948
 20
297.680412773037
 30
0.0000000000000047
 11
1775.004653084401
 21
297.680412773037
 31
0.0000000000000047
  0
LINE
  5
66
330
2
100
AcDbEntity
  8
TEMPLATE
 62
     3
370
     9
100
AcDbLine
 10
1759.879916625948
 20
297.2838992423108
 30
0.0000000000000047
 11
1775.004653084401
 21
297.2838992423108
 31
0.0000000000000047
  0
LINE
  5
67
330
2
100
AcDbEntity
  8
TEMPLATE
 62
     3
370
     9
100
AcDbLine
 10
1759.879916625948
 20
296.0943586501321
 30
0.0000000000000047
 11
1775.004653084401
 21
296.0943586501321
 31
0.0000000000000047
  0
LINE
  5
68
330
2
100
AcDbEntity
  8
TEMPLATE
 62
     3
370
     9
100
AcDbLine
 10
1759.879916625948
 20
296.4908721808583
 30
0.0000000000000047
 11
1775.004653084401
 21
296.4908721808583
 31
0.0000000000000047
  0
LINE
  5
69
330
2
100
AcDbEntity
  8
TEMPLATE
 62
     3
370
     9
100
AcDbLine
 10
1759.879916625948
 20
296.8873857115846
 30
0.0000000000000047
 11
1775.004653084401
 21
296.8873857115846
 31
0.0000000000000047
  0
LINE
  5
6A
330
2
100
AcDbEntity
  8
TEMPLATE
 62
     3
370
     9
100
AcDbLine
 10
1759.879916625948
 20
294.9048180579534
 30
0.0000000000000047
 11
1775.004653084401
 21
294.9048180579534
 31
0.0000000000000047
  0
LINE
  5
6B
330
2
100
AcDbEntity
  8
TEMPLATE
 62
     3
370
     9
100
AcDbLine
 10
1759.879916625948
 20
294.5083045272268
 30
0.0000000000000047
 11
1775.004653084401
 21
294.5083045272268
 31
0.0000000000000047
  0
LINE
  5
6C
330
2
100
AcDbEntity
  8
TEMPLATE
 62
     3
370
     9
100
AcDbLine
 10
1759.879916625948
 20
294.111790996501
 30
0.0000000000000047
 11
1775.004653084401
 21
294.111790996501
 31
0.0000000000000047
  0
LINE
  5
6D
330
2
100
AcDbEntity
  8
TEMPLATE
 62
     3
370
     9
100
AcDbLine
 10
1759.879916625948
 20
293.715277465775
 30
0.0000000000000047
 11
1775.004653084401
 21
293.715277465775
 31
0.0000000000000047
  0
LINE
  5
6E
330
2
100
AcDbEntity
  8
TEMPLATE
 62
     3
370
     9
100
AcDbLine
 10
1759.879916625948
 20
293.3187639350485
 30
0.0000000000000047
 11
1775.004653084401
 21
293.3187639350485
 31
0.0000000000000047
  0
LINE
  5
6F
330
2
100
AcDbEntity
  8
TEMPLATE
 62
     3
370
     9
100
AcDbLine
 10
1759.879916625948
 20
292.9222504043223
 30
0.0000000000000047
 11
1775.004653084401
 21
292.9222504043223
 31
0.0000000000000047
  0
LINE
  5
70
330
2
100
AcDbEntity
  8
TEMPLATE
 62
     3
370
     9
100
AcDbLine
 10
1759.879916625948
 20
292.1292233428699
 30
0.0000000000000047
 11
1775.004653084401
 21
292.1292233428699
 31
0.0000000000000047
  0
LINE
  5
71
330
2
100
AcDbEntity
  8
TEMPLATE
 62
     3
370
     9
100
AcDbLine
 10
1759.879916625948
 20
295.3013315886797
 30
0.0000000000000047
 11
1775.004653084401
 21
295.3013315886797
 31
0.0000000000000047
  0
LINE
  5
72
330
2
100
AcDbEntity
  8
TEMPLATE
 62
     3
370
     9
100
AcDbLine
 10
1759.879916625948
 20
298.0769263037633
 30
0.0000000000000047
 11
1775.004653084401
 21
298.0769263037633
 31
0.0000000000000047
  0
LINE
  5
73
330
2
100
AcDbEntity
  8
TEMPLATE
 62
     7
370
     9
100
AcDbLine
 10
1759.879916625948
 20
298.547065538386
 30
0.0000000000000047
 11
1775.004653084401
 21
298.547065538386
 31
0.0000000000000047
  0
LINE
  5
74
330
2
100
AcDbEntity
  8
TEMPLATE
 62
     3
370
     9
100
AcDbLine
 10
1759.879916625948
 20
292.5257368735961
 30
0.0000000000000047
 11
1775.004653084401
 21
292.5257368735961
 31
0.0000000000000047
  0
LINE
  5
75
330
2
100
AcDbEntity
  8
TEMPLATE
 62
     3
370
     9
100
AcDbLine
 10
1759.879916625948
 20
287.37106312487
 30
0.0000000000000047
 11
1775.004653084401
 21
287.37106312487
 31
0.0000000000000047
  0
TEXT
  5
76
330
2
100
AcDbEntity
  8
TEMPLATE
 62
     3
370
     9
100
AcDbText
 10
1760.733285862057
 20
285.1012889204919
 30
0.0000000000000047
 40
0.1802334230573778
  1
INTERNAL LEAD TIP DIMENSIONS GIVEN ARE GIVEN VALUES
 41
0.9
  7
ROMANS
 72
     4
 11
1764.402323402867
 21
285.1914056320207
 31
0.0000000000000047
100
AcDbText
  0
LINE
  5
78
330
2
100
AcDbEntity
  8
TEMPLATE
 62
     3
370
     9
100
AcDbLine
 10
1759.879916625948
 20
290.1466578399536
 30
0.0000000000000047
 11
1775.004653084401
 21
290.1466578399536
 31
0.0000000000000047
  0
LINE
  5
79
330
2
100
AcDbEntity
  8
TEMPLATE
 62
     3
370
     9
100
AcDbLine
 10
1759.879916625948
 20
286.9745495941442
 30
0.0000000000000047
 11
1775.004653084401
 21
286.9745495941442
 31
0.0000000000000047
  0
LINE
  5
7A
330
2
100
AcDbEntity
  8
TEMPLATE
 62
     3
370
     9
100
AcDbLine
 10
1759.879916625948
 20
288.5606037170487
 30
0.0000000000000047
 11
1775.004653084401
 21
288.5606037170487
 31
0.0000000000000047
  0
LINE
  5
7B
330
2
100
AcDbEntity
  8
TEMPLATE
 62
     3
370
     9
100
AcDbLine
 10
1759.879916625948
 20
288.9571172477749
 30
0.0000000000000047
 11
1775.004653084401
 21
288.9571172477749
 31
0.0000000000000047
  0
LINE
  5
7C
330
2
100
AcDbEntity
  8
TEMPLATE
 62
     3
370
     9
100
AcDbLine
 10
1759.879916625948
 20
289.3536307785016
 30
0.0000000000000047
 11
1775.004653084401
 21
289.3536307785016
 31
0.0000000000000047
  0
LINE
  5
7D
330
2
100
AcDbEntity
  8
TEMPLATE
 62
     3
370
     9
100
AcDbLine
 10
1759.879916625948
 20
289.7501443092274
 30
0.0000000000000047
 11
1775.004653084401
 21
289.7501443092274
 31
0.0000000000000047
  0
TEXT
  5
7E
330
2
100
AcDbEntity
  8
TEMPLATE
 62
     3
370
     9
100
AcDbText
 10
1760.732011920319
 20
284.711272219179
 30
0.0000000000000047
 40
0.1802334230573778
  1
DIMENSION QUADRANT IS TYPICAL FOR QUADRANTS, EXCEPT AS SHOWN
 41
0.9
  7
ROMANS
 72
     4
 11
1765.235272733567
 21
284.7842238427975
 31
0.0000000000000047
100
AcDbText
  0
TEXT
  5
7F
330
2
100
AcDbEntity
  8
TEMPLATE
 62
     3
370
     9
100
AcDbText
 10
1760.749217432373
 20
285.4888981484181
 30
0.0000000000000047
 40
0.1802334230573778
  1
PART TO BE FREE OF RUST, KINKS, BENDS, WRINKLES, OR SCRATCHES DEEPER THAN
 41
0.9
  7
ROMANS
 72
     4
 11
1766.148495834535
 21
285.5618497720366
 31
0.0000000000000047
100
AcDbText
  0
LINE
  5
80
330
2
100
AcDbEntity
  8
TEMPLATE
 62
     3
370
     9
100
AcDbLine
 10
1759.879916625948
 20
288.1640923370383
 30
0.0000000000000047
 11
1775.004653084401
 21
288.1640923370383
 31
0.0000000000000047
  0
TEXT
  5
81
330
2
100
AcDbEntity
  8
TEMPLATE
 62
     3
370
     9
100
AcDbText
 10
1760.712591767044
 20
289.8612591498429
 30
0.0000000000000047
 40
0.1802334230573778
  1
MAXIMUM RADIUS ON ALL CORNERS UNLESS OTHERWISE SPECIFIED
 41
0.9
  7
ROMANS
 72
     4
 11
1764.875983839669
 21
289.9513758613716
 31
0.0000000000000047
100
AcDbText
  0
LINE
  5
82
330
2
100
AcDbEntity
  8
TEMPLATE
 62
     3
370
     9
100
AcDbLine
 10
1759.879916625948
 20
291.3361984321327
 30
0.0000000000000047
 11
1775.004653084401
 21
291.3361984321327
 31
0.0000000000000047
  0
LINE
  5
83
330
2
100
AcDbEntity
  8
TEMPLATE
 62
     3
370
     9
100
AcDbLine
 10
1759.879916625948
 20
295.6978451194059
 30
0.0000000000000047
 11
1775.004653084401
 21
295.6978451194059
 31
0.0000000000000047
  0
LINE
  5
84
330
2
100
AcDbEntity
  8
TEMPLATE
 62
     3
370
     9
100
AcDbLine
 10
1759.879916625948
 20
284.1989591804904
 30
0.0000000000000047
 11
1775.004653084401
 21
284.1989591804904
 31
0.0000000000000047
  0
LINE
  5
85
330
2
100
AcDbEntity
  8
TEMPLATE
 62
     3
370
     9
100
AcDbLine
 10
1759.879916625948
 20
287.7675766555963
 30
0.0000000000000047
 11
1775.004653084401
 21
287.7675766555963
 31
0.0000000000000047
  0
LINE
  5
86
330
2
100
AcDbEntity
  8
TEMPLATE
 62
     3
370
     9
100
AcDbLine
 10
1759.879916625948
 20
286.1815239665016
 30
0.0000000000000047
 11
1775.004653084401
 21
286.1815239665016
 31
0.0000000000000047
  0
LINE
  5
87
330
2
100
AcDbEntity
  8
TEMPLATE
 62
     3
370
     9
100
AcDbLine
 10
1759.879916625948
 20
285.3884969050491
 30
0.0000000000000047
 11
1775.004653084401
 21
285.3884969050491
 31
0.0000000000000047
  0
LINE
  5
88
330
2
100
AcDbEntity
  8
TEMPLATE
 62
     3
370
     9
100
AcDbLine
 10
1759.879916625948
 20
285.7850104357753
 30
0.0000000000000047
 11
1775.004653084401
 21
285.7850104357753
 31
0.0000000000000047
  0
TEXT
  5
89
330
2
100
AcDbEntity
  8
TEMPLATE
 62
     3
370
     9
100
AcDbText
 10
1760.715988310242
 20
291.8313485336259
 30
0.0000000000000047
 40
0.1802334230573778
  1
MISALIGNMENT
 41
0.9
  7
ROMANS
 72
     4
 11
1761.569522306578
 21
291.9214652451547
 31
0.0000000000000047
100
AcDbText
  0
TEXT
  5
8A
330
2
100
AcDbEntity
  8
TEMPLATE
 62
     3
370
     9
100
AcDbText
 10
1760.074375063879
 20
291.8415154364336
 30
0.0000000000000047
 40
0.1802334230573778
  1
16
 41
0.9
  7
ROMANS
 72
     4
 11
1760.186377262494
 21
291.9316321479623
 31
0.0000000000000047
100
AcDbText
  0
TEXT
  5
8B
330
2
100
AcDbEntity
  8
TEMPLATE
 62
     3
370
     9
100
AcDbText
 10
1760.051202195201
 20
284.7130756791748
 30
0.0000000000000047
 40
0.1802334230573778
  1
34
 41
0.9
  7
ROMANS
 72
     4
 11
1760.186377262494
 21
284.8031923907035
 31
0.0000000000000047
100
AcDbText
  0
TEXT
  5
8C
330
2
100
AcDbEntity
  8
TEMPLATE
 62
     3
370
     9
100
AcDbText
 10
1760.055064339981
 20
285.4973039631491
 30
0.0000000000000047
 40
0.1802334230573778
  1
32
 41
0.9
  7
ROMANS
 72
     4
 11
1760.186377262494
 21
285.5874206746778
 31
0.0000000000000047
100
AcDbText
  0
TEXT
  5
8D
330
2
100
AcDbEntity
  8
TEMPLATE
 62
     3
370
     9
100
AcDbText
 10
1760.055064339981
 20
285.1007904324228
 30
0.0000000000000047
 40
0.1802334230573778
  1
33
 41
0.9
  7
ROMANS
 72
     4
 11
1760.186377262494
 21
285.1909071439516
 31
0.0000000000000047
100
AcDbText
  0
TEXT
  5
8E
330
2
100
AcDbEntity
  8
TEMPLATE
 62
     3
370
     9
100
AcDbText
 10
1760.089823642999
 20
285.8757017268647
 30
0.0000000000000047
 40
0.1802334230573778
  1
31
 41
0.9
  7
ROMANS
 72
     4
 11
1760.186377262494
 21
285.9658184383934
 31
0.0000000000000047
100
AcDbText
  0
TEXT
  5
8F
330
2
100
AcDbEntity
  8
TEMPLATE
 62
     3
370
     9
100
AcDbText
 10
1760.055064339981
 20
286.2924859749867
 30
0.0000000000000047
 40
0.1802334230573778
  1
30
 41
0.9
  7
ROMANS
 72
     4
 11
1760.186377262494
 21
286.3826026865154
 31
0.0000000000000047
100
AcDbText
  0
TEXT
  5
90
330
2
100
AcDbEntity
  8
TEMPLATE
 62
     3
370
     9
100
AcDbText
 10
1760.033757715614
 20
286.6911544560983
 30
0.0000000000000047
 40
0.1802334230573778
  1
29
 41
0.9
  7
ROMANS
 72
     4
 11
1760.161208493348
 21
286.781271167627
 31
0.0000000000000047
100
AcDbText
  0
TEXT
  5
91
330
2
100
AcDbEntity
  8
TEMPLATE
 62
     3
370
     9
100
AcDbText
 10
1760.055064339981
 20
287.0880533611637
 30
0.0000000000000047
 40
0.1802334230573778
  1
28
 41
0.9
  7
ROMANS
 72
     4
 11
1760.186377262494
 21
287.1781700726924
 31
0.0000000000000047
100
AcDbText
  0
TEXT
  5
92
330
2
100
AcDbEntity
  8
TEMPLATE
 62
     3
370
     9
100
AcDbText
 10
1760.0705129191
 20
291.4450019057076
 30
0.0000000000000047
 40
0.1802334230573778
  1
17
 41
0.9
  7
ROMANS
 72
     4
 11
1760.186377262494
 21
291.5351186172363
 31
0.0000000000000047
100
AcDbText
  0
TEXT
  5
93
330
2
100
AcDbEntity
  8
TEMPLATE
 62
     3
370
     9
100
AcDbText
 10
1760.07190370037
 20
287.4824119415046
 30
0.0000000000000047
 40
0.1802334230573778
  1
27
 41
0.9
  7
ROMANS
 72
     4
 11
1760.203216622883
 21
287.5725286530332
 31
0.0000000000000047
100
AcDbText
  0
TEXT
  5
94
330
2
100
AcDbEntity
  8
TEMPLATE
 62
     3
370
     9
100
AcDbText
 10
1760.07576584515
 20
287.8832353730015
 30
0.0000000000000047
 40
0.1802334230573778
  1
26
 41
0.9
  7
ROMANS
 72
     4
 11
1760.203216622883
 21
287.9733520845302
 31
0.0000000000000047
100
AcDbText
  0
TEXT
  5
95
330
2
100
AcDbEntity
  8
TEMPLATE
 62
     3
370
     9
100
AcDbText
 10
1760.058691576755
 20
288.2764915730052
 30
0.0000000000000047
 40
0.1802334230573778
  1
25
 41
0.9
  7
ROMANS
 72
     4
 11
1760.190004499268
 21
288.3666082845339
 31
0.0000000000000047
100
AcDbText
  0
TEXT
  5
96
330
2
100
AcDbEntity
  8
TEMPLATE
 62
     3
370
     9
100
AcDbText
 10
1760.054829431975
 20
288.6701698496661
 30
0.0000000000000047
 40
0.1802334230573778
  1
24
 41
0.9
  7
ROMANS
 72
     4
 11
1760.190004499268
 21
288.7602865611948
 31
0.0000000000000047
100
AcDbText
  0
TEXT
  5
97
330
2
100
AcDbEntity
  8
TEMPLATE
 62
     3
370
     9
100
AcDbText
 10
1760.058691576755
 20
289.0874752435382
 30
0.0000000000000047
 40
0.1802334230573778
  1
23
 41
0.9
  7
ROMANS
 72
     4
 11
1760.190004499268
 21
289.1775919550669
 31
0.0000000000000047
100
AcDbText
  0
TEXT
  5
98
330
2
100
AcDbEntity
  8
TEMPLATE
 62
     3
370
     9
100
AcDbText
 10
1760.093450879773
 20
289.8610677722122
 30
0.0000000000000047
 40
0.1802334230573778
  1
21
 41
0.9
  7
ROMANS
 72
     4
 11
1760.190004499268
 21
289.9511844837409
 31
0.0000000000000047
100
AcDbText
  0
TEXT
  5
99
330
2
100
AcDbEntity
  8
TEMPLATE
 62
     3
370
     9
100
AcDbText
 10
1760.058691576755
 20
289.4660492055457
 30
0.0000000000000047
 40
0.1802334230573778
  1
22
 41
0.9
  7
ROMANS
 72
     4
 11
1760.190004499268
 21
289.5561659170744
 31
0.0000000000000047
100
AcDbText
  0
TEXT
  5
9A
330
2
100
AcDbEntity
  8
TEMPLATE
 62
     3
370
     9
100
AcDbText
 10
1760.744750300877
 20
284.3070443906647
 30
0.0000000000000047
 40
0.1802334230573778
  1
STRIP NUMBER TO BE ADDED ON STRIP
 41
0.9
  7
ROMANS
 72
     4
 11
1763.21652295995
 21
284.3971611021934
 31
0.0000000000000047
100
AcDbText
  0
TEXT
  5
9B
330
2
100
AcDbEntity
  8
TEMPLATE
 62
     3
370
     9
100
AcDbText
 10
1760.727069742672
 20
285.8961238425806
 30
0.0000000000000047
 40
0.1802334230573778
  1
FRAME TWIST
 41
0.9
  7
ROMANS
 72
     4
 11
1761.526533712091
 21
285.9862405541094
 31
0.0000000000000047
100
AcDbText
  0
TEXT
  5
9C
330
2
100
AcDbEntity
  8
TEMPLATE
 62
     3
370
     9
100
AcDbText
 10
1760.728750764335
 20
286.2926373733069
 30
0.0000000000000047
 40
0.1802334230573778
  1
LEAD TWIST
 41
0.9
  7
ROMANS
 72
     4
 11
1761.431661114259
 21
286.3827540848356
 31
0.0000000000000047
100
AcDbText
  0
TEXT
  5
9D
330
2
100
AcDbEntity
  8
TEMPLATE
 62
     3
370
     9
100
AcDbText
 10
1760.733977845699
 20
286.6891509040331
 30
0.0000000000000047
 40
0.1802334230573778
  1
CROSS BOW
 41
0.9
  7
ROMANS
 72
     4
 11
1761.452336774742
 21
286.7792676155618
 31
0.0000000000000047
100
AcDbText
  0
TEXT
  5
9E
330
2
100
AcDbEntity
  8
TEMPLATE
 62
     3
370
     9
100
AcDbText
 10
1760.720472415466
 20
288.6717185576642
 30
0.0000000000000047
 40
0.1802334230573778
  1
LEAD TIP PLANARITY FROM DAM BAR
 41
0.9
  7
ROMANS
 72
     4
 11
1763.041621428126
 21
288.761835269193
 31
0.0000000000000047
100
AcDbText
  0
TEXT
  5
9F
330
2
100
AcDbEntity
  8
TEMPLATE
 62
     3
370
     9
100
AcDbText
 10
1760.720412229834
 20
291.4354877324488
 30
0.0000000000000047
 40
0.1802334230573778
  1
COIL SET
 41
0.9
  7
ROMANS
 72
     4
 11
1761.261112499006
 21
291.5256044439775
 31
0.0000000000000047
100
AcDbText
  0
TEXT
  5
A0
330
2
100
AcDbEntity
  8
TEMPLATE
 62
     3
370
     9
100
AcDbText
 10
1760.725988109507
 20
287.0753719289535
 30
0.0000000000000047
 40
0.1802334230573778
  1
PAD PLANARITY
 41
0.9
  7
ROMANS
 72
     4
 11
1761.691524304457
 21
287.1654886404822
 31
0.0000000000000047
100
AcDbText
  0
TEXT
  5
A1
330
2
100
AcDbEntity
  8
TEMPLATE
 62
     3
370
     9
100
AcDbText
 10
1760.731381708708
 20
287.4821779654851
 30
0.0000000000000047
 40
0.1802334230573778
  1
PAD TILT
 41
0.9
  7
ROMANS
 72
     4
 11
1761.272081977879
 21
287.5722946770138
 31
0.0000000000000047
100
AcDbText
  0
TEXT
  5
A2
330
2
100
AcDbEntity
  8
TEMPLATE
 62
     3
370
     9
100
AcDbText
 10
1760.73370260441
 20
287.8786914962118
 30
0.0000000000000047
 40
0.1802334230573778
  1
CAMBER
 41
0.9
  7
ROMANS
 72
     4
 11
1761.201022122766
 21
287.9688082077405
 31
0.0000000000000047
100
AcDbText
  0
TEXT
  5
A3
330
2
100
AcDbEntity
  8
TEMPLATE
 62
     3
370
     9
100
AcDbText
 10
1760.723122288592
 20
288.2871293503388
 30
0.0000000000000047
 40
0.1802334230573778
  1
PAD FLATNESS
 41
0.9
  7
ROMANS
 72
     4
 11
1761.623002022286
 21
288.3772460618675
 31
0.0000000000000047
100
AcDbText
  0
TEXT
  5
A4
330
2
100
AcDbEntity
  8
TEMPLATE
 62
     3
370
     9
100
AcDbText
 10
1760.722738017187
 20
289.0682320883905
 30
0.0000000000000047
 40
0.1802334230573778
  1
HORIZONTAL BURR
 41
0.9
  7
ROMANS
 72
     4
 11
1761.846622148109
 21
289.1583487999191
 31
0.0000000000000047
100
AcDbText
  0
TEXT
  5
A5
330
2
100
AcDbEntity
  8
TEMPLATE
 62
     3
370
     9
100
AcDbText
 10
1760.717550117316
 20
289.4731052144587
 30
0.0000000000000047
 40
0.1802334230573778
  1
VERTICAL BURR
 41
0.9
  7
ROMANS
 72
     4
 11
1761.656051298808
 21
289.5632219259874
 31
0.0000000000000047
100
AcDbText
  0
TEXT
  5
A6
330
2
100
AcDbEntity
  8
TEMPLATE
 62
     3
370
     9
100
AcDbText
 10
1760.135934472351
 20
297.399304729855
 30
0.0000000000000047
 40
0.1802334230573778
  1
2
 41
0.9
  7
ROMANS
 72
     4
 11
1760.190004499268
 21
297.4894214413837
 31
0.0000000000000047
100
AcDbText
  0
TEXT
  5
A7
330
2
100
AcDbEntity
  8
TEMPLATE
 62
     3
370
     9
100
AcDbText
 10
1760.132072327571
 20
296.6032877402827
 30
0.0000000000000047
 40
0.1802334230573778
  1
4
 41
0.9
  7
ROMANS
 72
     4
 11
1760.190004499268
 21
296.6934044518114
 31
0.0000000000000047
100
AcDbText
  0
TEXT
  5
A8
330
2
100
AcDbEntity
  8
TEMPLATE
 62
     3
370
     9
100
AcDbText
 10
1760.135934472351
 20
296.9983063069492
 30
0.0000000000000047
 40
0.1802334230573778
  1
3
 41
0.9
  7
ROMANS
 72
     4
 11
1760.190004499268
 21
297.0884230184779
 31
0.0000000000000047
100
AcDbText
  0
TEXT
  5
A9
330
2
100
AcDbEntity
  8
TEMPLATE
 62
     3
370
     9
100
AcDbText
 10
1760.135934472351
 20
296.2247137782754
 30
0.0000000000000047
 40
0.1802334230573778
  1
5
 41
0.9
  7
ROMANS
 72
     4
 11
1760.190004499268
 21
296.3148304898041
 31
0.0000000000000047
100
AcDbText
  0
TEXT
  5
AA
330
2
100
AcDbEntity
  8
TEMPLATE
 62
     3
370
     9
100
AcDbText
 10
1760.139796617131
 20
295.8074083844028
 30
0.0000000000000047
 40
0.1802334230573778
  1
6
 41
0.9
  7
ROMANS
 72
     4
 11
1760.190004499268
 21
295.8975250959316
 31
0.0000000000000047
100
AcDbText
  0
TEXT
  5
AB
330
2
100
AcDbEntity
  8
TEMPLATE
 62
     3
370
     9
100
AcDbText
 10
1760.135934472351
 20
295.4137301077421
 30
0.0000000000000047
 40
0.1802334230573778
  1
7
 41
0.9
  7
ROMANS
 72
     4
 11
1760.190004499268
 21
295.5038468192709
 31
0.0000000000000047
100
AcDbText
  0
TEXT
  5
AC
330
2
100
AcDbEntity
  8
TEMPLATE
 62
     3
370
     9
100
AcDbText
 10
1760.153008740745
 20
294.623960377012
 30
0.0000000000000047
 40
0.1802334230573778
  1
9
 41
0.9
  7
ROMANS
 72
     4
 11
1760.203216622883
 21
294.7140770885408
 31
0.0000000000000047
100
AcDbText
  0
TEXT
  5
AD
330
2
100
AcDbEntity
  8
TEMPLATE
 62
     3
370
     9
100
AcDbText
 10
1760.087352279489
 20
294.2231369455155
 30
0.0000000000000047
 40
0.1802334230573778
  1
10
 41
0.9
  7
ROMANS
 72
     4
 11
1760.203216622883
 21
294.3132536570443
 31
0.0000000000000047
100
AcDbText
  0
TEXT
  5
AE
330
2
100
AcDbEntity
  8
TEMPLATE
 62
     3
370
     9
100
AcDbText
 10
1760.105272222118
 20
293.8287783651747
 30
0.0000000000000047
 40
0.1802334230573778
  1
11
 41
0.9
  7
ROMANS
 72
     4
 11
1760.186377262494
 21
293.9188950767034
 31
0.0000000000000047
100
AcDbText
  0
TEXT
  5
AF
330
2
100
AcDbEntity
  8
TEMPLATE
 62
     3
370
     9
100
AcDbText
 10
1760.045344149954
 20
293.4318794601093
 30
0.0000000000000047
 40
0.1802334230573778
  1
12
 41
0.9
  7
ROMANS
 72
     4
 11
1760.161208493348
 21
293.521996171638
 31
0.0000000000000047
100
AcDbText
  0
TEXT
  5
B0
330
2
100
AcDbEntity
  8
TEMPLATE
 62
     3
370
     9
100
AcDbText
 10
1760.0705129191
 20
293.0332109789977
 30
0.0000000000000047
 40
0.1802334230573778
  1
13
 41
0.9
  7
ROMANS
 72
     4
 11
1760.186377262494
 21
293.1233276905264
 31
0.0000000000000047
100
AcDbText
  0
TEXT
  5
B1
330
2
100
AcDbEntity
  8
TEMPLATE
 62
     3
370
     9
100
AcDbText
 10
1760.06665077432
 20
292.6366974482716
 30
0.0000000000000047
 40
0.1802334230573778
  1
14
 41
0.9
  7
ROMANS
 72
     4
 11
1760.186377262494
 21
292.7268141598004
 31
0.0000000000000047
100
AcDbText
  0
TEXT
  5
B2
330
2
100
AcDbEntity
  8
TEMPLATE
 62
     3
370
     9
100
AcDbText
 10
1760.0705129191
 20
292.2359246956619
 30
0.0000000000000047
 40
0.1802334230573778
  1
15
 41
0.9
  7
ROMANS
 72
     4
 11
1760.186377262494
 21
292.3260414071906
 31
0.0000000000000047
100
AcDbText
  0
TEXT
  5
B3
330
2
100
AcDbEntity
  8
TEMPLATE
 62
     3
370
     9
100
AcDbText
 10
1760.135934472351
 20
295.0172165770159
 30
0.0000000000000047
 40
0.1802334230573778
  1
8
 41
0.9
  7
ROMANS
 72
     4
 11
1760.190004499268
 21
295.1073332885446
 31
0.0000000000000047
100
AcDbText
  0
TEXT
  5
B4
330
2
100
AcDbEntity
  8
TEMPLATE
 62
     3
370
     9
100
AcDbText
 10
1760.17069377537
 20
297.795818260581
 30
0.0000000000000047
 40
0.1802334230573778
  1
1
 41
0.9
  7
ROMANS
 72
     4
 11
1760.190004499268
 21
297.8859349721097
 31
0.0000000000000047
100
AcDbText
  0
TEXT
  5
B5
330
2
100
AcDbEntity
  8
TEMPLATE
 62
     3
370
     9
100
AcDbText
 10
1760.712370992645
 20
297.4033736782678
 30
0.0000000000000047
 40
0.1802334230573778
  1
PILOT HOLE DIAMETER
 41
0.9
  7
ROMANS
 72
     4
 11
1762.060259520795
 21
297.4934903897965
 31
0.0000000000000047
100
AcDbText
  0
TEXT
  5
B6
330
2
100
AcDbEntity
  8
TEMPLATE
 62
     3
370
     9
100
AcDbText
 10
1760.715114565723
 20
296.9985005521996
 30
0.0000000000000047
 40
0.1802334230573778
  1
EXTERNAL LEAD WIDTH
 41
0.9
  7
ROMANS
 72
     4
 11
1762.105486686451
 21
297.0886172637283
 31
0.0000000000000047
100
AcDbText
  0
TEXT
  5
B7
330
2
100
AcDbEntity
  8
TEMPLATE
 62
     3
370
     9
100
AcDbText
 10
1760.719840297841
 20
296.6019870214734
 30
0.0000000000000047
 40
0.1802334230573778
  1
M TO M CLEARANCE AFTER ETCH
 41
0.9
  7
ROMANS
 72
     4
 11
1762.793812044594
 21
296.6921037330021
 31
0.0000000000000047
100
AcDbText
  0
TEXT
  5
B8
330
2
100
AcDbEntity
  8
TEMPLATE
 62
     3
370
     9
100
AcDbText
 10
1760.722544775335
 20
296.2054734907472
 30
0.0000000000000047
 40
0.1802334230573778
  1
MIN. LEAD SPACE AFTER ETCH
 41
0.9
  7
ROMANS
 72
     4
 11
1762.622720006997
 21
296.2955902022759
 31
0.0000000000000047
100
AcDbText
  0
TEXT
  5
B9
330
2
100
AcDbEntity
  8
TEMPLATE
 62
     3
370
     9
100
AcDbText
 10
1760.720223879633
 20
295.808959960021
 30
0.0000000000000047
 40
0.1802334230573778
  1
MIN. LEAD SPACE AFTER PLATE
 41
0.9
  7
ROMANS
 72
     4
 11
1762.693779862112
 21
295.8990766715497
 31
0.0000000000000047
100
AcDbText
  0
TEXT
  5
BA
330
2
100
AcDbEntity
  8
TEMPLATE
 62
     3
370
     9
100
AcDbText
 10
1760.683108769979
 20
295.4124464292947
 30
0.0000000000000047
 40
0.1802334230573778
  1
CONNECTING BAR WIDTH
 41
0.9
  7
ROMANS
 72
     4
 11
1762.162310220643
 21
295.5025631408235
 31
0.0000000000000047
100
AcDbText
  0
TEXT
  5
BB
330
2
100
AcDbEntity
  8
TEMPLATE
 62
     3
370
     9
100
AcDbText
 10
1762.826215129891
 20
294.6173836938288
 30
0.0000000000000047
 40
0.1802334230573778
  1
(TOP)
 41
0.9
  7
ROMANS
 72
     4
 11
1763.142911001834
 21
294.6946265894248
 31
0.0000000000000047
100
AcDbText
  0
TEXT
  5
BC
330
2
100
AcDbEntity
  8
TEMPLATE
 62
     3
370
     9
100
AcDbText
 10
1762.820422270165
 20
294.2224153657058
 30
0.0000000000000047
 40
0.1802334230573778
  1
(BOTTOM)
 41
0.9
  7
ROMANS
 72
     4
 11
1763.384295408016
 21
294.2996582613018
 31
0.0000000000000047
100
AcDbText
  0
TEXT
  5
BD
330
2
100
AcDbEntity
  8
TEMPLATE
 62
     3
370
     9
100
AcDbText
 10
1760.718126155475
 20
294.6220006779691
 30
0.0000000000000047
 40
0.1802334230573778
  1
PAD SIZE (X,Y)
 41
0.9
  7
ROMANS
 72
     4
 11
1761.645040902627
 21
294.6992435735651
 31
0.0000000000000047
100
AcDbText
  0
TEXT
  5
BE
330
2
100
AcDbEntity
  8
TEMPLATE
 62
     3
370
     9
100
AcDbText
 10
1760.713735995634
 20
294.2357796530492
 30
0.0000000000000047
 40
0.1802334230573778
  1
PAD SIZE (X,Y)
 41
0.9
  7
ROMANS
 72
     4
 11
1761.640650742786
 21
294.3130225486452
 31
0.0000000000000047
100
AcDbText
  0
TEXT
  5
BF
330
2
100
AcDbEntity
  8
TEMPLATE
 62
     3
370
     9
100
AcDbText
 10
1760.715157483225
 20
293.82639230639
 30
0.0000000000000047
 40
0.1802334230573778
  1
STRIP LENGTH
 41
0.9
  7
ROMANS
 72
     4
 11
1761.557105045222
 21
293.9165090179188
 31
0.0000000000000047
100
AcDbText
  0
TEXT
  5
C0
330
2
100
AcDbEntity
  8
TEMPLATE
 62
     3
370
     9
100
AcDbText
 10
1760.715310841614
 20
293.4298787756638
 30
0.0000000000000047
 40
0.1802334230573778
  1
STRIP WIDTH
 41
0.9
  7
ROMANS
 72
     4
 11
1761.456842639336
 21
293.5199954871925
 31
0.0000000000000047
100
AcDbText
  0
TEXT
  5
C1
330
2
100
AcDbEntity
  8
TEMPLATE
 62
     3
370
     9
100
AcDbText
 10
1760.722579541905
 20
293.0333652449379
 30
0.0000000000000047
 40
0.1802334230573778
  1
UNIT PITCH
 41
0.9
  7
ROMANS
 72
     4
 11
1761.383006299251
 21
293.1234819564665
 31
0.0000000000000047
100
AcDbText
  0
TEXT
  5
C2
330
2
100
AcDbEntity
  8
TEMPLATE
 62
     3
370
     9
100
AcDbText
 10
1760.720311408451
 20
292.6353809724951
 30
0.0000000000000047
 40
0.1802334230573778
  1
CUMULATIVE PITCH
 41
0.9
  7
ROMANS
 72
     4
 11
1761.855781973713
 21
292.7254976840238
 31
0.0000000000000047
100
AcDbText
  0
TEXT
  5
C3
330
2
100
AcDbEntity
  8
TEMPLATE
 62
     3
370
     9
100
AcDbText
 10
1760.718014872729
 20
292.2514041387813
 30
0.0000000000000047
 40
0.1802334230573778
  1
LOCK/ANCHOR HOLE
 41
0.9
  7
ROMANS
 72
     4
 11
1761.977074070944
 21
292.3286470343774
 31
0.0000000000000047
100
AcDbText
  0
TEXT
  5
C4
330
2
100
AcDbEntity
  8
TEMPLATE
 62
     3
370
     9
100
AcDbText
 10
1760.700275874649
 20
295.0159328985685
 30
0.0000000000000047
 40
0.1802334230573778
  1
HALF ETCHED DEPTH
 41
0.9
  7
ROMANS
 72
     4
 11
1761.974783651984
 21
295.1060496100972
 31
0.0000000000000047
100
AcDbText
  0
TEXT
  5
C5
330
2
100
AcDbEntity
  8
TEMPLATE
 62
     3
370
     9
100
AcDbText
 10
1763.814627880524
 20
297.0318755113363
 30
0.0000000000000047
 40
0.1802334230573778
  1
(BOTTOM)
 41
0.9
  7
ROMANS
 72
     4
 11
1764.378501018375
 21
297.1091184069323
 31
0.0000000000000047
100
AcDbText
  0
TEXT
  5
C6
330
2
100
AcDbEntity
  8
TEMPLATE
 62
     3
370
     9
100
AcDbText
 10
1760.713735995634
 20
297.7915276136521
 30
0.0000000000000047
 40
0.1802334230573778
  1
MATERIAL THICKNESS - 
 41
0.9
  7
ROMANS
 72
     4
 11
1762.277904631454
 21
297.8816443251808
 31
0.0000000000000047
100
AcDbText
  0
TEXT
  5
C7
330
2
100
AcDbEntity
  8
TEMPLATE
 62
     3
370
     9
100
AcDbText
 10
1763.899991187241
 20
297.7787381426531
 30
0.0000000000000047
 40
0.1802334230573778
  1
A194FH
 41
0.9
  7
ROMANS
 72
     4
 11
1764.324827113019
 21
297.8688548541818
 31
0.0000000000000047
100
AcDbText
  0
TEXT
  5
C8
330
2
100
AcDbEntity
  8
TEMPLATE
 62
     1
370
     9
100
AcDbText
 10
1773.746795319932
 20
291.8433195026262
 30
0.0000000000000047
 40
0.1802334230573778
  1
0.015
 41
0.9
  7
ROMANS
 72
     4
 11
1774.055766902316
 21
291.9334362141549
 31
0.0000000000000047
100
AcDbText
  0
LINE
  5
C9
330
2
100
AcDbEntity
  8
TEMPLATE
 62
     7
370
     9
100
AcDbLine
 10
1773.096686515896
 20
290.9396856183112
 30
0.0000000000000047
 11
1773.096686515896
 21
291.3361984321327
 31
0.0000000000000047
  0
LINE
  5
CA
330
2
100
AcDbEntity
  8
TEMPLATE
 62
     7
370
     9
100
AcDbLine
 10
1773.096686515897
 20
291.3361984321327
 30
0.0000000000000047
 11
1773.096686515897
 21
298.547065538386
 31
0.0000000000000047
  0
LINE
  5
CB
330
2
100
AcDbEntity
  8
TEMPLATE
 62
     7
370
     9
100
AcDbLine
 10
1771.188719947392
 20
290.9396856183112
 30
0.0000000000000047
 11
1771.188719947392
 21
291.3361984321327
 31
0.0000000000000047
  0
LINE
  5
CC
330
2
100
AcDbEntity
  8
TEMPLATE
 62
     7
370
     9
100
AcDbLine
 10
1771.188719947392
 20
291.3361984321327
 30
0.0000000000000047
 11
1771.188719947392
 21
298.547065538386
 31
0.0000000000000047
  0
LINE
  5
CD
330
2
100
AcDbEntity
  8
TEMPLATE
 62
     7
370
     9
100
AcDbLine
 10
1769.280753378889
 20
291.3361984321327
 30
0.0000000000000047
 11
1769.280753378889
 21
298.547065538386
 31
0.0000000000000047
  0
TEXT
  5
CE
330
2
100
AcDbEntity
  8
TEMPLATE
 62
     3
370
     9
100
AcDbText
 10
1772.074643890224
 20
291.4512328493664
 30
0.0000000000000047
 40
0.1802334230573778
  1
-
 41
0.9
  7
ROMANS
 72
     4
 11
1772.14416249626
 21
291.5284757449624
 31
0.0000000000000047
100
AcDbText
  0
TEXT
  5
CF
330
2
100
AcDbEntity
  8
TEMPLATE
 62
     3
370
     9
100
AcDbText
 10
1771.7304468666
 20
287.0851592846264
 30
0.0000000000000047
 40
0.1802334230573778
  1
%%p0.102
 41
0.9
  7
ROMANS
 72
     4
 11
1772.139834213259
 21
287.175275996155
 31
0.0000000000000047
100
AcDbText
  0
TEXT
  5
D0
330
2
100
AcDbEntity
  8
TEMPLATE
 62
     3
370
     9
100
AcDbText
 10
1772.063095952604
 20
287.4860996928192
 30
0.0000000000000047
 40
0.1802334230573778
  1
-
 41
0.9
  7
ROMANS
 72
     4
 11
1772.13261455864
 21
287.5633425884153
 31
0.0000000000000047
100
AcDbText
  0
TEXT
  5
D1
330
2
100
AcDbEntity
  8
TEMPLATE
 62
     3
370
     9
100
AcDbText
 10
1772.063095952604
 20
287.8826132235454
 30
0.0000000000000047
 40
0.1802334230573778
  1
-
 41
0.9
  7
ROMANS
 72
     4
 11
1772.13261455864
 21
287.9598561191415
 31
0.0000000000000047
100
AcDbText
  0
TEXT
  5
D2
330
2
100
AcDbEntity
  8
TEMPLATE
 62
     3
370
     9
100
AcDbText
 10
1772.063095952604
 20
288.2791267542716
 30
0.0000000000000047
 40
0.1802334230573778
  1
-
 41
0.9
  7
ROMANS
 72
     4
 11
1772.13261455864
 21
288.3563696498677
 31
0.0000000000000047
100
AcDbText
  0
TEXT
  5
D3
330
2
100
AcDbEntity
  8
TEMPLATE
 62
     3
370
     9
100
AcDbText
 10
1771.889764651934
 20
285.4986084167783
 30
0.0000000000000047
 40
0.1802334230573778
  1
0.008
 41
0.9
  7
ROMANS
 72
     4
 11
1772.214184813437
 21
285.588725128307
 31
0.0000000000000047
100
AcDbText
  0
TEXT
  5
D4
330
2
100
AcDbEntity
  8
TEMPLATE
 62
     3
370
     9
100
AcDbText
 10
1772.063095952604
 20
286.6930726313668
 30
0.0000000000000047
 40
0.1802334230573778
  1
-
 41
0.9
  7
ROMANS
 72
     4
 11
1772.13261455864
 21
286.7703155269628
 31
0.0000000000000047
100
AcDbText
  0
TEXT
  5
D5
330
2
100
AcDbEntity
  8
TEMPLATE
 62
     3
370
     9
100
AcDbText
 10
1772.063095952604
 20
286.2965591006405
 30
0.0000000000000047
 40
0.1802334230573778
  1
-
 41
0.9
  7
ROMANS
 72
     4
 11
1772.13261455864
 21
286.3738019962366
 31
0.0000000000000047
100
AcDbText
  0
TEXT
  5
D6
330
2
100
AcDbEntity
  8
TEMPLATE
 62
     3
370
     9
100
AcDbText
 10
1772.063095952604
 20
285.9000455699143
 30
0.0000000000000047
 40
0.1802334230573778
  1
-
 41
0.9
  7
ROMANS
 72
     4
 11
1772.13261455864
 21
285.9772884655104
 31
0.0000000000000047
100
AcDbText
  0
TEXT
  5
D7
330
2
100
AcDbEntity
  8
TEMPLATE
 62
     3
370
     9
100
AcDbText
 10
1772.063095952604
 20
289.0721538157243
 30
0.0000000000000047
 40
0.1802334230573778
  1
-
 41
0.9
  7
ROMANS
 72
     4
 11
1772.13261455864
 21
289.1493967113204
 31
0.0000000000000047
100
AcDbText
  0
TEXT
  5
D8
330
2
100
AcDbEntity
  8
TEMPLATE
 62
     3
370
     9
100
AcDbText
 10
1772.063095952604
 20
289.8651808771766
 30
0.0000000000000047
 40
0.1802334230573778
  1
-
 41
0.9
  7
ROMANS
 72
     4
 11
1772.13261455864
 21
289.9424237727726
 31
0.0000000000000047
100
AcDbText
  0
TEXT
  5
D9
330
2
100
AcDbEntity
  8
TEMPLATE
 62
     3
370
     9
100
AcDbText
 10
1772.063095952604
 20
289.4686673464503
 30
0.0000000000000047
 40
0.1802334230573778
  1
-
 41
0.9
  7
ROMANS
 72
     4
 11
1772.13261455864
 21
289.5459102420464
 31
0.0000000000000047
100
AcDbText
  0
TEXT
  5
DA
330
2
100
AcDbEntity
  8
TEMPLATE
 62
     1
370
     9
100
AcDbText
 10
1771.7304468666
 20
288.6712134075312
 30
0.0000000000000047
 40
0.1802334230573778
  1
%%P0.015
 41
0.9
  7
ROMANS
 72
     4
 11
1772.139834213259
 21
288.7613301190599
 31
0.0000000000000047
100
AcDbText
  0
LINE
  5
DB
330
2
100
AcDbEntity
  8
TEMPLATE
 62
     7
370
     9
100
AcDbLine
 10
1771.188719947392
 20
285.7850104357753
 30
0.0000000000000047
 11
1771.188719947392
 21
290.1466585568587
 31
0.0000000000000047
  0
LINE
  5
DC
330
2
100
AcDbEntity
  8
TEMPLATE
 62
     7
370
     9
100
AcDbLine
 10
1769.280753378888
 20
285.7850104357753
 30
0.0000000000000047
 11
1769.280753378888
 21
291.3361984321327
 31
0.0000000000000047
  0
TEXT
  5
DD
330
2
100
AcDbEntity
  8
TEMPLATE
 62
     3
370
     9
100
AcDbText
 10
1770.186810113278
 20
285.9000455699143
 30
0.0000000000000047
 40
0.1802334230573778
  1
-
 41
0.9
  7
ROMANS
 72
     4
 11
1770.256328719314
 21
285.9772884655104
 31
0.0000000000000047
100
AcDbText
  0
TEXT
  5
DE
330
2
100
AcDbEntity
  8
TEMPLATE
 62
     3
370
     9
100
AcDbText
 10
1770.186810113278
 20
286.2965591006405
 30
0.0000000000000047
 40
0.1802334230573778
  1
-
 41
0.9
  7
ROMANS
 72
     4
 11
1770.256328719314
 21
286.3738019962366
 31
0.0000000000000047
100
AcDbText
  0
TEXT
  5
DF
330
2
100
AcDbEntity
  8
TEMPLATE
 62
     3
370
     9
100
AcDbText
 10
1770.186810113278
 20
286.6930726313668
 30
0.0000000000000047
 40
0.1802334230573778
  1
-
 41
0.9
  7
ROMANS
 72
     4
 11
1770.256328719314
 21
286.7703155269628
 31
0.0000000000000047
100
AcDbText
  0
TEXT
  5
E0
330
2
100
AcDbEntity
  8
TEMPLATE
 62
     3
370
     9
100
AcDbText
 10
1770.22645696301
 20
291.4512328493664
 30
0.0000000000000047
 40
0.1802334230573778
  1
-
 41
0.9
  7
ROMANS
 72
     4
 11
1770.295975569047
 21
291.5284757449624
 31
0.0000000000000047
100
AcDbText
  0
TEXT
  5
E1
330
2
100
AcDbEntity
  8
TEMPLATE
 62
     3
370
     9
100
AcDbText
 10
1770.186810113278
 20
288.6756402849979
 30
0.0000000000000047
 40
0.1802334230573778
  1
-
 41
0.9
  7
ROMANS
 72
     4
 11
1770.256328719314
 21
288.7528831805939
 31
0.0000000000000047
100
AcDbText
  0
TEXT
  5
E2
330
2
100
AcDbEntity
  8
TEMPLATE
 62
     3
370
     9
100
AcDbText
 10
1770.186810113278
 20
288.2791267542716
 30
0.0000000000000047
 40
0.1802334230573778
  1
-
 41
0.9
  7
ROMANS
 72
     4
 11
1770.256328719314
 21
288.3563696498677
 31
0.0000000000000047
100
AcDbText
  0
TEXT
  5
E3
330
2
100
AcDbEntity
  8
TEMPLATE
 62
     3
370
     9
100
AcDbText
 10
1770.186810113278
 20
287.8826132235454
 30
0.0000000000000047
 40
0.1802334230573778
  1
-
 41
0.9
  7
ROMANS
 72
     4
 11
1770.256328719314
 21
287.9598561191415
 31
0.0000000000000047
100
AcDbText
  0
TEXT
  5
E4
330
2
100
AcDbEntity
  8
TEMPLATE
 62
     3
370
     9
100
AcDbText
 10
1770.186810113278
 20
287.4860996928192
 30
0.0000000000000047
 40
0.1802334230573778
  1
-
 41
0.9
  7
ROMANS
 72
     4
 11
1770.256328719314
 21
287.5633425884153
 31
0.0000000000000047
100
AcDbText
  0
TEXT
  5
E5
330
2
100
AcDbEntity
  8
TEMPLATE
 62
     3
370
     9
100
AcDbText
 10
1770.186810113278
 20
289.4686673464503
 30
0.0000000000000047
 40
0.1802334230573778
  1
-
 41
0.9
  7
ROMANS
 72
     4
 11
1770.256328719314
 21
289.5459102420464
 31
0.0000000000000047
100
AcDbText
  0
TEXT
  5
E6
330
2
100
AcDbEntity
  8
TEMPLATE
 62
     3
370
     9
100
AcDbText
 10
1770.186810113278
 20
289.8651808771766
 30
0.0000000000000047
 40
0.1802334230573778
  1
-
 41
0.9
  7
ROMANS
 72
     4
 11
1770.256328719314
 21
289.9424237727726
 31
0.0000000000000047
100
AcDbText
  0
TEXT
  5
E7
330
2
100
AcDbEntity
  8
TEMPLATE
 62
     3
370
     9
100
AcDbText
 10
1770.186810113278
 20
289.0721538157243
 30
0.0000000000000047
 40
0.1802334230573778
  1
-
 41
0.9
  7
ROMANS
 72
     4
 11
1770.256328719314
 21
289.1493967113204
 31
0.0000000000000047
100
AcDbText
  0
TEXT
  5
E8
330
2
100
AcDbEntity
  8
TEMPLATE
 62
     3
370
     9
100
AcDbText
 10
1770.186810113278
 20
287.089586162093
 30
0.0000000000000047
 40
0.1802334230573778
  1
-
 41
0.9
  7
ROMANS
 72
     4
 11
1770.256328719314
 21
287.166829057689
 31
0.0000000000000047
100
AcDbText
  0
TEXT
  5
E9
330
2
100
AcDbEntity
  8
TEMPLATE
 62
     3
370
     9
100
AcDbText
 10
1773.77846659137
 20
286.6886457539001
 30
0.0000000000000047
 40
0.1802334230573778
  1
0.300
 41
0.9
  7
ROMANS
 72
     4
 11
1774.102886752874
 21
286.7787624654288
 31
0.0000000000000047
100
AcDbText
  0
TEXT
  5
EA
330
2
100
AcDbEntity
  8
TEMPLATE
 62
     1
370
     9
100
AcDbText
 10
1773.77846659137
 20
285.8956186924477
 30
0.0000000000000047
 40
0.1802334230573778
  1
0.500
 41
0.9
  7
ROMANS
 72
     4
 11
1774.102886752874
 21
285.9857354039764
 31
0.0000000000000047
100
AcDbText
  0
TEXT
  5
EB
330
2
100
AcDbEntity
  8
TEMPLATE
 62
     3
370
     9
100
AcDbText
 10
1773.739845143572
 20
286.2921322231737
 30
0.0000000000000047
 40
0.1802334230573778
  1
2.500%%d
 41
0.9
  7
ROMANS
 72
     4
 11
1774.102886752874
 21
286.3822489347024
 31
0.0000000000000047
100
AcDbText
  0
TEXT
  5
EC
330
2
100
AcDbEntity
  8
TEMPLATE
 62
     1
370
     9
100
AcDbText
 10
1773.731346740813
 20
291.4468059718999
 30
0.0000000000000047
 40
0.1802334230573778
  1
0.500
 41
0.9
  7
ROMANS
 72
     4
 11
1774.055766902316
 21
291.5369226834286
 31
0.0000000000000047
100
AcDbText
  0
TEXT
  5
ED
330
2
100
AcDbEntity
  8
TEMPLATE
 62
     3
370
     9
100
AcDbText
 10
1773.77846659137
 20
289.4642404689837
 30
0.0000000000000047
 40
0.1802334230573778
  1
0.025
 41
0.9
  7
ROMANS
 72
     4
 11
1774.102886752874
 21
289.5543571805124
 31
0.0000000000000047
100
AcDbText
  0
TEXT
  5
EE
330
2
100
AcDbEntity
  8
TEMPLATE
 62
     3
370
     9
100
AcDbText
 10
1773.793915170489
 20
289.8607539997099
 30
0.0000000000000047
 40
0.1802334230573778
  1
0.150
 41
0.9
  7
ROMANS
 72
     4
 11
1774.102886752874
 21
289.9508707112386
 31
0.0000000000000047
100
AcDbText
  0
TEXT
  5
EF
330
2
100
AcDbEntity
  8
TEMPLATE
 62
     3
370
     9
100
AcDbText
 10
1774.026148492219
 20
288.6756402849979
 30
0.0000000000000047
 40
0.1802334230573778
  1
-
 41
0.9
  7
ROMANS
 72
     4
 11
1774.095667098255
 21
288.7528831805939
 31
0.0000000000000047
100
AcDbText
  0
TEXT
  5
F0
330
2
100
AcDbEntity
  8
TEMPLATE
 62
     3
370
     9
100
AcDbText
 10
1774.026148492219
 20
287.089586162093
 30
0.0000000000000047
 40
0.1802334230573778
  1
-
 41
0.9
  7
ROMANS
 72
     4
 11
1774.095667098255
 21
287.166829057689
 31
0.0000000000000047
100
AcDbText
  0
TEXT
  5
F1
330
2
100
AcDbEntity
  8
TEMPLATE
 62
     3
370
     9
100
AcDbText
 10
1773.361354955152
 20
288.2875736927377
 30
0.0000000000000047
 40
0.1802334230573778
  1
0.010/2.540
 41
0.9
  7
ROMANS
 72
     4
 11
1774.102886752874
 21
288.3648165883337
 31
0.0000000000000047
100
AcDbText
  0
TEXT
  5
F2
330
2
100
AcDbEntity
  8
TEMPLATE
 62
     3
370
     9
100
AcDbText
 10
1773.77846659137
 20
287.8781863460788
 30
0.0000000000000047
 40
0.1802334230573778
  1
0.025
 41
0.9
  7
ROMANS
 72
     4
 11
1774.102886752874
 21
287.9683030576075
 31
0.0000000000000047
100
AcDbText
  0
TEXT
  5
F3
330
2
100
AcDbEntity
  8
TEMPLATE
 62
     3
370
     9
100
AcDbText
 10
1773.282544917676
 20
287.4945466312852
 30
0.0000000000000047
 40
0.1802334230573778
  1
0.076/2.540
 41
0.9
  7
ROMANS
 72
     4
 11
1774.039525294517
 21
287.5717895268813
 31
0.0000000000000047
100
AcDbText
  0
TEXT
  5
F4
330
2
100
AcDbEntity
  8
TEMPLATE
 62
     3
370
     9
100
AcDbText
 10
1771.823380172309
 20
297.7910224635191
 30
0.0000000000000047
 40
0.1802334230573778
  1
0.203
 41
0.9
  7
ROMANS
 72
     4
 11
1772.147800333812
 21
297.8811391750478
 31
0.0000000000000047
100
AcDbText
  0
TEXT
  5
F5
330
2
100
AcDbEntity
  8
TEMPLATE
 62
     3
370
     9
100
AcDbText
 10
1771.834966606648
 20
297.3945089327929
 30
0.0000000000000047
 40
0.1802334230573778
  1
1.524
 41
0.9
  7
ROMANS
 72
     4
 11
1772.147800333812
 21
297.4846256443216
 31
0.0000000000000047
100
AcDbText
  0
TEXT
  5
F6
330
2
100
AcDbEntity
  8
TEMPLATE
 62
     3
370
     9
100
AcDbText
 10
1771.390819956971
 20
297.0108692179993
 30
0.0000000000000047
 40
0.1802334230573778
  1
0.200/0.250
 41
0.9
  7
ROMANS
 72
     4
 11
1772.147800333812
 21
297.0881121135954
 31
0.0000000000000047
100
AcDbText
  0
TEXT
  5
F7
330
2
100
AcDbEntity
  8
TEMPLATE
 62
     7
370
     9
100
AcDbText
 10
1771.79960440048
 20
298.1884596109023
 30
0.0000000000000047
 40
0.2162801076688533
  1
NOM.
 41
0.9
  7
ROMANS
 72
     4
 11
1772.124024561983
 21
298.2965996647367
 31
0.0000000000000047
100
AcDbText
  0
TEXT
  5
F8
330
2
100
AcDbEntity
  8
TEMPLATE
 62
     3
370
     9
100
AcDbText
 10
1772.074643890224
 20
291.8477463800926
 30
0.0000000000000047
 40
0.1802334230573778
  1
-
 41
0.9
  7
ROMANS
 72
     4
 11
1772.14416249626
 21
291.9249892756886
 31
0.0000000000000047
100
AcDbText
  0
TEXT
  5
F9
330
2
100
AcDbEntity
  8
TEMPLATE
 62
     3
370
     9
100
AcDbText
 10
1772.074643890224
 20
292.2442599108188
 30
0.0000000000000047
 40
0.1802334230573778
  1
-
 41
0.9
  7
ROMANS
 72
     4
 11
1772.14416249626
 21
292.3215028064149
 31
0.0000000000000047
100
AcDbText
  0
TEXT
  5
FA
330
2
100
AcDbEntity
  8
TEMPLATE
 62
     3
370
     9
100
AcDbText
 10
1772.074643890224
 20
296.6059087488071
 30
0.0000000000000047
 40
0.1802334230573778
  1
-
 41
0.9
  7
ROMANS
 72
     4
 11
1772.14416249626
 21
296.6831516444031
 31
0.0000000000000047
100
AcDbText
  0
TEXT
  5
FB
330
2
100
AcDbEntity
  8
TEMPLATE
 62
     3
370
     9
100
AcDbText
 10
1772.074643890224
 20
296.2093952180808
 30
0.0000000000000047
 40
0.1802334230573778
  1
-
 41
0.9
  7
ROMANS
 72
     4
 11
1772.14416249626
 21
296.2866381136769
 31
0.0000000000000047
100
AcDbText
  0
TEXT
  5
FC
330
2
100
AcDbEntity
  8
TEMPLATE
 62
     3
370
     9
100
AcDbText
 10
1772.074643890224
 20
295.8128816873546
 30
0.0000000000000047
 40
0.1802334230573778
  1
-
 41
0.9
  7
ROMANS
 72
     4
 11
1772.14416249626
 21
295.8901245829506
 31
0.0000000000000047
100
AcDbText
  0
TEXT
  5
FD
330
2
100
AcDbEntity
  8
TEMPLATE
 62
     3
370
     9
100
AcDbText
 10
1771.835190913876
 20
295.4034943406962
 30
0.0000000000000047
 40
0.1802334230573778
  1
0.190
 41
0.9
  7
ROMANS
 72
     4
 11
1772.14416249626
 21
295.4936110522249
 31
0.0000000000000047
100
AcDbText
  0
TEXT
  5
FE
330
2
100
AcDbEntity
  8
TEMPLATE
 62
     3
370
     9
100
AcDbText
 10
1771.835190913876
 20
295.0069808099697
 30
0.0000000000000047
 40
0.1802334230573778
  1
0.100
 41
0.9
  7
ROMANS
 72
     4
 11
1772.14416249626
 21
295.0970975214984
 31
0.0000000000000047
100
AcDbText
  0
TEXT
  5
FF
330
2
100
AcDbEntity
  8
TEMPLATE
 62
     3
370
     9
100
AcDbText
 10
1769.915413603804
 20
295.8084548098879
 30
0.0000000000000047
 40
0.1802334230573778
  1
0.050
 41
0.9
  7
ROMANS
 72
     4
 11
1770.239833765307
 21
295.8985715214167
 31
0.0000000000000047
100
AcDbText
  0
TEXT
  5
100
330
2
100
AcDbEntity
  8
TEMPLATE
 62
     3
370
     9
100
AcDbText
 10
1769.915413603804
 20
296.2049683406142
 30
0.0000000000000047
 40
0.1802334230573778
  1
0.060
 41
0.9
  7
ROMANS
 72
     4
 11
1770.239833765307
 21
296.2950850521429
 31
0.0000000000000047
100
AcDbText
  0
TEXT
  5
101
330
2
100
AcDbEntity
  8
TEMPLATE
 62
     3
370
     9
100
AcDbText
 10
1769.915413603804
 20
296.6014818713404
 30
0.0000000000000047
 40
0.1802334230573778
  1
0.060
 41
0.9
  7
ROMANS
 72
     4
 11
1770.239833765307
 21
296.6915985828691
 31
0.0000000000000047
100
AcDbText
  0
TEXT
  5
102
330
2
100
AcDbEntity
  8
TEMPLATE
 62
     3
370
     9
100
AcDbText
 10
1769.498301967586
 20
297.0108692179993
 30
0.0000000000000047
 40
0.1802334230573778
  1
0.175/0.225
 41
0.9
  7
ROMANS
 72
     4
 11
1770.239833765307
 21
297.0881121135954
 31
0.0000000000000047
100
AcDbText
  0
TEXT
  5
103
330
2
100
AcDbEntity
  8
TEMPLATE
 62
     3
370
     9
100
AcDbText
 10
1769.934724327703
 20
297.3945089327929
 30
0.0000000000000047
 40
0.1802334230573778
  1
1.499
 41
0.9
  7
ROMANS
 72
     4
 11
1770.239833765307
 21
297.4846256443216
 31
0.0000000000000047
100
AcDbText
  0
TEXT
  5
104
330
2
100
AcDbEntity
  8
TEMPLATE
 62
     3
370
     9
100
AcDbText
 10
1770.22645696301
 20
292.2442599108188
 30
0.0000000000000047
 40
0.1802334230573778
  1
-
 41
0.9
  7
ROMANS
 72
     4
 11
1770.295975569047
 21
292.3215028064149
 31
0.0000000000000047
100
AcDbText
  0
TEXT
  5
105
330
2
100
AcDbEntity
  8
TEMPLATE
 62
     3
370
     9
100
AcDbText
 10
1770.22645696301
 20
291.8477463800926
 30
0.0000000000000047
 40
0.1802334230573778
  1
-
 41
0.9
  7
ROMANS
 72
     4
 11
1770.295975569047
 21
291.9249892756886
 31
0.0000000000000047
100
AcDbText
  0
TEXT
  5
106
330
2
100
AcDbEntity
  8
TEMPLATE
 62
     3
370
     9
100
AcDbText
 10
1769.930862182923
 20
295.4119412791617
 30
0.0000000000000047
 40
0.1802334230573778
  1
0.160
 41
0.9
  7
ROMANS
 72
     4
 11
1770.239833765307
 21
295.5020579906904
 31
0.0000000000000047
100
AcDbText
  0
TEXT
  5
107
330
2
100
AcDbEntity
  8
TEMPLATE
 62
     3
370
     9
100
AcDbText
 10
1769.915413603804
 20
295.0154277484355
 30
0.0000000000000047
 40
0.1802334230573778
  1
0.070
 41
0.9
  7
ROMANS
 72
     4
 11
1770.239833765307
 21
295.1055444599642
 31
0.0000000000000047
100
AcDbText
  0
TEXT
  5
108
330
2
100
AcDbEntity
  8
TEMPLATE
 62
     3
370
     9
100
AcDbText
 10
1769.930862182923
 20
297.7910224635191
 30
0.0000000000000047
 40
0.1802334230573778
  1
0.195
 41
0.9
  7
ROMANS
 72
     4
 11
1770.239833765307
 21
297.8811391750478
 31
0.0000000000000047
100
AcDbText
  0
TEXT
  5
109
330
2
100
AcDbEntity
  8
TEMPLATE
 62
     7
370
     9
100
AcDbText
 10
1770.01739470206
 20
298.1904487091636
 30
0.0000000000000047
 40
0.2162801076688533
  1
MIN.
 41
0.9
  7
ROMANS
 72
     4
 11
1770.276930831263
 21
298.2985887629979
 31
0.0000000000000047
100
AcDbText
  0
TEXT
  5
10A
330
2
100
AcDbEntity
  8
TEMPLATE
 62
     3
370
     9
100
AcDbText
 10
1773.750657464712
 20
297.3945089327929
 30
0.0000000000000047
 40
0.1802334230573778
  1
1.549
 41
0.9
  7
ROMANS
 72
     4
 11
1774.055766902316
 21
297.4846256443216
 31
0.0000000000000047
100
AcDbText
  0
TEXT
  5
10B
330
2
100
AcDbEntity
  8
TEMPLATE
 62
     3
370
     9
100
AcDbText
 10
1773.298786525475
 20
297.0108692179993
 30
0.0000000000000047
 40
0.1802334230573778
  1
0.225/0.275
 41
0.9
  7
ROMANS
 72
     4
 11
1774.055766902316
 21
297.0881121135954
 31
0.0000000000000047
100
AcDbText
  0
TEXT
  5
10C
330
2
100
AcDbEntity
  8
TEMPLATE
 62
     3
370
     9
100
AcDbText
 10
1774.017873004973
 20
292.2442599108188
 30
0.0000000000000047
 40
0.1802334230573778
  1
-
 41
0.9
  7
ROMANS
 72
     4
 11
1774.087391611009
 21
292.3215028064149
 31
0.0000000000000047
100
AcDbText
  0
TEXT
  5
10D
330
2
100
AcDbEntity
  8
TEMPLATE
 62
     3
370
     9
100
AcDbText
 10
1774.017873004973
 20
296.6059087488071
 30
0.0000000000000047
 40
0.1802334230573778
  1
-
 41
0.9
  7
ROMANS
 72
     4
 11
1774.087391611009
 21
296.6831516444031
 31
0.0000000000000047
100
AcDbText
  0
TEXT
  5
10E
330
2
100
AcDbEntity
  8
TEMPLATE
 62
     3
370
     9
100
AcDbText
 10
1774.017873004973
 20
296.2093952180808
 30
0.0000000000000047
 40
0.1802334230573778
  1
-
 41
0.9
  7
ROMANS
 72
     4
 11
1774.087391611009
 21
296.2866381136769
 31
0.0000000000000047
100
AcDbText
  0
TEXT
  5
10F
330
2
100
AcDbEntity
  8
TEMPLATE
 62
     3
370
     9
100
AcDbText
 10
1774.017873004973
 20
295.8128816873546
 30
0.0000000000000047
 40
0.1802334230573778
  1
-
 41
0.9
  7
ROMANS
 72
     4
 11
1774.087391611009
 21
295.8901245829506
 31
0.0000000000000047
100
AcDbText
  0
TEXT
  5
110
330
2
100
AcDbEntity
  8
TEMPLATE
 62
     3
370
     9
100
AcDbText
 10
1773.762971449506
 20
295.4034943406962
 30
0.0000000000000047
 40
0.1802334230573778
  1
0.220
 41
0.9
  7
ROMANS
 72
     4
 11
1774.087391611009
 21
295.4936110522249
 31
0.0000000000000047
100
AcDbText
  0
TEXT
  5
111
330
2
100
AcDbEntity
  8
TEMPLATE
 62
     3
370
     9
100
AcDbText
 10
1773.778420028625
 20
295.0069808099697
 30
0.0000000000000047
 40
0.1802334230573778
  1
0.130
 41
0.9
  7
ROMANS
 72
     4
 11
1774.087391611009
 21
295.0970975214984
 31
0.0000000000000047
100
AcDbText
  0
TEXT
  5
112
330
2
100
AcDbEntity
  8
TEMPLATE
 62
     3
370
     9
100
AcDbText
 10
1773.78155462295
 20
297.7910224635191
 30
0.0000000000000047
 40
0.1802334230573778
  1
0.211
 41
0.9
  7
ROMANS
 72
     4
 11
1774.055766902316
 21
297.8811391750478
 31
0.0000000000000047
100
AcDbText
  0
TEXT
  5
113
330
2
100
AcDbEntity
  8
TEMPLATE
 62
     7
370
     9
100
AcDbText
 10
1773.805160539412
 20
298.1924378074243
 30
0.0000000000000047
 40
0.2162801076688533
  1
MAX.
 41
0.9
  7
ROMANS
 72
     4
 11
1774.120311553444
 21
298.3005778612587
 31
0.0000000000000047
100
AcDbText
  0
LINE
  5
114
330
2
100
AcDbEntity
  8
TEMPLATE
 62
     3
370
     9
100
AcDbLine
 10
1759.879916625948
 20
284.9919862419433
 30
0.0000000000000047
 11
1775.004653084401
 21
284.9919862419433
 31
0.0000000000000047
  0
TEXT
  5
115
330
2
100
AcDbEntity
  8
TEMPLATE
 62
     3
370
     9
100
AcDbText
 10
1760.729000399621
 20
291.0507997420216
 30
0.0000000000000047
 40
0.1802334230573778
  1
TAPE POSITION TOL.
 41
0.9
  7
ROMANS
 72
     4
 11
1761.957162439598
 21
291.1409164535503
 31
0.0000000000000047
100
AcDbText
  0
TEXT
  5
116
330
2
100
AcDbEntity
  8
TEMPLATE
 62
     3
370
     9
100
AcDbText
 10
1771.730951501541
 20
291.0418476534228
 30
0.0000000000000047
 40
0.1802334230573778
  1
32.000
 41
0.9
  7
ROMANS
 72
     4
 11
1772.13261455864
 21
291.1319643649515
 31
0.0000000000000047
100
AcDbText
  0
TEXT
  5
117
330
2
100
AcDbEntity
  8
TEMPLATE
 62
     3
370
     9
100
AcDbText
 10
1769.870114241335
 20
291.0418476534228
 30
0.0000000000000047
 40
0.1802334230573778
  1
31.700
 41
0.9
  7
ROMANS
 72
     4
 11
1770.256328719314
 21
291.1319643649515
 31
0.0000000000000047
100
AcDbText
  0
TEXT
  5
118
330
2
100
AcDbEntity
  8
TEMPLATE
 62
     3
370
     9
100
AcDbText
 10
1773.701223695774
 20
291.0502945918886
 30
0.0000000000000047
 40
0.1802334230573778
  1
32.300
 41
0.9
  7
ROMANS
 72
     4
 11
1774.102886752874
 21
291.1404113034173
 31
0.0000000000000047
100
AcDbText
  0
TEXT
  5
119
330
2
100
AcDbEntity
  8
TEMPLATE
 62
     3
370
     9
100
AcDbText
 10
1760.058691576755
 20
290.2620654782129
 30
0.0000000000000047
 40
0.1802334230573778
  1
20
 41
0.9
  7
ROMANS
 72
     4
 11
1760.190004499268
 21
290.3521821897416
 31
0.0000000000000047
100
AcDbText
  0
LINE
  5
11A
330
2
100
AcDbEntity
  8
TEMPLATE
 62
     7
370
     9
100
AcDbLine
 10
1773.096686515896
 20
285.7850104357753
 30
0.0000000000000047
 11
1773.096686515896
 21
290.1466585568587
 31
0.0000000000000047
  0
LINE
  5
11B
330
2
100
AcDbEntity
  8
TEMPLATE
 62
     7
370
     9
100
AcDbLine
 10
1775.004653084401
 20
281.4233644654036
 30
0.0000000000000047
 11
1775.004653084401
 21
298.547065538386
 31
0.0000000000000047
  0
LINE
  5
11C
330
2
100
AcDbEntity
  8
TEMPLATE
 62
     3
370
     9
100
AcDbLine
 10
1760.502297222877
 20
281.4233644654036
 30
0.0000000000000047
 11
1760.502297222877
 21
298.547065538386
 31
0.0000000000000047
  0
LINE
  5
11D
330
2
100
AcDbEntity
  8
TEMPLATE
 62
     7
370
     9
100
AcDbLine
 10
1759.879916625948
 20
281.4233644654036
 30
0.0000000000000047
 11
1759.879916625948
 21
298.547065538386
 31
0.0000000000000047
  0
TEXT
  5
11E
330
2
100
AcDbEntity
  8
TEMPLATE
 62
     3
370
     9
100
AcDbText
 10
1773.77846659137
 20
289.0677269382575
 30
0.0000000000000047
 40
0.1802334230573778
  1
0.025
 41
0.9
  7
ROMANS
 72
     4
 11
1774.102886752874
 21
289.1578436497862
 31
0.0000000000000047
100
AcDbText
  0
TEXT
  5
11F
330
2
100
AcDbEntity
  8
TEMPLATE
 62
     3
370
     9
100
AcDbText
 10
1760.0705129191
 20
291.0531745642131
 30
0.0000000000000047
 40
0.1802334230573778
  1
18
 41
0.9
  7
ROMANS
 72
     4
 11
1760.186377262494
 21
291.1432912757419
 31
0.0000000000000047
100
AcDbText
  0
LINE
  5
120
330
2
100
AcDbEntity
  8
TEMPLATE
 62
     3
370
     9
100
AcDbLine
 10
1759.879916625948
 20
291.3361984321327
 30
0.0000000000000047
 11
1775.004653084401
 21
291.3361984321327
 31
0.0000000000000047
  0
LINE
  5
121
330
2
100
AcDbEntity
  8
TEMPLATE
 62
     3
370
     9
100
AcDbLine
 10
1759.879916625948
 20
290.5431720875849
 30
0.0000000000000047
 11
1775.004653084401
 21
290.5431720875849
 31
0.0000000000000047
  0
LINE
  5
122
330
2
100
AcDbEntity
  8
TEMPLATE
 62
     3
370
     9
100
AcDbLine
 10
1759.879916625948
 20
290.9396856183112
 30
0.0000000000000047
 11
1775.004653084401
 21
290.9396856183112
 31
0.0000000000000047
  0
TEXT
  5
123
330
2
100
AcDbEntity
  8
TEMPLATE
 62
     3
370
     9
100
AcDbText
 10
1760.743842104476
 20
290.6542862112953
 30
0.0000000000000047
 40
0.1802334230573778
  1
TAPE MATERIAL
 41
0.9
  7
ROMANS
 72
     4
 11
1761.690067575527
 21
290.7444029228241
 31
0.0000000000000047
100
AcDbText
  0
TEXT
  5
124
330
2
100
AcDbEntity
  8
TEMPLATE
 62
     3
370
     9
100
AcDbText
 10
1760.759557169954
 20
290.257771963664
 30
0.0000000000000047
 40
0.1802334230573778
  1
TAPE THICKNESS
 41
0.9
  7
ROMANS
 72
     4
 11
1761.779163391821
 21
290.3478886751927
 31
0.0000000000000047
100
AcDbText
  0
TEXT
  5
125
330
2
100
AcDbEntity
  8
TEMPLATE
 62
     3
370
     9
100
AcDbText
 10
1771.221134293769
 20
290.6166681837731
 30
0.0000000000000047
 40
0.1802334230573778
  1
PS-1030-05D
 41
0.9
  7
ROMANS
 72
     4
 11
1772.082392579665
 21
290.7067848953018
 31
0.0000000000000047
100
AcDbText
  0
TEXT
  5
126
330
2
100
AcDbEntity
  8
TEMPLATE
 62
     3
370
     9
100
AcDbText
 10
1771.402304536045
 20
290.2201539361415
 30
0.0000000000000047
 40
0.1802334230573778
  1
0.031%%p0.006
 41
0.9
  7
ROMANS
 72
     4
 11
1772.155422768107
 21
290.3102706476702
 31
0.0000000000000047
100
AcDbText
  0
TEXT
  5
127
330
2
100
AcDbEntity
  8
TEMPLATE
 62
     3
370
     9
100
AcDbText
 10
1760.055064339981
 20
284.307766238591
 30
0.0000000000000047
 40
0.1802334230573778
  1
35
 41
0.9
  7
ROMANS
 72
     4
 11
1760.186377262494
 21
284.3978829501198
 31
0.0000000000000047
100
AcDbText
  0
TEXT
  5
128
330
2
100
AcDbEntity
  8
TEMPLATE
 62
     3
370
     9
100
AcDbText
 10
1760.074375063879
 20
290.6566610334865
 30
0.0000000000000047
 40
0.1802334230573778
  1
19
 41
0.9
  7
ROMANS
 72
     4
 11
1760.186377262494
 21
290.7467777450151
 31
0.0000000000000047
100
AcDbText
  0
TEXT
  5
129
330
2
100
AcDbEntity
  8
TEMPLATE
 62
     3
370
     9
100
AcDbText
 10
1771.668894381116
 20
293.8258871562573
 30
0.0000000000000047
 40
0.1802334230573778
  1
250.000
 41
0.9
  7
ROMANS
 72
     4
 11
1772.147800333812
 21
293.916003867786
 31
0.0000000000000047
100
AcDbText
  0
TEXT
  5
12A
330
2
100
AcDbEntity
  8
TEMPLATE
 62
     3
370
     9
100
AcDbText
 10
1769.760927812612
 20
293.8258871562573
 30
0.0000000000000047
 40
0.1802334230573778
  1
249.900
 41
0.9
  7
ROMANS
 72
     4
 11
1770.239833765307
 21
293.916003867786
 31
0.0000000000000047
100
AcDbText
  0
TEXT
  5
12B
330
2
100
AcDbEntity
  8
TEMPLATE
 62
     3
370
     9
100
AcDbText
 10
1773.59230952874
 20
293.8258871562573
 30
0.0000000000000047
 40
0.1802334230573778
  1
250.100
 41
0.9
  7
ROMANS
 72
     4
 11
1774.055766902316
 21
293.916003867786
 31
0.0000000000000047
100
AcDbText
  0
TEXT
  5
12C
330
2
100
AcDbEntity
  8
TEMPLATE
 62
     3
370
     9
100
AcDbText
 10
1771.746137276713
 20
293.4293736255309
 30
0.0000000000000047
 40
0.1802334230573778
  1
70.000
 41
0.9
  7
ROMANS
 72
     4
 11
1772.147800333812
 21
293.5194903370596
 31
0.0000000000000047
100
AcDbText
  0
TEXT
  5
12D
330
2
100
AcDbEntity
  8
TEMPLATE
 62
     3
370
     9
100
AcDbText
 10
1769.838170708208
 20
293.4293736255309
 30
0.0000000000000047
 40
0.1802334230573778
  1
69.950
 41
0.9
  7
ROMANS
 72
     4
 11
1770.239833765307
 21
293.5194903370596
 31
0.0000000000000047
100
AcDbText
  0
TEXT
  5
12E
330
2
100
AcDbEntity
  8
TEMPLATE
 62
     3
370
     9
100
AcDbText
 10
1773.654103845217
 20
293.4293736255309
 30
0.0000000000000047
 40
0.1802334230573778
  1
70.050
 41
0.9
  7
ROMANS
 72
     4
 11
1774.055766902316
 21
293.5194903370596
 31
0.0000000000000047
100
AcDbText
  0
TEXT
  5
12F
330
2
100
AcDbEntity
  8
TEMPLATE
 62
     3
370
     9
100
AcDbText
 10
1771.761585855832
 20
293.0328600948048
 30
0.0000000000000047
 40
0.1802334230573778
  1
61.500
 41
0.9
  7
ROMANS
 72
     4
 11
1772.147800333812
 21
293.1229768063336
 31
0.0000000000000047
100
AcDbText
  0
TEXT
  5
130
330
2
100
AcDbEntity
  8
TEMPLATE
 62
     3
370
     9
100
AcDbText
 10
1769.853619287327
 20
293.0328600948048
 30
0.0000000000000047
 40
0.1802334230573778
  1
61.475
 41
0.9
  7
ROMANS
 72
     4
 11
1770.239833765307
 21
293.1229768063336
 31
0.0000000000000047
100
AcDbText
  0
TEXT
  5
131
330
2
100
AcDbEntity
  8
TEMPLATE
 62
     3
370
     9
100
AcDbText
 10
1773.669552424336
 20
293.0328600948048
 30
0.0000000000000047
 40
0.1802334230573778
  1
61.525
 41
0.9
  7
ROMANS
 72
     4
 11
1774.055766902316
 21
293.1229768063336
 31
0.0000000000000047
100
AcDbText
  0
TEXT
  5
132
330
2
100
AcDbEntity
  8
TEMPLATE
 62
     3
370
     9
100
AcDbText
 10
1771.684342960236
 20
292.6363465640782
 30
0.0000000000000047
 40
0.1802334230573778
  1
184.500
 41
0.9
  7
ROMANS
 72
     4
 11
1772.147800333812
 21
292.7264632756069
 31
0.0000000000000047
100
AcDbText
  0
TEXT
  5
133
330
2
100
AcDbEntity
  8
TEMPLATE
 62
     3
370
     9
100
AcDbText
 10
1769.776376391731
 20
292.6363465640782
 30
0.0000000000000047
 40
0.1802334230573778
  1
184.450
 41
0.9
  7
ROMANS
 72
     4
 11
1770.239833765307
 21
292.7264632756069
 31
0.0000000000000047
100
AcDbText
  0
TEXT
  5
134
330
2
100
AcDbEntity
  8
TEMPLATE
 62
     3
370
     9
100
AcDbText
 10
1773.59230952874
 20
292.6363465640782
 30
0.0000000000000047
 40
0.1802334230573778
  1
184.550
 41
0.9
  7
ROMANS
 72
     4
 11
1774.055766902316
 21
292.7264632756069
 31
0.0000000000000047
100
AcDbText
  0
TEXT
  5
135
330
2
100
AcDbEntity
  8
TEMPLATE
 62
     3
370
     9
100
AcDbText
 10
1772.074643890224
 20
294.6601553809344
 30
0.0000000000000047
 40
0.1802334230573778
  1
-
 41
0.9
  7
ROMANS
 72
     4
 11
1772.14416249626
 21
294.7373982765305
 31
0.0000000000000047
100
AcDbText
  0
TEXT
  5
136
330
2
100
AcDbEntity
  8
TEMPLATE
 62
     3
370
     9
100
AcDbText
 10
1772.074643890224
 20
294.263641850208
 30
0.0000000000000047
 40
0.1802334230573778
  1
-
 41
0.9
  7
ROMANS
 72
     4
 11
1772.14416249626
 21
294.340884745804
 31
0.0000000000000047
100
AcDbText
  0
TEXT
  5
137
330
2
100
AcDbEntity
  8
TEMPLATE
 62
     3
370
     9
100
AcDbText
 10
1773.982610458728
 20
294.6233410951762
 30
0.0000000000000047
 40
0.1802334230573778
  1
-
 41
0.9
  7
ROMANS
 72
     4
 11
1774.052129064764
 21
294.7005839907722
 31
0.0000000000000047
100
AcDbText
  0
TEXT
  5
138
330
2
100
AcDbEntity
  8
TEMPLATE
 62
     3
370
     9
100
AcDbText
 10
1773.982610458728
 20
294.2268275644497
 30
0.0000000000000047
 40
0.1802334230573778
  1
-
 41
0.9
  7
ROMANS
 72
     4
 11
1774.052129064764
 21
294.3040704600457
 31
0.0000000000000047
100
AcDbText
  0
TEXT
  5
139
330
2
100
AcDbEntity
  8
TEMPLATE
 62
     3
370
     9
100
AcDbText
 10
1770.166677321719
 20
294.6233410951762
 30
0.0000000000000047
 40
0.1802334230573778
  1
-
 41
0.9
  7
ROMANS
 72
     4
 11
1770.236195927755
 21
294.7005839907722
 31
0.0000000000000047
100
AcDbText
  0
TEXT
  5
13A
330
2
100
AcDbEntity
  8
TEMPLATE
 62
     3
370
     9
100
AcDbText
 10
1770.166677321719
 20
294.2268275644497
 30
0.0000000000000047
 40
0.1802334230573778
  1
-
 41
0.9
  7
ROMANS
 72
     4
 11
1770.236195927755
 21
294.3040704600457
 31
0.0000000000000047
100
AcDbText
  0
LINE
  5
13B
330
2
100
AcDbEntity
  8
TEMPLATE
 62
     3
370
     9
100
AcDbLine
 10
1759.879916625948
 20
283.4059321190371
 30
0.0000000000000047
 11
1775.004653084401
 21
283.4059321190371
 31
0.0000000000000047
  0
TEXT
  5
13C
330
2
100
AcDbEntity
  8
TEMPLATE
 62
     3
370
     9
100
AcDbText
 10
1760.739650287571
 20
283.9157300604734
 30
0.0000000000000047
 40
0.1802334230573778
  1
GENERAL TOLERANCE:%%P0.050MM
 41
0.9
  7
ROMANS
 72
     4
 11
1762.717068414829
 21
284.0058467720021
 31
0.0000000000000047
100
AcDbText
  0
TEXT
  5
13D
330
2
100
AcDbEntity
  8
TEMPLATE
 62
     3
370
     9
100
AcDbText
 10
1760.058926484761
 20
283.9112527078644
 30
0.0000000000000047
 40
0.1802334230573778
  1
36
 41
0.9
  7
ROMANS
 72
     4
 11
1760.186377262494
 21
284.0013694193931
 31
0.0000000000000047
100
AcDbText
  0
TEXT
  5
13E
330
2
100
AcDbEntity
  8
TEMPLATE
 62
     3
370
     9
100
AcDbText
 10
1760.080525993031
 20
283.4934321617268
 30
0.0000000000000047
 40
0.1802334230573778
  1
37
 41
0.9
  7
ROMANS
 72
     4
 11
1760.211838915544
 21
283.5835488732555
 31
0.0000000000000047
100
AcDbText
  0
MTEXT
  5
13F
330
2
100
AcDbEntity
  8
TEMPLATE
 62
     3
370
     9
100
AcDbMText
 10
1760.78228746887
 20
283.3111696894243
 30
-0.0000000000000263
 40
0.1802334230573778
 41
43.70088939432977
 46
1.231826009557957
 71
     1
 72
     5
  1
LOGO(HALF ETCH),:-(,)
  7
ROMANS
 73
     1
 44
1.0
1001
ACAD
1000
ACAD_MTEXT_DEFINED_HEIGHT_BEGIN
1070
    46
1040
1.231826009557957
1000
ACAD_MTEXT_DEFINED_HEIGHT_END
  0
LINE
  5
140
330
2
100
AcDbEntity
  8
TEMPLATE
 62
     3
370
     9
100
AcDbLine
 10
1759.879916625948
 20
283.8024456497637
 30
0.0000000000000047
 11
1775.004653084401
 21
283.8024456497637
 31
0.0000000000000047
  0
LINE
  5
141
330
2
100
AcDbEntity
  8
TEMPLATE
 62
     3
370
     9
100
AcDbLine
 10
1759.879916625948
 20
283.0094185883104
 30
0.0000000000000047
 11
1775.004653084401
 21
283.0094185883104
 31
0.0000000000000047
  0
TEXT
  5
142
330
2
100
AcDbEntity
  8
0
 62
     3
370
     9
100
AcDbText
 10
1760.769498015834
 20
283.5017571437034
 30
-0.0000000000000263
 40
0.15
  1
Hazardous Substances Requirement:RoHS 2.0 /Halogen Free/SONY/Reach/PFOA/PFOS
  7
SIMPLEX
100
AcDbText
1001
ACAD
1000
ACAD_MTEXT_DEFINED_HEIGHT_BEGIN
1070
    46
1040
2.365911895435129
1000
ACAD_MTEXT_DEFINED_HEIGHT_END
  0
TEXT
  5
143
330
2
100
AcDbEntity
  8
TEMPLATE
 62
     3
370
     9
100
AcDbText
 10
1760.080525993031
 20
283.0969186310001
 30
0.0000000000000047
 40
0.1802334230573778
  1
38
 41
0.9
  7
ROMANS
 72
     4
 11
1760.211838915544
 21
283.1870353425288
 31
0.0000000000000047
100
AcDbText
  0
MTEXT
  5
144
330
2
100
AcDbEntity
  8
TEMPLATE
 62
     1
370
     0
100
AcDbMText
 10
1760.759657903609
 20
282.8302471098557
 30
-0.0000000000000043
 40
0.1644539868687044
 41
39.8748765278562
 46
0.0
 71
     1
 72
     5
  1
-follow^M^JLeadframe name, part number-supplier, row and column numberPosition and size should follow the drawing
  7
ROMANS
 73
     1
 44
1.0
 90
        2
  0
MTEXT
  5
145
330
2
100
AcDbEntity
  8
TEMPLATE
 62
     1
370
     0
100
AcDbMText
 10
1760.771723852245
 20
281.668316423213
 30
0.0962405261374109
 40
0.1644539868687044
 41
39.8748765278562
 46
0.0
 71
     1
 72
     5
  1
PRODUCT CLASSIFICATION:NA
  7
ROMANS
 73
     1
 44
1.0
 90
        2
  0
TEXT
  5
146
330
2
100
AcDbEntity
  8
TEMPLATE
 62
     1
370
     9
100
AcDbText
 10
1760.743879355393
 20
281.9521588356664
 30
-0.0000000000000095
 40
0.1802334230573778
  1
SURFACE TERATMENT:BARE COPPER ON TOP SIDE AND SIDEWALL&BOTTOM SIDE BOT 
 41
0.9
  7
ROMANS
 72
     4
 11
1766.162468481454
 21
282.0422755471951
 31
-0.0000000000000095
100
AcDbText
  0
LINE
  5
147
330
2
100
AcDbEntity
  8
TEMPLATE
 62
     3
370
     9
100
AcDbLine
 10
1759.879916625948
 20
282.216391526857
 30
0.0000000000000047
 11
1775.004653084401
 21
282.216391526857
 31
0.0000000000000047
  0
LINE
  5
148
330
2
100
AcDbEntity
  8
TEMPLATE
 62
     3
370
     9
100
AcDbLine
 10
1759.879916625948
 20
281.8198779961303
 30
0.0000000000000047
 11
1775.004653084401
 21
281.8198779961303
 31
0.0000000000000047
  0
LINE
  5
149
330
2
100
AcDbEntity
  8
TEMPLATE
 62
     7
370
     9
100
AcDbLine
 10
1759.879916625948
 20
281.4233644654036
 30
0.0000000000000047
 11
1775.004653084401
 21
281.4233644654036
 31
0.0000000000000047
  0
TEXT
  5
14A
330
2
100
AcDbEntity
  8
TEMPLATE
 62
     1
370
     9
100
AcDbText
 10
1760.084388137811
 20
282.7004051002734
 30
0.0000000000000047
 40
0.1802334230573778
  1
39
 41
0.9
  7
ROMANS
 72
     4
 11
1760.211838915544
 21
282.7905218118021
 31
0.0000000000000047
100
AcDbText
  0
TEXT
  5
14B
330
2
100
AcDbEntity
  8
TEMPLATE
 62
     1
370
     9
100
AcDbText
 10
1760.080525993031
 20
281.9073780388201
 30
0.0000000000000047
 40
0.1802334230573778
  1
40
 41
0.9
  7
ROMANS
 72
     4
 11
1760.211838915544
 21
281.9974947503488
 31
0.0000000000000047
100
AcDbText
  0
TEXT
  5
14C
330
2
100
AcDbEntity
  8
TEMPLATE
 62
     1
370
     9
100
AcDbText
 10
1760.115285296049
 20
281.5108645080934
 30
0.0000000000000047
 40
0.1802334230573778
  1
41
 41
0.9
  7
ROMANS
 72
     4
 11
1760.211838915544
 21
281.6009812196221
 31
0.0000000000000047
100
AcDbText
  0
ENDSEC
  0
SECTION
  2
OBJECTS
  0
DICTIONARY
  5
B
330
0
100
AcDbDictionary
281
     1
  3
ACAD_COLOR
350
35
  3
ACAD_GROUP
350
30
  3
ACAD_LAYOUT
350
11
  3
ACAD_MATERIAL
350
D
  3
ACAD_MLEADERSTYLE
350
38
  3
ACAD_MLINESTYLE
350
31
  3
ACAD_PLOTSETTINGS
350
32
  3
ACAD_PLOTSTYLENAME
350
A
  3
ACAD_SCALELIST
350
36
  3
ACAD_TABLESTYLE
350
37
  3
ACAD_VISUALSTYLE
350
25
  3
ACDB_RECOMPOSE_DATA
350
151
  3
AcDbVariableDictionary
350
39
  0
DICTIONARY
  5
28
330
22
100
AcDbDictionary
280
     1
281
     1
  0
DICTIONARY
  5
18
330
17
100
AcDbDictionary
280
     1
281
     1
  3
ACAD_LAYERSTATES
360
19
  0
DICTIONARY
  5
7
330
6
100
AcDbDictionary
280
     1
281
     1
  3
ADSK_XREC_LAYER_RECONCILED
360
8
  0
DICTIONARY
  5
61
330
60
100
AcDbDictionary
280
     1
281
     1
  3
ADSK_XREC_LAYER_RECONCILED
360
62
  0
DICTIONARY
  5
3
330
2
100
AcDbDictionary
280
     1
281
     1
  3
ACAD_SORTENTS
360
14D
  0
DICTIONARY
  5
35
102
{ACAD_REACTORS
330
B
102
}
330
B
100
AcDbDictionary
281
     1
  0
DICTIONARY
  5
30
102
{ACAD_REACTORS
330
B
102
}
330
B
100
AcDbDictionary
281
     1
  0
DICTIONARY
  5
11
102
{ACAD_REACTORS
330
B
102
}
330
B
100
AcDbDictionary
281
     1
  3
Layout1
350
16
  3
Model
350
10
  0
DICTIONARY
  5
D
102
{ACAD_REACTORS
330
B
102
}
330
B
100
AcDbDictionary
281
     1
  3
ByBlock
350
34
  3
ByLayer
350
33
  3
Global
350
C
  0
DICTIONARY
  5
38
102
{ACAD_REACTORS
330
B
102
}
330
B
100
AcDbDictionary
281
     1
  0
DICTIONARY
  5
31
102
{ACAD_REACTORS
330
B
102
}
330
B
100
AcDbDictionary
281
     1
  3
Standard
350
49
  0
DICTIONARY
  5
32
102
{ACAD_REACTORS
330
B
102
}
330
B
100
AcDbDictionary
281
     1
  0
ACDBDICTIONARYWDFLT
  5
A
102
{ACAD_REACTORS
330
B
102
}
330
B
100
AcDbDictionary
281
     1
  3
Normal
350
9
100
AcDbDictionaryWithDefault
340
9
  0
DICTIONARY
  5
36
102
{ACAD_REACTORS
330
B
102
}
330
B
100
AcDbDictionary
281
     1
  3
A0
350
4E
  3
A1
350
4F
  3
A2
350
50
  3
A3
350
51
  3
A4
350
52
  3
A5
350
53
  3
A6
350
54
  3
A7
350
55
  3
A8
350
56
  3
A9
350
57
  3
B0
350
58
  3
B1
350
59
  3
B2
350
5A
  3
B3
350
5B
  3
B4
350
5C
  3
B5
350
5D
  3
B6
350
5E
  0
DICTIONARY
  5
37
102
{ACAD_REACTORS
330
B
102
}
330
B
100
AcDbDictionary
281
     1
  3
Standard
350
4A
  0
DICTIONARY
  5
25
102
{ACAD_REACTORS
330
B
102
}
330
B
100
AcDbDictionary
281
     1
  3
2dWireframe
350
24
  3
Realistic
350
4C
  3
Wireframe
350
4D
  0
XRECORD
  5
151
102
{ACAD_REACTORS
330
B
102
}
330
B
100
AcDbXrecord
280
     1
 90
        1
330
4A
  0
DICTIONARY
  5
39
102
{ACAD_REACTORS
330
B
102
}
330
B
100
AcDbDictionary
281
     1
  3
CANNOSCALE
350
3A
  3
CMLEADERSTYLE
350
3B
  3
CTABLESTYLE
350
3C
  3
CVIEWDETAILSTYLE
350
3D
  3
CVIEWSECTIONSTYLE
350
3E
  3
DIMASSOC
350
3F
  3
INDEXCTL
350
40
  3
LAYEREVAL
350
41
  3
LAYERNOTIFY
350
42
  3
LIGHTINGUNITS
350
43
  3
MSLTSCALE
350
44
  3
OLEFRAME
350
45
  3
PROJECTNAME
350
46
  3
SORTENTS
350
47
  0
DICTIONARY
  5
19
102
{ACAD_REACTORS
330
18
102
}
330
18
100
AcDbDictionary
281
     1
  0
XRECORD
  5
8
102
{ACAD_REACTORS
330
7
102
}
330
7
100
AcDbXrecord
280
     1
290
     1
  0
XRECORD
  5
62
102
{ACAD_REACTORS
330
61
102
}
330
61
100
AcDbXrecord
280
     1
290
     1
  0
SORTENTSTABLE
  5
14D
102
{ACAD_REACTORS
330
3
102
}
330
3
100
AcDbSortentsTable
330
2
  0
LAYOUT
  5
16
102
{ACAD_REACTORS
330
11
102
}
330
11
100
AcDbPlotSettings
  1

  2
HP DeskJet 930C/932C/935C
  4

  6

 40
0.0
 41
0.0
 42
0.0
 43
0.0
 44
0.0
 45
0.0
 46
0.0
 47
0.0
 48
0.0
 49
0.0
140
0.0
141
0.0
142
1.0
143
1.0
 70
   688
 72
     0
 73
     0
 74
     5
  7
monochrome.ctb
 75
    16
147
1.0
 76
     0
 77
     2
 78
   300
148
0.0
149
0.0
100
AcDbLayout
  1
Layout1
 70
     1
 71
     1
 10
0.0
 20
0.0
 11
12.0
 21
9.0
 12
0.0
 22
0.0
 32
0.0
 14
1.000000000000000E+20
 24
1.000000000000000E+20
 34
1.000000000000000E+20
 15
-1.000000000000000E+20
 25
-1.000000000000000E+20
 35
-1.000000000000000E+20
146
0.0
 13
0.0
 23
0.0
 33
0.0
 16
1.0
 26
0.0
 36
0.0
 17
0.0
 27
1.0
 37
0.0
 76
     0
330
13
  0
LAYOUT
  5
10
102
{ACAD_REACTORS
330
11
102
}
330
11
100
AcDbPlotSettings
  1

  2
Microsoft Print to PDF
  4
A4
  6

 40
3.174999999999999
 41
3.174999999999999
 42
3.174999999999982
 43
3.175000000000011
 44
210.0156666666666
 45
297.0106666666667
 46
0.0
 47
3.921839632716682
 48
-454.2043751643476
 49
-965.8920779354101
140
-309.2314780394573
141
-764.5778422532852
142
1.0
143
0.7118180471829993
 70
 11956
 72
     1
 73
     0
 74
     4
  7
monochrome.ctb
 75
     0
147
1.404853394708764
 76
     1
 77
     2
 78
   300
148
454.2043751643476
149
965.8920779354101
100
AcDbLayout
  1
Model
 70
     1
 71
     0
 10
0.0
 20
0.0
 11
12.0
 21
9.0
 12
0.0
 22
0.0
 32
0.0
 14
0.0
 24
0.0
 34
0.0
 15
0.0
 25
0.0
 35
0.0
146
0.0
 13
0.0
 23
0.0
 33
0.0
 16
1.0
 26
0.0
 36
0.0
 17
0.0
 27
1.0
 37
0.0
 76
     0
330
2
331
23
1001
ACAD_PSEXT
1000
Microsoft Print to PDF
1000
Microsoft Print To PDF
1000
PORTPROMPT:
1000

1070
     0
  0
MATERIAL
  5
34
102
{ACAD_REACTORS
330
D
102
}
330
D
100
AcDbMaterial
  1
ByBlock
 73
     1
 78
     1
172
     1
176
     1
270
     1
274
     1
 94
       63
  0
MATERIAL
  5
33
102
{ACAD_REACTORS
330
D
102
}
330
D
100
AcDbMaterial
  1
ByLayer
 73
     1
 78
     1
172
     1
176
     1
270
     1
274
     1
 94
       63
  0
MATERIAL
  5
C
102
{ACAD_REACTORS
330
D
102
}
330
D
100
AcDbMaterial
  1
Global
 73
     1
 78
     1
172
     1
176
     1
270
     1
274
     1
 94
       63
  0
MLINESTYLE
  5
49
102
{ACAD_REACTORS
330
31
102
}
330
31
100
AcDbMlineStyle
  2
STANDARD
 70
     0
  3

 62
   256
 51
90.0
 52
90.0
 71
     2
 49
0.5
 62
   256
  6
BYLAYER
 49
-0.5
 62
   256
  6
BYLAYER
  0
ACDBPLACEHOLDER
  5
9
102
{ACAD_REACTORS
330
A
102
}
330
A
  0
SCALE
  5
4E
102
{ACAD_REACTORS
330
36
102
}
330
36
100
AcDbScale
 70
     0
300
1:1
140
1.0
141
1.0
290
     1
1001
ACAD
1000
AcRTDxfName
1000
SCALE
1000
AcRTDxfName
1000
SCALE
1000
AcRTDxfName
1000
SCALE
1000
AcRTDxfName
1000
SCALE
1000
AcRTDxfName
1000
SCALE
1000
AcRTDxfName
1000
SCALE
1000
AcRTDxfName
1000
SCALE
1000
AcRTDxfName
1000
SCALE
1000
AcRTDxfName
1000
SCALE
1000
AcRTDxfName
1000
SCALE
  0
SCALE
  5
4F
102
{ACAD_REACTORS
330
36
102
}
330
36
100
AcDbScale
 70
     0
300
1/128" = 1'-0"
140
0.0078125
141
12.0
290
     0
1001
ACAD
1000
AcRTDxfName
1000
SCALE
1000
AcRTDxfName
1000
SCALE
1000
AcRTDxfName
1000
SCALE
1000
AcRTDxfName
1000
SCALE
1000
AcRTDxfName
1000
SCALE
1000
AcRTDxfName
1000
SCALE
1000
AcRTDxfName
1000
SCALE
1000
AcRTDxfName
1000
SCALE
1000
AcRTDxfName
1000
SCALE
1000
AcRTDxfName
1000
SCALE
  0
SCALE
  5
50
102
{ACAD_REACTORS
330
36
102
}
330
36
100
AcDbScale
 70
     0
300
1/64" = 1'-0"
140
0.015625
141
12.0
290
     0
1001
ACAD
1000
AcRTDxfName
1000
SCALE
1000
AcRTDxfName
1000
SCALE
1000
AcRTDxfName
1000
SCALE
1000
AcRTDxfName
1000
SCALE
1000
AcRTDxfName
1000
SCALE
1000
AcRTDxfName
1000
SCALE
1000
AcRTDxfName
1000
SCALE
1000
AcRTDxfName
1000
SCALE
1000
AcRTDxfName
1000
SCALE
1000
AcRTDxfName
1000
SCALE
  0
SCALE
  5
51
102
{ACAD_REACTORS
330
36
102
}
330
36
100
AcDbScale
 70
     0
300
1/32" = 1'-0"
140
0.03125
141
12.0
290
     0
1001
ACAD
1000
AcRTDxfName
1000
SCALE
1000
AcRTDxfName
1000
SCALE
1000
AcRTDxfName
1000
SCALE
1000
AcRTDxfName
1000
SCALE
1000
AcRTDxfName
1000
SCALE
1000
AcRTDxfName
1000
SCALE
1000
AcRTDxfName
1000
SCALE
1000
AcRTDxfName
1000
SCALE
1000
AcRTDxfName
1000
SCALE
1000
AcRTDxfName
1000
SCALE
  0
SCALE
  5
52
102
{ACAD_REACTORS
330
36
102
}
330
36
100
AcDbScale
 70
     0
300
1/16" = 1'-0"
140
0.0625
141
12.0
290
     0
1001
ACAD
1000
AcRTDxfName
1000
SCALE
1000
AcRTDxfName
1000
SCALE
1000
AcRTDxfName
1000
SCALE
1000
AcRTDxfName
1000
SCALE
1000
AcRTDxfName
1000
SCALE
1000
AcRTDxfName
1000
SCALE
1000
AcRTDxfName
1000
SCALE
1000
AcRTDxfName
1000
SCALE
1000
AcRTDxfName
1000
SCALE
1000
AcRTDxfName
1000
SCALE
  0
SCALE
  5
53
102
{ACAD_REACTORS
330
36
102
}
330
36
100
AcDbScale
 70
     0
300
3/32" = 1'-0"
140
0.09375
141
12.0
290
     0
1001
ACAD
1000
AcRTDxfName
1000
SCALE
1000
AcRTDxfName
1000
SCALE
1000
AcRTDxfName
1000
SCALE
1000
AcRTDxfName
1000
SCALE
1000
AcRTDxfName
1000
SCALE
1000
AcRTDxfName
1000
SCALE
1000
AcRTDxfName
1000
SCALE
1000
AcRTDxfName
1000
SCALE
1000
AcRTDxfName
1000
SCALE
1000
AcRTDxfName
1000
SCALE
  0
SCALE
  5
54
102
{ACAD_REACTORS
330
36
102
}
330
36
100
AcDbScale
 70
     0
300
1/8" = 1'-0"
140
0.125
141
12.0
290
     0
1001
ACAD
1000
AcRTDxfName
1000
SCALE
1000
AcRTDxfName
1000
SCALE
1000
AcRTDxfName
1000
SCALE
1000
AcRTDxfName
1000
SCALE
1000
AcRTDxfName
1000
SCALE
1000
AcRTDxfName
1000
SCALE
1000
AcRTDxfName
1000
SCALE
1000
AcRTDxfName
1000
SCALE
1000
AcRTDxfName
1000
SCALE
1000
AcRTDxfName
1000
SCALE
  0
SCALE
  5
55
102
{ACAD_REACTORS
330
36
102
}
330
36
100
AcDbScale
 70
     0
300
3/16" = 1'-0"
140
0.1875
141
12.0
290
     0
1001
ACAD
1000
AcRTDxfName
1000
SCALE
1000
AcRTDxfName
1000
SCALE
1000
AcRTDxfName
1000
SCALE
1000
AcRTDxfName
1000
SCALE
1000
AcRTDxfName
1000
SCALE
1000
AcRTDxfName
1000
SCALE
1000
AcRTDxfName
1000
SCALE
1000
AcRTDxfName
1000
SCALE
1000
AcRTDxfName
1000
SCALE
1000
AcRTDxfName
1000
SCALE
  0
SCALE
  5
56
102
{ACAD_REACTORS
330
36
102
}
330
36
100
AcDbScale
 70
     0
300
1/4" = 1'-0"
140
0.25
141
12.0
290
     0
1001
ACAD
1000
AcRTDxfName
1000
SCALE
1000
AcRTDxfName
1000
SCALE
1000
AcRTDxfName
1000
SCALE
1000
AcRTDxfName
1000
SCALE
1000
AcRTDxfName
1000
SCALE
1000
AcRTDxfName
1000
SCALE
1000
AcRTDxfName
1000
SCALE
1000
AcRTDxfName
1000
SCALE
1000
AcRTDxfName
1000
SCALE
1000
AcRTDxfName
1000
SCALE
  0
SCALE
  5
57
102
{ACAD_REACTORS
330
36
102
}
330
36
100
AcDbScale
 70
     0
300
3/8" = 1'-0"
140
0.375
141
12.0
290
     0
1001
ACAD
1000
AcRTDxfName
1000
SCALE
1000
AcRTDxfName
1000
SCALE
1000
AcRTDxfName
1000
SCALE
1000
AcRTDxfName
1000
SCALE
1000
AcRTDxfName
1000
SCALE
1000
AcRTDxfName
1000
SCALE
1000
AcRTDxfName
1000
SCALE
1000
AcRTDxfName
1000
SCALE
1000
AcRTDxfName
1000
SCALE
1000
AcRTDxfName
1000
SCALE
  0
SCALE
  5
58
102
{ACAD_REACTORS
330
36
102
}
330
36
100
AcDbScale
 70
     0
300
1/2" = 1'-0"
140
0.5
141
12.0
290
     0
1001
ACAD
1000
AcRTDxfName
1000
SCALE
1000
AcRTDxfName
1000
SCALE
1000
AcRTDxfName
1000
SCALE
1000
AcRTDxfName
1000
SCALE
1000
AcRTDxfName
1000
SCALE
1000
AcRTDxfName
1000
SCALE
1000
AcRTDxfName
1000
SCALE
1000
AcRTDxfName
1000
SCALE
1000
AcRTDxfName
1000
SCALE
1000
AcRTDxfName
1000
SCALE
  0
SCALE
  5
59
102
{ACAD_REACTORS
330
36
102
}
330
36
100
AcDbScale
 70
     0
300
3/4" = 1'-0"
140
0.75
141
12.0
290
     0
1001
ACAD
1000
AcRTDxfName
1000
SCALE
1000
AcRTDxfName
1000
SCALE
1000
AcRTDxfName
1000
SCALE
1000
AcRTDxfName
1000
SCALE
1000
AcRTDxfName
1000
SCALE
1000
AcRTDxfName
1000
SCALE
1000
AcRTDxfName
1000
SCALE
1000
AcRTDxfName
1000
SCALE
1000
AcRTDxfName
1000
SCALE
1000
AcRTDxfName
1000
SCALE
  0
SCALE
  5
5A
102
{ACAD_REACTORS
330
36
102
}
330
36
100
AcDbScale
 70
     0
300
1" = 1'-0"
140
1.0
141
12.0
290
     0
1001
ACAD
1000
AcRTDxfName
1000
SCALE
1000
AcRTDxfName
1000
SCALE
1000
AcRTDxfName
1000
SCALE
1000
AcRTDxfName
1000
SCALE
1000
AcRTDxfName
1000
SCALE
1000
AcRTDxfName
1000
SCALE
1000
AcRTDxfName
1000
SCALE
1000
AcRTDxfName
1000
SCALE
1000
AcRTDxfName
1000
SCALE
1000
AcRTDxfName
1000
SCALE
  0
SCALE
  5
5B
102
{ACAD_REACTORS
330
36
102
}
330
36
100
AcDbScale
 70
     0
300
1-1/2" = 1'-0"
140
1.5
141
12.0
290
     0
1001
ACAD
1000
AcRTDxfName
1000
SCALE
1000
AcRTDxfName
1000
SCALE
1000
AcRTDxfName
1000
SCALE
1000
AcRTDxfName
1000
SCALE
1000
AcRTDxfName
1000
SCALE
1000
AcRTDxfName
1000
SCALE
1000
AcRTDxfName
1000
SCALE
1000
AcRTDxfName
1000
SCALE
1000
AcRTDxfName
1000
SCALE
1000
AcRTDxfName
1000
SCALE
  0
SCALE
  5
5C
102
{ACAD_REACTORS
330
36
102
}
330
36
100
AcDbScale
 70
     0
300
3" = 1'-0"
140
3.0
141
12.0
290
     0
1001
ACAD
1000
AcRTDxfName
1000
SCALE
1000
AcRTDxfName
1000
SCALE
1000
AcRTDxfName
1000
SCALE
1000
AcRTDxfName
1000
SCALE
1000
AcRTDxfName
1000
SCALE
1000
AcRTDxfName
1000
SCALE
1000
AcRTDxfName
1000
SCALE
1000
AcRTDxfName
1000
SCALE
1000
AcRTDxfName
1000
SCALE
1000
AcRTDxfName
1000
SCALE
  0
SCALE
  5
5D
102
{ACAD_REACTORS
330
36
102
}
330
36
100
AcDbScale
 70
     0
300
6" = 1'-0"
140
6.0
141
12.0
290
     0
1001
ACAD
1000
AcRTDxfName
1000
SCALE
1000
AcRTDxfName
1000
SCALE
1000
AcRTDxfName
1000
SCALE
1000
AcRTDxfName
1000
SCALE
1000
AcRTDxfName
1000
SCALE
1000
AcRTDxfName
1000
SCALE
1000
AcRTDxfName
1000
SCALE
1000
AcRTDxfName
1000
SCALE
1000
AcRTDxfName
1000
SCALE
1000
AcRTDxfName
1000
SCALE
  0
SCALE
  5
5E
102
{ACAD_REACTORS
330
36
102
}
330
36
100
AcDbScale
 70
     0
300
1'-0" = 1'-0"
140
12.0
141
12.0
290
     0
1001
ACAD
1000
AcRTDxfName
1000
SCALE
1000
AcRTDxfName
1000
SCALE
1000
AcRTDxfName
1000
SCALE
1000
AcRTDxfName
1000
SCALE
1000
AcRTDxfName
1000
SCALE
1000
AcRTDxfName
1000
SCALE
1000
AcRTDxfName
1000
SCALE
1000
AcRTDxfName
1000
SCALE
1000
AcRTDxfName
1000
SCALE
1000
AcRTDxfName
1000
SCALE
  0
TABLESTYLE
  5
4A
102
{ACAD_XDICTIONARY
360
4B
102
}
102
{ACAD_REACTORS
330
37
102
}
330
37
100
AcDbTableStyle
280
     0
  3
Standard
 70
     0
 71
     0
 40
0.06
 41
0.06
280
     0
281
     0
  7
Standard
140
0.18
170
     2
 62
     0
 63
     7
283
     0
 90
        4
 91
        0
  1

274
    -2
284
     1
 64
     0
275
    -2
285
     1
 65
     0
276
    -2
286
     1
 66
     0
277
    -2
287
     1
 67
     0
278
    -2
288
     1
 68
     0
279
    -2
289
     1
 69
     0
  7
Standard
140
0.25
170
     5
 62
     0
 63
     7
283
     0
 90
        4
 91
        0
  1

274
    -2
284
     1
 64
     0
275
    -2
285
     1
 65
     0
276
    -2
286
     1
 66
     0
277
    -2
287
     1
 67
     0
278
    -2
288
     1
 68
     0
279
    -2
289
     1
 69
     0
  7
Standard
140
0.18
170
     5
 62
     0
 63
     7
283
     0
 90
        4
 91
        0
  1

274
    -2
284
     1
 64
     0
275
    -2
285
     1
 65
     0
276
    -2
286
     1
 66
     0
277
    -2
287
     1
 67
     0
278
    -2
288
     1
 68
     0
279
    -2
289
     1
 69
     0
1001
ACAD
1000
AcRTDxfName
1000
TABLESTYLE
1000
AcRTDxfName
1000
TABLESTYLE
1000
AcRTDxfName
1000
TABLESTYLE
1000
AcRTDxfName
1000
TABLESTYLE
1000
AcRTDxfName
1000
TABLESTYLE
1000
AcRTDxfName
1000
TABLESTYLE
1000
AcRTDxfName
1000
TABLESTYLE
1000
AcRTDxfName
1000
TABLESTYLE
1000
AcRTDxfName
1000
TABLESTYLE
1000
AcRTDxfName
1000
TABLESTYLE
1000
AcRTDxfName
1000
TABLESTYLE
1000
AcRTDxfName
1000
TABLESTYLE
1000
AcRTDxfName
1000
TABLESTYLE
1000
AcRTDxfName
1000
TABLESTYLE
1000
AcRTDxfName
1000
TABLESTYLE
1000
AcRTDxfName
1000
TABLESTYLE
1000
AcRTDxfName
1000
TABLESTYLE
1000
AcRTDxfName
1000
TABLESTYLE
1000
AcRTDxfName
1000
TABLESTYLE
1000
AcRTDxfName
1000
TABLESTYLE
1000
AcRTDxfName
1000
TABLESTYLE
1000
AcRTDxfName
1000
TABLESTYLE
1000
AcRTDxfName
1000
TABLESTYLE
1000
AcRTDxfName
1000
TABLESTYLE
1000
AcRTDxfName
1000
TABLESTYLE
1000
AcRTDxfName
1000
TABLESTYLE
1000
AcRTDxfName
1000
TABLESTYLE
1000
AcRTDxfName
1000
TABLESTYLE
1000
AcRTDxfName
1000
TABLESTYLE
1000
AcRTDxfName
1000
TABLESTYLE
1000
AcRTDxfName
1000
TABLESTYLE
1000
AcRTDxfName
1000
TABLESTYLE
1000
AcRTDxfName
1000
TABLESTYLE
1000
AcRTDxfName
1000
TABLESTYLE
1000
AcRTDxfName
1000
TABLESTYLE
  0
VISUALSTYLE
  5
24
102
{ACAD_REACTORS
330
25
102
}
330
25
100
AcDbVisualStyle
  2
2dWireframe
 70
     4
177
     3
291
     0
 70
    58
 90
        0
176
     1
 90
        2
176
     1
 90
        0
176
     1
 90
        0
176
     1
 40
0.6
176
     1
 40
30.0
176
     1
 62
     7
176
     1
 90
        1
176
     1
 90
        4
176
     1
 62
     7
176
     1
 62
   257
176
     1
 90
        1
176
     1
 90
        1
176
     1
 40
1.0
176
     1
 90
        0
176
     1
 62
   257
176
     1
 40
1.0
176
     1
 90
        1
176
     1
 90
        6
176
     1
 90
        2
176
     1
 62
     7
176
     1
 90
        5
176
     1
 90
        0
176
     1
 90
        0
176
     1
290
     0
176
     1
 90
        1
176
     1
 40
0.0
176
     1
 90
        0
176
     1
290
     1
176
     1
290
     1
176
     1
290
     0
176
     1
290
     0
176
     1
290
     0
176
     1
290
     0
176
     1
290
     0
176
     1
290
     0
176
     1
290
     0
176
     1
 90
       50
176
     1
 40
0.0
176
     1
 40
1.0
176
     1
 90
        0
176
     1
 62
    18
420
        0
176
     1
 90
       50
176
     1
 90
        3
176
     1
 62
     5
420
      255
176
     1
290
     0
176
     1
 90
       50
176
     1
 90
       50
176
     1
 90
       50
176
     1
290
     0
176
     1
 90
       50
176
     1
 62
   256
176
     0
 40
1.0
176
     0
 90
        2
176
     1
  1
strokes_ogs.tif
176
     1
290
     0
176
     1
 40
1.0
176
     1
 40
1.0
176
     1
1001
ACAD
1000
AcRTDxfName
1000
VISUALSTYLE
1000
AcRTDxfName
1000
VISUALSTYLE
1000
AcRTDxfName
1000
VISUALSTYLE
1000
AcRTDxfName
1000
VISUALSTYLE
1000
AcRTDxfName
1000
VISUALSTYLE
1000
AcRTDxfName
1000
VISUALSTYLE
1000
AcRTDxfName
1000
VISUALSTYLE
1000
AcRTDxfName
1000
VISUALSTYLE
1000
AcRTDxfName
1000
VISUALSTYLE
1000
AcRTDxfName
1000
VISUALSTYLE
1000
AcRTDxfName
1000
VISUALSTYLE
1000
AcRTDxfName
1000
VISUALSTYLE
1000
AcRTDxfName
1000
VISUALSTYLE
1000
AcRTDxfName
1000
VISUALSTYLE
1000
AcRTDxfName
1000
VISUALSTYLE
1000
AcRTDxfName
1000
VISUALSTYLE
1000
AcRTDxfName
1000
VISUALSTYLE
1000
AcRTDxfName
1000
VISUALSTYLE
1000
AcRTDxfName
1000
VISUALSTYLE
1000
AcRTDxfName
1000
VISUALSTYLE
1000
AcRTDxfName
1000
VISUALSTYLE
1000
AcRTDxfName
1000
VISUALSTYLE
1000
AcRTDxfName
1000
VISUALSTYLE
1000
AcRTDxfName
1000
VISUALSTYLE
1000
AcRTDxfName
1000
VISUALSTYLE
1000
AcRTDxfName
1000
VISUALSTYLE
1000
AcRTDxfName
1000
VISUALSTYLE
1000
AcRTDxfName
1000
VISUALSTYLE
1000
AcRTDxfName
1000
VISUALSTYLE
1000
AcRTDxfName
1000
VISUALSTYLE
1000
AcRTDxfName
1000
VISUALSTYLE
1000
AcRTDxfName
1000
VISUALSTYLE
1000
AcRTDxfName
1000
VISUALSTYLE
1000
AcRTDxfName
1000
VISUALSTYLE
1000
AcRTDxfName
1000
VISUALSTYLE
1000
AcRTDxfName
1000
VISUALSTYLE
1000
AcRTDxfName
1000
VISUALSTYLE
1000
AcRTDxfName
1000
VISUALSTYLE
1000
AcRTDxfName
1000
VISUALSTYLE
1000
AcRTDxfName
1000
VISUALSTYLE
1000
AcRTDxfName
1000
VISUALSTYLE
1000
AcRTDxfName
1000
VISUALSTYLE
1000
AcRTDxfName
1000
VISUALSTYLE
1000
AcRTDxfName
1000
VISUALSTYLE
1000
AcRTDxfName
1000
VISUALSTYLE
1000
AcRTDxfName
1000
VISUALSTYLE
1000
AcRTDxfName
1000
VISUALSTYLE
1000
AcRTDxfName
1000
VISUALSTYLE
1000
AcRTDxfName
1000
VISUALSTYLE
1000
AcRTDxfName
1000
VISUALSTYLE
1000
AcRTDxfName
1000
VISUALSTYLE
1000
AcRTDxfName
1000
VISUALSTYLE
1000
AcRTDxfName
1000
VISUALSTYLE
1000
AcRTDxfName
1000
VISUALSTYLE
1000
AcRTDxfName
1000
VISUALSTYLE
1000
AcRTDxfName
1000
VISUALSTYLE
1000
AcRTDxfName
1000
VISUALSTYLE
1000
AcRTDxfName
1000
VISUALSTYLE
1000
AcRTDxfName
1000
VISUALSTYLE
1000
AcRTDxfName
1000
VISUALSTYLE
1000
AcRTDxfName
1000
VISUALSTYLE
1000
AcRTDxfName
1000
VISUALSTYLE
  0
VISUALSTYLE
  5
4C
102
{ACAD_REACTORS
330
25
102
}
330
25
100
AcDbVisualStyle
  2
Realistic
 70
     8
177
     3
291
     0
 70
    58
 90
        2
176
     1
 90
        2
176
     1
 90
        0
176
     1
 90
        0
176
     1
 40
0.6
176
     1
 40
30.0
176
     1
 62
     7
176
     1
 90
        1
176
     1
 90
        0
176
     1
 62
     7
176
     1
 62
   257
176
     1
 90
        1
176
     1
 90
        1
176
     1
 40
1.0
176
     1
 90
        8
176
     1
 62
     8
176
     1
 40
1.0
176
     1
 90
        1
176
     1
 90
        6
176
     1
 90
        2
176
     1
 62
     7
176
     1
 90
        5
176
     1
 90
        0
176
     1
 90
        0
176
     1
290
     0
176
     1
 90
       13
176
     1
 40
0.0
176
     1
 90
        0
176
     1
290
     0
176
     1
290
     1
176
     1
290
     1
176
     1
290
     0
176
     1
290
     0
176
     1
290
     0
176
     1
290
     0
176
     1
290
     0
176
     1
290
     0
176
     1
 90
       50
176
     1
 40
0.0
176
     1
 40
1.0
176
     1
 90
        0
176
     1
 62
    18
420
        0
176
     1
 90
       50
176
     1
 90
        3
176
     1
 62
     5
420
      255
176
     1
290
     0
176
     1
 90
       50
176
     1
 90
       50
176
     1
 90
       50
176
     1
290
     0
176
     1
 90
       50
176
     1
 62
   256
176
     0
 40
1.0
176
     0
 90
        2
176
     1
  1
strokes_ogs.tif
176
     1
290
     0
176
     1
 40
1.0
176
     1
 40
1.0
176
     1
1001
ACAD
1000
AcRTDxfName
1000
VISUALSTYLE
1000
AcRTDxfName
1000
VISUALSTYLE
1000
AcRTDxfName
1000
VISUALSTYLE
1000
AcRTDxfName
1000
VISUALSTYLE
1000
AcRTDxfName
1000
VISUALSTYLE
1000
AcRTDxfName
1000
VISUALSTYLE
1000
AcRTDxfName
1000
VISUALSTYLE
1000
AcRTDxfName
1000
VISUALSTYLE
1000
AcRTDxfName
1000
VISUALSTYLE
1000
AcRTDxfName
1000
VISUALSTYLE
1000
AcRTDxfName
1000
VISUALSTYLE
1000
AcRTDxfName
1000
VISUALSTYLE
1000
AcRTDxfName
1000
VISUALSTYLE
1000
AcRTDxfName
1000
VISUALSTYLE
1000
AcRTDxfName
1000
VISUALSTYLE
1000
AcRTDxfName
1000
VISUALSTYLE
1000
AcRTDxfName
1000
VISUALSTYLE
1000
AcRTDxfName
1000
VISUALSTYLE
1000
AcRTDxfName
1000
VISUALSTYLE
1000
AcRTDxfName
1000
VISUALSTYLE
1000
AcRTDxfName
1000
VISUALSTYLE
1000
AcRTDxfName
1000
VISUALSTYLE
1000
AcRTDxfName
1000
VISUALSTYLE
1000
AcRTDxfName
1000
VISUALSTYLE
1000
AcRTDxfName
1000
VISUALSTYLE
1000
AcRTDxfName
1000
VISUALSTYLE
1000
AcRTDxfName
1000
VISUALSTYLE
1000
AcRTDxfName
1000
VISUALSTYLE
1000
AcRTDxfName
1000
VISUALSTYLE
1000
AcRTDxfName
1000
VISUALSTYLE
1000
AcRTDxfName
1000
VISUALSTYLE
1000
AcRTDxfName
1000
VISUALSTYLE
1000
AcRTDxfName
1000
VISUALSTYLE
1000
AcRTDxfName
1000
VISUALSTYLE
1000
AcRTDxfName
1000
VISUALSTYLE
1000
AcRTDxfName
1000
VISUALSTYLE
1000
AcRTDxfName
1000
VISUALSTYLE
1000
AcRTDxfName
1000
VISUALSTYLE
1000
AcRTDxfName
1000
VISUALSTYLE
1000
AcRTDxfName
1000
VISUALSTYLE
1000
AcRTDxfName
1000
VISUALSTYLE
1000
AcRTDxfName
1000
VISUALSTYLE
1000
AcRTDxfName
1000
VISUALSTYLE
1000
AcRTDxfName
1000
VISUALSTYLE
1000
AcRTDxfName
1000
VISUALSTYLE
1000
AcRTDxfName
1000
VISUALSTYLE
1000
AcRTDxfName
1000
VISUALSTYLE
1000
AcRTDxfName
1000
VISUALSTYLE
1000
AcRTDxfName
1000
VISUALSTYLE
1000
AcRTDxfName
1000
VISUALSTYLE
1000
AcRTDxfName
1000
VISUALSTYLE
1000
AcRTDxfName
1000
VISUALSTYLE
1000
AcRTDxfName
1000
VISUALSTYLE
1000
AcRTDxfName
1000
VISUALSTYLE
1000
AcRTDxfName
1000
VISUALSTYLE
1000
AcRTDxfName
1000
VISUALSTYLE
1000
AcRTDxfName
1000
VISUALSTYLE
1000
AcRTDxfName
1000
VISUALSTYLE
1000
AcRTDxfName
1000
VISUALSTYLE
1000
AcRTDxfName
1000
VISUALSTYLE
1000
AcRTDxfName
1000
VISUALSTYLE
1000
AcRTDxfName
1000
VISUALSTYLE
  0
VISUALSTYLE
  5
4D
102
{ACAD_REACTORS
330
25
102
}
330
25
100
AcDbVisualStyle
  2
Wireframe
 70
     5
177
     3
291
     0
 70
    58
 90
        0
176
     1
 90
        2
176
     1
 90
        0
176
     1
 90
        0
176
     1
 40
0.6
176
     1
 40
30.0
176
     1
 62
     7
176
     1
 90
        1
176
     1
 90
        4
176
     1
 62
     7
176
     1
 62
   257
176
     1
 90
        1
176
     1
 90
        1
176
     1
 40
1.0
176
     1
 90
        0
176
     1
 62
   257
176
     1
 40
1.0
176
     1
 90
        1
176
     1
 90
        6
176
     1
 90
        2
176
     1
 62
     7
176
     1
 90
        3
176
     1
 90
        0
176
     1
 90
        0
176
     1
290
     0
176
     1
 90
        1
176
     1
 40
0.0
176
     1
 90
        0
176
     1
290
     0
176
     1
290
     1
176
     1
290
     1
176
     1
290
     0
176
     1
290
     0
176
     1
290
     0
176
     1
290
     0
176
     1
290
     0
176
     1
290
     0
176
     1
 90
       50
176
     1
 40
0.0
176
     1
 40
1.0
176
     1
 90
        0
176
     1
 62
    18
420
        0
176
     1
 90
       50
176
     1
 90
        3
176
     1
 62
     5
420
      255
176
     1
290
     0
176
     1
 90
       50
176
     1
 90
       50
176
     1
 90
       50
176
     1
290
     0
176
     1
 90
       50
176
     1
 62
   256
176
     0
 40
1.0
176
     0
 90
        2
176
     1
  1
strokes_ogs.tif
176
     1
290
     0
176
     1
 40
1.0
176
     1
 40
1.0
176
     1
  0
DICTIONARYVAR
  5
3A
102
{ACAD_REACTORS
330
39
102
}
330
39
100
DictionaryVariables
280
     0
  1
1:1
  0
DICTIONARYVAR
  5
3B
102
{ACAD_REACTORS
330
39
102
}
330
39
100
DictionaryVariables
280
     0
  1
STANDARD
  0
DICTIONARYVAR
  5
3C
102
{ACAD_REACTORS
330
39
102
}
330
39
100
DictionaryVariables
280
     0
  1
STANDARD
  0
DICTIONARYVAR
  5
3D
102
{ACAD_REACTORS
330
39
102
}
330
39
100
DictionaryVariables
280
     0
  1

  0
DICTIONARYVAR
  5
3E
102
{ACAD_REACTORS
330
39
102
}
330
39
100
DictionaryVariables
280
     0
  1

  0
DICTIONARYVAR
  5
3F
102
{ACAD_REACTORS
330
39
102
}
330
39
100
DictionaryVariables
280
     0
  1
1
  0
DICTIONARYVAR
  5
40
102
{ACAD_REACTORS
330
39
102
}
330
39
100
DictionaryVariables
280
     0
  1
0
  0
DICTIONARYVAR
  5
41
102
{ACAD_REACTORS
330
39
102
}
330
39
100
DictionaryVariables
280
     0
  1
1
  0
DICTIONARYVAR
  5
42
102
{ACAD_REACTORS
330
39
102
}
330
39
100
DictionaryVariables
280
     0
  1
15
  0
DICTIONARYVAR
  5
43
102
{ACAD_REACTORS
330
39
102
}
330
39
100
DictionaryVariables
280
     0
  1
0
  0
DICTIONARYVAR
  5
44
102
{ACAD_REACTORS
330
39
102
}
330
39
100
DictionaryVariables
280
     0
  1
0
  0
DICTIONARYVAR
  5
45
102
{ACAD_REACTORS
330
39
102
}
330
39
100
DictionaryVariables
280
     0
  1
2
  0
DICTIONARYVAR
  5
46
102
{ACAD_REACTORS
330
39
102
}
330
39
100
DictionaryVariables
280
     0
  1

  0
DICTIONARYVAR
  5
47
102
{ACAD_REACTORS
330
39
102
}
330
39
100
DictionaryVariables
280
     0
  1
127
  0
DICTIONARY
  5
4B
330
4A
100
AcDbDictionary
280
     1
281
     1
  3
ACAD_ROUNDTRIP_2008_TABLESTYLE_CELLSTYLEMAP
360
150
  0
CELLSTYLEMAP
  5
150
102
{ACAD_REACTORS
330
4B
102
}
330
4B
100
AcDbCellStyleMap
 90
        3
300
CELLSTYLE
  1
TABLEFORMAT_BEGIN
 90
        5
170
     1
 91
        0
 92
    32768
 62
   257
 93
        1
300
CONTENTFORMAT
  1
CONTENTFORMAT_BEGIN
 90
        0
 91
        0
 92
        4
 93
        0
300

 40
0.0
140
1.0
 94
        5
 62
     0
340
1B
144
0.25
309
CONTENTFORMAT_END
171
     1
301
MARGIN
  1
CELLMARGIN_BEGIN
 40
0.06
 40
0.06
 40
0.06
 40
0.06
 40
0.18
 40
0.18
309
CELLMARGIN_END
 94
        6
 95
        1
302
GRIDFORMAT
  1
GRIDFORMAT_BEGIN
 90
        0
 91
        1
 62
     0
 92
       -2
340
0
 93
        0
 40
0.045
309
GRIDFORMAT_END
 95
        2
302
GRIDFORMAT
  1
GRIDFORMAT_BEGIN
 90
        0
 91
        1
 62
     0
 92
       -2
340
0
 93
        0
 40
0.045
309
GRIDFORMAT_END
 95
        4
302
GRIDFORMAT
  1
GRIDFORMAT_BEGIN
 90
        0
 91
        1
 62
     0
 92
       -2
340
0
 93
        0
 40
0.045
309
GRIDFORMAT_END
 95
        8
302
GRIDFORMAT
  1
GRIDFORMAT_BEGIN
 90
        0
 91
        1
 62
     0
 92
       -2
340
0
 93
        0
 40
0.045
309
GRIDFORMAT_END
 95
       16
302
GRIDFORMAT
  1
GRIDFORMAT_BEGIN
 90
        0
 91
        1
 62
     0
 92
       -2
340
0
 93
        0
 40
0.045
309
GRIDFORMAT_END
 95
       32
302
GRIDFORMAT
  1
GRIDFORMAT_BEGIN
 90
        0
 91
        1
 62
     0
 92
       -2
340
0
 93
        0
 40
0.045
309
GRIDFORMAT_END
309
TABLEFORMAT_END
  1
CELLSTYLE_BEGIN
 90
        1
 91
        1
300
_TITLE
309
CELLSTYLE_END
300
CELLSTYLE
  1
TABLEFORMAT_BEGIN
 90
        5
170
     1
 91
        0
 92
        0
 62
   257
 93
        1
300
CONTENTFORMAT
  1
CONTENTFORMAT_BEGIN
 90
        0
 91
        0
 92
        4
 93
        0
300

 40
0.0
140
1.0
 94
        5
 62
     0
340
1B
144
0.18
309
CONTENTFORMAT_END
171
     1
301
MARGIN
  1
CELLMARGIN_BEGIN
 40
0.06
 40
0.06
 40
0.06
 40
0.06
 40
0.18
 40
0.18
309
CELLMARGIN_END
 94
        6
 95
        1
302
GRIDFORMAT
  1
GRIDFORMAT_BEGIN
 90
        0
 91
        1
 62
     0
 92
       -2
340
0
 93
        0
 40
0.045
309
GRIDFORMAT_END
 95
        2
302
GRIDFORMAT
  1
GRIDFORMAT_BEGIN
 90
        0
 91
        1
 62
     0
 92
       -2
340
0
 93
        0
 40
0.045
309
GRIDFORMAT_END
 95
        4
302
GRIDFORMAT
  1
GRIDFORMAT_BEGIN
 90
        0
 91
        1
 62
     0
 92
       -2
340
0
 93
        0
 40
0.045
309
GRIDFORMAT_END
 95
        8
302
GRIDFORMAT
  1
GRIDFORMAT_BEGIN
 90
        0
 91
        1
 62
     0
 92
       -2
340
0
 93
        0
 40
0.045
309
GRIDFORMAT_END
 95
       16
302
GRIDFORMAT
  1
GRIDFORMAT_BEGIN
 90
        0
 91
        1
 62
     0
 92
       -2
340
0
 93
        0
 40
0.045
309
GRIDFORMAT_END
 95
       32
302
GRIDFORMAT
  1
GRIDFORMAT_BEGIN
 90
        0
 91
        1
 62
     0
 92
       -2
340
0
 93
        0
 40
0.045
309
GRIDFORMAT_END
309
TABLEFORMAT_END
  1
CELLSTYLE_BEGIN
 90
        2
 91
        1
300
_HEADER
309
CELLSTYLE_END
300
CELLSTYLE
  1
TABLEFORMAT_BEGIN
 90
        5
170
     1
 91
        0
 92
        0
 62
   257
 93
        1
300
CONTENTFORMAT
  1
CONTENTFORMAT_BEGIN
 90
        0
 91
        0
 92
        4
 93
        0
300

 40
0.0
140
1.0
 94
        2
 62
     0
340
1B
144
0.18
309
CONTENTFORMAT_END
171
     1
301
MARGIN
  1
CELLMARGIN_BEGIN
 40
0.06
 40
0.06
 40
0.06
 40
0.06
 40
0.18
 40
0.18
309
CELLMARGIN_END
 94
        6
 95
        1
302
GRIDFORMAT
  1
GRIDFORMAT_BEGIN
 90
        0
 91
        1
 62
     0
 92
       -2
340
0
 93
        0
 40
0.045
309
GRIDFORMAT_END
 95
        2
302
GRIDFORMAT
  1
GRIDFORMAT_BEGIN
 90
        0
 91
        1
 62
     0
 92
       -2
340
0
 93
        0
 40
0.045
309
GRIDFORMAT_END
 95
        4
302
GRIDFORMAT
  1
GRIDFORMAT_BEGIN
 90
        0
 91
        1
 62
     0
 92
       -2
340
0
 93
        0
 40
0.045
309
GRIDFORMAT_END
 95
        8
302
GRIDFORMAT
  1
GRIDFORMAT_BEGIN
 90
        0
 91
        1
 62
     0
 92
       -2
340
0
 93
        0
 40
0.045
309
GRIDFORMAT_END
 95
       16
302
GRIDFORMAT
  1
GRIDFORMAT_BEGIN
 90
        0
 91
        1
 62
     0
 92
       -2
340
0
 93
        0
 40
0.045
309
GRIDFORMAT_END
 95
       32
302
GRIDFORMAT
  1
GRIDFORMAT_BEGIN
 90
        0
 91
        1
 62
     0
 92
       -2
340
0
 93
        0
 40
0.045
309
GRIDFORMAT_END
309
TABLEFORMAT_END
  1
CELLSTYLE_BEGIN
 90
        3
 91
        2
300
_DATA
309
CELLSTYLE_END
  0
ENDSEC
  0
EOF
