  0
SECTION
  2
HEADER
  9
$ACADVER
  1
AC1032
  9
$ACADMAINTVER
 90
      248
  9
$DWGCODEPAGE
  3
ANSI_936
  9
$REQUIREDVERSIONS
160
                 0
  9
$INSBASE
 10
0.0
 20
0.0
 30
0.0
  9
$EXTMIN
 10
5.0
 20
8.999999999999943
 30
0.0
  9
$EXTMAX
 10
1637.0
 20
392.0000000000002
 30
0.0
  9
$LIMMIN
 10
0.0
 20
0.0
  9
$LIMMAX
 10
0.0
 20
0.0
  9
$ORTHOMODE
 70
     0
  9
$REGENMODE
 70
     1
  9
$FILLMODE
 70
     1
  9
$QTEXTMODE
 70
     0
  9
$MIRRTEXT
 70
     0
  9
$LTSCALE
 40
8.0
  9
$ATTMODE
 70
     1
  9
$TEXTSIZE
 40
2.5
  9
$TRACEWID
 40
0.05
  9
$TEXTSTYLE
  7
SIMPLEX
  9
$CLAYER
  8
0
  9
$CELTYPE
  6
ByLayer
  9
$CECOLOR
 62
   256
  9
$CELTSCALE
 40
1.0
  9
$DISPSILH
 70
     0
  9
$DIMSCALE
 40
1.0
  9
$DIMASZ
 40
2.5
  9
$DIMEXO
 40
1.0
  9
$DIMDLI
 40
7.5
  9
$DIMRND
 40
0.0
  9
$DIMDLE
 40
1.25
  9
$DIMEXE
 40
1.25
  9
$DIMTP
 40
0.0
  9
$DIMTM
 40
0.0
  9
$DIMTXT
 40
3.0
  9
$DIMCEN
 40
1.25
  9
$DIMTSZ
 40
0.0
  9
$DIMTOL
 70
     0
  9
$DIMLIM
 70
     0
  9
$DIMTIH
 70
     0
  9
$DIMTOH
 70
     0
  9
$DIMSE1
 70
     0
  9
$DIMSE2
 70
     0
  9
$DIMTAD
 70
     1
  9
$DIMZIN
 70
     8
  9
$DIMBLK
  1

  9
$DIMASO
 70
     1
  9
$DIMSHO
 70
     1
  9
$DIMPOST
  1

  9
$DIMAPOST
  1

  9
$DIMALT
 70
     0
  9
$DIMALTD
 70
     2
  9
$DIMALTF
 40
25.4
  9
$DIMLFAC
 40
1.0
  9
$DIMTOFL
 70
     0
  9
$DIMTVP
 40
2.0
  9
$DIMTIX
 70
     0
  9
$DIMSOXD
 70
     0
  9
$DIMSAH
 70
     0
  9
$DIMBLK1
  1

  9
$DIMBLK2
  1

  9
$DIMSTYLE
  2
Standard
  9
$DIMCLRD
 70
     0
  9
$DIMCLRE
 70
     0
  9
$DIMCLRT
 70
     0
  9
$DIMTFAC
 40
1.0
  9
$DIMGAP
 40
1.25
  9
$DIMJUST
 70
     0
  9
$DIMSD1
 70
     0
  9
$DIMSD2
 70
     0
  9
$DIMTOLJ
 70
     1
  9
$DIMTZIN
 70
     0
  9
$DIMALTZ
 70
     0
  9
$DIMALTTZ
 70
     0
  9
$DIMUPT
 70
     0
  9
$DIMDEC
 70
     3
  9
$DIMTDEC
 70
     4
  9
$DIMALTU
 70
     2
  9
$DIMALTTD
 70
     2
  9
$DIMTXSTY
  7
SIMPLEX
  9
$DIMAUNIT
 70
     0
  9
$DIMADEC
 70
     0
  9
$DIMALTRND
 40
0.0
  9
$DIMAZIN
 70
     0
  9
$DIMDSEP
 70
    46
  9
$DIMATFIT
 70
     3
  9
$DIMFRAC
 70
     0
  9
$DIMLDRBLK
  1

  9
$DIMLUNIT
 70
     2
  9
$DIMLWD
 70
    -2
  9
$DIMLWE
 70
    -2
  9
$DIMTMOVE
 70
     0
  9
$DIMFXL
 40
1.0
  9
$DIMFXLON
 70
     0
  9
$DIMJOGANG
 40
0.7853981633974483
  9
$DIMTFILL
 70
     0
  9
$DIMTFILLCLR
 70
     0
  9
$DIMARCSYM
 70
     0
  9
$DIMLTYPE
  6

  9
$DIMLTEX1
  6

  9
$DIMLTEX2
  6

  9
$DIMTXTDIRECTION
 70
     0
  9
$LUNITS
 70
     2
  9
$LUPREC
 70
     4
  9
$SKETCHINC
 40
0.1
  9
$FILLETRAD
 40
0.0
  9
$AUNITS
 70
     0
  9
$AUPREC
 70
     0
  9
$MENU
  1
.
  9
$ELEVATION
 40
0.0
  9
$PELEVATION
 40
0.0
  9
$THICKNESS
 40
0.0
  9
$LIMCHECK
 70
     0
  9
$CHAMFERA
 40
0.0
  9
$CHAMFERB
 40
0.0
  9
$CHAMFERC
 40
0.0
  9
$CHAMFERD
 40
0.0
  9
$SKPOLY
 70
     0
  9
$TDCREATE
 40
2453354.050451389
  9
$TDUCREATE
 40
2453353.717125822
  9
$TDUPDATE
 40
2460607.479513889
  9
$TDUUPDATE
 40
2460607.146180556
  9
$TDINDWG
 40
16384.3212882755
  9
$TDUSRTIMER
 40
16384.3211492477
  9
$USRTIMER
 70
     1
  9
$ANGBASE
 50
0.0
  9
$ANGDIR
 70
     0
  9
$PDMODE
 70
     0
  9
$PDSIZE
 40
0.0
  9
$PLINEWID
 40
0.0
  9
$SPLFRAME
 70
     0
  9
$SPLINETYPE
 70
     6
  9
$SPLINESEGS
 70
     8
  9
$HANDSEED
  5
1AA
  9
$SURFTAB1
 70
     6
  9
$SURFTAB2
 70
     6
  9
$SURFTYPE
 70
     6
  9
$SURFU
 70
     6
  9
$SURFV
 70
     6
  9
$UCSBASE
  2

  9
$UCSNAME
  2

  9
$UCSORG
 10
0.0
 20
0.0
 30
0.0
  9
$UCSXDIR
 10
1.0
 20
0.0
 30
0.0
  9
$UCSYDIR
 10
0.0
 20
1.0
 30
0.0
  9
$UCSORTHOREF
  2

  9
$UCSORTHOVIEW
 70
     0
  9
$UCSORGTOP
 10
0.0
 20
0.0
 30
0.0
  9
$UCSORGBOTTOM
 10
0.0
 20
0.0
 30
0.0
  9
$UCSORGLEFT
 10
0.0
 20
0.0
 30
0.0
  9
$UCSORGRIGHT
 10
0.0
 20
0.0
 30
0.0
  9
$UCSORGFRONT
 10
0.0
 20
0.0
 30
0.0
  9
$UCSORGBACK
 10
0.0
 20
0.0
 30
0.0
  9
$PUCSBASE
  2

  9
$PUCSNAME
  2

  9
$PUCSORG
 10
0.0
 20
0.0
 30
0.0
  9
$PUCSXDIR
 10
1.0
 20
0.0
 30
0.0
  9
$PUCSYDIR
 10
0.0
 20
1.0
 30
0.0
  9
$PUCSORTHOREF
  2

  9
$PUCSORTHOVIEW
 70
     0
  9
$PUCSORGTOP
 10
0.0
 20
0.0
 30
0.0
  9
$PUCSORGBOTTOM
 10
0.0
 20
0.0
 30
0.0
  9
$PUCSORGLEFT
 10
0.0
 20
0.0
 30
0.0
  9
$PUCSORGRIGHT
 10
0.0
 20
0.0
 30
0.0
  9
$PUCSORGFRONT
 10
0.0
 20
0.0
 30
0.0
  9
$PUCSORGBACK
 10
0.0
 20
0.0
 30
0.0
  9
$USERI1
 70
     0
  9
$USERI2
 70
     0
  9
$USERI3
 70
     0
  9
$USERI4
 70
     0
  9
$USERI5
 70
 32767
  9
$USERR1
 40
0.0
  9
$USERR2
 40
0.0
  9
$USERR3
 40
0.0
  9
$USERR4
 40
0.0
  9
$USERR5
 40
0.0
  9
$WORLDVIEW
 70
     1
  9
$SHADEDGE
 70
     3
  9
$SHADEDIF
 70
    70
  9
$TILEMODE
 70
     1
  9
$MAXACTVP
 70
    16
  9
$PINSBASE
 10
0.0
 20
0.0
 30
0.0
  9
$PLIMCHECK
 70
     0
  9
$PEXTMIN
 10
0.0
 20
0.0
 30
0.0
  9
$PEXTMAX
 10
0.0
 20
0.0
 30
0.0
  9
$PLIMMIN
 10
0.0
 20
0.0
  9
$PLIMMAX
 10
0.0
 20
0.0
  9
$UNITMODE
 70
     0
  9
$VISRETAIN
 70
     0
  9
$PLINEGEN
 70
     0
  9
$PSLTSCALE
 70
     0
  9
$TREEDEPTH
 70
  3020
  9
$CMLSTYLE
  2
Standard
  9
$CMLJUST
 70
     0
  9
$CMLSCALE
 40
1.0
  9
$PROXYGRAPHICS
 70
     1
  9
$MEASUREMENT
 70
     0
  9
$CELWEIGHT
370
    -1
  9
$ENDCAPS
280
     0
  9
$JOINSTYLE
280
     0
  9
$LWDISPLAY
290
     0
  9
$INSUNITS
 70
     0
  9
$HYPERLINKBASE
  1

  9
$STYLESHEET
  1

  9
$XEDIT
290
     1
  9
$CEPSNTYPE
380
     0
  9
$PSTYLEMODE
290
     1
  9
$FINGERPRINTGUID
  2
{3399BD99-197A-8F45-9F66-4BF07D4DFE44}
  9
$VERSIONGUID
  2
{2BF848B3-C8EC-446C-9AF0-C3E910DF207B}
  9
$EXTNAMES
290
     1
  9
$PSVPSCALE
 40
0.0
  9
$OLESTARTUP
290
     0
  9
$SORTENTS
280
   127
  9
$INDEXCTL
280
     0
  9
$HIDETEXT
280
     1
  9
$XCLIPFRAME
280
     2
  9
$HALOGAP
280
     0
  9
$OBSCOLOR
 70
   257
  9
$OBSLTYPE
280
     0
  9
$INTERSECTIONDISPLAY
280
     0
  9
$INTERSECTIONCOLOR
 70
   257
  9
$DIMASSOC
280
     0
  9
$PROJECTNAME
  1

  9
$CAMERADISPLAY
290
     0
  9
$LENSLENGTH
 40
50.0
  9
$CAMERAHEIGHT
 40
0.0
  9
$STEPSPERSEC
 40
2.0
  9
$STEPSIZE
 40
6.0
  9
$3DDWFPREC
 40
2.0
  9
$PSOLWIDTH
 40
0.25
  9
$PSOLHEIGHT
 40
4.0
  9
$LOFTANG1
 40
1.570796326794896
  9
$LOFTANG2
 40
1.570796326794896
  9
$LOFTMAG1
 40
0.0
  9
$LOFTMAG2
 40
0.0
  9
$LOFTPARAM
 70
     7
  9
$LOFTNORMALS
280
     1
  9
$LATITUDE
 40
37.795
  9
$LONGITUDE
 40
-122.394
  9
$NORTHDIRECTION
 40
0.0
  9
$TIMEZONE
 70
 -8000
  9
$LIGHTGLYPHDISPLAY
280
     1
  9
$TILEMODELIGHTSYNCH
280
     1
  9
$CMATERIAL
347
34
  9
$SOLIDHIST
280
     0
  9
$SHOWHIST
280
     1
  9
$DWFFRAME
280
     2
  9
$DGNFRAME
280
     0
  9
$REALWORLDSCALE
290
     1
  9
$INTERFERECOLOR
 62
     1
  9
$INTERFEREOBJVS
345
59
  9
$INTERFEREVPVS
346
5A
  9
$CSHADOW
280
     0
  9
$SHADOWPLANELOCATION
 40
0.0
  0
ENDSEC
  0
SECTION
  2
CLASSES
  0
CLASS
  1
ACDBDICTIONARYWDFLT
  2
AcDbDictionaryWithDefault
  3
ObjectDBX Classes
 90
        0
 91
        1
280
     0
281
     0
  0
CLASS
  1
DICTIONARYVAR
  2
AcDbDictionaryVar
  3
ObjectDBX Classes
 90
        0
 91
       12
280
     0
281
     0
  0
CLASS
  1
TABLESTYLE
  2
AcDbTableStyle
  3
ObjectDBX Classes
 90
     4095
 91
        1
280
     0
281
     0
  0
CLASS
  1
SORTENTSTABLE
  2
AcDbSortentsTable
  3
ObjectDBX Classes
 90
        0
 91
        2
280
     0
281
     0
  0
CLASS
  1
MATERIAL
  2
AcDbMaterial
  3
ObjectDBX Classes
 90
     1153
 91
        3
280
     0
281
     0
  0
CLASS
  1
VISUALSTYLE
  2
AcDbVisualStyle
  3
ObjectDBX Classes
 90
     4095
 91
        4
280
     0
281
     0
  0
CLASS
  1
SCALE
  2
AcDbScale
  3
ObjectDBX Classes
 90
     1153
 91
       17
280
     0
281
     0
  0
CLASS
  1
MLEADERSTYLE
  2
AcDbMLeaderStyle
  3
ACDB_MLEADERSTYLE_CLASS
 90
     4095
 91
        0
280
     0
281
     0
  0
CLASS
  1
ACDBSECTIONVIEWSTYLE
  2
AcDbSectionViewStyle
  3
ObjectDBX Classes
 90
     1025
 91
        0
280
     0
281
     0
  0
CLASS
  1
ACDBDETAILVIEWSTYLE
  2
AcDbDetailViewStyle
  3
ObjectDBX Classes
 90
     1025
 91
        0
280
     0
281
     0
  0
CLASS
  1
CELLSTYLEMAP
  2
AcDbCellStyleMap
  3
ObjectDBX Classes
 90
     1152
 91
        1
280
     0
281
     0
  0
CLASS
  1
SOLID_BACKGROUND
  2
AcDbSolidBackground
  3
SCENEOE
 90
     4095
 91
        0
280
     0
281
     0
  0
CLASS
  1
NPOCOLLECTION
  2
AcDbImpNonPersistentObjectsCollection
  3
ObjectDBX Classes
 90
     1153
 91
        0
280
     0
281
     0
  0
ENDSEC
  0
SECTION
  2
TABLES
  0
TABLE
  2
VPORT
  5
28
330
0
100
AcDbSymbolTable
 70
     1
  0
VPORT
  5
29
330
28
100
AcDbSymbolTableRecord
100
AcDbViewportTableRecord
  2
*Active
 70
     0
 10
0.0
 20
0.0
 11
1.0
 21
1.0
 12
428.9904077788284
 22
217.883108939465
 13
0.0
 23
0.0
 14
0.1
 24
0.1
 15
0.5
 25
0.5
 16
0.0
 26
0.0
 36
1.0
 17
0.0
 27
0.0
 37
0.0
 40
472.6429172258709
 41
2.570850202429149
 42
50.0
 43
0.0
 44
0.0
 50
0.0
 51
0.0
 71
    16
 72
   500
 73
     1
 74
     1
 75
     0
 76
     0
 77
     0
 78
     0
281
     0
 65
     1
110
0.0
120
0.0
130
0.0
111
1.0
121
0.0
131
0.0
112
0.0
122
1.0
132
0.0
 79
     0
146
0.0
348
2A
 60
     3
 61
     5
292
     1
282
     1
141
0.0
142
0.0
 63
   250
421
  3355443
1001
ACAD_NAV_VCDISPLAY
1070
     3
  0
ENDTAB
  0
TABLE
  2
LTYPE
  5
23
330
0
100
AcDbSymbolTable
 70
     3
  0
LTYPE
  5
24
330
23
100
AcDbSymbolTableRecord
100
AcDbLinetypeTableRecord
  2
ByBlock
 70
     0
  3

 72
    65
 73
     0
 40
0.0
  0
LTYPE
  5
25
330
23
100
AcDbSymbolTableRecord
100
AcDbLinetypeTableRecord
  2
ByLayer
 70
     0
  3

 72
    65
 73
     0
 40
0.0
  0
LTYPE
  5
17
330
23
100
AcDbSymbolTableRecord
100
AcDbLinetypeTableRecord
  2
Continuous
 70
     0
  3
Solid line
 72
    65
 73
     0
 40
0.0
  0
LTYPE
  5
71
330
23
100
AcDbSymbolTableRecord
100
AcDbLinetypeTableRecord
  2
CENTER
 70
     0
  3
____ _ ____ _ ____ _ ____ _ ____ _ ____ _ ____
 72
    65
 73
     4
 40
2.0
 49
1.25
 74
     4
 75
     0
340
0
 46
1.0
 50
0.0
 44
0.0
 45
0.0
 49
-0.25
 74
     4
 75
     0
340
0
 46
1.0
 50
0.0
 44
0.0
 45
0.0
 49
0.25
 74
     4
 75
     0
340
0
 46
1.0
 50
0.0
 44
0.0
 45
0.0
 49
-0.25
 74
     4
 75
     0
340
0
 46
1.0
 50
0.0
 44
0.0
 45
0.0
  0
LTYPE
  5
105
330
23
100
AcDbSymbolTableRecord
100
AcDbLinetypeTableRecord
  2
HIDDEN
 70
     0
  3
_ _ _ _ _ _ _ _ _ _ _ _ _ _ _ _ _ _ _ _ _ _ _
 72
    65
 73
     2
 40
0.375
 49
0.25
 74
     4
 75
     0
340
0
 46
1.0
 50
0.0
 44
0.0
 45
0.0
 49
-0.125
 74
     4
 75
     0
340
0
 46
1.0
 50
0.0
 44
0.0
 45
0.0
  0
ENDTAB
  0
TABLE
  2
LAYER
  5
1F
330
0
100
AcDbSymbolTable
 70
     6
  0
LAYER
  5
6
102
{ACAD_XDICTIONARY
360
7
102
}
330
1F
100
AcDbSymbolTableRecord
100
AcDbLayerTableRecord
  2
0
 70
     0
 62
     7
  6
Continuous
370
    -3
390
B
347
E
348
0
  0
LAYER
  5
74
330
1F
100
AcDbSymbolTableRecord
100
AcDbLayerTableRecord
  2
DIM
 70
     0
 62
     7
  6
Continuous
370
    -3
390
B
347
E
348
0
  0
LAYER
  5
6E
102
{ACAD_XDICTIONARY
360
6F
102
}
330
1F
100
AcDbSymbolTableRecord
100
AcDbLayerTableRecord
  2
CEN
 70
     0
 62
     2
  6
CENTER
370
    -3
390
B
347
E
348
0
  0
LAYER
  5
AA
102
{ACAD_XDICTIONARY
360
AB
102
}
330
1F
100
AcDbSymbolTableRecord
100
AcDbLayerTableRecord
  2
LF-LINE
 70
     0
 62
     1
  6
Continuous
370
    -3
390
B
347
E
348
0
  0
LAYER
  5
76
102
{ACAD_XDICTIONARY
360
77
102
}
330
1F
100
AcDbSymbolTableRecord
100
AcDbLayerTableRecord
  2
COIN-LINE
 70
     0
 62
     4
  6
Continuous
370
    -3
390
B
347
E
348
0
  0
LAYER
  5
102
102
{ACAD_XDICTIONARY
360
103
102
}
330
1F
100
AcDbSymbolTableRecord
100
AcDbLayerTableRecord
  2
PKG-OUT
 70
     0
 62
     3
  6
HIDDEN
370
    -3
390
B
347
E
348
0
  0
ENDTAB
  0
TABLE
  2
STYLE
  5
20
330
0
100
AcDbSymbolTable
 70
     2
  0
STYLE
  5
21
330
20
100
AcDbSymbolTableRecord
100
AcDbTextStyleTableRecord
  2
Standard
 70
     0
 40
3.0
 41
1.0
 50
0.0
 71
     0
 42
2.5
  3
SIMPLEX
  4

  0
STYLE
  5
55
330
20
100
AcDbSymbolTableRecord
100
AcDbTextStyleTableRecord
  2
SIMPLEX
 70
     0
 40
3.0
 41
1.0
 50
0.0
 71
     0
 42
2.5
  3
SIMPLEX.shx
  4

  0
ENDTAB
  0
TABLE
  2
VIEW
  5
26
330
0
100
AcDbSymbolTable
 70
     0
  0
ENDTAB
  0
TABLE
  2
UCS
  5
27
330
0
100
AcDbSymbolTable
 70
     0
  0
ENDTAB
  0
TABLE
  2
APPID
  5
2D
330
0
100
AcDbSymbolTable
 70
     2
  0
APPID
  5
2E
330
2D
100
AcDbSymbolTableRecord
100
AcDbRegAppTableRecord
  2
ACAD
 70
     0
  0
APPID
  5
2C
330
2D
100
AcDbSymbolTableRecord
100
AcDbRegAppTableRecord
  2
ACAD_NAV_VCDISPLAY
 70
     0
  0
ENDTAB
  0
TABLE
  2
DIMSTYLE
  5
2F
330
0
100
AcDbSymbolTable
 70
     1
100
AcDbDimStyleTable
 71
     0
  0
DIMSTYLE
105
5B
330
2F
100
AcDbSymbolTableRecord
100
AcDbDimStyleTableRecord
  2
Standard
 70
     0
340
21
  0
ENDTAB
  0
TABLE
  2
BLOCK_RECORD
  5
1
330
0
100
AcDbSymbolTable
 70
     0
  0
BLOCK_RECORD
  5
2
102
{ACAD_XDICTIONARY
360
3
102
}
330
1
100
AcDbSymbolTableRecord
100
AcDbBlockTableRecord
  2
*Model_Space
340
19
 70
     0
280
     1
281
     0
  0
BLOCK_RECORD
  5
1B
330
1
100
AcDbSymbolTableRecord
100
AcDbBlockTableRecord
  2
*Paper_Space
340
1E
 70
     0
280
     1
281
     0
  0
ENDTAB
  0
ENDSEC
  0
SECTION
  2
BLOCKS
  0
BLOCK
  5
5
330
2
100
AcDbEntity
  8
0
100
AcDbBlockBegin
  2
*Model_Space
 70
     0
 10
0.0
 20
0.0
 30
0.0
  3
*Model_Space
  1

  0
ENDBLK
  5
18
330
2
100
AcDbEntity
  8
0
100
AcDbBlockEnd
  0
BLOCK
  5
1C
330
1B
100
AcDbEntity
 67
     1
  8
0
100
AcDbBlockBegin
  2
*Paper_Space
 70
     0
 10
0.0
 20
0.0
 30
0.0
  3
*Paper_Space
  1

  0
ENDBLK
  5
1D
330
1B
100
AcDbEntity
 67
     1
  8
0
100
AcDbBlockEnd
  0
ENDSEC
  0
SECTION
  2
ENTITIES
  0
LINE
  5
6D
330
2
100
AcDbEntity
  8
CEN
100
AcDbLine
 10
653.9420677933801
 20
232.0671548414948
 30
0.0
 11
688.9504249957472
 21
232.0671548414948
 31
0.0
  0
LINE
  5
72
330
2
100
AcDbEntity
  8
CEN
100
AcDbLine
 10
671.4462463945635
 20
249.5713334426783
 30
0.0
 11
671.4462463945635
 21
214.5629762403113
 31
0.0
  0
LINE
  5
73
330
2
100
AcDbEntity
  8
DIM
100
AcDbLine
 10
671.4462463945635
 20
250.5713334426783
 30
0.0
 11
671.4462463945635
 21
325.0671548414705
 31
0.0
  0
LINE
  5
75
330
2
100
AcDbEntity
  8
COIN-LINE
100
AcDbLine
 10
671.4462463945635
 20
325.0671548414705
 30
0.0
 11
671.4462463945635
 21
330.0671548414705
 31
0.0
  0
LINE
  5
79
330
2
100
AcDbEntity
  8
DIM
100
AcDbLine
 10
671.4462463945635
 20
330.0671548414705
 30
0.0
 11
671.4462463945635
 21
353.0671548414705
 31
0.0
  0
TEXT
  5
7A
330
2
100
AcDbEntity
  8
DIM
100
AcDbText
 10
670.9462463945635
 20
340.6862024605181
 30
0.0
 40
2.5
  1
0.0000
 50
90.0
  7
SIMPLEX
 72
     2
 11
670.9462463945635
 21
353.0671548414705
 31
0.0
100
AcDbText
  0
LINE
  5
7B
330
2
100
AcDbEntity
  8
DIM
100
AcDbLine
 10
652.9420677933801
 20
232.0671548414948
 30
0.0
 11
599.6962463945616
 21
232.0671548414948
 31
0.0
  0
LINE
  5
7C
330
2
100
AcDbEntity
  8
COIN-LINE
100
AcDbLine
 10
599.6962463945616
 20
232.0671548414948
 30
0.0
 11
594.6962463945557
 21
232.0671548414948
 31
0.0
  0
LINE
  5
7D
330
2
100
AcDbEntity
  8
DIM
100
AcDbLine
 10
594.6962463945557
 20
232.0671548414948
 30
0.0
 11
571.6962463945557
 21
232.0671548414948
 31
0.0
  0
TEXT
  5
7E
330
2
100
AcDbEntity
  8
DIM
100
AcDbText
 10
571.6962463945557
 20
232.5671548414948
 30
0.0
 40
2.5
  1
0.0000
  7
SIMPLEX
100
AcDbText
  0
LINE
  5
7F
330
2
100
AcDbEntity
  8
DIM
100
AcDbLine
 10
633.0265428305647
 20
235.0671548414948
 30
0.0
 11
633.0265428305647
 21
232.0671548414948
 31
0.0
  0
SOLID
  5
80
330
2
100
AcDbEntity
  8
DIM
100
AcDbTrace
 10
633.0265428305647
 20
238.0671548414948
 30
0.0
 11
633.5265428305647
 21
235.0671548414948
 31
0.0
 12
632.5265428305645
 22
235.0671548414948
 32
0.0
 13
632.5265428305645
 23
235.0671548414948
 33
0.0
  0
MTEXT
  5
82
330
2
100
AcDbEntity
  8
DIM
100
AcDbMText
 10
633.2335633974162
 20
239.9418328375926
 30
0.0
 40
2.5
 41
0.0
 46
0.0
 71
     5
 72
     1
  1
B
  7
SIMPLEX
 73
     1
 44
1.0
  0
LINE
  5
83
330
2
100
AcDbEntity
  8
CEN
100
AcDbLine
 10
671.4462463945635
 20
114.5542117674451
 30
0.0
 11
671.4462463945635
 21
101.2685995717874
 31
0.0
  0
LINE
  5
84
330
2
100
AcDbEntity
  8
DIM
100
AcDbLine
 10
636.9712463945643
 20
110.3728189955412
 30
0.0
 11
636.9712463945643
 21
119.8660819615375
 31
0.0
  0
LINE
  5
85
330
2
100
AcDbEntity
  8
DIM
100
AcDbLine
 10
705.921246394564
 20
110.3728189955412
 30
0.0
 11
705.921246394564
 21
119.8660819615375
 31
0.0
  0
LINE
  5
86
330
2
100
AcDbEntity
  8
DIM
100
AcDbLine
 10
639.9712463945643
 20
118.8660819615375
 30
0.0
 11
702.921246394564
 21
118.8660819615375
 31
0.0
  0
SOLID
  5
87
330
2
100
AcDbEntity
  8
DIM
100
AcDbTrace
 10
636.9712463945643
 20
118.8660819615375
 30
0.0
 11
639.9712463945643
 21
118.3660819615374
 31
0.0
 12
639.9712463945643
 22
119.3660819615376
 32
0.0
 13
639.9712463945643
 23
119.3660819615376
 33
0.0
  0
SOLID
  5
88
330
2
100
AcDbEntity
  8
DIM
100
AcDbTrace
 10
705.921246394564
 20
118.8660819615375
 30
0.0
 11
702.921246394564
 21
118.3660819615374
 31
0.0
 12
702.921246394564
 22
119.3660819615376
 32
0.0
 13
702.921246394564
 23
119.3660819615376
 33
0.0
  0
MTEXT
  5
89
330
2
100
AcDbEntity
  8
DIM
100
AcDbMText
 10
662.8884643533416
 20
120.9660819615375
 30
0.0
 40
2.5
 41
0.0
 46
0.0
 71
     5
 72
     1
  1
0.1970
  7
SIMPLEX
 73
     1
 44
1.0
  0
LINE
  5
8A
330
2
100
AcDbEntity
  8
DIM
100
AcDbLine
 10
640.4712463945648
 20
104.1728189955412
 30
0.0
 11
640.4712463945648
 21
94.66842765471113
 31
0.0
  0
LINE
  5
8B
330
2
100
AcDbEntity
  8
DIM
100
AcDbLine
 10
702.421246394562
 20
104.1728189955309
 30
0.0
 11
702.421246394562
 21
94.66842765471113
 31
0.0
  0
LINE
  5
8C
330
2
100
AcDbEntity
  8
DIM
100
AcDbLine
 10
643.471246394565
 20
95.66842765471113
 30
0.0
 11
699.4212463945621
 21
95.66842765471113
 31
0.0
  0
SOLID
  5
8D
330
2
100
AcDbEntity
  8
DIM
100
AcDbTrace
 10
640.4712463945648
 20
95.66842765471113
 30
0.0
 11
643.471246394565
 21
95.16842765471102
 31
0.0
 12
643.471246394565
 22
96.16842765471123
 32
0.0
 13
643.471246394565
 23
96.16842765471123
 33
0.0
  0
SOLID
  5
8E
330
2
100
AcDbEntity
  8
DIM
100
AcDbTrace
 10
702.421246394562
 20
95.66842765471113
 30
0.0
 11
699.4212463945621
 21
95.16842765471102
 31
0.0
 12
699.4212463945621
 22
96.16842765471123
 32
0.0
 13
699.4212463945621
 23
96.16842765471123
 33
0.0
  0
MTEXT
  5
8F
330
2
100
AcDbEntity
  8
DIM
100
AcDbMText
 10
671.4462463945635
 20
97.76842765471114
 30
0.0
 40
2.5
 41
0.0
 46
0.0
 71
     5
 72
     1
  1
0.1770
  7
SIMPLEX
 73
     1
 44
1.0
  0
LINE
  5
90
330
2
100
AcDbEntity
  8
DIM
100
AcDbLine
 10
639.4712448240404
 20
105.1728189955435
 30
0.0
 11
628.7812656206881
 21
105.1728189955435
 31
0.0
  0
LINE
  5
91
330
2
100
AcDbEntity
  8
DIM
100
AcDbLine
 10
635.9712463945639
 20
107.7978189955424
 30
0.0
 11
628.7812656206879
 21
107.7978189955424
 31
0.0
  0
LINE
  5
92
330
2
100
AcDbEntity
  8
DIM
100
AcDbLine
 10
629.7812656206881
 20
102.1728189955435
 30
0.0
 11
629.7812656206881
 21
99.17281899554353
 31
0.0
  0
SOLID
  5
93
330
2
100
AcDbEntity
  8
DIM
100
AcDbTrace
 10
629.7812656206881
 20
105.1728189955435
 30
0.0
 11
630.2812656206882
 21
102.1728189955435
 31
0.0
 12
629.281265620688
 22
102.1728189955435
 32
0.0
 13
629.281265620688
 23
102.1728189955435
 33
0.0
  0
LINE
  5
94
330
2
100
AcDbEntity
  8
DIM
100
AcDbLine
 10
629.7812656206879
 20
110.4478189955424
 30
0.0
 11
629.7812656206879
 21
123.9599030823138
 31
0.0
  0
SOLID
  5
95
330
2
100
AcDbEntity
  8
DIM
100
AcDbTrace
 10
629.7812656206879
 20
107.7978189955424
 30
0.0
 11
630.2812656206882
 21
110.7978189955424
 31
0.0
 12
629.2812656206879
 22
110.7978189955424
 32
0.0
 13
629.2812656206879
 23
110.7978189955424
 33
0.0
  0
MTEXT
  5
96
330
2
100
AcDbEntity
  8
DIM
100
AcDbMText
 10
627.681265620688
 20
117.5687195536091
 30
0.0
 40
2.5
 41
0.0
 46
0.0
 71
     5
 72
     1
  1
0.0075
  7
SIMPLEX
 11
0.0
 21
1.0
 31
0.0
 73
     1
 44
1.0
  0
LINE
  5
97
330
2
100
AcDbEntity
  8
DIM
100
AcDbLine
 10
629.7812656206881
 20
107.7978189955435
 30
0.0
 11
629.7812656206881
 21
105.1728189955435
 31
0.0
  0
LINE
  5
98
330
2
100
AcDbEntity
  8
DIM
100
AcDbLine
 10
702.421246394562
 20
104.1728189955309
 30
0.0
 11
702.421246394562
 21
86.62754998636783
 31
0.0
  0
LINE
  5
99
330
2
100
AcDbEntity
  8
DIM
100
AcDbLine
 10
708.9212463945632
 20
87.62754998636784
 30
0.0
 11
711.9212463945632
 21
87.62754998636784
 31
0.0
  0
SOLID
  5
9A
330
2
100
AcDbEntity
  8
DIM
100
AcDbTrace
 10
705.9212463945632
 20
87.62754998636784
 30
0.0
 11
708.9212463945632
 21
88.12754998636792
 31
0.0
 12
708.9212463945632
 22
87.12754998636773
 32
0.0
 13
708.9212463945632
 23
87.12754998636773
 33
0.0
  0
LINE
  5
9B
330
2
100
AcDbEntity
  8
DIM
100
AcDbLine
 10
699.4212463945621
 20
87.62754998636784
 30
0.0
 11
682.0043236311245
 21
87.62754998636784
 31
0.0
  0
SOLID
  5
9C
330
2
100
AcDbEntity
  8
DIM
100
AcDbTrace
 10
702.421246394562
 20
87.62754998636784
 30
0.0
 11
699.4212463945621
 21
88.12754998636792
 31
0.0
 12
699.4212463945621
 22
87.12754998636773
 32
0.0
 13
699.4212463945621
 23
87.12754998636773
 33
0.0
  0
MTEXT
  5
9D
330
2
100
AcDbEntity
  8
DIM
100
AcDbMText
 10
689.7105881517249
 20
89.72754998636784
 30
0.0
 40
2.5
 41
0.0
 46
0.0
 71
     5
 72
     1
  1
(0.0100)
  7
SIMPLEX
 73
     1
 44
1.0
  0
LINE
  5
9E
330
2
100
AcDbEntity
  8
DIM
100
AcDbLine
 10
702.421246394562
 20
87.62754998636784
 30
0.0
 11
705.9212463945632
 21
87.62754998636784
 31
0.0
  0
LINE
  5
9F
330
2
100
AcDbEntity
  8
DIM
100
AcDbLine
 10
703.4212463945621
 20
105.1728189955309
 30
0.0
 11
723.0187370403329
 21
105.1728189955309
 31
0.0
  0
LINE
  5
A0
330
2
100
AcDbEntity
  8
DIM
100
AcDbLine
 10
706.921246394564
 20
109.3728189955412
 30
0.0
 11
723.0187370403329
 21
109.3728189955412
 31
0.0
  0
LINE
  5
A1
330
2
100
AcDbEntity
  8
DIM
100
AcDbLine
 10
722.0187370403329
 20
102.1728189955309
 30
0.0
 11
722.0187370403329
 21
99.17281899553096
 31
0.0
  0
SOLID
  5
A2
330
2
100
AcDbEntity
  8
DIM
100
AcDbTrace
 10
722.0187370403329
 20
105.1728189955309
 30
0.0
 11
722.5187370403329
 21
102.1728189955309
 31
0.0
 12
721.5187370403327
 22
102.1728189955309
 32
0.0
 13
721.5187370403327
 23
102.1728189955309
 33
0.0
  0
LINE
  5
A3
330
2
100
AcDbEntity
  8
DIM
100
AcDbLine
 10
722.0187370403329
 20
112.3728189955412
 30
0.0
 11
722.0187370403329
 21
124.7444235848998
 31
0.0
  0
SOLID
  5
A4
330
2
100
AcDbEntity
  8
DIM
100
AcDbTrace
 10
722.0187370403329
 20
109.3728189955412
 30
0.0
 11
722.5187370403329
 21
112.3728189955412
 31
0.0
 12
721.5187370403327
 22
112.3728189955412
 32
0.0
 13
721.5187370403327
 23
112.3728189955412
 33
0.0
  0
MTEXT
  5
A5
330
2
100
AcDbEntity
  8
DIM
100
AcDbMText
 10
719.9187370403327
 20
118.6602710315624
 30
0.0
 40
2.5
 41
0.0
 46
0.0
 71
     5
 72
     1
  1
0.0120
  7
SIMPLEX
 11
0.0
 21
1.0
 31
0.0
 73
     1
 44
1.0
  0
LINE
  5
A6
330
2
100
AcDbEntity
  8
DIM
100
AcDbLine
 10
722.0187370403329
 20
105.1728189955309
 30
0.0
 11
722.0187370403329
 21
109.3728189955412
 31
0.0
  0
MTEXT
  5
A7
102
{ACAD_XDICTIONARY
360
A8
102
}
330
2
100
AcDbEntity
  8
DIM
100
AcDbMText
 10
718.9737865001356
 20
131.166969357701
 30
0.0
 40
1.800000000000011
 41
0.0
 46
0.0
 71
     5
 72
     1
  1
%%P0.0003
  7
SIMPLEX
 11
0.0
 21
1.0
 31
0.0
 73
     1
 44
1.0
  0
TEXT
  5
A9
330
2
100
AcDbEntity
  8
LF-LINE
100
AcDbText
 10
656.7209831954477
 20
78.14272539120695
 30
0.0
 40
3.0
  1
%%USECTION B-B
  7
SIMPLEX
100
AcDbText
  0
LINE
  5
AD
330
2
100
AcDbEntity
  8
DIM
100
AcDbLine
 10
700.4349216702368
 20
276.9312328442954
 30
0.0
 11
700.4349216702368
 21
187.2057308222598
 31
0.0
  0
LINE
  5
AE
330
2
100
AcDbEntity
  8
DIM
100
AcDbLine
 10
700.4349216702366
 20
187.2057308222598
 30
0.0
 11
695.4965869670298
 21
187.2057308222598
 31
0.0
  0
SOLID
  5
AF
330
2
100
AcDbEntity
  8
DIM
100
AcDbTrace
 10
692.8220653414332
 20
187.2057308222598
 30
0.0
 11
695.8220653414334
 21
187.7057308222599
 31
0.0
 12
695.8220653414334
 22
186.7057308222596
 32
0.0
 13
695.8220653414334
 23
186.7057308222596
 33
0.0
  0
MTEXT
  5
B0
330
2
100
AcDbEntity
  8
DIM
100
AcDbMText
 10
691.1309586390248
 20
186.9189421944976
 30
0.0
 40
2.5
 41
0.0
 46
0.0
 71
     5
 72
     1
  1
C
  7
SIMPLEX
 73
     1
 44
1.0
  0
MTEXT
  5
B1
330
2
100
AcDbEntity
  8
DIM
100
AcDbMText
 10
691.4286624614687
 20
276.8059099825383
 30
0.0
 40
2.5
 41
0.0
 46
0.0
 71
     5
 72
     1
  1
C
  7
SIMPLEX
 73
     1
 44
1.0
  0
SOLID
  5
B2
330
2
100
AcDbEntity
  8
DIM
100
AcDbTrace
 10
693.1197691638772
 20
276.9312328442954
 30
0.0
 11
696.1197691638772
 21
277.4312328442956
 31
0.0
 12
696.1197691638772
 22
276.4312328442953
 32
0.0
 13
696.1197691638772
 23
276.4312328442953
 33
0.0
  0
LINE
  5
B3
330
2
100
AcDbEntity
  8
DIM
100
AcDbLine
 10
695.4965869670298
 20
276.9312328442954
 30
0.0
 11
700.4349216702368
 21
276.9312328442954
 31
0.0
  0
LINE
  5
B4
330
2
100
AcDbEntity
  8
CEN
100
AcDbLine
 10
778.8994417172634
 20
232.0671548414948
 30
0.0
 11
793.4183273834709
 21
232.0671548414948
 31
0.0
  0
LINE
  5
B5
330
2
100
AcDbEntity
  8
DIM
100
AcDbLine
 10
784.0718925543785
 20
189.3671564912548
 30
0.0
 11
774.757363703771
 21
189.3671564912548
 31
0.0
  0
LINE
  5
B6
330
2
100
AcDbEntity
  8
DIM
100
AcDbLine
 10
784.0718925543785
 20
274.7671531917348
 30
0.0
 11
774.757363703771
 21
274.7671531917348
 31
0.0
  0
LINE
  5
B7
330
2
100
AcDbEntity
  8
DIM
100
AcDbLine
 10
775.757363703771
 20
192.3671564912548
 30
0.0
 11
775.757363703771
 21
271.7671531917348
 31
0.0
  0
SOLID
  5
B8
330
2
100
AcDbEntity
  8
DIM
100
AcDbTrace
 10
775.757363703771
 20
189.3671564912548
 30
0.0
 11
776.2573637037712
 21
192.3671564912548
 31
0.0
 12
775.257363703771
 22
192.3671564912548
 32
0.0
 13
775.257363703771
 23
192.3671564912548
 33
0.0
  0
SOLID
  5
B9
330
2
100
AcDbEntity
  8
DIM
100
AcDbTrace
 10
775.757363703771
 20
274.7671531917348
 30
0.0
 11
776.2573637037712
 21
271.7671531917348
 31
0.0
 12
775.257363703771
 22
271.7671531917348
 32
0.0
 13
775.257363703771
 23
271.7671531917348
 33
0.0
  0
MTEXT
  5
BA
330
2
100
AcDbEntity
  8
DIM
100
AcDbMText
 10
773.6573637037712
 20
226.3714836111163
 30
0.0
 40
2.5
 41
0.0
 46
0.0
 71
     5
 72
     1
  1
0.2440
  7
SIMPLEX
 11
0.0
 21
1.0
 31
0.0
 73
     1
 44
1.0
  0
LINE
  5
BB
330
2
100
AcDbEntity
  8
DIM
100
AcDbLine
 10
790.2718925543783
 20
271.2671547622579
 30
0.0
 11
801.8656759605818
 21
271.2671547622579
 31
0.0
  0
LINE
  5
BC
330
2
100
AcDbEntity
  8
DIM
100
AcDbLine
 10
790.2718925543783
 20
192.8671549207317
 30
0.0
 11
801.8656759605818
 21
192.8671549207317
 31
0.0
  0
LINE
  5
BD
330
2
100
AcDbEntity
  8
DIM
100
AcDbLine
 10
800.865675960582
 20
271.2671547622579
 30
0.0
 11
800.8656759605818
 21
195.8671549207317
 31
0.0
  0
SOLID
  5
BE
330
2
100
AcDbEntity
  8
DIM
100
AcDbTrace
 10
800.8656759605818
 20
271.2671547622579
 30
0.0
 11
800.3656759605817
 21
268.2671547622579
 31
0.0
 12
801.3656759605821
 22
268.2671547622579
 32
0.0
 13
801.3656759605821
 23
268.2671547622579
 33
0.0
  0
SOLID
  5
BF
330
2
100
AcDbEntity
  8
DIM
100
AcDbTrace
 10
800.8656759605818
 20
192.8671549207317
 30
0.0
 11
800.3656759605817
 21
195.8671549207317
 31
0.0
 12
801.3656759605821
 22
195.8671549207317
 32
0.0
 13
801.3656759605821
 23
195.8671549207317
 33
0.0
  0
MTEXT
  5
C0
330
2
100
AcDbEntity
  8
DIM
100
AcDbMText
 10
798.7656759605818
 20
233.2026149131871
 30
0.0
 40
2.5
 41
0.0
 46
0.0
 71
     5
 72
     1
  1
0.2240
  7
SIMPLEX
 11
0.0
 21
1.0
 31
0.0
 73
     1
 44
1.0
  0
LINE
  5
C1
330
2
100
AcDbEntity
  8
DIM
100
AcDbLine
 10
792.2718925543785
 20
282.121993876706
 30
0.0
 11
795.2718925543785
 21
282.121993876706
 31
0.0
  0
SOLID
  5
C2
330
2
100
AcDbEntity
  8
DIM
100
AcDbTrace
 10
789.2718925543785
 20
282.121993876706
 30
0.0
 11
792.2718925543785
 21
282.6219938767061
 31
0.0
 12
792.2718925543785
 22
281.6219938767059
 32
0.0
 13
792.2718925543785
 23
281.6219938767059
 33
0.0
  0
LINE
  5
C3
330
2
100
AcDbEntity
  8
DIM
100
AcDbLine
 10
782.0718925543785
 20
282.121993876706
 30
0.0
 11
768.6153729920569
 21
282.121993876706
 31
0.0
  0
SOLID
  5
C4
330
2
100
AcDbEntity
  8
DIM
100
AcDbTrace
 10
785.0718925543787
 20
282.121993876706
 30
0.0
 11
782.0718925543785
 21
282.6219938767061
 31
0.0
 12
782.0718925543785
 22
281.6219938767059
 32
0.0
 13
782.0718925543785
 23
281.6219938767059
 33
0.0
  0
MTEXT
  5
C5
330
2
100
AcDbEntity
  8
DIM
100
AcDbMText
 10
775.1217944714239
 20
284.2219938767059
 30
0.0
 40
2.5
 41
0.0
 46
0.0
 71
     5
 72
     1
  1
0.0120
  7
SIMPLEX
 73
     1
 44
1.0
  0
MTEXT
  5
C6
102
{ACAD_XDICTIONARY
360
C7
102
}
330
2
100
AcDbEntity
  8
DIM
100
AcDbMText
 10
787.3652238774913
 20
285.3459787969764
 30
0.0
 40
1.799999999999954
 41
0.0
 46
0.0
 71
     5
 72
     1
  1
%%P0.0003
  7
SIMPLEX
 73
     1
 44
1.0
  0
TEXT
  5
C8
330
2
100
AcDbEntity
  8
LF-LINE
100
AcDbText
 10
769.9672546166567
 20
167.322825752922
 30
0.0
 40
3.0
  1
%%USECTION C-C
  7
SIMPLEX
100
AcDbText
  0
LINE
  5
C9
330
2
100
AcDbEntity
  8
DIM
100
AcDbLine
 10
786.6468925543772
 20
188.3671564912543
 30
0.0
 11
786.6468925543772
 21
180.2066117982365
 31
0.0
  0
LINE
  5
CA
330
2
100
AcDbEntity
  8
DIM
100
AcDbLine
 10
792.2718925543774
 20
181.2066117982366
 30
0.0
 11
795.2718925543774
 21
181.2066117982366
 31
0.0
  0
SOLID
  5
CB
330
2
100
AcDbEntity
  8
DIM
100
AcDbTrace
 10
789.2718925543775
 20
181.2066117982366
 30
0.0
 11
792.2718925543774
 21
180.7066117982365
 31
0.0
 12
792.2718925543774
 22
181.7066117982367
 32
0.0
 13
792.2718925543774
 23
181.7066117982367
 33
0.0
  0
LINE
  5
CC
330
2
100
AcDbEntity
  8
DIM
100
AcDbLine
 10
785.7468925543771
 20
181.2066117982366
 30
0.0
 11
762.3487478251179
 21
181.2066117982366
 31
0.0
  0
SOLID
  5
CD
330
2
100
AcDbEntity
  8
DIM
100
AcDbTrace
 10
786.6468925543772
 20
181.2066117982365
 30
0.0
 11
783.6468925543774
 21
180.7066117982364
 31
0.0
 12
783.6468925543774
 22
181.7066117982367
 32
0.0
 13
783.6468925543774
 23
181.7066117982367
 33
0.0
  0
LINE
  5
CE
330
2
100
AcDbEntity
  8
DIM
100
AcDbLine
 10
789.2718925543775
 20
181.2066117982366
 30
0.0
 11
786.6468925543775
 21
181.2066117982366
 31
0.0
  0
LINE
  5
CF
330
2
100
AcDbEntity
  8
DIM
100
AcDbLine
 10
796.3384375436423
 20
195.8671549207317
 30
0.0
 11
796.3384375436423
 21
212.1771553815737
 31
0.0
  0
SOLID
  5
D0
330
2
100
AcDbEntity
  8
DIM
100
AcDbTrace
 10
796.3384375436423
 20
192.8671549207317
 30
0.0
 11
795.8384375436422
 21
195.8671549207317
 31
0.0
 12
796.8384375436426
 22
195.8671549207317
 32
0.0
 13
796.8384375436426
 23
195.8671549207317
 33
0.0
  0
MTEXT
  5
D1
330
2
100
AcDbEntity
  8
DIM
100
AcDbMText
 10
794.2384375436424
 20
204.3729950412093
 30
0.0
 40
2.5
 41
0.0
 46
0.0
 71
     5
 72
     1
  1
(0.0100)
  7
SIMPLEX
 11
0.0
 21
1.0
 31
0.0
 73
     1
 44
1.0
  0
LINE
  5
D2
330
2
100
AcDbEntity
  8
DIM
100
AcDbLine
 10
796.3384375436423
 20
186.3671564912548
 30
0.0
 11
796.3384375436423
 21
183.3671564912548
 31
0.0
  0
SOLID
  5
D3
330
2
100
AcDbEntity
  8
DIM
100
AcDbTrace
 10
796.3384375436423
 20
189.3671564912548
 30
0.0
 11
795.8384375436422
 21
186.3671564912548
 31
0.0
 12
796.8384375436426
 22
186.3671564912548
 32
0.0
 13
796.8384375436426
 23
186.3671564912548
 33
0.0
  0
LINE
  5
D4
330
2
100
AcDbEntity
  8
DIM
100
AcDbLine
 10
796.3384375436423
 20
189.3671564912548
 30
0.0
 11
796.3384375436423
 21
192.8671549207317
 31
0.0
  0
LINE
  5
D5
330
2
100
AcDbEntity
  8
DIM
100
AcDbLine
 10
787.6468925543774
 20
189.3671564912548
 30
0.0
 11
797.3384375436424
 21
189.3671564912548
 31
0.0
  0
MTEXT
  5
D6
330
2
100
AcDbEntity
  8
DIM
100
AcDbMText
 10
768.6102519716804
 20
183.3066117982367
 30
0.0
 40
2.5
 41
0.0
 46
0.0
 71
     5
 72
     1
  1
0.0075
  7
SIMPLEX
 73
     1
 44
1.0
  0
LINE
  5
D7
330
2
100
AcDbEntity
  8
DIM
100
AcDbLine
 10
785.0718925543787
 20
282.121993876706
 30
0.0
 11
789.2718925543785
 21
282.121993876706
 31
0.0
  0
LINE
  5
D8
330
2
100
AcDbEntity
  8
DIM
100
AcDbLine
 10
789.2718925543785
 20
283.1219938767059
 30
0.0
 11
789.2718925543785
 21
272.2671547622578
 31
0.0
  0
LINE
  5
D9
330
2
100
AcDbEntity
  8
DIM
100
AcDbLine
 10
785.0718925543783
 20
283.1219938767059
 30
0.0
 11
785.0718925543787
 21
275.7671531917348
 31
0.0
  0
HATCH
  5
DA
330
2
100
AcDbEntity
  8
0
100
AcDbHatch
 10
0.0
 20
0.0
 30
0.0
210
0.0
220
0.0
230
1.0
  2
ANSI37
 70
     0
 71
     0
 91
        7
 92
        7
 72
     0
 73
     1
 93
        6
 10
658.8462463945631
 20
190.2421548413796
 10
658.8462463945631
 20
192.8671548414873
 10
638.3712463945799
 20
192.8671548415097
 10
638.3712463945799
 20
191.1209734424098
 10
638.3712463945799
 20
189.3671548415097
 10
658.8462463945631
 20
189.367154841493
 97
        0
 92
        7
 72
     1
 73
     1
 93
        6
 10
637.846246393799
 20
214.5671548415107
 42
0.0
 10
640.4712463945675
 20
214.5671548415101
 42
0.0
 10
640.471246394555
 20
274.7671548415114
 42
0.0
 10
639.7712463945468
 20
274.7671548415091
 42
0.4142135623720384
 10
636.9712463945557
 20
271.9671548415088
 42
0.0
 10
636.9712463945656
 20
214.5671548415086
 42
0.0
 97
        0
 92
        7
 72
     0
 73
     1
 93
        6
 10
704.5212463945325
 20
273.0171548414814
 10
704.5212463945448
 20
274.7671548414702
 10
695.771246394543
 20
274.7671548415209
 10
695.7712463945306
 20
273.0525120215308
 10
695.7712463945157
 20
271.2671548414759
 10
704.52124639452
 20
271.2671548414818
 97
        0
 92
        7
 72
     0
 73
     1
 93
        6
 10
704.2066035746156
 20
249.217154841438
 10
705.9212463945469
 20
249.2171548414393
 10
705.9212463945616
 20
263.9171548414843
 10
704.2066035746156
 20
263.9171548414843
 10
702.4212463945672
 20
263.9171548414843
 10
702.4212463945672
 20
249.2171548414368
 97
        0
 92
        7
 72
     0
 73
     1
 93
        6
 10
704.2066035746156
 20
200.217154841403
 10
705.9212463945469
 20
200.2171548414043
 10
705.9212463945616
 20
214.9171548414493
 10
704.2066035746156
 20
214.9171548414493
 10
702.4212463945672
 20
214.9171548414493
 10
702.4212463945672
 20
200.2171548414018
 97
        0
 92
        7
 72
     0
 73
     1
 93
        6
 10
695.7712463945306
 20
191.0817976614582
 10
695.771246394543
 20
189.3671548414684
 10
704.5212463945448
 20
189.3671548415191
 10
704.5212463945325
 20
191.1171548415078
 10
704.52124639452
 20
192.8671548415078
 10
695.7712463945157
 20
192.8671548415134
 97
        0
 92
        7
 72
     0
 73
     1
 93
        6
 10
704.2066035746156
 20
239.4171548414867
 10
702.4212463945672
 20
239.4171548414867
 10
702.4212463945672
 20
224.7171548414392
 10
704.2066035746156
 20
224.7171548414404
 10
705.9212463945469
 20
224.7171548414417
 10
705.9212463945616
 20
239.4171548414867
 97
        0
 75
     0
 76
     1
 52
0.0
 41
10.0
 77
     0
 78
     2
 53
44.99999999999975
 43
544.0
 44
-9.987029178673195
 45
-0.8838834764831631
 46
0.8838834764831842
 79
     0
 53
135.0000000000002
 43
544.0
 44
-9.987029178673195
 45
-0.8838834764831631
 46
-0.8838834764831842
 79
     0
 47
0.0
 98
       24
 10
544.0
 20
0.0
 10
544.0
 20
0.0
 10
544.0
 20
0.0
 10
544.0
 20
0.0
 10
544.0
 20
0.0
 10
544.0
 20
0.0
 10
544.0
 20
0.0
 10
544.0
 20
0.0
 10
544.0
 20
0.0
 10
544.0
 20
0.0
 10
544.0
 20
-9.987029178673195
 10
544.0
 20
-9.987029178673195
 10
544.0
 20
-9.987029178673195
 10
544.0
 20
-9.987029178673195
 10
544.0
 20
-9.987029178673195
 10
544.0
 20
-9.987029178673195
 10
544.0
 20
-9.987029178673195
 10
651.8620187069614
 20
190.9685264291542
 10
639.6121167577241
 20
267.8267822074329
 10
698.688256803239
 20
271.7783634813804
 10
703.4301543319761
 20
255.5768802581957
 10
704.8132077778578
 20
208.5530630982205
 10
701.0592055676076
 20
191.1661054928516
 10
703.6277333956733
 20
233.8431832514845
  0
LINE
  5
DB
330
2
100
AcDbEntity
  8
DIM
100
AcDbLine
 10
689.3177687878884
 20
124.2201072198699
 30
0.0
 11
693.1409060732122
 21
124.2201072198699
 31
0.0
  0
LINE
  5
DC
330
2
100
AcDbEntity
  8
DIM
100
AcDbLine
 10
683.2948766204284
 20
112.0610889221004
 30
0.0
 11
689.3177687878884
 21
124.2201072198699
 31
0.0
  0
MTEXT
  5
DD
330
2
100
AcDbEntity
  8
DIM
100
AcDbMText
 10
694.284228879417
 20
122.9719015363535
 30
0.0
 40
2.5
 41
0.0
 46
0.0
 71
     7
 72
     1
  1
TOP SIDE
  7
SIMPLEX
 73
     1
 44
1.0
  0
SOLID
  5
DE
330
2
100
AcDbEntity
  8
DIM
100
AcDbTrace
 10
681.9632592572354
 20
109.3728189955412
 30
0.0
 11
683.7429216081885
 21
111.8391526949016
 31
0.0
 12
682.8468316326685
 22
112.2830251492993
 32
0.0
 13
682.8468316326685
 23
112.2830251492993
 33
0.0
  0
MTEXT
  5
DF
330
2
100
AcDbEntity
  8
DIM
100
AcDbMText
 10
673.283197591358
 20
120.1442787430911
 30
0.0
 40
1.799999999999981
 41
0.0
 46
0.0
 71
     5
 72
     1
  1
(REF.)
  7
SIMPLEX
 73
     1
 44
1.0
  0
MTEXT
  5
E0
330
2
100
AcDbEntity
  8
DIM
100
AcDbMText
 10
774.3436398892493
 20
237.5347677311468
 30
0.0
 40
1.799999999999954
 41
0.0
 46
0.0
 71
     5
 72
     1
  1
(REF.)
  7
SIMPLEX
 11
0.0
 21
1.0
 31
0.0
 73
     1
 44
1.0
  0
LINE
  5
E1
330
2
100
AcDbEntity
  8
DIM
100
AcDbLine
 10
777.7173830237254
 20
201.2367485581783
 30
0.0
 11
773.8942457384015
 21
201.2367485581783
 31
0.0
  0
LINE
  5
E2
330
2
100
AcDbEntity
  8
DIM
100
AcDbLine
 10
783.7402751911853
 20
213.3957668559478
 30
0.0
 11
777.7173830237254
 21
201.2367485581783
 31
0.0
  0
MTEXT
  5
E3
330
2
100
AcDbEntity
  8
DIM
100
AcDbMText
 10
755.7233992716078
 20
199.9518943674542
 30
0.0
 40
2.5
 41
0.0
 46
0.0
 71
     7
 72
     1
  1
TOP SIDE
  7
SIMPLEX
 73
     1
 44
1.0
  0
SOLID
  5
E4
330
2
100
AcDbEntity
  8
DIM
100
AcDbTrace
 10
785.0718925543787
 20
216.084036782507
 30
0.0
 11
783.2922302034256
 21
213.6177030831466
 31
0.0
 12
784.1883201789453
 22
213.1738306287489
 32
0.0
 13
784.1883201789453
 23
213.1738306287489
 33
0.0
  0
LINE
  5
E5
330
2
100
AcDbEntity
  8
DIM
100
AcDbLine
 10
714.7219408986901
 20
235.0671548414948
 30
0.0
 11
714.7219408986901
 21
232.0671548414948
 31
0.0
  0
SOLID
  5
E6
330
2
100
AcDbEntity
  8
DIM
100
AcDbTrace
 10
714.7219408986901
 20
238.0671548414948
 30
0.0
 11
715.2219408986901
 21
235.0671548414948
 31
0.0
 12
714.2219408986901
 22
235.0671548414948
 32
0.0
 13
714.2219408986901
 23
235.0671548414948
 33
0.0
  0
MTEXT
  5
E7
330
2
100
AcDbEntity
  8
DIM
100
AcDbMText
 10
718.493634450933
 20
236.7221282056263
 30
0.0
 40
2.5
 41
0.0
 46
0.0
 71
     5
 72
     1
  1
B
  7
SIMPLEX
 73
     1
 44
1.0
  0
LINE
  5
E8
330
2
100
AcDbEntity
  8
DIM
100
AcDbLine
 10
689.9504249957471
 20
232.0671548414948
 30
0.0
 11
714.7219408986901
 21
232.0671548414948
 31
0.0
  0
LINE
  5
E9
330
2
100
AcDbEntity
  8
DIM
100
AcDbLine
 10
705.9212463945632
 20
106.7978189955424
 30
0.0
 11
705.9212463945632
 21
86.62754998636783
 31
0.0
  0
TEXT
  5
EA
330
2
100
AcDbEntity
  8
LF-LINE
100
AcDbText
 10
643.5224590312031
 20
365.7431847720829
 30
0.0
 40
3.0
  1
%%UOPTION2: ETCHED FRAME
  7
SIMPLEX
100
AcDbText
  0
MTEXT
  5
EB
102
{ACAD_XDICTIONARY
360
EC
102
}
330
2
100
AcDbEntity
  8
DIM
100
AcDbMText
 10
626.5917952675589
 20
129.1660062384917
 30
0.0
 40
1.800000000000011
 41
0.0
 46
0.0
 71
     5
 72
     1
  1
%%P0.001
  7
SIMPLEX
 11
0.0
 21
1.0
 31
0.0
 73
     1
 44
1.0
  0
MTEXT
  5
ED
102
{ACAD_XDICTIONARY
360
EE
102
}
330
2
100
AcDbEntity
  8
DIM
100
AcDbMText
 10
779.7774749195149
 20
184.1833113202861
 30
0.0
 40
1.800000000000011
 41
0.0
 46
0.0
 71
     5
 72
     1
  1
%%P0.001
  7
SIMPLEX
 73
     1
 44
1.0
  0
LINE
  5
EF
330
2
100
AcDbEntity
  8
DIM
100
AcDbLine
 10
789.2718925543775
 20
191.8671549207317
 30
0.0
 11
789.2718925543775
 21
180.2066117982366
 31
0.0
  0
LINE
  5
F0
330
2
100
AcDbEntity
  8
LF-LINE
100
AcDbLine
 10
722.0618047445314
 20
272.3171548414781
 30
0.0
 11
722.0618047445114
 21
265.3171548414646
 31
0.0
  0
LINE
  5
F1
330
2
100
AcDbEntity
  8
LF-LINE
100
AcDbLine
 10
707.6712463945328
 20
272.3171548415179
 30
0.0
 11
707.6712463945128
 21
265.3171548415043
 31
0.0
  0
LINE
  5
F2
330
2
100
AcDbEntity
  8
LF-LINE
100
AcDbLine
 10
695.4212463945246
 20
176.7671548414763
 30
0.0
 11
695.4212463945045
 21
185.3132533482984
 31
0.0
  0
LINE
  5
F3
330
2
100
AcDbEntity
  8
LF-LINE
100
AcDbLine
 10
709.8118047445184
 20
176.7671548415161
 30
0.0
 11
709.8118047445034
 21
185.1671548415096
 31
0.0
  0
LINE
  5
F4
330
2
100
AcDbEntity
  8
LF-LINE
100
AcDbLine
 10
722.0618047445314
 20
216.3171548415489
 30
0.0
 11
722.0618047445114
 21
223.3171548415624
 31
0.0
  0
LINE
  5
F5
330
2
100
AcDbEntity
  8
LF-LINE
100
AcDbLine
 10
707.6712463945328
 20
216.3171548415091
 30
0.0
 11
707.6712463945128
 21
223.3171548415227
 31
0.0
  0
LINE
  5
F6
330
2
100
AcDbEntity
  8
LF-LINE
100
AcDbLine
 10
674.9462463945802
 20
173.2265964915127
 30
0.0
 11
667.9462463945468
 21
173.2265964914928
 31
0.0
  0
LINE
  5
F7
330
2
100
AcDbEntity
  8
LF-LINE
100
AcDbLine
 10
674.9462463945802
 20
290.9077131914769
 30
0.0
 11
667.9462463945468
 21
290.9077131914969
 31
0.0
  0
LINE
  5
F8
330
2
100
AcDbEntity
  8
LF-LINE
100
AcDbLine
 10
707.6712463945328
 20
247.8171548414805
 30
0.0
 11
707.6712463945128
 21
240.8171548414669
 31
0.0
  0
LINE
  5
F9
330
2
100
AcDbEntity
  8
LF-LINE
100
AcDbLine
 10
722.0618047445314
 20
247.8171548414407
 30
0.0
 11
722.0618047445114
 21
240.8171548414272
 31
0.0
  0
LINE
  5
FA
330
2
100
AcDbEntity
  8
LF-LINE
100
AcDbLine
 10
626.9980702445856
 20
199.8671548415002
 30
0.0
 11
626.9980702446055
 21
192.8671548415066
 31
0.0
  0
LINE
  5
FB
330
2
100
AcDbEntity
  8
LF-LINE
100
AcDbLine
 10
662.696246394544
 20
284.7403309915499
 30
0.0
 11
656.3962463945663
 21
284.740330991532
 31
0.0
  0
CIRCLE
  5
FC
330
2
100
AcDbEntity
  8
LF-LINE
100
AcDbCircle
 10
626.1212463945561
 20
174.3171548414478
 30
0.0
 40
2.625000000000099
  0
CIRCLE
  5
FD
330
2
100
AcDbEntity
  8
LF-LINE
100
AcDbCircle
 10
621.3962463945684
 20
223.3171548414829
 30
0.0
 40
2.625000000000099
  0
CIRCLE
  5
FE
330
2
100
AcDbEntity
  8
LF-LINE
100
AcDbCircle
 10
621.3962463945684
 20
244.3171548415234
 30
0.0
 40
2.625000000000099
  0
CIRCLE
  5
FF
330
2
100
AcDbEntity
  8
LF-LINE
100
AcDbCircle
 10
621.3962463945684
 20
268.8171548415211
 30
0.0
 40
2.625000000000099
  0
CIRCLE
  5
100
330
2
100
AcDbEntity
  8
LF-LINE
100
AcDbCircle
 10
626.1212463945561
 20
289.8171548415417
 30
0.0
 40
2.625000000000099
  0
LWPOLYLINE
  5
101
330
2
100
AcDbEntity
  8
PKG-OUT
100
AcDbPolyline
 90
        4
 70
     0
 43
0.0
 10
705.9212463945616
 20
239.4171548414867
 10
702.4212463945672
 20
239.4171548414867
 10
702.4212463945672
 20
224.7171548414392
 10
705.9212463945469
 20
224.7171548414416
  0
LWPOLYLINE
  5
106
330
2
100
AcDbEntity
  8
PKG-OUT
100
AcDbPolyline
 90
        4
 70
     0
 43
0.0
 10
705.9212463945616
 20
214.9171548414493
 10
702.4212463945672
 20
214.9171548414493
 10
702.4212463945672
 20
200.2171548414018
 10
705.9212463945469
 20
200.2171548414042
  0
LWPOLYLINE
  5
107
330
2
100
AcDbEntity
  8
PKG-OUT
100
AcDbPolyline
 90
        4
 70
     0
 43
0.0
 10
704.5212463945448
 20
189.3671548415191
 10
704.52124639452
 20
192.8671548415078
 10
695.7712463945157
 20
192.8671548415134
 10
695.7712463945448
 20
189.3671548414681
  0
LINE
  5
108
330
2
100
AcDbEntity
  8
LF-LINE
100
AcDbLine
 10
695.4212463945246
 20
287.3671548415133
 30
0.0
 11
695.4212463945045
 21
278.8210563346912
 31
0.0
  0
LINE
  5
109
330
2
100
AcDbEntity
  8
LF-LINE
100
AcDbLine
 10
709.8118047445184
 20
287.3671548414735
 30
0.0
 11
709.8118047445034
 21
278.96715484148
 31
0.0
  0
LINE
  5
10A
330
2
100
AcDbEntity
  8
LF-LINE
100
AcDbLine
 10
722.0618047445486
 20
191.8171548414027
 30
0.0
 11
722.0618047445287
 21
198.8171548414162
 31
0.0
  0
LINE
  5
10B
330
2
100
AcDbEntity
  8
LF-LINE
100
AcDbLine
 10
707.67124639455
 20
191.8171548413629
 30
0.0
 11
707.6712463945301
 21
198.8171548413765
 31
0.0
  0
LWPOLYLINE
  5
10C
330
2
100
AcDbEntity
  8
PKG-OUT
100
AcDbPolyline
 90
        4
 70
     0
 43
0.0
 10
658.8462463945631
 20
189.367154841493
 10
658.8462463945631
 20
192.8671548414873
 10
638.3712463945799
 20
192.8671548415097
 10
638.3712463945799
 20
189.3671548415097
  0
LWPOLYLINE
  5
10D
330
2
100
AcDbEntity
  8
PKG-OUT
100
AcDbPolyline
 90
        3
 70
     0
 43
0.0
 10
640.471246394555
 20
274.7671548415116
 10
640.4712463945675
 20
214.5671548415101
 10
636.9712463945656
 20
214.5671548415109
  0
LINE
  5
10E
330
2
100
AcDbEntity
  8
LF-LINE
100
AcDbLine
 10
635.2212463945996
 20
192.8671548414867
 30
0.0
 11
635.2212463945672
 21
199.8671548414604
 31
0.0
  0
LWPOLYLINE
  5
10F
330
2
100
AcDbEntity
  8
PKG-OUT
100
AcDbPolyline
 90
        4
 70
     1
 43
0.0
 10
732.6962463945626
 20
162.0671548415186
 10
732.6962463945626
 20
302.0671548415107
 10
610.1962463945645
 20
302.0671548415107
 10
610.1962463945645
 20
162.0671548415186
  0
LWPOLYLINE
  5
110
330
2
100
AcDbEntity
  8
PKG-OUT
100
AcDbPolyline
 90
        4
 70
     0
 43
0.0
 10
705.9212463945616
 20
263.9171548414843
 10
702.4212463945672
 20
263.9171548414843
 10
702.4212463945672
 20
249.2171548414368
 10
705.9212463945469
 20
249.2171548414393
  0
LWPOLYLINE
  5
111
330
2
100
AcDbEntity
  8
PKG-OUT
100
AcDbPolyline
 90
        4
 70
     0
 43
0.0
 10
704.5212463945448
 20
274.7671548414702
 10
704.52124639452
 20
271.2671548414818
 10
695.7712463945157
 20
271.2671548414759
 10
695.7712463945448
 20
274.7671548415215
  0
LINE
  5
112
330
2
100
AcDbEntity
  8
LF-LINE
100
AcDbLine
 10
628.2212463945909
 20
185.867154841493
 30
0.0
 11
628.2212463945909
 21
185.867154841493
 31
0.0
  0
LINE
  5
113
330
2
100
AcDbEntity
  8
LF-LINE
100
AcDbLine
 10
674.9462463945555
 20
187.6171548414715
 30
0.0
 11
666.8962463945567
 21
187.6171548414873
 31
0.0
  0
LINE
  5
114
330
2
100
AcDbEntity
  8
LF-LINE
100
AcDbLine
 10
667.9462463945593
 20
276.5171548415373
 30
0.0
 11
674.946246394558
 21
276.5171548415199
 31
0.0
  0
LWPOLYLINE
  5
115
330
2
100
AcDbEntity
  8
LF-LINE
100
AcDbPolyline
 90
       21
 70
     0
 43
0.0
 10
674.1062463729512
 20
163.5619458809357
 42
0.2617284141759793
 10
674.9462463945604
 20
165.0567368493666
 10
674.946246394558
 20
187.6171548414697
 42
-0.4142135623720773
 10
676.6962463945515
 20
189.3671548414699
 10
682.1212463945572
 20
189.3671548414898
 42
-0.4142135623738395
 10
683.8712463945658
 20
187.6171548414918
 10
683.8712463945783
 20
178.5171548414747
 42
0.4142135623730951
 10
685.6212463945767
 20
176.7671548414763
 10
712.956246394559
 20
176.7671548414962
 42
-0.4142135623730951
 10
714.7062463945573
 20
175.0171548414978
 10
714.7062463945573
 20
169.0671548415123
 42
0.4142135623730951
 10
716.4562463945558
 20
167.3171548415139
 10
734.446246394576
 20
167.3171548415139
 42
-0.4142135623730951
 10
736.1962463945745
 20
165.5671548415155
 10
736.1962463945745
 20
157.8671548414986
 42
-0.414213562373017
 10
734.446246394576
 20
156.1171548415005
 10
675.2962463945621
 20
156.1171548415002
 42
-0.4142135623730951
 10
673.5462463945637
 20
157.8671548414986
 10
673.5462463945611
 20
160.6954405866713
 42
0.1010205143582713
 10
673.406246394763
 20
161.3812977141699
 42
-0.3726004620289645
 10
674.1062464161662
 20
163.5619458099331
  0
LWPOLYLINE
  5
116
330
2
100
AcDbEntity
  8
LF-LINE
100
AcDbPolyline
 90
       30
 70
     0
 43
0.0
 10
674.1062464162832
 20
300.5723638729849
 42
-0.7581321936034824
 10
675.0162463946645
 20
303.8171548415101
 10
686.4262463945643
 20
303.8171548415101
 42
0.4142135623730951
 10
688.1762463945643
 20
305.5671548415101
 10
688.1762463945643
 20
316.0671548415091
 42
-0.4142135623730955
 10
689.9262463945643
 20
317.8171548415091
 10
720.8662463945637
 20
317.8171548415086
 42
-0.4142135623730918
 10
722.6162463945637
 20
316.0671548415085
 10
722.6162463945637
 20
305.5671548415098
 42
0.4142135623730951
 10
724.3662463945637
 20
303.8171548415098
 10
727.4462463945633
 20
303.81715484151
 42
0.4142135623730966
 10
729.1962463945633
 20
305.5671548415101
 10
729.1962463945643
 20
321.3171548414944
 42
-0.4142135623730935
 10
730.9462463945647
 20
323.0671548414899
 10
734.4462463945744
 20
323.0671548414679
 42
-0.4142135623730951
 10
736.1962463945697
 20
321.317154841459
 10
736.1962463945745
 20
298.5671548414741
 42
-0.4142135623730951
 10
734.446246394576
 20
296.8171548414757
 10
716.4562463945558
 20
296.8171548414757
 42
0.4142135623730951
 10
714.7062463945573
 20
295.0671548414773
 10
714.7062463945573
 20
289.1171548414918
 42
-0.4142135623730951
 10
712.956246394559
 20
287.3671548414934
 10
685.6212463945767
 20
287.3671548415133
 42
0.4142135623730951
 10
683.8712463945783
 20
285.6171548415149
 10
683.8712463945682
 20
276.5171548414975
 42
-0.4142135623738496
 10
682.1212463945599
 20
274.7671548414997
 10
676.6962463945514
 20
274.7671548415196
 42
-0.4142135623719244
 10
674.946246394558
 20
276.5171548415199
 10
674.9462463945604
 20
299.077572833623
 42
0.2617284141759793
 10
674.1062463729512
 20
300.5723638020539
  0
LINE
  5
117
330
2
100
AcDbEntity
  8
LF-LINE
100
AcDbLine
 10
662.6962463945675
 20
276.5171548415402
 30
0.0
 11
656.3962463945737
 21
276.5171548415604
 31
0.0
  0
LWPOLYLINE
  5
118
330
2
100
AcDbEntity
  8
LF-LINE
100
AcDbPolyline
 90
       15
 70
     1
 43
0.0
 10
706.0001991600454
 20
273.5474422862218
 42
0.3284147831255589
 10
707.6712463945328
 20
272.3171548414567
 10
734.4462463945808
 20
272.3171548414781
 42
0.4142135623730712
 10
736.1962463945793
 20
274.0671548414765
 10
736.1962463945793
 20
288.0671548414836
 42
0.4142135623730569
 10
734.4462463945808
 20
289.8171548414818
 10
727.6562463945695
 20
289.8171548414822
 42
0.4142135623730951
 10
725.9062463945711
 20
288.0671548414836
 10
725.906246394566
 20
280.7171548414784
 42
-0.4142135623730951
 10
724.1562463945675
 20
278.96715484148
 10
696.1212463945596
 20
278.96715484148
 42
0.4142135623738514
 10
694.3712463945614
 20
277.2171548414816
 10
694.3712463945558
 20
276.4817976614787
 42
0.3563939586921905
 10
695.771246394543
 20
274.7671548415215
 10
704.5212463945448
 20
274.7671548414702
 42
-0.2982166266992529
  0
LWPOLYLINE
  5
119
330
2
100
AcDbEntity
  8
LF-LINE
100
AcDbPolyline
 90
        8
 70
     1
 43
0.0
 10
705.9212463945469
 20
249.2171548414393
 42
0.3563939586926327
 10
707.6358892144976
 20
247.8171548414405
 10
734.446246394576
 20
247.8171548414606
 42
0.4142135623731189
 10
736.1962463945745
 20
249.567154841459
 10
736.1962463945745
 20
263.567154841486
 42
0.4142135623730618
 10
734.446246394576
 20
265.3171548414845
 10
707.6358892145126
 20
265.3171548414845
 42
0.3563939586926327
 10
705.9212463945616
 20
263.9171548414856
  0
LWPOLYLINE
  5
11A
330
2
100
AcDbEntity
  8
LF-LINE
100
AcDbPolyline
 90
        8
 70
     1
 43
0.0
 10
705.9212463945469
 20
224.7171548414417
 42
0.3563939586926327
 10
707.6358892144976
 20
223.3171548414428
 10
734.446246394576
 20
223.317154841463
 42
0.4142135623731237
 10
736.1962463945745
 20
225.0671548414614
 10
736.1962463945745
 20
239.0671548414884
 42
0.4142135623730665
 10
734.446246394576
 20
240.8171548414868
 10
707.6358892145126
 20
240.8171548414868
 42
0.3563939586926327
 10
705.9212463945616
 20
239.417154841488
  0
LWPOLYLINE
  5
11B
330
2
100
AcDbEntity
  8
LF-LINE
100
AcDbPolyline
 90
        8
 70
     1
 43
0.0
 10
736.1962463945745
 20
200.567154841424
 10
736.1962463945745
 20
214.567154841451
 42
0.4142135623730665
 10
734.446246394576
 20
216.3171548414494
 10
707.6358892145126
 20
216.3171548414494
 42
0.3563939586926327
 10
705.9212463945616
 20
214.9171548414506
 10
705.9212463945469
 20
200.2171548414043
 42
0.3563939586926327
 10
707.6358892144976
 20
198.8171548414053
 10
734.446246394576
 20
198.8171548414256
 42
0.4142135623731237
  0
LWPOLYLINE
  5
11C
330
2
100
AcDbEntity
  8
LF-LINE
100
AcDbPolyline
 90
       15
 70
     1
 43
0.0
 10
695.7712463945448
 20
189.3671548414681
 10
704.5212463945452
 20
189.3671548415191
 42
0.2982166266992529
 10
706.0001991600456
 20
190.5868673967678
 42
-0.3284147831255589
 10
707.6712463945469
 20
191.8171548415326
 10
734.4462463945808
 20
191.8171548415115
 42
-0.4142135623730665
 10
736.1962463945793
 20
190.0671548415131
 10
736.1962463945793
 20
176.0671548415059
 42
-0.4142135623730571
 10
734.4462463945808
 20
174.3171548415075
 10
727.6562463945695
 20
174.3171548415075
 42
-0.4142135623730951
 10
725.9062463945711
 20
176.0671548415059
 10
725.906246394566
 20
183.4171548415112
 42
0.4142135623730951
 10
724.1562463945675
 20
185.1671548415096
 10
696.1212463945596
 20
185.1671548415096
 42
-0.4142135623738465
 10
694.3712463945614
 20
186.917154841508
 10
694.3712463945558
 20
187.6525120215102
 42
-0.3563939586921846
  0
LWPOLYLINE
  5
11D
330
2
100
AcDbEntity
  8
COIN-LINE
100
AcDbPolyline
 90
        8
 70
     1
 43
0.0
 10
705.9212463945634
 20
107.7978189955424
 10
704.9181210095156
 20
107.7978189955421
 42
0.4289413874733559
 10
702.421247965087
 20
105.1728189955412
 10
640.4712448240402
 20
105.1728189955412
 42
0.4289413874733556
 10
637.9743717796115
 20
107.7978189955421
 10
636.9712463945639
 20
107.7978189955424
 10
636.9712463945643
 20
109.3728189955412
 10
705.921246394564
 20
109.3728189955412
  0
LWPOLYLINE
  5
11E
330
2
100
AcDbEntity
  8
COIN-LINE
100
AcDbPolyline
 90
        8
 70
     1
 43
0.0
 10
786.6468925543776
 20
273.7640278066867
 42
0.428941387473353
 10
789.2718925543785
 20
271.2671547622578
 10
789.2718925543785
 20
192.8671549207317
 42
0.428941387473353
 10
786.6468925543776
 20
190.3702818763018
 10
786.6468925543772
 20
189.3671564912543
 10
785.0718925543787
 20
189.3671564912548
 10
785.0718925543787
 20
274.7671531917348
 10
786.6468925543772
 20
274.7671531917347
  0
ARC
  5
11F
330
2
100
AcDbEntity
  8
LF-LINE
100
AcDbCircle
 10
666.1962463945585
 20
184.9921548415137
 30
0.0
 40
1.750000000000899
100
AcDbArc
 50
0.0000000000818875
 51
66.42182152178161
  0
LINE
  5
120
330
2
100
AcDbEntity
  8
LF-LINE
100
AcDbLine
 10
667.9462463945593
 20
184.9921548415162
 30
0.0
 11
667.9462463945768
 21
165.0567367517993
 31
0.0
  0
ARC
  5
121
330
2
100
AcDbEntity
  8
LF-LINE
100
AcDbCircle
 10
669.6962463944681
 20
165.0567367519965
 30
0.0
 40
1.74999999989144
100
AcDbArc
 50
180.0000000064541
 51
238.6677485022314
  0
ARC
  5
122
330
2
100
AcDbEntity
  8
LF-LINE
100
AcDbCircle
 10
667.8762463944102
 20
162.0671548419745
 30
0.0
 40
1.74999999967162
100
AcDbArc
 50
336.9260819513954
 51
58.66774849165428
  0
ARC
  5
123
330
2
100
AcDbEntity
  8
LF-LINE
100
AcDbCircle
 10
671.0962463945643
 20
160.6954405872132
 30
0.0
 40
1.750000000000868
100
AcDbArc
 50
156.9260819553854
 51
180.0000000001358
  0
LINE
  5
124
330
2
100
AcDbEntity
  8
LF-LINE
100
AcDbLine
 10
669.3462463945636
 20
160.6954405872091
 30
0.0
 11
669.346246394576
 21
157.8671548415185
 31
0.0
  0
ARC
  5
125
330
2
100
AcDbEntity
  8
LF-LINE
100
AcDbCircle
 10
667.5962463945775
 20
157.8671548415186
 30
0.0
 40
1.749999999998493
100
AcDbArc
 50
269.9999999999219
 51
359.9999999999972
  0
LINE
  5
126
330
2
100
AcDbEntity
  8
LF-LINE
100
AcDbLine
 10
667.5962463945751
 20
156.1171548415201
 30
0.0
 11
608.4462463945612
 21
156.1171548414983
 31
0.0
  0
ARC
  5
127
330
2
100
AcDbEntity
  8
LF-LINE
100
AcDbCircle
 10
608.4462463945612
 20
157.8671548414968
 30
0.0
 40
1.749999999998493
100
AcDbArc
 50
179.9999999999413
 51
269.9999999999968
  0
LINE
  5
128
330
2
100
AcDbEntity
  8
LF-LINE
100
AcDbLine
 10
606.6962463945627
 20
157.8671548414986
 30
0.0
 11
606.6962463945704
 21
165.5671548414763
 31
0.0
  0
ARC
  5
129
330
2
100
AcDbEntity
  8
LF-LINE
100
AcDbCircle
 10
608.4462463945688
 20
165.5671548414735
 30
0.0
 40
1.749999999998408
100
AcDbArc
 50
89.99999999991855
 51
179.9999999999088
  0
LINE
  5
12A
330
2
100
AcDbEntity
  8
LF-LINE
100
AcDbLine
 10
608.4462463945712
 20
167.3171548414719
 30
0.0
 11
631.1962463945677
 21
167.3171548414722
 31
0.0
  0
ARC
  5
12B
330
2
100
AcDbEntity
  8
LF-LINE
100
AcDbCircle
 10
631.1962463945652
 20
169.0671548414709
 30
0.0
 40
1.749999999998635
100
AcDbArc
 50
270.0000000000879
 51
0.0000000000539713
  0
LINE
  5
12C
330
2
100
AcDbEntity
  8
LF-LINE
100
AcDbLine
 10
632.9462463945637
 20
169.0671548414725
 30
0.0
 11
632.9462463945612
 21
175.017154841491
 31
0.0
  0
ARC
  5
12D
330
2
100
AcDbEntity
  8
LF-LINE
100
AcDbCircle
 10
634.6962463945597
 20
175.0171548414889
 30
0.0
 40
1.749999999998343
100
AcDbArc
 50
89.99999999991532
 51
179.9999999999311
  0
LINE
  5
12E
330
2
100
AcDbEntity
  8
LF-LINE
100
AcDbLine
 10
634.6962463945621
 20
176.7671548414872
 30
0.0
 11
657.4462463945812
 21
176.7671548415074
 31
0.0
  0
ARC
  5
12F
330
2
100
AcDbEntity
  8
LF-LINE
100
AcDbCircle
 10
657.4462463945812
 20
178.5171548415059
 30
0.0
 40
1.749999999998493
100
AcDbArc
 50
270.0000000000033
 51
0.000000000058624
  0
LINE
  5
130
330
2
100
AcDbEntity
  8
LF-LINE
100
AcDbLine
 10
659.1962463945797
 20
178.5171548415076
 30
0.0
 11
659.1962463945698
 21
184.1171548415145
 31
0.0
  0
LINE
  5
131
330
2
100
AcDbEntity
  8
LF-LINE
100
AcDbLine
 10
659.1962463945698
 20
184.1171548415145
 30
0.0
 11
629.9712463945994
 21
184.1171548415126
 31
0.0
  0
ARC
  5
132
330
2
100
AcDbEntity
  8
LF-LINE
100
AcDbCircle
 10
629.9712463945873
 20
185.867154841509
 30
0.0
 40
1.749999999996311
100
AcDbArc
 50
180.000000000521
 51
270.0000000003941
  0
ARC
  5
133
330
2
100
AcDbEntity
  8
LF-LINE
100
AcDbCircle
 10
626.4712463945904
 20
185.8671548414914
 30
0.0
 40
1.750000000000659
100
AcDbArc
 50
0.0000000000530407
 51
90.00000000008792
  0
LINE
  5
134
330
2
100
AcDbEntity
  8
LF-LINE
100
AcDbLine
 10
626.4712463945876
 20
187.6171548414921
 30
0.0
 11
619.2962463945582
 21
187.6171548414715
 31
0.0
  0
LINE
  5
135
330
2
100
AcDbEntity
  8
LF-LINE
100
AcDbLine
 10
619.2962463945582
 20
187.6171548414715
 30
0.0
 11
619.2962463945757
 21
176.0671548415084
 31
0.0
  0
ARC
  5
136
330
2
100
AcDbEntity
  8
LF-LINE
100
AcDbCircle
 10
617.5462463945725
 20
176.0671548415094
 30
0.0
 40
1.750000000003153
100
AcDbArc
 50
270.0000000002378
 51
359.9999999999675
  0
LINE
  5
137
330
2
100
AcDbEntity
  8
LF-LINE
100
AcDbLine
 10
617.5462463945797
 20
174.3171548415063
 30
0.0
 11
608.4462463945712
 21
174.3171548414659
 31
0.0
  0
ARC
  5
138
330
2
100
AcDbEntity
  8
LF-LINE
100
AcDbCircle
 10
608.4462463945615
 20
176.0671548414645
 30
0.0
 40
1.749999999998639
100
AcDbArc
 50
179.9999999999459
 51
270.0000000003192
  0
LINE
  5
139
330
2
100
AcDbEntity
  8
LF-LINE
100
AcDbLine
 10
606.6962463945627
 20
176.0671548414661
 30
0.0
 11
606.6962463945502
 21
214.5671548414908
 31
0.0
  0
ARC
  5
13A
330
2
100
AcDbEntity
  8
LF-LINE
100
AcDbCircle
 10
608.4462463945533
 20
214.5671548414866
 30
0.0
 40
1.75000000000299
100
AcDbArc
 50
89.99999999990555
 51
179.9999999998604
  0
LINE
  5
13B
330
2
100
AcDbEntity
  8
LF-LINE
100
AcDbLine
 10
608.4462463945563
 20
216.3171548414895
 30
0.0
 11
628.2212463945612
 21
216.3171548414693
 31
0.0
  0
LINE
  5
13C
330
2
100
AcDbEntity
  8
LF-LINE
100
AcDbLine
 10
628.2212463945612
 20
216.3171548414693
 30
0.0
 11
628.2212463945512
 21
233.2921548414658
 31
0.0
  0
LINE
  5
13D
330
2
100
AcDbEntity
  8
LF-LINE
100
AcDbLine
 10
628.2212463945512
 20
233.2921548414658
 30
0.0
 11
619.8787991829256
 21
233.2921548414671
 31
0.0
  0
ARC
  5
13E
330
2
100
AcDbEntity
  8
LF-LINE
100
AcDbCircle
 10
619.8787991829252
 20
231.5421548414683
 30
0.0
 40
1.749999999998804
100
AcDbArc
 50
89.99999999999024
 51
162.4744316261532
  0
LINE
  5
13F
330
2
100
AcDbEntity
  8
LF-LINE
100
AcDbLine
 10
618.2100295189427
 20
232.0691347353614
 30
0.0
 11
615.8324632701546
 21
224.5401749475699
 31
0.0
  0
ARC
  5
140
330
2
100
AcDbEntity
  8
LF-LINE
100
AcDbCircle
 10
614.1636936061675
 20
225.0671548414651
 30
0.0
 40
1.75000000000395
100
AcDbArc
 50
270.0000000000652
 51
342.4744316261376
  0
LINE
  5
141
330
2
100
AcDbEntity
  8
LF-LINE
100
AcDbLine
 10
614.1636936061693
 20
223.3171548414611
 30
0.0
 11
608.4462463945513
 21
223.3171548414611
 31
0.0
  0
ARC
  5
142
330
2
100
AcDbEntity
  8
LF-LINE
100
AcDbCircle
 10
608.4462463945564
 20
225.0671548414597
 30
0.0
 40
1.749999999998639
100
AcDbArc
 50
179.9999999999459
 51
269.9999999998307
  0
LINE
  5
143
330
2
100
AcDbEntity
  8
LF-LINE
100
AcDbLine
 10
606.6962463945579
 20
225.0671548414614
 30
0.0
 11
606.6962463945554
 21
239.0671548415083
 31
0.0
  0
ARC
  5
144
330
2
100
AcDbEntity
  8
LF-LINE
100
AcDbCircle
 10
608.4462463945538
 20
239.0671548415071
 30
0.0
 40
1.749999999998408
100
AcDbArc
 50
89.99999999991855
 51
179.9999999999591
  0
LINE
  5
145
330
2
100
AcDbEntity
  8
LF-LINE
100
AcDbLine
 10
608.4462463945563
 20
240.8171548415055
 30
0.0
 11
615.5317011921765
 21
240.817154841508
 31
0.0
  0
ARC
  5
146
330
2
100
AcDbEntity
  8
LF-LINE
100
AcDbCircle
 10
615.5317011921814
 20
239.067154841513
 30
0.0
 40
1.749999999994966
100
AcDbArc
 50
32.27564431407066
 51
90.00000000016283
  0
LINE
  5
147
330
2
100
AcDbEntity
  8
LF-LINE
100
AcDbLine
 10
617.0113067724899
 20
240.0016425764262
 30
0.0
 11
618.0811860166002
 21
238.307667106549
 31
0.0
  0
ARC
  5
148
330
2
100
AcDbEntity
  8
LF-LINE
100
AcDbCircle
 10
619.5607915969108
 20
239.2421548414653
 30
0.0
 40
1.749999999998696
100
AcDbArc
 50
212.275644314114
 51
270.0000000000814
  0
LINE
  5
149
330
2
100
AcDbEntity
  8
LF-LINE
100
AcDbLine
 10
619.5607915969134
 20
237.4921548414666
 30
0.0
 11
628.2212463945661
 21
237.4921548414461
 31
0.0
  0
LINE
  5
14A
330
2
100
AcDbEntity
  8
LF-LINE
100
AcDbLine
 10
628.2212463945661
 20
237.4921548414461
 30
0.0
 11
628.2212463945661
 21
254.4671548415023
 31
0.0
  0
LINE
  5
14B
330
2
100
AcDbEntity
  8
LF-LINE
100
AcDbLine
 10
628.2212463945661
 20
254.4671548415023
 30
0.0
 11
619.8787991829431
 21
254.4671548415035
 31
0.0
  0
ARC
  5
14C
330
2
100
AcDbEntity
  8
LF-LINE
100
AcDbCircle
 10
619.8787991829354
 20
252.7171548415047
 30
0.0
 40
1.749999999998805
100
AcDbArc
 50
89.9999999997525
 51
162.4744316261747
  0
LINE
  5
14D
330
2
100
AcDbEntity
  8
LF-LINE
100
AcDbLine
 10
618.2100295189528
 20
253.2441347353973
 30
0.0
 11
616.8824632701895
 21
249.0401749476097
 31
0.0
  0
ARC
  5
14E
330
2
100
AcDbEntity
  8
LF-LINE
100
AcDbCircle
 10
615.2136936062041
 20
249.5671548414996
 30
0.0
 40
1.750000000000454
100
AcDbArc
 50
270.0
 51
342.4744316262835
  0
LINE
  5
14F
330
2
100
AcDbEntity
  8
LF-LINE
100
AcDbLine
 10
615.2136936062041
 20
247.8171548414991
 30
0.0
 11
608.4462463945662
 21
247.8171548414985
 31
0.0
  0
ARC
  5
150
330
2
100
AcDbEntity
  8
LF-LINE
100
AcDbCircle
 10
608.4462463945665
 20
249.5671548414971
 30
0.0
 40
1.749999999998639
100
AcDbArc
 50
179.9999999999459
 51
269.9999999999935
  0
LINE
  5
151
330
2
100
AcDbEntity
  8
LF-LINE
100
AcDbLine
 10
606.6962463945677
 20
249.5671548414988
 30
0.0
 11
606.6962463945652
 21
263.5671548415258
 31
0.0
  0
ARC
  5
152
330
2
100
AcDbEntity
  8
LF-LINE
100
AcDbCircle
 10
608.4462463945682
 20
263.5671548415213
 30
0.0
 40
1.750000000003011
100
AcDbArc
 50
90.00000000023122
 51
179.9999999998492
  0
LINE
  5
153
330
2
100
AcDbEntity
  8
LF-LINE
100
AcDbLine
 10
608.4462463945612
 20
265.3171548415242
 30
0.0
 11
615.2136936061816
 21
265.3171548415653
 31
0.0
  0
ARC
  5
154
330
2
100
AcDbEntity
  8
LF-LINE
100
AcDbCircle
 10
615.2136936061871
 20
263.5671548415612
 30
0.0
 40
1.750000000004092
100
AcDbArc
 50
17.52556837331141
 51
90.00000000017264
  0
LINE
  5
155
330
2
100
AcDbEntity
  8
LF-LINE
100
AcDbLine
 10
616.8824632701796
 20
264.0941347354404
 30
0.0
 11
618.2100295189477
 21
259.8901749476177
 31
0.0
  0
ARC
  5
156
330
2
100
AcDbEntity
  8
LF-LINE
100
AcDbCircle
 10
619.8787991829354
 20
260.417154841503
 30
0.0
 40
1.750000000001473
100
AcDbArc
 50
197.5255683735492
 51
270.0000000001629
  0
LINE
  5
157
330
2
100
AcDbEntity
  8
LF-LINE
100
AcDbLine
 10
619.8787991829406
 20
258.6671548415016
 30
0.0
 11
628.2212463945562
 21
258.6671548414825
 31
0.0
  0
LINE
  5
158
330
2
100
AcDbEntity
  8
LF-LINE
100
AcDbLine
 10
628.2212463945562
 20
258.6671548414825
 30
0.0
 11
628.2212463945586
 21
275.4671548415231
 31
0.0
  0
LINE
  5
159
330
2
100
AcDbEntity
  8
LF-LINE
100
AcDbLine
 10
628.2212463945586
 20
275.4671548415231
 30
0.0
 11
625.233809527484
 21
278.4545917085964
 31
0.0
  0
ARC
  5
15A
330
2
100
AcDbEntity
  8
LF-LINE
100
AcDbCircle
 10
623.9963726604076
 20
277.2171548415201
 30
0.0
 40
1.749999999999714
100
AcDbArc
 50
45.00000000000372
 51
90.00000000000325
  0
LINE
  5
15B
330
2
100
AcDbEntity
  8
LF-LINE
100
AcDbLine
 10
623.9963726604076
 20
278.9671548415198
 30
0.0
 11
619.8787991829431
 21
278.967154841521
 31
0.0
  0
ARC
  5
15C
330
2
100
AcDbEntity
  8
LF-LINE
100
AcDbCircle
 10
619.8787991829354
 20
277.2171548415222
 30
0.0
 40
1.749999999998805
100
AcDbArc
 50
89.9999999997525
 51
162.4744316261747
  0
LINE
  5
15D
330
2
100
AcDbEntity
  8
LF-LINE
100
AcDbLine
 10
618.2100295189528
 20
277.7441347354148
 30
0.0
 11
616.8052198950602
 21
273.295570926389
 31
0.0
  0
ARC
  5
15E
330
2
100
AcDbEntity
  8
LF-LINE
100
AcDbCircle
 10
615.4702041638731
 20
273.7171548414955
 30
0.0
 40
1.399999999997477
100
AcDbArc
 50
269.9999999999251
 51
342.4744316264802
  0
LINE
  5
15F
330
2
100
AcDbEntity
  8
LF-LINE
100
AcDbLine
 10
615.4702041638714
 20
272.317154841498
 30
0.0
 11
608.4462463945538
 21
272.3171548414961
 31
0.0
  0
ARC
  5
160
330
2
100
AcDbEntity
  8
LF-LINE
100
AcDbCircle
 10
608.446246394564
 20
274.0671548414947
 30
0.0
 40
1.749999999998639
100
AcDbArc
 50
179.9999999999459
 51
269.9999999996678
  0
LINE
  5
161
330
2
100
AcDbEntity
  8
LF-LINE
100
AcDbLine
 10
606.6962463945652
 20
274.0671548414964
 30
0.0
 11
606.6962463945652
 21
288.0671548415433
 31
0.0
  0
ARC
  5
162
330
2
100
AcDbEntity
  8
LF-LINE
100
AcDbCircle
 10
608.4462463945637
 20
288.0671548415421
 30
0.0
 40
1.749999999998408
100
AcDbArc
 50
89.99999999991855
 51
179.9999999999591
  0
LINE
  5
163
330
2
100
AcDbEntity
  8
LF-LINE
100
AcDbLine
 10
608.4462463945662
 20
289.8171548415405
 30
0.0
 11
615.4702041638739
 21
289.8171548415417
 31
0.0
  0
ARC
  5
164
330
2
100
AcDbEntity
  8
LF-LINE
100
AcDbCircle
 10
615.4702041638711
 20
288.417154841542
 30
0.0
 40
1.399999999999752
100
AcDbArc
 50
17.52556837351958
 51
89.99999999988274
  0
LINE
  5
165
330
2
100
AcDbEntity
  8
LF-LINE
100
AcDbLine
 10
616.8052198950602
 20
288.8387387566492
 30
0.0
 11
618.2100295189477
 21
284.3901749476352
 31
0.0
  0
ARC
  5
166
330
2
100
AcDbEntity
  8
LF-LINE
100
AcDbCircle
 10
619.8787991829354
 20
284.9171548415205
 30
0.0
 40
1.750000000001473
100
AcDbArc
 50
197.5255683735492
 51
270.0000000001629
  0
LINE
  5
167
330
2
100
AcDbEntity
  8
LF-LINE
100
AcDbLine
 10
619.8787991829406
 20
283.167154841519
 30
0.0
 11
627.0050183796406
 21
283.1671548415199
 31
0.0
  0
ARC
  5
168
330
2
100
AcDbEntity
  8
LF-LINE
100
AcDbCircle
 10
627.0050183793992
 20
281.41715484174
 30
0.0
 40
1.74999999978001
100
AcDbArc
 50
5.739170470279133
 51
89.99999999210205
  0
ARC
  5
169
330
2
100
AcDbEntity
  8
LF-LINE
100
AcDbCircle
 10
630.4874744090715
 20
281.7671548415341
 30
0.0
 40
1.749999999999372
100
AcDbArc
 50
185.7391704782082
 51
269.9999999999968
  0
LINE
  5
16A
330
2
100
AcDbEntity
  8
LF-LINE
100
AcDbLine
 10
630.4874744090713
 20
280.0171548415347
 30
0.0
 11
635.7462463945722
 21
280.0171548415347
 31
0.0
  0
LINE
  5
16B
330
2
100
AcDbEntity
  8
LF-LINE
100
AcDbLine
 10
635.7462463945722
 20
280.0171548415347
 30
0.0
 11
635.7462463945896
 21
289.7922811073076
 31
0.0
  0
ARC
  5
16C
330
2
100
AcDbEntity
  8
LF-LINE
100
AcDbCircle
 10
633.9962463945883
 20
289.7922811073097
 30
0.0
 40
1.750000000001303
100
AcDbArc
 50
359.9999999999367
 51
44.99999999991685
  0
LINE
  5
16D
330
2
100
AcDbEntity
  8
LF-LINE
100
AcDbLine
 10
635.2336832616673
 20
291.0297179743852
 30
0.0
 11
629.4462463945968
 21
296.817154841473
 31
0.0
  0
LINE
  5
16E
330
2
100
AcDbEntity
  8
LF-LINE
100
AcDbLine
 10
629.4462463945968
 20
296.817154841473
 30
0.0
 11
608.4462463945712
 21
296.8171548415155
 31
0.0
  0
ARC
  5
16F
330
2
100
AcDbEntity
  8
LF-LINE
100
AcDbCircle
 10
608.4462463945761
 20
298.5671548415163
 30
0.0
 40
1.750000000000742
100
AcDbArc
 50
180.000000000065
 51
269.9999999998437
  0
LINE
  5
170
330
2
100
AcDbEntity
  8
LF-LINE
100
AcDbLine
 10
606.6962463945754
 20
298.5671548415142
 30
0.0
 11
606.6962463945825
 21
321.317154841459
 31
0.0
  0
ARC
  5
171
330
2
100
AcDbEntity
  8
LF-LINE
100
AcDbCircle
 10
608.44624639457
 20
321.3171548414761
 30
0.0
 40
1.749999999987372
100
AcDbArc
 50
90.00000000056019
 51
180.0000000005582
  0
LINE
  5
172
330
2
100
AcDbEntity
  8
LF-LINE
100
AcDbLine
 10
608.4462463945527
 20
323.0671548414634
 30
0.0
 11
611.9462463945628
 21
323.0671548414855
 31
0.0
  0
ARC
  5
173
330
2
100
AcDbEntity
  8
LF-LINE
100
AcDbCircle
 10
611.9462463945692
 20
321.3171548414877
 30
0.0
 40
1.749999999997833
100
AcDbArc
 50
0.0000000002196073
 51
90.0000000002182
  0
LINE
  5
174
330
2
100
AcDbEntity
  8
LF-LINE
100
AcDbLine
 10
613.696246394567
 20
321.3171548414944
 30
0.0
 11
613.6962463945637
 21
305.5671548415101
 31
0.0
  0
ARC
  5
175
330
2
100
AcDbEntity
  8
LF-LINE
100
AcDbCircle
 10
615.4462463945638
 20
305.5671548415101
 30
0.0
 40
1.750000000000056
100
AcDbArc
 50
180.0000000000018
 51
270.0000000000033
  0
LINE
  5
176
330
2
100
AcDbEntity
  8
LF-LINE
100
AcDbLine
 10
615.446246394564
 20
303.8171548415101
 30
0.0
 11
618.5262463945633
 21
303.8171548415098
 31
0.0
  0
ARC
  5
177
330
2
100
AcDbEntity
  8
LF-LINE
100
AcDbCircle
 10
618.5262463945636
 20
305.5671548415098
 30
0.0
 40
1.75
100
AcDbArc
 50
270.0
 51
359.999999999998
  0
LINE
  5
178
330
2
100
AcDbEntity
  8
LF-LINE
100
AcDbLine
 10
620.2762463945636
 20
305.5671548415098
 30
0.0
 11
620.2762463945633
 21
316.0671548415085
 31
0.0
  0
ARC
  5
179
330
2
100
AcDbEntity
  8
LF-LINE
100
AcDbCircle
 10
622.0262463945636
 20
316.0671548415085
 30
0.0
 40
1.750000000000049
100
AcDbArc
 50
90.0
 51
180.0
  0
LINE
  5
17A
330
2
100
AcDbEntity
  8
LF-LINE
100
AcDbLine
 10
622.0262463945633
 20
317.8171548415086
 30
0.0
 11
652.9662463945627
 21
317.8171548415091
 31
0.0
  0
ARC
  5
17B
330
2
100
AcDbEntity
  8
LF-LINE
100
AcDbCircle
 10
652.9662463945627
 20
316.0671548415091
 30
0.0
 40
1.75
100
AcDbArc
 50
0.0
 51
90.0
  0
LINE
  5
17C
330
2
100
AcDbEntity
  8
LF-LINE
100
AcDbLine
 10
654.7162463945627
 20
316.0671548415091
 30
0.0
 11
654.7162463945627
 21
305.5671548415101
 31
0.0
  0
ARC
  5
17D
330
2
100
AcDbEntity
  8
LF-LINE
100
AcDbCircle
 10
656.4662463945627
 20
305.5671548415101
 30
0.0
 40
1.75
100
AcDbArc
 50
180.0
 51
270.0
  0
LINE
  5
17E
330
2
100
AcDbEntity
  8
LF-LINE
100
AcDbLine
 10
656.4662463945627
 20
303.8171548415101
 30
0.0
 11
667.8762463944129
 21
303.8171548406813
 31
0.0
  0
ARC
  5
17F
330
2
100
AcDbEntity
  8
LF-LINE
100
AcDbCircle
 10
667.8762463944129
 20
302.0671548410096
 30
0.0
 40
1.749999999671743
100
AcDbArc
 50
301.3322515037665
 51
90.0
  0
ARC
  5
180
330
2
100
AcDbEntity
  8
LF-LINE
100
AcDbCircle
 10
669.6962463945642
 20
299.0775729309173
 30
0.0
 40
1.749999999999989
100
AcDbArc
 50
121.3322515037696
 51
179.999999999987
  0
LINE
  5
181
330
2
100
AcDbEntity
  8
LF-LINE
100
AcDbLine
 10
667.9462463945642
 20
299.0775729309177
 30
0.0
 11
667.9462463945593
 21
276.5171548415373
 31
0.0
  0
ARC
  5
182
330
2
100
AcDbEntity
  8
LF-LINE
100
AcDbCircle
 10
666.1962463945635
 20
276.5171548415379
 30
0.0
 40
1.749999999995849
100
AcDbArc
 50
269.9999999995082
 51
359.9999999999814
  0
LINE
  5
183
330
2
100
AcDbEntity
  8
LF-LINE
100
AcDbLine
 10
666.1962463945484
 20
274.7671548415421
 30
0.0
 11
664.4462463945559
 21
274.7671548415348
 31
0.0
  0
ARC
  5
184
330
2
100
AcDbEntity
  8
LF-LINE
100
AcDbCircle
 10
664.4462463945663
 20
276.5171548415365
 30
0.0
 40
1.749999999998805
100
AcDbArc
 50
179.9999999999516
 51
269.9999999996613
  0
LINE
  5
185
330
2
100
AcDbEntity
  8
LF-LINE
100
AcDbLine
 10
662.6962463945675
 20
276.5171548415379
 30
0.0
 11
662.6962463945625
 21
292.9671548415273
 31
0.0
  0
ARC
  5
186
330
2
100
AcDbEntity
  8
LF-LINE
100
AcDbCircle
 10
660.9462463945638
 20
292.9671548415263
 30
0.0
 40
1.749999999998465
100
AcDbArc
 50
0.0000000000334994
 51
90.00000000007814
  0
LINE
  5
187
330
2
100
AcDbEntity
  8
LF-LINE
100
AcDbLine
 10
660.9462463945616
 20
294.7171548415247
 30
0.0
 11
644.4962463945991
 21
294.7171548415253
 31
0.0
  0
LINE
  5
188
330
2
100
AcDbEntity
  8
LF-LINE
100
AcDbLine
 10
644.4962463945991
 20
294.7171548415253
 30
0.0
 11
644.4962463945715
 21
280.0171548415347
 31
0.0
  0
LINE
  5
189
330
2
100
AcDbEntity
  8
LF-LINE
100
AcDbLine
 10
644.4962463945715
 20
280.0171548415347
 30
0.0
 11
650.4462463945777
 21
280.0171548415329
 31
0.0
  0
ARC
  5
18A
330
2
100
AcDbEntity
  8
LF-LINE
100
AcDbCircle
 10
650.4462463945729
 20
281.7671548415337
 30
0.0
 40
1.750000000000809
100
AcDbArc
 50
270.0000000001596
 51
359.9999999999832
  0
LINE
  5
18B
330
2
100
AcDbEntity
  8
LF-LINE
100
AcDbLine
 10
652.1962463945738
 20
281.7671548415331
 30
0.0
 11
652.1962463945811
 21
286.6671548415177
 31
0.0
  0
ARC
  5
18C
330
2
100
AcDbEntity
  8
LF-LINE
100
AcDbCircle
 10
653.9462463945868
 20
286.6671548415115
 30
0.0
 40
1.75000000000586
100
AcDbArc
 50
90.00000000016283
 51
179.9999999997971
  0
LINE
  5
18D
330
2
100
AcDbEntity
  8
LF-LINE
100
AcDbLine
 10
653.9462463945819
 20
288.4171548415173
 30
0.0
 11
654.6462463945431
 21
288.4171548415164
 31
0.0
  0
ARC
  5
18E
330
2
100
AcDbEntity
  8
LF-LINE
100
AcDbCircle
 10
654.6462463945674
 20
286.6671548415176
 30
0.0
 40
1.749999999998805
100
AcDbArc
 50
359.999999999972
 51
90.00000000080119
  0
LINE
  5
18F
330
2
100
AcDbEntity
  8
LF-LINE
100
AcDbLine
 10
656.3962463945663
 20
286.6671548415168
 30
0.0
 11
656.3962463945737
 21
276.5171548415604
 31
0.0
  0
ARC
  5
190
330
2
100
AcDbEntity
  8
LF-LINE
100
AcDbCircle
 10
654.6462463945729
 20
276.5171548415601
 30
0.0
 40
1.750000000001015
100
AcDbArc
 50
270.0000000001661
 51
0.0000000000074443
  0
LINE
  5
191
330
2
100
AcDbEntity
  8
LF-LINE
100
AcDbLine
 10
654.6462463945778
 20
274.7671548415591
 30
0.0
 11
639.7712463945468
 21
274.7671548415091
 31
0.0
  0
ARC
  5
192
330
2
100
AcDbEntity
  8
LF-LINE
100
AcDbCircle
 10
639.7712463945563
 20
271.9671548415084
 30
0.0
 40
2.800000000000693
100
AcDbArc
 50
90.00000000019863
 51
179.9999999999918
  0
LINE
  5
193
330
2
100
AcDbEntity
  8
LF-LINE
100
AcDbLine
 10
636.9712463945557
 20
271.9671548415088
 30
0.0
 11
636.9712463945679
 21
201.6171548414607
 31
0.0
  0
ARC
  5
194
330
2
100
AcDbEntity
  8
LF-LINE
100
AcDbCircle
 10
635.2212463945672
 20
201.617154841461
 30
0.0
 40
1.75000000000054
100
AcDbArc
 50
269.9999999999968
 51
359.9999999999916
  0
LINE
  5
195
330
2
100
AcDbEntity
  8
LF-LINE
100
AcDbLine
 10
635.2212463945672
 20
199.8671548414604
 30
0.0
 11
625.4212463945377
 21
199.8671548414604
 31
0.0
  0
ARC
  5
196
330
2
100
AcDbEntity
  8
LF-LINE
100
AcDbCircle
 10
625.4212463945356
 20
201.6171548414591
 30
0.0
 40
1.749999999998643
100
AcDbArc
 50
180.0000000001292
 51
270.0000000000749
  0
LINE
  5
197
330
2
100
AcDbEntity
  8
LF-LINE
100
AcDbLine
 10
623.6712463945369
 20
201.6171548414551
 30
0.0
 11
623.6712463945345
 21
202.3171548414423
 31
0.0
  0
ARC
  5
198
330
2
100
AcDbEntity
  8
LF-LINE
100
AcDbCircle
 10
625.4212463945324
 20
202.3171548414439
 30
0.0
 40
1.749999999998016
100
AcDbArc
 50
89.99999999982412
 51
180.0000000000538
  0
LINE
  5
199
330
2
100
AcDbEntity
  8
LF-LINE
100
AcDbLine
 10
625.4212463945377
 20
204.0671548414419
 30
0.0
 11
629.9712463945645
 21
204.0671548414208
 31
0.0
  0
ARC
  5
19A
330
2
100
AcDbEntity
  8
LF-LINE
100
AcDbCircle
 10
629.9712463945698
 20
205.8171548414215
 30
0.0
 40
1.75000000000066
100
AcDbArc
 50
269.9999999998307
 51
359.9999999999265
  0
LINE
  5
19B
330
2
100
AcDbEntity
  8
LF-LINE
100
AcDbLine
 10
631.7212463945703
 20
205.8171548414192
 30
0.0
 11
631.7212463945653
 21
212.1171548414459
 31
0.0
  0
LINE
  5
19C
330
2
100
AcDbEntity
  8
LF-LINE
100
AcDbLine
 10
631.7212463945653
 20
212.1171548414459
 30
0.0
 11
619.1212463945277
 21
212.1171548414692
 31
0.0
  0
ARC
  5
19D
330
2
100
AcDbEntity
  8
LF-LINE
100
AcDbCircle
 10
619.1212463945252
 20
210.3671548414706
 30
0.0
 40
1.749999999998556
100
AcDbArc
 50
89.99999999992509
 51
180.0000000001172
  0
LINE
  5
19E
330
2
100
AcDbEntity
  8
LF-LINE
100
AcDbLine
 10
617.3712463945268
 20
210.367154841467
 30
0.0
 11
617.3712463945592
 21
192.8671548414867
 31
0.0
  0
LINE
  5
19F
330
2
100
AcDbEntity
  8
LF-LINE
100
AcDbLine
 10
617.3712463945592
 20
192.8671548414867
 30
0.0
 11
635.2212463945682
 21
192.8671548414867
 31
0.0
  0
ARC
  5
1A0
330
2
100
AcDbEntity
  8
LF-LINE
100
AcDbCircle
 10
635.2212463945682
 20
191.1171548414867
 30
0.0
 40
1.75
100
AcDbArc
 50
0.0
 51
90.0
  0
LINE
  5
1A1
330
2
100
AcDbEntity
  8
LF-LINE
100
AcDbLine
 10
636.971246394568
 20
191.1171548414867
 30
0.0
 11
636.971246394568
 21
191.0817976614604
 31
0.0
  0
ARC
  5
1A2
330
2
100
AcDbEntity
  8
LF-LINE
100
AcDbCircle
 10
638.721246394568
 20
191.0817976614604
 30
0.0
 40
1.750000000000011
100
AcDbArc
 50
180.0
 51
258.4630409675773
  0
LINE
  5
1A3
330
2
100
AcDbEntity
  8
LF-LINE
100
AcDbLine
 10
638.3712463945799
 20
189.3671548415097
 30
0.0
 11
665.1462463945583
 21
189.3671548414878
 31
0.0
  0
ARC
  5
1A4
330
2
100
AcDbEntity
  8
LF-LINE
100
AcDbCircle
 10
665.1462463945563
 20
187.6171548414871
 30
0.0
 40
1.750000000000652
100
AcDbArc
 50
0.0000000000083749
 51
89.99999999992509
  0
LINE
  5
1A5
330
2
100
AcDbEntity
  8
LF-LINE
100
AcDbLine
 10
666.8962463945567
 20
187.6171548414873
 30
0.0
 11
666.8962463945592
 21
186.5960563347489
 31
0.0
  0
ENDSEC
  0
SECTION
  2
OBJECTS
  0
DICTIONARY
  5
D
330
0
100
AcDbDictionary
281
     1
  3
ACAD_COLOR
350
44
  3
ACAD_GROUP
350
31
  3
ACAD_LAYOUT
350
1A
  3
ACAD_MATERIAL
350
F
  3
ACAD_MLEADERSTYLE
350
47
  3
ACAD_MLINESTYLE
350
32
  3
ACAD_PLOTSETTINGS
350
33
  3
ACAD_PLOTSTYLENAME
350
C
  3
ACAD_SCALELIST
350
45
  3
ACAD_TABLESTYLE
350
46
  3
ACAD_VISUALSTYLE
350
2B
  3
ACDB_RECOMPOSE_DATA
350
1A9
  3
AcDbVariableDictionary
350
48
  0
DICTIONARY
  5
7
330
6
100
AcDbDictionary
280
     1
281
     1
  3
ACAD_LAYOUT
360
8
  3
ACDBVARIABLEDICTIONARY
360
9
  3
ADSK_XREC_LAYER_RECONCILED
360
A
  0
DICTIONARY
  5
6F
330
6E
100
AcDbDictionary
280
     1
281
     1
  3
ADSK_XREC_LAYER_RECONCILED
360
70
  0
DICTIONARY
  5
AB
330
AA
100
AcDbDictionary
280
     1
281
     1
  3
ADSK_XREC_LAYER_RECONCILED
360
AC
  0
DICTIONARY
  5
77
330
76
100
AcDbDictionary
280
     1
281
     1
  3
ADSK_XREC_LAYER_RECONCILED
360
78
  0
DICTIONARY
  5
103
330
102
100
AcDbDictionary
280
     1
281
     1
  3
ADSK_XREC_LAYER_RECONCILED
360
104
  0
DICTIONARY
  5
3
330
2
100
AcDbDictionary
280
     1
281
     1
  3
ACAD_SORTENTS
360
1A6
  0
DICTIONARY
  5
A8
330
A7
100
AcDbDictionary
280
     1
281
     1
  0
DICTIONARY
  5
C7
330
C6
100
AcDbDictionary
280
     1
281
     1
  0
DICTIONARY
  5
EC
330
EB
100
AcDbDictionary
280
     1
281
     1
  0
DICTIONARY
  5
EE
330
ED
100
AcDbDictionary
280
     1
281
     1
  0
DICTIONARY
  5
44
102
{ACAD_REACTORS
330
D
102
}
330
D
100
AcDbDictionary
281
     1
  0
DICTIONARY
  5
31
102
{ACAD_REACTORS
330
D
102
}
330
D
100
AcDbDictionary
281
     1
  0
DICTIONARY
  5
1A
102
{ACAD_REACTORS
330
D
102
}
330
D
100
AcDbDictionary
281
     1
  3
Layout1
350
1E
  3
Model
350
19
  0
DICTIONARY
  5
F
102
{ACAD_REACTORS
330
D
102
}
330
D
100
AcDbDictionary
281
     1
  3
ByBlock
350
3C
  3
ByLayer
350
34
  3
Global
350
E
  0
DICTIONARY
  5
47
102
{ACAD_REACTORS
330
D
102
}
330
D
100
AcDbDictionary
281
     1
  0
DICTIONARY
  5
32
102
{ACAD_REACTORS
330
D
102
}
330
D
100
AcDbDictionary
281
     1
  3
Standard
350
56
  0
DICTIONARY
  5
33
102
{ACAD_REACTORS
330
D
102
}
330
D
100
AcDbDictionary
281
     1
  0
ACDBDICTIONARYWDFLT
  5
C
102
{ACAD_REACTORS
330
D
102
}
330
D
100
AcDbDictionary
281
     1
  3
Normal
350
B
100
AcDbDictionaryWithDefault
340
B
  0
DICTIONARY
  5
45
102
{ACAD_REACTORS
330
D
102
}
330
D
100
AcDbDictionary
281
     1
  3
A0
350
5C
  3
A1
350
5D
  3
A2
350
5E
  3
A3
350
5F
  3
A4
350
60
  3
A5
350
61
  3
A6
350
62
  3
A7
350
63
  3
A8
350
64
  3
A9
350
65
  3
B0
350
66
  3
B1
350
67
  3
B2
350
68
  3
B3
350
69
  3
B4
350
6A
  3
B5
350
6B
  3
B6
350
6C
  0
DICTIONARY
  5
46
102
{ACAD_REACTORS
330
D
102
}
330
D
100
AcDbDictionary
281
     1
  3
Standard
350
57
  0
DICTIONARY
  5
2B
102
{ACAD_REACTORS
330
D
102
}
330
D
100
AcDbDictionary
281
     1
  3
2dWireframe
350
2A
  3
EdgeColorOff
350
81
  3
Realistic
350
59
  3
Wireframe
350
5A
  0
XRECORD
  5
1A9
102
{ACAD_REACTORS
330
D
102
}
330
D
100
AcDbXrecord
280
     1
 90
        1
330
57
  0
DICTIONARY
  5
48
102
{ACAD_REACTORS
330
D
102
}
330
D
100
AcDbDictionary
281
     1
  3
CANNOSCALE
350
49
  3
CMLEADERSTYLE
350
4A
  3
CTABLESTYLE
350
4B
  3
CVIEWDETAILSTYLE
350
4C
  3
CVIEWSECTIONSTYLE
350
4D
  3
DIMASSOC
350
4E
  3
HIDETEXT
350
4F
  3
LAYEREVAL
350
50
  3
LAYERNOTIFY
350
51
  3
LIGHTINGUNITS
350
52
  3
MSLTSCALE
350
53
  3
PROJECTNAME
350
54
  0
DICTIONARY
  5
8
102
{ACAD_REACTORS
330
7
102
}
330
7
100
AcDbDictionary
281
     1
  0
DICTIONARY
  5
9
102
{ACAD_REACTORS
330
7
102
}
330
7
100
AcDbDictionary
281
     1
  0
XRECORD
  5
A
102
{ACAD_REACTORS
330
7
102
}
330
7
100
AcDbXrecord
280
     1
290
     1
  0
XRECORD
  5
70
102
{ACAD_REACTORS
330
6F
102
}
330
6F
100
AcDbXrecord
280
     1
290
     1
  0
XRECORD
  5
AC
102
{ACAD_REACTORS
330
AB
102
}
330
AB
100
AcDbXrecord
280
     1
290
     1
  0
XRECORD
  5
78
102
{ACAD_REACTORS
330
77
102
}
330
77
100
AcDbXrecord
280
     1
290
     1
  0
XRECORD
  5
104
102
{ACAD_REACTORS
330
103
102
}
330
103
100
AcDbXrecord
280
     1
290
     1
  0
SORTENTSTABLE
  5
1A6
102
{ACAD_REACTORS
330
3
102
}
330
3
100
AcDbSortentsTable
330
2
  0
LAYOUT
  5
1E
102
{ACAD_REACTORS
330
1A
102
}
330
1A
100
AcDbPlotSettings
  1

  2
None
  4

  6

 40
0.0
 41
0.0
 42
0.0
 43
0.0
 44
0.0
 45
0.0
 46
0.0
 47
0.0
 48
0.0
 49
0.0
140
0.0
141
0.0
142
1.0
143
1.0
 70
   688
 72
     0
 73
     0
 74
     0
  7

 75
     0
147
1.0
 76
     0
 77
     2
 78
   300
148
0.0
149
0.0
100
AcDbLayout
  1
Layout1
 70
     0
 71
     1
 10
0.0
 20
0.0
 11
0.0
 21
0.0
 12
0.0
 22
0.0
 32
0.0
 14
0.0
 24
0.0
 34
0.0
 15
0.0
 25
0.0
 35
0.0
146
0.0
 13
0.0
 23
0.0
 33
0.0
 16
1.0
 26
0.0
 36
0.0
 17
0.0
 27
1.0
 37
0.0
 76
     0
330
1B
  0
LAYOUT
  5
19
102
{ACAD_REACTORS
330
1A
102
}
330
1A
100
AcDbPlotSettings
  1

  2
None
  4

  6

 40
0.0
 41
0.0
 42
0.0
 43
0.0
 44
0.0
 45
0.0
 46
0.0
 47
0.0
 48
0.0
 49
0.0
140
0.0
141
0.0
142
1.0
143
1.0
 70
 11952
 72
     0
 73
     0
 74
     0
  7

 75
     0
147
1.0
 76
     0
 77
     2
 78
   300
148
0.0
149
0.0
100
AcDbLayout
  1
Model
 70
     1
 71
     0
 10
0.0
 20
0.0
 11
0.0
 21
0.0
 12
0.0
 22
0.0
 32
0.0
 14
5.0
 24
8.999999999999943
 34
0.0
 15
277.0
 25
392.0
 35
0.0
146
0.0
 13
0.0
 23
0.0
 33
0.0
 16
1.0
 26
0.0
 36
0.0
 17
0.0
 27
1.0
 37
0.0
 76
     0
330
2
331
29
  0
MATERIAL
  5
3C
102
{ACAD_XDICTIONARY
360
3D
102
}
102
{ACAD_REACTORS
330
F
102
}
330
F
100
AcDbMaterial
  1
ByBlock
 72
     0
 43
0.0208333333333333
 43
0.0
 43
0.0
 43
0.0
 43
0.0
 43
0.0208333333333333
 43
0.0
 43
0.0
 43
0.0
 43
0.0
 43
1.0
 43
0.0
 43
0.0
 43
0.0
 43
0.0
 43
1.0
 77
     0
 47
0.0208333333333333
 47
0.0
 47
0.0
 47
0.0
 47
0.0
 47
0.0208333333333333
 47
0.0
 47
0.0
 47
0.0
 47
0.0
 47
1.0
 47
0.0
 47
0.0
 47
0.0
 47
0.0
 47
1.0
171
     0
 49
0.0208333333333333
 49
0.0
 49
0.0
 49
0.0
 49
0.0
 49
0.0208333333333333
 49
0.0
 49
0.0
 49
0.0
 49
0.0
 49
1.0
 49
0.0
 49
0.0
 49
0.0
 49
0.0
 49
1.0
175
     0
142
0.0208333333333333
142
0.0
142
0.0
142
0.0
142
0.0
142
0.0208333333333333
142
0.0
142
0.0
142
0.0
142
0.0
142
1.0
142
0.0
142
0.0
142
0.0
142
0.0
142
1.0
179
     0
144
0.0208333333333333
144
0.0
144
0.0
144
0.0
144
0.0
144
0.0208333333333333
144
0.0
144
0.0
144
0.0
144
0.0
144
1.0
144
0.0
144
0.0
144
0.0
144
0.0
144
1.0
147
0.0208333333333333
147
0.0
147
0.0
147
0.0
147
0.0
147
0.0208333333333333
147
0.0
147
0.0
147
0.0
147
0.0
147
1.0
147
0.0
147
0.0
147
0.0
147
0.0
147
1.0
  0
MATERIAL
  5
34
102
{ACAD_XDICTIONARY
360
35
102
}
102
{ACAD_REACTORS
330
F
102
}
330
F
100
AcDbMaterial
  1
ByLayer
 72
     0
 43
0.0208333333333333
 43
0.0
 43
0.0
 43
0.0
 43
0.0
 43
0.0208333333333333
 43
0.0
 43
0.0
 43
0.0
 43
0.0
 43
1.0
 43
0.0
 43
0.0
 43
0.0
 43
0.0
 43
1.0
 77
     0
 47
0.0208333333333333
 47
0.0
 47
0.0
 47
0.0
 47
0.0
 47
0.0208333333333333
 47
0.0
 47
0.0
 47
0.0
 47
0.0
 47
1.0
 47
0.0
 47
0.0
 47
0.0
 47
0.0
 47
1.0
171
     0
 49
0.0208333333333333
 49
0.0
 49
0.0
 49
0.0
 49
0.0
 49
0.0208333333333333
 49
0.0
 49
0.0
 49
0.0
 49
0.0
 49
1.0
 49
0.0
 49
0.0
 49
0.0
 49
0.0
 49
1.0
175
     0
142
0.0208333333333333
142
0.0
142
0.0
142
0.0
142
0.0
142
0.0208333333333333
142
0.0
142
0.0
142
0.0
142
0.0
142
1.0
142
0.0
142
0.0
142
0.0
142
0.0
142
1.0
179
     0
144
0.0208333333333333
144
0.0
144
0.0
144
0.0
144
0.0
144
0.0208333333333333
144
0.0
144
0.0
144
0.0
144
0.0
144
1.0
144
0.0
144
0.0
144
0.0
144
0.0
144
1.0
147
0.0208333333333333
147
0.0
147
0.0
147
0.0
147
0.0
147
0.0208333333333333
147
0.0
147
0.0
147
0.0
147
0.0
147
1.0
147
0.0
147
0.0
147
0.0
147
0.0
147
1.0
  0
MATERIAL
  5
E
102
{ACAD_XDICTIONARY
360
10
102
}
102
{ACAD_REACTORS
330
F
102
}
330
F
100
AcDbMaterial
  1
Global
 72
     0
 43
0.0208333333333333
 43
0.0
 43
0.0
 43
0.0
 43
0.0
 43
0.0208333333333333
 43
0.0
 43
0.0
 43
0.0
 43
0.0
 43
1.0
 43
0.0
 43
0.0
 43
0.0
 43
0.0
 43
1.0
 77
     0
 47
0.0208333333333333
 47
0.0
 47
0.0
 47
0.0
 47
0.0
 47
0.0208333333333333
 47
0.0
 47
0.0
 47
0.0
 47
0.0
 47
1.0
 47
0.0
 47
0.0
 47
0.0
 47
0.0
 47
1.0
171
     0
 49
0.0208333333333333
 49
0.0
 49
0.0
 49
0.0
 49
0.0
 49
0.0208333333333333
 49
0.0
 49
0.0
 49
0.0
 49
0.0
 49
1.0
 49
0.0
 49
0.0
 49
0.0
 49
0.0
 49
1.0
175
     0
142
0.0208333333333333
142
0.0
142
0.0
142
0.0
142
0.0
142
0.0208333333333333
142
0.0
142
0.0
142
0.0
142
0.0
142
1.0
142
0.0
142
0.0
142
0.0
142
0.0
142
1.0
179
     0
144
0.0208333333333333
144
0.0
144
0.0
144
0.0
144
0.0
144
0.0208333333333333
144
0.0
144
0.0
144
0.0
144
0.0
144
1.0
144
0.0
144
0.0
144
0.0
144
0.0
144
1.0
147
0.0208333333333333
147
0.0
147
0.0
147
0.0
147
0.0
147
0.0208333333333333
147
0.0
147
0.0
147
0.0
147
0.0
147
1.0
147
0.0
147
0.0
147
0.0
147
0.0
147
1.0
  0
MLINESTYLE
  5
56
102
{ACAD_REACTORS
330
32
102
}
330
32
100
AcDbMlineStyle
  2
STANDARD
 70
     0
  3

 62
   256
 51
90.0
 52
90.0
 71
     2
 49
0.5
 62
   256
  6
BYLAYER
 49
-0.5
 62
   256
  6
BYLAYER
  0
ACDBPLACEHOLDER
  5
B
102
{ACAD_REACTORS
330
C
102
}
330
C
  0
SCALE
  5
5C
102
{ACAD_REACTORS
330
45
102
}
330
45
100
AcDbScale
 70
     0
300
1:1
140
1.0
141
1.0
290
     1
  0
SCALE
  5
5D
102
{ACAD_REACTORS
330
45
102
}
330
45
100
AcDbScale
 70
     0
300
1/128" = 1'-0"
140
0.0078125
141
12.0
290
     0
  0
SCALE
  5
5E
102
{ACAD_REACTORS
330
45
102
}
330
45
100
AcDbScale
 70
     0
300
1/64" = 1'-0"
140
0.015625
141
12.0
290
     0
  0
SCALE
  5
5F
102
{ACAD_REACTORS
330
45
102
}
330
45
100
AcDbScale
 70
     0
300
1/32" = 1'-0"
140
0.03125
141
12.0
290
     0
  0
SCALE
  5
60
102
{ACAD_REACTORS
330
45
102
}
330
45
100
AcDbScale
 70
     0
300
1/16" = 1'-0"
140
0.0625
141
12.0
290
     0
  0
SCALE
  5
61
102
{ACAD_REACTORS
330
45
102
}
330
45
100
AcDbScale
 70
     0
300
3/32" = 1'-0"
140
0.09375
141
12.0
290
     0
  0
SCALE
  5
62
102
{ACAD_REACTORS
330
45
102
}
330
45
100
AcDbScale
 70
     0
300
1/8" = 1'-0"
140
0.125
141
12.0
290
     0
  0
SCALE
  5
63
102
{ACAD_REACTORS
330
45
102
}
330
45
100
AcDbScale
 70
     0
300
3/16" = 1'-0"
140
0.1875
141
12.0
290
     0
  0
SCALE
  5
64
102
{ACAD_REACTORS
330
45
102
}
330
45
100
AcDbScale
 70
     0
300
1/4" = 1'-0"
140
0.25
141
12.0
290
     0
  0
SCALE
  5
65
102
{ACAD_REACTORS
330
45
102
}
330
45
100
AcDbScale
 70
     0
300
3/8" = 1'-0"
140
0.375
141
12.0
290
     0
  0
SCALE
  5
66
102
{ACAD_REACTORS
330
45
102
}
330
45
100
AcDbScale
 70
     0
300
1/2" = 1'-0"
140
0.5
141
12.0
290
     0
  0
SCALE
  5
67
102
{ACAD_REACTORS
330
45
102
}
330
45
100
AcDbScale
 70
     0
300
3/4" = 1'-0"
140
0.75
141
12.0
290
     0
  0
SCALE
  5
68
102
{ACAD_REACTORS
330
45
102
}
330
45
100
AcDbScale
 70
     0
300
1" = 1'-0"
140
1.0
141
12.0
290
     0
  0
SCALE
  5
69
102
{ACAD_REACTORS
330
45
102
}
330
45
100
AcDbScale
 70
     0
300
1-1/2" = 1'-0"
140
1.5
141
12.0
290
     0
  0
SCALE
  5
6A
102
{ACAD_REACTORS
330
45
102
}
330
45
100
AcDbScale
 70
     0
300
3" = 1'-0"
140
3.0
141
12.0
290
     0
  0
SCALE
  5
6B
102
{ACAD_REACTORS
330
45
102
}
330
45
100
AcDbScale
 70
     0
300
6" = 1'-0"
140
6.0
141
12.0
290
     0
  0
SCALE
  5
6C
102
{ACAD_REACTORS
330
45
102
}
330
45
100
AcDbScale
 70
     0
300
1'-0" = 1'-0"
140
12.0
141
12.0
290
     0
  0
TABLESTYLE
  5
57
102
{ACAD_XDICTIONARY
360
58
102
}
102
{ACAD_REACTORS
330
46
102
}
330
46
100
AcDbTableStyle
280
     0
  3
Standard
 70
     0
 71
     0
 40
0.06
 41
0.06
280
     0
281
     0
  7
Standard
140
0.18
170
     2
 62
     0
 63
     7
283
     0
 90
        4
 91
        0
  1

274
    -2
284
     1
 64
     0
275
    -2
285
     1
 65
     0
276
    -2
286
     1
 66
     0
277
    -2
287
     1
 67
     0
278
    -2
288
     1
 68
     0
279
    -2
289
     1
 69
     0
  7
Standard
140
0.25
170
     5
 62
     0
 63
     7
283
     0
 90
        4
 91
        0
  1

274
    -2
284
     1
 64
     0
275
    -2
285
     1
 65
     0
276
    -2
286
     1
 66
     0
277
    -2
287
     1
 67
     0
278
    -2
288
     1
 68
     0
279
    -2
289
     1
 69
     0
  7
Standard
140
0.18
170
     5
 62
     0
 63
     7
283
     0
 90
        4
 91
        0
  1

274
    -2
284
     1
 64
     0
275
    -2
285
     1
 65
     0
276
    -2
286
     1
 66
     0
277
    -2
287
     1
 67
     0
278
    -2
288
     1
 68
     0
279
    -2
289
     1
 69
     0
1001
ACAD
1000
AcRTDxfName
1000
TABLESTYLE
  0
VISUALSTYLE
  5
2A
102
{ACAD_REACTORS
330
2B
102
}
330
2B
100
AcDbVisualStyle
  2
2dWireframe
 70
     4
177
     3
291
     0
 70
    58
 90
        0
176
     1
 90
        2
176
     1
 90
        0
176
     1
 90
        0
176
     1
 40
0.6
176
     1
 40
30.0
176
     1
 62
     7
420
 16777215
176
     1
 90
        1
176
     1
 90
        4
176
     1
 62
     7
176
     1
 62
   257
176
     1
 90
        1
176
     1
 90
        1
176
     1
 40
1.0
176
     1
 90
        0
176
     1
 62
   257
176
     1
 40
1.0
176
     1
 90
        1
176
     1
 90
        6
176
     1
 90
        2
176
     1
 62
     7
176
     1
 90
        5
176
     1
 90
        0
176
     1
 90
        0
176
     1
290
     0
176
     1
 90
        1
176
     1
 40
0.0
176
     1
 90
        0
176
     1
290
     1
176
     1
290
     1
176
     1
290
     0
176
     1
290
     0
176
     1
290
     0
176
     1
290
     0
176
     1
290
     0
176
     1
290
     0
176
     1
290
     0
176
     1
 90
       50
176
     1
 40
0.0
176
     1
 40
1.0
176
     1
 90
        0
176
     1
 62
    18
176
     1
 90
       50
176
     1
 90
        3
176
     1
 62
     5
420
      255
176
     1
290
     0
176
     1
 90
       50
176
     1
 90
       50
176
     1
 90
       50
176
     1
290
     0
176
     1
 90
       50
176
     1
 62
   256
176
     0
 40
1.0
176
     0
 90
        2
176
     1
  1
strokes_ogs.tif
176
     1
290
     0
176
     1
 40
1.0
176
     1
 40
1.0
176
     1
  0
VISUALSTYLE
  5
81
102
{ACAD_REACTORS
330
2B
102
}
330
2B
100
AcDbVisualStyle
  2
EdgeColorOff
 70
    22
177
     3
291
     1
 70
    58
 90
        2
176
     0
 90
        2
176
     0
 90
        0
176
     0
 90
        0
176
     0
 40
0.6
176
     0
 40
30.0
176
     0
 62
     7
420
 16777215
176
     0
 90
        1
176
     0
 90
        4
176
     0
 62
     7
176
     0
 62
   257
176
     0
 90
        1
176
     0
 90
        1
176
     0
 40
1.0
176
     0
 90
        8
176
     2
 62
     7
176
     0
 40
1.0
176
     0
 90
        1
176
     0
 90
        6
176
     0
 90
        2
176
     0
 62
     7
176
     0
 90
        5
176
     0
 90
        0
176
     0
 90
        0
176
     0
290
     0
176
     0
 90
        1
176
     0
 40
0.0
176
     0
 90
        0
176
     0
290
     0
176
     0
290
     1
176
     0
290
     1
176
     0
290
     0
176
     0
290
     0
176
     0
290
     0
176
     0
290
     0
176
     0
290
     0
176
     0
290
     0
176
     0
 90
       50
176
     0
 40
0.0
176
     0
 40
1.0
176
     0
 90
        0
176
     0
 62
    18
176
     0
 90
       50
176
     0
 90
        3
176
     0
 62
     5
420
      255
176
     0
290
     0
176
     0
 90
       50
176
     0
 90
       50
176
     0
 90
       50
176
     0
290
     0
176
     0
 90
       50
176
     0
 62
   256
176
     0
 40
1.0
176
     0
 90
        2
176
     0
  1
strokes_ogs.tif
176
     0
290
     0
176
     0
 40
1.0
176
     0
 40
1.0
176
     0
  0
VISUALSTYLE
  5
59
102
{ACAD_REACTORS
330
2B
102
}
330
2B
100
AcDbVisualStyle
  2
Realistic
 70
     8
177
     3
291
     0
 70
    58
 90
        2
176
     1
 90
        3
176
     1
 90
        0
176
     1
 90
        2
176
     1
 40
0.6
176
     1
 40
30.0
176
     1
 62
     7
420
 16777215
176
     1
 90
        0
176
     1
 90
        0
176
     1
 62
     7
176
     1
 62
   257
176
     1
 90
        1
176
     1
 90
        1
176
     1
 40
1.0
176
     1
 90
        8
176
     1
 62
   257
176
     1
 40
1.0
176
     1
 90
        1
176
     1
 90
        6
176
     1
 90
        2
176
     1
 62
     7
176
     1
 90
        3
176
     1
 90
        0
176
     1
 90
        0
176
     1
290
     0
176
     1
 90
       13
176
     1
 40
0.0
176
     1
 90
        0
176
     1
290
     0
176
     1
290
     1
176
     1
290
     1
176
     1
290
     0
176
     1
290
     0
176
     1
290
     0
176
     1
290
     0
176
     1
290
     0
176
     1
290
     0
176
     1
 90
       50
176
     1
 40
0.0
176
     1
 40
1.0
176
     1
 90
        0
176
     1
 62
    18
176
     1
 90
       50
176
     1
 90
        3
176
     1
 62
     5
420
      255
176
     1
290
     0
176
     1
 90
       50
176
     1
 90
       50
176
     1
 90
       50
176
     1
290
     0
176
     1
 90
       50
176
     1
 62
   256
176
     0
 40
1.0
176
     0
 90
        2
176
     1
  1
strokes_ogs.tif
176
     1
290
     0
176
     1
 40
1.0
176
     1
 40
1.0
176
     1
  0
VISUALSTYLE
  5
5A
102
{ACAD_REACTORS
330
2B
102
}
330
2B
100
AcDbVisualStyle
  2
Wireframe
 70
     5
177
     3
291
     0
 70
    58
 90
        0
176
     1
 90
        2
176
     1
 90
        0
176
     1
 90
        0
176
     1
 40
0.6
176
     1
 40
30.0
176
     1
 62
     7
420
 16777215
176
     1
 90
        1
176
     1
 90
        4
176
     1
 62
     7
176
     1
 62
   257
176
     1
 90
        1
176
     1
 90
        1
176
     1
 40
1.0
176
     1
 90
        0
176
     1
 62
   257
176
     1
 40
1.0
176
     1
 90
        1
176
     1
 90
        6
176
     1
 90
        2
176
     1
 62
     7
176
     1
 90
        3
176
     1
 90
        0
176
     1
 90
        0
176
     1
290
     0
176
     1
 90
        1
176
     1
 40
0.0
176
     1
 90
        0
176
     1
290
     0
176
     1
290
     1
176
     1
290
     1
176
     1
290
     0
176
     1
290
     0
176
     1
290
     0
176
     1
290
     0
176
     1
290
     0
176
     1
290
     0
176
     1
 90
       50
176
     1
 40
0.0
176
     1
 40
1.0
176
     1
 90
        0
176
     1
 62
    18
176
     1
 90
       50
176
     1
 90
        3
176
     1
 62
     5
420
      255
176
     1
290
     0
176
     1
 90
       50
176
     1
 90
       50
176
     1
 90
       50
176
     1
290
     0
176
     1
 90
       50
176
     1
 62
   256
176
     0
 40
1.0
176
     0
 90
        2
176
     1
  1
strokes_ogs.tif
176
     1
290
     0
176
     1
 40
1.0
176
     1
 40
1.0
176
     1
  0
DICTIONARYVAR
  5
49
102
{ACAD_REACTORS
330
48
102
}
330
48
100
DictionaryVariables
280
     0
  1
1:1
  0
DICTIONARYVAR
  5
4A
102
{ACAD_REACTORS
330
48
102
}
330
48
100
DictionaryVariables
280
     0
  1
STANDARD
  0
DICTIONARYVAR
  5
4B
102
{ACAD_REACTORS
330
48
102
}
330
48
100
DictionaryVariables
280
     0
  1
STANDARD
  0
DICTIONARYVAR
  5
4C
102
{ACAD_REACTORS
330
48
102
}
330
48
100
DictionaryVariables
280
     0
  1

  0
DICTIONARYVAR
  5
4D
102
{ACAD_REACTORS
330
48
102
}
330
48
100
DictionaryVariables
280
     0
  1

  0
DICTIONARYVAR
  5
4E
102
{ACAD_REACTORS
330
48
102
}
330
48
100
DictionaryVariables
280
     0
  1
0
  0
DICTIONARYVAR
  5
4F
102
{ACAD_REACTORS
330
48
102
}
330
48
100
DictionaryVariables
280
     0
  1
1
  0
DICTIONARYVAR
  5
50
102
{ACAD_REACTORS
330
48
102
}
330
48
100
DictionaryVariables
280
     0
  1
1
  0
DICTIONARYVAR
  5
51
102
{ACAD_REACTORS
330
48
102
}
330
48
100
DictionaryVariables
280
     0
  1
15
  0
DICTIONARYVAR
  5
52
102
{ACAD_REACTORS
330
48
102
}
330
48
100
DictionaryVariables
280
     0
  1
0
  0
DICTIONARYVAR
  5
53
102
{ACAD_REACTORS
330
48
102
}
330
48
100
DictionaryVariables
280
     0
  1
0
  0
DICTIONARYVAR
  5
54
102
{ACAD_REACTORS
330
48
102
}
330
48
100
DictionaryVariables
280
     0
  1

  0
DICTIONARY
  5
3D
330
3C
100
AcDbDictionary
280
     1
281
     1
  3
BUMPTILE
360
3E
  3
DIFFUSETILE
360
3F
  3
OPACITYTILE
360
40
  3
REFLECTIONTILE
360
41
  3
REFRACTIONTILE
360
42
  3
SPECULARTILE
360
43
  0
DICTIONARY
  5
35
330
34
100
AcDbDictionary
280
     1
281
     1
  3
BUMPTILE
360
36
  3
DIFFUSETILE
360
37
  3
OPACITYTILE
360
38
  3
REFLECTIONTILE
360
39
  3
REFRACTIONTILE
360
3A
  3
SPECULARTILE
360
3B
  0
DICTIONARY
  5
10
330
E
100
AcDbDictionary
280
     1
281
     1
  3
BUMPTILE
360
11
  3
DIFFUSETILE
360
12
  3
OPACITYTILE
360
13
  3
REFLECTIONTILE
360
14
  3
REFRACTIONTILE
360
15
  3
SPECULARTILE
360
16
  0
DICTIONARY
  5
58
330
57
100
AcDbDictionary
280
     1
281
     1
  3
ACAD_ROUNDTRIP_2008_TABLESTYLE_CELLSTYLEMAP
360
1A8
  0
XRECORD
  5
3E
102
{ACAD_REACTORS
330
3D
102
}
330
3D
100
AcDbXrecord
280
     1
270
     1
271
     1
  0
XRECORD
  5
3F
102
{ACAD_REACTORS
330
3D
102
}
330
3D
100
AcDbXrecord
280
     1
270
     1
271
     1
  0
XRECORD
  5
40
102
{ACAD_REACTORS
330
3D
102
}
330
3D
100
AcDbXrecord
280
     1
270
     1
271
     1
  0
XRECORD
  5
41
102
{ACAD_REACTORS
330
3D
102
}
330
3D
100
AcDbXrecord
280
     1
270
     1
271
     1
  0
XRECORD
  5
42
102
{ACAD_REACTORS
330
3D
102
}
330
3D
100
AcDbXrecord
280
     1
270
     1
271
     1
  0
XRECORD
  5
43
102
{ACAD_REACTORS
330
3D
102
}
330
3D
100
AcDbXrecord
280
     1
270
     1
271
     1
  0
XRECORD
  5
36
102
{ACAD_REACTORS
330
35
102
}
330
35
100
AcDbXrecord
280
     1
270
     1
271
     1
  0
XRECORD
  5
37
102
{ACAD_REACTORS
330
35
102
}
330
35
100
AcDbXrecord
280
     1
270
     1
271
     1
  0
XRECORD
  5
38
102
{ACAD_REACTORS
330
35
102
}
330
35
100
AcDbXrecord
280
     1
270
     1
271
     1
  0
XRECORD
  5
39
102
{ACAD_REACTORS
330
35
102
}
330
35
100
AcDbXrecord
280
     1
270
     1
271
     1
  0
XRECORD
  5
3A
102
{ACAD_REACTORS
330
35
102
}
330
35
100
AcDbXrecord
280
     1
270
     1
271
     1
  0
XRECORD
  5
3B
102
{ACAD_REACTORS
330
35
102
}
330
35
100
AcDbXrecord
280
     1
270
     1
271
     1
  0
XRECORD
  5
11
102
{ACAD_REACTORS
330
10
102
}
330
10
100
AcDbXrecord
280
     1
270
     1
271
     1
  0
XRECORD
  5
12
102
{ACAD_REACTORS
330
10
102
}
330
10
100
AcDbXrecord
280
     1
270
     1
271
     1
  0
XRECORD
  5
13
102
{ACAD_REACTORS
330
10
102
}
330
10
100
AcDbXrecord
280
     1
270
     1
271
     1
  0
XRECORD
  5
14
102
{ACAD_REACTORS
330
10
102
}
330
10
100
AcDbXrecord
280
     1
270
     1
271
     1
  0
XRECORD
  5
15
102
{ACAD_REACTORS
330
10
102
}
330
10
100
AcDbXrecord
280
     1
270
     1
271
     1
  0
XRECORD
  5
16
102
{ACAD_REACTORS
330
10
102
}
330
10
100
AcDbXrecord
280
     1
270
     1
271
     1
  0
CELLSTYLEMAP
  5
1A8
102
{ACAD_REACTORS
330
58
102
}
330
58
100
AcDbCellStyleMap
 90
        3
300
CELLSTYLE
  1
TABLEFORMAT_BEGIN
 90
        5
170
     1
 91
        0
 92
    32768
 62
   257
 93
        1
300
CONTENTFORMAT
  1
CONTENTFORMAT_BEGIN
 90
        0
 91
        0
 92
        4
 93
        0
300

 40
0.0
140
1.0
 94
        5
 62
     0
340
21
144
0.25
309
CONTENTFORMAT_END
171
     1
301
MARGIN
  1
CELLMARGIN_BEGIN
 40
0.06
 40
0.06
 40
0.06
 40
0.06
 40
0.18
 40
0.18
309
CELLMARGIN_END
 94
        6
 95
        1
302
GRIDFORMAT
  1
GRIDFORMAT_BEGIN
 90
        0
 91
        1
 62
     0
 92
       -2
340
0
 93
        0
 40
0.045
309
GRIDFORMAT_END
 95
        2
302
GRIDFORMAT
  1
GRIDFORMAT_BEGIN
 90
        0
 91
        1
 62
     0
 92
       -2
340
0
 93
        0
 40
0.045
309
GRIDFORMAT_END
 95
        4
302
GRIDFORMAT
  1
GRIDFORMAT_BEGIN
 90
        0
 91
        1
 62
     0
 92
       -2
340
0
 93
        0
 40
0.045
309
GRIDFORMAT_END
 95
        8
302
GRIDFORMAT
  1
GRIDFORMAT_BEGIN
 90
        0
 91
        1
 62
     0
 92
       -2
340
0
 93
        0
 40
0.045
309
GRIDFORMAT_END
 95
       16
302
GRIDFORMAT
  1
GRIDFORMAT_BEGIN
 90
        0
 91
        1
 62
     0
 92
       -2
340
0
 93
        0
 40
0.045
309
GRIDFORMAT_END
 95
       32
302
GRIDFORMAT
  1
GRIDFORMAT_BEGIN
 90
        0
 91
        1
 62
     0
 92
       -2
340
0
 93
        0
 40
0.045
309
GRIDFORMAT_END
309
TABLEFORMAT_END
  1
CELLSTYLE_BEGIN
 90
        1
 91
        1
300
_TITLE
309
CELLSTYLE_END
300
CELLSTYLE
  1
TABLEFORMAT_BEGIN
 90
        5
170
     1
 91
        0
 92
        0
 62
   257
 93
        1
300
CONTENTFORMAT
  1
CONTENTFORMAT_BEGIN
 90
        0
 91
        0
 92
        4
 93
        0
300

 40
0.0
140
1.0
 94
        5
 62
     0
340
21
144
0.18
309
CONTENTFORMAT_END
171
     1
301
MARGIN
  1
CELLMARGIN_BEGIN
 40
0.06
 40
0.06
 40
0.06
 40
0.06
 40
0.18
 40
0.18
309
CELLMARGIN_END
 94
        6
 95
        1
302
GRIDFORMAT
  1
GRIDFORMAT_BEGIN
 90
        0
 91
        1
 62
     0
 92
       -2
340
0
 93
        0
 40
0.045
309
GRIDFORMAT_END
 95
        2
302
GRIDFORMAT
  1
GRIDFORMAT_BEGIN
 90
        0
 91
        1
 62
     0
 92
       -2
340
0
 93
        0
 40
0.045
309
GRIDFORMAT_END
 95
        4
302
GRIDFORMAT
  1
GRIDFORMAT_BEGIN
 90
        0
 91
        1
 62
     0
 92
       -2
340
0
 93
        0
 40
0.045
309
GRIDFORMAT_END
 95
        8
302
GRIDFORMAT
  1
GRIDFORMAT_BEGIN
 90
        0
 91
        1
 62
     0
 92
       -2
340
0
 93
        0
 40
0.045
309
GRIDFORMAT_END
 95
       16
302
GRIDFORMAT
  1
GRIDFORMAT_BEGIN
 90
        0
 91
        1
 62
     0
 92
       -2
340
0
 93
        0
 40
0.045
309
GRIDFORMAT_END
 95
       32
302
GRIDFORMAT
  1
GRIDFORMAT_BEGIN
 90
        0
 91
        1
 62
     0
 92
       -2
340
0
 93
        0
 40
0.045
309
GRIDFORMAT_END
309
TABLEFORMAT_END
  1
CELLSTYLE_BEGIN
 90
        2
 91
        1
300
_HEADER
309
CELLSTYLE_END
300
CELLSTYLE
  1
TABLEFORMAT_BEGIN
 90
        5
170
     1
 91
        0
 92
        0
 62
   257
 93
        1
300
CONTENTFORMAT
  1
CONTENTFORMAT_BEGIN
 90
        0
 91
        0
 92
        4
 93
        0
300

 40
0.0
140
1.0
 94
        2
 62
     0
340
21
144
0.18
309
CONTENTFORMAT_END
171
     1
301
MARGIN
  1
CELLMARGIN_BEGIN
 40
0.06
 40
0.06
 40
0.06
 40
0.06
 40
0.18
 40
0.18
309
CELLMARGIN_END
 94
        6
 95
        1
302
GRIDFORMAT
  1
GRIDFORMAT_BEGIN
 90
        0
 91
        1
 62
     0
 92
       -2
340
0
 93
        0
 40
0.045
309
GRIDFORMAT_END
 95
        2
302
GRIDFORMAT
  1
GRIDFORMAT_BEGIN
 90
        0
 91
        1
 62
     0
 92
       -2
340
0
 93
        0
 40
0.045
309
GRIDFORMAT_END
 95
        4
302
GRIDFORMAT
  1
GRIDFORMAT_BEGIN
 90
        0
 91
        1
 62
     0
 92
       -2
340
0
 93
        0
 40
0.045
309
GRIDFORMAT_END
 95
        8
302
GRIDFORMAT
  1
GRIDFORMAT_BEGIN
 90
        0
 91
        1
 62
     0
 92
       -2
340
0
 93
        0
 40
0.045
309
GRIDFORMAT_END
 95
       16
302
GRIDFORMAT
  1
GRIDFORMAT_BEGIN
 90
        0
 91
        1
 62
     0
 92
       -2
340
0
 93
        0
 40
0.045
309
GRIDFORMAT_END
 95
       32
302
GRIDFORMAT
  1
GRIDFORMAT_BEGIN
 90
        0
 91
        1
 62
     0
 92
       -2
340
0
 93
        0
 40
0.045
309
GRIDFORMAT_END
309
TABLEFORMAT_END
  1
CELLSTYLE_BEGIN
 90
        3
 91
        2
300
_DATA
309
CELLSTYLE_END
  0
ENDSEC
  0
EOF
