  0
SECTION
  2
HEADER
  9
$ACADVER
  1
AC1032
  9
$ACADMAINTVER
 90
      248
  9
$DWGCODEPAGE
  3
ANSI_936
  9
$REQUIREDVERSIONS
160
                 0
  9
$INSBASE
 10
0.0
 20
0.0
 30
0.0
  9
$EXTMIN
 10
289.2412109858593
 20
-62.37675048427307
 30
0.0
  9
$EXTMAX
 10
396.969116304069
 20
33.59482963893707
 30
0.0
  9
$LIMMIN
 10
0.0
 20
0.0
  9
$LIMMAX
 10
12.0
 20
9.0
  9
$ORTHOMODE
 70
     0
  9
$REGENMODE
 70
     0
  9
$FILLMODE
 70
     1
  9
$QTEXTMODE
 70
     0
  9
$MIRRTEXT
 70
     0
  9
$LTSCALE
 40
0.5
  9
$ATTMODE
 70
     1
  9
$TEXTSIZE
 40
0.7
  9
$TRACEWID
 40
0.05
  9
$TEXTSTYLE
  7
STANDARD
  9
$CLAYER
  8
2D
  9
$CELTYPE
  6
ByLayer
  9
$CECOLOR
 62
   256
  9
$CELTSCALE
 40
1.0
  9
$DISPSILH
 70
     0
  9
$DIMSCALE
 40
1.0
  9
$DIMASZ
 40
0.35
  9
$DIMEXO
 40
0.1
  9
$DIMDLI
 40
0.1
  9
$DIMRND
 40
0.0
  9
$DIMDLE
 40
0.0
  9
$DIMEXE
 40
0.1
  9
$DIMTP
 40
0.0
  9
$DIMTM
 40
0.5
  9
$DIMTXT
 40
0.35
  9
$DIMCEN
 40
0.195
  9
$DIMTSZ
 40
0.0
  9
$DIMTOL
 70
     0
  9
$DIMLIM
 70
     0
  9
$DIMTIH
 70
     0
  9
$DIMTOH
 70
     0
  9
$DIMSE1
 70
     0
  9
$DIMSE2
 70
     0
  9
$DIMTAD
 70
     0
  9
$DIMZIN
 70
     4
  9
$DIMBLK
  1

  9
$DIMASO
 70
     0
  9
$DIMSHO
 70
     0
  9
$DIMPOST
  1

  9
$DIMAPOST
  1

  9
$DIMALT
 70
     0
  9
$DIMALTD
 70
     2
  9
$DIMALTF
 40
25.4
  9
$DIMLFAC
 40
1.0
  9
$DIMTOFL
 70
     0
  9
$DIMTVP
 40
0.0
  9
$DIMTIX
 70
     0
  9
$DIMSOXD
 70
     0
  9
$DIMSAH
 70
     0
  9
$DIMBLK1
  1

  9
$DIMBLK2
  1

  9
$DIMSTYLE
  2
Standard
  9
$DIMCLRD
 70
   256
  9
$DIMCLRE
 70
   256
  9
$DIMCLRT
 70
   256
  9
$DIMTFAC
 40
1.0
  9
$DIMGAP
 40
0.1
  9
$DIMJUST
 70
     0
  9
$DIMSD1
 70
     0
  9
$DIMSD2
 70
     0
  9
$DIMTOLJ
 70
     1
  9
$DIMTZIN
 70
     4
  9
$DIMALTZ
 70
     0
  9
$DIMALTTZ
 70
     0
  9
$DIMUPT
 70
     0
  9
$DIMDEC
 70
     3
  9
$DIMTDEC
 70
     3
  9
$DIMALTU
 70
     2
  9
$DIMALTTD
 70
     2
  9
$DIMTXSTY
  7
SIMPLEX
  9
$DIMAUNIT
 70
     0
  9
$DIMADEC
 70
     0
  9
$DIMALTRND
 40
0.0
  9
$DIMAZIN
 70
     0
  9
$DIMDSEP
 70
    46
  9
$DIMATFIT
 70
     0
  9
$DIMFRAC
 70
     0
  9
$DIMLDRBLK
  1

  9
$DIMLUNIT
 70
     2
  9
$DIMLWD
 70
    -1
  9
$DIMLWE
 70
    -1
  9
$DIMTMOVE
 70
     0
  9
$DIMFXL
 40
0.03
  9
$DIMFXLON
 70
     0
  9
$DIMJOGANG
 40
0.7853981633974483
  9
$DIMTFILL
 70
     0
  9
$DIMTFILLCLR
 70
     0
  9
$DIMARCSYM
 70
     1
  9
$DIMLTYPE
  6
ByLayer
  9
$DIMLTEX1
  6
ByLayer
  9
$DIMLTEX2
  6
ByLayer
  9
$DIMTXTDIRECTION
 70
     0
  9
$LUNITS
 70
     2
  9
$LUPREC
 70
     8
  9
$SKETCHINC
 40
0.1
  9
$FILLETRAD
 40
0.0
  9
$AUNITS
 70
     1
  9
$AUPREC
 70
     0
  9
$MENU
  1
I:\ASM9401
  9
$ELEVATION
 40
0.0
  9
$PELEVATION
 40
0.0
  9
$THICKNESS
 40
0.0
  9
$LIMCHECK
 70
     0
  9
$CHAMFERA
 40
0.5
  9
$CHAMFERB
 40
0.5
  9
$CHAMFERC
 40
0.0
  9
$CHAMFERD
 40
0.0
  9
$SKPOLY
 70
     0
  9
$TDCREATE
 40
2452668.466053241
  9
$TDUCREATE
 40
2452668.132727894
  9
$TDUPDATE
 40
2460607.487141204
  9
$TDUUPDATE
 40
2460607.153807870
  9
$TDINDWG
 40
12.6365148843
  9
$TDUSRTIMER
 40
12.6365148843
  9
$USRTIMER
 70
     1
  9
$ANGBASE
 50
0.0
  9
$ANGDIR
 70
     0
  9
$PDMODE
 70
     0
  9
$PDSIZE
 40
0.0
  9
$PLINEWID
 40
0.0
  9
$SPLFRAME
 70
     0
  9
$SPLINETYPE
 70
     6
  9
$SPLINESEGS
 70
     8
  9
$HANDSEED
  5
133
  9
$SURFTAB1
 70
     6
  9
$SURFTAB2
 70
     6
  9
$SURFTYPE
 70
     6
  9
$SURFU
 70
     6
  9
$SURFV
 70
     6
  9
$UCSBASE
  2

  9
$UCSNAME
  2

  9
$UCSORG
 10
0.0
 20
0.0
 30
0.0
  9
$UCSXDIR
 10
1.0
 20
0.0
 30
0.0
  9
$UCSYDIR
 10
0.0
 20
1.0
 30
0.0
  9
$UCSORTHOREF
  2

  9
$UCSORTHOVIEW
 70
     0
  9
$UCSORGTOP
 10
0.0
 20
0.0
 30
0.0
  9
$UCSORGBOTTOM
 10
0.0
 20
0.0
 30
0.0
  9
$UCSORGLEFT
 10
0.0
 20
0.0
 30
0.0
  9
$UCSORGRIGHT
 10
0.0
 20
0.0
 30
0.0
  9
$UCSORGFRONT
 10
0.0
 20
0.0
 30
0.0
  9
$UCSORGBACK
 10
0.0
 20
0.0
 30
0.0
  9
$PUCSBASE
  2

  9
$PUCSNAME
  2

  9
$PUCSORG
 10
0.0
 20
0.0
 30
0.0
  9
$PUCSXDIR
 10
1.0
 20
0.0
 30
0.0
  9
$PUCSYDIR
 10
0.0
 20
1.0
 30
0.0
  9
$PUCSORTHOREF
  2

  9
$PUCSORTHOVIEW
 70
     0
  9
$PUCSORGTOP
 10
0.0
 20
0.0
 30
0.0
  9
$PUCSORGBOTTOM
 10
0.0
 20
0.0
 30
0.0
  9
$PUCSORGLEFT
 10
0.0
 20
0.0
 30
0.0
  9
$PUCSORGRIGHT
 10
0.0
 20
0.0
 30
0.0
  9
$PUCSORGFRONT
 10
0.0
 20
0.0
 30
0.0
  9
$PUCSORGBACK
 10
0.0
 20
0.0
 30
0.0
  9
$USERI1
 70
     0
  9
$USERI2
 70
     0
  9
$USERI3
 70
     0
  9
$USERI4
 70
     0
  9
$USERI5
 70
 32767
  9
$USERR1
 40
0.0
  9
$USERR2
 40
0.0
  9
$USERR3
 40
0.0
  9
$USERR4
 40
0.0
  9
$USERR5
 40
0.0
  9
$WORLDVIEW
 70
     1
  9
$SHADEDGE
 70
     3
  9
$SHADEDIF
 70
    70
  9
$TILEMODE
 70
     1
  9
$MAXACTVP
 70
    16
  9
$PINSBASE
 10
172.0339424788132
 20
50.0
 30
37.26594377789137
  9
$PLIMCHECK
 70
     0
  9
$PEXTMIN
 10
1.000000000000000E+20
 20
1.000000000000000E+20
 30
1.000000000000000E+20
  9
$PEXTMAX
 10
-1.000000000000000E+20
 20
-1.000000000000000E+20
 30
-1.000000000000000E+20
  9
$PLIMMIN
 10
0.0
 20
0.0
  9
$PLIMMAX
 10
12.0
 20
9.0
  9
$UNITMODE
 70
     0
  9
$VISRETAIN
 70
     0
  9
$PLINEGEN
 70
     0
  9
$PSLTSCALE
 70
     0
  9
$TREEDEPTH
 70
  3020
  9
$CMLSTYLE
  2
Standard
  9
$CMLJUST
 70
     0
  9
$CMLSCALE
 40
1.0
  9
$PROXYGRAPHICS
 70
     1
  9
$MEASUREMENT
 70
     0
  9
$CELWEIGHT
370
    -1
  9
$ENDCAPS
280
     0
  9
$JOINSTYLE
280
     0
  9
$LWDISPLAY
290
     0
  9
$INSUNITS
 70
     0
  9
$HYPERLINKBASE
  1

  9
$STYLESHEET
  1

  9
$XEDIT
290
     1
  9
$CEPSNTYPE
380
     0
  9
$PSTYLEMODE
290
     1
  9
$FINGERPRINTGUID
  2
{DCEA36DD-36AC-F347-BCA1-2093ED27B6B0}
  9
$VERSIONGUID
  2
{922C750B-201D-4D94-8357-472C9F2EA4F2}
  9
$EXTNAMES
290
     1
  9
$PSVPSCALE
 40
0.0
  9
$OLESTARTUP
290
     0
  9
$SORTENTS
280
   127
  9
$INDEXCTL
280
     0
  9
$HIDETEXT
280
     1
  9
$XCLIPFRAME
280
     2
  9
$HALOGAP
280
     0
  9
$OBSCOLOR
 70
   257
  9
$OBSLTYPE
280
     0
  9
$INTERSECTIONDISPLAY
280
     0
  9
$INTERSECTIONCOLOR
 70
   257
  9
$DIMASSOC
280
     0
  9
$PROJECTNAME
  1

  9
$CAMERADISPLAY
290
     0
  9
$LENSLENGTH
 40
50.0
  9
$CAMERAHEIGHT
 40
0.0
  9
$STEPSPERSEC
 40
2.0
  9
$STEPSIZE
 40
6.0
  9
$3DDWFPREC
 40
2.0
  9
$PSOLWIDTH
 40
0.25
  9
$PSOLHEIGHT
 40
4.0
  9
$LOFTANG1
 40
1.570796326794896
  9
$LOFTANG2
 40
1.570796326794896
  9
$LOFTMAG1
 40
0.0
  9
$LOFTMAG2
 40
0.0
  9
$LOFTPARAM
 70
     7
  9
$LOFTNORMALS
280
     1
  9
$LATITUDE
 40
37.795
  9
$LONGITUDE
 40
-122.394
  9
$NORTHDIRECTION
 40
0.0
  9
$TIMEZONE
 70
 -8000
  9
$LIGHTGLYPHDISPLAY
280
     1
  9
$TILEMODELIGHTSYNCH
280
     1
  9
$CMATERIAL
347
36
  9
$SOLIDHIST
280
     0
  9
$SHOWHIST
280
     1
  9
$DWFFRAME
280
     2
  9
$DGNFRAME
280
     0
  9
$REALWORLDSCALE
290
     1
  9
$INTERFERECOLOR
 62
     1
  9
$INTERFEREOBJVS
345
5D
  9
$INTERFEREVPVS
346
5E
  9
$CSHADOW
280
     0
  9
$SHADOWPLANELOCATION
 40
0.0
  0
ENDSEC
  0
SECTION
  2
CLASSES
  0
CLASS
  1
ACDBDICTIONARYWDFLT
  2
AcDbDictionaryWithDefault
  3
ObjectDBX Classes
 90
        0
 91
        1
280
     0
281
     0
  0
CLASS
  1
DICTIONARYVAR
  2
AcDbDictionaryVar
  3
ObjectDBX Classes
 90
        0
 91
       12
280
     0
281
     0
  0
CLASS
  1
TABLESTYLE
  2
AcDbTableStyle
  3
ObjectDBX Classes
 90
     4095
 91
        1
280
     0
281
     0
  0
CLASS
  1
SORTENTSTABLE
  2
AcDbSortentsTable
  3
ObjectDBX Classes
 90
        0
 91
        2
280
     0
281
     0
  0
CLASS
  1
DIMASSOC
  2
AcDbDimAssoc
  3
"AcDbDimAssoc|Product Desc:     AcDim ARX App For Dimension|Company:          Autodesk, Inc.|WEB Address:      www.autodesk.com"
 90
        0
 91
        0
280
     0
281
     0
  0
CLASS
  1
MATERIAL
  2
AcDbMaterial
  3
ObjectDBX Classes
 90
     1153
 91
        3
280
     0
281
     0
  0
CLASS
  1
VISUALSTYLE
  2
AcDbVisualStyle
  3
ObjectDBX Classes
 90
     4095
 91
        3
280
     0
281
     0
  0
CLASS
  1
SCALE
  2
AcDbScale
  3
ObjectDBX Classes
 90
     1153
 91
       17
280
     0
281
     0
  0
CLASS
  1
MLEADERSTYLE
  2
AcDbMLeaderStyle
  3
ACDB_MLEADERSTYLE_CLASS
 90
     4095
 91
        0
280
     0
281
     0
  0
CLASS
  1
ACDBSECTIONVIEWSTYLE
  2
AcDbSectionViewStyle
  3
ObjectDBX Classes
 90
     1025
 91
        0
280
     0
281
     0
  0
CLASS
  1
ACDBDETAILVIEWSTYLE
  2
AcDbDetailViewStyle
  3
ObjectDBX Classes
 90
     1025
 91
        0
280
     0
281
     0
  0
CLASS
  1
CELLSTYLEMAP
  2
AcDbCellStyleMap
  3
ObjectDBX Classes
 90
     1152
 91
        1
280
     0
281
     0
  0
CLASS
  1
SOLID_BACKGROUND
  2
AcDbSolidBackground
  3
SCENEOE
 90
     4095
 91
        0
280
     0
281
     0
  0
CLASS
  1
NPOCOLLECTION
  2
AcDbImpNonPersistentObjectsCollection
  3
ObjectDBX Classes
 90
     1153
 91
        0
280
     0
281
     0
  0
ENDSEC
  0
SECTION
  2
TABLES
  0
TABLE
  2
VPORT
  5
28
330
0
100
AcDbSymbolTable
 70
     1
  0
VPORT
  5
29
330
28
100
AcDbSymbolTableRecord
100
AcDbViewportTableRecord
  2
*Active
 70
     0
 10
0.0
 20
0.0
 11
1.0
 21
1.0
 12
378.6634738435369
 22
18.00872196546183
 13
0.0
 23
0.0
 14
0.1
 24
0.1
 15
0.0
 25
0.0
 16
0.0
 26
0.0
 36
1.0
 17
0.0
 27
0.0
 37
0.0
 40
26.33405672801001
 41
2.570850202429149
 42
50.0
 43
0.0
 44
0.0
 50
0.0
 51
0.0
 71
     0
 72
 20000
 73
     1
 74
     2
 75
     0
 76
     0
 77
     0
 78
     0
281
     0
 65
     1
110
0.0
120
0.0
130
0.0
111
1.0
121
0.0
131
0.0
112
0.0
122
1.0
132
0.0
 79
     0
146
0.0
348
2A
 60
     3
 61
     5
292
     1
282
     1
141
0.0
142
0.0
 63
   250
421
  3355443
1001
ACAD_NAV_VCDISPLAY
1070
     3
  0
ENDTAB
  0
TABLE
  2
LTYPE
  5
23
330
0
100
AcDbSymbolTable
 70
     1
  0
LTYPE
  5
24
330
23
100
AcDbSymbolTableRecord
100
AcDbLinetypeTableRecord
  2
ByBlock
 70
     0
  3

 72
    65
 73
     0
 40
0.0
  0
LTYPE
  5
25
330
23
100
AcDbSymbolTableRecord
100
AcDbLinetypeTableRecord
  2
ByLayer
 70
     0
  3

 72
    65
 73
     0
 40
0.0
  0
LTYPE
  5
F
330
23
100
AcDbSymbolTableRecord
100
AcDbLinetypeTableRecord
  2
CONTINUOUS
 70
     0
  3
Solid line
 72
    65
 73
     0
 40
0.0
  0
ENDTAB
  0
TABLE
  2
LAYER
  5
1A
102
{ACAD_XDICTIONARY
360
1B
102
}
330
0
100
AcDbSymbolTable
 70
     3
  0
LAYER
  5
7
102
{ACAD_XDICTIONARY
360
8
102
}
330
1A
100
AcDbSymbolTableRecord
100
AcDbLayerTableRecord
  2
0
 70
     0
 62
     7
  6
CONTINUOUS
370
    -3
390
A
347
D
348
0
  0
LAYER
  5
57
102
{ACAD_XDICTIONARY
360
58
102
}
330
1A
100
AcDbSymbolTableRecord
100
AcDbLayerTableRecord
  2
2D
 70
     0
 62
     4
  6
CONTINUOUS
370
    -3
390
A
347
D
348
0
  0
LAYER
  5
71
102
{ACAD_XDICTIONARY
360
72
102
}
330
1A
100
AcDbSymbolTableRecord
100
AcDbLayerTableRecord
  2
3
 70
     0
 62
     7
  6
CONTINUOUS
370
    -3
390
A
347
D
348
0
  0
ENDTAB
  0
TABLE
  2
STYLE
  5
20
330
0
100
AcDbSymbolTable
 70
     3
  0
STYLE
  5
21
330
20
100
AcDbSymbolTableRecord
100
AcDbTextStyleTableRecord
  2
STANDARD
 70
     0
 40
0.0
 41
1.0
 50
0.0
 71
     0
 42
0.7
  3
SIMPLEX
  4

  0
STYLE
  5
30
330
20
100
AcDbSymbolTableRecord
100
AcDbTextStyleTableRecord
  2
SIMPLEX
 70
     0
 40
0.0
 41
1.0
 50
0.0
 71
     0
 42
0.0045
  3
SIMPLEX
  4

  0
STYLE
  5
96
330
20
100
AcDbSymbolTableRecord
100
AcDbTextStyleTableRecord
  2
ROMANS
 70
     0
 40
0.018
 41
0.8
 50
0.0
 71
     0
 42
0.018
  3
SIMPLEX
  4

  0
ENDTAB
  0
TABLE
  2
VIEW
  5
26
330
0
100
AcDbSymbolTable
 70
     0
  0
ENDTAB
  0
TABLE
  2
UCS
  5
27
330
0
100
AcDbSymbolTable
 70
     0
  0
ENDTAB
  0
TABLE
  2
APPID
  5
2D
330
0
100
AcDbSymbolTable
 70
     4
  0
APPID
  5
1F
330
2D
100
AcDbSymbolTableRecord
100
AcDbRegAppTableRecord
  2
ACAD
 70
     0
  0
APPID
  5
31
330
2D
100
AcDbSymbolTableRecord
100
AcDbRegAppTableRecord
  2
ACAD_DSTYLE_DIMJOGGED_JOGANGLE_SYMBOL
 70
     0
  0
APPID
  5
13
330
2D
100
AcDbSymbolTableRecord
100
AcDbRegAppTableRecord
  2
ACAD_PSEXT
 70
     0
  0
APPID
  5
2C
330
2D
100
AcDbSymbolTableRecord
100
AcDbRegAppTableRecord
  2
ACAD_NAV_VCDISPLAY
 70
     0
  0
ENDTAB
  0
TABLE
  2
DIMSTYLE
  5
2E
330
0
100
AcDbSymbolTable
 70
     1
100
AcDbDimStyleTable
 71
     1
340
2F
  0
DIMSTYLE
105
2F
330
2E
100
AcDbSymbolTableRecord
100
AcDbDimStyleTableRecord
  2
Standard
 70
     0
 41
0.35
 42
0.1
 43
0.1
 44
0.1
 48
0.5
 49
0.03
 73
     0
 74
     0
 78
     4
 90
        1
140
0.35
141
0.195
147
0.1
176
   256
177
   256
178
   256
271
     3
272
     3
284
     4
289
     0
340
30
345
25
346
25
347
25
371
    -1
372
    -1
1001
ACAD_DSTYLE_DIMJOGGED_JOGANGLE_SYMBOL
1070
   384
1040
0.7853981633974483
  0
ENDTAB
  0
TABLE
  2
BLOCK_RECORD
  5
1
330
0
100
AcDbSymbolTable
 70
     0
  0
BLOCK_RECORD
  5
2
102
{ACAD_XDICTIONARY
360
3
102
}
330
1
100
AcDbSymbolTableRecord
100
AcDbBlockTableRecord
  2
*Model_Space
340
11
 70
     0
280
     1
281
     0
  0
BLOCK_RECORD
  5
14
102
{ACAD_XDICTIONARY
360
15
102
}
330
1
100
AcDbSymbolTableRecord
100
AcDbBlockTableRecord
  2
*Paper_Space
340
19
 70
     0
280
     1
281
     0
  0
ENDTAB
  0
ENDSEC
  0
SECTION
  2
BLOCKS
  0
BLOCK
  5
6
330
2
100
AcDbEntity
  8
0
 62
     4
100
AcDbBlockBegin
  2
*Model_Space
 70
     0
 10
0.0
 20
0.0
 30
0.0
  3
*Model_Space
  1

  0
ENDBLK
  5
10
330
2
100
AcDbEntity
  8
0
 62
     4
100
AcDbBlockEnd
  0
BLOCK
  5
17
330
14
100
AcDbEntity
 67
     1
  8
0
 62
     4
100
AcDbBlockBegin
  2
*Paper_Space
 70
     0
 10
0.0
 20
0.0
 30
0.0
  3
*Paper_Space
  1

  0
ENDBLK
  5
18
330
14
100
AcDbEntity
 67
     1
  8
0
 62
     4
100
AcDbBlockEnd
  0
ENDSEC
  0
SECTION
  2
ENTITIES
  0
LINE
  5
70
330
2
100
AcDbEntity
  8
3
 62
     3
100
AcDbLine
 10
-101.5752765030425
 20
5.620878469070028
 30
0.0
 11
-76.02914342883304
 21
5.620878469070028
 31
0.0
  0
LWPOLYLINE
  5
74
330
2
100
AcDbEntity
  8
3
 62
     7
100
AcDbPolyline
 90
        2
 70
     0
 43
0.0304419652037683
 10
-101.5752765030425
 20
4.951155234586911
 10
-76.02914342883287
 20
4.951155234586911
  0
LINE
  5
75
330
2
100
AcDbEntity
  8
3
 62
     3
100
AcDbLine
 10
-101.5752765030425
 20
8.969493430610329
 30
0.0
 11
-76.02914342883304
 21
8.969493430610329
 31
0.0
  0
LINE
  5
76
330
2
100
AcDbEntity
  8
3
 62
     3
100
AcDbLine
 10
-101.5752765030425
 20
14.99700254095644
 30
0.0
 11
-76.02914342883304
 21
14.99700254095644
 31
0.0
  0
LINE
  5
77
330
2
100
AcDbEntity
  8
3
 62
     3
100
AcDbLine
 10
-101.5752765030425
 20
16.33644658817395
 30
0.0
 11
-76.02914342883304
 21
16.33644658817395
 31
0.0
  0
LINE
  5
78
330
2
100
AcDbEntity
  8
3
 62
     3
100
AcDbLine
 10
-101.5752765030425
 20
17.00616861178277
 30
0.0
 11
-76.02914342883304
 21
17.00616861178277
 31
0.0
  0
LINE
  5
79
330
2
100
AcDbEntity
  8
3
 62
     3
100
AcDbLine
 10
-101.5752765030425
 20
6.290601703552859
 30
0.0
 11
-76.02914342883304
 21
6.290601703552859
 31
0.0
  0
LINE
  5
7A
330
2
100
AcDbEntity
  8
3
 62
     3
100
AcDbLine
 10
-101.5752765030426
 20
25.0428462147034
 30
0.0
 11
-76.02914342883309
 21
25.0428462147034
 31
0.0
  0
LINE
  5
7B
330
2
100
AcDbEntity
  8
3
 62
     3
100
AcDbLine
 10
-101.5752765030426
 20
24.37312298022057
 30
0.0
 11
-76.02914342883309
 21
24.37312298022057
 31
0.0
  0
LINE
  5
7C
330
2
100
AcDbEntity
  8
3
 62
     3
100
AcDbLine
 10
-101.5752765030426
 20
21.69423004228885
 30
0.0
 11
-76.02914342883309
 21
21.69423004228885
 31
0.0
  0
LINE
  5
7D
330
2
100
AcDbEntity
  8
3
 62
     3
100
AcDbLine
 10
-101.5752765030426
 20
22.36395327677191
 30
0.0
 11
-76.02914342883309
 21
22.36395327677191
 31
0.0
  0
LINE
  5
7E
330
2
100
AcDbEntity
  8
3
 62
     3
100
AcDbLine
 10
-101.5752765030426
 20
23.03367651125475
 30
0.0
 11
-76.02914342883309
 21
23.03367651125475
 31
0.0
  0
LINE
  5
7F
330
2
100
AcDbEntity
  8
3
 62
     3
100
AcDbLine
 10
-101.5752765030426
 20
23.70339974573763
 30
0.0
 11
-76.02914342883309
 21
23.70339974573763
 31
0.0
  0
LINE
  5
80
330
2
100
AcDbEntity
  8
3
 62
     3
100
AcDbLine
 10
-101.5752765030425
 20
20.35478357332313
 30
0.0
 11
-76.02914342883304
 21
20.35478357332313
 31
0.0
  0
LINE
  5
81
330
2
100
AcDbEntity
  8
3
 62
     3
100
AcDbLine
 10
-101.5752765030425
 20
19.68506033884025
 30
0.0
 11
-76.02914342883304
 21
19.68506033884025
 31
0.0
  0
LINE
  5
82
330
2
100
AcDbEntity
  8
3
 62
     3
100
AcDbLine
 10
-101.5752765030425
 20
19.01533710435741
 30
0.0
 11
-76.02914342883304
 21
19.01533710435741
 31
0.0
  0
LINE
  5
83
330
2
100
AcDbEntity
  8
3
 62
     3
100
AcDbLine
 10
-101.5752765030425
 20
17.67589063539153
 30
0.0
 11
-76.02914342883304
 21
17.67589063539153
 31
0.0
  0
LINE
  5
84
330
2
100
AcDbEntity
  8
3
 62
     3
100
AcDbLine
 10
-101.5752765030426
 20
21.02450680780602
 30
0.0
 11
-76.02914342883309
 21
21.02450680780602
 31
0.0
  0
LINE
  5
85
330
2
100
AcDbEntity
  8
3
 62
     3
100
AcDbLine
 10
-101.5752765030426
 20
25.71256944918635
 30
0.0
 11
-76.02914342883309
 21
25.71256944918635
 31
0.0
  0
LWPOLYLINE
  5
86
330
2
100
AcDbEntity
  8
3
 62
     7
100
AcDbPolyline
 90
        2
 70
     0
 43
0.0304419652037683
 10
-101.5752765030427
 20
26.50664870366338
 10
-76.02914342883304
 20
26.50664870366338
  0
LINE
  5
87
330
2
100
AcDbEntity
  8
3
 62
     3
100
AcDbLine
 10
-101.5752765030425
 20
18.34561386987436
 30
0.0
 11
-76.02914342883304
 21
18.34561386987436
 31
0.0
  0
LINE
  5
88
330
2
100
AcDbEntity
  8
3
 62
     3
100
AcDbLine
 10
-101.5752765030425
 20
7.63004696164444
 30
0.0
 11
-76.02914342883304
 21
7.63004696164444
 31
0.0
  0
LINE
  5
89
330
2
100
AcDbEntity
  8
3
 62
     3
100
AcDbLine
 10
-101.5752765030425
 20
12.31810960302483
 30
0.0
 11
-76.02914342883304
 21
12.31810960302483
 31
0.0
  0
LINE
  5
8A
330
2
100
AcDbEntity
  8
3
 62
     3
100
AcDbLine
 10
-101.5752765030425
 20
6.960323727161615
 30
0.0
 11
-76.02914342883304
 21
6.960323727161615
 31
0.0
  0
LINE
  5
8B
330
2
100
AcDbEntity
  8
3
 62
     3
100
AcDbLine
 10
-101.5752765030425
 20
8.2997701961275
 30
0.0
 11
-76.02914342883304
 21
8.2997701961275
 31
0.0
  0
LINE
  5
8C
330
2
100
AcDbEntity
  8
3
 62
     3
100
AcDbLine
 10
-101.5752765030425
 20
9.639216665093218
 30
0.0
 11
-76.02914342883304
 21
9.639216665093218
 31
0.0
  0
LINE
  5
8D
330
2
100
AcDbEntity
  8
3
 62
     3
100
AcDbLine
 10
-101.5752765030425
 20
10.30893989957605
 30
0.0
 11
-76.02914342883304
 21
10.30893989957605
 31
0.0
  0
LINE
  5
8E
330
2
100
AcDbEntity
  8
3
 62
     3
100
AcDbLine
 10
-101.5752765030425
 20
10.97866313405911
 30
0.0
 11
-76.02914342883304
 21
10.97866313405911
 31
0.0
  0
LINE
  5
8F
330
2
100
AcDbEntity
  8
3
 62
     3
100
AcDbLine
 10
-101.5752765030425
 20
11.64838636854194
 30
0.0
 11
-76.02914342883304
 21
11.64838636854194
 31
0.0
  0
LINE
  5
90
330
2
100
AcDbEntity
  8
3
 62
     3
100
AcDbLine
 10
-101.5752765030425
 20
14.32727930647355
 30
0.0
 11
-76.02914342883304
 21
14.32727930647355
 31
0.0
  0
LINE
  5
91
330
2
100
AcDbEntity
  8
3
 62
     3
100
AcDbLine
 10
-101.5752765030425
 20
13.65755607199072
 30
0.0
 11
-76.02914342883304
 21
13.65755607199072
 31
0.0
  0
LINE
  5
92
330
2
100
AcDbEntity
  8
3
 62
     3
100
AcDbLine
 10
-101.5752765030425
 20
12.98783283750767
 30
0.0
 11
-76.02914342883304
 21
12.98783283750767
 31
0.0
  0
LWPOLYLINE
  5
93
330
2
100
AcDbEntity
  8
3
 62
     7
100
AcDbPolyline
 90
        2
 70
     0
 43
0.0304419652037683
 10
-79.25175613312973
 20
14.32727930647355
 10
-79.25175613312973
 20
14.99700254095644
  0
LWPOLYLINE
  5
94
330
2
100
AcDbEntity
  8
3
 62
     7
100
AcDbPolyline
 90
        2
 70
     0
 43
0.0304419652037683
 10
-79.25175613312973
 20
16.33644658817395
 10
-79.25175613312984
 20
26.50664870366338
  0
TEXT
  5
95
330
2
100
AcDbEntity
  8
3
 62
     3
100
AcDbText
 10
-100.1669281843027
 20
21.21218310303781
 30
0.0
 40
0.3044196520376831
  1
MIN. LEAD SPACE AFTER PLATE
 41
0.9
  7
ROMANS
 72
     4
 11
-96.83353299449009
 21
21.36439292905665
 31
0.0
100
AcDbText
  0
TEXT
  5
97
330
2
100
AcDbEntity
  8
3
 62
     3
100
AcDbText
 10
-101.1428546891778
 20
21.21435127439939
 30
0.0
 40
0.3044196520376831
  1
7
 41
0.9
  7
ROMANS
 72
     4
 11
-101.0515287935665
 21
21.36656110041823
 31
0.0
100
AcDbText
  0
LINE
  5
98
330
2
100
AcDbEntity
  8
3
 62
     3
100
AcDbLine
 10
-100.5240570258874
 20
4.951155234586911
 30
0.0
 11
-100.5240570258875
 21
26.50664870366338
 31
0.0
  0
LWPOLYLINE
  5
99
330
2
100
AcDbEntity
  8
3
 62
     7
100
AcDbPolyline
 90
        2
 70
     0
 43
0.0304419652037683
 10
-101.5752765030425
 20
4.951155234586911
 10
-101.5752765030427
 20
26.50664870366338
  0
LWPOLYLINE
  5
9A
330
2
100
AcDbEntity
  8
3
 62
     7
100
AcDbPolyline
 90
        2
 70
     0
 43
0.0304419652037683
 10
-82.47436883742636
 20
14.32727930647355
 10
-82.47436883742636
 20
14.99700254095644
  0
LWPOLYLINE
  5
9B
330
2
100
AcDbEntity
  8
3
 62
     7
100
AcDbPolyline
 90
        2
 70
     0
 43
0.0304419652037683
 10
-82.47436883742636
 20
16.33644658817395
 10
-82.47436883742654
 20
26.50664870366338
  0
LWPOLYLINE
  5
9C
330
2
100
AcDbEntity
  8
3
 62
     7
100
AcDbPolyline
 90
        2
 70
     0
 43
0.0304419652037683
 10
-85.69698154172318
 20
14.32727930647355
 10
-85.69698154172318
 20
14.99700254095644
  0
LWPOLYLINE
  5
9D
330
2
100
AcDbEntity
  8
3
 62
     7
100
AcDbPolyline
 90
        2
 70
     0
 43
0.0304419652037683
 10
-85.69698154172318
 20
16.33644658817395
 10
-85.69698154172334
 20
26.50664870366338
  0
LINE
  5
9E
330
2
100
AcDbEntity
  8
3
 62
     7
100
AcDbLine
 10
-102.5329301336765
 20
30.70585516235436
 30
0.0
 11
-102.5329301336765
 21
-7.771504486746769
 31
0.0
  0
TEXT
  5
9F
330
2
100
AcDbEntity
  8
3
 62
     3
100
AcDbText
 10
-100.1669290373387
 20
12.50578589825638
 30
0.0
 40
0.3044196520376831
  1
LEAD TIP PLANARITY FROM DAM BAR
 41
0.9
  7
ROMANS
 72
     4
 11
-96.24643880431058
 21
12.65799572427523
 31
0.0
100
AcDbText
  0
TEXT
  5
A0
330
2
100
AcDbEntity
  8
3
 62
     3
100
AcDbText
 10
-100.1669286954228
 20
5.133721658468996
 30
0.0
 40
0.3044196520376831
  1
STRIP NUMBER TO BE ADDED ON STRIP
 41
0.9
  7
ROMANS
 72
     4
 11
-95.99203061033454
 21
5.285931484487838
 31
0.0
100
AcDbText
  0
TEXT
  5
A1
330
2
100
AcDbEntity
  8
3
 62
     3
100
AcDbText
 10
-100.1669290547192
 20
6.47522325712512
 30
0.0
 40
0.3044196520376831
  1
INTERNAL LEAD TIP DIMENSIONS GIVEN ARE GIVEN VALUES
 41
0.9
  7
ROMANS
 72
     4
 11
-93.96981470966636
 21
6.627433083143962
 31
0.0
100
AcDbText
  0
TEXT
  5
A2
330
2
100
AcDbEntity
  8
3
 62
     3
100
AcDbText
 10
-100.1669288605667
 20
5.816473362191523
 30
0.0
 40
0.3044196520376831
  1
DIMENSION QUADRANT IS TYPICAL FOR QUADRANTS, EXCEPT AS SHOWN
 41
0.9
  7
ROMANS
 72
     4
 11
-92.56078641179659
 21
5.939690840397252
 31
0.0
100
AcDbText
  0
TEXT
  5
A3
330
2
100
AcDbEntity
  8
3
 62
     3
100
AcDbText
 10
-100.1669294135314
 20
7.129906857371573
 30
0.0
 40
0.3044196520376831
  1
PART TO BE FREE OF RUST, KINKS, BENDS, WRINKLES, OR SCRATCHES DEEPER THAN
 41
0.9
  7
ROMANS
 72
     4
 11
-91.04738640891685
 21
7.253124335577304
 31
0.0
100
AcDbText
  0
TEXT
  5
A4
330
2
100
AcDbEntity
  8
3
 62
     3
100
AcDbText
 10
-100.1669290925964
 20
8.509190752218723
 30
0.0
 40
0.3044196520376831
  1
LEAD TWIST/LEAD TILT
 41
0.9
  7
ROMANS
 72
     4
 11
-97.79897908496042
 21
8.639656317377729
 31
0.0
100
AcDbText
  0
TEXT
  5
A5
330
2
100
AcDbEntity
  8
3
 62
     3
100
AcDbText
 10
-101.321957571176
 20
6.481656003887534
 30
0.0
 40
0.3044196520376831
  1
28
 41
0.9
  7
ROMANS
 72
     4
 11
-101.1001661104057
 21
6.633865829906376
 31
0.0
100
AcDbText
  0
TEXT
  5
A6
330
2
100
AcDbEntity
  8
3
 62
     3
100
AcDbText
 10
-100.166929000598
 20
7.817723256876007
 30
0.0
 40
0.3044196520376831
  1
FRAME TWIST
 41
0.9
  7
ROMANS
 72
     4
 11
-98.81661040120235
 21
7.969933082894849
 31
0.0
100
AcDbText
  0
TEXT
  5
A7
330
2
100
AcDbEntity
  8
3
 62
     3
100
AcDbText
 10
-101.2794467659346
 20
5.131375805766394
 30
0.0
 40
0.3044196520376831
  1
30
 41
0.9
  7
ROMANS
 72
     4
 11
-101.0576553051643
 21
5.283585631785236
 31
0.0
100
AcDbText
  0
TEXT
  5
A8
330
2
100
AcDbEntity
  8
3
 62
     3
100
AcDbText
 10
-101.2729234876767
 20
5.8082929936331
 30
0.0
 40
0.3044196520376831
  1
29
 41
0.9
  7
ROMANS
 72
     4
 11
-101.0576553051643
 21
5.960502819651942
 31
0.0
100
AcDbText
  0
TEXT
  5
A9
330
2
100
AcDbEntity
  8
3
 62
     3
100
AcDbText
 10
-100.1669365025375
 20
13.85935197424082
 30
0.0
 40
0.3044196520376831
  1
VERTICAL BURR
 41
0.9
  7
ROMANS
 72
     4
 11
-98.58177988585556
 21
14.01156180025966
 31
0.0
100
AcDbText
  0
TEXT
  5
AA
330
2
100
AcDbEntity
  8
3
 62
     3
100
AcDbText
 10
-100.1669291434976
 20
13.17550913273923
 30
0.0
 40
0.3044196520376831
  1
HORIZONTAL BURR
 41
0.9
  7
ROMANS
 72
     4
 11
-98.26865517043405
 21
13.32771895875807
 31
0.0
100
AcDbText
  0
TEXT
  5
AB
330
2
100
AcDbEntity
  8
3
 62
     3
100
AcDbText
 10
-100.1669290078778
 20
11.8562032032967
 30
0.0
 40
0.3044196520376831
  1
PAD FLATNESS
 41
0.9
  7
ROMANS
 72
     4
 11
-98.64700517377542
 21
12.00841302931554
 31
0.0
100
AcDbText
  0
TEXT
  5
AC
330
2
100
AcDbEntity
  8
3
 62
     3
100
AcDbText
 10
-100.1669202422273
 20
11.16633942929049
 30
0.0
 40
0.3044196520376831
  1
CAMBER
 41
0.9
  7
ROMANS
 72
     4
 11
-99.37760357301534
 21
11.31854925530934
 31
0.0
100
AcDbText
  0
TEXT
  5
AD
330
2
100
AcDbEntity
  8
3
 62
     3
100
AcDbText
 10
-100.1669288887859
 20
10.49661619480761
 30
0.0
 40
0.3044196520376831
  1
PAD TILT
 41
0.9
  7
ROMANS
 72
     4
 11
-99.25366993267283
 21
10.64882602082645
 31
0.0
100
AcDbText
  0
TEXT
  5
AE
330
2
100
AcDbEntity
  8
3
 62
     3
100
AcDbText
 10
-100.1669310115155
 20
9.809508609615217
 30
0.0
 40
0.3044196520376831
  1
PAD PLANARITY
 41
0.9
  7
ROMANS
 72
     4
 11
-98.5361114470279
 21
9.961718435634059
 31
0.0
100
AcDbText
  0
TEXT
  5
AF
330
2
100
AcDbEntity
  8
3
 62
     3
100
AcDbText
 10
-100.1669298510671
 20
9.157169725841887
 30
0.0
 40
0.3044196520376831
  1
CROSS BOW
 41
0.9
  7
ROMANS
 72
     4
 11
-98.95360009508834
 21
9.309379551860729
 31
0.0
100
AcDbText
  0
TEXT
  5
B0
330
2
100
AcDbEntity
  8
3
 62
     3
100
AcDbText
 10
-101.2533536529028
 20
13.84924593481143
 30
0.0
 40
0.3044196520376831
  1
17
 41
0.9
  7
ROMANS
 72
     4
 11
-101.0576553051643
 21
14.00145576083027
 31
0.0
100
AcDbText
  0
TEXT
  5
B1
330
2
100
AcDbEntity
  8
3
 62
     3
100
AcDbText
 10
-100.1669290972232
 20
20.54245986855492
 30
0.0
 40
0.3044196520376831
  1
STRIP LENGTH
 41
0.9
  7
ROMANS
 72
     4
 11
-98.74485443699008
 21
20.69466969457376
 31
0.0
100
AcDbText
  0
TEXT
  5
B2
330
2
100
AcDbEntity
  8
3
 62
     3
100
AcDbText
 10
-100.1669291214559
 20
19.87273663407204
 30
0.0
 40
0.3044196520376831
  1
STRIP WIDTH
 41
0.9
  7
ROMANS
 72
     4
 11
-98.91445969592945
 21
20.02494646009088
 31
0.0
100
AcDbText
  0
TEXT
  5
B3
330
2
100
AcDbEntity
  8
3
 62
     3
100
AcDbText
 10
-100.1669300672624
 20
19.20301339958903
 30
0.0
 40
0.3044196520376831
  1
UNIT PITCH
 41
0.9
  7
ROMANS
 72
     4
 11
-99.05144948515289
 21
19.35522322560787
 31
0.0
100
AcDbText
  0
TEXT
  5
B4
330
2
100
AcDbEntity
  8
3
 62
     3
100
AcDbText
 10
-100.1669291075508
 20
18.53080603827815
 30
0.0
 40
0.3044196520376831
  1
CUMULATIVE PITCH
 41
0.9
  7
ROMANS
 72
     4
 11
-98.24908529971338
 21
18.68301586429699
 31
0.0
100
AcDbText
  0
TEXT
  5
B5
330
2
100
AcDbEntity
  8
3
 62
     3
100
AcDbText
 10
-100.1669287854672
 20
17.17277115709149
 30
0.0
 40
0.3044196520376831
  1
MISALIGNMENT
 41
0.9
  7
ROMANS
 72
     4
 11
-98.72528429046026
 21
17.32498098311033
 31
0.0
100
AcDbText
  0
TEXT
  5
B6
330
2
100
AcDbEntity
  8
3
 62
     3
100
AcDbText
 10
-100.1669101441226
 20
16.50415040237582
 30
0.0
 40
0.3044196520376831
  1
COIL SET
 41
0.9
  7
ROMANS
 72
     4
 11
-99.25365118800961
 21
16.65636022839466
 31
0.0
100
AcDbText
  0
TEXT
  5
B7
330
2
100
AcDbEntity
  8
3
 62
     3
100
AcDbText
 10
-101.1205390165058
 20
20.5501297691088
 30
0.0
 40
0.3044196520376831
  1
8
 41
0.9
  7
ROMANS
 72
     4
 11
-101.0292131208945
 21
20.70233959512764
 31
0.0
100
AcDbText
  0
TEXT
  5
B8
330
2
100
AcDbEntity
  8
3
 62
     3
100
AcDbText
 10
-101.1140157382479
 20
19.87312698308299
 30
0.0
 40
0.3044196520376831
  1
9
 41
0.9
  7
ROMANS
 72
     4
 11
-101.0292131208945
 21
20.02533680910183
 31
0.0
100
AcDbText
  0
TEXT
  5
B9
330
2
100
AcDbEntity
  8
3
 62
     3
100
AcDbText
 10
-101.2533536529029
 20
19.20704352437153
 30
0.0
 40
0.3044196520376831
  1
10
 41
0.9
  7
ROMANS
 72
     4
 11
-101.0576553051644
 21
19.35925335039037
 31
0.0
100
AcDbText
  0
TEXT
  5
BA
330
2
100
AcDbEntity
  8
3
 62
     3
100
AcDbText
 10
-101.2371549538228
 20
18.5366693810827
 30
0.0
 40
0.3044196520376831
  1
11
 41
0.9
  7
ROMANS
 72
     4
 11
-101.1001661104058
 21
18.68887920710155
 31
0.0
100
AcDbText
  0
TEXT
  5
BB
330
2
100
AcDbEntity
  8
3
 62
     3
100
AcDbText
 10
-101.2533536529029
 20
17.86330637082828
 30
0.0
 40
0.3044196520376831
  1
12
 41
0.9
  7
ROMANS
 72
     4
 11
-101.0576553051644
 21
18.01551619684712
 31
0.0
100
AcDbText
  0
TEXT
  5
BC
330
2
100
AcDbEntity
  8
3
 62
     3
100
AcDbText
 10
-101.2533536529029
 20
17.19358313634545
 30
0.0
 40
0.3044196520376831
  1
13
 41
0.9
  7
ROMANS
 72
     4
 11
-101.0576553051644
 21
17.34579296236429
 31
0.0
100
AcDbText
  0
TEXT
  5
BD
330
2
100
AcDbEntity
  8
3
 62
     3
100
AcDbText
 10
-101.2598769311608
 20
16.51666594847874
 30
0.0
 40
0.3044196520376831
  1
14
 41
0.9
  7
ROMANS
 72
     4
 11
-101.0576553051644
 21
16.66887577449758
 31
0.0
100
AcDbText
  0
TEXT
  5
BE
330
2
100
AcDbEntity
  8
3
 62
     3
100
AcDbText
 10
-101.2468303746449
 20
14.51105284439067
 30
0.0
 40
0.3044196520376831
  1
16
 41
0.9
  7
ROMANS
 72
     4
 11
-101.0576553051644
 21
14.66326267040951
 31
0.0
100
AcDbText
  0
TEXT
  5
BF
330
2
100
AcDbEntity
  8
3
 62
     3
100
AcDbText
 10
-100.1669286701591
 20
17.88225766069809
 30
0.0
 40
0.3044196520376831
  1
LOCK/ANCHOR HOLE
 41
0.9
  7
ROMANS
 72
     4
 11
-98.04033995806737
 21
18.0127232258571
 31
0.0
100
AcDbText
  0
TEXT
  5
C0
330
2
100
AcDbEntity
  8
3
 62
     3
100
AcDbText
 10
-101.2533536529029
 20
15.85049689160811
 30
0.0
 40
0.3044196520376831
  1
15
 41
0.9
  7
ROMANS
 72
     4
 11
-101.0576553051644
 21
16.00270671762696
 31
0.0
100
AcDbText
  0
TEXT
  5
C1
330
2
100
AcDbEntity
  8
3
 62
     3
100
AcDbText
 10
-101.2472271413049
 20
13.18275616396747
 30
0.0
 40
0.3044196520376831
  1
18
 41
0.9
  7
ROMANS
 72
     4
 11
-101.0515287935664
 21
13.33496598998631
 31
0.0
100
AcDbText
  0
TEXT
  5
C2
330
2
100
AcDbEntity
  8
3
 62
     3
100
AcDbText
 10
-101.2794467659346
 20
7.152030147176304
 30
0.0
 40
0.3044196520376831
  1
27
 41
0.9
  7
ROMANS
 72
     4
 11
-101.0576553051643
 21
7.304239973195146
 31
0.0
100
AcDbText
  0
TEXT
  5
C3
330
2
100
AcDbEntity
  8
3
 62
     3
100
AcDbText
 10
-101.2444813034069
 20
7.818113605887756
 30
0.0
 40
0.3044196520376831
  1
26
 41
0.9
  7
ROMANS
 72
     4
 11
-101.0292131208945
 21
7.970323431906598
 31
0.0
100
AcDbText
  0
TEXT
  5
C4
330
2
100
AcDbEntity
  8
3
 62
     3
100
AcDbText
 10
-101.2510045816648
 20
8.495116391913617
 30
0.0
 40
0.3044196520376831
  1
25
 41
0.9
  7
ROMANS
 72
     4
 11
-101.0292131208945
 21
8.647326217932459
 31
0.0
100
AcDbText
  0
TEXT
  5
C5
330
2
100
AcDbEntity
  8
3
 62
     3
100
AcDbText
 10
-101.2798435325946
 20
9.159337897204206
 30
0.0
 40
0.3044196520376831
  1
24
 41
0.9
  7
ROMANS
 72
     4
 11
-101.0515287935664
 21
9.311547723223048
 31
0.0
100
AcDbText
  0
TEXT
  5
C6
330
2
100
AcDbEntity
  8
3
 62
     3
100
AcDbText
 10
-101.2733202543367
 20
9.824272302615408
 30
0.0
 40
0.3044196520376831
  1
23
 41
0.9
  7
ROMANS
 72
     4
 11
-101.0515287935664
 21
9.97648212863425
 31
0.0
100
AcDbText
  0
TEXT
  5
C7
330
2
100
AcDbEntity
  8
3
 62
     3
100
AcDbText
 10
-101.2733202543367
 20
10.52911361695711
 30
0.0
 40
0.3044196520376831
  1
22
 41
0.9
  7
ROMANS
 72
     4
 11
-101.0515287935664
 21
10.68132344297596
 31
0.0
100
AcDbText
  0
TEXT
  5
C8
330
2
100
AcDbEntity
  8
3
 62
     3
100
AcDbText
 10
-101.2733202543367
 20
11.83573457772561
 30
0.0
 40
0.3044196520376831
  1
20
 41
0.9
  7
ROMANS
 72
     4
 11
-101.0515287935664
 21
11.98794440374445
 31
0.0
100
AcDbText
  0
TEXT
  5
C9
330
2
100
AcDbEntity
  8
3
 62
     3
100
AcDbText
 10
-101.2146107500151
 20
11.16853638233468
 30
0.0
 40
0.3044196520376831
  1
21
 41
0.9
  7
ROMANS
 72
     4
 11
-101.0515287935664
 21
11.32074620835352
 31
0.0
100
AcDbText
  0
TEXT
  5
CA
330
2
100
AcDbEntity
  8
3
 62
     3
100
AcDbText
 10
-101.2407038630469
 20
12.51303292948475
 30
0.0
 40
0.3044196520376831
  1
19
 41
0.9
  7
ROMANS
 72
     4
 11
-101.0515287935664
 21
12.66524275550359
 31
0.0
100
AcDbText
  0
LWPOLYLINE
  5
CB
330
2
100
AcDbEntity
  8
3
 62
     7
100
AcDbPolyline
 90
        2
 70
     0
 43
0.0304419652037683
 10
-79.25175613312973
 20
7.63004696164444
 10
-79.25175613312973
 20
14.99700254095661
  0
LWPOLYLINE
  5
CC
330
2
100
AcDbEntity
  8
3
 62
     7
100
AcDbPolyline
 90
        2
 70
     0
 43
0.0304419652037683
 10
-82.47436883742636
 20
7.63004696164444
 10
-82.47436883742636
 20
14.99700254095661
  0
LWPOLYLINE
  5
CD
330
2
100
AcDbEntity
  8
3
 62
     7
100
AcDbPolyline
 90
        2
 70
     0
 43
0.0304419652037683
 10
-85.69698154172318
 20
7.63004696164444
 10
-85.69698154172318
 20
14.99700254095661
  0
TEXT
  5
CE
330
2
100
AcDbEntity
  8
3
 62
     3
100
AcDbText
 10
-80.99752156492135
 20
7.824347171852993
 30
0.0
 40
0.3044196520376831
  1
-
 41
0.9
  7
ROMANS
 72
     4
 11
-80.88010255627825
 21
7.954812737012
 31
0.0
100
AcDbText
  0
TEXT
  5
CF
330
2
100
AcDbEntity
  8
3
 62
     3
100
AcDbText
 10
-80.99752156492135
 20
8.494070406335822
 30
0.0
 40
0.3044196520376831
  1
-
 41
0.9
  7
ROMANS
 72
     4
 11
-80.88010255627825
 21
8.624535971494829
 31
0.0
100
AcDbText
  0
TEXT
  5
D0
330
2
100
AcDbEntity
  8
3
 62
     3
100
AcDbText
 10
-84.16662456835789
 20
8.494070406335822
 30
0.0
 40
0.3044196520376831
  1
-
 41
0.9
  7
ROMANS
 72
     4
 11
-84.04920555971477
 21
8.624535971494829
 31
0.0
100
AcDbText
  0
TEXT
  5
D1
330
2
100
AcDbEntity
  8
3
 62
     3
100
AcDbText
 10
-84.16662456835789
 20
7.824347171852993
 30
0.0
 40
0.3044196520376831
  1
-
 41
0.9
  7
ROMANS
 72
     4
 11
-84.04920555971477
 21
7.954812737012
 31
0.0
100
AcDbText
  0
TEXT
  5
D2
330
2
100
AcDbEntity
  8
3
 62
     3
100
AcDbText
 10
-81.29559183654606
 20
7.106981936482695
 30
0.0
 40
0.3044196520376831
  1
0.008
 41
0.9
  7
ROMANS
 72
     4
 11
-80.74763646287824
 21
7.259191762501536
 31
0.0
100
AcDbText
  0
TEXT
  5
D3
330
2
100
AcDbEntity
  8
3
 62
     3
100
AcDbText
 10
-77.68186700482911
 20
9.833516875301713
 30
0.0
 40
0.3044196520376831
  1
-
 41
0.9
  7
ROMANS
 72
     4
 11
-77.564447996186
 21
9.96398244046072
 31
0.0
100
AcDbText
  0
TEXT
  5
D4
330
2
100
AcDbEntity
  8
3
 62
     3
100
AcDbText
 10
-80.99752156492135
 20
13.85185628219904
 30
0.0
 40
0.3044196520376831
  1
-
 41
0.9
  7
ROMANS
 72
     4
 11
-80.88010255627825
 21
13.98232184735805
 31
0.0
100
AcDbText
  0
TEXT
  5
D5
330
2
100
AcDbEntity
  8
3
 62
     3
100
AcDbText
 10
-80.99752156492135
 20
13.18213304771621
 30
0.0
 40
0.3044196520376831
  1
-
 41
0.9
  7
ROMANS
 72
     4
 11
-80.88010255627825
 21
13.31259861287522
 31
0.0
100
AcDbText
  0
TEXT
  5
D6
330
2
100
AcDbEntity
  8
3
 62
     3
100
AcDbText
 10
-80.99752156492135
 20
9.163793640818704
 30
0.0
 40
0.3044196520376831
  1
-
 41
0.9
  7
ROMANS
 72
     4
 11
-80.88010255627825
 21
9.294259205977711
 31
0.0
100
AcDbText
  0
TEXT
  5
D7
330
2
100
AcDbEntity
  8
3
 62
     3
100
AcDbText
 10
-84.16662456835789
 20
9.833516875301713
 30
0.0
 40
0.3044196520376831
  1
-
 41
0.9
  7
ROMANS
 72
     4
 11
-84.04920555971477
 21
9.96398244046072
 31
0.0
100
AcDbText
  0
TEXT
  5
D8
330
2
100
AcDbEntity
  8
3
 62
     3
100
AcDbText
 10
-84.16662456835789
 20
9.163793640818704
 30
0.0
 40
0.3044196520376831
  1
-
 41
0.9
  7
ROMANS
 72
     4
 11
-84.04920555971477
 21
9.294259205977711
 31
0.0
100
AcDbText
  0
TEXT
  5
D9
330
2
100
AcDbEntity
  8
3
 62
     3
100
AcDbText
 10
-84.16662456835789
 20
13.18213304771621
 30
0.0
 40
0.3044196520376831
  1
-
 41
0.9
  7
ROMANS
 72
     4
 11
-84.04920555971477
 21
13.31259861287522
 31
0.0
100
AcDbText
  0
TEXT
  5
DA
330
2
100
AcDbEntity
  8
3
 62
     3
100
AcDbText
 10
-84.16662456835789
 20
13.85185628219904
 30
0.0
 40
0.3044196520376831
  1
-
 41
0.9
  7
ROMANS
 72
     4
 11
-84.04920555971477
 21
13.98232184735805
 31
0.0
100
AcDbText
  0
TEXT
  5
DB
330
2
100
AcDbEntity
  8
3
 62
     3
100
AcDbText
 10
-84.16662456835789
 20
10.5032401097846
 30
0.0
 40
0.3044196520376831
  1
-
 41
0.9
  7
ROMANS
 72
     4
 11
-84.04920555971477
 21
10.63370567494361
 31
0.0
100
AcDbText
  0
TEXT
  5
DC
330
2
100
AcDbEntity
  8
3
 62
     3
100
AcDbText
 10
-84.16662456835789
 20
11.17296334426743
 30
0.0
 40
0.3044196520376831
  1
-
 41
0.9
  7
ROMANS
 72
     4
 11
-84.04920555971477
 21
11.30342890942644
 31
0.0
100
AcDbText
  0
TEXT
  5
DD
330
2
100
AcDbEntity
  8
3
 62
     3
100
AcDbText
 10
-84.16662456835789
 20
11.84268657875037
 30
0.0
 40
0.3044196520376831
  1
-
 41
0.9
  7
ROMANS
 72
     4
 11
-84.04920555971477
 21
11.97315214390938
 31
0.0
100
AcDbText
  0
TEXT
  5
DE
330
2
100
AcDbEntity
  8
3
 62
     3
100
AcDbText
 10
-84.16662456835789
 20
12.51240981323331
 30
0.0
 40
0.3044196520376831
  1
-
 41
0.9
  7
ROMANS
 72
     4
 11
-84.04920555971477
 21
12.64287537839232
 31
0.0
100
AcDbText
  0
TEXT
  5
DF
330
2
100
AcDbEntity
  8
3
 62
     3
100
AcDbText
 10
-77.68186700482911
 20
12.51240981323331
 30
0.0
 40
0.3044196520376831
  1
-
 41
0.9
  7
ROMANS
 72
     4
 11
-77.564447996186
 21
12.64287537839232
 31
0.0
100
AcDbText
  0
TEXT
  5
E0
330
2
100
AcDbEntity
  8
3
 62
     3
100
AcDbText
 10
-80.99752156492135
 20
11.84268657875037
 30
0.0
 40
0.3044196520376831
  1
-
 41
0.9
  7
ROMANS
 72
     4
 11
-80.88010255627825
 21
11.97315214390938
 31
0.0
100
AcDbText
  0
TEXT
  5
E1
330
2
100
AcDbEntity
  8
3
 62
     3
100
AcDbText
 10
-80.99752156492135
 20
11.17296334426743
 30
0.0
 40
0.3044196520376831
  1
-
 41
0.9
  7
ROMANS
 72
     4
 11
-80.88010255627825
 21
11.30342890942644
 31
0.0
100
AcDbText
  0
TEXT
  5
E2
330
2
100
AcDbEntity
  8
3
 62
     3
100
AcDbText
 10
-80.99752156492135
 20
10.5032401097846
 30
0.0
 40
0.3044196520376831
  1
-
 41
0.9
  7
ROMANS
 72
     4
 11
-80.88010255627825
 21
10.63370567494361
 31
0.0
100
AcDbText
  0
TEXT
  5
E3
330
2
100
AcDbEntity
  8
3
 62
     3
100
AcDbText
 10
-78.17979599636032
 20
16.52326724794663
 30
0.0
 40
0.3044196520376831
  1
0.508
 41
0.9
  7
ROMANS
 72
     4
 11
-77.6318406226925
 21
16.67547707396547
 31
0.0
100
AcDbText
  0
TEXT
  5
E4
330
2
100
AcDbEntity
  8
3
 62
     3
100
AcDbText
 10
-78.17979599636032
 20
17.19299048242963
 30
0.0
 40
0.3044196520376831
  1
0.020
 41
0.9
  7
ROMANS
 72
     4
 11
-77.6318406226925
 21
17.34520030844847
 31
0.0
100
AcDbText
  0
TEXT
  5
E5
330
2
100
AcDbEntity
  8
3
 62
     3
100
AcDbText
 10
-84.09965985118786
 20
17.20046761111724
 30
0.0
 40
0.3044196520376831
  1
-
 41
0.9
  7
ROMANS
 72
     4
 11
-83.98224084254474
 21
17.33093317627625
 31
0.0
100
AcDbText
  0
TEXT
  5
E6
330
2
100
AcDbEntity
  8
3
 62
     3
100
AcDbText
 10
-84.09965985118786
 20
16.53074437663435
 30
0.0
 40
0.3044196520376831
  1
-
 41
0.9
  7
ROMANS
 72
     4
 11
-83.98224084254474
 21
16.66120994179336
 31
0.0
100
AcDbText
  0
TEXT
  5
E7
330
2
100
AcDbEntity
  8
3
 62
     3
100
AcDbText
 10
-80.9780167522612
 20
16.53074437663435
 30
0.0
 40
0.3044196520376831
  1
-
 41
0.9
  7
ROMANS
 72
     4
 11
-80.86059774361809
 21
16.66120994179336
 31
0.0
100
AcDbText
  0
TEXT
  5
E8
330
2
100
AcDbEntity
  8
3
 62
     3
100
AcDbText
 10
-80.9780167522612
 20
17.20046761111724
 30
0.0
 40
0.3044196520376831
  1
-
 41
0.9
  7
ROMANS
 72
     4
 11
-80.86059774361809
 21
17.33093317627625
 31
0.0
100
AcDbText
  0
TEXT
  5
E9
330
2
100
AcDbEntity
  8
3
 62
     3
100
AcDbText
 10
-100.166947388091
 20
23.22135280648641
 30
0.0
 40
0.3044196520376831
  1
LEAD TIP FLAT WIDTH 
 41
0.9
  7
ROMANS
 72
     4
 11
-97.75333443264935
 21
23.37356263250526
 31
0.0
100
AcDbText
  0
TEXT
  5
EA
330
2
100
AcDbEntity
  8
3
 62
     3
100
AcDbText
 10
-100.1669438267541
 20
22.55162957200353
 30
0.0
 40
0.3044196520376831
  1
M TO M CLEARANCE AFTER ETCH
 41
0.9
  7
ROMANS
 72
     4
 11
-96.66394340223474
 21
22.70383939802237
 31
0.0
100
AcDbText
  0
TEXT
  5
EB
330
2
100
AcDbEntity
  8
3
 62
     7
100
AcDbText
 10
-101.4244509403235
 20
26.87007861111051
 30
0.0
 40
0.4435829215406237
  1
NOTES :
 41
0.9
  7
ROMANS
 72
     4
 11
-100.2647984454387
 21
27.09187007188082
 31
0.0
100
AcDbText
  0
TEXT
  5
EC
330
2
100
AcDbEntity
  8
3
 62
     3
100
AcDbText
 10
-100.1669290400023
 20
24.57491888247095
 30
0.0
 40
0.3044196520376831
  1
PILOT HOLE DIAMETER
 41
0.9
  7
ROMANS
 72
     4
 11
-97.8903049279777
 21
24.7271287084898
 31
0.0
100
AcDbText
  0
TEXT
  5
ED
330
2
100
AcDbEntity
  8
3
 62
     3
100
AcDbText
 10
-101.1428546891778
 20
24.56804630667998
 30
0.0
 40
0.3044196520376831
  1
2
 41
0.9
  7
ROMANS
 72
     4
 11
-101.0515287935665
 21
24.72025613269882
 31
0.0
100
AcDbText
  0
TEXT
  5
EE
330
2
100
AcDbEntity
  8
3
 62
     3
100
AcDbText
 10
-100.166930603174
 20
25.23052250993513
 30
0.0
 40
0.3044196520376831
  1
MATERIAL THICKNESS - 
 41
0.9
  7
ROMANS
 72
     4
 11
-97.52500290870409
 21
25.38273233595397
 31
0.0
100
AcDbText
  0
TEXT
  5
EF
330
2
100
AcDbEntity
  8
3
 62
     3
100
AcDbText
 10
-101.1493779674358
 20
23.22354975953014
 30
0.0
 40
0.3044196520376831
  1
4
 41
0.9
  7
ROMANS
 72
     4
 11
-101.0515287935665
 21
23.37575958554898
 31
0.0
100
AcDbText
  0
TEXT
  5
F0
330
2
100
AcDbEntity
  8
3
 62
     3
100
AcDbText
 10
-101.1428546891778
 20
23.89074795492085
 30
0.0
 40
0.3044196520376831
  1
3
 41
0.9
  7
ROMANS
 72
     4
 11
-101.0515287935665
 21
24.04295778093969
 31
0.0
100
AcDbText
  0
TEXT
  5
F1
330
2
100
AcDbEntity
  8
3
 62
     3
100
AcDbText
 10
-100.1669541362077
 20
23.89107604096936
 30
0.0
 40
0.3044196520376831
  1
EXTERNAL LEAD WIDTH
 41
0.9
  7
ROMANS
 72
     4
 11
-97.81857396334562
 21
24.0432858669882
 31
0.0
100
AcDbText
  0
TEXT
  5
F2
330
2
100
AcDbEntity
  8
3
 62
     3
100
AcDbText
 10
-100.1669285147638
 20
21.8819063375207
 30
0.0
 40
0.3044196520376831
  1
MIN. LEAD SPACE AFTER ETCH
 41
0.9
  7
ROMANS
 72
     4
 11
-96.95747561185221
 21
22.03411616353954
 31
0.0
100
AcDbText
  0
TEXT
  5
F3
330
2
100
AcDbEntity
  8
3
 62
     3
100
AcDbText
 10
-101.1428546891778
 20
22.58412699415229
 30
0.0
 40
0.3044196520376831
  1
5
 41
0.9
  7
ROMANS
 72
     4
 11
-101.0515287935665
 21
22.73633682017113
 31
0.0
100
AcDbText
  0
TEXT
  5
F4
330
2
100
AcDbEntity
  8
3
 62
     3
100
AcDbText
 10
-101.1363314109199
 20
21.8792856798107
 30
0.0
 40
0.3044196520376831
  1
6
 41
0.9
  7
ROMANS
 72
     4
 11
-101.0515287935665
 21
22.03149550582954
 31
0.0
100
AcDbText
  0
TEXT
  5
F5
330
2
100
AcDbEntity
  8
3
 62
     3
100
AcDbText
 10
-101.0841451848563
 20
25.23776954116287
 30
0.0
 40
0.3044196520376831
  1
1
 41
0.9
  7
ROMANS
 72
     4
 11
-101.0515287935665
 21
25.38997936718171
 31
0.0
100
AcDbText
  0
TEXT
  5
F6
330
2
100
AcDbEntity
  8
3
 62
     3
100
AcDbText
 10
-94.85134238889491
 20
25.20892071019543
 30
0.0
 40
0.3044196520376831
  1
A194 FH
 41
0.9
  7
ROMANS
 72
     4
 11
-94.00983949361933
 21
25.36113053621428
 31
0.0
100
AcDbText
  0
TEXT
  5
F7
330
2
100
AcDbEntity
  8
3
 62
     3
100
AcDbText
 10
-78.15370288332875
 20
25.22966929622434
 30
0.0
 40
0.3044196520376831
  1
0.160
 41
0.9
  7
ROMANS
 72
     4
 11
-77.63184062269272
 21
25.38187912224318
 31
0.0
100
AcDbText
  0
TEXT
  5
F8
330
2
100
AcDbEntity
  8
3
 62
     3
100
AcDbText
 10
-78.1471796050708
 20
24.55994606174151
 30
0.0
 40
0.3044196520376831
  1
1.549
 41
0.9
  7
ROMANS
 72
     4
 11
-77.63184062269272
 21
24.71215588776035
 31
0.0
100
AcDbText
  0
TEXT
  5
F9
330
2
100
AcDbEntity
  8
3
 62
     3
100
AcDbText
 10
-81.37631558762539
 20
25.22966929622434
 30
0.0
 40
0.3044196520376831
  1
0.152
 41
0.9
  7
ROMANS
 72
     4
 11
-80.85445332698936
 21
25.38187912224318
 31
0.0
100
AcDbText
  0
TEXT
  5
FA
330
2
100
AcDbEntity
  8
3
 62
     3
100
AcDbText
 10
-81.38283886588334
 20
24.55994606174151
 30
0.0
 40
0.3044196520376831
  1
1.524
 41
0.9
  7
ROMANS
 72
     4
 11
-80.85445332698936
 21
24.71215588776035
 31
0.0
100
AcDbText
  0
TEXT
  5
FB
330
2
100
AcDbEntity
  8
3
 62
     3
100
AcDbText
 10
-84.59240501366414
 20
24.55994606174151
 30
0.0
 40
0.3044196520376831
  1
1.499
 41
0.9
  7
ROMANS
 72
     4
 11
-84.07706603128605
 21
24.71215588776035
 31
0.0
100
AcDbText
  0
TEXT
  5
FC
330
2
100
AcDbEntity
  8
3
 62
     7
100
AcDbText
 10
-81.44256669169079
 20
25.90095254691643
 30
0.0
 40
0.3653035824452196
  1
NOM.
 41
0.9
  7
ROMANS
 72
     4
 11
-80.89461131802295
 21
26.08360433813904
 31
0.0
100
AcDbText
  0
TEXT
  5
FD
330
2
100
AcDbEntity
  8
3
 62
     7
100
AcDbText
 10
-78.05512227877784
 20
25.90767184004405
 30
0.0
 40
0.3653035824452196
  1
MAX.
 41
0.9
  7
ROMANS
 72
     4
 11
-77.52282277292909
 21
26.09032363126666
 31
0.0
100
AcDbText
  0
TEXT
  5
FE
330
2
100
AcDbEntity
  8
3
 62
     3
100
AcDbText
 10
-84.60545157018003
 20
25.22966929622434
 30
0.0
 40
0.3044196520376831
  1
0.144
 41
0.9
  7
ROMANS
 72
     4
 11
-84.07706603128605
 21
25.38187912224318
 31
0.0
100
AcDbText
  0
TEXT
  5
FF
330
2
100
AcDbEntity
  8
3
 62
     7
100
AcDbText
 10
-84.45277227425
 20
25.90431219348034
 30
0.0
 40
0.3653035824452196
  1
MIN.
 41
0.9
  7
ROMANS
 72
     4
 11
-84.01440797531575
 21
26.08696398470295
 31
0.0
100
AcDbText
  0
TEXT
  5
100
330
2
100
AcDbEntity
  8
3
 62
     3
100
AcDbText
 10
-77.69584455075417
 20
23.22797672146334
 30
0.0
 40
0.3044196520376831
  1
-
 41
0.9
  7
ROMANS
 72
     4
 11
-77.57842554211106
 21
23.35844228662235
 31
0.0
100
AcDbText
  0
TEXT
  5
101
330
2
100
AcDbEntity
  8
3
 62
     3
100
AcDbText
 10
-80.97801675226131
 20
23.22797672146334
 30
0.0
 40
0.3044196520376831
  1
-
 41
0.9
  7
ROMANS
 72
     4
 11
-80.86059774361819
 21
23.35844228662235
 31
0.0
100
AcDbText
  0
TEXT
  5
102
330
2
100
AcDbEntity
  8
3
 62
     3
100
AcDbText
 10
-77.69584455075417
 20
22.55825348698051
 30
0.0
 40
0.3044196520376831
  1
-
 41
0.9
  7
ROMANS
 72
     4
 11
-77.57842554211106
 21
22.68871905213952
 31
0.0
100
AcDbText
  0
TEXT
  5
103
330
2
100
AcDbEntity
  8
3
 62
     3
100
AcDbText
 10
-80.97801675226131
 20
22.55825348698051
 30
0.0
 40
0.3044196520376831
  1
-
 41
0.9
  7
ROMANS
 72
     4
 11
-80.86059774361819
 21
22.68871905213952
 31
0.0
100
AcDbText
  0
TEXT
  5
104
330
2
100
AcDbEntity
  8
3
 62
     3
100
AcDbText
 10
-77.69584455075417
 20
21.88853025249762
 30
0.0
 40
0.3044196520376831
  1
-
 41
0.9
  7
ROMANS
 72
     4
 11
-77.57842554211106
 21
22.01899581765663
 31
0.0
100
AcDbText
  0
TEXT
  5
105
330
2
100
AcDbEntity
  8
3
 62
     3
100
AcDbText
 10
-80.97801675226131
 20
21.88853025249762
 30
0.0
 40
0.3044196520376831
  1
-
 41
0.9
  7
ROMANS
 72
     4
 11
-80.86059774361819
 21
22.01899581765663
 31
0.0
100
AcDbText
  0
TEXT
  5
106
330
2
100
AcDbEntity
  8
3
 62
     3
100
AcDbText
 10
-77.69584455075417
 20
21.21880701801462
 30
0.0
 40
0.3044196520376831
  1
-
 41
0.9
  7
ROMANS
 72
     4
 11
-77.57842554211106
 21
21.34927258317363
 31
0.0
100
AcDbText
  0
TEXT
  5
107
330
2
100
AcDbEntity
  8
3
 62
     3
100
AcDbText
 10
-80.97801675226131
 20
21.21880701801462
 30
0.0
 40
0.3044196520376831
  1
-
 41
0.9
  7
ROMANS
 72
     4
 11
-80.86059774361819
 21
21.34927258317363
 31
0.0
100
AcDbText
  0
LWPOLYLINE
  5
108
330
2
100
AcDbEntity
  8
3
 62
     7
100
AcDbPolyline
 90
        2
 70
     0
 43
0.0304419652037683
 10
-76.02914342883287
 20
4.951155234586911
 10
-76.02914342883304
 20
26.50664870366338
  0
TEXT
  5
109
330
2
100
AcDbEntity
  8
3
 62
     3
100
AcDbText
 10
-100.168863239548
 20
14.51495560170529
 30
0.0
 40
0.3044196520376831
  1
MAXIMUM RADIUS ON ALL CORNERS UNLESS OTHERWISE SPECIFIED
 41
0.9
  7
ROMANS
 72
     4
 11
-93.13676927747753
 21
14.66716542772413
 31
0.0
100
AcDbText
  0
TEXT
  5
10A
330
2
100
AcDbEntity
  8
3
 62
     3
100
AcDbText
 10
-80.99752156492142
 20
14.52157951668215
 30
0.0
 40
0.3044196520376831
  1
-
 41
0.9
  7
ROMANS
 72
     4
 11
-80.8801025562783
 21
14.65204508184116
 31
0.0
100
AcDbText
  0
TEXT
  5
10B
330
2
100
AcDbEntity
  8
3
 62
     3
100
AcDbText
 10
-84.16662456835794
 20
14.52157951668215
 30
0.0
 40
0.3044196520376831
  1
-
 41
0.9
  7
ROMANS
 72
     4
 11
-84.04920555971484
 21
14.65204508184116
 31
0.0
100
AcDbText
  0
TEXT
  5
10C
330
2
100
AcDbEntity
  8
3
 62
     3
100
AcDbText
 10
-100.1669287299886
 20
15.17944685718215
 30
0.0
 40
0.3044196518990629
  1
Ni: 0.5~2.0 um, Pd: 0.0127~0.15 um, Au: 0.003~0.015 um
 41
0.9
  7
ROMANS
 72
     4
 11
-93.68931342279353
 21
15.30266433533177
 31
0.0
100
AcDbText
  0
TEXT
  5
10D
330
2
100
AcDbEntity
  8
3
 62
     3
100
AcDbText
 10
-100.1669287479302
 20
15.84234470389566
 30
0.0
 40
0.3044196518990629
  1
PLATING TO BE NiPd WITH Au:
 41
0.9
  7
ROMANS
 72
     4
 11
-96.97704568124505
 21
15.99455452984519
 31
0.0
100
AcDbText
  0
TEXT
  5
10E
330
2
100
AcDbEntity
  8
3
 62
     3
100
AcDbText
 10
-84.62502140495388
 20
23.89022282725856
 30
0.0
 40
0.3044196520376831
  1
0.275
 41
0.9
  7
ROMANS
 72
     4
 11
-84.07706603128605
 21
24.0424326532774
 31
0.0
100
AcDbText
  0
TEXT
  5
10F
330
2
100
AcDbEntity
  8
3
 62
     3
100
AcDbText
 10
-84.62502140495388
 20
23.22049959277562
 30
0.0
 40
0.3044196520376831
  1
0.350
 41
0.9
  7
ROMANS
 72
     4
 11
-84.07706603128605
 21
23.37270941879446
 31
0.0
100
AcDbText
  0
TEXT
  5
110
330
2
100
AcDbEntity
  8
3
 62
     3
100
AcDbText
 10
-84.62502140495388
 20
22.55077635829276
 30
0.0
 40
0.3044196520376831
  1
0.060
 41
0.9
  7
ROMANS
 72
     4
 11
-84.07706603128605
 21
22.7029861843116
 31
0.0
100
AcDbText
  0
TEXT
  5
111
330
2
100
AcDbEntity
  8
3
 62
     3
100
AcDbText
 10
-84.62502140495388
 20
21.8810531238099
 30
0.0
 40
0.3044196520376831
  1
0.060
 41
0.9
  7
ROMANS
 72
     4
 11
-84.07706603128605
 21
22.03326294982874
 31
0.0
100
AcDbText
  0
TEXT
  5
112
330
2
100
AcDbEntity
  8
3
 62
     3
100
AcDbText
 10
-81.40240870065719
 20
23.89022282725856
 30
0.0
 40
0.3044196520376831
  1
0.300
 41
0.9
  7
ROMANS
 72
     4
 11
-80.85445332698936
 21
24.0424326532774
 31
0.0
100
AcDbText
  0
TEXT
  5
113
330
2
100
AcDbEntity
  8
3
 62
     3
100
AcDbText
 10
-78.17979599636055
 20
23.89022282725856
 30
0.0
 40
0.3044196520376831
  1
0.325
 41
0.9
  7
ROMANS
 72
     4
 11
-77.63184062269272
 21
24.0424326532774
 31
0.0
100
AcDbText
  0
TEXT
  5
114
330
2
100
AcDbEntity
  8
3
 62
     3
100
AcDbText
 10
-84.62502140495388
 20
21.21132988932696
 30
0.0
 40
0.3044196520376831
  1
0.050
 41
0.9
  7
ROMANS
 72
     4
 11
-84.07706603128605
 21
21.3635397153458
 31
0.0
100
AcDbText
  0
TEXT
  5
115
330
2
100
AcDbEntity
  8
3
 62
     3
100
AcDbText
 10
-84.85333614398198
 20
20.54160665484404
 30
0.0
 40
0.3044196520376831
  1
228.186
 41
0.9
  7
ROMANS
 72
     4
 11
-84.07706603128588
 21
20.69381648086288
 31
0.0
100
AcDbText
  0
TEXT
  5
116
330
2
100
AcDbEntity
  8
3
 62
     3
100
AcDbText
 10
-84.85333614398198
 20
18.53243695139529
 30
0.0
 40
0.3044196520376831
  1
213.969
 41
0.9
  7
ROMANS
 72
     4
 11
-84.07706603128588
 21
18.68464677741413
 31
0.0
100
AcDbText
  0
TEXT
  5
117
330
2
100
AcDbEntity
  8
3
 62
     3
100
AcDbText
 10
-77.69584455075412
 20
17.87019084560018
 30
0.0
 40
0.3044196520376831
  1
-
 41
0.9
  7
ROMANS
 72
     4
 11
-77.57842554211101
 21
18.00065641075919
 31
0.0
100
AcDbText
  0
TEXT
  5
118
330
2
100
AcDbEntity
  8
3
 62
     3
100
AcDbText
 10
-80.97801675226131
 20
17.87019084560018
 30
0.0
 40
0.3044196520376831
  1
-
 41
0.9
  7
ROMANS
 72
     4
 11
-80.86059774361819
 21
18.00065641075919
 31
0.0
100
AcDbText
  0
TEXT
  5
119
330
2
100
AcDbEntity
  8
3
 62
     3
100
AcDbText
 10
-84.09965985118786
 20
17.87019084560018
 30
0.0
 40
0.3044196520376831
  1
-
 41
0.9
  7
ROMANS
 72
     4
 11
-83.98224084254474
 21
18.00065641075919
 31
0.0
100
AcDbText
  0
TEXT
  5
11A
330
2
100
AcDbEntity
  8
3
 62
     3
100
AcDbText
 10
-84.74896369185477
 20
19.87188342036101
 30
0.0
 40
0.3044196520376831
  1
50.749
 41
0.9
  7
ROMANS
 72
     4
 11
-84.07706603128588
 21
20.02409324637985
 31
0.0
100
AcDbText
  0
TEXT
  5
11B
330
2
100
AcDbEntity
  8
3
 62
     3
100
AcDbText
 10
-84.72939385708093
 20
19.20216018587815
 30
0.0
 40
0.3044196520376831
  1
14.243
 41
0.9
  7
ROMANS
 72
     4
 11
-84.07706603128588
 21
19.35437001189699
 31
0.0
100
AcDbText
  0
TEXT
  5
11C
330
2
100
AcDbEntity
  8
3
 62
     3
100
AcDbText
 10
-78.35592450932509
 20
18.53243695139529
 30
0.0
 40
0.3044196520376831
  1
214.071
 41
0.9
  7
ROMANS
 72
     4
 11
-77.6318406226926
 21
18.68464677741413
 31
0.0
100
AcDbText
  0
TEXT
  5
11D
330
2
100
AcDbEntity
  8
3
 62
     3
100
AcDbText
 10
-78.28416844848764
 20
19.20216018587815
 30
0.0
 40
0.3044196520376831
  1
14.293
 41
0.9
  7
ROMANS
 72
     4
 11
-77.6318406226926
 21
19.35437001189699
 31
0.0
100
AcDbText
  0
TEXT
  5
11E
330
2
100
AcDbEntity
  8
3
 62
     3
100
AcDbText
 10
-78.25155205719788
 20
19.87188342036101
 30
0.0
 40
0.3044196520376831
  1
50.851
 41
0.9
  7
ROMANS
 72
     4
 11
-77.6318406226926
 21
20.02409324637985
 31
0.0
100
AcDbText
  0
TEXT
  5
11F
330
2
100
AcDbEntity
  8
3
 62
     3
100
AcDbText
 10
-78.44072712667845
 20
20.54160665484404
 30
0.0
 40
0.3044196520376831
  1
228.390
 41
0.9
  7
ROMANS
 72
     4
 11
-77.6318406226926
 21
20.69381648086288
 31
0.0
100
AcDbText
  0
TEXT
  5
120
330
2
100
AcDbEntity
  8
3
 62
     3
100
AcDbText
 10
-81.63724671794339
 20
18.53243695139529
 30
0.0
 40
0.3044196520376831
  1
214.020
 41
0.9
  7
ROMANS
 72
     4
 11
-80.85445332698936
 21
18.68464677741413
 31
0.0
100
AcDbText
  0
TEXT
  5
121
330
2
100
AcDbEntity
  8
3
 62
     3
100
AcDbText
 10
-81.5067811527844
 20
19.20216018587815
 30
0.0
 40
0.3044196520376831
  1
14.268
 41
0.9
  7
ROMANS
 72
     4
 11
-80.85445332698936
 21
19.35437001189699
 31
0.0
100
AcDbText
  0
TEXT
  5
122
330
2
100
AcDbEntity
  8
3
 62
     3
100
AcDbText
 10
-81.53287426581618
 20
19.87188342036101
 30
0.0
 40
0.3044196520376831
  1
50.800
 41
0.9
  7
ROMANS
 72
     4
 11
-80.85445332698936
 21
20.02409324637985
 31
0.0
100
AcDbText
  0
TEXT
  5
123
330
2
100
AcDbEntity
  8
3
 62
     3
100
AcDbText
 10
-81.66333983097521
 20
20.54160665484404
 30
0.0
 40
0.3044196520376831
  1
228.288
 41
0.9
  7
ROMANS
 72
     4
 11
-80.85445332698936
 21
20.69381648086288
 31
0.0
100
AcDbText
  0
TEXT
  5
124
330
2
100
AcDbEntity
  8
3
 62
     3
100
AcDbText
 10
-81.55937583864179
 20
9.826040957488197
 30
0.0
 40
0.3044196520376831
  1
%%p0.102
 41
0.9
  7
ROMANS
 72
     4
 11
-80.86790834329907
 21
9.978250783507039
 31
0.0
100
AcDbText
  0
TEXT
  5
125
330
2
100
AcDbEntity
  8
3
 62
     3
100
AcDbText
 10
-78.07411604384284
 20
9.156317723005258
 30
0.0
 40
0.3044196520376831
  1
0.178
 41
0.9
  7
ROMANS
 72
     4
 11
-77.55225378320682
 21
9.3085275490241
 31
0.0
100
AcDbText
  0
TEXT
  5
126
330
2
100
AcDbEntity
  8
3
 62
     3
100
AcDbText
 10
-78.10020915687466
 20
7.816871254039538
 30
0.0
 40
0.3044196520376831
  1
0.508
 41
0.9
  7
ROMANS
 72
     4
 11
-77.55225378320682
 21
7.96908108005838
 31
0.0
100
AcDbText
  0
TEXT
  5
127
330
2
100
AcDbEntity
  8
3
 62
     3
100
AcDbText
 10
-77.90451080913614
 20
8.486594488522397
 30
0.0
 40
0.3044196520376831
  1
2.5%%d
 41
0.9
  7
ROMANS
 72
     4
 11
-77.55225378320682
 21
8.638804314541239
 31
0.0
100
AcDbText
  0
TEXT
  5
128
330
2
100
AcDbEntity
  8
3
 62
     3
100
AcDbText
 10
-78.07411604384291
 20
14.51410359886865
 30
0.0
 40
0.3044196520376831
  1
0.127
 41
0.9
  7
ROMANS
 72
     4
 11
-77.55225378320687
 21
14.66631342488749
 31
0.0
100
AcDbText
  0
TEXT
  5
129
330
2
100
AcDbEntity
  8
3
 62
     3
100
AcDbText
 10
-78.10020915687466
 20
13.17465712990276
 30
0.0
 40
0.3044196520376831
  1
0.025
 41
0.9
  7
ROMANS
 72
     4
 11
-77.55225378320682
 21
13.3268669559216
 31
0.0
100
AcDbText
  0
TEXT
  5
12A
330
2
100
AcDbEntity
  8
3
 62
     3
100
AcDbText
 10
-78.10020915687466
 20
13.84438036438562
 30
0.0
 40
0.3044196520376831
  1
0.025
 41
0.9
  7
ROMANS
 72
     4
 11
-77.55225378320682
 21
13.99659019040446
 31
0.0
100
AcDbText
  0
TEXT
  5
12B
330
2
100
AcDbEntity
  8
3
 62
     3
100
AcDbText
 10
-81.55937583864179
 20
12.50493389541988
 30
0.0
 40
0.3044196520376831
  1
%%p0.102
 41
0.9
  7
ROMANS
 72
     4
 11
-80.86790834329907
 21
12.65714372143873
 31
0.0
100
AcDbText
  0
TEXT
  5
12C
330
2
100
AcDbEntity
  8
3
 62
     3
100
AcDbText
 10
-78.8308163217651
 20
11.85695492179669
 30
0.0
 40
0.3044196520376831
  1
0.005/2.540
 41
0.9
  7
ROMANS
 72
     4
 11
-77.55225378320682
 21
11.9874204869557
 31
0.0
100
AcDbText
  0
TEXT
  5
12D
330
2
100
AcDbEntity
  8
3
 62
     3
100
AcDbText
 10
-78.10020915687466
 20
11.165487426454
 30
0.0
 40
0.3044196520376831
  1
0.038
 41
0.9
  7
ROMANS
 72
     4
 11
-77.55225378320682
 21
11.31769725247284
 31
0.0
100
AcDbText
  0
TEXT
  5
12E
330
2
100
AcDbEntity
  8
3
 62
     3
100
AcDbText
 10
-78.91174261045373
 20
10.51750845283098
 30
0.0
 40
0.3044196520376831
  1
0.051/2.540
 41
0.9
  7
ROMANS
 72
     4
 11
-77.65927318492725
 21
10.64797401798999
 31
0.0
100
AcDbText
  0
ENDSEC
  0
SECTION
  2
OBJECTS
  0
DICTIONARY
  5
C
330
0
100
AcDbDictionary
281
     1
  3
ACAD_COLOR
350
46
  3
ACAD_GROUP
350
33
  3
ACAD_LAYOUT
350
12
  3
ACAD_MATERIAL
350
E
  3
ACAD_MLEADERSTYLE
350
49
  3
ACAD_MLINESTYLE
350
34
  3
ACAD_PLOTSETTINGS
350
35
  3
ACAD_PLOTSTYLENAME
350
B
  3
ACAD_SCALELIST
350
47
  3
ACAD_TABLESTYLE
350
48
  3
ACAD_VISUALSTYLE
350
2B
  3
ACDB_RECOMPOSE_DATA
350
132
  3
AcDbVariableDictionary
350
4A
  0
DICTIONARY
  5
1B
330
1A
100
AcDbDictionary
280
     1
281
     1
  3
ACAD_LAYERFILTERS
360
1C
  3
ACAD_LAYERSTATES
360
1D
  3
ACLYDICTIONARY
360
1E
  0
DICTIONARY
  5
8
330
7
100
AcDbDictionary
280
     1
281
     1
  3
ADSK_XREC_LAYER_RECONCILED
360
9
  0
DICTIONARY
  5
58
330
57
100
AcDbDictionary
280
     1
281
     1
  3
ADSK_XREC_LAYER_RECONCILED
360
59
  0
DICTIONARY
  5
72
330
71
100
AcDbDictionary
280
     1
281
     1
  3
ADSK_XREC_LAYER_RECONCILED
360
73
  0
DICTIONARY
  5
3
330
2
100
AcDbDictionary
280
     1
281
     1
  3
ACAD_LAYOUTSELFREF
360
4
  3
ACAD_SORTENTS
360
12F
  0
DICTIONARY
  5
15
330
14
100
AcDbDictionary
280
     1
281
     1
  3
ACAD_LAYOUTSELFREF
360
16
  0
DICTIONARY
  5
46
102
{ACAD_REACTORS
330
C
102
}
330
C
100
AcDbDictionary
281
     1
  0
DICTIONARY
  5
33
102
{ACAD_REACTORS
330
C
102
}
330
C
100
AcDbDictionary
281
     1
  0
DICTIONARY
  5
12
102
{ACAD_REACTORS
330
C
102
}
330
C
100
AcDbDictionary
281
     1
  3
Layout1
350
19
  3
Model
350
11
  0
DICTIONARY
  5
E
102
{ACAD_REACTORS
330
C
102
}
330
C
100
AcDbDictionary
281
     1
  3
ByBlock
350
3E
  3
ByLayer
350
36
  3
Global
350
D
  0
DICTIONARY
  5
49
102
{ACAD_REACTORS
330
C
102
}
330
C
100
AcDbDictionary
281
     1
  0
DICTIONARY
  5
34
102
{ACAD_REACTORS
330
C
102
}
330
C
100
AcDbDictionary
281
     1
  3
Standard
350
5A
  0
DICTIONARY
  5
35
102
{ACAD_REACTORS
330
C
102
}
330
C
100
AcDbDictionary
281
     1
  0
ACDBDICTIONARYWDFLT
  5
B
102
{ACAD_REACTORS
330
C
102
}
330
C
100
AcDbDictionary
281
     1
  3
Normal
350
A
100
AcDbDictionaryWithDefault
340
A
  0
DICTIONARY
  5
47
102
{ACAD_REACTORS
330
C
102
}
330
C
100
AcDbDictionary
281
     1
  3
A0
350
5F
  3
A1
350
60
  3
A2
350
61
  3
A3
350
62
  3
A4
350
63
  3
A5
350
64
  3
A6
350
65
  3
A7
350
66
  3
A8
350
67
  3
A9
350
68
  3
B0
350
69
  3
B1
350
6A
  3
B2
350
6B
  3
B3
350
6C
  3
B4
350
6D
  3
B5
350
6E
  3
B6
350
6F
  0
DICTIONARY
  5
48
102
{ACAD_REACTORS
330
C
102
}
330
C
100
AcDbDictionary
281
     1
  3
Standard
350
5B
  0
DICTIONARY
  5
2B
102
{ACAD_REACTORS
330
C
102
}
330
C
100
AcDbDictionary
281
     1
  3
2dWireframe
350
2A
  3
Realistic
350
5D
  3
Wireframe
350
5E
  0
XRECORD
  5
132
102
{ACAD_REACTORS
330
C
102
}
330
C
100
AcDbXrecord
280
     1
 90
        1
330
5B
  0
DICTIONARY
  5
4A
102
{ACAD_REACTORS
330
C
102
}
330
C
100
AcDbDictionary
281
     1
  3
CANNOSCALE
350
4B
  3
CMLEADERSTYLE
350
4C
  3
CTABLESTYLE
350
4D
  3
CVIEWDETAILSTYLE
350
4E
  3
CVIEWSECTIONSTYLE
350
4F
  3
DIMASSOC
350
50
  3
HIDETEXT
350
51
  3
LAYEREVAL
350
52
  3
LAYERNOTIFY
350
53
  3
LIGHTINGUNITS
350
54
  3
MSLTSCALE
350
55
  3
PROJECTNAME
350
56
  0
DICTIONARY
  5
1C
102
{ACAD_REACTORS
330
1B
102
}
330
1B
100
AcDbDictionary
281
     1
  0
DICTIONARY
  5
1D
102
{ACAD_REACTORS
330
1B
102
}
330
1B
100
AcDbDictionary
281
     1
  0
DICTIONARY
  5
1E
102
{ACAD_REACTORS
330
1B
102
}
330
1B
100
AcDbDictionary
281
     1
1001
ACAD
1000
<All
  0
XRECORD
  5
9
102
{ACAD_REACTORS
330
8
102
}
330
8
100
AcDbXrecord
280
     1
290
     1
  0
XRECORD
  5
59
102
{ACAD_REACTORS
330
58
102
}
330
58
100
AcDbXrecord
280
     1
290
     1
  0
XRECORD
  5
73
102
{ACAD_REACTORS
330
72
102
}
330
72
100
AcDbXrecord
280
     1
290
     1
  0
XRECORD
  5
4
102
{ACAD_REACTORS
330
3
102
}
330
3
100
AcDbXrecord
280
     1
340
2
  0
SORTENTSTABLE
  5
12F
102
{ACAD_REACTORS
330
3
102
}
330
3
100
AcDbSortentsTable
330
2
  0
XRECORD
  5
16
102
{ACAD_REACTORS
330
15
102
}
330
15
100
AcDbXrecord
280
     1
340
14
  0
LAYOUT
  5
19
102
{ACAD_REACTORS
330
12
102
}
330
12
100
AcDbPlotSettings
  1

  2
\\ATS1\4FMIS_HP2100TN2
  4

  6

 40
0.0
 41
0.0
 42
0.0
 43
0.0
 44
0.0
 45
0.0
 46
0.0
 47
0.0
 48
0.0
 49
0.0
140
0.0
141
0.0
142
1.0
143
1.0
 70
   688
 72
     0
 73
     0
 74
     5
  7
monochrome.ctb
 75
    16
147
1.0
 76
     0
 77
     2
 78
   300
148
0.0
149
0.0
100
AcDbLayout
  1
Layout1
 70
     0
 71
     1
 10
0.0
 20
0.0
 11
12.0
 21
9.0
 12
172.0339424788132
 22
50.0
 32
37.26594377789137
 14
1.000000000000000E+20
 24
1.000000000000000E+20
 34
1.000000000000000E+20
 15
-1.000000000000000E+20
 25
-1.000000000000000E+20
 35
-1.000000000000000E+20
146
0.0
 13
0.0
 23
0.0
 33
0.0
 16
1.0
 26
0.0
 36
0.0
 17
0.0
 27
1.0
 37
0.0
 76
     0
330
14
  0
LAYOUT
  5
11
102
{ACAD_REACTORS
330
12
102
}
330
12
100
AcDbPlotSettings
  1

  2
\\atsnts34\TJ04
  4
A4
  6

 40
4.233333110809326
 41
4.233341693878172
 42
4.233322143554686
 43
4.23333740234375
 44
209.9733276367186
 45
296.9259948730469
 46
0.0
 47
110.1609822088037
 48
300.1503561464607
 49
-89.43836759052279
140
307.5184937904082
141
-86.94690972675482
142
1.0
143
0.0365652291154243
 70
 11956
 72
     1
 73
     0
 74
     4
  7
monochrome.ctb
 75
     0
147
27.34838599925992
 76
     0
 77
     2
 78
   300
148
-300.1503561464607
149
89.43836759052279
100
AcDbLayout
  1
Model
 70
     1
 71
     0
 10
0.0
 20
0.0
 11
12.0
 21
9.0
 12
0.0
 22
0.0
 32
0.0
 14
0.0
 24
0.0
 34
0.0
 15
0.0
 25
0.0
 35
0.0
146
0.0
 13
0.0
 23
0.0
 33
0.0
 16
1.0
 26
0.0
 36
0.0
 17
0.0
 27
1.0
 37
0.0
 76
     0
330
2
331
29
1001
ACAD_PSEXT
1000
\\atsnts34\TJ04
1000
HP LaserJet 5100 PCL 6
1000
2f_CAD Rm
1000
10.8.12.60
1070
     0
  0
MATERIAL
  5
3E
102
{ACAD_XDICTIONARY
360
3F
102
}
102
{ACAD_REACTORS
330
E
102
}
330
E
100
AcDbMaterial
  1
ByBlock
 72
     0
 43
0.0208333333333333
 43
0.0
 43
0.0
 43
0.0
 43
0.0
 43
0.0208333333333333
 43
0.0
 43
0.0
 43
0.0
 43
0.0
 43
1.0
 43
0.0
 43
0.0
 43
0.0
 43
0.0
 43
1.0
 77
     0
 47
0.0208333333333333
 47
0.0
 47
0.0
 47
0.0
 47
0.0
 47
0.0208333333333333
 47
0.0
 47
0.0
 47
0.0
 47
0.0
 47
1.0
 47
0.0
 47
0.0
 47
0.0
 47
0.0
 47
1.0
171
     0
 49
0.0208333333333333
 49
0.0
 49
0.0
 49
0.0
 49
0.0
 49
0.0208333333333333
 49
0.0
 49
0.0
 49
0.0
 49
0.0
 49
1.0
 49
0.0
 49
0.0
 49
0.0
 49
0.0
 49
1.0
175
     0
142
0.0208333333333333
142
0.0
142
0.0
142
0.0
142
0.0
142
0.0208333333333333
142
0.0
142
0.0
142
0.0
142
0.0
142
1.0
142
0.0
142
0.0
142
0.0
142
0.0
142
1.0
179
     0
144
0.0208333333333333
144
0.0
144
0.0
144
0.0
144
0.0
144
0.0208333333333333
144
0.0
144
0.0
144
0.0
144
0.0
144
1.0
144
0.0
144
0.0
144
0.0
144
0.0
144
1.0
147
0.0208333333333333
147
0.0
147
0.0
147
0.0
147
0.0
147
0.0208333333333333
147
0.0
147
0.0
147
0.0
147
0.0
147
1.0
147
0.0
147
0.0
147
0.0
147
0.0
147
1.0
  0
MATERIAL
  5
36
102
{ACAD_XDICTIONARY
360
37
102
}
102
{ACAD_REACTORS
330
E
102
}
330
E
100
AcDbMaterial
  1
ByLayer
 72
     0
 43
0.0208333333333333
 43
0.0
 43
0.0
 43
0.0
 43
0.0
 43
0.0208333333333333
 43
0.0
 43
0.0
 43
0.0
 43
0.0
 43
1.0
 43
0.0
 43
0.0
 43
0.0
 43
0.0
 43
1.0
 77
     0
 47
0.0208333333333333
 47
0.0
 47
0.0
 47
0.0
 47
0.0
 47
0.0208333333333333
 47
0.0
 47
0.0
 47
0.0
 47
0.0
 47
1.0
 47
0.0
 47
0.0
 47
0.0
 47
0.0
 47
1.0
171
     0
 49
0.0208333333333333
 49
0.0
 49
0.0
 49
0.0
 49
0.0
 49
0.0208333333333333
 49
0.0
 49
0.0
 49
0.0
 49
0.0
 49
1.0
 49
0.0
 49
0.0
 49
0.0
 49
0.0
 49
1.0
175
     0
142
0.0208333333333333
142
0.0
142
0.0
142
0.0
142
0.0
142
0.0208333333333333
142
0.0
142
0.0
142
0.0
142
0.0
142
1.0
142
0.0
142
0.0
142
0.0
142
0.0
142
1.0
179
     0
144
0.0208333333333333
144
0.0
144
0.0
144
0.0
144
0.0
144
0.0208333333333333
144
0.0
144
0.0
144
0.0
144
0.0
144
1.0
144
0.0
144
0.0
144
0.0
144
0.0
144
1.0
147
0.0208333333333333
147
0.0
147
0.0
147
0.0
147
0.0
147
0.0208333333333333
147
0.0
147
0.0
147
0.0
147
0.0
147
1.0
147
0.0
147
0.0
147
0.0
147
0.0
147
1.0
  0
MATERIAL
  5
D
102
{ACAD_REACTORS
330
E
102
}
330
E
100
AcDbMaterial
  1
GLOBAL
 73
     1
 78
     1
172
     1
176
     1
270
     1
274
     1
 94
       63
  0
MLINESTYLE
  5
5A
102
{ACAD_REACTORS
330
34
102
}
330
34
100
AcDbMlineStyle
  2
STANDARD
 70
     0
  3

 62
   256
 51
90.0
 52
90.0
 71
     2
 49
0.5
 62
   256
  6
BYLAYER
 49
-0.5
 62
   256
  6
BYLAYER
  0
ACDBPLACEHOLDER
  5
A
102
{ACAD_REACTORS
330
B
102
}
330
B
  0
SCALE
  5
5F
102
{ACAD_REACTORS
330
47
102
}
330
47
100
AcDbScale
 70
     0
300
1:1
140
1.0
141
1.0
290
     1
  0
SCALE
  5
60
102
{ACAD_REACTORS
330
47
102
}
330
47
100
AcDbScale
 70
     0
300
1/128" = 1'-0"
140
0.0078125
141
12.0
290
     0
  0
SCALE
  5
61
102
{ACAD_REACTORS
330
47
102
}
330
47
100
AcDbScale
 70
     0
300
1/64" = 1'-0"
140
0.015625
141
12.0
290
     0
  0
SCALE
  5
62
102
{ACAD_REACTORS
330
47
102
}
330
47
100
AcDbScale
 70
     0
300
1/32" = 1'-0"
140
0.03125
141
12.0
290
     0
  0
SCALE
  5
63
102
{ACAD_REACTORS
330
47
102
}
330
47
100
AcDbScale
 70
     0
300
1/16" = 1'-0"
140
0.0625
141
12.0
290
     0
  0
SCALE
  5
64
102
{ACAD_REACTORS
330
47
102
}
330
47
100
AcDbScale
 70
     0
300
3/32" = 1'-0"
140
0.09375
141
12.0
290
     0
  0
SCALE
  5
65
102
{ACAD_REACTORS
330
47
102
}
330
47
100
AcDbScale
 70
     0
300
1/8" = 1'-0"
140
0.125
141
12.0
290
     0
  0
SCALE
  5
66
102
{ACAD_REACTORS
330
47
102
}
330
47
100
AcDbScale
 70
     0
300
3/16" = 1'-0"
140
0.1875
141
12.0
290
     0
  0
SCALE
  5
67
102
{ACAD_REACTORS
330
47
102
}
330
47
100
AcDbScale
 70
     0
300
1/4" = 1'-0"
140
0.25
141
12.0
290
     0
  0
SCALE
  5
68
102
{ACAD_REACTORS
330
47
102
}
330
47
100
AcDbScale
 70
     0
300
3/8" = 1'-0"
140
0.375
141
12.0
290
     0
  0
SCALE
  5
69
102
{ACAD_REACTORS
330
47
102
}
330
47
100
AcDbScale
 70
     0
300
1/2" = 1'-0"
140
0.5
141
12.0
290
     0
  0
SCALE
  5
6A
102
{ACAD_REACTORS
330
47
102
}
330
47
100
AcDbScale
 70
     0
300
3/4" = 1'-0"
140
0.75
141
12.0
290
     0
  0
SCALE
  5
6B
102
{ACAD_REACTORS
330
47
102
}
330
47
100
AcDbScale
 70
     0
300
1" = 1'-0"
140
1.0
141
12.0
290
     0
  0
SCALE
  5
6C
102
{ACAD_REACTORS
330
47
102
}
330
47
100
AcDbScale
 70
     0
300
1-1/2" = 1'-0"
140
1.5
141
12.0
290
     0
  0
SCALE
  5
6D
102
{ACAD_REACTORS
330
47
102
}
330
47
100
AcDbScale
 70
     0
300
3" = 1'-0"
140
3.0
141
12.0
290
     0
  0
SCALE
  5
6E
102
{ACAD_REACTORS
330
47
102
}
330
47
100
AcDbScale
 70
     0
300
6" = 1'-0"
140
6.0
141
12.0
290
     0
  0
SCALE
  5
6F
102
{ACAD_REACTORS
330
47
102
}
330
47
100
AcDbScale
 70
     0
300
1'-0" = 1'-0"
140
12.0
141
12.0
290
     0
  0
TABLESTYLE
  5
5B
102
{ACAD_XDICTIONARY
360
5C
102
}
102
{ACAD_REACTORS
330
48
102
}
330
48
100
AcDbTableStyle
280
     0
  3
Standard
 70
     0
 71
     0
 40
0.06
 41
0.06
280
     0
281
     0
  7
STANDARD
140
0.18
170
     2
 62
     0
 63
     7
283
     0
 90
        4
 91
        0
  1

274
    -2
284
     1
 64
     0
275
    -2
285
     1
 65
     0
276
    -2
286
     1
 66
     0
277
    -2
287
     1
 67
     0
278
    -2
288
     1
 68
     0
279
    -2
289
     1
 69
     0
  7
STANDARD
140
0.25
170
     5
 62
     0
 63
     7
283
     0
 90
        4
 91
        0
  1

274
    -2
284
     1
 64
     0
275
    -2
285
     1
 65
     0
276
    -2
286
     1
 66
     0
277
    -2
287
     1
 67
     0
278
    -2
288
     1
 68
     0
279
    -2
289
     1
 69
     0
  7
STANDARD
140
0.18
170
     5
 62
     0
 63
     7
283
     0
 90
        4
 91
        0
  1

274
    -2
284
     1
 64
     0
275
    -2
285
     1
 65
     0
276
    -2
286
     1
 66
     0
277
    -2
287
     1
 67
     0
278
    -2
288
     1
 68
     0
279
    -2
289
     1
 69
     0
  0
VISUALSTYLE
  5
2A
102
{ACAD_REACTORS
330
2B
102
}
330
2B
100
AcDbVisualStyle
  2
2dWireframe
 70
     4
177
     3
291
     0
 70
    58
 90
        0
176
     1
 90
        2
176
     1
 90
        0
176
     1
 90
        0
176
     1
 40
0.6
176
     1
 40
30.0
176
     1
 62
     7
420
 16777215
176
     1
 90
        1
176
     1
 90
        4
176
     1
 62
     7
176
     1
 62
   257
176
     1
 90
        1
176
     1
 90
        1
176
     1
 40
1.0
176
     1
 90
        0
176
     1
 62
   257
176
     1
 40
1.0
176
     1
 90
        1
176
     1
 90
        6
176
     1
 90
        2
176
     1
 62
     7
176
     1
 90
        5
176
     1
 90
        0
176
     1
 90
        0
176
     1
290
     0
176
     1
 90
        1
176
     1
 40
0.0
176
     1
 90
        0
176
     1
290
     1
176
     1
290
     1
176
     1
290
     0
176
     1
290
     0
176
     1
290
     0
176
     1
290
     0
176
     1
290
     0
176
     1
290
     0
176
     1
290
     0
176
     1
 90
       50
176
     1
 40
0.0
176
     1
 40
1.0
176
     1
 90
        0
176
     1
 62
    18
176
     1
 90
       50
176
     1
 90
        3
176
     1
 62
     5
420
      255
176
     1
290
     0
176
     1
 90
       50
176
     1
 90
       50
176
     1
 90
       50
176
     1
290
     0
176
     1
 90
       50
176
     1
 62
   256
176
     0
 40
1.0
176
     0
 90
        2
176
     1
  1
strokes_ogs.tif
176
     1
290
     0
176
     1
 40
1.0
176
     1
 40
1.0
176
     1
  0
VISUALSTYLE
  5
5D
102
{ACAD_REACTORS
330
2B
102
}
330
2B
100
AcDbVisualStyle
  2
Realistic
 70
     8
177
     3
291
     0
 70
    58
 90
        2
176
     1
 90
        3
176
     1
 90
        0
176
     1
 90
        2
176
     1
 40
0.6
176
     1
 40
30.0
176
     1
 62
     7
420
 16777215
176
     1
 90
        0
176
     1
 90
        0
176
     1
 62
     7
176
     1
 62
   257
176
     1
 90
        1
176
     1
 90
        1
176
     1
 40
1.0
176
     1
 90
        8
176
     1
 62
   257
176
     1
 40
1.0
176
     1
 90
        1
176
     1
 90
        6
176
     1
 90
        2
176
     1
 62
     7
176
     1
 90
        3
176
     1
 90
        0
176
     1
 90
        0
176
     1
290
     0
176
     1
 90
       13
176
     1
 40
0.0
176
     1
 90
        0
176
     1
290
     0
176
     1
290
     1
176
     1
290
     1
176
     1
290
     0
176
     1
290
     0
176
     1
290
     0
176
     1
290
     0
176
     1
290
     0
176
     1
290
     0
176
     1
 90
       50
176
     1
 40
0.0
176
     1
 40
1.0
176
     1
 90
        0
176
     1
 62
    18
176
     1
 90
       50
176
     1
 90
        3
176
     1
 62
     5
420
      255
176
     1
290
     0
176
     1
 90
       50
176
     1
 90
       50
176
     1
 90
       50
176
     1
290
     0
176
     1
 90
       50
176
     1
 62
   256
176
     0
 40
1.0
176
     0
 90
        2
176
     1
  1
strokes_ogs.tif
176
     1
290
     0
176
     1
 40
1.0
176
     1
 40
1.0
176
     1
  0
VISUALSTYLE
  5
5E
102
{ACAD_REACTORS
330
2B
102
}
330
2B
100
AcDbVisualStyle
  2
Wireframe
 70
     5
177
     3
291
     0
 70
    58
 90
        0
176
     1
 90
        2
176
     1
 90
        0
176
     1
 90
        0
176
     1
 40
0.6
176
     1
 40
30.0
176
     1
 62
     7
420
 16777215
176
     1
 90
        1
176
     1
 90
        4
176
     1
 62
     7
176
     1
 62
   257
176
     1
 90
        1
176
     1
 90
        1
176
     1
 40
1.0
176
     1
 90
        0
176
     1
 62
   257
176
     1
 40
1.0
176
     1
 90
        1
176
     1
 90
        6
176
     1
 90
        2
176
     1
 62
     7
176
     1
 90
        3
176
     1
 90
        0
176
     1
 90
        0
176
     1
290
     0
176
     1
 90
        1
176
     1
 40
0.0
176
     1
 90
        0
176
     1
290
     0
176
     1
290
     1
176
     1
290
     1
176
     1
290
     0
176
     1
290
     0
176
     1
290
     0
176
     1
290
     0
176
     1
290
     0
176
     1
290
     0
176
     1
 90
       50
176
     1
 40
0.0
176
     1
 40
1.0
176
     1
 90
        0
176
     1
 62
    18
176
     1
 90
       50
176
     1
 90
        3
176
     1
 62
     5
420
      255
176
     1
290
     0
176
     1
 90
       50
176
     1
 90
       50
176
     1
 90
       50
176
     1
290
     0
176
     1
 90
       50
176
     1
 62
   256
176
     0
 40
1.0
176
     0
 90
        2
176
     1
  1
strokes_ogs.tif
176
     1
290
     0
176
     1
 40
1.0
176
     1
 40
1.0
176
     1
  0
DICTIONARYVAR
  5
4B
102
{ACAD_REACTORS
330
4A
102
}
330
4A
100
DictionaryVariables
280
     0
  1
1:1
  0
DICTIONARYVAR
  5
4C
102
{ACAD_REACTORS
330
4A
102
}
330
4A
100
DictionaryVariables
280
     0
  1
STANDARD
  0
DICTIONARYVAR
  5
4D
102
{ACAD_REACTORS
330
4A
102
}
330
4A
100
DictionaryVariables
280
     0
  1
STANDARD
  0
DICTIONARYVAR
  5
4E
102
{ACAD_REACTORS
330
4A
102
}
330
4A
100
DictionaryVariables
280
     0
  1

  0
DICTIONARYVAR
  5
4F
102
{ACAD_REACTORS
330
4A
102
}
330
4A
100
DictionaryVariables
280
     0
  1

  0
DICTIONARYVAR
  5
50
102
{ACAD_REACTORS
330
4A
102
}
330
4A
100
DictionaryVariables
280
     0
  1
0
  0
DICTIONARYVAR
  5
51
102
{ACAD_REACTORS
330
4A
102
}
330
4A
100
DictionaryVariables
280
     0
  1
1
  0
DICTIONARYVAR
  5
52
102
{ACAD_REACTORS
330
4A
102
}
330
4A
100
DictionaryVariables
280
     0
  1
1
  0
DICTIONARYVAR
  5
53
102
{ACAD_REACTORS
330
4A
102
}
330
4A
100
DictionaryVariables
280
     0
  1
15
  0
DICTIONARYVAR
  5
54
102
{ACAD_REACTORS
330
4A
102
}
330
4A
100
DictionaryVariables
280
     0
  1
0
  0
DICTIONARYVAR
  5
55
102
{ACAD_REACTORS
330
4A
102
}
330
4A
100
DictionaryVariables
280
     0
  1
0
  0
DICTIONARYVAR
  5
56
102
{ACAD_REACTORS
330
4A
102
}
330
4A
100
DictionaryVariables
280
     0
  1

  0
DICTIONARY
  5
3F
330
3E
100
AcDbDictionary
280
     1
281
     1
  3
BUMPTILE
360
40
  3
DIFFUSETILE
360
41
  3
OPACITYTILE
360
42
  3
REFLECTIONTILE
360
43
  3
REFRACTIONTILE
360
44
  3
SPECULARTILE
360
45
  0
DICTIONARY
  5
37
330
36
100
AcDbDictionary
280
     1
281
     1
  3
BUMPTILE
360
38
  3
DIFFUSETILE
360
39
  3
OPACITYTILE
360
3A
  3
REFLECTIONTILE
360
3B
  3
REFRACTIONTILE
360
3C
  3
SPECULARTILE
360
3D
  0
DICTIONARY
  5
5C
330
5B
100
AcDbDictionary
280
     1
281
     1
  3
ACAD_ROUNDTRIP_2008_TABLESTYLE_CELLSTYLEMAP
360
131
  0
XRECORD
  5
40
102
{ACAD_REACTORS
330
3F
102
}
330
3F
100
AcDbXrecord
280
     1
270
     1
271
     1
  0
XRECORD
  5
41
102
{ACAD_REACTORS
330
3F
102
}
330
3F
100
AcDbXrecord
280
     1
270
     1
271
     1
  0
XRECORD
  5
42
102
{ACAD_REACTORS
330
3F
102
}
330
3F
100
AcDbXrecord
280
     1
270
     1
271
     1
  0
XRECORD
  5
43
102
{ACAD_REACTORS
330
3F
102
}
330
3F
100
AcDbXrecord
280
     1
270
     1
271
     1
  0
XRECORD
  5
44
102
{ACAD_REACTORS
330
3F
102
}
330
3F
100
AcDbXrecord
280
     1
270
     1
271
     1
  0
XRECORD
  5
45
102
{ACAD_REACTORS
330
3F
102
}
330
3F
100
AcDbXrecord
280
     1
270
     1
271
     1
  0
XRECORD
  5
38
102
{ACAD_REACTORS
330
37
102
}
330
37
100
AcDbXrecord
280
     1
270
     1
271
     1
  0
XRECORD
  5
39
102
{ACAD_REACTORS
330
37
102
}
330
37
100
AcDbXrecord
280
     1
270
     1
271
     1
  0
XRECORD
  5
3A
102
{ACAD_REACTORS
330
37
102
}
330
37
100
AcDbXrecord
280
     1
270
     1
271
     1
  0
XRECORD
  5
3B
102
{ACAD_REACTORS
330
37
102
}
330
37
100
AcDbXrecord
280
     1
270
     1
271
     1
  0
XRECORD
  5
3C
102
{ACAD_REACTORS
330
37
102
}
330
37
100
AcDbXrecord
280
     1
270
     1
271
     1
  0
XRECORD
  5
3D
102
{ACAD_REACTORS
330
37
102
}
330
37
100
AcDbXrecord
280
     1
270
     1
271
     1
  0
CELLSTYLEMAP
  5
131
102
{ACAD_REACTORS
330
5C
102
}
330
5C
100
AcDbCellStyleMap
 90
        3
300
CELLSTYLE
  1
TABLEFORMAT_BEGIN
 90
        5
170
     1
 91
        0
 92
    32768
 62
   257
 93
        1
300
CONTENTFORMAT
  1
CONTENTFORMAT_BEGIN
 90
        0
 91
        0
 92
        4
 93
        0
300

 40
0.0
140
1.0
 94
        5
 62
     0
340
21
144
0.25
309
CONTENTFORMAT_END
171
     1
301
MARGIN
  1
CELLMARGIN_BEGIN
 40
0.06
 40
0.06
 40
0.06
 40
0.06
 40
0.18
 40
0.18
309
CELLMARGIN_END
 94
        6
 95
        1
302
GRIDFORMAT
  1
GRIDFORMAT_BEGIN
 90
        0
 91
        1
 62
     0
 92
       -2
340
0
 93
        0
 40
0.045
309
GRIDFORMAT_END
 95
        2
302
GRIDFORMAT
  1
GRIDFORMAT_BEGIN
 90
        0
 91
        1
 62
     0
 92
       -2
340
0
 93
        0
 40
0.045
309
GRIDFORMAT_END
 95
        4
302
GRIDFORMAT
  1
GRIDFORMAT_BEGIN
 90
        0
 91
        1
 62
     0
 92
       -2
340
0
 93
        0
 40
0.045
309
GRIDFORMAT_END
 95
        8
302
GRIDFORMAT
  1
GRIDFORMAT_BEGIN
 90
        0
 91
        1
 62
     0
 92
       -2
340
0
 93
        0
 40
0.045
309
GRIDFORMAT_END
 95
       16
302
GRIDFORMAT
  1
GRIDFORMAT_BEGIN
 90
        0
 91
        1
 62
     0
 92
       -2
340
0
 93
        0
 40
0.045
309
GRIDFORMAT_END
 95
       32
302
GRIDFORMAT
  1
GRIDFORMAT_BEGIN
 90
        0
 91
        1
 62
     0
 92
       -2
340
0
 93
        0
 40
0.045
309
GRIDFORMAT_END
309
TABLEFORMAT_END
  1
CELLSTYLE_BEGIN
 90
        1
 91
        1
300
_TITLE
309
CELLSTYLE_END
300
CELLSTYLE
  1
TABLEFORMAT_BEGIN
 90
        5
170
     1
 91
        0
 92
        0
 62
   257
 93
        1
300
CONTENTFORMAT
  1
CONTENTFORMAT_BEGIN
 90
        0
 91
        0
 92
        4
 93
        0
300

 40
0.0
140
1.0
 94
        5
 62
     0
340
21
144
0.18
309
CONTENTFORMAT_END
171
     1
301
MARGIN
  1
CELLMARGIN_BEGIN
 40
0.06
 40
0.06
 40
0.06
 40
0.06
 40
0.18
 40
0.18
309
CELLMARGIN_END
 94
        6
 95
        1
302
GRIDFORMAT
  1
GRIDFORMAT_BEGIN
 90
        0
 91
        1
 62
     0
 92
       -2
340
0
 93
        0
 40
0.045
309
GRIDFORMAT_END
 95
        2
302
GRIDFORMAT
  1
GRIDFORMAT_BEGIN
 90
        0
 91
        1
 62
     0
 92
       -2
340
0
 93
        0
 40
0.045
309
GRIDFORMAT_END
 95
        4
302
GRIDFORMAT
  1
GRIDFORMAT_BEGIN
 90
        0
 91
        1
 62
     0
 92
       -2
340
0
 93
        0
 40
0.045
309
GRIDFORMAT_END
 95
        8
302
GRIDFORMAT
  1
GRIDFORMAT_BEGIN
 90
        0
 91
        1
 62
     0
 92
       -2
340
0
 93
        0
 40
0.045
309
GRIDFORMAT_END
 95
       16
302
GRIDFORMAT
  1
GRIDFORMAT_BEGIN
 90
        0
 91
        1
 62
     0
 92
       -2
340
0
 93
        0
 40
0.045
309
GRIDFORMAT_END
 95
       32
302
GRIDFORMAT
  1
GRIDFORMAT_BEGIN
 90
        0
 91
        1
 62
     0
 92
       -2
340
0
 93
        0
 40
0.045
309
GRIDFORMAT_END
309
TABLEFORMAT_END
  1
CELLSTYLE_BEGIN
 90
        2
 91
        1
300
_HEADER
309
CELLSTYLE_END
300
CELLSTYLE
  1
TABLEFORMAT_BEGIN
 90
        5
170
     1
 91
        0
 92
        0
 62
   257
 93
        1
300
CONTENTFORMAT
  1
CONTENTFORMAT_BEGIN
 90
        0
 91
        0
 92
        4
 93
        0
300

 40
0.0
140
1.0
 94
        2
 62
     0
340
21
144
0.18
309
CONTENTFORMAT_END
171
     1
301
MARGIN
  1
CELLMARGIN_BEGIN
 40
0.06
 40
0.06
 40
0.06
 40
0.06
 40
0.18
 40
0.18
309
CELLMARGIN_END
 94
        6
 95
        1
302
GRIDFORMAT
  1
GRIDFORMAT_BEGIN
 90
        0
 91
        1
 62
     0
 92
       -2
340
0
 93
        0
 40
0.045
309
GRIDFORMAT_END
 95
        2
302
GRIDFORMAT
  1
GRIDFORMAT_BEGIN
 90
        0
 91
        1
 62
     0
 92
       -2
340
0
 93
        0
 40
0.045
309
GRIDFORMAT_END
 95
        4
302
GRIDFORMAT
  1
GRIDFORMAT_BEGIN
 90
        0
 91
        1
 62
     0
 92
       -2
340
0
 93
        0
 40
0.045
309
GRIDFORMAT_END
 95
        8
302
GRIDFORMAT
  1
GRIDFORMAT_BEGIN
 90
        0
 91
        1
 62
     0
 92
       -2
340
0
 93
        0
 40
0.045
309
GRIDFORMAT_END
 95
       16
302
GRIDFORMAT
  1
GRIDFORMAT_BEGIN
 90
        0
 91
        1
 62
     0
 92
       -2
340
0
 93
        0
 40
0.045
309
GRIDFORMAT_END
 95
       32
302
GRIDFORMAT
  1
GRIDFORMAT_BEGIN
 90
        0
 91
        1
 62
     0
 92
       -2
340
0
 93
        0
 40
0.045
309
GRIDFORMAT_END
309
TABLEFORMAT_END
  1
CELLSTYLE_BEGIN
 90
        3
 91
        2
300
_DATA
309
CELLSTYLE_END
  0
ENDSEC
  0
EOF
