  0
SECTION
  2
HEADER
  9
$ACADVER
  1
AC1032
  9
$ACADMAINTVER
 90
      248
  9
$DWGCODEPAGE
  3
ANSI_936
  9
$REQUIREDVERSIONS
160
                 0
  9
$INSBASE
 10
0.0
 20
0.0
 30
0.0
  9
$EXTMIN
 10
-991.9486803993523
 20
98.30632155753445
 30
0.0
  9
$EXTMAX
 10
-571.9486803993524
 20
1000.370156246202
 30
0.0
  9
$LIMMIN
 10
0.0
 20
0.0
  9
$LIMMAX
 10
420.0
 20
297.0
  9
$ORTHOMODE
 70
     1
  9
$REGENMODE
 70
     1
  9
$FILLMODE
 70
     1
  9
$QTEXTMODE
 70
     0
  9
$MIRRTEXT
 70
     0
  9
$LTSCALE
 40
1.0
  9
$ATTMODE
 70
     1
  9
$TEXTSIZE
 40
2.5
  9
$TRACEWID
 40
1.0
  9
$TEXTSTYLE
  7
Standard
  9
$CLAYER
  8
0
  9
$CELTYPE
  6
ByBlock
  9
$CECOLOR
 62
   256
  9
$CELTSCALE
 40
1.0
  9
$DISPSILH
 70
     0
  9
$DIMSCALE
 40
1.0
  9
$DIMASZ
 40
2.5
  9
$DIMEXO
 40
0.625
  9
$DIMDLI
 40
3.75
  9
$DIMRND
 40
0.0
  9
$DIMDLE
 40
0.0
  9
$DIMEXE
 40
1.25
  9
$DIMTP
 40
0.0
  9
$DIMTM
 40
0.0
  9
$DIMTXT
 40
2.5
  9
$DIMCEN
 40
2.5
  9
$DIMTSZ
 40
0.0
  9
$DIMTOL
 70
     0
  9
$DIMLIM
 70
     0
  9
$DIMTIH
 70
     0
  9
$DIMTOH
 70
     0
  9
$DIMSE1
 70
     0
  9
$DIMSE2
 70
     0
  9
$DIMTAD
 70
     1
  9
$DIMZIN
 70
     8
  9
$DIMBLK
  1

  9
$DIMASO
 70
     1
  9
$DIMSHO
 70
     1
  9
$DIMPOST
  1

  9
$DIMAPOST
  1

  9
$DIMALT
 70
     0
  9
$DIMALTD
 70
     3
  9
$DIMALTF
 40
0.03937007874016
  9
$DIMLFAC
 40
1.0
  9
$DIMTOFL
 70
     1
  9
$DIMTVP
 40
0.0
  9
$DIMTIX
 70
     0
  9
$DIMSOXD
 70
     0
  9
$DIMSAH
 70
     0
  9
$DIMBLK1
  1

  9
$DIMBLK2
  1

  9
$DIMSTYLE
  2
ISO-25
  9
$DIMCLRD
 70
     0
  9
$DIMCLRE
 70
     0
  9
$DIMCLRT
 70
     0
  9
$DIMTFAC
 40
1.0
  9
$DIMGAP
 40
0.625
  9
$DIMJUST
 70
     0
  9
$DIMSD1
 70
     0
  9
$DIMSD2
 70
     0
  9
$DIMTOLJ
 70
     0
  9
$DIMTZIN
 70
     8
  9
$DIMALTZ
 70
     0
  9
$DIMALTTZ
 70
     0
  9
$DIMUPT
 70
     0
  9
$DIMDEC
 70
     2
  9
$DIMTDEC
 70
     2
  9
$DIMALTU
 70
     2
  9
$DIMALTTD
 70
     3
  9
$DIMTXSTY
  7
Standard
  9
$DIMAUNIT
 70
     0
  9
$DIMADEC
 70
     0
  9
$DIMALTRND
 40
0.0
  9
$DIMAZIN
 70
     0
  9
$DIMDSEP
 70
    44
  9
$DIMATFIT
 70
     3
  9
$DIMFRAC
 70
     0
  9
$DIMLDRBLK
  1

  9
$DIMLUNIT
 70
     2
  9
$DIMLWD
 70
    -2
  9
$DIMLWE
 70
    -2
  9
$DIMTMOVE
 70
     0
  9
$DIMFXL
 40
1.0
  9
$DIMFXLON
 70
     0
  9
$DIMJOGANG
 40
0.7853981633974483
  9
$DIMTFILL
 70
     0
  9
$DIMTFILLCLR
 70
     0
  9
$DIMARCSYM
 70
     0
  9
$DIMLTYPE
  6

  9
$DIMLTEX1
  6

  9
$DIMLTEX2
  6

  9
$DIMTXTDIRECTION
 70
     0
  9
$LUNITS
 70
     2
  9
$LUPREC
 70
     7
  9
$SKETCHINC
 40
1.0
  9
$FILLETRAD
 40
0.25
  9
$AUNITS
 70
     0
  9
$AUPREC
 70
     8
  9
$MENU
  1
.
  9
$ELEVATION
 40
0.0
  9
$PELEVATION
 40
0.0
  9
$THICKNESS
 40
0.0
  9
$LIMCHECK
 70
     0
  9
$CHAMFERA
 40
0.0
  9
$CHAMFERB
 40
0.0
  9
$CHAMFERC
 40
0.0
  9
$CHAMFERD
 40
0.0
  9
$SKPOLY
 70
     0
  9
$TDCREATE
 40
2453893.629618056
  9
$TDUCREATE
 40
2453893.296285567
  9
$TDUPDATE
 40
2460607.483321759
  9
$TDUUPDATE
 40
2460607.149988426
  9
$TDINDWG
 40
31.8635073843
  9
$TDUSRTIMER
 40
31.8635073843
  9
$USRTIMER
 70
     1
  9
$ANGBASE
 50
0.0
  9
$ANGDIR
 70
     0
  9
$PDMODE
 70
     3
  9
$PDSIZE
 40
-1.0
  9
$PLINEWID
 40
0.0
  9
$SPLFRAME
 70
     0
  9
$SPLINETYPE
 70
     6
  9
$SPLINESEGS
 70
     8
  9
$HANDSEED
  5
2AA
  9
$SURFTAB1
 70
     6
  9
$SURFTAB2
 70
     6
  9
$SURFTYPE
 70
     6
  9
$SURFU
 70
     6
  9
$SURFV
 70
     6
  9
$UCSBASE
  2

  9
$UCSNAME
  2

  9
$UCSORG
 10
0.0
 20
0.0
 30
0.0
  9
$UCSXDIR
 10
1.0
 20
0.0
 30
0.0
  9
$UCSYDIR
 10
0.0
 20
1.0
 30
0.0
  9
$UCSORTHOREF
  2

  9
$UCSORTHOVIEW
 70
     0
  9
$UCSORGTOP
 10
0.0
 20
0.0
 30
0.0
  9
$UCSORGBOTTOM
 10
0.0
 20
0.0
 30
0.0
  9
$UCSORGLEFT
 10
0.0
 20
0.0
 30
0.0
  9
$UCSORGRIGHT
 10
0.0
 20
0.0
 30
0.0
  9
$UCSORGFRONT
 10
0.0
 20
0.0
 30
0.0
  9
$UCSORGBACK
 10
0.0
 20
0.0
 30
0.0
  9
$PUCSBASE
  2

  9
$PUCSNAME
  2

  9
$PUCSORG
 10
0.0
 20
0.0
 30
0.0
  9
$PUCSXDIR
 10
1.0
 20
0.0
 30
0.0
  9
$PUCSYDIR
 10
0.0
 20
1.0
 30
0.0
  9
$PUCSORTHOREF
  2

  9
$PUCSORTHOVIEW
 70
     0
  9
$PUCSORGTOP
 10
0.0
 20
0.0
 30
0.0
  9
$PUCSORGBOTTOM
 10
0.0
 20
0.0
 30
0.0
  9
$PUCSORGLEFT
 10
0.0
 20
0.0
 30
0.0
  9
$PUCSORGRIGHT
 10
0.0
 20
0.0
 30
0.0
  9
$PUCSORGFRONT
 10
0.0
 20
0.0
 30
0.0
  9
$PUCSORGBACK
 10
0.0
 20
0.0
 30
0.0
  9
$USERI1
 70
     0
  9
$USERI2
 70
     0
  9
$USERI3
 70
     0
  9
$USERI4
 70
     0
  9
$USERI5
 70
     0
  9
$USERR1
 40
0.0
  9
$USERR2
 40
0.0
  9
$USERR3
 40
0.0
  9
$USERR4
 40
0.0
  9
$USERR5
 40
0.0
  9
$WORLDVIEW
 70
     1
  9
$SHADEDGE
 70
     3
  9
$SHADEDIF
 70
    70
  9
$TILEMODE
 70
     1
  9
$MAXACTVP
 70
    64
  9
$PINSBASE
 10
0.0
 20
0.0
 30
0.0
  9
$PLIMCHECK
 70
     0
  9
$PEXTMIN
 10
0.0
 20
0.0
 30
0.0
  9
$PEXTMAX
 10
0.0
 20
0.0
 30
0.0
  9
$PLIMMIN
 10
0.0
 20
0.0
  9
$PLIMMAX
 10
12.0
 20
9.0
  9
$UNITMODE
 70
     0
  9
$VISRETAIN
 70
     1
  9
$PLINEGEN
 70
     0
  9
$PSLTSCALE
 70
     1
  9
$TREEDEPTH
 70
  3020
  9
$CMLSTYLE
  2
Standard
  9
$CMLJUST
 70
     0
  9
$CMLSCALE
 40
20.0
  9
$PROXYGRAPHICS
 70
     1
  9
$MEASUREMENT
 70
     1
  9
$CELWEIGHT
370
    -1
  9
$ENDCAPS
280
     0
  9
$JOINSTYLE
280
     0
  9
$LWDISPLAY
290
     0
  9
$INSUNITS
 70
     4
  9
$HYPERLINKBASE
  1

  9
$STYLESHEET
  1

  9
$XEDIT
290
     1
  9
$CEPSNTYPE
380
     0
  9
$PSTYLEMODE
290
     1
  9
$FINGERPRINTGUID
  2
{5A56D387-D344-E245-A44A-F905B30988F8}
  9
$VERSIONGUID
  2
{5345235C-920F-4127-85C0-3BCD9B845D3B}
  9
$EXTNAMES
290
     1
  9
$PSVPSCALE
 40
0.0
  9
$OLESTARTUP
290
     0
  9
$SORTENTS
280
   127
  9
$INDEXCTL
280
     0
  9
$HIDETEXT
280
     1
  9
$XCLIPFRAME
280
     2
  9
$HALOGAP
280
     0
  9
$OBSCOLOR
 70
   257
  9
$OBSLTYPE
280
     0
  9
$INTERSECTIONDISPLAY
280
     0
  9
$INTERSECTIONCOLOR
 70
   257
  9
$DIMASSOC
280
     2
  9
$PROJECTNAME
  1

  9
$CAMERADISPLAY
290
     0
  9
$LENSLENGTH
 40
50.0
  9
$CAMERAHEIGHT
 40
0.0
  9
$STEPSPERSEC
 40
2.0
  9
$STEPSIZE
 40
6.0
  9
$3DDWFPREC
 40
2.0
  9
$PSOLWIDTH
 40
0.25
  9
$PSOLHEIGHT
 40
4.0
  9
$LOFTANG1
 40
1.570796326794896
  9
$LOFTANG2
 40
1.570796326794896
  9
$LOFTMAG1
 40
0.0
  9
$LOFTMAG2
 40
0.0
  9
$LOFTPARAM
 70
     7
  9
$LOFTNORMALS
280
     1
  9
$LATITUDE
 40
37.795
  9
$LONGITUDE
 40
-122.394
  9
$NORTHDIRECTION
 40
0.0
  9
$TIMEZONE
 70
 -8000
  9
$LIGHTGLYPHDISPLAY
280
     1
  9
$TILEMODELIGHTSYNCH
280
     1
  9
$CMATERIAL
347
31
  9
$SOLIDHIST
280
     0
  9
$SHOWHIST
280
     1
  9
$DWFFRAME
280
     2
  9
$DGNFRAME
280
     0
  9
$REALWORLDSCALE
290
     1
  9
$INTERFERECOLOR
 62
     1
  9
$INTERFEREOBJVS
345
49
  9
$INTERFEREVPVS
346
4A
  9
$CSHADOW
280
     0
  9
$SHADOWPLANELOCATION
 40
0.0
  0
ENDSEC
  0
SECTION
  2
CLASSES
  0
CLASS
  1
ACDBDICTIONARYWDFLT
  2
AcDbDictionaryWithDefault
  3
ObjectDBX Classes
 90
        0
 91
        1
280
     0
281
     0
  0
CLASS
  1
DICTIONARYVAR
  2
AcDbDictionaryVar
  3
ObjectDBX Classes
 90
        0
 91
       14
280
     0
281
     0
  0
CLASS
  1
TABLESTYLE
  2
AcDbTableStyle
  3
ObjectDBX Classes
 90
     4095
 91
        1
280
     0
281
     0
  0
CLASS
  1
SORTENTSTABLE
  2
AcDbSortentsTable
  3
ObjectDBX Classes
 90
        0
 91
        2
280
     0
281
     0
  0
CLASS
  1
DIMASSOC
  2
AcDbDimAssoc
  3
"AcDbDimAssoc|Product Desc:     AcDim ARX App For Dimension|Company:          Autodesk, Inc.|WEB Address:      www.autodesk.com"
 90
        0
 91
        8
280
     0
281
     0
  0
CLASS
  1
MATERIAL
  2
AcDbMaterial
  3
ObjectDBX Classes
 90
     1153
 91
        3
280
     0
281
     0
  0
CLASS
  1
VISUALSTYLE
  2
AcDbVisualStyle
  3
ObjectDBX Classes
 90
     4095
 91
        3
280
     0
281
     0
  0
CLASS
  1
ACAD_EVALUATION_GRAPH
  2
AcDbEvalGraph
  3
ObjectDBX Classes
 90
     1153
 91
        0
280
     0
281
     0
  0
CLASS
  1
ACAECUSTOBJ
  2
AcAeEditorObj
  3
AcAeEditorObj
 90
     1024
 91
        0
280
     1
281
     0
  0
CLASS
  1
ACDB_DYNAMICBLOCKPURGEPREVENTER_VERSION
  2
AcDbDynamicBlockPurgePreventer
  3
ObjectDBX Classes
 90
     1153
 91
        0
280
     0
281
     0
  0
CLASS
  1
SCALE
  2
AcDbScale
  3
ObjectDBX Classes
 90
     1153
 91
       17
280
     0
281
     0
  0
CLASS
  1
MLEADERSTYLE
  2
AcDbMLeaderStyle
  3
ACDB_MLEADERSTYLE_CLASS
 90
     4095
 91
        0
280
     0
281
     0
  0
CLASS
  1
ACDBSECTIONVIEWSTYLE
  2
AcDbSectionViewStyle
  3
ObjectDBX Classes
 90
     1025
 91
        0
280
     0
281
     0
  0
CLASS
  1
ACDBDETAILVIEWSTYLE
  2
AcDbDetailViewStyle
  3
ObjectDBX Classes
 90
     1025
 91
        0
280
     0
281
     0
  0
CLASS
  1
CELLSTYLEMAP
  2
AcDbCellStyleMap
  3
ObjectDBX Classes
 90
     1152
 91
        1
280
     0
281
     0
  0
CLASS
  1
SOLID_BACKGROUND
  2
AcDbSolidBackground
  3
SCENEOE
 90
     4095
 91
        0
280
     0
281
     0
  0
CLASS
  1
NPOCOLLECTION
  2
AcDbImpNonPersistentObjectsCollection
  3
ObjectDBX Classes
 90
     1153
 91
        0
280
     0
281
     0
  0
ENDSEC
  0
SECTION
  2
TABLES
  0
TABLE
  2
VPORT
  5
23
102
{ACAD_XDICTIONARY
360
29
102
}
330
0
100
AcDbSymbolTable
 70
     1
  0
VPORT
  5
24
330
23
100
AcDbSymbolTableRecord
100
AcDbViewportTableRecord
  2
*Active
 70
     0
 10
0.0
 20
0.0
 11
1.0
 21
1.0
 12
-814.0771374857664
 22
190.0969131282695
 13
0.0
 23
0.0
 14
10.0
 24
10.0
 15
10.0
 25
10.0
 16
0.0
 26
0.0
 36
1.0
 17
0.0
 27
0.0
 37
0.0
 40
255.7278986267657
 41
2.570850202429149
 42
50.0
 43
0.0
 44
0.0
 50
0.0
 51
0.0
 71
     0
 72
 20000
 73
     1
 74
     3
 75
     0
 76
     0
 77
     0
 78
     0
281
     0
 65
     1
110
0.0
120
0.0
130
0.0
111
1.0
121
0.0
131
0.0
112
0.0
122
1.0
132
0.0
 79
     0
146
0.0
348
25
 60
     3
 61
     5
292
     1
282
     1
141
0.0
142
0.0
 63
   250
421
  3355443
1001
ACAD_NAV_VCDISPLAY
1070
     3
  0
ENDTAB
  0
TABLE
  2
LTYPE
  5
1E
330
0
100
AcDbSymbolTable
 70
     3
  0
LTYPE
  5
1F
330
1E
100
AcDbSymbolTableRecord
100
AcDbLinetypeTableRecord
  2
ByBlock
 70
     0
  3

 72
    65
 73
     0
 40
0.0
  0
LTYPE
  5
20
330
1E
100
AcDbSymbolTableRecord
100
AcDbLinetypeTableRecord
  2
ByLayer
 70
     0
  3

 72
    65
 73
     0
 40
0.0
  0
LTYPE
  5
E
330
1E
100
AcDbSymbolTableRecord
100
AcDbLinetypeTableRecord
  2
Continuous
 70
     0
  3
Solid line
 72
    65
 73
     0
 40
0.0
  0
LTYPE
  5
87
330
1E
100
AcDbSymbolTableRecord
100
AcDbLinetypeTableRecord
  2
CENTER
 70
     0
  3
Center ____ _ ____ _ ____ _ ____ _ ____ _ ____
 72
    65
 73
     4
 40
10.16
 49
6.349999999999998
 74
     0
 49
-1.27
 74
     0
 49
1.27
 74
     0
 49
-1.27
 74
     0
  0
LTYPE
  5
14B
330
1E
100
AcDbSymbolTableRecord
100
AcDbLinetypeTableRecord
  2
DOT2
 70
     0
  3
Dot (.5x) .....................................
 72
    65
 73
     2
 40
0.125
 49
0.0
 74
     0
 49
-0.125
 74
     0
  0
ENDTAB
  0
TABLE
  2
LAYER
  5
18
102
{ACAD_XDICTIONARY
360
19
102
}
330
0
100
AcDbSymbolTable
 70
     4
  0
LAYER
  5
6
102
{ACAD_XDICTIONARY
360
7
102
}
330
18
100
AcDbSymbolTableRecord
100
AcDbLayerTableRecord
  2
0
 70
     0
 62
     7
  6
Continuous
370
    -3
390
9
347
C
348
0
  0
LAYER
  5
84
102
{ACAD_XDICTIONARY
360
85
102
}
330
18
100
AcDbSymbolTableRecord
100
AcDbLayerTableRecord
  2
CEN
 70
     0
 62
     8
  6
CENTER
370
    -3
390
9
347
C
348
0
  0
LAYER
  5
8B
102
{ACAD_XDICTIONARY
360
8C
102
}
330
18
100
AcDbSymbolTableRecord
100
AcDbLayerTableRecord
  2
DIM
 70
     0
 62
     7
  6
Continuous
370
    -3
390
9
347
C
348
0
  0
LAYER
  5
9F
330
18
100
AcDbSymbolTableRecord
100
AcDbLayerTableRecord
  2
DEFPOINTS
 70
     0
 62
    10
  6
Continuous
290
     0
370
    -3
390
9
347
C
348
0
  0
ENDTAB
  0
TABLE
  2
STYLE
  5
1B
330
0
100
AcDbSymbolTable
 70
     3
  0
STYLE
  5
1C
330
1B
100
AcDbSymbolTableRecord
100
AcDbTextStyleTableRecord
  2
Standard
 70
     0
 40
0.0
 41
1.0
 50
0.0
 71
     0
 42
2.5
  3
txt.shx
  4
chineset.shx
  0
STYLE
  5
7F
330
1B
100
AcDbSymbolTableRecord
100
AcDbTextStyleTableRecord
  2
SIMPLEX
 70
     0
 40
0.0
 41
1.0
 50
0.0
 71
     0
 42
2.5
  3
simplex
  4

  0
STYLE
  5
9D
330
1B
100
AcDbSymbolTableRecord
100
AcDbTextStyleTableRecord
  2
STYLE3
 70
     0
 40
0.0
 41
1.0
 50
0.0
 71
     0
 42
2.5
  3
arial.ttf
  4

1001
ACAD
1000
Arial
1071
       34
  0
ENDTAB
  0
TABLE
  2
VIEW
  5
21
330
0
100
AcDbSymbolTable
 70
     0
  0
ENDTAB
  0
TABLE
  2
UCS
  5
22
330
0
100
AcDbSymbolTable
 70
     0
  0
ENDTAB
  0
TABLE
  2
APPID
  5
2A
330
0
100
AcDbSymbolTable
 70
     4
  0
APPID
  5
27
330
2A
100
AcDbSymbolTableRecord
100
AcDbRegAppTableRecord
  2
ACAD
 70
     0
  0
APPID
  5
13
330
2A
100
AcDbSymbolTableRecord
100
AcDbRegAppTableRecord
  2
ACAD_PSEXT
 70
     0
  0
APPID
  5
12
330
2A
100
AcDbSymbolTableRecord
100
AcDbRegAppTableRecord
  2
AcadStringInfo
 70
     0
  0
APPID
  5
28
330
2A
100
AcDbSymbolTableRecord
100
AcDbRegAppTableRecord
  2
ACAD_NAV_VCDISPLAY
 70
     0
  0
ENDTAB
  0
TABLE
  2
DIMSTYLE
  5
2B
330
0
100
AcDbSymbolTable
 70
     1
100
AcDbDimStyleTable
 71
     1
340
2C
  0
DIMSTYLE
105
2C
102
{ACAD_REACTORS
330
245
330
255
330
265
330
1E9
330
1FA
330
20A
330
21C
330
277
330
8A
330
A3
330
B1
330
BF
330
CD
330
11A
330
12E
330
13C
330
150
330
15E
330
16C
330
17B
330
18A
330
198
330
1A6
330
292
102
}
330
2B
100
AcDbSymbolTableRecord
100
AcDbDimStyleTableRecord
  2
ISO-25
 70
     0
 41
2.5
 42
0.625
 43
3.75
 44
1.25
 73
     0
 74
     0
 77
     1
 78
     8
140
2.5
141
2.5
143
0.03937007874016
147
0.625
171
     3
172
     1
271
     2
272
     2
274
     3
278
    44
283
     0
284
     8
340
1C
  0
ENDTAB
  0
TABLE
  2
BLOCK_RECORD
  5
1
330
0
100
AcDbSymbolTable
 70
    25
  0
BLOCK_RECORD
  5
2
102
{ACAD_XDICTIONARY
360
3
102
}
330
1
100
AcDbSymbolTableRecord
100
AcDbBlockTableRecord
  2
*Model_Space
340
10
 70
     0
280
     1
281
     0
  0
BLOCK_RECORD
  5
14
330
1
100
AcDbSymbolTableRecord
100
AcDbBlockTableRecord
  2
*Paper_Space
340
17
 70
     0
280
     1
281
     0
  0
BLOCK_RECORD
  5
95
330
1
100
AcDbSymbolTableRecord
100
AcDbBlockTableRecord
  2
_OPEN30
340
0
102
{BLKREFS
331
25E
331
25F
331
270
331
271
331
27F
331
280
331
29B
331
29C
331
174
331
175
331
183
331
184
331
191
331
192
331
19F
331
1A0
331
1AD
331
1AE
331
1F3
331
1F4
331
203
331
204
331
215
331
216
331
227
331
228
331
24E
331
24F
331
121
331
122
331
135
331
136
331
143
331
144
331
157
331
158
331
165
331
166
331
94
331
9B
331
AA
331
AB
331
B8
331
B9
331
C6
331
C7
331
D4
331
D5
102
}
 70
     0
280
     1
281
     0
  0
BLOCK_RECORD
  5
278
330
1
100
AcDbSymbolTableRecord
100
AcDbBlockTableRecord
  2
*D1
340
0
 70
     0
280
     1
281
     0
  0
BLOCK_RECORD
  5
8E
330
1
100
AcDbSymbolTableRecord
100
AcDbBlockTableRecord
  2
*D2
340
0
 70
     0
280
     1
281
     0
  0
BLOCK_RECORD
  5
A4
330
1
100
AcDbSymbolTableRecord
100
AcDbBlockTableRecord
  2
*D3
340
0
 70
     0
280
     1
281
     0
  0
BLOCK_RECORD
  5
B2
330
1
100
AcDbSymbolTableRecord
100
AcDbBlockTableRecord
  2
*D4
340
0
 70
     0
280
     1
281
     0
  0
BLOCK_RECORD
  5
C0
330
1
100
AcDbSymbolTableRecord
100
AcDbBlockTableRecord
  2
*D5
340
0
 70
     0
280
     1
281
     0
  0
BLOCK_RECORD
  5
CE
330
1
100
AcDbSymbolTableRecord
100
AcDbBlockTableRecord
  2
*D6
340
0
 70
     0
280
     1
281
     0
  0
BLOCK_RECORD
  5
11B
330
1
100
AcDbSymbolTableRecord
100
AcDbBlockTableRecord
  2
*D7
340
0
 70
     0
280
     1
281
     0
  0
BLOCK_RECORD
  5
12F
330
1
100
AcDbSymbolTableRecord
100
AcDbBlockTableRecord
  2
*D8
340
0
 70
     0
280
     1
281
     0
  0
BLOCK_RECORD
  5
13D
330
1
100
AcDbSymbolTableRecord
100
AcDbBlockTableRecord
  2
*D9
340
0
 70
     0
280
     1
281
     0
  0
BLOCK_RECORD
  5
151
330
1
100
AcDbSymbolTableRecord
100
AcDbBlockTableRecord
  2
*D10
340
0
 70
     0
280
     1
281
     0
  0
BLOCK_RECORD
  5
15F
330
1
100
AcDbSymbolTableRecord
100
AcDbBlockTableRecord
  2
*D11
340
0
 70
     0
280
     1
281
     0
  0
BLOCK_RECORD
  5
16D
330
1
100
AcDbSymbolTableRecord
100
AcDbBlockTableRecord
  2
*D12
340
0
 70
     0
280
     1
281
     0
  0
BLOCK_RECORD
  5
17C
330
1
100
AcDbSymbolTableRecord
100
AcDbBlockTableRecord
  2
*D13
340
0
 70
     0
280
     1
281
     0
  0
BLOCK_RECORD
  5
18B
330
1
100
AcDbSymbolTableRecord
100
AcDbBlockTableRecord
  2
*D14
340
0
 70
     0
280
     1
281
     0
  0
BLOCK_RECORD
  5
199
330
1
100
AcDbSymbolTableRecord
100
AcDbBlockTableRecord
  2
*D15
340
0
 70
     0
280
     1
281
     0
  0
BLOCK_RECORD
  5
1A7
330
1
100
AcDbSymbolTableRecord
100
AcDbBlockTableRecord
  2
*D16
340
0
 70
     0
280
     1
281
     0
  0
BLOCK_RECORD
  5
248
330
1
100
AcDbSymbolTableRecord
100
AcDbBlockTableRecord
  2
*D17
340
0
 70
     0
280
     1
281
     0
  0
BLOCK_RECORD
  5
258
330
1
100
AcDbSymbolTableRecord
100
AcDbBlockTableRecord
  2
*D18
340
0
 70
     0
280
     1
281
     0
  0
BLOCK_RECORD
  5
268
330
1
100
AcDbSymbolTableRecord
100
AcDbBlockTableRecord
  2
*D19
340
0
 70
     0
280
     1
281
     0
  0
BLOCK_RECORD
  5
1EC
330
1
100
AcDbSymbolTableRecord
100
AcDbBlockTableRecord
  2
*D20
340
0
 70
     0
280
     1
281
     0
  0
BLOCK_RECORD
  5
1FD
330
1
100
AcDbSymbolTableRecord
100
AcDbBlockTableRecord
  2
*D21
340
0
 70
     0
280
     1
281
     0
  0
BLOCK_RECORD
  5
20D
330
1
100
AcDbSymbolTableRecord
100
AcDbBlockTableRecord
  2
*D22
340
0
 70
     0
280
     1
281
     0
  0
BLOCK_RECORD
  5
21F
330
1
100
AcDbSymbolTableRecord
100
AcDbBlockTableRecord
  2
*D23
340
0
 70
     0
280
     1
281
     0
  0
BLOCK_RECORD
  5
295
330
1
100
AcDbSymbolTableRecord
100
AcDbBlockTableRecord
  2
*D24
340
0
 70
     0
280
     1
281
     0
  0
ENDTAB
  0
ENDSEC
  0
SECTION
  2
BLOCKS
  0
BLOCK
  5
5
330
2
100
AcDbEntity
  8
0
100
AcDbBlockBegin
  2
*Model_Space
 70
     0
 10
0.0
 20
0.0
 30
0.0
  3
*Model_Space
  1

  0
ENDBLK
  5
F
330
2
100
AcDbEntity
  8
0
100
AcDbBlockEnd
  0
BLOCK
  5
15
330
14
100
AcDbEntity
 67
     1
  8
0
100
AcDbBlockBegin
  2
*Paper_Space
 70
     0
 10
0.0
 20
0.0
 30
0.0
  3
*Paper_Space
  1

  0
ENDBLK
  5
16
330
14
100
AcDbEntity
 67
     1
  8
0
100
AcDbBlockEnd
  0
BLOCK
  5
96
330
95
100
AcDbEntity
  8
0
100
AcDbBlockBegin
  2
_OPEN30
 70
     0
 10
0.0
 20
0.0
 30
0.0
  3
_OPEN30
  1

  0
LINE
  5
97
330
95
100
AcDbEntity
  8
0
  6
ByBlock
 62
     0
100
AcDbLine
 10
-1.0
 20
0.26794919
 30
0.0
 11
0.0
 21
0.0
 31
0.0
  0
LINE
  5
98
330
95
100
AcDbEntity
  8
0
  6
ByBlock
 62
     0
100
AcDbLine
 10
0.0
 20
0.0
 30
0.0
 11
-1.0
 21
-0.26794919
 31
0.0
  0
LINE
  5
99
330
95
100
AcDbEntity
  8
0
  6
ByBlock
 62
     0
100
AcDbLine
 10
0.0
 20
0.0
 30
0.0
 11
-1.0
 21
0.0
 31
0.0
  0
ENDBLK
  5
9A
330
95
100
AcDbEntity
  8
0
100
AcDbBlockEnd
  0
BLOCK
  5
279
330
278
100
AcDbEntity
  8
0
100
AcDbBlockBegin
  2
*D1
 70
     1
 10
0.0
 20
0.0
 30
0.0
  3
*D1
  1

  0
LINE
  5
27A
330
278
100
AcDbEntity
  8
DIM
 62
     0
440
 16777216
370
    -2
100
AcDbLine
 10
-787.0676071782709
 20
201.8041176342363
 30
0.0
 11
-801.7091125507214
 21
201.8041176342363
 31
0.0
  0
LINE
  5
27B
330
278
100
AcDbEntity
  8
DIM
 62
     0
440
 16777216
370
    -2
100
AcDbLine
 10
-793.567607178269
 20
199.3041176342363
 30
0.0
 11
-801.7091125507214
 21
199.3041176342363
 31
0.0
  0
LINE
  5
27C
330
278
100
AcDbEntity
  8
DIM
 62
     0
440
 16777216
370
    -2
100
AcDbLine
 10
-800.7091125507216
 20
197.3041176342363
 30
0.0
 11
-800.7091125507216
 21
195.3041176342363
 31
0.0
  0
LINE
  5
27D
330
278
100
AcDbEntity
  8
DIM
 62
     0
440
 16777216
370
    -2
100
AcDbLine
 10
-800.7091125507216
 20
203.8041176342363
 30
0.0
 11
-800.7091125507216
 21
206.5063345510176
 31
0.0
  0
LINE
  5
27E
330
278
100
AcDbEntity
  8
DIM
 62
     0
440
 16777216
370
    -2
100
AcDbLine
 10
-800.7091125507216
 20
199.3041176342363
 30
0.0
 11
-800.7091125507216
 21
201.8041176342363
 31
0.0
  0
INSERT
  5
27F
330
278
100
AcDbEntity
  8
DIM
 62
     0
440
 16777216
370
    -2
100
AcDbBlockReference
  2
_OPEN30
 10
-800.7091125507216
 20
199.3041176342363
 30
0.0
 41
2.0
 42
2.0
 43
2.0
 50
90.0
  0
INSERT
  5
280
330
278
100
AcDbEntity
  8
DIM
 62
     0
440
 16777216
370
    -2
100
AcDbBlockReference
  2
_OPEN30
 10
-800.7091125507216
 20
201.8041176342363
 30
0.0
 41
2.0
 42
2.0
 43
2.0
 50
270.0
  0
MTEXT
  5
281
330
278
100
AcDbEntity
  8
DIM
 62
     0
440
 16777216
100
AcDbMText
 10
-800.7091125507216
 20
211.153401399585
 30
0.0
 40
2.799999999999998
 41
0.0
 46
0.0
 71
     5
 72
     1
  1
0.25
  7
STYLE3
 11
0.0000000000000001
 21
1.0
 31
0.0
 73
     1
 44
1.0
  0
POINT
  5
282
330
278
100
AcDbEntity
  8
DEFPOINTS
 62
     0
440
 16777216
100
AcDbPoint
 10
-786.0676071782709
 20
201.8041176342363
 30
0.0
  0
POINT
  5
283
330
278
100
AcDbEntity
  8
DEFPOINTS
 62
     0
440
 16777216
100
AcDbPoint
 10
-792.5676071782691
 20
199.3041176342363
 30
0.0
  0
POINT
  5
284
330
278
100
AcDbEntity
  8
DEFPOINTS
 62
     0
440
 16777216
100
AcDbPoint
 10
-800.7091125507216
 20
199.3041176342363
 30
0.0
  0
ENDBLK
  5
285
330
278
100
AcDbEntity
  8
0
100
AcDbBlockEnd
  0
BLOCK
  5
8F
330
8E
100
AcDbEntity
  8
0
100
AcDbBlockBegin
  2
*D2
 70
     1
 10
0.0
 20
0.0
 30
0.0
  3
*D2
  1

  0
LINE
  5
90
330
8E
100
AcDbEntity
  8
DIM
 62
     0
440
 16777216
370
    -2
100
AcDbLine
 10
-921.201827909226
 20
274.3695290078854
 30
0.0
 11
-921.201827909226
 21
286.7069703881473
 31
0.0
  0
LINE
  5
91
330
8E
100
AcDbEntity
  8
DIM
 62
     0
440
 16777216
370
    -2
100
AcDbLine
 10
-851.2018250485567
 20
274.3695290078854
 30
0.0
 11
-851.2018250485567
 21
286.7069703881473
 31
0.0
  0
LINE
  5
92
330
8E
100
AcDbEntity
  8
DIM
 62
     0
440
 16777216
370
    -2
100
AcDbLine
 10
-919.2018279092261
 20
285.7069703881474
 30
0.0
 11
-888.1081034890351
 21
285.7069703881474
 31
0.0
  0
LINE
  5
93
330
8E
100
AcDbEntity
  8
DIM
 62
     0
440
 16777216
370
    -2
100
AcDbLine
 10
-853.201825048557
 20
285.7069703881474
 30
0.0
 11
-884.2955523294174
 21
285.7069703881474
 31
0.0
  0
INSERT
  5
94
330
8E
100
AcDbEntity
  8
DIM
 62
     0
440
 16777216
370
    -2
100
AcDbBlockReference
  2
_OPEN30
 10
-921.201827909226
 20
285.7069703881474
 30
0.0
 41
2.0
 42
2.0
 43
2.0
 50
180.0
  0
INSERT
  5
9B
330
8E
100
AcDbEntity
  8
DIM
 62
     0
440
 16777216
370
    -2
100
AcDbBlockReference
  2
_OPEN30
 10
-851.2018250485567
 20
285.7069703881474
 30
0.0
 41
2.0
 42
2.0
 43
2.0
  0
MTEXT
  5
9C
330
8E
100
AcDbEntity
  8
DIM
 62
     0
440
 16777216
100
AcDbMText
 10
-886.2018279092261
 20
285.7069703881474
 30
0.0
 40
2.799999999999998
 41
0.0
 46
0.0
 71
     5
 72
     1
  1
7
  7
STYLE3
 73
     1
 44
1.0
  0
POINT
  5
9E
330
8E
100
AcDbEntity
  8
DEFPOINTS
 62
     0
440
 16777216
100
AcDbPoint
 10
-921.201827909226
 20
273.3695290078854
 30
0.0
  0
POINT
  5
A0
330
8E
100
AcDbEntity
  8
DEFPOINTS
 62
     0
440
 16777216
100
AcDbPoint
 10
-851.2018250485567
 20
273.3695290078854
 30
0.0
  0
POINT
  5
A1
330
8E
100
AcDbEntity
  8
DEFPOINTS
 62
     0
440
 16777216
100
AcDbPoint
 10
-851.2018250485567
 20
285.7069703881474
 30
0.0
  0
ENDBLK
  5
A2
330
8E
100
AcDbEntity
  8
0
100
AcDbBlockEnd
  0
BLOCK
  5
A5
330
A4
100
AcDbEntity
  8
0
100
AcDbBlockBegin
  2
*D3
 70
     1
 10
0.0
 20
0.0
 30
0.0
  3
*D3
  1

  0
LINE
  5
A6
330
A4
100
AcDbEntity
  8
DIM
 62
     0
440
 16777216
370
    -2
100
AcDbLine
 10
-855.7018279092215
 20
270.8695290078868
 30
0.0
 11
-840.1527603760275
 21
270.8695290078868
 31
0.0
  0
LINE
  5
A7
330
A4
100
AcDbEntity
  8
DIM
 62
     0
440
 16777216
370
    -2
100
AcDbLine
 10
-855.7018279092215
 20
255.8695290078886
 30
0.0
 11
-840.1527603760275
 21
255.8695290078886
 31
0.0
  0
LINE
  5
A8
330
A4
100
AcDbEntity
  8
DIM
 62
     0
440
 16777216
370
    -2
100
AcDbLine
 10
-841.1527603760275
 20
268.8695290078868
 30
0.0
 11
-841.1527603760275
 21
266.7970869324373
 31
0.0
  0
LINE
  5
A9
330
A4
100
AcDbEntity
  8
DIM
 62
     0
440
 16777216
370
    -2
100
AcDbLine
 10
-841.1527603760275
 20
257.8695290078886
 30
0.0
 11
-841.1527603760275
 21
259.9419709706365
 31
0.0
  0
INSERT
  5
AA
330
A4
100
AcDbEntity
  8
DIM
 62
     0
440
 16777216
370
    -2
100
AcDbBlockReference
  2
_OPEN30
 10
-841.1527603760275
 20
270.8695290078868
 30
0.0
 41
2.0
 42
2.0
 43
2.0
 50
90.0
  0
INSERT
  5
AB
330
A4
100
AcDbEntity
  8
DIM
 62
     0
440
 16777216
370
    -2
100
AcDbBlockReference
  2
_OPEN30
 10
-841.1527603760275
 20
255.8695290078886
 30
0.0
 41
2.0
 42
2.0
 43
2.0
 50
270.0
  0
MTEXT
  5
AC
330
A4
100
AcDbEntity
  8
DIM
 62
     0
440
 16777216
100
AcDbMText
 10
-841.1527603760275
 20
263.3695289515368
 30
0.0
 40
2.799999999999998
 41
0.0
 46
0.0
 71
     5
 72
     1
  1
1.5
  7
STYLE3
 11
0.0000000000000001
 21
1.0
 31
0.0
 73
     1
 44
1.0
  0
POINT
  5
AD
330
A4
100
AcDbEntity
  8
DEFPOINTS
 62
     0
440
 16777216
100
AcDbPoint
 10
-856.7018279092215
 20
270.8695290078868
 30
0.0
  0
POINT
  5
AE
330
A4
100
AcDbEntity
  8
DEFPOINTS
 62
     0
440
 16777216
100
AcDbPoint
 10
-856.7018279092215
 20
255.8695290078886
 30
0.0
  0
POINT
  5
AF
330
A4
100
AcDbEntity
  8
DEFPOINTS
 62
     0
440
 16777216
100
AcDbPoint
 10
-841.1527603760275
 20
255.8695290078886
 30
0.0
  0
ENDBLK
  5
B0
330
A4
100
AcDbEntity
  8
0
100
AcDbBlockEnd
  0
BLOCK
  5
B3
330
B2
100
AcDbEntity
  8
0
100
AcDbBlockBegin
  2
*D4
 70
     1
 10
0.0
 20
0.0
 30
0.0
  3
*D4
  1

  0
LINE
  5
B4
330
B2
100
AcDbEntity
  8
DIM
 62
     0
440
 16777216
370
    -2
100
AcDbLine
 10
-922.2018272092252
 20
273.3695290078854
 30
0.0
 11
-931.3928481697763
 21
273.3695290078854
 31
0.0
  0
LINE
  5
B5
330
B2
100
AcDbEntity
  8
DIM
 62
     0
440
 16777216
370
    -2
100
AcDbLine
 10
-922.2018279092262
 20
253.3695290078854
 30
0.0
 11
-931.3928481697763
 21
253.3695290078854
 31
0.0
  0
LINE
  5
B6
330
B2
100
AcDbEntity
  8
DIM
 62
     0
440
 16777216
370
    -2
100
AcDbLine
 10
-930.3928481697763
 20
271.3695290078854
 30
0.0
 11
-930.3928481697763
 21
265.2968141374899
 31
0.0
  0
LINE
  5
B7
330
B2
100
AcDbEntity
  8
DIM
 62
     0
440
 16777216
370
    -2
100
AcDbLine
 10
-930.3928481697763
 20
255.3695290078854
 30
0.0
 11
-930.3928481697763
 21
261.4422438782812
 31
0.0
  0
INSERT
  5
B8
330
B2
100
AcDbEntity
  8
DIM
 62
     0
440
 16777216
370
    -2
100
AcDbBlockReference
  2
_OPEN30
 10
-930.3928481697763
 20
273.3695290078854
 30
0.0
 41
2.0
 42
2.0
 43
2.0
 50
90.0
  0
INSERT
  5
B9
330
B2
100
AcDbEntity
  8
DIM
 62
     0
440
 16777216
370
    -2
100
AcDbBlockReference
  2
_OPEN30
 10
-930.3928481697763
 20
253.3695290078854
 30
0.0
 41
2.0
 42
2.0
 43
2.0
 50
270.0
  0
MTEXT
  5
BA
330
B2
100
AcDbEntity
  8
DIM
 62
     0
440
 16777216
100
AcDbMText
 10
-930.3928481697763
 20
263.3695290078854
 30
0.0
 40
2.799999999999998
 41
0.0
 46
0.0
 71
     5
 72
     1
  1
2
  7
STYLE3
 11
0.0000000000000001
 21
1.0
 31
0.0
 73
     1
 44
1.0
  0
POINT
  5
BB
330
B2
100
AcDbEntity
  8
DEFPOINTS
 62
     0
440
 16777216
100
AcDbPoint
 10
-921.2018272092253
 20
273.3695290078854
 30
0.0
  0
POINT
  5
BC
330
B2
100
AcDbEntity
  8
DEFPOINTS
 62
     0
440
 16777216
100
AcDbPoint
 10
-921.201827909226
 20
253.3695290078854
 30
0.0
  0
POINT
  5
BD
330
B2
100
AcDbEntity
  8
DEFPOINTS
 62
     0
440
 16777216
100
AcDbPoint
 10
-930.3928481697763
 20
253.3695290078854
 30
0.0
  0
ENDBLK
  5
BE
330
B2
100
AcDbEntity
  8
0
100
AcDbBlockEnd
  0
BLOCK
  5
C1
330
C0
100
AcDbEntity
  8
0
100
AcDbBlockBegin
  2
*D5
 70
     1
 10
0.0
 20
0.0
 30
0.0
  3
*D5
  1

  0
LINE
  5
C2
330
C0
100
AcDbEntity
  8
DIM
 62
     0
440
 16777216
370
    -2
100
AcDbLine
 10
-918.7018279092267
 20
257.8695290078886
 30
0.0
 11
-918.7018279092267
 21
240.0286136128892
 31
0.0
  0
LINE
  5
C3
330
C0
100
AcDbEntity
  8
DIM
 62
     0
440
 16777216
370
    -2
100
AcDbLine
 10
-853.7018279092215
 20
258.1195290078791
 30
0.0
 11
-853.7018279092215
 21
240.0286136128892
 31
0.0
  0
LINE
  5
C4
330
C0
100
AcDbEntity
  8
DIM
 62
     0
440
 16777216
370
    -2
100
AcDbLine
 10
-916.7018279092268
 20
241.0286136128892
 30
0.0
 11
-889.7688129024038
 21
241.0286136128892
 31
0.0
  0
LINE
  5
C5
330
C0
100
AcDbEntity
  8
DIM
 62
     0
440
 16777216
370
    -2
100
AcDbLine
 10
-855.7018279092215
 20
241.0286136128892
 30
0.0
 11
-882.6348429160464
 21
241.0286136128892
 31
0.0
  0
INSERT
  5
C6
330
C0
100
AcDbEntity
  8
DIM
 62
     0
440
 16777216
370
    -2
100
AcDbBlockReference
  2
_OPEN30
 10
-918.7018279092267
 20
241.0286136128892
 30
0.0
 41
2.0
 42
2.0
 43
2.0
 50
180.0
  0
INSERT
  5
C7
330
C0
100
AcDbEntity
  8
DIM
 62
     0
440
 16777216
370
    -2
100
AcDbBlockReference
  2
_OPEN30
 10
-853.7018279092215
 20
241.0286136128892
 30
0.0
 41
2.0
 42
2.0
 43
2.0
  0
MTEXT
  5
C8
330
C0
100
AcDbEntity
  8
DIM
 62
     0
440
 16777216
100
AcDbMText
 10
-886.2018279092254
 20
241.0286136128892
 30
0.0
 40
2.799999999999998
 41
0.0
 46
0.0
 71
     5
 72
     1
  1
6.5
  7
STYLE3
 73
     1
 44
1.0
  0
POINT
  5
C9
330
C0
100
AcDbEntity
  8
DEFPOINTS
 62
     0
440
 16777216
100
AcDbPoint
 10
-918.7018279092267
 20
258.8695290078886
 30
0.0
  0
POINT
  5
CA
330
C0
100
AcDbEntity
  8
DEFPOINTS
 62
     0
440
 16777216
100
AcDbPoint
 10
-853.7018279092215
 20
259.1195290078791
 30
0.0
  0
POINT
  5
CB
330
C0
100
AcDbEntity
  8
DEFPOINTS
 62
     0
440
 16777216
100
AcDbPoint
 10
-853.7018279092215
 20
241.0286136128892
 30
0.0
  0
ENDBLK
  5
CC
330
C0
100
AcDbEntity
  8
0
100
AcDbBlockEnd
  0
BLOCK
  5
CF
330
CE
100
AcDbEntity
  8
0
100
AcDbBlockBegin
  2
*D6
 70
     1
 10
0.0
 20
0.0
 30
0.0
  3
*D6
  1

  0
LINE
  5
D0
330
CE
100
AcDbEntity
  8
DIM
 62
     0
440
 16777216
370
    -2
100
AcDbLine
 10
-922.2018289895627
 20
200.1791176342367
 30
0.0
 11
-931.3928481697763
 21
200.1791176342367
 31
0.0
  0
LINE
  5
D1
330
CE
100
AcDbEntity
  8
DIM
 62
     0
440
 16777216
370
    -2
100
AcDbLine
 10
-922.2018289895613
 20
206.6791176342371
 30
0.0
 11
-931.3928481697763
 21
206.6791176342371
 31
0.0
  0
LINE
  5
D2
330
CE
100
AcDbEntity
  8
DIM
 62
     0
440
 16777216
370
    -2
100
AcDbLine
 10
-930.3928481697763
 20
202.1791176342367
 30
0.0
 11
-930.3928481697763
 21
204.6791176342371
 31
0.0
  0
LINE
  5
D3
330
CE
100
AcDbEntity
  8
DIM
 62
     0
440
 16777216
370
    -2
100
AcDbLine
 10
-930.3928481697763
 20
206.6791176342371
 30
0.0
 11
-930.3928481697763
 21
208.6791176342374
 31
0.0
  0
INSERT
  5
D4
330
CE
100
AcDbEntity
  8
DIM
 62
     0
440
 16777216
370
    -2
100
AcDbBlockReference
  2
_OPEN30
 10
-930.3928481697763
 20
200.1791176342367
 30
0.0
 41
2.0
 42
2.0
 43
2.0
 50
270.0
  0
INSERT
  5
D5
330
CE
100
AcDbEntity
  8
DIM
 62
     0
440
 16777216
370
    -2
100
AcDbBlockReference
  2
_OPEN30
 10
-930.3928481697763
 20
206.6791176342371
 30
0.0
 41
2.0
 42
2.0
 43
2.0
 50
90.0
  0
MTEXT
  5
D6
330
CE
100
AcDbEntity
  8
DIM
 62
     0
440
 16777216
100
AcDbMText
 10
-930.3928481697763
 20
213.3261844828048
 30
0.0
 40
2.799999999999998
 41
0.0
 46
0.0
 71
     5
 72
     1
  1
0.65
  7
STYLE3
 11
0.0000000000000001
 21
1.0
 31
0.0
 73
     1
 44
1.0
  0
POINT
  5
D7
330
CE
100
AcDbEntity
  8
DEFPOINTS
 62
     0
440
 16777216
100
AcDbPoint
 10
-921.2018289895627
 20
200.1791176342367
 30
0.0
  0
POINT
  5
D8
330
CE
100
AcDbEntity
  8
DEFPOINTS
 62
     0
440
 16777216
100
AcDbPoint
 10
-921.2018289895613
 20
206.6791176342371
 30
0.0
  0
POINT
  5
D9
330
CE
100
AcDbEntity
  8
DEFPOINTS
 62
     0
440
 16777216
100
AcDbPoint
 10
-930.3928481697763
 20
206.6791176342371
 30
0.0
  0
ENDBLK
  5
DA
330
CE
100
AcDbEntity
  8
0
100
AcDbBlockEnd
  0
BLOCK
  5
11C
330
11B
100
AcDbEntity
  8
0
100
AcDbBlockBegin
  2
*D7
 70
     1
 10
0.0
 20
0.0
 30
0.0
  3
*D7
  1

  0
LINE
  5
11D
330
11B
100
AcDbEntity
  8
DIM
 62
     0
440
 16777216
370
    -2
100
AcDbLine
 10
-922.2018279092273
 20
154.5121174028127
 30
0.0
 11
-933.8141022562766
 21
154.5121174028127
 31
0.0
  0
LINE
  5
11E
330
11B
100
AcDbEntity
  8
DIM
 62
     0
440
 16777216
370
    -2
100
AcDbLine
 10
-922.2018279092273
 20
134.5121174028127
 30
0.0
 11
-933.8141022562766
 21
134.5121174028127
 31
0.0
  0
LINE
  5
11F
330
11B
100
AcDbEntity
  8
DIM
 62
     0
440
 16777216
370
    -2
100
AcDbLine
 10
-932.8141022562766
 20
152.5121174028127
 30
0.0
 11
-932.8141022562766
 21
146.4394025324172
 31
0.0
  0
LINE
  5
120
330
11B
100
AcDbEntity
  8
DIM
 62
     0
440
 16777216
370
    -2
100
AcDbLine
 10
-932.8141022562766
 20
136.5121174028127
 30
0.0
 11
-932.8141022562766
 21
142.5848322732085
 31
0.0
  0
INSERT
  5
121
330
11B
100
AcDbEntity
  8
DIM
 62
     0
440
 16777216
370
    -2
100
AcDbBlockReference
  2
_OPEN30
 10
-932.8141022562766
 20
154.5121174028127
 30
0.0
 41
2.0
 42
2.0
 43
2.0
 50
90.0
  0
INSERT
  5
122
330
11B
100
AcDbEntity
  8
DIM
 62
     0
440
 16777216
370
    -2
100
AcDbBlockReference
  2
_OPEN30
 10
-932.8141022562766
 20
134.5121174028127
 30
0.0
 41
2.0
 42
2.0
 43
2.0
 50
270.0
  0
MTEXT
  5
123
330
11B
100
AcDbEntity
  8
DIM
 62
     0
440
 16777216
100
AcDbMText
 10
-932.8141022562766
 20
144.5121174028127
 30
0.0
 40
2.799999999999998
 41
0.0
 46
0.0
 71
     5
 72
     1
  1
2
  7
STYLE3
 11
0.0000000000000001
 21
1.0
 31
0.0
 73
     1
 44
1.0
  0
POINT
  5
124
330
11B
100
AcDbEntity
  8
DEFPOINTS
 62
     0
440
 16777216
100
AcDbPoint
 10
-921.2018279092273
 20
154.5121174028127
 30
0.0
  0
POINT
  5
125
330
11B
100
AcDbEntity
  8
DEFPOINTS
 62
     0
440
 16777216
100
AcDbPoint
 10
-921.2018279092273
 20
134.5121174028127
 30
0.0
  0
POINT
  5
126
330
11B
100
AcDbEntity
  8
DEFPOINTS
 62
     0
440
 16777216
100
AcDbPoint
 10
-932.8141022562766
 20
134.5121174028127
 30
0.0
  0
ENDBLK
  5
127
330
11B
100
AcDbEntity
  8
0
100
AcDbBlockEnd
  0
BLOCK
  5
130
330
12F
100
AcDbEntity
  8
0
100
AcDbBlockBegin
  2
*D8
 70
     1
 10
0.0
 20
0.0
 30
0.0
  3
*D8
  1

  0
LINE
  5
131
330
12F
100
AcDbEntity
  8
DIM
 62
     0
440
 16777216
370
    -2
100
AcDbLine
 10
-866.7018279092287
 20
138.5121174028195
 30
0.0
 11
-866.7018279092287
 21
121.3378659907455
 31
0.0
  0
LINE
  5
132
330
12F
100
AcDbEntity
  8
DIM
 62
     0
440
 16777216
370
    -2
100
AcDbLine
 10
-854.7018279092288
 20
138.5121174028039
 30
0.0
 11
-854.7018279092288
 21
121.3378659907455
 31
0.0
  0
LINE
  5
133
330
12F
100
AcDbEntity
  8
DIM
 62
     0
440
 16777216
370
    -2
100
AcDbLine
 10
-864.7018279092288
 20
122.3378659907455
 30
0.0
 11
-856.7018279092287
 21
122.3378659907455
 31
0.0
  0
LINE
  5
134
330
12F
100
AcDbEntity
  8
DIM
 62
     0
440
 16777216
370
    -2
100
AcDbLine
 10
-854.7018279092288
 20
122.3378659907455
 30
0.0
 11
-848.5091948942217
 21
122.3378659907455
 31
0.0
  0
INSERT
  5
135
330
12F
100
AcDbEntity
  8
DIM
 62
     0
440
 16777216
370
    -2
100
AcDbBlockReference
  2
_OPEN30
 10
-866.7018279092287
 20
122.3378659907455
 30
0.0
 41
2.0
 42
2.0
 43
2.0
 50
180.0
  0
INSERT
  5
136
330
12F
100
AcDbEntity
  8
DIM
 62
     0
440
 16777216
370
    -2
100
AcDbBlockReference
  2
_OPEN30
 10
-854.7018279092288
 20
122.3378659907455
 30
0.0
 41
2.0
 42
2.0
 43
2.0
  0
MTEXT
  5
137
330
12F
100
AcDbEntity
  8
DIM
 62
     0
440
 16777216
100
AcDbMText
 10
-845.1064663812616
 20
122.3378659907455
 30
0.0
 40
2.799999999999998
 41
0.0
 46
0.0
 71
     5
 72
     1
  1
1.2
  7
STYLE3
 73
     1
 44
1.0
  0
POINT
  5
138
330
12F
100
AcDbEntity
  8
DEFPOINTS
 62
     0
440
 16777216
100
AcDbPoint
 10
-866.7018279092287
 20
139.5121174028195
 30
0.0
  0
POINT
  5
139
330
12F
100
AcDbEntity
  8
DEFPOINTS
 62
     0
440
 16777216
100
AcDbPoint
 10
-854.7018279092288
 20
139.5121174028039
 30
0.0
  0
POINT
  5
13A
330
12F
100
AcDbEntity
  8
DEFPOINTS
 62
     0
440
 16777216
100
AcDbPoint
 10
-854.7018279092288
 20
122.3378659907455
 30
0.0
  0
ENDBLK
  5
13B
330
12F
100
AcDbEntity
  8
0
100
AcDbBlockEnd
  0
BLOCK
  5
13E
330
13D
100
AcDbEntity
  8
0
100
AcDbBlockBegin
  2
*D9
 70
     1
 10
0.0
 20
0.0
 30
0.0
  3
*D9
  1

  0
LINE
  5
13F
330
13D
100
AcDbEntity
  8
DIM
 62
     0
440
 16777216
370
    -2
100
AcDbLine
 10
-866.7018279092287
 20
138.5121174028195
 30
0.0
 11
-866.7018279092287
 21
121.3378659907455
 31
0.0
  0
LINE
  5
140
330
13D
100
AcDbEntity
  8
DIM
 62
     0
440
 16777216
370
    -2
100
AcDbLine
 10
-874.2018279092253
 20
138.5121174028079
 30
0.0
 11
-874.2018279092253
 21
121.3378659907455
 31
0.0
  0
LINE
  5
141
330
13D
100
AcDbEntity
  8
DIM
 62
     0
440
 16777216
370
    -2
100
AcDbLine
 10
-868.7018279092287
 20
122.3378659907455
 30
0.0
 11
-872.2018279092251
 21
122.3378659907455
 31
0.0
  0
LINE
  5
142
330
13D
100
AcDbEntity
  8
DIM
 62
     0
440
 16777216
370
    -2
100
AcDbLine
 10
-874.2018279092253
 20
122.3378659907455
 30
0.0
 11
-876.2018279092254
 21
122.3378659907455
 31
0.0
  0
INSERT
  5
143
330
13D
100
AcDbEntity
  8
DIM
 62
     0
440
 16777216
370
    -2
100
AcDbBlockReference
  2
_OPEN30
 10
-866.7018279092287
 20
122.3378659907455
 30
0.0
 41
2.0
 42
2.0
 43
2.0
  0
INSERT
  5
144
330
13D
100
AcDbEntity
  8
DIM
 62
     0
440
 16777216
370
    -2
100
AcDbBlockReference
  2
_OPEN30
 10
-874.2018279092253
 20
122.3378659907455
 30
0.0
 41
2.0
 42
2.0
 43
2.0
 50
180.0
  0
MTEXT
  5
145
330
13D
100
AcDbEntity
  8
DIM
 62
     0
440
 16777216
100
AcDbMText
 10
-880.8488947577927
 20
122.3378659907455
 30
0.0
 40
2.799999999999998
 41
0.0
 46
0.0
 71
     5
 72
     1
  1
0.75
  7
STYLE3
 73
     1
 44
1.0
  0
POINT
  5
146
330
13D
100
AcDbEntity
  8
DEFPOINTS
 62
     0
440
 16777216
100
AcDbPoint
 10
-866.7018279092287
 20
139.5121174028195
 30
0.0
  0
POINT
  5
147
330
13D
100
AcDbEntity
  8
DEFPOINTS
 62
     0
440
 16777216
100
AcDbPoint
 10
-874.2018279092253
 20
139.512117402808
 30
0.0
  0
POINT
  5
148
330
13D
100
AcDbEntity
  8
DEFPOINTS
 62
     0
440
 16777216
100
AcDbPoint
 10
-874.2018279092253
 20
122.3378659907455
 30
0.0
  0
ENDBLK
  5
149
330
13D
100
AcDbEntity
  8
0
100
AcDbBlockEnd
  0
BLOCK
  5
152
330
151
100
AcDbEntity
  8
0
100
AcDbBlockBegin
  2
*D10
 70
     1
 10
0.0
 20
0.0
 30
0.0
  3
*D10
  1

  0
LINE
  5
153
330
151
100
AcDbEntity
  8
DIM
 62
     0
440
 16777216
370
    -2
100
AcDbLine
 10
-818.6237063016099
 20
154.5121174028218
 30
0.0
 11
-833.4292856315942
 21
154.5121174028218
 31
0.0
  0
LINE
  5
154
330
151
100
AcDbEntity
  8
DIM
 62
     0
440
 16777216
370
    -2
100
AcDbLine
 10
-818.6237063016099
 20
134.5121174028127
 30
0.0
 11
-833.4292856315942
 21
134.5121174028127
 31
0.0
  0
LINE
  5
155
330
151
100
AcDbEntity
  8
DIM
 62
     0
440
 16777216
370
    -2
100
AcDbLine
 10
-832.4292856315942
 20
152.5121174028218
 30
0.0
 11
-832.4292856315942
 21
146.4394025324172
 31
0.0
  0
LINE
  5
156
330
151
100
AcDbEntity
  8
DIM
 62
     0
440
 16777216
370
    -2
100
AcDbLine
 10
-832.4292856315942
 20
136.5121174028127
 30
0.0
 11
-832.4292856315942
 21
142.5848322732085
 31
0.0
  0
INSERT
  5
157
330
151
100
AcDbEntity
  8
DIM
 62
     0
440
 16777216
370
    -2
100
AcDbBlockReference
  2
_OPEN30
 10
-832.4292856315942
 20
154.5121174028218
 30
0.0
 41
2.0
 42
2.0
 43
2.0
 50
90.0
  0
INSERT
  5
158
330
151
100
AcDbEntity
  8
DIM
 62
     0
440
 16777216
370
    -2
100
AcDbBlockReference
  2
_OPEN30
 10
-832.4292856315942
 20
134.5121174028127
 30
0.0
 41
2.0
 42
2.0
 43
2.0
 50
270.0
  0
MTEXT
  5
159
330
151
100
AcDbEntity
  8
DIM
 62
     0
440
 16777216
100
AcDbMText
 10
-832.4292856315942
 20
144.5121174028127
 30
0.0
 40
2.799999999999998
 41
0.0
 46
0.0
 71
     5
 72
     1
  1
2
  7
STYLE3
 11
0.0000000000000001
 21
1.0
 31
0.0
 73
     1
 44
1.0
  0
POINT
  5
15A
330
151
100
AcDbEntity
  8
DEFPOINTS
 62
     0
440
 16777216
100
AcDbPoint
 10
-817.6237063016101
 20
154.5121174028218
 30
0.0
  0
POINT
  5
15B
330
151
100
AcDbEntity
  8
DEFPOINTS
 62
     0
440
 16777216
100
AcDbPoint
 10
-817.6237063016101
 20
134.5121174028127
 30
0.0
  0
POINT
  5
15C
330
151
100
AcDbEntity
  8
DEFPOINTS
 62
     0
440
 16777216
100
AcDbPoint
 10
-832.4292856315942
 20
134.5121174028127
 30
0.0
  0
ENDBLK
  5
15D
330
151
100
AcDbEntity
  8
0
100
AcDbBlockEnd
  0
BLOCK
  5
160
330
15F
100
AcDbEntity
  8
0
100
AcDbBlockBegin
  2
*D11
 70
     1
 10
0.0
 20
0.0
 30
0.0
  3
*D11
  1

  0
LINE
  5
161
330
15F
100
AcDbEntity
  8
DIM
 62
     0
440
 16777216
370
    -2
100
AcDbLine
 10
-763.1237063016119
 20
150.5121174028061
 30
0.0
 11
-763.1237063016119
 21
170.9131097861619
 31
0.0
  0
LINE
  5
162
330
15F
100
AcDbEntity
  8
DIM
 62
     0
440
 16777216
370
    -2
100
AcDbLine
 10
-814.1237063015955
 20
150.0121174028119
 30
0.0
 11
-814.1237063015955
 21
170.9131097861619
 31
0.0
  0
LINE
  5
163
330
15F
100
AcDbEntity
  8
DIM
 62
     0
440
 16777216
370
    -2
100
AcDbLine
 10
-765.1237063016119
 20
169.9131097861619
 30
0.0
 11
-786.6690061331325
 21
169.9131097861619
 31
0.0
  0
LINE
  5
164
330
15F
100
AcDbEntity
  8
DIM
 62
     0
440
 16777216
370
    -2
100
AcDbLine
 10
-812.1237063015954
 20
169.9131097861619
 30
0.0
 11
-793.2261684796538
 21
169.9131097861619
 31
0.0
  0
INSERT
  5
165
330
15F
100
AcDbEntity
  8
DIM
 62
     0
440
 16777216
370
    -2
100
AcDbBlockReference
  2
_OPEN30
 10
-763.1237063016119
 20
169.9131097861619
 30
0.0
 41
2.0
 42
2.0
 43
2.0
  0
INSERT
  5
166
330
15F
100
AcDbEntity
  8
DIM
 62
     0
440
 16777216
370
    -2
100
AcDbBlockReference
  2
_OPEN30
 10
-814.1237063015955
 20
169.9131097861619
 30
0.0
 41
2.0
 42
2.0
 43
2.0
 50
180.0
  0
MTEXT
  5
167
330
15F
100
AcDbEntity
  8
DIM
 62
     0
440
 16777216
100
AcDbMText
 10
-789.9475873063931
 20
169.9131097861619
 30
0.0
 40
2.799999999999998
 41
0.0
 46
0.0
 71
     5
 72
     1
  1
5.1
  7
STYLE3
 73
     1
 44
1.0
  0
POINT
  5
168
330
15F
100
AcDbEntity
  8
DEFPOINTS
 62
     0
440
 16777216
100
AcDbPoint
 10
-763.1237063016119
 20
149.5121174028061
 30
0.0
  0
POINT
  5
169
330
15F
100
AcDbEntity
  8
DEFPOINTS
 62
     0
440
 16777216
100
AcDbPoint
 10
-814.1237063015955
 20
149.0121174028119
 30
0.0
  0
POINT
  5
16A
330
15F
100
AcDbEntity
  8
DEFPOINTS
 62
     0
440
 16777216
100
AcDbPoint
 10
-814.1237063015955
 20
169.9131097861619
 30
0.0
  0
ENDBLK
  5
16B
330
15F
100
AcDbEntity
  8
0
100
AcDbBlockEnd
  0
BLOCK
  5
16E
330
16D
100
AcDbEntity
  8
0
100
AcDbBlockBegin
  2
*D12
 70
     1
 10
0.0
 20
0.0
 30
0.0
  3
*D12
  1

  0
LINE
  5
16F
330
16D
100
AcDbEntity
  8
DIM
 62
     0
440
 16777216
370
    -2
100
AcDbLine
 10
-814.1237063015955
 20
150.0121174028119
 30
0.0
 11
-814.1237063015955
 21
170.9131097861619
 31
0.0
  0
LINE
  5
170
330
16D
100
AcDbEntity
  8
DIM
 62
     0
440
 16777216
370
    -2
100
AcDbLine
 10
-817.6237063016101
 20
155.5121174028218
 30
0.0
 11
-817.6237063016101
 21
170.9131097861619
 31
0.0
  0
LINE
  5
171
330
16D
100
AcDbEntity
  8
DIM
 62
     0
440
 16777216
370
    -2
100
AcDbLine
 10
-812.1237063015954
 20
169.9131097861619
 30
0.0
 11
-810.1237063015956
 21
169.9131097861619
 31
0.0
  0
LINE
  5
172
330
16D
100
AcDbEntity
  8
DIM
 62
     0
440
 16777216
370
    -2
100
AcDbLine
 10
-819.6237063016099
 20
169.9131097861619
 30
0.0
 11
-821.6237063016102
 21
169.9131097861619
 31
0.0
  0
LINE
  5
173
330
16D
100
AcDbEntity
  8
DIM
 62
     0
440
 16777216
370
    -2
100
AcDbLine
 10
-814.1237063015955
 20
169.9131097861619
 30
0.0
 11
-817.6237063016101
 21
169.9131097861619
 31
0.0
  0
INSERT
  5
174
330
16D
100
AcDbEntity
  8
DIM
 62
     0
440
 16777216
370
    -2
100
AcDbBlockReference
  2
_OPEN30
 10
-814.1237063015955
 20
169.9131097861619
 30
0.0
 41
2.0
 42
2.0
 43
2.0
 50
180.0
  0
INSERT
  5
175
330
16D
100
AcDbEntity
  8
DIM
 62
     0
440
 16777216
370
    -2
100
AcDbBlockReference
  2
_OPEN30
 10
-817.6237063016101
 20
169.9131097861619
 30
0.0
 41
2.0
 42
2.0
 43
2.0
  0
MTEXT
  5
176
330
16D
100
AcDbEntity
  8
DIM
 62
     0
440
 16777216
100
AcDbMText
 10
-826.2707731501777
 20
169.9131097861619
 30
0.0
 40
2.799999999999998
 41
0.0
 46
0.0
 71
     5
 72
     1
  1
0.35
  7
STYLE3
 73
     1
 44
1.0
  0
POINT
  5
177
330
16D
100
AcDbEntity
  8
DEFPOINTS
 62
     0
440
 16777216
100
AcDbPoint
 10
-814.1237063015955
 20
149.0121174028119
 30
0.0
  0
POINT
  5
178
330
16D
100
AcDbEntity
  8
DEFPOINTS
 62
     0
440
 16777216
100
AcDbPoint
 10
-817.6237063016101
 20
154.5121174028218
 30
0.0
  0
POINT
  5
179
330
16D
100
AcDbEntity
  8
DEFPOINTS
 62
     0
440
 16777216
100
AcDbPoint
 10
-817.6237063016101
 20
169.9131097861619
 30
0.0
  0
ENDBLK
  5
17A
330
16D
100
AcDbEntity
  8
0
100
AcDbBlockEnd
  0
BLOCK
  5
17D
330
17C
100
AcDbEntity
  8
0
100
AcDbBlockBegin
  2
*D13
 70
     1
 10
0.0
 20
0.0
 30
0.0
  3
*D13
  1

  0
LINE
  5
17E
330
17C
100
AcDbEntity
  8
DIM
 62
     0
440
 16777216
370
    -2
100
AcDbLine
 10
-751.1237063016119
 20
150.5121174028104
 30
0.0
 11
-751.1237063016119
 21
165.8110483327689
 31
0.0
  0
LINE
  5
17F
330
17C
100
AcDbEntity
  8
DIM
 62
     0
440
 16777216
370
    -2
100
AcDbLine
 10
-747.6237063016101
 20
155.5121174028164
 30
0.0
 11
-747.6237063016101
 21
165.8110483327689
 31
0.0
  0
LINE
  5
180
330
17C
100
AcDbEntity
  8
DIM
 62
     0
440
 16777216
370
    -2
100
AcDbLine
 10
-753.1237063016119
 20
164.8110483327689
 30
0.0
 11
-755.1237063016119
 21
164.8110483327689
 31
0.0
  0
LINE
  5
181
330
17C
100
AcDbEntity
  8
DIM
 62
     0
440
 16777216
370
    -2
100
AcDbLine
 10
-745.6237063016101
 20
164.8110483327689
 30
0.0
 11
-743.6237063016099
 21
164.8110483327689
 31
0.0
  0
LINE
  5
182
330
17C
100
AcDbEntity
  8
DIM
 62
     0
440
 16777216
370
    -2
100
AcDbLine
 10
-751.1237063016119
 20
164.8110483327689
 30
0.0
 11
-747.6237063016101
 21
164.8110483327689
 31
0.0
  0
INSERT
  5
183
330
17C
100
AcDbEntity
  8
DIM
 62
     0
440
 16777216
370
    -2
100
AcDbBlockReference
  2
_OPEN30
 10
-751.1237063016119
 20
164.8110483327689
 30
0.0
 41
2.0
 42
2.0
 43
2.0
  0
INSERT
  5
184
330
17C
100
AcDbEntity
  8
DIM
 62
     0
440
 16777216
370
    -2
100
AcDbBlockReference
  2
_OPEN30
 10
-747.6237063016101
 20
164.8110483327689
 30
0.0
 41
2.0
 42
2.0
 43
2.0
 50
180.0
  0
MTEXT
  5
185
330
17C
100
AcDbEntity
  8
DIM
 62
     0
440
 16777216
100
AcDbMText
 10
-738.9766394530425
 20
164.8110483327689
 30
0.0
 40
2.799999999999998
 41
0.0
 46
0.0
 71
     5
 72
     1
  1
0.35
  7
STYLE3
 73
     1
 44
1.0
  0
POINT
  5
186
330
17C
100
AcDbEntity
  8
DEFPOINTS
 62
     0
440
 16777216
100
AcDbPoint
 10
-751.1237063016119
 20
149.5121174028104
 30
0.0
  0
POINT
  5
187
330
17C
100
AcDbEntity
  8
DEFPOINTS
 62
     0
440
 16777216
100
AcDbPoint
 10
-747.6237063016101
 20
154.5121174028164
 30
0.0
  0
POINT
  5
188
330
17C
100
AcDbEntity
  8
DEFPOINTS
 62
     0
440
 16777216
100
AcDbPoint
 10
-747.6237063016101
 20
164.8110483327689
 30
0.0
  0
ENDBLK
  5
189
330
17C
100
AcDbEntity
  8
0
100
AcDbBlockEnd
  0
BLOCK
  5
18C
330
18B
100
AcDbEntity
  8
0
100
AcDbBlockBegin
  2
*D14
 70
     1
 10
0.0
 20
0.0
 30
0.0
  3
*D14
  1

  0
LINE
  5
18D
330
18B
100
AcDbEntity
  8
DIM
 62
     0
440
 16777216
370
    -2
100
AcDbLine
 10
-746.6237063016101
 20
134.5121174028109
 30
0.0
 11
-733.675203694066
 21
134.5121174028109
 31
0.0
  0
LINE
  5
18E
330
18B
100
AcDbEntity
  8
DIM
 62
     0
440
 16777216
370
    -2
100
AcDbLine
 10
-746.6237063016101
 20
154.5121174028127
 30
0.0
 11
-733.675203694066
 21
154.5121174028127
 31
0.0
  0
LINE
  5
18F
330
18B
100
AcDbEntity
  8
DIM
 62
     0
440
 16777216
370
    -2
100
AcDbLine
 10
-734.6752036940661
 20
136.5121174028109
 30
0.0
 11
-734.6752036940661
 21
142.5848322732093
 31
0.0
  0
LINE
  5
190
330
18B
100
AcDbEntity
  8
DIM
 62
     0
440
 16777216
370
    -2
100
AcDbLine
 10
-734.6752036940661
 20
152.5121174028127
 30
0.0
 11
-734.6752036940661
 21
146.439402532418
 31
0.0
  0
INSERT
  5
191
330
18B
100
AcDbEntity
  8
DIM
 62
     0
440
 16777216
370
    -2
100
AcDbBlockReference
  2
_OPEN30
 10
-734.6752036940661
 20
134.5121174028109
 30
0.0
 41
2.0
 42
2.0
 43
2.0
 50
270.0
  0
INSERT
  5
192
330
18B
100
AcDbEntity
  8
DIM
 62
     0
440
 16777216
370
    -2
100
AcDbBlockReference
  2
_OPEN30
 10
-734.6752036940661
 20
154.5121174028127
 30
0.0
 41
2.0
 42
2.0
 43
2.0
 50
90.0
  0
MTEXT
  5
193
330
18B
100
AcDbEntity
  8
DIM
 62
     0
440
 16777216
100
AcDbMText
 10
-734.6752036940661
 20
144.5121174028135
 30
0.0
 40
2.799999999999998
 41
0.0
 46
0.0
 71
     5
 72
     1
  1
2
  7
STYLE3
 11
0.0000000000000001
 21
1.0
 31
0.0
 73
     1
 44
1.0
  0
POINT
  5
194
330
18B
100
AcDbEntity
  8
DEFPOINTS
 62
     0
440
 16777216
100
AcDbPoint
 10
-747.6237063016101
 20
134.5121174028109
 30
0.0
  0
POINT
  5
195
330
18B
100
AcDbEntity
  8
DEFPOINTS
 62
     0
440
 16777216
100
AcDbPoint
 10
-747.6237063016101
 20
154.5121174028127
 30
0.0
  0
POINT
  5
196
330
18B
100
AcDbEntity
  8
DEFPOINTS
 62
     0
440
 16777216
100
AcDbPoint
 10
-734.6752036940661
 20
154.5121174028127
 30
0.0
  0
ENDBLK
  5
197
330
18B
100
AcDbEntity
  8
0
100
AcDbBlockEnd
  0
BLOCK
  5
19A
330
199
100
AcDbEntity
  8
0
100
AcDbBlockBegin
  2
*D15
 70
     1
 10
0.0
 20
0.0
 30
0.0
  3
*D15
  1

  0
LINE
  5
19B
330
199
100
AcDbEntity
  8
DIM
 62
     0
440
 16777216
370
    -2
100
AcDbLine
 10
-763.1237063016119
 20
150.5121174028061
 30
0.0
 11
-763.1237063016119
 21
165.8344169252164
 31
0.0
  0
LINE
  5
19C
330
199
100
AcDbEntity
  8
DIM
 62
     0
440
 16777216
370
    -2
100
AcDbLine
 10
-770.6237063016101
 20
150.512117402808
 30
0.0
 11
-770.6237063016101
 21
165.8344169252164
 31
0.0
  0
LINE
  5
19D
330
199
100
AcDbEntity
  8
DIM
 62
     0
440
 16777216
370
    -2
100
AcDbLine
 10
-765.1237063016119
 20
164.8344169252164
 30
0.0
 11
-768.6237063016101
 21
164.8344169252164
 31
0.0
  0
LINE
  5
19E
330
199
100
AcDbEntity
  8
DIM
 62
     0
440
 16777216
370
    -2
100
AcDbLine
 10
-770.6237063016101
 20
164.8344169252164
 30
0.0
 11
-777.3835898348082
 21
164.8344169252164
 31
0.0
  0
INSERT
  5
19F
330
199
100
AcDbEntity
  8
DIM
 62
     0
440
 16777216
370
    -2
100
AcDbBlockReference
  2
_OPEN30
 10
-763.1237063016119
 20
164.8344169252164
 30
0.0
 41
2.0
 42
2.0
 43
2.0
  0
INSERT
  5
1A0
330
199
100
AcDbEntity
  8
DIM
 62
     0
440
 16777216
370
    -2
100
AcDbBlockReference
  2
_OPEN30
 10
-770.6237063016101
 20
164.8344169252164
 30
0.0
 41
2.0
 42
2.0
 43
2.0
 50
180.0
  0
MTEXT
  5
1A1
330
199
100
AcDbEntity
  8
DIM
 62
     0
440
 16777216
100
AcDbMText
 10
-782.0306566833757
 20
164.8344169252164
 30
0.0
 40
2.799999999999998
 41
0.0
 46
0.0
 71
     5
 72
     1
  1
0.75
  7
STYLE3
 73
     1
 44
1.0
  0
POINT
  5
1A2
330
199
100
AcDbEntity
  8
DEFPOINTS
 62
     0
440
 16777216
100
AcDbPoint
 10
-763.1237063016119
 20
149.5121174028061
 30
0.0
  0
POINT
  5
1A3
330
199
100
AcDbEntity
  8
DEFPOINTS
 62
     0
440
 16777216
100
AcDbPoint
 10
-770.6237063016101
 20
149.512117402808
 30
0.0
  0
POINT
  5
1A4
330
199
100
AcDbEntity
  8
DEFPOINTS
 62
     0
440
 16777216
100
AcDbPoint
 10
-770.6237063016101
 20
164.8344169252164
 30
0.0
  0
ENDBLK
  5
1A5
330
199
100
AcDbEntity
  8
0
100
AcDbBlockEnd
  0
BLOCK
  5
1A8
330
1A7
100
AcDbEntity
  8
0
100
AcDbBlockBegin
  2
*D16
 70
     1
 10
0.0
 20
0.0
 30
0.0
  3
*D16
  1

  0
LINE
  5
1A9
330
1A7
100
AcDbEntity
  8
DIM
 62
     0
440
 16777216
370
    -2
100
AcDbLine
 10
-751.1237063016119
 20
150.5121174028104
 30
0.0
 11
-751.1237063016119
 21
170.9131097861619
 31
0.0
  0
LINE
  5
1AA
330
1A7
100
AcDbEntity
  8
DIM
 62
     0
440
 16777216
370
    -2
100
AcDbLine
 10
-763.1237063016119
 20
150.5121174028061
 30
0.0
 11
-763.1237063016119
 21
170.9131097861619
 31
0.0
  0
LINE
  5
1AB
330
1A7
100
AcDbEntity
  8
DIM
 62
     0
440
 16777216
370
    -2
100
AcDbLine
 10
-761.1237063016119
 20
169.9131097861619
 30
0.0
 11
-753.1237063016119
 21
169.9131097861619
 31
0.0
  0
LINE
  5
1AC
330
1A7
100
AcDbEntity
  8
DIM
 62
     0
440
 16777216
370
    -2
100
AcDbLine
 10
-751.1237063016119
 20
169.9131097861619
 30
0.0
 11
-747.9310732866042
 21
169.9131097861619
 31
0.0
  0
INSERT
  5
1AD
330
1A7
100
AcDbEntity
  8
DIM
 62
     0
440
 16777216
370
    -2
100
AcDbBlockReference
  2
_OPEN30
 10
-763.1237063016119
 20
169.9131097861619
 30
0.0
 41
2.0
 42
2.0
 43
2.0
 50
180.0
  0
INSERT
  5
1AE
330
1A7
100
AcDbEntity
  8
DIM
 62
     0
440
 16777216
370
    -2
100
AcDbBlockReference
  2
_OPEN30
 10
-751.1237063016119
 20
169.9131097861619
 30
0.0
 41
2.0
 42
2.0
 43
2.0
  0
MTEXT
  5
1AF
330
1A7
100
AcDbEntity
  8
DIM
 62
     0
440
 16777216
100
AcDbMText
 10
-744.5283447736438
 20
169.9131097861619
 30
0.0
 40
2.799999999999998
 41
0.0
 46
0.0
 71
     5
 72
     1
  1
1.2
  7
STYLE3
 73
     1
 44
1.0
  0
POINT
  5
1B0
330
1A7
100
AcDbEntity
  8
DEFPOINTS
 62
     0
440
 16777216
100
AcDbPoint
 10
-751.1237063016119
 20
149.5121174028104
 30
0.0
  0
POINT
  5
1B1
330
1A7
100
AcDbEntity
  8
DEFPOINTS
 62
     0
440
 16777216
100
AcDbPoint
 10
-763.1237063016119
 20
149.5121174028061
 30
0.0
  0
POINT
  5
1B2
330
1A7
100
AcDbEntity
  8
DEFPOINTS
 62
     0
440
 16777216
100
AcDbPoint
 10
-763.1237063016119
 20
169.9131097861619
 30
0.0
  0
ENDBLK
  5
1B3
330
1A7
100
AcDbEntity
  8
0
100
AcDbBlockEnd
  0
BLOCK
  5
249
330
248
100
AcDbEntity
  8
0
100
AcDbBlockBegin
  2
*D17
 70
     1
 10
0.0
 20
0.0
 30
0.0
  3
*D17
  1

  0
LINE
  5
24A
330
248
100
AcDbEntity
  8
DIM
 62
     0
440
 16777216
370
    -2
100
AcDbLine
 10
-895.6018279092221
 20
259.4695290078862
 30
0.0
 11
-895.6018279092221
 21
246.7595681929243
 31
0.0
  0
LINE
  5
24B
330
248
100
AcDbEntity
  8
DIM
 62
     0
440
 16777216
370
    -2
100
AcDbLine
 10
-885.6018279092221
 20
259.4695290078862
 30
0.0
 11
-885.6018279092221
 21
246.7595681929243
 31
0.0
  0
LINE
  5
24C
330
248
100
AcDbEntity
  8
DIM
 62
     0
440
 16777216
370
    -2
100
AcDbLine
 10
-893.6018279092222
 20
247.7595681929243
 30
0.0
 11
-892.1175168587447
 21
247.7595681929243
 31
0.0
  0
LINE
  5
24D
330
248
100
AcDbEntity
  8
DIM
 62
     0
440
 16777216
370
    -2
100
AcDbLine
 10
-887.6018279092221
 20
247.7595681929243
 30
0.0
 11
-889.0861389596995
 21
247.7595681929243
 31
0.0
  0
INSERT
  5
24E
330
248
100
AcDbEntity
  8
DIM
 62
     0
440
 16777216
370
    -2
100
AcDbBlockReference
  2
_OPEN30
 10
-895.6018279092221
 20
247.7595681929243
 30
0.0
 41
2.0
 42
2.0
 43
2.0
 50
180.0
  0
INSERT
  5
24F
330
248
100
AcDbEntity
  8
DIM
 62
     0
440
 16777216
370
    -2
100
AcDbBlockReference
  2
_OPEN30
 10
-885.6018279092221
 20
247.7595681929243
 30
0.0
 41
2.0
 42
2.0
 43
2.0
  0
MTEXT
  5
250
330
248
100
AcDbEntity
  8
DIM
 62
     0
440
 16777216
100
AcDbMText
 10
-890.6018279092219
 20
247.7595681929243
 30
0.0
 40
2.799999999999998
 41
0.0
 46
0.0
 71
     5
 72
     1
  1
1
  7
STYLE3
 73
     1
 44
1.0
  0
POINT
  5
251
330
248
100
AcDbEntity
  8
DEFPOINTS
 62
     0
440
 16777216
100
AcDbPoint
 10
-895.6018279092221
 20
260.4695290078863
 30
0.0
  0
POINT
  5
252
330
248
100
AcDbEntity
  8
DEFPOINTS
 62
     0
440
 16777216
100
AcDbPoint
 10
-885.6018279092221
 20
260.4695290078863
 30
0.0
  0
POINT
  5
253
330
248
100
AcDbEntity
  8
DEFPOINTS
 62
     0
440
 16777216
100
AcDbPoint
 10
-885.6018279092221
 20
247.7595681929243
 30
0.0
  0
ENDBLK
  5
254
330
248
100
AcDbEntity
  8
0
100
AcDbBlockEnd
  0
BLOCK
  5
259
330
258
100
AcDbEntity
  8
0
100
AcDbBlockBegin
  2
*D18
 70
     1
 10
0.0
 20
0.0
 30
0.0
  3
*D18
  1

  0
LINE
  5
25A
330
258
100
AcDbEntity
  8
DIM
 62
     0
440
 16777216
370
    -2
100
AcDbLine
 10
-886.2018279092261
 20
277.7195290062833
 30
0.0
 11
-886.2018279092261
 21
280.5168325620312
 31
0.0
  0
LINE
  5
25B
330
258
100
AcDbEntity
  8
DIM
 62
     0
440
 16777216
370
    -2
100
AcDbLine
 10
-879.8518279092231
 20
267.2695290078841
 30
0.0
 11
-879.8518279092231
 21
280.5168325620312
 31
0.0
  0
LINE
  5
25C
330
258
100
AcDbEntity
  8
DIM
 62
     0
440
 16777216
370
    -2
100
AcDbLine
 10
-884.2018279092259
 20
279.5168325620312
 30
0.0
 11
-881.8518279092231
 21
279.5168325620312
 31
0.0
  0
LINE
  5
25D
330
258
100
AcDbEntity
  8
DIM
 62
     0
440
 16777216
370
    -2
100
AcDbLine
 10
-879.8518279092231
 20
279.5168325620312
 30
0.0
 11
-877.851827909223
 21
279.5168325620312
 31
0.0
  0
INSERT
  5
25E
330
258
100
AcDbEntity
  8
DIM
 62
     0
440
 16777216
370
    -2
100
AcDbBlockReference
  2
_OPEN30
 10
-886.2018279092261
 20
279.5168325620312
 30
0.0
 41
2.0
 42
2.0
 43
2.0
 50
180.0
  0
INSERT
  5
25F
330
258
100
AcDbEntity
  8
DIM
 62
     0
440
 16777216
370
    -2
100
AcDbBlockReference
  2
_OPEN30
 10
-879.8518279092231
 20
279.5168325620312
 30
0.0
 41
2.0
 42
2.0
 43
2.0
  0
MTEXT
  5
260
330
258
100
AcDbEntity
  8
DIM
 62
     0
440
 16777216
100
AcDbMText
 10
-872.1170393689773
 20
279.5168325620312
 30
0.0
 40
2.799999999999998
 41
0.0
 46
0.0
 71
     5
 72
     1
  1
0.635
  7
STYLE3
 73
     1
 44
1.0
  0
POINT
  5
261
330
258
100
AcDbEntity
  8
DEFPOINTS
 62
     0
440
 16777216
100
AcDbPoint
 10
-886.2018279092261
 20
276.7195290062833
 30
0.0
  0
POINT
  5
262
330
258
100
AcDbEntity
  8
DEFPOINTS
 62
     0
440
 16777216
100
AcDbPoint
 10
-879.8518279092231
 20
266.2695290078842
 30
0.0
  0
POINT
  5
263
330
258
100
AcDbEntity
  8
DEFPOINTS
 62
     0
440
 16777216
100
AcDbPoint
 10
-879.8518279092231
 20
279.5168325620312
 30
0.0
  0
ENDBLK
  5
264
330
258
100
AcDbEntity
  8
0
100
AcDbBlockEnd
  0
BLOCK
  5
269
330
268
100
AcDbEntity
  8
0
100
AcDbBlockBegin
  2
*D19
 70
     1
 10
0.0
 20
0.0
 30
0.0
  3
*D19
  1

  0
LINE
  5
26A
330
268
100
AcDbEntity
  8
DIM
 62
     0
440
 16777216
370
    -2
100
AcDbLine
 10
-886.2018279092261
 20
277.7195290062833
 30
0.0
 11
-886.2018279092261
 21
280.5168325620312
 31
0.0
  0
LINE
  5
26B
330
268
100
AcDbEntity
  8
DIM
 62
     0
440
 16777216
370
    -2
100
AcDbLine
 10
-901.3518279092231
 20
267.2695290078841
 30
0.0
 11
-901.3518279092231
 21
280.5168325620312
 31
0.0
  0
LINE
  5
26C
330
268
100
AcDbEntity
  8
DIM
 62
     0
440
 16777216
370
    -2
100
AcDbLine
 10
-884.2018279092259
 20
279.5168325620312
 30
0.0
 11
-882.2018279092262
 21
279.5168325620312
 31
0.0
  0
LINE
  5
26D
330
268
100
AcDbEntity
  8
DIM
 62
     0
440
 16777216
370
    -2
100
AcDbLine
 10
-903.3518279092232
 20
279.5168325620312
 30
0.0
 11
-905.351827909223
 21
279.5168325620312
 31
0.0
  0
LINE
  5
26E
330
268
100
AcDbEntity
  8
DIM
 62
     0
440
 16777216
370
    -2
100
AcDbLine
 10
-886.2018279092261
 20
279.5168325620312
 30
0.0
 11
-888.1738265449682
 21
279.5168325620312
 31
0.0
  0
LINE
  5
26F
330
268
100
AcDbEntity
  8
DIM
 62
     0
440
 16777216
370
    -2
100
AcDbLine
 10
-901.3518279092231
 20
279.5168325620312
 30
0.0
 11
-899.3798292734808
 21
279.5168325620312
 31
0.0
  0
INSERT
  5
270
330
268
100
AcDbEntity
  8
DIM
 62
     0
440
 16777216
370
    -2
100
AcDbBlockReference
  2
_OPEN30
 10
-886.2018279092261
 20
279.5168325620312
 30
0.0
 41
2.0
 42
2.0
 43
2.0
 50
180.0
  0
INSERT
  5
271
330
268
100
AcDbEntity
  8
DIM
 62
     0
440
 16777216
370
    -2
100
AcDbBlockReference
  2
_OPEN30
 10
-901.3518279092231
 20
279.5168325620312
 30
0.0
 41
2.0
 42
2.0
 43
2.0
  0
MTEXT
  5
272
330
268
100
AcDbEntity
  8
DIM
 62
     0
440
 16777216
100
AcDbMText
 10
-893.7768279092248
 20
279.5168325620312
 30
0.0
 40
2.799999999999998
 41
0.0
 46
0.0
 71
     5
 72
     1
  1
1.515
  7
STYLE3
 73
     1
 44
1.0
  0
POINT
  5
273
330
268
100
AcDbEntity
  8
DEFPOINTS
 62
     0
440
 16777216
100
AcDbPoint
 10
-886.2018279092261
 20
276.7195290062833
 30
0.0
  0
POINT
  5
274
330
268
100
AcDbEntity
  8
DEFPOINTS
 62
     0
440
 16777216
100
AcDbPoint
 10
-901.3518279092231
 20
266.2695290078842
 30
0.0
  0
POINT
  5
275
330
268
100
AcDbEntity
  8
DEFPOINTS
 62
     0
440
 16777216
100
AcDbPoint
 10
-901.3518279092231
 20
279.5168325620312
 30
0.0
  0
ENDBLK
  5
276
330
268
100
AcDbEntity
  8
0
100
AcDbBlockEnd
  0
BLOCK
  5
1ED
330
1EC
100
AcDbEntity
  8
0
100
AcDbBlockBegin
  2
*D20
 70
     1
 10
0.0
 20
0.0
 30
0.0
  3
*D20
  1

  0
LINE
  5
1EE
330
1EC
100
AcDbEntity
  8
DIM
 62
     0
440
 16777216
370
    -2
100
AcDbLine
 10
-854.7018279092288
 20
150.5121174028104
 30
0.0
 11
-854.7018279092288
 21
162.3957554919357
 31
0.0
  0
LINE
  5
1EF
330
1EC
100
AcDbEntity
  8
DIM
 62
     0
440
 16777216
370
    -2
100
AcDbLine
 10
-851.2018279092272
 20
155.5121174028127
 30
0.0
 11
-851.2018279092272
 21
162.3957554919357
 31
0.0
  0
LINE
  5
1F0
330
1EC
100
AcDbEntity
  8
DIM
 62
     0
440
 16777216
370
    -2
100
AcDbLine
 10
-856.7018279092287
 20
161.3957554919357
 30
0.0
 11
-858.7018279092287
 21
161.3957554919357
 31
0.0
  0
LINE
  5
1F1
330
1EC
100
AcDbEntity
  8
DIM
 62
     0
440
 16777216
370
    -2
100
AcDbLine
 10
-849.2018279092272
 20
161.3957554919357
 30
0.0
 11
-847.2018279092271
 21
161.3957554919357
 31
0.0
  0
LINE
  5
1F2
330
1EC
100
AcDbEntity
  8
DIM
 62
     0
440
 16777216
370
    -2
100
AcDbLine
 10
-854.7018279092288
 20
161.3957554919357
 30
0.0
 11
-851.2018279092272
 21
161.3957554919357
 31
0.0
  0
INSERT
  5
1F3
330
1EC
100
AcDbEntity
  8
DIM
 62
     0
440
 16777216
370
    -2
100
AcDbBlockReference
  2
_OPEN30
 10
-854.7018279092288
 20
161.3957554919357
 30
0.0
 41
2.0
 42
2.0
 43
2.0
  0
INSERT
  5
1F4
330
1EC
100
AcDbEntity
  8
DIM
 62
     0
440
 16777216
370
    -2
100
AcDbBlockReference
  2
_OPEN30
 10
-851.2018279092272
 20
161.3957554919357
 30
0.0
 41
2.0
 42
2.0
 43
2.0
 50
180.0
  0
MTEXT
  5
1F5
330
1EC
100
AcDbEntity
  8
DIM
 62
     0
440
 16777216
100
AcDbMText
 10
-842.5547610606596
 20
161.3957554919357
 30
0.0
 40
2.799999999999998
 41
0.0
 46
0.0
 71
     5
 72
     1
  1
0.35
  7
STYLE3
 73
     1
 44
1.0
  0
POINT
  5
1F6
330
1EC
100
AcDbEntity
  8
DEFPOINTS
 62
     0
440
 16777216
100
AcDbPoint
 10
-854.7018279092288
 20
149.5121174028104
 30
0.0
  0
POINT
  5
1F7
330
1EC
100
AcDbEntity
  8
DEFPOINTS
 62
     0
440
 16777216
100
AcDbPoint
 10
-851.2018279092272
 20
154.5121174028127
 30
0.0
  0
POINT
  5
1F8
330
1EC
100
AcDbEntity
  8
DEFPOINTS
 62
     0
440
 16777216
100
AcDbPoint
 10
-851.2018279092272
 20
161.3957554919357
 30
0.0
  0
ENDBLK
  5
1F9
330
1EC
100
AcDbEntity
  8
0
100
AcDbBlockEnd
  0
BLOCK
  5
1FE
330
1FD
100
AcDbEntity
  8
0
100
AcDbBlockBegin
  2
*D21
 70
     1
 10
0.0
 20
0.0
 30
0.0
  3
*D21
  1

  0
LINE
  5
1FF
330
1FD
100
AcDbEntity
  8
DIM
 62
     0
440
 16777216
370
    -2
100
AcDbLine
 10
-874.2018279092269
 20
150.512117402808
 30
0.0
 11
-874.2018279092269
 21
162.3957554919357
 31
0.0
  0
LINE
  5
200
330
1FD
100
AcDbEntity
  8
DIM
 62
     0
440
 16777216
370
    -2
100
AcDbLine
 10
-917.7018279092123
 20
150.0121174028119
 30
0.0
 11
-917.7018279092123
 21
162.3957554919357
 31
0.0
  0
LINE
  5
201
330
1FD
100
AcDbEntity
  8
DIM
 62
     0
440
 16777216
370
    -2
100
AcDbLine
 10
-876.201827909227
 20
161.3957554919357
 30
0.0
 11
-891.2484172680192
 21
161.3957554919357
 31
0.0
  0
LINE
  5
202
330
1FD
100
AcDbEntity
  8
DIM
 62
     0
440
 16777216
370
    -2
100
AcDbLine
 10
-915.7018279092126
 20
161.3957554919357
 30
0.0
 11
-900.6552385504202
 21
161.3957554919357
 31
0.0
  0
INSERT
  5
203
330
1FD
100
AcDbEntity
  8
DIM
 62
     0
440
 16777216
370
    -2
100
AcDbBlockReference
  2
_OPEN30
 10
-874.2018279092269
 20
161.3957554919357
 30
0.0
 41
2.0
 42
2.0
 43
2.0
  0
INSERT
  5
204
330
1FD
100
AcDbEntity
  8
DIM
 62
     0
440
 16777216
370
    -2
100
AcDbBlockReference
  2
_OPEN30
 10
-917.7018279092123
 20
161.3957554919357
 30
0.0
 41
2.0
 42
2.0
 43
2.0
 50
180.0
  0
MTEXT
  5
205
330
1FD
100
AcDbEntity
  8
DIM
 62
     0
440
 16777216
100
AcDbMText
 10
-895.9518279092197
 20
161.3957554919357
 30
0.0
 40
2.799999999999998
 41
0.0
 46
0.0
 71
     5
 72
     1
  1
4.35
  7
STYLE3
 73
     1
 44
1.0
  0
POINT
  5
206
330
1FD
100
AcDbEntity
  8
DEFPOINTS
 62
     0
440
 16777216
100
AcDbPoint
 10
-874.2018279092269
 20
149.512117402808
 30
0.0
  0
POINT
  5
207
330
1FD
100
AcDbEntity
  8
DEFPOINTS
 62
     0
440
 16777216
100
AcDbPoint
 10
-917.7018279092123
 20
149.0121174028119
 30
0.0
  0
POINT
  5
208
330
1FD
100
AcDbEntity
  8
DEFPOINTS
 62
     0
440
 16777216
100
AcDbPoint
 10
-917.7018279092123
 20
161.3957554919357
 30
0.0
  0
ENDBLK
  5
209
330
1FD
100
AcDbEntity
  8
0
100
AcDbBlockEnd
  0
BLOCK
  5
20E
330
20D
100
AcDbEntity
  8
0
100
AcDbBlockBegin
  2
*D22
 70
     1
 10
0.0
 20
0.0
 30
0.0
  3
*D22
  1

  0
LINE
  5
20F
330
20D
100
AcDbEntity
  8
DIM
 62
     0
440
 16777216
370
    -2
100
AcDbLine
 10
-917.2018279092254
 20
150.5121174028098
 30
0.0
 11
-927.2422504572659
 21
150.5121174028098
 31
0.0
  0
LINE
  5
210
330
20D
100
AcDbEntity
  8
DIM
 62
     0
440
 16777216
370
    -2
100
AcDbLine
 10
-917.2018279092254
 20
138.5121174028011
 30
0.0
 11
-927.2422504572659
 21
138.5121174028011
 31
0.0
  0
LINE
  5
211
330
20D
100
AcDbEntity
  8
DIM
 62
     0
440
 16777216
370
    -2
100
AcDbLine
 10
-926.242250457266
 20
152.5121174028098
 30
0.0
 11
-926.242250457266
 21
154.5121174028098
 31
0.0
  0
LINE
  5
212
330
20D
100
AcDbEntity
  8
DIM
 62
     0
440
 16777216
370
    -2
100
AcDbLine
 10
-926.242250457266
 20
136.5121174028011
 30
0.0
 11
-926.242250457266
 21
134.5121174028011
 31
0.0
  0
LINE
  5
213
330
20D
100
AcDbEntity
  8
DIM
 62
     0
440
 16777216
370
    -2
100
AcDbLine
 10
-926.242250457266
 20
150.5121174028098
 30
0.0
 11
-926.242250457266
 21
147.9148459157659
 31
0.0
  0
LINE
  5
214
330
20D
100
AcDbEntity
  8
DIM
 62
     0
440
 16777216
370
    -2
100
AcDbLine
 10
-926.242250457266
 20
138.5121174028011
 30
0.0
 11
-926.242250457266
 21
141.109388889845
 31
0.0
  0
INSERT
  5
215
330
20D
100
AcDbEntity
  8
DIM
 62
     0
440
 16777216
370
    -2
100
AcDbBlockReference
  2
_OPEN30
 10
-926.242250457266
 20
150.5121174028098
 30
0.0
 41
2.0
 42
2.0
 43
2.0
 50
270.0
  0
INSERT
  5
216
330
20D
100
AcDbEntity
  8
DIM
 62
     0
440
 16777216
370
    -2
100
AcDbBlockReference
  2
_OPEN30
 10
-926.242250457266
 20
138.5121174028011
 30
0.0
 41
2.0
 42
2.0
 43
2.0
 50
90.0
  0
MTEXT
  5
217
330
20D
100
AcDbEntity
  8
DIM
 62
     0
440
 16777216
100
AcDbMText
 10
-926.242250457266
 20
144.5121174028053
 30
0.0
 40
2.799999999999998
 41
0.0
 46
0.0
 71
     5
 72
     1
  1
1.2
  7
STYLE3
 11
0.0000000000000001
 21
1.0
 31
0.0
 73
     1
 44
1.0
  0
POINT
  5
218
330
20D
100
AcDbEntity
  8
DEFPOINTS
 62
     0
440
 16777216
100
AcDbPoint
 10
-916.2018279092253
 20
150.5121174028098
 30
0.0
  0
POINT
  5
219
330
20D
100
AcDbEntity
  8
DEFPOINTS
 62
     0
440
 16777216
100
AcDbPoint
 10
-916.2018279092253
 20
138.5121174028011
 30
0.0
  0
POINT
  5
21A
330
20D
100
AcDbEntity
  8
DEFPOINTS
 62
     0
440
 16777216
100
AcDbPoint
 10
-926.242250457266
 20
138.5121174028011
 30
0.0
  0
ENDBLK
  5
21B
330
20D
100
AcDbEntity
  8
0
100
AcDbBlockEnd
  0
BLOCK
  5
220
330
21F
100
AcDbEntity
  8
0
100
AcDbBlockBegin
  2
*D23
 70
     1
 10
0.0
 20
0.0
 30
0.0
  3
*D23
  1

  0
LINE
  5
221
330
21F
100
AcDbEntity
  8
DIM
 62
     0
440
 16777216
370
    -2
100
AcDbLine
 10
-854.7018279092291
 20
150.5121174028104
 30
0.0
 11
-842.2181839152152
 21
150.5121174028104
 31
0.0
  0
LINE
  5
222
330
21F
100
AcDbEntity
  8
DIM
 62
     0
440
 16777216
370
    -2
100
AcDbLine
 10
-854.7018279092307
 20
138.5121174028041
 30
0.0
 11
-842.2181839152152
 21
138.5121174028041
 31
0.0
  0
LINE
  5
223
330
21F
100
AcDbEntity
  8
DIM
 62
     0
440
 16777216
370
    -2
100
AcDbLine
 10
-843.2181839152152
 20
152.5121174028105
 30
0.0
 11
-843.2181839152152
 21
154.5121174028104
 31
0.0
  0
LINE
  5
224
330
21F
100
AcDbEntity
  8
DIM
 62
     0
440
 16777216
370
    -2
100
AcDbLine
 10
-843.2181839152152
 20
136.5121174028041
 30
0.0
 11
-843.2181839152152
 21
134.5121174028041
 31
0.0
  0
LINE
  5
225
330
21F
100
AcDbEntity
  8
DIM
 62
     0
440
 16777216
370
    -2
100
AcDbLine
 10
-843.2181839152152
 20
150.5121174028104
 30
0.0
 11
-843.2181839152152
 21
147.9148459157677
 31
0.0
  0
LINE
  5
226
330
21F
100
AcDbEntity
  8
DIM
 62
     0
440
 16777216
370
    -2
100
AcDbLine
 10
-843.2181839152152
 20
138.5121174028041
 30
0.0
 11
-843.2181839152152
 21
141.1093888898468
 31
0.0
  0
INSERT
  5
227
330
21F
100
AcDbEntity
  8
DIM
 62
     0
440
 16777216
370
    -2
100
AcDbBlockReference
  2
_OPEN30
 10
-843.2181839152152
 20
150.5121174028104
 30
0.0
 41
2.0
 42
2.0
 43
2.0
 50
270.0
  0
INSERT
  5
228
330
21F
100
AcDbEntity
  8
DIM
 62
     0
440
 16777216
370
    -2
100
AcDbBlockReference
  2
_OPEN30
 10
-843.2181839152152
 20
138.5121174028041
 30
0.0
 41
2.0
 42
2.0
 43
2.0
 50
90.0
  0
MTEXT
  5
229
330
21F
100
AcDbEntity
  8
DIM
 62
     0
440
 16777216
100
AcDbMText
 10
-843.2181839152152
 20
144.5121174028071
 30
0.0
 40
2.799999999999998
 41
0.0
 46
0.0
 71
     5
 72
     1
  1
1.2
  7
STYLE3
 11
0.0000000000000001
 21
1.0
 31
0.0
 73
     1
 44
1.0
  0
POINT
  5
22A
330
21F
100
AcDbEntity
  8
DEFPOINTS
 62
     0
440
 16777216
100
AcDbPoint
 10
-855.7018279092291
 20
150.5121174028104
 30
0.0
  0
POINT
  5
22B
330
21F
100
AcDbEntity
  8
DEFPOINTS
 62
     0
440
 16777216
100
AcDbPoint
 10
-855.7018279092304
 20
138.5121174028041
 30
0.0
  0
POINT
  5
22C
330
21F
100
AcDbEntity
  8
DEFPOINTS
 62
     0
440
 16777216
100
AcDbPoint
 10
-843.2181839152152
 20
138.5121174028041
 30
0.0
  0
ENDBLK
  5
22D
330
21F
100
AcDbEntity
  8
0
100
AcDbBlockEnd
  0
BLOCK
  5
296
330
295
100
AcDbEntity
  8
0
100
AcDbBlockBegin
  2
*D24
 70
     1
 10
0.0
 20
0.0
 30
0.0
  3
*D24
  1

  0
LINE
  5
297
330
295
100
AcDbEntity
  8
DIM
 62
     0
440
 16777216
370
    -2
100
AcDbLine
 10
-915.0654642728712
 20
258.869529007769
 30
0.0
 11
-915.0654642728712
 21
243.984158070808
 31
0.0
  0
LINE
  5
298
330
295
100
AcDbEntity
  8
DIM
 62
     0
440
 16777216
370
    -2
100
AcDbLine
 10
-907.1018279092239
 20
259.4695290078862
 30
0.0
 11
-907.1018279092239
 21
243.984158070808
 31
0.0
  0
LINE
  5
299
330
295
100
AcDbEntity
  8
DIM
 62
     0
440
 16777216
370
    -2
100
AcDbLine
 10
-913.0654642728712
 20
244.984158070808
 30
0.0
 11
-909.1018279092239
 21
244.984158070808
 31
0.0
  0
LINE
  5
29A
330
295
100
AcDbEntity
  8
DIM
 62
     0
440
 16777216
370
    -2
100
AcDbLine
 10
-907.1018279092239
 20
244.984158070808
 30
0.0
 11
-905.1018279092239
 21
244.984158070808
 31
0.0
  0
INSERT
  5
29B
330
295
100
AcDbEntity
  8
DIM
 62
     0
440
 16777216
370
    -2
100
AcDbBlockReference
  2
_OPEN30
 10
-915.0654642728712
 20
244.984158070808
 30
0.0
 41
2.0
 42
2.0
 43
2.0
 50
180.0
  0
INSERT
  5
29C
330
295
100
AcDbEntity
  8
DIM
 62
     0
440
 16777216
370
    -2
100
AcDbBlockReference
  2
_OPEN30
 10
-907.1018279092239
 20
244.984158070808
 30
0.0
 41
2.0
 42
2.0
 43
2.0
  0
MTEXT
  5
29D
330
295
100
AcDbEntity
  8
DIM
 62
     0
440
 16777216
100
AcDbMText
 10
-899.3784991234123
 20
244.984158070808
 30
0.0
 40
2.799999999999998
 41
0.0
 46
0.0
 71
     5
 72
     1
  1
0.796
  7
STYLE3
 73
     1
 44
1.0
  0
POINT
  5
29E
330
295
100
AcDbEntity
  8
DEFPOINTS
 62
     0
440
 16777216
100
AcDbPoint
 10
-915.0654642728712
 20
259.869529007769
 30
0.0
  0
POINT
  5
29F
330
295
100
AcDbEntity
  8
DEFPOINTS
 62
     0
440
 16777216
100
AcDbPoint
 10
-907.1018279092239
 20
260.4695290078863
 30
0.0
  0
POINT
  5
2A0
330
295
100
AcDbEntity
  8
DEFPOINTS
 62
     0
440
 16777216
100
AcDbPoint
 10
-907.1018279092239
 20
244.984158070808
 30
0.0
  0
ENDBLK
  5
2A1
330
295
100
AcDbEntity
  8
0
100
AcDbBlockEnd
  0
ENDSEC
  0
SECTION
  2
ENTITIES
  0
LINE
  5
5C
330
2
100
AcDbEntity
  8
0
 62
     7
100
AcDbLine
 10
-851.201828989561
 20
202.6791176342367
 30
0.0
 11
-851.201828989561
 21
200.1791176342367
 31
0.0
  0
LINE
  5
5D
330
2
100
AcDbEntity
  8
0
 62
     7
100
AcDbLine
 10
-921.2018289895627
 20
202.6791176342367
 30
0.0
 11
-921.2018289895627
 21
200.1791176342367
 31
0.0
  0
LINE
  5
5E
330
2
100
AcDbEntity
  8
0
 62
     7
100
AcDbLine
 10
-851.201828989563
 20
206.6791176342367
 30
0.0
 11
-921.2018289895613
 21
206.6791176342376
 31
0.0
  0
LINE
  5
5F
330
2
100
AcDbEntity
  8
0
 62
     7
100
AcDbLine
 10
-851.201828989563
 20
200.1791176342367
 30
0.0
 11
-921.2018289895627
 21
200.1791176342367
 31
0.0
  0
LINE
  5
60
330
2
100
AcDbEntity
  8
0
 62
     7
100
AcDbLine
 10
-851.201828989561
 20
202.6791176342357
 30
0.0
 11
-851.201828989563
 21
206.6791176342367
 31
0.0
  0
LINE
  5
61
330
2
100
AcDbEntity
  8
0
 62
     7
100
AcDbLine
 10
-921.2018289895613
 20
206.6791176342376
 30
0.0
 11
-921.2018289895613
 21
202.6791176342367
 31
0.0
  0
LINE
  5
62
330
2
100
AcDbEntity
  8
0
 62
     7
100
AcDbLine
 10
-905.8018289895615
 20
202.6791176342367
 30
0.0
 11
-903.6018289895606
 21
202.6791176342367
 31
0.0
  0
LINE
  5
63
330
2
100
AcDbEntity
  8
0
 62
     7
100
AcDbLine
 10
-905.8018289895615
 20
201.4291176342366
 30
0.0
 11
-903.6018289895606
 21
201.4291176342366
 31
0.0
  0
LINE
  5
64
330
2
100
AcDbEntity
  8
0
 62
     7
100
AcDbLine
 10
-905.8018289895615
 20
202.6791176342367
 30
0.0
 11
-905.8018289895615
 21
201.4291176342366
 31
0.0
  0
LINE
  5
65
330
2
100
AcDbEntity
  8
0
 62
     7
100
AcDbLine
 10
-903.6018289895643
 20
202.6791176342367
 30
0.0
 11
-903.6018289895663
 21
201.4291176342366
 31
0.0
  0
LINE
  5
66
330
2
100
AcDbEntity
  8
0
 62
     7
100
AcDbLine
 10
-882.8018289895615
 20
202.6791176342367
 30
0.0
 11
-880.6018289895606
 21
202.6791176342367
 31
0.0
  0
LINE
  5
67
330
2
100
AcDbEntity
  8
0
 62
     7
100
AcDbLine
 10
-882.8018289895615
 20
201.4291176342366
 30
0.0
 11
-880.6018289895606
 21
201.4291176342366
 31
0.0
  0
LINE
  5
68
330
2
100
AcDbEntity
  8
0
 62
     7
100
AcDbLine
 10
-882.8018289895615
 20
202.6791176342367
 30
0.0
 11
-882.8018289895615
 21
201.4291176342366
 31
0.0
  0
LINE
  5
69
330
2
100
AcDbEntity
  8
0
 62
     7
100
AcDbLine
 10
-880.6018289895645
 20
202.6791176342367
 30
0.0
 11
-880.6018289895662
 21
201.4291176342366
 31
0.0
  0
LINE
  5
6A
330
2
100
AcDbEntity
  8
0
 62
     7
100
AcDbLine
 10
-860.8018289895612
 20
202.6791176342403
 30
0.0
 11
-858.6018289895607
 21
202.6791176342403
 31
0.0
  0
LINE
  5
6B
330
2
100
AcDbEntity
  8
0
 62
     7
100
AcDbLine
 10
-860.8018289895612
 20
201.4291176342403
 30
0.0
 11
-858.6018289895607
 21
201.4291176342403
 31
0.0
  0
LINE
  5
6C
330
2
100
AcDbEntity
  8
0
 62
     7
100
AcDbLine
 10
-860.8018289895612
 20
202.6791176342403
 30
0.0
 11
-860.8018289895612
 21
201.4291176342403
 31
0.0
  0
LINE
  5
6D
330
2
100
AcDbEntity
  8
0
 62
     7
100
AcDbLine
 10
-858.6018289895644
 20
202.6791176342403
 30
0.0
 11
-858.6018289895662
 21
201.4291176342403
 31
0.0
  0
LINE
  5
6E
330
2
100
AcDbEntity
  8
0
 62
     7
100
AcDbLine
 10
-792.5676071782691
 20
205.8041176342372
 30
0.0
 11
-792.5676071782691
 21
199.3041176342363
 31
0.0
  0
LINE
  5
6F
330
2
100
AcDbEntity
  8
0
 62
     7
100
AcDbLine
 10
-772.567607178269
 20
205.8041176342372
 30
0.0
 11
-772.567607178269
 21
199.3041176342363
 31
0.0
  0
LINE
  5
70
330
2
100
AcDbEntity
  8
0
 62
     7
100
AcDbLine
 10
-772.567607178269
 20
205.8041176342372
 30
0.0
 11
-792.5676071782691
 21
205.8041176342372
 31
0.0
  0
LINE
  5
71
330
2
100
AcDbEntity
  8
0
 62
     7
100
AcDbLine
 10
-772.567607178269
 20
199.3041176342336
 30
0.0
 11
-792.5676071782691
 21
199.3041176342363
 31
0.0
  0
LINE
  5
72
330
2
100
AcDbEntity
  8
0
 62
     7
100
AcDbLine
 10
-779.0676071782727
 20
201.8041176342336
 30
0.0
 11
-781.3176071782692
 21
201.8041176342363
 31
0.0
  0
LINE
  5
73
330
2
100
AcDbEntity
  8
0
 62
     7
100
AcDbLine
 10
-783.8176071782692
 20
201.8041176342363
 30
0.0
 11
-786.0676071782709
 21
201.8041176342336
 31
0.0
  0
LINE
  5
74
330
2
100
AcDbEntity
  8
0
 62
     7
100
AcDbLine
 10
-779.0676071782727
 20
200.554117634235
 30
0.0
 11
-781.3176071782692
 21
200.554117634235
 31
0.0
  0
LINE
  5
75
330
2
100
AcDbEntity
  8
0
 62
     7
100
AcDbLine
 10
-783.8176071782692
 20
200.5541176342372
 30
0.0
 11
-786.0676071782709
 21
200.5541176342372
 31
0.0
  0
LINE
  5
76
330
2
100
AcDbEntity
  8
0
 62
     7
100
AcDbLine
 10
-779.0676071782727
 20
201.8041176342336
 30
0.0
 11
-779.0676071782727
 21
200.5541176342372
 31
0.0
  0
LINE
  5
77
330
2
100
AcDbEntity
  8
0
 62
     7
100
AcDbLine
 10
-781.3176071782692
 20
201.8041176342363
 30
0.0
 11
-781.3176071782692
 21
200.554117634235
 31
0.0
  0
LINE
  5
78
330
2
100
AcDbEntity
  8
0
 62
     7
100
AcDbLine
 10
-783.8176071782692
 20
201.8041176342363
 30
0.0
 11
-783.8176071782692
 21
200.554117634235
 31
0.0
  0
LINE
  5
79
330
2
100
AcDbEntity
  8
0
 62
     7
100
AcDbLine
 10
-786.0676071782709
 20
201.8041176342363
 30
0.0
 11
-786.0676071782709
 21
200.5541176342372
 31
0.0
  0
LINE
  5
7A
330
2
100
AcDbEntity
  8
0
 62
     7
100
AcDbLine
 10
-872.0351623228895
 20
202.6791176342367
 30
0.0
 11
-869.8684956562273
 21
202.6791176342367
 31
0.0
  0
LINE
  5
7B
330
2
100
AcDbEntity
  8
0
 62
     7
100
AcDbLine
 10
-872.0351623228895
 20
201.4291176342366
 30
0.0
 11
-869.8684956562273
 21
201.4291176342366
 31
0.0
  0
LINE
  5
7C
330
2
100
AcDbEntity
  8
0
 62
     7
100
AcDbLine
 10
-872.0351623228895
 20
202.6791176342367
 30
0.0
 11
-872.0351623228895
 21
201.4291176342366
 31
0.0
  0
LINE
  5
7D
330
2
100
AcDbEntity
  8
0
 62
     7
100
AcDbLine
 10
-869.8684956562289
 20
202.6791176342367
 30
0.0
 11
-869.8684956562306
 21
201.4291176342366
 31
0.0
  0
TEXT
  5
7E
330
2
100
AcDbEntity
  8
0
 62
     7
100
AcDbText
 10
-801.0003804260241
 20
262.2294630075711
 30
0.0
 40
1.555199999999999
  1
1
  7
SIMPLEX
 72
     4
 11
-800.8152375688814
 21
263.0070630075711
 31
0.0
100
AcDbText
  0
CIRCLE
  5
80
330
2
100
AcDbEntity
  8
0
 62
     7
100
AcDbCircle
 10
-800.8152375688814
 20
263.0070630075711
 30
0.0
 40
1.851963522897089
  0
TEXT
  5
81
330
2
100
AcDbEntity
  8
0
 62
     7
100
AcDbText
 10
-767.5344452013083
 20
262.2294630075711
 30
0.0
 40
1.555199999999999
  1
2
  7
SIMPLEX
 72
     4
 11
-767.0160452013083
 21
263.0070630075711
 31
0.0
100
AcDbText
  0
CIRCLE
  5
82
330
2
100
AcDbEntity
  8
0
 62
     7
100
AcDbCircle
 10
-767.0160452013083
 20
263.0070630075711
 30
0.0
 40
1.851963522897089
  0
LINE
  5
83
102
{ACAD_REACTORS
330
257
330
267
102
}
330
2
100
AcDbEntity
  8
CEN
 62
     7
100
AcDbLine
 10
-886.2018279092261
 20
276.7195290062833
 30
0.0
 11
-886.2018279092261
 21
250.0195290094876
 31
0.0
  0
LINE
  5
88
330
2
100
AcDbEntity
  8
CEN
 62
     7
100
AcDbLine
 10
-923.2018279056255
 20
263.3695290078854
 30
0.0
 11
-849.2018279128267
 21
263.3695290078854
 31
0.0
  0
LINE
  5
89
330
2
100
AcDbEntity
  8
CEN
 62
     7
100
AcDbLine
 10
-886.2018279092271
 20
193.1791176342372
 30
0.0
 11
-886.201827909227
 21
212.1791178686977
 31
0.0
  0
DIMENSION
  5
8A
330
2
100
AcDbEntity
  8
DIM
 62
     7
100
AcDbDimension
280
     0
  2
*D2
 10
-851.2018250485567
 20
285.7069703881474
 30
0.0
 11
-886.2018279092261
 21
285.7069703881474
 31
0.0
 70
   128
 71
     5
 42
7.000000286066915
 73
     0
 74
     0
 75
     0
  3
ISO-25
100
AcDbAlignedDimension
 13
-921.201827909226
 23
273.3695290078854
 33
0.0
 14
-851.2018250485567
 24
273.3695290078854
 34
0.0
100
AcDbRotatedDimension
1001
ACAD
1000
DSTYLE
1002
{
1070
    41
1040
2.0
1070
    42
1040
1.0
1070
    44
1040
1.0
1070
    77
1070
     0
1070
   140
1040
2.799999999999998
1070
   144
1040
0.1
1070
   147
1040
1.0
1070
   173
1070
     1
1070
   271
1070
     3
1070
   278
1070
    46
1070
   340
1005
9D
1070
   343
1005
95
1070
   344
1005
95
1002
}
  0
DIMENSION
  5
A3
330
2
100
AcDbEntity
  8
DIM
 62
     7
100
AcDbDimension
280
     0
  2
*D3
 10
-841.1527603760275
 20
255.8695290078886
 30
0.0
 11
-841.1527603760275
 21
263.3695289515368
 31
0.0
 70
   128
  1
<>
 71
     5
 42
1.499999999999821
 73
     0
 74
     0
 75
     0
  3
ISO-25
100
AcDbAlignedDimension
 13
-856.7018279092215
 23
270.8695290078868
 33
0.0
 14
-856.7018279092215
 24
255.8695290078886
 34
0.0
 50
90.0
100
AcDbRotatedDimension
1001
ACAD
1000
DSTYLE
1002
{
1070
    41
1040
2.0
1070
    42
1040
1.0
1070
    44
1040
1.0
1070
    77
1070
     0
1070
   140
1040
2.799999999999998
1070
   144
1040
0.1
1070
   147
1040
1.0
1070
   173
1070
     1
1070
   271
1070
     3
1070
   278
1070
    46
1070
   340
1005
9D
1070
   343
1005
95
1070
   344
1005
95
1002
}
  0
DIMENSION
  5
B1
330
2
100
AcDbEntity
  8
DIM
 62
     7
100
AcDbDimension
280
     0
  2
*D4
 10
-930.3928481697763
 20
253.3695290078854
 30
0.0
 11
-930.3928481697763
 21
263.3695290078854
 31
0.0
 70
   128
 71
     5
 42
1.999999999999996
 73
     0
 74
     0
 75
     0
  3
ISO-25
100
AcDbAlignedDimension
 13
-921.2018272092253
 23
273.3695290078854
 33
0.0
 14
-921.201827909226
 24
253.3695290078854
 34
0.0
 50
90.0
100
AcDbRotatedDimension
1001
ACAD
1000
DSTYLE
1002
{
1070
    41
1040
2.0
1070
    42
1040
1.0
1070
    44
1040
1.0
1070
    77
1070
     0
1070
   140
1040
2.799999999999998
1070
   144
1040
0.1
1070
   147
1040
1.0
1070
   173
1070
     1
1070
   271
1070
     3
1070
   278
1070
    46
1070
   340
1005
9D
1070
   343
1005
95
1070
   344
1005
95
1002
}
  0
DIMENSION
  5
BF
330
2
100
AcDbEntity
  8
DIM
 62
     7
100
AcDbDimension
280
     0
  2
*D5
 10
-853.7018279092215
 20
241.0286136128892
 30
0.0
 11
-886.2018279092254
 21
241.0286136128892
 31
0.0
 70
   128
  1
<>
 71
     5
 42
6.500000000000546
 73
     0
 74
     0
 75
     0
  3
ISO-25
100
AcDbAlignedDimension
 13
-918.7018279092267
 23
258.8695290078886
 33
0.0
 14
-853.7018279092215
 24
259.1195290078791
 34
0.0
100
AcDbRotatedDimension
1001
ACAD
1000
DSTYLE
1002
{
1070
    41
1040
2.0
1070
    42
1040
1.0
1070
    44
1040
1.0
1070
    77
1070
     0
1070
   140
1040
2.799999999999998
1070
   144
1040
0.1
1070
   147
1040
1.0
1070
   173
1070
     1
1070
   271
1070
     3
1070
   278
1070
    46
1070
   340
1005
9D
1070
   343
1005
95
1070
   344
1005
95
1002
}
  0
DIMENSION
  5
CD
330
2
100
AcDbEntity
  8
DIM
 62
     7
100
AcDbDimension
280
     0
  2
*D6
 10
-930.3928481697763
 20
206.6791176342371
 30
0.0
 11
-930.3928481697763
 21
213.3261844828048
 31
0.0
 70
   128
 71
     5
 42
0.6500000000000457
 73
     0
 74
     0
 75
     0
  3
ISO-25
100
AcDbAlignedDimension
 13
-921.2018289895627
 23
200.1791176342367
 33
0.0
 14
-921.2018289895613
 24
206.6791176342371
 34
0.0
 50
90.0
100
AcDbRotatedDimension
1001
ACAD
1000
DSTYLE
1002
{
1070
    41
1040
2.0
1070
    42
1040
1.0
1070
    44
1040
1.0
1070
    77
1070
     0
1070
   140
1040
2.799999999999998
1070
   144
1040
0.1
1070
   147
1040
1.0
1070
   173
1070
     1
1070
   271
1070
     3
1070
   278
1070
    46
1070
   340
1005
9D
1070
   343
1005
95
1070
   344
1005
95
1002
}
  0
TEXT
  5
DB
330
2
100
AcDbEntity
  8
DIM
 62
     7
100
AcDbText
 10
-845.3805432537818
 20
246.7998305198849
 30
0.0
 40
2.5
  1
Anode
  7
STYLE3
100
AcDbText
1001
ACAD
1000
ACAD_MTEXT_DEFINED_HEIGHT_BEGIN
1070
    46
1040
0.0
1000
ACAD_MTEXT_DEFINED_HEIGHT_END
  0
LWPOLYLINE
  5
DC
330
2
100
AcDbEntity
  8
0
 62
     7
100
AcDbPolyline
 90
        3
 70
     1
 43
0.0
 10
-788.5313147587161
 20
261.0901818168182
 10
-785.0229415195148
 20
259.0646215827506
 10
-785.0229415195148
 20
263.1157420508876
  0
HATCH
  5
DD
330
2
100
AcDbEntity
  8
0
 62
     7
100
AcDbHatch
 10
0.0
 20
0.0
 30
0.0
210
0.0
220
0.0
230
1.0
  2
SOLID
 70
     1
 71
     0
 91
        1
 92
        7
 72
     0
 73
     1
 93
        3
 10
-785.022941519512
 20
263.1157420508876
 10
-788.5313147587161
 20
261.0901818168182
 10
-785.0229415195148
 20
259.0646215827506
 97
        0
 75
     0
 76
     1
 47
0.0083924776635338
 98
        1
 10
-785.8025746850797
 20
261.2852351469951
450
        0
451
        0
460
0.0
461
0.0
452
        0
462
0.0
453
        0
470

  0
LINE
  5
DE
330
2
100
AcDbEntity
  8
0
 62
     7
100
AcDbLine
 10
-788.5313147587161
 20
257.8712005075245
 30
0.0
 11
-788.5313147587161
 21
264.3090923777232
 31
0.0
  0
LINE
  5
DF
330
2
100
AcDbEntity
  8
0
 62
     7
100
AcDbLine
 10
-782.1924230851351
 20
261.0901670775707
 30
0.0
 11
-775.1352824102162
 21
261.0901744471935
 31
0.0
  0
LINE
  5
E0
330
2
100
AcDbEntity
  8
0
 62
     7
100
AcDbLine
 10
-791.5884792528551
 20
261.090139073001
 30
0.0
 11
-780.8703384685562
 21
261.0901502657289
 31
0.0
  0
LINE
  5
E1
330
2
100
AcDbEntity
  8
0
 62
     7
100
AcDbLine
 10
-791.5884792528551
 20
261.090139073001
 30
0.0
 11
-796.0056891050196
 21
261.090139073001
 31
0.0
  0
LINE
  5
E2
330
2
100
AcDbEntity
  8
0
 62
     7
100
AcDbLine
 10
-775.1352824102162
 20
261.0901744471935
 30
0.0
 11
-770.8675907985008
 21
261.0901744471935
 31
0.0
  0
LINE
  5
E3
330
2
100
AcDbEntity
  8
0
 62
     7
100
AcDbLine
 10
-785.8388969251834
 20
258.1022044967945
 30
0.0
 11
-786.6702440712636
 21
256.5445763942976
 31
0.0
  0
LINE
  5
E4
330
2
100
AcDbEntity
  8
0
 62
     7
100
AcDbLine
 10
-786.6702440712636
 20
256.5445763942976
 30
0.0
 11
-785.5271414812363
 21
256.5445763942976
 31
0.0
  0
HATCH
  5
E5
330
2
100
AcDbEntity
  8
0
 62
     7
100
AcDbHatch
 10
0.0
 20
0.0
 30
0.0
210
0.0
220
0.0
230
1.0
  2
SOLID
 70
     1
 71
     1
 91
        2
 92
       17
 93
        3
 72
     1
 10
-785.9841318753211
 20
255.3725642159575
 11
-786.3635078058529
 21
255.5637929575301
 72
     1
 10
-786.3635078058529
 20
255.5637929575301
 11
-786.410447163528
 21
255.0907907208762
 72
     1
 10
-786.410447163528
 20
255.0907907208762
 11
-785.9841318753211
 21
255.3725642159575
 97
        3
330
E9
330
E8
330
E7
 92
       33
 93
        1
 72
     1
 10
-785.5271414812363
 20
256.5445763942976
 11
-786.410447163528
 21
255.0907907208762
 97
       10
330
E9
330
E8
330
E7
330
E9
330
E8
330
E7
330
E9
330
E8
330
E7
330
E6
 75
     0
 76
     1
 98
        1
 10
-196.9378529056737
 20
-4245.65988110032
450
        0
451
        0
460
0.0
461
0.0
452
        0
462
0.0
453
        0
470

1001
ACAD
1010
0.0
1020
0.0
1030
0.0
  0
LINE
  5
E6
102
{ACAD_REACTORS
330
E5
102
}
330
2
100
AcDbEntity
  8
0
 62
     7
100
AcDbLine
 10
-785.5271414812363
 20
256.5445763942976
 30
0.0
 11
-786.410447163528
 21
255.0907907208762
 31
0.0
  0
LINE
  5
E7
102
{ACAD_REACTORS
330
E5
102
}
330
2
100
AcDbEntity
  8
0
 62
     7
100
AcDbLine
 10
-786.410447163528
 20
255.0907907208762
 30
0.0
 11
-785.9841318753211
 21
255.3725642159575
 31
0.0
  0
LINE
  5
E8
102
{ACAD_REACTORS
330
E5
102
}
330
2
100
AcDbEntity
  8
0
 62
     7
100
AcDbLine
 10
-786.410447163528
 20
255.0907907208762
 30
0.0
 11
-786.3635078058529
 21
255.5637929575301
 31
0.0
  0
LINE
  5
E9
102
{ACAD_REACTORS
330
E5
102
}
330
2
100
AcDbEntity
  8
0
 62
     7
100
AcDbLine
 10
-785.9841318753211
 20
255.3725642159575
 30
0.0
 11
-786.3635078058529
 21
255.5637929575301
 31
0.0
  0
LINE
  5
EA
330
2
100
AcDbEntity
  8
0
 62
     7
100
AcDbLine
 10
-787.4709013180975
 20
258.1022044967945
 30
0.0
 11
-788.3022484641775
 21
256.5445763942976
 31
0.0
  0
LINE
  5
EB
330
2
100
AcDbEntity
  8
0
 62
     7
100
AcDbLine
 10
-788.3022484641775
 20
256.5445763942976
 30
0.0
 11
-787.1591458741502
 21
256.5445763942976
 31
0.0
  0
HATCH
  5
EC
330
2
100
AcDbEntity
  8
0
 62
     7
100
AcDbHatch
 10
0.0
 20
0.0
 30
0.0
210
0.0
220
0.0
230
1.0
  2
SOLID
 70
     1
 71
     1
 91
        2
 92
       17
 93
        3
 72
     1
 10
-787.6161362682353
 20
255.3725642159575
 11
-787.9955121987671
 21
255.5637929575301
 72
     1
 10
-787.9955121987671
 20
255.5637929575301
 11
-788.0424515564421
 21
255.0907907208762
 72
     1
 10
-788.0424515564421
 20
255.0907907208762
 11
-787.6161362682353
 21
255.3725642159575
 97
        3
330
F0
330
EF
330
EE
 92
       33
 93
        1
 72
     1
 10
-787.1591458741502
 20
256.5445763942976
 11
-788.0424515564421
 21
255.0907907208762
 97
       10
330
F0
330
EF
330
EE
330
F0
330
EF
330
EE
330
F0
330
EF
330
EE
330
ED
 75
     0
 76
     1
 98
        1
 10
-198.5698572985877
 20
-4245.65988110032
450
        0
451
        0
460
0.0
461
0.0
452
        0
462
0.0
453
        0
470

1001
ACAD
1010
0.0
1020
0.0
1030
0.0
  0
LINE
  5
ED
102
{ACAD_REACTORS
330
EC
102
}
330
2
100
AcDbEntity
  8
0
 62
     7
100
AcDbLine
 10
-787.1591458741502
 20
256.5445763942976
 30
0.0
 11
-788.0424515564421
 21
255.0907907208762
 31
0.0
  0
LINE
  5
EE
102
{ACAD_REACTORS
330
EC
102
}
330
2
100
AcDbEntity
  8
0
 62
     7
100
AcDbLine
 10
-788.0424515564421
 20
255.0907907208762
 30
0.0
 11
-787.6161362682353
 21
255.3725642159575
 31
0.0
  0
LINE
  5
EF
102
{ACAD_REACTORS
330
EC
102
}
330
2
100
AcDbEntity
  8
0
 62
     7
100
AcDbLine
 10
-788.0424515564421
 20
255.0907907208762
 30
0.0
 11
-787.9955121987671
 21
255.5637929575301
 31
0.0
  0
LINE
  5
F0
102
{ACAD_REACTORS
330
EC
102
}
330
2
100
AcDbEntity
  8
0
 62
     7
100
AcDbLine
 10
-787.6161362682353
 20
255.3725642159575
 30
0.0
 11
-787.9955121987671
 21
255.5637929575301
 31
0.0
  0
CIRCLE
  5
F1
330
2
100
AcDbEntity
  8
0
  6
Continuous
 62
     7
100
AcDbCircle
 10
-770.3021294263237
 20
261.0901744471935
 30
0.0
 40
0.5654613721764463
  0
CIRCLE
  5
F2
330
2
100
AcDbEntity
  8
0
  6
Continuous
 62
     7
100
AcDbCircle
 10
-796.5711504771961
 20
261.090139073001
 30
0.0
 40
0.5654613721764463
  0
TEXT
  5
F3
330
2
100
AcDbEntity
  8
0
  6
Continuous
 62
     7
100
AcDbText
 10
-899.0117517213537
 20
110.2942441473351
 30
0.0
 40
3.799999999999998
  1
Bot. view
  7
SIMPLEX
100
AcDbText
1001
ACAD
1000
ACAD_MTEXT_DEFINED_HEIGHT_BEGIN
1070
    46
1040
0.0
1000
ACAD_MTEXT_DEFINED_HEIGHT_END
  0
LINE
  5
F4
330
2
100
AcDbEntity
  8
0
  6
Continuous
 62
     7
100
AcDbLine
 10
-900.7425472336787
 20
108.5081097371049
 30
0.0
 11
-871.6217528464936
 21
108.5081097371049
 31
0.0
  0
LINE
  5
F5
330
2
100
AcDbEntity
  8
0
  6
Continuous
 62
     7
100
AcDbLine
 10
-900.7425472336787
 20
107.3249987101636
 30
0.0
 11
-871.6217528464936
 21
107.3249987101636
 31
0.0
  0
TEXT
  5
F6
330
2
100
AcDbEntity
  8
0
  6
Continuous
 62
     7
100
AcDbText
 10
-808.7991777470817
 20
111.2606443322584
 30
0.0
 40
3.799999999999998
  1
Soldering patterns 
  7
SIMPLEX
100
AcDbText
1001
ACAD
1000
ACAD_MTEXT_DEFINED_HEIGHT_BEGIN
1070
    46
1040
0.0
1000
ACAD_MTEXT_DEFINED_HEIGHT_END
  0
LINE
  5
F7
330
2
100
AcDbEntity
  8
0
  6
Continuous
 62
     7
100
AcDbLine
 10
-809.1295509999982
 20
108.9429486464624
 30
0.0
 11
-755.5396705737003
 21
108.9429486464624
 31
0.0
  0
LINE
  5
F8
330
2
100
AcDbEntity
  8
0
  6
Continuous
 62
     7
100
AcDbLine
 10
-809.1295509999982
 20
107.7598376195211
 30
0.0
 11
-755.5396705737003
 21
107.7598376195211
 31
0.0
  0
TEXT
  5
F9
330
2
100
AcDbEntity
  8
0
  6
Continuous
 62
     7
100
AcDbText
 10
-794.0869049391105
 20
236.3378468935922
 30
0.0
 40
3.799999999999998
  1
Polarity
  7
SIMPLEX
100
AcDbText
1001
ACAD
1000
ACAD_MTEXT_DEFINED_HEIGHT_BEGIN
1070
    46
1040
0.0
1000
ACAD_MTEXT_DEFINED_HEIGHT_END
  0
LINE
  5
FA
330
2
100
AcDbEntity
  8
0
  6
Continuous
 62
     7
100
AcDbLine
 10
-795.5160858383963
 20
234.5517124833619
 30
0.0
 11
-772.4962050217067
 21
234.5517124833619
 31
0.0
  0
LINE
  5
FB
330
2
100
AcDbEntity
  8
0
  6
Continuous
 62
     7
100
AcDbLine
 10
-795.5160858383963
 20
233.3686014564205
 30
0.0
 11
-772.4962050217067
 21
233.3686014564205
 31
0.0
  0
TEXT
  5
FC
330
2
100
AcDbEntity
  8
0
 62
     7
100
AcDbText
 10
-925.8201331737735
 20
250.071470340707
 30
0.0
 40
1.555199999999999
  1
1
  7
SIMPLEX
 72
     4
 11
-925.6349903166308
 21
250.849070340707
 31
0.0
100
AcDbText
  0
CIRCLE
  5
FD
330
2
100
AcDbEntity
  8
0
 62
     7
100
AcDbCircle
 10
-925.6349903166308
 20
250.849070340707
 30
0.0
 40
1.851963522897089
  0
TEXT
  5
FE
330
2
100
AcDbEntity
  8
0
 62
     7
100
AcDbText
 10
-847.9377549659094
 20
250.0504554623548
 30
0.0
 40
1.555199999999999
  1
2
  7
SIMPLEX
 72
     4
 11
-847.4193549659094
 21
250.8280554623548
 31
0.0
100
AcDbText
  0
CIRCLE
  5
FF
330
2
100
AcDbEntity
  8
0
 62
     7
100
AcDbCircle
 10
-847.4193549659094
 20
250.8280554623548
 30
0.0
 40
1.851963522897089
  0
TEXT
  5
100
330
2
100
AcDbEntity
  8
DIM
 62
     7
100
AcDbText
 10
-936.4617893001966
 20
246.2417127735894
 30
0.0
 40
2.5
  1
Cathode
  7
STYLE3
100
AcDbText
1001
ACAD
1000
ACAD_MTEXT_DEFINED_HEIGHT_BEGIN
1070
    46
1040
0.0
1000
ACAD_MTEXT_DEFINED_HEIGHT_END
  0
LWPOLYLINE
  5
101
330
2
100
AcDbEntity
  8
0
 62
     7
100
AcDbPolyline
 90
        3
 70
     1
 43
0.0
 10
-780.8703384685562
 20
261.0901818168182
 10
-777.3619652293548
 20
259.0646215827506
 10
-777.3619652293548
 20
263.1157420508876
  0
HATCH
  5
102
330
2
100
AcDbEntity
  8
0
 62
     7
100
AcDbHatch
 10
0.0
 20
0.0
 30
0.0
210
0.0
220
0.0
230
1.0
  2
SOLID
 70
     1
 71
     0
 91
        1
 92
        7
 72
     0
 73
     1
 93
        3
 10
-777.3619652293522
 20
263.1157420508876
 10
-780.8703384685562
 20
261.0901818168182
 10
-777.3619652293548
 20
259.0646215827506
 97
        0
 75
     0
 76
     1
 47
0.0083924776635338
 98
        1
 10
-778.1415983949199
 20
261.2852351469951
450
        0
451
        0
460
0.0
461
0.0
452
        0
462
0.0
453
        0
470

  0
LINE
  5
103
330
2
100
AcDbEntity
  8
0
 62
     7
100
AcDbLine
 10
-780.8703384685562
 20
257.8712005075245
 30
0.0
 11
-780.8703384685562
 21
264.3090923777232
 31
0.0
  0
LINE
  5
104
330
2
100
AcDbEntity
  8
0
 62
     7
100
AcDbLine
 10
-778.1779206350236
 20
258.1022044967945
 30
0.0
 11
-779.0092677811038
 21
256.5445763942976
 31
0.0
  0
LINE
  5
105
330
2
100
AcDbEntity
  8
0
 62
     7
100
AcDbLine
 10
-779.0092677811038
 20
256.5445763942976
 30
0.0
 11
-777.8661651910762
 21
256.5445763942976
 31
0.0
  0
HATCH
  5
106
330
2
100
AcDbEntity
  8
0
 62
     7
100
AcDbHatch
 10
0.0
 20
0.0
 30
0.0
210
0.0
220
0.0
230
1.0
  2
SOLID
 70
     1
 71
     1
 91
        2
 92
       17
 93
        3
 72
     1
 10
-778.3231555851614
 20
255.3725642159575
 11
-778.7025315156932
 21
255.5637929575301
 72
     1
 10
-778.7025315156932
 20
255.5637929575301
 11
-778.7494708733682
 21
255.0907907208762
 72
     1
 10
-778.7494708733682
 20
255.0907907208762
 11
-778.3231555851614
 21
255.3725642159575
 97
        3
330
10A
330
109
330
108
 92
       33
 93
        1
 72
     1
 10
-777.8661651910762
 20
256.5445763942976
 11
-778.7494708733682
 21
255.0907907208762
 97
       10
330
10A
330
109
330
108
330
10A
330
109
330
108
330
10A
330
109
330
108
330
107
 75
     0
 76
     1
 98
        1
 10
-189.2768766155138
 20
-4245.65988110032
450
        0
451
        0
460
0.0
461
0.0
452
        0
462
0.0
453
        0
470

1001
ACAD
1010
0.0
1020
0.0
1030
0.0
  0
LINE
  5
107
102
{ACAD_REACTORS
330
106
102
}
330
2
100
AcDbEntity
  8
0
 62
     7
100
AcDbLine
 10
-777.8661651910762
 20
256.5445763942976
 30
0.0
 11
-778.7494708733682
 21
255.0907907208762
 31
0.0
  0
LINE
  5
108
102
{ACAD_REACTORS
330
106
102
}
330
2
100
AcDbEntity
  8
0
 62
     7
100
AcDbLine
 10
-778.7494708733682
 20
255.0907907208762
 30
0.0
 11
-778.3231555851614
 21
255.3725642159575
 31
0.0
  0
LINE
  5
109
102
{ACAD_REACTORS
330
106
102
}
330
2
100
AcDbEntity
  8
0
 62
     7
100
AcDbLine
 10
-778.7494708733682
 20
255.0907907208762
 30
0.0
 11
-778.7025315156932
 21
255.5637929575301
 31
0.0
  0
LINE
  5
10A
102
{ACAD_REACTORS
330
106
102
}
330
2
100
AcDbEntity
  8
0
 62
     7
100
AcDbLine
 10
-778.3231555851614
 20
255.3725642159575
 30
0.0
 11
-778.7025315156932
 21
255.5637929575301
 31
0.0
  0
LINE
  5
10B
330
2
100
AcDbEntity
  8
0
 62
     7
100
AcDbLine
 10
-779.8099250279376
 20
258.1022044967945
 30
0.0
 11
-780.6412721740177
 21
256.5445763942976
 31
0.0
  0
LINE
  5
10C
330
2
100
AcDbEntity
  8
0
 62
     7
100
AcDbLine
 10
-780.6412721740177
 20
256.5445763942976
 30
0.0
 11
-779.4981695839903
 21
256.5445763942976
 31
0.0
  0
HATCH
  5
10D
330
2
100
AcDbEntity
  8
0
 62
     7
100
AcDbHatch
 10
0.0
 20
0.0
 30
0.0
210
0.0
220
0.0
230
1.0
  2
SOLID
 70
     1
 71
     1
 91
        2
 92
       17
 93
        3
 72
     1
 10
-779.9551599780754
 20
255.3725642159575
 11
-780.3345359086072
 21
255.5637929575301
 72
     1
 10
-780.3345359086072
 20
255.5637929575301
 11
-780.3814752662822
 21
255.0907907208762
 72
     1
 10
-780.3814752662822
 20
255.0907907208762
 11
-779.9551599780754
 21
255.3725642159575
 97
        3
330
111
330
110
330
10F
 92
       33
 93
        1
 72
     1
 10
-779.4981695839903
 20
256.5445763942976
 11
-780.3814752662822
 21
255.0907907208762
 97
       10
330
111
330
110
330
10F
330
111
330
110
330
10F
330
111
330
110
330
10F
330
10E
 75
     0
 76
     1
 98
        1
 10
-190.9088810084279
 20
-4245.65988110032
450
        0
451
        0
460
0.0
461
0.0
452
        0
462
0.0
453
        0
470

1001
ACAD
1010
0.0
1020
0.0
1030
0.0
  0
LINE
  5
10E
102
{ACAD_REACTORS
330
10D
102
}
330
2
100
AcDbEntity
  8
0
 62
     7
100
AcDbLine
 10
-779.4981695839903
 20
256.5445763942976
 30
0.0
 11
-780.3814752662822
 21
255.0907907208762
 31
0.0
  0
LINE
  5
10F
102
{ACAD_REACTORS
330
10D
102
}
330
2
100
AcDbEntity
  8
0
 62
     7
100
AcDbLine
 10
-780.3814752662822
 20
255.0907907208762
 30
0.0
 11
-779.9551599780754
 21
255.3725642159575
 31
0.0
  0
LINE
  5
110
102
{ACAD_REACTORS
330
10D
102
}
330
2
100
AcDbEntity
  8
0
 62
     7
100
AcDbLine
 10
-780.3814752662822
 20
255.0907907208762
 30
0.0
 11
-780.3345359086072
 21
255.5637929575301
 31
0.0
  0
LINE
  5
111
102
{ACAD_REACTORS
330
10D
102
}
330
2
100
AcDbEntity
  8
0
 62
     7
100
AcDbLine
 10
-779.9551599780754
 20
255.3725642159575
 30
0.0
 11
-780.3345359086072
 21
255.5637929575301
 31
0.0
  0
LINE
  5
112
330
2
100
AcDbEntity
  8
0
 62
     7
100
AcDbLine
 10
-921.201827909226
 20
273.3695290078854
 30
0.0
 11
-921.201827909226
 21
253.3695290078854
 31
0.0
  0
LINE
  5
113
330
2
100
AcDbEntity
  8
0
 62
     7
100
AcDbLine
 10
-921.201827909226
 20
253.3695290078854
 30
0.0
 11
-851.2018279092259
 21
253.3695290078854
 31
0.0
  0
LINE
  5
114
330
2
100
AcDbEntity
  8
0
 62
     7
100
AcDbLine
 10
-851.2018279092259
 20
253.3695290078854
 30
0.0
 11
-851.2018279092259
 21
273.3695290078854
 31
0.0
  0
LINE
  5
115
330
2
100
AcDbEntity
  8
0
 62
     7
100
AcDbLine
 10
-851.2018279092259
 20
273.3695290078854
 30
0.0
 11
-921.201827909226
 21
273.3695290078854
 31
0.0
  0
TEXT
  5
116
330
2
100
AcDbEntity
  8
0
  6
ByBlock
 62
     7
100
AcDbText
 10
-869.8218280959556
 20
300.91152728712
 30
0.0
 40
6.0
  1
7020 option A
100
AcDbText
1001
ACAD
1000
ACAD_MTEXT_DEFINED_HEIGHT_BEGIN
1070
    46
1040
0.0
1000
ACAD_MTEXT_DEFINED_HEIGHT_END
  0
HATCH
  5
117
330
2
100
AcDbEntity
  8
0
  6
ByBlock
100
AcDbHatch
 10
0.0
 20
0.0
 30
0.0
210
0.0
220
0.0
230
1.0
  2
ANSI31
 70
     0
 71
     1
 91
        6
 92
        7
 72
     1
 73
     1
 93
        5
 10
-916.2018279092253
 20
150.5121174028098
 42
0.4142135623726733
 10
-917.7018279092253
 20
149.012117402812
 42
0.0
 10
-917.7018279092253
 20
144.5121174028127
 42
0.0
 10
-886.201827909227
 20
144.5121174028127
 42
0.0
 10
-886.201827909227
 20
150.5121174028098
 42
0.0
 97
        5
330
1C4
330
1CB
330
1CA
330
119
330
118
 92
        7
 72
     1
 73
     1
 93
        5
 10
-917.7018279092189
 20
144.5121174028127
 42
0.0
 10
-917.7018279092253
 20
140.0121174028051
 42
0.4142135623735657
 10
-916.2018279092251
 20
138.5121174028029
 42
0.0
 10
-886.201827909227
 20
138.5121174028066
 42
0.0
 10
-886.201827909227
 20
144.5121174028127
 42
0.0
 97
        5
330
119
330
1CA
330
1CD
330
1CC
330
118
 92
        7
 72
     1
 73
     1
 93
        5
 10
-886.201827909227
 20
150.5121174028098
 42
0.0
 10
-886.201827909227
 20
144.5121174028127
 42
0.0
 10
-874.2018279092269
 20
144.5121174028127
 42
0.0
 10
-874.2018279092288
 20
149.512117402808
 42
0.4142135623730951
 10
-875.2018279092288
 20
150.512117402808
 42
0.0
 97
        5
330
1CE
330
1C4
330
118
330
119
330
1CF
 92
        7
 72
     1
 73
     1
 93
        5
 10
-886.201827909227
 20
144.5121174028127
 42
0.0
 10
-886.201827909227
 20
138.5121174028061
 42
0.0
 10
-875.2018279092252
 20
138.512117402808
 42
0.414213562373046
 10
-874.2018279092253
 20
139.512117402808
 42
0.0
 10
-874.2018279092262
 20
144.5121174028127
 42
0.0
 97
        5
330
119
330
118
330
1CC
330
1D0
330
1CF
 92
        7
 72
     1
 73
     1
 93
        6
 10
-865.7018279092291
 20
150.5121174028061
 42
0.4142135623729785
 10
-866.7018279092287
 20
149.512117402806
 42
0.0
 10
-866.701827909228
 20
144.5121174028127
 42
0.0
 10
-854.7018279092288
 20
144.5121174028127
 42
0.0
 10
-854.7018279092288
 20
149.5121174028104
 42
0.4142135623732115
 10
-855.7018279092291
 20
150.5121174028104
 42
0.0
 97
        6
330
1D2
330
1C8
330
1C9
330
1D3
330
119
330
1D1
 92
        7
 72
     1
 73
     1
 93
        6
 10
-855.7018279092304
 20
138.5121174028039
 42
0.4142135623735465
 10
-854.7018279092288
 20
139.5121174028039
 42
0.0
 10
-854.7018279092288
 20
144.5121174028127
 42
0.0
 10
-866.7018279092271
 20
144.5121174028127
 42
0.0
 10
-866.7018279092287
 20
139.5121174028195
 42
0.4142135623726437
 10
-865.7018279092303
 20
138.5121174028195
 42
0.0
 97
        6
330
119
330
1D3
330
1C7
330
1C5
330
1C6
330
1D1
 75
     0
 76
     1
 52
0.0
 41
0.5
 77
     0
 78
     1
 53
45.0
 43
-29.85413785700984
 44
221.283245639761
 45
-1.122532015133643
 46
1.122532015133643
 79
     0
 47
0.1970393050878403
 98
        6
 10
-898.1001351111697
 20
148.4572674130681
 10
-896.1283634321763
 20
142.15201073457
 10
-878.1852473958814
 20
148.2602290630748
 10
-878.1852473958814
 20
142.7431284644331
 10
-863.7913172605022
 20
147.8661496832051
 10
-860.6364836145367
 20
140.7727342449689
1001
ACAD
1010
0.0
1020
0.0
1030
0.0
  0
LINE
  5
118
102
{ACAD_REACTORS
330
117
102
}
330
2
100
AcDbEntity
  8
CEN
 62
     7
100
AcDbLine
 10
-886.201827909227
 20
157.8621174012106
 30
0.0
 11
-886.201827909227
 21
131.1621174044149
 31
0.0
  0
LINE
  5
119
102
{ACAD_REACTORS
330
117
102
}
330
2
100
AcDbEntity
  8
CEN
 62
     7
100
AcDbLine
 10
-923.2018279056264
 20
144.5121174028127
 30
0.0
 11
-849.2018279128277
 21
144.5121174028127
 31
0.0
  0
DIMENSION
  5
11A
330
2
100
AcDbEntity
  8
DIM
 62
     7
100
AcDbDimension
280
     0
  2
*D7
 10
-932.8141022562766
 20
134.5121174028127
 30
0.0
 11
-932.8141022562766
 21
144.5121174028127
 31
0.0
 70
   128
 71
     5
 42
2.0
 73
     0
 74
     0
 75
     0
  3
ISO-25
100
AcDbAlignedDimension
 13
-921.2018279092273
 23
154.5121174028127
 33
0.0
 14
-921.2018279092273
 24
134.5121174028127
 34
0.0
 50
90.0
100
AcDbRotatedDimension
1001
ACAD
1000
DSTYLE
1002
{
1070
    41
1040
2.0
1070
    42
1040
1.0
1070
    44
1040
1.0
1070
    77
1070
     0
1070
   140
1040
2.799999999999998
1070
   144
1040
0.1
1070
   147
1040
1.0
1070
   173
1070
     1
1070
   271
1070
     3
1070
   278
1070
    46
1070
   340
1005
9D
1070
   343
1005
95
1070
   344
1005
95
1002
}
  0
LINE
  5
128
330
2
100
AcDbEntity
  8
CEN
 62
     7
100
AcDbLine
 10
-782.6237063016101
 20
157.8621174012106
 30
0.0
 11
-782.6237063016101
 21
131.1621174044149
 31
0.0
  0
LINE
  5
129
330
2
100
AcDbEntity
  8
CEN
 62
     7
100
AcDbLine
 10
-827.6237062980094
 20
144.5121174028127
 30
0.0
 11
-737.6237063052107
 21
144.5121174028127
 31
0.0
  0
LINE
  5
12A
330
2
100
AcDbEntity
  8
0
 62
     7
100
AcDbLine
 10
-822.6237063016101
 20
142.5121174028127
 30
0.0
 11
-814.1237063016047
 21
142.5121174028127
 31
0.0
  0
LINE
  5
12B
330
2
100
AcDbEntity
  8
0
 62
     7
100
AcDbLine
 10
-822.6237063016101
 20
146.5121174028127
 30
0.0
 11
-814.1237063015989
 21
146.5121174028127
 31
0.0
  0
TEXT
  5
12C
330
2
100
AcDbEntity
  8
DIM
 62
     7
100
AcDbText
 10
-933.9413025050502
 20
123.8493247716215
 30
0.0
 40
2.5
  1
Cathode
  7
STYLE3
100
AcDbText
1001
ACAD
1000
ACAD_MTEXT_DEFINED_HEIGHT_BEGIN
1070
    46
1040
0.0
1000
ACAD_MTEXT_DEFINED_HEIGHT_END
  0
LEADER
  5
12D
330
2
100
AcDbEntity
  8
DIM
 62
     7
100
AcDbLeader
  3
ISO-25
 76
     3
 10
-914.9518279092253
 20
143.2621174028125
 30
0.0
 10
-920.5798200278888
 20
122.8800588686209
 30
0.0
 10
-933.3236333875708
 20
122.8800588686209
 30
0.0
211
-1.0
221
0.0
231
0.0
213
0.0
223
-0.5
233
0.0
1001
ACAD
1000
DSTYLE
1002
{
1070
    41
1040
2.0
1070
    42
1040
1.0
1070
    44
1040
1.0
1070
    77
1070
     0
1070
   140
1040
2.799999999999998
1070
   144
1040
0.08
1070
   147
1040
1.0
1070
   173
1070
     1
1070
   271
1070
     8
1070
   278
1070
    46
1070
   340
1005
9D
1070
   343
1005
95
1070
   344
1005
95
1002
}
  0
DIMENSION
  5
12E
330
2
100
AcDbEntity
  8
DIM
 62
     7
100
AcDbDimension
280
     0
  2
*D8
 10
-854.7018279092288
 20
122.3378659907455
 30
0.0
 11
-845.1064663812616
 21
122.3378659907455
 31
0.0
 70
   128
 71
     5
 42
1.199999999999999
 73
     0
 74
     0
 75
     0
  3
ISO-25
100
AcDbAlignedDimension
 13
-866.7018279092287
 23
139.5121174028195
 33
0.0
 14
-854.7018279092288
 24
139.5121174028039
 34
0.0
100
AcDbRotatedDimension
1001
ACAD
1000
DSTYLE
1002
{
1070
    41
1040
2.0
1070
    42
1040
1.0
1070
    44
1040
1.0
1070
    77
1070
     0
1070
   140
1040
2.799999999999998
1070
   144
1040
0.1
1070
   147
1040
1.0
1070
   173
1070
     1
1070
   271
1070
     3
1070
   278
1070
    46
1070
   340
1005
9D
1070
   343
1005
95
1070
   344
1005
95
1002
}
  0
DIMENSION
  5
13C
330
2
100
AcDbEntity
  8
DIM
 62
     7
100
AcDbDimension
280
     0
  2
*D9
 10
-874.2018279092253
 20
122.3378659907455
 30
0.0
 11
-880.8488947577927
 21
122.3378659907455
 31
0.0
 70
   128
 71
     5
 42
0.7499999999996363
 73
     0
 74
     0
 75
     0
  3
ISO-25
100
AcDbAlignedDimension
 13
-866.7018279092287
 23
139.5121174028195
 33
0.0
 14
-874.2018279092253
 24
139.512117402808
 34
0.0
100
AcDbRotatedDimension
1001
ACAD
1000
DSTYLE
1002
{
1070
    41
1040
2.0
1070
    42
1040
1.0
1070
    44
1040
1.0
1070
    77
1070
     0
1070
   140
1040
2.799999999999998
1070
   144
1040
0.1
1070
   147
1040
1.0
1070
   173
1070
     1
1070
   271
1070
     3
1070
   278
1070
    46
1070
   340
1005
9D
1070
   343
1005
95
1070
   344
1005
95
1002
}
  0
LINE
  5
14A
330
2
100
AcDbEntity
  8
0
  6
DOT2
 62
     7
 48
5.0
100
AcDbLine
 10
-817.6237063016101
 20
134.5121174028127
 30
0.0
 11
-817.6237063016101
 21
154.5121174028127
 31
0.0
  0
LINE
  5
14C
330
2
100
AcDbEntity
  8
0
 62
     7
100
AcDbLine
 10
-822.6237063016101
 20
142.5121174028127
 30
0.0
 11
-822.6237063016101
 21
146.5121174028127
 31
0.0
  0
LINE
  5
14D
330
2
100
AcDbEntity
  8
0
  6
DOT2
 62
     7
 48
5.0
100
AcDbLine
 10
-817.6237063016101
 20
154.5121174028127
 30
0.0
 11
-747.6237063016101
 21
154.5121174028127
 31
0.0
  0
LINE
  5
14E
330
2
100
AcDbEntity
  8
0
  6
DOT2
 62
     7
 48
5.0
100
AcDbLine
 10
-747.6237063016101
 20
154.5121174028127
 30
0.0
 11
-747.6237063016101
 21
134.5121174028127
 31
0.0
  0
LINE
  5
14F
330
2
100
AcDbEntity
  8
0
  6
DOT2
 62
     7
 48
5.0
100
AcDbLine
 10
-747.6237063016101
 20
134.5121174028127
 30
0.0
 11
-817.6237063016101
 21
134.5121174028127
 31
0.0
  0
DIMENSION
  5
150
330
2
100
AcDbEntity
  8
DIM
 62
     7
100
AcDbDimension
280
     0
  2
*D10
 10
-832.4292856315942
 20
134.5121174028127
 30
0.0
 11
-832.4292856315942
 21
144.5121174028127
 31
0.0
 70
   128
 71
     5
 42
2.000000000000909
 73
     0
 74
     0
 75
     0
  3
ISO-25
100
AcDbAlignedDimension
 13
-817.6237063016101
 23
154.5121174028218
 33
0.0
 14
-817.6237063016101
 24
134.5121174028127
 34
0.0
 50
90.0
100
AcDbRotatedDimension
1001
ACAD
1000
DSTYLE
1002
{
1070
    41
1040
2.0
1070
    42
1040
1.0
1070
    44
1040
1.0
1070
    77
1070
     0
1070
   140
1040
2.799999999999998
1070
   144
1040
0.1
1070
   147
1040
1.0
1070
   173
1070
     1
1070
   271
1070
     3
1070
   278
1070
    46
1070
   340
1005
9D
1070
   343
1005
95
1070
   344
1005
95
1002
}
  0
DIMENSION
  5
15E
330
2
100
AcDbEntity
  8
DIM
 62
     7
100
AcDbDimension
280
     0
  2
*D11
 10
-814.1237063015955
 20
169.9131097861619
 30
0.0
 11
-789.9475873063931
 21
169.9131097861619
 31
0.0
 70
   128
  1
<>
 71
     5
 42
5.099999999998363
 73
     0
 74
     0
 75
     0
  3
ISO-25
100
AcDbAlignedDimension
 13
-763.1237063016119
 23
149.5121174028061
 33
0.0
 14
-814.1237063015955
 24
149.0121174028119
 34
0.0
100
AcDbRotatedDimension
1001
ACAD
1000
DSTYLE
1002
{
1070
    41
1040
2.0
1070
    42
1040
1.0
1070
    44
1040
1.0
1070
    77
1070
     0
1070
   140
1040
2.799999999999998
1070
   144
1040
0.1
1070
   147
1040
1.0
1070
   173
1070
     1
1070
   271
1070
     3
1070
   278
1070
    46
1070
   340
1005
9D
1070
   343
1005
95
1070
   344
1005
95
1002
}
  0
DIMENSION
  5
16C
330
2
100
AcDbEntity
  8
DIM
 62
     7
100
AcDbDimension
280
     0
  2
*D12
 10
-817.6237063016101
 20
169.9131097861619
 30
0.0
 11
-826.2707731501777
 21
169.9131097861619
 31
0.0
 70
   128
  1
<>
 71
     5
 42
0.3500000000014552
 73
     0
 74
     0
 75
     0
  3
ISO-25
100
AcDbAlignedDimension
 13
-814.1237063015955
 23
149.0121174028119
 33
0.0
 14
-817.6237063016101
 24
154.5121174028218
 34
0.0
100
AcDbRotatedDimension
1001
ACAD
1000
DSTYLE
1002
{
1070
    41
1040
2.0
1070
    42
1040
1.0
1070
    44
1040
1.0
1070
    77
1070
     0
1070
   140
1040
2.799999999999998
1070
   144
1040
0.1
1070
   147
1040
1.0
1070
   173
1070
     1
1070
   271
1070
     3
1070
   278
1070
    46
1070
   340
1005
9D
1070
   343
1005
95
1070
   344
1005
95
1002
}
  0
DIMENSION
  5
17B
330
2
100
AcDbEntity
  8
DIM
 62
     7
100
AcDbDimension
280
     0
  2
*D13
 10
-747.6237063016101
 20
164.8110483327689
 30
0.0
 11
-738.9766394530425
 21
164.8110483327689
 31
0.0
 70
   128
 71
     5
 42
0.3500000000001819
 73
     0
 74
     0
 75
     0
  3
ISO-25
100
AcDbAlignedDimension
 13
-751.1237063016119
 23
149.5121174028104
 33
0.0
 14
-747.6237063016101
 24
154.5121174028164
 34
0.0
100
AcDbRotatedDimension
1001
ACAD
1000
DSTYLE
1002
{
1070
    41
1040
2.0
1070
    42
1040
1.0
1070
    44
1040
1.0
1070
    77
1070
     0
1070
   140
1040
2.799999999999998
1070
   144
1040
0.1
1070
   147
1040
1.0
1070
   173
1070
     1
1070
   271
1070
     3
1070
   278
1070
    46
1070
   340
1005
9D
1070
   343
1005
95
1070
   344
1005
95
1002
}
  0
DIMENSION
  5
18A
330
2
100
AcDbEntity
  8
DIM
 62
     7
100
AcDbDimension
280
     0
  2
*D14
 10
-734.6752036940661
 20
154.5121174028127
 30
0.0
 11
-734.6752036940661
 21
144.5121174028135
 31
0.0
 70
   128
 71
     5
 42
2.000000000000181
 73
     0
 74
     0
 75
     0
  3
ISO-25
100
AcDbAlignedDimension
 13
-747.6237063016101
 23
134.5121174028109
 33
0.0
 14
-747.6237063016101
 24
154.5121174028127
 34
0.0
 50
90.0
100
AcDbRotatedDimension
1001
ACAD
1000
DSTYLE
1002
{
1070
    41
1040
2.0
1070
    42
1040
1.0
1070
    44
1040
1.0
1070
    77
1070
     0
1070
   140
1040
2.799999999999998
1070
   144
1040
0.1
1070
   147
1040
1.0
1070
   173
1070
     1
1070
   271
1070
     3
1070
   278
1070
    46
1070
   340
1005
9D
1070
   343
1005
95
1070
   344
1005
95
1002
}
  0
DIMENSION
  5
198
330
2
100
AcDbEntity
  8
DIM
 62
     7
100
AcDbDimension
280
     0
  2
*D15
 10
-770.6237063016101
 20
164.8344169252164
 30
0.0
 11
-782.0306566833757
 21
164.8344169252164
 31
0.0
 70
   128
 71
     5
 42
0.7499999999998181
 73
     0
 74
     0
 75
     0
  3
ISO-25
100
AcDbAlignedDimension
 13
-763.1237063016119
 23
149.5121174028061
 33
0.0
 14
-770.6237063016101
 24
149.512117402808
 34
0.0
100
AcDbRotatedDimension
1001
ACAD
1000
DSTYLE
1002
{
1070
    41
1040
2.0
1070
    42
1040
1.0
1070
    44
1040
1.0
1070
    77
1070
     0
1070
   140
1040
2.799999999999998
1070
   144
1040
0.1
1070
   147
1040
1.0
1070
   173
1070
     1
1070
   271
1070
     3
1070
   278
1070
    46
1070
   340
1005
9D
1070
   343
1005
95
1070
   344
1005
95
1002
}
  0
DIMENSION
  5
1A6
330
2
100
AcDbEntity
  8
DIM
 62
     7
100
AcDbDimension
280
     0
  2
*D16
 10
-763.1237063016119
 20
169.9131097861619
 30
0.0
 11
-744.5283447736438
 21
169.9131097861619
 31
0.0
 70
   128
  1
<>
 71
     5
 42
1.199999999999999
 73
     0
 74
     0
 75
     0
  3
ISO-25
100
AcDbAlignedDimension
 13
-751.1237063016119
 23
149.5121174028104
 33
0.0
 14
-763.1237063016119
 24
149.5121174028061
 34
0.0
100
AcDbRotatedDimension
1001
ACAD
1000
DSTYLE
1002
{
1070
    41
1040
2.0
1070
    42
1040
1.0
1070
    44
1040
1.0
1070
    77
1070
     0
1070
   140
1040
2.799999999999998
1070
   144
1040
0.1
1070
   147
1040
1.0
1070
   173
1070
     1
1070
   271
1070
     3
1070
   278
1070
    46
1070
   340
1005
9D
1070
   343
1005
95
1070
   344
1005
95
1002
}
  0
LINE
  5
1B4
330
2
100
AcDbEntity
  8
0
 62
     7
100
AcDbLine
 10
-853.7018279092253
 20
267.369529007882
 30
0.0
 11
-853.701827909226
 21
259.3695290078875
 31
0.0
  0
ARC
  5
1B5
330
2
100
AcDbEntity
  8
0
 62
     7
100
AcDbCircle
 10
-857.2018279092262
 20
267.369529007882
 30
0.0
 40
3.5
100
AcDbArc
 50
0.0
 51
90.0
  0
LINE
  5
1B6
330
2
100
AcDbEntity
  8
0
 62
     7
100
AcDbLine
 10
-857.2018279092262
 20
255.8695290078875
 30
0.0
 11
-915.2018279092262
 21
255.8695290078858
 31
0.0
  0
ARC
  5
1B7
330
2
100
AcDbEntity
  8
0
 62
     7
100
AcDbCircle
 10
-915.2018279092272
 20
259.3695290078839
 30
0.0
 40
3.5
100
AcDbArc
 50
179.9999999999902
 51
270.0000000000065
  0
ARC
  5
1B8
330
2
100
AcDbEntity
  8
0
 62
     7
100
AcDbCircle
 10
-857.2018279092262
 20
259.3695290078875
 30
0.0
 40
3.5
100
AcDbArc
 50
270.0000000000065
 51
0.0
  0
LINE
  5
1B9
330
2
100
AcDbEntity
  8
0
 62
     7
100
AcDbLine
 10
-918.7018279092272
 20
259.3695290078839
 30
0.0
 11
-918.7018279092253
 21
265.7482086643167
 31
0.0
  0
ARC
  5
1BA
330
2
100
AcDbEntity
  8
0
 62
     7
100
AcDbCircle
 10
-917.2018279092259
 20
265.7482086643167
 30
0.0
 40
1.5
100
AcDbArc
 50
134.9999999999633
 51
179.9999999999902
  0
LINE
  5
1BB
330
2
100
AcDbEntity
  8
0
 62
     7
100
AcDbLine
 10
-914.6411677374434
 20
270.4301891796539
 30
0.0
 11
-918.2624880810053
 21
266.8088688360976
 31
0.0
  0
ARC
  5
1BC
330
2
100
AcDbEntity
  8
0
 62
     7
100
AcDbCircle
 10
-913.5805075656643
 20
269.3695290078748
 30
0.0
 40
1.5
100
AcDbArc
 50
90.0
 51
134.9999999999909
  0
LINE
  5
1BD
330
2
100
AcDbEntity
  8
0
 62
     7
100
AcDbLine
 10
-913.5805075656643
 20
270.8695290078767
 30
0.0
 11
-857.2018279092262
 21
270.8695290078801
 31
0.0
  0
TEXT
  5
1BE
330
2
100
AcDbEntity
  8
0
  6
Continuous
 62
     7
100
AcDbText
 10
-798.3484720495013
 20
101.1944649287994
 30
0.0
 40
3.799999999999998
  1
front view 
  7
SIMPLEX
100
AcDbText
1001
ACAD
1000
ACAD_MTEXT_DEFINED_HEIGHT_BEGIN
1070
    46
1040
0.0
1000
ACAD_MTEXT_DEFINED_HEIGHT_END
  0
LINE
  5
1BF
330
2
100
AcDbEntity
  8
CEN
 62
     7
100
AcDbLine
 10
-782.5676071782692
 20
193.6791176342356
 30
0.0
 11
-782.5676071782687
 21
211.6791178686961
 31
0.0
  0
LINE
  5
1C0
330
2
100
AcDbEntity
  8
0
 62
     7
100
AcDbLine
 10
-851.201827909227
 20
134.5121174028127
 30
0.0
 11
-851.201827909227
 21
154.5121174028127
 31
0.0
  0
LINE
  5
1C1
102
{ACAD_REACTORS
330
1EB
102
}
330
2
100
AcDbEntity
  8
0
 62
     7
100
AcDbLine
 10
-851.201827909227
 20
154.5121174028127
 30
0.0
 11
-921.2018279092273
 21
154.5121174028127
 31
0.0
  0
LINE
  5
1C2
330
2
100
AcDbEntity
  8
0
 62
     7
100
AcDbLine
 10
-921.2018279092273
 20
154.5121174028127
 30
0.0
 11
-921.2018279092273
 21
134.5121174028127
 31
0.0
  0
LINE
  5
1C3
330
2
100
AcDbEntity
  8
0
 62
     7
100
AcDbLine
 10
-921.2018279092273
 20
134.5121174028127
 30
0.0
 11
-851.201827909227
 21
134.5121174028127
 31
0.0
  0
LINE
  5
1C4
102
{ACAD_REACTORS
330
117
102
}
330
2
100
AcDbEntity
  8
0
 62
     7
100
AcDbLine
 10
-916.2018279092253
 20
150.5121174028098
 30
0.0
 11
-875.2018279092288
 21
150.5121174028098
 31
0.0
  0
LINE
  5
1C5
102
{ACAD_REACTORS
330
21E
330
117
102
}
330
2
100
AcDbEntity
  8
0
 62
     7
100
AcDbLine
 10
-855.7018279092307
 20
138.5121174028041
 30
0.0
 11
-865.7018279092309
 21
138.5121174028195
 31
0.0
  0
ARC
  5
1C6
102
{ACAD_REACTORS
330
117
102
}
330
2
100
AcDbEntity
  8
0
 62
     7
100
AcDbCircle
 10
-855.7018279092288
 20
139.5121174028039
 30
0.0
 40
1.0
100
AcDbArc
 50
269.9999999998958
 51
0.0
  0
ARC
  5
1C7
102
{ACAD_REACTORS
330
117
102
}
330
2
100
AcDbEntity
  8
0
 62
     7
100
AcDbCircle
 10
-865.7018279092287
 20
139.5121174028195
 30
0.0
 40
1.0
100
AcDbArc
 50
180.0
 51
269.9999999998958
  0
LINE
  5
1C8
102
{ACAD_REACTORS
330
117
102
}
330
2
100
AcDbEntity
  8
0
 62
     7
100
AcDbLine
 10
-855.7018279092288
 20
150.5121174028104
 30
0.0
 11
-865.7018279092287
 21
150.5121174028064
 31
0.0
  0
ARC
  5
1C9
102
{ACAD_REACTORS
330
117
102
}
330
2
100
AcDbEntity
  8
0
 62
     7
100
AcDbCircle
 10
-865.7018279092287
 20
149.5121174028061
 30
0.0
 40
1.0
100
AcDbArc
 50
90.00000000002932
 51
180.0
  0
LINE
  5
1CA
102
{ACAD_REACTORS
330
1FC
330
117
102
}
330
2
100
AcDbEntity
  8
0
 62
     7
100
AcDbLine
 10
-917.7018279092123
 20
149.012117402812
 30
0.0
 11
-917.7018279092253
 21
140.0121174028029
 31
0.0
  0
ARC
  5
1CB
102
{ACAD_REACTORS
330
1FC
330
20C
330
117
102
}
330
2
100
AcDbEntity
  8
0
 62
     7
100
AcDbCircle
 10
-916.2018279092253
 20
149.0121174028098
 30
0.0
 40
1.5
100
AcDbArc
 50
90.0
 51
180.0
  0
LINE
  5
1CC
102
{ACAD_REACTORS
330
20C
330
117
102
}
330
2
100
AcDbEntity
  8
0
 62
     7
100
AcDbLine
 10
-916.2018279092253
 20
138.5121174028011
 30
0.0
 11
-875.2018279092252
 21
138.5121174028079
 31
0.0
  0
ARC
  5
1CD
102
{ACAD_REACTORS
330
117
102
}
330
2
100
AcDbEntity
  8
0
 62
     7
100
AcDbCircle
 10
-916.2018279092253
 20
140.0121174028029
 30
0.0
 40
1.5
100
AcDbArc
 50
180.0
 51
270.0
  0
ARC
  5
1CE
102
{ACAD_REACTORS
330
117
102
}
330
2
100
AcDbEntity
  8
0
 62
     7
100
AcDbCircle
 10
-875.2018279092288
 20
149.512117402808
 30
0.0
 40
1.0
100
AcDbArc
 50
0.0000000000260551
 51
90.0
  0
LINE
  5
1CF
102
{ACAD_REACTORS
330
1FC
330
117
102
}
330
2
100
AcDbEntity
  8
0
 62
     7
100
AcDbLine
 10
-874.2018279092269
 20
139.512117402808
 30
0.0
 11
-874.2018279092269
 21
149.512117402808
 31
0.0
  0
ARC
  5
1D0
102
{ACAD_REACTORS
330
117
102
}
330
2
100
AcDbEntity
  8
0
 62
     7
100
AcDbCircle
 10
-875.2018279092252
 20
139.512117402808
 30
0.0
 40
1.0
100
AcDbArc
 50
270.0000000000098
 51
0.0
  0
LINE
  5
1D1
102
{ACAD_REACTORS
330
1EB
330
117
102
}
330
2
100
AcDbEntity
  8
0
 62
     7
100
AcDbLine
 10
-854.7018279092288
 20
149.5121174028104
 30
0.0
 11
-854.7018279092288
 21
139.5121174028039
 31
0.0
  0
ARC
  5
1D2
102
{ACAD_REACTORS
330
1EB
330
21E
330
117
102
}
330
2
100
AcDbEntity
  8
0
 62
     7
100
AcDbCircle
 10
-855.7018279092288
 20
149.5121174028104
 30
0.0
 40
1.0
100
AcDbArc
 50
0.0
 51
90.00000000002932
  0
LINE
  5
1D3
102
{ACAD_REACTORS
330
117
102
}
330
2
100
AcDbEntity
  8
0
 62
     7
100
AcDbLine
 10
-866.7018279092271
 20
149.5121174028061
 30
0.0
 11
-866.7018279092271
 21
139.5121174028195
 31
0.0
  0
LINE
  5
1D4
330
2
100
AcDbEntity
  8
0
 62
     7
100
AcDbLine
 10
-812.6237063016082
 20
150.5121174028098
 30
0.0
 11
-771.6237063016119
 21
150.5121174028098
 31
0.0
  0
LINE
  5
1D5
330
2
100
AcDbEntity
  8
0
 62
     7
100
AcDbLine
 10
-752.1237063016137
 20
138.5121174028041
 30
0.0
 11
-762.1237063016137
 21
138.5121174028195
 31
0.0
  0
ARC
  5
1D6
330
2
100
AcDbEntity
  8
0
 62
     7
100
AcDbCircle
 10
-752.1237063016119
 20
139.5121174028039
 30
0.0
 40
1.0
100
AcDbArc
 50
269.9999999998958
 51
0.0
  0
ARC
  5
1D7
330
2
100
AcDbEntity
  8
0
 62
     7
100
AcDbCircle
 10
-762.1237063016119
 20
139.5121174028195
 30
0.0
 40
1.0
100
AcDbArc
 50
180.0
 51
269.9999999998958
  0
LINE
  5
1D8
330
2
100
AcDbEntity
  8
0
 62
     7
100
AcDbLine
 10
-752.1237063016119
 20
150.5121174028104
 30
0.0
 11
-762.1237063016119
 21
150.5121174028064
 31
0.0
  0
ARC
  5
1D9
330
2
100
AcDbEntity
  8
0
 62
     7
100
AcDbCircle
 10
-762.1237063016119
 20
149.5121174028061
 30
0.0
 40
1.0
100
AcDbArc
 50
90.00000000002932
 51
180.0
  0
LINE
  5
1DA
330
2
100
AcDbEntity
  8
0
 62
     7
100
AcDbLine
 10
-814.1237063015955
 20
149.012117402812
 30
0.0
 11
-814.1237063015989
 21
146.5121174028127
 31
0.0
  0
LINE
  5
1DB
330
2
100
AcDbEntity
  8
0
 62
     7
100
AcDbLine
 10
-814.1237063016047
 20
142.5121174028127
 30
0.0
 11
-814.1237063016083
 21
140.0121174028029
 31
0.0
  0
ARC
  5
1DC
330
2
100
AcDbEntity
  8
0
 62
     7
100
AcDbCircle
 10
-812.6237063016082
 20
149.0121174028098
 30
0.0
 40
1.5
100
AcDbArc
 50
90.0
 51
180.0
  0
LINE
  5
1DD
330
2
100
AcDbEntity
  8
0
 62
     7
100
AcDbLine
 10
-812.6237063016082
 20
138.5121174028011
 30
0.0
 11
-771.6237063016083
 21
138.5121174028079
 31
0.0
  0
ARC
  5
1DE
330
2
100
AcDbEntity
  8
0
 62
     7
100
AcDbCircle
 10
-812.6237063016082
 20
140.0121174028029
 30
0.0
 40
1.5
100
AcDbArc
 50
180.0
 51
270.0
  0
ARC
  5
1DF
330
2
100
AcDbEntity
  8
0
 62
     7
100
AcDbCircle
 10
-771.6237063016119
 20
149.512117402808
 30
0.0
 40
1.0
100
AcDbArc
 50
0.0000000000260551
 51
90.0
  0
LINE
  5
1E0
330
2
100
AcDbEntity
  8
0
 62
     7
100
AcDbLine
 10
-770.6237063016101
 20
139.512117402808
 30
0.0
 11
-770.6237063016101
 21
149.512117402808
 31
0.0
  0
ARC
  5
1E1
330
2
100
AcDbEntity
  8
0
 62
     7
100
AcDbCircle
 10
-771.6237063016083
 20
139.512117402808
 30
0.0
 40
1.0
100
AcDbArc
 50
270.0000000000098
 51
0.0
  0
LINE
  5
1E2
330
2
100
AcDbEntity
  8
0
 62
     7
100
AcDbLine
 10
-751.1237063016119
 20
149.5121174028104
 30
0.0
 11
-751.1237063016119
 21
146.5121174028127
 31
0.0
  0
LINE
  5
1E3
330
2
100
AcDbEntity
  8
0
 62
     7
100
AcDbLine
 10
-751.1237063016119
 20
142.5121174028127
 30
0.0
 11
-751.1237063016119
 21
139.5121174028039
 31
0.0
  0
ARC
  5
1E4
330
2
100
AcDbEntity
  8
0
 62
     7
100
AcDbCircle
 10
-752.1237063016119
 20
149.5121174028104
 30
0.0
 40
1.0
100
AcDbArc
 50
0.0
 51
90.00000000002932
  0
LINE
  5
1E5
330
2
100
AcDbEntity
  8
0
 62
     7
100
AcDbLine
 10
-763.1237063016101
 20
149.5121174028061
 30
0.0
 11
-763.1237063016101
 21
139.5121174028195
 31
0.0
  0
LINE
  5
1E6
330
2
100
AcDbEntity
  8
0
 62
     7
100
AcDbLine
 10
-742.6237063016101
 20
142.5121174028127
 30
0.0
 11
-751.1237063016154
 21
142.5121174028127
 31
0.0
  0
LINE
  5
1E7
330
2
100
AcDbEntity
  8
0
 62
     7
100
AcDbLine
 10
-742.6237063016101
 20
146.5121174028127
 30
0.0
 11
-751.123706301621
 21
146.5121174028127
 31
0.0
  0
LINE
  5
1E8
330
2
100
AcDbEntity
  8
0
 62
     7
100
AcDbLine
 10
-742.6237063016101
 20
142.5121174028127
 30
0.0
 11
-742.6237063016101
 21
146.5121174028127
 31
0.0
  0
DIMENSION
  5
1E9
102
{ACAD_XDICTIONARY
360
1EA
102
}
102
{ACAD_REACTORS
330
1EB
102
}
330
2
100
AcDbEntity
  8
DIM
 62
     7
100
AcDbDimension
280
     0
  2
*D20
 10
-851.2018279092272
 20
161.3957554919357
 30
0.0
 11
-842.5547610606596
 21
161.3957554919357
 31
0.0
 71
     5
 42
0.3500000000001706
 73
     0
 74
     0
 75
     0
  3
ISO-25
100
AcDbAlignedDimension
 13
-854.7018279092288
 23
149.5121174028104
 33
0.0
 14
-851.2018279092272
 24
154.5121174028127
 34
0.0
100
AcDbRotatedDimension
1001
ACAD
1000
DSTYLE
1002
{
1070
    41
1040
2.0
1070
    42
1040
1.0
1070
    44
1040
1.0
1070
    77
1070
     0
1070
   140
1040
2.799999999999998
1070
   144
1040
0.1
1070
   147
1040
1.0
1070
   173
1070
     1
1070
   271
1070
     3
1070
   278
1070
    46
1070
   340
1005
9D
1070
   343
1005
95
1070
   344
1005
95
1002
}
  0
DIMENSION
  5
1FA
102
{ACAD_XDICTIONARY
360
1FB
102
}
102
{ACAD_REACTORS
330
1FC
102
}
330
2
100
AcDbEntity
  8
DIM
 62
     7
100
AcDbDimension
280
     0
  2
*D21
 10
-917.7018279092123
 20
161.3957554919357
 30
0.0
 11
-895.9518279092197
 21
161.3957554919357
 31
0.0
 71
     5
 42
4.349999999998543
 73
     0
 74
     0
 75
     0
  3
ISO-25
100
AcDbAlignedDimension
 13
-874.2018279092269
 23
149.512117402808
 33
0.0
 14
-917.7018279092123
 24
149.0121174028119
 34
0.0
100
AcDbRotatedDimension
1001
ACAD
1000
DSTYLE
1002
{
1070
    41
1040
2.0
1070
    42
1040
1.0
1070
    44
1040
1.0
1070
    77
1070
     0
1070
   140
1040
2.799999999999998
1070
   144
1040
0.1
1070
   147
1040
1.0
1070
   173
1070
     1
1070
   271
1070
     3
1070
   278
1070
    46
1070
   340
1005
9D
1070
   343
1005
95
1070
   344
1005
95
1002
}
  0
DIMENSION
  5
20A
102
{ACAD_XDICTIONARY
360
20B
102
}
102
{ACAD_REACTORS
330
20C
102
}
330
2
100
AcDbEntity
  8
DIM
 62
     7
100
AcDbDimension
280
     0
  2
*D22
 10
-926.242250457266
 20
138.5121174028011
 30
0.0
 11
-926.242250457266
 21
144.5121174028053
 31
0.0
 71
     5
 42
1.200000000000863
 73
     0
 74
     0
 75
     0
  3
ISO-25
100
AcDbAlignedDimension
 13
-916.2018279092253
 23
150.5121174028098
 33
0.0
 14
-916.2018279092253
 24
138.5121174028011
 34
0.0
 50
90.0
100
AcDbRotatedDimension
1001
ACAD
1000
DSTYLE
1002
{
1070
    41
1040
2.0
1070
    42
1040
1.0
1070
    44
1040
1.0
1070
    77
1070
     0
1070
   140
1040
2.799999999999998
1070
   144
1040
0.1
1070
   147
1040
1.0
1070
   173
1070
     1
1070
   271
1070
     3
1070
   278
1070
    46
1070
   340
1005
9D
1070
   343
1005
95
1070
   344
1005
95
1002
}
  0
DIMENSION
  5
21C
102
{ACAD_XDICTIONARY
360
21D
102
}
102
{ACAD_REACTORS
330
21E
102
}
330
2
100
AcDbEntity
  8
DIM
 62
     7
100
AcDbDimension
280
     0
  2
*D23
 10
-843.2181839152152
 20
138.5121174028041
 30
0.0
 11
-843.2181839152152
 21
144.5121174028071
 31
0.0
 71
     5
 42
1.200000000000635
 73
     0
 74
     0
 75
     0
  3
ISO-25
100
AcDbAlignedDimension
 13
-855.7018279092291
 23
150.5121174028104
 33
0.0
 14
-855.7018279092304
 24
138.5121174028041
 34
0.0
 50
90.0
100
AcDbRotatedDimension
1001
ACAD
1000
DSTYLE
1002
{
1070
    41
1040
2.0
1070
    42
1040
1.0
1070
    44
1040
1.0
1070
    77
1070
     0
1070
   140
1040
2.799999999999998
1070
   144
1040
0.1
1070
   147
1040
1.0
1070
   173
1070
     1
1070
   271
1070
     3
1070
   278
1070
    46
1070
   340
1005
9D
1070
   343
1005
95
1070
   344
1005
95
1002
}
  0
LINE
  5
22E
330
2
100
AcDbEntity
  8
DIM
  6
ByBlock
100
AcDbLine
 10
-870.5176586469134
 20
298.6047209041903
 30
0.0
 11
-796.2594267800459
 21
298.6047209041903
 31
0.0
  0
LINE
  5
22F
330
2
100
AcDbEntity
  8
DIM
  6
ByBlock
100
AcDbLine
 10
-870.5176586469134
 20
297.0776857133671
 30
0.0
 11
-796.2594267800459
 21
297.0776857133671
 31
0.0
  0
LINE
  5
230
330
2
100
AcDbEntity
  8
0
 62
     7
100
AcDbLine
 10
-895.6018279092221
 20
266.2695290078842
 30
0.0
 11
-895.6018279092221
 21
260.4695290078863
 31
0.0
  0
LINE
  5
231
102
{ACAD_REACTORS
330
247
102
}
330
2
100
AcDbEntity
  8
0
 62
     7
100
AcDbLine
 10
-895.6018279092221
 20
260.4695290078863
 30
0.0
 11
-907.1018279092239
 21
260.4695290078863
 31
0.0
  0
LINE
  5
232
102
{ACAD_REACTORS
330
294
102
}
330
2
100
AcDbEntity
  8
0
 62
     7
100
AcDbLine
 10
-907.1018279092239
 20
260.4695290078863
 30
0.0
 11
-907.1018279092239
 21
266.2695290078842
 31
0.0
  0
LINE
  5
233
102
{ACAD_REACTORS
330
267
102
}
330
2
100
AcDbEntity
  8
0
 62
     7
100
AcDbLine
 10
-907.1018279092239
 20
266.2695290078842
 30
0.0
 11
-895.6018279092221
 21
266.2695290078842
 31
0.0
  0
TEXT
  5
234
330
2
100
AcDbEntity
  8
0
 62
     7
100
AcDbText
 10
-897.2569459504883
 20
261.7811825154359
 30
0.0
 40
1.0
  1
P
100
AcDbText
  0
TEXT
  5
235
330
2
100
AcDbEntity
  8
0
 62
     7
100
AcDbText
 10
-905.6957210156266
 20
261.7811825154359
 30
0.0
 40
1.0
  1
N
100
AcDbText
  0
LINE
  5
236
330
2
100
AcDbEntity
  8
0
 62
     7
100
AcDbLine
 10
-874.1018279092239
 20
266.2695290078842
 30
0.0
 11
-874.1018279092239
 21
260.4695290078863
 31
0.0
  0
LINE
  5
237
330
2
100
AcDbEntity
  8
0
 62
     7
100
AcDbLine
 10
-874.1018279092239
 20
260.4695290078863
 30
0.0
 11
-885.6018279092221
 21
260.4695290078863
 31
0.0
  0
LINE
  5
238
102
{ACAD_REACTORS
330
247
102
}
330
2
100
AcDbEntity
  8
0
 62
     7
100
AcDbLine
 10
-885.6018279092221
 20
260.4695290078863
 30
0.0
 11
-885.6018279092221
 21
266.2695290078842
 31
0.0
  0
LINE
  5
239
102
{ACAD_REACTORS
330
257
102
}
330
2
100
AcDbEntity
  8
0
 62
     7
100
AcDbLine
 10
-885.6018279092221
 20
266.2695290078842
 30
0.0
 11
-874.1018279092239
 21
266.2695290078842
 31
0.0
  0
TEXT
  5
23A
330
2
100
AcDbEntity
  8
0
 62
     7
100
AcDbText
 10
-875.7569459504884
 20
261.7811825154359
 30
0.0
 40
1.0
  1
P
100
AcDbText
  0
TEXT
  5
23B
330
2
100
AcDbEntity
  8
0
 62
     7
100
AcDbText
 10
-884.195721015625
 20
261.7811825154359
 30
0.0
 40
1.0
  1
N
100
AcDbText
  0
LWPOLYLINE
  5
23C
330
2
100
AcDbEntity
  8
0
 62
     7
100
AcDbPolyline
 90
        2
 70
     0
 43
0.3
 10
-896.2861058667622
 20
263.3695290078804
 10
-884.3352688050707
 20
263.3695290078859
  0
LWPOLYLINE
  5
23D
330
2
100
AcDbEntity
  8
0
 62
     7
100
AcDbPolyline
 90
        2
 70
     0
 43
0.3
 10
-906.417549951684
 20
263.3695290078804
 10
-911.7247059163345
 20
263.3695290078859
  0
LWPOLYLINE
  5
23E
330
2
100
AcDbEntity
  8
0
 62
     7
100
AcDbPolyline
 90
        2
 70
     0
 43
0.3
 10
-874.7861058667602
 20
263.3695290078804
 10
-863.7480637955885
 20
263.3695290078782
  0
CIRCLE
  5
23F
330
2
100
AcDbEntity
  8
0
 62
     7
100
AcDbCircle
 10
-911.7247059163345
 20
263.3695290078859
 30
0.0
 40
0.2630946154704361
  0
CIRCLE
  5
240
330
2
100
AcDbEntity
  8
0
 62
     7
100
AcDbCircle
 10
-906.417549951684
 20
263.3695290078804
 30
0.0
 40
0.2630946154704361
  0
CIRCLE
  5
241
330
2
100
AcDbEntity
  8
0
 62
     7
100
AcDbCircle
 10
-896.2861058667622
 20
263.3695290078804
 30
0.0
 40
0.2630946154704361
  0
CIRCLE
  5
242
330
2
100
AcDbEntity
  8
0
 62
     7
100
AcDbCircle
 10
-884.3352688050707
 20
263.3695290078859
 30
0.0
 40
0.2630946154704361
  0
CIRCLE
  5
243
330
2
100
AcDbEntity
  8
0
 62
     7
100
AcDbCircle
 10
-874.7861058667602
 20
263.3695290078804
 30
0.0
 40
0.2630946154704361
  0
CIRCLE
  5
244
330
2
100
AcDbEntity
  8
0
 62
     7
100
AcDbCircle
 10
-863.7480637955885
 20
263.3695290078782
 30
0.0
 40
0.2630946154704361
  0
DIMENSION
  5
245
102
{ACAD_XDICTIONARY
360
246
102
}
102
{ACAD_REACTORS
330
247
102
}
330
2
100
AcDbEntity
  8
DIM
 62
     7
100
AcDbDimension
280
     0
  2
*D17
 10
-885.6018279092221
 20
247.7595681929243
 30
0.0
 11
-890.6018279092219
 21
247.7595681929243
 31
0.0
 71
     5
 42
-1.0
 73
     0
 74
     0
 75
     0
  3
ISO-25
100
AcDbAlignedDimension
 13
-895.6018279092221
 23
260.4695290078863
 33
0.0
 14
-885.6018279092221
 24
260.4695290078863
 34
0.0
100
AcDbRotatedDimension
1001
ACAD
1000
DSTYLE
1002
{
1070
    41
1040
2.0
1070
    42
1040
1.0
1070
    44
1040
1.0
1070
    77
1070
     0
1070
   140
1040
2.799999999999998
1070
   144
1040
0.1
1070
   147
1040
1.0
1070
   173
1070
     1
1070
   271
1070
     3
1070
   278
1070
    46
1070
   340
1005
9D
1070
   343
1005
95
1070
   344
1005
95
1002
}
  0
DIMENSION
  5
255
102
{ACAD_XDICTIONARY
360
256
102
}
102
{ACAD_REACTORS
330
257
102
}
330
2
100
AcDbEntity
  8
DIM
 62
     7
100
AcDbDimension
280
     0
  2
*D18
 10
-879.8518279092231
 20
279.5168325620312
 30
0.0
 11
-872.1170393689773
 21
279.5168325620312
 31
0.0
 71
     5
 42
0.6350000000003094
 73
     0
 74
     0
 75
     0
  3
ISO-25
100
AcDbAlignedDimension
 13
-886.2018279092261
 23
276.7195290062833
 33
0.0
 14
-879.8518279092231
 24
266.2695290078842
 34
0.0
100
AcDbRotatedDimension
1001
ACAD
1000
DSTYLE
1002
{
1070
    41
1040
2.0
1070
    42
1040
1.0
1070
    44
1040
1.0
1070
    77
1070
     0
1070
   140
1040
2.799999999999998
1070
   144
1040
0.1
1070
   147
1040
1.0
1070
   173
1070
     1
1070
   271
1070
     3
1070
   278
1070
    46
1070
   340
1005
9D
1070
   343
1005
95
1070
   344
1005
95
1002
}
  0
DIMENSION
  5
265
102
{ACAD_XDICTIONARY
360
266
102
}
102
{ACAD_REACTORS
330
267
102
}
330
2
100
AcDbEntity
  8
DIM
 62
     7
100
AcDbDimension
280
     0
  2
*D19
 10
-901.3518279092231
 20
279.5168325620312
 30
0.0
 11
-893.7768279092248
 21
279.5168325620312
 31
0.0
 71
     5
 42
1.51499999999969
 73
     0
 74
     0
 75
     0
  3
ISO-25
100
AcDbAlignedDimension
 13
-886.2018279092261
 23
276.7195290062833
 33
0.0
 14
-901.3518279092231
 24
266.2695290078842
 34
0.0
100
AcDbRotatedDimension
1001
ACAD
1000
DSTYLE
1002
{
1070
    41
1040
2.0
1070
    42
1040
1.0
1070
    44
1040
1.0
1070
    77
1070
     0
1070
   140
1040
2.799999999999998
1070
   144
1040
0.1
1070
   147
1040
1.0
1070
   173
1070
     1
1070
   271
1070
     3
1070
   278
1070
    46
1070
   340
1005
9D
1070
   343
1005
95
1070
   344
1005
95
1002
}
  0
DIMENSION
  5
277
330
2
100
AcDbEntity
  8
DIM
 62
     7
100
AcDbDimension
280
     0
  2
*D1
 10
-800.7091125507216
 20
199.3041176342363
 30
0.0
 11
-800.7091125507216
 21
211.153401399585
 31
0.0
 70
   128
 71
     5
 42
0.25
 73
     0
 74
     0
 75
     0
  3
ISO-25
100
AcDbAlignedDimension
 13
-786.0676071782709
 23
201.8041176342363
 33
0.0
 14
-792.5676071782691
 24
199.3041176342363
 34
0.0
 50
90.0
100
AcDbRotatedDimension
1001
ACAD
1000
DSTYLE
1002
{
1070
    41
1040
2.0
1070
    42
1040
1.0
1070
    44
1040
1.0
1070
    77
1070
     0
1070
   140
1040
2.799999999999998
1070
   144
1040
0.1
1070
   147
1040
1.0
1070
   173
1070
     1
1070
   271
1070
     3
1070
   278
1070
    46
1070
   340
1005
9D
1070
   343
1005
95
1070
   344
1005
95
1002
}
  0
LINE
  5
286
330
2
100
AcDbEntity
  8
0
 62
     7
100
AcDbLine
 10
-859.3381915455937
 20
257.8695290077654
 30
0.0
 11
-913.0654642728712
 21
257.869529007769
 31
0.0
  0
ARC
  5
287
330
2
100
AcDbEntity
  8
0
 62
     7
100
AcDbCircle
 10
-859.3381915455937
 20
259.8695290077672
 30
0.0
 40
1.999999999999992
100
AcDbArc
 50
270.0
 51
0.0000000000077351
  0
ARC
  5
288
102
{ACAD_REACTORS
330
294
102
}
330
2
100
AcDbEntity
  8
0
 62
     7
100
AcDbCircle
 10
-913.0654642728712
 20
259.869529007769
 30
0.0
 40
1.999999999999992
100
AcDbArc
 50
180.0
 51
270.0
  0
LINE
  5
289
330
2
100
AcDbEntity
  8
0
 62
     7
100
AcDbLine
 10
-859.3381915455937
 20
268.8695290080032
 30
0.0
 11
-911.5299303669397
 21
268.8695290080032
 31
0.0
  0
ARC
  5
28A
330
2
100
AcDbEntity
  8
0
 62
     7
100
AcDbCircle
 10
-911.5299303669397
 20
266.3695290080032
 30
0.0
 40
2.5
100
AcDbArc
 50
90.0
 51
134.9999999999818
  0
LINE
  5
28B
330
2
100
AcDbEntity
  8
0
 62
     7
100
AcDbLine
 10
-915.0654642728731
 20
259.8695290077704
 30
0.0
 11
-915.0654642728675
 21
265.3339951020767
 31
0.0
  0
LINE
  5
28C
330
2
100
AcDbEntity
  8
0
 62
     7
100
AcDbLine
 10
-913.2976973199054
 20
268.1372959609699
 30
0.0
 11
-914.3332312258333
 21
267.1017620550443
 31
0.0
  0
ARC
  5
28D
330
2
100
AcDbEntity
  8
0
 62
     7
100
AcDbCircle
 10
-912.5654642728674
 20
265.3339951020758
 30
0.0
 40
2.5
100
AcDbArc
 50
134.9999999999358
 51
179.9999999999764
  0
LINE
  5
28E
330
2
100
AcDbEntity
  8
0
 62
     7
100
AcDbLine
 10
-857.3381915455938
 20
259.8695290077672
 30
0.0
 11
-857.3381915455938
 21
266.869529008005
 31
0.0
  0
ARC
  5
28F
330
2
100
AcDbEntity
  8
0
 62
     7
100
AcDbCircle
 10
-859.3381915455937
 20
266.869529008005
 30
0.0
 40
1.999999999999992
100
AcDbArc
 50
0.0
 51
90.0
  0
LINE
  5
290
330
2
100
AcDbEntity
  8
0
 62
     7
100
AcDbLine
 10
-872.6018279092148
 20
257.8695290077663
 30
0.0
 11
-872.6018279092201
 21
268.8695290080032
 31
0.0
  0
LINE
  5
291
330
2
100
AcDbEntity
  8
0
 62
     7
100
AcDbLine
 10
-868.3018279092264
 20
268.8695290080032
 30
0.0
 11
-868.3018279092284
 21
257.8695290077663
 31
0.0
  0
DIMENSION
  5
292
102
{ACAD_XDICTIONARY
360
293
102
}
102
{ACAD_REACTORS
330
294
102
}
330
2
100
AcDbEntity
  8
DIM
 62
     7
100
AcDbDimension
280
     0
  2
*D24
 10
-907.1018279092239
 20
244.984158070808
 30
0.0
 11
-899.3784991234123
 21
244.984158070808
 31
0.0
 70
   128
 71
     5
 42
0.7963636363647311
 73
     0
 74
     0
 75
     0
  3
ISO-25
100
AcDbAlignedDimension
 13
-915.0654642728712
 23
259.869529007769
 33
0.0
 14
-907.1018279092239
 24
260.4695290078863
 34
0.0
100
AcDbRotatedDimension
1001
ACAD
1000
DSTYLE
1002
{
1070
    41
1040
2.0
1070
    42
1040
1.0
1070
    44
1040
1.0
1070
    77
1070
     0
1070
   140
1040
2.799999999999998
1070
   144
1040
0.1
1070
   147
1040
1.0
1070
   173
1070
     1
1070
   271
1070
     3
1070
   278
1070
    46
1070
   340
1005
9D
1070
   343
1005
95
1070
   344
1005
95
1002
}
  0
ENDSEC
  0
SECTION
  2
OBJECTS
  0
DICTIONARY
  5
B
330
0
100
AcDbDictionary
281
     1
  3
ACAD_COLOR
350
33
  3
ACAD_GROUP
350
2E
  3
ACAD_LAYOUT
350
11
  3
ACAD_MATERIAL
350
D
  3
ACAD_MLEADERSTYLE
350
36
  3
ACAD_MLINESTYLE
350
2F
  3
ACAD_PLOTSETTINGS
350
30
  3
ACAD_PLOTSTYLENAME
350
A
  3
ACAD_SCALELIST
350
34
  3
ACAD_TABLESTYLE
350
35
  3
ACAD_VISUALSTYLE
350
26
  3
ACDB_RECOMPOSE_DATA
350
2A9
  3
AcDbVariableDictionary
350
37
  0
DICTIONARY
  5
29
330
23
100
AcDbDictionary
280
     1
281
     1
  0
DICTIONARY
  5
19
330
18
100
AcDbDictionary
280
     1
281
     1
  3
ACAD_LAYERSTATES
360
1A
  0
DICTIONARY
  5
7
330
6
100
AcDbDictionary
280
     1
281
     1
  3
ADSK_XREC_LAYER_RECONCILED
360
8
  0
DICTIONARY
  5
85
330
84
100
AcDbDictionary
280
     1
281
     1
  3
ADSK_XREC_LAYER_RECONCILED
360
86
  0
DICTIONARY
  5
8C
330
8B
100
AcDbDictionary
280
     1
281
     1
  3
ADSK_XREC_LAYER_RECONCILED
360
8D
  0
DICTIONARY
  5
3
330
2
100
AcDbDictionary
280
     1
281
     1
  3
ACAD_SORTENTS
360
2A2
  0
DICTIONARY
  5
1EA
330
1E9
100
AcDbDictionary
280
     1
281
     1
  3
ACAD_DIMASSOC
360
1EB
  0
DICTIONARY
  5
1FB
330
1FA
100
AcDbDictionary
280
     1
281
     1
  3
ACAD_DIMASSOC
360
1FC
  0
DICTIONARY
  5
20B
330
20A
100
AcDbDictionary
280
     1
281
     1
  3
ACAD_DIMASSOC
360
20C
  0
DICTIONARY
  5
21D
330
21C
100
AcDbDictionary
280
     1
281
     1
  3
ACAD_DIMASSOC
360
21E
  0
DICTIONARY
  5
246
330
245
100
AcDbDictionary
280
     1
281
     1
  3
ACAD_DIMASSOC
360
247
  0
DICTIONARY
  5
256
330
255
100
AcDbDictionary
280
     1
281
     1
  3
ACAD_DIMASSOC
360
257
  0
DICTIONARY
  5
266
330
265
100
AcDbDictionary
280
     1
281
     1
  3
ACAD_DIMASSOC
360
267
  0
DICTIONARY
  5
293
330
292
100
AcDbDictionary
280
     1
281
     1
  3
ACAD_DIMASSOC
360
294
  0
DICTIONARY
  5
33
102
{ACAD_REACTORS
330
B
102
}
330
B
100
AcDbDictionary
281
     1
  0
DICTIONARY
  5
2E
102
{ACAD_REACTORS
330
B
102
}
330
B
100
AcDbDictionary
281
     1
  0
DICTIONARY
  5
11
102
{ACAD_REACTORS
330
B
102
}
330
B
100
AcDbDictionary
281
     1
  3
Model
350
10
  3
1
350
17
1001
AcadStringInfo
1000
MIFCodePage
1070
     2
  0
DICTIONARY
  5
D
102
{ACAD_REACTORS
330
B
102
}
330
B
100
AcDbDictionary
281
     1
  3
ByBlock
350
32
  3
ByLayer
350
31
  3
Global
350
C
  0
DICTIONARY
  5
36
102
{ACAD_REACTORS
330
B
102
}
330
B
100
AcDbDictionary
281
     1
  0
DICTIONARY
  5
2F
102
{ACAD_REACTORS
330
B
102
}
330
B
100
AcDbDictionary
281
     1
  3
Standard
350
46
  0
DICTIONARY
  5
30
102
{ACAD_REACTORS
330
B
102
}
330
B
100
AcDbDictionary
281
     1
  0
ACDBDICTIONARYWDFLT
  5
A
102
{ACAD_REACTORS
330
B
102
}
330
B
100
AcDbDictionary
281
     1
  3
Normal
350
9
100
AcDbDictionaryWithDefault
340
9
  0
DICTIONARY
  5
34
102
{ACAD_REACTORS
330
B
102
}
330
B
100
AcDbDictionary
281
     1
  3
A0
350
4B
  3
A1
350
4C
  3
A2
350
4D
  3
A3
350
4E
  3
A4
350
4F
  3
A5
350
50
  3
A6
350
51
  3
A7
350
52
  3
A8
350
53
  3
A9
350
54
  3
B0
350
55
  3
B1
350
56
  3
B2
350
57
  3
B3
350
58
  3
B4
350
59
  3
B5
350
5A
  3
B6
350
5B
  0
DICTIONARY
  5
35
102
{ACAD_REACTORS
330
B
102
}
330
B
100
AcDbDictionary
281
     1
  3
Standard
350
47
  0
DICTIONARY
  5
26
102
{ACAD_REACTORS
330
B
102
}
330
B
100
AcDbDictionary
281
     1
  3
2dWireframe
350
25
  3
Realistic
350
49
  3
Wireframe
350
4A
  0
XRECORD
  5
2A9
102
{ACAD_REACTORS
330
B
102
}
330
B
100
AcDbXrecord
280
     1
 90
        1
330
47
  0
DICTIONARY
  5
37
102
{ACAD_REACTORS
330
B
102
}
330
B
100
AcDbDictionary
281
     1
  3
CANNOSCALE
350
38
  3
CMLEADERSTYLE
350
39
  3
CTABLESTYLE
350
3A
  3
CVIEWDETAILSTYLE
350
3B
  3
CVIEWSECTIONSTYLE
350
3C
  3
DIMASSOC
350
3D
  3
HIDETEXT
350
3E
  3
INDEXCTL
350
3F
  3
LAYEREVAL
350
40
  3
LAYERNOTIFY
350
41
  3
LIGHTINGUNITS
350
42
  3
MSLTSCALE
350
43
  3
PROJECTNAME
350
44
  3
SORTENTS
350
45
  0
DICTIONARY
  5
1A
102
{ACAD_REACTORS
330
19
102
}
330
19
100
AcDbDictionary
281
     1
  0
XRECORD
  5
8
102
{ACAD_REACTORS
330
7
102
}
330
7
100
AcDbXrecord
280
     1
290
     1
  0
XRECORD
  5
86
102
{ACAD_REACTORS
330
85
102
}
330
85
100
AcDbXrecord
280
     1
290
     1
  0
XRECORD
  5
8D
102
{ACAD_REACTORS
330
8C
102
}
330
8C
100
AcDbXrecord
280
     1
290
     1
  0
SORTENTSTABLE
  5
2A2
102
{ACAD_REACTORS
330
3
102
}
330
3
100
AcDbSortentsTable
330
2
  0
DIMASSOC
  5
1EB
102
{ACAD_REACTORS
330
1EA
102
}
330
1EA
100
AcDbDimAssoc
330
1E9
 90
        3
 70
     0
 71
     0
  1
AcDbOsnapPointRef
 72
     6
331
1D1
 73
     2
 91
        0
 40
0.0
 10
0.0
 20
0.0
 30
0.0
332
1D2
 74
     2
 92
        0
 75
     0
  1
AcDbOsnapPointRef
 72
    13
331
1C1
 73
     2
 91
        0
 40
0.0
 10
0.0
 20
0.0
 30
2.000000000000000E+50
 75
     0
  0
DIMASSOC
  5
1FC
102
{ACAD_REACTORS
330
1FB
102
}
330
1FB
100
AcDbDimAssoc
330
1FA
 90
        3
 70
     0
 71
     0
  1
AcDbOsnapPointRef
 72
     1
331
1CF
 73
     2
 91
        0
 40
1.0
 10
0.0
 20
0.0
 30
2.000000000000000E+50
 75
     0
  1
AcDbOsnapPointRef
 72
     6
331
1CA
 73
     2
 91
        0
 40
0.0
 10
0.0
 20
0.0
 30
0.0
332
1CB
 74
     2
 92
        0
 75
     0
  0
DIMASSOC
  5
20C
102
{ACAD_REACTORS
330
20B
102
}
330
20B
100
AcDbDimAssoc
330
20A
 90
        3
 70
     0
 71
     0
  1
AcDbOsnapPointRef
 72
    13
331
1CB
 73
     2
 91
        0
 40
1.570796326794896
 10
0.0
 20
0.0
 30
2.000000000000000E+50
 75
     0
  1
AcDbOsnapPointRef
 72
    13
331
1CC
 73
     2
 91
        0
 40
0.0
 10
0.0
 20
0.0
 30
2.000000000000000E+50
 75
     0
  0
DIMASSOC
  5
21E
102
{ACAD_REACTORS
330
21D
102
}
330
21D
100
AcDbDimAssoc
330
21C
 90
        3
 70
     0
 71
     0
  1
AcDbOsnapPointRef
 72
     1
331
1D2
 73
     2
 91
        0
 40
1.570796326795464
 10
0.0
 20
0.0
 30
2.000000000000000E+50
 75
     0
  1
AcDbOsnapPointRef
 72
    13
331
1C5
 73
     2
 91
        0
 40
0.0
 10
0.0
 20
0.0
 30
2.000000000000000E+50
 75
     0
  0
DIMASSOC
  5
247
102
{ACAD_REACTORS
330
246
102
}
330
246
100
AcDbDimAssoc
330
245
 90
        3
 70
     0
 71
     0
  1
AcDbOsnapPointRef
 72
    13
331
231
 73
     2
 91
        0
 40
0.0
 10
0.0
 20
0.0
 30
2.000000000000000E+50
 75
     0
  1
AcDbOsnapPointRef
 72
    13
331
238
 73
     2
 91
        0
 40
0.0
 10
0.0
 20
0.0
 30
2.000000000000000E+50
 75
     0
  0
DIMASSOC
  5
257
102
{ACAD_REACTORS
330
256
102
}
330
256
100
AcDbDimAssoc
330
255
 90
        3
 70
     0
 71
     0
  1
AcDbOsnapPointRef
 72
    13
331
83
 73
     2
 91
        0
 40
0.0
 10
0.0
 20
0.0
 30
2.000000000000000E+50
 75
     0
  1
AcDbOsnapPointRef
 72
     2
331
239
 73
     2
 91
        0
 40
0.5
 10
0.0
 20
0.0
 30
0.0
 75
     0
  0
DIMASSOC
  5
267
102
{ACAD_REACTORS
330
266
102
}
330
266
100
AcDbDimAssoc
330
265
 90
        3
 70
     0
 71
     0
  1
AcDbOsnapPointRef
 72
    13
331
83
 73
     2
 91
        0
 40
0.0
 10
0.0
 20
0.0
 30
2.000000000000000E+50
 75
     0
  1
AcDbOsnapPointRef
 72
     2
331
233
 73
     2
 91
        0
 40
0.5
 10
0.0
 20
0.0
 30
0.0
 75
     0
  0
DIMASSOC
  5
294
102
{ACAD_REACTORS
330
293
102
}
330
293
100
AcDbDimAssoc
330
292
 90
        3
 70
     0
 71
     0
  1
AcDbOsnapPointRef
 72
    13
331
288
 73
     2
 91
        0
 40
3.141592653589792
 10
0.0
 20
0.0
 30
2.000000000000000E+50
 75
     0
  1
AcDbOsnapPointRef
 72
    13
331
232
 73
     2
 91
        0
 40
0.0
 10
0.0
 20
0.0
 30
2.000000000000000E+50
 75
     0
  0
LAYOUT
  5
10
102
{ACAD_REACTORS
330
11
102
}
330
11
100
AcDbPlotSettings
  1

  2
none_device
  4
ISO_A4_(210.00_x_297.00_MM)
  6

 40
7.5
 41
20.0
 42
7.5
 43
20.0
 44
210.0
 45
297.0
 46
11.54999923706054
 47
-13.65000009536743
 48
0.0
 49
0.0
140
0.0
141
0.0
142
1.0
143
8.704084754739808
 70
 11952
 72
     1
 73
     0
 74
     0
  7

 75
     0
147
0.1148885871608098
 76
     0
 77
     2
 78
   300
148
0.0
149
0.0
100
AcDbLayout
  1
Model
 70
     1
 71
     0
 10
0.0
 20
0.0
 11
12.0
 21
9.0
 12
0.0
 22
0.0
 32
0.0
 14
0.0
 24
0.0
 34
0.0
 15
0.0
 25
0.0
 35
0.0
146
0.0
 13
0.0
 23
0.0
 33
0.0
 16
1.0
 26
0.0
 36
0.0
 17
0.0
 27
1.0
 37
0.0
 76
     0
330
2
331
24
1001
ACAD_PSEXT
1000
None
1000
None
1000
Not applicable
1000
The layout will not be plotted unless a new plotter configuration name is selected.
1070
     0
  0
LAYOUT
  5
17
102
{ACAD_REACTORS
330
11
102
}
330
11
100
AcDbPlotSettings
  1

  2
C:\Documents and Settings\basas\Application Data\Autodesk\AutoCAD 2005\R16.1\enu\plotters\Default Windows System Printer.pc3
  4

  6

 40
0.0
 41
0.0
 42
0.0
 43
0.0
 44
0.0
 45
0.0
 46
0.0
 47
0.0
 48
0.0
 49
0.0
140
0.0
141
0.0
142
1.0
143
1.0
 70
   688
 72
     0
 73
     0
 74
     5
  7

 75
    16
147
1.0
 76
     0
 77
     2
 78
   300
148
0.0
149
0.0
100
AcDbLayout
  1
1
 70
     1
 71
     1
 10
0.0
 20
0.0
 11
12.0
 21
9.0
 12
0.0
 22
0.0
 32
0.0
 14
0.0
 24
0.0
 34
0.0
 15
0.0
 25
0.0
 35
0.0
146
0.0
 13
0.0
 23
0.0
 33
0.0
 16
1.0
 26
0.0
 36
0.0
 17
0.0
 27
1.0
 37
0.0
 76
     0
330
14
1001
AcadStringInfo
1000
MIFCodePage
1070
     2
  0
MATERIAL
  5
32
102
{ACAD_REACTORS
330
D
102
}
330
D
100
AcDbMaterial
  1
ByBlock
 73
     1
 78
     1
172
     1
176
     1
270
     1
274
     1
 94
       63
  0
MATERIAL
  5
31
102
{ACAD_REACTORS
330
D
102
}
330
D
100
AcDbMaterial
  1
ByLayer
 73
     1
 78
     1
172
     1
176
     1
270
     1
274
     1
 94
       63
  0
MATERIAL
  5
C
102
{ACAD_REACTORS
330
D
102
}
330
D
100
AcDbMaterial
  1
Global
 73
     1
 78
     1
172
     1
176
     1
270
     1
274
     1
 94
       63
  0
MLINESTYLE
  5
46
102
{ACAD_REACTORS
330
2F
102
}
330
2F
100
AcDbMlineStyle
  2
STANDARD
 70
     0
  3

 62
   256
 51
90.0
 52
90.0
 71
     2
 49
0.5
 62
   256
  6
BYLAYER
 49
-0.5
 62
   256
  6
BYLAYER
  0
ACDBPLACEHOLDER
  5
9
102
{ACAD_REACTORS
330
A
102
}
330
A
  0
SCALE
  5
4B
102
{ACAD_REACTORS
330
34
102
}
330
34
100
AcDbScale
 70
     0
300
1:1
140
1.0
141
1.0
290
     1
  0
SCALE
  5
4C
102
{ACAD_REACTORS
330
34
102
}
330
34
100
AcDbScale
 70
     0
300
1:2
140
1.0
141
2.0
290
     0
  0
SCALE
  5
4D
102
{ACAD_REACTORS
330
34
102
}
330
34
100
AcDbScale
 70
     0
300
1:4
140
1.0
141
4.0
290
     0
  0
SCALE
  5
4E
102
{ACAD_REACTORS
330
34
102
}
330
34
100
AcDbScale
 70
     0
300
1:5
140
1.0
141
5.0
290
     0
  0
SCALE
  5
4F
102
{ACAD_REACTORS
330
34
102
}
330
34
100
AcDbScale
 70
     0
300
1:8
140
1.0
141
8.0
290
     0
  0
SCALE
  5
50
102
{ACAD_REACTORS
330
34
102
}
330
34
100
AcDbScale
 70
     0
300
1:10
140
1.0
141
10.0
290
     0
  0
SCALE
  5
51
102
{ACAD_REACTORS
330
34
102
}
330
34
100
AcDbScale
 70
     0
300
1:16
140
1.0
141
16.0
290
     0
  0
SCALE
  5
52
102
{ACAD_REACTORS
330
34
102
}
330
34
100
AcDbScale
 70
     0
300
1:20
140
1.0
141
20.0
290
     0
  0
SCALE
  5
53
102
{ACAD_REACTORS
330
34
102
}
330
34
100
AcDbScale
 70
     0
300
1:30
140
1.0
141
30.0
290
     0
  0
SCALE
  5
54
102
{ACAD_REACTORS
330
34
102
}
330
34
100
AcDbScale
 70
     0
300
1:40
140
1.0
141
40.0
290
     0
  0
SCALE
  5
55
102
{ACAD_REACTORS
330
34
102
}
330
34
100
AcDbScale
 70
     0
300
1:50
140
1.0
141
50.0
290
     0
  0
SCALE
  5
56
102
{ACAD_REACTORS
330
34
102
}
330
34
100
AcDbScale
 70
     0
300
1:100
140
1.0
141
100.0
290
     0
  0
SCALE
  5
57
102
{ACAD_REACTORS
330
34
102
}
330
34
100
AcDbScale
 70
     0
300
2:1
140
2.0
141
1.0
290
     0
  0
SCALE
  5
58
102
{ACAD_REACTORS
330
34
102
}
330
34
100
AcDbScale
 70
     0
300
4:1
140
4.0
141
1.0
290
     0
  0
SCALE
  5
59
102
{ACAD_REACTORS
330
34
102
}
330
34
100
AcDbScale
 70
     0
300
8:1
140
8.0
141
1.0
290
     0
  0
SCALE
  5
5A
102
{ACAD_REACTORS
330
34
102
}
330
34
100
AcDbScale
 70
     0
300
10:1
140
10.0
141
1.0
290
     0
  0
SCALE
  5
5B
102
{ACAD_REACTORS
330
34
102
}
330
34
100
AcDbScale
 70
     0
300
100:1
140
100.0
141
1.0
290
     0
  0
TABLESTYLE
  5
47
102
{ACAD_XDICTIONARY
360
48
102
}
102
{ACAD_REACTORS
330
35
102
}
330
35
100
AcDbTableStyle
280
     0
  3
Standard
 70
     0
 71
     0
 40
1.5
 41
1.5
280
     0
281
     0
  7
Standard
140
4.5
170
     2
 62
     0
 63
     7
283
     0
 90
        4
 91
        0
  1

274
    -2
284
     1
 64
     0
275
    -2
285
     1
 65
     0
276
    -2
286
     1
 66
     0
277
    -2
287
     1
 67
     0
278
    -2
288
     1
 68
     0
279
    -2
289
     1
 69
     0
  7
Standard
140
6.0
170
     5
 62
     0
 63
     7
283
     0
 90
        4
 91
        0
  1

274
    -2
284
     1
 64
     0
275
    -2
285
     1
 65
     0
276
    -2
286
     1
 66
     0
277
    -2
287
     1
 67
     0
278
    -2
288
     1
 68
     0
279
    -2
289
     1
 69
     0
  7
Standard
140
4.5
170
     5
 62
     0
 63
     7
283
     0
 90
        4
 91
        0
  1

274
    -2
284
     1
 64
     0
275
    -2
285
     1
 65
     0
276
    -2
286
     1
 66
     0
277
    -2
287
     1
 67
     0
278
    -2
288
     1
 68
     0
279
    -2
289
     1
 69
     0
  0
VISUALSTYLE
  5
25
102
{ACAD_REACTORS
330
26
102
}
330
26
100
AcDbVisualStyle
  2
2dWireframe
 70
     4
177
     3
291
     0
 70
    58
 90
        0
176
     1
 90
        2
176
     1
 90
        0
176
     1
 90
        0
176
     1
 40
0.6
176
     1
 40
30.0
176
     1
 62
     7
176
     1
 90
        1
176
     1
 90
        4
176
     1
 62
     7
176
     1
 62
   257
176
     1
 90
        1
176
     1
 90
        1
176
     1
 40
1.0
176
     1
 90
        0
176
     1
 62
   257
176
     1
 40
1.0
176
     1
 90
        1
176
     1
 90
        6
176
     1
 90
        2
176
     1
 62
     7
176
     1
 90
        5
176
     1
 90
        0
176
     1
 90
        0
176
     1
290
     0
176
     1
 90
        1
176
     1
 40
0.0
176
     1
 90
        0
176
     1
290
     1
176
     1
290
     1
176
     1
290
     0
176
     1
290
     0
176
     1
290
     0
176
     1
290
     0
176
     1
290
     0
176
     1
290
     0
176
     1
290
     0
176
     1
 90
       50
176
     1
 40
0.0
176
     1
 40
1.0
176
     1
 90
        0
176
     1
 62
    18
176
     1
 90
       50
176
     1
 90
        3
176
     1
 62
     5
420
      255
176
     1
290
     0
176
     1
 90
       50
176
     1
 90
       50
176
     1
 90
       50
176
     1
290
     0
176
     1
 90
       50
176
     1
 62
   256
176
     0
 40
1.0
176
     0
 90
        2
176
     1
  1
strokes_ogs.tif
176
     1
290
     0
176
     1
 40
1.0
176
     1
 40
1.0
176
     1
1001
ACAD
1000
AcRTDxfName
1000
VISUALSTYLE
1000
AcRTDxfName
1000
VISUALSTYLE
1000
AcRTDxfName
1000
VISUALSTYLE
1000
AcRTDxfName
1000
VISUALSTYLE
1000
AcRTDxfName
1000
VISUALSTYLE
1000
AcRTDxfName
1000
VISUALSTYLE
1000
AcRTDxfName
1000
VISUALSTYLE
1000
AcRTDxfName
1000
VISUALSTYLE
1000
AcRTDxfName
1000
VISUALSTYLE
1000
AcRTDxfName
1000
VISUALSTYLE
1000
AcRTDxfName
1000
VISUALSTYLE
1000
AcRTDxfName
1000
VISUALSTYLE
1000
AcRTDxfName
1000
VISUALSTYLE
1000
AcRTDxfName
1000
VISUALSTYLE
1000
AcRTDxfName
1000
VISUALSTYLE
1000
AcRTDxfName
1000
VISUALSTYLE
1000
AcRTDxfName
1000
VISUALSTYLE
1000
AcRTDxfName
1000
VISUALSTYLE
1000
AcRTDxfName
1000
VISUALSTYLE
1000
AcRTDxfName
1000
VISUALSTYLE
1000
AcRTDxfName
1000
VISUALSTYLE
1000
AcRTDxfName
1000
VISUALSTYLE
1000
AcRTDxfName
1000
VISUALSTYLE
1000
AcRTDxfName
1000
VISUALSTYLE
1000
AcRTDxfName
1000
VISUALSTYLE
1000
AcRTDxfName
1000
VISUALSTYLE
1000
AcRTDxfName
1000
VISUALSTYLE
1000
AcRTDxfName
1000
VISUALSTYLE
1000
AcRTDxfName
1000
VISUALSTYLE
1000
AcRTDxfName
1000
VISUALSTYLE
1000
AcRTDxfName
1000
VISUALSTYLE
1000
AcRTDxfName
1000
VISUALSTYLE
1000
AcRTDxfName
1000
VISUALSTYLE
1000
AcRTDxfName
1000
VISUALSTYLE
1000
AcRTDxfName
1000
VISUALSTYLE
  0
VISUALSTYLE
  5
49
102
{ACAD_REACTORS
330
26
102
}
330
26
100
AcDbVisualStyle
  2
Realistic
 70
     8
177
     3
291
     0
 70
    58
 90
        2
176
     1
 90
        2
176
     1
 90
        0
176
     1
 90
        0
176
     1
 40
0.6
176
     1
 40
30.0
176
     1
 62
     7
176
     1
 90
        1
176
     1
 90
        0
176
     1
 62
     7
176
     1
 62
   257
176
     1
 90
        1
176
     1
 90
        1
176
     1
 40
1.0
176
     1
 90
        8
176
     1
 62
     8
176
     1
 40
1.0
176
     1
 90
        1
176
     1
 90
        6
176
     1
 90
        2
176
     1
 62
     7
176
     1
 90
        5
176
     1
 90
        0
176
     1
 90
        0
176
     1
290
     0
176
     1
 90
       13
176
     1
 40
0.0
176
     1
 90
        0
176
     1
290
     0
176
     1
290
     1
176
     1
290
     1
176
     1
290
     0
176
     1
290
     0
176
     1
290
     0
176
     1
290
     0
176
     1
290
     0
176
     1
290
     0
176
     1
 90
       50
176
     1
 40
0.0
176
     1
 40
1.0
176
     1
 90
        0
176
     1
 62
    18
176
     1
 90
       50
176
     1
 90
        3
176
     1
 62
     5
420
      255
176
     1
290
     0
176
     1
 90
       50
176
     1
 90
       50
176
     1
 90
       50
176
     1
290
     0
176
     1
 90
       50
176
     1
 62
   256
176
     0
 40
1.0
176
     0
 90
        2
176
     1
  1
strokes_ogs.tif
176
     1
290
     0
176
     1
 40
1.0
176
     1
 40
1.0
176
     1
1001
ACAD
1000
AcRTDxfName
1000
VISUALSTYLE
1000
AcRTDxfName
1000
VISUALSTYLE
1000
AcRTDxfName
1000
VISUALSTYLE
1000
AcRTDxfName
1000
VISUALSTYLE
1000
AcRTDxfName
1000
VISUALSTYLE
1000
AcRTDxfName
1000
VISUALSTYLE
1000
AcRTDxfName
1000
VISUALSTYLE
1000
AcRTDxfName
1000
VISUALSTYLE
1000
AcRTDxfName
1000
VISUALSTYLE
1000
AcRTDxfName
1000
VISUALSTYLE
1000
AcRTDxfName
1000
VISUALSTYLE
1000
AcRTDxfName
1000
VISUALSTYLE
1000
AcRTDxfName
1000
VISUALSTYLE
1000
AcRTDxfName
1000
VISUALSTYLE
1000
AcRTDxfName
1000
VISUALSTYLE
1000
AcRTDxfName
1000
VISUALSTYLE
1000
AcRTDxfName
1000
VISUALSTYLE
1000
AcRTDxfName
1000
VISUALSTYLE
1000
AcRTDxfName
1000
VISUALSTYLE
1000
AcRTDxfName
1000
VISUALSTYLE
1000
AcRTDxfName
1000
VISUALSTYLE
1000
AcRTDxfName
1000
VISUALSTYLE
1000
AcRTDxfName
1000
VISUALSTYLE
1000
AcRTDxfName
1000
VISUALSTYLE
1000
AcRTDxfName
1000
VISUALSTYLE
1000
AcRTDxfName
1000
VISUALSTYLE
1000
AcRTDxfName
1000
VISUALSTYLE
1000
AcRTDxfName
1000
VISUALSTYLE
1000
AcRTDxfName
1000
VISUALSTYLE
1000
AcRTDxfName
1000
VISUALSTYLE
1000
AcRTDxfName
1000
VISUALSTYLE
1000
AcRTDxfName
1000
VISUALSTYLE
1000
AcRTDxfName
1000
VISUALSTYLE
1000
AcRTDxfName
1000
VISUALSTYLE
1000
AcRTDxfName
1000
VISUALSTYLE
  0
VISUALSTYLE
  5
4A
102
{ACAD_REACTORS
330
26
102
}
330
26
100
AcDbVisualStyle
  2
Wireframe
 70
     5
177
     3
291
     0
 70
    58
 90
        0
176
     1
 90
        2
176
     1
 90
        0
176
     1
 90
        0
176
     1
 40
0.6
176
     1
 40
30.0
176
     1
 62
     7
420
 16777215
176
     1
 90
        1
176
     1
 90
        4
176
     1
 62
     7
176
     1
 62
   257
176
     1
 90
        1
176
     1
 90
        1
176
     1
 40
1.0
176
     1
 90
        0
176
     1
 62
   257
176
     1
 40
1.0
176
     1
 90
        1
176
     1
 90
        6
176
     1
 90
        2
176
     1
 62
     7
176
     1
 90
        3
176
     1
 90
        0
176
     1
 90
        0
176
     1
290
     0
176
     1
 90
        1
176
     1
 40
0.0
176
     1
 90
        0
176
     1
290
     0
176
     1
290
     1
176
     1
290
     1
176
     1
290
     0
176
     1
290
     0
176
     1
290
     0
176
     1
290
     0
176
     1
290
     0
176
     1
290
     0
176
     1
 90
       50
176
     1
 40
0.0
176
     1
 40
1.0
176
     1
 90
        0
176
     1
 62
    18
176
     1
 90
       50
176
     1
 90
        3
176
     1
 62
     5
420
      255
176
     1
290
     0
176
     1
 90
       50
176
     1
 90
       50
176
     1
 90
       50
176
     1
290
     0
176
     1
 90
       50
176
     1
 62
   256
176
     0
 40
1.0
176
     0
 90
        2
176
     1
  1
strokes_ogs.tif
176
     1
290
     0
176
     1
 40
1.0
176
     1
 40
1.0
176
     1
  0
DICTIONARYVAR
  5
38
102
{ACAD_REACTORS
330
37
102
}
330
37
100
DictionaryVariables
280
     0
  1
1:1
  0
DICTIONARYVAR
  5
39
102
{ACAD_REACTORS
330
37
102
}
330
37
100
DictionaryVariables
280
     0
  1
STANDARD
  0
DICTIONARYVAR
  5
3A
102
{ACAD_REACTORS
330
37
102
}
330
37
100
DictionaryVariables
280
     0
  1
STANDARD
  0
DICTIONARYVAR
  5
3B
102
{ACAD_REACTORS
330
37
102
}
330
37
100
DictionaryVariables
280
     0
  1

  0
DICTIONARYVAR
  5
3C
102
{ACAD_REACTORS
330
37
102
}
330
37
100
DictionaryVariables
280
     0
  1

  0
DICTIONARYVAR
  5
3D
102
{ACAD_REACTORS
330
37
102
}
330
37
100
DictionaryVariables
280
     0
  1
2
  0
DICTIONARYVAR
  5
3E
102
{ACAD_REACTORS
330
37
102
}
330
37
100
DictionaryVariables
280
     0
  1
1
  0
DICTIONARYVAR
  5
3F
102
{ACAD_REACTORS
330
37
102
}
330
37
100
DictionaryVariables
280
     0
  1
0
  0
DICTIONARYVAR
  5
40
102
{ACAD_REACTORS
330
37
102
}
330
37
100
DictionaryVariables
280
     0
  1
1
  0
DICTIONARYVAR
  5
41
102
{ACAD_REACTORS
330
37
102
}
330
37
100
DictionaryVariables
280
     0
  1
15
  0
DICTIONARYVAR
  5
42
102
{ACAD_REACTORS
330
37
102
}
330
37
100
DictionaryVariables
280
     0
  1
0
  0
DICTIONARYVAR
  5
43
102
{ACAD_REACTORS
330
37
102
}
330
37
100
DictionaryVariables
280
     0
  1
0
  0
DICTIONARYVAR
  5
44
102
{ACAD_REACTORS
330
37
102
}
330
37
100
DictionaryVariables
280
     0
  1

  0
DICTIONARYVAR
  5
45
102
{ACAD_REACTORS
330
37
102
}
330
37
100
DictionaryVariables
280
     0
  1
127
  0
DICTIONARY
  5
48
330
47
100
AcDbDictionary
280
     1
281
     1
  3
ACAD_ROUNDTRIP_2008_TABLESTYLE_CELLSTYLEMAP
360
2A8
  0
CELLSTYLEMAP
  5
2A8
102
{ACAD_REACTORS
330
48
102
}
330
48
100
AcDbCellStyleMap
 90
        3
300
CELLSTYLE
  1
TABLEFORMAT_BEGIN
 90
        5
170
     1
 91
        0
 92
    32768
 62
   257
 93
        1
300
CONTENTFORMAT
  1
CONTENTFORMAT_BEGIN
 90
        0
 91
        0
 92
        4
 93
        0
300

 40
0.0
140
1.0
 94
        5
 62
     0
340
1C
144
6.0
309
CONTENTFORMAT_END
171
     1
301
MARGIN
  1
CELLMARGIN_BEGIN
 40
1.5
 40
1.5
 40
1.5
 40
1.5
 40
0.18
 40
0.18
309
CELLMARGIN_END
 94
        6
 95
        1
302
GRIDFORMAT
  1
GRIDFORMAT_BEGIN
 90
        0
 91
        1
 62
     0
 92
       -2
340
0
 93
        0
 40
0.045
309
GRIDFORMAT_END
 95
        2
302
GRIDFORMAT
  1
GRIDFORMAT_BEGIN
 90
        0
 91
        1
 62
     0
 92
       -2
340
0
 93
        0
 40
0.045
309
GRIDFORMAT_END
 95
        4
302
GRIDFORMAT
  1
GRIDFORMAT_BEGIN
 90
        0
 91
        1
 62
     0
 92
       -2
340
0
 93
        0
 40
0.045
309
GRIDFORMAT_END
 95
        8
302
GRIDFORMAT
  1
GRIDFORMAT_BEGIN
 90
        0
 91
        1
 62
     0
 92
       -2
340
0
 93
        0
 40
0.045
309
GRIDFORMAT_END
 95
       16
302
GRIDFORMAT
  1
GRIDFORMAT_BEGIN
 90
        0
 91
        1
 62
     0
 92
       -2
340
0
 93
        0
 40
0.045
309
GRIDFORMAT_END
 95
       32
302
GRIDFORMAT
  1
GRIDFORMAT_BEGIN
 90
        0
 91
        1
 62
     0
 92
       -2
340
0
 93
        0
 40
0.045
309
GRIDFORMAT_END
309
TABLEFORMAT_END
  1
CELLSTYLE_BEGIN
 90
        1
 91
        1
300
_TITLE
309
CELLSTYLE_END
300
CELLSTYLE
  1
TABLEFORMAT_BEGIN
 90
        5
170
     1
 91
        0
 92
        0
 62
   257
 93
        1
300
CONTENTFORMAT
  1
CONTENTFORMAT_BEGIN
 90
        0
 91
        0
 92
        4
 93
        0
300

 40
0.0
140
1.0
 94
        5
 62
     0
340
1C
144
4.5
309
CONTENTFORMAT_END
171
     1
301
MARGIN
  1
CELLMARGIN_BEGIN
 40
1.5
 40
1.5
 40
1.5
 40
1.5
 40
0.18
 40
0.18
309
CELLMARGIN_END
 94
        6
 95
        1
302
GRIDFORMAT
  1
GRIDFORMAT_BEGIN
 90
        0
 91
        1
 62
     0
 92
       -2
340
0
 93
        0
 40
0.045
309
GRIDFORMAT_END
 95
        2
302
GRIDFORMAT
  1
GRIDFORMAT_BEGIN
 90
        0
 91
        1
 62
     0
 92
       -2
340
0
 93
        0
 40
0.045
309
GRIDFORMAT_END
 95
        4
302
GRIDFORMAT
  1
GRIDFORMAT_BEGIN
 90
        0
 91
        1
 62
     0
 92
       -2
340
0
 93
        0
 40
0.045
309
GRIDFORMAT_END
 95
        8
302
GRIDFORMAT
  1
GRIDFORMAT_BEGIN
 90
        0
 91
        1
 62
     0
 92
       -2
340
0
 93
        0
 40
0.045
309
GRIDFORMAT_END
 95
       16
302
GRIDFORMAT
  1
GRIDFORMAT_BEGIN
 90
        0
 91
        1
 62
     0
 92
       -2
340
0
 93
        0
 40
0.045
309
GRIDFORMAT_END
 95
       32
302
GRIDFORMAT
  1
GRIDFORMAT_BEGIN
 90
        0
 91
        1
 62
     0
 92
       -2
340
0
 93
        0
 40
0.045
309
GRIDFORMAT_END
309
TABLEFORMAT_END
  1
CELLSTYLE_BEGIN
 90
        2
 91
        1
300
_HEADER
309
CELLSTYLE_END
300
CELLSTYLE
  1
TABLEFORMAT_BEGIN
 90
        5
170
     1
 91
        0
 92
        0
 62
   257
 93
        1
300
CONTENTFORMAT
  1
CONTENTFORMAT_BEGIN
 90
        0
 91
        0
 92
        4
 93
        0
300

 40
0.0
140
1.0
 94
        2
 62
     0
340
1C
144
4.5
309
CONTENTFORMAT_END
171
     1
301
MARGIN
  1
CELLMARGIN_BEGIN
 40
1.5
 40
1.5
 40
1.5
 40
1.5
 40
0.18
 40
0.18
309
CELLMARGIN_END
 94
        6
 95
        1
302
GRIDFORMAT
  1
GRIDFORMAT_BEGIN
 90
        0
 91
        1
 62
     0
 92
       -2
340
0
 93
        0
 40
0.045
309
GRIDFORMAT_END
 95
        2
302
GRIDFORMAT
  1
GRIDFORMAT_BEGIN
 90
        0
 91
        1
 62
     0
 92
       -2
340
0
 93
        0
 40
0.045
309
GRIDFORMAT_END
 95
        4
302
GRIDFORMAT
  1
GRIDFORMAT_BEGIN
 90
        0
 91
        1
 62
     0
 92
       -2
340
0
 93
        0
 40
0.045
309
GRIDFORMAT_END
 95
        8
302
GRIDFORMAT
  1
GRIDFORMAT_BEGIN
 90
        0
 91
        1
 62
     0
 92
       -2
340
0
 93
        0
 40
0.045
309
GRIDFORMAT_END
 95
       16
302
GRIDFORMAT
  1
GRIDFORMAT_BEGIN
 90
        0
 91
        1
 62
     0
 92
       -2
340
0
 93
        0
 40
0.045
309
GRIDFORMAT_END
 95
       32
302
GRIDFORMAT
  1
GRIDFORMAT_BEGIN
 90
        0
 91
        1
 62
     0
 92
       -2
340
0
 93
        0
 40
0.045
309
GRIDFORMAT_END
309
TABLEFORMAT_END
  1
CELLSTYLE_BEGIN
 90
        3
 91
        2
300
_DATA
309
CELLSTYLE_END
  0
ENDSEC
  0
EOF
