  0
SECTION
  2
HEADER
  9
$ACADVER
  1
AC1032
  9
$ACADMAINTVER
 90
      248
  9
$DWGCODEPAGE
  3
ANSI_936
  9
$REQUIREDVERSIONS
160
                 0
  9
$INSBASE
 10
0.0
 20
0.0
 30
0.0
  9
$EXTMIN
 10
-27000.01753793431
 20
17307.57511628894
 30
0.0
  9
$EXTMAX
 10
-26991.58284862125
 20
17312.32246259517
 30
0.0000000000001635
  9
$LIMMIN
 10
0.0
 20
0.0
  9
$LIMMAX
 10
12.0
 20
9.0
  9
$ORTHOMODE
 70
     1
  9
$REGENMODE
 70
     1
  9
$FILLMODE
 70
     1
  9
$QTEXTMODE
 70
     0
  9
$MIRRTEXT
 70
     1
  9
$LTSCALE
 40
1.0
  9
$ATTMODE
 70
     1
  9
$TEXTSIZE
 40
0.2
  9
$TRACEWID
 40
0.05
  9
$TEXTSTYLE
  7
Standard
  9
$CLAYER
  8
3D
  9
$CELTYPE
  6
ByLayer
  9
$CECOLOR
 62
   256
  9
$CELTSCALE
 40
1.0
  9
$DISPSILH
 70
     0
  9
$DIMSCALE
 40
1.0
  9
$DIMASZ
 40
0.006
  9
$DIMEXO
 40
0.002
  9
$DIMDLI
 40
0.002
  9
$DIMRND
 40
0.0
  9
$DIMDLE
 40
0.0
  9
$DIMEXE
 40
0.002
  9
$DIMTP
 40
0.0
  9
$DIMTM
 40
0.0
  9
$DIMTXT
 40
0.006
  9
$DIMCEN
 40
0.009
  9
$DIMTSZ
 40
0.0
  9
$DIMTOL
 70
     0
  9
$DIMLIM
 70
     0
  9
$DIMTIH
 70
     0
  9
$DIMTOH
 70
     0
  9
$DIMSE1
 70
     0
  9
$DIMSE2
 70
     0
  9
$DIMTAD
 70
     0
  9
$DIMZIN
 70
     0
  9
$DIMBLK
  1

  9
$DIMASO
 70
     0
  9
$DIMSHO
 70
     1
  9
$DIMPOST
  1

  9
$DIMAPOST
  1

  9
$DIMALT
 70
     0
  9
$DIMALTD
 70
     2
  9
$DIMALTF
 40
25.4
  9
$DIMLFAC
 40
1.0
  9
$DIMTOFL
 70
     1
  9
$DIMTVP
 40
0.0
  9
$DIMTIX
 70
     0
  9
$DIMSOXD
 70
     0
  9
$DIMSAH
 70
     0
  9
$DIMBLK1
  1

  9
$DIMBLK2
  1

  9
$DIMSTYLE
  2
1D
  9
$DIMCLRD
 70
   256
  9
$DIMCLRE
 70
   256
  9
$DIMCLRT
 70
   256
  9
$DIMTFAC
 40
1.0
  9
$DIMGAP
 40
0.002
  9
$DIMJUST
 70
     0
  9
$DIMSD1
 70
     0
  9
$DIMSD2
 70
     0
  9
$DIMTOLJ
 70
     1
  9
$DIMTZIN
 70
     0
  9
$DIMALTZ
 70
     0
  9
$DIMALTTZ
 70
     0
  9
$DIMUPT
 70
     0
  9
$DIMDEC
 70
     4
  9
$DIMTDEC
 70
     4
  9
$DIMALTU
 70
     2
  9
$DIMALTTD
 70
     2
  9
$DIMTXSTY
  7
Standard
  9
$DIMAUNIT
 70
     0
  9
$DIMADEC
 70
     0
  9
$DIMALTRND
 40
0.0
  9
$DIMAZIN
 70
     0
  9
$DIMDSEP
 70
    46
  9
$DIMATFIT
 70
     3
  9
$DIMFRAC
 70
     0
  9
$DIMLDRBLK
  1

  9
$DIMLUNIT
 70
     2
  9
$DIMLWD
 70
    -1
  9
$DIMLWE
 70
    -1
  9
$DIMTMOVE
 70
     0
  9
$DIMFXL
 40
0.0072
  9
$DIMFXLON
 70
     0
  9
$DIMJOGANG
 40
0.7853981633974483
  9
$DIMTFILL
 70
     0
  9
$DIMTFILLCLR
 70
     0
  9
$DIMARCSYM
 70
     0
  9
$DIMLTYPE
  6
ByLayer
  9
$DIMLTEX1
  6
ByLayer
  9
$DIMLTEX2
  6
ByLayer
  9
$DIMTXTDIRECTION
 70
     0
  9
$LUNITS
 70
     2
  9
$LUPREC
 70
     8
  9
$SKETCHINC
 40
0.1
  9
$FILLETRAD
 40
0.0019685
  9
$AUNITS
 70
     0
  9
$AUPREC
 70
     0
  9
$MENU
  1
.
  9
$ELEVATION
 40
0.0
  9
$PELEVATION
 40
0.0
  9
$THICKNESS
 40
0.0
  9
$LIMCHECK
 70
     0
  9
$CHAMFERA
 40
0.0
  9
$CHAMFERB
 40
0.0
  9
$CHAMFERC
 40
1.0
  9
$CHAMFERD
 40
0.0
  9
$SKPOLY
 70
     0
  9
$TDCREATE
 40
2453883.125682871
  9
$TDUCREATE
 40
2453882.792357350
  9
$TDUPDATE
 40
2460607.487326389
  9
$TDUUPDATE
 40
2460607.153993056
  9
$TDINDWG
 40
4.8854820255
  9
$TDUSRTIMER
 40
4.8854820255
  9
$USRTIMER
 70
     1
  9
$ANGBASE
 50
0.0
  9
$ANGDIR
 70
     0
  9
$PDMODE
 70
     0
  9
$PDSIZE
 40
0.0
  9
$PLINEWID
 40
0.0
  9
$SPLFRAME
 70
     0
  9
$SPLINETYPE
 70
     6
  9
$SPLINESEGS
 70
     8
  9
$HANDSEED
  5
206
  9
$SURFTAB1
 70
     6
  9
$SURFTAB2
 70
     6
  9
$SURFTYPE
 70
     6
  9
$SURFU
 70
     6
  9
$SURFV
 70
     6
  9
$UCSBASE
  2

  9
$UCSNAME
  2

  9
$UCSORG
 10
0.0
 20
0.0
 30
0.0
  9
$UCSXDIR
 10
1.0
 20
0.0
 30
0.0
  9
$UCSYDIR
 10
0.0
 20
1.0
 30
0.0
  9
$UCSORTHOREF
  2

  9
$UCSORTHOVIEW
 70
     0
  9
$UCSORGTOP
 10
0.0
 20
0.0
 30
0.0
  9
$UCSORGBOTTOM
 10
0.0
 20
0.0
 30
0.0
  9
$UCSORGLEFT
 10
0.0
 20
0.0
 30
0.0
  9
$UCSORGRIGHT
 10
0.0
 20
0.0
 30
0.0
  9
$UCSORGFRONT
 10
0.0
 20
0.0
 30
0.0
  9
$UCSORGBACK
 10
0.0
 20
0.0
 30
0.0
  9
$PUCSBASE
  2

  9
$PUCSNAME
  2

  9
$PUCSORG
 10
0.0
 20
0.0
 30
0.0
  9
$PUCSXDIR
 10
1.0
 20
0.0
 30
0.0
  9
$PUCSYDIR
 10
0.0
 20
1.0
 30
0.0
  9
$PUCSORTHOREF
  2

  9
$PUCSORTHOVIEW
 70
     0
  9
$PUCSORGTOP
 10
0.0
 20
0.0
 30
0.0
  9
$PUCSORGBOTTOM
 10
0.0
 20
0.0
 30
0.0
  9
$PUCSORGLEFT
 10
0.0
 20
0.0
 30
0.0
  9
$PUCSORGRIGHT
 10
0.0
 20
0.0
 30
0.0
  9
$PUCSORGFRONT
 10
0.0
 20
0.0
 30
0.0
  9
$PUCSORGBACK
 10
0.0
 20
0.0
 30
0.0
  9
$USERI1
 70
     0
  9
$USERI2
 70
     0
  9
$USERI3
 70
     0
  9
$USERI4
 70
     0
  9
$USERI5
 70
     0
  9
$USERR1
 40
0.0
  9
$USERR2
 40
0.0
  9
$USERR3
 40
0.0
  9
$USERR4
 40
0.0
  9
$USERR5
 40
0.0
  9
$WORLDVIEW
 70
     1
  9
$SHADEDGE
 70
     3
  9
$SHADEDIF
 70
    70
  9
$TILEMODE
 70
     1
  9
$MAXACTVP
 70
    64
  9
$PINSBASE
 10
0.0
 20
0.0
 30
0.0
  9
$PLIMCHECK
 70
     0
  9
$PEXTMIN
 10
1.06666659370182
 20
0.8166666875674033
 30
0.0
  9
$PEXTMAX
 10
9.599999343316387
 20
7.350000188106627
 30
0.0
  9
$PLIMMIN
 10
-0.1666668268639272
 20
-0.166666657905879
  9
$PLIMMAX
 10
10.83333293284018
 20
8.333333101798231
  9
$UNITMODE
 70
     0
  9
$VISRETAIN
 70
     1
  9
$PLINEGEN
 70
     0
  9
$PSLTSCALE
 70
     1
  9
$TREEDEPTH
 70
  3020
  9
$CMLSTYLE
  2
Standard
  9
$CMLJUST
 70
     0
  9
$CMLSCALE
 40
1.0
  9
$PROXYGRAPHICS
 70
     1
  9
$MEASUREMENT
 70
     0
  9
$CELWEIGHT
370
    -1
  9
$ENDCAPS
280
     0
  9
$JOINSTYLE
280
     0
  9
$LWDISPLAY
290
     0
  9
$INSUNITS
 70
     1
  9
$HYPERLINKBASE
  1

  9
$STYLESHEET
  1

  9
$XEDIT
290
     1
  9
$CEPSNTYPE
380
     0
  9
$PSTYLEMODE
290
     1
  9
$FINGERPRINTGUID
  2
{890898EC-3872-C14B-84FF-0ABF81242E6A}
  9
$VERSIONGUID
  2
{E65D35C4-3594-48B9-B688-FBEA117A17EC}
  9
$EXTNAMES
290
     1
  9
$PSVPSCALE
 40
0.0
  9
$OLESTARTUP
290
     0
  9
$SORTENTS
280
   127
  9
$INDEXCTL
280
     0
  9
$HIDETEXT
280
     1
  9
$XCLIPFRAME
280
     2
  9
$HALOGAP
280
     0
  9
$OBSCOLOR
 70
   257
  9
$OBSLTYPE
280
     0
  9
$INTERSECTIONDISPLAY
280
     0
  9
$INTERSECTIONCOLOR
 70
   257
  9
$DIMASSOC
280
     0
  9
$PROJECTNAME
  1

  9
$CAMERADISPLAY
290
     0
  9
$LENSLENGTH
 40
50.0
  9
$CAMERAHEIGHT
 40
0.0
  9
$STEPSPERSEC
 40
2.0
  9
$STEPSIZE
 40
6.0
  9
$3DDWFPREC
 40
2.0
  9
$PSOLWIDTH
 40
0.25
  9
$PSOLHEIGHT
 40
4.0
  9
$LOFTANG1
 40
1.570796326794896
  9
$LOFTANG2
 40
1.570796326794896
  9
$LOFTMAG1
 40
0.0
  9
$LOFTMAG2
 40
0.0
  9
$LOFTPARAM
 70
     7
  9
$LOFTNORMALS
280
     1
  9
$LATITUDE
 40
37.795
  9
$LONGITUDE
 40
-122.394
  9
$NORTHDIRECTION
 40
0.0
  9
$TIMEZONE
 70
 -8000
  9
$LIGHTGLYPHDISPLAY
280
     1
  9
$TILEMODELIGHTSYNCH
280
     1
  9
$CMATERIAL
347
35
  9
$SOLIDHIST
280
     0
  9
$SHOWHIST
280
     1
  9
$DWFFRAME
280
     2
  9
$DGNFRAME
280
     0
  9
$REALWORLDSCALE
290
     1
  9
$INTERFERECOLOR
 62
     1
  9
$INTERFEREOBJVS
345
50
  9
$INTERFEREVPVS
346
51
  9
$CSHADOW
280
     0
  9
$SHADOWPLANELOCATION
 40
0.0
  0
ENDSEC
  0
SECTION
  2
CLASSES
  0
CLASS
  1
ACDBDICTIONARYWDFLT
  2
AcDbDictionaryWithDefault
  3
ObjectDBX Classes
 90
        0
 91
        1
280
     0
281
     0
  0
CLASS
  1
DICTIONARYVAR
  2
AcDbDictionaryVar
  3
ObjectDBX Classes
 90
        0
 91
       13
280
     0
281
     0
  0
CLASS
  1
TABLESTYLE
  2
AcDbTableStyle
  3
ObjectDBX Classes
 90
     4095
 91
        1
280
     0
281
     0
  0
CLASS
  1
SORTENTSTABLE
  2
AcDbSortentsTable
  3
ObjectDBX Classes
 90
        0
 91
        2
280
     0
281
     0
  0
CLASS
  1
MATERIAL
  2
AcDbMaterial
  3
ObjectDBX Classes
 90
     1153
 91
        3
280
     0
281
     0
  0
CLASS
  1
VISUALSTYLE
  2
AcDbVisualStyle
  3
ObjectDBX Classes
 90
     4095
 91
        3
280
     0
281
     0
  0
CLASS
  1
DIMASSOC
  2
AcDbDimAssoc
  3
"AcDbDimAssoc|Product Desc:     AcDim ARX App For Dimension|Company:          Autodesk, Inc.|WEB Address:      www.autodesk.com"
 90
        0
 91
        0
280
     0
281
     0
  0
CLASS
  1
SCALE
  2
AcDbScale
  3
ObjectDBX Classes
 90
     1153
 91
       17
280
     0
281
     0
  0
CLASS
  1
MLEADERSTYLE
  2
AcDbMLeaderStyle
  3
ACDB_MLEADERSTYLE_CLASS
 90
     4095
 91
        0
280
     0
281
     0
  0
CLASS
  1
ACDBSECTIONVIEWSTYLE
  2
AcDbSectionViewStyle
  3
ObjectDBX Classes
 90
     1025
 91
        0
280
     0
281
     0
  0
CLASS
  1
ACDBDETAILVIEWSTYLE
  2
AcDbDetailViewStyle
  3
ObjectDBX Classes
 90
     1025
 91
        0
280
     0
281
     0
  0
CLASS
  1
CELLSTYLEMAP
  2
AcDbCellStyleMap
  3
ObjectDBX Classes
 90
     1152
 91
        1
280
     0
281
     0
  0
CLASS
  1
SOLID_BACKGROUND
  2
AcDbSolidBackground
  3
SCENEOE
 90
     4095
 91
        0
280
     0
281
     0
  0
CLASS
  1
NPOCOLLECTION
  2
AcDbImpNonPersistentObjectsCollection
  3
ObjectDBX Classes
 90
     1153
 91
        0
280
     0
281
     0
  0
ENDSEC
  0
SECTION
  2
TABLES
  0
TABLE
  2
VPORT
  5
26
102
{ACAD_XDICTIONARY
360
2B
102
}
330
0
100
AcDbSymbolTable
 70
     1
  0
VPORT
  5
27
330
26
100
AcDbSymbolTableRecord
100
AcDbViewportTableRecord
  2
*Active
 70
     0
 10
0.0
 20
0.0
 11
1.0
 21
1.0
 12
-26995.62965480771
 22
17311.7609158205
 13
0.0
 23
0.0
 14
0.5
 24
0.5
 15
0.5
 25
0.5
 16
0.0
 26
0.0
 36
1.0
 17
0.0
 27
0.0
 37
0.0
 40
1.25614156649317
 41
2.570850202429149
 42
50.0
 43
0.0
 44
0.0
 50
0.0
 51
0.0
 71
     0
 72
   100
 73
     1
 74
     2
 75
     0
 76
     0
 77
     0
 78
     0
281
     0
 65
     1
110
0.0
120
0.0
130
0.0
111
1.0
121
0.0
131
0.0
112
0.0
122
1.0
132
0.0
 79
     0
146
0.0
348
28
 60
     3
 61
     5
292
     1
282
     1
141
0.0
142
0.0
 63
   250
421
  3355443
1001
ACAD_NAV_VCDISPLAY
1070
     3
  0
ENDTAB
  0
TABLE
  2
LTYPE
  5
21
330
0
100
AcDbSymbolTable
 70
     3
  0
LTYPE
  5
22
330
21
100
AcDbSymbolTableRecord
100
AcDbLinetypeTableRecord
  2
ByBlock
 70
     0
  3

 72
    65
 73
     0
 40
0.0
  0
LTYPE
  5
23
330
21
100
AcDbSymbolTableRecord
100
AcDbLinetypeTableRecord
  2
ByLayer
 70
     0
  3

 72
    65
 73
     0
 40
0.0
  0
LTYPE
  5
E
330
21
100
AcDbSymbolTableRecord
100
AcDbLinetypeTableRecord
  2
Continuous
 70
     0
  3
Solid line
 72
    65
 73
     0
 40
0.0
  0
LTYPE
  5
64
330
21
100
AcDbSymbolTableRecord
100
AcDbLinetypeTableRecord
  2
CENTER
 70
     0
  3
Center ____ _ ____ _ ____ _ ____ _ ____ _ ____
 72
    65
 73
     4
 40
2.0
 49
1.25
 74
     0
 49
-0.25
 74
     0
 49
0.25
 74
     0
 49
-0.25
 74
     0
  0
LTYPE
  5
6F
330
21
100
AcDbSymbolTableRecord
100
AcDbLinetypeTableRecord
  2
DASHED
 70
     0
  3
Dashed __ __ __ __ __ __ __ __ __ __ __ __ __ _
 72
    65
 73
     2
 40
0.75
 49
0.5
 74
     0
 49
-0.25
 74
     0
  0
ENDTAB
  0
TABLE
  2
LAYER
  5
18
102
{ACAD_XDICTIONARY
360
19
102
}
330
0
100
AcDbSymbolTable
 70
     4
  0
LAYER
  5
6
102
{ACAD_XDICTIONARY
360
7
102
}
330
18
100
AcDbSymbolTableRecord
100
AcDbLayerTableRecord
  2
0
 70
     0
 62
     7
  6
Continuous
370
    -3
390
9
347
C
348
0
  0
LAYER
  5
9A
102
{ACAD_XDICTIONARY
360
9B
102
}
330
18
100
AcDbSymbolTableRecord
100
AcDbLayerTableRecord
  2
1
 70
     0
 62
     7
  6
Continuous
370
    -3
390
9
347
C
348
0
  0
LAYER
  5
93
102
{ACAD_XDICTIONARY
360
94
102
}
330
18
100
AcDbSymbolTableRecord
100
AcDbLayerTableRecord
  2
1D
 70
     0
 62
     4
  6
Continuous
370
    -3
390
9
347
C
348
0
  0
LAYER
  5
49
102
{ACAD_XDICTIONARY
360
4A
102
}
330
18
100
AcDbSymbolTableRecord
100
AcDbLayerTableRecord
  2
3D
 70
     0
 62
     4
  6
Continuous
370
    -3
390
9
347
C
348
0
1001
AcAecLayerStandard
1000

1000

  0
ENDTAB
  0
TABLE
  2
STYLE
  5
1E
330
0
100
AcDbSymbolTable
 70
     2
  0
STYLE
  5
1F
330
1E
100
AcDbSymbolTableRecord
100
AcDbTextStyleTableRecord
  2
Standard
 70
     0
 40
0.0
 41
1.0
 50
0.0
 71
     0
 42
0.2
  3
txt
  4

  0
STYLE
  5
6D
330
1E
100
AcDbSymbolTableRecord
100
AcDbTextStyleTableRecord
  2
SIMPLEX
 70
     0
 40
0.0
 41
1.0
 50
0.0
 71
     0
 42
0.2
  3
SIMPLEX
  4

  0
ENDTAB
  0
TABLE
  2
VIEW
  5
24
330
0
100
AcDbSymbolTable
 70
     0
  0
ENDTAB
  0
TABLE
  2
UCS
  5
25
330
0
100
AcDbSymbolTable
 70
     0
  0
ENDTAB
  0
TABLE
  2
APPID
  5
2C
330
0
100
AcDbSymbolTable
 70
     5
  0
APPID
  5
1D
330
2C
100
AcDbSymbolTableRecord
100
AcDbRegAppTableRecord
  2
ACAD
 70
     0
  0
APPID
  5
2F
330
2C
100
AcDbSymbolTableRecord
100
AcDbRegAppTableRecord
  2
ACAD_DSTYLE_DIMJOGGED_JOGANGLE_SYMBOL
 70
     0
  0
APPID
  5
12
330
2C
100
AcDbSymbolTableRecord
100
AcDbRegAppTableRecord
  2
ACAD_PSEXT
 70
     0
  0
APPID
  5
4C
330
2C
100
AcDbSymbolTableRecord
100
AcDbRegAppTableRecord
  2
AcAecLayerStandard
 70
     0
  0
APPID
  5
2A
330
2C
100
AcDbSymbolTableRecord
100
AcDbRegAppTableRecord
  2
ACAD_NAV_VCDISPLAY
 70
     0
  0
ENDTAB
  0
TABLE
  2
DIMSTYLE
  5
2D
330
0
100
AcDbSymbolTable
 70
     2
100
AcDbDimStyleTable
 71
     2
340
2E
340
30
  0
DIMSTYLE
105
30
330
2D
100
AcDbSymbolTableRecord
100
AcDbDimStyleTableRecord
  2
Standard
 70
     0
 41
0.006
 42
0.002
 43
0.002
 44
0.002
 49
0.0072
 73
     0
 74
     0
140
0.006
141
0.009
147
0.002
172
     1
289
     0
340
1F
1001
ACAD_DSTYLE_DIMJOGGED_JOGANGLE_SYMBOL
1070
   384
1040
0.7853981633974483
  0
DIMSTYLE
105
2E
330
2D
100
AcDbSymbolTableRecord
100
AcDbDimStyleTableRecord
  2
1D
 70
     0
 41
0.006
 42
0.002
 43
0.002
 44
0.002
 49
0.0072
 73
     0
 74
     0
140
0.006
141
0.009
147
0.002
172
     1
176
   256
177
   256
178
   256
340
1F
345
23
346
23
347
23
371
    -1
372
    -1
1001
ACAD_DSTYLE_DIMJOGGED_JOGANGLE_SYMBOL
1070
   384
1040
0.7853981633974483
  0
ENDTAB
  0
TABLE
  2
BLOCK_RECORD
  5
1
330
0
100
AcDbSymbolTable
 70
     0
  0
BLOCK_RECORD
  5
2
102
{ACAD_XDICTIONARY
360
3
102
}
330
1
100
AcDbSymbolTableRecord
100
AcDbBlockTableRecord
  2
*Model_Space
340
10
 70
     0
280
     1
281
     0
  0
BLOCK_RECORD
  5
13
330
1
100
AcDbSymbolTableRecord
100
AcDbBlockTableRecord
  2
*Paper_Space
340
16
 70
     0
280
     1
281
     0
  0
ENDTAB
  0
ENDSEC
  0
SECTION
  2
BLOCKS
  0
BLOCK
  5
5
330
2
100
AcDbEntity
  8
0
100
AcDbBlockBegin
  2
*Model_Space
 70
     0
 10
0.0
 20
0.0
 30
0.0
  3
*Model_Space
  1

  0
ENDBLK
  5
F
330
2
100
AcDbEntity
  8
0
100
AcDbBlockEnd
  0
BLOCK
  5
14
330
13
100
AcDbEntity
 67
     1
  8
0
100
AcDbBlockBegin
  2
*Paper_Space
 70
     0
 10
0.0
 20
0.0
 30
0.0
  3
*Paper_Space
  1

  0
ENDBLK
  5
15
330
13
100
AcDbEntity
 67
     1
  8
0
100
AcDbBlockEnd
  0
ENDSEC
  0
SECTION
  2
ENTITIES
  0
LINE
  5
63
330
2
100
AcDbEntity
  8
3D
  6
CENTER
 48
0.09
100
AcDbLine
 10
0.9876560375050758
 20
-0.3232926679920638
 30
0.0
 11
0.9876560375050758
 21
-0.1251650645681366
 31
0.0
  0
LINE
  5
65
330
2
100
AcDbEntity
  8
3D
  6
CENTER
 48
0.09
100
AcDbLine
 10
1.086719839207944
 20
-0.2242288662819192
 30
0.0
 11
0.8885922357949311
 21
-0.2242288662819192
 31
0.0
  0
TEXT
  5
66
330
2
100
AcDbEntity
  8
3D
100
AcDbText
 10
0.9213180331774648
 20
-0.502414721533498
 30
0.0
 40
0.0082499998532914
  1
MIN PLATING AREA
 72
     2
 11
1.045068030976835
 21
-0.4982897216068523
 31
0.0
100
AcDbText
 73
     2
  0
HATCH
  5
67
330
2
100
AcDbEntity
  8
3D
100
AcDbHatch
 10
0.0
 20
0.0
 30
0.0
210
0.0
220
0.0
230
1.0
  2
DOTS
 70
     0
 71
     1
 91
        1
 92
        1
 93
        4
 72
     1
 10
0.869176690630411
 20
-0.5155125889286865
 11
0.9063677875965368
 21
-0.5155125889286865
 72
     1
 10
0.9063677875965368
 20
-0.5155125889286865
 11
0.9063677875965368
 21
-0.48390394073067
 72
     1
 10
0.9063677875965368
 20
-0.48390394073067
 11
0.869176690630411
 21
-0.48390394073067
 72
     1
 10
0.869176690630411
 20
-0.48390394073067
 11
0.869176690630411
 21
-0.5155125889286865
 97
        4
330
6B
330
68
330
6A
330
69
 75
     0
 76
     1
 52
0.0
 41
0.055
 77
     0
 78
     1
 53
0.0
 43
-1.796592062510171
 44
-2.422292927709349
 45
0.00171875
 46
0.0034375
 79
     2
 49
0.0
 49
-0.0034375
 98
        1
 10
-1.796592062510171
 20
-2.422292927709349
1001
ACAD
1010
0.0
1020
0.0
1030
0.0
  0
LINE
  5
68
102
{ACAD_REACTORS
330
67
102
}
330
2
100
AcDbEntity
  8
3D
 62
     7
100
AcDbLine
 10
0.9063677875965368
 20
-0.5155125889286865
 30
0.0
 11
0.9063677875965368
 21
-0.48390394073067
 31
0.0
  0
LINE
  5
69
102
{ACAD_REACTORS
330
67
102
}
330
2
100
AcDbEntity
  8
3D
 62
     7
100
AcDbLine
 10
0.869176690630411
 20
-0.48390394073067
 30
0.0
 11
0.869176690630411
 21
-0.5155125889286865
 31
0.0
  0
LINE
  5
6A
102
{ACAD_REACTORS
330
67
102
}
330
2
100
AcDbEntity
  8
3D
 62
     7
100
AcDbLine
 10
0.9063677875965368
 20
-0.48390394073067
 30
0.0
 11
0.869176690630411
 21
-0.48390394073067
 31
0.0
  0
LINE
  5
6B
102
{ACAD_REACTORS
330
67
102
}
330
2
100
AcDbEntity
  8
3D
 62
     7
100
AcDbLine
 10
0.869176690630411
 20
-0.5155125889286865
 30
0.0
 11
0.9063677875965368
 21
-0.5155125889286865
 31
0.0
  0
TEXT
  5
6C
330
2
100
AcDbEntity
  8
3D
 62
     4
100
AcDbText
 10
0.7734601805568373
 20
0.16927501885948
 30
0.0
 40
0.0139404702008479
  1
%%USINGLE-RING PLATING ON TOP
  7
SIMPLEX
 72
     2
 11
1.10062973953245
 21
0.16927501885948
 31
0.0
100
AcDbText
  0
LWPOLYLINE
  5
6E
330
2
100
AcDbEntity
  8
3D
  6
DASHED
 48
0.6
100
AcDbPolyline
 90
       10
 70
     1
 43
0.0
 10
0.8392309146984189
 20
-0.2462766798817029
 10
0.8392309146984189
 20
-0.3502982429890835
 10
0.845223040687415
 20
-0.3565107560389151
 10
1.130089034330012
 20
-0.3565107560389151
 10
1.136081160308094
 20
-0.3502982429890835
 10
1.136081160308094
 20
-0.2462766798817029
 10
1.112459113071963
 20
-0.2462766798817029
 10
1.112459113071963
 20
-0.3462745355682273
 10
0.8628529619381879
 20
-0.3462745355682273
 10
0.8628529619381879
 20
-0.2462766798817029
  0
LWPOLYLINE
  5
70
330
2
100
AcDbEntity
  8
3D
  6
DASHED
 48
0.6
100
AcDbPolyline
 90
       10
 70
     1
 43
0.0
 10
0.8762386406306177
 20
-0.2384026641302626
 10
0.8313568989469786
 20
-0.2384026641302626
 10
0.8313568989469786
 20
-0.3563123354579147
 10
0.8418011085559555
 20
-0.3671406772991759
 10
1.13351096644692
 20
-0.3671406772991759
 10
1.143955176055897
 20
-0.3563123354579147
 10
1.143955176055897
 20
-0.2384026641302626
 10
1.099073434379533
 20
-0.2384026641302626
 10
1.099073434379533
 20
-0.3356446143079665
 10
0.8762386406306177
 20
-0.3356446143079665
  0
LWPOLYLINE
  5
71
330
2
100
AcDbEntity
  8
3D
  6
DASHED
 48
0.6
100
AcDbPolyline
 90
       10
 70
     1
 43
0.0
 10
0.8392309146984189
 20
-0.1852524883179285
 10
0.8392309146984189
 20
-0.098159489556565
 10
0.845223040687415
 20
-0.0919469765067334
 10
1.130089034330012
 20
-0.0919469765067334
 10
1.136081160308094
 20
-0.098159489556565
 10
1.136081160308094
 20
-0.1852524883179285
 10
1.112459113071963
 20
-0.1852524883179285
 10
1.112459113071963
 20
-0.1021831969810591
 10
0.8628529619381879
 20
-0.1021831969810591
 10
0.8628529619381879
 20
-0.1852524883179285
  0
LWPOLYLINE
  5
72
330
2
100
AcDbEntity
  8
3D
  6
DASHED
 48
0.6
100
AcDbPolyline
 90
       10
 70
     1
 43
0.0
 10
0.8762386406306177
 20
-0.1931265040657308
 10
0.8313568989469786
 20
-0.1931265040657308
 10
0.8313568989469786
 20
-0.0921453970877337
 10
0.8418011085559555
 20
-0.0813170552501106
 10
1.13351096644692
 20
-0.0813170552501106
 10
1.143955176055897
 20
-0.0921453970877337
 10
1.143955176055897
 20
-0.1931265040657308
 10
1.099073434379533
 20
-0.1931265040657308
 10
1.099073434379533
 20
-0.1128131182376819
 10
0.8762386406306177
 20
-0.1128131182376819
  0
LINE
  5
73
330
2
100
AcDbEntity
  8
3D
100
AcDbLine
 10
0.9876560375050758
 20
-0.1231650645677291
 30
0.0
 11
0.9876560375050758
 21
-0.0157434042994282
 31
0.0
  0
MTEXT
  5
74
330
2
100
AcDbEntity
  8
3D
100
AcDbMText
 10
0.9876560375014378
 20
-0.0012434042982932
 30
0.0
 40
0.006
 41
0.0
 46
0.0
 71
     5
 72
     1
  1
\A1;0.0000
 11
0.0000000000000001
 21
1.0
 31
0.0
 73
     1
 44
1.0
  0
LINE
  5
75
330
2
100
AcDbEntity
  8
3D
100
AcDbLine
 10
0.8398011085555481
 20
-0.0813170552501106
 30
0.0
 11
0.6940893284299819
 21
-0.0813170552501106
 31
0.0
  0
MTEXT
  5
76
330
2
100
AcDbEntity
  8
3D
100
AcDbMText
 10
0.6440893284270715
 20
-0.0813170552501106
 30
0.0
 40
0.006
 41
0.0
 46
0.0
 71
     5
 72
     1
  1
\A1;0.1429 MAX PLATING
 73
     1
 44
1.0
  0
LINE
  5
77
330
2
100
AcDbEntity
  8
3D
100
AcDbLine
 10
0.8432230406797316
 20
-0.0919469765067334
 30
0.0
 11
0.6940893284299819
 21
-0.0919469765067334
 31
0.0
  0
MTEXT
  5
78
330
2
100
AcDbEntity
  8
3D
100
AcDbMText
 10
0.6445893284289923
 20
-0.0919469765067334
 30
0.0
 40
0.006
 41
0.0
 46
0.0
 71
     5
 72
     1
  1
\A1;0.1323 MIN PLATING
 73
     1
 44
1.0
  0
LINE
  5
79
330
2
100
AcDbEntity
  8
3D
100
AcDbLine
 10
0.8608529619377804
 20
-0.1021831969810591
 30
0.0
 11
0.6940893284299819
 21
-0.1021831969810591
 31
0.0
  0
MTEXT
  5
7A
330
2
100
AcDbEntity
  8
3D
100
AcDbMText
 10
0.6450893284272752
 20
-0.1021831969810591
 30
0.0
 40
0.006
 41
0.0
 46
0.0
 71
     5
 72
     1
  1
\A1;0.1220 MIN PLATING
 73
     1
 44
1.0
  0
LINE
  5
7B
330
2
100
AcDbEntity
  8
3D
100
AcDbLine
 10
0.8372309146980114
 20
-0.1852524883179285
 30
0.0
 11
0.6940893284299819
 21
-0.1852524883179285
 31
0.0
  0
MTEXT
  5
7C
330
2
100
AcDbEntity
  8
3D
100
AcDbMText
 10
0.6470893284276827
 20
-0.1852524883179285
 30
0.0
 40
0.006
 41
0.0
 46
0.0
 71
     5
 72
     1
  1
\A1;0.0390 MIN PLATING
 73
     1
 44
1.0
  0
LINE
  5
7D
330
2
100
AcDbEntity
  8
3D
100
AcDbLine
 10
0.8293568989465711
 20
-0.1931265040657308
 30
0.0
 11
0.6940893284299819
 21
-0.1931265040657308
 31
0.0
  0
MTEXT
  5
7E
330
2
100
AcDbEntity
  8
3D
100
AcDbMText
 10
0.6450893284272752
 20
-0.1931265040657308
 30
0.0
 40
0.006
 41
0.0
 46
0.0
 71
     5
 72
     1
  1
\A1;0.0311 MAX PLATING
 73
     1
 44
1.0
  0
LINE
  5
7F
330
2
100
AcDbEntity
  8
3D
100
AcDbLine
 10
0.8865922357981617
 20
-0.2242288662819192
 30
0.0
 11
0.6982277337301639
 21
-0.2242288662819192
 31
0.0
  0
MTEXT
  5
80
330
2
100
AcDbEntity
  8
3D
100
AcDbMText
 10
0.6837277337326669
 20
-0.2242288662819192
 30
0.0
 40
0.006
 41
0.0
 46
0.0
 71
     5
 72
     1
  1
\A1;0.0000
 73
     1
 44
1.0
  0
LINE
  5
81
330
2
100
AcDbEntity
  8
3D
100
AcDbLine
 10
0.8293568989465711
 20
-0.2384026641302626
 30
0.0
 11
0.6974676184727287
 21
-0.2384026641302626
 31
0.0
  0
MTEXT
  5
82
330
2
100
AcDbEntity
  8
3D
100
AcDbMText
 10
0.6504676184740675
 20
-0.2384026641302626
 30
0.0
 40
0.006
 41
0.0
 46
0.0
 71
     5
 72
     1
  1
\A1;0.0142 MAX PLATING
 73
     1
 44
1.0
  0
MTEXT
  5
83
330
2
100
AcDbEntity
  8
3D
100
AcDbMText
 10
0.6508391650204431
 20
-0.2462766798817029
 30
0.0
 40
0.006
 41
0.0
 46
0.0
 71
     5
 72
     1
  1
\A1;0.0220 MIN PLATING
 73
     1
 44
1.0
  0
LINE
  5
84
330
2
100
AcDbEntity
  8
3D
100
AcDbLine
 10
0.8742386406302102
 20
-0.1128131182376819
 30
0.0
 11
0.6938359566702275
 21
-0.1128131182376819
 31
0.0
  0
MTEXT
  5
85
330
2
100
AcDbEntity
  8
3D
100
AcDbMText
 10
0.6453359566694417
 20
-0.1128131182376819
 30
0.0
 40
0.006
 41
0.0
 46
0.0
 71
     5
 72
     1
  1
\A1;0.1114 MAX PLATING
 73
     1
 44
1.0
  0
LINE
  5
86
330
2
100
AcDbEntity
  8
3D
100
AcDbLine
 10
0.8313568989469786
 20
-0.0901453970909643
 30
0.0
 11
0.8313568989469786
 21
-0.0157434042994282
 31
0.0
  0
MTEXT
  5
87
330
2
100
AcDbEntity
  8
3D
100
AcDbMText
 10
0.8313568989469786
 20
0.034756595701765
 30
0.0
 40
0.006
 41
0.0
 46
0.0
 71
     5
 72
     1
  1
\A1;0.1563 MAX PLATING
 11
0.0000000000000001
 21
1.0
 31
0.0
 73
     1
 44
1.0
  0
LINE
  5
88
330
2
100
AcDbEntity
  8
3D
100
AcDbLine
 10
0.8392309146984189
 20
-0.0961594895561575
 30
0.0
 11
0.8392309146984189
 21
-0.0397434043006797
 31
0.0
  0
LINE
  5
89
330
2
100
AcDbEntity
  8
3D
100
AcDbLine
 10
0.8392309146984189
 20
-0.0397434043006797
 30
0.0
 11
0.8437475776263454
 21
-0.027743404287321
 31
0.0
  0
LINE
  5
8A
330
2
100
AcDbEntity
  8
3D
100
AcDbLine
 10
0.8437475776263454
 20
-0.027743404287321
 30
0.0
 11
0.8437475776263454
 21
-0.0157434042994282
 31
0.0
  0
MTEXT
  5
8B
330
2
100
AcDbEntity
  8
3D
100
AcDbMText
 10
0.8437475776190694
 20
0.0337565957015613
 30
0.0
 40
0.006
 41
0.0
 46
0.0
 71
     5
 72
     1
  1
\A1;0.1484 MIN PLATING
 11
0.0000000000000001
 21
1.0
 31
0.0
 73
     1
 44
1.0
  0
LINE
  5
8C
330
2
100
AcDbEntity
  8
3D
100
AcDbLine
 10
0.8628529619381879
 20
-0.1001831969806517
 30
0.0
 11
0.8628529619381879
 21
-0.0157434042994282
 31
0.0
  0
MTEXT
  5
8D
330
2
100
AcDbEntity
  8
3D
100
AcDbMText
 10
0.8628529619381879
 20
0.0337565957015613
 30
0.0
 40
0.006
 41
0.0
 46
0.0
 71
     5
 72
     1
  1
\A1;0.1248 MIN PLATING
 11
0.0000000000000001
 21
1.0
 31
0.0
 73
     1
 44
1.0
  0
LINE
  5
8E
330
2
100
AcDbEntity
  8
3D
100
AcDbLine
 10
0.8762386406306177
 20
-0.1108131182409124
 30
0.0
 11
0.8762386406306177
 21
-0.0157434042994282
 31
0.0
  0
MTEXT
  5
8F
330
2
100
AcDbEntity
  8
3D
100
AcDbMText
 10
0.8762386406197038
 20
0.0327565957013576
 30
0.0
 40
0.006
 41
0.0
 46
0.0
 71
     5
 72
     1
  1
\A1;0.1114 MAX PLATING
 11
0.0000000000000001
 21
1.0
 31
0.0
 73
     1
 44
1.0
  0
HATCH
  5
90
330
2
100
AcDbEntity
  8
3D
100
AcDbHatch
 10
0.0
 20
0.0
 30
0.0
210
0.0
220
0.0
230
1.0
  2
DOTS
 70
     0
 71
     0
 91
       15
 92
        1
 93
       15
 72
     1
 10
0.8392328020381683
 20
-0.1041515301694744
 11
0.8392309146984189
 21
-0.098159489556565
 72
     1
 10
0.8392309146984189
 20
-0.098159489556565
 11
0.8450103894392668
 21
-0.0921674489509315
 72
     1
 10
0.8450103894392668
 20
-0.0921674489509315
 11
0.8781284643810067
 21
-0.0921674489509315
 72
     1
 10
0.8781284643810067
 20
-0.0921674489509315
 11
0.8781284643810067
 21
-0.1021831969810591
 72
     1
 10
0.8781284643810067
 20
-0.1021831969810591
 11
0.8648233532185258
 21
-0.1021831969810591
 72
     2
 10
0.8648233532185258
 20
-0.1041517009180097
 40
0.0019685039369506
 50
90.0
 51
180.0
 73
     1
 72
     1
 10
0.8628548492779373
 20
-0.1041517009180097
 11
0.8628548492779373
 21
-0.1592688112286851
 72
     2
 10
0.8608863453373487
 20
-0.1592688112286851
 40
0.0019685039369506
 50
360.0
 51
450.0
 73
     0
 72
     1
 10
0.8608863453373487
 20
-0.1612373151692736
 11
0.8392328020381683
 21
-0.1612373151692736
 72
     1
 10
0.8392328020381683
 20
-0.1612373151692736
 11
0.8392328020381683
 21
-0.1513947954808827
 72
     1
 10
0.8392328020381683
 20
-0.1513947954808827
 11
0.8490753217192832
 21
-0.1513947954808827
 72
     2
 10
0.8490753217192832
 20
-0.1494262915512081
 40
0.0019685039369506
 50
270.0
 51
360.0
 73
     1
 72
     1
 10
0.8510438256598717
 20
-0.1494262915512081
 11
0.8510438256598717
 21
-0.106120034110063
 72
     2
 10
0.8490753217192832
 20
-0.106120034110063
 40
0.0019685039369506
 50
0.0
 51
90.0
 73
     1
 72
     1
 10
0.8490753217192832
 20
-0.1041515301694744
 11
0.8392328020381683
 21
-0.1041515301694744
 97
        0
 92
        1
 93
        4
 72
     1
 10
1.136081160308094
 20
-0.1750162678472407
 11
1.136081160308094
 21
-0.1852524883179285
 72
     1
 10
1.136081160308094
 20
-0.1852524883179285
 11
1.116791709067911
 21
-0.1852524883179285
 72
     1
 10
1.116791709067911
 20
-0.1852524883179285
 11
1.116791709067911
 21
-0.1750162678472407
 72
     1
 10
1.116791709067911
 20
-0.1750162678472407
 11
1.136081160308094
 21
-0.1750162678472407
 97
        0
 92
        1
 93
       17
 72
     1
 10
1.130301685570884
 20
-0.0921674489509315
 11
1.136083047647844
 21
-0.0981614463162259
 72
     1
 10
1.136083047647844
 20
-0.0981614463162259
 11
1.136083047647844
 21
-0.1041515301694744
 72
     1
 10
1.136083047647844
 20
-0.1041515301694744
 11
1.126240527970367
 21
-0.1041515301694744
 72
     2
 10
1.126240527970367
 20
-0.106120034110063
 40
0.0019685039369506
 50
90.0
 51
180.0
 73
     1
 72
     1
 10
1.124272024029778
 20
-0.106120034110063
 11
1.124272024029778
 21
-0.1494262915512081
 72
     2
 10
1.126240527970367
 20
-0.1494262915512081
 40
0.0019685039369506
 50
180.0
 51
270.0
 73
     1
 72
     1
 10
1.126240527970367
 20
-0.1513947954808827
 11
1.136083047647844
 21
-0.1513947954808827
 72
     1
 10
1.136083047647844
 20
-0.1513947954808827
 11
1.136083047647844
 21
-0.1612373151692736
 72
     1
 10
1.136083047647844
 20
-0.1612373151692736
 11
1.114429504337749
 21
-0.1612373151692736
 72
     2
 10
1.114429504337749
 20
-0.1592688112286851
 40
0.0019685039369506
 50
90.0
 51
180.0
 73
     0
 72
     1
 10
1.112461000404437
 20
-0.1592688112286851
 11
1.112461000404437
 21
-0.1041517009180097
 72
     2
 10
1.110492496471124
 20
-0.1041517009180097
 40
0.0019685039369506
 50
0.0
 51
90.0
 73
     1
 72
     1
 10
1.110492496471124
 20
-0.1021831969810591
 11
1.097187385308643
 21
-0.1021831969810591
 72
     1
 10
1.097187385308643
 20
-0.1021831969810591
 11
1.097187385308643
 21
-0.0919469765067334
 72
     1
 10
1.097187385308643
 20
-0.0919469765067334
 11
1.122520737022568
 21
-0.0919469765067334
 72
     2
 10
1.123648014523496
 20
-0.0891753229698225
 40
0.002992125984747
 50
247.8676084654418
 51
270.0
 73
     1
 72
     1
 10
1.123648014523496
 20
-0.0921674489509315
 11
1.130301685570884
 21
-0.0921674489509315
 97
        0
 92
        1
 93
        4
 72
     1
 10
1.048671786455088
 20
-0.0919469765067334
 11
1.078530053400754
 21
-0.0919469765067334
 72
     1
 10
1.078530053400754
 20
-0.0919469765067334
 11
1.078530053400754
 21
-0.1021831969810591
 72
     1
 10
1.078530053400754
 20
-0.1021831969810591
 11
1.048671786455088
 21
-0.1021831969810591
 72
     1
 10
1.048671786455088
 20
-0.1021831969810591
 11
1.048671786455088
 21
-0.0919469765067334
 97
        0
 92
        1
 93
        5
 72
     1
 10
1.004656038407119
 20
-0.0919469765067334
 11
1.032923754170042
 21
-0.0919469765067334
 72
     1
 10
1.032923754180956
 20
-0.0919469765067334
 11
1.032923754180956
 21
-0.1021831969810591
 72
     1
 10
1.032923754180956
 20
-0.1021831969810591
 11
1.009656038419052
 21
-0.1021831969810591
 72
     1
 10
1.009656038419052
 20
-0.1021831969810591
 11
1.004656038407119
 21
-0.0971831969909545
 72
     1
 10
1.004656038407119
 20
-0.0971831969909545
 11
1.004656038407119
 21
-0.0919469765067334
 97
        0
 92
        1
 93
        5
 72
     1
 10
0.9546560384005715
 20
-0.0919469765067334
 11
0.9889080069187912
 21
-0.0919469765067334
 72
     1
 10
0.9889080069187912
 20
-0.0919469765067334
 11
0.9889080069187912
 21
-0.1021831969810591
 72
     1
 10
0.9889080069187912
 20
-0.1021831969810591
 11
0.9596560384088661
 21
-0.1021831969810591
 72
     1
 10
0.9596560384088661
 20
-0.1021831969810591
 11
0.9546560384078475
 21
-0.0971831969909545
 72
     1
 10
0.9546560384078475
 20
-0.0971831969909545
 11
0.9546560384078475
 21
-0.0919469765067334
 97
        0
 92
        1
 93
        4
 72
     1
 10
0.8967820218895212
 20
-0.0919469765067334
 11
0.9285300533701956
 21
-0.0919469765067334
 72
     1
 10
0.9285300533701956
 20
-0.0919469765067334
 11
0.9285300533701956
 21
-0.1021831969810591
 72
     1
 10
0.9285300533701956
 20
-0.1021831969810591
 11
0.8967820219004352
 21
-0.1021831969810591
 72
     1
 10
0.8967820219004352
 20
-0.1021831969810591
 11
0.8967820219004352
 21
-0.0919469765067334
 97
        0
 92
        1
 93
        4
 72
     1
 10
0.8392309146984189
 20
-0.1852524883179285
 11
0.8392309146984189
 21
-0.1750162678472407
 72
     1
 10
0.8392309146984189
 20
-0.1750162678472407
 11
0.8585241406217392
 21
-0.1750162678472407
 72
     1
 10
0.8585241406217392
 20
-0.1750162678472407
 11
0.8585241406217392
 21
-0.1852524883179285
 72
     1
 10
0.8585241406217392
 20
-0.1852524883179285
 11
0.8392309146984189
 21
-0.1852524883179285
 97
        0
 92
        1
 93
        4
 72
     1
 10
1.136081160308094
 20
-0.2565129003487527
 11
1.136081160308094
 21
-0.2462766798817029
 72
     1
 10
1.136081160308094
 20
-0.2462766798817029
 11
1.116791709067911
 21
-0.2462766798817029
 72
     1
 10
1.116791709067911
 20
-0.2462766798817029
 11
1.116791709067911
 21
-0.2565129003487527
 72
     1
 10
1.116791709067911
 20
-0.2565129003487527
 11
1.136081160308094
 21
-0.2565129003487527
 97
        0
 92
       17
 93
        4
 72
     1
 10
1.048671786455088
 20
-0.3565107560389151
 11
1.078530053400754
 21
-0.3565107560389151
 72
     1
 10
1.078530053400754
 20
-0.3565107560389151
 11
1.078530053400754
 21
-0.3462745355682273
 72
     1
 10
1.078530053400754
 20
-0.3462745355682273
 11
1.048671786455088
 21
-0.3462745355682273
 72
     1
 10
1.048671786455088
 20
-0.3462745355682273
 11
1.048671786455088
 21
-0.3565107560389151
 97
        0
 92
       17
 93
        5
 72
     1
 10
1.004656038407119
 20
-0.3565107560389151
 11
1.032923754180956
 21
-0.3565107560389151
 72
     1
 10
1.032923754180956
 20
-0.3565107560389151
 11
1.032923754180956
 21
-0.3462745355682273
 72
     1
 10
1.032923754180956
 20
-0.3462745355682273
 11
1.009656038419052
 21
-0.3462745355682273
 72
     1
 10
1.009656038419052
 20
-0.3462745355682273
 11
1.004656038407119
 21
-0.3512745355692459
 72
     1
 10
1.004656038407119
 20
-0.3512745355692459
 11
1.004656038407119
 21
-0.3565107560389151
 97
        0
 92
       17
 93
        5
 72
     1
 10
0.9546560384005715
 20
-0.3565107560389151
 11
0.9889080069187912
 21
-0.3565107560389151
 72
     1
 10
0.9889080069187912
 20
-0.3565107560389151
 11
0.9889080069187912
 21
-0.3462745355682273
 72
     1
 10
0.9889080069187912
 20
-0.3462745355682273
 11
0.9596560384088661
 21
-0.3462745355682273
 72
     1
 10
0.9596560384088661
 20
-0.3462745355682273
 11
0.9546560384078475
 21
-0.3512745355692459
 72
     1
 10
0.9546560384078475
 20
-0.3512745355692459
 11
0.9546560384078475
 21
-0.3565107560389151
 97
        0
 92
       17
 93
        4
 72
     1
 10
0.8967820219004352
 20
-0.3565107560389151
 11
0.9285300533701956
 21
-0.3565107560389151
 72
     1
 10
0.9285300533701956
 20
-0.3565107560389151
 11
0.9285300533701956
 21
-0.3462745355682273
 72
     1
 10
0.9285300533701956
 20
-0.3462745355682273
 11
0.8967820219004352
 21
-0.3462745355682273
 72
     1
 10
0.8967820219004352
 20
-0.3462745355682273
 11
0.8967820219004352
 21
-0.3565107560389151
 97
        0
 92
        1
 93
        4
 72
     1
 10
0.8392309146984189
 20
-0.2462766798817029
 11
0.8392309146984189
 21
-0.2565129003487527
 72
     1
 10
0.8392309146984189
 20
-0.2565129003487527
 11
0.8585241406217392
 21
-0.2565129003487527
 72
     1
 10
0.8585241406217392
 20
-0.2565129003487527
 11
0.8585241406217392
 21
-0.2462766798817029
 72
     1
 10
0.8585241406217392
 20
-0.2462766798817029
 11
0.8392309146984189
 21
-0.2462766798817029
 97
        0
 92
       33
 93
       34
 72
     1
 10
1.136081160308094
 20
-0.2809217796566372
 11
1.136081160308094
 21
-0.2710792599791603
 72
     1
 10
1.136081160308094
 20
-0.3502982429890835
 11
1.136081160308094
 21
-0.344306202379812
 72
     1
 10
1.130301685581798
 20
-0.356290283598355
 11
1.136081160308094
 21
-0.3502982429890835
 72
     1
 10
1.097187385308643
 20
-0.3565107560389151
 11
1.122520737033482
 21
-0.3565107560389151
 72
     1
 10
0.8527951126561674
 20
-0.3565107560389151
 11
0.8781284643810067
 21
-0.3565107560389151
 72
     1
 10
0.8392309146984189
 20
-0.3502982429890835
 11
0.8450103894283529
 21
-0.356290283598355
 72
     1
 10
1.097187385308643
 20
-0.3462745355682273
 11
1.097187385308643
 21
-0.3565107560389151
 72
     1
 10
1.110492496471124
 20
-0.3462745355682273
 11
1.097187385308643
 21
-0.3462745355682273
 72
     2
 10
1.110492496471124
 20
-0.3443060316312767
 40
0.0019685039369506
 50
270.0
 51
360.0
 73
     1
 72
     1
 10
1.112461000404437
 20
-0.2730477639197488
 11
1.112461000404437
 21
-0.3443060316312767
 72
     2
 10
1.114429504337749
 20
-0.2730477639197488
 40
0.0019685039369506
 50
90.0
 51
180.0
 73
     1
 72
     1
 10
1.136083047647844
 20
-0.2710792599791603
 11
1.114429504337749
 21
-0.2710792599791603
 72
     1
 10
1.126240527970367
 20
-0.2809217796566372
 11
1.136083047647844
 21
-0.2809217796566372
 72
     2
 10
1.126240527970367
 20
-0.2828902835972258
 40
0.0019685039369506
 50
90.0
 51
180.0
 73
     1
 72
     1
 10
1.124272024029778
 20
-0.3423376984392235
 11
1.124272024029778
 21
-0.2828902835972258
 72
     2
 10
1.126240527970367
 20
-0.3423376984392235
 40
0.0019685039369506
 50
180.0
 51
270.0
 73
     1
 72
     1
 10
1.136083047647844
 20
-0.344306202379812
 11
1.126240527970367
 21
-0.344306202379812
 72
     1
 10
1.123648014523496
 20
-0.356290283598355
 11
1.130301685581798
 21
-0.356290283598355
 72
     2
 10
1.123648014523496
 20
-0.3592824095903779
 40
0.002992125984747
 50
90.0
 51
112.1323913792527
 73
     1
 72
     1
 10
0.8781284643810067
 20
-0.3462745355682273
 11
0.8781284643810067
 21
-0.3565107560389151
 72
     1
 10
0.8648233532185258
 20
-0.3462745355682273
 11
0.8781284643810067
 21
-0.3462745355682273
 72
     2
 10
0.8648233532185258
 20
-0.3443060316312767
 40
0.0019685039369506
 50
180.0
 51
270.0
 73
     1
 72
     1
 10
0.8628548492779373
 20
-0.2730477639197488
 11
0.8628548492779373
 21
-0.3443060316312767
 72
     2
 10
0.8608863453373487
 20
-0.2730477639197488
 40
0.0019685039369506
 50
0.0
 51
90.0
 73
     1
 72
     1
 10
0.8392328020381683
 20
-0.2710792599791603
 11
0.8608863453373487
 21
-0.2710792599791603
 72
     1
 10
0.8392328020381683
 20
-0.2809217796566372
 11
0.8392328020381683
 21
-0.2710792599791603
 72
     1
 10
0.8490753217192832
 20
-0.2809217796566372
 11
0.8392328020381683
 21
-0.2809217796566372
 72
     2
 10
0.8490753217192832
 20
-0.2828902835972258
 40
0.0019685039369506
 50
0.0
 51
90.0
 73
     1
 72
     1
 10
0.8510438256598717
 20
-0.3423376984392235
 11
0.8510438256598717
 21
-0.2828902835972258
 72
     2
 10
0.8490753217192832
 20
-0.3423376984392235
 40
0.0019685039369506
 50
270.0
 51
360.0
 73
     1
 72
     1
 10
0.8392328020381683
 20
-0.344306202379812
 11
0.8490753217192832
 21
-0.344306202379812
 72
     1
 10
0.8392328020381683
 20
-0.3503001997487445
 11
0.8392328020381683
 21
-0.344306202379812
 72
     1
 10
0.8516678351697919
 20
-0.356290283598355
 11
0.8450103894283529
 21
-0.356290283598355
 72
     2
 10
0.8516678351697919
 20
-0.3592824095903779
 40
0.002992125984747
 50
67.86760868527736
 51
90.0
 73
     1
 97
        0
 75
     0
 76
     1
 52
0.0
 41
0.055
 77
     0
 78
     1
 53
0.0
 43
0.9876560375050758
 44
-0.2242288662819192
 45
0.00171875
 46
0.0034375
 79
     2
 49
0.0
 49
-0.0034375
 98
        1
 10
1.836817613057064
 20
-0.4034618220175617
1001
ACAD
1010
0.0
1020
0.0
1030
0.0
  0
LINE
  5
91
330
2
100
AcDbEntity
  8
3D
100
AcDbLine
 10
0.8372309146980114
 20
-0.2462766798817029
 30
0.0
 11
0.7003391650214326
 21
-0.2462766798817029
 31
0.0
  0
LWPOLYLINE
  5
92
330
2
100
AcDbEntity
  8
1D
100
AcDbPolyline
 90
        2
 70
     0
 43
0.0
 10
0.8576579248401685
 20
-0.2042288662669307
 10
0.8576579248401685
 20
-0.2242288662673673
  0
LWPOLYLINE
  5
96
330
2
100
AcDbEntity
  8
1D
100
AcDbPolyline
 90
        2
 70
     0
 43
0.0
 10
0.8403587122375029
 20
-0.2042288662669307
 10
0.8403587122375029
 20
-0.2242288662673673
  0
LWPOLYLINE
  5
97
330
2
100
AcDbEntity
  8
1D
100
AcDbPolyline
 90
        2
 70
     0
 43
0.0
 10
1.117657924838567
 20
-0.2042288662669307
 10
1.117657924838567
 20
-0.2242288662673673
  0
LWPOLYLINE
  5
98
330
2
100
AcDbEntity
  8
1D
100
AcDbPolyline
 90
        2
 70
     0
 43
0.0
 10
1.134957137437595
 20
-0.2042288662669307
 10
1.134957137437595
 20
-0.2242288662673673
  0
LINE
  5
99
330
2
100
AcDbEntity
  8
1
100
AcDbLine
 10
1.136083047647844
 20
-0.2809288662829203
 30
0.0
 11
1.126240524019522
 21
-0.2809288662829203
 31
0.0
  0
LINE
  5
9D
330
2
100
AcDbEntity
  8
1
100
AcDbLine
 10
1.136083047647844
 20
-0.2710788662807317
 30
0.0
 11
1.114424537507147
 21
-0.2710788662807317
 31
0.0
  0
LINE
  5
9E
330
2
100
AcDbEntity
  8
1
100
AcDbLine
 10
1.144979657168732
 20
-0.256508866281365
 30
0.0
 11
1.11678793439205
 21
-0.256508866281365
 31
0.0
  0
LINE
  5
9F
330
2
100
AcDbEntity
  8
1
100
AcDbLine
 10
1.156567277179419
 20
-0.2462788662815001
 30
0.0
 11
1.116787934399326
 21
-0.2462788662815001
 31
0.0
  0
LINE
  5
A0
330
2
100
AcDbEntity
  8
1
100
AcDbLine
 10
0.7706560383812758
 20
-0.0742288662513602
 30
0.0
 11
0.7841560383785691
 21
-0.0742288662513602
 31
0.0
  0
LINE
  5
A1
330
2
100
AcDbEntity
  8
1
100
AcDbLine
 10
0.7706560383812758
 20
-0.071228866250749
 30
0.0
 11
0.7706560383812758
 21
-0.0742288662513602
 31
0.0
  0
ARC
  5
A2
330
2
100
AcDbEntity
  8
1
100
AcDbCircle
 10
0.7756560383786564
 20
-0.071228866250749
 30
0.0
 40
0.0050000000007834
100
AcDbArc
 50
89.99999999458053
 51
180.0
  0
LINE
  5
A3
330
2
100
AcDbEntity
  8
1
100
AcDbLine
 10
0.7996599611469719
 20
-0.0662288662497304
 30
0.0
 11
0.7756560383786564
 21
-0.0662288662497304
 31
0.0
  0
LINE
  5
A4
330
2
100
AcDbEntity
  8
1
100
AcDbLine
 10
0.8496599623213114
 20
-0.0662288662497304
 30
0.0
 11
0.8256599623309739
 21
-0.0662288605817594
 31
0.0
  0
LINE
  5
A5
330
2
100
AcDbEntity
  8
1
100
AcDbLine
 10
0.8996560395789856
 20
-0.0662288662497304
 30
0.0
 11
0.8756599623411602
 21
-0.0662288605817594
 31
0.0
  0
LINE
  5
A6
330
2
100
AcDbEntity
  8
1
100
AcDbLine
 10
0.9496560395891719
 20
-0.0662288662497304
 30
0.0
 11
0.9256560395806445
 21
-0.0662288605817594
 31
0.0
  0
LINE
  5
A7
330
2
100
AcDbEntity
  8
1
100
AcDbLine
 10
0.9996560381223389
 20
-0.0662288605817594
 30
0.0
 11
0.9756560381210874
 21
-0.0662288620005711
 31
0.0
  0
LINE
  5
A8
330
2
100
AcDbEntity
  8
1
100
AcDbLine
 10
1.049656037237582
 20
-0.0662288605817594
 30
0.0
 11
1.025656037225417
 21
-0.0662288662497304
 31
0.0
  0
LINE
  5
A9
330
2
100
AcDbEntity
  8
1
100
AcDbLine
 10
1.099655887341214
 20
-0.0662288605817594
 30
0.0
 11
1.075656037235603
 21
-0.0662288662606443
 31
0.0
  0
LINE
  5
AA
330
2
100
AcDbEntity
  8
1
100
AcDbLine
 10
1.149656037247041
 20
-0.0662288605817594
 30
0.0
 11
1.125655887350148
 21
-0.0662288662497304
 31
0.0
  0
LINE
  5
AB
330
2
100
AcDbEntity
  8
1
100
AcDbLine
 10
1.19965603843957
 20
-0.0662288662497304
 30
0.0
 11
1.175656038438319
 21
-0.0662288662497304
 31
0.0
  0
ARC
  5
AC
330
2
100
AcDbEntity
  8
1
100
AcDbCircle
 10
1.19965603843957
 20
-0.071228866250749
 30
0.0
 40
0.0050000000007834
100
AcDbArc
 50
0.0
 51
90.0
  0
LINE
  5
AD
330
2
100
AcDbEntity
  8
1
100
AcDbLine
 10
1.204656038447865
 20
-0.0742288662513602
 30
0.0
 11
1.204656038447865
 21
-0.071228866250749
 31
0.0
  0
LINE
  5
AE
330
2
100
AcDbEntity
  8
1
100
AcDbLine
 10
1.191156038439658
 20
-0.0742288662513602
 30
0.0
 11
1.204656038447865
 21
-0.0742288662513602
 31
0.0
  0
LINE
  5
AF
330
2
100
AcDbEntity
  8
1
100
AcDbLine
 10
1.191156038439658
 20
-0.0942288663063664
 30
0.0
 11
1.191156038439658
 21
-0.0742288662513602
 31
0.0
  0
LINE
  5
B0
330
2
100
AcDbEntity
  8
1
100
AcDbLine
 10
1.120656038427114
 20
-0.372628866280138
 30
0.0
 11
1.120656038427114
 21
-0.3772288662985375
 31
0.0
  0
LINE
  5
B1
330
2
100
AcDbEntity
  8
1
100
AcDbLine
 10
1.104656038427492
 20
-0.3772288719665084
 30
0.0
 11
1.104656038427492
 21
-0.372628866280138
 31
0.0
  0
ARC
  5
B2
330
2
100
AcDbEntity
  8
1
100
AcDbCircle
 10
1.099656038430111
 20
-0.3772288719665084
 30
0.0
 40
0.0050000000007836
100
AcDbArc
 50
269.9999864567654
 51
0.0
  0
LINE
  5
B3
330
2
100
AcDbEntity
  8
1
100
AcDbLine
 10
1.075656037235603
 20
-0.3822288662995561
 30
0.0
 11
1.099656037247768
 21
-0.382228871978441
 31
0.0
  0
ARC
  5
B4
330
2
100
AcDbEntity
  8
1
100
AcDbCircle
 10
1.075656038417946
 20
-0.3772288662985375
 30
0.0
 40
0.005
100
AcDbArc
 50
180.0
 51
269.9999864550979
  0
LINE
  5
B5
330
2
100
AcDbEntity
  8
1
100
AcDbLine
 10
1.025656037225417
 20
-0.3822288662995561
 30
0.0
 11
1.049656037237582
 21
-0.382228871978441
 31
0.0
  0
ARC
  5
B6
330
2
100
AcDbEntity
  8
1
100
AcDbCircle
 10
1.049656038427201
 20
-0.3772288719665084
 30
0.0
 40
0.005
100
AcDbArc
 50
269.9999864601005
 51
0.0000000116726866
  0
LINE
  5
B7
330
2
100
AcDbEntity
  8
1
100
AcDbLine
 10
0.9756560381210874
 20
-0.3822288705487153
 30
0.0
 11
0.9996560381223389
 21
-0.382228871978441
 31
0.0
  0
ARC
  5
B8
330
2
100
AcDbEntity
  8
1
100
AcDbCircle
 10
0.9756560384194017
 20
-0.3772288705476967
 30
0.0
 40
0.005
100
AcDbArc
 50
180.0000000235538
 51
269.9999966036651
  0
ARC
  5
B9
330
2
100
AcDbEntity
  8
1
100
AcDbCircle
 10
0.9996560384097392
 20
-0.3772288719665084
 30
0.0
 40
0.005
100
AcDbArc
 50
269.9999966036651
 51
0.0000000081291924
  0
LINE
  5
BA
330
2
100
AcDbEntity
  8
1
100
AcDbLine
 10
0.9256560395806445
 20
-0.382228871978441
 30
0.0
 11
0.949656039581896
 21
-0.382228866306832
 31
0.0
  0
ARC
  5
BB
330
2
100
AcDbEntity
  8
1
100
AcDbCircle
 10
0.9256560383983014
 20
-0.3772288719810604
 30
0.0
 40
0.005
100
AcDbArc
 50
180.0000000116727
 51
270.0000135313535
  0
ARC
  5
BC
330
2
100
AcDbEntity
  8
1
100
AcDbCircle
 10
0.9496560383995529
 20
-0.3772288663094514
 30
0.0
 40
0.005
100
AcDbArc
 50
270.0000135398996
 51
0.0
  0
LINE
  5
BD
330
2
100
AcDbEntity
  8
1
100
AcDbLine
 10
0.8756561876725754
 20
-0.382228871978441
 30
0.0
 11
0.8996560395789856
 21
-0.3822288662995561
 31
0.0
  0
ARC
  5
BE
330
2
100
AcDbEntity
  8
1
100
AcDbCircle
 10
0.8756561864793184
 20
-0.3772288719665084
 30
0.0
 40
0.005
100
AcDbArc
 50
180.0
 51
270.0000135398996
  0
ARC
  5
BF
330
2
100
AcDbEntity
  8
1
100
AcDbCircle
 10
0.8996560384002805
 20
-0.3772288662985375
 30
0.0
 40
0.005
100
AcDbArc
 50
270.0000135398996
 51
0.0
  0
LINE
  5
C0
330
2
100
AcDbEntity
  8
1
100
AcDbLine
 10
0.8256599623309739
 20
-0.382228871978441
 30
0.0
 11
0.8496561876563646
 21
-0.382228866306832
 31
0.0
  0
ARC
  5
C1
330
2
100
AcDbEntity
  8
1
100
AcDbCircle
 10
0.8256599611486308
 20
-0.3772288719665084
 30
0.0
 40
0.005
100
AcDbArc
 50
180.0
 51
270.0000135311451
  0
ARC
  5
C2
330
2
100
AcDbEntity
  8
1
100
AcDbCircle
 10
0.8496561864812974
 20
-0.3772288663094514
 30
0.0
 40
0.005
100
AcDbArc
 50
270.0000135398996
 51
0.0
  0
LINE
  5
C3
330
2
100
AcDbEntity
  8
1
100
AcDbLine
 10
0.7756560383786564
 20
-0.3822288662995561
 30
0.0
 11
0.7996599611469719
 21
-0.3822288662995561
 31
0.0
  0
ARC
  5
C4
330
2
100
AcDbEntity
  8
1
100
AcDbCircle
 10
0.7996599611469719
 20
-0.3772288662985375
 30
0.0
 40
0.005
100
AcDbArc
 50
270.0
 51
0.0000000022928491
  0
ARC
  5
C5
330
2
100
AcDbEntity
  8
1
100
AcDbCircle
 10
0.7756560383786564
 20
-0.3772288662985375
 30
0.0
 40
0.0050000000007834
100
AcDbArc
 50
180.0
 51
270.0000000054195
  0
LINE
  5
C6
330
2
100
AcDbEntity
  8
1
100
AcDbLine
 10
0.7706560383812758
 20
-0.3742288662979263
 30
0.0
 11
0.7706560383812758
 21
-0.3772288662985375
 31
0.0
  0
LINE
  5
C7
330
2
100
AcDbEntity
  8
1
100
AcDbLine
 10
0.7841560383785691
 20
-0.3742288662979263
 30
0.0
 11
0.7706560383812758
 21
-0.3742288662979263
 31
0.0
  0
LINE
  5
C8
330
2
100
AcDbEntity
  8
1
100
AcDbLine
 10
0.7841560383785691
 20
-0.21935485053109
 30
0.0
 11
0.7841560383785691
 21
-0.3742288662979263
 31
0.0
  0
LINE
  5
C9
330
2
100
AcDbEntity
  8
1
100
AcDbLine
 10
1.191156038439658
 20
-0.3742288662979263
 30
0.0
 11
1.191156036631582
 21
-0.21935485053109
 31
0.0
  0
LINE
  5
CA
330
2
100
AcDbEntity
  8
1
100
AcDbLine
 10
1.204656038447865
 20
-0.3742288662979263
 30
0.0
 11
1.191156038439658
 21
-0.3742288662979263
 31
0.0
  0
LINE
  5
CB
330
2
100
AcDbEntity
  8
1
100
AcDbLine
 10
1.204656038447865
 20
-0.3772288662985375
 30
0.0
 11
1.204656038447865
 21
-0.3742288662979263
 31
0.0
  0
ARC
  5
CC
330
2
100
AcDbEntity
  8
1
100
AcDbCircle
 10
1.19965603843957
 20
-0.3772288662985375
 30
0.0
 40
0.0050000000007834
100
AcDbArc
 50
270.0
 51
0.0
  0
LINE
  5
CD
330
2
100
AcDbEntity
  8
1
100
AcDbLine
 10
1.175656038438319
 20
-0.3822288662995561
 30
0.0
 11
1.19965603843957
 21
-0.3822288662995561
 31
0.0
  0
ARC
  5
CE
330
2
100
AcDbEntity
  8
1
100
AcDbCircle
 10
1.175656038438319
 20
-0.3772288662985375
 30
0.0
 40
0.0050000000007834
100
AcDbArc
 50
180.0
 51
270.0
  0
ARC
  5
CF
330
2
100
AcDbEntity
  8
1
100
AcDbCircle
 10
1.14965603843666
 20
-0.3772288719665084
 30
0.0
 40
0.0050000000007836
100
AcDbArc
 50
269.9999864567654
 51
0.0
  0
LINE
  5
D0
330
2
100
AcDbEntity
  8
1
100
AcDbLine
 10
1.125656038428132
 20
-0.3822288662995561
 30
0.0
 11
1.149656037247041
 21
-0.382228871978441
 31
0.0
  0
ARC
  5
D1
330
2
100
AcDbEntity
  8
1
100
AcDbCircle
 10
1.125656038428132
 20
-0.3772288662985375
 30
0.0
 40
0.0050000000007834
100
AcDbArc
 50
180.0
 51
270.0
  0
LINE
  5
D2
330
2
100
AcDbEntity
  8
1
100
AcDbLine
 10
0.7931402894682833
 20
-0.2091028820177598
 30
0.0
 11
0.7841560383785691
 21
-0.2091028820177598
 31
0.0
  0
LINE
  5
D3
330
2
100
AcDbEntity
  8
1
100
AcDbLine
 10
0.7841560383785691
 20
-0.21935485053109
 30
0.0
 11
0.7931402894682833
 21
-0.21935485053109
 31
0.0
  0
LINE
  5
D4
330
2
100
AcDbEntity
  8
1
100
AcDbLine
 10
0.7841560383712931
 20
-0.0942288663063664
 30
0.0
 11
0.7421560241418775
 21
-0.0942288663063664
 31
0.0
  0
LINE
  5
D5
330
2
100
AcDbEntity
  8
1
100
AcDbLine
 10
0.7421560241418775
 20
-0.0942288663063664
 30
0.0
 11
0.7421560241418775
 21
-0.1742288663081126
 31
0.0
  0
LINE
  5
D6
330
2
100
AcDbEntity
  8
1
100
AcDbLine
 10
0.7421560241418775
 20
-0.1742288663081126
 30
0.0
 11
0.7841560383712931
 21
-0.1742288663081126
 31
0.0
  0
LINE
  5
D7
330
2
100
AcDbEntity
  8
1
100
AcDbLine
 10
1.191156038359622
 20
-0.1742288663081126
 30
0.0
 11
1.233156052599952
 21
-0.1742288663081126
 31
0.0
  0
LINE
  5
D8
330
2
100
AcDbEntity
  8
1
100
AcDbLine
 10
1.233156052599952
 20
-0.1742288663081126
 30
0.0
 11
1.233156052599952
 21
-0.0942288663063664
 31
0.0
  0
LINE
  5
D9
330
2
100
AcDbEntity
  8
1
100
AcDbLine
 10
1.233156052599952
 20
-0.0942288663063664
 30
0.0
 11
1.191156038359622
 21
-0.0942288663063664
 31
0.0
  0
LINE
  5
DA
330
2
100
AcDbEntity
  8
1
100
AcDbLine
 10
0.7841560383712931
 20
-0.0942288663063664
 30
0.0
 11
0.7841560383712931
 21
-0.0742288662513602
 31
0.0
  0
LINE
  5
DB
330
2
100
AcDbEntity
  8
1
100
AcDbLine
 10
0.7841560383712931
 20
-0.1742288663081126
 30
0.0
 11
0.7841560383712931
 21
-0.2091028820177598
 31
0.0
  0
LINE
  5
DC
330
2
100
AcDbEntity
  8
1
100
AcDbLine
 10
0.7931402894682833
 20
-0.2091028820177598
 30
0.0
 11
0.7841560383785691
 21
-0.2091028820177598
 31
0.0
  0
LINE
  5
DD
330
2
100
AcDbEntity
  8
1
100
AcDbLine
 10
0.7841560383785691
 20
-0.21935485053109
 30
0.0
 11
0.7931402894682833
 21
-0.21935485053109
 31
0.0
  0
LINE
  5
DE
330
2
100
AcDbEntity
  8
1
100
AcDbLine
 10
0.7991245414414152
 20
-0.2242288662819192
 30
0.0
 11
0.7931402894682833
 21
-0.21935485053109
 31
0.0
  0
LINE
  5
DF
330
2
100
AcDbEntity
  8
1
100
AcDbLine
 10
0.7991245414414152
 20
-0.2042288662814826
 30
0.0
 11
0.7931402894682833
 21
-0.2091028820177598
 31
0.0
  0
ARC
  5
E0
330
2
100
AcDbEntity
  8
1
100
AcDbCircle
 10
0.9756560384194017
 20
-0.0712288619979518
 30
0.0
 40
0.005
100
AcDbArc
 50
90.00000339633491
 51
180.0
  0
ARC
  5
E1
330
2
100
AcDbEntity
  8
1
100
AcDbCircle
 10
0.9496560383995529
 20
-0.071228866250749
 30
0.0
 40
0.005
100
AcDbArc
 50
0.0
 51
89.99998646010046
  0
ARC
  5
E2
330
2
100
AcDbEntity
  8
1
100
AcDbCircle
 10
0.9996560384097392
 20
-0.07122886057914
 30
0.0
 40
0.005
100
AcDbArc
 50
0.0
 51
90.00000339633491
  0
ARC
  5
E3
330
2
100
AcDbEntity
  8
1
100
AcDbCircle
 10
1.025656038418674
 20
-0.071228866250749
 30
0.0
 40
0.005
100
AcDbArc
 50
90.00001353135344
 51
180.0
  0
ARC
  5
E4
330
2
100
AcDbEntity
  8
1
100
AcDbCircle
 10
0.8996560384002805
 20
-0.071228866250749
 30
0.0
 40
0.005
100
AcDbArc
 50
0.0
 51
89.99998646010046
  0
ARC
  5
E5
330
2
100
AcDbEntity
  8
1
100
AcDbCircle
 10
0.9256560383983014
 20
-0.071228860590054
 30
0.0
 40
0.005
100
AcDbArc
 50
89.99998646010046
 51
180.0
  0
ARC
  5
E6
330
2
100
AcDbEntity
  8
1
100
AcDbCircle
 10
1.049656038427201
 20
-0.071228860590054
 30
0.0
 40
0.005
100
AcDbArc
 50
0.0
 51
90.00001353989954
  0
ARC
  5
E7
330
2
100
AcDbEntity
  8
1
100
AcDbCircle
 10
1.075656038417946
 20
-0.0712288662580249
 30
0.0
 40
0.005
100
AcDbArc
 50
90.00001353635603
 51
180.0
  0
LINE
  5
E8
330
2
100
AcDbEntity
  8
1
100
AcDbLine
 10
1.182171785527316
 20
-0.2091028820177598
 30
0.0
 11
1.191156036631582
 21
-0.2091028820177598
 31
0.0
  0
LINE
  5
E9
330
2
100
AcDbEntity
  8
1
100
AcDbLine
 10
1.191156036631582
 20
-0.21935485053109
 30
0.0
 11
1.182171785527316
 21
-0.21935485053109
 31
0.0
  0
LINE
  5
EA
330
2
100
AcDbEntity
  8
1
100
AcDbLine
 10
1.182171785527316
 20
-0.2091028820177598
 30
0.0
 11
1.191156036631582
 21
-0.2091028820177598
 31
0.0
  0
LINE
  5
EB
330
2
100
AcDbEntity
  8
1
100
AcDbLine
 10
1.191156036631582
 20
-0.21935485053109
 30
0.0
 11
1.182171785527316
 21
-0.21935485053109
 31
0.0
  0
LINE
  5
EC
330
2
100
AcDbEntity
  8
1
100
AcDbLine
 10
1.176187533568736
 20
-0.2242288662819192
 30
0.0
 11
1.182171785527316
 21
-0.21935485053109
 31
0.0
  0
LINE
  5
ED
330
2
100
AcDbEntity
  8
1
100
AcDbLine
 10
1.176187533568736
 20
-0.2042288662814826
 30
0.0
 11
1.182171785527316
 21
-0.2091028820177598
 31
0.0
  0
LINE
  5
EE
330
2
100
AcDbEntity
  8
1
100
AcDbLine
 10
1.191156036631582
 20
-0.2091028820177598
 30
0.0
 11
1.191156038359622
 21
-0.1742288663081126
 31
0.0
  0
LINE
  5
EF
330
2
100
AcDbEntity
  8
1
100
AcDbLine
 10
0.8046599611479905
 20
-0.071228866250749
 30
0.0
 11
0.8046599611479905
 21
-0.1587001849329681
 31
0.0
  0
ARC
  5
F0
330
2
100
AcDbEntity
  8
1
100
AcDbCircle
 10
0.7996599611469719
 20
-0.071228866250749
 30
0.0
 40
0.005
100
AcDbArc
 50
0.0
 51
90.0
  0
LINE
  5
F1
330
2
100
AcDbEntity
  8
1
100
AcDbLine
 10
0.8046599611479905
 20
-0.1587001849329681
 30
0.0
 11
0.8187492809738614
 21
-0.1852524883179285
 31
0.0
  0
LINE
  5
F2
330
2
100
AcDbEntity
  8
1
100
AcDbLine
 10
0.8187492809738614
 20
-0.1852524883179285
 30
0.0
 11
0.8585241406217392
 21
-0.1852524883179285
 31
0.0
  0
LINE
  5
F3
330
2
100
AcDbEntity
  8
1
100
AcDbLine
 10
0.8585241406217392
 20
-0.1852524883179285
 30
0.0
 11
0.8585241406217392
 21
-0.1750162678472407
 31
0.0
  0
LINE
  5
F4
330
2
100
AcDbEntity
  8
1
100
AcDbLine
 10
0.8585241406217392
 20
-0.1750162678472407
 30
0.0
 11
0.8303351395697973
 21
-0.1750162678472407
 31
0.0
  0
LINE
  5
F5
330
2
100
AcDbEntity
  8
1
100
AcDbLine
 10
0.8303351395697973
 20
-0.1750162678472407
 30
0.0
 11
0.821657999047602
 21
-0.1587001849329681
 31
0.0
  0
LINE
  5
F6
330
2
100
AcDbEntity
  8
1
100
AcDbLine
 10
0.821657999047602
 20
-0.1587001849329681
 30
0.0
 11
0.821657999047602
 21
-0.1218674356823612
 31
0.0
  0
ARC
  5
F7
330
2
100
AcDbEntity
  8
1
100
AcDbCircle
 10
0.8256599611486308
 20
-0.071228860590054
 30
0.0
 40
0.005
100
AcDbArc
 50
89.99998647969389
 51
180.0
  0
ARC
  5
F8
330
2
100
AcDbEntity
  8
1
100
AcDbCircle
 10
0.8496599611389683
 20
-0.071228866250749
 30
0.0
 40
0.005
100
AcDbArc
 50
0.0
 51
89.99998646864654
  0
ARC
  5
F9
330
2
100
AcDbEntity
  8
1
100
AcDbCircle
 10
0.8490753217192832
 20
-0.1494303623367159
 30
0.0
 40
0.0019685039369506
100
AcDbArc
 50
270.0
 51
0.0
  0
LINE
  5
FA
330
2
100
AcDbEntity
  8
1
100
AcDbLine
 10
0.8490753217192832
 20
-0.1513988662809425
 30
0.0
 11
0.8392308406400843
 21
-0.1513988662809425
 31
0.0
  0
LINE
  5
FB
330
2
100
AcDbEntity
  8
1
100
AcDbLine
 10
0.8392308406400843
 20
-0.1612288662799983
 30
0.0
 11
0.8608875335703487
 21
-0.1612288662799983
 31
0.0
  0
ARC
  5
FC
330
2
100
AcDbEntity
  8
1
100
AcDbCircle
 10
0.8608875335703487
 20
-0.1592603623394098
 30
0.0
 40
0.0019685039369506
100
AcDbArc
 50
270.0
 51
0.0
  0
ARC
  5
FD
330
2
100
AcDbEntity
  8
1
100
AcDbCircle
 10
0.8756599611588171
 20
-0.071228860590054
 30
0.0
 40
0.005
100
AcDbArc
 50
89.99998646010046
 51
180.0
  0
LINE
  5
FE
330
2
100
AcDbEntity
  8
1
100
AcDbLine
 10
1.170652113858523
 20
-0.2897458986590209
 30
0.0
 11
1.156567277179419
 21
-0.2462788662815001
 31
0.0
  0
LINE
  5
FF
330
2
100
AcDbEntity
  8
1
100
AcDbLine
 10
1.144979657168732
 20
-0.256508866281365
 30
0.0
 11
1.153654075958911
 21
-0.2897430857592553
 31
0.0
  0
ARC
  5
100
330
2
100
AcDbEntity
  8
1
100
AcDbCircle
 10
1.125655888532492
 20
-0.071228866250749
 30
0.0
 40
0.005
100
AcDbArc
 50
90.00001353989954
 51
180.0
  0
LINE
  5
101
330
2
100
AcDbEntity
  8
1
100
AcDbLine
 10
1.124272024029778
 20
-0.104147366280813
 30
0.0
 11
1.124272024029778
 21
-0.1494303623367159
 31
0.0
  0
ARC
  5
102
330
2
100
AcDbEntity
  8
1
100
AcDbCircle
 10
1.126240527959453
 20
-0.1494303623367159
 30
0.0
 40
0.0019685039369506
100
AcDbArc
 50
180.0
 51
270.0
  0
LINE
  5
103
330
2
100
AcDbEntity
  8
1
100
AcDbLine
 10
1.126240527959453
 20
-0.1513988662809425
 30
0.0
 11
1.136081234355515
 21
-0.1513988662809425
 31
0.0
  0
LINE
  5
104
330
2
100
AcDbEntity
  8
1
100
AcDbLine
 10
1.136083047647844
 20
-0.1612288662799983
 30
0.0
 11
1.114424541439802
 21
-0.1612288662799983
 31
0.0
  0
ARC
  5
105
330
2
100
AcDbEntity
  8
1
100
AcDbCircle
 10
1.114424541439802
 20
-0.1592603623394098
 30
0.0
 40
0.0019685039369506
100
AcDbArc
 50
180.0
 51
270.0
  0
ARC
  5
106
330
2
100
AcDbEntity
  8
1
100
AcDbCircle
 10
1.099655888530833
 20
-0.071228860590054
 30
0.0
 40
0.005
100
AcDbArc
 50
0.0
 51
90.00001354490212
  0
LINE
  5
107
330
2
100
AcDbEntity
  8
1
100
AcDbLine
 10
1.156562794039928
 20
-0.1852524883179285
 30
0.0
 11
1.11678793439205
 21
-0.1852524883179285
 31
0.0
  0
LINE
  5
108
330
2
100
AcDbEntity
  8
1
100
AcDbLine
 10
0.8392308406400843
 20
-0.1612288662799983
 30
0.0
 11
0.8392308406400843
 21
-0.1513988662809425
 31
0.0
  0
LINE
  5
109
330
2
100
AcDbEntity
  8
1
100
AcDbLine
 10
1.136081234344601
 20
-0.1612288662799983
 30
0.0
 11
1.136081234355515
 21
-0.1513988662809425
 31
0.0
  0
LINE
  5
10A
330
2
100
AcDbEntity
  8
1
100
AcDbLine
 10
1.170652113858523
 20
-0.071228866250749
 30
0.0
 11
1.170652113858523
 21
-0.1587001849329681
 31
0.0
  0
ARC
  5
10B
330
2
100
AcDbEntity
  8
1
100
AcDbCircle
 10
1.175652113859541
 20
-0.071228866250749
 30
0.0
 40
0.005
100
AcDbArc
 50
90.0
 51
180.0
  0
LINE
  5
10C
330
2
100
AcDbEntity
  8
1
100
AcDbLine
 10
1.170652113858523
 20
-0.1587001849329681
 30
0.0
 11
1.156562794039928
 21
-0.1852524883179285
 31
0.0
  0
LINE
  5
10D
330
2
100
AcDbEntity
  8
1
100
AcDbLine
 10
1.11678793439205
 20
-0.1852524883179285
 30
0.0
 11
1.11678793439205
 21
-0.1750162678472407
 31
0.0
  0
LINE
  5
10E
330
2
100
AcDbEntity
  8
1
100
AcDbLine
 10
1.11678793439205
 20
-0.1750162678472407
 30
0.0
 11
1.144976935440354
 21
-0.1750162678472407
 31
0.0
  0
LINE
  5
10F
330
2
100
AcDbEntity
  8
1
100
AcDbLine
 10
1.144976935440354
 20
-0.1750162678472407
 30
0.0
 11
1.153654075958911
 21
-0.1587001849329681
 31
0.0
  0
LINE
  5
110
330
2
100
AcDbEntity
  8
1
100
AcDbLine
 10
1.153654075958911
 20
-0.1587001849329681
 30
0.0
 11
1.153654075958911
 21
-0.1218674356823612
 31
0.0
  0
ARC
  5
111
330
2
100
AcDbEntity
  8
1
100
AcDbCircle
 10
1.149652113857882
 20
-0.071228860590054
 30
0.0
 40
0.005
100
AcDbArc
 50
0.0
 51
90.00001352030608
  0
ARC
  5
112
330
2
100
AcDbEntity
  8
1
100
AcDbCircle
 10
1.025656038418674
 20
-0.3772288662985375
 30
0.0
 40
0.005
100
AcDbArc
 50
180.0
 51
269.9999864601005
  0
ARC
  5
113
330
2
100
AcDbEntity
  8
1
100
AcDbCircle
 10
1.126240524019522
 20
-0.2828973662799399
 30
0.0
 40
0.0019685
100
AcDbArc
 50
90.0
 51
180.000000003335
  0
ARC
  5
114
330
2
100
AcDbEntity
  8
1
100
AcDbCircle
 10
1.114424537507147
 20
-0.2730473662813893
 30
0.0
 40
0.0019685
100
AcDbArc
 50
90.0
 51
180.0
  0
LINE
  5
115
330
2
100
AcDbEntity
  8
1
100
AcDbLine
 10
1.170652113858523
 20
-0.3772288663094514
 30
0.0
 11
1.170652113858523
 21
-0.2897458986590209
 31
0.0
  0
LINE
  5
116
330
2
100
AcDbEntity
  8
1
100
AcDbLine
 10
1.153654075958911
 20
-0.2897430857592553
 30
0.0
 11
1.153654075958911
 21
-0.3265902968778391
 31
0.0
  0
LINE
  5
117
330
2
100
AcDbEntity
  8
1
100
AcDbLine
 10
1.11678793439205
 20
-0.256508866281365
 30
0.0
 11
1.116787934399326
 21
-0.2462788662815001
 31
0.0
  0
LINE
  5
118
330
2
100
AcDbEntity
  8
1
100
AcDbLine
 10
1.136083047647844
 20
-0.2710788662807317
 30
0.0
 11
1.136083047647844
 21
-0.2809288662829203
 31
0.0
  0
LINE
  5
119
330
2
100
AcDbEntity
  8
1
100
AcDbLine
 10
0.8392290273586695
 20
-0.2809288662829203
 30
0.0
 11
0.8490753256592142
 21
-0.2809288662829203
 31
0.0
  0
LINE
  5
11A
330
2
100
AcDbEntity
  8
1
100
AcDbLine
 10
0.8392290273586695
 20
-0.2710788662807317
 30
0.0
 11
0.8608875374993658
 21
-0.2710788662807317
 31
0.0
  0
LINE
  5
11B
330
2
100
AcDbEntity
  8
1
100
AcDbLine
 10
0.8303324178377806
 20
-0.256508866281365
 30
0.0
 11
0.8585241406290151
 21
-0.256508866281365
 31
0.0
  0
LINE
  5
11C
330
2
100
AcDbEntity
  8
1
100
AcDbLine
 10
0.8187447978270938
 20
-0.2462788662815001
 30
0.0
 11
0.8585241406071872
 21
-0.2462788662815001
 31
0.0
  0
LINE
  5
11D
330
2
100
AcDbEntity
  8
1
100
AcDbLine
 10
0.8046599611479905
 20
-0.2897458986590209
 30
0.0
 11
0.8187447978270938
 21
-0.2462788662815001
 31
0.0
  0
LINE
  5
11E
330
2
100
AcDbEntity
  8
1
100
AcDbLine
 10
0.8303324178377806
 20
-0.256508866281365
 30
0.0
 11
0.821657999047602
 21
-0.2897430857592553
 31
0.0
  0
ARC
  5
11F
330
2
100
AcDbEntity
  8
1
100
AcDbCircle
 10
0.8608875374993658
 20
-0.2730473662813893
 30
0.0
 40
0.0019685
100
AcDbArc
 50
0.0
 51
90.0
  0
LINE
  5
120
330
2
100
AcDbEntity
  8
1
100
AcDbLine
 10
0.8046599611479905
 20
-0.3772288662985375
 30
0.0
 11
0.8046599611479905
 21
-0.2897458986590209
 31
0.0
  0
LINE
  5
121
330
2
100
AcDbEntity
  8
1
100
AcDbLine
 10
0.821657999047602
 20
-0.2897430857592553
 30
0.0
 11
0.821657999047602
 21
-0.3265902968778391
 31
0.0
  0
LINE
  5
122
330
2
100
AcDbEntity
  8
1
100
AcDbLine
 10
0.8585241406290151
 20
-0.256508866281365
 30
0.0
 11
0.8585241406071872
 21
-0.2462788662815001
 31
0.0
  0
LINE
  5
123
330
2
100
AcDbEntity
  8
1
100
AcDbLine
 10
0.8392290273586695
 20
-0.2710788662807317
 30
0.0
 11
0.8392290273586695
 21
-0.2809288662829203
 31
0.0
  0
LWPOLYLINE
  5
124
330
2
100
AcDbEntity
  8
1
100
AcDbPolyline
 90
        7
 70
     0
 43
0.0
 10
0.8716343768355727
 20
-0.2292288662829378
 10
0.8766343768365914
 20
-0.2292288662829378
 10
0.8766343768365914
 20
-0.3302524883183651
 42
0.4142135623730951
 10
0.88163437683761
 20
-0.3352524883302976
 10
1.093681620928691
 20
-0.3352524883302976
 42
0.4142135623730951
 10
1.09868162092971
 20
-0.3302524883183651
 10
1.09868162092971
 20
-0.2292288662829378
  0
LWPOLYLINE
  5
125
330
2
100
AcDbEntity
  8
1
100
AcDbPolyline
 90
        7
 70
     0
 43
0.0
 10
1.09868162092971
 20
-0.199228866280464
 10
1.09868162092971
 20
-0.1182052442309214
 42
0.4142135623732884
 10
1.093681620928691
 20
-0.1132052442299027
 10
0.88163437683761
 20
-0.1132052442299027
 42
0.4142135623729039
 10
0.8766343768365914
 20
-0.1182052442309214
 10
0.8766343768365914
 20
-0.199228866280464
 10
0.8716343768355727
 20
-0.199228866280464
  0
LINE
  5
126
330
2
100
AcDbEntity
  8
1
100
AcDbLine
 10
0.8716343768355727
 20
-0.2292288662829378
 30
0.0
 11
0.8716343768355727
 21
-0.2242288662819192
 31
0.0
  0
LINE
  5
127
330
2
100
AcDbEntity
  8
1
100
AcDbLine
 10
0.8716343768355727
 20
-0.2242288662819192
 30
0.0
 11
0.7991245414414152
 21
-0.2242288662819192
 31
0.0
  0
LINE
  5
128
330
2
100
AcDbEntity
  8
1
100
AcDbLine
 10
0.8716343768355727
 20
-0.199228866280464
 30
0.0
 11
0.8716343768355727
 21
-0.2042288662814826
 31
0.0
  0
LINE
  5
129
330
2
100
AcDbEntity
  8
1
100
AcDbLine
 10
0.8716343768355727
 20
-0.2042288662814826
 30
0.0
 11
0.7991245414414152
 21
-0.2042288662814826
 31
0.0
  0
LINE
  5
12A
330
2
100
AcDbEntity
  8
1
100
AcDbLine
 10
1.09868162092971
 20
-0.2292288662829378
 30
0.0
 11
1.10368162092709
 21
-0.2292288662829378
 31
0.0
  0
LINE
  5
12B
330
2
100
AcDbEntity
  8
1
100
AcDbLine
 10
1.10368162092709
 20
-0.2292288662829378
 30
0.0
 11
1.10368162092709
 21
-0.2242288662819192
 31
0.0
  0
LINE
  5
12C
330
2
100
AcDbEntity
  8
1
100
AcDbLine
 10
1.10368162092709
 20
-0.2242288662819192
 30
0.0
 11
1.176187533568736
 21
-0.2242288662819192
 31
0.0
  0
LINE
  5
12D
330
2
100
AcDbEntity
  8
1
100
AcDbLine
 10
1.09868162092971
 20
-0.199228866280464
 30
0.0
 11
1.10368162092709
 21
-0.199228866280464
 31
0.0
  0
LINE
  5
12E
330
2
100
AcDbEntity
  8
1
100
AcDbLine
 10
1.10368162092709
 20
-0.199228866280464
 30
0.0
 11
1.10368162092709
 21
-0.2042288662814826
 31
0.0
  0
LINE
  5
12F
330
2
100
AcDbEntity
  8
1
100
AcDbLine
 10
1.10368162092709
 20
-0.2042288662814826
 30
0.0
 11
1.176187533568736
 21
-0.2042288662814826
 31
0.0
  0
ARC
  5
130
330
2
100
AcDbEntity
  8
1
100
AcDbCircle
 10
0.8490753256592142
 20
-0.2828973662799399
 30
0.0
 40
0.0019685
100
AcDbArc
 50
0.0000000029181716
 51
89.99999997873905
  0
LINE
  5
131
330
2
100
AcDbEntity
  8
1
100
AcDbLine
 10
0.8510438256598717
 20
-0.104147366280813
 30
0.0
 11
0.8510438256598717
 21
-0.1494303623367159
 31
0.0
  0
LINE
  5
132
330
2
100
AcDbEntity
  8
1
100
AcDbLine
 10
0.8628560375036613
 20
-0.1592603623394098
 30
0.0
 11
0.8628560375036613
 21
-0.1041473702098301
 31
0.0
  0
LINE
  5
133
330
2
100
AcDbEntity
  8
1
100
AcDbLine
 10
1.124272024029778
 20
-0.104147366280813
 30
0.0
 11
1.124272024029778
 21
-0.1494303623367159
 31
0.0
  0
LINE
  5
134
330
2
100
AcDbEntity
  8
1
100
AcDbLine
 10
1.11245603750649
 20
-0.1592603623394098
 30
0.0
 11
1.11245603750649
 21
-0.1041473702098301
 31
0.0
  0
LINE
  5
135
330
2
100
AcDbEntity
  8
1
100
AcDbLine
 10
1.153654075958911
 20
-0.1218674356823612
 30
0.0
 11
1.146780060204036
 21
-0.1073262521313154
 31
0.0
  0
LINE
  5
136
330
2
100
AcDbEntity
  8
1
100
AcDbLine
 10
1.153654075958911
 20
-0.3265902968778391
 30
0.0
 11
1.146780060204036
 21
-0.341131480417971
 31
0.0
  0
LINE
  5
137
330
2
100
AcDbEntity
  8
1
100
AcDbLine
 10
0.9889080069187912
 20
-0.3565150867507327
 30
0.0
 11
0.9889080069187912
 21
-0.3462788662800449
 31
0.0
  0
LINE
  5
138
330
2
100
AcDbEntity
  8
1
100
AcDbLine
 10
0.9889080069187912
 20
-0.3462788662800449
 30
0.0
 11
0.9596560383979522
 21
-0.3462788662800449
 31
0.0
  0
LINE
  5
139
330
2
100
AcDbEntity
  8
1
100
AcDbLine
 10
0.9596560383979522
 20
-0.3462788662800449
 30
0.0
 11
0.9546560384005715
 21
-0.3512788662810635
 31
0.0
  0
LINE
  5
13A
330
2
100
AcDbEntity
  8
1
100
AcDbLine
 10
0.9546560384005715
 20
-0.3512788662810635
 30
0.0
 11
0.9546560384005715
 21
-0.3565150867507327
 31
0.0
  0
LINE
  5
13B
330
2
100
AcDbEntity
  8
1
100
AcDbLine
 10
1.004656038407119
 20
-0.3565150867507327
 30
0.0
 11
1.004656038407119
 21
-0.3512788662810635
 31
0.0
  0
LINE
  5
13C
330
2
100
AcDbEntity
  8
1
100
AcDbLine
 10
1.004656038407119
 20
-0.3512788662810635
 30
0.0
 11
1.009656038408138
 21
-0.3462788662800449
 31
0.0
  0
LINE
  5
13D
330
2
100
AcDbEntity
  8
1
100
AcDbLine
 10
1.009656038408138
 20
-0.3462788662800449
 30
0.0
 11
1.032923754170042
 21
-0.3462788662800449
 31
0.0
  0
LINE
  5
13E
330
2
100
AcDbEntity
  8
1
100
AcDbLine
 10
1.032923754170042
 20
-0.3462788662800449
 30
0.0
 11
1.032923754170042
 21
-0.3565150867507327
 31
0.0
  0
LINE
  5
13F
330
2
100
AcDbEntity
  8
1
100
AcDbLine
 10
0.9046560383976611
 20
-0.3772288662985375
 30
0.0
 11
0.9046560383976611
 21
-0.3650107560388278
 31
0.0
  0
LINE
  5
140
330
2
100
AcDbEntity
  8
1
100
AcDbLine
 10
0.8967820218895212
 20
-0.3565150867507327
 30
0.0
 11
0.8967820218895212
 21
-0.3462788662800449
 31
0.0
  0
LINE
  5
141
330
2
100
AcDbEntity
  8
1
100
AcDbLine
 10
0.8967820218895212
 20
-0.3462788662800449
 30
0.0
 11
0.9285300533701956
 21
-0.3462788662800449
 31
0.0
  0
LINE
  5
142
330
2
100
AcDbEntity
  8
1
100
AcDbLine
 10
0.9285300533701956
 20
-0.3462788662800449
 30
0.0
 11
0.9285300533701956
 21
-0.3565150867507327
 31
0.0
  0
LINE
  5
143
330
2
100
AcDbEntity
  8
1
100
AcDbLine
 10
0.9206560383972828
 20
-0.3650107560497418
 30
0.0
 11
0.9206560383972828
 21
-0.3772288719665084
 31
0.0
  0
LINE
  5
144
330
2
100
AcDbEntity
  8
1
100
AcDbLine
 10
1.048671786444174
 20
-0.3565150867507327
 30
0.0
 11
1.048671786444174
 21
-0.3462788662800449
 31
0.0
  0
LINE
  5
145
330
2
100
AcDbEntity
  8
1
100
AcDbLine
 10
1.048671786444174
 20
-0.3462788662800449
 30
0.0
 11
1.078530053400754
 21
-0.3462788662800449
 31
0.0
  0
LINE
  5
146
330
2
100
AcDbEntity
  8
1
100
AcDbLine
 10
1.078530053400754
 20
-0.3462788662800449
 30
0.0
 11
1.078530053400754
 21
-0.3565150867507327
 31
0.0
  0
LINE
  5
147
330
2
100
AcDbEntity
  8
1
100
AcDbLine
 10
0.8285320147988386
 20
-0.341131480417971
 30
0.0
 11
0.8285320147988386
 21
-0.3509788662813662
 31
0.0
  0
LINE
  5
148
330
2
100
AcDbEntity
  8
1
100
AcDbLine
 10
0.8206599611476121
 20
-0.3594745364098344
 30
0.0
 11
0.8206599611476121
 21
-0.3772288719665084
 31
0.0
  0
LINE
  5
149
330
2
100
AcDbEntity
  8
1
100
AcDbLine
 10
1.146780060204036
 20
-0.341131480417971
 30
0.0
 11
1.146780060204036
 21
-0.3509788662813662
 31
0.0
  0
LINE
  5
14A
330
2
100
AcDbEntity
  8
1
100
AcDbLine
 10
1.154652113866177
 20
-0.3594745363880065
 30
0.0
 11
1.154652113858901
 21
-0.3772288719665084
 31
0.0
  0
LINE
  5
14B
330
2
100
AcDbEntity
  8
1
100
AcDbLine
 10
0.9186875344676082
 20
-0.3614885715978744
 30
0.0
 11
0.9186875344603322
 21
-0.357499338719208
 31
0.0
  0
ARC
  5
14C
330
2
100
AcDbEntity
  8
1
100
AcDbCircle
 10
0.9196717864324455
 20
-0.357499338719208
 30
0.0
 40
0.0009842519685039
100
AcDbArc
 50
90.0
 51
179.9999999945805
  0
LINE
  5
14D
330
2
100
AcDbEntity
  8
1
100
AcDbLine
 10
0.9285300533701956
 20
-0.3565150867507327
 30
0.0
 11
0.9196717864324455
 21
-0.3565150867507327
 31
0.0
  0
LINE
  5
14E
330
2
100
AcDbEntity
  8
1
100
AcDbLine
 10
0.9066245423382497
 20
-0.3614885715796845
 30
0.0
 11
0.9066245423382497
 21
-0.357499338719208
 31
0.0
  0
ARC
  5
14F
330
2
100
AcDbEntity
  8
1
100
AcDbCircle
 10
0.9056402903734124
 20
-0.357499338719208
 30
0.0
 40
0.0009842519685039
100
AcDbArc
 50
0.0000000054194616
 51
90.0
  0
LINE
  5
150
330
2
100
AcDbEntity
  8
1
100
AcDbLine
 10
0.9056402903734124
 20
-0.3565150867507327
 30
0.0
 11
0.8967820218895212
 21
-0.3565150867507327
 31
0.0
  0
ARC
  5
151
330
2
100
AcDbEntity
  8
1
100
AcDbCircle
 10
0.9696717864426318
 20
-0.357499338719208
 30
0.0
 40
0.0009842519685039
100
AcDbArc
 50
90.0
 51
179.9999999945805
  0
LINE
  5
152
330
2
100
AcDbEntity
  8
1
100
AcDbLine
 10
0.9889080069187912
 20
-0.3565150867507327
 30
0.0
 11
0.9696717864426318
 21
-0.3565150867507327
 31
0.0
  0
ARC
  5
153
330
2
100
AcDbEntity
  8
1
100
AcDbCircle
 10
0.9556402903799607
 20
-0.357499338719208
 30
0.0
 40
0.0009842519685039
100
AcDbArc
 50
0.0000000054194616
 51
90.0
  0
LINE
  5
154
330
2
100
AcDbEntity
  8
1
100
AcDbLine
 10
0.9556402903799607
 20
-0.3565150867507327
 30
0.0
 11
0.9546560384005715
 21
-0.3565150867507327
 31
0.0
  0
ARC
  5
155
330
2
100
AcDbEntity
  8
1
100
AcDbCircle
 10
1.019671786445542
 20
-0.357499338719208
 30
0.0
 40
0.0009842519685039
100
AcDbArc
 50
90.0
 51
179.9999999945805
  0
LINE
  5
156
330
2
100
AcDbEntity
  8
1
100
AcDbLine
 10
1.032923754170042
 20
-0.3565150867507327
 30
0.0
 11
1.019671786445542
 21
-0.3565150867507327
 31
0.0
  0
ARC
  5
157
330
2
100
AcDbEntity
  8
1
100
AcDbCircle
 10
1.005640290390147
 20
-0.357499338719208
 30
0.0
 40
0.0009842519685039
100
AcDbArc
 50
0.0000000054194616
 51
90.0
  0
LINE
  5
158
330
2
100
AcDbEntity
  8
1
100
AcDbLine
 10
1.005640290390147
 20
-0.3565150867507327
 30
0.0
 11
1.004656038407119
 21
-0.3565150867507327
 31
0.0
  0
ARC
  5
159
330
2
100
AcDbEntity
  8
1
100
AcDbCircle
 10
1.069671786455728
 20
-0.357499338719208
 30
0.0
 40
0.0009842519685039
100
AcDbArc
 50
90.0
 51
179.9999999945805
  0
LINE
  5
15A
330
2
100
AcDbEntity
  8
1
100
AcDbLine
 10
1.078530053400754
 20
-0.3565150867507327
 30
0.0
 11
1.069671786455728
 21
-0.3565150867507327
 31
0.0
  0
ARC
  5
15B
330
2
100
AcDbEntity
  8
1
100
AcDbCircle
 10
1.055640290396695
 20
-0.357499338719208
 30
0.0
 40
0.0009842519685039
100
AcDbArc
 50
0.0000000054194616
 51
90.0
  0
LINE
  5
15C
330
2
100
AcDbEntity
  8
1
100
AcDbLine
 10
1.055640290396695
 20
-0.3565150867507327
 30
0.0
 11
1.048671786444174
 21
-0.3565150867507327
 31
0.0
  0
LINE
  5
15D
330
2
100
AcDbEntity
  8
1
100
AcDbLine
 10
1.156620617799489
 20
-0.3559523519470531
 30
0.0
 11
1.156620617806765
 21
-0.3519631190683867
 31
0.0
  0
ARC
  5
15E
330
2
100
AcDbEntity
  8
1
100
AcDbCircle
 10
1.155636365831014
 20
-0.3519631190683867
 30
0.0
 40
0.0009842519685039
100
AcDbArc
 50
0.0000000054194616
 51
90.0
  0
LINE
  5
15F
330
2
100
AcDbEntity
  8
1
100
AcDbLine
 10
1.146780060204036
 20
-0.3509788670999114
 30
0.0
 11
1.155636365831014
 21
-0.3509788670999114
 31
0.0
  0
LINE
  5
160
330
2
100
AcDbEntity
  8
1
100
AcDbLine
 10
0.8392308406582742
 20
-0.3462788662800449
 30
0.0
 11
0.8392308406509982
 21
-0.3565150867507327
 31
0.0
  0
LINE
  5
161
330
2
100
AcDbEntity
  8
1
100
AcDbLine
 10
1.136081234355515
 20
-0.3462788662800449
 30
0.0
 11
1.136081234355515
 21
-0.3565150867507327
 31
0.0
  0
LINE
  5
162
330
2
100
AcDbEntity
  8
1
100
AcDbLine
 10
1.136081234355515
 20
-0.3462788662800449
 30
0.0
 11
1.126240524037712
 21
-0.3462788662800449
 31
0.0
  0
LINE
  5
163
330
2
100
AcDbEntity
  8
1
100
AcDbLine
 10
0.8510438256598717
 20
-0.3443103662830254
 30
0.0
 11
0.8510438256598717
 21
-0.2828973662799399
 31
0.0
  0
ARC
  5
164
330
2
100
AcDbEntity
  8
1
100
AcDbCircle
 10
0.8490753256592142
 20
-0.3443103662830254
 30
0.0
 40
0.0019685
100
AcDbArc
 50
270.0
 51
0.0
  0
LINE
  5
165
330
2
100
AcDbEntity
  8
1
100
AcDbLine
 10
0.8628560375036613
 20
-0.2730473662813893
 30
0.0
 11
0.8628560375036613
 21
-0.3443103623394563
 31
0.0
  0
ARC
  5
166
330
2
100
AcDbEntity
  8
1
100
AcDbCircle
 10
0.8648245414442499
 20
-0.3443103623394563
 30
0.0
 40
0.0019685039369506
100
AcDbArc
 50
180.0
 51
270.0
  0
LINE
  5
167
330
2
100
AcDbEntity
  8
1
100
AcDbLine
 10
0.8648245414442499
 20
-0.3462788662800449
 30
0.0
 11
0.8781284643700928
 21
-0.3462788662800449
 31
0.0
  0
LINE
  5
168
330
2
100
AcDbEntity
  8
1
100
AcDbLine
 10
0.8781284643700928
 20
-0.3462788662800449
 30
0.0
 11
0.8781284643700928
 21
-0.3565150867507327
 31
0.0
  0
LINE
  5
169
330
2
100
AcDbEntity
  8
1
100
AcDbLine
 10
1.124272024029778
 20
-0.3443103662830254
 30
0.0
 11
1.124272024018864
 21
-0.2828973662799399
 31
0.0
  0
ARC
  5
16A
330
2
100
AcDbEntity
  8
1
100
AcDbCircle
 10
1.126240524037712
 20
-0.3443103662830254
 30
0.0
 40
0.0019685
100
AcDbArc
 50
180.0
 51
270.0
  0
LINE
  5
16B
330
2
100
AcDbEntity
  8
1
100
AcDbLine
 10
1.11245603750649
 20
-0.2730473662813893
 30
0.0
 11
1.11245603750649
 21
-0.3443103623394563
 31
0.0
  0
ARC
  5
16C
330
2
100
AcDbEntity
  8
1
100
AcDbCircle
 10
1.110487533569539
 20
-0.3443103623394563
 30
0.0
 40
0.0019685039369506
100
AcDbArc
 50
270.0
 51
0.0
  0
LINE
  5
16D
330
2
100
AcDbEntity
  8
1
100
AcDbLine
 10
1.110487533569539
 20
-0.3462788662800449
 30
0.0
 11
1.097187385308643
 21
-0.3462788662800449
 31
0.0
  0
LINE
  5
16E
330
2
100
AcDbEntity
  8
1
100
AcDbLine
 10
1.097187385308643
 20
-0.3462788662800449
 30
0.0
 11
1.097187385308643
 21
-0.3565150867507327
 31
0.0
  0
LINE
  5
16F
330
2
100
AcDbEntity
  8
1
100
AcDbLine
 10
0.8392308406582742
 20
-0.3462788662800449
 30
0.0
 11
0.8490753256592142
 21
-0.3462788662800449
 31
0.0
  0
ARC
  5
170
330
2
100
AcDbEntity
  8
1
100
AcDbCircle
 10
1.119671786469552
 20
-0.357499338719208
 30
0.0
 40
0.0009842519685039
100
AcDbArc
 50
90.0
 51
179.9999999945805
  0
LINE
  5
171
330
2
100
AcDbEntity
  8
1
100
AcDbLine
 10
1.136081234355515
 20
-0.3565150867507327
 30
0.0
 11
1.119671786469552
 21
-0.3565150867507327
 31
0.0
  0
ARC
  5
172
330
2
100
AcDbEntity
  8
1
100
AcDbCircle
 10
1.105640290406881
 20
-0.357499338719208
 30
0.0
 40
0.0009842519685039
100
AcDbArc
 50
0.0000000054194616
 51
90.0
  0
LINE
  5
173
330
2
100
AcDbEntity
  8
1
100
AcDbLine
 10
1.105640290406881
 20
-0.3565150867507327
 30
0.0
 11
1.097187385308643
 21
-0.3565150867507327
 31
0.0
  0
ARC
  5
174
330
2
100
AcDbEntity
  8
1
100
AcDbCircle
 10
0.8556402885405987
 20
-0.357499338719208
 30
0.0
 40
0.0009842519685039
100
AcDbArc
 50
0.0000000054194616
 51
90.0
  0
LINE
  5
175
330
2
100
AcDbEntity
  8
1
100
AcDbLine
 10
0.8392308406509982
 20
-0.3565150867507327
 30
0.0
 11
0.8556402885405987
 21
-0.3565150867507327
 31
0.0
  0
ARC
  5
176
330
2
100
AcDbEntity
  8
1
100
AcDbCircle
 10
0.8696717845996317
 20
-0.357499338719208
 30
0.0
 40
0.0009842519685039
100
AcDbArc
 50
90.0
 51
179.9999999945805
  0
LINE
  5
177
330
2
100
AcDbEntity
  8
1
100
AcDbLine
 10
0.8696717845996317
 20
-0.3565150867507327
 30
0.0
 11
0.87812468969787
 21
-0.3565150867507327
 31
0.0
  0
LINE
  5
178
330
2
100
AcDbEntity
  8
1
100
AcDbLine
 10
0.9186875344676082
 20
-0.3614885715978744
 30
0.0
 11
0.9206560383972828
 21
-0.3650107560497418
 31
0.0
  0
LINE
  5
179
330
2
100
AcDbEntity
  8
1
100
AcDbLine
 10
0.9066245423382497
 20
-0.3614885715796845
 30
0.0
 11
0.9046560383976611
 21
-0.3650107560388278
 31
0.0
  0
LINE
  5
17A
330
2
100
AcDbEntity
  8
1
100
AcDbLine
 10
0.9546560384005715
 20
-0.3772288662985375
 30
0.0
 11
0.9546560384005715
 21
-0.3650107560388278
 31
0.0
  0
LINE
  5
17B
330
2
100
AcDbEntity
  8
1
100
AcDbLine
 10
0.9706560384074691
 20
-0.3650107560497418
 30
0.0
 11
0.9706560384074691
 21
-0.3772288719665084
 31
0.0
  0
LINE
  5
17C
330
2
100
AcDbEntity
  8
1
100
AcDbLine
 10
0.9686875344668806
 20
-0.3614885715978744
 30
0.0
 11
0.9686875344668806
 21
-0.357499338719208
 31
0.0
  0
LINE
  5
17D
330
2
100
AcDbEntity
  8
1
100
AcDbLine
 10
0.9566245423411601
 20
-0.3614885715796845
 30
0.0
 11
0.9566245423411601
 21
-0.357499338719208
 31
0.0
  0
LINE
  5
17E
330
2
100
AcDbEntity
  8
1
100
AcDbLine
 10
0.9686875344668806
 20
-0.3614885715978744
 30
0.0
 11
0.9706560384074691
 21
-0.3650107560497418
 31
0.0
  0
LINE
  5
17F
330
2
100
AcDbEntity
  8
1
100
AcDbLine
 10
0.9566245423411601
 20
-0.3614885715796845
 30
0.0
 11
0.9546560384005715
 21
-0.3650107560388278
 31
0.0
  0
LINE
  5
180
330
2
100
AcDbEntity
  8
1
100
AcDbLine
 10
1.004656038407119
 20
-0.3772288662985375
 30
0.0
 11
1.004656038407119
 21
-0.3650107560388278
 31
0.0
  0
LINE
  5
181
330
2
100
AcDbEntity
  8
1
100
AcDbLine
 10
1.020656038410379
 20
-0.3650107560497418
 30
0.0
 11
1.020656038410379
 21
-0.3772288719665084
 31
0.0
  0
LINE
  5
182
330
2
100
AcDbEntity
  8
1
100
AcDbLine
 10
1.018687534477066
 20
-0.3614885715978744
 30
0.0
 11
1.018687534477066
 21
-0.357499338719208
 31
0.0
  0
LINE
  5
183
330
2
100
AcDbEntity
  8
1
100
AcDbLine
 10
1.006624542347708
 20
-0.3614885715796845
 30
0.0
 11
1.006624542347708
 21
-0.357499338719208
 31
0.0
  0
LINE
  5
184
330
2
100
AcDbEntity
  8
1
100
AcDbLine
 10
1.018687534477066
 20
-0.3614885715978744
 30
0.0
 11
1.020656038410379
 21
-0.3650107560497418
 31
0.0
  0
LINE
  5
185
330
2
100
AcDbEntity
  8
1
100
AcDbLine
 10
1.006624542347708
 20
-0.3614885715796845
 30
0.0
 11
1.004656038407119
 21
-0.3650107560388278
 31
0.0
  0
LINE
  5
186
330
2
100
AcDbEntity
  8
1
100
AcDbLine
 10
1.054656038417306
 20
-0.3772288662985375
 30
0.0
 11
1.054656038417306
 21
-0.3650107560388278
 31
0.0
  0
LINE
  5
187
330
2
100
AcDbEntity
  8
1
100
AcDbLine
 10
1.070656038416927
 20
-0.3650107560497418
 30
0.0
 11
1.070656038416927
 21
-0.3772288719665084
 31
0.0
  0
LINE
  5
188
330
2
100
AcDbEntity
  8
1
100
AcDbLine
 10
1.068687534487253
 20
-0.3614885715978744
 30
0.0
 11
1.068687534476339
 21
-0.357499338719208
 31
0.0
  0
LINE
  5
189
330
2
100
AcDbEntity
  8
1
100
AcDbLine
 10
1.056624542357894
 20
-0.3614885715796845
 30
0.0
 11
1.056624542357894
 21
-0.357499338719208
 31
0.0
  0
LINE
  5
18A
330
2
100
AcDbEntity
  8
1
100
AcDbLine
 10
1.068687534487253
 20
-0.3614885715978744
 30
0.0
 11
1.070656038416927
 21
-0.3650107560497418
 31
0.0
  0
LINE
  5
18B
330
2
100
AcDbEntity
  8
1
100
AcDbLine
 10
1.056624542357894
 20
-0.3614885715796845
 30
0.0
 11
1.054656038417306
 21
-0.3650107560388278
 31
0.0
  0
LINE
  5
18C
330
2
100
AcDbEntity
  8
1
100
AcDbLine
 10
1.104656038420216
 20
-0.3772288662985375
 30
0.0
 11
1.104656038420216
 21
-0.3650107560388278
 31
0.0
  0
LINE
  5
18D
330
2
100
AcDbEntity
  8
1
100
AcDbLine
 10
1.120656038427114
 20
-0.3650107560497418
 30
0.0
 11
1.120656038427114
 21
-0.3772288719665084
 31
0.0
  0
LINE
  5
18E
330
2
100
AcDbEntity
  8
1
100
AcDbLine
 10
1.118687534497439
 20
-0.3614885715978744
 30
0.0
 11
1.118687534486525
 21
-0.357499338719208
 31
0.0
  0
LINE
  5
18F
330
2
100
AcDbEntity
  8
1
100
AcDbLine
 10
1.106624542368081
 20
-0.3614885715796845
 30
0.0
 11
1.106624542368081
 21
-0.357499338719208
 31
0.0
  0
LINE
  5
190
330
2
100
AcDbEntity
  8
1
100
AcDbLine
 10
1.118687534497439
 20
-0.3614885715978744
 30
0.0
 11
1.120656038427114
 21
-0.3650107560497418
 31
0.0
  0
LINE
  5
191
330
2
100
AcDbEntity
  8
1
100
AcDbLine
 10
1.106624542368081
 20
-0.3614885715796845
 30
0.0
 11
1.104656038420216
 21
-0.3650107560388278
 31
0.0
  0
LINE
  5
192
330
2
100
AcDbEntity
  8
1
100
AcDbLine
 10
1.156620617799489
 20
-0.3559523519470531
 30
0.0
 11
1.154652113866177
 21
-0.3594745363880065
 31
0.0
  0
LINE
  5
193
330
2
100
AcDbEntity
  8
1
100
AcDbLine
 10
0.8546560383983887
 20
-0.3772288662985375
 30
0.0
 11
0.8546560383983887
 21
-0.3650107560388278
 31
0.0
  0
LINE
  5
194
330
2
100
AcDbEntity
  8
1
100
AcDbLine
 10
0.8706560383980104
 20
-0.3650107560497418
 30
0.0
 11
0.8706560383980104
 21
-0.3772288719665084
 31
0.0
  0
LINE
  5
195
330
2
100
AcDbEntity
  8
1
100
AcDbLine
 10
0.8686875344683357
 20
-0.3614885715978744
 30
0.0
 11
0.8686875344683357
 21
-0.357499338719208
 31
0.0
  0
LINE
  5
196
330
2
100
AcDbEntity
  8
1
100
AcDbLine
 10
0.8566245423389773
 20
-0.3614885715796845
 30
0.0
 11
0.8566245423389773
 21
-0.357499338719208
 31
0.0
  0
LINE
  5
197
330
2
100
AcDbEntity
  8
1
100
AcDbLine
 10
0.8686875344683357
 20
-0.3614885715978744
 30
0.0
 11
0.8706560383980104
 21
-0.3650107560497418
 31
0.0
  0
LINE
  5
198
330
2
100
AcDbEntity
  8
1
100
AcDbLine
 10
0.8566245423389773
 20
-0.3614885715796845
 30
0.0
 11
0.8546560383983887
 21
-0.3650107560388278
 31
0.0
  0
LINE
  5
199
330
2
100
AcDbEntity
  8
1
100
AcDbLine
 10
0.8186914572070236
 20
-0.3559523519470531
 30
0.0
 11
0.8186914571961096
 21
-0.3519631190683867
 31
0.0
  0
ARC
  5
19A
330
2
100
AcDbEntity
  8
1
100
AcDbCircle
 10
0.8196757091791369
 20
-0.3519631190683867
 30
0.0
 40
0.0009842519685039
100
AcDbArc
 50
90.0
 51
179.9999999945805
  0
LINE
  5
19B
330
2
100
AcDbEntity
  8
1
100
AcDbLine
 10
0.8285320147988386
 20
-0.3509788670999114
 30
0.0
 11
0.8196757091791369
 21
-0.3509788670999114
 31
0.0
  0
LINE
  5
19C
330
2
100
AcDbEntity
  8
1
100
AcDbLine
 10
0.8186914572070236
 20
-0.3559523519470531
 30
0.0
 11
0.8206599611366982
 21
-0.3594745363880065
 31
0.0
  0
LINE
  5
19D
330
2
100
AcDbEntity
  8
1
100
AcDbLine
 10
0.9889080069187912
 20
-0.0919426458094677
 30
0.0
 11
0.9889080069187912
 21
-0.1021788662801555
 31
0.0
  0
LINE
  5
19E
330
2
100
AcDbEntity
  8
1
100
AcDbLine
 10
0.9889080069187912
 20
-0.1021788662801555
 30
0.0
 11
0.9596560383979522
 21
-0.1021788662801555
 31
0.0
  0
LINE
  5
19F
330
2
100
AcDbEntity
  8
1
100
AcDbLine
 10
0.9596560383979522
 20
-0.1021788662801555
 30
0.0
 11
0.9546560384005715
 21
-0.0971788662827749
 31
0.0
  0
LINE
  5
1A0
330
2
100
AcDbEntity
  8
1
100
AcDbLine
 10
0.9546560384005715
 20
-0.0971788662827749
 30
0.0
 11
0.9546560384005715
 21
-0.0919426458094677
 31
0.0
  0
LINE
  5
1A1
330
2
100
AcDbEntity
  8
1
100
AcDbLine
 10
1.004656038407119
 20
-0.0919426458094677
 30
0.0
 11
1.004656038407119
 21
-0.0971788662827749
 31
0.0
  0
LINE
  5
1A2
330
2
100
AcDbEntity
  8
1
100
AcDbLine
 10
1.004656038407119
 20
-0.0971788662827749
 30
0.0
 11
1.009656038408138
 21
-0.1021788662801555
 31
0.0
  0
LINE
  5
1A3
330
2
100
AcDbEntity
  8
1
100
AcDbLine
 10
1.009656038408138
 20
-0.1021788662801555
 30
0.0
 11
1.032923754170042
 21
-0.1021788662801555
 31
0.0
  0
LINE
  5
1A4
330
2
100
AcDbEntity
  8
1
100
AcDbLine
 10
1.032923754170042
 20
-0.1021788662801555
 30
0.0
 11
1.032923754170042
 21
-0.0919426458094677
 31
0.0
  0
LINE
  5
1A5
330
2
100
AcDbEntity
  8
1
100
AcDbLine
 10
0.9046560383976611
 20
-0.071228866250749
 30
0.0
 11
0.9046560383976611
 21
-0.0834469765177346
 31
0.0
  0
LINE
  5
1A6
330
2
100
AcDbEntity
  8
1
100
AcDbLine
 10
0.8967820218895212
 20
-0.0919426458094677
 30
0.0
 11
0.8967820218895212
 21
-0.1021788662801555
 31
0.0
  0
LINE
  5
1A7
330
2
100
AcDbEntity
  8
1
100
AcDbLine
 10
0.8967820218895212
 20
-0.1021788662801555
 30
0.0
 11
0.9285300533701956
 21
-0.1021788662801555
 31
0.0
  0
LINE
  5
1A8
330
2
100
AcDbEntity
  8
1
100
AcDbLine
 10
0.9285300533701956
 20
-0.1021788662801555
 30
0.0
 11
0.9285300533701956
 21
-0.0919426458094677
 31
0.0
  0
LINE
  5
1A9
330
2
100
AcDbEntity
  8
1
100
AcDbLine
 10
0.9206560383972828
 20
-0.0834469765068207
 30
0.0
 11
0.9206560383972828
 21
-0.071228860590054
 31
0.0
  0
LINE
  5
1AA
330
2
100
AcDbEntity
  8
1
100
AcDbLine
 10
1.048671786444174
 20
-0.0919426458094677
 30
0.0
 11
1.048671786444174
 21
-0.1021788662801555
 31
0.0
  0
LINE
  5
1AB
330
2
100
AcDbEntity
  8
1
100
AcDbLine
 10
1.048671786444174
 20
-0.1021788662801555
 30
0.0
 11
1.078530053400754
 21
-0.1021788662801555
 31
0.0
  0
LINE
  5
1AC
330
2
100
AcDbEntity
  8
1
100
AcDbLine
 10
1.078530053400754
 20
-0.1021788662801555
 30
0.0
 11
1.078530053400754
 21
-0.0919426458094677
 31
0.0
  0
LINE
  5
1AD
330
2
100
AcDbEntity
  8
1
100
AcDbLine
 10
0.8285320147988386
 20
-0.1073262521313154
 30
0.0
 11
0.8285320147988386
 21
-0.0974788662824722
 31
0.0
  0
LINE
  5
1AE
330
2
100
AcDbEntity
  8
1
100
AcDbLine
 10
0.8206599611476121
 20
-0.088983196150366
 30
0.0
 11
0.8206599611476121
 21
-0.071228860590054
 31
0.0
  0
LINE
  5
1AF
330
2
100
AcDbEntity
  8
1
100
AcDbLine
 10
1.146780060204036
 20
-0.1073262521313154
 30
0.0
 11
1.146780060204036
 21
-0.0974788662824722
 31
0.0
  0
LINE
  5
1B0
330
2
100
AcDbEntity
  8
1
100
AcDbLine
 10
1.154652113866177
 20
-0.088983196157642
 30
0.0
 11
1.154652113858901
 21
-0.071228860590054
 31
0.0
  0
LINE
  5
1B1
330
2
100
AcDbEntity
  8
1
100
AcDbLine
 10
0.9186875344676082
 20
-0.086969160958688
 30
0.0
 11
0.9186875344603322
 21
-0.0909583938409924
 31
0.0
  0
ARC
  5
1B2
330
2
100
AcDbEntity
  8
1
100
AcDbCircle
 10
0.9196717864324455
 20
-0.0909583938409924
 30
0.0
 40
0.0009842519685039
100
AcDbArc
 50
180.0000000054194
 51
270.0
  0
LINE
  5
1B3
330
2
100
AcDbEntity
  8
1
100
AcDbLine
 10
0.9285300533701956
 20
-0.0919426458094677
 30
0.0
 11
0.9196717864324455
 21
-0.0919426458094677
 31
0.0
  0
LINE
  5
1B4
330
2
100
AcDbEntity
  8
1
100
AcDbLine
 10
0.9066245423382497
 20
-0.086969160969602
 30
0.0
 11
0.9066245423382497
 21
-0.0909583938409924
 31
0.0
  0
ARC
  5
1B5
330
2
100
AcDbEntity
  8
1
100
AcDbCircle
 10
0.9056402903734124
 20
-0.0909583938409924
 30
0.0
 40
0.0009842519685039
100
AcDbArc
 50
270.0
 51
359.9999999945806
  0
LINE
  5
1B6
330
2
100
AcDbEntity
  8
1
100
AcDbLine
 10
0.9056402903734124
 20
-0.0919426458094677
 30
0.0
 11
0.8967820218895212
 21
-0.0919426458094677
 31
0.0
  0
ARC
  5
1B7
330
2
100
AcDbEntity
  8
1
100
AcDbCircle
 10
0.9696717864426318
 20
-0.0909583938409924
 30
0.0
 40
0.0009842519685039
100
AcDbArc
 50
180.0000000054194
 51
270.0
  0
LINE
  5
1B8
330
2
100
AcDbEntity
  8
1
100
AcDbLine
 10
0.9889080069187912
 20
-0.0919426458094677
 30
0.0
 11
0.9696717864426318
 21
-0.0919426458094677
 31
0.0
  0
ARC
  5
1B9
330
2
100
AcDbEntity
  8
1
100
AcDbCircle
 10
0.9556402903799607
 20
-0.0909583938409924
 30
0.0
 40
0.0009842519685039
100
AcDbArc
 50
270.0
 51
359.9999999945806
  0
LINE
  5
1BA
330
2
100
AcDbEntity
  8
1
100
AcDbLine
 10
0.9556402903799607
 20
-0.0919426458094677
 30
0.0
 11
0.9546560384005715
 21
-0.0919426458094677
 31
0.0
  0
ARC
  5
1BB
330
2
100
AcDbEntity
  8
1
100
AcDbCircle
 10
1.019671786445542
 20
-0.0909583938409924
 30
0.0
 40
0.0009842519685039
100
AcDbArc
 50
180.0000000054194
 51
270.0
  0
LINE
  5
1BC
330
2
100
AcDbEntity
  8
1
100
AcDbLine
 10
1.032923754170042
 20
-0.0919426458094677
 30
0.0
 11
1.019671786445542
 21
-0.0919426458094677
 31
0.0
  0
ARC
  5
1BD
330
2
100
AcDbEntity
  8
1
100
AcDbCircle
 10
1.005640290390147
 20
-0.0909583938409924
 30
0.0
 40
0.0009842519685039
100
AcDbArc
 50
270.0
 51
359.9999999945806
  0
LINE
  5
1BE
330
2
100
AcDbEntity
  8
1
100
AcDbLine
 10
1.005640290390147
 20
-0.0919426458094677
 30
0.0
 11
1.004656038407119
 21
-0.0919426458094677
 31
0.0
  0
ARC
  5
1BF
330
2
100
AcDbEntity
  8
1
100
AcDbCircle
 10
1.069671786455728
 20
-0.0909583938409924
 30
0.0
 40
0.0009842519685039
100
AcDbArc
 50
180.0000000054194
 51
270.0
  0
LINE
  5
1C0
330
2
100
AcDbEntity
  8
1
100
AcDbLine
 10
1.078530053400754
 20
-0.0919426458094677
 30
0.0
 11
1.069671786455728
 21
-0.0919426458094677
 31
0.0
  0
ARC
  5
1C1
330
2
100
AcDbEntity
  8
1
100
AcDbCircle
 10
1.055640290396695
 20
-0.0909583938409924
 30
0.0
 40
0.0009842519685039
100
AcDbArc
 50
270.0
 51
359.9999999945806
  0
LINE
  5
1C2
330
2
100
AcDbEntity
  8
1
100
AcDbLine
 10
1.055640290396695
 20
-0.0919426458094677
 30
0.0
 11
1.048671786444174
 21
-0.0919426458094677
 31
0.0
  0
LINE
  5
1C3
330
2
100
AcDbEntity
  8
1
100
AcDbLine
 10
1.156620617799489
 20
-0.0925053806058713
 30
0.0
 11
1.156620617806765
 21
-0.0964946134918137
 31
0.0
  0
ARC
  5
1C4
330
2
100
AcDbEntity
  8
1
100
AcDbCircle
 10
1.155636365831014
 20
-0.0964946134918137
 30
0.0
 40
0.0009842519685039
100
AcDbArc
 50
270.0
 51
359.9999999945806
  0
LINE
  5
1C5
330
2
100
AcDbEntity
  8
1
100
AcDbLine
 10
1.146780060204036
 20
-0.097478865460289
 30
0.0
 11
1.155636365831014
 21
-0.097478865449375
 31
0.0
  0
LINE
  5
1C6
330
2
100
AcDbEntity
  8
1
100
AcDbLine
 10
0.8392308406582742
 20
-0.1021788662801555
 30
0.0
 11
0.8392308406509982
 21
-0.0919426458094677
 31
0.0
  0
LINE
  5
1C7
330
2
100
AcDbEntity
  8
1
100
AcDbLine
 10
1.136081234355515
 20
-0.1021788662801555
 30
0.0
 11
1.136081234355515
 21
-0.0919426458094677
 31
0.0
  0
LINE
  5
1C8
330
2
100
AcDbEntity
  8
1
100
AcDbLine
 10
1.136081234355515
 20
-0.1021788662801555
 30
0.0
 11
1.126240524037712
 21
-0.1021788662801555
 31
0.0
  0
ARC
  5
1C9
330
2
100
AcDbEntity
  8
1
100
AcDbCircle
 10
0.8490753256592142
 20
-0.104147366280813
 30
0.0
 40
0.0019685
100
AcDbArc
 50
0.0
 51
90.0
  0
ARC
  5
1CA
330
2
100
AcDbEntity
  8
1
100
AcDbCircle
 10
0.8648245414442499
 20
-0.1041473702098301
 30
0.0
 40
0.0019685039369506
100
AcDbArc
 50
90.0
 51
180.0
  0
LINE
  5
1CB
330
2
100
AcDbEntity
  8
1
100
AcDbLine
 10
0.8648245414442499
 20
-0.1021788662801555
 30
0.0
 11
0.8781284643700928
 21
-0.1021788662801555
 31
0.0
  0
LINE
  5
1CC
330
2
100
AcDbEntity
  8
1
100
AcDbLine
 10
0.8781284643700928
 20
-0.1021788662801555
 30
0.0
 11
0.8781284643700928
 21
-0.0919426458094677
 31
0.0
  0
ARC
  5
1CD
330
2
100
AcDbEntity
  8
1
100
AcDbCircle
 10
1.126240524037712
 20
-0.104147366280813
 30
0.0
 40
0.0019685
100
AcDbArc
 50
90.0
 51
180.0
  0
ARC
  5
1CE
330
2
100
AcDbEntity
  8
1
100
AcDbCircle
 10
1.110487533569539
 20
-0.1041473702098301
 30
0.0
 40
0.0019685039369506
100
AcDbArc
 50
0.0
 51
90.0
  0
LINE
  5
1CF
330
2
100
AcDbEntity
  8
1
100
AcDbLine
 10
1.110487533569539
 20
-0.1021788662801555
 30
0.0
 11
1.097187385308643
 21
-0.1021788662801555
 31
0.0
  0
LINE
  5
1D0
330
2
100
AcDbEntity
  8
1
100
AcDbLine
 10
1.097187385308643
 20
-0.1021788662801555
 30
0.0
 11
1.097187385308643
 21
-0.0919426458094677
 31
0.0
  0
LINE
  5
1D1
330
2
100
AcDbEntity
  8
1
100
AcDbLine
 10
0.8392308406582742
 20
-0.1021788662801555
 30
0.0
 11
0.8490753256592142
 21
-0.1021788662801555
 31
0.0
  0
ARC
  5
1D2
330
2
100
AcDbEntity
  8
1
100
AcDbCircle
 10
1.119671786469552
 20
-0.0909583938409924
 30
0.0
 40
0.0009842519685039
100
AcDbArc
 50
180.0000000054194
 51
270.0
  0
LINE
  5
1D3
330
2
100
AcDbEntity
  8
1
100
AcDbLine
 10
1.136081234355515
 20
-0.0919426458094677
 30
0.0
 11
1.119671786469552
 21
-0.0919426458094677
 31
0.0
  0
ARC
  5
1D4
330
2
100
AcDbEntity
  8
1
100
AcDbCircle
 10
1.105640290406881
 20
-0.0909583938409924
 30
0.0
 40
0.0009842519685039
100
AcDbArc
 50
270.0
 51
359.9999999945806
  0
LINE
  5
1D5
330
2
100
AcDbEntity
  8
1
100
AcDbLine
 10
1.105640290406881
 20
-0.0919426458094677
 30
0.0
 11
1.097187385308643
 21
-0.0919426458094677
 31
0.0
  0
ARC
  5
1D6
330
2
100
AcDbEntity
  8
1
100
AcDbCircle
 10
0.8556402885405987
 20
-0.0909583938409924
 30
0.0
 40
0.0009842519685039
100
AcDbArc
 50
270.0
 51
359.9999999945806
  0
LINE
  5
1D7
330
2
100
AcDbEntity
  8
1
100
AcDbLine
 10
0.8392308406509982
 20
-0.0919426458094677
 30
0.0
 11
0.8556402885405987
 21
-0.0919426458094677
 31
0.0
  0
ARC
  5
1D8
330
2
100
AcDbEntity
  8
1
100
AcDbCircle
 10
0.8696717845996317
 20
-0.0909583938409924
 30
0.0
 40
0.0009842519685039
100
AcDbArc
 50
180.0000000054194
 51
270.0
  0
LINE
  5
1D9
330
2
100
AcDbEntity
  8
1
100
AcDbLine
 10
0.8696717845996317
 20
-0.0919426458094677
 30
0.0
 11
0.87812468969787
 21
-0.0919426458094677
 31
0.0
  0
LINE
  5
1DA
330
2
100
AcDbEntity
  8
1
100
AcDbLine
 10
0.9186875344676082
 20
-0.086969160958688
 30
0.0
 11
0.9206560383972828
 21
-0.0834469765068207
 31
0.0
  0
LINE
  5
1DB
330
2
100
AcDbEntity
  8
1
100
AcDbLine
 10
0.9066245423382497
 20
-0.086969160969602
 30
0.0
 11
0.9046560383976611
 21
-0.0834469765177346
 31
0.0
  0
LINE
  5
1DC
330
2
100
AcDbEntity
  8
1
100
AcDbLine
 10
0.9546560384005715
 20
-0.071228866250749
 30
0.0
 11
0.9546560384005715
 21
-0.0834469765177346
 31
0.0
  0
LINE
  5
1DD
330
2
100
AcDbEntity
  8
1
100
AcDbLine
 10
0.9706560384074691
 20
-0.0834469765068207
 30
0.0
 11
0.9706560384074691
 21
-0.071228860590054
 31
0.0
  0
LINE
  5
1DE
330
2
100
AcDbEntity
  8
1
100
AcDbLine
 10
0.9686875344668806
 20
-0.086969160958688
 30
0.0
 11
0.9686875344668806
 21
-0.0909583938409924
 31
0.0
  0
LINE
  5
1DF
330
2
100
AcDbEntity
  8
1
100
AcDbLine
 10
0.9566245423411601
 20
-0.086969160969602
 30
0.0
 11
0.9566245423411601
 21
-0.0909583938409924
 31
0.0
  0
LINE
  5
1E0
330
2
100
AcDbEntity
  8
1
100
AcDbLine
 10
0.9686875344668806
 20
-0.086969160958688
 30
0.0
 11
0.9706560384074691
 21
-0.0834469765068207
 31
0.0
  0
LINE
  5
1E1
330
2
100
AcDbEntity
  8
1
100
AcDbLine
 10
0.9566245423411601
 20
-0.086969160969602
 30
0.0
 11
0.9546560384005715
 21
-0.0834469765177346
 31
0.0
  0
LINE
  5
1E2
330
2
100
AcDbEntity
  8
1
100
AcDbLine
 10
1.004656038407119
 20
-0.071228866250749
 30
0.0
 11
1.004656038407119
 21
-0.0834469765177346
 31
0.0
  0
LINE
  5
1E3
330
2
100
AcDbEntity
  8
1
100
AcDbLine
 10
1.020656038410379
 20
-0.0834469765068207
 30
0.0
 11
1.020656038410379
 21
-0.071228860590054
 31
0.0
  0
LINE
  5
1E4
330
2
100
AcDbEntity
  8
1
100
AcDbLine
 10
1.018687534477066
 20
-0.086969160958688
 30
0.0
 11
1.018687534477066
 21
-0.0909583938409924
 31
0.0
  0
LINE
  5
1E5
330
2
100
AcDbEntity
  8
1
100
AcDbLine
 10
1.006624542347708
 20
-0.086969160969602
 30
0.0
 11
1.006624542347708
 21
-0.0909583938409924
 31
0.0
  0
LINE
  5
1E6
330
2
100
AcDbEntity
  8
1
100
AcDbLine
 10
1.018687534477066
 20
-0.086969160958688
 30
0.0
 11
1.020656038410379
 21
-0.0834469765068207
 31
0.0
  0
LINE
  5
1E7
330
2
100
AcDbEntity
  8
1
100
AcDbLine
 10
1.006624542347708
 20
-0.086969160969602
 30
0.0
 11
1.004656038407119
 21
-0.0834469765177346
 31
0.0
  0
LINE
  5
1E8
330
2
100
AcDbEntity
  8
1
100
AcDbLine
 10
1.054656038417306
 20
-0.071228866250749
 30
0.0
 11
1.054656038417306
 21
-0.0834469765177346
 31
0.0
  0
LINE
  5
1E9
330
2
100
AcDbEntity
  8
1
100
AcDbLine
 10
1.070656038416927
 20
-0.0834469765068207
 30
0.0
 11
1.070656038416927
 21
-0.071228860590054
 31
0.0
  0
LINE
  5
1EA
330
2
100
AcDbEntity
  8
1
100
AcDbLine
 10
1.068687534487253
 20
-0.086969160958688
 30
0.0
 11
1.068687534476339
 21
-0.0909583938409924
 31
0.0
  0
LINE
  5
1EB
330
2
100
AcDbEntity
  8
1
100
AcDbLine
 10
1.056624542357894
 20
-0.086969160969602
 30
0.0
 11
1.056624542357894
 21
-0.0909583938409924
 31
0.0
  0
LINE
  5
1EC
330
2
100
AcDbEntity
  8
1
100
AcDbLine
 10
1.068687534487253
 20
-0.086969160958688
 30
0.0
 11
1.070656038416927
 21
-0.0834469765068207
 31
0.0
  0
LINE
  5
1ED
330
2
100
AcDbEntity
  8
1
100
AcDbLine
 10
1.056624542357894
 20
-0.086969160969602
 30
0.0
 11
1.054656038417306
 21
-0.0834469765177346
 31
0.0
  0
LINE
  5
1EE
330
2
100
AcDbEntity
  8
1
100
AcDbLine
 10
1.104656038420216
 20
-0.071228866250749
 30
0.0
 11
1.104656038420216
 21
-0.0834469765177346
 31
0.0
  0
LINE
  5
1EF
330
2
100
AcDbEntity
  8
1
100
AcDbLine
 10
1.120656038427114
 20
-0.0834469765068207
 30
0.0
 11
1.120656038427114
 21
-0.071228860590054
 31
0.0
  0
LINE
  5
1F0
330
2
100
AcDbEntity
  8
1
100
AcDbLine
 10
1.118687534497439
 20
-0.086969160958688
 30
0.0
 11
1.118687534486525
 21
-0.0909583938409924
 31
0.0
  0
LINE
  5
1F1
330
2
100
AcDbEntity
  8
1
100
AcDbLine
 10
1.106624542368081
 20
-0.086969160969602
 30
0.0
 11
1.106624542368081
 21
-0.0909583938409924
 31
0.0
  0
LINE
  5
1F2
330
2
100
AcDbEntity
  8
1
100
AcDbLine
 10
1.118687534497439
 20
-0.086969160958688
 30
0.0
 11
1.120656038427114
 21
-0.0834469765068207
 31
0.0
  0
LINE
  5
1F3
330
2
100
AcDbEntity
  8
1
100
AcDbLine
 10
1.106624542368081
 20
-0.086969160969602
 30
0.0
 11
1.104656038420216
 21
-0.0834469765177346
 31
0.0
  0
LINE
  5
1F4
330
2
100
AcDbEntity
  8
1
100
AcDbLine
 10
1.156620617799489
 20
-0.0925053806058713
 30
0.0
 11
1.154652113866177
 21
-0.088983196157642
 31
0.0
  0
LINE
  5
1F5
330
2
100
AcDbEntity
  8
1
100
AcDbLine
 10
0.8546560383983887
 20
-0.071228866250749
 30
0.0
 11
0.8546560383983887
 21
-0.0834469765177346
 31
0.0
  0
LINE
  5
1F6
330
2
100
AcDbEntity
  8
1
100
AcDbLine
 10
0.8706560383980104
 20
-0.0834469765068207
 30
0.0
 11
0.8706560383980104
 21
-0.071228860590054
 31
0.0
  0
LINE
  5
1F7
330
2
100
AcDbEntity
  8
1
100
AcDbLine
 10
0.8686875344683357
 20
-0.086969160958688
 30
0.0
 11
0.8686875344683357
 21
-0.0909583938409924
 31
0.0
  0
LINE
  5
1F8
330
2
100
AcDbEntity
  8
1
100
AcDbLine
 10
0.8566245423389773
 20
-0.086969160969602
 30
0.0
 11
0.8566245423389773
 21
-0.0909583938409924
 31
0.0
  0
LINE
  5
1F9
330
2
100
AcDbEntity
  8
1
100
AcDbLine
 10
0.8686875344683357
 20
-0.086969160958688
 30
0.0
 11
0.8706560383980104
 21
-0.0834469765068207
 31
0.0
  0
LINE
  5
1FA
330
2
100
AcDbEntity
  8
1
100
AcDbLine
 10
0.8566245423389773
 20
-0.086969160969602
 30
0.0
 11
0.8546560383983887
 21
-0.0834469765177346
 31
0.0
  0
LINE
  5
1FB
330
2
100
AcDbEntity
  8
1
100
AcDbLine
 10
0.8186914572070236
 20
-0.0925053806058713
 30
0.0
 11
0.8186914571961096
 21
-0.0964946134918137
 31
0.0
  0
ARC
  5
1FC
330
2
100
AcDbEntity
  8
1
100
AcDbCircle
 10
0.8196757091791369
 20
-0.0964946134918137
 30
0.0
 40
0.0009842519685039
100
AcDbArc
 50
180.0000000054194
 51
270.0
  0
LINE
  5
1FD
330
2
100
AcDbEntity
  8
1
100
AcDbLine
 10
0.8285320147988386
 20
-0.097478865460289
 30
0.0
 11
0.8196757091791369
 21
-0.097478865449375
 31
0.0
  0
LINE
  5
1FE
330
2
100
AcDbEntity
  8
1
100
AcDbLine
 10
0.8186914572070236
 20
-0.0925053806058713
 30
0.0
 11
0.8206599611366982
 21
-0.088983196157642
 31
0.0
  0
LINE
  5
1FF
330
2
100
AcDbEntity
  8
1
100
AcDbLine
 10
0.821657999047602
 20
-0.1218674356823612
 30
0.0
 11
0.8285320147988386
 21
-0.1073262521313154
 31
0.0
  0
LINE
  5
200
330
2
100
AcDbEntity
  8
1
100
AcDbLine
 10
0.821657999047602
 20
-0.3265902968778391
 30
0.0
 11
0.8285320147988386
 21
-0.341131480417971
 31
0.0
  0
ENDSEC
  0
SECTION
  2
OBJECTS
  0
DICTIONARY
  5
B
330
0
100
AcDbDictionary
281
     1
  3
ACAD_COLOR
350
37
  3
ACAD_GROUP
350
32
  3
ACAD_LAYOUT
350
11
  3
ACAD_MATERIAL
350
D
  3
ACAD_MLEADERSTYLE
350
3A
  3
ACAD_MLINESTYLE
350
33
  3
ACAD_PLOTSETTINGS
350
34
  3
ACAD_PLOTSTYLENAME
350
A
  3
ACAD_SCALELIST
350
38
  3
ACAD_TABLESTYLE
350
39
  3
ACAD_VISUALSTYLE
350
29
  3
ACDB_RECOMPOSE_DATA
350
205
  3
AcDbVariableDictionary
350
3B
  0
DICTIONARY
  5
2B
330
26
100
AcDbDictionary
280
     1
281
     1
  0
DICTIONARY
  5
19
330
18
100
AcDbDictionary
280
     1
281
     1
  3
ACAD_LAYERFILTERS
360
1A
  3
ACAD_LAYERSTATES
360
1B
  3
ACLYDICTIONARY
360
1C
  0
DICTIONARY
  5
7
330
6
100
AcDbDictionary
280
     1
281
     1
  3
ADSK_XREC_LAYER_RECONCILED
360
8
  0
DICTIONARY
  5
9B
330
9A
100
AcDbDictionary
280
     1
281
     1
  3
ADSK_XREC_LAYER_RECONCILED
360
9C
  0
DICTIONARY
  5
94
330
93
100
AcDbDictionary
280
     1
281
     1
  3
ADSK_XREC_LAYER_RECONCILED
360
95
  0
DICTIONARY
  5
4A
330
49
100
AcDbDictionary
280
     1
281
     1
  3
ADSK_XREC_LAYER_RECONCILED
360
4B
  0
DICTIONARY
  5
3
330
2
100
AcDbDictionary
280
     1
281
     1
  3
ACAD_SORTENTS
360
201
  0
DICTIONARY
  5
37
102
{ACAD_REACTORS
330
B
102
}
330
B
100
AcDbDictionary
281
     1
  0
DICTIONARY
  5
32
102
{ACAD_REACTORS
330
B
102
}
330
B
100
AcDbDictionary
281
     1
  0
DICTIONARY
  5
11
102
{ACAD_REACTORS
330
B
102
}
330
B
100
AcDbDictionary
281
     1
  3
Layout1
350
16
  3
Model
350
10
  0
DICTIONARY
  5
D
102
{ACAD_REACTORS
330
B
102
}
330
B
100
AcDbDictionary
281
     1
  3
ByBlock
350
36
  3
ByLayer
350
35
  3
Global
350
C
  0
DICTIONARY
  5
3A
102
{ACAD_REACTORS
330
B
102
}
330
B
100
AcDbDictionary
281
     1
  0
DICTIONARY
  5
33
102
{ACAD_REACTORS
330
B
102
}
330
B
100
AcDbDictionary
281
     1
  3
Standard
350
4D
  0
DICTIONARY
  5
34
102
{ACAD_REACTORS
330
B
102
}
330
B
100
AcDbDictionary
281
     1
  0
ACDBDICTIONARYWDFLT
  5
A
102
{ACAD_REACTORS
330
B
102
}
330
B
100
AcDbDictionary
281
     1
  3
Normal
350
9
100
AcDbDictionaryWithDefault
340
9
  0
DICTIONARY
  5
38
102
{ACAD_REACTORS
330
B
102
}
330
B
100
AcDbDictionary
281
     1
  3
A0
350
52
  3
A1
350
53
  3
A2
350
54
  3
A3
350
55
  3
A4
350
56
  3
A5
350
57
  3
A6
350
58
  3
A7
350
59
  3
A8
350
5A
  3
A9
350
5B
  3
B0
350
5C
  3
B1
350
5D
  3
B2
350
5E
  3
B3
350
5F
  3
B4
350
60
  3
B5
350
61
  3
B6
350
62
  0
DICTIONARY
  5
39
102
{ACAD_REACTORS
330
B
102
}
330
B
100
AcDbDictionary
281
     1
  3
Standard
350
4E
  0
DICTIONARY
  5
29
102
{ACAD_REACTORS
330
B
102
}
330
B
100
AcDbDictionary
281
     1
  3
2dWireframe
350
28
  3
Realistic
350
50
  3
Wireframe
350
51
  0
XRECORD
  5
205
102
{ACAD_REACTORS
330
B
102
}
330
B
100
AcDbXrecord
280
     1
 90
        1
330
4E
  0
DICTIONARY
  5
3B
102
{ACAD_REACTORS
330
B
102
}
330
B
100
AcDbDictionary
281
     1
  3
CANNOSCALE
350
3C
  3
CMLEADERSTYLE
350
3D
  3
CTABLESTYLE
350
3E
  3
CVIEWDETAILSTYLE
350
3F
  3
CVIEWSECTIONSTYLE
350
40
  3
DIMASSOC
350
41
  3
INDEXCTL
350
42
  3
LAYEREVAL
350
43
  3
LAYERNOTIFY
350
44
  3
LIGHTINGUNITS
350
45
  3
MSLTSCALE
350
46
  3
PROJECTNAME
350
47
  3
SORTENTS
350
48
  0
DICTIONARY
  5
1A
102
{ACAD_REACTORS
330
19
102
}
330
19
100
AcDbDictionary
281
     1
  0
DICTIONARY
  5
1B
102
{ACAD_REACTORS
330
19
102
}
330
19
100
AcDbDictionary
281
     1
  0
DICTIONARY
  5
1C
102
{ACAD_REACTORS
330
19
102
}
330
19
100
AcDbDictionary
281
     1
1001
ACAD
1000
<All
  0
XRECORD
  5
8
102
{ACAD_REACTORS
330
7
102
}
330
7
100
AcDbXrecord
280
     1
290
     1
  0
XRECORD
  5
9C
102
{ACAD_REACTORS
330
9B
102
}
330
9B
100
AcDbXrecord
280
     1
290
     1
  0
XRECORD
  5
95
102
{ACAD_REACTORS
330
94
102
}
330
94
100
AcDbXrecord
280
     1
290
     1
  0
XRECORD
  5
4B
102
{ACAD_REACTORS
330
4A
102
}
330
4A
100
AcDbXrecord
280
     1
290
     1
  0
SORTENTSTABLE
  5
201
102
{ACAD_REACTORS
330
3
102
}
330
3
100
AcDbSortentsTable
330
2
  0
LAYOUT
  5
16
102
{ACAD_XDICTIONARY
360
17
102
}
102
{ACAD_REACTORS
330
11
102
}
330
11
100
AcDbPlotSettings
  1

  2
\\atsnts34\TJ04
  4
Letter
  6

 40
4.233333110809326
 41
4.233341693878172
 42
4.233322143554686
 43
4.23333740234375
 44
215.8999938964844
 45
279.3999938964844
 46
0.0
 47
0.0
 48
0.0
 49
0.0
140
0.0
141
0.0
142
1.0
143
1.0
 70
   688
 72
     0
 73
     1
 74
     5
  7
monochrome.ctb
 75
     0
147
1.0
 76
     0
 77
     2
 78
   300
148
0.0
149
0.0
100
AcDbLayout
  1
Layout1
 70
     1
 71
     1
 10
-0.1666668268639272
 20
-0.166666657905879
 11
10.83333293284018
 21
8.333333101798231
 12
0.0
 22
0.0
 32
0.0
 14
1.06666659370182
 24
0.8166666875674033
 34
0.0
 15
9.599999343316387
 25
7.350000188106627
 35
0.0
146
0.0
 13
0.0
 23
0.0
 33
0.0
 16
1.0
 26
0.0
 36
0.0
 17
0.0
 27
1.0
 37
0.0
 76
     0
330
13
1001
ACAD_PSEXT
1000
\\atsnts34\TJ04
1000
HP LaserJet 5100 PCL 6
1000
2f_CAD Rm
1000
10.8.12.60
1070
     0
  0
LAYOUT
  5
10
102
{ACAD_REACTORS
330
11
102
}
330
11
100
AcDbPlotSettings
  1

  2
\\atsnts34\TJ17
  4
A4
  6

 40
5.323416233062744
 41
5.323403835296629
 42
5.323410034179686
 43
5.32342529296875
 44
209.9733276367186
 45
296.9259948730469
 46
0.8447180624137189
 47
0.0
 48
-29.97489016439562
 49
-41.05868959261795
140
-0.0950026227700463
141
2.22261124726113
142
1.0
143
0.151185646804855
 70
 11956
 72
     1
 73
     0
 74
     4
  7
monochrome.ctb
 75
     0
147
6.614384507616414
 76
     0
 77
     2
 78
   300
148
29.97489016439562
149
41.05868959261795
100
AcDbLayout
  1
Model
 70
     1
 71
     0
 10
0.0
 20
0.0
 11
12.0
 21
9.0
 12
0.0
 22
0.0
 32
0.0
 14
0.0
 24
0.0
 34
0.0
 15
0.0
 25
0.0
 35
0.0
146
0.0
 13
0.0
 23
0.0
 33
0.0
 16
1.0
 26
0.0
 36
0.0
 17
0.0
 27
1.0
 37
0.0
 76
     0
330
2
331
27
1001
ACAD_PSEXT
1000
\\atsnts34\TJ17
1000
Canon iR8500 PCL6
1000
2f_LF office printing rm
1000
10.8.12.200
1070
     0
  0
MATERIAL
  5
36
102
{ACAD_REACTORS
330
D
102
}
330
D
100
AcDbMaterial
  1
ByBlock
 73
     1
 78
     1
172
     1
176
     1
270
     1
274
     1
 94
       63
  0
MATERIAL
  5
35
102
{ACAD_REACTORS
330
D
102
}
330
D
100
AcDbMaterial
  1
ByLayer
 73
     1
 78
     1
172
     1
176
     1
270
     1
274
     1
 94
       63
  0
MATERIAL
  5
C
102
{ACAD_REACTORS
330
D
102
}
330
D
100
AcDbMaterial
  1
Global
 73
     1
 78
     1
172
     1
176
     1
270
     1
274
     1
 94
       63
  0
MLINESTYLE
  5
4D
102
{ACAD_REACTORS
330
33
102
}
330
33
100
AcDbMlineStyle
  2
STANDARD
 70
     0
  3

 62
   256
 51
90.0
 52
90.0
 71
     2
 49
0.5
 62
   256
  6
BYLAYER
 49
-0.5
 62
   256
  6
BYLAYER
  0
ACDBPLACEHOLDER
  5
9
102
{ACAD_REACTORS
330
A
102
}
330
A
  0
SCALE
  5
52
102
{ACAD_REACTORS
330
38
102
}
330
38
100
AcDbScale
 70
     0
300
1:1
140
1.0
141
1.0
290
     1
  0
SCALE
  5
53
102
{ACAD_REACTORS
330
38
102
}
330
38
100
AcDbScale
 70
     0
300
1/128" = 1'-0"
140
0.0078125
141
12.0
290
     0
  0
SCALE
  5
54
102
{ACAD_REACTORS
330
38
102
}
330
38
100
AcDbScale
 70
     0
300
1/64" = 1'-0"
140
0.015625
141
12.0
290
     0
  0
SCALE
  5
55
102
{ACAD_REACTORS
330
38
102
}
330
38
100
AcDbScale
 70
     0
300
1/32" = 1'-0"
140
0.03125
141
12.0
290
     0
  0
SCALE
  5
56
102
{ACAD_REACTORS
330
38
102
}
330
38
100
AcDbScale
 70
     0
300
1/16" = 1'-0"
140
0.0625
141
12.0
290
     0
  0
SCALE
  5
57
102
{ACAD_REACTORS
330
38
102
}
330
38
100
AcDbScale
 70
     0
300
3/32" = 1'-0"
140
0.09375
141
12.0
290
     0
  0
SCALE
  5
58
102
{ACAD_REACTORS
330
38
102
}
330
38
100
AcDbScale
 70
     0
300
1/8" = 1'-0"
140
0.125
141
12.0
290
     0
  0
SCALE
  5
59
102
{ACAD_REACTORS
330
38
102
}
330
38
100
AcDbScale
 70
     0
300
3/16" = 1'-0"
140
0.1875
141
12.0
290
     0
  0
SCALE
  5
5A
102
{ACAD_REACTORS
330
38
102
}
330
38
100
AcDbScale
 70
     0
300
1/4" = 1'-0"
140
0.25
141
12.0
290
     0
  0
SCALE
  5
5B
102
{ACAD_REACTORS
330
38
102
}
330
38
100
AcDbScale
 70
     0
300
3/8" = 1'-0"
140
0.375
141
12.0
290
     0
  0
SCALE
  5
5C
102
{ACAD_REACTORS
330
38
102
}
330
38
100
AcDbScale
 70
     0
300
1/2" = 1'-0"
140
0.5
141
12.0
290
     0
  0
SCALE
  5
5D
102
{ACAD_REACTORS
330
38
102
}
330
38
100
AcDbScale
 70
     0
300
3/4" = 1'-0"
140
0.75
141
12.0
290
     0
  0
SCALE
  5
5E
102
{ACAD_REACTORS
330
38
102
}
330
38
100
AcDbScale
 70
     0
300
1" = 1'-0"
140
1.0
141
12.0
290
     0
  0
SCALE
  5
5F
102
{ACAD_REACTORS
330
38
102
}
330
38
100
AcDbScale
 70
     0
300
1-1/2" = 1'-0"
140
1.5
141
12.0
290
     0
  0
SCALE
  5
60
102
{ACAD_REACTORS
330
38
102
}
330
38
100
AcDbScale
 70
     0
300
3" = 1'-0"
140
3.0
141
12.0
290
     0
  0
SCALE
  5
61
102
{ACAD_REACTORS
330
38
102
}
330
38
100
AcDbScale
 70
     0
300
6" = 1'-0"
140
6.0
141
12.0
290
     0
  0
SCALE
  5
62
102
{ACAD_REACTORS
330
38
102
}
330
38
100
AcDbScale
 70
     0
300
1'-0" = 1'-0"
140
12.0
141
12.0
290
     0
  0
TABLESTYLE
  5
4E
102
{ACAD_XDICTIONARY
360
4F
102
}
102
{ACAD_REACTORS
330
39
102
}
330
39
100
AcDbTableStyle
280
     0
  3
Standard
 70
     0
 71
     0
 40
0.06
 41
0.06
280
     0
281
     0
  7
Standard
140
0.18
170
     2
 62
     0
 63
     7
283
     0
 90
        4
 91
        0
  1

274
    -2
284
     1
 64
     0
275
    -2
285
     1
 65
     0
276
    -2
286
     1
 66
     0
277
    -2
287
     1
 67
     0
278
    -2
288
     1
 68
     0
279
    -2
289
     1
 69
     0
  7
Standard
140
0.25
170
     5
 62
     0
 63
     7
283
     0
 90
        4
 91
        0
  1

274
    -2
284
     1
 64
     0
275
    -2
285
     1
 65
     0
276
    -2
286
     1
 66
     0
277
    -2
287
     1
 67
     0
278
    -2
288
     1
 68
     0
279
    -2
289
     1
 69
     0
  7
Standard
140
0.18
170
     5
 62
     0
 63
     7
283
     0
 90
        4
 91
        0
  1

274
    -2
284
     1
 64
     0
275
    -2
285
     1
 65
     0
276
    -2
286
     1
 66
     0
277
    -2
287
     1
 67
     0
278
    -2
288
     1
 68
     0
279
    -2
289
     1
 69
     0
1001
ACAD
1000
AcRTDxfName
1000
TABLESTYLE
  0
VISUALSTYLE
  5
28
102
{ACAD_REACTORS
330
29
102
}
330
29
100
AcDbVisualStyle
  2
2dWireframe
 70
     4
177
     3
291
     0
 70
    58
 90
        0
176
     1
 90
        2
176
     1
 90
        0
176
     1
 90
        0
176
     1
 40
0.6
176
     1
 40
30.0
176
     1
 62
     7
176
     1
 90
        1
176
     1
 90
        4
176
     1
 62
     7
176
     1
 62
   257
176
     1
 90
        1
176
     1
 90
        1
176
     1
 40
1.0
176
     1
 90
        0
176
     1
 62
   257
176
     1
 40
1.0
176
     1
 90
        1
176
     1
 90
        6
176
     1
 90
        2
176
     1
 62
     7
176
     1
 90
        5
176
     1
 90
        0
176
     1
 90
        0
176
     1
290
     0
176
     1
 90
        1
176
     1
 40
0.0
176
     1
 90
        0
176
     1
290
     1
176
     1
290
     1
176
     1
290
     0
176
     1
290
     0
176
     1
290
     0
176
     1
290
     0
176
     1
290
     0
176
     1
290
     0
176
     1
290
     0
176
     1
 90
       50
176
     1
 40
0.0
176
     1
 40
1.0
176
     1
 90
        0
176
     1
 62
    18
176
     1
 90
       50
176
     1
 90
        3
176
     1
 62
     5
420
      255
176
     1
290
     0
176
     1
 90
       50
176
     1
 90
       50
176
     1
 90
       50
176
     1
290
     0
176
     1
 90
       50
176
     1
 62
   256
176
     0
 40
1.0
176
     0
 90
        2
176
     1
  1
strokes_ogs.tif
176
     1
290
     0
176
     1
 40
1.0
176
     1
 40
1.0
176
     1
1001
ACAD
1000
AcRTDxfName
1000
VISUALSTYLE
1000
AcRTDxfName
1000
VISUALSTYLE
1000
AcRTDxfName
1000
VISUALSTYLE
1000
AcRTDxfName
1000
VISUALSTYLE
1000
AcRTDxfName
1000
VISUALSTYLE
1000
AcRTDxfName
1000
VISUALSTYLE
1000
AcRTDxfName
1000
VISUALSTYLE
1000
AcRTDxfName
1000
VISUALSTYLE
1000
AcRTDxfName
1000
VISUALSTYLE
1000
AcRTDxfName
1000
VISUALSTYLE
  0
VISUALSTYLE
  5
50
102
{ACAD_REACTORS
330
29
102
}
330
29
100
AcDbVisualStyle
  2
Realistic
 70
     8
177
     3
291
     0
 70
    58
 90
        2
176
     1
 90
        2
176
     1
 90
        0
176
     1
 90
        0
176
     1
 40
0.6
176
     1
 40
30.0
176
     1
 62
     7
176
     1
 90
        1
176
     1
 90
        0
176
     1
 62
     7
176
     1
 62
   257
176
     1
 90
        1
176
     1
 90
        1
176
     1
 40
1.0
176
     1
 90
        8
176
     1
 62
     8
176
     1
 40
1.0
176
     1
 90
        1
176
     1
 90
        6
176
     1
 90
        2
176
     1
 62
     7
176
     1
 90
        5
176
     1
 90
        0
176
     1
 90
        0
176
     1
290
     0
176
     1
 90
       13
176
     1
 40
0.0
176
     1
 90
        0
176
     1
290
     0
176
     1
290
     1
176
     1
290
     1
176
     1
290
     0
176
     1
290
     0
176
     1
290
     0
176
     1
290
     0
176
     1
290
     0
176
     1
290
     0
176
     1
 90
       50
176
     1
 40
0.0
176
     1
 40
1.0
176
     1
 90
        0
176
     1
 62
    18
176
     1
 90
       50
176
     1
 90
        3
176
     1
 62
     5
420
      255
176
     1
290
     0
176
     1
 90
       50
176
     1
 90
       50
176
     1
 90
       50
176
     1
290
     0
176
     1
 90
       50
176
     1
 62
   256
176
     0
 40
1.0
176
     0
 90
        2
176
     1
  1
strokes_ogs.tif
176
     1
290
     0
176
     1
 40
1.0
176
     1
 40
1.0
176
     1
1001
ACAD
1000
AcRTDxfName
1000
VISUALSTYLE
1000
AcRTDxfName
1000
VISUALSTYLE
1000
AcRTDxfName
1000
VISUALSTYLE
1000
AcRTDxfName
1000
VISUALSTYLE
1000
AcRTDxfName
1000
VISUALSTYLE
1000
AcRTDxfName
1000
VISUALSTYLE
1000
AcRTDxfName
1000
VISUALSTYLE
1000
AcRTDxfName
1000
VISUALSTYLE
1000
AcRTDxfName
1000
VISUALSTYLE
1000
AcRTDxfName
1000
VISUALSTYLE
  0
VISUALSTYLE
  5
51
102
{ACAD_REACTORS
330
29
102
}
330
29
100
AcDbVisualStyle
  2
Wireframe
 70
     5
177
     3
291
     0
 70
    58
 90
        0
176
     1
 90
        2
176
     1
 90
        0
176
     1
 90
        0
176
     1
 40
0.6
176
     1
 40
30.0
176
     1
 62
     7
420
 16777215
176
     1
 90
        1
176
     1
 90
        4
176
     1
 62
     7
176
     1
 62
   257
176
     1
 90
        1
176
     1
 90
        1
176
     1
 40
1.0
176
     1
 90
        0
176
     1
 62
   257
176
     1
 40
1.0
176
     1
 90
        1
176
     1
 90
        6
176
     1
 90
        2
176
     1
 62
     7
176
     1
 90
        3
176
     1
 90
        0
176
     1
 90
        0
176
     1
290
     0
176
     1
 90
        1
176
     1
 40
0.0
176
     1
 90
        0
176
     1
290
     0
176
     1
290
     1
176
     1
290
     1
176
     1
290
     0
176
     1
290
     0
176
     1
290
     0
176
     1
290
     0
176
     1
290
     0
176
     1
290
     0
176
     1
 90
       50
176
     1
 40
0.0
176
     1
 40
1.0
176
     1
 90
        0
176
     1
 62
    18
176
     1
 90
       50
176
     1
 90
        3
176
     1
 62
     5
420
      255
176
     1
290
     0
176
     1
 90
       50
176
     1
 90
       50
176
     1
 90
       50
176
     1
290
     0
176
     1
 90
       50
176
     1
 62
   256
176
     0
 40
1.0
176
     0
 90
        2
176
     1
  1
strokes_ogs.tif
176
     1
290
     0
176
     1
 40
1.0
176
     1
 40
1.0
176
     1
  0
DICTIONARYVAR
  5
3C
102
{ACAD_REACTORS
330
3B
102
}
330
3B
100
DictionaryVariables
280
     0
  1
1:1
  0
DICTIONARYVAR
  5
3D
102
{ACAD_REACTORS
330
3B
102
}
330
3B
100
DictionaryVariables
280
     0
  1
STANDARD
  0
DICTIONARYVAR
  5
3E
102
{ACAD_REACTORS
330
3B
102
}
330
3B
100
DictionaryVariables
280
     0
  1
STANDARD
  0
DICTIONARYVAR
  5
3F
102
{ACAD_REACTORS
330
3B
102
}
330
3B
100
DictionaryVariables
280
     0
  1

  0
DICTIONARYVAR
  5
40
102
{ACAD_REACTORS
330
3B
102
}
330
3B
100
DictionaryVariables
280
     0
  1

  0
DICTIONARYVAR
  5
41
102
{ACAD_REACTORS
330
3B
102
}
330
3B
100
DictionaryVariables
280
     0
  1
0
  0
DICTIONARYVAR
  5
42
102
{ACAD_REACTORS
330
3B
102
}
330
3B
100
DictionaryVariables
280
     0
  1
0
  0
DICTIONARYVAR
  5
43
102
{ACAD_REACTORS
330
3B
102
}
330
3B
100
DictionaryVariables
280
     0
  1
1
  0
DICTIONARYVAR
  5
44
102
{ACAD_REACTORS
330
3B
102
}
330
3B
100
DictionaryVariables
280
     0
  1
15
  0
DICTIONARYVAR
  5
45
102
{ACAD_REACTORS
330
3B
102
}
330
3B
100
DictionaryVariables
280
     0
  1
0
  0
DICTIONARYVAR
  5
46
102
{ACAD_REACTORS
330
3B
102
}
330
3B
100
DictionaryVariables
280
     0
  1
0
  0
DICTIONARYVAR
  5
47
102
{ACAD_REACTORS
330
3B
102
}
330
3B
100
DictionaryVariables
280
     0
  1

  0
DICTIONARYVAR
  5
48
102
{ACAD_REACTORS
330
3B
102
}
330
3B
100
DictionaryVariables
280
     0
  1
127
  0
DICTIONARY
  5
17
330
16
100
AcDbDictionary
280
     1
281
     1
  0
DICTIONARY
  5
4F
330
4E
100
AcDbDictionary
280
     1
281
     1
  3
ACAD_ROUNDTRIP_2008_TABLESTYLE_CELLSTYLEMAP
360
204
  0
CELLSTYLEMAP
  5
204
102
{ACAD_REACTORS
330
4F
102
}
330
4F
100
AcDbCellStyleMap
 90
        3
300
CELLSTYLE
  1
TABLEFORMAT_BEGIN
 90
        5
170
     1
 91
        0
 92
    32768
 62
   257
 93
        1
300
CONTENTFORMAT
  1
CONTENTFORMAT_BEGIN
 90
        0
 91
        0
 92
        4
 93
        0
300

 40
0.0
140
1.0
 94
        5
 62
     0
340
1F
144
0.25
309
CONTENTFORMAT_END
171
     1
301
MARGIN
  1
CELLMARGIN_BEGIN
 40
0.06
 40
0.06
 40
0.06
 40
0.06
 40
0.18
 40
0.18
309
CELLMARGIN_END
 94
        6
 95
        1
302
GRIDFORMAT
  1
GRIDFORMAT_BEGIN
 90
        0
 91
        1
 62
     0
 92
       -2
340
0
 93
        0
 40
0.045
309
GRIDFORMAT_END
 95
        2
302
GRIDFORMAT
  1
GRIDFORMAT_BEGIN
 90
        0
 91
        1
 62
     0
 92
       -2
340
0
 93
        0
 40
0.045
309
GRIDFORMAT_END
 95
        4
302
GRIDFORMAT
  1
GRIDFORMAT_BEGIN
 90
        0
 91
        1
 62
     0
 92
       -2
340
0
 93
        0
 40
0.045
309
GRIDFORMAT_END
 95
        8
302
GRIDFORMAT
  1
GRIDFORMAT_BEGIN
 90
        0
 91
        1
 62
     0
 92
       -2
340
0
 93
        0
 40
0.045
309
GRIDFORMAT_END
 95
       16
302
GRIDFORMAT
  1
GRIDFORMAT_BEGIN
 90
        0
 91
        1
 62
     0
 92
       -2
340
0
 93
        0
 40
0.045
309
GRIDFORMAT_END
 95
       32
302
GRIDFORMAT
  1
GRIDFORMAT_BEGIN
 90
        0
 91
        1
 62
     0
 92
       -2
340
0
 93
        0
 40
0.045
309
GRIDFORMAT_END
309
TABLEFORMAT_END
  1
CELLSTYLE_BEGIN
 90
        1
 91
        1
300
_TITLE
309
CELLSTYLE_END
300
CELLSTYLE
  1
TABLEFORMAT_BEGIN
 90
        5
170
     1
 91
        0
 92
        0
 62
   257
 93
        1
300
CONTENTFORMAT
  1
CONTENTFORMAT_BEGIN
 90
        0
 91
        0
 92
        4
 93
        0
300

 40
0.0
140
1.0
 94
        5
 62
     0
340
1F
144
0.18
309
CONTENTFORMAT_END
171
     1
301
MARGIN
  1
CELLMARGIN_BEGIN
 40
0.06
 40
0.06
 40
0.06
 40
0.06
 40
0.18
 40
0.18
309
CELLMARGIN_END
 94
        6
 95
        1
302
GRIDFORMAT
  1
GRIDFORMAT_BEGIN
 90
        0
 91
        1
 62
     0
 92
       -2
340
0
 93
        0
 40
0.045
309
GRIDFORMAT_END
 95
        2
302
GRIDFORMAT
  1
GRIDFORMAT_BEGIN
 90
        0
 91
        1
 62
     0
 92
       -2
340
0
 93
        0
 40
0.045
309
GRIDFORMAT_END
 95
        4
302
GRIDFORMAT
  1
GRIDFORMAT_BEGIN
 90
        0
 91
        1
 62
     0
 92
       -2
340
0
 93
        0
 40
0.045
309
GRIDFORMAT_END
 95
        8
302
GRIDFORMAT
  1
GRIDFORMAT_BEGIN
 90
        0
 91
        1
 62
     0
 92
       -2
340
0
 93
        0
 40
0.045
309
GRIDFORMAT_END
 95
       16
302
GRIDFORMAT
  1
GRIDFORMAT_BEGIN
 90
        0
 91
        1
 62
     0
 92
       -2
340
0
 93
        0
 40
0.045
309
GRIDFORMAT_END
 95
       32
302
GRIDFORMAT
  1
GRIDFORMAT_BEGIN
 90
        0
 91
        1
 62
     0
 92
       -2
340
0
 93
        0
 40
0.045
309
GRIDFORMAT_END
309
TABLEFORMAT_END
  1
CELLSTYLE_BEGIN
 90
        2
 91
        1
300
_HEADER
309
CELLSTYLE_END
300
CELLSTYLE
  1
TABLEFORMAT_BEGIN
 90
        5
170
     1
 91
        0
 92
        0
 62
   257
 93
        1
300
CONTENTFORMAT
  1
CONTENTFORMAT_BEGIN
 90
        0
 91
        0
 92
        4
 93
        0
300

 40
0.0
140
1.0
 94
        2
 62
     0
340
1F
144
0.18
309
CONTENTFORMAT_END
171
     1
301
MARGIN
  1
CELLMARGIN_BEGIN
 40
0.06
 40
0.06
 40
0.06
 40
0.06
 40
0.18
 40
0.18
309
CELLMARGIN_END
 94
        6
 95
        1
302
GRIDFORMAT
  1
GRIDFORMAT_BEGIN
 90
        0
 91
        1
 62
     0
 92
       -2
340
0
 93
        0
 40
0.045
309
GRIDFORMAT_END
 95
        2
302
GRIDFORMAT
  1
GRIDFORMAT_BEGIN
 90
        0
 91
        1
 62
     0
 92
       -2
340
0
 93
        0
 40
0.045
309
GRIDFORMAT_END
 95
        4
302
GRIDFORMAT
  1
GRIDFORMAT_BEGIN
 90
        0
 91
        1
 62
     0
 92
       -2
340
0
 93
        0
 40
0.045
309
GRIDFORMAT_END
 95
        8
302
GRIDFORMAT
  1
GRIDFORMAT_BEGIN
 90
        0
 91
        1
 62
     0
 92
       -2
340
0
 93
        0
 40
0.045
309
GRIDFORMAT_END
 95
       16
302
GRIDFORMAT
  1
GRIDFORMAT_BEGIN
 90
        0
 91
        1
 62
     0
 92
       -2
340
0
 93
        0
 40
0.045
309
GRIDFORMAT_END
 95
       32
302
GRIDFORMAT
  1
GRIDFORMAT_BEGIN
 90
        0
 91
        1
 62
     0
 92
       -2
340
0
 93
        0
 40
0.045
309
GRIDFORMAT_END
309
TABLEFORMAT_END
  1
CELLSTYLE_BEGIN
 90
        3
 91
        2
300
_DATA
309
CELLSTYLE_END
  0
ENDSEC
  0
SECTION
  2
ACDSDATA
 70
     2
 71
     8
  0
ACDSSCHEMA
 90
        0
  1
AcDb_Thumbnail_Schema
  2
AcDbDs::ID
280
    10
 91
        8
  2
Thumbnail_Data
280
    15
 91
        0
101
ACDSRECORD
 95
        0
 90
        1
  2
AcDbDs::TreatedAsObjectData
280
     1
291
     1
101
ACDSRECORD
 95
        0
 90
        2
  2
AcDbDs::Legacy
280
     1
291
     1
101
ACDSRECORD
  1
AcDbDs::ID
 90
        3
  2
AcDs:Indexable
280
     1
291
     1
101
ACDSRECORD
  1
AcDbDs::ID
 90
        4
  2
AcDbDs::HandleAttribute
280
     7
282
     1
  0
ACDSSCHEMA
 90
        1
  1
AcDbDs::TreatedAsObjectDataSchema
  2
AcDbDs::TreatedAsObjectData
280
     1
 91
        0
  0
ACDSSCHEMA
 90
        2
  1
AcDbDs::LegacySchema
  2
AcDbDs::Legacy
280
     1
 91
        0
  0
ACDSSCHEMA
 90
        3
  1
AcDbDs::IndexedPropertySchema
  2
AcDs:Indexable
280
     1
 91
        0
  0
ACDSSCHEMA
 90
        4
  1
AcDbDs::HandleAttributeSchema
  2
AcDbDs::HandleAttribute
280
     7
 91
        1
284
     1
  0
ACDSRECORD
 90
        0
  2
AcDbDs::ID
280
    10
320
16
  2
Thumbnail_Data
280
    15
 94
     1472
310
89504E470D0A1A0A0000000D49484452000000B40000008B0803000000FF3F437800000300504C5445000000000000FFFFFF0000000000000000000000000000000000000000000000000000330000660000990000CC0000FF0033000033330033660033990033CC0033FF0066000066330066660066990066CC0066FF0099
310
000099330099660099990099CC0099FF00CC0000CC3300CC6600CC9900CCCC00CCFF00FF0000FF3300FF6600FF9900FFCC00FFFF3300003300333300663300993300CC3300FF3333003333333333663333993333CC3333FF3366003366333366663366993366CC3366FF3399003399333399663399993399CC3399FF33CC00
310
33CC3333CC6633CC9933CCCC33CCFF33FF0033FF3333FF6633FF9933FFCC33FFFF6600006600336600666600996600CC6600FF6633006633336633666633996633CC6633FF6666006666336666666666996666CC6666FF6699006699336699666699996699CC6699FF66CC0066CC3366CC6666CC9966CCCC66CCFF66FF0066
310
FF3366FF6666FF9966FFCC66FFFF9900009900339900669900999900CC9900FF9933009933339933669933999933CC9933FF9966009966339966669966999966CC9966FF9999009999339999669999999999CC9999FF99CC0099CC3399CC6699CC9999CCCC99CCFF99FF0099FF3399FF6699FF9999FFCC99FFFFCC0000CC00
310
33CC0066CC0099CC00CCCC00FFCC3300CC3333CC3366CC3399CC33CCCC33FFCC6600CC6633CC6666CC6699CC66CCCC66FFCC9900CC9933CC9966CC9999CC99CCCC99FFCCCC00CCCC33CCCC66CCCC99CCCCCCCCCCFFCCFF00CCFF33CCFF66CCFF99CCFFCCCCFFFFFF0000FF0033FF0066FF0099FF00CCFF00FFFF3300FF3333
310
FF3366FF3399FF33CCFF33FFFF6600FF6633FF6666FF6699FF66CCFF66FFFF9900FF9933FF9966FF9999FF99CCFF99FFFFCC00FFCC33FFCC66FFCC99FFCCCCFFCCFFFFFF00FFFF33FFFF66FFFF99FFFFCCFFFFFF0000000D0D0D1A1A1A2828283535354343435050505D5D5D6B6B6B787878868686939393A1A1A1AEAEAEBB
310
BBBBC9C9C9D6D6D6E4E4E4F1F1F1FFFFFF000000000000000000000000000000000000000000000000000000000000C11FEF660000027B4944415478DAEDDD4B6283201006E01E87CDDC7FC7495C7181AC665F1EA262481323C84CFD69D34612CD97E904076DD31F56D71E8F1FA7AD2946E7B0AFDDBBF6F686FE2B6C903E3F
310
025A539881061A68A06F88D6B647041AE8C36841B5F301B4A4C1A231BA4718FBA3C9113BA274A55CFAAC7B089A285CA8BCF279F719347F8B8E5BA85FF9B4FB289A4FA307A44703742D0FE8F3EE21E87CD7F2077EAC7B085A5F4E6B4C0F952F4495393D60E7D2263D789F077CA07B047A40C1741A3DA234051A68A025A16F35
310
B1051A68A0A5A0AD6F6AD15A0E8BC536F9B6AE43F942F901D292AFA78D6136816A4CFCE617AE46C787A56DA4137A69CBE4264E52C854DAE587C516F4769DD9CBAB9A9727D108CDA7D15C41C727B3A2F3A29184E630019CA7D639CEBCC63A8A5D4A6449684AAF3A5EF399D7B4F6F7B171DA6D44A7478E7331F79586CEF67D7A
310
ECB624161DD513C78F29B185A237EBD0363DE69C168F5E86BCF9A6ED912F3591DEA2C383593B77C52165C0B1BC9791F6A588CFE889E25058A2C37EC6DAC4B752D0C5389D2A11FEF3B89F9C71BAA899CE4E275AA3E965C1B4A9F364A1AB9B7F322B40CF2FBEA29ED615E9DE68D7064D95D61CED80665289AEB01968A015A35D
310
65F870D2D1BE48B6FC14ED6E686E88CE2D4F6164EFC66D6AD9AB0D7DB0CE1F5A30F1DEEC836D493AFACB19D548749F0634D040030DF4ADD12AF7887CA0F7B668A708ED80061A68A08106BA1B1AB507D040030D34D040030D34D0AF36CFFC743E8E89C4473AFC4583B6F388F134B3BF10CD5FC2673774934CBCE83473E3E9D6
310
6C5EF03ECC1DCED8BAD6BF3A71C5F169F7CFFE4A4EE33B5EC96E4003FD168D37AE041A68A081168ED6F89EEAD88D5F83D6F71F19F8F10B589A45A5A8C78D6D0000000049454E44AE426082
  0
ENDSEC
  0
EOF
