  0
SECTION
  2
HEADER
  9
$ACADVER
  1
AC1032
  9
$ACADMAINTVER
 90
      197
  9
$DWGCODEPAGE
  3
ANSI_936
  9
$REQUIREDVERSIONS
160
                 0
  9
$INSBASE
 10
0.0
 20
0.0
 30
0.0
  9
$EXTMIN
 10
687.9511555405693
 20
-176.0926991762872
 30
0.0
  9
$EXTMAX
 10
693.7634860582319
 20
-171.7316149972949
 30
0.0000000000000568
  9
$LIMMIN
 10
0.0
 20
0.0
  9
$LIMMAX
 10
12.0
 20
9.0
  9
$ORTHOMODE
 70
     0
  9
$REGENMODE
 70
     1
  9
$FILLMODE
 70
     1
  9
$QTEXTMODE
 70
     0
  9
$MIRRTEXT
 70
     0
  9
$LTSCALE
 40
1.0
  9
$ATTMODE
 70
     1
  9
$TEXTSIZE
 40
0.45
  9
$TRACEWID
 40
0.05
  9
$TEXTSTYLE
  7
Standard
  9
$CLAYER
  8
Defpoints
  9
$CELTYPE
  6
ByLayer
  9
$CECOLOR
 62
   256
  9
$CELTSCALE
 40
1.0
  9
$DISPSILH
 70
     0
  9
$DIMSCALE
 40
0.05
  9
$DIMASZ
 40
0.08
  9
$DIMEXO
 40
0.0266
  9
$DIMDLI
 40
0.0266
  9
$DIMRND
 40
0.0
  9
$DIMDLE
 40
0.0
  9
$DIMEXE
 40
0.0266
  9
$DIMTP
 40
0.0
  9
$DIMTM
 40
1.25
  9
$DIMTXT
 40
0.08
  9
$DIMCEN
 40
0.0
  9
$DIMTSZ
 40
0.0
  9
$DIMTOL
 70
     0
  9
$DIMLIM
 70
     0
  9
$DIMTIH
 70
     0
  9
$DIMTOH
 70
     0
  9
$DIMSE1
 70
     0
  9
$DIMSE2
 70
     0
  9
$DIMTAD
 70
     0
  9
$DIMZIN
 70
     1
  9
$DIMBLK
  1

  9
$DIMASO
 70
     0
  9
$DIMSHO
 70
     1
  9
$DIMPOST
  1

  9
$DIMAPOST
  1

  9
$DIMALT
 70
     0
  9
$DIMALTD
 70
     2
  9
$DIMALTF
 40
25.4
  9
$DIMLFAC
 40
1.0
  9
$DIMTOFL
 70
     1
  9
$DIMTVP
 40
0.0
  9
$DIMTIX
 70
     0
  9
$DIMSOXD
 70
     0
  9
$DIMSAH
 70
     0
  9
$DIMBLK1
  1

  9
$DIMBLK2
  1

  9
$DIMSTYLE
  2
Standard
  9
$DIMCLRD
 70
   256
  9
$DIMCLRE
 70
   256
  9
$DIMCLRT
 70
   256
  9
$DIMTFAC
 40
1.0
  9
$DIMGAP
 40
0.0266
  9
$DIMJUST
 70
     0
  9
$DIMSD1
 70
     0
  9
$DIMSD2
 70
     0
  9
$DIMTOLJ
 70
     1
  9
$DIMTZIN
 70
     0
  9
$DIMALTZ
 70
     0
  9
$DIMALTTZ
 70
     0
  9
$DIMUPT
 70
     0
  9
$DIMDEC
 70
     4
  9
$DIMTDEC
 70
     4
  9
$DIMALTU
 70
     2
  9
$DIMALTTD
 70
     2
  9
$DIMTXSTY
  7
Standard
  9
$DIMAUNIT
 70
     0
  9
$DIMADEC
 70
     0
  9
$DIMALTRND
 40
0.0
  9
$DIMAZIN
 70
     1
  9
$DIMDSEP
 70
    46
  9
$DIMATFIT
 70
     0
  9
$DIMFRAC
 70
     0
  9
$DIMLDRBLK
  1

  9
$DIMLUNIT
 70
     2
  9
$DIMLWD
 70
    -1
  9
$DIMLWE
 70
    -1
  9
$DIMTMOVE
 70
     0
  9
$DIMFXL
 40
0.0072
  9
$DIMFXLON
 70
     0
  9
$DIMJOGANG
 40
0.7853981633974483
  9
$DIMTFILL
 70
     0
  9
$DIMTFILLCLR
 70
     0
  9
$DIMARCSYM
 70
     0
  9
$DIMLTYPE
  6
ByLayer
  9
$DIMLTEX1
  6
ByLayer
  9
$DIMLTEX2
  6
ByLayer
  9
$DIMTXTDIRECTION
 70
     0
  9
$LUNITS
 70
     2
  9
$LUPREC
 70
     8
  9
$SKETCHINC
 40
0.1
  9
$FILLETRAD
 40
0.0
  9
$AUNITS
 70
     0
  9
$AUPREC
 70
     0
  9
$MENU
  1
.
  9
$ELEVATION
 40
0.0
  9
$PELEVATION
 40
0.0
  9
$THICKNESS
 40
0.0
  9
$LIMCHECK
 70
     0
  9
$CHAMFERA
 40
0.0
  9
$CHAMFERB
 40
0.0
  9
$CHAMFERC
 40
1.0
  9
$CHAMFERD
 40
0.0
  9
$SKPOLY
 70
     0
  9
$TDCREATE
 40
2453883.125682871
  9
$TDUCREATE
 40
2453882.792357350
  9
$TDUPDATE
 40
2455601.494444445
  9
$TDUUPDATE
 40
2455601.161122049
  9
$TDINDWG
 40
10.0088328588
  9
$TDUSRTIMER
 40
10.0088328588
  9
$USRTIMER
 70
     1
  9
$ANGBASE
 50
0.0
  9
$ANGDIR
 70
     0
  9
$PDMODE
 70
     0
  9
$PDSIZE
 40
0.0
  9
$PLINEWID
 40
0.0
  9
$SPLFRAME
 70
     0
  9
$SPLINETYPE
 70
     6
  9
$SPLINESEGS
 70
     8
  9
$HANDSEED
  5
13F
  9
$SURFTAB1
 70
     6
  9
$SURFTAB2
 70
     6
  9
$SURFTYPE
 70
     6
  9
$SURFU
 70
     6
  9
$SURFV
 70
     6
  9
$UCSBASE
  2

  9
$UCSNAME
  2

  9
$UCSORG
 10
0.0
 20
0.0
 30
0.0
  9
$UCSXDIR
 10
1.0
 20
0.0
 30
0.0
  9
$UCSYDIR
 10
0.0
 20
1.0
 30
0.0
  9
$UCSORTHOREF
  2

  9
$UCSORTHOVIEW
 70
     0
  9
$UCSORGTOP
 10
0.0
 20
0.0
 30
0.0
  9
$UCSORGBOTTOM
 10
0.0
 20
0.0
 30
0.0
  9
$UCSORGLEFT
 10
0.0
 20
0.0
 30
0.0
  9
$UCSORGRIGHT
 10
0.0
 20
0.0
 30
0.0
  9
$UCSORGFRONT
 10
0.0
 20
0.0
 30
0.0
  9
$UCSORGBACK
 10
0.0
 20
0.0
 30
0.0
  9
$PUCSBASE
  2

  9
$PUCSNAME
  2

  9
$PUCSORG
 10
0.0
 20
0.0
 30
0.0
  9
$PUCSXDIR
 10
1.0
 20
0.0
 30
0.0
  9
$PUCSYDIR
 10
0.0
 20
1.0
 30
0.0
  9
$PUCSORTHOREF
  2

  9
$PUCSORTHOVIEW
 70
     0
  9
$PUCSORGTOP
 10
0.0
 20
0.0
 30
0.0
  9
$PUCSORGBOTTOM
 10
0.0
 20
0.0
 30
0.0
  9
$PUCSORGLEFT
 10
0.0
 20
0.0
 30
0.0
  9
$PUCSORGRIGHT
 10
0.0
 20
0.0
 30
0.0
  9
$PUCSORGFRONT
 10
0.0
 20
0.0
 30
0.0
  9
$PUCSORGBACK
 10
0.0
 20
0.0
 30
0.0
  9
$USERI1
 70
     0
  9
$USERI2
 70
     0
  9
$USERI3
 70
     0
  9
$USERI4
 70
     0
  9
$USERI5
 70
     0
  9
$USERR1
 40
0.0
  9
$USERR2
 40
0.0
  9
$USERR3
 40
0.0
  9
$USERR4
 40
0.0
  9
$USERR5
 40
0.0
  9
$WORLDVIEW
 70
     1
  9
$SHADEDGE
 70
     3
  9
$SHADEDIF
 70
    70
  9
$TILEMODE
 70
     1
  9
$MAXACTVP
 70
    64
  9
$PINSBASE
 10
0.0
 20
0.0
 30
0.0
  9
$PLIMCHECK
 70
     0
  9
$PEXTMIN
 10
1.000000000000000E+20
 20
1.000000000000000E+20
 30
1.000000000000000E+20
  9
$PEXTMAX
 10
-1.000000000000000E+20
 20
-1.000000000000000E+20
 30
-1.000000000000000E+20
  9
$PLIMMIN
 10
0.0
 20
0.0
  9
$PLIMMAX
 10
12.0
 20
9.0
  9
$UNITMODE
 70
     0
  9
$VISRETAIN
 70
     1
  9
$PLINEGEN
 70
     0
  9
$PSLTSCALE
 70
     1
  9
$TREEDEPTH
 70
  3020
  9
$CMLSTYLE
  2
Standard
  9
$CMLJUST
 70
     0
  9
$CMLSCALE
 40
1.0
  9
$PROXYGRAPHICS
 70
     1
  9
$MEASUREMENT
 70
     0
  9
$CELWEIGHT
370
    -1
  9
$ENDCAPS
280
     0
  9
$JOINSTYLE
280
     0
  9
$LWDISPLAY
290
     0
  9
$INSUNITS
 70
     0
  9
$HYPERLINKBASE
  1

  9
$STYLESHEET
  1

  9
$XEDIT
290
     1
  9
$CEPSNTYPE
380
     0
  9
$PSTYLEMODE
290
     1
  9
$FINGERPRINTGUID
  2
{2CA6EC4F-400E-E849-8FA3-2448151E5389}
  9
$VERSIONGUID
  2
{12A48438-84A3-4FD2-A276-BDF2C6C8AAFA}
  9
$EXTNAMES
290
     1
  9
$PSVPSCALE
 40
0.0
  9
$OLESTARTUP
290
     0
  9
$SORTENTS
280
   127
  9
$INDEXCTL
280
     0
  9
$HIDETEXT
280
     1
  9
$XCLIPFRAME
280
     2
  9
$HALOGAP
280
     0
  9
$OBSCOLOR
 70
   257
  9
$OBSLTYPE
280
     0
  9
$INTERSECTIONDISPLAY
280
     0
  9
$INTERSECTIONCOLOR
 70
   257
  9
$DIMASSOC
280
     0
  9
$PROJECTNAME
  1

  9
$CAMERADISPLAY
290
     0
  9
$LENSLENGTH
 40
50.0
  9
$CAMERAHEIGHT
 40
0.0
  9
$STEPSPERSEC
 40
2.0
  9
$STEPSIZE
 40
6.0
  9
$3DDWFPREC
 40
2.0
  9
$PSOLWIDTH
 40
0.25
  9
$PSOLHEIGHT
 40
4.0
  9
$LOFTANG1
 40
1.570796326794896
  9
$LOFTANG2
 40
1.570796326794896
  9
$LOFTMAG1
 40
0.0
  9
$LOFTMAG2
 40
0.0
  9
$LOFTPARAM
 70
     7
  9
$LOFTNORMALS
280
     1
  9
$LATITUDE
 40
37.795
  9
$LONGITUDE
 40
-122.394
  9
$NORTHDIRECTION
 40
0.0
  9
$TIMEZONE
 70
 -8000
  9
$LIGHTGLYPHDISPLAY
280
     1
  9
$TILEMODELIGHTSYNCH
280
     1
  9
$CMATERIAL
347
31
  9
$SOLIDHIST
280
     0
  9
$SHOWHIST
280
     1
  9
$DWFFRAME
280
     2
  9
$DGNFRAME
280
     0
  9
$REALWORLDSCALE
290
     1
  9
$INTERFERECOLOR
 62
     1
  9
$INTERFEREOBJVS
345
48
  9
$INTERFEREVPVS
346
49
  9
$CSHADOW
280
     0
  9
$SHADOWPLANELOCATION
 40
0.0
  0
ENDSEC
  0
SECTION
  2
CLASSES
  0
CLASS
  1
ACDBDICTIONARYWDFLT
  2
AcDbDictionaryWithDefault
  3
ObjectDBX Classes
 90
        0
 91
        1
280
     0
281
     0
  0
CLASS
  1
DICTIONARYVAR
  2
AcDbDictionaryVar
  3
ObjectDBX Classes
 90
        0
 91
       13
280
     0
281
     0
  0
CLASS
  1
TABLESTYLE
  2
AcDbTableStyle
  3
ObjectDBX Classes
 90
     4095
 91
        1
280
     0
281
     0
  0
CLASS
  1
SORTENTSTABLE
  2
AcDbSortentsTable
  3
ObjectDBX Classes
 90
        0
 91
        2
280
     0
281
     0
  0
CLASS
  1
VISUALSTYLE
  2
AcDbVisualStyle
  3
ObjectDBX Classes
 90
     4095
 91
        3
280
     0
281
     0
  0
CLASS
  1
MATERIAL
  2
AcDbMaterial
  3
ObjectDBX Classes
 90
     1153
 91
        3
280
     0
281
     0
  0
CLASS
  1
EXACXREFPANELOBJECT
  2
ExAcXREFPanelObject
  3
EXAC_ESW
 90
     1025
 91
        0
280
     1
281
     0
  0
CLASS
  1
NPOCOLLECTION
  2
AcDbImpNonPersistentObjectsCollection
  3
ObjectDBX Classes
 90
     1153
 91
        0
280
     0
281
     0
  0
CLASS
  1
DIMASSOC
  2
AcDbDimAssoc
  3
"AcDbDimAssoc|Product Desc:     AcDim ARX App For Dimension|Company:          Autodesk, Inc.|WEB Address:      www.autodesk.com"
 90
        0
 91
        0
280
     0
281
     0
  0
CLASS
  1
SCALE
  2
AcDbScale
  3
ObjectDBX Classes
 90
     1153
 91
       17
280
     0
281
     0
  0
CLASS
  1
MLEADERSTYLE
  2
AcDbMLeaderStyle
  3
ACDB_MLEADERSTYLE_CLASS
 90
     4095
 91
        0
280
     0
281
     0
  0
CLASS
  1
ACDBSECTIONVIEWSTYLE
  2
AcDbSectionViewStyle
  3
ObjectDBX Classes
 90
     1025
 91
        0
280
     0
281
     0
  0
CLASS
  1
ACDBDETAILVIEWSTYLE
  2
AcDbDetailViewStyle
  3
ObjectDBX Classes
 90
     1025
 91
        0
280
     0
281
     0
  0
CLASS
  1
SOLID_BACKGROUND
  2
AcDbSolidBackground
  3
SCENEOE
 90
     4095
 91
        0
280
     0
281
     0
  0
CLASS
  1
CELLSTYLEMAP
  2
AcDbCellStyleMap
  3
ObjectDBX Classes
 90
     1152
 91
        1
280
     0
281
     0
  0
ENDSEC
  0
SECTION
  2
TABLES
  0
TABLE
  2
VPORT
  5
23
102
{ACAD_XDICTIONARY
360
28
102
}
330
0
100
AcDbSymbolTable
 70
     1
  0
VPORT
  5
24
330
23
100
AcDbSymbolTableRecord
100
AcDbViewportTableRecord
  2
*Active
 70
     0
 10
0.0
 20
0.0
 11
1.0
 21
1.0
 12
691.9417809486993
 22
-172.3215290371393
 13
0.0
 23
0.0
 14
0.5
 24
0.5
 15
0.5
 25
0.5
 16
0.0
 26
0.0
 36
1.0
 17
0.0
 27
0.0
 37
0.0
 40
1.790731809720116
 41
2.311515151515151
 42
50.0
 43
0.0
 44
0.0
 50
0.0
 51
0.0
 71
     0
 72
   100
 73
     1
 74
     2
 75
     0
 76
     0
 77
     0
 78
     0
281
     0
 65
     1
110
0.0
120
0.0
130
0.0
111
1.0
121
0.0
131
0.0
112
0.0
122
1.0
132
0.0
 79
     0
146
0.0
348
25
 60
     3
 61
     5
292
     1
282
     1
141
0.0
142
0.0
 63
   250
421
  3355443
1001
ACAD_NAV_VCDISPLAY
1070
     3
  0
ENDTAB
  0
TABLE
  2
LTYPE
  5
1E
330
0
100
AcDbSymbolTable
 70
     1
  0
LTYPE
  5
1F
330
1E
100
AcDbSymbolTableRecord
100
AcDbLinetypeTableRecord
  2
ByBlock
 70
     0
  3

 72
    65
 73
     0
 40
0.0
  0
LTYPE
  5
20
330
1E
100
AcDbSymbolTableRecord
100
AcDbLinetypeTableRecord
  2
ByLayer
 70
     0
  3

 72
    65
 73
     0
 40
0.0
  0
LTYPE
  5
C
330
1E
100
AcDbSymbolTableRecord
100
AcDbLinetypeTableRecord
  2
Continuous
 70
     0
  3
Solid line
 72
    65
 73
     0
 40
0.0
  0
ENDTAB
  0
TABLE
  2
LAYER
  5
15
102
{ACAD_XDICTIONARY
360
16
102
}
330
0
100
AcDbSymbolTable
 70
     3
  0
LAYER
  5
6
330
15
100
AcDbSymbolTableRecord
100
AcDbLayerTableRecord
  2
0
 70
     0
 62
     7
  6
Continuous
370
    -3
390
7
347
A
348
0
  0
LAYER
  5
45
330
15
100
AcDbSymbolTableRecord
100
AcDbLayerTableRecord
  2
Defpoints
 70
     0
 62
     7
  6
Continuous
290
     0
370
    -3
390
7
347
A
348
0
  0
LAYER
  5
5C
330
15
100
AcDbSymbolTableRecord
100
AcDbLayerTableRecord
  2
5
 70
     0
 62
     7
  6
Continuous
370
    -3
390
7
347
A
348
0
  0
ENDTAB
  0
TABLE
  2
STYLE
  5
1B
330
0
100
AcDbSymbolTable
 70
     2
  0
STYLE
  5
1C
330
1B
100
AcDbSymbolTableRecord
100
AcDbTextStyleTableRecord
  2
Standard
 70
     0
 40
0.0
 41
1.0
 50
0.0
 71
     0
 42
0.45
  3
txt
  4

  0
STYLE
  5
72
330
1B
100
AcDbSymbolTableRecord
100
AcDbTextStyleTableRecord
  2
ROMANS
 70
     0
 40
1.0
 41
0.8
 50
0.0
 71
     0
 42
1.0
  3
SIMPLEX.shx
  4

  0
ENDTAB
  0
TABLE
  2
VIEW
  5
21
330
0
100
AcDbSymbolTable
 70
     0
  0
ENDTAB
  0
TABLE
  2
UCS
  5
22
330
0
100
AcDbSymbolTable
 70
     0
  0
ENDTAB
  0
TABLE
  2
APPID
  5
29
330
0
100
AcDbSymbolTable
 70
     4
  0
APPID
  5
1A
330
29
100
AcDbSymbolTableRecord
100
AcDbRegAppTableRecord
  2
ACAD
 70
     0
  0
APPID
  5
2C
330
29
100
AcDbSymbolTableRecord
100
AcDbRegAppTableRecord
  2
ACAD_DSTYLE_DIMJOGGED_JOGANGLE_SYMBOL
 70
     0
  0
APPID
  5
10
330
29
100
AcDbSymbolTableRecord
100
AcDbRegAppTableRecord
  2
ACAD_PSEXT
 70
     0
  0
APPID
  5
27
330
29
100
AcDbSymbolTableRecord
100
AcDbRegAppTableRecord
  2
ACAD_NAV_VCDISPLAY
 70
     0
  0
ENDTAB
  0
TABLE
  2
DIMSTYLE
  5
2A
330
0
100
AcDbSymbolTable
 70
     1
100
AcDbDimStyleTable
 71
     1
340
2B
  0
DIMSTYLE
105
2B
330
2A
100
AcDbSymbolTableRecord
100
AcDbDimStyleTableRecord
  2
Standard
 70
     0
 40
0.05
 41
0.08
 42
0.0266
 43
0.0266
 44
0.0266
 48
1.25
 49
0.0072
 73
     0
 74
     0
 78
     1
 79
     1
140
0.08
141
0.0
147
0.0266
172
     1
176
   256
177
   256
178
   256
289
     0
340
1C
345
20
346
20
347
20
371
    -1
372
    -1
1001
ACAD_DSTYLE_DIMJOGGED_JOGANGLE_SYMBOL
1070
   384
1040
0.7853981633974483
  0
ENDTAB
  0
TABLE
  2
BLOCK_RECORD
  5
1
330
0
100
AcDbSymbolTable
 70
     0
  0
BLOCK_RECORD
  5
2
102
{ACAD_XDICTIONARY
360
3
102
}
330
1
100
AcDbSymbolTableRecord
100
AcDbBlockTableRecord
  2
*Model_Space
340
E
 70
     0
280
     1
281
     0
  0
BLOCK_RECORD
  5
11
330
1
100
AcDbSymbolTableRecord
100
AcDbBlockTableRecord
  2
*Paper_Space
340
14
 70
     0
280
     1
281
     0
  0
ENDTAB
  0
ENDSEC
  0
SECTION
  2
BLOCKS
  0
BLOCK
  5
5
330
2
100
AcDbEntity
  8
0
100
AcDbBlockBegin
  2
*Model_Space
 70
     0
 10
0.0
 20
0.0
 30
0.0
  3
*Model_Space
  1

  0
ENDBLK
  5
D
330
2
100
AcDbEntity
  8
0
100
AcDbBlockEnd
  0
BLOCK
  5
12
330
11
100
AcDbEntity
 67
     1
  8
0
100
AcDbBlockBegin
  2
*Paper_Space
 70
     0
 10
0.0
 20
0.0
 30
0.0
  3
*Paper_Space
  1

  0
ENDBLK
  5
13
330
11
100
AcDbEntity
 67
     1
  8
0
100
AcDbBlockEnd
  0
ENDSEC
  0
SECTION
  2
ENTITIES
  0
LINE
  5
5B
330
2
100
AcDbEntity
  8
5
 62
     3
100
AcDbLine
 10
1.034705659819678
 20
-0.3014930551167652
 30
0.0
 11
1.034705659819678
 21
0.199091800574223
 31
0.0
  0
LINE
  5
5D
330
2
100
AcDbEntity
  8
5
 62
     7
100
AcDbLine
 10
1.014654087995495
 20
-0.3014930551167652
 30
0.0
 11
1.014654087995495
 21
0.199091800574223
 31
0.0
  0
LINE
  5
5E
330
2
100
AcDbEntity
  8
5
 62
     7
100
AcDbLine
 10
1.440465901602237
 20
-0.2503943159460391
 30
0.0
 11
1.440465901602237
 21
-0.0970980291430976
 31
0.0
  0
LINE
  5
5F
330
2
100
AcDbEntity
  8
5
 62
     7
100
AcDbLine
 10
1.378995912217533
 20
-0.2503943159460391
 30
0.0
 11
1.378995912217533
 21
-0.0970980291430976
 31
0.0
  0
LINE
  5
60
330
2
100
AcDbEntity
  8
5
 62
     7
100
AcDbLine
 10
1.317525922832828
 20
-0.2503943159460391
 30
0.0
 11
1.317525922832828
 21
-0.0970980291430976
 31
0.0
  0
LINE
  5
61
330
2
100
AcDbEntity
  8
5
 62
     7
100
AcDbLine
 10
1.014654087995495
 20
-0.3014930551167652
 30
0.0
 11
1.501935890987056
 21
-0.3014930551167652
 31
0.0
  0
LINE
  5
62
330
2
100
AcDbEntity
  8
5
 62
     3
100
AcDbLine
 10
1.014654087995495
 20
-0.2376196253791249
 30
0.0
 11
1.501935890987056
 21
-0.2376196253791249
 31
0.0
  0
LINE
  5
63
330
2
100
AcDbEntity
  8
5
 62
     3
100
AcDbLine
 10
1.014654087995495
 20
-0.288718364549851
 30
0.0
 11
1.501935890987056
 21
-0.288718364549851
 31
0.0
  0
LINE
  5
64
330
2
100
AcDbEntity
  8
5
 62
     3
100
AcDbLine
 10
1.014654087995495
 20
-0.2631690065129533
 30
0.0
 11
1.501935890987056
 21
-0.2631690065129533
 31
0.0
  0
LINE
  5
65
330
2
100
AcDbEntity
  8
5
 62
     3
100
AcDbLine
 10
1.014654087995495
 20
-0.1737461725445826
 30
0.0
 11
1.501935890987056
 21
-0.1737461725445826
 31
0.0
  0
LINE
  5
66
330
2
100
AcDbEntity
  8
5
 62
     3
100
AcDbLine
 10
1.014654087995495
 20
-0.275943697079839
 30
0.0
 11
1.501935890987056
 21
-0.275943697079839
 31
0.0
  0
LINE
  5
67
330
2
100
AcDbEntity
  8
5
 62
     3
100
AcDbLine
 10
1.014654087995495
 20
-0.2503943159460391
 30
0.0
 11
1.501935890987056
 21
-0.2503943159460391
 31
0.0
  0
LINE
  5
68
330
2
100
AcDbEntity
  8
5
 62
     3
100
AcDbLine
 10
1.014654087995495
 20
-0.2248449348121824
 30
0.0
 11
1.501935890987056
 21
-0.2248449348121824
 31
0.0
  0
LINE
  5
69
330
2
100
AcDbEntity
  8
5
 62
     3
100
AcDbLine
 10
1.014654087995495
 20
-0.2120702442452966
 30
0.0
 11
1.501935890987056
 21
-0.2120702442452966
 31
0.0
  0
LINE
  5
6A
330
2
100
AcDbEntity
  8
5
 62
     3
100
AcDbLine
 10
1.014654087995495
 20
-0.1992955536784109
 30
0.0
 11
1.501935890987056
 21
-0.1992955536784109
 31
0.0
  0
LINE
  5
6B
330
2
100
AcDbEntity
  8
5
 62
     3
100
AcDbLine
 10
1.014654087995495
 20
-0.1865208631114967
 30
0.0
 11
1.501935890987056
 21
-0.1865208631114967
 31
0.0
  0
LINE
  5
6C
330
2
100
AcDbEntity
  8
5
 62
     3
100
AcDbLine
 10
1.014654087995495
 20
-0.1226474102769259
 30
0.0
 11
1.501935890987056
 21
-0.1226474102769259
 31
0.0
  0
LINE
  5
6D
330
2
100
AcDbEntity
  8
5
 62
     3
100
AcDbLine
 10
1.014654087995495
 20
-0.1354221008438401
 30
0.0
 11
1.501935890987056
 21
-0.1354221008438401
 31
0.0
  0
LINE
  5
6E
330
2
100
AcDbEntity
  8
5
 62
     3
100
AcDbLine
 10
1.014654087995495
 20
-0.1481967914107543
 30
0.0
 11
1.501935890987056
 21
-0.1481967914107543
 31
0.0
  0
LINE
  5
6F
330
2
100
AcDbEntity
  8
5
 62
     3
100
AcDbLine
 10
1.014654087995495
 20
-0.1609714819776684
 30
0.0
 11
1.501935890987056
 21
-0.1609714819776684
 31
0.0
  0
LINE
  5
70
330
2
100
AcDbEntity
  8
5
 62
     3
100
AcDbLine
 10
1.014654087995495
 20
-0.1098727197100118
 30
0.0
 11
1.501935890987056
 21
-0.1098727197100118
 31
0.0
  0
TEXT
  5
71
330
2
100
AcDbEntity
  8
5
 62
     3
100
AcDbText
 10
1.019486040662965
 20
-0.2212006539472772
 30
0.0
 40
0.0058066775304137
  1
28
 41
0.9
  7
ROMANS
 72
     4
 11
1.023716620006553
 21
-0.2182973151820704
 31
0.0
100
AcDbText
  0
TEXT
  5
73
330
2
100
AcDbEntity
  8
5
 62
     3
100
AcDbText
 10
1.020172487687476
 20
-0.2979876286526623
 30
0.0
 40
0.0058066775304137
  1
34
 41
0.9
  7
ROMANS
 72
     4
 11
1.024527495835286
 21
-0.2950842898874555
 31
0.0
100
AcDbText
  0
TEXT
  5
74
330
2
100
AcDbEntity
  8
5
 62
     3
100
AcDbText
 10
1.020296916491699
 20
-0.2849294862166393
 30
0.0
 40
0.0058066775304137
  1
33
 41
0.9
  7
ROMANS
 72
     4
 11
1.024527495835286
 21
-0.2820261474514325
 31
0.0
100
AcDbText
  0
TEXT
  5
75
330
2
100
AcDbEntity
  8
5
 62
     3
100
AcDbText
 10
1.021416775729707
 20
-0.259663580048822
 30
0.0
 40
0.0058066775304137
  1
31
 41
0.9
  7
ROMANS
 72
     4
 11
1.024527495835286
 21
-0.2567602412836152
 31
0.0
100
AcDbText
  0
TEXT
  5
76
330
2
100
AcDbEntity
  8
5
 62
     3
100
AcDbText
 10
1.020296916491699
 20
-0.2724382706157362
 30
0.0
 40
0.0058066775304137
  1
32
 41
0.9
  7
ROMANS
 72
     4
 11
1.024527495835286
 21
-0.2695349318505293
 31
0.0
100
AcDbText
  0
TEXT
  5
77
330
2
100
AcDbEntity
  8
5
 62
     3
100
AcDbText
 10
1.020296916491699
 20
-0.2469566839332335
 30
0.0
 40
0.0058066775304137
  1
30
 41
0.9
  7
ROMANS
 72
     4
 11
1.024527495835286
 21
-0.2440533451680267
 31
0.0
100
AcDbText
  0
TEXT
  5
78
330
2
100
AcDbEntity
  8
5
 62
     3
100
AcDbText
 10
1.020421345295922
 20
-0.234044771714621
 30
0.0
 40
0.0058066775304137
  1
29
 41
0.9
  7
ROMANS
 72
     4
 11
1.024527495835286
 21
-0.2311414329494141
 31
0.0
100
AcDbText
  0
TEXT
  5
79
330
2
100
AcDbEntity
  8
5
 62
     3
100
AcDbText
 10
1.020296916491699
 20
-0.2084135475671748
 30
0.0
 40
0.0058066775304137
  1
27
 41
0.9
  7
ROMANS
 72
     4
 11
1.024527495835286
 21
-0.205510208801968
 31
0.0
100
AcDbText
  0
TEXT
  5
7A
330
2
100
AcDbEntity
  8
5
 62
     3
100
AcDbText
 10
1.020963868064036
 20
-0.1957082842006903
 30
0.0
 40
0.0058066775304137
  1
26
 41
0.9
  7
ROMANS
 72
     4
 11
1.0250700186034
 21
-0.1928049454354834
 31
0.0
100
AcDbText
  0
TEXT
  5
7B
330
2
100
AcDbEntity
  8
5
 62
     3
100
AcDbText
 10
1.020839439259813
 20
-0.1827947392329454
 30
0.0
 40
0.0058066775304137
  1
25
 41
0.9
  7
ROMANS
 72
     4
 11
1.0250700186034
 21
-0.1798914004677385
 31
0.0
100
AcDbText
  0
TEXT
  5
7C
330
2
100
AcDbEntity
  8
5
 62
     3
100
AcDbText
 10
1.020289348333493
 20
-0.1701249918491205
 30
0.0
 40
0.0058066775304137
  1
24
 41
0.9
  7
ROMANS
 72
     4
 11
1.024644356481303
 21
-0.1672216530839137
 31
0.0
100
AcDbText
  0
TEXT
  5
7D
330
2
100
AcDbEntity
  8
5
 62
     3
100
AcDbText
 10
1.020413777137716
 20
-0.1574416461937167
 30
0.0
 40
0.0058066775304137
  1
23
 41
0.9
  7
ROMANS
 72
     4
 11
1.024644356481303
 21
-0.1545383074285098
 31
0.0
100
AcDbText
  0
TEXT
  5
7E
330
2
100
AcDbEntity
  8
5
 62
     3
100
AcDbText
 10
1.020413777137716
 20
-0.1439970929426115
 30
0.0
 40
0.0058066775304137
  1
22
 41
0.9
  7
ROMANS
 72
     4
 11
1.024644356481303
 21
-0.1410937541774047
 31
0.0
100
AcDbText
  0
TEXT
  5
7F
330
2
100
AcDbEntity
  8
5
 62
     3
100
AcDbText
 10
1.020413777137716
 20
-0.1190738446474588
 30
0.0
 40
0.0058066775304137
  1
20
 41
0.9
  7
ROMANS
 72
     4
 11
1.024644356481303
 21
-0.116170505882252
 31
0.0
100
AcDbText
  0
TEXT
  5
80
330
2
100
AcDbEntity
  8
5
 62
     3
100
AcDbText
 10
1.021533636375724
 20
-0.1318003711498354
 30
0.0
 40
0.0058066775304137
  1
21
 41
0.9
  7
ROMANS
 72
     4
 11
1.024644356481303
 21
-0.1288970323846286
 31
0.0
100
AcDbText
  0
TEXT
  5
81
330
2
100
AcDbEntity
  8
5
 62
     3
100
AcDbText
 10
1.020911492354608
 20
-0.0806053038498353
 30
0.0
 40
0.0058066775304137
  1
18
 41
0.9
  7
ROMANS
 72
     4
 11
1.024644356481303
 21
-0.0777019650846285
 31
0.0
100
AcDbText
  0
TEXT
  5
82
330
2
100
AcDbEntity
  8
5
 62
     3
100
AcDbText
 10
1.34671684198422
 20
-0.2339134301410046
 30
0.0
 40
0.0058066775304137
  1
-
 41
0.9
  7
ROMANS
 72
     4
 11
1.348956560460237
 21
-0.2314248540565416
 31
0.0
100
AcDbText
  0
TEXT
  5
83
330
2
100
AcDbEntity
  8
5
 62
     3
100
AcDbText
 10
1.34671684198422
 20
-0.2466881207079187
 30
0.0
 40
0.0058066775304137
  1
-
 41
0.9
  7
ROMANS
 72
     4
 11
1.348956560460237
 21
-0.2441995446234557
 31
0.0
100
AcDbText
  0
TEXT
  5
84
330
2
100
AcDbEntity
  8
5
 62
     3
100
AcDbText
 10
1.34671684198422
 20
-0.2083640490072331
 30
0.0
 40
0.0058066775304137
  1
-
 41
0.9
  7
ROMANS
 72
     4
 11
1.348956560460237
 21
-0.2058754729227701
 31
0.0
100
AcDbText
  0
TEXT
  5
85
330
2
100
AcDbEntity
  8
5
 62
     3
100
AcDbText
 10
1.34671684198422
 20
-0.2211387395741188
 30
0.0
 40
0.0058066775304137
  1
-
 41
0.9
  7
ROMANS
 72
     4
 11
1.348956560460237
 21
-0.2186501634896558
 31
0.0
100
AcDbText
  0
TEXT
  5
86
330
2
100
AcDbEntity
  8
5
 62
     3
100
AcDbText
 10
1.34671684198422
 20
-0.1444905961726623
 30
0.0
 40
0.0058066775304137
  1
-
 41
0.9
  7
ROMANS
 72
     4
 11
1.348956560460237
 21
-0.1420020200881993
 31
0.0
100
AcDbText
  0
TEXT
  5
87
330
2
100
AcDbEntity
  8
5
 62
     3
100
AcDbText
 10
1.34671684198422
 20
-0.118941215038834
 30
0.0
 40
0.0058066775304137
  1
-
 41
0.9
  7
ROMANS
 72
     4
 11
1.348956560460237
 21
-0.116452638954371
 31
0.0
100
AcDbText
  0
TEXT
  5
88
330
2
100
AcDbEntity
  8
5
 62
     3
100
AcDbText
 10
1.34671684198422
 20
-0.1317159056057481
 30
0.0
 40
0.0058066775304137
  1
-
 41
0.9
  7
ROMANS
 72
     4
 11
1.348956560460237
 21
-0.1292273295212851
 31
0.0
100
AcDbText
  0
TEXT
  5
89
330
2
100
AcDbEntity
  8
5
 62
     3
100
AcDbText
 10
1.34671684198422
 20
-0.1955893584402905
 30
0.0
 40
0.0058066775304137
  1
-
 41
0.9
  7
ROMANS
 72
     4
 11
1.348956560460237
 21
-0.1931007823558275
 31
0.0
100
AcDbText
  0
TEXT
  5
8A
330
2
100
AcDbEntity
  8
5
 62
     3
100
AcDbText
 10
1.34671684198422
 20
-0.182814667873348
 30
0.0
 40
0.0058066775304137
  1
-
 41
0.9
  7
ROMANS
 72
     4
 11
1.348956560460237
 21
-0.1803260917888849
 31
0.0
100
AcDbText
  0
TEXT
  5
8B
330
2
100
AcDbEntity
  8
5
 62
     3
100
AcDbText
 10
1.34671684198422
 20
-0.1700399773064906
 30
0.0
 40
0.0058066775304137
  1
-
 41
0.9
  7
ROMANS
 72
     4
 11
1.348956560460237
 21
-0.1675514012220276
 31
0.0
100
AcDbText
  0
TEXT
  5
8C
330
2
100
AcDbEntity
  8
5
 62
     3
100
AcDbText
 10
1.34671684198422
 20
-0.1572652867395765
 30
0.0
 40
0.0058066775304137
  1
-
 41
0.9
  7
ROMANS
 72
     4
 11
1.348956560460237
 21
-0.1547767106551134
 31
0.0
100
AcDbText
  0
TEXT
  5
8D
330
2
100
AcDbEntity
  8
5
 62
     3
100
AcDbText
 10
1.466164042633658
 20
-0.2340560532432212
 30
0.0
 40
0.0058066775304137
  1
2.5%%d
 41
0.9
  7
ROMANS
 72
     4
 11
1.472883198061708
 21
-0.2311527144780143
 31
0.0
100
AcDbText
  0
TEXT
  5
8E
330
2
100
AcDbEntity
  8
5
 62
     3
100
AcDbText
 10
1.407166156206971
 20
-0.2466881207079187
 30
0.0
 40
0.0058066775304137
  1
-
 41
0.9
  7
ROMANS
 72
     4
 11
1.409405874682988
 21
-0.2441995446234557
 31
0.0
100
AcDbText
  0
TEXT
  5
8F
330
2
100
AcDbEntity
  8
5
 62
     3
100
AcDbText
 10
1.407166156206971
 20
-0.2339134301410046
 30
0.0
 40
0.0058066775304137
  1
-
 41
0.9
  7
ROMANS
 72
     4
 11
1.409405874682988
 21
-0.2314248540565416
 31
0.0
100
AcDbText
  0
TEXT
  5
90
330
2
100
AcDbEntity
  8
5
 62
     3
100
AcDbText
 10
1.401480590452198
 20
-0.2603715625141367
 30
0.0
 40
0.0058066775304137
  1
0.008
 41
0.9
  7
ROMANS
 72
     4
 11
1.411932610006942
 21
-0.2574682237489299
 31
0.0
100
AcDbText
  0
TEXT
  5
91
330
2
100
AcDbEntity
  8
5
 62
     3
100
AcDbText
 10
1.462431178506964
 20
-0.1318585287079363
 30
0.0
 40
0.0058066775304137
  1
0.025
 41
0.9
  7
ROMANS
 72
     4
 11
1.472883198061708
 21
-0.1289551899427295
 31
0.0
100
AcDbText
  0
TEXT
  5
92
330
2
100
AcDbEntity
  8
5
 62
     3
100
AcDbText
 10
1.463551037744972
 20
-0.1446332192748505
 30
0.0
 40
0.0058066775304137
  1
0.051
 41
0.9
  7
ROMANS
 72
     4
 11
1.472883198061708
 21
-0.1417298805096436
 31
0.0
100
AcDbText
  0
TEXT
  5
93
330
2
100
AcDbEntity
  8
5
 62
     3
100
AcDbText
 10
1.470410880073745
 20
-0.2083640490072331
 30
0.0
 40
0.0058066775304137
  1
-
 41
0.9
  7
ROMANS
 72
     4
 11
1.472650598549762
 21
-0.2058754729227701
 31
0.0
100
AcDbText
  0
TEXT
  5
94
330
2
100
AcDbEntity
  8
5
 62
     3
100
AcDbText
 10
1.470410880073745
 20
-0.1572652867395765
 30
0.0
 40
0.0058066775304137
  1
-
 41
0.9
  7
ROMANS
 72
     4
 11
1.472650598549762
 21
-0.1547767106551134
 31
0.0
100
AcDbText
  0
TEXT
  5
95
330
2
100
AcDbEntity
  8
5
 62
     3
100
AcDbText
 10
1.407166156206971
 20
-0.1317159056057481
 30
0.0
 40
0.0058066775304137
  1
-
 41
0.9
  7
ROMANS
 72
     4
 11
1.409405874682988
 21
-0.1292273295212851
 31
0.0
100
AcDbText
  0
TEXT
  5
96
330
2
100
AcDbEntity
  8
5
 62
     3
100
AcDbText
 10
1.407166156206971
 20
-0.118941215038834
 30
0.0
 40
0.0058066775304137
  1
-
 41
0.9
  7
ROMANS
 72
     4
 11
1.409405874682988
 21
-0.116452638954371
 31
0.0
100
AcDbText
  0
TEXT
  5
97
330
2
100
AcDbEntity
  8
5
 62
     3
100
AcDbText
 10
1.407166156206971
 20
-0.1444905961726623
 30
0.0
 40
0.0058066775304137
  1
-
 41
0.9
  7
ROMANS
 72
     4
 11
1.409405874682988
 21
-0.1420020200881993
 31
0.0
100
AcDbText
  0
TEXT
  5
98
330
2
100
AcDbEntity
  8
5
 62
     3
100
AcDbText
 10
1.407166156206971
 20
-0.2211387395741188
 30
0.0
 40
0.0058066775304137
  1
-
 41
0.9
  7
ROMANS
 72
     4
 11
1.409405874682988
 21
-0.2186501634896558
 31
0.0
100
AcDbText
  0
TEXT
  5
99
330
2
100
AcDbEntity
  8
5
 62
     3
100
AcDbText
 10
1.407166156206971
 20
-0.1700399773064906
 30
0.0
 40
0.0058066775304137
  1
-
 41
0.9
  7
ROMANS
 72
     4
 11
1.409405874682988
 21
-0.1675514012220276
 31
0.0
100
AcDbText
  0
TEXT
  5
9A
330
2
100
AcDbEntity
  8
5
 62
     3
100
AcDbText
 10
1.407166156206971
 20
-0.182814667873348
 30
0.0
 40
0.0058066775304137
  1
-
 41
0.9
  7
ROMANS
 72
     4
 11
1.409405874682988
 21
-0.1803260917888849
 31
0.0
100
AcDbText
  0
TEXT
  5
9B
330
2
100
AcDbEntity
  8
5
 62
     3
100
AcDbText
 10
1.407166156206971
 20
-0.1955893584402905
 30
0.0
 40
0.0058066775304137
  1
-
 41
0.9
  7
ROMANS
 72
     4
 11
1.409405874682988
 21
-0.1931007823558275
 31
0.0
100
AcDbText
  0
TEXT
  5
9C
330
2
100
AcDbEntity
  8
5
 62
     3
100
AcDbText
 10
1.396449020947508
 20
-0.2085066721093928
 30
0.0
 40
0.0058066775304137
  1
%%p0.102
 41
0.9
  7
ROMANS
 72
     4
 11
1.409638474195162
 21
-0.205603333344186
 31
0.0
100
AcDbText
  0
LINE
  5
9D
330
2
100
AcDbEntity
  8
5
 62
     3
100
AcDbLine
 10
1.014654087995495
 20
-0.0587739574422699
 30
0.0
 11
1.501935890987056
 21
-0.0587739574422699
 31
0.0
  0
LINE
  5
9E
330
2
100
AcDbEntity
  8
5
 62
     3
100
AcDbLine
 10
1.014654087995495
 20
-0.0459992437785104
 30
0.0
 11
1.501935890987056
 21
-0.0459992437785104
 31
0.0
  0
LINE
  5
9F
330
2
100
AcDbEntity
  8
5
 62
     3
100
AcDbLine
 10
1.014654087995495
 20
-0.0332245994054006
 30
0.0
 11
1.501935890987056
 21
-0.0332245994054006
 31
0.0
  0
LINE
  5
A0
330
2
100
AcDbEntity
  8
5
 62
     3
100
AcDbLine
 10
1.014654087995495
 20
-0.0204499550322339
 30
0.0
 11
1.501935890987056
 21
-0.0204499550322339
 31
0.0
  0
LINE
  5
A1
330
2
100
AcDbEntity
  8
5
 62
     3
100
AcDbLine
 10
1.014654087995495
 20
-0.0715486480091556
 30
0.0
 11
1.501935890987056
 21
-0.0715486480091556
 31
0.0
  0
LINE
  5
A2
330
2
100
AcDbEntity
  8
5
 62
     3
100
AcDbLine
 10
1.014654087995495
 20
0.1711703803744911
 30
0.0
 11
1.501935890987056
 21
0.1711703803744911
 31
0.0
  0
LINE
  5
A3
330
2
100
AcDbEntity
  8
5
 62
     3
100
AcDbLine
 10
1.014654087995495
 20
0.1583956898075769
 30
0.0
 11
1.501935890987056
 21
0.1583956898075769
 31
0.0
  0
LINE
  5
A4
330
2
100
AcDbEntity
  8
5
 62
     3
100
AcDbLine
 10
1.014654087995495
 20
0.1072969275399487
 30
0.0
 11
1.501935890987056
 21
0.1072969275399487
 31
0.0
  0
LINE
  5
A5
330
2
100
AcDbEntity
  8
5
 62
     3
100
AcDbLine
 10
1.014654087995495
 20
0.1200716181068913
 30
0.0
 11
1.501935890987056
 21
0.1200716181068913
 31
0.0
  0
LINE
  5
A6
330
2
100
AcDbEntity
  8
5
 62
     3
100
AcDbLine
 10
1.014654087995495
 20
0.132846308673777
 30
0.0
 11
1.501935890987056
 21
0.132846308673777
 31
0.0
  0
LINE
  5
A7
330
2
100
AcDbEntity
  8
5
 62
     3
100
AcDbLine
 10
1.014654087995495
 20
0.1456209992406627
 30
0.0
 11
1.501935890987056
 21
0.1456209992406627
 31
0.0
  0
LINE
  5
A8
330
2
100
AcDbEntity
  8
5
 62
     3
100
AcDbLine
 10
1.014654087995495
 20
0.0689728558391778
 30
0.0
 11
1.501935890987056
 21
0.0689728558391778
 31
0.0
  0
LINE
  5
A9
330
2
100
AcDbEntity
  8
5
 62
     3
100
AcDbLine
 10
1.014654087995495
 20
0.0561981652722636
 30
0.0
 11
1.501935890987056
 21
0.0561981652722636
 31
0.0
  0
LINE
  5
AA
330
2
100
AcDbEntity
  8
5
 62
     3
100
AcDbLine
 10
1.014654087995495
 20
0.0434234747053779
 30
0.0
 11
1.501935890987056
 21
0.0434234747053779
 31
0.0
  0
LINE
  5
AB
330
2
100
AcDbEntity
  8
5
 62
     3
100
AcDbLine
 10
1.014654087995495
 20
0.0306487841384922
 30
0.0
 11
1.501935890987056
 21
0.0306487841384922
 31
0.0
  0
LINE
  5
AC
330
2
100
AcDbEntity
  8
5
 62
     3
100
AcDbLine
 10
1.014654087995495
 20
0.017874093571578
 30
0.0
 11
1.501935890987056
 21
0.017874093571578
 31
0.0
  0
LINE
  5
AD
330
2
100
AcDbEntity
  8
5
 62
     3
100
AcDbLine
 10
1.014654087995495
 20
-0.0076752875622503
 30
0.0
 11
1.501935890987056
 21
-0.0076752875622503
 31
0.0
  0
LINE
  5
AE
330
2
100
AcDbEntity
  8
5
 62
     3
100
AcDbLine
 10
1.014654087995495
 20
0.0817475464061204
 30
0.0
 11
1.501935890987056
 21
0.0817475464061204
 31
0.0
  0
LINE
  5
AF
330
2
100
AcDbEntity
  8
5
 62
     3
100
AcDbLine
 10
1.014654087995495
 20
0.1839450709414052
 30
0.0
 11
1.501935890987056
 21
0.1839450709414052
 31
0.0
  0
LINE
  5
B0
330
2
100
AcDbEntity
  8
5
 62
     3
100
AcDbLine
 10
1.014654087995495
 20
0.0050994030046354
 30
0.0
 11
1.501935890987056
 21
0.0050994030046354
 31
0.0
  0
TEXT
  5
B1
330
2
100
AcDbEntity
  8
5
 62
     3
100
AcDbText
 10
1.020794631708592
 20
-0.0295682647425783
 30
0.0
 40
0.0058066775304137
  1
17
 41
0.9
  7
ROMANS
 72
     4
 11
1.024527495835286
 21
-0.0266649259773715
 31
0.0
100
AcDbText
  0
TEXT
  5
B2
330
2
100
AcDbEntity
  8
5
 62
     3
100
AcDbText
 10
1.020794631708592
 20
0.0598548619504138
 30
0.0
 40
0.0058066775304137
  1
10
 41
0.9
  7
ROMANS
 72
     4
 11
1.024527495835286
 21
0.0627582007156207
 31
0.0
100
AcDbText
  0
TEXT
  5
B3
330
2
100
AcDbEntity
  8
5
 62
     3
100
AcDbText
 10
1.021103615117866
 20
0.0470677555703114
 30
0.0
 40
0.0058066775304137
  1
11
 41
0.9
  7
ROMANS
 72
     4
 11
1.023716620006553
 21
0.0499710943355183
 31
0.0
100
AcDbText
  0
TEXT
  5
B4
330
2
100
AcDbEntity
  8
5
 62
     3
100
AcDbText
 10
1.020794631708592
 20
0.0342236378029961
 30
0.0
 40
0.0058066775304137
  1
12
 41
0.9
  7
ROMANS
 72
     4
 11
1.024527495835286
 21
0.037126976568203
 31
0.0
100
AcDbText
  0
TEXT
  5
B5
330
2
100
AcDbEntity
  8
5
 62
     3
100
AcDbText
 10
1.020794631708592
 20
0.021448947236082
 30
0.0
 40
0.0058066775304137
  1
13
 41
0.9
  7
ROMANS
 72
     4
 11
1.024527495835286
 21
0.0243522860012888
 31
0.0
100
AcDbText
  0
TEXT
  5
B6
330
2
100
AcDbEntity
  8
5
 62
     3
100
AcDbText
 10
1.020670202904368
 20
0.0085370350174694
 30
0.0
 40
0.0058066775304137
  1
14
 41
0.9
  7
ROMANS
 72
     4
 11
1.024527495835286
 21
0.0114403737826763
 31
0.0
100
AcDbText
  0
TEXT
  5
B7
330
2
100
AcDbEntity
  8
5
 62
     3
100
AcDbText
 10
1.020919060512815
 20
-0.0169445516650617
 30
0.0
 40
0.0058066775304137
  1
16
 41
0.9
  7
ROMANS
 72
     4
 11
1.024527495835286
 21
-0.0140412128998548
 31
0.0
100
AcDbText
  0
TEXT
  5
B8
330
2
100
AcDbEntity
  8
5
 62
     3
100
AcDbText
 10
1.020794631708592
 20
-0.0041698610981191
 30
0.0
 40
0.0058066775304137
  1
15
 41
0.9
  7
ROMANS
 72
     4
 11
1.024527495835286
 21
-0.0012665223329122
 31
0.0
100
AcDbText
  0
TEXT
  5
B9
330
2
100
AcDbEntity
  8
5
 62
     7
100
AcDbText
 10
1.017531022517374
 20
0.2060240740438787
 30
0.0
 40
0.0084611586871742
  1
NOTES :
 41
0.9
  7
ROMANS
 72
     4
 11
1.039650908799558
 21
0.2102546533874658
 31
0.0
100
AcDbText
  0
TEXT
  5
BA
330
2
100
AcDbEntity
  8
5
 62
     3
100
AcDbText
 10
1.022902353222179
 20
0.0981434407654272
 30
0.0
 40
0.0058066775304137
  1
7
 41
0.9
  7
ROMANS
 72
     4
 11
1.024644356481303
 21
0.101046779530634
 31
0.0
100
AcDbText
  0
TEXT
  5
BB
330
2
100
AcDbEntity
  8
5
 62
     3
100
AcDbText
 10
1.0234524441485
 20
0.0725601253168984
 30
0.0
 40
0.0058066775304137
  1
9
 41
0.9
  7
ROMANS
 72
     4
 11
1.0250700186034
 21
0.0754634640821053
 31
0.0
100
AcDbText
  0
TEXT
  5
BC
330
2
100
AcDbEntity
  8
5
 62
     3
100
AcDbText
 10
1.022902353222179
 20
0.1621137707275589
 30
0.0
 40
0.0058066775304137
  1
2
 41
0.9
  7
ROMANS
 72
     4
 11
1.024644356481303
 21
0.1650171094927657
 31
0.0
100
AcDbText
  0
TEXT
  5
BD
330
2
100
AcDbEntity
  8
5
 62
     3
100
AcDbText
 10
1.022777924417956
 20
0.1364680614647123
 30
0.0
 40
0.0058066775304137
  1
4
 41
0.9
  7
ROMANS
 72
     4
 11
1.024644356481303
 21
0.1393714002299191
 31
0.0
100
AcDbText
  0
TEXT
  5
BE
330
2
100
AcDbEntity
  8
5
 62
     3
100
AcDbText
 10
1.022902353222179
 20
0.1491945879671173
 30
0.0
 40
0.0058066775304137
  1
3
 41
0.9
  7
ROMANS
 72
     4
 11
1.024644356481303
 21
0.1520979267323241
 31
0.0
100
AcDbText
  0
TEXT
  5
BF
330
2
100
AcDbEntity
  8
5
 62
     3
100
AcDbText
 10
1.022902353222179
 20
0.1242713396719646
 30
0.0
 40
0.0058066775304137
  1
5
 41
0.9
  7
ROMANS
 72
     4
 11
1.024644356481303
 21
0.1271746784371714
 31
0.0
100
AcDbText
  0
TEXT
  5
C0
330
2
100
AcDbEntity
  8
5
 62
     3
100
AcDbText
 10
1.023026782026402
 20
0.1108267864208879
 30
0.0
 40
0.0058066775304137
  1
6
 41
0.9
  7
ROMANS
 72
     4
 11
1.024644356481303
 21
0.1137301251860947
 31
0.0
100
AcDbText
  0
TEXT
  5
C1
330
2
100
AcDbEntity
  8
5
 62
     3
100
AcDbText
 10
1.024022212460187
 20
0.174888461294473
 30
0.0
 40
0.0058066775304137
  1
1
 41
0.9
  7
ROMANS
 72
     4
 11
1.024644356481303
 21
0.1777918000596799
 31
0.0
100
AcDbText
  0
LINE
  5
C2
330
2
100
AcDbEntity
  8
5
 62
     7
100
AcDbLine
 10
1.317525922832828
 20
-0.0715486480091556
 30
0.0
 11
1.317525922832828
 21
0.199091800574223
 31
0.0
  0
TEXT
  5
C3
330
2
100
AcDbEntity
  8
5
 62
     3
100
AcDbText
 10
1.347994165954378
 20
0.0088055982427558
 30
0.0
 40
0.0058066775304137
  1
-
 41
0.9
  7
ROMANS
 72
     4
 11
1.350233884430394
 21
0.0112941743272188
 31
0.0
100
AcDbText
  0
TEXT
  5
C4
330
2
100
AcDbEntity
  8
5
 62
     3
100
AcDbText
 10
1.347994165954378
 20
-0.0039690923241584
 30
0.0
 40
0.0058066775304137
  1
-
 41
0.9
  7
ROMANS
 72
     4
 11
1.350233884430394
 21
-0.0014805162396954
 31
0.0
100
AcDbText
  0
TEXT
  5
C5
330
2
100
AcDbEntity
  8
5
 62
     3
100
AcDbText
 10
1.347994165954378
 20
-0.0167437828910441
 30
0.0
 40
0.0058066775304137
  1
-
 41
0.9
  7
ROMANS
 72
     4
 11
1.350233884430394
 21
-0.0142552068065811
 31
0.0
100
AcDbText
  0
TEXT
  5
C6
330
2
100
AcDbEntity
  8
5
 62
     3
100
AcDbText
 10
1.338346400476472
 20
0.1619592619435375
 30
0.0
 40
0.0058066775304137
  1
1.524
 41
0.9
  7
ROMANS
 72
     4
 11
1.348425133618547
 21
0.1648626007087444
 31
0.0
100
AcDbText
  0
TEXT
  5
C7
330
2
100
AcDbEntity
  8
5
 62
     3
100
AcDbText
 10
1.338595258084919
 20
0.1747339525104233
 30
0.0
 40
0.0058066775304137
  1
0.196
 41
0.9
  7
ROMANS
 72
     4
 11
1.348425133618547
 21
0.1776372912756301
 31
0.0
100
AcDbText
  0
TEXT
  5
C8
330
2
100
AcDbEntity
  8
5
 62
     7
100
AcDbText
 10
1.341258694183832
 20
0.1876024835869725
 30
0.0
 40
0.0069680130364964
  1
MIN.
 41
0.9
  7
ROMANS
 72
     4
 11
1.349620309827628
 21
0.1910864901052207
 31
0.0
100
AcDbText
  0
LINE
  5
C9
330
2
100
AcDbEntity
  8
5
 62
     7
100
AcDbLine
 10
1.440465901602237
 20
-0.0715486480091556
 30
0.0
 11
1.440465901602237
 21
0.199091800574223
 31
0.0
  0
LINE
  5
CA
330
2
100
AcDbEntity
  8
5
 62
     7
100
AcDbLine
 10
1.378995912217533
 20
-0.0715486480091556
 30
0.0
 11
1.378995912217533
 21
0.199091800574223
 31
0.0
  0
TEXT
  5
CB
330
2
100
AcDbEntity
  8
5
 62
     3
100
AcDbText
 10
1.460913092833212
 20
-0.0168864059932607
 30
0.0
 40
0.0058066775304137
  1
0.508
 41
0.9
  7
ROMANS
 72
     4
 11
1.471365112387957
 21
-0.0139830672280539
 31
0.0
100
AcDbText
  0
TEXT
  5
CC
330
2
100
AcDbEntity
  8
5
 62
     3
100
AcDbText
 10
1.460913092833212
 20
-0.0041117154263466
 30
0.0
 40
0.0058066775304137
  1
0.020
 41
0.9
  7
ROMANS
 72
     4
 11
1.471365112387957
 21
-0.0012083766611397
 31
0.0
100
AcDbText
  0
TEXT
  5
CD
330
2
100
AcDbEntity
  8
5
 62
     3
100
AcDbText
 10
1.47014426423168
 20
0.0088055982427558
 30
0.0
 40
0.0058066775304137
  1
-
 41
0.9
  7
ROMANS
 72
     4
 11
1.472383982707697
 21
0.0112941743272188
 31
0.0
100
AcDbText
  0
TEXT
  5
CE
330
2
100
AcDbEntity
  8
5
 62
     3
100
AcDbText
 10
1.407538202350155
 20
-0.0167437828910441
 30
0.0
 40
0.0058066775304137
  1
-
 41
0.9
  7
ROMANS
 72
     4
 11
1.409777920826172
 21
-0.0142552068065811
 31
0.0
100
AcDbText
  0
TEXT
  5
CF
330
2
100
AcDbEntity
  8
5
 62
     3
100
AcDbText
 10
1.407538202350155
 20
-0.0039690923241584
 30
0.0
 40
0.0058066775304137
  1
-
 41
0.9
  7
ROMANS
 72
     4
 11
1.409777920826172
 21
-0.0014805162396954
 31
0.0
100
AcDbText
  0
TEXT
  5
D0
330
2
100
AcDbEntity
  8
5
 62
     3
100
AcDbText
 10
1.407538202350155
 20
0.0088055982427558
 30
0.0
 40
0.0058066775304137
  1
-
 41
0.9
  7
ROMANS
 72
     4
 11
1.409777920826172
 21
0.0112941743272188
 31
0.0
100
AcDbText
  0
TEXT
  5
D1
330
2
100
AcDbEntity
  8
5
 62
     7
100
AcDbText
 10
1.46329119184774
 20
0.1876665674398918
 30
0.0
 40
0.0069680130364964
  1
MAX.
 41
0.9
  7
ROMANS
 72
     4
 11
1.47344458227235
 21
0.19115057395814
 31
0.0
100
AcDbText
  0
TEXT
  5
D2
330
2
100
AcDbEntity
  8
5
 62
     3
100
AcDbText
 10
1.461286379245882
 20
0.1619592619435375
 30
0.0
 40
0.0058066775304137
  1
1.574
 41
0.9
  7
ROMANS
 72
     4
 11
1.471365112387957
 21
0.1648626007087444
 31
0.0
100
AcDbText
  0
TEXT
  5
D3
330
2
100
AcDbEntity
  8
5
 62
     3
100
AcDbText
 10
1.400065247469623
 20
0.1619592619435375
 30
0.0
 40
0.0058066775304137
  1
1.549
 41
0.9
  7
ROMANS
 72
     4
 11
1.409895123003252
 21
0.1648626007087444
 31
0.0
100
AcDbText
  0
TEXT
  5
D4
330
2
100
AcDbEntity
  8
5
 62
     3
100
AcDbText
 10
1.462530667288113
 20
0.1747339525104233
 30
0.0
 40
0.0058066775304137
  1
0.211
 41
0.9
  7
ROMANS
 72
     4
 11
1.471365112387957
 21
0.1776372912756301
 31
0.0
100
AcDbText
  0
TEXT
  5
D5
330
2
100
AcDbEntity
  8
5
 62
     3
100
AcDbText
 10
1.47014426423168
 20
0.1365525039118974
 30
0.0
 40
0.0058066775304137
  1
-
 41
0.9
  7
ROMANS
 72
     4
 11
1.472383982707697
 21
0.1390410799963604
 31
0.0
100
AcDbText
  0
TEXT
  5
D6
330
2
100
AcDbEntity
  8
5
 62
     3
100
AcDbText
 10
1.47014426423168
 20
0.1237778133449832
 30
0.0
 40
0.0058066775304137
  1
-
 41
0.9
  7
ROMANS
 72
     4
 11
1.472383982707697
 21
0.1262663894294462
 31
0.0
100
AcDbText
  0
TEXT
  5
D7
330
2
100
AcDbEntity
  8
5
 62
     3
100
AcDbText
 10
1.47014426423168
 20
0.111003122778069
 30
0.0
 40
0.0058066775304137
  1
-
 41
0.9
  7
ROMANS
 72
     4
 11
1.472383982707697
 21
0.1134916988625321
 31
0.0
100
AcDbText
  0
TEXT
  5
D8
330
2
100
AcDbEntity
  8
5
 62
     3
100
AcDbText
 10
1.47014426423168
 20
0.0982284322111549
 30
0.0
 40
0.0058066775304137
  1
-
 41
0.9
  7
ROMANS
 72
     4
 11
1.472383982707697
 21
0.1007170082956179
 31
0.0
100
AcDbText
  0
TEXT
  5
D9
330
2
100
AcDbEntity
  8
5
 62
     3
100
AcDbText
 10
1.399443103448507
 20
0.1747339525104233
 30
0.0
 40
0.0058066775304137
  1
0.203
 41
0.9
  7
ROMANS
 72
     4
 11
1.409895123003252
 21
0.1776372912756301
 31
0.0
100
AcDbText
  0
TEXT
  5
DA
330
2
100
AcDbEntity
  8
5
 62
     7
100
AcDbText
 10
1.398677106566825
 20
0.1875383997340247
 30
0.0
 40
0.0069680130364964
  1
NOM.
 41
0.9
  7
ROMANS
 72
     4
 11
1.40912912612157
 21
0.1910224062522729
 31
0.0
100
AcDbText
  0
TEXT
  5
DB
330
2
100
AcDbEntity
  8
5
 62
     3
100
AcDbText
 10
1.407538202350155
 20
0.1365525039118974
 30
0.0
 40
0.0058066775304137
  1
-
 41
0.9
  7
ROMANS
 72
     4
 11
1.409777920826172
 21
0.1390410799963604
 31
0.0
100
AcDbText
  0
TEXT
  5
DC
330
2
100
AcDbEntity
  8
5
 62
     3
100
AcDbText
 10
1.407538202350155
 20
0.1237778133449832
 30
0.0
 40
0.0058066775304137
  1
-
 41
0.9
  7
ROMANS
 72
     4
 11
1.409777920826172
 21
0.1262663894294462
 31
0.0
100
AcDbText
  0
TEXT
  5
DD
330
2
100
AcDbEntity
  8
5
 62
     3
100
AcDbText
 10
1.407538202350155
 20
0.111003122778069
 30
0.0
 40
0.0058066775304137
  1
-
 41
0.9
  7
ROMANS
 72
     4
 11
1.409777920826172
 21
0.1134916988625321
 31
0.0
100
AcDbText
  0
TEXT
  5
DE
330
2
100
AcDbEntity
  8
5
 62
     3
100
AcDbText
 10
1.407538202350155
 20
0.0982284322111549
 30
0.0
 40
0.0058066775304137
  1
-
 41
0.9
  7
ROMANS
 72
     4
 11
1.409777920826172
 21
0.1007170082956179
 31
0.0
100
AcDbText
  0
LINE
  5
DF
330
2
100
AcDbEntity
  8
5
 62
     3
100
AcDbLine
 10
1.014654087995495
 20
-0.0970980291430976
 30
0.0
 11
1.501935890987056
 21
-0.0970980291430976
 31
0.0
  0
TEXT
  5
E0
330
2
100
AcDbEntity
  8
5
 62
     3
100
AcDbText
 10
1.461037521637435
 20
0.1491845713766234
 30
0.0
 40
0.0058066775304137
  1
0.279
 41
0.9
  7
ROMANS
 72
     4
 11
1.471365112387957
 21
0.1520879101418302
 31
0.0
100
AcDbText
  0
TEXT
  5
E1
330
2
100
AcDbEntity
  8
5
 62
     3
100
AcDbText
 10
1.456558084685402
 20
0.0597617374082243
 30
0.0
 40
0.0058066775304137
  1
214.986
 41
0.9
  7
ROMANS
 72
     4
 11
1.471365112387957
 21
0.0626650761734311
 31
0.0
100
AcDbText
  0
TEXT
  5
E2
330
2
100
AcDbEntity
  8
5
 62
     3
100
AcDbText
 10
1.459544375986757
 20
0.0469870468413101
 30
0.0
 40
0.0058066775304137
  1
43.231
 41
0.9
  7
ROMANS
 72
     4
 11
1.471365112387957
 21
0.0498903856065169
 31
0.0
100
AcDbText
  0
TEXT
  5
E3
330
2
100
AcDbEntity
  8
5
 62
     3
100
AcDbText
 10
1.458922231965642
 20
0.0342123562743959
 30
0.0
 40
0.0058066775304137
  1
13.487
 41
0.9
  7
ROMANS
 72
     4
 11
1.471365112387957
 21
0.0371156950396028
 31
0.0
100
AcDbText
  0
TEXT
  5
E4
330
2
100
AcDbEntity
  8
5
 62
     3
100
AcDbText
 10
1.457553515119187
 20
0.0214376657074818
 30
0.0
 40
0.0058066775304137
  1
201.981
 41
0.9
  7
ROMANS
 72
     4
 11
1.471365112387957
 21
0.0243410044726886
 31
0.0
100
AcDbText
  0
TEXT
  5
E5
330
2
100
AcDbEntity
  8
5
 62
     3
100
AcDbText
 10
1.33349367711177
 20
0.0214376657074818
 30
0.0
 40
0.0058066775304137
  1
201.880
 41
0.9
  7
ROMANS
 72
     4
 11
1.348425133618547
 21
0.0243410044726886
 31
0.0
100
AcDbText
  0
TEXT
  5
E6
330
2
100
AcDbEntity
  8
5
 62
     3
100
AcDbText
 10
1.335982253196232
 20
0.0342123562743959
 30
0.0
 40
0.0058066775304137
  1
13.437
 41
0.9
  7
ROMANS
 72
     4
 11
1.348425133618547
 21
0.0371156950396028
 31
0.0
100
AcDbText
  0
TEXT
  5
E7
330
2
100
AcDbEntity
  8
5
 62
     3
100
AcDbText
 10
1.336106682000456
 20
0.0469870468413101
 30
0.0
 40
0.0058066775304137
  1
43.129
 41
0.9
  7
ROMANS
 72
     4
 11
1.348425133618547
 21
0.0498903856065169
 31
0.0
100
AcDbText
  0
TEXT
  5
E8
330
2
100
AcDbEntity
  8
5
 62
     3
100
AcDbText
 10
1.33349367711177
 20
0.0597617374082243
 30
0.0
 40
0.0058066775304137
  1
214.782
 41
0.9
  7
ROMANS
 72
     4
 11
1.348425133618547
 21
0.0626650761734311
 31
0.0
100
AcDbText
  0
TEXT
  5
E9
330
2
100
AcDbEntity
  8
5
 62
     3
100
AcDbText
 10
1.394839237692251
 20
0.0597617374082243
 30
0.0
 40
0.0058066775304137
  1
214.884
 41
0.9
  7
ROMANS
 72
     4
 11
1.409895123003252
 21
0.0626650761734311
 31
0.0
100
AcDbText
  0
TEXT
  5
EA
330
2
100
AcDbEntity
  8
5
 62
     3
100
AcDbText
 10
1.397452242580937
 20
0.0469870468413101
 30
0.0
 40
0.0058066775304137
  1
43.180
 41
0.9
  7
ROMANS
 72
     4
 11
1.409895123003252
 21
0.0498903856065169
 31
0.0
100
AcDbText
  0
TEXT
  5
EB
330
2
100
AcDbEntity
  8
5
 62
     3
100
AcDbText
 10
1.397452242580937
 20
0.0342123562743959
 30
0.0
 40
0.0058066775304137
  1
13.462
 41
0.9
  7
ROMANS
 72
     4
 11
1.409895123003252
 21
0.0371156950396028
 31
0.0
100
AcDbText
  0
TEXT
  5
EC
330
2
100
AcDbEntity
  8
5
 62
     3
100
AcDbText
 10
1.394963666496474
 20
0.0214376657074818
 30
0.0
 40
0.0058066775304137
  1
201.930
 41
0.9
  7
ROMANS
 72
     4
 11
1.409895123003252
 21
0.0243410044726886
 31
0.0
100
AcDbText
  0
TEXT
  5
ED
330
2
100
AcDbEntity
  8
5
 62
     3
100
AcDbText
 10
1.338470829280695
 20
0.1364098808097092
 30
0.0
 40
0.0058066775304137
  1
0.163
 41
0.9
  7
ROMANS
 72
     4
 11
1.348425133618547
 21
0.139313219574916
 31
0.0
100
AcDbText
  0
TEXT
  5
EE
330
2
100
AcDbEntity
  8
5
 62
     3
100
AcDbText
 10
1.338097542868026
 20
0.1491845713766234
 30
0.0
 40
0.0058066775304137
  1
0.229
 41
0.9
  7
ROMANS
 72
     4
 11
1.348425133618547
 21
0.1520879101418302
 31
0.0
100
AcDbText
  0
TEXT
  5
EF
330
2
100
AcDbEntity
  8
5
 62
     3
100
AcDbText
 10
1.399318674644284
 20
0.1491845713766234
 30
0.0
 40
0.0058066775304137
  1
0.254
 41
0.9
  7
ROMANS
 72
     4
 11
1.409895123003252
 21
0.1520879101418302
 31
0.0
100
AcDbText
  0
TEXT
  5
F0
330
2
100
AcDbEntity
  8
5
 62
     3
100
AcDbText
 10
1.230831268296532
 20
-0.0808179352088691
 30
0.0
 40
0.0058066775304137
  1
2     5. THICKNESS: MIN 150 MICROINCHES
 41
0.9
  7
ROMANS
 72
     4
 11
1.320295578532977
 21
-0.0779145964436623
 31
0.0
100
AcDbText
  0
TEXT
  5
F1
330
2
100
AcDbEntity
  8
5
 62
     3
100
AcDbText
 10
1.396449020947508
 20
-0.1574079098417362
 30
0.0
 40
0.0058066775304137
  1
%%p0.102
 41
0.9
  7
ROMANS
 72
     4
 11
1.409638474195162
 21
-0.1545045710765294
 31
0.0
100
AcDbText
  0
TEXT
  5
F2
330
2
100
AcDbEntity
  8
5
 62
     3
100
AcDbText
 10
1.462431178506964
 20
-0.1829572909756214
 30
0.0
 40
0.0058066775304137
  1
0.038
 41
0.9
  7
ROMANS
 72
     4
 11
1.472883198061708
 21
-0.1800539522104145
 31
0.0
100
AcDbText
  0
TEXT
  5
F3
330
2
100
AcDbEntity
  8
5
 62
     3
100
AcDbText
 10
1.462928893723856
 20
-0.119083838141079
 30
0.0
 40
0.0058066775304137
  1
0.152
 41
0.9
  7
ROMANS
 72
     4
 11
1.472883198061708
 21
-0.1161804993758722
 31
0.0
100
AcDbText
  0
TEXT
  5
F4
330
2
100
AcDbEntity
  8
5
 62
     3
100
AcDbText
 10
1.462431178506964
 20
-0.2468307438101637
 30
0.0
 40
0.0058066775304137
  1
0.635
 41
0.9
  7
ROMANS
 72
     4
 11
1.472883198061708
 21
-0.2439274050449569
 31
0.0
100
AcDbText
  0
TEXT
  5
F5
330
2
100
AcDbEntity
  8
5
 62
     3
100
AcDbText
 10
1.4432061501164
 20
-0.1953172188617917
 30
0.0
 40
0.0058066775304137
  1
 0.051/2.540
 41
0.9
  7
ROMANS
 72
     4
 11
1.471824775087725
 21
-0.1928286427773287
 31
0.0
100
AcDbText
  0
TEXT
  5
F6
330
2
100
AcDbEntity
  8
5
 62
     3
100
AcDbText
 10
1.447676505182121
 20
-0.1697678377279634
 30
0.0
 40
0.0058066775304137
  1
0.013/2.540
 41
0.9
  7
ROMANS
 72
     4
 11
1.471566835592966
 21
-0.1672792616435004
 31
0.0
100
AcDbText
  0
TEXT
  5
F7
330
2
100
AcDbEntity
  8
5
 62
     3
100
AcDbText
 10
1.463551037744972
 20
-0.2212813626763638
 30
0.0
 40
0.0058066775304137
  1
0.381
 41
0.9
  7
ROMANS
 72
     4
 11
1.472883198061708
 21
-0.218378023911157
 31
0.0
100
AcDbText
  0
TEXT
  5
F8
330
2
100
AcDbEntity
  8
5
 62
     3
100
AcDbText
 10
1.042148647245667
 20
-0.1190675634464062
 30
0.0
 40
0.0058066775304137
  1
MAXIMUM RADIUS ON ALL CORNERS UNLESS OTHERWISE SPECIFIED
 41
0.9
  7
ROMANS
 72
     4
 11
1.176282898198223
 21
-0.1161642246811994
 31
0.0
100
AcDbText
  0
TEXT
  5
F9
330
2
100
AcDbEntity
  8
5
 62
     3
100
AcDbText
 10
1.040475238945249
 20
-0.2724220950718452
 30
0.0
 40
0.0058066775304137
  1
INTERNAL LEAD TIP DIMENSIONS GIVEN ARE GIVEN VALUES
 41
0.9
  7
ROMANS
 72
     4
 11
1.158682602957242
 21
-0.2695187563066383
 31
0.0
100
AcDbText
  0
TEXT
  5
FA
330
2
100
AcDbEntity
  8
5
 62
     3
100
AcDbText
 10
1.041671454980064
 20
-0.0805714415594565
 30
0.0
 40
0.0058066775304137
  1
PLATING TO BE SILVER, AREA REFER TO SHT    OF
 41
0.9
  7
ROMANS
 72
     4
 11
1.147435938569742
 21
-0.078221119701908
 31
0.0
100
AcDbText
  0
TEXT
  5
FB
330
2
100
AcDbEntity
  8
5
 62
     3
100
AcDbText
 10
1.03978525318954
 20
-0.2849874737767521
 30
0.0
 40
0.0058066775304137
  1
DIMENSION QUADRANT IS TYPICAL FOR QUADRANTS, EXCEPT AS SHOWN
 41
0.9
  7
ROMANS
 72
     4
 11
1.184869238913734
 21
-0.2826371519192037
 31
0.0
100
AcDbText
  0
TEXT
  5
FC
330
2
100
AcDbEntity
  8
5
 62
     3
100
AcDbText
 10
1.042199993045376
 20
-0.2599342792372425
 30
0.0
 40
0.0058066775304137
  1
PART TO BE FREE OF RUST, KINKS, BENDS, WRINKLES, OR SCRATCHES DEEPER THAN
 41
0.9
  7
ROMANS
 72
     4
 11
1.21615146134934
 21
-0.2575839573796941
 31
0.0
100
AcDbText
  0
TEXT
  5
FD
330
2
100
AcDbEntity
  8
5
 62
     3
100
AcDbText
 10
1.040606230033087
 20
-0.2336250158678614
 30
0.0
 40
0.0058066775304137
  1
LEAD TWIST/LEAD TILT
 41
0.9
  7
ROMANS
 72
     4
 11
1.085773885966091
 21
-0.2311364397833984
 31
0.0
100
AcDbText
  0
TEXT
  5
FE
330
2
100
AcDbEntity
  8
5
 62
     3
100
AcDbText
 10
1.042268836708112
 20
-0.2981139761039335
 30
0.0
 40
0.0058066775304137
  1
STRIP NUMBER TO BE ADDED ON STRIP
 41
0.9
  7
ROMANS
 72
     4
 11
1.121903271410928
 21
-0.2952106373387266
 31
0.0
100
AcDbText
  0
TEXT
  5
FF
330
2
100
AcDbEntity
  8
5
 62
     3
100
AcDbText
 10
1.041099389745805
 20
-0.2468144691155194
 30
0.0
 40
0.0058066775304137
  1
FRAME TWIST
 41
0.9
  7
ROMANS
 72
     4
 11
1.066856152219997
 21
-0.2439111303503125
 31
0.0
100
AcDbText
  0
TEXT
  5
100
330
2
100
AcDbEntity
  8
5
 62
     3
100
AcDbText
 10
1.040167979659377
 20
-0.1573916351471487
 30
0.0
 40
0.0058066775304137
  1
LEAD TIP PLANARITY FROM DAM BAR
 41
0.9
  7
ROMANS
 72
     4
 11
1.114949690997491
 21
-0.1544882963819418
 31
0.0
100
AcDbText
  0
TEXT
  5
101
330
2
100
AcDbEntity
  8
5
 62
     3
100
AcDbText
 10
1.041722964695365
 20
-0.182941016280977
 30
0.0
 40
0.0058066775304137
  1
CAMBER
 41
0.9
  7
ROMANS
 72
     4
 11
1.056778850006367
 21
-0.1800376775157701
 31
0.0
100
AcDbText
  0
TEXT
  5
102
330
2
100
AcDbEntity
  8
5
 62
     3
100
AcDbText
 10
1.041280616634202
 20
-0.1957157068478627
 30
0.0
 40
0.0058066775304137
  1
PAD TILT
 41
0.9
  7
ROMANS
 72
     4
 11
1.058700649225443
 21
-0.1928123680826559
 31
0.0
100
AcDbText
  0
TEXT
  5
103
330
2
100
AcDbEntity
  8
5
 62
     3
100
AcDbText
 10
1.042216608922724
 20
-0.221265087981691
 30
0.0
 40
0.0058066775304137
  1
CROSS BOW
 41
0.9
  7
ROMANS
 72
     4
 11
1.06536036650823
 21
-0.2183617492164842
 31
0.0
100
AcDbText
  0
TEXT
  5
104
330
2
100
AcDbEntity
  8
5
 62
     3
100
AcDbText
 10
1.041602196387076
 20
-0.1315729284153795
 30
0.0
 40
0.0058066775304137
  1
VERTICAL BURR
 41
0.9
  7
ROMANS
 72
     4
 11
1.071838395813301
 21
-0.1286695896501726
 31
0.0
100
AcDbText
  0
TEXT
  5
105
330
2
100
AcDbEntity
  8
5
 62
     3
100
AcDbText
 10
1.041619740176727
 20
-0.1446169445802345
 30
0.0
 40
0.0058066775304137
  1
HORIZONTAL BURR
 41
0.9
  7
ROMANS
 72
     4
 11
1.077828522205663
 21
-0.1417136058150277
 31
0.0
100
AcDbText
  0
TEXT
  5
106
330
2
100
AcDbEntity
  8
5
 62
     3
100
AcDbText
 10
1.040905160677172
 20
-0.1697821533469996
 30
0.0
 40
0.0058066775304137
  1
PAD FLATNESS
 41
0.9
  7
ROMANS
 72
     4
 11
1.069897072061166
 21
-0.1668788145817928
 31
0.0
100
AcDbText
  0
TEXT
  5
107
330
2
100
AcDbEntity
  8
5
 62
     3
100
AcDbText
 10
1.040262698873421
 20
-0.2088219966330759
 30
0.0
 40
0.0058066775304137
  1
PAD PLANARITY
 41
0.9
  7
ROMANS
 72
     4
 11
1.071369899929209
 21
-0.2059186578678691
 31
0.0
100
AcDbText
  0
TEXT
  5
108
330
2
100
AcDbEntity
  8
5
 62
     3
100
AcDbText
 10
1.041172322233705
 20
0.1364261555043536
 30
0.0
 40
0.0058066775304137
  1
LEAD TIP FLAT WIDTH
 41
0.9
  7
ROMANS
 72
     4
 11
1.083851402082245
 21
0.1393294942695604
 31
0.0
100
AcDbText
  0
TEXT
  5
109
330
2
100
AcDbEntity
  8
5
 62
     3
100
AcDbText
 10
1.040280621566996
 20
-0.0294600022231212
 30
0.0
 40
0.0058066775304137
  1
PLATING AREA (PAD CENTER REF.) : XR
 41
0.9
  7
ROMANS
 72
     4
 11
1.121905917137382
 21
-0.0269714261386582
 31
0.0
100
AcDbText
  0
TEXT
  5
10A
330
2
100
AcDbEntity
  8
5
 62
     3
100
AcDbText
 10
1.042087308222553
 20
0.0470033215359545
 30
0.0
 40
0.0058066775304137
  1
STRIP WIDTH
 41
0.9
  7
ROMANS
 72
     4
 11
1.065977638633398
 21
0.0499066603011613
 31
0.0
100
AcDbText
  0
TEXT
  5
10B
330
2
100
AcDbEntity
  8
5
 62
     3
100
AcDbText
 10
1.041930514169427
 20
0.0342286309690403
 30
0.0
 40
0.0058066775304137
  1
UNIT PITCH
 41
0.9
  7
ROMANS
 72
     4
 11
1.063207839691585
 21
0.0371319697342472
 31
0.0
100
AcDbText
  0
TEXT
  5
10C
330
2
100
AcDbEntity
  8
5
 62
     3
100
AcDbText
 10
1.042006834067427
 20
-0.0172510518263484
 30
0.0
 40
0.0058066775304137
  1
COIL SET
 41
0.9
  7
ROMANS
 72
     4
 11
1.059426866658668
 21
-0.0143477130611416
 31
0.0
100
AcDbText
  0
TEXT
  5
10D
330
2
100
AcDbEntity
  8
5
 62
     3
100
AcDbText
 10
1.041762107507066
 20
0.0597780121028686
 30
0.0
 40
0.0058066775304137
  1
STRIP LENGTH
 41
0.9
  7
ROMANS
 72
     4
 11
1.068887586827713
 21
0.0626813508680755
 31
0.0
100
AcDbText
  0
TEXT
  5
10E
330
2
100
AcDbEntity
  8
5
 62
     3
100
AcDbText
 10
1.041133950449631
 20
0.0214065567219573
 30
0.0
 40
0.0058066775304137
  1
CUMULATIVE PITCH
 41
0.9
  7
ROMANS
 72
     4
 11
1.077716018891237
 21
0.0243098954871641
 31
0.0
100
AcDbText
  0
TEXT
  5
10F
330
2
100
AcDbEntity
  8
5
 62
     3
100
AcDbText
 10
1.041261185432954
 20
-0.0044973905998508
 30
0.0
 40
0.0058066775304137
  1
MISALIGNMENT
 41
0.9
  7
ROMANS
 72
     4
 11
1.068759951166271
 21
-0.001594051834644
 31
0.0
100
AcDbText
  0
TEXT
  5
110
330
2
100
AcDbEntity
  8
5
 62
     3
100
AcDbText
 10
1.041789241845209
 20
0.0090357676934867
 30
0.0
 40
0.0058066775304137
  1
LOCK/ANCHOR HOLE
 41
0.9
  7
ROMANS
 72
     4
 11
1.082353032021956
 21
0.0115243437779498
 31
0.0
100
AcDbText
  0
TEXT
  5
111
330
2
100
AcDbEntity
  8
5
 62
     3
100
AcDbText
 10
1.186449922466082
 20
-0.0683197071224688
 30
0.0
 40
0.0058066775304137
  1
: YL
 41
0.9
  7
ROMANS
 72
     4
 11
1.19466222354481
 21
-0.065416368357262
 31
0.0
100
AcDbText
  0
TEXT
  5
112
330
2
100
AcDbEntity
  8
5
 62
     3
100
AcDbText
 10
1.186201064857636
 20
-0.0551221424959172
 30
0.0
 40
0.0058066775304137
  1
: YH
 41
0.9
  7
ROMANS
 72
     4
 11
1.19466222354481
 21
-0.0522188037307103
 31
0.0
100
AcDbText
  0
TEXT
  5
113
330
2
100
AcDbEntity
  8
5
 62
     3
100
AcDbText
 10
1.186449922466082
 20
-0.0430722578705618
 30
0.0
 40
0.0058066775304137
  1
: XL
 41
0.9
  7
ROMANS
 72
     4
 11
1.19466222354481
 21
-0.0401689191053549
 31
0.0
100
AcDbText
  0
TEXT
  5
114
330
2
100
AcDbEntity
  8
5
 62
     3
100
AcDbText
 10
1.040378925012311
 20
0.0981020838036111
 30
0.0
 40
0.0058066775304137
  1
MIN. LEAD SPACE AFTER PLATE
 41
0.9
  7
ROMANS
 72
     4
 11
1.103962043970341
 21
0.1010054225688179
 31
0.0
100
AcDbText
  0
TEXT
  5
115
330
2
100
AcDbEntity
  8
5
 62
     3
100
AcDbText
 10
1.040875858066413
 20
0.1236514649374394
 30
0.0
 40
0.0058066775304137
  1
M TO M CLEARANCE AFTER ETCH
 41
0.9
  7
ROMANS
 72
     4
 11
1.107694125934244
 21
0.1265548037026463
 31
0.0
100
AcDbText
  0
TEXT
  5
116
330
2
100
AcDbEntity
  8
5
 62
     3
100
AcDbText
 10
1.041571184907804
 20
0.1622448622361228
 30
0.0
 40
0.0058066775304137
  1
PILOT HOLE DIAMETER
 41
0.9
  7
ROMANS
 72
     4
 11
1.084996837581684
 21
0.1651482010013296
 31
0.0
100
AcDbText
  0
TEXT
  5
117
330
2
100
AcDbEntity
  8
5
 62
     3
100
AcDbText
 10
1.040193177896012
 20
0.1747502272050961
 30
0.0
 40
0.0058066775304137
  1
MATERIAL THICKNESS - 
 41
0.9
  7
ROMANS
 72
     4
 11
1.090586843606388
 21
0.1776535659703029
 31
0.0
100
AcDbText
  0
TEXT
  5
118
330
2
100
AcDbEntity
  8
5
 62
     3
100
AcDbText
 10
1.04096651464283
 20
0.1492008460712677
 30
0.0
 40
0.0058066775304137
  1
EXTERNAL LEAD WIDTH
 41
0.9
  7
ROMANS
 72
     4
 11
1.085760884163164
 21
0.1521041848364746
 31
0.0
100
AcDbText
  0
TEXT
  5
119
330
2
100
AcDbEntity
  8
5
 62
     3
100
AcDbText
 10
1.041117687050841
 20
0.1108767743705252
 30
0.0
 40
0.0058066775304137
  1
MIN. LEAD SPACE AFTER ETCH
 41
0.9
  7
ROMANS
 72
     4
 11
1.102336658728631
 21
0.1137801131357321
 31
0.0
100
AcDbText
  0
TEXT
  5
11A
330
2
100
AcDbEntity
  8
5
 62
     3
100
AcDbText
 10
1.041426895029423
 20
-0.1066948227476123
 30
0.0
 40
0.0058066775304137
  1
DOWNSET DEPTH
 41
0.9
  7
ROMANS
 72
     4
 11
1.073529526518996
 21
-0.1037914839824054
 31
0.0
100
AcDbText
  0
TEXT
  5
11B
330
2
100
AcDbEntity
  8
5
 62
     3
100
AcDbText
 10
1.340279580092542
 20
-0.1065812871526068
 30
0.0
 40
0.0058066775304137
  1
0.127
 41
0.9
  7
ROMANS
 72
     4
 11
1.350233884430394
 21
-0.1036779483874
 31
0.0
100
AcDbText
  0
TEXT
  5
11C
330
2
100
AcDbEntity
  8
5
 62
     3
100
AcDbText
 10
1.401749569477361
 20
-0.1065812871526068
 30
0.0
 40
0.0058066775304137
  1
0.152
 41
0.9
  7
ROMANS
 72
     4
 11
1.411703873815213
 21
-0.1036779483874
 31
0.0
100
AcDbText
  0
TEXT
  5
11D
330
2
100
AcDbEntity
  8
5
 62
     3
100
AcDbText
 10
1.463219558862065
 20
-0.1065812871526068
 30
0.0
 40
0.0058066775304137
  1
0.178
 41
0.9
  7
ROMANS
 72
     4
 11
1.473173863199917
 21
-0.1036779483874
 31
0.0
100
AcDbText
  0
TEXT
  5
11E
330
2
100
AcDbEntity
  8
5
 62
     3
100
AcDbText
 10
1.138784719355274
 20
0.1743381819106285
 30
0.0
 40
0.0058066775304137
  1
A194 FH
 41
0.9
  7
ROMANS
 72
     4
 11
1.154836035100061
 21
0.1772415206758353
 31
0.0
100
AcDbText
  0
TEXT
  5
11F
330
2
100
AcDbEntity
  8
5
 62
     3
100
AcDbText
 10
1.03676766599241
 20
-0.0929313694456836
 30
0.0
 40
0.0058066775304137
  1
 SEMI-BRIGHT: 0.3~1.0 gam
 41
0.9
  7
ROMANS
 72
     4
 11
1.096617920823746
 21
-0.0909958102688791
 31
0.0
100
AcDbText
  0
TEXT
  5
120
330
2
100
AcDbEntity
  8
5
 62
     3
100
AcDbText
 10
1.023328015344276
 20
0.0853348158838126
 30
0.0
 40
0.0058066775304137
  1
8
 41
0.9
  7
ROMANS
 72
     4
 11
1.0250700186034
 21
0.0882381546490194
 31
0.0
100
AcDbText
  0
TEXT
  5
121
330
2
100
AcDbEntity
  8
5
 62
     3
100
AcDbText
 10
1.021035921158832
 20
-0.1062991309836425
 30
0.0
 40
0.0058066775304137
  1
19
 41
0.9
  7
ROMANS
 72
     4
 11
1.024644356481303
 21
-0.1033957922184356
 31
0.0
100
AcDbText
  0
TEXT
  5
122
330
2
100
AcDbEntity
  8
5
 62
     3
100
AcDbText
 10
1.042765041774298
 20
0.0728841769443956
 30
0.0
 40
0.0058066775304137
  1
PAD SIZE (X,Y) 
 41
0.9
  7
ROMANS
 72
     4
 11
1.075863103697656
 21
0.0753727530288586
 31
0.0
100
AcDbText
  0
LINE
  5
123
330
2
100
AcDbEntity
  8
5
 62
     3
100
AcDbLine
 10
1.014654087995495
 20
0.0945222369730345
 30
0.0
 11
1.501935890987056
 21
0.0945222369730345
 31
0.0
  0
TEXT
  5
124
330
2
100
AcDbEntity
  8
5
 62
     3
100
AcDbText
 10
1.339092973301811
 20
0.0853111185420242
 30
0.0
 40
0.0058066775304137
  1
0.061
 41
0.9
  7
ROMANS
 72
     4
 11
1.348425133618547
 21
0.088214457307231
 31
0.0
100
AcDbText
  0
TEXT
  5
125
330
2
100
AcDbEntity
  8
5
 62
     3
100
AcDbText
 10
1.3999408186654
 20
0.0853111185420242
 30
0.0
 40
0.0058066775304137
  1
0.102
 41
0.9
  7
ROMANS
 72
     4
 11
1.409895123003252
 21
0.088214457307231
 31
0.0
100
AcDbText
  0
TEXT
  5
126
330
2
100
AcDbEntity
  8
5
 62
     3
100
AcDbText
 10
1.461410808050105
 20
0.0853111185420242
 30
0.0
 40
0.0058066775304137
  1
0.142
 41
0.9
  7
ROMANS
 72
     4
 11
1.471365112387957
 21
0.088214457307231
 31
0.0
100
AcDbText
  0
TEXT
  5
127
330
2
100
AcDbEntity
  8
5
 62
     3
100
AcDbText
 10
1.04173116716961
 20
0.0849957940183979
 30
0.0
 40
0.0058066775304137
  1
HALF ETCH DEPTH
 41
0.9
  7
ROMANS
 72
     4
 11
1.077815520394324
 21
0.0878991327836047
 31
0.0
100
AcDbText
  0
TEXT
  5
128
330
2
100
AcDbEntity
  8
5
 62
     3
100
AcDbText
 10
1.448261553540424
 20
-0.0550677391073042
 30
0.0
 40
0.0058066775304137
  1
1.148/1.854
 41
0.9
  7
ROMANS
 72
     4
 11
1.471280882321707
 21
-0.0525791630228412
 31
0.0
100
AcDbText
  0
TEXT
  5
129
330
2
100
AcDbEntity
  8
5
 62
     3
100
AcDbText
 10
1.324977315078725
 20
-0.0550677391073042
 30
0.0
 40
0.0058066775304137
  1
1.422/1.626
 41
0.9
  7
ROMANS
 72
     4
 11
1.348245501468454
 21
-0.0525791630228412
 31
0.0
100
AcDbText
  0
TEXT
  5
12A
330
2
100
AcDbEntity
  8
5
 62
     3
100
AcDbText
 10
1.324983336323717
 20
-0.0304847094381022
 30
0.0
 40
0.0058066775304137
  1
1.577/2.535
 41
0.9
  7
ROMANS
 72
     4
 11
1.348873666734561
 21
-0.0279961333536392
 31
0.0
100
AcDbText
  0
TEXT
  5
12B
330
2
100
AcDbEntity
  8
5
 62
     3
100
AcDbText
 10
1.449043174331134
 20
-0.0304847094381022
 30
0.0
 40
0.0058066775304137
  1
1.379/2.761
 41
0.9
  7
ROMANS
 72
     4
 11
1.471813645503971
 21
-0.0279961333536392
 31
0.0
100
AcDbText
  0
TEXT
  5
12C
330
2
100
AcDbEntity
  8
5
 62
     3
100
AcDbText
 10
1.407538202350155
 20
-0.055067831494856
 30
0.0
 40
0.0058066775304137
  1
-
 41
0.9
  7
ROMANS
 72
     4
 11
1.409777920826172
 21
-0.052579255410393
 31
0.0
100
AcDbText
  0
TEXT
  5
12D
330
2
100
AcDbEntity
  8
5
 62
     3
100
AcDbText
 10
1.407538202350155
 20
-0.0422931409279418
 30
0.0
 40
0.0058066775304137
  1
-
 41
0.9
  7
ROMANS
 72
     4
 11
1.409777920826172
 21
-0.0398045648434788
 31
0.0
100
AcDbText
  0
TEXT
  5
12E
330
2
100
AcDbEntity
  8
5
 62
     3
100
AcDbText
 10
1.407538202350155
 20
-0.0295184503610277
 30
0.0
 40
0.0058066775304137
  1
-
 41
0.9
  7
ROMANS
 72
     4
 11
1.409777920826172
 21
-0.0270298742765647
 31
0.0
100
AcDbText
  0
TEXT
  5
12F
330
2
100
AcDbEntity
  8
5
 62
     3
100
AcDbText
 10
1.407538202350155
 20
-0.0678425451586155
 30
0.0
 40
0.0058066775304137
  1
-
 41
0.9
  7
ROMANS
 72
     4
 11
1.409777920826172
 21
-0.0653539690741525
 31
0.0
100
AcDbText
  0
TEXT
  5
130
330
2
100
AcDbEntity
  8
5
 62
     3
100
AcDbText
 10
1.338097542868026
 20
0.0980858091089667
 30
0.0
 40
0.0058066775304137
  1
0.089
 41
0.9
  7
ROMANS
 72
     4
 11
1.348425133618547
 21
0.1009891478741736
 31
0.0
100
AcDbText
  0
TEXT
  5
131
330
2
100
AcDbEntity
  8
5
 62
     3
100
AcDbText
 10
1.338097542868026
 20
0.1108604996758809
 30
0.0
 40
0.0058066775304137
  1
0.099
 41
0.9
  7
ROMANS
 72
     4
 11
1.348425133618547
 21
0.1137638384410877
 31
0.0
100
AcDbText
  0
TEXT
  5
132
330
2
100
AcDbEntity
  8
5
 62
     3
100
AcDbText
 10
1.338097542868026
 20
0.123635190242795
 30
0.0
 40
0.0058066775304137
  1
0.099
 41
0.9
  7
ROMANS
 72
     4
 11
1.348425133618547
 21
0.1265385290080019
 31
0.0
100
AcDbText
  0
TEXT
  5
133
330
2
100
AcDbEntity
  8
5
 62
     3
100
AcDbText
 10
1.324354387647709
 20
0.0727625100485592
 30
0.0
 40
0.0058066775304137
  1
3.505/2.388
 41
0.9
  7
ROMANS
 72
     4
 11
1.348742433275447
 21
0.0752510861330222
 31
0.0
100
AcDbText
  0
TEXT
  5
134
330
2
100
AcDbEntity
  8
5
 62
     3
100
AcDbText
 10
1.447084410895303
 20
0.0727489286507502
 30
0.0
 40
0.0058066775304137
  1
3.607/2.489
 41
0.9
  7
ROMANS
 72
     4
 11
1.471348027718818
 21
0.0752375047352132
 31
0.0
100
AcDbText
  0
TEXT
  5
135
330
2
100
AcDbEntity
  8
5
 62
     3
100
AcDbText
 10
1.386129041714703
 20
0.0726278451367615
 30
0.0
 40
0.0058066775304137
  1
3.556/2.438
 41
0.9
  7
ROMANS
 72
     4
 11
1.410517087342441
 21
0.0751164212212245
 31
0.0
100
AcDbText
  0
TEXT
  5
136
330
2
100
AcDbEntity
  8
5
 62
     3
100
AcDbText
 10
1.448261553540424
 20
-0.067842383480414
 30
0.0
 40
0.0058066775304137
  1
1.148/1.854
 41
0.9
  7
ROMANS
 72
     4
 11
1.471280882321707
 21
-0.065353807395951
 31
0.0
100
AcDbText
  0
TEXT
  5
137
330
2
100
AcDbEntity
  8
5
 62
     3
100
AcDbText
 10
1.324977315078725
 20
-0.067842383480414
 30
0.0
 40
0.0058066775304137
  1
1.422/1.626
 41
0.9
  7
ROMANS
 72
     4
 11
1.348245501468454
 21
-0.065353807395951
 31
0.0
100
AcDbText
  0
TEXT
  5
138
330
2
100
AcDbEntity
  8
5
 62
     3
100
AcDbText
 10
1.324983336323717
 20
-0.043259353811212
 30
0.0
 40
0.0058066775304137
  1
1.577/2.535
 41
0.9
  7
ROMANS
 72
     4
 11
1.348873666734561
 21
-0.040770777726749
 31
0.0
100
AcDbText
  0
TEXT
  5
139
330
2
100
AcDbEntity
  8
5
 62
     3
100
AcDbText
 10
1.449043174331134
 20
-0.043259353811212
 30
0.0
 40
0.0058066775304137
  1
1.379/2.761
 41
0.9
  7
ROMANS
 72
     4
 11
1.471813645503971
 21
-0.040770777726749
 31
0.0
100
AcDbText
  0
ENDSEC
  0
SECTION
  2
OBJECTS
  0
DICTIONARY
  5
9
330
0
100
AcDbDictionary
281
     1
  3
ACAD_COLOR
350
33
  3
ACAD_GROUP
350
2E
  3
ACAD_LAYOUT
350
F
  3
ACAD_MATERIAL
350
B
  3
ACAD_MLEADERSTYLE
350
36
  3
ACAD_MLINESTYLE
350
2F
  3
ACAD_PLOTSETTINGS
350
30
  3
ACAD_PLOTSTYLENAME
350
8
  3
ACAD_SCALELIST
350
34
  3
ACAD_TABLESTYLE
350
35
  3
ACAD_VISUALSTYLE
350
26
  3
ACDB_RECOMPOSE_DATA
350
13E
  3
AcDbVariableDictionary
350
37
  0
DICTIONARY
  5
28
330
23
100
AcDbDictionary
280
     1
281
     1
  0
DICTIONARY
  5
16
330
15
100
AcDbDictionary
280
     1
281
     1
  3
ACAD_LAYERFILTERS
360
17
  3
ACAD_LAYERSTATES
360
18
  3
ACLYDICTIONARY
360
19
  0
DICTIONARY
  5
3
330
2
100
AcDbDictionary
280
     1
281
     1
  3
ACAD_SORTENTS
360
13A
  0
DICTIONARY
  5
33
102
{ACAD_REACTORS
330
9
102
}
330
9
100
AcDbDictionary
281
     1
  0
DICTIONARY
  5
2E
102
{ACAD_REACTORS
330
9
102
}
330
9
100
AcDbDictionary
281
     1
  0
DICTIONARY
  5
F
102
{ACAD_REACTORS
330
9
102
}
330
9
100
AcDbDictionary
281
     1
  3
Layout1
350
14
  3
Model
350
E
  0
DICTIONARY
  5
B
102
{ACAD_REACTORS
330
9
102
}
330
9
100
AcDbDictionary
281
     1
  3
ByBlock
350
32
  3
ByLayer
350
31
  3
Global
350
A
  0
DICTIONARY
  5
36
102
{ACAD_REACTORS
330
9
102
}
330
9
100
AcDbDictionary
281
     1
  0
DICTIONARY
  5
2F
102
{ACAD_REACTORS
330
9
102
}
330
9
100
AcDbDictionary
281
     1
  3
Standard
350
46
  0
DICTIONARY
  5
30
102
{ACAD_REACTORS
330
9
102
}
330
9
100
AcDbDictionary
281
     1
  0
ACDBDICTIONARYWDFLT
  5
8
102
{ACAD_REACTORS
330
9
102
}
330
9
100
AcDbDictionary
281
     1
  3
Normal
350
7
100
AcDbDictionaryWithDefault
340
7
  0
DICTIONARY
  5
34
102
{ACAD_REACTORS
330
9
102
}
330
9
100
AcDbDictionary
281
     1
  3
A0
350
4A
  3
A1
350
4B
  3
A2
350
4C
  3
A3
350
4D
  3
A4
350
4E
  3
A5
350
4F
  3
A6
350
50
  3
A7
350
51
  3
A8
350
52
  3
A9
350
53
  3
B0
350
54
  3
B1
350
55
  3
B2
350
56
  3
B3
350
57
  3
B4
350
58
  3
B5
350
59
  3
B6
350
5A
  0
DICTIONARY
  5
35
102
{ACAD_REACTORS
330
9
102
}
330
9
100
AcDbDictionary
281
     1
  3
Standard
350
47
  0
DICTIONARY
  5
26
102
{ACAD_REACTORS
330
9
102
}
330
9
100
AcDbDictionary
281
     1
  3
2dWireframe
350
25
  3
Realistic
350
48
  3
Wireframe
350
49
  0
XRECORD
  5
13E
102
{ACAD_REACTORS
330
9
102
}
330
9
100
AcDbXrecord
280
     1
 90
        1
330
47
  0
DICTIONARY
  5
37
102
{ACAD_REACTORS
330
9
102
}
330
9
100
AcDbDictionary
281
     1
  3
CANNOSCALE
350
38
  3
CMLEADERSTYLE
350
39
  3
CTABLESTYLE
350
3A
  3
CVIEWDETAILSTYLE
350
3B
  3
CVIEWSECTIONSTYLE
350
3C
  3
DIMASSOC
350
3D
  3
INDEXCTL
350
3E
  3
LAYEREVAL
350
3F
  3
LAYERNOTIFY
350
40
  3
LIGHTINGUNITS
350
41
  3
MSLTSCALE
350
42
  3
PROJECTNAME
350
43
  3
SORTENTS
350
44
  0
DICTIONARY
  5
17
102
{ACAD_REACTORS
330
16
102
}
330
16
100
AcDbDictionary
281
     1
  0
DICTIONARY
  5
18
102
{ACAD_REACTORS
330
16
102
}
330
16
100
AcDbDictionary
281
     1
  0
DICTIONARY
  5
19
102
{ACAD_REACTORS
330
16
102
}
330
16
100
AcDbDictionary
281
     1
1001
ACAD
1000
<All
  0
SORTENTSTABLE
  5
13A
102
{ACAD_REACTORS
330
3
102
}
330
3
100
AcDbSortentsTable
330
2
  0
LAYOUT
  5
14
102
{ACAD_REACTORS
330
F
102
}
330
F
100
AcDbPlotSettings
  1

  2
HP DeskJet 930C/932C/935C
  4

  6

 40
0.0
 41
0.0
 42
0.0
 43
0.0
 44
0.0
 45
0.0
 46
0.0
 47
0.0
 48
0.0
 49
0.0
140
0.0
141
0.0
142
1.0
143
1.0
 70
   688
 72
     0
 73
     0
 74
     5
  7
black.ctb
 75
    16
147
1.0
 76
     0
 77
     2
 78
   300
148
0.0
149
0.0
100
AcDbLayout
  1
Layout1
 70
     1
 71
     1
 10
0.0
 20
0.0
 11
12.0
 21
9.0
 12
0.0
 22
0.0
 32
0.0
 14
1.000000000000000E+20
 24
1.000000000000000E+20
 34
1.000000000000000E+20
 15
-1.000000000000000E+20
 25
-1.000000000000000E+20
 35
-1.000000000000000E+20
146
0.0
 13
0.0
 23
0.0
 33
0.0
 16
1.0
 26
0.0
 36
0.0
 17
0.0
 27
1.0
 37
0.0
 76
     0
330
11
  0
LAYOUT
  5
E
102
{ACAD_REACTORS
330
F
102
}
330
F
100
AcDbPlotSettings
  1

  2
\\kpc384\hp LaserJet 1010
  4
A4
  6

 40
4.603749752044677
 41
8.032736778259277
 42
5.154098510742187
 43
4.9847412109375
 44
210.0156707763672
 45
297.0106506347656
 46
0.0
 47
2.95
 48
127.5662085622847
 49
142.3500281158103
140
136.3772273578069
141
154.5853048439378
142
1.0
143
0.0439983751192775
 70
 11956
 72
     1
 73
     0
 74
     4
  7
black.ctb
 75
     0
147
22.72811205616225
 76
     0
 77
     2
 78
   300
148
-127.5662085622847
149
-142.3500281158103
100
AcDbLayout
  1
Model
 70
     1
 71
     0
 10
0.0
 20
0.0
 11
12.0
 21
9.0
 12
0.0
 22
0.0
 32
0.0
 14
0.0
 24
0.0
 34
0.0
 15
0.0
 25
0.0
 35
0.0
146
0.0
 13
0.0
 23
0.0
 33
0.0
 16
1.0
 26
0.0
 36
0.0
 17
0.0
 27
1.0
 37
0.0
 76
     0
330
2
331
24
1001
ACAD_PSEXT
1000
\\atsnts34\TJ04
1000
HP LaserJet 5100 PCL 6
1000
2f_CAD Rm
1000
10.8.12.60
1070
     0
  0
MATERIAL
  5
32
102
{ACAD_REACTORS
330
B
102
}
330
B
100
AcDbMaterial
  1
ByBlock
 73
     1
 78
     1
172
     1
176
     1
270
     1
274
     1
 94
       63
  0
MATERIAL
  5
31
102
{ACAD_REACTORS
330
B
102
}
330
B
100
AcDbMaterial
  1
ByLayer
 73
     1
 78
     1
172
     1
176
     1
270
     1
274
     1
 94
       63
  0
MATERIAL
  5
A
102
{ACAD_REACTORS
330
B
102
}
330
B
100
AcDbMaterial
  1
Global
 73
     1
 78
     1
172
     1
176
     1
270
     1
274
     1
 94
       63
  0
MLINESTYLE
  5
46
102
{ACAD_REACTORS
330
2F
102
}
330
2F
100
AcDbMlineStyle
  2
STANDARD
 70
     0
  3

 62
   256
 51
90.0
 52
90.0
 71
     2
 49
0.5
 62
   256
  6
BYLAYER
 49
-0.5
 62
   256
  6
BYLAYER
  0
ACDBPLACEHOLDER
  5
7
102
{ACAD_REACTORS
330
8
102
}
330
8
  0
SCALE
  5
4A
102
{ACAD_REACTORS
330
34
102
}
330
34
100
AcDbScale
 70
     0
300
1:1
140
1.0
141
1.0
290
     1
  0
SCALE
  5
4B
102
{ACAD_REACTORS
330
34
102
}
330
34
100
AcDbScale
 70
     0
300
1/128" = 1'-0"
140
0.0078125
141
12.0
290
     0
  0
SCALE
  5
4C
102
{ACAD_REACTORS
330
34
102
}
330
34
100
AcDbScale
 70
     0
300
1/64" = 1'-0"
140
0.015625
141
12.0
290
     0
  0
SCALE
  5
4D
102
{ACAD_REACTORS
330
34
102
}
330
34
100
AcDbScale
 70
     0
300
1/32" = 1'-0"
140
0.03125
141
12.0
290
     0
  0
SCALE
  5
4E
102
{ACAD_REACTORS
330
34
102
}
330
34
100
AcDbScale
 70
     0
300
1/16" = 1'-0"
140
0.0625
141
12.0
290
     0
  0
SCALE
  5
4F
102
{ACAD_REACTORS
330
34
102
}
330
34
100
AcDbScale
 70
     0
300
3/32" = 1'-0"
140
0.09375
141
12.0
290
     0
  0
SCALE
  5
50
102
{ACAD_REACTORS
330
34
102
}
330
34
100
AcDbScale
 70
     0
300
1/8" = 1'-0"
140
0.125
141
12.0
290
     0
  0
SCALE
  5
51
102
{ACAD_REACTORS
330
34
102
}
330
34
100
AcDbScale
 70
     0
300
3/16" = 1'-0"
140
0.1875
141
12.0
290
     0
  0
SCALE
  5
52
102
{ACAD_REACTORS
330
34
102
}
330
34
100
AcDbScale
 70
     0
300
1/4" = 1'-0"
140
0.25
141
12.0
290
     0
  0
SCALE
  5
53
102
{ACAD_REACTORS
330
34
102
}
330
34
100
AcDbScale
 70
     0
300
3/8" = 1'-0"
140
0.375
141
12.0
290
     0
  0
SCALE
  5
54
102
{ACAD_REACTORS
330
34
102
}
330
34
100
AcDbScale
 70
     0
300
1/2" = 1'-0"
140
0.5
141
12.0
290
     0
  0
SCALE
  5
55
102
{ACAD_REACTORS
330
34
102
}
330
34
100
AcDbScale
 70
     0
300
3/4" = 1'-0"
140
0.75
141
12.0
290
     0
  0
SCALE
  5
56
102
{ACAD_REACTORS
330
34
102
}
330
34
100
AcDbScale
 70
     0
300
1" = 1'-0"
140
1.0
141
12.0
290
     0
  0
SCALE
  5
57
102
{ACAD_REACTORS
330
34
102
}
330
34
100
AcDbScale
 70
     0
300
1-1/2" = 1'-0"
140
1.5
141
12.0
290
     0
  0
SCALE
  5
58
102
{ACAD_REACTORS
330
34
102
}
330
34
100
AcDbScale
 70
     0
300
3" = 1'-0"
140
3.0
141
12.0
290
     0
  0
SCALE
  5
59
102
{ACAD_REACTORS
330
34
102
}
330
34
100
AcDbScale
 70
     0
300
6" = 1'-0"
140
6.0
141
12.0
290
     0
  0
SCALE
  5
5A
102
{ACAD_REACTORS
330
34
102
}
330
34
100
AcDbScale
 70
     0
300
1'-0" = 1'-0"
140
12.0
141
12.0
290
     0
  0
TABLESTYLE
  5
47
102
{ACAD_XDICTIONARY
360
13C
102
}
102
{ACAD_REACTORS
330
35
102
}
330
35
100
AcDbTableStyle
280
     0
  3
Standard
 70
     0
 71
     0
 40
0.06
 41
0.06
280
     0
281
     0
  7
Standard
140
0.18
170
     2
 62
     0
 63
     7
283
     0
 90
        4
 91
        0
  1

274
    -2
284
     1
 64
     0
275
    -2
285
     1
 65
     0
276
    -2
286
     1
 66
     0
277
    -2
287
     1
 67
     0
278
    -2
288
     1
 68
     0
279
    -2
289
     1
 69
     0
  7
Standard
140
0.25
170
     5
 62
     0
 63
     7
283
     0
 90
        4
 91
        0
  1

274
    -2
284
     1
 64
     0
275
    -2
285
     1
 65
     0
276
    -2
286
     1
 66
     0
277
    -2
287
     1
 67
     0
278
    -2
288
     1
 68
     0
279
    -2
289
     1
 69
     0
  7
Standard
140
0.18
170
     5
 62
     0
 63
     7
283
     0
 90
        4
 91
        0
  1

274
    -2
284
     1
 64
     0
275
    -2
285
     1
 65
     0
276
    -2
286
     1
 66
     0
277
    -2
287
     1
 67
     0
278
    -2
288
     1
 68
     0
279
    -2
289
     1
 69
     0
  0
VISUALSTYLE
  5
25
102
{ACAD_REACTORS
330
26
102
}
330
26
100
AcDbVisualStyle
  2
2dWireframe
 70
     4
177
     3
291
     0
 70
    58
 90
        0
176
     1
 90
        2
176
     1
 90
        0
176
     1
 90
        0
176
     1
 40
0.6
176
     1
 40
30.0
176
     1
 62
     7
176
     1
 90
        1
176
     1
 90
        4
176
     1
 62
     7
176
     1
 62
   257
176
     1
 90
        1
176
     1
 90
        1
176
     1
 40
1.0
176
     1
 90
        0
176
     1
 62
   257
176
     1
 40
1.0
176
     1
 90
        1
176
     1
 90
        6
176
     1
 90
        2
176
     1
 62
     7
176
     1
 90
        5
176
     1
 90
        0
176
     1
 90
        0
176
     1
290
     0
176
     1
 90
        1
176
     1
 40
0.0
176
     1
 90
        0
176
     1
290
     1
176
     1
290
     1
176
     1
290
     0
176
     1
290
     0
176
     1
290
     0
176
     1
290
     0
176
     1
290
     0
176
     1
290
     0
176
     1
290
     0
176
     1
 90
       50
176
     1
 40
0.0
176
     1
 40
1.0
176
     1
 90
        0
176
     1
 62
    18
420
        0
176
     1
 90
       50
176
     1
 90
        3
176
     1
 62
     5
420
      255
176
     1
290
     0
176
     1
 90
       50
176
     1
 90
       50
176
     1
 90
       50
176
     1
290
     0
176
     1
 90
       50
176
     1
 62
   256
176
     0
 40
1.0
176
     0
 90
        2
176
     1
  1
strokes_ogs.tif
176
     1
290
     0
176
     1
 40
1.0
176
     1
 40
1.0
176
     1
1001
ACAD
1000
AcRTDxfName
1000
VISUALSTYLE
1000
AcRTDxfName
1000
VISUALSTYLE
1000
AcRTDxfName
1000
VISUALSTYLE
1000
AcRTDxfName
1000
VISUALSTYLE
1000
AcRTDxfName
1000
VISUALSTYLE
1000
AcRTDxfName
1000
VISUALSTYLE
1000
AcRTDxfName
1000
VISUALSTYLE
1000
AcRTDxfName
1000
VISUALSTYLE
1000
AcRTDxfName
1000
VISUALSTYLE
1000
AcRTDxfName
1000
VISUALSTYLE
1000
AcRTDxfName
1000
VISUALSTYLE
  0
VISUALSTYLE
  5
48
102
{ACAD_REACTORS
330
26
102
}
330
26
100
AcDbVisualStyle
  2
Realistic
 70
     8
177
     3
291
     0
 70
    58
 90
        2
176
     1
 90
        2
176
     1
 90
        0
176
     1
 90
        0
176
     1
 40
0.6
176
     1
 40
30.0
176
     1
 62
     7
176
     1
 90
        1
176
     1
 90
        0
176
     1
 62
     7
176
     1
 62
   257
176
     1
 90
        1
176
     1
 90
        1
176
     1
 40
1.0
176
     1
 90
        8
176
     1
 62
     8
176
     1
 40
1.0
176
     1
 90
        1
176
     1
 90
        6
176
     1
 90
        2
176
     1
 62
     7
176
     1
 90
        5
176
     1
 90
        0
176
     1
 90
        0
176
     1
290
     0
176
     1
 90
       13
176
     1
 40
0.0
176
     1
 90
        0
176
     1
290
     0
176
     1
290
     1
176
     1
290
     1
176
     1
290
     0
176
     1
290
     0
176
     1
290
     0
176
     1
290
     0
176
     1
290
     0
176
     1
290
     0
176
     1
 90
       50
176
     1
 40
0.0
176
     1
 40
1.0
176
     1
 90
        0
176
     1
 62
    18
420
        0
176
     1
 90
       50
176
     1
 90
        3
176
     1
 62
     5
420
      255
176
     1
290
     0
176
     1
 90
       50
176
     1
 90
       50
176
     1
 90
       50
176
     1
290
     0
176
     1
 90
       50
176
     1
 62
   256
176
     0
 40
1.0
176
     0
 90
        2
176
     1
  1
strokes_ogs.tif
176
     1
290
     0
176
     1
 40
1.0
176
     1
 40
1.0
176
     1
1001
ACAD
1000
AcRTDxfName
1000
VISUALSTYLE
1000
AcRTDxfName
1000
VISUALSTYLE
1000
AcRTDxfName
1000
VISUALSTYLE
1000
AcRTDxfName
1000
VISUALSTYLE
1000
AcRTDxfName
1000
VISUALSTYLE
1000
AcRTDxfName
1000
VISUALSTYLE
1000
AcRTDxfName
1000
VISUALSTYLE
1000
AcRTDxfName
1000
VISUALSTYLE
1000
AcRTDxfName
1000
VISUALSTYLE
1000
AcRTDxfName
1000
VISUALSTYLE
1000
AcRTDxfName
1000
VISUALSTYLE
  0
VISUALSTYLE
  5
49
102
{ACAD_REACTORS
330
26
102
}
330
26
100
AcDbVisualStyle
  2
Wireframe
 70
     5
177
     3
291
     0
 70
    58
 90
        0
176
     1
 90
        2
176
     1
 90
        0
176
     1
 90
        0
176
     1
 40
0.6
176
     1
 40
30.0
176
     1
 62
     7
420
 16777215
176
     1
 90
        1
176
     1
 90
        4
176
     1
 62
     7
176
     1
 62
   257
176
     1
 90
        1
176
     1
 90
        1
176
     1
 40
1.0
176
     1
 90
        0
176
     1
 62
   257
176
     1
 40
1.0
176
     1
 90
        1
176
     1
 90
        6
176
     1
 90
        2
176
     1
 62
     7
176
     1
 90
        3
176
     1
 90
        0
176
     1
 90
        0
176
     1
290
     0
176
     1
 90
        1
176
     1
 40
0.0
176
     1
 90
        0
176
     1
290
     0
176
     1
290
     1
176
     1
290
     1
176
     1
290
     0
176
     1
290
     0
176
     1
290
     0
176
     1
290
     0
176
     1
290
     0
176
     1
290
     0
176
     1
 90
       50
176
     1
 40
0.0
176
     1
 40
1.0
176
     1
 90
        0
176
     1
 62
    18
420
        0
176
     1
 90
       50
176
     1
 90
        3
176
     1
 62
     5
420
      255
176
     1
290
     0
176
     1
 90
       50
176
     1
 90
       50
176
     1
 90
       50
176
     1
290
     0
176
     1
 90
       50
176
     1
 62
   256
176
     0
 40
1.0
176
     0
 90
        2
176
     1
  1
strokes_ogs.tif
176
     1
290
     0
176
     1
 40
1.0
176
     1
 40
1.0
176
     1
  0
DICTIONARYVAR
  5
38
102
{ACAD_REACTORS
330
37
102
}
330
37
100
DictionaryVariables
280
     0
  1
1:1
  0
DICTIONARYVAR
  5
39
102
{ACAD_REACTORS
330
37
102
}
330
37
100
DictionaryVariables
280
     0
  1
STANDARD
  0
DICTIONARYVAR
  5
3A
102
{ACAD_REACTORS
330
37
102
}
330
37
100
DictionaryVariables
280
     0
  1
STANDARD
  0
DICTIONARYVAR
  5
3B
102
{ACAD_REACTORS
330
37
102
}
330
37
100
DictionaryVariables
280
     0
  1

  0
DICTIONARYVAR
  5
3C
102
{ACAD_REACTORS
330
37
102
}
330
37
100
DictionaryVariables
280
     0
  1

  0
DICTIONARYVAR
  5
3D
102
{ACAD_REACTORS
330
37
102
}
330
37
100
DictionaryVariables
280
     0
  1
0
  0
DICTIONARYVAR
  5
3E
102
{ACAD_REACTORS
330
37
102
}
330
37
100
DictionaryVariables
280
     0
  1
0
  0
DICTIONARYVAR
  5
3F
102
{ACAD_REACTORS
330
37
102
}
330
37
100
DictionaryVariables
280
     0
  1
1
  0
DICTIONARYVAR
  5
40
102
{ACAD_REACTORS
330
37
102
}
330
37
100
DictionaryVariables
280
     0
  1
15
  0
DICTIONARYVAR
  5
41
102
{ACAD_REACTORS
330
37
102
}
330
37
100
DictionaryVariables
280
     0
  1
0
  0
DICTIONARYVAR
  5
42
102
{ACAD_REACTORS
330
37
102
}
330
37
100
DictionaryVariables
280
     0
  1
0
  0
DICTIONARYVAR
  5
43
102
{ACAD_REACTORS
330
37
102
}
330
37
100
DictionaryVariables
280
     0
  1

  0
DICTIONARYVAR
  5
44
102
{ACAD_REACTORS
330
37
102
}
330
37
100
DictionaryVariables
280
     0
  1
127
  0
DICTIONARY
  5
13C
330
47
100
AcDbDictionary
280
     1
281
     1
  3
ACAD_ROUNDTRIP_2008_TABLESTYLE_CELLSTYLEMAP
360
13D
  0
CELLSTYLEMAP
  5
13D
102
{ACAD_REACTORS
330
13C
102
}
330
13C
100
AcDbCellStyleMap
 90
        3
300
CELLSTYLE
  1
TABLEFORMAT_BEGIN
 90
        5
170
     1
 91
        0
 92
    32768
 62
   257
 93
        1
300
CONTENTFORMAT
  1
CONTENTFORMAT_BEGIN
 90
        0
 91
        0
 92
        4
 93
        0
300

 40
0.0
140
1.0
 94
        5
 62
     0
340
1C
144
0.25
309
CONTENTFORMAT_END
171
     0
 94
        6
 95
        1
302
GRIDFORMAT
  1
GRIDFORMAT_BEGIN
 90
        0
 91
        1
 62
     0
 92
       -2
340
0
 93
        0
 40
0.045
309
GRIDFORMAT_END
 95
        2
302
GRIDFORMAT
  1
GRIDFORMAT_BEGIN
 90
        0
 91
        1
 62
     0
 92
       -2
340
0
 93
        0
 40
0.045
309
GRIDFORMAT_END
 95
        4
302
GRIDFORMAT
  1
GRIDFORMAT_BEGIN
 90
        0
 91
        1
 62
     0
 92
       -2
340
0
 93
        0
 40
0.045
309
GRIDFORMAT_END
 95
        8
302
GRIDFORMAT
  1
GRIDFORMAT_BEGIN
 90
        0
 91
        1
 62
     0
 92
       -2
340
0
 93
        0
 40
0.045
309
GRIDFORMAT_END
 95
       16
302
GRIDFORMAT
  1
GRIDFORMAT_BEGIN
 90
        0
 91
        1
 62
     0
 92
       -2
340
0
 93
        0
 40
0.045
309
GRIDFORMAT_END
 95
       32
302
GRIDFORMAT
  1
GRIDFORMAT_BEGIN
 90
        0
 91
        1
 62
     0
 92
       -2
340
0
 93
        0
 40
0.045
309
GRIDFORMAT_END
309
TABLEFORMAT_END
  1
CELLSTYLE_BEGIN
 90
        1
 91
        1
300
_TITLE
309
CELLSTYLE_END
300
CELLSTYLE
  1
TABLEFORMAT_BEGIN
 90
        5
170
     1
 91
        0
 92
        0
 62
   257
 93
        1
300
CONTENTFORMAT
  1
CONTENTFORMAT_BEGIN
 90
        0
 91
        0
 92
        4
 93
        0
300

 40
0.0
140
1.0
 94
        5
 62
     0
340
1C
144
0.18
309
CONTENTFORMAT_END
171
     0
 94
        6
 95
        1
302
GRIDFORMAT
  1
GRIDFORMAT_BEGIN
 90
        0
 91
        1
 62
     0
 92
       -2
340
0
 93
        0
 40
0.045
309
GRIDFORMAT_END
 95
        2
302
GRIDFORMAT
  1
GRIDFORMAT_BEGIN
 90
        0
 91
        1
 62
     0
 92
       -2
340
0
 93
        0
 40
0.045
309
GRIDFORMAT_END
 95
        4
302
GRIDFORMAT
  1
GRIDFORMAT_BEGIN
 90
        0
 91
        1
 62
     0
 92
       -2
340
0
 93
        0
 40
0.045
309
GRIDFORMAT_END
 95
        8
302
GRIDFORMAT
  1
GRIDFORMAT_BEGIN
 90
        0
 91
        1
 62
     0
 92
       -2
340
0
 93
        0
 40
0.045
309
GRIDFORMAT_END
 95
       16
302
GRIDFORMAT
  1
GRIDFORMAT_BEGIN
 90
        0
 91
        1
 62
     0
 92
       -2
340
0
 93
        0
 40
0.045
309
GRIDFORMAT_END
 95
       32
302
GRIDFORMAT
  1
GRIDFORMAT_BEGIN
 90
        0
 91
        1
 62
     0
 92
       -2
340
0
 93
        0
 40
0.045
309
GRIDFORMAT_END
309
TABLEFORMAT_END
  1
CELLSTYLE_BEGIN
 90
        2
 91
        1
300
_HEADER
309
CELLSTYLE_END
300
CELLSTYLE
  1
TABLEFORMAT_BEGIN
 90
        5
170
     1
 91
        0
 92
        0
 62
   257
 93
        1
300
CONTENTFORMAT
  1
CONTENTFORMAT_BEGIN
 90
        0
 91
        0
 92
        4
 93
        0
300

 40
0.0
140
1.0
 94
        2
 62
     0
340
1C
144
0.18
309
CONTENTFORMAT_END
171
     0
 94
        6
 95
        1
302
GRIDFORMAT
  1
GRIDFORMAT_BEGIN
 90
        0
 91
        1
 62
     0
 92
       -2
340
0
 93
        0
 40
0.045
309
GRIDFORMAT_END
 95
        2
302
GRIDFORMAT
  1
GRIDFORMAT_BEGIN
 90
        0
 91
        1
 62
     0
 92
       -2
340
0
 93
        0
 40
0.045
309
GRIDFORMAT_END
 95
        4
302
GRIDFORMAT
  1
GRIDFORMAT_BEGIN
 90
        0
 91
        1
 62
     0
 92
       -2
340
0
 93
        0
 40
0.045
309
GRIDFORMAT_END
 95
        8
302
GRIDFORMAT
  1
GRIDFORMAT_BEGIN
 90
        0
 91
        1
 62
     0
 92
       -2
340
0
 93
        0
 40
0.045
309
GRIDFORMAT_END
 95
       16
302
GRIDFORMAT
  1
GRIDFORMAT_BEGIN
 90
        0
 91
        1
 62
     0
 92
       -2
340
0
 93
        0
 40
0.045
309
GRIDFORMAT_END
 95
       32
302
GRIDFORMAT
  1
GRIDFORMAT_BEGIN
 90
        0
 91
        1
 62
     0
 92
       -2
340
0
 93
        0
 40
0.045
309
GRIDFORMAT_END
309
TABLEFORMAT_END
  1
CELLSTYLE_BEGIN
 90
        3
 91
        2
300
_DATA
309
CELLSTYLE_END
  0
ENDSEC
  0
EOF
