  0
SECTION
  2
HEADER
  9
$ACADVER
  1
AC1032
  9
$ACADMAINTVER
 90
      197
  9
$DWGCODEPAGE
  3
ANSI_936
  9
$REQUIREDVERSIONS
160
                 0
  9
$INSBASE
 10
0.0
 20
0.0
 30
0.0
  9
$EXTMIN
 10
687.9511555405693
 20
-176.0926991762872
 30
0.0
  9
$EXTMAX
 10
693.7634860582319
 20
-171.7316149972949
 30
0.0000000000000568
  9
$LIMMIN
 10
0.0
 20
0.0
  9
$LIMMAX
 10
12.0
 20
9.0
  9
$ORTHOMODE
 70
     0
  9
$REGENMODE
 70
     1
  9
$FILLMODE
 70
     1
  9
$QTEXTMODE
 70
     0
  9
$MIRRTEXT
 70
     0
  9
$LTSCALE
 40
1.0
  9
$ATTMODE
 70
     1
  9
$TEXTSIZE
 40
0.45
  9
$TRACEWID
 40
0.05
  9
$TEXTSTYLE
  7
Standard
  9
$CLAYER
  8
Defpoints
  9
$CELTYPE
  6
ByLayer
  9
$CECOLOR
 62
   256
  9
$CELTSCALE
 40
1.0
  9
$DISPSILH
 70
     0
  9
$DIMSCALE
 40
0.05
  9
$DIMASZ
 40
0.08
  9
$DIMEXO
 40
0.0266
  9
$DIMDLI
 40
0.0266
  9
$DIMRND
 40
0.0
  9
$DIMDLE
 40
0.0
  9
$DIMEXE
 40
0.0266
  9
$DIMTP
 40
0.0
  9
$DIMTM
 40
1.25
  9
$DIMTXT
 40
0.08
  9
$DIMCEN
 40
0.0
  9
$DIMTSZ
 40
0.0
  9
$DIMTOL
 70
     0
  9
$DIMLIM
 70
     0
  9
$DIMTIH
 70
     0
  9
$DIMTOH
 70
     0
  9
$DIMSE1
 70
     0
  9
$DIMSE2
 70
     0
  9
$DIMTAD
 70
     0
  9
$DIMZIN
 70
     1
  9
$DIMBLK
  1

  9
$DIMASO
 70
     0
  9
$DIMSHO
 70
     1
  9
$DIMPOST
  1

  9
$DIMAPOST
  1

  9
$DIMALT
 70
     0
  9
$DIMALTD
 70
     2
  9
$DIMALTF
 40
25.4
  9
$DIMLFAC
 40
1.0
  9
$DIMTOFL
 70
     1
  9
$DIMTVP
 40
0.0
  9
$DIMTIX
 70
     0
  9
$DIMSOXD
 70
     0
  9
$DIMSAH
 70
     0
  9
$DIMBLK1
  1

  9
$DIMBLK2
  1

  9
$DIMSTYLE
  2
Standard
  9
$DIMCLRD
 70
   256
  9
$DIMCLRE
 70
   256
  9
$DIMCLRT
 70
   256
  9
$DIMTFAC
 40
1.0
  9
$DIMGAP
 40
0.0266
  9
$DIMJUST
 70
     0
  9
$DIMSD1
 70
     0
  9
$DIMSD2
 70
     0
  9
$DIMTOLJ
 70
     1
  9
$DIMTZIN
 70
     0
  9
$DIMALTZ
 70
     0
  9
$DIMALTTZ
 70
     0
  9
$DIMUPT
 70
     0
  9
$DIMDEC
 70
     4
  9
$DIMTDEC
 70
     4
  9
$DIMALTU
 70
     2
  9
$DIMALTTD
 70
     2
  9
$DIMTXSTY
  7
Standard
  9
$DIMAUNIT
 70
     0
  9
$DIMADEC
 70
     0
  9
$DIMALTRND
 40
0.0
  9
$DIMAZIN
 70
     1
  9
$DIMDSEP
 70
    46
  9
$DIMATFIT
 70
     0
  9
$DIMFRAC
 70
     0
  9
$DIMLDRBLK
  1

  9
$DIMLUNIT
 70
     2
  9
$DIMLWD
 70
    -1
  9
$DIMLWE
 70
    -1
  9
$DIMTMOVE
 70
     0
  9
$DIMFXL
 40
0.0072
  9
$DIMFXLON
 70
     0
  9
$DIMJOGANG
 40
0.7853981633974483
  9
$DIMTFILL
 70
     0
  9
$DIMTFILLCLR
 70
     0
  9
$DIMARCSYM
 70
     0
  9
$DIMLTYPE
  6
ByLayer
  9
$DIMLTEX1
  6
ByLayer
  9
$DIMLTEX2
  6
ByLayer
  9
$DIMTXTDIRECTION
 70
     0
  9
$LUNITS
 70
     2
  9
$LUPREC
 70
     8
  9
$SKETCHINC
 40
0.1
  9
$FILLETRAD
 40
0.0
  9
$AUNITS
 70
     0
  9
$AUPREC
 70
     0
  9
$MENU
  1
.
  9
$ELEVATION
 40
0.0
  9
$PELEVATION
 40
0.0
  9
$THICKNESS
 40
0.0
  9
$LIMCHECK
 70
     0
  9
$CHAMFERA
 40
0.0
  9
$CHAMFERB
 40
0.0
  9
$CHAMFERC
 40
1.0
  9
$CHAMFERD
 40
0.0
  9
$SKPOLY
 70
     0
  9
$TDCREATE
 40
2453883.125682871
  9
$TDUCREATE
 40
2453882.792357350
  9
$TDUPDATE
 40
2455601.494444445
  9
$TDUUPDATE
 40
2455601.161122049
  9
$TDINDWG
 40
10.0084393403
  9
$TDUSRTIMER
 40
10.0084393403
  9
$USRTIMER
 70
     1
  9
$ANGBASE
 50
0.0
  9
$ANGDIR
 70
     0
  9
$PDMODE
 70
     0
  9
$PDSIZE
 40
0.0
  9
$PLINEWID
 40
0.0
  9
$SPLFRAME
 70
     0
  9
$SPLINETYPE
 70
     6
  9
$SPLINESEGS
 70
     8
  9
$HANDSEED
  5
159
  9
$SURFTAB1
 70
     6
  9
$SURFTAB2
 70
     6
  9
$SURFTYPE
 70
     6
  9
$SURFU
 70
     6
  9
$SURFV
 70
     6
  9
$UCSBASE
  2

  9
$UCSNAME
  2

  9
$UCSORG
 10
0.0
 20
0.0
 30
0.0
  9
$UCSXDIR
 10
1.0
 20
0.0
 30
0.0
  9
$UCSYDIR
 10
0.0
 20
1.0
 30
0.0
  9
$UCSORTHOREF
  2

  9
$UCSORTHOVIEW
 70
     0
  9
$UCSORGTOP
 10
0.0
 20
0.0
 30
0.0
  9
$UCSORGBOTTOM
 10
0.0
 20
0.0
 30
0.0
  9
$UCSORGLEFT
 10
0.0
 20
0.0
 30
0.0
  9
$UCSORGRIGHT
 10
0.0
 20
0.0
 30
0.0
  9
$UCSORGFRONT
 10
0.0
 20
0.0
 30
0.0
  9
$UCSORGBACK
 10
0.0
 20
0.0
 30
0.0
  9
$PUCSBASE
  2

  9
$PUCSNAME
  2

  9
$PUCSORG
 10
0.0
 20
0.0
 30
0.0
  9
$PUCSXDIR
 10
1.0
 20
0.0
 30
0.0
  9
$PUCSYDIR
 10
0.0
 20
1.0
 30
0.0
  9
$PUCSORTHOREF
  2

  9
$PUCSORTHOVIEW
 70
     0
  9
$PUCSORGTOP
 10
0.0
 20
0.0
 30
0.0
  9
$PUCSORGBOTTOM
 10
0.0
 20
0.0
 30
0.0
  9
$PUCSORGLEFT
 10
0.0
 20
0.0
 30
0.0
  9
$PUCSORGRIGHT
 10
0.0
 20
0.0
 30
0.0
  9
$PUCSORGFRONT
 10
0.0
 20
0.0
 30
0.0
  9
$PUCSORGBACK
 10
0.0
 20
0.0
 30
0.0
  9
$USERI1
 70
     0
  9
$USERI2
 70
     0
  9
$USERI3
 70
     0
  9
$USERI4
 70
     0
  9
$USERI5
 70
     0
  9
$USERR1
 40
0.0
  9
$USERR2
 40
0.0
  9
$USERR3
 40
0.0
  9
$USERR4
 40
0.0
  9
$USERR5
 40
0.0
  9
$WORLDVIEW
 70
     1
  9
$SHADEDGE
 70
     3
  9
$SHADEDIF
 70
    70
  9
$TILEMODE
 70
     1
  9
$MAXACTVP
 70
    64
  9
$PINSBASE
 10
0.0
 20
0.0
 30
0.0
  9
$PLIMCHECK
 70
     0
  9
$PEXTMIN
 10
1.000000000000000E+20
 20
1.000000000000000E+20
 30
1.000000000000000E+20
  9
$PEXTMAX
 10
-1.000000000000000E+20
 20
-1.000000000000000E+20
 30
-1.000000000000000E+20
  9
$PLIMMIN
 10
0.0
 20
0.0
  9
$PLIMMAX
 10
12.0
 20
9.0
  9
$UNITMODE
 70
     0
  9
$VISRETAIN
 70
     1
  9
$PLINEGEN
 70
     0
  9
$PSLTSCALE
 70
     1
  9
$TREEDEPTH
 70
  3020
  9
$CMLSTYLE
  2
Standard
  9
$CMLJUST
 70
     0
  9
$CMLSCALE
 40
1.0
  9
$PROXYGRAPHICS
 70
     1
  9
$MEASUREMENT
 70
     0
  9
$CELWEIGHT
370
    -1
  9
$ENDCAPS
280
     0
  9
$JOINSTYLE
280
     0
  9
$LWDISPLAY
290
     0
  9
$INSUNITS
 70
     0
  9
$HYPERLINKBASE
  1

  9
$STYLESHEET
  1

  9
$XEDIT
290
     1
  9
$CEPSNTYPE
380
     0
  9
$PSTYLEMODE
290
     1
  9
$FINGERPRINTGUID
  2
{4007BBDF-4B68-E948-A451-BE0238DE846D}
  9
$VERSIONGUID
  2
{12A48438-84A3-4FD2-A276-BDF2C6C8AAFA}
  9
$EXTNAMES
290
     1
  9
$PSVPSCALE
 40
0.0
  9
$OLESTARTUP
290
     0
  9
$SORTENTS
280
   127
  9
$INDEXCTL
280
     0
  9
$HIDETEXT
280
     1
  9
$XCLIPFRAME
280
     2
  9
$HALOGAP
280
     0
  9
$OBSCOLOR
 70
   257
  9
$OBSLTYPE
280
     0
  9
$INTERSECTIONDISPLAY
280
     0
  9
$INTERSECTIONCOLOR
 70
   257
  9
$DIMASSOC
280
     0
  9
$PROJECTNAME
  1

  9
$CAMERADISPLAY
290
     0
  9
$LENSLENGTH
 40
50.0
  9
$CAMERAHEIGHT
 40
0.0
  9
$STEPSPERSEC
 40
2.0
  9
$STEPSIZE
 40
6.0
  9
$3DDWFPREC
 40
2.0
  9
$PSOLWIDTH
 40
0.25
  9
$PSOLHEIGHT
 40
4.0
  9
$LOFTANG1
 40
1.570796326794896
  9
$LOFTANG2
 40
1.570796326794896
  9
$LOFTMAG1
 40
0.0
  9
$LOFTMAG2
 40
0.0
  9
$LOFTPARAM
 70
     7
  9
$LOFTNORMALS
280
     1
  9
$LATITUDE
 40
37.795
  9
$LONGITUDE
 40
-122.394
  9
$NORTHDIRECTION
 40
0.0
  9
$TIMEZONE
 70
 -8000
  9
$LIGHTGLYPHDISPLAY
280
     1
  9
$TILEMODELIGHTSYNCH
280
     1
  9
$CMATERIAL
347
31
  9
$SOLIDHIST
280
     0
  9
$SHOWHIST
280
     1
  9
$DWFFRAME
280
     2
  9
$DGNFRAME
280
     0
  9
$REALWORLDSCALE
290
     1
  9
$INTERFERECOLOR
 62
     1
  9
$INTERFEREOBJVS
345
48
  9
$INTERFEREVPVS
346
49
  9
$CSHADOW
280
     0
  9
$SHADOWPLANELOCATION
 40
0.0
  0
ENDSEC
  0
SECTION
  2
CLASSES
  0
CLASS
  1
ACDBDICTIONARYWDFLT
  2
AcDbDictionaryWithDefault
  3
ObjectDBX Classes
 90
        0
 91
        1
280
     0
281
     0
  0
CLASS
  1
DICTIONARYVAR
  2
AcDbDictionaryVar
  3
ObjectDBX Classes
 90
        0
 91
       13
280
     0
281
     0
  0
CLASS
  1
TABLESTYLE
  2
AcDbTableStyle
  3
ObjectDBX Classes
 90
     4095
 91
        1
280
     0
281
     0
  0
CLASS
  1
SORTENTSTABLE
  2
AcDbSortentsTable
  3
ObjectDBX Classes
 90
        0
 91
        2
280
     0
281
     0
  0
CLASS
  1
VISUALSTYLE
  2
AcDbVisualStyle
  3
ObjectDBX Classes
 90
     4095
 91
        4
280
     0
281
     0
  0
CLASS
  1
MATERIAL
  2
AcDbMaterial
  3
ObjectDBX Classes
 90
     1153
 91
        3
280
     0
281
     0
  0
CLASS
  1
EXACXREFPANELOBJECT
  2
ExAcXREFPanelObject
  3
EXAC_ESW
 90
     1025
 91
        0
280
     1
281
     0
  0
CLASS
  1
NPOCOLLECTION
  2
AcDbImpNonPersistentObjectsCollection
  3
ObjectDBX Classes
 90
     1153
 91
        0
280
     0
281
     0
  0
CLASS
  1
DIMASSOC
  2
AcDbDimAssoc
  3
"AcDbDimAssoc|Product Desc:     AcDim ARX App For Dimension|Company:          Autodesk, Inc.|WEB Address:      www.autodesk.com"
 90
        0
 91
        0
280
     0
281
     0
  0
CLASS
  1
SCALE
  2
AcDbScale
  3
ObjectDBX Classes
 90
     1153
 91
       17
280
     0
281
     0
  0
CLASS
  1
MLEADERSTYLE
  2
AcDbMLeaderStyle
  3
ACDB_MLEADERSTYLE_CLASS
 90
     4095
 91
        0
280
     0
281
     0
  0
CLASS
  1
ACDBSECTIONVIEWSTYLE
  2
AcDbSectionViewStyle
  3
ObjectDBX Classes
 90
     1025
 91
        0
280
     0
281
     0
  0
CLASS
  1
ACDBDETAILVIEWSTYLE
  2
AcDbDetailViewStyle
  3
ObjectDBX Classes
 90
     1025
 91
        0
280
     0
281
     0
  0
CLASS
  1
SOLID_BACKGROUND
  2
AcDbSolidBackground
  3
SCENEOE
 90
     4095
 91
        0
280
     0
281
     0
  0
CLASS
  1
CELLSTYLEMAP
  2
AcDbCellStyleMap
  3
ObjectDBX Classes
 90
     1152
 91
        1
280
     0
281
     0
  0
ENDSEC
  0
SECTION
  2
TABLES
  0
TABLE
  2
VPORT
  5
23
102
{ACAD_XDICTIONARY
360
28
102
}
330
0
100
AcDbSymbolTable
 70
     1
  0
VPORT
  5
24
330
23
100
AcDbSymbolTableRecord
100
AcDbViewportTableRecord
  2
*Active
 70
     0
 10
0.0
 20
0.0
 11
1.0
 21
1.0
 12
691.9417809486993
 22
-172.3215290371393
 13
0.0
 23
0.0
 14
0.5
 24
0.5
 15
0.5
 25
0.5
 16
0.0
 26
0.0
 36
1.0
 17
0.0
 27
0.0
 37
0.0
 40
1.790731809720116
 41
2.311515151515151
 42
50.0
 43
0.0
 44
0.0
 50
0.0
 51
0.0
 71
     0
 72
   100
 73
     1
 74
     2
 75
     0
 76
     0
 77
     0
 78
     0
281
     0
 65
     1
110
0.0
120
0.0
130
0.0
111
1.0
121
0.0
131
0.0
112
0.0
122
1.0
132
0.0
 79
     0
146
0.0
348
25
 60
     3
 61
     5
292
     1
282
     1
141
0.0
142
0.0
 63
   250
421
  3355443
1001
ACAD_NAV_VCDISPLAY
1070
     3
  0
ENDTAB
  0
TABLE
  2
LTYPE
  5
1E
330
0
100
AcDbSymbolTable
 70
     3
  0
LTYPE
  5
1F
330
1E
100
AcDbSymbolTableRecord
100
AcDbLinetypeTableRecord
  2
ByBlock
 70
     0
  3

 72
    65
 73
     0
 40
0.0
  0
LTYPE
  5
20
330
1E
100
AcDbSymbolTableRecord
100
AcDbLinetypeTableRecord
  2
ByLayer
 70
     0
  3

 72
    65
 73
     0
 40
0.0
  0
LTYPE
  5
C
330
1E
100
AcDbSymbolTableRecord
100
AcDbLinetypeTableRecord
  2
Continuous
 70
     0
  3
Solid line
 72
    65
 73
     0
 40
0.0
  0
LTYPE
  5
6D
330
1E
100
AcDbSymbolTableRecord
100
AcDbLinetypeTableRecord
  2
CENTER
 70
     0
  3
Center ____ _ ____ _ ____ _ ____ _ ____ _ ____
 72
    65
 73
     4
 40
2.0
 49
1.25
 74
     0
 49
-0.25
 74
     0
 49
0.25
 74
     0
 49
-0.25
 74
     0
  0
LTYPE
  5
60
330
1E
100
AcDbSymbolTableRecord
100
AcDbLinetypeTableRecord
  2
HIDDEN
 70
     0
  3
Hidden __ __ __ __ __ __ __ __ __ __ __ __ __ _
 72
    65
 73
     2
 40
9.524999999999998
 49
6.349999999999999
 74
     0
 49
-3.174999999999999
 74
     0
  0
ENDTAB
  0
TABLE
  2
LAYER
  5
15
102
{ACAD_XDICTIONARY
360
16
102
}
330
0
100
AcDbSymbolTable
 70
     4
  0
LAYER
  5
6
330
15
100
AcDbSymbolTableRecord
100
AcDbLayerTableRecord
  2
0
 70
     0
 62
     7
  6
Continuous
370
    -3
390
7
347
A
348
0
  0
LAYER
  5
45
330
15
100
AcDbSymbolTableRecord
100
AcDbLayerTableRecord
  2
Defpoints
 70
     0
 62
     7
  6
Continuous
290
     0
370
    -3
390
7
347
A
348
0
  0
LAYER
  5
5F
330
15
100
AcDbSymbolTableRecord
100
AcDbLayerTableRecord
  2
3D
 70
     0
 62
     4
  6
Continuous
370
    -3
390
7
347
A
348
0
1001
AcAecLayerStandard
1000

1000

  0
LAYER
  5
5C
330
15
100
AcDbSymbolTableRecord
100
AcDbLayerTableRecord
  2
3
 70
     0
 62
     7
  6
Continuous
370
    -3
390
7
347
A
348
0
1001
AcAecLayerStandard
1000

1000

  0
ENDTAB
  0
TABLE
  2
STYLE
  5
1B
330
0
100
AcDbSymbolTable
 70
     2
  0
STYLE
  5
1C
330
1B
100
AcDbSymbolTableRecord
100
AcDbTextStyleTableRecord
  2
Standard
 70
     0
 40
0.0
 41
1.0
 50
0.0
 71
     0
 42
0.45
  3
txt
  4

  0
STYLE
  5
84
330
1B
100
AcDbSymbolTableRecord
100
AcDbTextStyleTableRecord
  2
SIMPLEX
 70
     0
 40
0.0
 41
1.0
 50
0.0
 71
     0
 42
0.0045
  3
SIMPLEX
  4

  0
ENDTAB
  0
TABLE
  2
VIEW
  5
21
330
0
100
AcDbSymbolTable
 70
     0
  0
ENDTAB
  0
TABLE
  2
UCS
  5
22
330
0
100
AcDbSymbolTable
 70
     0
  0
ENDTAB
  0
TABLE
  2
APPID
  5
29
330
0
100
AcDbSymbolTable
 70
     5
  0
APPID
  5
1A
330
29
100
AcDbSymbolTableRecord
100
AcDbRegAppTableRecord
  2
ACAD
 70
     0
  0
APPID
  5
2C
330
29
100
AcDbSymbolTableRecord
100
AcDbRegAppTableRecord
  2
ACAD_DSTYLE_DIMJOGGED_JOGANGLE_SYMBOL
 70
     0
  0
APPID
  5
10
330
29
100
AcDbSymbolTableRecord
100
AcDbRegAppTableRecord
  2
ACAD_PSEXT
 70
     0
  0
APPID
  5
5D
330
29
100
AcDbSymbolTableRecord
100
AcDbRegAppTableRecord
  2
AcAecLayerStandard
 70
     0
  0
APPID
  5
27
330
29
100
AcDbSymbolTableRecord
100
AcDbRegAppTableRecord
  2
ACAD_NAV_VCDISPLAY
 70
     0
  0
ENDTAB
  0
TABLE
  2
DIMSTYLE
  5
2A
330
0
100
AcDbSymbolTable
 70
     1
100
AcDbDimStyleTable
 71
     1
340
2B
  0
DIMSTYLE
105
2B
330
2A
100
AcDbSymbolTableRecord
100
AcDbDimStyleTableRecord
  2
Standard
 70
     0
 40
0.05
 41
0.08
 42
0.0266
 43
0.0266
 44
0.0266
 48
1.25
 49
0.0072
 73
     0
 74
     0
 78
     1
 79
     1
140
0.08
141
0.0
147
0.0266
172
     1
176
   256
177
   256
178
   256
289
     0
340
1C
345
20
346
20
347
20
371
    -1
372
    -1
1001
ACAD_DSTYLE_DIMJOGGED_JOGANGLE_SYMBOL
1070
   384
1040
0.7853981633974483
  0
ENDTAB
  0
TABLE
  2
BLOCK_RECORD
  5
1
330
0
100
AcDbSymbolTable
 70
     0
  0
BLOCK_RECORD
  5
2
102
{ACAD_XDICTIONARY
360
3
102
}
330
1
100
AcDbSymbolTableRecord
100
AcDbBlockTableRecord
  2
*Model_Space
340
E
 70
     0
280
     1
281
     0
  0
BLOCK_RECORD
  5
11
330
1
100
AcDbSymbolTableRecord
100
AcDbBlockTableRecord
  2
*Paper_Space
340
14
 70
     0
280
     1
281
     0
  0
ENDTAB
  0
ENDSEC
  0
SECTION
  2
BLOCKS
  0
BLOCK
  5
5
330
2
100
AcDbEntity
  8
0
100
AcDbBlockBegin
  2
*Model_Space
 70
     0
 10
0.0
 20
0.0
 30
0.0
  3
*Model_Space
  1

  0
ENDBLK
  5
D
330
2
100
AcDbEntity
  8
0
100
AcDbBlockEnd
  0
BLOCK
  5
12
330
11
100
AcDbEntity
 67
     1
  8
0
100
AcDbBlockBegin
  2
*Paper_Space
 70
     0
 10
0.0
 20
0.0
 30
0.0
  3
*Paper_Space
  1

  0
ENDBLK
  5
13
330
11
100
AcDbEntity
 67
     1
  8
0
100
AcDbBlockEnd
  0
ENDSEC
  0
SECTION
  2
ENTITIES
  0
LWPOLYLINE
  5
5B
330
2
100
AcDbEntity
  8
3
100
AcDbPolyline
 90
      144
 70
     1
 43
0.0
 10
0.007499999996412
 20
0.0859999999987622
 10
0.007499999996412
 20
0.0639999999988277
 10
0.0034999999937781
 20
0.0639999999988277
 10
0.0034999999937781
 20
0.0559999999988179
 10
0.0214999999938073
 20
0.0559999999988179
 10
0.0214999999938073
 20
0.0639999999988277
 10
0.0174999999994725
 20
0.0639999999988277
 10
0.0174999999993588
 20
0.0859999999987622
 10
0.0325000000013915
 20
0.0859999999987622
 10
0.0325000000012779
 20
0.0639999999988277
 10
0.0284999999987576
 20
0.0639999999988277
 10
0.0284999999987576
 20
0.0559999999988179
 10
0.0464999999976499
 20
0.0559999999988179
 10
0.0464999999976499
 20
0.0639999999988277
 10
0.0424999999996771
 20
0.0639999999988277
 10
0.0424999999996771
 20
0.0859999999987622
 10
0.0575000000018235
 20
0.0859999999987622
 10
0.0575000000018235
 20
0.0640000000009309
 10
0.0535000000022592
 20
0.0640000000009593
 10
0.0535000000022592
 20
0.0560000000009779
 10
0.0715000000022883
 20
0.0560000000009779
 10
0.0715000000022883
 20
0.0640000000009593
 10
0.0675000000002228
 20
0.0640000000009593
 10
0.0675000000001092
 20
0.0859999999987622
 10
0.0825000000021419
 20
0.0859999999987622
 10
0.0825000000021419
 20
0.0640000000009309
 10
0.0785000000023501
 20
0.0640000000009593
 10
0.0785000000023501
 20
0.0500000000011482
 10
0.0900000000021919
 20
0.0500000000011482
 10
0.0900000000021919
 20
0.0560000000009779
 10
0.0990000000022065
 20
0.0560000000009779
 10
0.0990000000022065
 20
0.0640000000009593
 10
0.0925000000004275
 20
0.0640000000009593
 10
0.0925000000004275
 20
0.0859999999987622
 10
0.1074999999979127
 20
0.0859999999987622
 10
0.1074999999979127
 20
0.0465000000010605
 10
0.1064000000023952
 20
0.0465000000010605
 10
0.1050000000021782
 20
0.0420000000011669
 10
0.0850000000023101
 20
0.0420000000011669
 10
0.0850000000023101
 20
0.0320000000011191
 10
0.1107530957466452
 20
0.0320000000011191
 10
0.1220000000021173
 20
0.0532084480258277
 10
0.1220000000021173
 20
0.0640000000009593
 10
0.1175000000008595
 20
0.0640000000009877
 10
0.1175000000008595
 20
0.0859999999987622
 10
0.1325000000028922
 20
0.0859999999987622
 10
0.1325000000028922
 20
0.0561277780664682
 10
0.1150000000022828
 20
0.0240000000011378
 10
0.0889763779548503
 20
0.0240000000011378
 10
0.0889763779548503
 20
0.01400000000109
 10
0.1220000000021173
 20
0.01400000000109
 10
0.142500000002201
 20
0.039000000001181
 10
0.142500000002201
 20
0.0560000000009779
 10
0.1465000000022201
 20
0.0560000000009779
 10
0.1465000000022201
 20
0.0640000000009593
 10
0.1425000000011778
 20
0.0640000000009309
 10
0.1425000000011778
 20
0.0859999999987622
 10
0.1919999999987567
 20
0.0859999999987622
 10
0.1919999999987567
 20
0.0780000000015093
 10
0.172999999999206
 20
0.0780000000015093
 10
0.1730000000015934
 20
0.0040000000020655
 10
0.1660000000036916
 20
0.0040000000020655
 10
0.1640000000048758
 20
0.0060000000008245
 10
0.1475000000021964
 20
0.0060000000011087
 10
0.1475000000021964
 20
0.01400000000109
 10
0.1375000000022055
 20
0.01400000000109
 10
0.1375000000022055
 20
0.0060000000011087
 10
0.0750000000020918
 20
0.0060000000011087
 10
0.0750000000022055
 20
0.0070000000011987
 10
0.0700000000022101
 20
0.0070000000011987
 10
0.0700000000023238
 20
0.0430000000011148
 42
0.4142135623730951
 10
0.0649999999976672
 20
0.0480000000011103
 10
-0.0650000000023283
 20
0.0480000000011103
 42
0.4142135623730951
 10
-0.0700000000023238
 20
0.0430000000011148
 10
-0.0700000000022101
 20
0.0070000000011987
 10
-0.0750000000022055
 20
0.0070000000011987
 10
-0.0750000000020918
 20
0.0060000000011087
 10
-0.1375000000022055
 20
0.0060000000011087
 10
-0.1375000000022055
 20
0.01400000000109
 10
-0.1475000000021964
 20
0.01400000000109
 10
-0.1475000000021964
 20
0.0060000000011087
 10
-0.1640000000048758
 20
0.0060000000008245
 10
-0.1660000000036916
 20
0.0040000000020655
 10
-0.1730000000015934
 20
0.0040000000020655
 10
-0.172999999999206
 20
0.0780000000015093
 10
-0.1919999999987567
 20
0.0780000000015093
 10
-0.1919999999987567
 20
0.0859999999987622
 10
-0.1425000000011778
 20
0.0859999999987622
 10
-0.1425000000011778
 20
0.0640000000009309
 10
-0.1465000000022201
 20
0.0640000000009593
 10
-0.1465000000022201
 20
0.0560000000009779
 10
-0.142500000002201
 20
0.0560000000009779
 10
-0.142500000002201
 20
0.039000000001181
 10
-0.1220000000021173
 20
0.01400000000109
 10
-0.0889763779548503
 20
0.01400000000109
 10
-0.0889763779548503
 20
0.0240000000011378
 10
-0.1150000000022828
 20
0.0240000000011378
 10
-0.1325000000028922
 20
0.0561277780664682
 10
-0.1325000000028922
 20
0.0859999999987622
 10
-0.1175000000008595
 20
0.0859999999987622
 10
-0.1175000000008595
 20
0.0640000000009877
 10
-0.1220000000021173
 20
0.0640000000009593
 10
-0.1220000000021173
 20
0.0532084480258277
 10
-0.1107530957466452
 20
0.0320000000011191
 10
-0.0850000000023101
 20
0.0320000000011191
 10
-0.0850000000023101
 20
0.0420000000011669
 10
-0.1050000000021782
 20
0.0420000000011669
 10
-0.1064000000023952
 20
0.0465000000010605
 10
-0.1074999999979127
 20
0.0465000000010605
 10
-0.1074999999979127
 20
0.0859999999987622
 10
-0.0925000000004275
 20
0.0859999999987622
 10
-0.0925000000004275
 20
0.0640000000009593
 10
-0.0990000000022065
 20
0.0640000000009593
 10
-0.0990000000022065
 20
0.0560000000009779
 10
-0.0900000000021919
 20
0.0560000000009779
 10
-0.0900000000021919
 20
0.0500000000011482
 10
-0.0785000000023501
 20
0.0500000000011482
 10
-0.0785000000023501
 20
0.0640000000009593
 10
-0.0825000000021419
 20
0.0640000000009309
 10
-0.0825000000021419
 20
0.0859999999987622
 10
-0.0675000000001092
 20
0.0859999999987622
 10
-0.0675000000002228
 20
0.0640000000009593
 10
-0.0715000000022883
 20
0.0640000000009593
 10
-0.0715000000022883
 20
0.0560000000009779
 10
-0.0535000000022592
 20
0.0560000000009779
 10
-0.0535000000022592
 20
0.0640000000009593
 10
-0.0575000000018235
 20
0.0640000000009309
 10
-0.0575000000018235
 20
0.0859999999987622
 10
-0.0424999999996771
 20
0.0859999999987622
 10
-0.0424999999996771
 20
0.0640000000009309
 10
-0.0465000000021974
 20
0.0640000000009593
 10
-0.0465000000021974
 20
0.0560000000009779
 10
-0.0285000000021682
 20
0.0560000000009779
 10
-0.0285000000021682
 20
0.0640000000009593
 10
-0.0324999999968441
 20
0.0640000000009593
 10
-0.0324999999968441
 20
0.0859999999987622
 10
-0.0174999999993588
 20
0.0859999999987622
 10
-0.0174999999993588
 20
0.0639999999988561
 10
-0.0215000000023338
 20
0.0639999999988277
 10
-0.0215000000023338
 20
0.0559999999988179
 10
-0.0035000000019636
 20
0.0559999999988179
 10
-0.0035000000019636
 20
0.0639999999988277
 10
-0.0075000000010732
 20
0.0639999999988277
 10
-0.0075000000010732
 20
0.0859999999987622
  0
CIRCLE
  5
5E
330
2
100
AcDbEntity
  8
3D
  6
HIDDEN
 48
0.001
100
AcDbCircle
 10
0.0100000000028331
 20
0.0100000000005878
 30
0.0
 40
0.004
  0
CIRCLE
  5
61
330
2
100
AcDbEntity
  8
3D
  6
HIDDEN
 48
0.001
100
AcDbCircle
 10
0.0100000000028331
 20
0.0299999999972158
 30
0.0
 40
0.004
  0
CIRCLE
  5
62
330
2
100
AcDbEntity
  8
3D
  6
HIDDEN
 48
0.001
100
AcDbCircle
 10
0.029999999999518
 20
0.0100000000005878
 30
0.0
 40
0.004
  0
CIRCLE
  5
63
330
2
100
AcDbEntity
  8
3D
  6
HIDDEN
 48
0.001
100
AcDbCircle
 10
0.029999999999518
 20
0.0299999999972158
 30
0.0
 40
0.004
  0
CIRCLE
  5
64
330
2
100
AcDbEntity
  8
3D
  6
HIDDEN
 48
0.001
100
AcDbCircle
 10
0.0499999999960892
 20
0.0100000000005878
 30
0.0
 40
0.004
  0
CIRCLE
  5
65
330
2
100
AcDbEntity
  8
3D
  6
HIDDEN
 48
0.001
100
AcDbCircle
 10
0.0499999999960892
 20
0.0299999999972158
 30
0.0
 40
0.004
  0
CIRCLE
  5
66
330
2
100
AcDbEntity
  8
3D
  6
HIDDEN
 48
0.001
100
AcDbCircle
 10
-0.0099999999982856
 20
0.0100000000005878
 30
0.0
 40
0.004
  0
CIRCLE
  5
67
330
2
100
AcDbEntity
  8
3D
  6
HIDDEN
 48
0.001
100
AcDbCircle
 10
-0.0099999999982856
 20
0.0299999999972158
 30
0.0
 40
0.004
  0
CIRCLE
  5
68
330
2
100
AcDbEntity
  8
3D
  6
HIDDEN
 48
0.001
100
AcDbCircle
 10
-0.029999999999518
 20
0.0100000000005878
 30
0.0
 40
0.004
  0
CIRCLE
  5
69
330
2
100
AcDbEntity
  8
3D
  6
HIDDEN
 48
0.001
100
AcDbCircle
 10
-0.029999999999518
 20
0.0299999999972158
 30
0.0
 40
0.004
  0
CIRCLE
  5
6A
330
2
100
AcDbEntity
  8
3D
  6
HIDDEN
 48
0.001
100
AcDbCircle
 10
-0.0500000000007503
 20
0.0100000000005878
 30
0.0
 40
0.004
  0
CIRCLE
  5
6B
330
2
100
AcDbEntity
  8
3D
  6
HIDDEN
 48
0.001
100
AcDbCircle
 10
-0.0500000000007503
 20
0.0299999999972158
 30
0.0
 40
0.004
  0
LINE
  5
6C
330
2
100
AcDbEntity
  8
3D
  6
CENTER
 48
0.01
100
AcDbLine
 10
-0.0509682545773558
 20
0.000000000000199
 30
0.0
 11
0.0509682545774695
 21
0.0000000000000853
 31
0.0
  0
LINE
  5
6E
330
2
100
AcDbEntity
  8
3D
  6
CENTER
 48
0.01
100
AcDbLine
 10
0.0
 20
0.050968254577441
 30
0.0
 11
0.0
 21
-0.0509682545774695
 31
0.0
  0
LWPOLYLINE
  5
6F
330
2
100
AcDbEntity
  8
3D
  6
CENTER
 62
     2
 48
0.025
100
AcDbPolyline
 90
        4
 70
     1
 43
0.0
 10
-0.1699999999988222
 20
0.0760000000004766
 10
0.1699999999988222
 20
0.0760000000004766
 10
0.1699999999988222
 20
-0.0760000000004766
 10
-0.1699999999988222
 20
-0.0760000000004766
  0
LWPOLYLINE
  5
70
330
2
100
AcDbEntity
  8
3
100
AcDbPolyline
 90
      144
 70
     1
 43
0.0
 10
0.0074999999961847
 20
-0.0859999999985348
 10
0.0074999999962984
 20
-0.0639999999986003
 10
0.0034999999937781
 20
-0.0639999999985719
 10
0.0034999999937781
 20
-0.0559999999985621
 10
0.0214999999938073
 20
-0.0559999999986474
 10
0.0214999999938073
 20
-0.0639999999986571
 10
0.0174999999993588
 20
-0.0639999999986287
 10
0.0174999999991314
 20
-0.0859999999985632
 10
0.0325000000011642
 20
-0.0859999999985917
 10
0.0325000000011642
 20
-0.0639999999986571
 10
0.0284999999987576
 20
-0.0639999999986571
 10
0.0284999999987576
 20
-0.0559999999986474
 10
0.0464999999975362
 20
-0.0559999999987042
 10
0.0464999999975362
 20
-0.063999999998714
 10
0.0424999999995635
 20
-0.0639999999986856
 10
0.0424999999994498
 20
-0.0859999999986201
 10
0.0575000000015962
 20
-0.0859999999986769
 10
0.0575000000017099
 20
-0.0640000000008456
 10
0.0535000000021455
 20
-0.0640000000008456
 10
0.0535000000021455
 20
-0.0560000000008643
 10
0.0715000000021746
 20
-0.0560000000009211
 10
0.0715000000021746
 20
-0.0640000000009025
 10
0.0675000000001092
 20
-0.0640000000009025
 10
0.0674999999998818
 20
-0.0859999999987054
 10
0.0825000000019145
 20
-0.0859999999987338
 10
0.0825000000020282
 20
-0.0640000000009025
 10
0.0785000000022365
 20
-0.0640000000009309
 10
0.0785000000022365
 20
-0.0500000000011198
 10
0.0900000000020782
 20
-0.0500000000011482
 10
0.0900000000020782
 20
-0.0560000000009779
 10
0.0990000000020928
 20
-0.0560000000010064
 10
0.0990000000020928
 20
-0.0640000000009877
 10
0.0925000000003138
 20
-0.0640000000009593
 10
0.0925000000002001
 20
-0.0859999999987622
 10
0.1074999999976853
 20
-0.085999999998819
 10
0.107499999997799
 20
-0.0465000000011173
 10
0.1064000000022816
 20
-0.0465000000010889
 10
0.1050000000020645
 20
-0.0420000000011953
 10
0.0850000000021965
 20
-0.0420000000011385
 10
0.0850000000021965
 20
-0.0320000000010907
 10
0.1107530957465315
 20
-0.032000000001176
 10
0.1220000000020036
 20
-0.053208448025913
 10
0.1220000000020036
 20
-0.0640000000010446
 10
0.1175000000007458
 20
-0.064000000001073
 10
0.1175000000006321
 20
-0.0859999999988475
 10
0.1325000000026648
 20
-0.0859999999988759
 10
0.1325000000027785
 20
-0.0561277780665819
 10
0.1150000000022828
 20
-0.0240000000011946
 10
0.0889763779548503
 20
-0.0240000000011378
 10
0.0889763779548503
 20
-0.01400000000109
 10
0.1220000000021173
 20
-0.0140000000011753
 10
0.1425000000020873
 20
-0.0390000000013231
 10
0.1425000000020873
 20
-0.0560000000011201
 10
0.1465000000021064
 20
-0.0560000000011201
 10
0.1465000000021064
 20
-0.0640000000011014
 10
0.1425000000010641
 20
-0.064000000001073
 10
0.1425000000009504
 20
-0.0859999999989043
 10
0.1919999999985293
 20
-0.0859999999990464
 10
0.1919999999985293
 20
-0.0780000000017935
 10
0.1729999999989786
 20
-0.0780000000017367
 10
0.1730000000015934
 20
-0.0040000000022928
 10
0.1660000000036916
 20
-0.0040000000022644
 10
0.1640000000048758
 20
-0.0060000000010234
 10
0.1475000000021964
 20
-0.0060000000012508
 10
0.1475000000021964
 20
-0.0140000000012322
 10
0.1375000000022055
 20
-0.0140000000012037
 10
0.1375000000022055
 20
-0.0060000000012224
 10
0.0750000000020918
 20
-0.0060000000010518
 10
0.0750000000022055
 20
-0.0070000000011419
 10
0.0700000000022101
 20
-0.0070000000011419
 10
0.0700000000022101
 20
-0.043000000001058
 42
-0.4142135623730951
 10
0.0649999999975535
 20
-0.0480000000010534
 10
-0.065000000002442
 20
-0.048000000000684
 42
-0.4142135623730951
 10
-0.0700000000024375
 20
-0.0430000000006885
 10
-0.0700000000022101
 20
-0.0070000000007724
 10
-0.0750000000022055
 20
-0.007000000000744
 10
-0.0750000000020918
 20
-0.0060000000006539
 10
-0.1375000000022055
 20
-0.0060000000004834
 10
-0.1375000000022055
 20
-0.0140000000004648
 10
-0.1475000000021964
 20
-0.0140000000004363
 10
-0.1475000000021964
 20
-0.006000000000455
 10
-0.1640000000048758
 20
-0.0060000000001423
 10
-0.1660000000036916
 20
-0.0040000000013549
 10
-0.1730000000015934
 20
-0.0040000000013549
 10
-0.1729999999994334
 20
-0.0780000000007988
 10
-0.1919999999989841
 20
-0.0780000000007419
 10
-0.1919999999989841
 20
-0.0859999999979948
 10
-0.1425000000014052
 20
-0.0859999999981369
 10
-0.1425000000012915
 20
-0.0640000000003056
 10
-0.1465000000023338
 20
-0.0640000000003056
 10
-0.1465000000023338
 20
-0.0560000000003242
 10
-0.1425000000023147
 20
-0.0560000000003527
 10
-0.1425000000023147
 20
-0.0390000000005557
 10
-0.1220000000021173
 20
-0.0140000000005216
 10
-0.0889763779548503
 20
-0.0140000000006069
 10
-0.0889763779548503
 20
-0.0240000000006546
 10
-0.1150000000022828
 20
-0.0240000000005694
 10
-0.1325000000030059
 20
-0.0561277780658713
 10
-0.1325000000031196
 20
-0.0859999999981653
 10
-0.1175000000010868
 20
-0.0859999999981938
 10
-0.1175000000009732
 20
-0.0640000000004193
 10
-0.122000000002231
 20
-0.0640000000003909
 10
-0.122000000002231
 20
-0.0532084480252593
 10
-0.1107530957467588
 20
-0.0320000000005791
 10
-0.0850000000024238
 20
-0.032000000000636
 10
-0.0850000000024238
 20
-0.0420000000006837
 10
-0.1050000000022919
 20
-0.0420000000006269
 10
-0.1064000000025089
 20
-0.0465000000005205
 10
-0.1074999999980264
 20
-0.0465000000005205
 10
-0.1074999999981401
 20
-0.0859999999982222
 10
-0.0925000000006549
 20
-0.0859999999982506
 10
-0.0925000000005412
 20
-0.0640000000004477
 10
-0.0990000000023201
 20
-0.0640000000004477
 10
-0.0990000000023201
 20
-0.0560000000004664
 10
-0.0900000000023056
 20
-0.0560000000004948
 10
-0.0900000000023056
 20
-0.0500000000006651
 10
-0.0785000000024638
 20
-0.0500000000006935
 10
-0.0785000000024638
 20
-0.0640000000005046
 10
-0.0825000000022556
 20
-0.0640000000004477
 10
-0.0825000000023693
 20
-0.085999999998279
 10
-0.0675000000003365
 20
-0.0859999999983359
 10
-0.0675000000003365
 20
-0.064000000000533
 10
-0.071500000002402
 20
-0.0640000000005046
 10
-0.071500000002402
 20
-0.0560000000005232
 10
-0.0535000000023729
 20
-0.05600000000058
 10
-0.0535000000023729
 20
-0.0640000000005614
 10
-0.0575000000019372
 20
-0.064000000000533
 10
-0.0575000000020509
 20
-0.0859999999983643
 10
-0.0424999999999045
 20
-0.0859999999983927
 10
-0.0424999999997908
 20
-0.0640000000005614
 10
-0.046500000002311
 20
-0.0640000000005898
 10
-0.046500000002311
 20
-0.0560000000006085
 10
-0.0285000000022819
 20
-0.0560000000006653
 10
-0.0285000000022819
 20
-0.0640000000006467
 10
-0.0324999999969578
 20
-0.0640000000006182
 10
-0.0324999999970714
 20
-0.0859999999984211
 10
-0.0174999999995862
 20
-0.085999999998478
 10
-0.0174999999994725
 20
-0.0639999999985719
 10
-0.0215000000024475
 20
-0.063999999998515
 10
-0.0215000000024475
 20
-0.0559999999985053
 10
-0.0035000000019636
 20
-0.0559999999985621
 10
-0.0035000000019636
 20
-0.0639999999985719
 10
-0.0075000000011869
 20
-0.0639999999985719
 10
-0.0075000000013006
 20
-0.0859999999985064
  0
CIRCLE
  5
71
330
2
100
AcDbEntity
  8
3D
  6
HIDDEN
 48
0.001
100
AcDbCircle
 10
0.0100000000028331
 20
-0.010000000000332
 30
0.0
 40
0.004
  0
CIRCLE
  5
72
330
2
100
AcDbEntity
  8
3D
  6
HIDDEN
 48
0.001
100
AcDbCircle
 10
0.0100000000028331
 20
-0.02999999999696
 30
0.0
 40
0.004
  0
CIRCLE
  5
73
330
2
100
AcDbEntity
  8
3D
  6
HIDDEN
 48
0.001
100
AcDbCircle
 10
0.029999999999518
 20
-0.0100000000003888
 30
0.0
 40
0.004
  0
CIRCLE
  5
74
330
2
100
AcDbEntity
  8
3D
  6
HIDDEN
 48
0.001
100
AcDbCircle
 10
0.029999999999518
 20
-0.0299999999970169
 30
0.0
 40
0.004
  0
CIRCLE
  5
75
330
2
100
AcDbEntity
  8
3D
  6
HIDDEN
 48
0.001
100
AcDbCircle
 10
0.0499999999960892
 20
-0.0100000000004172
 30
0.0
 40
0.004
  0
CIRCLE
  5
76
330
2
100
AcDbEntity
  8
3D
  6
HIDDEN
 48
0.001
100
AcDbCircle
 10
0.0499999999960892
 20
-0.0299999999970453
 30
0.0
 40
0.004
  0
CIRCLE
  5
77
330
2
100
AcDbEntity
  8
3D
  6
HIDDEN
 48
0.001
100
AcDbCircle
 10
-0.0099999999982856
 20
-0.0100000000003036
 30
0.0
 40
0.004
  0
CIRCLE
  5
78
330
2
100
AcDbEntity
  8
3D
  6
HIDDEN
 48
0.001
100
AcDbCircle
 10
-0.0099999999982856
 20
-0.0299999999969316
 30
0.0
 40
0.004
  0
CIRCLE
  5
79
330
2
100
AcDbEntity
  8
3D
  6
HIDDEN
 48
0.001
100
AcDbCircle
 10
-0.029999999999518
 20
-0.0100000000002467
 30
0.0
 40
0.004
  0
CIRCLE
  5
7A
330
2
100
AcDbEntity
  8
3D
  6
HIDDEN
 48
0.001
100
AcDbCircle
 10
-0.029999999999518
 20
-0.0299999999968748
 30
0.0
 40
0.004
  0
CIRCLE
  5
7B
330
2
100
AcDbEntity
  8
3D
  6
HIDDEN
 48
0.001
100
AcDbCircle
 10
-0.0500000000007503
 20
-0.0100000000002183
 30
0.0
 40
0.004
  0
CIRCLE
  5
7C
330
2
100
AcDbEntity
  8
3D
  6
HIDDEN
 48
0.001
100
AcDbCircle
 10
-0.0500000000007503
 20
-0.0299999999968463
 30
0.0
 40
0.004
  0
LINE
  5
7D
330
2
100
AcDbEntity
  8
3D
 62
     7
100
AcDbLine
 10
-0.0147081175887252
 20
-0.2590138500993646
 30
0.0
 11
0.0244116391339731
 21
-0.2590138500993646
 31
0.0
  0
LINE
  5
7E
330
2
100
AcDbEntity
  8
3D
 62
     7
100
AcDbLine
 10
-0.0147081175887252
 20
-0.2704424215279175
 30
0.0
 11
-0.0012592813175161
 21
-0.2704424215279175
 31
0.0
  0
ARC
  5
7F
330
2
100
AcDbEntity
  8
3D
 62
     7
100
AcDbCircle
 10
0.004455004396732
 20
-0.2704424215279175
 30
0.0
 40
0.0057142857142857
100
AcDbArc
 50
0.0
 51
180.0
  0
LINE
  5
80
330
2
100
AcDbEntity
  8
3D
 62
     7
100
AcDbLine
 10
0.01016929011098
 20
-0.2704424215279175
 30
0.0
 11
0.0244116391339731
 21
-0.2704424215279175
 31
0.0
  0
SPLINE
  5
81
330
2
100
AcDbEntity
  8
3D
 62
     7
100
AcDbSpline
210
0.0
220
0.0
230
1.0
 70
  1064
 71
     3
 72
    10
 73
     6
 74
     4
 42
0.000000001
 43
0.0000000001
 44
0.0000000001
 40
0.0
 40
0.0
 40
0.0
 40
0.0
 40
0.0055058108135951
 40
0.0104000314620991
 40
0.0144140247356856
 40
0.0144140247356856
 40
0.0144140247356856
 40
0.0144140247356856
 10
-0.0147081175887252
 20
-0.2590138500993646
 30
0.0000000000000568
 10
-0.0127611316349885
 20
-0.2606306646170537
 30
0.0000000000000568
 10
-0.0090834325895912
 20
-0.263684696515611
 30
0.0000000000000568
 10
-0.0165795949515086
 20
-0.2657467691087447
 30
0.0000000000000568
 10
-0.0152894499750573
 20
-0.268983822626069
 30
0.0000000000000568
 10
-0.0147081175887252
 20
-0.2704424215279175
 30
0.0000000000000568
 11
-0.0147081175887252
 21
-0.2590138500993646
 31
0.0000000000000568
 11
-0.0114137693664134
 21
-0.2634253376608626
 31
0.0000000000000568
 11
-0.0152495448322725
 21
-0.2664651110622458
 31
0.0000000000000568
 11
-0.0147081175887252
 21
-0.2704424215279175
 31
0.0000000000000568
  0
SPLINE
  5
82
330
2
100
AcDbEntity
  8
3D
 62
     7
100
AcDbSpline
210
0.0
220
0.0
230
1.0
 70
  1064
 71
     3
 72
    10
 73
     6
 74
     4
 42
0.000000001
 43
0.0000000001
 44
0.0000000001
 40
0.0
 40
0.0
 40
0.0
 40
0.0
 40
0.0055058108136631
 40
0.0104000314622563
 40
0.0144140247358427
 40
0.0144140247358427
 40
0.0144140247358427
 40
0.0144140247358427
 10
0.0244116391339731
 20
-0.2590138500993646
 30
0.0000000000000568
 10
0.0224646531803501
 20
-0.2606306646170537
 30
0.0000000000000568
 10
0.0187869541347254
 20
-0.2636846965156394
 30
0.0000000000000568
 10
0.0262831164968702
 20
-0.2657467691086879
 30
0.0000000000000568
 10
0.0249929715203052
 20
-0.2689838226260122
 30
0.0000000000000568
 10
0.0244116391339731
 20
-0.2704424215279175
 30
0.0000000000000568
 11
0.0244116391339731
 21
-0.2590138500993646
 31
0.0000000000000568
 11
0.0211172909115476
 21
-0.2634253376608626
 31
0.0000000000000568
 11
0.0249530663775204
 21
-0.2664651110622458
 31
0.0000000000000568
 11
0.0244116391339731
 21
-0.2704424215279175
 31
0.0000000000000568
  0
MTEXT
  5
83
330
2
100
AcDbEntity
  8
3D
100
AcDbMText
 10
0.0056177191013376
 20
-0.3069929321599716
 30
0.0
 40
0.004
 41
0.0
 46
0.0
 71
     5
 72
     1
  1
{\LSECTION B-B}
  7
SIMPLEX
 73
     1
 44
1.0
  0
HATCH
  5
85
330
2
100
AcDbEntity
  8
3D
100
AcDbHatch
 10
0.0
 20
0.0
 30
0.0
210
0.0
220
0.0
230
1.0
  2
ANSI31
 70
     0
 71
     0
 91
        1
 92
        1
 93
        6
 72
     4
 94
        3
 73
     0
 74
     0
 95
       10
 96
        6
 40
0.0
 40
0.0
 40
0.0
 40
0.0
 40
0.0038540675695471
 40
0.0072800220235445
 40
0.0100898173150571
 40
0.0100898173150571
 40
0.0100898173150571
 40
0.0100898173150571
 10
0.0244116391339731
 20
-0.2590138500993646
 10
0.0224646531803501
 20
-0.2606306646170537
 10
0.0187869541347254
 20
-0.2636846965156394
 10
0.0262831164968702
 20
-0.2657467691087163
 10
0.0249929715203052
 20
-0.2689838226259553
 10
0.0244116391339731
 20
-0.2704424215279175
 97
        0
 72
     1
 10
0.0244116391339731
 20
-0.2704424215279175
 11
0.01016929011098
 21
-0.2704424215279175
 72
     2
 10
0.004455004396732
 20
-0.2704424215279175
 40
0.0057142857142857
 50
0.0
 51
180.0
 73
     1
 72
     1
 10
-0.0012592813175161
 20
-0.2704424215279175
 11
-0.0147081175888388
 21
-0.2704424215279175
 72
     4
 94
        3
 73
     0
 74
     0
 95
       10
 96
        6
 40
0.0
 40
0.0
 40
0.0
 40
0.0
 40
0.0028097952915126
 40
0.0062357497455099
 40
0.0100898173150571
 40
0.0100898173150571
 40
0.0100898173150571
 40
0.0100898173150571
 10
-0.0147081175887252
 20
-0.2704424215279175
 10
-0.015289449975171
 20
-0.2689838226259553
 10
-0.0165795949516223
 20
-0.2657467691087163
 10
-0.0090834325894775
 20
-0.2636846965156394
 10
-0.0127611316351022
 20
-0.2606306646170537
 10
-0.0147081175887252
 20
-0.2590138500993646
 97
        0
 72
     1
 10
-0.0147081175887252
 20
-0.2590138500993646
 11
0.0244116391340867
 21
-0.2590138500993646
 97
        0
 75
     0
 76
     1
 52
0.0
 41
0.0142857142857143
 77
     0
 78
     1
 53
45.0
 43
-205.8591651197787
 44
394.1352905872946
 45
-0.0012626906806903
 46
0.0012626906806903
 79
     0
 98
        1
 10
-205.8591651197787
 20
394.1352905872946
  0
LINE
  5
86
330
2
100
AcDbEntity
  8
3D
100
AcDbLine
 10
-0.0157081175888152
 20
-0.2704424215279175
 30
0.0
 11
-0.0350702097136946
 21
-0.2704424215279175
 31
0.0
  0
LINE
  5
87
330
2
100
AcDbEntity
  8
3D
100
AcDbLine
 10
0.0034550043967556
 20
-0.2647281358136126
 30
0.0
 11
-0.0350702097136946
 21
-0.2647281358136126
 31
0.0
  0
LINE
  5
88
330
2
100
AcDbEntity
  8
3D
100
AcDbLine
 10
-0.0340702097137182
 20
-0.2744424215279082
 30
0.0
 11
-0.0340702097137182
 21
-0.2784424215278989
 31
0.0
  0
LINE
  5
89
330
2
100
AcDbEntity
  8
3D
100
AcDbLine
 10
-0.0340702097137182
 20
-0.260728135813622
 30
0.0
 11
-0.0340702097137182
 21
-0.2567281358136313
 31
0.0
  0
SOLID
  5
8A
330
2
100
AcDbEntity
  8
3D
100
AcDbTrace
 10
-0.0347368763802933
 20
-0.2744424215279082
 30
0.0
 11
-0.0334035430470294
 21
-0.2744424215279082
 31
0.0
 12
-0.0340702097137182
 22
-0.2704424215279175
 32
0.0
 13
-0.0340702097137182
 23
-0.2704424215279175
 33
0.0
  0
SOLID
  5
8C
330
2
100
AcDbEntity
  8
3D
100
AcDbTrace
 10
-0.0347368763802933
 20
-0.260728135813622
 30
0.0
 11
-0.0334035430470294
 21
-0.260728135813622
 31
0.0
 12
-0.0340702097137182
 22
-0.2647281358136126
 32
0.0
 13
-0.0340702097137182
 23
-0.2647281358136126
 33
0.0
  0
MTEXT
  5
8D
330
2
100
AcDbEntity
  8
3D
100
AcDbMText
 10
-0.0340702097137182
 20
-0.2330844080065049
 30
0.0
 40
0.004
 41
0.0
 46
0.0
 71
     5
 72
     1
  1
\A1;0.0024~0.0056
  7
SIMPLEX
 11
0.0000000000000001
 21
1.0
 31
0.0
 73
     1
 44
1.0
  0
LINE
  5
8E
330
2
100
AcDbEntity
  8
3D
100
AcDbLine
 10
-0.0012592813175161
 20
-0.2714424215278939
 30
0.0
 11
-0.0012592813175161
 21
-0.2908786458453392
 31
0.0
  0
LINE
  5
8F
330
2
100
AcDbEntity
  8
3D
100
AcDbLine
 10
0.0101692901110937
 20
-0.2714424215278939
 30
0.0
 11
0.0101692901110937
 21
-0.2908786458453392
 31
0.0
  0
LINE
  5
90
330
2
100
AcDbEntity
  8
3D
100
AcDbLine
 10
-0.0052592813175352
 20
-0.2898786458453344
 30
0.0
 11
-0.0092592813175543
 21
-0.2898786458453344
 31
0.0
  0
LINE
  5
91
330
2
100
AcDbEntity
  8
3D
100
AcDbLine
 10
0.0141692901109991
 20
-0.2898786458453344
 30
0.0
 11
0.0181692901110182
 21
-0.2898786458453344
 31
0.0
  0
SOLID
  5
92
330
2
100
AcDbEntity
  8
3D
100
AcDbTrace
 10
-0.0052592813175352
 20
-0.289211979178674
 30
0.0
 11
-0.0052592813175352
 21
-0.2905453125120232
 31
0.0
 12
-0.0012592813175161
 22
-0.2898786458453344
 32
0.0
 13
-0.0012592813175161
 23
-0.2898786458453344
 33
0.0
  0
SOLID
  5
93
330
2
100
AcDbEntity
  8
3D
100
AcDbTrace
 10
0.0141692901109991
 20
-0.289211979178674
 30
0.0
 11
0.0141692901109991
 21
-0.2905453125120232
 31
0.0
 12
0.0101692901110937
 22
-0.2898786458453344
 32
0.0
 13
0.0101692901110937
 23
-0.2898786458453344
 33
0.0
  0
MTEXT
  5
94
330
2
100
AcDbEntity
  8
3D
100
AcDbMText
 10
0.0299287504110453
 20
-0.2898786458453344
 30
0.0
 40
0.004
 41
0.0
 46
0.0
 71
     5
 72
     1
  1
\A1;0.0080
  7
SIMPLEX
 73
     1
 44
1.0
  0
SOLID
  5
95
330
2
100
AcDbEntity
  8
3D
100
AcDbTrace
 10
0.0000802591340516
 20
-0.255800130508959
 30
0.0
 11
-0.0023928868056373
 21
-0.2590138500993646
 31
0.0
 12
-0.0010957118649912
 22
-0.2551717436955982
 32
0.0
 13
-0.0010957118649912
 23
-0.2551717436955982
 33
0.0
1001
ACAD
1000
DSTYLE
1002
{
1070
   147
1040
0.001
1070
    77
1070
     0
1002
}
  0
LINE
  5
96
330
2
100
AcDbEntity
  8
3D
100
AcDbLine
 10
-0.0005077263655267
 20
-0.2554859371022644
 30
0.0
 11
0.0056304022672293
 21
-0.2439989658502952
 31
0.0
1001
ACAD
1000
DSTYLE
1002
{
1070
   147
1040
0.001
1070
    77
1070
     0
1002
}
  0
LINE
  5
97
330
2
100
AcDbEntity
  8
3D
100
AcDbLine
 10
0.0056304022672293
 20
-0.2439989658502952
 30
0.0
 11
0.0096304022672484
 21
-0.2439989658502952
 31
0.0
1001
ACAD
1000
DSTYLE
1002
{
1070
   147
1040
0.001
1070
    77
1070
     0
1002
}
  0
MTEXT
  5
98
330
2
100
AcDbEntity
  8
3D
100
AcDbMText
 10
0.0106304022672248
 20
-0.2419989658502857
 30
0.0
 40
0.004
 41
0.0
 46
0.0
 71
     1
 72
     1
  1
\A1;TOP
  7
SIMPLEX
 73
     1
 44
1.0
  0
LINE
  5
99
330
2
100
AcDbEntity
  8
3D
  6
CENTER
 48
0.2
100
AcDbLine
 10
-0.0625000000012506
 20
-0.0893999999960613
 30
0.0
 11
-0.0625000000012506
 21
-0.0573999999983244
 31
0.0
  0
LINE
  5
9A
330
2
100
AcDbEntity
  8
3D
  6
CENTER
 48
0.2
100
AcDbLine
 10
-0.0375000000015007
 20
-0.0893999999961182
 30
0.0
 11
-0.0375000000012733
 21
-0.0573999999983812
 31
0.0
  0
LINE
  5
9B
330
2
100
AcDbEntity
  8
3D
100
AcDbLine
 10
0.1919999999989841
 20
0.0871999999988589
 30
0.0
 11
0.1919999999988704
 21
0.1195309913557025
 31
0.0
  0
MTEXT
  5
9C
330
2
100
AcDbEntity
  8
3D
100
AcDbMText
 10
0.1919999999988704
 20
0.1293976580224694
 30
0.0
 40
0.004
 41
0.0
 46
0.0
 71
     5
 72
     1
  1
\A1;0.1920
 11
0.0000000000000001
 21
1.0
 31
0.0
 73
     1
 44
1.0
  0
LINE
  5
9D
330
2
100
AcDbEntity
  8
3D
100
AcDbLine
 10
-0.0375000000015007
 20
-0.0905999999961296
 30
0.0
 11
-0.0375000000015007
 21
-0.1202448054225158
 31
0.0
  0
LINE
  5
9E
330
2
100
AcDbEntity
  8
3D
100
AcDbLine
 10
-0.0625000000012506
 20
-0.090599999996158
 30
0.0
 11
-0.0625000000012506
 21
-0.120244805422459
 31
0.0
  0
LINE
  5
9F
330
2
100
AcDbEntity
  8
3D
100
AcDbLine
 10
-0.0335000000014816
 20
-0.1190448054225328
 30
0.0
 11
-0.0295000000014625
 21
-0.1190448054225328
 31
0.0
  0
LINE
  5
A0
330
2
100
AcDbEntity
  8
3D
100
AcDbLine
 10
-0.0665000000012697
 20
-0.1190448054224191
 30
0.0
 11
-0.0705000000011751
 21
-0.1190448054224191
 31
0.0
  0
LINE
  5
A1
330
2
100
AcDbEntity
  8
3D
100
AcDbLine
 10
-0.0375000000015007
 20
-0.1190448054225044
 30
0.0
 11
-0.0625000000012506
 21
-0.1190448054224475
 31
0.0
  0
SOLID
  5
A2
330
2
100
AcDbEntity
  8
3D
100
AcDbTrace
 10
-0.0335000000014816
 20
-0.1197114720891932
 30
0.0
 11
-0.0335000000014816
 21
-0.1183781387558724
 31
0.0
 12
-0.0375000000015007
 22
-0.1190448054225044
 32
0.0
 13
-0.0375000000015007
 23
-0.1190448054225044
 33
0.0
  0
SOLID
  5
A3
330
2
100
AcDbEntity
  8
3D
100
AcDbTrace
 10
-0.0665000000012697
 20
-0.1197114720890795
 30
0.0
 11
-0.0665000000012697
 21
-0.1183781387557587
 31
0.0
 12
-0.0625000000012506
 22
-0.1190448054224475
 32
0.0
 13
-0.0625000000012506
 23
-0.1190448054224475
 33
0.0
  0
MTEXT
  5
A4
330
2
100
AcDbEntity
  8
3D
100
AcDbMText
 10
-0.0807000000012295
 20
-0.1190448054223907
 30
0.0
 40
0.004
 41
0.0
 46
0.0
 71
     5
 72
     1
  1
\A1;0.0250
 11
1.0
 21
-0.0000000000029422
 31
0.0
 73
     1
 44
1.0
  0
LINE
  5
A5
330
2
100
AcDbEntity
  8
3D
100
AcDbLine
 10
-0.1729999999975007
 20
0.0791999999988775
 30
0.0
 11
-0.1729999999975007
 21
0.1195309913557025
 31
0.0
  0
MTEXT
  5
A6
330
2
100
AcDbEntity
  8
3D
100
AcDbMText
 10
-0.1729999999975007
 20
0.1293976580224694
 30
0.0
 40
0.004
 41
0.0
 46
0.0
 71
     5
 72
     1
  1
\A1;0.1730
 11
0.0000000000000001
 21
1.0
 31
0.0
 73
     1
 44
1.0
  0
LINE
  5
A7
330
2
100
AcDbEntity
  8
3D
100
AcDbLine
 10
-0.1919999999973925
 20
0.0871999999988589
 30
0.0
 11
-0.1919999999973925
 21
0.1195309913557025
 31
0.0
  0
MTEXT
  5
A8
330
2
100
AcDbEntity
  8
3D
100
AcDbMText
 10
-0.1919999999973925
 20
0.1293976580224694
 30
0.0
 40
0.004
 41
0.0
 46
0.0
 71
     5
 72
     1
  1
\A1;0.1920
 11
0.0000000000000001
 21
1.0
 31
0.0
 73
     1
 44
1.0
  0
LINE
  5
A9
330
2
100
AcDbEntity
  8
3D
100
AcDbLine
 10
-0.1931999999974323
 20
0.0859999999988475
 30
0.0
 11
-0.21388524285328
 21
0.0859999999988475
 31
0.0
  0
MTEXT
  5
AA
330
2
100
AcDbEntity
  8
3D
100
AcDbMText
 10
-0.2240852428533344
 20
0.0859999999988475
 30
0.0
 40
0.004
 41
0.0
 46
0.0
 71
     5
 72
     1
  1
\A1;0.0860
 73
     1
 44
1.0
  0
LINE
  5
AB
330
2
100
AcDbEntity
  8
3D
100
AcDbLine
 10
-0.1931999999974323
 20
0.0779999999988661
 30
0.0
 11
-0.21388524285328
 21
0.0779999999988661
 31
0.0
  0
MTEXT
  5
AC
330
2
100
AcDbEntity
  8
3D
100
AcDbMText
 10
-0.2240852428533344
 20
0.0779999999988661
 30
0.0
 40
0.004
 41
0.0
 46
0.0
 71
     5
 72
     1
  1
\A1;0.0780
 73
     1
 44
1.0
  0
LINE
  5
AD
330
2
100
AcDbEntity
  8
3D
100
AcDbLine
 10
-0.1646333333327448
 20
-0.0059999999994602
 30
0.0
 11
-0.1978852428519531
 21
-0.0059999999994602
 31
0.0
  0
LINE
  5
AE
330
2
100
AcDbEntity
  8
3D
100
AcDbLine
 10
-0.1978852428519531
 20
-0.0059999999994602
 30
0.0
 11
-0.2058852428518776
 21
-0.0081447331666311
 31
0.0
  0
LINE
  5
AF
330
2
100
AcDbEntity
  8
3D
100
AcDbLine
 10
-0.2058852428518776
 20
-0.0081447331666311
 30
0.0
 11
-0.2138852428519158
 21
-0.0081447331666311
 31
0.0
  0
MTEXT
  5
B0
330
2
100
AcDbEntity
  8
3D
100
AcDbMText
 10
-0.2238519095185438
 20
-0.0081447331666311
 30
0.0
 40
0.004
 41
0.0
 46
0.0
 71
     5
 72
     1
  1
\A1;0.0060
 73
     1
 44
1.0
  0
LINE
  5
B1
330
2
100
AcDbEntity
  8
3D
100
AcDbLine
 10
-0.1742999999963786
 20
0.003999999998257
 30
0.0
 11
-0.1978852428519531
 21
0.003999999998257
 31
0.0
  0
LINE
  5
B2
330
2
100
AcDbEntity
  8
3D
100
AcDbLine
 10
-0.1978852428519531
 20
0.003999999998257
 30
0.0
 11
-0.2058852428518776
 21
0.0066710756240411
 31
0.0
  0
LINE
  5
B3
330
2
100
AcDbEntity
  8
3D
100
AcDbLine
 10
-0.2058852428518776
 20
0.0066710756240411
 30
0.0
 11
-0.2138852428519158
 21
0.0066710756240411
 31
0.0
  0
MTEXT
  5
B4
330
2
100
AcDbEntity
  8
3D
100
AcDbMText
 10
-0.2238519095185438
 20
0.0066710756240411
 30
0.0
 40
0.004
 41
0.0
 46
0.0
 71
     5
 72
     1
  1
\A1;0.0040
 73
     1
 44
1.0
  0
LINE
  5
B5
330
2
100
AcDbEntity
  8
3D
100
AcDbLine
 10
0.033168503939919
 20
-0.0300000000003422
 30
0.0
 11
0.1967392038924345
 21
-0.0300000000003422
 31
0.0
  0
LINE
  5
B6
330
2
100
AcDbEntity
  8
3D
100
AcDbLine
 10
0.1955392038923946
 20
-0.0060000000003413
 30
0.0
 11
0.1955392038923946
 21
-0.0020000000003222
 31
0.0
  0
LINE
  5
B7
330
2
100
AcDbEntity
  8
3D
100
AcDbLine
 10
0.1955392038923946
 20
-0.0340000000003329
 30
0.0
 11
0.1955392038923946
 21
-0.038000000000352
 31
0.0
  0
LINE
  5
B8
330
2
100
AcDbEntity
  8
3D
100
AcDbLine
 10
0.1955392038923946
 20
-0.010000000000332
 30
0.0
 11
0.1955392038923946
 21
-0.0300000000003422
 31
0.0
  0
SOLID
  5
B9
330
2
100
AcDbEntity
  8
3D
100
AcDbTrace
 10
0.1948725372257058
 20
-0.0060000000003413
 30
0.0
 11
0.1962058705590834
 21
-0.0060000000003413
 31
0.0
 12
0.1955392038923946
 22
-0.010000000000332
 32
0.0
 13
0.1955392038923946
 23
-0.010000000000332
 33
0.0
  0
SOLID
  5
BA
330
2
100
AcDbEntity
  8
3D
100
AcDbTrace
 10
0.1948725372257058
 20
-0.0340000000003329
 30
0.0
 11
0.1962058705590834
 21
-0.0340000000003329
 31
0.0
 12
0.1955392038923946
 22
-0.0300000000003422
 32
0.0
 13
0.1955392038923946
 23
-0.0300000000003422
 33
0.0
  0
MTEXT
  5
BB
330
2
100
AcDbEntity
  8
3D
100
AcDbMText
 10
0.1955392038923946
 20
-0.0478666666668914
 30
0.0
 40
0.004
 41
0.0
 46
0.0
 71
     5
 72
     1
  1
\A1;0.0200
 11
0.0000000000000001
 21
1.0
 31
0.0
 73
     1
 44
1.0
  0
LINE
  5
BC
330
2
100
AcDbEntity
  8
3D
100
AcDbLine
 10
0.0100000000028331
 20
-0.0331685039373611
 30
0.0
 11
0.0100000000028331
 21
-0.1148317543216706
 31
0.0
  0
MTEXT
  5
BD
330
2
100
AcDbEntity
  8
3D
100
AcDbMText
 10
0.0100000000028331
 20
-0.1240317543215497
 30
0.0
 40
0.004
 41
0.0
 46
0.0
 71
     5
 72
     1
  1
\A1;0.0100
 11
0.0000000000000001
 21
1.0
 31
0.0
 73
     1
 44
1.0
  0
LINE
  5
BE
330
2
100
AcDbEntity
  8
3D
100
AcDbLine
 10
0.0100000000028331
 20
-0.0331685039373611
 30
0.0
 11
0.0100000000028331
 21
-0.1011678474987434
 31
0.0
  0
LINE
  5
BF
330
2
100
AcDbEntity
  8
3D
100
AcDbLine
 10
0.0300000000028149
 20
-0.0331685039373611
 30
0.0
 11
0.0300000000028149
 21
-0.1011678474987434
 31
0.0
  0
LINE
  5
C0
330
2
100
AcDbEntity
  8
3D
100
AcDbLine
 10
0.006000000002814
 20
-0.099967847498732
 30
0.0
 11
0.0020000000027949
 21
-0.099967847498732
 31
0.0
  0
LINE
  5
C1
330
2
100
AcDbEntity
  8
3D
100
AcDbLine
 10
0.034000000002834
 20
-0.099967847498732
 30
0.0
 11
0.0380000000028531
 21
-0.099967847498732
 31
0.0
  0
LINE
  5
C2
330
2
100
AcDbEntity
  8
3D
100
AcDbLine
 10
0.0100000000028331
 20
-0.099967847498732
 30
0.0
 11
0.0300000000028149
 21
-0.099967847498732
 31
0.0
  0
SOLID
  5
C3
330
2
100
AcDbEntity
  8
3D
100
AcDbTrace
 10
0.006000000002814
 20
-0.0993011808320716
 30
0.0
 11
0.006000000002814
 21
-0.1006345141653924
 31
0.0
 12
0.0100000000028331
 22
-0.099967847498732
 32
0.0
 13
0.0100000000028331
 23
-0.099967847498732
 33
0.0
  0
SOLID
  5
C4
330
2
100
AcDbEntity
  8
3D
100
AcDbTrace
 10
0.034000000002834
 20
-0.0993011808320716
 30
0.0
 11
0.034000000002834
 21
-0.1006345141653924
 31
0.0
 12
0.0300000000028149
 22
-0.099967847498732
 32
0.0
 13
0.0300000000028149
 23
-0.099967847498732
 33
0.0
  0
MTEXT
  5
C5
330
2
100
AcDbEntity
  8
3D
100
AcDbMText
 10
0.0478666666695062
 20
-0.099967847498732
 30
0.0
 40
0.004
 41
0.0
 46
0.0
 71
     5
 72
     1
  1
\A1;0.0200
 73
     1
 44
1.0
  0
LINE
  5
C6
330
2
100
AcDbEntity
  8
3D
100
AcDbLine
 10
0.0
 20
0.0521682545775946
 30
0.0
 11
0.0
 21
0.1195309913549067
 31
0.0
  0
MTEXT
  5
C7
330
2
100
AcDbEntity
  8
3D
100
AcDbMText
 10
0.0
 20
0.1290643246883576
 30
0.0
 40
0.004
 41
0.0
 46
0.0
 71
     5
 72
     1
  1
\A1;0.0000
 11
0.0000000000000001
 21
1.0
 31
0.0
 73
     1
 44
1.0
  0
LINE
  5
C8
330
2
100
AcDbEntity
  8
3D
100
AcDbLine
 10
-0.0521682545788735
 20
-0.0000000000015632
 30
0.0
 11
-0.2138852428568043
 21
-0.0000000000015632
 31
0.0
  0
MTEXT
  5
C9
330
2
100
AcDbEntity
  8
3D
100
AcDbMText
 10
-0.2234185761901699
 20
-0.0000000000015632
 30
0.0
 40
0.004
 41
0.0
 46
0.0
 71
     5
 72
     1
  1
\A1;0.0000
 73
     1
 44
1.0
  0
LINE
  5
CA
330
2
100
AcDbEntity
  8
3D
  6
CENTER
 48
2.5
100
AcDbLine
 10
0.0080314960658825
 20
-0.010000000000332
 30
0.0
 11
0.0119685039398974
 21
-0.010000000000332
 31
0.0
  0
LINE
  5
CB
330
2
100
AcDbEntity
  8
3D
  6
CENTER
 48
2.5
100
AcDbLine
 10
0.0100000000028331
 20
-0.0080314960633245
 30
0.0
 11
0.0100000000028331
 21
-0.0119685039373394
 31
0.0
  0
LINE
  5
CC
330
2
100
AcDbEntity
  8
3D
100
AcDbLine
 10
-0.0169690040170281
 20
-0.0295275590518998
 30
0.0
 11
-0.0407480704690215
 21
-0.0295275590518713
 31
0.0
  0
LINE
  5
CD
330
2
100
AcDbEntity
  8
3D
100
AcDbLine
 10
-0.0397480704690452
 20
-0.033527559051862
 30
0.0
 11
-0.0397480704690452
 21
-0.0375275590518527
 31
0.0
  0
SOLID
  5
CE
330
2
100
AcDbEntity
  8
3D
100
AcDbTrace
 10
-0.0404147371355066
 20
-0.033527559051862
 30
0.0
 11
-0.0390814038022427
 21
-0.033527559051862
 31
0.0
 12
-0.0397480704690452
 22
-0.0295275590518713
 32
0.0
 13
-0.0397480704690452
 23
-0.0295275590518713
 33
0.0
  0
LINE
  5
CF
330
2
100
AcDbEntity
  8
3D
100
AcDbLine
 10
-0.0179511042171043
 20
-0.033527559051862
 30
0.0
 11
-0.0179511042171043
 21
-0.0375275590518527
 31
0.0
  0
SOLID
  5
D0
330
2
100
AcDbEntity
  8
3D
100
AcDbTrace
 10
-0.0186177708836795
 20
-0.033527559051862
 30
0.0
 11
-0.0172844375504155
 21
-0.033527559051862
 31
0.0
 12
-0.0179511042171043
 22
-0.0295275590518713
 32
0.0
 13
-0.0179511042171043
 23
-0.0295275590518713
 33
0.0
  0
MTEXT
  5
D1
330
2
100
AcDbEntity
  8
3D
100
AcDbMText
 10
-0.0421430520478907
 20
-0.0404130021013316
 30
0.0
 40
0.0039370078740157
 41
0.1181102362204724
 46
0.0
 71
     9
 72
     1
  1
\A1;B
 73
     1
 44
1.0
  0
MTEXT
  5
D2
330
2
100
AcDbEntity
  8
3D
100
AcDbMText
 10
-0.0132191181676262
 20
-0.0404130021013316
 30
0.0
 40
0.0039370078740157
 41
0.1181102362204724
 46
0.0
 71
     9
 72
     1
  1
\A1;B
 73
     1
 44
1.0
  0
LINE
  5
D3
330
2
100
AcDbEntity
  8
3D
  6
CENTER
 48
2.5
100
AcDbLine
 10
0.0080314960658825
 20
-0.0300000000003422
 30
0.0
 11
0.0119685039398974
 21
-0.0300000000003422
 31
0.0
  0
LINE
  5
D4
330
2
100
AcDbEntity
  8
3D
  6
CENTER
 48
2.5
100
AcDbLine
 10
0.0100000000028331
 20
-0.0280314960633348
 30
0.0
 11
0.0100000000028331
 21
-0.0319685039373496
 31
0.0
  0
LINE
  5
D5
330
2
100
AcDbEntity
  8
3D
  6
CENTER
 48
2.5
100
AcDbLine
 10
0.0280314960658643
 20
-0.0300000000003422
 30
0.0
 11
0.0319685039398792
 21
-0.0300000000003422
 31
0.0
  0
LINE
  5
D6
330
2
100
AcDbEntity
  8
3D
  6
CENTER
 48
2.5
100
AcDbLine
 10
0.0300000000028149
 20
-0.0280314960633348
 30
0.0
 11
0.0300000000028149
 21
-0.0319685039373496
 31
0.0
  0
LINE
  5
D7
330
2
100
AcDbEntity
  8
3D
  6
CENTER
 48
2.5
100
AcDbLine
 10
0.0280314960658643
 20
-0.010000000000332
 30
0.0
 11
0.0319685039398792
 21
-0.010000000000332
 31
0.0
  0
LINE
  5
D8
330
2
100
AcDbEntity
  8
3D
  6
CENTER
 48
2.5
100
AcDbLine
 10
0.0300000000028149
 20
-0.0080314960633245
 30
0.0
 11
0.0300000000028149
 21
-0.0119685039373394
 31
0.0
  0
LINE
  5
D9
330
2
100
AcDbEntity
  8
3D
100
AcDbLine
 10
-0.171199999998862
 20
-0.0760000000004766
 30
0.0
 11
-0.2138852428541895
 21
-0.0760000000004766
 31
0.0
  0
MTEXT
  5
DA
330
2
100
AcDbEntity
  8
3D
100
AcDbMText
 10
-0.2320852428541684
 20
-0.0760000000004766
 30
0.0
 40
0.004
 41
0.0
 46
0.0
 71
     5
 72
     1
  1
\A1;0.0760 PKG
 73
     1
 44
1.0
  0
LINE
  5
DB
330
2
100
AcDbEntity
  8
3D
100
AcDbLine
 10
-0.1699999999988222
 20
-0.077200000000488
 30
0.0
 11
-0.1699999999988222
 21
-0.0974217814817564
 31
0.0
  0
MTEXT
  5
DC
330
2
100
AcDbEntity
  8
3D
100
AcDbMText
 10
-0.1699999999988222
 20
-0.1149551148149897
 30
0.0
 40
0.004
 41
0.0
 46
0.0
 71
     5
 72
     1
  1
\A1;0.1700 PKG
 11
0.0000000000000001
 21
1.0
 31
0.0
 73
     1
 44
1.0
  0
LINE
  5
DD
330
2
100
AcDbEntity
  8
3D
100
AcDbLine
 10
0.033168503939919
 20
-0.010000000000332
 30
0.0
 11
0.2138852428582822
 21
-0.010000000000332
 31
0.0
  0
MTEXT
  5
DE
330
2
100
AcDbEntity
  8
3D
100
AcDbMText
 10
0.2230852428582466
 20
-0.010000000000332
 30
0.0
 40
0.004
 41
0.0
 46
0.0
 71
     5
 72
     1
  1
\A1;0.0100
 73
     1
 44
1.0
  0
SOLID
  5
DF
330
2
100
AcDbEntity
  8
3D
100
AcDbTrace
 10
0.0662500701097315
 20
0.0432633415767043
 30
0.0
 11
0.0685355339060152
 21
0.0465355339079849
 31
0.0
 12
0.0674348602602777
 22
0.042698985336358
 32
0.0
 13
0.0674348602602777
 23
0.042698985336358
 33
0.0
1001
ACAD
1000
DSTYLE
1002
{
1070
    77
1070
     0
1070
    41
1040
0.1
1070
    42
1040
0.03
1070
    43
1040
0.03
1070
    44
1040
0.03
1070
    90
1070
     1
1070
   140
1040
0.1
1070
   147
1040
0.03
1002
}
  0
LINE
  5
E0
330
2
100
AcDbEntity
  8
3D
100
AcDbLine
 10
0.0668424651848909
 20
0.0429811634565454
 30
0.0
 11
0.0562714400166442
 21
0.0200011983329773
 31
0.0
1001
ACAD
1000
DSTYLE
1002
{
1070
    77
1070
     0
1070
    41
1040
0.1
1070
    42
1040
0.03
1070
    43
1040
0.03
1070
    44
1040
0.03
1070
    90
1070
     1
1070
   140
1040
0.1
1070
   147
1040
0.03
1002
}
  0
LINE
  5
E1
330
2
100
AcDbEntity
  8
3D
100
AcDbLine
 10
0.0562714400166442
 20
0.0200011983329773
 30
0.0
 11
0.0523344321426294
 21
0.0200011983329773
 31
0.0
1001
ACAD
1000
DSTYLE
1002
{
1070
    77
1070
     0
1070
    41
1040
0.1
1070
    42
1040
0.03
1070
    43
1040
0.03
1070
    44
1040
0.03
1070
    90
1070
     1
1070
   140
1040
0.1
1070
   147
1040
0.03
1002
}
  0
MTEXT
  5
E2
330
2
100
AcDbEntity
  8
3D
100
AcDbMText
 10
0.0511533297803908
 20
0.0180326943959415
 30
0.0
 40
0.0039370078740157
 41
0.1181102362204724
 46
0.0
 71
     9
 72
     1
  1
\A1;R0.0050
 73
     1
 44
1.0
  0
LINE
  5
E3
330
2
100
AcDbEntity
  8
3D
100
AcDbLine
 10
-0.0880000000024666
 20
0.0060000000009381
 30
0.0
 11
-0.0880000000020118
 21
-0.006000000000796
 31
0.0
  0
LINE
  5
E4
330
2
100
AcDbEntity
  8
3D
100
AcDbLine
 10
-0.0983923048355564
 20
0.0060000000009381
 30
0.0
 11
-0.0983923048355564
 21
-0.0060000000007676
 31
0.0
  0
LINE
  5
E5
330
2
100
AcDbEntity
  8
3D
100
AcDbLine
 10
0.0880000000024666
 20
0.0060000000009381
 30
0.0
 11
0.0880000000020118
 21
-0.006000000000796
 31
0.0
  0
LINE
  5
E6
330
2
100
AcDbEntity
  8
3D
100
AcDbLine
 10
0.0983923048473798
 20
0.0060000000009381
 30
0.0
 11
0.0983923048473798
 21
-0.0060000000007676
 31
0.0
  0
LINE
  5
E7
330
2
100
AcDbEntity
  8
3D
100
AcDbLine
 10
0.0464999999976499
 20
0.065299999998814
 30
0.0
 11
0.0464999999976499
 21
0.1195309913549067
 31
0.0
  0
MTEXT
  5
E8
330
2
100
AcDbEntity
  8
3D
100
AcDbMText
 10
0.0464999999976499
 20
0.1301643246883657
 30
0.0
 40
0.004
 41
0.0
 46
0.0
 71
     5
 72
     1
  1
\A1;0.0465
 11
0.0000000000000001
 21
1.0
 31
0.0
 73
     1
 44
1.0
  0
LINE
  5
E9
330
2
100
AcDbEntity
  8
3D
100
AcDbLine
 10
0.0535000000022592
 20
0.0653000000009456
 30
0.0
 11
0.0535000000022592
 21
0.1195309913549067
 31
0.0
  0
MTEXT
  5
EA
330
2
100
AcDbEntity
  8
3D
100
AcDbMText
 10
0.0535000000022592
 20
0.1301643246883657
 30
0.0
 40
0.004
 41
0.0
 46
0.0
 71
     5
 72
     1
  1
\A1;0.0535
 11
0.0000000000000001
 21
1.0
 31
0.0
 73
     1
 44
1.0
  0
LINE
  5
EB
330
2
100
AcDbEntity
  8
3D
100
AcDbLine
 10
0.0715000000022883
 20
0.0653000000009456
 30
0.0
 11
0.0715000000022883
 21
0.1195309913549067
 31
0.0
  0
MTEXT
  5
EC
330
2
100
AcDbEntity
  8
3D
100
AcDbMText
 10
0.0715000000022883
 20
0.1294976580216769
 30
0.0
 40
0.004
 41
0.0
 46
0.0
 71
     5
 72
     1
  1
\A1;0.0715
 11
0.0000000000000001
 21
1.0
 31
0.0
 73
     1
 44
1.0
  0
LINE
  5
ED
330
2
100
AcDbEntity
  8
3D
100
AcDbLine
 10
0.0785000000023501
 20
0.0653000000009456
 30
0.0
 11
0.0785000000023501
 21
0.1195309913549067
 31
0.0
  0
MTEXT
  5
EE
330
2
100
AcDbEntity
  8
3D
100
AcDbMText
 10
0.0785000000023501
 20
0.1301643246883657
 30
0.0
 40
0.004
 41
0.0
 46
0.0
 71
     5
 72
     1
  1
\A1;0.0785
 11
0.0000000000000001
 21
1.0
 31
0.0
 73
     1
 44
1.0
  0
LINE
  5
EF
330
2
100
AcDbEntity
  8
3D
100
AcDbLine
 10
0.0900000000021919
 20
0.0573000000009643
 30
0.0
 11
0.0900000000021919
 21
0.1195309913549067
 31
0.0
  0
MTEXT
  5
F0
330
2
100
AcDbEntity
  8
3D
100
AcDbMText
 10
0.0900000000021919
 20
0.1294976580216769
 30
0.0
 40
0.004
 41
0.0
 46
0.0
 71
     5
 72
     1
  1
\A1;0.0900
 11
0.0000000000000001
 21
1.0
 31
0.0
 73
     1
 44
1.0
  0
LINE
  5
F1
330
2
100
AcDbEntity
  8
3D
100
AcDbLine
 10
0.0990000000022065
 20
0.0653000000009456
 30
0.0
 11
0.0990000000022065
 21
0.1195309913549067
 31
0.0
  0
MTEXT
  5
F2
330
2
100
AcDbEntity
  8
3D
100
AcDbMText
 10
0.0990000000022065
 20
0.1298309913550213
 30
0.0
 40
0.004
 41
0.0
 46
0.0
 71
     5
 72
     1
  1
\A1;0.0990
 11
0.0000000000000001
 21
1.0
 31
0.0
 73
     1
 44
1.0
  0
LINE
  5
F3
330
2
100
AcDbEntity
  8
3D
100
AcDbLine
 10
0.1220000000021173
 20
0.0653000000009456
 30
0.0
 11
0.1220000000021173
 21
0.1195309913549067
 31
0.0
  0
MTEXT
  5
F4
330
2
100
AcDbEntity
  8
3D
100
AcDbMText
 10
0.1220000000021173
 20
0.1294976580216769
 30
0.0
 40
0.004
 41
0.0
 46
0.0
 71
     5
 72
     1
  1
\A1;0.1220
 11
0.0000000000000001
 21
1.0
 31
0.0
 73
     1
 44
1.0
  0
LINE
  5
F5
330
2
100
AcDbEntity
  8
3D
100
AcDbLine
 10
0.1465000000022201
 20
0.0653000000009456
 30
0.0
 11
0.1465000000022201
 21
0.1195309913549067
 31
0.0
  0
MTEXT
  5
F6
330
2
100
AcDbEntity
  8
3D
100
AcDbMText
 10
0.1465000000022201
 20
0.1298309913550213
 30
0.0
 40
0.004
 41
0.0
 46
0.0
 71
     5
 72
     1
  1
\A1;0.1465
 11
0.0000000000000001
 21
1.0
 31
0.0
 73
     1
 44
1.0
  0
LINE
  5
F7
330
2
100
AcDbEntity
  8
3D
100
AcDbLine
 10
-0.0850000000023101
 20
0.0433000000011532
 30
0.0
 11
-0.0850000000023101
 21
0.1195309913549067
 31
0.0
  0
MTEXT
  5
F8
330
2
100
AcDbEntity
  8
3D
100
AcDbMText
 10
-0.0850000000023101
 20
0.1298309913550213
 30
0.0
 40
0.004
 41
0.0
 46
0.0
 71
     5
 72
     1
  1
\A1;0.0850
 11
0.0000000000000001
 21
1.0
 31
0.0
 73
     1
 44
1.0
  0
LINE
  5
F9
330
2
100
AcDbEntity
  8
3D
100
AcDbLine
 10
-0.0889763779548503
 20
0.0253000000011241
 30
0.0
 11
-0.0889763779548503
 21
0.1035309913549156
 31
0.0
  0
LINE
  5
FA
330
2
100
AcDbEntity
  8
3D
100
AcDbLine
 10
-0.0889763779548503
 20
0.1035309913549156
 30
0.0
 11
-0.0910787788900507
 21
0.111530991354897
 31
0.0
  0
LINE
  5
FB
330
2
100
AcDbEntity
  8
3D
100
AcDbLine
 10
-0.0910787788900507
 20
0.111530991354897
 30
0.0
 11
-0.0910787788900507
 21
0.1195309913549067
 31
0.0
  0
MTEXT
  5
FC
330
2
100
AcDbEntity
  8
3D
100
AcDbMText
 10
-0.0910787788900507
 20
0.1298309913550213
 30
0.0
 40
0.004
 41
0.0
 46
0.0
 71
     5
 72
     1
  1
\A1;0.0890
 11
0.0000000000000001
 21
1.0
 31
0.0
 73
     1
 44
1.0
  0
LINE
  5
FD
330
2
100
AcDbEntity
  8
3D
100
AcDbLine
 10
0.1050000000021782
 20
0.0433000000011532
 30
0.0
 11
0.1050000000021782
 21
0.1035309913549156
 31
0.0
  0
LINE
  5
FE
330
2
100
AcDbEntity
  8
3D
100
AcDbLine
 10
0.1050000000021782
 20
0.1035309913549156
 30
0.0
 11
0.1050000000021782
 21
0.111530991354897
 31
0.0
  0
LINE
  5
FF
330
2
100
AcDbEntity
  8
3D
100
AcDbLine
 10
0.1050000000021782
 20
0.111530991354897
 30
0.0
 11
0.1050000000021782
 21
0.1195309913549067
 31
0.0
  0
MTEXT
  5
100
330
2
100
AcDbEntity
  8
3D
100
AcDbMText
 10
0.1050000000021782
 20
0.1291643246883609
 30
0.0
 40
0.004
 41
0.0
 46
0.0
 71
     5
 72
     1
  1
\A1;0.1050
 11
-0.0000000000000001
 21
1.0
 31
0.0
 73
     1
 44
1.0
  0
LINE
  5
101
330
2
100
AcDbEntity
  8
3D
100
AcDbLine
 10
-0.1107530957466452
 20
0.0333000000011055
 30
0.0
 11
-0.1107530957466452
 21
0.1035309913549156
 31
0.0
  0
LINE
  5
102
330
2
100
AcDbEntity
  8
3D
100
AcDbLine
 10
-0.1107530957466452
 20
0.1035309913549156
 30
0.0
 11
-0.1082447293129007
 21
0.111530991354897
 31
0.0
  0
LINE
  5
103
330
2
100
AcDbEntity
  8
3D
100
AcDbLine
 10
-0.1082447293129007
 20
0.111530991354897
 30
0.0
 11
-0.1082447293129007
 21
0.1195309913549067
 31
0.0
  0
MTEXT
  5
104
330
2
100
AcDbEntity
  8
3D
100
AcDbMText
 10
-0.1082447293129007
 20
0.1288309913550165
 30
0.0
 40
0.004
 41
0.0
 46
0.0
 71
     5
 72
     1
  1
\A1;0.1108
 11
0.0000000000000001
 21
1.0
 31
0.0
 73
     1
 44
1.0
  0
LINE
  5
105
330
2
100
AcDbEntity
  8
3D
100
AcDbLine
 10
-0.1150000000022828
 20
0.0253000000011241
 30
0.0
 11
-0.1150000000022828
 21
0.1035309913549156
 31
0.0
  0
LINE
  5
106
330
2
100
AcDbEntity
  8
3D
100
AcDbLine
 10
-0.1150000000022828
 20
0.1035309913549156
 30
0.0
 11
-0.1150000000022828
 21
0.111530991354897
 31
0.0
  0
LINE
  5
107
330
2
100
AcDbEntity
  8
3D
100
AcDbLine
 10
-0.1150000000022828
 20
0.111530991354897
 30
0.0
 11
-0.1150000000022828
 21
0.1195309913549067
 31
0.0
  0
MTEXT
  5
108
330
2
100
AcDbEntity
  8
3D
100
AcDbMText
 10
-0.1150000000022828
 20
0.1288309913550165
 30
0.0
 40
0.004
 41
0.0
 46
0.0
 71
     5
 72
     1
  1
\A1;0.1150
 11
0.0000000000000001
 21
1.0
 31
0.0
 73
     1
 44
1.0
  0
LINE
  5
109
330
2
100
AcDbEntity
  8
3D
100
AcDbLine
 10
-0.1220000000021173
 20
0.0153000000010764
 30
0.0
 11
-0.1220000000021173
 21
0.1035309913549156
 31
0.0
  0
LINE
  5
10A
330
2
100
AcDbEntity
  8
3D
100
AcDbLine
 10
-0.1220000000021173
 20
0.1035309913549156
 30
0.0
 11
-0.1220000000021173
 21
0.111530991354897
 31
0.0
  0
LINE
  5
10B
330
2
100
AcDbEntity
  8
3D
100
AcDbLine
 10
-0.1220000000021173
 20
0.111530991354897
 30
0.0
 11
-0.1220000000021173
 21
0.1195309913549067
 31
0.0
  0
MTEXT
  5
10C
330
2
100
AcDbEntity
  8
3D
100
AcDbMText
 10
-0.1220000000021173
 20
0.1294976580216769
 30
0.0
 40
0.004
 41
0.0
 46
0.0
 71
     5
 72
     1
  1
\A1;0.1220
 11
0.0000000000000001
 21
1.0
 31
0.0
 73
     1
 44
1.0
  0
LINE
  5
10D
330
2
100
AcDbEntity
  8
3D
100
AcDbLine
 10
-0.1375000000022055
 20
0.0153000000010764
 30
0.0
 11
-0.1375000000022055
 21
0.1195309913549067
 31
0.0
  0
MTEXT
  5
10E
330
2
100
AcDbEntity
  8
3D
100
AcDbMText
 10
-0.1375000000022055
 20
0.1298309913550213
 30
0.0
 40
0.004
 41
0.0
 46
0.0
 71
     5
 72
     1
  1
\A1;0.1375
 11
0.0000000000000001
 21
1.0
 31
0.0
 73
     1
 44
1.0
  0
LINE
  5
10F
330
2
100
AcDbEntity
  8
3D
100
AcDbLine
 10
-0.1475000000021964
 20
0.0153000000010764
 30
0.0
 11
-0.1475000000021964
 21
0.1195309913549067
 31
0.0
  0
MTEXT
  5
110
330
2
100
AcDbEntity
  8
3D
100
AcDbMText
 10
-0.1475000000021964
 20
0.1298309913550213
 30
0.0
 40
0.004
 41
0.0
 46
0.0
 71
     5
 72
     1
  1
\A1;0.1475
 11
0.0000000000000001
 21
1.0
 31
0.0
 73
     1
 44
1.0
  0
LINE
  5
111
330
2
100
AcDbEntity
  8
3D
100
AcDbLine
 10
-0.0700000000023238
 20
0.0443000000011011
 30
0.0
 11
-0.0700000000023238
 21
0.1195309913549067
 31
0.0
  0
MTEXT
  5
112
330
2
100
AcDbEntity
  8
3D
100
AcDbMText
 10
-0.0700000000023238
 20
0.1294976580216769
 30
0.0
 40
0.004
 41
0.0
 46
0.0
 71
     5
 72
     1
  1
\A1;0.0700
 11
0.0000000000000001
 21
1.0
 31
0.0
 73
     1
 44
1.0
  0
LINE
  5
113
330
2
100
AcDbEntity
  8
3D
100
AcDbLine
 10
-0.0750000000022055
 20
0.008300000001185
 30
0.0
 11
-0.0750000000022055
 21
0.1195309913549067
 31
0.0
  0
MTEXT
  5
114
330
2
100
AcDbEntity
  8
3D
100
AcDbMText
 10
-0.0750000000022055
 20
0.1298309913550213
 30
0.0
 40
0.004
 41
0.0
 46
0.0
 71
     5
 72
     1
  1
\A1;0.0750
 11
0.0000000000000001
 21
1.0
 31
0.0
 73
     1
 44
1.0
  0
LINE
  5
115
330
2
100
AcDbEntity
  8
3D
100
AcDbLine
 10
-0.1660000000036916
 20
0.0053000000020518
 30
0.0
 11
-0.1660000000036916
 21
0.1195309913549067
 31
0.0
  0
MTEXT
  5
116
330
2
100
AcDbEntity
  8
3D
100
AcDbMText
 10
-0.1660000000036916
 20
0.1294976580216769
 30
0.0
 40
0.004
 41
0.0
 46
0.0
 71
     5
 72
     1
  1
\A1;0.1660
 11
0.0000000000000001
 21
1.0
 31
0.0
 73
     1
 44
1.0
  0
LINE
  5
117
330
2
100
AcDbEntity
  8
3D
100
AcDbLine
 10
-0.1640000000048758
 20
0.0073000000008108
 30
0.0
 11
-0.1640000000048758
 21
0.1035309913549156
 31
0.0
  0
LINE
  5
118
330
2
100
AcDbEntity
  8
3D
100
AcDbLine
 10
-0.1640000000048758
 20
0.1035309913549156
 30
0.0
 11
-0.1597026900251421
 21
0.111530991354897
 31
0.0
  0
LINE
  5
119
330
2
100
AcDbEntity
  8
3D
100
AcDbLine
 10
-0.1597026900251421
 20
0.111530991354897
 30
0.0
 11
-0.1597026900251421
 21
0.1195309913549067
 31
0.0
  0
MTEXT
  5
11A
330
2
100
AcDbEntity
  8
3D
100
AcDbMText
 10
-0.1597026900251421
 20
0.1294976580216769
 30
0.0
 40
0.004
 41
0.0
 46
0.0
 71
     5
 72
     1
  1
\A1;0.1640
 11
0.0000000000000001
 21
1.0
 31
0.0
 73
     1
 44
1.0
  0
LINE
  5
11B
330
2
100
AcDbEntity
  8
3D
100
AcDbLine
 10
0.1064000000023952
 20
0.0478000000010468
 30
0.0
 11
0.1064000000023952
 21
0.1035309913549156
 31
0.0
  0
LINE
  5
11C
330
2
100
AcDbEntity
  8
3D
100
AcDbLine
 10
0.1064000000023952
 20
0.1035309913549156
 30
0.0
 11
0.1108166110841466
 21
0.111530991354897
 31
0.0
  0
LINE
  5
11D
330
2
100
AcDbEntity
  8
3D
100
AcDbLine
 10
0.1108166110841466
 20
0.111530991354897
 30
0.0
 11
0.1108166110841466
 21
0.1195309913549067
 31
0.0
  0
MTEXT
  5
11E
330
2
100
AcDbEntity
  8
3D
100
AcDbMText
 10
0.1108166110841466
 20
0.1294976580216769
 30
0.0
 40
0.004
 41
0.0
 46
0.0
 71
     5
 72
     1
  1
\A1;0.1064
 11
-0.0000000000000001
 21
1.0
 31
0.0
 73
     1
 44
1.0
  0
LINE
  5
11F
330
2
100
AcDbEntity
  8
3D
100
AcDbLine
 10
-0.0575000000020509
 20
-0.0872999999983506
 30
0.0
 11
-0.0575000000020509
 21
-0.1012678474987183
 31
0.0
  0
LINE
  5
120
330
2
100
AcDbEntity
  8
3D
100
AcDbLine
 10
-0.0675000000003365
 20
-0.0872999999983222
 30
0.0
 11
-0.0675000000003365
 21
-0.1012678474987183
 31
0.0
  0
LINE
  5
121
330
2
100
AcDbEntity
  8
3D
100
AcDbLine
 10
-0.0535000000020318
 20
-0.099967847498732
 30
0.0
 11
-0.0495000000020127
 21
-0.099967847498732
 31
0.0
  0
LINE
  5
122
330
2
100
AcDbEntity
  8
3D
100
AcDbLine
 10
-0.0715000000003556
 20
-0.099967847498732
 30
0.0
 11
-0.0755000000003747
 21
-0.099967847498732
 31
0.0
  0
LINE
  5
123
330
2
100
AcDbEntity
  8
3D
100
AcDbLine
 10
-0.0575000000020509
 20
-0.099967847498732
 30
0.0
 11
-0.0675000000003365
 21
-0.099967847498732
 31
0.0
  0
SOLID
  5
124
330
2
100
AcDbEntity
  8
3D
100
AcDbTrace
 10
-0.0535000000020318
 20
-0.0993011808320716
 30
0.0
 11
-0.0535000000020318
 21
-0.1006345141653924
 31
0.0
 12
-0.0575000000020509
 22
-0.099967847498732
 32
0.0
 13
-0.0575000000020509
 23
-0.099967847498732
 33
0.0
  0
SOLID
  5
125
330
2
100
AcDbEntity
  8
3D
100
AcDbTrace
 10
-0.0715000000003556
 20
-0.0993011808320716
 30
0.0
 11
-0.0715000000003556
 21
-0.1006345141653924
 31
0.0
 12
-0.0675000000003365
 22
-0.099967847498732
 32
0.0
 13
-0.0675000000003365
 23
-0.099967847498732
 33
0.0
  0
MTEXT
  5
126
330
2
100
AcDbEntity
  8
3D
100
AcDbMText
 10
-0.0954666666669937
 20
-0.099967847498732
 30
0.0
 40
0.004
 41
0.0
 46
0.0
 71
     5
 72
     1
  1
\A1;0.0100%%P0.0010
 73
     1
 44
1.0
  0
LINE
  5
127
330
2
100
AcDbEntity
  8
3D
100
AcDbLine
 10
0.1478000000022348
 20
0.0640000000009593
 30
0.0
 11
0.2138852428582822
 21
0.0640000000009593
 31
0.0
  0
MTEXT
  5
128
330
2
100
AcDbEntity
  8
3D
100
AcDbMText
 10
0.2241852428583115
 20
0.0640000000009593
 30
0.0
 40
0.004
 41
0.0
 46
0.0
 71
     5
 72
     1
  1
\A1;0.0640
 73
     1
 44
1.0
  0
LINE
  5
129
330
2
100
AcDbEntity
  8
3D
100
AcDbLine
 10
0.1478000000022348
 20
0.0560000000009779
 30
0.0
 11
0.2138852428582822
 21
0.0560000000009779
 31
0.0
  0
MTEXT
  5
12A
330
2
100
AcDbEntity
  8
3D
100
AcDbMText
 10
0.2241852428583115
 20
0.0560000000009779
 30
0.0
 40
0.004
 41
0.0
 46
0.0
 71
     5
 72
     1
  1
\A1;0.0560
 73
     1
 44
1.0
  0
LINE
  5
12B
330
2
100
AcDbEntity
  8
3D
100
AcDbLine
 10
0.0913000000022066
 20
0.0500000000011482
 30
0.0
 11
0.2138852428582822
 21
0.0500000000011482
 31
0.0
  0
MTEXT
  5
12C
330
2
100
AcDbEntity
  8
3D
100
AcDbMText
 10
0.2238519095249103
 20
0.0500000000011482
 30
0.0
 40
0.004
 41
0.0
 46
0.0
 71
     5
 72
     1
  1
\A1;0.0500
 73
     1
 44
1.0
  0
LINE
  5
12D
330
2
100
AcDbEntity
  8
3D
100
AcDbLine
 10
0.0763000000022203
 20
0.0070000000011987
 30
0.0
 11
0.2138852428582822
 21
0.0070000000011987
 31
0.0
  0
MTEXT
  5
12E
330
2
100
AcDbEntity
  8
3D
100
AcDbMText
 10
0.2238519095249103
 20
0.0070000000011987
 30
0.0
 40
0.004
 41
0.0
 46
0.0
 71
     5
 72
     1
  1
\A1;0.0070
 73
     1
 44
1.0
  0
LINE
  5
12F
330
2
100
AcDbEntity
  8
3D
100
AcDbLine
 10
-0.1233000000022457
 20
-0.0532084480252593
 30
0.0
 11
-0.2138852428541895
 21
-0.0532084480252593
 31
0.0
  0
MTEXT
  5
130
330
2
100
AcDbEntity
  8
3D
100
AcDbMText
 10
-0.2245185761875064
 20
-0.0532084480252593
 30
0.0
 40
0.004
 41
0.0
 46
0.0
 71
     5
 72
     1
  1
\A1;0.0532
 73
     1
 44
1.0
  0
LINE
  5
131
330
2
100
AcDbEntity
  8
3D
100
AcDbLine
 10
-0.1338000000030206
 20
-0.0561277780658713
 30
0.0
 11
-0.1978852428542268
 21
-0.0561277780658713
 31
0.0
  0
LINE
  5
132
330
2
100
AcDbEntity
  8
3D
100
AcDbLine
 10
-0.1978852428542268
 20
-0.0561277780658713
 30
0.0
 11
-0.2058852428541513
 21
-0.0603403928603257
 31
0.0
  0
LINE
  5
133
330
2
100
AcDbEntity
  8
3D
100
AcDbLine
 10
-0.2058852428541513
 20
-0.0603403928603257
 30
0.0
 11
-0.2138852428541895
 21
-0.0603403928603257
 31
0.0
  0
MTEXT
  5
134
330
2
100
AcDbEntity
  8
3D
100
AcDbMText
 10
-0.2238519095208176
 20
-0.0603403928603257
 30
0.0
 40
0.004
 41
0.0
 46
0.0
 71
     5
 72
     1
  1
\A1;0.0561
 73
     1
 44
1.0
  0
LINE
  5
135
330
2
100
AcDbEntity
  8
3D
100
AcDbLine
 10
-0.1438000000023294
 20
-0.0390000000005557
 30
0.0
 11
-0.2138852428541895
 21
-0.0390000000005557
 31
0.0
  0
MTEXT
  5
136
330
2
100
AcDbEntity
  8
3D
100
AcDbMText
 10
-0.2241852428542188
 20
-0.0390000000005557
 30
0.0
 40
0.004
 41
0.0
 46
0.0
 71
     5
 72
     1
  1
\A1;0.0390
 73
     1
 44
1.0
  0
LINE
  5
137
330
2
100
AcDbEntity
  8
3D
100
AcDbLine
 10
0.106300000002193
 20
0.0420000000011669
 30
0.0
 11
0.2138852428582822
 21
0.0420000000011669
 31
0.0
  0
MTEXT
  5
138
330
2
100
AcDbEntity
  8
3D
100
AcDbMText
 10
0.2241852428583115
 20
0.0420000000011669
 30
0.0
 40
0.004
 41
0.0
 46
0.0
 71
     5
 72
     1
  1
\A1;0.0420
 73
     1
 44
1.0
  0
LINE
  5
139
330
2
100
AcDbEntity
  8
3D
100
AcDbLine
 10
0.1120530957466599
 20
0.0320000000011191
 30
0.0
 11
0.2138852428582822
 21
0.0320000000011191
 31
0.0
  0
MTEXT
  5
13A
330
2
100
AcDbEntity
  8
3D
100
AcDbMText
 10
0.2241852428583115
 20
0.0320000000011191
 30
0.0
 40
0.004
 41
0.0
 46
0.0
 71
     5
 72
     1
  1
\A1;0.0320
 73
     1
 44
1.0
  0
LINE
  5
13B
330
2
100
AcDbEntity
  8
3D
100
AcDbLine
 10
0.1163000000022976
 20
0.0240000000011378
 30
0.0
 11
0.2138852428582822
 21
0.0240000000011378
 31
0.0
  0
MTEXT
  5
13C
330
2
100
AcDbEntity
  8
3D
100
AcDbMText
 10
0.2241852428583115
 20
0.0240000000011378
 30
0.0
 40
0.004
 41
0.0
 46
0.0
 71
     5
 72
     1
  1
\A1;0.0240
 73
     1
 44
1.0
  0
LINE
  5
13D
330
2
100
AcDbEntity
  8
3D
100
AcDbLine
 10
0.123300000002132
 20
0.01400000000109
 30
0.0
 11
0.1367091849588178
 21
0.01400000000109
 31
0.0
  0
LINE
  5
13E
330
2
100
AcDbEntity
  8
3D
100
AcDbLine
 10
0.1481461559177433
 20
0.01400000000109
 30
0.0
 11
0.2138852428582822
 21
0.01400000000109
 31
0.0
  0
MTEXT
  5
13F
330
2
100
AcDbEntity
  8
3D
100
AcDbMText
 10
0.2235185761916227
 20
0.01400000000109
 30
0.0
 40
0.004
 41
0.0
 46
0.0
 71
     5
 72
     1
  1
\A1;0.0140
 73
     1
 44
1.0
  0
LINE
  5
140
330
2
100
AcDbEntity
  8
3D
100
AcDbLine
 10
-0.0663000000023431
 20
-0.048000000000684
 30
0.0
 11
-0.1978852428542268
 21
-0.048000000000684
 31
0.0
  0
LINE
  5
141
330
2
100
AcDbEntity
  8
3D
100
AcDbLine
 10
-0.1978852428542268
 20
-0.048000000000684
 30
0.0
 11
-0.2058852428541513
 21
-0.0458527455405431
 31
0.0
  0
LINE
  5
142
330
2
100
AcDbEntity
  8
3D
100
AcDbLine
 10
-0.2058852428541513
 20
-0.0458527455405431
 30
0.0
 11
-0.2138852428541895
 21
-0.0458527455405431
 31
0.0
  0
MTEXT
  5
143
330
2
100
AcDbEntity
  8
3D
100
AcDbMText
 10
-0.2241852428542188
 20
-0.0458527455405431
 30
0.0
 40
0.004
 41
0.0
 46
0.0
 71
     5
 72
     1
  1
\A1;0.0480
 73
     1
 44
1.0
  0
LINE
  5
144
330
2
100
AcDbEntity
  8
3D
100
AcDbLine
 10
0.0998105742588678
 20
0.0560000000009779
 30
0.0
 11
0.1416068772962262
 21
0.0560000000009779
 31
0.0
  0
LINE
  5
145
330
2
100
AcDbEntity
  8
3D
100
AcDbLine
 10
-0.1087999999979274
 20
0.0465000000010605
 30
0.0
 11
-0.2138852428541895
 21
0.0465000000010605
 31
0.0
  0
MTEXT
  5
146
330
2
100
AcDbEntity
  8
3D
100
AcDbMText
 10
-0.2245185761875064
 20
0.0465000000010605
 30
0.0
 40
0.004
 41
0.0
 46
0.0
 71
     5
 72
     1
  1
\A1;0.0465
 73
     1
 44
1.0
  0
LINE
  5
147
330
2
100
AcDbEntity
  8
3D
100
AcDbLine
 10
0.0034724409426872
 20
0.065299999998814
 30
0.0
 11
0.0034724409426872
 21
0.1073689282281407
 31
0.0
  0
LINE
  5
148
330
2
100
AcDbEntity
  8
3D
100
AcDbLine
 10
0.0034724409426872
 20
0.1073689282281407
 30
0.0
 11
0.0056413474484316
 21
0.111530991354897
 31
0.0
  0
LINE
  5
149
330
2
100
AcDbEntity
  8
3D
100
AcDbLine
 10
0.0056413474484316
 20
0.111530991354897
 30
0.0
 11
0.0056413474484316
 21
0.1195309913549067
 31
0.0
  0
MTEXT
  5
14A
330
2
100
AcDbEntity
  8
3D
100
AcDbMText
 10
0.0056413474484316
 20
0.1291643246883609
 30
0.0
 40
0.004
 41
0.0
 46
0.0
 71
     5
 72
     1
  1
\A1;0.0035
 11
0.0000000000000001
 21
1.0
 31
0.0
 73
     1
 44
1.0
  0
LINE
  5
14B
330
2
100
AcDbEntity
  8
3D
100
AcDbLine
 10
0.0215275590528563
 20
0.065299999998814
 30
0.0
 11
0.0215275590528563
 21
0.1195309913549067
 31
0.0
  0
MTEXT
  5
14C
330
2
100
AcDbEntity
  8
3D
100
AcDbMText
 10
0.0215275590528563
 20
0.1301643246883657
 30
0.0
 40
0.004
 41
0.0
 46
0.0
 71
     5
 72
     1
  1
\A1;0.0215
 11
0.0000000000000001
 21
1.0
 31
0.0
 73
     1
 44
1.0
  0
LINE
  5
14D
330
2
100
AcDbEntity
  8
3D
100
AcDbLine
 10
0.0284685039347323
 20
0.065299999998814
 30
0.0
 11
0.0284685039347323
 21
0.1195309913549067
 31
0.0
  0
MTEXT
  5
14E
330
2
100
AcDbEntity
  8
3D
100
AcDbMText
 10
0.0284685039347323
 20
0.1298309913550213
 30
0.0
 40
0.004
 41
0.0
 46
0.0
 71
     5
 72
     1
  1
\A1;0.0285
 11
0.0000000000000001
 21
1.0
 31
0.0
 73
     1
 44
1.0
  0
LINE
  5
14F
330
2
100
AcDbEntity
  8
3D
100
AcDbLine
 10
-0.0035275590530546
 20
0.065299999998814
 30
0.0
 11
-0.0035275590530546
 21
0.1073689282281407
 31
0.0
  0
LINE
  5
150
330
2
100
AcDbEntity
  8
3D
100
AcDbLine
 10
-0.0035275590530546
 20
0.1073689282281407
 30
0.0
 11
-0.005696465558799
 21
0.111530991354897
 31
0.0
  0
LINE
  5
151
330
2
100
AcDbEntity
  8
3D
100
AcDbLine
 10
-0.005696465558799
 20
0.111530991354897
 30
0.0
 11
-0.005696465558799
 21
0.1195309913549067
 31
0.0
  0
MTEXT
  5
152
330
2
100
AcDbEntity
  8
3D
100
AcDbMText
 10
-0.0059153599345336
 20
0.1291643246883609
 30
0.0
 40
0.004
 41
0.0
 46
0.0
 71
     5
 72
     1
  1
\A1;0.0035
 11
0.0000000000000001
 21
1.0
 31
0.0
 73
     1
 44
1.0
  0
ENDSEC
  0
SECTION
  2
OBJECTS
  0
DICTIONARY
  5
9
330
0
100
AcDbDictionary
281
     1
  3
ACAD_COLOR
350
33
  3
ACAD_GROUP
350
2E
  3
ACAD_LAYOUT
350
F
  3
ACAD_MATERIAL
350
B
  3
ACAD_MLEADERSTYLE
350
36
  3
ACAD_MLINESTYLE
350
2F
  3
ACAD_PLOTSETTINGS
350
30
  3
ACAD_PLOTSTYLENAME
350
8
  3
ACAD_SCALELIST
350
34
  3
ACAD_TABLESTYLE
350
35
  3
ACAD_VISUALSTYLE
350
26
  3
ACDB_RECOMPOSE_DATA
350
158
  3
AcDbVariableDictionary
350
37
  0
DICTIONARY
  5
28
330
23
100
AcDbDictionary
280
     1
281
     1
  0
DICTIONARY
  5
16
330
15
100
AcDbDictionary
280
     1
281
     1
  3
ACAD_LAYERFILTERS
360
17
  3
ACAD_LAYERSTATES
360
18
  3
ACLYDICTIONARY
360
19
  0
DICTIONARY
  5
3
330
2
100
AcDbDictionary
280
     1
281
     1
  3
ACAD_SORTENTS
360
153
  0
DICTIONARY
  5
33
102
{ACAD_REACTORS
330
9
102
}
330
9
100
AcDbDictionary
281
     1
  0
DICTIONARY
  5
2E
102
{ACAD_REACTORS
330
9
102
}
330
9
100
AcDbDictionary
281
     1
  0
DICTIONARY
  5
F
102
{ACAD_REACTORS
330
9
102
}
330
9
100
AcDbDictionary
281
     1
  3
Layout1
350
14
  3
Model
350
E
  0
DICTIONARY
  5
B
102
{ACAD_REACTORS
330
9
102
}
330
9
100
AcDbDictionary
281
     1
  3
ByBlock
350
32
  3
ByLayer
350
31
  3
Global
350
A
  0
DICTIONARY
  5
36
102
{ACAD_REACTORS
330
9
102
}
330
9
100
AcDbDictionary
281
     1
  0
DICTIONARY
  5
2F
102
{ACAD_REACTORS
330
9
102
}
330
9
100
AcDbDictionary
281
     1
  3
Standard
350
46
  0
DICTIONARY
  5
30
102
{ACAD_REACTORS
330
9
102
}
330
9
100
AcDbDictionary
281
     1
  0
ACDBDICTIONARYWDFLT
  5
8
102
{ACAD_REACTORS
330
9
102
}
330
9
100
AcDbDictionary
281
     1
  3
Normal
350
7
100
AcDbDictionaryWithDefault
340
7
  0
DICTIONARY
  5
34
102
{ACAD_REACTORS
330
9
102
}
330
9
100
AcDbDictionary
281
     1
  3
A0
350
4A
  3
A1
350
4B
  3
A2
350
4C
  3
A3
350
4D
  3
A4
350
4E
  3
A5
350
4F
  3
A6
350
50
  3
A7
350
51
  3
A8
350
52
  3
A9
350
53
  3
B0
350
54
  3
B1
350
55
  3
B2
350
56
  3
B3
350
57
  3
B4
350
58
  3
B5
350
59
  3
B6
350
5A
  0
DICTIONARY
  5
35
102
{ACAD_REACTORS
330
9
102
}
330
9
100
AcDbDictionary
281
     1
  3
Standard
350
47
  0
DICTIONARY
  5
26
102
{ACAD_REACTORS
330
9
102
}
330
9
100
AcDbDictionary
281
     1
  3
2dWireframe
350
25
  3
EdgeColorOff
350
8B
  3
Realistic
350
48
  3
Wireframe
350
49
  0
XRECORD
  5
158
102
{ACAD_REACTORS
330
9
102
}
330
9
100
AcDbXrecord
280
     1
 90
        1
330
47
  0
DICTIONARY
  5
37
102
{ACAD_REACTORS
330
9
102
}
330
9
100
AcDbDictionary
281
     1
  3
CANNOSCALE
350
38
  3
CMLEADERSTYLE
350
39
  3
CTABLESTYLE
350
3A
  3
CVIEWDETAILSTYLE
350
3B
  3
CVIEWSECTIONSTYLE
350
3C
  3
DIMASSOC
350
3D
  3
INDEXCTL
350
3E
  3
LAYEREVAL
350
3F
  3
LAYERNOTIFY
350
40
  3
LIGHTINGUNITS
350
41
  3
MSLTSCALE
350
42
  3
PROJECTNAME
350
43
  3
SORTENTS
350
44
  0
DICTIONARY
  5
17
102
{ACAD_REACTORS
330
16
102
}
330
16
100
AcDbDictionary
281
     1
  0
DICTIONARY
  5
18
102
{ACAD_REACTORS
330
16
102
}
330
16
100
AcDbDictionary
281
     1
  0
DICTIONARY
  5
19
102
{ACAD_REACTORS
330
16
102
}
330
16
100
AcDbDictionary
281
     1
1001
ACAD
1000
<All
  0
SORTENTSTABLE
  5
153
102
{ACAD_REACTORS
330
3
102
}
330
3
100
AcDbSortentsTable
330
2
  0
LAYOUT
  5
14
102
{ACAD_REACTORS
330
F
102
}
330
F
100
AcDbPlotSettings
  1

  2
HP DeskJet 930C/932C/935C
  4

  6

 40
0.0
 41
0.0
 42
0.0
 43
0.0
 44
0.0
 45
0.0
 46
0.0
 47
0.0
 48
0.0
 49
0.0
140
0.0
141
0.0
142
1.0
143
1.0
 70
   688
 72
     0
 73
     0
 74
     5
  7
black.ctb
 75
    16
147
1.0
 76
     0
 77
     2
 78
   300
148
0.0
149
0.0
100
AcDbLayout
  1
Layout1
 70
     1
 71
     1
 10
0.0
 20
0.0
 11
12.0
 21
9.0
 12
0.0
 22
0.0
 32
0.0
 14
1.000000000000000E+20
 24
1.000000000000000E+20
 34
1.000000000000000E+20
 15
-1.000000000000000E+20
 25
-1.000000000000000E+20
 35
-1.000000000000000E+20
146
0.0
 13
0.0
 23
0.0
 33
0.0
 16
1.0
 26
0.0
 36
0.0
 17
0.0
 27
1.0
 37
0.0
 76
     0
330
11
  0
LAYOUT
  5
E
102
{ACAD_REACTORS
330
F
102
}
330
F
100
AcDbPlotSettings
  1

  2
\\kpc384\hp LaserJet 1010
  4
A4
  6

 40
4.603749752044677
 41
8.032736778259277
 42
5.154098510742187
 43
4.9847412109375
 44
210.0156707763672
 45
297.0106506347656
 46
0.0
 47
2.95
 48
127.5662085622847
 49
142.3500281158103
140
136.3772273578069
141
154.5853048439378
142
1.0
143
0.0439983751192775
 70
 11956
 72
     1
 73
     0
 74
     4
  7
black.ctb
 75
     0
147
22.72811205616225
 76
     0
 77
     2
 78
   300
148
-127.5662085622847
149
-142.3500281158103
100
AcDbLayout
  1
Model
 70
     1
 71
     0
 10
0.0
 20
0.0
 11
12.0
 21
9.0
 12
0.0
 22
0.0
 32
0.0
 14
0.0
 24
0.0
 34
0.0
 15
0.0
 25
0.0
 35
0.0
146
0.0
 13
0.0
 23
0.0
 33
0.0
 16
1.0
 26
0.0
 36
0.0
 17
0.0
 27
1.0
 37
0.0
 76
     0
330
2
331
24
1001
ACAD_PSEXT
1000
\\atsnts34\TJ04
1000
HP LaserJet 5100 PCL 6
1000
2f_CAD Rm
1000
10.8.12.60
1070
     0
  0
MATERIAL
  5
32
102
{ACAD_REACTORS
330
B
102
}
330
B
100
AcDbMaterial
  1
ByBlock
 73
     1
 78
     1
172
     1
176
     1
270
     1
274
     1
 94
       63
  0
MATERIAL
  5
31
102
{ACAD_REACTORS
330
B
102
}
330
B
100
AcDbMaterial
  1
ByLayer
 73
     1
 78
     1
172
     1
176
     1
270
     1
274
     1
 94
       63
  0
MATERIAL
  5
A
102
{ACAD_REACTORS
330
B
102
}
330
B
100
AcDbMaterial
  1
Global
 73
     1
 78
     1
172
     1
176
     1
270
     1
274
     1
 94
       63
  0
MLINESTYLE
  5
46
102
{ACAD_REACTORS
330
2F
102
}
330
2F
100
AcDbMlineStyle
  2
STANDARD
 70
     0
  3

 62
   256
 51
90.0
 52
90.0
 71
     2
 49
0.5
 62
   256
  6
BYLAYER
 49
-0.5
 62
   256
  6
BYLAYER
  0
ACDBPLACEHOLDER
  5
7
102
{ACAD_REACTORS
330
8
102
}
330
8
  0
SCALE
  5
4A
102
{ACAD_REACTORS
330
34
102
}
330
34
100
AcDbScale
 70
     0
300
1:1
140
1.0
141
1.0
290
     1
  0
SCALE
  5
4B
102
{ACAD_REACTORS
330
34
102
}
330
34
100
AcDbScale
 70
     0
300
1/128" = 1'-0"
140
0.0078125
141
12.0
290
     0
  0
SCALE
  5
4C
102
{ACAD_REACTORS
330
34
102
}
330
34
100
AcDbScale
 70
     0
300
1/64" = 1'-0"
140
0.015625
141
12.0
290
     0
  0
SCALE
  5
4D
102
{ACAD_REACTORS
330
34
102
}
330
34
100
AcDbScale
 70
     0
300
1/32" = 1'-0"
140
0.03125
141
12.0
290
     0
  0
SCALE
  5
4E
102
{ACAD_REACTORS
330
34
102
}
330
34
100
AcDbScale
 70
     0
300
1/16" = 1'-0"
140
0.0625
141
12.0
290
     0
  0
SCALE
  5
4F
102
{ACAD_REACTORS
330
34
102
}
330
34
100
AcDbScale
 70
     0
300
3/32" = 1'-0"
140
0.09375
141
12.0
290
     0
  0
SCALE
  5
50
102
{ACAD_REACTORS
330
34
102
}
330
34
100
AcDbScale
 70
     0
300
1/8" = 1'-0"
140
0.125
141
12.0
290
     0
  0
SCALE
  5
51
102
{ACAD_REACTORS
330
34
102
}
330
34
100
AcDbScale
 70
     0
300
3/16" = 1'-0"
140
0.1875
141
12.0
290
     0
  0
SCALE
  5
52
102
{ACAD_REACTORS
330
34
102
}
330
34
100
AcDbScale
 70
     0
300
1/4" = 1'-0"
140
0.25
141
12.0
290
     0
  0
SCALE
  5
53
102
{ACAD_REACTORS
330
34
102
}
330
34
100
AcDbScale
 70
     0
300
3/8" = 1'-0"
140
0.375
141
12.0
290
     0
  0
SCALE
  5
54
102
{ACAD_REACTORS
330
34
102
}
330
34
100
AcDbScale
 70
     0
300
1/2" = 1'-0"
140
0.5
141
12.0
290
     0
  0
SCALE
  5
55
102
{ACAD_REACTORS
330
34
102
}
330
34
100
AcDbScale
 70
     0
300
3/4" = 1'-0"
140
0.75
141
12.0
290
     0
  0
SCALE
  5
56
102
{ACAD_REACTORS
330
34
102
}
330
34
100
AcDbScale
 70
     0
300
1" = 1'-0"
140
1.0
141
12.0
290
     0
  0
SCALE
  5
57
102
{ACAD_REACTORS
330
34
102
}
330
34
100
AcDbScale
 70
     0
300
1-1/2" = 1'-0"
140
1.5
141
12.0
290
     0
  0
SCALE
  5
58
102
{ACAD_REACTORS
330
34
102
}
330
34
100
AcDbScale
 70
     0
300
3" = 1'-0"
140
3.0
141
12.0
290
     0
  0
SCALE
  5
59
102
{ACAD_REACTORS
330
34
102
}
330
34
100
AcDbScale
 70
     0
300
6" = 1'-0"
140
6.0
141
12.0
290
     0
  0
SCALE
  5
5A
102
{ACAD_REACTORS
330
34
102
}
330
34
100
AcDbScale
 70
     0
300
1'-0" = 1'-0"
140
12.0
141
12.0
290
     0
  0
TABLESTYLE
  5
47
102
{ACAD_XDICTIONARY
360
156
102
}
102
{ACAD_REACTORS
330
35
102
}
330
35
100
AcDbTableStyle
280
     0
  3
Standard
 70
     0
 71
     0
 40
0.06
 41
0.06
280
     0
281
     0
  7
Standard
140
0.18
170
     2
 62
     0
 63
     7
283
     0
 90
        4
 91
        0
  1

274
    -2
284
     1
 64
     0
275
    -2
285
     1
 65
     0
276
    -2
286
     1
 66
     0
277
    -2
287
     1
 67
     0
278
    -2
288
     1
 68
     0
279
    -2
289
     1
 69
     0
  7
Standard
140
0.25
170
     5
 62
     0
 63
     7
283
     0
 90
        4
 91
        0
  1

274
    -2
284
     1
 64
     0
275
    -2
285
     1
 65
     0
276
    -2
286
     1
 66
     0
277
    -2
287
     1
 67
     0
278
    -2
288
     1
 68
     0
279
    -2
289
     1
 69
     0
  7
Standard
140
0.18
170
     5
 62
     0
 63
     7
283
     0
 90
        4
 91
        0
  1

274
    -2
284
     1
 64
     0
275
    -2
285
     1
 65
     0
276
    -2
286
     1
 66
     0
277
    -2
287
     1
 67
     0
278
    -2
288
     1
 68
     0
279
    -2
289
     1
 69
     0
  0
VISUALSTYLE
  5
25
102
{ACAD_REACTORS
330
26
102
}
330
26
100
AcDbVisualStyle
  2
2dWireframe
 70
     4
177
     3
291
     0
 70
    58
 90
        0
176
     1
 90
        2
176
     1
 90
        0
176
     1
 90
        0
176
     1
 40
0.6
176
     1
 40
30.0
176
     1
 62
     7
176
     1
 90
        1
176
     1
 90
        4
176
     1
 62
     7
176
     1
 62
   257
176
     1
 90
        1
176
     1
 90
        1
176
     1
 40
1.0
176
     1
 90
        0
176
     1
 62
   257
176
     1
 40
1.0
176
     1
 90
        1
176
     1
 90
        6
176
     1
 90
        2
176
     1
 62
     7
176
     1
 90
        5
176
     1
 90
        0
176
     1
 90
        0
176
     1
290
     0
176
     1
 90
        1
176
     1
 40
0.0
176
     1
 90
        0
176
     1
290
     1
176
     1
290
     1
176
     1
290
     0
176
     1
290
     0
176
     1
290
     0
176
     1
290
     0
176
     1
290
     0
176
     1
290
     0
176
     1
290
     0
176
     1
 90
       50
176
     1
 40
0.0
176
     1
 40
1.0
176
     1
 90
        0
176
     1
 62
    18
420
        0
176
     1
 90
       50
176
     1
 90
        3
176
     1
 62
     5
420
      255
176
     1
290
     0
176
     1
 90
       50
176
     1
 90
       50
176
     1
 90
       50
176
     1
290
     0
176
     1
 90
       50
176
     1
 62
   256
176
     0
 40
1.0
176
     0
 90
        2
176
     1
  1
strokes_ogs.tif
176
     1
290
     0
176
     1
 40
1.0
176
     1
 40
1.0
176
     1
1001
ACAD
1000
AcRTDxfName
1000
VISUALSTYLE
1000
AcRTDxfName
1000
VISUALSTYLE
1000
AcRTDxfName
1000
VISUALSTYLE
1000
AcRTDxfName
1000
VISUALSTYLE
1000
AcRTDxfName
1000
VISUALSTYLE
1000
AcRTDxfName
1000
VISUALSTYLE
1000
AcRTDxfName
1000
VISUALSTYLE
1000
AcRTDxfName
1000
VISUALSTYLE
1000
AcRTDxfName
1000
VISUALSTYLE
1000
AcRTDxfName
1000
VISUALSTYLE
1000
AcRTDxfName
1000
VISUALSTYLE
  0
VISUALSTYLE
  5
8B
102
{ACAD_REACTORS
330
26
102
}
330
26
100
AcDbVisualStyle
  2
EdgeColorOff
 70
    22
177
     3
291
     1
 70
    58
 90
        2
176
     0
 90
        2
176
     0
 90
        0
176
     0
 90
        0
176
     0
 40
0.6
176
     0
 40
30.0
176
     0
 62
     7
420
 16777215
176
     0
 90
        1
176
     0
 90
        4
176
     0
 62
     7
176
     0
 62
   257
176
     0
 90
        1
176
     0
 90
        1
176
     0
 40
1.0
176
     0
 90
        8
176
     2
 62
     7
176
     0
 40
1.0
176
     0
 90
        1
176
     0
 90
        6
176
     0
 90
        2
176
     0
 62
     7
176
     0
 90
        5
176
     0
 90
        0
176
     0
 90
        0
176
     0
290
     0
176
     0
 90
        1
176
     0
 40
0.0
176
     0
 90
        0
176
     0
290
     0
176
     0
290
     1
176
     0
290
     1
176
     0
290
     0
176
     0
290
     0
176
     0
290
     0
176
     0
290
     0
176
     0
290
     0
176
     0
290
     0
176
     0
 90
       50
176
     0
 40
0.0
176
     0
 40
1.0
176
     0
 90
        0
176
     0
 62
    18
420
        0
176
     0
 90
       50
176
     0
 90
        3
176
     0
 62
     5
420
      255
176
     0
290
     0
176
     0
 90
       50
176
     0
 90
       50
176
     0
 90
       50
176
     0
290
     0
176
     0
 90
       50
176
     0
 62
   256
176
     0
 40
1.0
176
     0
 90
        2
176
     0
  1
strokes_ogs.tif
176
     0
290
     0
176
     0
 40
1.0
176
     0
 40
1.0
176
     0
  0
VISUALSTYLE
  5
48
102
{ACAD_REACTORS
330
26
102
}
330
26
100
AcDbVisualStyle
  2
Realistic
 70
     8
177
     3
291
     0
 70
    58
 90
        2
176
     1
 90
        2
176
     1
 90
        0
176
     1
 90
        0
176
     1
 40
0.6
176
     1
 40
30.0
176
     1
 62
     7
176
     1
 90
        1
176
     1
 90
        0
176
     1
 62
     7
176
     1
 62
   257
176
     1
 90
        1
176
     1
 90
        1
176
     1
 40
1.0
176
     1
 90
        8
176
     1
 62
     8
176
     1
 40
1.0
176
     1
 90
        1
176
     1
 90
        6
176
     1
 90
        2
176
     1
 62
     7
176
     1
 90
        5
176
     1
 90
        0
176
     1
 90
        0
176
     1
290
     0
176
     1
 90
       13
176
     1
 40
0.0
176
     1
 90
        0
176
     1
290
     0
176
     1
290
     1
176
     1
290
     1
176
     1
290
     0
176
     1
290
     0
176
     1
290
     0
176
     1
290
     0
176
     1
290
     0
176
     1
290
     0
176
     1
 90
       50
176
     1
 40
0.0
176
     1
 40
1.0
176
     1
 90
        0
176
     1
 62
    18
420
        0
176
     1
 90
       50
176
     1
 90
        3
176
     1
 62
     5
420
      255
176
     1
290
     0
176
     1
 90
       50
176
     1
 90
       50
176
     1
 90
       50
176
     1
290
     0
176
     1
 90
       50
176
     1
 62
   256
176
     0
 40
1.0
176
     0
 90
        2
176
     1
  1
strokes_ogs.tif
176
     1
290
     0
176
     1
 40
1.0
176
     1
 40
1.0
176
     1
1001
ACAD
1000
AcRTDxfName
1000
VISUALSTYLE
1000
AcRTDxfName
1000
VISUALSTYLE
1000
AcRTDxfName
1000
VISUALSTYLE
1000
AcRTDxfName
1000
VISUALSTYLE
1000
AcRTDxfName
1000
VISUALSTYLE
1000
AcRTDxfName
1000
VISUALSTYLE
1000
AcRTDxfName
1000
VISUALSTYLE
1000
AcRTDxfName
1000
VISUALSTYLE
1000
AcRTDxfName
1000
VISUALSTYLE
1000
AcRTDxfName
1000
VISUALSTYLE
1000
AcRTDxfName
1000
VISUALSTYLE
  0
VISUALSTYLE
  5
49
102
{ACAD_REACTORS
330
26
102
}
330
26
100
AcDbVisualStyle
  2
Wireframe
 70
     5
177
     3
291
     0
 70
    58
 90
        0
176
     1
 90
        2
176
     1
 90
        0
176
     1
 90
        0
176
     1
 40
0.6
176
     1
 40
30.0
176
     1
 62
     7
420
 16777215
176
     1
 90
        1
176
     1
 90
        4
176
     1
 62
     7
176
     1
 62
   257
176
     1
 90
        1
176
     1
 90
        1
176
     1
 40
1.0
176
     1
 90
        0
176
     1
 62
   257
176
     1
 40
1.0
176
     1
 90
        1
176
     1
 90
        6
176
     1
 90
        2
176
     1
 62
     7
176
     1
 90
        3
176
     1
 90
        0
176
     1
 90
        0
176
     1
290
     0
176
     1
 90
        1
176
     1
 40
0.0
176
     1
 90
        0
176
     1
290
     0
176
     1
290
     1
176
     1
290
     1
176
     1
290
     0
176
     1
290
     0
176
     1
290
     0
176
     1
290
     0
176
     1
290
     0
176
     1
290
     0
176
     1
 90
       50
176
     1
 40
0.0
176
     1
 40
1.0
176
     1
 90
        0
176
     1
 62
    18
420
        0
176
     1
 90
       50
176
     1
 90
        3
176
     1
 62
     5
420
      255
176
     1
290
     0
176
     1
 90
       50
176
     1
 90
       50
176
     1
 90
       50
176
     1
290
     0
176
     1
 90
       50
176
     1
 62
   256
176
     0
 40
1.0
176
     0
 90
        2
176
     1
  1
strokes_ogs.tif
176
     1
290
     0
176
     1
 40
1.0
176
     1
 40
1.0
176
     1
  0
DICTIONARYVAR
  5
38
102
{ACAD_REACTORS
330
37
102
}
330
37
100
DictionaryVariables
280
     0
  1
1:1
  0
DICTIONARYVAR
  5
39
102
{ACAD_REACTORS
330
37
102
}
330
37
100
DictionaryVariables
280
     0
  1
STANDARD
  0
DICTIONARYVAR
  5
3A
102
{ACAD_REACTORS
330
37
102
}
330
37
100
DictionaryVariables
280
     0
  1
STANDARD
  0
DICTIONARYVAR
  5
3B
102
{ACAD_REACTORS
330
37
102
}
330
37
100
DictionaryVariables
280
     0
  1

  0
DICTIONARYVAR
  5
3C
102
{ACAD_REACTORS
330
37
102
}
330
37
100
DictionaryVariables
280
     0
  1

  0
DICTIONARYVAR
  5
3D
102
{ACAD_REACTORS
330
37
102
}
330
37
100
DictionaryVariables
280
     0
  1
0
  0
DICTIONARYVAR
  5
3E
102
{ACAD_REACTORS
330
37
102
}
330
37
100
DictionaryVariables
280
     0
  1
0
  0
DICTIONARYVAR
  5
3F
102
{ACAD_REACTORS
330
37
102
}
330
37
100
DictionaryVariables
280
     0
  1
1
  0
DICTIONARYVAR
  5
40
102
{ACAD_REACTORS
330
37
102
}
330
37
100
DictionaryVariables
280
     0
  1
15
  0
DICTIONARYVAR
  5
41
102
{ACAD_REACTORS
330
37
102
}
330
37
100
DictionaryVariables
280
     0
  1
0
  0
DICTIONARYVAR
  5
42
102
{ACAD_REACTORS
330
37
102
}
330
37
100
DictionaryVariables
280
     0
  1
0
  0
DICTIONARYVAR
  5
43
102
{ACAD_REACTORS
330
37
102
}
330
37
100
DictionaryVariables
280
     0
  1

  0
DICTIONARYVAR
  5
44
102
{ACAD_REACTORS
330
37
102
}
330
37
100
DictionaryVariables
280
     0
  1
127
  0
DICTIONARY
  5
156
330
47
100
AcDbDictionary
280
     1
281
     1
  3
ACAD_ROUNDTRIP_2008_TABLESTYLE_CELLSTYLEMAP
360
157
  0
CELLSTYLEMAP
  5
157
102
{ACAD_REACTORS
330
156
102
}
330
156
100
AcDbCellStyleMap
 90
        3
300
CELLSTYLE
  1
TABLEFORMAT_BEGIN
 90
        5
170
     1
 91
        0
 92
    32768
 62
   257
 93
        1
300
CONTENTFORMAT
  1
CONTENTFORMAT_BEGIN
 90
        0
 91
        0
 92
        4
 93
        0
300

 40
0.0
140
1.0
 94
        5
 62
     0
340
1C
144
0.25
309
CONTENTFORMAT_END
171
     0
 94
        6
 95
        1
302
GRIDFORMAT
  1
GRIDFORMAT_BEGIN
 90
        0
 91
        1
 62
     0
 92
       -2
340
0
 93
        0
 40
0.045
309
GRIDFORMAT_END
 95
        2
302
GRIDFORMAT
  1
GRIDFORMAT_BEGIN
 90
        0
 91
        1
 62
     0
 92
       -2
340
0
 93
        0
 40
0.045
309
GRIDFORMAT_END
 95
        4
302
GRIDFORMAT
  1
GRIDFORMAT_BEGIN
 90
        0
 91
        1
 62
     0
 92
       -2
340
0
 93
        0
 40
0.045
309
GRIDFORMAT_END
 95
        8
302
GRIDFORMAT
  1
GRIDFORMAT_BEGIN
 90
        0
 91
        1
 62
     0
 92
       -2
340
0
 93
        0
 40
0.045
309
GRIDFORMAT_END
 95
       16
302
GRIDFORMAT
  1
GRIDFORMAT_BEGIN
 90
        0
 91
        1
 62
     0
 92
       -2
340
0
 93
        0
 40
0.045
309
GRIDFORMAT_END
 95
       32
302
GRIDFORMAT
  1
GRIDFORMAT_BEGIN
 90
        0
 91
        1
 62
     0
 92
       -2
340
0
 93
        0
 40
0.045
309
GRIDFORMAT_END
309
TABLEFORMAT_END
  1
CELLSTYLE_BEGIN
 90
        1
 91
        1
300
_TITLE
309
CELLSTYLE_END
300
CELLSTYLE
  1
TABLEFORMAT_BEGIN
 90
        5
170
     1
 91
        0
 92
        0
 62
   257
 93
        1
300
CONTENTFORMAT
  1
CONTENTFORMAT_BEGIN
 90
        0
 91
        0
 92
        4
 93
        0
300

 40
0.0
140
1.0
 94
        5
 62
     0
340
1C
144
0.18
309
CONTENTFORMAT_END
171
     0
 94
        6
 95
        1
302
GRIDFORMAT
  1
GRIDFORMAT_BEGIN
 90
        0
 91
        1
 62
     0
 92
       -2
340
0
 93
        0
 40
0.045
309
GRIDFORMAT_END
 95
        2
302
GRIDFORMAT
  1
GRIDFORMAT_BEGIN
 90
        0
 91
        1
 62
     0
 92
       -2
340
0
 93
        0
 40
0.045
309
GRIDFORMAT_END
 95
        4
302
GRIDFORMAT
  1
GRIDFORMAT_BEGIN
 90
        0
 91
        1
 62
     0
 92
       -2
340
0
 93
        0
 40
0.045
309
GRIDFORMAT_END
 95
        8
302
GRIDFORMAT
  1
GRIDFORMAT_BEGIN
 90
        0
 91
        1
 62
     0
 92
       -2
340
0
 93
        0
 40
0.045
309
GRIDFORMAT_END
 95
       16
302
GRIDFORMAT
  1
GRIDFORMAT_BEGIN
 90
        0
 91
        1
 62
     0
 92
       -2
340
0
 93
        0
 40
0.045
309
GRIDFORMAT_END
 95
       32
302
GRIDFORMAT
  1
GRIDFORMAT_BEGIN
 90
        0
 91
        1
 62
     0
 92
       -2
340
0
 93
        0
 40
0.045
309
GRIDFORMAT_END
309
TABLEFORMAT_END
  1
CELLSTYLE_BEGIN
 90
        2
 91
        1
300
_HEADER
309
CELLSTYLE_END
300
CELLSTYLE
  1
TABLEFORMAT_BEGIN
 90
        5
170
     1
 91
        0
 92
        0
 62
   257
 93
        1
300
CONTENTFORMAT
  1
CONTENTFORMAT_BEGIN
 90
        0
 91
        0
 92
        4
 93
        0
300

 40
0.0
140
1.0
 94
        2
 62
     0
340
1C
144
0.18
309
CONTENTFORMAT_END
171
     0
 94
        6
 95
        1
302
GRIDFORMAT
  1
GRIDFORMAT_BEGIN
 90
        0
 91
        1
 62
     0
 92
       -2
340
0
 93
        0
 40
0.045
309
GRIDFORMAT_END
 95
        2
302
GRIDFORMAT
  1
GRIDFORMAT_BEGIN
 90
        0
 91
        1
 62
     0
 92
       -2
340
0
 93
        0
 40
0.045
309
GRIDFORMAT_END
 95
        4
302
GRIDFORMAT
  1
GRIDFORMAT_BEGIN
 90
        0
 91
        1
 62
     0
 92
       -2
340
0
 93
        0
 40
0.045
309
GRIDFORMAT_END
 95
        8
302
GRIDFORMAT
  1
GRIDFORMAT_BEGIN
 90
        0
 91
        1
 62
     0
 92
       -2
340
0
 93
        0
 40
0.045
309
GRIDFORMAT_END
 95
       16
302
GRIDFORMAT
  1
GRIDFORMAT_BEGIN
 90
        0
 91
        1
 62
     0
 92
       -2
340
0
 93
        0
 40
0.045
309
GRIDFORMAT_END
 95
       32
302
GRIDFORMAT
  1
GRIDFORMAT_BEGIN
 90
        0
 91
        1
 62
     0
 92
       -2
340
0
 93
        0
 40
0.045
309
GRIDFORMAT_END
309
TABLEFORMAT_END
  1
CELLSTYLE_BEGIN
 90
        3
 91
        2
300
_DATA
309
CELLSTYLE_END
  0
ENDSEC
  0
EOF
