  0
SECTION
  2
HEADER
  9
$ACADVER
  1
AC1032
  9
$ACADMAINTVER
 90
      197
  9
$DWGCODEPAGE
  3
ANSI_936
  9
$REQUIREDVERSIONS
160
                 0
  9
$INSBASE
 10
0.0
 20
0.0
 30
0.0
  9
$EXTMIN
 10
-4.420907315470444
 20
-13.41598941421257
 30
0.0
  9
$EXTMAX
 10
21.70909268452955
 20
5.141086303802623
 30
0.0
  9
$LIMMIN
 10
0.0
 20
0.0
  9
$LIMMAX
 10
420.0
 20
297.0
  9
$ORTHOMODE
 70
     0
  9
$REGENMODE
 70
     1
  9
$FILLMODE
 70
     1
  9
$QTEXTMODE
 70
     0
  9
$MIRRTEXT
 70
     1
  9
$LTSCALE
 40
1.0
  9
$ATTMODE
 70
     1
  9
$TEXTSIZE
 40
2.5
  9
$TRACEWID
 40
1.0
  9
$TEXTSTYLE
  7
STANDARD
  9
$CLAYER
  8
1D
  9
$CELTYPE
  6
BYLAYER
  9
$CECOLOR
 62
   256
  9
$CELTSCALE
 40
1.0
  9
$DISPSILH
 70
     0
  9
$DIMSCALE
 40
1.0
  9
$DIMASZ
 40
0.18
  9
$DIMEXO
 40
0.0625
  9
$DIMDLI
 40
0.38
  9
$DIMRND
 40
0.0
  9
$DIMDLE
 40
0.0
  9
$DIMEXE
 40
0.18
  9
$DIMTP
 40
0.0
  9
$DIMTM
 40
0.0
  9
$DIMTXT
 40
0.18
  9
$DIMCEN
 40
0.09
  9
$DIMTSZ
 40
0.0
  9
$DIMTOL
 70
     0
  9
$DIMLIM
 70
     0
  9
$DIMTIH
 70
     0
  9
$DIMTOH
 70
     0
  9
$DIMSE1
 70
     0
  9
$DIMSE2
 70
     0
  9
$DIMTAD
 70
     0
  9
$DIMZIN
 70
     0
  9
$DIMBLK
  1

  9
$DIMASO
 70
     0
  9
$DIMSHO
 70
     1
  9
$DIMPOST
  1

  9
$DIMAPOST
  1

  9
$DIMALT
 70
     0
  9
$DIMALTD
 70
     2
  9
$DIMALTF
 40
25.4
  9
$DIMLFAC
 40
25.4
  9
$DIMTOFL
 70
     0
  9
$DIMTVP
 40
0.0
  9
$DIMTIX
 70
     0
  9
$DIMSOXD
 70
     0
  9
$DIMSAH
 70
     0
  9
$DIMBLK1
  1

  9
$DIMBLK2
  1

  9
$DIMSTYLE
  2
STANDARD
  9
$DIMCLRD
 70
     0
  9
$DIMCLRE
 70
     0
  9
$DIMCLRT
 70
     0
  9
$DIMTFAC
 40
1.0
  9
$DIMGAP
 40
0.09
  9
$DIMJUST
 70
     0
  9
$DIMSD1
 70
     0
  9
$DIMSD2
 70
     0
  9
$DIMTOLJ
 70
     1
  9
$DIMTZIN
 70
     0
  9
$DIMALTZ
 70
     0
  9
$DIMALTTZ
 70
     0
  9
$DIMUPT
 70
     0
  9
$DIMDEC
 70
     4
  9
$DIMTDEC
 70
     4
  9
$DIMALTU
 70
     2
  9
$DIMALTTD
 70
     2
  9
$DIMTXSTY
  7
STANDARD
  9
$DIMAUNIT
 70
     0
  9
$DIMADEC
 70
     0
  9
$DIMALTRND
 40
0.0
  9
$DIMAZIN
 70
     0
  9
$DIMDSEP
 70
    46
  9
$DIMATFIT
 70
     3
  9
$DIMFRAC
 70
     0
  9
$DIMLDRBLK
  1

  9
$DIMLUNIT
 70
     2
  9
$DIMLWD
 70
    -2
  9
$DIMLWE
 70
    -2
  9
$DIMTMOVE
 70
     0
  9
$DIMFXL
 40
0.15
  9
$DIMFXLON
 70
     0
  9
$DIMJOGANG
 40
1.570796326794896
  9
$DIMTFILL
 70
     0
  9
$DIMTFILLCLR
 70
     0
  9
$DIMARCSYM
 70
     1
  9
$DIMLTYPE
  6

  9
$DIMLTEX1
  6

  9
$DIMLTEX2
  6

  9
$DIMTXTDIRECTION
 70
     0
  9
$LUNITS
 70
     2
  9
$LUPREC
 70
     8
  9
$SKETCHINC
 40
1.0
  9
$FILLETRAD
 40
0.0
  9
$AUNITS
 70
     0
  9
$AUPREC
 70
     0
  9
$MENU
  1
.
  9
$ELEVATION
 40
0.0
  9
$PELEVATION
 40
0.0
  9
$THICKNESS
 40
0.0
  9
$LIMCHECK
 70
     0
  9
$CHAMFERA
 40
10.0
  9
$CHAMFERB
 40
10.0
  9
$CHAMFERC
 40
20.0
  9
$CHAMFERD
 40
0.0
  9
$SKPOLY
 70
     0
  9
$TDCREATE
 40
2451530.659479167
  9
$TDUCREATE
 40
2451530.326156482
  9
$TDUPDATE
 40
2460286.679907408
  9
$TDUUPDATE
 40
2460286.346574074
  9
$TDINDWG
 40
4.1199760417
  9
$TDUSRTIMER
 40
4.1199760417
  9
$USRTIMER
 70
     1
  9
$ANGBASE
 50
0.0
  9
$ANGDIR
 70
     0
  9
$PDMODE
 70
     0
  9
$PDSIZE
 40
0.0
  9
$PLINEWID
 40
0.0
  9
$SPLFRAME
 70
     0
  9
$SPLINETYPE
 70
     6
  9
$SPLINESEGS
 70
     8
  9
$HANDSEED
  5
211
  9
$SURFTAB1
 70
     6
  9
$SURFTAB2
 70
     6
  9
$SURFTYPE
 70
     6
  9
$SURFU
 70
     6
  9
$SURFV
 70
     6
  9
$UCSBASE
  2

  9
$UCSNAME
  2

  9
$UCSORG
 10
0.0
 20
0.0
 30
0.0
  9
$UCSXDIR
 10
1.0
 20
0.0
 30
0.0
  9
$UCSYDIR
 10
0.0
 20
1.0
 30
0.0
  9
$UCSORTHOREF
  2

  9
$UCSORTHOVIEW
 70
     0
  9
$UCSORGTOP
 10
0.0
 20
0.0
 30
0.0
  9
$UCSORGBOTTOM
 10
0.0
 20
0.0
 30
0.0
  9
$UCSORGLEFT
 10
0.0
 20
0.0
 30
0.0
  9
$UCSORGRIGHT
 10
0.0
 20
0.0
 30
0.0
  9
$UCSORGFRONT
 10
0.0
 20
0.0
 30
0.0
  9
$UCSORGBACK
 10
0.0
 20
0.0
 30
0.0
  9
$PUCSBASE
  2

  9
$PUCSNAME
  2

  9
$PUCSORG
 10
0.0
 20
0.0
 30
0.0
  9
$PUCSXDIR
 10
1.0
 20
0.0
 30
0.0
  9
$PUCSYDIR
 10
0.0
 20
1.0
 30
0.0
  9
$PUCSORTHOREF
  2

  9
$PUCSORTHOVIEW
 70
     0
  9
$PUCSORGTOP
 10
0.0
 20
0.0
 30
0.0
  9
$PUCSORGBOTTOM
 10
0.0
 20
0.0
 30
0.0
  9
$PUCSORGLEFT
 10
0.0
 20
0.0
 30
0.0
  9
$PUCSORGRIGHT
 10
0.0
 20
0.0
 30
0.0
  9
$PUCSORGFRONT
 10
0.0
 20
0.0
 30
0.0
  9
$PUCSORGBACK
 10
0.0
 20
0.0
 30
0.0
  9
$USERI1
 70
     0
  9
$USERI2
 70
     0
  9
$USERI3
 70
     0
  9
$USERI4
 70
     0
  9
$USERI5
 70
     0
  9
$USERR1
 40
0.0
  9
$USERR2
 40
0.0
  9
$USERR3
 40
0.0
  9
$USERR4
 40
0.0
  9
$USERR5
 40
0.0
  9
$WORLDVIEW
 70
     1
  9
$SHADEDGE
 70
     3
  9
$SHADEDIF
 70
    70
  9
$TILEMODE
 70
     1
  9
$MAXACTVP
 70
    48
  9
$PINSBASE
 10
0.0
 20
0.0
 30
0.0
  9
$PLIMCHECK
 70
     0
  9
$PEXTMIN
 10
1.000000000000000E+20
 20
1.000000000000000E+20
 30
1.000000000000000E+20
  9
$PEXTMAX
 10
-1.000000000000000E+20
 20
-1.000000000000000E+20
 30
-1.000000000000000E+20
  9
$PLIMMIN
 10
0.0
 20
0.0
  9
$PLIMMAX
 10
420.0
 20
297.0
  9
$UNITMODE
 70
     0
  9
$VISRETAIN
 70
     1
  9
$PLINEGEN
 70
     0
  9
$PSLTSCALE
 70
     1
  9
$TREEDEPTH
 70
  3020
  9
$CMLSTYLE
  2
STANDARD
  9
$CMLJUST
 70
     0
  9
$CMLSCALE
 40
20.0
  9
$PROXYGRAPHICS
 70
     1
  9
$MEASUREMENT
 70
     1
  9
$CELWEIGHT
370
    -1
  9
$ENDCAPS
280
     0
  9
$JOINSTYLE
280
     0
  9
$LWDISPLAY
290
     0
  9
$INSUNITS
 70
     0
  9
$HYPERLINKBASE
  1

  9
$STYLESHEET
  1

  9
$XEDIT
290
     1
  9
$CEPSNTYPE
380
     0
  9
$PSTYLEMODE
290
     1
  9
$FINGERPRINTGUID
  2
{202ABEDE-3D28-4348-A634-1573269068C8}
  9
$VERSIONGUID
  2
{DBDE93BD-63F5-564F-9FB2-93EEEC0E237D}
  9
$EXTNAMES
290
     1
  9
$PSVPSCALE
 40
0.0
  9
$OLESTARTUP
290
     0
  9
$SORTENTS
280
   127
  9
$INDEXCTL
280
     0
  9
$HIDETEXT
280
     1
  9
$XCLIPFRAME
280
     2
  9
$HALOGAP
280
     0
  9
$OBSCOLOR
 70
   257
  9
$OBSLTYPE
280
     0
  9
$INTERSECTIONDISPLAY
280
     0
  9
$INTERSECTIONCOLOR
 70
   257
  9
$DIMASSOC
280
     0
  9
$PROJECTNAME
  1

  9
$CAMERADISPLAY
290
     0
  9
$LENSLENGTH
 40
50.0
  9
$CAMERAHEIGHT
 40
0.0
  9
$STEPSPERSEC
 40
2.0
  9
$STEPSIZE
 40
6.0
  9
$3DDWFPREC
 40
2.0
  9
$PSOLWIDTH
 40
0.25
  9
$PSOLHEIGHT
 40
4.0
  9
$LOFTANG1
 40
1.570796326794896
  9
$LOFTANG2
 40
1.570796326794896
  9
$LOFTMAG1
 40
0.0
  9
$LOFTMAG2
 40
0.0
  9
$LOFTPARAM
 70
     7
  9
$LOFTNORMALS
280
     1
  9
$LATITUDE
 40
37.795
  9
$LONGITUDE
 40
-122.394
  9
$NORTHDIRECTION
 40
0.0
  9
$TIMEZONE
 70
 -8000
  9
$LIGHTGLYPHDISPLAY
280
     1
  9
$TILEMODELIGHTSYNCH
280
     1
  9
$CMATERIAL
347
35
  9
$SOLIDHIST
280
     0
  9
$SHOWHIST
280
     1
  9
$DWFFRAME
280
     2
  9
$DGNFRAME
280
     0
  9
$REALWORLDSCALE
290
     1
  9
$INTERFERECOLOR
 62
     1
  9
$INTERFEREOBJVS
345
50
  9
$INTERFEREVPVS
346
51
  9
$CSHADOW
280
     0
  9
$SHADOWPLANELOCATION
 40
0.0
  0
ENDSEC
  0
SECTION
  2
CLASSES
  0
CLASS
  1
DICTIONARYVAR
  2
AcDbDictionaryVar
  3
ObjectDBX Classes
 90
        0
 91
       13
280
     0
281
     0
  0
CLASS
  1
ACDBDICTIONARYWDFLT
  2
AcDbDictionaryWithDefault
  3
ObjectDBX Classes
 90
        0
 91
        1
280
     0
281
     0
  0
CLASS
  1
SORTENTSTABLE
  2
AcDbSortentsTable
  3
ObjectDBX Classes
 90
        0
 91
        2
280
     0
281
     0
  0
CLASS
  1
MATERIAL
  2
AcDbMaterial
  3
ObjectDBX Classes
 90
     1153
 91
        3
280
     0
281
     0
  0
CLASS
  1
VISUALSTYLE
  2
AcDbVisualStyle
  3
ObjectDBX Classes
 90
     4095
 91
        4
280
     0
281
     0
  0
CLASS
  1
TABLESTYLE
  2
AcDbTableStyle
  3
ObjectDBX Classes
 90
     4095
 91
        1
280
     0
281
     0
  0
CLASS
  1
SCALE
  2
AcDbScale
  3
ObjectDBX Classes
 90
     1153
 91
       17
280
     0
281
     0
  0
CLASS
  1
MLEADERSTYLE
  2
AcDbMLeaderStyle
  3
ACDB_MLEADERSTYLE_CLASS
 90
     4095
 91
        0
280
     0
281
     0
  0
CLASS
  1
ACDBSECTIONVIEWSTYLE
  2
AcDbSectionViewStyle
  3
ObjectDBX Classes
 90
     1025
 91
        0
280
     0
281
     0
  0
CLASS
  1
ACDBDETAILVIEWSTYLE
  2
AcDbDetailViewStyle
  3
ObjectDBX Classes
 90
     1025
 91
        0
280
     0
281
     0
  0
CLASS
  1
EXACXREFPANELOBJECT
  2
ExAcXREFPanelObject
  3
EXAC_ESW
 90
     1025
 91
        0
280
     1
281
     0
  0
CLASS
  1
NPOCOLLECTION
  2
AcDbImpNonPersistentObjectsCollection
  3
ObjectDBX Classes
 90
     1153
 91
        0
280
     0
281
     0
  0
CLASS
  1
ACDBASSOCACTION
  2
AcDbAssocAction
  3
ObjectDBX Classes
 90
     1025
 91
        0
280
     0
281
     0
  0
CLASS
  1
ACDBASSOCARRAYACTIONBODY
  2
AcDbAssocArrayActionBody
  3
ObjectDBX Classes
 90
     1025
 91
        0
280
     0
281
     0
  0
CLASS
  1
ACDBASSOCDEPENDENCY
  2
AcDbAssocDependency
  3
ObjectDBX Classes
 90
     1025
 91
        0
280
     0
281
     0
  0
CLASS
  1
ACDBASSOCVERTEXACTIONPARAM
  2
AcDbAssocVertexActionParam
  3
ObjectDBX Classes
 90
     1025
 91
        0
280
     0
281
     0
  0
CLASS
  1
ACDBASSOCARRAYRECTANGULARPARAMETERS
  2
AcDbAssocArrayRectangularParameters
  3
ObjectDBX Classes
 90
     1025
 91
        0
280
     0
281
     0
  0
CLASS
  1
ACDBASSOCNETWORK
  2
AcDbAssocNetwork
  3
ObjectDBX Classes
 90
     1025
 91
        0
280
     0
281
     0
  0
CLASS
  1
CELLSTYLEMAP
  2
AcDbCellStyleMap
  3
ObjectDBX Classes
 90
     1152
 91
        1
280
     0
281
     0
  0
CLASS
  1
ACDB_DYNAMICBLOCKPURGEPREVENTER_VERSION
  2
AcDbDynamicBlockPurgePreventer
  3
ObjectDBX Classes
 90
     1153
 91
        0
280
     0
281
     0
  0
ENDSEC
  0
SECTION
  2
TABLES
  0
TABLE
  2
VPORT
  5
28
102
{ACAD_XDICTIONARY
360
2D
102
}
330
0
100
AcDbSymbolTable
 70
     1
  0
VPORT
  5
29
330
28
100
AcDbSymbolTableRecord
100
AcDbViewportTableRecord
  2
*Active
 70
     0
 10
0.0
 20
0.0
 11
1.0
 21
1.0
 12
10.77430844314131
 22
-6.96609574158022
 13
0.0
 23
0.0
 14
10.0
 24
10.0
 15
10.0
 25
10.0
 16
0.0
 26
0.0
 36
1.0
 17
0.0
 27
0.0
 37
0.0
 40
31.7316518802148
 41
2.311515151515151
 42
50.0
 43
0.0
 44
0.0
 50
0.0
 51
0.0
 71
     0
 72
 20000
 73
     1
 74
     0
 75
     0
 76
     0
 77
     0
 78
     0
281
     0
 65
     1
110
0.0
120
0.0
130
0.0
111
1.0
121
0.0
131
0.0
112
0.0
122
1.0
132
0.0
 79
     0
146
0.0
348
2A
 60
     3
 61
     5
292
     1
282
     1
141
0.0
142
0.0
 63
   250
421
  3355443
1001
ACAD_NAV_VCDISPLAY
1070
     3
  0
ENDTAB
  0
TABLE
  2
LTYPE
  5
23
330
0
100
AcDbSymbolTable
 70
     3
  0
LTYPE
  5
24
330
23
100
AcDbSymbolTableRecord
100
AcDbLinetypeTableRecord
  2
BYBLOCK
 70
     0
  3

 72
    65
 73
     0
 40
0.0
  0
LTYPE
  5
25
330
23
100
AcDbSymbolTableRecord
100
AcDbLinetypeTableRecord
  2
BYLAYER
 70
     0
  3

 72
    65
 73
     0
 40
0.0
  0
LTYPE
  5
F
330
23
100
AcDbSymbolTableRecord
100
AcDbLinetypeTableRecord
  2
CONTINUOUS
 70
     0
  3
Solid line
 72
    65
 73
     0
 40
0.0
  0
LTYPE
  5
BF
330
23
100
AcDbSymbolTableRecord
100
AcDbLinetypeTableRecord
  2
CENTER
 70
     0
  3
____ _ ____ _ ____ _ ____ _ ____ _ ____ _ ____
 72
    65
 73
     4
 40
2.0
 49
1.25
 74
     0
 49
-0.25
 74
     0
 49
0.25
 74
     0
 49
-0.25
 74
     0
  0
LTYPE
  5
CA
330
23
100
AcDbSymbolTableRecord
100
AcDbLinetypeTableRecord
  2
PHANTOM
 70
     0
  3
Phantom ______  __  __  ______  __  __  ______
 72
    65
 73
     6
 40
2.5
 49
1.25
 74
     0
 49
-0.25
 74
     0
 49
0.25
 74
     0
 49
-0.25
 74
     0
 49
0.25
 74
     0
 49
-0.25
 74
     0
  0
ENDTAB
  0
TABLE
  2
LAYER
  5
1A
102
{ACAD_XDICTIONARY
360
1B
102
}
330
0
100
AcDbSymbolTable
 70
     5
  0
LAYER
  5
7
102
{ACAD_XDICTIONARY
360
8
102
}
330
1A
100
AcDbSymbolTableRecord
100
AcDbLayerTableRecord
  2
0
 70
     0
 62
     7
  6
CONTINUOUS
370
    -3
390
A
347
D
348
0
  0
LAYER
  5
1C6
102
{ACAD_XDICTIONARY
360
1C7
102
}
330
1A
100
AcDbSymbolTableRecord
100
AcDbLayerTableRecord
  2
1
 70
     0
 62
     7
  6
CONTINUOUS
370
    -3
390
A
347
D
348
0
1001
AcAecLayerStandard
1000

1000

  0
LAYER
  5
49
102
{ACAD_XDICTIONARY
360
4A
102
}
330
1A
100
AcDbSymbolTableRecord
100
AcDbLayerTableRecord
  2
1D
 70
     0
 62
     4
  6
CONTINUOUS
370
    -3
390
A
347
D
348
0
1001
AcAecLayerStandard
1000

1000

  0
LAYER
  5
8D
102
{ACAD_XDICTIONARY
360
8E
102
}
330
1A
100
AcDbSymbolTableRecord
100
AcDbLayerTableRecord
  2
PAGE1
 70
     0
 62
     7
  6
CONTINUOUS
370
    -3
390
A
347
D
348
0
  0
LAYER
  5
BC
102
{ACAD_XDICTIONARY
360
BD
102
}
330
1A
100
AcDbSymbolTableRecord
100
AcDbLayerTableRecord
  2
CENTER
 70
     0
 62
     2
  6
CENTER
370
    -3
390
A
347
D
348
0
  0
ENDTAB
  0
TABLE
  2
STYLE
  5
20
330
0
100
AcDbSymbolTable
 70
     1
  0
STYLE
  5
21
330
20
100
AcDbSymbolTableRecord
100
AcDbTextStyleTableRecord
  2
STANDARD
 70
     0
 40
0.0
 41
1.0
 50
0.0
 71
     0
 42
2.5
  3
simplex8.shx
  4

  0
ENDTAB
  0
TABLE
  2
VIEW
  5
26
330
0
100
AcDbSymbolTable
 70
     0
  0
ENDTAB
  0
TABLE
  2
UCS
  5
27
330
0
100
AcDbSymbolTable
 70
     0
  0
ENDTAB
  0
TABLE
  2
APPID
  5
2E
330
0
100
AcDbSymbolTable
 70
     6
  0
APPID
  5
1F
330
2E
100
AcDbSymbolTableRecord
100
AcDbRegAppTableRecord
  2
ACAD
 70
     0
  0
APPID
  5
4C
330
2E
100
AcDbSymbolTableRecord
100
AcDbRegAppTableRecord
  2
AcAecLayerStandard
 70
     0
  0
APPID
  5
CB
330
2E
100
AcDbSymbolTableRecord
100
AcDbRegAppTableRecord
  2
AcDbBlockRepETag
 70
     0
  0
APPID
  5
13
330
2E
100
AcDbSymbolTableRecord
100
AcDbRegAppTableRecord
  2
AcadStringInfo
 70
     0
  0
APPID
  5
2C
330
2E
100
AcDbSymbolTableRecord
100
AcDbRegAppTableRecord
  2
ACAD_NAV_VCDISPLAY
 70
     0
  0
APPID
  5
20D
330
2E
100
AcDbSymbolTableRecord
100
AcDbRegAppTableRecord
  2
Acad_TC
 70
     0
  0
ENDTAB
  0
TABLE
  2
DIMSTYLE
  5
2F
330
0
100
AcDbSymbolTable
 70
     1
100
AcDbDimStyleTable
 71
     1
340
30
  0
DIMSTYLE
105
30
330
2F
100
AcDbSymbolTableRecord
100
AcDbDimStyleTableRecord
  2
STANDARD
 70
     0
 73
     0
 74
     0
144
25.4
340
21
  0
ENDTAB
  0
TABLE
  2
BLOCK_RECORD
  5
1
330
0
100
AcDbSymbolTable
 70
     0
  0
BLOCK_RECORD
  5
2
102
{ACAD_XDICTIONARY
360
3
102
}
330
1
100
AcDbSymbolTableRecord
100
AcDbBlockTableRecord
  2
*MODEL_SPACE
340
11
 70
     0
280
     1
281
     0
  0
BLOCK_RECORD
  5
14
102
{ACAD_XDICTIONARY
360
15
102
}
330
1
100
AcDbSymbolTableRecord
100
AcDbBlockTableRecord
  2
*PAPER_SPACE
340
19
 70
     0
280
     1
281
     0
  0
ENDTAB
  0
ENDSEC
  0
SECTION
  2
BLOCKS
  0
BLOCK
  5
6
330
2
100
AcDbEntity
  8
0
100
AcDbBlockBegin
  2
*MODEL_SPACE
 70
     0
 10
0.0
 20
0.0
 30
0.0
  3
*MODEL_SPACE
  1

  0
ENDBLK
  5
10
330
2
100
AcDbEntity
  8
0
100
AcDbBlockEnd
  0
BLOCK
  5
17
330
14
100
AcDbEntity
 67
     1
  8
0
100
AcDbBlockBegin
  2
*PAPER_SPACE
 70
     0
 10
0.0
 20
0.0
 30
0.0
  3
*PAPER_SPACE
  1

  0
ENDBLK
  5
18
330
14
100
AcDbEntity
 67
     1
  8
0
100
AcDbBlockEnd
  0
ENDSEC
  0
SECTION
  2
ENTITIES
  0
LINE
  5
63
330
2
100
AcDbEntity
  8
1D
100
AcDbLine
 10
-1.49921382712786
 20
2.640606053034851
 30
0.0
 11
-1.49921382712786
 21
3.657655014857986
 31
0.0
  0
LINE
  5
64
330
2
100
AcDbEntity
  8
1D
100
AcDbLine
 10
8.658266487832769
 20
2.640606053034851
 30
0.0
 11
8.658266487832769
 21
3.657655014857986
 31
0.0
  0
LINE
  5
65
330
2
100
AcDbEntity
  8
1D
100
AcDbLine
 10
-1.31921382712786
 20
3.477655014857987
 30
0.0
 11
2.478097758923882
 21
3.477655014857987
 31
0.0
  0
LINE
  5
66
330
2
100
AcDbEntity
  8
1D
100
AcDbLine
 10
8.478266487832769
 20
3.477655014857987
 30
0.0
 11
4.680954901781025
 21
3.477655014857987
 31
0.0
  0
SOLID
  5
67
330
2
100
AcDbEntity
  8
1D
100
AcDbTrace
 10
-1.31921382712786
 20
3.507655014857987
 30
0.0
 11
-1.31921382712786
 21
3.447655014857987
 31
0.0
 12
-1.49921382712786
 22
3.477655014857987
 32
0.0
 13
-1.49921382712786
 23
3.477655014857987
 33
0.0
  0
SOLID
  5
69
330
2
100
AcDbEntity
  8
1D
100
AcDbTrace
 10
8.478266487832769
 20
3.507655014857987
 30
0.0
 11
8.478266487832769
 21
3.447655014857987
 31
0.0
 12
8.658266487832769
 22
3.477655014857987
 32
0.0
 13
8.658266487832769
 23
3.477655014857987
 33
0.0
  0
MTEXT
  5
6A
330
2
100
AcDbEntity
  8
1D
100
AcDbMText
 10
3.579526330352454
 20
3.477655014857987
 30
0.0
 40
0.18
 41
0.0
 46
0.0
 71
     5
 72
     1
  1
\A1;258.000%%P0.100
 73
     1
 44
1.0
  0
LINE
  5
6B
330
2
100
AcDbEntity
  8
1D
100
AcDbLine
 10
-1.522343748387697
 20
-0.4533900099572819
 30
0.0
 11
-1.999056785116686
 21
-0.4533900099572817
 31
0.0
  0
LINE
  5
6C
330
2
100
AcDbEntity
  8
1D
100
AcDbLine
 10
-1.522343748387693
 20
2.617476131775006
 30
0.0
 11
-1.999056785116685
 21
2.617476131775006
 31
0.0
  0
LINE
  5
6D
330
2
100
AcDbEntity
  8
1D
100
AcDbLine
 10
-1.819056785116686
 20
-0.2733900099572818
 30
0.0
 11
-1.819056785116686
 21
0.04918591805172
 31
0.0
  0
LINE
  5
6E
330
2
100
AcDbEntity
  8
1D
100
AcDbLine
 10
-1.819056785116686
 20
2.437476131775006
 30
0.0
 11
-1.819056785116686
 21
2.114900203766004
 31
0.0
  0
SOLID
  5
6F
330
2
100
AcDbEntity
  8
1D
100
AcDbTrace
 10
-1.849056785116686
 20
-0.2733900099572818
 30
0.0
 11
-1.789056785116686
 21
-0.2733900099572818
 31
0.0
 12
-1.819056785116686
 22
-0.4533900099572818
 32
0.0
 13
-1.819056785116686
 23
-0.4533900099572818
 33
0.0
  0
SOLID
  5
70
330
2
100
AcDbEntity
  8
1D
100
AcDbTrace
 10
-1.849056785116686
 20
2.437476131775006
 30
0.0
 11
-1.789056785116686
 21
2.437476131775006
 31
0.0
 12
-1.819056785116685
 22
2.617476131775006
 32
0.0
 13
-1.819056785116685
 23
2.617476131775006
 33
0.0
  0
MTEXT
  5
71
330
2
100
AcDbEntity
  8
1D
100
AcDbMText
 10
-1.819056785116686
 20
1.082043060908862
 30
0.0
 40
0.18
 41
0.0
 46
0.0
 71
     5
 72
     1
  1
\A1;78.000%%P0.050
 11
0.0000000000000001
 21
1.0
 31
0.0
 73
     1
 44
1.0
  0
MTEXT
  5
72
330
2
100
AcDbEntity
  8
1D
100
AcDbMText
 10
-2.121392259716913
 20
1.082043060908862
 30
0.0
 40
0.18
 41
0.0
 46
0.0
 71
     5
 72
     1
  1
\A1;STRIP WIDTH
 11
0.0000000000000001
 21
1.0
 31
0.0
 73
     1
 44
1.0
  0
MTEXT
  5
73
330
2
100
AcDbEntity
  8
1D
100
AcDbMText
 10
3.579526330352454
 20
3.713641308640035
 30
0.0
 40
0.18
 41
0.0
 46
0.0
 71
     5
 72
     1
  1
\A1;STRIP LENGTH = STRIP PITCH
 73
     1
 44
1.0
  0
LINE
  5
74
330
2
100
AcDbEntity
  8
1D
100
AcDbLine
 10
-1.49921382712786
 20
2.640606053034851
 30
0.0
 11
-1.49921382712786
 21
4.500484631890962
 31
0.0
  0
LINE
  5
75
330
2
100
AcDbEntity
  8
1D
100
AcDbLine
 10
18.8157468027934
 20
2.640606053034851
 30
0.0
 11
18.8157468027934
 21
4.500484631890962
 31
0.0
  0
LINE
  5
76
330
2
100
AcDbEntity
  8
1D
100
AcDbLine
 10
-1.31921382712786
 20
4.320484631890963
 30
0.0
 11
7.968266487832769
 21
4.320484631890963
 31
0.0
  0
LINE
  5
77
330
2
100
AcDbEntity
  8
1D
100
AcDbLine
 10
18.6357468027934
 20
4.320484631890963
 30
0.0
 11
9.348266487832768
 21
4.320484631890963
 31
0.0
  0
SOLID
  5
78
330
2
100
AcDbEntity
  8
1D
100
AcDbTrace
 10
-1.31921382712786
 20
4.350484631890963
 30
0.0
 11
-1.31921382712786
 21
4.290484631890963
 31
0.0
 12
-1.49921382712786
 22
4.320484631890963
 32
0.0
 13
-1.49921382712786
 23
4.320484631890963
 33
0.0
  0
SOLID
  5
79
330
2
100
AcDbEntity
  8
1D
100
AcDbTrace
 10
18.6357468027934
 20
4.350484631890963
 30
0.0
 11
18.6357468027934
 21
4.290484631890963
 31
0.0
 12
18.8157468027934
 22
4.320484631890963
 32
0.0
 13
18.8157468027934
 23
4.320484631890963
 33
0.0
  0
MTEXT
  5
7A
330
2
100
AcDbEntity
  8
1D
100
AcDbMText
 10
8.658266487832769
 20
4.320484631890963
 30
0.0
 40
0.18
 41
0.0
 46
0.0
 71
     5
 72
     1
  1
\A1;516.0000
 73
     1
 44
1.0
  0
MTEXT
  5
7B
330
2
100
AcDbEntity
  8
1D
100
AcDbMText
 10
8.658266487832769
 20
4.642345250142625
 30
0.0
 40
0.18
 41
0.0
 46
0.0
 71
     5
 72
     1
  1
\A1;INDEXING DISTANCE
 73
     1
 44
1.0
  0
LEADER
  5
7C
330
2
100
AcDbEntity
  8
1D
100
AcDbLeader
  3
STANDARD
 73
     0
 40
0.24
 41
2.974285714285715
 76
     3
 10
8.658266487832769
 20
2.396148621693669
 30
0.0
 10
9.238664888101538
 20
3.057442269270495
 30
0.0
 10
9.39800889716264
 20
3.057442269270495
 30
0.0
340
7D
213
0.0
223
-0.09
233
0.0
1001
ACAD
1000
DSTYLE
1002
{
1070
   147
1040
0.09
1070
    77
1070
     0
1002
}
  0
MTEXT
  5
7D
102
{ACAD_REACTORS
330
7C
102
}
330
2
100
AcDbEntity
  8
1D
100
AcDbMText
 10
9.488008897162639
 20
3.147442269270495
 30
0.0
 40
0.18
 41
0.0
 46
0.0
 71
     1
 72
     1
  1
\A1;Endcut Trimming Line
 73
     1
 44
1.0
  0
LEADER
  5
7E
330
2
100
AcDbEntity
  8
1D
100
AcDbLeader
  3
STANDARD
 73
     0
 40
0.18
 41
0.1371428571428571
 76
     3
 10
13.75669168468318
 20
2.625350147523271
 30
0.0
 10
14.20904378263015
 20
3.176522619327101
 30
0.0
 10
14.38468810950394
 20
3.176522619327101
 30
0.0
340
7F
213
0.0
223
-0.09
233
0.0
1001
ACAD
1000
DSTYLE
1002
{
1070
   147
1040
0.09
1070
    77
1070
     0
1002
}
  0
MTEXT
  5
7F
102
{ACAD_REACTORS
330
7E
102
}
330
2
100
AcDbEntity
  8
1D
100
AcDbMText
 10
14.47468810950394
 20
3.266522619327101
 30
0.0
 40
0.18
 41
0.0
 46
0.0
 71
     1
 72
     1
  1
\A1;A
 73
     1
 44
1.0
  0
LEADER
  5
80
330
2
100
AcDbEntity
  8
1D
100
AcDbLeader
  3
STANDARD
 73
     0
 40
0.18
 41
0.12
 76
     3
 10
18.62904300659243
 20
2.562647701250359
 30
0.0
 10
18.17480555996712
 20
3.170605189303159
 30
0.0
 10
18.01419634097601
 20
3.170605189303159
 30
0.0
340
81
213
0.0
223
0.09
233
0.0
1001
ACAD
1000
DSTYLE
1002
{
1070
   147
1040
0.09
1070
    77
1070
     0
1002
}
  0
MTEXT
  5
81
102
{ACAD_REACTORS
330
80
102
}
330
2
100
AcDbEntity
  8
1D
100
AcDbMText
 10
17.92419634097601
 20
3.08060518930316
 30
0.0
 40
0.18
 41
0.0
 46
0.0
 71
     9
 72
     1
  1
\A1;B
 73
     1
 44
1.0
  0
LEADER
  5
82
330
2
100
AcDbEntity
  8
1D
100
AcDbLeader
  3
STANDARD
 73
     0
 40
0.18
 41
0.1285714285714286
 76
     3
 10
10.16023191126303
 20
-0.3938624509021622
 30
0.0
 10
10.59021907814986
 20
-0.8778911028489346
 30
0.0
 10
10.77815329375733
 20
-0.8778911028489346
 30
0.0
340
83
213
0.0
223
-0.09
233
0.0
1001
ACAD
1000
DSTYLE
1002
{
1070
   147
1040
0.09
1070
    77
1070
     0
1002
}
  0
MTEXT
  5
83
102
{ACAD_REACTORS
330
82
102
}
330
2
100
AcDbEntity
  8
1D
100
AcDbMText
 10
10.86815329375732
 20
-0.7878911028489348
 30
0.0
 40
0.18
 41
0.0
 46
0.0
 71
     1
 72
     1
  1
\A1;C
 73
     1
 44
1.0
  0
LEADER
  5
84
330
2
100
AcDbEntity
  8
1D
100
AcDbLeader
  3
STANDARD
 73
     0
 40
0.18
 41
0.12
 76
     3
 10
12.54605868291657
 20
-0.429295521768303
 30
0.0
 10
12.83894946571217
 20
-0.8584673426884137
 30
0.0
 10
12.93615667337974
 20
-0.8584673426884137
 30
0.0
340
85
213
0.0
223
-0.09
233
0.0
1001
ACAD
1000
DSTYLE
1002
{
1070
   147
1040
0.09
1070
    77
1070
     0
1002
}
  0
MTEXT
  5
85
102
{ACAD_REACTORS
330
84
102
}
330
2
100
AcDbEntity
  8
1D
100
AcDbMText
 10
13.02615667337974
 20
-0.7684673426884138
 30
0.0
 40
0.18
 41
0.0
 46
0.0
 71
     1
 72
     1
  1
\A1;D
 73
     1
 44
1.0
  0
LEADER
  5
86
330
2
100
AcDbEntity
  8
1D
100
AcDbLeader
  3
STANDARD
 73
     0
 40
0.18
 41
0.1114285714285714
 76
     3
 10
14.96731852543625
 20
-0.429295521768303
 30
0.0
 10
15.26523715734595
 20
-0.8131704579753886
 30
0.0
 10
15.39484704835286
 20
-0.8131704579753886
 30
0.0
340
87
213
0.0
223
-0.09
233
0.0
1001
ACAD
1000
DSTYLE
1002
{
1070
   147
1040
0.09
1070
    77
1070
     0
1002
}
  0
MTEXT
  5
87
102
{ACAD_REACTORS
330
86
102
}
330
2
100
AcDbEntity
  8
1D
100
AcDbMText
 10
15.48484704835286
 20
-0.7231704579753888
 30
0.0
 40
0.18
 41
0.0
 46
0.0
 71
     1
 72
     1
  1
\A1;E
 73
     1
 44
1.0
  0
LEADER
  5
88
330
2
100
AcDbEntity
  8
1D
100
AcDbLeader
  3
STANDARD
 73
     0
 40
0.18
 41
0.1114285714285714
 76
     3
 10
17.38857836795594
 20
-0.429295521768303
 30
0.0
 10
17.67020328190438
 20
-0.850912877850078
 30
0.0
 10
17.89947667362537
 20
-0.850912877850078
 30
0.0
340
89
213
0.0
223
-0.09
233
0.0
1001
ACAD
1000
DSTYLE
1002
{
1070
   147
1040
0.09
1070
    77
1070
     0
1002
}
  0
MTEXT
  5
89
102
{ACAD_REACTORS
330
88
102
}
330
2
100
AcDbEntity
  8
1D
100
AcDbMText
 10
17.98947667362537
 20
-0.7609128778500782
 30
0.0
 40
0.18
 41
0.0
 46
0.0
 71
     1
 72
     1
  1
\A1;F
 73
     1
 44
1.0
  0
LEADER
  5
8A
330
2
100
AcDbEntity
  8
1D
100
AcDbLeader
  3
STANDARD
 73
     0
 40
0.1800000000000001
 41
1.199999999999999
 76
     3
 10
8.451393316375799
 20
2.809243630422193
 30
0.0
 10
8.025359699238983
 20
3.226734249864747
 30
0.0
 10
7.89962047273017
 20
3.226734249864747
 30
0.0
340
8B
213
0.0
223
0.09
233
0.0
1001
ACAD
1000
DSTYLE
1002
{
1070
   147
1040
0.09
1070
    77
1070
     0
1002
}
  0
MTEXT
  5
8B
102
{ACAD_REACTORS
330
8A
102
}
330
2
100
AcDbEntity
  8
1D
100
AcDbMText
 10
7.80962047273017
 20
3.136734249864747
 30
0.0
 40
0.18
 41
0.0
 46
0.0
 71
     9
 72
     1
  1
\A1;DETAIL A
 73
     1
 44
1.0
  0
LINE
  5
8C
330
2
100
AcDbEntity
  8
PAGE1
100
AcDbLine
 10
8.618896409092634
 20
2.617476131775006
 30
0.0
 11
-1.459843748387719
 21
2.617476131775006
 31
0.0
  0
LINE
  5
90
330
2
100
AcDbEntity
  8
PAGE1
100
AcDbLine
 10
-1.4795287877578
 20
2.243460383743524
 30
0.0
 11
-1.420473669647563
 21
2.184405265633259
 31
0.0
  0
LINE
  5
91
330
2
100
AcDbEntity
  8
PAGE1
100
AcDbLine
 10
-1.49921382712786
 20
2.578106053034858
 30
0.0
 11
-1.49921382712786
 21
2.243460383743524
 31
0.0
  0
LINE
  5
92
330
2
100
AcDbEntity
  8
PAGE1
100
AcDbLine
 10
-1.459843748387719
 20
2.617476131775006
 30
0.0
 11
-1.49921382712786
 21
2.578106053034858
 31
0.0
  0
LINE
  5
93
330
2
100
AcDbEntity
  8
PAGE1
100
AcDbLine
 10
-1.420473669647563
 20
2.184405265633259
 30
0.0
 11
-1.420473669647542
 21
1.711964320751391
 31
0.0
  0
LINE
  5
94
330
2
100
AcDbEntity
  8
PAGE1
100
AcDbLine
 10
-1.420473669647542
 20
1.711964320751391
 30
0.0
 11
-1.4795287877578
 21
1.652909202641126
 31
0.0
  0
LINE
  5
95
330
2
100
AcDbEntity
  8
PAGE1
100
AcDbLine
 10
-1.49921382712786
 20
1.652909202641126
 30
0.0
 11
-1.49921382712786
 21
1.298578493979746
 31
0.0
  0
LINE
  5
96
330
2
100
AcDbEntity
  8
0
100
AcDbLine
 10
-1.49921382712786
 20
1.652909202641126
 30
0.0
 11
-1.479528787757779
 21
1.652909202641126
 31
0.0
  0
LINE
  5
97
330
2
100
AcDbEntity
  8
0
100
AcDbLine
 10
-1.49921382712786
 20
1.298578493979746
 30
0.0
 11
-1.479528787757779
 21
1.298578493979746
 31
0.0
  0
LINE
  5
98
330
2
100
AcDbEntity
  8
PAGE1
100
AcDbLine
 10
-1.4795287877578
 20
1.298578493979746
 30
0.0
 11
-1.420473669647542
 21
1.239523375869495
 31
0.0
  0
LINE
  5
99
330
2
100
AcDbEntity
  8
PAGE1
100
AcDbLine
 10
-1.420473669647542
 20
1.239523375869495
 30
0.0
 11
-1.420473669647542
 21
0.9245627459482506
 31
0.0
  0
LINE
  5
9A
330
2
100
AcDbEntity
  8
PAGE1
100
AcDbLine
 10
-1.49921382712786
 20
0.8655076278379993
 30
0.0
 11
-1.49921382712786
 21
0.5111769191765774
 31
0.0
  0
LINE
  5
9B
330
2
100
AcDbEntity
  8
0
100
AcDbLine
 10
-1.49921382712786
 20
0.8655076278379993
 30
0.0
 11
-1.479528787757779
 21
0.8655076278379993
 31
0.0
  0
LINE
  5
9C
330
2
100
AcDbEntity
  8
PAGE1
100
AcDbLine
 10
-1.420473669647542
 20
0.9245627459482506
 30
0.0
 11
-1.479528787757757
 21
0.8655076278379993
 31
0.0
  0
LINE
  5
9D
330
2
100
AcDbEntity
  8
0
100
AcDbLine
 10
-1.49921382712786
 20
0.5111769191765774
 30
0.0
 11
-1.479528787757779
 21
0.5111769191765774
 31
0.0
  0
LINE
  5
9E
330
2
100
AcDbEntity
  8
PAGE1
100
AcDbLine
 10
-1.479528787757757
 20
0.5111769191765774
 30
0.0
 11
-1.420473669647542
 21
0.4521218010663546
 31
0.0
  0
LINE
  5
9F
330
2
100
AcDbEntity
  8
PAGE1
100
AcDbLine
 10
-1.420473669647542
 20
0.4521218010663546
 30
0.0
 11
-1.420473669647542
 21
-0.0203191438155557
 31
0.0
  0
LINE
  5
A0
330
2
100
AcDbEntity
  8
PAGE1
100
AcDbLine
 10
-1.420473669647542
 20
-0.0203191438155557
 30
0.0
 11
-1.479528787757779
 21
-0.0793742619257785
 31
0.0
  0
LINE
  5
A1
330
2
100
AcDbEntity
  8
0
100
AcDbLine
 10
-1.49921382712786
 20
-0.4140199312171263
 30
0.0
 11
-1.49921382712786
 21
-0.0793742619257785
 31
0.0
  0
LINE
  5
A2
330
2
100
AcDbEntity
  8
0
100
AcDbLine
 10
-1.49921382712786
 20
-0.0793742619257785
 30
0.0
 11
-1.479528787757779
 21
-0.0793742619257785
 31
0.0
  0
LINE
  5
A3
330
2
100
AcDbEntity
  8
PAGE1
100
AcDbLine
 10
-1.459843748387697
 20
-0.4533900099572748
 30
0.0
 11
8.618896409092599
 21
-0.4533900099572748
 31
0.0
  0
LINE
  5
A4
330
2
100
AcDbEntity
  8
PAGE1
100
AcDbLine
 10
-1.49921382712786
 20
-0.4140199312171263
 30
0.0
 11
-1.459843748387697
 21
-0.4533900099572748
 31
0.0
  0
LINE
  5
A5
330
2
100
AcDbEntity
  8
0
100
AcDbLine
 10
8.638581448462694
 20
2.235586367995495
 30
0.0
 11
8.638581448462694
 21
1.660783218389155
 31
0.0
  0
LINE
  5
A6
330
2
100
AcDbEntity
  8
PAGE1
100
AcDbLine
 10
8.658266487832769
 20
2.243460383743524
 30
0.0
 11
8.658266487832769
 21
2.578106053034858
 31
0.0
  0
LINE
  5
A7
330
2
100
AcDbEntity
  8
PAGE1
100
AcDbLine
 10
8.658266487832769
 20
1.298578493979746
 30
0.0
 11
8.658266487832769
 21
1.652909202641126
 31
0.0
  0
LINE
  5
A8
330
2
100
AcDbEntity
  8
0
100
AcDbLine
 10
8.638581448462694
 20
1.290704478231717
 30
0.0
 11
8.638581448462694
 21
0.873381643586029
 31
0.0
  0
LINE
  5
A9
330
2
100
AcDbEntity
  8
PAGE1
100
AcDbLine
 10
8.658266487832769
 20
0.5111769191765774
 30
0.0
 11
8.658266487832769
 21
0.8655076278379993
 31
0.0
  0
LINE
  5
AA
330
2
100
AcDbEntity
  8
0
100
AcDbLine
 10
8.638581448462694
 20
0.5033029034285619
 30
0.0
 11
8.638581448462694
 21
-0.0715002461777488
 31
0.0
  0
ARC
  5
AB
330
2
100
AcDbEntity
  8
0
100
AcDbCircle
 10
8.646455464210731
 20
0.5033029034285619
 30
0.0
 40
0.0078740157480315
100
AcDbArc
 50
90.0
 51
180.0
  0
LINE
  5
AC
330
2
100
AcDbEntity
  8
0
100
AcDbLine
 10
8.658266487832769
 20
0.5111769191765774
 30
0.0
 11
8.646455464210731
 21
0.5111769191765774
 31
0.0
  0
LINE
  5
AD
330
2
100
AcDbEntity
  8
0
100
AcDbLine
 10
8.658266487832769
 20
0.8655076278379993
 30
0.0
 11
8.646455464210731
 21
0.8655076278379993
 31
0.0
  0
ARC
  5
AE
330
2
100
AcDbEntity
  8
0
100
AcDbCircle
 10
8.646455464210731
 20
0.873381643586029
 30
0.0
 40
0.0078740157480315
100
AcDbArc
 50
180.0
 51
270.0
  0
LINE
  5
AF
330
2
100
AcDbEntity
  8
0
100
AcDbLine
 10
8.658266487832769
 20
1.298578493979746
 30
0.0
 11
8.646455464210731
 21
1.298578493979746
 31
0.0
  0
ARC
  5
B0
330
2
100
AcDbEntity
  8
0
100
AcDbCircle
 10
8.646455464210731
 20
1.290704478231717
 30
0.0
 40
0.0078740157480315
100
AcDbArc
 50
90.0
 51
180.0
  0
LINE
  5
B1
330
2
100
AcDbEntity
  8
0
100
AcDbLine
 10
8.658266487832769
 20
1.652909202641126
 30
0.0
 11
8.646455464210731
 21
1.652909202641126
 31
0.0
  0
ARC
  5
B2
330
2
100
AcDbEntity
  8
0
100
AcDbCircle
 10
8.646455464210731
 20
1.660783218389155
 30
0.0
 40
0.0078740157480315
100
AcDbArc
 50
180.0
 51
270.0
  0
ARC
  5
B3
330
2
100
AcDbEntity
  8
0
100
AcDbCircle
 10
8.646455464210731
 20
2.235586367995495
 30
0.0
 40
0.0078740157480315
100
AcDbArc
 50
90.0
 51
180.0
  0
LINE
  5
B4
330
2
100
AcDbEntity
  8
0
100
AcDbLine
 10
8.658266487832769
 20
2.243460383743524
 30
0.0
 11
8.646455464210731
 21
2.243460383743524
 31
0.0
  0
LINE
  5
B5
330
2
100
AcDbEntity
  8
PAGE1
100
AcDbLine
 10
8.658266487832769
 20
-0.4140199312171263
 30
0.0
 11
8.658266487832754
 21
-0.0793742619257785
 31
0.0
  0
LINE
  5
B6
330
2
100
AcDbEntity
  8
0
100
AcDbLine
 10
8.658266487832769
 20
-0.0793742619257785
 30
0.0
 11
8.646455464210731
 21
-0.0793742619257785
 31
0.0
  0
ARC
  5
B7
330
2
100
AcDbEntity
  8
0
100
AcDbCircle
 10
8.646455464210731
 20
-0.0715002461777488
 30
0.0
 40
0.0078740157480315
100
AcDbArc
 50
180.0
 51
270.0
  0
LINE
  5
B8
330
2
100
AcDbEntity
  8
PAGE1
100
AcDbLine
 10
8.618896409092599
 20
-0.4533900099572748
 30
0.0
 11
8.658266487832769
 21
-0.4140199312171263
 31
0.0
  0
LINE
  5
B9
330
2
100
AcDbEntity
  8
PAGE1
100
AcDbLine
 10
8.658266487832769
 20
2.578106053034858
 30
0.0
 11
8.618896409092634
 21
2.617476131775006
 31
0.0
  0
LINE
  5
BA
330
2
100
AcDbEntity
  8
0
100
AcDbLine
 10
-1.49921382712786
 20
2.243460383743524
 30
0.0
 11
-1.4795287877578
 21
2.243460383743524
 31
0.0
  0
LINE
  5
BB
330
2
100
AcDbEntity
  8
CENTER
 62
     1
 48
0.4
100
AcDbLine
 10
3.599208289407599
 20
2.491019438861741
 30
0.0
 11
3.599208289407599
 21
2.624877706578274
 31
0.0
  0
LINE
  5
C0
330
2
100
AcDbEntity
  8
CENTER
 62
     1
 48
0.4
100
AcDbLine
 10
8.520468131735476
 20
2.491019438861741
 30
0.0
 11
8.520468131735476
 21
2.624877706578274
 31
0.0
  0
LINE
  5
C1
330
2
100
AcDbEntity
  8
CENTER
 62
     1
 48
0.4
100
AcDbLine
 10
8.520468131735476
 20
2.491019438861627
 30
0.0
 11
8.520468131735476
 21
2.62487770657816
 31
0.0
  0
LINE
  5
C2
330
2
100
AcDbEntity
  8
CENTER
 62
     1
 48
0.4
100
AcDbLine
 10
8.45353899787721
 20
2.557948572719894
 30
0.0
 11
8.58739726559375
 21
2.557948572719894
 31
0.0
  0
LINE
  5
C3
330
2
100
AcDbEntity
  8
CENTER
 62
     1
 48
0.4
100
AcDbLine
 10
3.599208289407599
 20
2.491019438861741
 30
0.0
 11
3.599208289407599
 21
2.624877706578274
 31
0.0
  0
LINE
  5
C4
330
2
100
AcDbEntity
  8
CENTER
 62
     1
 48
0.4
100
AcDbLine
 10
3.532279155549332
 20
2.557948572720007
 30
0.0
 11
3.666137423265872
 21
2.557948572720007
 31
0.0
  0
LINE
  5
C5
330
2
100
AcDbEntity
  8
CENTER
 62
     1
 48
0.4
100
AcDbLine
 10
3.599208289407592
 20
2.491019438861854
 30
0.0
 11
3.599208289407592
 21
2.624877706578388
 31
0.0
  0
LINE
  5
C6
330
2
100
AcDbEntity
  8
CENTER
 48
0.4
100
AcDbLine
 10
-1.322051553303891
 20
2.491019438861739
 30
0.0
 11
-1.322051553303891
 21
2.624877706578273
 31
0.0
  0
LINE
  5
C7
330
2
100
AcDbEntity
  8
CENTER
 48
0.4
100
AcDbLine
 10
-1.322051553303891
 20
2.491019438861853
 30
0.0
 11
-1.322051553303891
 21
2.624877706578387
 31
0.0
  0
LINE
  5
C8
330
2
100
AcDbEntity
  8
CENTER
 48
0.4
100
AcDbLine
 10
-1.388705096610967
 20
2.557948572720006
 30
0.0
 11
-1.254846828894427
 21
2.557948572720006
 31
0.0
  0
LWPOLYLINE
  5
C9
330
2
100
AcDbEntity
  8
1D
  6
PHANTOM
 62
     6
 48
0.2
100
AcDbPolyline
 90
        4
 70
     1
 43
0.0
 10
-1.322051553303879
 20
-0.2565396209809023
 10
8.520468131735476
 20
-0.2565396209809023
 10
8.520468131735476
 20
2.420625733349822
 10
-1.322051553303893
 20
2.420625733349808
1001
AcDbBlockRepETag
1070
     1
1071
     1508
1005
0
  0
LINE
  5
CC
330
2
100
AcDbEntity
  8
PAGE1
100
AcDbLine
 10
2.18141301362521
 20
-0.3938624509021622
 30
0.0
 11
2.252279155357499
 21
-0.3938624509021622
 31
0.0
  0
LINE
  5
CD
330
2
100
AcDbEntity
  8
PAGE1
100
AcDbLine
 10
2.201098052995305
 20
-0.4292955217682959
 30
0.0
 11
2.201098052995305
 21
-0.3584293800360143
 31
0.0
  0
LINE
  5
CE
330
2
100
AcDbEntity
  8
PAGE1
100
AcDbLine
 10
2.232594115987438
 20
-0.4292955217682959
 30
0.0
 11
2.232594115987438
 21
-0.3584293800360143
 31
0.0
  0
LWPOLYLINE
  5
CF
330
2
100
AcDbEntity
  8
PAGE1
100
AcDbPolyline
 90
        4
 70
     1
 43
0.0
 10
2.232594115987438
 20
-0.4238624509021634
 42
0.9999999999999998
 10
2.232594115987438
 20
-0.3638624509021611
 10
2.201098052995305
 20
-0.3638624509021611
 42
0.9999999999999998
 10
2.201098052995305
 20
-0.4238624509021634
  0
LINE
  5
D0
330
2
100
AcDbEntity
  8
PAGE1
100
AcDbLine
 10
2.165664982129179
 20
-0.3938624509021622
 30
0.0
 11
2.236531123861453
 21
-0.3938624509021622
 31
0.0
  0
LINE
  5
D1
330
2
100
AcDbEntity
  8
PAGE1
100
AcDbLine
 10
2.197161045121291
 20
-0.3938624509021622
 30
0.0
 11
2.268027186853565
 21
-0.3938624509021622
 31
0.0
  0
CIRCLE
  5
D2
330
2
100
AcDbEntity
  8
PAGE1
 62
     1
100
AcDbCircle
 10
2.388578367955943
 20
-0.393862450902148
 30
0.0
 40
0.03
  0
LINE
  5
D3
330
2
100
AcDbEntity
  8
PAGE1
 62
     1
100
AcDbLine
 10
2.388578367955943
 20
-0.4292955217682959
 30
0.0
 11
2.388578367955943
 21
-0.3584293800360143
 31
0.0
  0
LINE
  5
D4
330
2
100
AcDbEntity
  8
PAGE1
 62
     1
100
AcDbLine
 10
2.353145297089795
 20
-0.393862450902148
 30
0.0
 11
2.424011438822084
 21
-0.393862450902148
 31
0.0
  0
CIRCLE
  5
D5
330
2
100
AcDbEntity
  8
PAGE1
100
AcDbCircle
 10
3.599208289215795
 20
-0.3938624509021622
 30
0.0
 40
0.03
  0
LINE
  5
D6
330
2
100
AcDbEntity
  8
PAGE1
100
AcDbLine
 10
3.599208289215795
 20
-0.3584293800360143
 30
0.0
 11
3.599208289215795
 21
-0.4292955217682959
 31
0.0
  0
LINE
  5
D7
330
2
100
AcDbEntity
  8
PAGE1
100
AcDbLine
 10
3.563775218349647
 20
-0.3938624509021622
 30
0.0
 11
3.634641360081936
 21
-0.3938624509021622
 31
0.0
  0
LINE
  5
D8
330
2
100
AcDbEntity
  8
PAGE1
100
AcDbLine
 10
2.216846084491372
 20
-0.4292955217682959
 30
0.0
 11
2.216846084491372
 21
-0.3584293800360143
 31
0.0
  0
LINE
  5
D9
330
2
100
AcDbEntity
  8
PAGE1
100
AcDbLine
 10
-0.2398468288944784
 20
-0.3938624509021622
 30
0.0
 11
-0.1689806871621897
 21
-0.3938624509021622
 31
0.0
  0
LINE
  5
DA
330
2
100
AcDbEntity
  8
PAGE1
100
AcDbLine
 10
-0.2201617895243828
 20
-0.4292955217682959
 30
0.0
 11
-0.2201617895243828
 21
-0.3584293800360143
 31
0.0
  0
LINE
  5
DB
330
2
100
AcDbEntity
  8
PAGE1
100
AcDbLine
 10
-0.1886657265322498
 20
-0.4292955217682959
 30
0.0
 11
-0.1886657265322498
 21
-0.3584293800360143
 31
0.0
  0
LWPOLYLINE
  5
DC
330
2
100
AcDbEntity
  8
PAGE1
100
AcDbPolyline
 90
        4
 70
     1
 43
0.0
 10
-0.1886657265322498
 20
-0.4238624509021634
 42
0.9999999999999998
 10
-0.1886657265322498
 20
-0.3638624509021611
 10
-0.2201617895243828
 20
-0.3638624509021611
 42
0.9999999999999998
 10
-0.2201617895243828
 20
-0.4238624509021634
  0
LINE
  5
DD
330
2
100
AcDbEntity
  8
PAGE1
100
AcDbLine
 10
-0.2555948603905094
 20
-0.3938624509021622
 30
0.0
 11
-0.1847287186582349
 21
-0.3938624509021622
 31
0.0
  0
LINE
  5
DE
330
2
100
AcDbEntity
  8
PAGE1
100
AcDbLine
 10
-0.2240987973983906
 20
-0.3938624509021622
 30
0.0
 11
-0.1532326556661161
 21
-0.3938624509021622
 31
0.0
  0
CIRCLE
  5
DF
330
2
100
AcDbEntity
  8
PAGE1
 62
     1
100
AcDbCircle
 10
-0.0326814745637449
 20
-0.393862450902148
 30
0.0
 40
0.03
  0
LINE
  5
E0
330
2
100
AcDbEntity
  8
PAGE1
 62
     1
100
AcDbLine
 10
-0.0326814745637449
 20
-0.4292955217682959
 30
0.0
 11
-0.0326814745637449
 21
-0.3584293800360143
 31
0.0
  0
LINE
  5
E1
330
2
100
AcDbEntity
  8
PAGE1
100
AcDbLine
 10
-0.0681145454298857
 20
-0.393862450902148
 30
0.0
 11
0.002751596302403
 21
-0.393862450902148
 31
0.0
  0
LINE
  5
E2
330
2
100
AcDbEntity
  8
PAGE1
100
AcDbLine
 10
-0.2044137580283163
 20
-0.4292955217682959
 30
0.0
 11
-0.2044137580283163
 21
-0.3584293800360143
 31
0.0
  0
LINE
  5
E3
330
2
100
AcDbEntity
  8
PAGE1
100
AcDbLine
 10
4.602672856144891
 20
-0.3938624509021622
 30
0.0
 11
4.67353899787718
 21
-0.3938624509021622
 31
0.0
  0
LINE
  5
E4
330
2
100
AcDbEntity
  8
PAGE1
100
AcDbLine
 10
4.622357895514987
 20
-0.4292955217682959
 30
0.0
 11
4.622357895514987
 21
-0.3584293800360143
 31
0.0
  0
LINE
  5
E5
330
2
100
AcDbEntity
  8
PAGE1
100
AcDbLine
 10
4.65385395850712
 20
-0.4292955217682959
 30
0.0
 11
4.65385395850712
 21
-0.3584293800360143
 31
0.0
  0
LWPOLYLINE
  5
E6
330
2
100
AcDbEntity
  8
PAGE1
100
AcDbPolyline
 90
        4
 70
     1
 43
0.0
 10
4.65385395850712
 20
-0.4238624509021634
 42
0.9999999999999998
 10
4.65385395850712
 20
-0.3638624509021611
 10
4.622357895514987
 20
-0.3638624509021611
 42
0.9999999999999998
 10
4.622357895514987
 20
-0.4238624509021634
  0
LINE
  5
E7
330
2
100
AcDbEntity
  8
PAGE1
100
AcDbLine
 10
4.58692482464886
 20
-0.3938624509021622
 30
0.0
 11
4.657790966381135
 21
-0.3938624509021622
 31
0.0
  0
LINE
  5
E8
330
2
100
AcDbEntity
  8
PAGE1
100
AcDbLine
 10
4.618420887640979
 20
-0.3938624509021622
 30
0.0
 11
4.689287029373247
 21
-0.3938624509021622
 31
0.0
  0
CIRCLE
  5
E9
330
2
100
AcDbEntity
  8
PAGE1
 62
     1
100
AcDbCircle
 10
4.809838210475625
 20
-0.393862450902148
 30
0.0
 40
0.03
  0
LINE
  5
EA
330
2
100
AcDbEntity
  8
PAGE1
 62
     1
100
AcDbLine
 10
4.809838210475625
 20
-0.4292955217682959
 30
0.0
 11
4.809838210475625
 21
-0.3584293800360143
 31
0.0
  0
LINE
  5
EB
330
2
100
AcDbEntity
  8
PAGE1
 62
     1
100
AcDbLine
 10
4.774405139609484
 20
-0.393862450902148
 30
0.0
 11
4.845271281341773
 21
-0.393862450902148
 31
0.0
  0
LINE
  5
EC
330
2
100
AcDbEntity
  8
PAGE1
100
AcDbLine
 10
4.638105927011054
 20
-0.4292955217682959
 30
0.0
 11
4.638105927011054
 21
-0.3584293800360143
 31
0.0
  0
LINE
  5
ED
330
2
100
AcDbEntity
  8
PAGE1
100
AcDbLine
 10
7.02393269866458
 20
-0.3938624509021622
 30
0.0
 11
7.094798840396869
 21
-0.3938624509021622
 31
0.0
  0
LINE
  5
EE
330
2
100
AcDbEntity
  8
PAGE1
100
AcDbLine
 10
7.043617738034676
 20
-0.4292955217682959
 30
0.0
 11
7.043617738034676
 21
-0.3584293800360143
 31
0.0
  0
LINE
  5
EF
330
2
100
AcDbEntity
  8
PAGE1
100
AcDbLine
 10
7.075113801026809
 20
-0.4292955217682959
 30
0.0
 11
7.075113801026809
 21
-0.3584293800360143
 31
0.0
  0
LWPOLYLINE
  5
F0
330
2
100
AcDbEntity
  8
PAGE1
100
AcDbPolyline
 90
        4
 70
     1
 43
0.0
 10
7.075113801026809
 20
-0.4238624509021634
 42
0.9999999999999998
 10
7.075113801026809
 20
-0.3638624509021611
 10
7.043617738034676
 20
-0.3638624509021611
 42
0.9999999999999998
 10
7.043617738034676
 20
-0.4238624509021634
  0
LINE
  5
F1
330
2
100
AcDbEntity
  8
PAGE1
100
AcDbLine
 10
7.008184667168549
 20
-0.3938624509021622
 30
0.0
 11
7.079050808900817
 21
-0.3938624509021622
 31
0.0
  0
LINE
  5
F2
330
2
100
AcDbEntity
  8
PAGE1
100
AcDbLine
 10
7.039680730160661
 20
-0.3938624509021622
 30
0.0
 11
7.110546871892935
 21
-0.3938624509021622
 31
0.0
  0
CIRCLE
  5
F3
330
2
100
AcDbEntity
  8
PAGE1
 62
     1
100
AcDbCircle
 10
7.231098052995314
 20
-0.393862450902148
 30
0.0
 40
0.03
  0
LINE
  5
F4
330
2
100
AcDbEntity
  8
PAGE1
 62
     1
100
AcDbLine
 10
7.231098052995314
 20
-0.4292955217682959
 30
0.0
 11
7.231098052995314
 21
-0.3584293800360143
 31
0.0
  0
LINE
  5
F5
330
2
100
AcDbEntity
  8
PAGE1
 62
     1
100
AcDbLine
 10
7.195664982129166
 20
-0.393862450902148
 30
0.0
 11
7.266531123861454
 21
-0.393862450902148
 31
0.0
  0
LINE
  5
F6
330
2
100
AcDbEntity
  8
PAGE1
100
AcDbLine
 10
7.059365769530742
 20
-0.4292955217682959
 30
0.0
 11
7.059365769530742
 21
-0.3584293800360143
 31
0.0
  0
CIRCLE
  5
F7
330
2
100
AcDbEntity
  8
0
 62
     1
100
AcDbCircle
 10
8.520468131735476
 20
2.557948572719894
 30
0.0
 40
0.03
  0
CIRCLE
  5
F8
330
2
100
AcDbEntity
  8
0
 62
     1
100
AcDbCircle
 10
3.599208289407592
 20
2.557948572720121
 30
0.0
 40
0.03
  0
CIRCLE
  5
F9
330
2
100
AcDbEntity
  8
0
100
AcDbCircle
 10
-1.322051553303891
 20
2.557948572720006
 30
0.0
 40
0.03
  0
LINE
  5
FA
330
2
100
AcDbEntity
  8
PAGE1
100
AcDbLine
 10
18.77637672405362
 20
2.617476131774652
 30
0.0
 11
8.697636566573264
 21
2.617476131774652
 31
0.0
  0
LINE
  5
FB
330
2
100
AcDbEntity
  8
PAGE1
100
AcDbLine
 10
8.677951527203182
 20
2.24346038374317
 30
0.0
 11
8.737006645313419
 21
2.184405265632904
 31
0.0
  0
LINE
  5
FC
330
2
100
AcDbEntity
  8
PAGE1
100
AcDbLine
 10
8.658266487833122
 20
2.578106053034503
 30
0.0
 11
8.658266487833122
 21
2.24346038374317
 31
0.0
  0
LINE
  5
FD
330
2
100
AcDbEntity
  8
PAGE1
100
AcDbLine
 10
8.697636566573264
 20
2.617476131774652
 30
0.0
 11
8.658266487833122
 21
2.578106053034503
 31
0.0
  0
LINE
  5
FE
330
2
100
AcDbEntity
  8
PAGE1
100
AcDbLine
 10
8.737006645313419
 20
2.184405265632904
 30
0.0
 11
8.73700664531344
 21
1.711964320751037
 31
0.0
  0
LINE
  5
FF
330
2
100
AcDbEntity
  8
PAGE1
100
AcDbLine
 10
8.73700664531344
 20
1.711964320751037
 30
0.0
 11
8.677951527203182
 21
1.652909202640771
 31
0.0
  0
LINE
  5
100
330
2
100
AcDbEntity
  8
PAGE1
100
AcDbLine
 10
8.658266487833122
 20
1.652909202640771
 30
0.0
 11
8.658266487833122
 21
1.298578493979392
 31
0.0
  0
LINE
  5
101
330
2
100
AcDbEntity
  8
0
100
AcDbLine
 10
8.658266487833122
 20
1.652909202640771
 30
0.0
 11
8.677951527203203
 21
1.652909202640771
 31
0.0
  0
LINE
  5
102
330
2
100
AcDbEntity
  8
0
100
AcDbLine
 10
8.658266487833122
 20
1.298578493979392
 30
0.0
 11
8.677951527203203
 21
1.298578493979392
 31
0.0
  0
LINE
  5
103
330
2
100
AcDbEntity
  8
PAGE1
100
AcDbLine
 10
8.677951527203182
 20
1.298578493979392
 30
0.0
 11
8.73700664531344
 21
1.239523375869141
 31
0.0
  0
LINE
  5
104
330
2
100
AcDbEntity
  8
PAGE1
100
AcDbLine
 10
8.73700664531344
 20
1.239523375869141
 30
0.0
 11
8.73700664531344
 21
0.9245627459478962
 31
0.0
  0
LINE
  5
105
330
2
100
AcDbEntity
  8
PAGE1
100
AcDbLine
 10
8.658266487833122
 20
0.865507627837645
 30
0.0
 11
8.658266487833122
 21
0.511176919176223
 31
0.0
  0
LINE
  5
106
330
2
100
AcDbEntity
  8
0
100
AcDbLine
 10
8.658266487833122
 20
0.865507627837645
 30
0.0
 11
8.677951527203203
 21
0.865507627837645
 31
0.0
  0
LINE
  5
107
330
2
100
AcDbEntity
  8
PAGE1
100
AcDbLine
 10
8.73700664531344
 20
0.9245627459478962
 30
0.0
 11
8.677951527203225
 21
0.865507627837645
 31
0.0
  0
LINE
  5
108
330
2
100
AcDbEntity
  8
0
100
AcDbLine
 10
8.658266487833122
 20
0.511176919176223
 30
0.0
 11
8.677951527203203
 21
0.511176919176223
 31
0.0
  0
LINE
  5
109
330
2
100
AcDbEntity
  8
PAGE1
100
AcDbLine
 10
8.677951527203225
 20
0.511176919176223
 30
0.0
 11
8.73700664531344
 21
0.4521218010660002
 31
0.0
  0
LINE
  5
10A
330
2
100
AcDbEntity
  8
PAGE1
100
AcDbLine
 10
8.73700664531344
 20
0.4521218010660002
 30
0.0
 11
8.73700664531344
 21
-0.0203191438159101
 31
0.0
  0
LINE
  5
10B
330
2
100
AcDbEntity
  8
PAGE1
100
AcDbLine
 10
8.73700664531344
 20
-0.0203191438159101
 30
0.0
 11
8.677951527203203
 21
-0.0793742619261329
 31
0.0
  0
LINE
  5
10C
330
2
100
AcDbEntity
  8
0
100
AcDbLine
 10
8.658266487833122
 20
-0.4140199312174806
 30
0.0
 11
8.658266487833122
 21
-0.0793742619261329
 31
0.0
  0
LINE
  5
10D
330
2
100
AcDbEntity
  8
0
100
AcDbLine
 10
8.658266487833122
 20
-0.0793742619261329
 30
0.0
 11
8.677951527203203
 21
-0.0793742619261329
 31
0.0
  0
LINE
  5
10E
330
2
100
AcDbEntity
  8
PAGE1
100
AcDbLine
 10
8.697636566573285
 20
-0.4533900099576292
 30
0.0
 11
18.77637672405358
 21
-0.4533900099576292
 31
0.0
  0
LINE
  5
10F
330
2
100
AcDbEntity
  8
PAGE1
100
AcDbLine
 10
8.658266487833122
 20
-0.4140199312174806
 30
0.0
 11
8.697636566573285
 21
-0.4533900099576292
 31
0.0
  0
LINE
  5
110
330
2
100
AcDbEntity
  8
0
100
AcDbLine
 10
18.79606176342368
 20
2.23558636799514
 30
0.0
 11
18.79606176342368
 21
1.660783218388801
 31
0.0
  0
LINE
  5
111
330
2
100
AcDbEntity
  8
PAGE1
100
AcDbLine
 10
18.81574680279375
 20
2.24346038374317
 30
0.0
 11
18.81574680279375
 21
2.578106053034503
 31
0.0
  0
LINE
  5
112
330
2
100
AcDbEntity
  8
PAGE1
100
AcDbLine
 10
18.81574680279375
 20
1.298578493979392
 30
0.0
 11
18.81574680279375
 21
1.652909202640771
 31
0.0
  0
LINE
  5
113
330
2
100
AcDbEntity
  8
0
100
AcDbLine
 10
18.79606176342368
 20
1.290704478231362
 30
0.0
 11
18.79606176342368
 21
0.8733816435856747
 31
0.0
  0
LINE
  5
114
330
2
100
AcDbEntity
  8
PAGE1
100
AcDbLine
 10
18.81574680279375
 20
0.511176919176223
 30
0.0
 11
18.81574680279375
 21
0.865507627837645
 31
0.0
  0
LINE
  5
115
330
2
100
AcDbEntity
  8
0
100
AcDbLine
 10
18.79606176342368
 20
0.5033029034282075
 30
0.0
 11
18.79606176342368
 21
-0.0715002461781031
 31
0.0
  0
ARC
  5
116
330
2
100
AcDbEntity
  8
0
100
AcDbCircle
 10
18.80393577917171
 20
0.5033029034282075
 30
0.0
 40
0.0078740157480315
100
AcDbArc
 50
90.0
 51
180.0
  0
LINE
  5
117
330
2
100
AcDbEntity
  8
0
100
AcDbLine
 10
18.81574680279375
 20
0.511176919176223
 30
0.0
 11
18.80393577917171
 21
0.511176919176223
 31
0.0
  0
LINE
  5
118
330
2
100
AcDbEntity
  8
0
100
AcDbLine
 10
18.81574680279375
 20
0.865507627837645
 30
0.0
 11
18.80393577917171
 21
0.865507627837645
 31
0.0
  0
ARC
  5
119
330
2
100
AcDbEntity
  8
0
100
AcDbCircle
 10
18.80393577917171
 20
0.8733816435856747
 30
0.0
 40
0.0078740157480315
100
AcDbArc
 50
180.0
 51
270.0
  0
LINE
  5
11A
330
2
100
AcDbEntity
  8
0
100
AcDbLine
 10
18.81574680279375
 20
1.298578493979392
 30
0.0
 11
18.80393577917171
 21
1.298578493979392
 31
0.0
  0
ARC
  5
11B
330
2
100
AcDbEntity
  8
0
100
AcDbCircle
 10
18.80393577917171
 20
1.290704478231362
 30
0.0
 40
0.0078740157480315
100
AcDbArc
 50
90.0
 51
180.0
  0
LINE
  5
11C
330
2
100
AcDbEntity
  8
0
100
AcDbLine
 10
18.81574680279375
 20
1.652909202640771
 30
0.0
 11
18.80393577917171
 21
1.652909202640771
 31
0.0
  0
ARC
  5
11D
330
2
100
AcDbEntity
  8
0
100
AcDbCircle
 10
18.80393577917171
 20
1.660783218388801
 30
0.0
 40
0.0078740157480315
100
AcDbArc
 50
180.0
 51
270.0
  0
ARC
  5
11E
330
2
100
AcDbEntity
  8
0
100
AcDbCircle
 10
18.80393577917171
 20
2.23558636799514
 30
0.0
 40
0.0078740157480315
100
AcDbArc
 50
90.0
 51
180.0
  0
LINE
  5
11F
330
2
100
AcDbEntity
  8
0
100
AcDbLine
 10
18.81574680279375
 20
2.24346038374317
 30
0.0
 11
18.80393577917171
 21
2.24346038374317
 31
0.0
  0
LINE
  5
120
330
2
100
AcDbEntity
  8
PAGE1
100
AcDbLine
 10
18.81574680279375
 20
-0.4140199312174806
 30
0.0
 11
18.81574680279374
 21
-0.0793742619261329
 31
0.0
  0
LINE
  5
121
330
2
100
AcDbEntity
  8
0
100
AcDbLine
 10
18.81574680279375
 20
-0.0793742619261329
 30
0.0
 11
18.80393577917171
 21
-0.0793742619261329
 31
0.0
  0
ARC
  5
122
330
2
100
AcDbEntity
  8
0
100
AcDbCircle
 10
18.80393577917171
 20
-0.0715002461781031
 30
0.0
 40
0.0078740157480315
100
AcDbArc
 50
180.0
 51
270.0
  0
LINE
  5
123
330
2
100
AcDbEntity
  8
PAGE1
100
AcDbLine
 10
18.77637672405358
 20
-0.4533900099576292
 30
0.0
 11
18.81574680279375
 21
-0.4140199312174806
 31
0.0
  0
LINE
  5
124
330
2
100
AcDbEntity
  8
PAGE1
100
AcDbLine
 10
18.81574680279375
 20
2.578106053034503
 30
0.0
 11
18.77637672405362
 21
2.617476131774652
 31
0.0
  0
LINE
  5
125
330
2
100
AcDbEntity
  8
0
100
AcDbLine
 10
8.658266487833122
 20
2.24346038374317
 30
0.0
 11
8.677951527203182
 21
2.24346038374317
 31
0.0
  0
LINE
  5
126
330
2
100
AcDbEntity
  8
CENTER
 62
     1
 48
0.4
100
AcDbLine
 10
13.75668860436858
 20
2.491019438861386
 30
0.0
 11
13.75668860436858
 21
2.62487770657792
 31
0.0
  0
LINE
  5
127
330
2
100
AcDbEntity
  8
CENTER
 62
     1
 48
0.4
100
AcDbLine
 10
18.67794844669646
 20
2.491019438861386
 30
0.0
 11
18.67794844669646
 21
2.62487770657792
 31
0.0
  0
LINE
  5
128
330
2
100
AcDbEntity
  8
CENTER
 62
     1
 48
0.4
100
AcDbLine
 10
18.67794844669646
 20
2.491019438861273
 30
0.0
 11
18.67794844669646
 21
2.624877706577806
 31
0.0
  0
LINE
  5
129
330
2
100
AcDbEntity
  8
CENTER
 62
     1
 48
0.4
100
AcDbLine
 10
18.61101931283819
 20
2.557948572719539
 30
0.0
 11
18.74487758055473
 21
2.557948572719539
 31
0.0
  0
LINE
  5
12A
330
2
100
AcDbEntity
  8
CENTER
 62
     1
 48
0.4
100
AcDbLine
 10
13.75668860436858
 20
2.491019438861386
 30
0.0
 11
13.75668860436858
 21
2.62487770657792
 31
0.0
  0
LINE
  5
12B
330
2
100
AcDbEntity
  8
CENTER
 62
     1
 48
0.4
100
AcDbLine
 10
13.68975947051031
 20
2.557948572719653
 30
0.0
 11
13.82361773822685
 21
2.557948572719653
 31
0.0
  0
LINE
  5
12C
330
2
100
AcDbEntity
  8
CENTER
 62
     1
 48
0.4
100
AcDbLine
 10
13.75668860436857
 20
2.4910194388615
 30
0.0
 11
13.75668860436857
 21
2.624877706578033
 31
0.0
  0
LINE
  5
12D
330
2
100
AcDbEntity
  8
CENTER
 48
0.4
100
AcDbLine
 10
8.835428761657091
 20
2.491019438861385
 30
0.0
 11
8.835428761657091
 21
2.624877706577918
 31
0.0
  0
LINE
  5
12E
330
2
100
AcDbEntity
  8
CENTER
 48
0.4
100
AcDbLine
 10
8.835428761657091
 20
2.491019438861499
 30
0.0
 11
8.835428761657091
 21
2.624877706578032
 31
0.0
  0
LINE
  5
12F
330
2
100
AcDbEntity
  8
CENTER
 48
0.4
100
AcDbLine
 10
8.768775218350015
 20
2.557948572719652
 30
0.0
 11
8.902633486066555
 21
2.557948572719652
 31
0.0
  0
LWPOLYLINE
  5
130
330
2
100
AcDbEntity
  8
1D
  6
PHANTOM
 62
     6
 48
0.2
100
AcDbPolyline
 90
        4
 70
     1
 43
0.0
 10
8.835428761657103
 20
-0.2565396209812567
 10
18.67794844669646
 20
-0.2565396209812567
 10
18.67794844669646
 20
2.420625733349468
 10
8.835428761657089
 20
2.420625733349454
1001
AcDbBlockRepETag
1070
     1
1071
     1508
1005
0
  0
LINE
  5
131
330
2
100
AcDbEntity
  8
PAGE1
100
AcDbLine
 10
12.33889332858619
 20
-0.3938624509025166
 30
0.0
 11
12.40975947031848
 21
-0.3938624509025166
 31
0.0
  0
LINE
  5
132
330
2
100
AcDbEntity
  8
PAGE1
100
AcDbLine
 10
12.35857836795629
 20
-0.4292955217686503
 30
0.0
 11
12.35857836795629
 21
-0.3584293800363687
 31
0.0
  0
LINE
  5
133
330
2
100
AcDbEntity
  8
PAGE1
100
AcDbLine
 10
12.39007443094842
 20
-0.4292955217686503
 30
0.0
 11
12.39007443094842
 21
-0.3584293800363687
 31
0.0
  0
LWPOLYLINE
  5
134
330
2
100
AcDbEntity
  8
PAGE1
100
AcDbPolyline
 90
        4
 70
     1
 43
0.0
 10
12.39007443094842
 20
-0.4238624509025178
 42
0.9999999999999998
 10
12.39007443094842
 20
-0.3638624509025154
 10
12.35857836795629
 20
-0.3638624509025154
 42
0.9999999999999998
 10
12.35857836795629
 20
-0.4238624509025178
  0
LINE
  5
135
330
2
100
AcDbEntity
  8
PAGE1
100
AcDbLine
 10
12.32314529709016
 20
-0.3938624509025166
 30
0.0
 11
12.39401143882244
 21
-0.3938624509025166
 31
0.0
  0
LINE
  5
136
330
2
100
AcDbEntity
  8
PAGE1
100
AcDbLine
 10
12.35464136008227
 20
-0.3938624509025166
 30
0.0
 11
12.42550750181455
 21
-0.3938624509025166
 31
0.0
  0
CIRCLE
  5
137
330
2
100
AcDbEntity
  8
PAGE1
 62
     1
100
AcDbCircle
 10
12.54605868291692
 20
-0.3938624509025024
 30
0.0
 40
0.03
  0
LINE
  5
138
330
2
100
AcDbEntity
  8
PAGE1
 62
     1
100
AcDbLine
 10
12.54605868291692
 20
-0.4292955217686503
 30
0.0
 11
12.54605868291692
 21
-0.3584293800363687
 31
0.0
  0
LINE
  5
139
330
2
100
AcDbEntity
  8
PAGE1
 62
     1
100
AcDbLine
 10
12.51062561205078
 20
-0.3938624509025024
 30
0.0
 11
12.58149175378307
 21
-0.3938624509025024
 31
0.0
  0
CIRCLE
  5
13A
330
2
100
AcDbEntity
  8
PAGE1
100
AcDbCircle
 10
13.75668860417678
 20
-0.3938624509025166
 30
0.0
 40
0.03
  0
LINE
  5
13B
330
2
100
AcDbEntity
  8
PAGE1
100
AcDbLine
 10
13.75668860417678
 20
-0.3584293800363687
 30
0.0
 11
13.75668860417678
 21
-0.4292955217686503
 31
0.0
  0
LINE
  5
13C
330
2
100
AcDbEntity
  8
PAGE1
100
AcDbLine
 10
13.72125553331063
 20
-0.3938624509025166
 30
0.0
 11
13.79212167504292
 21
-0.3938624509025166
 31
0.0
  0
LINE
  5
13D
330
2
100
AcDbEntity
  8
PAGE1
100
AcDbLine
 10
12.37432639945235
 20
-0.4292955217686503
 30
0.0
 11
12.37432639945235
 21
-0.3584293800363687
 31
0.0
  0
LINE
  5
13E
330
2
100
AcDbEntity
  8
PAGE1
100
AcDbLine
 10
9.917633486066504
 20
-0.3938624509025166
 30
0.0
 11
9.988499627798793
 21
-0.3938624509025166
 31
0.0
  0
LINE
  5
13F
330
2
100
AcDbEntity
  8
PAGE1
100
AcDbLine
 10
9.9373185254366
 20
-0.4292955217686503
 30
0.0
 11
9.9373185254366
 21
-0.3584293800363687
 31
0.0
  0
LINE
  5
140
330
2
100
AcDbEntity
  8
PAGE1
100
AcDbLine
 10
9.968814588428733
 20
-0.4292955217686503
 30
0.0
 11
9.968814588428733
 21
-0.3584293800363687
 31
0.0
  0
LWPOLYLINE
  5
141
330
2
100
AcDbEntity
  8
PAGE1
100
AcDbPolyline
 90
        4
 70
     1
 43
0.0
 10
9.968814588428733
 20
-0.4238624509025178
 42
0.9999999999999998
 10
9.968814588428733
 20
-0.3638624509025154
 10
9.9373185254366
 20
-0.3638624509025154
 42
0.9999999999999998
 10
9.9373185254366
 20
-0.4238624509025178
  0
LINE
  5
142
330
2
100
AcDbEntity
  8
PAGE1
100
AcDbLine
 10
9.901885454570473
 20
-0.3938624509025166
 30
0.0
 11
9.972751596302748
 21
-0.3938624509025166
 31
0.0
  0
LINE
  5
143
330
2
100
AcDbEntity
  8
PAGE1
100
AcDbLine
 10
9.933381517562592
 20
-0.3938624509025166
 30
0.0
 11
10.00424765929486
 21
-0.3938624509025166
 31
0.0
  0
CIRCLE
  5
144
330
2
100
AcDbEntity
  8
PAGE1
 62
     1
100
AcDbCircle
 10
10.12479884039723
 20
-0.3938624509025024
 30
0.0
 40
0.03
  0
LINE
  5
145
330
2
100
AcDbEntity
  8
PAGE1
 62
     1
100
AcDbLine
 10
10.12479884039723
 20
-0.4292955217686503
 30
0.0
 11
10.12479884039723
 21
-0.3584293800363687
 31
0.0
  0
LINE
  5
146
330
2
100
AcDbEntity
  8
PAGE1
100
AcDbLine
 10
10.0893657695311
 20
-0.3938624509025024
 30
0.0
 11
10.16023191126338
 21
-0.3938624509025024
 31
0.0
  0
LINE
  5
147
330
2
100
AcDbEntity
  8
PAGE1
100
AcDbLine
 10
9.953066556932666
 20
-0.4292955217686503
 30
0.0
 11
9.953066556932666
 21
-0.3584293800363687
 31
0.0
  0
LINE
  5
148
330
2
100
AcDbEntity
  8
PAGE1
100
AcDbLine
 10
14.76015317110587
 20
-0.3938624509025166
 30
0.0
 11
14.83101931283816
 21
-0.3938624509025166
 31
0.0
  0
LINE
  5
149
330
2
100
AcDbEntity
  8
PAGE1
100
AcDbLine
 10
14.77983821047597
 20
-0.4292955217686503
 30
0.0
 11
14.77983821047597
 21
-0.3584293800363687
 31
0.0
  0
LINE
  5
14A
330
2
100
AcDbEntity
  8
PAGE1
100
AcDbLine
 10
14.8113342734681
 20
-0.4292955217686503
 30
0.0
 11
14.8113342734681
 21
-0.3584293800363687
 31
0.0
  0
LWPOLYLINE
  5
14B
330
2
100
AcDbEntity
  8
PAGE1
100
AcDbPolyline
 90
        4
 70
     1
 43
0.0
 10
14.8113342734681
 20
-0.4238624509025178
 42
0.9999999999999998
 10
14.8113342734681
 20
-0.3638624509025154
 10
14.77983821047597
 20
-0.3638624509025154
 42
0.9999999999999998
 10
14.77983821047597
 20
-0.4238624509025178
  0
LINE
  5
14C
330
2
100
AcDbEntity
  8
PAGE1
100
AcDbLine
 10
14.74440513960984
 20
-0.3938624509025166
 30
0.0
 11
14.81527128134212
 21
-0.3938624509025166
 31
0.0
  0
LINE
  5
14D
330
2
100
AcDbEntity
  8
PAGE1
100
AcDbLine
 10
14.77590120260196
 20
-0.3938624509025166
 30
0.0
 11
14.84676734433423
 21
-0.3938624509025166
 31
0.0
  0
CIRCLE
  5
14E
330
2
100
AcDbEntity
  8
PAGE1
 62
     1
100
AcDbCircle
 10
14.96731852543661
 20
-0.3938624509025024
 30
0.0
 40
0.03
  0
LINE
  5
14F
330
2
100
AcDbEntity
  8
PAGE1
 62
     1
100
AcDbLine
 10
14.96731852543661
 20
-0.4292955217686503
 30
0.0
 11
14.96731852543661
 21
-0.3584293800363687
 31
0.0
  0
LINE
  5
150
330
2
100
AcDbEntity
  8
PAGE1
 62
     1
100
AcDbLine
 10
14.93188545457047
 20
-0.3938624509025024
 30
0.0
 11
15.00275159630275
 21
-0.3938624509025024
 31
0.0
  0
LINE
  5
151
330
2
100
AcDbEntity
  8
PAGE1
100
AcDbLine
 10
14.79558624197204
 20
-0.4292955217686503
 30
0.0
 11
14.79558624197204
 21
-0.3584293800363687
 31
0.0
  0
LINE
  5
152
330
2
100
AcDbEntity
  8
PAGE1
100
AcDbLine
 10
17.18141301362556
 20
-0.3938624509025166
 30
0.0
 11
17.25227915535785
 21
-0.3938624509025166
 31
0.0
  0
LINE
  5
153
330
2
100
AcDbEntity
  8
PAGE1
100
AcDbLine
 10
17.20109805299566
 20
-0.4292955217686503
 30
0.0
 11
17.20109805299566
 21
-0.3584293800363687
 31
0.0
  0
LINE
  5
154
330
2
100
AcDbEntity
  8
PAGE1
100
AcDbLine
 10
17.23259411598779
 20
-0.4292955217686503
 30
0.0
 11
17.23259411598779
 21
-0.3584293800363687
 31
0.0
  0
LWPOLYLINE
  5
155
330
2
100
AcDbEntity
  8
PAGE1
100
AcDbPolyline
 90
        4
 70
     1
 43
0.0
 10
17.23259411598779
 20
-0.4238624509025178
 42
0.9999999999999998
 10
17.23259411598779
 20
-0.3638624509025154
 10
17.20109805299566
 20
-0.3638624509025154
 42
0.9999999999999998
 10
17.20109805299566
 20
-0.4238624509025178
  0
LINE
  5
156
330
2
100
AcDbEntity
  8
PAGE1
100
AcDbLine
 10
17.16566498212953
 20
-0.3938624509025166
 30
0.0
 11
17.2365311238618
 21
-0.3938624509025166
 31
0.0
  0
LINE
  5
157
330
2
100
AcDbEntity
  8
PAGE1
100
AcDbLine
 10
17.19716104512164
 20
-0.3938624509025166
 30
0.0
 11
17.26802718685392
 21
-0.3938624509025166
 31
0.0
  0
CIRCLE
  5
158
330
2
100
AcDbEntity
  8
PAGE1
 62
     1
100
AcDbCircle
 10
17.3885783679563
 20
-0.3938624509025024
 30
0.0
 40
0.03
  0
LINE
  5
159
330
2
100
AcDbEntity
  8
PAGE1
 62
     1
100
AcDbLine
 10
17.3885783679563
 20
-0.4292955217686503
 30
0.0
 11
17.3885783679563
 21
-0.3584293800363687
 31
0.0
  0
LINE
  5
15A
330
2
100
AcDbEntity
  8
PAGE1
 62
     1
100
AcDbLine
 10
17.35314529709015
 20
-0.3938624509025024
 30
0.0
 11
17.42401143882244
 21
-0.3938624509025024
 31
0.0
  0
LINE
  5
15B
330
2
100
AcDbEntity
  8
PAGE1
100
AcDbLine
 10
17.21684608449173
 20
-0.4292955217686503
 30
0.0
 11
17.21684608449173
 21
-0.3584293800363687
 31
0.0
  0
CIRCLE
  5
15C
330
2
100
AcDbEntity
  8
0
 62
     1
100
AcDbCircle
 10
18.67794844669646
 20
2.557948572719539
 30
0.0
 40
0.03
  0
CIRCLE
  5
15D
330
2
100
AcDbEntity
  8
0
 62
     1
100
AcDbCircle
 10
13.75668860436857
 20
2.557948572719767
 30
0.0
 40
0.03
  0
CIRCLE
  5
15E
330
2
100
AcDbEntity
  8
0
100
AcDbCircle
 10
8.835428761657091
 20
2.557948572719652
 30
0.0
 40
0.03
  0
LINE
  5
15F
330
2
100
AcDbEntity
  8
1D
100
AcDbLine
 10
3.599208289261358
 20
0.3073674726997666
 30
0.0
 11
3.599208289362028
 21
1.856718649118192
 31
0.0
  0
LINE
  5
160
330
2
100
AcDbEntity
  8
1D
100
AcDbLine
 10
2.82453270110248
 20
1.082043060908979
 30
0.0
 11
4.373883877520906
 21
1.082043060908979
 31
0.0
  0
LINE
  5
161
330
2
100
AcDbEntity
  8
1D
100
AcDbLine
 10
13.75668860422235
 20
0.3073674726992985
 30
0.0
 11
13.75668860432302
 21
1.856718649117724
 31
0.0
  0
LINE
  5
162
330
2
100
AcDbEntity
  8
1D
100
AcDbLine
 10
12.98201301606347
 20
1.082043060908511
 30
0.0
 11
14.53136419248189
 21
1.082043060908511
 31
0.0
  0
LINE
  5
163
330
2
100
AcDbEntity
  8
1D
100
AcDbLine
 10
3.599208289261358
 20
0.2448674726997666
 30
0.0
 11
3.599208289261358
 21
-1.200069233645699
 31
0.0
  0
LINE
  5
164
330
2
100
AcDbEntity
  8
1D
100
AcDbLine
 10
-1.49921382712786
 20
-0.4765199312171263
 30
0.0
 11
-1.49921382712786
 21
-1.200069233645699
 31
0.0
  0
LINE
  5
165
330
2
100
AcDbEntity
  8
1D
100
AcDbLine
 10
3.419208289261358
 20
-1.355176462173403
 30
0.0
 11
1.654282945352463
 21
-1.355176462173403
 31
0.0
  0
LINE
  5
166
330
2
100
AcDbEntity
  8
1D
100
AcDbLine
 10
-1.31921382712786
 20
-1.355176462173403
 30
0.0
 11
0.4457115167810344
 21
-1.355176462173403
 31
0.0
  0
SOLID
  5
167
330
2
100
AcDbEntity
  8
1D
100
AcDbTrace
 10
3.419208289261358
 20
-1.325176462173403
 30
0.0
 11
3.419208289261358
 21
-1.385176462173403
 31
0.0
 12
3.599208289261358
 22
-1.355176462173403
 32
0.0
 13
3.599208289261358
 23
-1.355176462173403
 33
0.0
  0
SOLID
  5
168
330
2
100
AcDbEntity
  8
1D
100
AcDbTrace
 10
-1.31921382712786
 20
-1.325176462173403
 30
0.0
 11
-1.31921382712786
 21
-1.385176462173403
 31
0.0
 12
-1.49921382712786
 22
-1.355176462173403
 32
0.0
 13
-1.49921382712786
 23
-1.355176462173403
 33
0.0
  0
MTEXT
  5
169
330
2
100
AcDbEntity
  8
1D
100
AcDbMText
 10
1.049997231066748
 20
-1.355176462173403
 30
0.0
 40
0.18
 41
0.0
 46
0.0
 71
     5
 72
     1
  1
\A1;129.500
 73
     1
 44
1.0
  0
LINE
  5
16A
330
2
100
AcDbEntity
  8
1D
100
AcDbLine
 10
3.599208289261358
 20
0.2448674726997666
 30
0.0
 11
3.599208289261358
 21
-1.533428733416876
 31
0.0
  0
LINE
  5
16B
330
2
100
AcDbEntity
  8
1D
100
AcDbLine
 10
8.658266487833122
 20
-0.1418742619261328
 30
0.0
 11
8.658266487833122
 21
-1.533428733416876
 31
0.0
  0
LINE
  5
16C
330
2
100
AcDbEntity
  8
1D
100
AcDbLine
 10
3.779208289261358
 20
-1.353428733416876
 30
0.0
 11
5.524451674261526
 21
-1.353428733416876
 31
0.0
  0
LINE
  5
16D
330
2
100
AcDbEntity
  8
1D
100
AcDbLine
 10
8.478266487833122
 20
-1.353428733416876
 30
0.0
 11
6.733023102832954
 21
-1.353428733416876
 31
0.0
  0
SOLID
  5
16E
330
2
100
AcDbEntity
  8
1D
100
AcDbTrace
 10
3.779208289261358
 20
-1.323428733416876
 30
0.0
 11
3.779208289261358
 21
-1.383428733416876
 31
0.0
 12
3.599208289261358
 22
-1.353428733416876
 32
0.0
 13
3.599208289261358
 23
-1.353428733416876
 33
0.0
  0
SOLID
  5
16F
330
2
100
AcDbEntity
  8
1D
100
AcDbTrace
 10
8.478266487833122
 20
-1.323428733416876
 30
0.0
 11
8.478266487833122
 21
-1.383428733416876
 31
0.0
 12
8.658266487833122
 22
-1.353428733416876
 32
0.0
 13
8.658266487833122
 23
-1.353428733416876
 33
0.0
  0
MTEXT
  5
170
330
2
100
AcDbEntity
  8
1D
100
AcDbMText
 10
6.12873738854724
 20
-1.353428733416876
 30
0.0
 40
0.18
 41
0.0
 46
0.0
 71
     5
 72
     1
  1
\A1;128.500
 73
     1
 44
1.0
  0
LINE
  5
171
330
2
100
AcDbEntity
  8
1D
100
AcDbLine
 10
-1.49921382712786
 20
2.620448572720006
 30
0.0
 11
-1.49921382712786
 21
3.082739197550516
 31
0.0
  0
LINE
  5
172
330
2
100
AcDbEntity
  8
1D
100
AcDbLine
 10
-1.322051553303891
 20
2.620448572720006
 30
0.0
 11
-1.322051553303891
 21
3.082739197550516
 31
0.0
  0
LINE
  5
173
330
2
100
AcDbEntity
  8
1D
100
AcDbLine
 10
-1.67921382712786
 20
2.902739197550516
 30
0.0
 11
-1.85921382712786
 21
2.902739197550516
 31
0.0
  0
LINE
  5
174
330
2
100
AcDbEntity
  8
1D
100
AcDbLine
 10
-1.142051553303891
 20
2.902739197550516
 30
0.0
 11
-0.9620515533038913
 21
2.902739197550516
 31
0.0
  0
SOLID
  5
175
330
2
100
AcDbEntity
  8
1D
100
AcDbTrace
 10
-1.67921382712786
 20
2.932739197550516
 30
0.0
 11
-1.67921382712786
 21
2.872739197550517
 31
0.0
 12
-1.49921382712786
 22
2.902739197550516
 32
0.0
 13
-1.49921382712786
 23
2.902739197550516
 33
0.0
  0
SOLID
  5
176
330
2
100
AcDbEntity
  8
1D
100
AcDbTrace
 10
-1.142051553303891
 20
2.932739197550516
 30
0.0
 11
-1.142051553303891
 21
2.872739197550517
 31
0.0
 12
-1.322051553303891
 22
2.902739197550516
 32
0.0
 13
-1.322051553303891
 23
2.902739197550516
 33
0.0
  0
MTEXT
  5
177
330
2
100
AcDbEntity
  8
1D
100
AcDbMText
 10
-0.5120515533038914
 20
2.902739197550516
 30
0.0
 40
0.18
 41
0.0
 46
0.0
 71
     5
 72
     1
  1
\A1;4.500
 73
     1
 44
1.0
  0
LINE
  5
178
330
2
100
AcDbEntity
  8
1D
100
AcDbLine
 10
18.81574680279375
 20
2.640606053034503
 30
0.0
 11
18.81574680279375
 21
3.706454787400843
 31
0.0
  0
LINE
  5
179
330
2
100
AcDbEntity
  8
1D
100
AcDbLine
 10
18.67794844669646
 20
2.620448572719539
 30
0.0
 11
18.67794844669646
 21
3.706454787400843
 31
0.0
  0
LINE
  5
17A
330
2
100
AcDbEntity
  8
1D
100
AcDbLine
 10
18.99574680279375
 20
1.784763171855395
 30
0.0
 11
19.17574680279375
 21
1.784763171855395
 31
0.0
  0
LINE
  5
17B
330
2
100
AcDbEntity
  8
1D
100
AcDbLine
 10
18.49794844669646
 20
3.526454787400844
 30
0.0
 11
18.31794844669646
 21
3.526454787400844
 31
0.0
  0
SOLID
  5
17C
330
2
100
AcDbEntity
  8
1D
100
AcDbTrace
 10
18.99574680279375
 20
1.814763171855395
 30
0.0
 11
18.99574680279375
 21
1.754763171855395
 31
0.0
 12
18.81574680279375
 22
1.784763171855395
 32
0.0
 13
18.81574680279375
 23
1.784763171855395
 33
0.0
  0
SOLID
  5
17D
330
2
100
AcDbEntity
  8
1D
100
AcDbTrace
 10
18.49794844669646
 20
3.556454787400844
 30
0.0
 11
18.49794844669646
 21
3.496454787400844
 31
0.0
 12
18.67794844669646
 22
3.526454787400844
 32
0.0
 13
18.67794844669646
 23
3.526454787400844
 33
0.0
  0
MTEXT
  5
17E
330
2
100
AcDbEntity
  8
1D
100
AcDbMText
 10
17.86794844669646
 20
3.526454787400844
 30
0.0
 40
0.18
 41
0.0
 46
0.0
 71
     5
 72
     1
  1
\A1;3.500
 73
     1
 44
1.0
  0
LINE
  5
17F
330
2
100
AcDbEntity
  8
1D
100
AcDbLine
 10
-0.0326814745637449
 20
-0.456362450902148
 30
0.0
 11
-0.032681474563745
 21
-1.03729304938755
 31
0.0
  0
LINE
  5
180
330
2
100
AcDbEntity
  8
1D
100
AcDbLine
 10
-1.49921382712786
 20
-0.456362450902148
 30
0.0
 11
-1.49921382712786
 21
-1.03729304938755
 31
0.0
  0
LINE
  5
181
330
2
100
AcDbEntity
  8
1D
100
AcDbLine
 10
0.147318525436255
 20
-0.8572930493875503
 30
0.0
 11
0.327318525436255
 21
-0.8572930493875503
 31
0.0
  0
LINE
  5
182
330
2
100
AcDbEntity
  8
1D
100
AcDbLine
 10
-1.67921382712786
 20
-0.8572930493875503
 30
0.0
 11
-1.85921382712786
 21
-0.8572930493875503
 31
0.0
  0
SOLID
  5
183
330
2
100
AcDbEntity
  8
1D
100
AcDbTrace
 10
0.147318525436255
 20
-0.8272930493875502
 30
0.0
 11
0.147318525436255
 21
-0.8872930493875504
 31
0.0
 12
-0.032681474563745
 22
-0.8572930493875503
 32
0.0
 13
-0.032681474563745
 23
-0.8572930493875503
 33
0.0
  0
SOLID
  5
184
330
2
100
AcDbEntity
  8
1D
100
AcDbTrace
 10
-1.67921382712786
 20
-0.8272930493875502
 30
0.0
 11
-1.67921382712786
 21
-0.8872930493875504
 31
0.0
 12
-1.49921382712786
 22
-0.8572930493875503
 32
0.0
 13
-1.49921382712786
 23
-0.8572930493875503
 33
0.0
  0
MTEXT
  5
185
330
2
100
AcDbEntity
  8
1D
100
AcDbMText
 10
-0.7659476508458028
 20
-0.8572930493875503
 30
0.0
 40
0.18
 41
0.0
 46
0.0
 71
     5
 72
     1
  1
\A1;37.250
 73
     1
 44
1.0
  0
LINE
  5
186
330
2
100
AcDbEntity
  8
1D
100
AcDbLine
 10
18.81574680279375
 20
-0.4563624509024418
 30
0.0
 11
18.81574680279375
 21
-1.533016884596072
 31
0.0
  0
LINE
  5
187
330
2
100
AcDbEntity
  8
1D
100
AcDbLine
 10
17.3885783679563
 20
-0.4563624509024418
 30
0.0
 11
17.3885783679563
 21
-1.533016884596072
 31
0.0
  0
LINE
  5
188
330
2
100
AcDbEntity
  8
1D
100
AcDbLine
 10
18.99574680279375
 20
-1.353016884596073
 30
0.0
 11
19.17574680279375
 21
-1.353016884596073
 31
0.0
  0
LINE
  5
189
330
2
100
AcDbEntity
  8
1D
100
AcDbLine
 10
17.2085783679563
 20
-1.353016884596073
 30
0.0
 11
17.0285783679563
 21
-1.353016884596073
 31
0.0
  0
SOLID
  5
18A
330
2
100
AcDbEntity
  8
1D
100
AcDbTrace
 10
18.99574680279375
 20
-1.323016884596073
 30
0.0
 11
18.99574680279375
 21
-1.383016884596073
 31
0.0
 12
18.81574680279375
 22
-1.353016884596073
 32
0.0
 13
18.81574680279375
 23
-1.353016884596073
 33
0.0
  0
SOLID
  5
18B
330
2
100
AcDbEntity
  8
1D
100
AcDbTrace
 10
17.2085783679563
 20
-1.323016884596073
 30
0.0
 11
17.2085783679563
 21
-1.383016884596073
 31
0.0
 12
17.3885783679563
 22
-1.353016884596073
 32
0.0
 13
17.3885783679563
 23
-1.353016884596073
 33
0.0
  0
MTEXT
  5
18C
330
2
100
AcDbEntity
  8
1D
100
AcDbMText
 10
18.10216258537503
 20
-1.353016884596073
 30
0.0
 40
0.18
 41
0.0
 46
0.0
 71
     5
 72
     1
  1
\A1;36.250
 73
     1
 44
1.0
  0
LINE
  5
18D
330
2
100
AcDbEntity
  8
PAGE1
100
AcDbLine
 10
14.18233709176999
 20
-2.706921395790324
 30
0.0
 11
13.91114070741046
 21
-2.706921395790327
 31
0.0
  0
LINE
  5
18E
330
2
100
AcDbEntity
  8
PAGE1
100
AcDbLine
 10
13.91114070741045
 20
-7.31322060838875
 30
0.0
 11
14.18233709176994
 21
-7.313220608388746
 31
0.0
  0
LINE
  5
18F
330
2
100
AcDbEntity
  8
0
100
AcDbLine
 10
14.21186465082508
 20
-3.279756041459592
 30
0.0
 11
14.21186465082508
 21
-4.1419607658691
 31
0.0
  0
LINE
  5
190
330
2
100
AcDbEntity
  8
PAGE1
100
AcDbLine
 10
14.24139220988019
 20
-3.267945017837547
 30
0.0
 11
14.24139220988019
 21
-2.765976513900547
 31
0.0
  0
LINE
  5
191
330
2
100
AcDbEntity
  8
PAGE1
100
AcDbLine
 10
14.24139220988019
 20
-4.685267852483214
 30
0.0
 11
14.24139220988019
 21
-4.153771789491145
 31
0.0
  0
LINE
  5
192
330
2
100
AcDbEntity
  8
0
100
AcDbLine
 10
14.21186465082508
 20
-4.697078876105258
 30
0.0
 11
14.21186465082508
 21
-5.323063128073791
 31
0.0
  0
LINE
  5
193
330
2
100
AcDbEntity
  8
PAGE1
100
AcDbLine
 10
14.24139220988019
 20
-5.866370214687968
 30
0.0
 11
14.24139220988019
 21
-5.334874151695835
 31
0.0
  0
LINE
  5
194
330
2
100
AcDbEntity
  8
0
100
AcDbLine
 10
14.21186465082508
 20
-5.878181238309991
 30
0.0
 11
14.21186465082508
 21
-6.740385962719457
 31
0.0
  0
ARC
  5
195
330
2
100
AcDbEntity
  8
0
100
AcDbCircle
 10
14.22367567444713
 20
-5.878181238309991
 30
0.0
 40
0.0118110236220473
100
AcDbArc
 50
90.0
 51
180.0
  0
LINE
  5
196
330
2
100
AcDbEntity
  8
0
100
AcDbLine
 10
14.24139220988019
 20
-5.866370214687968
 30
0.0
 11
14.22367567444713
 21
-5.866370214687968
 31
0.0
  0
LINE
  5
197
330
2
100
AcDbEntity
  8
0
100
AcDbLine
 10
14.24139220988019
 20
-5.334874151695835
 30
0.0
 11
14.22367567444713
 21
-5.334874151695835
 31
0.0
  0
ARC
  5
198
330
2
100
AcDbEntity
  8
0
100
AcDbCircle
 10
14.22367567444713
 20
-5.323063128073791
 30
0.0
 40
0.0118110236220473
100
AcDbArc
 50
180.0
 51
270.0
  0
LINE
  5
199
330
2
100
AcDbEntity
  8
0
100
AcDbLine
 10
14.24139220988019
 20
-4.685267852483214
 30
0.0
 11
14.22367567444713
 21
-4.685267852483214
 31
0.0
  0
ARC
  5
19A
330
2
100
AcDbEntity
  8
0
100
AcDbCircle
 10
14.22367567444713
 20
-4.697078876105258
 30
0.0
 40
0.0118110236220473
100
AcDbArc
 50
90.0
 51
180.0
  0
LINE
  5
19B
330
2
100
AcDbEntity
  8
0
100
AcDbLine
 10
14.24139220988019
 20
-4.153771789491145
 30
0.0
 11
14.22367567444713
 21
-4.153771789491145
 31
0.0
  0
ARC
  5
19C
330
2
100
AcDbEntity
  8
0
100
AcDbCircle
 10
14.22367567444713
 20
-4.1419607658691
 30
0.0
 40
0.0118110236220473
100
AcDbArc
 50
180.0
 51
270.0
  0
ARC
  5
19D
330
2
100
AcDbEntity
  8
0
100
AcDbCircle
 10
14.22367567444713
 20
-3.279756041459592
 30
0.0
 40
0.0118110236220473
100
AcDbArc
 50
90.0
 51
180.0
  0
LINE
  5
19E
330
2
100
AcDbEntity
  8
0
100
AcDbLine
 10
14.24139220988019
 20
-3.267945017837547
 30
0.0
 11
14.22367567444713
 21
-3.267945017837547
 31
0.0
  0
LINE
  5
19F
330
2
100
AcDbEntity
  8
PAGE1
100
AcDbLine
 10
14.24139220988019
 20
-7.254165490278523
 30
0.0
 11
14.24139220988017
 21
-6.752196986341502
 31
0.0
  0
LINE
  5
1A0
330
2
100
AcDbEntity
  8
0
100
AcDbLine
 10
14.24139220988019
 20
-6.752196986341502
 30
0.0
 11
14.22367567444713
 21
-6.752196986341502
 31
0.0
  0
ARC
  5
1A1
330
2
100
AcDbEntity
  8
0
100
AcDbCircle
 10
14.22367567444713
 20
-6.740385962719457
 30
0.0
 40
0.0118110236220473
100
AcDbArc
 50
180.0
 51
270.0
  0
LINE
  5
1A2
330
2
100
AcDbEntity
  8
PAGE1
100
AcDbLine
 10
14.18233709176994
 20
-7.313220608388746
 30
0.0
 11
14.24139220988019
 21
-7.254165490278523
 31
0.0
  0
LINE
  5
1A3
330
2
100
AcDbEntity
  8
PAGE1
100
AcDbLine
 10
14.24139220988019
 20
-2.765976513900547
 30
0.0
 11
14.18233709176999
 21
-2.706921395790324
 31
0.0
  0
LINE
  5
1A4
330
2
100
AcDbEntity
  8
CENTER
 62
     1
 48
0.4
100
AcDbLine
 10
14.03469467573425
 20
-2.896606435160222
 30
0.0
 11
14.03469467573425
 21
-2.695819033585422
 31
0.0
  0
LINE
  5
1A5
330
2
100
AcDbEntity
  8
CENTER
 62
     1
 48
0.4
100
AcDbLine
 10
14.03469467573425
 20
-2.896606435160393
 30
0.0
 11
14.03469467573425
 21
-2.695819033585593
 31
0.0
  0
LINE
  5
1A6
330
2
100
AcDbEntity
  8
CENTER
 62
     1
 48
0.4
100
AcDbLine
 10
13.93430097494685
 20
-2.796212734372993
 30
0.0
 11
14.13508837652166
 21
-2.796212734372993
 31
0.0
  0
CIRCLE
  5
1A7
330
2
100
AcDbEntity
  8
0
 62
     1
100
AcDbCircle
 10
14.03469467573425
 20
-2.796212734372993
 30
0.0
 40
0.045
  0
LINE
  5
1A8
330
2
100
AcDbEntity
  8
PAGE1
100
AcDbLine
 10
14.57164371234993
 20
-2.706921395790857
 30
0.0
 11
14.30044732799093
 21
-2.706921395790857
 31
0.0
  0
LINE
  5
1A9
330
2
100
AcDbEntity
  8
PAGE1
100
AcDbLine
 10
14.27091976893581
 20
-3.26794501783808
 30
0.0
 11
14.35950244610117
 21
-3.356527695003478
 31
0.0
  0
LINE
  5
1AA
330
2
100
AcDbEntity
  8
PAGE1
100
AcDbLine
 10
14.24139220988072
 20
-2.76597651390108
 30
0.0
 11
14.24139220988072
 21
-3.26794501783808
 31
0.0
  0
LINE
  5
1AB
330
2
100
AcDbEntity
  8
PAGE1
100
AcDbLine
 10
14.30044732799093
 20
-2.706921395790857
 30
0.0
 11
14.24139220988072
 21
-2.76597651390108
 31
0.0
  0
LINE
  5
1AC
330
2
100
AcDbEntity
  8
PAGE1
100
AcDbLine
 10
14.35950244610117
 20
-3.356527695003478
 30
0.0
 11
14.3595024461012
 21
-4.065189112326279
 31
0.0
  0
LINE
  5
1AD
330
2
100
AcDbEntity
  8
PAGE1
100
AcDbLine
 10
14.3595024461012
 20
-4.065189112326279
 30
0.0
 11
14.27091976893581
 21
-4.153771789491678
 31
0.0
  0
LINE
  5
1AE
330
2
100
AcDbEntity
  8
PAGE1
100
AcDbLine
 10
14.24139220988072
 20
-4.153771789491678
 30
0.0
 11
14.24139220988072
 21
-4.685267852483747
 31
0.0
  0
LINE
  5
1AF
330
2
100
AcDbEntity
  8
0
100
AcDbLine
 10
14.24139220988072
 20
-4.153771789491678
 30
0.0
 11
14.27091976893584
 21
-4.153771789491678
 31
0.0
  0
LINE
  5
1B0
330
2
100
AcDbEntity
  8
0
100
AcDbLine
 10
14.24139220988072
 20
-4.685267852483747
 30
0.0
 11
14.27091976893584
 21
-4.685267852483747
 31
0.0
  0
LINE
  5
1B1
330
2
100
AcDbEntity
  8
PAGE1
100
AcDbLine
 10
14.27091976893581
 20
-4.685267852483747
 30
0.0
 11
14.3595024461012
 21
-4.773850529649124
 31
0.0
  0
LINE
  5
1B2
330
2
100
AcDbEntity
  8
PAGE1
100
AcDbLine
 10
14.3595024461012
 20
-4.773850529649124
 30
0.0
 11
14.3595024461012
 21
-5.246291474530991
 31
0.0
  0
LINE
  5
1B3
330
2
100
AcDbEntity
  8
PAGE1
100
AcDbLine
 10
14.24139220988072
 20
-5.334874151696368
 30
0.0
 11
14.24139220988072
 21
-5.866370214688501
 31
0.0
  0
LINE
  5
1B4
330
2
100
AcDbEntity
  8
0
100
AcDbLine
 10
14.24139220988072
 20
-5.334874151696368
 30
0.0
 11
14.27091976893584
 21
-5.334874151696368
 31
0.0
  0
LINE
  5
1B5
330
2
100
AcDbEntity
  8
PAGE1
100
AcDbLine
 10
14.3595024461012
 20
-5.246291474530991
 30
0.0
 11
14.27091976893587
 21
-5.334874151696368
 31
0.0
  0
LINE
  5
1B6
330
2
100
AcDbEntity
  8
0
100
AcDbLine
 10
14.24139220988072
 20
-5.866370214688501
 30
0.0
 11
14.27091976893584
 21
-5.866370214688501
 31
0.0
  0
LINE
  5
1B7
330
2
100
AcDbEntity
  8
PAGE1
100
AcDbLine
 10
14.27091976893587
 20
-5.866370214688501
 30
0.0
 11
14.3595024461012
 21
-5.954952891853835
 31
0.0
  0
LINE
  5
1B8
330
2
100
AcDbEntity
  8
PAGE1
100
AcDbLine
 10
14.3595024461012
 20
-5.954952891853835
 30
0.0
 11
14.3595024461012
 21
-6.663614309176701
 31
0.0
  0
LINE
  5
1B9
330
2
100
AcDbEntity
  8
PAGE1
100
AcDbLine
 10
14.3595024461012
 20
-6.663614309176701
 30
0.0
 11
14.27091976893584
 21
-6.752196986342035
 31
0.0
  0
LINE
  5
1BA
330
2
100
AcDbEntity
  8
0
100
AcDbLine
 10
14.24139220988072
 20
-7.254165490279056
 30
0.0
 11
14.24139220988072
 21
-6.752196986342035
 31
0.0
  0
LINE
  5
1BB
330
2
100
AcDbEntity
  8
0
100
AcDbLine
 10
14.24139220988072
 20
-6.752196986342035
 30
0.0
 11
14.27091976893584
 21
-6.752196986342035
 31
0.0
  0
LINE
  5
1BC
330
2
100
AcDbEntity
  8
PAGE1
100
AcDbLine
 10
14.30044732799096
 20
-7.313220608389279
 30
0.0
 11
14.57164371234993
 21
-7.313220608389279
 31
0.0
  0
LINE
  5
1BD
330
2
100
AcDbEntity
  8
PAGE1
100
AcDbLine
 10
14.24139220988072
 20
-7.254165490279056
 30
0.0
 11
14.30044732799096
 21
-7.313220608389279
 31
0.0
  0
LINE
  5
1BE
330
2
100
AcDbEntity
  8
0
100
AcDbLine
 10
14.24139220988072
 20
-3.26794501783808
 30
0.0
 11
14.27091976893581
 21
-3.26794501783808
 31
0.0
  0
LINE
  5
1BF
330
2
100
AcDbEntity
  8
CENTER
 48
0.4
100
AcDbLine
 10
14.50713562061667
 20
-2.896606435160755
 30
0.0
 11
14.50713562061667
 21
-2.695819033585955
 31
0.0
  0
LINE
  5
1C0
330
2
100
AcDbEntity
  8
CENTER
 48
0.4
100
AcDbLine
 10
14.50713562061667
 20
-2.896606435160585
 30
0.0
 11
14.50713562061667
 21
-2.695819033585785
 31
0.0
  0
CIRCLE
  5
1C1
330
2
100
AcDbEntity
  8
0
100
AcDbCircle
 10
14.50713562061667
 20
-2.796212734373355
 30
0.0
 40
0.045
  0
LINE
  5
1C2
330
2
100
AcDbEntity
  8
1D
100
AcDbLine
 10
13.91114070741045
 20
-2.706921395790324
 30
0.0
 11
13.91114070741046
 21
-7.313220608388752
 31
0.0
  0
LINE
  5
1C3
330
2
100
AcDbEntity
  8
1D
100
AcDbLine
 10
14.57164371234993
 20
-2.706921395790324
 30
0.0
 11
14.57164371234993
 21
-7.313220608389276
 31
0.0
  0
MTEXT
  5
1C4
330
2
100
AcDbEntity
  8
1D
100
AcDbMText
 10
14.88405315590892
 20
-8.711045911526081
 30
0.0
 40
0.18
 41
0.0
 46
0.0
 71
     9
 72
     1
  1
\A1;OPTION (1)
 73
     1
 44
1.0
  0
LINE
  5
1C5
330
2
100
AcDbEntity
  8
1
  6
Continuous
100
AcDbLine
 10
17.32935326266003
 20
-2.85333595948223
 30
0.0
 11
17.276203656361
 21
-2.79428084137222
 31
0.0
  0
LINE
  5
1C9
330
2
100
AcDbEntity
  8
1
  6
Continuous
100
AcDbLine
 10
17.276203656361
 20
-2.79428084137222
 30
0.0
 11
17.00501189275981
 21
-2.79428084137222
 31
0.0
  0
LINE
  5
1CA
330
2
100
AcDbEntity
  8
1
  6
Continuous
100
AcDbLine
 10
17.00501189275981
 20
-7.400580053952246
 30
0.0
 11
17.276203656361
 21
-7.400580053952246
 31
0.0
  0
CIRCLE
  5
1CB
330
2
100
AcDbEntity
  8
1
  6
Continuous
100
AcDbCircle
 10
17.12856586108596
 20
-2.883572179954548
 30
0.0
 40
0.04499999999982
  0
LINE
  5
1CC
330
2
100
AcDbEntity
  8
1
  6
Continuous
100
AcDbLine
 10
17.33525877447088
 20
-6.839556431907219
 30
0.0
 11
17.31754223903799
 21
-6.839556431907219
 31
0.0
  0
ARC
  5
1CD
330
2
100
AcDbEntity
  8
1
  6
Continuous
100
AcDbCircle
 10
17.31754223903799
 20
-6.827745408285259
 30
0.0
 40
0.011811023622
100
AcDbArc
 50
180.0
 51
270.0
  0
LINE
  5
1CE
330
2
100
AcDbEntity
  8
1
  6
Continuous
100
AcDbLine
 10
17.33525877447088
 20
-5.953729660257245
 30
0.0
 11
17.31754223903799
 21
-5.953729660257245
 31
0.0
  0
LINE
  5
1CF
330
2
100
AcDbEntity
  8
1
  6
Continuous
100
AcDbLine
 10
17.33525877447088
 20
-5.422233597267243
 30
0.0
 11
17.31754223903799
 21
-5.422233597267243
 31
0.0
  0
ARC
  5
1D0
330
2
100
AcDbEntity
  8
1
  6
Continuous
100
AcDbCircle
 10
17.31754223903799
 20
-5.410422573645242
 30
0.0
 40
0.011811023622
100
AcDbArc
 50
180.0
 51
270.0
  0
LINE
  5
1D1
330
2
100
AcDbEntity
  8
1
  6
Continuous
100
AcDbLine
 10
17.33525877447088
 20
-4.772627298057223
 30
0.0
 11
17.31754223903799
 21
-4.772627298057223
 31
0.0
  0
LINE
  5
1D2
330
2
100
AcDbEntity
  8
1
  6
Continuous
100
AcDbLine
 10
17.33525877447088
 20
-4.241131235067264
 30
0.0
 11
17.31754223903799
 21
-4.241131235067264
 31
0.0
  0
ARC
  5
1D3
330
2
100
AcDbEntity
  8
1
  6
Continuous
100
AcDbCircle
 10
17.31754223903799
 20
-4.229320211445262
 30
0.0
 40
0.011811023622
100
AcDbArc
 50
180.0
 51
270.0
  0
LINE
  5
1D4
330
2
100
AcDbEntity
  8
1
  6
Continuous
100
AcDbLine
 10
17.33525877447088
 20
-3.355304463417205
 30
0.0
 11
17.31754223903799
 21
-3.355304463417205
 31
0.0
  0
LINE
  5
1D5
330
2
100
AcDbEntity
  8
1
  6
Continuous
100
AcDbLine
 10
17.30573121541594
 20
-3.367115487039207
 30
0.0
 11
17.30573121541594
 21
-4.229320211445262
 31
0.0
  0
ARC
  5
1D6
330
2
100
AcDbEntity
  8
1
  6
Continuous
100
AcDbCircle
 10
17.31754223903799
 20
-3.367115487039207
 30
0.0
 40
0.011811023622
100
AcDbArc
 50
90.0
 51
180.0
  0
LINE
  5
1D7
330
2
100
AcDbEntity
  8
1
  6
Continuous
100
AcDbLine
 10
17.30573121541594
 20
-4.784438321679225
 30
0.0
 11
17.30573121541594
 21
-5.410422573645242
 31
0.0
  0
ARC
  5
1D8
330
2
100
AcDbEntity
  8
1
  6
Continuous
100
AcDbCircle
 10
17.31754223903799
 20
-4.784438321679225
 30
0.0
 40
0.011811023622
100
AcDbArc
 50
90.0
 51
180.0
  0
LINE
  5
1D9
330
2
100
AcDbEntity
  8
1
  6
Continuous
100
AcDbLine
 10
17.30573121541594
 20
-5.965540683879247
 30
0.0
 11
17.30573121541594
 21
-6.827745408285259
 31
0.0
  0
ARC
  5
1DA
330
2
100
AcDbEntity
  8
1
  6
Continuous
100
AcDbCircle
 10
17.31754223903799
 20
-5.965540683879247
 30
0.0
 40
0.011811023622
100
AcDbArc
 50
90.0
 51
180.0
  0
LINE
  5
1DB
330
2
100
AcDbEntity
  8
1
  6
Continuous
100
AcDbLine
 10
17.32935326266003
 20
-2.85333595948223
 30
0.0
 11
17.33525877447088
 21
-2.85333595948223
 31
0.0
  0
LINE
  5
1DC
330
2
100
AcDbEntity
  8
1
  6
Continuous
100
AcDbLine
 10
17.32935326266003
 20
-7.341524935842237
 30
0.0
 11
17.276203656361
 21
-7.400580053952204
 31
0.0
  0
LINE
  5
1DD
330
2
100
AcDbEntity
  8
1
  6
Continuous
100
AcDbLine
 10
17.32935326266003
 20
-7.341524935842237
 30
0.0
 11
17.33525877447088
 21
-7.341524935842237
 31
0.0
  0
LINE
  5
1DE
330
2
100
AcDbEntity
  8
1
  6
Continuous
100
AcDbLine
 10
17.66551489769929
 20
-2.79428084137222
 30
0.0
 11
17.39431389258111
 21
-2.79428084137222
 31
0.0
  0
LINE
  5
1DF
330
2
100
AcDbEntity
  8
1
  6
Continuous
100
AcDbLine
 10
17.39431389258111
 20
-2.79428084137222
 30
0.0
 11
17.34116428628208
 21
-2.85333595948223
 31
0.0
  0
LINE
  5
1E0
330
2
100
AcDbEntity
  8
1
  6
Continuous
100
AcDbLine
 10
17.33525877447088
 20
-2.85333595948223
 30
0.0
 11
17.33525877447088
 21
-3.355304463417205
 31
0.0
  0
LINE
  5
1E1
330
2
100
AcDbEntity
  8
1
  6
Continuous
100
AcDbLine
 10
17.36478633352582
 20
-3.355304463417205
 30
0.0
 11
17.45336901069099
 21
-3.443887140582241
 31
0.0
  0
LINE
  5
1E2
330
2
100
AcDbEntity
  8
1
  6
Continuous
100
AcDbLine
 10
17.45336901069099
 20
-3.443887140582241
 30
0.0
 11
17.45336901069099
 21
-4.152548557902228
 31
0.0
  0
LINE
  5
1E3
330
2
100
AcDbEntity
  8
1
  6
Continuous
100
AcDbLine
 10
17.45336901069099
 20
-4.152548557902228
 30
0.0
 11
17.36478633352582
 21
-4.241131235067264
 31
0.0
  0
LINE
  5
1E4
330
2
100
AcDbEntity
  8
1
  6
Continuous
100
AcDbLine
 10
17.33525877447088
 20
-4.241131235067264
 30
0.0
 11
17.33525877447088
 21
-4.772627298057223
 31
0.0
  0
LINE
  5
1E5
330
2
100
AcDbEntity
  8
1
  6
Continuous
100
AcDbLine
 10
17.36478633352582
 20
-4.772627298057223
 30
0.0
 11
17.45336901069099
 21
-4.861209975222216
 31
0.0
  0
LINE
  5
1E6
330
2
100
AcDbEntity
  8
1
  6
Continuous
100
AcDbLine
 10
17.45336901069099
 20
-4.861209975222216
 30
0.0
 11
17.45336901069099
 21
-5.333650920102208
 31
0.0
  0
LINE
  5
1E7
330
2
100
AcDbEntity
  8
1
  6
Continuous
100
AcDbLine
 10
17.45336901069099
 20
-5.333650920102208
 30
0.0
 11
17.36478633352617
 21
-5.422233597267243
 31
0.0
  0
LINE
  5
1E8
330
2
100
AcDbEntity
  8
1
  6
Continuous
100
AcDbLine
 10
17.33525877447088
 20
-5.422233597267243
 30
0.0
 11
17.33525877447088
 21
-5.953729660257245
 31
0.0
  0
LINE
  5
1E9
330
2
100
AcDbEntity
  8
1
  6
Continuous
100
AcDbLine
 10
17.36478633352617
 20
-5.953729660257245
 30
0.0
 11
17.45336901069099
 21
-6.042312337422238
 31
0.0
  0
LINE
  5
1EA
330
2
100
AcDbEntity
  8
1
  6
Continuous
100
AcDbLine
 10
17.45336901069099
 20
-6.042312337422238
 30
0.0
 11
17.45336901069099
 21
-6.750973754742226
 31
0.0
  0
LINE
  5
1EB
330
2
100
AcDbEntity
  8
1
  6
Continuous
100
AcDbLine
 10
17.45336901069099
 20
-6.750973754742226
 30
0.0
 11
17.36478633352582
 21
-6.839556431907219
 31
0.0
  0
LINE
  5
1EC
330
2
100
AcDbEntity
  8
1
  6
Continuous
100
AcDbLine
 10
17.39431389258111
 20
-7.400580053952246
 30
0.0
 11
17.66551489769929
 21
-7.400580053952246
 31
0.0
  0
CIRCLE
  5
1ED
330
2
100
AcDbEntity
  8
1
  6
Continuous
100
AcDbCircle
 10
17.60100680596603
 20
-2.883572179954548
 30
0.0
 40
0.04499999999982
  0
LINE
  5
1EE
330
2
100
AcDbEntity
  8
1
  6
Continuous
100
AcDbLine
 10
17.33525877447088
 20
-7.341524935842237
 30
0.0
 11
17.33525877447088
 21
-6.839556431907219
 31
0.0
  0
LINE
  5
1EF
330
2
100
AcDbEntity
  8
1
  6
Continuous
100
AcDbLine
 10
17.33525877447088
 20
-6.839556431907219
 30
0.0
 11
17.36478633352617
 21
-6.839556431907219
 31
0.0
  0
LINE
  5
1F0
330
2
100
AcDbEntity
  8
1
  6
Continuous
100
AcDbLine
 10
17.33525877447088
 20
-5.953729660257245
 30
0.0
 11
17.36478633352617
 21
-5.953729660257245
 31
0.0
  0
LINE
  5
1F1
330
2
100
AcDbEntity
  8
1
  6
Continuous
100
AcDbLine
 10
17.33525877447088
 20
-5.422233597267243
 30
0.0
 11
17.36478633352617
 21
-5.422233597267243
 31
0.0
  0
LINE
  5
1F2
330
2
100
AcDbEntity
  8
1
  6
Continuous
100
AcDbLine
 10
17.33525877447088
 20
-4.772627298057223
 30
0.0
 11
17.36478633352617
 21
-4.772627298057223
 31
0.0
  0
LINE
  5
1F3
330
2
100
AcDbEntity
  8
1
  6
Continuous
100
AcDbLine
 10
17.33525877447088
 20
-4.241131235067264
 30
0.0
 11
17.36478633352617
 21
-4.241131235067264
 31
0.0
  0
LINE
  5
1F4
330
2
100
AcDbEntity
  8
1
  6
Continuous
100
AcDbLine
 10
17.33525877447088
 20
-3.355304463417205
 30
0.0
 11
17.36478633352617
 21
-3.355304463417205
 31
0.0
  0
LINE
  5
1F5
330
2
100
AcDbEntity
  8
1
  6
Continuous
100
AcDbLine
 10
17.34116428628208
 20
-2.85333595948223
 30
0.0
 11
17.33525877447088
 21
-2.85333595948223
 31
0.0
  0
LINE
  5
1F6
330
2
100
AcDbEntity
  8
1
  6
Continuous
100
AcDbLine
 10
17.39431389258111
 20
-7.400580053952204
 30
0.0
 11
17.34116428628208
 21
-7.341524935842194
 31
0.0
  0
LINE
  5
1F7
330
2
100
AcDbEntity
  8
1
  6
Continuous
100
AcDbLine
 10
17.34116428628208
 20
-7.341524935842194
 30
0.0
 11
17.33525877447088
 21
-7.341524935842194
 31
0.0
  0
LINE
  5
1F8
330
2
100
AcDbEntity
  8
1D
100
AcDbLine
 10
17.00501189275981
 20
-2.794280841371516
 30
0.0
 11
17.00501189275981
 21
-7.400580053969944
 31
0.0
  0
LINE
  5
1F9
330
2
100
AcDbEntity
  8
1D
100
AcDbLine
 10
17.66551489769929
 20
-2.794280841371516
 30
0.0
 11
17.66551489769929
 21
-7.400580053970468
 31
0.0
  0
MTEXT
  5
1FA
330
2
100
AcDbEntity
  8
1D
100
AcDbMText
 10
14.99546595695443
 20
-9.488849958219457
 30
0.0
 40
0.18
 41
0.0
 46
0.0
 71
     9
 72
     1
  1
\A1;DETAIL A
 73
     1
 44
1.0
  0
MTEXT
  5
1FB
330
2
100
AcDbEntity
  8
1D
100
AcDbMText
 10
18.10549712270875
 20
-8.711045911526081
 30
0.0
 40
0.18
 41
0.0
 46
0.0
 71
     9
 72
     1
  1
\A1;OPTION (2)
 73
     1
 44
1.0
  0
MTEXT
  5
1FC
330
2
100
AcDbEntity
  8
1D
100
AcDbMText
 10
17.93297300444947
 20
-9.488849958219457
 30
0.0
 40
0.18
 41
0.0
 46
0.0
 71
     9
 72
     1
  1
\A1;DETAIL A
 73
     1
 44
1.0
  0
LINE
  5
1FD
330
2
100
AcDbEntity
  8
1D
100
AcDbLine
 10
17.33525877447088
 20
-2.79083595948223
 30
0.0
 11
17.33525877447088
 21
-2.326565277526476
 31
0.0
  0
LINE
  5
1FE
330
2
100
AcDbEntity
  8
1D
100
AcDbLine
 10
17.34116428628208
 20
-2.79083595948223
 30
0.0
 11
17.34116428628208
 21
-2.326565277526476
 31
0.0
  0
LINE
  5
1FF
330
2
100
AcDbEntity
  8
1D
100
AcDbLine
 10
17.15525877447088
 20
-2.506565277526476
 30
0.0
 11
16.97525877447089
 21
-2.506565277526476
 31
0.0
  0
LINE
  5
200
330
2
100
AcDbEntity
  8
1D
100
AcDbLine
 10
17.52116428628208
 20
-2.506565277526476
 30
0.0
 11
17.70116428628208
 21
-2.506565277526476
 31
0.0
  0
SOLID
  5
201
330
2
100
AcDbEntity
  8
1D
100
AcDbTrace
 10
17.15525877447088
 20
-2.476565277526476
 30
0.0
 11
17.15525877447088
 21
-2.536565277526476
 31
0.0
 12
17.33525877447088
 22
-2.506565277526476
 32
0.0
 13
17.33525877447088
 23
-2.506565277526476
 33
0.0
  0
SOLID
  5
202
330
2
100
AcDbEntity
  8
1D
100
AcDbTrace
 10
17.52116428628208
 20
-2.476565277526476
 30
0.0
 11
17.52116428628208
 21
-2.536565277526476
 31
0.0
 12
17.34116428628208
 22
-2.506565277526476
 32
0.0
 13
17.34116428628208
 23
-2.506565277526476
 33
0.0
  0
MTEXT
  5
203
330
2
100
AcDbEntity
  8
1D
100
AcDbMText
 10
18.13402142913922
 20
-2.506565277526476
 30
0.0
 40
0.18
 41
0.0
 46
0.0
 71
     5
 72
     1
  1
\A1;0.100
 73
     1
 44
1.0
  0
LEADER
  5
204
330
2
100
AcDbEntity
  8
1D
100
AcDbLeader
  3
STANDARD
 73
     0
 40
0.18
 41
0.8999999999999996
 76
     3
 10
14.24139220988019
 20
-2.765976513900554
 30
0.0
 10
13.81535859274337
 20
-2.348485894458001
 30
0.0
 10
13.68961936623456
 20
-2.348485894458001
 30
0.0
340
205
213
0.0
223
0.09
233
0.0
1001
ACAD
1000
DSTYLE
1002
{
1070
   147
1040
0.09
1070
    77
1070
     0
1002
}
  0
MTEXT
  5
205
102
{ACAD_REACTORS
330
204
102
}
330
2
100
AcDbEntity
  8
1D
100
AcDbMText
 10
13.59961936623456
 20
-2.438485894458001
 30
0.0
 40
0.18
 41
0.0
 46
0.0
 71
     9
 72
     1
  1
\A1;R0.200
 73
     1
 44
1.0
  0
LEADER
  5
206
330
2
100
AcDbEntity
  8
1D
100
AcDbLeader
  3
STANDARD
 73
     0
 40
0.18
 41
0.8999999999999996
 76
     3
 10
14.24139220988037
 20
-7.254165490278702
 30
0.0
 10
14.01930725893417
 20
-7.847295651991381
 30
0.0
 10
13.91693289843407
 20
-7.847295651991381
 30
0.0
340
207
213
0.0
223
0.09
233
0.0
1001
ACAD
1000
DSTYLE
1002
{
1070
   147
1040
0.09
1070
    77
1070
     0
1002
}
  0
MTEXT
  5
207
102
{ACAD_REACTORS
330
206
102
}
330
2
100
AcDbEntity
  8
1D
100
AcDbMText
 10
13.82693289843407
 20
-7.937295651991381
 30
0.0
 40
0.18
 41
0.0
 46
0.0
 71
     9
 72
     1
  1
\A1;R0.200
 73
     1
 44
1.0
  0
LINE
  5
208
330
2
100
AcDbEntity
  8
1D
100
AcDbLine
 10
8.988517990302508
 20
2.809243630421493
 30
0.0
 11
8.988517990302508
 21
-0.777985824272065
 31
0.0
  0
LINE
  5
209
330
2
100
AcDbEntity
  8
1D
100
AcDbLine
 10
8.328014985363028
 20
2.809243630421492
 30
0.0
 11
8.328014985363031
 21
-0.777985824272065
 31
0.0
  0
LINE
  5
20A
330
2
100
AcDbEntity
  8
1D
100
AcDbLine
 10
8.328014985363029
 20
-0.777985824272065
 30
0.0
 11
8.988517990302508
 21
-0.777985824272065
 31
0.0
  0
LINE
  5
20B
330
2
100
AcDbEntity
  8
1D
100
AcDbLine
 10
8.328014985363028
 20
2.809243630421492
 30
0.0
 11
8.988517990302508
 21
2.809243630421493
 31
0.0
  0
ENDSEC
  0
SECTION
  2
OBJECTS
  0
DICTIONARY
  5
C
330
0
100
AcDbDictionary
281
     1
  3
ACAD_COLOR
350
37
  3
ACAD_GROUP
350
32
  3
ACAD_LAYOUT
350
12
  3
ACAD_MATERIAL
350
E
  3
ACAD_MLEADERSTYLE
350
3A
  3
ACAD_MLINESTYLE
350
33
  3
ACAD_PLOTSETTINGS
350
34
  3
ACAD_PLOTSTYLENAME
350
B
  3
ACAD_SCALELIST
350
38
  3
ACAD_TABLESTYLE
350
39
  3
ACAD_VISUALSTYLE
350
2B
  3
ACDB_RECOMPOSE_DATA
350
210
  3
ACDBVARIABLEDICTIONARY
350
3B
  0
DICTIONARY
  5
2D
330
28
100
AcDbDictionary
280
     1
281
     1
  0
DICTIONARY
  5
1B
330
1A
100
AcDbDictionary
280
     1
281
     1
  3
ACAD_LAYERFILTERS
360
1C
  3
ACAD_LAYERSTATES
360
1D
  3
ACLYDICTIONARY
360
1E
  0
DICTIONARY
  5
8
330
7
100
AcDbDictionary
280
     1
281
     1
  3
ADSK_XREC_LAYER_RECONCILED
360
9
  0
DICTIONARY
  5
1C7
330
1C6
100
AcDbDictionary
280
     1
281
     1
  3
ADSK_XREC_LAYER_RECONCILED
360
1C8
  0
DICTIONARY
  5
4A
330
49
100
AcDbDictionary
280
     1
281
     1
  3
ADSK_XREC_LAYER_RECONCILED
360
4B
  0
DICTIONARY
  5
8E
330
8D
100
AcDbDictionary
280
     1
281
     1
  3
ADSK_XREC_LAYER_RECONCILED
360
8F
  0
DICTIONARY
  5
BD
330
BC
100
AcDbDictionary
280
     1
281
     1
  3
ADSK_XREC_LAYER_RECONCILED
360
BE
  0
DICTIONARY
  5
3
330
2
100
AcDbDictionary
280
     1
281
     1
  3
ACAD_LAYOUTSELFREF
360
4
  3
ACAD_SORTENTS
360
20C
  0
DICTIONARY
  5
15
330
14
100
AcDbDictionary
280
     1
281
     1
  3
ACAD_LAYOUTSELFREF
360
16
  0
DICTIONARY
  5
37
102
{ACAD_REACTORS
330
C
102
}
330
C
100
AcDbDictionary
281
     1
  0
DICTIONARY
  5
32
102
{ACAD_REACTORS
330
C
102
}
330
C
100
AcDbDictionary
281
     1
  0
DICTIONARY
  5
12
102
{ACAD_REACTORS
330
C
102
}
330
C
100
AcDbDictionary
281
     1
  3
Model
350
11
  3
1
350
19
1001
AcadStringInfo
1000
MIFCodePage
1070
     5
  0
DICTIONARY
  5
E
102
{ACAD_REACTORS
330
C
102
}
330
C
100
AcDbDictionary
281
     1
  3
ByBlock
350
36
  3
ByLayer
350
35
  3
Global
350
D
  0
DICTIONARY
  5
3A
102
{ACAD_REACTORS
330
C
102
}
330
C
100
AcDbDictionary
281
     1
  0
DICTIONARY
  5
33
102
{ACAD_REACTORS
330
C
102
}
330
C
100
AcDbDictionary
281
     1
  3
STANDARD
350
4D
  0
DICTIONARY
  5
34
102
{ACAD_REACTORS
330
C
102
}
330
C
100
AcDbDictionary
281
     1
  0
ACDBDICTIONARYWDFLT
  5
B
102
{ACAD_REACTORS
330
C
102
}
330
C
100
AcDbDictionary
281
     1
  3
Normal
350
A
100
AcDbDictionaryWithDefault
340
A
  0
DICTIONARY
  5
38
102
{ACAD_REACTORS
330
C
102
}
330
C
100
AcDbDictionary
281
     1
  3
A0
350
52
  3
A1
350
53
  3
A2
350
54
  3
A3
350
55
  3
A4
350
56
  3
A5
350
57
  3
A6
350
58
  3
A7
350
59
  3
A8
350
5A
  3
A9
350
5B
  3
B0
350
5C
  3
B1
350
5D
  3
B2
350
5E
  3
B3
350
5F
  3
B4
350
60
  3
B5
350
61
  3
B6
350
62
  0
DICTIONARY
  5
39
102
{ACAD_REACTORS
330
C
102
}
330
C
100
AcDbDictionary
281
     1
  3
Standard
350
4E
  0
DICTIONARY
  5
2B
102
{ACAD_REACTORS
330
C
102
}
330
C
100
AcDbDictionary
281
     1
  3
2dWireframe
350
2A
  3
EdgeColorOff
350
68
  3
Realistic
350
50
  3
Wireframe
350
51
  0
XRECORD
  5
210
102
{ACAD_REACTORS
330
C
102
}
330
C
100
AcDbXrecord
280
     1
 90
        1
330
4E
  0
DICTIONARY
  5
3B
102
{ACAD_REACTORS
330
C
102
}
330
C
100
AcDbDictionary
281
     1
  3
CANNOSCALE
350
3C
  3
CMLEADERSTYLE
350
3D
  3
CTABLESTYLE
350
3E
  3
CVIEWDETAILSTYLE
350
3F
  3
CVIEWSECTIONSTYLE
350
40
  3
DIMASSOC
350
41
  3
INDEXCTL
350
42
  3
LAYEREVAL
350
43
  3
LAYERNOTIFY
350
44
  3
LIGHTINGUNITS
350
45
  3
MSLTSCALE
350
46
  3
PROJECTNAME
350
47
  3
SORTENTS
350
48
  0
DICTIONARY
  5
1C
102
{ACAD_REACTORS
330
1B
102
}
330
1B
100
AcDbDictionary
281
     1
  0
DICTIONARY
  5
1D
102
{ACAD_REACTORS
330
1B
102
}
330
1B
100
AcDbDictionary
281
     1
  0
DICTIONARY
  5
1E
102
{ACAD_REACTORS
330
1B
102
}
330
1B
100
AcDbDictionary
281
     1
1001
ACAD
1000
<All
  0
XRECORD
  5
9
102
{ACAD_REACTORS
330
8
102
}
330
8
100
AcDbXrecord
280
     1
290
     1
  0
XRECORD
  5
1C8
102
{ACAD_REACTORS
330
1C7
102
}
330
1C7
100
AcDbXrecord
280
     1
290
     1
  0
XRECORD
  5
4B
102
{ACAD_REACTORS
330
4A
102
}
330
4A
100
AcDbXrecord
280
     1
290
     1
  0
XRECORD
  5
8F
102
{ACAD_REACTORS
330
8E
102
}
330
8E
100
AcDbXrecord
280
     1
290
     1
  0
XRECORD
  5
BE
102
{ACAD_REACTORS
330
BD
102
}
330
BD
100
AcDbXrecord
280
     1
290
     1
  0
XRECORD
  5
4
102
{ACAD_REACTORS
330
3
102
}
330
3
100
AcDbXrecord
280
     1
340
2
  0
SORTENTSTABLE
  5
20C
102
{ACAD_REACTORS
330
3
102
}
330
3
100
AcDbSortentsTable
330
2
  0
XRECORD
  5
16
102
{ACAD_REACTORS
330
15
102
}
330
15
100
AcDbXrecord
280
     1
340
14
  0
LAYOUT
  5
11
102
{ACAD_REACTORS
330
12
102
}
330
12
100
AcDbPlotSettings
  1

  2
Adobe PDF
  4
A3
  6

 40
3.174999952316284
 41
3.174999952316284
 42
3.17498779296875
 43
3.17498779296875
 44
297.0318298339844
 45
420.1583251953125
 46
1.429999999999999
 47
-1.409999999999999
 48
793.1514304877708
 49
18.03891303073249
140
1209.783154737804
141
305.8586412930014
142
1.0
143
1.0
 70
 11940
 72
     1
 73
     1
 74
     4
  7

 75
     0
147
1.0
 76
     0
 77
     2
 78
   300
148
-793.1514304877708
149
-18.03891303073249
100
AcDbLayout
  1
Model
 70
     1
 71
     0
 10
0.0
 20
0.0
 11
12.0
 21
9.0
 12
0.0
 22
0.0
 32
0.0
 14
0.0
 24
0.0
 34
0.0
 15
0.0
 25
0.0
 35
0.0
146
0.0
 13
0.0
 23
0.0
 33
0.0
 16
1.0
 26
0.0
 36
0.0
 17
0.0
 27
1.0
 37
0.0
 76
     0
330
2
331
29
  0
LAYOUT
  5
19
102
{ACAD_REACTORS
330
12
102
}
330
12
100
AcDbPlotSettings
  1

  2
\\Zzw\HP LaserJet 6L
  4

  6

 40
0.0
 41
0.0
 42
0.0
 43
0.0
 44
0.0
 45
0.0
 46
0.0
 47
0.0
 48
0.0
 49
0.0
140
0.0
141
0.0
142
1.0
143
1.0
 70
   688
 72
     0
 73
     0
 74
     5
  7

 75
    16
147
1.0
 76
     0
 77
     2
 78
   300
148
0.0
149
0.0
100
AcDbLayout
  1
1
 70
     1
 71
     1
 10
0.0
 20
0.0
 11
420.0
 21
297.0
 12
0.0
 22
0.0
 32
0.0
 14
1.000000000000000E+20
 24
1.000000000000000E+20
 34
1.000000000000000E+20
 15
-1.000000000000000E+20
 25
-1.000000000000000E+20
 35
-1.000000000000000E+20
146
0.0
 13
0.0
 23
0.0
 33
0.0
 16
1.0
 26
0.0
 36
0.0
 17
0.0
 27
1.0
 37
0.0
 76
     0
330
14
1001
AcadStringInfo
1000
MIFCodePage
1070
     5
  0
MATERIAL
  5
36
102
{ACAD_REACTORS
330
E
102
}
330
E
100
AcDbMaterial
  1
ByBlock
 73
     1
 78
     1
172
     1
176
     1
270
     1
274
     1
 94
       63
  0
MATERIAL
  5
35
102
{ACAD_REACTORS
330
E
102
}
330
E
100
AcDbMaterial
  1
ByLayer
 73
     1
 78
     1
172
     1
176
     1
270
     1
274
     1
 94
       63
  0
MATERIAL
  5
D
102
{ACAD_REACTORS
330
E
102
}
330
E
100
AcDbMaterial
  1
Global
 73
     1
 78
     1
172
     1
176
     1
270
     1
274
     1
 94
       63
  0
MLINESTYLE
  5
4D
102
{ACAD_REACTORS
330
33
102
}
330
33
100
AcDbMlineStyle
  2
STANDARD
 70
     0
  3

 62
   256
 51
90.0
 52
90.0
 71
     2
 49
0.5
 62
   256
  6
BYLAYER
 49
-0.5
 62
   256
  6
BYLAYER
  0
ACDBPLACEHOLDER
  5
A
102
{ACAD_REACTORS
330
B
102
}
330
B
  0
SCALE
  5
52
102
{ACAD_REACTORS
330
38
102
}
330
38
100
AcDbScale
 70
     0
300
1:1
140
1.0
141
1.0
290
     1
1001
ACAD
1000
AcRTDxfName
1000
SCALE
1000
AcRTDxfName
1000
SCALE
  0
SCALE
  5
53
102
{ACAD_REACTORS
330
38
102
}
330
38
100
AcDbScale
 70
     0
300
1:2
140
1.0
141
2.0
290
     0
1001
ACAD
1000
AcRTDxfName
1000
SCALE
1000
AcRTDxfName
1000
SCALE
  0
SCALE
  5
54
102
{ACAD_REACTORS
330
38
102
}
330
38
100
AcDbScale
 70
     0
300
1:4
140
1.0
141
4.0
290
     0
1001
ACAD
1000
AcRTDxfName
1000
SCALE
1000
AcRTDxfName
1000
SCALE
  0
SCALE
  5
55
102
{ACAD_REACTORS
330
38
102
}
330
38
100
AcDbScale
 70
     0
300
1:5
140
1.0
141
5.0
290
     0
1001
ACAD
1000
AcRTDxfName
1000
SCALE
1000
AcRTDxfName
1000
SCALE
  0
SCALE
  5
56
102
{ACAD_REACTORS
330
38
102
}
330
38
100
AcDbScale
 70
     0
300
1:8
140
1.0
141
8.0
290
     0
1001
ACAD
1000
AcRTDxfName
1000
SCALE
1000
AcRTDxfName
1000
SCALE
  0
SCALE
  5
57
102
{ACAD_REACTORS
330
38
102
}
330
38
100
AcDbScale
 70
     0
300
1:10
140
1.0
141
10.0
290
     0
1001
ACAD
1000
AcRTDxfName
1000
SCALE
1000
AcRTDxfName
1000
SCALE
  0
SCALE
  5
58
102
{ACAD_REACTORS
330
38
102
}
330
38
100
AcDbScale
 70
     0
300
1:16
140
1.0
141
16.0
290
     0
1001
ACAD
1000
AcRTDxfName
1000
SCALE
1000
AcRTDxfName
1000
SCALE
  0
SCALE
  5
59
102
{ACAD_REACTORS
330
38
102
}
330
38
100
AcDbScale
 70
     0
300
1:20
140
1.0
141
20.0
290
     0
1001
ACAD
1000
AcRTDxfName
1000
SCALE
1000
AcRTDxfName
1000
SCALE
  0
SCALE
  5
5A
102
{ACAD_REACTORS
330
38
102
}
330
38
100
AcDbScale
 70
     0
300
1:30
140
1.0
141
30.0
290
     0
1001
ACAD
1000
AcRTDxfName
1000
SCALE
1000
AcRTDxfName
1000
SCALE
  0
SCALE
  5
5B
102
{ACAD_REACTORS
330
38
102
}
330
38
100
AcDbScale
 70
     0
300
1:40
140
1.0
141
40.0
290
     0
1001
ACAD
1000
AcRTDxfName
1000
SCALE
1000
AcRTDxfName
1000
SCALE
  0
SCALE
  5
5C
102
{ACAD_REACTORS
330
38
102
}
330
38
100
AcDbScale
 70
     0
300
1:50
140
1.0
141
50.0
290
     0
1001
ACAD
1000
AcRTDxfName
1000
SCALE
1000
AcRTDxfName
1000
SCALE
  0
SCALE
  5
5D
102
{ACAD_REACTORS
330
38
102
}
330
38
100
AcDbScale
 70
     0
300
1:100
140
1.0
141
100.0
290
     0
1001
ACAD
1000
AcRTDxfName
1000
SCALE
1000
AcRTDxfName
1000
SCALE
  0
SCALE
  5
5E
102
{ACAD_REACTORS
330
38
102
}
330
38
100
AcDbScale
 70
     0
300
2:1
140
2.0
141
1.0
290
     0
1001
ACAD
1000
AcRTDxfName
1000
SCALE
1000
AcRTDxfName
1000
SCALE
  0
SCALE
  5
5F
102
{ACAD_REACTORS
330
38
102
}
330
38
100
AcDbScale
 70
     0
300
4:1
140
4.0
141
1.0
290
     0
1001
ACAD
1000
AcRTDxfName
1000
SCALE
1000
AcRTDxfName
1000
SCALE
  0
SCALE
  5
60
102
{ACAD_REACTORS
330
38
102
}
330
38
100
AcDbScale
 70
     0
300
8:1
140
8.0
141
1.0
290
     0
1001
ACAD
1000
AcRTDxfName
1000
SCALE
1000
AcRTDxfName
1000
SCALE
  0
SCALE
  5
61
102
{ACAD_REACTORS
330
38
102
}
330
38
100
AcDbScale
 70
     0
300
10:1
140
10.0
141
1.0
290
     0
1001
ACAD
1000
AcRTDxfName
1000
SCALE
1000
AcRTDxfName
1000
SCALE
  0
SCALE
  5
62
102
{ACAD_REACTORS
330
38
102
}
330
38
100
AcDbScale
 70
     0
300
100:1
140
100.0
141
1.0
290
     0
1001
ACAD
1000
AcRTDxfName
1000
SCALE
1000
AcRTDxfName
1000
SCALE
  0
TABLESTYLE
  5
4E
102
{ACAD_XDICTIONARY
360
4F
102
}
102
{ACAD_REACTORS
330
39
102
}
330
39
100
AcDbTableStyle
280
     0
  3
Standard
 70
     0
 71
     0
 40
1.5
 41
1.5
280
     0
281
     0
  7
STANDARD
140
4.5
170
     2
 62
     0
 63
     7
283
     0
 90
      512
 91
        0
  1

274
    -2
284
     1
 64
     0
275
    -2
285
     1
 65
     0
276
    -2
286
     1
 66
     0
277
    -2
287
     1
 67
     0
278
    -2
288
     1
 68
     0
279
    -2
289
     1
 69
     0
  7
STANDARD
140
6.0
170
     5
 62
     0
 63
     7
283
     0
 90
      512
 91
        0
  1

274
    -2
284
     1
 64
     0
275
    -2
285
     1
 65
     0
276
    -2
286
     1
 66
     0
277
    -2
287
     1
 67
     0
278
    -2
288
     1
 68
     0
279
    -2
289
     1
 69
     0
  7
STANDARD
140
4.5
170
     5
 62
     0
 63
     7
283
     0
 90
      512
 91
        0
  1

274
    -2
284
     1
 64
     0
275
    -2
285
     1
 65
     0
276
    -2
286
     1
 66
     0
277
    -2
287
     1
 67
     0
278
    -2
288
     1
 68
     0
279
    -2
289
     1
 69
     0
  0
VISUALSTYLE
  5
2A
102
{ACAD_REACTORS
330
2B
102
}
330
2B
100
AcDbVisualStyle
  2
2dWireframe
 70
     4
177
     3
291
     0
 70
    58
 90
        0
176
     1
 90
        2
176
     1
 90
        0
176
     1
 90
        0
176
     1
 40
0.6
176
     1
 40
30.0
176
     1
 62
     7
176
     1
 90
        1
176
     1
 90
        4
176
     1
 62
     7
176
     1
 62
   257
176
     1
 90
        1
176
     1
 90
        1
176
     1
 40
1.0
176
     1
 90
        0
176
     1
 62
   257
176
     1
 40
1.0
176
     1
 90
        1
176
     1
 90
        6
176
     1
 90
        2
176
     1
 62
     7
176
     1
 90
        5
176
     1
 90
        0
176
     1
 90
        0
176
     1
290
     0
176
     1
 90
        1
176
     1
 40
0.0
176
     1
 90
        0
176
     1
290
     1
176
     1
290
     1
176
     1
290
     0
176
     1
290
     0
176
     1
290
     0
176
     1
290
     0
176
     1
290
     0
176
     1
290
     0
176
     1
290
     0
176
     1
 90
       50
176
     1
 40
0.0
176
     1
 40
1.0
176
     1
 90
        0
176
     1
 62
    18
420
        0
176
     1
 90
       50
176
     1
 90
        3
176
     1
 62
     5
420
      255
176
     1
290
     0
176
     1
 90
       50
176
     1
 90
       50
176
     1
 90
       50
176
     1
290
     0
176
     1
 90
       50
176
     1
 62
   256
176
     0
 40
1.0
176
     0
 90
        2
176
     1
  1
strokes_ogs.tif
176
     1
290
     0
176
     1
 40
1.0
176
     1
 40
1.0
176
     1
1001
ACAD
1000
AcRTDxfName
1000
VISUALSTYLE
1000
AcRTDxfName
1000
VISUALSTYLE
1000
AcRTDxfName
1000
VISUALSTYLE
1000
AcRTDxfName
1000
VISUALSTYLE
1000
AcRTDxfName
1000
VISUALSTYLE
1000
AcRTDxfName
1000
VISUALSTYLE
1000
AcRTDxfName
1000
VISUALSTYLE
1000
AcRTDxfName
1000
VISUALSTYLE
1000
AcRTDxfName
1000
VISUALSTYLE
1000
AcRTDxfName
1000
VISUALSTYLE
1000
AcRTDxfName
1000
VISUALSTYLE
1000
AcRTDxfName
1000
VISUALSTYLE
1000
AcRTDxfName
1000
VISUALSTYLE
1000
AcRTDxfName
1000
VISUALSTYLE
  0
VISUALSTYLE
  5
68
102
{ACAD_REACTORS
330
2B
102
}
330
2B
100
AcDbVisualStyle
  2
EdgeColorOff
 70
    22
177
     3
291
     1
 70
    58
 90
        2
176
     0
 90
        2
176
     0
 90
        0
176
     0
 90
        0
176
     0
 40
0.6
176
     0
 40
30.0
176
     0
 62
     7
176
     0
 90
        1
176
     0
 90
        4
176
     0
 62
     7
176
     0
 62
   257
176
     0
 90
        1
176
     0
 90
        1
176
     0
 40
1.0
176
     0
 90
        8
176
     2
 62
     7
176
     0
 40
1.0
176
     0
 90
        1
176
     0
 90
        6
176
     0
 90
        2
176
     0
 62
     7
176
     0
 90
        5
176
     0
 90
        0
176
     0
 90
        0
176
     0
290
     0
176
     0
 90
        1
176
     0
 40
0.0
176
     0
 90
        0
176
     0
290
     0
176
     0
290
     1
176
     0
290
     1
176
     0
290
     0
176
     0
290
     0
176
     0
290
     0
176
     0
290
     0
176
     0
290
     0
176
     0
290
     0
176
     0
 90
       50
176
     0
 40
0.0
176
     0
 40
1.0
176
     0
 90
        0
176
     0
 62
    18
420
        0
176
     0
 90
       50
176
     0
 90
        3
176
     0
 62
     5
420
      255
176
     0
290
     0
176
     0
 90
       50
176
     0
 90
       50
176
     0
 90
       50
176
     0
290
     0
176
     0
 90
       50
176
     0
 62
   256
176
     0
 40
1.0
176
     0
 90
        2
176
     0
  1
strokes_ogs.tif
176
     0
290
     0
176
     0
 40
1.0
176
     0
 40
1.0
176
     0
  0
VISUALSTYLE
  5
50
102
{ACAD_REACTORS
330
2B
102
}
330
2B
100
AcDbVisualStyle
  2
Realistic
 70
     8
177
     3
291
     0
 70
    58
 90
        2
176
     1
 90
        2
176
     1
 90
        0
176
     1
 90
        0
176
     1
 40
0.6
176
     1
 40
30.0
176
     1
 62
     7
176
     1
 90
        1
176
     1
 90
        0
176
     1
 62
     7
176
     1
 62
   257
176
     1
 90
        1
176
     1
 90
        1
176
     1
 40
1.0
176
     1
 90
        8
176
     1
 62
     8
176
     1
 40
1.0
176
     1
 90
        1
176
     1
 90
        6
176
     1
 90
        2
176
     1
 62
     7
176
     1
 90
        5
176
     1
 90
        0
176
     1
 90
        0
176
     1
290
     0
176
     1
 90
       13
176
     1
 40
0.0
176
     1
 90
        0
176
     1
290
     0
176
     1
290
     1
176
     1
290
     1
176
     1
290
     0
176
     1
290
     0
176
     1
290
     0
176
     1
290
     0
176
     1
290
     0
176
     1
290
     0
176
     1
 90
       50
176
     1
 40
0.0
176
     1
 40
1.0
176
     1
 90
        0
176
     1
 62
    18
420
        0
176
     1
 90
       50
176
     1
 90
        3
176
     1
 62
     5
420
      255
176
     1
290
     0
176
     1
 90
       50
176
     1
 90
       50
176
     1
 90
       50
176
     1
290
     0
176
     1
 90
       50
176
     1
 62
   256
176
     0
 40
1.0
176
     0
 90
        2
176
     1
  1
strokes_ogs.tif
176
     1
290
     0
176
     1
 40
1.0
176
     1
 40
1.0
176
     1
1001
ACAD
1000
AcRTDxfName
1000
VISUALSTYLE
1000
AcRTDxfName
1000
VISUALSTYLE
1000
AcRTDxfName
1000
VISUALSTYLE
1000
AcRTDxfName
1000
VISUALSTYLE
1000
AcRTDxfName
1000
VISUALSTYLE
1000
AcRTDxfName
1000
VISUALSTYLE
1000
AcRTDxfName
1000
VISUALSTYLE
1000
AcRTDxfName
1000
VISUALSTYLE
1000
AcRTDxfName
1000
VISUALSTYLE
1000
AcRTDxfName
1000
VISUALSTYLE
1000
AcRTDxfName
1000
VISUALSTYLE
1000
AcRTDxfName
1000
VISUALSTYLE
1000
AcRTDxfName
1000
VISUALSTYLE
1000
AcRTDxfName
1000
VISUALSTYLE
  0
VISUALSTYLE
  5
51
102
{ACAD_REACTORS
330
2B
102
}
330
2B
100
AcDbVisualStyle
  2
Wireframe
 70
     5
177
     3
291
     0
 70
    58
 90
        0
176
     1
 90
        2
176
     1
 90
        0
176
     1
 90
        0
176
     1
 40
0.6
176
     1
 40
30.0
176
     1
 62
     7
176
     1
 90
        1
176
     1
 90
        4
176
     1
 62
     7
176
     1
 62
   257
176
     1
 90
        1
176
     1
 90
        1
176
     1
 40
1.0
176
     1
 90
        0
176
     1
 62
   257
176
     1
 40
1.0
176
     1
 90
        1
176
     1
 90
        6
176
     1
 90
        2
176
     1
 62
     7
176
     1
 90
        3
176
     1
 90
        0
176
     1
 90
        0
176
     1
290
     0
176
     1
 90
        1
176
     1
 40
0.0
176
     1
 90
        0
176
     1
290
     0
176
     1
290
     1
176
     1
290
     1
176
     1
290
     0
176
     1
290
     0
176
     1
290
     0
176
     1
290
     0
176
     1
290
     0
176
     1
290
     0
176
     1
 90
       50
176
     1
 40
0.0
176
     1
 40
1.0
176
     1
 90
        0
176
     1
 62
    18
420
        0
176
     1
 90
       50
176
     1
 90
        3
176
     1
 62
     5
420
      255
176
     1
290
     0
176
     1
 90
       50
176
     1
 90
       50
176
     1
 90
       50
176
     1
290
     0
176
     1
 90
       50
176
     1
 62
   256
176
     0
 40
1.0
176
     0
 90
        2
176
     1
  1
strokes_ogs.tif
176
     1
290
     0
176
     1
 40
1.0
176
     1
 40
1.0
176
     1
  0
DICTIONARYVAR
  5
3C
102
{ACAD_REACTORS
330
3B
102
}
330
3B
100
DictionaryVariables
280
     0
  1
1:1
  0
DICTIONARYVAR
  5
3D
102
{ACAD_REACTORS
330
3B
102
}
330
3B
100
DictionaryVariables
280
     0
  1
STANDARD
  0
DICTIONARYVAR
  5
3E
102
{ACAD_REACTORS
330
3B
102
}
330
3B
100
DictionaryVariables
280
     0
  1
STANDARD
  0
DICTIONARYVAR
  5
3F
102
{ACAD_REACTORS
330
3B
102
}
330
3B
100
DictionaryVariables
280
     0
  1

  0
DICTIONARYVAR
  5
40
102
{ACAD_REACTORS
330
3B
102
}
330
3B
100
DictionaryVariables
280
     0
  1

  0
DICTIONARYVAR
  5
41
102
{ACAD_REACTORS
330
3B
102
}
330
3B
100
DictionaryVariables
280
     0
  1
0
  0
DICTIONARYVAR
  5
42
102
{ACAD_REACTORS
330
3B
102
}
330
3B
100
DictionaryVariables
280
     0
  1
0
  0
DICTIONARYVAR
  5
43
102
{ACAD_REACTORS
330
3B
102
}
330
3B
100
DictionaryVariables
280
     0
  1
1
  0
DICTIONARYVAR
  5
44
102
{ACAD_REACTORS
330
3B
102
}
330
3B
100
DictionaryVariables
280
     0
  1
15
  0
DICTIONARYVAR
  5
45
102
{ACAD_REACTORS
330
3B
102
}
330
3B
100
DictionaryVariables
280
     0
  1
0
  0
DICTIONARYVAR
  5
46
102
{ACAD_REACTORS
330
3B
102
}
330
3B
100
DictionaryVariables
280
     0
  1
0
  0
DICTIONARYVAR
  5
47
102
{ACAD_REACTORS
330
3B
102
}
330
3B
100
DictionaryVariables
280
     0
  1

  0
DICTIONARYVAR
  5
48
102
{ACAD_REACTORS
330
3B
102
}
330
3B
100
DictionaryVariables
280
     0
  1
96
  0
DICTIONARY
  5
4F
330
4E
100
AcDbDictionary
280
     1
281
     1
  3
ACAD_ROUNDTRIP_2008_TABLESTYLE_CELLSTYLEMAP
360
20F
  0
CELLSTYLEMAP
  5
20F
102
{ACAD_REACTORS
330
4F
102
}
330
4F
100
AcDbCellStyleMap
 90
        3
300
CELLSTYLE
  1
TABLEFORMAT_BEGIN
 90
        5
170
     1
 91
        0
 92
    32768
 62
   257
 93
        1
300
CONTENTFORMAT
  1
CONTENTFORMAT_BEGIN
 90
        0
 91
        0
 92
      512
 93
        0
300

 40
0.0
140
1.0
 94
        5
 62
     0
340
21
144
6.0
309
CONTENTFORMAT_END
171
     1
301
MARGIN
  1
CELLMARGIN_BEGIN
 40
1.5
 40
1.5
 40
1.5
 40
1.5
 40
0.18
 40
0.18
309
CELLMARGIN_END
 94
        6
 95
        1
302
GRIDFORMAT
  1
GRIDFORMAT_BEGIN
 90
        0
 91
        1
 62
     0
 92
       -2
340
0
 93
        0
 40
0.045
309
GRIDFORMAT_END
 95
        2
302
GRIDFORMAT
  1
GRIDFORMAT_BEGIN
 90
        0
 91
        1
 62
     0
 92
       -2
340
0
 93
        0
 40
0.045
309
GRIDFORMAT_END
 95
        4
302
GRIDFORMAT
  1
GRIDFORMAT_BEGIN
 90
        0
 91
        1
 62
     0
 92
       -2
340
0
 93
        0
 40
0.045
309
GRIDFORMAT_END
 95
        8
302
GRIDFORMAT
  1
GRIDFORMAT_BEGIN
 90
        0
 91
        1
 62
     0
 92
       -2
340
0
 93
        0
 40
0.045
309
GRIDFORMAT_END
 95
       16
302
GRIDFORMAT
  1
GRIDFORMAT_BEGIN
 90
        0
 91
        1
 62
     0
 92
       -2
340
0
 93
        0
 40
0.045
309
GRIDFORMAT_END
 95
       32
302
GRIDFORMAT
  1
GRIDFORMAT_BEGIN
 90
        0
 91
        1
 62
     0
 92
       -2
340
0
 93
        0
 40
0.045
309
GRIDFORMAT_END
309
TABLEFORMAT_END
  1
CELLSTYLE_BEGIN
 90
        1
 91
        1
300
_TITLE
309
CELLSTYLE_END
300
CELLSTYLE
  1
TABLEFORMAT_BEGIN
 90
        5
170
     1
 91
        0
 92
        0
 62
   257
 93
        1
300
CONTENTFORMAT
  1
CONTENTFORMAT_BEGIN
 90
        0
 91
        0
 92
      512
 93
        0
300

 40
0.0
140
1.0
 94
        5
 62
     0
340
21
144
4.5
309
CONTENTFORMAT_END
171
     1
301
MARGIN
  1
CELLMARGIN_BEGIN
 40
1.5
 40
1.5
 40
1.5
 40
1.5
 40
0.18
 40
0.18
309
CELLMARGIN_END
 94
        6
 95
        1
302
GRIDFORMAT
  1
GRIDFORMAT_BEGIN
 90
        0
 91
        1
 62
     0
 92
       -2
340
0
 93
        0
 40
0.045
309
GRIDFORMAT_END
 95
        2
302
GRIDFORMAT
  1
GRIDFORMAT_BEGIN
 90
        0
 91
        1
 62
     0
 92
       -2
340
0
 93
        0
 40
0.045
309
GRIDFORMAT_END
 95
        4
302
GRIDFORMAT
  1
GRIDFORMAT_BEGIN
 90
        0
 91
        1
 62
     0
 92
       -2
340
0
 93
        0
 40
0.045
309
GRIDFORMAT_END
 95
        8
302
GRIDFORMAT
  1
GRIDFORMAT_BEGIN
 90
        0
 91
        1
 62
     0
 92
       -2
340
0
 93
        0
 40
0.045
309
GRIDFORMAT_END
 95
       16
302
GRIDFORMAT
  1
GRIDFORMAT_BEGIN
 90
        0
 91
        1
 62
     0
 92
       -2
340
0
 93
        0
 40
0.045
309
GRIDFORMAT_END
 95
       32
302
GRIDFORMAT
  1
GRIDFORMAT_BEGIN
 90
        0
 91
        1
 62
     0
 92
       -2
340
0
 93
        0
 40
0.045
309
GRIDFORMAT_END
309
TABLEFORMAT_END
  1
CELLSTYLE_BEGIN
 90
        2
 91
        1
300
_HEADER
309
CELLSTYLE_END
300
CELLSTYLE
  1
TABLEFORMAT_BEGIN
 90
        5
170
     1
 91
        0
 92
        0
 62
   257
 93
        1
300
CONTENTFORMAT
  1
CONTENTFORMAT_BEGIN
 90
        0
 91
        0
 92
      512
 93
        0
300

 40
0.0
140
1.0
 94
        2
 62
     0
340
21
144
4.5
309
CONTENTFORMAT_END
171
     1
301
MARGIN
  1
CELLMARGIN_BEGIN
 40
1.5
 40
1.5
 40
1.5
 40
1.5
 40
0.18
 40
0.18
309
CELLMARGIN_END
 94
        6
 95
        1
302
GRIDFORMAT
  1
GRIDFORMAT_BEGIN
 90
        0
 91
        1
 62
     0
 92
       -2
340
0
 93
        0
 40
0.045
309
GRIDFORMAT_END
 95
        2
302
GRIDFORMAT
  1
GRIDFORMAT_BEGIN
 90
        0
 91
        1
 62
     0
 92
       -2
340
0
 93
        0
 40
0.045
309
GRIDFORMAT_END
 95
        4
302
GRIDFORMAT
  1
GRIDFORMAT_BEGIN
 90
        0
 91
        1
 62
     0
 92
       -2
340
0
 93
        0
 40
0.045
309
GRIDFORMAT_END
 95
        8
302
GRIDFORMAT
  1
GRIDFORMAT_BEGIN
 90
        0
 91
        1
 62
     0
 92
       -2
340
0
 93
        0
 40
0.045
309
GRIDFORMAT_END
 95
       16
302
GRIDFORMAT
  1
GRIDFORMAT_BEGIN
 90
        0
 91
        1
 62
     0
 92
       -2
340
0
 93
        0
 40
0.045
309
GRIDFORMAT_END
 95
       32
302
GRIDFORMAT
  1
GRIDFORMAT_BEGIN
 90
        0
 91
        1
 62
     0
 92
       -2
340
0
 93
        0
 40
0.045
309
GRIDFORMAT_END
309
TABLEFORMAT_END
  1
CELLSTYLE_BEGIN
 90
        3
 91
        2
300
_DATA
309
CELLSTYLE_END
  0
ENDSEC
  0
EOF
