  0
SECTION
  2
HEADER
  9
$ACADVER
  1
AC1032
  9
$ACADMAINTVER
 90
      197
  9
$DWGCODEPAGE
  3
ANSI_936
  9
$REQUIREDVERSIONS
160
                 0
  9
$INSBASE
 10
0.0
 20
0.0
 30
0.0
  9
$EXTMIN
 10
-26.58878393957954
 20
-943.210909656365
 30
0.0
  9
$EXTMAX
 10
1642.264384272078
 20
39.06469536688486
 30
0.0
  9
$LIMMIN
 10
0.0
 20
0.0
  9
$LIMMAX
 10
420.0
 20
297.0
  9
$ORTHOMODE
 70
     1
  9
$REGENMODE
 70
     1
  9
$FILLMODE
 70
     1
  9
$QTEXTMODE
 70
     0
  9
$MIRRTEXT
 70
     0
  9
$LTSCALE
 40
0.5
  9
$ATTMODE
 70
     1
  9
$TEXTSIZE
 40
3.0
  9
$TRACEWID
 40
0.05
  9
$TEXTSTYLE
  7
STANDARD
  9
$CLAYER
  8
0
  9
$CELTYPE
  6
ByLayer
  9
$CECOLOR
 62
   256
  9
$CELTSCALE
 40
1.0
  9
$DISPSILH
 70
     0
  9
$DIMSCALE
 40
1.0
  9
$DIMASZ
 40
3.0
  9
$DIMEXO
 40
0.3125
  9
$DIMDLI
 40
2.5
  9
$DIMRND
 40
0.0
  9
$DIMDLE
 40
0.0
  9
$DIMEXE
 40
0.625
  9
$DIMTP
 40
0.0
  9
$DIMTM
 40
0.0
  9
$DIMTXT
 40
3.0
  9
$DIMCEN
 40
1.25
  9
$DIMTSZ
 40
0.0
  9
$DIMTOL
 70
     0
  9
$DIMLIM
 70
     0
  9
$DIMTIH
 70
     1
  9
$DIMTOH
 70
     1
  9
$DIMSE1
 70
     0
  9
$DIMSE2
 70
     0
  9
$DIMTAD
 70
     0
  9
$DIMZIN
 70
     1
  9
$DIMBLK
  1

  9
$DIMASO
 70
     1
  9
$DIMSHO
 70
     1
  9
$DIMPOST
  1

  9
$DIMAPOST
  1

  9
$DIMALT
 70
     0
  9
$DIMALTD
 70
     3
  9
$DIMALTF
 40
0.03937007874016
  9
$DIMLFAC
 40
0.025
  9
$DIMTOFL
 70
     1
  9
$DIMTVP
 40
0.0
  9
$DIMTIX
 70
     0
  9
$DIMSOXD
 70
     0
  9
$DIMSAH
 70
     0
  9
$DIMBLK1
  1

  9
$DIMBLK2
  1

  9
$DIMSTYLE
  2
DIM40
  9
$DIMCLRD
 70
   256
  9
$DIMCLRE
 70
   256
  9
$DIMCLRT
 70
   256
  9
$DIMTFAC
 40
1.0
  9
$DIMGAP
 40
0.4
  9
$DIMJUST
 70
     0
  9
$DIMSD1
 70
     0
  9
$DIMSD2
 70
     0
  9
$DIMTOLJ
 70
     0
  9
$DIMTZIN
 70
     8
  9
$DIMALTZ
 70
     0
  9
$DIMALTTZ
 70
     0
  9
$DIMUPT
 70
     0
  9
$DIMDEC
 70
     3
  9
$DIMTDEC
 70
     3
  9
$DIMALTU
 70
     2
  9
$DIMALTTD
 70
     3
  9
$DIMTXSTY
  7
STANDARD
  9
$DIMAUNIT
 70
     0
  9
$DIMADEC
 70
     0
  9
$DIMALTRND
 40
0.0
  9
$DIMAZIN
 70
     2
  9
$DIMDSEP
 70
    46
  9
$DIMATFIT
 70
     3
  9
$DIMFRAC
 70
     0
  9
$DIMLDRBLK
  1

  9
$DIMLUNIT
 70
     2
  9
$DIMLWD
 70
    -2
  9
$DIMLWE
 70
    -2
  9
$DIMTMOVE
 70
     0
  9
$DIMFXL
 40
1.0
  9
$DIMFXLON
 70
     0
  9
$DIMJOGANG
 40
1.570796326794896
  9
$DIMTFILL
 70
     0
  9
$DIMTFILLCLR
 70
     0
  9
$DIMARCSYM
 70
     1
  9
$DIMLTYPE
  6
ByBlock
  9
$DIMLTEX1
  6
ByBlock
  9
$DIMLTEX2
  6
ByBlock
  9
$DIMTXTDIRECTION
 70
     0
  9
$LUNITS
 70
     2
  9
$LUPREC
 70
     2
  9
$SKETCHINC
 40
0.1
  9
$FILLETRAD
 40
0.0
  9
$AUNITS
 70
     0
  9
$AUPREC
 70
     0
  9
$MENU
  1
.
  9
$ELEVATION
 40
0.0
  9
$PELEVATION
 40
0.0
  9
$THICKNESS
 40
0.0
  9
$LIMCHECK
 70
     0
  9
$CHAMFERA
 40
2.5
  9
$CHAMFERB
 40
2.5
  9
$CHAMFERC
 40
1.0
  9
$CHAMFERD
 40
0.0
  9
$SKPOLY
 70
     0
  9
$TDCREATE
 40
2458097.459699074
  9
$TDUCREATE
 40
2458097.126370151
  9
$TDUPDATE
 40
2458836.522719908
  9
$TDUUPDATE
 40
2458836.189390833
  9
$TDINDWG
 40
41.5856217130
  9
$TDUSRTIMER
 40
41.5855882060
  9
$USRTIMER
 70
     1
  9
$ANGBASE
 50
0.0
  9
$ANGDIR
 70
     0
  9
$PDMODE
 70
     0
  9
$PDSIZE
 40
0.0
  9
$PLINEWID
 40
0.0
  9
$SPLFRAME
 70
     0
  9
$SPLINETYPE
 70
     6
  9
$SPLINESEGS
 70
     8
  9
$HANDSEED
  5
1DF
  9
$SURFTAB1
 70
     6
  9
$SURFTAB2
 70
     6
  9
$SURFTYPE
 70
     6
  9
$SURFU
 70
     6
  9
$SURFV
 70
     6
  9
$UCSBASE
  2

  9
$UCSNAME
  2

  9
$UCSORG
 10
0.0
 20
0.0
 30
0.0
  9
$UCSXDIR
 10
1.0
 20
0.0
 30
0.0
  9
$UCSYDIR
 10
0.0
 20
1.0
 30
0.0
  9
$UCSORTHOREF
  2

  9
$UCSORTHOVIEW
 70
     0
  9
$UCSORGTOP
 10
0.0
 20
0.0
 30
0.0
  9
$UCSORGBOTTOM
 10
0.0
 20
0.0
 30
0.0
  9
$UCSORGLEFT
 10
0.0
 20
0.0
 30
0.0
  9
$UCSORGRIGHT
 10
0.0
 20
0.0
 30
0.0
  9
$UCSORGFRONT
 10
0.0
 20
0.0
 30
0.0
  9
$UCSORGBACK
 10
0.0
 20
0.0
 30
0.0
  9
$PUCSBASE
  2

  9
$PUCSNAME
  2

  9
$PUCSORG
 10
0.0
 20
0.0
 30
0.0
  9
$PUCSXDIR
 10
1.0
 20
0.0
 30
0.0
  9
$PUCSYDIR
 10
0.0
 20
1.0
 30
0.0
  9
$PUCSORTHOREF
  2

  9
$PUCSORTHOVIEW
 70
     0
  9
$PUCSORGTOP
 10
0.0
 20
0.0
 30
0.0
  9
$PUCSORGBOTTOM
 10
0.0
 20
0.0
 30
0.0
  9
$PUCSORGLEFT
 10
0.0
 20
0.0
 30
0.0
  9
$PUCSORGRIGHT
 10
0.0
 20
0.0
 30
0.0
  9
$PUCSORGFRONT
 10
0.0
 20
0.0
 30
0.0
  9
$PUCSORGBACK
 10
0.0
 20
0.0
 30
0.0
  9
$USERI1
 70
     0
  9
$USERI2
 70
     0
  9
$USERI3
 70
     0
  9
$USERI4
 70
     0
  9
$USERI5
 70
     0
  9
$USERR1
 40
0.0
  9
$USERR2
 40
0.0
  9
$USERR3
 40
0.0
  9
$USERR4
 40
0.0
  9
$USERR5
 40
0.0
  9
$WORLDVIEW
 70
     1
  9
$SHADEDGE
 70
     3
  9
$SHADEDIF
 70
    70
  9
$TILEMODE
 70
     1
  9
$MAXACTVP
 70
    64
  9
$PINSBASE
 10
0.0
 20
0.0
 30
0.0
  9
$PLIMCHECK
 70
     0
  9
$PEXTMIN
 10
1.000000000000000E+20
 20
1.000000000000000E+20
 30
1.000000000000000E+20
  9
$PEXTMAX
 10
-1.000000000000000E+20
 20
-1.000000000000000E+20
 30
-1.000000000000000E+20
  9
$PLIMMIN
 10
0.0
 20
0.0
  9
$PLIMMAX
 10
12.0
 20
9.0
  9
$UNITMODE
 70
     0
  9
$VISRETAIN
 70
     1
  9
$PLINEGEN
 70
     0
  9
$PSLTSCALE
 70
     1
  9
$TREEDEPTH
 70
  3020
  9
$CMLSTYLE
  2
Standard
  9
$CMLJUST
 70
     0
  9
$CMLSCALE
 40
1.0
  9
$PROXYGRAPHICS
 70
     1
  9
$MEASUREMENT
 70
     1
  9
$CELWEIGHT
370
    -1
  9
$ENDCAPS
280
     0
  9
$JOINSTYLE
280
     0
  9
$LWDISPLAY
290
     0
  9
$INSUNITS
 70
     0
  9
$HYPERLINKBASE
  1

  9
$STYLESHEET
  1

  9
$XEDIT
290
     1
  9
$CEPSNTYPE
380
     0
  9
$PSTYLEMODE
290
     1
  9
$FINGERPRINTGUID
  2
{724C1E93-002C-0F46-813C-08F30BE81008}
  9
$VERSIONGUID
  2
{94CADCEA-58CF-415D-8E57-17A699308E27}
  9
$EXTNAMES
290
     1
  9
$PSVPSCALE
 40
0.0
  9
$OLESTARTUP
290
     0
  9
$SORTENTS
280
   127
  9
$INDEXCTL
280
     0
  9
$HIDETEXT
280
     1
  9
$XCLIPFRAME
280
     0
  9
$HALOGAP
280
     0
  9
$OBSCOLOR
 70
   257
  9
$OBSLTYPE
280
     0
  9
$INTERSECTIONDISPLAY
280
     0
  9
$INTERSECTIONCOLOR
 70
   257
  9
$DIMASSOC
280
     2
  9
$PROJECTNAME
  1

  9
$CAMERADISPLAY
290
     0
  9
$LENSLENGTH
 40
50.0
  9
$CAMERAHEIGHT
 40
0.0
  9
$STEPSPERSEC
 40
2.0
  9
$STEPSIZE
 40
6.0
  9
$3DDWFPREC
 40
2.0
  9
$PSOLWIDTH
 40
0.25
  9
$PSOLHEIGHT
 40
4.0
  9
$LOFTANG1
 40
1.570796326794896
  9
$LOFTANG2
 40
1.570796326794896
  9
$LOFTMAG1
 40
0.0
  9
$LOFTMAG2
 40
0.0
  9
$LOFTPARAM
 70
     7
  9
$LOFTNORMALS
280
     1
  9
$LATITUDE
 40
37.795
  9
$LONGITUDE
 40
-122.394
  9
$NORTHDIRECTION
 40
0.0
  9
$TIMEZONE
 70
 -8000
  9
$LIGHTGLYPHDISPLAY
280
     1
  9
$TILEMODELIGHTSYNCH
280
     1
  9
$CMATERIAL
347
3A
  9
$SOLIDHIST
280
     0
  9
$SHOWHIST
280
     1
  9
$DWFFRAME
280
     2
  9
$DGNFRAME
280
     0
  9
$REALWORLDSCALE
290
     1
  9
$INTERFERECOLOR
 62
     1
  9
$INTERFEREOBJVS
345
53
  9
$INTERFEREVPVS
346
54
  9
$CSHADOW
280
     0
  9
$SHADOWPLANELOCATION
 40
0.0
  0
ENDSEC
  0
SECTION
  2
CLASSES
  0
CLASS
  1
ACDBDICTIONARYWDFLT
  2
AcDbDictionaryWithDefault
  3
ObjectDBX Classes
 90
        0
 91
        1
280
     0
281
     0
  0
CLASS
  1
ACME_DOCUMENT
  2
AcMeDbDoc
  3
AcMeServices
 90
     1024
 91
        0
280
     1
281
     0
  0
CLASS
  1
AMGSETTINGSOBJ
  2
AmgSettingsObj
  3
"AcadM|Product Description: AutoCAD Mechanical|Company: Autodesk, Inc."
 90
     1024
 91
        0
280
     1
281
     0
  0
CLASS
  1
ACMESCOPE
  2
AcMeScope
  3
AcMeServices
 90
     1024
 91
        0
280
     1
281
     0
  0
CLASS
  1
ACMECOMMANDHISTORY
  2
AcMeCommandHistory
  3
AcMeServices
 90
     1024
 91
        0
280
     1
281
     0
  0
CLASS
  1
ACIMSYSVARMAN
  2
AcImSysVarManager
  3
AcMeServices
 90
     1024
 91
        0
280
     1
281
     0
  0
CLASS
  1
ACIMREALSYSVAR
  2
AcImRealSysVar
  3
AcMeServices
 90
     1024
 91
        0
280
     1
281
     0
  0
CLASS
  1
ACIMINTSYSVAR
  2
AcImIntSysVar
  3
AcMeServices
 90
     1024
 91
        0
280
     1
281
     0
  0
CLASS
  1
ACMEDRAWINGMAN
  2
AcMeDrawingMan
  3
AcMeServices
 90
     1024
 91
        0
280
     1
281
     0
  0
CLASS
  1
ACMEVIEW
  2
AcMeView
  3
AcMeServices
 90
     1024
 91
        0
280
     1
281
     0
  0
CLASS
  1
ACDBENTITYCACHE
  2
AcMeEntityCache
  3
AcMeServices
 90
     1024
 91
        0
280
     1
281
     0
  0
CLASS
  1
GSMANAGER
  2
AcMeGSManager
  3
AcMeServices
 90
     1024
 91
        0
280
     1
281
     0
  0
CLASS
  1
AMDTINTERNALREACTOR
  2
AmdtInternalReactor
  3
AcMeServices
 90
     1024
 91
        0
280
     1
281
     0
  0
CLASS
  1
ACMESTATEMGR
  2
AcMeStateMgr
  3
AcMeServices
 90
     1024
 91
        0
280
     1
281
     0
  0
CLASS
  1
ACGREFMASTER
  2
AcGrefMaster
  3
AcAttribServices
 90
     1024
 91
        0
280
     1
281
     0
  0
CLASS
  1
ACME_DATABASE
  2
AcMeDbDatabase
  3
AcMeServices
 90
     1024
 91
        0
280
     1
281
     0
  0
CLASS
  1
ACRFINSADJUSTERMGR
  2
AcRfInsAdjusterMgr
  3
AcMeServices
 90
     1024
 91
        0
280
     1
281
     0
  0
CLASS
  1
ACGREFACADMASTER
  2
AcGrefacadMaster
  3
AcGrefServices
 90
     1024
 91
        0
280
     1
281
     0
  0
CLASS
  1
AMIMASTER
  2
AmiMaster
  3
AmiServices
 90
     1024
 91
        0
280
     1
281
     0
  0
CLASS
  1
ACMDATADICTIONARY
  2
AcmDataDictionary
  3
"AcmSymBB|Product Description: AutoCAD Mechanical|Company: Autodesk, Inc."
 90
     1024
 91
        0
280
     1
281
     0
  0
CLASS
  1
ACMDATAENTRYBLOCK
  2
AcmDataEntryBlock
  3
AcmSymBB|Product Description: AutoCAD Mechanical|Company: Autodesk, Inc.
 90
     1024
 91
        0
280
     1
281
     0
  0
CLASS
  1
ACIMSTRSYSVAR
  2
AcImStrSysVar
  3
AcMeServices
 90
     1024
 91
        0
280
     1
281
     0
  0
CLASS
  1
ACMSTANDARDANSI
  2
AcmStandardANSI
  3
"Amdt_StdImp|Product Description: AutoCAD Mechanical|Company: Autodesk, Inc."
 90
     1024
 91
        0
280
     1
281
     0
  0
CLASS
  1
AMGOBJPROPCFG
  2
AmgObjPropCfg
  3
"AmgLay|Product Description: AutoCAD Mechanical|Company: Autodesk, Inc."
 90
     1025
 91
        0
280
     1
281
     0
  0
CLASS
  1
ACMSURFSTANDARDANSI
  2
AcmSurfTextStdANSI
  3
"Amdt_StdImp|Product Description: AutoCAD Mechanical|Company: Autodesk, Inc."
 90
     1024
 91
        0
280
     1
281
     0
  0
CLASS
  1
ACMFCFSTANDARDANSI
  2
AcmFCFStdANSI
  3
"Amdt_StdImp|Product Description: AutoCAD Mechanical|Company: Autodesk, Inc."
 90
     1024
 91
        0
280
     1
281
     0
  0
CLASS
  1
ACMWELDSTANDARDANSI
  2
AcmWeldingStdANSI
  3
"Amdt_StdImp|Product Description: AutoCAD Mechanical|Company: Autodesk, Inc."
 90
     1024
 91
        0
280
     1
281
     0
  0
CLASS
  1
ACMIDSTANDARDANSI
  2
AcmIdStdANSI
  3
"Amdt_StdImp|Product Description: AutoCAD Mechanical|Company: Autodesk, Inc."
 90
     1024
 91
        0
280
     1
281
     0
  0
CLASS
  1
ACMDATUMSTANDARDANSI
  2
AcmDatumStdANSI
  3
"Amdt_StdImp|Product Description: AutoCAD Mechanical|Company: Autodesk, Inc."
 90
     1024
 91
        0
280
     1
281
     0
  0
CLASS
  1
ACMBOMSTANDARDANSI
  2
AcmBOMStdANSI
  3
"Amdt_StdImp|Product Description: AutoCAD Mechanical|Company: Autodesk, Inc."
 90
     1024
 91
        0
280
     1
281
     0
  0
CLASS
  1
ACMDETAILSTANDARDANSI
  2
AmdtDetailSymStdANSI
  3
"Amdt_StdImp|Product Description: AutoCAD Mechanical|Company: Autodesk, Inc."
 90
     1024
 91
        0
280
     1
281
     0
  0
CLASS
  1
ACMSECTIONSTANDARDANSI
  2
AmdtSectionSymStdANSI
  3
"Amdt_StdImp|Product Description: AutoCAD Mechanical|Company: Autodesk, Inc."
 90
     1024
 91
        0
280
     1
281
     0
  0
CLASS
  1
ACMCENTERLINESTANDARDANSI
  2
AmdtCenterLineStdANSI
  3
"Amdt_StdImp|Product Description: AutoCAD Mechanical|Company: Autodesk, Inc."
 90
     1024
 91
        0
280
     1
281
     0
  0
CLASS
  1
ACMNOTESTANDARDANSI
  2
AmdtNoteStdANSI
  3
"Amdt_StdImp|Product Description: AutoCAD Mechanical|Company: Autodesk, Inc."
 90
     1024
 91
        0
280
     1
281
     0
  0
CLASS
  1
ACAMGLAYSTD
  2
AcAmgLayStd
  3
"AmgLay|Product Description: AutoCAD Mechanical|Company: Autodesk, Inc."
 90
     1024
 91
        0
280
     1
281
     0
  0
CLASS
  1
ACAMGDIMSTD
  2
AcAmgDimStd
  3
"AmgDim|Product Description: AutoCAD Mechanical|Company: Autodesk, Inc."
 90
     1024
 91
        0
280
     1
281
     0
  0
CLASS
  1
ACAMGHOLECHARTSTDANSI
  2
AcAmgHoleChartStdANSI
  3
AmgDim|Product Description: AutoCAD Mechanical|Company: Autodesk, Inc.
 90
     1024
 91
        0
280
     1
281
     0
  0
CLASS
  1
ACAMGTITLESTD
  2
AcAmgTitleStd
  3
"AmgTitle|Product Description: AutoCAD Mechanical|Company: Autodesk, Inc."
 90
     4095
 91
        0
280
     1
281
     0
  0
CLASS
  1
LAYER_INDEX
  2
AcDbLayerIndex
  3
ObjectDBX Classes
 90
        0
 91
        0
280
     0
281
     0
  0
CLASS
  1
IDBUFFER
  2
AcDbIdBuffer
  3
ObjectDBX Classes
 90
        0
 91
        0
280
     0
281
     0
  0
CLASS
  1
DICTIONARYVAR
  2
AcDbDictionaryVar
  3
ObjectDBX Classes
 90
        0
 91
       15
280
     0
281
     0
  0
CLASS
  1
AM_DRAWING_MGR
  2
AcDmDwgMgr
  3
AcMechDwgViewMgmt
 90
     1024
 91
        0
280
     1
281
     0
  0
CLASS
  1
AM_DWG_DOCUMENT
  2
AcDmDwgDocument
  3
AcMechDwgViewMgmt
 90
     1024
 91
        0
280
     1
281
     0
  0
CLASS
  1
AM_DWG_SHEET
  2
AcDmSheet
  3
AcMechDwgViewMgmt
 90
     1024
 91
        0
280
     1
281
     0
  0
CLASS
  1
AM_VIEWDIMPARMAP
  2
AcDmViewDimParMap
  3
AcMechDwgViewMgmt
 90
     1024
 91
        0
280
     1
281
     0
  0
CLASS
  1
AM_DWGMGR_NAME
  2
AcDmDwgMgrName
  3
AcMechDwgViewMgmt
 90
     1024
 91
        0
280
     1
281
     0
  0
CLASS
  1
AMDTMENUSTATEMGR
  2
AmdtMenuStateMgr
  3
McadcomServices
 90
     1024
 91
        0
280
     1
281
     0
  0
CLASS
  1
AMDTMCOMMENUSTATE
  2
AmdtMcomMenuState
  3
McadcomServices
 90
     1024
 91
        0
280
     1
281
     0
  0
CLASS
  1
MAPIAMMOUDLE
  2
MApiAmModule
  3
MApiAmServices
 90
     1024
 91
        0
280
     1
281
     0
  0
CLASS
  1
AMDTADMENUSTATE
  2
AmdtAdMenuState
  3
DesignerServices
 90
     1024
 91
        0
280
     1
281
     0
  0
CLASS
  1
ADAPPL
  2
AcAdAppl
  3
DesignerAssemblies
 90
     1024
 91
        0
280
     1
281
     0
  0
CLASS
  1
DEPMGR
  2
AcAdDepMgr
  3
DesignerAssemblies
 90
     1024
 91
        0
280
     1
281
     0
  0
CLASS
  1
PARAMMGR
  2
AcAdParamMgr
  3
DesignerAssemblies
 90
     1024
 91
        0
280
     1
281
     0
  0
CLASS
  1
PARAMSCOPE
  2
AcAdParamScope
  3
DesignerAssemblies
 90
     1024
 91
        0
280
     1
281
     0
  0
CLASS
  1
NAMEDAPPL
  2
AcAdNamedAppl
  3
DesignerAssemblies
 90
     1024
 91
        0
280
     1
281
     0
  0
CLASS
  1
AMDTDMMENUSTATE
  2
AmdtDmMenuState
  3
AcMechDwgViewMgmt
 90
     1024
 91
        0
280
     1
281
     0
  0
CLASS
  1
AMDTAMMENUSTATE
  2
AmdtAmMenuState
  3
DesignerAssemblies
 90
     1024
 91
        0
280
     1
281
     0
  0
CLASS
  1
ACAMPROJECT
  2
AcAmProject
  3
DesignerAssemblies
 90
     1024
 91
        0
280
     1
281
     0
  0
CLASS
  1
ACAMGRCOMPDEF
  2
AcAmGrCompDef
  3
DesignerAssemblies
 90
     1024
 91
        0
280
     1
281
     0
  0
CLASS
  1
ACCMCONTEXT
  2
AcCmContext
  3
DesignerAssemblies
 90
     1024
 91
        0
280
     1
281
     0
  0
CLASS
  1
ACAMCOMPDEF
  2
AcAmCompDef
  3
DesignerAssemblies
 90
     1024
 91
        0
280
     1
281
     0
  0
CLASS
  1
ACAMCOMPDEFMGR
  2
AcAmCompDefMgr
  3
DesignerAssemblies
 90
     1024
 91
        0
280
     1
281
     0
  0
CLASS
  1
AMCONTEXTMGR
  2
AcAmContextMgr
  3
DesignerAssemblies
 90
     1024
 91
        0
280
     1
281
     0
  0
CLASS
  1
ACAMCONTEXTMODELER
  2
AcAmContextModeler
  3
DesignerAssemblies
 90
     1024
 91
        0
280
     1
281
     0
  0
CLASS
  1
ACMTHREADLINESTANDARDANSI
  2
AmdtThreadLineStdANSI
  3
"Amdt_StdImp|Product Description: AutoCAD Mechanical|Company: Autodesk, Inc."
 90
     1024
 91
        0
280
     1
281
     0
  0
CLASS
  1
CATALOGSTATE
  2
AcAmCatalogState
  3
DesignerAssemblies
 90
     1024
 91
        0
280
     1
281
     0
  0
CLASS
  1
ACAMGRCOMPDEFSET
  2
AcAmGrCompDefSet
  3
DesignerAssemblies
 90
     1024
 91
        0
280
     1
281
     0
  0
CLASS
  1
AMDTBROWSERDBTAB
  2
AmdtBrowserDbTab
  3
McadcomServices
 90
     1024
 91
        0
280
     1
281
     0
  0
CLASS
  1
CBROWSERAPPOBJECT
  2
CBrowserAppObject
  3
McadcomServices
 90
     1024
 91
        0
280
     1
281
     0
  0
CLASS
  1
DM_PLACEHOLDER
  2
AcDmSelsetPlaceholder
  3
AcMechDwgViewMgmt
 90
     1024
 91
        0
280
     1
281
     0
  0
CLASS
  1
TABLESTYLE
  2
AcDbTableStyle
  3
ObjectDBX Classes
 90
     4095
 91
        1
280
     0
281
     0
  0
CLASS
  1
AMDTNOTETEMPLATEDB
  2
AmdtNoteTemplateDB
  3
AcmSymBB|Product Description: AutoCAD Mechanical|Company: Autodesk, Inc.
 90
     1024
 91
        0
280
     1
281
     0
  0
CLASS
  1
MATERIAL
  2
AcDbMaterial
  3
ObjectDBX Classes
 90
     1153
 91
        3
280
     0
281
     0
  0
CLASS
  1
VISUALSTYLE
  2
AcDbVisualStyle
  3
ObjectDBX Classes
 90
     4095
 91
        4
280
     0
281
     0
  0
CLASS
  1
ACRFATTGENMGR
  2
AcRfAttGeneralMgr
  3
AcAttribServices
 90
     1024
 91
        0
280
     1
281
     0
  0
CLASS
  1
ACRFOBJATTMGR
  2
AcRfObjAttGroupMgr
  3
AcAttribServices
 90
     1024
 91
        0
280
     1
281
     0
  0
CLASS
  1
ACRFMCADAPIATTHOLDER
  2
AcRfMCADAPIAttHolder
  3
AcAttribServices
 90
     1024
 91
        0
280
     1
281
     0
  0
CLASS
  1
AMDTSYSATTR
  2
AmdtSystemAttribute
  3
AcAttribServices
 90
     1024
 91
        0
280
     1
281
     0
  0
CLASS
  1
ACMTAPERSTANDARDANSI
  2
AcmTaperStdANSI
  3
"Amdt_StdImp|Product Description: AutoCAD Mechanical|Company: Autodesk, Inc."
 90
     1024
 91
        0
280
     1
281
     0
  0
CLASS
  1
CAMSSTRUCTBTNSTATE
  2
StructBtnState
  3
DesignerAssemblies
 90
     1024
 91
        0
280
     1
281
     0
  0
CLASS
  1
SCALE
  2
AcDbScale
  3
ObjectDBX Classes
 90
     1153
 91
       33
280
     0
281
     0
  0
CLASS
  1
MLEADERSTYLE
  2
AcDbMLeaderStyle
  3
ACDB_MLEADERSTYLE_CLASS
 90
     4095
 91
        0
280
     0
281
     0
  0
CLASS
  1
ACMANOOTATIONVIEWSTANDARDANSI
  2
AmdtAnViewStdANSI
  3
"Amdt_StdImp|Product Description: AutoCAD Mechanical|Company: Autodesk, Inc."
 90
     1024
 91
        0
280
     1
281
     0
  0
CLASS
  1
CELLSTYLEMAP
  2
AcDbCellStyleMap
  3
ObjectDBX Classes
 90
     1152
 91
        1
280
     0
281
     0
  0
CLASS
  1
EXACXREFPANELOBJECT
  2
ExAcXREFPanelObject
  3
EXAC_ESW
 90
     1025
 91
        0
280
     1
281
     0
  0
CLASS
  1
NPOCOLLECTION
  2
AcDbImpNonPersistentObjectsCollection
  3
ObjectDBX Classes
 90
     1153
 91
        0
280
     0
281
     0
  0
CLASS
  1
ACAMGFILTERDAT
  2
AcAmgFilterDat
  3
"AcadM|Product Description: AutoCAD Mechanical|Company: Autodesk, Inc."
 90
     1024
 91
        0
280
     1
281
     0
  0
CLASS
  1
SORTENTSTABLE
  2
AcDbSortentsTable
  3
ObjectDBX Classes
 90
        0
 91
        2
280
     0
281
     0
  0
CLASS
  1
DIMASSOC
  2
AcDbDimAssoc
  3
"AcDbDimAssoc|Product Desc:     AcDim ARX App For Dimension|Company:          Autodesk, Inc.|WEB Address:      www.autodesk.com"
 90
        0
 91
       16
280
     0
281
     0
  0
CLASS
  1
ACAD_EVALUATION_GRAPH
  2
AcDbEvalGraph
  3
ObjectDBX Classes
 90
     1153
 91
        0
280
     0
281
     0
  0
CLASS
  1
ACAECUSTOBJ
  2
AcAeEditorObj
  3
AcAeEditorObj
 90
     1024
 91
        0
280
     1
281
     0
  0
CLASS
  1
ACDB_DYNAMICBLOCKPURGEPREVENTER_VERSION
  2
AcDbDynamicBlockPurgePreventer
  3
ObjectDBX Classes
 90
     1153
 91
        0
280
     0
281
     0
  0
CLASS
  1
BLOCKPOINTPARAMETER
  2
AcDbBlockPointParameter
  3
ObjectDBX Classes
 90
     1153
 91
        0
280
     0
281
     0
  0
CLASS
  1
BLOCKXYGRIP
  2
AcDbBlockXYGrip
  3
ObjectDBX Classes
 90
     1153
 91
        0
280
     0
281
     0
  0
CLASS
  1
BLOCKGRIPLOCATIONCOMPONENT
  2
AcDbBlockGripExpr
  3
ObjectDBX Classes
 90
     1153
 91
        0
280
     0
281
     0
  0
CLASS
  1
XYGRIPENTITY
  2
AcDbBlockXYGripEntity
  3
ObjectDBX Classes
 90
     1025
 91
        0
280
     0
281
     1
  0
CLASS
  1
ACAEEEMGROBJ
  2
AcAeEEMgrObj
  3
AcAeEEMgrObj
 90
     1024
 91
        0
280
     0
281
     0
  0
CLASS
  1
POINTPARAMETERENTITY
  2
AcDbBlockPointParameterEntity
  3
ObjectDBX Classes
 90
     1025
 91
        0
280
     0
281
     1
  0
CLASS
  1
BLOCKLINEARPARAMETER
  2
AcDbBlockLinearParameter
  3
ObjectDBX Classes
 90
     1153
 91
        0
280
     0
281
     0
  0
CLASS
  1
BLOCKBASEPOINTPARAMETER
  2
AcDbBlockBasepointParameter
  3
ObjectDBX Classes
 90
     1153
 91
        0
280
     0
281
     0
  0
CLASS
  1
BASEPOINTPARAMETERENTITY
  2
AcDbBlockBasepointParameterEntity
  3
ObjectDBX Classes
 90
     1025
 91
        0
280
     0
281
     1
  0
CLASS
  1
BLOCKLOOKUPPARAMETER
  2
AcDbBlockLookupParameter
  3
ObjectDBX Classes
 90
     1153
 91
        0
280
     0
281
     0
  0
CLASS
  1
BLOCKLOOKUPGRIP
  2
AcDbBlockLookupGrip
  3
ObjectDBX Classes
 90
     1153
 91
        0
280
     0
281
     0
  0
CLASS
  1
LOOKUPGRIPENTITY
  2
AcDbBlockLookupGripEntity
  3
ObjectDBX Classes
 90
     1025
 91
        0
280
     0
281
     1
  0
CLASS
  1
LOOKUPPARAMETERENTITY
  2
AcDbBlockLookupParameterEntity
  3
ObjectDBX Classes
 90
     1025
 91
        0
280
     0
281
     1
  0
CLASS
  1
BLOCKALIGNMENTPARAMETER
  2
AcDbBlockAlignmentParameter
  3
ObjectDBX Classes
 90
     1153
 91
        0
280
     0
281
     0
  0
CLASS
  1
BLOCKALIGNMENTGRIP
  2
AcDbBlockAlignmentGrip
  3
ObjectDBX Classes
 90
     1153
 91
        0
280
     0
281
     0
  0
CLASS
  1
ALIGNMENTGRIPENTITY
  2
AcDbBlockAlignmentGripEntity
  3
ObjectDBX Classes
 90
     1025
 91
        0
280
     0
281
     1
  0
CLASS
  1
ALIGNMENTPARAMETERENTITY
  2
AcDbBlockAlignmentParameterEntity
  3
ObjectDBX Classes
 90
     1025
 91
        0
280
     0
281
     1
  0
CLASS
  1
MULTILEADER
  2
AcDbMLeader
  3
ACDB_MLEADER_CLASS
 90
     1025
 91
        0
280
     0
281
     1
  0
CLASS
  1
ACDBASSOCNETWORK
  2
AcDbAssocNetwork
  3
ObjectDBX Classes
 90
     1025
 91
        0
280
     0
281
     0
  0
CLASS
  1
ACDBASSOC2DCONSTRAINTGROUP
  2
AcDbAssoc2dConstraintGroup
  3
ObjectDBX Classes
 90
     1025
 91
        0
280
     0
281
     0
  0
CLASS
  1
ACDBASSOCGEOMDEPENDENCY
  2
AcDbAssocGeomDependency
  3
ObjectDBX Classes
 90
     1025
 91
        0
280
     0
281
     0
  0
CLASS
  1
ACDBCIRCARCRES
  2
AcDbCircArcRes
  3
AcGrefServices
 90
     1024
 91
        0
280
     1
281
     0
  0
CLASS
  1
ACMSTANDARDISO
  2
AcmStandardISO
  3
"Amdt_StdImp|Product Description: AutoCAD Mechanical|Company: Autodesk, Inc."
 90
     1024
 91
        0
280
     1
281
     0
  0
CLASS
  1
AMDTEDGESTANDARDISO13715
  2
AmdtEdgeStdISO13715
  3
"Amdt_StdImp|Product Description: AutoCAD Mechanical|Company: Autodesk, Inc."
 90
     1024
 91
        0
280
     1
281
     0
  0
CLASS
  1
ACMSURFSTANDARDISO2002
  2
AcmSurfTextStdISO2002
  3
"Amdt_StdImp|Product Description: AutoCAD Mechanical|Company: Autodesk, Inc."
 90
     1024
 91
        0
280
     1
281
     0
  0
CLASS
  1
ACMFCFSTANDARDISO
  2
AcmFCFStdISO
  3
"Amdt_StdImp|Product Description: AutoCAD Mechanical|Company: Autodesk, Inc."
 90
     1024
 91
        0
280
     1
281
     0
  0
CLASS
  1
ACMWELDSTANDARDISO
  2
AcmWeldingStdISO
  3
"Amdt_StdImp|Product Description: AutoCAD Mechanical|Company: Autodesk, Inc."
 90
     1024
 91
        0
280
     1
281
     0
  0
CLASS
  1
ACMIDSTANDARDISO
  2
AcmIdStdISO
  3
"Amdt_StdImp|Product Description: AutoCAD Mechanical|Company: Autodesk, Inc."
 90
     1024
 91
        0
280
     1
281
     0
  0
CLASS
  1
ACMDATUMSTANDARDISO
  2
AcmDatumStdISO
  3
"Amdt_StdImp|Product Description: AutoCAD Mechanical|Company: Autodesk, Inc."
 90
     1024
 91
        0
280
     1
281
     0
  0
CLASS
  1
ACMBOMSTANDARDISO
  2
AcmBOMStdISO
  3
"Amdt_StdImp|Product Description: AutoCAD Mechanical|Company: Autodesk, Inc."
 90
     1024
 91
        0
280
     1
281
     0
  0
CLASS
  1
ACMDETAILSTANDARDISO
  2
AmdtDetailSymStdISO
  3
"Amdt_StdImp|Product Description: AutoCAD Mechanical|Company: Autodesk, Inc."
 90
     1024
 91
        0
280
     1
281
     0
  0
CLASS
  1
ACMSECTIONSTANDARDISO2001
  2
AmdtSectionSymStdISO2001
  3
"Amdt_StdImp|Product Description: AutoCAD Mechanical|Company: Autodesk, Inc."
 90
     1024
 91
        0
280
     1
281
     0
  0
CLASS
  1
ACMCENTERLINESTANDARDISO
  2
AmdtCenterLineStdISO
  3
"Amdt_StdImp|Product Description: AutoCAD Mechanical|Company: Autodesk, Inc."
 90
     1024
 91
        0
280
     1
281
     0
  0
CLASS
  1
ACMTHREADLINESTANDARDISO
  2
AmdtThreadLineStdISO
  3
"Amdt_StdImp|Product Description: AutoCAD Mechanical|Company: Autodesk, Inc."
 90
     1024
 91
        0
280
     1
281
     0
  0
CLASS
  1
ACMNOTESTANDARDISO
  2
AmdtNoteStdISO
  3
"Amdt_StdImp|Product Description: AutoCAD Mechanical|Company: Autodesk, Inc."
 90
     1024
 91
        0
280
     1
281
     0
  0
CLASS
  1
ACMTAPERSTANDARDISO
  2
AcmTaperStdISO
  3
"Amdt_StdImp|Product Description: AutoCAD Mechanical|Company: Autodesk, Inc."
 90
     1024
 91
        0
280
     1
281
     0
  0
CLASS
  1
ACMANOOTATIONVIEWSTANDARDISO
  2
AmdtAnViewStdISO
  3
"Amdt_StdImp|Product Description: AutoCAD Mechanical|Company: Autodesk, Inc."
 90
     1024
 91
        0
280
     1
281
     0
  0
CLASS
  1
ACAMGHOLECHARTSTDISO
  2
AcAmgHoleChartStdISO
  3
AmgDim|Product Description: AutoCAD Mechanical|Company: Autodesk, Inc.
 90
     1024
 91
        0
280
     1
281
     0
  0
CLASS
  1
AEC_REFEDIT_STATUS_TRACKER
  2
AecDbRefEditStatusTracker
  3
AecArchBase80|Product Desc: Autodesk Architectural Desktop 2007 |Company: Autodesk,Inc. |WEB Address: www.autodesk.com
 90
      129
 91
        0
280
     0
281
     0
  0
CLASS
  1
ACDBSECTIONVIEWSTYLE
  2
AcDbSectionViewStyle
  3
ObjectDBX Classes
 90
     1025
 91
        0
280
     0
281
     0
  0
CLASS
  1
ACDBDETAILVIEWSTYLE
  2
AcDbDetailViewStyle
  3
ObjectDBX Classes
 90
     1025
 91
        0
280
     0
281
     0
  0
CLASS
  1
SOLID_BACKGROUND
  2
AcDbSolidBackground
  3
SCENEOE
 90
     4095
 91
        0
280
     0
281
     0
  0
ENDSEC
  0
SECTION
  2
TABLES
  0
TABLE
  2
VPORT
  5
24
102
{ACAD_XDICTIONARY
360
29
102
}
330
0
100
AcDbSymbolTable
 70
     1
  0
VPORT
  5
25
330
24
100
AcDbSymbolTableRecord
100
AcDbViewportTableRecord
  2
*Active
 70
     0
 10
0.0
 20
0.0
 11
1.0
 21
1.0
 12
1159.797031312351
 22
-832.1562840848532
 13
0.0
 23
0.0
 14
2.5
 24
2.5
 15
10.0
 25
10.0
 16
0.0
 26
0.0
 36
1.0
 17
0.0
 27
0.0
 37
0.0
 40
330.9697900449874
 41
2.311515151515151
 42
50.0
 43
0.0
 44
0.0
 50
0.0
 51
0.0
 71
     0
 72
   100
 73
     1
 74
     3
 75
     0
 76
     0
 77
     0
 78
     1
281
     0
 65
     1
110
0.0
120
0.0
130
0.0
111
1.0
121
0.0
131
0.0
112
0.0
122
1.0
132
0.0
 79
     0
146
0.0
348
26
 60
     3
 61
     5
292
     1
282
     0
141
0.0
142
0.0
 63
   250
421
  3355443
1001
ACAD_NAV_VCDISPLAY
1070
     3
  0
ENDTAB
  0
TABLE
  2
LTYPE
  5
1F
330
0
100
AcDbSymbolTable
 70
     2
  0
LTYPE
  5
20
330
1F
100
AcDbSymbolTableRecord
100
AcDbLinetypeTableRecord
  2
ByBlock
 70
     0
  3

 72
    65
 73
     0
 40
0.0
  0
LTYPE
  5
21
330
1F
100
AcDbSymbolTableRecord
100
AcDbLinetypeTableRecord
  2
ByLayer
 70
     0
  3

 72
    65
 73
     0
 40
0.0
  0
LTYPE
  5
E
330
1F
100
AcDbSymbolTableRecord
100
AcDbLinetypeTableRecord
  2
Continuous
 70
     0
  3
Solid line
 72
    65
 73
     0
 40
0.0
  0
LTYPE
  5
103
330
1F
100
AcDbSymbolTableRecord
100
AcDbLinetypeTableRecord
  2
CENTER
 70
     0
  3
Center ____ _ ____ _ ____ _ ____ _ ____ _ ____
 72
    65
 73
     4
 40
2.0
 49
1.25
 74
     0
 49
-0.25
 74
     0
 49
0.25
 74
     0
 49
-0.25
 74
     0
  0
ENDTAB
  0
TABLE
  2
LAYER
  5
19
102
{ACAD_XDICTIONARY
360
1A
102
}
330
0
100
AcDbSymbolTable
 70
     5
  0
LAYER
  5
6
102
{ACAD_XDICTIONARY
360
7
102
}
330
19
100
AcDbSymbolTableRecord
100
AcDbLayerTableRecord
  2
0
 70
     0
 62
     7
  6
Continuous
370
    -3
390
9
347
C
348
0
  0
LAYER
  5
80
102
{ACAD_XDICTIONARY
360
81
102
}
330
19
100
AcDbSymbolTableRecord
100
AcDbLayerTableRecord
  2
B
 70
     0
 62
     5
  6
Continuous
370
    -3
390
9
347
C
348
0
1001
AcAecLayerStandard
1000

1000

1001
ACCMTRANSPARENCY
1071
        0
  0
LAYER
  5
B5
330
19
100
AcDbSymbolTableRecord
100
AcDbLayerTableRecord
  2
Defpoints
 70
     0
 62
     7
  6
Continuous
290
     0
370
    -3
390
9
347
C
348
0
  0
LAYER
  5
100
102
{ACAD_XDICTIONARY
360
101
102
}
330
19
100
AcDbSymbolTableRecord
100
AcDbLayerTableRecord
  2
C
 70
     0
 62
     1
  6
CENTER
370
    -3
390
9
347
C
348
0
1001
AcAecLayerStandard
1000

1000

1001
ACCMTRANSPARENCY
1071
        0
  0
LAYER
  5
77
102
{ACAD_XDICTIONARY
360
78
102
}
330
19
100
AcDbSymbolTableRecord
100
AcDbLayerTableRecord
  2
DIM
 70
     0
 62
     7
  6
Continuous
370
    -3
390
9
347
C
348
0
  0
ENDTAB
  0
TABLE
  2
STYLE
  5
1C
330
0
100
AcDbSymbolTable
 70
     1
  0
STYLE
  5
1D
330
1C
100
AcDbSymbolTableRecord
100
AcDbTextStyleTableRecord
  2
STANDARD
 70
     0
 40
0.0
 41
1.0
 50
0.0
 71
     0
 42
3.0
  3
ROMANS.SHX
  4

  0
ENDTAB
  0
TABLE
  2
VIEW
  5
22
330
0
100
AcDbSymbolTable
 70
     0
  0
ENDTAB
  0
TABLE
  2
UCS
  5
23
330
0
100
AcDbSymbolTable
 70
     0
  0
ENDTAB
  0
TABLE
  2
APPID
  5
2A
330
0
100
AcDbSymbolTable
 70
    10
  0
APPID
  5
2B
330
2A
100
AcDbSymbolTableRecord
100
AcDbRegAppTableRecord
  2
ACAD
 70
     0
  0
APPID
  5
31
330
2A
100
AcDbSymbolTableRecord
100
AcDbRegAppTableRecord
  2
ACAD_DSTYLE_DIMJOGGED_JOGANGLE_SYMBOL
 70
     0
  0
APPID
  5
2F
330
2A
100
AcDbSymbolTableRecord
100
AcDbRegAppTableRecord
  2
ACAD_DSTYLE_DIMJAG
 70
     0
  0
APPID
  5
2E
330
2A
100
AcDbSymbolTableRecord
100
AcDbRegAppTableRecord
  2
ACAD_DSTYLE_DIMBREAK
 70
     0
  0
APPID
  5
14
330
2A
100
AcDbSymbolTableRecord
100
AcDbRegAppTableRecord
  2
ACAD_PSEXT
 70
     0
  0
APPID
  5
83
330
2A
100
AcDbSymbolTableRecord
100
AcDbRegAppTableRecord
  2
AcAecLayerStandard
 70
     0
  0
APPID
  5
84
330
2A
100
AcDbSymbolTableRecord
100
AcDbRegAppTableRecord
  2
ACCMTRANSPARENCY
 70
     0
  0
APPID
  5
30
330
2A
100
AcDbSymbolTableRecord
100
AcDbRegAppTableRecord
  2
ACAD_DSTYLE_DIMTALN
 70
     0
  0
APPID
  5
28
330
2A
100
AcDbSymbolTableRecord
100
AcDbRegAppTableRecord
  2
ACAD_NAV_VCDISPLAY
 70
     0
  0
APPID
  5
B9
330
2A
100
AcDbSymbolTableRecord
100
AcDbRegAppTableRecord
  2
ACAD_DSTYLE_DIMINSPECT
 70
     0
  0
ENDTAB
  0
TABLE
  2
DIMSTYLE
  5
2C
330
0
100
AcDbSymbolTable
 70
     5
100
AcDbDimStyleTable
 71
     5
340
2D
340
32
340
33
340
34
340
35
  0
DIMSTYLE
105
35
330
2C
100
AcDbSymbolTableRecord
100
AcDbDimStyleTableRecord
  2
DIM 10
 70
     0
 41
3.0
 42
0.3125
 43
2.5
 44
0.625
 50
89.99999999999998
 73
     0
 74
     0
 78
     1
 79
     2
140
3.0
141
1.25
143
0.03937007874016
144
0.1
147
0.4
171
     3
172
     1
176
   256
177
   256
271
     3
272
     3
274
     3
283
     0
284
     8
340
1D
1001
ACAD_DSTYLE_DIMBREAK
1070
   391
1040
0.125
1001
ACAD_DSTYLE_DIMJAG
1070
   388
1040
1.5
1001
ACAD_DSTYLE_DIMTALN
1070
   392
1070
     0
1001
ACAD_DSTYLE_DIMJOGGED_JOGANGLE_SYMBOL
1070
   384
1040
1.570796326794896
  0
DIMSTYLE
105
33
330
2C
100
AcDbSymbolTableRecord
100
AcDbDimStyleTableRecord
  2
DIM 1
 70
     0
 41
1.5
 42
1.5
 43
1.5
 44
1.5
 50
89.99999999999998
 78
     1
 79
     2
140
1.5
141
1.5
143
0.03937007874016
147
1.5
171
     3
172
     1
176
   256
177
   256
178
   256
274
     3
283
     0
284
     8
340
1D
1001
ACAD_DSTYLE_DIMBREAK
1070
   391
1040
1.5
1001
ACAD_DSTYLE_DIMJAG
1070
   388
1040
1.5
1001
ACAD_DSTYLE_DIMTALN
1070
   392
1070
     0
1001
ACAD_DSTYLE_DIMJOGGED_JOGANGLE_SYMBOL
1070
   384
1040
1.570796326794896
  0
DIMSTYLE
105
34
330
2C
100
AcDbSymbolTableRecord
100
AcDbDimStyleTableRecord
  2
DIM1
 70
     0
 41
3.0
 42
0.3125
 43
2.5
 44
0.625
 50
89.99999999999998
 73
     0
 74
     0
 78
     1
 79
     2
140
3.0
141
1.25
143
0.03937007874016
147
0.4
171
     3
172
     1
176
   256
177
   256
178
   256
271
     3
272
     3
274
     3
283
     0
284
     8
340
1D
1001
ACAD_DSTYLE_DIMBREAK
1070
   391
1040
0.125
1001
ACAD_DSTYLE_DIMJAG
1070
   388
1040
1.5
1001
ACAD_DSTYLE_DIMTALN
1070
   392
1070
     0
1001
ACAD_DSTYLE_DIMJOGGED_JOGANGLE_SYMBOL
1070
   384
1040
1.570796326794896
  0
DIMSTYLE
105
32
330
2C
100
AcDbSymbolTableRecord
100
AcDbDimStyleTableRecord
  2
DIM 1.6
 70
     0
 41
1.5
 42
1.5
 43
1.5
 44
1.5
 50
89.99999999999998
 73
     0
 74
     0
 78
     1
 79
     2
140
1.5
141
1.5
143
0.03937007874016
144
0.625
147
1.5
171
     3
172
     1
176
   256
177
   256
178
   256
274
     3
283
     0
284
     8
340
1D
1001
ACAD_DSTYLE_DIMBREAK
1070
   391
1040
1.5
1001
ACAD_DSTYLE_DIMJAG
1070
   388
1040
1.5
1001
ACAD_DSTYLE_DIMTALN
1070
   392
1070
     0
1001
ACAD_DSTYLE_DIMJOGGED_JOGANGLE_SYMBOL
1070
   384
1040
1.570796326794896
  0
DIMSTYLE
105
2D
102
{ACAD_REACTORS
330
A7
330
BA
330
CA
330
DB
330
ED
330
106
330
116
330
127
330
137
330
156
330
168
330
17A
330
197
330
1A7
330
1B9
330
1CB
102
}
330
2C
100
AcDbSymbolTableRecord
100
AcDbDimStyleTableRecord
  2
DIM40
 70
     0
 41
3.0
 42
0.3125
 43
2.5
 44
0.625
 50
89.99999999999998
 78
     1
 79
     2
140
3.0
141
1.25
143
0.03937007874016
144
0.025
147
0.4
171
     3
172
     1
176
   256
177
   256
178
   256
271
     3
272
     3
274
     3
283
     0
284
     8
340
1D
1001
ACAD_DSTYLE_DIMBREAK
1070
   391
1040
0.125
1001
ACAD_DSTYLE_DIMJAG
1070
   388
1040
1.5
1001
ACAD_DSTYLE_DIMTALN
1070
   392
1070
     0
1001
ACAD_DSTYLE_DIMJOGGED_JOGANGLE_SYMBOL
1070
   384
1040
1.570796326794896
  0
ENDTAB
  0
TABLE
  2
BLOCK_RECORD
  5
1
330
0
100
AcDbSymbolTable
 70
    16
  0
BLOCK_RECORD
  5
2
102
{ACAD_XDICTIONARY
360
3
102
}
330
1
100
AcDbSymbolTableRecord
100
AcDbBlockTableRecord
  2
*Model_Space
340
10
 70
     0
280
     1
281
     0
  0
BLOCK_RECORD
  5
15
330
1
100
AcDbSymbolTableRecord
100
AcDbBlockTableRecord
  2
*Paper_Space
340
18
 70
     0
280
     1
281
     0
  0
BLOCK_RECORD
  5
AA
330
1
100
AcDbSymbolTableRecord
100
AcDbBlockTableRecord
  2
*D0
340
0
 70
     0
280
     1
281
     0
  0
BLOCK_RECORD
  5
BD
330
1
100
AcDbSymbolTableRecord
100
AcDbBlockTableRecord
  2
*D1
340
0
 70
     0
280
     1
281
     0
  0
BLOCK_RECORD
  5
CD
330
1
100
AcDbSymbolTableRecord
100
AcDbBlockTableRecord
  2
*D2
340
0
 70
     0
280
     1
281
     0
  0
BLOCK_RECORD
  5
DE
330
1
100
AcDbSymbolTableRecord
100
AcDbBlockTableRecord
  2
*D3
340
0
 70
     0
280
     1
281
     0
  0
BLOCK_RECORD
  5
F0
330
1
100
AcDbSymbolTableRecord
100
AcDbBlockTableRecord
  2
*D4
340
0
 70
     0
280
     1
281
     0
  0
BLOCK_RECORD
  5
109
330
1
100
AcDbSymbolTableRecord
100
AcDbBlockTableRecord
  2
*D5
340
0
 70
     0
280
     1
281
     0
  0
BLOCK_RECORD
  5
119
330
1
100
AcDbSymbolTableRecord
100
AcDbBlockTableRecord
  2
*D6
340
0
 70
     0
280
     1
281
     0
  0
BLOCK_RECORD
  5
12A
330
1
100
AcDbSymbolTableRecord
100
AcDbBlockTableRecord
  2
*D7
340
0
 70
     0
280
     1
281
     0
  0
BLOCK_RECORD
  5
13A
330
1
100
AcDbSymbolTableRecord
100
AcDbBlockTableRecord
  2
*D8
340
0
 70
     0
280
     1
281
     0
  0
BLOCK_RECORD
  5
159
330
1
100
AcDbSymbolTableRecord
100
AcDbBlockTableRecord
  2
*D9
340
0
 70
     0
280
     1
281
     0
  0
BLOCK_RECORD
  5
16B
330
1
100
AcDbSymbolTableRecord
100
AcDbBlockTableRecord
  2
*D10
340
0
 70
     0
280
     1
281
     0
  0
BLOCK_RECORD
  5
17D
330
1
100
AcDbSymbolTableRecord
100
AcDbBlockTableRecord
  2
*D11
340
0
 70
     0
280
     1
281
     0
  0
BLOCK_RECORD
  5
19A
330
1
100
AcDbSymbolTableRecord
100
AcDbBlockTableRecord
  2
*D12
340
0
 70
     0
280
     1
281
     0
  0
BLOCK_RECORD
  5
1AA
330
1
100
AcDbSymbolTableRecord
100
AcDbBlockTableRecord
  2
*D13
340
0
 70
     0
280
     1
281
     0
  0
BLOCK_RECORD
  5
1BC
330
1
100
AcDbSymbolTableRecord
100
AcDbBlockTableRecord
  2
*D14
340
0
 70
     0
280
     1
281
     0
  0
BLOCK_RECORD
  5
1CE
330
1
100
AcDbSymbolTableRecord
100
AcDbBlockTableRecord
  2
*D15
340
0
 70
     0
280
     1
281
     0
  0
ENDTAB
  0
ENDSEC
  0
SECTION
  2
BLOCKS
  0
BLOCK
  5
5
330
2
100
AcDbEntity
  8
0
100
AcDbBlockBegin
  2
*Model_Space
 70
     0
 10
0.0
 20
0.0
 30
0.0
  3
*Model_Space
  1

  0
ENDBLK
  5
F
330
2
100
AcDbEntity
  8
0
100
AcDbBlockEnd
  0
BLOCK
  5
16
330
15
100
AcDbEntity
 67
     1
  8
0
100
AcDbBlockBegin
  2
*Paper_Space
 70
     0
 10
0.0
 20
0.0
 30
0.0
  3
*Paper_Space
  1

  0
ENDBLK
  5
17
330
15
100
AcDbEntity
 67
     1
  8
0
100
AcDbBlockEnd
  0
BLOCK
  5
AB
330
AA
100
AcDbEntity
  8
0
100
AcDbBlockBegin
  2
*D0
 70
     1
 10
0.0
 20
0.0
 30
0.0
  3
*D0
  1

  0
LINE
  5
AC
330
AA
100
AcDbEntity
  8
DIM
440
 16777216
370
    -2
100
AcDbLine
 10
1016.578203002345
 20
-774.4909855207488
 30
0.0
 11
1016.578203002345
 21
-770.5195559759418
 31
0.0
  0
LINE
  5
AD
330
AA
100
AcDbEntity
  8
DIM
440
 16777216
370
    -2
100
AcDbLine
 10
1056.578203002345
 20
-774.4909855207488
 30
0.0
 11
1056.578203002345
 21
-770.5195559759418
 31
0.0
  0
LINE
  5
AE
330
AA
100
AcDbEntity
  8
DIM
440
 16777216
370
    -2
100
AcDbLine
 10
1019.578203002345
 20
-771.1445559759417
 30
0.0
 11
1035.178203002345
 21
-771.1445559759417
 31
0.0
  0
LINE
  5
AF
330
AA
100
AcDbEntity
  8
DIM
440
 16777216
370
    -2
100
AcDbLine
 10
1053.578203002345
 20
-771.1445559759417
 30
0.0
 11
1037.978203002346
 21
-771.1445559759417
 31
0.0
  0
SOLID
  5
B0
330
AA
100
AcDbEntity
  8
DIM
440
 16777216
100
AcDbTrace
 10
1019.578203002345
 20
-770.6445559759417
 30
0.0
 11
1019.578203002345
 21
-771.6445559759417
 31
0.0
 12
1016.578203002345
 22
-771.1445559759417
 32
0.0
 13
1016.578203002345
 23
-771.1445559759417
 33
0.0
  0
SOLID
  5
B2
330
AA
100
AcDbEntity
  8
DIM
440
 16777216
100
AcDbTrace
 10
1053.578203002345
 20
-770.6445559759417
 30
0.0
 11
1053.578203002345
 21
-771.6445559759417
 31
0.0
 12
1056.578203002345
 22
-771.1445559759417
 32
0.0
 13
1056.578203002345
 23
-771.1445559759417
 33
0.0
  0
MTEXT
  5
B3
330
AA
100
AcDbEntity
  8
DIM
440
 16777216
100
AcDbMText
 10
1036.578203002346
 20
-771.1445559759417
 30
0.0
 40
3.0
 41
0.0
 46
0.0
 71
     5
 72
     1
  1
D
 73
     1
 44
1.0
  0
POINT
  5
B4
330
AA
100
AcDbEntity
  8
Defpoints
 62
     0
440
 16777216
100
AcDbPoint
 10
1016.578203002345
 20
-774.8034855207488
 30
0.0
  0
POINT
  5
B6
330
AA
100
AcDbEntity
  8
Defpoints
 62
     0
440
 16777216
100
AcDbPoint
 10
1056.578203002345
 20
-774.8034855207488
 30
0.0
  0
POINT
  5
B7
330
AA
100
AcDbEntity
  8
Defpoints
 62
     0
440
 16777216
100
AcDbPoint
 10
1056.578203002345
 20
-771.1445559759417
 30
0.0
  0
ENDBLK
  5
B8
330
AA
100
AcDbEntity
  8
0
100
AcDbBlockEnd
  0
BLOCK
  5
BE
330
BD
100
AcDbEntity
  8
0
100
AcDbBlockBegin
  2
*D1
 70
     1
 10
0.0
 20
0.0
 30
0.0
  3
*D1
  1

  0
LINE
  5
BF
330
BD
100
AcDbEntity
  8
DIM
440
 16777216
370
    -2
100
AcDbLine
 10
1056.890703002345
 20
-774.8034855207488
 30
0.0
 11
1069.656617429118
 21
-774.8034855207488
 31
0.0
  0
LINE
  5
C0
330
BD
100
AcDbEntity
  8
DIM
440
 16777216
370
    -2
100
AcDbLine
 10
1056.890703002345
 20
-798.8034855207488
 30
0.0
 11
1069.656617429118
 21
-798.8034855207488
 31
0.0
  0
LINE
  5
C1
330
BD
100
AcDbEntity
  8
DIM
440
 16777216
370
    -2
100
AcDbLine
 10
1069.031617429118
 20
-777.8034855207488
 30
0.0
 11
1069.031617429118
 21
-784.9034855207488
 31
0.0
  0
LINE
  5
C2
330
BD
100
AcDbEntity
  8
DIM
440
 16777216
370
    -2
100
AcDbLine
 10
1069.031617429118
 20
-795.8034855207488
 30
0.0
 11
1069.031617429118
 21
-788.7034855207488
 31
0.0
  0
SOLID
  5
C3
330
BD
100
AcDbEntity
  8
DIM
440
 16777216
100
AcDbTrace
 10
1068.531617429118
 20
-777.8034855207488
 30
0.0
 11
1069.531617429118
 21
-777.8034855207488
 31
0.0
 12
1069.031617429118
 22
-774.8034855207488
 32
0.0
 13
1069.031617429118
 23
-774.8034855207488
 33
0.0
  0
SOLID
  5
C4
330
BD
100
AcDbEntity
  8
DIM
440
 16777216
100
AcDbTrace
 10
1068.531617429118
 20
-795.8034855207488
 30
0.0
 11
1069.531617429118
 21
-795.8034855207488
 31
0.0
 12
1069.031617429118
 22
-798.8034855207488
 32
0.0
 13
1069.031617429118
 23
-798.8034855207488
 33
0.0
  0
MTEXT
  5
C5
330
BD
100
AcDbEntity
  8
DIM
440
 16777216
100
AcDbMText
 10
1069.031617429118
 20
-786.8034855207487
 30
0.0
 40
3.0
 41
0.0
 46
0.0
 71
     5
 72
     1
  1
E
 73
     1
 44
1.0
  0
POINT
  5
C6
330
BD
100
AcDbEntity
  8
Defpoints
 62
     0
440
 16777216
100
AcDbPoint
 10
1056.578203002345
 20
-774.8034855207488
 30
0.0
  0
POINT
  5
C7
330
BD
100
AcDbEntity
  8
Defpoints
 62
     0
440
 16777216
100
AcDbPoint
 10
1056.578203002345
 20
-798.8034855207488
 30
0.0
  0
POINT
  5
C8
330
BD
100
AcDbEntity
  8
Defpoints
 62
     0
440
 16777216
100
AcDbPoint
 10
1069.031617429118
 20
-798.8034855207488
 30
0.0
  0
ENDBLK
  5
C9
330
BD
100
AcDbEntity
  8
0
100
AcDbBlockEnd
  0
BLOCK
  5
CE
330
CD
100
AcDbEntity
  8
0
100
AcDbBlockBegin
  2
*D2
 70
     1
 10
0.0
 20
0.0
 30
0.0
  3
*D2
  1

  0
LINE
  5
CF
330
CD
100
AcDbEntity
  8
DIM
440
 16777216
370
    -2
100
AcDbLine
 10
1018.265703002338
 20
-845.2170577445503
 30
0.0
 11
1008.078608710198
 21
-845.2170577445503
 31
0.0
  0
LINE
  5
D0
330
CD
100
AcDbEntity
  8
DIM
440
 16777216
370
    -2
100
AcDbLine
 10
1021.265703002345
 20
-838.337057744553
 30
0.0
 11
1008.078608710198
 21
-838.337057744553
 31
0.0
  0
LINE
  5
D1
330
CD
100
AcDbEntity
  8
DIM
440
 16777216
370
    -2
100
AcDbLine
 10
1008.703608710199
 20
-842.2170577445504
 30
0.0
 11
1008.703608710199
 21
-841.337057744553
 31
0.0
  0
LINE
  5
D2
330
CD
100
AcDbEntity
  8
DIM
440
 16777216
370
    -2
100
AcDbLine
 10
1008.703608710199
 20
-838.337057744553
 30
0.0
 11
1008.703608710199
 21
-835.3370577445529
 31
0.0
  0
LINE
  5
D3
330
CD
100
AcDbEntity
  8
DIM
440
 16777216
370
    -2
100
AcDbLine
 10
1008.703608710199
 20
-835.3370577445529
 30
0.0
 11
1011.703608710199
 21
-835.3370577445529
 31
0.0
  0
SOLID
  5
D4
330
CD
100
AcDbEntity
  8
DIM
440
 16777216
100
AcDbTrace
 10
1008.203608710199
 20
-842.2170577445504
 30
0.0
 11
1009.203608710198
 21
-842.2170577445504
 31
0.0
 12
1008.703608710199
 22
-845.2170577445503
 32
0.0
 13
1008.703608710199
 23
-845.2170577445503
 33
0.0
  0
SOLID
  5
D5
330
CD
100
AcDbEntity
  8
DIM
440
 16777216
100
AcDbTrace
 10
1008.203608710199
 20
-841.337057744553
 30
0.0
 11
1009.203608710198
 21
-841.337057744553
 31
0.0
 12
1008.703608710199
 22
-838.337057744553
 32
0.0
 13
1008.703608710199
 23
-838.337057744553
 33
0.0
  0
MTEXT
  5
D6
330
CD
100
AcDbEntity
  8
DIM
440
 16777216
100
AcDbMText
 10
1013.175037281627
 20
-835.3370577445529
 30
0.0
 40
3.0
 41
0.0
 46
0.0
 71
     5
 72
     1
  1
C
 73
     1
 44
1.0
  0
POINT
  5
D7
330
CD
100
AcDbEntity
  8
Defpoints
 62
     0
440
 16777216
100
AcDbPoint
 10
1018.578203002338
 20
-845.2170577445503
 30
0.0
  0
POINT
  5
D8
330
CD
100
AcDbEntity
  8
Defpoints
 62
     0
440
 16777216
100
AcDbPoint
 10
1021.578203002345
 20
-838.337057744553
 30
0.0
  0
POINT
  5
D9
330
CD
100
AcDbEntity
  8
Defpoints
 62
     0
440
 16777216
100
AcDbPoint
 10
1008.703608710199
 20
-838.337057744553
 30
0.0
  0
ENDBLK
  5
DA
330
CD
100
AcDbEntity
  8
0
100
AcDbBlockEnd
  0
BLOCK
  5
DF
330
DE
100
AcDbEntity
  8
0
100
AcDbBlockBegin
  2
*D3
 70
     1
 10
0.0
 20
0.0
 30
0.0
  3
*D3
  1

  0
LINE
  5
E0
330
DE
100
AcDbEntity
  8
DIM
440
 16777216
370
    -2
100
AcDbLine
 10
1056.890703002345
 20
-844.4170577445547
 30
0.0
 11
1061.970950005266
 21
-844.4170577445547
 31
0.0
  0
LINE
  5
E1
330
DE
100
AcDbEntity
  8
DIM
440
 16777216
370
    -2
100
AcDbLine
 10
1054.890703002345
 20
-845.217057744554
 30
0.0
 11
1061.970950005266
 21
-845.217057744554
 31
0.0
  0
LINE
  5
E2
330
DE
100
AcDbEntity
  8
DIM
440
 16777216
370
    -2
100
AcDbLine
 10
1061.345950005267
 20
-841.4170577445547
 30
0.0
 11
1061.345950005267
 21
-838.4170577445548
 31
0.0
  0
LINE
  5
E3
330
DE
100
AcDbEntity
  8
DIM
440
 16777216
370
    -2
100
AcDbLine
 10
1061.345950005267
 20
-848.217057744554
 30
0.0
 11
1061.345950005267
 21
-851.2170577445541
 31
0.0
  0
LINE
  5
E4
330
DE
100
AcDbEntity
  8
DIM
440
 16777216
370
    -2
100
AcDbLine
 10
1061.345950005267
 20
-851.2170577445541
 30
0.0
 11
1058.345950005266
 21
-851.2170577445541
 31
0.0
  0
LINE
  5
E5
330
DE
100
AcDbEntity
  8
DIM
440
 16777216
370
    -2
100
AcDbLine
 10
1061.345950005267
 20
-844.4170577445547
 30
0.0
 11
1061.345950005267
 21
-845.217057744554
 31
0.0
  0
SOLID
  5
E6
330
DE
100
AcDbEntity
  8
DIM
440
 16777216
100
AcDbTrace
 10
1060.845950005266
 20
-841.4170577445547
 30
0.0
 11
1061.845950005267
 21
-841.4170577445547
 31
0.0
 12
1061.345950005267
 22
-844.4170577445547
 32
0.0
 13
1061.345950005267
 23
-844.4170577445547
 33
0.0
  0
SOLID
  5
E7
330
DE
100
AcDbEntity
  8
DIM
440
 16777216
100
AcDbTrace
 10
1060.845950005266
 20
-848.217057744554
 30
0.0
 11
1061.845950005267
 21
-848.217057744554
 31
0.0
 12
1061.345950005267
 22
-845.217057744554
 32
0.0
 13
1061.345950005267
 23
-845.217057744554
 33
0.0
  0
MTEXT
  5
E8
330
DE
100
AcDbEntity
  8
DIM
440
 16777216
100
AcDbMText
 10
1055.945950005267
 20
-851.2170577445539
 30
0.0
 40
3.0
 41
0.0
 46
0.0
 71
     5
 72
     1
  1
A1
 73
     1
 44
1.0
  0
POINT
  5
E9
330
DE
100
AcDbEntity
  8
Defpoints
 62
     0
440
 16777216
100
AcDbPoint
 10
1056.578203002345
 20
-844.4170577445547
 30
0.0
  0
POINT
  5
EA
330
DE
100
AcDbEntity
  8
Defpoints
 62
     0
440
 16777216
100
AcDbPoint
 10
1054.578203002345
 20
-845.217057744554
 30
0.0
  0
POINT
  5
EB
330
DE
100
AcDbEntity
  8
Defpoints
 62
     0
440
 16777216
100
AcDbPoint
 10
1061.345950005267
 20
-845.217057744554
 30
0.0
  0
ENDBLK
  5
EC
330
DE
100
AcDbEntity
  8
0
100
AcDbBlockEnd
  0
BLOCK
  5
F1
330
F0
100
AcDbEntity
  8
0
100
AcDbBlockBegin
  2
*D4
 70
     1
 10
0.0
 20
0.0
 30
0.0
  3
*D4
  1

  0
LINE
  5
F2
330
F0
100
AcDbEntity
  8
DIM
440
 16777216
370
    -2
100
AcDbLine
 10
1056.890703002345
 20
-825.2170577445539
 30
0.0
 11
1070.00794492213
 21
-825.2170577445539
 31
0.0
  0
LINE
  5
F3
330
F0
100
AcDbEntity
  8
DIM
440
 16777216
370
    -2
100
AcDbLine
 10
1054.890703002345
 20
-845.217057744554
 30
0.0
 11
1070.00794492213
 21
-845.217057744554
 31
0.0
  0
LINE
  5
F4
330
F0
100
AcDbEntity
  8
DIM
440
 16777216
370
    -2
100
AcDbLine
 10
1069.38294492213
 20
-828.217057744554
 30
0.0
 11
1069.38294492213
 21
-833.3170577445541
 31
0.0
  0
LINE
  5
F5
330
F0
100
AcDbEntity
  8
DIM
440
 16777216
370
    -2
100
AcDbLine
 10
1069.38294492213
 20
-842.2170577445539
 30
0.0
 11
1069.38294492213
 21
-837.1170577445539
 31
0.0
  0
SOLID
  5
F6
330
F0
100
AcDbEntity
  8
DIM
440
 16777216
100
AcDbTrace
 10
1068.88294492213
 20
-828.217057744554
 30
0.0
 11
1069.88294492213
 21
-828.217057744554
 31
0.0
 12
1069.38294492213
 22
-825.2170577445539
 32
0.0
 13
1069.38294492213
 23
-825.2170577445539
 33
0.0
  0
SOLID
  5
F7
330
F0
100
AcDbEntity
  8
DIM
440
 16777216
100
AcDbTrace
 10
1068.88294492213
 20
-842.2170577445539
 30
0.0
 11
1069.88294492213
 21
-842.2170577445539
 31
0.0
 12
1069.38294492213
 22
-845.217057744554
 32
0.0
 13
1069.38294492213
 23
-845.217057744554
 33
0.0
  0
MTEXT
  5
F8
330
F0
100
AcDbEntity
  8
DIM
440
 16777216
100
AcDbMText
 10
1069.38294492213
 20
-835.2170577445539
 30
0.0
 40
3.0
 41
0.0
 46
0.0
 71
     5
 72
     1
  1
A
 73
     1
 44
1.0
  0
POINT
  5
F9
330
F0
100
AcDbEntity
  8
Defpoints
 62
     0
440
 16777216
100
AcDbPoint
 10
1056.578203002345
 20
-825.2170577445539
 30
0.0
  0
POINT
  5
FA
330
F0
100
AcDbEntity
  8
Defpoints
 62
     0
440
 16777216
100
AcDbPoint
 10
1054.578203002345
 20
-845.217057744554
 30
0.0
  0
POINT
  5
FB
330
F0
100
AcDbEntity
  8
Defpoints
 62
     0
440
 16777216
100
AcDbPoint
 10
1069.38294492213
 20
-845.217057744554
 30
0.0
  0
ENDBLK
  5
FC
330
F0
100
AcDbEntity
  8
0
100
AcDbBlockEnd
  0
BLOCK
  5
10A
330
109
100
AcDbEntity
  8
0
100
AcDbBlockBegin
  2
*D5
 70
     1
 10
0.0
 20
0.0
 30
0.0
  3
*D5
  1

  0
LINE
  5
10B
330
109
100
AcDbEntity
  8
DIM
440
 16777216
370
    -2
100
AcDbLine
 10
1138.501836915607
 20
-774.3500532274141
 30
0.0
 11
1138.501836915607
 21
-768.189828420791
 31
0.0
  0
LINE
  5
10C
330
109
100
AcDbEntity
  8
DIM
440
 16777216
370
    -2
100
AcDbLine
 10
1164.501836915614
 20
-774.350053227414
 30
0.0
 11
1164.501836915614
 21
-768.189828420791
 31
0.0
  0
LINE
  5
10D
330
109
100
AcDbEntity
  8
DIM
440
 16777216
370
    -2
100
AcDbLine
 10
1141.501836915607
 20
-768.814828420791
 30
0.0
 11
1150.244694058468
 21
-768.814828420791
 31
0.0
  0
LINE
  5
10E
330
109
100
AcDbEntity
  8
DIM
440
 16777216
370
    -2
100
AcDbLine
 10
1161.501836915614
 20
-768.814828420791
 30
0.0
 11
1152.758979772753
 21
-768.814828420791
 31
0.0
  0
SOLID
  5
10F
330
109
100
AcDbEntity
  8
DIM
440
 16777216
100
AcDbTrace
 10
1141.501836915607
 20
-768.314828420791
 30
0.0
 11
1141.501836915607
 21
-769.314828420791
 31
0.0
 12
1138.501836915607
 22
-768.814828420791
 32
0.0
 13
1138.501836915607
 23
-768.814828420791
 33
0.0
  0
SOLID
  5
110
330
109
100
AcDbEntity
  8
DIM
440
 16777216
100
AcDbTrace
 10
1161.501836915614
 20
-768.314828420791
 30
0.0
 11
1161.501836915614
 21
-769.314828420791
 31
0.0
 12
1164.501836915614
 22
-768.814828420791
 32
0.0
 13
1164.501836915614
 23
-768.814828420791
 33
0.0
  0
MTEXT
  5
111
330
109
100
AcDbEntity
  8
DIM
440
 16777216
100
AcDbMText
 10
1151.501836915611
 20
-768.814828420791
 30
0.0
 40
3.0
 41
0.0
 46
0.0
 71
     5
 72
     1
  1
e
 73
     1
 44
1.0
  0
POINT
  5
112
330
109
100
AcDbEntity
  8
Defpoints
 62
     0
440
 16777216
100
AcDbPoint
 10
1138.501836915607
 20
-774.6625532274141
 30
0.0
  0
POINT
  5
113
330
109
100
AcDbEntity
  8
Defpoints
 62
     0
440
 16777216
100
AcDbPoint
 10
1164.501836915614
 20
-774.662553227414
 30
0.0
  0
POINT
  5
114
330
109
100
AcDbEntity
  8
Defpoints
 62
     0
440
 16777216
100
AcDbPoint
 10
1164.501836915614
 20
-768.814828420791
 30
0.0
  0
ENDBLK
  5
115
330
109
100
AcDbEntity
  8
0
100
AcDbBlockEnd
  0
BLOCK
  5
11A
330
119
100
AcDbEntity
  8
0
100
AcDbBlockBegin
  2
*D6
 70
     1
 10
0.0
 20
0.0
 30
0.0
  3
*D6
  1

  0
LINE
  5
11B
330
119
100
AcDbEntity
  8
DIM
440
 16777216
370
    -2
100
AcDbLine
 10
1133.501836915607
 20
-776.490985520749
 30
0.0
 11
1133.501836915607
 21
-770.5621745823537
 31
0.0
  0
LINE
  5
11C
330
119
100
AcDbEntity
  8
DIM
440
 16777216
370
    -2
100
AcDbLine
 10
1131.501836915614
 20
-774.4909855207488
 30
0.0
 11
1131.501836915614
 21
-770.5621745823537
 31
0.0
  0
LINE
  5
11D
330
119
100
AcDbEntity
  8
DIM
440
 16777216
370
    -2
100
AcDbLine
 10
1136.501836915607
 20
-771.1871745823538
 30
0.0
 11
1139.501836915607
 21
-771.1871745823538
 31
0.0
  0
LINE
  5
11E
330
119
100
AcDbEntity
  8
DIM
440
 16777216
370
    -2
100
AcDbLine
 10
1128.501836915614
 20
-771.1871745823538
 30
0.0
 11
1125.501836915614
 21
-771.1871745823538
 31
0.0
  0
LINE
  5
11F
330
119
100
AcDbEntity
  8
DIM
440
 16777216
370
    -2
100
AcDbLine
 10
1133.501836915607
 20
-771.1871745823538
 30
0.0
 11
1131.501836915614
 21
-771.1871745823538
 31
0.0
  0
SOLID
  5
120
330
119
100
AcDbEntity
  8
DIM
440
 16777216
100
AcDbTrace
 10
1136.501836915607
 20
-770.6871745823538
 30
0.0
 11
1136.501836915607
 21
-771.6871745823538
 31
0.0
 12
1133.501836915607
 22
-771.1871745823538
 32
0.0
 13
1133.501836915607
 23
-771.1871745823538
 33
0.0
  0
SOLID
  5
121
330
119
100
AcDbEntity
  8
DIM
440
 16777216
100
AcDbTrace
 10
1128.501836915614
 20
-770.6871745823538
 30
0.0
 11
1128.501836915614
 21
-771.6871745823538
 31
0.0
 12
1131.501836915614
 22
-771.1871745823538
 32
0.0
 13
1131.501836915614
 23
-771.1871745823538
 33
0.0
  0
MTEXT
  5
122
330
119
100
AcDbEntity
  8
DIM
440
 16777216
100
AcDbMText
 10
1123.387551201329
 20
-771.1871745823538
 30
0.0
 40
3.0
 41
0.0
 46
0.0
 71
     5
 72
     1
  1
L1
 73
     1
 44
1.0
  0
POINT
  5
123
330
119
100
AcDbEntity
  8
Defpoints
 62
     0
440
 16777216
100
AcDbPoint
 10
1133.501836915607
 20
-776.803485520749
 30
0.0
  0
POINT
  5
124
330
119
100
AcDbEntity
  8
Defpoints
 62
     0
440
 16777216
100
AcDbPoint
 10
1131.501836915614
 20
-774.8034855207488
 30
0.0
  0
POINT
  5
125
330
119
100
AcDbEntity
  8
Defpoints
 62
     0
440
 16777216
100
AcDbPoint
 10
1131.501836915614
 20
-771.1871745823538
 30
0.0
  0
ENDBLK
  5
126
330
119
100
AcDbEntity
  8
0
100
AcDbBlockEnd
  0
BLOCK
  5
12B
330
12A
100
AcDbEntity
  8
0
100
AcDbBlockBegin
  2
*D7
 70
     1
 10
0.0
 20
0.0
 30
0.0
  3
*D7
  1

  0
LINE
  5
12C
330
12A
100
AcDbEntity
  8
DIM
440
 16777216
370
    -2
100
AcDbLine
 10
1133.189336915607
 20
-776.803485520749
 30
0.0
 11
1118.304238932362
 21
-776.803485520749
 31
0.0
  0
LINE
  5
12D
330
12A
100
AcDbEntity
  8
DIM
440
 16777216
370
    -2
100
AcDbLine
 10
1133.189336915607
 20
-796.803485520749
 30
0.0
 11
1118.304238932362
 21
-796.803485520749
 31
0.0
  0
LINE
  5
12E
330
12A
100
AcDbEntity
  8
DIM
440
 16777216
370
    -2
100
AcDbLine
 10
1118.929238932362
 20
-779.803485520749
 30
0.0
 11
1118.929238932362
 21
-784.9034855207491
 31
0.0
  0
LINE
  5
12F
330
12A
100
AcDbEntity
  8
DIM
440
 16777216
370
    -2
100
AcDbLine
 10
1118.929238932362
 20
-793.803485520749
 30
0.0
 11
1118.929238932362
 21
-788.703485520749
 31
0.0
  0
SOLID
  5
130
330
12A
100
AcDbEntity
  8
DIM
440
 16777216
100
AcDbTrace
 10
1118.429238932362
 20
-779.803485520749
 30
0.0
 11
1119.429238932362
 21
-779.803485520749
 31
0.0
 12
1118.929238932362
 22
-776.803485520749
 32
0.0
 13
1118.929238932362
 23
-776.803485520749
 33
0.0
  0
SOLID
  5
131
330
12A
100
AcDbEntity
  8
DIM
440
 16777216
100
AcDbTrace
 10
1118.429238932362
 20
-793.803485520749
 30
0.0
 11
1119.429238932362
 21
-793.803485520749
 31
0.0
 12
1118.929238932362
 22
-796.803485520749
 32
0.0
 13
1118.929238932362
 23
-796.803485520749
 33
0.0
  0
MTEXT
  5
132
330
12A
100
AcDbEntity
  8
DIM
440
 16777216
100
AcDbMText
 10
1118.929238932362
 20
-786.8034855207489
 30
0.0
 40
3.0
 41
0.0
 46
0.0
 71
     5
 72
     1
  1
b
 73
     1
 44
1.0
  0
POINT
  5
133
330
12A
100
AcDbEntity
  8
Defpoints
 62
     0
440
 16777216
100
AcDbPoint
 10
1133.501836915607
 20
-776.803485520749
 30
0.0
  0
POINT
  5
134
330
12A
100
AcDbEntity
  8
Defpoints
 62
     0
440
 16777216
100
AcDbPoint
 10
1133.501836915607
 20
-796.803485520749
 30
0.0
  0
POINT
  5
135
330
12A
100
AcDbEntity
  8
Defpoints
 62
     0
440
 16777216
100
AcDbPoint
 10
1118.929238932362
 20
-796.803485520749
 30
0.0
  0
ENDBLK
  5
136
330
12A
100
AcDbEntity
  8
0
100
AcDbBlockEnd
  0
BLOCK
  5
13B
330
13A
100
AcDbEntity
  8
0
100
AcDbBlockBegin
  2
*D8
 70
     1
 10
0.0
 20
0.0
 30
0.0
  3
*D8
  1

  0
LINE
  5
13C
330
13A
100
AcDbEntity
  8
DIM
440
 16777216
370
    -2
100
AcDbLine
 10
1133.501836915607
 20
-797.1159855207489
 30
0.0
 11
1133.501836915607
 21
-806.4922330575146
 31
0.0
  0
LINE
  5
13D
330
13A
100
AcDbEntity
  8
DIM
440
 16777216
370
    -2
100
AcDbLine
 10
1143.501836915607
 20
-797.1159855207489
 30
0.0
 11
1143.501836915607
 21
-806.4922330575146
 31
0.0
  0
LINE
  5
13E
330
13A
100
AcDbEntity
  8
DIM
440
 16777216
370
    -2
100
AcDbLine
 10
1136.501836915607
 20
-805.8672330575147
 30
0.0
 11
1137.244694058464
 21
-805.8672330575147
 31
0.0
  0
LINE
  5
13F
330
13A
100
AcDbEntity
  8
DIM
440
 16777216
370
    -2
100
AcDbLine
 10
1140.501836915607
 20
-805.8672330575147
 30
0.0
 11
1139.75897977275
 21
-805.8672330575147
 31
0.0
  0
SOLID
  5
140
330
13A
100
AcDbEntity
  8
DIM
440
 16777216
100
AcDbTrace
 10
1136.501836915607
 20
-805.3672330575146
 30
0.0
 11
1136.501836915607
 21
-806.3672330575146
 31
0.0
 12
1133.501836915607
 22
-805.8672330575147
 32
0.0
 13
1133.501836915607
 23
-805.8672330575147
 33
0.0
  0
SOLID
  5
141
330
13A
100
AcDbEntity
  8
DIM
440
 16777216
100
AcDbTrace
 10
1140.501836915607
 20
-805.3672330575146
 30
0.0
 11
1140.501836915607
 21
-806.3672330575146
 31
0.0
 12
1143.501836915607
 22
-805.8672330575147
 32
0.0
 13
1143.501836915607
 23
-805.8672330575147
 33
0.0
  0
MTEXT
  5
142
330
13A
100
AcDbEntity
  8
DIM
440
 16777216
100
AcDbMText
 10
1138.501836915607
 20
-805.8672330575147
 30
0.0
 40
3.0
 41
0.0
 46
0.0
 71
     5
 72
     1
  1
L
 73
     1
 44
1.0
  0
POINT
  5
143
330
13A
100
AcDbEntity
  8
Defpoints
 62
     0
440
 16777216
100
AcDbPoint
 10
1133.501836915607
 20
-796.8034855207489
 30
0.0
  0
POINT
  5
144
330
13A
100
AcDbEntity
  8
Defpoints
 62
     0
440
 16777216
100
AcDbPoint
 10
1143.501836915607
 20
-796.8034855207489
 30
0.0
  0
POINT
  5
145
330
13A
100
AcDbEntity
  8
Defpoints
 62
     0
440
 16777216
100
AcDbPoint
 10
1143.501836915607
 20
-805.8672330575147
 30
0.0
  0
ENDBLK
  5
146
330
13A
100
AcDbEntity
  8
0
100
AcDbBlockEnd
  0
BLOCK
  5
15A
330
159
100
AcDbEntity
  8
0
100
AcDbBlockBegin
  2
*D9
 70
     1
 10
0.0
 20
0.0
 30
0.0
  3
*D9
  1

  0
LINE
  5
15B
330
159
100
AcDbEntity
  8
DIM
440
 16777216
370
    -2
100
AcDbLine
 10
1165.014336915614
 20
-776.8034855207489
 30
0.0
 11
1178.373650269678
 21
-776.8034855207489
 31
0.0
  0
LINE
  5
15C
330
159
100
AcDbEntity
  8
DIM
440
 16777216
370
    -2
100
AcDbLine
 10
1169.814336915614
 20
-781.6034855207488
 30
0.0
 11
1178.373650269678
 21
-781.6034855207488
 31
0.0
  0
LINE
  5
15D
330
159
100
AcDbEntity
  8
DIM
440
 16777216
370
    -2
100
AcDbLine
 10
1177.748650269678
 20
-773.8034855207489
 30
0.0
 11
1177.748650269678
 21
-770.8034855207489
 31
0.0
  0
LINE
  5
15E
330
159
100
AcDbEntity
  8
DIM
440
 16777216
370
    -2
100
AcDbLine
 10
1177.748650269678
 20
-784.6034855207489
 30
0.0
 11
1177.748650269678
 21
-787.6034855207489
 31
0.0
  0
LINE
  5
15F
330
159
100
AcDbEntity
  8
DIM
440
 16777216
370
    -2
100
AcDbLine
 10
1177.748650269678
 20
-776.8034855207489
 30
0.0
 11
1177.748650269678
 21
-777.3034855207489
 31
0.0
  0
LINE
  5
160
330
159
100
AcDbEntity
  8
DIM
440
 16777216
370
    -2
100
AcDbLine
 10
1177.748650269678
 20
-781.6034855207488
 30
0.0
 11
1177.748650269678
 21
-781.1034855207489
 31
0.0
  0
SOLID
  5
161
330
159
100
AcDbEntity
  8
DIM
440
 16777216
100
AcDbTrace
 10
1177.248650269678
 20
-773.8034855207489
 30
0.0
 11
1178.248650269678
 21
-773.8034855207489
 31
0.0
 12
1177.748650269678
 22
-776.8034855207489
 32
0.0
 13
1177.748650269678
 23
-776.8034855207489
 33
0.0
  0
SOLID
  5
162
330
159
100
AcDbEntity
  8
DIM
440
 16777216
100
AcDbTrace
 10
1177.248650269678
 20
-784.6034855207489
 30
0.0
 11
1178.248650269678
 21
-784.6034855207489
 31
0.0
 12
1177.748650269678
 22
-781.6034855207488
 32
0.0
 13
1177.748650269678
 23
-781.6034855207488
 33
0.0
  0
MTEXT
  5
163
330
159
100
AcDbEntity
  8
DIM
440
 16777216
100
AcDbMText
 10
1177.748650269679
 20
-779.2034855207488
 30
0.0
 40
3.0
 41
0.0
 46
0.0
 71
     5
 72
     1
  1
h
 73
     1
 44
1.0
  0
POINT
  5
164
330
159
100
AcDbEntity
  8
Defpoints
 62
     0
440
 16777216
100
AcDbPoint
 10
1164.701836915615
 20
-776.8034855207489
 30
0.0
  0
POINT
  5
165
330
159
100
AcDbEntity
  8
Defpoints
 62
     0
440
 16777216
100
AcDbPoint
 10
1169.501836915614
 20
-781.6034855207488
 30
0.0
  0
POINT
  5
166
330
159
100
AcDbEntity
  8
Defpoints
 62
     0
440
 16777216
100
AcDbPoint
 10
1177.748650269678
 20
-781.6034855207488
 30
0.0
  0
ENDBLK
  5
167
330
159
100
AcDbEntity
  8
0
100
AcDbBlockEnd
  0
BLOCK
  5
16C
330
16B
100
AcDbEntity
  8
0
100
AcDbBlockBegin
  2
*D10
 70
     1
 10
0.0
 20
0.0
 30
0.0
  3
*D10
  1

  0
LINE
  5
16D
330
16B
100
AcDbEntity
  8
DIM
440
 16777216
370
    -2
100
AcDbLine
 10
1164.701836915615
 20
-776.4909855207489
 30
0.0
 11
1164.701836915615
 21
-770.0361289912157
 31
0.0
  0
LINE
  5
16E
330
16B
100
AcDbEntity
  8
DIM
440
 16777216
370
    -2
100
AcDbLine
 10
1169.501836915614
 20
-781.2909855207489
 30
0.0
 11
1169.501836915614
 21
-770.0361289912157
 31
0.0
  0
LINE
  5
16F
330
16B
100
AcDbEntity
  8
DIM
440
 16777216
370
    -2
100
AcDbLine
 10
1161.701836915614
 20
-770.6611289912157
 30
0.0
 11
1158.701836915614
 21
-770.6611289912157
 31
0.0
  0
LINE
  5
170
330
16B
100
AcDbEntity
  8
DIM
440
 16777216
370
    -2
100
AcDbLine
 10
1172.501836915614
 20
-770.6611289912157
 30
0.0
 11
1175.501836915614
 21
-770.6611289912157
 31
0.0
  0
LINE
  5
171
330
16B
100
AcDbEntity
  8
DIM
440
 16777216
370
    -2
100
AcDbLine
 10
1164.701836915615
 20
-770.6611289912157
 30
0.0
 11
1165.9161226299
 21
-770.6611289912157
 31
0.0
  0
LINE
  5
172
330
16B
100
AcDbEntity
  8
DIM
440
 16777216
370
    -2
100
AcDbLine
 10
1169.501836915614
 20
-770.6611289912157
 30
0.0
 11
1168.287551201329
 21
-770.6611289912157
 31
0.0
  0
SOLID
  5
173
330
16B
100
AcDbEntity
  8
DIM
440
 16777216
100
AcDbTrace
 10
1161.701836915614
 20
-770.1611289912157
 30
0.0
 11
1161.701836915614
 21
-771.1611289912156
 31
0.0
 12
1164.701836915615
 22
-770.6611289912157
 32
0.0
 13
1164.701836915615
 23
-770.6611289912157
 33
0.0
  0
SOLID
  5
174
330
16B
100
AcDbEntity
  8
DIM
440
 16777216
100
AcDbTrace
 10
1172.501836915614
 20
-770.1611289912157
 30
0.0
 11
1172.501836915614
 21
-771.1611289912156
 31
0.0
 12
1169.501836915614
 22
-770.6611289912157
 32
0.0
 13
1169.501836915614
 23
-770.6611289912157
 33
0.0
  0
MTEXT
  5
175
330
16B
100
AcDbEntity
  8
DIM
440
 16777216
100
AcDbMText
 10
1167.101836915614
 20
-770.6611289912157
 30
0.0
 40
3.0
 41
0.0
 46
0.0
 71
     5
 72
     1
  1
h
 73
     1
 44
1.0
  0
POINT
  5
176
330
16B
100
AcDbEntity
  8
Defpoints
 62
     0
440
 16777216
100
AcDbPoint
 10
1164.701836915615
 20
-776.8034855207489
 30
0.0
  0
POINT
  5
177
330
16B
100
AcDbEntity
  8
Defpoints
 62
     0
440
 16777216
100
AcDbPoint
 10
1169.501836915614
 20
-781.6034855207488
 30
0.0
  0
POINT
  5
178
330
16B
100
AcDbEntity
  8
Defpoints
 62
     0
440
 16777216
100
AcDbPoint
 10
1169.501836915614
 20
-770.6611289912157
 30
0.0
  0
ENDBLK
  5
179
330
16B
100
AcDbEntity
  8
0
100
AcDbBlockEnd
  0
BLOCK
  5
17E
330
17D
100
AcDbEntity
  8
0
100
AcDbBlockBegin
  2
*D11
 70
     1
 10
0.0
 20
0.0
 30
0.0
  3
*D11
  1

  0
LINE
  5
17F
330
17D
100
AcDbEntity
  8
DIM
440
 16777216
370
    -2
100
AcDbLine
 10
1169.814336915614
 20
-796.8034855207488
 30
0.0
 11
1176.538408941954
 21
-796.8034855207488
 31
0.0
  0
LINE
  5
180
330
17D
100
AcDbEntity
  8
DIM
440
 16777216
370
    -2
100
AcDbLine
 10
1171.814336915614
 20
-798.803485520749
 30
0.0
 11
1176.538408941954
 21
-798.803485520749
 31
0.0
  0
LINE
  5
181
330
17D
100
AcDbEntity
  8
DIM
440
 16777216
370
    -2
100
AcDbLine
 10
1175.913408941954
 20
-793.8034855207488
 30
0.0
 11
1175.913408941954
 21
-790.8034855207488
 31
0.0
  0
LINE
  5
182
330
17D
100
AcDbEntity
  8
DIM
440
 16777216
370
    -2
100
AcDbLine
 10
1175.913408941954
 20
-801.803485520749
 30
0.0
 11
1175.913408941954
 21
-804.803485520749
 31
0.0
  0
LINE
  5
183
330
17D
100
AcDbEntity
  8
DIM
440
 16777216
370
    -2
100
AcDbLine
 10
1175.913408941954
 20
-804.803485520749
 30
0.0
 11
1172.913408941954
 21
-804.803485520749
 31
0.0
  0
LINE
  5
184
330
17D
100
AcDbEntity
  8
DIM
440
 16777216
370
    -2
100
AcDbLine
 10
1175.913408941954
 20
-796.8034855207488
 30
0.0
 11
1175.913408941954
 21
-798.803485520749
 31
0.0
  0
SOLID
  5
185
330
17D
100
AcDbEntity
  8
DIM
440
 16777216
100
AcDbTrace
 10
1175.413408941954
 20
-793.8034855207488
 30
0.0
 11
1176.413408941954
 21
-793.8034855207488
 31
0.0
 12
1175.913408941954
 22
-796.8034855207488
 32
0.0
 13
1175.913408941954
 23
-796.8034855207488
 33
0.0
  0
SOLID
  5
186
330
17D
100
AcDbEntity
  8
DIM
440
 16777216
100
AcDbTrace
 10
1175.413408941954
 20
-801.803485520749
 30
0.0
 11
1176.413408941954
 21
-801.803485520749
 31
0.0
 12
1175.913408941954
 22
-798.803485520749
 32
0.0
 13
1175.913408941954
 23
-798.803485520749
 33
0.0
  0
MTEXT
  5
187
330
17D
100
AcDbEntity
  8
DIM
440
 16777216
100
AcDbMText
 10
1170.799123227668
 20
-804.803485520749
 30
0.0
 40
3.0
 41
0.0
 46
0.0
 71
     5
 72
     1
  1
L1
 73
     1
 44
1.0
  0
POINT
  5
188
330
17D
100
AcDbEntity
  8
Defpoints
 62
     0
440
 16777216
100
AcDbPoint
 10
1169.501836915614
 20
-796.8034855207488
 30
0.0
  0
POINT
  5
189
330
17D
100
AcDbEntity
  8
Defpoints
 62
     0
440
 16777216
100
AcDbPoint
 10
1171.501836915614
 20
-798.803485520749
 30
0.0
  0
POINT
  5
18A
330
17D
100
AcDbEntity
  8
Defpoints
 62
     0
440
 16777216
100
AcDbPoint
 10
1175.913408941954
 20
-798.803485520749
 30
0.0
  0
ENDBLK
  5
18B
330
17D
100
AcDbEntity
  8
0
100
AcDbBlockEnd
  0
BLOCK
  5
19B
330
19A
100
AcDbEntity
  8
0
100
AcDbBlockBegin
  2
*D12
 70
     1
 10
0.0
 20
0.0
 30
0.0
  3
*D12
  1

  0
LINE
  5
19C
330
19A
100
AcDbEntity
  8
DIM
440
 16777216
370
    -2
100
AcDbLine
 10
1030.81437110102
 20
-892.5633273449097
 30
0.0
 11
1030.81437110102
 21
-882.8363774027284
 31
0.0
  0
LINE
  5
19D
330
19A
100
AcDbEntity
  8
DIM
440
 16777216
370
    -2
100
AcDbLine
 10
1070.81437110102
 20
-892.5633273449097
 30
0.0
 11
1070.81437110102
 21
-882.8363774027284
 31
0.0
  0
LINE
  5
19E
330
19A
100
AcDbEntity
  8
DIM
440
 16777216
370
    -2
100
AcDbLine
 10
1033.81437110102
 20
-883.4613774027284
 30
0.0
 11
1046.057228243877
 21
-883.4613774027284
 31
0.0
  0
LINE
  5
19F
330
19A
100
AcDbEntity
  8
DIM
440
 16777216
370
    -2
100
AcDbLine
 10
1067.81437110102
 20
-883.4613774027284
 30
0.0
 11
1055.571513958162
 21
-883.4613774027284
 31
0.0
  0
SOLID
  5
1A0
330
19A
100
AcDbEntity
  8
DIM
440
 16777216
100
AcDbTrace
 10
1033.81437110102
 20
-882.9613774027285
 30
0.0
 11
1033.81437110102
 21
-883.9613774027284
 31
0.0
 12
1030.81437110102
 22
-883.4613774027284
 32
0.0
 13
1030.81437110102
 23
-883.4613774027284
 33
0.0
  0
SOLID
  5
1A1
330
19A
100
AcDbEntity
  8
DIM
440
 16777216
100
AcDbTrace
 10
1067.81437110102
 20
-882.9613774027285
 30
0.0
 11
1067.81437110102
 21
-883.9613774027284
 31
0.0
 12
1070.81437110102
 22
-883.4613774027284
 32
0.0
 13
1070.81437110102
 23
-883.4613774027284
 33
0.0
  0
MTEXT
  5
1A2
330
19A
100
AcDbEntity
  8
DIM
440
 16777216
100
AcDbMText
 10
1050.81437110102
 20
-883.4613774027284
 30
0.0
 40
3.0
 41
0.0
 46
0.0
 71
     5
 72
     1
  1
1.00
 73
     1
 44
1.0
  0
POINT
  5
1A3
330
19A
100
AcDbEntity
  8
Defpoints
 62
     0
440
 16777216
100
AcDbPoint
 10
1030.81437110102
 20
-892.8758273449098
 30
0.0
  0
POINT
  5
1A4
330
19A
100
AcDbEntity
  8
Defpoints
 62
     0
440
 16777216
100
AcDbPoint
 10
1070.81437110102
 20
-892.8758273449098
 30
0.0
  0
POINT
  5
1A5
330
19A
100
AcDbEntity
  8
Defpoints
 62
     0
440
 16777216
100
AcDbPoint
 10
1070.81437110102
 20
-883.4613774027284
 30
0.0
  0
ENDBLK
  5
1A6
330
19A
100
AcDbEntity
  8
0
100
AcDbBlockEnd
  0
BLOCK
  5
1AB
330
1AA
100
AcDbEntity
  8
0
100
AcDbBlockBegin
  2
*D13
 70
     1
 10
0.0
 20
0.0
 30
0.0
  3
*D13
  1

  0
LINE
  5
1AC
330
1AA
100
AcDbEntity
  8
DIM
440
 16777216
370
    -2
100
AcDbLine
 10
1070.81437110102
 20
-917.1883273449097
 30
0.0
 11
1070.81437110102
 21
-926.0878239616504
 31
0.0
  0
LINE
  5
1AD
330
1AA
100
AcDbEntity
  8
DIM
440
 16777216
370
    -2
100
AcDbLine
 10
1056.814371101027
 20
-917.1883273449097
 30
0.0
 11
1056.814371101027
 21
-926.0878239616504
 31
0.0
  0
LINE
  5
1AE
330
1AA
100
AcDbEntity
  8
DIM
440
 16777216
370
    -2
100
AcDbLine
 10
1073.814371101019
 20
-925.4628239616504
 30
0.0
 11
1076.81437110102
 21
-925.4628239616504
 31
0.0
  0
LINE
  5
1AF
330
1AA
100
AcDbEntity
  8
DIM
440
 16777216
370
    -2
100
AcDbLine
 10
1053.814371101027
 20
-925.4628239616504
 30
0.0
 11
1050.814371101027
 21
-925.4628239616504
 31
0.0
  0
LINE
  5
1B0
330
1AA
100
AcDbEntity
  8
DIM
440
 16777216
370
    -2
100
AcDbLine
 10
1070.81437110102
 20
-925.4628239616504
 30
0.0
 11
1068.785799672452
 21
-925.4628239616504
 31
0.0
  0
LINE
  5
1B1
330
1AA
100
AcDbEntity
  8
DIM
440
 16777216
370
    -2
100
AcDbLine
 10
1056.814371101027
 20
-925.4628239616504
 30
0.0
 11
1058.842942529595
 21
-925.4628239616504
 31
0.0
  0
SOLID
  5
1B2
330
1AA
100
AcDbEntity
  8
DIM
440
 16777216
100
AcDbTrace
 10
1073.814371101019
 20
-924.9628239616503
 30
0.0
 11
1073.814371101019
 21
-925.9628239616503
 31
0.0
 12
1070.81437110102
 22
-925.4628239616504
 32
0.0
 13
1070.81437110102
 23
-925.4628239616504
 33
0.0
  0
SOLID
  5
1B3
330
1AA
100
AcDbEntity
  8
DIM
440
 16777216
100
AcDbTrace
 10
1053.814371101027
 20
-924.9628239616503
 30
0.0
 11
1053.814371101027
 21
-925.9628239616503
 31
0.0
 12
1056.814371101027
 22
-925.4628239616504
 32
0.0
 13
1056.814371101027
 23
-925.4628239616504
 33
0.0
  0
MTEXT
  5
1B4
330
1AA
100
AcDbEntity
  8
DIM
440
 16777216
100
AcDbMText
 10
1063.814371101023
 20
-925.4628239616504
 30
0.0
 40
3.0
 41
0.0
 46
0.0
 71
     5
 72
     1
  1
0.35
 73
     1
 44
1.0
  0
POINT
  5
1B5
330
1AA
100
AcDbEntity
  8
Defpoints
 62
     0
440
 16777216
100
AcDbPoint
 10
1070.81437110102
 20
-916.8758273449098
 30
0.0
  0
POINT
  5
1B6
330
1AA
100
AcDbEntity
  8
Defpoints
 62
     0
440
 16777216
100
AcDbPoint
 10
1056.814371101027
 20
-916.8758273449098
 30
0.0
  0
POINT
  5
1B7
330
1AA
100
AcDbEntity
  8
Defpoints
 62
     0
440
 16777216
100
AcDbPoint
 10
1056.814371101027
 20
-925.4628239616504
 30
0.0
  0
ENDBLK
  5
1B8
330
1AA
100
AcDbEntity
  8
0
100
AcDbBlockEnd
  0
BLOCK
  5
1BD
330
1BC
100
AcDbEntity
  8
0
100
AcDbBlockBegin
  2
*D14
 70
     1
 10
0.0
 20
0.0
 30
0.0
  3
*D14
  1

  0
LINE
  5
1BE
330
1BC
100
AcDbEntity
  8
DIM
440
 16777216
370
    -2
100
AcDbLine
 10
1044.814371101012
 20
-917.1883273449097
 30
0.0
 11
1044.814371101012
 21
-926.0878239616504
 31
0.0
  0
LINE
  5
1BF
330
1BC
100
AcDbEntity
  8
DIM
440
 16777216
370
    -2
100
AcDbLine
 10
1030.81437110102
 20
-917.1883273449097
 30
0.0
 11
1030.81437110102
 21
-926.0878239616504
 31
0.0
  0
LINE
  5
1C0
330
1BC
100
AcDbEntity
  8
DIM
440
 16777216
370
    -2
100
AcDbLine
 10
1047.814371101012
 20
-925.4628239616504
 30
0.0
 11
1050.814371101012
 21
-925.4628239616504
 31
0.0
  0
LINE
  5
1C1
330
1BC
100
AcDbEntity
  8
DIM
440
 16777216
370
    -2
100
AcDbLine
 10
1027.81437110102
 20
-925.4628239616504
 30
0.0
 11
1024.81437110102
 21
-925.4628239616504
 31
0.0
  0
LINE
  5
1C2
330
1BC
100
AcDbEntity
  8
DIM
440
 16777216
370
    -2
100
AcDbLine
 10
1044.814371101012
 20
-925.4628239616504
 30
0.0
 11
1042.785799672445
 21
-925.4628239616504
 31
0.0
  0
LINE
  5
1C3
330
1BC
100
AcDbEntity
  8
DIM
440
 16777216
370
    -2
100
AcDbLine
 10
1030.81437110102
 20
-925.4628239616504
 30
0.0
 11
1032.842942529587
 21
-925.4628239616504
 31
0.0
  0
SOLID
  5
1C4
330
1BC
100
AcDbEntity
  8
DIM
440
 16777216
100
AcDbTrace
 10
1047.814371101012
 20
-924.9628239616503
 30
0.0
 11
1047.814371101012
 21
-925.9628239616503
 31
0.0
 12
1044.814371101012
 22
-925.4628239616504
 32
0.0
 13
1044.814371101012
 23
-925.4628239616504
 33
0.0
  0
SOLID
  5
1C5
330
1BC
100
AcDbEntity
  8
DIM
440
 16777216
100
AcDbTrace
 10
1027.81437110102
 20
-924.9628239616503
 30
0.0
 11
1027.81437110102
 21
-925.9628239616503
 31
0.0
 12
1030.81437110102
 22
-925.4628239616504
 32
0.0
 13
1030.81437110102
 23
-925.4628239616504
 33
0.0
  0
MTEXT
  5
1C6
330
1BC
100
AcDbEntity
  8
DIM
440
 16777216
100
AcDbMText
 10
1037.814371101016
 20
-925.4628239616504
 30
0.0
 40
3.0
 41
0.0
 46
0.0
 71
     5
 72
     1
  1
0.35
 73
     1
 44
1.0
  0
POINT
  5
1C7
330
1BC
100
AcDbEntity
  8
Defpoints
 62
     0
440
 16777216
100
AcDbPoint
 10
1044.814371101012
 20
-916.8758273449098
 30
0.0
  0
POINT
  5
1C8
330
1BC
100
AcDbEntity
  8
Defpoints
 62
     0
440
 16777216
100
AcDbPoint
 10
1030.81437110102
 20
-916.8758273449098
 30
0.0
  0
POINT
  5
1C9
330
1BC
100
AcDbEntity
  8
Defpoints
 62
     0
440
 16777216
100
AcDbPoint
 10
1030.81437110102
 20
-925.4628239616504
 30
0.0
  0
ENDBLK
  5
1CA
330
1BC
100
AcDbEntity
  8
0
100
AcDbBlockEnd
  0
BLOCK
  5
1CF
330
1CE
100
AcDbEntity
  8
0
100
AcDbBlockBegin
  2
*D15
 70
     1
 10
0.0
 20
0.0
 30
0.0
  3
*D15
  1

  0
LINE
  5
1D0
330
1CE
100
AcDbEntity
  8
DIM
440
 16777216
370
    -2
100
AcDbLine
 10
1071.12687110102
 20
-892.8758273449098
 30
0.0
 11
1087.673451614656
 21
-892.8758273449098
 31
0.0
  0
LINE
  5
1D1
330
1CE
100
AcDbEntity
  8
DIM
440
 16777216
370
    -2
100
AcDbLine
 10
1071.12687110102
 20
-916.8758273449098
 30
0.0
 11
1087.673451614656
 21
-916.8758273449098
 31
0.0
  0
LINE
  5
1D2
330
1CE
100
AcDbEntity
  8
DIM
440
 16777216
370
    -2
100
AcDbLine
 10
1087.048451614656
 20
-895.8758273449097
 30
0.0
 11
1087.048451614656
 21
-902.9758273449099
 31
0.0
  0
LINE
  5
1D3
330
1CE
100
AcDbEntity
  8
DIM
440
 16777216
370
    -2
100
AcDbLine
 10
1087.048451614656
 20
-913.8758273449097
 30
0.0
 11
1087.048451614656
 21
-906.7758273449097
 31
0.0
  0
SOLID
  5
1D4
330
1CE
100
AcDbEntity
  8
DIM
440
 16777216
100
AcDbTrace
 10
1086.548451614656
 20
-895.8758273449097
 30
0.0
 11
1087.548451614656
 21
-895.8758273449097
 31
0.0
 12
1087.048451614656
 22
-892.8758273449098
 32
0.0
 13
1087.048451614656
 23
-892.8758273449098
 33
0.0
  0
SOLID
  5
1D5
330
1CE
100
AcDbEntity
  8
DIM
440
 16777216
100
AcDbTrace
 10
1086.548451614656
 20
-913.8758273449097
 30
0.0
 11
1087.548451614656
 21
-913.8758273449097
 31
0.0
 12
1087.048451614656
 22
-916.8758273449098
 32
0.0
 13
1087.048451614656
 23
-916.8758273449098
 33
0.0
  0
MTEXT
  5
1D6
330
1CE
100
AcDbEntity
  8
DIM
440
 16777216
100
AcDbMText
 10
1087.048451614656
 20
-904.8758273449097
 30
0.0
 40
3.0
 41
0.0
 46
0.0
 71
     5
 72
     1
  1
0.60
 73
     1
 44
1.0
  0
POINT
  5
1D7
330
1CE
100
AcDbEntity
  8
Defpoints
 62
     0
440
 16777216
100
AcDbPoint
 10
1070.81437110102
 20
-892.8758273449098
 30
0.0
  0
POINT
  5
1D8
330
1CE
100
AcDbEntity
  8
Defpoints
 62
     0
440
 16777216
100
AcDbPoint
 10
1070.81437110102
 20
-916.8758273449098
 30
0.0
  0
POINT
  5
1D9
330
1CE
100
AcDbEntity
  8
Defpoints
 62
     0
440
 16777216
100
AcDbPoint
 10
1087.048451614656
 20
-916.8758273449098
 30
0.0
  0
ENDBLK
  5
1DA
330
1CE
100
AcDbEntity
  8
0
100
AcDbBlockEnd
  0
ENDSEC
  0
SECTION
  2
ENTITIES
  0
MTEXT
  5
76
330
2
100
AcDbEntity
  8
DIM
100
AcDbMText
 10
-383.2772619805922
 20
161.0577305988231
 30
0.0
 40
1.5
 41
99.52716310198002
 46
0.0
 71
     1
 72
     5
  1
{\H1.5x;DETAILED OUT LINE}^I\PDATA SHEET REFERENCE
 73
     1
 44
1.0
101
Embedded Object
 70
     1
 10
1.0
 20
0.0
 30
0.0
 11
-383.2772619805922
 21
161.0577305988231
 31
0.0
 40
99.52716310198002
 41
0.0
 42
36.0
 43
5.000000000000002
 71
     2
 72
     1
 44
99.52716310198002
 45
1.0
 73
     0
 74
     0
 46
0.0
  0
MTEXT
  5
79
330
2
100
AcDbEntity
  8
DIM
100
AcDbMText
 10
-370.4297947147932
 20
144.4303840793517
 30
0.0
 40
1.5
 41
99.52716310198002
 46
0.0
 71
     1
 72
     5
  1
{\H1.5x;TOP VIEW}
 73
     1
 44
1.0
101
Embedded Object
 70
     1
 10
1.0
 20
0.0
 30
0.0
 11
-370.4297947147932
 21
144.4303840793517
 31
0.0
 40
99.52716310198002
 41
0.0
 42
15.64285714285714
 43
2.25
 71
     2
 72
     1
 44
99.52716310198002
 45
1.0
 73
     0
 74
     0
 46
0.0
  0
MTEXT
  5
7A
330
2
100
AcDbEntity
  8
DIM
100
AcDbMText
 10
-370.9764791569362
 20
91.68334196137641
 30
0.0
 40
1.5
 41
99.52716310198002
 46
0.0
 71
     1
 72
     5
  1
{\H1.5x;SIDE VIEW}
 73
     1
 44
1.0
101
Embedded Object
 70
     1
 10
1.0
 20
0.0
 30
0.0
 11
-370.9764791569362
 21
91.68334196137641
 31
0.0
 40
99.52716310198002
 41
0.0
 42
16.39285714285714
 43
2.25
 71
     2
 72
     1
 44
99.52716310198002
 45
1.0
 73
     0
 74
     0
 46
0.0
  0
MTEXT
  5
7B
330
2
100
AcDbEntity
  8
DIM
100
AcDbMText
 10
-254.1112282344091
 20
148.9303761996415
 30
0.0
 40
1.5
 41
99.52716310198002
 46
0.0
 71
     1
 72
     5
  1
{\H1.5x;BACK VIEW}
 73
     1
 44
1.0
101
Embedded Object
 70
     1
 10
1.0
 20
0.0
 30
0.0
 11
-254.1112282344091
 21
148.9303761996415
 31
0.0
 40
99.52716310198002
 41
0.0
 42
17.67857142857143
 43
2.25
 71
     2
 72
     1
 44
99.52716310198002
 45
1.0
 73
     0
 74
     0
 46
0.0
  0
LINE
  5
7C
330
2
100
AcDbEntity
  8
0
100
AcDbLine
 10
-389.6745478187904
 20
39.34975618391831
 30
0.0
 11
-158.1528054678842
 21
39.34975618391831
 31
0.0
  0
MTEXT
  5
7D
330
2
100
AcDbEntity
  8
DIM
100
AcDbMText
 10
-384.1264215145845
 20
35.33199958227101
 30
0.0
 40
1.5
 41
99.52716310198002
 46
0.0
 71
     1
 72
     5
  1
{\H1.5x;SOLDERING PATTERN}
 73
     1
 44
1.0
101
Embedded Object
 70
     1
 10
1.0
 20
0.0
 30
0.0
 11
-384.1264215145845
 21
35.33199958227101
 31
0.0
 40
99.52716310198002
 41
0.0
 42
34.07142857142857
 43
2.25
 71
     2
 72
     1
 44
99.52716310198002
 45
1.0
 73
     0
 74
     0
 46
0.0
  0
LINE
  5
7E
330
2
100
AcDbEntity
  8
0
100
AcDbLine
 10
-389.6745478187904
 20
38.34823188641485
 30
0.0
 11
-158.1528054678842
 21
38.34823188641485
 31
0.0
  0
LINE
  5
7F
330
2
100
AcDbEntity
  8
B
100
AcDbLine
 10
-379.7606809828471
 20
110.8445650540297
 30
0.0
 11
-339.7606809828471
 21
110.8445650540297
 31
0.0
  0
LINE
  5
85
102
{ACAD_REACTORS
330
BC
102
}
330
2
100
AcDbEntity
  8
B
100
AcDbLine
 10
-339.7606809828471
 20
110.8445650540297
 30
0.0
 11
-339.7606809828471
 21
134.8445650540297
 31
0.0
  0
LINE
  5
86
102
{ACAD_REACTORS
330
A9
102
}
330
2
100
AcDbEntity
  8
B
100
AcDbLine
 10
-339.7606809828471
 20
134.8445650540297
 30
0.0
 11
-379.7606809828471
 21
134.8445650540297
 31
0.0
  0
LINE
  5
87
102
{ACAD_REACTORS
330
A9
102
}
330
2
100
AcDbEntity
  8
B
100
AcDbLine
 10
-379.7606809828471
 20
134.8445650540297
 30
0.0
 11
-379.7606809828471
 21
110.8445650540297
 31
0.0
  0
LINE
  5
88
330
2
100
AcDbEntity
  8
B
100
AcDbLine
 10
-379.7606809828471
 20
65.23099283022384
 30
0.0
 11
-379.7606809828399
 21
84.43099283022457
 31
0.0
  0
LINE
  5
89
102
{ACAD_REACTORS
330
DD
330
EF
102
}
330
2
100
AcDbEntity
  8
B
100
AcDbLine
 10
-339.7606809828471
 20
65.23099283022384
 30
0.0
 11
-339.7606809828471
 21
84.43099283022457
 31
0.0
  0
LINE
  5
8A
102
{ACAD_REACTORS
330
CC
102
}
330
2
100
AcDbEntity
  8
B
100
AcDbLine
 10
-377.7606809828544
 20
64.43099283022821
 30
0.0
 11
-367.7606809828544
 21
64.43099283022821
 31
0.0
  0
LINE
  5
8B
330
2
100
AcDbEntity
  8
B
100
AcDbLine
 10
-351.7606809828472
 20
64.43099283022457
 30
0.0
 11
-341.7606809828471
 21
64.43099283022457
 31
0.0
  0
LINE
  5
8C
330
2
100
AcDbEntity
  8
B
100
AcDbLine
 10
-379.7606809828471
 20
65.23099283022748
 30
0.0
 11
-339.7606809828471
 21
65.23099283022748
 31
0.0
  0
LINE
  5
8D
330
2
100
AcDbEntity
  8
B
100
AcDbLine
 10
-374.7606809828472
 20
68.23099283023111
 30
0.0
 11
-370.7606809828544
 21
68.23099283023111
 31
0.0
  0
LINE
  5
8E
330
2
100
AcDbEntity
  8
B
100
AcDbLine
 10
-374.7606809828472
 20
71.31099283022923
 30
0.0
 11
-370.7606809828544
 21
71.31099283022923
 31
0.0
  0
LINE
  5
8F
330
2
100
AcDbEntity
  8
B
100
AcDbLine
 10
-379.7606809828399
 20
84.43099283022457
 30
0.0
 11
-339.7606809828471
 21
84.43099283022821
 31
0.0
  0
LINE
  5
90
330
2
100
AcDbEntity
  8
B
100
AcDbLine
 10
-351.7606809828472
 20
64.43099283022457
 30
0.0
 11
-351.7606809828472
 21
65.23099283022384
 31
0.0
  0
LINE
  5
91
102
{ACAD_REACTORS
330
DD
330
EF
102
}
330
2
100
AcDbEntity
  8
B
100
AcDbLine
 10
-341.7606809828471
 20
64.43099283022457
 30
0.0
 11
-341.7606809828471
 21
65.23099283022748
 31
0.0
  0
LINE
  5
92
330
2
100
AcDbEntity
  8
B
100
AcDbLine
 10
-367.7606809828544
 20
64.43099283022457
 30
0.0
 11
-367.7606809828544
 21
65.23099283022748
 31
0.0
  0
LINE
  5
93
330
2
100
AcDbEntity
  8
B
100
AcDbLine
 10
-377.7606809828544
 20
64.43099283023548
 30
0.0
 11
-377.7606809828544
 21
65.23099283022384
 31
0.0
  0
LINE
  5
94
102
{ACAD_REACTORS
330
CC
102
}
330
2
100
AcDbEntity
  8
B
100
AcDbLine
 10
-374.7606809828472
 20
68.23099283023475
 30
0.0
 11
-374.7606809828472
 21
71.31099283022559
 31
0.0
  0
LINE
  5
95
330
2
100
AcDbEntity
  8
B
100
AcDbLine
 10
-370.7606809828472
 20
68.23099283023111
 30
0.0
 11
-370.7606809828472
 21
71.31099283022559
 31
0.0
  0
LINE
  5
96
330
2
100
AcDbEntity
  8
B
100
AcDbLine
 10
-348.7606809828617
 20
68.23099283023111
 30
0.0
 11
-348.7606809828544
 21
71.31099283023286
 31
0.0
  0
LINE
  5
97
330
2
100
AcDbEntity
  8
B
100
AcDbLine
 10
-344.7606809828471
 20
68.23099283023475
 30
0.0
 11
-344.7606809828471
 21
71.31099283022923
 31
0.0
  0
LINE
  5
98
330
2
100
AcDbEntity
  8
B
100
AcDbLine
 10
-348.7606809828544
 20
71.31099283023286
 30
0.0
 11
-344.7606809828471
 21
71.31099283022923
 31
0.0
  0
LINE
  5
99
330
2
100
AcDbEntity
  8
B
100
AcDbLine
 10
-344.7606809828471
 20
68.23099283023475
 30
0.0
 11
-348.7606809828617
 21
68.23099283023111
 31
0.0
  0
LINE
  5
9A
102
{ACAD_REACTORS
330
118
102
}
330
2
100
AcDbEntity
  8
B
100
AcDbLine
 10
-264.8370470695784
 20
134.8445650540297
 30
0.0
 11
-264.8370470695784
 21
110.8445650540296
 31
0.0
  0
LINE
  5
9B
102
{ACAD_REACTORS
330
17C
102
}
330
2
100
AcDbEntity
  8
B
100
AcDbLine
 10
-224.8370470695786
 20
134.8445650540297
 30
0.0
 11
-224.8370470695784
 21
110.8445650540295
 31
0.0
  0
LINE
  5
9C
330
2
100
AcDbEntity
  8
B
100
AcDbLine
 10
-264.8370470695786
 20
134.8445650540297
 30
0.0
 11
-224.8370470695786
 21
134.8445650540296
 31
0.0
  0
LINE
  5
9D
330
2
100
AcDbEntity
  8
B
100
AcDbLine
 10
-264.8370470695786
 20
110.8445650540297
 30
0.0
 11
-224.8370470695786
 21
110.8445650540296
 31
0.0
  0
LINE
  5
9E
102
{ACAD_REACTORS
330
139
102
}
330
2
100
AcDbEntity
  8
B
100
AcDbLine
 10
-262.8370470695856
 20
132.8445650540295
 30
0.0
 11
-262.8370470695856
 21
112.8445650540296
 31
0.0
  0
LINE
  5
9F
330
2
100
AcDbEntity
  8
B
100
AcDbLine
 10
-252.8370470695857
 20
132.8445650540296
 30
0.0
 11
-252.8370470695857
 21
112.8445650540296
 31
0.0
  0
LINE
  5
A0
330
2
100
AcDbEntity
  8
B
100
AcDbLine
 10
-236.8370470695784
 20
132.8445650540295
 30
0.0
 11
-236.8370470695784
 21
112.8445650540296
 31
0.0
  0
LINE
  5
A1
330
2
100
AcDbEntity
  8
B
100
AcDbLine
 10
-226.8370470695784
 20
128.0445650540297
 30
0.0
 11
-226.8370470695784
 21
112.8445650540295
 31
0.0
  0
LINE
  5
A2
102
{ACAD_REACTORS
330
129
330
139
102
}
330
2
100
AcDbEntity
  8
B
100
AcDbLine
 10
-262.8370470695856
 20
112.8445650540295
 30
0.0
 11
-252.8370470695857
 21
112.8445650540296
 31
0.0
  0
LINE
  5
A3
102
{ACAD_REACTORS
330
17C
102
}
330
2
100
AcDbEntity
  8
B
100
AcDbLine
 10
-236.8370470695784
 20
112.8445650540297
 30
0.0
 11
-226.8370470695786
 21
112.8445650540297
 31
0.0
  0
LINE
  5
A4
102
{ACAD_REACTORS
330
118
330
129
102
}
330
2
100
AcDbEntity
  8
B
100
AcDbLine
 10
-262.8370470695856
 20
132.8445650540295
 30
0.0
 11
-252.8370470695857
 21
132.8445650540296
 31
0.0
  0
LINE
  5
A5
102
{ACAD_REACTORS
330
158
330
16A
102
}
330
2
100
AcDbEntity
  8
B
100
AcDbLine
 10
-236.8370470695784
 20
132.8445650540296
 30
0.0
 11
-231.6370470695781
 21
132.8445650540296
 31
0.0
  0
LINE
  5
A6
102
{ACAD_REACTORS
330
158
330
16A
102
}
330
2
100
AcDbEntity
  8
B
100
AcDbLine
 10
-231.6370470695783
 20
132.8445650540296
 30
0.0
 11
-226.8370470695784
 21
128.0445650540297
 31
0.0
  0
DIMENSION
  5
A7
102
{ACAD_XDICTIONARY
360
A8
102
}
102
{ACAD_REACTORS
330
A9
102
}
330
2
100
AcDbEntity
  8
DIM
100
AcDbDimension
280
     0
  2
*D0
 10
-339.7606809828471
 20
138.5034945988368
 30
0.0
 11
-359.7606809828471
 21
138.5034945988368
 31
0.0
 12
-1396.338883985193
 22
909.6480505747786
 32
0.0
  1
D
 71
     5
 73
     0
 74
     0
 75
     0
  3
DIM40
100
AcDbAlignedDimension
 13
-379.7606809828471
 23
134.8445650540297
 33
0.0
 14
-339.7606809828471
 24
134.8445650540297
 34
0.0
100
AcDbRotatedDimension
1001
ACAD_DSTYLE_DIMINSPECT
1070
   396
1000
100%
1070
   395
1000

1070
   394
1070
    33
1070
   393
1070
     0
  0
DIMENSION
  5
BA
102
{ACAD_XDICTIONARY
360
BB
102
}
102
{ACAD_REACTORS
330
BC
102
}
330
2
100
AcDbEntity
  8
DIM
100
AcDbDimension
280
     0
  2
*D1
 10
-327.3072665560744
 20
110.8445650540297
 30
0.0
 11
-327.3072665560742
 21
122.8445650540299
 31
0.0
 12
-1396.338883985193
 22
909.6480505747786
 32
0.0
  1
E
 71
     5
 42
0.6000000000000001
 73
     0
 74
     0
 75
     0
  3
DIM40
100
AcDbAlignedDimension
 13
-339.7606809828471
 23
134.8445650540297
 33
0.0
 14
-339.7606809828471
 24
110.8445650540297
 34
0.0
 50
90.0
100
AcDbRotatedDimension
1001
ACAD_DSTYLE_DIMINSPECT
1070
   396
1000
100%
1070
   395
1000

1070
   394
1070
    33
1070
   393
1070
     0
  0
DIMENSION
  5
CA
102
{ACAD_XDICTIONARY
360
CB
102
}
102
{ACAD_REACTORS
330
CC
102
}
330
2
100
AcDbEntity
  8
DIM
100
AcDbDimension
280
     0
  2
*D2
 10
-387.635275274994
 20
71.31099283022559
 30
0.0
 11
-383.1638467035653
 21
74.3109928302257
 31
0.0
 12
-1396.338883985193
 22
909.6480505747786
 32
0.0
  1
C
 71
     5
 42
0.1719999999999345
 73
     0
 74
     0
 75
     0
  3
DIM40
100
AcDbAlignedDimension
 13
-377.7606809828544
 23
64.43099283022821
 33
0.0
 14
-374.7606809828472
 24
71.31099283022559
 34
0.0
 50
90.0
100
AcDbRotatedDimension
1001
ACAD_DSTYLE_DIMINSPECT
1070
   396
1000
100%
1070
   395
1000

1070
   394
1070
    33
1070
   393
1070
     0
  0
DIMENSION
  5
DB
102
{ACAD_XDICTIONARY
360
DC
102
}
102
{ACAD_REACTORS
330
DD
102
}
330
2
100
AcDbEntity
  8
DIM
100
AcDbDimension
280
     0
  2
*D3
 10
-334.992933979926
 20
64.43099283022457
 30
0.0
 11
-340.3929339799258
 21
58.43099283022468
 31
0.0
 12
-1396.338883985193
 22
909.6480505747786
 32
0.0
  1
A1
 71
     5
 42
0.0199999999999818
 73
     0
 74
     0
 75
     0
  3
DIM40
100
AcDbAlignedDimension
 13
-339.7606809828471
 23
65.23099283022384
 33
0.0
 14
-341.7606809828471
 24
64.43099283022457
 34
0.0
 50
90.0
100
AcDbRotatedDimension
1001
ACAD_DSTYLE_DIMINSPECT
1070
   396
1000
100%
1070
   395
1000

1070
   394
1070
    33
1070
   393
1070
     0
  0
DIMENSION
  5
ED
102
{ACAD_XDICTIONARY
360
EE
102
}
102
{ACAD_REACTORS
330
EF
102
}
330
2
100
AcDbEntity
  8
DIM
100
AcDbDimension
280
     0
  2
*D4
 10
-326.9559390630625
 20
64.43099283022457
 30
0.0
 11
-326.9559390630623
 21
74.43099283022468
 31
0.0
 12
-1396.338883985193
 22
909.6480505747786
 32
0.0
  1
A
 71
     5
 42
0.5
 73
     0
 74
     0
 75
     0
  3
DIM40
100
AcDbAlignedDimension
 13
-339.7606809828471
 23
84.43099283022457
 33
0.0
 14
-341.7606809828471
 24
64.43099283022457
 34
0.0
 50
90.0
100
AcDbRotatedDimension
1001
ACAD_DSTYLE_DIMINSPECT
1070
   396
1000
100%
1070
   395
1000

1070
   394
1070
    33
1070
   393
1070
     0
  0
MTEXT
  5
FD
330
2
100
AcDbEntity
  8
DIM
100
AcDbMText
 10
-373.5884979461691
 20
109.8796056708207
 30
0.0
 40
1.5
 41
99.52716310198002
 46
0.0
 71
     1
 72
     5
  1
{\H1.5x;1}
 73
     1
 44
1.0
101
Embedded Object
 70
     1
 10
1.0
 20
0.0
 30
0.0
 11
-373.5884979461691
 21
109.8796056708207
 31
0.0
 40
99.52716310198002
 41
0.0
 42
0.5357142857142856
 43
2.25
 71
     2
 72
     1
 44
99.52716310198002
 45
1.0
 73
     0
 74
     0
 46
0.0
  0
MTEXT
  5
FE
330
2
100
AcDbEntity
  8
DIM
100
AcDbMText
 10
-347.568713019363
 20
109.8796056708207
 30
0.0
 40
1.5
 41
99.52716310198002
 46
0.0
 71
     1
 72
     5
  1
{\H1.5x;2}
 73
     1
 44
1.0
101
Embedded Object
 70
     1
 10
1.0
 20
0.0
 30
0.0
 11
-347.568713019363
 21
109.8796056708207
 31
0.0
 40
99.52716310198002
 41
0.0
 42
1.5
 43
2.25
 71
     2
 72
     1
 44
99.52716310198002
 45
1.0
 73
     0
 74
     0
 46
0.0
  0
LINE
  5
FF
102
{ACAD_REACTORS
330
108
102
}
330
2
100
AcDbEntity
  8
C
100
AcDbLine
 10
-257.8370470695857
 20
134.9854973473644
 30
0.0
 11
-257.8370470695857
 21
110.7036327606948
 31
0.0
  0
LINE
  5
104
330
2
100
AcDbEntity
  8
C
100
AcDbLine
 10
-266.966610820424
 20
121.7809328672306
 30
0.0
 11
-222.7074833187337
 21
121.7809328672306
 31
0.0
  0
LINE
  5
105
102
{ACAD_REACTORS
330
108
102
}
330
2
100
AcDbEntity
  8
C
100
AcDbLine
 10
-231.8370470695784
 20
134.9854973473646
 30
0.0
 11
-231.8370470695784
 21
110.7036327606949
 31
0.0
  0
DIMENSION
  5
106
102
{ACAD_XDICTIONARY
360
107
102
}
102
{ACAD_REACTORS
330
108
102
}
330
2
100
AcDbEntity
  8
DIM
100
AcDbDimension
280
     0
  2
*D5
 10
-231.8370470695784
 20
140.8332221539875
 30
0.0
 11
-244.837047069582
 21
140.8332221539875
 31
0.0
 12
-1396.338883985193
 22
909.6480505747786
 32
0.0
  1
e
 71
     5
 42
0.650000000000182
 73
     0
 74
     0
 75
     0
  3
DIM40
100
AcDbAlignedDimension
 13
-257.8370470695857
 23
134.9854973473644
 33
0.0
 14
-231.8370470695784
 24
134.9854973473646
 34
0.0
100
AcDbRotatedDimension
1001
ACAD_DSTYLE_DIMINSPECT
1070
   396
1000
100%
1070
   395
1000

1070
   394
1070
    33
1070
   393
1070
     0
  0
DIMENSION
  5
116
102
{ACAD_XDICTIONARY
360
117
102
}
102
{ACAD_REACTORS
330
118
102
}
330
2
100
AcDbEntity
  8
DIM
100
AcDbDimension
280
     0
  2
*D6
 10
-264.8370470695784
 20
138.4608759924248
 30
0.0
 11
-272.951332783864
 21
138.4608759924248
 31
0.0
 12
-1396.338883985193
 22
909.6480505747786
 32
0.0
  1
L1
 71
     5
 42
0.0499999999998181
 73
     0
 74
     0
 75
     0
  3
DIM40
100
AcDbAlignedDimension
 13
-262.8370470695856
 23
132.8445650540295
 33
0.0
 14
-264.8370470695784
 24
134.8445650540297
 34
0.0
100
AcDbRotatedDimension
1001
ACAD_DSTYLE_DIMINSPECT
1070
   396
1000
100%
1070
   395
1000

1070
   394
1070
    33
1070
   393
1070
     0
  0
DIMENSION
  5
127
102
{ACAD_XDICTIONARY
360
128
102
}
102
{ACAD_REACTORS
330
129
102
}
330
2
100
AcDbEntity
  8
DIM
100
AcDbDimension
280
     0
  2
*D7
 10
-277.4096450528307
 20
112.8445650540295
 30
0.0
 11
-277.4096450528305
 21
122.8445650540296
 31
0.0
 12
-1396.338883985193
 22
909.6480505747786
 32
0.0
  1
b
 71
     5
 42
0.5
 73
     0
 74
     0
 75
     0
  3
DIM40
100
AcDbAlignedDimension
 13
-262.8370470695856
 23
132.8445650540295
 33
0.0
 14
-262.8370470695856
 24
112.8445650540295
 34
0.0
 50
90.0
100
AcDbRotatedDimension
1001
ACAD_DSTYLE_DIMINSPECT
1070
   396
1000
100%
1070
   395
1000

1070
   394
1070
    33
1070
   393
1070
     0
  0
DIMENSION
  5
137
102
{ACAD_XDICTIONARY
360
138
102
}
102
{ACAD_REACTORS
330
139
102
}
330
2
100
AcDbEntity
  8
DIM
100
AcDbDimension
280
     0
  2
*D8
 10
-252.8370470695857
 20
103.7808175172639
 30
0.0
 11
-257.8370470695857
 21
103.7808175172639
 31
0.0
 12
-1396.338883985193
 22
909.6480505747786
 32
0.0
  1
L
 71
     5
 42
0.25
 73
     0
 74
     0
 75
     0
  3
DIM40
100
AcDbAlignedDimension
 13
-262.8370470695856
 23
112.8445650540296
 33
0.0
 14
-252.8370470695857
 24
112.8445650540296
 34
0.0
100
AcDbRotatedDimension
1001
ACAD_DSTYLE_DIMINSPECT
1070
   396
1000
100%
1070
   395
1000

1070
   394
1070
    33
1070
   393
1070
     0
  0
MTEXT
  5
147
330
2
100
AcDbEntity
  8
DIM
100
AcDbMText
 10
-256.7191145306115
 20
109.5548420509039
 30
0.0
 40
1.5
 41
99.52716310198002
 46
0.0
 71
     1
 72
     5
  1
{\H1.5x;2}
 73
     1
 44
1.0
101
Embedded Object
 70
     1
 10
1.0
 20
0.0
 30
0.0
 11
-256.7191145306115
 21
109.5548420509039
 31
0.0
 40
99.52716310198002
 41
0.0
 42
1.5
 43
2.25
 71
     2
 72
     1
 44
99.52716310198002
 45
1.0
 73
     0
 74
     0
 46
0.0
  0
MTEXT
  5
148
330
2
100
AcDbEntity
  8
DIM
100
AcDbMText
 10
-230.065912325982
 20
109.5548420509039
 30
0.0
 40
1.5
 41
99.52716310198002
 46
0.0
 71
     1
 72
     5
  1
{\H1.5x;1}
 73
     1
 44
1.0
101
Embedded Object
 70
     1
 10
1.0
 20
0.0
 30
0.0
 11
-230.065912325982
 21
109.5548420509039
 31
0.0
 40
99.52716310198002
 41
0.0
 42
0.5357142857142856
 43
2.25
 71
     2
 72
     1
 44
99.52716310198002
 45
1.0
 73
     0
 74
     0
 46
0.0
  0
LINE
  5
149
330
2
100
AcDbEntity
  8
B
100
AcDbLine
 10
-312.4330783459748
 20
134.8445650540297
 30
0.0
 11
-293.2330783459749
 21
134.8445650540296
 31
0.0
  0
LINE
  5
14A
330
2
100
AcDbEntity
  8
B
100
AcDbLine
 10
-312.433078345975
 20
110.8445650540296
 30
0.0
 11
-293.2330783459752
 21
110.8445650540299
 31
0.0
  0
LINE
  5
14B
330
2
100
AcDbEntity
  8
B
100
AcDbLine
 10
-312.4330783459748
 20
134.8445650540297
 30
0.0
 11
-312.433078345975
 21
110.8445650540299
 31
0.0
  0
LINE
  5
14C
330
2
100
AcDbEntity
  8
B
100
AcDbLine
 10
-292.433078345975
 20
132.8445650540295
 30
0.0
 11
-292.433078345975
 21
112.8445650540296
 31
0.0
  0
LINE
  5
14D
330
2
100
AcDbEntity
  8
B
100
AcDbLine
 10
-293.2330783459749
 20
134.8445650540297
 30
0.0
 11
-293.2330783459749
 21
110.8445650540299
 31
0.0
  0
LINE
  5
14E
330
2
100
AcDbEntity
  8
B
100
AcDbLine
 10
-298.5130783459749
 20
122.8445650540297
 30
0.0
 11
-298.5130783459749
 21
125.2445650540297
 31
0.0
  0
LINE
  5
14F
330
2
100
AcDbEntity
  8
B
100
AcDbLine
 10
-298.5130783459749
 20
122.8445650540297
 30
0.0
 11
-298.5130783459749
 21
120.4445650540298
 31
0.0
  0
LINE
  5
150
330
2
100
AcDbEntity
  8
B
100
AcDbLine
 10
-295.433078345975
 20
122.8445650540295
 30
0.0
 11
-295.433078345975
 21
125.2445650540295
 31
0.0
  0
LINE
  5
151
330
2
100
AcDbEntity
  8
B
100
AcDbLine
 10
-295.433078345975
 20
122.8445650540295
 30
0.0
 11
-295.433078345975
 21
120.4445650540295
 31
0.0
  0
LINE
  5
152
330
2
100
AcDbEntity
  8
B
100
AcDbLine
 10
-298.5130783459749
 20
125.2445650540297
 30
0.0
 11
-295.433078345975
 21
125.2445650540295
 31
0.0
  0
LINE
  5
153
330
2
100
AcDbEntity
  8
B
100
AcDbLine
 10
-298.5130783459749
 20
120.4445650540298
 30
0.0
 11
-295.433078345975
 21
120.4445650540295
 31
0.0
  0
LINE
  5
154
330
2
100
AcDbEntity
  8
B
100
AcDbLine
 10
-292.433078345975
 20
132.8445650540295
 30
0.0
 11
-293.2330783459749
 21
132.8445650540295
 31
0.0
  0
LINE
  5
155
330
2
100
AcDbEntity
  8
B
100
AcDbLine
 10
-292.433078345975
 20
112.8445650540296
 30
0.0
 11
-293.2330783459752
 21
112.8445650540296
 31
0.0
  0
DIMENSION
  5
156
102
{ACAD_XDICTIONARY
360
157
102
}
102
{ACAD_REACTORS
330
158
102
}
330
2
100
AcDbEntity
  8
DIM
100
AcDbDimension
280
     0
  2
*D9
 10
-218.5902337155144
 20
128.0445650540297
 30
0.0
 11
-218.5902337155142
 21
130.4445650540298
 31
0.0
 12
-1396.338883985193
 22
909.6480505747786
 32
0.0
  1
h
 71
     5
 42
0.1199999999999989
 73
     0
 74
     0
 75
     0
  3
DIM40
100
AcDbAlignedDimension
 13
-231.6370470695781
 23
132.8445650540296
 33
0.0
 14
-226.8370470695784
 24
128.0445650540297
 34
0.0
 50
90.0
100
AcDbRotatedDimension
1001
ACAD_DSTYLE_DIMINSPECT
1070
   396
1000
100%
1070
   395
1000

1070
   394
1070
    33
1070
   393
1070
     0
  0
DIMENSION
  5
168
102
{ACAD_XDICTIONARY
360
169
102
}
102
{ACAD_REACTORS
330
16A
102
}
330
2
100
AcDbEntity
  8
DIM
100
AcDbDimension
280
     0
  2
*D10
 10
-226.8370470695784
 20
138.9869215835629
 30
0.0
 11
-229.2370470695782
 21
138.9869215835629
 31
0.0
 12
-1396.338883985193
 22
909.6480505747786
 32
0.0
  1
h
 71
     5
 42
0.1199999999999932
 73
     0
 74
     0
 75
     0
  3
DIM40
100
AcDbAlignedDimension
 13
-231.6370470695781
 23
132.8445650540296
 33
0.0
 14
-226.8370470695784
 24
128.0445650540297
 34
0.0
100
AcDbRotatedDimension
1001
ACAD_DSTYLE_DIMINSPECT
1070
   396
1000
100%
1070
   395
1000

1070
   394
1070
    33
1070
   393
1070
     0
  0
DIMENSION
  5
17A
102
{ACAD_XDICTIONARY
360
17B
102
}
102
{ACAD_REACTORS
330
17C
102
}
330
2
100
AcDbEntity
  8
DIM
100
AcDbDimension
280
     0
  2
*D11
 10
-220.4254750432387
 20
110.8445650540295
 30
0.0
 11
-225.5397607575241
 21
104.8445650540296
 31
0.0
 12
-1396.338883985193
 22
909.6480505747786
 32
0.0
  1
L1
 71
     5
 42
0.0500000000000057
 73
     0
 74
     0
 75
     0
  3
DIM40
100
AcDbAlignedDimension
 13
-226.8370470695786
 23
112.8445650540297
 33
0.0
 14
-224.8370470695784
 24
110.8445650540295
 34
0.0
 50
90.0
100
AcDbRotatedDimension
1001
ACAD_DSTYLE_DIMINSPECT
1070
   396
1000
100%
1070
   395
1000

1070
   394
1070
    33
1070
   393
1070
     0
  0
LINE
  5
18C
330
2
100
AcDbEntity
  8
B
100
AcDbLine
 10
-365.524512884173
 20
16.77222322986881
 30
0.0
 11
-351.5245128841802
 21
16.77222322986881
 31
0.0
  0
LINE
  5
18D
330
2
100
AcDbEntity
  8
B
100
AcDbLine
 10
-351.5245128841802
 20
16.77222322986881
 30
0.0
 11
-351.5245128841802
 21
-7.227776770131185
 31
0.0
  0
LINE
  5
18E
102
{ACAD_REACTORS
330
1BB
102
}
330
2
100
AcDbEntity
  8
B
100
AcDbLine
 10
-351.5245128841802
 20
-7.227776770131185
 30
0.0
 11
-365.524512884173
 21
-7.227776770131185
 31
0.0
  0
LINE
  5
18F
102
{ACAD_REACTORS
330
199
330
1BB
102
}
330
2
100
AcDbEntity
  8
B
100
AcDbLine
 10
-365.524512884173
 20
-7.227776770131185
 30
0.0
 11
-365.524512884173
 21
16.77222322986881
 31
0.0
  0
LINE
  5
190
330
2
100
AcDbEntity
  8
B
100
AcDbLine
 10
-339.5245128841657
 20
16.77222322986881
 30
0.0
 11
-325.524512884173
 21
16.77222322986881
 31
0.0
  0
LINE
  5
191
102
{ACAD_REACTORS
330
199
330
1CD
102
}
330
2
100
AcDbEntity
  8
B
100
AcDbLine
 10
-325.524512884173
 20
16.77222322986881
 30
0.0
 11
-325.524512884173
 21
-7.227776770131185
 31
0.0
  0
LINE
  5
192
102
{ACAD_REACTORS
330
1A9
330
1CD
102
}
330
2
100
AcDbEntity
  8
B
100
AcDbLine
 10
-325.524512884173
 20
-7.227776770131185
 30
0.0
 11
-339.5245128841657
 21
-7.227776770131185
 31
0.0
  0
LINE
  5
193
102
{ACAD_REACTORS
330
1A9
102
}
330
2
100
AcDbEntity
  8
B
100
AcDbLine
 10
-339.5245128841657
 20
-7.227776770131185
 30
0.0
 11
-339.5245128841657
 21
16.77222322986881
 31
0.0
  0
LINE
  5
194
330
2
100
AcDbEntity
  8
C
100
AcDbLine
 10
-358.5245128841766
 20
19.32972093522176
 30
0.0
 11
-358.5245128841766
 21
-9.785274475484129
 31
0.0
  0
LINE
  5
195
330
2
100
AcDbEntity
  8
C
100
AcDbLine
 10
-368.3562377041771
 20
4.772223229868814
 30
0.0
 11
-322.6927880641688
 21
4.772223229868814
 31
0.0
  0
LINE
  5
196
330
2
100
AcDbEntity
  8
C
100
AcDbLine
 10
-332.5245128841693
 20
19.32972093522176
 30
0.0
 11
-332.5245128841693
 21
-9.785274475484129
 31
0.0
  0
DIMENSION
  5
197
102
{ACAD_XDICTIONARY
360
198
102
}
102
{ACAD_REACTORS
330
199
102
}
330
2
100
AcDbEntity
  8
DIM
100
AcDbDimension
280
     0
  2
*D12
 10
-325.524512884173
 20
26.18667317205018
 30
0.0
 11
-345.524512884173
 21
26.18667317205018
 31
0.0
 12
-1396.338883985193
 22
909.6480505747786
 32
0.0
 71
     5
 73
     0
 74
     0
 75
     0
  3
DIM40
100
AcDbAlignedDimension
 13
-365.524512884173
 23
16.77222322986881
 33
0.0
 14
-325.524512884173
 24
16.77222322986881
 34
0.0
100
AcDbRotatedDimension
1001
ACAD
1000
DSTYLE
1002
{
1070
   271
1070
     2
1002
}
  0
DIMENSION
  5
1A7
102
{ACAD_XDICTIONARY
360
1A8
102
}
102
{ACAD_REACTORS
330
1A9
102
}
330
2
100
AcDbEntity
  8
DIM
100
AcDbDimension
280
     0
  2
*D13
 10
-339.5245128841657
 20
-15.81477338687182
 30
0.0
 11
-332.5245128841693
 21
-15.81477338687182
 31
0.0
 12
-1396.338883985193
 22
909.6480505747786
 32
0.0
 71
     5
 42
0.3499999999998181
 73
     0
 74
     0
 75
     0
  3
DIM40
100
AcDbAlignedDimension
 13
-325.524512884173
 23
-7.227776770131185
 33
0.0
 14
-339.5245128841657
 24
-7.227776770131185
 34
0.0
100
AcDbRotatedDimension
1001
ACAD
1000
DSTYLE
1002
{
1070
   271
1070
     2
1002
}
  0
DIMENSION
  5
1B9
102
{ACAD_XDICTIONARY
360
1BA
102
}
102
{ACAD_REACTORS
330
1BB
102
}
330
2
100
AcDbEntity
  8
DIM
100
AcDbDimension
280
     0
  2
*D14
 10
-365.524512884173
 20
-15.81477338687182
 30
0.0
 11
-358.5245128841766
 21
-15.81477338687182
 31
0.0
 12
-1396.338883985193
 22
909.6480505747786
 32
0.0
 71
     5
 42
0.3499999999998181
 73
     0
 74
     0
 75
     0
  3
DIM40
100
AcDbAlignedDimension
 13
-351.5245128841802
 23
-7.227776770131185
 33
0.0
 14
-365.524512884173
 24
-7.227776770131185
 34
0.0
100
AcDbRotatedDimension
1001
ACAD
1000
DSTYLE
1002
{
1070
   271
1070
     2
1002
}
  0
DIMENSION
  5
1CB
102
{ACAD_XDICTIONARY
360
1CC
102
}
102
{ACAD_REACTORS
330
1CD
102
}
330
2
100
AcDbEntity
  8
DIM
100
AcDbDimension
280
     0
  2
*D15
 10
-309.2904323705365
 20
-7.227776770131185
 30
0.0
 11
-309.2904323705363
 21
4.772223229868927
 31
0.0
 12
-1396.338883985193
 22
909.6480505747786
 32
0.0
 71
     5
 42
0.6000000000000001
 73
     0
 74
     0
 75
     0
  3
DIM40
100
AcDbAlignedDimension
 13
-325.524512884173
 23
16.77222322986881
 33
0.0
 14
-325.524512884173
 24
-7.227776770131185
 34
0.0
 50
90.0
100
AcDbRotatedDimension
1001
ACAD
1000
DSTYLE
1002
{
1070
   271
1070
     2
1002
}
  0
ENDSEC
  0
SECTION
  2
OBJECTS
  0
DICTIONARY
  5
B
330
0
100
AcDbDictionary
281
     1
  3
ACAD_COLOR
350
3C
  3
ACAD_GROUP
350
37
  3
ACAD_LAYOUT
350
11
  3
ACAD_MATERIAL
350
D
  3
ACAD_MLEADERSTYLE
350
3F
  3
ACAD_MLINESTYLE
350
38
  3
ACAD_PLOTSETTINGS
350
39
  3
ACAD_PLOTSTYLENAME
350
A
  3
ACAD_SCALELIST
350
3D
  3
ACAD_TABLESTYLE
350
3E
  3
ACAD_VISUALSTYLE
350
27
  3
ACDB_RECOMPOSE_DATA
350
1DE
  3
AcDbVariableDictionary
350
40
  0
DICTIONARY
  5
29
330
24
100
AcDbDictionary
280
     1
281
     1
  0
DICTIONARY
  5
1A
330
19
100
AcDbDictionary
280
     1
281
     1
  3
ACAD_LAYERSTATES
360
1B
  0
DICTIONARY
  5
7
330
6
100
AcDbDictionary
280
     1
281
     1
  3
ADSK_XREC_LAYER_RECONCILED
360
8
  0
DICTIONARY
  5
81
330
80
100
AcDbDictionary
280
     1
281
     1
  3
ADSK_XREC_LAYER_RECONCILED
360
82
  0
DICTIONARY
  5
101
330
100
100
AcDbDictionary
280
     1
281
     1
  3
ADSK_XREC_LAYER_RECONCILED
360
102
  0
DICTIONARY
  5
78
330
77
100
AcDbDictionary
280
     1
281
     1
  0
DICTIONARY
  5
3
330
2
100
AcDbDictionary
280
     1
281
     1
  3
ACAD_SORTENTS
360
1DB
  0
DICTIONARY
  5
A8
330
A7
100
AcDbDictionary
280
     1
281
     1
  3
ACAD_DIMASSOC
360
A9
  0
DICTIONARY
  5
BB
330
BA
100
AcDbDictionary
280
     1
281
     1
  3
ACAD_DIMASSOC
360
BC
  0
DICTIONARY
  5
CB
330
CA
100
AcDbDictionary
280
     1
281
     1
  3
ACAD_DIMASSOC
360
CC
  0
DICTIONARY
  5
DC
330
DB
100
AcDbDictionary
280
     1
281
     1
  3
ACAD_DIMASSOC
360
DD
  0
DICTIONARY
  5
EE
330
ED
100
AcDbDictionary
280
     1
281
     1
  3
ACAD_DIMASSOC
360
EF
  0
DICTIONARY
  5
107
330
106
100
AcDbDictionary
280
     1
281
     1
  3
ACAD_DIMASSOC
360
108
  0
DICTIONARY
  5
117
330
116
100
AcDbDictionary
280
     1
281
     1
  3
ACAD_DIMASSOC
360
118
  0
DICTIONARY
  5
128
330
127
100
AcDbDictionary
280
     1
281
     1
  3
ACAD_DIMASSOC
360
129
  0
DICTIONARY
  5
138
330
137
100
AcDbDictionary
280
     1
281
     1
  3
ACAD_DIMASSOC
360
139
  0
DICTIONARY
  5
157
330
156
100
AcDbDictionary
280
     1
281
     1
  3
ACAD_DIMASSOC
360
158
  0
DICTIONARY
  5
169
330
168
100
AcDbDictionary
280
     1
281
     1
  3
ACAD_DIMASSOC
360
16A
  0
DICTIONARY
  5
17B
330
17A
100
AcDbDictionary
280
     1
281
     1
  3
ACAD_DIMASSOC
360
17C
  0
DICTIONARY
  5
198
330
197
100
AcDbDictionary
280
     1
281
     1
  3
ACAD_DIMASSOC
360
199
  0
DICTIONARY
  5
1A8
330
1A7
100
AcDbDictionary
280
     1
281
     1
  3
ACAD_DIMASSOC
360
1A9
  0
DICTIONARY
  5
1BA
330
1B9
100
AcDbDictionary
280
     1
281
     1
  3
ACAD_DIMASSOC
360
1BB
  0
DICTIONARY
  5
1CC
330
1CB
100
AcDbDictionary
280
     1
281
     1
  3
ACAD_DIMASSOC
360
1CD
  0
DICTIONARY
  5
3C
102
{ACAD_REACTORS
330
B
102
}
330
B
100
AcDbDictionary
281
     1
  0
DICTIONARY
  5
37
102
{ACAD_REACTORS
330
B
102
}
330
B
100
AcDbDictionary
281
     1
  0
DICTIONARY
  5
11
102
{ACAD_REACTORS
330
B
102
}
330
B
100
AcDbDictionary
281
     1
  3
Layout1
350
18
  3
Model
350
10
  0
DICTIONARY
  5
D
102
{ACAD_REACTORS
330
B
102
}
330
B
100
AcDbDictionary
281
     1
  3
ByBlock
350
3B
  3
ByLayer
350
3A
  3
Global
350
C
  0
DICTIONARY
  5
3F
102
{ACAD_REACTORS
330
B
102
}
330
B
100
AcDbDictionary
281
     1
  0
DICTIONARY
  5
38
102
{ACAD_REACTORS
330
B
102
}
330
B
100
AcDbDictionary
281
     1
  3
Standard
350
50
  0
DICTIONARY
  5
39
102
{ACAD_REACTORS
330
B
102
}
330
B
100
AcDbDictionary
281
     1
  0
ACDBDICTIONARYWDFLT
  5
A
102
{ACAD_REACTORS
330
B
102
}
330
B
100
AcDbDictionary
281
     1
  3
Normal
350
9
100
AcDbDictionaryWithDefault
340
9
  0
DICTIONARY
  5
3D
102
{ACAD_REACTORS
330
B
102
}
330
B
100
AcDbDictionary
281
     1
  3
A0
350
55
  3
A1
350
56
  3
A2
350
57
  3
A3
350
58
  3
A4
350
59
  3
A5
350
5A
  3
A6
350
5B
  3
A7
350
5C
  3
A8
350
5D
  3
A9
350
5E
  3
B0
350
5F
  3
B1
350
60
  3
B2
350
61
  3
B3
350
62
  3
B4
350
63
  3
B5
350
64
  3
B6
350
65
  3
B7
350
66
  3
B8
350
67
  3
B9
350
68
  3
C0
350
69
  3
C1
350
6A
  3
C2
350
6B
  3
C3
350
6C
  3
C4
350
6D
  3
C5
350
6E
  3
C6
350
6F
  3
C7
350
70
  3
C8
350
71
  3
C9
350
72
  3
D0
350
73
  3
D1
350
74
  3
D2
350
75
  0
DICTIONARY
  5
3E
102
{ACAD_REACTORS
330
B
102
}
330
B
100
AcDbDictionary
281
     1
  3
Standard
350
51
  0
DICTIONARY
  5
27
102
{ACAD_REACTORS
330
B
102
}
330
B
100
AcDbDictionary
281
     1
  3
2dWireframe
350
26
  3
EdgeColorOff
350
B1
  3
Realistic
350
53
  3
Wireframe
350
54
  0
XRECORD
  5
1DE
102
{ACAD_REACTORS
330
B
102
}
330
B
100
AcDbXrecord
280
     1
 90
        1
330
51
  0
DICTIONARY
  5
40
102
{ACAD_REACTORS
330
B
102
}
330
B
100
AcDbDictionary
281
     1
  3
CANNOSCALE
350
41
  3
CMLEADERSTYLE
350
42
  3
CTABLESTYLE
350
43
  3
CVIEWDETAILSTYLE
350
44
  3
CVIEWSECTIONSTYLE
350
45
  3
DIMASSOC
350
46
  3
HPCOLOR
350
47
  3
HPINHERIT
350
48
  3
HPLAYER
350
49
  3
HPTRANSPARENCY
350
4A
  3
INDEXCTL
350
4B
  3
LAYEREVAL
350
4C
  3
LAYERNOTIFY
350
4D
  3
LIGHTINGUNITS
350
4E
  3
MSLTSCALE
350
4F
  0
DICTIONARY
  5
1B
102
{ACAD_REACTORS
330
1A
102
}
330
1A
100
AcDbDictionary
281
     1
  0
XRECORD
  5
8
102
{ACAD_REACTORS
330
7
102
}
330
7
100
AcDbXrecord
280
     1
290
     1
  0
XRECORD
  5
82
102
{ACAD_REACTORS
330
81
102
}
330
81
100
AcDbXrecord
280
     1
290
     1
  0
XRECORD
  5
102
102
{ACAD_REACTORS
330
101
102
}
330
101
100
AcDbXrecord
280
     1
290
     1
  0
SORTENTSTABLE
  5
1DB
102
{ACAD_REACTORS
330
3
102
}
330
3
100
AcDbSortentsTable
330
2
  0
DIMASSOC
  5
A9
102
{ACAD_REACTORS
330
A8
102
}
330
A8
100
AcDbDimAssoc
330
A7
 90
        3
 70
     0
 71
     0
  1
AcDbOsnapPointRef
 72
    13
331
87
 73
     2
 91
        0
 40
0.0
 10
0.0
 20
0.0
 30
2.000000000000000E+50
 75
     0
  1
AcDbOsnapPointRef
 72
    13
331
86
 73
     2
 91
        0
 40
0.0
 10
0.0
 20
0.0
 30
2.000000000000000E+50
 75
     0
  0
DIMASSOC
  5
BC
102
{ACAD_REACTORS
330
BB
102
}
330
BB
100
AcDbDimAssoc
330
BA
 90
        3
 70
     0
 71
     0
  1
AcDbOsnapPointRef
 72
     1
331
85
 73
     2
 91
        0
 40
1.0
 10
0.0
 20
0.0
 30
2.000000000000000E+50
 75
     0
  1
AcDbOsnapPointRef
 72
    13
331
85
 73
     2
 91
        0
 40
0.0
 10
0.0
 20
0.0
 30
2.000000000000000E+50
 75
     0
  0
DIMASSOC
  5
CC
102
{ACAD_REACTORS
330
CB
102
}
330
CB
100
AcDbDimAssoc
330
CA
 90
        3
 70
     0
 71
     0
  1
AcDbOsnapPointRef
 72
    13
331
8A
 73
     2
 91
        0
 40
0.0
 10
0.0
 20
0.0
 30
2.000000000000000E+50
 75
     0
  1
AcDbOsnapPointRef
 72
     1
331
94
 73
     2
 91
        0
 40
1.0
 10
0.0
 20
0.0
 30
2.000000000000000E+50
 75
     0
  0
DIMASSOC
  5
DD
102
{ACAD_REACTORS
330
DC
102
}
330
DC
100
AcDbDimAssoc
330
DB
 90
        3
 70
     0
 71
     0
  1
AcDbOsnapPointRef
 72
    13
331
89
 73
     2
 91
        0
 40
0.0
 10
0.0
 20
0.0
 30
2.000000000000000E+50
 75
     0
  1
AcDbOsnapPointRef
 72
    13
331
91
 73
     2
 91
        0
 40
0.0
 10
0.0
 20
0.0
 30
2.000000000000000E+50
 75
     0
  0
DIMASSOC
  5
EF
102
{ACAD_REACTORS
330
EE
102
}
330
EE
100
AcDbDimAssoc
330
ED
 90
        3
 70
     0
 71
     0
  1
AcDbOsnapPointRef
 72
     1
331
89
 73
     2
 91
        0
 40
1.0
 10
0.0
 20
0.0
 30
2.000000000000000E+50
 75
     0
  1
AcDbOsnapPointRef
 72
    13
331
91
 73
     2
 91
        0
 40
0.0
 10
0.0
 20
0.0
 30
2.000000000000000E+50
 75
     0
  0
DIMASSOC
  5
108
102
{ACAD_REACTORS
330
107
102
}
330
107
100
AcDbDimAssoc
330
106
 90
        3
 70
     0
 71
     0
  1
AcDbOsnapPointRef
 72
    13
331
FF
 73
     2
 91
        0
 40
0.0
 10
0.0
 20
0.0
 30
2.000000000000000E+50
 75
     0
  1
AcDbOsnapPointRef
 72
    13
331
105
 73
     2
 91
        0
 40
0.0
 10
0.0
 20
0.0
 30
2.000000000000000E+50
 75
     0
  0
DIMASSOC
  5
118
102
{ACAD_REACTORS
330
117
102
}
330
117
100
AcDbDimAssoc
330
116
 90
        3
 70
     0
 71
     0
  1
AcDbOsnapPointRef
 72
    13
331
A4
 73
     2
 91
        0
 40
0.0
 10
0.0
 20
0.0
 30
2.000000000000000E+50
 75
     0
  1
AcDbOsnapPointRef
 72
    13
331
9A
 73
     2
 91
        0
 40
0.0
 10
0.0
 20
0.0
 30
2.000000000000000E+50
 75
     0
  0
DIMASSOC
  5
129
102
{ACAD_REACTORS
330
128
102
}
330
128
100
AcDbDimAssoc
330
127
 90
        3
 70
     0
 71
     0
  1
AcDbOsnapPointRef
 72
    13
331
A4
 73
     2
 91
        0
 40
0.0
 10
0.0
 20
0.0
 30
2.000000000000000E+50
 75
     0
  1
AcDbOsnapPointRef
 72
    13
331
A2
 73
     2
 91
        0
 40
0.0
 10
0.0
 20
0.0
 30
2.000000000000000E+50
 75
     0
  0
DIMASSOC
  5
139
102
{ACAD_REACTORS
330
138
102
}
330
138
100
AcDbDimAssoc
330
137
 90
        3
 70
     0
 71
     0
  1
AcDbOsnapPointRef
 72
     1
331
9E
 73
     2
 91
        0
 40
1.0
 10
0.0
 20
0.0
 30
2.000000000000000E+50
 75
     0
  1
AcDbOsnapPointRef
 72
     1
331
A2
 73
     2
 91
        0
 40
1.0
 10
0.0
 20
0.0
 30
2.000000000000000E+50
 75
     0
  0
DIMASSOC
  5
158
102
{ACAD_REACTORS
330
157
102
}
330
157
100
AcDbDimAssoc
330
156
 90
        3
 70
     0
 71
     0
  1
AcDbOsnapPointRef
 72
     1
331
A5
 73
     2
 91
        0
 40
1.0
 10
0.0
 20
0.0
 30
2.000000000000000E+50
 75
     0
  1
AcDbOsnapPointRef
 72
     1
331
A6
 73
     2
 91
        0
 40
1.0
 10
0.0
 20
0.0
 30
2.000000000000000E+50
 75
     0
  0
DIMASSOC
  5
16A
102
{ACAD_REACTORS
330
169
102
}
330
169
100
AcDbDimAssoc
330
168
 90
        3
 70
     0
 71
     0
  1
AcDbOsnapPointRef
 72
     1
331
A5
 73
     2
 91
        0
 40
1.0
 10
0.0
 20
0.0
 30
2.000000000000000E+50
 75
     0
  1
AcDbOsnapPointRef
 72
     1
331
A6
 73
     2
 91
        0
 40
1.0
 10
0.0
 20
0.0
 30
2.000000000000000E+50
 75
     0
  0
DIMASSOC
  5
17C
102
{ACAD_REACTORS
330
17B
102
}
330
17B
100
AcDbDimAssoc
330
17A
 90
        3
 70
     0
 71
     0
  1
AcDbOsnapPointRef
 72
     1
331
A3
 73
     2
 91
        0
 40
1.0
 10
0.0
 20
0.0
 30
2.000000000000000E+50
 75
     0
  1
AcDbOsnapPointRef
 72
     1
331
9B
 73
     2
 91
        0
 40
1.0
 10
0.0
 20
0.0
 30
2.000000000000000E+50
 75
     0
  0
DIMASSOC
  5
199
102
{ACAD_REACTORS
330
198
102
}
330
198
100
AcDbDimAssoc
330
197
 90
        3
 70
     0
 71
     0
  1
AcDbOsnapPointRef
 72
     1
331
18F
 73
     2
 91
        0
 40
1.0
 10
0.0
 20
0.0
 30
2.000000000000000E+50
 75
     0
  1
AcDbOsnapPointRef
 72
    13
331
191
 73
     2
 91
        0
 40
0.0
 10
0.0
 20
0.0
 30
2.000000000000000E+50
 75
     0
  0
DIMASSOC
  5
1A9
102
{ACAD_REACTORS
330
1A8
102
}
330
1A8
100
AcDbDimAssoc
330
1A7
 90
        3
 70
     0
 71
     0
  1
AcDbOsnapPointRef
 72
    13
331
192
 73
     2
 91
        0
 40
0.0
 10
0.0
 20
0.0
 30
2.000000000000000E+50
 75
     0
  1
AcDbOsnapPointRef
 72
    13
331
193
 73
     2
 91
        0
 40
0.0
 10
0.0
 20
0.0
 30
2.000000000000000E+50
 75
     0
  0
DIMASSOC
  5
1BB
102
{ACAD_REACTORS
330
1BA
102
}
330
1BA
100
AcDbDimAssoc
330
1B9
 90
        3
 70
     0
 71
     0
  1
AcDbOsnapPointRef
 72
    13
331
18E
 73
     2
 91
        0
 40
0.0
 10
0.0
 20
0.0
 30
2.000000000000000E+50
 75
     0
  1
AcDbOsnapPointRef
 72
    13
331
18F
 73
     2
 91
        0
 40
0.0
 10
0.0
 20
0.0
 30
2.000000000000000E+50
 75
     0
  0
DIMASSOC
  5
1CD
102
{ACAD_REACTORS
330
1CC
102
}
330
1CC
100
AcDbDimAssoc
330
1CB
 90
        3
 70
     0
 71
     0
  1
AcDbOsnapPointRef
 72
    13
331
191
 73
     2
 91
        0
 40
0.0
 10
0.0
 20
0.0
 30
2.000000000000000E+50
 75
     0
  1
AcDbOsnapPointRef
 72
    13
331
192
 73
     2
 91
        0
 40
0.0
 10
0.0
 20
0.0
 30
2.000000000000000E+50
 75
     0
  0
LAYOUT
  5
18
102
{ACAD_REACTORS
330
11
102
}
330
11
100
AcDbPlotSettings
  1

  2

  4

  6

 40
0.0
 41
0.0
 42
0.0
 43
0.0
 44
0.0
 45
0.0
 46
0.0
 47
0.0
 48
0.0
 49
0.0
140
0.0
141
0.0
142
1.0
143
1.0
 70
   688
 72
     0
 73
     0
 74
     5
  7

 75
    16
147
1.0
 76
     0
 77
     2
 78
   300
148
0.0
149
0.0
100
AcDbLayout
  1
Layout1
 70
     1
 71
     1
 10
0.0
 20
0.0
 11
12.0
 21
9.0
 12
0.0
 22
0.0
 32
0.0
 14
1.000000000000000E+20
 24
1.000000000000000E+20
 34
1.000000000000000E+20
 15
-1.000000000000000E+20
 25
-1.000000000000000E+20
 35
-1.000000000000000E+20
146
0.0
 13
0.0
 23
0.0
 33
0.0
 16
1.0
 26
0.0
 36
0.0
 17
0.0
 27
1.0
 37
0.0
 76
     0
330
15
  0
LAYOUT
  5
10
102
{ACAD_XDICTIONARY
360
12
102
}
102
{ACAD_REACTORS
330
11
102
}
330
11
100
AcDbPlotSettings
  1

  2
Microsoft XPS Document Writer
  4
Letter
  6

 40
3.174999952316284
 41
3.174999952316284
 42
3.175003051757812
 43
3.17498779296875
 44
215.8999938964844
 45
279.3999938964844
 46
0.0
 47
0.0
 48
0.0
 49
0.0
140
0.0
141
0.0
142
1.0
143
6.849119936724107
 70
 11952
 72
     0
 73
     1
 74
     0
  7

 75
     0
147
0.1460041595472913
 76
     0
 77
     2
 78
   300
148
0.9590289534723908
149
-206.7291300837655
100
AcDbLayout
  1
Model
 70
     1
 71
     0
 10
0.0
 20
0.0
 11
12.0
 21
9.0
 12
0.0
 22
0.0
 32
0.0
 14
0.0
 24
0.0
 34
0.0
 15
0.0
 25
0.0
 35
0.0
146
0.0
 13
0.0
 23
0.0
 33
0.0
 16
1.0
 26
0.0
 36
0.0
 17
0.0
 27
1.0
 37
0.0
 76
     0
330
2
331
25
1001
ACAD_PSEXT
1000
Microsoft XPS Document Writer
1000
Microsoft XPS Document Writer
1000
XPSPort:
1000

1070
     0
  0
MATERIAL
  5
3B
102
{ACAD_REACTORS
330
D
102
}
330
D
100
AcDbMaterial
  1
ByBlock
 73
     1
 78
     1
172
     1
176
     1
270
     1
274
     1
 94
       63
  0
MATERIAL
  5
3A
102
{ACAD_REACTORS
330
D
102
}
330
D
100
AcDbMaterial
  1
ByLayer
 73
     1
 78
     1
172
     1
176
     1
270
     1
274
     1
 94
       63
  0
MATERIAL
  5
C
102
{ACAD_REACTORS
330
D
102
}
330
D
100
AcDbMaterial
  1
Global
 73
     1
 78
     1
172
     1
176
     1
270
     1
274
     1
 94
       63
  0
MLINESTYLE
  5
50
102
{ACAD_REACTORS
330
38
102
}
330
38
100
AcDbMlineStyle
  2
STANDARD
 70
     0
  3

 62
   256
 51
90.0
 52
90.0
 71
     2
 49
0.5
 62
   256
  6
BYLAYER
 49
-0.5
 62
   256
  6
BYLAYER
  0
ACDBPLACEHOLDER
  5
9
102
{ACAD_REACTORS
330
A
102
}
330
A
  0
SCALE
  5
55
102
{ACAD_REACTORS
330
3D
102
}
330
3D
100
AcDbScale
 70
     0
300
1:1
140
1.0
141
1.0
290
     1
  0
SCALE
  5
56
102
{ACAD_REACTORS
330
3D
102
}
330
3D
100
AcDbScale
 70
     0
300
1:2
140
1.0
141
2.0
290
     0
  0
SCALE
  5
57
102
{ACAD_REACTORS
330
3D
102
}
330
3D
100
AcDbScale
 70
     0
300
1:4
140
1.0
141
4.0
290
     0
  0
SCALE
  5
58
102
{ACAD_REACTORS
330
3D
102
}
330
3D
100
AcDbScale
 70
     0
300
1:5
140
1.0
141
5.0
290
     0
  0
SCALE
  5
59
102
{ACAD_REACTORS
330
3D
102
}
330
3D
100
AcDbScale
 70
     0
300
1:8
140
1.0
141
8.0
290
     0
  0
SCALE
  5
5A
102
{ACAD_REACTORS
330
3D
102
}
330
3D
100
AcDbScale
 70
     0
300
1:10
140
1.0
141
10.0
290
     0
  0
SCALE
  5
5B
102
{ACAD_REACTORS
330
3D
102
}
330
3D
100
AcDbScale
 70
     0
300
1:16
140
1.0
141
16.0
290
     0
  0
SCALE
  5
5C
102
{ACAD_REACTORS
330
3D
102
}
330
3D
100
AcDbScale
 70
     0
300
1:20
140
1.0
141
20.0
290
     0
  0
SCALE
  5
5D
102
{ACAD_REACTORS
330
3D
102
}
330
3D
100
AcDbScale
 70
     0
300
1:30
140
1.0
141
30.0
290
     0
  0
SCALE
  5
5E
102
{ACAD_REACTORS
330
3D
102
}
330
3D
100
AcDbScale
 70
     0
300
1:40
140
1.0
141
40.0
290
     0
  0
SCALE
  5
5F
102
{ACAD_REACTORS
330
3D
102
}
330
3D
100
AcDbScale
 70
     0
300
1:50
140
1.0
141
50.0
290
     0
  0
SCALE
  5
60
102
{ACAD_REACTORS
330
3D
102
}
330
3D
100
AcDbScale
 70
     0
300
1:100
140
1.0
141
100.0
290
     0
  0
SCALE
  5
61
102
{ACAD_REACTORS
330
3D
102
}
330
3D
100
AcDbScale
 70
     0
300
2:1
140
2.0
141
1.0
290
     0
  0
SCALE
  5
62
102
{ACAD_REACTORS
330
3D
102
}
330
3D
100
AcDbScale
 70
     0
300
4:1
140
4.0
141
1.0
290
     0
  0
SCALE
  5
63
102
{ACAD_REACTORS
330
3D
102
}
330
3D
100
AcDbScale
 70
     0
300
8:1
140
8.0
141
1.0
290
     0
  0
SCALE
  5
64
102
{ACAD_REACTORS
330
3D
102
}
330
3D
100
AcDbScale
 70
     0
300
10:1
140
10.0
141
1.0
290
     0
  0
SCALE
  5
65
102
{ACAD_REACTORS
330
3D
102
}
330
3D
100
AcDbScale
 70
     0
300
100:1
140
100.0
141
1.0
290
     0
  0
SCALE
  5
66
102
{ACAD_REACTORS
330
3D
102
}
330
3D
100
AcDbScale
 70
     0
300
1/128" = 1'-0"
140
0.0078125
141
12.0
290
     0
  0
SCALE
  5
67
102
{ACAD_REACTORS
330
3D
102
}
330
3D
100
AcDbScale
 70
     0
300
1/64" = 1'-0"
140
0.015625
141
12.0
290
     0
  0
SCALE
  5
68
102
{ACAD_REACTORS
330
3D
102
}
330
3D
100
AcDbScale
 70
     0
300
1/32" = 1'-0"
140
0.03125
141
12.0
290
     0
  0
SCALE
  5
69
102
{ACAD_REACTORS
330
3D
102
}
330
3D
100
AcDbScale
 70
     0
300
1/16" = 1'-0"
140
0.0625
141
12.0
290
     0
  0
SCALE
  5
6A
102
{ACAD_REACTORS
330
3D
102
}
330
3D
100
AcDbScale
 70
     0
300
3/32" = 1'-0"
140
0.09375
141
12.0
290
     0
  0
SCALE
  5
6B
102
{ACAD_REACTORS
330
3D
102
}
330
3D
100
AcDbScale
 70
     0
300
1/8" = 1'-0"
140
0.125
141
12.0
290
     0
  0
SCALE
  5
6C
102
{ACAD_REACTORS
330
3D
102
}
330
3D
100
AcDbScale
 70
     0
300
3/16" = 1'-0"
140
0.1875
141
12.0
290
     0
  0
SCALE
  5
6D
102
{ACAD_REACTORS
330
3D
102
}
330
3D
100
AcDbScale
 70
     0
300
1/4" = 1'-0"
140
0.25
141
12.0
290
     0
  0
SCALE
  5
6E
102
{ACAD_REACTORS
330
3D
102
}
330
3D
100
AcDbScale
 70
     0
300
3/8" = 1'-0"
140
0.375
141
12.0
290
     0
  0
SCALE
  5
6F
102
{ACAD_REACTORS
330
3D
102
}
330
3D
100
AcDbScale
 70
     0
300
1/2" = 1'-0"
140
0.5
141
12.0
290
     0
  0
SCALE
  5
70
102
{ACAD_REACTORS
330
3D
102
}
330
3D
100
AcDbScale
 70
     0
300
3/4" = 1'-0"
140
0.75
141
12.0
290
     0
  0
SCALE
  5
71
102
{ACAD_REACTORS
330
3D
102
}
330
3D
100
AcDbScale
 70
     0
300
1" = 1'-0"
140
1.0
141
12.0
290
     0
  0
SCALE
  5
72
102
{ACAD_REACTORS
330
3D
102
}
330
3D
100
AcDbScale
 70
     0
300
1-1/2" = 1'-0"
140
1.5
141
12.0
290
     0
  0
SCALE
  5
73
102
{ACAD_REACTORS
330
3D
102
}
330
3D
100
AcDbScale
 70
     0
300
3" = 1'-0"
140
3.0
141
12.0
290
     0
  0
SCALE
  5
74
102
{ACAD_REACTORS
330
3D
102
}
330
3D
100
AcDbScale
 70
     0
300
6" = 1'-0"
140
6.0
141
12.0
290
     0
  0
SCALE
  5
75
102
{ACAD_REACTORS
330
3D
102
}
330
3D
100
AcDbScale
 70
     0
300
1'-0" = 1'-0"
140
12.0
141
12.0
290
     0
  0
TABLESTYLE
  5
51
102
{ACAD_XDICTIONARY
360
52
102
}
102
{ACAD_REACTORS
330
3E
102
}
330
3E
100
AcDbTableStyle
280
     0
  3
Standard
 70
     0
 71
     0
 40
0.06
 41
0.06
280
     0
281
     0
  7
STANDARD
140
0.18
170
     2
 62
     0
 63
     7
283
     0
 90
      512
 91
        0
  1

274
    -2
284
     1
 64
     0
275
    -2
285
     1
 65
     0
276
    -2
286
     1
 66
     0
277
    -2
287
     1
 67
     0
278
    -2
288
     1
 68
     0
279
    -2
289
     1
 69
     0
  7
STANDARD
140
0.25
170
     5
 62
     0
 63
     7
283
     0
 90
      512
 91
        0
  1

274
    -2
284
     1
 64
     0
275
    -2
285
     1
 65
     0
276
    -2
286
     1
 66
     0
277
    -2
287
     1
 67
     0
278
    -2
288
     1
 68
     0
279
    -2
289
     1
 69
     0
  7
STANDARD
140
0.18
170
     5
 62
     0
 63
     7
283
     0
 90
      512
 91
        0
  1

274
    -2
284
     1
 64
     0
275
    -2
285
     1
 65
     0
276
    -2
286
     1
 66
     0
277
    -2
287
     1
 67
     0
278
    -2
288
     1
 68
     0
279
    -2
289
     1
 69
     0
  0
VISUALSTYLE
  5
26
102
{ACAD_REACTORS
330
27
102
}
330
27
100
AcDbVisualStyle
  2
2dWireframe
 70
     4
177
     3
291
     0
 70
    58
 90
        0
176
     1
 90
        2
176
     1
 90
        0
176
     1
 90
        0
176
     1
 40
0.6
176
     1
 40
30.0
176
     1
 62
     7
420
 16777215
176
     1
 90
        1
176
     1
 90
        4
176
     1
 62
     7
176
     1
 62
   257
176
     1
 90
        1
176
     1
 90
        1
176
     1
 40
1.0
176
     1
 90
        0
176
     1
 62
   257
176
     1
 40
1.0
176
     1
 90
        1
176
     1
 90
        6
176
     1
 90
        2
176
     1
 62
     7
176
     1
 90
        5
176
     1
 90
        0
176
     1
 90
        0
176
     1
290
     0
176
     1
 90
        1
176
     1
 40
0.0
176
     1
 90
        0
176
     1
290
     1
176
     1
290
     1
176
     1
290
     0
176
     1
290
     0
176
     1
290
     0
176
     1
290
     0
176
     1
290
     0
176
     1
290
     0
176
     1
290
     0
176
     1
 90
       50
176
     1
 40
0.0
176
     1
 40
1.0
176
     1
 90
        0
176
     1
 62
    18
420
        0
176
     1
 90
       50
176
     1
 90
        3
176
     1
 62
     5
420
      255
176
     1
290
     0
176
     1
 90
       50
176
     1
 90
       50
176
     1
 90
       50
176
     1
290
     0
176
     1
 90
       50
176
     1
 62
   256
176
     0
 40
1.0
176
     0
 90
        2
176
     1
  1
strokes_ogs.tif
176
     1
290
     0
176
     1
 40
1.0
176
     1
 40
1.0
176
     1
  0
VISUALSTYLE
  5
B1
102
{ACAD_REACTORS
330
27
102
}
330
27
100
AcDbVisualStyle
  2
EdgeColorOff
 70
    22
177
     3
291
     1
 70
    58
 90
        2
176
     0
 90
        2
176
     0
 90
        0
176
     0
 90
        0
176
     0
 40
0.6
176
     0
 40
30.0
176
     0
 62
     7
420
 16777215
176
     0
 90
        1
176
     0
 90
        4
176
     0
 62
     7
176
     0
 62
   257
176
     0
 90
        1
176
     0
 90
        1
176
     0
 40
1.0
176
     0
 90
        8
176
     2
 62
     7
176
     0
 40
1.0
176
     0
 90
        1
176
     0
 90
        6
176
     0
 90
        2
176
     0
 62
     7
176
     0
 90
        5
176
     0
 90
        0
176
     0
 90
        0
176
     0
290
     0
176
     0
 90
        1
176
     0
 40
0.0
176
     0
 90
        0
176
     0
290
     0
176
     1
290
     1
176
     1
290
     1
176
     1
290
     0
176
     1
290
     0
176
     1
290
     0
176
     1
290
     0
176
     1
290
     0
176
     1
290
     0
176
     1
 90
       50
176
     1
 40
0.0
176
     1
 40
1.0
176
     1
 90
        0
176
     1
 62
    18
420
        0
176
     1
 90
       50
176
     1
 90
        3
176
     1
 62
     5
420
      255
176
     1
290
     0
176
     1
 90
       50
176
     1
 90
       50
176
     1
 90
       50
176
     1
290
     0
176
     1
 90
       50
176
     1
 62
   256
176
     0
 40
1.0
176
     0
 90
        2
176
     1
  1
strokes_ogs.tif
176
     1
290
     0
176
     1
 40
1.0
176
     1
 40
1.0
176
     1
  0
VISUALSTYLE
  5
53
102
{ACAD_REACTORS
330
27
102
}
330
27
100
AcDbVisualStyle
  2
Realistic
 70
     8
177
     3
291
     0
 70
    58
 90
        2
176
     1
 90
        2
176
     1
 90
        0
176
     1
 90
        0
176
     1
 40
0.6
176
     1
 40
30.0
176
     1
 62
     7
420
 16777215
176
     1
 90
        1
176
     1
 90
        0
176
     1
 62
     7
176
     1
 62
   257
176
     1
 90
        1
176
     1
 90
        1
176
     1
 40
1.0
176
     1
 90
        8
176
     1
 62
     8
420
  7895160
176
     1
 40
1.0
176
     1
 90
        1
176
     1
 90
        6
176
     1
 90
        2
176
     1
 62
     7
176
     1
 90
        5
176
     1
 90
        0
176
     1
 90
        0
176
     1
290
     0
176
     1
 90
       13
176
     1
 40
0.0
176
     1
 90
        0
176
     1
290
     0
176
     1
290
     1
176
     1
290
     1
176
     1
290
     0
176
     1
290
     0
176
     1
290
     0
176
     1
290
     0
176
     1
290
     0
176
     1
290
     0
176
     1
 90
       50
176
     1
 40
0.0
176
     1
 40
1.0
176
     1
 90
        0
176
     1
 62
    18
420
        0
176
     1
 90
       50
176
     1
 90
        3
176
     1
 62
     5
420
      255
176
     1
290
     0
176
     1
 90
       50
176
     1
 90
       50
176
     1
 90
       50
176
     1
290
     0
176
     1
 90
       50
176
     1
 62
   256
176
     0
 40
1.0
176
     0
 90
        2
176
     1
  1
strokes_ogs.tif
176
     1
290
     0
176
     1
 40
1.0
176
     1
 40
1.0
176
     1
  0
VISUALSTYLE
  5
54
102
{ACAD_REACTORS
330
27
102
}
330
27
100
AcDbVisualStyle
  2
Wireframe
 70
     5
177
     3
291
     0
 70
    58
 90
        0
176
     1
 90
        2
176
     1
 90
        0
176
     1
 90
        0
176
     1
 40
0.6
176
     1
 40
30.0
176
     1
 62
     7
420
 16777215
176
     1
 90
        1
176
     1
 90
        4
176
     1
 62
     7
176
     1
 62
   257
176
     1
 90
        1
176
     1
 90
        1
176
     1
 40
1.0
176
     1
 90
        0
176
     1
 62
   257
176
     1
 40
1.0
176
     1
 90
        1
176
     1
 90
        6
176
     1
 90
        2
176
     1
 62
     7
176
     1
 90
        3
176
     1
 90
        0
176
     1
 90
        0
176
     1
290
     0
176
     1
 90
        1
176
     1
 40
0.0
176
     1
 90
        0
176
     1
290
     0
176
     1
290
     1
176
     1
290
     1
176
     1
290
     0
176
     1
290
     0
176
     1
290
     0
176
     1
290
     0
176
     1
290
     0
176
     1
290
     0
176
     1
 90
       50
176
     1
 40
0.0
176
     1
 40
1.0
176
     1
 90
        0
176
     1
 62
    18
420
        0
176
     1
 90
       50
176
     1
 90
        3
176
     1
 62
     5
420
      255
176
     1
290
     0
176
     1
 90
       50
176
     1
 90
       50
176
     1
 90
       50
176
     1
290
     0
176
     1
 90
       50
176
     1
 62
   256
176
     0
 40
1.0
176
     0
 90
        2
176
     1
  1
strokes_ogs.tif
176
     1
290
     0
176
     1
 40
1.0
176
     1
 40
1.0
176
     1
  0
DICTIONARYVAR
  5
41
102
{ACAD_REACTORS
330
40
102
}
330
40
100
DictionaryVariables
280
     0
  1
1:1
  0
DICTIONARYVAR
  5
42
102
{ACAD_REACTORS
330
40
102
}
330
40
100
DictionaryVariables
280
     0
  1
STANDARD
  0
DICTIONARYVAR
  5
43
102
{ACAD_REACTORS
330
40
102
}
330
40
100
DictionaryVariables
280
     0
  1
STANDARD
  0
DICTIONARYVAR
  5
44
102
{ACAD_REACTORS
330
40
102
}
330
40
100
DictionaryVariables
280
     0
  1

  0
DICTIONARYVAR
  5
45
102
{ACAD_REACTORS
330
40
102
}
330
40
100
DictionaryVariables
280
     0
  1

  0
DICTIONARYVAR
  5
46
102
{ACAD_REACTORS
330
40
102
}
330
40
100
DictionaryVariables
280
     0
  1
2
  0
DICTIONARYVAR
  5
47
102
{ACAD_REACTORS
330
40
102
}
330
40
100
DictionaryVariables
280
     0
  1
BYLAYER
  0
DICTIONARYVAR
  5
48
102
{ACAD_REACTORS
330
40
102
}
330
40
100
DictionaryVariables
280
     0
  1
1
  0
DICTIONARYVAR
  5
49
102
{ACAD_REACTORS
330
40
102
}
330
40
100
DictionaryVariables
280
     0
  1
H
  0
DICTIONARYVAR
  5
4A
102
{ACAD_REACTORS
330
40
102
}
330
40
100
DictionaryVariables
280
     0
  1
ByLayer
  0
DICTIONARYVAR
  5
4B
102
{ACAD_REACTORS
330
40
102
}
330
40
100
DictionaryVariables
280
     0
  1
1
  0
DICTIONARYVAR
  5
4C
102
{ACAD_REACTORS
330
40
102
}
330
40
100
DictionaryVariables
280
     0
  1
1
  0
DICTIONARYVAR
  5
4D
102
{ACAD_REACTORS
330
40
102
}
330
40
100
DictionaryVariables
280
     0
  1
15
  0
DICTIONARYVAR
  5
4E
102
{ACAD_REACTORS
330
40
102
}
330
40
100
DictionaryVariables
280
     0
  1
0
  0
DICTIONARYVAR
  5
4F
102
{ACAD_REACTORS
330
40
102
}
330
40
100
DictionaryVariables
280
     0
  1
0
  0
DICTIONARY
  5
12
330
10
100
AcDbDictionary
280
     1
281
     1
  0
DICTIONARY
  5
52
330
51
100
AcDbDictionary
280
     1
281
     1
  3
ACAD_ROUNDTRIP_2008_TABLESTYLE_CELLSTYLEMAP
360
1DD
  0
CELLSTYLEMAP
  5
1DD
102
{ACAD_REACTORS
330
52
102
}
330
52
100
AcDbCellStyleMap
 90
        3
300
CELLSTYLE
  1
TABLEFORMAT_BEGIN
 90
        5
170
     1
 91
        0
 92
    32768
 62
   257
 93
        1
300
CONTENTFORMAT
  1
CONTENTFORMAT_BEGIN
 90
        0
 91
        0
 92
      512
 93
        0
300

 40
0.0
140
1.0
 94
        5
 62
     0
340
1D
144
0.25
309
CONTENTFORMAT_END
171
     1
301
MARGIN
  1
CELLMARGIN_BEGIN
 40
0.06
 40
0.06
 40
0.06
 40
0.06
 40
0.18
 40
0.18
309
CELLMARGIN_END
 94
        6
 95
        1
302
GRIDFORMAT
  1
GRIDFORMAT_BEGIN
 90
        0
 91
        1
 62
     0
 92
       -2
340
0
 93
        0
 40
0.045
309
GRIDFORMAT_END
 95
        2
302
GRIDFORMAT
  1
GRIDFORMAT_BEGIN
 90
        0
 91
        1
 62
     0
 92
       -2
340
0
 93
        0
 40
0.045
309
GRIDFORMAT_END
 95
        4
302
GRIDFORMAT
  1
GRIDFORMAT_BEGIN
 90
        0
 91
        1
 62
     0
 92
       -2
340
0
 93
        0
 40
0.045
309
GRIDFORMAT_END
 95
        8
302
GRIDFORMAT
  1
GRIDFORMAT_BEGIN
 90
        0
 91
        1
 62
     0
 92
       -2
340
0
 93
        0
 40
0.045
309
GRIDFORMAT_END
 95
       16
302
GRIDFORMAT
  1
GRIDFORMAT_BEGIN
 90
        0
 91
        1
 62
     0
 92
       -2
340
0
 93
        0
 40
0.045
309
GRIDFORMAT_END
 95
       32
302
GRIDFORMAT
  1
GRIDFORMAT_BEGIN
 90
        0
 91
        1
 62
     0
 92
       -2
340
0
 93
        0
 40
0.045
309
GRIDFORMAT_END
309
TABLEFORMAT_END
  1
CELLSTYLE_BEGIN
 90
        1
 91
        1
300
_TITLE
309
CELLSTYLE_END
300
CELLSTYLE
  1
TABLEFORMAT_BEGIN
 90
        5
170
     1
 91
        0
 92
        0
 62
   257
 93
        1
300
CONTENTFORMAT
  1
CONTENTFORMAT_BEGIN
 90
        0
 91
        0
 92
      512
 93
        0
300

 40
0.0
140
1.0
 94
        5
 62
     0
340
1D
144
0.18
309
CONTENTFORMAT_END
171
     1
301
MARGIN
  1
CELLMARGIN_BEGIN
 40
0.06
 40
0.06
 40
0.06
 40
0.06
 40
0.18
 40
0.18
309
CELLMARGIN_END
 94
        6
 95
        1
302
GRIDFORMAT
  1
GRIDFORMAT_BEGIN
 90
        0
 91
        1
 62
     0
 92
       -2
340
0
 93
        0
 40
0.045
309
GRIDFORMAT_END
 95
        2
302
GRIDFORMAT
  1
GRIDFORMAT_BEGIN
 90
        0
 91
        1
 62
     0
 92
       -2
340
0
 93
        0
 40
0.045
309
GRIDFORMAT_END
 95
        4
302
GRIDFORMAT
  1
GRIDFORMAT_BEGIN
 90
        0
 91
        1
 62
     0
 92
       -2
340
0
 93
        0
 40
0.045
309
GRIDFORMAT_END
 95
        8
302
GRIDFORMAT
  1
GRIDFORMAT_BEGIN
 90
        0
 91
        1
 62
     0
 92
       -2
340
0
 93
        0
 40
0.045
309
GRIDFORMAT_END
 95
       16
302
GRIDFORMAT
  1
GRIDFORMAT_BEGIN
 90
        0
 91
        1
 62
     0
 92
       -2
340
0
 93
        0
 40
0.045
309
GRIDFORMAT_END
 95
       32
302
GRIDFORMAT
  1
GRIDFORMAT_BEGIN
 90
        0
 91
        1
 62
     0
 92
       -2
340
0
 93
        0
 40
0.045
309
GRIDFORMAT_END
309
TABLEFORMAT_END
  1
CELLSTYLE_BEGIN
 90
        2
 91
        1
300
_HEADER
309
CELLSTYLE_END
300
CELLSTYLE
  1
TABLEFORMAT_BEGIN
 90
        5
170
     1
 91
        0
 92
        0
 62
   257
 93
        1
300
CONTENTFORMAT
  1
CONTENTFORMAT_BEGIN
 90
        0
 91
        0
 92
      512
 93
        0
300

 40
0.0
140
1.0
 94
        2
 62
     0
340
1D
144
0.18
309
CONTENTFORMAT_END
171
     1
301
MARGIN
  1
CELLMARGIN_BEGIN
 40
0.06
 40
0.06
 40
0.06
 40
0.06
 40
0.18
 40
0.18
309
CELLMARGIN_END
 94
        6
 95
        1
302
GRIDFORMAT
  1
GRIDFORMAT_BEGIN
 90
        0
 91
        1
 62
     0
 92
       -2
340
0
 93
        0
 40
0.045
309
GRIDFORMAT_END
 95
        2
302
GRIDFORMAT
  1
GRIDFORMAT_BEGIN
 90
        0
 91
        1
 62
     0
 92
       -2
340
0
 93
        0
 40
0.045
309
GRIDFORMAT_END
 95
        4
302
GRIDFORMAT
  1
GRIDFORMAT_BEGIN
 90
        0
 91
        1
 62
     0
 92
       -2
340
0
 93
        0
 40
0.045
309
GRIDFORMAT_END
 95
        8
302
GRIDFORMAT
  1
GRIDFORMAT_BEGIN
 90
        0
 91
        1
 62
     0
 92
       -2
340
0
 93
        0
 40
0.045
309
GRIDFORMAT_END
 95
       16
302
GRIDFORMAT
  1
GRIDFORMAT_BEGIN
 90
        0
 91
        1
 62
     0
 92
       -2
340
0
 93
        0
 40
0.045
309
GRIDFORMAT_END
 95
       32
302
GRIDFORMAT
  1
GRIDFORMAT_BEGIN
 90
        0
 91
        1
 62
     0
 92
       -2
340
0
 93
        0
 40
0.045
309
GRIDFORMAT_END
309
TABLEFORMAT_END
  1
CELLSTYLE_BEGIN
 90
        3
 91
        2
300
_DATA
309
CELLSTYLE_END
  0
ENDSEC
  0
SECTION
  2
ACDSDATA
 70
     2
 71
     8
  0
ACDSSCHEMA
 90
        0
  1
AcDb_Thumbnail_Schema
  2
AcDbDs::ID
280
    10
 91
        8
  2
Thumbnail_Data
280
    15
 91
        0
101
ACDSRECORD
 95
        0
 90
        1
  2
AcDbDs::TreatedAsObjectData
280
     1
291
     1
101
ACDSRECORD
 95
        0
 90
        2
  2
AcDbDs::Legacy
280
     1
291
     1
101
ACDSRECORD
  1
AcDbDs::ID
 90
        3
  2
AcDs:Indexable
280
     1
291
     1
101
ACDSRECORD
  1
AcDbDs::ID
 90
        4
  2
AcDbDs::HandleAttribute
280
     7
282
     1
  0
ACDSSCHEMA
 90
        1
  1
AcDbDs::TreatedAsObjectDataSchema
  2
AcDbDs::TreatedAsObjectData
280
     1
 91
        0
  0
ACDSSCHEMA
 90
        2
  1
AcDbDs::LegacySchema
  2
AcDbDs::Legacy
280
     1
 91
        0
  0
ACDSSCHEMA
 90
        3
  1
AcDbDs::IndexedPropertySchema
  2
AcDs:Indexable
280
     1
 91
        0
  0
ACDSSCHEMA
 90
        4
  1
AcDbDs::HandleAttributeSchema
  2
AcDbDs::HandleAttribute
280
     7
 91
        1
284
     1
  0
ACDSRECORD
 90
        0
  2
AcDbDs::ID
280
    10
320
10
  2
Thumbnail_Data
280
    15
 94
     2009
310
89504E470D0A1A0A0000000D49484452000001000000008208030000009EA3E63300000300504C5445000000000000FFFFFF0000000000000000000000000000000000000000000000000000330000660000990000CC0000FF0033000033330033660033990033CC0033FF0066000066330066660066990066CC0066FF0099
310
000099330099660099990099CC0099FF00CC0000CC3300CC6600CC9900CCCC00CCFF00FF0000FF3300FF6600FF9900FFCC00FFFF3300003300333300663300993300CC3300FF3333003333333333663333993333CC3333FF3366003366333366663366993366CC3366FF3399003399333399663399993399CC3399FF33CC00
310
33CC3333CC6633CC9933CCCC33CCFF33FF0033FF3333FF6633FF9933FFCC33FFFF6600006600336600666600996600CC6600FF6633006633336633666633996633CC6633FF6666006666336666666666996666CC6666FF6699006699336699666699996699CC6699FF66CC0066CC3366CC6666CC9966CCCC66CCFF66FF0066
310
FF3366FF6666FF9966FFCC66FFFF9900009900339900669900999900CC9900FF9933009933339933669933999933CC9933FF9966009966339966669966999966CC9966FF9999009999339999669999999999CC9999FF99CC0099CC3399CC6699CC9999CCCC99CCFF99FF0099FF3399FF6699FF9999FFCC99FFFFCC0000CC00
310
33CC0066CC0099CC00CCCC00FFCC3300CC3333CC3366CC3399CC33CCCC33FFCC6600CC6633CC6666CC6699CC66CCCC66FFCC9900CC9933CC9966CC9999CC99CCCC99FFCCCC00CCCC33CCCC66CCCC99CCCCCCCCCCFFCCFF00CCFF33CCFF66CCFF99CCFFCCCCFFFFFF0000FF0033FF0066FF0099FF00CCFF00FFFF3300FF3333
310
FF3366FF3399FF33CCFF33FFFF6600FF6633FF6666FF6699FF66CCFF66FFFF9900FF9933FF9966FF9999FF99CCFF99FFFFCC00FFCC33FFCC66FFCC99FFCCCCFFCCFFFFFF00FFFF33FFFF66FFFF99FFFFCCFFFFFF0000000D0D0D1A1A1A2828283535354343435050505D5D5D6B6B6B787878868686939393A1A1A1AEAEAEBB
310
BBBBC9C9C9D6D6D6E4E4E4F1F1F1FFFFFF000000000000000000000000000000000000000000000000000000000000C11FEF66000004944944415478DAED5B4B96A3300CF40D7C92BEFFCEC76039B7D07E42F057968D6C0CCDBCA97A9D04121076A11F92DB1800000000000000000000000000000000000000000000000000
310
00000000802FEC72DC217344E82801251BEC6B2BFD6485938B2DDBB882ED9ED5D9AA84D603B5E2847404E88825A2722F7D4101D686B1AA655642D915C6854E10A03A90548863ADCE96372F095DE303B8DC6C7C2F2620FEF21C0103D2D404F458E8086D1D381905825CBA4200A59812DEC5594E11E085DE4B0069F5B13BDE8C
310
00E6EE2C659B170958EF037AD362E3493F8904A43FEB9C89DF3B324982A38B26B09C80EE9D6D295A4E413281F4B76D2D0DE073ACAF668A4B3E47C046DBF67DED6FF4DD081F9FD91C9F6EF3F087FB7DDA2A02AAB01D28F0E666A8A702A643C0B20890CB2D3292E34679852D4F61BB71BF26C0B608083EA00887A6B2BC27A2C0
310
E158CA0C2CD7D36C86C1AF3B9671BA6C501304040BA2C2BD7408A85D50E59C0609384216676094007F7416050608A09A00290AECEFF110C73DF5F52860654FACD500C90444EB561220A48181808FE43FEE2B688119441F70D104EC9C0F10277D28409C56650221C908B7CED09228F07B3EC05FBDD8DE77AD44801F8AB37EE4
310
DF1CEE02056F708291009BCD5F2660FFDDEDF81CB1BF5749C32C01E6AA0658C309302D1F6024023237E43A04440DA0651A603B26E012ACEB23F88014057A89D01901456DA37816F8CCF84F22C03B5FBA960AD01A0D30F361B00811F4F385FDBC4402FC4857468137F80012D4B0E1037C9C58F43CDC48852B02A65261120888
310
376E8A80B2B6B0AA22F468182C879F4F7EF7246A02CC4A02DE9008855BF0130FFF39D3809535C1EB1AB08080210D584780BFCED56781A1284012017B09492680151A53EEB34603A259F2824D9700927D80F5F5B07E1E5011C0DB2F629DCDDEDA17A08DF57C8E828FAF1025848A10B1FD918A906913A03181476A82B18A570D
310
CE952DACF814A3F701F44602CC957AF8F1223501A1E893EA01365947B7D47CA70998AAE258B6B0E4AA4B56C25213602B0D986C372D5A1F1032415AD019D145810E015279E3E6C688AD7A839506E803EF6C4DB0DBF42C09585410EF35476B1350F7CFC7CBE26C3E2201AC7E4F6B7B83BF4CC0E97A84C709A83ABEB304A80A22
310
E7229F20A0218EC6578B347B83393679E84DEFFA2C012A79FB41AC24767C9F77878BAA415E46B03422542660651468D42EE70890D707B06C6F9480E26188163320A7C20ADB6463AD4CA0E3DB6948E8DD1A9097DA7A8227D6339D26126F5925A65200DD41AC8B654D3C523A4DA7790F2C9353CECDE48D6B15014C5C45802985
310
BE8680294565DA9AAF78E14F4E838F1E5A02A6DC43EA0CF5E4EA3520A5ED52665110A0D680A3CC6455045C688D3569385DC6958F95AF65A8640DCB8C426FD280F344A8AC7C18E6D48A53A96AE2F409E01AD0AAB7DC69028D6572133E608FDB75C82EED7FD807B8DB7D4099073408C81E5EE57A11C58F46CEC216BFE5656DA6
310
61853D8F3AC1CB89904461747AA5B657EA7F14739463953A0342389E103A41C0D9BF35D8E603433B622D94392874E261E8BFFE9F210000000000000000000000000000000000000000000000000000807F0B7F01024EAD66C75F66F90000000049454E44AE426082
  0
ENDSEC
  0
EOF
