  0
SECTION
  2
HEADER
  9
$ACADVER
  1
AC1032
  9
$ACADMAINTVER
 90
      248
  9
$DWGCODEPAGE
  3
ANSI_936
  9
$REQUIREDVERSIONS
160
                 0
  9
$INSBASE
 10
0.0
 20
0.0
 30
0.0
  9
$EXTMIN
 10
1512.907877601431
 20
-487.3807807710703
 30
-0.2294207619440476
  9
$EXTMAX
 10
1971.826589817343
 20
-241.2635733367932
 30
0.0496049964929976
  9
$LIMMIN
 10
0.0
 20
0.0
  9
$LIMMAX
 10
12.0
 20
9.0
  9
$ORTHOMODE
 70
     0
  9
$REGENMODE
 70
     1
  9
$FILLMODE
 70
     1
  9
$QTEXTMODE
 70
     0
  9
$MIRRTEXT
 70
     0
  9
$LTSCALE
 40
5.0
  9
$ATTMODE
 70
     1
  9
$TEXTSIZE
 40
1.136420119776289
  9
$TRACEWID
 40
0.05
  9
$TEXTSTYLE
  7
STANDARD
  9
$CLAYER
  8
2D
  9
$CELTYPE
  6
ByLayer
  9
$CECOLOR
 62
     0
  9
$CELTSCALE
 40
1.0
  9
$DISPSILH
 70
     0
  9
$DIMSCALE
 40
1.0
  9
$DIMASZ
 40
0.21
  9
$DIMEXO
 40
0.07
  9
$DIMDLI
 40
0.07
  9
$DIMRND
 40
0.0
  9
$DIMDLE
 40
0.0
  9
$DIMEXE
 40
0.07
  9
$DIMTP
 40
0.0
  9
$DIMTM
 40
0.0
  9
$DIMTXT
 40
0.21
  9
$DIMCEN
 40
0.1
  9
$DIMTSZ
 40
0.0
  9
$DIMTOL
 70
     0
  9
$DIMLIM
 70
     0
  9
$DIMTIH
 70
     0
  9
$DIMTOH
 70
     0
  9
$DIMSE1
 70
     0
  9
$DIMSE2
 70
     0
  9
$DIMTAD
 70
     0
  9
$DIMZIN
 70
     1
  9
$DIMBLK
  1

  9
$DIMASO
 70
     0
  9
$DIMSHO
 70
     1
  9
$DIMPOST
  1

  9
$DIMAPOST
  1

  9
$DIMALT
 70
     0
  9
$DIMALTD
 70
     3
  9
$DIMALTF
 40
0.03937007874016
  9
$DIMLFAC
 40
1.0
  9
$DIMTOFL
 70
     0
  9
$DIMTVP
 40
0.0
  9
$DIMTIX
 70
     0
  9
$DIMSOXD
 70
     0
  9
$DIMSAH
 70
     0
  9
$DIMBLK1
  1

  9
$DIMBLK2
  1

  9
$DIMSTYLE
  2
Standard
  9
$DIMCLRD
 70
   256
  9
$DIMCLRE
 70
   256
  9
$DIMCLRT
 70
   256
  9
$DIMTFAC
 40
1.0
  9
$DIMGAP
 40
0.07
  9
$DIMJUST
 70
     0
  9
$DIMSD1
 70
     0
  9
$DIMSD2
 70
     0
  9
$DIMTOLJ
 70
     0
  9
$DIMTZIN
 70
     8
  9
$DIMALTZ
 70
     0
  9
$DIMALTTZ
 70
     0
  9
$DIMUPT
 70
     0
  9
$DIMDEC
 70
     3
  9
$DIMTDEC
 70
     3
  9
$DIMALTU
 70
     2
  9
$DIMALTTD
 70
     3
  9
$DIMTXSTY
  7
SIMPLEX
  9
$DIMAUNIT
 70
     0
  9
$DIMADEC
 70
     0
  9
$DIMALTRND
 40
0.0
  9
$DIMAZIN
 70
     0
  9
$DIMDSEP
 70
    46
  9
$DIMATFIT
 70
     0
  9
$DIMFRAC
 70
     0
  9
$DIMLDRBLK
  1

  9
$DIMLUNIT
 70
     2
  9
$DIMLWD
 70
    -1
  9
$DIMLWE
 70
    -1
  9
$DIMTMOVE
 70
     0
  9
$DIMFXL
 40
0.0072
  9
$DIMFXLON
 70
     0
  9
$DIMJOGANG
 40
0.7853981633974483
  9
$DIMTFILL
 70
     0
  9
$DIMTFILLCLR
 70
     0
  9
$DIMARCSYM
 70
     2
  9
$DIMLTYPE
  6
ByLayer
  9
$DIMLTEX1
  6
ByLayer
  9
$DIMLTEX2
  6
ByLayer
  9
$DIMTXTDIRECTION
 70
     0
  9
$LUNITS
 70
     2
  9
$LUPREC
 70
     8
  9
$SKETCHINC
 40
0.1
  9
$FILLETRAD
 40
0.0
  9
$AUNITS
 70
     0
  9
$AUPREC
 70
     0
  9
$MENU
  1
I:\ASM9401
  9
$ELEVATION
 40
0.0
  9
$PELEVATION
 40
0.0
  9
$THICKNESS
 40
0.0
  9
$LIMCHECK
 70
     0
  9
$CHAMFERA
 40
0.0
  9
$CHAMFERB
 40
0.0
  9
$CHAMFERC
 40
0.0
  9
$CHAMFERD
 40
0.0
  9
$SKPOLY
 70
     0
  9
$TDCREATE
 40
2451633.607280093
  9
$TDUCREATE
 40
2451633.273949306
  9
$TDUPDATE
 40
2460607.487916667
  9
$TDUUPDATE
 40
2460607.154583334
  9
$TDINDWG
 40
10.5687489931
  9
$TDUSRTIMER
 40
10.5687489931
  9
$USRTIMER
 70
     1
  9
$ANGBASE
 50
0.0
  9
$ANGDIR
 70
     0
  9
$PDMODE
 70
     3
  9
$PDSIZE
 40
0.0
  9
$PLINEWID
 40
0.0
  9
$SPLFRAME
 70
     0
  9
$SPLINETYPE
 70
     6
  9
$SPLINESEGS
 70
     8
  9
$HANDSEED
  5
169
  9
$SURFTAB1
 70
     6
  9
$SURFTAB2
 70
     6
  9
$SURFTYPE
 70
     6
  9
$SURFU
 70
     6
  9
$SURFV
 70
     6
  9
$UCSBASE
  2

  9
$UCSNAME
  2

  9
$UCSORG
 10
0.0
 20
0.0
 30
0.0
  9
$UCSXDIR
 10
1.0
 20
0.0
 30
0.0
  9
$UCSYDIR
 10
0.0
 20
1.0
 30
0.0
  9
$UCSORTHOREF
  2

  9
$UCSORTHOVIEW
 70
     0
  9
$UCSORGTOP
 10
0.0
 20
0.0
 30
0.0
  9
$UCSORGBOTTOM
 10
0.0
 20
0.0
 30
0.0
  9
$UCSORGLEFT
 10
0.0
 20
0.0
 30
0.0
  9
$UCSORGRIGHT
 10
0.0
 20
0.0
 30
0.0
  9
$UCSORGFRONT
 10
0.0
 20
0.0
 30
0.0
  9
$UCSORGBACK
 10
0.0
 20
0.0
 30
0.0
  9
$PUCSBASE
  2

  9
$PUCSNAME
  2

  9
$PUCSORG
 10
0.0
 20
0.0
 30
0.0
  9
$PUCSXDIR
 10
1.0
 20
0.0
 30
0.0
  9
$PUCSYDIR
 10
0.0
 20
1.0
 30
0.0
  9
$PUCSORTHOREF
  2

  9
$PUCSORTHOVIEW
 70
     0
  9
$PUCSORGTOP
 10
0.0
 20
0.0
 30
0.0
  9
$PUCSORGBOTTOM
 10
0.0
 20
0.0
 30
0.0
  9
$PUCSORGLEFT
 10
0.0
 20
0.0
 30
0.0
  9
$PUCSORGRIGHT
 10
0.0
 20
0.0
 30
0.0
  9
$PUCSORGFRONT
 10
0.0
 20
0.0
 30
0.0
  9
$PUCSORGBACK
 10
0.0
 20
0.0
 30
0.0
  9
$USERI1
 70
     0
  9
$USERI2
 70
     0
  9
$USERI3
 70
     0
  9
$USERI4
 70
     0
  9
$USERI5
 70
     0
  9
$USERR1
 40
0.0
  9
$USERR2
 40
0.0
  9
$USERR3
 40
0.0
  9
$USERR4
 40
0.0
  9
$USERR5
 40
0.0
  9
$WORLDVIEW
 70
     1
  9
$SHADEDGE
 70
     3
  9
$SHADEDIF
 70
    70
  9
$TILEMODE
 70
     1
  9
$MAXACTVP
 70
    16
  9
$PINSBASE
 10
0.0
 20
0.0
 30
0.0
  9
$PLIMCHECK
 70
     0
  9
$PEXTMIN
 10
1.049999952316283
 20
0.7999999523162842
 30
0.0
  9
$PEXTMAX
 10
9.449999570846555
 20
7.199999570846556
 30
0.0
  9
$PLIMMIN
 10
-0.2500002402958907
 20
-0.2499999962453767
  9
$PLIMMAX
 10
10.74999951940821
 20
8.249999763458731
  9
$UNITMODE
 70
     0
  9
$VISRETAIN
 70
     0
  9
$PLINEGEN
 70
     0
  9
$PSLTSCALE
 70
     1
  9
$TREEDEPTH
 70
  3020
  9
$CMLSTYLE
  2
Standard
  9
$CMLJUST
 70
     0
  9
$CMLSCALE
 40
1.0
  9
$PROXYGRAPHICS
 70
     1
  9
$MEASUREMENT
 70
     0
  9
$CELWEIGHT
370
    -1
  9
$ENDCAPS
280
     0
  9
$JOINSTYLE
280
     0
  9
$LWDISPLAY
290
     0
  9
$INSUNITS
 70
     0
  9
$HYPERLINKBASE
  1

  9
$STYLESHEET
  1

  9
$XEDIT
290
     1
  9
$CEPSNTYPE
380
     0
  9
$PSTYLEMODE
290
     1
  9
$FINGERPRINTGUID
  2
{A5C38A29-C1D3-B744-9FA1-B99D822AE409}
  9
$VERSIONGUID
  2
{C959730C-A6BD-4476-A2C3-123B5F505BB1}
  9
$EXTNAMES
290
     1
  9
$PSVPSCALE
 40
0.0
  9
$OLESTARTUP
290
     0
  9
$SORTENTS
280
   127
  9
$INDEXCTL
280
     0
  9
$HIDETEXT
280
     1
  9
$XCLIPFRAME
280
     2
  9
$HALOGAP
280
     0
  9
$OBSCOLOR
 70
   257
  9
$OBSLTYPE
280
     0
  9
$INTERSECTIONDISPLAY
280
     0
  9
$INTERSECTIONCOLOR
 70
   257
  9
$DIMASSOC
280
     0
  9
$PROJECTNAME
  1

  9
$CAMERADISPLAY
290
     0
  9
$LENSLENGTH
 40
50.0
  9
$CAMERAHEIGHT
 40
0.0
  9
$STEPSPERSEC
 40
2.0
  9
$STEPSIZE
 40
6.0
  9
$3DDWFPREC
 40
2.0
  9
$PSOLWIDTH
 40
0.25
  9
$PSOLHEIGHT
 40
4.0
  9
$LOFTANG1
 40
1.570796326794896
  9
$LOFTANG2
 40
1.570796326794896
  9
$LOFTMAG1
 40
0.0
  9
$LOFTMAG2
 40
0.0
  9
$LOFTPARAM
 70
     7
  9
$LOFTNORMALS
280
     1
  9
$LATITUDE
 40
37.795
  9
$LONGITUDE
 40
-122.394
  9
$NORTHDIRECTION
 40
0.0
  9
$TIMEZONE
 70
 -8000
  9
$LIGHTGLYPHDISPLAY
280
     1
  9
$TILEMODELIGHTSYNCH
280
     1
  9
$CMATERIAL
347
38
  9
$SOLIDHIST
280
     0
  9
$SHOWHIST
280
     1
  9
$DWFFRAME
280
     2
  9
$DGNFRAME
280
     0
  9
$REALWORLDSCALE
290
     1
  9
$INTERFERECOLOR
 62
     1
  9
$INTERFEREOBJVS
345
53
  9
$INTERFEREVPVS
346
54
  9
$CSHADOW
280
     0
  9
$SHADOWPLANELOCATION
 40
0.0
  0
ENDSEC
  0
SECTION
  2
CLASSES
  0
CLASS
  1
ACDBDICTIONARYWDFLT
  2
AcDbDictionaryWithDefault
  3
ObjectDBX Classes
 90
        0
 91
        1
280
     0
281
     0
  0
CLASS
  1
DICTIONARYVAR
  2
AcDbDictionaryVar
  3
ObjectDBX Classes
 90
        0
 91
       13
280
     0
281
     0
  0
CLASS
  1
SORTENTSTABLE
  2
AcDbSortentsTable
  3
ObjectDBX Classes
 90
        0
 91
        2
280
     0
281
     0
  0
CLASS
  1
MATERIAL
  2
AcDbMaterial
  3
ObjectDBX Classes
 90
     1153
 91
        3
280
     0
281
     0
  0
CLASS
  1
VISUALSTYLE
  2
AcDbVisualStyle
  3
ObjectDBX Classes
 90
     4095
 91
        3
280
     0
281
     0
  0
CLASS
  1
TABLESTYLE
  2
AcDbTableStyle
  3
ObjectDBX Classes
 90
     4095
 91
        1
280
     0
281
     0
  0
CLASS
  1
ACAD_TABLE
  2
AcDbTable
  3
ObjectDBX Classes
 90
     1025
 91
        0
280
     0
281
     1
  0
CLASS
  1
SCALE
  2
AcDbScale
  3
ObjectDBX Classes
 90
     1153
 91
       17
280
     0
281
     0
  0
CLASS
  1
MLEADERSTYLE
  2
AcDbMLeaderStyle
  3
ACDB_MLEADERSTYLE_CLASS
 90
     4095
 91
        0
280
     0
281
     0
  0
CLASS
  1
CELLSTYLEMAP
  2
AcDbCellStyleMap
  3
ObjectDBX Classes
 90
     1152
 91
        1
280
     0
281
     0
  0
CLASS
  1
ACDBSECTIONVIEWSTYLE
  2
AcDbSectionViewStyle
  3
ObjectDBX Classes
 90
     1025
 91
        0
280
     0
281
     0
  0
CLASS
  1
ACDBDETAILVIEWSTYLE
  2
AcDbDetailViewStyle
  3
ObjectDBX Classes
 90
     1025
 91
        0
280
     0
281
     0
  0
CLASS
  1
SOLID_BACKGROUND
  2
AcDbSolidBackground
  3
SCENEOE
 90
     4095
 91
        0
280
     0
281
     0
  0
CLASS
  1
NPOCOLLECTION
  2
AcDbImpNonPersistentObjectsCollection
  3
ObjectDBX Classes
 90
     1153
 91
        0
280
     0
281
     0
  0
ENDSEC
  0
SECTION
  2
TABLES
  0
TABLE
  2
VPORT
  5
2D
102
{ACAD_XDICTIONARY
360
30
102
}
330
0
100
AcDbSymbolTable
 70
     1
  0
VPORT
  5
2E
330
2D
100
AcDbSymbolTableRecord
100
AcDbViewportTableRecord
  2
*Active
 70
     0
 10
0.0
 20
0.0
 11
1.0
 21
1.0
 12
1924.639585895689
 22
-262.5835511998166
 13
0.0
 23
0.0
 14
1.0
 24
1.0
 15
0.0
 25
0.0
 16
0.0
 26
0.0
 36
1.0
 17
0.0
 27
0.0
 37
0.0
 40
9.523621173577339
 41
2.570850202429149
 42
50.0
 43
0.0
 44
0.0
 50
0.0
 51
0.0
 71
     0
 72
 20000
 73
     1
 74
     0
 75
     0
 76
     0
 77
     0
 78
     0
281
     0
 65
     1
110
0.0
120
0.0
130
0.0
111
1.0
121
0.0
131
0.0
112
0.0
122
1.0
132
0.0
 79
     0
146
0.0
348
15
 60
     3
 61
     5
292
     1
282
     1
141
0.0
142
0.0
 63
   250
421
  3355443
1001
ACAD_NAV_VCDISPLAY
1070
     3
  0
ENDTAB
  0
TABLE
  2
LTYPE
  5
28
330
0
100
AcDbSymbolTable
 70
     2
  0
LTYPE
  5
29
330
28
100
AcDbSymbolTableRecord
100
AcDbLinetypeTableRecord
  2
ByBlock
 70
     0
  3

 72
    65
 73
     0
 40
0.0
  0
LTYPE
  5
2A
330
28
100
AcDbSymbolTableRecord
100
AcDbLinetypeTableRecord
  2
ByLayer
 70
     0
  3

 72
    65
 73
     0
 40
0.0
  0
LTYPE
  5
F
330
28
100
AcDbSymbolTableRecord
100
AcDbLinetypeTableRecord
  2
CONTINUOUS
 70
     0
  3
Solid line
 72
    65
 73
     0
 40
0.0
  0
LTYPE
  5
161
330
28
100
AcDbSymbolTableRecord
100
AcDbLinetypeTableRecord
  2
CENTER2
 70
     0
  3
Center (.5x) ___ _ ___ _ ___ _ ___ _ ___ _ ___
 72
    65
 73
     4
 40
1.125
 49
0.75
 74
     0
 49
-0.125
 74
     0
 49
0.125
 74
     0
 49
-0.125
 74
     0
  0
ENDTAB
  0
TABLE
  2
LAYER
  5
20
102
{ACAD_XDICTIONARY
360
21
102
}
330
0
100
AcDbSymbolTable
 70
     4
  0
LAYER
  5
7
102
{ACAD_XDICTIONARY
360
8
102
}
330
20
100
AcDbSymbolTableRecord
100
AcDbLayerTableRecord
  2
0
 70
     0
 62
     7
  6
CONTINUOUS
370
    -3
390
A
347
D
348
0
  0
LAYER
  5
4C
102
{ACAD_XDICTIONARY
360
4D
102
}
330
20
100
AcDbSymbolTableRecord
100
AcDbLayerTableRecord
  2
2D
 70
     0
 62
     4
  6
CONTINUOUS
370
    -3
390
A
347
D
348
0
  0
LAYER
  5
67
102
{ACAD_XDICTIONARY
360
68
102
}
330
20
100
AcDbSymbolTableRecord
100
AcDbLayerTableRecord
  2
4
 70
     0
 62
     7
  6
CONTINUOUS
370
    -3
390
A
347
D
348
0
  0
LAYER
  5
15E
102
{ACAD_XDICTIONARY
360
15F
102
}
330
20
100
AcDbSymbolTableRecord
100
AcDbLayerTableRecord
  2
中心线
 70
     0
 62
     1
  6
CENTER2
370
    -3
390
A
347
D
348
0
  0
ENDTAB
  0
TABLE
  2
STYLE
  5
25
330
0
100
AcDbSymbolTable
 70
     4
  0
STYLE
  5
26
330
25
100
AcDbSymbolTableRecord
100
AcDbTextStyleTableRecord
  2
STANDARD
 70
     0
 40
0.0
 41
1.0
 50
0.0
 71
     0
 42
1.136420119776289
  3
romans.shx
  4
bigfont.shx
  0
STYLE
  5
7E
330
25
100
AcDbSymbolTableRecord
100
AcDbTextStyleTableRecord
  2
ROMANS
 70
     0
 40
0.018
 41
0.8
 50
0.0
 71
     0
 42
0.018
  3
SIMPLEX
  4

  0
STYLE
  5
4F
330
25
100
AcDbSymbolTableRecord
100
AcDbTextStyleTableRecord
  2
SIMPLEX
 70
     0
 40
0.0
 41
1.0
 50
0.0
 71
     0
 42
0.0045
  3
SIMPLEX
  4

  0
STYLE
  5
163
330
25
100
AcDbSymbolTableRecord
100
AcDbTextStyleTableRecord
  2
宋体
 70
     0
 40
0.0
 41
1.0
 50
0.0
 71
     0
 42
4.0
  3
SimSun.ttf
  4

1001
ACAD
1000
SimSun
1071
    34306
1001
AcadStringInfo
1000
MIFCodePage
1070
     5
  0
ENDTAB
  0
TABLE
  2
VIEW
  5
2B
330
0
100
AcDbSymbolTable
 70
     1
  0
VIEW
  5
14
330
2B
100
AcDbSymbolTableRecord
100
AcDbViewTableRecord
  2
OLE1
 70
     0
 40
4.667771186616032
 10
13.31059639623026
 20
-5.745964879124877
 41
7.456068941799912
 11
0.0
 21
0.0
 31
1.0
 12
0.0
 22
0.0
 32
0.0
 42
50.0
 43
0.0
 44
0.0
 50
0.0
 71
     0
281
     0
 72
     0
 73
     0
348
15
  0
ENDTAB
  0
TABLE
  2
UCS
  5
2C
330
0
100
AcDbSymbolTable
 70
     0
  0
ENDTAB
  0
TABLE
  2
APPID
  5
31
330
0
100
AcDbSymbolTable
 70
     4
  0
APPID
  5
17
330
31
100
AcDbSymbolTableRecord
100
AcDbRegAppTableRecord
  2
ACAD
 70
     0
  0
APPID
  5
1F
330
31
100
AcDbSymbolTableRecord
100
AcDbRegAppTableRecord
  2
ACAD_PSEXT
 70
     0
  0
APPID
  5
13
330
31
100
AcDbSymbolTableRecord
100
AcDbRegAppTableRecord
  2
AcadStringInfo
 70
     0
  0
APPID
  5
2F
330
31
100
AcDbSymbolTableRecord
100
AcDbRegAppTableRecord
  2
ACAD_NAV_VCDISPLAY
 70
     0
  0
ENDTAB
  0
TABLE
  2
DIMSTYLE
  5
32
330
0
100
AcDbSymbolTable
 70
     1
100
AcDbDimStyleTable
 71
     1
340
33
  0
DIMSTYLE
105
33
330
32
100
AcDbSymbolTableRecord
100
AcDbDimStyleTableRecord
  2
Standard
 70
     0
 40
4.5
 41
0.12
 42
0.05
 44
0.08
 73
     0
 74
     0
140
0.16
147
0.08
172
     1
271
     3
272
     3
340
26
  0
ENDTAB
  0
TABLE
  2
BLOCK_RECORD
  5
1
330
0
100
AcDbSymbolTable
 70
     0
  0
BLOCK_RECORD
  5
2
102
{ACAD_XDICTIONARY
360
3
102
}
330
1
100
AcDbSymbolTableRecord
100
AcDbBlockTableRecord
  2
*Model_Space
340
11
 70
     0
280
     1
281
     0
  0
BLOCK_RECORD
  5
18
102
{ACAD_XDICTIONARY
360
19
102
}
330
1
100
AcDbSymbolTableRecord
100
AcDbBlockTableRecord
  2
*Paper_Space
340
1D
 70
     0
280
     1
281
     0
  0
ENDTAB
  0
ENDSEC
  0
SECTION
  2
BLOCKS
  0
BLOCK
  5
6
330
2
100
AcDbEntity
  8
0
100
AcDbBlockBegin
  2
*Model_Space
 70
     0
 10
0.0
 20
0.0
 30
0.0
  3
*Model_Space
  1

  0
ENDBLK
  5
10
330
2
100
AcDbEntity
  8
0
100
AcDbBlockEnd
  0
BLOCK
  5
1B
330
18
100
AcDbEntity
 67
     1
  8
0
100
AcDbBlockBegin
  2
*Paper_Space
 70
     0
 10
0.0
 20
0.0
 30
0.0
  3
*Paper_Space
  1

  0
ENDBLK
  5
1C
330
18
100
AcDbEntity
 67
     1
  8
0
100
AcDbBlockEnd
  0
ENDSEC
  0
SECTION
  2
ENTITIES
  0
LINE
  5
66
330
2
100
AcDbEntity
  8
4
 62
     3
100
AcDbLine
 10
756.1399758128609
 20
0.695248607287283
 30
-0.0014200666144597
 11
762.3198944781768
 21
0.695248607287283
 31
-0.0014200666144597
  0
LINE
  5
6A
330
2
100
AcDbEntity
  8
4
 62
     3
100
AcDbLine
 10
756.1399758128609
 20
4.421570322702791
 30
-0.0014200666144597
 11
762.3198944781768
 21
4.421570322702791
 31
-0.0014200666144597
  0
LINE
  5
6B
330
2
100
AcDbEntity
  8
4
 62
     3
100
AcDbLine
 10
756.1399758128609
 20
1.50531820155254
 30
-0.0014200666144597
 11
762.3198944781768
 21
1.50531820155254
 31
-0.0014200666144597
  0
LINE
  5
6C
330
2
100
AcDbEntity
  8
4
 62
     3
100
AcDbLine
 10
756.1399758128609
 20
6.851782327674584
 30
-0.0014200666144597
 11
762.3198944781768
 21
6.851782327674584
 31
-0.0014200666144597
  0
LINE
  5
6D
330
2
100
AcDbEntity
  8
4
 62
     3
100
AcDbLine
 10
756.1399758128609
 20
6.689768174481514
 30
-0.0014200666144597
 11
762.3198944781768
 21
6.689768174481514
 31
-0.0014200666144597
  0
LINE
  5
6E
330
2
100
AcDbEntity
  8
4
 62
     3
100
AcDbLine
 10
756.1399758128609
 20
6.203725714902134
 30
-0.0014200666144597
 11
762.3198944781768
 21
6.203725714902134
 31
-0.0014200666144597
  0
LINE
  5
6F
330
2
100
AcDbEntity
  8
4
 62
     3
100
AcDbLine
 10
756.1399758128609
 20
6.365739868095204
 30
-0.0014200666144597
 11
762.3198944781768
 21
6.365739868095204
 31
-0.0014200666144597
  0
LINE
  5
70
330
2
100
AcDbEntity
  8
4
 62
     3
100
AcDbLine
 10
756.1399758128609
 20
6.527754021288387
 30
-0.0014200666144597
 11
762.3198944781768
 21
6.527754021288387
 31
-0.0014200666144597
  0
LINE
  5
71
330
2
100
AcDbEntity
  8
4
 62
     3
100
AcDbLine
 10
756.1399758128609
 20
5.717683255322697
 30
-0.0014200666144597
 11
762.3198944781768
 21
5.717683255322697
 31
-0.0014200666144597
  0
LINE
  5
72
330
2
100
AcDbEntity
  8
4
 62
     3
100
AcDbLine
 10
756.1399758128609
 20
5.555669102129627
 30
-0.0014200666144597
 11
762.3198944781768
 21
5.555669102129627
 31
-0.0014200666144597
  0
LINE
  5
73
330
2
100
AcDbEntity
  8
4
 62
     3
100
AcDbLine
 10
756.1399758128609
 20
5.3936549489365
 30
-0.0014200666144597
 11
762.3198944781768
 21
5.3936549489365
 31
-0.0014200666144597
  0
LINE
  5
74
330
2
100
AcDbEntity
  8
4
 62
     3
100
AcDbLine
 10
756.1399758128609
 20
5.231640795743373
 30
-0.0014200666144597
 11
762.3198944781768
 21
5.231640795743373
 31
-0.0014200666144597
  0
LINE
  5
75
330
2
100
AcDbEntity
  8
4
 62
     3
100
AcDbLine
 10
756.1399758128609
 20
5.06962664255019
 30
-0.0014200666144597
 11
762.3198944781768
 21
5.06962664255019
 31
-0.0014200666144597
  0
LINE
  5
76
330
2
100
AcDbEntity
  8
4
 62
     3
100
AcDbLine
 10
756.1399758128609
 20
4.90761248935712
 30
-0.0014200666144597
 11
762.3198944781768
 21
4.90761248935712
 31
-0.0014200666144597
  0
LINE
  5
77
330
2
100
AcDbEntity
  8
4
 62
     3
100
AcDbLine
 10
756.1399758128609
 20
4.583584182970923
 30
-0.0014200666144597
 11
762.3198944781768
 21
4.583584182970923
 31
-0.0014200666144597
  0
LINE
  5
78
330
2
100
AcDbEntity
  8
4
 62
     3
100
AcDbLine
 10
756.1399758128609
 20
5.879697408515767
 30
-0.0014200666144597
 11
762.3198944781768
 21
5.879697408515767
 31
-0.0014200666144597
  0
LINE
  5
79
330
2
100
AcDbEntity
  8
4
 62
     3
100
AcDbLine
 10
756.1399758128609
 20
7.013796480867711
 30
-0.0014200666144597
 11
762.3198944781768
 21
7.013796480867711
 31
-0.0014200666144597
  0
LWPOLYLINE
  5
7A
330
2
100
AcDbEntity
  8
4
 62
     7
100
AcDbPolyline
 90
        2
 70
     0
 43
0.0073642796905967
 38
-0.0014200666144597
 10
756.1399758128609
 20
7.205893859841978
 10
762.3198944781768
 20
7.205893859841978
  0
LINE
  5
7B
330
2
100
AcDbEntity
  8
4
 62
     3
100
AcDbLine
 10
756.1399758128609
 20
4.745598336163936
 30
-0.0014200666144597
 11
762.3198944781768
 21
4.745598336163936
 31
-0.0014200666144597
  0
LINE
  5
7C
330
2
100
AcDbEntity
  8
4
 62
     3
100
AcDbLine
 10
756.1399758128609
 20
1.829345922088521
 30
-0.0014200666144597
 11
762.3198944781768
 21
1.829345922088521
 31
-0.0014200666144597
  0
TEXT
  5
7D
330
2
100
AcDbEntity
  8
4
 62
     3
100
AcDbText
 10
756.4886597377099
 20
0.9019234833424173
 30
-0.0014200666144597
 40
0.0736427969059672
  1
INTERNAL LEAD TIP DIMENSIONS GIVEN ARE GIVEN VALUES
 41
0.9
  7
ROMANS
 72
     4
 11
757.9878166747241
 21
0.9387448817954009
 31
-0.0014200666144597
100
AcDbText
  0
LINE
  5
7F
330
2
100
AcDbEntity
  8
4
 62
     3
100
AcDbLine
 10
756.1399758128609
 20
2.963444994440408
 30
-0.0014200666144597
 11
762.3198944781768
 21
2.963444994440408
 31
-0.0014200666144597
  0
LINE
  5
80
330
2
100
AcDbEntity
  8
4
 62
     3
100
AcDbLine
 10
756.1399758128609
 20
1.667331768895394
 30
-0.0014200666144597
 11
762.3198944781768
 21
1.667331768895394
 31
-0.0014200666144597
  0
LINE
  5
81
330
2
100
AcDbEntity
  8
4
 62
     3
100
AcDbLine
 10
756.1399758128609
 20
2.315388381667901
 30
-0.0014200666144597
 11
762.3198944781768
 21
2.315388381667901
 31
-0.0014200666144597
  0
LINE
  5
82
330
2
100
AcDbEntity
  8
4
 62
     3
100
AcDbLine
 10
756.1399758128609
 20
2.477402534861028
 30
-0.0014200666144597
 11
762.3198944781768
 21
2.477402534861028
 31
-0.0014200666144597
  0
LINE
  5
83
330
2
100
AcDbEntity
  8
4
 62
     3
100
AcDbLine
 10
756.1399758128609
 20
2.639416688054154
 30
-0.0014200666144597
 11
762.3198944781768
 21
2.639416688054154
 31
-0.0014200666144597
  0
LINE
  5
84
330
2
100
AcDbEntity
  8
4
 62
     3
100
AcDbLine
 10
756.1399758128609
 20
2.801430841247281
 30
-0.0014200666144597
 11
762.3198944781768
 21
2.801430841247281
 31
-0.0014200666144597
  0
TEXT
  5
85
330
2
100
AcDbEntity
  8
4
 62
     3
100
AcDbText
 10
756.4881392092137
 20
0.7425639137492095
 30
-0.0014200666144597
 40
0.0736427969059672
  1
DIMENSION QUADRANT IS TYPICAL FOR QUADRANTS, EXCEPT AS SHOWN
 41
0.9
  7
ROMANS
 72
     4
 11
758.328157091907
 21
0.772371712496863
 31
-0.0014200666144597
100
AcDbText
  0
TEXT
  5
86
330
2
100
AcDbEntity
  8
4
 62
     3
100
AcDbText
 10
756.4951693260944
 20
1.060299367053844
 30
-0.0014200666144597
 40
0.0736427969059672
  1
PART TO BE FREE OF RUST, KINKS, BENDS, WRINKLES, OR SCRATCHES DEEPER THAN
 41
0.9
  7
ROMANS
 72
     4
 11
758.701297113406
 21
1.090107165801498
 31
-0.0014200666144597
100
AcDbText
  0
LINE
  5
87
330
2
100
AcDbEntity
  8
4
 62
     3
100
AcDbLine
 10
756.1399758128609
 20
3.611501314287806
 30
-0.0014200666144597
 11
762.3198944781768
 21
3.611501314287806
 31
-0.0014200666144597
  0
LINE
  5
88
330
2
100
AcDbEntity
  8
4
 62
     3
100
AcDbLine
 10
756.1399758128609
 20
2.153375107250099
 30
-0.0014200666144597
 11
762.3198944781768
 21
2.153375107250099
 31
-0.0014200666144597
  0
TEXT
  5
89
330
2
100
AcDbEntity
  8
4
 62
     3
100
AcDbText
 10
756.4802041970541
 20
2.846832007700557
 30
-0.0014200666144597
 40
0.0736427969059672
  1
MAXIMUM RADIUS ON ALL CORNERS UNLESS OTHERWISE SPECIFIED
 41
0.9
  7
ROMANS
 72
     4
 11
758.181352805582
 21
2.883653406153541
 31
-0.0014200666144597
100
AcDbText
  0
LINE
  5
8A
330
2
100
AcDbEntity
  8
4
 62
     3
100
AcDbLine
 10
756.1399758128609
 20
4.259556755359881
 30
-0.0014200666144597
 11
762.3198944781768
 21
4.259556755359881
 31
-0.0014200666144597
  0
LINE
  5
8B
330
2
100
AcDbEntity
  8
4
 62
     3
100
AcDbLine
 10
756.1399758128609
 20
6.041711561709007
 30
-0.0014200666144597
 11
762.3198944781768
 21
6.041711561709007
 31
-0.0014200666144597
  0
LWPOLYLINE
  5
8C
330
2
100
AcDbEntity
  8
4
 62
     7
100
AcDbPolyline
 90
        2
 70
     0
 43
0.0073642796905967
 38
-0.0014200666144597
 10
756.1399758128609
 20
0.5332344540941563
 10
762.3198944781768
 20
0.5332344540941563
  0
LINE
  5
8D
330
2
100
AcDbEntity
  8
4
 62
     3
100
AcDbLine
 10
756.1399758128609
 20
1.99136007528159
 30
-0.0014200666144597
 11
762.3198944781768
 21
1.99136007528159
 31
-0.0014200666144597
  0
LINE
  5
8E
330
2
100
AcDbEntity
  8
4
 62
     3
100
AcDbLine
 10
756.1399758128609
 20
1.3433040483593
 30
-0.0014200666144597
 11
762.3198944781768
 21
1.3433040483593
 31
-0.0014200666144597
  0
LINE
  5
8F
330
2
100
AcDbEntity
  8
4
 62
     3
100
AcDbLine
 10
756.1399758128609
 20
1.019275741973103
 30
-0.0014200666144597
 11
762.3198944781768
 21
1.019275741973103
 31
-0.0014200666144597
  0
LINE
  5
90
330
2
100
AcDbEntity
  8
4
 62
     3
100
AcDbLine
 10
756.1399758128609
 20
1.18128989516623
 30
-0.0014200666144597
 11
762.3198944781768
 21
1.18128989516623
 31
-0.0014200666144597
  0
TEXT
  5
91
330
2
100
AcDbEntity
  8
4
 62
     3
100
AcDbText
 10
756.4815920136795
 20
4.461873494085042
 30
-0.0014200666144597
 40
0.0736427969059672
  1
MISALIGNMENT
 41
0.9
  7
ROMANS
 72
     4
 11
756.8303432590271
 21
4.498694892538026
 31
-0.0014200666144597
100
AcDbText
  0
TEXT
  5
92
330
2
100
AcDbEntity
  8
4
 62
     3
100
AcDbText
 10
756.2194309050876
 20
4.466027657868525
 30
-0.0014200666144597
 40
0.0736427969059672
  1
16
 41
0.9
  7
ROMANS
 72
     4
 11
756.2651946431649
 21
4.502849056321508
 31
-0.0014200666144597
100
AcDbText
  0
TEXT
  5
93
330
2
100
AcDbEntity
  8
4
 62
     3
100
AcDbText
 10
756.2099625454854
 20
0.9053146619705524
 30
-0.0014200666144597
 40
0.0736427969059672
  1
34
 41
0.9
  7
ROMANS
 72
     4
 11
756.2651946431649
 21
0.942136060423536
 31
-0.0014200666144597
100
AcDbText
  0
TEXT
  5
94
330
2
100
AcDbEntity
  8
4
 62
     3
100
AcDbText
 10
756.2115406054191
 20
1.225747816182123
 30
-0.0014200666144597
 40
0.0736427969059672
  1
32
 41
0.9
  7
ROMANS
 72
     4
 11
756.2651946431649
 21
1.262569214635107
 31
-0.0014200666144597
100
AcDbText
  0
TEXT
  5
95
330
2
100
AcDbEntity
  8
4
 62
     3
100
AcDbText
 10
756.2115406054191
 20
1.063733662989053
 30
-0.0014200666144597
 40
0.0736427969059672
  1
33
 41
0.9
  7
ROMANS
 72
     4
 11
756.2651946431649
 21
1.100555061442037
 31
-0.0014200666144597
100
AcDbText
  0
TEXT
  5
96
330
2
100
AcDbEntity
  8
4
 62
     3
100
AcDbText
 10
756.2257431448224
 20
1.380359925247633
 30
-0.0014200666144597
 40
0.0736427969059672
  1
31
 41
0.9
  7
ROMANS
 72
     4
 11
756.2651946431649
 21
1.417181323700617
 31
-0.0014200666144597
100
AcDbText
  0
TEXT
  5
97
330
2
100
AcDbEntity
  8
4
 62
     3
100
AcDbText
 10
756.2115406054191
 20
1.550656628364068
 30
-0.0014200666144597
 40
0.0736427969059672
  1
30
 41
0.9
  7
ROMANS
 72
     4
 11
756.2651946431649
 21
1.587478026817052
 31
-0.0014200666144597
100
AcDbText
  0
TEXT
  5
98
330
2
100
AcDbEntity
  8
4
 62
     3
100
AcDbText
 10
756.2028347872398
 20
1.71355128735283
 30
-0.0014200666144597
 40
0.0736427969059672
  1
29
 41
0.9
  7
ROMANS
 72
     4
 11
756.2549107650518
 21
1.750372685805814
 31
-0.0014200666144597
100
AcDbText
  0
TEXT
  5
99
330
2
100
AcDbEntity
  8
4
 62
     3
100
AcDbText
 10
756.2115406054191
 20
1.875722903261222
 30
-0.0014200666144597
 40
0.0736427969059672
  1
28
 41
0.9
  7
ROMANS
 72
     4
 11
756.2651946431649
 21
1.912544301714206
 31
-0.0014200666144597
100
AcDbText
  0
TEXT
  5
9A
330
2
100
AcDbEntity
  8
4
 62
     3
100
AcDbText
 10
756.2194309050876
 20
3.333844519063321
 30
-0.0014200666144597
 40
0.0736427969059672
  1
19
 41
0.9
  7
ROMANS
 72
     4
 11
756.2651946431649
 21
3.370665917516305
 31
-0.0014200666144597
100
AcDbText
  0
TEXT
  5
9B
330
2
100
AcDbEntity
  8
4
 62
     3
100
AcDbText
 10
756.2178528451539
 20
4.304013504675398
 30
-0.0014200666144597
 40
0.0736427969059672
  1
17
 41
0.9
  7
ROMANS
 72
     4
 11
756.2651946431649
 21
4.340834903128381
 31
-0.0014200666144597
100
AcDbText
  0
TEXT
  5
9C
330
2
100
AcDbEntity
  8
4
 62
     3
100
AcDbText
 10
756.218421113907
 20
2.036856550658713
 30
-0.0014200666144597
 40
0.0736427969059672
  1
27
 41
0.9
  7
ROMANS
 72
     4
 11
756.2720751516528
 21
2.073677949111697
 31
-0.0014200666144597
100
AcDbText
  0
TEXT
  5
9D
330
2
100
AcDbEntity
  8
4
 62
     3
100
AcDbText
 10
756.2199991738408
 20
2.200631715443054
 30
-0.0014200666144597
 40
0.0736427969059672
  1
26
 41
0.9
  7
ROMANS
 72
     4
 11
756.2720751516528
 21
2.237453113896037
 31
-0.0014200666144597
100
AcDbText
  0
TEXT
  5
9E
330
2
100
AcDbEntity
  8
4
 62
     3
100
AcDbText
 10
756.213022682697
 20
2.361314933780905
 30
-0.0014200666144597
 40
0.0736427969059672
  1
25
 41
0.9
  7
ROMANS
 72
     4
 11
756.2666767204428
 21
2.398136332233889
 31
-0.0014200666144597
100
AcDbText
  0
TEXT
  5
9F
330
2
100
AcDbEntity
  8
4
 62
     3
100
AcDbText
 10
756.2114446227633
 20
2.522170611283032
 30
-0.0014200666144597
 40
0.0736427969059672
  1
24
 41
0.9
  7
ROMANS
 72
     4
 11
756.2666767204428
 21
2.558992009736016
 31
-0.0014200666144597
100
AcDbText
  0
TEXT
  5
A0
330
2
100
AcDbEntity
  8
4
 62
     3
100
AcDbText
 10
756.213022682697
 20
2.692680252876615
 30
-0.0014200666144597
 40
0.0736427969059672
  1
23
 41
0.9
  7
ROMANS
 72
     4
 11
756.2666767204428
 21
2.729501651329599
 31
-0.0014200666144597
100
AcDbText
  0
TEXT
  5
A1
330
2
100
AcDbEntity
  8
4
 62
     3
100
AcDbText
 10
756.2272252221003
 20
3.008767671684412
 30
-0.0014200666144597
 40
0.0736427969059672
  1
21
 41
0.9
  7
ROMANS
 72
     4
 11
756.2666767204428
 21
3.045589070137395
 31
-0.0014200666144597
100
AcDbText
  0
TEXT
  5
A2
330
2
100
AcDbEntity
  8
4
 62
     3
100
AcDbText
 10
756.213022682697
 20
2.847364355997316
 30
-0.0014200666144597
 40
0.0736427969059672
  1
22
 41
0.9
  7
ROMANS
 72
     4
 11
756.2666767204428
 21
2.8841857544503
 31
-0.0014200666144597
100
AcDbText
  0
TEXT
  5
A3
330
2
100
AcDbEntity
  8
4
 62
     3
100
AcDbText
 10
756.4933440705341
 20
0.5773977232945266
 30
-0.0014200666144597
 40
0.0736427969059672
  1
STRIP NUMBER TO BE ADDED ON STRIP
 41
0.9
  7
ROMANS
 72
     4
 11
757.5033024281017
 21
0.6142191217475102
 31
-0.0014200666144597
100
AcDbText
  0
TEXT
  5
A4
330
2
100
AcDbEntity
  8
4
 62
     3
100
AcDbText
 10
756.4861198513251
 20
1.226690475769347
 30
-0.0014200666144597
 40
0.0736427969059672
  1
FRAME TWIST
 41
0.9
  7
ROMANS
 72
     4
 11
756.8127782576009
 21
1.263511874222331
 31
-0.0014200666144597
100
AcDbText
  0
TEXT
  5
A5
330
2
100
AcDbEntity
  8
4
 62
     3
100
AcDbText
 10
756.4868067113686
 20
1.388704628962417
 30
-0.0014200666144597
 40
0.0736427969059672
  1
LEAD TWIST
 41
0.9
  7
ROMANS
 72
     4
 11
756.774013619302
 21
1.425526027415401
 31
-0.0014200666144597
100
AcDbText
  0
TEXT
  5
A6
330
2
100
AcDbEntity
  8
4
 62
     3
100
AcDbText
 10
756.488942480001
 20
1.550718782155544
 30
-0.0014200666144597
 40
0.0736427969059672
  1
CROSS BOW
 41
0.9
  7
ROMANS
 72
     4
 11
756.7824616276691
 21
1.587540180608527
 31
-0.0014200666144597
100
AcDbText
  0
TEXT
  5
A7
330
2
100
AcDbEntity
  8
4
 62
     3
100
AcDbText
 10
756.4834242046495
 20
2.360789548121234
 30
-0.0014200666144597
 40
0.0736427969059672
  1
LEAD TIP PLANARITY FROM DAM BAR
 41
0.9
  7
ROMANS
 72
     4
 11
757.4318382248027
 21
2.397610946574218
 31
-0.0014200666144597
100
AcDbText
  0
TEXT
  5
A8
330
2
100
AcDbEntity
  8
4
 62
     3
100
AcDbText
 10
756.483399612994
 20
4.300126044086115
 30
-0.0014200666144597
 40
0.0736427969059672
  1
COIL SET
 41
0.9
  7
ROMANS
 72
     4
 11
756.7043280037118
 21
4.336947442539099
 31
-0.0014200666144597
100
AcDbText
  0
TEXT
  5
A9
330
2
100
AcDbEntity
  8
4
 62
     3
100
AcDbText
 10
756.4856778994931
 20
1.70852745058423
 30
-0.0014200666144597
 40
0.0736427969059672
  1
PAD PLANARITY
 41
0.9
  7
ROMANS
 72
     4
 11
756.880192882918
 21
1.745348849037213
 31
-0.0014200666144597
100
AcDbText
  0
TEXT
  5
AA
330
2
100
AcDbEntity
  8
4
 62
     3
100
AcDbText
 10
756.4878817067759
 20
1.87474708854174
 30
-0.0014200666144597
 40
0.0736427969059672
  1
PAD TILT
 41
0.9
  7
ROMANS
 72
     4
 11
756.7088100974938
 21
1.911568486994724
 31
-0.0014200666144597
100
AcDbText
  0
TEXT
  5
AB
330
2
100
AcDbEntity
  8
4
 62
     3
100
AcDbText
 10
756.4888300172953
 20
2.036761241734924
 30
-0.0014200666144597
 40
0.0736427969059672
  1
CAMBER
 41
0.9
  7
ROMANS
 72
     4
 11
756.679775269273
 21
2.073582640187908
 31
-0.0014200666144597
100
AcDbText
  0
TEXT
  5
AC
330
2
100
AcDbEntity
  8
4
 62
     3
100
AcDbText
 10
756.4845069342851
 20
2.203647635112732
 30
-0.0014200666144597
 40
0.0736427969059672
  1
PAD FLATNESS
 41
0.9
  7
ROMANS
 72
     4
 11
756.8521948988371
 21
2.240469033565716
 31
-0.0014200666144597
100
AcDbText
  0
TEXT
  5
AD
330
2
100
AcDbEntity
  8
4
 62
     3
100
AcDbText
 10
756.4843499222253
 20
2.522803701314304
 30
-0.0014200666144597
 40
0.0736427969059672
  1
HORIZONTAL BURR
 41
0.9
  7
ROMANS
 72
     4
 11
756.9435653629319
 21
2.559625099767288
 31
-0.0014200666144597
100
AcDbText
  0
TEXT
  5
AE
330
2
100
AcDbEntity
  8
4
 62
     3
100
AcDbText
 10
756.482230163026
 20
2.688233558273881
 30
-0.0014200666144597
 40
0.0736427969059672
  1
VERTICAL BURR
 41
0.9
  7
ROMANS
 72
     4
 11
756.865698726915
 21
2.725054956726864
 31
-0.0014200666144597
100
AcDbText
  0
TEXT
  5
AF
330
2
100
AcDbEntity
  8
4
 62
     3
100
AcDbText
 10
756.244583881371
 20
6.736922485468286
 30
-0.0014200666144597
 40
0.0736427969059672
  1
2
 41
0.9
  7
ROMANS
 72
     4
 11
756.2666767204428
 21
6.77374388392127
 31
-0.0014200666144597
100
AcDbText
  0
TEXT
  5
B0
330
2
100
AcDbEntity
  8
4
 62
     3
100
AcDbText
 10
756.2430058214372
 20
6.411672504070028
 30
-0.0014200666144597
 40
0.0736427969059672
  1
4
 41
0.9
  7
ROMANS
 72
     4
 11
756.2666767204428
 21
6.448493902523011
 31
-0.0014200666144597
100
AcDbText
  0
TEXT
  5
B1
330
2
100
AcDbEntity
  8
4
 62
     3
100
AcDbText
 10
756.244583881371
 20
6.573075819757124
 30
-0.0014200666144597
 40
0.0736427969059672
  1
3
 41
0.9
  7
ROMANS
 72
     4
 11
756.2666767204428
 21
6.609897218210107
 31
-0.0014200666144597
100
AcDbText
  0
TEXT
  5
B2
330
2
100
AcDbEntity
  8
4
 62
     3
100
AcDbText
 10
756.244583881371
 20
6.256988400949327
 30
-0.0014200666144597
 40
0.0736427969059672
  1
5
 41
0.9
  7
ROMANS
 72
     4
 11
756.2666767204428
 21
6.293809799402311
 31
-0.0014200666144597
100
AcDbText
  0
TEXT
  5
B3
330
2
100
AcDbEntity
  8
4
 62
     3
100
AcDbText
 10
756.2461619413046
 20
6.086478759355688
 30
-0.0014200666144597
 40
0.0736427969059672
  1
6
 41
0.9
  7
ROMANS
 72
     4
 11
756.2666767204428
 21
6.123300157808671
 31
-0.0014200666144597
100
AcDbText
  0
TEXT
  5
B4
330
2
100
AcDbEntity
  8
4
 62
     3
100
AcDbText
 10
756.244583881371
 20
5.925623081853561
 30
-0.0014200666144597
 40
0.0736427969059672
  1
7
 41
0.9
  7
ROMANS
 72
     4
 11
756.2666767204428
 21
5.962444480306544
 31
-0.0014200666144597
100
AcDbText
  0
TEXT
  5
B5
330
2
100
AcDbEntity
  8
4
 62
     3
100
AcDbText
 10
756.2515603725147
 20
5.602925710322639
 30
-0.0014200666144597
 40
0.0736427969059672
  1
9
 41
0.9
  7
ROMANS
 72
     4
 11
756.2720751516528
 21
5.639747108775623
 31
-0.0014200666144597
100
AcDbText
  0
TEXT
  5
B6
330
2
100
AcDbEntity
  8
4
 62
     3
100
AcDbText
 10
756.2247333536419
 20
5.439150545538242
 30
-0.0014200666144597
 40
0.0736427969059672
  1
10
 41
0.9
  7
ROMANS
 72
     4
 11
756.2720751516528
 21
5.475971943991225
 31
-0.0014200666144597
100
AcDbText
  0
TEXT
  5
B7
330
2
100
AcDbEntity
  8
4
 62
     3
100
AcDbText
 10
756.2320553845572
 20
5.278016898140751
 30
-0.0014200666144597
 40
0.0736427969059672
  1
11
 41
0.9
  7
ROMANS
 72
     4
 11
756.2651946431649
 21
5.314838296593734
 31
-0.0014200666144597
100
AcDbText
  0
TEXT
  5
B8
330
2
100
AcDbEntity
  8
4
 62
     3
100
AcDbText
 10
756.2075689670408
 20
5.115845282232359
 30
-0.0014200666144597
 40
0.0736427969059672
  1
12
 41
0.9
  7
ROMANS
 72
     4
 11
756.2549107650518
 21
5.152666680685342
 31
-0.0014200666144597
100
AcDbText
  0
TEXT
  5
B9
330
2
100
AcDbEntity
  8
4
 62
     3
100
AcDbText
 10
756.2178528451539
 20
4.95295062324354
 30
-0.0014200666144597
 40
0.0736427969059672
  1
13
 41
0.9
  7
ROMANS
 72
     4
 11
756.2651946431649
 21
4.989772021696524
 31
-0.0014200666144597
100
AcDbText
  0
TEXT
  5
BA
330
2
100
AcDbEntity
  8
4
 62
     3
100
AcDbText
 10
756.2162747852202
 20
4.790936470050414
 30
-0.0014200666144597
 40
0.0736427969059672
  1
14
 41
0.9
  7
ROMANS
 72
     4
 11
756.2651946431649
 21
4.827757868503397
 31
-0.0014200666144597
100
AcDbText
  0
TEXT
  5
BB
330
2
100
AcDbEntity
  8
4
 62
     3
100
AcDbText
 10
756.2178528451539
 20
4.627182012496436
 30
-0.0014200666144597
 40
0.0736427969059672
  1
15
 41
0.9
  7
ROMANS
 72
     4
 11
756.2651946431649
 21
4.664003410949419
 31
-0.0014200666144597
100
AcDbText
  0
TEXT
  5
BC
330
2
100
AcDbEntity
  8
4
 62
     3
100
AcDbText
 10
756.244583881371
 20
5.763608928660434
 30
-0.0014200666144597
 40
0.0736427969059672
  1
8
 41
0.9
  7
ROMANS
 72
     4
 11
756.2666767204428
 21
5.800430327113417
 31
-0.0014200666144597
100
AcDbText
  0
TEXT
  5
BD
330
2
100
AcDbEntity
  8
4
 62
     3
100
AcDbText
 10
756.2587864207743
 20
6.898936638661413
 30
-0.0014200666144597
 40
0.0736427969059672
  1
1
 41
0.9
  7
ROMANS
 72
     4
 11
756.2666767204428
 21
6.935758037114396
 31
-0.0014200666144597
100
AcDbText
  0
TEXT
  5
BE
330
2
100
AcDbEntity
  8
4
 62
     3
100
AcDbText
 10
756.4801139893449
 20
6.738585044701298
 30
-0.0014200666144597
 40
0.0736427969059672
  1
PILOT HOLE DIAMETER
 41
0.9
  7
ROMANS
 72
     4
 11
757.030856906206
 21
6.775406443154281
 31
-0.0014200666144597
100
AcDbText
  0
TEXT
  5
BF
330
2
100
AcDbEntity
  8
4
 62
     3
100
AcDbText
 10
756.4812350044792
 20
6.573155187741664
 30
-0.0014200666144597
 40
0.0736427969059672
  1
EXTERNAL LEAD WIDTH
 41
0.9
  7
ROMANS
 72
     4
 11
757.0493365806109
 21
6.609976586194648
 31
-0.0014200666144597
100
AcDbText
  0
TEXT
  5
C0
330
2
100
AcDbEntity
  8
4
 62
     3
100
AcDbText
 10
756.4831659234214
 20
6.411141034548538
 30
-0.0014200666144597
 40
0.0736427969059672
  1
M TO M CLEARANCE AFTER ETCH
 41
0.9
  7
ROMANS
 72
     4
 11
757.3305841078179
 21
6.447962433001521
 31
-0.0014200666144597
100
AcDbText
  0
TEXT
  5
C1
330
2
100
AcDbEntity
  8
4
 62
     3
100
AcDbText
 10
756.4842709642257
 20
6.249126881355411
 30
-0.0014200666144597
 40
0.0736427969059672
  1
MIN. LEAD SPACE AFTER ETCH
 41
0.9
  7
ROMANS
 72
     4
 11
757.2606764516058
 21
6.285948279808394
 31
-0.0014200666144597
100
AcDbText
  0
TEXT
  5
C2
330
2
100
AcDbEntity
  8
4
 62
     3
100
AcDbText
 10
756.4833226537074
 20
6.087112728162227
 30
-0.0014200666144597
 40
0.0736427969059672
  1
MIN. LEAD SPACE AFTER PLATE
 41
0.9
  7
ROMANS
 72
     4
 11
757.2897112798277
 21
6.12393412661521
 31
-0.0014200666144597
100
AcDbText
  0
TEXT
  5
C3
330
2
100
AcDbEntity
  8
4
 62
     3
100
AcDbText
 10
756.4681575392911
 20
5.9250985749691
 30
-0.0014200666144597
 40
0.0736427969059672
  1
CONNECTING BAR WIDTH
 41
0.9
  7
ROMANS
 72
     4
 11
757.072554493898
 21
5.961919973422084
 31
-0.0014200666144597
100
AcDbText
  0
TEXT
  5
C4
330
2
100
AcDbEntity
  8
4
 62
     3
100
AcDbText
 10
757.4433322098086
 20
5.606263098378546
 30
-0.0014200666144597
 40
0.0736427969059672
  1
(TOP)
 41
0.9
  7
ROMANS
 72
     4
 11
757.572733124372
 21
5.637824297052532
 31
-0.0014200666144597
100
AcDbText
  0
TEXT
  5
C5
330
2
100
AcDbEntity
  8
4
 62
     3
100
AcDbText
 10
757.3368533726868
 20
5.438855710349029
 30
-0.0014200666144597
 40
0.0736427969059672
  1
(BOTTOM)
 41
0.9
  7
ROMANS
 72
     4
 11
757.5672501230069
 21
5.470416909023015
 31
-0.0014200666144597
100
AcDbText
  0
TEXT
  5
C6
330
2
100
AcDbEntity
  8
4
 62
     3
100
AcDbText
 10
756.482465530364
 20
5.602124983597404
 30
-0.0014200666144597
 40
0.0736427969059672
  1
PAD SIZE (X,Y)
 41
0.9
  7
ROMANS
 72
     4
 11
756.8611999144518
 21
5.633686182271389
 31
-0.0014200666144597
100
AcDbText
  0
TEXT
  5
C7
330
2
100
AcDbEntity
  8
4
 62
     3
100
AcDbText
 10
756.4760681374722
 20
5.444316315168718
 30
-0.0014200666144597
 40
0.0736427969059672
  1
PAD SIZE (X,Y)
 41
0.9
  7
ROMANS
 72
     4
 11
756.85480252156
 21
5.475877513842704
 31
-0.0014200666144597
100
AcDbText
  0
TEXT
  5
C8
330
2
100
AcDbEntity
  8
4
 62
     3
100
AcDbText
 10
756.4812525404325
 20
5.27704196219665
 30
-0.0014200666144597
 40
0.0736427969059672
  1
STRIP LENGTH
 41
0.9
  7
ROMANS
 72
     4
 11
756.8252696059789
 21
5.313863360649634
 31
-0.0014200666144597
100
AcDbText
  0
TEXT
  5
C9
330
2
100
AcDbEntity
  8
4
 62
     3
100
AcDbText
 10
756.4813152021768
 20
5.115027809003524
 30
-0.0014200666144597
 40
0.0736427969059672
  1
STRIP WIDTH
 41
0.9
  7
ROMANS
 72
     4
 11
756.784302709447
 21
5.151849207456507
 31
-0.0014200666144597
100
AcDbText
  0
TEXT
  5
CA
330
2
100
AcDbEntity
  8
4
 62
     3
100
AcDbText
 10
756.4842851697351
 20
4.953013655810397
 30
-0.0014200666144597
 40
0.0736427969059672
  1
UNIT PITCH
 41
0.9
  7
ROMANS
 72
     4
 11
756.7541334183977
 21
4.98983505426338
 31
-0.0014200666144597
100
AcDbText
  0
TEXT
  5
CB
330
2
100
AcDbEntity
  8
4
 62
     3
100
AcDbText
 10
756.4833584177011
 20
4.790398562282947
 30
-0.0014200666144597
 40
0.0736427969059672
  1
CUMULATIVE PITCH
 41
0.9
  7
ROMANS
 72
     4
 11
756.9473080382087
 21
4.827219960735931
 31
-0.0014200666144597
100
AcDbText
  0
TEXT
  5
CC
330
2
100
AcDbEntity
  8
4
 62
     3
100
AcDbText
 10
756.4824200605929
 20
4.633506863162521
 30
-0.0014200666144597
 40
0.0736427969059672
  1
LOCK/ANCHOR HOLE
 41
0.9
  7
ROMANS
 72
     4
 11
756.9968675989789
 21
4.665068061836507
 31
-0.0014200666144597
100
AcDbText
  0
TEXT
  5
CD
330
2
100
AcDbEntity
  8
4
 62
     3
100
AcDbText
 10
756.4751719630382
 20
5.763084421776031
 30
-0.0014200666144597
 40
0.0736427969059672
  1
HALF ETCHED DEPTH
 41
0.9
  7
ROMANS
 72
     4
 11
756.995931741159
 21
5.799905820229014
 31
-0.0014200666144597
100
AcDbText
  0
TEXT
  5
CE
330
2
100
AcDbEntity
  8
4
 62
     3
100
AcDbText
 10
757.74768617473
 20
6.58679208868804
 30
-0.0014200666144597
 40
0.0736427969059672
  1
(BOTTOM)
 41
0.9
  7
ROMANS
 72
     4
 11
757.9780829250501
 21
6.618353287362026
 31
-0.0014200666144597
100
AcDbText
  0
TEXT
  5
CF
330
2
100
AcDbEntity
  8
4
 62
     3
100
AcDbText
 10
756.4806717251748
 20
6.897183494127918
 30
-0.0014200666144597
 40
0.0736427969059672
  1
MATERIAL THICKNESS - 
 41
0.9
  7
ROMANS
 72
     4
 11
757.1197859983231
 21
6.934004892580901
 31
-0.0014200666144597
100
AcDbText
  0
TEXT
  5
D0
330
2
100
AcDbEntity
  8
4
 62
     3
100
AcDbText
 10
757.7525822085267
 20
6.891957757417432
 30
-0.0014200666144597
 40
0.0736427969059672
  1
A194 FH
 41
0.9
  7
ROMANS
 72
     4
 11
757.956151939974
 21
6.928779155870415
 31
-0.0014200666144597
100
AcDbText
  0
TEXT
  5
D1
330
2
100
AcDbEntity
  8
4
 62
     3
100
AcDbText
 10
761.79962560202
 20
4.46676479351166
 30
-0.0014200666144597
 40
0.0736427969059672
  1
0.020
 41
0.9
  7
ROMANS
 72
     4
 11
761.9321826364507
 21
4.503586191964643
 31
-0.0014200666144597
100
AcDbText
  0
LWPOLYLINE
  5
D2
330
2
100
AcDbEntity
  8
4
 62
     7
100
AcDbPolyline
 90
        2
 70
     0
 43
0.0073642796905967
 38
-0.0014200666144597
 10
761.5403054756259
 20
3.287473593751826
 10
761.5403054756259
 20
3.449487454019845
  0
LWPOLYLINE
  5
D3
330
2
100
AcDbEntity
  8
4
 62
     7
100
AcDbPolyline
 90
        2
 70
     0
 43
0.0073642796905967
 38
-0.0014200666144597
 10
761.5403054756259
 20
3.611501314287806
 10
761.5403054756259
 20
4.259556755359881
  0
LWPOLYLINE
  5
D4
330
2
100
AcDbEntity
  8
4
 62
     7
100
AcDbPolyline
 90
        2
 70
     0
 43
0.0073642796905967
 38
-0.0014200666144597
 10
761.5403054756259
 20
4.259556755359881
 10
761.5403054756259
 20
7.205893859841978
  0
LWPOLYLINE
  5
D5
330
2
100
AcDbEntity
  8
4
 62
     7
100
AcDbPolyline
 90
        2
 70
     0
 43
0.0073642796905967
 38
-0.0014200666144597
 10
760.760716473075
 20
3.287473593751826
 10
760.760716473075
 20
3.449487454019845
  0
LWPOLYLINE
  5
D6
330
2
100
AcDbEntity
  8
4
 62
     7
100
AcDbPolyline
 90
        2
 70
     0
 43
0.0073642796905967
 38
-0.0014200666144597
 10
760.760716473075
 20
3.611501314287806
 10
760.760716473075
 20
4.259556755359881
  0
LWPOLYLINE
  5
D7
330
2
100
AcDbEntity
  8
4
 62
     7
100
AcDbPolyline
 90
        2
 70
     0
 43
0.0073642796905967
 38
-0.0014200666144597
 10
760.760716473075
 20
4.259556755359881
 10
760.760716473075
 20
7.205893859841978
  0
LWPOLYLINE
  5
D8
330
2
100
AcDbEntity
  8
4
 62
     7
100
AcDbPolyline
 90
        2
 70
     0
 43
0.0073642796905967
 38
-0.0014200666144597
 10
759.9811274705229
 20
3.287473593751826
 10
759.9811274705229
 20
3.449487454019845
  0
LWPOLYLINE
  5
D9
330
2
100
AcDbEntity
  8
4
 62
     7
100
AcDbPolyline
 90
        2
 70
     0
 43
0.0073642796905967
 38
-0.0014200666144597
 10
759.9811274705229
 20
3.611501314287806
 10
759.9811274705229
 20
4.259556755359881
  0
LWPOLYLINE
  5
DA
330
2
100
AcDbEntity
  8
4
 62
     7
100
AcDbPolyline
 90
        2
 70
     0
 43
0.0073642796905967
 38
-0.0014200666144597
 10
759.9811274705229
 20
4.259556755359881
 10
759.9811274705229
 20
7.205893859841978
  0
TEXT
  5
DB
330
2
100
AcDbEntity
  8
4
 62
     3
100
AcDbText
 10
761.1227021463712
 20
4.3065594482114
 30
-0.0014200666144597
 40
0.0736427969059672
  1
-
 41
0.9
  7
ROMANS
 72
     4
 11
761.1511072251778
 21
4.338120646885386
 31
-0.0014200666144597
100
AcDbText
  0
TEXT
  5
DC
330
2
100
AcDbEntity
  8
4
 62
     3
100
AcDbText
 10
760.9820643496948
 20
1.7125265326292
 30
-0.0014200666144597
 40
0.0736427969059672
  1
%%p0.102
 41
0.9
  7
ROMANS
 72
     4
 11
761.1493387026669
 21
1.749347931082184
 31
-0.0014200666144597
100
AcDbText
  0
TEXT
  5
DD
330
2
100
AcDbEntity
  8
4
 62
     3
100
AcDbText
 10
761.1179836962062
 20
1.876349493715307
 30
-0.0014200666144597
 40
0.0736427969059672
  1
-
 41
0.9
  7
ROMANS
 72
     4
 11
761.1463887750128
 21
1.907910692389293
 31
-0.0014200666144597
100
AcDbText
  0
TEXT
  5
DE
330
2
100
AcDbEntity
  8
4
 62
     3
100
AcDbText
 10
761.1179836962062
 20
2.038363646908434
 30
-0.0014200666144597
 40
0.0736427969059672
  1
-
 41
0.9
  7
ROMANS
 72
     4
 11
761.1463887750128
 21
2.06992484558242
 31
-0.0014200666144597
100
AcDbText
  0
TEXT
  5
DF
330
2
100
AcDbEntity
  8
4
 62
     3
100
AcDbText
 10
761.1179836962062
 20
2.200377800101617
 30
-0.0014200666144597
 40
0.0736427969059672
  1
-
 41
0.9
  7
ROMANS
 72
     4
 11
761.1463887750128
 21
2.231938998775603
 31
-0.0014200666144597
100
AcDbText
  0
TEXT
  5
E0
330
2
100
AcDbEntity
  8
4
 62
     3
100
AcDbText
 10
761.0471610843061
 20
1.0642669514709
 30
-0.0014200666144597
 40
0.0736427969059672
  1
0.008
 41
0.9
  7
ROMANS
 72
     4
 11
761.1797181187369
 21
1.101088349923884
 31
-0.0014200666144597
100
AcDbText
  0
TEXT
  5
E1
330
2
100
AcDbEntity
  8
4
 62
     3
100
AcDbText
 10
761.1179836962062
 20
1.552321187329111
 30
-0.0014200666144597
 40
0.0736427969059672
  1
-
 41
0.9
  7
ROMANS
 72
     4
 11
761.1463887750128
 21
1.583882386003097
 31
-0.0014200666144597
100
AcDbText
  0
TEXT
  5
E2
330
2
100
AcDbEntity
  8
4
 62
     3
100
AcDbText
 10
761.1179836962062
 20
1.390307034136041
 30
-0.0014200666144597
 40
0.0736427969059672
  1
-
 41
0.9
  7
ROMANS
 72
     4
 11
761.1463887750128
 21
1.421868232810027
 31
-0.0014200666144597
100
AcDbText
  0
TEXT
  5
E3
330
2
100
AcDbEntity
  8
4
 62
     3
100
AcDbText
 10
761.1179836962062
 20
1.228292880942857
 30
-0.0014200666144597
 40
0.0736427969059672
  1
-
 41
0.9
  7
ROMANS
 72
     4
 11
761.1463887750128
 21
1.259854079616843
 31
-0.0014200666144597
100
AcDbText
  0
TEXT
  5
E4
330
2
100
AcDbEntity
  8
4
 62
     3
100
AcDbText
 10
761.1179836962062
 20
2.524406106487928
 30
-0.0014200666144597
 40
0.0736427969059672
  1
-
 41
0.9
  7
ROMANS
 72
     4
 11
761.1463887750128
 21
2.555967305161914
 31
-0.0014200666144597
100
AcDbText
  0
TEXT
  5
E5
330
2
100
AcDbEntity
  8
4
 62
     3
100
AcDbText
 10
761.1179836962062
 20
2.848434412874124
 30
-0.0014200666144597
 40
0.0736427969059672
  1
-
 41
0.9
  7
ROMANS
 72
     4
 11
761.1463887750128
 21
2.87999561154811
 31
-0.0014200666144597
100
AcDbText
  0
TEXT
  5
E6
330
2
100
AcDbEntity
  8
4
 62
     3
100
AcDbText
 10
761.1179836962062
 20
2.686420259681054
 30
-0.0014200666144597
 40
0.0736427969059672
  1
-
 41
0.9
  7
ROMANS
 72
     4
 11
761.1463887750128
 21
2.717981458355041
 31
-0.0014200666144597
100
AcDbText
  0
TEXT
  5
E7
330
2
100
AcDbEntity
  8
4
 62
     3
100
AcDbText
 10
760.9820643496948
 20
2.360583145401764
 30
-0.0014200666144597
 40
0.0736427969059672
  1
%%p0.152
 41
0.9
  7
ROMANS
 72
     4
 11
761.1493387026669
 21
2.397404543854747
 31
-0.0014200666144597
100
AcDbText
  0
LWPOLYLINE
  5
E8
330
2
100
AcDbEntity
  8
4
 62
     7
100
AcDbPolyline
 90
        2
 70
     0
 43
0.0073642796905967
 38
-0.0014200666144597
 10
760.760716473075
 20
1.18128989516623
 10
760.760716473075
 20
2.963445287365516
  0
LWPOLYLINE
  5
E9
330
2
100
AcDbEntity
  8
4
 62
     7
100
AcDbPolyline
 90
        2
 70
     0
 43
0.0073642796905967
 38
-0.0014200666144597
 10
759.9811274705229
 20
1.18128989516623
 10
759.9811274705229
 20
3.287473593751712
  0
TEXT
  5
EA
330
2
100
AcDbEntity
  8
4
 62
     3
100
AcDbText
 10
760.3513393376902
 20
1.228292880942857
 30
-0.0014200666144597
 40
0.0736427969059672
  1
-
 41
0.9
  7
ROMANS
 72
     4
 11
760.3797444164968
 21
1.259854079616843
 31
-0.0014200666144597
100
AcDbText
  0
TEXT
  5
EB
330
2
100
AcDbEntity
  8
4
 62
     3
100
AcDbText
 10
760.3513393376902
 20
1.390307034136041
 30
-0.0014200666144597
 40
0.0736427969059672
  1
-
 41
0.9
  7
ROMANS
 72
     4
 11
760.3797444164968
 21
1.421868232810027
 31
-0.0014200666144597
100
AcDbText
  0
TEXT
  5
EC
330
2
100
AcDbEntity
  8
4
 62
     3
100
AcDbText
 10
760.3513393376902
 20
1.552321187329111
 30
-0.0014200666144597
 40
0.0736427969059672
  1
-
 41
0.9
  7
ROMANS
 72
     4
 11
760.3797444164968
 21
1.583882386003097
 31
-0.0014200666144597
100
AcDbText
  0
TEXT
  5
ED
330
2
100
AcDbEntity
  8
4
 62
     3
100
AcDbText
 10
760.3675389129582
 20
4.3065594482114
 30
-0.0014200666144597
 40
0.0736427969059672
  1
-
 41
0.9
  7
ROMANS
 72
     4
 11
760.3959439917648
 21
4.338120646885386
 31
-0.0014200666144597
100
AcDbText
  0
TEXT
  5
EE
330
2
100
AcDbEntity
  8
4
 62
     3
100
AcDbText
 10
760.3513393376902
 20
2.362391953294687
 30
-0.0014200666144597
 40
0.0736427969059672
  1
-
 41
0.9
  7
ROMANS
 72
     4
 11
760.3797444164968
 21
2.393953151968673
 31
-0.0014200666144597
100
AcDbText
  0
TEXT
  5
EF
330
2
100
AcDbEntity
  8
4
 62
     3
100
AcDbText
 10
760.3513393376902
 20
2.200377800101617
 30
-0.0014200666144597
 40
0.0736427969059672
  1
-
 41
0.9
  7
ROMANS
 72
     4
 11
760.3797444164968
 21
2.231938998775603
 31
-0.0014200666144597
100
AcDbText
  0
TEXT
  5
F0
330
2
100
AcDbEntity
  8
4
 62
     3
100
AcDbText
 10
760.3513393376902
 20
2.038363646908434
 30
-0.0014200666144597
 40
0.0736427969059672
  1
-
 41
0.9
  7
ROMANS
 72
     4
 11
760.3797444164968
 21
2.06992484558242
 31
-0.0014200666144597
100
AcDbText
  0
TEXT
  5
F1
330
2
100
AcDbEntity
  8
4
 62
     3
100
AcDbText
 10
760.3513393376902
 20
1.876349493715307
 30
-0.0014200666144597
 40
0.0736427969059672
  1
-
 41
0.9
  7
ROMANS
 72
     4
 11
760.3797444164968
 21
1.907910692389293
 31
-0.0014200666144597
100
AcDbText
  0
TEXT
  5
F2
330
2
100
AcDbEntity
  8
4
 62
     3
100
AcDbText
 10
760.3513393376902
 20
2.686420259681054
 30
-0.0014200666144597
 40
0.0736427969059672
  1
-
 41
0.9
  7
ROMANS
 72
     4
 11
760.3797444164968
 21
2.717981458355041
 31
-0.0014200666144597
100
AcDbText
  0
TEXT
  5
F3
330
2
100
AcDbEntity
  8
4
 62
     3
100
AcDbText
 10
760.3513393376902
 20
2.848434412874124
 30
-0.0014200666144597
 40
0.0736427969059672
  1
-
 41
0.9
  7
ROMANS
 72
     4
 11
760.3797444164968
 21
2.87999561154811
 31
-0.0014200666144597
100
AcDbText
  0
TEXT
  5
F4
330
2
100
AcDbEntity
  8
4
 62
     3
100
AcDbText
 10
760.3513393376902
 20
2.524406106487928
 30
-0.0014200666144597
 40
0.0736427969059672
  1
-
 41
0.9
  7
ROMANS
 72
     4
 11
760.3797444164968
 21
2.555967305161914
 31
-0.0014200666144597
100
AcDbText
  0
TEXT
  5
F5
330
2
100
AcDbEntity
  8
4
 62
     3
100
AcDbText
 10
760.3513393376902
 20
1.714335340522237
 30
-0.0014200666144597
 40
0.0736427969059672
  1
-
 41
0.9
  7
ROMANS
 72
     4
 11
760.3797444164968
 21
1.745896539196223
 31
-0.0014200666144597
100
AcDbText
  0
TEXT
  5
F6
330
2
100
AcDbEntity
  8
4
 62
     3
100
AcDbText
 10
761.8188786213883
 20
1.55051237943613
 30
-0.0014200666144597
 40
0.0736427969059672
  1
0.300
 41
0.9
  7
ROMANS
 72
     4
 11
761.951435655819
 21
1.587333777889114
 31
-0.0014200666144597
100
AcDbText
  0
TEXT
  5
F7
330
2
100
AcDbEntity
  8
4
 62
     3
100
AcDbText
 10
761.8188786213883
 20
1.22648407304982
 30
-0.0014200666144597
 40
0.0736427969059672
  1
0.635
 41
0.9
  7
ROMANS
 72
     4
 11
761.951435655819
 21
1.263305471502803
 31
-0.0014200666144597
100
AcDbText
  0
TEXT
  5
F8
330
2
100
AcDbEntity
  8
4
 62
     3
100
AcDbText
 10
761.8030980220513
 20
1.388498226242946
 30
-0.0014200666144597
 40
0.0736427969059672
  1
2.500%%d
 41
0.9
  7
ROMANS
 72
     4
 11
761.951435655819
 21
1.42531962469593
 31
-0.0014200666144597
100
AcDbText
  0
TEXT
  5
F9
330
2
100
AcDbEntity
  8
4
 62
     3
100
AcDbText
 10
761.79962560202
 20
4.304750640318419
 30
-0.0014200666144597
 40
0.0736427969059672
  1
0.635
 41
0.9
  7
ROMANS
 72
     4
 11
761.9321826364507
 21
4.341572038771403
 31
-0.0014200666144597
100
AcDbText
  0
TEXT
  5
FA
330
2
100
AcDbEntity
  8
4
 62
     3
100
AcDbText
 10
761.8188786213883
 20
2.684611451788017
 30
-0.0014200666144597
 40
0.0736427969059672
  1
0.025
 41
0.9
  7
ROMANS
 72
     4
 11
761.951435655819
 21
2.721432850241001
 31
-0.0014200666144597
100
AcDbText
  0
TEXT
  5
FB
330
2
100
AcDbEntity
  8
4
 62
     3
100
AcDbText
 10
761.8251908611231
 20
2.846625604981144
 30
-0.0014200666144597
 40
0.0736427969059672
  1
0.150
 41
0.9
  7
ROMANS
 72
     4
 11
761.951435655819
 21
2.883447003434127
 31
-0.0014200666144597
100
AcDbText
  0
TEXT
  5
FC
330
2
100
AcDbEntity
  8
4
 62
     3
100
AcDbText
 10
761.9200806493592
 20
2.362391953294687
 30
-0.0014200666144597
 40
0.0736427969059672
  1
-
 41
0.9
  7
ROMANS
 72
     4
 11
761.9484857281658
 21
2.393953151968673
 31
-0.0014200666144597
100
AcDbText
  0
TEXT
  5
FD
330
2
100
AcDbEntity
  8
4
 62
     3
100
AcDbText
 10
761.9200806493592
 20
1.714335340522237
 30
-0.0014200666144597
 40
0.0736427969059672
  1
-
 41
0.9
  7
ROMANS
 72
     4
 11
761.9484857281658
 21
1.745896539196223
 31
-0.0014200666144597
100
AcDbText
  0
TEXT
  5
FE
330
2
100
AcDbEntity
  8
4
 62
     3
100
AcDbText
 10
761.6484481485488
 20
2.203829191987634
 30
-0.0014200666144597
 40
0.0736427969059672
  1
0.010/2.540
 41
0.9
  7
ROMANS
 72
     4
 11
761.951435655819
 21
2.235390390661621
 31
-0.0014200666144597
100
AcDbText
  0
TEXT
  5
FF
330
2
100
AcDbEntity
  8
4
 62
     3
100
AcDbText
 10
761.820456681322
 20
2.036554839015567
 30
-0.0014200666144597
 40
0.0736427969059672
  1
0.076
 41
0.9
  7
ROMANS
 72
     4
 11
761.951435655819
 21
2.073376237468551
 31
-0.0014200666144597
100
AcDbText
  0
TEXT
  5
100
330
2
100
AcDbEntity
  8
4
 62
     3
100
AcDbText
 10
761.616246620744
 20
1.879800885601438
 30
-0.0014200666144597
 40
0.0736427969059672
  1
0.076/2.540
 41
0.9
  7
ROMANS
 72
     4
 11
761.925546367749
 21
1.911362084275424
 31
-0.0014200666144597
100
AcDbText
  0
TEXT
  5
101
330
2
100
AcDbEntity
  8
4
 62
     3
100
AcDbText
 10
760.9569142021212
 20
5.276835559477237
 30
-0.0014200666144597
 40
0.0736427969059672
  1
250.000
 41
0.9
  7
ROMANS
 72
     4
 11
761.1525936338998
 21
5.31365695793022
 31
-0.0014200666144597
100
AcDbText
  0
TEXT
  5
102
330
2
100
AcDbEntity
  8
4
 62
     3
100
AcDbText
 10
760.9884754007951
 20
5.11482140628411
 30
-0.0014200666144597
 40
0.0736427969059672
  1
70.000
 41
0.9
  7
ROMANS
 72
     4
 11
761.1525936338998
 21
5.151642804737093
 31
-0.0014200666144597
100
AcDbText
  0
TEXT
  5
103
330
2
100
AcDbEntity
  8
4
 62
     3
100
AcDbText
 10
760.9947876405299
 20
4.952807253090926
 30
-0.0014200666144597
 40
0.0736427969059672
  1
61.500
 41
0.9
  7
ROMANS
 72
     4
 11
761.1525936338998
 21
4.98962865154391
 31
-0.0014200666144597
100
AcDbText
  0
TEXT
  5
104
330
2
100
AcDbEntity
  8
4
 62
     3
100
AcDbText
 10
760.9632264418559
 20
4.7907930998978
 30
-0.0014200666144597
 40
0.0736427969059672
  1
184.500
 41
0.9
  7
ROMANS
 72
     4
 11
761.1525936338998
 21
4.827614498350783
 31
-0.0014200666144597
100
AcDbText
  0
TEXT
  5
105
330
2
100
AcDbEntity
  8
4
 62
     3
100
AcDbText
 10
761.0200365994691
 20
6.896977091408561
 30
-0.0014200666144597
 40
0.0736427969059672
  1
0.203
 41
0.9
  7
ROMANS
 72
     4
 11
761.1525936338998
 21
6.933798489861544
 31
-0.0014200666144597
100
AcDbText
  0
TEXT
  5
106
330
2
100
AcDbEntity
  8
4
 62
     3
100
AcDbText
 10
761.0247707792701
 20
6.73496293821532
 30
-0.0014200666144597
 40
0.0736427969059672
  1
1.524
 41
0.9
  7
ROMANS
 72
     4
 11
761.1525936338998
 21
6.771784336668304
 31
-0.0014200666144597
100
AcDbText
  0
TEXT
  5
107
330
2
100
AcDbEntity
  8
4
 62
     7
100
AcDbText
 10
761.0103218955792
 20
7.059368631396833
 30
-0.0014200666144597
 40
0.0883713562871606
  1
NOM.
 41
0.9
  7
ROMANS
 72
     4
 11
761.14287893001
 21
7.103554309540413
 31
-0.0014200666144597
100
AcDbText
  0
TEXT
  5
108
330
2
100
AcDbEntity
  8
4
 62
     3
100
AcDbText
 10
761.1227021463712
 20
4.46857360140464
 30
-0.0014200666144597
 40
0.0736427969059672
  1
-
 41
0.9
  7
ROMANS
 72
     4
 11
761.1511072251778
 21
4.500134800078626
 31
-0.0014200666144597
100
AcDbText
  0
TEXT
  5
109
330
2
100
AcDbEntity
  8
4
 62
     3
100
AcDbText
 10
761.1227021463712
 20
4.63058775459771
 30
-0.0014200666144597
 40
0.0736427969059672
  1
-
 41
0.9
  7
ROMANS
 72
     4
 11
761.1511072251778
 21
4.662148953271696
 31
-0.0014200666144597
100
AcDbText
  0
TEXT
  5
10A
330
2
100
AcDbEntity
  8
4
 62
     3
100
AcDbText
 10
761.1227021463712
 20
6.412743439722161
 30
-0.0014200666144597
 40
0.0736427969059672
  1
-
 41
0.9
  7
ROMANS
 72
     4
 11
761.1511072251778
 21
6.444304638396147
 31
-0.0014200666144597
100
AcDbText
  0
TEXT
  5
10B
330
2
100
AcDbEntity
  8
4
 62
     3
100
AcDbText
 10
761.1227021463712
 20
6.250729286529034
 30
-0.0014200666144597
 40
0.0736427969059672
  1
-
 41
0.9
  7
ROMANS
 72
     4
 11
761.1511072251778
 21
6.28229048520302
 31
-0.0014200666144597
100
AcDbText
  0
TEXT
  5
10C
330
2
100
AcDbEntity
  8
4
 62
     3
100
AcDbText
 10
761.1227021463712
 20
6.088715133335851
 30
-0.0014200666144597
 40
0.0736427969059672
  1
-
 41
0.9
  7
ROMANS
 72
     4
 11
761.1511072251778
 21
6.120276332009837
 31
-0.0014200666144597
100
AcDbText
  0
TEXT
  5
10D
330
2
100
AcDbEntity
  8
4
 62
     3
100
AcDbText
 10
761.0248624304818
 20
5.92144078036384
 30
-0.0014200666144597
 40
0.0736427969059672
  1
0.190
 41
0.9
  7
ROMANS
 72
     4
 11
761.1511072251778
 21
5.958262178816823
 31
-0.0014200666144597
100
AcDbText
  0
TEXT
  5
10E
330
2
100
AcDbEntity
  8
4
 62
     3
100
AcDbText
 10
761.0248624304818
 20
5.759426627170713
 30
-0.0014200666144597
 40
0.0736427969059672
  1
0.100
 41
0.9
  7
ROMANS
 72
     4
 11
761.1511072251778
 21
5.796248025623697
 31
-0.0014200666144597
100
AcDbText
  0
TEXT
  5
10F
330
2
100
AcDbEntity
  8
4
 62
     3
100
AcDbText
 10
760.1836374393038
 20
4.7907930998978
 30
-0.0014200666144597
 40
0.0736427969059672
  1
184.450
 41
0.9
  7
ROMANS
 72
     4
 11
760.3730046313478
 21
4.827614498350783
 31
-0.0014200666144597
100
AcDbText
  0
TEXT
  5
110
330
2
100
AcDbEntity
  8
4
 62
     3
100
AcDbText
 10
760.2151986379778
 20
4.952807253090926
 30
-0.0014200666144597
 40
0.0736427969059672
  1
61.475
 41
0.9
  7
ROMANS
 72
     4
 11
760.3730046313478
 21
4.98962865154391
 31
-0.0014200666144597
100
AcDbText
  0
TEXT
  5
111
330
2
100
AcDbEntity
  8
4
 62
     3
100
AcDbText
 10
760.208886398243
 20
5.11482140628411
 30
-0.0014200666144597
 40
0.0736427969059672
  1
69.950
 41
0.9
  7
ROMANS
 72
     4
 11
760.3730046313478
 21
5.151642804737093
 31
-0.0014200666144597
100
AcDbText
  0
TEXT
  5
112
330
2
100
AcDbEntity
  8
4
 62
     3
100
AcDbText
 10
760.1773251995691
 20
5.276835559477237
 30
-0.0014200666144597
 40
0.0736427969059672
  1
249.900
 41
0.9
  7
ROMANS
 72
     4
 11
760.3730046313478
 21
5.31365695793022
 31
-0.0014200666144597
100
AcDbText
  0
TEXT
  5
113
330
2
100
AcDbEntity
  8
4
 62
     3
100
AcDbText
 10
760.240447596917
 20
6.086906325442813
 30
-0.0014200666144597
 40
0.0736427969059672
  1
0.050
 41
0.9
  7
ROMANS
 72
     4
 11
760.3730046313478
 21
6.123727723895797
 31
-0.0014200666144597
100
AcDbText
  0
TEXT
  5
114
330
2
100
AcDbEntity
  8
4
 62
     3
100
AcDbText
 10
760.240447596917
 20
6.248920478636054
 30
-0.0014200666144597
 40
0.0736427969059672
  1
0.060
 41
0.9
  7
ROMANS
 72
     4
 11
760.3730046313478
 21
6.285741877089037
 31
-0.0014200666144597
100
AcDbText
  0
TEXT
  5
115
330
2
100
AcDbEntity
  8
4
 62
     3
100
AcDbText
 10
760.240447596917
 20
6.410934631829124
 30
-0.0014200666144597
 40
0.0736427969059672
  1
0.060
 41
0.9
  7
ROMANS
 72
     4
 11
760.3730046313478
 21
6.447756030282107
 31
-0.0014200666144597
100
AcDbText
  0
TEXT
  5
116
330
2
100
AcDbEntity
  8
4
 62
     3
100
AcDbText
 10
760.2483378965855
 20
6.73496293821532
 30
-0.0014200666144597
 40
0.0736427969059672
  1
1.499
 41
0.9
  7
ROMANS
 72
     4
 11
760.3730046313478
 21
6.771784336668304
 31
-0.0014200666144597
100
AcDbText
  0
TEXT
  5
117
330
2
100
AcDbEntity
  8
4
 62
     3
100
AcDbText
 10
760.3675389129582
 20
4.63058775459771
 30
-0.0014200666144597
 40
0.0736427969059672
  1
-
 41
0.9
  7
ROMANS
 72
     4
 11
760.3959439917648
 21
4.662148953271696
 31
-0.0014200666144597
100
AcDbText
  0
TEXT
  5
118
330
2
100
AcDbEntity
  8
4
 62
     3
100
AcDbText
 10
760.3675389129582
 20
4.46857360140464
 30
-0.0014200666144597
 40
0.0736427969059672
  1
-
 41
0.9
  7
ROMANS
 72
     4
 11
760.3959439917648
 21
4.500134800078626
 31
-0.0014200666144597
100
AcDbText
  0
TEXT
  5
119
330
2
100
AcDbEntity
  8
4
 62
     3
100
AcDbText
 10
760.2467598366518
 20
5.924892172249744
 30
-0.0014200666144597
 40
0.0736427969059672
  1
0.150
 41
0.9
  7
ROMANS
 72
     4
 11
760.3730046313478
 21
5.961713570702727
 31
-0.0014200666144597
100
AcDbText
  0
TEXT
  5
11A
330
2
100
AcDbEntity
  8
4
 62
     3
100
AcDbText
 10
760.240447596917
 20
5.762878019056617
 30
-0.0014200666144597
 40
0.0736427969059672
  1
0.070
 41
0.9
  7
ROMANS
 72
     4
 11
760.3730046313478
 21
5.7996994175096
 31
-0.0014200666144597
100
AcDbText
  0
TEXT
  5
11B
330
2
100
AcDbEntity
  8
4
 62
     3
100
AcDbText
 10
760.2467598366518
 20
6.896977091408561
 30
-0.0014200666144597
 40
0.0736427969059672
  1
0.195
 41
0.9
  7
ROMANS
 72
     4
 11
760.3730046313478
 21
6.933798489861544
 31
-0.0014200666144597
100
AcDbText
  0
TEXT
  5
11C
330
2
100
AcDbEntity
  8
4
 62
     7
100
AcDbText
 10
760.2821167456233
 20
7.060181370547835
 30
-0.0014200666144597
 40
0.0883713562871606
  1
MIN.
 41
0.9
  7
ROMANS
 72
     4
 11
760.3881623731679
 21
7.104367048691415
 31
-0.0014200666144597
100
AcDbText
  0
TEXT
  5
11D
330
2
100
AcDbEntity
  8
4
 62
     3
100
AcDbText
 10
761.7428154444068
 20
5.276835559477237
 30
-0.0014200666144597
 40
0.0736427969059672
  1
250.100
 41
0.9
  7
ROMANS
 72
     4
 11
761.9321826364507
 21
5.31365695793022
 31
-0.0014200666144597
100
AcDbText
  0
TEXT
  5
11E
330
2
100
AcDbEntity
  8
4
 62
     3
100
AcDbText
 10
761.768064403346
 20
5.11482140628411
 30
-0.0014200666144597
 40
0.0736427969059672
  1
70.050
 41
0.9
  7
ROMANS
 72
     4
 11
761.9321826364507
 21
5.151642804737093
 31
-0.0014200666144597
100
AcDbText
  0
TEXT
  5
11F
330
2
100
AcDbEntity
  8
4
 62
     3
100
AcDbText
 10
761.7743766430808
 20
4.952807253090926
 30
-0.0014200666144597
 40
0.0736427969059672
  1
61.525
 41
0.9
  7
ROMANS
 72
     4
 11
761.9321826364507
 21
4.98962865154391
 31
-0.0014200666144597
100
AcDbText
  0
TEXT
  5
120
330
2
100
AcDbEntity
  8
4
 62
     3
100
AcDbText
 10
761.7428154444068
 20
4.7907930998978
 30
-0.0014200666144597
 40
0.0736427969059672
  1
184.550
 41
0.9
  7
ROMANS
 72
     4
 11
761.9321826364507
 21
4.827614498350783
 31
-0.0014200666144597
100
AcDbText
  0
TEXT
  5
121
330
2
100
AcDbEntity
  8
4
 62
     3
100
AcDbText
 10
761.8075159016885
 20
6.73496293821532
 30
-0.0014200666144597
 40
0.0736427969059672
  1
1.549
 41
0.9
  7
ROMANS
 72
     4
 11
761.9321826364507
 21
6.771784336668304
 31
-0.0014200666144597
100
AcDbText
  0
TEXT
  5
122
330
2
100
AcDbEntity
  8
4
 62
     3
100
AcDbText
 10
761.9166993118892
 20
4.63058775459771
 30
-0.0014200666144597
 40
0.0736427969059672
  1
-
 41
0.9
  7
ROMANS
 72
     4
 11
761.9451043906958
 21
4.662148953271696
 31
-0.0014200666144597
100
AcDbText
  0
TEXT
  5
123
330
2
100
AcDbEntity
  8
4
 62
     3
100
AcDbText
 10
761.9166993118892
 20
6.412743439722161
 30
-0.0014200666144597
 40
0.0736427969059672
  1
-
 41
0.9
  7
ROMANS
 72
     4
 11
761.9451043906958
 21
6.444304638396147
 31
-0.0014200666144597
100
AcDbText
  0
TEXT
  5
124
330
2
100
AcDbEntity
  8
4
 62
     3
100
AcDbText
 10
761.9166993118892
 20
6.250729286529034
 30
-0.0014200666144597
 40
0.0736427969059672
  1
-
 41
0.9
  7
ROMANS
 72
     4
 11
761.9451043906958
 21
6.28229048520302
 31
-0.0014200666144597
100
AcDbText
  0
TEXT
  5
125
330
2
100
AcDbEntity
  8
4
 62
     3
100
AcDbText
 10
761.9166993118892
 20
6.088715133335851
 30
-0.0014200666144597
 40
0.0736427969059672
  1
-
 41
0.9
  7
ROMANS
 72
     4
 11
761.9451043906958
 21
6.120276332009837
 31
-0.0014200666144597
100
AcDbText
  0
TEXT
  5
126
330
2
100
AcDbEntity
  8
4
 62
     3
100
AcDbText
 10
761.8125473562651
 20
5.92144078036384
 30
-0.0014200666144597
 40
0.0736427969059672
  1
0.230
 41
0.9
  7
ROMANS
 72
     4
 11
761.9451043906958
 21
5.958262178816823
 31
-0.0014200666144597
100
AcDbText
  0
TEXT
  5
127
330
2
100
AcDbEntity
  8
4
 62
     3
100
AcDbText
 10
761.8188595959999
 20
5.759426627170713
 30
-0.0014200666144597
 40
0.0736427969059672
  1
0.130
 41
0.9
  7
ROMANS
 72
     4
 11
761.9451043906958
 21
5.796248025623697
 31
-0.0014200666144597
100
AcDbText
  0
TEXT
  5
128
330
2
100
AcDbEntity
  8
4
 62
     3
100
AcDbText
 10
761.8201403811581
 20
6.896977091408561
 30
-0.0014200666144597
 40
0.0736427969059672
  1
0.211
 41
0.9
  7
ROMANS
 72
     4
 11
761.9321826364507
 21
6.933798489861544
 31
-0.0014200666144597
100
AcDbText
  0
TEXT
  5
129
330
2
100
AcDbEntity
  8
4
 62
     7
100
AcDbText
 10
761.8297856826919
 20
7.060994109699007
 30
-0.0014200666144597
 40
0.0883713562871606
  1
MAX.
 41
0.9
  7
ROMANS
 72
     4
 11
761.9585553732818
 21
7.105179787842587
 31
-0.0014200666144597
100
AcDbText
  0
LINE
  5
12A
330
2
100
AcDbEntity
  8
4
 62
     3
100
AcDbLine
 10
756.1399758128609
 20
0.8572627604804097
 30
-0.0014200666144597
 11
762.3198944781768
 21
0.8572627604804097
 31
-0.0014200666144597
  0
TEXT
  5
12B
330
2
100
AcDbEntity
  8
4
 62
     3
100
AcDbText
 10
756.4869087115436
 20
3.332874467279881
 30
-0.0014200666144597
 40
0.0736427969059672
  1
TAPE POSITION TOL.
 41
0.9
  7
ROMANS
 72
     4
 11
756.9887317704599
 21
3.369695865732865
 31
-0.0014200666144597
100
AcDbText
  0
TEXT
  5
12C
330
2
100
AcDbEntity
  8
4
 62
     3
100
AcDbText
 10
756.213022682697
 20
3.172614044470523
 30
-0.0014200666144597
 40
0.0736427969059672
  1
20
 41
0.9
  7
ROMANS
 72
     4
 11
756.2666767204428
 21
3.209435442923506
 31
-0.0014200666144597
100
AcDbText
  0
LWPOLYLINE
  5
12D
330
2
100
AcDbEntity
  8
4
 62
     7
100
AcDbPolyline
 90
        2
 70
     0
 43
0.0073642796905967
 38
-0.0014200666144597
 10
761.5403054756259
 20
1.18128989516623
 10
761.5403054756259
 20
2.963445287365516
  0
LWPOLYLINE
  5
12E
330
2
100
AcDbEntity
  8
4
 62
     7
100
AcDbPolyline
 90
        2
 70
     0
 43
0.0073642796905967
 38
-0.0014200666144597
 10
762.3198944781768
 20
0.5332344540941563
 10
762.3198944781768
 20
7.205893859841978
  0
LINE
  5
12F
330
2
100
AcDbEntity
  8
4
 62
     3
100
AcDbLine
 10
756.39427852276
 20
0.5332344540941563
 30
-0.0014200666144597
 11
756.39427852276
 21
7.205893859841978
 31
-0.0014200666144597
  0
LWPOLYLINE
  5
130
330
2
100
AcDbEntity
  8
4
 62
     7
100
AcDbPolyline
 90
        2
 70
     0
 43
0.0073642796905967
 38
-0.0014200666144597
 10
756.1399758128609
 20
0.5332344540941563
 10
756.1399758128609
 20
7.205893859841978
  0
TEXT
  5
131
330
2
100
AcDbEntity
  8
4
 62
     3
100
AcDbText
 10
761.8188786213883
 20
2.52259729859489
 30
-0.0014200666144597
 40
0.0736427969059672
  1
0.025
 41
0.9
  7
ROMANS
 72
     4
 11
761.951435655819
 21
2.559418697047874
 31
-0.0014200666144597
100
AcDbText
  0
TEXT
  5
132
330
2
100
AcDbEntity
  8
4
 62
     3
100
AcDbText
 10
756.2178528451539
 20
4.143914113328523
 30
-0.0014200666144597
 40
0.0736427969059672
  1
18
 41
0.9
  7
ROMANS
 72
     4
 11
756.2651946431649
 21
4.180735511781506
 31
-0.0014200666144597
100
AcDbText
  0
TEXT
  5
133
330
2
100
AcDbEntity
  8
4
 62
     3
100
AcDbText
 10
756.4834500563975
 20
4.145289200972584
 30
-0.0014200666144597
 40
0.0736427936491518
  1
PLATING AREA (PKG CENTER REF.) : XR
 41
0.9
  7
ROMANS
 72
     4
 11
757.5170792672588
 21
4.176850398250792
 31
-0.0014200666144597
100
AcDbText
  0
TEXT
  5
134
330
2
100
AcDbEntity
  8
4
 62
     3
100
AcDbText
 10
758.3277129487228
 20
3.972650935111106
 30
-0.0014200666144597
 40
0.0736427936491518
  1
: XL
 41
0.9
  7
ROMANS
 72
     4
 11
758.431864899741
 21
4.009472331935683
 31
-0.0014200666144597
100
AcDbText
  0
TEXT
  5
135
330
2
100
AcDbEntity
  8
4
 62
     3
100
AcDbText
 10
758.3245568289959
 20
3.819830262941069
 30
-0.0014200666144597
 40
0.0736427936491518
  1
: YH
 41
0.9
  7
ROMANS
 72
     4
 11
758.4318648997419
 21
3.856651659765645
 31
-0.0014200666144597
100
AcDbText
  0
TEXT
  5
136
330
2
100
AcDbEntity
  8
4
 62
     3
100
AcDbText
 10
758.3277129487228
 20
3.652455095828815
 30
-0.0014200666144597
 40
0.0736427936491518
  1
: YL
 41
0.9
  7
ROMANS
 72
     4
 11
758.431864899741
 21
3.689276492653391
 31
-0.0014200666144597
100
AcDbText
  0
TEXT
  5
137
330
2
100
AcDbEntity
  8
4
 62
     3
100
AcDbText
 10
761.1227021507341
 20
3.982531141569676
 30
-0.0014200666144597
 40
0.0736427969739133
  1
-
 41
0.9
  7
ROMANS
 72
     4
 11
761.1511072295668
 21
4.014092340272782
 31
-0.0014200666144597
100
AcDbText
  0
TEXT
  5
138
330
2
100
AcDbEntity
  8
4
 62
     3
100
AcDbText
 10
761.1227021507341
 20
3.820517867002433
 30
-0.0014200666144597
 40
0.0736427969739133
  1
-
 41
0.9
  7
ROMANS
 72
     4
 11
761.1511072295668
 21
3.852079065705538
 31
-0.0014200666144597
100
AcDbText
  0
TEXT
  5
139
330
2
100
AcDbEntity
  8
4
 62
     3
100
AcDbText
 10
761.1227021507341
 20
3.658506057060503
 30
-0.0014200666144597
 40
0.0736427969739133
  1
-
 41
0.9
  7
ROMANS
 72
     4
 11
761.1511072295668
 21
3.690067255763608
 31
-0.0014200666144597
100
AcDbText
  0
TEXT
  5
13A
330
2
100
AcDbEntity
  8
4
 62
     3
100
AcDbText
 10
761.1227021507341
 20
4.144547345388001
 30
-0.0014200666144597
 40
0.0736427969739133
  1
-
 41
0.9
  7
ROMANS
 72
     4
 11
761.1511072295668
 21
4.176108544091107
 31
-0.0014200666144597
100
AcDbText
  0
LINE
  5
13B
330
2
100
AcDbEntity
  8
4
 62
     3
100
AcDbLine
 10
756.1399758128609
 20
3.773515174555768
 30
-0.0014200666144597
 11
762.3198944781768
 21
3.773515174555768
 31
-0.0014200666144597
  0
LINE
  5
13C
330
2
100
AcDbEntity
  8
4
 62
     3
100
AcDbLine
 10
756.1399758128609
 20
3.935529034823787
 30
-0.0014200666144597
 11
762.3198944781768
 21
3.935529034823787
 31
-0.0014200666144597
  0
LINE
  5
13D
330
2
100
AcDbEntity
  8
4
 62
     3
100
AcDbLine
 10
756.1399758128609
 20
4.097542895091805
 30
-0.0014200666144597
 11
762.3198944781768
 21
4.097542895091805
 31
-0.0014200666144597
  0
TEXT
  5
13E
330
2
100
AcDbEntity
  8
4
 62
     3
100
AcDbText
 10
760.2452734322034
 20
4.13928714560415
 30
-0.0014200666144597
 40
0.0736427969739133
  1
1.800
 41
0.9
  7
ROMANS
 72
     4
 11
760.3715182270159
 21
4.176108544091107
 31
-0.0014200666144597
100
AcDbText
  0
TEXT
  5
13F
330
2
100
AcDbEntity
  8
4
 62
     3
100
AcDbText
 10
761.7981391975648
 20
4.13928714560415
 30
-0.0014200666144597
 40
0.0736427969739133
  1
2.000
 41
0.9
  7
ROMANS
 72
     4
 11
761.9306962321179
 21
4.176108544091107
 31
-0.0014200666144597
100
AcDbText
  0
LINE
  5
140
330
2
100
AcDbEntity
  8
4
 62
     3
100
AcDbLine
 10
756.1399758128609
 20
3.449487454019845
 30
-0.0014200666144597
 11
762.3198944781768
 21
3.449487454019845
 31
-0.0014200666144597
  0
TEXT
  5
141
330
2
100
AcDbEntity
  8
4
 62
     3
100
AcDbText
 10
756.4819729751061
 20
3.497069024188242
 30
-0.0014200666144597
 40
0.0736427969704131
  1
PLATING TO SILVER, AREA REFER TO SHT     OF
 41
0.9
  7
ROMANS
 72
     4
 11
757.7602015225211
 21
3.52687682296198
 31
-0.0014200666144597
100
AcDbText
  0
TEXT
  5
142
330
2
100
AcDbEntity
  8
4
 62
     3
100
AcDbText
 10
758.7575221404676
 20
3.490055424476774
 30
-0.0014200666144597
 40
0.0736427969704131
  1
3      4. THICKNESS: 100~400 MICROINCHES
 41
0.9
  7
ROMANS
 72
     4
 11
759.9426451517128
 21
3.52687682296198
 31
-0.0014200666144597
100
AcDbText
  0
LINE
  5
143
330
2
100
AcDbEntity
  8
4
 62
     3
100
AcDbLine
 10
756.1399758128609
 20
3.125459440558643
 30
-0.0014200666144597
 11
762.3198944781768
 21
3.125459440558643
 31
-0.0014200666144597
  0
LINE
  5
144
330
2
100
AcDbEntity
  8
4
 62
     3
100
AcDbLine
 10
756.1399758128609
 20
3.287473593751826
 30
-0.0014200666144597
 11
762.3198944781768
 21
3.287473593751826
 31
-0.0014200666144597
  0
TEXT
  5
145
330
2
100
AcDbEntity
  8
4
 62
     3
100
AcDbText
 10
756.4929729844057
 20
3.170860314086811
 30
-0.0014200666144597
 40
0.0736427969059672
  1
TAPE MATERIAL
 41
0.9
  7
ROMANS
 72
     4
 11
756.8795976681619
 21
3.207681712539795
 31
-0.0014200666144597
100
AcDbText
  0
TEXT
  5
146
330
2
100
AcDbEntity
  8
4
 62
     3
100
AcDbText
 10
756.4993941096101
 20
3.008845867968633
 30
-0.0014200666144597
 40
0.0736427969059672
  1
TAPE THICKNESS
 41
0.9
  7
ROMANS
 72
     4
 11
756.9160019321068
 21
3.045667266421617
 31
-0.0014200666144597
100
AcDbText
  0
TEXT
  5
147
330
2
100
AcDbEntity
  8
4
 62
     3
100
AcDbText
 10
756.2131186653529
 20
0.5812875272847317
 30
-0.0014200666144597
 40
0.0736427969059672
  1
36
 41
0.9
  7
ROMANS
 72
     4
 11
756.2651946431649
 21
0.6181089257377153
 31
-0.0014200666144597
100
AcDbText
  0
TEXT
  5
148
330
2
100
AcDbEntity
  8
4
 62
     3
100
AcDbText
 10
756.2115406054191
 20
0.7397065283032897
 30
-0.0014200666144597
 40
0.0736427969059672
  1
35
 41
0.9
  7
ROMANS
 72
     4
 11
756.2651946431649
 21
0.7765279267562733
 31
-0.0014200666144597
100
AcDbText
  0
TEXT
  5
149
330
2
100
AcDbEntity
  8
4
 62
     3
100
AcDbText
 10
760.2452734322034
 20
3.977273285336075
 30
-0.0014200666144597
 40
0.0736427969739133
  1
1.800
 41
0.9
  7
ROMANS
 72
     4
 11
760.3715182270159
 21
4.014094683823032
 31
-0.0014200666144597
100
AcDbText
  0
TEXT
  5
14A
330
2
100
AcDbEntity
  8
4
 62
     3
100
AcDbText
 10
761.7981391975648
 20
3.977273285336075
 30
-0.0014200666144597
 40
0.0736427969739133
  1
2.000
 41
0.9
  7
ROMANS
 72
     4
 11
761.9306962321179
 21
4.014094683823032
 31
-0.0014200666144597
100
AcDbText
  0
TEXT
  5
14B
330
2
100
AcDbEntity
  8
4
 62
     3
100
AcDbText
 10
760.2452734322034
 20
3.815259425068056
 30
-0.0014200666144597
 40
0.0736427969739133
  1
1.800
 41
0.9
  7
ROMANS
 72
     4
 11
760.3715182270159
 21
3.852080823555013
 31
-0.0014200666144597
100
AcDbText
  0
TEXT
  5
14C
330
2
100
AcDbEntity
  8
4
 62
     3
100
AcDbText
 10
761.7981391975648
 20
3.815259425068056
 30
-0.0014200666144597
 40
0.0736427969739133
  1
2.000
 41
0.9
  7
ROMANS
 72
     4
 11
761.9306962321179
 21
3.852080823555013
 31
-0.0014200666144597
100
AcDbText
  0
TEXT
  5
14D
330
2
100
AcDbEntity
  8
4
 62
     3
100
AcDbText
 10
760.2452734322034
 20
3.653245564800038
 30
-0.0014200666144597
 40
0.0736427969739133
  1
1.800
 41
0.9
  7
ROMANS
 72
     4
 11
760.3715182270159
 21
3.690066963286994
 31
-0.0014200666144597
100
AcDbText
  0
TEXT
  5
14E
330
2
100
AcDbEntity
  8
4
 62
     3
100
AcDbText
 10
761.7981391975648
 20
3.653245564800038
 30
-0.0014200666144597
 40
0.0736427969739133
  1
2.000
 41
0.9
  7
ROMANS
 72
     4
 11
761.9306962321179
 21
3.690066963286994
 31
-0.0014200666144597
100
AcDbText
  0
TEXT
  5
14F
330
2
100
AcDbEntity
  8
4
 62
     3
100
AcDbText
 10
761.0263488392039
 20
6.572948785022194
 30
-0.0014200666144597
 40
0.0736427969059672
  1
0.180
 41
0.9
  7
ROMANS
 72
     4
 11
761.1525936338998
 21
6.609770183475177
 31
-0.0014200666144597
100
AcDbText
  0
TEXT
  5
150
330
2
100
AcDbEntity
  8
4
 62
     3
100
AcDbText
 10
760.2467598366518
 20
6.572948785022194
 30
-0.0014200666144597
 40
0.0736427969059672
  1
0.155
 41
0.9
  7
ROMANS
 72
     4
 11
760.3730046313478
 21
6.609770183475177
 31
-0.0014200666144597
100
AcDbText
  0
TEXT
  5
151
330
2
100
AcDbEntity
  8
4
 62
     3
100
AcDbText
 10
761.79962560202
 20
6.572948785022194
 30
-0.0014200666144597
 40
0.0736427969059672
  1
0.205
 41
0.9
  7
ROMANS
 72
     4
 11
761.9321826364507
 21
6.609770183475177
 31
-0.0014200666144597
100
AcDbText
  0
TEXT
  5
152
330
2
100
AcDbEntity
  8
4
 62
     3
100
AcDbText
 10
761.0200365994691
 20
5.600863865863547
 30
-0.0014200666144597
 40
0.0736427969059672
  1
2.850
 41
0.9
  7
ROMANS
 72
     4
 11
761.1525936338998
 21
5.63768526431653
 31
-0.0014200666144597
100
AcDbText
  0
TEXT
  5
153
330
2
100
AcDbEntity
  8
4
 62
     3
100
AcDbText
 10
761.0200365994691
 20
5.438849712670363
 30
-0.0014200666144597
 40
0.0736427969059672
  1
2.650
 41
0.9
  7
ROMANS
 72
     4
 11
761.1525936338998
 21
5.475671111123347
 31
-0.0014200666144597
100
AcDbText
  0
TEXT
  5
154
330
2
100
AcDbEntity
  8
4
 62
     3
100
AcDbText
 10
760.240447596917
 20
5.600863865863547
 30
-0.0014200666144597
 40
0.0736427969059672
  1
2.800
 41
0.9
  7
ROMANS
 72
     4
 11
760.3730046313478
 21
5.63768526431653
 31
-0.0014200666144597
100
AcDbText
  0
TEXT
  5
155
330
2
100
AcDbEntity
  8
4
 62
     3
100
AcDbText
 10
760.240447596917
 20
5.438849712670363
 30
-0.0014200666144597
 40
0.0736427969059672
  1
2.600
 41
0.9
  7
ROMANS
 72
     4
 11
760.3730046313478
 21
5.475671111123347
 31
-0.0014200666144597
100
AcDbText
  0
TEXT
  5
156
330
2
100
AcDbEntity
  8
4
 62
     3
100
AcDbText
 10
761.79962560202
 20
5.600863865863547
 30
-0.0014200666144597
 40
0.0736427969059672
  1
2.900
 41
0.9
  7
ROMANS
 72
     4
 11
761.9321826364507
 21
5.63768526431653
 31
-0.0014200666144597
100
AcDbText
  0
TEXT
  5
157
330
2
100
AcDbEntity
  8
4
 62
     3
100
AcDbText
 10
761.79962560202
 20
5.438849712670363
 30
-0.0014200666144597
 40
0.0736427969059672
  1
2.700
 41
0.9
  7
ROMANS
 72
     4
 11
761.9321826364507
 21
5.475671111123347
 31
-0.0014200666144597
100
AcDbText
  0
TEXT
  5
158
330
2
100
AcDbEntity
  8
4
 62
     3
100
AcDbText
 10
761.1227021463712
 20
3.010448566067308
 30
-0.0014200666144597
 40
0.0736427969059672
  1
-
 41
0.9
  7
ROMANS
 72
     4
 11
761.1511072251778
 21
3.042009764741294
 31
-0.0014200666144597
100
AcDbText
  0
TEXT
  5
159
330
2
100
AcDbEntity
  8
4
 62
     3
100
AcDbText
 10
761.1227021463712
 20
3.172462719260378
 30
-0.0014200666144597
 40
0.0736427969059672
  1
-
 41
0.9
  7
ROMANS
 72
     4
 11
761.1511072251778
 21
3.204023917934364
 31
-0.0014200666144597
100
AcDbText
  0
TEXT
  5
15A
330
2
100
AcDbEntity
  8
4
 62
     3
100
AcDbText
 10
761.1227021463712
 20
3.334476872453561
 30
-0.0014200666144597
 40
0.0736427969059672
  1
-
 41
0.9
  7
ROMANS
 72
     4
 11
761.1511072251778
 21
3.366038071127547
 31
-0.0014200666144597
100
AcDbText
  0
TEXT
  5
15B
330
2
100
AcDbEntity
  8
4
 62
     3
100
AcDbText
 10
760.3675389129582
 20
3.334476872453561
 30
-0.0014200666144597
 40
0.0736427969059672
  1
-
 41
0.9
  7
ROMANS
 72
     4
 11
760.3959439917648
 21
3.366038071127547
 31
-0.0014200666144597
100
AcDbText
  0
TEXT
  5
15C
330
2
100
AcDbEntity
  8
4
 62
     3
100
AcDbText
 10
761.9166993118892
 20
3.334476872453561
 30
-0.0014200666144597
 40
0.0736427969059672
  1
-
 41
0.9
  7
ROMANS
 72
     4
 11
761.9451043906958
 21
3.366038071127547
 31
-0.0014200666144597
100
AcDbText
  0
LWPOLYLINE
  5
15D
330
2
100
AcDbEntity
  8
中心线
100
AcDbPolyline
 90
        3
 70
     1
 43
0.0
 10
762.5383392435629
 20
3.110885713952029
 10
762.478043243068
 20
3.215321450302155
 10
762.4177472425729
 20
3.110885713952029
  0
MTEXT
  5
162
330
2
100
AcDbEntity
  8
中心线
100
AcDbMText
 10
762.460372631531
 20
3.184634797237265
 30
0.0
 40
0.06375
 41
0.4126305377376413
 46
0.0
 71
     1
 72
     5
  1
3
  7
宋体
 73
     1
 44
1.0
101
Embedded Object
 70
     1
 10
1.0
 20
0.0
 30
0.0
 11
762.460372631531
 21
3.184634797237265
 31
0.0
 40
0.4126305377376413
 41
0.0
 42
0.0345460893854749
 43
0.06375
 71
     2
 72
     1
 44
0.4126305377376413
 45
12.5
 73
     0
 74
     0
 46
0.0
  0
ENDSEC
  0
SECTION
  2
OBJECTS
  0
DICTIONARY
  5
C
330
0
100
AcDbDictionary
281
     1
  3
ACAD_COLOR
350
3A
  3
ACAD_GROUP
350
35
  3
ACAD_LAYOUT
350
12
  3
ACAD_MATERIAL
350
E
  3
ACAD_MLEADERSTYLE
350
3D
  3
ACAD_MLINESTYLE
350
36
  3
ACAD_PLOTSETTINGS
350
37
  3
ACAD_PLOTSTYLENAME
350
B
  3
ACAD_SCALELIST
350
3B
  3
ACAD_TABLESTYLE
350
3C
  3
ACAD_VISUALSTYLE
350
16
  3
ACDB_RECOMPOSE_DATA
350
168
  3
AcDbVariableDictionary
350
3E
  0
DICTIONARY
  5
30
330
2D
100
AcDbDictionary
280
     1
281
     1
  0
DICTIONARY
  5
21
330
20
100
AcDbDictionary
280
     1
281
     1
  3
ACAD_LAYERFILTERS
360
22
  3
ACAD_LAYERSTATES
360
23
  3
ACLYDICTIONARY
360
24
  0
DICTIONARY
  5
8
330
7
100
AcDbDictionary
280
     1
281
     1
  3
ADSK_XREC_LAYER_RECONCILED
360
9
  0
DICTIONARY
  5
4D
330
4C
100
AcDbDictionary
280
     1
281
     1
  3
ADSK_XREC_LAYER_RECONCILED
360
4E
  0
DICTIONARY
  5
68
330
67
100
AcDbDictionary
280
     1
281
     1
  3
ADSK_XREC_LAYER_RECONCILED
360
69
  0
DICTIONARY
  5
15F
330
15E
100
AcDbDictionary
280
     1
281
     1
  3
ADSK_XREC_LAYER_RECONCILED
360
160
  0
DICTIONARY
  5
3
330
2
100
AcDbDictionary
280
     1
281
     1
  3
ACAD_LAYOUTSELFREF
360
4
  3
ACAD_SORTENTS
360
164
  0
DICTIONARY
  5
19
330
18
100
AcDbDictionary
280
     1
281
     1
  3
ACAD_LAYOUTSELFREF
360
1A
  0
DICTIONARY
  5
3A
102
{ACAD_REACTORS
330
C
102
}
330
C
100
AcDbDictionary
281
     1
  0
DICTIONARY
  5
35
102
{ACAD_REACTORS
330
C
102
}
330
C
100
AcDbDictionary
281
     1
  0
DICTIONARY
  5
12
102
{ACAD_REACTORS
330
C
102
}
330
C
100
AcDbDictionary
281
     1
  3
Model
350
11
  3
配置1
350
1D
1001
AcadStringInfo
1000
MIFCodePage
1070
     5
  0
DICTIONARY
  5
E
102
{ACAD_REACTORS
330
C
102
}
330
C
100
AcDbDictionary
281
     1
  3
ByBlock
350
39
  3
ByLayer
350
38
  3
Global
350
D
  0
DICTIONARY
  5
3D
102
{ACAD_REACTORS
330
C
102
}
330
C
100
AcDbDictionary
281
     1
  0
DICTIONARY
  5
36
102
{ACAD_REACTORS
330
C
102
}
330
C
100
AcDbDictionary
281
     1
  3
Standard
350
50
  0
DICTIONARY
  5
37
102
{ACAD_REACTORS
330
C
102
}
330
C
100
AcDbDictionary
281
     1
  0
ACDBDICTIONARYWDFLT
  5
B
102
{ACAD_REACTORS
330
C
102
}
330
C
100
AcDbDictionary
281
     1
  3
Normal
350
A
100
AcDbDictionaryWithDefault
340
A
  0
DICTIONARY
  5
3B
102
{ACAD_REACTORS
330
C
102
}
330
C
100
AcDbDictionary
281
     1
  3
A0
350
55
  3
A1
350
56
  3
A2
350
57
  3
A3
350
58
  3
A4
350
59
  3
A5
350
5A
  3
A6
350
5B
  3
A7
350
5C
  3
A8
350
5D
  3
A9
350
5E
  3
B0
350
5F
  3
B1
350
60
  3
B2
350
61
  3
B3
350
62
  3
B4
350
63
  3
B5
350
64
  3
B6
350
65
  0
DICTIONARY
  5
3C
102
{ACAD_REACTORS
330
C
102
}
330
C
100
AcDbDictionary
281
     1
  3
Standard
350
51
  0
DICTIONARY
  5
16
102
{ACAD_REACTORS
330
C
102
}
330
C
100
AcDbDictionary
281
     1
  3
2dWireframe
350
15
  3
Realistic
350
53
  3
Wireframe
350
54
  0
XRECORD
  5
168
102
{ACAD_REACTORS
330
C
102
}
330
C
100
AcDbXrecord
280
     1
 90
        1
330
51
  0
DICTIONARY
  5
3E
102
{ACAD_REACTORS
330
C
102
}
330
C
100
AcDbDictionary
281
     1
  3
CANNOSCALE
350
3F
  3
CMLEADERSTYLE
350
40
  3
CTABLESTYLE
350
41
  3
CVIEWDETAILSTYLE
350
42
  3
CVIEWSECTIONSTYLE
350
43
  3
DIMASSOC
350
44
  3
INDEXCTL
350
45
  3
LAYEREVAL
350
46
  3
LAYERNOTIFY
350
47
  3
LIGHTINGUNITS
350
48
  3
MSLTSCALE
350
49
  3
PROJECTNAME
350
4A
  3
SORTENTS
350
4B
  0
DICTIONARY
  5
22
102
{ACAD_REACTORS
330
21
102
}
330
21
100
AcDbDictionary
281
     1
  0
DICTIONARY
  5
23
102
{ACAD_REACTORS
330
21
102
}
330
21
100
AcDbDictionary
281
     1
  0
DICTIONARY
  5
24
102
{ACAD_REACTORS
330
21
102
}
330
21
100
AcDbDictionary
281
     1
1001
ACAD
1000
<All
  0
XRECORD
  5
9
102
{ACAD_REACTORS
330
8
102
}
330
8
100
AcDbXrecord
280
     1
290
     1
  0
XRECORD
  5
4E
102
{ACAD_REACTORS
330
4D
102
}
330
4D
100
AcDbXrecord
280
     1
290
     1
  0
XRECORD
  5
69
102
{ACAD_REACTORS
330
68
102
}
330
68
100
AcDbXrecord
280
     1
290
     1
  0
XRECORD
  5
160
102
{ACAD_REACTORS
330
15F
102
}
330
15F
100
AcDbXrecord
280
     1
290
     1
  0
XRECORD
  5
4
102
{ACAD_REACTORS
330
3
102
}
330
3
100
AcDbXrecord
280
     1
340
2
  0
SORTENTSTABLE
  5
164
102
{ACAD_REACTORS
330
3
102
}
330
3
100
AcDbSortentsTable
330
2
  0
XRECORD
  5
1A
102
{ACAD_REACTORS
330
19
102
}
330
19
100
AcDbXrecord
280
     1
340
18
  0
LAYOUT
  5
11
102
{ACAD_REACTORS
330
12
102
}
330
12
100
AcDbPlotSettings
  1

  2
RICOH Aficio MP 7500 RPCS
  4
A4
  6
OLE1
 40
5.027083
 41
5.027084999999998
 42
5.027083999999999
 43
5.027069
 44
209.973328
 45
296.925995
 46
0.0
 47
4.629999999999999
 48
1468.662077738694
 49
-284.5455396594186
140
1490.138234349193
141
-254.7230270437843
142
1.0
143
0.1074242033783758
 70
 11956
 72
     1
 73
     0
 74
     4
  7
monochrome.ctb
 75
     0
147
9.308889138118539
 76
     1
 77
     2
 78
   300
148
-1468.662077738694
149
284.5455396594186
100
AcDbLayout
  1
Model
 70
     1
 71
     0
 10
0.0
 20
0.0
 11
12.0
 21
9.0
 12
0.0
 22
0.0
 32
0.0
 14
0.0
 24
0.0
 34
0.0
 15
0.0
 25
0.0
 35
0.0
146
0.0
 13
0.0
 23
0.0
 33
0.0
 16
1.0
 26
0.0
 36
0.0
 17
0.0
 27
1.0
 37
0.0
 76
     0
330
2
331
2E
  0
LAYOUT
  5
1D
102
{ACAD_XDICTIONARY
360
1E
102
}
102
{ACAD_REACTORS
330
12
102
}
330
12
100
AcDbPlotSettings
  1

  2
none_device
  4
Letter_(8.50_x_11.00_Inches)
  6

 40
6.349999904632567
 41
6.349999904632567
 42
6.350006103515625
 43
6.350006103515625
 44
215.8999938964844
 45
279.3999938964844
 46
0.0
 47
0.0
 48
0.0
 49
0.0
140
0.0
141
0.0
142
1.0
143
1.0
 70
   688
 72
     0
 73
     1
 74
     5
  7
monochrome.ctb
 75
    16
147
1.0
 76
     0
 77
     2
 78
   300
148
0.0
149
0.0
100
AcDbLayout
  1
配置1
 70
     1
 71
     1
 10
-0.2500002402958907
 20
-0.2499999962453767
 11
10.74999951940821
 21
8.249999763458731
 12
0.0
 22
0.0
 32
0.0
 14
1.049999952316283
 24
0.7999999523162842
 34
0.0
 15
9.449999570846555
 25
7.199999570846556
 35
0.0
146
0.0
 13
0.0
 23
0.0
 33
0.0
 16
1.0
 26
0.0
 36
0.0
 17
0.0
 27
1.0
 37
0.0
 76
     0
330
18
1001
ACAD_PSEXT
1000
None
1000
None
1000
Not applicable
1000
The layout will not be plotted unless a new plotter configuration name is selected.
1070
     0
1001
AcadStringInfo
1000
MIFCodePage
1070
     5
  0
MATERIAL
  5
39
102
{ACAD_REACTORS
330
E
102
}
330
E
100
AcDbMaterial
  1
ByBlock
 73
     1
 78
     1
172
     1
176
     1
270
     1
274
     1
 94
       63
  0
MATERIAL
  5
38
102
{ACAD_REACTORS
330
E
102
}
330
E
100
AcDbMaterial
  1
ByLayer
 73
     1
 78
     1
172
     1
176
     1
270
     1
274
     1
 94
       63
  0
MATERIAL
  5
D
102
{ACAD_REACTORS
330
E
102
}
330
E
100
AcDbMaterial
  1
Global
 73
     1
 78
     1
172
     1
176
     1
270
     1
274
     1
 94
       63
  0
MLINESTYLE
  5
50
102
{ACAD_REACTORS
330
36
102
}
330
36
100
AcDbMlineStyle
  2
STANDARD
 70
     0
  3

 62
   256
 51
90.0
 52
90.0
 71
     2
 49
0.5
 62
   256
  6
BYLAYER
 49
-0.5
 62
   256
  6
BYLAYER
  0
ACDBPLACEHOLDER
  5
A
102
{ACAD_REACTORS
330
B
102
}
330
B
  0
SCALE
  5
55
102
{ACAD_REACTORS
330
3B
102
}
330
3B
100
AcDbScale
 70
     0
300
1:1
140
1.0
141
1.0
290
     1
  0
SCALE
  5
56
102
{ACAD_REACTORS
330
3B
102
}
330
3B
100
AcDbScale
 70
     0
300
1/128" = 1'-0"
140
0.0078125
141
12.0
290
     0
  0
SCALE
  5
57
102
{ACAD_REACTORS
330
3B
102
}
330
3B
100
AcDbScale
 70
     0
300
1/64" = 1'-0"
140
0.015625
141
12.0
290
     0
  0
SCALE
  5
58
102
{ACAD_REACTORS
330
3B
102
}
330
3B
100
AcDbScale
 70
     0
300
1/32" = 1'-0"
140
0.03125
141
12.0
290
     0
  0
SCALE
  5
59
102
{ACAD_REACTORS
330
3B
102
}
330
3B
100
AcDbScale
 70
     0
300
1/16" = 1'-0"
140
0.0625
141
12.0
290
     0
  0
SCALE
  5
5A
102
{ACAD_REACTORS
330
3B
102
}
330
3B
100
AcDbScale
 70
     0
300
3/32" = 1'-0"
140
0.09375
141
12.0
290
     0
  0
SCALE
  5
5B
102
{ACAD_REACTORS
330
3B
102
}
330
3B
100
AcDbScale
 70
     0
300
1/8" = 1'-0"
140
0.125
141
12.0
290
     0
  0
SCALE
  5
5C
102
{ACAD_REACTORS
330
3B
102
}
330
3B
100
AcDbScale
 70
     0
300
3/16" = 1'-0"
140
0.1875
141
12.0
290
     0
  0
SCALE
  5
5D
102
{ACAD_REACTORS
330
3B
102
}
330
3B
100
AcDbScale
 70
     0
300
1/4" = 1'-0"
140
0.25
141
12.0
290
     0
  0
SCALE
  5
5E
102
{ACAD_REACTORS
330
3B
102
}
330
3B
100
AcDbScale
 70
     0
300
3/8" = 1'-0"
140
0.375
141
12.0
290
     0
  0
SCALE
  5
5F
102
{ACAD_REACTORS
330
3B
102
}
330
3B
100
AcDbScale
 70
     0
300
1/2" = 1'-0"
140
0.5
141
12.0
290
     0
  0
SCALE
  5
60
102
{ACAD_REACTORS
330
3B
102
}
330
3B
100
AcDbScale
 70
     0
300
3/4" = 1'-0"
140
0.75
141
12.0
290
     0
  0
SCALE
  5
61
102
{ACAD_REACTORS
330
3B
102
}
330
3B
100
AcDbScale
 70
     0
300
1" = 1'-0"
140
1.0
141
12.0
290
     0
  0
SCALE
  5
62
102
{ACAD_REACTORS
330
3B
102
}
330
3B
100
AcDbScale
 70
     0
300
1-1/2" = 1'-0"
140
1.5
141
12.0
290
     0
  0
SCALE
  5
63
102
{ACAD_REACTORS
330
3B
102
}
330
3B
100
AcDbScale
 70
     0
300
3" = 1'-0"
140
3.0
141
12.0
290
     0
  0
SCALE
  5
64
102
{ACAD_REACTORS
330
3B
102
}
330
3B
100
AcDbScale
 70
     0
300
6" = 1'-0"
140
6.0
141
12.0
290
     0
  0
SCALE
  5
65
102
{ACAD_REACTORS
330
3B
102
}
330
3B
100
AcDbScale
 70
     0
300
1'-0" = 1'-0"
140
12.0
141
12.0
290
     0
  0
TABLESTYLE
  5
51
102
{ACAD_XDICTIONARY
360
52
102
}
102
{ACAD_REACTORS
330
3C
102
}
330
3C
100
AcDbTableStyle
280
     0
  3
Standard
 70
     0
 71
     0
 40
0.06
 41
0.06
280
     0
281
     0
  7
STANDARD
140
0.18
170
     2
 62
     0
 63
     7
283
     0
 90
      512
 91
        0
  1

274
    -2
284
     1
 64
     0
275
    -2
285
     1
 65
     0
276
    -2
286
     1
 66
     0
277
    -2
287
     1
 67
     0
278
    -2
288
     1
 68
     0
279
    -2
289
     1
 69
     0
  7
STANDARD
140
0.25
170
     5
 62
     0
 63
     7
283
     0
 90
      512
 91
        0
  1

274
    -2
284
     1
 64
     0
275
    -2
285
     1
 65
     0
276
    -2
286
     1
 66
     0
277
    -2
287
     1
 67
     0
278
    -2
288
     1
 68
     0
279
    -2
289
     1
 69
     0
  7
STANDARD
140
0.18
170
     5
 62
     0
 63
     7
283
     0
 90
      512
 91
        0
  1

274
    -2
284
     1
 64
     0
275
    -2
285
     1
 65
     0
276
    -2
286
     1
 66
     0
277
    -2
287
     1
 67
     0
278
    -2
288
     1
 68
     0
279
    -2
289
     1
 69
     0
1001
ACAD
1000
AcRTDxfName
1000
TABLESTYLE
1000
AcRTDxfName
1000
TABLESTYLE
1000
AcRTDxfName
1000
TABLESTYLE
1000
AcRTDxfName
1000
TABLESTYLE
1000
AcRTDxfName
1000
TABLESTYLE
1000
AcRTDxfName
1000
TABLESTYLE
1000
AcRTDxfName
1000
TABLESTYLE
1000
AcRTDxfName
1000
TABLESTYLE
1000
AcRTDxfName
1000
TABLESTYLE
1000
AcRTDxfName
1000
TABLESTYLE
1000
AcRTDxfName
1000
TABLESTYLE
1000
AcRTDxfName
1000
TABLESTYLE
1000
AcRTDxfName
1000
TABLESTYLE
  0
VISUALSTYLE
  5
15
102
{ACAD_REACTORS
330
16
102
}
330
16
100
AcDbVisualStyle
  2
2dWireframe
 70
     4
177
     3
291
     0
 70
    58
 90
        0
176
     1
 90
        2
176
     1
 90
        0
176
     1
 90
        0
176
     1
 40
0.6
176
     1
 40
30.0
176
     1
 62
     7
176
     1
 90
        1
176
     1
 90
        4
176
     1
 62
     7
176
     1
 62
   257
176
     1
 90
        1
176
     1
 90
        1
176
     1
 40
1.0
176
     1
 90
        0
176
     1
 62
   257
176
     1
 40
1.0
176
     1
 90
        1
176
     1
 90
        6
176
     1
 90
        2
176
     1
 62
     7
176
     1
 90
        5
176
     1
 90
        0
176
     1
 90
        0
176
     1
290
     0
176
     1
 90
        1
176
     1
 40
0.0
176
     1
 90
        0
176
     1
290
     1
176
     1
290
     1
176
     1
290
     0
176
     1
290
     0
176
     1
290
     0
176
     1
290
     0
176
     1
290
     0
176
     1
290
     0
176
     1
290
     0
176
     1
 90
       50
176
     1
 40
0.0
176
     1
 40
1.0
176
     1
 90
        0
176
     1
 62
    18
176
     1
 90
       50
176
     1
 90
        3
176
     1
 62
     5
420
      255
176
     1
290
     0
176
     1
 90
       50
176
     1
 90
       50
176
     1
 90
       50
176
     1
290
     0
176
     1
 90
       50
176
     1
 62
   256
176
     0
 40
1.0
176
     0
 90
        2
176
     1
  1
strokes_ogs.tif
176
     1
290
     0
176
     1
 40
1.0
176
     1
 40
1.0
176
     1
1001
ACAD
1000
AcRTDxfName
1000
VISUALSTYLE
1000
AcRTDxfName
1000
VISUALSTYLE
1000
AcRTDxfName
1000
VISUALSTYLE
1000
AcRTDxfName
1000
VISUALSTYLE
1000
AcRTDxfName
1000
VISUALSTYLE
1000
AcRTDxfName
1000
VISUALSTYLE
1000
AcRTDxfName
1000
VISUALSTYLE
1000
AcRTDxfName
1000
VISUALSTYLE
1000
AcRTDxfName
1000
VISUALSTYLE
1000
AcRTDxfName
1000
VISUALSTYLE
1000
AcRTDxfName
1000
VISUALSTYLE
1000
AcRTDxfName
1000
VISUALSTYLE
1000
AcRTDxfName
1000
VISUALSTYLE
1000
AcRTDxfName
1000
VISUALSTYLE
1000
AcRTDxfName
1000
VISUALSTYLE
1000
AcRTDxfName
1000
VISUALSTYLE
1000
AcRTDxfName
1000
VISUALSTYLE
1000
AcRTDxfName
1000
VISUALSTYLE
1000
AcRTDxfName
1000
VISUALSTYLE
1000
AcRTDxfName
1000
VISUALSTYLE
1000
AcRTDxfName
1000
VISUALSTYLE
1000
AcRTDxfName
1000
VISUALSTYLE
1000
AcRTDxfName
1000
VISUALSTYLE
1000
AcRTDxfName
1000
VISUALSTYLE
1000
AcRTDxfName
1000
VISUALSTYLE
1000
AcRTDxfName
1000
VISUALSTYLE
1000
AcRTDxfName
1000
VISUALSTYLE
1000
AcRTDxfName
1000
VISUALSTYLE
1000
AcRTDxfName
1000
VISUALSTYLE
1000
AcRTDxfName
1000
VISUALSTYLE
1000
AcRTDxfName
1000
VISUALSTYLE
1000
AcRTDxfName
1000
VISUALSTYLE
1000
AcRTDxfName
1000
VISUALSTYLE
1000
AcRTDxfName
1000
VISUALSTYLE
1000
AcRTDxfName
1000
VISUALSTYLE
  0
VISUALSTYLE
  5
53
102
{ACAD_REACTORS
330
16
102
}
330
16
100
AcDbVisualStyle
  2
Realistic
 70
     8
177
     3
291
     0
 70
    58
 90
        2
176
     1
 90
        2
176
     1
 90
        0
176
     1
 90
        0
176
     1
 40
0.6
176
     1
 40
30.0
176
     1
 62
     7
176
     1
 90
        1
176
     1
 90
        0
176
     1
 62
     7
176
     1
 62
   257
176
     1
 90
        1
176
     1
 90
        1
176
     1
 40
1.0
176
     1
 90
        8
176
     1
 62
     8
176
     1
 40
1.0
176
     1
 90
        1
176
     1
 90
        6
176
     1
 90
        2
176
     1
 62
     7
176
     1
 90
        5
176
     1
 90
        0
176
     1
 90
        0
176
     1
290
     0
176
     1
 90
       13
176
     1
 40
0.0
176
     1
 90
        0
176
     1
290
     0
176
     1
290
     1
176
     1
290
     1
176
     1
290
     0
176
     1
290
     0
176
     1
290
     0
176
     1
290
     0
176
     1
290
     0
176
     1
290
     0
176
     1
 90
       50
176
     1
 40
0.0
176
     1
 40
1.0
176
     1
 90
        0
176
     1
 62
    18
176
     1
 90
       50
176
     1
 90
        3
176
     1
 62
     5
420
      255
176
     1
290
     0
176
     1
 90
       50
176
     1
 90
       50
176
     1
 90
       50
176
     1
290
     0
176
     1
 90
       50
176
     1
 62
   256
176
     0
 40
1.0
176
     0
 90
        2
176
     1
  1
strokes_ogs.tif
176
     1
290
     0
176
     1
 40
1.0
176
     1
 40
1.0
176
     1
1001
ACAD
1000
AcRTDxfName
1000
VISUALSTYLE
1000
AcRTDxfName
1000
VISUALSTYLE
1000
AcRTDxfName
1000
VISUALSTYLE
1000
AcRTDxfName
1000
VISUALSTYLE
1000
AcRTDxfName
1000
VISUALSTYLE
1000
AcRTDxfName
1000
VISUALSTYLE
1000
AcRTDxfName
1000
VISUALSTYLE
1000
AcRTDxfName
1000
VISUALSTYLE
1000
AcRTDxfName
1000
VISUALSTYLE
1000
AcRTDxfName
1000
VISUALSTYLE
1000
AcRTDxfName
1000
VISUALSTYLE
1000
AcRTDxfName
1000
VISUALSTYLE
1000
AcRTDxfName
1000
VISUALSTYLE
1000
AcRTDxfName
1000
VISUALSTYLE
1000
AcRTDxfName
1000
VISUALSTYLE
1000
AcRTDxfName
1000
VISUALSTYLE
1000
AcRTDxfName
1000
VISUALSTYLE
1000
AcRTDxfName
1000
VISUALSTYLE
1000
AcRTDxfName
1000
VISUALSTYLE
1000
AcRTDxfName
1000
VISUALSTYLE
1000
AcRTDxfName
1000
VISUALSTYLE
1000
AcRTDxfName
1000
VISUALSTYLE
1000
AcRTDxfName
1000
VISUALSTYLE
1000
AcRTDxfName
1000
VISUALSTYLE
1000
AcRTDxfName
1000
VISUALSTYLE
1000
AcRTDxfName
1000
VISUALSTYLE
1000
AcRTDxfName
1000
VISUALSTYLE
1000
AcRTDxfName
1000
VISUALSTYLE
1000
AcRTDxfName
1000
VISUALSTYLE
1000
AcRTDxfName
1000
VISUALSTYLE
1000
AcRTDxfName
1000
VISUALSTYLE
1000
AcRTDxfName
1000
VISUALSTYLE
1000
AcRTDxfName
1000
VISUALSTYLE
1000
AcRTDxfName
1000
VISUALSTYLE
1000
AcRTDxfName
1000
VISUALSTYLE
  0
VISUALSTYLE
  5
54
102
{ACAD_REACTORS
330
16
102
}
330
16
100
AcDbVisualStyle
  2
Wireframe
 70
     5
177
     3
291
     0
 70
    58
 90
        0
176
     1
 90
        2
176
     1
 90
        0
176
     1
 90
        0
176
     1
 40
0.6
176
     1
 40
30.0
176
     1
 62
     7
176
     1
 90
        1
176
     1
 90
        4
176
     1
 62
     7
176
     1
 62
   257
176
     1
 90
        1
176
     1
 90
        1
176
     1
 40
1.0
176
     1
 90
        0
176
     1
 62
   257
176
     1
 40
1.0
176
     1
 90
        1
176
     1
 90
        6
176
     1
 90
        2
176
     1
 62
     7
176
     1
 90
        3
176
     1
 90
        0
176
     1
 90
        0
176
     1
290
     0
176
     1
 90
        1
176
     1
 40
0.0
176
     1
 90
        0
176
     1
290
     0
176
     1
290
     1
176
     1
290
     1
176
     1
290
     0
176
     1
290
     0
176
     1
290
     0
176
     1
290
     0
176
     1
290
     0
176
     1
290
     0
176
     1
 90
       50
176
     1
 40
0.0
176
     1
 40
1.0
176
     1
 90
        0
176
     1
 62
    18
176
     1
 90
       50
176
     1
 90
        3
176
     1
 62
     5
420
      255
176
     1
290
     0
176
     1
 90
       50
176
     1
 90
       50
176
     1
 90
       50
176
     1
290
     0
176
     1
 90
       50
176
     1
 62
   256
176
     0
 40
1.0
176
     0
 90
        2
176
     1
  1
strokes_ogs.tif
176
     1
290
     0
176
     1
 40
1.0
176
     1
 40
1.0
176
     1
  0
DICTIONARYVAR
  5
3F
102
{ACAD_REACTORS
330
3E
102
}
330
3E
100
DictionaryVariables
280
     0
  1
1:1
  0
DICTIONARYVAR
  5
40
102
{ACAD_REACTORS
330
3E
102
}
330
3E
100
DictionaryVariables
280
     0
  1
STANDARD
  0
DICTIONARYVAR
  5
41
102
{ACAD_REACTORS
330
3E
102
}
330
3E
100
DictionaryVariables
280
     0
  1
STANDARD
  0
DICTIONARYVAR
  5
42
102
{ACAD_REACTORS
330
3E
102
}
330
3E
100
DictionaryVariables
280
     0
  1

  0
DICTIONARYVAR
  5
43
102
{ACAD_REACTORS
330
3E
102
}
330
3E
100
DictionaryVariables
280
     0
  1

  0
DICTIONARYVAR
  5
44
102
{ACAD_REACTORS
330
3E
102
}
330
3E
100
DictionaryVariables
280
     0
  1
0
  0
DICTIONARYVAR
  5
45
102
{ACAD_REACTORS
330
3E
102
}
330
3E
100
DictionaryVariables
280
     0
  1
0
  0
DICTIONARYVAR
  5
46
102
{ACAD_REACTORS
330
3E
102
}
330
3E
100
DictionaryVariables
280
     0
  1
1
  0
DICTIONARYVAR
  5
47
102
{ACAD_REACTORS
330
3E
102
}
330
3E
100
DictionaryVariables
280
     0
  1
15
  0
DICTIONARYVAR
  5
48
102
{ACAD_REACTORS
330
3E
102
}
330
3E
100
DictionaryVariables
280
     0
  1
0
  0
DICTIONARYVAR
  5
49
102
{ACAD_REACTORS
330
3E
102
}
330
3E
100
DictionaryVariables
280
     0
  1
0
  0
DICTIONARYVAR
  5
4A
102
{ACAD_REACTORS
330
3E
102
}
330
3E
100
DictionaryVariables
280
     0
  1

  0
DICTIONARYVAR
  5
4B
102
{ACAD_REACTORS
330
3E
102
}
330
3E
100
DictionaryVariables
280
     0
  1
96
  0
DICTIONARY
  5
1E
330
1D
100
AcDbDictionary
280
     1
281
     1
  0
DICTIONARY
  5
52
330
51
100
AcDbDictionary
280
     1
281
     1
  3
ACAD_ROUNDTRIP_2008_TABLESTYLE_CELLSTYLEMAP
360
167
  0
CELLSTYLEMAP
  5
167
102
{ACAD_REACTORS
330
52
102
}
330
52
100
AcDbCellStyleMap
 90
        3
300
CELLSTYLE
  1
TABLEFORMAT_BEGIN
 90
        5
170
     1
 91
        0
 92
    32768
 62
   257
 93
        1
300
CONTENTFORMAT
  1
CONTENTFORMAT_BEGIN
 90
        0
 91
        0
 92
      512
 93
        0
300

 40
0.0
140
1.0
 94
        5
 62
     0
340
26
144
0.25
309
CONTENTFORMAT_END
171
     1
301
MARGIN
  1
CELLMARGIN_BEGIN
 40
0.06
 40
0.06
 40
0.06
 40
0.06
 40
0.18
 40
0.18
309
CELLMARGIN_END
 94
        6
 95
        1
302
GRIDFORMAT
  1
GRIDFORMAT_BEGIN
 90
        0
 91
        1
 62
     0
 92
       -2
340
0
 93
        0
 40
0.045
309
GRIDFORMAT_END
 95
        2
302
GRIDFORMAT
  1
GRIDFORMAT_BEGIN
 90
        0
 91
        1
 62
     0
 92
       -2
340
0
 93
        0
 40
0.045
309
GRIDFORMAT_END
 95
        4
302
GRIDFORMAT
  1
GRIDFORMAT_BEGIN
 90
        0
 91
        1
 62
     0
 92
       -2
340
0
 93
        0
 40
0.045
309
GRIDFORMAT_END
 95
        8
302
GRIDFORMAT
  1
GRIDFORMAT_BEGIN
 90
        0
 91
        1
 62
     0
 92
       -2
340
0
 93
        0
 40
0.045
309
GRIDFORMAT_END
 95
       16
302
GRIDFORMAT
  1
GRIDFORMAT_BEGIN
 90
        0
 91
        1
 62
     0
 92
       -2
340
0
 93
        0
 40
0.045
309
GRIDFORMAT_END
 95
       32
302
GRIDFORMAT
  1
GRIDFORMAT_BEGIN
 90
        0
 91
        1
 62
     0
 92
       -2
340
0
 93
        0
 40
0.045
309
GRIDFORMAT_END
309
TABLEFORMAT_END
  1
CELLSTYLE_BEGIN
 90
        1
 91
        1
300
_TITLE
309
CELLSTYLE_END
300
CELLSTYLE
  1
TABLEFORMAT_BEGIN
 90
        5
170
     1
 91
        0
 92
        0
 62
   257
 93
        1
300
CONTENTFORMAT
  1
CONTENTFORMAT_BEGIN
 90
        0
 91
        0
 92
      512
 93
        0
300

 40
0.0
140
1.0
 94
        5
 62
     0
340
26
144
0.18
309
CONTENTFORMAT_END
171
     1
301
MARGIN
  1
CELLMARGIN_BEGIN
 40
0.06
 40
0.06
 40
0.06
 40
0.06
 40
0.18
 40
0.18
309
CELLMARGIN_END
 94
        6
 95
        1
302
GRIDFORMAT
  1
GRIDFORMAT_BEGIN
 90
        0
 91
        1
 62
     0
 92
       -2
340
0
 93
        0
 40
0.045
309
GRIDFORMAT_END
 95
        2
302
GRIDFORMAT
  1
GRIDFORMAT_BEGIN
 90
        0
 91
        1
 62
     0
 92
       -2
340
0
 93
        0
 40
0.045
309
GRIDFORMAT_END
 95
        4
302
GRIDFORMAT
  1
GRIDFORMAT_BEGIN
 90
        0
 91
        1
 62
     0
 92
       -2
340
0
 93
        0
 40
0.045
309
GRIDFORMAT_END
 95
        8
302
GRIDFORMAT
  1
GRIDFORMAT_BEGIN
 90
        0
 91
        1
 62
     0
 92
       -2
340
0
 93
        0
 40
0.045
309
GRIDFORMAT_END
 95
       16
302
GRIDFORMAT
  1
GRIDFORMAT_BEGIN
 90
        0
 91
        1
 62
     0
 92
       -2
340
0
 93
        0
 40
0.045
309
GRIDFORMAT_END
 95
       32
302
GRIDFORMAT
  1
GRIDFORMAT_BEGIN
 90
        0
 91
        1
 62
     0
 92
       -2
340
0
 93
        0
 40
0.045
309
GRIDFORMAT_END
309
TABLEFORMAT_END
  1
CELLSTYLE_BEGIN
 90
        2
 91
        1
300
_HEADER
309
CELLSTYLE_END
300
CELLSTYLE
  1
TABLEFORMAT_BEGIN
 90
        5
170
     1
 91
        0
 92
        0
 62
   257
 93
        1
300
CONTENTFORMAT
  1
CONTENTFORMAT_BEGIN
 90
        0
 91
        0
 92
      512
 93
        0
300

 40
0.0
140
1.0
 94
        2
 62
     0
340
26
144
0.18
309
CONTENTFORMAT_END
171
     1
301
MARGIN
  1
CELLMARGIN_BEGIN
 40
0.06
 40
0.06
 40
0.06
 40
0.06
 40
0.18
 40
0.18
309
CELLMARGIN_END
 94
        6
 95
        1
302
GRIDFORMAT
  1
GRIDFORMAT_BEGIN
 90
        0
 91
        1
 62
     0
 92
       -2
340
0
 93
        0
 40
0.045
309
GRIDFORMAT_END
 95
        2
302
GRIDFORMAT
  1
GRIDFORMAT_BEGIN
 90
        0
 91
        1
 62
     0
 92
       -2
340
0
 93
        0
 40
0.045
309
GRIDFORMAT_END
 95
        4
302
GRIDFORMAT
  1
GRIDFORMAT_BEGIN
 90
        0
 91
        1
 62
     0
 92
       -2
340
0
 93
        0
 40
0.045
309
GRIDFORMAT_END
 95
        8
302
GRIDFORMAT
  1
GRIDFORMAT_BEGIN
 90
        0
 91
        1
 62
     0
 92
       -2
340
0
 93
        0
 40
0.045
309
GRIDFORMAT_END
 95
       16
302
GRIDFORMAT
  1
GRIDFORMAT_BEGIN
 90
        0
 91
        1
 62
     0
 92
       -2
340
0
 93
        0
 40
0.045
309
GRIDFORMAT_END
 95
       32
302
GRIDFORMAT
  1
GRIDFORMAT_BEGIN
 90
        0
 91
        1
 62
     0
 92
       -2
340
0
 93
        0
 40
0.045
309
GRIDFORMAT_END
309
TABLEFORMAT_END
  1
CELLSTYLE_BEGIN
 90
        3
 91
        2
300
_DATA
309
CELLSTYLE_END
  0
ENDSEC
  0
SECTION
  2
ACDSDATA
 70
     2
 71
     8
  0
ACDSSCHEMA
 90
        0
  1
AcDb_Thumbnail_Schema
  2
AcDbDs::ID
280
    10
 91
        8
  2
Thumbnail_Data
280
    15
 91
        0
101
ACDSRECORD
 95
        0
 90
        1
  2
AcDbDs::TreatedAsObjectData
280
     1
291
     1
101
ACDSRECORD
 95
        0
 90
        2
  2
AcDbDs::Legacy
280
     1
291
     1
101
ACDSRECORD
  1
AcDbDs::ID
 90
        3
  2
AcDs:Indexable
280
     1
291
     1
101
ACDSRECORD
  1
AcDbDs::ID
 90
        4
  2
AcDbDs::HandleAttribute
280
     7
282
     1
  0
ACDSSCHEMA
 90
        1
  1
AcDbDs::TreatedAsObjectDataSchema
  2
AcDbDs::TreatedAsObjectData
280
     1
 91
        0
  0
ACDSSCHEMA
 90
        2
  1
AcDbDs::LegacySchema
  2
AcDbDs::Legacy
280
     1
 91
        0
  0
ACDSSCHEMA
 90
        3
  1
AcDbDs::IndexedPropertySchema
  2
AcDs:Indexable
280
     1
 91
        0
  0
ACDSSCHEMA
 90
        4
  1
AcDbDs::HandleAttributeSchema
  2
AcDbDs::HandleAttribute
280
     7
 91
        1
284
     1
  0
ACDSRECORD
 90
        0
  2
AcDbDs::ID
280
    10
320
1D
  2
Thumbnail_Data
280
    15
 94
     1429
310
89504E470D0A1A0A0000000D49484452000000B40000008A0803000000346390DD00000300504C5445FFFFFF000000FFFFFF0000000000000000000000000000000000000000000000000000330000660000990000CC0000FF0033000033330033660033990033CC0033FF0066000066330066660066990066CC0066FF0099
310
000099330099660099990099CC0099FF00CC0000CC3300CC6600CC9900CCCC00CCFF00FF0000FF3300FF6600FF9900FFCC00FFFF3300003300333300663300993300CC3300FF3333003333333333663333993333CC3333FF3366003366333366663366993366CC3366FF3399003399333399663399993399CC3399FF33CC00
310
33CC3333CC6633CC9933CCCC33CCFF33FF0033FF3333FF6633FF9933FFCC33FFFF6600006600336600666600996600CC6600FF6633006633336633666633996633CC6633FF6666006666336666666666996666CC6666FF6699006699336699666699996699CC6699FF66CC0066CC3366CC6666CC9966CCCC66CCFF66FF0066
310
FF3366FF6666FF9966FFCC66FFFF9900009900339900669900999900CC9900FF9933009933339933669933999933CC9933FF9966009966339966669966999966CC9966FF9999009999339999669999999999CC9999FF99CC0099CC3399CC6699CC9999CCCC99CCFF99FF0099FF3399FF6699FF9999FFCC99FFFFCC0000CC00
310
33CC0066CC0099CC00CCCC00FFCC3300CC3333CC3366CC3399CC33CCCC33FFCC6600CC6633CC6666CC6699CC66CCCC66FFCC9900CC9933CC9966CC9999CC99CCCC99FFCCCC00CCCC33CCCC66CCCC99CCCCCCCCCCFFCCFF00CCFF33CCFF66CCFF99CCFFCCCCFFFFFF0000FF0033FF0066FF0099FF00CCFF00FFFF3300FF3333
310
FF3366FF3399FF33CCFF33FFFF6600FF6633FF6666FF6699FF66CCFF66FFFF9900FF9933FF9966FF9999FF99CCFF99FFFFCC00FFCC33FFCC66FFCC99FFCCCCFFCCFFFFFF00FFFF33FFFF66FFFF99FFFFCCFFFFFF0000000D0D0D1A1A1A2828283535354343435050505D5D5D6B6B6B787878868686939393A1A1A1AEAEAEBB
310
BBBBC9C9C9D6D6D6E4E4E4F1F1F1FFFFFF000000000000000000000000000000000000000000000000000000000000790CAC0F000002504944415478DAEDDC4D6E83301005E01C87CDDC7FE793B09A0B64E57DFD8F09014A20E88DF21C091CD2AA5F4783193B88877A634D9FCF07D1B7A055135A4BEB3FE8DBDA71BDFAF8EE
310
1FEED166A24C34D14413FD9B68935744A2893E825690760C8D3358104DF42768B58256A289269A68A289269A68A28926FA1234A75B44134D34D1445F8EE6659C68A289269A68A289269A68A27F0CCDE9D6A64244EDA155C522DA62A4C55EA42D9D88F9D62F0967E1CE9D60F7A2B5B9A4D85AA7BE09DBD8D121BC40D05EE6AD
310
7BEF1B5A6267C8ED34FAFC1551651D9DE32DE9A5E7D0D75EC6E32FF448E9FF0B4D4724E78482A2A3782CFB941E224ED246B0D07D269474C8A9EC0BDA295EA4A718CF029ED1B39F444D8FF919098F9E223DCAF812E9901CA15C82462FD3A3A043C78514170CB4DF47FBEE7E7208B42CD1FA26A781E688153D6F06D07B27A201
310
F4DA388D88565B685F6BA5ED8B0B00BA8E5D13DA40A41768D15A9A760513D80AD30BBAAF9BC669E6023AB1DD28983C347AE93E3BB7277A1B3DD90DA0652DA981D0B3EAB2AE7BE470FB29DA1E0EADBEC223BA8CCE65DC6B7BBC48F7E8185E1FA651522A55ADDDEFA0AFA83D524CBF8DD6EBD19256EA621E0F7146A0C3E5E9A1
310
8CB4B6CA349E8B43A99A521718DD96C4CA28325B734445D705BCD7F55D3DF8DDD0CDE9E19C8BEB306F0A107CB48B6BA42E27877339E6B8E9E112D54568E915B4A0A25D69D9D9D031DAC091CEE6BCCF9BE496F42500F6E871E0E11144FF10FA3B8D6808B4B782F64413FD29DAE27398901BD144FF03CDC729124D34D14483A3
310
2D3EE99B9771A2D7D006DB1F8304F3268FA57F020000000049454E44AE426082
  0
ENDSEC
  0
EOF
