  0
SECTION
  2
HEADER
  9
$ACADVER
  1
AC1032
  9
$ACADMAINTVER
 90
      197
  9
$DWGCODEPAGE
  3
ANSI_936
  9
$REQUIREDVERSIONS
160
                 0
  9
$INSBASE
 10
0.0
 20
0.0
 30
0.0
  9
$EXTMIN
 10
127.0472162084088
 20
-492.0899171512116
 30
0.0
  9
$EXTMAX
 10
663.2472162146091
 20
-111.2899171468155
 30
0.0
  9
$LIMMIN
 10
0.0
 20
0.0
  9
$LIMMAX
 10
0.0
 20
0.0
  9
$ORTHOMODE
 70
     0
  9
$REGENMODE
 70
     1
  9
$FILLMODE
 70
     1
  9
$QTEXTMODE
 70
     0
  9
$MIRRTEXT
 70
     0
  9
$LTSCALE
 40
8.0
  9
$ATTMODE
 70
     1
  9
$TEXTSIZE
 40
2.5
  9
$TRACEWID
 40
0.05
  9
$TEXTSTYLE
  7
1.4倍
  9
$CLAYER
  8
0
  9
$CELTYPE
  6
ByLayer
  9
$CECOLOR
 62
   256
  9
$CELTSCALE
 40
1.0
  9
$DISPSILH
 70
     0
  9
$DIMSCALE
 40
1.0
  9
$DIMASZ
 40
4.2
  9
$DIMEXO
 40
1.399999999999999
  9
$DIMDLI
 40
7.5
  9
$DIMRND
 40
0.0
  9
$DIMDLE
 40
1.25
  9
$DIMEXE
 40
1.399999999999999
  9
$DIMTP
 40
0.0
  9
$DIMTM
 40
0.0
  9
$DIMTXT
 40
3.5
  9
$DIMCEN
 40
1.25
  9
$DIMTSZ
 40
0.0
  9
$DIMTOL
 70
     0
  9
$DIMLIM
 70
     0
  9
$DIMTIH
 70
     0
  9
$DIMTOH
 70
     0
  9
$DIMSE1
 70
     0
  9
$DIMSE2
 70
     0
  9
$DIMTAD
 70
     1
  9
$DIMZIN
 70
     1
  9
$DIMBLK
  1

  9
$DIMASO
 70
     1
  9
$DIMSHO
 70
     1
  9
$DIMPOST
  1

  9
$DIMAPOST
  1

  9
$DIMALT
 70
     0
  9
$DIMALTD
 70
     2
  9
$DIMALTF
 40
25.4
  9
$DIMLFAC
 40
1.0
  9
$DIMTOFL
 70
     1
  9
$DIMTVP
 40
0.0
  9
$DIMTIX
 70
     0
  9
$DIMSOXD
 70
     0
  9
$DIMSAH
 70
     0
  9
$DIMBLK1
  1

  9
$DIMBLK2
  1

  9
$DIMSTYLE
  2
倍数为1.4
  9
$DIMCLRD
 70
     0
  9
$DIMCLRE
 70
     0
  9
$DIMCLRT
 70
   256
  9
$DIMTFAC
 40
1.0
  9
$DIMGAP
 40
1.189999999999999
  9
$DIMJUST
 70
     0
  9
$DIMSD1
 70
     0
  9
$DIMSD2
 70
     0
  9
$DIMTOLJ
 70
     1
  9
$DIMTZIN
 70
     0
  9
$DIMALTZ
 70
     0
  9
$DIMALTTZ
 70
     0
  9
$DIMUPT
 70
     0
  9
$DIMDEC
 70
     4
  9
$DIMTDEC
 70
     4
  9
$DIMALTU
 70
     2
  9
$DIMALTTD
 70
     2
  9
$DIMTXSTY
  7
1.4倍
  9
$DIMAUNIT
 70
     0
  9
$DIMADEC
 70
     0
  9
$DIMALTRND
 40
0.0
  9
$DIMAZIN
 70
     0
  9
$DIMDSEP
 70
    46
  9
$DIMATFIT
 70
     3
  9
$DIMFRAC
 70
     0
  9
$DIMLDRBLK
  1

  9
$DIMLUNIT
 70
     2
  9
$DIMLWD
 70
    -2
  9
$DIMLWE
 70
    -2
  9
$DIMTMOVE
 70
     0
  9
$DIMFXL
 40
0.05
  9
$DIMFXLON
 70
     0
  9
$DIMJOGANG
 40
0.7853981633974483
  9
$DIMTFILL
 70
     0
  9
$DIMTFILLCLR
 70
     0
  9
$DIMARCSYM
 70
     0
  9
$DIMLTYPE
  6
ByLayer
  9
$DIMLTEX1
  6
ByLayer
  9
$DIMLTEX2
  6
ByLayer
  9
$DIMTXTDIRECTION
 70
     0
  9
$LUNITS
 70
     2
  9
$LUPREC
 70
     4
  9
$SKETCHINC
 40
0.1
  9
$FILLETRAD
 40
0.07
  9
$AUNITS
 70
     0
  9
$AUPREC
 70
     0
  9
$MENU
  1
.
  9
$ELEVATION
 40
0.0
  9
$PELEVATION
 40
0.0
  9
$THICKNESS
 40
0.0
  9
$LIMCHECK
 70
     0
  9
$CHAMFERA
 40
0.005
  9
$CHAMFERB
 40
0.005
  9
$CHAMFERC
 40
0.0
  9
$CHAMFERD
 40
0.0
  9
$SKPOLY
 70
     0
  9
$TDCREATE
 40
2453354.050451389
  9
$TDUCREATE
 40
2453353.717125822
  9
$TDUPDATE
 40
2460004.507164352
  9
$TDUUPDATE
 40
2460004.173831019
  9
$TDINDWG
 40
67109121.11451263
  9
$TDUSRTIMER
 40
67109121.11447801
  9
$USRTIMER
 70
     1
  9
$ANGBASE
 50
0.0
  9
$ANGDIR
 70
     0
  9
$PDMODE
 70
     0
  9
$PDSIZE
 40
0.0
  9
$PLINEWID
 40
0.0
  9
$SPLFRAME
 70
     0
  9
$SPLINETYPE
 70
     6
  9
$SPLINESEGS
 70
     8
  9
$HANDSEED
  5
1BA
  9
$SURFTAB1
 70
     6
  9
$SURFTAB2
 70
     6
  9
$SURFTYPE
 70
     6
  9
$SURFU
 70
     6
  9
$SURFV
 70
     6
  9
$UCSBASE
  2

  9
$UCSNAME
  2

  9
$UCSORG
 10
0.0
 20
0.0
 30
0.0
  9
$UCSXDIR
 10
1.0
 20
0.0
 30
0.0
  9
$UCSYDIR
 10
0.0
 20
1.0
 30
0.0
  9
$UCSORTHOREF
  2

  9
$UCSORTHOVIEW
 70
     0
  9
$UCSORGTOP
 10
0.0
 20
0.0
 30
0.0
  9
$UCSORGBOTTOM
 10
0.0
 20
0.0
 30
0.0
  9
$UCSORGLEFT
 10
0.0
 20
0.0
 30
0.0
  9
$UCSORGRIGHT
 10
0.0
 20
0.0
 30
0.0
  9
$UCSORGFRONT
 10
0.0
 20
0.0
 30
0.0
  9
$UCSORGBACK
 10
0.0
 20
0.0
 30
0.0
  9
$PUCSBASE
  2

  9
$PUCSNAME
  2

  9
$PUCSORG
 10
0.0
 20
0.0
 30
0.0
  9
$PUCSXDIR
 10
1.0
 20
0.0
 30
0.0
  9
$PUCSYDIR
 10
0.0
 20
1.0
 30
0.0
  9
$PUCSORTHOREF
  2

  9
$PUCSORTHOVIEW
 70
     0
  9
$PUCSORGTOP
 10
0.0
 20
0.0
 30
0.0
  9
$PUCSORGBOTTOM
 10
0.0
 20
0.0
 30
0.0
  9
$PUCSORGLEFT
 10
0.0
 20
0.0
 30
0.0
  9
$PUCSORGRIGHT
 10
0.0
 20
0.0
 30
0.0
  9
$PUCSORGFRONT
 10
0.0
 20
0.0
 30
0.0
  9
$PUCSORGBACK
 10
0.0
 20
0.0
 30
0.0
  9
$USERI1
 70
     0
  9
$USERI2
 70
     0
  9
$USERI3
 70
     0
  9
$USERI4
 70
     0
  9
$USERI5
 70
 32767
  9
$USERR1
 40
0.0
  9
$USERR2
 40
0.0
  9
$USERR3
 40
0.0
  9
$USERR4
 40
0.0
  9
$USERR5
 40
0.0
  9
$WORLDVIEW
 70
     1
  9
$SHADEDGE
 70
     3
  9
$SHADEDIF
 70
    70
  9
$TILEMODE
 70
     1
  9
$MAXACTVP
 70
    16
  9
$PINSBASE
 10
0.0
 20
0.0
 30
0.0
  9
$PLIMCHECK
 70
     0
  9
$PEXTMIN
 10
0.0
 20
0.0
 30
0.0
  9
$PEXTMAX
 10
0.0
 20
0.0
 30
0.0
  9
$PLIMMIN
 10
0.0
 20
0.0
  9
$PLIMMAX
 10
0.0
 20
0.0
  9
$UNITMODE
 70
     0
  9
$VISRETAIN
 70
     0
  9
$PLINEGEN
 70
     0
  9
$PSLTSCALE
 70
     0
  9
$TREEDEPTH
 70
  3020
  9
$CMLSTYLE
  2
Standard
  9
$CMLJUST
 70
     0
  9
$CMLSCALE
 40
1.0
  9
$PROXYGRAPHICS
 70
     1
  9
$MEASUREMENT
 70
     0
  9
$CELWEIGHT
370
    -1
  9
$ENDCAPS
280
     0
  9
$JOINSTYLE
280
     0
  9
$LWDISPLAY
290
     0
  9
$INSUNITS
 70
     0
  9
$HYPERLINKBASE
  1

  9
$STYLESHEET
  1

  9
$XEDIT
290
     1
  9
$CEPSNTYPE
380
     0
  9
$PSTYLEMODE
290
     1
  9
$FINGERPRINTGUID
  2
{437FEF04-C8BE-0A45-AB76-6BEE3222D9EE}
  9
$VERSIONGUID
  2
{2DF1D635-E602-7241-A0A4-D218F3D298AA}
  9
$EXTNAMES
290
     1
  9
$PSVPSCALE
 40
0.0
  9
$OLESTARTUP
290
     0
  9
$SORTENTS
280
   127
  9
$INDEXCTL
280
     0
  9
$HIDETEXT
280
     1
  9
$XCLIPFRAME
280
     2
  9
$HALOGAP
280
     0
  9
$OBSCOLOR
 70
   257
  9
$OBSLTYPE
280
     0
  9
$INTERSECTIONDISPLAY
280
     0
  9
$INTERSECTIONCOLOR
 70
   257
  9
$DIMASSOC
280
     0
  9
$PROJECTNAME
  1

  9
$CAMERADISPLAY
290
     0
  9
$LENSLENGTH
 40
50.0
  9
$CAMERAHEIGHT
 40
0.0
  9
$STEPSPERSEC
 40
2.0
  9
$STEPSIZE
 40
6.0
  9
$3DDWFPREC
 40
2.0
  9
$PSOLWIDTH
 40
0.25
  9
$PSOLHEIGHT
 40
4.0
  9
$LOFTANG1
 40
1.570796326794896
  9
$LOFTANG2
 40
1.570796326794896
  9
$LOFTMAG1
 40
0.0
  9
$LOFTMAG2
 40
0.0
  9
$LOFTPARAM
 70
     7
  9
$LOFTNORMALS
280
     1
  9
$LATITUDE
 40
37.795
  9
$LONGITUDE
 40
-122.394
  9
$NORTHDIRECTION
 40
0.0
  9
$TIMEZONE
 70
 -8000
  9
$LIGHTGLYPHDISPLAY
280
     1
  9
$TILEMODELIGHTSYNCH
280
     1
  9
$CMATERIAL
347
44
  9
$SOLIDHIST
280
     0
  9
$SHOWHIST
280
     1
  9
$DWFFRAME
280
     2
  9
$DGNFRAME
280
     0
  9
$REALWORLDSCALE
290
     1
  9
$INTERFERECOLOR
 62
     1
  9
$INTERFEREOBJVS
345
69
  9
$INTERFEREVPVS
346
6A
  9
$CSHADOW
280
     0
  9
$SHADOWPLANELOCATION
 40
0.0
  0
ENDSEC
  0
SECTION
  2
CLASSES
  0
CLASS
  1
ACDBDICTIONARYWDFLT
  2
AcDbDictionaryWithDefault
  3
ObjectDBX Classes
 90
        0
 91
        1
280
     0
281
     0
  0
CLASS
  1
DICTIONARYVAR
  2
AcDbDictionaryVar
  3
ObjectDBX Classes
 90
        0
 91
       13
280
     0
281
     0
  0
CLASS
  1
TABLESTYLE
  2
AcDbTableStyle
  3
ObjectDBX Classes
 90
     4095
 91
        1
280
     0
281
     0
  0
CLASS
  1
SORTENTSTABLE
  2
AcDbSortentsTable
  3
ObjectDBX Classes
 90
        0
 91
        2
280
     0
281
     0
  0
CLASS
  1
MATERIAL
  2
AcDbMaterial
  3
ObjectDBX Classes
 90
     1153
 91
        3
280
     0
281
     0
  0
CLASS
  1
VISUALSTYLE
  2
AcDbVisualStyle
  3
ObjectDBX Classes
 90
     4095
 91
        4
280
     0
281
     0
  0
CLASS
  1
SCALE
  2
AcDbScale
  3
ObjectDBX Classes
 90
     1153
 91
       17
280
     0
281
     0
  0
CLASS
  1
MLEADERSTYLE
  2
AcDbMLeaderStyle
  3
ACDB_MLEADERSTYLE_CLASS
 90
     4095
 91
        0
280
     0
281
     0
  0
CLASS
  1
ACDBSECTIONVIEWSTYLE
  2
AcDbSectionViewStyle
  3
ObjectDBX Classes
 90
     1025
 91
        0
280
     0
281
     0
  0
CLASS
  1
ACDBDETAILVIEWSTYLE
  2
AcDbDetailViewStyle
  3
ObjectDBX Classes
 90
     1025
 91
        0
280
     0
281
     0
  0
CLASS
  1
CELLSTYLEMAP
  2
AcDbCellStyleMap
  3
ObjectDBX Classes
 90
     1152
 91
        1
280
     0
281
     0
  0
CLASS
  1
ACAD_EVALUATION_GRAPH
  2
AcDbEvalGraph
  3
ObjectDBX Classes
 90
     1153
 91
        0
280
     0
281
     0
  0
CLASS
  1
ACAECUSTOBJ
  2
AcAeEditorObj
  3
AcAeEditorObj
 90
     1024
 91
        0
280
     1
281
     0
  0
CLASS
  1
ACDB_DYNAMICBLOCKPURGEPREVENTER_VERSION
  2
AcDbDynamicBlockPurgePreventer
  3
ObjectDBX Classes
 90
     1153
 91
        0
280
     0
281
     0
  0
CLASS
  1
ACARRAYJIGENTITY
  2
AcArrayJigEntity
  3
ACAD_ARRAY
 90
      129
 91
        0
280
     1
281
     1
  0
CLASS
  1
ACDBASSOCNETWORK
  2
AcDbAssocNetwork
  3
ObjectDBX Classes
 90
     1025
 91
        0
280
     0
281
     0
  0
CLASS
  1
ACDBASSOCACTION
  2
AcDbAssocAction
  3
ObjectDBX Classes
 90
     1025
 91
        0
280
     0
281
     0
  0
CLASS
  1
ACDBASSOCARRAYACTIONBODY
  2
AcDbAssocArrayActionBody
  3
ObjectDBX Classes
 90
     1025
 91
        0
280
     0
281
     0
  0
CLASS
  1
ACDBASSOCVERTEXACTIONPARAM
  2
AcDbAssocVertexActionParam
  3
ObjectDBX Classes
 90
     1025
 91
        0
280
     0
281
     0
  0
CLASS
  1
ACDBASSOCDEPENDENCY
  2
AcDbAssocDependency
  3
ObjectDBX Classes
 90
     1025
 91
        0
280
     0
281
     0
  0
CLASS
  1
ACDBASSOCARRAYRECTANGULARPARAMETERS
  2
AcDbAssocArrayRectangularParameters
  3
ObjectDBX Classes
 90
     1025
 91
        0
280
     0
281
     0
  0
CLASS
  1
NPOCOLLECTION
  2
AcDbImpNonPersistentObjectsCollection
  3
ObjectDBX Classes
 90
     1153
 91
        0
280
     0
281
     0
  0
CLASS
  1
EXACXREFPANELOBJECT
  2
ExAcXREFPanelObject
  3
EXAC_ESW
 90
     1025
 91
        0
280
     1
281
     0
  0
ENDSEC
  0
SECTION
  2
TABLES
  0
TABLE
  2
VPORT
  5
2B
102
{ACAD_XDICTIONARY
360
30
102
}
330
0
100
AcDbSymbolTable
 70
     1
  0
VPORT
  5
2C
330
2B
100
AcDbSymbolTableRecord
100
AcDbViewportTableRecord
  2
*Active
 70
     0
 10
0.0
 20
0.0
 11
1.0
 21
1.0
 12
217.1819325751844
 22
-325.5463027609352
 13
0.0
 23
0.0
 14
0.1
 24
0.1
 15
0.5
 25
0.5
 16
0.0
 26
0.0
 36
1.0
 17
0.0
 27
0.0
 37
0.0
 40
616.8647328425532
 41
2.311515151515151
 42
50.0
 43
0.0
 44
0.0
 50
0.0
 51
0.0
 71
     0
 72
   500
 73
     1
 74
     1
 75
     0
 76
     0
 77
     0
 78
     0
281
     0
 65
     1
110
0.0
120
0.0
130
0.0
111
1.0
121
0.0
131
0.0
112
0.0
122
1.0
132
0.0
 79
     0
146
0.0
348
2D
 60
     3
 61
     5
292
     1
282
     1
141
0.0
142
0.0
 63
   250
421
  3355443
1001
ACAD_NAV_VCDISPLAY
1070
     3
  0
ENDTAB
  0
TABLE
  2
LTYPE
  5
26
330
0
100
AcDbSymbolTable
 70
     2
  0
LTYPE
  5
27
330
26
100
AcDbSymbolTableRecord
100
AcDbLinetypeTableRecord
  2
ByBlock
 70
     0
  3

 72
    65
 73
     0
 40
0.0
  0
LTYPE
  5
28
330
26
100
AcDbSymbolTableRecord
100
AcDbLinetypeTableRecord
  2
ByLayer
 70
     0
  3

 72
    65
 73
     0
 40
0.0
  0
LTYPE
  5
16
330
26
100
AcDbSymbolTableRecord
100
AcDbLinetypeTableRecord
  2
Continuous
 70
     0
  3
Solid line
 72
    65
 73
     0
 40
0.0
  0
LTYPE
  5
16A
330
26
100
AcDbSymbolTableRecord
100
AcDbLinetypeTableRecord
  2
HIDDEN
 70
     0
  3
_ _ _ _ _ _ _ _ _ _ _ _ _ _ _ _ _ _ _ _ _ _ _
 72
    65
 73
     2
 40
0.375
 49
0.25
 74
     4
 75
     0
340
0
 46
1.0
 50
0.0
 44
0.0
 45
0.0
 49
-0.125
 74
     4
 75
     0
340
0
 46
1.0
 50
0.0
 44
0.0
 45
0.0
  0
ENDTAB
  0
TABLE
  2
LAYER
  5
20
102
{ACAD_XDICTIONARY
360
21
102
}
330
0
100
AcDbSymbolTable
 70
     5
  0
LAYER
  5
6
102
{ACAD_XDICTIONARY
360
7
102
}
330
20
100
AcDbSymbolTableRecord
100
AcDbLayerTableRecord
  2
0
 70
     0
 62
     7
  6
Continuous
370
    -3
390
9
347
C
348
0
  0
LAYER
  5
82
102
{ACAD_XDICTIONARY
360
83
102
}
330
20
100
AcDbSymbolTableRecord
100
AcDbLayerTableRecord
  2
DIM
 70
     0
 62
     7
  6
Continuous
370
    -3
390
9
347
C
348
0
  0
LAYER
  5
7D
102
{ACAD_XDICTIONARY
360
7E
102
}
330
20
100
AcDbSymbolTableRecord
100
AcDbLayerTableRecord
  2
LF-LINE
 70
     0
 62
     1
  6
Continuous
370
    -3
390
9
347
C
348
0
  0
LAYER
  5
167
102
{ACAD_XDICTIONARY
360
168
102
}
330
20
100
AcDbSymbolTableRecord
100
AcDbLayerTableRecord
  2
PKG-OUT
 70
     0
 62
     3
  6
HIDDEN
370
    -3
390
9
347
C
348
0
  0
LAYER
  5
8A
102
{ACAD_XDICTIONARY
360
8B
102
}
330
20
100
AcDbSymbolTableRecord
100
AcDbLayerTableRecord
  2
ENDCUT
 70
     0
 62
     8
  6
Continuous
370
    -3
390
9
347
C
348
0
  0
ENDTAB
  0
TABLE
  2
STYLE
  5
23
330
0
100
AcDbSymbolTable
 70
     6
  0
STYLE
  5
24
330
23
100
AcDbSymbolTableRecord
100
AcDbTextStyleTableRecord
  2
Standard
 70
     0
 40
3.0
 41
1.0
 50
0.0
 71
     0
 42
2.5
  3
SIMPLEX
  4

  0
STYLE
  5
80
330
23
100
AcDbSymbolTableRecord
100
AcDbTextStyleTableRecord
  2
SIMPLEX
 70
     0
 40
3.0
 41
1.0
 50
0.0
 71
     0
 42
2.5
  3
SIMPLEX.shx
  4

  0
STYLE
  5
3A
330
23
100
AcDbSymbolTableRecord
100
AcDbTextStyleTableRecord
  2
1倍
 70
     0
 40
2.5
 41
1.0
 50
0.0
 71
     0
 42
3.0
  3
SIMPLEX.shx
  4

  0
STYLE
  5
3E
330
23
100
AcDbSymbolTableRecord
100
AcDbTextStyleTableRecord
  2
1.2倍
 70
     0
 40
3.0
 41
1.0
 50
0.0
 71
     0
 42
2.5
  3
SIMPLEX.shx
  4

  0
STYLE
  5
3C
330
23
100
AcDbSymbolTableRecord
100
AcDbTextStyleTableRecord
  2
1.6倍
 70
     0
 40
4.0
 41
1.0
 50
0.0
 71
     0
 42
2.5
  3
SIMPLEX.shx
  4

  0
STYLE
  5
35
330
23
100
AcDbSymbolTableRecord
100
AcDbTextStyleTableRecord
  2
1.4倍
 70
     0
 40
3.5
 41
1.0
 50
0.0
 71
     0
 42
2.5
  3
SIMPLEX.shx
  4

  0
ENDTAB
  0
TABLE
  2
VIEW
  5
29
330
0
100
AcDbSymbolTable
 70
     0
  0
ENDTAB
  0
TABLE
  2
UCS
  5
2A
330
0
100
AcDbSymbolTable
 70
     0
  0
ENDTAB
  0
TABLE
  2
APPID
  5
31
330
0
100
AcDbSymbolTable
 70
     8
  0
APPID
  5
32
330
31
100
AcDbSymbolTableRecord
100
AcDbRegAppTableRecord
  2
ACAD
 70
     0
  0
APPID
  5
1B
330
31
100
AcDbSymbolTableRecord
100
AcDbRegAppTableRecord
  2
ACAD_PSEXT
 70
     0
  0
APPID
  5
2F
330
31
100
AcDbSymbolTableRecord
100
AcDbRegAppTableRecord
  2
ACAD_NAV_VCDISPLAY
 70
     0
  0
APPID
  5
37
330
31
100
AcDbSymbolTableRecord
100
AcDbRegAppTableRecord
  2
ACAD_DSTYLE_DIMJAG
 70
     0
  0
APPID
  5
38
330
31
100
AcDbSymbolTableRecord
100
AcDbRegAppTableRecord
  2
ACAD_DSTYLE_DIMTALN
 70
     0
  0
APPID
  5
8D
330
31
100
AcDbSymbolTableRecord
100
AcDbRegAppTableRecord
  2
GradientColor1ACI
 70
     0
  0
APPID
  5
8E
330
31
100
AcDbSymbolTableRecord
100
AcDbRegAppTableRecord
  2
GradientColor2ACI
 70
     0
  0
APPID
  5
36
330
31
100
AcDbSymbolTableRecord
100
AcDbRegAppTableRecord
  2
ACAD_DSTYLE_DIMBREAK
 70
     0
  0
ENDTAB
  0
TABLE
  2
DIMSTYLE
  5
33
330
0
100
AcDbSymbolTable
 70
     5
100
AcDbDimStyleTable
 71
     5
340
34
340
39
340
3B
340
3D
340
3F
  0
DIMSTYLE
105
3F
330
33
100
AcDbSymbolTableRecord
100
AcDbDimStyleTableRecord
  2
Standard
 70
     0
140
3.0
271
     8
272
     8
340
24
1001
ACAD_DSTYLE_DIMJAG
1070
   388
1040
1.5
1001
ACAD_DSTYLE_DIMTALN
1070
   392
1070
     0
  0
DIMSTYLE
105
39
330
33
100
AcDbSymbolTableRecord
100
AcDbDimStyleTableRecord
  2
倍数为1
 70
     0
 41
3.0
 42
1.0
 43
7.5
 44
1.0
 46
1.25
 73
     0
 74
     0
 77
     1
 78
     1
140
2.5
141
1.25
147
0.85
172
     1
178
   256
340
3A
1001
ACAD_DSTYLE_DIMBREAK
1070
   391
1040
0.125
1001
ACAD_DSTYLE_DIMJAG
1070
   388
1040
1.5
1001
ACAD_DSTYLE_DIMTALN
1070
   392
1070
     0
  0
DIMSTYLE
105
3D
330
33
100
AcDbSymbolTableRecord
100
AcDbDimStyleTableRecord
  2
倍数为1.2
 70
     0
 41
3.0
 42
1.199999999999999
 43
7.5
 44
1.199999999999999
 46
1.25
 73
     0
 74
     0
 77
     1
 78
     1
140
3.0
141
1.25
147
1.02
172
     1
178
   256
340
3E
1001
ACAD_DSTYLE_DIMBREAK
1070
   391
1040
0.125
1001
ACAD_DSTYLE_DIMJAG
1070
   388
1040
1.5
1001
ACAD_DSTYLE_DIMTALN
1070
   392
1070
     0
  0
DIMSTYLE
105
3B
330
33
100
AcDbSymbolTableRecord
100
AcDbDimStyleTableRecord
  2
倍数为1.6
 70
     0
 41
4.799999999999999
 42
1.6
 43
7.5
 44
1.6
 46
1.25
 73
     0
 74
     0
 77
     1
 78
     1
140
4.0
141
1.25
147
1.4025
172
     1
178
   256
340
3C
1001
ACAD_DSTYLE_DIMBREAK
1070
   391
1040
0.125
1001
ACAD_DSTYLE_DIMJAG
1070
   388
1040
1.5
1001
ACAD_DSTYLE_DIMTALN
1070
   392
1070
     0
  0
DIMSTYLE
105
34
330
33
100
AcDbSymbolTableRecord
100
AcDbDimStyleTableRecord
  2
倍数为1.4
 70
     0
 41
4.2
 42
1.399999999999999
 43
7.5
 44
1.399999999999999
 46
1.25
 73
     0
 74
     0
 77
     1
 78
     1
140
3.5
141
1.25
147
1.189999999999999
172
     1
178
   256
340
35
1001
ACAD_DSTYLE_DIMBREAK
1070
   391
1040
0.125
1001
ACAD_DSTYLE_DIMJAG
1070
   388
1040
1.5
1001
ACAD_DSTYLE_DIMTALN
1070
   392
1070
     0
  0
ENDTAB
  0
TABLE
  2
BLOCK_RECORD
  5
1
330
0
100
AcDbSymbolTable
 70
     0
  0
BLOCK_RECORD
  5
2
102
{ACAD_XDICTIONARY
360
3
102
}
330
1
100
AcDbSymbolTableRecord
100
AcDbBlockTableRecord
  2
*Model_Space
340
18
 70
     0
280
     1
281
     0
  0
BLOCK_RECORD
  5
1C
330
1
100
AcDbSymbolTableRecord
100
AcDbBlockTableRecord
  2
*Paper_Space
340
1F
 70
     0
280
     1
281
     0
  0
ENDTAB
  0
ENDSEC
  0
SECTION
  2
BLOCKS
  0
BLOCK
  5
5
330
2
100
AcDbEntity
  8
0
100
AcDbBlockBegin
  2
*Model_Space
 70
     0
 10
0.0
 20
0.0
 30
0.0
  3
*Model_Space
  1

  0
ENDBLK
  5
17
330
2
100
AcDbEntity
  8
0
100
AcDbBlockEnd
  0
BLOCK
  5
1D
330
1C
100
AcDbEntity
 67
     1
  8
0
100
AcDbBlockBegin
  2
*Paper_Space
 70
     0
 10
0.0
 20
0.0
 30
0.0
  3
*Paper_Space
  1

  0
ENDBLK
  5
1E
330
1C
100
AcDbEntity
 67
     1
  8
0
100
AcDbBlockEnd
  0
ENDSEC
  0
SECTION
  2
ENTITIES
  0
MTEXT
  5
7C
330
2
100
AcDbEntity
  8
LF-LINE
100
AcDbMText
 10
202.6032675358029
 20
-465.1172773686976
 30
0.0
 40
4.19998644920873
 41
0.0
 46
0.0
 71
     5
 72
     1
  1
{\LDETAIL `A'}
  7
SIMPLEX
 73
     1
 44
1.0
  0
MTEXT
  5
81
330
2
100
AcDbEntity
  8
DIM
100
AcDbMText
 10
304.3805724215969
 20
-357.9575772980293
 30
0.0
 40
3.500000000000015
 41
0.0
 46
0.0
 71
     3
 72
     1
  1
FULL COPPER FOR ENDCUT
  7
SIMPLEX
 73
     1
 44
1.0
  0
LINE
  5
85
330
2
100
AcDbEntity
  8
DIM
100
AcDbLine
 10
205.9145303033456
 20
-394.6560551322106
 30
0.0
 11
221.1251375495848
 21
-359.8515273740551
 31
0.0
  0
LINE
  5
86
330
2
100
AcDbEntity
  8
DIM
100
AcDbLine
 10
221.2149364745187
 20
-359.7927721581763
 30
0.0
 11
229.5243784373815
 21
-359.7927721581763
 31
0.0
  0
SOLID
  5
87
330
2
100
AcDbEntity
  8
DIM
100
AcDbTrace
 10
204.0647281704869
 20
-398.4267622368889
 30
0.0
 11
206.5429814874588
 21
-394.9643554876871
 31
0.0
 12
205.2860791192326
 22
-394.3477547767342
 32
0.0
 13
205.2860791192326
 23
-394.3477547767342
 33
0.0
  0
HATCH
  5
89
330
2
100
AcDbEntity
  8
ENDCUT
100
AcDbHatch
 10
0.0
 20
0.0
 30
0.0
210
0.0
220
0.0
230
1.0
  2
ANSI31
 70
     0
 71
     0
 91
        6
 92
        7
 72
     1
 73
     1
 93
        4
 10
171.4760987626282
 20
-261.3713237194282
 42
-0.2087121525212412
 10
170.4760987626312
 20
-261.3713237194261
 42
0.0
 10
170.4760987626312
 20
-264.5800358719461
 42
-0.2087121525212412
 10
171.4760987626282
 20
-264.5800358719439
 42
0.0
 97
        0
 92
        7
 72
     1
 73
     1
 93
        4
 10
171.4760987626282
 20
-277.6213237194273
 42
-0.2087121525212412
 10
170.4760987626312
 20
-277.6213237194252
 42
0.0
 10
170.4760987626312
 20
-280.8300358719456
 42
-0.2087121525212412
 10
171.4760987626282
 20
-280.8300358719435
 42
0.0
 97
        0
 92
        7
 72
     1
 73
     1
 93
       10
 10
171.4760987626282
 20
-293.8713237194282
 42
-0.2087121525212412
 10
170.4760987626312
 20
-293.871323719426
 42
0.0
 10
170.4760987626312
 20
-297.8506797956868
 42
0.0
 10
169.4760987626312
 20
-298.850679795686
 42
0.0
 10
170.4660482562928
 20
-298.850679795686
 42
0.0
 10
170.9053880845111
 20
-298.4113399674681
 42
-0.414213562372554
 10
171.0468094407483
 20
-298.411339967468
 42
0.0
 10
171.4861492689676
 20
-298.8506797956861
 42
0.0
 10
172.4760987626301
 20
-298.8506797956861
 42
0.0
 10
171.4760987626282
 20
-297.8506797956868
 42
0.0
 97
        0
 92
        7
 72
     1
 73
     1
 93
       10
 10
172.4760987626301
 20
-298.8506797956861
 42
0.0
 10
171.4861492689676
 20
-298.8506797956861
 42
0.0
 10
171.0468094407483
 20
-298.411339967468
 42
0.4142135623725674
 10
170.9053880845111
 20
-298.4113399674681
 42
0.0
 10
170.4660482562928
 20
-298.850679795686
 42
0.0
 10
169.4760987626312
 20
-298.850679795686
 42
0.0
 10
169.095596237314
 20
-299.2311823210029
 42
0.6681786379194247
 10
169.145093711997
 20
-299.350679795686
 42
0.0
 10
172.8071038132649
 20
-299.350679795686
 42
0.668178637919747
 10
172.8566012879479
 20
-299.2311823210028
 42
0.0
 97
        0
 92
        7
 72
     1
 73
     1
 93
       10
 10
171.4760987626282
 20
-244.3506797956851
 42
0.0
 10
172.47609876263
 20
-243.350679795686
 42
0.0
 10
171.4861492689675
 20
-243.350679795686
 42
0.0
 10
171.0468094407483
 20
-243.790019623904
 42
-0.4142135623725556
 10
170.9053880845111
 20
-243.790019623904
 42
0.0
 10
170.4660482562928
 20
-243.350679795686
 42
0.0
 10
169.4760987626313
 20
-243.350679795686
 42
0.0
 10
170.4760987626312
 20
-244.3506797956851
 42
0.0
 10
170.4760987626312
 20
-248.3300358719465
 42
-0.2087121525212412
 10
171.4760987626282
 20
-248.3300358719444
 42
0.0
 97
        0
 92
        7
 72
     1
 73
     1
 93
       10
 10
172.8566012879479
 20
-242.9701772703692
 42
0.6681786379197838
 10
172.8071038132649
 20
-242.8506797956861
 42
0.0
 10
169.145093711997
 20
-242.850679795686
 42
0.6681786379194494
 10
169.095596237314
 20
-242.9701772703691
 42
0.0
 10
169.4760987626313
 20
-243.350679795686
 42
0.0
 10
170.4660482562928
 20
-243.350679795686
 42
0.0
 10
170.9053880845111
 20
-243.790019623904
 42
0.4142135623725551
 10
171.0468094407483
 20
-243.790019623904
 42
0.0
 10
171.4861492689675
 20
-243.350679795686
 42
0.0
 10
172.47609876263
 20
-243.350679795686
 42
0.0
 97
        0
 75
     1
 76
     1
 52
0.0
 41
1.0
 77
     0
 78
     1
 53
45.0
 43
170.8885942015945
 44
-262.8337910633922
 45
-0.0883883476483184
 46
0.0883883476483185
 79
     0
 47
0.0257380147396708
 98
        6
 10
170.8885942015945
 20
-262.8337910633922
 10
171.1535983338303
 20
-278.9817642737418
 10
171.1115130835105
 20
-296.2633576746597
 10
170.7252183874843
 20
-299.0945394905017
 10
170.9495633568244
 20
-246.0301243743865
 10
171.1072400449998
 20
-243.2286070728882
1001
GradientColor1ACI
1070
     5
1001
GradientColor2ACI
1070
     2
1001
ACAD
1010
0.0
1020
0.0
1030
0.0
  0
LINE
  5
8F
330
2
100
AcDbEntity
  8
ENDCUT
100
AcDbLine
 10
171.4760987626282
 20
-261.3713237194242
 30
0.0
 11
171.4760987626282
 21
-264.580035871947
 31
0.0
  0
LINE
  5
90
330
2
100
AcDbEntity
  8
ENDCUT
100
AcDbLine
 10
171.4760987626282
 20
-277.6213237194251
 30
0.0
 11
171.4760987626282
 21
-280.8300358719461
 31
0.0
  0
CIRCLE
  5
91
330
2
100
AcDbEntity
  8
0
100
AcDbCircle
 10
185.3760987626296
 20
-244.8506797956861
 30
0.0
 40
0.7500000000000001
  0
CIRCLE
  5
92
330
2
100
AcDbEntity
  8
0
100
AcDbCircle
 10
185.3760987626296
 20
-297.3506797956861
 30
0.0
 40
0.7500000000000001
  0
CIRCLE
  5
93
330
2
100
AcDbEntity
  8
0
100
AcDbCircle
 10
182.3760987626297
 20
-297.3506797956861
 30
0.0
 40
0.7500000000000001
  0
CIRCLE
  5
94
330
2
100
AcDbEntity
  8
0
100
AcDbCircle
 10
187.8760987626297
 20
-297.3506797956861
 30
0.0
 40
0.7500000000000001
  0
CIRCLE
  5
95
330
2
100
AcDbEntity
  8
0
100
AcDbCircle
 10
174.1260987626315
 20
-244.8506797956861
 30
0.0
 40
0.7500000000000001
  0
CIRCLE
  5
96
330
2
100
AcDbEntity
  8
0
100
AcDbCircle
 10
174.1260987626315
 20
-244.8506797956861
 30
0.0
 40
0.7500000000000001
  0
CIRCLE
  5
97
330
2
100
AcDbEntity
  8
0
100
AcDbCircle
 10
193.6760987626289
 20
-244.8506797956861
 30
0.0
 40
0.7500000000000001
  0
CIRCLE
  5
98
330
2
100
AcDbEntity
  8
0
100
AcDbCircle
 10
214.1760987626271
 20
-244.8506797956861
 30
0.0
 40
0.7500000000000001
  0
CIRCLE
  5
99
330
2
100
AcDbEntity
  8
0
100
AcDbCircle
 10
214.1760987626271
 20
-297.3506797956861
 30
0.0
 40
0.7500000000000001
  0
CIRCLE
  5
9A
330
2
100
AcDbEntity
  8
0
100
AcDbCircle
 10
211.1760987626308
 20
-297.3506797956861
 30
0.0
 40
0.7500000000000001
  0
CIRCLE
  5
9B
330
2
100
AcDbEntity
  8
0
100
AcDbCircle
 10
216.6760987626271
 20
-297.3506797956861
 30
0.0
 40
0.7500000000000001
  0
CIRCLE
  5
9C
330
2
100
AcDbEntity
  8
0
100
AcDbCircle
 10
202.9260987626253
 20
-244.8506797956861
 30
0.0
 40
0.7500000000000001
  0
CIRCLE
  5
9D
330
2
100
AcDbEntity
  8
0
100
AcDbCircle
 10
202.9260987626253
 20
-244.8506797956861
 30
0.0
 40
0.7500000000000001
  0
CIRCLE
  5
9E
330
2
100
AcDbEntity
  8
0
100
AcDbCircle
 10
222.4760987626301
 20
-244.8506797956861
 30
0.0
 40
0.7500000000000001
  0
CIRCLE
  5
9F
330
2
100
AcDbEntity
  8
0
100
AcDbCircle
 10
242.9760987626282
 20
-244.8506797956861
 30
0.0
 40
0.7500000000000001
  0
CIRCLE
  5
A0
330
2
100
AcDbEntity
  8
0
100
AcDbCircle
 10
242.9760987626282
 20
-297.3506797956861
 30
0.0
 40
0.7500000000000001
  0
CIRCLE
  5
A1
330
2
100
AcDbEntity
  8
0
100
AcDbCircle
 10
239.9760987626319
 20
-297.3506797956861
 30
0.0
 40
0.7500000000000001
  0
CIRCLE
  5
A2
330
2
100
AcDbEntity
  8
0
100
AcDbCircle
 10
245.4760987626282
 20
-297.3506797956861
 30
0.0
 40
0.7500000000000001
  0
CIRCLE
  5
A3
330
2
100
AcDbEntity
  8
0
100
AcDbCircle
 10
231.7260987626264
 20
-244.8506797956861
 30
0.0
 40
0.7500000000000001
  0
CIRCLE
  5
A4
330
2
100
AcDbEntity
  8
0
100
AcDbCircle
 10
231.7260987626264
 20
-244.8506797956861
 30
0.0
 40
0.7500000000000001
  0
CIRCLE
  5
A5
330
2
100
AcDbEntity
  8
0
100
AcDbCircle
 10
251.2760987626275
 20
-244.8506797956861
 30
0.0
 40
0.7500000000000001
  0
CIRCLE
  5
A6
330
2
100
AcDbEntity
  8
0
100
AcDbCircle
 10
271.7760987626293
 20
-244.8506797956861
 30
0.0
 40
0.7500000000000001
  0
CIRCLE
  5
A7
330
2
100
AcDbEntity
  8
0
100
AcDbCircle
 10
271.7760987626293
 20
-297.3506797956861
 30
0.0
 40
0.7500000000000001
  0
CIRCLE
  5
A8
330
2
100
AcDbEntity
  8
0
100
AcDbCircle
 10
268.7760987626257
 20
-297.3506797956861
 30
0.0
 40
0.7500000000000001
  0
CIRCLE
  5
A9
330
2
100
AcDbEntity
  8
0
100
AcDbCircle
 10
274.2760987626275
 20
-297.3506797956861
 30
0.0
 40
0.7500000000000001
  0
CIRCLE
  5
AA
330
2
100
AcDbEntity
  8
0
100
AcDbCircle
 10
260.5260987626275
 20
-244.8506797956861
 30
0.0
 40
0.7500000000000001
  0
CIRCLE
  5
AB
330
2
100
AcDbEntity
  8
0
100
AcDbCircle
 10
260.5260987626275
 20
-244.8506797956861
 30
0.0
 40
0.7500000000000001
  0
CIRCLE
  5
AC
330
2
100
AcDbEntity
  8
0
100
AcDbCircle
 10
280.0760987626286
 20
-244.8506797956861
 30
0.0
 40
0.7500000000000001
  0
CIRCLE
  5
AD
330
2
100
AcDbEntity
  8
0
100
AcDbCircle
 10
300.5760987626304
 20
-244.8506797956861
 30
0.0
 40
0.7500000000000001
  0
CIRCLE
  5
AE
330
2
100
AcDbEntity
  8
0
100
AcDbCircle
 10
300.5760987626304
 20
-297.3506797956861
 30
0.0
 40
0.7500000000000001
  0
CIRCLE
  5
AF
330
2
100
AcDbEntity
  8
0
100
AcDbCircle
 10
297.5760987626268
 20
-297.3506797956861
 30
0.0
 40
0.7500000000000001
  0
CIRCLE
  5
B0
330
2
100
AcDbEntity
  8
0
100
AcDbCircle
 10
303.0760987626286
 20
-297.3506797956861
 30
0.0
 40
0.7500000000000001
  0
CIRCLE
  5
B1
330
2
100
AcDbEntity
  8
0
100
AcDbCircle
 10
289.3260987626286
 20
-244.8506797956861
 30
0.0
 40
0.7500000000000001
  0
CIRCLE
  5
B2
330
2
100
AcDbEntity
  8
0
100
AcDbCircle
 10
289.3260987626286
 20
-244.8506797956861
 30
0.0
 40
0.7500000000000001
  0
CIRCLE
  5
B3
330
2
100
AcDbEntity
  8
0
100
AcDbCircle
 10
308.8760987626279
 20
-244.8506797956861
 30
0.0
 40
0.7500000000000001
  0
CIRCLE
  5
B4
330
2
100
AcDbEntity
  8
0
100
AcDbCircle
 10
329.3760987626261
 20
-244.8506797956861
 30
0.0
 40
0.7500000000000001
  0
CIRCLE
  5
B5
330
2
100
AcDbEntity
  8
0
100
AcDbCircle
 10
329.3760987626261
 20
-297.3506797956861
 30
0.0
 40
0.7500000000000001
  0
CIRCLE
  5
B6
330
2
100
AcDbEntity
  8
0
100
AcDbCircle
 10
326.3760987626278
 20
-297.3506797956861
 30
0.0
 40
0.7500000000000001
  0
CIRCLE
  5
B7
330
2
100
AcDbEntity
  8
0
100
AcDbCircle
 10
331.8760987626297
 20
-297.3506797956861
 30
0.0
 40
0.7500000000000001
  0
CIRCLE
  5
B8
330
2
100
AcDbEntity
  8
0
100
AcDbCircle
 10
318.1260987626278
 20
-244.8506797956861
 30
0.0
 40
0.7500000000000001
  0
CIRCLE
  5
B9
330
2
100
AcDbEntity
  8
0
100
AcDbCircle
 10
318.1260987626278
 20
-244.8506797956861
 30
0.0
 40
0.7500000000000001
  0
CIRCLE
  5
BA
330
2
100
AcDbEntity
  8
0
100
AcDbCircle
 10
337.676098762629
 20
-244.8506797956861
 30
0.0
 40
0.7500000000000001
  0
CIRCLE
  5
BB
330
2
100
AcDbEntity
  8
0
100
AcDbCircle
 10
358.1760987626271
 20
-244.8506797956861
 30
0.0
 40
0.7500000000000001
  0
CIRCLE
  5
BC
330
2
100
AcDbEntity
  8
0
100
AcDbCircle
 10
358.1760987626271
 20
-297.3506797956861
 30
0.0
 40
0.7500000000000001
  0
CIRCLE
  5
BD
330
2
100
AcDbEntity
  8
0
100
AcDbCircle
 10
355.1760987626289
 20
-297.3506797956861
 30
0.0
 40
0.7500000000000001
  0
CIRCLE
  5
BE
330
2
100
AcDbEntity
  8
0
100
AcDbCircle
 10
360.6760987626308
 20
-297.3506797956861
 30
0.0
 40
0.7500000000000001
  0
CIRCLE
  5
BF
330
2
100
AcDbEntity
  8
0
100
AcDbCircle
 10
346.9260987626289
 20
-244.8506797956861
 30
0.0
 40
0.7500000000000001
  0
CIRCLE
  5
C0
330
2
100
AcDbEntity
  8
0
100
AcDbCircle
 10
346.9260987626289
 20
-244.8506797956861
 30
0.0
 40
0.7500000000000001
  0
CIRCLE
  5
C1
330
2
100
AcDbEntity
  8
0
100
AcDbCircle
 10
366.47609876263
 20
-244.8506797956861
 30
0.0
 40
0.7500000000000001
  0
CIRCLE
  5
C2
330
2
100
AcDbEntity
  8
0
100
AcDbCircle
 10
386.9760987626282
 20
-244.8506797956861
 30
0.0
 40
0.7500000000000001
  0
CIRCLE
  5
C3
330
2
100
AcDbEntity
  8
0
100
AcDbCircle
 10
386.9760987626282
 20
-297.3506797956861
 30
0.0
 40
0.7500000000000001
  0
CIRCLE
  5
C4
330
2
100
AcDbEntity
  8
0
100
AcDbCircle
 10
383.9760987626282
 20
-297.3506797956861
 30
0.0
 40
0.7500000000000001
  0
CIRCLE
  5
C5
330
2
100
AcDbEntity
  8
0
100
AcDbCircle
 10
389.4760987626319
 20
-297.3506797956861
 30
0.0
 40
0.7500000000000001
  0
CIRCLE
  5
C6
330
2
100
AcDbEntity
  8
0
100
AcDbCircle
 10
375.7260987626264
 20
-244.8506797956861
 30
0.0
 40
0.7500000000000001
  0
CIRCLE
  5
C7
330
2
100
AcDbEntity
  8
0
100
AcDbCircle
 10
375.7260987626264
 20
-244.8506797956861
 30
0.0
 40
0.7500000000000001
  0
CIRCLE
  5
C8
330
2
100
AcDbEntity
  8
0
100
AcDbCircle
 10
395.2760987626311
 20
-244.8506797956861
 30
0.0
 40
0.7500000000000001
  0
LWPOLYLINE
  5
C9
330
2
100
AcDbEntity
  8
0
100
AcDbPolyline
 90
        4
 70
     1
 43
0.0
 10
400.1260987626296
 20
-249.4756797956861
 42
-0.9999999999999998
 10
402.6260987626314
 20
-249.4756797956861
 10
402.6260987626314
 20
-260.2256797956865
 42
-0.9999999999999998
 10
400.1260987626296
 20
-260.2256797956865
  0
LWPOLYLINE
  5
CA
330
2
100
AcDbEntity
  8
0
100
AcDbPolyline
 90
        4
 70
     1
 43
0.0
 10
400.1260987626296
 20
-265.7256797956856
 42
-0.9999999999999998
 10
402.6260987626314
 20
-265.7256797956856
 10
402.6260987626314
 20
-276.4756797956856
 42
-0.9999999999999998
 10
400.1260987626296
 20
-276.4756797956856
  0
LWPOLYLINE
  5
CB
330
2
100
AcDbEntity
  8
0
100
AcDbPolyline
 90
        4
 70
     1
 43
0.0
 10
400.1260987626296
 20
-281.9756797956852
 42
-0.9999999999999998
 10
402.6260987626314
 20
-281.9756797956852
 10
402.6260987626314
 20
-292.7256797956865
 42
-0.9999999999999998
 10
400.1260987626296
 20
-292.7256797956865
  0
CIRCLE
  5
CC
330
2
100
AcDbEntity
  8
0
100
AcDbCircle
 10
415.7760987626281
 20
-244.8506797956861
 30
0.0
 40
0.7500000000000001
  0
CIRCLE
  5
CD
330
2
100
AcDbEntity
  8
0
100
AcDbCircle
 10
415.7760987626281
 20
-297.3506797956861
 30
0.0
 40
0.7500000000000001
  0
CIRCLE
  5
CE
330
2
100
AcDbEntity
  8
0
100
AcDbCircle
 10
412.7760987626281
 20
-297.3506797956861
 30
0.0
 40
0.7500000000000001
  0
CIRCLE
  5
CF
330
2
100
AcDbEntity
  8
0
100
AcDbCircle
 10
418.2760987626282
 20
-297.3506797956861
 30
0.0
 40
0.7500000000000001
  0
CIRCLE
  5
D0
330
2
100
AcDbEntity
  8
0
100
AcDbCircle
 10
404.5260987626299
 20
-244.8506797956861
 30
0.0
 40
0.7500000000000001
  0
CIRCLE
  5
D1
330
2
100
AcDbEntity
  8
0
100
AcDbCircle
 10
404.5260987626299
 20
-244.8506797956861
 30
0.0
 40
0.7500000000000001
  0
CIRCLE
  5
D2
330
2
100
AcDbEntity
  8
0
100
AcDbCircle
 10
424.0760987626274
 20
-244.8506797956861
 30
0.0
 40
0.7500000000000001
  0
CIRCLE
  5
D3
330
2
100
AcDbEntity
  8
0
100
AcDbCircle
 10
444.5760987626256
 20
-244.8506797956861
 30
0.0
 40
0.7500000000000001
  0
CIRCLE
  5
D4
330
2
100
AcDbEntity
  8
0
100
AcDbCircle
 10
444.5760987626256
 20
-297.3506797956861
 30
0.0
 40
0.7500000000000001
  0
CIRCLE
  5
D5
330
2
100
AcDbEntity
  8
0
100
AcDbCircle
 10
441.5760987626292
 20
-297.3506797956861
 30
0.0
 40
0.7500000000000001
  0
CIRCLE
  5
D6
330
2
100
AcDbEntity
  8
0
100
AcDbCircle
 10
447.0760987626256
 20
-297.3506797956861
 30
0.0
 40
0.7500000000000001
  0
CIRCLE
  5
D7
330
2
100
AcDbEntity
  8
0
100
AcDbCircle
 10
433.3260987626238
 20
-244.8506797956861
 30
0.0
 40
0.7500000000000001
  0
CIRCLE
  5
D8
330
2
100
AcDbEntity
  8
0
100
AcDbCircle
 10
433.3260987626238
 20
-244.8506797956861
 30
0.0
 40
0.7500000000000001
  0
CIRCLE
  5
D9
330
2
100
AcDbEntity
  8
0
100
AcDbCircle
 10
452.8760987626285
 20
-244.8506797956861
 30
0.0
 40
0.7500000000000001
  0
CIRCLE
  5
DA
330
2
100
AcDbEntity
  8
0
100
AcDbCircle
 10
473.3760987626267
 20
-244.8506797956861
 30
0.0
 40
0.7500000000000001
  0
CIRCLE
  5
DB
330
2
100
AcDbEntity
  8
0
100
AcDbCircle
 10
473.3760987626267
 20
-297.3506797956861
 30
0.0
 40
0.7500000000000001
  0
CIRCLE
  5
DC
330
2
100
AcDbEntity
  8
0
100
AcDbCircle
 10
470.3760987626303
 20
-297.3506797956861
 30
0.0
 40
0.7500000000000001
  0
CIRCLE
  5
DD
330
2
100
AcDbEntity
  8
0
100
AcDbCircle
 10
475.8760987626267
 20
-297.3506797956861
 30
0.0
 40
0.7500000000000001
  0
CIRCLE
  5
DE
330
2
100
AcDbEntity
  8
0
100
AcDbCircle
 10
462.1260987626249
 20
-244.8506797956861
 30
0.0
 40
0.7500000000000001
  0
CIRCLE
  5
DF
330
2
100
AcDbEntity
  8
0
100
AcDbCircle
 10
462.1260987626249
 20
-244.8506797956861
 30
0.0
 40
0.7500000000000001
  0
CIRCLE
  5
E0
330
2
100
AcDbEntity
  8
0
100
AcDbCircle
 10
481.676098762626
 20
-244.8506797956861
 30
0.0
 40
0.7500000000000001
  0
CIRCLE
  5
E1
330
2
100
AcDbEntity
  8
0
100
AcDbCircle
 10
502.1760987626278
 20
-244.8506797956861
 30
0.0
 40
0.7500000000000001
  0
CIRCLE
  5
E2
330
2
100
AcDbEntity
  8
0
100
AcDbCircle
 10
502.1760987626278
 20
-297.3506797956861
 30
0.0
 40
0.7500000000000001
  0
CIRCLE
  5
E3
330
2
100
AcDbEntity
  8
0
100
AcDbCircle
 10
499.1760987626242
 20
-297.3506797956861
 30
0.0
 40
0.7500000000000001
  0
CIRCLE
  5
E4
330
2
100
AcDbEntity
  8
0
100
AcDbCircle
 10
504.6760987626259
 20
-297.3506797956861
 30
0.0
 40
0.7500000000000001
  0
CIRCLE
  5
E5
330
2
100
AcDbEntity
  8
0
100
AcDbCircle
 10
490.926098762626
 20
-244.8506797956861
 30
0.0
 40
0.7500000000000001
  0
CIRCLE
  5
E6
330
2
100
AcDbEntity
  8
0
100
AcDbCircle
 10
490.926098762626
 20
-244.8506797956861
 30
0.0
 40
0.7500000000000001
  0
CIRCLE
  5
E7
330
2
100
AcDbEntity
  8
0
100
AcDbCircle
 10
510.4760987626271
 20
-244.8506797956861
 30
0.0
 40
0.7500000000000001
  0
CIRCLE
  5
E8
330
2
100
AcDbEntity
  8
0
100
AcDbCircle
 10
530.9760987626289
 20
-244.8506797956861
 30
0.0
 40
0.7500000000000001
  0
CIRCLE
  5
E9
330
2
100
AcDbEntity
  8
0
100
AcDbCircle
 10
530.9760987626289
 20
-297.3506797956861
 30
0.0
 40
0.7500000000000001
  0
CIRCLE
  5
EA
330
2
100
AcDbEntity
  8
0
100
AcDbCircle
 10
527.9760987626253
 20
-297.3506797956861
 30
0.0
 40
0.7500000000000001
  0
CIRCLE
  5
EB
330
2
100
AcDbEntity
  8
0
100
AcDbCircle
 10
533.476098762627
 20
-297.3506797956861
 30
0.0
 40
0.7500000000000001
  0
CIRCLE
  5
EC
330
2
100
AcDbEntity
  8
0
100
AcDbCircle
 10
519.7260987626271
 20
-244.8506797956861
 30
0.0
 40
0.7500000000000001
  0
CIRCLE
  5
ED
330
2
100
AcDbEntity
  8
0
100
AcDbCircle
 10
519.7260987626271
 20
-244.8506797956861
 30
0.0
 40
0.7500000000000001
  0
CIRCLE
  5
EE
330
2
100
AcDbEntity
  8
0
100
AcDbCircle
 10
539.2760987626263
 20
-244.8506797956861
 30
0.0
 40
0.7500000000000001
  0
CIRCLE
  5
EF
330
2
100
AcDbEntity
  8
0
100
AcDbCircle
 10
559.7760987626245
 20
-244.8506797956861
 30
0.0
 40
0.7500000000000001
  0
CIRCLE
  5
F0
330
2
100
AcDbEntity
  8
0
100
AcDbCircle
 10
559.7760987626245
 20
-297.3506797956861
 30
0.0
 40
0.7500000000000001
  0
CIRCLE
  5
F1
330
2
100
AcDbEntity
  8
0
100
AcDbCircle
 10
556.7760987626264
 20
-297.3506797956861
 30
0.0
 40
0.7500000000000001
  0
CIRCLE
  5
F2
330
2
100
AcDbEntity
  8
0
100
AcDbCircle
 10
562.2760987626281
 20
-297.3506797956861
 30
0.0
 40
0.7500000000000001
  0
CIRCLE
  5
F3
330
2
100
AcDbEntity
  8
0
100
AcDbCircle
 10
548.5260987626263
 20
-244.8506797956861
 30
0.0
 40
0.7500000000000001
  0
CIRCLE
  5
F4
330
2
100
AcDbEntity
  8
0
100
AcDbCircle
 10
548.5260987626263
 20
-244.8506797956861
 30
0.0
 40
0.7500000000000001
  0
CIRCLE
  5
F5
330
2
100
AcDbEntity
  8
0
100
AcDbCircle
 10
568.0760987626274
 20
-244.8506797956861
 30
0.0
 40
0.7500000000000001
  0
CIRCLE
  5
F6
330
2
100
AcDbEntity
  8
0
100
AcDbCircle
 10
588.5760987626256
 20
-244.8506797956861
 30
0.0
 40
0.7500000000000001
  0
CIRCLE
  5
F7
330
2
100
AcDbEntity
  8
0
100
AcDbCircle
 10
588.5760987626256
 20
-297.3506797956861
 30
0.0
 40
0.7500000000000001
  0
CIRCLE
  5
F8
330
2
100
AcDbEntity
  8
0
100
AcDbCircle
 10
585.5760987626275
 20
-297.3506797956861
 30
0.0
 40
0.7500000000000001
  0
CIRCLE
  5
F9
330
2
100
AcDbEntity
  8
0
100
AcDbCircle
 10
591.0760987626292
 20
-297.3506797956861
 30
0.0
 40
0.7500000000000001
  0
CIRCLE
  5
FA
330
2
100
AcDbEntity
  8
0
100
AcDbCircle
 10
577.3260987626274
 20
-244.8506797956861
 30
0.0
 40
0.7500000000000001
  0
CIRCLE
  5
FB
330
2
100
AcDbEntity
  8
0
100
AcDbCircle
 10
577.3260987626274
 20
-244.8506797956861
 30
0.0
 40
0.7500000000000001
  0
CIRCLE
  5
FC
330
2
100
AcDbEntity
  8
0
100
AcDbCircle
 10
596.8760987626285
 20
-244.8506797956861
 30
0.0
 40
0.7500000000000001
  0
CIRCLE
  5
FD
330
2
100
AcDbEntity
  8
0
100
AcDbCircle
 10
617.3760987626267
 20
-244.8506797956861
 30
0.0
 40
0.7500000000000001
  0
CIRCLE
  5
FE
330
2
100
AcDbEntity
  8
0
100
AcDbCircle
 10
617.3760987626267
 20
-297.3506797956861
 30
0.0
 40
0.7500000000000001
  0
CIRCLE
  5
FF
330
2
100
AcDbEntity
  8
0
100
AcDbCircle
 10
614.3760987626267
 20
-297.3506797956861
 30
0.0
 40
0.7500000000000001
  0
CIRCLE
  5
100
330
2
100
AcDbEntity
  8
0
100
AcDbCircle
 10
619.8760987626303
 20
-297.3506797956861
 30
0.0
 40
0.7500000000000001
  0
CIRCLE
  5
101
330
2
100
AcDbEntity
  8
0
100
AcDbCircle
 10
606.1260987626249
 20
-244.8506797956861
 30
0.0
 40
0.7500000000000001
  0
CIRCLE
  5
102
330
2
100
AcDbEntity
  8
0
100
AcDbCircle
 10
606.1260987626249
 20
-244.8506797956861
 30
0.0
 40
0.7500000000000001
  0
CIRCLE
  5
103
330
2
100
AcDbEntity
  8
0
100
AcDbCircle
 10
625.6760987626296
 20
-244.8506797956861
 30
0.0
 40
0.7500000000000001
  0
LWPOLYLINE
  5
104
330
2
100
AcDbEntity
  8
0
100
AcDbPolyline
 90
        4
 70
     1
 43
0.0
 10
630.5260987626281
 20
-249.4756797956861
 42
-0.9999999999999998
 10
633.0260987626299
 20
-249.4756797956861
 10
633.0260987626299
 20
-260.2256797956865
 42
-0.9999999999999998
 10
630.5260987626281
 20
-260.2256797956865
  0
LWPOLYLINE
  5
105
330
2
100
AcDbEntity
  8
0
100
AcDbPolyline
 90
        4
 70
     1
 43
0.0
 10
630.5260987626281
 20
-265.7256797956856
 42
-0.9999999999999998
 10
633.0260987626299
 20
-265.7256797956856
 10
633.0260987626299
 20
-276.4756797956856
 42
-0.9999999999999998
 10
630.5260987626281
 20
-276.4756797956856
  0
LWPOLYLINE
  5
106
330
2
100
AcDbEntity
  8
0
100
AcDbPolyline
 90
        4
 70
     1
 43
0.0
 10
630.5260987626281
 20
-281.9756797956852
 42
-0.9999999999999998
 10
633.0260987626299
 20
-281.9756797956852
 10
633.0260987626299
 20
-292.7256797956865
 42
-0.9999999999999998
 10
630.5260987626281
 20
-292.7256797956865
  0
LWPOLYLINE
  5
107
330
2
100
AcDbEntity
  8
0
100
AcDbPolyline
 90
        4
 70
     1
 43
0.0
 10
169.7260987626312
 20
-249.475679795686
 42
-0.9999999999999998
 10
172.226098762633
 20
-249.475679795686
 10
172.226098762633
 20
-260.2256797956865
 42
-0.9999999999999998
 10
169.7260987626312
 20
-260.2256797956865
  0
LWPOLYLINE
  5
108
330
2
100
AcDbEntity
  8
0
100
AcDbPolyline
 90
        4
 70
     1
 43
0.0
 10
169.7260987626312
 20
-265.7256797956856
 42
-0.9999999999999998
 10
172.226098762633
 20
-265.7256797956856
 10
172.226098762633
 20
-276.4756797956856
 42
-0.9999999999999998
 10
169.7260987626312
 20
-276.4756797956856
  0
LWPOLYLINE
  5
109
330
2
100
AcDbEntity
  8
0
100
AcDbPolyline
 90
        4
 70
     1
 43
0.0
 10
169.7260987626312
 20
-281.9756797956852
 42
-0.9999999999999998
 10
172.226098762633
 20
-281.9756797956852
 10
172.226098762633
 20
-292.7256797956865
 42
-0.9999999999999998
 10
169.7260987626312
 20
-292.7256797956865
  0
CIRCLE
  5
10A
330
2
100
AcDbEntity
  8
0
100
AcDbCircle
 10
634.9260987626284
 20
-244.8506797956861
 30
0.0
 40
0.7500000000000001
  0
LWPOLYLINE
  5
10B
330
2
100
AcDbEntity
  8
0
100
AcDbPolyline
 90
       30
 70
     1
 43
0.0
 10
171.4861492689675
 20
-243.350679795686
 10
400.8660482562913
 20
-243.3506797956861
 10
401.3053880845096
 20
-243.790019623904
 42
0.4142135623725602
 10
401.4468094407468
 20
-243.790019623904
 10
401.886149268966
 20
-243.3506797956861
 10
631.2660482562899
 20
-243.3506797956861
 10
631.7053880845082
 20
-243.790019623904
 42
0.4142135623725602
 10
631.8468094407453
 20
-243.7900196239041
 10
632.2861492689644
 20
-243.3506797956861
 10
646.3340146400528
 20
-243.3506797956861
 42
-0.0366353799125556
 10
643.1500435595653
 20
-263.24901154475
 42
0.0350592657117532
 10
642.1055446512751
 20
-298.8506797956861
 10
632.2861492689644
 20
-298.8506797956861
 10
631.8468094407453
 20
-298.4113399674681
 42
0.4142135623725629
 10
631.7053880845082
 20
-298.4113399674681
 10
631.2660482562899
 20
-298.8506797956861
 10
401.8861492689661
 20
-298.8506797956861
 10
401.4468094407468
 20
-298.411339967468
 42
0.4142135623725686
 10
401.3053880845096
 20
-298.4113399674681
 10
400.8660482562913
 20
-298.8506797956861
 10
171.4861492689675
 20
-298.8506797956859
 10
171.0468094407483
 20
-298.411339967468
 42
0.4142135623725673
 10
170.9053880845111
 20
-298.4113399674681
 10
170.4660482562928
 20
-298.850679795686
 10
161.7331631716541
 20
-298.850679795686
 42
-0.0233694661324153
 10
162.9843505490007
 20
-275.1262161685971
 42
0.0582746357940116
 10
166.6704241866348
 20
-243.350679795686
 10
170.4660482562928
 20
-243.350679795686
 10
170.9053880845111
 20
-243.790019623904
 42
0.4142135623725622
 10
171.0468094407483
 20
-243.790019623904
  0
LINE
  5
10C
330
2
100
AcDbEntity
  8
ENDCUT
100
AcDbLine
 10
170.4760987626312
 20
-261.3713237194241
 30
0.0
 11
170.4760987626312
 21
-264.580035871947
 31
0.0
  0
LINE
  5
10D
330
2
100
AcDbEntity
  8
ENDCUT
100
AcDbLine
 10
170.4760987626312
 20
-277.6213237194251
 30
0.0
 11
170.4760987626312
 21
-280.830035871946
 31
0.0
  0
LWPOLYLINE
  5
10E
330
2
100
AcDbEntity
  8
ENDCUT
100
AcDbPolyline
 90
        8
 70
     0
 43
0.0
 10
170.4760987626312
 20
-248.3300358719461
 10
170.4760987626312
 20
-244.3506797956851
 10
169.095596237314
 20
-242.9701772703691
 42
-0.6681786379194558
 10
169.145093711997
 20
-242.850679795686
 10
172.8071038132649
 20
-242.8506797956861
 42
-0.6681786379197896
 10
172.8566012879479
 20
-242.9701772703692
 10
171.4760987626282
 20
-244.3506797956851
 10
171.4760987626282
 20
-248.3300358719461
  0
LWPOLYLINE
  5
10F
330
2
100
AcDbEntity
  8
ENDCUT
100
AcDbPolyline
 90
        8
 70
     0
 43
0.0
 10
170.4760987626312
 20
-293.8713237194259
 10
170.4760987626312
 20
-297.8506797956868
 10
169.095596237314
 20
-299.2311823210029
 42
0.6681786379194558
 10
169.145093711997
 20
-299.350679795686
 10
172.8071038132649
 20
-299.350679795686
 42
0.6681786379197896
 10
172.8566012879479
 20
-299.2311823210028
 10
171.4760987626282
 20
-297.8506797956868
 10
171.4760987626282
 20
-293.8713237194259
  0
HATCH
  5
110
330
2
100
AcDbEntity
  8
ENDCUT
100
AcDbHatch
 10
0.0
 20
0.0
 30
0.0
210
0.0
220
0.0
230
1.0
  2
ANSI31
 70
     0
 71
     0
 91
        6
 92
        7
 72
     1
 73
     1
 93
        4
 10
401.8760987626267
 20
-261.3713237194282
 42
-0.2087121525212412
 10
400.8760987626296
 20
-261.3713237194261
 42
0.0
 10
400.8760987626296
 20
-264.5800358719461
 42
-0.2087121525212412
 10
401.8760987626267
 20
-264.5800358719439
 42
0.0
 97
        0
 92
        7
 72
     1
 73
     1
 93
        4
 10
401.8760987626267
 20
-277.6213237194273
 42
-0.2087121525212412
 10
400.8760987626296
 20
-277.6213237194252
 42
0.0
 10
400.8760987626296
 20
-280.8300358719456
 42
-0.2087121525212412
 10
401.8760987626267
 20
-280.8300358719435
 42
0.0
 97
        0
 92
        7
 72
     1
 73
     1
 93
       10
 10
401.8760987626267
 20
-293.8713237194282
 42
-0.2087121525212412
 10
400.8760987626296
 20
-293.8713237194262
 42
0.0
 10
400.8760987626296
 20
-297.8506797956868
 42
0.0
 10
399.8760987626297
 20
-298.8506797956861
 42
0.0
 10
400.8660482562913
 20
-298.8506797956861
 42
0.0
 10
401.3053880845096
 20
-298.4113399674681
 42
-0.414213562372554
 10
401.4468094407468
 20
-298.411339967468
 42
0.0
 10
401.8861492689661
 20
-298.8506797956861
 42
0.0
 10
402.8760987626286
 20
-298.8506797956861
 42
0.0
 10
401.8760987626267
 20
-297.8506797956868
 42
0.0
 97
        0
 92
        7
 72
     1
 73
     1
 93
       10
 10
402.8760987626286
 20
-298.8506797956861
 42
0.0
 10
401.8861492689661
 20
-298.8506797956861
 42
0.0
 10
401.4468094407468
 20
-298.411339967468
 42
0.4142135623725674
 10
401.3053880845096
 20
-298.4113399674681
 42
0.0
 10
400.8660482562913
 20
-298.8506797956861
 42
0.0
 10
399.8760987626297
 20
-298.8506797956861
 42
0.0
 10
399.4955962373125
 20
-299.2311823210029
 42
0.6681786379194247
 10
399.5450937119955
 20
-299.350679795686
 42
0.0
 10
403.2071038132634
 20
-299.350679795686
 42
0.668178637919747
 10
403.2566012879463
 20
-299.2311823210028
 42
0.0
 97
        0
 92
        7
 72
     1
 73
     1
 93
       10
 10
401.8760987626267
 20
-244.3506797956852
 42
0.0
 10
402.8760987626285
 20
-243.3506797956861
 42
0.0
 10
401.886149268966
 20
-243.3506797956861
 42
0.0
 10
401.4468094407468
 20
-243.790019623904
 42
-0.4142135623725556
 10
401.3053880845096
 20
-243.790019623904
 42
0.0
 10
400.8660482562913
 20
-243.350679795686
 42
0.0
 10
399.8760987626298
 20
-243.350679795686
 42
0.0
 10
400.8760987626296
 20
-244.3506797956851
 42
0.0
 10
400.8760987626296
 20
-248.3300358719465
 42
-0.2087121525212412
 10
401.8760987626267
 20
-248.3300358719444
 42
0.0
 97
        0
 92
        7
 72
     1
 73
     1
 93
       10
 10
403.2566012879463
 20
-242.9701772703692
 42
0.6681786379197838
 10
403.2071038132634
 20
-242.8506797956861
 42
0.0
 10
399.5450937119955
 20
-242.8506797956861
 42
0.6681786379194494
 10
399.4955962373125
 20
-242.9701772703691
 42
0.0
 10
399.8760987626298
 20
-243.350679795686
 42
0.0
 10
400.8660482562913
 20
-243.350679795686
 42
0.0
 10
401.3053880845096
 20
-243.790019623904
 42
0.4142135623725551
 10
401.4468094407468
 20
-243.790019623904
 42
0.0
 10
401.886149268966
 20
-243.3506797956861
 42
0.0
 10
402.8760987626285
 20
-243.3506797956861
 42
0.0
 97
        0
 75
     1
 76
     1
 52
0.0
 41
1.0
 77
     0
 78
     1
 53
45.0
 43
401.2885942015929
 44
-262.8337910633922
 45
-0.0883883476483184
 46
0.0883883476483185
 79
     0
 47
0.0257380147396708
 98
        6
 10
401.2885942015929
 20
-262.8337910633922
 10
401.5535983338288
 20
-278.9817642737418
 10
401.511513083509
 20
-296.2633576746597
 10
401.1252183874828
 20
-299.0945394905017
 10
401.3495633568229
 20
-246.0301243743865
 10
401.5072400449983
 20
-243.2286070728883
1001
GradientColor1ACI
1070
     5
1001
GradientColor2ACI
1070
     2
1001
ACAD
1010
0.0
1020
0.0
1030
0.0
  0
LINE
  5
111
330
2
100
AcDbEntity
  8
ENDCUT
100
AcDbLine
 10
401.8760987626267
 20
-261.3713237194242
 30
0.0
 11
401.8760987626267
 21
-264.580035871947
 31
0.0
  0
LINE
  5
112
330
2
100
AcDbEntity
  8
ENDCUT
100
AcDbLine
 10
401.8760987626267
 20
-277.6213237194251
 30
0.0
 11
401.8760987626267
 21
-280.8300358719461
 31
0.0
  0
LINE
  5
113
330
2
100
AcDbEntity
  8
ENDCUT
100
AcDbLine
 10
400.8760987626296
 20
-261.3713237194242
 30
0.0
 11
400.8760987626296
 21
-264.580035871947
 31
0.0
  0
LINE
  5
114
330
2
100
AcDbEntity
  8
ENDCUT
100
AcDbLine
 10
400.8760987626296
 20
-277.6213237194251
 30
0.0
 11
400.8760987626296
 21
-280.8300358719461
 31
0.0
  0
LWPOLYLINE
  5
115
330
2
100
AcDbEntity
  8
ENDCUT
100
AcDbPolyline
 90
        8
 70
     0
 43
0.0
 10
400.8760987626296
 20
-248.3300358719461
 10
400.8760987626296
 20
-244.3506797956851
 10
399.4955962373125
 20
-242.9701772703691
 42
-0.6681786379194558
 10
399.5450937119955
 20
-242.8506797956861
 10
403.2071038132634
 20
-242.8506797956861
 42
-0.6681786379197896
 10
403.2566012879463
 20
-242.9701772703692
 10
401.8760987626267
 20
-244.3506797956852
 10
401.8760987626267
 20
-248.3300358719461
  0
LWPOLYLINE
  5
116
330
2
100
AcDbEntity
  8
ENDCUT
100
AcDbPolyline
 90
        8
 70
     0
 43
0.0
 10
400.8760987626296
 20
-293.8713237194259
 10
400.8760987626296
 20
-297.8506797956868
 10
399.4955962373125
 20
-299.2311823210029
 42
0.6681786379194558
 10
399.5450937119955
 20
-299.350679795686
 10
403.2071038132634
 20
-299.350679795686
 42
0.6681786379197896
 10
403.2566012879463
 20
-299.2311823210028
 10
401.8760987626267
 20
-297.8506797956868
 10
401.8760987626267
 20
-293.8713237194259
  0
HATCH
  5
117
330
2
100
AcDbEntity
  8
ENDCUT
100
AcDbHatch
 10
0.0
 20
0.0
 30
0.0
210
0.0
220
0.0
230
1.0
  2
ANSI31
 70
     0
 71
     0
 91
        6
 92
        7
 72
     1
 73
     1
 93
        4
 10
632.2760987626252
 20
-261.3713237194282
 42
-0.2087121525212412
 10
631.2760987626282
 20
-261.3713237194261
 42
0.0
 10
631.2760987626282
 20
-264.5800358719461
 42
-0.2087121525212412
 10
632.2760987626252
 20
-264.580035871944
 42
0.0
 97
        0
 92
        7
 72
     1
 73
     1
 93
        4
 10
632.2760987626252
 20
-277.6213237194273
 42
-0.2087121525212412
 10
631.2760987626282
 20
-277.6213237194252
 42
0.0
 10
631.2760987626282
 20
-280.8300358719456
 42
-0.2087121525212412
 10
632.2760987626252
 20
-280.8300358719435
 42
0.0
 97
        0
 92
        7
 72
     1
 73
     1
 93
       10
 10
632.2760987626252
 20
-293.8713237194282
 42
-0.2087121525212412
 10
631.2760987626282
 20
-293.8713237194262
 42
0.0
 10
631.2760987626282
 20
-297.8506797956869
 42
0.0
 10
630.2760987626282
 20
-298.8506797956861
 42
0.0
 10
631.2660482562899
 20
-298.8506797956861
 42
0.0
 10
631.7053880845082
 20
-298.4113399674681
 42
-0.414213562372554
 10
631.8468094407453
 20
-298.4113399674681
 42
0.0
 10
632.2861492689646
 20
-298.8506797956861
 42
0.0
 10
633.276098762627
 20
-298.8506797956861
 42
0.0
 10
632.2760987626252
 20
-297.8506797956869
 42
0.0
 97
        0
 92
        7
 72
     1
 73
     1
 93
       10
 10
633.276098762627
 20
-298.8506797956861
 42
0.0
 10
632.2861492689646
 20
-298.8506797956861
 42
0.0
 10
631.8468094407453
 20
-298.4113399674681
 42
0.4142135623725674
 10
631.7053880845082
 20
-298.4113399674681
 42
0.0
 10
631.2660482562899
 20
-298.8506797956861
 42
0.0
 10
630.2760987626282
 20
-298.8506797956861
 42
0.0
 10
629.8955962373111
 20
-299.231182321003
 42
0.6681786379194247
 10
629.945093711994
 20
-299.350679795686
 42
0.0
 10
633.6071038132618
 20
-299.350679795686
 42
0.668178637919747
 10
633.6566012879448
 20
-299.2311823210028
 42
0.0
 97
        0
 92
        7
 72
     1
 73
     1
 93
       10
 10
632.2760987626252
 20
-244.3506797956852
 42
0.0
 10
633.276098762627
 20
-243.3506797956861
 42
0.0
 10
632.2861492689644
 20
-243.3506797956861
 42
0.0
 10
631.8468094407453
 20
-243.7900196239041
 42
-0.4142135623725556
 10
631.7053880845082
 20
-243.790019623904
 42
0.0
 10
631.2660482562899
 20
-243.3506797956861
 42
0.0
 10
630.2760987626284
 20
-243.3506797956861
 42
0.0
 10
631.2760987626282
 20
-244.3506797956852
 42
0.0
 10
631.2760987626282
 20
-248.3300358719465
 42
-0.2087121525212412
 10
632.2760987626252
 20
-248.3300358719445
 42
0.0
 97
        0
 92
        7
 72
     1
 73
     1
 93
       10
 10
633.6566012879448
 20
-242.9701772703693
 42
0.6681786379197838
 10
633.6071038132618
 20
-242.8506797956861
 42
0.0
 10
629.945093711994
 20
-242.8506797956861
 42
0.6681786379194494
 10
629.8955962373111
 20
-242.9701772703691
 42
0.0
 10
630.2760987626284
 20
-243.3506797956861
 42
0.0
 10
631.2660482562899
 20
-243.3506797956861
 42
0.0
 10
631.7053880845082
 20
-243.790019623904
 42
0.4142135623725551
 10
631.8468094407453
 20
-243.7900196239041
 42
0.0
 10
632.2861492689644
 20
-243.3506797956861
 42
0.0
 10
633.276098762627
 20
-243.3506797956861
 42
0.0
 97
        0
 75
     1
 76
     1
 52
0.0
 41
1.0
 77
     0
 78
     1
 53
45.0
 43
631.6885942015915
 44
-262.8337910633923
 45
-0.0883883476483184
 46
0.0883883476483185
 79
     0
 47
0.0257380147396708
 98
        6
 10
631.6885942015915
 20
-262.8337910633923
 10
631.9535983338274
 20
-278.9817642737419
 10
631.9115130835075
 20
-296.2633576746598
 10
631.5252183874813
 20
-299.0945394905018
 10
631.7495633568214
 20
-246.0301243743866
 10
631.9072400449968
 20
-243.2286070728883
1001
GradientColor1ACI
1070
     5
1001
GradientColor2ACI
1070
     2
1001
ACAD
1010
0.0
1020
0.0
1030
0.0
  0
LINE
  5
118
330
2
100
AcDbEntity
  8
ENDCUT
100
AcDbLine
 10
632.2760987626252
 20
-261.3713237194243
 30
0.0
 11
632.2760987626252
 21
-264.5800358719471
 31
0.0
  0
LINE
  5
119
330
2
100
AcDbEntity
  8
ENDCUT
100
AcDbLine
 10
632.2760987626252
 20
-277.6213237194252
 30
0.0
 11
632.2760987626252
 21
-280.8300358719462
 31
0.0
  0
LINE
  5
11A
330
2
100
AcDbEntity
  8
ENDCUT
100
AcDbLine
 10
631.2760987626282
 20
-261.3713237194242
 30
0.0
 11
631.2760987626282
 21
-264.580035871947
 31
0.0
  0
LINE
  5
11B
330
2
100
AcDbEntity
  8
ENDCUT
100
AcDbLine
 10
631.2760987626282
 20
-277.6213237194251
 30
0.0
 11
631.2760987626282
 21
-280.8300358719461
 31
0.0
  0
LWPOLYLINE
  5
11C
330
2
100
AcDbEntity
  8
ENDCUT
100
AcDbPolyline
 90
        8
 70
     0
 43
0.0
 10
631.2760987626282
 20
-248.3300358719461
 10
631.2760987626282
 20
-244.3506797956852
 10
629.8955962373111
 20
-242.9701772703691
 42
-0.6681786379194558
 10
629.945093711994
 20
-242.8506797956861
 10
633.6071038132618
 20
-242.8506797956861
 42
-0.6681786379197896
 10
633.6566012879448
 20
-242.9701772703693
 10
632.2760987626252
 20
-244.3506797956852
 10
632.2760987626252
 20
-248.3300358719461
  0
LWPOLYLINE
  5
11D
330
2
100
AcDbEntity
  8
ENDCUT
100
AcDbPolyline
 90
        8
 70
     0
 43
0.0
 10
631.2760987626282
 20
-293.871323719426
 10
631.2760987626282
 20
-297.8506797956869
 10
629.8955962373111
 20
-299.231182321003
 42
0.6681786379194558
 10
629.945093711994
 20
-299.350679795686
 10
633.6071038132618
 20
-299.350679795686
 42
0.6681786379197896
 10
633.6566012879448
 20
-299.2311823210028
 10
632.2760987626252
 20
-297.8506797956869
 10
632.2760987626252
 20
-293.871323719426
  0
LINE
  5
11E
330
2
100
AcDbEntity
  8
DIM
370
    -2
100
AcDbLine
 10
160.6131436693039
 20
-298.8506798008234
 30
0.0
 11
153.4306669674021
 21
-298.8506798008234
 31
0.0
  0
LINE
  5
11F
330
2
100
AcDbEntity
  8
DIM
370
    -2
100
AcDbLine
 10
165.5504046842845
 20
-243.3506798008234
 30
0.0
 11
153.430666967402
 21
-243.3506797956964
 31
0.0
  0
LINE
  5
120
330
2
100
AcDbEntity
  8
DIM
100
AcDbLine
 10
154.830666967402
 20
-294.6506798008234
 30
0.0
 11
154.8306669674019
 21
-247.5506797956964
 31
0.0
  0
SOLID
  5
121
330
2
100
AcDbEntity
  8
DIM
100
AcDbTrace
 10
154.830666967402
 20
-298.8506798008234
 30
0.0
 11
155.5306669674022
 21
-294.6506798008234
 31
0.0
 12
154.130666967402
 22
-294.6506798008234
 32
0.0
 13
154.130666967402
 23
-294.6506798008234
 33
0.0
  0
SOLID
  5
122
330
2
100
AcDbEntity
  8
DIM
100
AcDbTrace
 10
154.8306669674019
 20
-243.3506797956964
 30
0.0
 11
155.5306669674021
 21
-247.5506797956964
 31
0.0
 12
154.1306669674019
 22
-247.5506797956964
 32
0.0
 13
154.1306669674019
 23
-247.5506797956964
 33
0.0
  0
MTEXT
  5
123
330
2
100
AcDbEntity
  8
DIM
100
AcDbMText
 10
151.890666967402
 20
-273.6399870034194
 30
0.0
 40
3.5
 41
0.0
 46
0.0
 71
     5
 72
     1
  1
55.5000
  7
SIMPLEX
 11
0.0
 21
1.0
 31
0.0
 73
     1
 44
1.0
  0
MTEXT
  5
124
330
2
100
AcDbEntity
  8
DIM
100
AcDbMText
 10
150.2654437142441
 20
-255.8423154014475
 30
0.0
 40
2.520000000000015
 41
0.0
 46
0.0
 71
     5
 72
     1
  1
%%p0.050
  7
SIMPLEX
 11
0.0
 21
1.0
 31
0.0
 73
     1
 44
1.0
  0
MTEXT
  5
125
330
2
100
AcDbEntity
  8
DIM
100
AcDbMText
 10
306.2078822098126
 20
-305.0284023144852
 30
0.0
 40
2.52
 41
0.0
 46
0.0
 71
     5
 72
     1
  1
STRIP PITCH
  7
SIMPLEX
 73
     1
 44
1.0
  0
LINE
  5
126
330
2
100
AcDbEntity
  8
DIM
370
    -2
100
AcDbLine
 10
182.3760987626297
 20
-298.4706797956861
 30
0.0
 11
182.3760987626297
 21
-308.9206440355433
 31
0.0
  0
LINE
  5
127
330
2
100
AcDbEntity
  8
DIM
100
AcDbLine
 10
186.5760987626296
 20
-307.5206440355432
 30
0.0
 11
412.7760987626284
 21
-307.5206440355432
 31
0.0
  0
SOLID
  5
128
330
2
100
AcDbEntity
  8
DIM
100
AcDbTrace
 10
182.3760987626297
 20
-307.5206440355432
 30
0.0
 11
186.5760987626296
 21
-308.2206440355433
 31
0.0
 12
186.5760987626296
 22
-306.820644035543
 32
0.0
 13
186.5760987626296
 23
-306.820644035543
 33
0.0
  0
MTEXT
  5
129
330
2
100
AcDbEntity
  8
DIM
100
AcDbMText
 10
280.9593956621891
 20
-304.5806440355432
 30
0.0
 40
3.5
 41
0.0
 46
0.0
 71
     5
 72
     1
  1
230.4000
  7
SIMPLEX
 73
     1
 44
1.0
  0
LINE
  5
12A
330
2
100
AcDbEntity
  8
DIM
370
    -2
100
AcDbLine
 10
412.7760987626281
 20
-298.470679795686
 30
0.0
 11
412.7760987626281
 21
-308.9206440355433
 31
0.0
  0
SOLID
  5
12B
330
2
100
AcDbEntity
  8
DIM
100
AcDbTrace
 10
412.7760987626281
 20
-307.5206440355432
 30
0.0
 11
408.5760987626279
 21
-308.2206440355433
 31
0.0
 12
408.5760987626279
 22
-306.820644035543
 32
0.0
 13
408.5760987626279
 23
-306.820644035543
 33
0.0
  0
LINE
  5
12C
330
2
100
AcDbEntity
  8
DIM
100
AcDbLine
 10
419.3960987626282
 20
-297.3506797956861
 30
0.0
 11
425.3500611863528
 21
-297.3506797956861
 31
0.0
  0
LINE
  5
12D
330
2
100
AcDbEntity
  8
DIM
100
AcDbLine
 10
423.9500611863527
 20
-303.0506797956861
 30
0.0
 11
423.9500611863527
 21
-327.4301980898616
 31
0.0
  0
MTEXT
  5
12E
330
2
100
AcDbEntity
  8
DIM
100
AcDbMText
 10
420.0634497999581
 20
-317.0068672226792
 30
0.0
 40
3.5
 41
0.0
 46
0.0
 71
     5
 72
     1
  1
\A1;(1.5000)
  7
SIMPLEX
 11
-0.0000000000000001
 21
1.0
 31
0.0
 73
     1
 44
1.0
  0
LINE
  5
12F
330
2
100
AcDbEntity
  8
DIM
100
AcDbLine
 10
423.9500611863527
 20
-298.8506797956861
 30
0.0
 11
423.9500611863527
 21
-297.3506797956861
 31
0.0
  0
MTEXT
  5
130
330
2
100
AcDbEntity
  8
DIM
100
AcDbMText
 10
426.8223891226098
 20
-316.621296074186
 30
0.0
 40
2.52
 41
0.0
 46
0.0
 71
     5
 72
     1
  1
TYP.
  7
SIMPLEX
 11
-0.0000000000000001
 21
1.0
 31
0.0
 73
     1
 44
1.0
  0
SOLID
  5
131
330
2
100
AcDbEntity
  8
DIM
100
AcDbTrace
 10
423.9500611863527
 20
-297.3506797956861
 30
0.0
 11
424.6500611863529
 21
-293.150679795686
 31
0.0
 12
423.2500611863525
 22
-293.150679795686
 32
0.0
 13
423.2500611863525
 23
-293.150679795686
 33
0.0
  0
SOLID
  5
132
330
2
100
AcDbEntity
  8
DIM
100
AcDbTrace
 10
423.9500611863527
 20
-298.8506797956861
 30
0.0
 11
424.6500611863529
 21
-303.0506797956861
 31
0.0
 12
423.2500611863525
 22
-303.0506797956861
 32
0.0
 13
423.2500611863525
 23
-303.0506797956861
 33
0.0
  0
LINE
  5
133
330
2
100
AcDbEntity
  8
DIM
100
AcDbLine
 10
423.9500611863527
 20
-293.150679795686
 30
0.0
 11
423.9500611863527
 21
-288.950679795686
 31
0.0
  0
LINE
  5
134
330
2
100
AcDbEntity
  8
DIM
370
    -2
100
AcDbLine
 10
174.1260987626315
 20
-243.7306797956861
 30
0.0
 11
174.1260987626315
 21
-228.3468158247044
 31
0.0
  0
LINE
  5
135
330
2
100
AcDbEntity
  8
DIM
100
AcDbLine
 10
178.3260987626314
 20
-229.7468158247044
 30
0.0
 11
391.0760987626309
 21
-229.7468158247044
 31
0.0
  0
SOLID
  5
136
330
2
100
AcDbEntity
  8
DIM
100
AcDbTrace
 10
174.1260987626315
 20
-229.7468158247044
 30
0.0
 11
178.3260987626314
 21
-230.4468158247046
 31
0.0
 12
178.3260987626314
 22
-229.0468158247043
 32
0.0
 13
178.3260987626314
 23
-229.0468158247043
 33
0.0
  0
MTEXT
  5
137
330
2
100
AcDbEntity
  8
DIM
100
AcDbMText
 10
285.8674305126077
 20
-226.8068158247043
 30
0.0
 40
3.5
 41
0.0
 46
0.0
 71
     5
 72
     1
  1
221.1500
  7
SIMPLEX
 73
     1
 44
1.0
  0
MTEXT
  5
138
330
2
100
AcDbEntity
  8
DIM
100
AcDbMText
 10
305.1455697849333
 20
-225.4968931654949
 30
0.0
 40
2.52
 41
0.0
 46
0.0
 71
     5
 72
     1
  1
%%p0.050
  7
SIMPLEX
 73
     1
 44
1.0
  0
LINE
  5
139
330
2
100
AcDbEntity
  8
DIM
370
    -2
100
AcDbLine
 10
395.2760987626311
 20
-243.7306797956861
 30
0.0
 11
395.2760987626311
 21
-228.3468158247043
 31
0.0
  0
SOLID
  5
13A
330
2
100
AcDbEntity
  8
DIM
100
AcDbTrace
 10
395.2760987626311
 20
-229.7468158247044
 30
0.0
 11
391.0760987626309
 21
-230.4468158247046
 31
0.0
 12
391.0760987626309
 22
-229.0468158247042
 32
0.0
 13
391.0760987626309
 23
-229.0468158247042
 33
0.0
  0
MTEXT
  5
13B
330
2
100
AcDbEntity
  8
DIM
100
AcDbMText
 10
306.6680149398381
 20
-220.326580488882
 30
0.0
 40
2.519999999999936
 41
0.0
 46
0.0
 71
     5
 72
     1
  1
STRIP LENGTH
  7
SIMPLEX
 73
     1
 44
1.0
  0
LINE
  5
13C
330
2
100
AcDbEntity
  8
DIM
370
    -2
100
AcDbLine
 10
171.4760987626283
 20
-243.7306797956861
 30
0.0
 11
171.4760987626282
 21
-220.9739470666316
 31
0.0
  0
LINE
  5
13D
330
2
100
AcDbEntity
  8
DIM
370
    -2
100
AcDbLine
 10
400.8760987626296
 20
-243.7306797956861
 30
0.0
 11
400.8760987626123
 21
-220.9739470666316
 31
0.0
  0
LINE
  5
13E
330
2
100
AcDbEntity
  8
DIM
100
AcDbLine
 10
175.6760987626283
 20
-222.3739470666316
 30
0.0
 11
400.876098762613
 21
-222.3739470666317
 31
0.0
  0
SOLID
  5
13F
330
2
100
AcDbEntity
  8
DIM
100
AcDbTrace
 10
171.4760987626282
 20
-222.3739470666316
 30
0.0
 11
175.6760987626283
 21
-223.0739470666318
 31
0.0
 12
175.6760987626283
 22
-221.6739470666315
 32
0.0
 13
175.6760987626283
 23
-221.6739470666315
 33
0.0
  0
SOLID
  5
140
330
2
100
AcDbEntity
  8
DIM
100
AcDbTrace
 10
400.8760987626123
 20
-222.3739470666316
 30
0.0
 11
396.6760987626126
 21
-223.0739470666317
 31
0.0
 12
396.6760987626126
 22
-221.6739470666314
 32
0.0
 13
396.6760987626126
 23
-221.6739470666314
 33
0.0
  0
MTEXT
  5
141
330
2
100
AcDbEntity
  8
DIM
100
AcDbMText
 10
285.5561924854858
 20
-218.2467109654003
 30
0.0
 40
2.519999999999936
 41
0.0
 46
0.0
 71
     5
 72
     1
  1
%%p0.100
  7
SIMPLEX
 73
     1
 44
1.0
  0
MTEXT
  5
142
330
2
100
AcDbEntity
  8
DIM
100
AcDbMText
 10
266.3044279382634
 20
-219.4339470666316
 30
0.0
 40
3.5
 41
0.0
 46
0.0
 71
     5
 72
     1
  1
229.4000
  7
SIMPLEX
 73
     1
 44
1.0
  0
LINE
  5
143
330
2
100
AcDbEntity
  8
DIM
100
AcDbLine
 10
167.2760987626285
 20
-237.6962649560308
 30
0.0
 11
163.0760987626285
 21
-237.6962649560308
 31
0.0
  0
SOLID
  5
144
330
2
100
AcDbEntity
  8
DIM
100
AcDbTrace
 10
171.4760987626284
 20
-237.6962649560308
 30
0.0
 11
167.2760987626285
 21
-238.3962649560309
 31
0.0
 12
167.2760987626285
 22
-236.9962649560306
 32
0.0
 13
167.2760987626285
 23
-236.9962649560306
 33
0.0
  0
LINE
  5
145
330
2
100
AcDbEntity
  8
DIM
100
AcDbLine
 10
178.3260987626314
 20
-237.6962649560308
 30
0.0
 11
197.3343109460148
 21
-237.6962649560308
 31
0.0
  0
SOLID
  5
146
330
2
100
AcDbEntity
  8
DIM
100
AcDbTrace
 10
174.1260987626315
 20
-237.6962649560308
 30
0.0
 11
178.3260987626314
 21
-238.3962649560309
 31
0.0
 12
178.3260987626314
 22
-236.9962649560306
 32
0.0
 13
178.3260987626314
 23
-236.9962649560306
 33
0.0
  0
MTEXT
  5
147
330
2
100
AcDbEntity
  8
DIM
100
AcDbMText
 10
188.5042590472233
 20
-234.7562649560309
 30
0.0
 40
3.5
 41
0.0
 46
0.0
 71
     5
 72
     1
  1
\A1;2.6500
  7
SIMPLEX
 73
     1
 44
1.0
  0
MTEXT
  5
148
330
2
100
AcDbEntity
  8
DIM
100
AcDbMText
 10
204.5304124237513
 20
-233.3560866432677
 30
0.0
 40
2.52
 41
0.0
 46
0.0
 71
     5
 72
     1
  1
%%P0.075
  7
SIMPLEX
 73
     1
 44
1.0
  0
LINE
  5
149
330
2
100
AcDbEntity
  8
DIM
100
AcDbLine
 10
171.4760987626284
 20
-237.6962649560308
 30
0.0
 11
174.1260987626315
 21
-237.6962649560308
 31
0.0
  0
LINE
  5
14A
330
2
100
AcDbEntity
  8
DIM
370
    -2
100
AcDbLine
 10
271.7760987626293
 20
-243.7306797956861
 30
0.0
 11
271.7760987626293
 21
-236.2792379844724
 31
0.0
  0
LINE
  5
14B
330
2
100
AcDbEntity
  8
DIM
370
    -2
100
AcDbLine
 10
300.5760987626304
 20
-243.7306797956861
 30
0.0
 11
300.5760987626304
 21
-236.2792379844724
 31
0.0
  0
LINE
  5
14C
330
2
100
AcDbEntity
  8
DIM
100
AcDbLine
 10
302.3901562224729
 20
-237.6792379844725
 30
0.0
 11
325.6301562224728
 21
-237.6792379844725
 31
0.0
  0
MTEXT
  5
14D
330
2
100
AcDbEntity
  8
DIM
100
AcDbMText
 10
315.5716346165052
 20
-234.7392379844724
 30
0.0
 40
3.5
 41
0.0
 46
0.0
 71
     5
 72
     1
  1
28.8000
  7
SIMPLEX
 73
     1
 44
1.0
  0
SOLID
  5
14E
330
2
100
AcDbEntity
  8
DIM
100
AcDbTrace
 10
271.7760987626293
 20
-237.6792379844725
 30
0.0
 11
267.5760987626293
 21
-238.3792379844726
 31
0.0
 12
267.5760987626293
 22
-236.9792379844723
 32
0.0
 13
267.5760987626293
 23
-236.9792379844723
 33
0.0
  0
SOLID
  5
14F
330
2
100
AcDbEntity
  8
DIM
100
AcDbTrace
 10
300.5760987626304
 20
-237.6792379844725
 30
0.0
 11
304.7760987626304
 21
-238.3792379844726
 31
0.0
 12
304.7760987626304
 22
-236.9792379844723
 32
0.0
 13
304.7760987626304
 23
-236.9792379844723
 33
0.0
  0
LINE
  5
150
330
2
100
AcDbEntity
  8
DIM
100
AcDbLine
 10
271.7760987626293
 20
-237.6792379844725
 30
0.0
 11
300.5760987626304
 21
-237.6792379844725
 31
0.0
  0
LINE
  5
151
330
2
100
AcDbEntity
  8
DIM
100
AcDbLine
 10
267.5760987626293
 20
-237.6792379844725
 30
0.0
 11
263.3760987626292
 21
-237.6792379844725
 31
0.0
  0
MTEXT
  5
152
330
2
100
AcDbEntity
  8
DIM
100
AcDbMText
 10
332.9285883777632
 20
-233.2680088438515
 30
0.0
 40
2.520000000000063
 41
0.0
 46
0.0
 71
     5
 72
     1
  1
%%p0.025
  7
SIMPLEX
 73
     1
 44
1.0
  0
MTEXT
  5
153
330
2
100
AcDbEntity
  8
DIM
100
AcDbMText
 10
409.903898429744
 20
-212.3254008031565
 30
0.0
 40
2.519999999999936
 41
0.0
 46
0.0
 71
     5
 72
     1
  1
INDEXING DISTANCE
  7
SIMPLEX
 73
     1
 44
1.0
  0
LINE
  5
154
330
2
100
AcDbEntity
  8
DIM
370
    -2
100
AcDbLine
 10
171.4760987626283
 20
-236.5548062787931
 30
0.0
 11
171.4760987626282
 21
-213.7980735497386
 31
0.0
  0
LINE
  5
155
330
2
100
AcDbEntity
  8
DIM
100
AcDbLine
 10
175.6760987626283
 20
-215.1980735497386
 30
0.0
 11
632.2760987626252
 21
-215.1980735497386
 31
0.0
  0
SOLID
  5
156
330
2
100
AcDbEntity
  8
DIM
100
AcDbTrace
 10
171.4760987626282
 20
-215.1980735497386
 30
0.0
 11
175.6760987626283
 21
-215.8980735497388
 31
0.0
 12
175.6760987626283
 22
-214.4980735497384
 32
0.0
 13
175.6760987626283
 23
-214.4980735497384
 33
0.0
  0
MTEXT
  5
157
330
2
100
AcDbEntity
  8
DIM
100
AcDbMText
 10
376.8732136875608
 20
-212.2580735497386
 30
0.0
 40
3.5
 41
0.0
 46
0.0
 71
     5
 72
     1
  1
460.8000
  7
SIMPLEX
 73
     1
 44
1.0
  0
LINE
  5
158
330
2
100
AcDbEntity
  8
DIM
370
    -2
100
AcDbLine
 10
632.2760987626252
 20
-243.7306797956862
 30
0.0
 11
632.2760987626252
 21
-213.7980735497386
 31
0.0
  0
SOLID
  5
159
330
2
100
AcDbEntity
  8
DIM
100
AcDbTrace
 10
632.2760987626252
 20
-215.1980735497386
 30
0.0
 11
628.0760987626251
 21
-215.8980735497388
 31
0.0
 12
628.0760987626251
 22
-214.4980735497385
 32
0.0
 13
628.0760987626251
 23
-214.4980735497385
 33
0.0
  0
LINE
  5
15A
330
2
100
AcDbEntity
  8
DIM
100
AcDbLine
 10
636.0460987626286
 20
-244.8506797956861
 30
0.0
 11
642.0000611863531
 21
-244.8506797956861
 31
0.0
  0
LINE
  5
15B
330
2
100
AcDbEntity
  8
DIM
100
AcDbLine
 10
640.6000611863531
 20
-239.1506797956861
 30
0.0
 11
640.6000611863531
 21
-214.7711615015106
 31
0.0
  0
MTEXT
  5
15C
330
2
100
AcDbEntity
  8
DIM
100
AcDbMText
 10
636.7134497999584
 20
-225.194492368693
 30
0.0
 40
3.5
 41
0.0
 46
0.0
 71
     5
 72
     1
  1
\A1;(1.5000)
  7
SIMPLEX
 11
0.0000000000000001
 21
1.0
 31
0.0
 73
     1
 44
1.0
  0
LINE
  5
15D
330
2
100
AcDbEntity
  8
DIM
100
AcDbLine
 10
640.6000611863531
 20
-243.3506797956861
 30
0.0
 11
640.6000611863531
 21
-244.8506797956861
 31
0.0
  0
MTEXT
  5
15E
330
2
100
AcDbEntity
  8
DIM
100
AcDbMText
 10
643.4723891226101
 20
-225.5800635171862
 30
0.0
 40
2.52
 41
0.0
 46
0.0
 71
     5
 72
     1
  1
TYP.
  7
SIMPLEX
 11
0.0000000000000001
 21
1.0
 31
0.0
 73
     1
 44
1.0
  0
SOLID
  5
15F
330
2
100
AcDbEntity
  8
DIM
100
AcDbTrace
 10
640.6000611863531
 20
-244.8506797956861
 30
0.0
 11
641.3000611863533
 21
-249.0506797956862
 31
0.0
 12
639.9000611863527
 22
-249.0506797956862
 32
0.0
 13
639.9000611863527
 23
-249.0506797956862
 33
0.0
  0
SOLID
  5
160
330
2
100
AcDbEntity
  8
DIM
100
AcDbTrace
 10
640.6000611863531
 20
-243.3506797956861
 30
0.0
 11
641.3000611863533
 21
-239.1506797956861
 31
0.0
 12
639.9000611863527
 22
-239.1506797956861
 32
0.0
 13
639.9000611863527
 23
-239.1506797956861
 33
0.0
  0
LINE
  5
161
330
2
100
AcDbEntity
  8
DIM
100
AcDbLine
 10
640.6000611863531
 20
-249.0506797956862
 30
0.0
 11
640.6000611863531
 21
-253.2506797956862
 31
0.0
  0
MTEXT
  5
162
330
2
100
AcDbEntity
  8
DIM
100
AcDbMText
 10
428.5823041866665
 20
-235.3996414799997
 30
0.0
 40
3.499999999999968
 41
0.0
 46
0.0
 71
     7
 72
     1
  1
DETAIL `A'
  7
SIMPLEX
 73
     1
 44
1.0
  0
SOLID
  5
163
330
2
100
AcDbEntity
  8
DIM
100
AcDbTrace
 10
408.3488363901424
 20
-239.2273150626241
 30
0.0
 11
409.075095961738
 21
-240.4242056318349
 31
0.0
 12
405.1212944683075
 22
-242.0045390620161
 32
0.0
 13
405.1212944683075
 23
-242.0045390620161
 33
0.0
  0
LINE
  5
164
330
2
100
AcDbEntity
  8
DIM
100
AcDbLine
 10
408.7119661759402
 20
-239.8257603472294
 30
0.0
 11
419.3822122652273
 21
-233.3511764938911
 31
0.0
  0
LINE
  5
165
330
2
100
AcDbEntity
  8
DIM
100
AcDbLine
 10
419.3822122652273
 20
-233.3511764938911
 30
0.0
 11
426.4683439258265
 21
-233.3511764938911
 31
0.0
  0
CIRCLE
  5
166
330
2
100
AcDbEntity
  8
PKG-OUT
 48
0.5
100
AcDbCircle
 10
401.3760987626282
 20
-244.9400325715602
 30
0.0
 40
4.758530552430499
  0
LWPOLYLINE
  5
16B
330
2
100
AcDbEntity
  8
LF-LINE
100
AcDbPolyline
 90
        4
 70
     0
 43
0.0
 10
195.4695594118798
 20
-437.314838473909
 10
195.4695594118798
 20
-436.9802178908091
 42
-1.0
 10
210.4695594118907
 20
-436.9802178908091
 10
210.4695594118907
 20
-437.3148384739009
  0
CIRCLE
  5
16C
330
2
100
AcDbEntity
  8
LF-LINE
100
AcDbCircle
 10
221.8695594118813
 20
-409.2302178908092
 30
0.0
 40
4.5
  0
CIRCLE
  5
16D
330
2
100
AcDbEntity
  8
LF-LINE
100
AcDbCircle
 10
221.8695594118813
 20
-409.2302178908092
 30
0.0
 40
4.5
  0
LINE
  5
16E
330
2
100
AcDbEntity
  8
ENDCUT
100
AcDbLine
 10
191.5806319675753
 20
-397.5315844462123
 30
0.0
 11
191.8648956634783
 21
-397.2473207503092
 31
0.0
1001
GradientColor1ACI
1070
     5
1001
GradientColor2ACI
1070
     2
1001
ACAD
1010
0.0
1020
0.0
1030
0.0
  0
LINE
  5
16F
330
2
100
AcDbEntity
  8
ENDCUT
100
AcDbLine
 10
191.9561090533184
 20
-398.2167675322487
 30
0.0
 11
192.9426586947579
 21
-397.2302178908096
 31
0.0
1001
GradientColor1ACI
1070
     5
1001
GradientColor2ACI
1070
     2
1001
ACAD
1010
0.0
1020
0.0
1030
0.0
  0
LINE
  5
170
330
2
100
AcDbEntity
  8
ENDCUT
100
AcDbLine
 10
192.4864391392079
 20
-398.7470976181387
 30
0.0
 11
194.0033188665379
 21
-397.2302178908096
 31
0.0
1001
GradientColor1ACI
1070
     5
1001
GradientColor2ACI
1070
     2
1001
ACAD
1010
0.0
1020
0.0
1030
0.0
  0
LINE
  5
171
330
2
100
AcDbEntity
  8
ENDCUT
100
AcDbLine
 10
193.0167692250975
 20
-399.2774277040282
 30
0.0
 11
195.0639790383179
 21
-397.2302178908096
 31
0.0
1001
GradientColor1ACI
1070
     5
1001
GradientColor2ACI
1070
     2
1001
ACAD
1010
0.0
1020
0.0
1030
0.0
  0
LINE
  5
172
330
2
100
AcDbEntity
  8
ENDCUT
100
AcDbLine
 10
193.5470993109898
 20
-399.8077577899178
 30
0.0
 11
196.1246392100979
 21
-397.2302178908096
 31
0.0
1001
GradientColor1ACI
1070
     5
1001
GradientColor2ACI
1070
     2
1001
ACAD
1010
0.0
1020
0.0
1030
0.0
  0
LINE
  5
173
330
2
100
AcDbEntity
  8
ENDCUT
100
AcDbLine
 10
194.0774293968793
 20
-400.3380878758073
 30
0.0
 11
194.185299381877
 21
-400.2302178908096
 31
0.0
1001
GradientColor1ACI
1070
     5
1001
GradientColor2ACI
1070
     2
1001
ACAD
1010
0.0
1020
0.0
1030
0.0
  0
LINE
  5
174
330
2
100
AcDbEntity
  8
ENDCUT
100
AcDbLine
 10
194.185299381877
 20
-400.2302178908096
 30
0.0
 11
197.1852993818779
 21
-397.2302178908096
 31
0.0
1001
GradientColor1ACI
1070
     5
1001
GradientColor2ACI
1070
     2
1001
ACAD
1010
0.0
1020
0.0
1030
0.0
  0
LINE
  5
175
330
2
100
AcDbEntity
  8
ENDCUT
100
AcDbLine
 10
194.6077594827688
 20
-400.8684179616968
 30
0.0
 11
195.2459595536561
 21
-400.2302178908096
 31
0.0
1001
GradientColor1ACI
1070
     5
1001
GradientColor2ACI
1070
     2
1001
ACAD
1010
0.0
1020
0.0
1030
0.0
  0
LINE
  5
176
330
2
100
AcDbEntity
  8
ENDCUT
100
AcDbLine
 10
195.2459595536561
 20
-400.2302178908096
 30
0.0
 11
198.2459595536561
 21
-397.2302178908101
 31
0.0
1001
GradientColor1ACI
1070
     5
1001
GradientColor2ACI
1070
     2
1001
ACAD
1010
0.0
1020
0.0
1030
0.0
  0
LINE
  5
177
330
2
100
AcDbEntity
  8
ENDCUT
100
AcDbLine
 10
195.1380895686593
 20
-401.3987480475864
 30
0.0
 11
196.306619725437
 21
-400.2302178908092
 31
0.0
1001
GradientColor1ACI
1070
     5
1001
GradientColor2ACI
1070
     2
1001
ACAD
1010
0.0
1020
0.0
1030
0.0
  0
LINE
  5
178
330
2
100
AcDbEntity
  8
ENDCUT
100
AcDbLine
 10
196.306619725437
 20
-400.2302178908092
 30
0.0
 11
199.306619725437
 21
-397.2302178908096
 31
0.0
1001
GradientColor1ACI
1070
     5
1001
GradientColor2ACI
1070
     2
1001
ACAD
1010
0.0
1020
0.0
1030
0.0
  0
LINE
  5
179
330
2
100
AcDbEntity
  8
ENDCUT
100
AcDbLine
 10
195.6684196545507
 20
-401.9290781334764
 30
0.0
 11
197.3672798972161
 21
-400.2302178908096
 31
0.0
1001
GradientColor1ACI
1070
     5
1001
GradientColor2ACI
1070
     2
1001
ACAD
1010
0.0
1020
0.0
1030
0.0
  0
LINE
  5
17A
330
2
100
AcDbEntity
  8
ENDCUT
100
AcDbLine
 10
197.3672798972161
 20
-400.2302178908096
 30
0.0
 11
200.3672798972161
 21
-397.2302178908096
 31
0.0
1001
GradientColor1ACI
1070
     5
1001
GradientColor2ACI
1070
     2
1001
ACAD
1010
0.0
1020
0.0
1030
0.0
  0
LINE
  5
17B
330
2
100
AcDbEntity
  8
ENDCUT
100
AcDbLine
 10
196.1987497404393
 20
-402.4594082193659
 30
0.0
 11
198.4279400689952
 21
-400.2302178908096
 31
0.0
1001
GradientColor1ACI
1070
     5
1001
GradientColor2ACI
1070
     2
1001
ACAD
1010
0.0
1020
0.0
1030
0.0
  0
LINE
  5
17C
330
2
100
AcDbEntity
  8
ENDCUT
100
AcDbLine
 10
198.4279400689952
 20
-400.2302178908096
 30
0.0
 11
201.4279400689952
 21
-397.2302178908096
 31
0.0
1001
GradientColor1ACI
1070
     5
1001
GradientColor2ACI
1070
     2
1001
ACAD
1010
0.0
1020
0.0
1030
0.0
  0
LINE
  5
17D
330
2
100
AcDbEntity
  8
ENDCUT
100
AcDbLine
 10
196.7290798263288
 20
-402.9897383052559
 30
0.0
 11
199.4886002407752
 21
-400.2302178908096
 31
0.0
1001
GradientColor1ACI
1070
     5
1001
GradientColor2ACI
1070
     2
1001
ACAD
1010
0.0
1020
0.0
1030
0.0
  0
LINE
  5
17E
330
2
100
AcDbEntity
  8
ENDCUT
100
AcDbLine
 10
199.4886002407752
 20
-400.2302178908096
 30
0.0
 11
202.4886002407752
 21
-397.2302178908096
 31
0.0
1001
GradientColor1ACI
1070
     5
1001
GradientColor2ACI
1070
     2
1001
ACAD
1010
0.0
1020
0.0
1030
0.0
  0
LINE
  5
17F
330
2
100
AcDbEntity
  8
ENDCUT
100
AcDbLine
 10
197.2594099122193
 20
-403.5200683911455
 30
0.0
 11
200.2292583932026
 21
-400.5502199101622
 31
0.0
1001
GradientColor1ACI
1070
     5
1001
GradientColor2ACI
1070
     2
1001
ACAD
1010
0.0
1020
0.0
1030
0.0
  0
LINE
  5
180
330
2
100
AcDbEntity
  8
ENDCUT
100
AcDbLine
 10
200.2292583932026
 20
-400.5502199101622
 30
0.0
 11
203.5492604125552
 21
-397.2302178908096
 31
0.0
1001
GradientColor1ACI
1070
     5
1001
GradientColor2ACI
1070
     2
1001
ACAD
1010
0.0
1020
0.0
1030
0.0
  0
LINE
  5
181
330
2
100
AcDbEntity
  8
ENDCUT
100
AcDbLine
 10
197.7897399981097
 20
-404.0503984770355
 30
0.0
 11
200.759588479093
 21
-401.0805499960517
 31
0.0
1001
GradientColor1ACI
1070
     5
1001
GradientColor2ACI
1070
     2
1001
ACAD
1010
0.0
1020
0.0
1030
0.0
  0
LINE
  5
182
330
2
100
AcDbEntity
  8
ENDCUT
100
AcDbLine
 10
200.759588479093
 20
-401.0805499960517
 30
0.0
 11
204.6099205843352
 21
-397.2302178908101
 31
0.0
1001
GradientColor1ACI
1070
     5
1001
GradientColor2ACI
1070
     2
1001
ACAD
1010
0.0
1020
0.0
1030
0.0
  0
LINE
  5
183
330
2
100
AcDbEntity
  8
ENDCUT
100
AcDbLine
 10
198.3200700839993
 20
-404.580728562925
 30
0.0
 11
201.2899185649835
 21
-401.6108800819417
 31
0.0
1001
GradientColor1ACI
1070
     5
1001
GradientColor2ACI
1070
     2
1001
ACAD
1010
0.0
1020
0.0
1030
0.0
  0
LINE
  5
184
330
2
100
AcDbEntity
  8
ENDCUT
100
AcDbLine
 10
201.2899185649835
 20
-401.6108800819417
 30
0.0
 11
205.6705807561152
 21
-397.2302178908101
 31
0.0
1001
GradientColor1ACI
1070
     5
1001
GradientColor2ACI
1070
     2
1001
ACAD
1010
0.0
1020
0.0
1030
0.0
  0
LINE
  5
185
330
2
100
AcDbEntity
  8
ENDCUT
100
AcDbLine
 10
198.8504001698889
 20
-405.111058648815
 30
0.0
 11
201.8202486508731
 21
-402.1412101678313
 31
0.0
1001
GradientColor1ACI
1070
     5
1001
GradientColor2ACI
1070
     2
1001
ACAD
1010
0.0
1020
0.0
1030
0.0
  0
LINE
  5
186
330
2
100
AcDbEntity
  8
ENDCUT
100
AcDbLine
 10
201.8202486508731
 20
-402.1412101678313
 30
0.0
 11
206.7312409278952
 21
-397.2302178908101
 31
0.0
1001
GradientColor1ACI
1070
     5
1001
GradientColor2ACI
1070
     2
1001
ACAD
1010
0.0
1020
0.0
1030
0.0
  0
LINE
  5
187
330
2
100
AcDbEntity
  8
ENDCUT
100
AcDbLine
 10
199.3807302557793
 20
-405.6413887347046
 30
0.0
 11
202.3505787367644
 21
-402.6715402537204
 31
0.0
1001
GradientColor1ACI
1070
     5
1001
GradientColor2ACI
1070
     2
1001
ACAD
1010
0.0
1020
0.0
1030
0.0
  0
LINE
  5
188
330
2
100
AcDbEntity
  8
ENDCUT
100
AcDbLine
 10
202.3505787367644
 20
-402.6715402537204
 30
0.0
 11
207.7919010996752
 21
-397.2302178908096
 31
0.0
1001
GradientColor1ACI
1070
     5
1001
GradientColor2ACI
1070
     2
1001
ACAD
1010
0.0
1020
0.0
1030
0.0
  0
LINE
  5
189
330
2
100
AcDbEntity
  8
ENDCUT
100
AcDbLine
 10
199.9110603416707
 20
-406.1717188205941
 30
0.0
 11
203.0456279195755
 21
-403.0371512426893
 31
0.0
1001
GradientColor1ACI
1070
     5
1001
GradientColor2ACI
1070
     2
1001
ACAD
1010
0.0
1020
0.0
1030
0.0
  0
LINE
  5
18A
330
2
100
AcDbEntity
  8
ENDCUT
100
AcDbLine
 10
203.0456279195755
 20
-403.0371512426889
 30
0.0
 11
208.8525612714552
 21
-397.2302178908096
 31
0.0
1001
GradientColor1ACI
1070
     5
1001
GradientColor2ACI
1070
     2
1001
ACAD
1010
0.0
1020
0.0
1030
0.0
  0
LINE
  5
18B
330
2
100
AcDbEntity
  8
ENDCUT
100
AcDbLine
 10
199.9695594118807
 20
-407.1738799221641
 30
0.0
 11
206.9132214432352
 21
-400.2302178908096
 31
0.0
1001
GradientColor1ACI
1070
     5
1001
GradientColor2ACI
1070
     2
1001
ACAD
1010
0.0
1020
0.0
1030
0.0
  0
LINE
  5
18C
330
2
100
AcDbEntity
  8
ENDCUT
100
AcDbLine
 10
206.9132214432352
 20
-400.2302178908096
 30
0.0
 11
209.9132214432352
 21
-397.2302178908096
 31
0.0
1001
GradientColor1ACI
1070
     5
1001
GradientColor2ACI
1070
     2
1001
ACAD
1010
0.0
1020
0.0
1030
0.0
  0
LINE
  5
18D
330
2
100
AcDbEntity
  8
ENDCUT
100
AcDbLine
 10
199.9695594118807
 20
-408.2345400939441
 30
0.0
 11
207.9738816150152
 21
-400.2302178908096
 31
0.0
1001
GradientColor1ACI
1070
     5
1001
GradientColor2ACI
1070
     2
1001
ACAD
1010
0.0
1020
0.0
1030
0.0
  0
LINE
  5
18E
330
2
100
AcDbEntity
  8
ENDCUT
100
AcDbLine
 10
207.9738816150152
 20
-400.2302178908096
 30
0.0
 11
210.9738816150143
 21
-397.2302178908106
 31
0.0
1001
GradientColor1ACI
1070
     5
1001
GradientColor2ACI
1070
     2
1001
ACAD
1010
0.0
1020
0.0
1030
0.0
  0
LINE
  5
18F
330
2
100
AcDbEntity
  8
ENDCUT
100
AcDbLine
 10
199.9695594118807
 20
-409.2952002657236
 30
0.0
 11
209.0345417867952
 21
-400.2302178908096
 31
0.0
1001
GradientColor1ACI
1070
     5
1001
GradientColor2ACI
1070
     2
1001
ACAD
1010
0.0
1020
0.0
1030
0.0
  0
LINE
  5
190
330
2
100
AcDbEntity
  8
ENDCUT
100
AcDbLine
 10
209.0345417867952
 20
-400.2302178908096
 30
0.0
 11
212.0345417867934
 21
-397.2302178908101
 31
0.0
1001
GradientColor1ACI
1070
     5
1001
GradientColor2ACI
1070
     2
1001
ACAD
1010
0.0
1020
0.0
1030
0.0
  0
LINE
  5
191
330
2
100
AcDbEntity
  8
ENDCUT
100
AcDbLine
 10
199.9695594118807
 20
-410.3558604375036
 30
0.0
 11
210.0952019585752
 21
-400.2302178908096
 31
0.0
1001
GradientColor1ACI
1070
     5
1001
GradientColor2ACI
1070
     2
1001
ACAD
1010
0.0
1020
0.0
1030
0.0
  0
LINE
  5
192
330
2
100
AcDbEntity
  8
ENDCUT
100
AcDbLine
 10
210.0952019585752
 20
-400.2302178908096
 30
0.0
 11
213.0952019585743
 21
-397.2302178908101
 31
0.0
1001
GradientColor1ACI
1070
     5
1001
GradientColor2ACI
1070
     2
1001
ACAD
1010
0.0
1020
0.0
1030
0.0
  0
LINE
  5
193
330
2
100
AcDbEntity
  8
ENDCUT
100
AcDbLine
 10
199.9695594118807
 20
-411.4165206092832
 30
0.0
 11
211.1558621303552
 21
-400.2302178908096
 31
0.0
1001
GradientColor1ACI
1070
     5
1001
GradientColor2ACI
1070
     2
1001
ACAD
1010
0.0
1020
0.0
1030
0.0
  0
LINE
  5
194
330
2
100
AcDbEntity
  8
ENDCUT
100
AcDbLine
 10
211.1558621303552
 20
-400.2302178908096
 30
0.0
 11
214.1216424811696
 21
-397.2644375399952
 31
0.0
1001
GradientColor1ACI
1070
     5
1001
GradientColor2ACI
1070
     2
1001
ACAD
1010
0.0
1020
0.0
1030
0.0
  0
LINE
  5
195
330
2
100
AcDbEntity
  8
ENDCUT
100
AcDbLine
 10
199.9695594118807
 20
-412.4771807810632
 30
0.0
 11
205.9695594118634
 21
-406.4771807810809
 31
0.0
1001
GradientColor1ACI
1070
     5
1001
GradientColor2ACI
1070
     2
1001
ACAD
1010
0.0
1020
0.0
1030
0.0
  0
LINE
  5
196
330
2
100
AcDbEntity
  8
ENDCUT
100
AcDbLine
 10
199.9695594118807
 20
-413.5378409528432
 30
0.0
 11
205.9695594118634
 21
-407.5378409528609
 31
0.0
1001
GradientColor1ACI
1070
     5
1001
GradientColor2ACI
1070
     2
1001
ACAD
1010
0.0
1020
0.0
1030
0.0
  0
LINE
  5
197
330
2
100
AcDbEntity
  8
ENDCUT
100
AcDbLine
 10
199.9695594118807
 20
-414.5985011246227
 30
0.0
 11
205.9695594118634
 21
-408.598501124641
 31
0.0
1001
GradientColor1ACI
1070
     5
1001
GradientColor2ACI
1070
     2
1001
ACAD
1010
0.0
1020
0.0
1030
0.0
  0
LINE
  5
198
330
2
100
AcDbEntity
  8
ENDCUT
100
AcDbLine
 10
199.9695594118798
 20
-415.6591612964027
 30
0.0
 11
205.9695594118616
 21
-409.6591612964204
 31
0.0
1001
GradientColor1ACI
1070
     5
1001
GradientColor2ACI
1070
     2
1001
ACAD
1010
0.0
1020
0.0
1030
0.0
  0
LINE
  5
199
330
2
100
AcDbEntity
  8
ENDCUT
100
AcDbLine
 10
199.9695594118798
 20
-416.7198214681823
 30
0.0
 11
205.9695594118616
 21
-410.7198214682004
 31
0.0
1001
GradientColor1ACI
1070
     5
1001
GradientColor2ACI
1070
     2
1001
ACAD
1010
0.0
1020
0.0
1030
0.0
  0
LINE
  5
19A
330
2
100
AcDbEntity
  8
ENDCUT
100
AcDbLine
 10
199.9695594118798
 20
-417.7804816399623
 30
0.0
 11
205.9695594118616
 21
-411.7804816399805
 31
0.0
1001
GradientColor1ACI
1070
     5
1001
GradientColor2ACI
1070
     2
1001
ACAD
1010
0.0
1020
0.0
1030
0.0
  0
LINE
  5
19B
330
2
100
AcDbEntity
  8
ENDCUT
100
AcDbLine
 10
199.9695594118807
 20
-418.8411418117418
 30
0.0
 11
205.9695594118616
 21
-412.8411418117605
 31
0.0
1001
GradientColor1ACI
1070
     5
1001
GradientColor2ACI
1070
     2
1001
ACAD
1010
0.0
1020
0.0
1030
0.0
  0
LINE
  5
19C
330
2
100
AcDbEntity
  8
ENDCUT
100
AcDbLine
 10
199.9695594118807
 20
-419.9018019835218
 30
0.0
 11
205.9695594118616
 21
-413.90180198354
 31
0.0
1001
GradientColor1ACI
1070
     5
1001
GradientColor2ACI
1070
     2
1001
ACAD
1010
0.0
1020
0.0
1030
0.0
  0
LINE
  5
19D
330
2
100
AcDbEntity
  8
ENDCUT
100
AcDbLine
 10
199.9695594118807
 20
-420.9624621553014
 30
0.0
 11
205.9695594118616
 21
-414.9624621553195
 31
0.0
1001
GradientColor1ACI
1070
     5
1001
GradientColor2ACI
1070
     2
1001
ACAD
1010
0.0
1020
0.0
1030
0.0
  0
LINE
  5
19E
330
2
100
AcDbEntity
  8
ENDCUT
100
AcDbLine
 10
199.9695594118807
 20
-422.0231223270814
 30
0.0
 11
205.9695594118616
 21
-416.0231223270995
 31
0.0
1001
GradientColor1ACI
1070
     5
1001
GradientColor2ACI
1070
     2
1001
ACAD
1010
0.0
1020
0.0
1030
0.0
  0
LINE
  5
19F
330
2
100
AcDbEntity
  8
ENDCUT
100
AcDbLine
 10
199.9695594118807
 20
-423.0837824988614
 30
0.0
 11
205.9695594118616
 21
-417.0837824988796
 31
0.0
1001
GradientColor1ACI
1070
     5
1001
GradientColor2ACI
1070
     2
1001
ACAD
1010
0.0
1020
0.0
1030
0.0
  0
LINE
  5
1A0
330
2
100
AcDbEntity
  8
ENDCUT
100
AcDbLine
 10
199.9695594118807
 20
-424.1444426706413
 30
0.0
 11
205.9695594118616
 21
-418.1444426706596
 31
0.0
1001
GradientColor1ACI
1070
     5
1001
GradientColor2ACI
1070
     2
1001
ACAD
1010
0.0
1020
0.0
1030
0.0
  0
LINE
  5
1A1
330
2
100
AcDbEntity
  8
ENDCUT
100
AcDbLine
 10
199.9695594118807
 20
-425.2051028424209
 30
0.0
 11
205.9695594118616
 21
-419.2051028424391
 31
0.0
1001
GradientColor1ACI
1070
     5
1001
GradientColor2ACI
1070
     2
1001
ACAD
1010
0.0
1020
0.0
1030
0.0
  0
LINE
  5
1A2
330
2
100
AcDbEntity
  8
ENDCUT
100
AcDbLine
 10
199.9695594118807
 20
-426.2657630142005
 30
0.0
 11
205.9695594118616
 21
-420.2657630142191
 31
0.0
1001
GradientColor1ACI
1070
     5
1001
GradientColor2ACI
1070
     2
1001
ACAD
1010
0.0
1020
0.0
1030
0.0
  0
LINE
  5
1A3
330
2
100
AcDbEntity
  8
ENDCUT
100
AcDbLine
 10
199.9695594118807
 20
-427.3264231859805
 30
0.0
 11
205.9695594118616
 21
-421.3264231859991
 31
0.0
1001
GradientColor1ACI
1070
     5
1001
GradientColor2ACI
1070
     2
1001
ACAD
1010
0.0
1020
0.0
1030
0.0
  0
LINE
  5
1A4
330
2
100
AcDbEntity
  8
ENDCUT
100
AcDbLine
 10
199.9695594118807
 20
-428.3870833577605
 30
0.0
 11
205.9695594118634
 21
-422.3870833577791
 31
0.0
1001
GradientColor1ACI
1070
     5
1001
GradientColor2ACI
1070
     2
1001
ACAD
1010
0.0
1020
0.0
1030
0.0
  0
LINE
  5
1A5
330
2
100
AcDbEntity
  8
ENDCUT
100
AcDbLine
 10
199.9695594118807
 20
-429.44774352954
 30
0.0
 11
205.9695594118634
 21
-423.4477435295587
 31
0.0
1001
GradientColor1ACI
1070
     5
1001
GradientColor2ACI
1070
     2
1001
ACAD
1010
0.0
1020
0.0
1030
0.0
  0
LINE
  5
1A6
330
2
100
AcDbEntity
  8
ENDCUT
100
AcDbLine
 10
200.6203202852425
 20
-429.8576428279591
 30
0.0
 11
205.9695594118634
 21
-424.5084037013382
 31
0.0
1001
GradientColor1ACI
1070
     5
1001
GradientColor2ACI
1070
     2
1001
ACAD
1010
0.0
1020
0.0
1030
0.0
  0
LINE
  5
1A7
330
2
100
AcDbEntity
  8
ENDCUT
100
AcDbLine
 10
201.9947906645334
 20
-429.5438326204464
 30
0.0
 11
205.9695594118616
 21
-425.5690638731182
 31
0.0
1001
GradientColor1ACI
1070
     5
1001
GradientColor2ACI
1070
     2
1001
ACAD
1010
0.0
1020
0.0
1030
0.0
  0
LINE
  5
1A8
330
2
100
AcDbEntity
  8
ENDCUT
100
AcDbLine
 10
203.1176042715647
 20
-429.4816791851947
 30
0.0
 11
205.9695594118616
 21
-426.6297240448982
 31
0.0
1001
GradientColor1ACI
1070
     5
1001
GradientColor2ACI
1070
     2
1001
ACAD
1010
0.0
1020
0.0
1030
0.0
  0
LINE
  5
1A9
330
2
100
AcDbEntity
  8
ENDCUT
100
AcDbLine
 10
204.0948297004383
 20
-429.5651139281005
 30
0.0
 11
205.9695594118616
 21
-427.6903842166777
 31
0.0
1001
GradientColor1ACI
1070
     5
1001
GradientColor2ACI
1070
     2
1001
ACAD
1010
0.0
1020
0.0
1030
0.0
  0
LINE
  5
1AA
330
2
100
AcDbEntity
  8
ENDCUT
100
AcDbLine
 10
204.9689661718062
 20
-429.7516376285131
 30
0.0
 11
205.9695594118616
 21
-428.7510443884578
 31
0.0
1001
GradientColor1ACI
1070
     5
1001
GradientColor2ACI
1070
     2
1001
ACAD
1010
0.0
1020
0.0
1030
0.0
  0
LINE
  5
1AB
330
2
100
AcDbEntity
  8
ENDCUT
100
AcDbLine
 10
205.7618665114937
 20
-430.0193974606056
 30
0.0
 11
205.9695594118616
 21
-429.8117045602378
 31
0.0
1001
GradientColor1ACI
1070
     5
1001
GradientColor2ACI
1070
     2
1001
ACAD
1010
0.0
1020
0.0
1030
0.0
  0
LWPOLYLINE
  5
1AC
330
2
100
AcDbEntity
  8
ENDCUT
100
AcDbPolyline
 90
        8
 70
     0
 43
0.0
 10
199.9695594118798
 20
-430.1063543483694
 10
199.9695594118798
 20
-406.2302178908037
 10
191.6865442599769
 20
-397.9472027389077
 42
-0.6681786379194558
 10
191.9835291080749
 20
-397.2302178908092
 10
213.9555897156811
 20
-397.2302178908092
 42
-0.6681786379197896
 10
214.252574563779
 20
-397.9472027389081
 10
205.9695594118616
 20
-406.2302178908037
 10
205.9695594118616
 20
-430.1063543483694
  0
CIRCLE
  5
1AD
330
2
100
AcDbEntity
  8
PKG-OUT
 48
0.5
100
AcDbCircle
 10
202.9695594118698
 20
-409.7663345460534
 30
0.0
 40
28.551183314583
  0
LWPOLYLINE
  5
1AE
330
2
100
AcDbEntity
  8
LF-LINE
100
AcDbPolyline
 90
        6
 70
     0
 43
0.0
 10
176.0579903791936
 20
-400.2302178908092
 10
199.90925637385
 20
-400.2302178908092
 10
202.54529534316
 20
-402.8662568601164
 42
0.4142135623727419
 10
203.3938234805823
 20
-402.8662568601168
 10
206.0298624498969
 20
-400.2302178908092
 10
229.881128444546
 20
-400.2302178908092
  0
SOLID
  5
1AF
330
2
100
AcDbEntity
  8
DIM
100
AcDbTrace
 10
395.2760987626311
 20
-237.6792379844725
 30
0.0
 11
391.0760987626311
 21
-238.3792379844726
 31
0.0
 12
391.0760987626311
 22
-236.9792379844723
 32
0.0
 13
391.0760987626311
 23
-236.9792379844723
 33
0.0
  0
LINE
  5
1B0
330
2
100
AcDbEntity
  8
DIM
100
AcDbLine
 10
400.8760987626296
 20
-237.6792379844725
 30
0.0
 11
395.2760987626311
 21
-237.6792379844725
 31
0.0
  0
SOLID
  5
1B1
330
2
100
AcDbEntity
  8
DIM
100
AcDbTrace
 10
400.8760987626296
 20
-237.6792379844725
 30
0.0
 11
405.0760987626297
 21
-238.3792379844727
 31
0.0
 12
405.0760987626297
 22
-236.9792379844724
 32
0.0
 13
405.0760987626297
 23
-236.9792379844724
 33
0.0
  0
LINE
  5
1B2
330
2
100
AcDbEntity
  8
DIM
100
AcDbLine
 10
405.0760987626297
 20
-237.6792379844725
 30
0.0
 11
409.2760987626297
 21
-237.6792379844725
 31
0.0
  0
LINE
  5
1B3
330
2
100
AcDbEntity
  8
DIM
100
AcDbLine
 10
360.3303121484582
 20
-237.6792379844725
 30
0.0
 11
391.0760987626311
 21
-237.6792379844725
 31
0.0
  0
MTEXT
  5
1B4
330
2
100
AcDbEntity
  8
DIM
100
AcDbMText
 10
369.8733117554489
 20
-234.7392379844724
 30
0.0
 40
3.5
 41
0.0
 46
0.0
 71
     5
 72
     1
  1
5.6000
  7
SIMPLEX
 73
     1
 44
1.0
  0
MTEXT
  5
1B5
330
2
100
AcDbEntity
  8
DIM
100
AcDbMText
 10
386.1012423828384
 20
-233.2680088438515
 30
0.0
 40
2.520000000000063
 41
0.0
 46
0.0
 71
     5
 72
     1
  1
%%P0.075
  7
SIMPLEX
 73
     1
 44
1.0
  0
ENDSEC
  0
SECTION
  2
OBJECTS
  0
DICTIONARY
  5
B
330
0
100
AcDbDictionary
281
     1
  3
ACAD_COLOR
350
54
  3
ACAD_GROUP
350
41
  3
ACAD_LAYOUT
350
19
  3
ACAD_MATERIAL
350
D
  3
ACAD_MLEADERSTYLE
350
57
  3
ACAD_MLINESTYLE
350
42
  3
ACAD_PLOTSETTINGS
350
43
  3
ACAD_PLOTSTYLENAME
350
A
  3
ACAD_SCALELIST
350
55
  3
ACAD_TABLESTYLE
350
56
  3
ACAD_VISUALSTYLE
350
2E
  3
ACDB_RECOMPOSE_DATA
350
1B9
  3
AcDbVariableDictionary
350
58
  0
DICTIONARY
  5
30
330
2B
100
AcDbDictionary
280
     1
281
     1
  0
DICTIONARY
  5
21
330
20
100
AcDbDictionary
280
     1
281
     1
  3
ACAD_LAYERSTATES
360
22
  0
DICTIONARY
  5
7
330
6
100
AcDbDictionary
280
     1
281
     1
  3
ADSK_XREC_LAYER_RECONCILED
360
8
  0
DICTIONARY
  5
83
330
82
100
AcDbDictionary
280
     1
281
     1
  3
ADSK_XREC_LAYER_RECONCILED
360
84
  0
DICTIONARY
  5
7E
330
7D
100
AcDbDictionary
280
     1
281
     1
  3
ADSK_XREC_LAYER_RECONCILED
360
7F
  0
DICTIONARY
  5
168
330
167
100
AcDbDictionary
280
     1
281
     1
  3
ADSK_XREC_LAYER_RECONCILED
360
169
  0
DICTIONARY
  5
8B
330
8A
100
AcDbDictionary
280
     1
281
     1
  3
ADSK_XREC_LAYER_RECONCILED
360
8C
  0
DICTIONARY
  5
3
330
2
100
AcDbDictionary
280
     1
281
     1
  3
ACAD_SORTENTS
360
1B6
  0
DICTIONARY
  5
54
102
{ACAD_REACTORS
330
B
102
}
330
B
100
AcDbDictionary
281
     1
  0
DICTIONARY
  5
41
102
{ACAD_REACTORS
330
B
102
}
330
B
100
AcDbDictionary
281
     1
  0
DICTIONARY
  5
19
102
{ACAD_REACTORS
330
B
102
}
330
B
100
AcDbDictionary
281
     1
  3
Layout1
350
1F
  3
Model
350
18
  0
DICTIONARY
  5
D
102
{ACAD_REACTORS
330
B
102
}
330
B
100
AcDbDictionary
281
     1
  3
ByBlock
350
4C
  3
ByLayer
350
44
  3
Global
350
C
  0
DICTIONARY
  5
57
102
{ACAD_REACTORS
330
B
102
}
330
B
100
AcDbDictionary
281
     1
  0
DICTIONARY
  5
42
102
{ACAD_REACTORS
330
B
102
}
330
B
100
AcDbDictionary
281
     1
  3
Standard
350
66
  0
DICTIONARY
  5
43
102
{ACAD_REACTORS
330
B
102
}
330
B
100
AcDbDictionary
281
     1
  0
ACDBDICTIONARYWDFLT
  5
A
102
{ACAD_REACTORS
330
B
102
}
330
B
100
AcDbDictionary
281
     1
  3
Normal
350
9
100
AcDbDictionaryWithDefault
340
9
  0
DICTIONARY
  5
55
102
{ACAD_REACTORS
330
B
102
}
330
B
100
AcDbDictionary
281
     1
  3
A0
350
6B
  3
A1
350
6C
  3
A2
350
6D
  3
A3
350
6E
  3
A4
350
6F
  3
A5
350
70
  3
A6
350
71
  3
A7
350
72
  3
A8
350
73
  3
A9
350
74
  3
B0
350
75
  3
B1
350
76
  3
B2
350
77
  3
B3
350
78
  3
B4
350
79
  3
B5
350
7A
  3
B6
350
7B
  0
DICTIONARY
  5
56
102
{ACAD_REACTORS
330
B
102
}
330
B
100
AcDbDictionary
281
     1
  3
Standard
350
67
  0
DICTIONARY
  5
2E
102
{ACAD_REACTORS
330
B
102
}
330
B
100
AcDbDictionary
281
     1
  3
2dWireframe
350
2D
  3
EdgeColorOff
350
88
  3
Realistic
350
69
  3
Wireframe
350
6A
  0
XRECORD
  5
1B9
102
{ACAD_REACTORS
330
B
102
}
330
B
100
AcDbXrecord
280
     1
 90
        1
330
67
  0
DICTIONARY
  5
58
102
{ACAD_REACTORS
330
B
102
}
330
B
100
AcDbDictionary
281
     1
  3
CANNOSCALE
350
59
  3
CMLEADERSTYLE
350
5A
  3
CTABLESTYLE
350
5B
  3
CVIEWDETAILSTYLE
350
5C
  3
CVIEWSECTIONSTYLE
350
5D
  3
DIMASSOC
350
5E
  3
HIDETEXT
350
5F
  3
INDEXCTL
350
60
  3
LAYEREVAL
350
61
  3
LAYERNOTIFY
350
62
  3
LIGHTINGUNITS
350
63
  3
MSLTSCALE
350
64
  3
SORTENTS
350
65
  0
DICTIONARY
  5
22
102
{ACAD_REACTORS
330
21
102
}
330
21
100
AcDbDictionary
281
     1
  0
XRECORD
  5
8
102
{ACAD_REACTORS
330
7
102
}
330
7
100
AcDbXrecord
280
     1
290
     1
  0
XRECORD
  5
84
102
{ACAD_REACTORS
330
83
102
}
330
83
100
AcDbXrecord
280
     1
290
     1
  0
XRECORD
  5
7F
102
{ACAD_REACTORS
330
7E
102
}
330
7E
100
AcDbXrecord
280
     1
290
     1
  0
XRECORD
  5
169
102
{ACAD_REACTORS
330
168
102
}
330
168
100
AcDbXrecord
280
     1
290
     1
  0
XRECORD
  5
8C
102
{ACAD_REACTORS
330
8B
102
}
330
8B
100
AcDbXrecord
280
     1
290
     1
  0
SORTENTSTABLE
  5
1B6
102
{ACAD_REACTORS
330
3
102
}
330
3
100
AcDbSortentsTable
330
2
  0
LAYOUT
  5
1F
102
{ACAD_REACTORS
330
19
102
}
330
19
100
AcDbPlotSettings
  1

  2
None
  4

  6

 40
0.0
 41
0.0
 42
0.0
 43
0.0
 44
0.0
 45
0.0
 46
0.0
 47
0.0
 48
0.0
 49
0.0
140
0.0
141
0.0
142
1.0
143
1.0
 70
   688
 72
     0
 73
     0
 74
     0
  7
monochrome.ctb
 75
     0
147
1.0
 76
     0
 77
     2
 78
   300
148
0.0
149
0.0
100
AcDbLayout
  1
Layout1
 70
     0
 71
     1
 10
0.0
 20
0.0
 11
0.0
 21
0.0
 12
0.0
 22
0.0
 32
0.0
 14
0.0
 24
0.0
 34
0.0
 15
0.0
 25
0.0
 35
0.0
146
0.0
 13
0.0
 23
0.0
 33
0.0
 16
1.0
 26
0.0
 36
0.0
 17
0.0
 27
1.0
 37
0.0
 76
     0
330
1C
  0
LAYOUT
  5
18
102
{ACAD_XDICTIONARY
360
1A
102
}
102
{ACAD_REACTORS
330
19
102
}
330
19
100
AcDbPlotSettings
  1

  2
none_device
  4
Letter_(8.50_x_11.00_Inches)
  6

 40
6.349999904632568
 41
6.349999904632568
 42
6.350006103515625
 43
6.350006103515625
 44
215.8999938964844
 45
279.3999938964844
 46
0.0
 47
0.0
 48
0.0
 49
0.0
140
0.0
141
0.0
142
1.0
143
71.03944667326949
 70
 11952
 72
     0
 73
     1
 74
     0
  7
monochrome.ctb
 75
     0
147
0.0140766862191267
 76
     0
 77
     2
 78
   300
148
755.5901977165722
149
-2398.225375238066
100
AcDbLayout
  1
Model
 70
     1
 71
     0
 10
0.0
 20
0.0
 11
0.0
 21
0.0
 12
0.0
 22
0.0
 32
0.0
 14
5.000000000000015
 24
8.999999999999943
 34
0.0
 15
388.0000000000001
 25
281.0
 35
0.0
146
0.0
 13
0.0
 23
0.0
 33
0.0
 16
1.0
 26
0.0
 36
0.0
 17
0.0
 27
1.0
 37
0.0
 76
     0
330
2
331
2C
1001
ACAD_PSEXT
1000
无
1000
无
1000
不可用
1000
在选择新的绘图仪配置名称之前，不能打印该布局。
1070
     0
  0
MATERIAL
  5
4C
102
{ACAD_XDICTIONARY
360
4D
102
}
102
{ACAD_REACTORS
330
D
102
}
330
D
100
AcDbMaterial
  1
ByBlock
 72
     0
 43
0.0208333333333333
 43
0.0
 43
0.0
 43
0.0
 43
0.0
 43
0.0208333333333333
 43
0.0
 43
0.0
 43
0.0
 43
0.0
 43
1.0
 43
0.0
 43
0.0
 43
0.0
 43
0.0
 43
1.0
 77
     0
 47
0.0208333333333333
 47
0.0
 47
0.0
 47
0.0
 47
0.0
 47
0.0208333333333333
 47
0.0
 47
0.0
 47
0.0
 47
0.0
 47
1.0
 47
0.0
 47
0.0
 47
0.0
 47
0.0
 47
1.0
171
     0
 49
0.0208333333333333
 49
0.0
 49
0.0
 49
0.0
 49
0.0
 49
0.0208333333333333
 49
0.0
 49
0.0
 49
0.0
 49
0.0
 49
1.0
 49
0.0
 49
0.0
 49
0.0
 49
0.0
 49
1.0
175
     0
142
0.0208333333333333
142
0.0
142
0.0
142
0.0
142
0.0
142
0.0208333333333333
142
0.0
142
0.0
142
0.0
142
0.0
142
1.0
142
0.0
142
0.0
142
0.0
142
0.0
142
1.0
179
     0
144
0.0208333333333333
144
0.0
144
0.0
144
0.0
144
0.0
144
0.0208333333333333
144
0.0
144
0.0
144
0.0
144
0.0
144
1.0
144
0.0
144
0.0
144
0.0
144
0.0
144
1.0
147
0.0208333333333333
147
0.0
147
0.0
147
0.0
147
0.0
147
0.0208333333333333
147
0.0
147
0.0
147
0.0
147
0.0
147
1.0
147
0.0
147
0.0
147
0.0
147
0.0
147
1.0
  0
MATERIAL
  5
44
102
{ACAD_XDICTIONARY
360
45
102
}
102
{ACAD_REACTORS
330
D
102
}
330
D
100
AcDbMaterial
  1
ByLayer
 72
     0
 43
0.0208333333333333
 43
0.0
 43
0.0
 43
0.0
 43
0.0
 43
0.0208333333333333
 43
0.0
 43
0.0
 43
0.0
 43
0.0
 43
1.0
 43
0.0
 43
0.0
 43
0.0
 43
0.0
 43
1.0
 77
     0
 47
0.0208333333333333
 47
0.0
 47
0.0
 47
0.0
 47
0.0
 47
0.0208333333333333
 47
0.0
 47
0.0
 47
0.0
 47
0.0
 47
1.0
 47
0.0
 47
0.0
 47
0.0
 47
0.0
 47
1.0
171
     0
 49
0.0208333333333333
 49
0.0
 49
0.0
 49
0.0
 49
0.0
 49
0.0208333333333333
 49
0.0
 49
0.0
 49
0.0
 49
0.0
 49
1.0
 49
0.0
 49
0.0
 49
0.0
 49
0.0
 49
1.0
175
     0
142
0.0208333333333333
142
0.0
142
0.0
142
0.0
142
0.0
142
0.0208333333333333
142
0.0
142
0.0
142
0.0
142
0.0
142
1.0
142
0.0
142
0.0
142
0.0
142
0.0
142
1.0
179
     0
144
0.0208333333333333
144
0.0
144
0.0
144
0.0
144
0.0
144
0.0208333333333333
144
0.0
144
0.0
144
0.0
144
0.0
144
1.0
144
0.0
144
0.0
144
0.0
144
0.0
144
1.0
147
0.0208333333333333
147
0.0
147
0.0
147
0.0
147
0.0
147
0.0208333333333333
147
0.0
147
0.0
147
0.0
147
0.0
147
1.0
147
0.0
147
0.0
147
0.0
147
0.0
147
1.0
  0
MATERIAL
  5
C
102
{ACAD_XDICTIONARY
360
E
102
}
102
{ACAD_REACTORS
330
D
102
}
330
D
100
AcDbMaterial
  1
Global
 72
     0
 43
0.0208333333333333
 43
0.0
 43
0.0
 43
0.0
 43
0.0
 43
0.0208333333333333
 43
0.0
 43
0.0
 43
0.0
 43
0.0
 43
1.0
 43
0.0
 43
0.0
 43
0.0
 43
0.0
 43
1.0
 77
     0
 47
0.0208333333333333
 47
0.0
 47
0.0
 47
0.0
 47
0.0
 47
0.0208333333333333
 47
0.0
 47
0.0
 47
0.0
 47
0.0
 47
1.0
 47
0.0
 47
0.0
 47
0.0
 47
0.0
 47
1.0
171
     0
 49
0.0208333333333333
 49
0.0
 49
0.0
 49
0.0
 49
0.0
 49
0.0208333333333333
 49
0.0
 49
0.0
 49
0.0
 49
0.0
 49
1.0
 49
0.0
 49
0.0
 49
0.0
 49
0.0
 49
1.0
175
     0
142
0.0208333333333333
142
0.0
142
0.0
142
0.0
142
0.0
142
0.0208333333333333
142
0.0
142
0.0
142
0.0
142
0.0
142
1.0
142
0.0
142
0.0
142
0.0
142
0.0
142
1.0
179
     0
144
0.0208333333333333
144
0.0
144
0.0
144
0.0
144
0.0
144
0.0208333333333333
144
0.0
144
0.0
144
0.0
144
0.0
144
1.0
144
0.0
144
0.0
144
0.0
144
0.0
144
1.0
147
0.0208333333333333
147
0.0
147
0.0
147
0.0
147
0.0
147
0.0208333333333333
147
0.0
147
0.0
147
0.0
147
0.0
147
1.0
147
0.0
147
0.0
147
0.0
147
0.0
147
1.0
  0
MLINESTYLE
  5
66
102
{ACAD_REACTORS
330
42
102
}
330
42
100
AcDbMlineStyle
  2
STANDARD
 70
     0
  3

 62
   256
 51
90.0
 52
90.0
 71
     2
 49
0.5
 62
   256
  6
BYLAYER
 49
-0.5
 62
   256
  6
BYLAYER
  0
ACDBPLACEHOLDER
  5
9
102
{ACAD_REACTORS
330
A
102
}
330
A
  0
SCALE
  5
6B
102
{ACAD_REACTORS
330
55
102
}
330
55
100
AcDbScale
 70
     0
300
1:1
140
1.0
141
1.0
290
     1
  0
SCALE
  5
6C
102
{ACAD_REACTORS
330
55
102
}
330
55
100
AcDbScale
 70
     0
300
1/128" = 1'-0"
140
0.0078125
141
12.0
290
     0
  0
SCALE
  5
6D
102
{ACAD_REACTORS
330
55
102
}
330
55
100
AcDbScale
 70
     0
300
1/64" = 1'-0"
140
0.015625
141
12.0
290
     0
  0
SCALE
  5
6E
102
{ACAD_REACTORS
330
55
102
}
330
55
100
AcDbScale
 70
     0
300
1/32" = 1'-0"
140
0.03125
141
12.0
290
     0
  0
SCALE
  5
6F
102
{ACAD_REACTORS
330
55
102
}
330
55
100
AcDbScale
 70
     0
300
1/16" = 1'-0"
140
0.0625
141
12.0
290
     0
  0
SCALE
  5
70
102
{ACAD_REACTORS
330
55
102
}
330
55
100
AcDbScale
 70
     0
300
3/32" = 1'-0"
140
0.09375
141
12.0
290
     0
  0
SCALE
  5
71
102
{ACAD_REACTORS
330
55
102
}
330
55
100
AcDbScale
 70
     0
300
1/8" = 1'-0"
140
0.125
141
12.0
290
     0
  0
SCALE
  5
72
102
{ACAD_REACTORS
330
55
102
}
330
55
100
AcDbScale
 70
     0
300
3/16" = 1'-0"
140
0.1875
141
12.0
290
     0
  0
SCALE
  5
73
102
{ACAD_REACTORS
330
55
102
}
330
55
100
AcDbScale
 70
     0
300
1/4" = 1'-0"
140
0.25
141
12.0
290
     0
  0
SCALE
  5
74
102
{ACAD_REACTORS
330
55
102
}
330
55
100
AcDbScale
 70
     0
300
3/8" = 1'-0"
140
0.375
141
12.0
290
     0
  0
SCALE
  5
75
102
{ACAD_REACTORS
330
55
102
}
330
55
100
AcDbScale
 70
     0
300
1/2" = 1'-0"
140
0.5
141
12.0
290
     0
  0
SCALE
  5
76
102
{ACAD_REACTORS
330
55
102
}
330
55
100
AcDbScale
 70
     0
300
3/4" = 1'-0"
140
0.75
141
12.0
290
     0
  0
SCALE
  5
77
102
{ACAD_REACTORS
330
55
102
}
330
55
100
AcDbScale
 70
     0
300
1" = 1'-0"
140
1.0
141
12.0
290
     0
  0
SCALE
  5
78
102
{ACAD_REACTORS
330
55
102
}
330
55
100
AcDbScale
 70
     0
300
1-1/2" = 1'-0"
140
1.5
141
12.0
290
     0
  0
SCALE
  5
79
102
{ACAD_REACTORS
330
55
102
}
330
55
100
AcDbScale
 70
     0
300
3" = 1'-0"
140
3.0
141
12.0
290
     0
  0
SCALE
  5
7A
102
{ACAD_REACTORS
330
55
102
}
330
55
100
AcDbScale
 70
     0
300
6" = 1'-0"
140
6.0
141
12.0
290
     0
  0
SCALE
  5
7B
102
{ACAD_REACTORS
330
55
102
}
330
55
100
AcDbScale
 70
     0
300
1'-0" = 1'-0"
140
12.0
141
12.0
290
     0
  0
TABLESTYLE
  5
67
102
{ACAD_XDICTIONARY
360
68
102
}
102
{ACAD_REACTORS
330
56
102
}
330
56
100
AcDbTableStyle
280
     0
  3
Standard
 70
     0
 71
     0
 40
0.06
 41
0.06
280
     0
281
     0
  7
Standard
140
0.18
170
     2
 62
     0
 63
     7
283
     0
 90
        4
 91
        0
  1

274
    -2
284
     1
 64
     0
275
    -2
285
     1
 65
     0
276
    -2
286
     1
 66
     0
277
    -2
287
     1
 67
     0
278
    -2
288
     1
 68
     0
279
    -2
289
     1
 69
     0
  7
Standard
140
0.25
170
     5
 62
     0
 63
     7
283
     0
 90
        4
 91
        0
  1

274
    -2
284
     1
 64
     0
275
    -2
285
     1
 65
     0
276
    -2
286
     1
 66
     0
277
    -2
287
     1
 67
     0
278
    -2
288
     1
 68
     0
279
    -2
289
     1
 69
     0
  7
Standard
140
0.18
170
     5
 62
     0
 63
     7
283
     0
 90
        4
 91
        0
  1

274
    -2
284
     1
 64
     0
275
    -2
285
     1
 65
     0
276
    -2
286
     1
 66
     0
277
    -2
287
     1
 67
     0
278
    -2
288
     1
 68
     0
279
    -2
289
     1
 69
     0
  0
VISUALSTYLE
  5
2D
102
{ACAD_REACTORS
330
2E
102
}
330
2E
100
AcDbVisualStyle
  2
2dWireframe
 70
     4
177
     3
291
     0
 70
    58
 90
        0
176
     1
 90
        2
176
     1
 90
        0
176
     1
 90
        0
176
     1
 40
0.6
176
     1
 40
30.0
176
     1
 62
     7
176
     1
 90
        1
176
     1
 90
        4
176
     1
 62
     7
176
     1
 62
   257
176
     1
 90
        1
176
     1
 90
        1
176
     1
 40
1.0
176
     1
 90
        0
176
     1
 62
   257
176
     1
 40
1.0
176
     1
 90
        1
176
     1
 90
        6
176
     1
 90
        2
176
     1
 62
     7
176
     1
 90
        5
176
     1
 90
        0
176
     1
 90
        0
176
     1
290
     0
176
     1
 90
        1
176
     1
 40
0.0
176
     1
 90
        0
176
     1
290
     1
176
     1
290
     1
176
     1
290
     0
176
     1
290
     0
176
     1
290
     0
176
     1
290
     0
176
     1
290
     0
176
     1
290
     0
176
     1
290
     0
176
     1
 90
       50
176
     1
 40
0.0
176
     1
 40
1.0
176
     1
 90
        0
176
     1
 62
    18
420
        0
176
     1
 90
       50
176
     1
 90
        3
176
     1
 62
     5
420
      255
176
     1
290
     0
176
     1
 90
       50
176
     1
 90
       50
176
     1
 90
       50
176
     1
290
     0
176
     1
 90
       50
176
     1
 62
   256
176
     0
 40
1.0
176
     0
 90
        2
176
     1
  1
strokes_ogs.tif
176
     1
290
     0
176
     1
 40
1.0
176
     1
 40
1.0
176
     1
  0
VISUALSTYLE
  5
88
102
{ACAD_REACTORS
330
2E
102
}
330
2E
100
AcDbVisualStyle
  2
EdgeColorOff
 70
    22
177
     3
291
     1
 70
    58
 90
        2
176
     0
 90
        2
176
     0
 90
        0
176
     0
 90
        0
176
     0
 40
0.6
176
     0
 40
30.0
176
     0
 62
     7
176
     0
 90
        1
176
     0
 90
        4
176
     0
 62
     7
176
     0
 62
   257
176
     0
 90
        1
176
     0
 90
        1
176
     0
 40
1.0
176
     0
 90
        8
176
     2
 62
     7
176
     0
 40
1.0
176
     0
 90
        1
176
     0
 90
        6
176
     0
 90
        2
176
     0
 62
     7
176
     0
 90
        5
176
     0
 90
        0
176
     0
 90
        0
176
     0
290
     0
176
     0
 90
        1
176
     0
 40
0.0
176
     0
 90
        0
176
     0
290
     0
176
     0
290
     1
176
     0
290
     1
176
     0
290
     0
176
     0
290
     0
176
     0
290
     0
176
     0
290
     0
176
     0
290
     0
176
     0
290
     0
176
     0
 90
       50
176
     0
 40
0.0
176
     0
 40
1.0
176
     0
 90
        0
176
     0
 62
    18
420
        0
176
     0
 90
       50
176
     0
 90
        3
176
     0
 62
     5
420
      255
176
     0
290
     0
176
     0
 90
       50
176
     0
 90
       50
176
     0
 90
       50
176
     0
290
     0
176
     0
 90
       50
176
     0
 62
   256
176
     0
 40
1.0
176
     0
 90
        2
176
     0
  1
strokes_ogs.tif
176
     0
290
     0
176
     0
 40
1.0
176
     0
 40
1.0
176
     0
  0
VISUALSTYLE
  5
69
102
{ACAD_REACTORS
330
2E
102
}
330
2E
100
AcDbVisualStyle
  2
Realistic
 70
     8
177
     3
291
     0
 70
    58
 90
        2
176
     1
 90
        2
176
     1
 90
        0
176
     1
 90
        2
176
     1
 40
0.6
176
     1
 40
30.0
176
     1
 62
     7
176
     1
 90
        0
176
     1
 90
        0
176
     1
 62
     7
176
     1
 62
   257
176
     1
 90
        1
176
     1
 90
        1
176
     1
 40
1.0
176
     1
 90
        8
176
     1
 62
   257
176
     1
 40
1.0
176
     1
 90
        1
176
     1
 90
        6
176
     1
 90
        2
176
     1
 62
     7
176
     1
 90
        3
176
     1
 90
        0
176
     1
 90
        0
176
     1
290
     0
176
     1
 90
       13
176
     1
 40
0.0
176
     1
 90
        0
176
     1
290
     0
176
     1
290
     1
176
     1
290
     1
176
     1
290
     0
176
     1
290
     0
176
     1
290
     0
176
     1
290
     0
176
     1
290
     0
176
     1
290
     0
176
     1
 90
       50
176
     1
 40
0.0
176
     1
 40
1.0
176
     1
 90
        0
176
     1
 62
    18
420
        0
176
     1
 90
       50
176
     1
 90
        3
176
     1
 62
     5
420
      255
176
     1
290
     0
176
     1
 90
       50
176
     1
 90
       50
176
     1
 90
       50
176
     1
290
     0
176
     1
 90
       50
176
     1
 62
   256
176
     0
 40
1.0
176
     0
 90
        2
176
     1
  1
strokes_ogs.tif
176
     1
290
     0
176
     1
 40
1.0
176
     1
 40
1.0
176
     1
  0
VISUALSTYLE
  5
6A
102
{ACAD_REACTORS
330
2E
102
}
330
2E
100
AcDbVisualStyle
  2
Wireframe
 70
     5
177
     3
291
     0
 70
    58
 90
        0
176
     1
 90
        2
176
     1
 90
        0
176
     1
 90
        0
176
     1
 40
0.6
176
     1
 40
30.0
176
     1
 62
     7
176
     1
 90
        1
176
     1
 90
        4
176
     1
 62
     7
176
     1
 62
   257
176
     1
 90
        1
176
     1
 90
        1
176
     1
 40
1.0
176
     1
 90
        0
176
     1
 62
   257
176
     1
 40
1.0
176
     1
 90
        1
176
     1
 90
        6
176
     1
 90
        2
176
     1
 62
     7
176
     1
 90
        3
176
     1
 90
        0
176
     1
 90
        0
176
     1
290
     0
176
     1
 90
        1
176
     1
 40
0.0
176
     1
 90
        0
176
     1
290
     0
176
     1
290
     1
176
     1
290
     1
176
     1
290
     0
176
     1
290
     0
176
     1
290
     0
176
     1
290
     0
176
     1
290
     0
176
     1
290
     0
176
     1
 90
       50
176
     1
 40
0.0
176
     1
 40
1.0
176
     1
 90
        0
176
     1
 62
    18
420
        0
176
     1
 90
       50
176
     1
 90
        3
176
     1
 62
     5
420
      255
176
     1
290
     0
176
     1
 90
       50
176
     1
 90
       50
176
     1
 90
       50
176
     1
290
     0
176
     1
 90
       50
176
     1
 62
   256
176
     0
 40
1.0
176
     0
 90
        2
176
     1
  1
strokes_ogs.tif
176
     1
290
     0
176
     1
 40
1.0
176
     1
 40
1.0
176
     1
  0
DICTIONARYVAR
  5
59
102
{ACAD_REACTORS
330
58
102
}
330
58
100
DictionaryVariables
280
     0
  1
1:1
  0
DICTIONARYVAR
  5
5A
102
{ACAD_REACTORS
330
58
102
}
330
58
100
DictionaryVariables
280
     0
  1
STANDARD
  0
DICTIONARYVAR
  5
5B
102
{ACAD_REACTORS
330
58
102
}
330
58
100
DictionaryVariables
280
     0
  1
STANDARD
  0
DICTIONARYVAR
  5
5C
102
{ACAD_REACTORS
330
58
102
}
330
58
100
DictionaryVariables
280
     0
  1

  0
DICTIONARYVAR
  5
5D
102
{ACAD_REACTORS
330
58
102
}
330
58
100
DictionaryVariables
280
     0
  1

  0
DICTIONARYVAR
  5
5E
102
{ACAD_REACTORS
330
58
102
}
330
58
100
DictionaryVariables
280
     0
  1
0
  0
DICTIONARYVAR
  5
5F
102
{ACAD_REACTORS
330
58
102
}
330
58
100
DictionaryVariables
280
     0
  1
1
  0
DICTIONARYVAR
  5
60
102
{ACAD_REACTORS
330
58
102
}
330
58
100
DictionaryVariables
280
     0
  1
0
  0
DICTIONARYVAR
  5
61
102
{ACAD_REACTORS
330
58
102
}
330
58
100
DictionaryVariables
280
     0
  1
1
  0
DICTIONARYVAR
  5
62
102
{ACAD_REACTORS
330
58
102
}
330
58
100
DictionaryVariables
280
     0
  1
15
  0
DICTIONARYVAR
  5
63
102
{ACAD_REACTORS
330
58
102
}
330
58
100
DictionaryVariables
280
     0
  1
0
  0
DICTIONARYVAR
  5
64
102
{ACAD_REACTORS
330
58
102
}
330
58
100
DictionaryVariables
280
     0
  1
0
  0
DICTIONARYVAR
  5
65
102
{ACAD_REACTORS
330
58
102
}
330
58
100
DictionaryVariables
280
     0
  1
127
  0
DICTIONARY
  5
1A
330
18
100
AcDbDictionary
280
     1
281
     1
  0
DICTIONARY
  5
4D
330
4C
100
AcDbDictionary
280
     1
281
     1
  3
BUMPTILE
360
4E
  3
DIFFUSETILE
360
4F
  3
OPACITYTILE
360
50
  3
REFLECTIONTILE
360
51
  3
REFRACTIONTILE
360
52
  3
SPECULARTILE
360
53
  0
DICTIONARY
  5
45
330
44
100
AcDbDictionary
280
     1
281
     1
  3
BUMPTILE
360
46
  3
DIFFUSETILE
360
47
  3
OPACITYTILE
360
48
  3
REFLECTIONTILE
360
49
  3
REFRACTIONTILE
360
4A
  3
SPECULARTILE
360
4B
  0
DICTIONARY
  5
E
330
C
100
AcDbDictionary
280
     1
281
     1
  3
BUMPTILE
360
F
  3
DIFFUSETILE
360
10
  3
FBXASSET
360
11
  3
OPACITYTILE
360
12
  3
REFLECTIONTILE
360
13
  3
REFRACTIONTILE
360
14
  3
SPECULARTILE
360
15
  0
DICTIONARY
  5
68
330
67
100
AcDbDictionary
280
     1
281
     1
  3
ACAD_ROUNDTRIP_2008_TABLESTYLE_CELLSTYLEMAP
360
1B8
  0
XRECORD
  5
4E
102
{ACAD_REACTORS
330
4D
102
}
330
4D
100
AcDbXrecord
280
     1
270
     1
271
     1
  0
XRECORD
  5
4F
102
{ACAD_REACTORS
330
4D
102
}
330
4D
100
AcDbXrecord
280
     1
270
     1
271
     1
  0
XRECORD
  5
50
102
{ACAD_REACTORS
330
4D
102
}
330
4D
100
AcDbXrecord
280
     1
270
     1
271
     1
  0
XRECORD
  5
51
102
{ACAD_REACTORS
330
4D
102
}
330
4D
100
AcDbXrecord
280
     1
270
     1
271
     1
  0
XRECORD
  5
52
102
{ACAD_REACTORS
330
4D
102
}
330
4D
100
AcDbXrecord
280
     1
270
     1
271
     1
  0
XRECORD
  5
53
102
{ACAD_REACTORS
330
4D
102
}
330
4D
100
AcDbXrecord
280
     1
270
     1
271
     1
  0
XRECORD
  5
46
102
{ACAD_REACTORS
330
45
102
}
330
45
100
AcDbXrecord
280
     1
270
     1
271
     1
  0
XRECORD
  5
47
102
{ACAD_REACTORS
330
45
102
}
330
45
100
AcDbXrecord
280
     1
270
     1
271
     1
  0
XRECORD
  5
48
102
{ACAD_REACTORS
330
45
102
}
330
45
100
AcDbXrecord
280
     1
270
     1
271
     1
  0
XRECORD
  5
49
102
{ACAD_REACTORS
330
45
102
}
330
45
100
AcDbXrecord
280
     1
270
     1
271
     1
  0
XRECORD
  5
4A
102
{ACAD_REACTORS
330
45
102
}
330
45
100
AcDbXrecord
280
     1
270
     1
271
     1
  0
XRECORD
  5
4B
102
{ACAD_REACTORS
330
45
102
}
330
45
100
AcDbXrecord
280
     1
270
     1
271
     1
  0
XRECORD
  5
F
102
{ACAD_REACTORS
330
E
102
}
330
E
100
AcDbXrecord
280
     1
270
     1
271
     1
  0
XRECORD
  5
10
102
{ACAD_REACTORS
330
E
102
}
330
E
100
AcDbXrecord
280
     1
270
     1
271
     1
  0
XRECORD
  5
11
102
{ACAD_REACTORS
330
E
102
}
330
E
100
AcDbXrecord
280
     1
 70
     1
 90
1959938040
 71
     1
  1
93F86CFE-B8B5-4A69-8A3C-C66EBEBB7DE6
311
504B03041400060808005B82ED526001F9FADA000000200100004F00000042314336434244452D354641382D343544422D413133312D3443454430324341383246382F4173736574446174612F446566696E6974696F6E4974657261746F7250726F706572746965732E62696E454E3D4FC330107519A81818F8075577E37C
311
B8B589DA2257A69D608189A5BA3AD712C949AA38911819F9D7E013453DE9DDBBCF77F7CD18FB395B0CD928E22BFADBC85B6CB0ABDCABFBC01AD835557CBB073FBEF4AE6248A9C5030CBEA7ADE72A38F41E1A6C877077199DD4D04739F0F7B47413F15F08A470FC3B46F75F22E82562284FC5238480FD521CF69FC248FB60F2
311
4DCED55CAFB99CAD2DD7CA4A6EA4514FC62A6D322D3A0CEDD0390C2213C9EEACBC3B35C7AA5C2DFAAAC64903352EA7AEC3F853395D654996F244F1347F4BE745AA8B997C5F089AFC05504B03041400060808005B82ED528145A71312010000300200004500000042314336434244452D354641382D343544422D413133312D
311
3443454430324341383246382F4173736574446174612F496E7374616E636550726F706572746965732E62696E6D51BB4EC33014350F8905503FA2439165A9A91D379E92D87158B255DD58A2245219E85021B17A64E33FFA07AC7C03DDF9842CCCE5DA7915A5473ABEF71E9F634BF63B42E8D8025A740134B0DE417DACB6D5
311
EEB958159BEA259F8220681A70956A2203E91316734182982AA238D7524BB94C34BF198236423D96E8852F88CF18258C2F3C225399106F49E78A2B25622DC0E6EE450F4F1F5FBFB3EF10EA256806D8CDAEC20CA8C3C68DD024421327B9651A0DFDD90E820DFAE6AC0DC4DE505FC164806DF4A7ADB7208D61DF71D8E90F1919
311
CBCF68A4FD13C6517BF4ECC45387D730D9DFBA07AEDEF2D76243E42EDF96556977ACBFC3C1605000EBBD93B22C3B5A9E62BF6E2C086173E80218DB602B606C337F504B03041400060808005B82ED5228BB58AF800100009E0500003D00000042314336434244452D354641382D343544422D413133312D3443454430324341
311
383246382F536368656D61732F436F6D6D6F6E536368656D612E786D6CBD544D4FC23018BEFB2B96DE15493C78601010A34B880709DEDFB52FD0D8B54BD70DF6EFED3AC0B12E6442E2716BFB3CEFF3D18E26FB440405EA8C2B1992E1C323095052C5B8DC842437EBFB673219DF8DA659866649B798C078B48AE6410122242F
311
2A4994AC7F93815DF85C049C8564CA0A901499DD886B2EB9B1E02448F358701A9235880C49A0119892A20C89D1B9FD768815CAD268CB5E0355B40B1E47F3E37A2020464BED06AA57CE8FCC20C3C3446D46761A2632A8C1283D07031EFF2AE7CCB1BFEEE916E406DFAC8E36FFD99A9D60A6944090EEDC3B670C7DC13DE86B6B
311
2C5C240D6E503BB85ACD579D513F1B9F9A69DC9CC22AFA80C426D40AF0B21EA168559156B6276F0F726A6BFF04DCD513A87A62CAD41FB24FCB2858B3952E3D852084DA25B9303C15687973CC8E8AAE11DF2836C38C6A9E765E8C1BA1BFB1DC29CDFE518C8B5A7655A4ED7E77291ABEB80DBD82EC866ADE1B8D05AF9E35CF09
311
D7A061F38A986D9EC412B8F0F65E5D81534D9B231D1E5A8FE577A241F3A5FD01504B03041400060808005B82ED522CCEBD668A040000E01200003E00000042314336434244452D354641382D343544422D413133312D3443454430324341383246382F536368656D61732F47656E65726963536368656D612E786D6CD5586D
311
6FDB380CFE7EBF42F0F7A649B70E1B90744856B4970F450FCD7A5F05459613EDE4174872DADCAF3F522F8ED3B88D2F1D06AC4050DBA2493EE4438AF2F8EB73AEC8466823CB62928C06C384888297A92C5693A4B6D9D9E7E4EBD51FE3A931C22EF85AE4EC6AFC38BF261BA626C9AD288496DC3F4FCEAFC63366845F7A10452A
311
F41DB320C0D44EC26EAB20918735565582695670811A6A49643A49A6E9069FA4604A64B29016DC4B48552F95E4932463CA888468C1D2B250DB4962750DF7CE273069CE8363F1FF4EDB00E0A21999574AE4A2B00C353B93F3BD4777B8A61ED8F604ABFEDD79CE56A2B7BDFBDBC50996E0ADDE16FED26223C5D30956C29BDF4A
311
55EA686E5E58B112DA45CE67F76F4FA27EFA3FB672FD7372FC388FAECDCA5209E693CAD167BADCD272F943701B3812F8A3D852008B1D2E32DB927B2F833C6EA95879925356D254582695095A3CE982924720BE5774A3CB9CDCDB350427D2DF20DA1B5532EBE2D5D6288D75D4F7E4FD9890A0EF8E3D93EBB8F8BA4758158EF6
311
FB90A6F9520281C93DE7AAC6D24607DA296BB96018123F821A7D6A5C5884050C475DA4865442732C8B95684A50165CBB3A32F25F783A4A480ED59AD7F924B968AEA50131F46303223E6A397B0E52976030DC1DCA81D7E7C1EDEEA42C19FF27635C505E2BD5198A599020DF50A2330FCB3AAF28CB0124108429553EF1B22880
311
2E2265D8F7CC2401042B155BCC7070F1E5C55F13B4A9577362CCCE46C32174E010C3C378C44841A4BDA00FE3A12006CE11EE6AEC59894D3526DDE1CD59D503ECC324017F8061B7F162162FA62EDD81AE3308617770796DCBDAD2B2625C5AE8A63DE20B2C8AA5E95E76E5730823955956E33E705425A2187C185D36489A1B44
311
D3DCEC2172F6BA2105C3546287A7194B2331768EBBE64F6E70A9930ABE0ADEA89E9E2C38523B810287AD67A54A039C1606EAFE68F8304610BB9093DBDDABC0B2AE4E290DCDA15376D7E39F72B556F0B32EAB5D3D498B4C41ABADEC3A1434C422D87E8025A84BDCB2B1417ED750FAE4DA8976863974C577C7F902D3F156AD35
311
4DEA3540DE6BEAE2BEA52F7A2EB4CA43802ECE5BF2CE2EDC9347179FFB023CE412E60BE16DA0BE29B374988A553F561DC04615DD35F7D2C8979F60E5955CE93DF29DED8AFA1EE6642D53418086C03C47C377910F75F7E8F5EF665F70B60FFB22AEDF897D119E8423C773E819A3C1E55E550599EE6EDCA34D0C86FD72057DF2
311
CD46F16A470682471C164E4346D5306BF12D7D12D82CFF673D41636C347443FEB51B50D72EA171A8E4A58623A4A16E0FA2B8B10A0D23268D87C33896EE8FB73305A74BF224EDBADFA0BD674AB354D63DB7BD5D83426761C077DE767728235446A552754EB93B755891C3C4CC6CADE37CF0E912A7BB38DBA010F9DE1282EDF4
311
70CA69A9CDA482E334C4A6EA4107987980B17E72F31730EBF88BBD39E7C629F56797A3C0009C2C5AE7951D9A05A02773440F02EEB4DE396A3B6A570C72CCFBCD823B0B8ED3F1D5CEDDFED772FA70236C83FB7D86C385D570B87107535572A60A96035F8F7C6A7192F13007246BBE0521855E6AC46F3E27689CEE7D186A6FD6
311
79D98CDCAD13333E04EBE7ED6F55FF01504B03041400060808005B82ED526180134D5F0100006B0300004500000042314336434244452D354641382D343544422D413133312D3443454430324341383246382F536368656D61732F52656E6465724D6174657269616C536368656D612E786D6CA5934D6FC2300C86EFFB1551
311
EEE343DBA41D1A103009551ADAD40EAE28A4A68D9426284961FCFBE5A340113B2071746D3F765EBF4DC6BFB5407BD0862B49F0B037C0082453059725C18DDD3EBFE3F1E829991803366715D474942CD30FB4A782E00C64017A412D684E454CE3FE28995203B162A6EA5AC94B66997D225E109CD63B0135484BAD1B3C07E908
311
0CA35DB3119C11BCA5C200461A68A1A438126C75E3E230D40FF81FB3F03C91D1E3A3A0AF79FE28E25BC39EC3E17E4C2A2D94A0833A51AF55BCCA7D88572FCBAC529C4140B020FC3AAFA886621DCED7EAD7664CC86024E806DC297DA1BB393E4156543457A4537DB8817349A70F8ACBF09B3EEE2CB2F33E91B65D60786E4E3B
311
39B77E3FEEEF5650424525DA657FB8B46BE6BF064646F0A0F7327C0BC1BC1B4CBBC1C419FA3CCB23500007872A2580CAAE5461865565294E4EDB4617B62FF579DF9A5B2F54E834076A597573A020912FED777F9B3F504B03041400060808005B82ED522036AE8451000000570000004700000042314336434244452D354641
311
382D343544422D413133312D3443454430324341383246382F4173736574446174612F41737365745461626C654F66436F6E74656E74732E62696E53616060B03476B330737673D575B27032D5357134B3D4B5703476D67536337375727572327771351302AACB4D2C492DCA4CCC492C28484D2C4ACC4B4E050A82012F9074
311
4FCD03CA26072767A4E6260200504B03041400060808005B82ED52F865834058000000680000004500000042314336434244452D354641382D343544422D413133312D3443454430324341383246382F4173736574446174612F53747265616D56657273696F6E5461626C652E696E66558CBD0A80300C06F73E4B117FB66E
311
451741D041DC5BF98480A492E4FDD18EAEC7DD4555D89EF28DF51A0B1BD8340C4DE7DD848B988C0ACF0649566493F2408C508DDEBB99D5129FF8F1AF8CF5B9503E20FAE5A16B5AF702504B03041400060808005B82ED5206AEE042350100009A0400003600000042314336434244452D354641382D343544422D413133312D
311
3443454430324341383246382F4173736574446174612F636E782E786D6CCD943F4FC33010C5BF4AE43D7652FE5595E30AC1D209242A06B6AB7329561D3BB22F08BE3D769B0154C4D421EBF9DDF9F927BF93EBCFDE161F18A2F1AE6135AF58814EFBD6B87DC346EACA252BD64A06EFE9878C150E7A6C582E3325F7C18FC354
311
6AB183D1E6AA35EE3015EF6344DAC2CEE253F7E01DA1A3C80A6D21C68645FD8E3D7018C9B7180FBC05025EF380D18F41639A44A6C769920E08842D538B6A5197D55D595F6DEBDB55BD5CDD5CBF4991954AEEBCB793DEA4CB821F0A7DBA95A94A8A7CACE418CCA4C96F61EA2F8F7C679C1449A964A490984C1DF435A40E1806
311
6B34504227BC26A43289107A294E62254566F08BC42376C699DCB249C6807C784EF63090C1D911F9CFEBE5C96C5C24701AE7CBE3DCE1E529BC1C7FD0EB2990C7C4CC2D27E70EB971DD0552228E6B2485266F15F50D504B03041400060808005B82ED523D0EE47F080100004F0300003400000042314336434244452D354641
311
382D343544422D413133312D3443454430324341383246382F536368656D61732F636E782E786D6CCD933B5303211485FF0A431F58E22B936149616165A35676C8DE4426C0DDE1E1E8BF17568A64C64E8B7470F88639E77091BB4FEFC807C464318C54B081120806271B0E232D79BFDA50B2533222E6138C92A03D8CB4C954
311
C943C432776982BD2EAEA9CE866317EFD17B0CCFE61DBCA6C4389DD248D3B265BA649C201DD9A4B36682454858A2817A43B61EFA0D2682CE3051B51ED66235DCADC4D58BB8DD8ACDF6E6FA55F2462AF986E83A6F43868833315817A1DA19246FC74A96683BD3325075EA8DD53624AF849229C7DA4127F3D75C493DCFCE1A9D
311
6B557C017F1825798B7A16F80102446B2E33F199B97F8BFC046182F8585F295AED2E33F96F1EFF56005F66BF8E40FB0AEA1B504B03041400060808005B82ED52410A3D5871000000A40000002C00000042314336434244452D354641382D343544422D413133312D3443454430324341383246382F636E782E786D6C55CC4D
311
0E82301086E1AB34B31774E7A22D31F1069E60020334B633A63FC6E34B0909B07DDE2F9FEE7EC1AB2FC5E4840DDC9A2B28E25E06C7938192C7CB1D54677514C9871928C640062A83D55394F2D968A0118BAFEA1DBF377CA444F98919176EAB9FEAAB9F2960DA5BBB1E2ED3FA6FFF504B03041400060808005B82ED52006737
311
AB7F000000A300000007000000636E782E786D6C4D8C4D0E83201805AF42BE3DAD586D5800861FBD87A96848150C95A6C72F342EBA7AC9E4CDB0EEB3ADE86DE3CB05CF815C2A40D63FC2E4FCC2211D33A6803AC16208C7DF0D901F37CBA160106C8921ED279AEC3CA6B5D0D5F9E70915D177AD4C8FDB4152DCB44661496E04
311
37BA3755AD25AD079A8D6B51F2FC7A794B5E7C01504B03041400060808005B82ED5216E99B5DA600000035010000130000005B436F6E74656E745F54797065735D2E786D6C9590410E82301045AFD2740F4517C6180A0BF5065E60AC53688469D30E066F6F91AD9AB89CF9FFFD3F99BA9DC7413C3026E749CB4D59498164FC
311
CD51A7E5C4B6D84BD136F5E5193089ECA5A465CF1C0E4A25D3E308A9F401292BD6C711388FB15301CC1D3A54DBAADA29E38991B8E0254336F5092D4C038BF39CD76B6FC6A538AEBEA54A4B08617006389FA516557DE4AE8E7E70DE30729138228C5F021CD93F02D4FB0DCD0B504B03041400060808005B82ED523DEE336E64
311
000000790000001B0000006175746F6465736B2D64657369676E2D7061636B6167652E786D6C35CBC10E83200C00D05F21DCA56CA76D41FC96062B120735B69A7DBE268BB7777961F8D5AF396893C2ADB70FE7ADA196782C2DF776D7A97B5933C430F15651E5469C55D70F80A4992A3ADC954792C525AE70A1E4D6AD9816CC
311
044FEFDF01FE3FDE907802504B03041400060808005B82ED52F6DA2204F9000000960100003700000042314336434244452D354641382D343544422D413133312D3443454430324341383246382F4173736574446174612F636F72652E786D6C8550CB6E833010FC15B477830D0921917144A9F2053DF566D90EB5126CE447
311
94CFAF1DA8D49E7ADAD5ECCCECEED0F373BE170FE5BCB6A6075262289411566A33F510C31575509C1975D6865F34280C9F550F1906462767E3B241C29AA04C468D956A03B9F72A4021EEA9E9C18B2F35F392C79018FE562E5CDCF8A44A52AE3C4663D472936A99DCF4552B070CB76FC7B1BD6084EB7644BB43DDA0A1230475
311
97611CBBE37E24ED40AB2C6634E8F967BB708A072581D5B826081F10693E487B22DD69BFFBA4556632EA834B3F6F4BF377C0867CF53B0F9C56EBF48F6B5CE4FFAE519BD0D49BEBAAF0C0483AF23560B4CA29A5F28A30D59C28FB06504B03041400060808005B82ED525CFC48C5F70000009401000035000000423143364342
311
44452D354641382D343544422D413133312D3443454430324341383246382F536368656D61732F636F72652E786D6C8550CB6E833010FC15B477830D092191714491F203EDA937CB76A89560233FAA7E7E6DA0527BEA6957B333B3BB43AF5FF3B3F854CE6B6B7A202586421961A536530F31DC5107C59551676DF84583C2F0
311
59F59061607472362E3B24AC09CA64D458A976907BAF0214E2999A1EBCF850332F790C89E11FE5C2C5834FAA24E5C66334462D77A996C94DDFB572C070FB721EDB1B46B86E477438D50D1A3A4250771BC6B13B1F47D20EB4CA6246839E7FB60BA7785012588D6B82F00991E68DB417D25D8E87775A6526A33EB8F4F3BE347F
311
07EC75BDD3D36A9BFDF18C8BFCDF336A139A7AF7DC141E184927AE0346AB9C512A6B80A9E63CD937504B03041400060808005B82ED52BE4B5B1203010000D70100002D00000042314336434244452D354641382D343544422D413133312D3443454430324341383246382F636F72652E786D6C9591CB6EC32010457FC59A3D
311
B6F123B5224CE447F2055D7547CDC44189C132B8EAE7176A576D77ED0A743977863BC34EEFD3237AC3C52AA36BA0710A11EAC148A5C71A567725154427CE1663DC0F0C222D26AC21C8C0D9B89875DEA5C168873AA8DA48DC45612D3A888687BFD460871B4E2216ABF384BDC7B318EE62C498C61BC79953D3977558503894C0
311
B334A3247D22347FA68723AD8E65F1C2924072B62AEDF26C6F86D32BCAC8CCCE47025EB2647BF5D4AAE4CE28E9FFA8AE0A17E02DED0E5DDB9F4979692A52947D4B1A9A535274E73ECDBAA6CA2E952FE2CD9C59B7F8C9EC45C20CFE6ADF8CBF92ADB3FC67B2CD6181D3EF5049183367C9E70EFC1956C23F00504B0304140006
311
0808005B82ED5216FF89D207010000B201000008000000636F72652E786D6C8D504B6EC32014BC0A628F0D76E2381126722DE5045D754781B82836587CA2F6F685844AEDAEAB8766E6BD19869E3FD705DC95F3DA9A01920A43A08CB0529B7980315C510FC19951676DF82583C0F0550D30C390D1D9D9B81548581394C9A8B1
311
5215907BAF020462498F017AF1A1565EF11892C2DFAA8D8B1B9F5545AAA78ED1A0D79F55E1140F4A42D6E086207C40A47D25DD89F4A7FDEE8DD659C9688C5A162B2D93BBBE6AE520C3DDCB71EA2E18E1A69BD0EED0B468EC0941FD659CA6FEB89F4837D23A2F33EA834B7F2E4752CE003CBF675F5A3F2946DFAD5D8A208592
311
C09AE52B99D03A137F42C74DFE23B436A16DCAC1E786878CA4400F2219E706D378D49B666E9B7D03504B010214001400060808005B82ED526001F9FADA000000200100004F000000000000000000000000000000000042314336434244452D354641382D343544422D413133312D3443454430324341383246382F41737365
311
74446174612F446566696E6974696F6E4974657261746F7250726F706572746965732E62696E504B010214001400060808005B82ED528145A713120100003002000045000000000000000000000000004701000042314336434244452D354641382D343544422D413133312D3443454430324341383246382F417373657444
311
6174612F496E7374616E636550726F706572746965732E62696E504B010214001400060808005B82ED5228BB58AF800100009E0500003D00000000000000000000000000BC02000042314336434244452D354641382D343544422D413133312D3443454430324341383246382F536368656D61732F436F6D6D6F6E53636865
311
6D612E786D6C504B010214001400060808005B82ED522CCEBD668A040000E01200003E000000000000000000000000009704000042314336434244452D354641382D343544422D413133312D3443454430324341383246382F536368656D61732F47656E65726963536368656D612E786D6C504B010214001400060808005B
311
82ED526180134D5F0100006B03000045000000000000000000000000007D09000042314336434244452D354641382D343544422D413133312D3443454430324341383246382F536368656D61732F52656E6465724D6174657269616C536368656D612E786D6C504B010214001400060808005B82ED522036AE845100000057
311
00000047000000000000000000000000003F0B000042314336434244452D354641382D343544422D413133312D3443454430324341383246382F4173736574446174612F41737365745461626C654F66436F6E74656E74732E62696E504B010214001400060808005B82ED52F8658340580000006800000045000000000000
311
00000000000000F50B000042314336434244452D354641382D343544422D413133312D3443454430324341383246382F4173736574446174612F53747265616D56657273696F6E5461626C652E696E66504B010214001400060808005B82ED5206AEE042350100009A0400003600000000000000000000000000B00C000042
311
314336434244452D354641382D343544422D413133312D3443454430324341383246382F4173736574446174612F636E782E786D6C504B010214001400060808005B82ED523D0EE47F080100004F0300003400000000000000000000000000390E000042314336434244452D354641382D343544422D413133312D34434544
311
30324341383246382F536368656D61732F636E782E786D6C504B010214001400060808005B82ED52410A3D5871000000A40000002C00000000000000000000000000930F000042314336434244452D354641382D343544422D413133312D3443454430324341383246382F636E782E786D6C504B010214001400060808005B
311
82ED52006737AB7F000000A300000007000000000000000000000000004E100000636E782E786D6C504B010214001400060808005B82ED5216E99B5DA6000000350100001300000000000000000000000000F21000005B436F6E74656E745F54797065735D2E786D6C504B010214001400060808005B82ED523DEE336E6400
311
0000790000001B00000000000000000000000000C91100006175746F6465736B2D64657369676E2D7061636B6167652E786D6C504B010214001400060808005B82ED52F6DA2204F90000009601000037000000000000000000000000006612000042314336434244452D354641382D343544422D413133312D344345443032
311
4341383246382F4173736574446174612F636F72652E786D6C504B010214001400060808005B82ED525CFC48C5F7000000940100003500000000000000000000000000B413000042314336434244452D354641382D343544422D413133312D3443454430324341383246382F536368656D61732F636F72652E786D6C504B01
311
0214001400060808005B82ED52BE4B5B1203010000D70100002D00000000000000000000000000FE14000042314336434244452D354641382D343544422D413133312D3443454430324341383246382F636F72652E786D6C504B010214001400060808005B82ED5216FF89D207010000B20100000800000000000000000000
311
0000004C160000636F72652E786D6C504B050600000000110011005A060000791700000000
310
504B03041400060808005B82ED52000000000000000000000000370000006662782F38424436374444432D463641392D343630442D393832422D4432393539463534333041452F617474726962757465732E62696E504B03041400060808005B82ED52000000000000000000000000350000006662782F3842443637444443
310
2D463641392D343630442D393832422D4432393539463534333041452F76657274696365732E62696E504B03041400060808005B82ED52F270F1330600000004000000360000006662782F38424436374444432D463641392D343630442D393832422D4432393539463534333041452F747269616E676C65732E62696E6366
310
60600000504B03041400060808005B82ED5251464CB48900000043010000360000006662782F38424436374444432D463641392D343630442D393832422D4432393539463534333041452F6469726563746F72792E786D6C9D8F310EC2300C45AF127987122606C71DD918B841D4B851A43646695A717C52A85029031293A5
310
A76FBF6FACEF7DA7264E43906840EF0FA03836E242F406C6DCEE4EA06AC22492573150D1F66C60C640E8938CB705396EEDD86DE9B5042FE27813D640EA63BB001C722AF6E55CB61E4863F58284D5D3F53DD715CE1C3985E63FD7F1B7EBDD617E9F1E504B03041400060808005B82ED52BD5FAEBA38070000201C0000340000
310
006662782F38424436374444432D463641392D343630442D393832422D4432393539463534333041452F6F626A656374732E786D6CDD59596FDB3810FE2B84F665F74192E52B76A1B8F091144691B6A8D1C5BE09B44C39DCE8022925CEFEFA1D52A42CC9B2AD745BA0D80488159A1CCE7C738FDCF7872844CF84719AC4B786
310
63F50C44623FD9D1787F6BE459604E0CF47E865C962459659F81621C915B432C1B3377CF923C554B3B12E03C6CAEDE2FFE42DC273131901F62CE6F0DEE3F92085B38CF921DE14FD60E67D8DA0707CBB18A8D75B27B86D3C7C655296624CE8055588F818AE2C0A9FF0B22D933D7161B6ADBFADDB60D2E6CB3A5E0754669CC33
310
1CFB275C35E8F4BB71357086ABBBFE686A8E86C381391CF71D7371BF5899CECDA0B71C2F97D3F9DDD44033779B2461A98094C43BD0E2AB31735C5B7C538AAF5068E3DB4FE298F80ACDB60D3BA2E852C29B98D48075A468158514B25616061D853FB3AD132835966A686BE1F467D57A93EDDF0002EF62A58C1361E53C63A06B
310
857DE10F3DD72E566B7AA11C4538238CE2108574CB300305C1D642413532C25B04292430935AD4F4AABC82615FF7A5362E833C0C85FF1A33E9691EF823C9B8E48CFE43D891FBEA6DC013489BD3389B2861B3D714484C5D5B2E16DF0DFAEACB02481484780FD602628A4D837E03AFA58805EB9531FB78BF3D6C447C68BF3C65
310
494A58262C4F3AB3F23BADC18A6981F17500A5C0B5AEBB232A5F01FA4F807CC90B7241738C1E8687A1969DE19807098B403BA887CC1EFCE921F178F2E4DAE5E11942B558790E5370DB1F84694D8CDADD154867EE33187DC2064AB88D8F43B0E9071A0B3F07434161024B10EF83EDC198AD2198C2229CC221480FBFAE2D1E11
310
7C147420DE3434D4167E3B284A3B4CD3CF8EBAFA0036C3A85FAAAA26E3397C473F04DFF96AF37193B300FBE44139F68A0434A61924D376866AA0D75CFEDBFA93F4C813796ABB7CB8679F88C0D1A2978DD20B928A0156441E2E5423571E28B87B18E298243957EB6D81CA4FC28479DB57AFF0E1D6BBFED446505C06FE2D2CA0
310
35984176F7194D0528C64C89574642EB88938883CA00F78552BD2DF69F04BC9E0F11EB7BF800ABC5AC49348F520F47491E8BF07D6ADE4DD1AC414FFE38CEB4DF9BF627D3B116964BF2DA7B7468289917F744383D73C9B2A62D153534E5C28F86102DDB24F0A166CA332F49B14FB3765B6808A13C14C0BEC8F28E0641CE21A8
310
B7C2D2E0D81A3823D4ABFC2D2FB9CCBDBAC4A311DE132FC022C3B5DE5703A824AE256845661F269CD3987059A19C44AE062A3D0B024161B79A6A8B1152EE4524C3DF637F32E535CC8F9120F4A096CA44357BDDFA34832A7B9EA3282AB724F6A4FCAF1EC7511A1655DA350C9C7EE386565C05D3E28A67B0370F675E6F4764D1
310
7D8D7A191734BE9DA84FBF9BFC197818FEE9F0E82B2894DE9023AF6BD6B146CE54FC4C20A88C47CEE0462BE21A56FAAA4CD420610E5593FFEABD10BA7FEC16D03ADDC3491878340CF3C82BF241462228C17096B34EFE3A1EF54E94AFE242C3212A3705348402B973D094B587AE3E402A597C9C0B9A956B40281A438FD64990
310
13295A4D58EA42F6A3A2EDBAAEFDB753FDCFF1B2DAA73C91D79784ED5A39AD9711BA02D3058308972AC395762429CFDCAAF345B271B98EC3501351F1ADE812948530F24CC560427640ADFD037FC1990F8174233FCD0578C48EEC8E35458D9C1A731833B85453D3756AB5D3816027D247ADF05A8B801AC1B4018B38FB201EC2
310
AF18540D951FB755556317EB6B91D82C18AC1CF9B840EBF3874D830AAC743EFD4560445E1A14D4EA52147217487D5B1FEBD5060525D1B7F585E3D9631E6D634C456614668177E9BBF7B297BCB5A151B0E7C3D5743EB81F9837E3C9C21C8E606C31B9590DCDF9707E73375FDD4CE6FD89CD084F72E6136EF7ED9EA76BA734DE
310
6BC328A0EBD251C054E17AEBA7EDB9A9E0FF714711265B7CCE167FD586A22CF74441D6F0C5AE0D456BA0DEBEADFA774E02757B127B53E55CCC0AB4815F4E5B108C74BEEF5E5A68D2BA9268E7B99211DF9878CF762B3F3DC7D4027A6B7EA8ED680BF9F5580CB3A7962CA5BB5B19D7A683FBC978797F672E268B91399C8FA7E6
310
643E589ACBF1F86E71B758DCACEE8E2DA1CA855DF3CA2F114335B395311A4C8379125218CA931DDA93043A20983A7488AF2C225C76365000A834AEDF087438FD5CCC5433BC0DF569FF11C3603A541939F761280A5DC7ADA1D6D16F3006159348399CB29E20F1286B3750CEE8AD01269051C82FD616C659727828A937C695A0
310
361CEF45CF549C2AFF3F1E13E880AD1CE52AF774C1454956B34E180EA4F23D01443B5D907CBFE89A1D843378DCE65929CC71E1288D0241BF10288483A9DF9382F70081E7B25C8E25F7D420E93499BF6807055533C36C2FC7EB15BCE7AB2FB6988CAF3FA334CCF7429D97F27D8D9229EA8C302F86502E18861233C5A20F5FBE
310
B3BFB0045E3145E89E8211A0DF0F93F11FF63289A2242E96ECB97A5185368FF0DA6967EB911F142E3D6764CBBA478DF5616EC5898577FC091640B58C8AD9680171CD00CAF0543100AD11A10B3856DBBF5E2195042A256CB57415F0C8993E024712EF7284DB5437540690E00BC05531A72D1FF4826B331882CFFE05504B0304
310
1400060808005B82ED52351127723F01000046050000300000006662782F38424436374444432D463641392D343630442D393832422D4432393539463534333041452F636E782E786D6CCD944D4EC3301085AF62791F27297F55E5B8120B4EC002B1739C693075ECC81E237A7BEC9214102A6251A9DD59E337D2FB669E86AF
310
DF0743DEC007ED6C436B56510256B94EDBBEA11137C59292B5E0DE39FC26A3C4CA011A9ACB54F0DEBB384EA50E36329A5C35DA6EA7A244F4BA8D0881126564080D0DEA0506C96444D741D8B24EA26435F3105CF40A523FEA01A67EE5412274542CAA455D5477457DF558DFAEEAE5EAE6FA9997592978EB9C99F4DA22783712
310
E5D2C32633152FF3B7E0D1EB499309A8F872C65A6D7999FE050FC9ADED271DEEC6AC1B47A395C434A6D229042C9208E4C0CB4FB1E065E6FD41FD70FF343B209DF6A0D0F9DD9906501F1BC0C1184B49F81FFF5EF837B66B5F13EEB9B67D1476B27532D439AD21C5F5F7FE538AA4EDCDE585FE60ECF4994FA704B5BA3CE4D9D7
310
8988CBFDC94B4BCF17507C00504B03041400060808005B82ED52120AB08C7F000000A30000000B0000006662782F636E782E786D6C4D8CD10E822018465F85FDF71499126C80D3C8F770898E85D0485A8F1F342FBAFAB6B3EF1CD17E5687DE26BE6CF0124E0702C8F87B98AC5F24A46DC60C50AB440C61FBBB01F2E36A2414
310
0C4A2C31A4E78E26338FC915EAAC7FEC90F59A5EB4BEE281761CD79468CC59D5635DF1860F4D7D26DD2D1BC7A2E4F9F5F296BCFA02504B03041400060808005B82ED52A6D797065F0000008200000007000000636E782E786D6C4DCB3B0E80201045D1AD90E9FD7516806B51190811670C8A61F982B1B0BAC9C97B72CA7B10
310
37C6D3332918DA1E04D2CAC69353902EDB8C20262D23F3F59B81A079470595414B17391D1F19B4730A5583A7ED43BBE4025D9592775E5ADFFA01504B03041400060808005B82ED524FEB6A7CA0000000F4000000130000005B436F6E74656E745F54797065735D2E786D6C7D8F4B0EC2300C44AF1279DFA6B0400835ED02B8
310
011730C16D239A8F121795DB93D02D6269CFBC19BBED573B8B17C564BC53B0AB1B10E4B47F18372A5878A88E20FAAEBDBD032591BD2E299898C349CAA427B2986A1FC86565F0D122E7318E32A07EE24872DF3407A9BD63725C71C980AEBDD080CBCCE2BAE6F5D69B7110E7CD57AA146008B3D1C8F92C5954F993BB1BF787F3
310
9A89ABC491D09600F9FDA2FB00504B03041400060808005B82ED523DEE336E64000000790000001B0000006175746F6465736B2D64657369676E2D7061636B6167652E786D6C35CBC10E83200C00D05F21DCA56CA76D41FC96062B120735B69A7DBE268BB7777961F8D5AF396893C2ADB70FE7ADA196782C2DF776D7A97B59
310
33C430F15651E5469C55D70F80A4992A3ADC954792C525AE70A1E4D6AD9816CC044FEFDF01FE3FDE907802504B03041400060808005B82ED52F368024DF8000000960100003B0000006662782F38424436374444432D463641392D343630442D393832422D4432393539463534333041452F7265736F75726365732F636F72
310
652E786D6C8550CB6EC32010FC158B3B36F8915811264A1DF90B7AEA0DC1C64189C1E251F5F30BB12BB5A79E16CDCECC32C3CE5FCBB3F804E7B53503A225410518699536F38062B8E11E1567CE9CB5E1170D15462C30A00C23CE6667E3BA43D29A0026A3C62AD841E13D0454C8677A0CC8CB3B2CA2143124867F94AB900F31
310
4349CB8DC7598C5AED52AD929BBE697088D38E764772BDE2898C14B775DDE0CBF8D6E1031D693F35A49D2E845559CC59D0CBCF75E940045088D7A4A6981C316DDEE9E144FB53D77EB02A3339F3C1A5CCFBD19C0E7107DE4627C1B36ADBFE718DABFADF356A139A7A77DD143EE5489F7C2D38AB724B69BC2A4C3337CABF0150
310
4B03041400060808005B82ED529FD6C373F3000000B1010000310000006662782F38424436374444432D463641392D343630442D393832422D4432393539463534333041452F636F72652E786D6C8D50CB6EC32010FC156BEFD8C6AFD811264AEAE60B7AEA0D01715062B07854FDFC42E24AED2DA745B333CCEC90C3F772CF
310
BEA475CAE811705E4226353742E97984E02FA887EC408935C6FFA141A6D92247483050325B13D60DE2467BA913AA8D901BC89C931E327E8F8F111CBFCA85E52CF8C870B77C65FCC66699E3FCC9A3C4ABE557CAAD645E0AA055596154EE10AE3F70B7C7FDBE6D3E4991989484A0C466A544745717252DD0FE3475BB697A43E7
310
EE38A0A62B2734F4D5094DD5D00EE7B6A9CBE33B29929812E76DBC79FB245DF7AAFC29FC9739ACE285CC4AFBBADA0C9F0A0714C73C8F0525452A308E47BB71A6B2E90F504B03041400060808005B82ED52E677F0D753010000DD0200000C0000006662782F636F72652E786D6C8D52CB6EC32010FC158B3B36F8914415264A
310
13E50B7AEA8D60E2A2D86061B0F2F9053FE4FAD0B4B284D1ECCEECCE08727CB64D3408D34BAD4A80630422A1B8AEA4AA4BE0EC1D1E4074A4C4686D7FB48148B1569420C08092DA68D7CD10D7CA0A1550A52B3183ACEF8505116FFCA5043DFF122D8B99B3BEA37FC41DE30F568B18C7531F25CEC96AA6CACAABC9BB1406505C
310
E0628F2E177845670CF334CDE0E9FC5EC01D3EE3C33543F9F5844812C89458D92ED3B911CC8A0AD014A518A23DC4D907DEBDE1C35B917F92247452D25BE33DCF43833B40EFB72749267CA3E7BAEA6F3D2795CDD2596F62F4DE815F6F2C5092847CFC6F0C6F9BA11FECF3B3ECD62C161E1E1A04B7DAE4BE5269B79606D638E1
310
A551347E2499AA5E7914F84D277DA1F35AC307C554ED5763D65F6FCE86E9DB9D3A61E0609F91D2A665CDBADCB4E27AAE833696163AD78D36FF612F56973093F030E937504B03041400060808005B82ED521855032305010000B201000008000000636F72652E786D6C8D50496EC32014BD0A628F0D1E122BC244A9239FA0AB
310
EEA8212E8A0D1643D4DEBE1053A9DD75F5D1FB6FE2D3F3E7BA8087B44E19DD43526008A49E8C507AEE61F037D4417066D41AE37FD120D07C953D4C306474B6266C199A8CF65227541B2133C89D931E8269898F1EBAE943AEBCE0C14786BB171B9FEE7C960529761EA35EAD3FD2C94AEEA580ACC21541F88848FD4A0E27D29D
310
DAE68D9689C968084AE4282562BABA296921232D698FF87A45231E086AAAAA4697E1A5450732906EAC71335E302D939851E76DFC7336893D3D70FC917269B9AF187D3766C984584A00A3972FC8A2435AFC291D36F18FD24AFBBACA86BBC2C5CEB1D0731183D305E3789E37CE746DF60D504B010214001400060808005B82ED
310
520000000000000000000000003700000000000000000000000000000000006662782F38424436374444432D463641392D343630442D393832422D4432393539463534333041452F617474726962757465732E62696E504B010214001400060808005B82ED5200000000000000000000000035000000000000000000000000
310
00550000006662782F38424436374444432D463641392D343630442D393832422D4432393539463534333041452F76657274696365732E62696E504B010214001400060808005B82ED52F270F13306000000040000003600000000000000000000000000A80000006662782F38424436374444432D463641392D343630442D
310
393832422D4432393539463534333041452F747269616E676C65732E62696E504B010214001400060808005B82ED5251464CB489000000430100003600000000000000000000000000020100006662782F38424436374444432D463641392D343630442D393832422D4432393539463534333041452F6469726563746F7279
310
2E786D6C504B010214001400060808005B82ED52BD5FAEBA38070000201C00003400000000000000000000000000DF0100006662782F38424436374444432D463641392D343630442D393832422D4432393539463534333041452F6F626A656374732E786D6C504B010214001400060808005B82ED52351127723F01000046
310
0500003000000000000000000000000000690900006662782F38424436374444432D463641392D343630442D393832422D4432393539463534333041452F636E782E786D6C504B010214001400060808005B82ED52120AB08C7F000000A30000000B00000000000000000000000000F60A00006662782F636E782E786D6C50
310
4B010214001400060808005B82ED52A6D797065F0000008200000007000000000000000000000000009E0B0000636E782E786D6C504B010214001400060808005B82ED524FEB6A7CA0000000F40000001300000000000000000000000000220C00005B436F6E74656E745F54797065735D2E786D6C504B0102140014000608
310
08005B82ED523DEE336E64000000790000001B00000000000000000000000000F30C00006175746F6465736B2D64657369676E2D7061636B6167652E786D6C504B010214001400060808005B82ED52F368024DF8000000960100003B00000000000000000000000000900D00006662782F38424436374444432D463641392D
310
343630442D393832422D4432393539463534333041452F7265736F75726365732F636F72652E786D6C504B010214001400060808005B82ED529FD6C373F3000000B10100003100000000000000000000000000E10E00006662782F38424436374444432D463641392D343630442D393832422D443239353946353433304145
310
2F636F72652E786D6C504B010214001400060808005B82ED52E677F0D753010000DD0200000C00000000000000000000000000231000006662782F636F72652E786D6C504B010214001400060808005B82ED521855032305010000B20100000800000000000000000000000000A0110000636F72652E786D6C504B05060000
310
00000E000E0080040000CB1200000000
  0
XRECORD
  5
12
102
{ACAD_REACTORS
330
E
102
}
330
E
100
AcDbXrecord
280
     1
270
     1
271
     1
  0
XRECORD
  5
13
102
{ACAD_REACTORS
330
E
102
}
330
E
100
AcDbXrecord
280
     1
270
     1
271
     1
  0
XRECORD
  5
14
102
{ACAD_REACTORS
330
E
102
}
330
E
100
AcDbXrecord
280
     1
270
     1
271
     1
  0
XRECORD
  5
15
102
{ACAD_REACTORS
330
E
102
}
330
E
100
AcDbXrecord
280
     1
270
     1
271
     1
  0
CELLSTYLEMAP
  5
1B8
102
{ACAD_REACTORS
330
68
102
}
330
68
100
AcDbCellStyleMap
 90
        3
300
CELLSTYLE
  1
TABLEFORMAT_BEGIN
 90
        5
170
     1
 91
        0
 92
    32768
 62
   257
 93
        1
300
CONTENTFORMAT
  1
CONTENTFORMAT_BEGIN
 90
        0
 91
        0
 92
        4
 93
        0
300

 40
0.0
140
1.0
 94
        5
 62
     0
340
24
144
0.25
309
CONTENTFORMAT_END
171
     0
 94
        6
 95
        1
302
GRIDFORMAT
  1
GRIDFORMAT_BEGIN
 90
        0
 91
        1
 62
     0
 92
       -2
340
0
 93
        0
 40
0.045
309
GRIDFORMAT_END
 95
        2
302
GRIDFORMAT
  1
GRIDFORMAT_BEGIN
 90
        0
 91
        1
 62
     0
 92
       -2
340
0
 93
        0
 40
0.045
309
GRIDFORMAT_END
 95
        4
302
GRIDFORMAT
  1
GRIDFORMAT_BEGIN
 90
        0
 91
        1
 62
     0
 92
       -2
340
0
 93
        0
 40
0.045
309
GRIDFORMAT_END
 95
        8
302
GRIDFORMAT
  1
GRIDFORMAT_BEGIN
 90
        0
 91
        1
 62
     0
 92
       -2
340
0
 93
        0
 40
0.045
309
GRIDFORMAT_END
 95
       16
302
GRIDFORMAT
  1
GRIDFORMAT_BEGIN
 90
        0
 91
        1
 62
     0
 92
       -2
340
0
 93
        0
 40
0.045
309
GRIDFORMAT_END
 95
       32
302
GRIDFORMAT
  1
GRIDFORMAT_BEGIN
 90
        0
 91
        1
 62
     0
 92
       -2
340
0
 93
        0
 40
0.045
309
GRIDFORMAT_END
309
TABLEFORMAT_END
  1
CELLSTYLE_BEGIN
 90
        1
 91
        1
300
_TITLE
309
CELLSTYLE_END
300
CELLSTYLE
  1
TABLEFORMAT_BEGIN
 90
        5
170
     1
 91
        0
 92
        0
 62
   257
 93
        1
300
CONTENTFORMAT
  1
CONTENTFORMAT_BEGIN
 90
        0
 91
        0
 92
        4
 93
        0
300

 40
0.0
140
1.0
 94
        5
 62
     0
340
24
144
0.18
309
CONTENTFORMAT_END
171
     0
 94
        6
 95
        1
302
GRIDFORMAT
  1
GRIDFORMAT_BEGIN
 90
        0
 91
        1
 62
     0
 92
       -2
340
0
 93
        0
 40
0.045
309
GRIDFORMAT_END
 95
        2
302
GRIDFORMAT
  1
GRIDFORMAT_BEGIN
 90
        0
 91
        1
 62
     0
 92
       -2
340
0
 93
        0
 40
0.045
309
GRIDFORMAT_END
 95
        4
302
GRIDFORMAT
  1
GRIDFORMAT_BEGIN
 90
        0
 91
        1
 62
     0
 92
       -2
340
0
 93
        0
 40
0.045
309
GRIDFORMAT_END
 95
        8
302
GRIDFORMAT
  1
GRIDFORMAT_BEGIN
 90
        0
 91
        1
 62
     0
 92
       -2
340
0
 93
        0
 40
0.045
309
GRIDFORMAT_END
 95
       16
302
GRIDFORMAT
  1
GRIDFORMAT_BEGIN
 90
        0
 91
        1
 62
     0
 92
       -2
340
0
 93
        0
 40
0.045
309
GRIDFORMAT_END
 95
       32
302
GRIDFORMAT
  1
GRIDFORMAT_BEGIN
 90
        0
 91
        1
 62
     0
 92
       -2
340
0
 93
        0
 40
0.045
309
GRIDFORMAT_END
309
TABLEFORMAT_END
  1
CELLSTYLE_BEGIN
 90
        2
 91
        1
300
_HEADER
309
CELLSTYLE_END
300
CELLSTYLE
  1
TABLEFORMAT_BEGIN
 90
        5
170
     1
 91
        0
 92
        0
 62
   257
 93
        1
300
CONTENTFORMAT
  1
CONTENTFORMAT_BEGIN
 90
        0
 91
        0
 92
        4
 93
        0
300

 40
0.0
140
1.0
 94
        2
 62
     0
340
24
144
0.18
309
CONTENTFORMAT_END
171
     0
 94
        6
 95
        1
302
GRIDFORMAT
  1
GRIDFORMAT_BEGIN
 90
        0
 91
        1
 62
     0
 92
       -2
340
0
 93
        0
 40
0.045
309
GRIDFORMAT_END
 95
        2
302
GRIDFORMAT
  1
GRIDFORMAT_BEGIN
 90
        0
 91
        1
 62
     0
 92
       -2
340
0
 93
        0
 40
0.045
309
GRIDFORMAT_END
 95
        4
302
GRIDFORMAT
  1
GRIDFORMAT_BEGIN
 90
        0
 91
        1
 62
     0
 92
       -2
340
0
 93
        0
 40
0.045
309
GRIDFORMAT_END
 95
        8
302
GRIDFORMAT
  1
GRIDFORMAT_BEGIN
 90
        0
 91
        1
 62
     0
 92
       -2
340
0
 93
        0
 40
0.045
309
GRIDFORMAT_END
 95
       16
302
GRIDFORMAT
  1
GRIDFORMAT_BEGIN
 90
        0
 91
        1
 62
     0
 92
       -2
340
0
 93
        0
 40
0.045
309
GRIDFORMAT_END
 95
       32
302
GRIDFORMAT
  1
GRIDFORMAT_BEGIN
 90
        0
 91
        1
 62
     0
 92
       -2
340
0
 93
        0
 40
0.045
309
GRIDFORMAT_END
309
TABLEFORMAT_END
  1
CELLSTYLE_BEGIN
 90
        3
 91
        2
300
_DATA
309
CELLSTYLE_END
  0
ENDSEC
  0
SECTION
  2
ACDSDATA
 70
     2
 71
     8
  0
ACDSSCHEMA
 90
        0
  1
AcDb_Thumbnail_Schema
  2
AcDbDs::ID
280
    10
 91
        8
  2
Thumbnail_Data
280
    15
 91
        0
101
ACDSRECORD
 95
        0
 90
        1
  2
AcDbDs::TreatedAsObjectData
280
     1
291
     1
101
ACDSRECORD
 95
        0
 90
        2
  2
AcDbDs::Legacy
280
     1
291
     1
101
ACDSRECORD
  1
AcDbDs::ID
 90
        3
  2
AcDs:Indexable
280
     1
291
     1
101
ACDSRECORD
  1
AcDbDs::ID
 90
        4
  2
AcDbDs::HandleAttribute
280
     7
282
     1
  0
ACDSSCHEMA
 90
        1
  1
AcDbDs::TreatedAsObjectDataSchema
  2
AcDbDs::TreatedAsObjectData
280
     1
 91
        0
  0
ACDSSCHEMA
 90
        2
  1
AcDbDs::LegacySchema
  2
AcDbDs::Legacy
280
     1
 91
        0
  0
ACDSSCHEMA
 90
        3
  1
AcDbDs::IndexedPropertySchema
  2
AcDs:Indexable
280
     1
 91
        0
  0
ACDSSCHEMA
 90
        4
  1
AcDbDs::HandleAttributeSchema
  2
AcDbDs::HandleAttribute
280
     7
 91
        1
284
     1
  0
ACDSRECORD
 90
        0
  2
AcDbDs::ID
280
    10
320
18
  2
Thumbnail_Data
280
    15
 94
     1587
310
89504E470D0A1A0A0000000D49484452000001000000007108030000000DA58D8400000300504C5445212830FFFFFF2128300000000000000000000000000000000000000000000000000000330000660000990000CC0000FF0033000033330033660033990033CC0033FF0066000066330066660066990066CC0066FF0099
310
000099330099660099990099CC0099FF00CC0000CC3300CC6600CC9900CCCC00CCFF00FF0000FF3300FF6600FF9900FFCC00FFFF3300003300333300663300993300CC3300FF3333003333333333663333993333CC3333FF3366003366333366663366993366CC3366FF3399003399333399663399993399CC3399FF33CC00
310
33CC3333CC6633CC9933CCCC33CCFF33FF0033FF3333FF6633FF9933FFCC33FFFF6600006600336600666600996600CC6600FF6633006633336633666633996633CC6633FF6666006666336666666666996666CC6666FF6699006699336699666699996699CC6699FF66CC0066CC3366CC6666CC9966CCCC66CCFF66FF0066
310
FF3366FF6666FF9966FFCC66FFFF9900009900339900669900999900CC9900FF9933009933339933669933999933CC9933FF9966009966339966669966999966CC9966FF9999009999339999669999999999CC9999FF99CC0099CC3399CC6699CC9999CCCC99CCFF99FF0099FF3399FF6699FF9999FFCC99FFFFCC0000CC00
310
33CC0066CC0099CC00CCCC00FFCC3300CC3333CC3366CC3399CC33CCCC33FFCC6600CC6633CC6666CC6699CC66CCCC66FFCC9900CC9933CC9966CC9999CC99CCCC99FFCCCC00CCCC33CCCC66CCCC99CCCCCCCCCCFFCCFF00CCFF33CCFF66CCFF99CCFFCCCCFFFFFF0000FF0033FF0066FF0099FF00CCFF00FFFF3300FF3333
310
FF3366FF3399FF33CCFF33FFFF6600FF6633FF6666FF6699FF66CCFF66FFFF9900FF9933FF9966FF9999FF99CCFF99FFFFCC00FFCC33FFCC66FFCC99FFCCCCFFCCFFFFFF00FFFF33FFFF66FFFF99FFFFCCFFFFFF0000000D0D0D1A1A1A2828283535354343435050505D5D5D6B6B6B787878868686939393A1A1A1AEAEAEBB
310
BBBBC9C9C9D6D6D6E4E4E4F1F1F1FFFFFF0000000000000000000000000000000000000000000000000000000000002E4550F1000002EB4944415478DAEDDD517283201006E03D0E97ECD578F13ABEEE7B47D4088A8875E32EE5673A6D8C0C91CF6515131BA2BB65305DE8FBE58DD730BD7100000000000000000000000000
310
0000000000000000000000000000000000000000000000006E145E4AEB00FC14202A4F38F500EC145B11C0F57B98850654BB112095510CE680AA6E360E201D017F8B08CD08A80AE54377F7000F8784520E286F74695FE7D62C0F5A0298F67F61086F5D39EF149373027990D754F22240D85FE3F30CE0D8099E08BC190193FA
310
383E6ECE39F77C9BC635CADE0308E2120771A936DE1E02620024D4060054004681F0156A4309E079122481269004793D11781780C9500E0080CA1030940401D06A126C7508CC73014100EE15800500580D40F044889FB6F136C07C3D40E08280581B2A57844ABBEEC6353E96B938ACF3DE20D7BE394265A9860104DFDA6A11
310
40A44809000000ED02100000D031404B1B070000000000000040F19CF64B533DFB00DF9DEAB600D0F910600240D70006FA0F000068BD867326FAAF04E0D6D229805B0740A7006ECB00AE4780A9D3E35C422AE80DC0EF4B6F00F32E1F473F0580F7FD45C0D2E330003C750E304580EB1A40FF38000000BC0EE062800ECF0328
310
05C84D1293EBA4945C333D7E8EE8F838F354B22A6951EF54D89F0F801380FC1DE65CD0C903302903846EFB49A0D7D920D9990D2B5E113AE9FD8DAF460811FCEFBE6021AAFC3395E54F78382D4535F76FA02C53ABED0F859FB0E8ED45C065E54FAF935268F6005033E9340FF02304D06404ACA3200E05E94D6F27028E00EB91
310
7C4B89DB62B2AA983C3500D6C4940BCCD31C700A902E7166DDEE1592E7150142922E564E8E02174360A80EBA417F08947253F61F8E70EEDF850C51A57CB7F21F3CF8DCC0623D075C7D72A20A80D2590171720B936D80CB9A69324BB35E66DD495AB407507BBBC890444466E9902EE7E70CE4808BCA950249CD0F1CC593DCE4
310
CEB008609B113705B0658763CD198076B3FC1880F700F3EF9673C062C1370F8A0A43E07F7DDFE02F9C507B03BEE2FC110000000049454E44AE426082426082
  0
ENDSEC
  0
EOF
