  0
SECTION
  2
HEADER
  9
$ACADVER
  1
AC1027
  9
$ACADMAINTVER
 70
105
  9
$DWGCODEPAGE
  3
ANSI_1252
  9
$LASTSAVEDBY
  1
ezdxf
  9
$REQUIREDVERSIONS
160
0
  9
$INSBASE
 10
0.0
 20
0.0
 30
0.0
  9
$EXTMIN
 10
1e+20
 20
1e+20
 30
1e+20
  9
$EXTMAX
 10
-1e+20
 20
-1e+20
 30
-1e+20
  9
$LIMMIN
 10
0.0
 20
0.0
  9
$LIMMAX
 10
420.0
 20
297.0
  9
$ORTHOMODE
 70
0
  9
$REGENMODE
 70
1
  9
$FILLMODE
 70
1
  9
$QTEXTMODE
 70
0
  9
$MIRRTEXT
 70
1
  9
$LTSCALE
 40
1.0
  9
$ATTMODE
 70
1
  9
$TEXTSIZE
 40
2.5
  9
$TRACEWID
 40
1.0
  9
$TEXTSTYLE
  7
Standard
  9
$CLAYER
  8
0
  9
$CELTYPE
  6
ByLayer
  9
$CECOLOR
 62
256
  9
$CELTSCALE
 40
1.0
  9
$DISPSILH
 70
0
  9
$DIMSCALE
 40
1.0
  9
$DIMASZ
 40
2.5
  9
$DIMEXO
 40
0.625
  9
$DIMDLI
 40
3.75
  9
$DIMRND
 40
0.0
  9
$DIMDLE
 40
0.0
  9
$DIMEXE
 40
1.25
  9
$DIMTP
 40
0.0
  9
$DIMTM
 40
0.0
  9
$DIMTXT
 40
2.5
  9
$DIMCEN
 40
2.5
  9
$DIMTSZ
 40
0.0
  9
$DIMTOL
 70
0
  9
$DIMLIM
 70
0
  9
$DIMTIH
 70
0
  9
$DIMTOH
 70
0
  9
$DIMSE1
 70
0
  9
$DIMSE2
 70
0
  9
$DIMTAD
 70
1
  9
$DIMZIN
 70
8
  9
$DIMBLK
  1

  9
$DIMASO
 70
1
  9
$DIMSHO
 70
1
  9
$DIMPOST
  1

  9
$DIMAPOST
  1

  9
$DIMALT
 70
0
  9
$DIMALTD
 70
3
  9
$DIMALTF
 40
0.03937007874
  9
$DIMLFAC
 40
1.0
  9
$DIMTOFL
 70
1
  9
$DIMTVP
 40
0.0
  9
$DIMTIX
 70
0
  9
$DIMSOXD
 70
0
  9
$DIMSAH
 70
0
  9
$DIMBLK1
  1

  9
$DIMBLK2
  1

  9
$DIMSTYLE
  2
ISO-25
  9
$DIMCLRD
 70
0
  9
$DIMCLRE
 70
0
  9
$DIMCLRT
 70
0
  9
$DIMTFAC
 40
1.0
  9
$DIMGAP
 40
0.625
  9
$DIMJUST
 70
0
  9
$DIMSD1
 70
0
  9
$DIMSD2
 70
0
  9
$DIMTOLJ
 70
0
  9
$DIMTZIN
 70
8
  9
$DIMALTZ
 70
0
  9
$DIMALTTZ
 70
0
  9
$DIMUPT
 70
0
  9
$DIMDEC
 70
2
  9
$DIMTDEC
 70
2
  9
$DIMALTU
 70
2
  9
$DIMALTTD
 70
3
  9
$DIMTXSTY
  7
Standard
  9
$DIMAUNIT
 70
0
  9
$DIMADEC
 70
0
  9
$DIMALTRND
 40
0.0
  9
$DIMAZIN
 70
0
  9
$DIMDSEP
 70
44
  9
$DIMATFIT
 70
3
  9
$DIMFRAC
 70
0
  9
$DIMLDRBLK
  1

  9
$DIMLUNIT
 70
2
  9
$DIMLWD
 70
-2
  9
$DIMLWE
 70
-2
  9
$DIMTMOVE
 70
0
  9
$DIMFXL
 40
1.0
  9
$DIMFXLON
 70
0
  9
$DIMJOGANG
 40
0.785398163397
  9
$DIMTFILL
 70
0
  9
$DIMTFILLCLR
 70
0
  9
$DIMARCSYM
 70
0
  9
$DIMLTYPE
  6

  9
$DIMLTEX1
  6

  9
$DIMLTEX2
  6

  9
$DIMTXTDIRECTION
 70
0
  9
$LUNITS
 70
2
  9
$LUPREC
 70
4
  9
$SKETCHINC
 40
1.0
  9
$FILLETRAD
 40
10.0
  9
$AUNITS
 70
0
  9
$AUPREC
 70
2
  9
$MENU
  1
.
  9
$ELEVATION
 40
0.0
  9
$PELEVATION
 40
0.0
  9
$THICKNESS
 40
0.0
  9
$LIMCHECK
 70
0
  9
$CHAMFERA
 40
0.0
  9
$CHAMFERB
 40
0.0
  9
$CHAMFERC
 40
0.0
  9
$CHAMFERD
 40
0.0
  9
$SKPOLY
 70
0
  9
$TDCREATE
 40
2460575.7299421295
  9
$TDUCREATE
 40
2458532.153996898
  9
$TDUPDATE
 40
2460575.7299421295
  9
$TDUUPDATE
 40
2458532.1544311
  9
$TDINDWG
 40
0.0
  9
$TDUSRTIMER
 40
0.0
  9
$USRTIMER
 70
1
  9
$ANGBASE
 50
0.0
  9
$ANGDIR
 70
0
  9
$PDMODE
 70
0
  9
$PDSIZE
 40
0.0
  9
$PLINEWID
 40
0.0
  9
$SPLFRAME
 70
0
  9
$SPLINETYPE
 70
6
  9
$SPLINESEGS
 70
8
  9
$HANDSEED
  5
320
  9
$SURFTAB1
 70
6
  9
$SURFTAB2
 70
6
  9
$SURFTYPE
 70
6
  9
$SURFU
 70
6
  9
$SURFV
 70
6
  9
$UCSBASE
  2

  9
$UCSNAME
  2

  9
$UCSORG
 10
0.0
 20
0.0
 30
0.0
  9
$UCSXDIR
 10
1.0
 20
0.0
 30
0.0
  9
$UCSYDIR
 10
0.0
 20
1.0
 30
0.0
  9
$UCSORTHOREF
  2

  9
$UCSORTHOVIEW
 70
0
  9
$UCSORGTOP
 10
0.0
 20
0.0
 30
0.0
  9
$UCSORGBOTTOM
 10
0.0
 20
0.0
 30
0.0
  9
$UCSORGLEFT
 10
0.0
 20
0.0
 30
0.0
  9
$UCSORGRIGHT
 10
0.0
 20
0.0
 30
0.0
  9
$UCSORGFRONT
 10
0.0
 20
0.0
 30
0.0
  9
$UCSORGBACK
 10
0.0
 20
0.0
 30
0.0
  9
$PUCSBASE
  2

  9
$PUCSNAME
  2

  9
$PUCSORG
 10
0.0
 20
0.0
 30
0.0
  9
$PUCSXDIR
 10
1.0
 20
0.0
 30
0.0
  9
$PUCSYDIR
 10
0.0
 20
1.0
 30
0.0
  9
$PUCSORTHOREF
  2

  9
$PUCSORTHOVIEW
 70
0
  9
$PUCSORGTOP
 10
0.0
 20
0.0
 30
0.0
  9
$PUCSORGBOTTOM
 10
0.0
 20
0.0
 30
0.0
  9
$PUCSORGLEFT
 10
0.0
 20
0.0
 30
0.0
  9
$PUCSORGRIGHT
 10
0.0
 20
0.0
 30
0.0
  9
$PUCSORGFRONT
 10
0.0
 20
0.0
 30
0.0
  9
$PUCSORGBACK
 10
0.0
 20
0.0
 30
0.0
  9
$USERI1
 70
0
  9
$USERI2
 70
0
  9
$USERI3
 70
0
  9
$USERI4
 70
0
  9
$USERI5
 70
0
  9
$USERR1
 40
0.0
  9
$USERR2
 40
0.0
  9
$USERR3
 40
0.0
  9
$USERR4
 40
0.0
  9
$USERR5
 40
0.0
  9
$WORLDVIEW
 70
1
  9
$SHADEDGE
 70
3
  9
$SHADEDIF
 70
70
  9
$TILEMODE
 70
1
  9
$MAXACTVP
 70
64
  9
$PINSBASE
 10
0.0
 20
0.0
 30
0.0
  9
$PLIMCHECK
 70
0
  9
$PEXTMIN
 10
1e+20
 20
1e+20
 30
1e+20
  9
$PEXTMAX
 10
-1e+20
 20
-1e+20
 30
-1e+20
  9
$PLIMMIN
 10
0.0
 20
0.0
  9
$PLIMMAX
 10
420.0
 20
297.0
  9
$UNITMODE
 70
0
  9
$VISRETAIN
 70
1
  9
$PLINEGEN
 70
0
  9
$PSLTSCALE
 70
1
  9
$TREEDEPTH
 70
3020
  9
$CMLSTYLE
  2
Standard
  9
$CMLJUST
 70
0
  9
$CMLSCALE
 40
20.0
  9
$PROXYGRAPHICS
 70
1
  9
$MEASUREMENT
 70
1
  9
$CELWEIGHT
370
-1
  9
$ENDCAPS
280
0
  9
$JOINSTYLE
280
0
  9
$LWDISPLAY
290
0
  9
$INSUNITS
 70
6
  9
$HYPERLINKBASE
  1

  9
$STYLESHEET
  1

  9
$XEDIT
290
1
  9
$CEPSNTYPE
380
0
  9
$PSTYLEMODE
290
1
  9
$FINGERPRINTGUID
  2
{B191BDF8-76A2-4F27-ADE3-4347DCE3DC8B}
  9
$VERSIONGUID
  2
{87271C82-5268-433C-8F8D-BC940D93A8DE}
  9
$EXTNAMES
290
1
  9
$PSVPSCALE
 40
0.0
  9
$OLESTARTUP
290
0
  9
$SORTENTS
280
127
  9
$INDEXCTL
280
0
  9
$HIDETEXT
280
1
  9
$XCLIPFRAME
280
0
  9
$HALOGAP
280
0
  9
$OBSCOLOR
 70
257
  9
$OBSLTYPE
280
0
  9
$INTERSECTIONDISPLAY
280
0
  9
$INTERSECTIONCOLOR
 70
257
  9
$DIMASSOC
280
2
  9
$PROJECTNAME
  1

  9
$CAMERADISPLAY
290
0
  9
$LENSLENGTH
 40
50.0
  9
$CAMERAHEIGHT
 40
0.0
  9
$STEPSPERSEC
 40
24.0
  9
$STEPSIZE
 40
100.0
  9
$3DDWFPREC
 40
2.0
  9
$PSOLWIDTH
 40
0.005
  9
$PSOLHEIGHT
 40
0.08
  9
$LOFTANG1
 40
1.570796326795
  9
$LOFTANG2
 40
1.570796326795
  9
$LOFTMAG1
 40
0.0
  9
$LOFTMAG2
 40
0.0
  9
$LOFTPARAM
 70
7
  9
$LOFTNORMALS
280
1
  9
$LATITUDE
 40
37.795
  9
$LONGITUDE
 40
-122.394
  9
$NORTHDIRECTION
 40
0.0
  9
$TIMEZONE
 70
-8000
  9
$LIGHTGLYPHDISPLAY
280
1
  9
$TILEMODELIGHTSYNCH
280
1
  9
$CMATERIAL
347
20
  9
$SOLIDHIST
280
0
  9
$SHOWHIST
280
1
  9
$DWFFRAME
280
2
  9
$DGNFRAME
280
2
  9
$REALWORLDSCALE
290
1
  9
$INTERFERECOLOR
 62
256
  9
$CSHADOW
280
0
  9
$SHADOWPLANELOCATION
 40
0.0
  0
ENDSEC
  0
SECTION
  2
CLASSES
  0
CLASS
  1
ACDBDICTIONARYWDFLT
  2
AcDbDictionaryWithDefault
  3
ObjectDBX Classes
 90
0
 91
0
280
0
281
0
  0
CLASS
  1
SUN
  2
AcDbSun
  3
SCENEOE
 90
1153
 91
0
280
0
281
0
  0
CLASS
  1
VISUALSTYLE
  2
AcDbVisualStyle
  3
ObjectDBX Classes
 90
4095
 91
0
280
0
281
0
  0
CLASS
  1
MATERIAL
  2
AcDbMaterial
  3
ObjectDBX Classes
 90
1153
 91
0
280
0
281
0
  0
CLASS
  1
SCALE
  2
AcDbScale
  3
ObjectDBX Classes
 90
1153
 91
0
280
0
281
0
  0
CLASS
  1
TABLESTYLE
  2
AcDbTableStyle
  3
ObjectDBX Classes
 90
4095
 91
0
280
0
281
0
  0
CLASS
  1
MLEADERSTYLE
  2
AcDbMLeaderStyle
  3
ACDB_MLEADERSTYLE_CLASS
 90
4095
 91
0
280
0
281
0
  0
CLASS
  1
DICTIONARYVAR
  2
AcDbDictionaryVar
  3
ObjectDBX Classes
 90
0
 91
0
280
0
281
0
  0
CLASS
  1
CELLSTYLEMAP
  2
AcDbCellStyleMap
  3
ObjectDBX Classes
 90
1152
 91
0
280
0
281
0
  0
CLASS
  1
MENTALRAYRENDERSETTINGS
  2
AcDbMentalRayRenderSettings
  3
SCENEOE
 90
1024
 91
0
280
0
281
0
  0
CLASS
  1
ACDBDETAILVIEWSTYLE
  2
AcDbDetailViewStyle
  3
ObjectDBX Classes
 90
1025
 91
0
280
0
281
0
  0
CLASS
  1
ACDBSECTIONVIEWSTYLE
  2
AcDbSectionViewStyle
  3
ObjectDBX Classes
 90
1025
 91
0
280
0
281
0
  0
CLASS
  1
RASTERVARIABLES
  2
AcDbRasterVariables
  3
ISM
 90
0
 91
0
280
0
281
0
  0
CLASS
  1
ACDBPLACEHOLDER
  2
AcDbPlaceHolder
  3
ObjectDBX Classes
 90
0
 91
0
280
0
281
0
  0
CLASS
  1
LAYOUT
  2
AcDbLayout
  3
ObjectDBX Classes
 90
0
 91
0
280
0
281
0
  0
ENDSEC
  0
SECTION
  2
TABLES
  0
TABLE
  2
VPORT
  5
8
330
0
100
AcDbSymbolTable
 70
1
  0
VPORT
  5
23
330
8
100
AcDbSymbolTableRecord
100
AcDbViewportTableRecord
  2
*Active
 70
0
 10
0.0
 20
0.0
 11
1.0
 21
1.0
 12
0.0
 22
0.0
 13
0.0
 23
0.0
 14
0.5
 24
0.5
 15
0.5
 25
0.5
 16
0.0
 26
0.0
 36
1.0
 17
0.0
 27
0.0
 37
0.0
 40
1000.0
 41
1.34
 42
50.0
 43
0.0
 44
0.0
 50
0.0
 51
0.0
 71
0
 72
1000
 73
1
 74
3
 75
0
 76
0
 77
0
 78
0
281
0
 65
0
146
0.0
  0
ENDTAB
  0
TABLE
  2
LTYPE
  5
2
330
0
100
AcDbSymbolTable
 70
3
  0
LTYPE
  5
24
330
2
100
AcDbSymbolTableRecord
100
AcDbLinetypeTableRecord
  2
ByBlock
 70
0
  3

 72
65
 73
0
 40
0.0
  0
LTYPE
  5
25
330
2
100
AcDbSymbolTableRecord
100
AcDbLinetypeTableRecord
  2
ByLayer
 70
0
  3

 72
65
 73
0
 40
0.0
  0
LTYPE
  5
26
330
2
100
AcDbSymbolTableRecord
100
AcDbLinetypeTableRecord
  2
Continuous
 70
0
  3

 72
65
 73
0
 40
0.0
  0
ENDTAB
  0
TABLE
  2
LAYER
  5
1
330
0
100
AcDbSymbolTable
 70
2
  0
LAYER
  5
27
330
1
100
AcDbSymbolTableRecord
100
AcDbLayerTableRecord
  2
0
 70
0
 62
7
  6
Continuous
370
-3
390
13
347
21
  0
LAYER
  5
28
330
1
100
AcDbSymbolTableRecord
100
AcDbLayerTableRecord
  2
Defpoints
 70
0
 62
7
  6
Continuous
290
0
370
-3
390
13
347
21
  0
ENDTAB
  0
TABLE
  2
STYLE
  5
5
330
0
100
AcDbSymbolTable
 70
1
  0
STYLE
  5
29
330
5
100
AcDbSymbolTableRecord
100
AcDbTextStyleTableRecord
  2
Standard
 70
0
 40
0.0
 41
1.0
 50
0.0
 71
0
 42
2.5
  3
txt
  4

  0
ENDTAB
  0
TABLE
  2
VIEW
  5
7
330
0
100
AcDbSymbolTable
 70
0
  0
ENDTAB
  0
TABLE
  2
UCS
  5
6
330
0
100
AcDbSymbolTable
 70
0
  0
ENDTAB
  0
TABLE
  2
APPID
  5
3
330
0
100
AcDbSymbolTable
 70
3
  0
APPID
  5
2A
330
3
100
AcDbSymbolTableRecord
100
AcDbRegAppTableRecord
  2
ACAD
 70
0
  0
APPID
  5
31D
330
3
100
AcDbSymbolTableRecord
100
AcDbRegAppTableRecord
  2
HATCHBACKGROUNDCOLOR
 70
0
  0
APPID
  5
31E
330
3
100
AcDbSymbolTableRecord
100
AcDbRegAppTableRecord
  2
EZDXF
 70
0
  0
ENDTAB
  0
TABLE
  2
DIMSTYLE
  5
4
330
0
100
AcDbSymbolTable
 70
1
100
AcDbDimStyleTable
  0
DIMSTYLE
105
2B
330
4
100
AcDbSymbolTableRecord
100
AcDbDimStyleTableRecord
  2
Standard
 70
0
 40
1.0
 41
2.5
 42
0.625
 43
3.75
 44
1.25
 45
0.0
 46
0.0
 47
0.0
 48
0.0
 49
2.5
140
2.5
141
2.5
142
0.0
143
0.03937007874
144
1.0
145
0.0
146
1.0
147
0.625
148
0.0
 69
0
 70
0
 71
0
 72
0
 73
0
 74
0
 75
0
 76
0
 77
1
 78
8
 79
3
170
0
171
3
172
1
173
0
174
0
175
0
176
0
177
0
178
0
179
2
271
2
272
2
273
2
274
3
275
0
276
0
277
2
278
44
279
0
280
0
281
0
282
0
283
0
284
8
285
0
286
0
288
0
289
3
290
0
371
-2
372
-2
  0
ENDTAB
  0
TABLE
  2
BLOCK_RECORD
  5
9
330
0
100
AcDbSymbolTable
 70
2
  0
BLOCK_RECORD
  5
17
330
9
100
AcDbSymbolTableRecord
100
AcDbBlockTableRecord
  2
*Model_Space
340
1A
 70
0
280
1
281
0
  0
BLOCK_RECORD
  5
1B
330
9
100
AcDbSymbolTableRecord
100
AcDbBlockTableRecord
  2
*Paper_Space
340
1E
 70
0
280
1
281
0
  0
ENDTAB
  0
ENDSEC
  0
SECTION
  2
BLOCKS
  0
BLOCK
  5
18
330
17
100
AcDbEntity
  8
0
100
AcDbBlockBegin
  2
*Model_Space
 70
0
 10
0.0
 20
0.0
 30
0.0
  3
*Model_Space
  1

  0
ENDBLK
  5
19
330
17
100
AcDbEntity
  8
0
100
AcDbBlockEnd
  0
BLOCK
  5
1C
330
1B
100
AcDbEntity
  8
0
100
AcDbBlockBegin
  2
*Paper_Space
 70
0
 10
0.0
 20
0.0
 30
0.0
  3
*Paper_Space
  1

  0
ENDBLK
  5
1D
330
1B
100
AcDbEntity
  8
0
100
AcDbBlockEnd
  0
ENDSEC
  0
SECTION
  2
ENTITIES
  0
LWPOLYLINE
  5
2F
330
17
100
AcDbEntity
  8
0
100
AcDbPolyline
 90
8
 70
0
 10
9.7497939790548
 20
-1.099402364095922
 10
9.7497939790548
 20
-0.9074023640960575
 10
9.653793979054797
 20
-0.8114023640960539
 10
9.429793979054862
 20
-0.8114023640960539
 10
9.429793979054862
 20
0.0525976359039788
 10
9.65379397905491
 20
0.0525976359039788
 10
9.7497939790548
 20
0.1485976359039824
 10
9.7497939790548
 20
0.3405976359038334
  0
LWPOLYLINE
  5
30
330
17
100
AcDbEntity
  8
0
100
AcDbPolyline
 90
7
 70
0
 10
9.973793979054731
 20
0.3405976359038334
 10
9.973793979054731
 20
0.1485976359039398
 10
10.06979397905496
 20
0.0525976359039362
 10
10.29379397905489
 20
0.0525976359039788
 10
10.29379397905489
 20
-0.1714023640960391
 10
10.3897939790549
 20
-0.2674023640960428
 10
10.5817939790549
 20
-0.2674023640960428
  0
LWPOLYLINE
  5
31
330
17
100
AcDbEntity
  8
0
100
AcDbPolyline
 90
7
 70
0
 10
10.5817939790549
 20
-0.4914023640960466
 10
10.3897939790549
 20
-0.4914023640960466
 10
10.29379397905489
 20
-0.5874023640960502
 10
10.29379397905489
 20
-0.8114023640960539
 10
10.06979397905473
 20
-0.8114023640960965
 10
9.973793979054731
 20
-0.9074023640961002
 10
9.973793979054731
 20
-1.099402364095922
  0
LINE
  5
32
330
17
100
AcDbEntity
  8
0
100
AcDbLine
 10
10.54179397905494
 20
0.3565976359039809
 30
0.0
 11
10.54179397905494
 21
0.4205976359039881
 31
0.0
  0
LINE
  5
33
330
17
100
AcDbEntity
  8
0
100
AcDbLine
 10
10.42179397905482
 20
0.3405976359039471
 30
0.0
 11
10.42179397905482
 21
0.4205976359039881
 31
0.0
  0
LINE
  5
34
330
17
100
AcDbEntity
  8
0
100
AcDbLine
 10
10.5817939790549
 20
0.0205976359039681
 30
0.0
 11
10.66179397905483
 21
0.0205976359039681
 31
0.0
  0
LINE
  5
35
330
17
100
AcDbEntity
  8
0
100
AcDbLine
 10
10.5817939790549
 20
-0.1394023640960285
 30
0.0
 11
10.66179397905483
 21
-0.1394023640960285
 31
0.0
  0
LINE
  5
36
330
17
100
AcDbEntity
  8
0
100
AcDbLine
 10
10.5817939790549
 20
0.1805976359039789
 30
0.0
 11
10.5817939790549
 21
0.1485976359039398
 31
0.0
  0
LINE
  5
37
330
17
100
AcDbEntity
  8
0
100
AcDbLine
 10
10.42179397905482
 20
0.3405976359039471
 30
0.0
 11
10.3897939790549
 21
0.3405976359039471
 31
0.0
  0
LINE
  5
38
330
17
100
AcDbEntity
  8
0
100
AcDbLine
 10
10.3897939790549
 20
0.3405976359039471
 30
0.0
 11
10.3897939790549
 21
0.2125976359039043
 31
0.0
  0
LINE
  5
39
330
17
100
AcDbEntity
  8
0
100
AcDbLine
 10
10.45379397905498
 20
0.1485976359039398
 30
0.0
 11
10.5817939790549
 21
0.1485976359039398
 31
0.0
  0
LINE
  5
3A
330
17
100
AcDbEntity
  8
0
100
AcDbLine
 10
10.3897939790549
 20
0.2125976359039043
 30
0.0
 11
10.45379397905498
 21
0.1485976359039398
 31
0.0
  0
LINE
  5
3B
330
17
100
AcDbEntity
  8
0
100
AcDbLine
 10
10.26179397905474
 20
0.3405976359038334
 30
0.0
 11
10.26179397905474
 21
0.4205976359039881
 31
0.0
  0
LINE
  5
3C
330
17
100
AcDbEntity
  8
0
100
AcDbLine
 10
10.10179397905489
 20
0.3405976359038334
 30
0.0
 11
10.10179397905489
 21
0.420597635903917
 31
0.0
  0
LINE
  5
3D
330
17
100
AcDbEntity
  8
0
100
AcDbLine
 10
10.26179397905474
 20
0.3405976359038334
 30
0.0
 11
10.29379397905489
 21
0.3405976359038334
 31
0.0
  0
LINE
  5
3E
330
17
100
AcDbEntity
  8
0
100
AcDbLine
 10
10.29379397905489
 20
0.3405976359038334
 30
0.0
 11
10.29379397905489
 21
0.1485976359038261
 31
0.0
  0
LINE
  5
3F
330
17
100
AcDbEntity
  8
0
100
AcDbLine
 10
10.29379397905489
 20
0.1485976359038261
 30
0.0
 11
10.06979397905473
 21
0.1485976359038261
 31
0.0
  0
LINE
  5
40
330
17
100
AcDbEntity
  8
0
100
AcDbLine
 10
10.06979397905473
 20
0.1485976359038261
 30
0.0
 11
10.06979397905473
 21
0.3405976359038334
 31
0.0
  0
LINE
  5
41
330
17
100
AcDbEntity
  8
0
100
AcDbLine
 10
10.06979397905473
 20
0.3405976359038334
 30
0.0
 11
10.10179397905489
 21
0.3405976359038334
 31
0.0
  0
LINE
  5
42
330
17
100
AcDbEntity
  8
0
100
AcDbLine
 10
10.5817939790549
 20
0.0205976359039681
 30
0.0
 11
10.5817939790549
 21
0.0525976359039788
 31
0.0
  0
LINE
  5
43
330
17
100
AcDbEntity
  8
0
100
AcDbLine
 10
10.5817939790549
 20
0.0525976359039788
 30
0.0
 11
10.3897939790549
 21
0.0525976359039788
 31
0.0
  0
LINE
  5
44
330
17
100
AcDbEntity
  8
0
100
AcDbLine
 10
10.3897939790549
 20
0.0525976359039788
 30
0.0
 11
10.3897939790549
 21
-0.1714023640959965
 31
0.0
  0
LINE
  5
45
330
17
100
AcDbEntity
  8
0
100
AcDbLine
 10
10.3897939790549
 20
-0.1714023640959965
 30
0.0
 11
10.5817939790549
 21
-0.1714023640959965
 31
0.0
  0
LINE
  5
46
330
17
100
AcDbEntity
  8
0
100
AcDbLine
 10
10.5817939790549
 20
-0.1714023640959965
 30
0.0
 11
10.5817939790549
 21
-0.1394023640960285
 31
0.0
  0
LINE
  5
47
330
17
100
AcDbEntity
  8
0
100
AcDbLine
 10
10.5817939790549
 20
-0.2994023640960392
 30
0.0
 11
10.5817939790549
 21
-0.2674023640960428
 31
0.0
  0
LINE
  5
48
330
17
100
AcDbEntity
  8
0
100
AcDbLine
 10
10.5817939790549
 20
-0.4914023640960466
 30
0.0
 11
10.5817939790549
 21
-0.4594023640960501
 31
0.0
  0
LINE
  5
49
330
17
100
AcDbEntity
  8
0
100
AcDbLine
 10
10.5817939790549
 20
-0.6194023640960467
 30
0.0
 11
10.5817939790549
 21
-0.5874023640960502
 31
0.0
  0
LINE
  5
4A
330
17
100
AcDbEntity
  8
0
100
AcDbLine
 10
10.5817939790549
 20
-0.5874023640960502
 30
0.0
 11
10.3897939790549
 21
-0.5874023640960502
 31
0.0
  0
LINE
  5
4B
330
17
100
AcDbEntity
  8
0
100
AcDbLine
 10
10.3897939790549
 20
-0.5874023640960502
 30
0.0
 11
10.3897939790549
 21
-0.8114023640959828
 31
0.0
  0
LINE
  5
4C
330
17
100
AcDbEntity
  8
0
100
AcDbLine
 10
10.3897939790549
 20
-0.8114023640959828
 30
0.0
 11
10.5817939790549
 21
-0.8114023640959828
 31
0.0
  0
LINE
  5
4D
330
17
100
AcDbEntity
  8
0
100
AcDbLine
 10
10.5817939790549
 20
-0.8114023640959828
 30
0.0
 11
10.5817939790549
 21
-0.7794023640960575
 31
0.0
  0
LINE
  5
4E
330
17
100
AcDbEntity
  8
0
100
AcDbLine
 10
10.5817939790549
 20
-0.9394023640960683
 30
0.0
 11
10.5817939790549
 21
-0.9074023640960575
 31
0.0
  0
LINE
  5
4F
330
17
100
AcDbEntity
  8
0
100
AcDbLine
 10
10.5817939790549
 20
-0.9074023640960575
 30
0.0
 11
10.3897939790549
 21
-0.9074023640960575
 31
0.0
  0
LINE
  5
50
330
17
100
AcDbEntity
  8
0
100
AcDbLine
 10
10.3897939790549
 20
-0.9074023640960575
 30
0.0
 11
10.3897939790549
 21
-1.099402364095993
 31
0.0
  0
LINE
  5
51
330
17
100
AcDbEntity
  8
0
100
AcDbLine
 10
10.5817939790549
 20
-0.2994023640960392
 30
0.0
 11
10.66179397905483
 21
-0.2994023640960392
 31
0.0
  0
LINE
  5
52
330
17
100
AcDbEntity
  8
0
100
AcDbLine
 10
10.5817939790549
 20
-0.4594023640960501
 30
0.0
 11
10.66179397905483
 21
-0.4594023640960501
 31
0.0
  0
LINE
  5
53
330
17
100
AcDbEntity
  8
0
100
AcDbLine
 10
10.54179397905494
 20
0.4205976359039881
 30
0.0
 11
10.54179397905494
 21
0.4945976359039435
 31
0.0
  0
LINE
  5
54
330
17
100
AcDbEntity
  8
0
100
AcDbLine
 10
10.42179397905482
 20
0.4205976359039881
 30
0.0
 11
10.42179397905482
 21
0.4945976359039435
 31
0.0
  0
LINE
  5
55
330
17
100
AcDbEntity
  8
0
100
AcDbLine
 10
10.5817939790549
 20
0.1805976359039789
 30
0.0
 11
10.66179397905483
 21
0.1805976359039789
 31
0.0
  0
LINE
  5
56
330
17
100
AcDbEntity
  8
0
100
AcDbLine
 10
10.66179397905483
 20
0.1805976359039789
 30
0.0
 11
10.7357939790549
 21
0.1805976359039789
 31
0.0
  0
LINE
  5
57
330
17
100
AcDbEntity
  8
0
100
AcDbLine
 10
10.59779397905475
 20
0.3005976359039835
 30
0.0
 11
10.66179397905483
 21
0.3005976359039835
 31
0.0
  0
LINE
  5
58
330
17
100
AcDbEntity
  8
0
100
AcDbLine
 10
10.54179397905494
 20
0.3565976359039809
 30
0.0
 11
10.59779397905475
 21
0.3005976359039835
 31
0.0
  0
LINE
  5
59
330
17
100
AcDbEntity
  8
0
100
AcDbLine
 10
10.66179397905483
 20
0.3005976359039835
 30
0.0
 11
10.7357939790549
 21
0.3005976359039835
 31
0.0
  0
LINE
  5
5A
330
17
100
AcDbEntity
  8
0
100
AcDbLine
 10
9.941793979054808
 20
0.3405976359038334
 30
0.0
 11
9.973793979054731
 21
0.3405976359038334
 31
0.0
  0
LINE
  5
5B
330
17
100
AcDbEntity
  8
0
100
AcDbLine
 10
9.7497939790548
 20
0.3405976359038334
 30
0.0
 11
9.781793979054726
 21
0.3405976359038334
 31
0.0
  0
LINE
  5
5C
330
17
100
AcDbEntity
  8
0
100
AcDbLine
 10
9.621793979054871
 20
0.3405976359039045
 30
0.0
 11
9.65379397905491
 21
0.3405976359039045
 31
0.0
  0
LINE
  5
5D
330
17
100
AcDbEntity
  8
0
100
AcDbLine
 10
9.65379397905491
 20
0.3405976359039045
 30
0.0
 11
9.65379397905491
 21
0.1485976359038972
 31
0.0
  0
LINE
  5
5E
330
17
100
AcDbEntity
  8
0
100
AcDbLine
 10
9.65379397905491
 20
0.1485976359038972
 30
0.0
 11
9.429793979054862
 21
0.1485976359038972
 31
0.0
  0
LINE
  5
5F
330
17
100
AcDbEntity
  8
0
100
AcDbLine
 10
9.429793979054862
 20
0.1485976359038972
 30
0.0
 11
9.429793979054862
 21
0.3405976359039045
 31
0.0
  0
LINE
  5
60
330
17
100
AcDbEntity
  8
0
100
AcDbLine
 10
9.429793979054862
 20
0.3405976359039045
 30
0.0
 11
9.461793979054903
 21
0.3405976359039045
 31
0.0
  0
LINE
  5
61
330
17
100
AcDbEntity
  8
0
100
AcDbLine
 10
10.54179397905494
 20
-1.099402364096064
 30
0.0
 11
10.54179397905494
 21
-1.179402364096034
 31
0.0
  0
LINE
  5
62
330
17
100
AcDbEntity
  8
0
100
AcDbLine
 10
10.42179397905494
 20
-1.099402364095993
 30
0.0
 11
10.42179397905494
 21
-1.179402364096034
 31
0.0
  0
LINE
  5
63
330
17
100
AcDbEntity
  8
0
100
AcDbLine
 10
10.54179397905494
 20
-1.179402364096034
 30
0.0
 11
10.54179397905494
 21
-1.25340236409599
 31
0.0
  0
LINE
  5
64
330
17
100
AcDbEntity
  8
0
100
AcDbLine
 10
10.42179397905494
 20
-1.179402364096034
 30
0.0
 11
10.42179397905505
 21
-1.25340236409599
 31
0.0
  0
LINE
  5
65
330
17
100
AcDbEntity
  8
0
100
AcDbLine
 10
10.5817939790549
 20
-0.9394023640960256
 30
0.0
 11
10.66179397905483
 21
-0.9394023640960256
 31
0.0
  0
LINE
  5
66
330
17
100
AcDbEntity
  8
0
100
AcDbLine
 10
10.66179397905483
 20
-0.9394023640960256
 30
0.0
 11
10.7357939790549
 21
-0.9394023640960256
 31
0.0
  0
LINE
  5
67
330
17
100
AcDbEntity
  8
0
100
AcDbLine
 10
10.5817939790549
 20
-1.05940236409603
 30
0.0
 11
10.66179397905483
 21
-1.05940236409603
 31
0.0
  0
LINE
  5
68
330
17
100
AcDbEntity
  8
0
100
AcDbLine
 10
10.66179397905483
 20
-1.05940236409603
 30
0.0
 11
10.7357939790549
 21
-1.05940236409603
 31
0.0
  0
LINE
  5
69
330
17
100
AcDbEntity
  8
0
100
AcDbLine
 10
10.3897939790549
 20
-1.099402364095993
 30
0.0
 11
10.42179397905494
 21
-1.099402364096064
 31
0.0
  0
LWPOLYLINE
  5
6A
330
17
100
AcDbEntity
  8
0
100
AcDbPolyline
 90
3
 70
0
 10
10.5817939790549
 20
-1.05940236409603
 10
10.5817939790549
 20
-1.099402364096064
 10
10.54179397905494
 20
-1.099402364096064
  0
LINE
  5
6B
330
17
100
AcDbEntity
  8
0
100
AcDbLine
 10
9.141793979054853
 20
-0.9394023640960256
 30
0.0
 11
9.141793979054853
 21
-0.9074023640959865
 31
0.0
  0
LINE
  5
6C
330
17
100
AcDbEntity
  8
0
100
AcDbLine
 10
9.141793979054853
 20
-0.9074023640959865
 30
0.0
 11
9.33379397905486
 21
-0.9074023640960575
 31
0.0
  0
LINE
  5
6D
330
17
100
AcDbEntity
  8
0
100
AcDbLine
 10
9.33379397905486
 20
-0.9074023640960575
 30
0.0
 11
9.33379397905486
 21
-1.099402364095993
 31
0.0
  0
LINE
  5
6E
330
17
100
AcDbEntity
  8
0
100
AcDbLine
 10
9.181793979054817
 20
-1.099402364095993
 30
0.0
 11
9.181793979054817
 21
-1.179402364095992
 31
0.0
  0
LINE
  5
6F
330
17
100
AcDbEntity
  8
0
100
AcDbLine
 10
9.301793979054708
 20
-1.099402364095993
 30
0.0
 11
9.301793979054708
 21
-1.179402364096034
 31
0.0
  0
LINE
  5
70
330
17
100
AcDbEntity
  8
0
100
AcDbLine
 10
9.181793979054817
 20
-1.179402364095992
 30
0.0
 11
9.181793979054817
 21
-1.25340236409599
 31
0.0
  0
LINE
  5
71
330
17
100
AcDbEntity
  8
0
100
AcDbLine
 10
9.301793979054708
 20
-1.179402364096034
 30
0.0
 11
9.301793979054708
 21
-1.25340236409599
 31
0.0
  0
LINE
  5
72
330
17
100
AcDbEntity
  8
0
100
AcDbLine
 10
9.141793979054853
 20
-0.9394023640959829
 30
0.0
 11
9.061793979054698
 21
-0.9394023640959829
 31
0.0
  0
LINE
  5
73
330
17
100
AcDbEntity
  8
0
100
AcDbLine
 10
9.061793979054698
 20
-0.9394023640959829
 30
0.0
 11
8.987793979054857
 21
-0.9394023640959829
 31
0.0
  0
LINE
  5
74
330
17
100
AcDbEntity
  8
0
100
AcDbLine
 10
9.141793979054853
 20
-1.05940236409603
 30
0.0
 11
9.061793979054698
 21
-1.05940236409603
 31
0.0
  0
LINE
  5
75
330
17
100
AcDbEntity
  8
0
100
AcDbLine
 10
9.061793979054698
 20
-1.05940236409603
 30
0.0
 11
8.987793979054857
 21
-1.05940236409603
 31
0.0
  0
LINE
  5
76
330
17
100
AcDbEntity
  8
0
100
AcDbLine
 10
9.33379397905486
 20
-1.099402364095993
 30
0.0
 11
9.301793979054935
 21
-1.099402364096064
 31
0.0
  0
LWPOLYLINE
  5
77
330
17
100
AcDbEntity
  8
0
100
AcDbPolyline
 90
3
 70
0
 10
9.141793979054853
 20
-1.05940236409603
 10
9.141793979054853
 20
-1.099402364095993
 10
9.181793979054817
 20
-1.099402364095993
  0
LINE
  5
78
330
17
100
AcDbEntity
  8
0
100
AcDbLine
 10
9.141793979054853
 20
0.1805976359039789
 30
0.0
 11
9.141793979054853
 21
0.1485976359039398
 31
0.0
  0
LINE
  5
79
330
17
100
AcDbEntity
  8
0
100
AcDbLine
 10
9.141793979054853
 20
0.1485976359039398
 30
0.0
 11
9.33379397905486
 21
0.1485976359039824
 31
0.0
  0
LINE
  5
7A
330
17
100
AcDbEntity
  8
0
100
AcDbLine
 10
9.33379397905486
 20
0.1485976359039824
 30
0.0
 11
9.33379397905486
 21
0.3405976359039471
 31
0.0
  0
LINE
  5
7B
330
17
100
AcDbEntity
  8
0
100
AcDbLine
 10
9.181793979054817
 20
0.3405976359039471
 30
0.0
 11
9.181793979054817
 21
0.420597635903917
 31
0.0
  0
LINE
  5
7C
330
17
100
AcDbEntity
  8
0
100
AcDbLine
 10
9.301793979054708
 20
0.3405976359039471
 30
0.0
 11
9.301793979054708
 21
0.4205976359039881
 31
0.0
  0
LINE
  5
7D
330
17
100
AcDbEntity
  8
0
100
AcDbLine
 10
9.181793979054817
 20
0.420597635903917
 30
0.0
 11
9.181793979054817
 21
0.4945976359039009
 31
0.0
  0
LINE
  5
7E
330
17
100
AcDbEntity
  8
0
100
AcDbLine
 10
9.301793979054708
 20
0.4205976359039881
 30
0.0
 11
9.301793979054708
 21
0.4945976359039435
 31
0.0
  0
LINE
  5
7F
330
17
100
AcDbEntity
  8
0
100
AcDbLine
 10
9.141793979054853
 20
0.1805976359039079
 30
0.0
 11
9.061793979054698
 21
0.1805976359039079
 31
0.0
  0
LINE
  5
80
330
17
100
AcDbEntity
  8
0
100
AcDbLine
 10
9.061793979054698
 20
0.1805976359039079
 30
0.0
 11
8.987793979054857
 21
0.1805976359039079
 31
0.0
  0
LINE
  5
81
330
17
100
AcDbEntity
  8
0
100
AcDbLine
 10
9.141793979054853
 20
0.3005976359039408
 30
0.0
 11
9.061793979054698
 21
0.3005976359039408
 31
0.0
  0
LINE
  5
82
330
17
100
AcDbEntity
  8
0
100
AcDbLine
 10
9.061793979054698
 20
0.3005976359039408
 30
0.0
 11
8.987793979054857
 21
0.3005976359039408
 31
0.0
  0
LINE
  5
83
330
17
100
AcDbEntity
  8
0
100
AcDbLine
 10
9.33379397905486
 20
0.3405976359039471
 30
0.0
 11
9.301793979054708
 21
0.3405976359039897
 31
0.0
  0
LWPOLYLINE
  5
84
330
17
100
AcDbEntity
  8
0
100
AcDbPolyline
 90
3
 70
0
 10
9.141793979054853
 20
0.3005976359039408
 10
9.141793979054853
 20
0.3405976359039471
 10
9.181793979054817
 20
0.3405976359039471
  0
LINE
  5
85
330
17
100
AcDbEntity
  8
0
100
AcDbLine
 10
10.26179397905474
 20
0.4205976359039881
 30
0.0
 11
10.26179397905474
 21
0.4945976359039435
 31
0.0
  0
LINE
  5
86
330
17
100
AcDbEntity
  8
0
100
AcDbLine
 10
10.10179397905489
 20
0.420597635903917
 30
0.0
 11
10.10179397905489
 21
0.4945976359039009
 31
0.0
  0
LINE
  5
87
330
17
100
AcDbEntity
  8
0
100
AcDbLine
 10
9.941793979054808
 20
0.3405976359038334
 30
0.0
 11
9.941793979054808
 21
0.420597635903917
 31
0.0
  0
LINE
  5
88
330
17
100
AcDbEntity
  8
0
100
AcDbLine
 10
9.781793979054726
 20
0.3405976359038334
 30
0.0
 11
9.781793979054726
 21
0.420597635903917
 31
0.0
  0
LINE
  5
89
330
17
100
AcDbEntity
  8
0
100
AcDbLine
 10
9.941793979054808
 20
0.420597635903917
 30
0.0
 11
9.941793979054808
 21
0.4945976359039009
 31
0.0
  0
LINE
  5
8A
330
17
100
AcDbEntity
  8
0
100
AcDbLine
 10
9.781793979054726
 20
0.420597635903917
 30
0.0
 11
9.781793979054726
 21
0.4945976359039009
 31
0.0
  0
LINE
  5
8B
330
17
100
AcDbEntity
  8
0
100
AcDbLine
 10
9.621793979054871
 20
0.3405976359039045
 30
0.0
 11
9.621793979054871
 21
0.4205976359039881
 31
0.0
  0
LINE
  5
8C
330
17
100
AcDbEntity
  8
0
100
AcDbLine
 10
9.461793979054903
 20
0.3405976359039045
 30
0.0
 11
9.461793979054903
 21
0.4205976359039881
 31
0.0
  0
LINE
  5
8D
330
17
100
AcDbEntity
  8
0
100
AcDbLine
 10
9.621793979054871
 20
0.4205976359039881
 30
0.0
 11
9.621793979054871
 21
0.4945976359039861
 31
0.0
  0
LINE
  5
8E
330
17
100
AcDbEntity
  8
0
100
AcDbLine
 10
9.461793979054903
 20
0.4205976359039881
 30
0.0
 11
9.461793979054903
 21
0.4945976359039861
 31
0.0
  0
LINE
  5
8F
330
17
100
AcDbEntity
  8
0
100
AcDbLine
 10
10.26179397905474
 20
-1.099402364095922
 30
0.0
 11
10.26179397905474
 21
-1.179402364096034
 31
0.0
  0
LINE
  5
90
330
17
100
AcDbEntity
  8
0
100
AcDbLine
 10
10.10179397905489
 20
-1.099402364095993
 30
0.0
 11
10.10179397905489
 21
-1.179402364096077
 31
0.0
  0
LINE
  5
91
330
17
100
AcDbEntity
  8
0
100
AcDbLine
 10
10.26179397905474
 20
-1.099402364095922
 30
0.0
 11
10.29379397905489
 21
-1.099402364095922
 31
0.0
  0
LINE
  5
92
330
17
100
AcDbEntity
  8
0
100
AcDbLine
 10
10.29379397905489
 20
-1.099402364095922
 30
0.0
 11
10.29379397905489
 21
-0.9074023640959153
 31
0.0
  0
LINE
  5
93
330
17
100
AcDbEntity
  8
0
100
AcDbLine
 10
10.29379397905489
 20
-0.9074023640959153
 30
0.0
 11
10.06979397905473
 21
-0.9074023640959865
 31
0.0
  0
LINE
  5
94
330
17
100
AcDbEntity
  8
0
100
AcDbLine
 10
10.06979397905473
 20
-0.9074023640959865
 30
0.0
 11
10.06979397905473
 21
-1.099402364095993
 31
0.0
  0
LINE
  5
95
330
17
100
AcDbEntity
  8
0
100
AcDbLine
 10
10.06979397905473
 20
-1.099402364095993
 30
0.0
 11
10.10179397905489
 21
-1.099402364095993
 31
0.0
  0
LINE
  5
96
330
17
100
AcDbEntity
  8
0
100
AcDbLine
 10
9.941793979054808
 20
-1.099402364095922
 30
0.0
 11
9.973793979054731
 21
-1.099402364095922
 31
0.0
  0
LINE
  5
97
330
17
100
AcDbEntity
  8
0
100
AcDbLine
 10
9.7497939790548
 20
-1.099402364095922
 30
0.0
 11
9.781793979054726
 21
-1.099402364095922
 31
0.0
  0
LINE
  5
98
330
17
100
AcDbEntity
  8
0
100
AcDbLine
 10
9.621793979054871
 20
-1.099402364095993
 30
0.0
 11
9.653793979054797
 21
-1.099402364095993
 31
0.0
  0
LINE
  5
99
330
17
100
AcDbEntity
  8
0
100
AcDbLine
 10
9.653793979054797
 20
-1.099402364095993
 30
0.0
 11
9.653793979054797
 21
-0.9074023640959865
 31
0.0
  0
LINE
  5
9A
330
17
100
AcDbEntity
  8
0
100
AcDbLine
 10
9.653793979054797
 20
-0.9074023640959865
 30
0.0
 11
9.429793979054862
 21
-0.9074023640959865
 31
0.0
  0
LINE
  5
9B
330
17
100
AcDbEntity
  8
0
100
AcDbLine
 10
9.429793979054862
 20
-0.9074023640959865
 30
0.0
 11
9.429793979054862
 21
-1.099402364095993
 31
0.0
  0
LINE
  5
9C
330
17
100
AcDbEntity
  8
0
100
AcDbLine
 10
9.429793979054862
 20
-1.099402364095993
 30
0.0
 11
9.46179397905479
 21
-1.099402364095993
 31
0.0
  0
LINE
  5
9D
330
17
100
AcDbEntity
  8
0
100
AcDbLine
 10
10.26179397905474
 20
-1.179402364096034
 30
0.0
 11
10.26179397905474
 21
-1.25340236409599
 31
0.0
  0
LINE
  5
9E
330
17
100
AcDbEntity
  8
0
100
AcDbLine
 10
10.10179397905489
 20
-1.179402364096077
 30
0.0
 11
10.10179397905489
 21
-1.253402364096061
 31
0.0
  0
LINE
  5
9F
330
17
100
AcDbEntity
  8
0
100
AcDbLine
 10
9.941793979054808
 20
-1.099402364095922
 30
0.0
 11
9.941793979054808
 21
-1.179402364096034
 31
0.0
  0
LINE
  5
A0
330
17
100
AcDbEntity
  8
0
100
AcDbLine
 10
9.781793979054726
 20
-1.099402364095922
 30
0.0
 11
9.781793979054726
 21
-1.179402364096034
 31
0.0
  0
LINE
  5
A1
330
17
100
AcDbEntity
  8
0
100
AcDbLine
 10
9.941793979054808
 20
-1.179402364096034
 30
0.0
 11
9.941793979054808
 21
-1.25340236409599
 31
0.0
  0
LINE
  5
A2
330
17
100
AcDbEntity
  8
0
100
AcDbLine
 10
9.781793979054726
 20
-1.179402364096034
 30
0.0
 11
9.781793979054726
 21
-1.25340236409599
 31
0.0
  0
LINE
  5
A3
330
17
100
AcDbEntity
  8
0
100
AcDbLine
 10
9.621793979054871
 20
-1.099402364095993
 30
0.0
 11
9.621793979054871
 21
-1.179402364096077
 31
0.0
  0
LINE
  5
A4
330
17
100
AcDbEntity
  8
0
100
AcDbLine
 10
9.46179397905479
 20
-1.099402364095993
 30
0.0
 11
9.46179397905479
 21
-1.179402364096077
 31
0.0
  0
LINE
  5
A5
330
17
100
AcDbEntity
  8
0
100
AcDbLine
 10
9.621793979054871
 20
-1.179402364096077
 30
0.0
 11
9.621793979054871
 21
-1.253402364096061
 31
0.0
  0
LINE
  5
A6
330
17
100
AcDbEntity
  8
0
100
AcDbLine
 10
9.46179397905479
 20
-1.179402364096077
 30
0.0
 11
9.46179397905479
 21
-1.253402364096061
 31
0.0
  0
LINE
  5
A7
330
17
100
AcDbEntity
  8
0
100
AcDbLine
 10
10.66179397905483
 20
0.0205976359039681
 30
0.0
 11
10.7357939790549
 21
0.0205976359039681
 31
0.0
  0
LINE
  5
A8
330
17
100
AcDbEntity
  8
0
100
AcDbLine
 10
10.66179397905483
 20
-0.1394023640960285
 30
0.0
 11
10.7357939790549
 21
-0.1394023640960285
 31
0.0
  0
LINE
  5
A9
330
17
100
AcDbEntity
  8
0
100
AcDbLine
 10
10.66179397905483
 20
-0.2994023640960392
 30
0.0
 11
10.7357939790549
 21
-0.2994023640960392
 31
0.0
  0
LINE
  5
AA
330
17
100
AcDbEntity
  8
0
100
AcDbLine
 10
10.66179397905483
 20
-0.4594023640960501
 30
0.0
 11
10.7357939790549
 21
-0.4594023640960501
 31
0.0
  0
LINE
  5
AB
330
17
100
AcDbEntity
  8
0
100
AcDbLine
 10
10.5817939790549
 20
-0.6194023640960467
 30
0.0
 11
10.66179397905483
 21
-0.6194023640960467
 31
0.0
  0
LINE
  5
AC
330
17
100
AcDbEntity
  8
0
100
AcDbLine
 10
10.5817939790549
 20
-0.7794023640960575
 30
0.0
 11
10.66179397905483
 21
-0.7794023640960575
 31
0.0
  0
LINE
  5
AD
330
17
100
AcDbEntity
  8
0
100
AcDbLine
 10
10.66179397905483
 20
-0.6194023640960467
 30
0.0
 11
10.7357939790549
 21
-0.6194023640960467
 31
0.0
  0
LINE
  5
AE
330
17
100
AcDbEntity
  8
0
100
AcDbLine
 10
10.66179397905483
 20
-0.7794023640960575
 30
0.0
 11
10.7357939790549
 21
-0.7794023640960575
 31
0.0
  0
LINE
  5
AF
330
17
100
AcDbEntity
  8
0
100
AcDbLine
 10
9.141793979054853
 20
0.0205976359040108
 30
0.0
 11
9.061793979054926
 21
0.0205976359040108
 31
0.0
  0
LINE
  5
B0
330
17
100
AcDbEntity
  8
0
100
AcDbLine
 10
9.141793979054853
 20
-0.1394023640959574
 30
0.0
 11
9.061793979054926
 21
-0.1394023640959574
 31
0.0
  0
LINE
  5
B1
330
17
100
AcDbEntity
  8
0
100
AcDbLine
 10
9.141793979054853
 20
0.0205976359040108
 30
0.0
 11
9.141793979054853
 21
0.0525976359040499
 31
0.0
  0
LINE
  5
B2
330
17
100
AcDbEntity
  8
0
100
AcDbLine
 10
9.141793979054853
 20
0.0525976359040499
 30
0.0
 11
9.33379397905486
 21
0.0525976359039788
 31
0.0
  0
LINE
  5
B3
330
17
100
AcDbEntity
  8
0
100
AcDbLine
 10
9.33379397905486
 20
0.0525976359039788
 30
0.0
 11
9.33379397905486
 21
-0.1714023640959965
 31
0.0
  0
LINE
  5
B4
330
17
100
AcDbEntity
  8
0
100
AcDbLine
 10
9.33379397905486
 20
-0.1714023640959965
 30
0.0
 11
9.141793979054853
 21
-0.1714023640959539
 31
0.0
  0
LINE
  5
B5
330
17
100
AcDbEntity
  8
0
100
AcDbLine
 10
9.141793979054853
 20
-0.1714023640959539
 30
0.0
 11
9.141793979054853
 21
-0.1394023640959574
 31
0.0
  0
LINE
  5
B6
330
17
100
AcDbEntity
  8
0
100
AcDbLine
 10
9.141793979054853
 20
-0.2994023640960392
 30
0.0
 11
9.141793979054853
 21
-0.2674023640960002
 31
0.0
  0
LINE
  5
B7
330
17
100
AcDbEntity
  8
0
100
AcDbLine
 10
9.141793979054853
 20
-0.4914023640959755
 30
0.0
 11
9.141793979054853
 21
-0.4594023640960075
 31
0.0
  0
LINE
  5
B8
330
17
100
AcDbEntity
  8
0
100
AcDbLine
 10
9.141793979054853
 20
-0.6194023640959756
 30
0.0
 11
9.141793979054853
 21
-0.5874023640959792
 31
0.0
  0
LINE
  5
B9
330
17
100
AcDbEntity
  8
0
100
AcDbLine
 10
9.141793979054853
 20
-0.5874023640959792
 30
0.0
 11
9.33379397905486
 21
-0.5874023640960502
 31
0.0
  0
LINE
  5
BA
330
17
100
AcDbEntity
  8
0
100
AcDbLine
 10
9.33379397905486
 20
-0.5874023640960502
 30
0.0
 11
9.33379397905486
 21
-0.8114023640959828
 31
0.0
  0
LINE
  5
BB
330
17
100
AcDbEntity
  8
0
100
AcDbLine
 10
9.33379397905486
 20
-0.8114023640959828
 30
0.0
 11
9.141793979054853
 21
-0.8114023640959828
 31
0.0
  0
LINE
  5
BC
330
17
100
AcDbEntity
  8
0
100
AcDbLine
 10
9.141793979054853
 20
-0.8114023640959828
 30
0.0
 11
9.141793979054853
 21
-0.7794023640959864
 31
0.0
  0
LINE
  5
BD
330
17
100
AcDbEntity
  8
0
100
AcDbLine
 10
9.141793979054853
 20
-0.2994023640960392
 30
0.0
 11
9.061793979054926
 21
-0.2994023640960392
 31
0.0
  0
LINE
  5
BE
330
17
100
AcDbEntity
  8
0
100
AcDbLine
 10
9.141793979054853
 20
-0.4594023640960075
 30
0.0
 11
9.061793979054926
 21
-0.4594023640960075
 31
0.0
  0
LINE
  5
BF
330
17
100
AcDbEntity
  8
0
100
AcDbLine
 10
9.061793979054926
 20
0.0205976359040108
 30
0.0
 11
8.987793979054857
 21
0.0205976359040534
 31
0.0
  0
LINE
  5
C0
330
17
100
AcDbEntity
  8
0
100
AcDbLine
 10
9.061793979054926
 20
-0.1394023640959574
 30
0.0
 11
8.987793979054857
 21
-0.1394023640959574
 31
0.0
  0
LINE
  5
C1
330
17
100
AcDbEntity
  8
0
100
AcDbLine
 10
9.061793979054926
 20
-0.2994023640960392
 30
0.0
 11
8.987793979054857
 21
-0.2994023640959682
 31
0.0
  0
LINE
  5
C2
330
17
100
AcDbEntity
  8
0
100
AcDbLine
 10
9.061793979054926
 20
-0.4594023640960075
 30
0.0
 11
8.987793979054857
 21
-0.4594023640959648
 31
0.0
  0
LINE
  5
C3
330
17
100
AcDbEntity
  8
0
100
AcDbLine
 10
9.141793979054853
 20
-0.6194023640959756
 30
0.0
 11
9.061793979054926
 21
-0.6194023640959756
 31
0.0
  0
LINE
  5
C4
330
17
100
AcDbEntity
  8
0
100
AcDbLine
 10
9.141793979054853
 20
-0.7794023640959864
 30
0.0
 11
9.061793979054698
 21
-0.7794023640959864
 31
0.0
  0
LINE
  5
C5
330
17
100
AcDbEntity
  8
0
100
AcDbLine
 10
9.061793979054926
 20
-0.6194023640959756
 30
0.0
 11
8.987793979054857
 21
-0.6194023640959756
 31
0.0
  0
LINE
  5
C6
330
17
100
AcDbEntity
  8
0
100
AcDbLine
 10
9.061793979054698
 20
-0.7794023640959864
 30
0.0
 11
8.987793979054857
 21
-0.7794023640959438
 31
0.0
  0
LINE
  5
C7
330
17
100
AcDbEntity
  8
0
100
AcDbLine
 10
9.141793979054853
 20
-0.2674023640960002
 30
0.0
 11
9.33379397905486
 21
-0.2674023640960428
 31
0.0
  0
LINE
  5
C8
330
17
100
AcDbEntity
  8
0
100
AcDbLine
 10
9.33379397905486
 20
-0.2674023640960428
 30
0.0
 11
9.33379397905486
 21
-0.4914023640960466
 31
0.0
  0
LINE
  5
C9
330
17
100
AcDbEntity
  8
0
100
AcDbLine
 10
9.33379397905486
 20
-0.4914023640960466
 30
0.0
 11
9.141793979054853
 21
-0.4914023640959755
 31
0.0
  0
LWPOLYLINE
  5
CA
330
17
100
AcDbEntity
  8
0
100
AcDbPolyline
 90
2
 70
0
 10
10.7357939790549
 20
-0.7794023640960575
 10
10.7357939790549
 20
-0.9394023640960256
  0
LWPOLYLINE
  5
CB
330
17
100
AcDbEntity
  8
0
100
AcDbPolyline
 90
3
 70
0
 10
10.7357939790549
 20
-1.05940236409603
 10
10.7357939790549
 20
-1.25340236409599
 10
10.54179397905494
 20
-1.25340236409599
  0
LWPOLYLINE
  5
CC
330
17
100
AcDbEntity
  8
0
100
AcDbPolyline
 90
2
 70
0
 10
10.42179397905505
 20
-1.25340236409599
 10
10.26179397905474
 20
-1.25340236409599
  0
LWPOLYLINE
  5
CD
330
17
100
AcDbEntity
  8
0
100
AcDbPolyline
 90
2
 70
0
 10
10.10179397905489
 20
-1.25340236409599
 10
9.941793979054808
 20
-1.25340236409599
  0
LWPOLYLINE
  5
CE
330
17
100
AcDbEntity
  8
0
100
AcDbPolyline
 90
2
 70
0
 10
9.781793979054726
 20
-1.25340236409599
 10
9.621793979054871
 20
-1.25340236409599
  0
LWPOLYLINE
  5
CF
330
17
100
AcDbEntity
  8
0
100
AcDbPolyline
 90
2
 70
0
 10
9.46179397905479
 20
-1.25340236409599
 10
9.301793979054708
 20
-1.25340236409599
  0
LWPOLYLINE
  5
D0
330
17
100
AcDbEntity
  8
0
100
AcDbPolyline
 90
3
 70
0
 10
9.181793979054817
 20
-1.25340236409599
 10
8.987793979054857
 20
-1.25340236409599
 10
8.987793979054857
 20
-1.05940236409603
  0
LWPOLYLINE
  5
D1
330
17
100
AcDbEntity
  8
0
100
AcDbPolyline
 90
3
 70
0
 10
8.987793979054857
 20
0.3005976359039408
 10
8.987793979054857
 20
0.4945976359039435
 10
9.181793979054817
 20
0.4945976359039435
  0
LWPOLYLINE
  5
D2
330
17
100
AcDbEntity
  8
0
100
AcDbPolyline
 90
2
 70
0
 10
9.301793979054708
 20
0.4945976359039009
 10
9.461793979054903
 20
0.4945976359039009
  0
LWPOLYLINE
  5
D3
330
17
100
AcDbEntity
  8
0
100
AcDbPolyline
 90
2
 70
0
 10
9.621793979054871
 20
0.4945976359039009
 10
9.781793979054726
 20
0.4945976359039009
  0
LWPOLYLINE
  5
D4
330
17
100
AcDbEntity
  8
0
100
AcDbPolyline
 90
2
 70
0
 10
9.941793979054808
 20
0.4945976359039009
 10
10.10179397905489
 20
0.4945976359039009
  0
LWPOLYLINE
  5
D5
330
17
100
AcDbEntity
  8
0
100
AcDbPolyline
 90
2
 70
0
 10
10.26179397905474
 20
0.4945976359039435
 10
10.42179397905482
 20
0.4945976359039435
  0
LWPOLYLINE
  5
D6
330
17
100
AcDbEntity
  8
0
100
AcDbPolyline
 90
3
 70
0
 10
10.54179397905494
 20
0.4945976359039435
 10
10.7357939790549
 20
0.4945976359039435
 10
10.7357939790549
 20
0.3005976359039835
  0
LWPOLYLINE
  5
D7
330
17
100
AcDbEntity
  8
0
100
AcDbPolyline
 90
2
 70
0
 10
10.7357939790549
 20
0.1805976359039789
 10
10.7357939790549
 20
0.0205976359039681
  0
LWPOLYLINE
  5
D8
330
17
100
AcDbEntity
  8
0
100
AcDbPolyline
 90
2
 70
0
 10
10.7357939790549
 20
-0.1394023640960285
 10
10.7357939790549
 20
-0.2994023640960392
  0
LWPOLYLINE
  5
D9
330
17
100
AcDbEntity
  8
0
100
AcDbPolyline
 90
2
 70
0
 10
10.7357939790549
 20
-0.4594023640960501
 10
10.7357939790549
 20
-0.6194023640960467
  0
LWPOLYLINE
  5
DA
330
17
100
AcDbEntity
  8
0
100
AcDbPolyline
 90
2
 70
0
 10
8.987793979054857
 20
-0.7794023640959864
 10
8.987793979054857
 20
-0.9394023640959829
  0
LWPOLYLINE
  5
DB
330
17
100
AcDbEntity
  8
0
100
AcDbPolyline
 90
2
 70
0
 10
8.987793979054857
 20
0.1805976359039789
 10
8.987793979054857
 20
0.0205976359040108
  0
LWPOLYLINE
  5
DC
330
17
100
AcDbEntity
  8
0
100
AcDbPolyline
 90
2
 70
0
 10
8.987793979054857
 20
-0.1394023640959574
 10
8.987793979054857
 20
-0.2994023640960392
  0
LWPOLYLINE
  5
DD
330
17
100
AcDbEntity
  8
0
100
AcDbPolyline
 90
2
 70
0
 10
8.987793979054857
 20
-0.4594023640960075
 10
8.987793979054857
 20
-0.6194023640959756
  0
LWPOLYLINE
  5
DE
330
17
100
AcDbEntity
  8
0
100
AcDbPolyline
 90
8
 70
0
 10
11.59379397905485
 20
-1.099402364095922
 10
11.59379397905485
 20
-0.9074023640960575
 10
11.49779397905485
 20
-0.8114023640960539
 10
11.27379397905491
 20
-0.8114023640960539
 10
11.27379397905491
 20
0.0525976359039788
 10
11.49779397905485
 20
0.0525976359039788
 10
11.59379397905485
 20
0.1485976359039824
 10
11.59379397905485
 20
0.3405976359038334
  0
LWPOLYLINE
  5
DF
330
17
100
AcDbEntity
  8
0
100
AcDbPolyline
 90
7
 70
0
 10
11.81779397905478
 20
0.3405976359038334
 10
11.81779397905478
 20
0.1485976359039398
 10
11.91379397905478
 20
0.0525976359039362
 10
12.13779397905495
 20
0.0525976359039788
 10
12.13779397905495
 20
-0.1714023640960391
 10
12.23379397905495
 20
-0.2674023640960428
 10
12.42579397905496
 20
-0.2674023640960428
  0
LWPOLYLINE
  5
E0
330
17
100
AcDbEntity
  8
0
100
AcDbPolyline
 90
7
 70
0
 10
12.42579397905496
 20
-0.4914023640960466
 10
12.23379397905495
 20
-0.4914023640960466
 10
12.13779397905495
 20
-0.5874023640960502
 10
12.13779397905495
 20
-0.8114023640960539
 10
11.91379397905478
 20
-0.8114023640960965
 10
11.81779397905478
 20
-0.9074023640961002
 10
11.81779397905478
 20
-1.099402364095922
  0
LINE
  5
E1
330
17
100
AcDbEntity
  8
0
100
AcDbLine
 10
12.38579397905499
 20
0.3565976359039809
 30
0.0
 11
12.38579397905499
 21
0.4205976359039881
 31
0.0
  0
LINE
  5
E2
330
17
100
AcDbEntity
  8
0
100
AcDbLine
 10
12.26579397905487
 20
0.3405976359039471
 30
0.0
 11
12.26579397905487
 21
0.4205976359039881
 31
0.0
  0
LINE
  5
E3
330
17
100
AcDbEntity
  8
0
100
AcDbLine
 10
12.42579397905496
 20
0.0205976359039681
 30
0.0
 11
12.50579397905488
 21
0.0205976359039681
 31
0.0
  0
LINE
  5
E4
330
17
100
AcDbEntity
  8
0
100
AcDbLine
 10
12.42579397905496
 20
-0.1394023640960285
 30
0.0
 11
12.50579397905488
 21
-0.1394023640960285
 31
0.0
  0
LINE
  5
E5
330
17
100
AcDbEntity
  8
0
100
AcDbLine
 10
12.42579397905496
 20
0.1805976359039789
 30
0.0
 11
12.42579397905496
 21
0.1485976359039398
 31
0.0
  0
LINE
  5
E6
330
17
100
AcDbEntity
  8
0
100
AcDbLine
 10
12.26579397905487
 20
0.3405976359039471
 30
0.0
 11
12.23379397905495
 21
0.3405976359039471
 31
0.0
  0
LINE
  5
E7
330
17
100
AcDbEntity
  8
0
100
AcDbLine
 10
12.23379397905495
 20
0.3405976359039471
 30
0.0
 11
12.23379397905495
 21
0.2125976359039043
 31
0.0
  0
LINE
  5
E8
330
17
100
AcDbEntity
  8
0
100
AcDbLine
 10
12.2977939790548
 20
0.1485976359039398
 30
0.0
 11
12.42579397905496
 21
0.1485976359039398
 31
0.0
  0
LINE
  5
E9
330
17
100
AcDbEntity
  8
0
100
AcDbLine
 10
12.23379397905495
 20
0.2125976359039043
 30
0.0
 11
12.2977939790548
 21
0.1485976359039398
 31
0.0
  0
LINE
  5
EA
330
17
100
AcDbEntity
  8
0
100
AcDbLine
 10
12.10579397905479
 20
0.3405976359038334
 30
0.0
 11
12.10579397905479
 21
0.4205976359039881
 31
0.0
  0
LINE
  5
EB
330
17
100
AcDbEntity
  8
0
100
AcDbLine
 10
11.94579397905494
 20
0.3405976359038334
 30
0.0
 11
11.94579397905494
 21
0.420597635903917
 31
0.0
  0
LINE
  5
EC
330
17
100
AcDbEntity
  8
0
100
AcDbLine
 10
12.10579397905479
 20
0.3405976359038334
 30
0.0
 11
12.13779397905495
 21
0.3405976359038334
 31
0.0
  0
LINE
  5
ED
330
17
100
AcDbEntity
  8
0
100
AcDbLine
 10
12.13779397905495
 20
0.3405976359038334
 30
0.0
 11
12.13779397905495
 21
0.1485976359038261
 31
0.0
  0
LINE
  5
EE
330
17
100
AcDbEntity
  8
0
100
AcDbLine
 10
12.13779397905495
 20
0.1485976359038261
 30
0.0
 11
11.91379397905478
 21
0.1485976359038261
 31
0.0
  0
LINE
  5
EF
330
17
100
AcDbEntity
  8
0
100
AcDbLine
 10
11.91379397905478
 20
0.1485976359038261
 30
0.0
 11
11.91379397905478
 21
0.3405976359038334
 31
0.0
  0
LINE
  5
F0
330
17
100
AcDbEntity
  8
0
100
AcDbLine
 10
11.91379397905478
 20
0.3405976359038334
 30
0.0
 11
11.94579397905494
 21
0.3405976359038334
 31
0.0
  0
LINE
  5
F1
330
17
100
AcDbEntity
  8
0
100
AcDbLine
 10
12.42579397905496
 20
0.0205976359039681
 30
0.0
 11
12.42579397905496
 21
0.0525976359039788
 31
0.0
  0
LINE
  5
F2
330
17
100
AcDbEntity
  8
0
100
AcDbLine
 10
12.42579397905496
 20
0.0525976359039788
 30
0.0
 11
12.23379397905495
 21
0.0525976359039788
 31
0.0
  0
LINE
  5
F3
330
17
100
AcDbEntity
  8
0
100
AcDbLine
 10
12.23379397905495
 20
0.0525976359039788
 30
0.0
 11
12.23379397905495
 21
-0.1714023640959965
 31
0.0
  0
LINE
  5
F4
330
17
100
AcDbEntity
  8
0
100
AcDbLine
 10
12.23379397905495
 20
-0.1714023640959965
 30
0.0
 11
12.42579397905496
 21
-0.1714023640959965
 31
0.0
  0
LINE
  5
F5
330
17
100
AcDbEntity
  8
0
100
AcDbLine
 10
12.42579397905496
 20
-0.1714023640959965
 30
0.0
 11
12.42579397905496
 21
-0.1394023640960285
 31
0.0
  0
LINE
  5
F6
330
17
100
AcDbEntity
  8
0
100
AcDbLine
 10
12.42579397905496
 20
-0.2994023640960392
 30
0.0
 11
12.42579397905496
 21
-0.2674023640960428
 31
0.0
  0
LINE
  5
F7
330
17
100
AcDbEntity
  8
0
100
AcDbLine
 10
12.42579397905496
 20
-0.4914023640960466
 30
0.0
 11
12.42579397905496
 21
-0.4594023640960501
 31
0.0
  0
LINE
  5
F8
330
17
100
AcDbEntity
  8
0
100
AcDbLine
 10
12.42579397905496
 20
-0.6194023640960467
 30
0.0
 11
12.42579397905496
 21
-0.5874023640960502
 31
0.0
  0
LINE
  5
F9
330
17
100
AcDbEntity
  8
0
100
AcDbLine
 10
12.42579397905496
 20
-0.5874023640960502
 30
0.0
 11
12.23379397905495
 21
-0.5874023640960502
 31
0.0
  0
LINE
  5
FA
330
17
100
AcDbEntity
  8
0
100
AcDbLine
 10
12.23379397905495
 20
-0.5874023640960502
 30
0.0
 11
12.23379397905495
 21
-0.8114023640959828
 31
0.0
  0
LINE
  5
FB
330
17
100
AcDbEntity
  8
0
100
AcDbLine
 10
12.23379397905495
 20
-0.8114023640959828
 30
0.0
 11
12.42579397905496
 21
-0.8114023640959828
 31
0.0
  0
LINE
  5
FC
330
17
100
AcDbEntity
  8
0
100
AcDbLine
 10
12.42579397905496
 20
-0.8114023640959828
 30
0.0
 11
12.42579397905496
 21
-0.7794023640960575
 31
0.0
  0
LINE
  5
FD
330
17
100
AcDbEntity
  8
0
100
AcDbLine
 10
12.42579397905496
 20
-0.9394023640960683
 30
0.0
 11
12.42579397905496
 21
-0.9074023640960575
 31
0.0
  0
LINE
  5
FE
330
17
100
AcDbEntity
  8
0
100
AcDbLine
 10
12.42579397905496
 20
-0.9074023640960575
 30
0.0
 11
12.23379397905495
 21
-0.9074023640960575
 31
0.0
  0
LINE
  5
FF
330
17
100
AcDbEntity
  8
0
100
AcDbLine
 10
12.23379397905495
 20
-0.9074023640960575
 30
0.0
 11
12.23379397905495
 21
-1.099402364095993
 31
0.0
  0
LINE
  5
100
330
17
100
AcDbEntity
  8
0
100
AcDbLine
 10
12.42579397905496
 20
-0.2994023640960392
 30
0.0
 11
12.50579397905488
 21
-0.2994023640960392
 31
0.0
  0
LINE
  5
101
330
17
100
AcDbEntity
  8
0
100
AcDbLine
 10
12.42579397905496
 20
-0.4594023640960501
 30
0.0
 11
12.50579397905488
 21
-0.4594023640960501
 31
0.0
  0
LINE
  5
102
330
17
100
AcDbEntity
  8
0
100
AcDbLine
 10
12.38579397905499
 20
0.4205976359039881
 30
0.0
 11
12.38579397905499
 21
0.4945976359039435
 31
0.0
  0
LINE
  5
103
330
17
100
AcDbEntity
  8
0
100
AcDbLine
 10
12.26579397905487
 20
0.4205976359039881
 30
0.0
 11
12.26579397905487
 21
0.4945976359039435
 31
0.0
  0
LINE
  5
104
330
17
100
AcDbEntity
  8
0
100
AcDbLine
 10
12.42579397905496
 20
0.1805976359039789
 30
0.0
 11
12.50579397905488
 21
0.1805976359039789
 31
0.0
  0
LINE
  5
105
330
17
100
AcDbEntity
  8
0
100
AcDbLine
 10
12.50579397905488
 20
0.1805976359039789
 30
0.0
 11
12.57979397905495
 21
0.1805976359039789
 31
0.0
  0
LINE
  5
106
330
17
100
AcDbEntity
  8
0
100
AcDbLine
 10
12.44179397905481
 20
0.3005976359039835
 30
0.0
 11
12.50579397905488
 21
0.3005976359039835
 31
0.0
  0
LINE
  5
107
330
17
100
AcDbEntity
  8
0
100
AcDbLine
 10
12.38579397905499
 20
0.3565976359039809
 30
0.0
 11
12.44179397905481
 21
0.3005976359039835
 31
0.0
  0
LINE
  5
108
330
17
100
AcDbEntity
  8
0
100
AcDbLine
 10
12.50579397905488
 20
0.3005976359039835
 30
0.0
 11
12.57979397905495
 21
0.3005976359039835
 31
0.0
  0
LINE
  5
109
330
17
100
AcDbEntity
  8
0
100
AcDbLine
 10
11.78579397905486
 20
0.3405976359038334
 30
0.0
 11
11.81779397905478
 21
0.3405976359038334
 31
0.0
  0
LINE
  5
10A
330
17
100
AcDbEntity
  8
0
100
AcDbLine
 10
11.59379397905485
 20
0.3405976359038334
 30
0.0
 11
11.62579397905477
 21
0.3405976359038334
 31
0.0
  0
LINE
  5
10B
330
17
100
AcDbEntity
  8
0
100
AcDbLine
 10
11.46579397905492
 20
0.3405976359039045
 30
0.0
 11
11.49779397905485
 21
0.3405976359039045
 31
0.0
  0
LINE
  5
10C
330
17
100
AcDbEntity
  8
0
100
AcDbLine
 10
11.49779397905485
 20
0.3405976359039045
 30
0.0
 11
11.49779397905485
 21
0.1485976359038972
 31
0.0
  0
LINE
  5
10D
330
17
100
AcDbEntity
  8
0
100
AcDbLine
 10
11.49779397905485
 20
0.1485976359038972
 30
0.0
 11
11.27379397905491
 21
0.1485976359038972
 31
0.0
  0
LINE
  5
10E
330
17
100
AcDbEntity
  8
0
100
AcDbLine
 10
11.27379397905491
 20
0.1485976359038972
 30
0.0
 11
11.27379397905491
 21
0.3405976359039045
 31
0.0
  0
LINE
  5
10F
330
17
100
AcDbEntity
  8
0
100
AcDbLine
 10
11.27379397905491
 20
0.3405976359039045
 30
0.0
 11
11.30579397905484
 21
0.3405976359039045
 31
0.0
  0
LINE
  5
110
330
17
100
AcDbEntity
  8
0
100
AcDbLine
 10
12.38579397905499
 20
-1.099402364096064
 30
0.0
 11
12.38579397905499
 21
-1.179402364096034
 31
0.0
  0
LINE
  5
111
330
17
100
AcDbEntity
  8
0
100
AcDbLine
 10
12.26579397905487
 20
-1.099402364095993
 30
0.0
 11
12.26579397905487
 21
-1.179402364096034
 31
0.0
  0
LINE
  5
112
330
17
100
AcDbEntity
  8
0
100
AcDbLine
 10
12.38579397905499
 20
-1.179402364096034
 30
0.0
 11
12.38579397905499
 21
-1.25340236409599
 31
0.0
  0
LINE
  5
113
330
17
100
AcDbEntity
  8
0
100
AcDbLine
 10
12.26579397905487
 20
-1.179402364096034
 30
0.0
 11
12.26579397905499
 21
-1.25340236409599
 31
0.0
  0
LINE
  5
114
330
17
100
AcDbEntity
  8
0
100
AcDbLine
 10
12.42579397905496
 20
-0.9394023640960256
 30
0.0
 11
12.50579397905488
 21
-0.9394023640960256
 31
0.0
  0
LINE
  5
115
330
17
100
AcDbEntity
  8
0
100
AcDbLine
 10
12.50579397905488
 20
-0.9394023640960256
 30
0.0
 11
12.57979397905495
 21
-0.9394023640960256
 31
0.0
  0
LINE
  5
116
330
17
100
AcDbEntity
  8
0
100
AcDbLine
 10
12.42579397905496
 20
-1.05940236409603
 30
0.0
 11
12.50579397905488
 21
-1.05940236409603
 31
0.0
  0
LINE
  5
117
330
17
100
AcDbEntity
  8
0
100
AcDbLine
 10
12.50579397905488
 20
-1.05940236409603
 30
0.0
 11
12.57979397905495
 21
-1.05940236409603
 31
0.0
  0
LINE
  5
118
330
17
100
AcDbEntity
  8
0
100
AcDbLine
 10
12.23379397905495
 20
-1.099402364095993
 30
0.0
 11
12.26579397905487
 21
-1.099402364096064
 31
0.0
  0
LWPOLYLINE
  5
119
330
17
100
AcDbEntity
  8
0
100
AcDbPolyline
 90
3
 70
0
 10
12.42579397905496
 20
-1.05940236409603
 10
12.42579397905496
 20
-1.099402364096064
 10
12.38579397905499
 20
-1.099402364096064
  0
LINE
  5
11A
330
17
100
AcDbEntity
  8
0
100
AcDbLine
 10
10.9857939790549
 20
-0.9394023640960256
 30
0.0
 11
10.9857939790549
 21
-0.9074023640959865
 31
0.0
  0
LINE
  5
11B
330
17
100
AcDbEntity
  8
0
100
AcDbLine
 10
10.9857939790549
 20
-0.9074023640959865
 30
0.0
 11
11.17779397905491
 21
-0.9074023640960575
 31
0.0
  0
LINE
  5
11C
330
17
100
AcDbEntity
  8
0
100
AcDbLine
 10
11.17779397905491
 20
-0.9074023640960575
 30
0.0
 11
11.17779397905491
 21
-1.099402364095993
 31
0.0
  0
LINE
  5
11D
330
17
100
AcDbEntity
  8
0
100
AcDbLine
 10
11.02579397905486
 20
-1.099402364095993
 30
0.0
 11
11.02579397905486
 21
-1.179402364095992
 31
0.0
  0
LINE
  5
11E
330
17
100
AcDbEntity
  8
0
100
AcDbLine
 10
11.14579397905476
 20
-1.099402364095993
 30
0.0
 11
11.14579397905476
 21
-1.179402364096034
 31
0.0
  0
LINE
  5
11F
330
17
100
AcDbEntity
  8
0
100
AcDbLine
 10
11.02579397905486
 20
-1.179402364095992
 30
0.0
 11
11.02579397905486
 21
-1.25340236409599
 31
0.0
  0
LINE
  5
120
330
17
100
AcDbEntity
  8
0
100
AcDbLine
 10
11.14579397905476
 20
-1.179402364096034
 30
0.0
 11
11.14579397905476
 21
-1.25340236409599
 31
0.0
  0
LINE
  5
121
330
17
100
AcDbEntity
  8
0
100
AcDbLine
 10
10.9857939790549
 20
-0.9394023640959829
 30
0.0
 11
10.90579397905475
 21
-0.9394023640959829
 31
0.0
  0
LINE
  5
122
330
17
100
AcDbEntity
  8
0
100
AcDbLine
 10
10.90579397905475
 20
-0.9394023640959829
 30
0.0
 11
10.83179397905491
 21
-0.9394023640959829
 31
0.0
  0
LINE
  5
123
330
17
100
AcDbEntity
  8
0
100
AcDbLine
 10
10.9857939790549
 20
-1.05940236409603
 30
0.0
 11
10.90579397905475
 21
-1.05940236409603
 31
0.0
  0
LINE
  5
124
330
17
100
AcDbEntity
  8
0
100
AcDbLine
 10
10.90579397905475
 20
-1.05940236409603
 30
0.0
 11
10.83179397905491
 21
-1.05940236409603
 31
0.0
  0
LINE
  5
125
330
17
100
AcDbEntity
  8
0
100
AcDbLine
 10
11.17779397905491
 20
-1.099402364095993
 30
0.0
 11
11.14579397905476
 21
-1.099402364096064
 31
0.0
  0
LWPOLYLINE
  5
126
330
17
100
AcDbEntity
  8
0
100
AcDbPolyline
 90
3
 70
0
 10
10.9857939790549
 20
-1.05940236409603
 10
10.9857939790549
 20
-1.099402364095993
 10
11.02579397905486
 20
-1.099402364095993
  0
LINE
  5
127
330
17
100
AcDbEntity
  8
0
100
AcDbLine
 10
10.9857939790549
 20
0.1805976359039789
 30
0.0
 11
10.9857939790549
 21
0.1485976359039398
 31
0.0
  0
LINE
  5
128
330
17
100
AcDbEntity
  8
0
100
AcDbLine
 10
10.9857939790549
 20
0.1485976359039398
 30
0.0
 11
11.17779397905491
 21
0.1485976359039824
 31
0.0
  0
LINE
  5
129
330
17
100
AcDbEntity
  8
0
100
AcDbLine
 10
11.17779397905491
 20
0.1485976359039824
 30
0.0
 11
11.17779397905468
 21
0.3405976359039471
 31
0.0
  0
LINE
  5
12A
330
17
100
AcDbEntity
  8
0
100
AcDbLine
 10
11.02579397905486
 20
0.3405976359039471
 30
0.0
 11
11.02579397905464
 21
0.420597635903917
 31
0.0
  0
LINE
  5
12B
330
17
100
AcDbEntity
  8
0
100
AcDbLine
 10
11.14579397905476
 20
0.3405976359039471
 30
0.0
 11
11.14579397905476
 21
0.4205976359039881
 31
0.0
  0
LINE
  5
12C
330
17
100
AcDbEntity
  8
0
100
AcDbLine
 10
11.02579397905464
 20
0.420597635903917
 30
0.0
 11
11.02579397905464
 21
0.4945976359039009
 31
0.0
  0
LINE
  5
12D
330
17
100
AcDbEntity
  8
0
100
AcDbLine
 10
11.14579397905476
 20
0.4205976359039881
 30
0.0
 11
11.14579397905476
 21
0.4945976359039435
 31
0.0
  0
LINE
  5
12E
330
17
100
AcDbEntity
  8
0
100
AcDbLine
 10
10.98579397905467
 20
0.1805976359039079
 30
0.0
 11
10.90579397905475
 21
0.1805976359039079
 31
0.0
  0
LINE
  5
12F
330
17
100
AcDbEntity
  8
0
100
AcDbLine
 10
10.90579397905475
 20
0.1805976359039079
 30
0.0
 11
10.83179397905491
 21
0.1805976359039079
 31
0.0
  0
LINE
  5
130
330
17
100
AcDbEntity
  8
0
100
AcDbLine
 10
10.9857939790549
 20
0.3005976359039408
 30
0.0
 11
10.90579397905475
 21
0.3005976359039408
 31
0.0
  0
LINE
  5
131
330
17
100
AcDbEntity
  8
0
100
AcDbLine
 10
10.90579397905475
 20
0.3005976359039408
 30
0.0
 11
10.83179397905491
 21
0.3005976359039408
 31
0.0
  0
LINE
  5
132
330
17
100
AcDbEntity
  8
0
100
AcDbLine
 10
11.17779397905468
 20
0.3405976359039471
 30
0.0
 11
11.14579397905476
 21
0.3405976359039897
 31
0.0
  0
LWPOLYLINE
  5
133
330
17
100
AcDbEntity
  8
0
100
AcDbPolyline
 90
3
 70
0
 10
10.9857939790549
 20
0.3005976359039408
 10
10.9857939790549
 20
0.3405976359039471
 10
11.02579397905486
 20
0.3405976359039471
  0
LINE
  5
134
330
17
100
AcDbEntity
  8
0
100
AcDbLine
 10
12.10579397905479
 20
0.4205976359039881
 30
0.0
 11
12.10579397905479
 21
0.4945976359039435
 31
0.0
  0
LINE
  5
135
330
17
100
AcDbEntity
  8
0
100
AcDbLine
 10
11.94579397905494
 20
0.420597635903917
 30
0.0
 11
11.94579397905494
 21
0.4945976359039009
 31
0.0
  0
LINE
  5
136
330
17
100
AcDbEntity
  8
0
100
AcDbLine
 10
11.78579397905486
 20
0.3405976359038334
 30
0.0
 11
11.78579397905486
 21
0.420597635903917
 31
0.0
  0
LINE
  5
137
330
17
100
AcDbEntity
  8
0
100
AcDbLine
 10
11.62579397905477
 20
0.3405976359038334
 30
0.0
 11
11.62579397905477
 21
0.420597635903917
 31
0.0
  0
LINE
  5
138
330
17
100
AcDbEntity
  8
0
100
AcDbLine
 10
11.78579397905486
 20
0.420597635903917
 30
0.0
 11
11.78579397905486
 21
0.4945976359039009
 31
0.0
  0
LINE
  5
139
330
17
100
AcDbEntity
  8
0
100
AcDbLine
 10
11.62579397905477
 20
0.420597635903917
 30
0.0
 11
11.62579397905477
 21
0.4945976359039009
 31
0.0
  0
LINE
  5
13A
330
17
100
AcDbEntity
  8
0
100
AcDbLine
 10
11.46579397905492
 20
0.3405976359039045
 30
0.0
 11
11.46579397905492
 21
0.4205976359039881
 31
0.0
  0
LINE
  5
13B
330
17
100
AcDbEntity
  8
0
100
AcDbLine
 10
11.30579397905484
 20
0.3405976359039045
 30
0.0
 11
11.30579397905484
 21
0.4205976359039881
 31
0.0
  0
LINE
  5
13C
330
17
100
AcDbEntity
  8
0
100
AcDbLine
 10
11.46579397905492
 20
0.4205976359039881
 30
0.0
 11
11.46579397905492
 21
0.4945976359039861
 31
0.0
  0
LINE
  5
13D
330
17
100
AcDbEntity
  8
0
100
AcDbLine
 10
11.30579397905484
 20
0.4205976359039881
 30
0.0
 11
11.30579397905484
 21
0.4945976359039861
 31
0.0
  0
LINE
  5
13E
330
17
100
AcDbEntity
  8
0
100
AcDbLine
 10
12.10579397905479
 20
-1.099402364095922
 30
0.0
 11
12.10579397905479
 21
-1.179402364096034
 31
0.0
  0
LINE
  5
13F
330
17
100
AcDbEntity
  8
0
100
AcDbLine
 10
11.94579397905471
 20
-1.099402364095993
 30
0.0
 11
11.94579397905471
 21
-1.179402364096077
 31
0.0
  0
LINE
  5
140
330
17
100
AcDbEntity
  8
0
100
AcDbLine
 10
12.10579397905479
 20
-1.099402364095922
 30
0.0
 11
12.13779397905472
 21
-1.099402364095922
 31
0.0
  0
LINE
  5
141
330
17
100
AcDbEntity
  8
0
100
AcDbLine
 10
12.13779397905472
 20
-1.099402364095922
 30
0.0
 11
12.13779397905472
 21
-0.9074023640959153
 31
0.0
  0
LINE
  5
142
330
17
100
AcDbEntity
  8
0
100
AcDbLine
 10
12.13779397905472
 20
-0.9074023640959153
 30
0.0
 11
11.91379397905478
 21
-0.9074023640959865
 31
0.0
  0
LINE
  5
143
330
17
100
AcDbEntity
  8
0
100
AcDbLine
 10
11.91379397905478
 20
-0.9074023640959865
 30
0.0
 11
11.91379397905478
 21
-1.099402364095993
 31
0.0
  0
LINE
  5
144
330
17
100
AcDbEntity
  8
0
100
AcDbLine
 10
11.91379397905478
 20
-1.099402364095993
 30
0.0
 11
11.94579397905471
 21
-1.099402364095993
 31
0.0
  0
LINE
  5
145
330
17
100
AcDbEntity
  8
0
100
AcDbLine
 10
11.78579397905486
 20
-1.099402364095922
 30
0.0
 11
11.81779397905478
 21
-1.099402364095922
 31
0.0
  0
LINE
  5
146
330
17
100
AcDbEntity
  8
0
100
AcDbLine
 10
11.59379397905485
 20
-1.099402364095922
 30
0.0
 11
11.62579397905477
 21
-1.099402364095922
 31
0.0
  0
LINE
  5
147
330
17
100
AcDbEntity
  8
0
100
AcDbLine
 10
11.46579397905492
 20
-1.099402364095993
 30
0.0
 11
11.49779397905485
 21
-1.099402364095993
 31
0.0
  0
LINE
  5
148
330
17
100
AcDbEntity
  8
0
100
AcDbLine
 10
11.49779397905485
 20
-1.099402364095993
 30
0.0
 11
11.49779397905485
 21
-0.9074023640959865
 31
0.0
  0
LINE
  5
149
330
17
100
AcDbEntity
  8
0
100
AcDbLine
 10
11.49779397905485
 20
-0.9074023640959865
 30
0.0
 11
11.27379397905491
 21
-0.9074023640959865
 31
0.0
  0
LINE
  5
14A
330
17
100
AcDbEntity
  8
0
100
AcDbLine
 10
11.27379397905491
 20
-0.9074023640959865
 30
0.0
 11
11.27379397905491
 21
-1.099402364095993
 31
0.0
  0
LINE
  5
14B
330
17
100
AcDbEntity
  8
0
100
AcDbLine
 10
11.27379397905491
 20
-1.099402364095993
 30
0.0
 11
11.30579397905484
 21
-1.099402364095993
 31
0.0
  0
LINE
  5
14C
330
17
100
AcDbEntity
  8
0
100
AcDbLine
 10
12.10579397905479
 20
-1.179402364096034
 30
0.0
 11
12.10579397905479
 21
-1.25340236409599
 31
0.0
  0
LINE
  5
14D
330
17
100
AcDbEntity
  8
0
100
AcDbLine
 10
11.94579397905471
 20
-1.179402364096077
 30
0.0
 11
11.94579397905471
 21
-1.253402364096061
 31
0.0
  0
LINE
  5
14E
330
17
100
AcDbEntity
  8
0
100
AcDbLine
 10
11.78579397905486
 20
-1.099402364095922
 30
0.0
 11
11.78579397905463
 21
-1.179402364096034
 31
0.0
  0
LINE
  5
14F
330
17
100
AcDbEntity
  8
0
100
AcDbLine
 10
11.62579397905477
 20
-1.099402364095922
 30
0.0
 11
11.62579397905477
 21
-1.179402364096034
 31
0.0
  0
LINE
  5
150
330
17
100
AcDbEntity
  8
0
100
AcDbLine
 10
11.78579397905463
 20
-1.179402364096034
 30
0.0
 11
11.78579397905463
 21
-1.25340236409599
 31
0.0
  0
LINE
  5
151
330
17
100
AcDbEntity
  8
0
100
AcDbLine
 10
11.62579397905477
 20
-1.179402364096034
 30
0.0
 11
11.62579397905477
 21
-1.25340236409599
 31
0.0
  0
LINE
  5
152
330
17
100
AcDbEntity
  8
0
100
AcDbLine
 10
11.46579397905492
 20
-1.099402364095993
 30
0.0
 11
11.46579397905492
 21
-1.179402364096077
 31
0.0
  0
LINE
  5
153
330
17
100
AcDbEntity
  8
0
100
AcDbLine
 10
11.30579397905484
 20
-1.099402364095993
 30
0.0
 11
11.30579397905484
 21
-1.179402364096077
 31
0.0
  0
LINE
  5
154
330
17
100
AcDbEntity
  8
0
100
AcDbLine
 10
11.46579397905492
 20
-1.179402364096077
 30
0.0
 11
11.46579397905492
 21
-1.253402364096061
 31
0.0
  0
LINE
  5
155
330
17
100
AcDbEntity
  8
0
100
AcDbLine
 10
11.30579397905484
 20
-1.179402364096077
 30
0.0
 11
11.30579397905484
 21
-1.253402364096061
 31
0.0
  0
LINE
  5
156
330
17
100
AcDbEntity
  8
0
100
AcDbLine
 10
12.50579397905488
 20
0.0205976359039681
 30
0.0
 11
12.57979397905495
 21
0.0205976359039681
 31
0.0
  0
LINE
  5
157
330
17
100
AcDbEntity
  8
0
100
AcDbLine
 10
12.50579397905488
 20
-0.1394023640960285
 30
0.0
 11
12.57979397905495
 21
-0.1394023640960285
 31
0.0
  0
LINE
  5
158
330
17
100
AcDbEntity
  8
0
100
AcDbLine
 10
12.50579397905488
 20
-0.2994023640960392
 30
0.0
 11
12.57979397905495
 21
-0.2994023640960392
 31
0.0
  0
LINE
  5
159
330
17
100
AcDbEntity
  8
0
100
AcDbLine
 10
12.50579397905488
 20
-0.4594023640960501
 30
0.0
 11
12.57979397905495
 21
-0.4594023640960501
 31
0.0
  0
LINE
  5
15A
330
17
100
AcDbEntity
  8
0
100
AcDbLine
 10
12.42579397905496
 20
-0.6194023640960467
 30
0.0
 11
12.50579397905488
 21
-0.6194023640960467
 31
0.0
  0
LINE
  5
15B
330
17
100
AcDbEntity
  8
0
100
AcDbLine
 10
12.42579397905496
 20
-0.7794023640960575
 30
0.0
 11
12.50579397905488
 21
-0.7794023640960575
 31
0.0
  0
LINE
  5
15C
330
17
100
AcDbEntity
  8
0
100
AcDbLine
 10
12.50579397905488
 20
-0.6194023640960467
 30
0.0
 11
12.57979397905495
 21
-0.6194023640960467
 31
0.0
  0
LINE
  5
15D
330
17
100
AcDbEntity
  8
0
100
AcDbLine
 10
12.50579397905488
 20
-0.7794023640960575
 30
0.0
 11
12.57979397905495
 21
-0.7794023640960575
 31
0.0
  0
LINE
  5
15E
330
17
100
AcDbEntity
  8
0
100
AcDbLine
 10
10.9857939790549
 20
0.0205976359040108
 30
0.0
 11
10.90579397905497
 21
0.0205976359040108
 31
0.0
  0
LINE
  5
15F
330
17
100
AcDbEntity
  8
0
100
AcDbLine
 10
10.9857939790549
 20
-0.1394023640959574
 30
0.0
 11
10.90579397905497
 21
-0.1394023640959574
 31
0.0
  0
LINE
  5
160
330
17
100
AcDbEntity
  8
0
100
AcDbLine
 10
10.9857939790549
 20
0.0205976359040108
 30
0.0
 11
10.9857939790549
 21
0.0525976359040499
 31
0.0
  0
LINE
  5
161
330
17
100
AcDbEntity
  8
0
100
AcDbLine
 10
10.9857939790549
 20
0.0525976359040499
 30
0.0
 11
11.17779397905491
 21
0.0525976359039788
 31
0.0
  0
LINE
  5
162
330
17
100
AcDbEntity
  8
0
100
AcDbLine
 10
11.17779397905491
 20
0.0525976359039788
 30
0.0
 11
11.17779397905491
 21
-0.1714023640959965
 31
0.0
  0
LINE
  5
163
330
17
100
AcDbEntity
  8
0
100
AcDbLine
 10
11.17779397905491
 20
-0.1714023640959965
 30
0.0
 11
10.9857939790549
 21
-0.1714023640959539
 31
0.0
  0
LINE
  5
164
330
17
100
AcDbEntity
  8
0
100
AcDbLine
 10
10.9857939790549
 20
-0.1714023640959539
 30
0.0
 11
10.9857939790549
 21
-0.1394023640959574
 31
0.0
  0
LINE
  5
165
330
17
100
AcDbEntity
  8
0
100
AcDbLine
 10
10.9857939790549
 20
-0.2994023640960392
 30
0.0
 11
10.9857939790549
 21
-0.2674023640960002
 31
0.0
  0
LINE
  5
166
330
17
100
AcDbEntity
  8
0
100
AcDbLine
 10
10.9857939790549
 20
-0.4914023640959755
 30
0.0
 11
10.9857939790549
 21
-0.4594023640960075
 31
0.0
  0
LINE
  5
167
330
17
100
AcDbEntity
  8
0
100
AcDbLine
 10
10.9857939790549
 20
-0.6194023640959756
 30
0.0
 11
10.9857939790549
 21
-0.5874023640959792
 31
0.0
  0
LINE
  5
168
330
17
100
AcDbEntity
  8
0
100
AcDbLine
 10
10.9857939790549
 20
-0.5874023640959792
 30
0.0
 11
11.17779397905491
 21
-0.5874023640960502
 31
0.0
  0
LINE
  5
169
330
17
100
AcDbEntity
  8
0
100
AcDbLine
 10
11.17779397905491
 20
-0.5874023640960502
 30
0.0
 11
11.17779397905491
 21
-0.8114023640959828
 31
0.0
  0
LINE
  5
16A
330
17
100
AcDbEntity
  8
0
100
AcDbLine
 10
11.17779397905491
 20
-0.8114023640959828
 30
0.0
 11
10.9857939790549
 21
-0.8114023640959828
 31
0.0
  0
LINE
  5
16B
330
17
100
AcDbEntity
  8
0
100
AcDbLine
 10
10.9857939790549
 20
-0.8114023640959828
 30
0.0
 11
10.9857939790549
 21
-0.7794023640959864
 31
0.0
  0
LINE
  5
16C
330
17
100
AcDbEntity
  8
0
100
AcDbLine
 10
10.9857939790549
 20
-0.2994023640960392
 30
0.0
 11
10.90579397905497
 21
-0.2994023640960392
 31
0.0
  0
LINE
  5
16D
330
17
100
AcDbEntity
  8
0
100
AcDbLine
 10
10.9857939790549
 20
-0.4594023640960075
 30
0.0
 11
10.90579397905475
 21
-0.4594023640960075
 31
0.0
  0
LINE
  5
16E
330
17
100
AcDbEntity
  8
0
100
AcDbLine
 10
10.90579397905497
 20
0.0205976359040108
 30
0.0
 11
10.83179397905491
 21
0.0205976359040534
 31
0.0
  0
LINE
  5
16F
330
17
100
AcDbEntity
  8
0
100
AcDbLine
 10
10.90579397905497
 20
-0.1394023640959574
 30
0.0
 11
10.83179397905491
 21
-0.1394023640959574
 31
0.0
  0
LINE
  5
170
330
17
100
AcDbEntity
  8
0
100
AcDbLine
 10
10.90579397905497
 20
-0.2994023640960392
 30
0.0
 11
10.83179397905491
 21
-0.2994023640959682
 31
0.0
  0
LINE
  5
171
330
17
100
AcDbEntity
  8
0
100
AcDbLine
 10
10.90579397905475
 20
-0.4594023640960075
 30
0.0
 11
10.83179397905491
 21
-0.4594023640959648
 31
0.0
  0
LINE
  5
172
330
17
100
AcDbEntity
  8
0
100
AcDbLine
 10
10.9857939790549
 20
-0.6194023640959756
 30
0.0
 11
10.90579397905475
 21
-0.6194023640959756
 31
0.0
  0
LINE
  5
173
330
17
100
AcDbEntity
  8
0
100
AcDbLine
 10
10.9857939790549
 20
-0.7794023640959864
 30
0.0
 11
10.90579397905475
 21
-0.7794023640959864
 31
0.0
  0
LINE
  5
174
330
17
100
AcDbEntity
  8
0
100
AcDbLine
 10
10.90579397905475
 20
-0.6194023640959756
 30
0.0
 11
10.83179397905491
 21
-0.6194023640959756
 31
0.0
  0
LINE
  5
175
330
17
100
AcDbEntity
  8
0
100
AcDbLine
 10
10.90579397905475
 20
-0.7794023640959864
 30
0.0
 11
10.83179397905491
 21
-0.7794023640959438
 31
0.0
  0
LINE
  5
176
330
17
100
AcDbEntity
  8
0
100
AcDbLine
 10
10.9857939790549
 20
-0.2674023640960002
 30
0.0
 11
11.17779397905491
 21
-0.2674023640960428
 31
0.0
  0
LINE
  5
177
330
17
100
AcDbEntity
  8
0
100
AcDbLine
 10
11.17779397905491
 20
-0.2674023640960428
 30
0.0
 11
11.17779397905491
 21
-0.4914023640960466
 31
0.0
  0
LINE
  5
178
330
17
100
AcDbEntity
  8
0
100
AcDbLine
 10
11.17779397905491
 20
-0.4914023640960466
 30
0.0
 11
10.9857939790549
 21
-0.4914023640959755
 31
0.0
  0
LWPOLYLINE
  5
179
330
17
100
AcDbEntity
  8
0
100
AcDbPolyline
 90
2
 70
0
 10
12.57979397905495
 20
-0.7794023640960575
 10
12.57979397905495
 20
-0.9394023640960256
  0
LWPOLYLINE
  5
17A
330
17
100
AcDbEntity
  8
0
100
AcDbPolyline
 90
3
 70
0
 10
12.57979397905495
 20
-1.05940236409603
 10
12.57979397905495
 20
-1.25340236409599
 10
12.38579397905499
 20
-1.25340236409599
  0
LWPOLYLINE
  5
17B
330
17
100
AcDbEntity
  8
0
100
AcDbPolyline
 90
2
 70
0
 10
12.26579397905499
 20
-1.25340236409599
 10
12.10579397905479
 20
-1.25340236409599
  0
LWPOLYLINE
  5
17C
330
17
100
AcDbEntity
  8
0
100
AcDbPolyline
 90
2
 70
0
 10
11.94579397905471
 20
-1.25340236409599
 10
11.78579397905463
 20
-1.25340236409599
  0
LWPOLYLINE
  5
17D
330
17
100
AcDbEntity
  8
0
100
AcDbPolyline
 90
2
 70
0
 10
11.62579397905477
 20
-1.25340236409599
 10
11.46579397905492
 20
-1.25340236409599
  0
LWPOLYLINE
  5
17E
330
17
100
AcDbEntity
  8
0
100
AcDbPolyline
 90
2
 70
0
 10
11.30579397905484
 20
-1.25340236409599
 10
11.14579397905476
 20
-1.25340236409599
  0
LWPOLYLINE
  5
17F
330
17
100
AcDbEntity
  8
0
100
AcDbPolyline
 90
3
 70
0
 10
11.02579397905486
 20
-1.25340236409599
 10
10.83179397905491
 20
-1.25340236409599
 10
10.83179397905491
 20
-1.05940236409603
  0
LWPOLYLINE
  5
180
330
17
100
AcDbEntity
  8
0
100
AcDbPolyline
 90
3
 70
0
 10
10.83179397905491
 20
0.3005976359039408
 10
10.83179397905491
 20
0.4945976359039435
 10
11.02579397905464
 20
0.4945976359039435
  0
LWPOLYLINE
  5
181
330
17
100
AcDbEntity
  8
0
100
AcDbPolyline
 90
2
 70
0
 10
11.14579397905476
 20
0.4945976359039009
 10
11.30579397905484
 20
0.4945976359039009
  0
LWPOLYLINE
  5
182
330
17
100
AcDbEntity
  8
0
100
AcDbPolyline
 90
2
 70
0
 10
11.46579397905492
 20
0.4945976359039009
 10
11.62579397905477
 20
0.4945976359039009
  0
LWPOLYLINE
  5
183
330
17
100
AcDbEntity
  8
0
100
AcDbPolyline
 90
2
 70
0
 10
11.78579397905486
 20
0.4945976359039009
 10
11.94579397905494
 20
0.4945976359039009
  0
LWPOLYLINE
  5
184
330
17
100
AcDbEntity
  8
0
100
AcDbPolyline
 90
2
 70
0
 10
12.10579397905479
 20
0.4945976359039435
 10
12.26579397905487
 20
0.4945976359039435
  0
LWPOLYLINE
  5
185
330
17
100
AcDbEntity
  8
0
100
AcDbPolyline
 90
3
 70
0
 10
12.38579397905499
 20
0.4945976359039435
 10
12.57979397905495
 20
0.4945976359039435
 10
12.57979397905495
 20
0.3005976359039835
  0
LWPOLYLINE
  5
186
330
17
100
AcDbEntity
  8
0
100
AcDbPolyline
 90
2
 70
0
 10
12.57979397905495
 20
0.1805976359039789
 10
12.57979397905495
 20
0.0205976359039681
  0
LWPOLYLINE
  5
187
330
17
100
AcDbEntity
  8
0
100
AcDbPolyline
 90
2
 70
0
 10
12.57979397905495
 20
-0.1394023640960285
 10
12.57979397905495
 20
-0.2994023640960392
  0
LWPOLYLINE
  5
188
330
17
100
AcDbEntity
  8
0
100
AcDbPolyline
 90
2
 70
0
 10
12.57979397905495
 20
-0.4594023640960501
 10
12.57979397905495
 20
-0.6194023640960467
  0
LWPOLYLINE
  5
189
330
17
100
AcDbEntity
  8
0
100
AcDbPolyline
 90
2
 70
0
 10
10.83179397905491
 20
-0.7794023640959864
 10
10.83179397905491
 20
-0.9394023640959829
  0
LWPOLYLINE
  5
18A
330
17
100
AcDbEntity
  8
0
100
AcDbPolyline
 90
2
 70
0
 10
10.83179397905491
 20
0.1805976359039789
 10
10.83179397905491
 20
0.0205976359040108
  0
LWPOLYLINE
  5
18B
330
17
100
AcDbEntity
  8
0
100
AcDbPolyline
 90
2
 70
0
 10
10.83179397905491
 20
-0.1394023640959574
 10
10.83179397905491
 20
-0.2994023640960392
  0
LWPOLYLINE
  5
18C
330
17
100
AcDbEntity
  8
0
100
AcDbPolyline
 90
2
 70
0
 10
10.83179397905491
 20
-0.4594023640960075
 10
10.83179397905491
 20
-0.6194023640959756
  0
LWPOLYLINE
  5
18D
330
17
100
AcDbEntity
  8
0
100
AcDbPolyline
 90
8
 70
0
 10
9.7497939790548
 20
0.7445976359040573
 10
9.7497939790548
 20
0.9365976359039507
 10
9.653793979054797
 20
1.032597635903954
 10
9.429793979054862
 20
1.032597635903954
 10
9.429793979054862
 20
1.896597635903987
 10
9.65379397905491
 20
1.896597635903987
 10
9.7497939790548
 20
1.99259763590399
 10
9.7497939790548
 20
2.184597635903813
  0
LWPOLYLINE
  5
18E
330
17
100
AcDbEntity
  8
0
100
AcDbPolyline
 90
7
 70
0
 10
9.973793979054731
 20
2.184597635903813
 10
9.973793979054731
 20
1.992597635903948
 10
10.06979397905496
 20
1.896597635903944
 10
10.29379397905489
 20
1.896597635903987
 10
10.29379397905489
 20
1.67259763590394
 10
10.3897939790549
 20
1.576597635903937
 10
10.5817939790549
 20
1.576597635903937
  0
LWPOLYLINE
  5
18F
330
17
100
AcDbEntity
  8
0
100
AcDbPolyline
 90
7
 70
0
 10
10.5817939790549
 20
1.352597635904004
 10
10.3897939790549
 20
1.352597635904004
 10
10.29379397905489
 20
1.256597635904
 10
10.29379397905489
 20
1.032597635903954
 10
10.06979397905473
 20
1.032597635903911
 10
9.973793979054731
 20
0.936597635903908
 10
9.973793979054731
 20
0.7445976359040573
  0
LINE
  5
190
330
17
100
AcDbEntity
  8
0
100
AcDbLine
 10
10.54179397905494
 20
2.20059763590396
 30
0.0
 11
10.54179397905494
 21
2.264597635903967
 31
0.0
  0
LINE
  5
191
330
17
100
AcDbEntity
  8
0
100
AcDbLine
 10
10.42179397905482
 20
2.184597635903955
 30
0.0
 11
10.42179397905482
 21
2.264597635903967
 31
0.0
  0
LINE
  5
192
330
17
100
AcDbEntity
  8
0
100
AcDbLine
 10
10.5817939790549
 20
1.864597635903948
 30
0.0
 11
10.66179397905483
 21
1.864597635903948
 31
0.0
  0
LINE
  5
193
330
17
100
AcDbEntity
  8
0
100
AcDbLine
 10
10.5817939790549
 20
1.704597635903979
 30
0.0
 11
10.66179397905483
 21
1.704597635903979
 31
0.0
  0
LINE
  5
194
330
17
100
AcDbEntity
  8
0
100
AcDbLine
 10
10.5817939790549
 20
2.024597635903958
 30
0.0
 11
10.5817939790549
 21
1.992597635903948
 31
0.0
  0
LINE
  5
195
330
17
100
AcDbEntity
  8
0
100
AcDbLine
 10
10.42179397905482
 20
2.184597635903955
 30
0.0
 11
10.3897939790549
 21
2.184597635903955
 31
0.0
  0
LINE
  5
196
330
17
100
AcDbEntity
  8
0
100
AcDbLine
 10
10.3897939790549
 20
2.184597635903955
 30
0.0
 11
10.3897939790549
 21
2.056597635903955
 31
0.0
  0
LINE
  5
197
330
17
100
AcDbEntity
  8
0
100
AcDbLine
 10
10.45379397905498
 20
1.992597635903948
 30
0.0
 11
10.5817939790549
 21
1.992597635903948
 31
0.0
  0
LINE
  5
198
330
17
100
AcDbEntity
  8
0
100
AcDbLine
 10
10.3897939790549
 20
2.056597635903955
 30
0.0
 11
10.45379397905498
 21
1.992597635903948
 31
0.0
  0
LINE
  5
199
330
17
100
AcDbEntity
  8
0
100
AcDbLine
 10
10.26179397905474
 20
2.184597635903884
 30
0.0
 11
10.26179397905474
 21
2.264597635903967
 31
0.0
  0
LINE
  5
19A
330
17
100
AcDbEntity
  8
0
100
AcDbLine
 10
10.10179397905489
 20
2.184597635903813
 30
0.0
 11
10.10179397905489
 21
2.264597635903925
 31
0.0
  0
LINE
  5
19B
330
17
100
AcDbEntity
  8
0
100
AcDbLine
 10
10.26179397905474
 20
2.184597635903884
 30
0.0
 11
10.29379397905489
 21
2.184597635903884
 31
0.0
  0
LINE
  5
19C
330
17
100
AcDbEntity
  8
0
100
AcDbLine
 10
10.29379397905489
 20
2.184597635903884
 30
0.0
 11
10.29379397905489
 21
1.992597635903877
 31
0.0
  0
LINE
  5
19D
330
17
100
AcDbEntity
  8
0
100
AcDbLine
 10
10.29379397905489
 20
1.992597635903877
 30
0.0
 11
10.06979397905473
 21
1.992597635903806
 31
0.0
  0
LINE
  5
19E
330
17
100
AcDbEntity
  8
0
100
AcDbLine
 10
10.06979397905473
 20
1.992597635903806
 30
0.0
 11
10.06979397905473
 21
2.184597635903813
 31
0.0
  0
LINE
  5
19F
330
17
100
AcDbEntity
  8
0
100
AcDbLine
 10
10.06979397905473
 20
2.184597635903813
 30
0.0
 11
10.10179397905489
 21
2.184597635903813
 31
0.0
  0
LINE
  5
1A0
330
17
100
AcDbEntity
  8
0
100
AcDbLine
 10
10.5817939790549
 20
1.864597635903948
 30
0.0
 11
10.5817939790549
 21
1.896597635903987
 31
0.0
  0
LINE
  5
1A1
330
17
100
AcDbEntity
  8
0
100
AcDbLine
 10
10.5817939790549
 20
1.896597635903987
 30
0.0
 11
10.3897939790549
 21
1.896597635903987
 31
0.0
  0
LINE
  5
1A2
330
17
100
AcDbEntity
  8
0
100
AcDbLine
 10
10.3897939790549
 20
1.896597635903987
 30
0.0
 11
10.3897939790549
 21
1.672597635904011
 31
0.0
  0
LINE
  5
1A3
330
17
100
AcDbEntity
  8
0
100
AcDbLine
 10
10.3897939790549
 20
1.672597635904011
 30
0.0
 11
10.5817939790549
 21
1.672597635904011
 31
0.0
  0
LINE
  5
1A4
330
17
100
AcDbEntity
  8
0
100
AcDbLine
 10
10.5817939790549
 20
1.672597635904011
 30
0.0
 11
10.5817939790549
 21
1.704597635903979
 31
0.0
  0
LINE
  5
1A5
330
17
100
AcDbEntity
  8
0
100
AcDbLine
 10
10.5817939790549
 20
1.54459763590394
 30
0.0
 11
10.5817939790549
 21
1.576597635903937
 31
0.0
  0
LINE
  5
1A6
330
17
100
AcDbEntity
  8
0
100
AcDbLine
 10
10.5817939790549
 20
1.352597635904004
 30
0.0
 11
10.5817939790549
 21
1.384597635903929
 31
0.0
  0
LINE
  5
1A7
330
17
100
AcDbEntity
  8
0
100
AcDbLine
 10
10.5817939790549
 20
1.224597635903961
 30
0.0
 11
10.5817939790549
 21
1.256597635904
 31
0.0
  0
LINE
  5
1A8
330
17
100
AcDbEntity
  8
0
100
AcDbLine
 10
10.5817939790549
 20
1.256597635904
 30
0.0
 11
10.3897939790549
 21
1.256597635904
 31
0.0
  0
LINE
  5
1A9
330
17
100
AcDbEntity
  8
0
100
AcDbLine
 10
10.3897939790549
 20
1.256597635904
 30
0.0
 11
10.3897939790549
 21
1.032597635903997
 31
0.0
  0
LINE
  5
1AA
330
17
100
AcDbEntity
  8
0
100
AcDbLine
 10
10.3897939790549
 20
1.032597635903997
 30
0.0
 11
10.5817939790549
 21
1.032597635903997
 31
0.0
  0
LINE
  5
1AB
330
17
100
AcDbEntity
  8
0
100
AcDbLine
 10
10.5817939790549
 20
1.032597635903997
 30
0.0
 11
10.5817939790549
 21
1.064597635903993
 31
0.0
  0
LINE
  5
1AC
330
17
100
AcDbEntity
  8
0
100
AcDbLine
 10
10.5817939790549
 20
0.9045976359039116
 30
0.0
 11
10.5817939790549
 21
0.9365976359039507
 31
0.0
  0
LINE
  5
1AD
330
17
100
AcDbEntity
  8
0
100
AcDbLine
 10
10.5817939790549
 20
0.9365976359039507
 30
0.0
 11
10.3897939790549
 21
0.9365976359039507
 31
0.0
  0
LINE
  5
1AE
330
17
100
AcDbEntity
  8
0
100
AcDbLine
 10
10.3897939790549
 20
0.9365976359039507
 30
0.0
 11
10.3897939790549
 21
0.7445976359039861
 31
0.0
  0
LINE
  5
1AF
330
17
100
AcDbEntity
  8
0
100
AcDbLine
 10
10.5817939790549
 20
1.54459763590394
 30
0.0
 11
10.66179397905483
 21
1.54459763590394
 31
0.0
  0
LINE
  5
1B0
330
17
100
AcDbEntity
  8
0
100
AcDbLine
 10
10.5817939790549
 20
1.384597635903929
 30
0.0
 11
10.66179397905483
 21
1.384597635903929
 31
0.0
  0
LINE
  5
1B1
330
17
100
AcDbEntity
  8
0
100
AcDbLine
 10
10.54179397905494
 20
2.264597635903967
 30
0.0
 11
10.54179397905494
 21
2.338597635903951
 31
0.0
  0
LINE
  5
1B2
330
17
100
AcDbEntity
  8
0
100
AcDbLine
 10
10.42179397905482
 20
2.264597635903967
 30
0.0
 11
10.42179397905482
 21
2.338597635903951
 31
0.0
  0
LINE
  5
1B3
330
17
100
AcDbEntity
  8
0
100
AcDbLine
 10
10.5817939790549
 20
2.024597635903958
 30
0.0
 11
10.66179397905483
 21
2.024597635903958
 31
0.0
  0
LINE
  5
1B4
330
17
100
AcDbEntity
  8
0
100
AcDbLine
 10
10.66179397905483
 20
2.024597635903958
 30
0.0
 11
10.7357939790549
 21
2.024597635903958
 31
0.0
  0
LINE
  5
1B5
330
17
100
AcDbEntity
  8
0
100
AcDbLine
 10
10.59779397905475
 20
2.144597635903991
 30
0.0
 11
10.66179397905483
 21
2.144597635903991
 31
0.0
  0
LINE
  5
1B6
330
17
100
AcDbEntity
  8
0
100
AcDbLine
 10
10.54179397905494
 20
2.20059763590396
 30
0.0
 11
10.59779397905475
 21
2.144597635903991
 31
0.0
  0
LINE
  5
1B7
330
17
100
AcDbEntity
  8
0
100
AcDbLine
 10
10.66179397905483
 20
2.144597635903991
 30
0.0
 11
10.7357939790549
 21
2.144597635903991
 31
0.0
  0
LINE
  5
1B8
330
17
100
AcDbEntity
  8
0
100
AcDbLine
 10
9.941793979054808
 20
2.184597635903813
 30
0.0
 11
9.973793979054731
 21
2.184597635903813
 31
0.0
  0
LINE
  5
1B9
330
17
100
AcDbEntity
  8
0
100
AcDbLine
 10
9.7497939790548
 20
2.184597635903813
 30
0.0
 11
9.781793979054726
 21
2.184597635903813
 31
0.0
  0
LINE
  5
1BA
330
17
100
AcDbEntity
  8
0
100
AcDbLine
 10
9.621793979054871
 20
2.184597635903884
 30
0.0
 11
9.65379397905491
 21
2.184597635903884
 31
0.0
  0
LINE
  5
1BB
330
17
100
AcDbEntity
  8
0
100
AcDbLine
 10
9.65379397905491
 20
2.184597635903884
 30
0.0
 11
9.65379397905491
 21
1.992597635903877
 31
0.0
  0
LINE
  5
1BC
330
17
100
AcDbEntity
  8
0
100
AcDbLine
 10
9.65379397905491
 20
1.992597635903877
 30
0.0
 11
9.429793979054862
 21
1.992597635903877
 31
0.0
  0
LINE
  5
1BD
330
17
100
AcDbEntity
  8
0
100
AcDbLine
 10
9.429793979054862
 20
1.992597635903877
 30
0.0
 11
9.429793979054862
 21
2.184597635903884
 31
0.0
  0
LINE
  5
1BE
330
17
100
AcDbEntity
  8
0
100
AcDbLine
 10
9.429793979054862
 20
2.184597635903884
 30
0.0
 11
9.461793979054903
 21
2.184597635903884
 31
0.0
  0
LINE
  5
1BF
330
17
100
AcDbEntity
  8
0
100
AcDbLine
 10
10.54179397905494
 20
0.7445976359039435
 30
0.0
 11
10.54179397905494
 21
0.6645976359039736
 31
0.0
  0
LINE
  5
1C0
330
17
100
AcDbEntity
  8
0
100
AcDbLine
 10
10.42179397905494
 20
0.7445976359039861
 30
0.0
 11
10.42179397905494
 21
0.6645976359039736
 31
0.0
  0
LINE
  5
1C1
330
17
100
AcDbEntity
  8
0
100
AcDbLine
 10
10.54179397905494
 20
0.6645976359039736
 30
0.0
 11
10.54179397905494
 21
0.5905976359039898
 31
0.0
  0
LINE
  5
1C2
330
17
100
AcDbEntity
  8
0
100
AcDbLine
 10
10.42179397905494
 20
0.6645976359039736
 30
0.0
 11
10.42179397905505
 21
0.5905976359039898
 31
0.0
  0
LINE
  5
1C3
330
17
100
AcDbEntity
  8
0
100
AcDbLine
 10
10.5817939790549
 20
0.9045976359039826
 30
0.0
 11
10.66179397905483
 21
0.9045976359039826
 31
0.0
  0
LINE
  5
1C4
330
17
100
AcDbEntity
  8
0
100
AcDbLine
 10
10.66179397905483
 20
0.9045976359039826
 30
0.0
 11
10.7357939790549
 21
0.9045976359039826
 31
0.0
  0
LINE
  5
1C5
330
17
100
AcDbEntity
  8
0
100
AcDbLine
 10
10.5817939790549
 20
0.7845976359039497
 30
0.0
 11
10.66179397905483
 21
0.7845976359039497
 31
0.0
  0
LINE
  5
1C6
330
17
100
AcDbEntity
  8
0
100
AcDbLine
 10
10.66179397905483
 20
0.7845976359039497
 30
0.0
 11
10.7357939790549
 21
0.7845976359039497
 31
0.0
  0
LINE
  5
1C7
330
17
100
AcDbEntity
  8
0
100
AcDbLine
 10
10.3897939790549
 20
0.7445976359039861
 30
0.0
 11
10.42179397905494
 21
0.7445976359039435
 31
0.0
  0
LWPOLYLINE
  5
1C8
330
17
100
AcDbEntity
  8
0
100
AcDbPolyline
 90
3
 70
0
 10
10.5817939790549
 20
0.7845976359039497
 10
10.5817939790549
 20
0.7445976359039435
 10
10.54179397905494
 20
0.7445976359039435
  0
LINE
  5
1C9
330
17
100
AcDbEntity
  8
0
100
AcDbLine
 10
9.141793979054853
 20
0.9045976359039826
 30
0.0
 11
9.141793979054853
 21
0.9365976359039933
 31
0.0
  0
LINE
  5
1CA
330
17
100
AcDbEntity
  8
0
100
AcDbLine
 10
9.141793979054853
 20
0.9365976359039933
 30
0.0
 11
9.33379397905486
 21
0.9365976359039507
 31
0.0
  0
LINE
  5
1CB
330
17
100
AcDbEntity
  8
0
100
AcDbLine
 10
9.33379397905486
 20
0.9365976359039507
 30
0.0
 11
9.33379397905486
 21
0.7445976359039861
 31
0.0
  0
LINE
  5
1CC
330
17
100
AcDbEntity
  8
0
100
AcDbLine
 10
9.181793979054817
 20
0.7445976359039861
 30
0.0
 11
9.181793979054817
 21
0.6645976359040163
 31
0.0
  0
LINE
  5
1CD
330
17
100
AcDbEntity
  8
0
100
AcDbLine
 10
9.301793979054708
 20
0.7445976359039861
 30
0.0
 11
9.301793979054708
 21
0.6645976359039736
 31
0.0
  0
LINE
  5
1CE
330
17
100
AcDbEntity
  8
0
100
AcDbLine
 10
9.181793979054817
 20
0.6645976359040163
 30
0.0
 11
9.181793979054817
 21
0.5905976359040608
 31
0.0
  0
LINE
  5
1CF
330
17
100
AcDbEntity
  8
0
100
AcDbLine
 10
9.301793979054708
 20
0.6645976359039736
 30
0.0
 11
9.301793979054708
 21
0.5905976359039898
 31
0.0
  0
LINE
  5
1D0
330
17
100
AcDbEntity
  8
0
100
AcDbLine
 10
9.141793979054853
 20
0.9045976359040253
 30
0.0
 11
9.061793979054698
 21
0.9045976359040253
 31
0.0
  0
LINE
  5
1D1
330
17
100
AcDbEntity
  8
0
100
AcDbLine
 10
9.061793979054698
 20
0.9045976359040253
 30
0.0
 11
8.987793979054857
 21
0.9045976359040253
 31
0.0
  0
LINE
  5
1D2
330
17
100
AcDbEntity
  8
0
100
AcDbLine
 10
9.141793979054853
 20
0.7845976359040208
 30
0.0
 11
9.061793979054698
 21
0.7845976359040208
 31
0.0
  0
LINE
  5
1D3
330
17
100
AcDbEntity
  8
0
100
AcDbLine
 10
9.061793979054698
 20
0.7845976359040208
 30
0.0
 11
8.987793979054857
 21
0.7845976359040208
 31
0.0
  0
LINE
  5
1D4
330
17
100
AcDbEntity
  8
0
100
AcDbLine
 10
9.33379397905486
 20
0.7445976359039861
 30
0.0
 11
9.301793979054935
 21
0.7445976359039435
 31
0.0
  0
LWPOLYLINE
  5
1D5
330
17
100
AcDbEntity
  8
0
100
AcDbPolyline
 90
3
 70
0
 10
9.141793979054853
 20
0.7845976359040208
 10
9.141793979054853
 20
0.7445976359039861
 10
9.181793979054817
 20
0.7445976359039861
  0
LINE
  5
1D6
330
17
100
AcDbEntity
  8
0
100
AcDbLine
 10
9.141793979054853
 20
2.024597635903958
 30
0.0
 11
9.141793979054853
 21
1.992597635903948
 31
0.0
  0
LINE
  5
1D7
330
17
100
AcDbEntity
  8
0
100
AcDbLine
 10
9.141793979054853
 20
1.992597635903948
 30
0.0
 11
9.33379397905486
 21
1.99259763590399
 31
0.0
  0
LINE
  5
1D8
330
17
100
AcDbEntity
  8
0
100
AcDbLine
 10
9.33379397905486
 20
1.99259763590399
 30
0.0
 11
9.33379397905486
 21
2.184597635903955
 31
0.0
  0
LINE
  5
1D9
330
17
100
AcDbEntity
  8
0
100
AcDbLine
 10
9.181793979054817
 20
2.184597635903955
 30
0.0
 11
9.181793979054817
 21
2.264597635903925
 31
0.0
  0
LINE
  5
1DA
330
17
100
AcDbEntity
  8
0
100
AcDbLine
 10
9.301793979054708
 20
2.184597635903955
 30
0.0
 11
9.301793979054708
 21
2.264597635903967
 31
0.0
  0
LINE
  5
1DB
330
17
100
AcDbEntity
  8
0
100
AcDbLine
 10
9.181793979054817
 20
2.264597635903925
 30
0.0
 11
9.181793979054817
 21
2.33859763590388
 31
0.0
  0
LINE
  5
1DC
330
17
100
AcDbEntity
  8
0
100
AcDbLine
 10
9.301793979054708
 20
2.264597635903967
 30
0.0
 11
9.301793979054708
 21
2.338597635903951
 31
0.0
  0
LINE
  5
1DD
330
17
100
AcDbEntity
  8
0
100
AcDbLine
 10
9.141793979054853
 20
2.024597635903916
 30
0.0
 11
9.061793979054698
 21
2.024597635903916
 31
0.0
  0
LINE
  5
1DE
330
17
100
AcDbEntity
  8
0
100
AcDbLine
 10
9.061793979054698
 20
2.024597635903916
 30
0.0
 11
8.987793979054857
 21
2.024597635903916
 31
0.0
  0
LINE
  5
1DF
330
17
100
AcDbEntity
  8
0
100
AcDbLine
 10
9.141793979054853
 20
2.14459763590392
 30
0.0
 11
9.061793979054698
 21
2.14459763590392
 31
0.0
  0
LINE
  5
1E0
330
17
100
AcDbEntity
  8
0
100
AcDbLine
 10
9.061793979054698
 20
2.14459763590392
 30
0.0
 11
8.987793979054857
 21
2.14459763590392
 31
0.0
  0
LINE
  5
1E1
330
17
100
AcDbEntity
  8
0
100
AcDbLine
 10
9.33379397905486
 20
2.184597635903955
 30
0.0
 11
9.301793979054708
 21
2.184597635903998
 31
0.0
  0
LWPOLYLINE
  5
1E2
330
17
100
AcDbEntity
  8
0
100
AcDbPolyline
 90
3
 70
0
 10
9.141793979054853
 20
2.14459763590392
 10
9.141793979054853
 20
2.184597635903955
 10
9.181793979054817
 20
2.184597635903955
  0
LINE
  5
1E3
330
17
100
AcDbEntity
  8
0
100
AcDbLine
 10
10.26179397905474
 20
2.264597635903967
 30
0.0
 11
10.26179397905474
 21
2.338597635903951
 31
0.0
  0
LINE
  5
1E4
330
17
100
AcDbEntity
  8
0
100
AcDbLine
 10
10.10179397905489
 20
2.264597635903925
 30
0.0
 11
10.10179397905489
 21
2.33859763590388
 31
0.0
  0
LINE
  5
1E5
330
17
100
AcDbEntity
  8
0
100
AcDbLine
 10
9.941793979054808
 20
2.184597635903813
 30
0.0
 11
9.941793979054808
 21
2.264597635903925
 31
0.0
  0
LINE
  5
1E6
330
17
100
AcDbEntity
  8
0
100
AcDbLine
 10
9.781793979054726
 20
2.184597635903813
 30
0.0
 11
9.781793979054726
 21
2.264597635903925
 31
0.0
  0
LINE
  5
1E7
330
17
100
AcDbEntity
  8
0
100
AcDbLine
 10
9.941793979054808
 20
2.264597635903925
 30
0.0
 11
9.941793979054808
 21
2.33859763590388
 31
0.0
  0
LINE
  5
1E8
330
17
100
AcDbEntity
  8
0
100
AcDbLine
 10
9.781793979054726
 20
2.264597635903925
 30
0.0
 11
9.781793979054726
 21
2.33859763590388
 31
0.0
  0
LINE
  5
1E9
330
17
100
AcDbEntity
  8
0
100
AcDbLine
 10
9.621793979054871
 20
2.184597635903884
 30
0.0
 11
9.621793979054871
 21
2.264597635904038
 31
0.0
  0
LINE
  5
1EA
330
17
100
AcDbEntity
  8
0
100
AcDbLine
 10
9.461793979054903
 20
2.184597635903884
 30
0.0
 11
9.461793979054903
 21
2.264597635904038
 31
0.0
  0
LINE
  5
1EB
330
17
100
AcDbEntity
  8
0
100
AcDbLine
 10
9.621793979054871
 20
2.264597635904038
 30
0.0
 11
9.621793979054871
 21
2.338597635903994
 31
0.0
  0
LINE
  5
1EC
330
17
100
AcDbEntity
  8
0
100
AcDbLine
 10
9.461793979054903
 20
2.264597635904038
 30
0.0
 11
9.461793979054903
 21
2.338597635903994
 31
0.0
  0
LINE
  5
1ED
330
17
100
AcDbEntity
  8
0
100
AcDbLine
 10
10.26179397905474
 20
0.7445976359040573
 30
0.0
 11
10.26179397905474
 21
0.6645976359039736
 31
0.0
  0
LINE
  5
1EE
330
17
100
AcDbEntity
  8
0
100
AcDbLine
 10
10.10179397905489
 20
0.7445976359040573
 30
0.0
 11
10.10179397905489
 21
0.6645976359039026
 31
0.0
  0
LINE
  5
1EF
330
17
100
AcDbEntity
  8
0
100
AcDbLine
 10
10.26179397905474
 20
0.7445976359040573
 30
0.0
 11
10.29379397905489
 21
0.7445976359040573
 31
0.0
  0
LINE
  5
1F0
330
17
100
AcDbEntity
  8
0
100
AcDbLine
 10
10.29379397905489
 20
0.7445976359040573
 30
0.0
 11
10.29379397905489
 21
0.9365976359040644
 31
0.0
  0
LINE
  5
1F1
330
17
100
AcDbEntity
  8
0
100
AcDbLine
 10
10.29379397905489
 20
0.9365976359040644
 30
0.0
 11
10.06979397905473
 21
0.9365976359040644
 31
0.0
  0
LINE
  5
1F2
330
17
100
AcDbEntity
  8
0
100
AcDbLine
 10
10.06979397905473
 20
0.9365976359040644
 30
0.0
 11
10.06979397905473
 21
0.7445976359040573
 31
0.0
  0
LINE
  5
1F3
330
17
100
AcDbEntity
  8
0
100
AcDbLine
 10
10.06979397905473
 20
0.7445976359040573
 30
0.0
 11
10.10179397905489
 21
0.7445976359040573
 31
0.0
  0
LINE
  5
1F4
330
17
100
AcDbEntity
  8
0
100
AcDbLine
 10
9.941793979054808
 20
0.7445976359040573
 30
0.0
 11
9.973793979054731
 21
0.7445976359040573
 31
0.0
  0
LINE
  5
1F5
330
17
100
AcDbEntity
  8
0
100
AcDbLine
 10
9.7497939790548
 20
0.7445976359040573
 30
0.0
 11
9.781793979054726
 21
0.7445976359040573
 31
0.0
  0
LINE
  5
1F6
330
17
100
AcDbEntity
  8
0
100
AcDbLine
 10
9.621793979054871
 20
0.7445976359040573
 30
0.0
 11
9.653793979054797
 21
0.7445976359039861
 31
0.0
  0
LINE
  5
1F7
330
17
100
AcDbEntity
  8
0
100
AcDbLine
 10
9.653793979054797
 20
0.7445976359039861
 30
0.0
 11
9.653793979054797
 21
0.9365976359039933
 31
0.0
  0
LINE
  5
1F8
330
17
100
AcDbEntity
  8
0
100
AcDbLine
 10
9.653793979054797
 20
0.9365976359039933
 30
0.0
 11
9.429793979054862
 21
0.9365976359040644
 31
0.0
  0
LINE
  5
1F9
330
17
100
AcDbEntity
  8
0
100
AcDbLine
 10
9.429793979054862
 20
0.9365976359040644
 30
0.0
 11
9.429793979054862
 21
0.7445976359040573
 31
0.0
  0
LINE
  5
1FA
330
17
100
AcDbEntity
  8
0
100
AcDbLine
 10
9.429793979054862
 20
0.7445976359040573
 30
0.0
 11
9.46179397905479
 21
0.7445976359040573
 31
0.0
  0
LINE
  5
1FB
330
17
100
AcDbEntity
  8
0
100
AcDbLine
 10
10.26179397905474
 20
0.6645976359039736
 30
0.0
 11
10.26179397905474
 21
0.5905976359039898
 31
0.0
  0
LINE
  5
1FC
330
17
100
AcDbEntity
  8
0
100
AcDbLine
 10
10.10179397905489
 20
0.6645976359039026
 30
0.0
 11
10.10179397905489
 21
0.5905976359039471
 31
0.0
  0
LINE
  5
1FD
330
17
100
AcDbEntity
  8
0
100
AcDbLine
 10
9.941793979054808
 20
0.7445976359040573
 30
0.0
 11
9.941793979054808
 21
0.6645976359039736
 31
0.0
  0
LINE
  5
1FE
330
17
100
AcDbEntity
  8
0
100
AcDbLine
 10
9.781793979054726
 20
0.7445976359040573
 30
0.0
 11
9.781793979054726
 21
0.6645976359039736
 31
0.0
  0
LINE
  5
1FF
330
17
100
AcDbEntity
  8
0
100
AcDbLine
 10
9.941793979054808
 20
0.6645976359039736
 30
0.0
 11
9.941793979054808
 21
0.5905976359039898
 31
0.0
  0
LINE
  5
200
330
17
100
AcDbEntity
  8
0
100
AcDbLine
 10
9.781793979054726
 20
0.6645976359039736
 30
0.0
 11
9.781793979054726
 21
0.5905976359039898
 31
0.0
  0
LINE
  5
201
330
17
100
AcDbEntity
  8
0
100
AcDbLine
 10
9.621793979054871
 20
0.7445976359040573
 30
0.0
 11
9.621793979054871
 21
0.6645976359039026
 31
0.0
  0
LINE
  5
202
330
17
100
AcDbEntity
  8
0
100
AcDbLine
 10
9.46179397905479
 20
0.7445976359040573
 30
0.0
 11
9.46179397905479
 21
0.6645976359039026
 31
0.0
  0
LINE
  5
203
330
17
100
AcDbEntity
  8
0
100
AcDbLine
 10
9.621793979054871
 20
0.6645976359039026
 30
0.0
 11
9.621793979054871
 21
0.5905976359039471
 31
0.0
  0
LINE
  5
204
330
17
100
AcDbEntity
  8
0
100
AcDbLine
 10
9.46179397905479
 20
0.6645976359039026
 30
0.0
 11
9.46179397905479
 21
0.5905976359039471
 31
0.0
  0
LINE
  5
205
330
17
100
AcDbEntity
  8
0
100
AcDbLine
 10
10.66179397905483
 20
1.864597635903948
 30
0.0
 11
10.7357939790549
 21
1.864597635903948
 31
0.0
  0
LINE
  5
206
330
17
100
AcDbEntity
  8
0
100
AcDbLine
 10
10.66179397905483
 20
1.704597635903979
 30
0.0
 11
10.7357939790549
 21
1.704597635903979
 31
0.0
  0
LINE
  5
207
330
17
100
AcDbEntity
  8
0
100
AcDbLine
 10
10.66179397905483
 20
1.54459763590394
 30
0.0
 11
10.7357939790549
 21
1.54459763590394
 31
0.0
  0
LINE
  5
208
330
17
100
AcDbEntity
  8
0
100
AcDbLine
 10
10.66179397905483
 20
1.384597635903929
 30
0.0
 11
10.7357939790549
 21
1.384597635903929
 31
0.0
  0
LINE
  5
209
330
17
100
AcDbEntity
  8
0
100
AcDbLine
 10
10.5817939790549
 20
1.224597635903961
 30
0.0
 11
10.66179397905483
 21
1.224597635903961
 31
0.0
  0
LINE
  5
20A
330
17
100
AcDbEntity
  8
0
100
AcDbLine
 10
10.5817939790549
 20
1.064597635903993
 30
0.0
 11
10.66179397905483
 21
1.064597635903993
 31
0.0
  0
LINE
  5
20B
330
17
100
AcDbEntity
  8
0
100
AcDbLine
 10
10.66179397905483
 20
1.224597635903961
 30
0.0
 11
10.7357939790549
 21
1.224597635903961
 31
0.0
  0
LINE
  5
20C
330
17
100
AcDbEntity
  8
0
100
AcDbLine
 10
10.66179397905483
 20
1.064597635903993
 30
0.0
 11
10.7357939790549
 21
1.064597635903993
 31
0.0
  0
LINE
  5
20D
330
17
100
AcDbEntity
  8
0
100
AcDbLine
 10
9.141793979054853
 20
1.864597635904019
 30
0.0
 11
9.061793979054926
 21
1.864597635904019
 31
0.0
  0
LINE
  5
20E
330
17
100
AcDbEntity
  8
0
100
AcDbLine
 10
9.141793979054853
 20
1.704597635904022
 30
0.0
 11
9.061793979054926
 21
1.704597635904022
 31
0.0
  0
LINE
  5
20F
330
17
100
AcDbEntity
  8
0
100
AcDbLine
 10
9.141793979054853
 20
1.864597635904019
 30
0.0
 11
9.141793979054853
 21
1.896597635904029
 31
0.0
  0
LINE
  5
210
330
17
100
AcDbEntity
  8
0
100
AcDbLine
 10
9.141793979054853
 20
1.896597635904029
 30
0.0
 11
9.33379397905486
 21
1.896597635903987
 31
0.0
  0
LINE
  5
211
330
17
100
AcDbEntity
  8
0
100
AcDbLine
 10
9.33379397905486
 20
1.896597635903987
 30
0.0
 11
9.33379397905486
 21
1.672597635904011
 31
0.0
  0
LINE
  5
212
330
17
100
AcDbEntity
  8
0
100
AcDbLine
 10
9.33379397905486
 20
1.672597635904011
 30
0.0
 11
9.141793979054853
 21
1.672597635904054
 31
0.0
  0
LINE
  5
213
330
17
100
AcDbEntity
  8
0
100
AcDbLine
 10
9.141793979054853
 20
1.672597635904054
 30
0.0
 11
9.141793979054853
 21
1.704597635904022
 31
0.0
  0
LINE
  5
214
330
17
100
AcDbEntity
  8
0
100
AcDbLine
 10
9.141793979054853
 20
1.544597635904011
 30
0.0
 11
9.141793979054853
 21
1.576597635904008
 31
0.0
  0
LINE
  5
215
330
17
100
AcDbEntity
  8
0
100
AcDbLine
 10
9.141793979054853
 20
1.352597635904004
 30
0.0
 11
9.141793979054853
 21
1.384597635904
 31
0.0
  0
LINE
  5
216
330
17
100
AcDbEntity
  8
0
100
AcDbLine
 10
9.141793979054853
 20
1.224597635904004
 30
0.0
 11
9.141793979054853
 21
1.256597635904
 31
0.0
  0
LINE
  5
217
330
17
100
AcDbEntity
  8
0
100
AcDbLine
 10
9.141793979054853
 20
1.256597635904
 30
0.0
 11
9.33379397905486
 21
1.256597635904
 31
0.0
  0
LINE
  5
218
330
17
100
AcDbEntity
  8
0
100
AcDbLine
 10
9.33379397905486
 20
1.256597635904
 30
0.0
 11
9.33379397905486
 21
1.032597635903997
 31
0.0
  0
LINE
  5
219
330
17
100
AcDbEntity
  8
0
100
AcDbLine
 10
9.33379397905486
 20
1.032597635903997
 30
0.0
 11
9.141793979054853
 21
1.032597635904068
 31
0.0
  0
LINE
  5
21A
330
17
100
AcDbEntity
  8
0
100
AcDbLine
 10
9.141793979054853
 20
1.032597635904068
 30
0.0
 11
9.141793979054853
 21
1.064597635903993
 31
0.0
  0
LINE
  5
21B
330
17
100
AcDbEntity
  8
0
100
AcDbLine
 10
9.141793979054853
 20
1.544597635904011
 30
0.0
 11
9.061793979054926
 21
1.544597635904011
 31
0.0
  0
LINE
  5
21C
330
17
100
AcDbEntity
  8
0
100
AcDbLine
 10
9.141793979054853
 20
1.384597635904
 30
0.0
 11
9.061793979054926
 21
1.384597635904
 31
0.0
  0
LINE
  5
21D
330
17
100
AcDbEntity
  8
0
100
AcDbLine
 10
9.061793979054926
 20
1.864597635904019
 30
0.0
 11
8.987793979054857
 21
1.864597635904061
 31
0.0
  0
LINE
  5
21E
330
17
100
AcDbEntity
  8
0
100
AcDbLine
 10
9.061793979054926
 20
1.704597635904022
 30
0.0
 11
8.987793979054857
 21
1.704597635904093
 31
0.0
  0
LINE
  5
21F
330
17
100
AcDbEntity
  8
0
100
AcDbLine
 10
9.061793979054926
 20
1.544597635904011
 30
0.0
 11
8.987793979054857
 21
1.544597635904011
 31
0.0
  0
LINE
  5
220
330
17
100
AcDbEntity
  8
0
100
AcDbLine
 10
9.061793979054926
 20
1.384597635904
 30
0.0
 11
8.987793979054857
 21
1.384597635904043
 31
0.0
  0
LINE
  5
221
330
17
100
AcDbEntity
  8
0
100
AcDbLine
 10
9.141793979054853
 20
1.224597635904004
 30
0.0
 11
9.061793979054926
 21
1.224597635904004
 31
0.0
  0
LINE
  5
222
330
17
100
AcDbEntity
  8
0
100
AcDbLine
 10
9.141793979054853
 20
1.064597635903993
 30
0.0
 11
9.061793979054698
 21
1.064597635903993
 31
0.0
  0
LINE
  5
223
330
17
100
AcDbEntity
  8
0
100
AcDbLine
 10
9.061793979054926
 20
1.224597635904004
 30
0.0
 11
8.987793979054857
 21
1.224597635904075
 31
0.0
  0
LINE
  5
224
330
17
100
AcDbEntity
  8
0
100
AcDbLine
 10
9.061793979054698
 20
1.064597635903993
 30
0.0
 11
8.987793979054857
 21
1.064597635904064
 31
0.0
  0
LINE
  5
225
330
17
100
AcDbEntity
  8
0
100
AcDbLine
 10
9.141793979054853
 20
1.576597635904008
 30
0.0
 11
9.33379397905486
 21
1.576597635903937
 31
0.0
  0
LINE
  5
226
330
17
100
AcDbEntity
  8
0
100
AcDbLine
 10
9.33379397905486
 20
1.576597635903937
 30
0.0
 11
9.33379397905486
 21
1.352597635904004
 31
0.0
  0
LINE
  5
227
330
17
100
AcDbEntity
  8
0
100
AcDbLine
 10
9.33379397905486
 20
1.352597635904004
 30
0.0
 11
9.141793979054853
 21
1.352597635904004
 31
0.0
  0
LWPOLYLINE
  5
228
330
17
100
AcDbEntity
  8
0
100
AcDbPolyline
 90
2
 70
0
 10
10.7357939790549
 20
1.064597635903993
 10
10.7357939790549
 20
0.9045976359039826
  0
LWPOLYLINE
  5
229
330
17
100
AcDbEntity
  8
0
100
AcDbPolyline
 90
3
 70
0
 10
10.7357939790549
 20
0.7845976359039497
 10
10.7357939790549
 20
0.5905976359039898
 10
10.54179397905494
 20
0.5905976359039898
  0
LWPOLYLINE
  5
22A
330
17
100
AcDbEntity
  8
0
100
AcDbPolyline
 90
2
 70
0
 10
10.42179397905505
 20
0.5905976359040608
 10
10.26179397905474
 20
0.5905976359040608
  0
LWPOLYLINE
  5
22B
330
17
100
AcDbEntity
  8
0
100
AcDbPolyline
 90
2
 70
0
 10
10.10179397905489
 20
0.5905976359039898
 10
9.941793979054808
 20
0.5905976359039898
  0
LWPOLYLINE
  5
22C
330
17
100
AcDbEntity
  8
0
100
AcDbPolyline
 90
2
 70
0
 10
9.781793979054726
 20
0.5905976359039898
 10
9.621793979054871
 20
0.5905976359039898
  0
LWPOLYLINE
  5
22D
330
17
100
AcDbEntity
  8
0
100
AcDbPolyline
 90
2
 70
0
 10
9.46179397905479
 20
0.5905976359039898
 10
9.301793979054708
 20
0.5905976359039898
  0
LWPOLYLINE
  5
22E
330
17
100
AcDbEntity
  8
0
100
AcDbPolyline
 90
3
 70
0
 10
9.181793979054817
 20
0.5905976359039898
 10
8.987793979054857
 20
0.5905976359039898
 10
8.987793979054857
 20
0.7845976359040208
  0
LWPOLYLINE
  5
22F
330
17
100
AcDbEntity
  8
0
100
AcDbPolyline
 90
3
 70
0
 10
8.987793979054857
 20
2.14459763590392
 10
8.987793979054857
 20
2.338597635903951
 10
9.181793979054817
 20
2.338597635903951
  0
LWPOLYLINE
  5
230
330
17
100
AcDbEntity
  8
0
100
AcDbPolyline
 90
2
 70
0
 10
9.301793979054708
 20
2.33859763590388
 10
9.461793979054903
 20
2.33859763590388
  0
LWPOLYLINE
  5
231
330
17
100
AcDbEntity
  8
0
100
AcDbPolyline
 90
2
 70
0
 10
9.621793979054871
 20
2.33859763590388
 10
9.781793979054726
 20
2.33859763590388
  0
LWPOLYLINE
  5
232
330
17
100
AcDbEntity
  8
0
100
AcDbPolyline
 90
2
 70
0
 10
9.941793979054808
 20
2.33859763590388
 10
10.10179397905489
 20
2.33859763590388
  0
LWPOLYLINE
  5
233
330
17
100
AcDbEntity
  8
0
100
AcDbPolyline
 90
2
 70
0
 10
10.26179397905474
 20
2.338597635903951
 10
10.42179397905482
 20
2.338597635903951
  0
LWPOLYLINE
  5
234
330
17
100
AcDbEntity
  8
0
100
AcDbPolyline
 90
3
 70
0
 10
10.54179397905494
 20
2.338597635903951
 10
10.7357939790549
 20
2.338597635903951
 10
10.7357939790549
 20
2.144597635903991
  0
LWPOLYLINE
  5
235
330
17
100
AcDbEntity
  8
0
100
AcDbPolyline
 90
2
 70
0
 10
10.7357939790549
 20
2.024597635903958
 10
10.7357939790549
 20
1.864597635903948
  0
LWPOLYLINE
  5
236
330
17
100
AcDbEntity
  8
0
100
AcDbPolyline
 90
2
 70
0
 10
10.7357939790549
 20
1.704597635903979
 10
10.7357939790549
 20
1.54459763590394
  0
LWPOLYLINE
  5
237
330
17
100
AcDbEntity
  8
0
100
AcDbPolyline
 90
2
 70
0
 10
10.7357939790549
 20
1.384597635903929
 10
10.7357939790549
 20
1.224597635903961
  0
LWPOLYLINE
  5
238
330
17
100
AcDbEntity
  8
0
100
AcDbPolyline
 90
2
 70
0
 10
8.987793979054857
 20
1.064597635903993
 10
8.987793979054857
 20
0.9045976359040253
  0
LWPOLYLINE
  5
239
330
17
100
AcDbEntity
  8
0
100
AcDbPolyline
 90
2
 70
0
 10
8.987793979054857
 20
2.024597635904029
 10
8.987793979054857
 20
1.864597635904019
  0
LWPOLYLINE
  5
23A
330
17
100
AcDbEntity
  8
0
100
AcDbPolyline
 90
2
 70
0
 10
8.987793979054857
 20
1.704597635904022
 10
8.987793979054857
 20
1.544597635904011
  0
LWPOLYLINE
  5
23B
330
17
100
AcDbEntity
  8
0
100
AcDbPolyline
 90
2
 70
0
 10
8.987793979054857
 20
1.384597635904
 10
8.987793979054857
 20
1.224597635904004
  0
LWPOLYLINE
  5
23C
330
17
100
AcDbEntity
  8
0
100
AcDbPolyline
 90
8
 70
0
 10
11.59379397905485
 20
0.7445976359040573
 10
11.59379397905485
 20
0.9365976359039507
 10
11.49779397905485
 20
1.032597635903954
 10
11.27379397905491
 20
1.032597635903954
 10
11.27379397905491
 20
1.896597635903987
 10
11.49779397905485
 20
1.896597635903987
 10
11.59379397905485
 20
1.99259763590399
 10
11.59379397905485
 20
2.184597635903813
  0
LWPOLYLINE
  5
23D
330
17
100
AcDbEntity
  8
0
100
AcDbPolyline
 90
7
 70
0
 10
11.81779397905478
 20
2.184597635903813
 10
11.81779397905478
 20
1.992597635903948
 10
11.91379397905478
 20
1.896597635903944
 10
12.13779397905495
 20
1.896597635903987
 10
12.13779397905495
 20
1.67259763590394
 10
12.23379397905495
 20
1.576597635903937
 10
12.42579397905496
 20
1.576597635903937
  0
LWPOLYLINE
  5
23E
330
17
100
AcDbEntity
  8
0
100
AcDbPolyline
 90
7
 70
0
 10
12.42579397905496
 20
1.352597635904004
 10
12.23379397905495
 20
1.352597635904004
 10
12.13779397905495
 20
1.256597635904
 10
12.13779397905495
 20
1.032597635903954
 10
11.91379397905478
 20
1.032597635903911
 10
11.81779397905478
 20
0.936597635903908
 10
11.81779397905478
 20
0.7445976359040573
  0
LINE
  5
23F
330
17
100
AcDbEntity
  8
0
100
AcDbLine
 10
12.38579397905499
 20
2.20059763590396
 30
0.0
 11
12.38579397905499
 21
2.264597635903967
 31
0.0
  0
LINE
  5
240
330
17
100
AcDbEntity
  8
0
100
AcDbLine
 10
12.26579397905487
 20
2.184597635903955
 30
0.0
 11
12.26579397905487
 21
2.264597635903967
 31
0.0
  0
LINE
  5
241
330
17
100
AcDbEntity
  8
0
100
AcDbLine
 10
12.42579397905496
 20
1.864597635903948
 30
0.0
 11
12.50579397905488
 21
1.864597635903948
 31
0.0
  0
LINE
  5
242
330
17
100
AcDbEntity
  8
0
100
AcDbLine
 10
12.42579397905496
 20
1.704597635903979
 30
0.0
 11
12.50579397905488
 21
1.704597635903979
 31
0.0
  0
LINE
  5
243
330
17
100
AcDbEntity
  8
0
100
AcDbLine
 10
12.42579397905496
 20
2.024597635903958
 30
0.0
 11
12.42579397905496
 21
1.992597635903948
 31
0.0
  0
LINE
  5
244
330
17
100
AcDbEntity
  8
0
100
AcDbLine
 10
12.26579397905487
 20
2.184597635903955
 30
0.0
 11
12.23379397905495
 21
2.184597635903955
 31
0.0
  0
LINE
  5
245
330
17
100
AcDbEntity
  8
0
100
AcDbLine
 10
12.23379397905495
 20
2.184597635903955
 30
0.0
 11
12.23379397905495
 21
2.056597635903955
 31
0.0
  0
LINE
  5
246
330
17
100
AcDbEntity
  8
0
100
AcDbLine
 10
12.2977939790548
 20
1.992597635903948
 30
0.0
 11
12.42579397905496
 21
1.992597635903948
 31
0.0
  0
LINE
  5
247
330
17
100
AcDbEntity
  8
0
100
AcDbLine
 10
12.23379397905495
 20
2.056597635903955
 30
0.0
 11
12.2977939790548
 21
1.992597635903948
 31
0.0
  0
LINE
  5
248
330
17
100
AcDbEntity
  8
0
100
AcDbLine
 10
12.10579397905479
 20
2.184597635903884
 30
0.0
 11
12.10579397905479
 21
2.264597635903967
 31
0.0
  0
LINE
  5
249
330
17
100
AcDbEntity
  8
0
100
AcDbLine
 10
11.94579397905494
 20
2.184597635903813
 30
0.0
 11
11.94579397905494
 21
2.264597635903925
 31
0.0
  0
LINE
  5
24A
330
17
100
AcDbEntity
  8
0
100
AcDbLine
 10
12.10579397905479
 20
2.184597635903884
 30
0.0
 11
12.13779397905495
 21
2.184597635903884
 31
0.0
  0
LINE
  5
24B
330
17
100
AcDbEntity
  8
0
100
AcDbLine
 10
12.13779397905495
 20
2.184597635903884
 30
0.0
 11
12.13779397905495
 21
1.992597635903877
 31
0.0
  0
LINE
  5
24C
330
17
100
AcDbEntity
  8
0
100
AcDbLine
 10
12.13779397905495
 20
1.992597635903877
 30
0.0
 11
11.91379397905478
 21
1.992597635903806
 31
0.0
  0
LINE
  5
24D
330
17
100
AcDbEntity
  8
0
100
AcDbLine
 10
11.91379397905478
 20
1.992597635903806
 30
0.0
 11
11.91379397905478
 21
2.184597635903813
 31
0.0
  0
LINE
  5
24E
330
17
100
AcDbEntity
  8
0
100
AcDbLine
 10
11.91379397905478
 20
2.184597635903813
 30
0.0
 11
11.94579397905494
 21
2.184597635903813
 31
0.0
  0
LINE
  5
24F
330
17
100
AcDbEntity
  8
0
100
AcDbLine
 10
12.42579397905496
 20
1.864597635903948
 30
0.0
 11
12.42579397905496
 21
1.896597635903987
 31
0.0
  0
LINE
  5
250
330
17
100
AcDbEntity
  8
0
100
AcDbLine
 10
12.42579397905496
 20
1.896597635903987
 30
0.0
 11
12.23379397905495
 21
1.896597635903987
 31
0.0
  0
LINE
  5
251
330
17
100
AcDbEntity
  8
0
100
AcDbLine
 10
12.23379397905495
 20
1.896597635903987
 30
0.0
 11
12.23379397905495
 21
1.672597635904011
 31
0.0
  0
LINE
  5
252
330
17
100
AcDbEntity
  8
0
100
AcDbLine
 10
12.23379397905495
 20
1.672597635904011
 30
0.0
 11
12.42579397905496
 21
1.672597635904011
 31
0.0
  0
LINE
  5
253
330
17
100
AcDbEntity
  8
0
100
AcDbLine
 10
12.42579397905496
 20
1.672597635904011
 30
0.0
 11
12.42579397905496
 21
1.704597635903979
 31
0.0
  0
LINE
  5
254
330
17
100
AcDbEntity
  8
0
100
AcDbLine
 10
12.42579397905496
 20
1.54459763590394
 30
0.0
 11
12.42579397905496
 21
1.576597635903937
 31
0.0
  0
LINE
  5
255
330
17
100
AcDbEntity
  8
0
100
AcDbLine
 10
12.42579397905496
 20
1.352597635904004
 30
0.0
 11
12.42579397905496
 21
1.384597635903929
 31
0.0
  0
LINE
  5
256
330
17
100
AcDbEntity
  8
0
100
AcDbLine
 10
12.42579397905496
 20
1.224597635903961
 30
0.0
 11
12.42579397905496
 21
1.256597635904
 31
0.0
  0
LINE
  5
257
330
17
100
AcDbEntity
  8
0
100
AcDbLine
 10
12.42579397905496
 20
1.256597635904
 30
0.0
 11
12.23379397905495
 21
1.256597635904
 31
0.0
  0
LINE
  5
258
330
17
100
AcDbEntity
  8
0
100
AcDbLine
 10
12.23379397905495
 20
1.256597635904
 30
0.0
 11
12.23379397905495
 21
1.032597635903997
 31
0.0
  0
LINE
  5
259
330
17
100
AcDbEntity
  8
0
100
AcDbLine
 10
12.23379397905495
 20
1.032597635903997
 30
0.0
 11
12.42579397905496
 21
1.032597635903997
 31
0.0
  0
LINE
  5
25A
330
17
100
AcDbEntity
  8
0
100
AcDbLine
 10
12.42579397905496
 20
1.032597635903997
 30
0.0
 11
12.42579397905496
 21
1.064597635903993
 31
0.0
  0
LINE
  5
25B
330
17
100
AcDbEntity
  8
0
100
AcDbLine
 10
12.42579397905496
 20
0.9045976359039116
 30
0.0
 11
12.42579397905496
 21
0.9365976359039507
 31
0.0
  0
LINE
  5
25C
330
17
100
AcDbEntity
  8
0
100
AcDbLine
 10
12.42579397905496
 20
0.9365976359039507
 30
0.0
 11
12.23379397905495
 21
0.9365976359039507
 31
0.0
  0
LINE
  5
25D
330
17
100
AcDbEntity
  8
0
100
AcDbLine
 10
12.23379397905495
 20
0.9365976359039507
 30
0.0
 11
12.23379397905495
 21
0.7445976359039861
 31
0.0
  0
LINE
  5
25E
330
17
100
AcDbEntity
  8
0
100
AcDbLine
 10
12.42579397905496
 20
1.54459763590394
 30
0.0
 11
12.50579397905488
 21
1.54459763590394
 31
0.0
  0
LINE
  5
25F
330
17
100
AcDbEntity
  8
0
100
AcDbLine
 10
12.42579397905496
 20
1.384597635903929
 30
0.0
 11
12.50579397905488
 21
1.384597635903929
 31
0.0
  0
LINE
  5
260
330
17
100
AcDbEntity
  8
0
100
AcDbLine
 10
12.38579397905499
 20
2.264597635903967
 30
0.0
 11
12.38579397905499
 21
2.338597635903951
 31
0.0
  0
LINE
  5
261
330
17
100
AcDbEntity
  8
0
100
AcDbLine
 10
12.26579397905487
 20
2.264597635903967
 30
0.0
 11
12.26579397905487
 21
2.338597635903951
 31
0.0
  0
LINE
  5
262
330
17
100
AcDbEntity
  8
0
100
AcDbLine
 10
12.42579397905496
 20
2.024597635903958
 30
0.0
 11
12.50579397905488
 21
2.024597635903958
 31
0.0
  0
LINE
  5
263
330
17
100
AcDbEntity
  8
0
100
AcDbLine
 10
12.50579397905488
 20
2.024597635903958
 30
0.0
 11
12.57979397905495
 21
2.024597635903958
 31
0.0
  0
LINE
  5
264
330
17
100
AcDbEntity
  8
0
100
AcDbLine
 10
12.44179397905481
 20
2.144597635903991
 30
0.0
 11
12.50579397905488
 21
2.144597635903991
 31
0.0
  0
LINE
  5
265
330
17
100
AcDbEntity
  8
0
100
AcDbLine
 10
12.38579397905499
 20
2.20059763590396
 30
0.0
 11
12.44179397905481
 21
2.144597635903991
 31
0.0
  0
LINE
  5
266
330
17
100
AcDbEntity
  8
0
100
AcDbLine
 10
12.50579397905488
 20
2.144597635903991
 30
0.0
 11
12.57979397905495
 21
2.144597635903991
 31
0.0
  0
LINE
  5
267
330
17
100
AcDbEntity
  8
0
100
AcDbLine
 10
11.78579397905486
 20
2.184597635903813
 30
0.0
 11
11.81779397905478
 21
2.184597635903813
 31
0.0
  0
LINE
  5
268
330
17
100
AcDbEntity
  8
0
100
AcDbLine
 10
11.59379397905485
 20
2.184597635903813
 30
0.0
 11
11.62579397905477
 21
2.184597635903813
 31
0.0
  0
LINE
  5
269
330
17
100
AcDbEntity
  8
0
100
AcDbLine
 10
11.46579397905492
 20
2.184597635903884
 30
0.0
 11
11.49779397905485
 21
2.184597635903884
 31
0.0
  0
LINE
  5
26A
330
17
100
AcDbEntity
  8
0
100
AcDbLine
 10
11.49779397905485
 20
2.184597635903884
 30
0.0
 11
11.49779397905485
 21
1.992597635903877
 31
0.0
  0
LINE
  5
26B
330
17
100
AcDbEntity
  8
0
100
AcDbLine
 10
11.49779397905485
 20
1.992597635903877
 30
0.0
 11
11.27379397905491
 21
1.992597635903877
 31
0.0
  0
LINE
  5
26C
330
17
100
AcDbEntity
  8
0
100
AcDbLine
 10
11.27379397905491
 20
1.992597635903877
 30
0.0
 11
11.27379397905491
 21
2.184597635903884
 31
0.0
  0
LINE
  5
26D
330
17
100
AcDbEntity
  8
0
100
AcDbLine
 10
11.27379397905491
 20
2.184597635903884
 30
0.0
 11
11.30579397905484
 21
2.184597635903884
 31
0.0
  0
LINE
  5
26E
330
17
100
AcDbEntity
  8
0
100
AcDbLine
 10
12.38579397905499
 20
0.7445976359039435
 30
0.0
 11
12.38579397905499
 21
0.6645976359039736
 31
0.0
  0
LINE
  5
26F
330
17
100
AcDbEntity
  8
0
100
AcDbLine
 10
12.26579397905487
 20
0.7445976359039861
 30
0.0
 11
12.26579397905487
 21
0.6645976359039736
 31
0.0
  0
LINE
  5
270
330
17
100
AcDbEntity
  8
0
100
AcDbLine
 10
12.38579397905499
 20
0.6645976359039736
 30
0.0
 11
12.38579397905499
 21
0.5905976359039898
 31
0.0
  0
LINE
  5
271
330
17
100
AcDbEntity
  8
0
100
AcDbLine
 10
12.26579397905487
 20
0.6645976359039736
 30
0.0
 11
12.26579397905499
 21
0.5905976359039898
 31
0.0
  0
LINE
  5
272
330
17
100
AcDbEntity
  8
0
100
AcDbLine
 10
12.42579397905496
 20
0.9045976359039826
 30
0.0
 11
12.50579397905488
 21
0.9045976359039826
 31
0.0
  0
LINE
  5
273
330
17
100
AcDbEntity
  8
0
100
AcDbLine
 10
12.50579397905488
 20
0.9045976359039826
 30
0.0
 11
12.57979397905495
 21
0.9045976359039826
 31
0.0
  0
LINE
  5
274
330
17
100
AcDbEntity
  8
0
100
AcDbLine
 10
12.42579397905496
 20
0.7845976359039497
 30
0.0
 11
12.50579397905488
 21
0.7845976359039497
 31
0.0
  0
LINE
  5
275
330
17
100
AcDbEntity
  8
0
100
AcDbLine
 10
12.50579397905488
 20
0.7845976359039497
 30
0.0
 11
12.57979397905495
 21
0.7845976359039497
 31
0.0
  0
LINE
  5
276
330
17
100
AcDbEntity
  8
0
100
AcDbLine
 10
12.23379397905495
 20
0.7445976359039861
 30
0.0
 11
12.26579397905487
 21
0.7445976359039435
 31
0.0
  0
LWPOLYLINE
  5
277
330
17
100
AcDbEntity
  8
0
100
AcDbPolyline
 90
3
 70
0
 10
12.42579397905496
 20
0.7845976359039497
 10
12.42579397905496
 20
0.7445976359039435
 10
12.38579397905499
 20
0.7445976359039435
  0
LINE
  5
278
330
17
100
AcDbEntity
  8
0
100
AcDbLine
 10
10.9857939790549
 20
0.9045976359039826
 30
0.0
 11
10.9857939790549
 21
0.9365976359039933
 31
0.0
  0
LINE
  5
279
330
17
100
AcDbEntity
  8
0
100
AcDbLine
 10
10.9857939790549
 20
0.9365976359039933
 30
0.0
 11
11.17779397905491
 21
0.9365976359039507
 31
0.0
  0
LINE
  5
27A
330
17
100
AcDbEntity
  8
0
100
AcDbLine
 10
11.17779397905491
 20
0.9365976359039507
 30
0.0
 11
11.17779397905491
 21
0.7445976359039861
 31
0.0
  0
LINE
  5
27B
330
17
100
AcDbEntity
  8
0
100
AcDbLine
 10
11.02579397905486
 20
0.7445976359039861
 30
0.0
 11
11.02579397905486
 21
0.6645976359040163
 31
0.0
  0
LINE
  5
27C
330
17
100
AcDbEntity
  8
0
100
AcDbLine
 10
11.14579397905476
 20
0.7445976359039861
 30
0.0
 11
11.14579397905476
 21
0.6645976359039736
 31
0.0
  0
LINE
  5
27D
330
17
100
AcDbEntity
  8
0
100
AcDbLine
 10
11.02579397905486
 20
0.6645976359040163
 30
0.0
 11
11.02579397905486
 21
0.5905976359040608
 31
0.0
  0
LINE
  5
27E
330
17
100
AcDbEntity
  8
0
100
AcDbLine
 10
11.14579397905476
 20
0.6645976359039736
 30
0.0
 11
11.14579397905476
 21
0.5905976359039898
 31
0.0
  0
LINE
  5
27F
330
17
100
AcDbEntity
  8
0
100
AcDbLine
 10
10.9857939790549
 20
0.9045976359040253
 30
0.0
 11
10.90579397905475
 21
0.9045976359040253
 31
0.0
  0
LINE
  5
280
330
17
100
AcDbEntity
  8
0
100
AcDbLine
 10
10.90579397905475
 20
0.9045976359040253
 30
0.0
 11
10.83179397905491
 21
0.9045976359040253
 31
0.0
  0
LINE
  5
281
330
17
100
AcDbEntity
  8
0
100
AcDbLine
 10
10.9857939790549
 20
0.7845976359040208
 30
0.0
 11
10.90579397905475
 21
0.7845976359040208
 31
0.0
  0
LINE
  5
282
330
17
100
AcDbEntity
  8
0
100
AcDbLine
 10
10.90579397905475
 20
0.7845976359040208
 30
0.0
 11
10.83179397905491
 21
0.7845976359040208
 31
0.0
  0
LINE
  5
283
330
17
100
AcDbEntity
  8
0
100
AcDbLine
 10
11.17779397905491
 20
0.7445976359039861
 30
0.0
 11
11.14579397905476
 21
0.7445976359039435
 31
0.0
  0
LWPOLYLINE
  5
284
330
17
100
AcDbEntity
  8
0
100
AcDbPolyline
 90
3
 70
0
 10
10.9857939790549
 20
0.7845976359040208
 10
10.9857939790549
 20
0.7445976359039861
 10
11.02579397905486
 20
0.7445976359039861
  0
LINE
  5
285
330
17
100
AcDbEntity
  8
0
100
AcDbLine
 10
10.9857939790549
 20
2.024597635903958
 30
0.0
 11
10.9857939790549
 21
1.992597635903948
 31
0.0
  0
LINE
  5
286
330
17
100
AcDbEntity
  8
0
100
AcDbLine
 10
10.9857939790549
 20
1.992597635903948
 30
0.0
 11
11.17779397905491
 21
1.99259763590399
 31
0.0
  0
LINE
  5
287
330
17
100
AcDbEntity
  8
0
100
AcDbLine
 10
11.17779397905491
 20
1.99259763590399
 30
0.0
 11
11.17779397905468
 21
2.184597635903955
 31
0.0
  0
LINE
  5
288
330
17
100
AcDbEntity
  8
0
100
AcDbLine
 10
11.02579397905486
 20
2.184597635903955
 30
0.0
 11
11.02579397905464
 21
2.264597635903925
 31
0.0
  0
LINE
  5
289
330
17
100
AcDbEntity
  8
0
100
AcDbLine
 10
11.14579397905476
 20
2.184597635903955
 30
0.0
 11
11.14579397905476
 21
2.264597635903967
 31
0.0
  0
LINE
  5
28A
330
17
100
AcDbEntity
  8
0
100
AcDbLine
 10
11.02579397905464
 20
2.264597635903925
 30
0.0
 11
11.02579397905464
 21
2.33859763590388
 31
0.0
  0
LINE
  5
28B
330
17
100
AcDbEntity
  8
0
100
AcDbLine
 10
11.14579397905476
 20
2.264597635903967
 30
0.0
 11
11.14579397905476
 21
2.338597635903951
 31
0.0
  0
LINE
  5
28C
330
17
100
AcDbEntity
  8
0
100
AcDbLine
 10
10.98579397905467
 20
2.024597635903916
 30
0.0
 11
10.90579397905475
 21
2.024597635903916
 31
0.0
  0
LINE
  5
28D
330
17
100
AcDbEntity
  8
0
100
AcDbLine
 10
10.90579397905475
 20
2.024597635903916
 30
0.0
 11
10.83179397905491
 21
2.024597635903916
 31
0.0
  0
LINE
  5
28E
330
17
100
AcDbEntity
  8
0
100
AcDbLine
 10
10.9857939790549
 20
2.14459763590392
 30
0.0
 11
10.90579397905475
 21
2.14459763590392
 31
0.0
  0
LINE
  5
28F
330
17
100
AcDbEntity
  8
0
100
AcDbLine
 10
10.90579397905475
 20
2.14459763590392
 30
0.0
 11
10.83179397905491
 21
2.14459763590392
 31
0.0
  0
LINE
  5
290
330
17
100
AcDbEntity
  8
0
100
AcDbLine
 10
11.17779397905468
 20
2.184597635903955
 30
0.0
 11
11.14579397905476
 21
2.184597635903998
 31
0.0
  0
LWPOLYLINE
  5
291
330
17
100
AcDbEntity
  8
0
100
AcDbPolyline
 90
3
 70
0
 10
10.9857939790549
 20
2.14459763590392
 10
10.9857939790549
 20
2.184597635903955
 10
11.02579397905486
 20
2.184597635903955
  0
LINE
  5
292
330
17
100
AcDbEntity
  8
0
100
AcDbLine
 10
12.10579397905479
 20
2.264597635903967
 30
0.0
 11
12.10579397905479
 21
2.338597635903951
 31
0.0
  0
LINE
  5
293
330
17
100
AcDbEntity
  8
0
100
AcDbLine
 10
11.94579397905494
 20
2.264597635903925
 30
0.0
 11
11.94579397905494
 21
2.33859763590388
 31
0.0
  0
LINE
  5
294
330
17
100
AcDbEntity
  8
0
100
AcDbLine
 10
11.78579397905486
 20
2.184597635903813
 30
0.0
 11
11.78579397905486
 21
2.264597635903925
 31
0.0
  0
LINE
  5
295
330
17
100
AcDbEntity
  8
0
100
AcDbLine
 10
11.62579397905477
 20
2.184597635903813
 30
0.0
 11
11.62579397905477
 21
2.264597635903925
 31
0.0
  0
LINE
  5
296
330
17
100
AcDbEntity
  8
0
100
AcDbLine
 10
11.78579397905486
 20
2.264597635903925
 30
0.0
 11
11.78579397905486
 21
2.33859763590388
 31
0.0
  0
LINE
  5
297
330
17
100
AcDbEntity
  8
0
100
AcDbLine
 10
11.62579397905477
 20
2.264597635903925
 30
0.0
 11
11.62579397905477
 21
2.33859763590388
 31
0.0
  0
LINE
  5
298
330
17
100
AcDbEntity
  8
0
100
AcDbLine
 10
11.46579397905492
 20
2.184597635903884
 30
0.0
 11
11.46579397905492
 21
2.264597635904038
 31
0.0
  0
LINE
  5
299
330
17
100
AcDbEntity
  8
0
100
AcDbLine
 10
11.30579397905484
 20
2.184597635903884
 30
0.0
 11
11.30579397905484
 21
2.264597635904038
 31
0.0
  0
LINE
  5
29A
330
17
100
AcDbEntity
  8
0
100
AcDbLine
 10
11.46579397905492
 20
2.264597635904038
 30
0.0
 11
11.46579397905492
 21
2.338597635903994
 31
0.0
  0
LINE
  5
29B
330
17
100
AcDbEntity
  8
0
100
AcDbLine
 10
11.30579397905484
 20
2.264597635904038
 30
0.0
 11
11.30579397905484
 21
2.338597635903994
 31
0.0
  0
LINE
  5
29C
330
17
100
AcDbEntity
  8
0
100
AcDbLine
 10
12.10579397905479
 20
0.7445976359040573
 30
0.0
 11
12.10579397905479
 21
0.6645976359039736
 31
0.0
  0
LINE
  5
29D
330
17
100
AcDbEntity
  8
0
100
AcDbLine
 10
11.94579397905471
 20
0.7445976359040573
 30
0.0
 11
11.94579397905471
 21
0.6645976359039026
 31
0.0
  0
LINE
  5
29E
330
17
100
AcDbEntity
  8
0
100
AcDbLine
 10
12.10579397905479
 20
0.7445976359040573
 30
0.0
 11
12.13779397905472
 21
0.7445976359040573
 31
0.0
  0
LINE
  5
29F
330
17
100
AcDbEntity
  8
0
100
AcDbLine
 10
12.13779397905472
 20
0.7445976359040573
 30
0.0
 11
12.13779397905472
 21
0.9365976359040644
 31
0.0
  0
LINE
  5
2A0
330
17
100
AcDbEntity
  8
0
100
AcDbLine
 10
12.13779397905472
 20
0.9365976359040644
 30
0.0
 11
11.91379397905478
 21
0.9365976359040644
 31
0.0
  0
LINE
  5
2A1
330
17
100
AcDbEntity
  8
0
100
AcDbLine
 10
11.91379397905478
 20
0.9365976359040644
 30
0.0
 11
11.91379397905478
 21
0.7445976359040573
 31
0.0
  0
LINE
  5
2A2
330
17
100
AcDbEntity
  8
0
100
AcDbLine
 10
11.91379397905478
 20
0.7445976359040573
 30
0.0
 11
11.94579397905471
 21
0.7445976359040573
 31
0.0
  0
LINE
  5
2A3
330
17
100
AcDbEntity
  8
0
100
AcDbLine
 10
11.78579397905486
 20
0.7445976359040573
 30
0.0
 11
11.81779397905478
 21
0.7445976359040573
 31
0.0
  0
LINE
  5
2A4
330
17
100
AcDbEntity
  8
0
100
AcDbLine
 10
11.59379397905485
 20
0.7445976359040573
 30
0.0
 11
11.62579397905477
 21
0.7445976359040573
 31
0.0
  0
LINE
  5
2A5
330
17
100
AcDbEntity
  8
0
100
AcDbLine
 10
11.46579397905492
 20
0.7445976359040573
 30
0.0
 11
11.49779397905485
 21
0.7445976359039861
 31
0.0
  0
LINE
  5
2A6
330
17
100
AcDbEntity
  8
0
100
AcDbLine
 10
11.49779397905485
 20
0.7445976359039861
 30
0.0
 11
11.49779397905485
 21
0.9365976359039933
 31
0.0
  0
LINE
  5
2A7
330
17
100
AcDbEntity
  8
0
100
AcDbLine
 10
11.49779397905485
 20
0.9365976359039933
 30
0.0
 11
11.27379397905491
 21
0.9365976359040644
 31
0.0
  0
LINE
  5
2A8
330
17
100
AcDbEntity
  8
0
100
AcDbLine
 10
11.27379397905491
 20
0.9365976359040644
 30
0.0
 11
11.27379397905491
 21
0.7445976359040573
 31
0.0
  0
LINE
  5
2A9
330
17
100
AcDbEntity
  8
0
100
AcDbLine
 10
11.27379397905491
 20
0.7445976359040573
 30
0.0
 11
11.30579397905484
 21
0.7445976359040573
 31
0.0
  0
LINE
  5
2AA
330
17
100
AcDbEntity
  8
0
100
AcDbLine
 10
12.10579397905479
 20
0.6645976359039736
 30
0.0
 11
12.10579397905479
 21
0.5905976359039898
 31
0.0
  0
LINE
  5
2AB
330
17
100
AcDbEntity
  8
0
100
AcDbLine
 10
11.94579397905471
 20
0.6645976359039026
 30
0.0
 11
11.94579397905471
 21
0.5905976359039471
 31
0.0
  0
LINE
  5
2AC
330
17
100
AcDbEntity
  8
0
100
AcDbLine
 10
11.78579397905486
 20
0.7445976359040573
 30
0.0
 11
11.78579397905463
 21
0.6645976359039736
 31
0.0
  0
LINE
  5
2AD
330
17
100
AcDbEntity
  8
0
100
AcDbLine
 10
11.62579397905477
 20
0.7445976359040573
 30
0.0
 11
11.62579397905477
 21
0.6645976359039736
 31
0.0
  0
LINE
  5
2AE
330
17
100
AcDbEntity
  8
0
100
AcDbLine
 10
11.78579397905463
 20
0.6645976359039736
 30
0.0
 11
11.78579397905463
 21
0.5905976359039898
 31
0.0
  0
LINE
  5
2AF
330
17
100
AcDbEntity
  8
0
100
AcDbLine
 10
11.62579397905477
 20
0.6645976359039736
 30
0.0
 11
11.62579397905477
 21
0.5905976359039898
 31
0.0
  0
LINE
  5
2B0
330
17
100
AcDbEntity
  8
0
100
AcDbLine
 10
11.46579397905492
 20
0.7445976359040573
 30
0.0
 11
11.46579397905492
 21
0.6645976359039026
 31
0.0
  0
LINE
  5
2B1
330
17
100
AcDbEntity
  8
0
100
AcDbLine
 10
11.30579397905484
 20
0.7445976359040573
 30
0.0
 11
11.30579397905484
 21
0.6645976359039026
 31
0.0
  0
LINE
  5
2B2
330
17
100
AcDbEntity
  8
0
100
AcDbLine
 10
11.46579397905492
 20
0.6645976359039026
 30
0.0
 11
11.46579397905492
 21
0.5905976359039471
 31
0.0
  0
LINE
  5
2B3
330
17
100
AcDbEntity
  8
0
100
AcDbLine
 10
11.30579397905484
 20
0.6645976359039026
 30
0.0
 11
11.30579397905484
 21
0.5905976359039471
 31
0.0
  0
LINE
  5
2B4
330
17
100
AcDbEntity
  8
0
100
AcDbLine
 10
12.50579397905488
 20
1.864597635903948
 30
0.0
 11
12.57979397905495
 21
1.864597635903948
 31
0.0
  0
LINE
  5
2B5
330
17
100
AcDbEntity
  8
0
100
AcDbLine
 10
12.50579397905488
 20
1.704597635903979
 30
0.0
 11
12.57979397905495
 21
1.704597635903979
 31
0.0
  0
LINE
  5
2B6
330
17
100
AcDbEntity
  8
0
100
AcDbLine
 10
12.50579397905488
 20
1.54459763590394
 30
0.0
 11
12.57979397905495
 21
1.54459763590394
 31
0.0
  0
LINE
  5
2B7
330
17
100
AcDbEntity
  8
0
100
AcDbLine
 10
12.50579397905488
 20
1.384597635903929
 30
0.0
 11
12.57979397905495
 21
1.384597635903929
 31
0.0
  0
LINE
  5
2B8
330
17
100
AcDbEntity
  8
0
100
AcDbLine
 10
12.42579397905496
 20
1.224597635903961
 30
0.0
 11
12.50579397905488
 21
1.224597635903961
 31
0.0
  0
LINE
  5
2B9
330
17
100
AcDbEntity
  8
0
100
AcDbLine
 10
12.42579397905496
 20
1.064597635903993
 30
0.0
 11
12.50579397905488
 21
1.064597635903993
 31
0.0
  0
LINE
  5
2BA
330
17
100
AcDbEntity
  8
0
100
AcDbLine
 10
12.50579397905488
 20
1.224597635903961
 30
0.0
 11
12.57979397905495
 21
1.224597635903961
 31
0.0
  0
LINE
  5
2BB
330
17
100
AcDbEntity
  8
0
100
AcDbLine
 10
12.50579397905488
 20
1.064597635903993
 30
0.0
 11
12.57979397905495
 21
1.064597635903993
 31
0.0
  0
LINE
  5
2BC
330
17
100
AcDbEntity
  8
0
100
AcDbLine
 10
10.9857939790549
 20
1.864597635904019
 30
0.0
 11
10.90579397905497
 21
1.864597635904019
 31
0.0
  0
LINE
  5
2BD
330
17
100
AcDbEntity
  8
0
100
AcDbLine
 10
10.9857939790549
 20
1.704597635904022
 30
0.0
 11
10.90579397905497
 21
1.704597635904022
 31
0.0
  0
LINE
  5
2BE
330
17
100
AcDbEntity
  8
0
100
AcDbLine
 10
10.9857939790549
 20
1.864597635904019
 30
0.0
 11
10.9857939790549
 21
1.896597635904029
 31
0.0
  0
LINE
  5
2BF
330
17
100
AcDbEntity
  8
0
100
AcDbLine
 10
10.9857939790549
 20
1.896597635904029
 30
0.0
 11
11.17779397905491
 21
1.896597635903987
 31
0.0
  0
LINE
  5
2C0
330
17
100
AcDbEntity
  8
0
100
AcDbLine
 10
11.17779397905491
 20
1.896597635903987
 30
0.0
 11
11.17779397905491
 21
1.672597635904011
 31
0.0
  0
LINE
  5
2C1
330
17
100
AcDbEntity
  8
0
100
AcDbLine
 10
11.17779397905491
 20
1.672597635904011
 30
0.0
 11
10.9857939790549
 21
1.672597635904054
 31
0.0
  0
LINE
  5
2C2
330
17
100
AcDbEntity
  8
0
100
AcDbLine
 10
10.9857939790549
 20
1.672597635904054
 30
0.0
 11
10.9857939790549
 21
1.704597635904022
 31
0.0
  0
LINE
  5
2C3
330
17
100
AcDbEntity
  8
0
100
AcDbLine
 10
10.9857939790549
 20
1.544597635904011
 30
0.0
 11
10.9857939790549
 21
1.576597635904008
 31
0.0
  0
LINE
  5
2C4
330
17
100
AcDbEntity
  8
0
100
AcDbLine
 10
10.9857939790549
 20
1.352597635904004
 30
0.0
 11
10.9857939790549
 21
1.384597635904
 31
0.0
  0
LINE
  5
2C5
330
17
100
AcDbEntity
  8
0
100
AcDbLine
 10
10.9857939790549
 20
1.224597635904004
 30
0.0
 11
10.9857939790549
 21
1.256597635904
 31
0.0
  0
LINE
  5
2C6
330
17
100
AcDbEntity
  8
0
100
AcDbLine
 10
10.9857939790549
 20
1.256597635904
 30
0.0
 11
11.17779397905491
 21
1.256597635904
 31
0.0
  0
LINE
  5
2C7
330
17
100
AcDbEntity
  8
0
100
AcDbLine
 10
11.17779397905491
 20
1.256597635904
 30
0.0
 11
11.17779397905491
 21
1.032597635903997
 31
0.0
  0
LINE
  5
2C8
330
17
100
AcDbEntity
  8
0
100
AcDbLine
 10
11.17779397905491
 20
1.032597635903997
 30
0.0
 11
10.9857939790549
 21
1.032597635904068
 31
0.0
  0
LINE
  5
2C9
330
17
100
AcDbEntity
  8
0
100
AcDbLine
 10
10.9857939790549
 20
1.032597635904068
 30
0.0
 11
10.9857939790549
 21
1.064597635903993
 31
0.0
  0
LINE
  5
2CA
330
17
100
AcDbEntity
  8
0
100
AcDbLine
 10
10.9857939790549
 20
1.544597635904011
 30
0.0
 11
10.90579397905497
 21
1.544597635904011
 31
0.0
  0
LINE
  5
2CB
330
17
100
AcDbEntity
  8
0
100
AcDbLine
 10
10.9857939790549
 20
1.384597635904
 30
0.0
 11
10.90579397905475
 21
1.384597635904
 31
0.0
  0
LINE
  5
2CC
330
17
100
AcDbEntity
  8
0
100
AcDbLine
 10
10.90579397905497
 20
1.864597635904019
 30
0.0
 11
10.83179397905491
 21
1.864597635904061
 31
0.0
  0
LINE
  5
2CD
330
17
100
AcDbEntity
  8
0
100
AcDbLine
 10
10.90579397905497
 20
1.704597635904022
 30
0.0
 11
10.83179397905491
 21
1.704597635904093
 31
0.0
  0
LINE
  5
2CE
330
17
100
AcDbEntity
  8
0
100
AcDbLine
 10
10.90579397905497
 20
1.544597635904011
 30
0.0
 11
10.83179397905491
 21
1.544597635904011
 31
0.0
  0
LINE
  5
2CF
330
17
100
AcDbEntity
  8
0
100
AcDbLine
 10
10.90579397905475
 20
1.384597635904
 30
0.0
 11
10.83179397905491
 21
1.384597635904043
 31
0.0
  0
LINE
  5
2D0
330
17
100
AcDbEntity
  8
0
100
AcDbLine
 10
10.9857939790549
 20
1.224597635904004
 30
0.0
 11
10.90579397905475
 21
1.224597635904004
 31
0.0
  0
LINE
  5
2D1
330
17
100
AcDbEntity
  8
0
100
AcDbLine
 10
10.9857939790549
 20
1.064597635903993
 30
0.0
 11
10.90579397905475
 21
1.064597635903993
 31
0.0
  0
LINE
  5
2D2
330
17
100
AcDbEntity
  8
0
100
AcDbLine
 10
10.90579397905475
 20
1.224597635904004
 30
0.0
 11
10.83179397905491
 21
1.224597635904075
 31
0.0
  0
LINE
  5
2D3
330
17
100
AcDbEntity
  8
0
100
AcDbLine
 10
10.90579397905475
 20
1.064597635903993
 30
0.0
 11
10.83179397905491
 21
1.064597635904064
 31
0.0
  0
LINE
  5
2D4
330
17
100
AcDbEntity
  8
0
100
AcDbLine
 10
10.9857939790549
 20
1.576597635904008
 30
0.0
 11
11.17779397905491
 21
1.576597635903937
 31
0.0
  0
LINE
  5
2D5
330
17
100
AcDbEntity
  8
0
100
AcDbLine
 10
11.17779397905491
 20
1.576597635903937
 30
0.0
 11
11.17779397905491
 21
1.352597635904004
 31
0.0
  0
LINE
  5
2D6
330
17
100
AcDbEntity
  8
0
100
AcDbLine
 10
11.17779397905491
 20
1.352597635904004
 30
0.0
 11
10.9857939790549
 21
1.352597635904004
 31
0.0
  0
LWPOLYLINE
  5
2D7
330
17
100
AcDbEntity
  8
0
100
AcDbPolyline
 90
2
 70
0
 10
12.57979397905495
 20
1.064597635903993
 10
12.57979397905495
 20
0.9045976359039826
  0
LWPOLYLINE
  5
2D8
330
17
100
AcDbEntity
  8
0
100
AcDbPolyline
 90
3
 70
0
 10
12.57979397905495
 20
0.7845976359039497
 10
12.57979397905495
 20
0.5905976359039898
 10
12.38579397905499
 20
0.5905976359039898
  0
LWPOLYLINE
  5
2D9
330
17
100
AcDbEntity
  8
0
100
AcDbPolyline
 90
2
 70
0
 10
12.26579397905499
 20
0.5905976359040608
 10
12.10579397905479
 20
0.5905976359040608
  0
LWPOLYLINE
  5
2DA
330
17
100
AcDbEntity
  8
0
100
AcDbPolyline
 90
2
 70
0
 10
11.94579397905471
 20
0.5905976359039898
 10
11.78579397905463
 20
0.5905976359039898
  0
LWPOLYLINE
  5
2DB
330
17
100
AcDbEntity
  8
0
100
AcDbPolyline
 90
2
 70
0
 10
11.62579397905477
 20
0.5905976359039898
 10
11.46579397905492
 20
0.5905976359039898
  0
LWPOLYLINE
  5
2DC
330
17
100
AcDbEntity
  8
0
100
AcDbPolyline
 90
2
 70
0
 10
11.30579397905484
 20
0.5905976359039898
 10
11.14579397905476
 20
0.5905976359039898
  0
LWPOLYLINE
  5
2DD
330
17
100
AcDbEntity
  8
0
100
AcDbPolyline
 90
3
 70
0
 10
11.02579397905486
 20
0.5905976359039898
 10
10.83179397905491
 20
0.5905976359039898
 10
10.83179397905491
 20
0.7845976359040208
  0
LWPOLYLINE
  5
2DE
330
17
100
AcDbEntity
  8
0
100
AcDbPolyline
 90
3
 70
0
 10
10.83179397905491
 20
2.14459763590392
 10
10.83179397905491
 20
2.338597635903951
 10
11.02579397905464
 20
2.338597635903951
  0
LWPOLYLINE
  5
2DF
330
17
100
AcDbEntity
  8
0
100
AcDbPolyline
 90
2
 70
0
 10
11.14579397905476
 20
2.33859763590388
 10
11.30579397905484
 20
2.33859763590388
  0
LWPOLYLINE
  5
2E0
330
17
100
AcDbEntity
  8
0
100
AcDbPolyline
 90
2
 70
0
 10
11.46579397905492
 20
2.33859763590388
 10
11.62579397905477
 20
2.33859763590388
  0
LWPOLYLINE
  5
2E1
330
17
100
AcDbEntity
  8
0
100
AcDbPolyline
 90
2
 70
0
 10
11.78579397905486
 20
2.33859763590388
 10
11.94579397905494
 20
2.33859763590388
  0
LWPOLYLINE
  5
2E2
330
17
100
AcDbEntity
  8
0
100
AcDbPolyline
 90
2
 70
0
 10
12.10579397905479
 20
2.338597635903951
 10
12.26579397905487
 20
2.338597635903951
  0
LWPOLYLINE
  5
2E3
330
17
100
AcDbEntity
  8
0
100
AcDbPolyline
 90
3
 70
0
 10
12.38579397905499
 20
2.338597635903951
 10
12.57979397905495
 20
2.338597635903951
 10
12.57979397905495
 20
2.144597635903991
  0
LWPOLYLINE
  5
2E4
330
17
100
AcDbEntity
  8
0
100
AcDbPolyline
 90
2
 70
0
 10
12.57979397905495
 20
2.024597635903958
 10
12.57979397905495
 20
1.864597635903948
  0
LWPOLYLINE
  5
2E5
330
17
100
AcDbEntity
  8
0
100
AcDbPolyline
 90
2
 70
0
 10
12.57979397905495
 20
1.704597635903979
 10
12.57979397905495
 20
1.54459763590394
  0
LWPOLYLINE
  5
2E6
330
17
100
AcDbEntity
  8
0
100
AcDbPolyline
 90
2
 70
0
 10
12.57979397905495
 20
1.384597635903929
 10
12.57979397905495
 20
1.224597635903961
  0
LWPOLYLINE
  5
2E7
330
17
100
AcDbEntity
  8
0
100
AcDbPolyline
 90
2
 70
0
 10
10.83179397905491
 20
1.064597635903993
 10
10.83179397905491
 20
0.9045976359040253
  0
LWPOLYLINE
  5
2E8
330
17
100
AcDbEntity
  8
0
100
AcDbPolyline
 90
2
 70
0
 10
10.83179397905491
 20
2.024597635904029
 10
10.83179397905491
 20
1.864597635904019
  0
LWPOLYLINE
  5
2E9
330
17
100
AcDbEntity
  8
0
100
AcDbPolyline
 90
2
 70
0
 10
10.83179397905491
 20
1.704597635904022
 10
10.83179397905491
 20
1.544597635904011
  0
LWPOLYLINE
  5
2EA
330
17
100
AcDbEntity
  8
0
100
AcDbPolyline
 90
2
 70
0
 10
10.83179397905491
 20
1.384597635904
 10
10.83179397905491
 20
1.224597635904004
  0
LWPOLYLINE
  5
2EB
330
17
100
AcDbEntity
  8
0
100
AcDbPolyline
 90
4
 70
0
 10
8.891793979054853
 20
-1.349402364095993
 10
8.411793979054835
 20
-1.349402364095993
 10
8.411793979054835
 20
-1.829402364096011
 10
8.891793979054853
 20
-1.829402364096011
  0
LWPOLYLINE
  5
2EC
330
17
100
AcDbEntity
  8
0
100
AcDbPolyline
 90
4
 70
0
 10
8.987793979054857
 20
-1.349402364095993
 10
9.199793979054846
 20
-1.349402364095993
 10
9.199793979054846
 20
-1.829402364096011
 10
8.987793979054857
 20
-1.829402364096011
  0
LWPOLYLINE
  5
2ED
330
17
100
AcDbEntity
  8
0
100
AcDbPolyline
 90
4
 70
0
 10
9.371793979054871
 20
-1.349402364095993
 10
9.58379397905486
 20
-1.349402364095993
 10
9.58379397905486
 20
-1.829402364096011
 10
9.371793979054871
 20
-1.829402364096011
  0
LWPOLYLINE
  5
2EE
330
17
100
AcDbEntity
  8
0
100
AcDbPolyline
 90
4
 70
0
 10
10.7357939790549
 20
-1.349402364095993
 10
10.52379397905491
 20
-1.349402364095993
 10
10.52379397905491
 20
-1.829402364096011
 10
10.7357939790549
 20
-1.829402364096011
  0
LWPOLYLINE
  5
2EF
330
17
100
AcDbEntity
  8
0
100
AcDbPolyline
 90
4
 70
0
 10
10.35179397905489
 20
-1.349402364095993
 10
10.1397939790549
 20
-1.349402364095993
 10
10.1397939790549
 20
-1.829402364096011
 10
10.35179397905489
 20
-1.829402364096011
  0
LWPOLYLINE
  5
2F0
330
17
100
AcDbEntity
  8
0
100
AcDbPolyline
 90
4
 70
0
 10
9.967793979054875
 20
-1.349402364095993
 10
9.755793979054886
 20
-1.349402364095993
 10
9.755793979054886
 20
-1.829402364096011
 10
9.967793979054875
 20
-1.829402364096011
  0
LWPOLYLINE
  5
2F1
330
17
100
AcDbEntity
  8
0
100
AcDbPolyline
 90
4
 70
0
 10
8.839793979054946
 20
-1.989402364096775
 10
9.039793979054991
 20
-1.989402364096591
 10
9.039793979055219
 20
-2.411402364096616
 10
8.839793979055173
 20
-2.411402364096801
  0
LWPOLYLINE
  5
2F2
330
17
100
AcDbEntity
  8
0
100
AcDbPolyline
 90
4
 70
0
 10
9.20859397905491
 20
-1.989402364096591
 10
9.408593979054954
 20
-1.989402364096434
 10
9.408593979055183
 20
-2.411402364096417
 10
9.208593979055138
 20
-2.411402364096616
  0
LWPOLYLINE
  5
2F3
330
17
100
AcDbEntity
  8
0
100
AcDbPolyline
 90
4
 70
0
 10
9.577393979054875
 20
-1.989402364096434
 10
9.777393979054807
 20
-1.98940236409625
 10
9.777393979055148
 20
-2.411402364096232
 10
9.577393979055103
 20
-2.411402364096417
  0
LWPOLYLINE
  5
2F4
330
17
100
AcDbEntity
  8
0
100
AcDbPolyline
 90
4
 70
0
 10
10.83179397905491
 20
-1.349402364095993
 10
11.04379397905489
 20
-1.349402364095993
 10
11.04379397905489
 20
-1.829402364096011
 10
10.83179397905491
 20
-1.829402364096011
  0
LWPOLYLINE
  5
2F5
330
17
100
AcDbEntity
  8
0
100
AcDbPolyline
 90
4
 70
0
 10
11.21579397905492
 20
-1.349402364095993
 10
11.42779397905491
 20
-1.349402364095993
 10
11.42779397905491
 20
-1.829402364096011
 10
11.21579397905492
 20
-1.829402364096011
  0
LWPOLYLINE
  5
2F6
330
17
100
AcDbEntity
  8
0
100
AcDbPolyline
 90
4
 70
0
 10
12.57979397905484
 20
-1.349402364095993
 10
12.36779397905485
 20
-1.349402364095993
 10
12.36779397905485
 20
-1.829402364096011
 10
12.57979397905484
 20
-1.829402364096011
  0
LWPOLYLINE
  5
2F7
330
17
100
AcDbEntity
  8
0
100
AcDbPolyline
 90
4
 70
0
 10
12.19579397905482
 20
-1.349402364095993
 10
11.98379397905483
 20
-1.349402364095993
 10
11.98379397905483
 20
-1.829402364096011
 10
12.19579397905482
 20
-1.829402364096011
  0
LWPOLYLINE
  5
2F8
330
17
100
AcDbEntity
  8
0
100
AcDbPolyline
 90
4
 70
0
 10
11.81179397905481
 20
-1.349402364095993
 10
11.59979397905482
 20
-1.349402364095993
 10
11.59979397905482
 20
-1.829402364096011
 10
11.81179397905481
 20
-1.829402364096011
  0
LWPOLYLINE
  5
2F9
330
17
100
AcDbEntity
  8
0
100
AcDbPolyline
 90
4
 70
0
 10
10.51499397905348
 20
-1.989402364096591
 10
10.31499397905355
 20
-1.989402364096434
 10
10.31499397905321
 20
-2.411402364096417
 10
10.51499397905326
 20
-2.411402364096616
  0
LWPOLYLINE
  5
2FA
330
17
100
AcDbEntity
  8
0
100
AcDbPolyline
 90
4
 70
0
 10
10.14619397905363
 20
-1.989402364096434
 10
9.946193979053703
 20
-1.98940236409625
 10
9.946193979053248
 20
-2.411402364096232
 10
10.14619397905329
 20
-2.411402364096417
  0
LWPOLYLINE
  5
2FB
330
17
100
AcDbEntity
  8
0
100
AcDbPolyline
 90
4
 70
0
 10
10.68379397905477
 20
-1.989402364096775
 10
10.88379397905481
 20
-1.989402364096591
 10
10.88379397905527
 20
-2.411402364096616
 10
10.68379397905522
 20
-2.411402364096801
  0
LWPOLYLINE
  5
2FC
330
17
100
AcDbEntity
  8
0
100
AcDbPolyline
 90
4
 70
0
 10
8.891793979054853
 20
2.338597635903951
 10
8.891793979054853
 20
2.126597635903962
 10
8.411793979054949
 20
2.126597635903962
 10
8.411793979054949
 20
2.338597635903951
  0
LWPOLYLINE
  5
2FD
330
17
100
AcDbEntity
  8
0
100
AcDbPolyline
 90
4
 70
0
 10
8.891793979054853
 20
1.954597635903937
 10
8.891793979054853
 20
1.742597635903948
 10
8.411793979054949
 20
1.742597635903948
 10
8.411793979054949
 20
1.954597635903937
  0
LWPOLYLINE
  5
2FE
330
17
100
AcDbEntity
  8
0
100
AcDbPolyline
 90
4
 70
0
 10
8.891793979054853
 20
0.5905976359039898
 10
8.891793979054853
 20
0.8025976359039788
 10
8.411793979054949
 20
0.8025976359039788
 10
8.411793979054949
 20
0.5905976359039898
  0
LWPOLYLINE
  5
2FF
330
17
100
AcDbEntity
  8
0
100
AcDbPolyline
 90
4
 70
0
 10
8.891793979054853
 20
0.9745976359040042
 10
8.891793979054853
 20
1.186597635903993
 10
8.411793979054949
 20
1.186597635903993
 10
8.411793979054949
 20
0.9745976359040042
  0
LWPOLYLINE
  5
300
330
17
100
AcDbEntity
  8
0
100
AcDbPolyline
 90
4
 70
0
 10
8.891793979054853
 20
1.358597635904018
 10
8.891793979054853
 20
1.570597635904007
 10
8.411793979054949
 20
1.570597635904007
 10
8.411793979054949
 20
1.358597635904018
  0
LWPOLYLINE
  5
301
330
17
100
AcDbEntity
  8
0
100
AcDbPolyline
 90
4
 70
0
 10
8.891793979054853
 20
0.4945976359039861
 10
8.891793979054853
 20
0.282597635903997
 10
8.411793979054949
 20
0.282597635903997
 10
8.411793979054949
 20
0.4945976359039861
  0
LWPOLYLINE
  5
302
330
17
100
AcDbEntity
  8
0
100
AcDbPolyline
 90
4
 70
0
 10
8.891793979054853
 20
0.1105976359039715
 10
8.891793979054853
 20
-0.1014023640960175
 10
8.411793979054949
 20
-0.1014023640960175
 10
8.411793979054949
 20
0.1105976359039715
  0
LWPOLYLINE
  5
303
330
17
100
AcDbEntity
  8
0
100
AcDbPolyline
 90
4
 70
0
 10
8.891793979054853
 20
-1.25340236409599
 10
8.891793979054853
 20
-1.041402364096001
 10
8.411793979054835
 20
-1.041402364096001
 10
8.411793979054835
 20
-1.25340236409599
  0
LWPOLYLINE
  5
304
330
17
100
AcDbEntity
  8
0
100
AcDbPolyline
 90
4
 70
0
 10
8.891793979054853
 20
-0.8694023640959755
 10
8.891793979054853
 20
-0.6574023640959866
 10
8.411793979054835
 20
-0.6574023640959866
 10
8.411793979054835
 20
-0.8694023640959755
  0
LWPOLYLINE
  5
305
330
17
100
AcDbEntity
  8
0
100
AcDbPolyline
 90
4
 70
0
 10
8.891793979054853
 20
-0.4854023640959611
 10
8.891793979054853
 20
-0.273402364095972
 10
8.411793979054949
 20
-0.273402364095972
 10
8.411793979054835
 20
-0.4854023640959611
  0
LWPOLYLINE
  5
306
330
17
100
AcDbEntity
  8
0
100
AcDbPolyline
 90
4
 70
0
 10
11.05259397905484
 20
-1.989402364096591
 10
11.25259397905478
 20
-1.989402364096434
 10
11.25259397905523
 20
-2.411402364096417
 10
11.05259397905519
 20
-2.411402364096616
  0
LWPOLYLINE
  5
307
330
17
100
AcDbEntity
  8
0
100
AcDbPolyline
 90
4
 70
0
 10
11.4213939790547
 20
-1.989402364096434
 10
11.62139397905474
 20
-1.98940236409625
 10
11.62139397905508
 20
-2.411402364096232
 10
11.42139397905515
 20
-2.411402364096417
  0
LWPOLYLINE
  5
308
330
17
100
AcDbEntity
  8
0
100
AcDbPolyline
 90
4
 70
0
 10
12.35899397905354
 20
-1.989402364096591
 10
12.15899397905349
 20
-1.989402364096434
 10
12.15899397905326
 20
-2.411402364096417
 10
12.35899397905319
 20
-2.411402364096616
  0
LWPOLYLINE
  5
309
330
17
100
AcDbEntity
  8
0
100
AcDbPolyline
 90
4
 70
0
 10
11.99019397905357
 20
-1.989402364096434
 10
11.79019397905352
 20
-1.98940236409625
 10
11.7901939790533
 20
-2.411402364096232
 10
11.99019397905334
 20
-2.411402364096417
  0
LWPOLYLINE
  5
30A
330
17
100
AcDbEntity
  8
0
100
AcDbPolyline
 90
4
 70
0
 10
12.52779397905482
 20
-1.989402364096775
 10
12.72779397905486
 20
-1.989402364096591
 10
12.72779397905509
 20
-2.411402364096616
 10
12.52779397905505
 20
-2.411402364096801
  0
LWPOLYLINE
  5
30B
330
17
100
AcDbEntity
  8
0
100
AcDbPolyline
 90
4
 70
0
 10
8.25179397905407
 20
2.486597635903976
 10
8.251793979054298
 20
2.28659763590393
 10
7.747793979052801
 20
2.286597635903632
 10
7.747793979052573
 20
2.486597635903677
  0
LWPOLYLINE
  5
30C
330
17
100
AcDbEntity
  8
0
100
AcDbPolyline
 90
4
 70
0
 10
8.251793979054298
 20
2.117797635903983
 10
8.251793979054526
 20
1.917797635903966
 10
7.747793979052801
 20
1.917797635903667
 10
7.747793979052573
 20
2.11779763590367
  0
LWPOLYLINE
  5
30D
330
17
100
AcDbEntity
  8
0
100
AcDbPolyline
 90
4
 70
0
 10
8.251793979054526
 20
1.748997635904046
 10
8.251793979054751
 20
1.548997635904044
 10
7.747793979052801
 20
1.548997635903745
 10
7.747793979052573
 20
1.748997635903748
  0
LWPOLYLINE
  5
30E
330
17
100
AcDbEntity
  8
0
100
AcDbPolyline
 90
4
 70
0
 10
8.251793979054298
 20
0.8113976359053225
 10
8.251793979054526
 20
1.011397635905296
 10
7.747793979052801
 20
1.011397635905609
 10
7.747793979052573
 20
0.8113976359056067
  0
LWPOLYLINE
  5
30F
330
17
100
AcDbEntity
  8
0
100
AcDbPolyline
 90
4
 70
0
 10
8.251793979054526
 20
1.180197635905216
 10
8.251793979054751
 20
1.380197635905219
 10
7.747793979052801
 20
1.38019763590556
 10
7.747793979052573
 20
1.180197635905557
  0
LWPOLYLINE
  5
310
330
17
100
AcDbEntity
  8
0
100
AcDbPolyline
 90
4
 70
0
 10
8.25179397905407
 20
0.6425976359040391
 10
8.251793979054298
 20
0.4425976359039936
 10
7.747793979052801
 20
0.4425976359036526
 10
7.747793979052573
 20
0.642597635903698
  0
LWPOLYLINE
  5
311
330
17
100
AcDbEntity
  8
0
100
AcDbPolyline
 90
4
 70
0
 10
8.251793979054298
 20
0.2737976359040033
 10
8.251793979054526
 20
0.0737976359040289
 10
7.747793979052801
 20
0.0737976359036878
 10
7.747793979052573
 20
0.2737976359037049
  0
LWPOLYLINE
  5
312
330
17
100
AcDbEntity
  8
0
100
AcDbPolyline
 90
4
 70
0
 10
8.251793979054526
 20
-0.0950023640958904
 10
8.251793979054751
 20
-0.2950023640958932
 10
7.747793979052801
 20
-0.2950023640962342
 10
7.747793979052573
 20
-0.0950023640962314
  0
LWPOLYLINE
  5
313
330
17
100
AcDbEntity
  8
0
100
AcDbPolyline
 90
4
 70
0
 10
8.251793979054298
 20
-1.032602364094643
 10
8.251793979054526
 20
-0.8326023640946402
 10
7.747793979052801
 20
-0.8326023640943419
 10
7.747793979052573
 20
-1.032602364094344
  0
LWPOLYLINE
  5
314
330
17
100
AcDbEntity
  8
0
100
AcDbPolyline
 90
4
 70
0
 10
8.251793979054526
 20
-0.6638023640947212
 10
8.251793979054751
 20
-0.4638023640947182
 10
7.747793979052801
 20
-0.4638023640944056
 10
7.747793979052573
 20
-0.6638023640944227
  0
LWPOLYLINE
  5
315
330
17
100
AcDbEntity
  8
0
100
AcDbPolyline
 90
4
 70
0
 10
8.25179397905407
 20
-1.201402364095926
 10
8.251793979054298
 20
-1.401402364095972
 10
7.747793979052801
 20
-1.401402364096284
 10
7.747793979052573
 20
-1.201402364096239
  0
LWPOLYLINE
  5
316
330
17
100
AcDbEntity
  8
0
100
AcDbPolyline
 90
12
 70
0
 10
7.74779397905246
 20
-1.829402364095997
 10
7.74779397905246
 20
-1.770202364095737
 10
7.74779397905246
 20
-1.570202364095592
 10
8.251793979054185
 20
-1.570202364095891
 10
8.251793979054185
 20
-1.989402364097045
 10
8.670993979055027
 20
-1.989402364096989
 10
8.670993979055252
 20
-2.411402364096986
 10
8.451793979053434
 20
-2.411402364097057
 10
8.411793979054949
 20
-2.411402364096844
 10
8.411793979054835
 20
-2.189402364097048
 10
8.051793979053343
 20
-2.189402364097048
 10
8.051793979053343
 20
-1.829402364096026
  0
LINE
  5
317
330
17
100
AcDbEntity
  8
0
100
AcDbLine
 10
14.75383461845899
 20
1.82904977418471
 30
0.0
 11
14.75383461845899
 21
1.221493871283797
 31
0.0
  0
LINE
  5
318
330
17
100
AcDbEntity
  8
0
100
AcDbLine
 10
15.29748686681614
 20
1.221493871283797
 30
0.0
 11
14.75383461845899
 21
1.221493871283797
 31
0.0
  0
LWPOLYLINE
  5
319
330
17
100
AcDbEntity
  8
0
100
AcDbPolyline
 90
3
 70
0
 10
13.74584103522534
 20
1.22149387128374
 10
14.39383461845887
 20
1.22149387128374
 10
14.39383461845932
 20
1.853536437425503
  0
LWPOLYLINE
  5
31A
330
17
100
AcDbEntity
  8
0
100
AcDbPolyline
 90
3
 70
0
 10
13.76120965661744
 20
0.861493871283784
 10
14.39383461845932
 20
0.8614938712837272
 10
14.39383461845932
 20
0.2950359240214482
  0
LWPOLYLINE
  5
31B
330
17
100
AcDbEntity
  8
0
100
AcDbPolyline
 90
3
 70
0
 10
14.75383461845945
 20
0.3195225872622984
 10
14.75383461845945
 20
0.8614938712836703
 10
15.28211824542427
 20
0.861493871283784
  0
CIRCLE
  5
31C
330
17
100
AcDbEntity
  8
0
100
AcDbCircle
 10
14.52166395102085
 20
1.074286180723476
 30
0.0
 40
0.7896653093769044
  0
ENDSEC
  0
SECTION
  2
OBJECTS
  0
DICTIONARY
  5
A
330
0
100
AcDbDictionary
280
0
281
1
  3
ACAD_COLOR
350
B
  3
ACAD_GROUP
350
C
  3
ACAD_LAYOUT
350
D
  3
ACAD_MATERIAL
350
E
  3
ACAD_MLEADERSTYLE
350
F
  3
ACAD_MLINESTYLE
350
10
  3
ACAD_PLOTSETTINGS
350
11
  3
ACAD_PLOTSTYLENAME
350
12
  3
ACAD_SCALELIST
350
14
  3
ACAD_TABLESTYLE
350
15
  3
ACAD_VISUALSTYLE
350
16
  3
EZDXF_META
350
2D
  0
DICTIONARY
  5
B
330
A
100
AcDbDictionary
280
0
281
1
  0
DICTIONARY
  5
C
330
A
100
AcDbDictionary
280
0
281
1
  0
DICTIONARY
  5
D
330
A
100
AcDbDictionary
280
0
281
1
  3
Model
350
1A
  3
Layout1
350
1E
  0
DICTIONARY
  5
E
330
A
100
AcDbDictionary
280
0
281
1
  3
ByBlock
350
1F
  3
ByLayer
350
20
  3
Global
350
21
  0
DICTIONARY
  5
F
330
A
100
AcDbDictionary
280
0
281
1
  3
Standard
350
2C
  0
DICTIONARY
  5
10
330
A
100
AcDbDictionary
280
0
281
1
  3
Standard
350
22
  0
DICTIONARY
  5
11
330
A
100
AcDbDictionary
280
0
281
1
  0
ACDBDICTIONARYWDFLT
  5
12
330
A
100
AcDbDictionary
280
0
281
1
  3
Normal
350
13
100
AcDbDictionaryWithDefault
340
13
  0
ACDBPLACEHOLDER
  5
13
330
12
  0
DICTIONARY
  5
14
330
A
100
AcDbDictionary
280
0
281
1
  0
DICTIONARY
  5
15
330
A
100
AcDbDictionary
280
0
281
1
  0
DICTIONARY
  5
16
330
A
100
AcDbDictionary
280
0
281
1
  0
LAYOUT
  5
1A
330
D
100
AcDbPlotSettings
  1

  2
Adobe PDF
  4
A3
  6

 40
7.5
 41
20.0
 42
7.5
 43
20.0
 44
420.0
 45
297.0
 46
0.0
 47
0.0
 48
0.0
 49
0.0
140
0.0
141
0.0
142
1.0
143
1.0
 70
1024
 72
1
 73
0
 74
5
  7

 75
16
 76
0
 77
2
 78
300
147
1.0
148
0.0
149
0.0
100
AcDbLayout
  1
Model
 70
1
 71
0
 10
0.0
 20
0.0
 11
420.0
 21
297.0
 12
0.0
 22
0.0
 32
0.0
 14
1e+20
 24
1e+20
 34
1e+20
 15
-1e+20
 25
-1e+20
 35
-1e+20
146
0.0
 13
0.0
 23
0.0
 33
0.0
 16
1.0
 26
0.0
 36
0.0
 17
0.0
 27
1.0
 37
0.0
 76
1
330
17
  0
LAYOUT
  5
1E
330
D
100
AcDbPlotSettings
  1

  2
Adobe PDF
  4
A3
  6

 40
7.5
 41
20.0
 42
7.5
 43
20.0
 44
420.0
 45
297.0
 46
0.0
 47
0.0
 48
0.0
 49
0.0
140
0.0
141
0.0
142
1.0
143
1.0
 70
0
 72
1
 73
0
 74
5
  7

 75
16
 76
0
 77
2
 78
300
147
1.0
148
0.0
149
0.0
100
AcDbLayout
  1
Layout1
 70
1
 71
1
 10
0.0
 20
0.0
 11
420.0
 21
297.0
 12
0.0
 22
0.0
 32
0.0
 14
1e+20
 24
1e+20
 34
1e+20
 15
-1e+20
 25
-1e+20
 35
-1e+20
146
0.0
 13
0.0
 23
0.0
 33
0.0
 16
1.0
 26
0.0
 36
0.0
 17
0.0
 27
1.0
 37
0.0
 76
1
330
1B
  0
MATERIAL
  5
1F
102
{ACAD_REACTORS
330
E
102
}
330
E
100
AcDbMaterial
  1
ByBlock
  2

 70
0
 40
1.0
 71
1
 41
1.0
 91
-1023410177
 42
1.0
 72
1
  3

 73
1
 74
1
 75
1
 44
0.5
 73
0
 45
1.0
 46
1.0
 77
1
  4

 78
1
 79
1
170
1
 48
1.0
171
1
  6

172
1
173
1
174
1
140
1.0
141
1.0
175
1
  7

176
1
177
1
178
1
143
1.0
179
1
  8

270
1
271
1
272
1
145
1.0
146
1.0
273
1
  9

274
1
275
1
276
1
 42
1.0
 72
1
  3

 73
1
 74
1
 75
1
 94
63
  0
MATERIAL
  5
20
102
{ACAD_REACTORS
330
E
102
}
330
E
100
AcDbMaterial
  1
ByLayer
  2

 70
0
 40
1.0
 71
1
 41
1.0
 91
-1023410177
 42
1.0
 72
1
  3

 73
1
 74
1
 75
1
 44
0.5
 73
0
 45
1.0
 46
1.0
 77
1
  4

 78
1
 79
1
170
1
 48
1.0
171
1
  6

172
1
173
1
174
1
140
1.0
141
1.0
175
1
  7

176
1
177
1
178
1
143
1.0
179
1
  8

270
1
271
1
272
1
145
1.0
146
1.0
273
1
  9

274
1
275
1
276
1
 42
1.0
 72
1
  3

 73
1
 74
1
 75
1
 94
63
  0
MATERIAL
  5
21
102
{ACAD_REACTORS
330
E
102
}
330
E
100
AcDbMaterial
  1
Global
  2

 70
0
 40
1.0
 71
1
 41
1.0
 91
-1023410177
 42
1.0
 72
1
  3

 73
1
 74
1
 75
1
 44
0.5
 73
0
 45
1.0
 46
1.0
 77
1
  4

 78
1
 79
1
170
1
 48
1.0
171
1
  6

172
1
173
1
174
1
140
1.0
141
1.0
175
1
  7

176
1
177
1
178
1
143
1.0
179
1
  8

270
1
271
1
272
1
145
1.0
146
1.0
273
1
  9

274
1
275
1
276
1
 42
1.0
 72
1
  3

 73
1
 74
1
 75
1
 94
63
  0
MLINESTYLE
  5
22
102
{ACAD_REACTORS
330
10
102
}
330
10
100
AcDbMlineStyle
  2
Standard
 70
0
  3

 62
256
 51
90.0
 52
90.0
 71
2
 49
0.5
 62
256
  6
BYLAYER
 49
-0.5
 62
256
  6
BYLAYER
  0
MLEADERSTYLE
  5
2C
102
{ACAD_REACTORS
330
F
102
}
330
F
100
AcDbMLeaderStyle
179
2
170
2
171
1
172
0
 90
2
 40
0.0
 41
0.0
173
1
 91
-1056964608
 92
-2
290
1
 42
2.0
291
1
 43
8.0
  3
Standard
 44
4.0
300

342
29
174
1
175
1
176
0
178
1
 93
-1056964608
 45
4.0
292
0
297
0
 46
4.0
 94
-1056964608
 47
1.0
 49
1.0
140
1.0
294
1
141
0.0
177
0
142
1.0
295
0
296
0
143
3.75
271
0
272
9
273
9
  0
DICTIONARY
  5
2D
330
A
100
AcDbDictionary
281
1
  3
CREATED_BY_EZDXF
350
2E
  3
WRITTEN_BY_EZDXF
350
31F
  0
DICTIONARYVAR
  5
2E
330
2D
100
DictionaryVariables
280
0
  1
1.1.4 @ 2024-09-21T09:31:07.500395+00:00
  0
DICTIONARYVAR
  5
31F
330
2D
100
DictionaryVariables
280
0
  1
1.1.4 @ 2024-09-21T09:31:07.521651+00:00
  0
ENDSEC
  0
EOF
